<svg id="Layer_1" data-name="Layer 1" xmlns="http://www.w3.org/2000/svg" xmlns:xlink="http://www.w3.org/1999/xlink" viewBox="0 0 1000 1000">
  <defs>
    <style>
      .cls-1, .cls-41, .cls-50 {
        fill: none;
      }

      .cls-2 {
        fill: url(#linear-gradient);
      }

      .cls-3 {
        fill: #6b483c;
      }

      .cls-4 {
        fill: url(#linear-gradient-2);
      }

      .cls-5 {
        fill: #366d26;
      }

      .cls-6 {
        fill: url(#linear-gradient-3);
      }

      .cls-7 {
        fill: #6e9e4f;
      }

      .cls-8 {
        fill: #b8cbd8;
      }

      .cls-9 {
        fill: #9bb0c4;
      }

      .cls-10 {
        fill: #87a1af;
      }

      .cls-11 {
        fill: #c7d8e2;
      }

      .cls-12 {
        fill: #5a9137;
      }

      .cls-13 {
        fill: url(#linear-gradient-4);
      }

      .cls-14 {
        fill: url(#linear-gradient-5);
      }

      .cls-15 {
        fill: #f2f2f2;
      }

      .cls-16 {
        fill: #e2e2e2;
      }

      .cls-17 {
        fill: #fff;
      }

      .cls-18 {
        fill: #303030;
      }

      .cls-19 {
        fill: #424242;
      }

      .cls-20 {
        fill: url(#linear-gradient-6);
      }

      .cls-21 {
        fill: url(#linear-gradient-7);
      }

      .cls-22 {
        fill: #a0674a;
      }

      .cls-23 {
        fill: url(#linear-gradient-8);
      }

      .cls-24 {
        fill: #c93535;
      }

      .cls-25 {
        fill: url(#linear-gradient-9);
      }

      .cls-26 {
        clip-path: url(#clip-path);
      }

      .cls-27 {
        fill: url(#linear-gradient-10);
      }

      .cls-28 {
        fill: #dd7b19;
        opacity: 0.5;
      }

      .cls-29 {
        fill: #303d49;
      }

      .cls-30 {
        fill: #e48f7c;
      }

      .cls-31 {
        fill: #ef8e73;
      }

      .cls-32 {
        fill: #27343d;
      }

      .cls-33 {
        fill: #e9f1f4;
      }

      .cls-34 {
        fill: url(#linear-gradient-11);
      }

      .cls-35 {
        fill: url(#linear-gradient-12);
      }

      .cls-36 {
        fill: url(#linear-gradient-13);
      }

      .cls-37 {
        fill: #c4ccce;
      }

      .cls-38 {
        fill: url(#linear-gradient-14);
      }

      .cls-39 {
        fill: #e2786d;
      }

      .cls-40 {
        fill: url(#linear-gradient-15);
      }

      .cls-41, .cls-50 {
        stroke: #565656;
        stroke-miterlimit: 10;
      }

      .cls-41 {
        stroke-width: 3.36742px;
      }

      .cls-42 {
        fill: url(#linear-gradient-16);
      }

      .cls-43 {
        fill: #f49b25;
      }

      .cls-44 {
        fill: #cddce8;
      }

      .cls-45 {
        fill: url(#linear-gradient-17);
      }

      .cls-46 {
        fill: url(#linear-gradient-18);
      }

      .cls-47 {
        fill: url(#linear-gradient-19);
      }

      .cls-48 {
        fill: url(#linear-gradient-20);
      }

      .cls-49 {
        fill: url(#linear-gradient-21);
      }

      .cls-50 {
        stroke-width: 1.36875px;
      }
    </style>
    <linearGradient id="linear-gradient" x1="10119.96182" y1="454.66992" x2="10961.33398" y2="454.66992" gradientTransform="matrix(-1, 0, 0, 1, 11070.10341, 0)" gradientUnits="userSpaceOnUse">
      <stop offset="0" stop-color="#e6f4ff"/>
      <stop offset="1" stop-color="#c0e3ff"/>
    </linearGradient>
    <linearGradient id="linear-gradient-2" x1="722.90424" y1="374.47994" x2="782.0254" y2="513.02651" gradientUnits="userSpaceOnUse">
      <stop offset="0" stop-color="#77bf49"/>
      <stop offset="0.99995" stop-color="#366d26"/>
    </linearGradient>
    <linearGradient id="linear-gradient-3" x1="154.78527" y1="560.05828" x2="936.34095" y2="560.05828" gradientUnits="userSpaceOnUse">
      <stop offset="0.00005" stop-color="#9dcc52"/>
      <stop offset="1" stop-color="#649e3f"/>
    </linearGradient>
    <linearGradient id="linear-gradient-4" x1="154.78527" y1="523.01438" x2="936.34095" y2="523.01438" xlink:href="#linear-gradient-3"/>
    <linearGradient id="linear-gradient-5" x1="798.43447" y1="328.23375" x2="907.61493" y2="578.34219" xlink:href="#linear-gradient-2"/>
    <linearGradient id="linear-gradient-6" x1="373.07721" y1="382.44815" x2="684.05593" y2="854.27793" gradientUnits="userSpaceOnUse">
      <stop offset="0.00005" stop-color="#e6ac72"/>
      <stop offset="1" stop-color="#b3703f"/>
    </linearGradient>
    <linearGradient id="linear-gradient-7" x1="471.80298" y1="317.37889" x2="782.7817" y2="789.20868" xlink:href="#linear-gradient-6"/>
    <linearGradient id="linear-gradient-8" x1="186.67434" y1="531.00086" x2="167.00011" y2="655.30626" gradientUnits="userSpaceOnUse">
      <stop offset="0" stop-color="#67a63f"/>
      <stop offset="0.99995" stop-color="#366d26"/>
    </linearGradient>
    <linearGradient id="linear-gradient-9" x1="132.31148" y1="104.87306" x2="402.8356" y2="458.70428" gradientTransform="matrix(1, 0, 0, 1, 0, 0)" xlink:href="#linear-gradient"/>
    <clipPath id="clip-path">
      <circle class="cls-1" cx="272.54335" cy="288.28891" r="196.04503"/>
    </clipPath>
    <linearGradient id="linear-gradient-10" x1="105.53972" y1="338.26274" x2="286.88842" y2="763.73469" gradientUnits="userSpaceOnUse">
      <stop offset="0.00005" stop-color="#ffcb48"/>
      <stop offset="1" stop-color="#e68e2b"/>
    </linearGradient>
    <linearGradient id="linear-gradient-11" x1="147.89102" y1="314.59518" x2="340.61808" y2="766.7625" xlink:href="#linear-gradient-10"/>
    <linearGradient id="linear-gradient-12" x1="227.76727" y1="281.44117" x2="419.37482" y2="730.98197" xlink:href="#linear-gradient-10"/>
    <linearGradient id="linear-gradient-13" x1="238.01259" y1="286.56194" x2="421.34017" y2="716.67666" xlink:href="#linear-gradient-10"/>
    <linearGradient id="linear-gradient-14" x1="157.41006" y1="187.32408" x2="289.9477" y2="402.77626" gradientUnits="userSpaceOnUse">
      <stop offset="0" stop-color="#cec7c4"/>
      <stop offset="1" stop-color="#b3a7a0"/>
    </linearGradient>
    <linearGradient id="linear-gradient-15" x1="239.53421" y1="136.80456" x2="372.07184" y2="352.25674" xlink:href="#linear-gradient-14"/>
    <linearGradient id="linear-gradient-16" x1="484.78764" y1="399.87252" x2="558.50013" y2="572.81336" xlink:href="#linear-gradient-10"/>
    <linearGradient id="linear-gradient-17" x1="502.0021" y1="390.2524" x2="580.33953" y2="574.04406" xlink:href="#linear-gradient-10"/>
    <linearGradient id="linear-gradient-18" x1="534.46926" y1="376.77635" x2="612.35165" y2="559.50042" xlink:href="#linear-gradient-10"/>
    <linearGradient id="linear-gradient-19" x1="538.63365" y1="378.85778" x2="613.1505" y2="553.68576" xlink:href="#linear-gradient-10"/>
    <linearGradient id="linear-gradient-20" x1="505.87129" y1="338.52074" x2="559.74363" y2="426.09521" xlink:href="#linear-gradient-14"/>
    <linearGradient id="linear-gradient-21" x1="539.25215" y1="317.98616" x2="593.12449" y2="405.56063" xlink:href="#linear-gradient-14"/>
  </defs>
  <path class="cls-2" d="M950.11233,562.3607s2.42714-89.31382-36.9293-127.58838-101.191-29.83446-150.323-53.496-63.3827-76.8345-112.94076-112.54122c-54.68805-39.4029-146.59745-38.20853-194.76521-7.155-50.53525,32.57984-78.70778,84.6149-128.98446,112.05477s-124.53069,34.14994-152.8969,43.40629-64.50325,29.24171-64.50325,69.11385V670.65079l841.3429-17.71821Z"/>
  <g>
    <path class="cls-3" d="M766.08,546.14855V490.00712H755.81374v56.15931h.00468c.0154.67356.51671,1.34622,1.51064,1.86184a8.84183,8.84183,0,0,0,7.26072.01172C765.59442,547.519,766.08971,546.83368,766.08,546.14855Z"/>
    <path class="cls-4" d="M716.86142,469.68929a20.916,20.916,0,0,1,5.35147-14.31134,25.54575,25.54575,0,0,1-2.31055-7.97962c-.96822-7.79645,1.64779-14.95212,6.31949-19.20887-.49251-4.95862,1.2741-9.44427,4.67171-11.83967a22.66953,22.66953,0,0,1-.28867-3.6007c0-9.7647,6.08184-17.8205,13.91308-18.91907-.017-.32034-.034-.62551-.034-.94594,0-13.41112,7.05028-24.2743,15.73092-24.2743,7.6276,0,13.9811,8.37623,15.42525,19.46831,3.14274,1.40364,5.58912,5.05015,6.42152,9.62734,4.41684,2.6852,8.375,7.62864,10.53248,13.8231a24.91806,24.91806,0,0,1,.76438,14.96739,12.14577,12.14577,0,0,1,5.06239,10.23758,13.29877,13.29877,0,0,1-1.91944,6.95732v.01527c6.914,3.43289,10.29462,13.0755,7.61059,23.23681a27.522,27.522,0,0,1-5.16442,10.26822c4.298,5.11115,5.0794,13.47221,1.37613,21.45174A25.9927,25.9927,0,0,1,789.40036,510.533a29.85262,29.85262,0,0,1-14.55864,12.20583c-3.95834,5.85884-10.34585,9.18491-16.41048,7.88808a13.03447,13.03447,0,0,1-8.8679-7.12522,28.93522,28.93522,0,0,1-11.34787-6.46907c-6.81221-2.74629-12.87684-9.04756-15.76493-17.3628a27.4368,27.4368,0,0,1-.79838-16.29477A21.129,21.129,0,0,1,716.86142,469.68929Z"/>
    <path class="cls-5" d="M804.11165,466.94487a27.43935,27.43935,0,0,1-5.1611,10.26646c4.301,5.11615,5.08479,13.477,1.37626,21.443a25.9461,25.9461,0,0,1-10.934,11.88026A29.82692,29.82692,0,0,1,774.84589,522.741c-3.95681,5.85437-10.34157,9.185-16.42017,7.88018a13.03213,13.03213,0,0,1-8.86964-7.12478,28.70685,28.70685,0,0,1-11.33561-6.47239c14.45005,2.08382,23.00257-2.50867,23.43566-16.29246,5.56717,2.88245,11.66787-1.647,8.17013-7.85671,11.95738.58444,16.43122-13.44222,8.67076-20.522,13.12908-2.70964,15.56936-18.0513,4.18606-22.59506,8.22934-3.69856,12.15606-11.60152,10.66675-23.26085a12.12673,12.12673,0,0,1,5.06543,10.2322,13.37555,13.37555,0,0,1-1.91156,6.97022c5.31418,2.62666,8.52569,8.92741,8.52569,16.30965A26.95757,26.95757,0,0,1,804.11165,466.94487Z"/>
  </g>
  <path class="cls-6" d="M108.86281,602.7253s75.13369-31.572,116.48865-53.12409S318.66931,479.887,359.71775,458.7118s82.59-30.02162,82.59-30.02162v159.448L122.28938,690.923a10.35043,10.35043,0,0,1-13.51556-9.86637Z"/>
  <polygon class="cls-7" points="342.623 472.807 360.091 480.972 398.162 482.536 417.421 449.865 417.421 383.677 385.397 397.786 380.022 422.196 357.852 435.408 349.566 455.563 342.623 472.807"/>
  <path class="cls-8" d="M124.283,704.23233,508.38849,925.986a42.10143,42.10143,0,0,0,42.1011-.00062L926.24334,709.03886a15.90552,15.90552,0,0,0,.00019-27.54891L529.421,452.37183,124.28235,686.305A10.35042,10.35042,0,0,0,124.283,704.23233Z"/>
  <ellipse class="cls-9" cx="458.82996" cy="762.12336" rx="92.12777" ry="52.947"/>
  <path class="cls-9" d="M809.23,762.04451,416.51153,535.36127l-2.46,1.41032L297.67682,603.96283a8.16578,8.16578,0,0,0-4.05109,7.0683v2.64033a2.7263,2.7263,0,0,0,1.41032,2.39451L678.58038,837.45783Z"/>
  <g>
    <path class="cls-10" d="M529.03529,476.93813,129.80839,707.426l-5.52765-3.19222a10.35043,10.35043,0,0,1,.00121-17.927l394.228-227.59495Z"/>
    <polygon class="cls-11" points="529.035 462.904 129.808 693.392 108.758 681.235 518.51 444.678 529.035 462.904"/>
  </g>
  <path class="cls-12" d="M950.10057,652.93258V683.1244a21.0507,21.0507,0,0,1-10.50787,18.22034l-75.64743,43.77195,2.58936-44.33478Z"/>
  <path class="cls-13" d="M950.10057,652.93258s-26.28268-31.8858-88.15151-87.95457-142.19344-71.1149-189.00857-112.60618S623.9732,428.4083,580.22775,410.08c-47.19544-19.7738-98.44975-22.66563-98.44975-22.66563l-44.19158-49.22171V445.00449L855.20276,707.83614Z"/>
  <path class="cls-12" d="M917.00529,617.42275q-11.76972-11.88535-28.09161-27.4539a78.869,78.869,0,0,0-19.7359-2.44076c-26.51384,0-48.00739,12.35239-48.00739,27.5901s21.49355,27.59009,48.00739,27.59009C894.33953,642.70828,914.96583,631.58119,917.00529,617.42275Z"/>
  <g>
    <path class="cls-3" d="M879.18846,613.34039V491.42988H859.16657V613.37922h.00914c.03,1.46263,1.00772,2.9233,2.94614,4.043a15.65077,15.65077,0,0,0,14.16028.02545C878.24144,616.31623,879.20739,614.82815,879.18846,613.34039Z"/>
    <path class="cls-14" d="M933.34493,447.63783a99.44852,99.44852,0,0,0,.21692-13.27391c-1.24774-24.20854-10.7391-44.01847-22.38118-48.89084.10528-.40695.26493-.78786.34476-1.20551,1.814-9.44914-3.62694-17.9846-12.15286-19.0643-.07231-.009-.14288.00492-.21461-.00318-3.22318-24.18106-15.40554-37.21231-29.98041-37.21231-14.27176,0-26.24472,12.502-29.76407,35.72422-12.70355,6.77058-23.82212,27.01291-27.176,52.11228-.45,3.36606-.70688,6.66906-.85092,9.91769a19.06962,19.06962,0,0,0-11.02544,13.96171,17.56168,17.56168,0,0,0,1.49879,11.28285c-5.45719,6.50768-8.8782,15.68407-8.8782,25.8829a43.772,43.772,0,0,0,1.76661,12.29747c-5.67584,8.34226-8.07819,20.09049-5.72038,32.60951,2.79049,14.817,11.55242,26.95883,22.317,32.90048a47.57723,47.57723,0,0,0,27.40453,22.78437c7.09076,11.3219,18.0705,18.61859,30.42814,18.61859s23.338-7.29669,30.42929-18.61859a47.56752,47.56752,0,0,0,27.34842-22.682c9.10207-3.51443,16.5694-12.19537,18.66-23.08256a28.46448,28.46448,0,0,0-2.89809-19.39229,51.93793,51.93793,0,0,0,8.28123-19.69626C954.64092,473.6341,947.10417,456.09954,933.34493,447.63783Z"/>
    <path class="cls-5" d="M950.98911,492.62378a51.02487,51.02487,0,0,1-8.2928,19.6656,28.45867,28.45867,0,0,1,2.93742,19.429c-2.1322,10.85161-9.57235,19.52359-18.67037,23.07765a47.48547,47.48547,0,0,1-27.34263,22.651c-7.10812,11.32567-18.10232,18.62323-30.42236,18.62323-12.36862,0-23.36225-7.29756-30.47036-18.62323a47.483,47.483,0,0,1-27.39007-22.79333c28.13514,7.54882,46.76268-4.67613,47.81375-34.30845,22.46971,12.01327,48.07532-6.1351,42.03319-32.65,20.35918-6.15217,24.99709-36.60111,7.25042-50.7046,15.31992-11.79653,19.86438-34.3934,2.74768-51.5101,11.6577,4.881,21.13518,24.689,22.3673,48.90385a102.68606,102.68606,0,0,1-.18973,13.26842C947.103,456.088,954.638,473.62137,950.98911,492.62378Z"/>
  </g>
  <g>
    <g>
      <path class="cls-15" d="M406.05311,292.16416V520.12294h.00864a5.11708,5.11708,0,0,0,2.58073,4.402l28.92324,16.7015a15.4467,15.4467,0,0,0,7.63,2.07141V292.16416Z"/>
      <path class="cls-16" d="M445.1957,292.16416v251.1337a15.54319,15.54319,0,0,0,7.90623-2.07141l30.71294-204.40853.51477-44.65376Z"/>
      <path class="cls-17" d="M408.6446,296.56721l28.9187,16.69621a15.53617,15.53617,0,0,0,15.5362,0l28.64123-16.536a5.17874,5.17874,0,0,0,0-8.96984L452.822,271.06136a15.53617,15.53617,0,0,0-15.5362,0l-28.64123,16.536A5.17873,5.17873,0,0,0,408.6446,296.56721Z"/>
    </g>
    <g>
      <polygon class="cls-15" points="816.778 559.975 449.726 348.782 449.726 542.663 793.255 740.263 816.778 559.975"/>
      <polygon class="cls-16" points="769.262 726.427 793.255 740.263 803.301 663.267 803.301 552.203 769.262 532.572 769.262 726.427"/>
      <path class="cls-17" d="M449.73038,348.77667,816.7801,559.97475l32.86665-18.96916c-.505-.35123-1.03189-.68047-1.58076-.99886L508.07585,344.42962l-25.413-14.66593Z"/>
    </g>
    <g>
      <path class="cls-15" d="M788.25811,512.592V740.55074h.00864a5.11708,5.11708,0,0,0,2.58072,4.402l28.92325,16.7015a15.44664,15.44664,0,0,0,7.63,2.07141V512.592Z"/>
      <path class="cls-16" d="M827.40069,512.592V763.72566a15.54314,15.54314,0,0,0,7.90623-2.07141l28.63835-16.53756a5.12,5.12,0,0,0,2.58072-4.56595h.00864V512.592Z"/>
      <path class="cls-17" d="M790.8496,516.995l28.91869,16.69621a15.53619,15.53619,0,0,0,15.53621,0l28.64122-16.536a5.17873,5.17873,0,0,0,0-8.96983L835.027,491.48916a15.53619,15.53619,0,0,0-15.53621,0l-28.64122,16.536A5.17874,5.17874,0,0,0,790.8496,516.995Z"/>
    </g>
  </g>
  <g>
    <g>
      <g>
        <g>
          <path class="cls-18" d="M667.4564,735.47543l22.31167-13.145c12.124-15.76078,26.836-25.56861,40.86259-27.73248-.04568-.035.001-.03588.10938-.01386.40673-.06137.80957-.10782,1.21215-.15323,4.44335-1.11405,18.41017-6.48208,18.41017-6.48208v.00009l13.09744-16.52243c0,28.24911,12.53808,59.09336,24.2313,82.0976l.63208-.45259,1.12167,10.35913c-.71666.35708-8.04315-4.11444-8.62834-4.98434a159.74069,159.74069,0,0,1-18.0836-29.58832l-.00061.00017c-8.49054-16.3139-16.85888-23.69188-32.0343-21.35112-14.0092,2.16188-28.277,12.51641-39.14394,28.41084-9.03292,13.21219-20.08869,36.401-20.41968,71.85305.07956,4.193.24154,8.45466.44669,12.83492l.30031-.215,1.12167,10.359-7.73565-4.46866a2.23833,2.23833,0,0,1-1.08779-1.51965C658.98856,797.47,660.29371,757.11256,667.4564,735.47543Z"/>
          <path class="cls-19" d="M676.08474,740.45977l22.31167-13.145c12.124-15.76078,26.836-25.56861,40.86259-27.73247-.04567-.035.001-.03589.10938-.01387.40674-.06136.80958-.10782,1.21216-.15323,4.44335-1.11405,18.41017-6.48207,18.41017-6.48207v.00008l13.09744-16.52243c0,28.13856,12.44111,58.8647,24.095,81.83986a1.18505,1.18505,0,0,1-.47123,1.5671l-6.26705,3.61284a159.74069,159.74069,0,0,1-18.0836-29.58832l-.0006.00017c-8.49055-16.3139-16.85888-23.69187-32.0343-21.35111-14.0092,2.16187-28.277,12.51641-39.144,28.41083-9.03291,13.21219-20.08869,36.401-20.41968,71.853.07763,4.09213.22848,8.23736.42645,12.506a2.1509,2.1509,0,0,1-1.06846,1.96171l-6.11766,3.52685C667.58562,803.45281,668.83374,762.36384,676.08474,740.45977Z"/>
        </g>
        <g>
          <path class="cls-18" d="M312.93921,530.84551l22.31167-13.145c12.124-15.76079,26.836-25.56861,40.86259-27.73248-.04567-.035.001-.03588.10938-.01387.40673-.06136.80957-.10781,1.21215-.15323,4.44335-1.114,18.41017-6.48207,18.41017-6.48207v.00009l13.09744-16.52243c0,28.24911,12.53808,59.09335,24.23131,82.0976l.63207-.45259,1.12168,10.35913c-.71667.35708-8.04316-4.11445-8.62835-4.98434a159.74045,159.74045,0,0,1-18.0836-29.58833l-.00061.00018c-8.49054-16.31391-16.85888-23.69188-32.0343-21.35112-14.0092,2.16188-28.277,12.51641-39.14394,28.41084-9.03292,13.21219-20.08869,36.401-20.41968,71.85305.07956,4.193.24154,8.45466.44669,12.83491l.30031-.215,1.12167,10.359-7.73565-4.46866a2.23835,2.23835,0,0,1-1.08779-1.51966C304.47137,592.84,305.77653,552.48263,312.93921,530.84551Z"/>
          <path class="cls-19" d="M321.56756,535.82985l22.31166-13.145c12.124-15.76078,26.836-25.56861,40.8626-27.73248-.04568-.035.001-.03588.10937-.01386.40674-.06137.80958-.10782,1.21216-.15324,4.44335-1.114,18.41017-6.48207,18.41017-6.48207v.00009L417.571,471.78084c0,28.13855,12.44112,58.86469,24.095,81.83985a1.18508,1.18508,0,0,1-.47123,1.56711l-6.26705,3.61284a159.74018,159.74018,0,0,1-18.08361-29.58832l-.0006.00017c-8.49054-16.31391-16.85888-23.69188-32.0343-21.35112-14.0092,2.16188-28.277,12.51641-39.14394,28.41084-9.03292,13.21219-20.0887,36.401-20.41969,71.85305.07763,4.09213.22848,8.23736.42645,12.506a2.15089,2.15089,0,0,1-1.06845,1.96171l-6.11767,3.52686C313.06843,598.82289,314.31656,557.73391,321.56756,535.82985Z"/>
        </g>
        <g>
          <path class="cls-18" d="M300.677,532.58635v-2.88759a8.851,8.851,0,0,1,4.4279-7.66657l90.58706-52.26809v-.82232c0-37.13565,19.28094-99.72965,37.60388-136.14952,1.84771-3.67262,5.69143-5.81217,9.52607-4.3297h0a3.87614,3.87614,0,0,1,2.29635,5.05075c-17.81868,40.77452-38.06642,98.43992-38.06642,135.42847v2.83487a7.87678,7.87678,0,0,1-3.94056,6.82276L305.1082,535.14567A2.9547,2.9547,0,0,1,300.677,532.58635Z"/>
          <polygon class="cls-18" points="451.563 333.488 443.189 328.627 443.78 334.968 451.563 333.488"/>
          <polygon class="cls-18" points="310.002 539.693 302.074 535.096 311.16 531.422 310.002 539.693"/>
          <path class="cls-19" d="M308.58865,537.17341v-2.88759a8.851,8.851,0,0,1,4.4279-7.66657l90.587-52.26809v-.82232c0-37.13565,19.28094-99.72966,37.60388-136.14953,1.84771-3.67262,5.69144-5.81217,9.52607-4.3297l0,0a3.87612,3.87612,0,0,1,2.29634,5.05074c-17.81867,40.77452-38.06641,98.43993-38.06641,135.42848v2.83487a7.87681,7.87681,0,0,1-3.94057,6.82276l-98.003,56.54625A2.95469,2.95469,0,0,1,308.58865,537.17341Z"/>
        </g>
        <g>
          <path class="cls-18" d="M657.75072,738.71492v-2.88759a8.851,8.851,0,0,1,4.4279-7.66657l90.587-52.2681v-.82231c0-37.13566,19.28094-99.72966,37.60389-136.14953,1.84771-3.67262,5.69143-5.81217,9.52607-4.3297l0,0a3.87611,3.87611,0,0,1,2.29634,5.05074c-17.81867,40.77452-38.06641,98.43993-38.06641,135.42848v2.83487A7.87681,7.87681,0,0,1,760.185,684.728l-98.003,56.54625A2.95469,2.95469,0,0,1,657.75072,738.71492Z"/>
          <polygon class="cls-18" points="808.637 539.616 800.263 534.755 800.853 541.096 808.637 539.616"/>
          <polygon class="cls-18" points="667.076 745.822 659.148 741.225 668.234 737.551 667.076 745.822"/>
          <path class="cls-19" d="M665.66239,743.302v-2.88759a8.851,8.851,0,0,1,4.42755-7.66636l90.58741-52.2683v-.82232c0-37.42951,19.58729-100.72188,38.03867-137.00911a7.25674,7.25674,0,0,1,9.09129-3.47014h0a3.95942,3.95942,0,0,1,2.19475,5.28343c-17.79394,40.76089-37.96483,98.27754-37.96483,135.19582v2.83453a7.87738,7.87738,0,0,1-3.94056,6.8231l-98.00294,56.54619A2.9547,2.9547,0,0,1,665.66239,743.302Z"/>
        </g>
      </g>
      <g>
        <path class="cls-20" d="M282.37753,530.812v2.28615a2.36,2.36,0,0,0,1.22117,2.07322L651.99136,747.81756l106.996-68.82674-1.86018-1.0792-368.35-212.61788-2.13,1.22125L285.88486,524.69183A7.07046,7.07046,0,0,0,282.37753,530.812Z"/>
        <path class="cls-21" d="M801.68739,544.00478c-14.589,32.77744-35.23927,95.37358-41.98407,134.50624l-.71259.48639L388.775,465.29381v-.656c0-29.57809,21.4348-99.10473,36.98466-129.81223,1.47561-2.914,4.52437-4.62613,7.57833-3.44982a3.6732,3.6732,0,0,1,.76914.44114Z"/>
        <path class="cls-22" d="M650.70779,745.72738v-2.30011a7.05026,7.05026,0,0,1,3.527-6.10681L757.1152,677.92058v-.655c0-29.58044,17.80082-90.29655,36.98108-129.80989,1.43006-2.94606,4.53352-4.62969,7.588-3.44883l0,0a3.02753,3.02753,0,0,1,1.82916,4.02317c-18.02305,35.01137-37.34951,99.77228-37.34951,129.23554v2.25812a6.27428,6.27428,0,0,1-3.13887,5.43468L654.23749,747.766A2.35357,2.35357,0,0,1,650.70779,745.72738Z"/>
      </g>
    </g>
    <path class="cls-22" d="M386.64718,466.515,756.048,679.7718l1.0792-1.86018,1.05078-1.83175L388.80559,462.8514c-.01422.61059-.02843,1.207-.02843,1.7892v.65314Z"/>
    <polygon class="cls-22" points="303.919 514.283 672.283 726.901 676.543 724.445 308.179 511.813 303.919 514.283"/>
    <polygon class="cls-22" points="331.495 498.351 699.845 710.983 704.091 708.541 335.755 495.895 331.495 498.351"/>
    <polygon class="cls-22" points="359.071 482.433 727.421 695.079 731.681 692.608 363.331 479.976 359.071 482.433"/>
    <path class="cls-22" d="M415.84211,357.5452l368.279,212.60358c.5396-1.3348,1.07921-2.66959,1.61872-3.976l-368.32158-212.632Q416.6302,355.50036,415.84211,357.5452Z"/>
    <path class="cls-22" d="M406.55543,383.64448l368.066,212.47592c.45441-1.37744.92294-2.74066,1.39156-4.118l-368.10864-212.49C407.44994,380.88979,406.99562,382.26713,406.55543,383.64448Z"/>
    <path class="cls-22" d="M398.51825,410.46806l367.995,212.43327c.38342-1.40577.76676-2.82576,1.1644-4.24574L399.69686,406.22231C399.29923,407.6423,398.90168,409.06228,398.51825,410.46806Z"/>
    <path class="cls-22" d="M391.98634,438.15781l368.10856,212.49q.3835-2.19381.852-4.43035L392.86673,433.75588C392.55429,435.24685,392.25615,436.70948,391.98634,438.15781Z"/>
  </g>
  <path class="cls-22" d="M534.33251,679.90168l-.67346-4.16639a12.35338,12.35338,0,0,1,5.614-12.42565l56.95423-38.64838a86.46689,86.46689,0,0,0,36.35176-55.182L653.93145,458.7118,615.76681,436.681l-85.05394,186.2203L510.1017,651.69022V665.915Z"/>
  <path class="cls-10" d="M108.75767,681.23539l21.05072,12.15677V707.426l-10.5274-6.07957a21.05071,21.05071,0,0,1-10.52332-18.22928Z"/>
  <path class="cls-23" d="M130.364,636.98777c12.18665,10.11721,45.27283,9.16087,51.506-10.00243,10.462,4.25366,26.44231-7.12783,22.00192-15.18631,19.15645,5.3205,35.13721-9.87652,29.91693-21.7047,31.54781-14.72976,12.5781-43.52931-4.0922-41.40248,1.83646-17.75641-14.19869-26.9601-27.30486-17.04375-8.79511-15.08952-36.21518-10.3472-36.0897,9.86752-23.17669-13.51774-52.78514,6.27252-40.97794,35.81771-6.57578-6.02031-12.0964-3.12725-16.55478,1.50115v61.29557C114.70705,640.46924,121.86315,639.575,130.364,636.98777Z"/>
  <g>
    <g>
      <g>
        <path class="cls-24" d="M272.54346,93.88135a193.74321,193.74321,0,1,1-75.667,15.27,193.17293,193.17293,0,0,1,75.667-15.27m0-17.54248c-117.05713,0-211.9502,94.89306-211.9502,211.95019,0,117.05664,94.89307,211.9502,211.9502,211.9502,117.05664,0,211.95019-94.89356,211.95019-211.9502,0-117.05713-94.89355-211.95019-211.95019-211.95019Z"/>
        <circle class="cls-25" cx="272.54335" cy="288.28891" r="196.04503"/>
      </g>
      <circle class="cls-24" cx="96.42821" cy="179.94767" r="62.61491"/>
    </g>
    <g class="cls-26">
      <g>
        <g>
          <g>
            <path class="cls-27" d="M159.50978,345.20438C130.86522,378.97979,69.2759,457.50305,69.2759,457.50305s-15.45075.60874-26.28617,3.01957S25.8729,482.9263,31.62971,512.763c4.68544,24.28391,30.81152,40.33656,63.34032,24.96862,21.01455-9.92856,98.79172-90.68786,98.79172-90.68786L238.674,300.43017S197.9941,299.82672,159.50978,345.20438Z"/>
            <path class="cls-28" d="M177.163,463.82718l-11.81932-64.42866L144.07616,496.186C155.41352,485.3781,167.005,473.969,177.163,463.82718Z"/>
            <circle class="cls-29" cx="59.15352" cy="485.54355" r="25.02093"/>
            <path class="cls-30" d="M50.05773,455.124l-4.19985,23.08416s-3.966,14.7613,14.72121,21.19974S84.13435,495.482,84.13435,495.482L87.118,484.96068Z"/>
            <path class="cls-31" d="M122.11611,821.38065,94.02757,665.60752-17.572,713.97433c-43.237,22.92713-61.55777,60.40617-43.34169,114.74032l93.8023,241.62469-20.938,26.59128c3.41585,9.46867,18.54058,15.445,18.54058,15.445s59.4684-15.058,59.29649-36.33066l-5.49623-12.56281c-19.47236-81.92-1.62053-132.94692-28.63057-232.82125Z"/>
            <path class="cls-32" d="M-9.84772,974.01853l19.40886,44.89126c10.24327,18.94254,70.89392,2.10664,67.1357-23.885L70.301,942.45857Z"/>
            <path class="cls-32" d="M237.15751,813.58529,177.54926,621.11524-22.638,706.09939c-47.62286,21.77553-62.56387,81.78613-45.27888,127.06405L-11.22957,986.852c12.71823,37.97947,95.57188,17.06448,90.96552-23.55527L64.31421,843.76349Z"/>
            <path class="cls-31" d="M144.83914,882.29627c-6.072,12.144-26.37506,45.75009-27.361,70.58081l.94221,193.46725-10.92882,32.22794c-5.11249,22.11652,43.48747,9.26241,43.48747,9.26241s7.3779-12.397,8.97578-16.25222.3847-14.10117.3847-14.10117l-1.09-9.5666c9.1856-38.075,45.00836-100.85762,50.35593-171.16827l24.22994-31.82579C255.641,923.10958,163.67521,844.62413,144.83914,882.29627Z"/>
            <path class="cls-29" d="M191.07526,598.39649l-53.61189,41.03509,54.17777,117.42891S130.81458,868.02873,117.215,912.83608c-12.90381,42.515-6.868,140.91284-6.868,140.91284.6243,35.804,76.706,38.47361,83.71051,15.23241l29.367-94.01465,121.76915-114.2683c41.86143-41.8246,63.6249-67.369,63.6249-129.677,0-68.42576-12.8703-100.16847-12.8703-100.16847Z"/>
            <path class="cls-33" d="M267.9729,311.57452c-48.15744,4.397-89.199-5.238-86.45973,62.60466-28.80711,60.92617-13.99316,107.87227,13.645,163.83693l-4.71106,28.924L134.1346,639.51651c-14.97447,26.48659,22.86481,97.94435,70.18254,123.82215C272.78444,800.783,414.07238,795.985,411.2087,744.49445c-1.87679-42.03181-8.474-103.33465-16.51117-147.71286l31.581-174.86373C416.90358,373.79529,344.87516,344.30728,267.9729,311.57452Z"/>
            <path class="cls-31" d="M269.45305,301.73357c-10.55863.964-21.33319,1.63674-31.69331,2.8134-20.88481,24.38954,19.42953,69.50461,19.42953,69.50461s89.05968-2.57936,96.74845-33.89667A471.16791,471.16791,0,0,0,269.45305,301.73357Z"/>
            <path class="cls-34" d="M266.94027,303.51338c-50.42674-10.963-97.90623,10.79156-95.56464,68.78445-18.46132,63.62558-7.15479,122.66782,2.58138,180.35205l-13.662,41.1432c-5.81172,17.06744-.62435,45.25746,9.55981,60.29783-.00009-.00013,25.35291-41.61087,34.72551-75.8443s-17.62336-110.57928-.76812-167.63528,48.20978-94.93975,48.20978-94.93975Z"/>
            <path class="cls-35" d="M409.63091,687.54293c-1.87639-42.03151-6.89623-46.38313-14.93338-90.76134l31.58115-174.86365c-7.76565-31.11595-32.73843-56.43049-72.341-81.763,0,0-46.25645,17.29016-73.17836,80.50666-40.97789,96.222-6.8726,268.50873-10.51208,288.44066C316.9965,712.08179,372.62443,704.80738,409.63091,687.54293Z"/>
            <path class="cls-28" d="M357.42779,613.00371l-69.14922,91.8132c16.8242-.54418,39.80961,1.9589,56.54491-1.32539l57.83041-67.87442L345.66721,483.47548Z"/>
            <path class="cls-36" d="M426.797,424.25563c-12.4487-57.34678-88.40506-18.98379-81.12982,59.22l33.11736,143.76594-76.37284,69.25249c-22.19429,25.335,3.76885,64.54143,29.83668,55.11932,0,0,110.28894-36.74678,124.42557-93.175C464.7784,626.08977,440.07918,485.44182,426.797,424.25563Z"/>
            <ellipse class="cls-29" cx="317.45842" cy="721.33743" rx="19.1272" ry="26.73001" transform="translate(-129.48299 72.22194) rotate(-10.79478)"/>
          </g>
          <path class="cls-15" d="M122.61527,683.53258l146.741,84.60034a8.1567,8.1567,0,0,0,11.7826-9.73271L192.42451,501.91428a23.66387,23.66387,0,0,0-10.54461-12.7655L13.56771,392.112,108.4223,666.3503A31.85147,31.85147,0,0,0,122.61527,683.53258Z"/>
          <polygon class="cls-37" points="145.272 493.238 253.312 716.856 260.379 709.752 182.332 493.238 145.272 493.238"/>
          <path class="cls-31" d="M27.59356,431.85256l-5.118-14.46753-4.26769,2.74611a16.00181,16.00181,0,0,0-6.42684,7.65575,27.10985,27.10985,0,0,0-1.68391,7.60595c-.689,9.332,2.40735,26.74977,4.9328,37.64024,3.70053,15.95778,15.85626,24.9,31.81374,21.19954,7.97859-1.8502,17.97576-2.73434,21.99184-9.17538,4.016-6.44164,2.05168-18.43914.20134-26.41832C66.56942,447.99865,44.04455,437.31159,27.59356,431.85256Z"/>
          <path class="cls-38" d="M202.43125,193.21879s-2.58223,11.66774-4.77047,52.08981c-1.41525,26.14295-7.609,52.4902.62644,74.11276,13.62073,35.7617,55.99205,30.47133,74.49562,14.83239Z"/>
          <path class="cls-39" d="M256.87155,340.15491c1.15764,9.80672,4.49149,17.52257,15.91129,19.65586,23.17221,4.3287,54.83974-19.22562,51.58148-37.37794l-9.172-48.14766L253.9587,289.38022Z"/>
        </g>
        <g>
          <path class="cls-31" d="M261.79153,331.95484c32.29756-4.6717,50.74311-23.00339,53.79541-53.50818l6.4913-65.9612c3.362-26.53591-19.49726-52.70919-50.58019-53.92166-27.16607-1.05969-56.081,20.29522-57.26943,50.38877,0,0-.97186,37.15275,2.15472,66.71378S231.76927,336.29743,261.79153,331.95484Z"/>
          <g>
            <path class="cls-40" d="M384.47494,309.2113c.361-24.58566-13.46324-143.566-89.27223-161.61934-57.18109-10.51517-90.12955,29.21746-92.76785,45.62711-2.28089,14.19045,16.94209,54.9577,83.85041,55.5032-3.685,12.53909,3.87658,27.04624,16.10518,21.25038,2.66437,2.99515,9.19722,5.462,9.19722,5.462s-25.0431,65.43587,2.43367,83.198C344.5933,378.39553,383.82417,353.53478,384.47494,309.2113Z"/>
            <g>
              <path class="cls-41" d="M228.8947,263.22707c5.61515-1.84817,13.05025-.1437,19.456,5.4178"/>
              <line class="cls-41" x1="278.89104" y1="266.28178" x2="315.21225" y2="249.69433"/>
              <path class="cls-18" d="M230.36411,270.86776c-3.24776,6.37845-21.52515,6.21-27.50166-2.38382-6.99167-10.05359-6.31991-25.15929-.76985-26.19989s20.4237,4.08431,24.75664,8.60114C232.3603,256.63014,233.25274,265.19464,230.36411,270.86776Z"/>
              <path class="cls-18" d="M243.8982,271.833c-2.93544-5.45737-2.56162-13.67893,1.94372-16.88707,4.3154-3.07288,23.41207-1.41974,29.9397,3.74221,4.72566,3.737,9.86239,14.44983,3.662,22.39606C272.07164,290.532,251.77706,286.48087,243.8982,271.833Z"/>
            </g>
            <path class="cls-31" d="M310.73584,291.60649c12.023-.89384,20.89579-18.43374,19.88151-32.07681s-13.68049-24.24674-23.55455-17.32912C294.66766,250.88441,298.71288,292.50033,310.73584,291.60649Z"/>
          </g>
        </g>
        <path class="cls-31" d="M316.13269,699.80324S291.935,689.698,281.713,688.7261s-24.03621,1.89836-24.03621,1.89836l4.30118,12.4389-11.32612,11.63553L226.91966,716.985a7.39543,7.39543,0,0,0-4.75141,12.37293c9.20082,9.93765,23.03095,23.19946,32.30745,24.43151,20.41,2.71072,65.41427-11.70627,65.41427-11.70627C332.88961,741.92605,331.1829,706.83627,316.13269,699.80324Z"/>
        <path class="cls-15" d="M-23.121,399.79209l164.23222,94.68453a11.45565,11.45565,0,0,0,6.38168,1.51221l28.84165,5.06386a16.36787,16.36787,0,0,1,12.52007,10.44083l2.24152,6.05737-7.56-24.31262-8.44187-8.00159L13.56771,392.112l-35.35228,2.04011A3.02464,3.02464,0,0,0-23.121,399.79209Z"/>
      </g>
    </g>
  </g>
  <g>
    <rect class="cls-17" x="89.89837" y="146.52034" width="13.0597" height="66.85466" transform="translate(-98.99905 120.8905) rotate(-45)"/>
    <rect class="cls-17" x="89.89837" y="146.52034" width="13.0597" height="66.85466" transform="translate(37.37104 375.37493) rotate(-135)"/>
  </g>
  <g>
    <g>
      <g>
        <path class="cls-42" d="M506.72476,402.69407c-11.64311,13.72863-36.67721,45.64585-36.67721,45.64585a73.96423,73.96423,0,0,0-10.68449,1.22736c-4.40426.97992-6.95745,9.10638-4.61749,21.234,1.90448,9.87064,12.5239,16.39553,25.74583,10.149,8.54175-4.03564,40.15569-36.86174,40.15569-36.86174l18.25539-59.59375S522.36741,384.24949,506.72476,402.69407Z"/>
        <path class="cls-28" d="M513.90021,450.91048,509.096,424.72227l-8.64455,39.341C505.05976,459.67024,509.7713,455.03279,513.90021,450.91048Z"/>
        <circle class="cls-29" cx="465.93312" cy="459.73749" r="10.17021"/>
        <path class="cls-30" d="M462.236,447.37291l-1.7071,9.383s-1.612,6,5.9837,8.617,9.57447-1.59574,9.57447-1.59574l1.21276-4.2766Z"/>
        <path class="cls-43" d="M486.07005,715.276c1.6391,5.94963,3.14465,11.54659-.1745,16.54537-4.15686,6.26042-12.33267,5.78225-22.69969,9.56577s-20.679,10.31363-38.15138,7.9583-15.94248-17.77939-10.97632-22.547l23.65718-9.4239,16-13.57446S482.42609,707.22832,486.07005,715.276Z"/>
        <path class="cls-32" d="M479.7835,697.28433c3.644,8.0477,9.57006,23.03314,5.69012,29.46885s-11.91074,6.70152-22.27776,10.485-20.679,10.31364-38.15138,7.9583-15.783-17.57269-7.06382-21.37513l19.74468-10.59574,16-13.57447S476.13954,689.23662,479.7835,697.28433Z"/>
        <path class="cls-31" d="M491.52542,596.24461l-11.41711-63.31683-45.3617,19.65957c-17.57447,9.31915-25.02127,24.55319-17.617,46.6383l38.12766,98.21276-8.51064,10.80851c1.38844,3.84872,7.53616,6.2779,7.53616,6.2779s24.172-6.12059,24.10214-14.76726l-2.234-5.10638c-7.9149-33.29787-.6587-54.0387-11.63742-94.63445Z"/>
        <path class="cls-32" d="M437.88631,658.28706l7.88909,18.24687c4.16356,7.69955,28.81612.85628,27.28853-9.70848l-2.59971-21.36651Z"/>
        <path class="cls-44" d="M446.74665,708.24683c1.38842,3.84888,7.53613,6.27783,7.53613,6.27783s24.172-6.12036,24.10217-14.76709l-2.23413-5.10644c-7.15527,7.17187-14.65576,8.40161-22.42554,5Z"/>
        <path class="cls-43" d="M437.72534,713.22565c-1.97449,2.5437,3.70212,8.42553,9.27659,6.29787l18.62973-8.82967c-1.686-8.39477-10.16164-14.7448-15.58718-8.48948Z"/>
        <path class="cls-32" d="M538.2861,593.076l-24.22887-78.233-81.36975,34.54336c-19.35718,8.85106-25.43023,33.24346-18.40443,51.6475l23.04158,62.46951c5.16956,15.43745,38.84694,6.93617,36.9746-9.57447l-6.26845-48.58646Z"/>
        <path class="cls-43" d="M509.2147,740.53416s2.06714,15.99849.92994,21.49279c-1.42518,6.88558-5.97382,11.82947-6.98015,16.41275s-2.06663,14.17785-10.6627,19.85216c-16.56369,10.93379-33.07433-1.6194-26.88654-16.01083l7.08721-11.02576,13.47216-32.09933C488.37427,730.73629,508.3211,731.58743,509.2147,740.53416Z"/>
        <path class="cls-32" d="M509.2147,736.57671s2.06714,15.9985.92994,21.4928c-1.42518,6.88557-5.97382,11.82946-6.98015,16.41275s-3.07616,14.84548-10.6627,19.85216c-16.56493,10.9319-32.90411-1.15133-25.90891-14.30547l6.10958-12.73113,13.47216-32.09933C488.37427,726.77884,508.3211,727.63,509.2147,736.57671Z"/>
        <path class="cls-31" d="M500.76161,621.00487c-2.46809,4.93617-10.72063,18.596-11.12138,28.68886l.383,78.6383L485.581,741.43166c-2.07806,8.98967,17.67628,3.76488,17.67628,3.76488s2.99888-5.039,3.64836-6.606.15637-5.73168.15637-5.73168l-.44305-3.88852c3.73366-15.47628,18.29447-40.99542,20.46809-69.57447l9.8487-12.93617C545.79906,637.59419,508.41787,605.69235,500.76161,621.00487Z"/>
        <path class="cls-32" d="M487.93326,686.10646l1.04682,18.48144c.29787,8.83044,23.82978,11.80916,26.77354,1.78012l5.96985-20.0294Z"/>
        <path class="cls-44" d="M503.25727,745.19654s2.9989-5.03906,3.64843-6.606c.64942-1.56714.15625-5.73169.15625-5.73169-6.826,6.537-18.10257,3.6008-18.35791-.35669l-3.123,8.92945C483.50287,750.42139,503.25727,745.19654,503.25727,745.19654Z"/>
        <path class="cls-43" d="M485.37144,741.387c1.30074-7.64328,17.52411-3.69325,17.88583,3.80956L495.04448,759.332c-2.256,3.52128-15.734,1.46809-14.10643-3.31909Z"/>
        <path class="cls-29" d="M519.55512,505.60863l-21.79153,16.67946,22.02155,47.73112s-24.72407,45.18636-30.25187,63.39913c-5.245,17.281-2.79163,57.2766-2.79163,57.2766.25376,14.55319,31.17857,15.63829,34.02567,6.19148l11.93675-38.214L582.19935,612.226c17.01535-17.00037,25.86151-27.38335,25.86151-52.7096,0-27.8129-5.23137-40.7153-5.23137-40.7153Z"/>
        <path class="cls-33" d="M550.81157,389.0246c-19.57447,1.78723-36.25657-2.12906-35.14313,25.44681-11.70918,24.76455-5.68778,43.84665,5.54626,66.59451l-1.9149,11.75668-22.88925,29.5c-6.08665,10.766,9.29382,39.81127,28.527,50.32977,27.82979,15.22,85.25885,13.26968,84.09486-7.65957a510.97712,510.97712,0,0,0-6.71127-60.04059l12.83669-71.07656C611.34716,414.31537,582.0699,402.32943,550.81157,389.0246Z"/>
        <path class="cls-31" d="M551.41321,385.02457c-4.29175.39185-8.67127.66528-12.88233,1.14355-8.489,9.91358,7.89749,28.25142,7.89749,28.25142s36.19993-1.04843,39.32517-13.77792A191.51484,191.51484,0,0,0,551.41321,385.02457Z"/>
        <path class="cls-45" d="M550.39184,385.748c-20.49687-4.45613-39.79577,4.38642-38.844,27.95869-7.50394,25.86178-2.9082,49.86058,1.04925,73.30738l-5.55319,16.72341c-2.36228,6.93737-.25378,18.39572,3.88576,24.50915,0,0,10.30515-16.91349,14.11481-30.8283s-7.16333-44.947-.31221-68.13842a119.193,119.193,0,0,1,19.59574-38.59Z"/>
        <path class="cls-46" d="M608.39106,541.84383c-.7627-17.08448-2.80311-18.85328-6.07-36.89161l12.83674-71.07652c-3.1565-12.64765-13.30714-22.9372-29.40431-33.23408,0,0-18.80178,7.02791-29.74468,32.72341-16.65621,39.11117-2.79349,109.14027-4.27283,117.242C570.73811,551.81809,593.34909,548.86128,608.39106,541.84383Z"/>
        <path class="cls-28" d="M587.17214,511.546l-28.107,37.31915c6.8385-.22119,16.18134.79623,22.98371-.53873l23.50623-27.5888-23.16328-61.84074Z"/>
        <path class="cls-47" d="M615.36854,434.8259c-5.06-23.30965-35.93385-7.71631-32.9767,24.071L595.853,517.33323l-31.04314,28.14894c-9.02127,10.29787,1.53192,26.234,12.12766,22.40425,0,0,44.829-14.93639,50.57505-37.87267C630.80676,516.86507,620.76731,459.69614,615.36854,434.8259Z"/>
        <ellipse class="cls-29" cx="570.92586" cy="555.58022" rx="7.7746" ry="10.8649" transform="translate(-93.95273 116.76115) rotate(-10.79478)"/>
      </g>
      <path class="cls-15" d="M491.72831,540.21374l59.64555,34.38736a3.31544,3.31544,0,0,0,4.78925-3.956L520.10355,466.39167a9.61862,9.61862,0,0,0-4.28605-5.18877l-68.41356-39.44236,38.55538,111.46915A12.94658,12.94658,0,0,0,491.72831,540.21374Z"/>
      <polygon class="cls-37" points="500.938 462.865 544.852 553.759 547.725 550.871 516.001 462.865 500.938 462.865"/>
      <path class="cls-31" d="M453.105,437.91381l-2.0803-5.88059-1.73468,1.1162a6.5043,6.5043,0,0,0-2.61231,3.11182,11.01931,11.01931,0,0,0-.68445,3.09158c-.28,3.79317.97851,10.87293,2.005,15.29956,1.50415,6.48633,6.44507,10.12106,12.93128,8.61694,3.243-.752,7.30657-1.11142,8.939-3.7295,1.63235-2.61832.83394-7.49492.08183-10.73821C468.94745,444.47668,459.7918,440.13273,453.105,437.91381Z"/>
      <path class="cls-48" d="M524.171,340.91675s-1.04959,4.74257-1.939,21.17286c-.57526,10.62628-3.09284,21.3356.25462,30.12448,5.5364,14.536,22.759,12.38563,30.28011,6.0289Z"/>
      <path class="cls-39" d="M546.29923,400.64162c.47054,3.98612,1.82564,7.12237,6.46743,7.98949,9.41877,1.75948,22.29061-7.81461,20.96623-15.19295l-3.72812-19.57049-24.88952,6.13565Z"/>
    </g>
    <g>
      <path class="cls-31" d="M548.299,397.30855c13.12793-1.89889,20.62546-9.35014,21.86613-21.74937l2.63851-26.81114c1.36654-10.786-7.925-21.42461-20.55925-21.91744-11.04214-.43073-22.79513,8.24936-23.2782,20.48144a247.443,247.443,0,0,0,.87582,27.117C531.11291,386.44469,536.096,399.07368,548.299,397.30855Z"/>
      <g>
        <path class="cls-49" d="M598.16595,388.064c.14673-9.99329-5.47238-58.355-36.28632-65.69313-23.24231-4.27409-36.63481,11.876-37.70719,18.546-.92711,5.768,6.88642,22.33856,34.08253,22.56029-1.49783,5.09674,1.57571,10.99344,6.54624,8.6376a11.953,11.953,0,0,0,3.73838,2.22013s-10.17923,26.59761.98921,33.81733C581.95533,416.18522,597.90143,406.08011,598.16595,388.064Z"/>
        <g>
          <path class="cls-50" d="M534.92752,369.3729c2.28238-.75122,5.30452-.05841,7.90823,2.20216"/>
          <line class="cls-50" x1="555.24945" y1="370.61454" x2="570.01287" y2="363.87227"/>
          <path class="cls-18" d="M535.52479,372.4786c-1.32011,2.59264-8.74929,2.52417-11.17855-.96895-2.84189-4.08647-2.56884-10.22646-.31292-10.64942s8.30159,1.66014,10.06279,3.49609A7.364,7.364,0,0,1,535.52479,372.4786Z"/>
          <path class="cls-18" d="M541.026,372.871c-1.19316-2.21825-1.04122-5.56.79006-6.86406,1.75407-1.249,9.51626-.57708,12.16954,1.52109,1.92083,1.519,4.00875,5.8734,1.48849,9.10329C552.47758,380.47148,544.22848,378.82483,541.026,372.871Z"/>
        </g>
        <path class="cls-31" d="M568.19335,380.90823c4.88695-.36331,8.49347-7.49273,8.0812-13.0382s-5.56068-9.85553-9.57418-7.04374C561.66214,364.356,563.3064,381.27155,568.19335,380.90823Z"/>
      </g>
    </g>
    <path class="cls-31" d="M570.387,546.82725s-9.83558-4.10745-13.99052-4.5025a40.17643,40.17643,0,0,0-9.76995.77162l1.74829,5.056-4.60371,4.72947-9.64638.92921a3.006,3.006,0,0,0-1.9313,5.0292c3.73984,4.03934,9.36135,9.42985,13.132,9.93064,8.296,1.10182,26.58882-4.75823,26.58882-4.75823C577.19815,563.94884,576.50443,549.686,570.387,546.82725Z"/>
    <path class="cls-15" d="M432.49114,424.88224l66.75518,38.48626a4.65631,4.65631,0,0,0,2.59395.61466l11.72322,2.0583a6.653,6.653,0,0,1,5.089,4.24387l.9111,2.46213-3.07288-9.88231-3.43136-3.25239-65.65542-37.85222-14.36958.82924A1.22942,1.22942,0,0,0,432.49114,424.88224Z"/>
  </g>
</svg>
