<svg id="Layer_1" data-name="Layer 1" xmlns="http://www.w3.org/2000/svg" xmlns:xlink="http://www.w3.org/1999/xlink" viewBox="0 0 1000 1000">
  <defs>
    <style>
      .cls-1 {
        fill: url(#linear-gradient);
      }

      .cls-2 {
        fill: #b8cbd8;
      }

      .cls-3 {
        fill: url(#linear-gradient-2);
      }

      .cls-4, .cls-8 {
        fill: #e2e2e2;
      }

      .cls-5 {
        fill: #d3d3d3;
      }

      .cls-6 {
        fill: #fff;
      }

      .cls-7 {
        fill: #f2f2f2;
      }

      .cls-8 {
        opacity: 0.2;
      }

      .cls-9 {
        fill: #a55444;
      }

      .cls-10 {
        fill: #a0674a;
      }

      .cls-11 {
        fill: #c16c56;
      }

      .cls-12 {
        fill: url(#linear-gradient-3);
      }

      .cls-13 {
        fill: url(#linear-gradient-4);
      }

      .cls-14 {
        opacity: 0.7;
      }

      .cls-15 {
        fill: #5a9137;
      }

      .cls-16 {
        fill: #6b483c;
      }

      .cls-17 {
        fill: url(#linear-gradient-5);
      }

      .cls-18 {
        fill: #366d26;
      }

      .cls-19 {
        fill: #9bb0c4;
      }

      .cls-20 {
        fill: url(#linear-gradient-6);
      }

      .cls-21 {
        fill: #f49b25;
      }

      .cls-22 {
        fill: #323f4c;
      }

      .cls-23 {
        fill: #ef8e73;
      }

      .cls-24 {
        fill: #e9f1f4;
      }

      .cls-25 {
        fill: #27343d;
      }

      .cls-26 {
        fill: #303d49;
      }

      .cls-27, .cls-30 {
        fill: #dd7b19;
      }

      .cls-28 {
        fill: url(#linear-gradient-7);
      }

      .cls-29 {
        fill: url(#linear-gradient-8);
      }

      .cls-30 {
        opacity: 0.5;
      }

      .cls-31 {
        fill: #90a0af;
      }

      .cls-32 {
        fill: url(#linear-gradient-9);
      }

      .cls-33 {
        fill: #e2786d;
      }

      .cls-34 {
        fill: url(#linear-gradient-10);
      }

      .cls-35 {
        fill: url(#linear-gradient-11);
      }
    </style>
    <linearGradient id="linear-gradient" x1="79.31392" y1="441.39641" x2="920.68608" y2="441.39641" gradientUnits="userSpaceOnUse">
      <stop offset="0" stop-color="#e6f4ff"/>
      <stop offset="1" stop-color="#c0e3ff"/>
    </linearGradient>
    <linearGradient id="linear-gradient-2" x1="404.51949" y1="591.76915" x2="891.7282" y2="591.76915" gradientUnits="userSpaceOnUse">
      <stop offset="0.00005" stop-color="#9dcc52"/>
      <stop offset="1" stop-color="#649e3f"/>
    </linearGradient>
    <linearGradient id="linear-gradient-3" x1="58.85493" y1="403.0431" x2="259.53578" y2="594.53246" gradientUnits="userSpaceOnUse">
      <stop offset="0.00005" stop-color="#e6ac72"/>
      <stop offset="1" stop-color="#b3703f"/>
    </linearGradient>
    <linearGradient id="linear-gradient-4" x1="9780.89185" y1="428.16747" x2="9816.62024" y2="498.45282" gradientTransform="matrix(-1, 0, 0, 1, 10336.42573, 0)" gradientUnits="userSpaceOnUse">
      <stop offset="0" stop-color="#67a63f"/>
      <stop offset="0.99995" stop-color="#366d26"/>
    </linearGradient>
    <linearGradient id="linear-gradient-5" x1="653.27508" y1="344.82613" x2="653.27508" y2="552.05655" gradientUnits="userSpaceOnUse">
      <stop offset="0" stop-color="#77bf49"/>
      <stop offset="0.99995" stop-color="#366d26"/>
    </linearGradient>
    <linearGradient id="linear-gradient-6" x1="690.96483" y1="263.34613" x2="839.27943" y2="603.10228" xlink:href="#linear-gradient-5"/>
    <linearGradient id="linear-gradient-7" x1="467.82784" y1="243.3053" x2="532.93422" y2="508.32657" gradientUnits="userSpaceOnUse">
      <stop offset="0.00005" stop-color="#ffcb48"/>
      <stop offset="1" stop-color="#e68e2b"/>
    </linearGradient>
    <linearGradient id="linear-gradient-8" x1="437.00211" y1="250.87809" x2="502.10849" y2="515.89937" xlink:href="#linear-gradient-7"/>
    <linearGradient id="linear-gradient-9" x1="474.76391" y1="292.98988" x2="474.25327" y2="375.9686" gradientUnits="userSpaceOnUse">
      <stop offset="0" stop-color="#cec7c4"/>
      <stop offset="1" stop-color="#b3a7a0"/>
    </linearGradient>
    <linearGradient id="linear-gradient-10" x1="469.61345" y1="242.86663" x2="534.71983" y2="507.88791" xlink:href="#linear-gradient-7"/>
    <linearGradient id="linear-gradient-11" x1="499.53922" y1="293.14234" x2="499.02858" y2="376.12106" xlink:href="#linear-gradient-9"/>
  </defs>
  <path class="cls-1" d="M79.34318,533.236S76.916,443.92217,116.27249,405.64761s101.191-29.83447,150.323-53.496,68.673-70.454,112.94076-112.54121,137.15895-27.051,188.88842,3.59733,84.58457,73.86257,134.86125,101.30244,124.53069,34.14995,152.89691,43.40629,64.50324,29.24172,64.50324,69.11385V669.09677l-841.3429-3.677Z"/>
  <g>
    <path class="cls-2" d="M86.57347,678.91934l391.659,226.11445a43.5559,43.5559,0,0,0,43.55553-.00064l391.63891-226.118a14.51862,14.51862,0,0,0,.00018-25.14675L521.771,427.63328a43.55584,43.55584,0,0,0-43.55859.00055L86.57262,653.77256A14.51862,14.51862,0,0,0,86.57347,678.91934Z"/>
    <path class="cls-3" d="M891.7282,673.16413l-99.54326,57.45751L404.51949,506.78074l93.46363-53.737v-.127a12.318,12.318,0,0,0,3.793.63515,11.99381,11.99381,0,0,0,3.57516-.5081L854.72384,653.98139v2.48631h.01816a3.99147,3.99147,0,0,0,2.0326,3.46638l22.8124,13.17567a12.27428,12.27428,0,0,0,12.1412.05438Z"/>
    <g>
      <g>
        <g>
          <path class="cls-4" d="M470.90484,269.9714V435.26772h.00682a4.03635,4.03635,0,0,0,2.03569,3.47233l22.81478,13.17422a12.18437,12.18437,0,0,0,6.01856,1.63394V269.9714Z"/>
          <path class="cls-5" d="M501.78069,269.9714V453.54821a12.26059,12.26059,0,0,0,6.23647-1.63394L532.24367,305.1945l.40606-35.2231Z"/>
          <path class="cls-6" d="M472.949,273.44455l22.8112,13.17005a12.255,12.255,0,0,0,12.255,0l22.59233-13.04368a4.085,4.085,0,0,0,0-7.07545l-22.8112-13.17005a12.255,12.255,0,0,0-12.255,0L472.949,266.36911A4.085,4.085,0,0,0,472.949,273.44455Z"/>
        </g>
        <g>
          <polygon class="cls-7" points="877.224 528.55 505.354 314.632 505.354 453.047 858.67 656.243 877.224 528.55"/>
          <polygon class="cls-8" points="839.743 645.329 858.67 656.243 866.594 595.508 866.594 522.419 839.743 506.934 839.743 645.329"/>
          <path class="cls-6" d="M505.35767,314.62762,877.22611,528.54914l25.92537-14.963c-.39834-.27705-.814-.53676-1.24692-.78791L551.38084,311.19864,531.335,299.63009Z"/>
        </g>
        <g>
          <path class="cls-7" d="M854.72783,491.17337V656.46969h.00682a4.03635,4.03635,0,0,0,2.03569,3.47233l22.81478,13.17422a12.18437,12.18437,0,0,0,6.01856,1.63394V491.17337Z"/>
          <path class="cls-4" d="M885.60368,491.17337V674.75018a12.26059,12.26059,0,0,0,6.23647-1.63394l22.59006-13.0449a4.03867,4.03867,0,0,0,2.03569-3.60165h.00682V491.17337Z"/>
          <path class="cls-6" d="M856.772,494.64652l22.8112,13.17005a12.255,12.255,0,0,0,12.255,0l22.59233-13.04368a4.085,4.085,0,0,0,0-7.07545l-22.8112-13.17a12.255,12.255,0,0,0-12.255,0L856.772,487.57108A4.085,4.085,0,0,0,856.772,494.64652Z"/>
        </g>
      </g>
      <g>
        <g>
          <polygon class="cls-7" points="298.885 429.163 497.984 314.632 497.984 453.047 317.44 556.857 298.885 429.163"/>
          <polygon class="cls-8" points="336.366 545.943 317.44 556.857 309.516 496.122 309.516 423.033 336.366 407.548 336.366 545.943"/>
          <path class="cls-6" d="M472.00274,299.63009l-20.04585,11.56855-177.752,102.21348c-.433.25115-.84857.51086-1.24691.7879l25.92537,14.963L497.98006,314.62762Z"/>
        </g>
        <g>
          <path class="cls-7" d="M321.3816,391.78722V557.08354h-.00682a4.03633,4.03633,0,0,1-2.03569,3.47232L296.5243,573.73009a12.18442,12.18442,0,0,1-6.01855,1.63393V391.78722Z"/>
          <path class="cls-4" d="M290.50575,391.78722V575.364a12.26051,12.26051,0,0,1-6.23648-1.63393l-22.59005-13.04491a4.03867,4.03867,0,0,1-2.03569-3.60164h-.00682V391.78722Z"/>
          <path class="cls-6" d="M319.33742,395.26037l-22.8112,13.17005a12.255,12.255,0,0,1-12.255,0l-22.59233-13.04369a4.085,4.085,0,0,1,0-7.07544l22.8112-13.17006a12.255,12.255,0,0,1,12.255,0l22.59233,13.04369A4.085,4.085,0,0,1,319.33742,395.26037Z"/>
        </g>
      </g>
    </g>
    <g>
      <polygon class="cls-9" points="198.1 569.125 141.358 647.033 131.094 641.111 131.094 523.224 198.1 569.125"/>
      <path class="cls-10" d="M280.25334,449.03533,257.7957,479.8567l-59.6954,89.26875-67.00583-45.90168s33.455-37.988,69.44787-58.94527a159.86409,159.86409,0,0,1,26.30428-12.25831c24.58052-8.90646,43.14358-8.90646,43.14358-8.90646Z"/>
      <path class="cls-10" d="M170.74251,500.06383l-3.19227,2.889-10.27911-5.93768c1.0534-.94166,2.12289-1.91528,3.22413-2.873Z"/>
      <path class="cls-11" d="M141.363,529.14646V647.03627l138.89662-80.094V449.04258s-33.11132,0-69.44831,21.15956C174.81531,491.1631,141.363,529.14646,141.363,529.14646Z"/>
      <path class="cls-12" d="M280.25334,449.03533V566.93876l-26.17666,15.09947-3.19227,1.8356L226.304,598.04742l-3.19227,1.83559-24.5965,14.18967-3.19227,1.8355-24.58043,14.17369-3.19227,1.85157-26.19263,15.09938V529.14537a368.34581,368.34581,0,0,1,26.19263-26.19254c1.03743-.95764,2.10691-1.91538,3.19227-2.889a301.81738,301.81738,0,0,1,24.58043-19.77614c1.05351-.76612,2.12289-1.51635,3.19227-2.23453,4.03827-2.79324,8.14035-5.44288,12.29026-7.85306,4.16589-2.42606,8.28395-4.56492,12.30624-6.46433,1.06939-.51077,2.13877-.9896,3.19227-1.46842a160.08429,160.08429,0,0,1,24.58043-8.63514c1.08546-.30327,2.15484-.55861,3.19227-.81395C269.75074,449.03533,280.25334,449.03533,280.25334,449.03533Z"/>
      <path class="cls-10" d="M170.74251,500.06383v130.018l-3.19227,1.85157V502.95283C168.58767,501.99519,169.65715,501.03745,170.74251,500.06383Z"/>
      <path class="cls-10" d="M198.51521,478.05316l-3.19227,2.23453-10.26314-5.9216c1.05351-.75024,2.10691-1.50037,3.1763-2.23463Z"/>
      <path class="cls-10" d="M226.304,462.26735l-3.19227,1.46842-10.24716-5.9217c1.08536-.51067,2.15475-1.00547,3.20815-1.45244Z"/>
      <path class="cls-10" d="M198.51521,478.05316V614.07268l-3.19227,1.8355V480.28769C196.37645,479.52157,197.44583,478.77134,198.51521,478.05316Z"/>
      <path class="cls-10" d="M226.304,462.26735V598.04742l-3.19227,1.83559V463.73577C224.1811,463.225,225.25048,462.74617,226.304,462.26735Z"/>
      <path class="cls-10" d="M254.07668,452.81826v129.22l-3.19227,1.8356V453.63221C251.96987,453.32894,253.03925,453.0736,254.07668,452.81826Z"/>
      <path class="cls-10" d="M254.07668,452.81826l-3.19227.81395-10.26314-5.9216c1.10134-.2873,2.17082-.55871,3.22423-.79807Z"/>
    </g>
    <g>
      <path class="cls-7" d="M143.80055,502.65044V667.94676h-.00682a4.03635,4.03635,0,0,1-2.03569,3.47233l-22.81479,13.17422a12.18433,12.18433,0,0,1-6.01855,1.63394V502.65044Z"/>
      <path class="cls-4" d="M112.9247,502.65044V686.22725a12.26062,12.26062,0,0,1-6.23648-1.63394l-22.59005-13.0449a4.03867,4.03867,0,0,1-2.03569-3.60165h-.00682V502.65044Z"/>
      <path class="cls-6" d="M141.75637,506.12359l-22.8112,13.17005a12.255,12.255,0,0,1-12.255,0L84.09781,506.25a4.085,4.085,0,0,1,0-7.07545l22.8112-13.17005a12.255,12.255,0,0,1,12.255,0l22.59233,13.04369A4.085,4.085,0,0,1,141.75637,506.12359Z"/>
    </g>
    <path class="cls-6" d="M891.7282,658.64551,792.18494,716.103,404.51949,492.26211l10.23566-5.88L792.18494,703.54433,874.814,655.83255l4.773,2.75857a12.27431,12.27431,0,0,0,12.1412.05439Z"/>
    <polygon class="cls-4" points="792.185 716.103 404.519 492.262 404.519 506.781 792.185 730.622 891.728 673.164 891.728 658.646 792.185 716.103"/>
  </g>
  <path class="cls-13" d="M591.31533,506.30422c-4.68427,6.08955-14.74429,9.12317-31.16154,4.12662-9.45777,7.85173-35.13521,7.10959-39.97244-7.7625-8.1194,3.30129-20.52156-5.5319-17.07526-11.78567-14.867,4.12905-27.26915-7.6652-23.21769-16.8447-24.4838-11.43129-9.76181-33.78195,3.1757-32.1313-1.42534-13.78057,11.01918-20.92307,21.19074-13.22748,6.82565-11.71068,28.10562-8.03018,28.00836,7.65782,17.9867-10.49069,39.40051,6.105,30.237,29.03439,8.94042-8.18509,20.18266,1.04961,16.8269,11.10287C594.5736,479.378,595.9996,500.21467,591.31533,506.30422Z"/>
  <g class="cls-14">
    <ellipse class="cls-15" cx="653.27508" cy="582.38767" rx="36.44972" ry="20.94811"/>
  </g>
  <g class="cls-14">
    <ellipse class="cls-15" cx="787.06487" cy="656.24295" rx="48.80084" ry="28.04646"/>
  </g>
  <g>
    <path class="cls-16" d="M659.44335,581.83806V506.72164h-12.3367V581.862h.00563a3.10682,3.10682,0,0,0,1.8153,2.49111,9.64337,9.64337,0,0,0,8.725.01568A3.02657,3.02657,0,0,0,659.44335,581.83806Z"/>
    <path class="cls-17" d="M600.29873,481.59088c0-7.63482,2.4907-14.4736,6.43071-19.14836a37.158,37.158,0,0,1-2.77652-10.67662c-1.16349-10.43154,1.9801-20.00572,7.594-25.70119-.59184-6.63456,1.53105-12.63629,5.61385-15.8413a33.7004,33.7004,0,0,1-.34688-4.81769c0-13.065,7.30838-23.84356,16.719-25.31344-.02043-.42861-.04087-.83692-.04087-1.26566,0-17.94388,8.47212-32.47866,18.90341-32.47866,9.16588,0,16.8007,11.20728,18.53609,26.04832,3.77655,1.87806,6.7163,6.757,7.71657,12.88125,5.30759,3.59276,10.064,10.207,12.65659,18.4951,2.24574,7.22652,2.42915,14.351.91853,20.02615,3.61333,2.61293,6.08334,7.77774,6.08334,13.69773a19.33441,19.33441,0,0,1-2.30654,9.30879v.02044c8.3084,4.59315,12.37077,17.49483,9.14544,31.09052a38.54986,38.54986,0,0,1-6.20594,13.73872c5.16481,6.83865,6.10377,18.02562,1.65365,28.70212a33.61873,33.61873,0,0,1-13.12632,15.882c-4.69508,8.18605-10.69693,13.3916-17.49471,16.33122-4.75663,7.839-12.43233,12.28929-19.72,10.55415-4.75638-1.12288-8.431-4.69533-10.65631-9.53344a34.05523,34.05523,0,0,1-13.63643-8.65553c-8.18605-3.6745-15.47374-12.1055-18.94428-23.23117a40.67273,40.67273,0,0,1-.9594-21.80217A30.31015,30.31015,0,0,1,600.29873,481.59088Z"/>
    <path class="cls-18" d="M705.14492,477.91889a38.43536,38.43536,0,0,1-6.202,13.73637c5.16838,6.84534,6.11026,18.032,1.65381,28.69041a33.55712,33.55712,0,0,1-13.13912,15.89562c-4.68609,8.17753-10.6811,13.3919-17.48059,16.33206-4.75479,7.83306-12.42718,12.28936-19.73167,10.54357-4.75508-1.12553-8.43032-4.68609-10.6584-9.53285a33.79267,33.79267,0,0,1-13.62169-8.66c17.36423,2.78812,27.64156-3.35656,28.162-21.79908,6.68992,3.85669,14.021-2.20364,9.81783-10.51216,14.36884.782,19.74494-17.9855,10.41941-27.45818,15.77685-3.62545,18.70927-24.15237,5.03028-30.23186,9.889-4.94862,14.60759-15.52265,12.81793-31.12267,3.62925,2.61868,6.087,7.78707,6.087,13.69053a19.45118,19.45118,0,0,1-2.29706,9.32606c6.3859,3.51443,10.24508,11.94474,10.24508,21.82207A39.93115,39.93115,0,0,1,705.14492,477.91889Z"/>
  </g>
  <ellipse class="cls-19" cx="470.81896" cy="744.32543" rx="92.12777" ry="52.947"/>
  <g>
    <path class="cls-16" d="M800.66391,653.55635V487.9488H773.46547V653.60911h.01241c.04078,1.98688,1.36892,3.97111,4.00214,5.49208,5.32851,3.07609,13.941,3.0916,19.23583.03458C799.37744,657.59884,800.68962,655.57737,800.66391,653.55635Z"/>
    <path class="cls-20" d="M874.232,425.54886a135.09382,135.09382,0,0,0,.29468-18.03176c-1.695-32.88573-14.58838-59.79624-30.4034-66.415.143-.55281.3599-1.07026.46834-1.63761,2.46427-12.836-4.927-24.43092-16.50888-25.89761-.09822-.01218-.19409.00668-.29153-.00432C823.4127,280.7141,806.86375,263.012,787.06473,263.012c-19.38726,0-35.65175,16.98311-40.43256,48.52906-17.257,9.19739-32.36082,36.69529-36.91689,70.79116-.61135,4.57257-.96025,9.05949-1.15591,13.47254A25.9048,25.9048,0,0,0,693.582,414.77083a23.85639,23.85639,0,0,0,2.036,15.327c-7.41323,8.84025-12.06046,21.30579-12.06046,35.16023a59.4614,59.4614,0,0,0,2.39984,16.70533c-7.71027,11.33242-10.9737,27.29162-7.77078,44.29791,3.7907,20.12788,15.69321,36.62183,30.31617,44.69317,9.21193,16.44916,22.06448,25.84183,37.22728,30.9511,9.63234,15.38007,24.54761,25.29216,41.33466,25.29216s31.70311-9.91209,41.33623-25.29216c15.1188-5.09513,27.94463-14.44812,37.15106-30.812,12.36457-4.77413,22.50846-16.56663,25.34834-31.35618a38.66714,38.66714,0,0,0-3.93685-26.34316A70.55453,70.55453,0,0,0,898.213,486.63814C903.1612,460.86311,892.923,437.04355,874.232,425.54886Z"/>
    <path class="cls-18" d="M898.20045,486.65936a69.31407,69.31407,0,0,1-11.26523,26.71446,38.65924,38.65924,0,0,1,3.99029,26.39306c-2.89646,14.74122-13.00342,26.52154-25.36249,31.3495-9.20486,16.35053-22.015,25.68466-37.1432,30.77-9.65591,15.38518-24.59083,25.29844-41.3268,25.29844-16.802,0-31.73611-9.91326-41.392-25.29844-15.12744-5.08531-28.002-14.48387-37.20764-30.96328,38.21976,10.25458,63.52408-6.35221,64.95188-46.60581,30.52366,16.31926,65.30722-8.33414,57.09939-44.35292,27.65662-8.35732,33.95693-49.72024,9.84922-68.87892,20.81113-16.02482,26.98448-46.72121,3.73255-69.97314,15.83623,6.63058,28.71078,33.53834,30.38453,66.43272a139.494,139.494,0,0,1-.25774,18.02429C892.92144,437.02783,903.15728,460.84583,898.20045,486.65936Z"/>
  </g>
  <g>
    <g>
      <path class="cls-21" d="M459.89013,697.45227c2.19948,3.449,5.14652,16.57727,2.75934,20.45921-2.67652,4.35245-6.87112,5.135-14.58955,6.72772-7.2035,1.48644-13.27072,12.52015-31.276,8.33733-10.22782-2.376-12.10636-10.8633-7.41154-13.80079l12.9489-7.7097,15.39019-11.1587S457.69064,694.00327,459.89013,697.45227Z"/>
      <path class="cls-22" d="M459.89013,694.10637c2.19948,3.449,5.14652,16.57727,2.75934,20.45921-2.67652,4.35245-6.87112,5.135-14.58955,6.72773-7.2035,1.48643-13.27072,12.52015-31.276,8.33732-10.22782-2.376-11.04045-11.01225-6.34563-13.94975l11.883-7.56074,15.39019-11.1587S457.69064,690.65738,459.89013,694.10637Z"/>
      <path class="cls-23" d="M416.54769,499.2976c.47373,56.10864,25.85948,191.43288,25.85948,191.43288l-7.57871,7.75723c.43568,5.79442,18.30039,3.77079,18.30039,3.77079s5.15841-2.50544,5.2729-5.12169l-.94448-7.43264c-.15449-29.3848,7.38423-60.87249,3.59316-84.81418l3.79107-89.26476Z"/>
      <path class="cls-24" d="M437.0495,696.21423l3.16126,5.90967c5.401.98413,12.91809.13452,12.91809.13452s5.15845-2.50537,5.27289-5.12158l-.94446-7.43262c-5.50536,3.94115-14.40962,3.90924-15.05011,1.02612Z"/>
      <path class="cls-21" d="M425.18863,706.04126l13.45919-12.68139c2.74842-2.46959,14.21943-1.47849,15.34713,8.49065,0,0-13.54964,7.256-18.68835,8.00331S423.27562,708.04214,425.18863,706.04126Z"/>
      <path class="cls-25" d="M416.54769,499.2976c.56013,66.34211,17.19146,166.48152,17.19146,166.48152,1.87228,14.01519,28.04321,12.157,28.42553,3.41944,0,0,7.18251-35.77176,3.66249-64.03494l-3.47829-91.24052Z"/>
      <path class="cls-21" d="M522.99722,732.31629s2.13571,11.18507,1.1802,15.11983c-1.192,4.90857-2.78875,6.23622-4.95748,9.19681s-1.86072,12.9512-11.41458,17.79393c-13.0582,6.619-25.29175-2.62571-21.17422-12.93846l7.048-12.17945,9.50514-19.19974C505.62166,725.36394,522.46711,723.00374,522.99722,732.31629Z"/>
      <path class="cls-22" d="M522.54766,728.6241s1.9122,12.4339.9567,16.36866c-1.192,4.90856-2.73192,6.02645-4.90065,8.987s-1.59808,11.96469-11.15195,16.80742c-13.0582,6.619-25.21753-2.01505-19.64812-12.44282l5.40587-9.91384,9.97473-21.79655C505.40936,721.63473,521.48828,719.18583,522.54766,728.6241Z"/>
      <path class="cls-23" d="M476.21963,599.72107l29.51952,122.07324-.61775,7.70591-1.911,6.31328H515.4508l4.3247-5.38656-1.50444-8.21333s4.8638-59.90415-3.7039-98.50818l-1.94793-23.98436Z"/>
      <path class="cls-24" d="M518.27106,722.21374c-4.669,2.5315-8.86941,2.51734-12.53192-.41943l-.61774,7.70581-1.31762,4.353,5.89428,1.9602h5.75275l4.32471-5.38647Z"/>
      <path class="cls-21" d="M498.44566,743.961c-1.71657,3.42451,8.84245,6.79582,13.01273,2.31672s8.31711-15.85074,8.31711-15.85074c-2.49054-8.32113-15.551-6.42087-16.37206-2.18165Z"/>
      <path class="cls-26" d="M516.61149,513.7092c-2.04255-28.93617-8.22324-61.40425-8.22324-61.40425L423.9659,434.48016c-1.45128,11.38321-7.41824,39.65457-7.41824,64.81742l38.7234,47.60311L493.13511,695.9939c2.78329,11.90258,31.35523,9.46263,29.79553-8.41236-1.59546-38.41821-6.56449-75.39675-6.56449-75.39675S518.59032,541.74264,516.61149,513.7092Z"/>
      <path class="cls-27" d="M506.99427,475.45056l-1.343-23.2583L423.966,434.4801c-.50763,3.98193-2.08351,10.72024-2.70992,18.8804,1.71308,9.09033,8.64144,16.64938,15.14028,21.156C462.58234,492.6759,500.22309,488.56164,506.99427,475.45056Z"/>
      <path class="cls-28" d="M533.15406,276.44555c7.21276-5.17021-.08628-23.51562-7.91595-21.62908,0,0-40.33778,12.97911-54.28634,28.54649-17.71123,19.76676-27.2308,54.15166-33.52084,89.94658l37.83635-31.84271,18.39741-39.14894Z"/>
      <path class="cls-23" d="M548.30365,254.36333c-6.54715-1.43077-21.66129,3.24538-21.66129,3.24538-2.84546,1.56285-2.12331,11.26853,2.74574,11.773,5.29787,1.2766,11.94365,2.76354,16.42544.5021a33.04751,33.04751,0,0,0,9.6507,1.699c2.56094,0,5.06364-1.59349,6.85987-3.10293a3.34,3.34,0,0,0,.06853-5.05731C558.95113,260.3578,552.7866,255.343,548.30365,254.36333Z"/>
      <path class="cls-29" d="M516.61152,420.0072l-.35193-.6001,15.3407-26.49878c-8.48151-18.39453-30.96387-45.67847-44.13483-50.94629-21.49725-8.5979-42.88245,11.85059-50.03449,30.87476-1.79412,9.959-3.1242,20.94653-4.11737,32.68091,0,0-7.42315,13.58935-9.39813,27.49023-1.54394,12.915,6.173,24.58081,14.50067,30.35571,28.39,19.688,70.4679,12.8274,70.67005-3.1914l-.08478-1.00366.65265-.51246a170.32559,170.32559,0,0,0-2.65979-23.24462l.001-.002Z"/>
      <path class="cls-30" d="M506.99427,435.41125l9.61722-15.40418-8.234-14.04-9.87234,28.51311v32.93117l11.149-8.75521A170.338,170.338,0,0,0,506.99427,435.41125Z"/>
      <g>
        <path class="cls-31" d="M460.93482,389.14549l.755.87545a.83537.83537,0,0,0,1.37461-.16177l3.73025-7.21175a1.42472,1.42472,0,0,0-.18652-1.585l-.755-.87545a.83537.83537,0,0,0-1.37461.16177l-3.73025,7.21175A1.42472,1.42472,0,0,0,460.93482,389.14549Z"/>
        <path class="cls-24" d="M505.38807,355.9027c.451,6.79394-8.79068,11.80411-17.34258,15.87348-7.24745,3.44865-21.88609,8.936-21.88609,8.936s2.626-15.87546,5.00746-22.53756c2.2919-6.41156,6.844-12.81009,16.29391-13.43747S504.937,349.10877,505.38807,355.9027Z"/>
        <path class="cls-23" d="M474.62668,356.55321c-.222,4.8643,3.1115,8.16011,11.19813,8.52922s17.40142-4.45517,17.62345-9.31947-6.15349-9.10683-14.24011-9.47594S474.8487,351.6889,474.62668,356.55321Z"/>
        <path class="cls-27" d="M466.1594,380.7122s1.9941-22.10788,1.73931-24.386c-.1676-1.49852-2.06635-3.72978-3.3463-5.08144a1.66834,1.66834,0,0,1,.056-2.35705c2.6915-2.57444,9.19662-8.53021,12.964-9.72289,4.83637-1.53109,11.00365-.91319,11.00365-.91319l-4.34433,7.983s-5.8439,1.597-10.12782,9.47522C470.94474,361.51964,466.1594,380.7122,466.1594,380.7122Z"/>
      </g>
      <path class="cls-32" d="M475.83041,305.42453s-3.07542,2.79619-6.459,14.51075c-2.18832,7.57638-6.95039,13.81248-5.994,20.92286,1.58184,11.7599,15.75508,13.32008,22.25717,10.37224Z"/>
      <path class="cls-33" d="M480.73212,353.97348c.20684,9.97565,21.62049,2.7518,20.5514-3.61937l-2.53165-15.08784-18.53631,1.75829Z"/>
      <path class="cls-27" d="M502.90487,345.89758c2.70976,1.58213,5.77935,8.48961,6.03529,12.67429.29188,4.77246-3.73944,13.01291-5.34957,17.31118a1.848,1.848,0,0,1-2.83616.83846c-1.8939-1.40388-4.9036-3.32152-7.68172-3.74011-3.58827-.54067-26.91331,7.7308-26.91331,7.7308s23.54-17.64767,28.30307-21.02962c6.22067-4.41692,7.66026-12.92852,7.66026-12.92852Z"/>
      <g>
        <g>
          <path class="cls-23" d="M508.38825,477.55912l-5.66531-9.17121-7.13312-.3259a11.062,11.062,0,0,0-7.78958,2.89262l-9.52543,8.1142a2.46911,2.46911,0,0,0-.40614,3.16513l3.63861,5.61507a4.236,4.236,0,0,0,4.31978,1.8628l8.79034-1.88137a14.04661,14.04661,0,0,0,6.4793-3.04421Z"/>
          <path class="cls-23" d="M493.96034,468.13436l-10.16591,1.06878c-2.68918.314-1.71512,3.45039.20335,3.53827l3.61961.52871Z"/>
        </g>
        <path class="cls-34" d="M546.04662,447.50538c-.6479-10.39192-4.85-32.93217-14.44625-54.59708-9.19166-18.08514-30.88019,1.86471-22.52643,21.35409l11.81415,32.93617-21.02128,18.21277c-5.2674,4.48485.97734,20.447,9.7937,15.04857,0,0,15.27356-5.40133,26.44837-13.04857C544.60435,461.59763,546.63727,456.97914,546.04662,447.50538Z"/>
      </g>
    </g>
    <g>
      <path class="cls-23" d="M480.587,352.01522c10.03,1.49173,20.26966-2.24961,23.9004-11.05676l7.81846-19.05359c3.36874-7.5982-4.213-17.49732-13.35639-20.632-7.99122-2.7397-18.50324,1.03607-21.54253,9.88714a189.163,189.163,0,0,0-5.31219,20.04916C470.38734,340.28678,471.26355,350.62858,480.587,352.01522Z"/>
      <g>
        <path class="cls-35" d="M521.3939,356.194c1.98242-7.28553,6.92237-43.93284-14.35861-56.07148-16.2883-8.23259-29.1652.65323-31.20488,5.302-1.76365,4.02014.87332,17.86967,20.829,24.00292-2.05739,3.40333-.90353,8.39607,3.19321,7.76225a9.68,9.68,0,0,0,2.33237,2.44648s-12.47393,17.24168-5.61607,24.98046C504.1993,373.22717,517.81995,369.3285,521.3939,356.194Z"/>
        <path class="cls-23" d="M498.7556,344.37361c3.65831.80688,7.86451-3.62193,8.78012-7.77321s-1.90813-8.43771-5.4644-7.25989C497.60705,330.81905,495.09729,343.56672,498.7556,344.37361Z"/>
      </g>
    </g>
  </g>
</svg>
