<svg id="Layer_1" data-name="Layer 1" xmlns="http://www.w3.org/2000/svg" xmlns:xlink="http://www.w3.org/1999/xlink" viewBox="0 0 1000 1000">
  <defs>
    <style>
      .cls-1 {
        fill: none;
      }

      .cls-2 {
        fill: url(#linear-gradient);
      }

      .cls-11, .cls-3 {
        fill: #5a9137;
      }

      .cls-4 {
        fill: #fff;
      }

      .cls-5 {
        fill: #b8cbd8;
      }

      .cls-6 {
        fill: #9bb0c4;
      }

      .cls-7 {
        fill: #c7d8e2;
      }

      .cls-8 {
        fill: url(#linear-gradient-2);
      }

      .cls-11, .cls-9 {
        opacity: 0.7;
      }

      .cls-10 {
        fill: url(#linear-gradient-3);
      }

      .cls-12 {
        fill: #87a1af;
      }

      .cls-13 {
        fill: #939393;
      }

      .cls-14 {
        fill: #6b483c;
      }

      .cls-15 {
        fill: url(#linear-gradient-4);
      }

      .cls-16 {
        fill: #366d26;
      }

      .cls-17 {
        fill: url(#linear-gradient-5);
      }

      .cls-18 {
        fill: url(#linear-gradient-6);
      }

      .cls-19 {
        fill: url(#linear-gradient-7);
      }

      .cls-20 {
        fill: url(#linear-gradient-8);
      }

      .cls-21 {
        fill: url(#linear-gradient-9);
      }

      .cls-22 {
        fill: #e2e2e2;
      }

      .cls-23 {
        fill: url(#linear-gradient-10);
      }

      .cls-24 {
        clip-path: url(#clip-path);
      }

      .cls-25 {
        fill: #ef8e73;
      }

      .cls-26 {
        fill: #27343d;
      }

      .cls-27 {
        fill: #f2f2f2;
      }

      .cls-28 {
        fill: #f49b25;
      }

      .cls-29 {
        fill: #ffbda3;
      }

      .cls-30 {
        fill: #e2786d;
      }

      .cls-31 {
        fill: #455260;
      }

      .cls-32 {
        fill: url(#linear-gradient-11);
      }

      .cls-33 {
        fill: #dd7b19;
        opacity: 0.5;
      }

      .cls-34 {
        fill: #cddce8;
      }

      .cls-35 {
        fill: #303d49;
      }

      .cls-36 {
        fill: #e9f1f4;
      }

      .cls-37 {
        fill: url(#linear-gradient-12);
      }

      .cls-38 {
        fill: url(#linear-gradient-13);
      }

      .cls-39 {
        fill: url(#linear-gradient-14);
      }

      .cls-40 {
        fill: #a0674a;
      }

      .cls-41 {
        fill: url(#linear-gradient-15);
      }

      .cls-42 {
        fill: url(#linear-gradient-16);
      }

      .cls-43 {
        fill: #515151;
      }

      .cls-44 {
        fill: #e0c390;
      }

      .cls-45 {
        fill: url(#linear-gradient-17);
      }

      .cls-46 {
        fill: url(#linear-gradient-18);
      }

      .cls-47 {
        fill: url(#linear-gradient-19);
      }
    </style>
    <linearGradient id="linear-gradient" x1="79.31392" y1="448.83104" x2="920.68608" y2="448.83104" gradientUnits="userSpaceOnUse">
      <stop offset="0" stop-color="#e6f4ff"/>
      <stop offset="1" stop-color="#c0e3ff"/>
    </linearGradient>
    <linearGradient id="linear-gradient-2" x1="410.16706" y1="720.74224" x2="1000.48295" y2="787.92539" gradientUnits="userSpaceOnUse">
      <stop offset="0.00005" stop-color="#9dcc52"/>
      <stop offset="1" stop-color="#69a642"/>
    </linearGradient>
    <linearGradient id="linear-gradient-3" x1="110.38062" y1="533.51614" x2="937.18117" y2="696.54724" gradientUnits="userSpaceOnUse">
      <stop offset="0.00005" stop-color="#9dcc52"/>
      <stop offset="1" stop-color="#649e3f"/>
    </linearGradient>
    <linearGradient id="linear-gradient-4" x1="415.25204" y1="120.36063" x2="523.34226" y2="330.56922" gradientUnits="userSpaceOnUse">
      <stop offset="0" stop-color="#77bf49"/>
      <stop offset="0.99995" stop-color="#366d26"/>
    </linearGradient>
    <linearGradient id="linear-gradient-5" x1="360.27259" y1="329.01474" x2="436.11489" y2="495.62893" gradientUnits="userSpaceOnUse">
      <stop offset="0" stop-color="#67a63f"/>
      <stop offset="0.99995" stop-color="#366d26"/>
    </linearGradient>
    <linearGradient id="linear-gradient-6" x1="115.68271" y1="450.47206" x2="176.59543" y2="623.05809" xlink:href="#linear-gradient-5"/>
    <linearGradient id="linear-gradient-7" x1="801.74315" y1="393.08563" x2="885.94602" y2="585.9759" xlink:href="#linear-gradient-4"/>
    <linearGradient id="linear-gradient-8" x1="736.43564" y1="498.10132" x2="795.5568" y2="636.64789" xlink:href="#linear-gradient-5"/>
    <linearGradient id="linear-gradient-9" x1="294.34801" y1="479.54212" x2="324.23957" y2="538.34519" xlink:href="#linear-gradient-5"/>
    <linearGradient id="linear-gradient-10" x1="507.28941" y1="826.35532" x2="507.28941" y2="908.20433" xlink:href="#linear-gradient-5"/>
    <clipPath id="clip-path">
      <circle class="cls-1" cx="1292.54335" cy="288.28891" r="196.04503"/>
    </clipPath>
    <linearGradient id="linear-gradient-11" x1="1251.79008" y1="382.81693" x2="1180.88841" y2="524.32109" gradientTransform="matrix(-1, 0, 0, 1, 1718.4764, 0)" gradientUnits="userSpaceOnUse">
      <stop offset="0.00005" stop-color="#ffcb48"/>
      <stop offset="1" stop-color="#e68e2b"/>
    </linearGradient>
    <linearGradient id="linear-gradient-12" x1="1240.36853" y1="376.48265" x2="1175.99602" y2="504.95605" xlink:href="#linear-gradient-11"/>
    <linearGradient id="linear-gradient-13" x1="1212.49432" y1="361.66189" x2="1149.42333" y2="487.53777" xlink:href="#linear-gradient-11"/>
    <linearGradient id="linear-gradient-14" x1="1203.7438" y1="349.98289" x2="1133.69489" y2="489.78515" xlink:href="#linear-gradient-11"/>
    <linearGradient id="linear-gradient-15" x1="-1438.41679" y1="637.40853" x2="-1331.79168" y2="637.40853" gradientTransform="translate(1775.93989)" gradientUnits="userSpaceOnUse">
      <stop offset="0.00005" stop-color="#e6ac72"/>
      <stop offset="1" stop-color="#b3703f"/>
    </linearGradient>
    <linearGradient id="linear-gradient-16" x1="-1450.03942" y1="599.28743" x2="-1330.80538" y2="661.84062" xlink:href="#linear-gradient-15"/>
    <linearGradient id="linear-gradient-17" x1="-1411.97272" y1="593.95233" x2="-1392.07393" y2="593.95233" gradientTransform="translate(1775.93989)" xlink:href="#linear-gradient-11"/>
    <linearGradient id="linear-gradient-18" x1="496.34297" y1="329.95784" x2="513.57702" y2="389.57486" gradientUnits="userSpaceOnUse">
      <stop offset="0" stop-color="#cec7c4"/>
      <stop offset="1" stop-color="#b3a7a0"/>
    </linearGradient>
    <linearGradient id="linear-gradient-19" x1="519.55831" y1="323.24677" x2="536.79235" y2="382.86379" xlink:href="#linear-gradient-18"/>
  </defs>
  <path class="cls-2" d="M79.34318,582.50156S76.916,493.18774,116.27249,454.91318s101.191-29.83447,150.323-53.496,68.673-70.454,112.94076-112.54122,137.15895-27.051,188.88842,3.59733,84.58457,73.86257,134.86125,101.30245,124.53069,34.14994,152.8969,43.40629,64.50325,29.24171,64.50325,69.11385V608.247L79.34318,634.70046Z"/>
  <path class="cls-3" d="M79.34318,577.088s21.42047-26.66578,59.02509-30.45568,39.07465,2.74482,54.19441,0,13.60385-4.9883,51.955-15.36235,99.43105-18.229,99.43105-18.229L79.31392,643.21032Z"/>
  <path class="cls-4" d="M500.00631,431.57193q26.90507-15.31458,58.96574,7.99895c11.73914-9.70807,38.27648-9.70807,52.067,12.54083,0,0,10.86655-12.90471,36.93273-11.38763,42.32538,2.46338,57.721,39.794,57.721,39.794,17.07625-17.62358,66.11994-8.44188,76.44291,33.81255,26.17335-17.23562,59.32356-4.3669,54.447,42.58667l84.1034,12.24225v61.80849H752.9462Z"/>
  <path class="cls-5" d="M120.18373,698.04762,478.974,905.18614a42.10143,42.10143,0,0,0,42.1011-.00061L887.80371,693.4498a21.92256,21.92256,0,0,0,.00026-37.97061L500.00652,431.572,120.18213,650.88832A27.22767,27.22767,0,0,0,120.18373,698.04762Z"/>
  <ellipse class="cls-6" cx="540.13193" cy="704.69372" rx="66.82963" ry="38.40783"/>
  <ellipse class="cls-6" cx="401.51671" cy="671.19912" rx="68.952" ry="39.62759"/>
  <path class="cls-7" d="M580.05931,481.71029l-31.94851,17.169,1.73895,2.51848a9.0369,9.0369,0,0,0,7.14774,3.8976l24.93255.79693a9.03687,9.03687,0,0,0,5.75935-1.8394l0,0a9.0369,9.0369,0,0,0,1.06609-13.43282Z"/>
  <path class="cls-7" d="M402.25333,851.28994l53.97046-31.83584-7.90891-4.25864a15.72082,15.72082,0,0,0-7.97719-1.87036l-21.17905.70627a15.72081,15.72081,0,0,0-12.62807,7.1l-6.11869,9.34425a15.72077,15.72077,0,0,0-.72111,16.00663Z"/>
  <path class="cls-7" d="M461.149,813.47844l2.01709.97425,26.57467-15.37748-.3353-1.40824a6.32783,6.32783,0,0,0-6.15576-4.86218h-8.72643a6.32782,6.32782,0,0,0-3.99509,1.42062L459.906,802.8732A6.32783,6.32783,0,0,0,461.149,813.47844Z"/>
  <path class="cls-8" d="M546.99683,890.21926l-25.91924,14.96483a42.10145,42.10145,0,0,1-42.10484-.00154l-60.42257-34.8917S503.678,808.41656,577.746,764.14c63.00286-37.662,110.92683-85.84513,150.04235-112.41979,43.47722-29.538,79.03487-42.99775,79.03487-42.99775,24.65112-3.35862,73.135-11.75652,113.86283-10.0065C788.03937,712.70651,661.76727,813.43084,546.99683,890.21926Z"/>
  <g class="cls-9">
    <ellipse class="cls-3" cx="774.47834" cy="670.63973" rx="36.44972" ry="20.94811"/>
  </g>
  <path class="cls-3" d="M919.12044,598.661c-31.35069-1.14458-67.0089,3.54635-92.78663,7.258a16.27908,16.27908,0,0,0-.29294,3.034c0,15.319,21.60812,27.73742,48.26307,27.73742.62464,0,1.24361-.0136,1.86247-.02709q21.65364-18.30567,43.54966-37.11564C919.5287,599.249,919.32505,598.95489,919.12044,598.661Z"/>
  <path class="cls-3" d="M79.34318,634.70046v27.61648A21.05072,21.05072,0,0,0,89.867,680.54648l72.83128,42.05763-12.59478-82.778Z"/>
  <path class="cls-10" d="M162.69823,722.60411s81.5061-34.76645,143.18-72.67547c54.69711-33.6206,101.60051-70.79891,150.49025-106.74655,44.77344-32.921,119.55948-67.77444,119.55948-67.77444L500.00652,431.572C343.72008,515.595,283.92859,535.03785,205.55142,567.9652c-65.33077,27.44638-126.20824,66.73526-126.20824,66.73526s23.5283,17.73609,39.318,37.47326C133.59081,690.83571,162.69823,722.60411,162.69823,722.60411Z"/>
  <g class="cls-9">
    <ellipse class="cls-3" cx="152.79155" cy="630.4774" rx="37.56125" ry="21.58693"/>
  </g>
  <g class="cls-9">
    <ellipse class="cls-3" cx="405.67506" cy="514.51814" rx="36.44972" ry="20.94811"/>
  </g>
  <path class="cls-11" d="M496.64448,475.86127c20.13067,0,36.44977-9.37875,36.44977-20.948a12.64147,12.64147,0,0,0-1.00763-4.81888L505.1974,434.56907a62.28972,62.28972,0,0,0-8.55292-.604c-.39252,0-.77315.02666-1.16267.03373q-18.39144,9.85836-35.03988,18.551a12.288,12.288,0,0,0-.24712,2.36346C460.19481,466.48252,476.51391,475.86127,496.64448,475.86127Z"/>
  <path class="cls-12" d="M159.31176,715.51323c.81287-.346,81.98182-35.15306,142.4324-72.31045,42.10914-25.8817,80.25929-54.40844,117.15372-81.99639,10.713-8.01051,21.79164-16.2934,32.795-24.38443,44.88781-33.00481,117.81755-67.13343,120.9003-68.57073l12.169,12.26692s-2.52359,1.16418-5.24321,2.44171-74.86009,34.51421-118.4742,66.582c-10.95193,8.05334-22.00407,16.31739-32.69217,24.30906-37.1771,27.79867-75.61933,56.54468-118.34091,82.80326-50.7981,31.22421-133.68725,68.6046-138.75612,70.882Z"/>
  <polygon class="cls-12" points="584.762 467.75 584.762 480.518 567.606 470.624 567.606 457.856 584.762 467.75"/>
  <path class="cls-7" d="M584.76213,467.75035c-.14037.07013-8.42659,3.37-13.56646,5.87852-20.64728,10.01667-75.23237,36.20234-110.15908,61.88424-10.94636,8.05184-21.998,16.31429-32.68125,24.296-37.17206,27.80455-75.62468,56.55624-118.34005,82.81707C257.96731,674.6057,191.02607,704.796,171.25591,713.497l-17.15628-9.89386,5.21-2.12265c.807-.35087,81.99253-35.15466,142.44321-72.30917,42.10144-25.8924,80.25587-54.41614,117.1473-81.99253,10.7183-8.01683,21.78746-16.29683,32.7865-24.38379,38.25968-28.13775,115.70871-64.8508,115.91921-64.93849l8.33258,4.80657Z"/>
  <path class="cls-3" d="M546.99683,890.21926s53.59147-38.4426,108.23376-81.14122S743.06888,715.70373,788.578,674.45561s132.10812-75.73969,132.10812-75.73969v63.5953a21.05072,21.05072,0,0,1-10.52518,18.23035Z"/>
  <path class="cls-12" d="M418.55018,870.29085l-13.281-19.26876c.96363-.54991,97.12573-55.50483,168.25242-100.56823,36.54153-23.14928,68.55874-48.90935,96.8071-71.63549,18.99327-15.281,36.93383-29.71392,53.02338-40.64529,36.3956-24.72649,67.04621-38.27251,77.17363-42.45056l9.09268,13.36706c-.34519.1302-35.29353,13.54215-77.39411,42.14426-15.56276,10.57162-33.26092,24.811-51.99894,39.88639-28.57385,22.98825-60.96023,49.043-98.25467,72.67191C510.534,809.05085,445.31893,851.3222,418.55018,870.29085Z"/>
  <polygon class="cls-12" points="418.55 856.257 418.55 870.291 401.394 860.397 401.394 846.363 401.517 846.433 418.55 856.257"/>
  <polygon class="cls-13" points="812.14 600.97 812.14 608.023 809.618 609.09 794.984 605.11 794.984 591.077 812.14 600.97"/>
  <path class="cls-7" d="M418.55018,856.257l-17.03347-9.82373c.96362-.54991,100.87824-57.93295,172.00493-102.99636,36.54153-23.14928,68.55874-48.90934,96.8071-71.63548,18.99327-15.281,36.93383-29.71393,53.02338-40.6453a460.31851,460.31851,0,0,1,71.62921-40.08523l17.15877,9.89949c-.3452.13019-37.8152,14.64439-79.91578,43.24651-15.56276,10.57161-33.26092,24.811-51.99894,39.88638-28.57385,22.98825-60.96023,49.043-98.25467,72.67192C510.534,802.03394,419.51552,855.70542,418.55018,856.257Z"/>
  <g>
    <path class="cls-14" d="M536.90627,335.17091l-11.59721,27.90637s-9.569,13.17994-17.86458,19.25609l.48534-27.02864H500.5746l-3.17084,30.51216c-.38319,1.551-3.36624,2.284-5.54487,1.78247C483.363,385.64359,459.5854,357.364,459.5854,357.364l-1.97082-21.58417L430.799,329.33511s12.75255,28.868,16.38207,35.5798c2.53715,4.69165,20.52662,25.20439,31.12528,37.12674a30.43942,30.43942,0,0,1,7.31654,21.22561l-1.005,28.67572a5.327,5.327,0,0,0,2.7382,4.74164c3.69206,2.45352,12.50753,2.46577,16.17659.02779a5.40068,5.40068,0,0,0,2.73668-4.40274h.00285l-.00057-.01662-.00019-.00876-.94206-27.24269a30.351,30.351,0,0,1,7.67245-21.60306c9.19946-9.93363,23.52441-25.83956,28.22526-33.49012,7.12332-11.59287,15.07484-48.50729,15.07484-48.50729Z"/>
    <path class="cls-15" d="M601.07428,254.537c0-20.09683-8.3106-37.61784-20.63241-46.92564-2.984-15.28037-10.90491-27.93043-21.37641-34.83066-.01939-10.33044-4.23666-19.24267-11.4459-22.23486a13.48715,13.48715,0,0,0-1.88034-.624c-6.58879-15.43746-17.7562-27.0056-31.07616-31.46609-4.7191-8.549-11.88633-13.95558-19.83215-13.74839-8.09656.21135-15.1524,6.20754-19.51261,15.2773-9.73264-3.17356-20.94415,5.398-25.44522,19.76515a40.97139,40.97139,0,0,0-1.7526,9.23648c-9.11277,3.53479-17.49427,13.23379-21.665,26.54613a55.88539,55.88539,0,0,0-2.51751,14.55508c-7.22368,3.4046-12.44042,11.2568-13.09889,20.6018-6.20975,2.40495-11.93061,7.7091-15.60423,15.31406a37.29893,37.29893,0,0,0-3.23775,22.50441A50.61819,50.61819,0,0,0,379.69794,282.143c0,15.6569,6.64734,29.51972,16.86489,38.0762a24.3798,24.3798,0,0,0,6.16642,9.70557,20.41214,20.41214,0,0,0,16.24064,5.3827c5.29013,12.5735,18.4124,17.9508,28.31669,19.39963,6.62635,13.88107,23.57932,23.85907,40.15565,23.85907,14.35917,0,27.53561-5.81,37.86683-15.48887,13.05668.82029,31.11348-7.6075,32.29577-28.07789A52.20747,52.20747,0,0,0,580.74677,301.231C592.90073,291.86561,601.07428,274.46779,601.07428,254.537Z"/>
    <path class="cls-16" d="M540.65174,259.65673c-1.39144,16.0166-20.01463,24.32081-29.22206,17.40789,5.06905,20.70726-21.04357,36.26619-35.78234,30.20257-13.51765,13.7287-35.68288,8.2373-43.03814-2.63118-3.97586,13.95733-23.55665,22.99535-36.04637,15.58317a24.3798,24.3798,0,0,0,6.16642,9.70557,20.41214,20.41214,0,0,0,16.24064,5.3827c5.29012,12.57348,18.41239,17.95093,28.31668,19.39976,6.62624,13.881,23.57933,23.85894,40.15566,23.85894,14.35917,0,27.53561-5.81,37.86683-15.48887,13.05669.82025,31.11343-7.60758,32.29577-28.07789A52.20747,52.20747,0,0,0,580.74677,301.231c12.154-9.36535,20.32751-26.76317,20.32751-46.69394,0-20.09683-8.3106-37.61784-20.63241-46.92564-2.984-15.28037-10.90491-27.93043-21.37641-34.83066a22.34894,22.34894,0,0,1-3.10678,31.98025C561.963,228.01014,560.3244,247.85273,540.65174,259.65673Z"/>
  </g>
  <g>
    <path class="cls-14" d="M412.33092,509.04422V427.98991H399.019V509.07h.00608a3.3524,3.3524,0,0,0,1.95879,2.688,10.4057,10.4057,0,0,0,9.41471.01693A3.2658,3.2658,0,0,0,412.33092,509.04422Z"/>
    <path class="cls-17" d="M448.33779,400.99254a66.11991,66.11991,0,0,0,.14422-8.82539c-.82958-16.09547-7.14008-29.26644-14.88052-32.50592.07-.27056.17615-.52382.22923-.8015,1.2061-6.28243-2.41144-11.95738-8.08-12.67523-.04808-.006-.095.00327-.14269-.00212-2.143-16.0772-10.24264-24.74125-19.933-24.74125-9.48882,0-17.44925,8.31215-19.78915,23.75187-8.44618,4.50154-15.83856,17.96-18.06846,34.64775-.29922,2.238-.47,4.43405-.56575,6.594a12.67877,12.67877,0,0,0-7.33045,9.28268,11.67625,11.67625,0,0,0,.99649,7.50161,26.831,26.831,0,0,0-5.90282,17.20869,29.10273,29.10273,0,0,0,1.17456,8.17618c-3.77368,5.5465-5.37092,13.35751-3.80329,21.681,1.8553,9.85131,7.68082,17.924,14.83782,21.87445a31.63258,31.63258,0,0,0,18.22038,15.14859c4.71441,7.52756,12.01449,12.37889,20.23067,12.37889s15.51665-4.85133,20.23145-12.37889a31.62611,31.62611,0,0,0,18.18307-15.08051,20.59369,20.59369,0,0,0,12.40639-15.34685,18.92509,18.92509,0,0,0-1.92684-12.89329,34.53184,34.53184,0,0,0,5.50592-13.09541C462.4968,418.27661,457.48586,406.61846,448.33779,400.99254Z"/>
    <path class="cls-16" d="M460.06883,430.90223a33.92482,33.92482,0,0,1-5.51361,13.075,18.92122,18.92122,0,0,1,1.953,12.91771,20.747,20.747,0,0,1-12.41332,15.34358,31.57152,31.57152,0,0,1-18.17922,15.05993c-4.72595,7.53007-12.03564,12.382-20.22683,12.382-8.2235,0-15.5328-4.85191-20.25875-12.382a31.56985,31.56985,0,0,1-18.21076-15.15454c18.70613,5.019,31.091-3.109,31.7898-22.81057,14.93938,7.98724,31.9637-4.079,27.94649-21.70792,13.53615-4.09037,16.61975-24.33488,4.82057-33.71183,10.18572-7.84312,13.20718-22.867,1.82684-34.24738,7.75083,3.24525,14.0521,16.41488,14.87129,32.51457a68.27222,68.27222,0,0,1-.12615,8.82174C457.48509,406.61076,462.49488,418.26815,460.06883,430.90223Z"/>
  </g>
  <g>
    <path class="cls-14" d="M157.857,630.84773V547.32166H144.13916v83.55267h.00626a3.45464,3.45464,0,0,0,2.01852,2.77,10.723,10.723,0,0,0,9.70181.01744A3.3654,3.3654,0,0,0,157.857,630.84773Z"/>
    <path class="cls-18" d="M194.9619,517.82227a68.13638,68.13638,0,0,0,.14862-9.09452c-.85488-16.5863-7.35781-30.15893-15.3343-33.49719.07213-.27882.18152-.5398.23621-.826,1.24289-6.474-2.485-12.322-8.32644-13.06176-.04954-.00614-.09789.00337-.147-.00218-2.20833-16.56747-10.555-25.49573-20.54085-25.49573-9.77819,0-17.98137,8.56562-20.39262,24.47618-8.70375,4.63881-16.32156,18.5077-18.61946,35.70434-.30834,2.30623-.48431,4.56926-.583,6.795a13.06539,13.06539,0,0,0-7.554,9.56576,12.03228,12.03228,0,0,0,1.02689,7.73036,27.64912,27.64912,0,0,0-6.08284,17.73347,29.99005,29.99005,0,0,0,1.21039,8.42552c-3.88877,5.71564-5.53471,13.76485-3.91928,22.34216,1.91188,10.15173,7.915,18.47064,15.2903,22.54152a32.59716,32.59716,0,0,0,18.776,15.61054c4.85818,7.75711,12.38087,12.75639,20.84761,12.75639s15.98983-4.99928,20.8484-12.75639a32.59058,32.59058,0,0,0,18.73757-15.54039,21.22172,21.22172,0,0,0,12.78473-15.81485,19.5023,19.5023,0,0,0-1.9856-13.28648,35.58514,35.58514,0,0,0,5.67382-13.49475C209.55269,535.63342,204.38894,523.61975,194.9619,517.82227Z"/>
    <path class="cls-16" d="M207.05068,548.64405a34.95944,34.95944,0,0,1-5.68175,13.47375,19.49828,19.49828,0,0,1,2.01255,13.31164,21.37972,21.37972,0,0,1-12.79186,15.81148,32.53437,32.53437,0,0,1-18.7336,15.51919c-4.87007,7.75969-12.40267,12.75956-20.84365,12.75956-8.47427,0-16.00647-4.99987-20.87654-12.75956a32.53263,32.53263,0,0,1-18.7661-15.61669c19.27658,5.172,32.0391-3.20381,32.75923-23.50617,15.395,8.2308,32.93844-4.20342,28.79873-22.3699,13.94893-4.21512,17.12656-25.077,4.96756-34.73988,10.49634-8.0823,13.60994-23.56438,1.88256-35.29176,7.98718,3.34421,14.48061,16.91545,15.32479,33.50611a70.35556,70.35556,0,0,1-.13,9.09076C204.38815,523.61182,209.55071,535.6247,207.05068,548.64405Z"/>
  </g>
  <g>
    <path class="cls-14" d="M864.02277,612.96744V518.94682H848.58136v94.05057h.007a3.88867,3.88867,0,0,0,2.27214,3.118,12.07027,12.07027,0,0,0,10.92078.01963A3.78824,3.78824,0,0,0,864.02277,612.96744Z"/>
    <path class="cls-19" d="M905.78968,485.17323a76.69639,76.69639,0,0,0,.16729-10.2372c-.96228-18.67027-8.28228-33.94821-17.261-37.70591.08119-.31385.20432-.60762.26589-.92972,1.399-7.28743-2.79719-13.87021-9.37261-14.7029-.05576-.00691-.11019.0038-.16551-.00245-2.4858-18.64908-11.88116-28.69912-23.12169-28.69912-11.00676,0-20.24062,9.64184-22.95484,27.55147-9.79732,5.22165-18.37226,20.83307-20.95888,40.19037-.34708,2.596-.54516,5.14336-.65625,7.64879A14.707,14.707,0,0,0,803.229,479.0542a13.544,13.544,0,0,0,1.15591,8.70163,31.12313,31.12313,0,0,0-6.84711,19.96158,33.75837,33.75837,0,0,0,1.36246,9.48414c-4.37736,6.43377-6.23011,15.49431-4.41171,25.14932,2.1521,11.42723,8.90953,20.79136,17.21144,25.37372a36.69281,36.69281,0,0,0,21.1351,17.57191c5.46858,8.73175,13.93645,14.35915,23.467,14.35915s17.99885-5.6274,23.46788-14.35915a36.68534,36.68534,0,0,0,21.09183-17.493,23.88806,23.88806,0,0,0,14.391-17.80189,21.95254,21.95254,0,0,0-2.23508-14.95584,40.05607,40.05607,0,0,0,6.38671-15.19028C922.21371,505.22224,916.40117,491.69912,905.78968,485.17323Z"/>
    <path class="cls-16" d="M919.39734,519.86758a39.35175,39.35175,0,0,1-6.39563,15.16664,21.94807,21.94807,0,0,1,2.26542,14.98417,24.066,24.066,0,0,1-14.39909,17.7981,36.62206,36.62206,0,0,1-21.08736,17.46908c-5.482,8.73465-13.961,14.36272-23.46253,14.36272-9.539,0-18.01759-5.62807-23.49955-14.36272a36.62014,36.62014,0,0,1-21.12395-17.57883c21.69856,5.82185,36.06462-3.60635,36.87523-26.45958,17.32924,9.26495,37.077-4.73156,32.41712-25.18055,15.70153-4.74472,19.27842-28.22775,5.59171-39.10473,11.81513-9.0978,15.31994-26.52511,2.11908-39.726,8.99073,3.76439,16.3,19.04077,17.25026,37.71595a79.19322,79.19322,0,0,1-.14633,10.233C916.40028,491.6902,922.21148,505.21242,919.39734,519.86758Z"/>
  </g>
  <g>
    <path class="cls-14" d="M779.61141,669.76993V613.6285H769.34514v56.15932h.00468c.0154.67356.51671,1.34621,1.51064,1.86183a8.84183,8.84183,0,0,0,7.26072.01172C779.12582,671.14035,779.62111,670.45506,779.61141,669.76993Z"/>
    <path class="cls-20" d="M730.39282,593.31067a20.91606,20.91606,0,0,1,5.35147-14.31134,25.54567,25.54567,0,0,1-2.31055-7.97962c-.96822-7.79645,1.64779-14.95212,6.31949-19.20887-.49251-4.95862,1.2741-9.44426,4.6717-11.83967a22.67071,22.67071,0,0,1-.28866-3.6007c0-9.7647,6.08184-17.82049,13.91308-18.91907-.017-.32034-.034-.6255-.034-.94594,0-13.41112,7.05028-24.2743,15.73092-24.2743,7.6276,0,13.9811,8.37623,15.42525,19.46831,3.14274,1.40364,5.58912,5.05016,6.42152,9.62734,4.41684,2.68521,8.375,7.62865,10.53248,13.8231a24.91806,24.91806,0,0,1,.76438,14.96739,12.14579,12.14579,0,0,1,5.06239,10.23758,13.29877,13.29877,0,0,1-1.91944,6.95732v.01527c6.914,3.43289,10.29462,13.07551,7.61059,23.23682A27.52207,27.52207,0,0,1,812.479,600.8325c4.298,5.11116,5.0794,13.47221,1.37613,21.45174a25.99257,25.99257,0,0,1-10.92339,11.87012,29.85256,29.85256,0,0,1-14.55863,12.20583c-3.95834,5.85884-10.34585,9.18492-16.41048,7.88808a13.03447,13.03447,0,0,1-8.8679-7.12522,28.935,28.935,0,0,1-11.34787-6.46907c-6.81221-2.74629-12.87684-9.04756-15.76493-17.3628a27.4368,27.4368,0,0,1-.79838-16.29477A21.129,21.129,0,0,1,730.39282,593.31067Z"/>
    <path class="cls-16" d="M817.64305,590.56625a27.43935,27.43935,0,0,1-5.1611,10.26646c4.301,5.11616,5.08479,13.477,1.37626,21.443a25.9461,25.9461,0,0,1-10.934,11.88026,29.82687,29.82687,0,0,1-14.54689,12.20646c-3.95681,5.85437-10.34157,9.185-16.42017,7.88019a13.03214,13.03214,0,0,1-8.86964-7.12479,28.70685,28.70685,0,0,1-11.33561-6.47239c14.45,2.08382,23.00257-2.50867,23.43566-16.29246,5.56717,2.88245,11.66787-1.647,8.17013-7.85671,11.95738.58444,16.43122-13.44222,8.67076-20.522,13.12908-2.70963,15.56936-18.0513,4.18606-22.59506,8.22934-3.69856,12.15606-11.60151,10.66675-23.26085a12.12674,12.12674,0,0,1,5.06543,10.2322,13.37561,13.37561,0,0,1-1.91156,6.97023c5.31418,2.62665,8.52569,8.9274,8.52569,16.30965A26.95755,26.95755,0,0,1,817.64305,590.56625Z"/>
  </g>
  <polygon class="cls-12" points="171.256 713.497 171.256 727.531 154.1 717.637 154.1 703.603 154.222 703.673 171.256 713.497"/>
  <path class="cls-21" d="M264.412,544.91394c3.919,5.09472,12.33558,7.63275,26.0708,3.45247,7.91268,6.569,29.39529,5.94812,33.44227-6.49437,6.793,2.762,17.169-4.62818,14.28574-9.86029,12.43822,3.45451,22.81429-6.413,19.42469-14.09284,20.484-9.5638,8.16706-28.26311-2.65689-26.88212,1.19249-11.52929-9.219-17.50494-17.72888-11.06655-5.71057-9.79755-23.5141-6.71832-23.43273,6.40679-15.04828-8.77687-32.96379,5.10765-25.29731,24.29114-7.47986-6.84792-16.8855.87814-14.078,9.289C261.68607,522.38653,260.493,539.81922,264.412,544.91394Z"/>
  <polygon class="cls-22" points="546.782 503.649 549.828 509.74 541.169 522.729 521.852 521.236 523.85 515.861 546.782 503.649"/>
  <polygon class="cls-22" points="554.008 510.785 549.828 518.698 556.397 518.698 568.116 513.189 566.101 509.964 554.008 510.785"/>
  <path class="cls-23" d="M442.70791,883.83648,478.709,905.043a42.10143,42.10143,0,0,0,42.65839.046l52.049-30.50876c2.3708-9.29742-9.34893-15.79179-16.44049-9.10358,3.20987-10.122-7.13541-19.01629-16.18066-8.95979-1.95878-17.58477-22.18837-23.10872-33.62821-10.29569-11.55172-9.37922-24.24187-1.54119-24.73039,11.09368-4.66219-8.90247-22.80164-6.06585-19.72537,8.84844C447.15019,856.51687,436.3449,869.66836,442.70791,883.83648Z"/>
  <g class="cls-24">
    <g>
      <g>
        <path class="cls-25" d="M1142.11611,821.38065l-28.08854-155.77313L1002.428,713.97433c-43.237,22.92713-61.55777,60.40617-43.34169,114.74032l93.8023,241.62469-20.938,26.59128c3.41585,9.46867,18.54058,15.445,18.54058,15.445s59.4684-15.058,59.29649-36.33066l-5.49623-12.56281c-19.47236-81.92-1.62053-132.94692-28.63057-232.82125Z"/>
        <path class="cls-26" d="M1257.15751,813.58529l-59.60825-192.47005L997.362,706.09939c-47.62286,21.77553-62.56387,81.78613-45.27888,127.06405L1008.77043,986.852c12.71823,37.97947,95.57188,17.06448,90.96552-23.55527l-15.42174-119.53321Z"/>
      </g>
      <path class="cls-27" d="M996.879,399.79209l164.23222,94.68453a11.45565,11.45565,0,0,0,6.38168,1.51221l28.84165,5.06386a16.36787,16.36787,0,0,1,12.52007,10.44083l2.24152,6.05737-7.56-24.31262-8.44187-8.00159L1033.56771,392.112l-35.35228,2.04011A3.02464,3.02464,0,0,0,996.879,399.79209Z"/>
    </g>
  </g>
  <g>
    <g>
      <path class="cls-28" d="M525.242,693.99643c2.9449,2.95954,3.39323,10.56911,1.96058,12.94445-2.64851,4.39126-6.78605,3.75-12.86419,6.971-5.84638,3.09821-16.82128,10.58944-28.65208,7.25761-8.59906-2.4217-7.10176-9.56216-5.1542-13.0423l14.88941-8.94186,8.51951-8.15887S517.92046,686.6385,525.242,693.99643Z"/>
      <path class="cls-26" d="M523.27655,682.88357c2.9449,2.95953,5.77162,16.75247,3.926,19.92976-1.28021,2.204-5.79064,4.85618-12.21067,7.3264-5.91518,2.276-14.89138,10.7402-28.61768,8.34683-6.63118-1.15624-8.73664-8.48441-4.35686-12.24507l13.40415-11.18373,8.51951-8.15887S515.955,675.52564,523.27655,682.88357Z"/>
      <g>
        <path class="cls-25" d="M453.41046,500.66853l-.95883-4.81294a7.8858,7.8858,0,0,1,1.69166-4.176l8.39979-10.50271,9.51081,3.79254-1.12882,8.5784-.89908,4.51474a4.03828,4.03828,0,0,1-2.42909,2.94778l-5.29376,2.16953C460.69769,503.83785,454.93576,505.68871,453.41046,500.66853Z"/>
        <polygon class="cls-29" points="472.054 484.969 487.815 460.755 476.071 452.072 462.543 481.177 472.054 484.969"/>
        <polygon class="cls-30" points="455.227 498.191 459.844 500.472 458.35 496.439 455.227 498.191"/>
        <path class="cls-30" d="M468.10367,493.14663l-3.72661-1.76541.21817,5.79633c.15891,2.36946-1.23165,3.8636-2.62128,4.06287-1.0673.15576-2.477-.36035-2.938-2.46483l-2.088-7.0905a.76147.76147,0,0,1,.52718-.9672.77977.77977,0,0,1,.9672.52717l2.10088,7.14164c.21865.9199.65488,1.39183,1.20819,1.31281.59644-.08655,1.39208-.89349,1.28843-2.44152l-.29051-7.71805a.77873.77873,0,0,1,1.52963-.23315.76022.76022,0,0,1,.02673.17558l.00542.14406,4.45978,2.1135c.87947.41758,2.05812,1.50575,1.994,2.61205l-.36336,1.82447A4.18573,4.18573,0,0,0,468.10367,493.14663Z"/>
        <path class="cls-31" d="M477.30052,499.75379c2.26912,1.18858,3.58115-5.92651,1.0057-8.19659-2.63808-1.76515-7.15074-1.47895-12.25721-.54317l2.37652,1.12627c.95527.45365,2.23561,1.63559,2.166,2.83734l-.39476,1.98186C471.71218,497.36873,477.30052,499.75379,477.30052,499.75379Z"/>
        <path class="cls-31" d="M457.85092,499.78281l-1.42189-4.82873a2.22847,2.22847,0,0,0-.24176.52636c-12.80979,53.93486-26.37727,67.24815-78.55566,93.83939a2.3029,2.3029,0,1,0,2.09107,4.10376c51.92988-26.46544,66.18474-39.18224,79.573-91.32915A3.42711,3.42711,0,0,1,457.85092,499.78281Z"/>
      </g>
      <path class="cls-32" d="M479.81377,435.45648s2.68252-37.18889,11.66156-52.85276c7.42355-12.95034,22.0931-15.25472,22.0931-15.25472l-10.69677,41.97748-.75,11.74341a6.09667,6.09667,0,0,1-3.19751,3.68213l1.84428,15.123c-3.74189,13.68781-20.67806,40.77291-25.40686,45.9685-4.00524,4.42689-16.7386-2.27549-14.05862-8.22108Z"/>
      <path class="cls-33" d="M498.92761,424.75006a6.94723,6.94723,0,0,0,.68946-.4043l.01391-.00952.01575-.01074c.02331-.01539.0459-.0315.069-.04712a6.75,6.75,0,0,0,.61194-.46827l.00073-.00048.00183-.00147-8.45264-16.05371-5.80163,62.27539c2.31042-3.82983,4.68432-7.98584,6.86023-12.10473,3.38354-7.45679,6.38769-14.75171,7.83227-18.05L498.92419,424.752Z"/>
      <path class="cls-25" d="M489.55925,519.51861s1.14894,45.63017,2.21277,66.25532c1.18179,22.91219,13.32485,77.45052,15.97872,94.02128l-5.87234,10.53191c.59725,5.62926,14.48936.58511,14.48936.58511s5.82979-3.8617,5.14894-6.5l-.7074-4.80523c.53613-22.6383,5.64357-52.19971,1.4308-86.85984l6.766-66.528Z"/>
      <path class="cls-26" d="M501.75106,645.637l1.37806,13.98422c.74848,6.42039,19.6421,6.70763,20.33482-.77255l1.03925-14.87042Z"/>
      <path class="cls-34" d="M521.05191,681.25521l.46472,3.157c.68091,2.63818-5.14893,6.5-5.14893,6.5s-13.89209,5.04419-14.48926-.585l4.53186-8.12793C512.51907,684.22518,517.43691,683.30585,521.05191,681.25521Z"/>
      <path class="cls-28" d="M497.06,694.20281l6.75313-10.31888c1.92619-3.05185,9.24317-1.57857,12.55463,7.0283,0,0-8.19206,6.77272-13.14994,7.05956S496.02313,696.0602,497.06,694.20281Z"/>
      <path class="cls-26" d="M489.94227,495.25594c-2.42557,32.901.60686,77.87742,1.65954,94.09246,1.27654,19.66345,7.02246,61.31,7.02246,61.31,1.23206,9.03212,26.82978,8.10332,27.57446-.87541a402.91864,402.91864,0,0,0,1.2959-58.38391L538.11424,508.242Z"/>
      <g>
        <path class="cls-28" d="M596.78385,672.08908c3.12647,1.25932,7.07122,2.815,9.75153,7.47209,2.492,4.32978,3.78983,9.64893-3.74208,19.734-3.80212,5.091-8.63548,17.99017-18.33055,20.95811-11.25669,3.446-19.712-1.67088-16.69854-11.38844l10.18866-11.93137,5.17021-15.09575C585.86877,674.73563,591.34185,669.89709,596.78385,672.08908Z"/>
        <path class="cls-26" d="M595.42214,669.15291c3.12647,1.25932,6.25413,4.13166,9.286,8.56783,1.78453,2.611,4.03412,7.3631-2.87234,17.94818-3.47213,5.3215-9.03974,18.68029-18.7348,21.64823-11.25669,3.446-18.54382-3.057-14.58435-10.20279l8.07447-13.117,5.17021-15.09575C584.50707,671.79946,589.98015,666.96092,595.42214,669.15291Z"/>
        <path class="cls-25" d="M521.32943,518.42617c2.2506,13.61017,12.82557,69.51443,19.29365,84.66141,6.30714,14.77008,41.29788,71.47359,41.29788,71.47359l-.73405,7.75532,12.60639,1.77659s5.17021-9,1.86606-13.07691l-2.56815-3.1572c-5.78957-13.14887-8.55323-42.048-22.363-76.47165l-5.59451-68.84743Z"/>
        <path class="cls-26" d="M563.2744,648.31158l8.07059,11.51076c3.98358,4.7379,20.0803-3.52343,17.51308-10.62234l-4.85283-14.427Z"/>
        <path class="cls-34" d="M593.79324,684.0931l-12.60632-1.77661.32971-5.39356c7.84546.15161,13.766-2.58373,12.27667-8.20083l1.866,2.29409C598.9634,675.0931,593.79324,684.0931,593.79324,684.0931Z"/>
        <path class="cls-28" d="M577.89968,692.56117c-.32273,1.72766,6.19272,4.428,9,2.3617s6.89362-10.82979,6.89362-10.82979c-.65958-6.70213-11.45255-9.67244-12.46809-6.44681C581.32521,677.64627,578.43771,689.68086,577.89968,692.56117Z"/>
      </g>
      <path class="cls-35" d="M572.7933,590.75266l-2.17023-75.57436c-1.28662-20.96606-4.58532-40.77759-10.766-58.93628l-62.702-1.10034a334.85325,334.85325,0,0,0-7.21277,40.11426l29.38212,27.07289s9.171,52.74591,16.57527,75.81995,27.76516,54.61706,27.76516,54.61706c4.46808,6.40425,26.77519-3.1391,23.62627-14.96893C587.29111,637.79691,580.32521,610.79521,572.7933,590.75266Z"/>
      <path class="cls-36" d="M529.2518,369.0912c-26.03676-5.6226-32.33434,4.44261-36.22825,23.1008.877,20.55151,2.40923,40.743,2.40923,40.743s-5.31944,52.70811-7.2573,68.01085c-5.12766,36.93617,82.12766,29.93954,82.12766,7.76595-1.9105-26.04433-10.446-52.64-11.212-61.57617s7.23445-50.48146,7.23445-50.48146C560.141,383.44732,543.50873,372.17,529.2518,369.0912Z"/>
      <path class="cls-25" d="M512.68757,367.76642a32.54324,32.54324,0,0,1,3.48633-.22046l.01111-.00024q.8919-.01026,1.834.0227c.02723.001.0531.001.08045.002.596.02124,1.2102.0581,1.83642.105.063.00488.123.00732.18628.0122.59339.04688,1.20545.10938,1.82654.17969.10108.01123.19739.0188.2992.03076.58618.06934,1.19189.15479,1.80322.24488.145.02148.2832.03735.42969.05981.58813.09058,1.19677.19775,1.80847.30762.17822.03174.348.05713.52832.09082q1.14166.21276,2.33972.47094c.03223.00684.06226.01221.09448.019.1416.03052.28491.06714.427.09936,2.08814.512,5.812,1.78662,9.02466,2.98584a62.79116,62.79116,0,0,1,6.04,3.00855c1.21923,9.35671-29.334,14.71841-29.334,14.71841S503.40657,379.23908,512.68757,367.76642Z"/>
      <path class="cls-37" d="M488.09974,475.66605c1.93787-15.30273,4.75659-43.29467,4.75659-43.29467-2.30938-19.22076-3.45893-23.24489-.89923-40.03513,3.05628-14.645,9.6622-25.74,26.13028-25.13361L516.03,368.85141a47.84113,47.84113,0,0,0-8.98516,13.76612c-3.46809,8.51064-6.4894,19.4449-9.383,36.25532-2.47464,14.37654-3.32512,56.94715-4.99,69.54a1.48527,1.48527,0,0,1-2.69565.65532C487.77988,485.75424,487.4013,480.97961,488.09974,475.66605Z"/>
      <path class="cls-38" d="M543.21345,374.34528c10.20372,5.17651,18.90186,13.31787,23.11206,22.30884l-6.88409,49.97257,7.15175,31.037c0,9.35991-17.39093,16.52182-34.1981,18.16594a2.78019,2.78019,0,0,1-3.04753-2.4573c-.87742-8.0281-3.42073-32.16835-3.78782-45.51438-.4448-16.17149-3.87141-34.798,3.55575-52.9017C533.20057,384.99883,543.21345,374.34528,543.21345,374.34528Z"/>
      <path class="cls-33" d="M559.44143,446.6267l.00013-.00049.58346-22.99432-15.09985-8.51367,15.70825,65.47949a15.1642,15.1642,0,0,0,5.2312-5.8894Z"/>
      <path class="cls-25" d="M555.87775,504.86972c.772-1.86325,5.24285-8.757,5.243-8.75725l.013-.14019,9.69149-.71634s.94958,10.964.63355,13.60257a21.37113,21.37113,0,0,1-3.99986,9.44378c-2.37583,3.27607-6.68756,4.93432-6.87392,5.02415a1.64556,1.64556,0,0,1-1.70078.05693,2.10017,2.10017,0,0,1-.79675-1.65952l.49374-7.22579a1.565,1.565,0,0,1-2.91288-.37791l-.71516-5.25535C554.79652,507.713,555.10583,506.73321,555.87775,504.86972Z"/>
      <polygon class="cls-25" points="570.727 497.978 580.517 466.731 564.972 464.521 561.134 498.38 570.727 497.978"/>
      <path class="cls-39" d="M566.32563,396.65412c4.34034,9.82006,16.29745,34.34913,17.05965,50.18727.81672,16.97111-8.61406,48.41455-8.61406,48.41455-1.64028,5.713-16.59574,3.12452-16.07079-2.14019l3.30563-43.87373-16.557-31.68832C540.44908,399.25561,560.11274,382.9,566.32563,396.65412Z"/>
      <g>
        <path class="cls-40" d="M337.5231,627.18529c-1.07173,10.33143,1.57049,23.85721,26.74938,33.79466l-5.22846,18.704-4.47035,3.81964c-5.24594,3.758-1.10637,9.20241,4.27425,6.839s6.88887-8.92631,6.88887-8.92631,10.19168-13.77877,9.03093-24.1248-10.966-22.45613-10.966-22.45613Z"/>
        <path class="cls-40" d="M414.35387,609.89584l.05855-6.6173,8.75177-8.98847s19.32785-1.97572,24.80012.59892,12.65951,19.066,12.65951,19.066,2.86888,6.18449,1.92031,10.64908-7.925,3.07766-7.951-.53894l-1.65618-9.13783-9.08409-7.9Z"/>
        <path class="cls-40" d="M421.10453,581.48676c8.798-3.03138,20.14924-3.42615,27.95714-4.69083,8.7669-1.42,30.8883-17.28227,34.025-11.10517s-.07139,14.652-6.61889,19.45271-19.61045,6.25562-26.20831,6.25562S433.40271,587.91,433.40271,587.91Z"/>
        <path class="cls-41" d="M362.12519,656.19487c-11.35323-2.11479-23.46561-9.45618-24.60209-21.98241l3.34039-21.07384,18.01693-23.496,8.79551,9.23118,15.56088-.05246s32.17325-17.7144,38.97252-17.40687c12.621.57086,16.57431,8.8443,18.7301,13.27381a33.01331,33.01331,0,0,1,2.72212,19.83711c-1.43913,8.26733-12.186,25.366-12.186,25.366s10.97312,5.153,10.44511,8.62279-11.09291,17.56219-13.879,19.00825-6.735,1.32605-5.92974-3.63,7.27506-14.97393,7.27506-14.97393-13.11586-2.69854-13.30267-7.58579,3.77976-15.743,3.77976-15.743c-8.94491,10.40317-21.21449,21.054-29.24558,24.19328,0,0,5.71119,4.1,5.71119,11.22905s-21.21762,16.20028-24.49706,19.09448c-2.2737,5.15708-4.547,12.78036-7.70463,13.2029a7.37422,7.37422,0,0,1-7.79439-3.62062c-2.07982-3.131,2.82516-9.566,4.95777-13.33169s16.12076-15.76731,16.12076-15.76731Z"/>
        <path class="cls-40" d="M415.35255,630.55451c-10.59317,8.24452-21.60589,13.75087-31.05993,14.98281l6.32583,4.24568,3.025-1.427C400.0896,644.88313,408.26823,637.97912,415.35255,630.55451Z"/>
        <path class="cls-40" d="M328.86026,578.0355a22.63683,22.63683,0,0,0-10.22071,12.295c-1.47779,4.78222,3.18529,9.39429,8.78755,6.72581L342.513,577.02067S333.53133,575.49508,328.86026,578.0355Z"/>
        <path class="cls-42" d="M360.8801,592.518s-1.615-9.19952-9.48817-13.19244-18.37477-2.58855-21.59724,1.46132-4.47546,7.2463-6.27294,10.8687c-1.64938,3.32393-10.10756,13.42647-10.10756,13.42647-2.15888,3.4502,2.3006,15.68934,12.63445,14.5579,4.76663-.52189,5.69493-3.82176,5.69493-3.82176l6.9281,23.50641Z"/>
        <path class="cls-43" d="M313.54872,605.94944c1.69723-1.47086,5.09156.792,5.39328,2.22519s-2.45124,4.45038-3.80909,3.96007S311.85148,607.4203,313.54872,605.94944Z"/>
        <path class="cls-44" d="M331.74357,615.81816l9.42869-1.76a143.81506,143.81506,0,0,0,15.76478,19.838c10.40928,11.18871,7.03013,22.82832,7.03013,22.82832s-11.36733-1.5949-15.33995-4.88866-9.58007-6.70066-12.17585-13.86647S331.74357,615.81816,331.74357,615.81816Z"/>
        <path class="cls-31" d="M333.03624,623.72487a10.78747,10.78747,0,0,1-1.2928-7.90671c10.0323,9.55438,29.13666,1.86059,28.72936-15.352l6.7534-1.44023C370.16235,620.24336,342.83168,636.61159,333.03624,623.72487Z"/>
        <path class="cls-45" d="M364.28526,598.496v0a3.70282,3.70282,0,0,1,1.74572-4.83327l12.84858-6.06142a3.47582,3.47582,0,0,1,4.6683,1.80741l0,0a3.70282,3.70282,0,0,1-1.74572,4.83327l-12.84858,6.06141A3.47582,3.47582,0,0,1,364.28526,598.496Z"/>
        <path class="cls-40" d="M351.00829,585.07544c0-2.29543,2.13438-2.59239,4.43177-2.80675,0,0,8.04236,7.30753,14.90881,10.32916,7.15442,3.14836,9.37363,14.80508,1.33023,14.81746-10.3087.01586-15.72234-4.78206-18.09445-9.25512S351.00829,585.07544,351.00829,585.07544Z"/>
      </g>
    </g>
    <path class="cls-46" d="M501.802,333.9405s-.95015,3.22922-2.34281,14.54663c-.9007,7.31953-3.14822,14.60453-1.24988,20.83941,3.13968,10.3119,15.14876,9.64041,20.64957,5.60152Z"/>
    <path class="cls-30" d="M514.601,378.7118c.58358,2.72588,2.73187,3.81859,6.00242,4.06149,6.2166.46169,14.86092-5.86492,13.46718-10.88117l-3.30355-15.38253L514.1568,362.709Z"/>
    <g>
      <path class="cls-25" d="M515.8947,372.42272c9.16623-.69145,14.70254-5.48818,16.14722-14.002l3.09329-18.4117c1.45535-7.3925-4.46505-15.18759-13.17673-16.12636-7.61389-.82047-16.15049,4.62442-17.06347,13.05853a171.47458,171.47458,0,0,0-.67805,18.78953C504.52685,364.09821,507.37422,373.06546,515.8947,372.42272Z"/>
      <g>
        <path class="cls-47" d="M550.72867,370.03952c.57447-6.90218-1.02128-40.60431-21.978-47.13627-15.86686-4.05516-25.89058,6.47668-26.94772,11.0374-.914,3.94395,3.70373,15.77032,22.496,17.21092-1.27681,3.45287.569,7.67519,4.11706,6.2817a8.28356,8.28356,0,0,0,2.47954,1.7119s-8.29666,17.90713-.9168,23.42732C538.18993,388.71453,549.693,382.48289,550.72867,370.03952Z"/>
        <path class="cls-25" d="M530.345,363.67343c3.39592-.01986,6.22686-4.77826,6.20431-8.63179s-3.378-7.07709-6.286-5.32306C526.613,351.92046,526.94912,363.6933,530.345,363.67343Z"/>
      </g>
    </g>
  </g>
</svg>
