<svg id="Layer_1" data-name="Layer 1" xmlns="http://www.w3.org/2000/svg" xmlns:xlink="http://www.w3.org/1999/xlink" viewBox="0 0 1000 1000">
  <defs>
    <style>
      .cls-1 {
        fill: url(#linear-gradient);
      }

      .cls-2 {
        fill: #b8cbd8;
      }

      .cls-10, .cls-113, .cls-3 {
        fill: #fff;
      }

      .cls-24, .cls-3, .cls-35, .cls-73, .cls-8, .cls-83, .cls-93 {
        opacity: 0.5;
      }

      .cls-4 {
        fill: url(#linear-gradient-2);
      }

      .cls-5 {
        fill: #2a3f5e;
        opacity: 0.2;
      }

      .cls-6 {
        fill: url(#linear-gradient-3);
      }

      .cls-7 {
        fill: url(#linear-gradient-4);
      }

      .cls-9 {
        fill: #e58630;
      }

      .cls-10 {
        opacity: 0.7;
      }

      .cls-11 {
        fill: url(#linear-gradient-5);
      }

      .cls-12 {
        fill: url(#linear-gradient-6);
      }

      .cls-13 {
        fill: url(#linear-gradient-7);
      }

      .cls-14 {
        fill: url(#linear-gradient-8);
      }

      .cls-15 {
        fill: url(#linear-gradient-9);
      }

      .cls-16 {
        fill: url(#linear-gradient-10);
      }

      .cls-17 {
        fill: url(#linear-gradient-11);
      }

      .cls-18 {
        fill: url(#linear-gradient-12);
      }

      .cls-19 {
        fill: url(#linear-gradient-13);
      }

      .cls-20 {
        fill: url(#linear-gradient-14);
      }

      .cls-21 {
        fill: url(#linear-gradient-15);
      }

      .cls-22 {
        fill: url(#linear-gradient-16);
      }

      .cls-23 {
        fill: url(#linear-gradient-17);
      }

      .cls-24, .cls-40 {
        fill: #dd7b19;
      }

      .cls-25 {
        fill: url(#linear-gradient-18);
      }

      .cls-26, .cls-91 {
        fill: none;
        stroke-linecap: round;
        stroke-miterlimit: 10;
      }

      .cls-26 {
        stroke: #d8712b;
        stroke-width: 5.2874px;
      }

      .cls-27 {
        fill: #29232d;
      }

      .cls-28 {
        fill: url(#linear-gradient-19);
      }

      .cls-29 {
        fill: url(#linear-gradient-20);
      }

      .cls-30 {
        fill: url(#linear-gradient-21);
      }

      .cls-31 {
        fill: url(#linear-gradient-22);
      }

      .cls-32 {
        fill: url(#linear-gradient-23);
      }

      .cls-33 {
        fill: url(#linear-gradient-24);
      }

      .cls-34 {
        fill: #ffcb48;
      }

      .cls-35 {
        fill: #c65c44;
      }

      .cls-36 {
        fill: url(#linear-gradient-25);
      }

      .cls-37 {
        fill: url(#linear-gradient-26);
      }

      .cls-38 {
        fill: #bcd0e2;
      }

      .cls-39 {
        fill: url(#linear-gradient-27);
      }

      .cls-41 {
        fill: #283452;
      }

      .cls-42 {
        fill: url(#linear-gradient-28);
      }

      .cls-43 {
        fill: #242d46;
      }

      .cls-44 {
        fill: url(#linear-gradient-29);
      }

      .cls-45 {
        fill: #8eaabf;
      }

      .cls-46 {
        fill: #d7ebf4;
      }

      .cls-47 {
        fill: url(#linear-gradient-30);
      }

      .cls-48 {
        fill: url(#linear-gradient-31);
      }

      .cls-49 {
        fill: #324469;
      }

      .cls-50 {
        fill: url(#linear-gradient-32);
      }

      .cls-51 {
        fill: url(#linear-gradient-33);
      }

      .cls-52 {
        fill: url(#linear-gradient-34);
      }

      .cls-53 {
        fill: url(#linear-gradient-35);
      }

      .cls-54 {
        fill: url(#linear-gradient-36);
      }

      .cls-55 {
        fill: url(#linear-gradient-37);
      }

      .cls-56 {
        fill: url(#linear-gradient-38);
      }

      .cls-112, .cls-57 {
        opacity: 0.4;
      }

      .cls-57 {
        fill: url(#linear-gradient-39);
      }

      .cls-58 {
        fill: url(#linear-gradient-40);
      }

      .cls-59 {
        fill: url(#linear-gradient-41);
      }

      .cls-60 {
        fill: url(#linear-gradient-42);
      }

      .cls-61 {
        fill: url(#linear-gradient-43);
      }

      .cls-62 {
        fill: url(#linear-gradient-44);
      }

      .cls-63 {
        fill: url(#linear-gradient-45);
      }

      .cls-64 {
        fill: url(#linear-gradient-46);
      }

      .cls-65 {
        fill: url(#linear-gradient-47);
      }

      .cls-66 {
        fill: url(#linear-gradient-48);
      }

      .cls-67 {
        fill: #7995a8;
      }

      .cls-68 {
        fill: url(#linear-gradient-49);
      }

      .cls-69 {
        fill: url(#linear-gradient-50);
      }

      .cls-70 {
        fill: url(#linear-gradient-51);
      }

      .cls-71 {
        fill: #937057;
      }

      .cls-72 {
        fill: url(#linear-gradient-52);
      }

      .cls-73 {
        fill: #604840;
      }

      .cls-74 {
        fill: #6d635c;
      }

      .cls-75 {
        fill: #847e7a;
      }

      .cls-76 {
        fill: url(#linear-gradient-53);
      }

      .cls-77 {
        fill: url(#linear-gradient-54);
      }

      .cls-78 {
        fill: url(#linear-gradient-55);
      }

      .cls-79 {
        fill: url(#linear-gradient-56);
      }

      .cls-80 {
        fill: url(#linear-gradient-57);
      }

      .cls-81 {
        fill: url(#linear-gradient-58);
      }

      .cls-82 {
        fill: url(#linear-gradient-59);
      }

      .cls-83, .cls-84 {
        fill: #44332f;
      }

      .cls-85 {
        fill: url(#linear-gradient-60);
      }

      .cls-86 {
        fill: url(#linear-gradient-61);
      }

      .cls-87 {
        fill: #c93535;
      }

      .cls-88 {
        fill: url(#linear-gradient-62);
      }

      .cls-89 {
        fill: url(#linear-gradient-63);
      }

      .cls-90 {
        fill: url(#linear-gradient-64);
      }

      .cls-91 {
        stroke: #99432e;
        stroke-width: 3.6348px;
      }

      .cls-92 {
        fill: url(#linear-gradient-65);
      }

      .cls-93 {
        fill: #23262b;
      }

      .cls-94 {
        fill: url(#linear-gradient-66);
      }

      .cls-95 {
        fill: #27343d;
      }

      .cls-96 {
        fill: #ef8e73;
      }

      .cls-97 {
        fill: url(#linear-gradient-67);
      }

      .cls-98 {
        fill: #303d49;
      }

      .cls-99 {
        fill: #b2b2b2;
      }

      .cls-100 {
        fill: #e9f1f4;
      }

      .cls-101 {
        fill: url(#linear-gradient-68);
      }

      .cls-102 {
        fill: url(#linear-gradient-69);
      }

      .cls-103 {
        fill: url(#linear-gradient-70);
      }

      .cls-104 {
        fill: url(#linear-gradient-71);
      }

      .cls-105 {
        fill: url(#linear-gradient-72);
      }

      .cls-106 {
        fill: url(#linear-gradient-73);
      }

      .cls-107 {
        fill: #e2786d;
      }

      .cls-108 {
        fill: url(#linear-gradient-74);
      }

      .cls-109 {
        fill: url(#linear-gradient-75);
      }

      .cls-110 {
        fill: url(#linear-gradient-76);
      }

      .cls-111 {
        fill: url(#linear-gradient-77);
      }

      .cls-112 {
        fill: url(#linear-gradient-78);
      }
    </style>
    <linearGradient id="linear-gradient" x1="476.43571" y1="402.62316" x2="897.7224" y2="402.62316" gradientUnits="userSpaceOnUse">
      <stop offset="0" stop-color="#e4edf2"/>
      <stop offset="1" stop-color="#c3d6e6"/>
    </linearGradient>
    <linearGradient id="linear-gradient-2" x1="55.16526" y1="728.95587" x2="897.7224" y2="728.95587" gradientUnits="userSpaceOnUse">
      <stop offset="0" stop-color="#dae9f2"/>
      <stop offset="0.99337" stop-color="#c4d5e6"/>
    </linearGradient>
    <linearGradient id="linear-gradient-3" x1="652.142" y1="583.39608" x2="580.142" y2="684.50246" gradientUnits="userSpaceOnUse">
      <stop offset="0" stop-color="#fff"/>
      <stop offset="0.94545" stop-color="#fff" stop-opacity="0"/>
    </linearGradient>
    <linearGradient id="linear-gradient-4" x1="-219.53177" y1="733.03634" x2="766.0945" y2="733.03634" gradientUnits="userSpaceOnUse">
      <stop offset="0" stop-color="#e68e2b"/>
      <stop offset="0.99995" stop-color="#ffcb48"/>
    </linearGradient>
    <linearGradient id="linear-gradient-5" x1="-5529.23421" y1="172.55189" x2="-5714.83936" y2="574.69639" gradientTransform="matrix(-1, 0, 0, 1, -4942.37864, 0)" gradientUnits="userSpaceOnUse">
      <stop offset="0" stop-color="#fff"/>
      <stop offset="0.98888" stop-color="#e6edf2"/>
    </linearGradient>
    <linearGradient id="linear-gradient-6" x1="-5805.47938" y1="469.35686" x2="-5706.77321" y2="469.35686" gradientTransform="matrix(-1, 0, 0, 1, -4942.37864, 0)" gradientUnits="userSpaceOnUse">
      <stop offset="0" stop-color="#62778c"/>
      <stop offset="1" stop-color="#435466"/>
    </linearGradient>
    <linearGradient id="linear-gradient-7" x1="-5682.95899" y1="398.61596" x2="-5584.23818" y2="398.61596" xlink:href="#linear-gradient-6"/>
    <linearGradient id="linear-gradient-8" x1="-5560.42396" y1="327.85457" x2="-5461.64677" y2="327.85457" xlink:href="#linear-gradient-6"/>
    <linearGradient id="linear-gradient-9" x1="-5805.47938" y1="402.01695" x2="-5449.76874" y2="402.01695" gradientTransform="matrix(-1, 0, 0, 1, -4942.37864, 0)" gradientUnits="userSpaceOnUse">
      <stop offset="0" stop-color="#849bb2"/>
      <stop offset="1" stop-color="#5b6f82"/>
    </linearGradient>
    <linearGradient id="linear-gradient-10" x1="-5433.28669" y1="296.67046" x2="-5815.63331" y2="503.92955" xlink:href="#linear-gradient-6"/>
    <linearGradient id="linear-gradient-11" x1="-5785.1993" y1="353.26549" x2="-5550.09944" y2="587.74667" gradientTransform="matrix(-1, 0, 0, 1, -4942.37864, 0)" gradientUnits="userSpaceOnUse">
      <stop offset="0" stop-color="#435466"/>
      <stop offset="1" stop-color="#62778c"/>
    </linearGradient>
    <linearGradient id="linear-gradient-12" x1="-5688.72079" y1="256.53242" x2="-5453.62093" y2="491.0136" xlink:href="#linear-gradient-11"/>
    <linearGradient id="linear-gradient-13" x1="-5592.23034" y1="159.78738" x2="-5357.13048" y2="394.26856" xlink:href="#linear-gradient-11"/>
    <linearGradient id="linear-gradient-14" x1="-6008.0859" y1="141.42502" x2="-5436.75205" y2="141.42502" gradientTransform="matrix(-1, 0, 0, 1, -4942.37864, 0)" gradientUnits="userSpaceOnUse">
      <stop offset="0" stop-color="#5b6f82"/>
      <stop offset="1" stop-color="#849bb2"/>
    </linearGradient>
    <linearGradient id="linear-gradient-15" x1="-6008.0859" y1="249.77753" x2="-5436.75205" y2="249.77753" xlink:href="#linear-gradient-14"/>
    <linearGradient id="linear-gradient-16" x1="-6008.0859" y1="358.20222" x2="-5436.75205" y2="358.20222" xlink:href="#linear-gradient-14"/>
    <linearGradient id="linear-gradient-17" x1="-5772.36028" y1="353.71831" x2="-5796.48895" y2="649.75853" gradientTransform="matrix(-1, 0, 0, 1, -4942.37864, 0)" gradientUnits="userSpaceOnUse">
      <stop offset="0.00005" stop-color="#ffcb48"/>
      <stop offset="1" stop-color="#e68e2b"/>
    </linearGradient>
    <linearGradient id="linear-gradient-18" x1="-5495.18232" y1="187.77226" x2="-5415.99079" y2="481.0284" xlink:href="#linear-gradient-17"/>
    <linearGradient id="linear-gradient-19" x1="265.70593" y1="681.73452" x2="281.88695" y2="681.73452" gradientUnits="userSpaceOnUse">
      <stop offset="0" stop-color="#3e4c59"/>
      <stop offset="1" stop-color="#293440"/>
    </linearGradient>
    <linearGradient id="linear-gradient-20" x1="404.17837" y1="601.66721" x2="420.35939" y2="601.66721" xlink:href="#linear-gradient-19"/>
    <linearGradient id="linear-gradient-21" x1="-6962.94585" y1="566.29313" x2="-6770.25217" y2="684.27937" gradientTransform="matrix(-1, 0, 0, 1, -6576.59499, 0)" xlink:href="#linear-gradient-9"/>
    <linearGradient id="linear-gradient-22" x1="-7018.47945" y1="613.5619" x2="-6691.31456" y2="-37.17264" gradientTransform="matrix(-1, 0, 0, 1, -6576.59499, 0)" xlink:href="#linear-gradient-6"/>
    <linearGradient id="linear-gradient-23" x1="-7051.00217" y1="597.2107" x2="-6723.83729" y2="-53.52385" gradientTransform="matrix(-1, 0, 0, 1, -6576.59499, 0)" xlink:href="#linear-gradient-19"/>
    <linearGradient id="linear-gradient-24" x1="301.90312" y1="593.28737" x2="379.66046" y2="593.28737" xlink:href="#linear-gradient-4"/>
    <linearGradient id="linear-gradient-25" x1="-6988.44392" y1="360.64826" x2="-6727.68609" y2="360.64826" gradientTransform="matrix(-1, 0, 0, 1, -6576.59499, 0)" xlink:href="#linear-gradient-6"/>
    <linearGradient id="linear-gradient-26" x1="-7096.30523" y1="379.47785" x2="-7222.31771" y2="301.16168" gradientTransform="matrix(-1, 0, 0, 1, -6843.47493, 0)" xlink:href="#linear-gradient-9"/>
    <linearGradient id="linear-gradient-27" x1="347.05008" y1="313.20888" x2="301.09263" y2="354.7408" gradientTransform="matrix(1, 0, 0, 1, 0, 0)" xlink:href="#linear-gradient-17"/>
    <linearGradient id="linear-gradient-28" x1="363.62086" y1="495.97197" x2="363.62086" y2="393.05023" gradientUnits="userSpaceOnUse">
      <stop offset="0" stop-color="#19253d"/>
      <stop offset="0.99246" stop-color="#2e4973"/>
    </linearGradient>
    <linearGradient id="linear-gradient-29" x1="351.80978" y1="507.54429" x2="351.80978" y2="395.48988" xlink:href="#linear-gradient-4"/>
    <linearGradient id="linear-gradient-30" x1="328.47061" y1="516.16062" x2="328.47061" y2="413.23889" xlink:href="#linear-gradient-28"/>
    <linearGradient id="linear-gradient-31" x1="316.65952" y1="527.73294" x2="316.65952" y2="415.67854" xlink:href="#linear-gradient-4"/>
    <linearGradient id="linear-gradient-32" x1="347.89533" y1="638.45896" x2="347.89533" y2="299.61614" gradientTransform="matrix(1, 0, 0, 1, 0, 0)" xlink:href="#linear-gradient-6"/>
    <linearGradient id="linear-gradient-33" x1="-7085.08163" y1="682.75048" x2="-7085.08163" y2="298.34206" gradientTransform="matrix(-1, 0, 0, 1, -6843.47493, 0)" gradientUnits="userSpaceOnUse">
      <stop offset="0" stop-color="#293440"/>
      <stop offset="1" stop-color="#3e4c59"/>
    </linearGradient>
    <linearGradient id="linear-gradient-34" x1="-7005.97606" y1="290.26354" x2="-6698.04937" y2="290.26354" gradientTransform="matrix(-1, 0, 0, 1, -6576.59499, 0)" gradientUnits="userSpaceOnUse">
      <stop offset="0" stop-color="#62788c"/>
      <stop offset="1" stop-color="#526575"/>
    </linearGradient>
    <linearGradient id="linear-gradient-35" x1="-7085.07226" y1="312.49925" x2="-7233.87932" y2="220.01635" gradientTransform="matrix(-1, 0, 0, 1, -6843.47493, 0)" xlink:href="#linear-gradient-9"/>
    <linearGradient id="linear-gradient-36" x1="310.74033" y1="-32.31176" x2="582.37116" y2="685.86371" gradientTransform="matrix(1, 0, 0, 1, 0, 0)" xlink:href="#linear-gradient-34"/>
    <linearGradient id="linear-gradient-37" x1="312.16318" y1="-29.49852" x2="583.79397" y2="688.67683" gradientTransform="matrix(1, 0, 0, 1, 0, 0)" xlink:href="#linear-gradient-9"/>
    <linearGradient id="linear-gradient-38" x1="432.3183" y1="389.89834" x2="532.8351" y2="389.89834" gradientTransform="matrix(1, 0, 0, 1, 0, 0)" xlink:href="#linear-gradient-5"/>
    <linearGradient id="linear-gradient-39" x1="432.3183" y1="545.55546" x2="532.8351" y2="545.55546" xlink:href="#linear-gradient-19"/>
    <linearGradient id="linear-gradient-40" x1="130.88987" y1="750.00471" x2="149.27916" y2="750.00471" xlink:href="#linear-gradient-19"/>
    <linearGradient id="linear-gradient-41" x1="82.84468" y1="722.29377" x2="101.23397" y2="722.29377" xlink:href="#linear-gradient-19"/>
    <linearGradient id="linear-gradient-42" x1="208.38163" y1="704.94388" x2="226.77092" y2="704.94388" xlink:href="#linear-gradient-19"/>
    <linearGradient id="linear-gradient-43" x1="-5054.71257" y1="623.2986" x2="-4993.69488" y2="725.84545" gradientTransform="matrix(-1, 0, 0, 1, -4910.63394, 0)" xlink:href="#linear-gradient-19"/>
    <linearGradient id="linear-gradient-44" x1="-5180.84263" y1="491.53809" x2="-5052.77508" y2="722.61651" gradientTransform="matrix(-1, 0, 0, 1, -4910.63394, 0)" xlink:href="#linear-gradient-6"/>
    <linearGradient id="linear-gradient-45" x1="-5146.61347" y1="510.16499" x2="-5064.94721" y2="726.08565" gradientTransform="matrix(-1, 0, 0, 1, -4910.63394, 0)" xlink:href="#linear-gradient-9"/>
    <linearGradient id="linear-gradient-46" x1="-5163.57773" y1="516.58127" x2="-5081.91147" y2="732.50193" gradientTransform="matrix(-1, 0, 0, 1, -4910.63394, 0)" xlink:href="#linear-gradient-9"/>
    <linearGradient id="linear-gradient-47" x1="-5140.9679" y1="607.87529" x2="-4990.62534" y2="607.87529" gradientTransform="matrix(-1, 0, 0, 1, -4910.63394, 0)" xlink:href="#linear-gradient-34"/>
    <linearGradient id="linear-gradient-48" x1="-5140.96796" y1="583.012" x2="-4990.62539" y2="583.012" gradientTransform="matrix(-1, 0, 0, 1, -4910.63394, 0)" xlink:href="#linear-gradient-9"/>
    <linearGradient id="linear-gradient-49" x1="181.62308" y1="482.76002" x2="135.15499" y2="550.67492" gradientTransform="matrix(1, 0, 0, 1, 0, 0)" xlink:href="#linear-gradient-17"/>
    <linearGradient id="linear-gradient-50" x1="145.43925" y1="503.67996" x2="165.62443" y2="503.67996" xlink:href="#linear-gradient-19"/>
    <linearGradient id="linear-gradient-51" x1="145.43926" y1="499.14457" x2="165.62454" y2="499.14457" gradientTransform="matrix(1, 0, 0, 1, 0, 0)" xlink:href="#linear-gradient-6"/>
    <linearGradient id="linear-gradient-52" x1="864.72636" y1="178.71291" x2="691.61998" y2="511.9044" gradientUnits="userSpaceOnUse">
      <stop offset="0" stop-color="#c68b63"/>
      <stop offset="1" stop-color="#936657"/>
    </linearGradient>
    <linearGradient id="linear-gradient-53" x1="905.507" y1="168.26037" x2="894.61338" y2="240.771" gradientUnits="userSpaceOnUse">
      <stop offset="0.02147" stop-color="#bfb5af"/>
      <stop offset="0.60327" stop-color="#a59d98"/>
      <stop offset="0.96784" stop-color="#9b938e"/>
    </linearGradient>
    <linearGradient id="linear-gradient-54" x1="965.79722" y1="220.41176" x2="955.24403" y2="305.85857" xlink:href="#linear-gradient-53"/>
    <linearGradient id="linear-gradient-55" x1="962.92033" y1="316.9261" x2="954.06926" y2="369.69206" xlink:href="#linear-gradient-53"/>
    <linearGradient id="linear-gradient-56" x1="897.09494" y1="262.12412" x2="900.4992" y2="369.69858" xlink:href="#linear-gradient-53"/>
    <linearGradient id="linear-gradient-57" x1="945.07824" y1="360.76596" x2="945.07824" y2="413.87343" xlink:href="#linear-gradient-53"/>
    <linearGradient id="linear-gradient-58" x1="928.09632" y1="425.25571" x2="921.62824" y2="481.76634" xlink:href="#linear-gradient-53"/>
    <linearGradient id="linear-gradient-59" x1="901.81238" y1="148.70211" x2="799.17408" y2="737.72339" xlink:href="#linear-gradient-52"/>
    <linearGradient id="linear-gradient-60" x1="586.61702" y1="415.08145" x2="824.07261" y2="415.08145" gradientUnits="userSpaceOnUse">
      <stop offset="0" stop-color="#44332f"/>
      <stop offset="1" stop-color="#604840"/>
    </linearGradient>
    <linearGradient id="linear-gradient-61" x1="895.0424" y1="379.14894" x2="895.0424" y2="440.76596" xlink:href="#linear-gradient-53"/>
    <linearGradient id="linear-gradient-62" x1="587.56966" y1="216.54907" x2="693.98208" y2="216.54907" gradientUnits="userSpaceOnUse">
      <stop offset="0" stop-color="#f2973c"/>
      <stop offset="0.25523" stop-color="#ea8433"/>
      <stop offset="0.70599" stop-color="#de6825"/>
      <stop offset="0.96784" stop-color="#d95e20"/>
    </linearGradient>
    <linearGradient id="linear-gradient-63" x1="767.85789" y1="80.81288" x2="685.63147" y2="256.46388" xlink:href="#linear-gradient-62"/>
    <linearGradient id="linear-gradient-64" x1="783.97934" y1="170.50514" x2="724.35368" y2="262.8437" xlink:href="#linear-gradient-62"/>
    <linearGradient id="linear-gradient-65" x1="640.36463" y1="340.62495" x2="775.23771" y2="340.62495" gradientTransform="matrix(1, 0, 0, 1, 0, 0)" xlink:href="#linear-gradient-33"/>
    <linearGradient id="linear-gradient-66" x1="635.58109" y1="300.55168" x2="780.02125" y2="300.55168" gradientTransform="matrix(1, 0, 0, 1, 0, 0)" xlink:href="#linear-gradient-33"/>
    <linearGradient id="linear-gradient-67" x1="437.86518" y1="383.68569" x2="507.31199" y2="511.8559" gradientTransform="matrix(1, 0, 0, 1, 0, 0)" xlink:href="#linear-gradient-17"/>
    <linearGradient id="linear-gradient-68" x1="458.82357" y1="372.32975" x2="528.27038" y2="500.49996" gradientTransform="matrix(1, 0, 0, 1, 0, 0)" xlink:href="#linear-gradient-17"/>
    <linearGradient id="linear-gradient-69" x1="456.6177" y1="373.52496" x2="526.06451" y2="501.69517" gradientTransform="matrix(1, 0, 0, 1, 0, 0)" xlink:href="#linear-gradient-17"/>
    <linearGradient id="linear-gradient-70" x1="478.20626" y1="361.82757" x2="547.65307" y2="489.99779" gradientTransform="matrix(1, 0, 0, 1, 0, 0)" xlink:href="#linear-gradient-17"/>
    <linearGradient id="linear-gradient-71" x1="470.67419" y1="365.90869" x2="540.121" y2="494.07891" gradientTransform="matrix(1, 0, 0, 1, 0, 0)" xlink:href="#linear-gradient-17"/>
    <linearGradient id="linear-gradient-72" x1="389.86311" y1="477.23714" x2="519.01017" y2="477.23714" gradientTransform="matrix(1, 0, 0, 1, 0, 0)" xlink:href="#linear-gradient-5"/>
    <linearGradient id="linear-gradient-73" x1="450.51672" y1="338.12329" x2="469.75076" y2="404.67648" gradientUnits="userSpaceOnUse">
      <stop offset="0" stop-color="#cec7c4"/>
      <stop offset="1" stop-color="#b3a7a0"/>
    </linearGradient>
    <linearGradient id="linear-gradient-74" x1="475.62644" y1="330.86651" x2="494.86048" y2="397.4197" xlink:href="#linear-gradient-73"/>
    <linearGradient id="linear-gradient-75" x1="58.44041" y1="53.06002" x2="360.93217" y2="852.82991" gradientTransform="matrix(1, 0, 0, 1, 0, 0)" xlink:href="#linear-gradient-34"/>
    <linearGradient id="linear-gradient-76" x1="62.55873" y1="57.15493" x2="362.89785" y2="851.23337" gradientTransform="matrix(1, 0, 0, 1, 0, 0)" xlink:href="#linear-gradient-9"/>
    <linearGradient id="linear-gradient-77" x1="233.72936" y1="521.26334" x2="268.23677" y2="521.26334" gradientTransform="matrix(1, 0, 0, 1, 0, 0)" xlink:href="#linear-gradient-5"/>
    <linearGradient id="linear-gradient-78" x1="233.72936" y1="673.1864" x2="268.23677" y2="673.1864" xlink:href="#linear-gradient-19"/>
  </defs>
  <g>
    <g>
      <polygon class="cls-1" points="476.436 76.29 897.722 319.511 897.722 728.956 476.436 485.713 476.436 76.29"/>
      <polygon class="cls-2" points="476.452 76.29 55.165 319.511 55.165 728.956 476.452 485.713 476.452 76.29"/>
      <polygon class="cls-3" points="476.452 433.762 475.166 462.859 311.977 548.987 476.452 170.662 476.452 433.762"/>
    </g>
    <path class="cls-4" d="M62.435,741.55987l392.2106,226.43291a43.61721,43.61721,0,0,0,43.61686-.00064L890.453,741.55565a14.53908,14.53908,0,0,0,.00018-25.18217L498.24551,489.9199a43.61721,43.61721,0,0,0-43.61994.00055L62.43418,716.37768A14.53907,14.53907,0,0,0,62.435,741.55987Z"/>
    <path class="cls-5" d="M82.16557,726.91436l83.72156-48.32451a8.7051,8.7051,0,0,1,8.71373,0l53.559,30.97462a4.35255,4.35255,0,0,1,0,7.53634l-83.72156,48.3245a8.70508,8.70508,0,0,1-8.71372,0L82.16557,734.4507A4.35255,4.35255,0,0,1,82.16557,726.91436Z"/>
    <path class="cls-5" d="M425.39014,608.76426,362.96673,572.848a5.79466,5.79466,0,0,0-5.7903.00611L205.79668,660.37865a2.37638,2.37638,0,0,0,.00434,4.11705L268.22443,700.412a5.79468,5.79468,0,0,0,5.7903-.00611l151.37975-87.52452A2.37639,2.37639,0,0,0,425.39014,608.76426Z"/>
    <polygon class="cls-6" points="849.213 690.822 709.765 817.058 358.244 611.94 547.733 516.828 849.213 690.822"/>
    <path class="cls-7" d="M770.01948,713.47058,487.63484,876.5877a21.80859,21.80859,0,0,1-21.81445.00138L272.91467,765.19143a7.26954,7.26954,0,0,1,0-12.59052L555.379,589.48365a21.80861,21.80861,0,0,1,21.81542.00182L770.01977,700.88113A7.26954,7.26954,0,0,1,770.01948,713.47058Z"/>
    <g class="cls-8">
      <ellipse class="cls-9" cx="486.6935" cy="756.28093" rx="80.14409" ry="46.05982"/>
    </g>
  </g>
  <g>
    <g>
      <g>
        <g>
          <path class="cls-10" d="M875.00144,684.25313,499.06463,467.2161a7.14111,7.14111,0,0,1-3.57068-6.18445V119.77985L875.00144,338.89943Z"/>
          <path class="cls-11" d="M507.3901,140.395l11.878-6.85548L874.97876,338.9179V656.78857l-11.878,6.85548L507.3901,458.27762Z"/>
          <polygon class="cls-12" points="764.395 288.781 764.395 592.949 863.101 649.933 863.1 643.053 770.346 589.517 770.346 292.217 764.395 288.781"/>
          <polygon class="cls-13" points="641.86 218.031 641.878 522.214 740.58 579.2 740.58 572.321 647.829 518.786 647.829 221.458 641.86 218.031"/>
          <polygon class="cls-14" points="519.268 147.25 519.308 451.457 618.045 508.459 618.045 501.58 525.294 448.045 525.294 150.729 519.268 147.25"/>
          <polygon class="cls-15" points="507.39 140.395 507.396 458.283 863.1 663.639 863.101 649.933 519.268 451.434 519.268 147.25 507.39 140.395"/>
          <path class="cls-16" d="M495.494,119.77983V461.0317a7.14109,7.14109,0,0,0,3.57068,6.18445L875.00153,684.253V338.89943Zm245.08632,155.251v317.875L629.94717,529.03462V211.15349ZM863.09968,663.63887,752.4822,599.777V281.90268l110.61748,63.86813ZM507.39587,140.39493l110.64945,63.88666V522.16338L507.39587,458.283Z"/>
        </g>
        <polygon class="cls-17" points="752.482 599.777 764.395 592.949 764.395 288.781 752.482 281.903 752.482 599.777"/>
        <polygon class="cls-18" points="629.947 529.035 641.86 522.208 641.86 218.031 629.947 211.153 629.947 529.035"/>
      </g>
      <polygon class="cls-19" points="507.396 458.28 519.308 451.457 519.268 147.25 507.396 140.398 507.396 458.28"/>
    </g>
    <g>
      <circle class="cls-20" cx="489.4881" cy="141.42502" r="8.34757"/>
      <path class="cls-21" d="M490.52832,147.3242l367.35191,212.135,4.06721-7.04462L494.58187,140.2717l-.00185.00321a2.04854,2.04854,0,0,0-2.021.21531,6.35852,6.35852,0,0,0-2.88545,4.97707A1.99561,1.99561,0,0,0,490.52832,147.3242Z"/>
      <path class="cls-2" d="M498.52389,152.69675a5.48959,5.48959,0,0,0,2.62606,4.95242,4.94464,4.94464,0,0,0,2.5202.67,6.22187,6.22187,0,0,0,3.68371-1.30421l-3.895-2.256a1.21949,1.21949,0,0,1-.54647-.15878,1.391,1.391,0,0,1-.44061-.40533c-.67-.91652-.52883-2.69663.44061-4.37088.91652-1.58626,2.27365-2.57313,3.36616-2.57313a1.39192,1.39192,0,0,1,.75817.19384l4.37087,2.52042a5.7007,5.7007,0,0,0-2.60841-5.58731,5.16369,5.16369,0,0,0-2.52063-.65188,6.36594,6.36594,0,0,0-3.5955,1.19835,9.58174,9.58174,0,0,0-2.81969,3.13724,9.924,9.924,0,0,0-1.30421,3.87734C498.54153,152.18579,498.52389,152.45,498.52389,152.69675Z"/>
      <path class="cls-2" d="M520.58934,165.45025a5.4896,5.4896,0,0,0,2.626,4.95242,4.94468,4.94468,0,0,0,2.52021.67,6.22189,6.22189,0,0,0,3.68371-1.30421l-3.895-2.256a1.21949,1.21949,0,0,1-.54647-.15878,1.391,1.391,0,0,1-.44062-.40533c-.67-.91652-.52882-2.69663.44062-4.37088.91651-1.58627,2.27365-2.57313,3.36615-2.57313a1.3919,1.3919,0,0,1,.75817.19384l4.37088,2.52042a5.7007,5.7007,0,0,0-2.60841-5.58731,5.1637,5.1637,0,0,0-2.52064-.65188,6.36594,6.36594,0,0,0-3.5955,1.19835,9.58183,9.58183,0,0,0-2.81968,3.13724,9.92384,9.92384,0,0,0-1.30421,3.87734C520.607,164.93929,520.58934,165.20348,520.58934,165.45025Z"/>
      <path class="cls-2" d="M550.40125,182.68117a5.48958,5.48958,0,0,0,2.62606,4.95241,4.94464,4.94464,0,0,0,2.5202.67,6.22184,6.22184,0,0,0,3.68371-1.30421l-3.895-2.256a1.21949,1.21949,0,0,1-.54647-.15878,1.391,1.391,0,0,1-.44061-.40533c-.67-.91652-.52883-2.69663.44061-4.37088.91652-1.58626,2.27365-2.57313,3.36616-2.57313a1.39192,1.39192,0,0,1,.75817.19384l4.37088,2.52042a5.7007,5.7007,0,0,0-2.60842-5.5873,5.16359,5.16359,0,0,0-2.52063-.65189,6.36594,6.36594,0,0,0-3.5955,1.19835,9.58174,9.58174,0,0,0-2.81969,3.13724,9.924,9.924,0,0,0-1.30421,3.87734C550.41889,182.1702,550.40125,182.43439,550.40125,182.68117Z"/>
      <path class="cls-2" d="M851.86791,356.765a5.48956,5.48956,0,0,0,2.62606,4.95241,4.94468,4.94468,0,0,0,2.52021.67,6.22189,6.22189,0,0,0,3.6837-1.3042l-3.895-2.256a1.21941,1.21941,0,0,1-.54646-.15878,1.39076,1.39076,0,0,1-.44062-.40533c-.67-.91652-.52883-2.69662.44062-4.37088.91651-1.58626,2.27364-2.57313,3.36615-2.57313a1.3919,1.3919,0,0,1,.75817.19384l4.37088,2.52042a5.70068,5.70068,0,0,0-2.60842-5.5873,5.16359,5.16359,0,0,0-2.52063-.65189,6.36594,6.36594,0,0,0-3.5955,1.19835,9.58185,9.58185,0,0,0-2.81969,3.13724,9.92388,9.92388,0,0,0-1.3042,3.87734C851.88556,356.254,851.86791,356.5182,851.86791,356.765Z"/>
      <circle class="cls-22" cx="864.91546" cy="358.20222" r="8.34757"/>
    </g>
    <path class="cls-23" d="M856.79341,364.52033a20.20364,20.20364,0,0,1-11.58728,1.46247c-11.31426-2.02786-13.2745-14.983-13.2745-14.983s-6.44431,3.95938-11.40472,1.89982c-9.07878-3.76951-10.43062-15.6009-10.43062-15.6009,6.87818,60.99029,19.83226,122.66894,37.34928,184.86458-8.9803,41.46581-14.43513,89.00633-17.99965,139.804-1.2,13.42475,11.981,19.29338,21.37457,15.97471-1.1812,9.39355,15.97471,11.64351,15.97471,5.39991V529.33249Z"/>
    <path class="cls-24" d="M856.51214,528.92,819.6785,352.48089c.28184.1407.54991.29475.84853.41867C825.48741,354.95936,831.9314,351,831.9314,351s.01161.35026.09294.91845Z"/>
    <circle class="cls-2" cx="854.92904" cy="362.95759" r="2.81244"/>
    <path class="cls-2" d="M829.33025,343.74018a5.48956,5.48956,0,0,0,2.62606,4.95241,4.94464,4.94464,0,0,0,2.5202.67,6.22183,6.22183,0,0,0,3.68371-1.3042l-3.895-2.256a1.21949,1.21949,0,0,1-.54647-.15878,1.39073,1.39073,0,0,1-.44061-.40533c-.67-.91652-.52883-2.69662.44061-4.37088.91652-1.58626,2.27365-2.57313,3.36616-2.57313a1.392,1.392,0,0,1,.75817.19384l4.37088,2.52043a5.7007,5.7007,0,0,0-2.60842-5.58731,5.16359,5.16359,0,0,0-2.52063-.65189,6.36594,6.36594,0,0,0-3.5955,1.19835,9.58184,9.58184,0,0,0-2.81969,3.13724,9.92406,9.92406,0,0,0-1.30421,3.87734C829.34789,343.22921,829.33025,343.49341,829.33025,343.74018Z"/>
    <circle class="cls-2" cx="832.39138" cy="349.9328" r="2.81244"/>
    <path class="cls-2" d="M807.62153,331.20241a5.48956,5.48956,0,0,0,2.62606,4.95241,4.94465,4.94465,0,0,0,2.5202.67,6.22187,6.22187,0,0,0,3.68371-1.30421l-3.895-2.256a1.21949,1.21949,0,0,1-.54647-.15878,1.39087,1.39087,0,0,1-.44062-.40533c-.67-.91651-.52882-2.69662.44062-4.37088.91652-1.58626,2.27365-2.57313,3.36615-2.57313a1.3919,1.3919,0,0,1,.75817.19385l4.37088,2.52042a5.70069,5.70069,0,0,0-2.60841-5.58731,5.1636,5.1636,0,0,0-2.52064-.65189,6.366,6.366,0,0,0-3.59549,1.19836,9.58164,9.58164,0,0,0-2.81969,3.13724,9.92385,9.92385,0,0,0-1.30421,3.87733C807.63917,330.69144,807.62153,330.95564,807.62153,331.20241Z"/>
    <circle class="cls-2" cx="810.85207" cy="336.91857" r="2.81244"/>
    <path class="cls-25" d="M497.83567,464.40235V313.81906l5.74-153.74179c-.613,16.4199,13.03387,18.71862,20.51493,14.78118-.225,15.63719,18.79493,19.1126,29.37183,15.10022-8.01823,46.25471-17.50554,94.15244-34.91581,131.77329,7.96907,63.31794,10.70119,107.29,10.70119,162.75145,0,7.46231-19.68712,4.01238-19.68712-10.34984C502.642,477.846,497.83474,471.48988,497.83567,464.40235Z"/>
    <circle class="cls-2" cx="503.21125" cy="159.96474" r="2.81244"/>
    <circle class="cls-2" cx="553.46238" cy="188.87378" r="2.81244"/>
    <path class="cls-24" d="M501.40041,473.56905l5.36152-146.99514,2.7987,147.55968C506.259,475.9052,503.4473,475.36852,501.40041,473.56905Z"/>
    <path class="cls-24" d="M512.641,175.84979a15.30717,15.30717,0,0,0,11.44955-.99135l-17.32864,149.649Z"/>
    <circle class="cls-2" cx="524.22958" cy="172.78949" r="2.81244"/>
    <path class="cls-24" d="M857.19539,532.4449l-6.37493,145.4972-3.19974.7416a17.58912,17.58912,0,0,1-7.75123-.72493Z"/>
    <path class="cls-26" d="M867.969,528.592c-6.46117,4.80916-19.28592,2.053-22.91373-6.042"/>
    <path class="cls-26" d="M520.602,322.56155c-6.46118,4.80916-21.52458,2.625-25.108-6.33737"/>
  </g>
  <g>
    <g>
      <path class="cls-27" d="M228.06138,641.26574l-2.22914,14.91231c0,1.894-2.63368,3.42934-5.88247,3.42934s-5.88247-1.5353-5.88247-3.42934l-2.18694-14.91231Z"/>
      <path class="cls-28" d="M281.887,672.56369,279.65781,687.476c0,1.894-2.63367,3.42934-5.88247,3.42934s-5.88246-1.5353-5.88246-3.42934l-2.18695-14.91231Z"/>
      <path class="cls-29" d="M420.35939,592.49638l-2.22914,14.91231c0,1.894-2.63368,3.42934-5.88247,3.42934s-5.88247-1.5353-5.88247-3.42934l-2.18694-14.91231Z"/>
      <g>
        <polygon class="cls-30" points="281.894 588.275 281.894 667.734 413.897 591.404 345.027 551.768 281.894 588.275"/>
        <polygon class="cls-31" points="281.894 341.173 281.894 588.275 345.027 551.768 413.897 591.404 413.897 264.958 359.746 296.221 281.894 341.173"/>
        <polygon class="cls-32" points="345.027 551.768 413.897 591.404 413.897 264.958 345.027 304.719 345.027 551.768"/>
        <g>
          <path class="cls-33" d="M379.6154,590.939a5.74528,5.74528,0,0,1-2.866,5.717l-65.363,37.64818a17.46442,17.46442,0,0,1-9.48334,2.3258V567.29067l77.75734-17.36111Z"/>
          <path class="cls-9" d="M301.90312,567.29067V636.63a17.641,17.641,0,0,1-7.9678-2.31078L271.7725,621.51975a5.76371,5.76371,0,0,1-2.911-5.13187V574.67324Z"/>
          <path class="cls-34" d="M376.7537,544.80167l-22.15918-12.79361a17.44979,17.44979,0,0,0-17.45023.00025l-65.37258,37.649a5.8166,5.8166,0,0,0,.00067,10.07486l22.16869,12.796a17.44978,17.44978,0,0,0,17.44919-.00147L376.754,554.87612A5.8166,5.8166,0,0,0,376.7537,544.80167Z"/>
          <path class="cls-35" d="M378.22085,561.20654l-67.19036,38.70278a17.93711,17.93711,0,0,1-17.93672.00147l-22.78816-13.15352a6.00616,6.00616,0,0,1-1.44411-1.17055v3.89887l22.69007,13.097a21.02208,21.02208,0,0,0,21.02158-.00174l67.05372-38.6242.00421-3.88147A6.01782,6.01782,0,0,1,378.22085,561.20654Z"/>
        </g>
        <g>
          <path class="cls-36" d="M409.47332,318.73746v7.26305c.00053.02576.00053.051,0,.07675v.09644l-.0113-.00517a1.97854,1.97854,0,0,1-.989,1.61424L280.2819,401.90011a4.9069,4.9069,0,0,1-4.90329.00517l-52.86129-30.4145a1.9893,1.9893,0,0,1-1.00475-1.70985l-.004.00082V362.274Z"/>
          <path class="cls-37" d="M408.46933,316.93587l-52.86125-30.41452a4.907,4.907,0,0,0-4.90333.00518L222.51366,360.64385a2.01237,2.01237,0,0,0,.00368,3.4864l52.86126,30.41452a4.907,4.907,0,0,0,4.90333-.00518L408.473,320.42227A2.01237,2.01237,0,0,0,408.46933,316.93587Z"/>
          <g>
            <path class="cls-38" d="M370.33342,298.40348l-.00615,25.4441a2.22121,2.22121,0,0,1-1.11913,1.892l-12.8696,7.41823a6.7483,6.7483,0,0,1-6.74416-.00232l-11.9091-6.87572a2.20661,2.20661,0,0,1-1.09868-1.73969l-.02551-25.62267Z"/>
            <path class="cls-38" d="M356.33791,307.797l12.86966-7.41825a2.24941,2.24941,0,0,0,.00137-3.89689l-11.9091-6.87572a6.74824,6.74824,0,0,0-6.74413-.00237L337.686,297.022a2.24941,2.24941,0,0,0-.00137,3.89689l11.9091,6.87572A6.74824,6.74824,0,0,0,356.33791,307.797Z"/>
          </g>
          <g>
            <polygon class="cls-39" points="299.048 334.544 344.51 308.254 344.51 337.548 299.048 363.838 299.048 334.544"/>
            <polygon class="cls-40" points="283.904 355.078 283.904 325.783 299.048 334.544 299.048 363.838 283.904 355.078"/>
            <polygon class="cls-9" points="283.904 325.783 329.382 299.502 344.51 308.254 299.048 334.544 283.904 325.783"/>
          </g>
        </g>
        <g>
          <g>
            <path class="cls-38" d="M376.40291,355.99393a6.464,6.464,0,0,0-2.02971-3.469,2.35415,2.35415,0,0,0-2.591-.65126l-70.59258,40.72364,3.90146,6.75817,70.62714-40.74295-.00183-.00305A2.41865,2.41865,0,0,0,376.40291,355.99393Z"/>
            <g>
              <path class="cls-41" d="M356.56233,369.66257c6.06588.28979,19.3972,6.48344,23.21213,10.516,0,0-12.30059,15.03246-20.039,9.32019s-9.474-16.20443-9.474-16.20443"/>
              <path class="cls-41" d="M403.05045,409.37881c-7.356-7.29089-18.03186-21.22166-27.593-32.71129l-.27669-2.669a4.27629,4.27629,0,0,0-2.10749-3.23857l-4.06042-2.34349v-1.13108c0-.52888.25225-.85439.651-.86253.89507-.00815,3.621-.04068,3.621-4.11739a8.34063,8.34063,0,0,0-.31736-2.11563,10.50369,10.50369,0,0,0-4.58935-6.3551c-.00815-.00815-.00815-.01629-.01629-.01629-3.27924-1.90411-5.07756.00814-5.13453,2.791a.72765.72765,0,0,0,.01629.18714l1.87153-1.08221a1.655,1.655,0,0,1,1.41585-.81371,3.43948,3.43948,0,0,1,1.83086.55332,7.68231,7.68231,0,0,1,3.45019,5.40307,5.9073,5.9073,0,0,1,.04067.62652c0,2.71783-1.51354,3.084-2.83985,3.10025-.87882.01629-1.43214.73236-1.43214,1.87158v1.131l-2.57137-1.48906a1.88125,1.88125,0,0,0-2.791,1.32636l-.45567,2.83985c-2.376.14646-4.79279.34989-7.18511.537l-10.42366,6.00521c6.47717-.3336,12.7102-2.14007,18.17023-3.0189,3.32-.537,7.58381,1.9285,10.90378,6.29819,6.20864,8.16966,13.41,18.67468,20.83919,27.13732l-51.28838-29.611-3.84885,2.21332,30.87229,17.8203,35.08731,20.26148c.86254.61028,1.66.30107,1.66-.74051A11.84646,11.84646,0,0,0,403.05045,409.37881Z"/>
              <path class="cls-42" d="M356.56233,369.66257c-1.34909,16.03394,14.639,22.80446,22.5466,9.87459,3.67152,2.5123,23.1756,24.31551,27.44048,33.15273,3.26338,6.762,2.7656,35.18669,2.7656,35.18669-5.936,3.67551-14.1342,3.57832-17.72268,1.38129L381.739,514.10213,341.198,490.61463V414.44722s-23.41285-15.04977-23.29808-15.0944c.05666-.022,12.77649-14.75924,12.77649-14.75924l24.8972-14.36073Z"/>
              <path class="cls-43" d="M386.75887,445.59617l.6764-13.3024,0,0a14.12381,14.12381,0,0,0-5.69631,11.334l0,70.47437c2.55991,1.74662,9.8534.13421,9.8534-5.69629l-.00007-59.148A14.74223,14.74223,0,0,1,386.75887,445.59617Z"/>
            </g>
            <g>
              <path class="cls-40" d="M344.75124,376.435c6.06588.2898,19.3972,6.48345,23.21213,10.516,0,0-12.30059,15.03247-20.039,9.3202s-9.474-16.20443-9.474-16.20443"/>
              <path class="cls-41" d="M391.23937,416.15127c-7.356-7.29089-18.03187-21.22166-27.593-32.71129l-.27669-2.669a4.27626,4.27626,0,0,0-2.10749-3.23857l-4.06042-2.3435v-1.13107c0-.52888.25225-.85439.651-.86253.89507-.00815,3.621-.04068,3.621-4.11739a8.34121,8.34121,0,0,0-.31736-2.11564,10.50375,10.50375,0,0,0-4.58936-6.35509c-.00814-.00815-.00814-.01629-.01629-.01629-3.27924-1.90412-5.07756.00814-5.13453,2.791a.72754.72754,0,0,0,.01629.18713l1.87153-1.0822a1.655,1.655,0,0,1,1.41586-.81371,3.43945,3.43945,0,0,1,1.83085.55332,7.68228,7.68228,0,0,1,3.45019,5.40307,5.9073,5.9073,0,0,1,.04067.62652c0,2.71783-1.51354,3.084-2.83985,3.10025-.87882.01629-1.43214.73236-1.43214,1.87158v1.131l-2.57136-1.48906a1.88124,1.88124,0,0,0-2.791,1.32636l-.45568,2.83985c-2.376.14646-4.79278.34989-7.1851.537l-10.42367,6.00521c6.47718-.3336,12.7102-2.14007,18.17023-3.0189,3.32-.537,7.58382,1.9285,10.90378,6.29819,6.20864,8.16966,13.41,18.67468,20.83919,27.13732l-51.28838-29.611-3.84885,2.21332L357.991,404.41748,393.07837,424.679c.86253.61028,1.65995.30107,1.65995-.74051A11.84644,11.84644,0,0,0,391.23937,416.15127Z"/>
              <path class="cls-44" d="M344.75124,376.435c-1.34909,16.034,14.639,22.80446,22.5466,9.8746,3.67152,2.5123,23.1756,24.31551,27.44048,33.15273,3.26338,6.762,2.7656,35.18669,2.7656,35.18669-5.936,3.67551-14.1342,3.57832-17.72268,1.38129l-9.85338,64.84426-40.54093-23.4875V421.21967s-23.41284-15.04976-23.29808-15.09439c.05666-.022,12.7765-14.75924,12.7765-14.75924l24.8972-14.36073Z"/>
              <path class="cls-40" d="M374.82853,452.48788l.6764-13.3024,0,0a14.12381,14.12381,0,0,0-5.69631,11.334l-.00009,70.4744c2.4945,2.15864,9.66736-.08409,9.85341-5.6963l.00006-59.148A14.74223,14.74223,0,0,1,374.82853,452.48788Z"/>
            </g>
            <g>
              <path class="cls-45" d="M333.1258,383.17071c6.06588.28979,19.3972,6.48344,23.21212,10.516,0,0-12.30058,15.03246-20.039,9.32019s-9.474-16.20443-9.474-16.20443"/>
              <path class="cls-41" d="M379.61392,422.887c-7.356-7.29089-18.03186-21.22166-27.593-32.71129l-.27668-2.669a4.27628,4.27628,0,0,0-2.10749-3.23856l-4.06042-2.3435v-1.13108c0-.52888.25225-.85439.651-.86253.89506-.00815,3.621-.04068,3.621-4.11739a8.34063,8.34063,0,0,0-.31736-2.11563,10.50375,10.50375,0,0,0-4.58935-6.3551c-.00815-.00815-.00815-.01629-.01629-.01629-3.27924-1.90411-5.07757.00814-5.13453,2.791a.72761.72761,0,0,0,.01629.18714l1.87153-1.08221a1.655,1.655,0,0,1,1.41585-.81371,3.43948,3.43948,0,0,1,1.83086.55332,7.68227,7.68227,0,0,1,3.45018,5.40307,5.9048,5.9048,0,0,1,.04068.62652c0,2.71783-1.51354,3.084-2.83985,3.10025-.87883.01629-1.43215.73236-1.43215,1.87158v1.131l-2.57136-1.48906a1.88124,1.88124,0,0,0-2.791,1.32636l-.45568,2.83985c-2.376.14646-4.79278.34989-7.1851.537L320.71735,390.314c6.47717-.3336,12.71019-2.14007,18.17023-3.0189,3.32-.537,7.58381,1.9285,10.90378,6.29819,6.20863,8.16966,13.41,18.67468,20.83918,27.13732l-51.28837-29.611-3.84885,2.21332,30.87229,17.8203,35.08731,20.26148c.86254.61028,1.66.30107,1.66-.74051A11.84646,11.84646,0,0,0,379.61392,422.887Z"/>
              <path class="cls-46" d="M333.1258,383.17071c-1.34909,16.03394,14.639,22.80446,22.5466,9.87459,3.67152,2.5123,23.1756,24.31551,27.44048,33.15273,3.26337,6.762,2.7656,35.18669,2.7656,35.18669-5.936,3.67551-14.1342,3.57832-17.72268,1.38129l-9.85338,64.84426-40.54093-23.4875V427.95536s-23.41285-15.04976-23.29808-15.0944c.05666-.022,12.77649-14.75924,12.77649-14.75924L332.1371,383.741Z"/>
              <path class="cls-38" d="M363.32234,459.10431l.6764-13.3024,0,0c-3.584,2.66488-5.69631,10.98291-5.69631,15.449l.00005,66.35933c3.29283,1.8225,9.8534-.72957,9.8534-5.69629l-.00007-59.148A14.74223,14.74223,0,0,1,363.32234,459.10431Z"/>
            </g>
          </g>
          <g>
            <path class="cls-38" d="M341.25266,376.18259a6.464,6.464,0,0,0-2.02971-3.469,2.35415,2.35415,0,0,0-2.591-.65126L266.03936,412.786l3.90146,6.75818,70.62714-40.743-.00183-.00305A2.41865,2.41865,0,0,0,341.25266,376.18259Z"/>
            <g>
              <path class="cls-41" d="M321.41208,389.85122c6.06587.2898,19.39719,6.48344,23.21212,10.516,0,0-12.30058,15.03246-20.039,9.3202s-9.474-16.20444-9.474-16.20444"/>
              <path class="cls-41" d="M367.9002,429.56746c-7.356-7.29089-18.03187-21.22166-27.593-32.71129l-.27668-2.669a4.27631,4.27631,0,0,0-2.10749-3.23856l-4.06043-2.3435V387.474c0-.52889.25225-.85439.651-.86254.89506-.00814,3.621-.04067,3.621-4.11739a8.34108,8.34108,0,0,0-.31736-2.11563,10.50373,10.50373,0,0,0-4.58936-6.3551c-.00814-.00815-.00814-.01629-.01629-.01629-3.27923-1.90411-5.07756.00814-5.13452,2.791a.72761.72761,0,0,0,.01629.18714l1.87153-1.0822a1.65494,1.65494,0,0,1,1.41585-.81372,3.43954,3.43954,0,0,1,1.83085.55332,7.68229,7.68229,0,0,1,3.45019,5.40307,5.90482,5.90482,0,0,1,.04068.62653c0,2.71782-1.51355,3.084-2.83986,3.10024-.87882.01629-1.43214.73236-1.43214,1.87158v1.131l-2.57136-1.48906a1.88124,1.88124,0,0,0-2.791,1.32635l-.45568,2.83985c-2.376.14647-4.79278.34989-7.1851.537l-10.42367,6.00521c6.47718-.3336,12.7102-2.14007,18.17024-3.01889,3.32-.537,7.58381,1.92849,10.90377,6.29818,6.20864,8.16966,13.41,18.67468,20.83919,27.13732l-51.28838-29.611-3.84884,2.21333,30.87228,17.82029,35.08732,20.26148c.86253.61029,1.66.30107,1.66-.74051A11.84646,11.84646,0,0,0,367.9002,429.56746Z"/>
              <path class="cls-47" d="M321.41208,389.85122c-1.34909,16.03394,14.639,22.80446,22.5466,9.8746,3.67152,2.51229,23.17559,24.3155,27.44048,33.15272,3.26337,6.762,2.7656,35.18669,2.7656,35.18669-5.936,3.67551-14.13421,3.57832-17.72268,1.38129l-9.85338,64.84427-40.54094-23.4875V434.63587s-23.41284-15.04976-23.29808-15.09439c.05666-.022,12.7765-14.75925,12.7765-14.75925l24.8972-14.36073Z"/>
              <path class="cls-43" d="M351.60862,465.78482l.67639-13.30239h0a14.12381,14.12381,0,0,0-5.69631,11.334l-.00006,70.47439c3.097,2.14083,9.8534-.46924,9.8534-5.6963l0-59.148A14.742,14.742,0,0,1,351.60862,465.78482Z"/>
            </g>
            <g>
              <path class="cls-40" d="M309.601,396.62368c6.06588.2898,19.3972,6.48344,23.21212,10.516,0,0-12.30058,15.03246-20.039,9.32019s-9.474-16.20443-9.474-16.20443"/>
              <path class="cls-41" d="M356.08911,436.33992c-7.356-7.29089-18.03186-21.22166-27.593-32.71129l-.27668-2.669a4.27628,4.27628,0,0,0-2.10749-3.23856l-4.06042-2.3435v-1.13108c0-.52888.25225-.85439.651-.86253.89506-.00815,3.621-.04068,3.621-4.11739a8.34063,8.34063,0,0,0-.31736-2.11563,10.50375,10.50375,0,0,0-4.58935-6.3551c-.00815-.00815-.00815-.01629-.01629-.01629-3.27924-1.90411-5.07757.00814-5.13453,2.791a.72761.72761,0,0,0,.01629.18714l1.87153-1.08221a1.655,1.655,0,0,1,1.41585-.81371,3.43957,3.43957,0,0,1,1.83086.55332,7.68228,7.68228,0,0,1,3.45018,5.40307,5.9048,5.9048,0,0,1,.04068.62652c0,2.71783-1.51355,3.084-2.83985,3.10025-.87883.01629-1.43215.73236-1.43215,1.87158v1.131L318.048,393.0585a1.88124,1.88124,0,0,0-2.791,1.32636l-.45568,2.83985c-2.376.14646-4.79278.34989-7.1851.537L297.19254,403.767c6.47717-.3336,12.71019-2.14007,18.17023-3.01889,3.32-.537,7.58381,1.92849,10.90378,6.29818,6.20863,8.16966,13.41,18.67468,20.83918,27.13732l-51.28837-29.611-3.84885,2.21332,30.87229,17.8203,35.08731,20.26148c.86254.61028,1.66.30107,1.66-.74051A11.84646,11.84646,0,0,0,356.08911,436.33992Z"/>
              <path class="cls-48" d="M309.601,396.62368c-1.34909,16.03394,14.639,22.80446,22.5466,9.87459,3.67152,2.5123,23.1756,24.31551,27.44048,33.15273,3.26337,6.762,2.7656,35.18669,2.7656,35.18669-5.936,3.67551-14.1342,3.57832-17.72268,1.38129l-9.85338,64.84427-40.54093-23.48751V441.40833s-23.41285-15.04976-23.29808-15.0944c.05666-.022,12.77649-14.75924,12.77649-14.75924l24.8972-14.36073Z"/>
              <path class="cls-40" d="M339.67828,472.67653l.67639-13.30239h0a14.12381,14.12381,0,0,0-5.69631,11.334l0,70.47441c3.88769,1.94186,9.8534.43382,9.8534-5.69629l-.00005-59.148A14.742,14.742,0,0,1,339.67828,472.67653Z"/>
            </g>
            <g>
              <path class="cls-45" d="M297.97554,403.35936c6.06588.2898,19.3972,6.48344,23.21213,10.516,0,0-12.30059,15.03246-20.039,9.3202s-9.474-16.20444-9.474-16.20444"/>
              <path class="cls-41" d="M344.46367,443.0756c-7.356-7.29089-18.03187-21.22166-27.593-32.71129l-.27669-2.669a4.27627,4.27627,0,0,0-2.10748-3.23856l-4.06043-2.3435v-1.13107c0-.52889.25225-.85439.651-.86254.89507-.00814,3.621-.04067,3.621-4.11739a8.34108,8.34108,0,0,0-.31736-2.11563,10.50377,10.50377,0,0,0-4.58936-6.3551c-.00814-.00814-.00814-.01629-.01629-.01629-3.27924-1.90411-5.07756.00815-5.13453,2.791a.72761.72761,0,0,0,.01629.18714l1.87153-1.0822a1.655,1.655,0,0,1,1.41586-.81372,3.43963,3.43963,0,0,1,1.83085.55332,7.68229,7.68229,0,0,1,3.45019,5.40307,5.90746,5.90746,0,0,1,.04068.62653c0,2.71782-1.51355,3.084-2.83986,3.10024-.87882.01629-1.43214.73236-1.43214,1.87158v1.131l-2.57136-1.48906a1.88124,1.88124,0,0,0-2.791,1.32635l-.45568,2.83985c-2.376.14647-4.79278.3499-7.1851.537l-10.42367,6.00521c6.47718-.3336,12.7102-2.14007,18.17023-3.01889,3.32-.537,7.58382,1.92849,10.90378,6.29818,6.20864,8.16966,13.41,18.67468,20.83919,27.13732l-51.28838-29.611-3.84884,2.21333,30.87228,17.82029,35.08732,20.26148c.86253.61029,1.66.30107,1.66-.74051A11.84644,11.84644,0,0,0,344.46367,443.0756Z"/>
              <path class="cls-46" d="M297.97554,403.35936c-1.34908,16.03394,14.639,22.80446,22.5466,9.8746,3.67153,2.51229,23.1756,24.3155,27.44048,33.15272,3.26338,6.762,2.7656,35.18669,2.7656,35.18669-5.936,3.67551-14.1342,3.57832-17.72267,1.3813l-9.85339,64.84426-40.54093-23.4875V448.144s-23.41284-15.04976-23.29808-15.09439c.05666-.022,12.7765-14.75925,12.7765-14.75925l24.8972-14.36073Z"/>
              <path class="cls-38" d="M328.17209,479.293l.67639-13.30239h0c-3.584,2.66488-5.69632,10.98291-5.69632,15.449l0,66.35934c3.70975,1.84411,10.09974-.42434,9.8534-5.6963l0-59.148A14.742,14.742,0,0,1,328.17209,479.293Z"/>
            </g>
            <path class="cls-49" d="M328.85415,452.09762c-7.356-7.29089-18.03187-21.22166-27.593-32.71129l-.27668-2.669a4.27634,4.27634,0,0,0-2.10749-3.23857l-4.06042-2.34349v-1.13108c0-.52888.25224-.85439.651-.86253.89506-.00815,3.621-.04068,3.621-4.11739a8.34108,8.34108,0,0,0-.31736-2.11563,10.50373,10.50373,0,0,0-4.58935-6.3551c-.00815-.00815-.00815-.01629-.01629-.01629-3.27924-1.90411-5.07757.00814-5.13453,2.791a.72765.72765,0,0,0,.01629.18714l1.87153-1.08221a1.655,1.655,0,0,1,1.41585-.81371,3.4395,3.4395,0,0,1,1.83086.55332,7.68227,7.68227,0,0,1,3.45018,5.40307,5.9048,5.9048,0,0,1,.04068.62652c0,2.71783-1.51355,3.084-2.83985,3.10025-.87883.01629-1.43215.73236-1.43215,1.87158v1.131L290.813,408.8162a1.88124,1.88124,0,0,0-2.791,1.32636l-.45568,2.83985c-2.376.14646-4.79278.34989-7.1851.537l-10.42367,6.00521c6.47718-.3336,12.7102-2.14007,18.17024-3.0189,3.32-.537,7.58381,1.9285,10.90377,6.29819,6.20864,8.16966,13.41,18.67468,20.83919,27.13732l-51.28837-29.611-3.84885,2.21332,30.87228,17.8203,35.08732,20.26148c.86253.61028,1.66.30107,1.66-.74051A11.84646,11.84646,0,0,0,328.85415,452.09762Z"/>
          </g>
        </g>
      </g>
      <path class="cls-50" d="M273.9046,335.50037V682.75045a4.7108,4.7108,0,0,0,2.31787-.62295h.01465c.01442,0,.01442-.01442.02884-.01442l11.22731-6.49007,131.49544-76.026a5.83431,5.83431,0,0,0,2.89734-5.01245V249.94212ZM413.89662,591.404,281.89411,667.73425l.00015-79.45947V341.17271l77.85133-44.95219,54.151-31.26213Z"/>
      <path class="cls-51" d="M209.30864,298.34206V642.97015a5.82268,5.82268,0,0,0,2.91184,5.02683l48.02334,27.62609,11.28509,6.49a.05324.05324,0,0,0,.0435.01451l.01441.0145a4.69675,4.69675,0,0,0,2.31792.60841V335.5004Z"/>
      <path class="cls-52" d="M426.57574,240.77144v8.57688c.00062.03041.00062.06021,0,.09063v.11388l-.01335-.0061a2.33641,2.33641,0,0,1-1.16793,1.90624L274.01469,338.97751a5.79454,5.79454,0,0,1-5.79025.0061L205.801,303.06739a2.34916,2.34916,0,0,1-1.18651-2.01915l-.00477.001v-8.86584Z"/>
      <path class="cls-53" d="M425.39014,238.644l-62.42341-35.91625a5.79466,5.79466,0,0,0-5.7903.00611L205.79668,290.25834a2.37639,2.37639,0,0,0,.00434,4.11706l62.42341,35.91624a5.79466,5.79466,0,0,0,5.7903-.00611L425.39448,242.761A2.37638,2.37638,0,0,0,425.39014,238.644Z"/>
    </g>
    <path class="cls-54" d="M541.08083,249.01152l.00277.02906a3.20372,3.20372,0,0,0-3.02135-1.45422L423.1176,259.57129a3.21839,3.21839,0,0,0-2.88458,3.20105V585.8894a3.17931,3.17931,0,0,0,.51025,1.712l-.02463-.01176,1.71844,2.82768.67553-1.32909a3.243,3.243,0,0,0,.67253.00222l114.94465-11.98493a3.2184,3.2184,0,0,0,2.88459-3.20105V251.818l1.0733-.14764Z"/>
    <path class="cls-55" d="M421.886,265.49846V588.61553a3.21839,3.21839,0,0,0,3.55215,3.201l114.94462-11.98492a3.21839,3.21839,0,0,0,2.88463-3.201V253.51354a3.21838,3.21838,0,0,0-3.55215-3.201L424.77063,262.29743A3.21838,3.21838,0,0,0,421.886,265.49846Z"/>
    <path class="cls-56" d="M432.3183,277.07856V512.64291a2.66517,2.66517,0,0,0,2.94156,2.6508l95.18646-9.9248a2.66517,2.66517,0,0,0,2.38878-2.6508V267.15376a2.66517,2.66517,0,0,0-2.94156-2.6508l-95.18646,9.9248A2.66517,2.66517,0,0,0,432.3183,277.07856Z"/>
    <path class="cls-57" d="M432.3183,529.10119v42.83334a2.66517,2.66517,0,0,0,2.94156,2.6508l95.18646-9.9248a2.66517,2.66517,0,0,0,2.38878-2.6508V519.17639a2.66516,2.66516,0,0,0-2.94156-2.65079l-95.18646,9.92479A2.66518,2.66518,0,0,0,432.3183,529.10119Z"/>
  </g>
  <g>
    <path class="cls-58" d="M149.27916,739.26232l-2.3607,17.56c0,2.16758-3.05751,3.92472-6.82909,3.92472s-6.82892-1.75714-6.82892-3.92472l-2.37058-17.56Z"/>
    <path class="cls-59" d="M101.234,711.55139l-2.3607,17.56c0,2.16758-3.05751,3.92472-6.82909,3.92472s-6.82892-1.75714-6.82892-3.92472l-2.37058-17.56Z"/>
    <path class="cls-60" d="M226.77092,694.2015l-2.36069,17.56c0,2.16758-3.05752,3.92472-6.8291,3.92472s-6.82892-1.75714-6.82892-3.92472l-2.37058-17.56Z"/>
    <path class="cls-61" d="M80.92766,606.24048V717.84819a4.298,4.298,0,0,0,2.14621,3.73808l52.70031,30.47033a8.597,8.597,0,0,0,4.31033,1.14472V589.86779Z"/>
    <path class="cls-62" d="M140.08451,589.86779V753.20132a8.5974,8.5974,0,0,0,4.31077-1.14472L227.24,704.23638a4.27882,4.27882,0,0,0,2.16433-3.73808V588.89059Z"/>
    <polygon class="cls-63" points="219.741 604.523 219.741 646.328 149.747 686.732 149.747 644.927 219.741 604.523"/>
    <polygon class="cls-64" points="219.741 655.784 219.741 697.605 149.747 738.009 149.747 696.188 219.741 655.784"/>
    <path class="cls-65" d="M230.334,574.337v13.81514a4.312,4.312,0,0,1-2.1741,3.76818l-83.72143,48.32458a8.70546,8.70546,0,0,1-8.71382,0l-53.5591-30.97469a4.312,4.312,0,0,1-2.1741-3.76818V591.68687Z"/>
    <path class="cls-66" d="M82.16557,587.91878l83.72156-48.32451a8.7051,8.7051,0,0,1,8.71373,0l53.559,30.97461a4.35255,4.35255,0,0,1,0,7.53634l-83.72156,48.32451a8.70508,8.70508,0,0,1-8.71372,0L82.16557,595.45511A4.35254,4.35254,0,0,1,82.16557,587.91878Z"/>
  </g>
  <g>
    <g>
      <g>
        <path class="cls-38" d="M177.15082,576.48621c-2.31681-5.65283-11.10485-9.86437-21.619-9.86437s-19.30221,4.21154-21.61894,9.86437H133.296v2.95338c0,7.07906,9.95528,12.81775,22.23582,12.81775s22.23592-5.73869,22.23592-12.81775v-2.95338Z"/>
        <ellipse class="cls-46" cx="155.53184" cy="576.05119" rx="22.23588" ry="12.81779"/>
        <path class="cls-38" d="M172.3636,572.76056h.01242l-.02618-.15529-.004-.02485-1.88305-11.2597H140.60109l-1.87063,11.21178c-.008.04393-.01464.08808-.02174.13223l-.016.09583h.00754a5.71224,5.71224,0,0,0-.07276.8275c0,5.3816,7.56858,9.744,16.90442,9.744s16.904-4.36243,16.904-9.744A5.71191,5.71191,0,0,0,172.3636,572.76056Z"/>
        <ellipse class="cls-46" cx="155.53184" cy="561.53918" rx="14.93093" ry="8.60688"/>
      </g>
      <path class="cls-67" d="M152.10576,537.40509v22.546c0,1.09073,1.5339,1.97494,3.42607,1.97494s3.42609-.88421,3.42609-1.97494v-22.546Z"/>
    </g>
    <g>
      <path class="cls-68" d="M189.73968,534.5653h.00179l-.00554-.028a11.81312,11.81312,0,0,0-.31745-1.6175l-6.90543-41.60024H128.54564l-6.90738,41.62322a11.8071,11.8071,0,0,0-.30507,1.555l-.01336.06755h.00424a11.54214,11.54214,0,0,0-.10169,1.44638c0,10.89006,15.361,19.71813,34.30941,19.71813,18.94878,0,34.30974-8.82807,34.30974-19.71813A11.51205,11.51205,0,0,0,189.73968,534.5653Z"/>
      <ellipse class="cls-9" cx="155.5319" cy="492.64939" rx="27.08493" ry="15.56605"/>
      <path class="cls-69" d="M145.43925,507.0868a45.69117,45.69117,0,0,0,20.18518,0v-7.94229H145.43925Z"/>
      <ellipse class="cls-70" cx="155.5319" cy="499.14457" rx="10.09264" ry="5.81787"/>
      <path class="cls-34" d="M155.53189,478.41831c14.19857,0,25.74982,6.384,25.74982,14.231s-11.55125,14.23115-25.74982,14.23115-25.74982-6.38412-25.74982-14.23115,11.55125-14.231,25.74982-14.231m0-1.335c-14.95853,0-27.08492,6.96917-27.08492,15.566,0,8.597,12.12639,15.56614,27.08492,15.56614s27.08492-6.96918,27.08492-15.56614c0-8.59686-12.1264-15.566-27.08492-15.566Z"/>
    </g>
  </g>
  <g>
    <g>
      <circle class="cls-71" cx="780.91633" cy="340.04253" r="201.18409"/>
      <path class="cls-72" d="M982.09405,340.04118c0,111.11487-90.06965,201.1844-201.1843,201.1844a200.63394,200.63394,0,0,1-145.31794-62.0637q-4.11639-4.27995-7.96037-8.81427a200.54981,200.54981,0,0,1-38.56483-69.58769q-1.39032-4.36166-2.56235-8.79608a200.5723,200.5723,0,0,1-6.77881-51.92266q0-8.94162.78136-17.665c.23649-2.96235.56349-5.88831.96326-8.81427a199.62967,199.62967,0,0,1,22.62634-69.58758c1.63591-2.98054,3.326-5.9065,5.107-8.79619a201.88093,201.88093,0,0,1,71.4774-69.60578q8.34195-4.79792,17.13825-8.79618a200.17192,200.17192,0,0,1,83.09073-17.91938C892.0244,138.85677,982.09405,228.9263,982.09405,340.04118Z"/>
      <polygon class="cls-73" points="851.057 212.866 798.512 214.567 851.057 218.031 851.057 212.866"/>
      <polygon class="cls-73" points="851.057 495.351 717.929 500.399 851.057 503.802 851.057 495.351"/>
      <polygon class="cls-73" points="581.586 275.192 707.801 277.582 579.725 282.068 581.586 275.192"/>
      <polygon class="cls-73" points="851.057 334.769 721.158 336.919 851.057 342.066 851.057 334.769"/>
      <path class="cls-73" d="M851.05651,151.43359v5.34256H697.819q-8.80518,3.98013-17.13825,8.79618H851.05651v69.60578H609.20337c-1.781,2.88969-3.471,5.81565-5.107,8.79619h246.9601v69.58758H581.47007c-.39977,2.926-.72677,5.85192-.96326,8.81427h270.5497v69.58769H586.50426q1.172,4.44353,2.56235,8.79608h261.9899v69.58769H627.63144q3.8442,4.52522,7.96037,8.81427h215.4647v49.48955q4.45848-1.65872,8.81626-3.51775V154.95133Q855.51677,153.09062,851.05651,151.43359Z"/>
      <path class="cls-74" d="M859.87277,154.95122V525.13379a201.25727,201.25727,0,0,0,0-370.18257Z"/>
      <path class="cls-75" d="M884.77506,243.886l18.19376,8.02532a10.24426,10.24426,0,0,0,11.51813-2.27182l3.49865-3.6379a31.57914,31.57914,0,0,0,8.50818-17.47769l3.20074-22.68354A10.24429,10.24429,0,0,0,926.843,197.214l-28.62265-29.00943a10.2442,10.2442,0,0,0-5.15489-2.82381l-2.01862-.43064A10.24426,10.24426,0,0,0,878.66522,174.969V234.5131A10.24426,10.24426,0,0,0,884.77506,243.886Z"/>
      <path class="cls-76" d="M899.87786,245.26043a10.244,10.244,0,0,0,11.51794-2.27184l3.49877-3.63787a31.57873,31.57873,0,0,0,8.50812-17.47768l3.20083-22.68358a10.23324,10.23324,0,0,0,.06522-2.15215l-28.44853-28.83278a10.24424,10.24424,0,0,0-5.15487-2.8238l-2.01838-.4306a10.24436,10.24436,0,0,0-12.38182,10.01879v59.54417c0,.23549.0355.4641.05125.69671a10.18819,10.18819,0,0,0,2.96767,2.02537Z"/>
      <path class="cls-75" d="M935.14352,235.84465l-2.65359,17.43788a10.24448,10.24448,0,0,0-.00637,3.03987l4.46159,30.16884a22.14733,22.14733,0,0,0,13.1784,17.11381l17.16064,7.36094a10.24425,10.24425,0,0,0,14.2678-8.86372l.43855-8.14216a10.24436,10.24436,0,0,0-.56932-3.96081l-8.95363-25.36581a10.24485,10.24485,0,0,0-.75488-1.65393l-17.13908-30.14113a10.2445,10.2445,0,0,0-.78539-1.18227l-.39721-.51638A10.24426,10.24426,0,0,0,935.14352,235.84465Z"/>
      <path class="cls-77" d="M972.46761,264.63347a10.23933,10.23933,0,0,0-.755-1.65388l-17.13891-30.14124a10.28754,10.28754,0,0,0-.78535-1.18223l-.39733-.51635a10.20731,10.20731,0,0,0-14.01817-2.12054l-2.56257,16.83908a10.25124,10.25124,0,0,0-.00621,3.03988l4.46137,30.16886A22.14794,22.14794,0,0,0,954.444,296.18079l17.16065,7.36093a10.16954,10.16954,0,0,0,9.90022-1.03381c.01264-.13644.03971-.26722.047-.40565l.43882-8.14218a10.245,10.245,0,0,0-.56949-3.96077Z"/>
      <path class="cls-75" d="M939.46272,329.54762l.58171,13.37939a10.24426,10.24426,0,0,0,5.51063,8.64506l22.34164,11.61062a10.24426,10.24426,0,0,0,14.69794-6.7524l.70214-2.9958a10.24428,10.24428,0,0,0-1.1252-7.49944l-9.23144-15.82532a10.24428,10.24428,0,0,0-4.81336-4.25417l-14.39406-6.16888A10.24426,10.24426,0,0,0,939.46272,329.54762Z"/>
      <path class="cls-78" d="M942.13218,329.98739l.45429,10.44852a8.00018,8.00018,0,0,0,4.30347,6.75129l17.44753,9.06722a8.00017,8.00017,0,0,0,11.47823-5.27323l.54833-2.33955a8.00016,8.00016,0,0,0-.87872-5.85662l-7.20921-12.35865a8.00012,8.00012,0,0,0-3.759-3.32226l-11.24092-4.81754A8.00017,8.00017,0,0,0,942.13218,329.98739Z"/>
      <path class="cls-75" d="M877.3845,359.59169l9.56586,8.44575a18.50273,18.50273,0,0,0,24.29089.17521l11.15161-9.56312a19.7482,19.7482,0,0,0,6.75183-17.34527l-6.48694-54.02362a24.05132,24.05132,0,0,0-14.60517-19.32377l-17.69371-7.39494a10.24426,10.24426,0,0,0-14.19078,9.1714l-2.24379,81.89838A10.24426,10.24426,0,0,0,877.3845,359.59169Z"/>
      <path class="cls-79" d="M925.264,332.97748l-6.48686-54.02357a24.05737,24.05737,0,0,0-.544-2.92829,24.02385,24.02385,0,0,0-10.18063-8.06875l-17.69376-7.395a10.24433,10.24433,0,0,0-14.19077,9.17145l-2.24377,81.89829.00022.00466,9.14526,8.0744a18.50274,18.50274,0,0,0,24.29087.17515l11.15167-9.56311A19.74864,19.74864,0,0,0,925.264,332.97748Z"/>
      <path class="cls-75" d="M917.82062,393.58475l10.9732,17.48273a10.24426,10.24426,0,0,0,9.93331,4.72086l16.73859-2.06881a10.24428,10.24428,0,0,0,6.93882-4.02034l9.45-12.6A10.24425,10.24425,0,0,0,972.914,386.5605l-3.77564-7.95582a10.24425,10.24425,0,0,0-7.35183-5.67376l-25.618-4.84343a10.24424,10.24424,0,0,0-9.98873,3.77567l-7.76812,9.9853A10.24425,10.24425,0,0,0,917.82062,393.58475Z"/>
      <path class="cls-80" d="M921.4961,390.12255l9.49355,15.12532a8.86288,8.86288,0,0,0,8.59388,4.08429l14.48152-1.78985a8.86289,8.86289,0,0,0,6.00317-3.47823l8.17572-10.90095a8.86291,8.86291,0,0,0,.91665-9.11766l-3.26653-6.883a8.86286,8.86286,0,0,0-6.36049-4.9087L937.37,368.0634a8.8629,8.8629,0,0,0-8.64182,3.26655l-6.72065,8.63886A8.86291,8.86291,0,0,0,921.4961,390.12255Z"/>
      <path class="cls-75" d="M897.37,484.29351l4.06594-25.267a10.2443,10.2443,0,0,1,2.71574-5.45822l16.03157-16.73885a10.24425,10.24425,0,0,1,6.83016-3.14269l14.52049-.8067a10.24426,10.24426,0,0,1,9.09984,15.89918l-22.069,33.20286a10.24408,10.24408,0,0,1-2.30327,2.46274l-12.549,9.60964A10.24426,10.24426,0,0,1,897.37,484.29351Z"/>
      <path class="cls-81" d="M899.32737,479.75283l3.63972-22.61823a9.17032,9.17032,0,0,1,2.43105-4.886l14.351-14.98413a9.17038,9.17038,0,0,1,6.11415-2.81325l12.99832-.72212a9.17036,9.17036,0,0,1,8.14591,14.23248L927.252,477.68375a9.17,9.17,0,0,1-2.06182,2.20458l-11.23354,8.60226A9.17036,9.17036,0,0,1,899.32737,479.75283Z"/>
      <path class="cls-82" d="M857.32284,526.19434a200.40263,200.40263,0,0,0,24.38871-12.00922V165.89989a200.40409,200.40409,0,0,0-24.38871-12.00922Z"/>
    </g>
    <g>
      <polygon class="cls-83" points="826.27 440.84 792.26 543.156 683.894 526.194 619.298 460.681 826.27 440.84"/>
      <path class="cls-84" d="M811.44678,444.46852v2.99682A17.12163,17.12163,0,0,1,794.32515,464.587H625.266c-5.36164-6.379-9.57-13.10327-14.09479-20.11845Z"/>
      <polygon class="cls-84" points="792.26 543.156 772.307 543.156 765.038 439.372 799.529 439.372 792.26 543.156"/>
      <path class="cls-85" d="M830.20186,398.5769V431.586a12.88251,12.88251,0,0,1-12.88251,12.88251H611.17117a199.8611,199.8611,0,0,1-25.77082-58.77413h231.919A12.88251,12.88251,0,0,1,830.20186,398.5769Z"/>
    </g>
    <path class="cls-75" d="M899.50741,444.68138l12.36283-13.48673a10.24424,10.24424,0,0,0,1.87511-10.93254L905.67774,401.298a10.24428,10.24428,0,0,0-3.98675-4.67029l-19.97944-12.52079v77.95416l17.39713-16.96841Q899.31376,444.89264,899.50741,444.68138Z"/>
    <path class="cls-86" d="M896.15434,433.268l10.03343-10.94557a8.314,8.314,0,0,0,1.5218-8.87265l-6.54752-15.39092a8.314,8.314,0,0,0-3.23556-3.79031l-16.21494-10.16164V447.373l14.11918-13.77124Q895.99717,433.43946,896.15434,433.268Z"/>
    <path class="cls-87" d="M780.91632,140.71045a198.6546,198.6546,0,1,1-77.58362,15.65723,198.06084,198.06084,0,0,1,77.58362-15.65723m0-18.17383c-120.1253,0-217.5061,97.38037-217.5061,217.50586s97.3808,217.50635,217.5061,217.50635S998.42243,460.168,998.42243,340.04248s-97.3808-217.50586-217.50611-217.50586Z"/>
    <g>
      <g>
        <path class="cls-88" d="M693.95706,280.10813C644.54783,243.332,586.20728,211.15779,587.59392,159.03371c0,0,62.15119-21.654,85.069,17.01377S693.95706,280.10813,693.95706,280.10813Z"/>
        <path class="cls-89" d="M703.75721,275.19157c35.57432-75.22663,84.75969-114.45652,91.41054-180.32851,0,0-55.68155-26.91274-92.54806,33.77483C678.46534,168.39943,703.75721,275.19157,703.75721,275.19157Z"/>
        <path class="cls-90" d="M723.4351,286.01853c39.48375-32.71291,70.03906-66.20539,78.61883-105.45862,0,0-47.96577-13.97072-69.18713,17.32316S723.4351,286.01853,723.4351,286.01853Z"/>
        <path class="cls-91" d="M612.50134,169.706c41.14248,14.22973,72.49595,75.87255,86.61572,127.44892"/>
        <path class="cls-91" d="M768.719,108.76561c-40.83313,23.879-58.15628,70.53-66.81785,185.14114"/>
        <path class="cls-91" d="M782.35527,190.01469c-39.3555,22.59994-52.47845,57.09811-61.19755,105.98012"/>
      </g>
      <g>
        <polygon class="cls-83" points="637.524 293.907 587.57 386.666 664.235 386.666 637.524 293.907"/>
        <path class="cls-92" d="M751.367,386.26638H664.23533a10.93554,10.93554,0,0,1-10.79942-9.21547l-13.07128-82.06739H775.23771l-13.07128,82.06739A10.93555,10.93555,0,0,1,751.367,386.26638Z"/>
        <polygon class="cls-93" points="770.52 324.603 773.181 307.899 642.421 307.899 645.082 324.603 770.52 324.603"/>
        <rect class="cls-94" x="635.58109" y="288.178" width="144.44016" height="24.74735" rx="12.37366"/>
      </g>
    </g>
  </g>
  <g>
    <g>
      <g>
        <path class="cls-95" d="M473.05531,720.99748s6.13486,14.60331,3.69627,18.87448-7.689,4.56992-14.41323,7.20661-12.39739,6.69784-23.86607,5.42837-11.76447-8.13133-8.48118-13.05226l7.24-.61224,9.66452-4.11807,10.95689-10.0498Z"/>
        <path class="cls-96" d="M474.87548,718.33332s3.91334,14.33059,1.547,18.47516-7.46107,4.43448-13.986,6.993-12.02994,6.49932-23.15871,5.26747-12.94162-10.67116-5.4491-12.44212l4.24468-.81737,8.27709-5.80565,11.84408-9.9228Z"/>
        <path class="cls-95" d="M434.19452,735.52784c-14,8.21276,1.65958,18.29787,15.45561,13.77379l16.84435-6.91654c-.28759-11.05439-12.51063-19.05319-16.69747-16.16364Z"/>
      </g>
      <path class="cls-96" d="M437.09588,533.97621C434.867,611.91832,458.19452,720.081,458.19452,720.081c.587,7.80671,16.72341-1.02128,16.72341-1.02128s3.00283-61.16687,1.151-83.97254l6.22331-79.19611Z"/>
      <path class="cls-95" d="M482.29216,555.89113l-45.19629-21.915c-.81787,28.60351.253,73.221,3.88693,106.4125,3.43408,31.36593,10.04256,66.55319,10.04256,66.55319,1.10638,7.74468,26.7234,7.25532,26.7234-3.40425.20093-25.2815-.12766-59.82979-.12766-59.82979Z"/>
      <path class="cls-97" d="M481.17534,381.15732s-13.155-2.44631-22.85107,1.16394c-12,4.46808-26.75977,21.14781-26.75977,21.14781l-17.24631-18.19-5.06532,4.9952,9.34371,38.84246a11.1906,11.1906,0,0,0,18.46119,6.77942L454.43,426.80492Z"/>
      <g>
        <path class="cls-95" d="M521.41243,752.81763s1.65824,7.95879,1.23826,11.823c-.53071,4.88306-1.63273,7.463-1.65114,10.66637-.04953,8.619-3.31743,15.909-9.50508,19.42376-12.58482,7.14849-19.10085-3.66447-16.9457-10.64886l4.04083-7.96052,7.15989-23.37478Z"/>
        <path class="cls-96" d="M521.41243,749.053s1.07118,10.23252.58841,14.08939c-.605,4.83353-1.91266,8.812-2.35522,12.0325s-.13209,10.23706-6.27021,14.29668c-12.072,7.98413-21.96428.23334-18.13364-7.3619l3.34783-9.75291,7.15989-23.37478Z"/>
        <path class="cls-95" d="M494.94505,782.76818c-5.09095,14.30978,20.07422,16.78784,22.50684,4.43067a58.5105,58.5105,0,0,0,3.31922-14.80862c-2.57251-10.97412-18.5398-11.79764-20.58237-5.47323Z"/>
      </g>
      <path class="cls-96" d="M522.37247,554.55662s1.86669,46.74336,1.82414,94.44549c4.46809,38.55319-2.07076,80.46808-2.78418,100.05092-.33686,6.921-14.51751,9.30283-15.6629-.071-12.74536-80.23486-25.30542-159.459-31.1189-201.89672Z"/>
      <path class="cls-98" d="M524.919,649.00561c.0127-14.38843.828-77.80851-.421-103.73216-1.19315-24.76437-6.93384-52.03711-6.93384-52.03711L444.039,483.396l-1.56518,50.58008,29.65794,31.85931s19.863,122.99949,27.53192,171.27659c1.14526,9.374,24.25883,6.6812,24.59574-.23994C525.226,717.08633,527.919,687.36731,524.919,649.00561Z"/>
      <path class="cls-99" d="M493.20054,384.72894c-19.44879-9.48721-43.491-2.60935-45.364,25.14056l-4.20109,78.99033c0,12.10009,5.81912,21.3958,13.62046,28.1355,15.97383,13.8,64.76586,9.06383,63.67513-6.383l-5.88331-35.26982,12.91869-57.54365C522.553,402.52509,505.23416,390.599,493.20054,384.72894Z"/>
      <path class="cls-100" d="M493.20054,384.72894c-19.44879-9.48721-43.491-2.60935-45.364,25.14056l-4.20109,78.99033c0,12.10009,5.81912,21.3958,13.62046,28.1355,15.97383,13.8,64.76586,9.06383,63.67513-6.383l-5.88331-35.26982,12.91869-57.54365C522.553,402.52509,505.23416,390.599,493.20054,384.72894Z"/>
      <path class="cls-96" d="M502.98332,390.24757a96.95254,96.95254,0,0,0-9.78272-5.51855c-8.04614-3.925-16.875-5.03931-24.59838-3.04322-7.05518,8.11011-6.21949,14.09107,3.01806,19.18335C483.184,407.24391,503.05363,400.86085,502.98332,390.24757Z"/>
      <path class="cls-101" d="M454.77751,390.4441l9.95,7.65723c2.82153-6.93286,6.7915-12.89233,12.50879-17.37109C468.538,380.52272,460.32365,383.638,454.77751,390.4441Z"/>
      <path class="cls-102" d="M515.04777,475.34254l12.9187-57.5437c-4.48266-12.6477-15.4092-22.02727-25.56883-27.92188-18.73218,6.74365-27.51255,36.63939-26.89436,79.70312L487.2594,518.4737c14.4856.55078,36.31915-6.06383,33.606-18.383Z"/>
      <path class="cls-103" d="M539.01115,471.24147s-4.24111-33.15075-11.04468-53.44263c-5.41686-16.156-29.74072,1.65967-24.51611,21.57446l4.51392,13.49951C509.32048,458.502,539.01115,471.24147,539.01115,471.24147Z"/>
      <path class="cls-104" d="M539.01106,471.24141c-2.09614-6.0708-9.30256-20.094-9.30256-20.094-3.239-6.63236-20.3854-.31529-17.72158,8.0497l4.2512,13.89362C521.28068,488.02689,539.11451,487.5979,539.01106,471.24141Z"/>
      <ellipse class="cls-98" cx="512.83207" cy="439.24155" rx="8.3823" ry="5.31915" transform="translate(-126.222 221.20538) rotate(-21.7412)"/>
      <path class="cls-96" d="M518.2539,435.39723c-2.15258-5.00862-3.20613-7.13043-3.20613-7.13043l-9.51177,6.80264,1.48386,5.22141C509.76088,446.88541,520.00936,440.12063,518.2539,435.39723Z"/>
      <path class="cls-96" d="M417.62834,376.91824c2.62846-.19722,7.50414,1.69,11.493,4.95346l-7.66168,3.53876Z"/>
      <path class="cls-105" d="M408.59862,389.58144s3.64328-17.51526,48.13968-.43554S505.20952,427.87757,508.767,441.798s10.23513,97.02875,10.23513,97.02875c.477,9-20.312,11.368-21.65247,3.19784l-6.98279-54.76712,5.09029,68.17138c1.29676,15.31915-36.38848,24.525-59.87151,10.34049C421.6571,557.356,412.073,541.773,412.073,523.00328l6.54913-58.63947-8,29.70213c-2.88955,11.91606-22.80444,6.299-20.58714-7.3335Z"/>
      <path class="cls-38" d="M445.87122,387.10565c5.18147,0,21.75209,6.68345,25.70277,10.77527s5.34007,8.34528,2.21534,11.516-25.83005,9.74427-25.83005,9.74427-9.01617-15.87095-9.57356-20.54116S440.68974,387.10565,445.87122,387.10565Z"/>
      <path class="cls-96" d="M417.32218,376.94222c-4.73106.37731-11.89786,6.80938-11.62961,10.92977.37973,5.83262,6.06464,10.95618,9.0002,10.14415s8.59713-5.684,8.13247-11.51048S422.05324,376.56492,417.32218,376.94222Z"/>
      <polygon class="cls-38" points="490.367 487.257 500.547 450.365 493.753 512.701 490.367 487.257"/>
      <polygon class="cls-38" points="418.622 464.364 414.262 405.003 414.344 479.388 418.622 464.364"/>
      <path class="cls-96" d="M501.03835,418.55093c-4.70984.58447-12.83885,5.19162-12.37419,11.01809s3.04116,7.49216,7.77221,7.11486c.9359-.07463,6.01284-.96669,6.01284-.96669s4.228,1.73606,5.04051,1.09459a36.24846,36.24846,0,0,0,7.558-8.545C512.57959,423.72551,506.1343,417.91861,501.03835,418.55093Z"/>
    </g>
    <path class="cls-106" d="M457.11209,344.05221s-2.079,3.2868-3.648,15.44722c-1.01475,7.86475-2.44052,15.86332-.4387,22.57946,3.31083,11.10787,16.228,10.46173,22.16838,6.15361Z"/>
    <path class="cls-107" d="M471.55727,379.70774l.28724,10.75532s.54463,4.05319,9.33083,2.35106,8.48832-6.23338,8.48832-6.23338l.93617-14.36236Z"/>
    <g>
      <path class="cls-96" d="M471.92545,387.2912c9.86049-.68557,15.84382-5.80834,17.451-14.95381l3.44245-19.77791c1.6116-7.93971-4.70515-16.35891-14.06658-17.42338-8.18177-.93034-17.39529,4.87042-18.43028,13.93355a184.3845,184.3845,0,0,0-.84781,20.19945C459.7546,378.26831,462.75961,387.92848,471.92545,387.2912Z"/>
      <g>
        <path class="cls-108" d="M509.49316,383.17741c.66132-7.418-.84156-43.66687-23.33429-50.82289-17.03547-4.46063-27.88017,6.80055-29.0457,11.69786-1.00772,4.235,3.88284,16.98068,24.08039,18.64846-1.39473,3.70468.56337,8.25646,4.38724,6.78051a8.9073,8.9073,0,0,0,2.65535,1.85642s-9.03427,19.20248-1.13385,25.18479C495.89268,403.17877,508.30092,396.55079,509.49316,383.17741Z"/>
        <path class="cls-96" d="M487.61557,376.20337c3.65164.0001,6.72571-5.09855,6.72582-9.24226s-3.58755-7.63109-6.72543-5.76342C483.67691,363.54222,483.96393,376.20327,487.61557,376.20337Z"/>
      </g>
    </g>
  </g>
  <g>
    <path class="cls-109" d="M268.1477,346.27083l.00044.00843a.90182.90182,0,0,0-1.18622.43039L222.966,435.63534a.923.923,0,0,0-.09573.40953V761.46749a.89423.89423,0,0,0,.66755.881l-.00289.00555.034.0071c.013.0031.02573.00488.03871.00754l5.23086,1.05334-.33611-9.38819,38.68474-78.19032a14.72194,14.72194,0,0,0,1.52654-6.5279V356.93931l4.59027-9.63821Z"/>
    <path class="cls-110" d="M228.06138,437.08885V762.51154a.92371.92371,0,0,0,1.75163.40961l42.56519-86.03363a14.72082,14.72082,0,0,0,1.52654-6.52791V348.16335a.9237.9237,0,0,0-1.75162-.40961l-43.99595,88.92549A.92373.92373,0,0,0,228.06138,437.08885Z"/>
    <path class="cls-111" d="M233.72936,444.06773V665.39532a.6953.6953,0,0,0,1.31849.30833L267.0877,600.944a11.08073,11.08073,0,0,0,1.14907-4.91372v-218.899a.69529.69529,0,0,0-1.31849-.30832l-33.11682,66.93638A.69524.69524,0,0,0,233.72936,444.06773Z"/>
    <path class="cls-112" d="M233.72936,682.10809v49.093a.69529.69529,0,0,0,1.31849.30832l32.03985-64.7596a11.08073,11.08073,0,0,0,1.14907-4.91372V615.17171a.6953.6953,0,0,0-1.31849-.30833l-33.11682,66.93638A.69528.69528,0,0,0,233.72936,682.10809Z"/>
  </g>
  <g>
    <circle class="cls-87" cx="948.55903" cy="211.15349" r="51.44097"/>
    <g>
      <rect class="cls-113" x="944.37198" y="182.57455" width="11.16548" height="57.15788" transform="translate(128.92723 733.56485) rotate(-45)"/>
      <rect class="cls-113" x="944.37198" y="182.57455" width="11.16548" height="57.15788" transform="translate(1472.36607 1032.18097) rotate(-135)"/>
    </g>
  </g>
</svg>
