<svg id="Layer_1" data-name="Layer 1" xmlns="http://www.w3.org/2000/svg" xmlns:xlink="http://www.w3.org/1999/xlink" viewBox="0 0 1000 1000">
  <defs>
    <style>
      .cls-1, .cls-24, .cls-25, .cls-99 {
        fill: none;
      }

      .cls-2 {
        fill: url(#linear-gradient);
      }

      .cls-3, .cls-8, .cls-83 {
        fill: #fff;
      }

      .cls-122, .cls-123, .cls-134, .cls-3, .cls-52, .cls-97 {
        opacity: 0.5;
      }

      .cls-4 {
        fill: #b8cbd8;
      }

      .cls-5 {
        fill: url(#linear-gradient-2);
      }

      .cls-6 {
        fill: url(#linear-gradient-3);
      }

      .cls-113, .cls-7, .cls-82 {
        opacity: 0.2;
      }

      .cls-7 {
        fill: url(#linear-gradient-4);
      }

      .cls-9 {
        fill: url(#linear-gradient-5);
      }

      .cls-10 {
        fill: url(#linear-gradient-6);
      }

      .cls-11 {
        fill: url(#linear-gradient-7);
      }

      .cls-12 {
        fill: url(#linear-gradient-8);
      }

      .cls-13 {
        fill: url(#linear-gradient-9);
      }

      .cls-14 {
        fill: url(#linear-gradient-10);
      }

      .cls-15 {
        fill: #e58630;
      }

      .cls-16 {
        fill: url(#linear-gradient-11);
      }

      .cls-17 {
        fill: #ffcb48;
      }

      .cls-18 {
        fill: url(#linear-gradient-12);
      }

      .cls-19 {
        fill: url(#linear-gradient-13);
      }

      .cls-20 {
        fill: url(#linear-gradient-14);
      }

      .cls-21 {
        fill: #748ca3;
      }

      .cls-22 {
        fill: #586c7f;
      }

      .cls-23 {
        fill: url(#linear-gradient-15);
      }

      .cls-148, .cls-149, .cls-24, .cls-25, .cls-99 {
        stroke-miterlimit: 10;
      }

      .cls-24, .cls-25 {
        stroke-width: 5.40487px;
      }

      .cls-24 {
        stroke: url(#linear-gradient-16);
      }

      .cls-25 {
        stroke: url(#linear-gradient-17);
      }

      .cls-26 {
        fill: url(#linear-gradient-18);
      }

      .cls-27 {
        fill: url(#linear-gradient-19);
      }

      .cls-28 {
        fill: url(#linear-gradient-20);
      }

      .cls-29 {
        fill: url(#linear-gradient-21);
      }

      .cls-30 {
        fill: url(#linear-gradient-22);
      }

      .cls-31 {
        fill: url(#linear-gradient-23);
      }

      .cls-32 {
        fill: url(#linear-gradient-24);
      }

      .cls-33 {
        fill: url(#linear-gradient-25);
      }

      .cls-34 {
        fill: url(#linear-gradient-26);
      }

      .cls-35 {
        fill: url(#linear-gradient-27);
      }

      .cls-36 {
        fill: url(#linear-gradient-28);
      }

      .cls-37 {
        fill: url(#linear-gradient-29);
      }

      .cls-38 {
        fill: url(#linear-gradient-30);
      }

      .cls-39 {
        fill: url(#linear-gradient-31);
      }

      .cls-40 {
        fill: url(#linear-gradient-32);
      }

      .cls-41 {
        fill: url(#linear-gradient-33);
      }

      .cls-42 {
        fill: #541510;
        opacity: 0.3;
      }

      .cls-43 {
        fill: url(#linear-gradient-34);
      }

      .cls-44 {
        fill: url(#linear-gradient-35);
      }

      .cls-45 {
        fill: #bcd0e2;
      }

      .cls-46 {
        fill: #e9f1f4;
      }

      .cls-47 {
        fill: url(#linear-gradient-36);
      }

      .cls-48 {
        fill: url(#linear-gradient-37);
      }

      .cls-49 {
        fill: #c6d6db;
      }

      .cls-50 {
        fill: url(#linear-gradient-38);
      }

      .cls-51, .cls-52 {
        fill: #ed8324;
      }

      .cls-51, .cls-79 {
        opacity: 0.6;
      }

      .cls-53 {
        fill: #ffbda3;
      }

      .cls-54 {
        fill: url(#linear-gradient-39);
      }

      .cls-55 {
        fill: url(#linear-gradient-40);
      }

      .cls-56 {
        fill: #27343d;
      }

      .cls-57 {
        fill: url(#linear-gradient-41);
      }

      .cls-58, .cls-97 {
        fill: #dd7b19;
      }

      .cls-59 {
        fill: url(#linear-gradient-42);
      }

      .cls-60 {
        fill: url(#linear-gradient-43);
      }

      .cls-61 {
        fill: url(#linear-gradient-44);
      }

      .cls-62 {
        fill: url(#linear-gradient-45);
      }

      .cls-63 {
        fill: url(#linear-gradient-46);
      }

      .cls-64 {
        opacity: 0.4;
        fill: url(#linear-gradient-47);
      }

      .cls-65 {
        fill: url(#linear-gradient-48);
      }

      .cls-66 {
        fill: url(#linear-gradient-49);
      }

      .cls-67 {
        fill: url(#linear-gradient-50);
      }

      .cls-68 {
        fill: url(#linear-gradient-51);
      }

      .cls-69 {
        fill: url(#linear-gradient-52);
      }

      .cls-70 {
        fill: url(#linear-gradient-53);
      }

      .cls-71 {
        fill: url(#linear-gradient-54);
      }

      .cls-72 {
        fill: url(#linear-gradient-55);
      }

      .cls-73 {
        fill: #f0f9fc;
      }

      .cls-74 {
        fill: url(#linear-gradient-56);
      }

      .cls-75 {
        fill: url(#linear-gradient-57);
      }

      .cls-76 {
        fill: url(#linear-gradient-58);
      }

      .cls-77 {
        clip-path: url(#clip-path);
      }

      .cls-78 {
        fill: url(#linear-gradient-59);
      }

      .cls-79 {
        fill: url(#linear-gradient-60);
      }

      .cls-80 {
        fill: url(#linear-gradient-61);
      }

      .cls-81 {
        fill: url(#linear-gradient-62);
      }

      .cls-82 {
        fill: url(#linear-gradient-63);
      }

      .cls-83 {
        opacity: 0.7;
      }

      .cls-84 {
        fill: #25292d;
      }

      .cls-85 {
        fill: url(#linear-gradient-64);
      }

      .cls-86 {
        fill: url(#linear-gradient-65);
      }

      .cls-87 {
        fill: url(#linear-gradient-66);
      }

      .cls-88 {
        fill: url(#linear-gradient-67);
      }

      .cls-89 {
        fill: url(#linear-gradient-68);
      }

      .cls-90 {
        fill: url(#linear-gradient-69);
      }

      .cls-91 {
        fill: url(#linear-gradient-70);
      }

      .cls-92 {
        fill: url(#linear-gradient-71);
      }

      .cls-93 {
        fill: url(#linear-gradient-72);
      }

      .cls-94 {
        fill: url(#linear-gradient-73);
      }

      .cls-95 {
        fill: url(#linear-gradient-74);
      }

      .cls-96 {
        fill: url(#linear-gradient-75);
      }

      .cls-98 {
        fill: url(#linear-gradient-76);
      }

      .cls-99 {
        stroke: #d8712b;
        stroke-linecap: round;
        stroke-width: 5.40323px;
      }

      .cls-100 {
        fill: #2e3e59;
      }

      .cls-101 {
        fill: #4f4f4f;
      }

      .cls-102 {
        fill: url(#linear-gradient-77);
      }

      .cls-103 {
        fill: url(#linear-gradient-78);
      }

      .cls-104 {
        fill: url(#linear-gradient-79);
      }

      .cls-105 {
        fill: url(#linear-gradient-80);
      }

      .cls-106 {
        fill: url(#linear-gradient-81);
      }

      .cls-107 {
        fill: url(#linear-gradient-82);
      }

      .cls-108 {
        fill: #d7ebf4;
      }

      .cls-109 {
        fill: #7995a8;
      }

      .cls-110 {
        fill: url(#linear-gradient-83);
      }

      .cls-111 {
        fill: url(#linear-gradient-84);
      }

      .cls-112 {
        fill: url(#linear-gradient-85);
      }

      .cls-113 {
        fill: url(#linear-gradient-97);
      }

      .cls-114 {
        fill: url(#linear-gradient-98);
      }

      .cls-115 {
        fill: url(#linear-gradient-99);
      }

      .cls-116 {
        fill: url(#linear-gradient-100);
      }

      .cls-117 {
        fill: url(#linear-gradient-102);
      }

      .cls-118 {
        fill: url(#linear-gradient-103);
      }

      .cls-119 {
        fill: url(#linear-gradient-104);
      }

      .cls-120 {
        fill: #a1bad3;
      }

      .cls-121 {
        fill: #b7cde5;
      }

      .cls-122 {
        fill: url(#linear-gradient-109);
      }

      .cls-124 {
        fill: url(#linear-gradient-110);
      }

      .cls-125 {
        fill: #e1e6ea;
      }

      .cls-126 {
        fill: url(#linear-gradient-111);
      }

      .cls-127 {
        fill: url(#linear-gradient-112);
      }

      .cls-128 {
        fill: #cddce8;
      }

      .cls-129 {
        fill: #e48f7c;
      }

      .cls-130 {
        fill: url(#linear-gradient-113);
      }

      .cls-131 {
        fill: url(#linear-gradient-114);
      }

      .cls-132 {
        fill: url(#linear-gradient-115);
      }

      .cls-133 {
        fill: url(#linear-gradient-116);
      }

      .cls-134 {
        fill: #db6d1b;
      }

      .cls-135 {
        fill: #34a521;
      }

      .cls-136 {
        fill: #cfdfe8;
      }

      .cls-137 {
        fill: url(#linear-gradient-117);
      }

      .cls-138 {
        fill: url(#linear-gradient-118);
      }

      .cls-139 {
        fill: #cc7025;
      }

      .cls-140 {
        fill: url(#linear-gradient-119);
      }

      .cls-141 {
        fill: url(#linear-gradient-120);
      }

      .cls-142 {
        fill: url(#linear-gradient-121);
      }

      .cls-143 {
        fill: url(#linear-gradient-122);
      }

      .cls-144 {
        fill: url(#linear-gradient-123);
      }

      .cls-145 {
        fill: url(#linear-gradient-124);
      }

      .cls-146 {
        fill: url(#linear-gradient-125);
      }

      .cls-147 {
        fill: url(#linear-gradient-126);
      }

      .cls-148, .cls-149 {
        font-size: 47.09652px;
        fill: #333a3d;
        stroke: #333a3d;
        font-family: AvenirLTStd-Black, Avenir LT Std;
        font-weight: 800;
      }

      .cls-148 {
        stroke-width: 1.74345px;
      }

      .cls-149 {
        stroke-width: 1.10349px;
      }
    </style>
    <linearGradient id="linear-gradient" x1="458.44608" y1="402.62316" x2="879.73278" y2="402.62316" gradientUnits="userSpaceOnUse">
      <stop offset="0" stop-color="#e4edf2"/>
      <stop offset="1" stop-color="#c3d6e6"/>
    </linearGradient>
    <linearGradient id="linear-gradient-2" x1="37.17563" y1="728.95587" x2="879.73278" y2="728.95587" gradientUnits="userSpaceOnUse">
      <stop offset="0" stop-color="#dae9f2"/>
      <stop offset="0.99337" stop-color="#c4d5e6"/>
    </linearGradient>
    <linearGradient id="linear-gradient-3" x1="-957.40303" y1="596.16463" x2="-836.77197" y2="675.59003" gradientTransform="translate(1162.29787)" gradientUnits="userSpaceOnUse">
      <stop offset="0" stop-color="#fff"/>
      <stop offset="0.94545" stop-color="#fff" stop-opacity="0"/>
    </linearGradient>
    <linearGradient id="linear-gradient-4" x1="194.87868" y1="715.8669" x2="798.66116" y2="715.8669" gradientUnits="userSpaceOnUse">
      <stop offset="0" stop-color="#3e4c59"/>
      <stop offset="1" stop-color="#293440"/>
    </linearGradient>
    <linearGradient id="linear-gradient-5" x1="76.74908" y1="396.99333" x2="420.0918" y2="396.99333" gradientUnits="userSpaceOnUse">
      <stop offset="0" stop-color="#5b6f82"/>
      <stop offset="1" stop-color="#849bb2"/>
    </linearGradient>
    <linearGradient id="linear-gradient-6" x1="438.46551" y1="293.97498" x2="64.5685" y2="496.65378" gradientUnits="userSpaceOnUse">
      <stop offset="0" stop-color="#62778c"/>
      <stop offset="1" stop-color="#435466"/>
    </linearGradient>
    <linearGradient id="linear-gradient-7" x1="371.42609" y1="326.22894" x2="232.94777" y2="401.29405" xlink:href="#linear-gradient-6"/>
    <linearGradient id="linear-gradient-8" x1="259.95729" y1="390.58137" x2="121.47897" y2="465.64648" xlink:href="#linear-gradient-6"/>
    <linearGradient id="linear-gradient-9" x1="105.79729" y1="491.48979" x2="130.84734" y2="491.48979" gradientUnits="userSpaceOnUse">
      <stop offset="0" stop-color="#e68e2b"/>
      <stop offset="0.99995" stop-color="#ffcb48"/>
    </linearGradient>
    <linearGradient id="linear-gradient-10" x1="89.90739" y1="500.39723" x2="114.95744" y2="500.39723" xlink:href="#linear-gradient-9"/>
    <linearGradient id="linear-gradient-11" x1="74.0175" y1="509.6429" x2="99.07732" y2="509.6429" xlink:href="#linear-gradient-9"/>
    <linearGradient id="linear-gradient-12" x1="414.79267" y1="312.71802" x2="439.84272" y2="312.71802" xlink:href="#linear-gradient-9"/>
    <linearGradient id="linear-gradient-13" x1="398.90278" y1="321.62546" x2="423.95283" y2="321.62546" xlink:href="#linear-gradient-9"/>
    <linearGradient id="linear-gradient-14" x1="383.01289" y1="330.87113" x2="408.0727" y2="330.87113" xlink:href="#linear-gradient-9"/>
    <linearGradient id="linear-gradient-15" x1="-132.30113" y1="240.89603" x2="431.51765" y2="240.89603" xlink:href="#linear-gradient-5"/>
    <linearGradient id="linear-gradient-16" x1="6205.48764" y1="514.38716" x2="6277.69762" y2="547.37837" gradientTransform="translate(-5721.26989)" xlink:href="#linear-gradient-4"/>
    <linearGradient id="linear-gradient-17" x1="6133.56711" y1="464.652" x2="6215.16206" y2="501.93101" gradientTransform="translate(-5721.26989)" xlink:href="#linear-gradient-4"/>
    <linearGradient id="linear-gradient-18" x1="-1992.0503" y1="401.21587" x2="-1859.53116" y2="494.53921" gradientTransform="translate(2413.68732)" xlink:href="#linear-gradient-6"/>
    <linearGradient id="linear-gradient-19" x1="-1992.4295" y1="415.69571" x2="-1849.10405" y2="571.23907" gradientTransform="translate(2413.68732)" gradientUnits="userSpaceOnUse">
      <stop offset="0" stop-color="#62788c"/>
      <stop offset="1" stop-color="#526575"/>
    </linearGradient>
    <linearGradient id="linear-gradient-20" x1="-2006.56843" y1="396.1517" x2="-1919.92173" y2="531.32056" gradientTransform="translate(2413.68732)" gradientUnits="userSpaceOnUse">
      <stop offset="0" stop-color="#96b1cc"/>
      <stop offset="1" stop-color="#748ea6"/>
    </linearGradient>
    <linearGradient id="linear-gradient-21" x1="-1999.3556" y1="440.54857" x2="-1860.80916" y2="440.54857" gradientTransform="translate(2413.68732)" gradientUnits="userSpaceOnUse">
      <stop offset="0" stop-color="#526575"/>
      <stop offset="1" stop-color="#62788c"/>
    </linearGradient>
    <linearGradient id="linear-gradient-22" x1="-1999.35565" y1="418.1013" x2="-1860.8092" y2="418.1013" xlink:href="#linear-gradient-20"/>
    <linearGradient id="linear-gradient-23" x1="-2199.76225" y1="417.29232" x2="-2145.19792" y2="417.29232" gradientTransform="translate(2656.08503)" xlink:href="#linear-gradient-6"/>
    <linearGradient id="linear-gradient-24" x1="-2199.76227" y1="413.13494" x2="-2145.1979" y2="413.13494" gradientTransform="translate(2656.08503)" gradientUnits="userSpaceOnUse">
      <stop offset="0" stop-color="#849bb2"/>
      <stop offset="1" stop-color="#5b6f82"/>
    </linearGradient>
    <linearGradient id="linear-gradient-25" x1="-2172.84862" y1="369.23644" x2="-2172.12214" y2="409.43511" gradientTransform="translate(2656.08503)" xlink:href="#linear-gradient-6"/>
    <linearGradient id="linear-gradient-26" x1="-2209.17154" y1="361.27043" x2="-2135.78858" y2="361.27043" gradientTransform="translate(2656.08503)" xlink:href="#linear-gradient-6"/>
    <linearGradient id="linear-gradient-27" x1="-2209.66382" y1="355.89173" x2="-2135.2963" y2="355.89173" gradientTransform="translate(2656.08503)" gradientUnits="userSpaceOnUse">
      <stop offset="0.00844" stop-color="#ffc63f"/>
      <stop offset="1" stop-color="#e68a23"/>
    </linearGradient>
    <linearGradient id="linear-gradient-28" x1="-2180.49845" y1="342.07723" x2="-2164.46182" y2="342.07723" gradientTransform="translate(2656.08503)" xlink:href="#linear-gradient-4"/>
    <linearGradient id="linear-gradient-29" x1="-2180.49844" y1="335.89014" x2="-2164.46173" y2="335.89014" gradientTransform="translate(2656.08503)" xlink:href="#linear-gradient-6"/>
    <linearGradient id="linear-gradient-30" x1="579.01659" y1="341.84518" x2="771.77882" y2="594.28612" xlink:href="#linear-gradient-6"/>
    <linearGradient id="linear-gradient-31" x1="559.58037" y1="356.49394" x2="750.61673" y2="606.67467" gradientTransform="matrix(1, 0, 0, 1, 0, 0)" xlink:href="#linear-gradient-19"/>
    <linearGradient id="linear-gradient-32" x1="344.68406" y1="609.83353" x2="826.23802" y2="739.13026" xlink:href="#linear-gradient-6"/>
    <linearGradient id="linear-gradient-33" x1="201.26948" y1="631.42695" x2="620.92572" y2="898.59941" gradientTransform="matrix(1, 0, 0, 1, 0, 0)" xlink:href="#linear-gradient-19"/>
    <linearGradient id="linear-gradient-34" x1="211.57552" y1="692.67729" x2="838.65343" y2="726.60118" xlink:href="#linear-gradient-4"/>
    <linearGradient id="linear-gradient-35" x1="216.57895" y1="724.79918" x2="796.83345" y2="756.18999" xlink:href="#linear-gradient-4"/>
    <linearGradient id="linear-gradient-36" x1="571.27253" y1="299.66164" x2="833.20486" y2="642.68757" gradientUnits="userSpaceOnUse">
      <stop offset="0" stop-color="#596c80"/>
      <stop offset="0.99886" stop-color="#3a4959"/>
    </linearGradient>
    <linearGradient id="linear-gradient-37" x1="587.84622" y1="750.24993" x2="618.43341" y2="797.96595" xlink:href="#linear-gradient-4"/>
    <linearGradient id="linear-gradient-38" x1="198.02597" y1="624.34173" x2="493.74718" y2="789.30186" gradientUnits="userSpaceOnUse">
      <stop offset="0.00005" stop-color="#ffcb48"/>
      <stop offset="1" stop-color="#e68e2b"/>
    </linearGradient>
    <linearGradient id="linear-gradient-39" x1="380.53375" y1="363.03621" x2="400.93902" y2="409.78283" gradientUnits="userSpaceOnUse">
      <stop offset="0" stop-color="#966551"/>
      <stop offset="1" stop-color="#805345"/>
    </linearGradient>
    <linearGradient id="linear-gradient-40" x1="273.88887" y1="548.12753" x2="375.04368" y2="618.42548" xlink:href="#linear-gradient-4"/>
    <linearGradient id="linear-gradient-41" x1="312.92608" y1="491.70308" x2="415.50327" y2="562.98951" xlink:href="#linear-gradient-4"/>
    <linearGradient id="linear-gradient-42" x1="414.00063" y1="305.49669" x2="497.74531" y2="524.04988" xlink:href="#linear-gradient-38"/>
    <linearGradient id="linear-gradient-43" x1="342.78739" y1="332.784" x2="426.53207" y2="551.3372" xlink:href="#linear-gradient-38"/>
    <linearGradient id="linear-gradient-44" x1="304.33732" y1="347.51721" x2="388.082" y2="566.0704" xlink:href="#linear-gradient-38"/>
    <linearGradient id="linear-gradient-45" x1="619.74108" y1="313.74136" x2="697.06015" y2="313.74136" gradientTransform="translate(-18.64021 -32.28579)" gradientUnits="userSpaceOnUse">
      <stop offset="0" stop-color="#435466"/>
      <stop offset="1" stop-color="#62778c"/>
    </linearGradient>
    <linearGradient id="linear-gradient-46" x1="630.16127" y1="309.75811" x2="693.74524" y2="309.75811" gradientTransform="translate(-18.64021 -32.28579)" gradientUnits="userSpaceOnUse">
      <stop offset="0" stop-color="#fff"/>
      <stop offset="0.98888" stop-color="#e6edf2"/>
    </linearGradient>
    <linearGradient id="linear-gradient-47" x1="639.27356" y1="311.68354" x2="682.37902" y2="311.68354" gradientTransform="translate(-18.64021 -32.28579)" xlink:href="#linear-gradient-6"/>
    <linearGradient id="linear-gradient-48" x1="619.74106" y1="313.74136" x2="697.06015" y2="313.74136" gradientTransform="translate(-18.64021 -32.28579)" xlink:href="#linear-gradient-24"/>
    <linearGradient id="linear-gradient-49" x1="636.7065" y1="235.09477" x2="716.20637" y2="340.17286" gradientTransform="translate(-18.64021 -32.28579)" xlink:href="#linear-gradient-6"/>
    <linearGradient id="linear-gradient-50" x1="605.24403" y1="210.13957" x2="723.12818" y2="365.95167" gradientTransform="translate(-18.64021 -32.28579)" xlink:href="#linear-gradient-6"/>
    <linearGradient id="linear-gradient-51" x1="719.78462" y1="302.957" x2="694.10444" y2="242.73625" gradientTransform="translate(3.46411 6.00002)" xlink:href="#linear-gradient-45"/>
    <linearGradient id="linear-gradient-52" x1="653.25116" y1="207.89785" x2="692.58642" y2="207.89785" gradientTransform="translate(47.76727 82.73534)" xlink:href="#linear-gradient-46"/>
    <linearGradient id="linear-gradient-53" x1="642.83095" y1="211.8811" x2="695.90133" y2="211.8811" gradientTransform="translate(47.76727 82.73534)" xlink:href="#linear-gradient-24"/>
    <linearGradient id="linear-gradient-54" x1="655.16721" y1="159.14118" x2="709.96265" y2="231.56646" gradientTransform="translate(47.76727 82.73534)" xlink:href="#linear-gradient-6"/>
    <linearGradient id="linear-gradient-55" x1="637.00874" y1="144.79564" x2="713.70955" y2="246.17409" gradientTransform="translate(47.76727 82.73534)" xlink:href="#linear-gradient-6"/>
    <linearGradient id="linear-gradient-56" x1="834.48199" y1="410.06878" x2="860.15738" y2="475.18528" gradientTransform="matrix(1, 0, 0, 1, 0, 0)" xlink:href="#linear-gradient-27"/>
    <linearGradient id="linear-gradient-57" x1="841.94878" y1="414.14638" x2="850.71037" y2="427.84872" xlink:href="#linear-gradient-6"/>
    <linearGradient id="linear-gradient-58" x1="824.98598" y1="424.04309" x2="855.84283" y2="472.30043" xlink:href="#linear-gradient-6"/>
    <clipPath id="clip-path">
      <polygon class="cls-1" points="709.581 213.535 258.021 882.003 481.328 992.874 904.466 800.451 897.709 323.097 871.057 292.491 709.581 213.535"/>
    </clipPath>
    <linearGradient id="linear-gradient-59" x1="458.5259" y1="402.62316" x2="879.81259" y2="402.62316" gradientTransform="matrix(1, 0, 0, 1, 0, 0)" xlink:href="#linear-gradient-24"/>
    <linearGradient id="linear-gradient-60" x1="912.95144" y1="517.99749" x2="828.74853" y2="651.16947" gradientUnits="userSpaceOnUse">
      <stop offset="0.00289" stop-color="#fff"/>
      <stop offset="0.56988" stop-color="#fff" stop-opacity="0"/>
    </linearGradient>
    <linearGradient id="linear-gradient-61" x1="37.25544" y1="402.62316" x2="458.54214" y2="402.62316" xlink:href="#linear-gradient-5"/>
    <linearGradient id="linear-gradient-62" x1="37.25544" y1="728.95587" x2="879.81259" y2="728.95587" xlink:href="#linear-gradient-5"/>
    <linearGradient id="linear-gradient-63" x1="189.98348" y1="712.69952" x2="793.76596" y2="712.69952" xlink:href="#linear-gradient-4"/>
    <linearGradient id="linear-gradient-64" x1="-286.64853" y1="465.98878" x2="-185.7799" y2="465.98878" gradientTransform="translate(353.2766)" xlink:href="#linear-gradient-6"/>
    <linearGradient id="linear-gradient-65" x1="-161.44395" y1="393.69808" x2="-60.56036" y2="393.69808" gradientTransform="translate(353.2766)" xlink:href="#linear-gradient-6"/>
    <linearGradient id="linear-gradient-66" x1="-36.22441" y1="321.38644" x2="64.7168" y2="321.38644" gradientTransform="translate(353.2766)" xlink:href="#linear-gradient-6"/>
    <linearGradient id="linear-gradient-67" x1="-286.64853" y1="397.17358" x2="76.85505" y2="397.17358" gradientTransform="translate(353.2766)" xlink:href="#linear-gradient-24"/>
    <linearGradient id="linear-gradient-68" x1="93.69819" y1="289.51915" x2="-297.02492" y2="501.31889" gradientTransform="translate(353.2766)" xlink:href="#linear-gradient-6"/>
    <linearGradient id="linear-gradient-69" x1="-265.92416" y1="347.35407" x2="-25.6737" y2="586.97229" gradientTransform="translate(353.2766)" xlink:href="#linear-gradient-5"/>
    <linearGradient id="linear-gradient-70" x1="-167.33198" y1="248.50176" x2="72.91847" y2="488.11998" gradientTransform="translate(353.2766)" xlink:href="#linear-gradient-5"/>
    <linearGradient id="linear-gradient-71" x1="-68.72761" y1="149.63722" x2="171.52285" y2="389.25543" gradientTransform="translate(353.2766)" xlink:href="#linear-gradient-5"/>
    <linearGradient id="linear-gradient-72" x1="-493.69378" y1="130.87257" x2="90.15691" y2="130.87257" gradientTransform="translate(353.2766)" xlink:href="#linear-gradient-5"/>
    <linearGradient id="linear-gradient-73" x1="-493.69378" y1="241.59888" x2="90.15691" y2="241.59888" gradientTransform="translate(353.2766)" xlink:href="#linear-gradient-5"/>
    <linearGradient id="linear-gradient-74" x1="-493.69378" y1="352.39895" x2="90.15691" y2="352.39895" gradientTransform="translate(353.2766)" xlink:href="#linear-gradient-5"/>
    <linearGradient id="linear-gradient-75" x1="-252.80386" y1="347.8168" x2="-277.46114" y2="650.34271" gradientTransform="translate(353.2766)" gradientUnits="userSpaceOnUse">
      <stop offset="0.00844" stop-color="#ffc63f"/>
      <stop offset="1" stop-color="#e68e2b"/>
    </linearGradient>
    <linearGradient id="linear-gradient-76" x1="30.44655" y1="178.23519" x2="111.37302" y2="477.91602" xlink:href="#linear-gradient-75"/>
    <linearGradient id="linear-gradient-77" x1="484.1396" y1="424.64316" x2="545.15729" y2="527.19" xlink:href="#linear-gradient-4"/>
    <linearGradient id="linear-gradient-78" x1="358.00953" y1="292.88265" x2="486.07709" y2="523.96106" xlink:href="#linear-gradient-6"/>
    <linearGradient id="linear-gradient-79" x1="392.23869" y1="311.50954" x2="473.90496" y2="527.4302" gradientTransform="matrix(1, 0, 0, 1, 0, 0)" xlink:href="#linear-gradient-24"/>
    <linearGradient id="linear-gradient-80" x1="375.27443" y1="317.92582" x2="456.9407" y2="533.84649" gradientTransform="matrix(1, 0, 0, 1, 0, 0)" xlink:href="#linear-gradient-24"/>
    <linearGradient id="linear-gradient-81" x1="397.88427" y1="409.21985" x2="548.22682" y2="409.21985" gradientTransform="matrix(1, 0, 0, 1, 0, 0)" xlink:href="#linear-gradient-19"/>
    <linearGradient id="linear-gradient-82" x1="397.8842" y1="384.35656" x2="548.22678" y2="384.35656" gradientTransform="matrix(1, 0, 0, 1, 0, 0)" xlink:href="#linear-gradient-24"/>
    <linearGradient id="linear-gradient-83" x1="443.92261" y1="290.04399" x2="509.58044" y2="351.06169" xlink:href="#linear-gradient-38"/>
    <linearGradient id="linear-gradient-84" x1="467.80899" y1="305.42596" x2="487.99417" y2="305.42596" xlink:href="#linear-gradient-4"/>
    <linearGradient id="linear-gradient-85" x1="467.809" y1="300.89058" x2="487.99428" y2="300.89058" xlink:href="#linear-gradient-6"/>
    <linearGradient id="linear-gradient-97" x1="617.15973" y1="518.766" x2="647.01393" y2="518.766" gradientTransform="matrix(1, 0, 0, 1, 0, 0)" xlink:href="#linear-gradient-24"/>
    <linearGradient id="linear-gradient-98" x1="834.5618" y1="410.06878" x2="860.23719" y2="475.18528" gradientTransform="matrix(1, 0, 0, 1, 0, 0)" xlink:href="#linear-gradient-27"/>
    <linearGradient id="linear-gradient-99" x1="842.0286" y1="414.14638" x2="850.79019" y2="427.84872" xlink:href="#linear-gradient-6"/>
    <linearGradient id="linear-gradient-100" x1="825.06579" y1="424.04309" x2="855.92265" y2="472.30043" xlink:href="#linear-gradient-6"/>
    <linearGradient id="linear-gradient-102" x1="559.58037" y1="356.49394" x2="750.61673" y2="606.67467" xlink:href="#linear-gradient-4"/>
    <linearGradient id="linear-gradient-103" x1="344.68406" y1="609.83353" x2="826.23802" y2="739.13026" gradientUnits="userSpaceOnUse">
      <stop offset="0" stop-color="#62778c"/>
      <stop offset="1" stop-color="#3b4a59"/>
    </linearGradient>
    <linearGradient id="linear-gradient-104" x1="201.26948" y1="631.42695" x2="620.92572" y2="898.59941" xlink:href="#linear-gradient-6"/>
    <linearGradient id="linear-gradient-109" x1="558.5571" y1="592.74946" x2="673.81061" y2="592.74946" gradientTransform="matrix(1, 0, 0, 1, 0, 0)" xlink:href="#linear-gradient-24"/>
    <linearGradient id="linear-gradient-110" x1="545.77349" y1="511.47505" x2="693.09238" y2="511.47505" gradientTransform="matrix(1, 0, 0, 1, 0, 0)" xlink:href="#linear-gradient-24"/>
    <linearGradient id="linear-gradient-111" x1="624.61599" y1="468.38608" x2="637.55216" y2="606.93927" xlink:href="#linear-gradient-38"/>
    <linearGradient id="linear-gradient-112" x1="548.05823" y1="475.53398" x2="560.9944" y2="614.08717" xlink:href="#linear-gradient-38"/>
    <linearGradient id="linear-gradient-113" x1="650.41721" y1="466.79446" x2="645.14062" y2="512.07106" xlink:href="#linear-gradient-39"/>
    <linearGradient id="linear-gradient-114" x1="635.16957" y1="465.01748" x2="629.89298" y2="510.29408" xlink:href="#linear-gradient-39"/>
    <linearGradient id="linear-gradient-115" x1="423.68299" y1="516.9966" x2="387.93831" y2="800.91149" gradientUnits="userSpaceOnUse">
      <stop offset="0" stop-color="#f2ac33"/>
      <stop offset="0.98888" stop-color="#e57b30"/>
    </linearGradient>
    <linearGradient id="linear-gradient-116" x1="520.1437" y1="478.14025" x2="533.07987" y2="616.69344" xlink:href="#linear-gradient-38"/>
    <linearGradient id="linear-gradient-117" x1="1434.69327" y1="3124.0483" x2="1463.56031" y2="3124.0483" gradientTransform="matrix(0.85315, -0.52167, 0.75182, 1.22954, -2852.58071, -2876.02858)" xlink:href="#linear-gradient-4"/>
    <linearGradient id="linear-gradient-118" x1="1393.93824" y1="2111.98123" x2="1503.45565" y2="2111.98123" gradientTransform="translate(-1594.85286 -819.11486) rotate(-31.44427)" xlink:href="#linear-gradient-38"/>
    <linearGradient id="linear-gradient-119" x1="-854.54723" y1="2152.7722" x2="-825.6802" y2="2152.7722" gradientTransform="matrix(-0.85315, -0.52167, -0.75182, 1.22954, 1817.70354, -2876.02858)" xlink:href="#linear-gradient-4"/>
    <linearGradient id="linear-gradient-120" x1="-895.30225" y1="712.19392" x2="-785.78484" y2="712.19392" gradientTransform="matrix(-0.85315, -0.52167, -0.52167, 0.85315, 559.97569, -819.11486)" xlink:href="#linear-gradient-38"/>
    <linearGradient id="linear-gradient-121" x1="730.11067" y1="469.36197" x2="779.01573" y2="469.36197" xlink:href="#linear-gradient-6"/>
    <linearGradient id="linear-gradient-122" x1="-5417.92201" y1="469.36197" x2="-5369.01695" y2="469.36197" gradientTransform="matrix(-1, 0, 0, 1, -4500.40259, 0)" xlink:href="#linear-gradient-6"/>
    <linearGradient id="linear-gradient-123" x1="819.96601" y1="219.83252" x2="826.87228" y2="219.83252" xlink:href="#linear-gradient-4"/>
    <linearGradient id="linear-gradient-124" x1="804.46905" y1="206.52225" x2="842.36925" y2="206.52225" xlink:href="#linear-gradient-4"/>
    <linearGradient id="linear-gradient-125" x1="781.55718" y1="237.82722" x2="843.99949" y2="405.49639" gradientTransform="matrix(1, 0, 0, 1, 0, 0)" xlink:href="#linear-gradient-24"/>
    <linearGradient id="linear-gradient-126" x1="728.30133" y1="350.23389" x2="918.55231" y2="350.23389" gradientTransform="matrix(1, 0, 0, 1, 0, 0)" xlink:href="#linear-gradient-24"/>
  </defs>
  <g>
    <g>
      <polygon class="cls-2" points="458.446 76.29 879.733 319.511 879.733 728.956 458.446 485.713 458.446 76.29"/>
      <polygon class="cls-3" points="458.446 420.76 459.732 449.857 622.921 535.985 458.446 157.66 458.446 420.76"/>
      <polygon class="cls-4" points="458.462 76.29 37.176 319.511 37.176 728.956 458.462 485.713 458.462 76.29"/>
    </g>
    <path class="cls-5" d="M44.44541,741.55987,436.656,967.99278a43.61723,43.61723,0,0,0,43.61687-.00064l392.1905-226.43649a14.53908,14.53908,0,0,0,.00017-25.18217L480.25588,489.9199a43.61721,43.61721,0,0,0-43.61994.00055L44.44455,716.37768A14.53907,14.53907,0,0,0,44.44541,741.55987Z"/>
    <polygon class="cls-6" points="78.056 696.514 217.505 822.75 569.025 617.632 379.537 522.52 78.056 696.514"/>
    <path class="cls-7" d="M200.03294,764.05615,418.669,890.28a20.61636,20.61636,0,0,0,20.61838-.00158L793.50826,685.51616a10.30818,10.30818,0,0,0-.00067-17.8533L574.938,541.45466a20.61633,20.61633,0,0,0-20.6174-.0006L200.03276,746.20177A10.30817,10.30817,0,0,0,200.03294,764.05615Z"/>
  </g>
  <g>
    <g>
      <path class="cls-8" d="M423.93326,462.6045,80.5842,660.83409,69.119,654.21685V331.39274L412.468,133.15165l11.46524-2.15873Z"/>
      <polygon class="cls-9" points="420.092 136.463 416.15 138.738 416.156 457.174 76.749 653.118 76.749 657.523 420.092 459.304 420.092 136.463"/>
      <path class="cls-10" d="M65.26108,328.06929v349.352L431.58,465.937V116.56448Zm11.48824,6.6326L420.0918,136.46318l0,322.84091L76.74932,657.52347Z"/>
    </g>
    <polygon class="cls-11" points="304.687 521.526 299.687 524.413 299.687 205.997 304.687 203.11 304.687 521.526"/>
    <polygon class="cls-12" points="193.218 585.879 188.218 588.765 188.218 270.349 193.218 267.463 193.218 585.879"/>
    <g>
      <g>
        <path class="cls-13" d="M130.84734,330.09057V654.50529a2.17527,2.17527,0,0,1-2.69,2.1l-13.19995-3.28-7.76-1.93005a.335.335,0,0,0-.32006.06l-1.08008-.31995V326.30569l23.31006,5.9249Z"/>
        <path class="cls-14" d="M114.95744,339.21057V663.83524a2.005,2.005,0,0,1-.3601,1.04,2.13015,2.13015,0,0,1-2.32007.9l-20.97-5.21a.35592.35592,0,0,0-.40991.16.3682.3682,0,0,0-.02.4l-.97-.26V334.95056l23.31006,5.5Z"/>
        <polygon class="cls-15" points="89.049 336.518 89.049 347.8 97.084 349.46 97.935 348.183 89.049 336.518"/>
        <path class="cls-16" d="M99.07732,348.53058V673.00529a2.23846,2.23846,0,0,1-.35987,1.04,2.13717,2.13717,0,0,1-1.79.97,2.00289,2.00289,0,0,1-.54-.06995l-21.68995-5.4a.88431.88431,0,0,1-.67993-.86V344.27057l23.30982,5.5Z"/>
        <polygon class="cls-15" points="104.932 327.347 104.932 338.629 112.967 340.289 113.818 339.012 104.932 327.347"/>
        <polygon class="cls-15" points="120.115 317.658 120.115 328.941 129.001 331.237 129.967 330.04 120.115 317.658"/>
        <path class="cls-17" d="M96.92614,350.6144a2.23457,2.23457,0,0,1-.53634-.06611l-21.69444-5.404a.88879.88879,0,0,1,.42908-1.725l21.69443,5.404a.38828.38828,0,0,0,.40538-.60931l-7.74139-10.37631a2.16559,2.16559,0,0,1,2.25824-3.397l20.96093,5.21279a.38816.38816,0,0,0,.40475-.6093l-7.74139-10.37632a2.16579,2.16579,0,0,1,2.25887-3.397l20.9603,5.2128a.38823.38823,0,0,0,.40537-.609l-8.6979-11.649a.88858.88858,0,0,1,1.42442-1.0627l8.6979,11.64868a2.16588,2.16588,0,0,1-2.25886,3.397l-20.9603-5.2128a.38837.38837,0,0,0-.40538.60931l7.74139,10.37631a2.16568,2.16568,0,0,1-2.25825,3.397L91.312,336.16564a.36406.36406,0,0,0-.41722.16153.36863.36863,0,0,0,.01247.44778l7.74139,10.37631a2.16761,2.16761,0,0,1-1.72253,3.46314Z"/>
      </g>
      <g>
        <path class="cls-18" d="M439.84272,151.3188V475.73352a2.17525,2.17525,0,0,1-2.68994,2.1l-13.19995-3.28-7.76-1.93a.335.335,0,0,0-.32007.06l-1.08008-.32V147.53392l23.31006,5.9249Z"/>
        <path class="cls-19" d="M423.95283,160.4388V485.06347a2.005,2.005,0,0,1-.36011,1.04,2.13013,2.13013,0,0,1-2.32006.9l-20.97-5.21a.35593.35593,0,0,0-.40991.16.36822.36822,0,0,0-.02.4l-.97-.26V156.17879l23.31006,5.5Z"/>
        <polygon class="cls-15" points="398.044 157.746 398.044 169.029 406.079 170.688 406.93 169.412 398.044 157.746"/>
        <path class="cls-20" d="M408.0727,169.75881V494.23352a2.23845,2.23845,0,0,1-.35986,1.04,2.13719,2.13719,0,0,1-1.79.97,2.003,2.003,0,0,1-.54-.07l-21.68994-5.4a.88431.88431,0,0,1-.67993-.86V165.4988l23.30981,5.5Z"/>
        <polygon class="cls-15" points="413.928 148.575 413.928 159.858 421.962 161.517 422.813 160.241 413.928 148.575"/>
        <polygon class="cls-15" points="429.111 138.887 429.111 150.169 437.997 152.465 438.962 151.268 429.111 138.887"/>
        <path class="cls-17" d="M405.92153,171.84263a2.23457,2.23457,0,0,1-.53634-.06611l-21.69444-5.404a.88879.88879,0,0,1,.42907-1.725l21.69444,5.404a.38827.38827,0,0,0,.40537-.60931l-7.74138-10.37631a2.16559,2.16559,0,0,1,2.25824-3.397l20.96092,5.21279a.38816.38816,0,0,0,.40475-.6093L414.36078,149.896a2.16578,2.16578,0,0,1,2.25886-3.397l20.9603,5.21279a.38823.38823,0,0,0,.40538-.609l-8.6979-11.649a.88858.88858,0,0,1,1.42442-1.0627l8.6979,11.64868a2.16588,2.16588,0,0,1-2.25887,3.397l-20.9603-5.2128a.38837.38837,0,0,0-.40537.60931l7.74138,10.37631a2.16567,2.16567,0,0,1-2.25824,3.397l-20.96092-5.21279a.36406.36406,0,0,0-.41722.16153.36861.36861,0,0,0,.01247.44778l7.74138,10.37631a2.16761,2.16761,0,0,1-1.72252,3.46314Z"/>
      </g>
    </g>
    <g>
      <path class="cls-21" d="M427.59509,133.1377v6.03443l-14.83479,8.56338v-6.91923a3.36191,3.36191,0,0,1,1.68117-2.91162l10.70616-6.18012A1.63171,1.63171,0,0,1,427.59509,133.1377Z"/>
      <path class="cls-22" d="M85.19083,331.08943v6.03443l-14.83478,8.56337V338.768a3.36193,3.36193,0,0,1,1.68116-2.91162l10.70616-6.18012A1.63171,1.63171,0,0,1,85.19083,331.08943Z"/>
      <path class="cls-23" d="M435.33062,139.68206,72.7044,349.08714l-3.92587-6.79981L431.41794,132.87464l.00179.0031a1.97737,1.97737,0,0,1,1.95074.20783,6.13755,6.13755,0,0,1,2.78517,4.8041A1.92627,1.92627,0,0,1,435.33062,139.68206Z"/>
      <ellipse class="cls-22" cx="70.74146" cy="345.68723" rx="2.26305" ry="3.92587" transform="translate(-163.36606 81.68404) rotate(-30)"/>
    </g>
  </g>
  <g>
    <g>
      <path class="cls-24" d="M492.03818,503.18507v83.22386a1.88191,1.88191,0,0,0,2.82248,1.63l52.78025-30.4512a5.64574,5.64574,0,0,0,2.824-4.89V473.25947"/>
      <path class="cls-25" d="M417.106,460.04176v83.22385a1.88191,1.88191,0,0,0,2.82248,1.63L488.117,505.54854a5.64575,5.64575,0,0,0,2.824-4.89V421.22026"/>
      <g>
        <path class="cls-26" d="M552.87812,430.97366v45.362A3.78123,3.78123,0,0,1,550.99,479.6243l-55.88861,32.315a7.56335,7.56335,0,0,1-3.79208,1.00708L475.901,430.97366Z"/>
        <path class="cls-27" d="M491.30927,430.97366v81.97269a7.56368,7.56368,0,0,1-3.79246-1.00708l-71.281-41.21086a3.76437,3.76437,0,0,1-1.90411-3.28863v-45.362Z"/>
        <polygon class="cls-28" points="485.489 500.783 420.152 463.025 420.174 434.096 485.489 471.867 485.489 500.783"/>
        <path class="cls-29" d="M414.33172,413.65335v8.27781a3.7535,3.7535,0,0,0,1.89253,3.28014l71.29216,41.21512a7.57794,7.57794,0,0,0,7.58524,0l55.884-32.31923a3.75351,3.75351,0,0,0,1.89252-3.28013v-8.27781Z"/>
        <path class="cls-30" d="M550.98559,419.26912l-71.29227-41.21507a7.5777,7.5777,0,0,0-7.58516,0l-55.884,32.31917a3.78883,3.78883,0,0,0,0,6.56026l71.29227,41.21506a7.57765,7.57765,0,0,0,7.58516,0l55.884-32.31917A3.78882,3.78882,0,0,0,550.98559,419.26912Z"/>
      </g>
    </g>
    <g>
      <g>
        <path class="cls-31" d="M510.13022,413.66868c-2.8426-6.9357-13.625-12.103-26.52533-12.103s-23.68274,5.16733-26.52523,12.103h-.75689v3.62364c0,8.6856,12.21458,15.72666,27.28212,15.72666s27.28222-7.04106,27.28222-15.72666v-3.62364Z"/>
        <ellipse class="cls-32" cx="483.60494" cy="413.13494" rx="27.28218" ry="15.72671"/>
      </g>
      <path class="cls-33" d="M480.03014,369.37446v40.498c0,1.13808,1.60049,2.06067,3.57479,2.06067s3.57481-.92259,3.57481-2.06067v-40.498Z"/>
      <path class="cls-34" d="M446.91349,333.90958v33.63466c0,11.64606,16.42726,21.087,36.69147,21.087s36.69148-9.441,36.69148-21.087V333.90958Z"/>
      <path class="cls-35" d="M446.42121,328.16379v34.08592c0,11.80232,16.64766,21.37,37.18375,21.37s37.18376-9.56764,37.18376-21.37V328.16379Z"/>
      <g>
        <ellipse class="cls-15" cx="483.60494" cy="328.1639" rx="37.18377" ry="21.36998"/>
        <path class="cls-36" d="M475.58657,347.36771a36.30032,36.30032,0,0,0,16.03663,0V335.89009H475.58657Z"/>
        <ellipse class="cls-37" cx="483.60494" cy="335.89014" rx="8.01835" ry="4.62215"/>
        <path class="cls-17" d="M483.60492,308.62664c19.49263,0,35.35086,8.76433,35.35086,19.5372s-15.85823,19.53736-35.35086,19.53736-35.35085-8.76449-35.35085-19.53736,15.85823-19.5372,35.35085-19.5372m0-1.83276c-20.53593,0-37.18376,9.56769-37.18376,21.37,0,11.80242,16.64783,21.37011,37.18376,21.37011s37.18376-9.56769,37.18376-21.37011c0-11.80227-16.64782-21.37-37.18376-21.37Z"/>
      </g>
    </g>
  </g>
  <g>
    <g>
      <g>
        <g>
          <path class="cls-38" d="M781.81728,467.81773,565.10651,339.62549a3.30346,3.30346,0,0,0-3.60319.14262V339.768L541.40646,351.3926l20.63517,12.0701v96.9712L786.72628,578.51875V476.42218A9.9955,9.9955,0,0,0,781.81728,467.81773Z"/>
          <path class="cls-39" d="M539.82942,354.22455v119.075l226.64709,116.95V488.15313a9.99535,9.99535,0,0,0-4.90908-8.60446L544.85662,351.3564A3.33178,3.33178,0,0,0,539.82942,354.22455Z"/>
          <path class="cls-40" d="M766.47634,488.15313v111.8142L437.44808,656.48091l-10.8173,227.45444a20.80168,20.80168,0,0,0,10.46658-2.78278L781.55519,682.12691a10.67959,10.67959,0,0,0,5.16822-9.52944l.003-74.12515V476.42222Z"/>
          <path class="cls-41" d="M437.44817,656.48094,426.63086,883.93535a20.6615,20.6615,0,0,1-10.3108-2.78277L206.90338,760.3106a10.25551,10.25551,0,0,1-5.18142-8.83637V676.64567Z"/>
          <g>
            <path class="cls-42" d="M766.47651,578.82436v39.0939l-.0104-.01039a10.27576,10.27576,0,0,1-5.16057,9.43856l-324.211,187.08976A20.69751,20.69751,0,0,1,426.628,817.219l10.8173-192.5193Z"/>
            <path class="cls-43" d="M766.47651,594.3066v39.0939l-.0104-.0104a10.27578,10.27578,0,0,1-5.16057,9.43857l-324.211,187.08976A20.69761,20.69761,0,0,1,426.628,832.7012l10.8173-192.51931Z"/>
            <path class="cls-44" d="M437.44526,640.18189,426.628,832.7012a20.68092,20.68092,0,0,1-10.30042-2.78277L206.9108,709.07644a10.29183,10.29183,0,0,1-5.19175-9.00253v-39.8726Z"/>
            <path class="cls-45" d="M667.78417,580.55712,437.45205,618.07083l-10.8173,192.513a20.69113,20.69113,0,0,0,10.46192-2.786L636.23826,692.82207l125.06091-72.11191a10.2703,10.2703,0,0,0,5.16259-9.42938h.01966v-39.101Z"/>
            <path class="cls-45" d="M437.44526,618.06441,426.628,810.58372a20.68092,20.68092,0,0,1-10.30042-2.78277L206.9108,686.959a10.29183,10.29183,0,0,1-5.19175-9.00253v-39.8726Z"/>
            <path class="cls-46" d="M761.30328,563.27249,551.95385,442.446a20.76718,20.76718,0,0,0-20.76808-.00059L400.5572,517.75771h0L206.90787,629.52078a10.23933,10.23933,0,0,0-4.86727,6.39318,10.55792,10.55792,0,0,0-.32448,2.59938,10.28611,10.28611,0,0,0,5.192,8.99235l146.82247,84.76408,62.59371,36.07807a20.75244,20.75244,0,0,0,9.04106,2.73867q.67112.04342,1.34374.04337a20.753,20.753,0,0,0,10.38436-2.78361l324.2105-187.09006A10.38353,10.38353,0,0,0,761.30328,563.27249Z"/>
          </g>
        </g>
        <path class="cls-47" d="M781.55519,461.35753V682.12691l-5.85257,3.38443V461.35753a7.32712,7.32712,0,0,0-3.58747-6.297L549.98563,323.66208a.43536.43536,0,0,0-.4886,0,.44454.44454,0,0,0-.24429.422v22.7782l-5.85285,3.37625V324.08411a6.3326,6.3326,0,0,1,9.56232-5.45305L775.09174,450.02947A13.21086,13.21086,0,0,1,781.55519,461.35753Z"/>
      </g>
      <path class="cls-48" d="M754.58811,678.66334,455.40185,851.51168a9.99533,9.99533,0,0,0-4.99158,8.6527V873.454L759.5776,694.83606l.0102-13.28593A3.33177,3.33177,0,0,0,754.58811,678.66334Z"/>
    </g>
    <g>
      <path class="cls-49" d="M439.99869,541.19943s11.51075,15.90874-4.33078,36.34278-62.17946,16.26633-62.34178,27.25c-.116,7.84955,6.55512,14.516,18.26055,23.33226s43.77188,25.05669,43.77188,25.05669l-22.73663,16.39513-88.31711-72.23624-1.85606-36.34278Z"/>
      <path class="cls-50" d="M314.59481,562.95567c32.292-2.113,21.77434,26.23044,33.58453,42.51094,36.665,50.5432,95.55079,61.0114,160.19747,72.73468,44.78683,8.12182,32.9346,64.97877,32.28029,78.06869-.30588,6.11936-2.19885,12.61126-7.08992,16.30146-40.50279,30.55836-68.80758,41.23066-97.58259,48.34709-4.26164,1.054-66.37009,19.61246-91.57255,12.377-87.46553-25.11074-102.20535-94.995-140.26126-132.61965a25.26055,25.26055,0,0,1-6.92568-23.19953c2.63258-12.49035-2.75172-33.22568,3.36135-43.38189,6.078-10.09792,9.94245-10.427,66.31154-42.19629C291.16,578.22425,314.59481,562.95567,314.59481,562.95567Z"/>
      <path class="cls-51" d="M306.68588,577.54221s13.06969,58.07894,52.58812,83.92666c40.92119,26.76521,124.26851,43.52221,124.26851,43.52221s-96.55923,6.90492-143.13836-28.98147C293.73567,640.05438,306.68588,577.54221,306.68588,577.54221Z"/>
      <path class="cls-52" d="M288.66671,597.34009s-1.56026,50.81431,15.31243,72.386c16.01519,20.47539,37.81705,29.92883,37.81705,29.92883s-40.98781,8.04589-56.37757-26.91275C270.21452,638.20527,288.66671,597.34009,288.66671,597.34009Z"/>
    </g>
  </g>
  <g>
    <g>
      <path class="cls-53" d="M385.14191,414.12032c9.72284-1.49775,15.17591-6.26912,16.37945-15.22379l2.5704-19.364c1.25514-7.78255-5.21677-15.72-14.3601-16.38741-7.99114-.58328-16.72113,5.41815-17.37157,14.2703a179.41345,179.41345,0,0,0-.03124,19.67194C372.95472,405.82575,376.306,415.48144,385.14191,414.12032Z"/>
      <path class="cls-53" d="M401.5751,414.27618l-.6925-9.30835c-1.5554-9.13482-20.55682-1.779-20.79689,4.66055l-.08974,10.02379C386.86818,420.43207,394.99642,421.02569,401.5751,414.27618Z"/>
      <path class="cls-54" d="M382.20791,362.74336c-7.70057,1.779-15.19068,7.66755-15.25135,15.92761a9.95582,9.95582,0,0,0,3.04765,7.585,22.05226,22.05226,0,0,1,.83306,3.98567c.10385,1.55259-.112,3.435-.00843,5.4425.08014,1.55338,6.81443,3.97525,6.81443,3.97525l8.17656,10.70514c2.14228,2.15806,14.88573,1.31945,15.33525-1.38323a66.06693,66.06693,0,0,1,5.87151-14.786c3.66143-6.90558,6.52229-16.25159-.47994-24.50151C401.40742,363.63883,391.54448,360.58638,382.20791,362.74336Z"/>
      <path class="cls-53" d="M375.92413,402.748c-3.22309.50634-6.64329-3.56778-7.21787-7.22519s2.10857-7.233,5.13715-6.01949C377.64525,391.02662,379.14723,402.24166,375.92413,402.748Z"/>
    </g>
    <g>
      <polygon class="cls-55" points="282.776 547.019 289.926 578.681 319.946 560.726 282.776 547.019"/>
      <g>
        <path class="cls-56" d="M340.28174,523.42888l22.05974,4.34568,1.31634-5.675,55.9947-3.28314L371.311,481.9616c-16.05063-10.97319-36.48644,2.46674-33.657,23.97141Z"/>
        <path class="cls-57" d="M436.32459,501.19054l-76.37893,18.015-5.95739.03276-40.98283-5.92008c-20.80851-2.04255-33.45215,10.30663-30.22964,33.70065L309.7781,562.338l58.69774,21.80728.00031.00079c26.44419,8.61895,56.69082-10.18257,66.78461-27.12573C444.79268,541.02033,437.17274,512.98393,436.32459,501.19054Z"/>
        <path class="cls-58" d="M439.83044,527.99584l-.563-14.28933c-.325-1.45929-2.59214-2.91475-2.89059-4.09047l-74.3848,18.015-4.69161-3.328-1.70213,8.55319c-3.14894,13.70213,12.24364,30.01486,34.383,30.766C418.208,564.57981,440.34159,540.68606,439.83044,527.99584Z"/>
        <path class="cls-53" d="M460.0487,321.25906s-5.06634-8.91667-4.53987-11.468,4.4391-4.91023,4.4391-4.91023,1.44132-4.87584,3.46207-5.40949,7.4962-.22184,8.99048,1.45792,4.74236,7.66124,3.76628,10.69138-5.91265,12.31129-5.91265,12.31129Z"/>
        <path class="cls-58" d="M471.08044,323.99089l-1.29288,7.75693c-.93987,5.648-16.45964,1.94052-14.928-3.3424l3.326-7.89479C459.84388,315.79584,471.88324,319.31381,471.08044,323.99089Z"/>
        <path class="cls-59" d="M470.55572,335.02649c1.73477-9.24425-14.75457-13.26581-17.52052-6.169L433.61165,374.653l-25.57178,36.25049,32.23572,25.78613s12.51417-30.64184,18.08864-49.195S470.55572,335.02649,470.55572,335.02649Z"/>
        <path class="cls-60" d="M356.45084,523.80775c-.29938,13.98469,10.93564,30.43124,33.66845,31.18234,28.9834.95761,50.84068-19.79339,49.71115-34.77212l-2.61515-45.78723s3.1263-33.08416,3.1263-43.52708c0-22.42366-27.76108-26.25848-27.76108-26.25848-18.73135,9.9518-37.10728,19.51464-47.061,26.25851l-12.68216.23826.50941,32.95788,4.88977,30.07559Z"/>
        <path class="cls-58" d="M406.09806,408.08408a8.87692,8.87692,0,0,0-5.75511-.898c-4.5146.633-15.824,6.80163-20.68816,11.64894-3.98841,3.97457-7.08554,7.62507-7.08554,7.62507C384.0972,419.3107,397.16352,413.61546,406.09806,408.08408Z"/>
        <path class="cls-53" d="M329.93862,400.06706s3.43261-8.38752,7.74012-11.92992,7.44051-3.5242,8.793-3.54241c2.85174-.03838,9.69593,9.23193,9.11592,12.19s-3.9996,4.26312-3.9996,4.26312-.46653,4.08911-2.55459,4.55312-9.61465-.60471-9.61465-.60471Z"/>
        <path class="cls-58" d="M342.4441,403.81987l-3.78836,6.89128c-2.757,5.01815-16.1737-3.61893-12.97922-8.0967l5.75244-6.34818C334.55487,392.36653,344.75026,399.67243,342.4441,403.81987Z"/>
        <path class="cls-61" d="M367.17567,430.12661l-33.27953,1.53817,5.87234-19.43344c2.89362-6.72341-11.10638-15.67294-16.17421-9.24658,0,0-26.75041,31.38169-18.93217,48.08428,5.617,12,54.383,15.31915,54.383,15.31915C381.3855,468.81372,387.74714,431.12661,367.17567,430.12661Z"/>
      </g>
    </g>
  </g>
  <g>
    <g>
      <polygon class="cls-62" points="678.381 258.481 678.42 349.183 601.14 304.43 601.101 213.728 678.381 258.481"/>
      <polygon class="cls-63" points="675.074 256.573 675.105 335.201 611.552 298.372 611.521 219.744 675.074 256.573"/>
      <polygon class="cls-64" points="663.718 265.229 663.739 318.534 620.654 293.566 620.633 240.262 663.718 265.229"/>
      <path class="cls-65" d="M674.08266,341.67707l-68.61232-39.74951-.0322-80.69349,68.61233,39.74952.03219,80.69348m4.33728,7.5063-.03922-90.70188-77.27987-44.75372.03924,90.70189,77.27985,44.75371Z"/>
      <polygon class="cls-66" points="605.991 210.897 683.271 255.65 678.381 258.482 601.101 213.728 605.991 210.897"/>
      <polygon class="cls-67" points="683.271 255.65 683.294 346.362 678.42 349.183 678.381 258.482 683.271 255.65"/>
    </g>
    <g>
      <polygon class="cls-68" points="743.629 280.642 743.669 339.344 690.637 308.591 690.598 249.889 743.629 280.642"/>
      <polygon class="cls-69" points="740.323 278.733 740.354 325.362 701.049 302.533 701.018 255.905 740.323 278.733"/>
      <path class="cls-70" d="M739.33132,331.83794l-44.3636-25.74951-.03221-48.69349,44.36362,25.74952.03219,48.69348m4.33728,7.5063-.03922-58.70188-53.03116-30.75372.03924,58.70189,53.03114,30.75371Z"/>
      <polygon class="cls-71" points="695.489 247.057 748.52 277.811 743.629 280.642 690.598 249.889 695.489 247.057"/>
      <polygon class="cls-72" points="748.52 277.811 748.543 336.523 743.669 339.344 743.629 280.642 748.52 277.811"/>
    </g>
  </g>
  <path class="cls-45" d="M557.93436,491.61253c.20735-.22369,40.53092-23.35158,40.53092-23.35158-.20983-1.40014-.54349-3.05653.35713-3.52474,1.02233-.53141,3.115.49933,4.2147,1.77929,13.98963-2.95376,20.42149-2.90316,48.25016,12.91862,36.06646,20.50532,38.25636,29.68625,46.33,44.008,2.51023,1.19222,3.84858,1.998,3.275,3.5002-.53091,1.39047-4.0253,2.11-5.79145,1.49588L657.0476,550.28839c.36258,1.60826-.25043,3.76087-1.26324,4.2677-1.331.66622-3.23469-.71458-4.08581-3.3937l-.00094-.00213c-16.58944-.68751-39.17822-10.78829-54.17258-20.24385-12.46056-7.85785-33.67176-20.48824-39.38493-33.9636-2.2021-.0051-4.349-1.10568-4.43248-2.4997C553.62291,493.035,555.69245,491.84991,557.93436,491.61253Z"/>
  <path class="cls-73" d="M554.17464,481.89228c.20736-.22369,40.53092-23.35158,40.53092-23.35158-.20983-1.40013-.54349-3.05652.35713-3.52473,1.02234-.53141,3.115.49932,4.21471,1.77928,13.98963-2.95376,20.42148-2.90316,48.25016,12.91863,36.06645,20.50532,38.25636,29.68625,46.33005,44.008,2.51022,1.19222,3.84857,1.998,3.275,3.50019-.5309,1.39047-4.0253,2.11-5.79145,1.49589l-38.05327,21.85018c.36258,1.60826-.25043,3.76088-1.26324,4.26771-1.331.66622-3.23469-.71458-4.08581-3.39371l-.00093-.00212c-16.58945-.68751-39.17822-10.78829-54.17259-20.24386-12.46056-7.85785-33.67176-20.48823-39.38493-33.96359-2.2021-.0051-4.349-1.10569-4.43248-2.4997C549.86319,483.31479,551.93273,482.12966,554.17464,481.89228Z"/>
  <g>
    <ellipse class="cls-15" cx="845.97191" cy="411.14763" rx="10.27365" ry="5.92221"/>
    <path class="cls-74" d="M856.24549,411.15015c-.00266,3.2696-4.60114,5.91981-10.27381,5.91981-5.674,0-10.27336-2.65154-10.27336-5.92247V466.5971c0,3.27083,4.59936,5.92225,10.27336,5.92225s10.27381-2.65142,10.27381-5.92225v-55.447Z"/>
    <path class="cls-75" d="M856.24549,417.87834c-.00266,3.2696-4.60114,5.9198-10.27381,5.9198-5.674,0-10.27336-2.65153-10.27336-5.92247v4.06091c0,3.27082,4.59936,5.92225,10.27336,5.92225s10.27381-2.65143,10.27381-5.92225Z"/>
    <path class="cls-76" d="M856.24549,454.30335c-.00266,3.2696-4.60114,5.91981-10.27381,5.91981-5.674,0-10.27336-2.65154-10.27336-5.92248v4.06091c0,3.27083,4.59936,5.92225,10.27336,5.92225s10.27381-2.65142,10.27381-5.92225Z"/>
    <path class="cls-17" d="M845.972,406.58838c5.25122,0,8.91064,2.40283,8.91064,4.55908s-3.65942,4.55908-8.91064,4.55908-8.91065-2.40283-8.91065-4.55908,3.65943-4.55908,8.91065-4.55908m0-1.36279c-5.67408,0-10.27369,2.65136-10.27369,5.92187,0,3.271,4.59961,5.92236,10.27369,5.92236,5.67382,0,10.27368-2.65136,10.27368-5.92236,0-3.27051-4.59986-5.92187-10.27368-5.92187Z"/>
  </g>
  <g class="cls-77">
    <g>
      <g>
        <g>
          <polygon class="cls-78" points="458.526 76.29 879.813 319.511 879.813 728.956 458.526 485.713 458.526 76.29"/>
          <polygon class="cls-79" points="879.907 582.163 857.181 480.619 837.347 480.619 745.242 649.457 879.907 727.21 879.907 582.163"/>
          <polygon class="cls-80" points="458.542 76.29 37.255 319.511 37.255 728.956 458.542 485.713 458.542 76.29"/>
        </g>
        <path class="cls-81" d="M44.52522,741.55987,436.73581,967.99278a43.61723,43.61723,0,0,0,43.61687-.00064l392.1905-226.43649a14.53907,14.53907,0,0,0,.00017-25.18217L480.33569,489.9199a43.61721,43.61721,0,0,0-43.61994.00055L44.52437,716.37768A14.53906,14.53906,0,0,0,44.52522,741.55987Z"/>
        <path class="cls-82" d="M195.13775,760.88877l218.6361,126.2238a20.61632,20.61632,0,0,0,20.61837-.00158L788.61306,682.34877a10.30818,10.30818,0,0,0-.00067-17.8533L570.04277,538.28727a20.61635,20.61635,0,0,0-20.6174-.0006L195.13756,743.03438A10.30818,10.30818,0,0,0,195.13775,760.88877Z"/>
      </g>
      <g>
        <g>
          <g>
            <g>
              <path class="cls-83" d="M54.46664,685.593l384.17287-221.7919a7.29756,7.29756,0,0,0,3.64891-6.31994v-348.728L54.46664,332.67327Z"/>
              <path class="cls-84" d="M430.13165,454.66681,66.62806,664.53244l-12.13825-7.00567V332.69215L417.9934,122.81434,430.13165,129.82Z"/>
              <polygon class="cls-85" points="167.497 281.456 167.497 592.288 66.628 650.521 66.629 643.49 161.415 588.781 161.415 284.968 167.497 281.456"/>
              <polygon class="cls-86" points="292.716 209.157 292.697 520.004 191.833 578.239 191.833 571.208 286.616 516.501 286.616 212.659 292.716 209.157"/>
              <polygon class="cls-87" points="417.993 136.825 417.952 447.697 317.052 505.948 317.052 498.918 411.835 444.21 411.835 140.38 417.993 136.825"/>
              <polygon class="cls-88" points="430.132 129.82 430.126 454.672 66.629 664.527 66.628 650.521 417.993 447.673 417.993 136.825 430.132 129.82"/>
              <path class="cls-89" d="M54.46654,332.67327V685.59292l384.1729-221.79174a7.29759,7.29759,0,0,0,3.64891-6.32V108.75317Zm250.423-130.54461V526.974L191.83264,592.24438v-324.839ZM66.62914,339.69519,179.67,274.42783V599.26616l-113.0409,65.261ZM430.12575,454.67228,317.05218,519.95219v-324.846l113.07357-65.2863Z"/>
            </g>
            <polygon class="cls-90" points="179.67 599.266 167.497 592.288 167.497 281.456 179.67 274.428 179.67 599.266"/>
            <polygon class="cls-91" points="304.89 526.974 292.716 519.997 292.716 209.157 304.89 202.129 304.89 526.974"/>
          </g>
          <polygon class="cls-92" points="430.126 454.669 417.952 447.697 417.993 136.825 430.126 129.823 430.126 454.669"/>
        </g>
        <g>
          <circle class="cls-93" cx="448.42585" cy="130.87257" r="8.53045"/>
          <path class="cls-94" d="M447.36283,136.901,71.96294,353.68346l-4.15631-7.199L443.22048,129.694l.0019.00329a2.0934,2.0934,0,0,1,2.06524.22,6.49787,6.49787,0,0,1,2.94867,5.0861A2.03933,2.03933,0,0,1,447.36283,136.901Z"/>
          <path class="cls-4" d="M439.156,141.61669a10.141,10.141,0,0,0-1.33278-3.96229,9.79163,9.79163,0,0,0-2.88146-3.206,6.50537,6.50537,0,0,0-3.67427-1.22461,5.27678,5.27678,0,0,0-2.57585.66617,5.82558,5.82558,0,0,0-2.66556,5.70972l4.46663-2.57564a1.42239,1.42239,0,0,1,.77478-.19809c1.11644,0,2.50331,1.00849,3.4399,2.6295.99068,1.71094,1.13491,3.53.45027,4.46664a1.42134,1.42134,0,0,1-.45027.41421,1.24618,1.24618,0,0,1-.55844.16226l-3.98031,2.30543a6.3582,6.3582,0,0,0,3.76441,1.33278,5.053,5.053,0,0,0,2.57542-.68464,5.60984,5.60984,0,0,0,2.68359-5.06091C439.1921,142.13907,439.17407,141.86908,439.156,141.61669Z"/>
          <path class="cls-4" d="M416.60718,154.64959a10.141,10.141,0,0,0-1.33278-3.96228,9.79163,9.79163,0,0,0-2.88146-3.206,6.50537,6.50537,0,0,0-3.67427-1.22461,5.27678,5.27678,0,0,0-2.57585.66617,5.82557,5.82557,0,0,0-2.66556,5.70971l4.46664-2.57564a1.42242,1.42242,0,0,1,.77477-.19809c1.11644,0,2.50331,1.00849,3.4399,2.6295.99069,1.71094,1.13491,3.53.45027,4.46664a1.42137,1.42137,0,0,1-.45027.41422,1.24616,1.24616,0,0,1-.55843.16225l-3.98032,2.30543a6.3582,6.3582,0,0,0,3.76441,1.33278,5.053,5.053,0,0,0,2.57542-.68464,5.60983,5.60983,0,0,0,2.68359-5.06091C416.64324,155.172,416.62521,154.902,416.60718,154.64959Z"/>
          <path class="cls-4" d="M386.14215,172.258a10.14132,10.14132,0,0,0-1.33278-3.96228,9.79167,9.79167,0,0,0-2.88146-3.206,6.50549,6.50549,0,0,0-3.67427-1.22461,5.27679,5.27679,0,0,0-2.57586.66617,5.8256,5.8256,0,0,0-2.66556,5.70972l4.46664-2.57564a1.42245,1.42245,0,0,1,.77478-.19809c1.11644,0,2.5033,1.00849,3.4399,2.6295.99068,1.71094,1.13491,3.53.45027,4.46664a1.42133,1.42133,0,0,1-.45027.41421,1.24625,1.24625,0,0,1-.55844.16226l-3.98031,2.30543a6.35815,6.35815,0,0,0,3.76441,1.33278,5.05305,5.05305,0,0,0,2.57542-.68464,5.60984,5.60984,0,0,0,2.68358-5.06091C386.1782,172.78038,386.16018,172.5104,386.14215,172.258Z"/>
          <path class="cls-4" d="M78.07092,350.15565a10.14132,10.14132,0,0,0-1.33278-3.96228,9.79178,9.79178,0,0,0-2.88146-3.206,6.50549,6.50549,0,0,0-3.67427-1.22461,5.27679,5.27679,0,0,0-2.57586.66617,5.8256,5.8256,0,0,0-2.66556,5.70972l4.46664-2.57564a1.42245,1.42245,0,0,1,.77478-.19809c1.11644,0,2.5033,1.00849,3.4399,2.6295.99068,1.71094,1.1349,3.53.45027,4.46664a1.42133,1.42133,0,0,1-.45027.41421,1.24625,1.24625,0,0,1-.55844.16226L69.08356,355.343a6.35815,6.35815,0,0,0,3.76441,1.33278,5.053,5.053,0,0,0,2.57541-.68464,5.60983,5.60983,0,0,0,2.68359-5.06091C78.107,350.678,78.08894,350.40805,78.07092,350.15565Z"/>
          <circle class="cls-95" cx="64.77358" cy="352.39895" r="8.53045"/>
        </g>
        <path class="cls-96" d="M73.07357,358.85548A20.64621,20.64621,0,0,0,84.9147,360.35C96.47684,358.2777,98.48,345.03877,98.48,345.03877s6.58548,4.04612,11.65456,1.94144c9.27769-3.85209,10.65914-15.94269,10.65914-15.94269C113.76487,393.364,100.527,456.39391,82.6262,519.95214c9.177,42.37425,14.75138,90.95629,18.394,142.86688,1.22625,13.71886-12.24351,19.71607-21.84285,16.32469,1.20708,9.59935-16.32469,11.89859-16.32469,5.51822l0-157.38357Z"/>
        <path class="cls-97" d="M73.361,526.85681l37.64058-180.30454c-.288.14379-.56195.30121-.86712.42785-5.069,2.10492-11.65421-1.94123-11.65421-1.94123s-.01187.35793-.095.93858Z"/>
        <circle class="cls-4" cx="74.97878" cy="357.2585" r="2.87406"/>
        <path class="cls-4" d="M101.10234,336.84551a10.14132,10.14132,0,0,0-1.33278-3.96228,9.79163,9.79163,0,0,0-2.88146-3.206,6.50541,6.50541,0,0,0-3.67427-1.22461,5.27679,5.27679,0,0,0-2.57586.66617,5.82558,5.82558,0,0,0-2.66556,5.70971l4.46664-2.57564a1.42245,1.42245,0,0,1,.77478-.19809c1.11644,0,2.5033,1.00849,3.4399,2.62951.99068,1.71093,1.13491,3.53.45027,4.46663a1.42136,1.42136,0,0,1-.45027.41422,1.24624,1.24624,0,0,1-.55844.16225L92.115,342.03284a6.35808,6.35808,0,0,0,3.76441,1.33278,5.05308,5.05308,0,0,0,2.57542-.68464,5.60984,5.60984,0,0,0,2.68358-5.06091C101.13839,337.36789,101.12037,337.09791,101.10234,336.84551Z"/>
        <circle class="cls-4" cx="98.0102" cy="343.94836" r="2.87406"/>
        <path class="cls-4" d="M123.28666,324.03306a10.14137,10.14137,0,0,0-1.33278-3.96228,9.79174,9.79174,0,0,0-2.88146-3.206,6.50541,6.50541,0,0,0-3.67427-1.22461,5.27679,5.27679,0,0,0-2.57586.66617,5.82559,5.82559,0,0,0-2.66556,5.70972l4.46664-2.57564a1.42237,1.42237,0,0,1,.77478-.19809c1.11644,0,2.5033,1.00848,3.4399,2.6295.99068,1.71093,1.1349,3.53.45027,4.46664a1.42145,1.42145,0,0,1-.45027.41421,1.24624,1.24624,0,0,1-.55844.16225l-3.98031,2.30544a6.35815,6.35815,0,0,0,3.76441,1.33278,5.053,5.053,0,0,0,2.57541-.68464,5.60985,5.60985,0,0,0,2.68359-5.06092C123.32271,324.55545,123.30468,324.28546,123.28666,324.03306Z"/>
        <circle class="cls-4" cx="120.0214" cy="330.64901" r="2.87406"/>
        <path class="cls-98" d="M439.8954,460.92572V307.04343l-5.86571-157.11c.62647,16.77963-13.31942,19.12872-20.96437,15.105.22992,15.97978-19.20668,19.53132-30.01531,15.431,8.19389,47.26807,17.88906,96.21514,35.68075,134.66019-8.14366,64.70512-10.93564,109.64053-10.93564,166.317,0,7.62579,20.11843,4.10028,20.11843-10.57659C434.98374,474.6639,439.89635,468.16853,439.8954,460.92572Z"/>
        <circle class="cls-4" cx="434.40205" cy="149.81846" r="2.87406"/>
        <circle class="cls-4" cx="383.05001" cy="179.36085" r="2.87406"/>
        <path class="cls-97" d="M436.25256,470.29325l-5.479-150.21553-2.86,150.79244C431.2875,472.68058,434.16083,472.13214,436.25256,470.29325Z"/>
        <path class="cls-97" d="M424.76569,166.05152a15.64246,15.64246,0,0,1-11.70039-1.01307L430.77358,317.966Z"/>
        <circle class="cls-4" cx="412.92324" cy="162.92417" r="2.87406"/>
        <path class="cls-97" d="M72.66278,530.459l6.51459,148.68477,3.26984.75785a17.97456,17.97456,0,0,0,7.92105-.74082Z"/>
        <path class="cls-99" d="M61.65316,526.52165c6.60273,4.91452,19.70844,2.09794,23.41573-6.17433"/>
        <path class="cls-99" d="M416.63029,315.97746c6.60273,4.91452,21.99614,2.68246,25.65806-6.47621"/>
      </g>
      <g>
        <g>
          <path class="cls-100" d="M478.93907,540.60688l2.3607,17.56c0,2.16758,3.05751,3.92471,6.82909,3.92471s6.82892-1.75713,6.82892-3.92471l2.37058-17.56Z"/>
          <path class="cls-101" d="M526.98426,512.89594,529.345,530.456c0,2.16758,3.05751,3.92472,6.82909,3.92472s6.82892-1.75714,6.82892-3.92472l2.37058-17.56005Z"/>
          <path class="cls-100" d="M401.44731,495.54605l2.36069,17.56c0,2.16758,3.05752,3.92472,6.8291,3.92472s6.82892-1.75714,6.82892-3.92472l2.37058-17.56Z"/>
          <path class="cls-102" d="M547.29057,407.585V519.19275a4.298,4.298,0,0,1-2.14621,3.73808l-52.70031,30.47033a8.597,8.597,0,0,1-4.31033,1.14472V391.21234Z"/>
          <path class="cls-103" d="M488.13372,391.21234V554.54588a8.5974,8.5974,0,0,1-4.31077-1.14472l-82.8447-47.82022a4.27884,4.27884,0,0,1-2.16433-3.73808V390.23515Z"/>
          <polygon class="cls-104" points="408.477 405.867 408.477 447.673 478.471 488.077 478.471 446.271 408.477 405.867"/>
          <polygon class="cls-105" points="408.477 457.129 408.477 498.949 478.471 539.353 478.471 497.533 408.477 457.129"/>
          <path class="cls-106" d="M397.88427,375.68154v13.81514a4.312,4.312,0,0,0,2.1741,3.76818l83.72144,48.32458a8.70546,8.70546,0,0,0,8.71382,0l53.55909-30.97469a4.312,4.312,0,0,0,2.1741-3.76818V393.03143Z"/>
          <path class="cls-107" d="M546.05266,389.26333,462.3311,340.93882a8.70513,8.70513,0,0,0-8.71372,0l-53.55906,30.97462a4.35255,4.35255,0,0,0,0,7.53634l83.72156,48.32451a8.70508,8.70508,0,0,0,8.71372,0l53.55906-30.97462A4.35255,4.35255,0,0,0,546.05266,389.26333Z"/>
        </g>
        <g>
          <g>
            <g>
              <path class="cls-45" d="M499.52056,378.23222c-2.31681-5.65283-11.10485-9.86437-21.619-9.86437s-19.30221,4.21154-21.61894,9.86437h-.61688v2.95338c0,7.07906,9.95528,12.81775,22.23582,12.81775s22.23592-5.73869,22.23592-12.81775v-2.95338Z"/>
              <ellipse class="cls-108" cx="477.90158" cy="377.7972" rx="22.23588" ry="12.81779"/>
              <path class="cls-45" d="M494.73334,374.50657h.01242l-.02618-.15529-.004-.02485-1.88305-11.2597H462.97083l-1.87063,11.21178c-.008.04393-.01464.08808-.02174.13222l-.016.09584H461.07a5.71224,5.71224,0,0,0-.07276.8275c0,5.3816,7.56858,9.744,16.90442,9.744s16.904-4.36243,16.904-9.744A5.71191,5.71191,0,0,0,494.73334,374.50657Z"/>
              <ellipse class="cls-108" cx="477.90158" cy="363.28519" rx="14.93093" ry="8.60688"/>
            </g>
            <path class="cls-109" d="M474.4755,339.1511v22.546c0,1.09073,1.5339,1.97494,3.42607,1.97494s3.42609-.88421,3.42609-1.97494v-22.546Z"/>
          </g>
          <g>
            <path class="cls-110" d="M512.10942,336.31131h.00179l-.00554-.028a11.81282,11.81282,0,0,0-.31745-1.6175l-6.90543-41.60024H450.91538L444.008,334.68876a11.8071,11.8071,0,0,0-.30507,1.555l-.01336.06755h.00424a11.54214,11.54214,0,0,0-.10169,1.44638c0,10.89,15.361,19.71813,34.30941,19.71813,18.94878,0,34.30974-8.82808,34.30974-19.71813A11.51205,11.51205,0,0,0,512.10942,336.31131Z"/>
            <ellipse class="cls-15" cx="477.90164" cy="294.39539" rx="27.08493" ry="15.56605"/>
            <path class="cls-111" d="M467.809,308.8328a45.69078,45.69078,0,0,0,20.18518,0v-7.94228H467.809Z"/>
            <ellipse class="cls-112" cx="477.90164" cy="300.89058" rx="10.09264" ry="5.81787"/>
            <path class="cls-17" d="M477.90163,280.16431c14.19857,0,25.74982,6.384,25.74982,14.231S492.1002,308.6265,477.90163,308.6265s-25.74982-6.38411-25.74982-14.23114,11.55125-14.231,25.74982-14.231m0-1.335c-14.95853,0-27.08492,6.96918-27.08492,15.566,0,8.597,12.12639,15.56614,27.08492,15.56614s27.08492-6.96918,27.08492-15.56614c0-8.59686-12.1264-15.566-27.08492-15.566Z"/>
          </g>
        </g>
      </g>
      <g>
        <g>
          <polygon class="cls-62" points="678.381 258.481 678.42 349.183 601.14 304.43 601.101 213.728 678.381 258.481"/>
          <polygon class="cls-63" points="675.074 256.573 675.105 335.201 611.552 298.372 611.521 219.744 675.074 256.573"/>
          <polygon class="cls-64" points="663.718 265.229 663.739 318.534 620.654 293.566 620.633 240.262 663.718 265.229"/>
          <path class="cls-65" d="M674.08266,341.67707l-68.61232-39.74951-.0322-80.69349,68.61233,39.74952.03219,80.69348m4.33728,7.5063-.03922-90.70188-77.27987-44.75372.03924,90.70189,77.27985,44.75371Z"/>
          <polygon class="cls-66" points="605.991 210.897 683.271 255.65 678.381 258.482 601.101 213.728 605.991 210.897"/>
          <polygon class="cls-67" points="683.271 255.65 683.294 346.362 678.42 349.183 678.381 258.482 683.271 255.65"/>
        </g>
        <g>
          <polygon class="cls-68" points="743.629 280.642 743.669 339.344 690.637 308.591 690.598 249.889 743.629 280.642"/>
          <polygon class="cls-69" points="740.323 278.733 740.354 325.362 701.049 302.533 701.018 255.905 740.323 278.733"/>
          <path class="cls-70" d="M739.33132,331.83794l-44.3636-25.74951-.03221-48.69349,44.36362,25.74952.03219,48.69348m4.33728,7.5063-.03922-58.70188-53.03116-30.75372.03924,58.70189,53.03114,30.75371Z"/>
          <polygon class="cls-71" points="695.489 247.057 748.52 277.811 743.629 280.642 690.598 249.889 695.489 247.057"/>
          <polygon class="cls-72" points="748.52 277.811 748.543 336.523 743.669 339.344 743.629 280.642 748.52 277.811"/>
        </g>
      </g>
      <path class="cls-113" d="M625.57,531.84536s1.16-2.95808,3.3641-7.42421,18.07987-15.73836,18.07987-15.73836l-22.43-2.99616s-7.42421,10.32429-7.42421,10.4983S625.57,531.84536,625.57,531.84536Z"/>
      <g>
        <ellipse class="cls-15" cx="846.05172" cy="411.14763" rx="10.27365" ry="5.92221"/>
        <path class="cls-114" d="M856.3253,411.15015c-.00266,3.2696-4.60114,5.91981-10.2738,5.91981-5.674,0-10.27337-2.65154-10.27337-5.92247V466.5971c0,3.27083,4.59937,5.92225,10.27337,5.92225s10.2738-2.65142,10.2738-5.92225v-55.447Z"/>
        <path class="cls-115" d="M856.3253,417.87834c-.00266,3.2696-4.60114,5.9198-10.2738,5.9198-5.674,0-10.27337-2.65153-10.27337-5.92247v4.06091c0,3.27082,4.59937,5.92225,10.27337,5.92225s10.2738-2.65143,10.2738-5.92225Z"/>
        <path class="cls-116" d="M856.3253,454.30335c-.00266,3.2696-4.60114,5.91981-10.2738,5.91981-5.674,0-10.27337-2.65154-10.27337-5.92248v4.06091c0,3.27083,4.59937,5.92225,10.27337,5.92225s10.2738-2.65142,10.2738-5.92225Z"/>
        <path class="cls-17" d="M846.05167,406.58845c5.25122,0,8.91064,2.40259,8.91064,4.55908s-3.65942,4.55933-8.91064,4.55933c-5.2511,0-8.91053-2.40283-8.91053-4.55933s3.65943-4.55908,8.91053-4.55908m0-1.363c-5.67395,0-10.27356,2.65137-10.27356,5.92212s4.59961,5.92237,10.27356,5.92237c5.67407,0,10.27368-2.65161,10.27368-5.92237s-4.59961-5.92212-10.27368-5.92212Z"/>
      </g>
      <g>
        <g>
          <g>
            <g>
              <path class="cls-38" d="M781.81728,467.81773,565.10651,339.62549a3.30346,3.30346,0,0,0-3.60319.14262V339.768L541.40646,351.3926l20.63517,12.0701v96.9712L786.72628,578.51875V476.42218A9.9955,9.9955,0,0,0,781.81728,467.81773Z"/>
              <path class="cls-117" d="M539.82942,354.22455v119.075l226.64709,116.95V488.15313a9.99535,9.99535,0,0,0-4.90908-8.60446L544.85662,351.3564A3.33178,3.33178,0,0,0,539.82942,354.22455Z"/>
              <path class="cls-118" d="M766.47634,488.15313v111.8142L437.44808,656.48091l-10.8173,227.45444a20.80168,20.80168,0,0,0,10.46658-2.78278L781.55519,682.12691a10.67959,10.67959,0,0,0,5.16822-9.52944l.003-74.12515V476.42222Z"/>
              <path class="cls-119" d="M437.44817,656.48094,426.63086,883.93535a20.6615,20.6615,0,0,1-10.3108-2.78277L206.90338,760.3106a10.25551,10.25551,0,0,1-5.18142-8.83637V676.64567Z"/>
              <g>
                <path class="cls-42" d="M766.47651,578.82436v39.0939l-.0104-.01039a10.27576,10.27576,0,0,1-5.16057,9.43856l-324.211,187.08976A20.69751,20.69751,0,0,1,426.628,817.219l10.8173-192.5193Z"/>
                <path class="cls-43" d="M766.47651,594.3066v39.0939l-.0104-.0104a10.27578,10.27578,0,0,1-5.16057,9.43857l-324.211,187.08976A20.69761,20.69761,0,0,1,426.628,832.7012l10.8173-192.51931Z"/>
                <path class="cls-44" d="M437.44526,640.18189,426.628,832.7012a20.68092,20.68092,0,0,1-10.30042-2.78277L206.9108,709.07644a10.29183,10.29183,0,0,1-5.19175-9.00253v-39.8726Z"/>
                <path class="cls-120" d="M667.78417,580.55712,437.45205,618.07083l-10.8173,192.513a20.69113,20.69113,0,0,0,10.46192-2.786L636.23826,692.82207l125.06091-72.11191a10.2703,10.2703,0,0,0,5.16259-9.42938h.01966v-39.101Z"/>
                <path class="cls-45" d="M437.44526,618.06441,426.628,810.58372a20.68092,20.68092,0,0,1-10.30042-2.78277L206.9108,686.959a10.29183,10.29183,0,0,1-5.19175-9.00253v-39.8726Z"/>
                <path class="cls-121" d="M761.30328,563.27249,551.95385,442.446a20.76718,20.76718,0,0,0-20.76808-.00059L400.5572,517.75771h0L206.90787,629.52078a10.23933,10.23933,0,0,0-4.86727,6.39318,10.55792,10.55792,0,0,0-.32448,2.59938,10.28611,10.28611,0,0,0,5.192,8.99235l146.82247,84.76408,62.59371,36.07807a20.75244,20.75244,0,0,0,9.04106,2.73867q.67112.04342,1.34374.04337a20.753,20.753,0,0,0,10.38436-2.78361l324.2105-187.09006A10.38353,10.38353,0,0,0,761.30328,563.27249Z"/>
              </g>
            </g>
            <path class="cls-47" d="M781.55519,461.35753V682.12691l-5.85257,3.38443V461.35753a7.32712,7.32712,0,0,0-3.58747-6.297L549.98563,323.66208a.43536.43536,0,0,0-.4886,0,.44454.44454,0,0,0-.24429.422v22.7782l-5.85285,3.37625V324.08411a6.3326,6.3326,0,0,1,9.56232-5.45305L775.09174,450.02947A13.21086,13.21086,0,0,1,781.55519,461.35753Z"/>
          </g>
          <path class="cls-48" d="M754.58811,678.66334,455.40185,851.51168a9.99533,9.99533,0,0,0-4.99158,8.6527V873.454L759.5776,694.83606l.0102-13.28593A3.33177,3.33177,0,0,0,754.58811,678.66334Z"/>
        </g>
        <g>
          <path class="cls-122" d="M568.06936,608.95263s9.45426-12.44375,13.57238-16.02415,10.9043-4.74043,10.9043-4.74043,8.15889,27.72477,18.79252,30.97286,62.472-36.09855,62.472-36.09855l-50.75572,14.28995-19.95256-31.20487L562.61721,584.708l-4.06011,13.68838Z"/>
          <g class="cls-123">
            <path class="cls-124" d="M550.00274,493.42985c.20736-.22368,40.53092-23.35157,40.53092-23.35157-.20982-1.40014-.54349-3.05653.35714-3.52474,1.02233-.53141,3.115.49933,4.2147,1.77928,13.98963-2.95375,20.42148-2.90315,48.25016,12.91863,36.06646,20.50532,38.25636,29.68625,46.33005,44.008,2.51022,1.19222,3.84858,1.998,3.275,3.5002-.53091,1.39047-4.0253,2.11-5.79145,1.49588L649.116,552.10571c.36258,1.60827-.25044,3.76088-1.26325,4.26771-1.331.66622-3.23468-.71458-4.0858-3.3937l-.00094-.00213c-16.58945-.68751-39.17822-10.78829-54.17259-20.24385-12.46056-7.85785-33.67176-20.48824-39.38493-33.9636-2.20209-.0051-4.349-1.10569-4.43248-2.4997C545.69129,494.85236,547.76084,493.66724,550.00274,493.42985Z"/>
          </g>
          <path class="cls-125" d="M546.243,483.70961c.20735-.22369,40.53092-23.35158,40.53092-23.35158-.20983-1.40013-.54349-3.05652.35713-3.52473,1.02233-.53141,3.115.49932,4.2147,1.77928,13.98963-2.95376,20.42149-2.90316,48.25016,12.91863,36.06646,20.50532,38.25636,29.68625,46.33,44.008,2.51023,1.19222,3.84858,1.998,3.275,3.50019-.53091,1.39047-4.0253,2.11-5.79145,1.49589l-38.05327,21.85018c.36258,1.60826-.25043,3.76088-1.26324,4.26771-1.331.66622-3.23469-.71458-4.08581-3.39371l-.00094-.00212c-16.58944-.68751-39.17822-10.78829-54.17258-20.24386-12.46056-7.85785-33.67176-20.48823-39.38493-33.96359-2.2021-.0051-4.349-1.10569-4.43248-2.4997C541.93158,485.13211,544.00112,483.947,546.243,483.70961Z"/>
          <g>
            <g>
              <g>
                <path class="cls-126" d="M663.96976,572.77408l-33.25532,9.44681c.07544-.4934-7.18347-47.33467-7.18347-47.33467l-30.86026,29.51815s4.82386,41.58628,19.2565,49.391,60.95694-21.124,60.95694-21.124C682.46965,585.52232,670.35271,570.39114,663.96976,572.77408Z"/>
                <path class="cls-97" d="M615.835,557.44623l-22.42359,12.12744c.6399,3.99243,1.72168,9.87012,3.34082,16.08325Z"/>
                <path class="cls-58" d="M672.40074,571.85634l-8.08755,3.5704c-5.88909,2.598,2.475,18.4669,7.80154,15.32613l7.67094-5.82307C684.4582,581.80942,677.2707,569.67822,672.40074,571.85634Z"/>
                <path class="cls-127" d="M484.27275,541.47775l61.84065-66.87928,3.54429-2.78011c16.98762.30408,41.67645,13.86947,54.5141,29.47408,9.79341,11.90423,17.43722,21.97639,19.1836,32.38223a27.45364,27.45364,0,0,1-10.32077,26.25485c-18.56442,14.3346-40.31845,28.924-40.31845,28.924l-27.03,29.19314Z"/>
                <path class="cls-97" d="M547.61,549.23164l3.06394-4.68458a9.56626,9.56626,0,0,0-2.01659-12.69558l-20.262-16.269L544.94855,503.923,506.7624,517.1557l-18.96424,20.50952,46.07439,16.219A11.75205,11.75205,0,0,0,547.61,549.23164Z"/>
                <path class="cls-53" d="M673.91913,571.76874l1.56259-6.70128,9.79744-5.61009,4.44651-7.99067a2.88119,2.88119,0,0,1,4.31572-.94815s6.67463,6.86592,6.34768,11.83555-3.53592,10.59314-6.1951,12.7728c-3.36235,2.756-15.671,8.96633-15.671,8.96633C675.48172,586.22089,670.35274,576.306,673.91913,571.76874Z"/>
                <path class="cls-53" d="M675.48172,565.06746l4.63555-10.05288c1.12148-2.06432,3.76-1.20161,3.33493,1.1106l-1.24237,6.67076Z"/>
              </g>
              <g>
                <g>
                  <path class="cls-58" d="M599.01961,493.20422c-6.50406-.57014-12.04525,4.49445-17.09937,15.49743-4.8682,10.59821-7.372,26.4474-7.372,26.4474a42.71264,42.71264,0,0,0,21.98266-3.65157c9.009-4.18449,13.34543-9.20075,14.17692-19.33C611.58528,501.47876,605.55183,493.77683,599.01961,493.20422Z"/>
                  <path class="cls-128" d="M600.29062,497.65661c-4.42561.04269-8.86769,3.29784-12.92894,13.35986a75.93816,75.93816,0,0,0-4.89787,18.34131s5.57539.69184,13.76955-2.763c7.97951-3.36435,11.73478-6.85833,11.86661-16.2262C608.226,501.41669,603.65461,497.57232,600.29062,497.65661Z"/>
                  <path class="cls-53" d="M600.77924,524.3513c4.86613-2.89392,7.2171-6.62411,7.32069-13.98257.12621-8.952-4.44533-12.79627-7.80914-12.71213-2.43154.02343-4.86742,1.02663-7.243,3.58528a22.999,22.999,0,0,0-2.3183,7.18812c-1.2759,8.36179,1.99246,15.62462,7.30035,16.2219A6.5883,6.5883,0,0,0,600.77924,524.3513Z"/>
                </g>
                <path class="cls-129" d="M603.94269,521.16526c-11.0591,3.10785-10.89493-19.92338-3.65207-23.50865l16.977-6.10577-1.37514,23.90789Z"/>
              </g>
            </g>
            <g>
              <path class="cls-130" d="M657.77146,502.38639c-5.20615,6.24425-12.78381,10.59028-24.22363,10.46215l9.65149-13.78774Z"/>
              <path class="cls-53" d="M606.10046,516.1478c-5.20013-10.80047-4.16716-19.569,3.99882-26.9531L627.78,473.25924c6.95288-6.62771,19.38989-5.59958,26.36551,3.12565,6.0966,7.62574,6.08763,20.53449-2.35677,27.29229a218.61517,218.61517,0,0,1-19.741,13.597C622.83743,522.6713,610.82626,525.96308,606.10046,516.1478Z"/>
              <path class="cls-131" d="M659.73742,483.66624c3.523,8.96286,3.50418,19.08921-5.47111,23.6448-7.45973,3.78634-14.94565-4.55027-21.48131-20.824l-3.08767,3.04511a2.00553,2.00553,0,0,1-2.366.33415l-1.078-.58588a1.385,1.385,0,0,0-1.74666.34831,15.67334,15.67334,0,0,1-5.40656,4.47762c-1.74949.76511-3.31647-.99546-3.31647-.99546l-14.665,4.259c3.56839-5.57594,2.349-2.49041,9.90713-16.94767,4.41251-8.44032,11.82877-17.7593,24.94537-16.41386C645.598,464.99577,655.46593,472.79921,659.73742,483.66624Z"/>
              <path class="cls-53" d="M607.7546,495.88985c-2.57917-3.02538-.526-9.17339,2.907-12.10011s8.85632-2.41736,9.52515,1.50153C621.02639,490.21074,610.33377,498.91523,607.7546,495.88985Z"/>
            </g>
          </g>
          <path class="cls-132" d="M398.21777,508.55751c16.788-1.35794,29.89533,9.077,45.52852,7.579,68.95578-6.60751,107.11377,40.51441,130.57016,84.88656,21.27236,40.24066,47.29589,73.91917,46.64158,87.00909a25.36612,25.36612,0,0,1-7.08992,16.30146c-47.234,49.19911-138.75747,99.6068-189.8625,112.14137a25.01925,25.01925,0,0,1-12.93817-.21871C323.67265,790.90045,230.22771,733.857,192.1718,696.23235a25.26057,25.26057,0,0,1-6.92568-23.19954c2.63258-12.49035,7.2649-30.966,13.32562-41.15354C205.37563,620.44255,294.15186,569.26934,350.521,537.5,374.783,523.8261,398.21777,508.55751,398.21777,508.55751Z"/>
          <g>
            <path class="cls-133" d="M546.41157,471.98871c-20.83494,2.04011-50.48436,19.7641-58.31415,25.63644-7.03071,5.273-7.31915,16.59574-5.44681,20.17021,5.32538,10.16663,20.46837,21.77275,50.2766,31.17021,6.53711,1.88379,17.52046-12.97114,10.67387-17.86688-12.65881-9.04224-25.41855-18.197-25.41855-18.197l26.766-8.97872C571.06006,492.64592,564.78486,470.18964,546.41157,471.98871Z"/>
            <path class="cls-58" d="M550.38472,538.3273l-6.99163-5.4105c-5.08947-3.94062-15.05855,10.97232-9.7598,14.15982l8.77389,3.9712C547.37645,553.66994,554.61953,541.57184,550.38472,538.3273Z"/>
            <path class="cls-53" d="M549.96976,539.34128s13.97339,5.29653,16.79214,10.897c3.31309,6.58257,3.13871,15.08324,2.26685,17.48087s-7.62881-.08719-10.2444-1.22061-7.498-8.23911-7.498-8.23911c-5.88508-3.13871-7.47672-6.29212-9.67826-9.34363C539.99368,546.10618,544.561,538.088,549.96976,539.34128Z"/>
          </g>
          <path class="cls-134" d="M350.521,537.5l96.21394,17.08979s50.312,12.59029,75.9558,44.63176c18.04773,22.55028,66.17324,128.06526,66.17324,128.06526s-51.44647-70.91449-78.7324-103.80994-85.54927-57.76967-85.54927-57.76967l-90.01674-19.15972Z"/>
        </g>
      </g>
    </g>
  </g>
  <g>
    <g>
      <g>
        <path class="cls-135" d="M823.41925,191.82715a158.40749,158.40749,0,1,1-112.01074,46.39648,157.36871,157.36871,0,0,1,112.01074-46.39648m0-18.17383a176.58106,176.58106,0,1,0,176.58081,176.58106A176.58115,176.58115,0,0,0,823.41925,173.65332Z"/>
        <circle class="cls-136" cx="823.41915" cy="350.23435" r="163.32991"/>
      </g>
      <g>
        <g>
          <g>
            <path class="cls-137" d="M749.50935,209.51134h0l-24.50021,14.981h0s-11.27565-14.65637,2.65859-23.17665S749.50935,209.51134,749.50935,209.51134Z"/>
            <path class="cls-138" d="M801.95487,219.20615h0l-92.95029,56.83572h0s-31.63865-37.38628,21.22588-69.711S801.95487,219.20615,801.95487,219.20615Z"/>
            <ellipse class="cls-139" cx="755.47973" cy="247.62401" rx="54.47489" ry="13.85376" transform="translate(-18.23405 430.47441) rotate(-31.44427)"/>
          </g>
          <g>
            <path class="cls-140" d="M898.9,209.51134h0l24.5002,14.981h0s11.27566-14.65637-2.65859-23.17665S898.9,209.51134,898.9,209.51134Z"/>
            <path class="cls-141" d="M846.45448,219.20615h0l92.95029,56.83572h0s31.63865-37.38628-21.22588-69.711S846.45448,219.20615,846.45448,219.20615Z"/>
            <ellipse class="cls-139" cx="892.92962" cy="247.62401" rx="13.85376" ry="54.47489" transform="translate(215.85602 880.24736) rotate(-58.55573)"/>
          </g>
        </g>
        <g>
          <path class="cls-142" d="M730.11067,484.29116q5.6809,3.96134,11.69961,7.45045h7.69684l29.50861-32.95584-29.22764-11.80344Z"/>
          <path class="cls-143" d="M917.51943,484.29116q-5.68092,3.96134-11.69962,7.45045H898.123l-29.50861-32.95584L897.842,446.98233Z"/>
          <g>
            <rect class="cls-144" x="819.96601" y="210.79158" width="6.90627" height="18.08187"/>
            <path class="cls-145" d="M812.44264,198.54865h21.953a7.97359,7.97359,0,0,1,7.97359,7.97359v0a7.97359,7.97359,0,0,1-7.97359,7.97359h-21.953a7.9736,7.9736,0,0,1-7.9736-7.9736v0a7.97359,7.97359,0,0,1,7.97359-7.97359Z"/>
          </g>
          <circle class="cls-146" cx="823.41915" cy="350.23435" r="125.37715"/>
          <circle class="cls-8" cx="823.41915" cy="350.23435" r="99.23025"/>
          <path class="cls-147" d="M823.41925,255.05518h-.186q-.598.00145-1.19434.00976l-.09668.00147.20215,13.27734q.6361-.00952,1.2749-.00977v-13.2788Zm-10.30981.55175q-.58485.063-1.16675.1333l-.0166.002-.01709.00195-.03174.00391-.00708.00049-.22534.02783,1.626,13.17871q.62879-.07764,1.26075-.14551l-1.42212-13.20264Zm-10.188,1.66114c-.48169.10547-.96021.21435-1.439.32763l3.04859,12.92383q.61707-.145,1.23706-.28125l-2.84668-12.97021Zm-9.94727,2.76025c-.11816.04-.23974.08106-.35766.12158l-.01148.00391-.02929.01025-.03663.01221-.00415.00146q-.19444.06666-.38891.13428l-.00122.00049-.04273.01514h-.00024l-.04126.01416-.01172.00439-.02417.0083-.02344.0083-.011.00342c-.13477.04736-.27539.09668-.40992.14453l4.44092,12.51416q.59693-.21167,1.19776-.41455l-4.24488-12.582Zm-9.58618,3.8291c-.44507.207-.89233.41895-1.33374.63184l5.77832,11.95605q.57093-.27612,1.14673-.54345L783.388,263.85742Zm-9.113,4.8501c-.41992.25342-.84155.51269-1.25683.77246l7.04126,11.2583q.538-.33618,1.08154-.66455l-6.866-11.36621Zm-8.53393,5.80859c-.10889.083-.2124.16211-.3208.24561l-.00244.00195-.01587.01221-.02222.01709-.00806.00635q-.36291.279-.72265.562l-.00562.00488-.02417.01856-.01513.0122-.0105.0083-.01856.01465,8.21631,10.43164q.49878-.39258,1.00391-.77832l-8.0542-10.55713Zm-7.85767,6.69483c-.28222.26855-.56689.542-.84594.814l-.00953.00928-.01635.01562-.01953.019-.00708.00683q-.082.07985-.16333.15967l9.29174,9.48633q.45411-.44458.9148-.88232l-9.14478-9.62842Zm-7.09106,7.50244c-.06714.07959-.13135.15527-.19849.23486l-.00293.00342-.01709.02051-.01025.01221-.01514.01806-.01758.021-.00683.00781-.02759.03271-.00439.00538-.02539.03027-.0022.00293q-.19189.22851-.38257.4585l-.00073.001-.02832.03418-.001.00147-.05786.06982-.0022.00293-.02417.0293-.00806.00976-.01806.022-.01026.0122-.01391.0166-.02857.03516-.00634.00781-.02076.02491-.0017.002-.01294.01611,10.259,8.43067q.40356-.49073.81445-.97559l-10.12817-8.58789Zm-6.24146,8.22266c-.27588.40771-.54785.81591-.81762,1.228l11.10913,7.27442q.34789-.53175.70385-1.05713L744.55084,296.936Zm-5.31591,8.84912c-.13062.24658-.262.49755-.39039.7456l-.01367.02686-.00464.00879-.01831.03515-.00048.001q-.12672.24536-.25245.4917l11.83252,6.02685q.28785-.56542.58448-1.126l-11.73706-6.21Zm-4.32373,9.37353q-.27174.68555-.53321,1.376l12.41821,4.70263q.22486-.59325.4585-1.18261l-12.3435-4.896Zm-3.27613,9.79q-.067.24464-.13305.48877v.00049l-.0105.03906-.002.00733-.01074.04052-.00415.01514-.00586.022-.00659.02442-.00391.01416-.00732.02734-.001.00439c-.02539.09473-.04907.18409-.074.27881l-.001.00342-.00757.0293-.00341.0122-.0066.0254-.00488.019-.00513.019-.01074.04053-.00073.0039c-.0271.103-.054.20655-.08057.30958l12.85718,3.31933q.15856-.61451.32642-1.22461l-12.804-3.51953Zm-2.18847,10.0874q-.11684.72731-.22242,1.459l13.14209,1.90039q.09118-.62916.19141-1.25537l-13.11108-2.104Zm-1.0813,10.26709q-.00917.18237-.01783.36475l-.00024.00488-.00195.03906-.002.041v.002l-.0017.03565v.00342c-.00635.13623-.01221.272-.01807.40869l-.00049.0122-.00073.021-.00122.02686-.00049.0122-.00171.04053h0q-.00915.23-.01758.46094l13.27051.47412q.02271-.63648.05518-1.27051l-13.26172-.67676Zm13.283,9.58448-13.25831.74072c.02759.49365.0586.98.09375,1.47168l13.24512-.94385q-.045-.63354-.08056-1.26855Zm.97363,8.83349-13.10083,2.168c.06128.37109.12549.74414.19116,1.11328l.00195.01221.00367.02q.02746.15454.05542.3081l13.06543-2.37109q-.11316-.624-.2168-1.25049Zm1.92358,8.66309-12.78662,3.582c.03076.10889.05982.21289.09082.32178l.00366.01269.00977.03418.00781.02783.00391.01367.00805.02833.00367.01269.009.03125.00269.00977.011.03808.00073.00293.01221.043.00147.0044.01049.03613.00318.01123.0083.0293.00391.01318.00854.03027.00342.01123.01123.03907.00439.01562.00659.02295.00586.01953.00586.02.00611.02148.00439.01514.0166.05664.00025.00147.00879.02978.00219.00733.009.03125.00122.00439c.01367.04688.02588.08887.03979.13574l.00122.00391.009.03076.00244.00879.0249.084.00586.02.00415.01416.00879.02979.00293.00976.0249.084,12.729-3.78125q-.18016-.60718-.35156-1.21826Zm2.85669,8.39941-12.31909,4.95606q.08532.2124.17163.42431l.00244.00537.03223.07911.00635.01562.00927.02246.00708.01709.00928.02295.00659.01563.01343.03271.0061.01563.01148.02734.00586.01465.01123.02685.00439.01074.01465.03565.00147.00342q.123.29809.2478.59521l12.24048-5.14795q-.24573-.58447-.48267-1.17285Zm3.75708,8.04151-11.70679,6.26709q.141.26367.28394.52636l.00122.00244.01929.03565.00293.00537.02026.03711.00537.00976.01367.0254.01.01806.009.0166.011.02.00684.0127.02686.04931.00268.0044.01587.0293.00146.00293c.09229.168.18262.332.27588.49951l11.60791-6.44825q-.308-.55443-.60742-1.11376Zm4.61133,7.59179-10.95923,7.498q.3285.48046.6626.95605l.01758.02539.00879.01221.01855.02637.00415.00586q.06519.093.13086.18554l10.842-7.667q-.36695-.51855-.72534-1.04248Zm5.40845,7.05371-10.08643,8.63672c.064.07471.12866.1499.19263.22461l.00244.00244.06616.07715.00293.00293.01929.02246.00586.00684.02.02295.00366.00439.06616.07666.00171.002c.13062.1504.26367.30274.395.45264l.00415.0044.01465.01709.01636.01855.00781.00879q.0747.085.14941.16943l9.95215-8.791q-.42078-.47608-.834-.959Zm6.13891,6.43262-9.09814,9.67236c.07373.06934.147.1377.221.207l.01245.01172.00683.00635.02881.02686h.00025q.28491.26586.57177.52929l.01026.00977.01611.01465.0188.01709.00171.002c.06592.06006.12866.11768.19458.17774l8.948-9.81153q-.46948-.42772-.93238-.86328Zm6.79493,5.7334-8.00318,10.59619q.52076.39258,1.04614.77881l.01685.01221.01318.00976.10816.0791,7.83838-10.71875q-.51306-.375-1.01953-.75732Zm7.36962,4.96338-6.81079,11.39941c.26953.16113.53809.31983.80933.478l.00757.00439.02319.01368.03.01757.00366.002.03784.02246.00489.00244.03442.02.00391.00244.27759.16113h0l.03637.02051.00366.00244,6.63306-11.50342q-.55005-.31713-1.09473-.64306Zm7.85816,4.1333-5.53247,12.07129q.67017.30762,1.34619.60449l5.34351-12.15625q-.58081-.25562-1.15723-.51953Zm8.25586,3.251-4.18311,12.603q.36987.12232.74121.24268l.00708.00195.0315.01026.01245.0039.02685.00879.03809.01221.00977.00342.0332.01025.00073.00049c.16821.05371.33423.10644.50269.15967l3.98584-12.66651q-.60536-.19042-1.2063-.39013Zm8.5603,2.33056-2.78345,12.98389.16651.03564.00976.002.01343.00293.0354.00732.00073.00049q.3827.08056.76612.15869l.00244.00049.04223.00879.00269.00049.04419.00878.00244.00049.0398.0083.00952.002.03344.00634.01075.00245.03369.00683.00854.00147c.07471.01513.14942.03027.22437.04492l2.58032-13.02588q-.62329-.123-1.24292-.25635Zm8.77148,1.38623-1.35815,13.209c.08447.00879.1687.01709.25317.02588l.01709.00146.01709.002.02686.00244.01367.00147.03272.00342.00952.00049.13208.01318.00635.00049.0354.00342.01147.00146.03272.00293.01147.001.03052.00293.04858.00488h.00171l.032.00342.00757.00049c.25025.02392.49732.04638.74829.06835l1.15406-13.229q-.63356-.05493-1.26417-.11963Zm10.1648.417q-.63537.01245-1.27319.01563l.06323,13.27881c.02954-.00049.05908-.00049.08862-.00049h.00928l.03076-.00049h.03784c.18262-.00146.3667-.00293.54908-.00537h.03466l.02832-.00049.01172-.00049.03906-.00048h.00171q.32263-.00439.64429-.01075l-.26538-13.27588Zm8.87036-.65429q-.62878.08057-1.26025.15185l1.48608,13.19532q.412-.04616.823-.0962l.002-.00048.04419-.00538.01123-.00146.02857-.00342.02588-.00293.012-.00146.03125-.00391.00464-.00049c.16137-.02.32031-.04.48169-.06054l-1.69019-13.1709Zm8.73071-1.60694q-.616.14868-1.23584.2876l2.91016,12.95606q.60645-.13623,1.21-.28028l.00757-.00146.02734-.00684c.06275-.01465.13013-.03125.19287-.04638l-3.11206-12.9087Zm8.49781-2.54736q-.59583.2146-1.19605.42041l4.30664,12.561q.69837-.23951,1.39185-.48926L851.192,427.30957Zm8.17163-3.46q-.56946.27833-1.1438.54883l5.65015,12.0166c.31591-.14844.62548-.2959.93945-.44775l.00586-.00293.0271-.01319.0083-.0039.02588-.0127.01147-.00537.03955-.01953.01831-.00879.019-.00928.01757-.0083.02051-.01025.01441-.00684.18286-.08935-5.83667-11.92725Zm7.75268-4.33154q-.53649.3391-1.07837.67041l6.92115,11.33252.11963-.07325q.44787-.27465.89257-.55371l.01758-.01123.009-.00586c.071-.04443.14379-.09033.21435-.13476l-7.096-11.22412Zm7.24341-5.14844q-.497.39551-1.00024.7832l8.10547,10.51807c.38208-.29444.75854-.58887,1.136-.88916l.00586-.00488.01953-.01514-8.2666-10.39209Zm6.64942-5.90234q-.45191.44677-.9104.88671l9.19116,9.584q.2058-.19776.41113-.397l.00757-.00733.02-.01953.00757-.00732.03051-.0293.01661-.0166.01123-.01074.021-.02051.009-.00879q.2622-.25488.52221-.5127l-9.33764-9.44091Zm5.97558-6.584q-.40137.49291-.80957.97949l10.16943,8.53858.03931-.04688.0061-.00732.01514-.01807q.2798-.334.5564-.67041l.00561-.00635.01831-.02246.01246-.01513.01-.01221c.0813-.09912.15967-.19483.24048-.29395l.001-.001.0166-.02051.011-.01367.00757-.00928-10.29981-8.38086Zm5.22876-7.187q-.34533.53321-.69873,1.06055l11.03125,7.39209c.15625-.2334.31543-.47315.46948-.708l.00562-.0083.01587-.02393.00512-.00781.05249-.08008.00367-.00586.01831-.02783.00049-.001c.08007-.12207.16137-.24658.241-.36963l-11.14453-7.22021Zm4.41724-7.7041q-.28529.56689-.5791,1.1289l11.76757,6.15235c.228-.436.45191-.87207.67334-1.3125l-11.86181-5.96875Zm3.55127-8.1333q-.22193.59472-.4524,1.18506l12.36719,4.835c.14307-.36621.283-.73047.42188-1.09912l.00122-.00293.01025-.02784.00977-.02588.00293-.00732q.04028-.10767.08032-.21533l-12.44116-4.6416Zm2.64233-8.46875q-.156.61523-.32056,1.22656l12.821,3.457.04761-.17773.00024-.001.01-.03711.00317-.0127.00513-.01806c.105-.394.20679-.78565.30664-1.18115l-12.87329-3.25586Zm1.70361-8.71094q-.08789.62915-.1853,1.25586l13.12134,2.04.00171-.01123.0039-.02588.00245-.01514.00512-.03369.00122-.00684q.08716-.56616.16822-1.13525l.00073-.00537.00537-.03711.00122-.0083.00562-.04.00439-.03125.001-.00635.0144-.103-13.15137-1.83643Zm.75171-8.86035q-.01941.6372-.04882,1.271l13.26464.61329q.03077-.665.05225-1.332l.00049-.01123.001-.03027.00049-.0166.00074-.02442.00073-.021.00024-.01221.001-.02588-13.27271-.41064Zm13.041-9.91211L905.0799,343.915q.04833.63209.08691,1.26758l13.25439-.80469c-.022-.36035-.04614-.72461-.072-1.084l-.00048-.00733-.002-.02637-.00146-.02246-.00122-.01465q-.01135-.15819-.02344-.3164Zm-1.3396-10.23633-13.05347,2.43506q.1161.62329.2229,1.24951l13.09009-2.23144c-.02441-.144-.0498-.29053-.075-.43409l-.0022-.01269-.00415-.02344-.00342-.019-.00366-.02051-.0039-.022-.00342-.02-.00562-.03125-.00317-.01856-.00537-.02929-.00318-.019-.00415-.023-.00341-.01953-.00416-.02246-.00317-.01806-.00537-.03028-.00293-.01611-.0061-.03467-.00318-.01758-.00439-.02344-.00318-.01855-.00439-.02441-.00317-.01709-.00684-.03809-.00024-.002-.00806-.04395-.00073-.0039-.00757-.042-.00025-.001q-.037-.20434-.07519-.40723Zm-2.44385-10.02881-12.7102,3.84375q.1831.60645.35742,1.21582l12.7688-3.64453c-.04785-.168-.0979-.34131-.14673-.50879l-.0022-.00781-.00806-.02686-.00537-.01855-.00488-.01758q-.12268-.41822-.24878-.83545Zm-3.52392-9.70361-12.21509,5.208q.24865.583.48852,1.17089l12.29493-5.0166q-.18678-.45776-.37793-.91259l-.001-.00245-.03491-.08252-.00806-.019-.00635-.01514-.01294-.03076-.00171-.00439c-.04174-.09863-.08349-.19678-.12548-.29541Zm-4.55957-9.26123L894.877,310.18164q.3109.553.613,1.11133l11.67627-6.32422-.053-.09766-.00488-.00927-.01416-.02588-.00268-.00489-.04615-.085-.00488-.00879-.0144-.02636-.00318-.00586c-.10913-.2002-.2168-.39551-.32739-.59473l-.00244-.00439-.0232-.042-.01171-.021-.00635-.01123-.01709-.03125-.002-.00293q-.08935-.1604-.17919-.3208Zm-5.5376-8.71192-10.80469,7.71924q.36913.5171.73047,1.03906l10.92261-7.55126-.06665-.0962-.00293-.00439-.01563-.02246-.01391-.02-.00733-.01026q-.19629-.28344-.39477-.56445l-.00245-.00342-.02-.0288-.011-.01563-.01172-.01611-.0127-.01807-.00683-.00977c-.09473-.13427-.18726-.26416-.28247-.39746ZM894.47,286.90137l-9.90942,8.83935q.423.47388.83862.95459l10.04444-8.68506c-.32105-.37158-.647-.74267-.97364-1.10888Zm-7.2771-7.32178-8.90039,9.85449q.47169.42553.93653.85889l9.05127-9.71631q-.36951-.34423-.74244-.68408l-.00756-.00684-.02173-.02-.0127-.01172-.00854-.00732c-.09888-.09033-.19507-.17773-.29444-.26709Zm-8.02319-6.49609-7.78613,10.75634q.51452.37281,1.02319.75293l7.95166-10.63476c-.04736-.03516-.09448-.0708-.1416-.106l-.01538-.01123-.01441-.01074c-.16967-.12647-.33837-.251-.50879-.376l-.00415-.00293-.06762-.0498-.02271-.0166-.00805-.00586q-.20251-.148-.406-.29541Zm-8.67725-5.5918-6.5769,11.53613q.55152.31421,1.09766.63672l6.75512-11.43213q-.635-.375-1.27588-.74072Zm-9.23291-4.61768-5.28418,12.18262q.58264.25269,1.16016.51367l5.47314-12.09814q-.16515-.07471-.33056-.14893l-.01074-.00488-.02564-.01172-.01538-.00684-.00317-.00146c-.21729-.09717-.42969-.19092-.648-.28662l-.01441-.00635L861.54865,263q-.1443-.063-.28907-.126Zm-9.68042-3.58447-3.92358,12.686q.60572.1875,1.20776.38427l4.12134-12.62353-.10547-.03418-.01538-.00488-.01709-.00586-.03442-.01075-.00342-.00146q-.613-.19848-1.22974-.38965ZM841.565,256.78271l-2.5166,13.03809q.62365.12085,1.24365.25049l2.71973-12.99756c-.14868-.03076-.29761-.062-.44678-.09228l-.03149-.00635-.0061-.00147c-.26636-.0542-.52979-.10644-.79688-.15869l-.00635-.001-.032-.00634-.00342-.001-.05053-.00976-.02295-.0044-.01465-.00293-.03-.00586-.00562-.001Zm-10.2268-1.40283-1.09009,13.23389q.63391.05274,1.26465.11426l1.2937-13.21582c-.14063-.01367-.2876-.02783-.42871-.041l-.023-.00195-.01343-.00147-.0376-.00341h-.00195q-.29591-.02784-.592-.05323l-.01025-.001-.02686-.002-.02222-.00195-.00854-.001c-.10034-.0083-.20313-.01709-.30371-.02539Z"/>
        </g>
      </g>
      <path class="cls-139" d="M729.31883,483.74237a163.373,163.373,0,0,0,188.2006,0Z"/>
    </g>
    <g>
      <text class="cls-148" transform="translate(788.56943 342.46736)">7-9</text>
      <text class="cls-149" transform="translate(761.5372 385.31697)">hours</text>
    </g>
  </g>
  <g>
    <circle class="cls-135" cx="933.89066" cy="466.90079" r="44.86102"/>
    <g>
      <rect class="cls-8" x="918.66042" y="460.64992" width="9.73727" height="29.26865" transform="translate(-65.58131 792.24119) rotate(-45)"/>
      <rect class="cls-8" x="937.61854" y="448.22311" width="9.73727" height="43.82756" transform="translate(1276.48926 1469.01295) rotate(-135)"/>
    </g>
  </g>
</svg>
