<svg id="Layer_1" data-name="Layer 1" xmlns="http://www.w3.org/2000/svg" xmlns:xlink="http://www.w3.org/1999/xlink" viewBox="0 0 1000 1000">
  <defs>
    <style>
      .cls-1, .cls-37, .cls-47 {
        fill: none;
      }

      .cls-2 {
        fill: url(#linear-gradient);
      }

      .cls-3 {
        fill: #6b483c;
      }

      .cls-4 {
        fill: url(#linear-gradient-2);
      }

      .cls-5 {
        fill: #366d26;
      }

      .cls-6 {
        fill: url(#linear-gradient-3);
      }

      .cls-7 {
        fill: #6e9e4f;
      }

      .cls-8 {
        fill: #b8cbd8;
      }

      .cls-9 {
        fill: #9bb0c4;
      }

      .cls-10 {
        fill: #87a1af;
      }

      .cls-11 {
        fill: #c7d8e2;
      }

      .cls-12 {
        fill: #5a9137;
      }

      .cls-13 {
        fill: url(#linear-gradient-4);
      }

      .cls-14 {
        fill: url(#linear-gradient-5);
      }

      .cls-15 {
        fill: #f2f2f2;
      }

      .cls-16 {
        fill: #e2e2e2;
      }

      .cls-17 {
        fill: #fff;
      }

      .cls-18 {
        fill: #303030;
      }

      .cls-19 {
        fill: #424242;
      }

      .cls-20 {
        fill: url(#linear-gradient-6);
      }

      .cls-21 {
        fill: url(#linear-gradient-7);
      }

      .cls-22 {
        fill: #a0674a;
      }

      .cls-23 {
        fill: #f48f14;
      }

      .cls-24 {
        fill: #323f4c;
      }

      .cls-25 {
        fill: #27343d;
      }

      .cls-26 {
        fill: url(#linear-gradient-8);
      }

      .cls-27, .cls-28 {
        fill: #dd7b19;
      }

      .cls-27 {
        opacity: 0.5;
      }

      .cls-29 {
        fill: #ffbda3;
      }

      .cls-30 {
        fill: #303d49;
      }

      .cls-31 {
        fill: url(#linear-gradient-9);
      }

      .cls-32 {
        fill: url(#linear-gradient-10);
      }

      .cls-33 {
        fill: #cddce8;
      }

      .cls-34 {
        fill: #e48f7c;
      }

      .cls-35 {
        fill: url(#linear-gradient-11);
      }

      .cls-36 {
        fill: url(#linear-gradient-12);
      }

      .cls-37, .cls-47 {
        stroke: #303030;
        stroke-miterlimit: 10;
      }

      .cls-37 {
        stroke-width: 2.04338px;
      }

      .cls-38 {
        fill: url(#linear-gradient-13);
      }

      .cls-39 {
        fill: #c93535;
      }

      .cls-40 {
        fill: url(#linear-gradient-14);
      }

      .cls-41 {
        clip-path: url(#clip-path);
      }

      .cls-42 {
        fill: url(#linear-gradient-15);
      }

      .cls-43 {
        fill: url(#linear-gradient-16);
      }

      .cls-44 {
        fill: url(#linear-gradient-17);
      }

      .cls-45 {
        fill: url(#linear-gradient-18);
      }

      .cls-46 {
        fill: url(#linear-gradient-19);
      }

      .cls-47 {
        stroke-width: 5.6182px;
      }
    </style>
    <linearGradient id="linear-gradient" x1="10758.53195" y1="454.66992" x2="11599.90411" y2="454.66992" gradientTransform="matrix(-1, 0, 0, 1, 11708.67355, 0)" gradientUnits="userSpaceOnUse">
      <stop offset="0" stop-color="#e6f4ff"/>
      <stop offset="1" stop-color="#c0e3ff"/>
    </linearGradient>
    <linearGradient id="linear-gradient-2" x1="722.90424" y1="374.47994" x2="782.0254" y2="513.02651" gradientUnits="userSpaceOnUse">
      <stop offset="0" stop-color="#77bf49"/>
      <stop offset="0.99995" stop-color="#366d26"/>
    </linearGradient>
    <linearGradient id="linear-gradient-3" x1="154.78527" y1="560.05828" x2="936.34095" y2="560.05828" gradientUnits="userSpaceOnUse">
      <stop offset="0.00005" stop-color="#9dcc52"/>
      <stop offset="1" stop-color="#649e3f"/>
    </linearGradient>
    <linearGradient id="linear-gradient-4" x1="154.78527" y1="523.01438" x2="936.34095" y2="523.01438" xlink:href="#linear-gradient-3"/>
    <linearGradient id="linear-gradient-5" x1="798.43447" y1="328.23375" x2="907.61493" y2="578.34219" xlink:href="#linear-gradient-2"/>
    <linearGradient id="linear-gradient-6" x1="373.07721" y1="382.44815" x2="684.05593" y2="854.27793" gradientUnits="userSpaceOnUse">
      <stop offset="0.00005" stop-color="#e6ac72"/>
      <stop offset="1" stop-color="#b3703f"/>
    </linearGradient>
    <linearGradient id="linear-gradient-7" x1="471.80298" y1="317.37889" x2="782.7817" y2="789.20868" xlink:href="#linear-gradient-6"/>
    <linearGradient id="linear-gradient-8" x1="472.706" y1="385.08752" x2="556.18008" y2="578.12132" gradientUnits="userSpaceOnUse">
      <stop offset="0.00005" stop-color="#ffcb48"/>
      <stop offset="1" stop-color="#e68e2b"/>
    </linearGradient>
    <linearGradient id="linear-gradient-9" x1="516.0506" y1="366.34391" x2="599.52467" y2="559.37771" xlink:href="#linear-gradient-8"/>
    <linearGradient id="linear-gradient-10" x1="524.05938" y1="362.88066" x2="607.53345" y2="555.91445" xlink:href="#linear-gradient-8"/>
    <linearGradient id="linear-gradient-11" x1="529.13171" y1="320.78224" x2="539.92658" y2="348.19108" gradientUnits="userSpaceOnUse">
      <stop offset="0" stop-color="#966551"/>
      <stop offset="1" stop-color="#805345"/>
    </linearGradient>
    <linearGradient id="linear-gradient-12" x1="545.92946" y1="304.89405" x2="571.21294" y2="369.09038" xlink:href="#linear-gradient-11"/>
    <linearGradient id="linear-gradient-13" x1="186.67434" y1="531.00086" x2="167.00011" y2="655.30626" gradientUnits="userSpaceOnUse">
      <stop offset="0" stop-color="#67a63f"/>
      <stop offset="0.99995" stop-color="#366d26"/>
    </linearGradient>
    <linearGradient id="linear-gradient-14" x1="132.31148" y1="104.87306" x2="402.8356" y2="458.70428" gradientTransform="matrix(1, 0, 0, 1, 0, 0)" xlink:href="#linear-gradient"/>
    <clipPath id="clip-path">
      <circle class="cls-1" cx="272.54335" cy="288.28891" r="196.04503"/>
    </clipPath>
    <linearGradient id="linear-gradient-15" x1="55.00022" y1="356.96446" x2="284.5095" y2="887.70466" xlink:href="#linear-gradient-8"/>
    <linearGradient id="linear-gradient-16" x1="174.17479" y1="305.42951" x2="403.68407" y2="836.16971" xlink:href="#linear-gradient-8"/>
    <linearGradient id="linear-gradient-17" x1="196.19466" y1="295.9074" x2="425.70394" y2="826.6476" xlink:href="#linear-gradient-8"/>
    <linearGradient id="linear-gradient-18" x1="210.14089" y1="180.15916" x2="239.82103" y2="255.51888" xlink:href="#linear-gradient-11"/>
    <linearGradient id="linear-gradient-19" x1="256.32575" y1="136.47508" x2="325.84186" y2="312.98082" xlink:href="#linear-gradient-11"/>
  </defs>
  <path class="cls-2" d="M950.11233,562.3607s2.42714-89.31382-36.9293-127.58838-101.191-29.83446-150.323-53.496-63.3827-76.8345-112.94076-112.54122c-54.68805-39.4029-146.59745-38.20853-194.76521-7.155-50.53525,32.57984-78.70778,84.6149-128.98446,112.05477s-124.53069,34.14994-152.8969,43.40629-64.50325,29.24171-64.50325,69.11385V670.65079l841.3429-17.71821Z"/>
  <g>
    <path class="cls-3" d="M766.08,546.14855V490.00712H755.81374v56.15931h.00468c.0154.67356.51671,1.34622,1.51064,1.86184a8.84183,8.84183,0,0,0,7.26072.01172C765.59442,547.519,766.08971,546.83368,766.08,546.14855Z"/>
    <path class="cls-4" d="M716.86142,469.68929a20.916,20.916,0,0,1,5.35147-14.31134,25.54575,25.54575,0,0,1-2.31055-7.97962c-.96822-7.79645,1.64779-14.95212,6.31949-19.20887-.49251-4.95862,1.2741-9.44427,4.67171-11.83967a22.66953,22.66953,0,0,1-.28867-3.6007c0-9.7647,6.08184-17.8205,13.91308-18.91907-.017-.32034-.034-.62551-.034-.94594,0-13.41112,7.05028-24.2743,15.73092-24.2743,7.6276,0,13.9811,8.37623,15.42525,19.46831,3.14274,1.40364,5.58912,5.05015,6.42152,9.62734,4.41684,2.6852,8.375,7.62864,10.53248,13.8231a24.91806,24.91806,0,0,1,.76438,14.96739,12.14577,12.14577,0,0,1,5.06239,10.23758,13.29877,13.29877,0,0,1-1.91944,6.95732v.01527c6.914,3.43289,10.29462,13.0755,7.61059,23.23681a27.522,27.522,0,0,1-5.16442,10.26822c4.298,5.11115,5.0794,13.47221,1.37613,21.45174A25.9927,25.9927,0,0,1,789.40036,510.533a29.85262,29.85262,0,0,1-14.55864,12.20583c-3.95834,5.85884-10.34585,9.18491-16.41048,7.88808a13.03447,13.03447,0,0,1-8.8679-7.12522,28.93522,28.93522,0,0,1-11.34787-6.46907c-6.81221-2.74629-12.87684-9.04756-15.76493-17.3628a27.4368,27.4368,0,0,1-.79838-16.29477A21.129,21.129,0,0,1,716.86142,469.68929Z"/>
    <path class="cls-5" d="M804.11165,466.94487a27.43935,27.43935,0,0,1-5.1611,10.26646c4.301,5.11615,5.08479,13.477,1.37626,21.443a25.9461,25.9461,0,0,1-10.934,11.88026A29.82692,29.82692,0,0,1,774.84589,522.741c-3.95681,5.85437-10.34157,9.185-16.42017,7.88018a13.03213,13.03213,0,0,1-8.86964-7.12478,28.70685,28.70685,0,0,1-11.33561-6.47239c14.45005,2.08382,23.00257-2.50867,23.43566-16.29246,5.56717,2.88245,11.66787-1.647,8.17013-7.85671,11.95738.58444,16.43122-13.44222,8.67076-20.522,13.12908-2.70964,15.56936-18.0513,4.18606-22.59506,8.22934-3.69856,12.15606-11.60152,10.66675-23.26085a12.12673,12.12673,0,0,1,5.06543,10.2322,13.37555,13.37555,0,0,1-1.91156,6.97022c5.31418,2.62666,8.52569,8.92741,8.52569,16.30965A26.95757,26.95757,0,0,1,804.11165,466.94487Z"/>
  </g>
  <path class="cls-6" d="M108.86281,602.7253s75.13369-31.572,116.48865-53.12409S318.66931,479.887,359.71775,458.7118s82.59-30.02162,82.59-30.02162v159.448L122.28938,690.923a10.35043,10.35043,0,0,1-13.51556-9.86637Z"/>
  <polygon class="cls-7" points="342.623 472.807 360.091 480.972 398.162 482.536 417.421 449.865 417.421 383.677 385.397 397.786 380.022 422.196 357.852 435.408 349.566 455.563 342.623 472.807"/>
  <path class="cls-8" d="M124.283,704.23233,508.38849,925.986a42.10143,42.10143,0,0,0,42.1011-.00062L926.24334,709.03886a15.90552,15.90552,0,0,0,.00019-27.54891L529.421,452.37183,124.28235,686.305A10.35042,10.35042,0,0,0,124.283,704.23233Z"/>
  <ellipse class="cls-9" cx="458.82996" cy="762.12336" rx="92.12777" ry="52.947"/>
  <path class="cls-9" d="M809.23,762.04451,416.51153,535.36127l-2.46,1.41032L297.67682,603.96283a8.16578,8.16578,0,0,0-4.05109,7.0683v2.64033a2.7263,2.7263,0,0,0,1.41032,2.39451L678.58038,837.45783Z"/>
  <g>
    <path class="cls-10" d="M529.03529,476.93813,129.80839,707.426l-5.52765-3.19222a10.35043,10.35043,0,0,1,.00121-17.927l394.228-227.59495Z"/>
    <polygon class="cls-11" points="529.035 462.904 129.808 693.392 108.758 681.235 518.51 444.678 529.035 462.904"/>
  </g>
  <path class="cls-12" d="M950.10057,652.93258V683.1244a21.0507,21.0507,0,0,1-10.50787,18.22034l-75.64743,43.77195,2.58936-44.33478Z"/>
  <path class="cls-13" d="M950.10057,652.93258s-26.28268-31.8858-88.15151-87.95457-142.19344-71.1149-189.00857-112.60618S623.9732,428.4083,580.22775,410.08c-47.19544-19.7738-98.44975-22.66563-98.44975-22.66563l-44.19158-49.22171V445.00449L855.20276,707.83614Z"/>
  <path class="cls-12" d="M917.00529,617.42275q-11.76972-11.88535-28.09161-27.4539a78.869,78.869,0,0,0-19.7359-2.44076c-26.51384,0-48.00739,12.35239-48.00739,27.5901s21.49355,27.59009,48.00739,27.59009C894.33953,642.70828,914.96583,631.58119,917.00529,617.42275Z"/>
  <g>
    <path class="cls-3" d="M879.18846,613.34039V491.42988H859.16657V613.37922h.00914c.03,1.46263,1.00772,2.9233,2.94614,4.043a15.65077,15.65077,0,0,0,14.16028.02545C878.24144,616.31623,879.20739,614.82815,879.18846,613.34039Z"/>
    <path class="cls-14" d="M933.34493,447.63783a99.44852,99.44852,0,0,0,.21692-13.27391c-1.24774-24.20854-10.7391-44.01847-22.38118-48.89084.10528-.40695.26493-.78786.34476-1.20551,1.814-9.44914-3.62694-17.9846-12.15286-19.0643-.07231-.009-.14288.00492-.21461-.00318-3.22318-24.18106-15.40554-37.21231-29.98041-37.21231-14.27176,0-26.24472,12.502-29.76407,35.72422-12.70355,6.77058-23.82212,27.01291-27.176,52.11228-.45,3.36606-.70688,6.66906-.85092,9.91769a19.06962,19.06962,0,0,0-11.02544,13.96171,17.56168,17.56168,0,0,0,1.49879,11.28285c-5.45719,6.50768-8.8782,15.68407-8.8782,25.8829a43.772,43.772,0,0,0,1.76661,12.29747c-5.67584,8.34226-8.07819,20.09049-5.72038,32.60951,2.79049,14.817,11.55242,26.95883,22.317,32.90048a47.57723,47.57723,0,0,0,27.40453,22.78437c7.09076,11.3219,18.0705,18.61859,30.42814,18.61859s23.338-7.29669,30.42929-18.61859a47.56752,47.56752,0,0,0,27.34842-22.682c9.10207-3.51443,16.5694-12.19537,18.66-23.08256a28.46448,28.46448,0,0,0-2.89809-19.39229,51.93793,51.93793,0,0,0,8.28123-19.69626C954.64092,473.6341,947.10417,456.09954,933.34493,447.63783Z"/>
    <path class="cls-5" d="M950.98911,492.62378a51.02487,51.02487,0,0,1-8.2928,19.6656,28.45867,28.45867,0,0,1,2.93742,19.429c-2.1322,10.85161-9.57235,19.52359-18.67037,23.07765a47.48547,47.48547,0,0,1-27.34263,22.651c-7.10812,11.32567-18.10232,18.62323-30.42236,18.62323-12.36862,0-23.36225-7.29756-30.47036-18.62323a47.483,47.483,0,0,1-27.39007-22.79333c28.13514,7.54882,46.76268-4.67613,47.81375-34.30845,22.46971,12.01327,48.07532-6.1351,42.03319-32.65,20.35918-6.15217,24.99709-36.60111,7.25042-50.7046,15.31992-11.79653,19.86438-34.3934,2.74768-51.5101,11.6577,4.881,21.13518,24.689,22.3673,48.90385a102.68606,102.68606,0,0,1-.18973,13.26842C947.103,456.088,954.638,473.62137,950.98911,492.62378Z"/>
  </g>
  <g>
    <g>
      <path class="cls-15" d="M406.05311,292.16416V520.12294h.00864a5.11708,5.11708,0,0,0,2.58073,4.402l28.92324,16.7015a15.4467,15.4467,0,0,0,7.63,2.07141V292.16416Z"/>
      <path class="cls-16" d="M445.1957,292.16416v251.1337a15.54319,15.54319,0,0,0,7.90623-2.07141l30.71294-204.40853.51477-44.65376Z"/>
      <path class="cls-17" d="M408.6446,296.56721l28.9187,16.69621a15.53617,15.53617,0,0,0,15.5362,0l28.64123-16.536a5.17874,5.17874,0,0,0,0-8.96984L452.822,271.06136a15.53617,15.53617,0,0,0-15.5362,0l-28.64123,16.536A5.17873,5.17873,0,0,0,408.6446,296.56721Z"/>
    </g>
    <g>
      <polygon class="cls-15" points="816.778 559.975 449.726 348.782 449.726 542.663 793.255 740.263 816.778 559.975"/>
      <polygon class="cls-16" points="769.262 726.427 793.255 740.263 803.301 663.267 803.301 552.203 769.262 532.572 769.262 726.427"/>
      <path class="cls-17" d="M449.73038,348.77667,816.7801,559.97475l32.86665-18.96916c-.505-.35123-1.03189-.68047-1.58076-.99886L508.07585,344.42962l-25.413-14.66593Z"/>
    </g>
    <g>
      <path class="cls-15" d="M788.25811,512.592V740.55074h.00864a5.11708,5.11708,0,0,0,2.58072,4.402l28.92325,16.7015a15.44664,15.44664,0,0,0,7.63,2.07141V512.592Z"/>
      <path class="cls-16" d="M827.40069,512.592V763.72566a15.54314,15.54314,0,0,0,7.90623-2.07141l28.63835-16.53756a5.12,5.12,0,0,0,2.58072-4.56595h.00864V512.592Z"/>
      <path class="cls-17" d="M790.8496,516.995l28.91869,16.69621a15.53619,15.53619,0,0,0,15.53621,0l28.64122-16.536a5.17873,5.17873,0,0,0,0-8.96983L835.027,491.48916a15.53619,15.53619,0,0,0-15.53621,0l-28.64122,16.536A5.17874,5.17874,0,0,0,790.8496,516.995Z"/>
    </g>
  </g>
  <g>
    <g>
      <g>
        <g>
          <path class="cls-18" d="M667.4564,735.47543l22.31167-13.145c12.124-15.76078,26.836-25.56861,40.86259-27.73248-.04568-.035.001-.03588.10938-.01386.40673-.06137.80957-.10782,1.21215-.15323,4.44335-1.11405,18.41017-6.48208,18.41017-6.48208v.00009l13.09744-16.52243c0,28.24911,12.53808,59.09336,24.2313,82.0976l.63208-.45259,1.12167,10.35913c-.71666.35708-8.04315-4.11444-8.62834-4.98434a159.74069,159.74069,0,0,1-18.0836-29.58832l-.00061.00017c-8.49054-16.3139-16.85888-23.69188-32.0343-21.35112-14.0092,2.16188-28.277,12.51641-39.14394,28.41084-9.03292,13.21219-20.08869,36.401-20.41968,71.85305.07956,4.193.24154,8.45466.44669,12.83492l.30031-.215,1.12167,10.359-7.73565-4.46866a2.23833,2.23833,0,0,1-1.08779-1.51965C658.98856,797.47,660.29371,757.11256,667.4564,735.47543Z"/>
          <path class="cls-19" d="M676.08474,740.45977l22.31167-13.145c12.124-15.76078,26.836-25.56861,40.86259-27.73247-.04567-.035.001-.03589.10938-.01387.40674-.06136.80958-.10782,1.21216-.15323,4.44335-1.11405,18.41017-6.48207,18.41017-6.48207v.00008l13.09744-16.52243c0,28.13856,12.44111,58.8647,24.095,81.83986a1.18505,1.18505,0,0,1-.47123,1.5671l-6.26705,3.61284a159.74069,159.74069,0,0,1-18.0836-29.58832l-.0006.00017c-8.49055-16.3139-16.85888-23.69187-32.0343-21.35111-14.0092,2.16187-28.277,12.51641-39.144,28.41083-9.03291,13.21219-20.08869,36.401-20.41968,71.853.07763,4.09213.22848,8.23736.42645,12.506a2.1509,2.1509,0,0,1-1.06846,1.96171l-6.11766,3.52685C667.58562,803.45281,668.83374,762.36384,676.08474,740.45977Z"/>
        </g>
        <g>
          <path class="cls-18" d="M312.93921,530.84551l22.31167-13.145c12.124-15.76079,26.836-25.56861,40.86259-27.73248-.04567-.035.001-.03588.10938-.01387.40673-.06136.80957-.10781,1.21215-.15323,4.44335-1.114,18.41017-6.48207,18.41017-6.48207v.00009l13.09744-16.52243c0,28.24911,12.53808,59.09335,24.23131,82.0976l.63207-.45259,1.12168,10.35913c-.71667.35708-8.04316-4.11445-8.62835-4.98434a159.74045,159.74045,0,0,1-18.0836-29.58833l-.00061.00018c-8.49054-16.31391-16.85888-23.69188-32.0343-21.35112-14.0092,2.16188-28.277,12.51641-39.14394,28.41084-9.03292,13.21219-20.08869,36.401-20.41968,71.85305.07956,4.193.24154,8.45466.44669,12.83491l.30031-.215,1.12167,10.359-7.73565-4.46866a2.23835,2.23835,0,0,1-1.08779-1.51966C304.47137,592.84,305.77653,552.48263,312.93921,530.84551Z"/>
          <path class="cls-19" d="M321.56756,535.82985l22.31166-13.145c12.124-15.76078,26.836-25.56861,40.8626-27.73248-.04568-.035.001-.03588.10937-.01386.40674-.06137.80958-.10782,1.21216-.15324,4.44335-1.114,18.41017-6.48207,18.41017-6.48207v.00009L417.571,471.78084c0,28.13855,12.44112,58.86469,24.095,81.83985a1.18508,1.18508,0,0,1-.47123,1.56711l-6.26705,3.61284a159.74018,159.74018,0,0,1-18.08361-29.58832l-.0006.00017c-8.49054-16.31391-16.85888-23.69188-32.0343-21.35112-14.0092,2.16188-28.277,12.51641-39.14394,28.41084-9.03292,13.21219-20.0887,36.401-20.41969,71.85305.07763,4.09213.22848,8.23736.42645,12.506a2.15089,2.15089,0,0,1-1.06845,1.96171l-6.11767,3.52686C313.06843,598.82289,314.31656,557.73391,321.56756,535.82985Z"/>
        </g>
        <g>
          <path class="cls-18" d="M300.677,532.58635v-2.88759a8.851,8.851,0,0,1,4.4279-7.66657l90.58706-52.26809v-.82232c0-37.13565,19.28094-99.72965,37.60388-136.14952,1.84771-3.67262,5.69143-5.81217,9.52607-4.3297h0a3.87614,3.87614,0,0,1,2.29635,5.05075c-17.81868,40.77452-38.06642,98.43992-38.06642,135.42847v2.83487a7.87678,7.87678,0,0,1-3.94056,6.82276L305.1082,535.14567A2.9547,2.9547,0,0,1,300.677,532.58635Z"/>
          <polygon class="cls-18" points="451.563 333.488 443.189 328.627 443.78 334.968 451.563 333.488"/>
          <polygon class="cls-18" points="310.002 539.693 302.074 535.096 311.16 531.422 310.002 539.693"/>
          <path class="cls-19" d="M308.58865,537.17341v-2.88759a8.851,8.851,0,0,1,4.4279-7.66657l90.587-52.26809v-.82232c0-37.13565,19.28094-99.72966,37.60388-136.14953,1.84771-3.67262,5.69144-5.81217,9.52607-4.3297l0,0a3.87612,3.87612,0,0,1,2.29634,5.05074c-17.81867,40.77452-38.06641,98.43993-38.06641,135.42848v2.83487a7.87681,7.87681,0,0,1-3.94057,6.82276l-98.003,56.54625A2.95469,2.95469,0,0,1,308.58865,537.17341Z"/>
        </g>
        <g>
          <path class="cls-18" d="M657.75072,738.71492v-2.88759a8.851,8.851,0,0,1,4.4279-7.66657l90.587-52.2681v-.82231c0-37.13566,19.28094-99.72966,37.60389-136.14953,1.84771-3.67262,5.69143-5.81217,9.52607-4.3297l0,0a3.87611,3.87611,0,0,1,2.29634,5.05074c-17.81867,40.77452-38.06641,98.43993-38.06641,135.42848v2.83487A7.87681,7.87681,0,0,1,760.185,684.728l-98.003,56.54625A2.95469,2.95469,0,0,1,657.75072,738.71492Z"/>
          <polygon class="cls-18" points="808.637 539.616 800.263 534.755 800.853 541.096 808.637 539.616"/>
          <polygon class="cls-18" points="667.076 745.822 659.148 741.225 668.234 737.551 667.076 745.822"/>
          <path class="cls-19" d="M665.66239,743.302v-2.88759a8.851,8.851,0,0,1,4.42755-7.66636l90.58741-52.2683v-.82232c0-37.42951,19.58729-100.72188,38.03867-137.00911a7.25674,7.25674,0,0,1,9.09129-3.47014h0a3.95942,3.95942,0,0,1,2.19475,5.28343c-17.79394,40.76089-37.96483,98.27754-37.96483,135.19582v2.83453a7.87738,7.87738,0,0,1-3.94056,6.8231l-98.00294,56.54619A2.9547,2.9547,0,0,1,665.66239,743.302Z"/>
        </g>
      </g>
      <g>
        <path class="cls-20" d="M282.37753,530.812v2.28615a2.36,2.36,0,0,0,1.22117,2.07322L651.99136,747.81756l106.996-68.82674-1.86018-1.0792-368.35-212.61788-2.13,1.22125L285.88486,524.69183A7.07046,7.07046,0,0,0,282.37753,530.812Z"/>
        <path class="cls-21" d="M801.68739,544.00478c-14.589,32.77744-35.23927,95.37358-41.98407,134.50624l-.71259.48639L388.775,465.29381v-.656c0-29.57809,21.4348-99.10473,36.98466-129.81223,1.47561-2.914,4.52437-4.62613,7.57833-3.44982a3.6732,3.6732,0,0,1,.76914.44114Z"/>
        <path class="cls-22" d="M650.70779,745.72738v-2.30011a7.05026,7.05026,0,0,1,3.527-6.10681L757.1152,677.92058v-.655c0-29.58044,17.80082-90.29655,36.98108-129.80989,1.43006-2.94606,4.53352-4.62969,7.588-3.44883l0,0a3.02753,3.02753,0,0,1,1.82916,4.02317c-18.02305,35.01137-37.34951,99.77228-37.34951,129.23554v2.25812a6.27428,6.27428,0,0,1-3.13887,5.43468L654.23749,747.766A2.35357,2.35357,0,0,1,650.70779,745.72738Z"/>
      </g>
    </g>
    <path class="cls-22" d="M386.64718,466.515,756.048,679.7718l1.0792-1.86018,1.05078-1.83175L388.80559,462.8514c-.01422.61059-.02843,1.207-.02843,1.7892v.65314Z"/>
    <polygon class="cls-22" points="303.919 514.283 672.283 726.901 676.543 724.445 308.179 511.813 303.919 514.283"/>
    <polygon class="cls-22" points="331.495 498.351 699.845 710.983 704.091 708.541 335.755 495.895 331.495 498.351"/>
    <polygon class="cls-22" points="359.071 482.433 727.421 695.079 731.681 692.608 363.331 479.976 359.071 482.433"/>
    <path class="cls-22" d="M415.84211,357.5452l368.279,212.60358c.5396-1.3348,1.07921-2.66959,1.61872-3.976l-368.32158-212.632Q416.6302,355.50036,415.84211,357.5452Z"/>
    <path class="cls-22" d="M406.55543,383.64448l368.066,212.47592c.45441-1.37744.92294-2.74066,1.39156-4.118l-368.10864-212.49C407.44994,380.88979,406.99562,382.26713,406.55543,383.64448Z"/>
    <path class="cls-22" d="M398.51825,410.46806l367.995,212.43327c.38342-1.40577.76676-2.82576,1.1644-4.24574L399.69686,406.22231C399.29923,407.6423,398.90168,409.06228,398.51825,410.46806Z"/>
    <path class="cls-22" d="M391.98634,438.15781l368.10856,212.49q.3835-2.19381.852-4.43035L392.86673,433.75588C392.55429,435.24685,392.25615,436.70948,391.98634,438.15781Z"/>
  </g>
  <path class="cls-22" d="M534.33251,679.90168l-.67346-4.16639a12.35338,12.35338,0,0,1,5.614-12.42565l56.95423-38.64838a86.46689,86.46689,0,0,0,36.35176-55.182L653.93145,458.7118,617.748,437.82469,530.71287,622.90133,510.1017,651.69022V665.915Z"/>
  <g>
    <g>
      <g>
        <path class="cls-23" d="M483.38271,719.96794c1.67465,6.07866,3.21285,11.797-.17828,16.9042-4.247,6.3962-12.60014,5.90765-23.192,9.77323s-21.1275,10.53732-38.9788,8.1309-16.28825-18.165-11.21438-23.036L433.9895,722.112l16.347-13.86887S479.65972,711.74569,483.38271,719.96794Z"/>
        <path class="cls-24" d="M476.95982,701.586c3.723,8.22224,9.77761,23.53268,5.81352,30.108s-12.16905,6.84687-22.76091,10.71244-21.1275,10.53732-38.9788,8.1309-16.12527-17.9538-7.217-21.83871l20.1729-10.82554,16.347-13.86887S473.23683,693.3638,476.95982,701.586Z"/>
        <path class="cls-23" d="M433.9895,717.8731c-2.01731,2.59886,3.78242,8.60826,9.47779,6.43446L465.57816,713.89c-1.7226-8.57684-13.45913-13.66823-19.00233-7.27725Z"/>
        <path class="cls-25" d="M442.507,695.172l4.55478,13.07119c3.6717,11.31288,33.65748,7.84087,29.56373-7.79358l-4.23892-15.97746Z"/>
        <path class="cls-23" d="M507.02932,745.77387s2.112,16.34547.9501,21.95893c-1.45608,7.0349-6.10337,12.086-7.13153,16.76871s-2.11145,14.48533-10.894,20.28271c-16.92292,11.17091-33.79164-1.65453-27.46966-16.35808l7.24093-11.26488,13.76434-32.7955C485.73691,735.7635,506.11634,736.63311,507.02932,745.77387Z"/>
        <path class="cls-24" d="M507.02932,741.73059s2.112,16.34547.9501,21.95893c-1.45608,7.03491-6.10337,12.086-7.13153,16.76871s-3.14288,15.16745-10.894,20.28271c-16.92419,11.169-33.61773-1.17629-26.47082-14.61572l6.24209-13.00724,13.76434-32.7955C485.73691,731.72023,506.11634,732.58983,507.02932,741.73059Z"/>
        <path class="cls-23" d="M482.669,746.64518c1.329-7.809,17.90417-3.77334,18.27373,3.89219l-8.3909,14.44206c-2.305,3.59765-16.07528,1.49992-14.41237-3.39107Z"/>
        <path class="cls-25" d="M510.90111,734.26215l-2.7427,12.44441c-2.12659,10.741-29.10611,10.27008-27.06355-4.46745l1.32811-14.50984Z"/>
      </g>
      <g>
        <g>
          <path class="cls-26" d="M532.02616,367.82769S514.833,370.42264,501.218,387.9c-11.30229,14.50864-39.4735,58.671-39.4735,58.671l-7.51007,3.86739s-15.47359,11.13868-8.66581,26.32675c3.8585,8.60826,16.17588,15.78182,33.42587,4.30413,4.48916-2.987,27.2276-26.3934,36.394-41.73718Z"/>
          <path class="cls-27" d="M511.46463,445.28332l-9.009-30.73245-4.06979,46.98542A208.3335,208.3335,0,0,0,511.46463,445.28332Z"/>
          <circle class="cls-28" cx="461.7445" cy="460.37667" r="12.31739"/>
          <g>
            <path class="cls-24" d="M478.52471,473.284l-13.41521-8.0527a2.10377,2.10377,0,0,1-.989-1.43815l-6.85708-38.85682a2.10376,2.10376,0,0,1,3.15448-2.16935l13.01144,7.81032a9.69885,9.69885,0,0,1,4.55963,6.63021l5.73542,32.50067A3.46771,3.46771,0,0,1,478.52471,473.284Z"/>
            <path class="cls-29" d="M460.93462,444.04466l-1.504-6.82729-1.84593,1.77892a11.30069,11.30069,0,0,0-2.95655,4.78419c-1.15418,3.71063-2.97167,10.29084-2.97167,14.93349a12.31735,12.31735,0,0,0,12.3175,12.31737c3.4013,0,7.52858.58019,9.75754-1.64877,2.22895-2.2292,2.55983-7.267,2.55983-10.6686C476.29137,454.178,467.07772,447.79642,460.93462,444.04466Z"/>
          </g>
          <path class="cls-25" d="M529.70257,600.82344l-24.75434-79.92967-76.68309,27.346c-22.30323,8.99955-28.56379,28.95507-22.1728,51.38873l30.01345,96.16909c4.33962,14.90523,41.847,6.207,39.998-8.20549l-9.391-79.48576Z"/>
          <path class="cls-30" d="M509.29332,506.87211l-16.62441,18.4006,16.709,49.03314s-26.59317,48.45858-27.6372,73.05942l-3.74022,79.5c-1.207,15.82433,33.40586,20.55747,37.49261,5.94951l20.85356-78.31946,38.22154-34.1066c16.97243-16.36094,28.86206-28.06419,29.24211-53.9544.41709-28.413.03678-40.71515.03678-40.71515Z"/>
          <path class="cls-28" d="M504.69609,503.11163,497.838,519.5514c-3.01093,6.38517,3.17525,29.37842,35.20454,42.25294,39.911,16.04267,71.10513,3.39113,71.10513-7.04312V538.0664Z"/>
          <path class="cls-31" d="M550.09206,367.32732c-33.25447-3.5344-50.26529,14.5342-47.30892,55.52747L506.08732,467.88,501.937,503.76976c-1.76077,10.66266,5.56368,30.34644,25.71445,40.12244,32.61986,15.82529,79.82208,12.30373,79.4308-8.17351l-1-24.86832L619.73524,430.603C615.67342,399.70386,579.15226,370.41594,550.09206,367.32732Z"/>
          <path class="cls-27" d="M565.72122,553.5765l32.46341-43.16083-15.31846-59.58391-5.81093,58.27957L550.119,551.44283A108.44728,108.44728,0,0,0,565.72122,553.5765Z"/>
          <path class="cls-32" d="M619.47294,428.85449c-4.77769-23.89717-37.47638-11.49922-36.60686,21.97736l3.35077,62.9433-38.04468,53.855c-4.88732,7.02158,11.21683,23.564,19.90827,16.54237,0,0,40.4497-31.12583,50.307-58.84412C624.95093,506.87211,624.43616,456.28789,619.47294,428.85449Z"/>
          <path class="cls-28" d="M558.21265,589.99022l8.78358-7.35538c5.99069-5.88413-11.57645-21.88607-16.53449-14.986l-7.48914,10.135C538.80981,583.37844,553.13074,595.17839,558.21265,589.99022Z"/>
          <path class="cls-29" d="M555.665,590.2377c-4.65194,7.9996-6.14627,11.59443-8.78217,13.21673l-12.274,6.07337a6.54163,6.54163,0,0,1-6.88286-.5694l-4.41122-3.78208c-2.22464-2.29265-3.12124-5.308-1.60567-8.06987,2.16192-3.93973,7.50427-11.0747,10.41528-13.46693s13.06534-6.18486,13.06534-6.18486C549.73979,573.34644,560.21509,586.12947,555.665,590.2377Z"/>
          <path class="cls-29" d="M545.1897,577.45466s-10.28841.956-13.35347,2.782a60.72986,60.72986,0,0,0-7.17357,5.478c-3.13026,2.64115,1.42215,5.99344,3.78244,3.22446Z"/>
        </g>
        <g>
          <path class="cls-28" d="M577.44574,376.77608c3.38736,8.24724-.1279,17.03784-10.6963,27.08488-10.17961,9.67743-27.40752,17.96-27.40752,17.96a64.69123,64.69123,0,0,1-5.015-29.64759c1.04478-13.00463,5.00993-20.2187,16.343-24.516C562.62881,363.12271,574.0437,368.49312,577.44574,376.77608Z"/>
          <path class="cls-33" d="M571.77736,376.54428c1.80825,5.74863-.0815,12.53973-9.98142,21.001a79.20407,79.20407,0,0,1-19.09723,12.17719s-3.138-7.00511-2.59267-18.722c.531-11.4099,2.98445-17.38691,13.733-20.5355C564.11034,367.45626,570.46267,372.15816,571.77736,376.54428Z"/>
          <path class="cls-29" d="M540.78546,384.39652c1.29517-7.22581,4.61044-11.4581,13.05344-13.93137,10.27133-3.00913,16.62362,1.69306,17.93841,6.07891a13.54315,13.54315,0,0,1-1.09491,10.52574,24.18722,24.18722,0,0,1-7.317,5.28912c-9.1081,4.31137-18.856,2.3846-21.77266-4.30393A10.03492,10.03492,0,0,1,540.78546,384.39652Z"/>
          <path class="cls-34" d="M544.455,379.544c.523,12.78368,27.24495,7.51688,26.1269-4.09069L569.384,352.90605l-24.74708,6.09646Z"/>
        </g>
      </g>
    </g>
    <g>
      <path class="cls-35" d="M527.47285,321.43558c-1.70723,8.95648-.08138,18.61759,8.1712,28.44216l5.08207-18.17815Z"/>
      <path class="cls-29" d="M552.31813,376.01645c13.06241-3.17916,19.92758-10.31489,20.51638-22.64812l1.22944-26.66614c.79649-10.7434-8.94587-20.79179-21.4731-20.62849-10.94863.14273-22.13123,9.33743-21.979,21.46622a245.17916,245.17916,0,0,0,2.26383,26.78776C534.75232,366.15192,540.44723,378.90561,552.31813,376.01645Z"/>
      <path class="cls-36" d="M542.29987,306.40875c-10.276,3.325-19.0399,10.5481-16.601,21.5698,2.02705,9.16057,14.5806,9.71616,33.3376,3.79936l-.442,4.84347a2.24926,2.24926,0,0,0,1.39418,2.28857l1.275.51738a1.55335,1.55335,0,0,1,.94116,1.76185,17.57776,17.57776,0,0,0-.03334,7.87291c.58191,2.06093,3.22311,2.16618,3.22311,2.16618l4.906,18.22143c2.29353-7.06129,2.32611-6.28759,9.47833-23.12773,4.17555-9.83147,6.975-22.89185-3.526-33.30347C568.54572,305.377,554.75908,302.3773,542.29987,306.40875Z"/>
      <g>
        <path class="cls-37" d="M538.27687,350.18291c2.25093-.74042,5.23111-.05666,7.79839,2.17309"/>
        <line class="cls-37" x1="558.31732" y1="351.41097" x2="572.87761" y2="344.76464"/>
        <path class="cls-18" d="M538.86533,353.24573c-1.30231,2.55652-8.62865,2.48768-11.02367-.95753-2.80184-4.03041-2.53147-10.08537-.3067-10.50208s8.1864,1.63864,9.9229,3.44949A7.26208,7.26208,0,0,1,538.86533,353.24573Z"/>
        <path class="cls-18" d="M544.29029,353.63363c-1.17625-2.18776-1.02581-5.48329.78035-6.76892,1.73-1.23143,9.38466-.5674,12.00084,1.5022,1.894,1.49828,3.95222,5.79282,1.46628,8.97756C555.58206,361.131,547.44742,359.50567,544.29029,353.63363Z"/>
      </g>
      <path class="cls-29" d="M568.7,360.16546c4.45787.08245,8.32561-6.0726,8.41918-11.13117s-4.20757-9.39683-8.08036-7.18755C564.1772,344.6201,564.24212,360.083,568.7,360.16546Z"/>
    </g>
  </g>
  <path class="cls-10" d="M108.75767,681.23539l21.05072,12.15677V707.426l-10.5274-6.07957a21.05071,21.05071,0,0,1-10.52332-18.22928Z"/>
  <path class="cls-38" d="M130.364,636.98777c12.18665,10.11721,45.27283,9.16087,51.506-10.00243,10.462,4.25366,26.44231-7.12783,22.00192-15.18631,19.15645,5.3205,35.13721-9.87652,29.91693-21.7047,31.54781-14.72976,12.5781-43.52931-4.0922-41.40248,1.83646-17.75641-14.19869-26.9601-27.30486-17.04375-8.79511-15.08952-36.21518-10.3472-36.0897,9.86752-23.17669-13.51774-52.78514,6.27252-40.97794,35.81771-6.57578-6.02031-12.0964-3.12725-16.55478,1.50115v61.29557C114.70705,640.46924,121.86315,639.575,130.364,636.98777Z"/>
  <g>
    <g>
      <g>
        <path class="cls-39" d="M272.54346,93.88135a193.74321,193.74321,0,1,1-75.667,15.27,193.17293,193.17293,0,0,1,75.667-15.27m0-17.54248c-117.05713,0-211.9502,94.89306-211.9502,211.95019,0,117.05664,94.89307,211.9502,211.9502,211.9502,117.05664,0,211.95019-94.89356,211.95019-211.9502,0-117.05713-94.89355-211.95019-211.95019-211.95019Z"/>
        <circle class="cls-40" cx="272.54335" cy="288.28891" r="196.04503"/>
      </g>
      <circle class="cls-39" cx="96.42821" cy="179.94767" r="62.61491"/>
    </g>
    <g class="cls-41">
      <g>
        <g>
          <g>
            <path class="cls-42" d="M218.09907,309.5091s-47.27214,7.13472-84.706,55.18823c-31.07529,39.891-108.53112,161.31394-108.53112,161.31394L4.21323,536.64453S-38.33091,567.27-19.61315,609.02908c10.60882,23.66815,44.47507,43.3916,91.90335,11.83407,12.34282-8.21259,74.86143-72.56781,100.0641-114.755Z"/>
            <path class="cls-27" d="M161.56582,522.47086,136.7959,437.973l-11.18976,129.1849A572.80868,572.80868,0,0,0,161.56582,522.47086Z"/>
            <circle class="cls-28" cx="24.86192" cy="563.96953" r="33.86626"/>
            <g>
              <path class="cls-24" d="M70.99856,599.45778,34.11387,577.31714a5.78421,5.78421,0,0,1-2.71929-3.95414L12.54124,466.52742a5.78423,5.78423,0,0,1,8.67315-5.96457l35.77455,21.47424a26.66671,26.66671,0,0,1,12.53655,18.22955l15.76933,89.35952A9.53436,9.53436,0,0,1,70.99856,599.45778Z"/>
              <path class="cls-29" d="M22.63519,519.06522l-4.13512-18.77144-5.07533,4.8911a31.071,31.071,0,0,0-8.12895,13.154C2.12241,528.54111-2.87473,546.63319-2.87473,559.398a33.86618,33.86618,0,0,0,33.86657,33.86622c9.35177,0,20.69961,1.59521,26.82805-4.53323,6.12845-6.12913,7.03818-19.98054,7.03818-29.333C64.85807,546.92645,39.52544,529.38056,22.63519,519.06522Z"/>
            </g>
            <path class="cls-25" d="M211.71043,950.12341,143.64918,730.35935-67.18851,805.5464c-61.322,24.744-78.5352,79.611-60.9634,141.29165l82.521,264.41381c11.93166,40.98146,115.057,17.06586,109.97314-22.56072L38.52212,970.14758Z"/>
            <path class="cls-30" d="M155.59588,691.80725l-45.7083,50.59186,45.94088,134.815s-73.11705,133.23531-75.98759,200.87452L69.55725,1296.67143c-3.31855,43.50849,91.84834,56.5221,103.08473,16.358l57.33621-215.33682,105.08888-93.775c46.66515-44.98387,79.3553-77.16158,80.40025-148.34589,1.14678-78.12073.10111-111.945.10111-111.945Z"/>
            <path class="cls-28" d="M142.95592,681.468l-18.85624,45.20062c-8.27845,17.55582,8.73025,80.775,96.79377,116.17309,109.73412,44.10881,195.50126,9.32381,195.50126-19.36485V777.575Z"/>
            <path class="cls-43" d="M267.77069,308.13334c-91.43208-9.71772-138.20281,39.96134-130.07435,152.671l9.08474,123.79549-11.41115,98.6776c-4.84119,29.31666,15.29717,83.43656,70.701,110.31536C295.75824,837.10393,425.53922,827.4215,424.4634,771.12l-2.74933-68.37464L459.25236,482.1078C448.08453,397.1516,347.67076,316.6254,267.77069,308.13334Z"/>
            <path class="cls-27" d="M310.74256,820.21947l89.2571-118.6693-42.11761-163.824-15.977,160.2378L267.84484,814.353A298.1717,298.1717,0,0,0,310.74256,820.21947Z"/>
            <path class="cls-44" d="M458.53118,477.30032c-13.1361-65.7045-103.0401-31.61673-100.64938,60.42606L367.09463,710.787,262.492,858.85949c-13.43752,19.30562,30.84031,64.78856,54.73716,45.48272,0,0,111.21513-85.57947,138.31743-161.79C473.59273,691.80725,472.17739,552.72759,458.53118,477.30032Z"/>
            <path class="cls-28" d="M290.098,920.33783l24.15017-20.22339c16.47122-16.17821-31.82906-60.175-45.461-41.2036L248.196,886.77659C236.75051,902.159,276.12544,934.60252,290.098,920.33783Z"/>
            <path class="cls-29" d="M283.09332,921.01825c-12.79036,21.99464-16.899,31.87852-24.14629,36.339l-33.747,16.69855a17.986,17.986,0,0,1-18.9242-1.56555l-12.12852-10.39871c-6.11657-6.30357-8.58175-14.59417-4.41473-22.18785,5.94412-10.83214,20.63275-30.44953,28.63648-37.02687s35.92273-17.00508,35.92273-17.00508C266.80212,874.57627,295.60364,909.72282,283.09332,921.01825Z"/>
            <path class="cls-29" d="M254.29181,885.87171s-28.28766,2.6286-36.71495,7.64911-19.7235,15.06161-19.7235,15.06161c-8.60655,7.26176,3.91018,16.47876,10.3997,8.86553Z"/>
          </g>
          <g>
            <path class="cls-28" d="M342.97874,334.11242c9.31344,22.6755-.35165,46.845-29.40912,74.469-27.98852,26.6078-75.35611,49.38039-75.35611,49.38039s-17.37839-36.83328-13.78868-81.51508c2.87261-35.75582,13.77465-55.59066,44.9345-67.406C302.24008,296.5729,333.625,311.33867,342.97874,334.11242Z"/>
            <path class="cls-33" d="M327.39373,333.47509c4.97171,15.80566-.2241,34.47758-27.4436,57.74164-26.84466,22.9437-52.50721,33.48081-52.50721,33.48081s-8.62771-19.26034-7.12849-51.4754c1.46-31.37115,8.20566-47.80475,37.75851-56.46171C306.31349,308.48788,323.779,321.4156,327.39373,333.47509Z"/>
            <path class="cls-29" d="M242.18249,355.06456c3.561-19.86714,12.67627-31.50367,35.89-38.30383,28.24067-8.27351,45.7061,4.655,49.32106,16.71374,2.73166,8.684,2.36154,18.23973-3.0104,28.94019a66.50146,66.50146,0,0,1-20.11783,14.54226c-25.04243,11.854-51.84408,6.5564-59.86323-11.8335A27.59068,27.59068,0,0,1,242.18249,355.06456Z"/>
            <path class="cls-34" d="M252.27165,341.72266c1.438,35.14832,74.90911,20.66741,71.83506-11.24722l-3.29347-61.9929-68.04131,16.762Z"/>
          </g>
        </g>
        <g>
          <path class="cls-45" d="M205.57991,181.95549c-4.694,24.62554-.22375,51.18847,22.46644,78.2008l13.973-49.98024Z"/>
          <path class="cls-29" d="M273.89118,332.02383c35.9147-8.741,54.79025-28.36045,56.40914-62.27026l3.3803-73.31771c2.18992-29.53862-24.59637-57.16635-59.03958-56.71735-30.10293.39241-60.84912,25.67294-60.43055,59.02067,0,0,1.06459,41.14173,6.22434,73.65209S241.25253,339.96748,273.89118,332.02383Z"/>
          <path class="cls-46" d="M246.34631,140.6397c-28.25365,9.14208-52.3496,29.00167-45.644,59.30546,5.57332,25.18672,40.08891,26.71429,91.66066,10.44624l-1.21521,13.31695a6.1842,6.1842,0,0,0,3.83324,6.29235l3.50556,1.42254a4.27084,4.27084,0,0,1,2.58769,4.84413c-1.01026,4.80446-2.3064,13.80246-.09167,21.64633,1.59994,5.66645,8.86185,5.95582,8.86185,5.95582l13.48895,50.09925c6.306-19.4148,6.39555-17.28752,26.06035-63.589,11.48054-27.03132,19.17751-62.9404-9.69475-91.56681C318.50842,137.80288,280.60252,129.55535,246.34631,140.6397Z"/>
          <g>
            <path class="cls-47" d="M235.28522,260.99534c6.18884-2.03576,14.38276-.15579,21.4414,5.97485"/>
            <line class="cls-47" x1="290.38577" y1="264.37187" x2="330.41882" y2="246.098"/>
            <path class="cls-18" d="M236.90314,269.41647c-3.58064,7.02907-23.72418,6.83981-30.30921-2.63268-7.70356-11.08149-6.96021-27.72942-.84325-28.87515s22.50822,4.50538,27.28267,9.48426C239.106,253.72552,240.08783,263.16467,236.90314,269.41647Z"/>
            <path class="cls-18" d="M251.81892,270.483c-3.23408-6.01517-2.82045-15.07612,2.14554-18.61092,4.75663-3.38577,25.80281-1.56006,32.99591,4.13025,5.20743,4.11948,10.86651,15.92717,4.03149,24.68351C282.86527,291.09677,260.49934,286.628,251.81892,270.483Z"/>
          </g>
          <path class="cls-29" d="M318.93259,288.44205c12.25677.2267,22.891-16.69641,23.14826-30.6048s-11.56857-25.83628-22.21668-19.76194C306.49734,245.70058,306.67582,288.21535,318.93259,288.44205Z"/>
        </g>
      </g>
    </g>
  </g>
  <g>
    <rect class="cls-17" x="89.89837" y="146.52034" width="13.0597" height="66.85466" transform="translate(-98.99905 120.8905) rotate(-45)"/>
    <rect class="cls-17" x="89.89837" y="146.52034" width="13.0597" height="66.85466" transform="translate(37.37104 375.37493) rotate(-135)"/>
  </g>
</svg>
