<svg id="Layer_1" data-name="Layer 1" xmlns="http://www.w3.org/2000/svg" xmlns:xlink="http://www.w3.org/1999/xlink" viewBox="0 0 1000 1000">
  <defs>
    <style>
      .cls-1 {
        fill: none;
      }

      .cls-2 {
        fill: url(#linear-gradient);
      }

      .cls-11, .cls-3 {
        fill: #5a9137;
      }

      .cls-4 {
        fill: #fff;
      }

      .cls-5 {
        fill: #b8cbd8;
      }

      .cls-6 {
        fill: #9bb0c4;
      }

      .cls-7 {
        fill: #c7d8e2;
      }

      .cls-8 {
        fill: url(#linear-gradient-2);
      }

      .cls-11, .cls-9 {
        opacity: 0.7;
      }

      .cls-10 {
        fill: url(#linear-gradient-3);
      }

      .cls-12 {
        fill: #87a1af;
      }

      .cls-13 {
        fill: #939393;
      }

      .cls-14 {
        fill: #6b483c;
      }

      .cls-15 {
        fill: url(#linear-gradient-4);
      }

      .cls-16 {
        fill: #366d26;
      }

      .cls-17 {
        fill: url(#linear-gradient-5);
      }

      .cls-18 {
        fill: url(#linear-gradient-6);
      }

      .cls-19 {
        fill: url(#linear-gradient-7);
      }

      .cls-20 {
        fill: url(#linear-gradient-8);
      }

      .cls-21 {
        fill: url(#linear-gradient-9);
      }

      .cls-22 {
        fill: #e2e2e2;
      }

      .cls-23 {
        fill: url(#linear-gradient-10);
      }

      .cls-24 {
        fill: #f48f14;
      }

      .cls-25 {
        fill: #303d49;
      }

      .cls-26 {
        fill: #27343d;
      }

      .cls-27 {
        fill: #ffbda3;
      }

      .cls-28, .cls-32 {
        fill: #dd7b19;
      }

      .cls-29 {
        fill: #e48f7c;
      }

      .cls-30 {
        fill: #455260;
      }

      .cls-31 {
        fill: url(#linear-gradient-11);
      }

      .cls-32 {
        opacity: 0.6;
      }

      .cls-33 {
        fill: url(#linear-gradient-12);
      }

      .cls-34 {
        fill: url(#linear-gradient-13);
      }

      .cls-35 {
        fill: #a0674a;
      }

      .cls-36 {
        fill: url(#linear-gradient-14);
      }

      .cls-37 {
        fill: url(#linear-gradient-15);
      }

      .cls-38 {
        fill: #515151;
      }

      .cls-39 {
        fill: #e0c390;
      }

      .cls-40 {
        fill: url(#linear-gradient-16);
      }

      .cls-41 {
        fill: #cddce8;
      }

      .cls-42 {
        fill: url(#linear-gradient-17);
      }

      .cls-43 {
        fill: url(#linear-gradient-18);
      }

      .cls-44 {
        clip-path: url(#clip-path);
      }

      .cls-45 {
        fill: url(#linear-gradient-19);
      }
    </style>
    <linearGradient id="linear-gradient" x1="79.31392" y1="448.83104" x2="920.68608" y2="448.83104" gradientUnits="userSpaceOnUse">
      <stop offset="0" stop-color="#e6f4ff"/>
      <stop offset="1" stop-color="#c0e3ff"/>
    </linearGradient>
    <linearGradient id="linear-gradient-2" x1="410.16706" y1="720.74224" x2="1000.48295" y2="787.92539" gradientUnits="userSpaceOnUse">
      <stop offset="0.00005" stop-color="#9dcc52"/>
      <stop offset="1" stop-color="#69a642"/>
    </linearGradient>
    <linearGradient id="linear-gradient-3" x1="110.38062" y1="533.51614" x2="937.18117" y2="696.54724" gradientUnits="userSpaceOnUse">
      <stop offset="0.00005" stop-color="#9dcc52"/>
      <stop offset="1" stop-color="#649e3f"/>
    </linearGradient>
    <linearGradient id="linear-gradient-4" x1="415.25204" y1="120.36063" x2="523.34226" y2="330.56922" gradientUnits="userSpaceOnUse">
      <stop offset="0" stop-color="#77bf49"/>
      <stop offset="0.99995" stop-color="#366d26"/>
    </linearGradient>
    <linearGradient id="linear-gradient-5" x1="360.27259" y1="329.01474" x2="436.11489" y2="495.62893" gradientUnits="userSpaceOnUse">
      <stop offset="0" stop-color="#67a63f"/>
      <stop offset="0.99995" stop-color="#366d26"/>
    </linearGradient>
    <linearGradient id="linear-gradient-6" x1="115.68271" y1="450.47206" x2="176.59543" y2="623.05809" xlink:href="#linear-gradient-5"/>
    <linearGradient id="linear-gradient-7" x1="801.74315" y1="393.08563" x2="885.94602" y2="585.9759" xlink:href="#linear-gradient-4"/>
    <linearGradient id="linear-gradient-8" x1="736.43564" y1="498.10132" x2="795.5568" y2="636.64789" xlink:href="#linear-gradient-5"/>
    <linearGradient id="linear-gradient-9" x1="294.34801" y1="479.54212" x2="324.23957" y2="538.34519" xlink:href="#linear-gradient-5"/>
    <linearGradient id="linear-gradient-10" x1="507.28941" y1="826.35532" x2="507.28941" y2="908.20433" xlink:href="#linear-gradient-5"/>
    <linearGradient id="linear-gradient-11" x1="475.7856" y1="408.78665" x2="546.20793" y2="538.72519" gradientUnits="userSpaceOnUse">
      <stop offset="0.00005" stop-color="#ffcb48"/>
      <stop offset="1" stop-color="#e68e2b"/>
    </linearGradient>
    <linearGradient id="linear-gradient-12" x1="500.17902" y1="395.56624" x2="570.60134" y2="525.50477" xlink:href="#linear-gradient-11"/>
    <linearGradient id="linear-gradient-13" x1="518.51537" y1="385.62855" x2="588.93769" y2="515.56709" xlink:href="#linear-gradient-11"/>
    <linearGradient id="linear-gradient-14" x1="-2263.81113" y1="647.06711" x2="-2166.21351" y2="647.06711" gradientTransform="translate(2617.41848)" gradientUnits="userSpaceOnUse">
      <stop offset="0.00005" stop-color="#e6ac72"/>
      <stop offset="1" stop-color="#b3703f"/>
    </linearGradient>
    <linearGradient id="linear-gradient-15" x1="-2274.44973" y1="612.17356" x2="-2165.31072" y2="669.43064" xlink:href="#linear-gradient-14"/>
    <linearGradient id="linear-gradient-16" x1="-2239.60597" y1="607.29016" x2="-2221.39192" y2="607.29016" gradientTransform="translate(2617.41848)" xlink:href="#linear-gradient-11"/>
    <linearGradient id="linear-gradient-17" x1="510.59333" y1="356.16473" x2="532.55077" y2="389.1009" gradientUnits="userSpaceOnUse">
      <stop offset="0" stop-color="#966551"/>
      <stop offset="1" stop-color="#805345"/>
    </linearGradient>
    <linearGradient id="linear-gradient-18" x1="522.44544" y1="348.26332" x2="544.40289" y2="381.19949" xlink:href="#linear-gradient-17"/>
    <clipPath id="clip-path">
      <circle class="cls-1" cx="1292.54335" cy="288.28891" r="196.04503"/>
    </clipPath>
    <linearGradient id="linear-gradient-19" x1="1075.00022" y1="356.96446" x2="1304.5095" y2="887.70466" xlink:href="#linear-gradient-11"/>
  </defs>
  <path class="cls-2" d="M79.34318,582.50156S76.916,493.18774,116.27249,454.91318s101.191-29.83447,150.323-53.496,68.673-70.454,112.94076-112.54122,137.15895-27.051,188.88842,3.59733,84.58457,73.86257,134.86125,101.30245,124.53069,34.14994,152.8969,43.40629,64.50325,29.24171,64.50325,69.11385V608.247L79.34318,634.70046Z"/>
  <path class="cls-3" d="M79.34318,577.088s21.42047-26.66578,59.02509-30.45568,39.07465,2.74482,54.19441,0,13.60385-4.9883,51.955-15.36235,99.43105-18.229,99.43105-18.229L79.31392,643.21032Z"/>
  <path class="cls-4" d="M500.00631,431.57193q26.90507-15.31458,58.96574,7.99895c11.73914-9.70807,38.27648-9.70807,52.067,12.54083,0,0,10.86655-12.90471,36.93273-11.38763,42.32538,2.46338,57.721,39.794,57.721,39.794,17.07625-17.62358,66.11994-8.44188,76.44291,33.81255,26.17335-17.23562,59.32356-4.3669,54.447,42.58667l84.1034,12.24225v61.80849H752.9462Z"/>
  <path class="cls-5" d="M120.18373,698.04762,478.974,905.18614a42.10143,42.10143,0,0,0,42.1011-.00061L887.80371,693.4498a21.92256,21.92256,0,0,0,.00026-37.97061L500.00652,431.572,120.18213,650.88832A27.22767,27.22767,0,0,0,120.18373,698.04762Z"/>
  <ellipse class="cls-6" cx="540.13193" cy="704.69372" rx="66.82963" ry="38.40783"/>
  <ellipse class="cls-6" cx="412.90069" cy="675.90632" rx="68.952" ry="39.62759"/>
  <path class="cls-7" d="M580.05931,481.71029l-31.94851,17.169,1.73895,2.51848a9.0369,9.0369,0,0,0,7.14774,3.8976l24.93255.79693a9.03687,9.03687,0,0,0,5.75935-1.8394l0,0a9.0369,9.0369,0,0,0,1.06609-13.43282Z"/>
  <path class="cls-7" d="M402.25333,851.28994l53.97046-31.83584-7.90891-4.25864a15.72082,15.72082,0,0,0-7.97719-1.87036l-21.17905.70627a15.72081,15.72081,0,0,0-12.62807,7.1l-6.11869,9.34425a15.72077,15.72077,0,0,0-.72111,16.00663Z"/>
  <path class="cls-7" d="M461.149,813.47844l2.01709.97425,26.57467-15.37748-.3353-1.40824a6.32783,6.32783,0,0,0-6.15576-4.86218h-8.72643a6.32782,6.32782,0,0,0-3.99509,1.42062L459.906,802.8732A6.32783,6.32783,0,0,0,461.149,813.47844Z"/>
  <path class="cls-8" d="M546.99683,890.21926l-25.91924,14.96483a42.10145,42.10145,0,0,1-42.10484-.00154l-60.42257-34.8917S503.678,808.41656,577.746,764.14c63.00286-37.662,110.92683-85.84513,150.04235-112.41979,43.47722-29.538,79.03487-42.99775,79.03487-42.99775,24.65112-3.35862,73.135-11.75652,113.86283-10.0065C788.03937,712.70651,661.76727,813.43084,546.99683,890.21926Z"/>
  <g class="cls-9">
    <ellipse class="cls-3" cx="774.47834" cy="670.63973" rx="36.44972" ry="20.94811"/>
  </g>
  <path class="cls-3" d="M919.12044,598.661c-31.35069-1.14458-67.0089,3.54635-92.78663,7.258a16.27908,16.27908,0,0,0-.29294,3.034c0,15.319,21.60812,27.73742,48.26307,27.73742.62464,0,1.24361-.0136,1.86247-.02709q21.65364-18.30567,43.54966-37.11564C919.5287,599.249,919.32505,598.95489,919.12044,598.661Z"/>
  <path class="cls-3" d="M79.34318,634.70046v27.61648A21.05072,21.05072,0,0,0,89.867,680.54648l72.83128,42.05763-12.59478-82.778Z"/>
  <path class="cls-10" d="M162.69823,722.60411s81.5061-34.76645,143.18-72.67547c54.69711-33.6206,101.60051-70.79891,150.49025-106.74655,44.77344-32.921,119.55948-67.77444,119.55948-67.77444L500.00652,431.572C343.72008,515.595,283.92859,535.03785,205.55142,567.9652c-65.33077,27.44638-126.20824,66.73526-126.20824,66.73526s23.5283,17.73609,39.318,37.47326C133.59081,690.83571,162.69823,722.60411,162.69823,722.60411Z"/>
  <g class="cls-9">
    <ellipse class="cls-3" cx="152.79155" cy="630.4774" rx="37.56125" ry="21.58693"/>
  </g>
  <g class="cls-9">
    <ellipse class="cls-3" cx="405.67506" cy="514.51814" rx="36.44972" ry="20.94811"/>
  </g>
  <path class="cls-11" d="M496.64448,475.86127c20.13067,0,36.44977-9.37875,36.44977-20.948a12.64147,12.64147,0,0,0-1.00763-4.81888L505.1974,434.56907a62.28972,62.28972,0,0,0-8.55292-.604c-.39252,0-.77315.02666-1.16267.03373q-18.39144,9.85836-35.03988,18.551a12.288,12.288,0,0,0-.24712,2.36346C460.19481,466.48252,476.51391,475.86127,496.64448,475.86127Z"/>
  <path class="cls-12" d="M159.31176,715.51323c.81287-.346,81.98182-35.15306,142.4324-72.31045,42.10914-25.8817,80.25929-54.40844,117.15372-81.99639,10.713-8.01051,21.79164-16.2934,32.795-24.38443,44.88781-33.00481,117.81755-67.13343,120.9003-68.57073l12.169,12.26692s-2.52359,1.16418-5.24321,2.44171-74.86009,34.51421-118.4742,66.582c-10.95193,8.05334-22.00407,16.31739-32.69217,24.30906-37.1771,27.79867-75.61933,56.54468-118.34091,82.80326-50.7981,31.22421-133.68725,68.6046-138.75612,70.882Z"/>
  <polygon class="cls-12" points="584.762 467.75 584.762 480.518 567.606 470.624 567.606 457.856 584.762 467.75"/>
  <path class="cls-7" d="M584.76213,467.75035c-.14037.07013-8.42659,3.37-13.56646,5.87852-20.64728,10.01667-75.23237,36.20234-110.15908,61.88424-10.94636,8.05184-21.998,16.31429-32.68125,24.296-37.17206,27.80455-75.62468,56.55624-118.34005,82.81707C257.96731,674.6057,191.02607,704.796,171.25591,713.497l-17.15628-9.89386,5.21-2.12265c.807-.35087,81.99253-35.15466,142.44321-72.30917,42.10144-25.8924,80.25587-54.41614,117.1473-81.99253,10.7183-8.01683,21.78746-16.29683,32.7865-24.38379,38.25968-28.13775,115.70871-64.8508,115.91921-64.93849l8.33258,4.80657Z"/>
  <path class="cls-3" d="M546.99683,890.21926s53.59147-38.4426,108.23376-81.14122S743.06888,715.70373,788.578,674.45561s132.10812-75.73969,132.10812-75.73969v63.5953a21.05072,21.05072,0,0,1-10.52518,18.23035Z"/>
  <path class="cls-12" d="M418.55018,870.29085l-13.281-19.26876c.96363-.54991,97.12573-55.50483,168.25242-100.56823,36.54153-23.14928,68.55874-48.90935,96.8071-71.63549,18.99327-15.281,36.93383-29.71392,53.02338-40.64529,36.3956-24.72649,67.04621-38.27251,77.17363-42.45056l9.09268,13.36706c-.34519.1302-35.29353,13.54215-77.39411,42.14426-15.56276,10.57162-33.26092,24.811-51.99894,39.88639-28.57385,22.98825-60.96023,49.043-98.25467,72.67191C510.534,809.05085,445.31893,851.3222,418.55018,870.29085Z"/>
  <polygon class="cls-12" points="418.55 856.257 418.55 870.291 401.394 860.397 401.394 846.363 401.517 846.433 418.55 856.257"/>
  <polygon class="cls-13" points="812.14 600.97 812.14 608.023 809.618 609.09 794.984 605.11 794.984 591.077 812.14 600.97"/>
  <path class="cls-7" d="M418.55018,856.257l-17.03347-9.82373c.96362-.54991,100.87824-57.93295,172.00493-102.99636,36.54153-23.14928,68.55874-48.90934,96.8071-71.63548,18.99327-15.281,36.93383-29.71393,53.02338-40.6453a460.31851,460.31851,0,0,1,71.62921-40.08523l17.15877,9.89949c-.3452.13019-37.8152,14.64439-79.91578,43.24651-15.56276,10.57161-33.26092,24.811-51.99894,39.88638-28.57385,22.98825-60.96023,49.043-98.25467,72.67192C510.534,802.03394,419.51552,855.70542,418.55018,856.257Z"/>
  <g>
    <path class="cls-14" d="M536.90627,335.17091l-11.59721,27.90637s-9.569,13.17994-17.86458,19.25609l.48534-27.02864H500.5746l-3.17084,30.51216c-.38319,1.551-3.36624,2.284-5.54487,1.78247C483.363,385.64359,459.5854,357.364,459.5854,357.364l-1.97082-21.58417L430.799,329.33511s12.75255,28.868,16.38207,35.5798c2.53715,4.69165,20.52662,25.20439,31.12528,37.12674a30.43942,30.43942,0,0,1,7.31654,21.22561l-1.005,28.67572a5.327,5.327,0,0,0,2.7382,4.74164c3.69206,2.45352,12.50753,2.46577,16.17659.02779a5.40068,5.40068,0,0,0,2.73668-4.40274h.00285l-.00057-.01662-.00019-.00876-.94206-27.24269a30.351,30.351,0,0,1,7.67245-21.60306c9.19946-9.93363,23.52441-25.83956,28.22526-33.49012,7.12332-11.59287,15.07484-48.50729,15.07484-48.50729Z"/>
    <path class="cls-15" d="M601.07428,254.537c0-20.09683-8.3106-37.61784-20.63241-46.92564-2.984-15.28037-10.90491-27.93043-21.37641-34.83066-.01939-10.33044-4.23666-19.24267-11.4459-22.23486a13.48715,13.48715,0,0,0-1.88034-.624c-6.58879-15.43746-17.7562-27.0056-31.07616-31.46609-4.7191-8.549-11.88633-13.95558-19.83215-13.74839-8.09656.21135-15.1524,6.20754-19.51261,15.2773-9.73264-3.17356-20.94415,5.398-25.44522,19.76515a40.97139,40.97139,0,0,0-1.7526,9.23648c-9.11277,3.53479-17.49427,13.23379-21.665,26.54613a55.88539,55.88539,0,0,0-2.51751,14.55508c-7.22368,3.4046-12.44042,11.2568-13.09889,20.6018-6.20975,2.40495-11.93061,7.7091-15.60423,15.31406a37.29893,37.29893,0,0,0-3.23775,22.50441A50.61819,50.61819,0,0,0,379.69794,282.143c0,15.6569,6.64734,29.51972,16.86489,38.0762a24.3798,24.3798,0,0,0,6.16642,9.70557,20.41214,20.41214,0,0,0,16.24064,5.3827c5.29013,12.5735,18.4124,17.9508,28.31669,19.39963,6.62635,13.88107,23.57932,23.85907,40.15565,23.85907,14.35917,0,27.53561-5.81,37.86683-15.48887,13.05668.82029,31.11348-7.6075,32.29577-28.07789A52.20747,52.20747,0,0,0,580.74677,301.231C592.90073,291.86561,601.07428,274.46779,601.07428,254.537Z"/>
    <path class="cls-16" d="M540.65174,259.65673c-1.39144,16.0166-20.01463,24.32081-29.22206,17.40789,5.06905,20.70726-21.04357,36.26619-35.78234,30.20257-13.51765,13.7287-35.68288,8.2373-43.03814-2.63118-3.97586,13.95733-23.55665,22.99535-36.04637,15.58317a24.3798,24.3798,0,0,0,6.16642,9.70557,20.41214,20.41214,0,0,0,16.24064,5.3827c5.29012,12.57348,18.41239,17.95093,28.31668,19.39976,6.62624,13.881,23.57933,23.85894,40.15566,23.85894,14.35917,0,27.53561-5.81,37.86683-15.48887,13.05669.82025,31.11343-7.60758,32.29577-28.07789A52.20747,52.20747,0,0,0,580.74677,301.231c12.154-9.36535,20.32751-26.76317,20.32751-46.69394,0-20.09683-8.3106-37.61784-20.63241-46.92564-2.984-15.28037-10.90491-27.93043-21.37641-34.83066a22.34894,22.34894,0,0,1-3.10678,31.98025C561.963,228.01014,560.3244,247.85273,540.65174,259.65673Z"/>
  </g>
  <g>
    <path class="cls-14" d="M412.33092,509.04422V427.98991H399.019V509.07h.00608a3.3524,3.3524,0,0,0,1.95879,2.688,10.4057,10.4057,0,0,0,9.41471.01693A3.2658,3.2658,0,0,0,412.33092,509.04422Z"/>
    <path class="cls-17" d="M448.33779,400.99254a66.11991,66.11991,0,0,0,.14422-8.82539c-.82958-16.09547-7.14008-29.26644-14.88052-32.50592.07-.27056.17615-.52382.22923-.8015,1.2061-6.28243-2.41144-11.95738-8.08-12.67523-.04808-.006-.095.00327-.14269-.00212-2.143-16.0772-10.24264-24.74125-19.933-24.74125-9.48882,0-17.44925,8.31215-19.78915,23.75187-8.44618,4.50154-15.83856,17.96-18.06846,34.64775-.29922,2.238-.47,4.43405-.56575,6.594a12.67877,12.67877,0,0,0-7.33045,9.28268,11.67625,11.67625,0,0,0,.99649,7.50161,26.831,26.831,0,0,0-5.90282,17.20869,29.10273,29.10273,0,0,0,1.17456,8.17618c-3.77368,5.5465-5.37092,13.35751-3.80329,21.681,1.8553,9.85131,7.68082,17.924,14.83782,21.87445a31.63258,31.63258,0,0,0,18.22038,15.14859c4.71441,7.52756,12.01449,12.37889,20.23067,12.37889s15.51665-4.85133,20.23145-12.37889a31.62611,31.62611,0,0,0,18.18307-15.08051,20.59369,20.59369,0,0,0,12.40639-15.34685,18.92509,18.92509,0,0,0-1.92684-12.89329,34.53184,34.53184,0,0,0,5.50592-13.09541C462.4968,418.27661,457.48586,406.61846,448.33779,400.99254Z"/>
    <path class="cls-16" d="M460.06883,430.90223a33.92482,33.92482,0,0,1-5.51361,13.075,18.92122,18.92122,0,0,1,1.953,12.91771,20.747,20.747,0,0,1-12.41332,15.34358,31.57152,31.57152,0,0,1-18.17922,15.05993c-4.72595,7.53007-12.03564,12.382-20.22683,12.382-8.2235,0-15.5328-4.85191-20.25875-12.382a31.56985,31.56985,0,0,1-18.21076-15.15454c18.70613,5.019,31.091-3.109,31.7898-22.81057,14.93938,7.98724,31.9637-4.079,27.94649-21.70792,13.53615-4.09037,16.61975-24.33488,4.82057-33.71183,10.18572-7.84312,13.20718-22.867,1.82684-34.24738,7.75083,3.24525,14.0521,16.41488,14.87129,32.51457a68.27222,68.27222,0,0,1-.12615,8.82174C457.48509,406.61076,462.49488,418.26815,460.06883,430.90223Z"/>
  </g>
  <g>
    <path class="cls-14" d="M157.857,630.84773V547.32166H144.13916v83.55267h.00626a3.45464,3.45464,0,0,0,2.01852,2.77,10.723,10.723,0,0,0,9.70181.01744A3.3654,3.3654,0,0,0,157.857,630.84773Z"/>
    <path class="cls-18" d="M194.9619,517.82227a68.13638,68.13638,0,0,0,.14862-9.09452c-.85488-16.5863-7.35781-30.15893-15.3343-33.49719.07213-.27882.18152-.5398.23621-.826,1.24289-6.474-2.485-12.322-8.32644-13.06176-.04954-.00614-.09789.00337-.147-.00218-2.20833-16.56747-10.555-25.49573-20.54085-25.49573-9.77819,0-17.98137,8.56562-20.39262,24.47618-8.70375,4.63881-16.32156,18.5077-18.61946,35.70434-.30834,2.30623-.48431,4.56926-.583,6.795a13.06539,13.06539,0,0,0-7.554,9.56576,12.03228,12.03228,0,0,0,1.02689,7.73036,27.64912,27.64912,0,0,0-6.08284,17.73347,29.99005,29.99005,0,0,0,1.21039,8.42552c-3.88877,5.71564-5.53471,13.76485-3.91928,22.34216,1.91188,10.15173,7.915,18.47064,15.2903,22.54152a32.59716,32.59716,0,0,0,18.776,15.61054c4.85818,7.75711,12.38087,12.75639,20.84761,12.75639s15.98983-4.99928,20.8484-12.75639a32.59058,32.59058,0,0,0,18.73757-15.54039,21.22172,21.22172,0,0,0,12.78473-15.81485,19.5023,19.5023,0,0,0-1.9856-13.28648,35.58514,35.58514,0,0,0,5.67382-13.49475C209.55269,535.63342,204.38894,523.61975,194.9619,517.82227Z"/>
    <path class="cls-16" d="M207.05068,548.64405a34.95944,34.95944,0,0,1-5.68175,13.47375,19.49828,19.49828,0,0,1,2.01255,13.31164,21.37972,21.37972,0,0,1-12.79186,15.81148,32.53437,32.53437,0,0,1-18.7336,15.51919c-4.87007,7.75969-12.40267,12.75956-20.84365,12.75956-8.47427,0-16.00647-4.99987-20.87654-12.75956a32.53263,32.53263,0,0,1-18.7661-15.61669c19.27658,5.172,32.0391-3.20381,32.75923-23.50617,15.395,8.2308,32.93844-4.20342,28.79873-22.3699,13.94893-4.21512,17.12656-25.077,4.96756-34.73988,10.49634-8.0823,13.60994-23.56438,1.88256-35.29176,7.98718,3.34421,14.48061,16.91545,15.32479,33.50611a70.35556,70.35556,0,0,1-.13,9.09076C204.38815,523.61182,209.55071,535.6247,207.05068,548.64405Z"/>
  </g>
  <g>
    <path class="cls-14" d="M864.02277,612.96744V518.94682H848.58136v94.05057h.007a3.88867,3.88867,0,0,0,2.27214,3.118,12.07027,12.07027,0,0,0,10.92078.01963A3.78824,3.78824,0,0,0,864.02277,612.96744Z"/>
    <path class="cls-19" d="M905.78968,485.17323a76.69639,76.69639,0,0,0,.16729-10.2372c-.96228-18.67027-8.28228-33.94821-17.261-37.70591.08119-.31385.20432-.60762.26589-.92972,1.399-7.28743-2.79719-13.87021-9.37261-14.7029-.05576-.00691-.11019.0038-.16551-.00245-2.4858-18.64908-11.88116-28.69912-23.12169-28.69912-11.00676,0-20.24062,9.64184-22.95484,27.55147-9.79732,5.22165-18.37226,20.83307-20.95888,40.19037-.34708,2.596-.54516,5.14336-.65625,7.64879A14.707,14.707,0,0,0,803.229,479.0542a13.544,13.544,0,0,0,1.15591,8.70163,31.12313,31.12313,0,0,0-6.84711,19.96158,33.75837,33.75837,0,0,0,1.36246,9.48414c-4.37736,6.43377-6.23011,15.49431-4.41171,25.14932,2.1521,11.42723,8.90953,20.79136,17.21144,25.37372a36.69281,36.69281,0,0,0,21.1351,17.57191c5.46858,8.73175,13.93645,14.35915,23.467,14.35915s17.99885-5.6274,23.46788-14.35915a36.68534,36.68534,0,0,0,21.09183-17.493,23.88806,23.88806,0,0,0,14.391-17.80189,21.95254,21.95254,0,0,0-2.23508-14.95584,40.05607,40.05607,0,0,0,6.38671-15.19028C922.21371,505.22224,916.40117,491.69912,905.78968,485.17323Z"/>
    <path class="cls-16" d="M919.39734,519.86758a39.35175,39.35175,0,0,1-6.39563,15.16664,21.94807,21.94807,0,0,1,2.26542,14.98417,24.066,24.066,0,0,1-14.39909,17.7981,36.62206,36.62206,0,0,1-21.08736,17.46908c-5.482,8.73465-13.961,14.36272-23.46253,14.36272-9.539,0-18.01759-5.62807-23.49955-14.36272a36.62014,36.62014,0,0,1-21.12395-17.57883c21.69856,5.82185,36.06462-3.60635,36.87523-26.45958,17.32924,9.26495,37.077-4.73156,32.41712-25.18055,15.70153-4.74472,19.27842-28.22775,5.59171-39.10473,11.81513-9.0978,15.31994-26.52511,2.11908-39.726,8.99073,3.76439,16.3,19.04077,17.25026,37.71595a79.19322,79.19322,0,0,1-.14633,10.233C916.40028,491.6902,922.21148,505.21242,919.39734,519.86758Z"/>
  </g>
  <g>
    <path class="cls-14" d="M779.61141,669.76993V613.6285H769.34514v56.15932h.00468c.0154.67356.51671,1.34621,1.51064,1.86183a8.84183,8.84183,0,0,0,7.26072.01172C779.12582,671.14035,779.62111,670.45506,779.61141,669.76993Z"/>
    <path class="cls-20" d="M730.39282,593.31067a20.91606,20.91606,0,0,1,5.35147-14.31134,25.54567,25.54567,0,0,1-2.31055-7.97962c-.96822-7.79645,1.64779-14.95212,6.31949-19.20887-.49251-4.95862,1.2741-9.44426,4.6717-11.83967a22.67071,22.67071,0,0,1-.28866-3.6007c0-9.7647,6.08184-17.82049,13.91308-18.91907-.017-.32034-.034-.6255-.034-.94594,0-13.41112,7.05028-24.2743,15.73092-24.2743,7.6276,0,13.9811,8.37623,15.42525,19.46831,3.14274,1.40364,5.58912,5.05016,6.42152,9.62734,4.41684,2.68521,8.375,7.62865,10.53248,13.8231a24.91806,24.91806,0,0,1,.76438,14.96739,12.14579,12.14579,0,0,1,5.06239,10.23758,13.29877,13.29877,0,0,1-1.91944,6.95732v.01527c6.914,3.43289,10.29462,13.07551,7.61059,23.23682A27.52207,27.52207,0,0,1,812.479,600.8325c4.298,5.11116,5.0794,13.47221,1.37613,21.45174a25.99257,25.99257,0,0,1-10.92339,11.87012,29.85256,29.85256,0,0,1-14.55863,12.20583c-3.95834,5.85884-10.34585,9.18492-16.41048,7.88808a13.03447,13.03447,0,0,1-8.8679-7.12522,28.935,28.935,0,0,1-11.34787-6.46907c-6.81221-2.74629-12.87684-9.04756-15.76493-17.3628a27.4368,27.4368,0,0,1-.79838-16.29477A21.129,21.129,0,0,1,730.39282,593.31067Z"/>
    <path class="cls-16" d="M817.64305,590.56625a27.43935,27.43935,0,0,1-5.1611,10.26646c4.301,5.11616,5.08479,13.477,1.37626,21.443a25.9461,25.9461,0,0,1-10.934,11.88026,29.82687,29.82687,0,0,1-14.54689,12.20646c-3.95681,5.85437-10.34157,9.185-16.42017,7.88019a13.03214,13.03214,0,0,1-8.86964-7.12479,28.70685,28.70685,0,0,1-11.33561-6.47239c14.45,2.08382,23.00257-2.50867,23.43566-16.29246,5.56717,2.88245,11.66787-1.647,8.17013-7.85671,11.95738.58444,16.43122-13.44222,8.67076-20.522,13.12908-2.70963,15.56936-18.0513,4.18606-22.59506,8.22934-3.69856,12.15606-11.60151,10.66675-23.26085a12.12674,12.12674,0,0,1,5.06543,10.2322,13.37561,13.37561,0,0,1-1.91156,6.97023c5.31418,2.62665,8.52569,8.9274,8.52569,16.30965A26.95755,26.95755,0,0,1,817.64305,590.56625Z"/>
  </g>
  <polygon class="cls-12" points="171.256 713.497 171.256 727.531 154.1 717.637 154.1 703.603 154.222 703.673 171.256 713.497"/>
  <path class="cls-21" d="M264.412,544.91394c3.919,5.09472,12.33558,7.63275,26.0708,3.45247,7.91268,6.569,29.39529,5.94812,33.44227-6.49437,6.793,2.762,17.169-4.62818,14.28574-9.86029,12.43822,3.45451,22.81429-6.413,19.42469-14.09284,20.484-9.5638,8.16706-28.26311-2.65689-26.88212,1.19249-11.52929-9.219-17.50494-17.72888-11.06655-5.71057-9.79755-23.5141-6.71832-23.43273,6.40679-15.04828-8.77687-32.96379,5.10765-25.29731,24.29114-7.47986-6.84792-16.8855.87814-14.078,9.289C261.68607,522.38653,260.493,539.81922,264.412,544.91394Z"/>
  <polygon class="cls-22" points="546.782 503.649 549.828 509.74 541.169 522.729 521.852 521.236 523.85 515.861 546.782 503.649"/>
  <polygon class="cls-22" points="554.008 510.785 549.828 518.698 556.397 518.698 568.116 513.189 566.101 509.964 554.008 510.785"/>
  <path class="cls-23" d="M442.70791,883.83648,478.709,905.043a42.10143,42.10143,0,0,0,42.65839.046l52.049-30.50876c2.3708-9.29742-9.34893-15.79179-16.44049-9.10358,3.20987-10.122-7.13541-19.01629-16.18066-8.95979-1.95878-17.58477-22.18837-23.10872-33.62821-10.29569-11.55172-9.37922-24.24187-1.54119-24.73039,11.09368-4.66219-8.90247-22.80164-6.06585-19.72537,8.84844C447.15019,856.51687,436.3449,869.66836,442.70791,883.83648Z"/>
  <g>
    <g>
      <g>
        <path class="cls-24" d="M526.5,697.88324c2.69557,2.709,3.10594,9.67427,1.79459,11.8485-2.42427,4.01947-6.21151,3.43246-11.775,6.38077-5.35139,2.8359-15.39709,9.69289-26.22623,6.64314-7.871-2.21666-6.50049-8.75257-4.71782-11.93806l13.62879-8.18479,7.7982-7.4681S519.79832,691.14828,526.5,697.88324Z"/>
        <path class="cls-25" d="M524.70094,687.71125c2.69557,2.709,5.283,15.33412,3.59363,18.2424-1.17182,2.01737-5.30037,4.445-11.17684,6.70611-5.41438,2.08328-13.6306,9.83087-26.19475,7.64013-6.06975-1.05834-7.997-7.76607-3.988-11.20832l12.26927-10.23686,7.7982-7.4681S517.99928,680.97629,524.70094,687.71125Z"/>
        <path class="cls-24" d="M500.704,698.07214l6.18137-9.44522c1.76311-2.79346,9.341-2.75253,12.37214,5.12563,0,0-8.37893,7.50692-12.917,7.76947S499.75494,699.77228,500.704,698.07214Z"/>
        <path class="cls-26" d="M525.24295,678.2893v9.50829c.12862,7.64323-18.12774,10.66548-18.90158.3071l-.79431-9.57105Z"/>
        <path class="cls-24" d="M591.98469,677.83069c2.86177,1.1527,6.47254,2.5767,8.92592,6.83946,2.281,3.9632,3.469,8.832-3.42526,18.06324-3.48021,4.65994-7.90435,16.467-16.77858,19.18368-10.30364,3.15425-18.04308-1.52941-15.28475-10.42423l9.326-10.92119,4.73248-13.81766C581.99375,680.25316,587.00345,675.82428,591.98469,677.83069Z"/>
        <path class="cls-25" d="M590.73828,675.14311c2.86177,1.1527,5.72462,3.78185,8.49984,7.84243,1.63344,2.39,3.69257,6.7397-2.62915,16.42859-3.17816,4.87095-8.27439,17.09871-17.14861,19.81537-10.30364,3.15424-16.9738-2.7982-13.34956-9.339l7.39084-12.00646,4.73247-13.81766C580.74734,677.56559,585.757,673.1367,590.73828,675.14311Z"/>
        <path class="cls-24" d="M574.69937,696.56949c-.2954,1.58139,5.66841,4.05311,8.238,2.16175s6.75524-12.99032,6.75524-12.99032c-.60373-6.13469-10.92819-5.77608-11.85775-2.82354C577.83487,682.91738,575.19185,693.93305,574.69937,696.56949Z"/>
      </g>
      <path class="cls-26" d="M588.4724,668.10371l4.03886,8.63841c3.77069,6.64963-10.30163,17.75049-15.93821,9.0256l-5.27778-8.02378Z"/>
      <g>
        <g>
          <path class="cls-27" d="M463.43133,517.39512l-.87764-4.40545a7.21818,7.21818,0,0,1,1.54843-3.82242l7.68862-9.61349,8.93331,4.31541-1.261,7.00814-.823,4.13249a3.69638,3.69638,0,0,1-2.22343,2.69821l-4.84556,1.98584C470.10158,520.2961,464.82749,521.99026,463.43133,517.39512Z"/>
          <path class="cls-28" d="M485.49728,498.90318l-4.06058,5.9302c-2.90181,4.50851-12.82442-1.60671-10.21228-5.79032l3.34727-6.888S482.23612,493.42155,485.49728,498.90318Z"/>
          <polygon class="cls-29" points="465.094 515.127 469.321 517.215 467.953 513.524 465.094 515.127"/>
          <path class="cls-29" d="M476.88054,510.51006l-3.4111-1.61594.1997,5.30559c.14545,2.16884-1.12737,3.53648-2.39934,3.71888-.97694.14257-2.26733-.32984-2.68924-2.25614l-1.91124-6.49018a.697.697,0,0,1,.48254-.88532.71376.71376,0,0,1,.88532.48255l1.923,6.537c.20013.842.59943,1.274,1.10589,1.20165.546-.07922,1.27422-.81784,1.17935-2.23481l-.26592-7.06459a.7128.7128,0,0,1,1.40013-.21341.69608.69608,0,0,1,.02447.16071l.005.13186,4.08218,1.93456c.805.38223,1.88388,1.37827,1.82521,2.3909l-.3326,1.67A3.83135,3.83135,0,0,0,476.88054,510.51006Z"/>
          <path class="cls-30" d="M485.29873,516.55783c2.077,1.08795,3.278-5.42474.92055-7.50263-2.41473-1.6157-6.54532-1.35373-11.21944-.49717l2.1753,1.03091c.8744.41524,2.04633,1.49711,1.98263,2.59711l-.36134,1.81406C480.18353,514.3747,485.29873,516.55783,485.29873,516.55783Z"/>
          <path class="cls-30" d="M467.49584,516.58439l-1.3015-4.4199a2.03934,2.03934,0,0,0-.22129.48179c-11.72525,49.36844-27.89233,66.06371-75.653,90.40359a2.10792,2.10792,0,1,0,1.914,3.75631c47.53321-24.22472,64.32948-40.374,76.58424-88.10588A3.13691,3.13691,0,0,1,467.49584,516.58439Z"/>
        </g>
        <path class="cls-31" d="M485.137,455.14241s4.68143-33.91535,11.13981-49.07751c5.43358-12.75625,18.95364-15.17093,18.95364-15.17093l-5.65472,41.17152-2.93811,29.15318s-10.48052,28.77461-18.482,38.64853c-3.94373,4.5572-17.22005-1.25615-14.64932-8.4425Z"/>
        <path class="cls-32" d="M497.1792,417.98747l7.39407,11.33084-2.15805,42.71143c-3.21351,7.83375-7.78951,18.15495-12.0312,24.71716Z"/>
        <path class="cls-26" d="M493.97024,516.95c-3.25407,30.45233-2.03312,66.13777-1.21516,84.24971.70461,15.60207,9.96163,77.198,9.96163,77.198.8839,8.331,25.47528,8.56825,26.11624-.52583.52755-22.51417,2.03181-48.38747.05952-75.42576l8.32284-73.60959Z"/>
        <path class="cls-25" d="M591.2184,662.84541c-5.30132-16.70972-13.36524-43.93417-19.64174-63.57274l-6.00085-64.1313-7.20629-62.71719-61.88378,8.10717L493.97024,516.95l27.88136,20.91636c2.06006,12.45785,9.66741,59.48661,14.6843,73.30465s24.418,56.7439,31.546,66.57295C572.75591,684.74147,597.11332,679.43518,591.2184,662.84541Z"/>
        <path class="cls-28" d="M494.787,496.24481l.79782-12.53324,64.96019,2.0069,1.28721,19.06059s-12.11542,11.04807-37.27738,8.55524C507.271,511.622,494.46561,502.70084,494.787,496.24481Z"/>
        <path class="cls-33" d="M533.72232,391.52969c-20.46273-4.71746-34.07757,2.58321-36.15665,21.09039-1.165,9.91056-.223,37.29626-.223,37.29626l-2.13406,33.49734C494.163,496.4911,509.31144,504.6613,526.96972,505.7c17.21607,1.01271,34.58795-4.66716,34.58795-14.957l-1.71382-33.57524,8.76383-37.15867C563.58794,407.81767,546.73175,394.52887,533.72232,391.52969Z"/>
        <path class="cls-32" d="M556.33838,482.0182l-7.467-42.69222,11.25028,23.2836,1.436,28.13357c0,3.8057-2.38085,6.97875-6.24689,9.41793Z"/>
        <path class="cls-27" d="M558.80162,534.19137c.48986-1.77992,2.99775-7.91587,2.99784-7.9161l-.00411-.12881,9.55587-.87191s2.0425,8.34,2.05475,10.77239a19.56159,19.56159,0,0,1-2.56178,9.0313,15.76045,15.76045,0,0,1-5.67354,5.343,1.50629,1.50629,0,0,1-1.53833.24463,1.92239,1.92239,0,0,1-.91191-1.41694l-.37117-6.619a1.43249,1.43249,0,0,1-2.68857-.01283l-1.24568-4.6922C558.14209,536.89654,558.31189,535.9715,558.80162,534.19137Z"/>
        <path class="cls-28" d="M560.90857,527.45323l.4154-6.9131c.2337-5.00513,12.99046-2.871,12.24471,2.28161l-1.16861,6.55341C571.56792,533.45218,560.62286,531.77732,560.90857,527.45323Z"/>
        <path class="cls-34" d="M568.60769,420.00915c3.97286,8.98875,12.14058,38.47628,12.69919,53.3353.58425,15.54121-4.69488,47.29305-4.69488,47.29305-1.46064,7.59533-17.1187,6.36839-16.6513-2.45387l.67842-42.12486-10.88965-33.66283C543.01728,423.82628,562.92082,407.41939,568.60769,420.00915Z"/>
        <g>
          <path class="cls-35" d="M353.60735,637.70943c-.981,9.45672,1.43752,21.83733,24.48462,30.93342l-4.78579,17.12038-4.09186,3.49625c-4.80179,3.43979-1.0127,8.42328,3.91237,6.26s6.30562-8.17056,6.30562-8.17056,9.3288-12.61218,8.26632-22.08226-10.03753-20.55486-10.03753-20.55486Z"/>
          <path class="cls-35" d="M423.93319,621.8838l.0536-6.057,8.01079-8.22745s17.69144-1.80845,22.7004.5482,11.58769,17.45173,11.58769,17.45173,2.626,5.66088,1.75772,9.74747-7.25405,2.81709-7.27782-.49331l-1.516-8.36417-8.315-7.23117Z"/>
          <path class="cls-35" d="M430.11231,595.88c8.05313-2.77472,18.44329-3.13607,25.59012-4.29367,8.02465-1.29981,28.27313-15.81906,31.14422-10.16495s-.06535,13.41151-6.0585,17.80573-17.95012,5.726-23.98936,5.726-15.42954-3.19372-15.42954-3.19372Z"/>
          <path class="cls-36" d="M376.12649,664.26289c-10.392-1.93573-21.47888-8.65556-22.51914-20.12125l3.05757-19.28961,16.49152-21.50668,8.05083,8.44962,14.24341-.048s29.44928-16.2146,35.67289-15.93311c11.55242.52253,15.171,8.09549,17.1443,12.15a30.21833,30.21833,0,0,1,2.49165,18.15759c-1.31728,7.56738-11.15423,23.2184-11.15423,23.2184s10.04407,4.71674,9.56077,7.89273-10.15372,16.07527-12.704,17.3989-6.16481,1.21378-5.42769-3.32267,6.6591-13.70615,6.6591-13.70615-12.0054-2.47007-12.17639-6.94354,3.45975-14.4101,3.45975-14.4101c-8.18759,9.52238-19.41835,19.27141-26.76949,22.14494,0,0,5.22765,3.75287,5.22765,10.27833s-19.42122,14.82867-22.423,17.47783c-2.0812,4.72046-4.162,11.69831-7.05231,12.08508a6.74988,6.74988,0,0,1-7.13447-3.31408c-1.90374-2.86591,2.586-8.7561,4.538-12.20295s14.75588-14.43237,14.75588-14.43237Z"/>
          <path class="cls-35" d="M424.84731,640.79339c-9.69629,7.54649-19.7766,12.58665-28.43022,13.71428l5.79025,3.88622,2.7689-1.30614C410.87661,653.90887,418.36279,647.58939,424.84731,640.79339Z"/>
          <path class="cls-35" d="M345.678,592.72093a20.72024,20.72024,0,0,0-9.35536,11.25405c-1.35268,4.37733,2.9156,8.59892,8.04354,6.15636L358.17478,591.792S349.95354,590.3956,345.678,592.72093Z"/>
          <path class="cls-37" d="M374.98682,605.97724s-1.47826-8.42064-8.68486-12.0755-16.81906-2.36938-19.76869,1.3376-4.09654,6.63279-5.74184,9.9485c-1.50974,3.0425-9.2518,12.2897-9.2518,12.2897-1.97609,3.15809,2.10582,14.361,11.56474,13.32535,4.36307-.47771,5.21277-3.49819,5.21277-3.49819l6.34153,21.51623Z"/>
          <path class="cls-38" d="M331.66277,618.27153c1.55353-1.34634,4.66048.725,4.93665,2.03678s-2.2437,4.07359-3.48658,3.62479S330.10923,619.61786,331.66277,618.27153Z"/>
          <path class="cls-39" d="M348.31714,627.3047l8.63041-1.611a131.63888,131.63888,0,0,0,14.43,18.15838c9.528,10.24142,6.43492,20.89555,6.43492,20.89555s-10.40491-1.45987-14.04118-4.47476-8.769-6.13334-11.145-12.69246S348.31714,627.3047,348.31714,627.3047Z"/>
          <path class="cls-30" d="M349.50037,634.542a9.87416,9.87416,0,0,1-1.18335-7.23729c9.18291,8.74546,26.6698,1.70307,26.297-14.05224l6.18161-1.31829C383.48318,631.35524,358.46647,646.33765,349.50037,634.542Z"/>
          <path class="cls-40" d="M378.10368,611.44911h0a3.38931,3.38931,0,0,1,1.59792-4.42406l11.76075-5.54822a3.18153,3.18153,0,0,1,4.27306,1.65438v0a3.38931,3.38931,0,0,1-1.59792,4.42406l-11.76075,5.54822A3.18153,3.18153,0,0,1,378.10368,611.44911Z"/>
          <path class="cls-35" d="M365.9508,599.16484c0-2.10109,1.95368-2.37291,4.05656-2.56912,0,0,7.36145,6.68883,13.64654,9.45464,6.54868,2.8818,8.58,13.5516,1.21761,13.56292-9.43591.01452-14.3912-4.37718-16.56247-8.47152S365.9508,599.16484,365.9508,599.16484Z"/>
        </g>
        <g>
          <path class="cls-28" d="M541.26451,393.79553c2.40451,5.19684.497,10.73607-5.79279,17.067-6.05841,6.09805-16.5859,11.31714-16.5859,11.31714a42.33594,42.33594,0,0,1-4.15068-18.68186c.21486-8.19463,2.458-12.74043,9.42233-15.4483C531.5064,385.19211,538.84959,388.57617,541.26451,393.79553Z"/>
          <path class="cls-41" d="M537.70055,393.64946c1.32918,3.62239.37371,7.90167-5.55043,13.2334a46.209,46.209,0,0,1-11.56827,7.67323,28.98406,28.98406,0,0,1-2.26084-11.79728c-.05344-7.18973,1.28327-10.956,7.91981-12.94006C532.58267,387.92282,536.72716,390.88563,537.70055,393.64946Z"/>
          <path class="cls-27" d="M518.52352,398.5974c.56772-4.55321,2.5042-7.2201,7.71721-8.77859,6.34186-1.89614,10.48634,1.06685,11.45978,3.83051a8.47957,8.47957,0,0,1-.33029,6.6326,14.06231,14.06231,0,0,1-4.41119,3.33283c-5.568,2.71673-11.74873,1.50262-13.8051-2.712A6.586,6.586,0,0,1,518.52352,398.5974Z"/>
          <path class="cls-29" d="M520.936,394.36381c-.45454,8.01379,16.55184,6.358,16.563-.95779l.62972-14.15117-15.824,2.29445Z"/>
        </g>
      </g>
    </g>
    <g>
      <path class="cls-42" d="M513.9729,356.33833c-1.71505,5.54488-1.37152,11.77185,3.15253,18.57208l4.50384-11.1393Z"/>
      <path class="cls-27" d="M525.82026,392.62818c8.48879-1.085,13.33768-5.11234,14.58463-12.87268l2.66846-16.782c1.2656-6.73988-4.185-13.78732-12.12142-14.57224-6.9363-.686-14.66243,4.33776-15.42609,12.02131a156.075,156.075,0,0,0-.46721,17.10665C515.40743,385.14235,518.10579,393.61421,525.82026,392.62818Z"/>
      <path class="cls-43" d="M524.418,347.88352c-6.73646,1.37485-12.79268,5.32283-12.03129,12.46815.63281,5.93878,8.53489,7.18033,20.82022,4.76725l-.623,3.03267a1.43178,1.43178,0,0,0,.7197,1.54661l.76989.41771a.98879.98879,0,0,1,.47046,1.18128,11.18945,11.18945,0,0,0-.5793,4.9781c.222,1.345,1.88537,1.59887,1.88537,1.59887L537.6617,389.749c1.95156-4.30441,1.91732-3.81264,7.63588-13.95873,3.33856-5.9234,6.03553-13.987.13071-21.318C541.09449,349.09173,532.58566,346.21659,524.418,347.88352Z"/>
      <path class="cls-27" d="M537.30742,383.76226c2.81424.36823,5.69741-3.25126,6.11527-6.44472s-1.99548-6.24283-4.60207-5.11982C535.54849,373.60747,534.49319,383.394,537.30742,383.76226Z"/>
    </g>
  </g>
  <g class="cls-44">
    <g>
      <path class="cls-45" d="M1238.09907,309.5091s-47.27214,7.13472-84.706,55.18823c-31.07529,39.891-108.53112,161.31394-108.53112,161.31394l-20.64869,10.63326s-42.54414,30.62544-23.82638,72.38455c10.60882,23.66815,44.47507,43.3916,91.90335,11.83407,12.34282-8.21259,74.86143-72.56781,100.0641-114.755Z"/>
      <path class="cls-26" d="M1231.71043,950.12341l-68.06125-219.76406L952.81149,805.5464c-61.322,24.744-78.5352,79.611-60.9634,141.29165l82.521,264.41381c11.93166,40.98146,115.057,17.06586,109.97314-22.56072l-25.82012-218.54356Z"/>
    </g>
  </g>
</svg>
