<svg id="Layer_1" data-name="Layer 1" xmlns="http://www.w3.org/2000/svg" xmlns:xlink="http://www.w3.org/1999/xlink" viewBox="0 0 1000 1000">
  <defs>
    <style>
      .cls-1, .cls-18, .cls-19 {
        fill: none;
      }

      .cls-2 {
        fill: url(#linear-gradient);
      }

      .cls-3 {
        fill: #b8cbd8;
      }

      .cls-4 {
        fill: url(#linear-gradient-2);
      }

      .cls-5 {
        fill: #9bb0c4;
      }

      .cls-6 {
        fill: url(#linear-gradient-3);
      }

      .cls-7 {
        fill: url(#linear-gradient-4);
      }

      .cls-8 {
        fill: url(#linear-gradient-5);
      }

      .cls-9 {
        fill: url(#linear-gradient-6);
      }

      .cls-10 {
        fill: url(#linear-gradient-7);
      }

      .cls-11 {
        fill: #e58630;
      }

      .cls-12 {
        fill: url(#linear-gradient-8);
      }

      .cls-13, .cls-46, .cls-51 {
        opacity: 0.5;
      }

      .cls-14 {
        fill: url(#linear-gradient-9);
      }

      .cls-15 {
        fill: #748ca3;
      }

      .cls-16 {
        fill: #586c7f;
      }

      .cls-17 {
        fill: url(#linear-gradient-10);
      }

      .cls-18, .cls-19 {
        stroke-miterlimit: 10;
        stroke-width: 5px;
      }

      .cls-18 {
        stroke: url(#linear-gradient-11);
      }

      .cls-19 {
        stroke: url(#linear-gradient-12);
      }

      .cls-20 {
        fill: url(#linear-gradient-13);
      }

      .cls-21 {
        fill: url(#linear-gradient-14);
      }

      .cls-22 {
        fill: url(#linear-gradient-15);
      }

      .cls-23 {
        fill: url(#linear-gradient-16);
      }

      .cls-24 {
        fill: url(#linear-gradient-17);
      }

      .cls-25 {
        fill: url(#linear-gradient-18);
      }

      .cls-26 {
        fill: url(#linear-gradient-19);
      }

      .cls-27 {
        fill: url(#linear-gradient-20);
      }

      .cls-28 {
        fill: url(#linear-gradient-21);
      }

      .cls-29 {
        fill: url(#linear-gradient-22);
      }

      .cls-30 {
        fill: url(#linear-gradient-23);
      }

      .cls-31 {
        fill: url(#linear-gradient-24);
      }

      .cls-32 {
        fill: #ffcb48;
      }

      .cls-33 {
        fill: #34a521;
      }

      .cls-34 {
        fill: #e2e2e2;
      }

      .cls-35 {
        clip-path: url(#clip-path);
      }

      .cls-36 {
        fill: url(#linear-gradient-25);
      }

      .cls-37 {
        fill: url(#linear-gradient-26);
      }

      .cls-38 {
        fill: url(#linear-gradient-27);
      }

      .cls-39 {
        fill: #541510;
        opacity: 0.3;
      }

      .cls-40 {
        fill: url(#linear-gradient-28);
      }

      .cls-41, .cls-46 {
        fill: #bcd0e2;
      }

      .cls-42 {
        fill: #e9f1f4;
      }

      .cls-43 {
        fill: url(#linear-gradient-29);
      }

      .cls-44 {
        fill: url(#linear-gradient-30);
      }

      .cls-45 {
        fill: #f0f9fc;
      }

      .cls-47 {
        fill: url(#linear-gradient-31);
      }

      .cls-48, .cls-51, .cls-54 {
        fill: #dd7b19;
      }

      .cls-49 {
        fill: #d6e4ed;
      }

      .cls-50 {
        fill: #ffbda3;
      }

      .cls-52 {
        fill: #e48f7c;
      }

      .cls-53 {
        fill: url(#linear-gradient-32);
      }

      .cls-54 {
        opacity: 0.6;
      }

      .cls-55 {
        fill: url(#linear-gradient-33);
      }

      .cls-56 {
        fill: url(#linear-gradient-34);
      }

      .cls-57 {
        fill: url(#linear-gradient-35);
      }

      .cls-58 {
        fill: url(#linear-gradient-36);
      }

      .cls-59 {
        fill: url(#linear-gradient-37);
      }

      .cls-60 {
        fill: url(#linear-gradient-38);
      }

      .cls-61 {
        fill: url(#linear-gradient-39);
      }

      .cls-62 {
        fill: url(#linear-gradient-40);
      }

      .cls-63 {
        fill: url(#linear-gradient-41);
      }

      .cls-64 {
        fill: #fff;
      }

      .cls-65 {
        fill: url(#linear-gradient-42);
      }

      .cls-66 {
        fill: url(#linear-gradient-43);
      }

      .cls-67 {
        opacity: 0.4;
        fill: url(#linear-gradient-44);
      }

      .cls-68 {
        fill: url(#linear-gradient-45);
      }

      .cls-69 {
        fill: url(#linear-gradient-46);
      }

      .cls-70 {
        fill: url(#linear-gradient-47);
      }

      .cls-71 {
        fill: url(#linear-gradient-48);
      }

      .cls-72 {
        fill: url(#linear-gradient-49);
      }

      .cls-73 {
        fill: url(#linear-gradient-50);
      }

      .cls-74 {
        fill: url(#linear-gradient-51);
      }

      .cls-75 {
        fill: url(#linear-gradient-52);
      }

      .cls-76 {
        fill: url(#linear-gradient-53);
      }

      .cls-77 {
        fill: url(#linear-gradient-54);
      }

      .cls-78 {
        fill: url(#linear-gradient-55);
      }

      .cls-79 {
        fill: url(#linear-gradient-56);
      }

      .cls-80 {
        fill: url(#linear-gradient-57);
      }

      .cls-81 {
        fill: url(#linear-gradient-58);
      }

      .cls-82 {
        fill: url(#linear-gradient-59);
      }

      .cls-83 {
        fill: url(#linear-gradient-60);
      }

      .cls-84 {
        fill: url(#linear-gradient-61);
      }

      .cls-85 {
        fill: url(#linear-gradient-62);
      }

      .cls-86 {
        fill: #ffbea4;
      }

      .cls-87 {
        fill: url(#linear-gradient-63);
      }

      .cls-88 {
        fill: #c6716b;
      }

      .cls-89 {
        fill: url(#linear-gradient-64);
      }

      .cls-90 {
        fill: url(#linear-gradient-65);
      }

      .cls-91 {
        fill: url(#linear-gradient-66);
      }

      .cls-92 {
        fill: url(#linear-gradient-67);
      }

      .cls-93 {
        fill: url(#linear-gradient-68);
      }
    </style>
    <linearGradient id="linear-gradient" x1="521.50943" y1="396.22833" x2="928.15567" y2="396.22833" gradientUnits="userSpaceOnUse">
      <stop offset="0" stop-color="#e4edf2"/>
      <stop offset="1" stop-color="#c3d6e6"/>
    </linearGradient>
    <linearGradient id="linear-gradient-2" x1="114.87886" y1="711.22041" x2="928.15567" y2="711.22041" gradientUnits="userSpaceOnUse">
      <stop offset="0" stop-color="#dae9f2"/>
      <stop offset="0.99337" stop-color="#c4d5e6"/>
    </linearGradient>
    <linearGradient id="linear-gradient-3" x1="-916.23489" y1="188.87542" x2="-922.36255" y2="512.10947" gradientTransform="translate(1237.78726)" gradientUnits="userSpaceOnUse">
      <stop offset="0" stop-color="#293440"/>
      <stop offset="1" stop-color="#3e4c59"/>
    </linearGradient>
    <linearGradient id="linear-gradient-4" x1="-1089.94225" y1="396.19506" x2="-746.59953" y2="396.19506" gradientTransform="translate(1237.78726)" gradientUnits="userSpaceOnUse">
      <stop offset="0" stop-color="#5b6f82"/>
      <stop offset="1" stop-color="#849bb2"/>
    </linearGradient>
    <linearGradient id="linear-gradient-5" x1="-728.22582" y1="293.17671" x2="-1102.12283" y2="495.85551" gradientTransform="translate(1237.78726)" gradientUnits="userSpaceOnUse">
      <stop offset="0" stop-color="#62778c"/>
      <stop offset="1" stop-color="#435466"/>
    </linearGradient>
    <linearGradient id="linear-gradient-6" x1="-795.26524" y1="325.43067" x2="-933.74356" y2="400.49578" xlink:href="#linear-gradient-5"/>
    <linearGradient id="linear-gradient-7" x1="-906.73405" y1="389.7831" x2="-1045.21236" y2="464.84821" xlink:href="#linear-gradient-5"/>
    <linearGradient id="linear-gradient-8" x1="-1087.85405" y1="333.09678" x2="-912.4498" y2="569.01168" gradientTransform="translate(1237.78726)" gradientUnits="userSpaceOnUse">
      <stop offset="0.00005" stop-color="#ffcb48"/>
      <stop offset="1" stop-color="#e68e2b"/>
    </linearGradient>
    <linearGradient id="linear-gradient-9" x1="-910.12518" y1="230.45356" x2="-734.72093" y2="466.36846" xlink:href="#linear-gradient-8"/>
    <linearGradient id="linear-gradient-10" x1="-1298.99246" y1="240.09776" x2="-735.17368" y2="240.09776" xlink:href="#linear-gradient-4"/>
    <linearGradient id="linear-gradient-11" x1="8918.07187" y1="475.31353" x2="8984.87272" y2="505.83343" gradientTransform="translate(-8377.35491)" gradientUnits="userSpaceOnUse">
      <stop offset="0" stop-color="#3e4c59"/>
      <stop offset="1" stop-color="#293440"/>
    </linearGradient>
    <linearGradient id="linear-gradient-12" x1="8851.53879" y1="429.30395" x2="8927.0216" y2="463.79045" xlink:href="#linear-gradient-11"/>
    <linearGradient id="linear-gradient-13" x1="725.22175" y1="370.61972" x2="847.81411" y2="456.95236" gradientTransform="translate(-242.3977)" xlink:href="#linear-gradient-5"/>
    <linearGradient id="linear-gradient-14" x1="724.87096" y1="384.01489" x2="857.46014" y2="527.90676" gradientTransform="translate(-242.3977)" gradientUnits="userSpaceOnUse">
      <stop offset="0" stop-color="#62788c"/>
      <stop offset="1" stop-color="#526575"/>
    </linearGradient>
    <linearGradient id="linear-gradient-15" x1="711.79115" y1="365.93489" x2="791.94729" y2="490.97847" gradientTransform="translate(-242.3977)" gradientUnits="userSpaceOnUse">
      <stop offset="0" stop-color="#96b1cc"/>
      <stop offset="1" stop-color="#748ea6"/>
    </linearGradient>
    <linearGradient id="linear-gradient-16" x1="718.46368" y1="407.00607" x2="846.63183" y2="407.00607" gradientTransform="translate(-242.3977)" gradientUnits="userSpaceOnUse">
      <stop offset="0" stop-color="#526575"/>
      <stop offset="1" stop-color="#62788c"/>
    </linearGradient>
    <linearGradient id="linear-gradient-17" x1="718.46363" y1="386.24029" x2="846.6318" y2="386.24029" xlink:href="#linear-gradient-15"/>
    <linearGradient id="linear-gradient-18" x1="514.91155" y1="385.4919" x2="565.38856" y2="385.4919" gradientTransform="matrix(1, 0, 0, 1, 0, 0)" xlink:href="#linear-gradient-5"/>
    <linearGradient id="linear-gradient-19" x1="514.91153" y1="381.64595" x2="565.38857" y2="381.64595" gradientUnits="userSpaceOnUse">
      <stop offset="0" stop-color="#849bb2"/>
      <stop offset="1" stop-color="#5b6f82"/>
    </linearGradient>
    <linearGradient id="linear-gradient-20" x1="539.80912" y1="341.03581" x2="540.48118" y2="378.22327" gradientTransform="matrix(1, 0, 0, 1, 0, 0)" xlink:href="#linear-gradient-5"/>
    <linearGradient id="linear-gradient-21" x1="506.20709" y1="333.66652" x2="574.09305" y2="333.66652" gradientTransform="matrix(1, 0, 0, 1, 0, 0)" xlink:href="#linear-gradient-5"/>
    <linearGradient id="linear-gradient-22" x1="505.75169" y1="328.69073" x2="574.54846" y2="328.69073" gradientUnits="userSpaceOnUse">
      <stop offset="0.00844" stop-color="#ffc63f"/>
      <stop offset="1" stop-color="#e68a23"/>
    </linearGradient>
    <linearGradient id="linear-gradient-23" x1="532.73233" y1="315.91105" x2="547.56768" y2="315.91105" gradientTransform="matrix(1, 0, 0, 1, 0, 0)" xlink:href="#linear-gradient-11"/>
    <linearGradient id="linear-gradient-24" x1="532.73234" y1="310.18743" x2="547.56776" y2="310.18743" gradientTransform="matrix(1, 0, 0, 1, 0, 0)" xlink:href="#linear-gradient-5"/>
    <clipPath id="clip-path">
      <path class="cls-1" d="M435.98541,305.84375A194.17509,194.17509,0,1,1,364.93924,155.6819,193.78539,193.78539,0,0,1,435.98541,305.84375Z"/>
    </clipPath>
    <linearGradient id="linear-gradient-25" x1="177.49836" y1="-163.83812" x2="809.18871" y2="663.422" gradientTransform="matrix(1, 0, 0, 1, 0, 0)" xlink:href="#linear-gradient-5"/>
    <linearGradient id="linear-gradient-26" x1="113.80501" y1="-115.8335" x2="739.8396" y2="704.01985" gradientTransform="matrix(1, 0, 0, 1, 0, 0)" xlink:href="#linear-gradient-14"/>
    <linearGradient id="linear-gradient-27" x1="-693.68201" y1="725.50475" x2="989.5135" y2="1177.44096" gradientTransform="matrix(1, 0, 0, 1, 0, 0)" xlink:href="#linear-gradient-5"/>
    <linearGradient id="linear-gradient-28" x1="-1176.42552" y1="1006.79433" x2="1047.50937" y2="1127.10556" gradientTransform="matrix(1, 0, 0, 1, 0, 0)" xlink:href="#linear-gradient-11"/>
    <linearGradient id="linear-gradient-29" x1="152.12074" y1="-302.07547" x2="1010.48457" y2="822.03569" gradientUnits="userSpaceOnUse">
      <stop offset="0" stop-color="#596c80"/>
      <stop offset="0.99886" stop-color="#3a4959"/>
    </linearGradient>
    <linearGradient id="linear-gradient-30" x1="158.31737" y1="1197.44234" x2="262.98609" y2="1360.72554" gradientTransform="matrix(1, 0, 0, 1, 0, 0)" xlink:href="#linear-gradient-11"/>
    <linearGradient id="linear-gradient-31" x1="53.11066" y1="264.70281" x2="-20.77346" y2="695.69349" gradientTransform="matrix(1, 0, 0, 1, 0, 0)" xlink:href="#linear-gradient-8"/>
    <linearGradient id="linear-gradient-32" x1="-1028.90855" y1="563.83455" x2="106.77645" y2="1197.34591" gradientTransform="matrix(1, 0, 0, 1, 0, 0)" xlink:href="#linear-gradient-8"/>
    <linearGradient id="linear-gradient-33" x1="-27.53866" y1="250.87721" x2="-101.43626" y2="681.94655" gradientTransform="matrix(1, 0, 0, 1, 0, 0)" xlink:href="#linear-gradient-8"/>
    <linearGradient id="linear-gradient-34" x1="226.44899" y1="294.41795" x2="152.55139" y2="725.48728" gradientTransform="matrix(1, 0, 0, 1, 0, 0)" xlink:href="#linear-gradient-8"/>
    <linearGradient id="linear-gradient-35" x1="199.51765" y1="205.21431" x2="222.64703" y2="273.15686" gradientUnits="userSpaceOnUse">
      <stop offset="0" stop-color="#966551"/>
      <stop offset="1" stop-color="#805345"/>
    </linearGradient>
    <linearGradient id="linear-gradient-36" x1="258.24787" y1="176.02194" x2="322.40393" y2="364.48038" xlink:href="#linear-gradient-35"/>
    <linearGradient id="linear-gradient-37" x1="-7625.53385" y1="215.57961" x2="-7543.22756" y2="348.73289" gradientTransform="matrix(0.98984, -0.0381, 0.12876, 1.00209, 7719.73408, -276.71672)" xlink:href="#linear-gradient-5"/>
    <linearGradient id="linear-gradient-38" x1="-7547.35427" y1="200.65676" x2="-7459.2981" y2="343.11207" gradientTransform="matrix(0.98984, -0.0381, 0.12876, 1.00209, 7648.37225, -273.96983)" xlink:href="#linear-gradient-5"/>
    <linearGradient id="linear-gradient-39" x1="884.47743" y1="403.4152" x2="909.26055" y2="466.26879" xlink:href="#linear-gradient-22"/>
    <linearGradient id="linear-gradient-40" x1="891.68474" y1="407.3511" x2="900.14185" y2="420.57726" gradientTransform="matrix(1, 0, 0, 1, 0, 0)" xlink:href="#linear-gradient-5"/>
    <linearGradient id="linear-gradient-41" x1="875.31142" y1="416.90389" x2="905.09595" y2="463.4842" gradientTransform="matrix(1, 0, 0, 1, 0, 0)" xlink:href="#linear-gradient-5"/>
    <linearGradient id="linear-gradient-42" x1="692.07474" y1="321.16965" x2="769.39381" y2="321.16965" gradientTransform="translate(-18.64021 -32.28579)" gradientUnits="userSpaceOnUse">
      <stop offset="0" stop-color="#435466"/>
      <stop offset="1" stop-color="#62778c"/>
    </linearGradient>
    <linearGradient id="linear-gradient-43" x1="702.49493" y1="317.1864" x2="766.0789" y2="317.1864" gradientTransform="translate(-18.64021 -32.28579)" gradientUnits="userSpaceOnUse">
      <stop offset="0" stop-color="#fff"/>
      <stop offset="0.98888" stop-color="#e6edf2"/>
    </linearGradient>
    <linearGradient id="linear-gradient-44" x1="711.60723" y1="319.11183" x2="754.71269" y2="319.11183" gradientTransform="translate(-18.64021 -32.28579)" xlink:href="#linear-gradient-5"/>
    <linearGradient id="linear-gradient-45" x1="692.07473" y1="321.16965" x2="769.39382" y2="321.16965" gradientTransform="translate(-18.64021 -32.28579)" xlink:href="#linear-gradient-19"/>
    <linearGradient id="linear-gradient-46" x1="709.04016" y1="242.52306" x2="788.54003" y2="347.60115" gradientTransform="translate(-18.64021 -32.28579)" xlink:href="#linear-gradient-5"/>
    <linearGradient id="linear-gradient-47" x1="677.5777" y1="217.56786" x2="795.46185" y2="373.37996" gradientTransform="translate(-18.64021 -32.28579)" xlink:href="#linear-gradient-5"/>
    <linearGradient id="linear-gradient-48" x1="792.11828" y1="358.86149" x2="766.43811" y2="298.64073" gradientTransform="translate(3.46411 6.00002)" xlink:href="#linear-gradient-42"/>
    <linearGradient id="linear-gradient-49" x1="725.58483" y1="263.80234" x2="764.92008" y2="263.80234" gradientTransform="translate(47.76727 82.73534)" xlink:href="#linear-gradient-43"/>
    <linearGradient id="linear-gradient-50" x1="715.16462" y1="267.78559" x2="768.235" y2="267.78559" gradientTransform="translate(47.76727 82.73534)" xlink:href="#linear-gradient-19"/>
    <linearGradient id="linear-gradient-51" x1="727.50088" y1="215.04567" x2="782.29632" y2="287.47095" gradientTransform="translate(47.76727 82.73534)" xlink:href="#linear-gradient-5"/>
    <linearGradient id="linear-gradient-52" x1="709.34241" y1="200.70012" x2="786.04322" y2="302.07858" gradientTransform="translate(47.76727 82.73534)" xlink:href="#linear-gradient-5"/>
    <linearGradient id="linear-gradient-53" x1="645.30886" y1="322.89488" x2="841.73524" y2="580.13437" gradientTransform="matrix(1, 0, 0, 1, 0, 0)" xlink:href="#linear-gradient-5"/>
    <linearGradient id="linear-gradient-54" x1="625.50319" y1="337.82209" x2="820.17088" y2="592.75842" gradientTransform="matrix(1, 0, 0, 1, 0, 0)" xlink:href="#linear-gradient-14"/>
    <linearGradient id="linear-gradient-55" x1="374.41221" y1="599.43923" x2="897.80788" y2="739.97041" gradientTransform="matrix(1, 0, 0, 1, 0, 0)" xlink:href="#linear-gradient-5"/>
    <linearGradient id="linear-gradient-56" x1="231.91174" y1="634.50385" x2="659.54509" y2="906.7549" gradientTransform="matrix(1, 0, 0, 1, 0, 0)" xlink:href="#linear-gradient-14"/>
    <linearGradient id="linear-gradient-57" x1="224.30138" y1="686.90723" x2="915.8419" y2="724.31844" gradientTransform="matrix(1, 0, 0, 1, 0, 0)" xlink:href="#linear-gradient-11"/>
    <linearGradient id="linear-gradient-58" x1="247.51223" y1="729.65096" x2="838.79659" y2="761.63847" gradientTransform="matrix(1, 0, 0, 1, 0, 0)" xlink:href="#linear-gradient-11"/>
    <linearGradient id="linear-gradient-59" x1="637.4176" y1="279.90948" x2="904.32891" y2="629.45587" xlink:href="#linear-gradient-29"/>
    <linearGradient id="linear-gradient-60" x1="639.34446" y1="746.18991" x2="671.89158" y2="796.96341" gradientTransform="matrix(1, 0, 0, 1, 0, 0)" xlink:href="#linear-gradient-11"/>
    <linearGradient id="linear-gradient-61" x1="606.63006" y1="456.15121" x2="583.65553" y2="590.16931" gradientTransform="matrix(1, 0, 0, 1, 0, 0)" xlink:href="#linear-gradient-8"/>
    <linearGradient id="linear-gradient-62" x1="270.17231" y1="549.1673" x2="623.31763" y2="746.15993" gradientTransform="matrix(1, 0, 0, 1, 0, 0)" xlink:href="#linear-gradient-8"/>
    <linearGradient id="linear-gradient-63" x1="581.55187" y1="451.85209" x2="558.57314" y2="585.89465" gradientTransform="matrix(1, 0, 0, 1, 0, 0)" xlink:href="#linear-gradient-8"/>
    <linearGradient id="linear-gradient-64" x1="660.53024" y1="465.39124" x2="637.55151" y2="599.4338" gradientTransform="matrix(1, 0, 0, 1, 0, 0)" xlink:href="#linear-gradient-8"/>
    <linearGradient id="linear-gradient-65" x1="652.15584" y1="437.65305" x2="659.348" y2="458.78003" xlink:href="#linear-gradient-35"/>
    <linearGradient id="linear-gradient-66" x1="670.41821" y1="428.57558" x2="690.36777" y2="487.17741" xlink:href="#linear-gradient-35"/>
    <linearGradient id="linear-gradient-67" x1="-7197.36954" y1="445.17236" x2="-7169.08718" y2="490.92693" gradientTransform="matrix(0.98984, -0.0381, 0.12876, 1.00209, 7719.73408, -276.71672)" xlink:href="#linear-gradient-5"/>
    <linearGradient id="linear-gradient-68" x1="-7122.80777" y1="440.65341" x2="-7093.08514" y2="488.73804" gradientTransform="matrix(0.98984, -0.0381, 0.12876, 1.00209, 7648.37225, -273.96983)" xlink:href="#linear-gradient-5"/>
  </defs>
  <g>
    <g>
      <polygon class="cls-2" points="521.509 81.236 928.156 316.004 928.156 711.22 521.509 476.43 521.509 81.236"/>
      <polygon class="cls-3" points="521.525 81.236 114.879 316.004 114.879 711.22 521.525 476.43 521.525 81.236"/>
    </g>
    <path class="cls-4" d="M121.896,723.3864l378.58059,218.564a42.10143,42.10143,0,0,0,42.1011-.00062l378.5612-218.56743a14.03381,14.03381,0,0,0,.00016-24.307L542.5613,480.49136a42.10144,42.10144,0,0,0-42.10408.00053l-378.562,218.58744A14.03381,14.03381,0,0,0,121.896,723.3864Z"/>
    <path class="cls-5" d="M226.3809,766.56781,459.93617,901.383a25.8435,25.8435,0,0,0,25.846-.002l376.022-217.16324a12.92175,12.92175,0,0,0-.00084-22.37988L628.33138,527.04226a25.84349,25.84349,0,0,0-25.8448-.00074l-376.10591,217.145A12.92174,12.92174,0,0,0,226.3809,766.56781Z"/>
  </g>
  <g>
    <g>
      <path class="cls-6" d="M495.0292,461.80623,151.68013,660.03582l-11.46525-6.61724V330.59447L483.564,132.35338l11.46525-2.15873Z"/>
      <polygon class="cls-7" points="491.188 135.665 487.246 137.94 487.252 456.375 147.845 652.319 147.845 656.725 491.188 458.506 491.188 135.665"/>
      <path class="cls-8" d="M136.357,327.271V676.623L502.676,465.13872V115.76621Zm11.48824,6.6326L491.18773,135.66491l0,322.84091L147.84525,656.7252Z"/>
    </g>
    <polygon class="cls-9" points="375.783 520.728 370.783 523.615 370.783 205.199 375.783 202.312 375.783 520.728"/>
    <polygon class="cls-10" points="264.314 585.08 259.314 587.967 259.314 269.551 264.314 266.664 264.314 585.08"/>
    <g>
      <path class="cls-11" d="M320.03935,241.7198l-172.1941,99.549V654.67317a2.97181,2.97181,0,0,0,1.50513,2.60065l-.00024.00018,3.38843,1.94965-.40357-1.94727.01-.005,163.20081-94.20411a9,9,0,0,0,4.50073-7.79486L323.43046,243.672Z"/>
      <path class="cls-12" d="M323.4376,557.22459,323.43049,243.672,151.23636,343.221V656.62532a3,3,0,0,0,4.49977,2.59821l163.20076-94.2041A9,9,0,0,0,323.4376,557.22459Z"/>
      <g>
        <g class="cls-13">
          <polygon class="cls-11" points="173.048 649.203 170.749 650.53 170.749 331.939 173.048 330.611 173.048 649.203"/>
        </g>
        <g class="cls-13">
          <polygon class="cls-11" points="194.86 636.593 192.56 637.921 192.56 319.329 194.86 318.002 194.86 636.593"/>
        </g>
        <g class="cls-13">
          <polygon class="cls-11" points="216.671 623.984 214.372 625.311 214.372 306.72 216.671 305.392 216.671 623.984"/>
        </g>
        <g class="cls-13">
          <polygon class="cls-11" points="238.483 611.374 236.184 612.702 236.184 294.11 238.483 292.783 238.483 611.374"/>
        </g>
        <g class="cls-13">
          <polygon class="cls-11" points="260.295 598.765 257.995 600.092 257.995 281.501 260.295 280.173 260.295 598.765"/>
        </g>
        <g class="cls-13">
          <polygon class="cls-11" points="282.106 586.155 279.807 587.482 279.807 268.891 282.106 267.564 282.106 586.155"/>
        </g>
        <g class="cls-13">
          <polygon class="cls-11" points="303.918 573.545 301.619 574.873 301.619 256.282 303.918 254.954 303.918 573.545"/>
        </g>
      </g>
    </g>
    <g>
      <path class="cls-11" d="M497.76821,139.07658l-172.19409,99.549V552.03a2.97181,2.97181,0,0,0,1.50513,2.60065l-.00024.00018,3.38842,1.94965-.40356-1.94727.01-.005,163.2008-94.2041a9,9,0,0,0,4.50074-7.79486l3.38391-311.60046Z"/>
      <path class="cls-14" d="M501.16647,454.58136l-.00712-313.55261-172.19412,99.549V553.98209a3,3,0,0,0,4.49976,2.59822l163.20076-94.2041A9,9,0,0,0,501.16647,454.58136Z"/>
      <g>
        <g class="cls-13">
          <polygon class="cls-11" points="350.777 546.56 348.478 547.887 348.478 229.296 350.777 227.968 350.777 546.56"/>
        </g>
        <g class="cls-13">
          <polygon class="cls-11" points="372.589 533.95 370.289 535.278 370.289 216.686 372.589 215.359 372.589 533.95"/>
        </g>
        <g class="cls-13">
          <polygon class="cls-11" points="394.4 521.34 392.101 522.668 392.101 204.077 394.4 202.749 394.4 521.34"/>
        </g>
        <g class="cls-13">
          <polygon class="cls-11" points="416.212 508.731 413.913 510.058 413.913 191.467 416.212 190.139 416.212 508.731"/>
        </g>
        <g class="cls-13">
          <polygon class="cls-11" points="438.024 496.121 435.724 497.449 435.724 178.857 438.024 177.53 438.024 496.121"/>
        </g>
        <g class="cls-13">
          <polygon class="cls-11" points="459.835 483.512 457.536 484.839 457.536 166.248 459.835 164.92 459.835 483.512"/>
        </g>
        <g class="cls-13">
          <polygon class="cls-11" points="481.647 470.902 479.348 472.23 479.348 153.638 481.647 152.311 481.647 470.902"/>
        </g>
      </g>
    </g>
    <g>
      <path class="cls-15" d="M498.691,132.33943v6.03443l-14.83479,8.56338V140.018a3.36191,3.36191,0,0,1,1.68117-2.91162l10.70616-6.18012A1.63171,1.63171,0,0,1,498.691,132.33943Z"/>
      <path class="cls-16" d="M156.28676,330.29116v6.03443L141.452,344.889v-6.91922a3.36193,3.36193,0,0,1,1.68116-2.91162L153.8393,328.878A1.63171,1.63171,0,0,1,156.28676,330.29116Z"/>
      <path class="cls-17" d="M506.42655,138.88379,143.80033,348.28887l-3.92587-6.79981L502.51387,132.07637l.00179.0031a1.97737,1.97737,0,0,1,1.95074.20783,6.13755,6.13755,0,0,1,2.78517,4.8041A1.92627,1.92627,0,0,1,506.42655,138.88379Z"/>
      <ellipse class="cls-16" cx="141.83739" cy="344.88896" rx="2.26305" ry="3.92587" transform="translate(-153.44187 117.12506) rotate(-30)"/>
    </g>
  </g>
  <g>
    <g>
      <path class="cls-18" d="M547.95157,464.95057v76.9897a1.741,1.741,0,0,0,2.61106,1.50791L599.38919,515.278a5.22281,5.22281,0,0,0,2.61249-4.52372V437.26664"/>
      <path class="cls-19" d="M478.63242,425.03905v76.9897a1.741,1.741,0,0,0,2.61106,1.50791L544.32415,467.137a5.22282,5.22282,0,0,0,2.61248-4.52372V389.12561"/>
      <g>
        <path class="cls-20" d="M604.23409,398.14839v41.964a3.498,3.498,0,0,1-1.74672,3.04229L550.78528,473.049a6.99683,6.99683,0,0,1-3.508.93164l-14.2541-75.83226Z"/>
        <path class="cls-21" d="M547.27726,398.14839v75.83226a6.99716,6.99716,0,0,1-3.50837-.93164l-65.94144-38.12382a3.4824,3.4824,0,0,1-1.76147-3.04229v-41.964Z"/>
        <polygon class="cls-22" points="541.893 462.729 481.45 427.799 481.471 401.037 541.893 435.979 541.893 462.729"/>
        <path class="cls-23" d="M476.066,382.12553v7.65773a3.47235,3.47235,0,0,0,1.75076,3.03443l65.95178,38.12776a7.01028,7.01028,0,0,0,7.017,0l51.69781-29.89824a3.47235,3.47235,0,0,0,1.75076-3.03443V390.355Z"/>
        <path class="cls-24" d="M602.48333,387.32062l-65.95189-38.12771a7.01,7.01,0,0,0-7.017,0l-51.69779,29.8982a3.505,3.505,0,0,0,0,6.06884l65.95189,38.12771a7.01,7.01,0,0,0,7.017,0l51.69779-29.8982A3.505,3.505,0,0,0,602.48333,387.32062Z"/>
      </g>
    </g>
    <g>
      <g>
        <path class="cls-25" d="M564.68837,382.13971C562.0587,375.72354,552.084,370.9433,540.15,370.9433s-21.9087,4.78024-24.53826,11.19641h-.70019v3.35219c0,8.035,11.2996,14.54861,25.23845,14.54861s25.23856-6.51363,25.23856-14.54861v-3.35219Z"/>
        <ellipse class="cls-26" cx="540.15005" cy="381.64595" rx="25.23852" ry="14.54865"/>
      </g>
      <path class="cls-27" d="M536.843,341.16349v37.46434c0,1.05282,1.48059,1.90631,3.307,1.90631s3.307-.85349,3.307-1.90631V341.16349Z"/>
      <path class="cls-28" d="M506.20709,308.35523v31.11514c0,10.77367,15.19673,19.50744,33.943,19.50744s33.943-8.73377,33.943-19.50744V308.35523Z"/>
      <path class="cls-29" d="M505.75169,303.03984v31.53261c0,10.91822,15.40062,19.76917,34.39838,19.76917s34.39839-8.85095,34.39839-19.76917V303.03984Z"/>
      <g>
        <ellipse class="cls-11" cx="540.15005" cy="303.03994" rx="34.3984" ry="19.76919"/>
        <path class="cls-30" d="M532.73233,320.80523a33.58124,33.58124,0,0,0,14.83535,0V310.18739H532.73233Z"/>
        <ellipse class="cls-31" cx="540.15005" cy="310.18743" rx="7.41771" ry="4.27591"/>
        <path class="cls-32" d="M540.15,284.96619c18.03246,0,32.70278,8.10781,32.70278,18.0737S558.1825,321.11374,540.15,321.11374s-32.70279-8.108-32.70279-18.07385,14.67032-18.0737,32.70279-18.0737m0-1.69547c-18.99763,0-34.39839,8.851-34.39839,19.76917,0,10.91832,15.40076,19.76931,34.39839,19.76931s34.39838-8.851,34.39838-19.76931c0-10.91818-15.40076-19.76917-34.39838-19.76917Z"/>
      </g>
    </g>
  </g>
  <g>
    <path class="cls-33" d="M241.7915,113.44029a191.74878,191.74878,0,1,1-74.8872,15.113,191.18371,191.18371,0,0,1,74.8872-15.113m0-17.54223c-115.95068,0-209.94726,93.99682-209.94726,209.94751S125.84082,515.79308,241.7915,515.79308c115.95118,0,209.94776-93.99683,209.94776-209.94751S357.74268,95.89806,241.7915,95.89806Z"/>
    <circle class="cls-34" cx="241.79174" cy="305.84555" r="194.19259"/>
    <path class="cls-34" d="M435.98541,305.84375A194.17509,194.17509,0,1,1,364.93924,155.6819,193.78539,193.78539,0,0,1,435.98541,305.84375Z"/>
  </g>
  <g class="cls-35">
    <g>
      <g>
        <g>
          <g>
            <path class="cls-36" d="M842.08519,248.97948,131.91439-171.11216a10.82562,10.82562,0,0,0-11.80781.46738v-.00045L54.2483-132.55082l67.62237,39.55427V224.78237L858.17221,611.75165v-334.575A32.75573,32.75573,0,0,0,842.08519,248.97948Z"/>
            <path class="cls-37" d="M49.08026-123.27038V266.94381L791.81279,650.19433V315.6195a32.75517,32.75517,0,0,0-16.08725-28.19719L65.55461-132.66944A10.91838,10.91838,0,0,0,49.08026-123.27038Z"/>
            <path class="cls-38" d="M791.81225,315.6195V682.03957L-377.98352,920.37249l-35.44877,745.37829a68.16786,68.16786,0,0,0,34.29943-9.11931L841.22631,951.28018c11.97752-6.94173,16.93647-19.30354,16.93647-31.22842l.00977-242.9114V277.17678Z"/>
            <g>
              <path class="cls-39" d="M791.81279,612.75314V740.86558l-.03406-.03406a33.67421,33.67421,0,0,1-16.91141,30.93059L-379.14208,1437.999a67.82681,67.82681,0,0,1-34.29946,9.11926l35.44878-630.89428Z"/>
              <path class="cls-40" d="M791.81279,663.48911V791.60155l-.03406-.03406a33.6742,33.6742,0,0,1-16.91141,30.93059l-1154.0094,666.23686a67.827,67.827,0,0,1-34.29946,9.11926l35.44878-630.89429Z"/>
              <path class="cls-41" d="M468.39363,618.43146-377.9705,794.501l-35.44877,630.87366a67.80565,67.80565,0,0,0,34.28417-9.12979L365.0163,986.32868,774.84644,750.01477a33.65627,33.65627,0,0,0,16.918-30.9005h.06443V590.97853Z"/>
              <path class="cls-42" d="M774.85989,561.789,88.81254,165.83522a68.05493,68.05493,0,0,0-68.05791-.00195L-407.32095,412.635h0l-726.153,419.388a33.55458,33.55458,0,0,0-15.95024,20.95072,34.59844,34.59844,0,0,0-1.06335,8.5183,33.708,33.708,0,0,0,17.0143,29.4683L-652.32955,1168.736l205.12238,118.22944A68.05717,68.05717,0,0,0-434.91,1292.5216a68.02818,68.02818,0,0,0,17.33076,3.41854q2.19927.14231,4.40349.14212a68.00848,68.00848,0,0,0,34.03-9.122L774.862,620.7224C797.54209,607.6238,797.54138,574.88581,774.85989,561.789Z"/>
              <path class="cls-41" d="M248.34388,753.58289c52.59425-65.00331,86.94313-144.50238,107.46559-234.98608l-64.56591-31.04532-102.03875,233.188Z"/>
            </g>
          </g>
          <path class="cls-43" d="M841.22631,227.80914v723.471l-19.17915,11.09089V227.80914a24.01128,24.01128,0,0,0-11.75627-20.63568L82.36261-223.42495a1.42663,1.42663,0,0,0-1.60115,0,1.4568,1.4568,0,0,0-.80058,1.383v74.64517l-19.18,11.0641v-85.70927a20.57418,20.57418,0,0,1,10.48122-18.05181,20.57183,20.57183,0,0,1,20.85494.18193L820.04528,190.68659A43.29254,43.29254,0,0,1,841.22631,227.80914Z"/>
        </g>
        <path class="cls-44" d="M752.854,939.92988-319.14821,1559.497a32.75515,32.75515,0,0,0-16.35765,28.35528v43.55054L769.20478,992.92862l.03343-43.5386A10.91838,10.91838,0,0,0,752.854,939.92988Z"/>
      </g>
      <g>
        <path class="cls-41" d="M67.3773,326.22712c.71782-.77435,140.30818-80.83748,140.30818-80.83748-.72636-4.84694-1.88143-10.58094,1.23631-12.20178,3.53907-1.83961,10.78328,1.72855,14.59028,6.15945,48.4287-10.22519,70.69421-10.05,167.03032,44.72115,124.8533,70.98442,132.4342,102.76656,160.38336,152.345,8.68978,4.12717,13.32284,6.91646,11.33724,12.11683-1.83787,4.81347-13.93461,7.30415-20.04859,5.17839l-131.73117,75.64c1.25516,5.56741-.86694,13.01925-4.373,14.77377-4.60757,2.30628-11.19771-2.47372-14.14408-11.74819l-.00323-.00736c-57.42863-2.38-135.62548-37.34643-187.53232-70.07929-43.13543-27.202-116.56345-70.92529-136.341-117.5737-7.62313-.01766-15.05533-3.82762-15.34417-8.65336C52.45211,331.15148,59.61637,327.04888,67.3773,326.22712Z"/>
        <path class="cls-45" d="M54.36207,292.578c.71783-.77436,140.30819-80.83749,140.30819-80.83749-.72637-4.84693-1.88143-10.58093,1.23631-12.20178,3.53907-1.83961,10.78327,1.72855,14.59027,6.15945,48.4287-10.22519,70.69422-10.05,167.03032,44.72116,124.8533,70.98441,132.43421,102.76655,160.38337,152.345,8.68978,4.12718,13.32283,6.91646,11.33724,12.11683-1.83787,4.81347-13.93462,7.30415-20.0486,5.17839l-131.73116,75.64c1.25516,5.56741-.86694,13.01924-4.373,14.77376-4.60756,2.30629-11.1977-2.47371-14.14407-11.74818l-.00324-.00736c-57.42863-2.38-135.62547-37.34644-187.53232-70.0793-43.13543-27.202-116.56344-70.92529-136.341-117.57369-7.62313-.01767-15.05533-3.82763-15.34416-8.65336C39.43688,297.50237,46.60115,293.39977,54.36207,292.578Z"/>
        <path class="cls-46" d="M333.71812,491.6178c-5.33519-40.9293-16.9442-76.82588-37.84784-105.26564,0,0,55.56-42.76414,63.44075-81.19541L265.3787,320.729l-17.03491,88.05022,69.422,79.046Z"/>
        <path class="cls-47" d="M255.08758,396.516C186.84925,348.61914,92.49647,290.4953,5.55385,375.73285L-88.1266,476.36229l-204.71766,68.58106c-119.54146,73.7258,110.06081,198.09,216.661,194.60483L90.33167,686.2573,327.77061,548.50848C341.25221,511.048,295.81616,425.10359,255.08758,396.516Z"/>
        <g>
          <path class="cls-48" d="M259.31122,408.91825c-2.67082,22.96091-24.19259,38.55641-65.95827,48.21931-40.22924,9.30743-96.97716,6.66357-96.97716,6.66357s2.19373-38.31645,28.37112-73.61773c20.948-28.24923,41.44127-39.70178,77.1598-35.34665C239.59791,359.43242,261.9936,385.85787,259.31122,408.91825Z"/>
          <path class="cls-49" d="M244.78036,401.32918c-3.31059,15.31576-17.77249,28.393-55.56579,35.28541-37.27286,6.79751-67.10046,3.87709-67.10046,3.87709s1.58515-19.82765,19.4208-45.77291c17.36843-25.2656,32.16773-35.79058,64.746-29.55339C237.41253,371.1256,247.47657,389.72442,244.78036,401.32918Z"/>
          <path class="cls-50" d="M152.56289,380.55866c13.51233-14.80582,28.12717-20.29244,53.71746-15.39323,31.13221,5.95949,41.19576,24.55891,38.50018,36.16316-1.81885,8.41488-7.03822,16.14464-17.60826,22.55391a81.428,81.428,0,0,1-26.58221,2.90228c-29.90717-1.55108-52.7562-18.07451-51.03427-36.907A23.325,23.325,0,0,1,152.56289,380.55866Z"/>
        </g>
        <path class="cls-51" d="M227.10309,540.59966l-57.315,41.30719C104.5938,520.97658,39.08577,475.93427-51.28574,437.06029l-31.909,33.00759-198.367,68.97851C-412.386,618.66979-182.78309,743.03268-76.18307,739.54763l148.45088-63.47,101.452-25.04308,24.34441-17.26529Z"/>
        <path class="cls-52" d="M165.87143,371.8658c-18.67967,36.12772,61.30084,52.0167,78.90893,29.46338l33.3043-54.50645-83.88581-12.31627Z"/>
        <path class="cls-53" d="M-461.071,419.4064l16.002-9.41569A170.5627,170.5627,0,0,1-323.5189,389.95882c221.66209,46.572,501.13651,186.82514,576.17363,371.668,54.90469,135.24958,60.84577,225.15036,58.58717,270.47966a87.9128,87.9128,0,0,1-24.57834,56.51252c-163.67434,170.46309-480.91347,345.10827-657.7189,388.29328a85.86254,85.86254,0,0,1-44.29546-.87824c-302.46518-87.75407-625.864-285.14888-757.666-415.39726a87.44591,87.44591,0,0,1-24.10142-80.2693c9.10834-43.24031,25.1561-107.29724,46.15921-142.60156C-1117.26792,781.13425-461.071,419.4064-461.071,419.4064Z"/>
        <path class="cls-54" d="M-94.71312,651.88589l38.68852,15.9777c7.36731,3.0422,17.871,5.6887,25.90927,5.52107l38.24649-2.35678c38.23039,36.44657,132.16555,122.6872,167.6252,125.22064,22.09194,1.57773,46.77718-27.73706,66.18769-57.99127-15.06753-29.64259-35.31107-58.03288-59.598-84.95439l-13.66567,34.609L23.00849,614.16956l-19.39068-15.907a49.30155,49.30155,0,0,0-21.38257-11.47319l-35.88913-10.29626a9.66793,9.66793,0,0,0-11.54227,6.43458c-1.43209,4.47075,4.15,10.8804,8.30673,13.065L-95.987,600.203a11.91327,11.91327,0,0,0-12.53606,12.62949l1.33277,21.59141A20.24191,20.24191,0,0,0-94.71312,651.88589Z"/>
        <path class="cls-55" d="M45.83318,332.21724c-26.93182,1.83844-167.85235,35.07464-240.69151,70.57608-32.56968,15.8743-40.45035,32.13118-38.29061,51.547,3.47953,31.28047,32.83231,71.32461,50.6753,81.57848,18.4744,15.35395,72.7839-19.81641,64.95358-44.37994l-2.74723-14.79549,41.39783-5.89872c82.7878-110.083,164.60125-137.38533,209.61581-136.07337C105.11119,329.23784,83.39759,329.65377,45.83318,332.21724Z"/>
        <path class="cls-50" d="M3.61774,574.16059a49.30167,49.30167,0,0,0-21.3826-11.47417L-53.654,552.3907a9.66869,9.66869,0,0,0-11.54248,6.43394v0c-1.4319,4.47145,4.15041,10.88169,8.30706,13.06491l10.24433-1.10329-49.34183,5.314a11.913,11.913,0,0,0-12.5358,12.6293l1.3325,21.59148a20.24205,20.24205,0,0,0,12.4773,17.46265l38.6885,15.97693c7.3671,3.04234,17.87106,5.68914,25.9089,5.52122l47.03105-2.89749,17.67613-46.81547Z"/>
        <path class="cls-48" d="M63.23588,608.95394,31.18324,592.29559c-35.99317-8.79527-44.67364,43.27966-33.0183,54.6335L25.466,665.814Z"/>
        <path class="cls-56" d="M207.19935,554.69394,159.30276,646.3817,69.63428,609.98029c-39.59448-8.09272-63.08639,61.93244-46.5852,72.82855,0,0,107.711,86.12184,152.70789,89.337,32.81787,2.34441,46.81336-16.58179,69.625-51.45149,26.95674-41.20583,68.28466-123.304,83.43868-175.99749C340.43125,488.635,235.11622,500.22867,207.19935,554.69394Z"/>
        <g>
          <path class="cls-57" d="M226.35628,196.07776c-20.38515,19.45933-33.65316,46.67913-30.54788,86.21565l45.441-36.58961Z"/>
          <path class="cls-50" d="M190.78463,377.99195c38.56513,15.47208,68.65189,9.8589,92.29074-20.1027L334.0761,293.0297c21.3049-25.58987,14.85478-68.36587-16.946-90.46164-27.79347-19.31142-72.43822-16.27643-93.846,14.50236,0,0-25.90971,38.33059-42.43325,71.44145S155.7373,363.93118,190.78463,377.99195Z"/>
          <path class="cls-58" d="M290.64518,184.92189c-31.81919-10.09915-66.83828-7.67752-80.50587,24.425-11.35968,26.6817,19.21575,50.63285,77.02186,69.45036L277.34774,290.185a6.95214,6.95214,0,0,0-.60515,8.2608l2.27722,3.592a4.80116,4.80116,0,0,1-.79822,6.12212c-4.06356,3.7348-11.12886,11.11891-14.22837,19.74137-2.23911,6.22892,4.21472,11.23883,4.21472,11.23883l-15.22,48.97127c17.57128-11.0185,21.92254-11.63784,60.21293-35.46815,28.03-17.44468,58.67051-45.04426,50.9648-90.09688C358.51012,229.48031,329.22443,197.16663,290.64518,184.92189Z"/>
          <path class="cls-59" d="M283.24578,316.84105c-15.131,14.52046-32.358,9.246-58.03309-18.62828-7.63865-8.293-13.11849-15.16493-19.38192-18.38529-10.26982-5.28027-14.60737-2.55088-20.3946-1.10408-4.6406-.99646-5.00982-8.42255-3.57447-13.87234,6.79076-25.78337,36.56744-44.34934,73.93216-19.761S298.56761,302.13741,283.24578,316.84105Z"/>
          <path class="cls-60" d="M292.95235,350.51815c2.86361-1.28452,5.74658-2.73712,8.58535-4.35987-2.20694-14.881-7.17062-28.10919-14.86726-39.372l-7.41515,4.72938C286.81741,322.58919,291.29052,335.40064,292.95235,350.51815Z"/>
          <path class="cls-50" d="M260.46483,367.55668c11.06391,8.21641,31.84992-.31541,41.17351-12.8702s6.29989-31.19343-7.40982-32.59472C277.0184,320.33268,249.40092,359.34027,260.46483,367.55668Z"/>
        </g>
      </g>
    </g>
  </g>
  <g>
    <ellipse class="cls-11" cx="895.56805" cy="404.45656" rx="9.91662" ry="5.7164"/>
    <path class="cls-61" d="M905.48461,404.459c-.00257,3.156-4.44124,5.71409-9.91678,5.71409-5.47681,0-9.91634-2.55939-9.91634-5.71666v53.52265c0,3.15716,4.43953,5.71644,9.91634,5.71644s9.91678-2.55928,9.91678-5.71644V404.459Z"/>
    <path class="cls-62" d="M905.48461,410.95336c-.00257,3.156-4.44124,5.71409-9.91678,5.71409-5.47681,0-9.91634-2.55939-9.91634-5.71666v3.91979c0,3.15715,4.43953,5.71644,9.91634,5.71644s9.91678-2.55929,9.91678-5.71644Z"/>
    <path class="cls-63" d="M905.48461,446.11254c-.00257,3.156-4.44124,5.71409-9.91678,5.71409-5.47681,0-9.91634-2.55939-9.91634-5.71666v3.91978c0,3.15716,4.43953,5.71644,9.91634,5.71644s9.91678-2.55928,9.91678-5.71644Z"/>
    <path class="cls-32" d="M895.56812,400.05577c5.0686,0,8.60083,2.31934,8.60083,4.40088s-3.53223,4.40064-8.60083,4.40064c-5.06885,0-8.60108-2.31909-8.60108-4.40064s3.53223-4.40088,8.60108-4.40088m0-1.31567c-5.47681,0-9.91675,2.55933-9.91675,5.71655,0,3.157,4.43994,5.71631,9.91675,5.71631s9.9165-2.55933,9.9165-5.71631c0-3.15722-4.4397-5.71655-9.9165-5.71655Z"/>
  </g>
  <g>
    <circle class="cls-33" cx="105.34043" cy="169.43726" r="62.02326"/>
    <g>
      <rect class="cls-64" x="84.28363" y="160.79502" width="13.46241" height="40.4658" transform="translate(-101.34844 117.37906) rotate(-45)"/>
      <rect class="cls-64" x="110.49446" y="143.61416" width="13.46241" height="60.59444" transform="translate(77.14282 379.77635) rotate(-135)"/>
    </g>
  </g>
  <g>
    <g>
      <polygon class="cls-65" points="750.714 265.91 750.754 356.612 673.474 311.858 673.435 221.156 750.714 265.91"/>
      <polygon class="cls-66" points="747.408 264.001 747.439 342.629 683.885 305.8 683.855 227.172 747.408 264.001"/>
      <polygon class="cls-67" points="736.052 272.657 736.072 325.962 692.988 300.995 692.967 247.69 736.052 272.657"/>
      <path class="cls-68" d="M746.41632,349.10536,677.804,309.35585l-.0322-80.69349,68.61233,39.74952.03218,80.69348m4.33729,7.5063-.03922-90.70188-77.27987-44.75372.03924,90.70189,77.27985,44.75371Z"/>
      <polygon class="cls-69" points="678.325 218.325 755.605 263.079 750.714 265.91 673.435 221.156 678.325 218.325"/>
      <polygon class="cls-70" points="755.605 263.079 755.628 353.79 750.754 356.612 750.714 265.91 755.605 263.079"/>
    </g>
    <g>
      <polygon class="cls-71" points="815.963 336.547 816.002 395.249 762.971 364.495 762.932 305.793 815.963 336.547"/>
      <polygon class="cls-72" points="812.657 334.638 812.687 381.266 773.383 358.437 773.352 311.809 812.657 334.638"/>
      <path class="cls-73" d="M811.665,387.74243l-44.3636-25.74951-.0322-48.69349,44.36362,25.74951.03218,48.69349m4.33729,7.5063-.03922-58.70188-53.03116-30.75372.03924,58.70188,53.03114,30.75372Z"/>
      <polygon class="cls-74" points="767.823 302.962 820.854 333.716 815.963 336.547 762.932 305.793 767.823 302.962"/>
      <polygon class="cls-75" points="820.854 333.716 820.876 392.427 816.002 395.249 815.963 336.547 820.854 333.716"/>
    </g>
  </g>
  <g>
    <g>
      <g>
        <g>
          <path class="cls-76" d="M851.96452,451.262,631.13436,320.633a3.36625,3.36625,0,0,0-3.67168.14533v-.00014l-20.47886,11.8456,21.02741,12.29954v98.81449l228.9556,120.32948V460.03A10.1855,10.1855,0,0,0,851.96452,451.262Z"/>
          <path class="cls-77" d="M605.37679,335.50956v121.3385L836.33213,576.02118V471.98394a10.18536,10.18536,0,0,0-5.00238-8.768l-220.8302-130.629A3.39511,3.39511,0,0,0,605.37679,335.50956Z"/>
          <path class="cls-78" d="M836.332,471.98394V585.92357L472.57978,660.03405,461.55686,891.8121a21.197,21.197,0,0,0,10.66553-2.83569L851.69744,669.6449a10.88259,10.88259,0,0,0,5.26646-9.71059l.003-75.53416V460.03Z"/>
          <path class="cls-79" d="M472.57987,660.03408,461.557,891.8121a21.05431,21.05431,0,0,1-10.5068-2.83567L237.65274,765.8374a10.45041,10.45041,0,0,1-5.27991-9.00433V680.58212Z"/>
          <g>
            <path class="cls-39" d="M836.33213,564.37871v39.837l-.01059-.01059a10.47112,10.47112,0,0,1-5.25866,9.618L472.21952,820.99185a21.09094,21.09094,0,0,1-10.66554,2.83567l11.02293-196.17884Z"/>
            <path class="cls-80" d="M836.33213,580.15524v39.837l-.01059-.01059a10.47111,10.47111,0,0,1-5.25866,9.618L472.21952,836.76839a21.091,21.091,0,0,1-10.66554,2.83566l11.02293-196.17884Z"/>
            <path class="cls-81" d="M472.57691,643.42521,461.554,839.60405a21.07406,21.07406,0,0,1-10.49621-2.83566L237.6603,713.62936a10.48748,10.48748,0,0,1-5.29044-9.17367V663.82517Z"/>
            <path class="cls-41" d="M735.76379,566.1444l-263.18,54.74945L461.56091,817.06627a21.08441,21.08441,0,0,0,10.66079-2.83894l231.39654-133.684,127.43815-73.48265a10.46557,10.46557,0,0,0,5.26072-9.60863h.02V557.60782Z"/>
            <path class="cls-41" d="M472.57691,620.88731,461.554,817.06615a21.074,21.074,0,0,1-10.49621-2.83567L237.6603,691.09146a10.48751,10.48751,0,0,1-5.29044-9.17367V641.28727Z"/>
            <path class="cls-42" d="M831.06057,548.53122,617.73169,425.408a21.16192,21.16192,0,0,0-21.16285-.0006L463.4572,502.15126h0L237.65732,632.56145a10.434,10.434,0,0,0-4.95979,6.5147,10.75875,10.75875,0,0,0-.33065,2.6488,10.4816,10.4816,0,0,0,5.29066,9.16327L387.2709,737.26356l63.78354,36.76386a21.14654,21.14654,0,0,0,9.21292,2.79073q.68387.04425,1.36928.0442a21.14754,21.14754,0,0,0,10.58175-2.83652L831.06123,566.85678A10.5809,10.5809,0,0,0,831.06057,548.53122Z"/>
            <path class="cls-41" d="M667.33853,608.17023c16.35437-20.213,27.03528-44.93354,33.41681-73.06977l-20.077-9.65365L648.949,597.95745Z"/>
          </g>
        </g>
        <path class="cls-82" d="M851.69744,444.679V669.6449l-5.96382,3.44876V444.679a7.46641,7.46641,0,0,0-3.65566-6.41674L615.72606,304.36614a.44359.44359,0,0,0-.49788,0,.453.453,0,0,0-.24895.43005v23.21118l-5.9641,3.44043V304.79619a6.453,6.453,0,0,1,9.74409-5.5567L845.11113,433.1356A13.462,13.462,0,0,1,851.69744,444.679Z"/>
      </g>
      <path class="cls-83" d="M824.21776,666.11549,490.87483,858.77209a10.18534,10.18534,0,0,0-5.08647,8.81718v13.5422L829.30209,682.59564l.0104-13.53849A3.39511,3.39511,0,0,0,824.21776,666.11549Z"/>
    </g>
    <g>
      <path class="cls-41" d="M611.06632,475.28242c.22321-.24079,43.62934-25.13671,43.62934-25.13671-.22587-1.50717-.585-3.29018.38443-3.79418,1.10049-.572,3.3531.53749,4.5369,1.9153,15.05908-3.17956,21.98262-3.12509,51.93868,13.9062,38.82358,22.07286,41.18089,31.95563,49.87178,47.37222,2.70212,1.28336,4.14278,2.1507,3.52535,3.76777-.57149,1.49676-4.333,2.27125-6.23418,1.61024l-40.96228,23.52053c.3903,1.73121-.26958,4.04838-1.35981,4.594-1.43274.71714-3.482-.76921-4.39815-3.65314l-.001-.00229c-17.85763-.74007-42.17322-11.613-58.31384-21.79141-13.41312-8.45855-36.24582-22.05447-42.39574-36.56-2.37044-.00549-4.68151-1.19021-4.77132-2.69079C606.42528,476.81367,608.653,475.538,611.06632,475.28242Z"/>
      <path class="cls-45" d="M607.01919,464.81911c.22321-.24079,43.62933-25.13671,43.62933-25.13671-.22586-1.50717-.585-3.29018.38444-3.79419,1.10049-.572,3.3531.5375,4.5369,1.91531,15.05908-3.17956,21.98262-3.12509,51.93867,13.9062,38.82359,22.07286,41.1809,31.95563,49.87179,47.37222,2.70211,1.28335,4.14278,2.15069,3.52535,3.76777-.57149,1.49676-4.333,2.27125-6.23418,1.61023l-40.96228,23.52054c.3903,1.73121-.26958,4.04838-1.35981,4.594-1.43274.71715-3.482-.76921-4.39815-3.65314l-.001-.00228c-17.85763-.74007-42.17322-11.613-58.31384-21.79141-13.41312-8.45855-36.24582-22.05447-42.39574-36.56-2.37044-.0055-4.68151-1.19022-4.77132-2.6908C602.37815,466.35035,604.6059,465.07463,607.01919,464.81911Z"/>
      <path class="cls-46" d="M693.886,526.71124c-1.659-12.72711-5.26886-23.88928-11.76893-32.73273,0,0,17.27659-13.29766,19.72713-25.248l-29.20859,4.84225-5.29707,27.37953,21.587,24.57962Z"/>
      <path class="cls-84" d="M669.43551,497.139c-21.219-14.89369-50.55829-32.96751-77.59341-6.46259l-29.13027,31.29109L499.05414,543.293c-37.17184,22.9253,34.2238,61.5968,67.37152,60.51307l51.77841-16.571,73.83249-42.83349C696.22871,532.75312,682.1002,506.02841,669.43551,497.139Z"/>
      <g>
        <path class="cls-48" d="M670.74886,500.99552c-.8305,7.13978-7.52277,11.98925-20.51,14.994-12.50942,2.89418-30.15539,2.07206-30.15539,2.07206a47.0233,47.0233,0,0,1,8.8221-22.8917c6.51386-8.7842,12.88631-12.34541,23.99311-10.99116C664.61894,485.60772,671.583,493.82481,670.74886,500.99552Z"/>
        <path class="cls-49" d="M666.23044,498.63567c-1.02944,4.76249-5.52642,8.8289-17.27838,10.97213a83.602,83.602,0,0,1-20.86513,1.20559s.49291-6.16548,6.039-14.23325c5.40078-7.85643,10.00267-11.12921,20.133-9.18973C663.93939,489.24376,667.06884,495.02713,666.23044,498.63567Z"/>
        <path class="cls-50" d="M637.55509,492.177c4.20171-4.60393,8.74624-6.31,16.70363-4.78659,9.68068,1.85313,12.81,7.63668,11.97177,11.24507-.56558,2.61664-2.18856,5.02023-5.47535,7.01322a25.32045,25.32045,0,0,1-8.26583.90247c-9.29974-.48231-16.40473-5.62033-15.86929-11.47636A7.253,7.253,0,0,1,637.55509,492.177Z"/>
      </g>
      <path class="cls-51" d="M660.73363,541.94233,642.91132,554.787c-20.27239-18.94649-40.64235-32.95256-68.74369-45.04056l-9.92224,10.26383-61.68294,21.44911c-40.68023,24.75918,30.7156,63.43027,63.86326,62.34658l46.16134-19.73624,31.54685-7.78723,7.57-5.3687Z"/>
      <path class="cls-52" d="M641.69343,489.47393c-5.80851,11.234,19.06171,16.17478,24.537,9.16174l10.35609-16.949-26.08459-3.82979Z"/>
      <path class="cls-85" d="M446.74344,504.25685l4.97588-2.92784a53.03707,53.03707,0,0,1,37.79643-6.229C558.44237,509.58176,645.34594,553.194,668.679,610.67152c17.07281,42.05634,18.9202,70.01131,18.21789,84.10662a27.33682,27.33682,0,0,1-7.64273,17.57277c-50.89512,53.0061-149.54176,107.31265-204.52,120.74118a26.69925,26.69925,0,0,1-13.77384-.27309c-94.05263-27.28744-194.61464-88.66806-235.599-129.16927a27.19162,27.19162,0,0,1-7.49442-24.96c2.83227-13.44573,7.82238-33.36446,14.35337-44.34247C242.69665,616.73742,446.74344,504.25685,446.74344,504.25685Z"/>
      <path class="cls-54" d="M560.66373,576.54718l12.03033,4.96832a22.37345,22.37345,0,0,0,8.05658,1.7168l11.89288-.73285c11.88788,11.33319,41.09735,38.15,52.12366,38.9378,6.86957.49061,14.54553-8.62493,20.5813-18.03259a122.99783,122.99783,0,0,0-18.53223-26.41687l-4.24939,10.76178-45.29718-22.93042-6.0296-4.94635a15.33043,15.33043,0,0,0-6.649-3.56763l-11.15985-3.20166a3.00629,3.00629,0,0,0-3.58911,2.00086c-.44531,1.3902,1.29047,3.3833,2.583,4.06262l-12.15753,1.3092a3.70447,3.70447,0,0,0-3.89813,3.92719l.41442,6.71393A6.29432,6.29432,0,0,0,560.66373,576.54718Z"/>
      <path class="cls-54" d="M510.87958,517.11286c1.14568,9.71935,17.612,25.16523,23.16035,28.35363l7.27842,11.17723a19.35935,19.35935,0,0,0,7.50988,6.39966l9.61323,4.62066a5.83806,5.83806,0,0,0,6.41979-.90894l4.69339-4.19432a6.86069,6.86069,0,0,0,1.22756-8.78113l-6.764-10.70011a15.24541,15.24541,0,0,0-9.30719-6.67368l-7.52064-1.564-1.62792-14.48159,14.51127-4.06905a4.68846,4.68846,0,0,0,2.59235-2.42812c-10.92655-4.39651-18.44645-10.02531-29.263-13.15744C521.74872,505.523,510.24122,511.69762,510.87958,517.11286Z"/>
      <g>
        <path class="cls-86" d="M540.442,542.95909l11.92129-10.4356,9.08482,1.88928a15.24639,15.24639,0,0,1,9.30717,6.67361l6.76386,10.7003a6.86055,6.86055,0,0,1-1.22751,8.78117l-4.69334,4.19436a5.83841,5.83841,0,0,1-6.41983.90878l-9.61313-4.62077a19.36006,19.36006,0,0,1-7.51-6.39954Z"/>
        <path class="cls-87" d="M604.3671,477.14507c-8.37454.57167-52.19429,10.90658-74.84388,21.94588-10.12766,4.93617-12.57819,9.99131-11.90661,16.02873,1.082,9.72677,10.20933,22.17864,15.75767,25.36712,5.74468,4.77436,22.63242-6.162,20.19755-13.8001l-.85426-4.60072,12.8728-1.83422c25.74316-34.23072,51.18335-42.72046,65.18079-42.3125C622.79981,476.21861,616.04789,476.348,604.3671,477.14507Z"/>
        <path class="cls-51" d="M552.71757,522.086l12.8728-1.83422A139.68166,139.68166,0,0,1,589.98051,494.649Z"/>
        <path class="cls-48" d="M555.94875,533.81436l-5.80026-7.96834c-5.99581-8.86145-22.58272,4.479-17.26357,11.07472l7.55709,8.5823C543.52935,550.49271,559.56623,539.9465,555.94875,533.81436Z"/>
        <path class="cls-50" d="M540.777,543.47344l7.27836,11.17719a19.3593,19.3593,0,0,0,7.50989,6.39966l9.61322,4.62066a5.83808,5.83808,0,0,0,6.41979-.90894l4.69339-4.19432a6.86069,6.86069,0,0,0,1.22756-8.78113l-6.764-10.70011a15.24541,15.24541,0,0,0-9.30719-6.67368l-7.52061-1.56409C543.90619,530.06967,539.07584,540.61138,540.777,543.47344Z"/>
        <path class="cls-88" d="M577.51923,551.78656l-4.14172-6.552-2.73689-.785a3.00623,3.00623,0,0,0-3.58912,2.00087h0c-.44533,1.39017,1.29045,3.38326,2.583,4.06257l-12.15754,1.30921a3.70417,3.70417,0,0,0-3.89789,3.92717l.26852,4.354a19.42361,19.42361,0,0,0,1.71771.94691l9.61322,4.62066a5.83808,5.83808,0,0,0,6.41979-.90894l4.69339-4.19432A6.86069,6.86069,0,0,0,577.51923,551.78656Z"/>
        <path class="cls-50" d="M563.58844,535.10045l12.03191,4.78352c3.46161,1.39365,1.18591,4.99307-1.39681,4.41353l-3.2587-.72241Z"/>
      </g>
      <path class="cls-50" d="M591.24006,552.37822a15.33058,15.33058,0,0,0-6.649-3.56794l-11.15986-3.20149a3.00652,3.00652,0,0,0-3.58917,2.00066h0c-.44526,1.39042,1.29059,3.3837,2.58311,4.06258l3.18551-.34307-15.343,1.65242a3.70438,3.70438,0,0,0-3.89805,3.92712l.41434,6.71395a6.29437,6.29437,0,0,0,3.87987,5.43008l12.03032,4.96808a22.3704,22.3704,0,0,0,8.05647,1.71684l14.62447-.901,5.49646-14.55744Z"/>
      <path class="cls-48" d="M609.77853,563.19733l-9.96688-5.18c-11.1922-2.73492-13.89143,13.458-10.26716,16.98848l8.48936,5.87234Z"/>
      <path class="cls-89" d="M654.54449,546.325l-14.89362,28.51064-27.88273-11.31915C599.4561,561,592.1512,582.7746,597.28231,586.16278c0,0,33.49312,26.77989,47.48506,27.77965,10.20484.729,14.55678-5.15616,21.65015-15.999,8.38229-12.8131,21.23335-38.34182,25.94555-54.727C695.97343,525.78374,663.22534,529.38882,654.54449,546.325Z"/>
      <g>
        <path class="cls-90" d="M660.50141,434.812c-6.33884,6.051-10.46457,14.515-9.499,26.80906l14.13-11.37767Z"/>
        <path class="cls-50" d="M649.44027,491.37888c11.992,4.8111,21.34756,3.06566,28.69814-6.251l15.85886-20.16831c6.62484-7.95726,4.61915-21.25861-5.26942-28.12937-8.64248-6.005-22.52492-5.06121-29.18174,4.50956a235.64844,235.64844,0,0,0-13.19477,22.215C641.21328,473.85067,638.54218,487.00663,649.44027,491.37888Z"/>
        <path class="cls-91" d="M680.49227,431.34305c-9.89429-3.14037-20.7836-2.38735-25.03359,7.595-3.53233,8.29677,5.97521,15.74447,23.95022,21.59584l-3.05152,3.54108a2.16179,2.16179,0,0,0-.18817,2.56872l.70811,1.11693a1.49294,1.49294,0,0,1-.24821,1.9037,16.89427,16.89427,0,0,0-4.42436,6.13865c-.69626,1.9369,1.31058,3.49475,1.31058,3.49475l-4.73271,15.22779c5.46385-3.42624,6.81689-3.61882,18.72343-11.02894,8.716-5.42449,18.2438-14.00668,15.84768-28.01595C701.59512,445.19865,692.48863,435.1506,680.49227,431.34305Z"/>
        <g>
          <path class="cls-92" d="M681.61469,473.50375c-5.19935,4.98957-11.119,3.17716-19.94152-6.40111-2.62482-2.84965-4.50782-5.211-6.66008-6.31761-3.529-1.81442-5.01943-.87654-7.00806-.37938-1.59461-.34241-1.72149-2.89419-1.22827-4.76686,2.33347-8.85977,12.56543-15.23947,25.40481-6.79034S686.87963,468.45124,681.61469,473.50375Z"/>
          <path class="cls-93" d="M684.95009,485.076a13.427,13.427,0,0,0,2.90447-1.79775,30.71151,30.71151,0,0,0-5.06308-13.22954l-2.548,1.62512A28.75156,28.75156,0,0,1,684.95009,485.076Z"/>
        </g>
        <path class="cls-50" d="M671.10758,488.134c3.44036,2.55493,9.90385-.09808,12.803-4.002s1.959-9.69971-2.30411-10.13545C676.255,473.44952,667.66722,485.57907,671.10758,488.134Z"/>
      </g>
    </g>
  </g>
</svg>
