<svg id="Layer_1" data-name="Layer 1" xmlns="http://www.w3.org/2000/svg" xmlns:xlink="http://www.w3.org/1999/xlink" viewBox="0 0 1000 1000">
  <defs>
    <style>
      .cls-1 {
        fill: url(#linear-gradient);
      }

      .cls-2 {
        fill: #b8cbd8;
      }

      .cls-3 {
        fill: url(#linear-gradient-2);
      }

      .cls-4 {
        fill: url(#linear-gradient-3);
      }

      .cls-5 {
        fill: url(#linear-gradient-4);
      }

      .cls-6 {
        fill: url(#linear-gradient-5);
      }

      .cls-7 {
        fill: url(#linear-gradient-6);
      }

      .cls-8 {
        fill: url(#linear-gradient-7);
      }

      .cls-9 {
        fill: url(#linear-gradient-8);
      }

      .cls-10 {
        fill: url(#linear-gradient-9);
      }

      .cls-11 {
        fill: #2a3f5e;
        opacity: 0.2;
      }

      .cls-12, .cls-13 {
        fill: none;
        stroke-width: 5.40487px;
      }

      .cls-12, .cls-13, .cls-38 {
        stroke-miterlimit: 10;
      }

      .cls-12 {
        stroke: url(#linear-gradient-10);
      }

      .cls-13 {
        stroke: url(#linear-gradient-11);
      }

      .cls-14 {
        fill: url(#linear-gradient-12);
      }

      .cls-15 {
        fill: url(#linear-gradient-13);
      }

      .cls-16 {
        fill: url(#linear-gradient-14);
      }

      .cls-17 {
        fill: url(#linear-gradient-15);
      }

      .cls-18 {
        fill: url(#linear-gradient-16);
      }

      .cls-19 {
        fill: url(#linear-gradient-17);
      }

      .cls-20 {
        fill: url(#linear-gradient-18);
      }

      .cls-21 {
        fill: url(#linear-gradient-19);
      }

      .cls-22 {
        fill: url(#linear-gradient-20);
      }

      .cls-23 {
        fill: url(#linear-gradient-21);
      }

      .cls-24 {
        fill: #e58630;
      }

      .cls-25 {
        fill: url(#linear-gradient-22);
      }

      .cls-26 {
        fill: url(#linear-gradient-23);
      }

      .cls-27 {
        fill: #ffcb48;
      }

      .cls-28 {
        fill: url(#linear-gradient-24);
      }

      .cls-29 {
        fill: url(#linear-gradient-25);
      }

      .cls-30 {
        fill: url(#linear-gradient-26);
      }

      .cls-31 {
        fill: url(#linear-gradient-27);
      }

      .cls-32 {
        fill: url(#linear-gradient-28);
      }

      .cls-33 {
        fill: url(#linear-gradient-29);
      }

      .cls-34 {
        fill: url(#linear-gradient-30);
      }

      .cls-35, .cls-45 {
        opacity: 0.5;
      }

      .cls-35 {
        fill: url(#linear-gradient-31);
      }

      .cls-36 {
        fill: #f0f9fc;
      }

      .cls-37 {
        fill: #34a521;
      }

      .cls-38 {
        font-size: 73.43536px;
        stroke: #000;
        stroke-width: 2.71848px;
        font-family: AvenirLTStd-Black, Avenir LT Std;
        font-weight: 800;
      }

      .cls-39 {
        fill: url(#linear-gradient-32);
      }

      .cls-40 {
        fill: #444;
      }

      .cls-41 {
        fill: #27343d;
      }

      .cls-42 {
        fill: #303d49;
      }

      .cls-43, .cls-45 {
        fill: #dd7b19;
      }

      .cls-44 {
        fill: url(#linear-gradient-33);
      }

      .cls-46 {
        fill: url(#linear-gradient-34);
      }

      .cls-47 {
        fill: #cddce8;
      }

      .cls-48 {
        fill: #ffbda3;
      }

      .cls-49 {
        fill: #e48f7c;
      }

      .cls-50 {
        fill: url(#linear-gradient-35);
      }

      .cls-51 {
        fill: url(#linear-gradient-36);
      }

      .cls-52 {
        fill: url(#linear-gradient-37);
      }

      .cls-53 {
        fill: url(#linear-gradient-38);
      }

      .cls-54 {
        fill: url(#linear-gradient-39);
      }

      .cls-55 {
        fill: url(#linear-gradient-40);
      }

      .cls-56 {
        fill: url(#linear-gradient-41);
      }

      .cls-57 {
        fill: #541510;
        opacity: 0.3;
      }

      .cls-58 {
        fill: url(#linear-gradient-42);
      }

      .cls-59 {
        fill: url(#linear-gradient-43);
      }

      .cls-60 {
        fill: #bcd0e2;
      }

      .cls-61 {
        fill: #e9f1f4;
      }

      .cls-62 {
        fill: url(#linear-gradient-44);
      }

      .cls-63 {
        fill: url(#linear-gradient-45);
      }

      .cls-64 {
        fill: url(#linear-gradient-46);
      }

      .cls-65 {
        fill: #fff;
      }

      .cls-66 {
        opacity: 0.6;
      }

      .cls-67 {
        fill: #9bb0c4;
      }

      .cls-68 {
        fill: url(#linear-gradient-47);
      }

      .cls-69 {
        fill: url(#linear-gradient-48);
      }

      .cls-70 {
        fill: #724133;
      }

      .cls-71 {
        fill: url(#linear-gradient-49);
      }

      .cls-72 {
        fill: url(#linear-gradient-50);
      }

      .cls-73 {
        fill: url(#linear-gradient-51);
      }

      .cls-74 {
        fill: url(#linear-gradient-52);
      }

      .cls-75 {
        fill: url(#linear-gradient-53);
      }

      .cls-76 {
        fill: url(#linear-gradient-54);
      }

      .cls-77 {
        fill: url(#linear-gradient-55);
      }

      .cls-78 {
        fill: url(#linear-gradient-56);
      }

      .cls-79 {
        fill: url(#linear-gradient-57);
      }

      .cls-80 {
        fill: url(#linear-gradient-58);
      }

      .cls-81 {
        fill: url(#linear-gradient-59);
      }

      .cls-82 {
        fill: url(#linear-gradient-60);
      }

      .cls-83 {
        fill: url(#linear-gradient-61);
      }

      .cls-84 {
        fill: url(#linear-gradient-62);
      }

      .cls-85 {
        fill: url(#linear-gradient-63);
      }

      .cls-86 {
        fill: url(#linear-gradient-64);
      }

      .cls-87 {
        opacity: 0.4;
        fill: url(#linear-gradient-65);
      }

      .cls-88 {
        fill: url(#linear-gradient-66);
      }

      .cls-89 {
        fill: url(#linear-gradient-67);
      }

      .cls-90 {
        fill: url(#linear-gradient-68);
      }

      .cls-91 {
        fill: url(#linear-gradient-69);
      }

      .cls-92 {
        fill: url(#linear-gradient-70);
      }

      .cls-93 {
        fill: url(#linear-gradient-71);
      }

      .cls-94 {
        fill: url(#linear-gradient-72);
      }

      .cls-95 {
        fill: url(#linear-gradient-73);
      }
    </style>
    <linearGradient id="linear-gradient" x1="549.29348" y1="385.55996" x2="970.58017" y2="385.55996" gradientUnits="userSpaceOnUse">
      <stop offset="0" stop-color="#f0f9ff"/>
      <stop offset="1" stop-color="#c3d6e6"/>
    </linearGradient>
    <linearGradient id="linear-gradient-2" x1="1.92932" y1="187.87055" x2="-36.36855" y2="429.14714" gradientTransform="matrix(-1, 0, 0, 1, 459.17021, 0)" gradientUnits="userSpaceOnUse">
      <stop offset="0" stop-color="#293440"/>
      <stop offset="1" stop-color="#3e4c59"/>
    </linearGradient>
    <linearGradient id="linear-gradient-3" x1="21.63329" y1="192.06854" x2="-63.16706" y2="447.06678" gradientTransform="matrix(-1, 0, 0, 1, 459.17021, 0)" gradientUnits="userSpaceOnUse">
      <stop offset="0" stop-color="#62778c"/>
      <stop offset="1" stop-color="#435466"/>
    </linearGradient>
    <linearGradient id="linear-gradient-4" x1="-9317.67383" y1="309.30648" x2="-9258.94711" y2="309.30648" gradientTransform="translate(9764.82693)" xlink:href="#linear-gradient-2"/>
    <linearGradient id="linear-gradient-5" x1="286.22664" y1="338.18863" x2="232.60961" y2="596.31629" xlink:href="#linear-gradient-2"/>
    <linearGradient id="linear-gradient-6" x1="297.34173" y1="355.09775" x2="212.54138" y2="610.09599" xlink:href="#linear-gradient-3"/>
    <linearGradient id="linear-gradient-7" x1="-9593.38227" y1="472.33569" x2="-9534.65555" y2="472.33569" gradientTransform="translate(9764.82693)" xlink:href="#linear-gradient-2"/>
    <linearGradient id="linear-gradient-8" x1="128.02302" y1="711.89267" x2="970.58017" y2="711.89267" gradientUnits="userSpaceOnUse">
      <stop offset="0" stop-color="#dae9f2"/>
      <stop offset="0.99337" stop-color="#c4d5e6"/>
    </linearGradient>
    <linearGradient id="linear-gradient-9" x1="593.57498" y1="805.74871" x2="774.8931" y2="805.74871" gradientUnits="userSpaceOnUse">
      <stop offset="0.00005" stop-color="#ffb348"/>
      <stop offset="1" stop-color="#e68e2b"/>
    </linearGradient>
    <linearGradient id="linear-gradient-10" x1="6271.19244" y1="482.07096" x2="6343.40242" y2="515.06217" gradientTransform="translate(-5721.26989)" gradientUnits="userSpaceOnUse">
      <stop offset="0" stop-color="#3e4c59"/>
      <stop offset="1" stop-color="#293440"/>
    </linearGradient>
    <linearGradient id="linear-gradient-11" x1="6199.27191" y1="432.3358" x2="6280.86686" y2="469.61481" xlink:href="#linear-gradient-10"/>
    <linearGradient id="linear-gradient-12" x1="-1926.3455" y1="368.89967" x2="-1793.82636" y2="462.22301" gradientTransform="translate(2413.68732)" xlink:href="#linear-gradient-3"/>
    <linearGradient id="linear-gradient-13" x1="-1926.7247" y1="383.37951" x2="-1783.39925" y2="538.92287" gradientTransform="translate(2413.68732)" gradientUnits="userSpaceOnUse">
      <stop offset="0" stop-color="#62788c"/>
      <stop offset="1" stop-color="#526575"/>
    </linearGradient>
    <linearGradient id="linear-gradient-14" x1="-1940.86363" y1="363.8355" x2="-1854.21692" y2="499.00436" gradientTransform="translate(2413.68732)" gradientUnits="userSpaceOnUse">
      <stop offset="0" stop-color="#96b1cc"/>
      <stop offset="1" stop-color="#748ea6"/>
    </linearGradient>
    <linearGradient id="linear-gradient-15" x1="-1933.6508" y1="408.23237" x2="-1795.10436" y2="408.23237" gradientTransform="translate(2413.68732)" gradientUnits="userSpaceOnUse">
      <stop offset="0" stop-color="#526575"/>
      <stop offset="1" stop-color="#62788c"/>
    </linearGradient>
    <linearGradient id="linear-gradient-16" x1="-1933.65085" y1="385.7851" x2="-1795.1044" y2="385.7851" xlink:href="#linear-gradient-14"/>
    <linearGradient id="linear-gradient-17" x1="-2134.05745" y1="384.97612" x2="-2079.49312" y2="384.97612" gradientTransform="translate(2656.08503)" xlink:href="#linear-gradient-3"/>
    <linearGradient id="linear-gradient-18" x1="-2134.05747" y1="380.81874" x2="-2079.4931" y2="380.81874" gradientTransform="translate(2656.08503)" gradientUnits="userSpaceOnUse">
      <stop offset="0" stop-color="#849bb2"/>
      <stop offset="1" stop-color="#5b6f82"/>
    </linearGradient>
    <linearGradient id="linear-gradient-19" x1="-2107.14382" y1="336.92024" x2="-2106.41734" y2="377.11891" gradientTransform="translate(2656.08503)" xlink:href="#linear-gradient-3"/>
    <linearGradient id="linear-gradient-20" x1="-2143.46674" y1="328.95423" x2="-2070.08378" y2="328.95423" gradientTransform="translate(2656.08503)" xlink:href="#linear-gradient-3"/>
    <linearGradient id="linear-gradient-21" x1="-2143.95902" y1="323.57553" x2="-2069.5915" y2="323.57553" gradientTransform="translate(2656.08503)" gradientUnits="userSpaceOnUse">
      <stop offset="0.00844" stop-color="#ffc63f"/>
      <stop offset="1" stop-color="#e68a23"/>
    </linearGradient>
    <linearGradient id="linear-gradient-22" x1="-2114.79365" y1="309.76103" x2="-2098.75702" y2="309.76103" gradientTransform="translate(2656.08503)" xlink:href="#linear-gradient-10"/>
    <linearGradient id="linear-gradient-23" x1="-2114.79364" y1="303.57394" x2="-2098.75693" y2="303.57394" gradientTransform="translate(2656.08503)" xlink:href="#linear-gradient-3"/>
    <linearGradient id="linear-gradient-24" x1="912.23831" y1="386.54445" x2="937.9137" y2="451.66095" gradientTransform="matrix(1, 0, 0, 1, 0, 0)" xlink:href="#linear-gradient-21"/>
    <linearGradient id="linear-gradient-25" x1="919.7051" y1="390.62206" x2="928.46669" y2="404.32439" gradientTransform="matrix(1, 0, 0, 1, 0, 0)" xlink:href="#linear-gradient-3"/>
    <linearGradient id="linear-gradient-26" x1="902.7423" y1="400.51877" x2="933.59915" y2="448.77611" gradientTransform="matrix(1, 0, 0, 1, 0, 0)" xlink:href="#linear-gradient-3"/>
    <linearGradient id="linear-gradient-27" x1="595.36287" y1="180.9638" x2="621.03826" y2="246.0803" gradientTransform="matrix(1, 0, 0, 1, 0, 0)" xlink:href="#linear-gradient-21"/>
    <linearGradient id="linear-gradient-28" x1="602.82966" y1="185.0414" x2="611.59125" y2="198.74373" gradientTransform="matrix(1, 0, 0, 1, 0, 0)" xlink:href="#linear-gradient-3"/>
    <linearGradient id="linear-gradient-29" x1="585.86685" y1="194.93811" x2="616.72371" y2="243.19545" gradientTransform="matrix(1, 0, 0, 1, 0, 0)" xlink:href="#linear-gradient-3"/>
    <linearGradient id="linear-gradient-30" x1="313.38111" y1="89.13206" x2="149.12055" y2="449.67007" xlink:href="#linear-gradient"/>
    <linearGradient id="linear-gradient-31" x1="189.50641" y1="248.17567" x2="61.43886" y2="345.92772" gradientUnits="userSpaceOnUse">
      <stop offset="0" stop-color="#5b6f82"/>
      <stop offset="1" stop-color="#849bb2"/>
    </linearGradient>
    <linearGradient id="linear-gradient-32" x1="165.39081" y1="188.57886" x2="165.39081" y2="419.46732" gradientUnits="userSpaceOnUse">
      <stop offset="0" stop-color="#ff6969"/>
      <stop offset="1" stop-color="#c21941"/>
    </linearGradient>
    <linearGradient id="linear-gradient-33" x1="514.84878" y1="413.22067" x2="383.78495" y2="550.75259" gradientUnits="userSpaceOnUse">
      <stop offset="0.00005" stop-color="#ffcb48"/>
      <stop offset="1" stop-color="#e68e2b"/>
    </linearGradient>
    <linearGradient id="linear-gradient-34" x1="490.38521" y1="389.90762" x2="359.32138" y2="527.43953" xlink:href="#linear-gradient-33"/>
    <linearGradient id="linear-gradient-35" x1="483.95357" y1="383.77846" x2="352.88974" y2="521.31037" xlink:href="#linear-gradient-33"/>
    <linearGradient id="linear-gradient-36" x1="478.5193" y1="363.08432" x2="449.92356" y2="404.06305" gradientUnits="userSpaceOnUse">
      <stop offset="0" stop-color="#966551"/>
      <stop offset="1" stop-color="#805345"/>
    </linearGradient>
    <linearGradient id="linear-gradient-37" x1="465.02234" y1="353.66589" x2="436.4266" y2="394.64461" xlink:href="#linear-gradient-36"/>
    <linearGradient id="linear-gradient-38" x1="664.26315" y1="315.55019" x2="860.68952" y2="572.78969" gradientTransform="matrix(1, 0, 0, 1, 0, 0)" xlink:href="#linear-gradient-3"/>
    <linearGradient id="linear-gradient-39" x1="644.45747" y1="330.4774" x2="839.12517" y2="585.41373" gradientTransform="matrix(1, 0, 0, 1, 0, 0)" xlink:href="#linear-gradient-13"/>
    <linearGradient id="linear-gradient-40" x1="425.47626" y1="588.63264" x2="916.18392" y2="720.38712" gradientTransform="matrix(1, 0, 0, 1, 0, 0)" xlink:href="#linear-gradient-3"/>
    <linearGradient id="linear-gradient-41" x1="279.33557" y1="610.63652" x2="706.96891" y2="882.88756" gradientTransform="matrix(1, 0, 0, 1, 0, 0)" xlink:href="#linear-gradient-13"/>
    <linearGradient id="linear-gradient-42" x1="289.83752" y1="673.05114" x2="928.83533" y2="707.61988" gradientTransform="matrix(1, 0, 0, 1, 0, 0)" xlink:href="#linear-gradient-10"/>
    <linearGradient id="linear-gradient-43" x1="294.93606" y1="705.78362" x2="886.22041" y2="737.77114" gradientTransform="matrix(1, 0, 0, 1, 0, 0)" xlink:href="#linear-gradient-10"/>
    <linearGradient id="linear-gradient-44" x1="656.37188" y1="272.56479" x2="923.28319" y2="622.11118" gradientUnits="userSpaceOnUse">
      <stop offset="0" stop-color="#596c80"/>
      <stop offset="0.99886" stop-color="#3a4959"/>
    </linearGradient>
    <linearGradient id="linear-gradient-45" x1="673.26061" y1="731.71816" x2="704.42922" y2="780.3412" gradientTransform="matrix(1, 0, 0, 1, 0, 0)" xlink:href="#linear-gradient-10"/>
    <linearGradient id="linear-gradient-46" x1="342.19246" y1="556.5965" x2="695.39134" y2="753.619" gradientTransform="matrix(0.9748, -0.02632, 0, 1, -14.4111, -15.05277)" xlink:href="#linear-gradient-33"/>
    <linearGradient id="linear-gradient-47" x1="879.47064" y1="703.48431" x2="938.75261" y2="703.48431" gradientTransform="matrix(1, 0, 0, 1, 0, 0)" xlink:href="#linear-gradient-10"/>
    <linearGradient id="linear-gradient-48" x1="883.66482" y1="647.37596" x2="943.06907" y2="704.56745" xlink:href="#linear-gradient-33"/>
    <linearGradient id="linear-gradient-49" x1="-13266.03614" y1="3007.52888" x2="-13233.34034" y2="3021.1148" gradientTransform="matrix(-0.94085, 0.33882, 0.33882, 0.94085, -12558.72825, 2174.34544)" gradientUnits="userSpaceOnUse">
      <stop offset="0" stop-color="#f2883c"/>
      <stop offset="0.16716" stop-color="#e97d35"/>
      <stop offset="0.67368" stop-color="#d26124"/>
      <stop offset="0.96784" stop-color="#c9571e"/>
    </linearGradient>
    <linearGradient id="linear-gradient-50" x1="349.55187" y1="-2075.91617" x2="324.91805" y2="-2060.24011" gradientTransform="translate(-140.04187 2363.52848) rotate(21.53204)" xlink:href="#linear-gradient-49"/>
    <linearGradient id="linear-gradient-51" x1="961.97828" y1="524.06961" x2="920.62332" y2="561.24429" gradientTransform="matrix(1, 0, 0, 1, 0, 0)" xlink:href="#linear-gradient-49"/>
    <linearGradient id="linear-gradient-52" x1="620.81933" y1="2521.47436" x2="587.15653" y2="2542.89614" gradientTransform="translate(-362.80931 -1706.89232) rotate(-16.16083)" xlink:href="#linear-gradient-49"/>
    <linearGradient id="linear-gradient-53" x1="886.23743" y1="496.64539" x2="906.54167" y2="535.61162" gradientTransform="matrix(1, 0, 0, 1, 0, 0)" xlink:href="#linear-gradient-49"/>
    <linearGradient id="linear-gradient-54" x1="464.45476" y1="3154.61029" x2="487.96692" y2="3199.73289" gradientTransform="translate(-715.48044 -2239.67224) rotate(-21.26361)" xlink:href="#linear-gradient-49"/>
    <linearGradient id="linear-gradient-55" x1="-177.39007" y1="-2985.01346" x2="-144.69428" y2="-2971.42753" gradientTransform="matrix(0.87147, 0.49044, -0.49044, 0.87147, -435.33271, 3205.42339)" xlink:href="#linear-gradient-49"/>
    <linearGradient id="linear-gradient-56" x1="670.85946" y1="1138.63944" x2="649.49124" y2="1175.99304" gradientTransform="matrix(1.03159, -0.09458, 0.10022, 1.01436, 124.19263, -605.56432)" xlink:href="#linear-gradient-49"/>
    <linearGradient id="linear-gradient-57" x1="-301.1976" y1="4784.67787" x2="-331.50883" y2="4803.96684" gradientTransform="translate(-1642.23592 -3534.3374) rotate(-35.91139)" xlink:href="#linear-gradient-49"/>
    <linearGradient id="linear-gradient-58" x1="-12852.46035" y1="-1792.91522" x2="-12880.37219" y2="-1775.15314" gradientTransform="matrix(-0.94244, -0.33439, -0.33439, 0.94244, -11821.47234, -2071.00969)" xlink:href="#linear-gradient-49"/>
    <linearGradient id="linear-gradient-59" x1="-3484.9854" y1="684.76473" x2="-3481.30376" y2="684.76473" gradientTransform="matrix(-0.04492, -0.99899, -0.99899, 0.04492, 1465.50727, -2825.62376)" xlink:href="#linear-gradient-10"/>
    <linearGradient id="linear-gradient-60" x1="878.40484" y1="684.76473" x2="882.08648" y2="684.76473" gradientTransform="translate(31.56336 -38.74996) rotate(2.56788)" xlink:href="#linear-gradient-10"/>
    <linearGradient id="linear-gradient-61" x1="908.11578" y1="700.85945" x2="910.11578" y2="700.85945" gradientTransform="matrix(1, 0, 0, 1, 0, 0)" xlink:href="#linear-gradient-10"/>
    <linearGradient id="linear-gradient-62" x1="877.78594" y1="670.0356" x2="940.44598" y2="670.0356" gradientTransform="matrix(1, 0, 0, 1, 0, 0)" xlink:href="#linear-gradient-10"/>
    <linearGradient id="linear-gradient-63" x1="714.47012" y1="317.95672" x2="791.78919" y2="317.95672" gradientTransform="translate(-18.64021 -32.28579)" gradientUnits="userSpaceOnUse">
      <stop offset="0" stop-color="#435466"/>
      <stop offset="1" stop-color="#62778c"/>
    </linearGradient>
    <linearGradient id="linear-gradient-64" x1="724.89031" y1="313.97347" x2="788.47428" y2="313.97347" gradientTransform="translate(-18.64021 -32.28579)" gradientUnits="userSpaceOnUse">
      <stop offset="0" stop-color="#fff"/>
      <stop offset="0.98888" stop-color="#e6edf2"/>
    </linearGradient>
    <linearGradient id="linear-gradient-65" x1="734.00261" y1="315.8989" x2="777.10807" y2="315.8989" gradientTransform="translate(-18.64021 -32.28579)" xlink:href="#linear-gradient-3"/>
    <linearGradient id="linear-gradient-66" x1="714.47011" y1="317.95672" x2="791.7892" y2="317.95672" gradientTransform="translate(-18.64021 -32.28579)" xlink:href="#linear-gradient-18"/>
    <linearGradient id="linear-gradient-67" x1="731.43554" y1="239.31013" x2="810.93541" y2="344.38822" gradientTransform="translate(-18.64021 -32.28579)" xlink:href="#linear-gradient-3"/>
    <linearGradient id="linear-gradient-68" x1="699.97307" y1="214.35493" x2="817.85723" y2="370.16703" gradientTransform="translate(-18.64021 -32.28579)" xlink:href="#linear-gradient-3"/>
    <linearGradient id="linear-gradient-69" x1="814.51366" y1="355.64856" x2="788.83349" y2="295.4278" gradientTransform="translate(3.46411 6.00002)" xlink:href="#linear-gradient-63"/>
    <linearGradient id="linear-gradient-70" x1="747.9802" y1="260.58941" x2="787.31546" y2="260.58941" gradientTransform="translate(47.76727 82.73534)" xlink:href="#linear-gradient-64"/>
    <linearGradient id="linear-gradient-71" x1="737.56" y1="264.57266" x2="790.63038" y2="264.57266" gradientTransform="translate(47.76727 82.73534)" xlink:href="#linear-gradient-18"/>
    <linearGradient id="linear-gradient-72" x1="749.89626" y1="211.83274" x2="804.6917" y2="284.25802" gradientTransform="translate(47.76727 82.73534)" xlink:href="#linear-gradient-3"/>
    <linearGradient id="linear-gradient-73" x1="731.73779" y1="197.48719" x2="808.4386" y2="298.86565" gradientTransform="translate(47.76727 82.73534)" xlink:href="#linear-gradient-3"/>
  </defs>
  <g>
    <polygon class="cls-1" points="549.293 59.227 970.58 302.448 970.58 711.893 549.293 468.649 549.293 59.227"/>
    <polygon class="cls-2" points="549.31 59.227 128.023 302.448 128.023 711.893 549.31 468.649 549.31 59.227"/>
  </g>
  <g>
    <g>
      <g>
        <path class="cls-3" d="M505.87982,431.25948l-58.72647,33.89234.0001-8.73023L436.66826,181.2917l58.7376-33.87381,10.474,6.04512Z"/>
        <path class="cls-4" d="M436.673,181.29115v302.03l79.7-46v-302.04Zm10.48,6.07,58.72-33.9V431.26118l-58.72,33.89Z"/>
      </g>
      <polygon class="cls-5" points="505.873 153.461 501.932 155.736 501.944 429.129 447.153 460.746 447.153 465.152 505.88 431.259 505.873 153.461"/>
    </g>
    <g>
      <g>
        <path class="cls-6" d="M230.17138,594.28869,171.44491,628.181l.0001-8.73023L160.95982,344.32091l58.7376-33.87381,10.474,6.04512Z"/>
        <path class="cls-7" d="M160.96453,344.32035v302.03l79.7-46v-302.04Zm10.48,6.07,58.72-33.9V594.29039l-58.72,33.89Z"/>
      </g>
      <polygon class="cls-8" points="230.164 316.49 226.223 318.765 226.235 592.158 171.445 623.775 171.445 628.181 230.171 594.289 230.164 316.49"/>
    </g>
  </g>
  <path class="cls-9" d="M135.2928,724.49667l392.21059,226.4329a43.6172,43.6172,0,0,0,43.61687-.00063l392.1905-226.4365a14.53906,14.53906,0,0,0,.00017-25.18216L571.10327,472.8567a43.61721,43.61721,0,0,0-43.61994.00054L135.292,699.31448A14.53906,14.53906,0,0,0,135.2928,724.49667Z"/>
  <path class="cls-10" d="M595.49442,816.71065l109.634-63.34411a7.68541,7.68541,0,0,1,7.693,0l60.15222,34.76671a3.84269,3.84269,0,0,1,0,6.65353l-109.634,63.3441a7.68534,7.68534,0,0,1-7.693,0l-60.15222-34.7667A3.84269,3.84269,0,0,1,595.49442,816.71065Z"/>
  <path class="cls-11" d="M273.49178,752.40631l225.81837,130.3703a21.29362,21.29362,0,0,0,21.2957-.00163L886.463,671.28625a10.6468,10.6468,0,0,0-.0007-18.43978L660.71256,522.49228a21.2936,21.2936,0,0,0-21.29468-.00062L273.49159,733.9654A10.64681,10.64681,0,0,0,273.49178,752.40631Z"/>
  <g>
    <g>
      <path class="cls-12" d="M557.743,470.86887v83.22386a1.88191,1.88191,0,0,0,2.82248,1.63l52.78025-30.4512a5.64571,5.64571,0,0,0,2.824-4.89V440.94327"/>
      <path class="cls-13" d="M482.81079,427.72556v83.22385a1.88191,1.88191,0,0,0,2.82248,1.63l68.18856-39.34708a5.64575,5.64575,0,0,0,2.824-4.89V388.90406"/>
      <g>
        <path class="cls-14" d="M618.58292,398.65746v45.362a3.78123,3.78123,0,0,1-1.88816,3.28863l-55.88861,32.315a7.56335,7.56335,0,0,1-3.79208,1.00708l-15.40831-81.97269Z"/>
        <path class="cls-15" d="M557.01407,398.65746v81.97269a7.56371,7.56371,0,0,1-3.79246-1.00708l-71.281-41.21086a3.76436,3.76436,0,0,1-1.9041-3.28863v-45.362Z"/>
        <polygon class="cls-16" points="551.194 468.467 485.857 430.709 485.879 401.78 551.194 439.551 551.194 468.467"/>
        <path class="cls-17" d="M480.03653,381.33715V389.615a3.75351,3.75351,0,0,0,1.89252,3.28014l71.29216,41.21512a7.57794,7.57794,0,0,0,7.58524,0l55.884-32.31923a3.75351,3.75351,0,0,0,1.89252-3.28013v-8.27781Z"/>
        <path class="cls-18" d="M616.69039,386.95292l-71.29227-41.21507a7.5777,7.5777,0,0,0-7.58516,0L481.929,378.057a3.78883,3.78883,0,0,0,0,6.56026l71.29227,41.21506a7.57765,7.57765,0,0,0,7.58516,0l55.884-32.31917A3.78881,3.78881,0,0,0,616.69039,386.95292Z"/>
      </g>
    </g>
    <g>
      <g>
        <path class="cls-19" d="M575.835,381.35248c-2.8426-6.9357-13.625-12.103-26.52533-12.103s-23.68274,5.16733-26.52523,12.103h-.75688v3.62364c0,8.6856,12.21457,15.72666,27.28211,15.72666s27.28222-7.04106,27.28222-15.72666v-3.62364Z"/>
        <ellipse class="cls-20" cx="549.30974" cy="380.81874" rx="27.28218" ry="15.72671"/>
      </g>
      <path class="cls-21" d="M545.73494,337.05826v40.498c0,1.13808,1.60049,2.06067,3.57479,2.06067s3.57481-.92259,3.57481-2.06067v-40.498Z"/>
      <path class="cls-22" d="M512.61829,301.59338V335.228c0,11.64606,16.42726,21.087,36.69147,21.087s36.69148-9.441,36.69148-21.087V301.59338Z"/>
      <path class="cls-23" d="M512.126,295.84759v34.08592c0,11.80232,16.64766,21.37,37.18375,21.37s37.18376-9.56764,37.18376-21.37V295.84759Z"/>
      <g>
        <ellipse class="cls-24" cx="549.30974" cy="295.8477" rx="37.18377" ry="21.36998"/>
        <path class="cls-25" d="M541.29137,315.05151a36.30032,36.30032,0,0,0,16.03663,0V303.57389H541.29137Z"/>
        <ellipse class="cls-26" cx="549.30974" cy="303.57394" rx="8.01835" ry="4.62215"/>
        <path class="cls-27" d="M549.30973,276.31044c19.49262,0,35.35085,8.76433,35.35085,19.5372S568.80235,315.385,549.30973,315.385s-35.35086-8.76449-35.35086-19.53736,15.85823-19.5372,35.35086-19.5372m0-1.83276c-20.53594,0-37.18376,9.56769-37.18376,21.37,0,11.80242,16.64782,21.37011,37.18376,21.37011s37.18376-9.56769,37.18376-21.37011c0-11.80227-16.64783-21.37-37.18376-21.37Z"/>
      </g>
    </g>
  </g>
  <g>
    <ellipse class="cls-24" cx="923.72823" cy="387.6233" rx="10.27365" ry="5.92221"/>
    <path class="cls-28" d="M934.00181,387.62582c-.00266,3.26961-4.60114,5.91981-10.27381,5.91981-5.674,0-10.27336-2.65153-10.27336-5.92247v55.44962c0,3.27082,4.59936,5.92225,10.27336,5.92225s10.27381-2.65143,10.27381-5.92225v-55.447Z"/>
    <path class="cls-29" d="M934.00181,394.354c-.00266,3.2696-4.60114,5.91981-10.27381,5.91981-5.674,0-10.27336-2.65154-10.27336-5.92247v4.0609c0,3.27083,4.59936,5.92225,10.27336,5.92225s10.27381-2.65142,10.27381-5.92225Z"/>
    <path class="cls-30" d="M934.00181,430.779c-.00266,3.2696-4.60114,5.91981-10.27381,5.91981-5.674,0-10.27336-2.65154-10.27336-5.92247v4.0609c0,3.27083,4.59936,5.92225,10.27336,5.92225s10.27381-2.65142,10.27381-5.92225Z"/>
    <path class="cls-27" d="M923.72821,383.06418c5.25116,0,8.91062,2.40284,8.91062,4.55909s-3.65946,4.55908-8.91062,4.55908-8.91058-2.40283-8.91058-4.55908,3.65945-4.55909,8.91058-4.55909m0-1.36328c-5.67395,0-10.27362,2.65186-10.27362,5.92237,0,3.271,4.59967,5.92236,10.27362,5.92236s10.27365-2.65137,10.27365-5.92236c0-3.27051-4.59967-5.92237-10.27365-5.92237Z"/>
  </g>
  <g>
    <ellipse class="cls-24" cx="606.85278" cy="182.04265" rx="10.27365" ry="5.92221"/>
    <path class="cls-31" d="M617.12637,182.04517c-.00266,3.2696-4.60114,5.9198-10.27381,5.9198-5.674,0-10.27337-2.65153-10.27337-5.92247v55.44962c0,3.27083,4.59937,5.92225,10.27337,5.92225s10.27381-2.65142,10.27381-5.92225V182.04517Z"/>
    <path class="cls-32" d="M617.12637,188.77335c-.00266,3.26961-4.60114,5.91981-10.27381,5.91981-5.674,0-10.27337-2.65153-10.27337-5.92247v4.06091c0,3.27082,4.59937,5.92225,10.27337,5.92225s10.27381-2.65143,10.27381-5.92225Z"/>
    <path class="cls-33" d="M617.12637,225.19836c-.00266,3.26961-4.60114,5.91981-10.27381,5.91981-5.674,0-10.27337-2.65153-10.27337-5.92247v4.06091c0,3.27082,4.59937,5.92225,10.27337,5.92225s10.27381-2.65143,10.27381-5.92225Z"/>
    <path class="cls-27" d="M606.85278,177.48362c5.25116,0,8.91059,2.40283,8.91059,4.55908s-3.65943,4.55908-8.91059,4.55908-8.91058-2.40283-8.91058-4.55908,3.65942-4.55908,8.91058-4.55908m0-1.36328c-5.674,0-10.27362,2.65136-10.27362,5.92236,0,3.27051,4.59961,5.92236,10.27362,5.92236,5.67395,0,10.27363-2.65185,10.27363-5.92236,0-3.271-4.59968-5.92236-10.27363-5.92236Z"/>
  </g>
  <g>
    <g>
      <circle class="cls-34" cx="234.06471" cy="263.22484" r="217.50613"/>
      <polygon class="cls-35" points="240.502 395.458 186.752 468.821 80.997 417.749 29.452 304.367 34.556 187.629 101.663 96.683 132.462 81.834 240.502 395.458"/>
      <path class="cls-36" d="M201.81253,265.08652V52.75608L128.96909,86.78369V265.08652a89.4899,89.4899,0,1,0,72.84344,0Z"/>
      <path class="cls-37" d="M234.06476,63.89231a198.65275,198.65275,0,1,1-77.58362,15.65722,198.0605,198.0605,0,0,1,77.58362-15.65722m0-18.17383c-120.12537,0-217.50623,97.38086-217.50623,217.50635s97.38086,217.50635,217.50623,217.50635c120.12518,0,217.5061-97.38086,217.5061-217.50635S354.18994,45.71848,234.06476,45.71848Z"/>
    </g>
    <g>
      <text class="cls-38" transform="translate(252.71585 309.88213)">16</text>
      <text class="cls-38" transform="translate(360.56644 309.88213)">C</text>
      <circle cx="353.10038" cy="263.9988" r="7.94994"/>
    </g>
    <g>
      <text class="cls-38" transform="translate(252.71585 204.18095)">19</text>
      <text class="cls-38" transform="translate(360.56644 204.18095)">C</text>
      <circle cx="353.10038" cy="158.30022" r="7.94994"/>
    </g>
    <g>
      <path class="cls-39" d="M191.32768,302.29553V185.46307a2.6294,2.6294,0,0,0-2.6294-2.6294h-46.615a2.6294,2.6294,0,0,0-2.6294,2.6294V302.29939a2.62292,2.62292,0,0,1-1.51158,2.36245c-33.976,16.24454-51.33272,61.66446-19.48992,103.86339a2.91486,2.91486,0,0,0,.56371.56416c52.4821,39.65849,110.10281,3.09961,110.10281-46.9173a63.71687,63.71687,0,0,0-36.27645-57.50871A2.62952,2.62952,0,0,1,191.32768,302.29553Z"/>
      <g>
        <rect x="176.07965" y="256.43803" width="71.45798" height="5.25881" rx="2.6294"/>
        <rect x="176.07965" y="237.26596" width="53.58308" height="5.25881" rx="2.6294"/>
        <rect x="176.07965" y="218.09389" width="71.11639" height="5.25881" rx="2.6294"/>
      </g>
      <g>
        <rect x="176.07965" y="294.78218" width="71.45798" height="5.25881" rx="2.6294"/>
        <rect x="176.07965" y="275.61011" width="53.58308" height="5.25881" rx="2.6294"/>
      </g>
      <g>
        <rect x="176.07965" y="198.92182" width="53.58308" height="5.25881" rx="2.6294"/>
        <rect x="176.07965" y="179.74975" width="71.11639" height="5.25881" rx="2.6294"/>
      </g>
      <g>
        <rect x="176.07965" y="160.57768" width="53.58308" height="5.25881" rx="2.6294"/>
        <rect x="176.07965" y="141.4056" width="71.11639" height="5.25881" rx="2.6294"/>
      </g>
      <g>
        <rect x="176.07965" y="122.23353" width="53.58308" height="5.25881" rx="2.6294"/>
        <rect x="176.07965" y="103.06146" width="71.11639" height="5.25881" rx="2.6294"/>
      </g>
    </g>
  </g>
  <g>
    <g>
      <path class="cls-40" d="M418.21836,663.1299s-1.41479,12.0026.73949,15.192c1.39826,2.07013,7.70388,4.24748,14.27011,5.33665,6.12816,1.01651,12.55018,7.68675,24.00182,5.20913,8.66741-1.87523,10.33585-8.82957,6.27686-11.15349l-10.86719-6.5155-14.18164-8.86086Z"/>
      <path class="cls-41" d="M452.89256,502.86674l7.51216,71.91068L442.11253,663.629c-.57945,7.70558-24.62462,8.14015-24.98082,0l8.36264-87.61652-14.8447-83.47616Z"/>
      <path class="cls-42" d="M450.25076,471.28756,379.22231,493.3275s-4.69344,28.36811-5.92558,46.60729.69143,52.50539.69143,52.50539-.45789,80.5692.55684,95.85324c.50626,7.47874,22.089,9.362,22.83666,1.13054L408.30459,592.534l8.41029-60.10034,36.17768-29.56694Z"/>
      <path class="cls-43" d="M451.596,475.80627l-72.37365,22.45737s-1.33554,5.73038-2.1838,11.37521c7.25683,11.68384,39.81759,14.14944,56.15963,7.344,9.76709-4.06732,20.90711-9.59934,20.00575-18.34443Z"/>
      <path class="cls-40" d="M375.8803,688.83656a36.98868,36.98868,0,0,0,1.13024,9.44571,106.24018,106.24018,0,0,0,3.89505,10.84436c1.42523,3.34809,1.89409,9.35422,7.92492,13.63209,9.05316,6.42171,20.46854.61489,16.91959-7.49169l-4.26043-10.32456-5.48247-17.80592Z"/>
    </g>
    <g>
      <path class="cls-44" d="M493.762,453.00056s-7.86943-27.43181-13.79912-38.72869c-7.287-13.88256-16.62336-14.633-16.62336-14.633L454.10532,439.037s18.31506,26.49341,18.57275,26.91431c4.64014,7.57885,28.36051,23.21945,28.36051,23.21945,5.31915,3.19149,15.3617-7.95745,11.40425-13.57447Z"/>
      <path class="cls-45" d="M468.98,460.57168l8.87305-25.21631-16.36713,14.36182C464.05893,453.4418,466.83524,457.4623,468.98,460.57168Z"/>
      <path class="cls-46" d="M443.60422,395.9628c23.7887-5.66745,48.6684,21.676,28.94334,49.48112l-19.1753,22.95337-.07545,16.45089c.0914,13.54632-7.65957,18.97872-20.09858,24.15872-18.5161,7.71067-56.95753.99154-56.95753-14.35171l7.65621-29.05179,9.03236-38.96941C408.43212,409.30794,425.42607,400.29359,443.60422,395.9628Z"/>
      <path class="cls-45" d="M380.2562,502.64175c2.82861,2.5852,6.96027,4.69531,11.78448,6.27075l2.65747-13.27368,17.01648-35.97925L379.762,487.97939Z"/>
    </g>
    <g>
      <path class="cls-43" d="M434.195,402.58093c-4.10818,5.52153-3.228,12.50752,2.61254,21.50387,5.62569,8.66539,16.7252,17.39711,16.7252,17.39711a50.88309,50.88309,0,0,0,9.48255-20.95537c1.76485-9.693.24523-15.593-7.28086-20.49324C447.79271,394.86245,438.321,397.03547,434.195,402.58093Z"/>
      <path class="cls-47" d="M438.42363,403.28659c-2.45553,3.93411-2.38512,9.2035,3.2713,16.93432a55.53781,55.53781,0,0,0,11.71965,11.875s3.6819-4.64965,5.56427-13.32165c1.83307-8.44484,1.18788-13.20462-6.13085-17.17262C445.85426,397.80986,440.2492,400.27488,438.42363,403.28659Z"/>
      <path class="cls-48" d="M459.76522,413.82894c.45318-5.49616-1.16828-9.11028-6.91713-12.22718-6.9937-3.79206-12.59878-1.32682-14.42438,1.68467a10.19149,10.19149,0,0,0-1.24447,7.8839,16.9015,16.9015,0,0,0,4.36873,5.00683c5.88128,4.56686,13.45123,4.66035,16.908.20854A7.9161,7.9161,0,0,0,459.76522,413.82894Z"/>
      <path class="cls-49" d="M458.06484,411.74787c-2.96329,9.18077-21.31061-.04526-18.15273-8.25141l5.42658-16.13694,16.745,9.42962Z"/>
    </g>
    <path class="cls-50" d="M393.75809,425.81289c-7.9079,7.70117-30.84717,46.63447-33.145,62.80469s-1.40425,55.57446-1.40425,55.57446c-.04331,6.08436,18.704,9.30159,20.321.40775l7.8768-47.98221s23.65956-35.84937,23.67744-35.87842C423.85,439.97305,401.2786,418.82021,393.75809,425.81289Z"/>
    <g>
      <path class="cls-51" d="M473.73912,367.79546c1.02173,6.76312-.47539,13.95841-6.94473,21.08531l-3.28587-13.77308Z"/>
      <path class="cls-48" d="M453.54212,407.9944c-9.70022-2.7595-14.64088-8.30636-14.72692-17.56853l-.15331-20.02483c-.28753-8.07639,7.305-15.32814,16.69094-14.8448,8.20318.42243,16.32094,7.63713,15.85737,16.7247a183.92643,183.92643,0,0,1-2.46881,20.01535C466.994,401.10587,462.35751,410.50218,453.54212,407.9944Z"/>
      <path class="cls-52" d="M463.05748,356.10389c7.6073,2.78858,13.96874,8.45561,11.823,16.6474-1.78345,6.80853-11.20982,6.86332-25.09992,1.88757l.19177,3.64347a1.68732,1.68732,0,0,1-1.111,1.67539l-.97067.35111a1.16527,1.16527,0,0,0-.75627,1.29359,13.18637,13.18637,0,0,1-.20184,5.90263c-.49558,1.52814-2.47851,1.53094-2.47851,1.53094l-4.20263,13.51776c-1.51582-5.35935-1.56253-4.78031-6.43877-17.61-2.84681-7.49015-4.569-17.36109,3.60271-24.86327C443.41286,354.57428,453.834,352.72288,463.05748,356.10389Z"/>
      <path class="cls-48" d="M441.71868,395.64024c-3.34408-.06663-6.06607-4.792-5.99046-8.58669s3.4248-6.9228,6.26426-5.15511C445.55692,384.11747,445.06275,395.70687,441.71868,395.64024Z"/>
    </g>
  </g>
  <g>
    <g>
      <g>
        <g>
          <path class="cls-53" d="M870.9188,443.9173,650.08865,313.2883a3.3663,3.3663,0,0,0-3.67169.14533v-.00013L625.9381,325.27909l21.02742,12.29954v98.81449l228.9556,120.32949V452.68531A10.18553,10.18553,0,0,0,870.9188,443.9173Z"/>
          <path class="cls-54" d="M624.33108,328.16487V449.50338L855.28642,568.67649V464.63925a10.18534,10.18534,0,0,0-5.00239-8.768l-220.8302-130.629A3.39511,3.39511,0,0,0,624.33108,328.16487Z"/>
          <path class="cls-55" d="M855.28625,464.63925V578.57889L520.00361,636.16671,508.98068,867.94476a21.19708,21.19708,0,0,0,10.66554-2.83568L870.65173,662.30022a10.88263,10.88263,0,0,0,5.26645-9.71059l.003-75.53417V452.68535Z"/>
          <path class="cls-56" d="M520.00369,636.16675l-11.02292,231.778a21.05423,21.05423,0,0,1-10.5068-2.83567l-213.39741-123.139a10.45041,10.45041,0,0,1-5.27991-9.00434V656.71479Z"/>
          <g>
            <path class="cls-57" d="M855.28642,557.034v39.837l-.01059-.0106a10.4711,10.4711,0,0,1-5.25867,9.618L519.64335,797.12452a21.09108,21.09108,0,0,1-10.66554,2.83566l11.02292-196.17883Z"/>
            <path class="cls-58" d="M855.28642,572.81056v39.837l-.01059-.01059a10.47112,10.47112,0,0,1-5.25867,9.618L519.64335,812.90105a21.09119,21.09119,0,0,1-10.66554,2.83567l11.02292-196.17884Z"/>
            <path class="cls-59" d="M520.00073,619.55788,508.97781,815.73672a21.074,21.074,0,0,1-10.49621-2.83567L285.08412,689.762a10.48747,10.48747,0,0,1-5.29043-9.17366V639.95784Z"/>
            <path class="cls-60" d="M754.71807,558.79972,520.00766,597.02651,508.98473,793.19894A21.08452,21.08452,0,0,0,519.64552,790.36l202.927-117.16132L850.01067,599.716a10.46554,10.46554,0,0,0,5.26072-9.60862h.02V550.26313Z"/>
            <path class="cls-60" d="M520.00073,597.02,508.97781,793.19881a21.074,21.074,0,0,1-10.49621-2.83566l-213.39748-123.139a10.48747,10.48747,0,0,1-5.29043-9.17367V617.41993Z"/>
            <path class="cls-61" d="M850.01485,541.18654,636.686,418.0633a21.1619,21.1619,0,0,0-21.16285-.00061L482.41149,494.80658h0L285.08114,608.69412a10.43393,10.43393,0,0,0-4.95979,6.5147,10.75861,10.75861,0,0,0-.33065,2.64879,10.48163,10.48163,0,0,0,5.29066,9.16328l149.61336,86.37533,63.78354,36.76387a21.1469,21.1469,0,0,0,9.21292,2.79073q.68387.04425,1.36928.04419a21.14748,21.14748,0,0,0,10.58176-2.83652l330.37329-190.6464A10.58089,10.58089,0,0,0,850.01485,541.18654Z"/>
          </g>
        </g>
        <path class="cls-62" d="M870.65173,437.33431V662.30022L864.6879,665.749V437.33431a7.46641,7.46641,0,0,0-3.65565-6.41674L634.68034,297.02145a.44362.44362,0,0,0-.49788,0,.453.453,0,0,0-.24894.43v23.21119l-5.9641,3.44042V297.4515a6.453,6.453,0,0,1,9.74409-5.5567l226.3519,133.89612A13.462,13.462,0,0,1,870.65173,437.33431Z"/>
      </g>
      <path class="cls-63" d="M843.172,658.7708l-304.87338,176.134a10.18531,10.18531,0,0,0-5.08647,8.81717v13.5422L848.25637,675.251l.0104-13.53848A3.39511,3.39511,0,0,0,843.172,658.7708Z"/>
    </g>
    <g>
      <path class="cls-60" d="M630.22094,471.44808c.20736-.22369,40.53092-23.35158,40.53092-23.35158-.20983-1.40014-.54349-3.05652.35713-3.52474,1.02234-.53141,3.115.49933,4.21471,1.77929,13.98963-2.95376,20.42148-2.90316,48.25016,12.91863,36.06645,20.50531,38.25636,29.68624,46.33005,44.008,2.51022,1.19222,3.84857,1.998,3.275,3.5002-.5309,1.39047-4.0253,2.10995-5.79145,1.49588l-38.05327,21.85019c.36258,1.60826-.25043,3.76087-1.26324,4.2677-1.331.66622-3.23469-.71458-4.08581-3.3937l-.00093-.00213c-16.58945-.68751-39.17823-10.78829-54.17259-20.24385-12.46056-7.85785-33.67176-20.48824-39.38493-33.96359-2.2021-.00511-4.349-1.10569-4.43248-2.49971C625.90949,472.87058,627.979,471.68546,630.22094,471.44808Z"/>
      <path class="cls-36" d="M626.46122,461.72783c.20736-.22368,40.53092-23.35158,40.53092-23.35158-.20982-1.40013-.54349-3.05652.35714-3.52473,1.02233-.53141,3.115.49933,4.2147,1.77928,13.98963-2.95376,20.42148-2.90315,48.25016,12.91863,36.06646,20.50532,38.25636,29.68625,46.33005,44.008,2.51022,1.19222,3.84858,1.998,3.275,3.5002-.53091,1.39047-4.0253,2.10995-5.79145,1.49588l-38.05327,21.85018c.36257,1.60826-.25044,3.76088-1.26325,4.26771-1.331.66622-3.23468-.71458-4.0858-3.39371l-.00094-.00212c-16.58945-.68751-39.17822-10.78829-54.17259-20.24386-12.46056-7.85784-33.67176-20.48823-39.38493-33.96359-2.2021-.0051-4.349-1.10569-4.43248-2.4997C622.14977,463.15034,624.21932,461.96522,626.46122,461.72783Z"/>
      <path class="cls-64" d="M513.234,474.31543c63.69328,6.59072,206.767,108.81925,211.95122,130.19174s2.56023,67.12572-1.53729,71.61467C678.02225,726.1061,564.35567,786.82333,514.6501,798.91947c-17.67713,4.30184-41.42574-4.2953-56.70354-14.10849-35.02442-22.49677-184.16234-100.31977-184.16234-114.79506,0-10.75949-1.30746-35.14493,8.86619-52.13679,9.71625-16.22791,30.59418-25.11171,44.409-33.903C355.33932,565.97968,513.234,474.31543,513.234,474.31543Z"/>
    </g>
  </g>
  <g>
    <circle class="cls-37" cx="51.44097" cy="157.04608" r="51.44097"/>
    <g>
      <rect class="cls-65" x="33.97685" y="149.87836" width="11.16548" height="33.5616" transform="translate(-106.25909 76.78619) rotate(-45)"/>
      <rect class="cls-65" x="55.71563" y="135.62886" width="11.16548" height="50.25593" transform="translate(-9.02938 317.77357) rotate(-135)"/>
    </g>
  </g>
  <g>
    <g class="cls-66">
      <ellipse class="cls-67" cx="909.11596" cy="705.63226" rx="36.30951" ry="20.86753"/>
    </g>
    <g>
      <path class="cls-68" d="M909.11169,689.63143c14.34209,0,26.45876,6.34385,26.45876,13.85291,0,7.509-12.11667,13.85284-26.45876,13.85284-14.34222,0-26.4589-6.34385-26.4589-13.85284,0-7.50906,12.11668-13.85291,26.4589-13.85291m0-3.18215c-16.3703,0-29.641,7.62682-29.641,17.03506,0,9.40817,13.27075,17.035,29.641,17.035,16.37016,0,29.64092-7.62682,29.64092-17.035,0-9.40824-13.27076-17.03506-29.64092-17.03506Z"/>
      <g>
        <g>
          <path class="cls-69" d="M881.16735,647.87086v43.57446c0,8.86969,12.51123,16.06,27.94434,16.06,15.43322,0,27.94433-7.19031,27.94433-16.06V647.87086Z"/>
          <ellipse class="cls-24" cx="909.11166" cy="647.8709" rx="27.94426" ry="16.05992"/>
          <path class="cls-70" d="M933.356,655.84988c-4.82258,4.84517-13.885,8.07533-24.24871,8.07533s-19.42558-3.23016-24.24871-8.07533c3.07339-6.01166,12.76346-10.4083,24.24871-10.4083S930.28257,649.83822,933.356,655.84988Z"/>
          <path class="cls-27" d="M909.11169,634.811c13.52111,0,24.94421,5.98072,24.94421,13.05994,0,7.07916-11.4231,13.05988-24.94421,13.05988-13.52124,0-24.94434-5.98072-24.94434-13.05988,0-7.07922,11.4231-13.05994,24.94434-13.05994m0-3c-15.43323,0-27.94434,7.19025-27.94434,16.05994,0,8.86963,12.51111,16.05988,27.94434,16.05988,15.4331,0,27.94421-7.19025,27.94421-16.05988,0-8.86969-12.51111-16.05994-27.94421-16.05994Z"/>
        </g>
        <g>
          <path class="cls-71" d="M917.6932,532.75663c10.27342-3.82416,30.20007-14.81553,24.20314-21.78945S916.98784,517.08256,917.6932,532.75663Z"/>
          <path class="cls-70" d="M907.01214,653.67453c-.57,0-1.268-.94038-1.268-2.03784,0-53.61359-4.83087-88.51462-16.70718-116.823a3.37392,3.37392,0,0,1,.15429-2.793c.44333-.69143,1.09249-.55911,1.45127.29707,12.197,29.07372,17.40145,64.77243,17.40145,119.37062C908.044,652.78592,907.58213,653.67453,907.01214,653.67453Z"/>
          <path class="cls-70" d="M911.63983,653.67453c-.57,0-1.03185-.88861-1.03185-1.98607,0-50.49632,0-119.65472,13.174-151.057.35844-.85617,1.00794-.98719,1.45094-.29706a3.37267,3.37267,0,0,1,.15463,2.79295c-12.71582,30.31128-12.71582,98.65631-12.71582,148.56109C912.67169,652.78592,912.20983,653.67453,911.63983,653.67453Z"/>
          <path class="cls-70" d="M912.12494,599.46811c-.53193,0-.98335-.78613-1.02748-1.82392-1.71134-40.383-6.25718-67.83-14.30622-86.37535a3.385,3.385,0,0,1,.13-2.79814c.43794-.7044,1.08845-.589,1.45329.25037,8.33572,19.20562,13.03181,47.35959,14.77987,88.59881.04615,1.09358-.37663,2.05353-.94461,2.14174A.47247.47247,0,0,1,912.12494,599.46811Z"/>
        </g>
        <path class="cls-70" d="M911.64084,615.179a.523.523,0,0,1-.07445-.00477c-.56865-.0715-.79917-.97985-.7584-1.98439,1.28418-31.77956,9.09445-65.2926,21.9147-67.92371.56326-.11678,1.078.60058,1.1437,1.60155.06569,1.00216-.33991,1.90779-.90587,2.02338-11.70517,2.40233-19.068,34.313-20.29153,64.59344C912.63025,614.44619,912.17715,615.179,911.64084,615.179Z"/>
        <path class="cls-72" d="M918.54965,567.57668c10.16466,2.53689,31.575,2.65047,30.61627-6.08738S926.46329,554.84013,918.54965,567.57668Z"/>
        <path class="cls-73" d="M922.30147,561.02023c17.08455-4.57708,48.78844-21.93977,40.21853-34.05555S923.557,535.73609,922.30147,561.02023Z"/>
        <path class="cls-74" d="M910.18411,573.28883c13.111-5.7497,36.35769-23.516,28.02018-32.16342S908.09957,552.90426,910.18411,573.28883Z"/>
        <path class="cls-75" d="M906.38159,538.56734c-12.41352-9.28868-32.56114-33.74366-21.641-40.81312S913.59374,517.58126,906.38159,538.56734Z"/>
        <path class="cls-76" d="M900.74827,568.51959c-17.297-4.81082-49.30951-22.74048-40.49385-34.95552S899.71807,542.8435,900.74827,568.51959Z"/>
        <path class="cls-77" d="M893.75312,544.33613c-9.49519-5.478-27.31852-19.62761-20.24616-25.50814S897.05307,528.99715,893.75312,544.33613Z"/>
        <path class="cls-78" d="M912.932,528.255c12.14387-10.83615,31.84359-35.50284,19.59867-41.78006S903.1725,507.183,912.932,528.255Z"/>
        <path class="cls-79" d="M908.3878,551.58558c9.36164-8.86212,23.65646-30.992,13.95945-35.78344S900.41858,534.94462,908.3878,551.58558Z"/>
        <path class="cls-80" d="M909.93117,564.00511c-10.57167-5.39906-28.94632-21.2392-21.62312-27.98995S912.6515,547.23409,909.93117,564.00511Z"/>
      </g>
      <rect class="cls-81" x="919.10912" y="683.76469" width="37.57777" height="2.00007" transform="translate(211.69375 1590.95609) rotate(-87.42538)"/>
      <rect class="cls-82" x="879.24563" y="665.97584" width="2.00007" height="37.57777" transform="translate(-29.79555 40.12518) rotate(-2.56788)"/>
      <rect class="cls-83" x="908.11578" y="682.22127" width="2" height="37.27637"/>
      <path class="cls-84" d="M937.056,656.96059v7.77a3.429,3.429,0,0,1,0,.74c-.38,7.78-13.02,14.28-27.93994,14.28-14.92,0-27.57007-6.5-27.95007-14.28a3.44956,3.44956,0,0,1,0-.74v-7.76a11.47968,11.47968,0,0,0,0,16.27c5.16,5.86,15.74011,9.87,27.95007,9.87,12.19995,0,22.77-4.01,27.93994-9.86a11.47974,11.47974,0,0,0,0-16.29Z"/>
    </g>
  </g>
  <g>
    <g>
      <polygon class="cls-85" points="773.11 262.697 773.149 353.399 695.869 308.645 695.83 217.943 773.11 262.697"/>
      <polygon class="cls-86" points="769.803 260.788 769.834 339.416 706.281 302.587 706.25 223.959 769.803 260.788"/>
      <polygon class="cls-87" points="758.447 269.445 758.468 322.749 715.383 297.782 715.362 244.477 758.447 269.445"/>
      <path class="cls-88" d="M768.8117,345.89243l-68.61231-39.74951-.03221-80.69349L768.77951,265.199l.03219,80.69348m4.33729,7.5063-.03922-90.70188L695.8299,217.94313l.03924,90.70189L773.149,353.39873Z"/>
      <polygon class="cls-89" points="700.721 215.112 778 259.866 773.11 262.697 695.83 217.943 700.721 215.112"/>
      <polygon class="cls-90" points="778 259.866 778.023 350.577 773.149 353.399 773.11 262.697 778 259.866"/>
    </g>
    <g>
      <polygon class="cls-91" points="838.358 333.334 838.398 392.036 785.367 361.282 785.327 302.58 838.358 333.334"/>
      <polygon class="cls-92" points="835.052 331.425 835.083 378.053 795.778 355.225 795.747 308.596 835.052 331.425"/>
      <path class="cls-93" d="M834.06036,384.5295,789.69676,358.78l-.0322-48.69349L834.02818,335.836l.03218,48.69348m4.33729,7.5063-.03922-58.70188L785.32727,302.5802l.03924,58.70189,53.03114,30.75371Z"/>
      <polygon class="cls-94" points="790.218 299.749 843.249 330.503 838.358 333.334 785.327 302.58 790.218 299.749"/>
      <polygon class="cls-95" points="843.249 330.503 843.272 389.214 838.398 392.036 838.358 333.334 843.249 330.503"/>
    </g>
  </g>
  <path class="cls-43" d="M361.511,552.42882l-.00127-9.55589c-.00254-6.95749,17.42117-5.61707,16.71906,1.02124l-2.169,10.12766C375.08113,559.00056,361.2939,557.29843,361.511,552.42882Z"/>
  <path class="cls-48" d="M361.97654,552.25869c-6.62708,9.44995-9.54368,22.99031-9.23065,26.23007s9.32542,6.423,13.55624,3.23976,8.95766-14.4718,8.95766-14.4718a52.48014,52.48014,0,0,1,5.42093,3.41525c1.7326,1.37955,4.23819-.26552,3.31407-3.01975s-9.37323-14.35374-9.37323-14.35374C371.46411,549.35162,364.54087,549.3522,361.97654,552.25869Z"/>
  <path class="cls-43" d="M510.1718,476.27715l6.20517,4.05566c2.76595,4.44669-4.11822,11.78477-7.04052,10.28477l-6.57445-3.08521C498.613,484.84818,504.42715,473.48992,510.1718,476.27715Z"/>
  <path class="cls-48" d="M514.28452,479.98257s8.69836-1.26663,12.57831-.9228,11.31031,3.0022,13.45021,5.78841,1.508,7.49814-1.392,7.9-17.90828,0-17.90828,0,2.21884,4.17195,2.94386,5.767-1.46712,2.64742-3.66264,1.42521-11.11355-10.67019-11.11355-10.67019C507.53519,487.505,510.05985,480.36226,514.28452,479.98257Z"/>
</svg>
