<svg id="Layer_1" data-name="Layer 1" xmlns="http://www.w3.org/2000/svg" xmlns:xlink="http://www.w3.org/1999/xlink" viewBox="0 0 1000 1000">
  <defs>
    <style>
      .cls-1, .cls-100, .cls-101, .cls-104, .cls-106, .cls-67, .cls-68 {
        fill: none;
      }

      .cls-2 {
        clip-path: url(#clip-path);
      }

      .cls-3 {
        fill: url(#linear-gradient);
      }

      .cls-4 {
        fill: url(#linear-gradient-2);
      }

      .cls-5 {
        fill: #bcd0e2;
      }

      .cls-6 {
        fill: #e9f1f4;
      }

      .cls-7 {
        fill: url(#linear-gradient-3);
      }

      .cls-8 {
        fill: url(#linear-gradient-4);
      }

      .cls-9 {
        fill: #b8cbd8;
      }

      .cls-10 {
        fill: url(#linear-gradient-5);
      }

      .cls-11 {
        fill: #9bb0c4;
      }

      .cls-12 {
        fill: url(#linear-gradient-6);
      }

      .cls-13 {
        fill: url(#linear-gradient-7);
      }

      .cls-14 {
        fill: url(#linear-gradient-8);
      }

      .cls-15 {
        fill: url(#linear-gradient-9);
      }

      .cls-16 {
        fill: url(#linear-gradient-10);
      }

      .cls-17 {
        fill: url(#linear-gradient-11);
      }

      .cls-18 {
        fill: url(#linear-gradient-12);
      }

      .cls-19 {
        fill: #e58630;
      }

      .cls-20 {
        fill: url(#linear-gradient-13);
      }

      .cls-21 {
        fill: #ffcb48;
      }

      .cls-22 {
        fill: url(#linear-gradient-14);
      }

      .cls-23 {
        fill: url(#linear-gradient-15);
      }

      .cls-24 {
        fill: url(#linear-gradient-16);
      }

      .cls-25 {
        fill: #748ca3;
      }

      .cls-26 {
        fill: #586c7f;
      }

      .cls-27 {
        fill: url(#linear-gradient-17);
      }

      .cls-28 {
        fill: url(#linear-gradient-18);
      }

      .cls-29 {
        fill: url(#linear-gradient-19);
      }

      .cls-30 {
        fill: url(#linear-gradient-20);
      }

      .cls-31 {
        fill: url(#linear-gradient-21);
      }

      .cls-32 {
        fill: url(#linear-gradient-22);
      }

      .cls-33 {
        fill: url(#linear-gradient-23);
      }

      .cls-34 {
        fill: url(#linear-gradient-24);
      }

      .cls-35 {
        fill: url(#linear-gradient-25);
      }

      .cls-36 {
        fill: url(#linear-gradient-26);
      }

      .cls-37 {
        fill: url(#linear-gradient-27);
      }

      .cls-38 {
        fill: url(#linear-gradient-28);
      }

      .cls-39 {
        fill: url(#linear-gradient-29);
      }

      .cls-40 {
        fill: url(#linear-gradient-30);
      }

      .cls-41 {
        fill: url(#linear-gradient-31);
      }

      .cls-42, .cls-45 {
        opacity: 0.4;
      }

      .cls-42 {
        fill: url(#linear-gradient-32);
      }

      .cls-43 {
        fill: url(#linear-gradient-33);
      }

      .cls-44 {
        fill: url(#linear-gradient-34);
      }

      .cls-45 {
        fill: url(#linear-gradient-35);
      }

      .cls-46 {
        fill: url(#linear-gradient-36);
      }

      .cls-47 {
        fill: url(#linear-gradient-37);
      }

      .cls-48 {
        fill: url(#linear-gradient-38);
      }

      .cls-49 {
        fill: url(#linear-gradient-39);
      }

      .cls-50, .cls-56, .cls-62 {
        opacity: 0.5;
      }

      .cls-50 {
        fill: url(#linear-gradient-40);
      }

      .cls-51 {
        fill: #303d49;
      }

      .cls-52 {
        fill: #ffbda3;
      }

      .cls-53 {
        fill: #27343d;
      }

      .cls-54, .cls-56 {
        fill: #dd7b19;
      }

      .cls-55 {
        fill: url(#linear-gradient-41);
      }

      .cls-57 {
        fill: url(#linear-gradient-42);
      }

      .cls-58 {
        fill: url(#linear-gradient-43);
      }

      .cls-59 {
        fill: #d6e4ed;
      }

      .cls-60 {
        fill: #e48f7c;
      }

      .cls-61 {
        fill: url(#linear-gradient-44);
      }

      .cls-62 {
        fill: url(#linear-gradient-45);
      }

      .cls-63 {
        fill: #fff;
      }

      .cls-64 {
        fill: url(#linear-gradient-46);
      }

      .cls-65 {
        fill: url(#linear-gradient-47);
      }

      .cls-66 {
        fill: url(#linear-gradient-48);
      }

      .cls-100, .cls-101, .cls-104, .cls-106, .cls-67, .cls-68 {
        stroke-miterlimit: 10;
      }

      .cls-67, .cls-68 {
        stroke-width: 4.89917px;
      }

      .cls-67 {
        stroke: url(#linear-gradient-49);
      }

      .cls-68 {
        stroke: url(#linear-gradient-50);
      }

      .cls-69 {
        fill: url(#linear-gradient-51);
      }

      .cls-70 {
        fill: url(#linear-gradient-52);
      }

      .cls-71 {
        fill: url(#linear-gradient-53);
      }

      .cls-72 {
        fill: url(#linear-gradient-54);
      }

      .cls-73 {
        opacity: 0.6;
      }

      .cls-74 {
        fill: url(#linear-gradient-55);
      }

      .cls-75 {
        fill: url(#linear-gradient-56);
      }

      .cls-76 {
        fill: #724133;
      }

      .cls-77 {
        fill: url(#linear-gradient-57);
      }

      .cls-78 {
        fill: url(#linear-gradient-58);
      }

      .cls-79 {
        fill: url(#linear-gradient-59);
      }

      .cls-80 {
        fill: url(#linear-gradient-60);
      }

      .cls-81 {
        fill: url(#linear-gradient-61);
      }

      .cls-82 {
        fill: url(#linear-gradient-62);
      }

      .cls-83 {
        fill: url(#linear-gradient-63);
      }

      .cls-84 {
        fill: url(#linear-gradient-64);
      }

      .cls-85 {
        fill: url(#linear-gradient-65);
      }

      .cls-86 {
        fill: url(#linear-gradient-66);
      }

      .cls-87 {
        fill: url(#linear-gradient-67);
      }

      .cls-88 {
        fill: url(#linear-gradient-68);
      }

      .cls-89 {
        fill: url(#linear-gradient-69);
      }

      .cls-90 {
        fill: url(#linear-gradient-70);
      }

      .cls-91 {
        fill: #34a521;
      }

      .cls-92 {
        fill: #e2e2e2;
      }

      .cls-93 {
        fill: url(#linear-gradient-71);
      }

      .cls-94 {
        fill: #242c35;
      }

      .cls-95 {
        fill: #303944;
      }

      .cls-96 {
        fill: #89a1bc;
      }

      .cls-97 {
        fill: url(#linear-gradient-72);
      }

      .cls-98 {
        fill: url(#linear-gradient-73);
      }

      .cls-99 {
        fill: url(#linear-gradient-74);
      }

      .cls-100 {
        stroke: url(#linear-gradient-75);
      }

      .cls-101 {
        stroke: url(#linear-gradient-76);
      }

      .cls-102 {
        fill: url(#linear-gradient-77);
      }

      .cls-103 {
        fill: url(#linear-gradient-78);
      }

      .cls-104 {
        stroke: url(#linear-gradient-79);
      }

      .cls-105 {
        fill: url(#linear-gradient-80);
      }

      .cls-106 {
        stroke: url(#linear-gradient-81);
      }

      .cls-107 {
        fill: url(#linear-gradient-82);
      }

      .cls-108 {
        fill: url(#linear-gradient-83);
      }

      .cls-109 {
        fill: url(#linear-gradient-84);
      }
    </style>
    <clipPath id="clip-path">
      <path class="cls-1" d="M2475.98541,305.84375a194.17509,194.17509,0,1,1-71.04617-150.16185A193.78539,193.78539,0,0,1,2475.98541,305.84375Z"/>
    </clipPath>
    <linearGradient id="linear-gradient" x1="888.04874" y1="838.26957" x2="2263.28084" y2="1713.80554" gradientUnits="userSpaceOnUse">
      <stop offset="0" stop-color="#62788c"/>
      <stop offset="1" stop-color="#526575"/>
    </linearGradient>
    <linearGradient id="linear-gradient-2" x1="938.21858" y1="1144.25449" x2="2839.73826" y2="1247.12359" gradientUnits="userSpaceOnUse">
      <stop offset="0" stop-color="#3e4c59"/>
      <stop offset="1" stop-color="#293440"/>
    </linearGradient>
    <linearGradient id="linear-gradient-3" x1="1011.09145" y1="563.83455" x2="2146.77645" y2="1197.34591" gradientUnits="userSpaceOnUse">
      <stop offset="0.00005" stop-color="#ffcb48"/>
      <stop offset="1" stop-color="#e68e2b"/>
    </linearGradient>
    <linearGradient id="linear-gradient-4" x1="460.38983" y1="396.22833" x2="867.03608" y2="396.22833" gradientUnits="userSpaceOnUse">
      <stop offset="0" stop-color="#e4edf2"/>
      <stop offset="1" stop-color="#c3d6e6"/>
    </linearGradient>
    <linearGradient id="linear-gradient-5" x1="53.75927" y1="711.22041" x2="867.03608" y2="711.22041" gradientUnits="userSpaceOnUse">
      <stop offset="0.00663" stop-color="#c4d5e6"/>
      <stop offset="1" stop-color="#dae9f2"/>
    </linearGradient>
    <linearGradient id="linear-gradient-6" x1="333.24083" y1="163.64526" x2="213.75147" y2="530.53887" gradientUnits="userSpaceOnUse">
      <stop offset="0" stop-color="#293440"/>
      <stop offset="1" stop-color="#3e4c59"/>
    </linearGradient>
    <linearGradient id="linear-gradient-7" x1="88.25444" y1="394.57128" x2="431.59716" y2="394.57128" gradientUnits="userSpaceOnUse">
      <stop offset="0" stop-color="#5b6f82"/>
      <stop offset="1" stop-color="#849bb2"/>
    </linearGradient>
    <linearGradient id="linear-gradient-8" x1="447.512" y1="292.88581" x2="78.4526" y2="492.94229" gradientUnits="userSpaceOnUse">
      <stop offset="0" stop-color="#62778c"/>
      <stop offset="1" stop-color="#435466"/>
    </linearGradient>
    <linearGradient id="linear-gradient-9" x1="379.57975" y1="325.62376" x2="247.80483" y2="397.05514" xlink:href="#linear-gradient-8"/>
    <linearGradient id="linear-gradient-10" x1="268.11094" y1="389.97619" x2="136.33603" y2="461.40757" xlink:href="#linear-gradient-8"/>
    <linearGradient id="linear-gradient-11" x1="117.30265" y1="489.06775" x2="142.3527" y2="489.06775" gradientUnits="userSpaceOnUse">
      <stop offset="0" stop-color="#e68e2b"/>
      <stop offset="0.99995" stop-color="#ffcb48"/>
    </linearGradient>
    <linearGradient id="linear-gradient-12" x1="101.41275" y1="497.97519" x2="126.4628" y2="497.97519" xlink:href="#linear-gradient-11"/>
    <linearGradient id="linear-gradient-13" x1="85.52286" y1="507.22086" x2="110.58268" y2="507.22086" xlink:href="#linear-gradient-11"/>
    <linearGradient id="linear-gradient-14" x1="426.29803" y1="310.29598" x2="451.34808" y2="310.29598" xlink:href="#linear-gradient-11"/>
    <linearGradient id="linear-gradient-15" x1="410.40814" y1="319.20342" x2="435.45819" y2="319.20342" xlink:href="#linear-gradient-11"/>
    <linearGradient id="linear-gradient-16" x1="394.51825" y1="328.44909" x2="419.57806" y2="328.44909" xlink:href="#linear-gradient-11"/>
    <linearGradient id="linear-gradient-17" x1="-120.79577" y1="246.47398" x2="443.02301" y2="246.47398" xlink:href="#linear-gradient-7"/>
    <linearGradient id="linear-gradient-18" x1="463.06725" y1="556.81597" x2="520.96454" y2="556.81597" xlink:href="#linear-gradient-8"/>
    <linearGradient id="linear-gradient-19" x1="463.06723" y1="552.40466" x2="520.96456" y2="552.40466" gradientUnits="userSpaceOnUse">
      <stop offset="0" stop-color="#849bb2"/>
      <stop offset="1" stop-color="#5b6f82"/>
    </linearGradient>
    <linearGradient id="linear-gradient-20" x1="489.7883" y1="302.92783" x2="494.01138" y2="536.60506" xlink:href="#linear-gradient-8"/>
    <linearGradient id="linear-gradient-21" x1="453.08321" y1="294.82254" x2="530.94863" y2="294.82254" xlink:href="#linear-gradient-8"/>
    <linearGradient id="linear-gradient-22" x1="452.56086" y1="289.11529" x2="531.47098" y2="289.11529" gradientUnits="userSpaceOnUse">
      <stop offset="0.00844" stop-color="#ffc63f"/>
      <stop offset="1" stop-color="#e68a23"/>
    </linearGradient>
    <linearGradient id="linear-gradient-23" x1="483.50774" y1="274.45696" x2="500.52394" y2="274.45696" xlink:href="#linear-gradient-2"/>
    <linearGradient id="linear-gradient-24" x1="483.50775" y1="267.89195" x2="500.52403" y2="267.89195" xlink:href="#linear-gradient-8"/>
    <linearGradient id="linear-gradient-25" x1="-99.55199" y1="501.44749" x2="85.06167" y2="501.44749" gradientTransform="matrix(-1, 0, 0, 1, 493.27889, 0)" xlink:href="#linear-gradient-19"/>
    <linearGradient id="linear-gradient-26" x1="-66.31413" y1="510.94823" x2="85.06167" y2="510.94823" gradientTransform="matrix(-1, 0, 0, 1, 493.27889, 0)" xlink:href="#linear-gradient"/>
    <linearGradient id="linear-gradient-27" x1="15.88912" y1="483.7172" x2="210.62573" y2="693.05907" gradientTransform="matrix(-1, 0, 0, 1, 493.27889, 0)" xlink:href="#linear-gradient"/>
    <linearGradient id="linear-gradient-28" x1="0.14048" y1="481.98734" x2="286.76844" y2="649.94767" gradientTransform="matrix(-1, 0, 0, 1, 493.27889, 0)" xlink:href="#linear-gradient-19"/>
    <linearGradient id="linear-gradient-29" x1="83.84721" y1="582.5141" x2="173.86299" y2="582.5141" gradientTransform="matrix(-1, 0, 0, 1, 493.27889, 0)" xlink:href="#linear-gradient"/>
    <linearGradient id="linear-gradient-30" x1="43.51409" y1="474.55603" x2="207.89816" y2="474.55603" gradientTransform="matrix(-1, 0, 0, 1, 493.27889, 0)" xlink:href="#linear-gradient"/>
    <linearGradient id="linear-gradient-31" x1="46.74891" y1="420.1791" x2="293.21245" y2="673.94525" gradientTransform="matrix(-1, 0, 0, 1, 493.27889, 0)" xlink:href="#linear-gradient-19"/>
    <linearGradient id="linear-gradient-32" x1="-86.04526" y1="339.94645" x2="169.46777" y2="591.41655" gradientTransform="matrix(-1, 0, 0, 1, 493.27889, 0)" xlink:href="#linear-gradient-8"/>
    <linearGradient id="linear-gradient-33" x1="189.18835" y1="556.79677" x2="353.57241" y2="556.79677" gradientTransform="matrix(-1, 0, 0, 1, 493.27889, 0)" xlink:href="#linear-gradient"/>
    <linearGradient id="linear-gradient-34" x1="79.69807" y1="388.17812" x2="326.1616" y2="641.94427" gradientTransform="matrix(-1, 0, 0, 1, 493.27889, 0)" xlink:href="#linear-gradient-19"/>
    <linearGradient id="linear-gradient-35" x1="59.629" y1="424.01057" x2="315.14202" y2="675.48067" gradientTransform="matrix(-1, 0, 0, 1, 493.27889, 0)" xlink:href="#linear-gradient-8"/>
    <linearGradient id="linear-gradient-36" x1="209.83962" y1="677.99529" x2="392.52265" y2="677.99529" gradientTransform="matrix(-1, 0, 0, 1, 493.27889, 0)" xlink:href="#linear-gradient-19"/>
    <linearGradient id="linear-gradient-37" x1="243.07748" y1="690.94362" x2="394.45327" y2="690.94362" gradientTransform="matrix(-1, 0, 0, 1, 493.27889, 0)" xlink:href="#linear-gradient"/>
    <linearGradient id="linear-gradient-38" x1="385.90543" y1="662.09397" x2="393.05592" y2="662.09397" gradientTransform="matrix(-1, 0, 0, 1, 493.27889, 0)" xlink:href="#linear-gradient-2"/>
    <linearGradient id="linear-gradient-39" x1="256.94735" y1="692.97394" x2="402.47144" y2="692.97394" gradientTransform="matrix(-1, 0, 0, 1, 493.27889, 0)" xlink:href="#linear-gradient-2"/>
    <linearGradient id="linear-gradient-40" x1="-54.21585" y1="636.99933" x2="209.7026" y2="636.99933" gradientTransform="matrix(-1, 0, 0, 1, 493.27889, 0)" xlink:href="#linear-gradient-2"/>
    <linearGradient id="linear-gradient-41" x1="412.87352" y1="437.84329" x2="349.29905" y2="559.3752" xlink:href="#linear-gradient-3"/>
    <linearGradient id="linear-gradient-42" x1="391.13523" y1="426.47178" x2="327.56076" y2="548.0037" xlink:href="#linear-gradient-3"/>
    <linearGradient id="linear-gradient-43" x1="383.70695" y1="422.58598" x2="320.13248" y2="544.1179" xlink:href="#linear-gradient-3"/>
    <linearGradient id="linear-gradient-44" x1="377.15829" y1="523.47525" x2="426.91379" y2="523.47525" gradientTransform="translate(4.12929)" xlink:href="#linear-gradient-2"/>
    <linearGradient id="linear-gradient-45" x1="339.60516" y1="381.88786" x2="425.1517" y2="506.8485" gradientTransform="translate(3.38432)" gradientUnits="userSpaceOnUse">
      <stop offset="0.62595" stop-color="#fff" stop-opacity="0"/>
      <stop offset="1" stop-color="#fff"/>
    </linearGradient>
    <linearGradient id="linear-gradient-46" x1="392.30543" y1="379.52644" x2="363.11394" y2="416.80304" gradientUnits="userSpaceOnUse">
      <stop offset="0" stop-color="#966551"/>
      <stop offset="1" stop-color="#805345"/>
    </linearGradient>
    <linearGradient id="linear-gradient-47" x1="377.72415" y1="368.10777" x2="348.53266" y2="405.38436" xlink:href="#linear-gradient-46"/>
    <linearGradient id="linear-gradient-48" x1="253.50913" y1="697.64237" x2="979.08297" y2="860.50639" gradientTransform="matrix(-1, 0, 0, 1, 1028.40478, 0)" gradientUnits="userSpaceOnUse">
      <stop offset="0.00005" stop-color="#ffb348"/>
      <stop offset="1" stop-color="#e68e2b"/>
    </linearGradient>
    <linearGradient id="linear-gradient-49" x1="535.83664" y1="752.42693" x2="625.97546" y2="793.60945" gradientTransform="matrix(-1, 0, 0, 1, 1028.40478, 0)" xlink:href="#linear-gradient-2"/>
    <linearGradient id="linear-gradient-50" x1="315.56894" y1="625.2581" x2="406.59631" y2="666.84658" gradientTransform="matrix(-1, 0, 0, 1, 1028.40478, 0)" xlink:href="#linear-gradient-2"/>
    <linearGradient id="linear-gradient-51" x1="326.24503" y1="624.65276" x2="642.87089" y2="769.31242" gradientTransform="matrix(-1, 0, 0, 1, 1028.40478, 0)" xlink:href="#linear-gradient-2"/>
    <linearGradient id="linear-gradient-52" x1="321.77056" y1="634.44633" x2="638.39642" y2="779.10599" gradientTransform="matrix(-1, 0, 0, 1, 1028.40478, 0)" xlink:href="#linear-gradient-2"/>
    <linearGradient id="linear-gradient-53" x1="310.7138" y1="698.8994" x2="633.71129" y2="698.8994" gradientTransform="matrix(-1, 0, 0, 1, 1028.40478, 0)" gradientUnits="userSpaceOnUse">
      <stop offset="0" stop-color="#526575"/>
      <stop offset="1" stop-color="#62788c"/>
    </linearGradient>
    <linearGradient id="linear-gradient-54" x1="310.71381" y1="667.70436" x2="633.71127" y2="667.70436" gradientTransform="matrix(-1, 0, 0, 1, 1028.40478, 0)" gradientUnits="userSpaceOnUse">
      <stop offset="0" stop-color="#96b1cc"/>
      <stop offset="1" stop-color="#748ea6"/>
    </linearGradient>
    <linearGradient id="linear-gradient-55" x1="765.53018" y1="700.35629" x2="842.54267" y2="700.35629" xlink:href="#linear-gradient-2"/>
    <linearGradient id="linear-gradient-56" x1="770.97879" y1="627.46662" x2="848.15014" y2="701.76339" xlink:href="#linear-gradient-3"/>
    <linearGradient id="linear-gradient-57" x1="-1856.62689" y1="937.8359" x2="-1814.15217" y2="955.48522" gradientTransform="matrix(-0.94085, 0.33882, 0.33882, 0.94085, -1218.27025, 194.58905)" gradientUnits="userSpaceOnUse">
      <stop offset="0" stop-color="#f2883c"/>
      <stop offset="0.16716" stop-color="#e97d35"/>
      <stop offset="0.67368" stop-color="#d26124"/>
      <stop offset="0.96784" stop-color="#c9571e"/>
    </linearGradient>
    <linearGradient id="linear-gradient-58" x1="1659.30367" y1="-319.10795" x2="1627.30217" y2="-298.74336" gradientTransform="translate(-807.33999 202.80691) rotate(21.53204)" xlink:href="#linear-gradient-57"/>
    <linearGradient id="linear-gradient-59" x1="872.71487" y1="467.28082" x2="818.99114" y2="515.57399" gradientTransform="matrix(1, 0, 0, 1, 0, 0)" xlink:href="#linear-gradient-57"/>
    <linearGradient id="linear-gradient-60" x1="-36.04329" y1="844.46394" x2="-79.77422" y2="872.29272" gradientTransform="translate(637.62157 -330.35948) rotate(-16.16083)" xlink:href="#linear-gradient-57"/>
    <linearGradient id="linear-gradient-61" x1="774.32083" y1="431.65434" x2="800.69783" y2="482.2749" gradientTransform="matrix(1, 0, 0, 1, 0, 0)" xlink:href="#linear-gradient-57"/>
    <linearGradient id="linear-gradient-62" x1="-291.07417" y1="927.99683" x2="-260.52981" y2="986.61505" gradientTransform="translate(676.77176 -493.13739) rotate(-21.26361)" xlink:href="#linear-gradient-57"/>
    <linearGradient id="linear-gradient-63" x1="1770.84592" y1="-721.08773" x2="1813.32063" y2="-703.43842" gradientTransform="matrix(0.87147, 0.49044, -0.49044, 0.87147, -1138.39503, 218.08955)" xlink:href="#linear-gradient-57"/>
    <linearGradient id="linear-gradient-64" x1="523.73836" y1="518.92669" x2="495.97917" y2="567.4523" gradientTransform="matrix(1.03159, -0.09458, 0.10022, 1.01436, 239.34989, -59.0534)" xlink:href="#linear-gradient-57"/>
    <linearGradient id="linear-gradient-65" x1="-995.48437" y1="1001.70109" x2="-1034.86132" y2="1026.75915" gradientTransform="translate(1037.16461 -936.36912) rotate(-35.91139)" xlink:href="#linear-gradient-57"/>
    <linearGradient id="linear-gradient-66" x1="-3290.20346" y1="-180.66116" x2="-3326.46339" y2="-157.58665" gradientTransform="matrix(-0.94244, -0.33439, -0.33439, 0.94244, -2381.1363, -445.86218)" xlink:href="#linear-gradient-57"/>
    <linearGradient id="linear-gradient-67" x1="7307.14233" y1="676.03791" x2="7311.92511" y2="676.03791" gradientTransform="matrix(-0.04492, -0.99899, -0.99899, 0.04492, 1845.13513, 7947.82528)" xlink:href="#linear-gradient-2"/>
    <linearGradient id="linear-gradient-68" x1="764.14561" y1="676.03791" x2="768.92839" y2="676.03791" gradientTransform="translate(31.05819 -33.66425) rotate(2.56788)" xlink:href="#linear-gradient-2"/>
    <linearGradient id="linear-gradient-69" x1="802.74274" y1="696.94638" x2="805.34091" y2="696.94638" xlink:href="#linear-gradient-2"/>
    <linearGradient id="linear-gradient-70" x1="763.34161" y1="656.90348" x2="844.74251" y2="656.90348" xlink:href="#linear-gradient-2"/>
    <linearGradient id="linear-gradient-71" x1="626.54399" y1="136.23187" x2="840.63427" y2="533.0603" gradientTransform="matrix(1, 0, 0, 1, 0, 0)" xlink:href="#linear-gradient-54"/>
    <linearGradient id="linear-gradient-72" x1="795.59389" y1="176.65104" x2="859.67899" y2="195.79997" xlink:href="#linear-gradient-3"/>
    <linearGradient id="linear-gradient-73" x1="794.44989" y1="180.4796" x2="858.535" y2="199.62854" xlink:href="#linear-gradient-3"/>
    <linearGradient id="linear-gradient-74" x1="793.3059" y1="184.30817" x2="857.39101" y2="203.4571" xlink:href="#linear-gradient-3"/>
    <linearGradient id="linear-gradient-75" x1="641.81973" y1="329.72745" x2="677.89884" y2="343.94316" xlink:href="#linear-gradient-3"/>
    <linearGradient id="linear-gradient-76" x1="692.49261" y1="329.72745" x2="728.57171" y2="343.94316" xlink:href="#linear-gradient-3"/>
    <linearGradient id="linear-gradient-77" x1="651.62975" y1="293.661" x2="856.39571" y2="374.34185" xlink:href="#linear-gradient-3"/>
    <linearGradient id="linear-gradient-78" x1="658.43942" y1="276.37824" x2="863.20537" y2="357.05909" xlink:href="#linear-gradient-3"/>
    <linearGradient id="linear-gradient-79" x1="641.81973" y1="398.15298" x2="677.89884" y2="412.36869" xlink:href="#linear-gradient-3"/>
    <linearGradient id="linear-gradient-80" x1="691.64786" y1="405.26083" x2="729.41646" y2="405.26083" xlink:href="#linear-gradient-3"/>
    <linearGradient id="linear-gradient-81" x1="741.82074" y1="405.26083" x2="780.58934" y2="405.26083" xlink:href="#linear-gradient-3"/>
    <linearGradient id="linear-gradient-82" x1="658.43942" y1="344.80377" x2="863.20537" y2="425.48462" xlink:href="#linear-gradient-3"/>
    <linearGradient id="linear-gradient-83" x1="640.97498" y1="287.59575" x2="741.25532" y2="287.59575" xlink:href="#linear-gradient-3"/>
    <linearGradient id="linear-gradient-84" x1="738.23404" y1="242.61645" x2="783.55319" y2="242.61645" xlink:href="#linear-gradient-3"/>
  </defs>
  <g class="cls-2">
    <g>
      <g>
        <path class="cls-3" d="M1662.01676,920.3726,1626.568,1665.75078a67.70885,67.70885,0,0,1-33.789-9.11926L906.51129,1260.627a33.60768,33.60768,0,0,1-16.97974-28.95717V986.45333Z"/>
        <g>
          <path class="cls-4" d="M1662.00724,866.95991l-35.44878,630.89429a67.77231,67.77231,0,0,1-33.75491-9.11926L906.53561,1092.7304a33.72679,33.72679,0,0,1-17.01359-29.50172V932.56442Z"/>
          <path class="cls-5" d="M1662.00724,794.48l-35.44878,630.89429a67.77231,67.77231,0,0,1-33.75491-9.11926L906.53561,1020.25044A33.72679,33.72679,0,0,1,889.522,990.74872V860.08446Z"/>
          <path class="cls-6" d="M2814.85989,561.789,2128.81254,165.83522a68.05493,68.05493,0,0,0-68.05791-.00195L1632.67905,412.635h0L906.526,832.023a33.55458,33.55458,0,0,0-15.95024,20.95072,34.59844,34.59844,0,0,0-1.06335,8.5183,33.708,33.708,0,0,0,17.0143,29.4683L1387.67045,1168.736l205.12238,118.22944a68.00609,68.00609,0,0,0,29.62795,8.97475q2.19927.14231,4.40349.14212a68.00848,68.00848,0,0,0,34.03-9.122L2814.862,620.7224C2837.54209,607.6238,2837.54138,574.88581,2814.85989,561.789Z"/>
        </g>
      </g>
      <path class="cls-7" d="M1578.929,419.4064l16.002-9.41569a170.5627,170.5627,0,0,1,121.55006-20.03189c221.66209,46.572,501.13651,186.82514,576.17363,371.668,54.90469,135.24958,60.84577,225.15036,58.58717,270.47966a87.9128,87.9128,0,0,1-24.57834,56.51252c-163.67434,170.46309-480.91347,345.10827-657.7189,388.29328a85.86254,85.86254,0,0,1-44.29546-.87824c-302.46518-87.75407-625.864-285.14888-757.666-415.39726a87.44591,87.44591,0,0,1-24.10142-80.2693c9.10834-43.24031,25.1561-107.29724,46.15921-142.60156C922.73208,781.13425,1578.929,419.4064,1578.929,419.4064Z"/>
    </g>
  </g>
  <g>
    <g>
      <polygon class="cls-8" points="460.39 81.236 867.036 316.004 867.036 711.22 460.39 476.43 460.39 81.236"/>
      <polygon class="cls-9" points="460.406 81.236 53.759 316.004 53.759 711.22 460.406 476.43 460.406 81.236"/>
    </g>
    <path class="cls-10" d="M60.7764,723.3864,439.357,941.95037a42.10144,42.10144,0,0,0,42.10111-.00062L860.01929,723.38232a14.03381,14.03381,0,0,0,.00017-24.307L481.4417,480.49136a42.10142,42.10142,0,0,0-42.10407.00053L60.77558,699.07933A14.03382,14.03382,0,0,0,60.7764,723.3864Z"/>
  </g>
  <path class="cls-11" d="M424.94223,488.47071l164.49642,94.95341a10.66364,10.66364,0,0,1,.00364,18.46846h0L257.46151,793.66222a31.98984,31.98984,0,0,1-31.99826.00242L60.8941,698.64517Z"/>
  <g>
    <g>
      <path class="cls-12" d="M435.43862,452.18245,92.08956,650.41205l-11.46525-6.61724V336.9707L423.97338,138.7296l11.46524-2.15873Z"/>
      <polygon class="cls-13" points="431.597 142.041 427.656 144.316 427.661 446.752 88.254 642.696 88.255 647.101 431.597 448.882 431.597 142.041"/>
      <path class="cls-14" d="M76.76644,333.64725v333.352L443.0854,455.515V122.14244Zm11.48824,6.63259L431.59716,142.04113l0,306.84092L88.25468,647.10143Z"/>
    </g>
    <polygon class="cls-15" points="316.192 511.104 311.192 513.991 311.192 211.575 316.192 208.688 316.192 511.104"/>
    <polygon class="cls-16" points="204.723 575.457 199.723 578.343 199.723 275.927 204.723 273.041 204.723 575.457"/>
    <g>
      <g>
        <path class="cls-17" d="M142.3527,335.66853V644.08324a2.17528,2.17528,0,0,1-2.69,2.1l-13.19995-3.28-7.76-1.93006a.335.335,0,0,0-.32006.06l-1.08008-.31994V331.88364l23.31006,5.9249Z"/>
        <path class="cls-18" d="M126.4628,344.78852V653.4132a2.005,2.005,0,0,1-.3601,1.04,2.13016,2.13016,0,0,1-2.32007.9l-20.97-5.21a.35592.35592,0,0,0-.40992.16.36824.36824,0,0,0-.02.4l-.97-.26V340.52851l23.31006,5.5Z"/>
        <polygon class="cls-19" points="100.554 342.096 100.554 353.378 108.589 355.038 109.44 353.761 100.554 342.096"/>
        <path class="cls-20" d="M110.58268,354.10853V662.58324a2.2385,2.2385,0,0,1-.35987,1.04,2.13718,2.13718,0,0,1-1.79.97,2.00289,2.00289,0,0,1-.54-.07l-21.69-5.4a.88433.88433,0,0,1-.67993-.86V349.84852l23.30982,5.5Z"/>
        <polygon class="cls-19" points="116.437 332.925 116.437 344.207 124.472 345.867 125.323 344.59 116.437 332.925"/>
        <polygon class="cls-19" points="131.621 323.236 131.621 334.519 140.507 336.814 141.472 335.618 131.621 323.236"/>
        <path class="cls-21" d="M108.4315,356.19235a2.23455,2.23455,0,0,1-.53634-.0661l-21.69444-5.404a.88879.88879,0,0,1,.42908-1.725l21.69443,5.404a.38828.38828,0,0,0,.40538-.60931l-7.74139-10.37631a2.16559,2.16559,0,0,1,2.25824-3.397l20.96093,5.21279a.38817.38817,0,0,0,.40475-.60931l-7.74139-10.37631a2.16579,2.16579,0,0,1,2.25887-3.397l20.9603,5.21279a.38823.38823,0,0,0,.40537-.609l-8.6979-11.649a.88858.88858,0,1,1,1.42442-1.0627l8.6979,11.64868a2.16588,2.16588,0,0,1-2.25887,3.397l-20.9603-5.21279a.38837.38837,0,0,0-.40537.60931l7.74139,10.37631a2.16568,2.16568,0,0,1-2.25825,3.397l-20.96092-5.21279a.364.364,0,0,0-.41722.16152.36861.36861,0,0,0,.01247.44778l7.74139,10.37632a2.16761,2.16761,0,0,1-1.72253,3.46313Z"/>
      </g>
      <g>
        <path class="cls-22" d="M451.34808,156.89676V465.31147a2.17526,2.17526,0,0,1-2.68994,2.1l-13.19995-3.28-7.76-1.93006a.33505.33505,0,0,0-.32007.06l-1.08008-.31994V153.11187l23.31006,5.9249Z"/>
        <path class="cls-23" d="M435.45819,166.01675V474.64143a2.005,2.005,0,0,1-.36011,1.04,2.13014,2.13014,0,0,1-2.32006.9l-20.97-5.21a.35591.35591,0,0,0-.40991.16.36824.36824,0,0,0-.02.4l-.97-.26V161.75674l23.31006,5.5Z"/>
        <polygon class="cls-19" points="409.55 163.324 409.55 174.607 417.584 176.266 418.435 174.99 409.55 163.324"/>
        <path class="cls-24" d="M419.57806,175.33676V483.81147a2.23848,2.23848,0,0,1-.35986,1.04,2.13721,2.13721,0,0,1-1.79.97,2.003,2.003,0,0,1-.54-.07l-21.68994-5.4a.88433.88433,0,0,1-.67993-.86V171.07675l23.30981,5.5Z"/>
        <polygon class="cls-19" points="425.433 154.153 425.433 165.436 433.468 167.095 434.319 165.819 425.433 154.153"/>
        <polygon class="cls-19" points="440.616 144.465 440.616 155.747 449.502 158.043 450.467 156.846 440.616 144.465"/>
        <path class="cls-21" d="M417.42689,177.42058a2.23455,2.23455,0,0,1-.53634-.0661l-21.69444-5.404a.88879.88879,0,0,1,.42907-1.725l21.69444,5.404a.38828.38828,0,0,0,.40537-.60931l-7.74138-10.37631a2.16559,2.16559,0,0,1,2.25824-3.397l20.96092,5.21279a.38816.38816,0,0,0,.40475-.60931L425.86614,155.474a2.16579,2.16579,0,0,1,2.25886-3.397l20.9603,5.21279a.38823.38823,0,0,0,.40538-.609l-8.6979-11.649a.88858.88858,0,1,1,1.42442-1.0627l8.6979,11.64868a2.16588,2.16588,0,0,1-2.25887,3.397l-20.9603-5.21279a.38837.38837,0,0,0-.40537.60931l7.74138,10.37631a2.16568,2.16568,0,0,1-2.25824,3.397l-20.96092-5.21279a.364.364,0,0,0-.41722.16152.36861.36861,0,0,0,.01247.44778l7.74138,10.37632a2.1676,2.1676,0,0,1-1.72252,3.46313Z"/>
      </g>
    </g>
    <g>
      <path class="cls-25" d="M439.10045,138.71566v6.03442l-14.83479,8.56338v-6.91923a3.36189,3.36189,0,0,1,1.68117-2.91161l10.70616-6.18013A1.63171,1.63171,0,0,1,439.10045,138.71566Z"/>
      <path class="cls-26" d="M96.69619,336.66738v6.03443l-14.83478,8.56338V344.346a3.36188,3.36188,0,0,1,1.68116-2.91161l10.70616-6.18013A1.63171,1.63171,0,0,1,96.69619,336.66738Z"/>
      <path class="cls-27" d="M446.836,145.26,84.20976,354.66509l-3.92587-6.7998L442.9233,138.4526l.00179.0031a1.97732,1.97732,0,0,1,1.95074.20783,6.13752,6.13752,0,0,1,2.78517,4.8041A1.92625,1.92625,0,0,1,446.836,145.26Z"/>
      <ellipse class="cls-26" cx="82.24682" cy="351.26519" rx="2.26305" ry="3.92587" transform="translate(-164.61361 88.18402) rotate(-30)"/>
    </g>
  </g>
  <g>
    <g>
      <path class="cls-28" d="M520.16142,552.971c-3.01623-7.35936-14.45729-12.84232-28.14558-12.84232s-25.12935,5.483-28.14547,12.84232h-.80312v3.845c0,9.21615,12.96068,16.6873,28.94859,16.6873s28.9487-7.47115,28.9487-16.6873v-3.845Z"/>
      <ellipse class="cls-29" cx="492.01589" cy="552.40466" rx="28.94866" ry="16.68735"/>
    </g>
    <path class="cls-30" d="M488.22274,303.42159V548.94286c0,1.20759,1.69824,2.18654,3.79315,2.18654s3.79316-.979,3.79316-2.18654V303.42159Z"/>
    <path class="cls-31" d="M453.08321,265.79041v35.68916c0,12.35745,17.4307,22.37511,38.93271,22.37511s38.93271-10.01766,38.93271-22.37511V265.79041Z"/>
    <path class="cls-32" d="M452.56086,259.69364v36.168c0,12.52324,17.66456,22.6753,39.45506,22.6753s39.45506-10.15206,39.45506-22.6753v-36.168Z"/>
    <g>
      <ellipse class="cls-19" cx="492.01589" cy="259.69376" rx="39.45507" ry="22.67533"/>
      <path class="cls-33" d="M483.50774,280.0706a38.51767,38.51767,0,0,0,17.0162,0V267.8919h-17.0162Z"/>
      <ellipse class="cls-34" cx="492.01589" cy="267.89195" rx="8.50814" ry="4.90449"/>
      <path class="cls-21" d="M492.01588,238.9631c20.68329,0,37.51019,9.29969,37.51019,20.7306s-16.8269,20.73076-37.51019,20.73076-37.5102-9.29985-37.5102-20.73076,16.8269-20.7306,37.5102-20.7306m0-1.9447c-21.79034,0-39.45506,10.15211-39.45506,22.6753,0,12.52335,17.66472,22.67546,39.45506,22.67546s39.45506-10.15211,39.45506-22.67546c0-12.52319-17.66473-22.6753-39.45506-22.6753Z"/>
    </g>
  </g>
  <g>
    <g>
      <path class="cls-35" d="M592.83088,498.38723V581.607a10.40872,10.40872,0,0,1-5.24372,9.04533l-17.8405,10.20135-3.92082,2.25242a1.29986,1.29986,0,0,1-.17872.09536,11.72443,11.72443,0,0,1-6.0541,1.4539V517.39562a22.59292,22.59292,0,0,0-11.30967-19.56847l-140.06612-80.586L441.467,398.2328l140.066,80.586A22.5675,22.5675,0,0,1,592.83088,498.38723Z"/>
      <path class="cls-36" d="M559.593,517.39562v87.25972a11.799,11.799,0,0,1-6.04217-1.871l-2.026-1.299L408.21723,509.387V417.24111l140.06612,80.586A22.59292,22.59292,0,0,1,559.593,517.39562Z"/>
    </g>
    <path class="cls-37" d="M547.51857,598.899,264.9314,761.75131,125.37779,671.55986l55.55927-32.058L408.07218,508.43345l134.77476,15.79066a21.69549,21.69549,0,0,1,1.56119,2.34771,23.00429,23.00429,0,0,1,3.08665,11.52425Z"/>
    <path class="cls-38" d="M544.40813,526.57182,264.89568,687.98211l-83.95862-48.48028-42.28326-24.4189L421.36019,451.95652l112.45328,64.93831,2.19285,1.26325.01193.01193a22.85268,22.85268,0,0,1,6.82869,6.0541A21.69549,21.69549,0,0,1,544.40813,526.57182Z"/>
    <polygon class="cls-39" points="319.416 561.273 401.997 608.817 409.432 604.524 328.125 556.211 319.416 561.273"/>
    <path class="cls-40" d="M449.7648,403.1248l-.72557-.83017a32.73381,32.73381,0,0,0-20.77855-10.964l-16.23974-1.9331a20.41159,20.41159,0,0,0-12.461,2.50147l-95.443,54.95738a37.451,37.451,0,0,0-17.67946,41.25953l16.50029,68.095,31.32395,3.64677Z"/>
    <path class="cls-41" d="M334.26171,559.85768l-16.50029-68.095a37.45093,37.45093,0,0,1,17.67946-41.25954l88.9132-51.27505a20.54321,20.54321,0,0,1,30.2325,12.95444l16.6403,68.67269Z"/>
    <polygon class="cls-42" points="334.262 559.858 471.227 480.855 468.628 470.133 331.669 549.161 334.262 559.858"/>
    <path class="cls-43" d="M304.09055,487.18892l-.72557-.83017a32.73389,32.73389,0,0,0-20.77855-10.964l-16.23974-1.93309a20.41159,20.41159,0,0,0-12.46105,2.50147l-95.443,54.95738A37.451,37.451,0,0,0,140.76322,572.18l16.50029,68.095Z"/>
    <path class="cls-44" d="M188.58746,643.9218l-16.50029-68.095a37.4509,37.4509,0,0,1,17.67945-41.25953l88.91321-51.275a20.5432,20.5432,0,0,1,30.23249,12.95444l16.64031,68.67268Z"/>
    <polygon class="cls-45" points="188.587 643.922 325.553 564.919 322.954 554.197 185.995 633.225 188.587 643.922"/>
    <path class="cls-46" d="M283.43927,678.10255v83.24353a10.40172,10.40172,0,0,1-5.21986,9.02154l-.61973.34565-19.02032,10.88059c-.01185.01193-.02378.01193-.03571.02386a16.8857,16.8857,0,0,1-8.34223,2.19285V697.11093a22.60757,22.60757,0,0,0-11.30968-19.56854L100.75625,598.07667a14.42176,14.42176,0,0,1,5.19607-5.31515.01166.01166,0,0,1,.01186-.01193l8.22308-4.86235,26.576-15.70722,3.02709,12.51335,128.35115,73.8407A22.56752,22.56752,0,0,1,283.43927,678.10255Z"/>
    <path class="cls-47" d="M250.20142,697.11093v86.69964a16.72336,16.72336,0,0,1-8.2588-2.18092l-15.73109-9.0454-118.70995-68.299a17.34728,17.34728,0,0,1-8.676-15.016V605.33444a14.651,14.651,0,0,1,1.93063-7.25777l138.13549,79.46572A22.60757,22.60757,0,0,1,250.20142,697.11093Z"/>
    <path class="cls-48" d="M107.37346,617.84183V704.2852c0,1.13822-1.60083,2.0609-3.57524,2.0609s-3.57524-.92268-3.57524-2.0609V617.84183Z"/>
    <path class="cls-49" d="M92.73091,608.957l6.09461-3.49726v5.39632L224.2104,682.98789a24.296,24.296,0,0,1,12.12114,20.97429v74.465c0,1.13821-1.60054,2.061-3.57524,2.061-1.97441,0-3.57524-.92276-3.57524-2.061v-74.465a17.12171,17.12171,0,0,0-8.54125-14.7793L98.82552,619.106l-6.0981-3.50811A3.82941,3.82941,0,0,1,92.73091,608.957Z"/>
    <polygon class="cls-50" points="547.495 565.568 283.576 717.788 283.576 708.431 547.495 556.211 547.495 565.568"/>
  </g>
  <g>
    <g>
      <g>
        <g>
          <path class="cls-51" d="M426.60063,657.32515s-6.63666,15.79779-3.99861,20.41831,8.31788,4.94372,15.59217,7.79609,13.41142,7.24568,25.81819,5.87237,12.76414-9.13468,9.21229-14.45811l-7.86955-.32407-10.455-4.45491L443.047,661.303Z"/>
          <path class="cls-52" d="M426.8381,654.61628s-6.44,15.32955-3.8801,19.81313,8.07134,4.7972,15.13,7.565,13.01392,7.03093,25.053,5.69832,14.00018-11.544,5.89481-13.45983l-4.59188-.88422-8.9541-6.28052-8.74945-9.743Z"/>
          <path class="cls-51" d="M470.14494,674.60077c-7.617-.78723-14.91489,2.21007-17.29787,13.617l-13.92476-4.4751c.31112-11.95857,11.70886-20.46533,17.07576-17.8711Z"/>
        </g>
        <g>
          <path class="cls-51" d="M406.12668,710.16159s-1.95258,9.37144-1.45805,13.92154c.62491,5.74977,1.92253,8.78768,1.9442,12.55958.05833,10.14876,2.858,17.68665,10.14394,21.82524,14.81855,8.41731,23.78118-2.247,21.24351-10.47107l-4.99985-10.39524L424.5697,710.078Z"/>
          <path class="cls-52" d="M406.12668,705.7288s-1.26131,12.04873-.69286,16.59018c.7124,5.69145,2.25216,10.376,2.77326,14.16819s.15554,12.05409,7.38314,16.83427c14.21466,9.40127,25.86282.27476,21.35226-8.6686l-3.942-11.484-8.43073-27.52368Z"/>
          <path class="cls-51" d="M435.93264,741.711c-6.34089-5.50381-18.34089-4.45062-27.45341,4.73058L407.235,734.93181c4.13279-11.86067,20.92-12.54063,24.56056-5.69655Z"/>
        </g>
      </g>
      <g>
        <g>
          <path class="cls-53" d="M454.45307,540.54117,393.602,531.43478l-10.967,55.60873,47.32745,5.75893-4.55879,47.87748c0,17.3617,26.86131,17.70222,30.18046,5.44681l25.252-57.926C487.34062,562.05938,479.47435,543.605,454.45307,540.54117Z"/>
          <path class="cls-53" d="M403.73788,703.85013l2.0049,7.78472c2.09663,6.44933,19.90516,4.81364,19.90516-2.3591l-1.11788-11.93626Z"/>
          <path class="cls-51" d="M417.54494,605.56244c-6.08331-17.51616-27.13552-36.27178-27.13552-36.27178l10.6856-37.15738-13.1884-6.77431-67.38636,9.79153s-4.71473,50.46386,14.80851,66.9745l35.45866,31.80673,26.90305,67.42374c4.25925,14.9781,31.11217,8.51064,29.78723-5.67384C427.47771,695.68163,423.62824,623.07861,417.54494,605.56244Z"/>
          <path class="cls-54" d="M317.79686,532.09169l1.00943,15.31163s-.96272,10.30814,18.6998,17.05965,37.43455,2.05225,48.20566-5.48518c5.50157-3.84989,11.65958-10.383,13.99318-17.00681,1.49823-4.25267,1.377-7.95214.51746-12.44l-1.31915-5.02127Z"/>
          <path class="cls-55" d="M401.44789,428.87141c-11.31232-15.9231-25.306-14.41577-25.306-14.41577l3.70265,32.52788,18.18662,55.73895s4.1552,9.93967,10.003,11.64005,11.32957,1.14645,15.72713-4.23579c4.04626-4.95229,3.44736-12.54242.16321-24.16877S407.76538,437.76384,401.44789,428.87141Z"/>
          <path class="cls-56" d="M394.971,493.34354l3.06018,9.3789a34.81347,34.81347,0,0,0,1.93891,3.78076h3.27416l-2.76507-59.72876Z"/>
          <circle class="cls-54" cx="411.33908" cy="503.10545" r="9.82979"/>
          <path class="cls-57" d="M315.04275,527.42109,309.652,465.33442c3.32966-17.02578,27.97462-41.33535,42.54066-47.12294,15.67673-6.2289,26.897-5.08482,32.90233-1.872a30.69572,30.69572,0,0,1,15.34714,23.99757c.83891,8.14834-3.23405,43.662-3.23405,43.662l2.5532,36.7234c-.51224,34.30836-42.38066,48.86494-74.49973,27.36832C319.04882,543.93271,315.04275,527.42109,315.04275,527.42109Z"/>
          <path class="cls-56" d="M371.03149,513.27859l-29.66235-2.04248L337.54157,481.616l-22.37445,46.29394c.715,2.74805,4.5133,16.44556,10.09448,20.18091a61.47053,61.47053,0,0,0,9.65985,5.28442l40.11-11.11795C384.60205,539.72045,379.88256,513.53391,371.03149,513.27859Z"/>
          <path class="cls-58" d="M334.86069,516.22713l2.68085-34.611c1.2766-27.91489-25.3617-34.7234-28.25532-14.34043-3.75368,26.44137-2.83532,55.09393-2.43893,62.2491s5.326,17.67146,17.31026,17.68065c22.14995.017,49.61509-8.22762,49.61509-8.22762,6.72546-2.46808,5.1306-22.75066-2.74174-22.75066Z"/>
        </g>
        <path class="cls-53" d="M428.09473,640.67992l-1.65015,14.30428c-.66841,5.64546,18.99117,9.69865,21.30975,3.22759l5.19147-14.38293Z"/>
        <g>
          <path class="cls-54" d="M345.15049,423.25665c-2.82942,6.88881.10683,14.23149,8.93448,22.62365,8.5029,8.08344,22.89316,15.00175,22.89316,15.00175a54.03567,54.03567,0,0,0,4.189-24.76425c-.87269-10.86261-4.18473-16.88842-13.65108-20.47791C357.52688,411.85216,347.99217,416.338,345.15049,423.25665Z"/>
          <path class="cls-59" d="M349.88521,423.063c-1.5104,4.80176.06808,10.47428,8.33736,17.54189a66.15812,66.15812,0,0,0,15.95167,10.17146s2.62109-5.85129,2.16563-15.63821c-.44353-9.53054-2.49288-14.52306-11.471-17.153C356.28938,415.47193,350.98336,419.39936,349.88521,423.063Z"/>
          <path class="cls-52" d="M375.77235,429.6219c-1.08183-6.03562-3.851-9.5708-10.90337-11.63668-8.5795-2.51349-13.88549,1.41418-14.98372,5.07762a11.31245,11.31245,0,0,0,.91456,8.792,20.20308,20.20308,0,0,0,6.11179,4.41794c7.60788,3.60123,15.75021,1.99183,18.18642-3.595A8.3817,8.3817,0,0,0,375.77235,429.6219Z"/>
          <path class="cls-60" d="M373.70079,426.56232c-1.11109,10.62906-23.1088,4.82737-21.56377-4.78984L354.32631,403.04l20.30761,6.389Z"/>
        </g>
      </g>
    </g>
    <g>
      <g>
        <path class="cls-61" d="M415.955,532.677l-31.3874-2.81924a3.59725,3.59725,0,0,1-1.844-6.455l11.16441-8.41861a3.59724,3.59724,0,0,1,2.48762-.71063l31.38739,2.81924a3.59726,3.59726,0,0,1,1.844,6.455l-11.1644,8.4186A3.59726,3.59726,0,0,1,415.955,532.677Z"/>
        <polygon class="cls-62" points="428.291 517.769 410.04 324.024 267 426.694 379.326 525.916 428.291 517.769"/>
        <polygon class="cls-63" points="413.187 529.159 380.974 526.265 396.078 514.875 428.291 517.769 413.187 529.159"/>
      </g>
      <path class="cls-54" d="M381.8075,518.09848c5.7746-.455,6.57447,14.02127,2.07447,15.29421l-9.76271,2.043c-7.55644,1.7549-8.833-16.543-1.19537-16.82031Z"/>
      <path class="cls-52" d="M381.95934,519.34318l6.69432-1.57922a16.06653,16.06653,0,0,1,4.34238-.41592l9.99387.40685c2.34654.14438,2.472,3.4545-.49675,4.17506l-2.17813.40782a2.0935,2.0935,0,0,0-1.3734,3.19343l2.49235,3.85956a5.3695,5.3695,0,0,0,3.72071,2.24743l4.94233.51264s-7.24973,5.12525-11.7961,4.67588c-6.18744-.61158-17.11349-4.67747-17.11349-4.67747C377.37647,531.20594,377.04934,520.37221,381.95934,519.34318Z"/>
      <path class="cls-52" d="M418.41816,503.89334c0,5.42884-3.57,7.06932-6.22623,7.15443a45.34157,45.34157,0,0,1-7.04587-.68085l-3.03926,5.74c-.76594,2.13231-3.72339,1.66422-3.48932-.5957,0,0,.63778-9.79272.851-11.56986.6383-5.31915,3.40828-8.4149,8.83712-8.4149S418.41816,498.4645,418.41816,503.89334Z"/>
    </g>
    <g>
      <path class="cls-64" d="M387.82961,380.15939c1.50957,7.42473.25679,15.46883-6.50059,23.71606l-4.40747-15.05287Z"/>
      <path class="cls-52" d="M367.73985,425.76394c-10.88607-2.50889-16.66295-8.36833-17.27751-18.61022l-1.2925-22.14484c-.771-8.91876,7.222-17.36712,17.63275-17.35871,9.09884.00735,18.48406,7.53375,18.4808,17.61331a203.73927,203.73927,0,0,1-1.60888,22.28138C382.23532,417.38887,377.63292,428.044,367.73985,425.76394Z"/>
      <path class="cls-65" d="M375.35693,367.824c8.57232,2.65842,15.92773,8.57114,14.01322,17.754-1.59124,7.63227-12.01654,8.22146-27.66215,3.49568l.41647,4.02a1.86907,1.86907,0,0,1-1.1352,1.91577l-1.05415.44286a1.29078,1.29078,0,0,0-.76412,1.47351,14.60676,14.60676,0,0,1,.10769,6.54139c-.46258,1.71837-2.65613,1.83266-2.65613,1.83266l-4.099,13.14358c-2.185-5.13-3.11375-5.935-7.903-17.07415-3.50591-8.15431-6.02822-18.95033,2.59147-27.70821C353.53836,367.23336,364.96341,364.6008,375.35693,367.824Z"/>
      <path class="cls-52" d="M353.96684,412.75955c-3.70327.1138-6.97958-4.96123-7.10872-9.16353s3.40066-7.85072,6.64107-6.05435C357.567,399.79671,357.67012,412.64574,353.96684,412.75955Z"/>
    </g>
  </g>
  <g>
    <path class="cls-66" d="M333.17487,789.51376l297.6849-171.89417a30.43408,30.43408,0,0,1,30.4343-.00184l118.71714,68.53249a10.14469,10.14469,0,0,1,.0025,17.57025L482.37123,875.655a30.43409,30.43409,0,0,1-30.4418.00248L333.17487,807.08422A10.14469,10.14469,0,0,1,333.17487,789.51376Z"/>
    <path class="cls-19" d="M394.35777,778.67046,612.07791,652.95087a17.12182,17.12182,0,0,1,17.12194-.001l89.62893,51.74057a5.70727,5.70727,0,0,1,.0014,9.88479l-217.69,125.74959a17.1218,17.1218,0,0,1-17.12615.00139l-89.65627-51.77081A5.70727,5.70727,0,0,1,394.35777,778.67046Z"/>
    <g>
      <path class="cls-67" d="M492.88316,758.478v75.27714a3.26612,3.26612,0,0,1-4.8985,2.82892L404.833,788.60277a9.79833,9.79833,0,0,1-4.90118-8.48677V709.60544"/>
      <path class="cls-68" d="M713.15086,631.30916v75.27713a3.26612,3.26612,0,0,1-4.8985,2.82893L621.83328,659.5485a3.26609,3.26609,0,0,1-1.63373-2.82892v-74.283"/>
      <g>
        <g>
          <path class="cls-69" d="M397.01248,707.199v14.30238a5.31839,5.31839,0,0,0,2.68239,4.78269l84.36487,48.7173a16.021,16.021,0,0,0,8.82342,2.13451V685.79676Z"/>
          <path class="cls-70" d="M492.88316,685.79676v91.33913a16.05724,16.05724,0,0,0,7.2939-2.13451L712.79564,652.21521a5.31253,5.31253,0,0,0,2.671-4.77127h.01143V636.10925Z"/>
        </g>
        <g>
          <path class="cls-71" d="M717.691,631.32654l-.00579,4.95779a5.52827,5.52827,0,0,1-2.78469,4.92724L501.94481,764.22635a16.74934,16.74934,0,0,1-16.75366.00136l-87.70643-50.64489a5.52641,5.52641,0,0,1-2.78775-4.779l-.00348-5.18013Z"/>
          <path class="cls-72" d="M397.48477,699.03966,610.4699,576.05424a16.74944,16.74944,0,0,1,16.74956-.001l87.67966,50.61531a5.58315,5.58315,0,0,1,.00138,9.66981L501.94486,759.35311a16.74942,16.74942,0,0,1-16.75368.00137l-87.70641-50.64489A5.58315,5.58315,0,0,1,397.48477,699.03966Z"/>
        </g>
      </g>
    </g>
  </g>
  <g>
    <g class="cls-73">
      <ellipse class="cls-11" cx="804.03647" cy="699.08954" rx="36.30205" ry="20.86325"/>
    </g>
    <g>
      <path class="cls-74" d="M804.03651,682.36019c18.63164,0,34.37227,8.24122,34.37227,17.99615,0,9.75484-15.74063,17.996-34.37227,17.996-18.6318,0-34.37243-8.24121-34.37243-17.996,0-9.75493,15.74063-17.99615,34.37243-17.99615m0-4.13389c-21.26645,0-38.50633,9.90791-38.50633,22.13,0,12.222,17.23988,22.13,38.50633,22.13,21.26629,0,38.50616-9.90791,38.50616-22.13,0-12.22213-17.23987-22.13-38.50616-22.13Z"/>
      <g>
        <g>
          <path class="cls-75" d="M767.73436,628.10953v56.60706c0,11.52251,16.25319,20.86335,36.30215,20.86335,20.04912,0,36.30215-9.34084,36.30215-20.86335V628.10953Z"/>
          <ellipse class="cls-19" cx="804.03647" cy="628.10959" rx="36.30205" ry="20.86325"/>
          <path class="cls-76" d="M835.532,638.475c-6.265,6.29431-18.03789,10.49057-31.50121,10.49057s-25.23555-4.19626-31.50121-10.49057c3.99261-7.80967,16.58086-13.5213,31.50121-13.5213S831.53935,630.66531,835.532,638.475Z"/>
          <path class="cls-21" d="M804.03651,611.1436c17.56512,0,32.40473,7.76948,32.40473,16.966,0,9.19646-14.83961,16.96593-32.40473,16.96593-17.56528,0-32.40489-7.76947-32.40489-16.96593,0-9.19653,14.83961-16.966,32.40489-16.966m0-3.89726c-20.04912,0-36.30215,9.34076-36.30215,20.86327,0,11.52243,16.253,20.86319,36.30215,20.86319,20.049,0,36.302-9.34076,36.302-20.86319,0-11.52251-16.253-20.86327-36.302-20.86327Z"/>
        </g>
        <g>
          <path class="cls-77" d="M815.18465,478.566c13.34608-4.96792,39.23255-19.24667,31.442-28.30642S814.26832,458.204,815.18465,478.566Z"/>
          <path class="cls-76" d="M801.309,635.649c-.74048,0-1.64722-1.22163-1.64722-2.64734,0-69.64876-6.27572-114.98827-21.7041-151.7633a4.38309,4.38309,0,0,1,.20044-3.6283c.57593-.89822,1.41925-.72633,1.88533.38592,15.845,37.76932,22.606,84.14509,22.606,155.07294C802.64948,634.49463,802.04949,635.649,801.309,635.649Z"/>
          <path class="cls-76" d="M807.3208,635.649c-.74048,0-1.34048-1.15438-1.34048-2.58008,0-65.59916,0-155.442,17.11414-196.2363.46565-1.11225,1.30941-1.28246,1.8849-.38592a4.38142,4.38142,0,0,1,.20087,3.6283c-16.519,39.377-16.519,128.16322-16.519,192.99392C808.66127,634.49463,808.06127,635.649,807.3208,635.649Z"/>
          <path class="cls-76" d="M807.951,565.2301c-.691,0-1.27746-1.02125-1.33479-2.36943-2.22318-52.46113-8.12862-88.11717-18.585-112.20918a4.39738,4.39738,0,0,1,.16893-3.635c.56892-.91508,1.414-.7651,1.88795.32525,10.82884,24.94979,16.92947,61.52428,19.20035,115.09766.06,1.42064-.48927,2.66771-1.22713,2.78231A.614.614,0,0,1,807.951,565.2301Z"/>
        </g>
        <path class="cls-76" d="M807.3221,585.64a.68114.68114,0,0,1-.09672-.00619c-.73873-.09288-1.03818-1.27291-.98523-2.5779,1.66827-41.28444,11.8145-84.82083,28.46913-88.23888.73172-.15171,1.40043.7802,1.48577,2.08055.08534,1.30189-.44157,2.4784-1.1768,2.62856-15.20606,3.12083-24.771,44.57555-26.36049,83.91256C808.60743,584.68794,808.01881,585.64,807.3221,585.64Z"/>
        <path class="cls-78" d="M816.29726,523.80033c13.20478,3.29564,41.01875,3.44319,39.77323-7.908S826.57777,507.25443,816.29726,523.80033Z"/>
        <path class="cls-79" d="M821.17121,515.28292c22.19432-5.946,63.38047-28.50168,52.24739-44.24116S822.8022,482.4366,821.17121,515.28292Z"/>
        <path class="cls-80" d="M805.42969,531.22091c17.03239-7.46937,47.23183-30.54933,36.40067-41.78311S802.72168,504.73956,805.42969,531.22091Z"/>
        <path class="cls-81" d="M800.48988,486.11464c-16.12626-12.06682-42.29979-43.836-28.11361-53.01983S809.85909,458.85188,800.48988,486.11464Z"/>
        <path class="cls-82" d="M793.1717,525.02525c-22.47033-6.24968-64.05739-29.54188-52.60508-45.4103S791.83338,491.66974,793.1717,525.02525Z"/>
        <path class="cls-83" d="M784.08438,493.60881c-12.33509-7.11644-35.48915-25.498-26.30155-33.13732S788.3713,473.68213,784.08438,493.60881Z"/>
        <path class="cls-84" d="M808.99937,472.71806c15.776-14.07712,41.36762-46.12131,25.46039-54.276S796.321,445.34356,808.99937,472.71806Z"/>
        <path class="cls-85" d="M803.09612,503.02648c12.16159-11.51268,30.73183-40.2613,18.13455-46.48584S792.7434,481.40841,803.09612,503.02648Z"/>
        <path class="cls-86" d="M805.10109,519.16054c-13.73353-7.01386-37.60381-27.59159-28.09033-36.3614S808.635,497.37351,805.10109,519.16054Z"/>
      </g>
      <rect class="cls-87" x="817.02405" y="674.73878" width="48.81683" height="2.59826" transform="translate(128.27949 1486.25312) rotate(-87.42538)"/>
      <rect class="cls-88" x="765.23787" y="651.6295" width="2.59826" height="48.81683" transform="translate(-29.51875 35.02194) rotate(-2.56788)"/>
      <rect class="cls-89" x="802.74274" y="672.73374" width="2.59818" height="48.42528"/>
      <path class="cls-90" d="M840.33858,639.91789v10.09394a4.45417,4.45417,0,0,1,0,.96131c-.49366,10.10687-16.91415,18.55094-36.29644,18.55094-19.38245,0-35.81594-8.44407-36.3096-18.55094a4.48158,4.48158,0,0,1,0-.96131V639.9309a14.9131,14.9131,0,0,0,0,21.13618c6.70334,7.61264,20.44779,12.822,36.3096,12.822,15.84881,0,29.58026-5.20935,36.29644-12.80906a14.9132,14.9132,0,0,0,0-21.16212Z"/>
    </g>
  </g>
  <g>
    <g>
      <path class="cls-91" d="M735.86768,171.85192a191.74871,191.74871,0,1,1-74.88721,15.113,191.17954,191.17954,0,0,1,74.88721-15.113m0-17.54224c-115.95069,0-209.94727,93.99658-209.94727,209.94751,0,115.95068,93.99658,209.94726,209.94727,209.94726s209.94775-93.99658,209.94775-209.94726c0-115.95093-93.99707-209.94751-209.94775-209.94751Z"/>
      <circle class="cls-92" cx="735.86783" cy="364.25713" r="194.19259"/>
      <path class="cls-9" d="M930.0615,364.25533a194.17512,194.17512,0,1,1-71.04618-150.16185A193.7854,193.7854,0,0,1,930.0615,364.25533Z"/>
    </g>
    <path class="cls-93" d="M859.01532,171.308V514.41708a194.22451,194.22451,0,0,1-246.29344,0V171.308a31.54872,31.54872,0,0,1,31.55862-31.55851H827.45681A31.55986,31.55986,0,0,1,859.01532,171.308Z"/>
    <path class="cls-94" d="M850.09974,199.33618V517.60485a180.163,180.163,0,0,1-228.46228,0V199.33618a29.26466,29.26466,0,0,1,29.27384-29.27375H820.826A29.275,29.275,0,0,1,850.09974,199.33618Z"/>
    <g>
      <circle class="cls-91" cx="916.21747" cy="249.15712" r="62.02326"/>
      <g>
        <rect class="cls-63" x="895.16068" y="240.51489" width="13.46241" height="40.4658" transform="translate(79.78149 714.10513) rotate(-45)"/>
        <rect class="cls-63" x="921.37151" y="223.33402" width="13.46241" height="60.59444" transform="translate(1405.02606 1089.24333) rotate(-135)"/>
      </g>
    </g>
  </g>
  <path class="cls-95" d="M820.82593,170.06236H650.91138a29.27393,29.27393,0,0,0-29.27393,29.27393V448.10967A17.14557,17.14557,0,0,0,638.783,465.25524H832.95416a17.14557,17.14557,0,0,0,17.14557-17.14557V199.33629A29.275,29.275,0,0,0,820.82593,170.06236Z"/>
  <rect class="cls-94" x="713.71327" y="451.38298" width="44.31064" height="5.68085" rx="2.84042"/>
  <rect class="cls-96" x="638.74471" y="181.25533" width="19.91489" height="6.89362" rx="3"/>
  <rect class="cls-96" x="662.14898" y="181.25534" width="12.04253" height="6.89362" rx="3"/>
  <g>
    <circle class="cls-97" cx="826.16969" cy="185.78723" r="4.48988"/>
    <circle class="cls-98" cx="812.21277" cy="185.78723" r="4.48988"/>
    <circle class="cls-99" cx="798.25584" cy="185.78723" r="4.48988"/>
    <g>
      <circle class="cls-100" cx="659.85929" cy="336.8353" r="18.8843"/>
      <circle class="cls-101" cx="710.53216" cy="336.8353" r="18.8843"/>
      <circle class="cls-102" cx="761.20504" cy="336.8353" r="18.8843"/>
      <circle class="cls-103" cx="811.87792" cy="336.8353" r="18.8843"/>
    </g>
    <g>
      <circle class="cls-104" cx="659.85929" cy="405.26083" r="18.8843"/>
      <circle class="cls-105" cx="710.53216" cy="405.26083" r="18.8843"/>
      <circle class="cls-106" cx="761.20504" cy="405.26083" r="18.8843"/>
      <circle class="cls-107" cx="811.87792" cy="405.26083" r="18.8843"/>
    </g>
    <rect class="cls-94" x="640.97498" y="283.6383" width="189.78723" height="7.91489" rx="3.95744"/>
    <rect class="cls-108" x="640.97498" y="283.6383" width="100.28034" height="7.91489" rx="3.95744"/>
    <rect class="cls-96" x="649.90184" y="361.2766" width="19.91489" height="2.55319" rx="1.27659"/>
    <rect class="cls-96" x="700.57472" y="361.2766" width="19.91489" height="2.55319" rx="1.27659"/>
    <rect class="cls-96" x="751.24759" y="361.2766" width="19.91489" height="2.55319" rx="1.27659"/>
    <rect class="cls-96" x="801.92047" y="361.2766" width="19.91489" height="2.55319" rx="1.27659"/>
    <rect class="cls-96" x="649.90184" y="430.44681" width="19.91489" height="2.55319" rx="1.27659"/>
    <rect class="cls-96" x="700.57472" y="430.44681" width="19.91489" height="2.55319" rx="1.27659"/>
    <rect class="cls-96" x="751.24759" y="430.44681" width="19.91489" height="2.55319" rx="1.27659"/>
    <rect class="cls-96" x="801.92047" y="430.44681" width="19.91489" height="2.55319" rx="1.27659"/>
    <rect class="cls-94" x="686.10638" y="222.87234" width="97.44681" height="39.48821" rx="19.74409"/>
    <circle class="cls-109" cx="760.89362" cy="242.61645" r="22.65957"/>
    <path class="cls-94" d="M766.26245,229.21178A13.50037,13.50037,0,0,1,747.489,247.98522a14.44232,14.44232,0,1,0,18.77344-18.77344Z"/>
    <path class="cls-94" d="M758.07869,229.83211l1.19368,2.18256a.8377.8377,0,0,0,.333.333l2.18256,1.19368a.83765.83765,0,0,1,0,1.46983l-2.18256,1.19368a.83764.83764,0,0,0-.333.333l-1.19368,2.18256a.83764.83764,0,0,1-1.46982,0l-1.19368-2.18256a.83764.83764,0,0,0-.333-.333l-2.18256-1.19368a.83765.83765,0,0,1,0-1.46983l2.18256-1.19368a.8377.8377,0,0,0,.333-.333l1.19368-2.18256A.83764.83764,0,0,1,758.07869,229.83211Z"/>
    <path class="cls-94" d="M753.504,239.9016l.67487,1.23395a.47359.47359,0,0,0,.18825.18825l1.23394.67486a.47357.47357,0,0,1,0,.831l-1.23394.67486a.47362.47362,0,0,0-.18825.18826l-.67487,1.23394a.47357.47357,0,0,1-.831,0l-.67487-1.23394a.47362.47362,0,0,0-.18825-.18826l-1.23394-.67486a.47357.47357,0,0,1,0-.831l1.23394-.67486a.47359.47359,0,0,0,.18825-.18825l.67487-1.23395A.47357.47357,0,0,1,753.504,239.9016Z"/>
  </g>
</svg>
