<svg id="Layer_1" data-name="Layer 1" xmlns="http://www.w3.org/2000/svg" xmlns:xlink="http://www.w3.org/1999/xlink" viewBox="0 0 1000 1000">
  <defs>
    <style>
      .cls-1 {
        fill: url(#linear-gradient);
      }

      .cls-2 {
        fill: #b8cbd8;
      }

      .cls-3 {
        fill: url(#linear-gradient-2);
      }

      .cls-4 {
        fill: url(#linear-gradient-3);
      }

      .cls-5 {
        fill: url(#linear-gradient-4);
      }

      .cls-6 {
        fill: url(#linear-gradient-5);
      }

      .cls-7 {
        fill: url(#linear-gradient-6);
      }

      .cls-8 {
        fill: url(#linear-gradient-7);
      }

      .cls-9 {
        fill: url(#linear-gradient-8);
      }

      .cls-10 {
        fill: #2a3f5e;
        opacity: 0.2;
      }

      .cls-11 {
        fill: url(#linear-gradient-9);
      }

      .cls-12 {
        fill: #e58630;
      }

      .cls-13 {
        fill: url(#linear-gradient-10);
      }

      .cls-14 {
        fill: url(#linear-gradient-11);
      }

      .cls-15 {
        fill: url(#linear-gradient-12);
      }

      .cls-16 {
        fill: url(#linear-gradient-13);
      }

      .cls-17 {
        fill: #541510;
        opacity: 0.3;
      }

      .cls-18 {
        fill: url(#linear-gradient-14);
      }

      .cls-19 {
        fill: url(#linear-gradient-15);
      }

      .cls-20 {
        fill: #bcd0e2;
      }

      .cls-21 {
        fill: url(#linear-gradient-16);
      }

      .cls-22 {
        fill: #e9f1f4;
      }

      .cls-23 {
        fill: url(#linear-gradient-17);
      }

      .cls-24 {
        fill: url(#linear-gradient-18);
      }

      .cls-25 {
        fill: url(#linear-gradient-19);
      }

      .cls-26 {
        fill: #f0f9fc;
      }

      .cls-27, .cls-28 {
        fill: none;
        stroke-miterlimit: 10;
        stroke-width: 5.40487px;
      }

      .cls-27 {
        stroke: url(#linear-gradient-20);
      }

      .cls-28 {
        stroke: url(#linear-gradient-21);
      }

      .cls-29 {
        fill: url(#linear-gradient-22);
      }

      .cls-30 {
        fill: url(#linear-gradient-23);
      }

      .cls-31 {
        fill: url(#linear-gradient-24);
      }

      .cls-32 {
        fill: url(#linear-gradient-25);
      }

      .cls-33 {
        fill: url(#linear-gradient-26);
      }

      .cls-34 {
        fill: url(#linear-gradient-27);
      }

      .cls-35 {
        fill: url(#linear-gradient-28);
      }

      .cls-36 {
        fill: url(#linear-gradient-29);
      }

      .cls-37 {
        fill: url(#linear-gradient-30);
      }

      .cls-38 {
        fill: url(#linear-gradient-31);
      }

      .cls-39 {
        fill: url(#linear-gradient-32);
      }

      .cls-40 {
        fill: url(#linear-gradient-33);
      }

      .cls-41 {
        fill: #ffcb48;
      }

      .cls-42 {
        fill: #404e59;
      }

      .cls-43 {
        fill: #27343d;
      }

      .cls-44 {
        fill: #ffbda3;
      }

      .cls-45 {
        fill: #303d49;
      }

      .cls-46 {
        fill: #a3bbce;
        opacity: 0.5;
      }

      .cls-47 {
        fill: #323f4c;
      }

      .cls-48 {
        fill: url(#linear-gradient-34);
      }

      .cls-49 {
        fill: #e48f7c;
      }

      .cls-50 {
        fill: url(#linear-gradient-35);
      }

      .cls-51 {
        fill: url(#linear-gradient-36);
      }

      .cls-52 {
        fill: url(#linear-gradient-37);
      }

      .cls-53 {
        fill: url(#linear-gradient-38);
      }

      .cls-54 {
        opacity: 0.6;
      }

      .cls-55 {
        fill: #9bb0c4;
      }

      .cls-56 {
        fill: url(#linear-gradient-39);
      }

      .cls-57 {
        fill: url(#linear-gradient-40);
      }

      .cls-58 {
        fill: #724133;
      }

      .cls-59 {
        fill: url(#linear-gradient-41);
      }

      .cls-60 {
        fill: url(#linear-gradient-42);
      }

      .cls-61 {
        fill: url(#linear-gradient-43);
      }

      .cls-62 {
        fill: url(#linear-gradient-44);
      }

      .cls-63 {
        fill: url(#linear-gradient-45);
      }

      .cls-64 {
        fill: url(#linear-gradient-46);
      }

      .cls-65 {
        fill: url(#linear-gradient-47);
      }

      .cls-66 {
        fill: url(#linear-gradient-48);
      }

      .cls-67 {
        fill: url(#linear-gradient-49);
      }

      .cls-68 {
        fill: url(#linear-gradient-50);
      }

      .cls-69 {
        fill: url(#linear-gradient-51);
      }

      .cls-70 {
        fill: url(#linear-gradient-52);
      }

      .cls-71 {
        fill: url(#linear-gradient-53);
      }

      .cls-72 {
        fill: url(#linear-gradient-54);
      }

      .cls-73 {
        fill: url(#linear-gradient-55);
      }

      .cls-74 {
        fill: url(#linear-gradient-56);
      }

      .cls-75 {
        opacity: 0.4;
        fill: url(#linear-gradient-57);
      }

      .cls-76 {
        fill: url(#linear-gradient-58);
      }

      .cls-77 {
        fill: url(#linear-gradient-59);
      }

      .cls-78 {
        fill: url(#linear-gradient-60);
      }

      .cls-79 {
        fill: url(#linear-gradient-61);
      }

      .cls-80 {
        fill: url(#linear-gradient-62);
      }

      .cls-81 {
        fill: url(#linear-gradient-63);
      }

      .cls-82 {
        fill: url(#linear-gradient-64);
      }

      .cls-83 {
        fill: url(#linear-gradient-65);
      }
    </style>
    <linearGradient id="linear-gradient" x1="499.99188" y1="393.55996" x2="921.27857" y2="393.55996" gradientUnits="userSpaceOnUse">
      <stop offset="0" stop-color="#f0f9ff"/>
      <stop offset="1" stop-color="#c3d6e6"/>
    </linearGradient>
    <linearGradient id="linear-gradient-2" x1="592.0607" y1="179.77289" x2="553.76283" y2="421.04949" gradientUnits="userSpaceOnUse">
      <stop offset="0" stop-color="#293440"/>
      <stop offset="1" stop-color="#3e4c59"/>
    </linearGradient>
    <linearGradient id="linear-gradient-3" x1="611.76468" y1="183.97088" x2="526.96433" y2="438.96912" gradientUnits="userSpaceOnUse">
      <stop offset="0" stop-color="#62778c"/>
      <stop offset="1" stop-color="#435466"/>
    </linearGradient>
    <linearGradient id="linear-gradient-4" x1="-7867.80521" y1="301.20882" x2="-7809.07849" y2="301.20882" gradientTransform="matrix(-1, 0, 0, 1, -7265.65672, 0)" xlink:href="#linear-gradient-2"/>
    <linearGradient id="linear-gradient-5" x1="876.35802" y1="330.09097" x2="822.741" y2="588.21863" xlink:href="#linear-gradient-2"/>
    <linearGradient id="linear-gradient-6" x1="887.47312" y1="347.00009" x2="802.67277" y2="601.99833" xlink:href="#linear-gradient-3"/>
    <linearGradient id="linear-gradient-7" x1="-8143.51365" y1="464.23803" x2="-8084.78693" y2="464.23803" gradientTransform="matrix(-1, 0, 0, 1, -7265.65672, 0)" xlink:href="#linear-gradient-2"/>
    <linearGradient id="linear-gradient-8" x1="78.72143" y1="719.89267" x2="921.27857" y2="719.89267" gradientUnits="userSpaceOnUse">
      <stop offset="0" stop-color="#dae9f2"/>
      <stop offset="0.99337" stop-color="#c4d5e6"/>
    </linearGradient>
    <linearGradient id="linear-gradient-9" x1="662.22376" y1="828.69886" x2="1046.6433" y2="797.49382" gradientTransform="translate(-293.19035)" gradientUnits="userSpaceOnUse">
      <stop offset="0.00005" stop-color="#ffb348"/>
      <stop offset="1" stop-color="#e68e2b"/>
    </linearGradient>
    <linearGradient id="linear-gradient-10" x1="449.94071" y1="286.19272" x2="635.77561" y2="529.56164" gradientTransform="matrix(-1, 0, 0, 1, 931.79251, 0)" xlink:href="#linear-gradient-3"/>
    <linearGradient id="linear-gradient-11" x1="431.83907" y1="299.83562" x2="616.06661" y2="541.09954" gradientTransform="matrix(-1, 0, 0, 1, 931.79251, 0)" gradientUnits="userSpaceOnUse">
      <stop offset="0" stop-color="#62788c"/>
      <stop offset="1" stop-color="#526575"/>
    </linearGradient>
    <linearGradient id="linear-gradient-12" x1="248.80783" y1="536.4299" x2="689.49007" y2="654.75262" gradientTransform="matrix(-1, 0, 0, 1, 931.79251, 0)" xlink:href="#linear-gradient-3"/>
    <linearGradient id="linear-gradient-13" x1="115.7946" y1="544.6094" x2="522.87731" y2="803.77697" xlink:href="#linear-gradient-11"/>
    <linearGradient id="linear-gradient-14" x1="132.60621" y1="614.25521" x2="697.79011" y2="644.83074" gradientTransform="matrix(-1, 0, 0, 1, 931.79251, 0)" gradientUnits="userSpaceOnUse">
      <stop offset="0" stop-color="#3e4c59"/>
      <stop offset="1" stop-color="#293440"/>
    </linearGradient>
    <linearGradient id="linear-gradient-15" x1="131.49582" y1="634.78049" x2="696.67972" y2="665.35601" xlink:href="#linear-gradient-14"/>
    <linearGradient id="linear-gradient-16" x1="155.45534" y1="487.08385" x2="333.34929" y2="675.16964" gradientTransform="matrix(-1, 0, 0, 1, 931.79251, 0)" gradientUnits="userSpaceOnUse">
      <stop offset="0.00005" stop-color="#ffcb48"/>
      <stop offset="1" stop-color="#e68e2b"/>
    </linearGradient>
    <linearGradient id="linear-gradient-17" x1="322.49851" y1="443.21801" x2="336.39648" y2="698.01403" xlink:href="#linear-gradient-16"/>
    <linearGradient id="linear-gradient-18" x1="444.19175" y1="245.16085" x2="694.68112" y2="573.20112" gradientTransform="matrix(-1, 0, 0, 1, 931.79251, 0)" gradientUnits="userSpaceOnUse">
      <stop offset="0" stop-color="#596c80"/>
      <stop offset="0.99886" stop-color="#3a4959"/>
    </linearGradient>
    <linearGradient id="linear-gradient-19" x1="477.04652" y1="668.46603" x2="504.38066" y2="711.1073" xlink:href="#linear-gradient-14"/>
    <linearGradient id="linear-gradient-20" x1="8801.01794" y1="636.28433" x2="8873.22793" y2="669.27555" gradientTransform="matrix(-1, 0, 0, 1, 9058.14218, 0)" xlink:href="#linear-gradient-14"/>
    <linearGradient id="linear-gradient-21" x1="8729.09742" y1="586.54918" x2="8810.69237" y2="623.82818" gradientTransform="matrix(-1, 0, 0, 1, 9058.14218, 0)" xlink:href="#linear-gradient-14"/>
    <linearGradient id="linear-gradient-22" x1="603.48001" y1="523.11305" x2="735.99915" y2="616.43638" gradientTransform="matrix(-1, 0, 0, 1, 923.18498, 0)" xlink:href="#linear-gradient-3"/>
    <linearGradient id="linear-gradient-23" x1="603.10081" y1="537.59289" x2="746.42626" y2="693.13625" gradientTransform="matrix(-1, 0, 0, 1, 923.18498, 0)" xlink:href="#linear-gradient-11"/>
    <linearGradient id="linear-gradient-24" x1="588.96188" y1="518.04888" x2="675.60858" y2="653.21773" gradientTransform="matrix(-1, 0, 0, 1, 923.18498, 0)" gradientUnits="userSpaceOnUse">
      <stop offset="0" stop-color="#96b1cc"/>
      <stop offset="1" stop-color="#748ea6"/>
    </linearGradient>
    <linearGradient id="linear-gradient-25" x1="596.17471" y1="562.44574" x2="734.72115" y2="562.44574" gradientTransform="matrix(-1, 0, 0, 1, 923.18498, 0)" gradientUnits="userSpaceOnUse">
      <stop offset="0" stop-color="#526575"/>
      <stop offset="1" stop-color="#62788c"/>
    </linearGradient>
    <linearGradient id="linear-gradient-26" x1="596.17465" y1="539.99847" x2="734.72111" y2="539.99847" xlink:href="#linear-gradient-24"/>
    <linearGradient id="linear-gradient-27" x1="395.76806" y1="539.18949" x2="450.33239" y2="539.18949" gradientTransform="matrix(-1, 0, 0, 1, 680.78727, 0)" xlink:href="#linear-gradient-3"/>
    <linearGradient id="linear-gradient-28" x1="395.76804" y1="535.03212" x2="450.3324" y2="535.03212" gradientTransform="matrix(-1, 0, 0, 1, 680.78727, 0)" gradientUnits="userSpaceOnUse">
      <stop offset="0" stop-color="#849bb2"/>
      <stop offset="1" stop-color="#5b6f82"/>
    </linearGradient>
    <linearGradient id="linear-gradient-29" x1="422.68168" y1="491.13361" x2="423.40817" y2="531.33228" gradientTransform="matrix(-1, 0, 0, 1, 680.78727, 0)" xlink:href="#linear-gradient-3"/>
    <linearGradient id="linear-gradient-30" x1="386.35877" y1="483.1676" x2="459.74172" y2="483.1676" gradientTransform="matrix(-1, 0, 0, 1, 680.78727, 0)" xlink:href="#linear-gradient-3"/>
    <linearGradient id="linear-gradient-31" x1="385.86649" y1="477.7889" x2="460.234" y2="477.7889" gradientTransform="matrix(-1, 0, 0, 1, 680.78727, 0)" gradientUnits="userSpaceOnUse">
      <stop offset="0.00844" stop-color="#ffc63f"/>
      <stop offset="1" stop-color="#e68a23"/>
    </linearGradient>
    <linearGradient id="linear-gradient-32" x1="415.03185" y1="463.9744" x2="431.06848" y2="463.9744" gradientTransform="matrix(-1, 0, 0, 1, 680.78727, 0)" xlink:href="#linear-gradient-14"/>
    <linearGradient id="linear-gradient-33" x1="415.03186" y1="457.78732" x2="431.06857" y2="457.78732" gradientTransform="matrix(-1, 0, 0, 1, 680.78727, 0)" xlink:href="#linear-gradient-3"/>
    <linearGradient id="linear-gradient-34" x1="476.29354" y1="402.09137" x2="505.0595" y2="470.85733" gradientUnits="userSpaceOnUse">
      <stop offset="0" stop-color="#966551"/>
      <stop offset="1" stop-color="#805345"/>
    </linearGradient>
    <linearGradient id="linear-gradient-35" x1="505.528" y1="389.8621" x2="534.29396" y2="458.62806" xlink:href="#linear-gradient-34"/>
    <linearGradient id="linear-gradient-36" x1="155.9065" y1="335.60273" x2="119.14054" y2="583.00699" xlink:href="#linear-gradient-2"/>
    <linearGradient id="linear-gradient-37" x1="461.55708" y1="358.57665" x2="376.75673" y2="613.57489" gradientTransform="matrix(-1, 0, 0, 1, 563.34043, 0)" xlink:href="#linear-gradient-3"/>
    <linearGradient id="linear-gradient-38" x1="-7717.59761" y1="475.81459" x2="-7658.87089" y2="475.81459" gradientTransform="translate(7828.99714)" xlink:href="#linear-gradient-2"/>
    <linearGradient id="linear-gradient-39" x1="126.82236" y1="720.23732" x2="186.10433" y2="720.23732" gradientTransform="matrix(1, 0, 0, 1, 0, 0)" xlink:href="#linear-gradient-14"/>
    <linearGradient id="linear-gradient-40" x1="131.01654" y1="664.12897" x2="190.4208" y2="721.32046" gradientTransform="matrix(1, 0, 0, 1, 0, 0)" xlink:href="#linear-gradient-16"/>
    <linearGradient id="linear-gradient-41" x1="-10113.03282" y1="2342.45416" x2="-10080.33702" y2="2356.04009" gradientTransform="matrix(-0.94085, 0.33882, 0.33882, 0.94085, -10119.53042, 1748.52335)" gradientUnits="userSpaceOnUse">
      <stop offset="0" stop-color="#f2883c"/>
      <stop offset="0.16716" stop-color="#e97d35"/>
      <stop offset="0.67368" stop-color="#d26124"/>
      <stop offset="0.96784" stop-color="#c9571e"/>
    </linearGradient>
    <linearGradient id="linear-gradient-42" x1="224.53575" y1="-1504.38212" x2="199.90193" y2="-1488.70605" gradientTransform="translate(-566.63335 1894.51696) rotate(21.53204)" xlink:href="#linear-gradient-41"/>
    <linearGradient id="linear-gradient-43" x1="209.33" y1="540.82262" x2="167.97505" y2="577.9973" gradientTransform="matrix(1, 0, 0, 1, 0, 0)" xlink:href="#linear-gradient-41"/>
    <linearGradient id="linear-gradient-44" x1="-443.93695" y1="1990.58262" x2="-477.59975" y2="2012.0044" gradientTransform="translate(54.9895 -1476.58462) rotate(-16.16083)" xlink:href="#linear-gradient-41"/>
    <linearGradient id="linear-gradient-45" x1="133.58915" y1="513.3984" x2="153.89339" y2="552.36463" gradientTransform="matrix(1, 0, 0, 1, 0, 0)" xlink:href="#linear-gradient-41"/>
    <linearGradient id="linear-gradient-46" x1="-665.4491" y1="2435.02376" x2="-641.93695" y2="2480.14636" gradientTransform="translate(-154.1819 -1962.09114) rotate(-21.26361)" xlink:href="#linear-gradient-41"/>
    <linearGradient id="linear-gradient-47" x1="-28.81958" y1="-2275.34419" x2="3.87622" y2="-2261.75826" gradientTransform="matrix(0.87147, 0.49044, -0.49044, 0.87147, -969.40262, 2530.85364)" xlink:href="#linear-gradient-41"/>
    <linearGradient id="linear-gradient-48" x1="-142.39215" y1="965.03015" x2="-163.76037" y2="1002.38375" gradientTransform="matrix(1.03159, -0.09458, 0.10022, 1.01436, 227.88951, -489.62561)" xlink:href="#linear-gradient-41"/>
    <linearGradient id="linear-gradient-49" x1="-1522.22507" y1="3500.73904" x2="-1552.5363" y2="3520.028" gradientTransform="translate(-652.87048 -3193.86351) rotate(-35.91139)" xlink:href="#linear-gradient-41"/>
    <linearGradient id="linear-gradient-50" x1="-10620.97302" y1="-1262.44526" x2="-10648.88486" y2="-1244.68319" gradientTransform="matrix(-0.94244, -0.33439, -0.33439, 0.94244, -10293.7052, -1808.0056)" xlink:href="#linear-gradient-41"/>
    <linearGradient id="linear-gradient-51" x1="-692.33712" y1="701.51774" x2="-688.65548" y2="701.51774" gradientTransform="matrix(-0.04492, -0.99899, -0.99899, 0.04492, 855.04196, -19.79401)" xlink:href="#linear-gradient-14"/>
    <linearGradient id="linear-gradient-52" x1="125.75656" y1="701.51774" x2="129.4382" y2="701.51774" gradientTransform="translate(31.55817 -5.0123) rotate(2.56788)" xlink:href="#linear-gradient-14"/>
    <linearGradient id="linear-gradient-53" x1="155.4675" y1="717.61246" x2="157.4675" y2="717.61246" gradientTransform="matrix(1, 0, 0, 1, 0, 0)" xlink:href="#linear-gradient-14"/>
    <linearGradient id="linear-gradient-54" x1="125.13767" y1="686.78861" x2="187.7977" y2="686.78861" gradientTransform="matrix(1, 0, 0, 1, 0, 0)" xlink:href="#linear-gradient-14"/>
    <linearGradient id="linear-gradient-55" x1="-24.01658" y1="279.07476" x2="53.30249" y2="279.07476" gradientTransform="matrix(-1, 0, 0, 1, 424.95936, -32.28579)" gradientUnits="userSpaceOnUse">
      <stop offset="0" stop-color="#435466"/>
      <stop offset="1" stop-color="#62778c"/>
    </linearGradient>
    <linearGradient id="linear-gradient-56" x1="-13.59639" y1="275.09151" x2="49.98758" y2="275.09151" gradientTransform="matrix(-1, 0, 0, 1, 424.95936, -32.28579)" gradientUnits="userSpaceOnUse">
      <stop offset="0" stop-color="#fff"/>
      <stop offset="0.98888" stop-color="#e6edf2"/>
    </linearGradient>
    <linearGradient id="linear-gradient-57" x1="-4.48409" y1="277.01694" x2="38.62136" y2="277.01694" gradientTransform="matrix(-1, 0, 0, 1, 424.95936, -32.28579)" xlink:href="#linear-gradient-3"/>
    <linearGradient id="linear-gradient-58" x1="-24.0166" y1="279.07476" x2="53.30249" y2="279.07476" gradientTransform="matrix(-1, 0, 0, 1, 424.95936, -32.28579)" xlink:href="#linear-gradient-28"/>
    <linearGradient id="linear-gradient-59" x1="-7.05116" y1="200.42817" x2="72.44871" y2="305.50626" gradientTransform="matrix(-1, 0, 0, 1, 424.95936, -32.28579)" xlink:href="#linear-gradient-3"/>
    <linearGradient id="linear-gradient-60" x1="-38.51363" y1="175.47297" x2="79.37052" y2="331.28507" gradientTransform="matrix(-1, 0, 0, 1, 424.95936, -32.28579)" xlink:href="#linear-gradient-3"/>
    <linearGradient id="linear-gradient-61" x1="76.02696" y1="316.76661" x2="50.34678" y2="256.54585" gradientTransform="matrix(-1, 0, 0, 1, 402.85503, 6.00002)" xlink:href="#linear-gradient-55"/>
    <linearGradient id="linear-gradient-62" x1="9.4935" y1="221.70745" x2="48.82876" y2="221.70745" gradientTransform="matrix(-1, 0, 0, 1, 358.55188, 82.73534)" xlink:href="#linear-gradient-56"/>
    <linearGradient id="linear-gradient-63" x1="-0.92671" y1="225.6907" x2="52.14367" y2="225.6907" gradientTransform="matrix(-1, 0, 0, 1, 358.55188, 82.73534)" xlink:href="#linear-gradient-28"/>
    <linearGradient id="linear-gradient-64" x1="11.40955" y1="172.95078" x2="66.205" y2="245.37606" gradientTransform="matrix(-1, 0, 0, 1, 358.55188, 82.73534)" xlink:href="#linear-gradient-3"/>
    <linearGradient id="linear-gradient-65" x1="-6.74891" y1="158.60524" x2="69.95189" y2="259.98369" gradientTransform="matrix(-1, 0, 0, 1, 358.55188, 82.73534)" xlink:href="#linear-gradient-3"/>
  </defs>
  <g>
    <polygon class="cls-1" points="499.992 67.227 921.279 310.448 921.279 719.893 499.992 476.649 499.992 67.227"/>
    <polygon class="cls-2" points="500.008 67.227 78.721 310.448 78.721 719.893 500.008 476.649 500.008 67.227"/>
  </g>
  <g>
    <g>
      <g>
        <path class="cls-3" d="M543.42177,145.36535l10.474-6.04511,58.73759,33.87381L602.14815,448.32393l.0001,8.73024-58.72648-33.89235Z"/>
        <path class="cls-4" d="M532.92868,127.18348v302.04l79.7,46v-302.03Zm69.22,329.87-58.72-33.88995v-277.8l58.72,33.9Z"/>
      </g>
      <polygon class="cls-5" points="543.429 145.363 547.37 147.638 547.358 421.031 602.148 452.648 602.148 457.054 543.422 423.162 543.429 145.363"/>
    </g>
    <g>
      <g>
        <path class="cls-6" d="M819.13021,308.39456l10.474-6.04511,58.73759,33.8738L877.85659,611.35314l.0001,8.73024L819.13021,586.191Z"/>
        <path class="cls-7" d="M808.63712,290.21269v302.04l79.7,46v-302.03Zm69.22,329.87-58.72-33.88995v-277.8l58.72,33.9Z"/>
      </g>
      <polygon class="cls-8" points="819.137 308.393 823.079 310.667 823.066 584.061 877.857 615.678 877.857 620.083 819.13 586.191 819.137 308.393"/>
    </g>
  </g>
  <path class="cls-9" d="M85.9912,732.49667l392.2106,226.4329a43.61718,43.61718,0,0,0,43.61686-.00063l392.1905-226.4365a14.53907,14.53907,0,0,0,.00018-25.18216L521.80168,480.8567a43.61723,43.61723,0,0,0-43.62.00054L85.99035,707.31448A14.53907,14.53907,0,0,0,85.9912,732.49667Z"/>
  <path class="cls-10" d="M182.85562,677.93276l83.72156-48.32451a8.70508,8.70508,0,0,1,8.71372,0L328.85,660.58286a4.35255,4.35255,0,0,1,0,7.53634L245.1284,716.44371a8.70508,8.70508,0,0,1-8.71372,0l-53.55906-30.97462A4.35254,4.35254,0,0,1,182.85562,677.93276Z"/>
  <path class="cls-10" d="M819.90088,672.414,606.5725,795.57353a20.11586,20.11586,0,0,1-20.11783-.00154L240.83309,595.78068a10.05793,10.05793,0,0,1,.00065-17.41988L454.09725,455.2165a20.11586,20.11586,0,0,1,20.11688-.00059L819.90105,654.99306A10.05793,10.05793,0,0,1,819.90088,672.414Z"/>
  <path class="cls-11" d="M439.228,751.83581,368.12547,792.8929a7.26954,7.26954,0,0,0,0,12.59074L508.8512,886.74377a21.8086,21.8086,0,0,0,21.81413-.00178l71.06038-41.04834a7.26954,7.26954,0,0,0,0-12.58955L461.04213,751.8376A21.80863,21.80863,0,0,0,439.228,751.83581Z"/>
  <ellipse class="cls-12" cx="484.92507" cy="820.60717" rx="64.35396" ry="36.98503"/>
  <g>
    <g>
      <g>
        <g>
          <path class="cls-13" d="M284.97046,410.33866,496.87538,285.07759a3.07665,3.07665,0,0,1,3.35578.13283v-.00012l18.71691,10.82642L499.72981,307.278v90.31271L280.39853,513.43844V418.35229A9.30917,9.30917,0,0,1,284.97046,410.33866Z"/>
          <path class="cls-14" d="M520.41683,298.67422V409.573l-221.159,114.79083v-95.0861a9.309,9.309,0,0,1,4.572-8.01363l211.905-125.2611A3.103,3.103,0,0,1,520.41683,298.67422Z"/>
          <path class="cls-15" d="M299.258,429.27774V533.41425l295.97312,35.04148V786.1632a19.37343,19.37343,0,0,1-9.74789-2.59171L285.21455,609.93237a9.94628,9.94628,0,0,1-4.81334-8.87511l-.00278-69.03537V418.35233Z"/>
          <path class="cls-16" d="M595.23105,568.45576V786.16319a19.24288,19.24288,0,0,0,9.60282-2.59169L809.94555,665.156a9.55129,9.55129,0,0,0,4.82564-8.22962V587.23589Z"/>
          <g>
            <path class="cls-17" d="M299.25786,513.72306v36.40953l.00968-.00968a9.57022,9.57022,0,0,0,4.80622,8.79047l281.4121,162.5228a19.27646,19.27646,0,0,0,9.7479,2.59169V538.85673Z"/>
            <path class="cls-18" d="M299.25786,528.14221v36.40953l.00968-.00968a9.57021,9.57021,0,0,0,4.80622,8.79047l281.4121,162.5228a19.27646,19.27646,0,0,0,9.7479,2.59169V553.27588Z"/>
            <path class="cls-19" d="M595.23376,553.27588V738.447a19.2609,19.2609,0,0,0,9.59314-2.59169L809.93864,617.43981a9.58514,9.58514,0,0,0,4.83526-8.38438V571.92067Z"/>
            <path class="cls-12" d="M391.17361,515.33687v87.69271l194.31031,112.2241a19.2705,19.2705,0,0,0,9.7434,2.59465V532.68307Z"/>
            <path class="cls-20" d="M299.25341,507.53473v36.41616h.01816a9.56487,9.56487,0,0,0,4.80813,8.7819l87.09391,50.29679V515.33687Z"/>
            <path class="cls-21" d="M595.23376,532.67709V717.84823a19.2609,19.2609,0,0,0,9.59314-2.59169L809.93864,596.841a9.58514,9.58514,0,0,0,4.83526-8.38438V551.32188Z"/>
            <path class="cls-22" d="M809.94117,560.09682,604.82976,678.5125a19.341,19.341,0,0,1-19.34294-.00148L304.07529,515.988a9.67052,9.67052,0,0,1,.00063-16.7489L509.125,380.838a19.341,19.341,0,0,1,19.342-.00056L809.94134,543.34689A9.67052,9.67052,0,0,1,809.94117,560.09682Z"/>
            <path class="cls-23" d="M394.1097,563.74177,614.61489,436.41618a20.70892,20.70892,0,0,1,6.13133-2.30129l189.19518,109.232a9.6705,9.6705,0,0,1-.00044,16.75L604.82985,678.51246A19.34069,19.34069,0,0,1,585.487,678.511L391.16564,566.285A10.39443,10.39443,0,0,1,394.1097,563.74177Z"/>
          </g>
        </g>
        <path class="cls-24" d="M285.21455,404.32205V609.93237l5.45071,3.152V404.32205a6.824,6.824,0,0,1,3.34113-5.86465L510.958,270.21031a.40545.40545,0,0,1,.45505,0,.414.414,0,0,1,.22752.39305V291.8175l5.451,3.14442V270.60336a5.89777,5.89777,0,0,0-8.90573-5.07862L291.23419,393.77183A12.30374,12.30374,0,0,0,285.21455,404.32205Z"/>
      </g>
      <path class="cls-25" d="M310.32994,606.70662,568.43562,755.96588a9.309,9.309,0,0,1,4.64884,8.05857V776.4015L305.68305,621.76885l-.0095-12.37366A3.103,3.103,0,0,1,310.32994,606.70662Z"/>
    </g>
    <g>
      <g>
        <path class="cls-20" d="M557.60835,405.01806c-.20944-.22593-40.93836-23.58632-40.93836-23.58632.21194-1.41421-.14346-2.64321-1.05314-3.11613-1.03261-.53675-2.45387.06031-3.56466,1.35313-10.65418-4.41015-20.62677-2.93234-48.73519,13.0485-36.429,20.71145-45.8846,32.82377-46.79579,44.45039-2.53546,1.2042-3.40448,2.70774-2.82513,4.22508.53624,1.40445,2.207,1.51733,4.53779.96039.27958-.0668.56192-.07852.82909-.13917l38.43581,22.06984c-.36623,1.62442.25295,3.79868,1.27594,4.3106,1.34436.67292,3.2672-.72176,4.12688-3.42782l.00094-.00214c16.75621-.69443,35.35112-12.92446,50.49621-22.47507,12.58582-7.93684,38.2312-18.66649,44.0018-32.2773,2.22424-.00516,4.28827-1.338,4.37255-2.746C561.85865,406.23368,559.87279,405.25783,557.60835,405.01806Z"/>
        <path class="cls-20" d="M449.33855,470.396c-.20944-.22594-40.93835-23.58633-40.93835-23.58633.21193-1.41421.54895-3.08724-.36073-3.56017-1.03261-.53675-3.14628.50435-4.25707,1.79718-14.13026-2.98345-20.62677-2.93234-48.7352,13.04849-36.429,20.71145-38.64093,29.98467-46.79579,44.45039-2.53545,1.20421-3.88726,2.01805-3.30791,3.53538.53624,1.40445,4.06576,2.13117,5.84966,1.51093L349.229,529.66174c-.36623,1.62443.25295,3.79868,1.27594,4.31061,1.34437.67291,3.2672-.72177,4.12688-3.42782l.00094-.00215C371.389,529.848,394.2048,519.64564,409.3499,510.095c12.58582-7.93684,34.01024-20.69419,39.78084-34.305,2.22424-.00516,4.39277-1.1168,4.477-2.52483C453.69335,471.83284,451.603,470.63581,449.33855,470.396Z"/>
      </g>
      <g>
        <path class="cls-26" d="M561.40586,395.20011c-.20944-.22594-40.93836-23.58632-40.93836-23.58632.21194-1.41422-.14346-2.64321-1.05314-3.11613-1.03261-.53676-2.45387.0603-3.56465,1.35313-10.65419-4.41016-20.62678-2.93234-48.7352,13.04849-36.429,20.71145-45.8846,32.82378-46.79579,44.45039-2.53546,1.20421-3.40447,2.70775-2.82513,4.22508.53625,1.40445,2.207,1.51734,4.53779.9604.27958-.06681.56192-.07852.82909-.13917l38.43581,22.06983c-.36623,1.62443.25295,3.79868,1.27594,4.31061,1.34437.67291,3.2672-.72177,4.12688-3.42782l.00094-.00215c16.75622-.69442,35.35112-12.92445,50.49622-22.47507,12.58582-7.93684,38.23119-18.66648,44.00179-32.2773,2.22424-.00515,4.28827-1.338,4.37255-2.746C565.65616,396.41572,563.6703,395.43988,561.40586,395.20011Z"/>
        <path class="cls-26" d="M453.13607,460.57808c-.20945-.22594-40.93836-23.58632-40.93836-23.58632.21193-1.41421.549-3.08725-.36073-3.56017-1.03261-.53675-3.14628.50435-4.25707,1.79717-14.13026-2.98345-20.62677-2.93234-48.7352,13.0485-36.429,20.71144-38.64093,29.98466-46.79578,44.45039-2.53546,1.2042-3.88727,2.018-3.30792,3.53538.53624,1.40444,4.06576,2.13116,5.84967,1.51092l38.4358,22.06983c-.36622,1.62443.25295,3.79869,1.27594,4.31061,1.34437.67292,3.26721-.72177,4.12688-3.42782l.00095-.00215c16.75621-.69442,39.57206-10.89674,54.71716-20.44735,12.58582-7.93684,34.01024-20.6942,39.78084-34.305,2.22424-.00515,4.39277-1.1168,4.477-2.52483C457.49086,462.01488,455.40051,460.81785,453.13607,460.57808Z"/>
      </g>
    </g>
  </g>
  <g>
    <g>
      <path class="cls-27" d="M249.30381,625.08225V708.3061a1.88191,1.88191,0,0,1-2.82248,1.63l-52.78025-30.45119a5.64575,5.64575,0,0,1-2.824-4.89V595.15664"/>
      <path class="cls-28" d="M324.236,581.93893v83.22386a1.88192,1.88192,0,0,1-2.82249,1.63L253.225,627.44571a5.64575,5.64575,0,0,1-2.824-4.89V543.11743"/>
      <g>
        <path class="cls-29" d="M188.46387,552.87083v45.362a3.78126,3.78126,0,0,0,1.88816,3.28864l55.88861,32.315a7.56336,7.56336,0,0,0,3.79208,1.00709l15.40831-81.9727Z"/>
        <path class="cls-30" d="M250.03272,552.87083v81.9727a7.5637,7.5637,0,0,0,3.79246-1.00709l71.281-41.21086a3.76436,3.76436,0,0,0,1.90411-3.28863v-45.362Z"/>
        <polygon class="cls-31" points="255.853 622.68 321.19 584.922 321.168 555.993 255.853 593.764 255.853 622.68"/>
        <path class="cls-32" d="M327.01027,535.55053v8.27781a3.75351,3.75351,0,0,1-1.89253,3.28014L253.82558,588.3236a7.57794,7.57794,0,0,1-7.58524,0l-55.884-32.31923a3.75353,3.75353,0,0,1-1.89252-3.28014v-8.27781Z"/>
        <path class="cls-33" d="M190.3564,541.16629l71.29227-41.21506a7.57765,7.57765,0,0,1,7.58516,0l55.884,32.31917a3.78882,3.78882,0,0,1,0,6.56026l-71.29227,41.21506a7.57765,7.57765,0,0,1-7.58516,0l-55.884-32.31917A3.78883,3.78883,0,0,1,190.3564,541.16629Z"/>
      </g>
    </g>
    <g>
      <g>
        <path class="cls-34" d="M231.21177,535.56586c2.8426-6.93571,13.625-12.103,26.52533-12.103s23.68274,5.16732,26.52523,12.103h.75689v3.62363c0,8.68561-12.21458,15.72666-27.28212,15.72666s-27.28222-7.04105-27.28222-15.72666v-3.62363Z"/>
        <ellipse class="cls-35" cx="257.73705" cy="535.03212" rx="27.28218" ry="15.72671"/>
      </g>
      <path class="cls-36" d="M261.31185,491.27163v40.498c0,1.13808-1.60048,2.06068-3.57479,2.06068s-3.57481-.9226-3.57481-2.06068v-40.498Z"/>
      <path class="cls-37" d="M294.42851,455.80675v33.63466c0,11.64607-16.42727,21.087-36.69148,21.087s-36.69148-9.441-36.69148-21.087V455.80675Z"/>
      <path class="cls-38" d="M294.92079,450.061v34.08593c0,11.80231-16.64767,21.37-37.18376,21.37s-37.18376-9.56764-37.18376-21.37V450.061Z"/>
      <g>
        <ellipse class="cls-12" cx="257.73705" cy="450.06107" rx="37.18377" ry="21.36998"/>
        <path class="cls-39" d="M265.75542,469.26488a36.30032,36.30032,0,0,1-16.03663,0V457.78727h16.03663Z"/>
        <ellipse class="cls-40" cx="257.73705" cy="457.78732" rx="8.01835" ry="4.62215"/>
        <path class="cls-41" d="M257.73707,430.52381c19.49262,0,35.35085,8.76434,35.35085,19.53721s-15.85823,19.53735-35.35085,19.53735-35.35086-8.76448-35.35086-19.53735,15.85823-19.53721,35.35086-19.53721m0-1.83275c-20.53594,0-37.18376,9.56769-37.18376,21.37,0,11.80241,16.64782,21.3701,37.18376,21.3701s37.18376-9.56769,37.18376-21.3701c0-11.80227-16.64783-21.37-37.18376-21.37Z"/>
      </g>
    </g>
  </g>
  <g>
    <g>
      <g>
        <g>
          <g>
            <path class="cls-42" d="M396.40427,592.57853l-10.448-6.03215c-4.078-2.35443-4.06278-10.0152.03387-17.11081s10.72344-10.93912,14.80143-8.58469l10.448,6.03215Z"/>
            <ellipse class="cls-43" cx="403.82192" cy="579.73078" rx="14.8353" ry="8.52604" transform="translate(-300.15062 639.58543) rotate(-60)"/>
          </g>
          <path class="cls-44" d="M487.96907,446.28316s-18.01079-4.08817-27.74468,14.13192c-8.67651,16.241-24.7805,65.46683-24.7805,65.46683l-25.10638,51.31915c-.20557,7.251,8.40968,11.15808,13.65407,8.57129,14.19238-17.92267,24.02333-32.86771,32.0055-49.62723l5.91718-11.51287c.96192-.423,10.19776-37.97888,10.19776-37.97888Z"/>
          <path class="cls-44" d="M484.45832,787.25524s3.02569,16.03861-1.19787,19.078c-5.84913,4.20918-10.97968,2.14124-18.96867,3.00656-7.62925.82635-16.2363,5.79261-27.98836,1.63994-7.73506-2.73324-7.10641-8.09038-5.24781-10.22231.95592-1.0965,15.36079-6.398,15.36079-6.398l14.53947-8.298Z"/>
          <path class="cls-44" d="M449.57155,590.734c-.38815,55.5513,16.55319,190.97772,16.55319,190.97772l-5.16887,4.34978c.656,8.724,23.10548,12.18546,23.50245,1.19376l-.90658-5.47995c.31768-16.1487,6.19-49.21253,5.70512-83.63691l7.03885-72.15854Z"/>
          <path class="cls-43" d="M446.678,594.13713c-.19683,28.17011,5.50026,77.41442,8.18473,102.278,2.84665,26.36571,7.82978,57.70213,7.82978,57.70213.93627,8.17946,22.21277,8.08511,23.494-1.829,0,0,5.2584-28.27862,4.38605-52.05205l4.53166-74.2563Z"/>
          <path class="cls-44" d="M531.74176,817.15851s1.34028,9.38388-.03457,13.87574c-.8554,2.79474-3.22522,6.50511-5.41074,11.63925-1.61359,3.79058-3.25718,8.6903-10.30471,13.20793-10.95814,7.02442-22.90453.984-18.36723-7.866l5.72376-10.83664,8.75055-19.80361Z"/>
          <path class="cls-44" d="M489.06091,638.05213l25.421,173.56495-4.1869,9.79675c1.27989,10.4752,21.4468-4.25532,21.4468-4.25532l-1.12723-7.60143c1.7128-27.33474,8.20453-50.56878,4.574-97.12207-.40894-40.58423-2.2978-78.04246-2.2978-78.04246Z"/>
          <path class="cls-45" d="M537.57155,629.92447c.83924-50.55319-9.24078-70.91526-9.24078-70.91526L455.39634,543.533a208.88221,208.88221,0,0,0-8.71841,50.60428l38.18476,41.85232L495.10422,700.33c3.57447,17.19149,13.68924,77.17677,13.68924,77.17677,1.19149,13.4468,24.06668,11.528,25.15851-.0155,4.56994-32.45651,4.91366-42.60808,3.715-70.84338C537.667,706.64787,537.42255,638.89991,537.57155,629.92447Z"/>
          <path class="cls-22" d="M500.295,450.05213c-17.29937-9.54835-29.92163-1.91364-37.43227,25.51189-6.46809,17.78723-9.64268,32.468-3.9149,57.02128a325.21677,325.21677,0,0,0-11.48936,42.21276c-3.19165,15.12891,10.29592,31.32305,30.70887,35.91879,32.00043,7.20454,59.46027-7.14894,58.21277-20.0094a253.95476,253.95476,0,0,0-12.24079-49.186l20.71277-56.05319C540.57981,469.31148,519.95453,460.90319,500.295,450.05213Z"/>
          <polygon class="cls-46" points="526.224 503.096 524.139 541.521 536.164 520.653 526.224 503.096"/>
          <path class="cls-44" d="M528.0876,488.57821s17.18676-1.98629,17.04028-2.42671a26.95465,26.95465,0,0,0-6.57446-11.83208C534.771,475.98519,531.05586,481.7159,528.0876,488.57821Z"/>
          <path class="cls-44" d="M545.41588,487.05338c-4.915-16.65954-21.93617-2.59574-19.19149,16.04256l7.02128,40.437-34.11525-.678c-.54614,9.12653-2.15195,12.55681-2.15195,12.55681s45.64913,16.34075,53.24592,3.59748C557.93175,546.08046,549.50084,500.84061,545.41588,487.05338Z"/>
        </g>
        <g>
          <g>
            <path class="cls-42" d="M474.18438,552.26469l-10.38966-5.99848c-4.05523-2.34128-4.0401-9.95929.03368-17.01528s10.66358-10.87806,14.7188-8.53678l10.38967,5.99848Z"/>
            <ellipse class="cls-43" cx="481.56063" cy="539.48866" rx="14.75249" ry="8.47844" transform="translate(-226.43057 686.78807) rotate(-60)"/>
          </g>
          <path class="cls-47" d="M508.48431,547.8181l-20.71143-11.95775c-1.9408-1.12053-5.09465.70871-7.04434,4.08566s-1.95691,7.02286-.0161,8.14339l20.71143,11.95775Z"/>
          <path class="cls-44" d="M491.61351,534.5712c-5.44142-.46694-11.2988,4.8937-11.68273,8.47277s1.60333,10.784,5.14035,12.36779,12.80656,3.59745,12.80656,3.59745l7.13475-16.08949S497.05494,535.03813,491.61351,534.5712Z"/>
          <g>
            <path class="cls-42" d="M502.74347,568.58432l-10.38967-5.99847c-4.05522-2.34129-4.0401-9.95929.03368-17.01529s10.66359-10.87806,14.71881-8.53677l10.38967,5.99847Z"/>
            <path class="cls-43" d="M520.31805,547.48607l.00074-.00548.00354.02351c.03037.15828.04959.32441.07314.48781l.62937,4.19914-.62321-.5962a23.82465,23.82465,0,0,1-8.794,15.22766l.82992.2422-4.0912,1.60956c-.09575.03678-.19206.0797-.28749.11307l-.0537.02111.0105-.00824a6.26942,6.26942,0,0,1-5.27217-.21589c-4.05523-2.34128-4.04-9.95924.03376-17.01524s10.6635-10.8781,14.71873-8.53682A6.26768,6.26768,0,0,1,520.31805,547.48607Z"/>
            <ellipse class="cls-45" cx="513.35808" cy="557.67794" rx="10.94235" ry="6.28871" transform="translate(-226.28422 723.42011) rotate(-60)"/>
          </g>
        </g>
        <g>
          <path class="cls-47" d="M429.25411,586.45864l-20.71143-11.95775c-1.9408-1.12052-5.09465.70871-7.04434,4.08567s-1.95691,7.02286-.0161,8.14338l20.71143,11.95775Z"/>
          <path class="cls-44" d="M412.38331,573.21174c-4.24272-.86508-11.55168,5.90729-11.68273,8.66611-.21621,4.55166,2.06734,10.12475,5.14035,12.17446s12.77861,4.3564,12.77861,4.3564l7.1627-16.84845S416.626,574.07682,412.38331,573.21174Z"/>
          <g>
            <path class="cls-42" d="M425.12368,608.98977l-10.448-6.03215c-4.078-2.35443-4.06278-10.0152.03387-17.1108s10.72344-10.93913,14.80143-8.5847l10.448,6.03215Z"/>
            <path class="cls-43" d="M442.79692,587.77308l.00074-.00551.00355.02364c.03055.15917.04987.32624.07356.49055l.6329,4.22271-.62671-.59955a23.95839,23.95839,0,0,1-8.84338,15.31315l.83457.24356-4.11416,1.61859c-.09629.037-.19314.08015-.28911.11371l-.054.02122.01055-.00828a6.30463,6.30463,0,0,1-5.30176-.2171c-4.078-2.35443-4.0627-10.01515.034-17.11076s10.72336-10.93917,14.80135-8.58474A6.30288,6.30288,0,0,1,442.79692,587.77308Z"/>
            <ellipse class="cls-45" cx="435.79787" cy="598.02216" rx="11.00378" ry="6.32401" transform="translate(-300.00345 676.42311) rotate(-60)"/>
          </g>
        </g>
      </g>
      <path class="cls-44" d="M528.40547,465.81307c-8.15454-5.49268-18.24512-10.31665-28.09522-15.75269l-.01538-.0083-.01049-.00561c-.46924-.25879-.93384-.49976-1.396-.7334-.3374-.16919-.67334-.32935-1.00879-.48535-.09009-.04248-.18066-.08594-.27051-.12744q-1.26781-.57752-2.51416-1.03394a31.91218,31.91218,0,0,0-5.25342-1.239c-7.18212,5.58716-18.25537,23.094-4.72363,30.626C507.229,489.36043,516.54805,477.42855,528.40547,465.81307Z"/>
    </g>
    <g>
      <path class="cls-48" d="M490.489,402.2312s-4.18085,3.07079-5.46991,16.354c-.926,9.54189-6.411,16.26779-5.40355,23.82888,1.66628,12.50535,15.66258,14.012,22.78271,10.393Z"/>
      <path class="cls-49" d="M493.85515,454.67419c-.52851,3.33987.01747,6.68794,3.58363,8.45089,7.23619,3.57724,19.23092,1.20119,19.84152-5.08446l-.85111-18.80394L497.589,439.296Z"/>
      <path class="cls-44" d="M498.66169,449.24207c10.717.94334,18.02216-3.54409,21.30843-13.10173l7.07107-20.67493c3.08551-8.26068-2.27035-18.3879-12.15264-21.12752-8.637-2.39439-19.53019,2.27142-22.18729,11.83805a200.69275,200.69275,0,0,0-4.35362,21.57025C487.11544,437.46826,488.69967,448.36519,498.66169,449.24207Z"/>
      <g>
        <path class="cls-50" d="M542.14371,451.055c.44938-8.63468-2.62384-13.049-3.27-21.76686-.14292-1.92559-.30089-3.93875-.516-5.98741l.0022-.001c-.83306-14.17-3.10192-23.11781-14.6518-28.69378-17.55325-7.69829-31.13052,2.5596-33.218,7.62566-1.805,4.381,1.2804,18.91618,22.70888,24.151-2.13067,3.74491-.80136,8.97183,3.56088,8.03679a9.69474,9.69474,0,0,0,2.53818,2.44817s-10.97264,16.94064-3.499,24.718C524.11451,470.23905,541.38439,465.64905,542.14371,451.055Z"/>
        <path class="cls-44" d="M517.0123,441.884c3.92555.62238,8.0991-4.33489,8.80535-8.78942s-2.55625-8.81491-6.24779-7.34186C514.93578,427.60183,513.08674,441.26157,517.0123,441.884Z"/>
      </g>
    </g>
  </g>
  <g>
    <g>
      <path class="cls-51" d="M170.12625,597.76759l-58.72647,33.89235.0001-8.73024L100.91469,347.79981l58.7376-33.87381,10.474,6.04512Z"/>
      <path class="cls-52" d="M100.91939,347.79926v302.03l79.7-46v-302.04Zm10.48,6.07,58.72-33.9v277.8l-58.72,33.89Z"/>
    </g>
    <polygon class="cls-53" points="170.119 319.969 166.178 322.244 166.19 595.637 111.4 627.254 111.4 631.66 170.126 597.768 170.119 319.969"/>
  </g>
  <g>
    <g class="cls-54">
      <ellipse class="cls-55" cx="156.46338" cy="719.26221" rx="27.94426" ry="16.05992"/>
    </g>
    <g>
      <path class="cls-56" d="M156.46341,706.38444c14.34209,0,26.45877,6.34385,26.45877,13.85291,0,7.509-12.11668,13.85284-26.45877,13.85284-14.34221,0-26.45889-6.34385-26.45889-13.85284,0-7.50906,12.11668-13.85291,26.45889-13.85291m0-3.18215c-16.37029,0-29.64105,7.62682-29.64105,17.03506,0,9.40817,13.27076,17.035,29.64105,17.035,16.37017,0,29.64092-7.62682,29.64092-17.035,0-9.40824-13.27075-17.03506-29.64092-17.03506Z"/>
      <g>
        <g>
          <path class="cls-57" d="M128.51907,664.62387v43.57446c0,8.86969,12.51123,16.06,27.94434,16.06,15.43323,0,27.94433-7.19031,27.94433-16.06V664.62387Z"/>
          <ellipse class="cls-12" cx="156.46338" cy="664.62391" rx="27.94426" ry="16.05992"/>
          <path class="cls-58" d="M180.70768,672.60289c-4.82257,4.84517-13.885,8.07533-24.24871,8.07533s-19.42558-3.23016-24.24871-8.07533c3.0734-6.01166,12.76346-10.4083,24.24871-10.4083S177.63429,666.59123,180.70768,672.60289Z"/>
          <path class="cls-41" d="M156.46341,651.564c13.52112,0,24.94421,5.98072,24.94421,13.05994,0,7.07916-11.42309,13.05988-24.94421,13.05988-13.52124,0-24.94434-5.98072-24.94434-13.05988,0-7.07922,11.4231-13.05994,24.94434-13.05994m0-3c-15.43323,0-27.94434,7.19025-27.94434,16.05994,0,8.86963,12.51111,16.05988,27.94434,16.05988,15.4331,0,27.94421-7.19025,27.94421-16.05988,0-8.86969-12.51111-16.05994-27.94421-16.05994Z"/>
        </g>
        <g>
          <path class="cls-59" d="M165.04492,549.50964c10.27342-3.82416,30.20007-14.81553,24.20314-21.78945S164.33956,533.83557,165.04492,549.50964Z"/>
          <path class="cls-58" d="M154.36386,670.42754c-.57,0-1.268-.94038-1.268-2.03784,0-53.61359-4.83087-88.51462-16.70718-116.823a3.37392,3.37392,0,0,1,.15429-2.793c.44333-.69143,1.0925-.55911,1.45127.29707,12.197,29.07372,17.40146,64.77243,17.40146,119.37062C155.39572,669.53893,154.93386,670.42754,154.36386,670.42754Z"/>
          <path class="cls-58" d="M158.99156,670.42754c-.57,0-1.03186-.88861-1.03186-1.98607,0-50.49632,0-119.65471,13.174-151.057.35844-.85618,1.00794-.9872,1.45093-.29707a3.37267,3.37267,0,0,1,.15463,2.79295c-12.71581,30.31128-12.71581,98.65631-12.71581,148.56109C160.02342,669.53893,159.56156,670.42754,158.99156,670.42754Z"/>
          <path class="cls-58" d="M159.47666,616.22112c-.53193,0-.98335-.78613-1.02748-1.82392-1.71134-40.383-6.25718-67.83-14.30621-86.37535a3.38493,3.38493,0,0,1,.13-2.79814c.43794-.7044,1.08846-.58895,1.4533.25037,8.33572,19.20562,13.0318,47.35959,14.77986,88.59881.04616,1.09358-.37663,2.05353-.9446,2.14174A.47265.47265,0,0,1,159.47666,616.22112Z"/>
        </g>
        <path class="cls-58" d="M158.99256,631.93205a.5231.5231,0,0,1-.07445-.00477c-.56865-.07149-.79916-.97985-.7584-1.98439,1.28418-31.77955,9.09446-65.2926,21.9147-67.92371.56326-.11678,1.078.60058,1.1437,1.60155.0657,1.00216-.33991,1.90779-.90586,2.02338-11.70518,2.40233-19.068,34.313-20.29154,64.59344C159.982,631.1992,159.52887,631.93205,158.99256,631.93205Z"/>
        <path class="cls-60" d="M165.90137,584.32969c10.16466,2.53689,31.575,2.65047,30.61628-6.08738S173.815,571.59314,165.90137,584.32969Z"/>
        <path class="cls-61" d="M169.6532,577.77324c17.08454-4.57708,48.78844-21.93977,40.21852-34.05555S170.90869,552.4891,169.6532,577.77324Z"/>
        <path class="cls-62" d="M157.53584,590.04184c13.111-5.7497,36.35769-23.516,28.02017-32.16342S155.45129,569.65727,157.53584,590.04184Z"/>
        <path class="cls-63" d="M153.73332,555.32035c-12.41352-9.28868-32.56114-33.74366-21.641-40.81312S160.94546,534.33427,153.73332,555.32035Z"/>
        <path class="cls-64" d="M148.1,585.2726c-17.297-4.81082-49.3095-22.74048-40.49385-34.95552S147.06979,559.59651,148.1,585.2726Z"/>
        <path class="cls-65" d="M141.10484,561.08914c-9.49519-5.478-27.31851-19.62761-20.24616-25.50814S144.40479,545.75016,141.10484,561.08914Z"/>
        <path class="cls-66" d="M160.28368,545.00805c12.14387-10.83615,31.84358-35.50284,19.59866-41.78006S150.52422,523.936,160.28368,545.00805Z"/>
        <path class="cls-67" d="M155.73952,568.33859c9.36165-8.86212,23.65647-30.992,13.95945-35.78344S147.7703,551.69763,155.73952,568.33859Z"/>
        <path class="cls-68" d="M157.28289,580.75812c-10.57166-5.39906-28.94631-21.2392-21.62312-27.98995S160.00323,563.9871,157.28289,580.75812Z"/>
      </g>
      <rect class="cls-69" x="166.46084" y="700.5177" width="37.57777" height="2.00007" transform="translate(-523.88137 855.06801) rotate(-87.42538)"/>
      <rect class="cls-70" x="126.59735" y="682.72885" width="2.00007" height="37.57777" transform="translate(-31.30191 6.42117) rotate(-2.56788)"/>
      <rect class="cls-71" x="155.4675" y="698.97428" width="2" height="37.27637"/>
      <path class="cls-72" d="M184.40769,673.7136v7.77a3.429,3.429,0,0,1,0,.74c-.38,7.78-13.02,14.28-27.94,14.28-14.92,0-27.57006-6.5-27.95007-14.28a3.44956,3.44956,0,0,1,0-.74v-7.76a11.4797,11.4797,0,0,0,0,16.27c5.16,5.86,15.74011,9.87,27.95007,9.87,12.2,0,22.77-4.01,27.94-9.86a11.47976,11.47976,0,0,0,0-16.29Z"/>
    </g>
  </g>
  <g>
    <g>
      <polygon class="cls-73" points="371.696 223.815 371.657 314.517 448.937 269.763 448.976 179.061 371.696 223.815"/>
      <polygon class="cls-74" points="375.003 221.906 374.972 300.534 438.525 263.706 438.556 185.077 375.003 221.906"/>
      <polygon class="cls-75" points="386.359 230.563 386.338 283.867 429.423 258.9 429.443 205.595 386.359 230.563"/>
      <path class="cls-76" d="M375.99415,307.01047l.03219-80.69348,68.61233-39.74952-.03221,80.6935-68.61231,39.7495m-4.33729,7.5063,77.27986-44.75371.03924-90.70189L371.69608,223.8149l-.03922,90.70187Z"/>
      <polygon class="cls-77" points="444.085 176.23 366.805 220.984 371.696 223.815 448.976 179.061 444.085 176.23"/>
      <polygon class="cls-78" points="366.805 220.984 366.783 311.695 371.657 314.517 371.696 223.815 366.805 220.984"/>
    </g>
    <g>
      <polygon class="cls-79" points="306.447 294.452 306.408 353.154 359.439 322.4 359.479 263.698 306.447 294.452"/>
      <polygon class="cls-80" points="309.754 292.543 309.723 339.171 349.028 316.343 349.058 269.714 309.754 292.543"/>
      <path class="cls-81" d="M310.74549,345.64754l.03219-48.69348,44.36362-25.74952-.03221,48.69349-44.3636,25.74951m-4.33729,7.5063,53.03114-30.75371.03924-58.70189L306.44742,294.452l-.03922,58.70187Z"/>
      <polygon class="cls-82" points="354.588 260.867 301.557 291.621 306.447 294.452 359.479 263.698 354.588 260.867"/>
      <polygon class="cls-83" points="301.557 291.621 301.534 350.332 306.408 353.154 306.447 294.452 301.557 291.621"/>
    </g>
  </g>
</svg>
