<svg id="Layer_1" data-name="Layer 1" xmlns="http://www.w3.org/2000/svg" xmlns:xlink="http://www.w3.org/1999/xlink" viewBox="0 0 1000 1000">
  <defs>
    <style>
      .cls-1, .cls-18, .cls-19 {
        fill: none;
      }

      .cls-2 {
        fill: url(#linear-gradient);
      }

      .cls-3 {
        fill: #b8cbd8;
      }

      .cls-4 {
        fill: url(#linear-gradient-2);
      }

      .cls-5 {
        fill: #9bb0c4;
      }

      .cls-6 {
        fill: url(#linear-gradient-3);
      }

      .cls-7 {
        fill: url(#linear-gradient-4);
      }

      .cls-8 {
        fill: url(#linear-gradient-5);
      }

      .cls-9 {
        fill: url(#linear-gradient-6);
      }

      .cls-10 {
        fill: url(#linear-gradient-7);
      }

      .cls-11 {
        fill: #e58630;
      }

      .cls-12 {
        fill: url(#linear-gradient-8);
      }

      .cls-13, .cls-46, .cls-48 {
        opacity: 0.5;
      }

      .cls-14 {
        fill: url(#linear-gradient-9);
      }

      .cls-15 {
        fill: #748ca3;
      }

      .cls-16 {
        fill: #586c7f;
      }

      .cls-17 {
        fill: url(#linear-gradient-10);
      }

      .cls-18, .cls-19 {
        stroke-miterlimit: 10;
        stroke-width: 5px;
      }

      .cls-18 {
        stroke: url(#linear-gradient-11);
      }

      .cls-19 {
        stroke: url(#linear-gradient-12);
      }

      .cls-20 {
        fill: url(#linear-gradient-13);
      }

      .cls-21 {
        fill: url(#linear-gradient-14);
      }

      .cls-22 {
        fill: url(#linear-gradient-15);
      }

      .cls-23 {
        fill: url(#linear-gradient-16);
      }

      .cls-24 {
        fill: url(#linear-gradient-17);
      }

      .cls-25 {
        fill: url(#linear-gradient-18);
      }

      .cls-26 {
        fill: url(#linear-gradient-19);
      }

      .cls-27 {
        fill: url(#linear-gradient-20);
      }

      .cls-28 {
        fill: url(#linear-gradient-21);
      }

      .cls-29 {
        fill: url(#linear-gradient-22);
      }

      .cls-30 {
        fill: url(#linear-gradient-23);
      }

      .cls-31 {
        fill: url(#linear-gradient-24);
      }

      .cls-32 {
        fill: #ffcb48;
      }

      .cls-33 {
        fill: #34a521;
      }

      .cls-34 {
        fill: #e2e2e2;
      }

      .cls-35 {
        clip-path: url(#clip-path);
      }

      .cls-36 {
        fill: url(#linear-gradient-25);
      }

      .cls-37 {
        fill: url(#linear-gradient-26);
      }

      .cls-38 {
        fill: url(#linear-gradient-27);
      }

      .cls-39 {
        fill: #541510;
        opacity: 0.3;
      }

      .cls-40 {
        fill: url(#linear-gradient-28);
      }

      .cls-41, .cls-46 {
        fill: #bcd0e2;
      }

      .cls-42 {
        fill: #e9f1f4;
      }

      .cls-43 {
        fill: url(#linear-gradient-29);
      }

      .cls-44 {
        fill: url(#linear-gradient-30);
      }

      .cls-45 {
        fill: #f0f9fc;
      }

      .cls-47 {
        fill: url(#linear-gradient-31);
      }

      .cls-48, .cls-50 {
        fill: #dd7b19;
      }

      .cls-49 {
        fill: url(#linear-gradient-32);
      }

      .cls-50 {
        opacity: 0.6;
      }

      .cls-51 {
        fill: url(#linear-gradient-33);
      }

      .cls-52 {
        fill: #ffbda3;
      }

      .cls-53 {
        fill: url(#linear-gradient-34);
      }

      .cls-54 {
        fill: #303d49;
      }

      .cls-55 {
        fill: url(#linear-gradient-35);
      }

      .cls-56 {
        fill: #e48f7c;
      }

      .cls-57 {
        fill: url(#linear-gradient-36);
      }

      .cls-58 {
        fill: url(#linear-gradient-37);
      }

      .cls-59 {
        fill: url(#linear-gradient-38);
      }

      .cls-60 {
        fill: url(#linear-gradient-39);
      }

      .cls-61 {
        fill: url(#linear-gradient-40);
      }

      .cls-62 {
        fill: #fff;
      }

      .cls-63 {
        fill: url(#linear-gradient-41);
      }

      .cls-64 {
        fill: url(#linear-gradient-42);
      }

      .cls-65 {
        opacity: 0.4;
        fill: url(#linear-gradient-43);
      }

      .cls-66 {
        fill: url(#linear-gradient-44);
      }

      .cls-67 {
        fill: url(#linear-gradient-45);
      }

      .cls-68 {
        fill: url(#linear-gradient-46);
      }

      .cls-69 {
        fill: url(#linear-gradient-47);
      }

      .cls-70 {
        fill: url(#linear-gradient-48);
      }

      .cls-71 {
        fill: url(#linear-gradient-49);
      }

      .cls-72 {
        fill: url(#linear-gradient-50);
      }

      .cls-73 {
        fill: url(#linear-gradient-51);
      }

      .cls-74 {
        fill: url(#linear-gradient-52);
      }

      .cls-75 {
        fill: url(#linear-gradient-53);
      }

      .cls-76 {
        fill: url(#linear-gradient-54);
      }

      .cls-77 {
        fill: url(#linear-gradient-55);
      }

      .cls-78 {
        fill: url(#linear-gradient-56);
      }

      .cls-79 {
        fill: url(#linear-gradient-57);
      }

      .cls-80 {
        fill: url(#linear-gradient-58);
      }

      .cls-81 {
        fill: url(#linear-gradient-59);
      }

      .cls-82 {
        fill: url(#linear-gradient-60);
      }

      .cls-83 {
        fill: url(#linear-gradient-61);
      }

      .cls-84 {
        fill: url(#linear-gradient-62);
      }

      .cls-85 {
        fill: #ffbea4;
      }

      .cls-86 {
        fill: url(#linear-gradient-63);
      }

      .cls-87 {
        fill: url(#linear-gradient-64);
      }

      .cls-88 {
        fill: url(#linear-gradient-65);
      }

      .cls-89 {
        fill: url(#linear-gradient-66);
      }
    </style>
    <linearGradient id="linear-gradient" x1="521.50943" y1="396.22833" x2="928.15567" y2="396.22833" gradientUnits="userSpaceOnUse">
      <stop offset="0" stop-color="#e4edf2"/>
      <stop offset="1" stop-color="#c3d6e6"/>
    </linearGradient>
    <linearGradient id="linear-gradient-2" x1="114.87886" y1="711.22041" x2="928.15567" y2="711.22041" gradientUnits="userSpaceOnUse">
      <stop offset="0" stop-color="#dae9f2"/>
      <stop offset="0.99337" stop-color="#c4d5e6"/>
    </linearGradient>
    <linearGradient id="linear-gradient-3" x1="-916.23489" y1="188.87542" x2="-922.36255" y2="512.10947" gradientTransform="translate(1237.78726)" gradientUnits="userSpaceOnUse">
      <stop offset="0" stop-color="#293440"/>
      <stop offset="1" stop-color="#3e4c59"/>
    </linearGradient>
    <linearGradient id="linear-gradient-4" x1="-1089.94225" y1="396.19506" x2="-746.59953" y2="396.19506" gradientTransform="translate(1237.78726)" gradientUnits="userSpaceOnUse">
      <stop offset="0" stop-color="#5b6f82"/>
      <stop offset="1" stop-color="#849bb2"/>
    </linearGradient>
    <linearGradient id="linear-gradient-5" x1="-728.22582" y1="293.17671" x2="-1102.12283" y2="495.85551" gradientTransform="translate(1237.78726)" gradientUnits="userSpaceOnUse">
      <stop offset="0" stop-color="#62778c"/>
      <stop offset="1" stop-color="#435466"/>
    </linearGradient>
    <linearGradient id="linear-gradient-6" x1="-795.26524" y1="325.43067" x2="-933.74356" y2="400.49578" xlink:href="#linear-gradient-5"/>
    <linearGradient id="linear-gradient-7" x1="-906.73405" y1="389.7831" x2="-1045.21236" y2="464.84821" xlink:href="#linear-gradient-5"/>
    <linearGradient id="linear-gradient-8" x1="-1087.85405" y1="333.09678" x2="-912.4498" y2="569.01168" gradientTransform="translate(1237.78726)" gradientUnits="userSpaceOnUse">
      <stop offset="0.00005" stop-color="#ffcb48"/>
      <stop offset="1" stop-color="#e68e2b"/>
    </linearGradient>
    <linearGradient id="linear-gradient-9" x1="-910.12518" y1="230.45356" x2="-734.72093" y2="466.36846" xlink:href="#linear-gradient-8"/>
    <linearGradient id="linear-gradient-10" x1="-1298.99246" y1="240.09776" x2="-735.17368" y2="240.09776" xlink:href="#linear-gradient-4"/>
    <linearGradient id="linear-gradient-11" x1="8918.07187" y1="475.31353" x2="8984.87272" y2="505.83343" gradientTransform="translate(-8377.35491)" gradientUnits="userSpaceOnUse">
      <stop offset="0" stop-color="#3e4c59"/>
      <stop offset="1" stop-color="#293440"/>
    </linearGradient>
    <linearGradient id="linear-gradient-12" x1="8851.53879" y1="429.30395" x2="8927.0216" y2="463.79045" xlink:href="#linear-gradient-11"/>
    <linearGradient id="linear-gradient-13" x1="725.22175" y1="370.61972" x2="847.81411" y2="456.95236" gradientTransform="translate(-242.3977)" xlink:href="#linear-gradient-5"/>
    <linearGradient id="linear-gradient-14" x1="724.87096" y1="384.01489" x2="857.46014" y2="527.90676" gradientTransform="translate(-242.3977)" gradientUnits="userSpaceOnUse">
      <stop offset="0" stop-color="#62788c"/>
      <stop offset="1" stop-color="#526575"/>
    </linearGradient>
    <linearGradient id="linear-gradient-15" x1="711.79115" y1="365.93489" x2="791.94729" y2="490.97847" gradientTransform="translate(-242.3977)" gradientUnits="userSpaceOnUse">
      <stop offset="0" stop-color="#96b1cc"/>
      <stop offset="1" stop-color="#748ea6"/>
    </linearGradient>
    <linearGradient id="linear-gradient-16" x1="718.46368" y1="407.00607" x2="846.63183" y2="407.00607" gradientTransform="translate(-242.3977)" gradientUnits="userSpaceOnUse">
      <stop offset="0" stop-color="#526575"/>
      <stop offset="1" stop-color="#62788c"/>
    </linearGradient>
    <linearGradient id="linear-gradient-17" x1="718.46363" y1="386.24029" x2="846.6318" y2="386.24029" xlink:href="#linear-gradient-15"/>
    <linearGradient id="linear-gradient-18" x1="514.91155" y1="385.4919" x2="565.38856" y2="385.4919" gradientTransform="matrix(1, 0, 0, 1, 0, 0)" xlink:href="#linear-gradient-5"/>
    <linearGradient id="linear-gradient-19" x1="514.91153" y1="381.64595" x2="565.38857" y2="381.64595" gradientUnits="userSpaceOnUse">
      <stop offset="0" stop-color="#849bb2"/>
      <stop offset="1" stop-color="#5b6f82"/>
    </linearGradient>
    <linearGradient id="linear-gradient-20" x1="539.80912" y1="341.03581" x2="540.48118" y2="378.22327" gradientTransform="matrix(1, 0, 0, 1, 0, 0)" xlink:href="#linear-gradient-5"/>
    <linearGradient id="linear-gradient-21" x1="506.20709" y1="333.66652" x2="574.09305" y2="333.66652" gradientTransform="matrix(1, 0, 0, 1, 0, 0)" xlink:href="#linear-gradient-5"/>
    <linearGradient id="linear-gradient-22" x1="505.75169" y1="328.69073" x2="574.54846" y2="328.69073" gradientUnits="userSpaceOnUse">
      <stop offset="0.00844" stop-color="#ffc63f"/>
      <stop offset="1" stop-color="#e68a23"/>
    </linearGradient>
    <linearGradient id="linear-gradient-23" x1="532.73233" y1="315.91105" x2="547.56768" y2="315.91105" gradientTransform="matrix(1, 0, 0, 1, 0, 0)" xlink:href="#linear-gradient-11"/>
    <linearGradient id="linear-gradient-24" x1="532.73234" y1="310.18743" x2="547.56776" y2="310.18743" gradientTransform="matrix(1, 0, 0, 1, 0, 0)" xlink:href="#linear-gradient-5"/>
    <clipPath id="clip-path">
      <path class="cls-1" d="M435.98541,305.84375A194.17509,194.17509,0,1,1,364.93924,155.6819,193.78539,193.78539,0,0,1,435.98541,305.84375Z"/>
    </clipPath>
    <linearGradient id="linear-gradient-25" x1="201.36951" y1="-200.82387" x2="830.6014" y2="623.21666" gradientTransform="matrix(1, 0, 0, 1, 0, 0)" xlink:href="#linear-gradient-5"/>
    <linearGradient id="linear-gradient-26" x1="137.92405" y1="-153.00608" x2="761.52219" y2="663.6565" gradientTransform="matrix(1, 0, 0, 1, 0, 0)" xlink:href="#linear-gradient-14"/>
    <linearGradient id="linear-gradient-27" x1="-666.42034" y1="685.05779" x2="1010.22439" y2="1135.23513" gradientTransform="matrix(1, 0, 0, 1, 0, 0)" xlink:href="#linear-gradient-5"/>
    <linearGradient id="linear-gradient-28" x1="-1147.28507" y1="965.25263" x2="1067.99455" y2="1085.09563" gradientTransform="matrix(1, 0, 0, 1, 0, 0)" xlink:href="#linear-gradient-11"/>
    <linearGradient id="linear-gradient-29" x1="176.09065" y1="-338.52322" x2="1031.11385" y2="781.21304" gradientUnits="userSpaceOnUse">
      <stop offset="0" stop-color="#596c80"/>
      <stop offset="0.99886" stop-color="#3a4959"/>
    </linearGradient>
    <linearGradient id="linear-gradient-30" x1="182.26317" y1="1155.15866" x2="286.52453" y2="1317.80638" gradientTransform="matrix(1, 0, 0, 1, 0, 0)" xlink:href="#linear-gradient-11"/>
    <linearGradient id="linear-gradient-31" x1="16.29928" y1="303.51189" x2="-5.08816" y2="682.06961" gradientTransform="matrix(1, 0, 0, 1, 0, 0)" xlink:href="#linear-gradient-8"/>
    <linearGradient id="linear-gradient-32" x1="-1001.71745" y1="531.15518" x2="107.61105" y2="1149.96427" gradientTransform="matrix(1, 0, 0, 1, 0, 0)" xlink:href="#linear-gradient-8"/>
    <linearGradient id="linear-gradient-33" x1="7.36719" y1="303.00725" x2="-14.02025" y2="681.56497" gradientTransform="matrix(1, 0, 0, 1, 0, 0)" xlink:href="#linear-gradient-8"/>
    <linearGradient id="linear-gradient-34" x1="261.30893" y1="317.35424" x2="239.92149" y2="695.91196" gradientTransform="matrix(1, 0, 0, 1, 0, 0)" xlink:href="#linear-gradient-8"/>
    <linearGradient id="linear-gradient-35" x1="162.2126" y1="214.61512" x2="215.09471" y2="333.59987" gradientUnits="userSpaceOnUse">
      <stop offset="0" stop-color="#966551"/>
      <stop offset="1" stop-color="#805345"/>
    </linearGradient>
    <linearGradient id="linear-gradient-36" x1="236.79086" y1="180.3781" x2="344.94108" y2="423.7161" xlink:href="#linear-gradient-35"/>
    <linearGradient id="linear-gradient-37" x1="-7636.07924" y1="200.66225" x2="-7535.05093" y2="364.10361" gradientTransform="translate(7852.85655)" xlink:href="#linear-gradient-5"/>
    <linearGradient id="linear-gradient-38" x1="884.47743" y1="403.4152" x2="909.26055" y2="466.26879" xlink:href="#linear-gradient-22"/>
    <linearGradient id="linear-gradient-39" x1="891.68474" y1="407.3511" x2="900.14185" y2="420.57726" gradientTransform="matrix(1, 0, 0, 1, 0, 0)" xlink:href="#linear-gradient-5"/>
    <linearGradient id="linear-gradient-40" x1="875.31142" y1="416.90389" x2="905.09595" y2="463.4842" gradientTransform="matrix(1, 0, 0, 1, 0, 0)" xlink:href="#linear-gradient-5"/>
    <linearGradient id="linear-gradient-41" x1="692.07474" y1="321.16965" x2="769.39381" y2="321.16965" gradientTransform="translate(-18.64021 -32.28579)" gradientUnits="userSpaceOnUse">
      <stop offset="0" stop-color="#435466"/>
      <stop offset="1" stop-color="#62778c"/>
    </linearGradient>
    <linearGradient id="linear-gradient-42" x1="702.49493" y1="317.1864" x2="766.0789" y2="317.1864" gradientTransform="translate(-18.64021 -32.28579)" gradientUnits="userSpaceOnUse">
      <stop offset="0" stop-color="#fff"/>
      <stop offset="0.98888" stop-color="#e6edf2"/>
    </linearGradient>
    <linearGradient id="linear-gradient-43" x1="711.60723" y1="319.11183" x2="754.71269" y2="319.11183" gradientTransform="translate(-18.64021 -32.28579)" xlink:href="#linear-gradient-5"/>
    <linearGradient id="linear-gradient-44" x1="692.07473" y1="321.16965" x2="769.39382" y2="321.16965" gradientTransform="translate(-18.64021 -32.28579)" xlink:href="#linear-gradient-19"/>
    <linearGradient id="linear-gradient-45" x1="709.04016" y1="242.52306" x2="788.54003" y2="347.60115" gradientTransform="translate(-18.64021 -32.28579)" xlink:href="#linear-gradient-5"/>
    <linearGradient id="linear-gradient-46" x1="677.5777" y1="217.56786" x2="795.46185" y2="373.37996" gradientTransform="translate(-18.64021 -32.28579)" xlink:href="#linear-gradient-5"/>
    <linearGradient id="linear-gradient-47" x1="792.11828" y1="358.86149" x2="766.43811" y2="298.64073" gradientTransform="translate(3.46411 6.00002)" xlink:href="#linear-gradient-41"/>
    <linearGradient id="linear-gradient-48" x1="725.58483" y1="263.80234" x2="764.92008" y2="263.80234" gradientTransform="translate(47.76727 82.73534)" xlink:href="#linear-gradient-42"/>
    <linearGradient id="linear-gradient-49" x1="715.16462" y1="267.78559" x2="768.235" y2="267.78559" gradientTransform="translate(47.76727 82.73534)" xlink:href="#linear-gradient-19"/>
    <linearGradient id="linear-gradient-50" x1="727.50088" y1="215.04567" x2="782.29632" y2="287.47095" gradientTransform="translate(47.76727 82.73534)" xlink:href="#linear-gradient-5"/>
    <linearGradient id="linear-gradient-51" x1="709.34241" y1="200.70012" x2="786.04322" y2="302.07858" gradientTransform="translate(47.76727 82.73534)" xlink:href="#linear-gradient-5"/>
    <linearGradient id="linear-gradient-52" x1="645.30886" y1="322.89488" x2="841.73524" y2="580.13437" gradientTransform="matrix(1, 0, 0, 1, 0, 0)" xlink:href="#linear-gradient-5"/>
    <linearGradient id="linear-gradient-53" x1="625.50319" y1="337.82209" x2="820.17088" y2="592.75842" gradientTransform="matrix(1, 0, 0, 1, 0, 0)" xlink:href="#linear-gradient-14"/>
    <linearGradient id="linear-gradient-54" x1="374.41221" y1="599.43923" x2="897.80788" y2="739.97041" gradientTransform="matrix(1, 0, 0, 1, 0, 0)" xlink:href="#linear-gradient-5"/>
    <linearGradient id="linear-gradient-55" x1="231.91174" y1="634.50385" x2="659.54509" y2="906.7549" gradientTransform="matrix(1, 0, 0, 1, 0, 0)" xlink:href="#linear-gradient-14"/>
    <linearGradient id="linear-gradient-56" x1="224.30138" y1="686.90723" x2="915.8419" y2="724.31844" gradientTransform="matrix(1, 0, 0, 1, 0, 0)" xlink:href="#linear-gradient-11"/>
    <linearGradient id="linear-gradient-57" x1="247.51223" y1="729.65096" x2="838.79659" y2="761.63847" gradientTransform="matrix(1, 0, 0, 1, 0, 0)" xlink:href="#linear-gradient-11"/>
    <linearGradient id="linear-gradient-58" x1="637.4176" y1="279.90948" x2="904.32891" y2="629.45587" xlink:href="#linear-gradient-29"/>
    <linearGradient id="linear-gradient-59" x1="639.34446" y1="746.18991" x2="671.89158" y2="796.96341" gradientTransform="matrix(1, 0, 0, 1, 0, 0)" xlink:href="#linear-gradient-11"/>
    <linearGradient id="linear-gradient-60" x1="584.74745" y1="480.17508" x2="578.07096" y2="598.34888" gradientTransform="matrix(1, 0, 0, 1, 0, 0)" xlink:href="#linear-gradient-8"/>
    <linearGradient id="linear-gradient-61" x1="587.53577" y1="480.33261" x2="580.85928" y2="598.50641" gradientTransform="matrix(1, 0, 0, 1, 0, 0)" xlink:href="#linear-gradient-8"/>
    <linearGradient id="linear-gradient-62" x1="269.74301" y1="551.39568" x2="616.04042" y2="744.56839" gradientTransform="matrix(1, 0, 0, 1, 0, 0)" xlink:href="#linear-gradient-8"/>
    <linearGradient id="linear-gradient-63" x1="664.02006" y1="484.65376" x2="657.34357" y2="602.82756" gradientTransform="matrix(1, 0, 0, 1, 0, 0)" xlink:href="#linear-gradient-8"/>
    <linearGradient id="linear-gradient-64" x1="632.4056" y1="447.16295" x2="658.78858" y2="523.58848" xlink:href="#linear-gradient-35"/>
    <linearGradient id="linear-gradient-65" x1="659.39438" y1="437.84611" x2="685.77736" y2="514.27164" xlink:href="#linear-gradient-35"/>
    <linearGradient id="linear-gradient-66" x1="-7202.73786" y1="448.2262" x2="-7171.2" y2="499.24744" gradientTransform="translate(7852.85655)" xlink:href="#linear-gradient-5"/>
  </defs>
  <g>
    <g>
      <polygon class="cls-2" points="521.509 81.236 928.156 316.004 928.156 711.22 521.509 476.43 521.509 81.236"/>
      <polygon class="cls-3" points="521.525 81.236 114.879 316.004 114.879 711.22 521.525 476.43 521.525 81.236"/>
    </g>
    <path class="cls-4" d="M121.896,723.3864l378.58059,218.564a42.10143,42.10143,0,0,0,42.1011-.00062l378.5612-218.56743a14.03381,14.03381,0,0,0,.00016-24.307L542.5613,480.49136a42.10144,42.10144,0,0,0-42.10408.00053l-378.562,218.58744A14.03381,14.03381,0,0,0,121.896,723.3864Z"/>
    <path class="cls-5" d="M226.3809,766.56781,459.93617,901.383a25.8435,25.8435,0,0,0,25.846-.002l376.022-217.16324a12.92175,12.92175,0,0,0-.00084-22.37988L628.33138,527.04226a25.84349,25.84349,0,0,0-25.8448-.00074l-376.10591,217.145A12.92174,12.92174,0,0,0,226.3809,766.56781Z"/>
  </g>
  <g>
    <g>
      <path class="cls-6" d="M495.0292,461.80623,151.68013,660.03582l-11.46525-6.61724V330.59447L483.564,132.35338l11.46525-2.15873Z"/>
      <polygon class="cls-7" points="491.188 135.665 487.246 137.94 487.252 456.375 147.845 652.319 147.845 656.725 491.188 458.506 491.188 135.665"/>
      <path class="cls-8" d="M136.357,327.271V676.623L502.676,465.13872V115.76621Zm11.48824,6.6326L491.18773,135.66491l0,322.84091L147.84525,656.7252Z"/>
    </g>
    <polygon class="cls-9" points="375.783 520.728 370.783 523.615 370.783 205.199 375.783 202.312 375.783 520.728"/>
    <polygon class="cls-10" points="264.314 585.08 259.314 587.967 259.314 269.551 264.314 266.664 264.314 585.08"/>
    <g>
      <path class="cls-11" d="M320.03935,241.7198l-172.1941,99.549V654.67317a2.97181,2.97181,0,0,0,1.50513,2.60065l-.00024.00018,3.38843,1.94965-.40357-1.94727.01-.005,163.20081-94.20411a9,9,0,0,0,4.50073-7.79486L323.43046,243.672Z"/>
      <path class="cls-12" d="M323.4376,557.22459,323.43049,243.672,151.23636,343.221V656.62532a3,3,0,0,0,4.49977,2.59821l163.20076-94.2041A9,9,0,0,0,323.4376,557.22459Z"/>
      <g>
        <g class="cls-13">
          <polygon class="cls-11" points="173.048 649.203 170.749 650.53 170.749 331.939 173.048 330.611 173.048 649.203"/>
        </g>
        <g class="cls-13">
          <polygon class="cls-11" points="194.86 636.593 192.56 637.921 192.56 319.329 194.86 318.002 194.86 636.593"/>
        </g>
        <g class="cls-13">
          <polygon class="cls-11" points="216.671 623.984 214.372 625.311 214.372 306.72 216.671 305.392 216.671 623.984"/>
        </g>
        <g class="cls-13">
          <polygon class="cls-11" points="238.483 611.374 236.184 612.702 236.184 294.11 238.483 292.783 238.483 611.374"/>
        </g>
        <g class="cls-13">
          <polygon class="cls-11" points="260.295 598.765 257.995 600.092 257.995 281.501 260.295 280.173 260.295 598.765"/>
        </g>
        <g class="cls-13">
          <polygon class="cls-11" points="282.106 586.155 279.807 587.482 279.807 268.891 282.106 267.564 282.106 586.155"/>
        </g>
        <g class="cls-13">
          <polygon class="cls-11" points="303.918 573.545 301.619 574.873 301.619 256.282 303.918 254.954 303.918 573.545"/>
        </g>
      </g>
    </g>
    <g>
      <path class="cls-11" d="M497.76821,139.07658l-172.19409,99.549V552.03a2.97181,2.97181,0,0,0,1.50513,2.60065l-.00024.00018,3.38842,1.94965-.40356-1.94727.01-.005,163.2008-94.2041a9,9,0,0,0,4.50074-7.79486l3.38391-311.60046Z"/>
      <path class="cls-14" d="M501.16647,454.58136l-.00712-313.55261-172.19412,99.549V553.98209a3,3,0,0,0,4.49976,2.59822l163.20076-94.2041A9,9,0,0,0,501.16647,454.58136Z"/>
      <g>
        <g class="cls-13">
          <polygon class="cls-11" points="350.777 546.56 348.478 547.887 348.478 229.296 350.777 227.968 350.777 546.56"/>
        </g>
        <g class="cls-13">
          <polygon class="cls-11" points="372.589 533.95 370.289 535.278 370.289 216.686 372.589 215.359 372.589 533.95"/>
        </g>
        <g class="cls-13">
          <polygon class="cls-11" points="394.4 521.34 392.101 522.668 392.101 204.077 394.4 202.749 394.4 521.34"/>
        </g>
        <g class="cls-13">
          <polygon class="cls-11" points="416.212 508.731 413.913 510.058 413.913 191.467 416.212 190.139 416.212 508.731"/>
        </g>
        <g class="cls-13">
          <polygon class="cls-11" points="438.024 496.121 435.724 497.449 435.724 178.857 438.024 177.53 438.024 496.121"/>
        </g>
        <g class="cls-13">
          <polygon class="cls-11" points="459.835 483.512 457.536 484.839 457.536 166.248 459.835 164.92 459.835 483.512"/>
        </g>
        <g class="cls-13">
          <polygon class="cls-11" points="481.647 470.902 479.348 472.23 479.348 153.638 481.647 152.311 481.647 470.902"/>
        </g>
      </g>
    </g>
    <g>
      <path class="cls-15" d="M498.691,132.33943v6.03443l-14.83479,8.56338V140.018a3.36191,3.36191,0,0,1,1.68117-2.91162l10.70616-6.18012A1.63171,1.63171,0,0,1,498.691,132.33943Z"/>
      <path class="cls-16" d="M156.28676,330.29116v6.03443L141.452,344.889v-6.91922a3.36193,3.36193,0,0,1,1.68116-2.91162L153.8393,328.878A1.63171,1.63171,0,0,1,156.28676,330.29116Z"/>
      <path class="cls-17" d="M506.42655,138.88379,143.80033,348.28887l-3.92587-6.79981L502.51387,132.07637l.00179.0031a1.97737,1.97737,0,0,1,1.95074.20783,6.13755,6.13755,0,0,1,2.78517,4.8041A1.92627,1.92627,0,0,1,506.42655,138.88379Z"/>
      <ellipse class="cls-16" cx="141.83739" cy="344.88896" rx="2.26305" ry="3.92587" transform="translate(-153.44187 117.12506) rotate(-30)"/>
    </g>
  </g>
  <g>
    <g>
      <path class="cls-18" d="M547.95157,464.95057v76.9897a1.741,1.741,0,0,0,2.61106,1.50791L599.38919,515.278a5.22281,5.22281,0,0,0,2.61249-4.52372V437.26664"/>
      <path class="cls-19" d="M478.63242,425.03905v76.9897a1.741,1.741,0,0,0,2.61106,1.50791L544.32415,467.137a5.22282,5.22282,0,0,0,2.61248-4.52372V389.12561"/>
      <g>
        <path class="cls-20" d="M604.23409,398.14839v41.964a3.498,3.498,0,0,1-1.74672,3.04229L550.78528,473.049a6.99683,6.99683,0,0,1-3.508.93164l-14.2541-75.83226Z"/>
        <path class="cls-21" d="M547.27726,398.14839v75.83226a6.99716,6.99716,0,0,1-3.50837-.93164l-65.94144-38.12382a3.4824,3.4824,0,0,1-1.76147-3.04229v-41.964Z"/>
        <polygon class="cls-22" points="541.893 462.729 481.45 427.799 481.471 401.037 541.893 435.979 541.893 462.729"/>
        <path class="cls-23" d="M476.066,382.12553v7.65773a3.47235,3.47235,0,0,0,1.75076,3.03443l65.95178,38.12776a7.01028,7.01028,0,0,0,7.017,0l51.69781-29.89824a3.47235,3.47235,0,0,0,1.75076-3.03443V390.355Z"/>
        <path class="cls-24" d="M602.48333,387.32062l-65.95189-38.12771a7.01,7.01,0,0,0-7.017,0l-51.69779,29.8982a3.505,3.505,0,0,0,0,6.06884l65.95189,38.12771a7.01,7.01,0,0,0,7.017,0l51.69779-29.8982A3.505,3.505,0,0,0,602.48333,387.32062Z"/>
      </g>
    </g>
    <g>
      <g>
        <path class="cls-25" d="M564.68837,382.13971C562.0587,375.72354,552.084,370.9433,540.15,370.9433s-21.9087,4.78024-24.53826,11.19641h-.70019v3.35219c0,8.035,11.2996,14.54861,25.23845,14.54861s25.23856-6.51363,25.23856-14.54861v-3.35219Z"/>
        <ellipse class="cls-26" cx="540.15005" cy="381.64595" rx="25.23852" ry="14.54865"/>
      </g>
      <path class="cls-27" d="M536.843,341.16349v37.46434c0,1.05282,1.48059,1.90631,3.307,1.90631s3.307-.85349,3.307-1.90631V341.16349Z"/>
      <path class="cls-28" d="M506.20709,308.35523v31.11514c0,10.77367,15.19673,19.50744,33.943,19.50744s33.943-8.73377,33.943-19.50744V308.35523Z"/>
      <path class="cls-29" d="M505.75169,303.03984v31.53261c0,10.91822,15.40062,19.76917,34.39838,19.76917s34.39839-8.85095,34.39839-19.76917V303.03984Z"/>
      <g>
        <ellipse class="cls-11" cx="540.15005" cy="303.03994" rx="34.3984" ry="19.76919"/>
        <path class="cls-30" d="M532.73233,320.80523a33.58124,33.58124,0,0,0,14.83535,0V310.18739H532.73233Z"/>
        <ellipse class="cls-31" cx="540.15005" cy="310.18743" rx="7.41771" ry="4.27591"/>
        <path class="cls-32" d="M540.15,284.96619c18.03246,0,32.70278,8.10781,32.70278,18.0737S558.1825,321.11374,540.15,321.11374s-32.70279-8.108-32.70279-18.07385,14.67032-18.0737,32.70279-18.0737m0-1.69547c-18.99763,0-34.39839,8.851-34.39839,19.76917,0,10.91832,15.40076,19.76931,34.39839,19.76931s34.39838-8.851,34.39838-19.76931c0-10.91818-15.40076-19.76917-34.39838-19.76917Z"/>
      </g>
    </g>
  </g>
  <g>
    <path class="cls-33" d="M241.7915,113.44029a191.74878,191.74878,0,1,1-74.8872,15.113,191.18371,191.18371,0,0,1,74.8872-15.113m0-17.54223c-115.95068,0-209.94726,93.99682-209.94726,209.94751S125.84082,515.79308,241.7915,515.79308c115.95118,0,209.94776-93.99683,209.94776-209.94751S357.74268,95.89806,241.7915,95.89806Z"/>
    <circle class="cls-34" cx="241.79174" cy="305.84555" r="194.19259"/>
    <path class="cls-34" d="M435.98541,305.84375A194.17509,194.17509,0,1,1,364.93924,155.6819,193.78539,193.78539,0,0,1,435.98541,305.84375Z"/>
  </g>
  <g class="cls-35">
    <g>
      <g>
        <g>
          <g>
            <path class="cls-36" d="M863.36985,210.3871,155.963-208.0696a10.78351,10.78351,0,0,0-11.76186.46555v-.00044l-65.602,37.94615L145.95832-130.258V186.28416l733.436,385.46324V238.47452A32.62822,32.62822,0,0,0,863.36985,210.3871Z"/>
            <path class="cls-37" d="M73.4512-160.414V228.28151l739.84191,381.759V276.76776a32.62769,32.62769,0,0,0-16.02464-28.08745L89.86143-169.7765A10.87589,10.87589,0,0,0,73.4512-160.414Z"/>
            <path class="cls-38" d="M813.29257,276.76776v364.994L-351.9505,879.16714l-35.31082,742.47737a67.90267,67.90267,0,0,0,34.166-9.08382L862.51432,909.95453c11.93091-6.91471,16.87055-19.22842,16.87055-31.10688l.00974-241.966v-398.407Z"/>
            <g>
              <path class="cls-39" d="M813.29311,572.745V700.35883l-.03393-.03392a33.54312,33.54312,0,0,1-16.84559,30.81021l-1149.51815,663.644a67.563,67.563,0,0,1-34.166,9.08377l35.31082-628.43893Z"/>
              <path class="cls-40" d="M813.29311,623.28351V750.89735l-.03393-.03393a33.54314,33.54314,0,0,1-16.84559,30.81022L-353.10456,1445.31758a67.56293,67.56293,0,0,1-34.166,9.08377l35.31082-628.43893Z"/>
              <path class="cls-41" d="M491.13265,578.40121-351.93753,753.78549l-35.31082,628.41838a67.54177,67.54177,0,0,0,34.15075-9.09426l741.25525-428.243,408.23514-235.3942A33.5253,33.5253,0,0,0,813.245,678.69218h.06417V551.05512Z"/>
              <path class="cls-42" d="M796.40619,521.97918,113.02884,127.56642a67.79006,67.79006,0,0,0-67.793-.00194L-381.17376,373.4057h0l-723.32695,417.75577a33.424,33.424,0,0,0-15.88816,20.86917,34.464,34.464,0,0,0-1.05921,8.48515A33.57682,33.57682,0,0,0-1104.5,849.86941L-625.22882,1126.564l204.32407,117.76931a67.79238,67.79238,0,0,0,12.24934,5.53459,67.76344,67.76344,0,0,0,17.26331,3.40523q2.19071.14175,4.38634.14157a67.7439,67.7439,0,0,0,33.89758-9.08651L796.40831,580.68324C819.00011,567.63562,818.99941,535.025,796.40619,521.97918Z"/>
            </g>
          </g>
          <path class="cls-43" d="M862.51432,189.29915V909.95453l-19.1045,11.04773V189.29915a23.91786,23.91786,0,0,0-11.71053-20.55538L106.604-260.1788a1.42106,1.42106,0,0,0-1.59492,0,1.45113,1.45113,0,0,0-.79746,1.37763v74.35466l-19.10539,11.021v-85.3757a20.49414,20.49414,0,0,1,10.44043-17.98156,20.49177,20.49177,0,0,1,20.77377.18122L841.41573,152.32107A43.124,43.124,0,0,1,862.51432,189.29915Z"/>
        </g>
        <path class="cls-44" d="M774.48594,898.6484-293.34418,1515.80422a32.62767,32.62767,0,0,0-16.294,28.24493v43.381L790.77308,951.44088l.03331-43.36915A10.8759,10.8759,0,0,0,774.48594,898.6484Z"/>
      </g>
      <g>
        <path class="cls-41" d="M69.12625,299.06205c.70117-.75639,137.052-78.96144,137.052-78.96144-.7095-4.73445-1.83776-10.33538,1.20762-11.91861,3.45694-1.79692,10.533,1.68843,14.25167,6.0165,47.30479-9.98789,69.05358-9.81678,163.15395,43.68329,121.95576,69.337,129.36073,100.38159,156.66126,148.80942,8.48811,4.03139,13.01364,6.75594,11.07413,11.83562-1.79522,4.70176-13.61123,7.13464-19.58332,5.05821l-128.674,73.8846c1.226,5.4382-.84682,12.7171-4.27155,14.4309-4.50063,2.25276-10.93783-2.41631-13.81582-11.47554l-.00316-.00719c-56.09585-2.32476-132.47794-36.47971-183.18015-68.45292C160.86449,405.39422,89.14056,362.6856,69.822,317.11979c-7.44621-.01725-14.70593-3.73879-14.98806-8.45253C54.54744,303.87212,61.54544,299.86474,69.12625,299.06205Z"/>
        <path class="cls-45" d="M56.41308,266.19385c.70117-.75639,137.052-78.96145,137.052-78.96145-.70951-4.73445-1.83776-10.33537,1.20762-11.9186,3.45694-1.79692,10.533,1.68843,14.25167,6.0165,47.30479-9.98789,69.05357-9.81679,163.15395,43.68328C494.03405,294.35062,501.439,325.39518,528.73954,373.823c8.48812,4.0314,13.01365,6.756,11.07413,11.83563-1.79521,4.70176-13.61122,7.13464-19.58331,5.05821l-128.674,73.8846c1.226,5.4382-.84683,12.7171-4.27155,14.4309C382.78418,481.2851,376.347,476.616,373.469,467.5568l-.00317-.00719c-56.09585-2.32476-132.47793-36.47972-183.18014-68.45293C148.15132,372.526,76.42739,329.8174,57.10878,284.25159c-7.44622-.01725-14.70593-3.73879-14.98807-8.45254C41.83427,271.00392,48.83227,266.99653,56.41308,266.19385Z"/>
        <path class="cls-41" d="M367.12314,308.35522,279.8071,427.523l5.04205,18.85473c22.44733,8.58869,45.07031,15.30317,65.98657,18.74689C370.74252,427.17486,355.2234,362.70849,367.12314,308.35522Z"/>
        <path class="cls-46" d="M272.21553,390.55989c39.04973-20.91682,73.18321-57.17392,71.54686-107.99036l-81.22987,11.122L245.893,379.69831Z"/>
        <path class="cls-47" d="M228.76083,375.60966C166.98976,322.54326,88.47741,264.19154,3.5524,347.45158c-25.00945,33.13682-49.65232,69.24928-74.01949,107.605L-282.73543,512.7024C-399.50262,584.7172-175.22886,706.19521-71.1026,702.79092L91.14689,644.12507,320.62005,514.50081C334.96373,455.52462,270.78208,411.70934,228.76083,375.60966Z"/>
        <path class="cls-48" d="M225.1452,508.45952l-55.98488,40.34855C105.47905,489.29184,46.72926,448.72673-41.54495,410.75493l-24.85674,37.75193L-271.71484,506.9423c-127.788,77.77553,96.48632,199.25226,200.61241,195.84809L67.04741,622.85345l107.91152-3.11338,21.8213-20.27323Z"/>
        <path class="cls-49" d="M-447.058,390.07886l15.63064-9.19717a166.60439,166.60439,0,0,1,118.72918-19.567c216.51785,45.49123,489.50634,182.48938,562.802,363.04249,53.63048,132.11077,59.43368,219.92517,57.2275,264.20249a85.87256,85.87256,0,0,1-24.00794,55.201c-159.87585,166.50705-469.75262,337.09914-642.45483,379.28193a83.86978,83.86978,0,0,1-43.26747-.85786c-295.4457-85.7175-611.33917-278.53126-740.08242-405.75689a85.41651,85.41651,0,0,1-23.54208-78.40644c8.897-42.23681,24.57229-104.80714,45.088-139.29213C-1088.02622,743.41188-447.058,390.07886-447.058,390.07886Z"/>
        <path class="cls-50" d="M-89.20244,617.16306l37.79075,15.60688c7.19632,2.97165,17.45625,5.55675,25.30783,5.39293l37.35894-2.302c37.34313,35.60081,129.09839,119.84,163.735,122.31448,23.8213,1.70136,50.72991-33.36921,70.38615-65.85325-13.524-30.81715-33.24059-60.23614-57.64889-87.98969a37.76564,37.76564,0,0,0-4.09606,8.63185l-15.553,39.38866L25.78711,580.32215,6.84647,564.78424a48.15692,48.15692,0,0,0-20.88629-11.20689L-49.096,543.52a9.44343,9.44343,0,0,0-11.27443,6.28529c-1.39889,4.36694,4.05368,10.62779,8.11382,12.76169l-38.19022,4.11259a11.63681,11.63681,0,0,0-12.2451,12.33635l1.30189,21.09034A19.77214,19.77214,0,0,0-89.20244,617.16306Z"/>
        <g>
          <path class="cls-51" d="M50.44392,303.74062C25.581,305.97977-22.6759,311.67187-94.658,334.12869c-38.36222,11.48728-14.80262,97.83632,17.94656,92.71658l29.50833-4.80537C10.48827,352.957,68.28906,307.76847,125.17877,310.50553,101.95239,304.50289,75.30682,301.50147,50.44392,303.74062Z"/>
          <path class="cls-48" d="M9.41891,362.75228C-13.21963,385.7528-41.89493,414.88711-49.265,422.376l-23.99867,3.90779Z"/>
        </g>
        <path class="cls-52" d="M6.84641,541.24158A48.1576,48.1576,0,0,0-14.04,530.03369l-35.05622-10.05678a9.44431,9.44431,0,0,0-11.27461,6.28462v0c-1.39867,4.36768,4.0541,10.62915,8.11428,12.7617l10.00658-1.07769-48.19673,5.19071a11.63653,11.63653,0,0,0-12.24487,12.33621l1.30157,21.09039a19.77231,19.77231,0,0,0,12.18774,17.05738l37.79063,15.60614c7.19613,2.97174,17.45632,5.55711,25.30762,5.39309l45.93957-2.83024,17.26592-45.729Z"/>
        <path class="cls-53" d="M208.10946,516.34515s-14.84052,30.05851-29.67507,62.55827c-27.0769,57.93486,75.40832,93.77056,96.24349,60.01134,16.50768-30.5558,35.55662-78.01384,46.785-127.91647C332.804,456.23755,238.33048,461.06368,208.10946,516.34515Z"/>
        <ellipse class="cls-54" cx="226.74002" cy="608.35896" rx="35.12837" ry="48.62185" transform="translate(-420.709 560.17769) rotate(-65.30325)"/>
        <path class="cls-52" d="M183.8475,597.29126l-16.261,36.43961L30.81206,560.90092,6.95,612.5831S131.03808,731.49152,174.9907,734.632c32.05624,2.29,49.793-27.61835,62.79384-53.33624l26.80667-53.02806C278.42068,595.27818,204.34512,556.80767,183.8475,597.29126Z"/>
        <g>
          <path class="cls-52" d="M158.12738,338.01654c-28.9265,14.86534-37.23192,59.73085-9.48533,80.253,39.19955,28.993,103.8764,5.73179,100.607-34.59725C245.80236,341.15528,185.70657,323.84358,158.12738,338.01654Z"/>
          <path class="cls-55" d="M235.78528,182.394s-22.24464,3.889-46.62,45.22394c-17.50986,29.69267-48.94317,36.848-62.27451,59.15168-21.67329,36.25993,13.05006,70.23829,45.96016,64.99226C208.29292,344.49489,220.39847,257.86511,235.78528,182.394Z"/>
          <path class="cls-56" d="M181.85743,347.35907c-6.75934,8.1618-10.63442,18.06184-3.834,28.51123,13.79895,21.20313,47.07217,24.67049,58.75768,8.69656L273.007,347.05019,213.3058,309.985Z"/>
        </g>
        <g>
          <path class="cls-52" d="M198.35978,349.56013c34.3536,18.10572,64.93484,13.3709,89.21984-13.852L339.987,276.76733c21.80563-23.18637,18.1212-64.37347-10.94564-87.29233-25.404-20.03079-68.177-19.7128-90.3804,8.41863,0,0-26.935,35.077-44.61274,65.71562S166.42631,332.72991,198.35978,349.56013Z"/>
          <g>
            <path class="cls-57" d="M334.02582,414.95208c16.03311-27.56569,13.83526-58.96689,27.45245-91.61365l.00875.0001c18.7315-47.42934,24.82094-80.01116-4.76049-115.62259-46.13315-51.59315-106.38663-38.67364-120.9381-25.31909-12.583,11.549-16.70822,59.93494,45.91884,109.35348-12.69138,8.98457-15.35926,26.34506.42192,29.88627.3075,4.73721-3.89644,23.32791-3.89644,23.32791-12.0729,3.2199-62.32851,28.3332-50.99905,65.19206C239.92023,451.43045,305.87064,463.35923,334.02582,414.95208Z"/>
            <path class="cls-58" d="M307.773,309.578c-19.68147,16.84924-33.65753,6.76451-59.82947-27.00845-7.78648-10.04788-18.985-21.22185-25.9145-25.2722-11.362-6.64115-18.12378,1.23855-25.068-1.96141-6.99085-3.22145-6.05306-11.21782-3.5232-17.53012,11.969-29.864,45.97493-41.50987,86.49467-11.05539S321.2,298.08319,307.773,309.578Z"/>
            <path class="cls-52" d="M272.74048,345.7642c11.79441,7.30423,31.92168-3.01546,40.21017-16.39919s3.67593-31.82375-10.19492-32.06757C285.34332,296.99137,260.94607,338.46,272.74048,345.7642Z"/>
          </g>
        </g>
      </g>
    </g>
  </g>
  <g>
    <ellipse class="cls-11" cx="895.56805" cy="404.45656" rx="9.91662" ry="5.7164"/>
    <path class="cls-59" d="M905.48461,404.459c-.00257,3.156-4.44124,5.71409-9.91678,5.71409-5.47681,0-9.91634-2.55939-9.91634-5.71666v53.52265c0,3.15716,4.43953,5.71644,9.91634,5.71644s9.91678-2.55928,9.91678-5.71644V404.459Z"/>
    <path class="cls-60" d="M905.48461,410.95336c-.00257,3.156-4.44124,5.71409-9.91678,5.71409-5.47681,0-9.91634-2.55939-9.91634-5.71666v3.91979c0,3.15715,4.43953,5.71644,9.91634,5.71644s9.91678-2.55929,9.91678-5.71644Z"/>
    <path class="cls-61" d="M905.48461,446.11254c-.00257,3.156-4.44124,5.71409-9.91678,5.71409-5.47681,0-9.91634-2.55939-9.91634-5.71666v3.91978c0,3.15716,4.43953,5.71644,9.91634,5.71644s9.91678-2.55928,9.91678-5.71644Z"/>
    <path class="cls-32" d="M895.56812,400.05577c5.0686,0,8.60083,2.31934,8.60083,4.40088s-3.53223,4.40064-8.60083,4.40064c-5.06885,0-8.60108-2.31909-8.60108-4.40064s3.53223-4.40088,8.60108-4.40088m0-1.31567c-5.47681,0-9.91675,2.55933-9.91675,5.71655,0,3.157,4.43994,5.71631,9.91675,5.71631s9.9165-2.55933,9.9165-5.71631c0-3.15722-4.4397-5.71655-9.9165-5.71655Z"/>
  </g>
  <g>
    <circle class="cls-33" cx="105.34043" cy="169.43726" r="62.02326"/>
    <g>
      <rect class="cls-62" x="84.28363" y="160.79502" width="13.46241" height="40.4658" transform="translate(-101.34844 117.37906) rotate(-45)"/>
      <rect class="cls-62" x="110.49446" y="143.61416" width="13.46241" height="60.59444" transform="translate(77.14282 379.77635) rotate(-135)"/>
    </g>
  </g>
  <g>
    <g>
      <polygon class="cls-63" points="750.714 265.91 750.754 356.612 673.474 311.858 673.435 221.156 750.714 265.91"/>
      <polygon class="cls-64" points="747.408 264.001 747.439 342.629 683.885 305.8 683.855 227.172 747.408 264.001"/>
      <polygon class="cls-65" points="736.052 272.657 736.072 325.962 692.988 300.995 692.967 247.69 736.052 272.657"/>
      <path class="cls-66" d="M746.41632,349.10536,677.804,309.35585l-.0322-80.69349,68.61233,39.74952.03218,80.69348m4.33729,7.5063-.03922-90.70188-77.27987-44.75372.03924,90.70189,77.27985,44.75371Z"/>
      <polygon class="cls-67" points="678.325 218.325 755.605 263.079 750.714 265.91 673.435 221.156 678.325 218.325"/>
      <polygon class="cls-68" points="755.605 263.079 755.628 353.79 750.754 356.612 750.714 265.91 755.605 263.079"/>
    </g>
    <g>
      <polygon class="cls-69" points="815.963 336.547 816.002 395.249 762.971 364.495 762.932 305.793 815.963 336.547"/>
      <polygon class="cls-70" points="812.657 334.638 812.687 381.266 773.383 358.437 773.352 311.809 812.657 334.638"/>
      <path class="cls-71" d="M811.665,387.74243l-44.3636-25.74951-.0322-48.69349,44.36362,25.74951.03218,48.69349m4.33729,7.5063-.03922-58.70188-53.03116-30.75372.03924,58.70188,53.03114,30.75372Z"/>
      <polygon class="cls-72" points="767.823 302.962 820.854 333.716 815.963 336.547 762.932 305.793 767.823 302.962"/>
      <polygon class="cls-73" points="820.854 333.716 820.876 392.427 816.002 395.249 815.963 336.547 820.854 333.716"/>
    </g>
  </g>
  <g>
    <g>
      <g>
        <g>
          <path class="cls-74" d="M851.96452,451.262,631.13436,320.633a3.36625,3.36625,0,0,0-3.67168.14533v-.00014l-20.47886,11.8456,21.02741,12.29954v98.81449l228.9556,120.32948V460.03A10.1855,10.1855,0,0,0,851.96452,451.262Z"/>
          <path class="cls-75" d="M605.37679,335.50956v121.3385L836.33213,576.02118V471.98394a10.18536,10.18536,0,0,0-5.00238-8.768l-220.8302-130.629A3.39511,3.39511,0,0,0,605.37679,335.50956Z"/>
          <path class="cls-76" d="M836.332,471.98394V585.92357L472.57978,660.03405,461.55686,891.8121a21.197,21.197,0,0,0,10.66553-2.83569L851.69744,669.6449a10.88259,10.88259,0,0,0,5.26646-9.71059l.003-75.53416V460.03Z"/>
          <path class="cls-77" d="M472.57987,660.03408,461.557,891.8121a21.05431,21.05431,0,0,1-10.5068-2.83567L237.65274,765.8374a10.45041,10.45041,0,0,1-5.27991-9.00433V680.58212Z"/>
          <g>
            <path class="cls-39" d="M836.33213,564.37871v39.837l-.01059-.01059a10.47112,10.47112,0,0,1-5.25866,9.618L472.21952,820.99185a21.09094,21.09094,0,0,1-10.66554,2.83567l11.02293-196.17884Z"/>
            <path class="cls-78" d="M836.33213,580.15524v39.837l-.01059-.01059a10.47111,10.47111,0,0,1-5.25866,9.618L472.21952,836.76839a21.091,21.091,0,0,1-10.66554,2.83566l11.02293-196.17884Z"/>
            <path class="cls-79" d="M472.57691,643.42521,461.554,839.60405a21.07406,21.07406,0,0,1-10.49621-2.83566L237.6603,713.62936a10.48748,10.48748,0,0,1-5.29044-9.17367V663.82517Z"/>
            <path class="cls-41" d="M735.76379,566.1444l-263.18,54.74945L461.56091,817.06627a21.08441,21.08441,0,0,0,10.66079-2.83894l231.39654-133.684,127.43815-73.48265a10.46557,10.46557,0,0,0,5.26072-9.60863h.02V557.60782Z"/>
            <path class="cls-41" d="M472.57691,620.88731,461.554,817.06615a21.074,21.074,0,0,1-10.49621-2.83567L237.6603,691.09146a10.48751,10.48751,0,0,1-5.29044-9.17367V641.28727Z"/>
            <path class="cls-42" d="M831.06057,548.53122,617.73169,425.408a21.16192,21.16192,0,0,0-21.16285-.0006L463.4572,502.15126h0L237.65732,632.56145a10.434,10.434,0,0,0-4.95979,6.5147,10.75875,10.75875,0,0,0-.33065,2.6488,10.4816,10.4816,0,0,0,5.29066,9.16327L387.2709,737.26356l63.78354,36.76386a21.14654,21.14654,0,0,0,9.21292,2.79073q.68387.04425,1.36928.0442a21.14754,21.14754,0,0,0,10.58175-2.83652L831.06123,566.85678A10.5809,10.5809,0,0,0,831.06057,548.53122Z"/>
            <path class="cls-41" d="M691.05319,537.6016l-13.32013,48.34891a71.55184,71.55184,0,0,1-15.30735,28.31054l-2.1331,2.4198-35.195-44.766,55.86081-38.88638Z"/>
          </g>
        </g>
        <path class="cls-80" d="M851.69744,444.679V669.6449l-5.96382,3.44876V444.679a7.46641,7.46641,0,0,0-3.65566-6.41674L615.72606,304.36614a.44359.44359,0,0,0-.49788,0,.453.453,0,0,0-.24895.43005v23.21118l-5.9641,3.44043V304.79619a6.453,6.453,0,0,1,9.74409-5.5567L845.11113,433.1356A13.462,13.462,0,0,1,851.69744,444.679Z"/>
      </g>
      <path class="cls-81" d="M824.21776,666.11549,490.87483,858.77209a10.18534,10.18534,0,0,0-5.08647,8.81718v13.5422L829.30209,682.59564l.0104-13.53849A3.39511,3.39511,0,0,0,824.21776,666.11549Z"/>
    </g>
    <g>
      <path class="cls-41" d="M604.02668,478.94351c.21888-.23611,42.78331-24.64927,42.78331-24.64927-.22149-1.478-.57369-3.22638.377-3.72061,1.07915-.56095,3.28808.52707,4.44892,1.87816,14.76707-3.11791,21.55635-3.06449,50.93153,13.63654,38.07074,21.64484,40.38234,31.336,48.90471,46.45362,2.64972,1.25847,4.06245,2.109,3.457,3.69471-.56041,1.46774-4.249,2.22721-6.11329,1.579l-40.168,23.06444c.38273,1.69764-.26435,3.96988-1.33345,4.50488-1.40495.70324-3.41444-.7543-4.31286-3.5823l-.001-.00225c-17.51136-.72572-41.35544-11.38782-57.18307-21.36885-13.153-8.29452-35.543-21.62681-41.57363-35.851-2.32448-.00538-4.59073-1.16713-4.6788-2.63861C599.47564,480.44507,601.66019,479.19409,604.02668,478.94351Z"/>
      <path class="cls-45" d="M600.058,468.6831c.21888-.23612,42.78331-24.64928,42.78331-24.64928-.22149-1.47794-.57369-3.22638.377-3.72061,1.07915-.56094,3.28808.52707,4.44892,1.87816,14.76707-3.1179,21.55635-3.06449,50.93153,13.63655,38.07074,21.64484,40.38234,31.336,48.9047,46.45361,2.64973,1.25847,4.06245,2.109,3.457,3.69471-.56041,1.46774-4.249,2.22721-6.11329,1.579l-40.168,23.06445c.38273,1.69763-.26435,3.96988-1.33344,4.50487-1.40495.70324-3.41444-.75429-4.31286-3.5823l-.001-.00225c-17.51136-.72571-41.35544-11.38781-57.18307-21.36884-13.153-8.29453-35.543-21.62681-41.57363-35.851-2.32448-.00539-4.59073-1.16714-4.67881-2.63862C595.507,470.18465,597.69154,468.93367,600.058,468.6831Z"/>
      <path class="cls-46" d="M696.8707,482.35327l-23.52411,36.30487,2.11407,7.76972a98.67784,98.67784,0,0,0,17.55371,4.51611C698.71475,518.04938,691.73469,499.21687,696.8707,482.35327Z"/>
      <path class="cls-46" d="M667.42476,507.50626c12.19009-6.52957,22.84549-17.8479,22.33467-33.71119L664.402,477.267l-5.19435,26.8486Z"/>
      <path class="cls-82" d="M598.19465,480.404c-7.76142.699-22.82571,2.47589-45.29625,9.4862-11.97548,3.586-4.62092,30.54141,5.60235,28.94319l9.21157-1.50008c18.00943-21.5655,36.053-35.67194,53.81219-34.81752A70.60812,70.60812,0,0,0,598.19465,480.404Z"/>
      <path class="cls-83" d="M653.85957,502.83927c-19.283-16.56566-43.79207-34.78123-70.303-8.79007-7.80716,10.34428-15.49989,21.61745-23.10655,33.59088L494.18655,545.6353c-36.451,22.48075,33.56016,60.40236,66.0651,59.33965l50.64918-18.31363,71.63429-40.46461C687.01277,527.7862,666.97728,514.10845,653.85957,502.83927Z"/>
      <path class="cls-48" d="M635.25418,556.90631c-19.68066-18.39343-37.86658-30.98706-64.96643-42.73883,3.85071-3.91248,9.96674-10.1264,15.10016-15.34192l-25.81085,19.83258,7.49163-1.21991.06446-.06549-5.414,8.22272-64.09229,18.2417c-39.89142,24.279,30.11994,62.20031,62.62482,61.13763l43.126-24.9538,33.68658-.97192,6.812-6.32867,8.85461-28.40961Z"/>
      <path class="cls-84" d="M442.89022,507.3561l4.87939-2.87107a52.00865,52.00865,0,0,1,37.06351-6.1082c67.59005,14.20093,152.80846,56.96743,175.68907,113.33043,16.74175,41.24082,18.55332,68.65371,17.86462,82.47569a26.80669,26.80669,0,0,1-7.49452,17.232c-49.90821,51.97826-146.642,105.23174-200.55416,118.39988a26.18165,26.18165,0,0,1-13.50675-.2678C364.60255,802.78873,265.99055,742.59835,225.801,702.88252a26.66435,26.66435,0,0,1-7.3491-24.476c2.77735-13.185,7.6707-32.71749,14.075-43.48262C242.80013,617.65553,442.89022,507.3561,442.89022,507.3561Z"/>
      <path class="cls-50" d="M554.60147,578.24463l11.79706,4.87195a21.93808,21.93808,0,0,0,7.90033,1.68353l11.66229-.71863c11.65735,11.11346,40.30042,37.41028,51.11292,38.18274,6.73632.48114,14.26355-8.45776,20.18219-17.68292a120.61074,120.61074,0,0,0-18.17286-25.90467l-4.167,10.55317L590.49759,566.744l-5.91272-4.85041a15.03257,15.03257,0,0,0-6.52-3.49847l-10.94342-3.13959a2.948,2.948,0,0,0-3.51953,1.9621c-.43671,1.36322,1.26544,3.31769,2.5329,3.98383L554.213,562.48529a3.6326,3.6326,0,0,0-3.82251,3.851l.40637,6.58374A6.17226,6.17226,0,0,0,554.60147,578.24463Z"/>
      <path class="cls-50" d="M528.49393,547.7666l7.13726,10.96051a18.984,18.984,0,0,0,7.36426,6.27557l9.42682,4.53107a5.72478,5.72478,0,0,0,6.29529-.89136l4.60242-4.113a6.72762,6.72762,0,0,0,1.20373-8.61084L557.89084,545.426a14.9495,14.9495,0,0,0-9.12671-6.54425l-7.37482-1.53369-1.59631-14.2008,11.72027-3.28644c-10.62323-4.613-21.41577-8.6864-32.11022-12.17371-7.91449,3.93115-14.08777,8.31091-13.62037,12.27576C506.90616,529.49365,523.05313,544.64007,528.49393,547.7666Z"/>
      <g>
        <path class="cls-85" d="M534.77186,545.30786,546.462,535.07461l8.90866,1.85264a14.95078,14.95078,0,0,1,9.12669,6.5442l6.6327,10.49282a6.72752,6.72752,0,0,1-1.20371,8.61089l-4.60233,4.113a5.7252,5.7252,0,0,1-6.29534.89116l-9.42672-4.53118a18.98465,18.98465,0,0,1-7.36435-6.27544Z"/>
        <ellipse class="cls-54" cx="556.23694" cy="504.73347" rx="8.79289" ry="12.83657" transform="translate(-95.10811 130.69466) rotate(-12.35397)"/>
        <path class="cls-52" d="M523.52233,503.43789c-8.80519,4.19783-12.09715,8.86254-11.13326,14.57039,1.598,9.463,22.38279,27.29958,22.38279,27.29958L546.462,535.07461l-7.62546-14.34045,18.23515-4.40231c11.60039-1.98208,5.216-24.30658-4.287-22.781A122.41529,122.41529,0,0,0,523.52233,503.43789Z"/>
        <path class="cls-52" d="M535.10037,545.81223l7.13723,10.96045a18.98389,18.98389,0,0,0,7.36426,6.27557l9.42681,4.53106a5.72486,5.72486,0,0,0,6.2953-.89132l4.60238-4.113a6.72766,6.72766,0,0,0,1.20376-8.61085l-6.63286-10.49263a14.94979,14.94979,0,0,0-9.12672-6.54426l-7.37477-1.53376C538.16887,532.66838,533.43218,543.00567,535.10037,545.81223Z"/>
        <path class="cls-56" d="M571.13011,553.96415l-4.06141-6.42494-2.68382-.76976a2.94794,2.94794,0,0,0-3.51952,1.96207h0c-.43669,1.36322,1.26543,3.31766,2.53288,3.9838l-11.92179,1.28382a3.63235,3.63235,0,0,0-3.82231,3.851l.26332,4.26954a19.0512,19.0512,0,0,0,1.6844.92855l9.42681,4.53106a5.72486,5.72486,0,0,0,6.2953-.89132l4.60238-4.113A6.72766,6.72766,0,0,0,571.13011,553.96415Z"/>
        <path class="cls-52" d="M557.46945,537.6016l11.7986,4.69077c3.39448,1.36662,1.16291,4.89625-1.36973,4.32795l-3.1955-.70841Z"/>
      </g>
      <path class="cls-52" d="M584.58488,554.54434a15.0333,15.0333,0,0,0-6.52007-3.49875l-10.94345-3.13941a2.9482,2.9482,0,0,0-3.51957,1.96186h0c-.43661,1.36345,1.26557,3.31809,2.533,3.9838l3.12374-.33642L554.213,555.1358a3.63256,3.63256,0,0,0-3.82247,3.851l.40631,6.58376a6.17229,6.17229,0,0,0,3.80463,5.32478l11.797,4.87174a21.93643,21.93643,0,0,0,7.90024,1.68356l14.34088-.88352,5.38988-14.27515Z"/>
      <path class="cls-86" d="M647.41286,546.77246s-4.63274,9.38332-9.26362,19.52872c-8.45256,18.08543,23.5401,29.27221,30.04418,18.73365a165.7032,165.7032,0,0,0,14.60482-39.9315C686.33858,528.00876,656.84691,529.51532,647.41286,546.77246Z"/>
      <ellipse class="cls-54" cx="653.22873" cy="575.49627" rx="10.96597" ry="15.17821" transform="translate(-142.55708 928.52414) rotate(-65.30325)"/>
      <path class="cls-52" d="M639.839,572.04128l-5.07616,11.3753L592.0662,560.68136l-7.449,16.13355s38.73639,37.11946,52.457,38.09983c10.007.71487,15.54379-8.62157,19.60226-16.64989l8.3682-16.55369C669.36181,571.41286,646.23775,559.40358,639.839,572.04128Z"/>
      <g>
        <path class="cls-52" d="M631.81,491.10388c-9.02994,4.64049-11.62263,18.64609-2.961,25.05245,12.23686,9.05071,32.42694,1.78929,31.40635-10.80017C659.1794,492.08369,640.41939,486.67953,631.81,491.10388Z"/>
        <path class="cls-87" d="M656.05238,442.52341s-6.94407,1.214-14.55328,14.1175c-5.466,9.26911-15.27852,11.50278-19.44014,18.46529-6.76572,11.31921,4.07382,21.92618,14.34731,20.28853C647.47013,493.12622,651.2491,466.08313,656.05238,442.52341Z"/>
        <path class="cls-56" d="M639.21781,494.02032c-2.11006,2.54786-3.31974,5.63834-1.19685,8.90031,4.30759,6.61895,14.69445,7.70135,18.34229,2.71479l11.30857-11.71152L649.035,482.35331Z"/>
      </g>
      <g>
        <path class="cls-52" d="M644.36932,494.70742c10.72411,5.652,20.27061,4.174,27.85162-4.32415l16.35992-18.39946c6.807-7.23806,5.65687-20.09537-3.41688-27.24992-7.93034-6.253-21.28271-6.15372-28.21391,2.628a226.13547,226.13547,0,0,0-13.9267,20.51435C637.50493,477.44067,634.4007,489.45356,644.36932,494.70742Z"/>
        <g>
          <path class="cls-88" d="M686.72,515.12073c5.005-8.60514,4.31894-18.4076,8.56979-28.59889l.00274,0c5.84738-14.80595,7.74831-24.977-1.48608-36.09373-14.40132-16.10576-33.21056-12.07269-37.75307-7.90382-3.928,3.60522-5.21578,18.70979,14.33442,34.13671-3.96185,2.8047-4.79468,8.22409.13171,9.32955.096,1.47881-1.21635,7.28224-1.21635,7.28224-3.76878,1.00515-19.457,8.84473-15.92029,20.35091C657.34318,526.50813,677.93082,530.23192,686.72,515.12073Z"/>
          <path class="cls-89" d="M678.52469,482.22626c-6.14393,5.2598-10.50682,2.11166-18.67687-8.43119-2.4307-3.13663-5.92652-6.62479-8.0897-7.88918-3.54684-2.07316-5.65767.38663-7.82544-.6123-2.18232-1.00563-1.88957-3.50185-1.09983-5.47235,3.73634-9.32259,14.35192-12.95807,27.00091-3.45114S682.71617,478.638,678.52469,482.22626Z"/>
          <path class="cls-52" d="M667.58863,493.52246c3.68184,2.28015,9.96494-.94134,12.55235-5.11931s1.14751-9.93438-3.18253-10.01049C671.52284,478.29711,663.90679,491.24231,667.58863,493.52246Z"/>
        </g>
      </g>
    </g>
  </g>
</svg>
