<svg id="Layer_1" data-name="Layer 1" xmlns="http://www.w3.org/2000/svg" xmlns:xlink="http://www.w3.org/1999/xlink" viewBox="0 0 1000 1000">
  <defs>
    <style>
      .cls-1 {
        fill: none;
      }

      .cls-2 {
        fill: url(#linear-gradient);
      }

      .cls-11, .cls-3 {
        fill: #5a9137;
      }

      .cls-4 {
        fill: #fff;
      }

      .cls-5 {
        fill: #b8cbd8;
      }

      .cls-6 {
        fill: #9bb0c4;
      }

      .cls-7 {
        fill: #c7d8e2;
      }

      .cls-8 {
        fill: url(#linear-gradient-2);
      }

      .cls-11, .cls-9 {
        opacity: 0.7;
      }

      .cls-10 {
        fill: url(#linear-gradient-3);
      }

      .cls-12 {
        fill: #87a1af;
      }

      .cls-13 {
        fill: #939393;
      }

      .cls-14 {
        fill: #6b483c;
      }

      .cls-15 {
        fill: url(#linear-gradient-4);
      }

      .cls-16 {
        fill: #366d26;
      }

      .cls-17 {
        fill: url(#linear-gradient-5);
      }

      .cls-18 {
        fill: url(#linear-gradient-6);
      }

      .cls-19 {
        fill: url(#linear-gradient-7);
      }

      .cls-20 {
        fill: url(#linear-gradient-8);
      }

      .cls-21 {
        fill: url(#linear-gradient-9);
      }

      .cls-22 {
        fill: #e2e2e2;
      }

      .cls-23 {
        fill: url(#linear-gradient-10);
      }

      .cls-24 {
        fill: #f49b25;
      }

      .cls-25 {
        fill: #27343d;
      }

      .cls-26 {
        fill: #ffbda3;
      }

      .cls-27 {
        fill: #e48f7c;
      }

      .cls-28 {
        fill: #455260;
      }

      .cls-29 {
        fill: url(#linear-gradient-11);
      }

      .cls-30 {
        fill: #dd7b19;
        opacity: 0.5;
      }

      .cls-31 {
        fill: #cddce8;
      }

      .cls-32 {
        fill: #303d49;
      }

      .cls-33 {
        fill: #e9f1f4;
      }

      .cls-34 {
        fill: url(#linear-gradient-12);
      }

      .cls-35 {
        fill: url(#linear-gradient-13);
      }

      .cls-36 {
        fill: url(#linear-gradient-14);
      }

      .cls-37 {
        fill: #a0674a;
      }

      .cls-38 {
        fill: url(#linear-gradient-15);
      }

      .cls-39 {
        fill: url(#linear-gradient-16);
      }

      .cls-40 {
        fill: #515151;
      }

      .cls-41 {
        fill: #e0c390;
      }

      .cls-42 {
        fill: url(#linear-gradient-17);
      }

      .cls-43 {
        fill: url(#linear-gradient-18);
      }

      .cls-44 {
        fill: url(#linear-gradient-19);
      }

      .cls-45 {
        clip-path: url(#clip-path);
      }
    </style>
    <linearGradient id="linear-gradient" x1="79.31392" y1="448.83104" x2="920.68608" y2="448.83104" gradientUnits="userSpaceOnUse">
      <stop offset="0" stop-color="#e6f4ff"/>
      <stop offset="1" stop-color="#c0e3ff"/>
    </linearGradient>
    <linearGradient id="linear-gradient-2" x1="410.16706" y1="720.74224" x2="1000.48295" y2="787.92539" gradientUnits="userSpaceOnUse">
      <stop offset="0.00005" stop-color="#9dcc52"/>
      <stop offset="1" stop-color="#69a642"/>
    </linearGradient>
    <linearGradient id="linear-gradient-3" x1="110.38062" y1="533.51614" x2="937.18117" y2="696.54724" gradientUnits="userSpaceOnUse">
      <stop offset="0.00005" stop-color="#9dcc52"/>
      <stop offset="1" stop-color="#649e3f"/>
    </linearGradient>
    <linearGradient id="linear-gradient-4" x1="415.25204" y1="120.36063" x2="523.34226" y2="330.56922" gradientUnits="userSpaceOnUse">
      <stop offset="0" stop-color="#77bf49"/>
      <stop offset="0.99995" stop-color="#366d26"/>
    </linearGradient>
    <linearGradient id="linear-gradient-5" x1="360.27259" y1="329.01474" x2="436.11489" y2="495.62893" gradientUnits="userSpaceOnUse">
      <stop offset="0" stop-color="#67a63f"/>
      <stop offset="0.99995" stop-color="#366d26"/>
    </linearGradient>
    <linearGradient id="linear-gradient-6" x1="115.68271" y1="450.47206" x2="176.59543" y2="623.05809" xlink:href="#linear-gradient-5"/>
    <linearGradient id="linear-gradient-7" x1="801.74315" y1="393.08563" x2="885.94602" y2="585.9759" xlink:href="#linear-gradient-4"/>
    <linearGradient id="linear-gradient-8" x1="736.43564" y1="498.10132" x2="795.5568" y2="636.64789" xlink:href="#linear-gradient-5"/>
    <linearGradient id="linear-gradient-9" x1="294.34801" y1="479.54212" x2="324.23957" y2="538.34519" xlink:href="#linear-gradient-5"/>
    <linearGradient id="linear-gradient-10" x1="507.28941" y1="826.35532" x2="507.28941" y2="908.20433" xlink:href="#linear-gradient-5"/>
    <linearGradient id="linear-gradient-11" x1="1028.25129" y1="379.52817" x2="969.36921" y2="497.04388" gradientTransform="matrix(-1, 0, 0, 1, 1500.70611, 0)" gradientUnits="userSpaceOnUse">
      <stop offset="0.00005" stop-color="#ffcb48"/>
      <stop offset="1" stop-color="#e68e2b"/>
    </linearGradient>
    <linearGradient id="linear-gradient-12" x1="1024.06906" y1="377.43263" x2="965.18698" y2="494.94835" xlink:href="#linear-gradient-11"/>
    <linearGradient id="linear-gradient-13" x1="998.1201" y1="364.43072" x2="939.23802" y2="481.94644" xlink:href="#linear-gradient-11"/>
    <linearGradient id="linear-gradient-14" x1="982.51205" y1="356.6102" x2="923.62997" y2="474.12592" xlink:href="#linear-gradient-11"/>
    <linearGradient id="linear-gradient-15" x1="-585.0638" y1="634.80265" x2="-481.30836" y2="634.80265" gradientTransform="translate(919.59946)" gradientUnits="userSpaceOnUse">
      <stop offset="0.00005" stop-color="#e6ac72"/>
      <stop offset="1" stop-color="#b3703f"/>
    </linearGradient>
    <linearGradient id="linear-gradient-16" x1="-596.37364" y1="597.70752" x2="-480.3486" y2="658.57719" xlink:href="#linear-gradient-15"/>
    <linearGradient id="linear-gradient-17" x1="-559.33144" y1="592.51601" x2="-539.9682" y2="592.51601" gradientTransform="translate(919.59946)" xlink:href="#linear-gradient-11"/>
    <linearGradient id="linear-gradient-18" x1="492.54743" y1="330.34587" x2="520.29211" y2="385.32459" gradientUnits="userSpaceOnUse">
      <stop offset="0" stop-color="#966551"/>
      <stop offset="1" stop-color="#805345"/>
    </linearGradient>
    <linearGradient id="linear-gradient-19" x1="515.92642" y1="318.5478" x2="543.6711" y2="373.52653" xlink:href="#linear-gradient-18"/>
    <clipPath id="clip-path">
      <circle class="cls-1" cx="1292.54335" cy="288.28891" r="196.04503"/>
    </clipPath>
  </defs>
  <path class="cls-2" d="M79.34318,582.50156S76.916,493.18774,116.27249,454.91318s101.191-29.83447,150.323-53.496,68.673-70.454,112.94076-112.54122,137.15895-27.051,188.88842,3.59733,84.58457,73.86257,134.86125,101.30245,124.53069,34.14994,152.8969,43.40629,64.50325,29.24171,64.50325,69.11385V608.247L79.34318,634.70046Z"/>
  <path class="cls-3" d="M79.34318,577.088s21.42047-26.66578,59.02509-30.45568,39.07465,2.74482,54.19441,0,13.60385-4.9883,51.955-15.36235,99.43105-18.229,99.43105-18.229L79.31392,643.21032Z"/>
  <path class="cls-4" d="M500.00631,431.57193q26.90507-15.31458,58.96574,7.99895c11.73914-9.70807,38.27648-9.70807,52.067,12.54083,0,0,10.86655-12.90471,36.93273-11.38763,42.32538,2.46338,57.721,39.794,57.721,39.794,17.07625-17.62358,66.11994-8.44188,76.44291,33.81255,26.17335-17.23562,59.32356-4.3669,54.447,42.58667l84.1034,12.24225v61.80849H752.9462Z"/>
  <path class="cls-5" d="M120.18373,698.04762,478.974,905.18614a42.10143,42.10143,0,0,0,42.1011-.00061L887.80371,693.4498a21.92256,21.92256,0,0,0,.00026-37.97061L500.00652,431.572,120.18213,650.88832A27.22767,27.22767,0,0,0,120.18373,698.04762Z"/>
  <ellipse class="cls-6" cx="529.72818" cy="695.51705" rx="68.99789" ry="39.65396"/>
  <ellipse class="cls-6" cx="407.08735" cy="676.64269" rx="68.952" ry="39.62759"/>
  <path class="cls-7" d="M580.05931,481.71029l-31.94851,17.169,1.73895,2.51848a9.0369,9.0369,0,0,0,7.14774,3.8976l24.93255.79693a9.03687,9.03687,0,0,0,5.75935-1.8394l0,0a9.0369,9.0369,0,0,0,1.06609-13.43282Z"/>
  <path class="cls-7" d="M402.25333,851.28994l53.97046-31.83584-7.90891-4.25864a15.72082,15.72082,0,0,0-7.97719-1.87036l-21.17905.70627a15.72081,15.72081,0,0,0-12.62807,7.1l-6.11869,9.34425a15.72077,15.72077,0,0,0-.72111,16.00663Z"/>
  <path class="cls-7" d="M461.149,813.47844l2.01709.97425,26.57467-15.37748-.3353-1.40824a6.32783,6.32783,0,0,0-6.15576-4.86218h-8.72643a6.32782,6.32782,0,0,0-3.99509,1.42062L459.906,802.8732A6.32783,6.32783,0,0,0,461.149,813.47844Z"/>
  <path class="cls-8" d="M546.99683,890.21926l-25.91924,14.96483a42.10145,42.10145,0,0,1-42.10484-.00154l-60.42257-34.8917S503.678,808.41656,577.746,764.14c63.00286-37.662,110.92683-85.84513,150.04235-112.41979,43.47722-29.538,79.03487-42.99775,79.03487-42.99775,24.65112-3.35862,73.135-11.75652,113.86283-10.0065C788.03937,712.70651,661.76727,813.43084,546.99683,890.21926Z"/>
  <g class="cls-9">
    <ellipse class="cls-3" cx="774.47834" cy="670.63973" rx="36.44972" ry="20.94811"/>
  </g>
  <path class="cls-3" d="M919.12044,598.661c-31.35069-1.14458-67.0089,3.54635-92.78663,7.258a16.27908,16.27908,0,0,0-.29294,3.034c0,15.319,21.60812,27.73742,48.26307,27.73742.62464,0,1.24361-.0136,1.86247-.02709q21.65364-18.30567,43.54966-37.11564C919.5287,599.249,919.32505,598.95489,919.12044,598.661Z"/>
  <path class="cls-3" d="M79.34318,634.70046v27.61648A21.05072,21.05072,0,0,0,89.867,680.54648l72.83128,42.05763-12.59478-82.778Z"/>
  <path class="cls-10" d="M162.69823,722.60411s81.5061-34.76645,143.18-72.67547c54.69711-33.6206,101.60051-70.79891,150.49025-106.74655,44.77344-32.921,119.55948-67.77444,119.55948-67.77444L500.00652,431.572C343.72008,515.595,283.92859,535.03785,205.55142,567.9652c-65.33077,27.44638-126.20824,66.73526-126.20824,66.73526s23.5283,17.73609,39.318,37.47326C133.59081,690.83571,162.69823,722.60411,162.69823,722.60411Z"/>
  <g class="cls-9">
    <ellipse class="cls-3" cx="152.79155" cy="630.4774" rx="37.56125" ry="21.58693"/>
  </g>
  <g class="cls-9">
    <ellipse class="cls-3" cx="405.67506" cy="514.51814" rx="36.44972" ry="20.94811"/>
  </g>
  <path class="cls-11" d="M496.64448,475.86127c20.13067,0,36.44977-9.37875,36.44977-20.948a12.64147,12.64147,0,0,0-1.00763-4.81888L505.1974,434.56907a62.28972,62.28972,0,0,0-8.55292-.604c-.39252,0-.77315.02666-1.16267.03373q-18.39144,9.85836-35.03988,18.551a12.288,12.288,0,0,0-.24712,2.36346C460.19481,466.48252,476.51391,475.86127,496.64448,475.86127Z"/>
  <path class="cls-12" d="M159.31176,715.51323c.81287-.346,81.98182-35.15306,142.4324-72.31045,42.10914-25.8817,80.25929-54.40844,117.15372-81.99639,10.713-8.01051,21.79164-16.2934,32.795-24.38443,44.88781-33.00481,117.81755-67.13343,120.9003-68.57073l12.169,12.26692s-2.52359,1.16418-5.24321,2.44171-74.86009,34.51421-118.4742,66.582c-10.95193,8.05334-22.00407,16.31739-32.69217,24.30906-37.1771,27.79867-75.61933,56.54468-118.34091,82.80326-50.7981,31.22421-133.68725,68.6046-138.75612,70.882Z"/>
  <polygon class="cls-12" points="584.762 467.75 584.762 480.518 567.606 470.624 567.606 457.856 584.762 467.75"/>
  <path class="cls-7" d="M584.76213,467.75035c-.14037.07013-8.42659,3.37-13.56646,5.87852-20.64728,10.01667-75.23237,36.20234-110.15908,61.88424-10.94636,8.05184-21.998,16.31429-32.68125,24.296-37.17206,27.80455-75.62468,56.55624-118.34005,82.81707C257.96731,674.6057,191.02607,704.796,171.25591,713.497l-17.15628-9.89386,5.21-2.12265c.807-.35087,81.99253-35.15466,142.44321-72.30917,42.10144-25.8924,80.25587-54.41614,117.1473-81.99253,10.7183-8.01683,21.78746-16.29683,32.7865-24.38379,38.25968-28.13775,115.70871-64.8508,115.91921-64.93849l8.33258,4.80657Z"/>
  <path class="cls-3" d="M546.99683,890.21926s53.59147-38.4426,108.23376-81.14122S743.06888,715.70373,788.578,674.45561s132.10812-75.73969,132.10812-75.73969v63.5953a21.05072,21.05072,0,0,1-10.52518,18.23035Z"/>
  <path class="cls-12" d="M418.55018,870.29085l-13.281-19.26876c.96363-.54991,97.12573-55.50483,168.25242-100.56823,36.54153-23.14928,68.55874-48.90935,96.8071-71.63549,18.99327-15.281,36.93383-29.71392,53.02338-40.64529,36.3956-24.72649,67.04621-38.27251,77.17363-42.45056l9.09268,13.36706c-.34519.1302-35.29353,13.54215-77.39411,42.14426-15.56276,10.57162-33.26092,24.811-51.99894,39.88639-28.57385,22.98825-60.96023,49.043-98.25467,72.67191C510.534,809.05085,445.31893,851.3222,418.55018,870.29085Z"/>
  <polygon class="cls-12" points="418.55 856.257 418.55 870.291 401.394 860.397 401.394 846.363 401.517 846.433 418.55 856.257"/>
  <polygon class="cls-13" points="812.14 600.97 812.14 608.023 809.618 609.09 794.984 605.11 794.984 591.077 812.14 600.97"/>
  <path class="cls-7" d="M418.55018,856.257l-17.03347-9.82373c.96362-.54991,100.87824-57.93295,172.00493-102.99636,36.54153-23.14928,68.55874-48.90934,96.8071-71.63548,18.99327-15.281,36.93383-29.71393,53.02338-40.6453a460.31851,460.31851,0,0,1,71.62921-40.08523l17.15877,9.89949c-.3452.13019-37.8152,14.64439-79.91578,43.24651-15.56276,10.57161-33.26092,24.811-51.99894,39.88638-28.57385,22.98825-60.96023,49.043-98.25467,72.67192C510.534,802.03394,419.51552,855.70542,418.55018,856.257Z"/>
  <g>
    <path class="cls-14" d="M536.90627,335.17091l-11.59721,27.90637s-9.569,13.17994-17.86458,19.25609l.48534-27.02864H500.5746l-3.17084,30.51216c-.38319,1.551-3.36624,2.284-5.54487,1.78247C483.363,385.64359,459.5854,357.364,459.5854,357.364l-1.97082-21.58417L430.799,329.33511s12.75255,28.868,16.38207,35.5798c2.53715,4.69165,20.52662,25.20439,31.12528,37.12674a30.43942,30.43942,0,0,1,7.31654,21.22561l-1.005,28.67572a5.327,5.327,0,0,0,2.7382,4.74164c3.69206,2.45352,12.50753,2.46577,16.17659.02779a5.40068,5.40068,0,0,0,2.73668-4.40274h.00285l-.00057-.01662-.00019-.00876-.94206-27.24269a30.351,30.351,0,0,1,7.67245-21.60306c9.19946-9.93363,23.52441-25.83956,28.22526-33.49012,7.12332-11.59287,15.07484-48.50729,15.07484-48.50729Z"/>
    <path class="cls-15" d="M601.07428,254.537c0-20.09683-8.3106-37.61784-20.63241-46.92564-2.984-15.28037-10.90491-27.93043-21.37641-34.83066-.01939-10.33044-4.23666-19.24267-11.4459-22.23486a13.48715,13.48715,0,0,0-1.88034-.624c-6.58879-15.43746-17.7562-27.0056-31.07616-31.46609-4.7191-8.549-11.88633-13.95558-19.83215-13.74839-8.09656.21135-15.1524,6.20754-19.51261,15.2773-9.73264-3.17356-20.94415,5.398-25.44522,19.76515a40.97139,40.97139,0,0,0-1.7526,9.23648c-9.11277,3.53479-17.49427,13.23379-21.665,26.54613a55.88539,55.88539,0,0,0-2.51751,14.55508c-7.22368,3.4046-12.44042,11.2568-13.09889,20.6018-6.20975,2.40495-11.93061,7.7091-15.60423,15.31406a37.29893,37.29893,0,0,0-3.23775,22.50441A50.61819,50.61819,0,0,0,379.69794,282.143c0,15.6569,6.64734,29.51972,16.86489,38.0762a24.3798,24.3798,0,0,0,6.16642,9.70557,20.41214,20.41214,0,0,0,16.24064,5.3827c5.29013,12.5735,18.4124,17.9508,28.31669,19.39963,6.62635,13.88107,23.57932,23.85907,40.15565,23.85907,14.35917,0,27.53561-5.81,37.86683-15.48887,13.05668.82029,31.11348-7.6075,32.29577-28.07789A52.20747,52.20747,0,0,0,580.74677,301.231C592.90073,291.86561,601.07428,274.46779,601.07428,254.537Z"/>
    <path class="cls-16" d="M540.65174,259.65673c-1.39144,16.0166-20.01463,24.32081-29.22206,17.40789,5.06905,20.70726-21.04357,36.26619-35.78234,30.20257-13.51765,13.7287-35.68288,8.2373-43.03814-2.63118-3.97586,13.95733-23.55665,22.99535-36.04637,15.58317a24.3798,24.3798,0,0,0,6.16642,9.70557,20.41214,20.41214,0,0,0,16.24064,5.3827c5.29012,12.57348,18.41239,17.95093,28.31668,19.39976,6.62624,13.881,23.57933,23.85894,40.15566,23.85894,14.35917,0,27.53561-5.81,37.86683-15.48887,13.05669.82025,31.11343-7.60758,32.29577-28.07789A52.20747,52.20747,0,0,0,580.74677,301.231c12.154-9.36535,20.32751-26.76317,20.32751-46.69394,0-20.09683-8.3106-37.61784-20.63241-46.92564-2.984-15.28037-10.90491-27.93043-21.37641-34.83066a22.34894,22.34894,0,0,1-3.10678,31.98025C561.963,228.01014,560.3244,247.85273,540.65174,259.65673Z"/>
  </g>
  <g>
    <path class="cls-14" d="M412.33092,509.04422V427.98991H399.019V509.07h.00608a3.3524,3.3524,0,0,0,1.95879,2.688,10.4057,10.4057,0,0,0,9.41471.01693A3.2658,3.2658,0,0,0,412.33092,509.04422Z"/>
    <path class="cls-17" d="M448.33779,400.99254a66.11991,66.11991,0,0,0,.14422-8.82539c-.82958-16.09547-7.14008-29.26644-14.88052-32.50592.07-.27056.17615-.52382.22923-.8015,1.2061-6.28243-2.41144-11.95738-8.08-12.67523-.04808-.006-.095.00327-.14269-.00212-2.143-16.0772-10.24264-24.74125-19.933-24.74125-9.48882,0-17.44925,8.31215-19.78915,23.75187-8.44618,4.50154-15.83856,17.96-18.06846,34.64775-.29922,2.238-.47,4.43405-.56575,6.594a12.67877,12.67877,0,0,0-7.33045,9.28268,11.67625,11.67625,0,0,0,.99649,7.50161,26.831,26.831,0,0,0-5.90282,17.20869,29.10273,29.10273,0,0,0,1.17456,8.17618c-3.77368,5.5465-5.37092,13.35751-3.80329,21.681,1.8553,9.85131,7.68082,17.924,14.83782,21.87445a31.63258,31.63258,0,0,0,18.22038,15.14859c4.71441,7.52756,12.01449,12.37889,20.23067,12.37889s15.51665-4.85133,20.23145-12.37889a31.62611,31.62611,0,0,0,18.18307-15.08051,20.59369,20.59369,0,0,0,12.40639-15.34685,18.92509,18.92509,0,0,0-1.92684-12.89329,34.53184,34.53184,0,0,0,5.50592-13.09541C462.4968,418.27661,457.48586,406.61846,448.33779,400.99254Z"/>
    <path class="cls-16" d="M460.06883,430.90223a33.92482,33.92482,0,0,1-5.51361,13.075,18.92122,18.92122,0,0,1,1.953,12.91771,20.747,20.747,0,0,1-12.41332,15.34358,31.57152,31.57152,0,0,1-18.17922,15.05993c-4.72595,7.53007-12.03564,12.382-20.22683,12.382-8.2235,0-15.5328-4.85191-20.25875-12.382a31.56985,31.56985,0,0,1-18.21076-15.15454c18.70613,5.019,31.091-3.109,31.7898-22.81057,14.93938,7.98724,31.9637-4.079,27.94649-21.70792,13.53615-4.09037,16.61975-24.33488,4.82057-33.71183,10.18572-7.84312,13.20718-22.867,1.82684-34.24738,7.75083,3.24525,14.0521,16.41488,14.87129,32.51457a68.27222,68.27222,0,0,1-.12615,8.82174C457.48509,406.61076,462.49488,418.26815,460.06883,430.90223Z"/>
  </g>
  <g>
    <path class="cls-14" d="M157.857,630.84773V547.32166H144.13916v83.55267h.00626a3.45464,3.45464,0,0,0,2.01852,2.77,10.723,10.723,0,0,0,9.70181.01744A3.3654,3.3654,0,0,0,157.857,630.84773Z"/>
    <path class="cls-18" d="M194.9619,517.82227a68.13638,68.13638,0,0,0,.14862-9.09452c-.85488-16.5863-7.35781-30.15893-15.3343-33.49719.07213-.27882.18152-.5398.23621-.826,1.24289-6.474-2.485-12.322-8.32644-13.06176-.04954-.00614-.09789.00337-.147-.00218-2.20833-16.56747-10.555-25.49573-20.54085-25.49573-9.77819,0-17.98137,8.56562-20.39262,24.47618-8.70375,4.63881-16.32156,18.5077-18.61946,35.70434-.30834,2.30623-.48431,4.56926-.583,6.795a13.06539,13.06539,0,0,0-7.554,9.56576,12.03228,12.03228,0,0,0,1.02689,7.73036,27.64912,27.64912,0,0,0-6.08284,17.73347,29.99005,29.99005,0,0,0,1.21039,8.42552c-3.88877,5.71564-5.53471,13.76485-3.91928,22.34216,1.91188,10.15173,7.915,18.47064,15.2903,22.54152a32.59716,32.59716,0,0,0,18.776,15.61054c4.85818,7.75711,12.38087,12.75639,20.84761,12.75639s15.98983-4.99928,20.8484-12.75639a32.59058,32.59058,0,0,0,18.73757-15.54039,21.22172,21.22172,0,0,0,12.78473-15.81485,19.5023,19.5023,0,0,0-1.9856-13.28648,35.58514,35.58514,0,0,0,5.67382-13.49475C209.55269,535.63342,204.38894,523.61975,194.9619,517.82227Z"/>
    <path class="cls-16" d="M207.05068,548.64405a34.95944,34.95944,0,0,1-5.68175,13.47375,19.49828,19.49828,0,0,1,2.01255,13.31164,21.37972,21.37972,0,0,1-12.79186,15.81148,32.53437,32.53437,0,0,1-18.7336,15.51919c-4.87007,7.75969-12.40267,12.75956-20.84365,12.75956-8.47427,0-16.00647-4.99987-20.87654-12.75956a32.53263,32.53263,0,0,1-18.7661-15.61669c19.27658,5.172,32.0391-3.20381,32.75923-23.50617,15.395,8.2308,32.93844-4.20342,28.79873-22.3699,13.94893-4.21512,17.12656-25.077,4.96756-34.73988,10.49634-8.0823,13.60994-23.56438,1.88256-35.29176,7.98718,3.34421,14.48061,16.91545,15.32479,33.50611a70.35556,70.35556,0,0,1-.13,9.09076C204.38815,523.61182,209.55071,535.6247,207.05068,548.64405Z"/>
  </g>
  <g>
    <path class="cls-14" d="M864.02277,612.96744V518.94682H848.58136v94.05057h.007a3.88867,3.88867,0,0,0,2.27214,3.118,12.07027,12.07027,0,0,0,10.92078.01963A3.78824,3.78824,0,0,0,864.02277,612.96744Z"/>
    <path class="cls-19" d="M905.78968,485.17323a76.69639,76.69639,0,0,0,.16729-10.2372c-.96228-18.67027-8.28228-33.94821-17.261-37.70591.08119-.31385.20432-.60762.26589-.92972,1.399-7.28743-2.79719-13.87021-9.37261-14.7029-.05576-.00691-.11019.0038-.16551-.00245-2.4858-18.64908-11.88116-28.69912-23.12169-28.69912-11.00676,0-20.24062,9.64184-22.95484,27.55147-9.79732,5.22165-18.37226,20.83307-20.95888,40.19037-.34708,2.596-.54516,5.14336-.65625,7.64879A14.707,14.707,0,0,0,803.229,479.0542a13.544,13.544,0,0,0,1.15591,8.70163,31.12313,31.12313,0,0,0-6.84711,19.96158,33.75837,33.75837,0,0,0,1.36246,9.48414c-4.37736,6.43377-6.23011,15.49431-4.41171,25.14932,2.1521,11.42723,8.90953,20.79136,17.21144,25.37372a36.69281,36.69281,0,0,0,21.1351,17.57191c5.46858,8.73175,13.93645,14.35915,23.467,14.35915s17.99885-5.6274,23.46788-14.35915a36.68534,36.68534,0,0,0,21.09183-17.493,23.88806,23.88806,0,0,0,14.391-17.80189,21.95254,21.95254,0,0,0-2.23508-14.95584,40.05607,40.05607,0,0,0,6.38671-15.19028C922.21371,505.22224,916.40117,491.69912,905.78968,485.17323Z"/>
    <path class="cls-16" d="M919.39734,519.86758a39.35175,39.35175,0,0,1-6.39563,15.16664,21.94807,21.94807,0,0,1,2.26542,14.98417,24.066,24.066,0,0,1-14.39909,17.7981,36.62206,36.62206,0,0,1-21.08736,17.46908c-5.482,8.73465-13.961,14.36272-23.46253,14.36272-9.539,0-18.01759-5.62807-23.49955-14.36272a36.62014,36.62014,0,0,1-21.12395-17.57883c21.69856,5.82185,36.06462-3.60635,36.87523-26.45958,17.32924,9.26495,37.077-4.73156,32.41712-25.18055,15.70153-4.74472,19.27842-28.22775,5.59171-39.10473,11.81513-9.0978,15.31994-26.52511,2.11908-39.726,8.99073,3.76439,16.3,19.04077,17.25026,37.71595a79.19322,79.19322,0,0,1-.14633,10.233C916.40028,491.6902,922.21148,505.21242,919.39734,519.86758Z"/>
  </g>
  <g>
    <path class="cls-14" d="M779.61141,669.76993V613.6285H769.34514v56.15932h.00468c.0154.67356.51671,1.34621,1.51064,1.86183a8.84183,8.84183,0,0,0,7.26072.01172C779.12582,671.14035,779.62111,670.45506,779.61141,669.76993Z"/>
    <path class="cls-20" d="M730.39282,593.31067a20.91606,20.91606,0,0,1,5.35147-14.31134,25.54567,25.54567,0,0,1-2.31055-7.97962c-.96822-7.79645,1.64779-14.95212,6.31949-19.20887-.49251-4.95862,1.2741-9.44426,4.6717-11.83967a22.67071,22.67071,0,0,1-.28866-3.6007c0-9.7647,6.08184-17.82049,13.91308-18.91907-.017-.32034-.034-.6255-.034-.94594,0-13.41112,7.05028-24.2743,15.73092-24.2743,7.6276,0,13.9811,8.37623,15.42525,19.46831,3.14274,1.40364,5.58912,5.05016,6.42152,9.62734,4.41684,2.68521,8.375,7.62865,10.53248,13.8231a24.91806,24.91806,0,0,1,.76438,14.96739,12.14579,12.14579,0,0,1,5.06239,10.23758,13.29877,13.29877,0,0,1-1.91944,6.95732v.01527c6.914,3.43289,10.29462,13.07551,7.61059,23.23682A27.52207,27.52207,0,0,1,812.479,600.8325c4.298,5.11116,5.0794,13.47221,1.37613,21.45174a25.99257,25.99257,0,0,1-10.92339,11.87012,29.85256,29.85256,0,0,1-14.55863,12.20583c-3.95834,5.85884-10.34585,9.18492-16.41048,7.88808a13.03447,13.03447,0,0,1-8.8679-7.12522,28.935,28.935,0,0,1-11.34787-6.46907c-6.81221-2.74629-12.87684-9.04756-15.76493-17.3628a27.4368,27.4368,0,0,1-.79838-16.29477A21.129,21.129,0,0,1,730.39282,593.31067Z"/>
    <path class="cls-16" d="M817.64305,590.56625a27.43935,27.43935,0,0,1-5.1611,10.26646c4.301,5.11616,5.08479,13.477,1.37626,21.443a25.9461,25.9461,0,0,1-10.934,11.88026,29.82687,29.82687,0,0,1-14.54689,12.20646c-3.95681,5.85437-10.34157,9.185-16.42017,7.88019a13.03214,13.03214,0,0,1-8.86964-7.12479,28.70685,28.70685,0,0,1-11.33561-6.47239c14.45,2.08382,23.00257-2.50867,23.43566-16.29246,5.56717,2.88245,11.66787-1.647,8.17013-7.85671,11.95738.58444,16.43122-13.44222,8.67076-20.522,13.12908-2.70963,15.56936-18.0513,4.18606-22.59506,8.22934-3.69856,12.15606-11.60151,10.66675-23.26085a12.12674,12.12674,0,0,1,5.06543,10.2322,13.37561,13.37561,0,0,1-1.91156,6.97023c5.31418,2.62665,8.52569,8.9274,8.52569,16.30965A26.95755,26.95755,0,0,1,817.64305,590.56625Z"/>
  </g>
  <polygon class="cls-12" points="171.256 713.497 171.256 727.531 154.1 717.637 154.1 703.603 154.222 703.673 171.256 713.497"/>
  <path class="cls-21" d="M264.412,544.91394c3.919,5.09472,12.33558,7.63275,26.0708,3.45247,7.91268,6.569,29.39529,5.94812,33.44227-6.49437,6.793,2.762,17.169-4.62818,14.28574-9.86029,12.43822,3.45451,22.81429-6.413,19.42469-14.09284,20.484-9.5638,8.16706-28.26311-2.65689-26.88212,1.19249-11.52929-9.219-17.50494-17.72888-11.06655-5.71057-9.79755-23.5141-6.71832-23.43273,6.40679-15.04828-8.77687-32.96379,5.10765-25.29731,24.29114-7.47986-6.84792-16.8855.87814-14.078,9.289C261.68607,522.38653,260.493,539.81922,264.412,544.91394Z"/>
  <polygon class="cls-22" points="546.782 503.649 549.828 509.74 541.169 522.729 521.852 521.236 523.85 515.861 546.782 503.649"/>
  <polygon class="cls-22" points="554.008 510.785 549.828 518.698 556.397 518.698 568.116 513.189 566.101 509.964 554.008 510.785"/>
  <path class="cls-23" d="M442.70791,883.83648,478.709,905.043a42.10143,42.10143,0,0,0,42.65839.046l52.049-30.50876c2.3708-9.29742-9.34893-15.79179-16.44049-9.10358,3.20987-10.122-7.13541-19.01629-16.18066-8.95979-1.95878-17.58477-22.18837-23.10872-33.62821-10.29569-11.55172-9.37922-24.24187-1.54119-24.73039,11.09368-4.66219-8.90247-22.80164-6.06585-19.72537,8.84844C447.15019,856.51687,436.3449,869.66836,442.70791,883.83648Z"/>
  <g>
    <g>
      <path class="cls-24" d="M517.20237,689.86757c2.86565,2.87988,3.30191,10.28466,1.90782,12.59607-2.57723,4.27307-6.60342,3.649-12.518,6.78336-5.689,3.01483-16.36855,10.30444-27.88094,7.06228-8.36763-2.35652-6.91063-9.30481-5.01548-12.69128l14.48868-8.7012,8.29022-7.93929S510.07788,682.70767,517.20237,689.86757Z"/>
      <path class="cls-25" d="M515.28982,679.05379c2.86565,2.87989,5.61629,16.30161,3.82037,19.39339-1.24576,2.14464-5.63479,4.72547-11.882,7.12922-5.756,2.21472-14.4906,10.45114-27.84747,8.12218-6.45272-1.12512-8.50152-8.25606-4.2396-11.91551l13.04339-10.88273,8.29022-7.93929S508.16533,671.89389,515.28982,679.05379Z"/>
      <g>
        <path class="cls-26" d="M450.33208,496.66643l-.933-4.68341a7.67359,7.67359,0,0,1,1.64612-4.0636l8.17373-10.22,9.25483,3.69048-1.09843,8.34752-.87489,4.39322a3.92956,3.92956,0,0,1-2.36371,2.86845l-5.15129,2.11114C457.42318,499.75044,451.81632,501.55149,450.33208,496.66643Z"/>
        <polygon class="cls-26" points="468.474 481.39 480.782 462.904 469.355 454.454 459.219 477.699 468.474 481.39"/>
        <polygon class="cls-27" points="452.1 494.255 456.593 496.475 455.139 492.551 452.1 494.255"/>
        <path class="cls-27" d="M464.62984,489.347l-3.62631-1.7179.2123,5.64034c.15463,2.30569-1.1985,3.75961-2.55073,3.95352-1.03858.15157-2.41038-.35065-2.85891-2.39849l-2.03183-6.89967a.741.741,0,0,1,.513-.94117.75878.75878,0,0,1,.94118.513l2.04433,6.94944c.21277.89514.63726,1.35436,1.17567,1.27747.58039-.08422,1.35462-.86944,1.25376-2.37581l-.28269-7.51033a.75777.75777,0,0,1,1.48846-.22687.74.74,0,0,1,.026.17085l.00528.14018,4.33974,2.05662c.85581.40634,2.00274,1.46523,1.94037,2.54175l-.35359,1.77537A4.07306,4.07306,0,0,0,464.62984,489.347Z"/>
        <path class="cls-28" d="M473.57917,495.77631c2.20805,1.15659,3.48477-5.767.97864-7.976-2.56709-1.71764-6.95829-1.43915-11.92733-.52855l2.31256,1.096c.92956.44145,2.17544,1.59158,2.10772,2.761l-.38414,1.92852C468.14124,493.45543,473.57917,495.77631,473.57917,495.77631Z"/>
        <path class="cls-28" d="M454.653,495.80454l-1.38362-4.69877a2.16762,2.16762,0,0,0-.23525.51219c-12.465,52.48328-28.69537,70.51465-79.46945,96.39023a2.24092,2.24092,0,1,0,2.03479,3.99331c50.53226-25.75316,67.43147-43.20409,80.45944-93.94754A3.33489,3.33489,0,0,1,454.653,495.80454Z"/>
      </g>
      <path class="cls-29" d="M474.28118,437.0625S481.73463,392.632,488.50485,381.54c7.75283-12.70179,22.24866-13.20669,22.24866-13.20669l-10.40889,40.84772-.72982,11.42735a5.93252,5.93252,0,0,1-3.11145,3.583l-3.11593,18.394a158.178,158.178,0,0,1-11.68169,21.27617c-3.147,4.63769-15.45766-2.65813-13.68028-7.99976Z"/>
      <path class="cls-30" d="M485.60839,414.81693l12.26313,8.45606a6.72279,6.72279,0,0,1-1.36817.91845l-3.116,18.39409a158.18716,158.18716,0,0,1-11.68167,21.276,3.18811,3.18811,0,0,1-1.68425,1.24225Z"/>
      <path class="cls-26" d="M482.48,520.08557s1.118,44.4021,2.15321,64.47215c1.15,22.29554,12.96623,75.366,15.54868,91.49083l-5.7143,10.24847c.58118,5.47775,14.09941.56936,14.09941.56936s5.67288-3.75777,5.01036-6.32507l-.68837-4.6759c.5217-22.029,5.49169-50.79483,1.3923-84.52214l6.58386-64.73745Z"/>
      <path class="cls-31" d="M513.12505,677.46926l.45221,3.072c.66259,2.56718-5.01035,6.32506-5.01035,6.32506s-13.5182,4.90844-14.0993-.56921l4.4099-7.90918C504.82186,680.35929,509.60735,679.46471,513.12505,677.46926Z"/>
      <path class="cls-24" d="M489.77885,690.06839l6.57138-10.04116c1.87435-2.96971,8.99441-1.53608,12.21675,6.83915,0,0-7.97159,6.59044-12.796,6.86956S488.76988,691.8758,489.77885,690.06839Z"/>
      <path class="cls-25" d="M482.85269,496.47589c-2.36029,32.01549.59053,75.78146,1.61487,91.5601,1.24218,19.13424,9.37889,57.51562,9.37889,57.51562,2.2495,7.96856,20.8696,7.95032,21.59424-.78675,1.73914-17.971,3.48534-37.884,2.46249-55.29483l11.825-80.35762Z"/>
      <g>
        <path class="cls-24" d="M586.81878,668.54982c3.04232,1.22543,6.88091,2.73928,9.48908,7.271,2.42489,4.21326,3.68783,9.38925-3.64137,19.20293-3.69979,4.954-8.40307,17.506-17.8372,20.394-10.95374,3.35326-19.18149-1.62591-16.24913-11.08193l9.91445-11.61026,5.03106-14.68947C576.19747,671.12514,581.52324,666.41682,586.81878,668.54982Z"/>
        <path class="cls-25" d="M585.49372,665.69268c3.04233,1.22542,6.08581,4.02046,9.03613,8.33724,1.7365,2.54077,3.92554,7.16493-2.795,17.46513-3.37868,5.17828-8.79644,18.17753-18.23058,21.0656-10.95373,3.35326-18.04474-2.97475-14.19183-9.9282l7.85715-12.764,5.03107-14.68946C574.87241,668.268,580.19819,663.55968,585.49372,665.69268Z"/>
        <path class="cls-26" d="M513.39511,519.02253c2.19,13.24387,12.48038,67.64354,18.77439,82.38287,6.13738,14.37256,40.1864,69.55,40.1864,69.55l-.71429,7.54659,12.2671,1.72878s5.03106-8.75777,1.81584-12.725l-2.499-3.07223c-5.63376-12.795-8.323-40.91632-21.76111-74.41353l-5.44394-66.9945Z"/>
        <path class="cls-31" d="M583.90866,680.23077l-12.26705-1.7288.32084-5.24839c7.63431.14753,13.3955-2.5142,11.94626-7.98012l1.81581,2.23235C588.93967,671.473,583.90866,680.23077,583.90866,680.23077Z"/>
        <path class="cls-24" d="M568.44285,688.47093c-.314,1.68117,6.026,4.30884,8.75778,2.29814s6.70808-10.53832,6.70808-10.53832c-.64182-6.52175-11.14431-9.41212-12.13252-6.2733C571.77619,673.95745,568.9664,685.66815,568.44285,688.47093Z"/>
      </g>
      <path class="cls-32" d="M563.4739,589.40245l-2.11182-73.54038c-1.252-20.40179-4.46192-39.68012-10.47624-57.35009l-61.01449-1.07073a325.841,325.841,0,0,0-7.01865,39.03464l29.19248,26.21838c2.19,13.24387,8.32306,51.45221,15.528,73.90525s28.61288,50.40137,28.61288,50.40137c4.34783,6.23189,22.11187-.82815,19.04769-12.3396C575.23379,634.66129,570.8031,608.90559,563.4739,589.40245Z"/>
      <path class="cls-33" d="M526.01478,370.02865c-25.336-5.47128-31.46411,4.323-35.25322,22.47908-8.23756,22.84111-.82816,52.25681-.82816,52.25681s-4.88448,28.339-6.77019,43.22988c-4.98966,35.94209,75.83863,28.86461,75.83863,7.2878-1.85908-25.3434-8.116-36.93588-8.8613-45.63155s11.95027-52.80086,11.95027-52.80086C556.07265,383.9984,539.888,373.02456,526.01478,370.02865Z"/>
      <path class="cls-26" d="M509.89636,368.73953a31.66519,31.66519,0,0,1,3.39249-.21453l.01081-.00024q.86792-.01,1.78463.0221c.02649.001.05167.001.07828.0019.57991.02067,1.17763.05654,1.787.10215.06129.00475.11973.00713.18127.01188.57741.04561,1.173.10643,1.77737.17485.09836.01093.19208.0183.29115.02994.5704.06747,1.15981.15062,1.75469.23828.14111.02091.27558.03635.41812.0582.57231.08814,1.16457.19244,1.7598.29934.17343.03089.33866.05559.5141.08838q1.11095.207,2.27675.45827c.03136.00665.06058.01188.09194.01853.13779.0297.27725.06533.41551.09669,2.03194.49819,5.65559,1.73854,8.78178,2.90548a61.1,61.1,0,0,1,5.87748,2.92758c2.1936,10.42837-16.51159,19.63159-28.71306,14.97593C501.36189,386.73141,500.86513,379.90341,509.89636,368.73953Z"/>
      <path class="cls-34" d="M482.80915,469.77493c1.88571-14.89088,4.94775-34.34535,4.94775-34.34535-2.24722-18.70346-4.15891-24.28828,1.96692-42.78149,2.974-14.25087,9.40215-25.04724,25.427-24.45717l-2.002,1.6044a46.55353,46.55353,0,0,0-8.74334,13.39562c-3.37475,8.28159-6.31475,18.92156-9.13045,35.27956-2.35777,13.69759-5.38338,50.09449-6.30516,61.57109a1.73576,1.73576,0,0,1-3.00241,1.04952C483.50947,478.33827,482.1484,474.80172,482.80915,469.77493Z"/>
      <path class="cls-35" d="M539.60067,375.14132c9.9291,5.03719,18.39314,12.95944,22.49,21.70843L549.9335,448.90533l7.50714,24.43068c0,8.87841-16.08046,15.72445-32.0401,17.54586a3.74992,3.74992,0,0,1-4.14848-3.51595c-.527-8.81025-1.78648-30.58671-2.12606-42.93265-.43283-15.73625-.72622-35.53232,6.501-53.14878C529.60221,381.595,539.60067,375.14132,539.60067,375.14132Z"/>
      <path class="cls-30" d="M541.2664,414.81693l14.69334,8.28454-6.0262,25.80389,7.50709,24.43074c0,3.28845-2.21,6.29727-5.79944,8.87609Z"/>
      <path class="cls-26" d="M552.67645,508.96661c.52077-1.89222,4.00644-9.08787,4.00654-9.08811l-.00436-.13693,9.33923-.25437s2.17136,8.86616,2.18439,11.45206a20.796,20.796,0,0,1-2.72342,9.60112c-1.899,3.44981-5.86239,5.57094-6.03151,5.68015a1.60127,1.60127,0,0,1-1.63538.26006,2.04364,2.04364,0,0,1-.96945-1.50633l-.39459-7.03666a1.52287,1.52287,0,0,1-2.8582-.01365l-1.32427-4.98825C551.9753,511.84246,552.15581,510.85906,552.67645,508.96661Z"/>
      <polygon class="cls-26" points="566.018 499.487 570.989 468.719 555.863 466.568 556.683 499.878 566.018 499.487"/>
      <path class="cls-36" d="M562.09083,396.84975c4.22351,9.55578,10.9483,37.10272,11.69,52.5146a90.34708,90.34708,0,0,1-3.05182,28.69227c-1.01285,3.67485-15.42281,2.96056-15.82654-1.04565l-1.92547-25.3106-11.20084-34.51352C536.91071,399.38123,556.04515,383.46577,562.09083,396.84975Z"/>
      <g>
        <path class="cls-37" d="M334.53566,624.85455c-1.04289,10.05338,1.52822,23.21513,26.02945,32.88513l-5.08774,18.20058-4.35,3.71684c-5.10476,3.65682-1.07659,8.95474,4.15921,6.65493S361.99,677.626,361.99,677.626s9.91739-13.40794,8.78787-23.47552-10.67083-21.85175-10.67083-21.85175Z"/>
        <path class="cls-37" d="M409.29863,608.03042l.057-6.4392,8.51622-8.74655s18.80767-1.92256,24.13266.58279,12.3188,18.55283,12.3188,18.55283,2.79167,6.018,1.86862,10.36247-7.71174,2.99483-7.737-.52443l-1.6116-8.8919-8.8396-7.68741Z"/>
        <path class="cls-37" d="M415.86762,580.38593c8.56124-2.94979,19.607-3.33394,27.20471-4.56458,8.53095-1.38182,30.057-16.81714,33.10923-10.80629s-.06948,14.25769-6.44076,18.92917-19.08266,6.08725-25.50295,6.08725-16.403-3.39522-16.403-3.39522Z"/>
        <path class="cls-38" d="M358.47562,653.08338c-11.04768-2.05787-22.83407-9.20168-23.94-21.39078l3.25048-20.50667,17.532-22.86362,8.55878,8.98274,15.14209-.05105s31.30735-17.23765,37.92363-16.93839c12.28132.5555,16.12824,8.60627,18.226,12.91656a32.12494,32.12494,0,0,1,2.64886,19.30322c-1.4004,8.04483-11.858,24.68334-11.858,24.68334s10.6778,5.01434,10.164,8.39072-10.79436,17.08952-13.5055,18.49666-6.55378,1.29037-5.77015-3.53231,7.07925-14.57092,7.07925-14.57092-12.76287-2.62592-12.94464-7.38164,3.678-15.31929,3.678-15.31929c-8.70418,10.12318-20.64353,20.48732-28.45848,23.54215,0,0,5.55748,3.98965,5.55748,10.92684S371.113,673.5352,367.92179,676.35151c-2.21251,5.01829-4.42459,12.4364-7.49728,12.84757a7.17577,7.17577,0,0,1-7.58461-3.52318c-2.02384-3.04673,2.74912-9.30855,4.82434-12.97288s15.68689-15.343,15.68689-15.343Z"/>
        <path class="cls-37" d="M410.27044,628.13309c-10.30807,8.02263-21.0244,13.38079-30.224,14.57957l6.15558,4.13142,2.94359-1.38855C395.41827,642.07608,403.37678,635.35789,410.27044,628.13309Z"/>
        <path class="cls-37" d="M326.106,577.02755a22.0277,22.0277,0,0,0-9.94563,11.96412c-1.438,4.65351,3.09957,9.14145,8.551,6.54479L339.39127,576.04S330.65132,574.55551,326.106,577.02755Z"/>
        <path class="cls-39" d="M357.264,591.12025s-1.57152-8.95192-9.23282-12.83738-17.88023-2.51888-21.016,1.422-4.355,7.05128-6.10412,10.57619c-1.605,3.23447-9.83553,13.06511-9.83553,13.06511-2.10077,3.35734,2.23868,15.26709,12.29441,14.1661,4.63835-.50785,5.54166-3.71891,5.54166-3.71891l6.74164,22.87377Z"/>
        <path class="cls-40" d="M311.20651,604.19024c1.65155-1.43128,4.95453.7707,5.24813,2.16529s-2.38527,4.33061-3.70657,3.8535S309.555,605.62151,311.20651,604.19024Z"/>
        <path class="cls-41" d="M328.91167,613.79335l9.17494-1.71266a139.944,139.944,0,0,0,15.34049,19.30407c10.12913,10.88759,6.84092,22.21393,6.84092,22.21393s-11.06139-1.552-14.9271-4.75709-9.32223-6.52032-11.84815-13.49327S328.91167,613.79335,328.91167,613.79335Z"/>
        <path class="cls-28" d="M330.16956,621.48726a10.49706,10.49706,0,0,1-1.258-7.69391c9.76229,9.29724,28.35249,1.81052,27.95615-14.93885l6.57164-1.40147C366.29647,618.09945,339.70136,634.02716,330.16956,621.48726Z"/>
        <path class="cls-42" d="M360.57756,596.93737l0,0a3.60315,3.60315,0,0,1,1.69874-4.70319l12.50278-5.89828a3.38227,3.38227,0,0,1,4.54266,1.75877h0a3.60317,3.60317,0,0,1-1.69873,4.7032l-12.50278,5.89828A3.38227,3.38227,0,0,1,360.57756,596.93737Z"/>
        <path class="cls-37" d="M347.65791,583.878c0-2.23365,2.07694-2.52262,4.3125-2.73121,0,0,7.82591,7.11085,14.50755,10.05117,6.96187,3.06362,9.12136,14.40662,1.29444,14.41866-10.03126.01544-15.2992-4.65335-17.60746-9.006S347.65791,583.878,347.65791,583.878Z"/>
      </g>
    </g>
    <path class="cls-43" d="M503.47536,329.45716s-3.158,2.93743-2.94742,14.03132c.15129,7.96922-3.73294,14.05048-2.175,20.19821,2.57665,10.16778,14.28036,10.06839,19.81321,6.39606Z"/>
    <path class="cls-27" d="M513.17571,374.71906c.09966,2.71079,1.04644,5.26212,4.126,6.09927,6.24877,1.69869,13.19516-3.30875,12.70526-8.35116l-.22875-13.38633-16.964,3.14057Z"/>
    <g>
      <path class="cls-26" d="M515.40041,367.511c8.94138-.24976,14.54365-4.65708,16.34013-12.8659l3.855-17.75356c1.75519-7.11842-3.64026-14.968-12.06471-16.28184-7.36287-1.14829-15.91127,3.7508-17.18727,11.90664a166.8607,166.8607,0,0,0-1.52476,18.2321C504.73445,358.89586,507.08892,367.74317,515.40041,367.511Z"/>
      <g>
        <path class="cls-44" d="M550.82239,364.82016c-.45781-7.17423-3.41965-10.52482-4.79023-17.66259-.30289-1.57656-.62662-3.224-1.00092-4.89527l.00173-.001c-2.04833-11.62255-4.7811-18.79444-14.85505-22.29065-15.23568-4.67263-25.46392,5.10243-26.70159,9.48673-1.07012,3.79139,2.87341,15.49931,21.073,17.7654-1.40014,3.29735.19948,7.48647,3.71235,6.29547a8.06056,8.06056,0,0,0,2.33122,1.7782s-7.43562,15.04408-.51677,20.7497C537.77437,382.39447,551.59634,376.94583,550.82239,364.82016Z"/>
        <path class="cls-26" d="M529.84917,359.67251c3.30173.13715,6.27262-4.35755,6.42825-8.1042s-2.95735-7.03453-5.86466-5.4636C526.76315,348.07673,526.54744,359.53536,529.84917,359.67251Z"/>
      </g>
    </g>
  </g>
  <g class="cls-45">
    <g>
      <path class="cls-26" d="M1112.67552,886.6602,1082.9308,721.70227,964.751,772.92092c-45.78637,24.279-65.18738,63.96789-45.89724,121.50572l99.33314,255.87153-22.17257,28.15917c3.61726,10.027,19.63378,16.35567,19.63378,16.35567s62.97482-15.94584,62.79277-38.47281l-5.8203-13.30355c-20.6205-86.7502-1.71608-140.78582-30.3187-246.549Z"/>
      <path class="cls-25" d="M1234.50007,878.40521l-63.12291-203.8186L961.86853,763.38672c-50.43083,23.05947-68.735,87.8034-50.43083,135.751l62.25105,141.53646c13.46812,40.21885,92.16916,18.05123,87.2912-24.96357l-9.51448-105.34783Z"/>
    </g>
  </g>
</svg>
