<svg id="Layer_1" data-name="Layer 1" xmlns="http://www.w3.org/2000/svg" xmlns:xlink="http://www.w3.org/1999/xlink" viewBox="0 0 1000 1000">
  <defs>
    <style>
      .cls-1, .cls-26, .cls-27, .cls-73, .cls-74 {
        fill: none;
      }

      .cls-2 {
        fill: #d6ceb9;
      }

      .cls-3 {
        fill: url(#linear-gradient);
      }

      .cls-4 {
        fill: url(#linear-gradient-2);
      }

      .cls-5 {
        fill: #b7babc;
      }

      .cls-6 {
        fill: url(#linear-gradient-3);
      }

      .cls-7 {
        fill: url(#linear-gradient-4);
      }

      .cls-8 {
        fill: url(#linear-gradient-5);
      }

      .cls-9 {
        fill: url(#linear-gradient-6);
      }

      .cls-10 {
        fill: url(#linear-gradient-7);
      }

      .cls-11 {
        fill: #e58630;
      }

      .cls-12 {
        fill: url(#linear-gradient-8);
      }

      .cls-13, .cls-51, .cls-61 {
        opacity: 0.5;
      }

      .cls-14 {
        fill: url(#linear-gradient-9);
      }

      .cls-15 {
        fill: #94989b;
      }

      .cls-16 {
        fill: #586c7f;
      }

      .cls-17 {
        fill: url(#linear-gradient-10);
      }

      .cls-18 {
        fill: url(#linear-gradient-11);
      }

      .cls-19 {
        fill: url(#linear-gradient-12);
      }

      .cls-20 {
        fill: url(#linear-gradient-13);
      }

      .cls-21 {
        fill: #5e5e5e;
      }

      .cls-22 {
        fill: url(#linear-gradient-14);
      }

      .cls-23 {
        fill: #424242;
      }

      .cls-24 {
        fill: #ffcb48;
      }

      .cls-25 {
        fill: #a9b5bf;
      }

      .cls-26, .cls-27, .cls-73, .cls-74 {
        stroke-miterlimit: 10;
      }

      .cls-26, .cls-27 {
        stroke-width: 4.19613px;
      }

      .cls-26 {
        stroke: url(#linear-gradient-15);
      }

      .cls-27 {
        stroke: url(#linear-gradient-16);
      }

      .cls-28 {
        fill: url(#linear-gradient-17);
      }

      .cls-29 {
        fill: url(#linear-gradient-18);
      }

      .cls-30 {
        fill: #c67d1c;
      }

      .cls-31 {
        fill: #f2f2f2;
      }

      .cls-32 {
        fill: #dda026;
      }

      .cls-33 {
        fill: #eabe32;
      }

      .cls-34 {
        fill: #d8d8d8;
      }

      .cls-35 {
        fill: #c9c9c9;
      }

      .cls-36 {
        fill: #b9c1c6;
      }

      .cls-37 {
        fill: #d0d8dd;
      }

      .cls-38 {
        fill: #cfd2d3;
      }

      .cls-39 {
        fill: url(#linear-gradient-19);
      }

      .cls-40 {
        fill: url(#linear-gradient-20);
      }

      .cls-41 {
        fill: url(#linear-gradient-21);
      }

      .cls-42 {
        fill: url(#linear-gradient-22);
      }

      .cls-43 {
        fill: #5b6175;
      }

      .cls-44 {
        fill: #656b7c;
      }

      .cls-45 {
        fill: #7a8299;
      }

      .cls-46 {
        fill: url(#linear-gradient-23);
      }

      .cls-47 {
        fill: url(#linear-gradient-24);
      }

      .cls-48 {
        fill: url(#linear-gradient-25);
      }

      .cls-49 {
        fill: url(#linear-gradient-26);
      }

      .cls-50 {
        fill: url(#linear-gradient-27);
      }

      .cls-51 {
        fill: url(#linear-gradient-28);
      }

      .cls-52 {
        fill: url(#linear-gradient-29);
      }

      .cls-53 {
        fill: url(#linear-gradient-30);
      }

      .cls-54 {
        fill: url(#linear-gradient-31);
      }

      .cls-55 {
        fill: #565656;
        opacity: 0.4;
      }

      .cls-56 {
        fill: #27343d;
      }

      .cls-57 {
        fill: #e48f7c;
      }

      .cls-58 {
        fill: #ffbda3;
      }

      .cls-59 {
        fill: #303d49;
      }

      .cls-60 {
        fill: url(#linear-gradient-32);
      }

      .cls-61, .cls-98 {
        fill: #dd7b19;
      }

      .cls-62 {
        fill: #323f4c;
      }

      .cls-63 {
        fill: url(#linear-gradient-33);
      }

      .cls-64 {
        fill: url(#linear-gradient-34);
      }

      .cls-65 {
        fill: url(#linear-gradient-35);
      }

      .cls-66 {
        fill: url(#linear-gradient-36);
      }

      .cls-67 {
        fill: url(#linear-gradient-37);
      }

      .cls-68 {
        fill: url(#linear-gradient-38);
      }

      .cls-69 {
        fill: url(#linear-gradient-39);
      }

      .cls-70 {
        fill: url(#linear-gradient-40);
      }

      .cls-71 {
        fill: url(#linear-gradient-41);
      }

      .cls-72 {
        fill: url(#linear-gradient-42);
      }

      .cls-73, .cls-74 {
        stroke-width: 5px;
      }

      .cls-73 {
        stroke: url(#linear-gradient-43);
      }

      .cls-74 {
        stroke: url(#linear-gradient-44);
      }

      .cls-75 {
        fill: url(#linear-gradient-45);
      }

      .cls-76 {
        fill: url(#linear-gradient-46);
      }

      .cls-77 {
        fill: url(#linear-gradient-47);
      }

      .cls-78 {
        fill: url(#linear-gradient-48);
      }

      .cls-79 {
        fill: url(#linear-gradient-49);
      }

      .cls-80 {
        fill: #34a521;
      }

      .cls-81 {
        fill: #b8cbd8;
      }

      .cls-82 {
        fill: url(#linear-gradient-50);
      }

      .cls-83 {
        fill: url(#linear-gradient-51);
      }

      .cls-84 {
        fill: url(#linear-gradient-52);
      }

      .cls-85 {
        fill: #fff;
      }

      .cls-86 {
        fill: url(#linear-gradient-53);
      }

      .cls-87 {
        clip-path: url(#clip-path);
      }

      .cls-88 {
        fill: url(#linear-gradient-54);
      }

      .cls-89 {
        fill: url(#linear-gradient-55);
      }

      .cls-90 {
        fill: #541510;
        opacity: 0.3;
      }

      .cls-91 {
        fill: url(#linear-gradient-56);
      }

      .cls-92 {
        fill: url(#linear-gradient-57);
      }

      .cls-93 {
        fill: #bcd0e2;
      }

      .cls-94 {
        fill: #e9f1f4;
      }

      .cls-95 {
        fill: url(#linear-gradient-58);
      }

      .cls-96 {
        fill: url(#linear-gradient-59);
      }

      .cls-97 {
        fill: url(#linear-gradient-60);
      }

      .cls-98 {
        opacity: 0.6;
      }

      .cls-99 {
        fill: #ffbea4;
      }

      .cls-100 {
        fill: url(#linear-gradient-61);
      }

      .cls-101 {
        fill: #493628;
      }
    </style>
    <linearGradient id="linear-gradient" x1="119.76982" y1="396.22833" x2="526.41606" y2="396.22833" gradientUnits="userSpaceOnUse">
      <stop offset="0" stop-color="#c3d6e6"/>
      <stop offset="1" stop-color="#f2eee4"/>
    </linearGradient>
    <linearGradient id="linear-gradient-2" x1="526.40823" y1="448.86525" x2="526.40823" y2="932.70331" gradientUnits="userSpaceOnUse">
      <stop offset="0" stop-color="#f2ecda"/>
      <stop offset="0.99337" stop-color="#c4d5e6"/>
    </linearGradient>
    <linearGradient id="linear-gradient-3" x1="673.71295" y1="196.70785" x2="667.58529" y2="519.94189" gradientTransform="matrix(-1, 0, 0, 1, 1402.70211, 0)" gradientUnits="userSpaceOnUse">
      <stop offset="0" stop-color="#293440"/>
      <stop offset="1" stop-color="#3e4c59"/>
    </linearGradient>
    <linearGradient id="linear-gradient-4" x1="500.00559" y1="404.02748" x2="843.34832" y2="404.02748" gradientTransform="matrix(-1, 0, 0, 1, 1402.70211, 0)" gradientUnits="userSpaceOnUse">
      <stop offset="0" stop-color="#5b6f82"/>
      <stop offset="1" stop-color="#849bb2"/>
    </linearGradient>
    <linearGradient id="linear-gradient-5" x1="861.72202" y1="301.00914" x2="487.82501" y2="503.68794" gradientTransform="matrix(-1, 0, 0, 1, 1402.70211, 0)" gradientUnits="userSpaceOnUse">
      <stop offset="0" stop-color="#7e858c"/>
      <stop offset="1" stop-color="#435466"/>
    </linearGradient>
    <linearGradient id="linear-gradient-6" x1="794.68261" y1="333.2631" x2="656.20429" y2="408.32821" gradientTransform="matrix(-1, 0, 0, 1, 1402.70211, 0)" gradientUnits="userSpaceOnUse">
      <stop offset="0" stop-color="#62778c"/>
      <stop offset="1" stop-color="#435466"/>
    </linearGradient>
    <linearGradient id="linear-gradient-7" x1="683.2138" y1="397.61553" x2="544.73548" y2="472.68064" xlink:href="#linear-gradient-6"/>
    <linearGradient id="linear-gradient-8" x1="502.0938" y1="340.92921" x2="677.49805" y2="576.84411" gradientTransform="matrix(-1, 0, 0, 1, 1402.70211, 0)" gradientUnits="userSpaceOnUse">
      <stop offset="0.00005" stop-color="#ffcb48"/>
      <stop offset="1" stop-color="#e68e2b"/>
    </linearGradient>
    <linearGradient id="linear-gradient-9" x1="679.82266" y1="238.28599" x2="855.22692" y2="474.20089" xlink:href="#linear-gradient-8"/>
    <linearGradient id="linear-gradient-10" x1="290.95539" y1="247.93019" x2="854.77416" y2="247.93019" gradientTransform="matrix(-1, 0, 0, 1, 1402.70211, 0)" gradientUnits="userSpaceOnUse">
      <stop offset="0" stop-color="#5b6f82"/>
      <stop offset="1" stop-color="#a0a9b2"/>
    </linearGradient>
    <linearGradient id="linear-gradient-11" x1="541.84729" y1="278.49767" x2="541.84729" y2="555.97504" gradientUnits="userSpaceOnUse">
      <stop offset="0" stop-color="#fffbf2"/>
      <stop offset="0.58386" stop-color="#fffbf2" stop-opacity="0"/>
    </linearGradient>
    <linearGradient id="linear-gradient-12" x1="511.6054" y1="542.13287" x2="569.5027" y2="542.13287" gradientTransform="matrix(1, 0, 0, 1, 0, 0)" xlink:href="#linear-gradient-6"/>
    <linearGradient id="linear-gradient-13" x1="511.60539" y1="537.72155" x2="569.50271" y2="537.72155" gradientUnits="userSpaceOnUse">
      <stop offset="0" stop-color="#849bb2"/>
      <stop offset="1" stop-color="#5b6f82"/>
    </linearGradient>
    <linearGradient id="linear-gradient-14" x1="501.09902" y1="274.43219" x2="580.00913" y2="274.43219" gradientUnits="userSpaceOnUse">
      <stop offset="0.00844" stop-color="#ffc63f"/>
      <stop offset="1" stop-color="#e68a23"/>
    </linearGradient>
    <linearGradient id="linear-gradient-15" x1="4651.06543" y1="625.72167" x2="4707.20664" y2="651.37141" gradientTransform="matrix(-1, 0, 0, 1, 4875.04256, 0)" gradientUnits="userSpaceOnUse">
      <stop offset="0" stop-color="#3e4c59"/>
      <stop offset="1" stop-color="#293440"/>
    </linearGradient>
    <linearGradient id="linear-gradient-16" x1="4398.86056" y1="522.09322" x2="4455.00178" y2="547.74296" xlink:href="#linear-gradient-15"/>
    <linearGradient id="linear-gradient-17" x1="4417.79384" y1="519.97549" x2="4673.0044" y2="636.5758" gradientTransform="matrix(-1, 0, 0, 1, 4875.04256, 0)" gradientUnits="userSpaceOnUse">
      <stop offset="0" stop-color="#ccbf96"/>
      <stop offset="1" stop-color="#748ea6"/>
    </linearGradient>
    <linearGradient id="linear-gradient-18" x1="507.67462" y1="474.92404" x2="371.63733" y2="537.0766" gradientUnits="userSpaceOnUse">
      <stop offset="0" stop-color="#736b50"/>
      <stop offset="1" stop-color="#475866"/>
    </linearGradient>
    <linearGradient id="linear-gradient-19" x1="-2436.82862" y1="612.33255" x2="-2426.21944" y2="612.33255" gradientTransform="matrix(-1, 0, 0, 1, -2121.88683, 0)" xlink:href="#linear-gradient-6"/>
    <linearGradient id="linear-gradient-20" x1="443.78232" y1="488.44513" x2="210.19125" y2="595.16795" gradientTransform="matrix(1, 0, 0, 1, 0, 0)" xlink:href="#linear-gradient-6"/>
    <linearGradient id="linear-gradient-21" x1="233.79753" y1="562.98651" x2="468.77751" y2="562.98651" gradientUnits="userSpaceOnUse">
      <stop offset="0" stop-color="#526575"/>
      <stop offset="1" stop-color="#8c8262"/>
    </linearGradient>
    <linearGradient id="linear-gradient-22" x1="233.79753" y1="546.20154" x2="468.76883" y2="546.20154" gradientUnits="userSpaceOnUse">
      <stop offset="0" stop-color="#748ea6"/>
      <stop offset="1" stop-color="#ccbf96"/>
    </linearGradient>
    <linearGradient id="linear-gradient-23" x1="513.14857" y1="486.90779" x2="199.19005" y2="630.3488" gradientUnits="userSpaceOnUse">
      <stop offset="0" stop-color="#8c8262"/>
      <stop offset="1" stop-color="#526575"/>
    </linearGradient>
    <linearGradient id="linear-gradient-24" x1="170.03594" y1="541.06969" x2="480.09917" y2="541.06969" xlink:href="#linear-gradient-22"/>
    <linearGradient id="linear-gradient-25" x1="556.94756" y1="446.82443" x2="520.94756" y2="603.07975" gradientUnits="userSpaceOnUse">
      <stop offset="0" stop-color="#b2a784"/>
      <stop offset="1" stop-color="#6e7982"/>
    </linearGradient>
    <linearGradient id="linear-gradient-26" x1="562.84698" y1="489.34259" x2="559.1023" y2="634.36387" xlink:href="#linear-gradient-23"/>
    <linearGradient id="linear-gradient-27" x1="571.36391" y1="406.26581" x2="644.89582" y2="666.18071" xlink:href="#linear-gradient-23"/>
    <linearGradient id="linear-gradient-28" x1="-2541.07392" y1="634.00099" x2="-2422.96377" y2="634.00099" gradientTransform="translate(3040.4478)" xlink:href="#linear-gradient-15"/>
    <linearGradient id="linear-gradient-29" x1="586.98822" y1="426.72583" x2="645.71163" y2="620.25774" xlink:href="#linear-gradient-25"/>
    <linearGradient id="linear-gradient-30" x1="670.28474" y1="416.40441" x2="741.7741" y2="590.36185" xlink:href="#linear-gradient-23"/>
    <linearGradient id="linear-gradient-31" x1="640.70275" y1="429.50454" x2="670.57509" y2="588.82369" gradientUnits="userSpaceOnUse">
      <stop offset="0" stop-color="#b2a784"/>
      <stop offset="0.98707" stop-color="#676d73"/>
    </linearGradient>
    <linearGradient id="linear-gradient-32" x1="582.20857" y1="418.14053" x2="630.549" y2="565.88521" gradientTransform="matrix(1, 0, 0, 1, 0, 0)" xlink:href="#linear-gradient-8"/>
    <linearGradient id="linear-gradient-33" x1="623.23613" y1="416.5034" x2="639.83188" y2="568.67361" gradientUnits="userSpaceOnUse">
      <stop offset="0" stop-color="#f4e5cf"/>
      <stop offset="1" stop-color="#e9f1f4"/>
    </linearGradient>
    <linearGradient id="linear-gradient-34" x1="591.05507" y1="415.27421" x2="638.81035" y2="561.23047" gradientTransform="matrix(1, 0, 0, 1, 0, 0)" xlink:href="#linear-gradient-8"/>
    <linearGradient id="linear-gradient-35" x1="619.35048" y1="405.98811" x2="667.69091" y2="553.73279" gradientTransform="matrix(1, 0, 0, 1, 0, 0)" xlink:href="#linear-gradient-8"/>
    <linearGradient id="linear-gradient-36" x1="626.04177" y1="403.79879" x2="674.3822" y2="551.54348" gradientTransform="matrix(1, 0, 0, 1, 0, 0)" xlink:href="#linear-gradient-8"/>
    <linearGradient id="linear-gradient-37" x1="593.62169" y1="374.03202" x2="640.94084" y2="442.79798" gradientUnits="userSpaceOnUse">
      <stop offset="0" stop-color="#966551"/>
      <stop offset="1" stop-color="#805345"/>
    </linearGradient>
    <linearGradient id="linear-gradient-38" x1="618.98221" y1="356.58097" x2="666.30136" y2="425.34693" xlink:href="#linear-gradient-37"/>
    <linearGradient id="linear-gradient-39" x1="688.34574" y1="456.49801" x2="702.64361" y2="598.45546" xlink:href="#linear-gradient-25"/>
    <linearGradient id="linear-gradient-40" x1="654.39187" y1="441.52541" x2="737.11527" y2="689.69562" xlink:href="#linear-gradient-23"/>
    <linearGradient id="linear-gradient-41" x1="-2251.68714" y1="618.421" x2="-2244.73656" y2="618.421" gradientTransform="translate(3040.4478)" xlink:href="#linear-gradient-15"/>
    <linearGradient id="linear-gradient-42" x1="-2377.03986" y1="648.43765" x2="-2235.58427" y2="648.43765" gradientTransform="translate(3040.4478)" xlink:href="#linear-gradient-15"/>
    <linearGradient id="linear-gradient-43" x1="9199.02817" y1="672.10491" x2="9265.82902" y2="702.6248" gradientTransform="translate(-8377.35491)" xlink:href="#linear-gradient-15"/>
    <linearGradient id="linear-gradient-44" x1="9132.49509" y1="626.09533" x2="9207.9779" y2="660.58182" gradientTransform="translate(-8377.35491)" xlink:href="#linear-gradient-15"/>
    <linearGradient id="linear-gradient-45" x1="757.48237" y1="553.27572" x2="860.63131" y2="635.99913" gradientUnits="userSpaceOnUse">
      <stop offset="0" stop-color="#8c8262"/>
      <stop offset="1" stop-color="#435466"/>
    </linearGradient>
    <linearGradient id="linear-gradient-46" x1="737.93005" y1="552.28102" x2="835.9726" y2="660.19591" gradientUnits="userSpaceOnUse">
      <stop offset="0" stop-color="#8c8262"/>
      <stop offset="0.60476" stop-color="#526575"/>
    </linearGradient>
    <linearGradient id="linear-gradient-47" x1="735.63031" y1="574.53249" x2="824.14095" y2="658.61759" gradientUnits="userSpaceOnUse">
      <stop offset="0" stop-color="#b2a784"/>
      <stop offset="1" stop-color="#5b6f82"/>
    </linearGradient>
    <linearGradient id="linear-gradient-48" x1="723.31336" y1="530.3109" x2="871.39847" y2="617.45984" xlink:href="#linear-gradient-23"/>
    <linearGradient id="linear-gradient-49" x1="735.70919" y1="521.39423" x2="862.34749" y2="612.79848" gradientTransform="matrix(1, 0, 0, 1, 0, 0)" xlink:href="#linear-gradient-17"/>
    <linearGradient id="linear-gradient-50" x1="160.88037" y1="296.58326" x2="160.88037" y2="494.5585" gradientUnits="userSpaceOnUse">
      <stop offset="0" stop-color="#fff2d7"/>
      <stop offset="0.98888" stop-color="#e6edf2" stop-opacity="0.6"/>
    </linearGradient>
    <linearGradient id="linear-gradient-51" x1="328.31965" y1="296.58346" x2="328.31965" y2="494.55841" xlink:href="#linear-gradient-50"/>
    <linearGradient id="linear-gradient-52" x1="245.35783" y1="303.74967" x2="245.35783" y2="507.39274" gradientTransform="matrix(1, 0, 0, 1, 0, 0)" xlink:href="#linear-gradient-6"/>
    <linearGradient id="linear-gradient-53" x1="159.80482" y1="127.53304" x2="347.91762" y2="355.05995" gradientUnits="userSpaceOnUse">
      <stop offset="0" stop-color="#e68a23"/>
      <stop offset="0.99156" stop-color="#ffc63f"/>
    </linearGradient>
    <clipPath id="clip-path">
      <path class="cls-1" d="M1455.98541,305.84375a194.17509,194.17509,0,1,1-71.04617-150.16185A193.78539,193.78539,0,0,1,1455.98541,305.84375Z"/>
    </clipPath>
    <linearGradient id="linear-gradient-54" x1="353.57966" y1="685.05779" x2="2030.22439" y2="1135.23513" gradientTransform="matrix(1, 0, 0, 1, 0, 0)" xlink:href="#linear-gradient-6"/>
    <linearGradient id="linear-gradient-55" x1="-102.90606" y1="797.38375" x2="1266.97382" y2="1669.51224" gradientUnits="userSpaceOnUse">
      <stop offset="0" stop-color="#62788c"/>
      <stop offset="1" stop-color="#526575"/>
    </linearGradient>
    <linearGradient id="linear-gradient-56" x1="-127.28507" y1="965.25263" x2="2087.99455" y2="1085.09563" gradientTransform="matrix(1, 0, 0, 1, 0, 0)" xlink:href="#linear-gradient-15"/>
    <linearGradient id="linear-gradient-57" x1="-52.93148" y1="1102.17782" x2="1841.18774" y2="1204.64656" gradientTransform="matrix(1, 0, 0, 1, 0, 0)" xlink:href="#linear-gradient-15"/>
    <linearGradient id="linear-gradient-58" x1="1202.26317" y1="1155.15866" x2="1306.52453" y2="1317.80638" gradientTransform="matrix(1, 0, 0, 1, 0, 0)" xlink:href="#linear-gradient-15"/>
    <linearGradient id="linear-gradient-59" x1="1036.29928" y1="303.51189" x2="1014.91184" y2="682.06961" gradientTransform="matrix(1, 0, 0, 1, 0, 0)" xlink:href="#linear-gradient-8"/>
    <linearGradient id="linear-gradient-60" x1="18.28255" y1="531.15518" x2="1127.61105" y2="1149.96427" gradientTransform="matrix(1, 0, 0, 1, 0, 0)" xlink:href="#linear-gradient-8"/>
    <linearGradient id="linear-gradient-61" x1="1027.36719" y1="303.00725" x2="1005.97975" y2="681.56497" gradientTransform="matrix(1, 0, 0, 1, 0, 0)" xlink:href="#linear-gradient-8"/>
  </defs>
  <g>
    <g>
      <polygon class="cls-2" points="526.4 81.236 933.047 316.004 933.047 711.22 526.4 476.43 526.4 81.236"/>
      <polygon class="cls-3" points="526.416 81.236 119.77 316.004 119.77 711.22 526.416 476.43 526.416 81.236"/>
    </g>
    <path class="cls-4" d="M126.787,723.3864l378.58059,218.564a42.10143,42.10143,0,0,0,42.1011-.00062l378.5612-218.56743a14.03381,14.03381,0,0,0,.00016-24.307L547.45226,480.49136a42.10144,42.10144,0,0,0-42.10408.00053l-378.562,218.58744A14.03381,14.03381,0,0,0,126.787,723.3864Z"/>
    <path class="cls-5" d="M546.67561,758.47363c-46.28792,0-83.81216-21.56548-83.81216-48.16784,0-22.04521,25.77888-40.61765,60.94977-46.33859l103.38611,59.69133C617.12311,743.76248,584.89938,758.47363,546.67561,758.47363Z"/>
    <path class="cls-5" d="M829.15113,631.21544,653.32954,529.57052a18.68806,18.68806,0,0,0-18.70657,0L458.80138,631.21544a9.344,9.344,0,0,0,0,16.179L634.623,749.03933a18.68806,18.68806,0,0,0,18.70657,0L829.15113,647.3944A9.344,9.344,0,0,0,829.15113,631.21544Z"/>
  </g>
  <g>
    <g>
      <path class="cls-6" d="M555.51233,138.02708l11.46525,2.15873L910.32665,338.4269V661.251l-11.46525,6.61724L555.51233,469.63866Z"/>
      <polygon class="cls-7" points="559.354 143.497 563.295 145.772 563.29 464.208 902.697 660.152 902.696 664.558 559.354 466.338 559.354 143.497"/>
      <path class="cls-8" d="M547.86556,123.59864V472.97115l366.319,211.48427v-349.352Zm354.83071,540.959L559.35383,466.33825l0-322.84091L902.69627,341.73605Z"/>
    </g>
    <polygon class="cls-9" points="674.759 528.56 679.759 531.447 679.759 213.031 674.759 210.144 674.759 528.56"/>
    <polygon class="cls-10" points="786.227 592.913 791.227 595.799 791.227 277.384 786.227 274.497 786.227 592.913"/>
    <g>
      <path class="cls-11" d="M730.50218,249.55223l172.19409,99.549V662.5056a2.97177,2.97177,0,0,1-1.50512,2.60064l.00024.00019-3.38843,1.94964.40357-1.94726-.01-.005L734.99571,570.8997a9,9,0,0,1-4.50073-7.79486l-3.38391-311.60046Z"/>
      <path class="cls-12" d="M727.10393,565.057,727.111,251.5044l172.19412,99.549V664.45774a3,3,0,0,1-4.49976,2.59822l-163.20076-94.2041A9,9,0,0,1,727.10393,565.057Z"/>
      <g>
        <g class="cls-13">
          <polygon class="cls-11" points="877.493 657.035 879.793 658.363 879.793 339.771 877.493 338.444 877.493 657.035"/>
        </g>
        <g class="cls-13">
          <polygon class="cls-11" points="855.682 644.426 857.981 645.753 857.981 327.162 855.682 325.834 855.682 644.426"/>
        </g>
        <g class="cls-13">
          <polygon class="cls-11" points="833.87 631.816 836.169 633.144 836.169 314.552 833.87 313.225 833.87 631.816"/>
        </g>
        <g class="cls-13">
          <polygon class="cls-11" points="812.058 619.207 814.358 620.534 814.358 301.943 812.058 300.615 812.058 619.207"/>
        </g>
        <g class="cls-13">
          <polygon class="cls-11" points="790.247 606.597 792.546 607.924 792.546 289.333 790.247 288.006 790.247 606.597"/>
        </g>
        <g class="cls-13">
          <polygon class="cls-11" points="768.435 593.987 770.734 595.315 770.734 276.724 768.435 275.396 768.435 593.987"/>
        </g>
        <g class="cls-13">
          <polygon class="cls-11" points="746.623 581.378 748.923 582.705 748.923 264.114 746.623 262.786 746.623 581.378"/>
        </g>
      </g>
    </g>
    <g>
      <path class="cls-11" d="M552.77331,146.909l172.1941,99.549V559.86238a2.97178,2.97178,0,0,1-1.50513,2.60064l.00024.00019-3.38842,1.94964.40356-1.94726-.01-.005-163.2008-94.2041a9,9,0,0,1-4.50074-7.79486L549.3822,148.86116Z"/>
      <path class="cls-14" d="M549.37506,462.41379l.00712-313.55261,172.19412,99.549V561.81452a3,3,0,0,1-4.49977,2.59822l-163.20076-94.2041A9,9,0,0,1,549.37506,462.41379Z"/>
      <g>
        <g class="cls-13">
          <polygon class="cls-11" points="699.765 554.392 702.064 555.72 702.064 237.128 699.765 235.801 699.765 554.392"/>
        </g>
        <g class="cls-13">
          <polygon class="cls-11" points="677.953 541.782 680.252 543.11 680.252 224.519 677.953 223.191 677.953 541.782"/>
        </g>
        <g class="cls-13">
          <polygon class="cls-11" points="656.141 529.173 658.441 530.5 658.441 211.909 656.141 210.581 656.141 529.173"/>
        </g>
        <g class="cls-13">
          <polygon class="cls-11" points="634.33 516.563 636.629 517.891 636.629 199.299 634.33 197.972 634.33 516.563"/>
        </g>
        <g class="cls-13">
          <polygon class="cls-11" points="612.518 503.954 614.817 505.281 614.817 186.69 612.518 185.362 612.518 503.954"/>
        </g>
        <g class="cls-13">
          <polygon class="cls-11" points="590.706 491.344 593.006 492.672 593.006 174.08 590.706 172.753 590.706 491.344"/>
        </g>
        <g class="cls-13">
          <polygon class="cls-11" points="568.895 478.735 571.194 480.062 571.194 161.471 568.895 160.143 568.895 478.735"/>
        </g>
      </g>
    </g>
    <g>
      <path class="cls-15" d="M551.85051,140.17186v6.03443l14.83479,8.56337v-6.91922a3.3619,3.3619,0,0,0-1.68117-2.91162L554.298,138.75869A1.63171,1.63171,0,0,0,551.85051,140.17186Z"/>
      <path class="cls-16" d="M894.25477,338.12359V344.158l14.83478,8.56337v-6.91922a3.3619,3.3619,0,0,0-1.68116-2.91162l-10.70617-6.18013A1.63171,1.63171,0,0,0,894.25477,338.12359Z"/>
      <path class="cls-17" d="M544.115,146.71622,906.7412,356.12129l3.92587-6.7998L548.02766,139.9088l-.00179.0031a1.97737,1.97737,0,0,0-1.95074.20783,6.13758,6.13758,0,0,0-2.78518,4.8041A1.9263,1.9263,0,0,0,544.115,146.71622Z"/>
      <ellipse class="cls-16" cx="908.70414" cy="352.72139" rx="3.92587" ry="2.26305" transform="matrix(0.5, -0.86603, 0.86603, 0.5, 148.88638, 963.32156)"/>
    </g>
  </g>
  <polygon class="cls-18" points="503.481 282.857 415.365 553.598 668.33 553.598 577.289 281.146 503.481 282.857"/>
  <g>
    <g>
      <path class="cls-19" d="M568.69958,538.2879c-3.01624-7.35936-14.45729-12.84232-28.14559-12.84232s-25.12935,5.483-28.14547,12.84232h-.80312v3.845c0,9.21615,12.96068,16.6873,28.94859,16.6873s28.94871-7.47115,28.94871-16.6873v-3.845Z"/>
      <ellipse class="cls-20" cx="540.55405" cy="537.72155" rx="28.94866" ry="16.68735"/>
    </g>
    <path class="cls-21" d="M536.76089,288.73849V534.25975c0,1.2076,1.69825,2.18655,3.79315,2.18655s3.79317-.97895,3.79317-2.18655V288.73849Z"/>
    <path class="cls-21" d="M501.62137,251.10731v35.68916c0,12.35745,17.43069,22.3751,38.9327,22.3751s38.93271-10.01765,38.93271-22.3751V251.10731Z"/>
    <path class="cls-22" d="M501.099,245.01054v36.168c0,12.52324,17.66455,22.6753,39.45505,22.6753s39.45506-10.15206,39.45506-22.6753v-36.168Z"/>
    <g>
      <ellipse class="cls-11" cx="540.55405" cy="245.01066" rx="39.45507" ry="22.67533"/>
      <path class="cls-23" d="M532.0459,265.3875a38.51763,38.51763,0,0,0,17.01619,0V253.2088H532.0459Z"/>
      <ellipse class="cls-21" cx="540.55405" cy="253.20885" rx="8.50814" ry="4.90449"/>
      <path class="cls-24" d="M540.554,224.28c20.6833,0,37.5102,9.29969,37.5102,20.7306s-16.8269,20.73076-37.5102,20.73076-37.5102-9.29985-37.5102-20.73076S519.87074,224.28,540.554,224.28m0-1.9447c-21.79033,0-39.45506,10.15211-39.45506,22.6753,0,12.52335,17.66473,22.67546,39.45506,22.67546s39.45506-10.15211,39.45506-22.67546c0-12.52319-17.66472-22.6753-39.45506-22.6753Z"/>
    </g>
  </g>
  <path class="cls-25" d="M166.34563,674.45145,409.84426,533.91471a10.38471,10.38471,0,0,1,10.395,0l63.89315,36.9511a5.19235,5.19235,0,0,1,0,8.99045L240.63379,720.393a10.38469,10.38469,0,0,1-10.395,0l-63.89315-36.95109A5.19236,5.19236,0,0,1,166.34563,674.45145Z"/>
  <g>
    <path class="cls-26" d="M237.99034,660.98545v44.45677a3.1471,3.1471,0,0,1-4.72,2.72585l-47.87479-27.62536a9.44132,9.44132,0,0,1-4.72259-8.17753V556.013"/>
    <path class="cls-27" d="M476.052,526.40085v44.45677a3.1471,3.1471,0,0,1-4.72,2.72584L423.4572,545.9581a9.44129,9.44129,0,0,1-4.72259-8.17752V496.26413"/>
    <path class="cls-28" d="M349.67741,489.01153l-47.26,27.28-64.79,37.38a15.98082,15.98082,0,0,0-8.01,13.86l.01,128.25a5.32584,5.32584,0,0,0,8,4.62l191.8601-110.75,45.22-26.11a16.09086,16.09086,0,0,0,1.87-1.26Z"/>
    <path class="cls-29" d="M482.71745,421.48151l-.01,128.2a16.00539,16.00539,0,0,1-6.13,12.6l-126.9-73.27,125.04-72.15a5.25413,5.25413,0,0,1,2.64991-.73A5.348,5.348,0,0,1,482.71745,421.48151Z"/>
    <g>
      <g>
        <polygon class="cls-30" points="419.587 491.809 419.587 493.847 449.075 510.754 449.075 507.848 419.587 491.809"/>
        <path class="cls-31" d="M447.63115,509.8576,419.57374,493.847l-8.37916,4.83081L439.628,514.81031C441.42434,515.717,450.02176,511.27681,447.63115,509.8576Z"/>
        <polygon class="cls-30" points="438.612 566.25 409.002 549.179 409.002 497.893 438.612 514.702 438.612 566.25"/>
        <path class="cls-32" d="M438.61207,514.7023l-.00012,51.5482c2.87214,1.58005,12.933-3.77174,12.868-6.43534V508.35853C451.48419,510.76632,441.62558,516.39281,438.61207,514.7023Z"/>
        <path class="cls-33" d="M450.80584,507.39493,421.59578,490.715l-2.0085,1.09372,28.04378,16.00286c2.39063,1.41921-6.20671,5.85943-8.003,4.95271l-28.43277-16.13217-2.19333,1.26056,29.61016,16.80959C442.08088,516.64818,454.53463,509.63452,450.80584,507.39493Z"/>
      </g>
      <g>
        <polygon class="cls-30" points="402.798 501.496 402.798 503.534 432.286 520.441 432.286 517.535 402.798 501.496"/>
        <path class="cls-31" d="M430.84191,519.54512,402.7845,503.53449l-8.37916,4.83081,28.43339,16.13253C424.6351,525.40451,433.23252,520.96432,430.84191,519.54512Z"/>
        <polygon class="cls-30" points="421.823 575.938 392.213 558.867 392.213 507.58 421.823 524.39 421.823 575.938"/>
        <path class="cls-32" d="M421.82283,524.38982l-.00012,51.54819c2.87214,1.58006,12.933-3.77173,12.868-6.43534V518.046C434.695,520.45384,424.83634,526.08033,421.82283,524.38982Z"/>
        <path class="cls-33" d="M434.0166,517.08245l-29.21006-16.67991-2.0085,1.09373,28.04378,16.00286c2.39063,1.41921-6.20671,5.85943-8.003,4.9527L394.406,506.31966l-2.19333,1.26056,29.61016,16.80959C425.29164,526.33569,437.74539,519.322,434.0166,517.08245Z"/>
      </g>
      <g>
        <polygon class="cls-30" points="386.009 511.184 386.009 513.222 415.496 530.129 415.496 527.223 386.009 511.184"/>
        <path class="cls-31" d="M414.05267,529.23264,385.99526,513.222l-8.37916,4.83081,28.43339,16.13252C407.84586,535.092,416.44328,530.65184,414.05267,529.23264Z"/>
        <polygon class="cls-30" points="405.034 585.626 375.424 568.554 375.424 517.268 405.034 534.077 405.034 585.626"/>
        <path class="cls-34" d="M396.35351,544.59252l-13.68736-7.88443a2.79071,2.79071,0,0,1-1.39773-2.41819v-4.6653a.93023.93023,0,0,1,1.38929-.80908l13.67682,7.75993a2.79071,2.79071,0,0,1,1.41354,2.42723v4.78377A.93024.93024,0,0,1,396.35351,544.59252Z"/>
        <path class="cls-32" d="M405.03359,534.07734l-.00012,51.54819c2.87214,1.58006,12.933-3.77173,12.868-6.43534l0-51.45663C417.90571,530.14136,408.0471,535.76785,405.03359,534.07734Z"/>
        <path class="cls-33" d="M417.22736,526.77,388.0173,510.09006l-2.0085,1.09372,28.04378,16.00286c2.39063,1.41922-6.20671,5.85944-8.003,4.95271l-28.43277-16.13217-2.19333,1.26056,29.61016,16.80959C408.5024,536.02321,420.95615,529.00956,417.22736,526.77Z"/>
      </g>
    </g>
    <g>
      <g>
        <g>
          <polygon class="cls-30" points="368.259 519.962 368.259 522.001 397.747 538.907 397.747 536.001 368.259 519.962"/>
          <path class="cls-31" d="M396.30326,538.0112l-28.05741-16.01063-8.37916,4.83081,28.43339,16.13252C390.09645,543.87059,398.69387,539.4304,396.30326,538.0112Z"/>
          <polygon class="cls-30" points="387.284 594.404 357.674 577.333 357.674 526.046 387.284 542.856 387.284 594.404"/>
          <path class="cls-32" d="M387.28418,542.8559l-.00012,51.54819c2.87214,1.58006,12.933-3.77173,12.868-6.43534V536.51212C400.1563,538.91992,390.29769,544.54641,387.28418,542.8559Z"/>
          <path class="cls-33" d="M399.478,535.54853l-29.21006-16.67991-2.0085,1.09372,28.04378,16.00286c2.39063,1.41922-6.20671,5.85944-8.00305,4.95271l-28.43277-16.13217L357.674,526.0463l29.61016,16.80959C390.753,544.80177,403.20674,537.78812,399.478,535.54853Z"/>
        </g>
        <g>
          <polygon class="cls-30" points="351.47 529.65 351.47 531.688 380.958 548.595 380.958 545.689 351.47 529.65"/>
          <path class="cls-31" d="M379.514,547.69871l-28.05741-16.01062-8.37916,4.83081,28.43339,16.13252C373.30721,553.55811,381.90463,549.11792,379.514,547.69871Z"/>
          <polygon class="cls-30" points="370.495 604.092 340.885 587.02 340.885 535.734 370.495 552.543 370.495 604.092"/>
          <path class="cls-34" d="M361.81486,563.0586l-13.68736-7.88443a2.7907,2.7907,0,0,1-1.39773-2.41819v-4.66531a.93023.93023,0,0,1,1.38929-.80907l13.67682,7.75993a2.79071,2.79071,0,0,1,1.41354,2.42723v4.78377A.93024.93024,0,0,1,361.81486,563.0586Z"/>
          <path class="cls-32" d="M370.49494,552.54341l-.00012,51.5482c2.87214,1.58005,12.933-3.77174,12.868-6.43534V546.19964C383.36706,548.60744,373.50845,554.23392,370.49494,552.54341Z"/>
          <path class="cls-33" d="M382.68871,545.236l-29.21006-16.6799-2.0085,1.09372,28.04378,16.00286c2.39063,1.41922-6.20671,5.85943-8.00305,4.95271l-28.43277-16.13217-2.19333,1.26056,29.61016,16.80959C373.96375,554.48929,386.4175,547.47563,382.68871,545.236Z"/>
        </g>
      </g>
      <g>
        <g>
          <path class="cls-30" d="M334.3547,539.89234c-5.14246,1.53772-8.97085,3.35963-8.13672,6.191l28.8775,57.47325,7.47827,4.243a.61585.61585,0,0,0,.91976-.53564l0-50.09362a.75188.75188,0,0,0-.3756-.65095Z"/>
          <path class="cls-35" d="M326.81859,547.11791l27.07525,15.45017,8.08584-4.66171-27.43807-15.56779C332.80813,541.46363,324.51166,545.74839,326.81859,547.11791Z"/>
          <polygon class="cls-34" points="361.976 606.721 353.899 611.384 353.605 562.74 361.98 557.906 361.976 606.721"/>
          <path class="cls-33" d="M323.85463,545.966l26.89461,15.35766a4.63438,4.63438,0,0,1,2.3363,4.02446l0,47.40161-1.29656.75268.56341.32172a1.51371,1.51371,0,0,0,1.47458.01487l.44107-.2402a1.58584,1.58584,0,0,0,.82738-1.3927l0-48.11346a4.35574,4.35574,0,0,0-2.19693-3.78311l-25.86685-14.76063c-2.39223-1.42008,6.21118-5.86357,8.00873-4.95633l27.35822,15.52267a2.16169,2.16169,0,0,1,1.09492,1.88014l0,49.26852a.72111.72111,0,0,1-.91973.5357l.16245.09214a1.52481,1.52481,0,0,0,1.512-.00418l.90988-.52283a1.05683,1.05683,0,0,0,.53031-.91634l0-49.1537a3.12552,3.12552,0,0,0-1.58249-2.71808l-28.04883-15.92326C332.58577,536.70607,320.1231,543.72462,323.85463,545.966Z"/>
          <path class="cls-30" d="M323.16542,596.51105l0,.00362.00008.00326.00075.00168a1.23072,1.23072,0,0,0,.68844,1.0314L351.789,613.50239a.86675.86675,0,0,0,1.29656-.75268l0-47.87508a3.83549,3.83549,0,0,0-1.921-3.32349l-27.71029-15.96279-.28481-.63012Z"/>
        </g>
        <g>
          <path class="cls-30" d="M318.54892,553.08085c-5.226,1.53889-9.15335,3.36219-8.473,6.19567l25.75552,57.51709,7.24779,4.24626a.646.646,0,0,0,.94886-.536l2.72111-50.13183a.70709.70709,0,0,0-.34024-.65145Z"/>
          <path class="cls-35" d="M310.62032,560.31194l26.236,15.46194,8.33907-4.66526L318.603,555.529C316.917,554.65334,308.38778,558.94137,310.62032,560.31194Z"/>
          <polygon class="cls-34" points="342.54 619.96 334.21 624.627 336.559 575.945 345.195 571.109 342.54 619.96"/>
          <path class="cls-33" d="M307.71893,559.15912l26.06037,15.36937A4.35751,4.35751,0,0,1,335.897,578.556l-2.57484,47.43776-1.33744.75326.54594.322a1.5102,1.5102,0,0,0,1.47377.01487l.45411-.24038a1.69616,1.69616,0,0,0,.903-1.39376l2.61351-48.15016a4.09546,4.09546,0,0,0-1.99143-3.786l-25.065-14.77189c-2.3151-1.42116,6.52969-5.86805,8.27795-4.96012l26.515,15.53451a2.03236,2.03236,0,0,1,.9928,1.88158l-2.67631,49.3061a.76223.76223,0,0,1-.94883.53611l.15745.09221a1.52417,1.52417,0,0,0,1.51227-.00419l.93828-.52322a1.12986,1.12986,0,0,0,.58008-.917l2.67-49.1912a2.93857,2.93857,0,0,0-1.43484-2.72015l-27.18387-15.9354C316.95307,549.89215,304.10916,556.91605,307.71893,559.15912Z"/>
          <path class="cls-32" d="M304.28409,609.74275l-.00021.00362-.0001.00326.00065.00168a1.15311,1.15311,0,0,0,.63242,1.03219L331.98471,626.747a.909.909,0,0,0,1.33744-.75326l2.60056-47.91159a3.60675,3.60675,0,0,0-1.74043-3.326l-26.84319-15.975-.25058-.6306Z"/>
        </g>
      </g>
    </g>
    <g>
      <path class="cls-36" d="M326.52855,593.64562v37.47713a1.88644,1.88644,0,0,1-.95216,1.64722L289.74654,653.489a3.87747,3.87747,0,0,1-1.90432.50461v-60.348Z"/>
      <path class="cls-37" d="M287.84222,593.64562v60.348a3.87748,3.87748,0,0,1-1.90433-.50461l-46.99163-27.15586a1.88642,1.88642,0,0,1-.95216-1.64722V587.20881Z"/>
      <path class="cls-38" d="M238.94156,585.5602l35.83268-20.71537a3.80866,3.80866,0,0,1,3.81242,0L325.58111,591.997a1.90432,1.90432,0,0,1,0,3.29729l-35.83267,20.71537a3.80863,3.80863,0,0,1-3.81243,0L238.94156,588.8575A1.90433,1.90433,0,0,1,238.94156,585.5602Z"/>
      <path class="cls-39" d="M314.01738,611.56832l-8.28628,4.82494a.93035.93035,0,0,1-1.3985-.804v-.88454a1.86071,1.86071,0,0,1,.92441-1.608l8.28629-4.82494a.93035.93035,0,0,1,1.39849.804v.88454A1.86069,1.86069,0,0,1,314.01738,611.56832Z"/>
    </g>
    <path class="cls-40" d="M237.62668,553.66659a16.007,16.007,0,0,0-8.007,13.86566l.00159,70.16351L419.34531,528.175a10.03533,10.03533,0,0,0,5.00439-8.66675l.00257-73.59088Z"/>
    <g>
      <path class="cls-41" d="M468.77751,491.26153v6.14a2.8483,2.8483,0,0,1-1.43,2.48l-233.54993,134.83v-49.02l234.97-94.42Z"/>
      <path class="cls-42" d="M468.7675,491.27154a2.82315,2.82315,0,0,1-1.43,2.41l-233.53992,134.83v-54.57l186.37988-107.6,4.24-2.45,4.24,2.46,38.68,22.37A2.81343,2.81343,0,0,1,468.7675,491.27154Z"/>
    </g>
    <g>
      <g>
        <polygon class="cls-43" points="432.707 499.149 401.794 481.327 401.794 437.363 432.707 454.912 432.707 499.149"/>
        <path class="cls-44" d="M432.70688,454.91158l-.00013,44.2376c2.99849,1.64957,13.50193-3.93764,13.434-6.71842v-44.142C446.14522,450.80246,435.85294,456.67645,432.70688,454.91158Z"/>
        <path class="cls-45" d="M445.437,447.28277l-30.495-17.41364-13.14786,7.49342,30.91268,17.549C436.32827,456.94305,449.32986,449.62087,445.437,447.28277Z"/>
      </g>
      <g>
        <polygon class="cls-30" points="417.197 511.846 386.285 494.024 386.285 450.06 417.197 467.609 417.197 511.846"/>
        <path class="cls-33" d="M417.19713,467.60882l-.00014,44.2376c2.9985,1.64956,13.50194-3.93765,13.434-6.71842V460.986C430.63547,463.4997,420.34319,469.37369,417.19713,467.60882Z"/>
        <path class="cls-32" d="M429.92728,459.98l-30.495-17.41364-13.14786,7.49342,30.91268,17.549C420.81852,469.64029,433.8201,462.31811,429.92728,459.98Z"/>
      </g>
      <g>
        <polygon class="cls-30" points="376.733 440.268 376.733 442.396 407.518 460.046 407.518 457.013 376.733 440.268"/>
        <path class="cls-34" d="M406.01022,459.1109,376.7186,442.396l-8.74775,5.04331L397.655,464.28147C399.53038,465.228,408.506,460.59254,406.01022,459.1109Z"/>
        <polygon class="cls-30" points="396.594 517.984 365.682 500.162 365.682 446.62 396.594 464.169 396.594 517.984"/>
        <path class="cls-33" d="M396.59441,464.16871l-.00013,53.81575c2.99849,1.64956,13.50194-3.93765,13.434-6.71843V457.54588C410.03276,460.0596,399.74048,465.93359,396.59441,464.16871Z"/>
        <path class="cls-32" d="M409.32456,456.5399l-30.495-17.41364-2.09685,1.14184,29.27739,16.70681c2.49579,1.48164-6.47974,6.11718-8.3551,5.17057l-29.68349-16.84181-2.28981,1.316,30.91268,17.549C400.2158,466.20019,413.21739,458.878,409.32456,456.5399Z"/>
      </g>
      <g>
        <polygon class="cls-30" points="358.754 450.698 358.754 452.826 389.539 470.476 389.539 467.442 358.754 450.698"/>
        <path class="cls-34" d="M388.03152,469.54045l-29.29163-16.71491-8.74774,5.04331L379.67629,474.711C381.55168,475.6576,390.52729,471.02209,388.03152,469.54045Z"/>
        <polygon class="cls-30" points="378.616 528.414 347.703 510.592 347.703 457.049 378.616 474.598 378.616 528.414"/>
        <path class="cls-33" d="M378.61571,474.59827l-.00014,53.81574c2.9985,1.64956,13.50194-3.93765,13.434-6.71842V467.97544C392.05405,470.48915,381.76177,476.36314,378.61571,474.59827Z"/>
        <path class="cls-32" d="M391.34586,466.96945l-30.495-17.41363-2.09686,1.14183,29.2774,16.70681c2.49579,1.48165-6.47974,6.11718-8.3551,5.17057l-29.6835-16.84181-2.2898,1.316,30.91268,17.549C382.2371,476.62974,395.23869,469.30756,391.34586,466.96945Z"/>
      </g>
      <g>
        <polygon class="cls-43" points="360.697 537.898 329.784 520.076 329.784 476.111 360.697 493.66 360.697 537.898"/>
        <path class="cls-44" d="M360.69673,493.66037l-.00013,44.2376c2.99849,1.64956,13.50194-3.93765,13.434-6.71842l0-44.142C374.13508,489.55125,363.8428,495.42524,360.69673,493.66037Z"/>
        <path class="cls-45" d="M373.42688,486.03155l-30.495-17.41363-13.14786,7.49342,30.91268,17.549C364.31813,495.69184,377.31971,488.36966,373.42688,486.03155Z"/>
      </g>
      <g>
        <polygon class="cls-43" points="344.763 551.034 313.85 533.212 313.85 489.248 344.763 506.797 344.763 551.034"/>
        <path class="cls-44" d="M344.763,506.79655l-.00013,44.23761c2.99849,1.64956,13.50194-3.93765,13.434-6.71843v-44.142C358.20134,502.68744,347.90906,508.56143,344.763,506.79655Z"/>
        <path class="cls-45" d="M357.49314,499.16774l-30.495-17.41364-13.14786,7.49342,30.91268,17.549C348.38439,508.828,361.386,501.50585,357.49314,499.16774Z"/>
      </g>
      <g>
        <path class="cls-30" d="M304.97706,486.137c-5.09663,1.524-8.89089,3.32969-8.0642,6.13576l28.6201,56.961,7.41162,4.2052a.61036.61036,0,0,0,.91156-.53087V503.26093a.7452.7452,0,0,0-.37224-.64515Z"/>
        <path class="cls-35" d="M297.50813,493.29815,324.342,508.6106l8.01377-4.62016-27.19349-15.429C303.44427,487.69427,295.22176,491.94083,297.50813,493.29815Z"/>
        <polygon class="cls-34" points="332.352 552.37 324.347 556.991 324.056 508.781 332.356 503.99 332.352 552.37"/>
        <path class="cls-33" d="M294.57058,492.15648l26.65489,15.22077a4.59308,4.59308,0,0,1,2.31547,3.98859l0,46.97909-1.285.746.55839.31886a1.50021,1.50021,0,0,0,1.46143.01473l.43714-.23806a1.57169,1.57169,0,0,0,.82-1.38028l0-47.6846a4.31687,4.31687,0,0,0-2.17734-3.74938l-25.63629-14.62906c-2.37091-1.40743,6.15582-5.81131,7.93735-4.91216L332.771,502.21526a2.14239,2.14239,0,0,1,1.08517,1.86338l0,48.82936a.71467.71467,0,0,1-.91153.53092l.161.09133a1.51121,1.51121,0,0,0,1.49856-.00415l.90178-.51817a1.0474,1.0474,0,0,0,.52557-.90817l0-48.71557a3.09771,3.09771,0,0,0-1.56839-2.69385L306.66427,484.909C303.22389,482.97911,290.87232,489.9351,294.57058,492.15648Z"/>
        <path class="cls-30" d="M293.88752,542.251l0,.00358.00008.00324.00073.00166a1.21978,1.21978,0,0,0,.68232,1.02221L322.256,559.0909a.859.859,0,0,0,1.285-.746l0-47.44834a3.8013,3.8013,0,0,0-1.90384-3.29386l-27.4633-15.82051-.28227-.6245Z"/>
      </g>
      <g>
        <path class="cls-30" d="M284.61835,497.85692c-5.09662,1.524-8.89089,3.32968-8.06419,6.13576l28.62009,56.961,7.41162,4.2052a.61036.61036,0,0,0,.91156-.53086V514.98087a.74518.74518,0,0,0-.37224-.64515Z"/>
        <path class="cls-35" d="M277.14942,505.01809l26.8339,15.31244,8.01377-4.62015-27.19349-15.429C283.08556,499.41421,274.86305,503.66077,277.14942,505.01809Z"/>
        <polygon class="cls-34" points="311.993 564.09 303.988 568.711 303.697 520.5 311.997 515.71 311.993 564.09"/>
        <path class="cls-33" d="M274.21187,503.87642l26.65489,15.22076a4.59309,4.59309,0,0,1,2.31547,3.9886l0,46.97909-1.285.746.55839.31885a1.50023,1.50023,0,0,0,1.46144.01474l.43713-.23806a1.57169,1.57169,0,0,0,.82-1.38029l0-47.6846a4.31689,4.31689,0,0,0-2.17734-3.74938L277.36057,503.463c-2.37091-1.40742,6.15581-5.8113,7.93734-4.91215l27.11435,15.3843a2.14241,2.14241,0,0,1,1.08517,1.86338l0,48.82937a.71468.71468,0,0,1-.91153.53092l.161.09132a1.51121,1.51121,0,0,0,1.49857-.00415l.90177-.51816a1.04745,1.04745,0,0,0,.52558-.90818l0-48.71556a3.09765,3.09765,0,0,0-1.56839-2.69385L286.30556,496.629C282.86519,494.69905,270.51361,501.655,274.21187,503.87642Z"/>
        <path class="cls-30" d="M273.52881,553.971l0,.00358.00008.00323.00074.00166a1.21973,1.21973,0,0,0,.68231,1.02221l27.68535,15.8092a.859.859,0,0,0,1.285-.746l0-47.44834a3.80133,3.80133,0,0,0-1.90384-3.29387l-27.4633-15.8205-.28227-.6245Z"/>
      </g>
      <g>
        <polygon class="cls-30" points="264.32 503.41 264.32 505.538 295.105 523.188 295.105 520.154 264.32 503.41"/>
        <path class="cls-34" d="M293.59757,522.25263l-29.29163-16.71491L255.5582,510.581l29.68414,16.84217C287.11773,528.36977,296.09335,523.73426,293.59757,522.25263Z"/>
        <polygon class="cls-30" points="284.182 581.126 253.269 563.304 253.269 509.761 284.182 527.31 284.182 581.126"/>
        <path class="cls-33" d="M284.18176,527.31044l-.00013,53.81575c2.99849,1.64956,13.50193-3.93765,13.434-6.71843V520.68761C297.6201,523.20133,287.32782,529.07532,284.18176,527.31044Z"/>
        <path class="cls-32" d="M296.91191,519.68163l-30.495-17.41364-2.09686,1.14184,29.2774,16.70681c2.49579,1.48164-6.47974,6.11718-8.3551,5.17057l-29.6835-16.84181-2.2898,1.316,30.91268,17.549C287.80315,529.34191,300.80474,522.01974,296.91191,519.68163Z"/>
      </g>
      <g>
        <polygon class="cls-30" points="266.526 598.167 235.613 580.344 235.613 536.38 266.526 553.929 266.526 598.167"/>
        <path class="cls-33" d="M266.52582,553.92893l-.00013,44.2376c2.99849,1.64956,13.50194-3.93765,13.434-6.71842v-44.142C279.96417,549.81981,269.67189,555.6938,266.52582,553.92893Z"/>
        <path class="cls-32" d="M279.256,546.30012l-30.495-17.41364-13.14785,7.49342,30.91268,17.549C270.14722,555.9604,283.1488,548.63822,279.256,546.30012Z"/>
      </g>
    </g>
    <path class="cls-46" d="M476.71573,422.62848l-.00434,127.04992a10.03539,10.03539,0,0,1-5.00439,8.66675L235.62265,694.62805l-.003-127.09607a10.03467,10.03467,0,0,1,5.00586-8.66852l236.09021-136.235m.656-6.4939a5.29081,5.29081,0,0,0-2.65869.72226L237.62674,553.66656a16.00725,16.00725,0,0,0-8.00708,13.86573l.00305,128.246a5.32519,5.32519,0,0,0,8.00372,4.621L474.70663,563.5415a16.00786,16.00786,0,0,0,8.00476-13.86285l.0044-128.19992a5.34292,5.34292,0,0,0-5.34406-5.34415Z"/>
    <path class="cls-47" d="M229.62273,695.77826l-.00318-128.246a16.00762,16.00762,0,0,1,8.00708-13.86567L474.71306,416.85681a5.29107,5.29107,0,0,1,2.65869-.72223,5.35714,5.35714,0,0,1,2.72315.75733l.00427-.00489-59.387-34.30786-.01331.01245a5.28353,5.28353,0,0,0-5.56958-.15619L178.043,519.24518a16.00783,16.00783,0,0,0-8.00708,13.86566l.00329,128.246a5.28557,5.28557,0,0,0,2.668,4.62091l-.00049.00049,59.62305,34.44427.00488-.00463A5.2825,5.2825,0,0,1,229.62273,695.77826Z"/>
  </g>
  <g>
    <g>
      <path class="cls-48" d="M455.30524,539.2372v80.89313a10.1177,10.1177,0,0,0,5.09712,8.79244l17.34172,9.91615,3.8112,2.18945a1.26531,1.26531,0,0,0,.17373.09269,11.39665,11.39665,0,0,0,5.88484,1.41325V557.71416a21.96124,21.96124,0,0,1,10.99348-19.02138l136.15021-78.333L611.83,447.25244a18.86477,18.86477,0,0,0-18.77042.02585L466.2872,520.21582A21.93656,21.93656,0,0,0,455.30524,539.2372Z"/>
      <path class="cls-49" d="M487.61385,557.71416v84.82015a11.46911,11.46911,0,0,0,5.87324-1.81874l1.96934-1.26265,139.30111-89.52344V460.35973l-136.15021,78.333A21.96124,21.96124,0,0,0,487.61385,557.71416Z"/>
    </g>
    <path class="cls-50" d="M499.35073,636.93888l136.25694,78.35328,135.652-87.66991-54.006-31.16177-82.3552-47.45792L503.89175,564.35174a21.0897,21.0897,0,0,0-1.51754,2.28207,22.361,22.361,0,0,0-3.00036,11.20207Z"/>
    <polygon class="cls-51" points="499.374 604.54 617.484 672.558 617.484 663.462 499.374 595.444 499.374 604.54"/>
    <path class="cls-52" d="M502.37421,566.63381l133.26817,76.95156,81.61135-47.12489,41.10111-23.7362L621.982,494.10458l-109.30936,63.1228-2.13154,1.22793-.01159.01159a22.21374,22.21374,0,0,0-6.63778,5.88484A21.0897,21.0897,0,0,0,502.37421,566.63381Z"/>
    <path class="cls-53" d="M604.90834,418.30171l.70528-.807a31.81868,31.81868,0,0,1,20.19764-10.6575l15.78572-1.87905a19.841,19.841,0,0,1,12.11267,2.43154l92.7746,53.4209a36.40394,36.40394,0,0,1,17.18518,40.106l-23.404,96.2954Z"/>
    <path class="cls-54" d="M709.81722,600.75688l23.404-96.29541a36.40389,36.40389,0,0,0-17.18519-40.106l-86.4274-49.84153a19.96888,19.96888,0,0,0-29.38727,12.59227l-23.54011,96.85693Z"/>
    <polygon class="cls-55" points="709.817 600.757 576.681 523.963 579.207 513.541 712.337 590.359 709.817 600.757"/>
    <g>
      <g>
        <g>
          <g>
            <path class="cls-56" d="M564.33273,655.04821s7.55556,15.57553,4.91751,20.19605-8.31787,4.94373-15.59216,7.79609-13.41143,7.24568-25.81819,5.87237-12.76414-9.13468-9.21229-14.45811l7.86955-.32407,10.455-4.45491,11.8531-10.87182Z"/>
            <path class="cls-57" d="M562.38817,651.33561s9.066,16.111,6.50609,20.5946-8.07134,4.7972-15.13,7.565-13.01393,7.03093-25.053,5.69832-14.00019-11.544-5.89482-13.45983l4.59188-.88422,8.95411-6.28052,10.25909-12.10415Z"/>
            <path class="cls-56" d="M521.54255,671.58511c-10.78723,7.24468,1.51064,17.01063,17.46265,14.13348l13.92476-4.4751c-.31112-11.95857-11.70887-20.46533-17.07576-17.8711Z"/>
          </g>
          <path class="cls-57" d="M526.03643,611.35845l20.5851,41.10638s16.7788.41358,15.71837-4.27259l-12.346-48.79124Z"/>
          <path class="cls-56" d="M602.50438,578.67145l-11.61689-55.46194s-54.39758,14.78695-71.16609,22.69058c-13.3617,6.29788-19.29789,20.10632-13.27769,33.92883l21.76293,41.23166c4.93617,9.2653,28.04448-.29788,27.39211-7.53192-2.34046-23.74487-4.24317-25.78723-4.24317-25.78723Z"/>
          <g>
            <path class="cls-56" d="M569.34939,698.54075s.88316,8.93345-.053,13.16727c-1.183,5.35012-2.72344,8.10738-3.13211,11.645-1.09956,9.51839-4.52436,16.39007-11.8443,19.74994-14.88773,6.8335-22.27087-3.81659-19.02337-11.351l5.80067-9.39469,10.80967-25.21992C557.17772,691.34014,568.83939,692.67722,569.34939,698.54075Z"/>
            <path class="cls-58" d="M568.77685,691.39661s.98227,14.38075-.023,18.60115c-1.25978,5.28911-3.19879,9.574-4.08211,13.09479s-1.38762,11.29917-8.7184,15.26523c-14.41757,7.80014-24.5-1.6-19.31175-9.66751l4.91181-10.49226,11.24212-26.65148Z"/>
            <path class="cls-56" d="M537.89987,726.00244c-11.49948,18.84862,15.5363,21.572,25.49,6.41077l2.36177-10.71022c-2.69-11.42572-18.50431-13.26959-22.65334-7.10931Z"/>
          </g>
          <path class="cls-58" d="M554.91061,639.6859l-2.115,51.86063,15.98128-.15c4.754-19.68091,13.03556-47.716,13.38725-55.14449Z"/>
          <path class="cls-59" d="M660.16708,530.60632l-63.76416-9.83667L585.774,526.49494,594.73,560.91877l-30.86021,27.64007c-7.15247,5.906-11.40779,17.14-11.9083,27.7901l.96851,31.98823c0,9.50091,23.93213,13.17,26.85115,3.14894,4.34042-16.85107,7.48936-25.70213,7.48936-25.70213s44.89058-15.42674,62.05416-31.81126C673.33842,571.04889,660.16708,530.60632,660.16708,530.60632Z"/>
        </g>
        <g>
          <g>
            <path class="cls-60" d="M620.67361,409.48132l.07032-.25195s-14.5691-1.812-27.011,15.34277c-8.49372,11.71094-26.39858,35.84543-26.39858,35.84543-7.40426,3.31914-10.08511,12.383-7.1162,19.27659,2.89224,6.71559,10.05237,12.0194,20.13886,10.28865,13.67435-2.34639,21.15491-22.48952,22.62085-23.98977l6.00769-14.59985,12.57715-41.92261S621.24124,409.45911,620.67361,409.48132Z"/>
            <polygon class="cls-61" points="595.274 441.906 586.745 469.567 596.313 475.524 595.274 441.906"/>
            <circle class="cls-62" cx="571.93004" cy="473.1467" r="9.08953"/>
            <circle class="cls-58" cx="574.35006" cy="473.1467" r="8.66179"/>
            <path class="cls-63" d="M583.47671,522.20005a10.26465,10.26465,0,0,0-2.1736,7.213c.48291,9.0939,8.29688,24.21991,26.72878,32.43981,23.98667,10.69712,54.28113,11.71839,56.83432-.66458,3.08511-20.25532-1.02127-46.37239-1.02127-46.37239l18.07394-56.3781c.00675-8.74359-3.54772-20.589-36.569-39.95067-15.11147-8.86046-21.87234-9.01663-21.87234-9.01663-9.80283-1.5848-25.33474,5.97767-24.44112,30.99895-6,19.78723-5.78724,36.886-1.87234,58.20348L594.696,508.88565Z"/>
            <path class="cls-58" d="M664.1094,433.02966a68.23238,68.23238,0,0,0-8.76745-8.32641c-2.99256-1.98389-6.29846-4.05054-9.99207-6.21607-2.18432-1.281-4.17383-2.36133-6.01416-3.3042-9.21338-3.91064-15.48926-3.62817-21.57727-2.31958-4.19269,8.19068-6.6369,18.49024,7.09107,23.99C639.15726,442.58533,655.9678,441.64075,664.1094,433.02966Z"/>
            <path class="cls-64" d="M625.74856,409.83313a13.88267,13.88267,0,0,0-2.271-.36255c-9.80286-1.585-28.21277,4.25049-27.31915,29.27173-6,19.78735-3.69762,40.60063.2173,61.91825l-8.36057,13.69318c-1.89335,3.57031-1.882,9.99233,1.48577,14.96854a2.432,2.432,0,0,0,3.98837.03289c2.51685-3.53309,6.9537-10.22663,8.95139-16.08654,2.87234-8.42553,2.42553-44.80851,7.02128-67.40426a66.63925,66.63925,0,0,1,19.57447-35.234Z"/>
            <path class="cls-65" d="M651.99173,422.53357s-15.72126,10.69251-19.29573,30.86272c-3.10094,17.49815-3.92275,38.76751-4.34042,53.07043-.3369,11.53668-6.6086,32.22622-9.022,39.79757a3.97761,3.97761,0,0,0,1.94269,4.71372c14.52186,7.77313,45.30113,6.046,46.01543-1.45406.0851-16.72341-3.95388-34-3.95388-34l18.581-57.08608C681.92508,450.32117,678.84585,439.52722,651.99173,422.53357Z"/>
            <path class="cls-61" d="M629.56658,505.261l-1.42776,4.38125a117.64813,117.64813,0,0,1-2.62358,14.55036,8.0075,8.0075,0,0,0,4.77048,9.21708l15.37752,6.3249a22.73867,22.73867,0,0,0,21.09715-2.00029l0,0a178.39416,178.39416,0,0,0-3.42248-22.21045l.72412-2.22461-10.52515-49.03-9.7345,34.74415h-5.6288A9.05249,9.05249,0,0,0,629.56658,505.261Z"/>
            <path class="cls-66" d="M681.27322,452.402c-4.51977-14.64136-25.13041-4.79293-27.73633,11.86718L648.0577,506.8431l-9.78723-2.51064c-7.31915-2.51064-17.70213,14.46808-11.3745,19.79162,0,0,12.539,10.17265,26.53448,11.99561,7.35066.95745,11.9464-2.617,14.9464-9.12766C673.90718,514.99005,684.65347,464.80066,681.27322,452.402Z"/>
            <ellipse class="cls-62" cx="634.73737" cy="514.81585" rx="9.08953" ry="6.66891" transform="translate(-128.47492 807.10661) rotate(-60)"/>
            <path class="cls-58" d="M637.99387,507.07714l-19.30693-8.96826-7.43775,10.1172,18.383,13.0851C637.03643,525.992,645.80238,510.8431,637.99387,507.07714Z"/>
          </g>
          <g>
            <polygon class="cls-58" points="610.305 486.078 604.388 483.526 605.465 485.937 610.305 486.078"/>
            <path class="cls-58" d="M589.609,476.07772c0,6.13384-3.27049,6.81737-8.17682,7.3552s-9.12188-4.25032-10.14038-10.267c-1.051-6.20865,2.44252-11.1982,7.74143-10.22489C589.24884,464.8175,589.609,469.94388,589.609,476.07772Z"/>
            <path class="cls-59" d="M608.491,506.1399l-12.40782-6.86184a10.02133,10.02133,0,0,1-4.73693-5.85048l-8.21816-26.98925a2.55,2.55,0,0,1,3.67344-2.97425l12.40783,6.86184a10.02128,10.02128,0,0,1,4.73692,5.85048l8.21816,26.98925A2.55,2.55,0,0,1,608.491,506.1399Z"/>
            <path class="cls-58" d="M618.34446,497.277c3.3095,6.52946-7.09527,10.94909-7.09527,10.94909s-9.88877-1.96953-12.37736-3.99631-5.20584-9.3666-5.04131-13.31524a6.57379,6.57379,0,0,1,4.23316-5.98519c2.40825-1.01525,8.9051.10195,11.23713.75146C614.35708,487.08906,618.34446,497.277,618.34446,497.277Z"/>
          </g>
        </g>
      </g>
      <g>
        <path class="cls-67" d="M609.49527,371.53011s-3.77866,3.71506-3.14264,17.333c.45689,9.78236-4.10672,17.38326-1.98423,24.88069,3.5104,12.4,17.88108,11.87988,24.55141,7.18145Z"/>
        <path class="cls-57" d="M626.188,415.07467V424.992c-.32178,5.29788,12.25269,4.97873,21.14785-2.41842l-2.0099-18.01089Z"/>
        <g>
          <path class="cls-58" d="M627.92171,418.55074c10.89288-1.45768,17.17-7.56488,18.30692-17.82642l2.42186-22.18914c1.227-8.92391-6.37717-17.81949-16.84-18.339-9.14436-.454-18.95779,6.63381-19.46564,16.76353a205.01089,205.01089,0,0,0,.487,22.4735C613.779,409.39907,617.79622,419.90573,627.92171,418.55074Z"/>
          <g>
            <path class="cls-68" d="M670.01022,413.218c-1.41815-8.71784-7.20916-17.48579-9.042-27.37459l.00208-.00132c-2.911-14.20471-6.51127-22.92-19.00265-26.87124-18.87085-5.22052-31.10029,7.13278-32.47121,12.5595-1.18532,4.69285,4.05623,18.938,26.48539,21.102-1.60744,4.09731,1.43088,9.04873,5.70474,7.4665.80512,1.08365,2.96959,3.71346,2.96959,3.71346s-11.444,19.13894-2.75249,25.911C651.57433,437.25824,672.56638,428.93153,670.01022,413.218Z"/>
            <path class="cls-58" d="M644.56566,407.11088c4.05191-.258,7.10256-6.13281,6.8098-10.73072s-4.52017-8.214-7.87-5.91981C639.30036,393.34029,640.51374,407.36888,644.56566,407.11088Z"/>
          </g>
        </g>
      </g>
    </g>
    <path class="cls-69" d="M617.61723,633.982v80.91624a10.11094,10.11094,0,0,0,5.07392,8.76932l.60241.336L641.78211,734.58c.01153.0116.02313.0116.03472.02319a16.41363,16.41363,0,0,0,8.109,2.13154V652.459a21.97553,21.97553,0,0,1,10.99349-19.02145l134.27356-77.244a14.01865,14.01865,0,0,0-5.05081-5.16655.01133.01133,0,0,0-.01152-.01159l-7.99319-4.72641-25.833-15.26809-2.94245,12.1635-124.76276,71.7763A21.93658,21.93658,0,0,0,617.61723,633.982Z"/>
    <path class="cls-70" d="M649.92583,652.459v84.27572a16.25586,16.25586,0,0,0,8.02791-2.11994l15.29128-8.79251,115.39111-66.38957a16.86232,16.86232,0,0,0,8.4334-14.59618V563.24833a14.24137,14.24137,0,0,0-1.87665-7.05486l-134.27356,77.244A21.97553,21.97553,0,0,0,649.92583,652.459Z"/>
    <path class="cls-71" d="M788.76067,575.40605v84.02662c0,1.10639,1.55607,2.00328,3.47528,2.00328s3.47529-.89689,3.47529-2.00328V575.40605Z"/>
    <path class="cls-72" d="M802.99385,566.76966l-5.92423-3.3995v5.24546L675.19021,638.73077a23.61678,23.61678,0,0,0-11.78227,20.3879v72.38311c0,1.10639,1.55579,2.00335,3.47529,2.00335,1.91921,0,3.47529-.897,3.47529-2.00335V659.11867a16.643,16.643,0,0,1,8.30245-14.3661l118.40865-68.11774,5.92762-3.41A3.72235,3.72235,0,0,0,802.99385,566.76966Z"/>
  </g>
  <path class="cls-5" d="M889.33418,708.169l-73.62-42.56077a7.825,7.825,0,0,0-7.83281,0l-56.50991,32.721a3.91253,3.91253,0,0,0,0,6.77445l73.62,42.56077a7.82507,7.82507,0,0,0,7.83282,0l56.5099-32.721A3.91252,3.91252,0,0,0,889.33418,708.169Z"/>
  <g>
    <path class="cls-73" d="M828.90787,661.742v76.9897a1.74094,1.74094,0,0,0,2.611,1.5079l48.82657-28.17014a5.22283,5.22283,0,0,0,2.61249-4.52373V634.058"/>
    <path class="cls-74" d="M759.58872,621.83043v76.98969a1.741,1.741,0,0,0,2.61106,1.50791l63.08066-36.39966a5.22282,5.22282,0,0,0,2.61249-4.52372V585.917"/>
    <g>
      <path class="cls-75" d="M885.19039,594.93977v41.964a3.498,3.498,0,0,1-1.74672,3.04229l-51.70209,29.8943a6.99676,6.99676,0,0,1-3.508.93165l-14.2541-75.83226Z"/>
      <path class="cls-76" d="M828.23356,594.93977V670.772a6.99713,6.99713,0,0,1-3.50838-.93165l-65.94143-38.12382a3.48237,3.48237,0,0,1-1.76148-3.04228v-41.964Z"/>
      <polygon class="cls-77" points="822.849 659.52 762.406 624.59 762.427 597.829 822.849 632.77 822.849 659.52"/>
      <path class="cls-78" d="M757.02227,578.9169v7.65774a3.47237,3.47237,0,0,0,1.75076,3.03443l65.95179,38.12776a7.01028,7.01028,0,0,0,7.017,0l51.69781-29.89825a3.47235,3.47235,0,0,0,1.75076-3.03443v-7.65773Z"/>
      <path class="cls-79" d="M883.43963,584.112l-65.95189-38.12771a7.01,7.01,0,0,0-7.017,0L758.773,575.88248a3.505,3.505,0,0,0,0,6.06884L824.72488,620.079a7.01,7.01,0,0,0,7.017,0l51.69779-29.89819A3.505,3.505,0,0,0,883.43963,584.112Z"/>
    </g>
  </g>
  <g>
    <g>
      <g>
        <path class="cls-80" d="M245.35791,115.93175a191.74873,191.74873,0,1,1-74.88721,15.113,191.17963,191.17963,0,0,1,74.88721-15.113m0-17.54224c-115.95068,0-209.94727,93.99659-209.94727,209.94727,0,115.95093,93.99659,209.94751,209.94727,209.94751s209.94727-93.99658,209.94727-209.94751c0-115.95068-93.99659-209.94727-209.94727-209.94727Z"/>
        <circle class="cls-81" cx="245.35783" cy="308.33688" r="194.19259"/>
        <path class="cls-82" d="M138.46094,297.82889l-62.05811,106.291a195.1182,195.1182,0,0,0,73.33936,73.26562c26.82348,14.687,57.11133,23.7461,88.24634,24.99073.42968.01611.85839.03613,1.28881.04931q.96607.0315,1.93384.05127c1.3794.02881,2.76026.05274,4.14673.05274V297.82889Z"/>
        <path class="cls-83" d="M352.5528,297.8291l58.43071,112.40669a194.05962,194.05962,0,0,1-165.32772,92.29368V297.8291Z"/>
        <rect class="cls-84" x="236.18501" y="314.47182" width="18.34563" height="191.19094"/>
      </g>
      <g>
        <circle class="cls-80" cx="425.70747" cy="193.23687" r="62.02326"/>
        <g>
          <rect class="cls-85" x="404.65068" y="184.59464" width="13.46241" height="40.4658" transform="translate(-24.34397 350.88352) rotate(-45)"/>
          <rect class="cls-85" x="430.86151" y="167.41377" width="13.46241" height="60.59444" transform="translate(607.21471 646.93854) rotate(-135)"/>
        </g>
      </g>
    </g>
    <path class="cls-86" d="M335.97515,314.47182H154.74051a16.27413,16.27413,0,0,1-15.95646-19.47393l35.57443-177.39916a16.27412,16.27412,0,0,1,15.95646-13.07433H300.40072a16.27411,16.27411,0,0,1,15.95645,13.07433L351.9316,294.99789A16.27412,16.27412,0,0,1,335.97515,314.47182Z"/>
  </g>
  <g class="cls-87">
    <g>
      <g>
        <g>
          <path class="cls-88" d="M1833.29257,276.76776v364.994L668.0495,879.16714l-35.31082,742.47737a67.90267,67.90267,0,0,0,34.16595-9.08382L1882.51432,909.95453c11.93091-6.91471,16.87055-19.22842,16.87055-31.10688l.00974-241.966v-398.407Z"/>
          <path class="cls-89" d="M668.04978,879.16724,632.739,1621.64451a67.44543,67.44543,0,0,1-33.65746-9.08377L-84.51537,1218.0974a33.97055,33.97055,0,0,1-12.575-12.609,34.02781,34.02781,0,0,1-4.33863-16.23551V944.99079Z"/>
          <g>
            <path class="cls-90" d="M1833.29311,572.745V700.35883l-.03393-.03392a33.54312,33.54312,0,0,1-16.84559,30.81021l-1149.51815,663.644a67.563,67.563,0,0,1-34.166,9.08377l35.31082-628.43893Z"/>
            <path class="cls-91" d="M1833.29311,623.28351V750.89735l-.03393-.03393a33.54314,33.54314,0,0,1-16.84559,30.81022L666.89544,1445.31758a67.56293,67.56293,0,0,1-34.166,9.08377l35.31082-628.43893Z"/>
            <path class="cls-92" d="M668.04029,825.96242l-35.31082,628.43893a67.50844,67.50844,0,0,1-33.62354-9.08377L-84.49114,1050.85425a33.59554,33.59554,0,0,1-16.94738-29.3869V891.31161Z"/>
            <path class="cls-93" d="M1511.13265,578.40121,668.06247,753.78549l-35.31082,628.41838a67.54177,67.54177,0,0,0,34.15075-9.09426l741.25525-428.243,408.23514-235.3942a33.5253,33.5253,0,0,0,16.85218-30.78024h.06417V551.05512Z"/>
            <path class="cls-93" d="M668.04029,753.76455l-35.31082,628.43893a67.50854,67.50854,0,0,1-33.62354-9.08377L-84.49114,978.65637a33.59554,33.59554,0,0,1-16.94738-29.3869V819.11373Z"/>
            <path class="cls-94" d="M1816.40619,521.97918,1133.02884,127.56642a67.79006,67.79006,0,0,0-67.793-.00194L638.82624,373.4057h0L-84.50071,791.16147a33.424,33.424,0,0,0-15.88816,20.86917,34.464,34.464,0,0,0-1.05921,8.48515A33.57682,33.57682,0,0,0-84.5,849.86941L394.77118,1126.564,599.09525,1244.3333a67.74135,67.74135,0,0,0,29.51265,8.93982q2.1907.14175,4.38634.14157a67.7439,67.7439,0,0,0,33.89758-9.08651L1816.40831,580.68324C1839.00011,567.63562,1838.99941,535.025,1816.40619,521.97918Z"/>
          </g>
        </g>
        <path class="cls-95" d="M1794.48594,898.6484,726.65582,1515.80422a32.62767,32.62767,0,0,0-16.294,28.24493v43.381L1810.77308,951.44088l.03331-43.36915A10.8759,10.8759,0,0,0,1794.48594,898.6484Z"/>
      </g>
      <g>
        <path class="cls-96" d="M1248.76083,375.60966c-61.77107-53.0664-140.28342-111.41812-225.20843-28.15808-25.00945,33.13682-49.65232,69.24928-74.01949,107.605L737.26457,512.7024C620.49738,584.7172,844.77114,706.19521,948.8974,702.79092l162.24949-58.66585,229.47316-129.62426C1354.96373,455.52462,1290.78208,411.70934,1248.76083,375.60966Z"/>
        <path class="cls-61" d="M1245.1452,508.45952l-55.98488,40.34855c-63.68127-59.51623-122.43106-100.08134-210.70527-138.05314l-24.85674,37.75193L748.28516,506.9423c-127.788,77.77553,96.48632,199.25226,200.61241,195.84809l138.14984-79.93694,107.91152-3.11338,21.8213-20.27323Z"/>
        <path class="cls-97" d="M572.942,390.07886l15.63064-9.19717a166.60439,166.60439,0,0,1,118.72918-19.567c216.51785,45.49123,489.50634,182.48938,562.802,363.04249,53.63048,132.11077,59.43368,219.92517,57.2275,264.20249a85.87256,85.87256,0,0,1-24.00794,55.201c-159.87585,166.50705-469.75262,337.09914-642.45483,379.28193a83.86978,83.86978,0,0,1-43.26747-.85786c-295.4457-85.7175-611.33917-278.53126-740.08242-405.75689a85.41651,85.41651,0,0,1-23.54208-78.40644c8.897-42.23681,24.57229-104.80714,45.088-139.29213C-68.02622,743.41188,572.942,390.07886,572.942,390.07886Z"/>
        <path class="cls-98" d="M930.79756,617.16306l37.79075,15.60688c7.19632,2.97165,17.45625,5.55675,25.30783,5.39293l37.35894-2.302c37.34313,35.60081,129.09839,119.84,163.735,122.31448,23.8213,1.70136,50.72991-33.36921,70.38615-65.85325-13.524-30.81715-33.24059-60.23614-57.64889-87.98969a37.76564,37.76564,0,0,0-4.09606,8.63185l-15.553,39.38866-142.29117-72.03076-18.94064-15.53791a48.15692,48.15692,0,0,0-20.88629-11.20689L970.904,543.52a9.44343,9.44343,0,0,0-11.27443,6.28529c-1.39889,4.36694,4.05368,10.62779,8.11382,12.76169l-38.19022,4.11259a11.63681,11.63681,0,0,0-12.2451,12.33635l1.30189,21.09034A19.77214,19.77214,0,0,0,930.79756,617.16306Z"/>
        <path class="cls-98" d="M774.4116,430.4632c3.59888,30.5312,55.32419,79.05105,72.75315,89.0667l22.86355,35.11081A60.81313,60.81313,0,0,0,893.619,574.74385l30.19782,14.51479a18.339,18.339,0,0,0,20.16637-2.85525l14.74327-13.17554a21.55134,21.55134,0,0,0,3.85609-27.584l-21.24768-33.61206a47.89,47.89,0,0,0-29.2365-20.96388l-23.62443-4.913-5.11375-45.49072,45.584-12.782a14.7277,14.7277,0,0,0,8.14328-7.62741c-34.32335-13.81068-57.94547-31.49232-91.92323-41.33122C808.55461,394.05625,772.40632,413.45241,774.4116,430.4632Z"/>
        <g>
          <path class="cls-99" d="M867.27547,511.65346,904.7236,478.8723l28.538,5.93475A47.89326,47.89326,0,0,1,962.498,505.77073l21.24718,33.61265a21.551,21.551,0,0,1-3.856,27.58413l-14.74308,13.17567a18.34012,18.34012,0,0,1-20.16649,2.85473l-30.19753-14.51516A60.81505,60.81505,0,0,1,891.19117,548.38Z"/>
          <path class="cls-100" d="M1070.44392,303.74062c-24.8629,2.23915-73.11982,7.93125-145.10193,30.38807-38.36222,11.48728-14.80262,97.83632,17.94656,92.71658l29.50833-4.80537c57.69139-69.08288,115.49218-114.27143,172.38189-111.53437C1121.95239,304.50289,1095.30682,301.50147,1070.44392,303.74062Z"/>
          <path class="cls-61" d="M1029.41891,362.75228c-22.63854,23.00052-51.31384,52.13483-58.68389,59.62374l-23.99867,3.90779Z"/>
          <ellipse class="cls-59" cx="936.03668" cy="381.67754" rx="28.16712" ry="41.12066" transform="translate(-59.98574 209.10366) rotate(-12.35397)"/>
          <path class="cls-58" d="M831.23875,377.52729c-28.20653,13.4473-38.752,28.39023-35.66424,46.67476,5.11913,30.31378,71.701,87.45141,71.701,87.45141L904.7236,478.8723l-24.42741-45.93817,58.41445-14.10234c37.16068-6.3494,16.70894-77.86366-13.7331-72.97651C924.97754,345.85528,882.96962,352.8649,831.23875,377.52729Z"/>
          <path class="cls-58" d="M868.32782,513.26916l22.86338,35.11069A60.8132,60.8132,0,0,0,914.78186,568.483l30.19783,14.51479a18.339,18.339,0,0,0,20.16637-2.85525L979.88932,566.967a21.55134,21.55134,0,0,0,3.8561-27.584L962.49773,505.771a47.89,47.89,0,0,0-29.23649-20.96389l-23.62435-4.91325C878.15745,471.16418,862.984,504.27862,868.32782,513.26916Z"/>
          <path class="cls-57" d="M983.74542,539.383l-13.01029-20.58165-8.59736-2.46584a9.44344,9.44344,0,0,0-11.27443,6.28529h0c-1.39888,4.36694,4.05368,10.6278,8.11383,12.76169l-38.19023,4.11259a11.63588,11.63588,0,0,0-12.24438,12.33635l.8435,13.677a61.02311,61.02311,0,0,0,5.3958,2.97451l30.19783,14.51479a18.339,18.339,0,0,0,20.16637-2.85525L979.88932,566.967A21.55134,21.55134,0,0,0,983.74542,539.383Z"/>
          <path class="cls-58" d="M939.98491,486.96725l37.79561,15.02639c10.87387,4.37784,3.72527,15.68464-4.3878,13.86415l-10.23647-2.26932Z"/>
        </g>
        <path class="cls-58" d="M1026.84641,541.24158A48.1576,48.1576,0,0,0,1005.96,530.03369l-35.05622-10.05678a9.44431,9.44431,0,0,0-11.27461,6.28462v0c-1.39867,4.36768,4.0541,10.62915,8.11428,12.7617l10.00658-1.07769-48.19673,5.19071a11.63653,11.63653,0,0,0-12.24487,12.33621L918.61,576.56287a19.77231,19.77231,0,0,0,12.18774,17.05738l37.79063,15.60614c7.19613,2.97174,17.45632,5.55711,25.30762,5.39309l45.93957-2.83024,17.26592-45.729Z"/>
      </g>
    </g>
  </g>
  <g>
    <g>
      <path class="cls-33" d="M814.251,555.92986l0,21.917c0,3.94707-5.56753,7.14678-12.43549,7.14677S789.38,581.79394,789.38,577.84687l0-21.917Z"/>
      <ellipse class="cls-33" cx="801.81551" cy="555.92985" rx="12.43549" ry="7.14683"/>
      <ellipse class="cls-30" cx="801.81551" cy="555.92985" rx="9.72323" ry="5.58806"/>
      <path class="cls-101" d="M801.81566,553.514c4.404,0,8.08128,1.694,9.27681,4.00169-1.19553,2.3077-4.87279,4.002-9.27681,4.002s-8.08256-1.6943-9.27809-4.002C793.7331,555.208,797.41163,553.514,801.81566,553.514Z"/>
    </g>
    <path class="cls-32" d="M817.41367,576.681v-5.22511a8.97433,8.97433,0,0,0-4.49333-7.77555l-1.73463-.99965a1.96165,1.96165,0,0,0-1.96189,3.39753l2.02338,1.16678a4.48129,4.48129,0,0,1,2.2427,3.88211v6.47719l-2.30419-1.32836a1.96165,1.96165,0,0,0-1.96189,3.39754l1.50465.86825A4.45739,4.45739,0,0,0,817.41367,576.681Z"/>
  </g>
</svg>
