<svg id="Layer_1" data-name="Layer 1" xmlns="http://www.w3.org/2000/svg" xmlns:xlink="http://www.w3.org/1999/xlink" viewBox="0 0 1000 1000">
  <defs>
    <style>
      .cls-1 {
        fill: url(#linear-gradient);
      }

      .cls-2, .cls-6 {
        fill: #fff;
      }

      .cls-2, .cls-47, .cls-86, .cls-90 {
        opacity: 0.5;
      }

      .cls-3 {
        fill: #b8cbd8;
      }

      .cls-4 {
        fill: url(#linear-gradient-2);
      }

      .cls-5 {
        fill: url(#linear-gradient-3);
      }

      .cls-7 {
        fill: url(#linear-gradient-4);
      }

      .cls-8 {
        fill: url(#linear-gradient-5);
      }

      .cls-9 {
        fill: url(#linear-gradient-6);
      }

      .cls-10 {
        fill: url(#linear-gradient-7);
      }

      .cls-11 {
        fill: url(#linear-gradient-8);
      }

      .cls-12 {
        fill: url(#linear-gradient-9);
      }

      .cls-13 {
        fill: #e58630;
      }

      .cls-14 {
        fill: url(#linear-gradient-10);
      }

      .cls-15 {
        fill: #ffcb48;
      }

      .cls-16 {
        fill: url(#linear-gradient-11);
      }

      .cls-17 {
        fill: url(#linear-gradient-12);
      }

      .cls-18 {
        fill: url(#linear-gradient-13);
      }

      .cls-19 {
        fill: #748ca3;
      }

      .cls-20 {
        fill: #586c7f;
      }

      .cls-21 {
        fill: url(#linear-gradient-14);
      }

      .cls-22 {
        fill: url(#linear-gradient-15);
      }

      .cls-23, .cls-88 {
        opacity: 0.2;
      }

      .cls-24 {
        fill: #2a3f5e;
      }

      .cls-25 {
        fill: url(#linear-gradient-16);
      }

      .cls-26 {
        fill: url(#linear-gradient-17);
      }

      .cls-27 {
        fill: url(#linear-gradient-18);
      }

      .cls-28 {
        fill: url(#linear-gradient-19);
      }

      .cls-29 {
        fill: url(#linear-gradient-20);
      }

      .cls-30 {
        fill: url(#linear-gradient-21);
      }

      .cls-31 {
        fill: url(#linear-gradient-22);
      }

      .cls-32 {
        fill: url(#linear-gradient-23);
      }

      .cls-33 {
        fill: url(#linear-gradient-24);
      }

      .cls-34 {
        fill: url(#linear-gradient-25);
      }

      .cls-35 {
        fill: url(#linear-gradient-26);
      }

      .cls-36 {
        fill: url(#linear-gradient-27);
      }

      .cls-37 {
        fill: url(#linear-gradient-28);
      }

      .cls-38 {
        fill: url(#linear-gradient-29);
      }

      .cls-39, .cls-42, .cls-52, .cls-77 {
        opacity: 0.4;
      }

      .cls-39 {
        fill: url(#linear-gradient-30);
      }

      .cls-40 {
        fill: url(#linear-gradient-31);
      }

      .cls-41 {
        fill: url(#linear-gradient-32);
      }

      .cls-42 {
        fill: url(#linear-gradient-33);
      }

      .cls-43 {
        fill: url(#linear-gradient-34);
      }

      .cls-44 {
        fill: url(#linear-gradient-35);
      }

      .cls-45 {
        fill: url(#linear-gradient-36);
      }

      .cls-46 {
        fill: url(#linear-gradient-37);
      }

      .cls-47 {
        fill: url(#linear-gradient-38);
      }

      .cls-48 {
        fill: #303d49;
      }

      .cls-49 {
        fill: #405260;
      }

      .cls-50 {
        fill: #34a521;
      }

      .cls-51 {
        fill: #cfdfe8;
      }

      .cls-52 {
        fill: url(#linear-gradient-39);
      }

      .cls-53 {
        fill: url(#linear-gradient-40);
      }

      .cls-54 {
        font-size: 52.67426px;
        fill: #333a3d;
        stroke: #333a3d;
        stroke-miterlimit: 10;
        stroke-width: 1.94993px;
        font-family: AvenirLTStd-Black, Avenir LT Std;
        font-weight: 800;
      }

      .cls-55 {
        fill: url(#linear-gradient-41);
      }

      .cls-56 {
        opacity: 0.6;
      }

      .cls-57 {
        fill: #9bb0c4;
      }

      .cls-58 {
        fill: url(#linear-gradient-42);
      }

      .cls-59 {
        fill: url(#linear-gradient-43);
      }

      .cls-60 {
        fill: #724133;
      }

      .cls-61 {
        fill: url(#linear-gradient-44);
      }

      .cls-62 {
        fill: url(#linear-gradient-45);
      }

      .cls-63 {
        fill: url(#linear-gradient-46);
      }

      .cls-64 {
        fill: url(#linear-gradient-47);
      }

      .cls-65 {
        fill: url(#linear-gradient-48);
      }

      .cls-66 {
        fill: url(#linear-gradient-49);
      }

      .cls-67 {
        fill: url(#linear-gradient-50);
      }

      .cls-68 {
        fill: url(#linear-gradient-51);
      }

      .cls-69 {
        fill: url(#linear-gradient-52);
      }

      .cls-70 {
        fill: url(#linear-gradient-53);
      }

      .cls-71 {
        fill: url(#linear-gradient-54);
      }

      .cls-72 {
        fill: url(#linear-gradient-55);
      }

      .cls-73 {
        fill: url(#linear-gradient-56);
      }

      .cls-74 {
        fill: url(#linear-gradient-57);
      }

      .cls-75 {
        fill: url(#linear-gradient-58);
      }

      .cls-76 {
        fill: url(#linear-gradient-59);
      }

      .cls-77 {
        fill: url(#linear-gradient-60);
      }

      .cls-78 {
        fill: url(#linear-gradient-61);
      }

      .cls-79 {
        fill: url(#linear-gradient-62);
      }

      .cls-80 {
        fill: url(#linear-gradient-63);
      }

      .cls-81 {
        fill: url(#linear-gradient-64);
      }

      .cls-82 {
        fill: url(#linear-gradient-65);
      }

      .cls-83 {
        fill: url(#linear-gradient-66);
      }

      .cls-84 {
        fill: url(#linear-gradient-67);
      }

      .cls-85 {
        fill: url(#linear-gradient-68);
      }

      .cls-86 {
        fill: #435a75;
      }

      .cls-87 {
        fill: url(#linear-gradient-69);
      }

      .cls-88 {
        fill: #39557c;
      }

      .cls-89 {
        fill: url(#linear-gradient-70);
      }

      .cls-90 {
        fill: #dd7b19;
      }

      .cls-91 {
        fill: #e9f1f4;
      }

      .cls-92 {
        fill: #a3bbce;
      }

      .cls-93 {
        fill: #ffbda3;
      }

      .cls-94 {
        fill: url(#linear-gradient-71);
      }

      .cls-95 {
        fill: url(#linear-gradient-72);
      }

      .cls-96 {
        fill: #27343d;
      }

      .cls-97 {
        fill: url(#linear-gradient-73);
      }

      .cls-98 {
        fill: url(#linear-gradient-74);
      }

      .cls-99 {
        fill: #e48f7c;
      }

      .cls-100 {
        fill: url(#linear-gradient-75);
      }

      .cls-101 {
        fill: url(#linear-gradient-76);
      }
    </style>
    <linearGradient id="linear-gradient" x1="516.22368" y1="402.62316" x2="937.51038" y2="402.62316" gradientUnits="userSpaceOnUse">
      <stop offset="0" stop-color="#e4edf2"/>
      <stop offset="1" stop-color="#c3d6e6"/>
    </linearGradient>
    <linearGradient id="linear-gradient-2" x1="94.95323" y1="728.95587" x2="937.51038" y2="728.95587" gradientUnits="userSpaceOnUse">
      <stop offset="0.00663" stop-color="#c4d5e6"/>
      <stop offset="1" stop-color="#dae9f2"/>
    </linearGradient>
    <linearGradient id="linear-gradient-3" x1="-881.53836" y1="584.92371" x2="-760.90729" y2="664.34912" gradientTransform="translate(1162.29787)" gradientUnits="userSpaceOnUse">
      <stop offset="0" stop-color="#fff"/>
      <stop offset="0.94545" stop-color="#fff" stop-opacity="0"/>
    </linearGradient>
    <linearGradient id="linear-gradient-4" x1="134.36994" y1="402.62362" x2="477.71266" y2="402.62362" gradientUnits="userSpaceOnUse">
      <stop offset="0" stop-color="#5b6f82"/>
      <stop offset="1" stop-color="#849bb2"/>
    </linearGradient>
    <linearGradient id="linear-gradient-5" x1="496.08637" y1="299.60527" x2="122.18935" y2="502.28407" gradientUnits="userSpaceOnUse">
      <stop offset="0" stop-color="#62778c"/>
      <stop offset="1" stop-color="#435466"/>
    </linearGradient>
    <linearGradient id="linear-gradient-6" x1="429.04695" y1="331.85923" x2="290.56863" y2="406.92434" xlink:href="#linear-gradient-5"/>
    <linearGradient id="linear-gradient-7" x1="317.57814" y1="396.21166" x2="179.09982" y2="471.27677" xlink:href="#linear-gradient-5"/>
    <linearGradient id="linear-gradient-8" x1="163.41814" y1="497.12008" x2="188.46819" y2="497.12008" gradientUnits="userSpaceOnUse">
      <stop offset="0" stop-color="#e68e2b"/>
      <stop offset="0.99995" stop-color="#ffcb48"/>
    </linearGradient>
    <linearGradient id="linear-gradient-9" x1="147.52825" y1="506.02752" x2="172.5783" y2="506.02752" xlink:href="#linear-gradient-8"/>
    <linearGradient id="linear-gradient-10" x1="131.63836" y1="515.27319" x2="156.69817" y2="515.27319" xlink:href="#linear-gradient-8"/>
    <linearGradient id="linear-gradient-11" x1="472.41353" y1="318.34831" x2="497.46358" y2="318.34831" xlink:href="#linear-gradient-8"/>
    <linearGradient id="linear-gradient-12" x1="456.52364" y1="327.25575" x2="481.57369" y2="327.25575" xlink:href="#linear-gradient-8"/>
    <linearGradient id="linear-gradient-13" x1="440.63375" y1="336.50142" x2="465.69356" y2="336.50142" xlink:href="#linear-gradient-8"/>
    <linearGradient id="linear-gradient-14" x1="-74.68027" y1="246.52632" x2="489.1385" y2="246.52632" xlink:href="#linear-gradient-4"/>
    <linearGradient id="linear-gradient-15" x1="-4805.23402" y1="779.17211" x2="-4111.53476" y2="722.86146" gradientTransform="matrix(-1, 0, 0, 1, -4145.79467, 0)" gradientUnits="userSpaceOnUse">
      <stop offset="0.00005" stop-color="#ffb348"/>
      <stop offset="1" stop-color="#e68e2b"/>
    </linearGradient>
    <linearGradient id="linear-gradient-16" x1="500.82401" y1="525.92312" x2="551.30101" y2="525.92312" xlink:href="#linear-gradient-5"/>
    <linearGradient id="linear-gradient-17" x1="500.82399" y1="522.07717" x2="551.30103" y2="522.07717" gradientUnits="userSpaceOnUse">
      <stop offset="0" stop-color="#849bb2"/>
      <stop offset="1" stop-color="#5b6f82"/>
    </linearGradient>
    <linearGradient id="linear-gradient-18" x1="524.12041" y1="304.57401" x2="527.80225" y2="508.30249" xlink:href="#linear-gradient-5"/>
    <linearGradient id="linear-gradient-19" x1="491.66415" y1="297.16792" x2="560.46092" y2="297.16792" xlink:href="#linear-gradient-5"/>
    <linearGradient id="linear-gradient-20" x1="491.66415" y1="292.53173" x2="560.46092" y2="292.53173" gradientUnits="userSpaceOnUse">
      <stop offset="0.00844" stop-color="#ffc63f"/>
      <stop offset="1" stop-color="#e68a23"/>
    </linearGradient>
    <linearGradient id="linear-gradient-21" x1="518.64478" y1="279.75205" x2="533.48014" y2="279.75205" gradientUnits="userSpaceOnUse">
      <stop offset="0" stop-color="#3e4c59"/>
      <stop offset="1" stop-color="#293440"/>
    </linearGradient>
    <linearGradient id="linear-gradient-22" x1="518.64479" y1="274.02843" x2="533.48022" y2="274.02843" xlink:href="#linear-gradient-5"/>
    <linearGradient id="linear-gradient-23" x1="376.66335" y1="533.13127" x2="554.24843" y2="533.13127" xlink:href="#linear-gradient-17"/>
    <linearGradient id="linear-gradient-24" x1="408.63578" y1="542.27029" x2="554.24843" y2="542.27029" gradientUnits="userSpaceOnUse">
      <stop offset="0" stop-color="#62788c"/>
      <stop offset="1" stop-color="#526575"/>
    </linearGradient>
    <linearGradient id="linear-gradient-25" x1="487.7094" y1="516.076" x2="675.03205" y2="717.44785" xlink:href="#linear-gradient-24"/>
    <linearGradient id="linear-gradient-26" x1="472.56034" y1="514.412" x2="748.27586" y2="675.97778" xlink:href="#linear-gradient-17"/>
    <linearGradient id="linear-gradient-27" x1="553.08021" y1="611.11153" x2="639.66893" y2="611.11153" xlink:href="#linear-gradient-24"/>
    <linearGradient id="linear-gradient-28" x1="514.28265" y1="507.26362" x2="672.40831" y2="507.26362" xlink:href="#linear-gradient-24"/>
    <linearGradient id="linear-gradient-29" x1="517.39431" y1="454.95691" x2="754.47454" y2="699.06173" xlink:href="#linear-gradient-17"/>
    <linearGradient id="linear-gradient-30" x1="389.65585" y1="377.77886" x2="635.44104" y2="619.67504" xlink:href="#linear-gradient-5"/>
    <linearGradient id="linear-gradient-31" x1="654.41082" y1="586.3733" x2="812.53649" y2="586.3733" xlink:href="#linear-gradient-24"/>
    <linearGradient id="linear-gradient-32" x1="549.08904" y1="424.17426" x2="786.16926" y2="668.27908" xlink:href="#linear-gradient-17"/>
    <linearGradient id="linear-gradient-33" x1="529.78403" y1="458.64251" x2="775.56921" y2="700.53869" xlink:href="#linear-gradient-5"/>
    <linearGradient id="linear-gradient-34" x1="674.27586" y1="702.95758" x2="850.00382" y2="702.95758" xlink:href="#linear-gradient-17"/>
    <linearGradient id="linear-gradient-35" x1="706.24829" y1="715.41294" x2="851.86094" y2="715.41294" xlink:href="#linear-gradient-24"/>
    <linearGradient id="linear-gradient-36" x1="843.63853" y1="687.66164" x2="850.51679" y2="687.66164" xlink:href="#linear-gradient-21"/>
    <linearGradient id="linear-gradient-37" x1="719.59012" y1="717.36596" x2="859.57385" y2="717.36596" xlink:href="#linear-gradient-21"/>
    <linearGradient id="linear-gradient-38" x1="420.27345" y1="663.5224" x2="674.14405" y2="663.5224" xlink:href="#linear-gradient-21"/>
    <linearGradient id="linear-gradient-39" x1="26.42364" y1="333.27447" x2="357.88698" y2="333.27447" xlink:href="#linear-gradient-17"/>
    <linearGradient id="linear-gradient-40" x1="176.04364" y1="155.3374" x2="252.9579" y2="361.86643" xlink:href="#linear-gradient-17"/>
    <linearGradient id="linear-gradient-41" x1="110.44513" y1="293.7959" x2="344.78925" y2="293.7959" xlink:href="#linear-gradient-17"/>
    <linearGradient id="linear-gradient-42" x1="120.6191" y1="728.95435" x2="179.90107" y2="728.95435" xlink:href="#linear-gradient-21"/>
    <linearGradient id="linear-gradient-43" x1="124.81328" y1="672.846" x2="184.21753" y2="730.03749" gradientUnits="userSpaceOnUse">
      <stop offset="0.00005" stop-color="#ffcb48"/>
      <stop offset="1" stop-color="#e68e2b"/>
    </linearGradient>
    <linearGradient id="linear-gradient-44" x1="-10984.54888" y1="2502.23287" x2="-10951.85309" y2="2515.81879" gradientTransform="matrix(-0.94085, 0.33882, 0.33882, 0.94085, -10999.83635, 1902.20244)" gradientUnits="userSpaceOnUse">
      <stop offset="0" stop-color="#f2883c"/>
      <stop offset="0.16716" stop-color="#e97d35"/>
      <stop offset="0.67368" stop-color="#d26124"/>
      <stop offset="0.96784" stop-color="#c9571e"/>
    </linearGradient>
    <linearGradient id="linear-gradient-45" x1="-731.60374" y1="-1312.67985" x2="-756.23756" y2="-1297.00379" gradientTransform="translate(386.93512 2075.83381) rotate(21.53204)" xlink:href="#linear-gradient-44"/>
    <linearGradient id="linear-gradient-46" x1="203.12674" y1="549.53965" x2="161.77178" y2="586.71432" gradientTransform="matrix(1, 0, 0, 1, 0, 0)" xlink:href="#linear-gradient-44"/>
    <linearGradient id="linear-gradient-47" x1="270.8273" y1="2099.89571" x2="237.16451" y2="2121.31749" gradientTransform="translate(-668.15914 -1373.91752) rotate(-16.16083)" xlink:href="#linear-gradient-44"/>
    <linearGradient id="linear-gradient-48" x1="127.38589" y1="522.11543" x2="147.69013" y2="561.08166" gradientTransform="matrix(1, 0, 0, 1, 0, 0)" xlink:href="#linear-gradient-44"/>
    <linearGradient id="linear-gradient-49" x1="267.84403" y1="2617.77364" x2="291.35619" y2="2662.89624" gradientTransform="translate(-1096.4173 -1785.21518) rotate(-21.26361)" xlink:href="#linear-gradient-44"/>
    <linearGradient id="linear-gradient-50" x1="-1304.18798" y1="-1930.77401" x2="-1271.49218" y2="-1917.18809" gradientTransform="matrix(0.87147, 0.49044, -0.49044, 0.87147, 304.83503, 2864.78481)" xlink:href="#linear-gradient-44"/>
    <linearGradient id="linear-gradient-51" x1="97.4241" y1="1032.75263" x2="76.05589" y2="1070.10623" gradientTransform="matrix(1.03159, -0.09458, 0.10022, 1.01436, -32.49407, -526.92186)" xlink:href="#linear-gradient-44"/>
    <linearGradient id="linear-gradient-52" x1="-8.4735" y1="3997.99972" x2="-38.78473" y2="4017.28868" gradientTransform="translate(-2176.75906 -2700.02456) rotate(-35.91139)" xlink:href="#linear-gradient-44"/>
    <linearGradient id="linear-gradient-53" x1="-9749.25665" y1="-1102.59496" x2="-9777.16849" y2="-1084.83288" gradientTransform="matrix(-0.94244, -0.33439, -0.33439, 0.94244, -9424.92012, -1658.44483)" xlink:href="#linear-gradient-44"/>
    <linearGradient id="linear-gradient-54" x1="-686.13386" y1="710.23477" x2="-682.45222" y2="710.23477" gradientTransform="matrix(-0.04492, -0.99899, -0.99899, 0.04492, 857.82559, -5.27155)" xlink:href="#linear-gradient-21"/>
    <linearGradient id="linear-gradient-55" x1="119.5533" y1="710.23477" x2="123.23494" y2="710.23477" gradientTransform="translate(31.94249 -4.72562) rotate(2.56788)" xlink:href="#linear-gradient-21"/>
    <linearGradient id="linear-gradient-56" x1="149.26424" y1="726.32949" x2="151.26424" y2="726.32949" xlink:href="#linear-gradient-21"/>
    <linearGradient id="linear-gradient-57" x1="118.93441" y1="695.50564" x2="181.59444" y2="695.50564" xlink:href="#linear-gradient-21"/>
    <linearGradient id="linear-gradient-58" x1="669.67312" y1="391.05423" x2="746.99219" y2="391.05423" gradientTransform="translate(-18.64021 -32.28579)" gradientUnits="userSpaceOnUse">
      <stop offset="0" stop-color="#435466"/>
      <stop offset="1" stop-color="#62778c"/>
    </linearGradient>
    <linearGradient id="linear-gradient-59" x1="680.09331" y1="387.07098" x2="743.67728" y2="387.07098" gradientTransform="translate(-18.64021 -32.28579)" gradientUnits="userSpaceOnUse">
      <stop offset="0" stop-color="#fff"/>
      <stop offset="0.98888" stop-color="#e6edf2"/>
    </linearGradient>
    <linearGradient id="linear-gradient-60" x1="689.20561" y1="388.9964" x2="732.31107" y2="388.9964" gradientTransform="translate(-18.64021 -32.28579)" xlink:href="#linear-gradient-5"/>
    <linearGradient id="linear-gradient-61" x1="669.67311" y1="391.05422" x2="746.9922" y2="391.05422" gradientTransform="translate(-18.64021 -32.28579)" xlink:href="#linear-gradient-17"/>
    <linearGradient id="linear-gradient-62" x1="686.63854" y1="312.40763" x2="766.13841" y2="417.48572" gradientTransform="translate(-18.64021 -32.28579)" xlink:href="#linear-gradient-5"/>
    <linearGradient id="linear-gradient-63" x1="655.17607" y1="287.45243" x2="773.06023" y2="443.26453" gradientTransform="translate(-18.64021 -32.28579)" xlink:href="#linear-gradient-5"/>
    <linearGradient id="linear-gradient-64" x1="769.71666" y1="380.26987" x2="744.03649" y2="320.04911" gradientTransform="translate(3.46411 6.00002)" xlink:href="#linear-gradient-58"/>
    <linearGradient id="linear-gradient-65" x1="703.1832" y1="285.21072" x2="742.51846" y2="285.21072" gradientTransform="translate(47.76727 82.73534)" xlink:href="#linear-gradient-59"/>
    <linearGradient id="linear-gradient-66" x1="692.763" y1="289.19396" x2="745.83338" y2="289.19396" gradientTransform="translate(47.76727 82.73534)" xlink:href="#linear-gradient-17"/>
    <linearGradient id="linear-gradient-67" x1="705.09926" y1="236.45405" x2="759.8947" y2="308.87933" gradientTransform="translate(47.76727 82.73534)" xlink:href="#linear-gradient-5"/>
    <linearGradient id="linear-gradient-68" x1="686.94079" y1="222.1085" x2="763.6416" y2="323.48696" gradientTransform="translate(47.76727 82.73534)" xlink:href="#linear-gradient-5"/>
    <linearGradient id="linear-gradient-69" x1="371.20958" y1="433.5149" x2="576.5184" y2="521.04129" gradientTransform="matrix(1, 0, 0, 1, 0, 0)" xlink:href="#linear-gradient-59"/>
    <linearGradient id="linear-gradient-70" x1="566.15852" y1="469.68927" x2="570.66117" y2="600.26599" xlink:href="#linear-gradient-43"/>
    <linearGradient id="linear-gradient-71" x1="570.09817" y1="469.54321" x2="574.60082" y2="600.11993" xlink:href="#linear-gradient-43"/>
    <linearGradient id="linear-gradient-72" x1="519.24084" y1="471.29691" x2="523.74348" y2="601.87363" xlink:href="#linear-gradient-43"/>
    <linearGradient id="linear-gradient-73" x1="598.93064" y1="474.04305" x2="610.60416" y2="596.03139" xlink:href="#linear-gradient-43"/>
    <linearGradient id="linear-gradient-74" x1="512.54189" y1="471.52791" x2="517.04453" y2="602.10463" xlink:href="#linear-gradient-43"/>
    <linearGradient id="linear-gradient-75" x1="520.45069" y1="424.92063" x2="531.42941" y2="493.21851" gradientUnits="userSpaceOnUse">
      <stop offset="0" stop-color="#966551"/>
      <stop offset="1" stop-color="#805345"/>
    </linearGradient>
    <linearGradient id="linear-gradient-76" x1="486.59064" y1="430.36356" x2="497.56937" y2="498.66143" xlink:href="#linear-gradient-75"/>
  </defs>
  <g>
    <g>
      <polygon class="cls-1" points="516.224 76.29 937.51 319.511 937.51 728.956 516.224 485.713 516.224 76.29"/>
      <polygon class="cls-2" points="516.224 443.905 517.51 473.002 680.699 559.13 516.224 180.804 516.224 443.905"/>
      <polygon class="cls-3" points="516.24 76.29 94.953 319.511 94.953 728.956 516.24 485.713 516.24 76.29"/>
    </g>
    <path class="cls-4" d="M102.223,741.55987,494.4336,967.99278a43.61723,43.61723,0,0,0,43.61687-.00064L930.241,741.55565a14.53908,14.53908,0,0,0,.00017-25.18217L538.03348,489.9199a43.61721,43.61721,0,0,0-43.61994.00055L102.22215,716.37768A14.53907,14.53907,0,0,0,102.223,741.55987Z"/>
    <polygon class="cls-5" points="153.921 685.273 293.369 811.509 644.89 606.391 455.401 511.279 153.921 685.273"/>
  </g>
  <g>
    <g>
      <path class="cls-6" d="M481.55412,468.23479,138.20505,666.46438l-11.46524-6.61724V337.023L470.08888,138.78194l11.46524-2.15873Z"/>
      <polygon class="cls-7" points="477.713 142.093 473.771 144.368 473.777 462.804 134.37 658.748 134.37 663.154 477.713 464.934 477.713 142.093"/>
      <path class="cls-8" d="M122.88194,333.69958v349.352l366.319-211.48427V122.19477Zm11.48824,6.6326L477.71266,142.09347l0,322.84091L134.37018,663.15377Z"/>
    </g>
    <polygon class="cls-9" points="362.308 527.156 357.308 530.043 357.308 211.627 362.308 208.74 362.308 527.156"/>
    <polygon class="cls-10" points="250.839 591.509 245.839 594.396 245.839 275.98 250.839 273.093 250.839 591.509"/>
    <g>
      <g>
        <path class="cls-11" d="M188.46819,335.72087V660.13558a2.17525,2.17525,0,0,1-2.68994,2.1l-13.19995-3.28-7.76-1.93005a.335.335,0,0,0-.32007.06l-1.08008-.31995V331.936l23.31006,5.9249Z"/>
        <path class="cls-12" d="M172.5783,344.84086V669.46553a2.005,2.005,0,0,1-.36011,1.04,2.13014,2.13014,0,0,1-2.32007.9l-20.97-5.21a.35593.35593,0,0,0-.40991.16.3682.3682,0,0,0-.02.4l-.97-.26V340.58085l23.31006,5.5Z"/>
        <polygon class="cls-13" points="146.67 342.148 146.67 353.431 154.704 355.09 155.555 353.814 146.67 342.148"/>
        <path class="cls-14" d="M156.69817,354.16087V678.63558a2.23852,2.23852,0,0,1-.35986,1.04,2.13721,2.13721,0,0,1-1.79.97,2.003,2.003,0,0,1-.54-.07l-21.68994-5.4a.88433.88433,0,0,1-.67993-.86V349.90086l23.30981,5.5Z"/>
        <polygon class="cls-13" points="162.553 332.977 162.553 344.26 170.588 345.919 171.439 344.643 162.553 332.977"/>
        <polygon class="cls-13" points="177.736 323.289 177.736 334.571 186.622 336.867 187.587 335.67 177.736 323.289"/>
        <path class="cls-15" d="M154.547,356.24469a2.23451,2.23451,0,0,1-.53634-.06611l-21.69444-5.404a.88879.88879,0,0,1,.42907-1.725l21.69444,5.404a.38827.38827,0,0,0,.40537-.6093l-7.74138-10.37632a2.16559,2.16559,0,0,1,2.25824-3.397l20.96092,5.21279a.38816.38816,0,0,0,.40475-.6093l-7.74138-10.37632a2.16578,2.16578,0,0,1,2.25886-3.397l20.9603,5.21279a.38823.38823,0,0,0,.40538-.609l-8.6979-11.649a.88858.88858,0,1,1,1.42442-1.0627l8.6979,11.64868a2.16588,2.16588,0,0,1-2.25887,3.397l-20.9603-5.2128a.38836.38836,0,0,0-.40537.60931l7.74138,10.37631a2.16567,2.16567,0,0,1-2.25824,3.397l-20.96092-5.21279a.36408.36408,0,0,0-.41723.16153.36863.36863,0,0,0,.01248.44778l7.74138,10.37631a2.16761,2.16761,0,0,1-1.72252,3.46314Z"/>
      </g>
      <g>
        <path class="cls-16" d="M497.46358,156.9491V481.36381a2.17525,2.17525,0,0,1-2.68994,2.1l-13.19995-3.28-7.76-1.93a.335.335,0,0,0-.32007.06l-1.08008-.32V153.16421l23.31006,5.9249Z"/>
        <path class="cls-17" d="M481.57369,166.06909V490.69376a2.005,2.005,0,0,1-.36011,1.04,2.13014,2.13014,0,0,1-2.32007.9l-20.97-5.21a.35593.35593,0,0,0-.40991.16.3682.3682,0,0,0-.02.4l-.97-.26V161.80908l23.31006,5.5Z"/>
        <polygon class="cls-13" points="455.665 163.377 455.665 174.659 463.7 176.318 464.551 175.042 455.665 163.377"/>
        <path class="cls-18" d="M465.69356,175.3891V499.86381a2.23852,2.23852,0,0,1-.35986,1.04,2.13721,2.13721,0,0,1-1.79.97,2.003,2.003,0,0,1-.54-.07l-21.68994-5.4a.88433.88433,0,0,1-.67993-.86V171.12909l23.30981,5.5Z"/>
        <polygon class="cls-13" points="471.548 154.206 471.548 165.488 479.583 167.147 480.434 165.871 471.548 154.206"/>
        <polygon class="cls-13" points="486.732 144.517 486.732 155.799 495.618 158.095 496.583 156.898 486.732 144.517"/>
        <path class="cls-15" d="M463.54238,177.47292a2.23463,2.23463,0,0,1-.53634-.06611l-21.69443-5.404a.88879.88879,0,1,1,.42907-1.725l21.69444,5.404a.38827.38827,0,0,0,.40537-.6093l-7.74139-10.37632a2.1656,2.1656,0,0,1,2.25825-3.397l20.96092,5.21279a.38816.38816,0,0,0,.40475-.6093l-7.74139-10.37632a2.16579,2.16579,0,0,1,2.25887-3.397l20.9603,5.21279a.38822.38822,0,0,0,.40537-.609l-8.6979-11.649a.88858.88858,0,0,1,1.42442-1.0627l8.6979,11.64868a2.16588,2.16588,0,0,1-2.25886,3.397l-20.9603-5.21279a.38836.38836,0,0,0-.40538.6093l7.74139,10.37631a2.16567,2.16567,0,0,1-2.25824,3.397l-20.96093-5.21279a.36406.36406,0,0,0-.41722.16153.36863.36863,0,0,0,.01247.44778l7.74139,10.37631a2.16761,2.16761,0,0,1-1.72253,3.46314Z"/>
      </g>
    </g>
    <g>
      <path class="cls-19" d="M485.21594,138.768v6.03443l-14.83478,8.56338v-6.91923a3.3619,3.3619,0,0,1,1.68116-2.91161l10.70617-6.18013A1.6317,1.6317,0,0,1,485.21594,138.768Z"/>
      <path class="cls-20" d="M142.81169,336.71972v6.03443l-14.83479,8.56337V344.3983a3.36191,3.36191,0,0,1,1.68117-2.91162l10.70616-6.18012A1.63171,1.63171,0,0,1,142.81169,336.71972Z"/>
      <path class="cls-21" d="M492.95148,145.31235,130.32525,354.71743l-3.92587-6.79981L489.0388,138.50493l.00179.0031a1.97735,1.97735,0,0,1,1.95073.20783,6.13759,6.13759,0,0,1,2.78518,4.8041A1.92629,1.92629,0,0,1,492.95148,145.31235Z"/>
      <ellipse class="cls-20" cx="128.36232" cy="351.31752" rx="2.26305" ry="3.92587" transform="translate(-158.46147 111.24878) rotate(-30)"/>
    </g>
  </g>
  <g>
    <path class="cls-22" d="M656.16716,801.69969l-274.285-158.38221a28.04175,28.04175,0,0,0-28.042-.00169L244.455,706.46119a9.34725,9.34725,0,0,0-.0023,16.18911L518.69857,881.06966a28.04175,28.04175,0,0,0,28.04888.00229L656.16716,817.889A9.34725,9.34725,0,0,0,656.16716,801.69969Z"/>
    <g class="cls-23">
      <path class="cls-24" d="M860.36848,722.8637,537.96214,536.69447a32.96151,32.96151,0,0,0-32.96174-.002L376.42432,610.91629a10.98716,10.98716,0,0,0-.0027,19.02938L698.782,816.15857a32.96147,32.96147,0,0,0,32.96985.00269l128.61662-74.26794A10.98717,10.98717,0,0,0,860.36848,722.8637Z"/>
    </g>
    <path class="cls-13" d="M599.79362,791.70874,399.18765,675.8715a15.77591,15.77591,0,0,0-15.776-.00095L300.82807,723.544a5.25864,5.25864,0,0,0-.00129,9.10778L501.405,848.51665a15.77593,15.77593,0,0,0,15.77992.00128l82.60873-47.7013A5.25864,5.25864,0,0,0,599.79362,791.70874Z"/>
  </g>
  <g>
    <g>
      <path class="cls-25" d="M550.60082,522.57093c-2.62966-6.41617-12.6044-11.19642-24.53836-11.19642s-21.9087,4.78025-24.53827,11.19642H500.824v3.35219c0,8.035,11.2996,14.5486,25.23845,14.5486s25.23855-6.51362,25.23855-14.5486v-3.35219Z"/>
      <ellipse class="cls-26" cx="526.06251" cy="522.07717" rx="25.23852" ry="14.54865"/>
    </g>
    <path class="cls-27" d="M522.75549,305.00449V519.059c0,1.05283,1.4806,1.90631,3.307,1.90631s3.307-.85348,3.307-1.90631V305.00449Z"/>
    <path class="cls-28" d="M491.66415,271.517v31.53261c0,10.91822,15.40061,19.76917,34.39838,19.76917s34.39839-8.851,34.39839-19.76917V271.517Z"/>
    <path class="cls-29" d="M491.66415,266.88084v31.5326c0,10.91823,15.40061,19.76917,34.39838,19.76917s34.39839-8.85094,34.39839-19.76917v-31.5326Z"/>
    <g>
      <ellipse class="cls-13" cx="526.06251" cy="266.88094" rx="34.3984" ry="19.76919"/>
      <path class="cls-30" d="M518.64478,284.64623a33.58129,33.58129,0,0,0,14.83536,0V274.02838H518.64478Z"/>
      <ellipse class="cls-31" cx="526.06251" cy="274.02843" rx="7.41771" ry="4.27591"/>
      <path class="cls-15" d="M526.06249,248.80719c18.03247,0,32.70279,8.10781,32.70279,18.0737s-14.67032,18.07384-32.70279,18.07384-32.70278-8.10795-32.70278-18.07384,14.67032-18.0737,32.70278-18.0737m0-1.69547c-18.99762,0-34.39838,8.851-34.39838,19.76917,0,10.91832,15.40076,19.76931,34.39838,19.76931s34.39839-8.851,34.39839-19.76931c0-10.91818-15.40076-19.76917-34.39839-19.76917Z"/>
    </g>
  </g>
  <g>
    <g>
      <path class="cls-32" d="M376.66335,530.18752v80.05142a10.01241,10.01241,0,0,0,5.04408,8.701l17.16128,9.813,3.77155,2.16666a1.25091,1.25091,0,0,0,.17191.09173,11.27813,11.27813,0,0,0,5.82361,1.39855V548.47222a21.7328,21.7328,0,0,1,10.87909-18.82347l134.73356-77.518-31.98391-18.28463L387.531,511.36405A21.70833,21.70833,0,0,0,376.66335,530.18752Z"/>
      <path class="cls-33" d="M408.63578,548.47222v83.93759a11.34977,11.34977,0,0,0,5.81213-1.79982l1.94886-1.24951,137.85166-88.59194V452.13077l-134.73356,77.518A21.7328,21.7328,0,0,0,408.63578,548.47222Z"/>
    </g>
    <path class="cls-34" d="M420.25054,626.8726,692.07911,783.52485l134.24055-86.7577-53.444-30.83753L554.388,539.85126,424.74431,555.04074a20.86933,20.86933,0,0,0-1.50175,2.25832,22.1285,22.1285,0,0,0-2.96914,11.08551Z"/>
    <path class="cls-35" d="M423.24256,557.29906l268.8709,155.26511,80.76218-46.63455,40.67345-23.48922L541.60584,485.52451l-108.172,62.466-2.10936,1.21516-.01148.01147a21.98262,21.98262,0,0,0-6.56871,5.82361A20.86933,20.86933,0,0,0,423.24256,557.29906Z"/>
    <polygon class="cls-36" points="639.669 590.679 560.232 636.413 553.08 632.284 631.291 585.81 639.669 590.679"/>
    <path class="cls-37" d="M514.28265,438.5519l.69794-.79856a31.48756,31.48756,0,0,1,19.98748-10.5466l15.62146-1.8595a19.63445,19.63445,0,0,1,11.98664,2.40624l91.80927,52.86505a36.02514,36.02514,0,0,1,17.00637,39.6887l-15.8721,65.50252-30.13138,3.50792Z"/>
    <path class="cls-38" d="M625.38833,589.31767l15.87209-65.50252a36.02509,36.02509,0,0,0-17.00637-39.68871l-85.52812-49.32292a19.76109,19.76109,0,0,0-29.08149,12.46124L493.63767,513.323Z"/>
    <polygon class="cls-39" points="625.388 589.318 493.638 513.323 496.137 503.009 627.882 579.028 625.388 589.318"/>
    <path class="cls-40" d="M654.41082,519.41554l.69794-.79856a31.48763,31.48763,0,0,1,19.98748-10.5466l15.62146-1.8595a19.63459,19.63459,0,0,1,11.98664,2.40624l91.80928,52.86505A36.02516,36.02516,0,0,1,811.52,601.17088l-15.87209,65.50251Z"/>
    <path class="cls-41" d="M765.5165,670.18132l15.8721-65.50252a36.02511,36.02511,0,0,0-17.00637-39.68871l-85.52812-49.32292a19.76109,19.76109,0,0,0-29.08149,12.46124L633.76584,594.1866Z"/>
    <polygon class="cls-42" points="765.516 670.181 633.766 594.187 636.266 583.873 768.01 659.892 765.516 670.181"/>
    <path class="cls-43" d="M674.27586,703.06075v80.0743a10.00571,10.00571,0,0,0,5.02113,8.67807l.59614.3325L698.18931,802.612c.01141.01148.02288.01148.03436.023a16.24286,16.24286,0,0,0,8.02462,2.10936V721.34545a21.74688,21.74688,0,0,1,10.8791-18.82354L850.00382,626.0816a13.87275,13.87275,0,0,0-4.99825-5.11279.01122.01122,0,0,0-.01141-.01148l-7.91-4.67723L811.52,601.17088l-2.91184,12.03694L685.14355,684.23728A21.70833,21.70833,0,0,0,674.27586,703.06075Z"/>
    <path class="cls-44" d="M706.24829,721.34545v83.39882a16.08679,16.08679,0,0,0,7.94438-2.09788l15.13217-8.701,114.19045-65.69878a16.68686,16.68686,0,0,0,8.34565-14.4443V633.06306a14.0932,14.0932,0,0,0-1.85712-6.98146L717.12739,702.52191A21.74688,21.74688,0,0,0,706.24829,721.34545Z"/>
    <path class="cls-45" d="M843.63853,645.09427v83.15231c0,1.09488,1.53989,1.98244,3.43913,1.98244s3.43913-.88756,3.43913-1.98244V645.09427Z"/>
    <path class="cls-46" d="M857.72362,636.54774l-5.86258-3.36412v5.19087l-120.61125,69.3856a23.371,23.371,0,0,0-11.65967,20.17576v71.63c0,1.09488,1.5396,1.98251,3.43913,1.98251,1.89924,0,3.43912-.88763,3.43912-1.98251v-71.63a16.46987,16.46987,0,0,1,8.21607-14.21662l117.1766-67.409,5.86594-3.37454A3.68362,3.68362,0,0,0,857.72362,636.54774Z"/>
    <polygon class="cls-47" points="420.273 594.811 674.144 741.235 674.144 732.234 420.273 585.81 420.273 594.811"/>
  </g>
  <g>
    <g>
      <path class="cls-48" d="M516.75786,720.80508l-18.83206,9.08683s-11.97794,6.02392-19.31781,13.913c-7.12411,7.65717,3.56825,16.41542,17.85468,13.01,12.05118-2.87259,15.47191-7.99777,20.38941-11.85914,4.91786-3.86126,10.12591-4.72361,15.20482-10.3915,3.42491-3.82209,6.34151-8.54557-.928-12.83769A16.22065,16.22065,0,0,0,516.75786,720.80508Z"/>
      <path class="cls-49" d="M478.90426,744.10638c-1.85905,3.58542.25531,6.57447,4.21276,8.7697,6.1943,3.436,15.68181.9793,21.02176-1.62924s7.42926-4.48889,11.22332-8.253c0,0,1.80664-4.87524-3.97147-10.48671-5.66869-5.5052-12.3566-6.669-15.10139-5.2124C490.64375,730.73617,480.6443,738.38356,478.90426,744.10638Z"/>
    </g>
    <g>
      <path class="cls-48" d="M543.39218,735.382l-18.83206,9.08682s-12.14116,5.87516-19.31781,13.913c-4.74107,5.31,2.77186,15.67169,17.85468,13.01,12.2003-2.153,15.47191-7.99777,20.38941-11.85915,4.91786-3.86126,10.66283-4.57721,15.06666-10.78419,3.121-4.39891,6.0277-9.41657-1.59509-13.10748S543.39218,735.382,543.39218,735.382Z"/>
      <path class="cls-49" d="M505.9893,756.08511c-1.1829,4.27715.48942,7.91932,5.85113,10.97872,6.15236,3.51055,14.04675.76355,19.88508-1.80971s7.50158-4.35755,11.22332-8.25277a20.15044,20.15044,0,0,0-6.21314-11.91944c-5.66869-5.50521-12.20842-5.23643-14.95322-3.77982C516.321,745.68533,508.85031,751.38179,505.9893,756.08511Z"/>
    </g>
  </g>
  <g>
    <g>
      <path class="cls-50" d="M227.60773,94.46436a198.65275,198.65275,0,1,1-77.5835,15.65722,198.06091,198.06091,0,0,1,77.5835-15.65722m0-18.17383c-120.12525,0-217.50611,97.38086-217.50611,217.50586,0,120.12549,97.38086,217.50634,217.50611,217.50634,120.12536,0,217.5061-97.38085,217.5061-217.50634,0-120.125-97.38074-217.50586-217.5061-217.50586Z"/>
      <circle class="cls-51" cx="227.60775" cy="293.79658" r="201.18409"/>
      <path class="cls-52" d="M30.45263,253.55517a202.09828,202.09828,0,0,0-4.029,40.24157c0,111.11065,90.07319,201.18385,201.18418,201.18385a200.55068,200.55068,0,0,0,77.57048-15.50788L357.887,376.76057,131.84288,171.56836Z"/>
    </g>
    <g>
      <circle class="cls-53" cx="227.60775" cy="293.79658" r="154.4352"/>
      <circle class="cls-6" cx="227.60775" cy="293.79658" r="122.22836"/>
      <g>
        <g>
          <text class="cls-54" transform="translate(146.09525 295.4615)">20</text>
          <text class="cls-54" transform="translate(219.36771 295.46345)">min</text>
        </g>
        <text class="cls-54" transform="translate(175.69974 337.22224)">max</text>
      </g>
      <path class="cls-55" d="M227.60773,176.55811h-.23023q-.79576.00219-1.58911.01367l.24878,16.35449q.78406-.01171,1.57056-.01172V176.55811Zm-12.69922.67968q-.90491.09741-1.804.2085l2.00293,16.2334q.77454-.09522,1.55249-.1792l-1.75146-16.2627Zm-12.54932,2.0459-.21826.04834-.01318.00244-.03247.00733-.02735.00634-.01318.00293c-.20361.04493-.40479.09034-.60815.13672l-.01075.00244-.03247.00733-.02563.00586-.021.00488q-.38562.08789-.77.17871l3.75537,15.91992q.75953-.17945,1.52368-.34716l-3.50659-15.97608Zm-12.25268,3.40039c-.06031.02051-.12329.04151-.1836.062l-.00561.002-.03638.0122q-.18273.06226-.365.125l-.00171.00049-.04663.01612-.00928.00293-.04834.0166-.02563.00879-.01807.00634-.03686.0127-.00586.00195c-.31128.10742-.62378.2168-.93384.32715l5.47022,15.41455q.735-.26075,1.47534-.51074l-5.22876-15.49805Zm-11.80762,4.7168q-.20325.09375-.40576.189l-.01611.00782-.02735.01269-.0227.01074-.01636.00782c-.02026.00927-.04053.01855-.06055.02832l-.00757.00341-.0354.01661-.0061.00293-.03613.01709-.00635.00293-.11133.05273-.00659.00293-.032.01514-.01441.00683-.02832.01367-.03051.01416-.01246.00586-.04663.02246-.01074.00489-.04126.01953-.00488.00244q-.33252.15821-.66358.31787l7.11744,14.727q.70349-.33984,1.41259-.66943l-6.887-14.83545Zm-11.22534,5.97363-.02661.01612-.00952.00585-.021.0127q-.74927.45338-1.49121.917l8.67334,13.86768q.66284-.41455,1.33227-.81885l-8.45727-14.00049Zm-10.51172,7.15479c-.39673.30273-.79395.60937-1.18652.917l-.01856.01465-.01489.01172q-.10841.085-.21631.16992l10.12036,12.84961q.6145-.48414,1.23682-.959l-9.9209-13.0039Zm-9.67871,8.24707q-.5896.55956-1.17236,1.1289l-.00391.00342-.02515.0249-.0105.01026-.02368.023-.0144.01416-.02979.02929-.02319.02246-.00513.00538,11.44556,11.68457q.55884-.54786,1.12671-1.08692l-11.26416-11.85937Zm-8.73462,9.24072c-.0481.05713-.09644.11377-.14453.1709l-.00562.00683-.02465.02881-.01392.01709-.00928.01074q-.27648.3274-.55078.65772l-.00977.01221-.01538.01806-.0249.03028-.00586.00683q-.18054.21753-.35986.436l12.637,10.38428q.49695-.60426,1.00293-1.20167L138.1485,218.01709Zm-7.688,10.12842c-.33374.49316-.667.99316-.99341,1.4917l-.00659.01025-.00732.01074,13.68408,8.96q.42846-.65478.86694-1.30224l-13.5437-9.17041Zm-6.54809,10.8999c-.04664.08838-.096.18164-.14234.27l-.00708.01367-.01416.02686-.01977.03711-.0022.00439-.02588.04981-.00049.00048q-.28748.54932-.56958,1.10108l-.01147.02246-.00977.019-.03467.06787,14.57471,7.42383q.35485-.69652.72022-1.38721l-14.45752-7.64941Zm-5.32569,11.54639c-.21557.54345-.42578,1.08545-.63354,1.6333l-.00074.00195-.00683.01807-.01587.0415,15.29663,5.79248q.27686-.731.5647-1.457l-15.20435-6.03027Zm-4.0354,12.05908c-.04907.17822-.09546.34814-.14355.52685l-.002.00733-.00805.03027-.00708.02539-.00489.01856-.01171.04345-.00147.00635q-.14721.54713-.28906,1.09717l15.8374,4.08789q.19519-.75658.40186-1.5083l-15.77149-4.335Zm-2.69555,12.42529q-.14393.89576-.27417,1.79737l16.18823,2.34033q.112-.7749.23584-1.54639l-16.1499-2.59131ZM110.524,287.72266q-.01466.28125-.02759.56347l-.00049.01319-.00171.03613-.00122.02637-.001.02-.00147.03564-.00049.00635c-.01123.25-.02148.49267-.031.74365l-.00025.00586-.00171.04-.00048.01367-.00123.03516-.00073.01416-.00293.07959v.00293l-.00146.03662-.00049.01367-.00122.0332-.00073.01953-.00122.03321-.00049.01367-.001.02832,16.34619.584q.02784-.78442.06763-1.56445l-16.335-.834Zm16.36133,11.80566-16.33106.9126q.00952.16919.01953.33887l.00025.00585.00244.03907.00171.02929.00049.01026c.02783.46728.05761.92383.09082,1.38916l16.31518-1.1626q-.05567-.78-.09936-1.5625Zm1.19921,10.88086-16.137,2.67041c.02466.14893.04932.29736.07471.44629l.001.00683.00756.04444.0022.01269.00659.03858.00269.01562.00561.03272.00855.0498.0022.0127.00634.03662.00171.01123.00635.03613.002.01172.02954.17041.00074.0044.00757.04345h0l.022.12647.002.01074.00537.03076.00366.021.00464.02588.00537.02978.00342.01953q.0487.27686.09888.55323l16.0935-2.92139q-.13951-.76758-.26709-1.54Zm2.36963,10.6709-15.75,4.4126q.24537.87523.50391,1.7456l15.6792-4.65771q-.22228-.74781-.43311-1.50049Zm3.5188,10.3457-15.17456,6.105q.32886.81738.66944,1.62842l.00024.00049.019.04541.00293.00635,15.07715-6.34082q-.30249-.71925-.59424-1.44483Zm4.62769,9.90576-14.42017,7.71973q.42921.80127.87012,1.59521l14.29834-7.94287q-.37939-.68334-.74829-1.37207Zm5.67993,9.35108-13.499,9.23633c.09961.1455.19873.28955.29882.43457l.01832.02636.00732.01075q.35412.51195.71338,1.0205l13.35473-9.44384q-.45153-.63869-.89355-1.28467Zm6.66211,8.689-12.42407,10.63819q.59106.69066,1.19262,1.37158l12.25855-10.82862q-.51819-.58666-1.0271-1.18115Zm7.56152,7.92285L147.29767,379.2085q.53539.50389,1.0769,1.00048l.00806.00782.02759.0249.2207.20215,11.022-12.08545q-.57861-.52734-1.14868-1.064Zm8.36988,7.0625-9.85791,13.05176c.10522.07959.21069.15869.31616.23828l.00464.00342.0332.0249.01538.01123.02539.01905.03467.02588.01758.01318.03174.02392.00341.00245c.21167.1582.42261.31494.63526.47168h.00049l.0332.02441.00757.00586.0581.04248.00806.00586.01831.01367.02466.01807.01489.01074.03272.02393.0083.00634c.04492.03321.08984.06592.13476.09864l9.655-13.20264q-.63135-.46217-1.25561-.93311Zm9.07763,6.11426-8.38916,14.041.00708.00439q.40942.24464.8208.48584l.00513.00293.04028.02344.00879.00537.04322.02539.02319.01318.01636.00977.031.01807.0083.00488c.188.10986.37451.21826.563.32666l8.17041-14.16943q-.67749-.39112-1.34839-.79151Zm9.6792,5.09082-6.81445,14.86914q.82543.37866,1.6582.74463l6.582-14.97363q-.71594-.31494-1.42578-.64014Zm10.16944,4.00488-5.15259,15.52344c.313.104.62353.20557.9375.30664l.00122.00049.04126.01318.0437.01416.00683.00245.04737.01513.00317.001q.32337.104.64771.20557l4.90967-15.60205q-.74525-.23437-1.48584-.48Zm10.54418,2.87061-3.42846,15.99268q.88806.19042,1.78125.36767l3.17846-16.04492q-.76794-.15161-1.53125-.31543Zm10.80445,1.707L215.47638,410.415q.30762.0315.616.06152l.01513.002.03516.00293.02173.00244.02783.00244.02686.00293.01733.00146c.03833.00391.07764.00733.11621.01123l.011.001.04053.00391.00512.00048c.293.02784.58179.0542.87549.07959l1.42163-16.29443q-.78039-.06811-1.55737-.148Zm12.52075.51367q-.783.01539-1.56836.01953l.07788,16.356c.03174,0,.05982,0,.09131-.00049h.04l.02515-.00049h.01928q.82215-.00512,1.6416-.02148l-.3269-16.353Zm10.926-.80615q-.77418.09961-1.55225.187l1.83032,16.25391.10669-.01221.02979-.00342.01831-.00195.03613-.00439.00977-.001c.53686-.06152,1.0686-.126,1.60327-.19434l-2.082-16.22363Zm10.75415-1.979q-.75879.18237-1.522.354l3.58448,15.959c.49243-.11036.977-.22266,1.46679-.33936l.0044-.001.03711-.00879.02441-.00586.02026-.00488c.07276-.01758.14527-.03515.218-.05224l-3.83349-15.90088Zm10.46753-3.1377q-.73389.26441-1.47339.51758l5.30493,15.47266q.16443-.0564.32861-.11329l.04688-.01611.00122-.00049q.67053-.23291,1.3374-.47314l-5.54565-15.38721Zm10.06542-4.26221q-.70128.34352-1.40893.67579l6.95959,14.80224q.39753-.18676.79273-.37646l.01489-.00733.024-.01123.03357-.01611.00952-.00488q.3827-.18384.76392-.37012l-7.18934-14.6919Zm9.54932-5.335q-.66064.41748-1.32837.8252l8.52551,13.959q.62513-.38158,1.24512-.771l.025-.01563.00781-.00537c.09045-.05664.17554-.11035.26575-.16748l-8.74085-13.82471Zm8.92236-6.34179q-.6123.48705-1.23205.96435l9.98376,12.95606q.3816-.29443.76075-.59131l.00341-.00244.04261-.03369h.00048l.08655-.06836.00684-.00537.03674-.02881.00562-.0044q.24444-.19263.48791-.38574l-10.18262-12.80029Zm8.19043-7.27051q-.55646.55005-1.12146,1.09228l11.32129,11.80469q.18219-.17431.36365-.3501l.01038-.00976.02282-.022c.21314-.20655.42762-.41553.63916-.62354l.01355-.01318.02039-.02051.01807-.01758.01672-.0166.03467-.03369.00659-.00684.03125-.03076.00867-.0083.03247-.03223.00476-.00488.07886-.07764L298.545,365.52588Zm7.36036-8.10986q-.494.60717-.9972,1.20605l12.52649,10.51807.00159-.00244q.58338-.69435,1.15625-1.39844L305.90534,357.416Zm6.44067-8.85254q-.42553.657-.86072,1.30615l13.58814,9.105q.3933-.5874.7799-1.1792l.01221-.019.01135-.01709c.06433-.09864.13257-.20362.19654-.30225L312.346,348.56348Zm5.44116-9.49024q-.35138.69873-.71338,1.39063l14.49475,7.57861q.3144-.60132.62207-1.20654l.00464-.00928.01978-.03906.00476-.00928.02234-.04394.01111-.022.01184-.02344.01342-.02636.00684-.01367.01685-.03321h0c.03173-.063.06421-.127.0957-.18994l-14.61072-7.35254Zm4.37427-10.01758q-.2732.7317-.55737,1.459l15.23352,5.95605q.21367-.54711.42236-1.09668l.00366-.00976.007-.01856.01477-.03906.00147-.00342q.10016-.26514.19934-.53027l-15.32471-5.71729Zm3.25452-10.43212q-.19171.75806-.39478,1.51123l15.7926,4.25781c.157-.58252.311-1.17237.45935-1.75879L325.416,318.62354Zm2.09863-10.7295q-.10821.7749-.22815,1.54639l16.16223,2.51318c.089-.57177.173-1.13965.25354-1.71435l.00037-.00293.00573-.04.00184-.01367.00378-.02686L327.51459,307.894Zm.926-10.91406q-.02416.78442-.0603,1.56592l16.339.75488c.01331-.28906.02576-.58154.037-.87109l.00073-.01709.0011-.02881.00146-.03858.00037-.00976q.01171-.30909.022-.61914l.00122-.03809.00037-.00927.00574-.1836L328.44061,296.98ZM344.504,284.77051l-16.30921,1.2417q.05915.7793.10669,1.56152l16.32654-.99121c-.00976-.15967-.01965-.31689-.02991-.47656l-.00195-.0293-.0011-.01758-.00244-.03662-.0011-.01562-.00268-.04151-.00073-.01074-.00342-.05225h0l-.00757-.11328v-.00049l-.00366-.05419-.00037-.0044-.00354-.05273-.00024-.00245c-.005-.0747-.01026-.14892-.01551-.22363l-.00024-.00342q-.02381-.3391-.04956-.67724Zm-1.6499-12.60889-16.079,2.99951q.14319.76758.27478,1.53955l16.12378-2.749c-.08167-.479-.16675-.96-.25415-1.43652l-.00269-.01465-.00244-.01319q-.02985-.16332-.0603-.32568Zm-3.01026-12.353-15.65613,4.73487q.22578.74634.44031,1.49756l15.72815-4.48975c-.07544-.26416-.15259-.53076-.22986-.79443l-.004-.01368-.00805-.02734-.0072-.02441-.00611-.021-.0122-.0415-.00184-.00586q-.11993-.408-.243-.81446Zm-4.34057-11.95214L320.45709,254.271q.30617.71777.60169,1.44189l15.14441-6.17871c-.03943-.09668-.08155-.19971-.12122-.2959l-.00317-.00781-.01123-.02686-.01172-.02881-.00537-.01269q-.26971-.65552-.54724-1.30566Zm-5.61658-11.40772-14.25952,8.01221q.38268.68115.75525,1.36865l14.3822-7.79q-.23475-.43285-.47241-.86328l-.00208-.00391-.01953-.03515-.0227-.041-.00623-.01123-.02161-.03906-.00268-.00488q-.16461-.29664-.33069-.59229Zm-6.82092-10.73144-13.3086,9.50878q.45447.63575.89954,1.27979l13.4541-9.30176-.04211-.06055-.0221-.03222-.001-.00147q-.485-.70019-.97985-1.39257Zm-7.94007-9.93213-12.20605,10.88769q.52094.58447,1.033,1.17627L316.325,217.15088c-.0791-.09131-.15881-.18359-.23816-.27442l-.007-.0083-.022-.02539-.02087-.02343-.01392-.01612-.03015-.03467-.009-.01025-.02673-.03076-.00867-.00977-.06983-.08007-.00451-.00538-.03052-.03466-.00781-.00879-.02686-.03076-.00915-.01075-.026-.02929-.02918-.03321-.00854-.00976-.02564-.0293-.00439-.00488c-.19348-.22022-.38538-.437-.58045-.65576Zm-8.9635-9.019L295.199,218.90479q.5808.5244,1.15356,1.0581l11.14893-11.96826-.06153-.05713-.00146-.00146-.03113-.02881-.00159-.00147-.05383-.05029-.01062-.00977-.02075-.019-.01734-.01611-.01721-.01612-.02575-.02392-.01123-.01026-.07764-.07177-.00647-.00586q-.49878-.46143-1.00281-.91651Zm-9.88269-8.00146-9.59094,13.24951q.63392.45849,1.26037.92725l9.79456-13.09961-.01147-.00879-.02015-.01465-.02844-.02148-.00158-.001c-.25867-.19336-.51355-.38184-.77393-.57324l-.01282-.00928-.025-.01856-.03894-.02832-.00244-.002q-.27393-.20068-.5492-.3999ZM285.591,191.87744l-8.10131,14.209q.6795.38745,1.35217.78515l8.32068-14.082q-.21827-.12891-.43726-.25732l-.01806-.01026-.02088-.0122-.02991-.01758-.00781-.0044c-.35327-.20654-.702-.40771-1.05762-.61035Zm-11.37268-5.688-6.50879,15.00537q.71742.31128,1.429.63331l6.7417-14.90235c-.1792-.08105-.36035-.1626-.54-.24267l-.01965-.00879-.02039-.00928-.03442-.01514-.01038-.00488q-.46143-.20508-.92493-.40723l-.01464-.00586-.02539-.01123-.072-.03125Zm-11.92407-4.41552-4.833,15.62646q.74671.23072,1.4878.47266l5.07666-15.54883c-.17456-.05664-.345-.11182-.52-.168l-.00635-.00244-.03149-.00977-.02124-.00683-.02271-.00733-.03857-.0122-.009-.00293q-.2688-.08643-.53784-.1709l-.00391-.00147-.04443-.01367-.01245-.00391-.02661-.0083c-.15039-.04736-.30615-.0957-.45679-.14257Zm-12.335-3.08789-3.1001,16.06005q.76831.14868,1.53223.30811l3.34985-16.00977-.07055-.01464-.03809-.00782-.00708-.00146q-.69215-.14429-1.387-.27979l-.001-.00049-.04565-.00878-.02-.00391-.02686-.00537-.02905-.00537-.00244-.00049-.1543-.03027Zm-12.59717-1.728-1.34253,16.30127q.78041.06446,1.55762.14062l1.59375-16.27881c-.17725-.01709-.36328-.03515-.54077-.05175l-.00952-.001-.03272-.00293-.02221-.00195-.02637-.00244-.03076-.00293-.01929-.002-.05151-.00439-.00586-.00049-.04737-.00439-.01391-.00147-.03858-.00342-.01684-.00146-.03638-.00342-.01782-.00147-.03882-.00341-.01343-.00147-.05029-.00439-.01978-.002-.03222-.00244-.02564-.00244-.02221-.00195-.03272-.00293-.01245-.001c-.21631-.019-.43457-.0376-.65137-.05566Z"/>
    </g>
  </g>
  <g>
    <circle class="cls-50" cx="51.44097" cy="188.32242" r="51.44097"/>
    <g>
      <rect class="cls-6" x="33.97685" y="181.1547" width="11.16548" height="33.5616" transform="translate(-128.3748 85.94682) rotate(-45)"/>
      <rect class="cls-6" x="55.71563" y="166.9052" width="11.16548" height="50.25593" transform="translate(-31.14509 371.16562) rotate(-135)"/>
    </g>
  </g>
  <g>
    <g class="cls-56">
      <ellipse class="cls-57" cx="150.26012" cy="731.09979" rx="36.30513" ry="20.86502"/>
    </g>
    <g>
      <path class="cls-58" d="M150.26015,715.10147c14.34209,0,26.45877,6.34385,26.45877,13.85291,0,7.509-12.11668,13.85284-26.45877,13.85284-14.34222,0-26.45889-6.34385-26.45889-13.85284,0-7.50906,12.11667-13.85291,26.45889-13.85291m0-3.18215c-16.37029,0-29.64105,7.62682-29.64105,17.03506,0,9.40817,13.27076,17.035,29.64105,17.035,16.37017,0,29.64092-7.62682,29.64092-17.035,0-9.40824-13.27075-17.03506-29.64092-17.03506Z"/>
      <g>
        <g>
          <path class="cls-59" d="M122.31581,673.3409v43.57446c0,8.86969,12.51123,16.06,27.94434,16.06,15.43322,0,27.94433-7.19031,27.94433-16.06V673.3409Z"/>
          <ellipse class="cls-13" cx="150.26012" cy="673.34094" rx="27.94426" ry="16.05992"/>
          <path class="cls-60" d="M174.50442,681.31992c-4.82258,4.84517-13.885,8.07533-24.24871,8.07533s-19.42558-3.23016-24.24871-8.07533c3.0734-6.01166,12.76346-10.4083,24.24871-10.4083S171.431,675.30826,174.50442,681.31992Z"/>
          <path class="cls-15" d="M150.26015,660.281c13.52112,0,24.94421,5.98072,24.94421,13.05994,0,7.07916-11.42309,13.05988-24.94421,13.05988-13.52124,0-24.94434-5.98072-24.94434-13.05988,0-7.07922,11.4231-13.05994,24.94434-13.05994m0-3c-15.43323,0-27.94434,7.19025-27.94434,16.05994,0,8.86963,12.51111,16.05988,27.94434,16.05988,15.4331,0,27.94421-7.19025,27.94421-16.05988,0-8.86969-12.51111-16.05994-27.94421-16.05994Z"/>
        </g>
        <g>
          <path class="cls-61" d="M158.84166,558.22667c10.27342-3.82416,30.20007-14.81553,24.20314-21.78945S158.1363,542.5526,158.84166,558.22667Z"/>
          <path class="cls-60" d="M148.1606,679.14457c-.57,0-1.268-.94038-1.268-2.03784,0-53.61359-4.83087-88.51462-16.70718-116.823a3.37392,3.37392,0,0,1,.15429-2.793c.44333-.69143,1.0925-.55911,1.45127.29707,12.197,29.07372,17.40146,64.77243,17.40146,119.37062C149.19246,678.256,148.7306,679.14457,148.1606,679.14457Z"/>
          <path class="cls-60" d="M152.7883,679.14457c-.57,0-1.03186-.88861-1.03186-1.98607,0-50.49632,0-119.65472,13.174-151.057.35844-.85617,1.008-.98719,1.45094-.29706a3.37267,3.37267,0,0,1,.15463,2.793c-12.71582,30.31128-12.71582,98.65631-12.71582,148.56109C153.82015,678.256,153.35829,679.14457,152.7883,679.14457Z"/>
          <path class="cls-60" d="M153.2734,624.93815c-.53193,0-.98335-.78613-1.02748-1.82392-1.71134-40.383-6.25718-67.83-14.30621-86.37535a3.38493,3.38493,0,0,1,.13-2.79814c.43794-.7044,1.08845-.58895,1.45329.25037,8.33572,19.20562,13.03181,47.35959,14.77987,88.59881.04615,1.09357-.37663,2.05353-.94461,2.14174A.47247.47247,0,0,1,153.2734,624.93815Z"/>
        </g>
        <path class="cls-60" d="M152.7893,640.64908a.5231.5231,0,0,1-.07445-.00477c-.56865-.0715-.79916-.97985-.7584-1.98439,1.28418-31.77956,9.09445-65.2926,21.9147-67.92371.56326-.11678,1.078.60058,1.1437,1.60154.06569,1.00216-.33991,1.9078-.90586,2.02339-11.70518,2.40232-19.068,34.313-20.29154,64.59344C153.77871,639.91623,153.32561,640.64908,152.7893,640.64908Z"/>
        <path class="cls-62" d="M159.69811,593.04672c10.16466,2.53689,31.575,2.65047,30.61628-6.08738S167.61175,580.31017,159.69811,593.04672Z"/>
        <path class="cls-63" d="M163.44994,586.49027c17.08454-4.57708,48.78844-21.93977,40.21852-34.05555S164.70543,561.20613,163.44994,586.49027Z"/>
        <path class="cls-64" d="M151.33257,598.75887c13.111-5.7497,36.35769-23.516,28.02018-32.16342S149.248,578.3743,151.33257,598.75887Z"/>
        <path class="cls-65" d="M147.53005,564.03738c-12.41352-9.28868-32.56113-33.74366-21.641-40.81312S154.7422,543.0513,147.53005,564.03738Z"/>
        <path class="cls-66" d="M141.89673,593.98963c-17.297-4.81082-49.30951-22.74048-40.49385-34.95552S140.86653,568.31354,141.89673,593.98963Z"/>
        <path class="cls-67" d="M134.90158,569.80617c-9.49519-5.478-27.31851-19.62761-20.24616-25.50814S138.20153,554.46719,134.90158,569.80617Z"/>
        <path class="cls-68" d="M154.08042,553.72508c12.14387-10.83615,31.84358-35.50284,19.59866-41.78006S144.321,532.653,154.08042,553.72508Z"/>
        <path class="cls-69" d="M149.53626,577.05561c9.36164-8.86211,23.65647-30.992,13.95945-35.78343S141.567,560.41466,149.53626,577.05561Z"/>
        <path class="cls-70" d="M151.07963,589.47515c-10.57167-5.39906-28.94632-21.2392-21.62312-27.99S153.8,572.70413,151.07963,589.47515Z"/>
      </g>
      <rect class="cls-71" x="160.25758" y="709.23473" width="37.57777" height="2.00007" transform="translate(-538.51421 857.19647) rotate(-87.42538)"/>
      <rect class="cls-72" x="120.39409" y="691.44588" width="2.00007" height="37.57777" transform="translate(-31.69869 6.152) rotate(-2.56788)"/>
      <rect class="cls-73" x="149.26424" y="707.69131" width="2" height="37.27637"/>
      <path class="cls-74" d="M178.20442,682.43063v7.77a3.429,3.429,0,0,1,0,.74c-.38,7.78-13.02,14.28-27.93994,14.28-14.92,0-27.57007-6.5-27.95007-14.28a3.44956,3.44956,0,0,1,0-.74v-7.76a11.4797,11.4797,0,0,0,0,16.27c5.16,5.86,15.74011,9.87,27.95007,9.87,12.2,0,22.77-4.01,27.93994-9.86a11.47974,11.47974,0,0,0,0-16.29Z"/>
    </g>
  </g>
  <g>
    <g>
      <polygon class="cls-75" points="728.313 335.794 728.352 426.496 651.072 381.743 651.033 291.041 728.313 335.794"/>
      <polygon class="cls-76" points="725.006 333.885 725.037 412.514 661.484 375.685 661.453 297.057 725.006 333.885"/>
      <polygon class="cls-77" points="713.65 342.542 713.671 395.846 670.586 370.879 670.565 317.575 713.65 342.542"/>
      <path class="cls-78" d="M724.0147,418.98993l-68.61231-39.7495-.03221-80.69349,68.61233,39.74951.03219,80.69348m4.33729,7.5063-.03922-90.70187L651.0329,291.04064l.03924,90.70188L728.352,426.49623Z"/>
      <polygon class="cls-79" points="655.924 288.209 733.203 332.963 728.313 335.794 651.033 291.041 655.924 288.209"/>
      <polygon class="cls-80" points="733.203 332.963 733.226 423.675 728.352 426.496 728.313 335.794 733.203 332.963"/>
    </g>
    <g>
      <polygon class="cls-81" points="793.561 357.955 793.601 416.657 740.57 385.903 740.53 327.202 793.561 357.955"/>
      <polygon class="cls-82" points="790.255 356.046 790.286 402.675 750.981 379.846 750.95 333.218 790.255 356.046"/>
      <path class="cls-83" d="M789.26336,409.1508l-44.3636-25.7495-.0322-48.69349,44.36361,25.74951.03219,48.69348m4.33729,7.5063-.03922-58.70187-53.03116-30.75372.03924,58.70188,53.03114,30.75371Z"/>
      <polygon class="cls-84" points="745.421 324.37 798.452 355.124 793.561 357.955 740.53 327.202 745.421 324.37"/>
      <polygon class="cls-85" points="798.452 355.124 798.475 413.835 793.601 416.657 793.561 357.955 798.452 355.124"/>
    </g>
  </g>
  <g>
    <path class="cls-86" d="M482.51741,539.28139l-.6338,7.55958-61.74954-55.624c1.80578,24.38489,10.3226,46.143,19.61929,64.65787,4.23567,5.49731,17.634,9.96092,29.9312,5.38591a19.07543,19.07543,0,0,1,17.29684,1.75208s54.21883,40.31344,92.33078,60.39218,115.92657,54.91232,115.92657,54.91232l22.88342-13.06479Z"/>
    <path class="cls-87" d="M524.25029,415.98178a9.02868,9.02868,0,0,0,.72012-1.80125c.91822-3.38484-.19526-6.63267-2.48711-7.2544-2.29166-.62173-4.894,1.61813-5.81218,5.00287a9.21635,9.21635,0,0,0-.26072,1.42952c-11.48887,5.82052-37.968,33.67637-37.968,33.67637-21.38266,2.67317-40.7414,11.15595-58.52291,24.1657a12.47048,12.47048,0,0,0-6.02432-.98843c-4.76473.31831-8.47671,2.82952-8.29113,5.60895.18558,2.77962,4.19889,4.77479,8.96343,4.45657a14.5401,14.5401,0,0,0,2.1298-.3055c6.7118,25.66115,20.34243,49.28642,41.6399,70.65571-.03568.03529-.0742.06262-.10987.09848-3.36473,3.38854-4.49016,7.72661-2.5133,9.68953,1.97686,1.96282,6.30687.80712,9.67159-2.58142a12.71278,12.71278,0,0,0,3.03588-4.73286c34.27458-3.1836,83.5889-40.00411,94.24153-71.82289C555.60967,455.74225,542.29859,434.30882,524.25029,415.98178Z"/>
    <polygon class="cls-88" points="464.905 449.56 475.139 480.945 475.686 517.551 506.912 476.258 479.607 444.585 464.905 449.56"/>
    <path class="cls-89" d="M611.16226,513.14031c-6.95637-9.62542-52.1171-39.25188-67.17932-41.91531-13.32029-2.35536-21.1489,3.71158-21.1489,3.71158l45.88189,34.19411a8.05811,8.05811,0,0,0,7.1,1.02686l24.87627,17.15171Z"/>
    <polygon class="cls-90" points="568.53 493.785 591.005 512.666 583.027 516.835 574.355 511.634 568.53 493.785"/>
    <path class="cls-91" d="M474.53348,531.28468c-1.556-21.34788,15.85051-37.33252,35.19452-48.40056,10.46328-5.98677,16.61721-11.64229,25.35394-11.659,5.276-.01011,13.02849,4.807,19.032,13.46625,10.96932,4.6862,22.01685,19.9908,25.57753,28.45421l8.57411,2.81761L635.641,537.6391c12.9368,21.45813-24.11938,92.578-52.25982,78.37942-14.1959-5.37819-46.21473-44.026-46.21473-44.026l-21.06462-10.0058Z"/>
    <path class="cls-92" d="M594.86711,529.48952c6.84252,2.42568,18.31144.67183,20.236-2.63654l-1.27494-.68388-8.49659-4.8104-15.67578,2.68914-5.03123,7.78819A35.33927,35.33927,0,0,0,594.86711,529.48952Z"/>
    <path class="cls-93" d="M524.59356,474.00564c-4.408,2.214-8.94733,5.49239-14.86549,8.87843a110.61016,110.61016,0,0,0-16.55,11.412l13.73349,3.86156a57.39457,57.39457,0,0,0,20.83268-4.37248c10.73555-4.52868,7.421-16.59821,7.421-16.59821Z"/>
    <path class="cls-94" d="M535.082,471.225c-5.63711.01076-10.20382,2.37472-15.54181,5.6548,0,0,10.12188.93249,22.71261,9.27072,10.64835,7.05188,46.12054,45.68551,57.29378,45.68551s23.50364-.20045,23.50364-.20045c-10.13289-6.73525-21.84136-11.84206-34.78467-15.67253l-8.26132-3.8807c-3.56065-8.46343-13.27412-23.84318-24.24348-28.52925C549.75722,474.894,540.35794,471.215,535.082,471.225Z"/>
    <path class="cls-95" d="M567.9346,560.0273c-5.40641-10.33346-13.526-10.00623-20.8456-22.21906s-16.84321-30.89154-30.26778-38.81271-22.15477-5.93372-22.15477-5.93372c-12.37044,10.022-21.26419,22.70391-20.133,38.22287l41.01834,30.29571.95989.60086,20.65484,9.81129s17.93447,21.64714,32.90975,34.794C562.89,592.588,572.818,569.36116,567.9346,560.0273Z"/>
    <path class="cls-90" d="M559.068,567.57937l1.00509-2.06284a11.73787,11.73787,0,0,0-2.131-13.31834l-5.353-5.51278a11.73788,11.73788,0,0,0-13.121-2.57882l-7.42955,3.24649L502.40118,521.6004l16.37946,37.38449,8.09149,8.11779,10.29435,4.88986s9.00437,10.86615,19.57846,21.87653l-.84926-5.72429A35.16887,35.16887,0,0,1,559.068,567.57937Z"/>
    <path class="cls-90" d="M615.10252,526.85384a122.21832,122.21832,0,0,0-11.05236-5.27521l-14.39439,2.46921-1.44952,2.24389a54.08336,54.08336,0,0,0,5.5852,3.58936c.35759-.13156.73014-.2447,1.07566-.39157C601.709,531.915,613.17628,530.1619,615.10252,526.85384Z"/>
    <path class="cls-96" d="M639.87718,544.51745c11.42642,10.791,7.684,33.92416-8.46727,51.78861s-38.54675,23.64189-50.02168,12.90427-7.684-33.92416,8.46727-51.7886S625.38492,530.83114,639.87718,544.51745Z"/>
    <path class="cls-93" d="M744.58248,649.889l-20.85883-93.90574c-2.37641-9.83923-10.18317-13.22651-17.63536-12.88257-8.12978.37523-18.40472-1.86738-18.40472-1.86738-15.00882,2.06372-12.62066,41.36208,2.76951,39.10317l9.5591-1.12425c.667,19.01719,16.5856,51.52293,32.58164,77.76787Z"/>
    <path class="cls-96" d="M727.90357,555.1077c-2.3764-9.83952-8.44246-17.6979-20.22022-18.577-3.67622-.27439-72.14307,0-72.14307,0l-5.58064,34.59159L642.792,593.033l52.71757-5.26066c4.63718,19.69462,7.35022,24.52884,15.5752,38.46046,2.72766,5.51033,29.63272-.83382,27.71493-9.92249Z"/>
    <path class="cls-93" d="M758.98433,691.21892c-4.28094-3.20123,1.10839-17.28677,5.673-16.36448,0,0,3.48484-6.33,8.27742-15.04175,0,0,1.205-2.45845,2.1824-4.09152,2.14388-3.58215,10.20719-8.23739,13.375-7.65118,3.06285.5668,5.298,4.52572,3.70688,10.26521-.62286,7.512-1.04846,15.93752-5.51144,22.89749-4.70652,7.33977-2.38128,18.764-12.01253,18.78365C768.56253,700.02878,758.98433,691.21892,758.98433,691.21892Z"/>
    <path class="cls-97" d="M592.28222,514.95911l.542,7.62948s-.61858,5.1967,12.41521,5.99206c12.76856.77919,12.13249-19.45-4.47969-19.45C593.658,509.42461,592.28222,514.95911,592.28222,514.95911Z"/>
    <circle class="cls-48" cx="601.12074" cy="518.1327" r="7.46272"/>
    <path class="cls-93" d="M587.85728,511.08242h13.055c8.54669.41632,8.234,14.513.60452,13.63242l-8.44246-1.33651Z"/>
    <path class="cls-93" d="M559.64205,532.0734s2.36431-7.48637,6.05584-11.255c2.45063-2.50182,5.24081-1.68272,9.20121-2.04157,6.52731-.59145,15.64581,6.12747,11.55429,10.95773s-10.66947,10.50423-17.22352,10.50423Z"/>
    <path class="cls-93" d="M555.42407,559.9104l14.60029-19.81268-10.38231-8.02432-19.02184,16.227C535.8574,554.37332,550.66125,565.98333,555.42407,559.9104Z"/>
    <path class="cls-98" d="M538.95922,547.31145l-8.50491,5.62826-33.05179-36.9235c-16.49572-14.251-29.16219,9.56972-19.80321,24.22256,6.19108,9.69313,42.97411,38.97341,52.438,39.63348,14.742.9687,24.554-16.36028,24.554-16.36028C559.67758,556.67467,546.17179,542.3502,538.95922,547.31145Z"/>
    <path class="cls-99" d="M574.89915,518.77682c-3.9602.35885-6.7506-.46025-9.20105,2.04161-.16737.17073-.32864.35689-.49036.54186a4.91111,4.91111,0,0,0-.4434,1.97173c0,4.54391,1.688,10.56767,7.12227,11.59271,2.40438.45351,8.446-3.01188,10.45649-3.01188q1.19328,0,2.28135-.07672c.63859-.712,1.2511-1.41966,1.82882-2.1016C590.54475,524.90426,581.4263,518.1854,574.89915,518.77682Z"/>
    <path class="cls-93" d="M594.63643,521.09689c0,6.554-4.29983,8.12621-10.85389,8.12621-2.01024,0-8.05186,3.4653-10.4561,3.01181-5.43437-1.025-6.70554-5.11671-6.70554-9.66053,0-6.55405,12.48287-11.64946,19.03692-11.64946S594.63643,514.54284,594.63643,521.09689Z"/>
    <path class="cls-48" d="M740.28584,649.011c-12.20408-11.6342-33.05884-29.39231-43.565-37.689-6.42609-5.07452-64.969-37.62775-64.969-37.62775l3.78848-37.16348-2.50652.18753c-15.1323-.74676-39.95679,14.39906-51.758,34.26491-8.97172,15.102-6.10664,36.166,6.19682,43.40933,13.946,8.73085,89.15081,32.144,89.15081,32.144,14.25733,13.3021,44.3177,27.48158,44.3177,27.48158C732.78147,681.864,750.33956,657.21821,740.28584,649.011Z"/>
    <path class="cls-93" d="M723.58853,670.80067,752.91827,686.056l8.77329-14.02977-24.7827-21.80015C729.11261,643.57635,713.87761,666.173,723.58853,670.80067Z"/>
    <path class="cls-93" d="M751.22977,685.059l7.75456,6.1599,8.12978-19.29258-5.42255.0999C751.98021,667.38134,747.29489,681.9,751.22977,685.059Z"/>
    <g>
      <path class="cls-100" d="M504.83476,427.04s10.48734,3.29527,17.71307,15.54844c5.19055,8.802,14.50853,10.92308,18.46042,17.53469,6.42474,10.74876-3.86851,20.82117-13.62426,19.26606C516.87772,477.235,509.396,449.41238,504.83476,427.04Z"/>
      <path class="cls-99" d="M502.10743,480.19956l8.04318,10.26125c7.79627.75611,19.60473-5.91625,15.43563-11.40809l-7.55062-7.238Z"/>
      <g>
        <path class="cls-93" d="M519.82226,478.73652c-10.18365,5.36719-19.249,3.96362-26.448-4.10623L477.83884,457.1581c-6.464-6.87328-5.37178-19.08262,3.24468-25.8766,7.53068-5.93786,20.21013-5.84359,26.792,2.49558a214.73849,214.73849,0,0,1,13.22483,19.48049C526.34071,462.34,529.28849,473.74744,519.82226,478.73652Z"/>
        <g>
          <path class="cls-101" d="M479.60593,498.12106c-4.75279-8.17146-4.10127-17.47992-8.1379-27.1576l-.00259,0c-5.55269-14.05977-7.35782-23.7182,1.41118-34.27472,13.67554-15.29408,31.53685-11.46426,35.85043-7.50549,3.73,3.42353,4.95292,17.76688-13.612,32.41632,3.76218,2.66336,4.553,7.80963-.12508,8.85938-.09115,1.40428,1.155,6.91523,1.155,6.91523,3.57884.9545,18.47643,8.399,15.118,19.32529C507.50224,508.93457,487.95215,512.47069,479.60593,498.12106Z"/>
          <path class="cls-93" d="M497.77313,477.61127c-3.49629,2.16524-9.46275-.89389-11.91975-4.86131s-1.08968-9.43371,3.02214-9.506C494.03719,463.15324,501.26942,475.446,497.77313,477.61127Z"/>
        </g>
      </g>
    </g>
  </g>
</svg>
