<svg id="Layer_1" data-name="Layer 1" xmlns="http://www.w3.org/2000/svg" xmlns:xlink="http://www.w3.org/1999/xlink" viewBox="0 0 1000 1000">
  <defs>
    <style>
      .cls-1, .cls-40, .cls-49 {
        fill: none;
      }

      .cls-2 {
        fill: url(#linear-gradient);
      }

      .cls-3 {
        fill: #6b483c;
      }

      .cls-4 {
        fill: url(#linear-gradient-2);
      }

      .cls-5 {
        fill: #366d26;
      }

      .cls-6 {
        fill: url(#linear-gradient-3);
      }

      .cls-7 {
        fill: #6e9e4f;
      }

      .cls-8 {
        fill: #b8cbd8;
      }

      .cls-9 {
        fill: #9bb0c4;
      }

      .cls-10 {
        fill: #87a1af;
      }

      .cls-11 {
        fill: #c7d8e2;
      }

      .cls-12 {
        fill: #5a9137;
      }

      .cls-13 {
        fill: url(#linear-gradient-4);
      }

      .cls-14 {
        fill: url(#linear-gradient-5);
      }

      .cls-15 {
        fill: #f2f2f2;
      }

      .cls-16 {
        fill: #e2e2e2;
      }

      .cls-17 {
        fill: #fff;
      }

      .cls-18 {
        fill: #303030;
      }

      .cls-19 {
        fill: #424242;
      }

      .cls-20 {
        fill: url(#linear-gradient-6);
      }

      .cls-21 {
        fill: url(#linear-gradient-7);
      }

      .cls-22 {
        fill: #a0674a;
      }

      .cls-23 {
        fill: url(#linear-gradient-8);
      }

      .cls-24 {
        fill: #c93535;
      }

      .cls-25 {
        fill: url(#linear-gradient-9);
      }

      .cls-26 {
        clip-path: url(#clip-path);
      }

      .cls-27 {
        fill: url(#linear-gradient-10);
      }

      .cls-28 {
        fill: #dd7b19;
        opacity: 0.5;
      }

      .cls-29 {
        fill: #303d49;
      }

      .cls-30 {
        fill: #e48f7c;
      }

      .cls-31 {
        fill: #ffbda3;
      }

      .cls-32 {
        fill: #27343d;
      }

      .cls-33 {
        fill: #e9f1f4;
      }

      .cls-34 {
        fill: url(#linear-gradient-11);
      }

      .cls-35 {
        fill: url(#linear-gradient-12);
      }

      .cls-36 {
        fill: url(#linear-gradient-13);
      }

      .cls-37 {
        fill: #323f4c;
      }

      .cls-38 {
        fill: url(#linear-gradient-14);
      }

      .cls-39 {
        fill: url(#linear-gradient-15);
      }

      .cls-40, .cls-49 {
        stroke: #565656;
        stroke-miterlimit: 10;
      }

      .cls-40 {
        stroke-width: 3.44197px;
      }

      .cls-41 {
        fill: url(#linear-gradient-16);
      }

      .cls-42 {
        fill: #f49b25;
      }

      .cls-43 {
        fill: #cddce8;
      }

      .cls-44 {
        fill: url(#linear-gradient-17);
      }

      .cls-45 {
        fill: url(#linear-gradient-18);
      }

      .cls-46 {
        fill: url(#linear-gradient-19);
      }

      .cls-47 {
        fill: url(#linear-gradient-20);
      }

      .cls-48 {
        fill: url(#linear-gradient-21);
      }

      .cls-49 {
        stroke-width: 1.32115px;
      }
    </style>
    <linearGradient id="linear-gradient" x1="10758.53195" y1="454.66992" x2="11599.90411" y2="454.66992" gradientTransform="matrix(-1, 0, 0, 1, 11708.67355, 0)" gradientUnits="userSpaceOnUse">
      <stop offset="0" stop-color="#e6f4ff"/>
      <stop offset="1" stop-color="#c0e3ff"/>
    </linearGradient>
    <linearGradient id="linear-gradient-2" x1="722.90424" y1="374.47994" x2="782.0254" y2="513.02651" gradientUnits="userSpaceOnUse">
      <stop offset="0" stop-color="#77bf49"/>
      <stop offset="0.99995" stop-color="#366d26"/>
    </linearGradient>
    <linearGradient id="linear-gradient-3" x1="154.78527" y1="560.05828" x2="936.34095" y2="560.05828" gradientUnits="userSpaceOnUse">
      <stop offset="0.00005" stop-color="#9dcc52"/>
      <stop offset="1" stop-color="#649e3f"/>
    </linearGradient>
    <linearGradient id="linear-gradient-4" x1="154.78527" y1="523.01438" x2="936.34095" y2="523.01438" xlink:href="#linear-gradient-3"/>
    <linearGradient id="linear-gradient-5" x1="798.43447" y1="328.23375" x2="907.61493" y2="578.34219" xlink:href="#linear-gradient-2"/>
    <linearGradient id="linear-gradient-6" x1="373.07721" y1="382.44815" x2="684.05593" y2="854.27793" gradientUnits="userSpaceOnUse">
      <stop offset="0.00005" stop-color="#e6ac72"/>
      <stop offset="1" stop-color="#b3703f"/>
    </linearGradient>
    <linearGradient id="linear-gradient-7" x1="471.80298" y1="317.37889" x2="782.7817" y2="789.20868" xlink:href="#linear-gradient-6"/>
    <linearGradient id="linear-gradient-8" x1="186.67434" y1="531.00086" x2="167.00011" y2="655.30626" gradientUnits="userSpaceOnUse">
      <stop offset="0" stop-color="#67a63f"/>
      <stop offset="0.99995" stop-color="#366d26"/>
    </linearGradient>
    <linearGradient id="linear-gradient-9" x1="132.31148" y1="104.87306" x2="402.8356" y2="458.70428" gradientTransform="matrix(1, 0, 0, 1, 0, 0)" xlink:href="#linear-gradient"/>
    <clipPath id="clip-path">
      <circle class="cls-1" cx="272.54335" cy="288.28891" r="196.04503"/>
    </clipPath>
    <linearGradient id="linear-gradient-10" x1="78.89454" y1="352.18378" x2="286.42985" y2="839.09356" gradientUnits="userSpaceOnUse">
      <stop offset="0.00005" stop-color="#ffcb48"/>
      <stop offset="1" stop-color="#e68e2b"/>
    </linearGradient>
    <linearGradient id="linear-gradient-11" x1="124.62091" y1="332.69386" x2="332.15622" y2="819.60363" xlink:href="#linear-gradient-10"/>
    <linearGradient id="linear-gradient-12" x1="211.01024" y1="295.87218" x2="418.54555" y2="782.78195" xlink:href="#linear-gradient-10"/>
    <linearGradient id="linear-gradient-13" x1="225.92644" y1="289.51445" x2="433.46175" y2="776.42423" xlink:href="#linear-gradient-10"/>
    <linearGradient id="linear-gradient-14" x1="166.84863" y1="183.20286" x2="266.93374" y2="403.28797" gradientUnits="userSpaceOnUse">
      <stop offset="0" stop-color="#966551"/>
      <stop offset="1" stop-color="#805345"/>
    </linearGradient>
    <linearGradient id="linear-gradient-15" x1="260.75009" y1="140.50057" x2="360.8352" y2="360.58568" xlink:href="#linear-gradient-14"/>
    <linearGradient id="linear-gradient-16" x1="488.27091" y1="389.64288" x2="567.93049" y2="576.53649" xlink:href="#linear-gradient-10"/>
    <linearGradient id="linear-gradient-17" x1="505.82235" y1="382.16194" x2="585.48192" y2="569.05555" xlink:href="#linear-gradient-10"/>
    <linearGradient id="linear-gradient-18" x1="538.98171" y1="368.02844" x2="618.64128" y2="554.92206" xlink:href="#linear-gradient-10"/>
    <linearGradient id="linear-gradient-19" x1="544.70708" y1="365.58811" x2="624.36666" y2="552.48173" xlink:href="#linear-gradient-10"/>
    <linearGradient id="linear-gradient-20" x1="521.83399" y1="324.1309" x2="558.34463" y2="405.06707" xlink:href="#linear-gradient-14"/>
    <linearGradient id="linear-gradient-21" x1="557.90509" y1="307.85908" x2="594.41572" y2="388.79525" xlink:href="#linear-gradient-14"/>
  </defs>
  <path class="cls-2" d="M950.11233,562.3607s2.42714-89.31382-36.9293-127.58838-101.191-29.83446-150.323-53.496-63.3827-76.8345-112.94076-112.54122c-54.68805-39.4029-146.59745-38.20853-194.76521-7.155-50.53525,32.57984-78.70778,84.6149-128.98446,112.05477s-124.53069,34.14994-152.8969,43.40629-64.50325,29.24171-64.50325,69.11385V670.65079l841.3429-17.71821Z"/>
  <g>
    <path class="cls-3" d="M766.08,546.14855V490.00712H755.81374v56.15931h.00468c.0154.67356.51671,1.34622,1.51064,1.86184a8.84183,8.84183,0,0,0,7.26072.01172C765.59442,547.519,766.08971,546.83368,766.08,546.14855Z"/>
    <path class="cls-4" d="M716.86142,469.68929a20.916,20.916,0,0,1,5.35147-14.31134,25.54575,25.54575,0,0,1-2.31055-7.97962c-.96822-7.79645,1.64779-14.95212,6.31949-19.20887-.49251-4.95862,1.2741-9.44427,4.67171-11.83967a22.66953,22.66953,0,0,1-.28867-3.6007c0-9.7647,6.08184-17.8205,13.91308-18.91907-.017-.32034-.034-.62551-.034-.94594,0-13.41112,7.05028-24.2743,15.73092-24.2743,7.6276,0,13.9811,8.37623,15.42525,19.46831,3.14274,1.40364,5.58912,5.05015,6.42152,9.62734,4.41684,2.6852,8.375,7.62864,10.53248,13.8231a24.91806,24.91806,0,0,1,.76438,14.96739,12.14577,12.14577,0,0,1,5.06239,10.23758,13.29877,13.29877,0,0,1-1.91944,6.95732v.01527c6.914,3.43289,10.29462,13.0755,7.61059,23.23681a27.522,27.522,0,0,1-5.16442,10.26822c4.298,5.11115,5.0794,13.47221,1.37613,21.45174A25.9927,25.9927,0,0,1,789.40036,510.533a29.85262,29.85262,0,0,1-14.55864,12.20583c-3.95834,5.85884-10.34585,9.18491-16.41048,7.88808a13.03447,13.03447,0,0,1-8.8679-7.12522,28.93522,28.93522,0,0,1-11.34787-6.46907c-6.81221-2.74629-12.87684-9.04756-15.76493-17.3628a27.4368,27.4368,0,0,1-.79838-16.29477A21.129,21.129,0,0,1,716.86142,469.68929Z"/>
    <path class="cls-5" d="M804.11165,466.94487a27.43935,27.43935,0,0,1-5.1611,10.26646c4.301,5.11615,5.08479,13.477,1.37626,21.443a25.9461,25.9461,0,0,1-10.934,11.88026A29.82692,29.82692,0,0,1,774.84589,522.741c-3.95681,5.85437-10.34157,9.185-16.42017,7.88018a13.03213,13.03213,0,0,1-8.86964-7.12478,28.70685,28.70685,0,0,1-11.33561-6.47239c14.45005,2.08382,23.00257-2.50867,23.43566-16.29246,5.56717,2.88245,11.66787-1.647,8.17013-7.85671,11.95738.58444,16.43122-13.44222,8.67076-20.522,13.12908-2.70964,15.56936-18.0513,4.18606-22.59506,8.22934-3.69856,12.15606-11.60152,10.66675-23.26085a12.12673,12.12673,0,0,1,5.06543,10.2322,13.37555,13.37555,0,0,1-1.91156,6.97022c5.31418,2.62666,8.52569,8.92741,8.52569,16.30965A26.95757,26.95757,0,0,1,804.11165,466.94487Z"/>
  </g>
  <path class="cls-6" d="M108.86281,602.7253s75.13369-31.572,116.48865-53.12409S318.66931,479.887,359.71775,458.7118s82.59-30.02162,82.59-30.02162v159.448L122.28938,690.923a10.35043,10.35043,0,0,1-13.51556-9.86637Z"/>
  <polygon class="cls-7" points="342.623 472.807 360.091 480.972 398.162 482.536 417.421 449.865 417.421 383.677 385.397 397.786 380.022 422.196 357.852 435.408 349.566 455.563 342.623 472.807"/>
  <path class="cls-8" d="M124.283,704.23233,508.38849,925.986a42.10143,42.10143,0,0,0,42.1011-.00062L926.24334,709.03886a15.90552,15.90552,0,0,0,.00019-27.54891L529.421,452.37183,124.28235,686.305A10.35042,10.35042,0,0,0,124.283,704.23233Z"/>
  <ellipse class="cls-9" cx="458.82996" cy="762.12336" rx="92.12777" ry="52.947"/>
  <path class="cls-9" d="M809.23,762.04451,416.51153,535.36127l-2.46,1.41032L297.67682,603.96283a8.16578,8.16578,0,0,0-4.05109,7.0683v2.64033a2.7263,2.7263,0,0,0,1.41032,2.39451L678.58038,837.45783Z"/>
  <g>
    <path class="cls-10" d="M529.03529,476.93813,129.80839,707.426l-5.52765-3.19222a10.35043,10.35043,0,0,1,.00121-17.927l394.228-227.59495Z"/>
    <polygon class="cls-11" points="529.035 462.904 129.808 693.392 108.758 681.235 518.51 444.678 529.035 462.904"/>
  </g>
  <path class="cls-12" d="M950.10057,652.93258V683.1244a21.0507,21.0507,0,0,1-10.50787,18.22034l-75.64743,43.77195,2.58936-44.33478Z"/>
  <path class="cls-13" d="M950.10057,652.93258s-26.28268-31.8858-88.15151-87.95457-142.19344-71.1149-189.00857-112.60618S623.9732,428.4083,580.22775,410.08c-47.19544-19.7738-98.44975-22.66563-98.44975-22.66563l-44.19158-49.22171V445.00449L855.20276,707.83614Z"/>
  <path class="cls-12" d="M917.00529,617.42275q-11.76972-11.88535-28.09161-27.4539a78.869,78.869,0,0,0-19.7359-2.44076c-26.51384,0-48.00739,12.35239-48.00739,27.5901s21.49355,27.59009,48.00739,27.59009C894.33953,642.70828,914.96583,631.58119,917.00529,617.42275Z"/>
  <g>
    <path class="cls-3" d="M879.18846,613.34039V491.42988H859.16657V613.37922h.00914c.03,1.46263,1.00772,2.9233,2.94614,4.043a15.65077,15.65077,0,0,0,14.16028.02545C878.24144,616.31623,879.20739,614.82815,879.18846,613.34039Z"/>
    <path class="cls-14" d="M933.34493,447.63783a99.44852,99.44852,0,0,0,.21692-13.27391c-1.24774-24.20854-10.7391-44.01847-22.38118-48.89084.10528-.40695.26493-.78786.34476-1.20551,1.814-9.44914-3.62694-17.9846-12.15286-19.0643-.07231-.009-.14288.00492-.21461-.00318-3.22318-24.18106-15.40554-37.21231-29.98041-37.21231-14.27176,0-26.24472,12.502-29.76407,35.72422-12.70355,6.77058-23.82212,27.01291-27.176,52.11228-.45,3.36606-.70688,6.66906-.85092,9.91769a19.06962,19.06962,0,0,0-11.02544,13.96171,17.56168,17.56168,0,0,0,1.49879,11.28285c-5.45719,6.50768-8.8782,15.68407-8.8782,25.8829a43.772,43.772,0,0,0,1.76661,12.29747c-5.67584,8.34226-8.07819,20.09049-5.72038,32.60951,2.79049,14.817,11.55242,26.95883,22.317,32.90048a47.57723,47.57723,0,0,0,27.40453,22.78437c7.09076,11.3219,18.0705,18.61859,30.42814,18.61859s23.338-7.29669,30.42929-18.61859a47.56752,47.56752,0,0,0,27.34842-22.682c9.10207-3.51443,16.5694-12.19537,18.66-23.08256a28.46448,28.46448,0,0,0-2.89809-19.39229,51.93793,51.93793,0,0,0,8.28123-19.69626C954.64092,473.6341,947.10417,456.09954,933.34493,447.63783Z"/>
    <path class="cls-5" d="M950.98911,492.62378a51.02487,51.02487,0,0,1-8.2928,19.6656,28.45867,28.45867,0,0,1,2.93742,19.429c-2.1322,10.85161-9.57235,19.52359-18.67037,23.07765a47.48547,47.48547,0,0,1-27.34263,22.651c-7.10812,11.32567-18.10232,18.62323-30.42236,18.62323-12.36862,0-23.36225-7.29756-30.47036-18.62323a47.483,47.483,0,0,1-27.39007-22.79333c28.13514,7.54882,46.76268-4.67613,47.81375-34.30845,22.46971,12.01327,48.07532-6.1351,42.03319-32.65,20.35918-6.15217,24.99709-36.60111,7.25042-50.7046,15.31992-11.79653,19.86438-34.3934,2.74768-51.5101,11.6577,4.881,21.13518,24.689,22.3673,48.90385a102.68606,102.68606,0,0,1-.18973,13.26842C947.103,456.088,954.638,473.62137,950.98911,492.62378Z"/>
  </g>
  <g>
    <g>
      <path class="cls-15" d="M406.05311,292.16416V520.12294h.00864a5.11708,5.11708,0,0,0,2.58073,4.402l28.92324,16.7015a15.4467,15.4467,0,0,0,7.63,2.07141V292.16416Z"/>
      <path class="cls-16" d="M445.1957,292.16416v251.1337a15.54319,15.54319,0,0,0,7.90623-2.07141l30.71294-204.40853.51477-44.65376Z"/>
      <path class="cls-17" d="M408.6446,296.56721l28.9187,16.69621a15.53617,15.53617,0,0,0,15.5362,0l28.64123-16.536a5.17874,5.17874,0,0,0,0-8.96984L452.822,271.06136a15.53617,15.53617,0,0,0-15.5362,0l-28.64123,16.536A5.17873,5.17873,0,0,0,408.6446,296.56721Z"/>
    </g>
    <g>
      <polygon class="cls-15" points="816.778 559.975 449.726 348.782 449.726 542.663 793.255 740.263 816.778 559.975"/>
      <polygon class="cls-16" points="769.262 726.427 793.255 740.263 803.301 663.267 803.301 552.203 769.262 532.572 769.262 726.427"/>
      <path class="cls-17" d="M449.73038,348.77667,816.7801,559.97475l32.86665-18.96916c-.505-.35123-1.03189-.68047-1.58076-.99886L508.07585,344.42962l-25.413-14.66593Z"/>
    </g>
    <g>
      <path class="cls-15" d="M788.25811,512.592V740.55074h.00864a5.11708,5.11708,0,0,0,2.58072,4.402l28.92325,16.7015a15.44664,15.44664,0,0,0,7.63,2.07141V512.592Z"/>
      <path class="cls-16" d="M827.40069,512.592V763.72566a15.54314,15.54314,0,0,0,7.90623-2.07141l28.63835-16.53756a5.12,5.12,0,0,0,2.58072-4.56595h.00864V512.592Z"/>
      <path class="cls-17" d="M790.8496,516.995l28.91869,16.69621a15.53619,15.53619,0,0,0,15.53621,0l28.64122-16.536a5.17873,5.17873,0,0,0,0-8.96983L835.027,491.48916a15.53619,15.53619,0,0,0-15.53621,0l-28.64122,16.536A5.17874,5.17874,0,0,0,790.8496,516.995Z"/>
    </g>
  </g>
  <g>
    <g>
      <g>
        <g>
          <path class="cls-18" d="M667.4564,735.47543l22.31167-13.145c12.124-15.76078,26.836-25.56861,40.86259-27.73248-.04568-.035.001-.03588.10938-.01386.40673-.06137.80957-.10782,1.21215-.15323,4.44335-1.11405,18.41017-6.48208,18.41017-6.48208v.00009l13.09744-16.52243c0,28.24911,12.53808,59.09336,24.2313,82.0976l.63208-.45259,1.12167,10.35913c-.71666.35708-8.04315-4.11444-8.62834-4.98434a159.74069,159.74069,0,0,1-18.0836-29.58832l-.00061.00017c-8.49054-16.3139-16.85888-23.69188-32.0343-21.35112-14.0092,2.16188-28.277,12.51641-39.14394,28.41084-9.03292,13.21219-20.08869,36.401-20.41968,71.85305.07956,4.193.24154,8.45466.44669,12.83492l.30031-.215,1.12167,10.359-7.73565-4.46866a2.23833,2.23833,0,0,1-1.08779-1.51965C658.98856,797.47,660.29371,757.11256,667.4564,735.47543Z"/>
          <path class="cls-19" d="M676.08474,740.45977l22.31167-13.145c12.124-15.76078,26.836-25.56861,40.86259-27.73247-.04567-.035.001-.03589.10938-.01387.40674-.06136.80958-.10782,1.21216-.15323,4.44335-1.11405,18.41017-6.48207,18.41017-6.48207v.00008l13.09744-16.52243c0,28.13856,12.44111,58.8647,24.095,81.83986a1.18505,1.18505,0,0,1-.47123,1.5671l-6.26705,3.61284a159.74069,159.74069,0,0,1-18.0836-29.58832l-.0006.00017c-8.49055-16.3139-16.85888-23.69187-32.0343-21.35111-14.0092,2.16187-28.277,12.51641-39.144,28.41083-9.03291,13.21219-20.08869,36.401-20.41968,71.853.07763,4.09213.22848,8.23736.42645,12.506a2.1509,2.1509,0,0,1-1.06846,1.96171l-6.11766,3.52685C667.58562,803.45281,668.83374,762.36384,676.08474,740.45977Z"/>
        </g>
        <g>
          <path class="cls-18" d="M312.93921,530.84551l22.31167-13.145c12.124-15.76079,26.836-25.56861,40.86259-27.73248-.04567-.035.001-.03588.10938-.01387.40673-.06136.80957-.10781,1.21215-.15323,4.44335-1.114,18.41017-6.48207,18.41017-6.48207v.00009l13.09744-16.52243c0,28.24911,12.53808,59.09335,24.23131,82.0976l.63207-.45259,1.12168,10.35913c-.71667.35708-8.04316-4.11445-8.62835-4.98434a159.74045,159.74045,0,0,1-18.0836-29.58833l-.00061.00018c-8.49054-16.31391-16.85888-23.69188-32.0343-21.35112-14.0092,2.16188-28.277,12.51641-39.14394,28.41084-9.03292,13.21219-20.08869,36.401-20.41968,71.85305.07956,4.193.24154,8.45466.44669,12.83491l.30031-.215,1.12167,10.359-7.73565-4.46866a2.23835,2.23835,0,0,1-1.08779-1.51966C304.47137,592.84,305.77653,552.48263,312.93921,530.84551Z"/>
          <path class="cls-19" d="M321.56756,535.82985l22.31166-13.145c12.124-15.76078,26.836-25.56861,40.8626-27.73248-.04568-.035.001-.03588.10937-.01386.40674-.06137.80958-.10782,1.21216-.15324,4.44335-1.114,18.41017-6.48207,18.41017-6.48207v.00009L417.571,471.78084c0,28.13855,12.44112,58.86469,24.095,81.83985a1.18508,1.18508,0,0,1-.47123,1.56711l-6.26705,3.61284a159.74018,159.74018,0,0,1-18.08361-29.58832l-.0006.00017c-8.49054-16.31391-16.85888-23.69188-32.0343-21.35112-14.0092,2.16188-28.277,12.51641-39.14394,28.41084-9.03292,13.21219-20.0887,36.401-20.41969,71.85305.07763,4.09213.22848,8.23736.42645,12.506a2.15089,2.15089,0,0,1-1.06845,1.96171l-6.11767,3.52686C313.06843,598.82289,314.31656,557.73391,321.56756,535.82985Z"/>
        </g>
        <g>
          <path class="cls-18" d="M300.677,532.58635v-2.88759a8.851,8.851,0,0,1,4.4279-7.66657l90.58706-52.26809v-.82232c0-37.13565,19.28094-99.72965,37.60388-136.14952,1.84771-3.67262,5.69143-5.81217,9.52607-4.3297h0a3.87614,3.87614,0,0,1,2.29635,5.05075c-17.81868,40.77452-38.06642,98.43992-38.06642,135.42847v2.83487a7.87678,7.87678,0,0,1-3.94056,6.82276L305.1082,535.14567A2.9547,2.9547,0,0,1,300.677,532.58635Z"/>
          <polygon class="cls-18" points="451.563 333.488 443.189 328.627 443.78 334.968 451.563 333.488"/>
          <polygon class="cls-18" points="310.002 539.693 302.074 535.096 311.16 531.422 310.002 539.693"/>
          <path class="cls-19" d="M308.58865,537.17341v-2.88759a8.851,8.851,0,0,1,4.4279-7.66657l90.587-52.26809v-.82232c0-37.13565,19.28094-99.72966,37.60388-136.14953,1.84771-3.67262,5.69144-5.81217,9.52607-4.3297l0,0a3.87612,3.87612,0,0,1,2.29634,5.05074c-17.81867,40.77452-38.06641,98.43993-38.06641,135.42848v2.83487a7.87681,7.87681,0,0,1-3.94057,6.82276l-98.003,56.54625A2.95469,2.95469,0,0,1,308.58865,537.17341Z"/>
        </g>
        <g>
          <path class="cls-18" d="M657.75072,738.71492v-2.88759a8.851,8.851,0,0,1,4.4279-7.66657l90.587-52.2681v-.82231c0-37.13566,19.28094-99.72966,37.60389-136.14953,1.84771-3.67262,5.69143-5.81217,9.52607-4.3297l0,0a3.87611,3.87611,0,0,1,2.29634,5.05074c-17.81867,40.77452-38.06641,98.43993-38.06641,135.42848v2.83487A7.87681,7.87681,0,0,1,760.185,684.728l-98.003,56.54625A2.95469,2.95469,0,0,1,657.75072,738.71492Z"/>
          <polygon class="cls-18" points="808.637 539.616 800.263 534.755 800.853 541.096 808.637 539.616"/>
          <polygon class="cls-18" points="667.076 745.822 659.148 741.225 668.234 737.551 667.076 745.822"/>
          <path class="cls-19" d="M665.66239,743.302v-2.88759a8.851,8.851,0,0,1,4.42755-7.66636l90.58741-52.2683v-.82232c0-37.42951,19.58729-100.72188,38.03867-137.00911a7.25674,7.25674,0,0,1,9.09129-3.47014h0a3.95942,3.95942,0,0,1,2.19475,5.28343c-17.79394,40.76089-37.96483,98.27754-37.96483,135.19582v2.83453a7.87738,7.87738,0,0,1-3.94056,6.8231l-98.00294,56.54619A2.9547,2.9547,0,0,1,665.66239,743.302Z"/>
        </g>
      </g>
      <g>
        <path class="cls-20" d="M282.37753,530.812v2.28615a2.36,2.36,0,0,0,1.22117,2.07322L651.99136,747.81756l106.996-68.82674-1.86018-1.0792-368.35-212.61788-2.13,1.22125L285.88486,524.69183A7.07046,7.07046,0,0,0,282.37753,530.812Z"/>
        <path class="cls-21" d="M801.68739,544.00478c-14.589,32.77744-35.23927,95.37358-41.98407,134.50624l-.71259.48639L388.775,465.29381v-.656c0-29.57809,21.4348-99.10473,36.98466-129.81223,1.47561-2.914,4.52437-4.62613,7.57833-3.44982a3.6732,3.6732,0,0,1,.76914.44114Z"/>
        <path class="cls-22" d="M650.70779,745.72738v-2.30011a7.05026,7.05026,0,0,1,3.527-6.10681L757.1152,677.92058v-.655c0-29.58044,17.80082-90.29655,36.98108-129.80989,1.43006-2.94606,4.53352-4.62969,7.588-3.44883l0,0a3.02753,3.02753,0,0,1,1.82916,4.02317c-18.02305,35.01137-37.34951,99.77228-37.34951,129.23554v2.25812a6.27428,6.27428,0,0,1-3.13887,5.43468L654.23749,747.766A2.35357,2.35357,0,0,1,650.70779,745.72738Z"/>
      </g>
    </g>
    <path class="cls-22" d="M386.64718,466.515,756.048,679.7718l1.0792-1.86018,1.05078-1.83175L388.80559,462.8514c-.01422.61059-.02843,1.207-.02843,1.7892v.65314Z"/>
    <polygon class="cls-22" points="303.919 514.283 672.283 726.901 676.543 724.445 308.179 511.813 303.919 514.283"/>
    <polygon class="cls-22" points="331.495 498.351 699.845 710.983 704.091 708.541 335.755 495.895 331.495 498.351"/>
    <polygon class="cls-22" points="359.071 482.433 727.421 695.079 731.681 692.608 363.331 479.976 359.071 482.433"/>
    <path class="cls-22" d="M415.84211,357.5452l368.279,212.60358c.5396-1.3348,1.07921-2.66959,1.61872-3.976l-368.32158-212.632Q416.6302,355.50036,415.84211,357.5452Z"/>
    <path class="cls-22" d="M406.55543,383.64448l368.066,212.47592c.45441-1.37744.92294-2.74066,1.39156-4.118l-368.10864-212.49C407.44994,380.88979,406.99562,382.26713,406.55543,383.64448Z"/>
    <path class="cls-22" d="M398.51825,410.46806l367.995,212.43327c.38342-1.40577.76676-2.82576,1.1644-4.24574L399.69686,406.22231C399.29923,407.6423,398.90168,409.06228,398.51825,410.46806Z"/>
    <path class="cls-22" d="M391.98634,438.15781l368.10856,212.49q.3835-2.19381.852-4.43035L392.86673,433.75588C392.55429,435.24685,392.25615,436.70948,391.98634,438.15781Z"/>
  </g>
  <path class="cls-22" d="M534.33251,679.90168l-.67346-4.16639a12.35338,12.35338,0,0,1,5.614-12.42565l56.95423-38.64838a86.46689,86.46689,0,0,0,36.35176-55.182L653.93145,458.7118l-25.142-14.51335L530.71287,622.90133,510.1017,651.69022V665.915Z"/>
  <path class="cls-10" d="M108.75767,681.23539l21.05072,12.15677V707.426l-10.5274-6.07957a21.05071,21.05071,0,0,1-10.52332-18.22928Z"/>
  <path class="cls-23" d="M130.364,636.98777c12.18665,10.11721,45.27283,9.16087,51.506-10.00243,10.462,4.25366,26.44231-7.12783,22.00192-15.18631,19.15645,5.3205,35.13721-9.87652,29.91693-21.7047,31.54781-14.72976,12.5781-43.52931-4.0922-41.40248,1.83646-17.75641-14.19869-26.9601-27.30486-17.04375-8.79511-15.08952-36.21518-10.3472-36.0897,9.86752-23.17669-13.51774-52.78514,6.27252-40.97794,35.81771-6.57578-6.02031-12.0964-3.12725-16.55478,1.50115v61.29557C114.70705,640.46924,121.86315,639.575,130.364,636.98777Z"/>
  <g>
    <g>
      <g>
        <path class="cls-24" d="M272.5433,93.88093a193.74425,193.74425,0,1,1-75.66687,15.27027A193.17634,193.17634,0,0,1,272.5433,93.88093m0-17.54223c-117.05676,0-211.95007,94.89331-211.95007,211.95019s94.89331,211.9502,211.95007,211.9502c117.05689,0,211.9502-94.89331,211.9502-211.9502S389.60019,76.3387,272.5433,76.3387Z"/>
        <circle class="cls-25" cx="272.54335" cy="288.28891" r="196.04503"/>
      </g>
      <circle class="cls-24" cx="96.42821" cy="179.94767" r="62.61491"/>
    </g>
    <g class="cls-26">
      <g>
        <g>
          <g>
            <path class="cls-27" d="M149.05991,351.72857c-30.33353,35.7669-112.3402,144.9949-112.3402,144.9949l-23.012,9.68309s-19.29,21.10384-14.96644,49.00117c4.01127,25.881,30.74081,42.54884,65.18759,26.27476,22.25363-10.514,119.73147-111.417,119.73147-111.417l47.56035-155.25829S189.81337,303.67532,149.05991,351.72857Z"/>
            <path class="cls-28" d="M150.96807,503.42048V415.37342L115.93039,537.68727C127.93623,526.24211,140.21112,514.16026,150.96807,503.42048Z"/>
            <circle class="cls-29" cx="34.42606" cy="532.90278" r="26.49623"/>
            <path class="cls-30" d="M14.70544,504.52189l-4.44749,24.44526s-4.19981,15.63167,15.58921,22.44974,24.94415-4.15736,24.94415-4.15736l3.15959-11.14172Z"/>
            <path class="cls-31" d="M92.67552,886.6602,62.9308,721.70227-55.249,772.92092c-45.78637,24.279-65.18738,63.96789-45.89724,121.50572l99.33314,255.87153-22.17257,28.15917c3.61726,10.027,19.63378,16.35567,19.63378,16.35567s62.97482-15.94584,62.79277-38.47281l-5.8203-13.30355c-20.6205-86.7502-1.71608-140.78582-30.3187-246.549Z"/>
            <path class="cls-32" d="M214.50007,878.40521l-63.12291-203.8186L-58.13147,763.38672c-50.43083,23.05947-68.735,87.8034-50.43083,135.751l62.251,141.53646c13.46812,40.21885,92.16916,18.05123,87.2912-24.96357L31.46547,910.3628Z"/>
            <path class="cls-31" d="M116.73836,951.16757c-6.43,12.8601-27.93021,48.44764-28.97428,74.74245l.99777,204.8746L77.18863,1264.9128c-5.41393,23.42057,46.05162,9.80855,46.05162,9.80855s7.81291-13.128,9.505-17.21049.40738-14.93262.40738-14.93262l-1.15427-10.13067c9.72721-40.32,47.66217-106.80445,53.32505-181.26081l25.65861-33.70232C234.07342,994.38735,136.68505,911.27418,116.73836,951.16757Z"/>
            <path class="cls-29" d="M165.70069,650.5283l-56.773,43.45464,57.37224,124.35283S99.63111,942.15888,90.86824,985.55593c-9.31248,46.119-4.66191,124.97793-4.66191,124.97793.66111,37.9151,79.37661,38.505,86.7941,13.8934l26.95689-75.12517,128.949-121.00588c44.32969-44.29068,67.3764-71.34122,67.3764-137.32314,0-72.46032-13.62917-110.67861-13.62917-110.67861Z"/>
            <path class="cls-33" d="M262.24714,326.80869c-50.99692,4.65624-94.45843-5.5468-91.55762,66.296-30.50566,64.51854-29.933,129.61462-.66518,188.8791l-4.98883,30.62941-46.67327,67.51549C102.50483,708.177,142.28424,779.61633,192.392,807.02c72.50433,39.6522,209.45436,31.25252,206.42183-23.274-1.98745-44.51012-8.97367-92.53684-17.48471-139.5317l48.55786-200.55608C419.95917,392.69817,343.68377,361.47146,262.24714,326.80869Z"/>
            <path class="cls-31" d="M263.81457,316.3875c-11.1812,1.02086-22.591,1.73324-33.562,2.97927-22.11624,25.82762-17.23516,64.54042,17.59771,78.17233,43.69119,17.09841,97.2883-7.301,105.43043-40.46485A498.94968,498.94968,0,0,0,263.81457,316.3875Z"/>
            <path class="cls-34" d="M261.15363,318.27225c-57.37154-13.30355-103.679,11.42786-101.19939,72.84016-30.50547,64.51878-8.88745,141.79037,1.4228,202.87582l-26.27451,50.05459c-6.13239,11.7742-4.66506,33.12625.85429,49.91337a8.03,8.03,0,0,0,14.80376,1.189c8.70583-17.16551,22.676-46.57859,29.24142-70.55877,9.92524-36.25193-3.54776-132.48124,14.30131-192.90142s51.05236-100.53764,51.05236-100.53764Z"/>
            <path class="cls-35" d="M397.143,740.32711c-1.987-44.50979-7.30285-49.118-15.81389-96.11286l48.558-200.556c-6.33383-32.51127-34.66878-59.75779-76.60638-86.584,0,0-48.98385,18.30965-77.49315,85.25356-38.26855,89.86-29.81506,261.32777-26.357,311.423a15.604,15.604,0,0,0,15.57472,14.50371C310.898,768.335,361.96527,756.73839,397.143,740.32711Z"/>
            <path class="cls-28" d="M341.86181,661.39286,274.63321,768.0648a339.51244,339.51244,0,0,0,53.8811-6.24478l61.24025-76.48042-45.232-176.49421Z"/>
            <path class="cls-36" d="M430.436,446.13378c-12.183-60.93653-93.61766-20.10312-85.91345,62.71176l19.95531,167.62468L300.0665,752.633c-23.50293,26.82881,25.70164,72.83691,49.11226,56.87265,0,0,82.81089-40.24382,97.78106-99.99919C455.5421,675.25051,442.53627,510.87773,430.436,446.13378Z"/>
            <ellipse class="cls-29" cx="324.54153" cy="780.42618" rx="19.54614" ry="30.7563" transform="translate(-421.0457 382.31576) rotate(-39.3197)"/>
            <path class="cls-31" d="M303.74814,762.60477l-51.13095,49.78334,27.615,28.10348,59.48669-36.141C358.43581,791.2133,321.488,744.48931,303.74814,762.60477Z"/>
            <g>
              <path class="cls-31" d="M282.65507,839.01955c-11.35311,19.14374-16.52225,33.39729-23.47364,37.93929L226.63094,894.478a19.31122,19.31122,0,0,1-18.74054.07814l-12.4297-8.32789c-6.31569-5.14451-9.11749-12.34531-5.34485-19.44131,5.38155-10.1222,18.99882-28.7595,26.60209-35.24808s37.2296-20.7821,37.2296-20.7821C265.735,806.13667,282.65507,839.01955,282.65507,839.01955Z"/>
              <path class="cls-31" d="M253.94754,810.75674s-28.0315,2.56791-36.57414,7.47251-20.1432,14.71387-20.1432,14.71387c-8.82088,7.0941,3.113,16.0983,9.86085,8.66084Z"/>
            </g>
          </g>
          <g>
            <path class="cls-37" d="M78.77121,544.96953,44.56276,524.43536a5.36453,5.36453,0,0,1-2.522-3.66724l-17.48539-99.0839a5.36454,5.36454,0,0,1,8.04385-5.5318l33.17884,19.91614A24.73184,24.73184,0,0,1,77.405,452.97542l14.62515,82.87585A8.84257,8.84257,0,0,1,78.77121,544.96953Z"/>
            <path class="cls-31" d="M33.91694,470.41l-3.83509-17.40944-4.70708,4.53622a28.81662,28.81662,0,0,0-7.53913,12.19956c-2.94313,9.462-7.57769,26.24138-7.57769,38.08a31.409,31.409,0,0,0,31.40931,31.409c8.67323,0,19.1977,1.47947,24.88148-4.20431,5.68378-5.68442,6.52751-18.53081,6.52751-27.20468C73.07625,496.24973,49.58168,479.97692,33.91694,470.41Z"/>
          </g>
          <path class="cls-38" d="M205.198,180.05083s-12.2567,12.05508-10.18469,56.23516c1.48841,31.73647-13.31246,56.39883-6.42177,80.72129,11.39654,40.22706,58.0188,38.53045,79.65628,23.28321Z"/>
          <path class="cls-30" d="M250.95424,350.26754c1.2259,10.385,12.69432,21.82,24.78746,24.07911,24.5385,4.58393,49.67223-16.81678,46.22186-36.03941l-9.71281-50.98657-64.84412,15.98509Z"/>
        </g>
        <g>
          <path class="cls-31" d="M265.00818,332.58755c35.33866-4.736,55.69947-24.55343,59.38164-57.84549l7.84322-71.98942c3.97532-28.95248-20.70054-57.80749-54.64518-59.48622-29.66718-1.46718-61.5003,21.53392-63.14152,54.39793,0,0-1.485,40.57873,1.59409,72.91011S232.159,336.98988,265.00818,332.58755Z"/>
          <g>
            <path class="cls-39" d="M397.78153,315.69274c-2.62138-28.53478-14.79514-41.556-21.04943-69.84409-1.382-6.24813-2.855-12.77634-4.53213-19.3939l.00675-.00429c-9.45314-46.0823-21.13883-74.3549-61.66691-87.166-61.22568-16.925-100.8937,23.16034-105.33795,40.767-3.84255,15.22567,13.17147,61.43755,85.93943,68.44427-5.21242,13.29383,4.64787,29.35574,18.51249,24.21985,2.61271,3.51516,9.63653,12.04565,9.63653,12.04565s-37.11568,62.09936-8.91356,84.06446C341.75576,393.26513,402.21284,363.92135,397.78153,315.69274Z"/>
            <g>
              <path class="cls-40" d="M230.92476,261.24059c5.74478-1.76624,13.35076.13861,19.90293,5.96335"/>
              <line class="cls-40" x1="282.07169" y1="265.45667" x2="319.23225" y2="249.29666"/>
              <path class="cls-18" d="M232.4266,269.08254c-3.32372,6.44859-22.02191,5.87658-28.13444-3.03823-7.15081-10.42908-6.46079-25.85444-.78275-26.79665s20.89319,4.62152,25.32507,9.33312C234.47137,254.57345,235.38278,263.34705,232.4266,269.08254Z"/>
              <path class="cls-18" d="M246.27212,270.36526c-3.002-5.64238-2.61807-14.03775,1.9916-17.21833,4.41532-3.04649,23.95138-.939,30.62835,4.48,4.83379,3.92308,10.08681,14.98543,3.74222,22.9719C275.09081,290.09445,254.3297,285.50968,246.27212,270.36526Z"/>
            </g>
            <path class="cls-31" d="M318.99867,295.46291c13.1454-.83956,23.03888-19.901,22.08618-34.8178s-14.66988-26.64568-25.53621-19.20058C301.90788,250.79053,305.85327,296.30248,318.99867,295.46291Z"/>
          </g>
        </g>
      </g>
    </g>
  </g>
  <g>
    <rect class="cls-17" x="89.89837" y="146.52034" width="13.0597" height="66.85466" transform="translate(-98.99905 120.8905) rotate(-45)"/>
    <rect class="cls-17" x="89.89837" y="146.52034" width="13.0597" height="66.85466" transform="translate(37.37104 375.37493) rotate(-135)"/>
  </g>
  <g>
    <g>
      <g>
        <path class="cls-41" d="M515.20292,389.46815c-11.6431,13.72863-43.12023,55.6543-43.12023,55.6543l-8.83286,3.71671s-7.40421,8.10042-5.74466,18.80843c1.53967,9.93408,11.79944,16.33179,25.02136,10.08521,8.54175-4.03565,45.95728-42.76587,45.95728-42.76587l18.25538-59.59376S530.84558,371.02357,515.20292,389.46815Z"/>
        <path class="cls-28" d="M515.93535,447.693V413.89735l-13.44873,46.94848C507.09489,456.45277,511.80644,451.81532,515.93535,447.693Z"/>
        <circle class="cls-29" cx="471.2023" cy="459.00938" r="10.17021"/>
        <path class="cls-30" d="M463.63281,448.11576l-1.70711,9.383s-1.612,6,5.98371,8.617,9.57447-1.59574,9.57447-1.59574l1.21276-4.2766Z"/>
        <path class="cls-42" d="M488.10518,713.82571c1.63911,5.94963,3.14465,11.54658-.1745,16.54537-4.15686,6.26042-12.33266,5.78225-22.69969,9.56577s-20.679,10.31363-38.15137,7.9583-15.94249-17.77939-10.97633-22.547l23.65718-9.4239,16-13.57447S484.46122,705.778,488.10518,713.82571Z"/>
        <path class="cls-32" d="M481.81864,695.834c3.644,8.04771,9.57006,23.03314,5.69011,29.46886s-11.91073,6.70152-22.27776,10.485-20.679,10.31364-38.15137,7.9583-15.783-17.57269-7.06383-21.37513l19.74468-10.59574,16-13.57447S478.17467,687.78631,481.81864,695.834Z"/>
        <path class="cls-31" d="M493.56055,594.7943l-11.4171-63.31684L436.78175,551.137c-17.57447,9.31915-25.02128,24.55319-17.617,46.6383l38.12766,98.21276-8.51064,10.80851c1.38843,3.84871,7.53616,6.2779,7.53616,6.2779s24.172-6.12059,24.10214-14.76726l-2.23405-5.10638c-7.91489-33.29788-.65869-54.0387-11.63741-94.63445Z"/>
        <path class="cls-43" d="M448.78178,706.79652c1.38843,3.84888,7.53613,6.27783,7.53613,6.27783s24.172-6.12036,24.10218-14.76709l-2.23413-5.10644c-7.15528,7.17187-14.65577,8.40161-22.42554,5Z"/>
        <path class="cls-42" d="M439.76047,711.77534c-1.97449,2.5437,3.70213,8.42553,9.2766,6.29787l18.62972-8.82967c-1.686-8.39478-10.16164-14.7448-15.58717-8.48948Z"/>
        <path class="cls-32" d="M540.32123,591.62573l-24.22886-78.233-80.417,34.0847c-19.35718,8.85107-26.383,33.70213-19.35718,52.10616l23.89421,54.32683c5.16956,15.43745,35.37787,6.92871,33.50553-9.58192l-3.652-40.43632Z"/>
        <path class="cls-42" d="M511.24983,739.08385s2.06715,15.99849.92994,21.49279c-1.42517,6.88557-5.97381,11.82946-6.98014,16.41275s-2.06663,14.17785-10.6627,19.85216c-16.56369,10.93379-33.07433-1.61941-26.88655-16.01083l7.08721-11.02576,13.47217-32.09933C490.40941,729.286,510.35623,730.13712,511.24983,739.08385Z"/>
        <path class="cls-32" d="M511.24983,735.1264s2.06715,15.99849.92994,21.49279c-1.42517,6.88558-5.97381,11.82947-6.98014,16.41275s-3.07617,14.84549-10.6627,19.85217c-16.56493,10.9319-32.90412-1.15133-25.90892-14.30547l6.10958-12.73113,13.47217-32.09933C490.40941,725.32853,510.35623,726.17967,511.24983,735.1264Z"/>
        <path class="cls-31" d="M502.79674,619.55456c-2.46808,4.93617-10.72062,18.596-11.12138,28.68886l.383,78.6383-4.44222,13.09963c-2.07806,8.98966,17.67628,3.76488,17.67628,3.76488s2.99888-5.039,3.64837-6.606.15637-5.73167.15637-5.73167l-.44305-3.88852c3.73365-15.47628,18.29447-40.99542,20.46808-69.57447l9.84871-12.93617C547.83419,636.14388,510.453,604.242,502.79674,619.55456Z"/>
        <path class="cls-43" d="M505.2924,743.74623s2.9989-5.03907,3.64844-6.606c.64941-1.56714.15625-5.73169.15625-5.73169-6.826,6.537-18.10258,3.6008-18.35791-.35669l-3.123,8.92944C485.538,748.97108,505.2924,743.74623,505.2924,743.74623Z"/>
        <path class="cls-42" d="M487.40658,739.93666c1.30073-7.64327,17.5241-3.69324,17.88582,3.80957l-8.21278,14.13549c-2.256,3.52128-15.734,1.46808-14.10643-3.31909Z"/>
        <path class="cls-29" d="M521.59026,504.15831l-21.79153,16.67947,22.02154,47.73112s-25.58991,47.5278-28.95342,64.18516c-3.57446,17.70213-1.78941,47.97106-1.78941,47.97106.25376,14.55319,30.46762,14.7796,33.31472,5.33279l10.347-28.83577,49.4953-46.44644c17.01534-17.00036,25.8615-27.38334,25.8615-52.70959,0-27.8129-5.23137-42.48247-5.23137-42.48247Z"/>
        <path class="cls-33" d="M558.64829,379.903c-19.57447,1.78724-36.25657-2.12906-35.14314,25.44681-11.70918,24.76456-11.48935,49.75079-.25532,72.49865l-1.91489,11.75667L503.42005,515.52c-6.08665,10.76595,9.18213,38.187,28.41528,48.70546,27.82979,15.22,80.39618,11.99585,79.23218-8.93341-.76286-17.08459-3.44442-35.519-6.71127-53.55732l18.63827-76.98069C619.18388,405.19377,589.90661,393.20782,558.64829,379.903Z"/>
        <path class="cls-31" d="M559.24992,375.903c-4.29175.39185-8.67126.66529-12.88232,1.14356-8.489,9.91357-6.61548,24.773,6.75464,30.00537,16.77026,6.563,37.34277-2.80238,40.468-15.53187A191.515,191.515,0,0,0,559.24992,375.903Z"/>
        <path class="cls-44" d="M558.22856,376.6264c-22.02128-5.10638-39.79578,4.38643-38.844,27.95869-11.7091,24.76465-3.41132,54.42429.54612,77.8711L509.84558,501.669c-2.35384,4.51937-1.79062,12.71506.3279,19.15856a3.0822,3.0822,0,0,0,5.68222.45637c3.34162-6.58874,8.70387-17.87855,11.22392-27.083,3.80967-13.91481-1.36176-50.8511,5.48936-74.04256a119.19288,119.19288,0,0,1,19.59575-38.59Z"/>
        <path class="cls-45" d="M610.42619,538.62635c-.76269-17.08447-2.8031-18.85327-6.07-36.8916l18.63832-76.98066c-2.43115-12.479-13.30713-22.9372-29.4043-33.23407,0,0-18.80178,7.0279-29.74468,32.7234-14.68886,34.49154-11.4441,100.30707-10.11676,119.53544a5.98939,5.98939,0,0,0,5.97814,5.567C577.32226,549.37679,596.92372,544.92559,610.42619,538.62635Z"/>
        <path class="cls-28" d="M589.20728,508.32853l-25.80477,40.94455a130.31679,130.31679,0,0,0,20.68152-2.397l23.50622-29.356-17.36169-67.74487Z"/>
        <path class="cls-46" d="M623.20525,425.70429c-4.67627-23.38965-35.93385-7.71631-32.97669,24.07105l7.65957,64.34042-24.7234,29.234c-9.02128,10.29788,9.86522,27.95745,18.85106,21.82979,0,0,31.78582-15.447,37.53192-38.38332C632.84189,513.64759,627.84979,450.55536,623.20525,425.70429Z"/>
        <ellipse class="cls-29" cx="582.55913" cy="554.01783" rx="7.50252" ry="11.80538" transform="translate(-219.17334 494.55404) rotate(-39.3197)"/>
        <path class="cls-31" d="M574.57788,547.17732,554.952,566.286l10.59962,10.78714,22.83315-13.87224C595.569,558.15831,581.38708,540.22395,574.57788,547.17732Z"/>
        <g>
          <path class="cls-31" d="M566.48159,576.50808c-4.35774,7.34807-6.34184,12.8191-9.01,14.56248L544.9775,597.795a7.41233,7.41233,0,0,1-7.1933.03l-4.771-3.19654c-2.42419-1.97465-3.49962-4.73858-2.05155-7.46228,2.06564-3.88527,7.29244-11.03894,10.21085-13.52949s14.29007-7.97693,14.29007-7.97693C559.98707,563.88645,566.48159,576.50808,566.48159,576.50808Z"/>
          <path class="cls-31" d="M555.4626,565.65979s-10.75951.98566-14.03848,2.86823a67.51927,67.51927,0,0,0-7.73169,5.64771c-3.38578,2.723,1.1949,6.17911,3.785,3.32435Z"/>
        </g>
      </g>
      <g>
        <path class="cls-37" d="M488.22357,463.641l-13.13044-7.88176a2.05913,2.05913,0,0,1-.968-1.40762l-6.71152-38.032a2.0591,2.0591,0,0,1,3.08752-2.1233l12.73524,7.64453a9.493,9.493,0,0,1,4.46284,6.48947l5.61366,31.81075A3.3941,3.3941,0,0,1,488.22357,463.641Z"/>
        <path class="cls-31" d="M471.00688,435.02239,469.53483,428.34l-1.80674,1.74116a11.06093,11.06093,0,0,0-2.8938,4.68264c-1.12967,3.63186-2.90859,10.07239-2.90859,14.61648a12.0559,12.0559,0,0,0,12.056,12.05591c3.32911,0,7.36878.56787,9.55042-1.61377,2.18164-2.18188,2.50549-7.11279,2.50549-10.44214C486.03764,444.94061,477.01958,438.69451,471.00688,435.02239Z"/>
      </g>
      <path class="cls-47" d="M536.75074,323.572s-4.70456,4.62718-3.90925,21.58509c.57131,12.18161-5.1098,21.64792-2.46491,30.98376,4.37441,15.4406,22.26972,14.78938,30.575,8.93694Z"/>
      <path class="cls-30" d="M554.31366,388.90735c.47054,3.98612,4.87254,8.37532,9.51433,9.24244,9.41876,1.75948,19.066-6.45489,17.74162-13.83323l-3.72813-19.5705L552.952,370.88172Z"/>
    </g>
    <g>
      <path class="cls-31" d="M559.70807,382.12113c13.56426-1.81784,21.37948-9.42449,22.79283-22.20319l3.01051-27.63215c1.52587-11.113-7.94562-22.18861-20.9748-22.833-11.38734-.56315-23.606,8.2655-24.236,20.8799a255.29488,255.29488,0,0,0,.61186,27.98554C542.09434,370.72821,547.09938,383.8109,559.70807,382.12113Z"/>
      <g>
        <path class="cls-48" d="M610.6713,375.63629c-1.00619-10.95268-5.67892-15.9507-8.07954-26.80869-.53048-2.39826-1.09586-4.904-1.73959-7.44408l.00259-.00165c-3.62846-17.68806-8.11385-28.5401-23.67-33.45747-23.50063-6.49642-38.72666,8.88977-40.43252,15.64786-1.47491,5.84417,5.05569,23.582,32.98667,26.27139-2.00072,5.10266,1.784,11.2678,7.10576,9.29646,1.00286,1.34925,3.69885,4.62356,3.69885,4.62356s-14.24634,23.836-3.42135,32.267C589.16658,405.41139,612.37219,394.14818,610.6713,375.63629Z"/>
        <g>
          <path class="cls-49" d="M546.62562,354.73558c2.20505-.67794,5.12451.05321,7.63947,2.289"/>
          <line class="cls-49" x1="566.25767" y1="356.35387" x2="580.52123" y2="350.15107"/>
          <path class="cls-18" d="M547.20208,357.74561c-1.27576,2.4752-8.4528,2.25564-10.799-1.16619-2.74474-4.00305-2.47988-9.92387-.30044-10.28552s8.01956,1.7739,9.72067,3.58239A7.16778,7.16778,0,0,1,547.20208,357.74561Z"/>
          <path class="cls-18" d="M552.5165,358.238c-1.15229-2.16575-1.00492-5.3882.76444-6.609,1.69476-1.16935,9.19341-.36042,11.75627,1.7196,1.85538,1.50582,3.87169,5.75195,1.4364,8.81744C563.57815,365.81074,555.60928,364.05094,552.5165,358.238Z"/>
        </g>
        <path class="cls-31" d="M580.43158,367.87135c5.04568-.32226,8.84316-7.63874,8.47748-13.36433s-5.63084-10.22758-9.80173-7.36988C573.87152,350.72447,575.3859,368.19361,580.43158,367.87135Z"/>
      </g>
    </g>
  </g>
</svg>
