<svg id="Layer_1" data-name="Layer 1" xmlns="http://www.w3.org/2000/svg" xmlns:xlink="http://www.w3.org/1999/xlink" viewBox="0 0 1000 1000">
  <defs>
    <style>
      .cls-1 {
        fill: url(#linear-gradient);
      }

      .cls-2 {
        fill: #fff;
      }

      .cls-3 {
        fill: #b8cbd8;
      }

      .cls-4 {
        fill: #9bb0c4;
      }

      .cls-5 {
        fill: #e2e2e2;
      }

      .cls-6 {
        fill: url(#linear-gradient-2);
      }

      .cls-7 {
        fill: #5a9137;
      }

      .cls-8 {
        fill: url(#linear-gradient-3);
      }

      .cls-9 {
        fill: url(#linear-gradient-4);
      }

      .cls-10 {
        opacity: 0.7;
      }

      .cls-11 {
        fill: #6b483c;
      }

      .cls-12 {
        fill: url(#linear-gradient-5);
      }

      .cls-13 {
        fill: #366d26;
      }

      .cls-14 {
        fill: url(#linear-gradient-6);
      }

      .cls-15 {
        fill: #c7d8e2;
      }

      .cls-16 {
        fill: url(#linear-gradient-7);
      }

      .cls-17 {
        fill: url(#linear-gradient-8);
      }

      .cls-18 {
        fill: #f49b25;
      }

      .cls-19 {
        fill: #27343d;
      }

      .cls-20 {
        fill: #ffbda3;
      }

      .cls-21 {
        fill: #cddce8;
      }

      .cls-22 {
        fill: #303d49;
      }

      .cls-23 {
        fill: #e9f1f4;
      }

      .cls-24 {
        fill: url(#linear-gradient-9);
      }

      .cls-25 {
        fill: #e48f7c;
      }

      .cls-26 {
        fill: url(#linear-gradient-10);
      }
    </style>
    <linearGradient id="linear-gradient" x1="79.31392" y1="441.39641" x2="920.68608" y2="441.39641" gradientUnits="userSpaceOnUse">
      <stop offset="0" stop-color="#e6f4ff"/>
      <stop offset="1" stop-color="#c0e3ff"/>
    </linearGradient>
    <linearGradient id="linear-gradient-2" x1="79.31396" y1="770.26147" x2="559.1647" y2="770.26147" gradientUnits="userSpaceOnUse">
      <stop offset="0.00005" stop-color="#9dcc52"/>
      <stop offset="1" stop-color="#649e3f"/>
    </linearGradient>
    <linearGradient id="linear-gradient-3" x1="384.50003" y1="559.97449" x2="920.68049" y2="559.97449" xlink:href="#linear-gradient-2"/>
    <linearGradient id="linear-gradient-4" x1="477.11537" y1="385.48495" x2="583.83877" y2="480.97432" gradientUnits="userSpaceOnUse">
      <stop offset="0" stop-color="#67a63f"/>
      <stop offset="0.99995" stop-color="#366d26"/>
    </linearGradient>
    <linearGradient id="linear-gradient-5" x1="653.27508" y1="344.82613" x2="653.27508" y2="552.05655" gradientUnits="userSpaceOnUse">
      <stop offset="0" stop-color="#77bf49"/>
      <stop offset="0.99995" stop-color="#366d26"/>
    </linearGradient>
    <linearGradient id="linear-gradient-6" x1="690.96483" y1="263.34613" x2="839.27943" y2="603.10228" xlink:href="#linear-gradient-5"/>
    <linearGradient id="linear-gradient-7" x1="96.51242" y1="485.41104" x2="157.42514" y2="657.99707" xlink:href="#linear-gradient-4"/>
    <linearGradient id="linear-gradient-8" x1="171.5946" y1="566.98212" x2="221.30328" y2="683.47113" xlink:href="#linear-gradient-4"/>
    <linearGradient id="linear-gradient-9" x1="510.90503" y1="313.98393" x2="477.71354" y2="366.23925" gradientUnits="userSpaceOnUse">
      <stop offset="0" stop-color="#966551"/>
      <stop offset="1" stop-color="#805345"/>
    </linearGradient>
    <linearGradient id="linear-gradient-10" x1="487.47722" y1="299.10307" x2="454.28573" y2="351.35839" xlink:href="#linear-gradient-9"/>
  </defs>
  <path class="cls-1" d="M79.34318,533.236S76.916,443.92217,116.27249,405.64761s101.191-29.83447,150.323-53.496,68.673-70.454,112.94076-112.54121,137.15895-27.051,188.88842,3.59733,84.58457,73.86257,134.86125,101.30244,124.53069,34.14995,152.89691,43.40629,64.50324,29.24172,64.50324,69.11385V669.09677l-841.3429-3.677Z"/>
  <path class="cls-2" d="M499.99369,401.87712q-26.90507-15.31456-58.96574,7.999c-11.73914-9.70807-38.27649-9.70807-52.067,12.54084,0,0-18.472-23.67363-44.546-22.29784-47.74468,2.51923-50.10769,50.70423-50.10769,50.70423-24.10507-29.02591-74.74337-17.09965-76.4429,33.81254-26.17335-17.23561-62.726.64076-54.447,42.58664-31.59818-21.86078-84.07415,20.18178-84.1034,74.82007l0,63.3772,167.73987-64.14649Z"/>
  <path class="cls-3" d="M86.57347,678.91934l391.659,226.11445a43.5559,43.5559,0,0,0,43.55553-.00064l391.63891-226.118a14.51862,14.51862,0,0,0,.00018-25.14675L521.771,427.63328a43.55584,43.55584,0,0,0-43.55859.00055L86.57262,653.77256A14.51862,14.51862,0,0,0,86.57347,678.91934Z"/>
  <ellipse class="cls-4" cx="473.77944" cy="684.8462" rx="92.12777" ry="52.947"/>
  <g>
    <polygon class="cls-5" points="559.165 868.935 123.25 617.445 123.25 631.964 559.165 883.453 570.063 877.163 570.063 862.644 559.165 868.935"/>
    <polygon class="cls-2" points="570.063 862.644 559.163 868.934 123.254 617.446 133.484 611.566 570.063 862.644"/>
  </g>
  <path class="cls-6" d="M551.92221,874.22151l-423.58-244.56738-41.76953,24.1184a14.51858,14.51858,0,0,0,.00074,25.14673l391.659,226.1145a43.5558,43.5558,0,0,0,43.55554-.00048L559.1647,883.4532A15.50058,15.50058,0,0,0,551.92221,874.22151Z"/>
  <path class="cls-7" d="M913.42319,678.91267l-93.24,53.82983-1.21.63013v-13.54l81.03-73.81006,13.42,7.75A14.512,14.512,0,0,1,913.42319,678.91267Z"/>
  <polygon class="cls-7" points="920.682 666.333 920.682 622.043 894.628 646.023 920.682 666.333"/>
  <path class="cls-8" d="M913.40543,637.08311c-39.10744,32.01809-52.21968,54.48808-94.43268,82.7468L384.5,472.3404c35.22093-19.67513,67.27608-55.42024,101.68335-71.11658a12.18854,12.18854,0,0,1,10.15749.00754C589.04,443.85085,788.63223,518.13452,912.65258,608.12793,922.35793,615.17047,924.03191,628.383,913.40543,637.08311Z"/>
  <g>
    <polygon class="cls-5" points="808.074 725.141 372.16 473.652 372.16 488.17 808.074 739.66 818.973 733.369 818.973 718.851 808.074 725.141"/>
    <polygon class="cls-2" points="818.973 718.851 808.073 725.141 372.163 473.652 382.393 467.772 818.973 718.851"/>
  </g>
  <path class="cls-9" d="M593.20083,469.8238c-4.68427,6.08955-14.7443,9.12318-31.16155,4.12662-9.45776,7.85173-35.1352,7.1096-39.97243-7.7625-8.1194,3.30129-20.52156-5.5319-17.07527-11.78567-14.867,4.12905-27.26915-7.6652-23.21768-16.8447-24.4838-11.43129-9.76181-33.78195,3.17569-32.1313-1.42534-13.78057,11.01919-20.92307,21.19075-13.22748,6.82564-11.71068,28.10561-8.03018,28.00835,7.65782,17.98671-10.49069,39.40051,6.105,30.237,29.03439,8.94042-8.18509,20.18267,1.04961,16.82691,11.10287C596.45909,442.89754,597.8851,463.73425,593.20083,469.8238Z"/>
  <g class="cls-10">
    <ellipse class="cls-7" cx="653.27508" cy="582.38767" rx="36.44972" ry="20.94811"/>
  </g>
  <g class="cls-10">
    <ellipse class="cls-7" cx="787.06487" cy="656.24295" rx="48.80084" ry="28.04646"/>
  </g>
  <g>
    <path class="cls-11" d="M659.44335,581.83806V506.72164h-12.3367V581.862h.00563a3.10682,3.10682,0,0,0,1.8153,2.49111,9.64337,9.64337,0,0,0,8.725.01568A3.02657,3.02657,0,0,0,659.44335,581.83806Z"/>
    <path class="cls-12" d="M600.29873,481.59088c0-7.63482,2.4907-14.4736,6.43071-19.14836a37.158,37.158,0,0,1-2.77652-10.67662c-1.16349-10.43154,1.9801-20.00572,7.594-25.70119-.59184-6.63456,1.53105-12.63629,5.61385-15.8413a33.7004,33.7004,0,0,1-.34688-4.81769c0-13.065,7.30838-23.84356,16.719-25.31344-.02043-.42861-.04087-.83692-.04087-1.26566,0-17.94388,8.47212-32.47866,18.90341-32.47866,9.16588,0,16.8007,11.20728,18.53609,26.04832,3.77655,1.87806,6.7163,6.757,7.71657,12.88125,5.30759,3.59276,10.064,10.207,12.65659,18.4951,2.24574,7.22652,2.42915,14.351.91853,20.02615,3.61333,2.61293,6.08334,7.77774,6.08334,13.69773a19.33441,19.33441,0,0,1-2.30654,9.30879v.02044c8.3084,4.59315,12.37077,17.49483,9.14544,31.09052a38.54986,38.54986,0,0,1-6.20594,13.73872c5.16481,6.83865,6.10377,18.02562,1.65365,28.70212a33.61873,33.61873,0,0,1-13.12632,15.882c-4.69508,8.18605-10.69693,13.3916-17.49471,16.33122-4.75663,7.839-12.43233,12.28929-19.72,10.55415-4.75638-1.12288-8.431-4.69533-10.65631-9.53344a34.05523,34.05523,0,0,1-13.63643-8.65553c-8.18605-3.6745-15.47374-12.1055-18.94428-23.23117a40.67273,40.67273,0,0,1-.9594-21.80217A30.31015,30.31015,0,0,1,600.29873,481.59088Z"/>
    <path class="cls-13" d="M705.14492,477.91889a38.43536,38.43536,0,0,1-6.202,13.73637c5.16838,6.84534,6.11026,18.032,1.65381,28.69041a33.55712,33.55712,0,0,1-13.13912,15.89562c-4.68609,8.17753-10.6811,13.3919-17.48059,16.33206-4.75479,7.83306-12.42718,12.28936-19.73167,10.54357-4.75508-1.12553-8.43032-4.68609-10.6584-9.53285a33.79267,33.79267,0,0,1-13.62169-8.66c17.36423,2.78812,27.64156-3.35656,28.162-21.79908,6.68992,3.85669,14.021-2.20364,9.81783-10.51216,14.36884.782,19.74494-17.9855,10.41941-27.45818,15.77685-3.62545,18.70927-24.15237,5.03028-30.23186,9.889-4.94862,14.60759-15.52265,12.81793-31.12267,3.62925,2.61868,6.087,7.78707,6.087,13.69053a19.45118,19.45118,0,0,1-2.29706,9.32606c6.3859,3.51443,10.24508,11.94474,10.24508,21.82207A39.93115,39.93115,0,0,1,705.14492,477.91889Z"/>
  </g>
  <g>
    <path class="cls-11" d="M800.66391,653.55635V487.9488H773.46547V653.60911h.01241c.04078,1.98688,1.36892,3.97111,4.00214,5.49208,5.32851,3.07609,13.941,3.0916,19.23583.03458C799.37744,657.59884,800.68962,655.57737,800.66391,653.55635Z"/>
    <path class="cls-14" d="M874.232,425.54886a135.09382,135.09382,0,0,0,.29468-18.03176c-1.695-32.88573-14.58838-59.79624-30.4034-66.415.143-.55281.3599-1.07026.46834-1.63761,2.46427-12.836-4.927-24.43092-16.50888-25.89761-.09822-.01218-.19409.00668-.29153-.00432C823.4127,280.7141,806.86375,263.012,787.06473,263.012c-19.38726,0-35.65175,16.98311-40.43256,48.52906-17.257,9.19739-32.36082,36.69529-36.91689,70.79116-.61135,4.57257-.96025,9.05949-1.15591,13.47254A25.9048,25.9048,0,0,0,693.582,414.77083a23.85639,23.85639,0,0,0,2.036,15.327c-7.41323,8.84025-12.06046,21.30579-12.06046,35.16023a59.4614,59.4614,0,0,0,2.39984,16.70533c-7.71027,11.33242-10.9737,27.29162-7.77078,44.29791,3.7907,20.12788,15.69321,36.62183,30.31617,44.69317,9.21193,16.44916,22.06448,25.84183,37.22728,30.9511,9.63234,15.38007,24.54761,25.29216,41.33466,25.29216s31.70311-9.91209,41.33623-25.29216c15.1188-5.09513,27.94463-14.44812,37.15106-30.812,12.36457-4.77413,22.50846-16.56663,25.34834-31.35618a38.66714,38.66714,0,0,0-3.93685-26.34316A70.55453,70.55453,0,0,0,898.213,486.63814C903.1612,460.86311,892.923,437.04355,874.232,425.54886Z"/>
    <path class="cls-13" d="M898.20045,486.65936a69.31407,69.31407,0,0,1-11.26523,26.71446,38.65924,38.65924,0,0,1,3.99029,26.39306c-2.89646,14.74122-13.00342,26.52154-25.36249,31.3495-9.20486,16.35053-22.015,25.68466-37.1432,30.77-9.65591,15.38518-24.59083,25.29844-41.3268,25.29844-16.802,0-31.73611-9.91326-41.392-25.29844-15.12744-5.08531-28.002-14.48387-37.20764-30.96328,38.21976,10.25458,63.52408-6.35221,64.95188-46.60581,30.52366,16.31926,65.30722-8.33414,57.09939-44.35292,27.65662-8.35732,33.95693-49.72024,9.84922-68.87892,20.81113-16.02482,26.98448-46.72121,3.73255-69.97314,15.83623,6.63058,28.71078,33.53834,30.38453,66.43272a139.494,139.494,0,0,1-.25774,18.02429C892.92144,437.02783,903.15728,460.84583,898.20045,486.65936Z"/>
  </g>
  <path class="cls-15" d="M472.80336,553.66961,416.429,519.68538l-3.17153,4.33914a3.9723,3.9723,0,0,0-.0921,4.55078l7.022,12.48948c1.69557,3.01576,6.44963,5.97286,12.74343,7.9266l13.73849,4.26475c7.06242,2.19234,15.00358,2.79543,20.71487,1.57319Z"/>
  <path class="cls-15" d="M407.35088,516.36356l.66553-1.11469-27.3762-16.71217-1.7073.09578c-3.45582.19387-5.29744,1.54521-4.45111,3.26614l2.52048,5.12516a6.31454,6.31454,0,0,0,2.97392,2.44841l14.147,6.85968C398.90738,518.65166,405.97466,518.66859,407.35088,516.36356Z"/>
  <path class="cls-15" d="M566.67785,857.80477l-53.97046-31.83584,7.90891-4.25864a15.7209,15.7209,0,0,1,7.97719-1.87036l21.17905.70628a15.72078,15.72078,0,0,1,12.62807,7.1l6.11869,9.34424a15.72077,15.72077,0,0,1,.72111,16.00663Z"/>
  <path class="cls-15" d="M507.78223,819.99328l-2.01709.97424-26.57467-15.37747.3353-1.40825a6.32783,6.32783,0,0,1,6.15576-4.86218H494.408a6.32782,6.32782,0,0,1,3.99509,1.42062l10.62217,8.64779A6.32785,6.32785,0,0,1,507.78223,819.99328Z"/>
  <g>
    <g class="cls-10">
      <ellipse class="cls-7" cx="133.62126" cy="665.41639" rx="37.56125" ry="21.58693"/>
    </g>
    <g>
      <path class="cls-11" d="M138.68671,665.78671V582.26064H124.96886v83.55268h.00626a3.45464,3.45464,0,0,0,2.01853,2.77,10.723,10.723,0,0,0,9.70181.01744A3.3654,3.3654,0,0,0,138.68671,665.78671Z"/>
      <path class="cls-16" d="M175.79161,552.76126a68.13656,68.13656,0,0,0,.14862-9.09453c-.85488-16.5863-7.35782-30.15892-15.3343-33.49719.07213-.27881.18152-.53979.23621-.82594,1.24288-6.474-2.485-12.322-8.32644-13.06176-.04954-.00615-.09789.00337-.147-.00218-2.20833-16.56748-10.555-25.49574-20.54085-25.49574-9.77819,0-17.98137,8.56562-20.39263,24.47619-8.70374,4.63881-16.32155,18.50769-18.61945,35.70433-.30835,2.30623-.48432,4.56926-.583,6.795a13.0654,13.0654,0,0,0-7.554,9.56576,12.03221,12.03221,0,0,0,1.02688,7.73036,27.64921,27.64921,0,0,0-6.08283,17.73347,29.99017,29.99017,0,0,0,1.21038,8.42553c-3.88876,5.71563-5.53471,13.76484-3.91928,22.34216,1.91189,10.15172,7.91506,18.47063,15.29031,22.54151a32.59716,32.59716,0,0,0,18.776,15.61054c4.85818,7.75712,12.38087,12.75639,20.84761,12.75639s15.98983-4.99927,20.8484-12.75639a32.59057,32.59057,0,0,0,18.73757-15.54039,21.22167,21.22167,0,0,0,12.78472-15.81485,19.50218,19.50218,0,0,0-1.9856-13.28648,35.58485,35.58485,0,0,0,5.67382-13.49474C190.3824,570.5724,185.21865,558.55873,175.79161,552.76126Z"/>
      <path class="cls-13" d="M187.88038,583.583a34.95916,34.95916,0,0,1-5.68175,13.47374,19.49817,19.49817,0,0,1,2.01255,13.31164,21.37967,21.37967,0,0,1-12.79186,15.81148,32.53427,32.53427,0,0,1-18.7336,15.51919c-4.87007,7.75969-12.40266,12.75956-20.84364,12.75956-8.47427,0-16.00647-4.99987-20.87655-12.75956a32.53262,32.53262,0,0,1-18.76609-15.61668c19.27657,5.172,32.0391-3.20382,32.75922-23.50618,15.395,8.23081,32.93845-4.20342,28.79873-22.3699,13.94894-4.21512,17.12657-25.077,4.96757-34.73988,10.49633-8.0823,13.60993-23.56437,1.88255-35.29175,7.98719,3.34421,14.48062,16.91544,15.32479,33.5061a70.35554,70.35554,0,0,1-.13,9.09076C185.21786,558.55081,190.38042,570.56368,187.88038,583.583Z"/>
    </g>
  </g>
  <g>
    <g class="cls-10">
      <ellipse class="cls-7" cx="203.58065" cy="712.05124" rx="30.64667" ry="17.61303"/>
    </g>
    <g>
      <path class="cls-11" d="M207.8965,711.31992V664.11659h-8.63181V711.335h.00394c.01294.56632.43444,1.13189,1.27013,1.56542a7.43413,7.43413,0,0,0,6.10476.00985C207.48822,712.47216,207.90466,711.896,207.8965,711.31992Z"/>
      <path class="cls-17" d="M166.51384,647.0335a17.586,17.586,0,0,1,4.49949-12.03288,21.47826,21.47826,0,0,1-1.9427-6.70922c-.81408-6.5552,1.38545-12.57164,5.31338-16.15068-.4141-4.16918,1.07126-7.94068,3.92794-9.95472a19.06088,19.06088,0,0,1-.24271-3.02744c0-8.21009,5.11357-14.98335,11.698-15.907-.0143-.26935-.0286-.52593-.0286-.79535,0-11.276,5.92783-20.40966,13.22645-20.40966,6.41324,0,11.75522,7.04268,12.96944,16.36882,2.6424,1.18017,4.6993,4.24614,5.39917,8.0946a22.11289,22.11289,0,0,1,8.85564,11.62237,20.95086,20.95086,0,0,1,.64269,12.58448,10.21209,10.21209,0,0,1,4.25642,8.60769,11.18149,11.18149,0,0,1-1.61385,5.84967v.01284c5.81327,2.88635,8.65565,10.99379,6.39894,19.53735a23.14051,23.14051,0,0,1-4.34222,8.63345c3.61375,4.29742,4.27073,11.32734,1.157,18.03648a21.85441,21.85441,0,0,1-9.1843,9.98031,25.09991,25.09991,0,0,1-12.2408,10.26258c-3.32815,4.92607-8.69872,7.72261-13.79782,6.63225a10.9593,10.9593,0,0,1-7.45607-5.99084,24.32837,24.32837,0,0,1-9.54122-5.43915c-5.72766-2.30907-10.82676-7.60713-13.255-14.59853a23.06867,23.06867,0,0,1-.67128-13.70053A17.76507,17.76507,0,0,1,166.51384,647.0335Z"/>
      <path class="cls-13" d="M239.87324,644.726a23.07079,23.07079,0,0,1-4.33942,8.632c3.61625,4.30162,4.27527,11.33135,1.15716,18.02911a21.81532,21.81532,0,0,1-9.19326,9.98885,25.07831,25.07831,0,0,1-12.23093,10.26311c-3.32686,4.92231-8.69512,7.72266-13.806,6.6256a10.95735,10.95735,0,0,1-7.45753-5.99047,24.13656,24.13656,0,0,1-9.5309-5.44194c12.1495,1.75206,19.3404-2.10927,19.70454-13.69859,4.68084,2.42355,9.81027-1.38478,6.86939-6.60587,10.05368.4914,13.81526-11.30213,7.29032-17.25478,11.03884-2.27824,13.09061-15.17741,3.51961-18.99778,6.91917-3.10972,10.22073-9.75447,8.96853-19.55756a10.19608,10.19608,0,0,1,4.259,8.60316,11.24609,11.24609,0,0,1-1.60722,5.86052c4.46812,2.20848,7.16834,7.50611,7.16834,13.71305A22.66564,22.66564,0,0,1,239.87324,644.726Z"/>
    </g>
  </g>
  <g>
    <g>
      <g>
        <path class="cls-18" d="M442.56468,601.953c-4.79575.56792-12.41768,5.95157-13.49834,9.87425-1.374,4.98745.51327,9.84456,3.46457,16.23213,2.75441,5.96144,2.55319,16.95745,10.59575,24.2766,6.86143,6.24427,17.44681,5.82979,18.18709-3.54086l-5.5363-11.39531L453.586,618.08066S449.03277,601.187,442.56468,601.953Z"/>
        <path class="cls-19" d="M446.233,599.82534c-4.79576.56792-12.41768,5.95157-13.49834,9.87425-1.374,4.98745-.17637,9.73818,2.77494,16.12575,2.7544,5.96143,2.20275,17.50273,10.85106,24.44681,7.234,5.80851,16.14431,2.74468,14.99538-3.89362l-1.91027-11.10638L457.25432,615.953S452.70113,599.05938,446.233,599.82534Z"/>
        <polygon class="cls-20" points="449.083 600.644 451.056 599.8 468.801 586.676 473.779 603.4 458.375 608.804 457.44 612.676 450.313 611.4 446.812 603.939 449.083 600.644"/>
        <path class="cls-21" d="M445.27476,615.10552s6.70178,3.40064,10.08593,2.10278l1.21326-3.50317-3.196-2.20958c-4.21276-3.15957-5.91161-7.93687-4.29457-10.85184l-2.89282.96889C441.98838,603.58062,445.27476,615.10552,445.27476,615.10552Z"/>
        <path class="cls-18" d="M448.70221,627.42212c1.30811,3.36093,8.7112,3.66393,8.76175.18179l.324-13.65639c.0979-4.88318-13.77943-4.1126-12.46978,1.3991Z"/>
        <path class="cls-19" d="M525.94969,475.48475c3.72085,16.10695,15.48933,75.1491,10.04252,98.12783-4.98588,21.03417-63.14894,29.78723-63.14894,29.78723l-4.04255-16.7234,30.65246-27.59734-22.6346-63.0968Z"/>
        <path class="cls-18" d="M469.40325,685.90133c-3.39085,5.127-6.95744,14.27659-3.89361,19.76595,1.72824,3.09643,8.31526,6.02658,11.64893,8.09575s8.39362,8.45745,20.32979,10.117c10.14063,1.40993,18.40426-4.93617,13.86752-12.79886l-12.58027-9.96463-11.89775-15.34638S473.48171,679.73469,469.40325,685.90133Z"/>
        <path class="cls-19" d="M469.40325,682.029c-3.39085,5.127-5.68238,16.2675-3.19356,19.79421,2.04463,2.89728,7.61521,5.99831,10.94888,8.06749s8.39362,8.45745,20.32979,10.117c10.14063,1.40993,17.94254-5.37186,12.19149-11.65957l-10.90424-11.10393-11.89775-15.34637S473.48171,675.86235,469.40325,682.029Z"/>
        <polygon class="cls-20" points="492.513 645.868 486.829 678.518 486.34 683.825 473.524 684.846 471.576 679.109 473.354 673.953 471.992 646.208 492.513 645.868"/>
        <path class="cls-21" d="M470.91147,682.38586c-.75122,3.03637,7.40662,8.64306,7.40662,8.64306s10.19458,1.48218,10.89368-5.02124l-2.38294-7.4895c-.48852,4.24333-14.23147,4.93092-15.25277.59042Z"/>
        <path class="cls-18" d="M487.394,698.7846c2.90426,2.1383,10.28583-.89391,8.4642-3.862l-6.923-11.93617c-2.53174-4.17675-15.68422,3.81146-11.62715,7.76548Z"/>
        <path class="cls-22" d="M495.65178,508.25087l30.29787-32.766c-1.93471-8.27727-5.09509-15.31164-8.45654-29.0714L446.2316,460.25076c-5.00535,19.65969-6.07158,34.34054-1.3785,54.12777s23.26955,73.53192,23.26955,73.53192c-.61145,22.74683.43545,23.35059,3.45339,57.51074.58638,8.3616,19.99064,7.923,21.0918,1.84986,0,0,9.95706-43.02018,10.30309-67.701S495.65178,508.25087,495.65178,508.25087Z"/>
        <path class="cls-20" d="M519.56668,364.76151c5.17138,9.48071,23.32188,48.566,23.32188,48.566l21.13732.87083,2.11526,12.03124s-18.57446,9.11273-31.85106,4.14893-24.42279-37.244-24.42279-37.244L495.52412,349.57S509.86453,346.9744,519.56668,364.76151Z"/>
        <path class="cls-23" d="M486.50558,350.10248a48.0784,48.0784,0,0,1,12.53371-.60289,5.55026,5.55026,0,0,1,4.58427,3.23253c2.12652,4.642,6.50082,14.14131,10.20117,21.85918,8.42553,21.57447.16748,48.383.16748,48.383l.59848,11.617,9.79944,35.09032c3.94454,15.13175-21.18594,34.399-49.31873,30.5267-24.27866-3.34184-34.45051-12.26307-33.26492-23.10638,0,0,3.87956-18.25532,11.73062-43.2766-6.44519-22.84546-12.95651-43.46721-13.29831-62.3532C452.25735,358.719,471.5722,352.89413,486.50558,350.10248Z"/>
        <path class="cls-20" d="M453.5371,370.41949c-2.03125-2.28882-4.07641-4.27808-6.17285-5.1792a41.95342,41.95342,0,0,0-6.94188,6.03482Z"/>
        <path class="cls-20" d="M494.63051,375.99555c11.73249-4.17021,6.38719-20.234,1.03708-26.6515a46.82683,46.82683,0,0,0-9.162.75854,116.60325,116.60325,0,0,0-28.2594,8.75781C466.76086,371.74517,472.49556,383.86323,494.63051,375.99555Z"/>
        <path class="cls-20" d="M494.63051,375.99555c11.73249-4.17021,6.38719-20.234,1.03708-26.6515a46.82683,46.82683,0,0,0-9.162.75854,140.47687,140.47687,0,0,0-30.77041,9.99146C465.56909,371.11258,472.49556,383.86323,494.63051,375.99555Z"/>
        <path class="cls-20" d="M428.25877,480.29647s7.49457,6.059,8.36934,7.4576a11.64492,11.64492,0,0,1,1.151,5.51922,4.285,4.285,0,0,1-1.31335,2.905l.50467,4.04609a3.29274,3.29274,0,0,1-3.101,3.708,21.45473,21.45473,0,0,1-4.37757-.18483c-1.983-.34629-5.72171-2.57177-8.23612-4.18469a6.69782,6.69782,0,0,1-3.00629-4.63625l-1.16393-10.87021Z"/>
        <path class="cls-20" d="M440.23878,371.47213c-9.39277,10.22555-32.49915,38.35321-35.51436,55.84049-2.2541,13.07308,12.36106,56.74374,12.36106,56.74374l11.17329-3.75989-6.1389-49.06687,30.12766-35.23405C464.28684,379.61187,451.8535,358.82762,440.23878,371.47213Z"/>
      </g>
      <path class="cls-20" d="M572.29477,422.58729l-1.51637,2.05737a3.98153,3.98153,0,0,1-2.70271,1.58722l-3.19513.46475c-2.6621-.09749-3.76692-.25555-4.69455-2.07566l-1.60067-3.14067-3.4131-4.38466a4.95507,4.95507,0,0,1,.51461-6.65246l5.25138-4.94094a4.02651,4.02651,0,0,1,3.65785-.9924l5.80312,1.32873a4.24377,4.24377,0,0,1,3.29467,4.0089l.2269,7.52989A8.357,8.357,0,0,1,572.29477,422.58729Z"/>
    </g>
    <g>
      <path class="cls-24" d="M499.88757,307.36634s3.45423,3.082,3.47485,14.99168c.01481,8.55525,4.31823,14.99479,2.78307,21.62665-2.539,10.96847-15.10062,11.122-21.11964,7.30417Z"/>
      <path class="cls-25" d="M492.45728,353.67084c.18677,3.01183-.58173,5.94-3.89909,7.20423-6.73136,2.56535-17.18612-.561-17.19643-6.19672l2.34805-16.63305,16.73231,1.64772Z"/>
      <path class="cls-20" d="M488.64711,348.43811c-9.60068-.06925-15.71054-4.67427-17.82086-13.44333l-4.53149-18.9659c-2.04177-7.59987,3.57367-16.14329,12.58486-17.74049,7.87567-1.39593,17.158,3.67132,18.70861,12.3951a179.10025,179.10025,0,0,1,2.04155,19.53123C499.90138,338.956,497.57144,348.50248,488.64711,348.43811Z"/>
      <g>
        <path class="cls-26" d="M449.86494,346.36746c.33179-7.709,3.43569-11.37036,4.74781-19.06048.29-1.69856.60076-3.47365.96526-5.27543l-.00187-.00107c1.93972-12.51786,4.71285-20.27486,15.44563-24.25065,16.24576-5.353,27.43914,4.90941,28.86476,9.58674,1.23265,4.04481-2.73893,16.69642-22.21881,19.53279,1.57581,3.5073-.04764,8.03827-3.84382,6.83829a8.65171,8.65171,0,0,1-2.46214,1.96s8.31372,15.97873,1.01584,22.25532C464.25765,364.93664,449.304,359.3969,449.86494,346.36746Z"/>
        <path class="cls-20" d="M472.96768,340.34772c-3.54009.22058-6.82812-4.53671-7.07842-8.55383s3.01719-7.6146,6.172-5.99345C476.02154,327.83552,476.50776,340.12714,472.96768,340.34772Z"/>
      </g>
    </g>
  </g>
</svg>
