<svg id="Layer_1" data-name="Layer 1" xmlns="http://www.w3.org/2000/svg" xmlns:xlink="http://www.w3.org/1999/xlink" viewBox="0 0 1000 1000">
  <defs>
    <style>
      .cls-1 {
        fill: url(#linear-gradient);
      }

      .cls-2 {
        fill: #b8cbd8;
      }

      .cls-3 {
        fill: url(#linear-gradient-2);
      }

      .cls-4 {
        fill: #2a3f5e;
      }

      .cls-35, .cls-39, .cls-4 {
        opacity: 0.2;
      }

      .cls-5 {
        fill: url(#linear-gradient-3);
      }

      .cls-6 {
        fill: url(#linear-gradient-4);
      }

      .cls-7 {
        fill: url(#linear-gradient-5);
      }

      .cls-8 {
        fill: url(#linear-gradient-6);
      }

      .cls-9 {
        fill: url(#linear-gradient-7);
      }

      .cls-10 {
        fill: url(#linear-gradient-8);
      }

      .cls-11 {
        fill: url(#linear-gradient-9);
      }

      .cls-12 {
        fill: #e58630;
      }

      .cls-13 {
        fill: url(#linear-gradient-10);
      }

      .cls-14 {
        fill: #ffcb48;
      }

      .cls-15 {
        fill: url(#linear-gradient-11);
      }

      .cls-16 {
        fill: url(#linear-gradient-12);
      }

      .cls-17 {
        fill: url(#linear-gradient-13);
      }

      .cls-18 {
        fill: #748ca3;
      }

      .cls-19 {
        fill: #586c7f;
      }

      .cls-20 {
        fill: url(#linear-gradient-14);
      }

      .cls-21 {
        fill: url(#linear-gradient-15);
      }

      .cls-22 {
        fill: #d8712b;
      }

      .cls-126, .cls-22, .cls-48, .cls-56 {
        opacity: 0.5;
      }

      .cls-23 {
        fill: url(#linear-gradient-16);
      }

      .cls-24 {
        fill: url(#linear-gradient-17);
      }

      .cls-25 {
        fill: url(#linear-gradient-18);
      }

      .cls-26 {
        fill: url(#linear-gradient-19);
      }

      .cls-27 {
        fill: url(#linear-gradient-20);
      }

      .cls-28 {
        fill: url(#linear-gradient-21);
      }

      .cls-29 {
        fill: #fff;
      }

      .cls-30 {
        fill: url(#linear-gradient-22);
      }

      .cls-31 {
        fill: url(#linear-gradient-23);
      }

      .cls-32 {
        fill: url(#linear-gradient-24);
      }

      .cls-33 {
        fill: url(#linear-gradient-25);
      }

      .cls-34 {
        fill: url(#linear-gradient-26);
      }

      .cls-35 {
        fill: url(#linear-gradient-27);
      }

      .cls-36 {
        fill: url(#linear-gradient-28);
      }

      .cls-37 {
        fill: url(#linear-gradient-29);
      }

      .cls-38 {
        fill: url(#linear-gradient-30);
      }

      .cls-39 {
        fill: url(#linear-gradient-31);
      }

      .cls-40 {
        fill: url(#linear-gradient-32);
      }

      .cls-41 {
        fill: url(#linear-gradient-33);
      }

      .cls-42 {
        fill: #303a45;
      }

      .cls-43 {
        fill: #27343d;
      }

      .cls-44 {
        fill: #e48f7c;
      }

      .cls-45 {
        fill: #ffbda3;
      }

      .cls-46 {
        fill: #303d49;
      }

      .cls-47 {
        fill: url(#linear-gradient-34);
      }

      .cls-48 {
        fill: #dd7b19;
      }

      .cls-49 {
        fill: #e9f1f4;
      }

      .cls-50 {
        fill: url(#linear-gradient-35);
      }

      .cls-51 {
        fill: url(#linear-gradient-36);
      }

      .cls-52 {
        fill: url(#linear-gradient-37);
      }

      .cls-53 {
        fill: url(#linear-gradient-38);
      }

      .cls-54 {
        fill: url(#linear-gradient-39);
      }

      .cls-55 {
        fill: url(#linear-gradient-40);
      }

      .cls-56 {
        fill: #913823;
      }

      .cls-57 {
        fill: url(#linear-gradient-41);
      }

      .cls-58 {
        fill: url(#linear-gradient-42);
      }

      .cls-59 {
        fill: url(#linear-gradient-43);
      }

      .cls-60 {
        fill: url(#linear-gradient-44);
      }

      .cls-61, .cls-62, .cls-86, .cls-87 {
        fill: none;
        stroke-miterlimit: 10;
      }

      .cls-61, .cls-62 {
        stroke-width: 6px;
      }

      .cls-61 {
        stroke: url(#linear-gradient-45);
      }

      .cls-62 {
        stroke: url(#linear-gradient-46);
      }

      .cls-63 {
        fill: url(#linear-gradient-47);
      }

      .cls-64 {
        fill: url(#linear-gradient-48);
      }

      .cls-65 {
        fill: url(#linear-gradient-49);
      }

      .cls-66 {
        fill: url(#linear-gradient-50);
      }

      .cls-127, .cls-67 {
        opacity: 0.6;
      }

      .cls-68 {
        fill: #9bb0c4;
      }

      .cls-69 {
        fill: url(#linear-gradient-51);
      }

      .cls-70 {
        fill: url(#linear-gradient-52);
      }

      .cls-127, .cls-71 {
        fill: #724133;
      }

      .cls-72 {
        fill: url(#linear-gradient-53);
      }

      .cls-73 {
        fill: url(#linear-gradient-54);
      }

      .cls-74 {
        fill: url(#linear-gradient-55);
      }

      .cls-75 {
        fill: url(#linear-gradient-56);
      }

      .cls-76 {
        fill: url(#linear-gradient-57);
      }

      .cls-77 {
        fill: url(#linear-gradient-58);
      }

      .cls-78 {
        fill: url(#linear-gradient-59);
      }

      .cls-79 {
        fill: url(#linear-gradient-60);
      }

      .cls-80 {
        fill: url(#linear-gradient-61);
      }

      .cls-81 {
        fill: url(#linear-gradient-62);
      }

      .cls-82 {
        fill: url(#linear-gradient-63);
      }

      .cls-83 {
        fill: url(#linear-gradient-64);
      }

      .cls-84 {
        fill: url(#linear-gradient-65);
      }

      .cls-85 {
        fill: url(#linear-gradient-66);
      }

      .cls-86, .cls-87 {
        stroke-width: 4.64209px;
      }

      .cls-86 {
        stroke: url(#linear-gradient-67);
      }

      .cls-87 {
        stroke: url(#linear-gradient-68);
      }

      .cls-88 {
        fill: url(#linear-gradient-69);
      }

      .cls-89 {
        fill: url(#linear-gradient-70);
      }

      .cls-90 {
        fill: url(#linear-gradient-71);
      }

      .cls-91 {
        fill: url(#linear-gradient-72);
      }

      .cls-92 {
        fill: url(#linear-gradient-73);
      }

      .cls-93 {
        fill: url(#linear-gradient-74);
      }

      .cls-94 {
        fill: url(#linear-gradient-75);
      }

      .cls-95 {
        fill: url(#linear-gradient-76);
      }

      .cls-96 {
        fill: url(#linear-gradient-77);
      }

      .cls-97 {
        fill: url(#linear-gradient-78);
      }

      .cls-98 {
        fill: url(#linear-gradient-79);
      }

      .cls-99 {
        fill: url(#linear-gradient-80);
      }

      .cls-100 {
        fill: url(#linear-gradient-81);
      }

      .cls-101 {
        fill: url(#linear-gradient-82);
      }

      .cls-102 {
        fill: url(#linear-gradient-83);
      }

      .cls-103 {
        fill: #efefef;
      }

      .cls-104 {
        fill: url(#linear-gradient-84);
      }

      .cls-105 {
        fill: #e2ebf1;
      }

      .cls-106 {
        fill: #d39b71;
      }

      .cls-107 {
        fill: url(#linear-gradient-85);
      }

      .cls-108 {
        fill: url(#linear-gradient-86);
      }

      .cls-109 {
        fill: url(#linear-gradient-87);
      }

      .cls-110 {
        fill: #c4a16c;
      }

      .cls-111 {
        fill: url(#linear-gradient-88);
      }

      .cls-112 {
        fill: #2b8e6f;
      }

      .cls-113 {
        fill: #14684c;
      }

      .cls-114 {
        fill: url(#linear-gradient-89);
      }

      .cls-115 {
        fill: #d15d2f;
      }

      .cls-116 {
        fill: #e2803d;
      }

      .cls-117 {
        fill: url(#linear-gradient-90);
      }

      .cls-118 {
        fill: #f5fafc;
      }

      .cls-119 {
        fill: #f2883c;
      }

      .cls-120 {
        fill: #ef683f;
      }

      .cls-121 {
        fill: #c93535;
      }

      .cls-122 {
        fill: #cfdfe8;
      }

      .cls-123 {
        fill: url(#linear-gradient-91);
      }

      .cls-124 {
        fill: url(#linear-gradient-92);
      }

      .cls-125 {
        fill: url(#linear-gradient-93);
      }

      .cls-126 {
        fill: url(#linear-gradient-94);
      }

      .cls-128 {
        fill: url(#linear-gradient-95);
      }

      .cls-129 {
        fill: url(#linear-gradient-96);
      }

      .cls-130 {
        fill: url(#linear-gradient-97);
      }

      .cls-131 {
        fill: url(#linear-gradient-98);
      }

      .cls-132 {
        fill: url(#linear-gradient-99);
      }

      .cls-133 {
        fill: url(#linear-gradient-100);
      }

      .cls-134 {
        fill: url(#linear-gradient-101);
      }

      .cls-135 {
        fill: url(#linear-gradient-102);
      }

      .cls-136 {
        fill: url(#linear-gradient-103);
      }

      .cls-137 {
        fill: url(#linear-gradient-104);
      }

      .cls-138 {
        fill: url(#linear-gradient-105);
      }

      .cls-139 {
        opacity: 0.4;
        fill: url(#linear-gradient-106);
      }

      .cls-140 {
        fill: url(#linear-gradient-107);
      }

      .cls-141 {
        fill: url(#linear-gradient-108);
      }

      .cls-142 {
        fill: url(#linear-gradient-109);
      }

      .cls-143 {
        fill: url(#linear-gradient-110);
      }

      .cls-144 {
        fill: url(#linear-gradient-111);
      }

      .cls-145 {
        fill: url(#linear-gradient-112);
      }

      .cls-146 {
        fill: url(#linear-gradient-113);
      }

      .cls-147 {
        fill: url(#linear-gradient-114);
      }
    </style>
    <linearGradient id="linear-gradient" x1="521.10776" y1="393.55996" x2="942.39445" y2="393.55996" gradientUnits="userSpaceOnUse">
      <stop offset="0" stop-color="#e4edf2"/>
      <stop offset="1" stop-color="#c3d6e6"/>
    </linearGradient>
    <linearGradient id="linear-gradient-2" x1="99.8373" y1="719.89267" x2="942.39445" y2="719.89267" gradientUnits="userSpaceOnUse">
      <stop offset="0.00663" stop-color="#c4d5e6"/>
      <stop offset="1" stop-color="#dae9f2"/>
    </linearGradient>
    <linearGradient id="linear-gradient-3" x1="-11888.83214" y1="164.96727" x2="-12008.3215" y2="531.86089" gradientTransform="translate(12272.97301)" gradientUnits="userSpaceOnUse">
      <stop offset="0" stop-color="#293440"/>
      <stop offset="1" stop-color="#3e4c59"/>
    </linearGradient>
    <linearGradient id="linear-gradient-4" x1="-12133.81853" y1="395.8933" x2="-11790.47581" y2="395.8933" gradientTransform="translate(12272.97301)" gradientUnits="userSpaceOnUse">
      <stop offset="0" stop-color="#5b6f82"/>
      <stop offset="1" stop-color="#849bb2"/>
    </linearGradient>
    <linearGradient id="linear-gradient-5" x1="-11774.56097" y1="294.20783" x2="-12143.62037" y2="494.2643" gradientTransform="translate(12272.97301)" gradientUnits="userSpaceOnUse">
      <stop offset="0" stop-color="#62778c"/>
      <stop offset="1" stop-color="#435466"/>
    </linearGradient>
    <linearGradient id="linear-gradient-6" x1="-11842.49322" y1="326.94578" x2="-11974.26814" y2="398.37716" xlink:href="#linear-gradient-5"/>
    <linearGradient id="linear-gradient-7" x1="-11953.96203" y1="391.2982" x2="-12085.73694" y2="462.72959" xlink:href="#linear-gradient-5"/>
    <linearGradient id="linear-gradient-8" x1="-12104.77032" y1="490.38976" x2="-12079.72027" y2="490.38976" gradientTransform="translate(12272.97301)" gradientUnits="userSpaceOnUse">
      <stop offset="0" stop-color="#e68e2b"/>
      <stop offset="0.99995" stop-color="#ffcb48"/>
    </linearGradient>
    <linearGradient id="linear-gradient-9" x1="-12120.66022" y1="499.2972" x2="-12095.61017" y2="499.2972" xlink:href="#linear-gradient-8"/>
    <linearGradient id="linear-gradient-10" x1="-12136.55011" y1="508.54287" x2="-12111.49029" y2="508.54287" xlink:href="#linear-gradient-8"/>
    <linearGradient id="linear-gradient-11" x1="-11795.77494" y1="311.61799" x2="-11770.72489" y2="311.61799" xlink:href="#linear-gradient-8"/>
    <linearGradient id="linear-gradient-12" x1="-11811.66483" y1="320.52543" x2="-11786.61478" y2="320.52543" xlink:href="#linear-gradient-8"/>
    <linearGradient id="linear-gradient-13" x1="-11827.55472" y1="329.7711" x2="-11802.49491" y2="329.7711" xlink:href="#linear-gradient-8"/>
    <linearGradient id="linear-gradient-14" x1="-12342.86874" y1="247.796" x2="-11779.04996" y2="247.796" xlink:href="#linear-gradient-4"/>
    <linearGradient id="linear-gradient-15" x1="-8944.90769" y1="722.05214" x2="-8303.98963" y2="670.02598" gradientTransform="matrix(-1, 0, 0, 1, -8225.79467, 0)" gradientUnits="userSpaceOnUse">
      <stop offset="0.00005" stop-color="#ffb348"/>
      <stop offset="1" stop-color="#e68e2b"/>
    </linearGradient>
    <linearGradient id="linear-gradient-16" x1="551.40394" y1="286.2532" x2="551.40394" y2="537.75325" gradientUnits="userSpaceOnUse">
      <stop offset="0" stop-color="#fff"/>
      <stop offset="0.56988" stop-color="#fff" stop-opacity="0"/>
    </linearGradient>
    <linearGradient id="linear-gradient-17" x1="525.25833" y1="518.00015" x2="575.73534" y2="518.00015" gradientTransform="matrix(1, 0, 0, 1, 0, 0)" xlink:href="#linear-gradient-5"/>
    <linearGradient id="linear-gradient-18" x1="525.25832" y1="514.1542" x2="575.73535" y2="514.1542" gradientUnits="userSpaceOnUse">
      <stop offset="0" stop-color="#849bb2"/>
      <stop offset="1" stop-color="#5b6f82"/>
    </linearGradient>
    <linearGradient id="linear-gradient-19" x1="548.55473" y1="296.65104" x2="552.23657" y2="500.37952" gradientTransform="matrix(1, 0, 0, 1, 0, 0)" xlink:href="#linear-gradient-5"/>
    <linearGradient id="linear-gradient-20" x1="516.55388" y1="289.58455" x2="584.43984" y2="289.58455" gradientTransform="matrix(1, 0, 0, 1, 0, 0)" xlink:href="#linear-gradient-5"/>
    <linearGradient id="linear-gradient-21" x1="516.09847" y1="284.60876" x2="584.89524" y2="284.60876" gradientUnits="userSpaceOnUse">
      <stop offset="0.00844" stop-color="#ffc63f"/>
      <stop offset="1" stop-color="#e68a23"/>
    </linearGradient>
    <linearGradient id="linear-gradient-22" x1="543.07911" y1="271.82908" x2="557.91446" y2="271.82908" gradientUnits="userSpaceOnUse">
      <stop offset="0" stop-color="#3e4c59"/>
      <stop offset="1" stop-color="#293440"/>
    </linearGradient>
    <linearGradient id="linear-gradient-23" x1="543.07912" y1="266.10546" x2="557.91454" y2="266.10546" gradientTransform="matrix(1, 0, 0, 1, 0, 0)" xlink:href="#linear-gradient-5"/>
    <linearGradient id="linear-gradient-24" x1="572.851" y1="486.06631" x2="572.851" y2="596.59051" xlink:href="#linear-gradient-18"/>
    <linearGradient id="linear-gradient-25" x1="588.36928" y1="485.30687" x2="585.10747" y2="611.62765" gradientUnits="userSpaceOnUse">
      <stop offset="0" stop-color="#62788c"/>
      <stop offset="1" stop-color="#526575"/>
    </linearGradient>
    <linearGradient id="linear-gradient-26" x1="578.83873" y1="512.8022" x2="674.32063" y2="640.30909" gradientTransform="matrix(1, 0, 0, 1, 0, 0)" xlink:href="#linear-gradient-5"/>
    <linearGradient id="linear-gradient-27" x1="-2507.36677" y1="611.31156" x2="-2404.48692" y2="611.31156" gradientTransform="translate(3040.4478)" xlink:href="#linear-gradient-22"/>
    <linearGradient id="linear-gradient-28" x1="609.3975" y1="430.76454" x2="660.54852" y2="599.3405" gradientTransform="matrix(1, 0, 0, 1, 0, 0)" xlink:href="#linear-gradient-5"/>
    <linearGradient id="linear-gradient-29" x1="681.95293" y1="421.77406" x2="744.22374" y2="573.29969" xlink:href="#linear-gradient-25"/>
    <linearGradient id="linear-gradient-30" x1="658.57919" y1="432.43743" x2="679.0396" y2="568.54362" xlink:href="#linear-gradient-18"/>
    <linearGradient id="linear-gradient-31" x1="600.41963" y1="544.36953" x2="718.58283" y2="544.36953" xlink:href="#linear-gradient-22"/>
    <linearGradient id="linear-gradient-32" x1="688.13412" y1="557.10259" x2="731.72368" y2="654.51192" xlink:href="#linear-gradient-18"/>
    <linearGradient id="linear-gradient-33" x1="662.27344" y1="584.12645" x2="795.71088" y2="661.96496" xlink:href="#linear-gradient-25"/>
    <linearGradient id="linear-gradient-34" x1="605.99862" y1="408.47004" x2="646.32638" y2="535.97693" gradientUnits="userSpaceOnUse">
      <stop offset="0.00005" stop-color="#ffcb48"/>
      <stop offset="1" stop-color="#e68e2b"/>
    </linearGradient>
    <linearGradient id="linear-gradient-35" x1="617.25939" y1="404.90849" x2="657.58715" y2="532.41538" xlink:href="#linear-gradient-34"/>
    <linearGradient id="linear-gradient-36" x1="641.89221" y1="397.11765" x2="682.21997" y2="524.62454" xlink:href="#linear-gradient-34"/>
    <linearGradient id="linear-gradient-37" x1="579.6481" y1="489.25243" x2="645.22476" y2="511.79762" xlink:href="#linear-gradient"/>
    <linearGradient id="linear-gradient-38" x1="577.70889" y1="492.6609" x2="651.92015" y2="492.6609" xlink:href="#linear-gradient-2"/>
    <linearGradient id="linear-gradient-39" x1="576.39023" y1="492.66092" x2="653.01763" y2="492.66092" gradientUnits="userSpaceOnUse">
      <stop offset="0" stop-color="#fff"/>
      <stop offset="0.98888" stop-color="#e6edf2"/>
    </linearGradient>
    <linearGradient id="linear-gradient-40" x1="584.154" y1="481.16036" x2="646.35461" y2="502.54487" gradientUnits="userSpaceOnUse">
      <stop offset="0" stop-color="#f2883c"/>
      <stop offset="0.16716" stop-color="#e97d35"/>
      <stop offset="0.67368" stop-color="#d26124"/>
      <stop offset="0.96784" stop-color="#c9571e"/>
    </linearGradient>
    <linearGradient id="linear-gradient-41" x1="647.30731" y1="395.40496" x2="687.63507" y2="522.91185" xlink:href="#linear-gradient-34"/>
    <linearGradient id="linear-gradient-42" x1="596.66532" y1="453.32458" x2="605.50673" y2="453.32458" xlink:href="#linear-gradient-40"/>
    <linearGradient id="linear-gradient-43" x1="624.99206" y1="370.18311" x2="656.141" y2="428.22567" gradientUnits="userSpaceOnUse">
      <stop offset="0" stop-color="#966551"/>
      <stop offset="1" stop-color="#805345"/>
    </linearGradient>
    <linearGradient id="linear-gradient-44" x1="649.27484" y1="357.1516" x2="680.42377" y2="415.19415" xlink:href="#linear-gradient-43"/>
    <linearGradient id="linear-gradient-45" x1="-8851.10276" y1="672.76624" x2="-8759.44586" y2="714.64234" gradientTransform="translate(9667.65868)" xlink:href="#linear-gradient-22"/>
    <linearGradient id="linear-gradient-46" x1="-8966.34185" y1="618.75938" x2="-8873.8688" y2="661.00837" gradientTransform="translate(9667.65868)" xlink:href="#linear-gradient-22"/>
    <linearGradient id="linear-gradient-47" x1="-9039.88222" y1="544.86831" x2="-8749.05386" y2="677.74163" gradientTransform="translate(9667.65868)" xlink:href="#linear-gradient-22"/>
    <linearGradient id="linear-gradient-48" x1="-8950.90865" y1="596.39181" x2="-8787.79355" y2="670.91565" gradientTransform="translate(9667.65868)" xlink:href="#linear-gradient-22"/>
    <linearGradient id="linear-gradient-49" x1="-8962.53026" y1="639.50211" x2="-8757.46718" y2="639.50211" gradientTransform="translate(9667.65868)" gradientUnits="userSpaceOnUse">
      <stop offset="0" stop-color="#526575"/>
      <stop offset="1" stop-color="#62788c"/>
    </linearGradient>
    <linearGradient id="linear-gradient-50" x1="-8962.53025" y1="610.84873" x2="-8757.46719" y2="610.84873" gradientTransform="translate(9667.65868)" gradientUnits="userSpaceOnUse">
      <stop offset="0" stop-color="#96b1cc"/>
      <stop offset="1" stop-color="#748ea6"/>
    </linearGradient>
    <linearGradient id="linear-gradient-51" x1="130.27616" y1="716.7494" x2="189.55813" y2="716.7494" xlink:href="#linear-gradient-22"/>
    <linearGradient id="linear-gradient-52" x1="134.47034" y1="660.64106" x2="193.87459" y2="717.83255" xlink:href="#linear-gradient-34"/>
    <linearGradient id="linear-gradient-53" x1="-14076.79823" y1="3031.54212" x2="-14044.10244" y2="3045.12804" gradientTransform="matrix(-0.94085, 0.33882, 0.33882, 0.94085, -14078.86454, 2439.72268)" xlink:href="#linear-gradient-40"/>
    <linearGradient id="linear-gradient-54" x1="84.10186" y1="-2257.61791" x2="59.46804" y2="-2241.94184" gradientTransform="translate(-708.99986 2643.24064) rotate(21.53204)" xlink:href="#linear-gradient-40"/>
    <linearGradient id="linear-gradient-55" x1="212.7838" y1="537.33471" x2="171.42884" y2="574.50938" xlink:href="#linear-gradient-40"/>
    <linearGradient id="linear-gradient-56" x1="-520.26107" y1="2555.99628" x2="-553.92386" y2="2577.41806" gradientTransform="translate(-25.62274 -2044.38706) rotate(-16.16083)" xlink:href="#linear-gradient-40"/>
    <linearGradient id="linear-gradient-57" x1="137.04295" y1="509.91049" x2="157.34718" y2="548.87671" xlink:href="#linear-gradient-40"/>
    <linearGradient id="linear-gradient-58" x1="-799.84512" y1="3172.85101" x2="-776.33296" y2="3217.97361" gradientTransform="translate(-293.06151 -2701.9163) rotate(-21.26361)" xlink:href="#linear-gradient-40"/>
    <linearGradient id="linear-gradient-59" x1="-289.71667" y1="-3280.58466" x2="-257.02087" y2="-3266.99874" gradientTransform="matrix(0.87147, 0.49044, -0.49044, 0.87147, -1231.59897, 3531.3606)" xlink:href="#linear-gradient-40"/>
    <linearGradient id="linear-gradient-60" x1="-218.97445" y1="1144.65985" x2="-240.34267" y2="1182.01345" gradientTransform="matrix(1.03159, -0.09458, 0.10022, 1.01436, 292.34276, -682.56482)" xlink:href="#linear-gradient-40"/>
    <linearGradient id="linear-gradient-61" x1="-1905.13485" y1="4696.46793" x2="-1935.44608" y2="4715.7569" gradientTransform="translate(-1040.62336 -4390.39159) rotate(-35.91139)" xlink:href="#linear-gradient-40"/>
    <linearGradient id="linear-gradient-62" x1="-14585.62944" y1="-1949.04069" x2="-14613.54127" y2="-1931.27861" gradientTransform="matrix(-0.94244, -0.33439, -0.33439, 0.94244, -14256.27296, -2490.15898)" xlink:href="#linear-gradient-40"/>
    <linearGradient id="linear-gradient-63" x1="-4775.79092" y1="698.02982" x2="-4772.10928" y2="698.02982" gradientTransform="matrix(-0.04492, -0.99899, -0.99899, 0.04492, 671.581, -4102.45708)" xlink:href="#linear-gradient-22"/>
    <linearGradient id="linear-gradient-64" x1="129.21036" y1="698.02982" x2="132.892" y2="698.02982" gradientTransform="translate(31.40537 -5.17054) rotate(2.56788)" xlink:href="#linear-gradient-22"/>
    <linearGradient id="linear-gradient-65" x1="158.9213" y1="714.12455" x2="160.9213" y2="714.12455" xlink:href="#linear-gradient-22"/>
    <linearGradient id="linear-gradient-66" x1="128.59146" y1="683.3007" x2="191.2515" y2="683.3007" xlink:href="#linear-gradient-22"/>
    <linearGradient id="linear-gradient-67" x1="452.12282" y1="847.12565" x2="514.23058" y2="875.50137" xlink:href="#linear-gradient-22"/>
    <linearGradient id="linear-gradient-68" x1="188.7606" y1="698.23774" x2="250.86836" y2="726.61347" xlink:href="#linear-gradient-22"/>
    <linearGradient id="linear-gradient-69" x1="-1876.98048" y1="4291.71735" x2="-1539.96206" y2="4291.71735" gradientTransform="matrix(0.5, 0.86603, 0.86603, -0.5, -2492.00782, 4377.20748)" xlink:href="#linear-gradient-50"/>
    <linearGradient id="linear-gradient-70" x1="172.27239" y1="678.00466" x2="235.41093" y2="733.58292" gradientUnits="userSpaceOnUse">
      <stop offset="0" stop-color="#435466"/>
      <stop offset="1" stop-color="#62778c"/>
    </linearGradient>
    <linearGradient id="linear-gradient-71" x1="223.2275" y1="708.92412" x2="317.99697" y2="792.34579" gradientTransform="matrix(1, 0, 0, 1, 0, 0)" xlink:href="#linear-gradient-5"/>
    <linearGradient id="linear-gradient-72" x1="265.64423" y1="766.56762" x2="500.71158" y2="869.6812" xlink:href="#linear-gradient-18"/>
    <linearGradient id="linear-gradient-73" x1="163.51165" y1="707.85595" x2="479.54421" y2="852.24454" xlink:href="#linear-gradient-25"/>
    <linearGradient id="linear-gradient-74" x1="324.63479" y1="691.24041" x2="387.87509" y2="755.52027" xlink:href="#linear-gradient-22"/>
    <linearGradient id="linear-gradient-75" x1="329.41317" y1="682.58904" x2="375.32736" y2="743.40368" gradientTransform="matrix(1, 0, 0, 1, 0, 0)" xlink:href="#linear-gradient-5"/>
    <linearGradient id="linear-gradient-76" x1="303.70163" y1="486.63939" x2="478.86859" y2="726.25947" gradientUnits="userSpaceOnUse">
      <stop offset="0" stop-color="#596c80"/>
      <stop offset="0.99886" stop-color="#3a4959"/>
    </linearGradient>
    <linearGradient id="linear-gradient-77" x1="263.6491" y1="521.36596" x2="457.00847" y2="766.18387" gradientUnits="userSpaceOnUse">
      <stop offset="0" stop-color="#3e4c59"/>
      <stop offset="1" stop-color="#313e4d"/>
    </linearGradient>
    <linearGradient id="linear-gradient-78" x1="169.61686" y1="517.01391" x2="433.14697" y2="729.60526" gradientTransform="matrix(1, 0, 0, 1, 0, 0)" xlink:href="#linear-gradient-5"/>
    <linearGradient id="linear-gradient-79" x1="151.5461" y1="486.05731" x2="419.75426" y2="719.43999" gradientUnits="userSpaceOnUse">
      <stop offset="0" stop-color="#596c80"/>
      <stop offset="0.99886" stop-color="#323f4d"/>
    </linearGradient>
    <linearGradient id="linear-gradient-80" x1="337.02646" y1="668.78607" x2="367.17389" y2="715.91308" gradientTransform="matrix(1, 0, 0, 1, 0, 0)" xlink:href="#linear-gradient-5"/>
    <linearGradient id="linear-gradient-81" x1="349.09836" y1="694.64802" x2="365.55816" y2="732.24567" xlink:href="#linear-gradient-25"/>
    <linearGradient id="linear-gradient-82" x1="338.08073" y1="679.80869" x2="358.17902" y2="736.11855" gradientTransform="matrix(1, 0, 0, 1, 0, 0)" xlink:href="#linear-gradient-50"/>
    <linearGradient id="linear-gradient-83" x1="329.49802" y1="682.87206" x2="349.5963" y2="739.18191" gradientTransform="matrix(1, 0, 0, 1, 0, 0)" xlink:href="#linear-gradient-50"/>
    <linearGradient id="linear-gradient-84" x1="729.12193" y1="585.91513" x2="754.6685" y2="585.91513" xlink:href="#linear-gradient-22"/>
    <linearGradient id="linear-gradient-85" x1="739.20656" y1="528.34229" x2="739.20656" y2="584.95234" gradientUnits="userSpaceOnUse">
      <stop offset="0" stop-color="#fff" stop-opacity="0"/>
      <stop offset="0.98888" stop-color="#fff"/>
    </linearGradient>
    <linearGradient id="linear-gradient-86" x1="758.56062" y1="526.63572" x2="789.15916" y2="585.51152" gradientUnits="userSpaceOnUse">
      <stop offset="0" stop-color="#2b8e6f"/>
      <stop offset="1" stop-color="#1b5959"/>
    </linearGradient>
    <linearGradient id="linear-gradient-87" x1="768.33821" y1="530.76916" x2="786.22701" y2="548.06562" gradientUnits="userSpaceOnUse">
      <stop offset="0" stop-color="#38af87"/>
      <stop offset="1" stop-color="#2b8e6f"/>
    </linearGradient>
    <linearGradient id="linear-gradient-88" x1="772.66302" y1="510.51461" x2="785.32656" y2="535.56935" xlink:href="#linear-gradient-86"/>
    <linearGradient id="linear-gradient-89" x1="10368.61244" y1="610.04348" x2="10507.46642" y2="610.04348" gradientTransform="translate(-9616.62478)" xlink:href="#linear-gradient"/>
    <linearGradient id="linear-gradient-90" x1="809.77902" y1="502.05919" x2="864.1637" y2="623.9285" xlink:href="#linear-gradient-39"/>
    <linearGradient id="linear-gradient-91" x1="63.72042" y1="518.64525" x2="371.29177" y2="518.64525" gradientTransform="matrix(1, 0, 0, 1, 0, 0)" xlink:href="#linear-gradient-50"/>
    <linearGradient id="linear-gradient-92" x1="275.39115" y1="119.61862" x2="303.23192" y2="482.16735" gradientUnits="userSpaceOnUse">
      <stop offset="0" stop-color="#db7b36"/>
      <stop offset="0.30805" stop-color="#c6622b"/>
      <stop offset="0.72536" stop-color="#af461e"/>
      <stop offset="0.96784" stop-color="#a63c19"/>
    </linearGradient>
    <linearGradient id="linear-gradient-93" x1="267.74814" y1="290.52999" x2="322.811" y2="431.5899" gradientUnits="userSpaceOnUse">
      <stop offset="0" stop-color="#f2b055"/>
      <stop offset="0.21424" stop-color="#eba646"/>
      <stop offset="0.69095" stop-color="#de932a"/>
      <stop offset="0.96784" stop-color="#d98c20"/>
    </linearGradient>
    <linearGradient id="linear-gradient-94" x1="266.76653" y1="213.72114" x2="317.4986" y2="279.30163" xlink:href="#linear-gradient-93"/>
    <linearGradient id="linear-gradient-95" x1="277.40633" y1="88.24535" x2="311.10425" y2="120.82744" xlink:href="#linear-gradient-93"/>
    <linearGradient id="linear-gradient-96" x1="69.14082" y1="458.12231" x2="263.14297" y2="458.12231" gradientTransform="matrix(1, 0, 0, 1, 0, 0)" xlink:href="#linear-gradient-50"/>
    <linearGradient id="linear-gradient-97" x1="51.31063" y1="440.63614" x2="280.97316" y2="440.63614" xlink:href="#linear-gradient-39"/>
    <linearGradient id="linear-gradient-98" x1="59.78841" y1="347.19415" x2="60.71644" y2="379.98439" xlink:href="#linear-gradient-93"/>
    <linearGradient id="linear-gradient-99" x1="143.66403" y1="359.69523" x2="138.32788" y2="387.53601" xlink:href="#linear-gradient-39"/>
    <linearGradient id="linear-gradient-100" x1="-248.22444" y1="-278.23232" x2="-227.25737" y2="-278.23232" gradientTransform="translate(-91.97238 621.13206) rotate(90)" xlink:href="#linear-gradient-39"/>
    <linearGradient id="linear-gradient-101" x1="193.21429" y1="367.19168" x2="187.80081" y2="398.58988" gradientTransform="matrix(1, 0, 0, 1, 0, 0)" xlink:href="#linear-gradient-50"/>
    <linearGradient id="linear-gradient-102" x1="-229.5556" y1="-278.23232" x2="-208.58853" y2="-278.23232" gradientTransform="translate(-73.57804 605.65285) rotate(90)" xlink:href="#linear-gradient-5"/>
    <linearGradient id="linear-gradient-103" x1="194.14742" y1="171.40715" x2="194.14742" y2="376.1058" xlink:href="#linear-gradient-85"/>
    <linearGradient id="linear-gradient-104" x1="665.56801" y1="327.43409" x2="742.88708" y2="327.43409" gradientTransform="translate(-18.64021 -32.28579)" xlink:href="#linear-gradient-70"/>
    <linearGradient id="linear-gradient-105" x1="675.98821" y1="323.45084" x2="739.57217" y2="323.45084" gradientTransform="translate(-18.64021 -32.28579)" xlink:href="#linear-gradient-39"/>
    <linearGradient id="linear-gradient-106" x1="685.1005" y1="325.37627" x2="728.20596" y2="325.37627" gradientTransform="translate(-18.64021 -32.28579)" xlink:href="#linear-gradient-5"/>
    <linearGradient id="linear-gradient-107" x1="665.568" y1="327.43408" x2="742.88709" y2="327.43408" gradientTransform="translate(-18.64021 -32.28579)" xlink:href="#linear-gradient-18"/>
    <linearGradient id="linear-gradient-108" x1="682.53343" y1="248.78749" x2="762.0333" y2="353.86558" gradientTransform="translate(-18.64021 -32.28579)" xlink:href="#linear-gradient-5"/>
    <linearGradient id="linear-gradient-109" x1="651.07097" y1="223.83229" x2="768.95512" y2="379.64439" gradientTransform="translate(-18.64021 -32.28579)" xlink:href="#linear-gradient-5"/>
    <linearGradient id="linear-gradient-110" x1="765.61155" y1="316.64973" x2="739.93138" y2="256.42897" gradientTransform="translate(3.46411 6.00002)" xlink:href="#linear-gradient-70"/>
    <linearGradient id="linear-gradient-111" x1="699.0781" y1="221.59058" x2="738.41335" y2="221.59058" gradientTransform="translate(47.76727 82.73534)" xlink:href="#linear-gradient-39"/>
    <linearGradient id="linear-gradient-112" x1="688.65789" y1="225.57383" x2="741.72827" y2="225.57383" gradientTransform="translate(47.76727 82.73534)" xlink:href="#linear-gradient-18"/>
    <linearGradient id="linear-gradient-113" x1="700.99415" y1="172.83391" x2="755.78959" y2="245.25919" gradientTransform="translate(47.76727 82.73534)" xlink:href="#linear-gradient-5"/>
    <linearGradient id="linear-gradient-114" x1="682.83568" y1="158.48836" x2="759.53649" y2="259.86682" gradientTransform="translate(47.76727 82.73534)" xlink:href="#linear-gradient-5"/>
  </defs>
  <g>
    <g>
      <polygon class="cls-1" points="521.108 67.227 942.394 310.448 942.394 719.893 521.108 476.649 521.108 67.227"/>
      <polygon class="cls-2" points="521.124 67.227 99.837 310.448 99.837 719.893 521.124 476.649 521.124 67.227"/>
    </g>
    <path class="cls-3" d="M107.10708,732.49667l392.21059,226.4329a43.6172,43.6172,0,0,0,43.61687-.00063L935.125,732.49244a14.53906,14.53906,0,0,0,.00017-25.18216L542.91755,480.8567a43.61721,43.61721,0,0,0-43.61994.00054L107.10623,707.31448A14.53906,14.53906,0,0,0,107.10708,732.49667Z"/>
    <path class="cls-4" d="M919.46262,707.73647,807.59512,643.0629a17.199,17.199,0,0,0-17.19911-.001l-90.03292,51.9738a5.733,5.733,0,0,0-.00141,9.92934l111.83721,64.7037a17.199,17.199,0,0,0,17.20334.0014l90.06039-52.00416A5.733,5.733,0,0,0,919.46262,707.73647Z"/>
    <path class="cls-4" d="M610.03933,526.613,485.626,598.43362a8.67977,8.67977,0,0,0-.00206,15.033l169.32168,97.96152a26.03939,26.03939,0,0,0,26.0459.00212l124.56525-71.92877Z"/>
  </g>
  <g>
    <g>
      <path class="cls-5" d="M486.33867,453.50447,142.9896,651.73406l-11.46524-6.61724V338.29271L474.87343,140.05162l11.46524-2.15873Z"/>
      <polygon class="cls-6" points="482.497 143.363 478.556 145.638 478.561 448.074 139.154 644.018 139.155 648.423 482.497 450.204 482.497 143.363"/>
      <path class="cls-7" d="M127.66649,334.96926v333.352L493.98545,456.837V123.46445Zm11.48824,6.6326L482.4972,143.36315l0,306.84091L139.15473,648.42345Z"/>
    </g>
    <polygon class="cls-8" points="367.092 512.426 362.092 515.313 362.092 212.897 367.092 210.01 367.092 512.426"/>
    <polygon class="cls-9" points="255.624 576.779 250.624 579.665 250.624 277.249 255.624 274.363 255.624 576.779"/>
    <g>
      <g>
        <path class="cls-10" d="M193.25274,336.99055V645.40526a2.17525,2.17525,0,0,1-2.68994,2.1l-13.19995-3.28-7.76-1.93005a.335.335,0,0,0-.32007.06l-1.08008-.32V333.20566l23.31006,5.9249Z"/>
        <path class="cls-11" d="M177.36285,346.11054V654.73521a2.005,2.005,0,0,1-.36011,1.04,2.13014,2.13014,0,0,1-2.32007.9l-20.97-5.21a.35593.35593,0,0,0-.40991.16.3682.3682,0,0,0-.02.4l-.97-.26V341.85053l23.31006,5.5Z"/>
        <polygon class="cls-12" points="151.454 343.418 151.454 354.7 159.489 356.36 160.34 355.083 151.454 343.418"/>
        <path class="cls-13" d="M161.48272,355.43055V663.90526a2.23852,2.23852,0,0,1-.35986,1.04,2.13721,2.13721,0,0,1-1.79.97,2.003,2.003,0,0,1-.54-.06995l-21.68994-5.4a.88432.88432,0,0,1-.67993-.86V351.17054l23.30981,5.5Z"/>
        <polygon class="cls-12" points="167.338 334.247 167.338 345.529 175.372 347.189 176.223 345.912 167.338 334.247"/>
        <polygon class="cls-12" points="182.521 324.558 182.521 335.841 191.407 338.137 192.372 336.94 182.521 324.558"/>
        <path class="cls-14" d="M159.33154,357.51437a2.23463,2.23463,0,0,1-.53634-.06611l-21.69443-5.404a.88879.88879,0,1,1,.42907-1.725l21.69444,5.404a.38827.38827,0,0,0,.40537-.6093l-7.74139-10.37632a2.1656,2.1656,0,0,1,2.25825-3.397l20.96092,5.21279a.38816.38816,0,0,0,.40475-.6093l-7.74139-10.37632a2.16579,2.16579,0,0,1,2.25887-3.397l20.9603,5.21279a.38822.38822,0,0,0,.40537-.609l-8.6979-11.649a.88858.88858,0,1,1,1.42442-1.0627l8.6979,11.64868a2.16588,2.16588,0,0,1-2.25886,3.397l-20.9603-5.2128a.38837.38837,0,0,0-.40538.60931l7.74139,10.37631a2.16567,2.16567,0,0,1-2.25824,3.397l-20.96093-5.21279a.36406.36406,0,0,0-.41722.16153.36863.36863,0,0,0,.01247.44778l7.74139,10.37631a2.16761,2.16761,0,0,1-1.72253,3.46314Z"/>
      </g>
      <g>
        <path class="cls-15" d="M502.24813,158.21878V466.63349a2.17527,2.17527,0,0,1-2.68994,2.1l-13.2-3.28-7.76-1.93a.335.335,0,0,0-.32006.06l-1.08008-.32V154.43389l23.31006,5.9249Z"/>
        <path class="cls-16" d="M486.35823,167.33877V475.96344a2.005,2.005,0,0,1-.3601,1.04,2.13015,2.13015,0,0,1-2.32007.9l-20.97-5.21a.35592.35592,0,0,0-.40991.16.3682.3682,0,0,0-.02.4l-.97-.26V163.07876l23.31,5.5Z"/>
        <polygon class="cls-12" points="460.45 164.646 460.45 175.929 468.484 177.588 469.335 176.312 460.45 164.646"/>
        <path class="cls-17" d="M470.47811,176.65878V485.13349a2.23854,2.23854,0,0,1-.35987,1.04,2.13718,2.13718,0,0,1-1.79.97,2.00289,2.00289,0,0,1-.54-.07l-21.68995-5.4a.88433.88433,0,0,1-.67993-.86V172.39877l23.30982,5.5Z"/>
        <polygon class="cls-12" points="476.333 155.475 476.333 166.758 484.368 168.417 485.219 167.141 476.333 155.475"/>
        <polygon class="cls-12" points="491.516 145.787 491.516 157.069 500.402 159.365 501.367 158.168 491.516 145.787"/>
        <path class="cls-14" d="M468.32693,178.7426a2.23457,2.23457,0,0,1-.53634-.06611l-21.69444-5.404a.88879.88879,0,1,1,.42908-1.725l21.69443,5.404a.38828.38828,0,0,0,.40538-.6093l-7.74139-10.37632a2.16559,2.16559,0,0,1,2.25824-3.397l20.96093,5.21279a.38816.38816,0,0,0,.40475-.6093L476.76618,156.796a2.16578,2.16578,0,0,1,2.25887-3.397l20.9603,5.21279a.38823.38823,0,0,0,.40537-.609l-8.6979-11.649a.88858.88858,0,0,1,1.42442-1.0627l8.6979,11.64868a2.16588,2.16588,0,0,1-2.25886,3.397L478.596,155.124a.38837.38837,0,0,0-.40538.60931L485.932,166.1096a2.16568,2.16568,0,0,1-2.25824,3.397l-20.96093-5.21279a.36406.36406,0,0,0-.41722.16153.36863.36863,0,0,0,.01247.44778l7.74139,10.37631a2.16761,2.16761,0,0,1-1.72253,3.46314Z"/>
      </g>
    </g>
    <g>
      <path class="cls-18" d="M490.00049,140.03767v6.03443l-14.83479,8.56338v-6.91923a3.36189,3.36189,0,0,1,1.68117-2.91161l10.70616-6.18013A1.63171,1.63171,0,0,1,490.00049,140.03767Z"/>
      <path class="cls-19" d="M147.59624,337.9894v6.03443l-14.83479,8.56337V345.668a3.36191,3.36191,0,0,1,1.68117-2.91162l10.70616-6.18012A1.63171,1.63171,0,0,1,147.59624,337.9894Z"/>
      <path class="cls-20" d="M497.736,146.582,135.1098,355.98711l-3.92587-6.79981L493.82334,139.77461l.00179.0031a1.97737,1.97737,0,0,1,1.95074.20783,6.13759,6.13759,0,0,1,2.78518,4.8041A1.9263,1.9263,0,0,1,497.736,146.582Z"/>
      <ellipse class="cls-19" cx="133.14686" cy="352.5872" rx="2.26305" ry="3.92587" transform="translate(-158.4553 113.81116) rotate(-30)"/>
    </g>
  </g>
  <g>
    <path class="cls-21" d="M716.0898,742.86568,462.67421,596.53423a25.90818,25.90818,0,0,0-25.90836-.00157L335.70337,654.87355a8.636,8.636,0,0,0-.00212,14.95734L589.08073,816.19666a25.90817,25.90817,0,0,0,25.91473.00212L716.0898,757.8232A8.636,8.636,0,0,0,716.0898,742.86568Z"/>
    <path class="cls-12" d="M664.00553,733.6349,478.663,626.61132a14.57562,14.57562,0,0,0-14.5757-.00088l-76.3,44.04614a4.85853,4.85853,0,0,0-.0012,8.4148L573.10294,786.12049a14.57556,14.57556,0,0,0,14.57928.00119l76.32331-44.07187A4.85853,4.85853,0,0,0,664.00553,733.6349Z"/>
    <path class="cls-22" d="M544.10355,643.55442c-19.43946,6.36407-32.55762,18.37317-32.55762,32.15051,0,20.42627,28.8125,36.98505,64.354,36.98505,23.86426,0,44.67871-7.471,55.79053-18.55963Z"/>
  </g>
  <g>
    <polygon class="cls-23" points="516.63 290.204 436.763 535.599 666.045 535.599 583.527 288.654 516.63 290.204"/>
    <g>
      <g>
        <path class="cls-24" d="M575.03515,514.648c-2.62967-6.41617-12.6044-11.19641-24.53837-11.19641s-21.9087,4.78024-24.53826,11.19641h-.70019v3.35219c0,8.035,11.2996,14.5486,25.23845,14.5486s25.23856-6.51362,25.23856-14.5486V514.648Z"/>
        <ellipse class="cls-25" cx="550.49683" cy="514.1542" rx="25.23852" ry="14.54865"/>
      </g>
      <path class="cls-26" d="M547.18982,297.08152V511.13607c0,1.05283,1.48059,1.90631,3.307,1.90631s3.307-.85348,3.307-1.90631V297.08152Z"/>
      <path class="cls-27" d="M516.55388,264.27326V295.3884c0,10.77367,15.19672,19.50744,33.943,19.50744s33.943-8.73377,33.943-19.50744V264.27326Z"/>
      <path class="cls-28" d="M516.09847,258.95787v31.5326c0,10.91823,15.40062,19.76918,34.39839,19.76918s34.39838-8.851,34.39838-19.76918v-31.5326Z"/>
      <g>
        <ellipse class="cls-29" cx="550.49683" cy="258.95797" rx="34.3984" ry="19.76919"/>
        <path class="cls-30" d="M543.07911,276.72326a33.58124,33.58124,0,0,0,14.83535,0V266.10541H543.07911Z"/>
        <ellipse class="cls-31" cx="550.49683" cy="266.10546" rx="7.41771" ry="4.27591"/>
        <path class="cls-14" d="M550.49682,240.88422c18.03246,0,32.70278,8.10781,32.70278,18.0737s-14.67032,18.07384-32.70278,18.07384-32.70278-8.108-32.70278-18.07384,14.67032-18.0737,32.70278-18.0737m0-1.69547c-18.99762,0-34.39839,8.851-34.39839,19.76917,0,10.91832,15.40077,19.76931,34.39839,19.76931s34.39839-8.851,34.39839-19.76931c0-10.91818-15.40077-19.76917-34.39839-19.76917Z"/>
      </g>
    </g>
  </g>
  <g>
    <g>
      <path class="cls-32" d="M494.69505,528.76757v70.462a8.813,8.813,0,0,0,4.43984,7.65865l15.1055,8.63747,3.31976,1.90712a1.1016,1.1016,0,0,0,.15132.08074,9.927,9.927,0,0,0,5.126,1.231V544.86192a19.12937,19.12937,0,0,1,9.57587-16.56858l118.59363-68.232L631.0359,448.64424a16.43216,16.43216,0,0,0-16.35.02252L504.26088,512.199A19.10785,19.10785,0,0,0,494.69505,528.76757Z"/>
      <path class="cls-33" d="M522.83746,544.86192v73.88259a9.99019,9.99019,0,0,0,5.11589-1.58422l1.71539-1.09983L651.007,538.08108V460.06135l-118.59363,68.232A19.12937,19.12937,0,0,0,522.83746,544.86192Z"/>
    </g>
    <path class="cls-34" d="M533.06087,613.87061l118.6866,68.24962,118.15969-76.36487L722.86527,578.6119l-71.73549-41.33822L537.01632,550.64359a18.36977,18.36977,0,0,0-1.32185,1.98779,19.47766,19.47766,0,0,0-2.61346,9.75756Z"/>
    <polygon class="cls-35" points="533.081 585.649 635.961 644.896 635.961 636.974 533.081 577.727 533.081 585.649"/>
    <path class="cls-36" d="M535.69447,552.63138,651.77771,619.66l71.08756-41.04813,35.80112-20.67542L639.87885,489.4548l-95.21391,54.98311-1.85668,1.06959-.0101.0101a19.3493,19.3493,0,0,0-5.78184,5.126A18.36977,18.36977,0,0,0,535.69447,552.63138Z"/>
    <path class="cls-37" d="M625.00682,423.42671l.61434-.7029a27.71564,27.71564,0,0,1,17.59315-9.28321l13.75015-1.63674a17.28246,17.28246,0,0,1,10.55074,2.118l80.81131,46.53227a31.70965,31.70965,0,0,1,14.96915,34.93434L742.9096,579.26657Z"/>
    <path class="cls-38" d="M716.38769,582.35428l20.38607-83.87812a31.70959,31.70959,0,0,0-14.96916-34.93434L646.522,420.12736a17.39387,17.39387,0,0,0-25.59777,10.96849l-20.50461,84.36722Z"/>
    <polygon class="cls-39" points="716.388 582.354 600.42 515.463 602.62 506.385 718.583 573.297 716.388 582.354"/>
    <path class="cls-40" d="M636.0769,611.295v70.4821a8.8071,8.8071,0,0,0,4.41964,7.63851l.52473.29266,16.10445,9.21257c.01.0101.02014.0101.03024.0202a14.29714,14.29714,0,0,0,7.06335,1.85668V627.38939a19.14177,19.14177,0,0,1,9.57587-16.56864l116.959-67.28343a12.21092,12.21092,0,0,0-4.3995-4.50032.00987.00987,0,0,0-.01-.0101L779.38215,534.91l-22.50179-13.29927-2.563,10.595-108.6746,62.52074A19.10787,19.10787,0,0,0,636.0769,611.295Z"/>
    <path class="cls-41" d="M664.21931,627.38939v73.40836a14.15967,14.15967,0,0,0,6.9927-1.84658l13.31947-7.65871L785.0429,633.46382a14.68791,14.68791,0,0,0,7.34592-12.714V549.68246a12.40493,12.40493,0,0,0-1.63466-6.14514l-116.959,67.28343A19.14177,19.14177,0,0,0,664.21931,627.38939Z"/>
    <path class="cls-42" d="M797.54919,552.74971l-5.16029-2.96113v4.56906l-106.16306,61.0738a20.57138,20.57138,0,0,0-10.26294,17.75888v63.0493c0,.96372,1.35517,1.745,3.02714,1.745,1.67174,0,3.02715-.7813,3.02715-1.745v-63.0493a14.49692,14.49692,0,0,1,7.23185-12.5136l103.13986-59.334,5.16325-2.97031A3.24235,3.24235,0,0,0,797.54919,552.74971Z"/>
    <g>
      <g>
        <g>
          <g>
            <path class="cls-43" d="M591.14744,626.31508s6.86542,14.15283,4.46834,18.3513-7.5581,4.49215-14.16794,7.084-12.18639,6.58385-23.45989,5.336-11.59823-8.30029-8.37082-13.13747l7.15073-.29447,9.5-4.048,10.77041-9.87877Z"/>
            <path class="cls-44" d="M589.38051,622.94161s8.23784,14.6394,5.91181,18.71344-7.33409,4.359-13.748,6.874-11.8252,6.38871-22.76456,5.17783-12.72138-10.48956-5.35637-12.23038l4.17244-.80345,8.13622-5.70685,8.77615-9.65361Z"/>
            <path class="cls-43" d="M552.41555,641.81075c6.92126-.71532,13.55253,2.0082,15.71784,12.37321l12.65284-4.06633c-.2827-10.86625-10.63935-18.596-15.516-16.23871Z"/>
          </g>
          <polygon class="cls-44" points="558.1 589.322 574.508 625.313 589.68 623.349 576.81 583.001 558.1 589.322"/>
          <path class="cls-43" d="M625.8324,556.91477l-10.55577-50.39591s-49.42877,13.43628-64.66561,20.618c-12.14121,5.72261-15.43942,19.49075-9.96911,32.05068l18,35.36092c4.48529,8.419,26.98966-2.12725,26.39687-8.70052l-3.54008-20.549Z"/>
          <g>
            <path class="cls-43" d="M595.70587,665.83491s.80249,8.11744-.04817,11.96454c-1.07493,4.86143-2.47467,7.36683-2.846,10.58131-.99913,8.649-4.1111,14.893-10.76242,17.94593-13.52784,6.20931-20.23659-3.468-17.28572-10.31414l5.27082-8.53656,9.82228-22.91626C584.646,659.292,595.24245,660.507,595.70587,665.83491Z"/>
            <path class="cls-45" d="M595.18562,659.34333s.89255,13.06718-.02086,16.90208c-1.1447,4.806-2.9066,8.69952-3.70924,11.89868s-1.26087,10.26707-7.922,13.87087c-13.10064,7.08765-22.26215-1.45383-17.54777-8.78446l4.46315-9.53387,10.21524-24.21707Z"/>
            <path class="cls-43" d="M567.12905,690.78818c5.96645-4.27863,16.18538-2.59743,23.16168,5.82517l2.14606-9.73189c-2.44426-10.38207-16.81408-12.05752-20.58413-6.45993Z"/>
          </g>
          <polygon class="cls-45" points="581.785 617.96 580.664 659.48 595.186 659.343 605.426 621.273 581.785 617.96"/>
          <path class="cls-46" d="M678.982,509.803l-57.93978-8.93816-10.412,8.63934,8.13788,31.27947L590.72675,565.899c-6.49914,5.36653-10.36577,15.57442-10.82056,25.25168l.15664,38.6341c0,8.63307,20.75349,11.78782,23.40587,2.68211,4.83295-14.97739,11.40739-34.16294,11.40739-34.16294s37.90407-12.59767,53.49988-27.48558C690.19629,549.98848,678.982,509.803,678.982,509.803Z"/>
        </g>
        <g>
          <g>
            <path class="cls-47" d="M643.68331,403.481l.06125-.21968s-12.6902-1.57814-23.52792,13.36454c-7.3984,10.20081-22.27324,36.616-22.27324,36.616l-4.5381,1.64208c-4.67032.96372-11.12165,8.12867-7.72826,15.6789,0,0,2.83465,9.33534,14.42634,7.65366,13.4102-1.9455,26.87814-24.19333,28.166-25.51118l5.23311-12.7172,10.95532-36.51668S644.178,403.46141,643.68331,403.481Z"/>
            <path class="cls-48" d="M621.95023,461.32371l-1.6481-23.755-8.09783,34.23039A75.41055,75.41055,0,0,0,621.95023,461.32371Z"/>
            <circle class="cls-46" cx="594.647" cy="465.52184" r="7.45026"/>
            <path class="cls-44" d="M593.3443,451.45574l-4.20343,9.60227c-4.35821,9.68065,10.04192,14.54534,11.98788,4.75993l.46812-4.50664Z"/>
            <path class="cls-49" d="M606.69344,506.51886c-3.854,6.07136,4.5723,25.97265,24.61179,34.98819,21.947,9.87371,49.649,8.755,51.87293-2.03117,2.00156-17.68046-1.75975-43.33756-1.75975-43.33756l14.06653-49.48305c-.62886-8.66395-1.54407-18.465-30.30725-35.33-13.16285-7.71791-19.05191-7.85393-19.05191-7.85393-8.53874-1.38045-21.86308,5.20672-21.08469,27.00151-5.2263,17.23567-3.96606,32.41873-.556,50.98733l-5.041,7.41319Z"/>
            <g>
              <path class="cls-45" d="M681.51112,423.99253a59.4336,59.4336,0,0,0-7.63689-7.25272c-2.60666-1.72807-5.48628-3.52822-8.70359-5.41451-1.90266-1.11582-3.63561-2.05683-5.23863-2.87812-8.02532-3.40637-13.49192-3.16032-18.79488-2.02047-3.652,7.13449-6.27081,16.58427,5.42075,21.99211C659.127,434.23257,674.41938,431.49321,681.51112,423.99253Z"/>
              <path class="cls-50" d="M648.09691,403.78719a12.092,12.092,0,0,0-1.97815-.3158c-8.53878-1.38058-24.57473,3.70239-23.79634,25.49714-5.2263,17.23577-3.22081,35.36518.18928,53.93389l-7.60708,10.36706c-1.946,3.66953-1.25748,12.35779,3.49374,16.79449,0,0,6.89427-8.84023,9.39622-16.17929s1.36083-37.88879,5.364-57.57081a62.86388,62.86388,0,0,1,17.80228-31.83228Z"/>
              <path class="cls-51" d="M670.956,414.84991s-14.13623,11.95359-17.24977,29.52286c-2.70108,15.24176-2.97468,31.12855-3.3385,43.58711s-8.67343,37.1714-8.67343,37.1714c11.14129,8.56224,41.92159,7.33906,42.58878.33359a146.82213,146.82213,0,0,0-3.444-29.61569l16.185-49.72484C697.02946,439.05429,694.34731,429.65223,670.956,414.84991Z"/>
              <path class="cls-48" d="M648.308,501.59678q-.22992,1.03132-.47486,2.066l1.72656,12.63405a8.03511,8.03511,0,0,0,8.95054,6.886l25.64564-3.18213a153.23876,153.23876,0,0,0-3.31684-24.15143l.72772-2.2359-8.61863-43.29093-6.94926,38.99565L652.576,496.0824A8.13957,8.13957,0,0,0,648.308,501.59678Z"/>
              <g>
                <g>
                  <path class="cls-52" d="M614.70388,470.35824c21.16006,0,38.31371,9.98523,38.31371,22.30266s-9.10809,40.90037-38.31371,40.90037-38.31372-28.58294-38.31372-40.90037S593.54382,470.35824,614.70388,470.35824Z"/>
                  <ellipse class="cls-53" cx="614.81452" cy="492.6609" rx="37.10563" ry="21.59943"/>
                  <path class="cls-54" d="M614.70386,474.05812c18.76264,0,34.6139,8.51907,34.6139,18.6028s-15.85126,18.6028-34.6139,18.6028c-18.76257,0-34.61372-8.51907-34.61372-18.6028s15.85115-18.6028,34.61372-18.6028m0-3.69987c-21.16,0-38.31363,9.98517-38.31363,22.30267,0,12.31743,17.15361,22.30267,38.31363,22.30267,21.16016,0,38.31377-9.98524,38.31377-22.30267,0-12.3175-17.15361-22.30267-38.31377-22.30267Z"/>
                </g>
                <path class="cls-55" d="M647.04013,492.82142a7.40092,7.40092,0,0,0-7.89116-10.3521,7.43507,7.43507,0,0,0-10.97662-5.83981,7.42921,7.42921,0,0,0-13.18115-2.22189A7.42791,7.42791,0,0,0,602.15,475.70576a7.42646,7.42646,0,0,0-12.32356,5.48373c-.122-.006-.24238-.01846-.3659-.01846a7.43082,7.43082,0,0,0-6.60121,10.85628,8.3713,8.3713,0,0,0-1.61981,4.52883c0,.27752.01838.555.03691.814,3.996,7.89934,17.68555,13.89316,33.42865,13.89316,15.74318,0,29.43287-5.99382,33.42865-13.89316.01853-.259.03707-.53645.03707-.814A7.77988,7.77988,0,0,0,647.04013,492.82142Z"/>
                <path class="cls-56" d="M632.11591,499.71485c-.25738,3.60312-6.6526,4.86368-9.41957,3.2428-1.33831,4.06638-8.00381,4.67634-10.62918,2.00745-1.82731,2.77955-7.24072,3.25011-9.2908.54047-2.36786,2.49645-7.06206,2.17489-11.191.85885a53.61822,53.61822,0,0,0,23.11974,4.89886c15.743,0,29.43272-5.99382,33.42865-13.89317.01845-.259.03691-.53644.03691-.814a7.78027,7.78027,0,0,0-1.13047-3.73472c-.46035,2.00349-4.42384,4.34551-7.03164,3.323C639.32212,498.81408,634.58667,500.69283,632.11591,499.71485Z"/>
              </g>
            </g>
            <path class="cls-57" d="M696.072,439.88346c-4.94963-12.39544-22.99138-2.63143-23.25061,12.24574L671.633,492.35759l-18.11115,7.80468c-8.31687,3.241-4.12842,20.77317,4.37493,19.44408,0,0,8.95377-1.1172,19.33318-3.15589,7.20845-1.41585,11.87378-3.18635,14.52986-8.30277C695.54054,500.86485,699.875,450.41156,696.072,439.88346Z"/>
            <ellipse class="cls-46" cx="656.56534" cy="509.74742" rx="5.3583" ry="8.15547" transform="translate(-79.72632 124.00777) rotate(-10.1754)"/>
            <path class="cls-45" d="M654.65934,502.73385l-23.47777,6.4183c-3.98579.87741.48147,11.62362.48147,11.62362l26.62621-4.10291C664.02662,514.94176,660.39671,501.00275,654.65934,502.73385Z"/>
          </g>
          <g>
            <path class="cls-45" d="M588.91822,450.39012c2.36327-3.03316,8.31983-1.4477,10.40388-1.11946l-2.65678,3.2848Z"/>
            <circle class="cls-58" cx="601.08602" cy="453.32458" r="4.4207"/>
            <path class="cls-45" d="M603.20746,458.76535c0,5.34288-5.09466,9.60358-8.58954,9.13086-3.74891-.50707-5.91335-4.20519-6.80052-9.446-.91548-5.408.52816-10.53116,4.71091-8.40344C600.348,454.0246,603.20746,453.42247,603.20746,458.76535Z"/>
            <path class="cls-45" d="M631.99124,508.18387c5.52081,3.19034-.3282,12.5919-.3282,12.5919s-7.79381,2.03931-10.57382,1.7441-8.25412-4.35858-10.01231-7.31817a5.72609,5.72609,0,0,1,.242-6.381c1.27438-1.88637,6.54657-4.16149,8.55722-4.79682C624.23554,502.64639,631.99124,508.18387,631.99124,508.18387Z"/>
          </g>
        </g>
      </g>
      <g>
        <path class="cls-59" d="M637.3211,369.56721s-3.32877,3.0555-3.18484,14.67929c.10338,8.34987-4.00792,14.69394-2.4183,21.14529,2.62907,10.66992,14.891,10.64673,20.71274,6.83773Z"/>
        <path class="cls-44" d="M645.21067,414.65664c-.1408,2.942.64956,5.78923,3.90463,6.97741,6.60493,2.411,16.7654-.78422,16.69783-6.28469l-2.52074-16.201L646.98486,400.987Z"/>
        <path class="cls-45" d="M648.85719,409.49718c9.369-.19984,15.26863-4.77835,17.20745-13.36576l4.16134-18.57256c1.888-7.44537-3.71015-15.70614-12.52681-17.14084-7.70564-1.2539-16.69511,3.81945-18.08829,12.35495a174.81457,174.81457,0,0,0-1.72346,19.09C637.74276,400.39791,640.1482,409.68293,648.85719,409.49718Z"/>
        <g>
          <path class="cls-60" d="M686.6789,406.94207c-.43-7.51913-3.50976-11.0498-4.89627-18.53705-.30641-1.65375-.63417-3.38189-1.01474-5.13536l.00181-.00107c-2.06553-12.19033-4.87887-19.72273-15.40851-23.45514-15.9291-5.00057-26.71214,5.1694-28.03907,9.754-1.14731,3.96458,2.9031,16.25747,21.95394,18.75735-1.48963,3.44473.15721,7.84445,3.84564,6.621a8.44487,8.44487,0,0,0,2.43,1.879s-7.89384,15.70926-.68488,21.73451C672.88783,425.26328,687.40587,419.65069,686.6789,406.94207Z"/>
          <path class="cls-45" d="M664.04841,401.38523c3.458.16651,6.60154-4.52175,6.79049-8.44578s-3.04958-7.39007-6.10623-5.76442C660.89558,389.21576,660.59035,401.21871,664.04841,401.38523Z"/>
        </g>
      </g>
    </g>
  </g>
  <g>
    <path class="cls-61" d="M820.002,671.79v89.14383a3,3,0,0,0,4.49938,2.59843l76.37675-44.072a9,9,0,0,0,4.50185-7.79529V622.89935"/>
    <path class="cls-62" d="M709.29863,607.85539v89.14383a3,3,0,0,0,4.49938,2.59843l79.378-45.80375a3,3,0,0,0,1.50061-2.59844V582.96479"/>
    <g>
      <g>
        <path class="cls-63" d="M908.06145,620.689v13.13707a4.88507,4.88507,0,0,1-2.46384,4.393l-77.49113,44.748a14.71574,14.71574,0,0,1-8.10452,1.9606V601.03051Z"/>
        <path class="cls-64" d="M820.002,601.03051v83.89717a14.74914,14.74914,0,0,1-6.69962-1.9606l-103.67744-59.909a4.87969,4.87969,0,0,1-2.45334-4.38252h-.0105V608.26438Z"/>
      </g>
      <g>
        <path class="cls-65" d="M705.12841,603.87135l.00532,4.55385a5.07786,5.07786,0,0,0,2.55781,4.52579l103.98708,60.119a15.38465,15.38465,0,0,0,15.38863.00125l80.56043-46.51853a5.07615,5.07615,0,0,0,2.56062-4.38963l.0032-4.75807Z"/>
        <path class="cls-66" d="M907.62765,613.19443l-104.01413-60.092a15.38474,15.38474,0,0,0-15.38487-.00093L707.6928,599.59287a5.12825,5.12825,0,0,0-.00126,8.882l103.987,60.11895a15.38478,15.38478,0,0,0,15.38866.00126l80.56042-46.51854A5.12825,5.12825,0,0,0,907.62765,613.19443Z"/>
      </g>
    </g>
  </g>
  <g>
    <g class="cls-67">
      <ellipse class="cls-68" cx="159.91718" cy="718.89484" rx="36.30513" ry="20.86502"/>
    </g>
    <g>
      <path class="cls-69" d="M159.91721,702.89653c14.34209,0,26.45876,6.34385,26.45876,13.8529s-12.11667,13.85284-26.45876,13.85284c-14.34222,0-26.4589-6.34384-26.4589-13.85284s12.11668-13.8529,26.4589-13.8529m0-3.18215c-16.3703,0-29.64105,7.62682-29.64105,17.035s13.27075,17.035,29.64105,17.035c16.37016,0,29.64092-7.62682,29.64092-17.035s-13.27076-17.035-29.64092-17.035Z"/>
      <g>
        <g>
          <path class="cls-70" d="M131.97287,661.136v43.57446c0,8.86969,12.51123,16.06,27.94433,16.06,15.43323,0,27.94434-7.19031,27.94434-16.06V661.136Z"/>
          <ellipse class="cls-12" cx="159.91718" cy="661.136" rx="27.94426" ry="16.05992"/>
          <path class="cls-71" d="M184.16148,669.115c-4.82258,4.84517-13.885,8.07533-24.24871,8.07533s-19.42558-3.23016-24.24871-8.07533c3.07339-6.01166,12.76346-10.40831,24.24871-10.40831S181.08809,663.10332,184.16148,669.115Z"/>
          <path class="cls-14" d="M159.9172,648.07608c13.52112,0,24.94422,5.98071,24.94422,13.05994,0,7.07916-11.4231,13.05987-24.94422,13.05987-13.52124,0-24.94433-5.98071-24.94433-13.05987,0-7.07923,11.42309-13.05994,24.94433-13.05994m0-3c-15.43322,0-27.94433,7.19025-27.94433,16.05994,0,8.86963,12.51111,16.05987,27.94433,16.05987,15.43311,0,27.94422-7.19024,27.94422-16.05987,0-8.86969-12.51111-16.05994-27.94422-16.05994Z"/>
        </g>
        <g>
          <path class="cls-72" d="M168.49871,546.02172c10.27343-3.82415,30.20008-14.81552,24.20315-21.78945S167.79336,530.34766,168.49871,546.02172Z"/>
          <path class="cls-71" d="M157.81765,666.93963c-.57,0-1.268-.94038-1.268-2.03785,0-53.61358-4.83086-88.51461-16.70717-116.823a3.37389,3.37389,0,0,1,.15429-2.79295c.44333-.69143,1.09249-.55911,1.45127.29707,12.197,29.07371,17.40145,64.77243,17.40145,119.37062C158.84951,666.051,158.38765,666.93963,157.81765,666.93963Z"/>
          <path class="cls-71" d="M162.44535,666.93963c-.57,0-1.03186-.88861-1.03186-1.98607,0-50.49632,0-119.65472,13.174-151.057.35844-.85618,1.00794-.9872,1.45094-.29707a3.37266,3.37266,0,0,1,.15462,2.793c-12.71581,30.31128-12.71581,98.65631-12.71581,148.56109C163.47721,666.051,163.01535,666.93963,162.44535,666.93963Z"/>
          <path class="cls-71" d="M162.93046,612.73321c-.53193,0-.98335-.78613-1.02748-1.82392-1.71134-40.383-6.25718-67.83-14.30622-86.37535a3.385,3.385,0,0,1,.13-2.79814c.43794-.7044,1.08845-.589,1.45329.25036,8.33572,19.20562,13.03181,47.3596,14.77987,88.59882.04615,1.09357-.37663,2.05353-.94461,2.14174A.47247.47247,0,0,1,162.93046,612.73321Z"/>
        </g>
        <path class="cls-71" d="M162.44636,628.44414a.52438.52438,0,0,1-.07445-.00477c-.56866-.0715-.79917-.97985-.75841-1.98439,1.28419-31.77956,9.09446-65.2926,21.91471-67.92372.56326-.11678,1.078.60058,1.1437,1.60155.06569,1.00216-.33991,1.9078-.90587,2.02339-11.70517,2.40232-19.068,34.313-20.29153,64.59344C163.43577,627.71128,162.98267,628.44414,162.44636,628.44414Z"/>
        <path class="cls-73" d="M169.35517,580.84178c10.16466,2.53688,31.575,2.65047,30.61627-6.08738S177.26881,568.10522,169.35517,580.84178Z"/>
        <path class="cls-74" d="M173.107,574.28533c17.08455-4.57709,48.78844-21.93977,40.21852-34.05556S174.36249,549.00119,173.107,574.28533Z"/>
        <path class="cls-75" d="M160.98963,586.55392c13.111-5.7497,36.35769-23.516,28.02018-32.16342S158.90509,566.16935,160.98963,586.55392Z"/>
        <path class="cls-76" d="M157.18711,551.83244c-12.41352-9.28869-32.56114-33.74366-21.641-40.81312S164.39926,530.84636,157.18711,551.83244Z"/>
        <path class="cls-77" d="M151.55379,581.78469c-17.297-4.81082-49.30951-22.74048-40.49385-34.95553S150.52359,556.10859,151.55379,581.78469Z"/>
        <path class="cls-78" d="M144.55864,557.60123c-9.49519-5.478-27.31852-19.62761-20.24616-25.50814S147.85859,542.26225,144.55864,557.60123Z"/>
        <path class="cls-79" d="M163.73747,541.52014c12.14387-10.83615,31.84359-35.50284,19.59867-41.78006S153.978,520.44805,163.73747,541.52014Z"/>
        <path class="cls-80" d="M159.19332,564.85067c9.36164-8.86212,23.65646-30.992,13.95945-35.78344S151.2241,548.20971,159.19332,564.85067Z"/>
        <path class="cls-81" d="M160.73669,577.2702c-10.57167-5.39906-28.94632-21.23919-21.62312-27.98994S163.457,560.49919,160.73669,577.2702Z"/>
      </g>
      <rect class="cls-82" x="169.91464" y="697.02979" width="37.57777" height="2.00007" transform="translate(-517.09833 855.18709) rotate(-87.42538)"/>
      <rect class="cls-83" x="130.05115" y="679.24094" width="2.00007" height="37.57777" transform="translate(-31.14217 6.5724) rotate(-2.56788)"/>
      <rect class="cls-84" x="158.9213" y="695.48637" width="2" height="37.27637"/>
      <path class="cls-85" d="M187.86148,670.22569v7.77a3.429,3.429,0,0,1,0,.74c-.38,7.78-13.02,14.28-27.93994,14.28-14.92,0-27.57007-6.5-27.95007-14.28a3.44956,3.44956,0,0,1,0-.74v-7.76a11.47968,11.47968,0,0,0,0,16.27c5.16,5.86,15.74011,9.87,27.95007,9.87,12.2,0,22.77-4.01,27.93994-9.86005a11.47973,11.47973,0,0,0,0-16.29Z"/>
    </g>
  </g>
  <g>
    <path class="cls-68" d="M178.06369,756.74433l269.81571,155.983a15.67717,15.67717,0,0,0,15.68083.00147l66.651-38.48457a5.22574,5.22574,0,0,0,.00011-9.051L260.35783,709.239a15.6772,15.6772,0,0,0-15.67731-.00095L178.065,747.69355A5.22573,5.22573,0,0,0,178.06369,756.74433Z"/>
    <g>
      <path class="cls-86" d="M452.26664,851.89108V901.0726a3.48157,3.48157,0,0,0,5.22163,3.01554l52.9628-30.56131a10.4447,10.4447,0,0,0,5.22449-9.04661V818.55151"/>
      <path class="cls-87" d="M188.90442,703.00317v49.18152a3.48157,3.48157,0,0,0,5.22163,3.01554l52.9628-30.56131a10.4447,10.4447,0,0,0,5.22449-9.04661V669.6636"/>
      <g>
        <path class="cls-88" d="M458.52873,895.51939l-16.602-15.67107L184.42713,664.63967l65.69848-37.954.01461.01378a5.84513,5.84513,0,0,1,6.16151-.17278L518.585,777.87615a17.709,17.709,0,0,1,8.85806,15.33927l-.00356,59.08653a5.84767,5.84767,0,0,1-2.95158,5.112l.00059.00058Z"/>
        <path class="cls-89" d="M260.50758,705.07239l-68.86531,39.73625-1.25331-.71952a17.69718,17.69718,0,0,1-8.85493-15.33051V669.72288A5.90352,5.90352,0,0,1,190.389,664.605Z"/>
        <polygon class="cls-90" points="349.58 756.467 280.726 796.226 191.644 744.803 260.51 705.067 349.58 756.467"/>
        <path class="cls-91" d="M461.52385,831.28543v59.09374a5.9023,5.9023,0,0,1-8.85493,5.10633l-123.2241-71.12842-29.663-17.12931-19.05568-11.00172L349.58,756.46657l6.47552,3.73692,42.26639,24.3825,54.347,31.36893A17.67288,17.67288,0,0,1,461.52385,831.28543Z"/>
      </g>
      <path class="cls-92" d="M452.66892,815.95577,190.38566,664.60623a5.89091,5.89091,0,0,0-8.85323,5.11312l.00482,59.03552a17.70929,17.70929,0,0,0,8.85549,15.33618L452.6692,895.49371a5.89112,5.89112,0,0,0,8.85436-5.11213l.0034-59.08651A17.70854,17.70854,0,0,0,452.66892,815.95577Zm1.89151,72.58962L287.74906,792.25121v-63.4226l161.43971,93.1582a10.77454,10.77454,0,0,1,5.37506,9.30783Z"/>
    </g>
    <g>
      <path class="cls-93" d="M405.04153,726.98684,303.87048,709.04515l.00234,5.62083a4.06641,4.06641,0,0,0,2.05133,3.53867l57.16258,33.00447a12.32257,12.32257,0,0,0,12.32278.00017l29.63194-17.108A4.10752,4.10752,0,0,0,405.04153,726.98684Z"/>
      <path class="cls-94" d="M363.08675,745.73247,305.92417,712.728a4.10751,4.10751,0,0,1,.00007-7.11437l29.632-17.108a12.32253,12.32253,0,0,1,12.32277.00014l57.16258,33.00452a4.1075,4.1075,0,0,1-.00008,7.11436l-29.632,17.108A12.32251,12.32251,0,0,1,363.08675,745.73247Z"/>
      <g>
        <path class="cls-95" d="M462.43826,614.84191,264.571,500.60909a5.97139,5.97139,0,0,0-6.01666-.00607l-.00055-.00069-8.137,4.70152L460.43089,770.044l9.568-5.52751-1.41385.80778a5.9624,5.9624,0,0,0,2.89738-5.14374V630.50634A18.08768,18.08768,0,0,0,462.43826,614.84191Z"/>
        <path class="cls-96" d="M256.54951,655.803,454.41668,770.03582a6.02918,6.02918,0,0,0,9.04365-5.22149V635.14017a18.08751,18.08751,0,0,0-9.04411-15.66445L256.549,505.24288a6.02917,6.02917,0,0,0-9.04364,5.22149V640.13853A18.08751,18.08751,0,0,0,256.54951,655.803Z"/>
        <g>
          <path class="cls-97" d="M272.9102,627.446l165.14554,95.342a2.73834,2.73834,0,0,0,4.10745-2.37151v-6.84154a8.215,8.215,0,0,0-4.10766-7.11451L272.91,611.1184a2.73834,2.73834,0,0,0-4.10746,2.3715v6.84155A8.215,8.215,0,0,0,272.9102,627.446Z"/>
          <path class="cls-98" d="M442.16316,713.57486a8.215,8.215,0,0,0-4.10759-7.11452l-164.512-94.9762v6.09435a8.215,8.215,0,0,0,4.10768,7.11451l164.51186,94.97612Z"/>
        </g>
      </g>
      <g>
        <path class="cls-99" d="M338.61551,695.31468l26.07414,15.05314a2.13511,2.13511,0,0,0,3.20262-1.84908V693.68481a8.215,8.215,0,0,0-4.10767-7.11451l-26.07414-15.05314a2.13511,2.13511,0,0,0-3.20262,1.84908v14.83393A8.215,8.215,0,0,0,338.61551,695.31468Z"/>
        <g>
          <path class="cls-100" d="M364.03572,717.86118v5.31239a1.33573,1.33573,0,0,1-.68458,1.17746l-7.33873,4.23078-.712.41073a.66644.66644,0,0,1-.09585.04111,4.07642,4.07642,0,0,1-1.9442.50659v-4.28551l6.5583-31.5046v21.674Z"/>
          <polygon class="cls-101" points="353.258 725.252 359.815 693.747 340.058 682.427 333.501 713.933 353.258 725.252"/>
          <path class="cls-102" d="M353.26036,725.25473v4.28551a4.00859,4.00859,0,0,1-1.93057-.493l-1.0405-.58874-16.10145-9.22819a1.35192,1.35192,0,0,1-.68458-1.17746v-4.12122Z"/>
        </g>
      </g>
    </g>
  </g>
  <g>
    <path class="cls-2" d="M724.67021,585.9151v10.35035c0,5.46723,7.7119,9.89933,17.225,9.89933s17.225-4.4321,17.225-9.89933V585.9151Z"/>
    <ellipse class="cls-103" cx="741.89521" cy="585.91513" rx="17.22501" ry="9.89943"/>
    <ellipse class="cls-104" cx="741.89521" cy="585.91513" rx="12.77329" ry="7.34097"/>
  </g>
  <path class="cls-105" d="M739.07453,587.24617a1.75985,1.75985,0,0,1-.43659-.05324l-21.73229-5.351a1.81694,1.81694,0,1,1,.86964-3.52828l21.73229,5.351a1.81719,1.81719,0,0,1-.433,3.58152Z"/>
  <path class="cls-106" d="M725.45835,583.8936a1.75985,1.75985,0,0,1-.43659-.05324l-8.11611-1.99842a1.81694,1.81694,0,1,1,.86964-3.52828l8.11611,1.99841a1.8172,1.8172,0,0,1-.433,3.58153Z"/>
  <path class="cls-107" d="M740.85118,582.31971s7.70354-12.50452,6.72819-19.00157-4.75613-8.57421-5.38347-14.09527,8.16755-22.93271,8.16755-22.93271H731.7511s-4.599,15.88654-3.54427,22.57071,10.3543,10.493,12.64435,17.40648C742.20718,570.361,740.85118,582.31971,740.85118,582.31971Z"/>
  <g>
    <path class="cls-108" d="M788.53525,582.416c0,3.60014-5.0139,6.51859-11.19856,6.51859-6.18515,0-11.19856-2.91845-11.19856-6.51859V542.14049h22.39712Z"/>
    <path class="cls-109" d="M781.84442,528.54992s-.91823-1.44827-4.508-1.44827-4.50774,1.44827-4.50774,1.44827-6.691,8.76329-6.691,13.5904c0,3.60038,5.01378,6.519,11.1987,6.519s11.19869-2.91864,11.19869-6.519C788.53515,536.88786,781.84442,528.54992,781.84442,528.54992Z"/>
    <path class="cls-110" d="M777.33651,558.40079c-5.54156,0-10.13116-2.34561-11.02832-5.42287h-.16994v17.7328c0,3.60016,5.01334,6.51836,11.19848,6.51836,6.18469,0,11.19847-2.9182,11.19847-6.51836v-17.7328h-.17038C787.46767,556.05518,782.87806,558.40079,777.33651,558.40079Z"/>
    <path class="cls-111" d="M781.33838,509.56651h-8.00363l-.506,18.98341c0,1.49609,2.01815,2.70867,4.50774,2.70867,2.4898,0,4.508-1.21258,4.508-2.70867Z"/>
    <ellipse class="cls-112" cx="777.33669" cy="508.83521" rx="5.13103" ry="2.98681"/>
    <ellipse class="cls-113" cx="777.33669" cy="508.29005" rx="3.2943" ry="1.82091"/>
  </g>
  <g>
    <g>
      <g>
        <path class="cls-114" d="M889.07152,610.88955l-69.0881-39.94165a10.62188,10.62188,0,0,0-10.622-.00064l-55.6033,32.09841a3.54063,3.54063,0,0,0-.00087,6.13225l69.06938,39.96027a10.62193,10.62193,0,0,0,10.62459.00087l55.62027-32.11718A3.54064,3.54064,0,0,0,889.07152,610.88955Z"/>
        <path class="cls-2" d="M809.3615,577.92578l-54.87159,31.676,68.3368,39.53642a10.622,10.622,0,0,0,10.62456.00088l54.88811-31.6944L819.9835,577.92623A10.62182,10.62182,0,0,0,809.3615,577.92578Z"/>
      </g>
      <g>
        <path class="cls-115" d="M820.52464,592.32149c21.54026,0,39.73814,9.78023,39.73814,21.35675S842.0649,635.035,820.52464,635.035c-21.54017,0-39.73792-9.78023-39.73792-21.35676s18.19775-21.35675,39.73792-21.35675m0-4.2476c-24.29254,0-43.98557,11.46337-43.98557,25.60435,0,14.14091,19.693,25.60436,43.98557,25.60436,24.29272,0,43.98574-11.46345,43.98574-25.60436,0-14.141-19.693-25.60435-43.98574-25.60435Z"/>
        <path class="cls-14" d="M820.52464,584.43912c-24.29254,0-43.98557,11.46337-43.98557,25.60436,0,14.1409,19.693,25.60435,43.98557,25.60435,24.29272,0,43.98574-11.46345,43.98574-25.60435,0-14.141-19.693-25.60436-43.98574-25.60436Z"/>
        <path class="cls-116" d="M820.52464,588.68672c21.54026,0,39.73814,9.78023,39.73814,21.35676s-18.19788,21.35675-39.73814,21.35675c-21.54017,0-39.73792-9.78023-39.73792-21.35675s18.19775-21.35676,39.73792-21.35676m0-4.2476c-24.29254,0-43.98557,11.46337-43.98557,25.60436,0,14.1409,19.693,25.60435,43.98557,25.60435,24.29272,0,43.98574-11.46345,43.98574-25.60435,0-14.141-19.693-25.60436-43.98574-25.60436Z"/>
      </g>
      <path class="cls-117" d="M850.155,549.11534l-62.46957-36.22457a2.127,2.127,0,0,0-2.90852,2.90422l30.809,53.31215,74.5514,43.23053L858.336,557.30853A22.46426,22.46426,0,0,0,850.155,549.11534Z"/>
      <path class="cls-118" d="M888.33932,617.44461l-54.888,31.6944a10.62175,10.62175,0,0,1-10.62455-.00089l-68.33669-39.5363c-1.63259-1.06266-2.44877-2.23469-2.50245-3.50921l.00354,7.2316a3.50707,3.50707,0,0,0,1.76614,3.12474l69.06924,39.96026a10.62272,10.62272,0,0,0,10.62477.00089l55.62011-32.11725a3.50488,3.50488,0,0,0,1.76813-3.03067l.00222-7.30636C890.84177,615.5339,889.99538,616.37458,888.33932,617.44461Z"/>
    </g>
    <polygon class="cls-2" points="782.298 597.373 787.096 598.673 823.402 610.988 808.791 589.677 805.813 585.908 797.997 585.908 784.541 593.008 782.298 597.373"/>
    <path class="cls-119" d="M805.81274,585.908c-1.46432,1.08222-2.13134,4.72182,0,7.60253l11.87994,15.54116,5.70932,1.93674C816.48011,600.34836,809.284,589.11905,805.81274,585.908Z"/>
    <path class="cls-120" d="M791.54093,607.3547c-2.99978,0-5.43159,1.41556-5.43159,3.16177s2.43181,3.16177,5.43159,3.16177,5.43162-1.41557,5.43162-3.16177-2.43181-3.16177-5.43162-3.16177Z"/>
    <path class="cls-120" d="M813.92747,611.2204c-2.99978,0-5.43159,1.41557-5.43159,3.16178s2.43181,3.16177,5.43159,3.16177,5.43161-1.41557,5.43161-3.16177-2.4318-3.16178-5.43161-3.16178Z"/>
    <path class="cls-120" d="M846.698,613.67824c-2.99979,0-5.4316,1.41557-5.4316,3.16178s2.43181,3.16177,5.4316,3.16177,5.43161-1.41557,5.43161-3.16177-2.43181-3.16178-5.43161-3.16178Z"/>
    <path class="cls-120" d="M828.83354,593.39946c-2.99978,0-5.43159,1.41556-5.43159,3.16177s2.43181,3.16178,5.43159,3.16178,5.43161-1.41558,5.43161-3.16178-2.4318-3.16177-5.43161-3.16177Z"/>
    <path class="cls-120" d="M846.698,600.24365c-2.99979,0-5.4316,1.41556-5.4316,3.16177s2.43181,3.16178,5.4316,3.16178,5.43161-1.41558,5.43161-3.16178-2.43181-3.16177-5.43161-3.16177Z"/>
    <path class="cls-120" d="M834.26514,606.8817c-2.99978,0-5.43159,1.41557-5.43159,3.16178s2.43181,3.16177,5.43159,3.16177,5.43162-1.41557,5.43162-3.16177-2.43181-3.16178-5.43162-3.16178Z"/>
    <path class="cls-120" d="M825.142,619.45663c-2.99978,0-5.43159,1.41557-5.43159,3.16178s2.43181,3.16177,5.43159,3.16177,5.43162-1.41557,5.43162-3.16177-2.43181-3.16178-5.43162-3.16178Z"/>
    <path class="cls-120" d="M802.84972,618.87662c-2.99979,0-5.4316,1.41556-5.4316,3.16177s2.43181,3.16177,5.4316,3.16177,5.43161-1.41557,5.43161-3.16177-2.43181-3.16177-5.43161-3.16177Z"/>
  </g>
  <g>
    <g>
      <path class="cls-121" d="M217.50614,153.87283a198.65282,198.65282,0,1,1-77.5835,15.65723,198.06008,198.06008,0,0,1,77.5835-15.65723m0-18.17383C97.38083,135.699,0,233.07986,0,353.20535S97.38083,570.7117,217.50614,570.7117s217.5061-97.38086,217.5061-217.50635S337.63144,135.699,217.50614,135.699Z"/>
      <circle class="cls-122" cx="217.50613" cy="353.20537" r="201.18409"/>
    </g>
    <path class="cls-123" d="M63.72042,482.90111a201.15612,201.15612,0,0,0,307.57135,0Z"/>
    <g>
      <circle class="cls-121" cx="58.40473" cy="223.52672" r="51.44097"/>
      <g>
        <rect class="cls-29" x="54.21768" y="194.94778" width="11.16548" height="57.15788" transform="translate(-140.54212 107.75474) rotate(-45)"/>
        <rect class="cls-29" x="54.21768" y="194.94778" width="11.16548" height="57.15788" transform="translate(-55.97156 423.86926) rotate(-135)"/>
      </g>
    </g>
    <g>
      <path class="cls-124" d="M317.6699,183.70377,313.86812,103.677H275.18427l-3.80188,80.02692a87.36013,87.36013,0,0,1-14.36354,43.99638l-.00012.00017a87.36012,87.36012,0,0,0-14.462,48.142V464.3847a18.51641,18.51641,0,0,0,18.51642,18.51641h66.906a18.51642,18.51642,0,0,0,18.51642-18.51641V275.84251a87.36013,87.36013,0,0,0-14.462-48.14209l0-.00005A87.36013,87.36013,0,0,1,317.6699,183.70377Z"/>
      <path class="cls-125" d="M294.52615,434.29125h.00008c22.43508,0,40.6223-21.09455,40.6223-47.116V331.08463c0-26.02145-18.18722-47.116-40.6223-47.116h-.00008c-22.43507,0-40.62229,21.09455-40.62229,47.116v56.09063C253.90386,413.1967,272.09108,434.29125,294.52615,434.29125Z"/>
      <path class="cls-126" d="M323.40934,210.9214h-57.7665a87.2165,87.2165,0,0,1-8.624,16.77885l-.00011.00023a87.35514,87.35514,0,0,0-13.05668,32.5626H345.09027a87.35486,87.35486,0,0,0-13.05679-32.56272A87.21468,87.21468,0,0,1,323.40934,210.9214Z"/>
      <polygon class="cls-127" points="274.094 126.627 314.958 126.627 314.113 108.84 274.939 108.84 274.094 126.627"/>
      <rect class="cls-128" x="268.73693" y="97.22973" width="51.57849" height="15.13716" rx="7.56857"/>
    </g>
    <g>
      <rect class="cls-129" x="69.14082" y="433.34351" width="194.00215" height="49.55761" rx="7.54997"/>
      <rect class="cls-130" x="51.31063" y="411.30264" width="229.66253" height="58.667" rx="8.93776"/>
    </g>
    <g>
      <path class="cls-131" d="M25.71672,338.34246c-5.70467-.98921-11.62653,5.68914-13.22658,14.91646s1.72761,17.50956,7.43228,18.49876l82.23594,14.26,5.79429-33.41522Z"/>
      <g>
        <path class="cls-132" d="M107.95265,352.60242c-5.70485-.98924-11.62652,5.68913-13.22657,14.91646s1.72742,17.50952,7.43228,18.49876l81.20452,14.08111,5.7943-33.41523Z"/>
        <ellipse class="cls-133" cx="186.25994" cy="383.39115" rx="16.95717" ry="10.48354" transform="matrix(0.17085, -0.9853, 0.9853, 0.17085, -223.31714, 501.40875)"/>
      </g>
      <g>
        <path class="cls-134" d="M189.15713,366.68351c-5.70486-.98923-11.62653,5.68914-13.22658,14.91646s1.72743,17.50953,7.43228,18.49877l18.3944,3.18964,5.7943-33.41522Z"/>
        <ellipse class="cls-135" cx="204.65429" cy="386.58078" rx="16.95717" ry="10.48354" transform="translate(-211.20826 522.17731) rotate(-80.16256)"/>
      </g>
    </g>
    <path class="cls-136" d="M200.0943,366.58637s27.85554-45.21561,24.32873-68.70859-17.19789-31.00384-19.46632-50.96766,29.53338-82.92337,29.53338-82.92337H167.18894s-16.62964,57.44481-12.81588,81.6144S191.8136,283.543,200.0943,308.542C204.99749,323.34441,200.0943,366.58637,200.0943,366.58637Z"/>
  </g>
  <g>
    <g>
      <polygon class="cls-137" points="724.208 272.174 724.247 362.876 646.967 318.122 646.928 227.421 724.208 272.174"/>
      <polygon class="cls-138" points="720.901 270.265 720.932 348.893 657.379 312.065 657.348 233.437 720.901 270.265"/>
      <polygon class="cls-139" points="709.545 278.922 709.566 332.226 666.481 307.259 666.46 253.955 709.545 278.922"/>
      <path class="cls-140" d="M719.90959,355.36979l-68.61231-39.7495-.0322-80.69349,68.61233,39.74951.03218,80.69348m4.33729,7.5063-.03922-90.70187L646.92779,227.4205l.03924,90.70188,77.27985,44.75371Z"/>
      <polygon class="cls-141" points="651.818 224.589 729.098 269.343 724.208 272.174 646.928 227.421 651.818 224.589"/>
      <polygon class="cls-142" points="729.098 269.343 729.121 360.054 724.247 362.876 724.208 272.174 729.098 269.343"/>
    </g>
    <g>
      <polygon class="cls-143" points="789.456 294.335 789.496 353.037 736.464 322.283 736.425 263.581 789.456 294.335"/>
      <polygon class="cls-144" points="786.15 292.426 786.181 339.054 746.876 316.226 746.845 269.597 786.15 292.426"/>
      <path class="cls-145" d="M785.15825,345.53066l-44.3636-25.7495-.0322-48.69349,44.36362,25.74951.03218,48.69348m4.33729,7.5063-.03922-58.70187-53.03116-30.75372.03924,58.70188L789.49554,353.037Z"/>
      <polygon class="cls-146" points="741.316 260.75 794.347 291.504 789.456 294.335 736.425 263.581 741.316 260.75"/>
      <polygon class="cls-147" points="794.347 291.504 794.37 350.215 789.496 353.037 789.456 294.335 794.347 291.504"/>
    </g>
  </g>
</svg>
