<svg id="Layer_1" data-name="Layer 1" xmlns="http://www.w3.org/2000/svg" xmlns:xlink="http://www.w3.org/1999/xlink" viewBox="0 0 1000 1000">
  <defs>
    <style>
      .cls-1 {
        fill: url(#linear-gradient);
      }

      .cls-2 {
        fill: #b8cbd8;
      }

      .cls-3 {
        fill: url(#linear-gradient-2);
      }

      .cls-4, .cls-50 {
        fill: #9bb0c4;
      }

      .cls-14, .cls-21, .cls-26, .cls-4, .cls-81 {
        opacity: 0.5;
      }

      .cls-5 {
        fill: #f0f9fc;
      }

      .cls-6 {
        fill: url(#linear-gradient-3);
      }

      .cls-7 {
        fill: url(#linear-gradient-4);
      }

      .cls-8 {
        fill: url(#linear-gradient-5);
      }

      .cls-9 {
        fill: url(#linear-gradient-6);
      }

      .cls-10 {
        fill: url(#linear-gradient-7);
      }

      .cls-11 {
        fill: url(#linear-gradient-8);
      }

      .cls-12 {
        fill: #e58630;
      }

      .cls-13 {
        fill: url(#linear-gradient-9);
      }

      .cls-15 {
        fill: url(#linear-gradient-10);
      }

      .cls-16 {
        fill: #748ca3;
      }

      .cls-17 {
        fill: #586c7f;
      }

      .cls-18 {
        fill: url(#linear-gradient-11);
      }

      .cls-19 {
        fill: #34a521;
      }

      .cls-20 {
        fill: #e4ecf2;
      }

      .cls-21 {
        fill: url(#linear-gradient-12);
      }

      .cls-22, .cls-26 {
        fill: #fff;
      }

      .cls-23 {
        fill: url(#linear-gradient-13);
      }

      .cls-24 {
        fill: url(#linear-gradient-14);
      }

      .cls-25 {
        fill: url(#linear-gradient-15);
      }

      .cls-27 {
        fill: url(#linear-gradient-16);
      }

      .cls-28 {
        fill: url(#linear-gradient-17);
      }

      .cls-29 {
        fill: url(#linear-gradient-18);
      }

      .cls-30 {
        fill: url(#linear-gradient-19);
      }

      .cls-31 {
        fill: url(#linear-gradient-20);
      }

      .cls-32 {
        fill: url(#linear-gradient-21);
      }

      .cls-33 {
        fill: url(#linear-gradient-22);
      }

      .cls-34 {
        fill: url(#linear-gradient-23);
      }

      .cls-35, .cls-36 {
        fill: none;
        stroke-miterlimit: 10;
        stroke-width: 5px;
      }

      .cls-35 {
        stroke: url(#linear-gradient-24);
      }

      .cls-36 {
        stroke: url(#linear-gradient-25);
      }

      .cls-37 {
        fill: url(#linear-gradient-26);
      }

      .cls-38 {
        fill: url(#linear-gradient-27);
      }

      .cls-39 {
        fill: url(#linear-gradient-28);
      }

      .cls-40 {
        fill: url(#linear-gradient-29);
      }

      .cls-41 {
        fill: url(#linear-gradient-30);
      }

      .cls-42 {
        fill: url(#linear-gradient-31);
      }

      .cls-43 {
        fill: url(#linear-gradient-32);
      }

      .cls-44 {
        fill: url(#linear-gradient-33);
      }

      .cls-45 {
        fill: url(#linear-gradient-34);
      }

      .cls-46 {
        fill: url(#linear-gradient-35);
      }

      .cls-47 {
        fill: url(#linear-gradient-36);
      }

      .cls-48 {
        fill: url(#linear-gradient-37);
      }

      .cls-49 {
        fill: #ffcb48;
      }

      .cls-51 {
        fill: url(#linear-gradient-38);
      }

      .cls-52 {
        fill: url(#linear-gradient-39);
      }

      .cls-53 {
        fill: url(#linear-gradient-40);
      }

      .cls-54 {
        fill: url(#linear-gradient-41);
      }

      .cls-55 {
        fill: #541510;
        opacity: 0.3;
      }

      .cls-56 {
        fill: url(#linear-gradient-42);
      }

      .cls-57 {
        fill: url(#linear-gradient-43);
      }

      .cls-58 {
        fill: #bcd0e2;
      }

      .cls-59 {
        fill: url(#linear-gradient-44);
      }

      .cls-60 {
        fill: #e9f1f4;
      }

      .cls-61 {
        fill: url(#linear-gradient-45);
      }

      .cls-62 {
        fill: url(#linear-gradient-46);
      }

      .cls-63 {
        fill: url(#linear-gradient-47);
      }

      .cls-64 {
        fill: url(#linear-gradient-48);
      }

      .cls-65 {
        fill: url(#linear-gradient-49);
      }

      .cls-66 {
        opacity: 0.4;
        fill: url(#linear-gradient-50);
      }

      .cls-67 {
        fill: url(#linear-gradient-51);
      }

      .cls-68 {
        fill: url(#linear-gradient-52);
      }

      .cls-69 {
        fill: url(#linear-gradient-53);
      }

      .cls-70 {
        fill: url(#linear-gradient-54);
      }

      .cls-71 {
        fill: url(#linear-gradient-55);
      }

      .cls-72 {
        fill: url(#linear-gradient-56);
      }

      .cls-73 {
        fill: url(#linear-gradient-57);
      }

      .cls-74 {
        fill: url(#linear-gradient-58);
      }

      .cls-75 {
        fill: url(#linear-gradient-59);
      }

      .cls-76 {
        fill: url(#linear-gradient-60);
      }

      .cls-77 {
        fill: #ffbda3;
      }

      .cls-78 {
        fill: #27343d;
      }

      .cls-79 {
        fill: #303d49;
      }

      .cls-80 {
        fill: url(#linear-gradient-61);
      }

      .cls-81, .cls-83 {
        fill: #dd7b19;
      }

      .cls-82 {
        fill: url(#linear-gradient-62);
      }

      .cls-84 {
        fill: url(#linear-gradient-63);
      }

      .cls-85 {
        fill: url(#linear-gradient-64);
      }
    </style>
    <linearGradient id="linear-gradient" x1="524.52355" y1="396.22833" x2="931.16979" y2="396.22833" gradientUnits="userSpaceOnUse">
      <stop offset="0" stop-color="#e4edf2"/>
      <stop offset="1" stop-color="#c3d6e6"/>
    </linearGradient>
    <linearGradient id="linear-gradient-2" x1="117.89298" y1="711.22041" x2="931.16979" y2="711.22041" gradientUnits="userSpaceOnUse">
      <stop offset="0.00663" stop-color="#c4d5e6"/>
      <stop offset="1" stop-color="#dae9f2"/>
    </linearGradient>
    <linearGradient id="linear-gradient-3" x1="888.57995" y1="450.58926" x2="902.59319" y2="450.58926" gradientTransform="translate(345.28048 -387.42577) rotate(30)" gradientUnits="userSpaceOnUse">
      <stop offset="0" stop-color="#849bb2"/>
      <stop offset="1" stop-color="#5b6f82"/>
    </linearGradient>
    <linearGradient id="linear-gradient-4" x1="318.84019" y1="183.43889" x2="312.71253" y2="506.67293" gradientUnits="userSpaceOnUse">
      <stop offset="0" stop-color="#293440"/>
      <stop offset="1" stop-color="#3e4c59"/>
    </linearGradient>
    <linearGradient id="linear-gradient-5" x1="145.13283" y1="390.75852" x2="488.47555" y2="390.75852" gradientUnits="userSpaceOnUse">
      <stop offset="0" stop-color="#5b6f82"/>
      <stop offset="1" stop-color="#849bb2"/>
    </linearGradient>
    <linearGradient id="linear-gradient-6" x1="506.84926" y1="287.74017" x2="132.95225" y2="490.41897" gradientUnits="userSpaceOnUse">
      <stop offset="0" stop-color="#62778c"/>
      <stop offset="1" stop-color="#435466"/>
    </linearGradient>
    <linearGradient id="linear-gradient-7" x1="439.80984" y1="319.99414" x2="301.33152" y2="395.05924" xlink:href="#linear-gradient-6"/>
    <linearGradient id="linear-gradient-8" x1="328.34103" y1="384.34656" x2="189.86272" y2="459.41167" xlink:href="#linear-gradient-6"/>
    <linearGradient id="linear-gradient-9" x1="147.22103" y1="327.66025" x2="322.62528" y2="563.57514" gradientUnits="userSpaceOnUse">
      <stop offset="0.00005" stop-color="#ffcb48"/>
      <stop offset="1" stop-color="#e68e2b"/>
    </linearGradient>
    <linearGradient id="linear-gradient-10" x1="324.9499" y1="225.01703" x2="500.35415" y2="460.93192" xlink:href="#linear-gradient-9"/>
    <linearGradient id="linear-gradient-11" x1="-63.91738" y1="234.66122" x2="499.9014" y2="234.66122" xlink:href="#linear-gradient-5"/>
    <linearGradient id="linear-gradient-12" x1="106.62266" y1="296.0483" x2="421.71458" y2="296.0483" gradientUnits="userSpaceOnUse">
      <stop offset="0" stop-color="#748ea6"/>
      <stop offset="1" stop-color="#96b1cc"/>
    </linearGradient>
    <linearGradient id="linear-gradient-13" x1="142.31662" y1="262.3569" x2="321.24481" y2="262.3569" xlink:href="#linear-gradient-12"/>
    <linearGradient id="linear-gradient-14" x1="132.16158" y1="257.00218" x2="170.97009" y2="341.00218" xlink:href="#linear-gradient-9"/>
    <linearGradient id="linear-gradient-15" x1="4353.05685" y1="3250.90476" x2="4353.05685" y2="3338.03103" gradientTransform="matrix(0.0351, 0.99938, 0.99938, -0.0351, -3265.34353, -3971.39328)" xlink:href="#linear-gradient-6"/>
    <linearGradient id="linear-gradient-16" x1="213.95096" y1="225.45033" x2="241.86586" y2="301.36523" xlink:href="#linear-gradient-6"/>
    <linearGradient id="linear-gradient-17" x1="216.92843" y1="233.54759" x2="238.71883" y2="292.80686" gradientUnits="userSpaceOnUse">
      <stop offset="0" stop-color="#96b1cc"/>
      <stop offset="1" stop-color="#748ea6"/>
    </linearGradient>
    <linearGradient id="linear-gradient-18" x1="320.30187" y1="318.8215" x2="395.32838" y2="318.8215" xlink:href="#linear-gradient-6"/>
    <linearGradient id="linear-gradient-19" x1="59.71562" y1="318.8215" x2="134.74212" y2="318.8215" xlink:href="#linear-gradient-6"/>
    <linearGradient id="linear-gradient-20" x1="474.78913" y1="212.63531" x2="569.98477" y2="212.63531" xlink:href="#linear-gradient"/>
    <linearGradient id="linear-gradient-21" x1="561.76556" y1="222.07017" x2="561.76556" y2="554.12855" gradientUnits="userSpaceOnUse">
      <stop offset="0" stop-color="#fff"/>
      <stop offset="0.56988" stop-color="#fff" stop-opacity="0"/>
    </linearGradient>
    <linearGradient id="linear-gradient-22" x1="495.87155" y1="175.08368" x2="533.49411" y2="234.65274" xlink:href="#linear-gradient-6"/>
    <linearGradient id="linear-gradient-23" x1="511.38616" y1="165.28498" x2="549.00872" y2="224.85403" xlink:href="#linear-gradient-6"/>
    <linearGradient id="linear-gradient-24" x1="8918.64141" y1="475.38618" x2="8985.44226" y2="505.90608" gradientTransform="translate(-8377.35491)" gradientUnits="userSpaceOnUse">
      <stop offset="0" stop-color="#3e4c59"/>
      <stop offset="1" stop-color="#293440"/>
    </linearGradient>
    <linearGradient id="linear-gradient-25" x1="8852.10833" y1="429.3766" x2="8927.59114" y2="463.8631" xlink:href="#linear-gradient-24"/>
    <linearGradient id="linear-gradient-26" x1="725.79129" y1="370.69237" x2="848.38364" y2="457.02501" gradientTransform="translate(-242.3977)" xlink:href="#linear-gradient-6"/>
    <linearGradient id="linear-gradient-27" x1="725.44049" y1="384.08754" x2="858.02968" y2="527.97941" gradientTransform="translate(-242.3977)" gradientUnits="userSpaceOnUse">
      <stop offset="0" stop-color="#62788c"/>
      <stop offset="1" stop-color="#526575"/>
    </linearGradient>
    <linearGradient id="linear-gradient-28" x1="712.36069" y1="366.00754" x2="792.51683" y2="491.05112" gradientTransform="translate(-242.3977)" xlink:href="#linear-gradient-17"/>
    <linearGradient id="linear-gradient-29" x1="719.03322" y1="407.07872" x2="847.20137" y2="407.07872" gradientTransform="translate(-242.3977)" gradientUnits="userSpaceOnUse">
      <stop offset="0" stop-color="#526575"/>
      <stop offset="1" stop-color="#62788c"/>
    </linearGradient>
    <linearGradient id="linear-gradient-30" x1="719.03317" y1="386.31293" x2="847.20133" y2="386.31293" gradientTransform="translate(-242.3977)" xlink:href="#linear-gradient-17"/>
    <linearGradient id="linear-gradient-31" x1="515.48108" y1="385.56455" x2="565.95809" y2="385.56455" xlink:href="#linear-gradient-6"/>
    <linearGradient id="linear-gradient-32" x1="515.48107" y1="381.7186" x2="565.95811" y2="381.7186" gradientTransform="matrix(1, 0, 0, 1, 0, 0)" xlink:href="#linear-gradient-3"/>
    <linearGradient id="linear-gradient-33" x1="540.37866" y1="341.10846" x2="541.05072" y2="378.29591" xlink:href="#linear-gradient-6"/>
    <linearGradient id="linear-gradient-34" x1="506.77663" y1="333.73917" x2="574.66259" y2="333.73917" xlink:href="#linear-gradient-6"/>
    <linearGradient id="linear-gradient-35" x1="506.32123" y1="328.76338" x2="575.118" y2="328.76338" gradientUnits="userSpaceOnUse">
      <stop offset="0.00844" stop-color="#ffc63f"/>
      <stop offset="1" stop-color="#e68a23"/>
    </linearGradient>
    <linearGradient id="linear-gradient-36" x1="533.30186" y1="315.9837" x2="548.13722" y2="315.9837" gradientTransform="matrix(1, 0, 0, 1, 0, 0)" xlink:href="#linear-gradient-24"/>
    <linearGradient id="linear-gradient-37" x1="533.30187" y1="310.26008" x2="548.1373" y2="310.26008" xlink:href="#linear-gradient-6"/>
    <linearGradient id="linear-gradient-38" x1="643.53591" y1="346.56832" x2="823.20212" y2="581.85873" xlink:href="#linear-gradient-6"/>
    <linearGradient id="linear-gradient-39" x1="626.03515" y1="359.75835" x2="804.14735" y2="593.01364" gradientTransform="matrix(1, 0, 0, 1, 0, 0)" xlink:href="#linear-gradient-27"/>
    <linearGradient id="linear-gradient-40" x1="449.07954" y1="588.499" x2="875.13355" y2="702.89406" xlink:href="#linear-gradient-6"/>
    <linearGradient id="linear-gradient-41" x1="320.48162" y1="596.40699" x2="714.05142" y2="846.97161" gradientTransform="matrix(1, 0, 0, 1, 0, 0)" xlink:href="#linear-gradient-27"/>
    <linearGradient id="linear-gradient-42" x1="336.73517" y1="663.74094" x2="883.15807" y2="693.30152" gradientTransform="matrix(1, 0, 0, 1, 0, 0)" xlink:href="#linear-gradient-24"/>
    <linearGradient id="linear-gradient-43" x1="335.66165" y1="683.58489" x2="882.08455" y2="713.14548" gradientTransform="matrix(1, 0, 0, 1, 0, 0)" xlink:href="#linear-gradient-24"/>
    <linearGradient id="linear-gradient-44" x1="358.82584" y1="540.79097" x2="530.81469" y2="722.63335" xlink:href="#linear-gradient-9"/>
    <linearGradient id="linear-gradient-45" x1="520.3241" y1="498.38123" x2="533.76073" y2="744.71943" xlink:href="#linear-gradient-9"/>
    <linearGradient id="linear-gradient-46" x1="637.97778" y1="306.89848" x2="880.15229" y2="624.04962" gradientUnits="userSpaceOnUse">
      <stop offset="0" stop-color="#596c80"/>
      <stop offset="0.99886" stop-color="#3a4959"/>
    </linearGradient>
    <linearGradient id="linear-gradient-47" x1="669.74196" y1="716.15226" x2="696.16876" y2="757.37807" gradientTransform="matrix(1, 0, 0, 1, 0, 0)" xlink:href="#linear-gradient-24"/>
    <linearGradient id="linear-gradient-48" x1="712.50986" y1="359.48261" x2="789.82893" y2="359.48261" gradientTransform="translate(-18.64021 -32.28579)" gradientUnits="userSpaceOnUse">
      <stop offset="0" stop-color="#435466"/>
      <stop offset="1" stop-color="#62778c"/>
    </linearGradient>
    <linearGradient id="linear-gradient-49" x1="722.93005" y1="355.49936" x2="786.51402" y2="355.49936" gradientTransform="translate(-18.64021 -32.28579)" gradientUnits="userSpaceOnUse">
      <stop offset="0" stop-color="#fff"/>
      <stop offset="0.98888" stop-color="#e6edf2"/>
    </linearGradient>
    <linearGradient id="linear-gradient-50" x1="732.04235" y1="357.42479" x2="775.14781" y2="357.42479" gradientTransform="translate(-18.64021 -32.28579)" xlink:href="#linear-gradient-6"/>
    <linearGradient id="linear-gradient-51" x1="712.50984" y1="359.4826" x2="789.82894" y2="359.4826" gradientTransform="translate(-18.64021 -32.28579)" xlink:href="#linear-gradient-3"/>
    <linearGradient id="linear-gradient-52" x1="729.47528" y1="280.83601" x2="808.97515" y2="385.9141" gradientTransform="translate(-18.64021 -32.28579)" xlink:href="#linear-gradient-6"/>
    <linearGradient id="linear-gradient-53" x1="698.01281" y1="255.88081" x2="815.89696" y2="411.69291" gradientTransform="translate(-18.64021 -32.28579)" xlink:href="#linear-gradient-6"/>
    <linearGradient id="linear-gradient-54" x1="812.5534" y1="348.69825" x2="786.87323" y2="288.47749" gradientTransform="translate(3.46411 6.00002)" xlink:href="#linear-gradient-48"/>
    <linearGradient id="linear-gradient-55" x1="746.01994" y1="253.6391" x2="785.3552" y2="253.6391" gradientTransform="translate(47.76727 82.73534)" xlink:href="#linear-gradient-49"/>
    <linearGradient id="linear-gradient-56" x1="735.59974" y1="257.62234" x2="788.67012" y2="257.62234" gradientTransform="translate(47.76727 82.73534)" xlink:href="#linear-gradient-3"/>
    <linearGradient id="linear-gradient-57" x1="747.936" y1="204.88243" x2="802.73144" y2="277.30771" gradientTransform="translate(47.76727 82.73534)" xlink:href="#linear-gradient-6"/>
    <linearGradient id="linear-gradient-58" x1="729.77753" y1="190.53688" x2="806.47833" y2="291.91534" gradientTransform="translate(47.76727 82.73534)" xlink:href="#linear-gradient-6"/>
    <linearGradient id="linear-gradient-59" x1="801.0552" y1="416.95328" x2="835.65095" y2="466.22987" gradientUnits="userSpaceOnUse">
      <stop offset="0" stop-color="#966551"/>
      <stop offset="1" stop-color="#805345"/>
    </linearGradient>
    <linearGradient id="linear-gradient-60" x1="804.4649" y1="414.55942" x2="839.06065" y2="463.83602" xlink:href="#linear-gradient-59"/>
    <linearGradient id="linear-gradient-61" x1="6148.67205" y1="433.03553" x2="6091.63236" y2="529.45408" gradientTransform="matrix(-1, 0, 0, 1, 6993.16939, 0)" xlink:href="#linear-gradient-9"/>
    <linearGradient id="linear-gradient-62" x1="6193.85739" y1="459.76645" x2="6136.8177" y2="556.18501" gradientTransform="matrix(-1, 0, 0, 1, 6993.16939, 0)" xlink:href="#linear-gradient-9"/>
    <linearGradient id="linear-gradient-63" x1="6220.66889" y1="475.62772" x2="6163.62921" y2="572.04627" gradientTransform="matrix(-1, 0, 0, 1, 6993.16939, 0)" xlink:href="#linear-gradient-9"/>
    <linearGradient id="linear-gradient-64" x1="813.33723" y1="408.3304" x2="847.93298" y2="457.607" xlink:href="#linear-gradient-59"/>
  </defs>
  <g>
    <g>
      <polygon class="cls-1" points="524.524 81.236 931.17 316.004 931.17 711.22 524.524 476.43 524.524 81.236"/>
      <polygon class="cls-2" points="524.539 81.236 117.893 316.004 117.893 711.22 524.539 476.43 524.539 81.236"/>
    </g>
    <path class="cls-3" d="M124.91012,723.3864l378.58059,218.564a42.10143,42.10143,0,0,0,42.1011-.00062L924.153,723.38232a14.03381,14.03381,0,0,0,.00017-24.307L545.57541,480.49136a42.10142,42.10142,0,0,0-42.10407.00053l-378.562,218.58744A14.03381,14.03381,0,0,0,124.91012,723.3864Z"/>
    <path class="cls-4" d="M828.59749,714.98587c-36.18863,0-65.52567,16.86023-65.52567,37.65837,0,17.2353,20.15433,31.75553,47.65149,36.22825l80.8289-46.66763C883.67446,726.48727,858.48144,714.98587,828.59749,714.98587Z"/>
  </g>
  <g>
    <path class="cls-5" d="M911.94193,441.46169l-.001,33.20418a2.93956,2.93956,0,0,1-4.40935,2.54567l-21.20631-12.24347a8.81868,8.81868,0,0,1-4.40935-7.63741l.001-33.20418a2.93956,2.93956,0,0,1,4.40935-2.54567l21.20631,12.24347A8.81868,8.81868,0,0,1,911.94193,441.46169Z"/>
    <ellipse class="cls-6" cx="895.58657" cy="450.58926" rx="5.7164" ry="9.91662" transform="translate(-105.30878 508.1608) rotate(-30)"/>
  </g>
  <g>
    <g>
      <path class="cls-7" d="M492.317,456.36969,148.96794,654.59929l-11.46524-6.61724V325.15794l343.34907-198.2411,11.46524-2.15873Z"/>
      <polygon class="cls-8" points="488.476 130.228 484.534 132.503 484.539 450.939 145.133 646.883 145.133 651.289 488.476 453.069 488.476 130.228"/>
      <path class="cls-9" d="M133.64483,321.83449v349.352l366.319-211.48426V110.32968Zm11.48824,6.63259L488.47555,130.22837l0,322.84092L145.13307,651.28867Z"/>
    </g>
    <polygon class="cls-10" points="373.071 515.291 368.071 518.178 368.071 199.762 373.071 196.875 373.071 515.291"/>
    <polygon class="cls-11" points="261.602 579.644 256.602 582.53 256.602 264.115 261.602 261.228 261.602 579.644"/>
    <g>
      <path class="cls-12" d="M317.32716,236.28326l-172.19409,99.549V649.23663a2.97181,2.97181,0,0,0,1.50513,2.60065l-.00025.00018,3.38843,1.94965-.40356-1.94727.01-.005,163.2008-94.2041a9,9,0,0,0,4.50074-7.79486l3.38391-311.60047Z"/>
      <path class="cls-13" d="M320.72542,551.78805l-.00712-313.55261-172.19412,99.549V651.18878a3,3,0,0,0,4.49976,2.59821l163.20076-94.2041A9,9,0,0,0,320.72542,551.78805Z"/>
      <g>
        <g class="cls-14">
          <polygon class="cls-12" points="170.336 643.766 168.037 645.094 168.037 326.502 170.336 325.175 170.336 643.766"/>
        </g>
        <g class="cls-14">
          <polygon class="cls-12" points="192.148 631.157 189.848 632.484 189.848 313.893 192.148 312.565 192.148 631.157"/>
        </g>
        <g class="cls-14">
          <polygon class="cls-12" points="213.959 618.547 211.66 619.875 211.66 301.283 213.959 299.956 213.959 618.547"/>
        </g>
        <g class="cls-14">
          <polygon class="cls-12" points="235.771 605.938 233.472 607.265 233.472 288.674 235.771 287.346 235.771 605.938"/>
        </g>
        <g class="cls-14">
          <polygon class="cls-12" points="257.583 593.328 255.283 594.656 255.283 276.064 257.583 274.737 257.583 593.328"/>
        </g>
        <g class="cls-14">
          <polygon class="cls-12" points="279.394 580.718 277.095 582.046 277.095 263.455 279.394 262.127 279.394 580.718"/>
        </g>
        <g class="cls-14">
          <polygon class="cls-12" points="301.206 568.109 298.907 569.436 298.907 250.845 301.206 249.517 301.206 568.109"/>
        </g>
      </g>
    </g>
    <g>
      <path class="cls-12" d="M495.056,133.64l-172.19409,99.549V546.59341a2.97179,2.97179,0,0,0,1.50513,2.60065l-.00025.00018,3.38843,1.94965-.40356-1.94727.01-.005,163.2008-94.2041a9,9,0,0,0,4.50073-7.79486l3.38392-311.60047Z"/>
      <path class="cls-15" d="M498.45429,449.14483l-.00712-313.55262L326.253,235.14119V548.54556a3,3,0,0,0,4.49976,2.59821l163.20076-94.2041A9,9,0,0,0,498.45429,449.14483Z"/>
      <g>
        <g class="cls-14">
          <polygon class="cls-12" points="348.065 541.123 345.765 542.451 345.765 223.859 348.065 222.532 348.065 541.123"/>
        </g>
        <g class="cls-14">
          <polygon class="cls-12" points="369.876 528.513 367.577 529.841 367.577 211.25 369.876 209.922 369.876 528.513"/>
        </g>
        <g class="cls-14">
          <polygon class="cls-12" points="391.688 515.904 389.389 517.231 389.389 198.64 391.688 197.312 391.688 515.904"/>
        </g>
        <g class="cls-14">
          <polygon class="cls-12" points="413.5 503.294 411.2 504.622 411.2 186.03 413.5 184.703 413.5 503.294"/>
        </g>
        <g class="cls-14">
          <polygon class="cls-12" points="435.311 490.685 433.012 492.012 433.012 173.421 435.311 172.093 435.311 490.685"/>
        </g>
        <g class="cls-14">
          <polygon class="cls-12" points="457.123 478.075 454.824 479.403 454.824 160.811 457.123 159.484 457.123 478.075"/>
        </g>
        <g class="cls-14">
          <polygon class="cls-12" points="478.935 465.466 476.635 466.793 476.635 148.202 478.935 146.874 478.935 465.466"/>
        </g>
      </g>
    </g>
    <g>
      <path class="cls-16" d="M495.97884,126.90289v6.03443l-14.83479,8.56338v-6.91923a3.36189,3.36189,0,0,1,1.68117-2.91161l10.70616-6.18013A1.63171,1.63171,0,0,1,495.97884,126.90289Z"/>
      <path class="cls-17" d="M153.57458,324.85462v6.03443l-14.83479,8.56338V332.5332a3.36189,3.36189,0,0,1,1.68117-2.91161l10.70616-6.18013A1.63171,1.63171,0,0,1,153.57458,324.85462Z"/>
      <path class="cls-18" d="M503.71437,133.44725,141.08814,342.85233l-3.92586-6.7998,362.63941-209.4127.00179.00311a1.97732,1.97732,0,0,1,1.95074.20783,6.13755,6.13755,0,0,1,2.78517,4.8041A1.92625,1.92625,0,0,1,503.71437,133.44725Z"/>
      <ellipse class="cls-17" cx="139.12521" cy="339.45243" rx="2.26305" ry="3.92587" transform="translate(-151.08697 115.04061) rotate(-30)"/>
    </g>
  </g>
  <g>
    <g>
      <g>
        <path class="cls-19" d="M227.522,69.95177a191.74878,191.74878,0,1,1-74.8872,15.113,191.17959,191.17959,0,0,1,74.8872-15.113m0-17.54224c-115.95068,0-209.94726,93.99658-209.94726,209.94751,0,115.95069,93.99658,209.94727,209.94726,209.94727S437.46924,378.30773,437.46924,262.357c0-115.95093-93.99658-209.94751-209.94727-209.94751Z"/>
        <circle class="cls-20" cx="227.522" cy="262.35693" r="194.19259"/>
        <path class="cls-21" d="M106.62266,388.71927l59.994,58.07422a193.9851,193.9851,0,0,0,60.90544,9.75594c107.2495,0,194.19253-86.94291,194.19253-194.19253a193.96865,193.96865,0,0,0-10.0168-61.70881l-63.90546-65.10092Z"/>
      </g>
      <rect class="cls-22" x="96.23889" y="131.07382" width="262.56622" height="262.56622" rx="25.40683"/>
      <g>
        <circle class="cls-19" cx="407.87164" cy="147.25692" r="62.02326"/>
        <g>
          <rect class="cls-22" x="386.81485" y="138.61469" width="13.46241" height="40.4658" transform="translate(2.94477 324.80447) rotate(-45)"/>
          <rect class="cls-22" x="413.02568" y="121.43382" width="13.46241" height="60.59444" transform="translate(609.27978 555.83402) rotate(-135)"/>
        </g>
      </g>
    </g>
    <path class="cls-23" d="M227.522,163.62741a98.72949,98.72949,0,1,0,98.72974,98.72949A98.72942,98.72942,0,0,0,227.522,163.62741Zm0,177.82861A79.09912,79.09912,0,1,1,306.6211,262.3569,79.099,79.099,0,0,1,227.522,341.456Z"/>
    <path class="cls-24" d="M148.42237,262.36081a78.96129,78.96129,0,0,0,31.18994,62.93994l-10.16992,16.88989a98.55032,98.55032,0,0,1-40.65015-79.82983Z"/>
    <path class="cls-25" d="M138.5374,261.88044l68.559-16.36191,20.96572,16.1226-19.78282,17.55414-69.53808-11.51141A2.96205,2.96205,0,0,1,138.5374,261.88044Z"/>
    <path class="cls-26" d="M286.68433,341.4028l-10.38867-16.79858a79.02874,79.02874,0,0,1-96.67627.68457L169.44,342.19406a98.74115,98.74115,0,0,0,117.24438-.79126Z"/>
    <circle class="cls-27" cx="227.522" cy="262.35693" r="42.56481"/>
    <circle class="cls-28" cx="227.522" cy="262.35693" r="33.22615"/>
    <g>
      <circle class="cls-29" cx="357.81513" cy="318.8215" r="37.51325"/>
      <polygon class="cls-22" points="376.828 312.674 363.963 312.674 363.963 299.808 351.667 299.808 351.667 312.674 338.802 312.674 338.802 324.97 351.667 324.97 351.667 337.835 363.963 337.835 363.963 324.97 376.828 324.97 376.828 312.674"/>
    </g>
    <g>
      <circle class="cls-30" cx="97.22887" cy="318.8215" r="37.51325"/>
      <rect class="cls-22" x="78.21553" y="312.67362" width="38.02667" height="12.29612"/>
    </g>
  </g>
  <g>
    <circle class="cls-31" cx="522.38695" cy="212.63531" r="47.59782"/>
    <polygon class="cls-32" points="826.426 640.154 297.105 640.154 297.105 521.393 490.702 216.245 554.082 216.245 680.702 413.333 684.509 419.244 826.426 640.154"/>
    <g>
      <circle class="cls-22" cx="522.38695" cy="228.29656" r="14.18311"/>
      <path class="cls-33" d="M554.08061,216.24665c0,10.05973-14.18974,18.21475-31.69366,18.21475s-31.69365-8.155-31.69365-18.21475,31.69365-18.929,31.69365-18.929S554.08061,206.18693,554.08061,216.24665Z"/>
    </g>
    <rect class="cls-34" x="520.37146" y="165.03748" width="4.03099" height="35.33083"/>
  </g>
  <g>
    <g>
      <path class="cls-35" d="M548.52111,465.02322v76.9897a1.74094,1.74094,0,0,0,2.611,1.50791l48.82657-28.17015a5.22282,5.22282,0,0,0,2.61249-4.52372V437.33929"/>
      <path class="cls-36" d="M479.202,425.1117v76.9897a1.74094,1.74094,0,0,0,2.61106,1.5079l63.08066-36.39966a5.22281,5.22281,0,0,0,2.61249-4.52372V389.19826"/>
      <g>
        <path class="cls-37" d="M604.80363,398.221v41.964a3.498,3.498,0,0,1-1.74672,3.04229l-51.70209,29.89431a6.99685,6.99685,0,0,1-3.508.93164L533.5927,398.221Z"/>
        <path class="cls-38" d="M547.8468,398.221V474.0533a6.99722,6.99722,0,0,1-3.50838-.93164L478.397,434.99784a3.48239,3.48239,0,0,1-1.76148-3.04229v-41.964Z"/>
        <polygon class="cls-39" points="542.463 462.801 482.02 427.872 482.04 401.11 542.463 436.051 542.463 462.801"/>
        <path class="cls-40" d="M476.63551,382.19818v7.65773a3.47237,3.47237,0,0,0,1.75076,3.03443l65.95179,38.12776a7.01028,7.01028,0,0,0,7.017,0l51.69781-29.89825a3.47232,3.47232,0,0,0,1.75076-3.03442v-7.65774Z"/>
        <path class="cls-41" d="M603.05287,387.39327,537.101,349.26556a7.01,7.01,0,0,0-7.017,0l-51.69779,29.8982a3.505,3.505,0,0,0,0,6.06884l65.95189,38.12771a7.01,7.01,0,0,0,7.017,0l51.69779-29.8982A3.505,3.505,0,0,0,603.05287,387.39327Z"/>
      </g>
    </g>
    <g>
      <g>
        <path class="cls-42" d="M565.2579,382.21236c-2.62966-6.41617-12.6044-11.19641-24.53836-11.19641s-21.9087,4.78024-24.53827,11.19641h-.70019v3.35219c0,8.035,11.29961,14.5486,25.23846,14.5486s25.23855-6.51362,25.23855-14.5486v-3.35219Z"/>
        <ellipse class="cls-43" cx="540.71959" cy="381.7186" rx="25.23852" ry="14.54865"/>
      </g>
      <path class="cls-44" d="M537.41257,341.23614v37.46434c0,1.05282,1.4806,1.90631,3.307,1.90631s3.307-.85349,3.307-1.90631V341.23614Z"/>
      <path class="cls-45" d="M506.77663,308.42788V339.543c0,10.77367,15.19673,19.50744,33.943,19.50744s33.943-8.73377,33.943-19.50744V308.42788Z"/>
      <path class="cls-46" d="M506.32123,303.11249V334.6451c0,10.91822,15.40061,19.76917,34.39838,19.76917s34.39839-8.851,34.39839-19.76917V303.11249Z"/>
      <g>
        <ellipse class="cls-12" cx="540.71959" cy="303.11259" rx="34.3984" ry="19.76919"/>
        <path class="cls-47" d="M533.30186,320.87788a33.58129,33.58129,0,0,0,14.83536,0V310.26H533.30186Z"/>
        <ellipse class="cls-48" cx="540.71959" cy="310.26008" rx="7.41771" ry="4.27591"/>
        <path class="cls-49" d="M540.71957,285.03884c18.03247,0,32.70279,8.10781,32.70279,18.0737s-14.67032,18.07385-32.70279,18.07385-32.70278-8.108-32.70278-18.07385,14.67032-18.0737,32.70278-18.0737m0-1.69547c-18.99762,0-34.39838,8.851-34.39838,19.76917,0,10.91832,15.40076,19.76931,34.39838,19.76931s34.39839-8.851,34.39839-19.76931c0-10.91818-15.40076-19.76917-34.39839-19.76917Z"/>
      </g>
    </g>
  </g>
  <path class="cls-50" d="M316.42918,724.90815,522.76686,844.03179a19.45664,19.45664,0,0,0,19.45858-.00149l283.094-163.49471a9.72834,9.72834,0,0,0-.00064-16.849L619.04382,544.57764a19.45665,19.45665,0,0,0-19.45765-.00057L316.429,708.05809A9.72833,9.72833,0,0,0,316.42918,724.90815Z"/>
  <g>
    <g>
      <g>
        <path class="cls-51" d="M833.88188,466.5933,629.011,345.49021a2.97453,2.97453,0,0,0-3.24439.12842v-.00012l-18.09561,10.467,18.58033,10.86817v87.31482L838.302,566.27073V474.34092A9.00016,9.00016,0,0,0,833.88188,466.5933Z"/>
        <path class="cls-52" d="M606.251,358.6355V465.85306L820.06874,576.83347V484.9037a9,9,0,0,0-4.42023-7.74762L610.77762,356.053A3,3,0,0,0,606.251,358.6355Z"/>
        <path class="cls-53" d="M820.06859,484.9037V585.58345l-286.14844,33.8783V829.94252a18.73026,18.73026,0,0,0,9.42432-2.50567L833.64589,659.5616a9.61615,9.61615,0,0,0,4.65356-8.58051l.00269-66.74377V474.341Z"/>
        <path class="cls-54" d="M533.92023,619.46178V829.94252a18.60414,18.60414,0,0,1-9.28406-2.50566L326.33307,712.95209a9.23427,9.23427,0,0,1-4.66546-7.95644V637.61851Z"/>
        <g>
          <path class="cls-55" d="M820.06874,566.5459v35.20094l-.00936-.00936a9.25254,9.25254,0,0,1-4.64668,8.49867L543.34193,767.36408a18.63645,18.63645,0,0,1-9.42432,2.50567V590.84527Z"/>
          <path class="cls-56" d="M820.06874,580.48642v35.20093l-.00936-.00936a9.25255,9.25255,0,0,1-4.64668,8.49868L543.34193,781.3046a18.63654,18.63654,0,0,1-9.42432,2.50566V604.78579Z"/>
          <path class="cls-57" d="M533.91761,604.78579V783.81026a18.62156,18.62156,0,0,1-9.2747-2.50566L326.33975,666.81983a9.267,9.267,0,0,1-4.67475-8.10607V622.81167Z"/>
          <path class="cls-12" d="M731.20408,568.10614v84.7818L543.34381,761.38681a18.63076,18.63076,0,0,1-9.42,2.50853V584.87655Z"/>
          <path class="cls-58" d="M820.073,560.563v35.20734h-.01756a9.24737,9.24737,0,0,1-4.64853,8.4904l-84.20287,48.62721v-84.7818Z"/>
          <path class="cls-59" d="M533.91761,584.87077V763.89524a18.62156,18.62156,0,0,1-9.2747-2.50566L326.33975,646.90481a9.267,9.267,0,0,1-4.67475-8.10607V602.89665Z"/>
          <path class="cls-60" d="M326.33731,611.38031,524.64015,725.86524a18.699,18.699,0,0,0,18.70086-.00143l272.0702-157.12819a9.34951,9.34951,0,0,0-.0006-16.19293L617.16807,438.0719a18.69906,18.69906,0,0,0-18.7-.00054l-272.13095,157.115A9.34951,9.34951,0,0,0,326.33731,611.38031Z"/>
          <path class="cls-61" d="M728.36546,614.90427,515.17982,491.80519a20.02132,20.02132,0,0,0-5.92779-2.2249L326.33708,595.18635a9.34949,9.34949,0,0,0,.00043,16.19394L524.64006,725.8652a18.69868,18.69868,0,0,0,18.70075-.00139l187.871-108.50069A10.04941,10.04941,0,0,0,728.36546,614.90427Z"/>
        </g>
      </g>
      <path class="cls-62" d="M833.64589,460.77641V659.5616l-5.26978,3.0474V460.77641a6.59747,6.59747,0,0,0-3.23022-5.67l-209.75-123.99a.392.392,0,0,0-.43994,0,.40027.40027,0,0,0-.22.38v20.51l-5.27,3.04v-23.55a5.702,5.702,0,0,1,8.61011-4.91l209.75,123.99A11.8953,11.8953,0,0,1,833.64589,460.77641Z"/>
    </g>
    <path class="cls-63" d="M809.36419,656.44292,559.8262,800.7476a9,9,0,0,0-4.49452,7.79106v11.96621l258.52514-149.4997.00919-11.96292A3,3,0,0,0,809.36419,656.44292Z"/>
  </g>
  <g>
    <path class="cls-58" d="M563.57273,462.3609c.20371-.21975,39.81729-22.94042,39.81729-22.94042-.20613-1.37548.13953-2.57082,1.0243-3.0308,1.00433-.522,2.38667.05866,3.467,1.31608,10.36242-4.28939,20.06192-2.852,47.40061,12.69117,35.43143,20.14428,44.62807,31.92491,45.51431,43.23314,2.466,1.17123,3.31124,2.63359,2.74776,4.10938-.52156,1.366-2.14659,1.47578-4.41352.93409-.27192-.065-.54653-.07637-.80639-.13536l-37.38326,21.46547c.3562,1.57994-.246,3.69466-1.241,4.19256-1.30755.65449-3.17773-.702-4.01387-3.33395l-.00092-.00209c-16.29735-.6754-34.383-12.57052-49.1134-21.8596-12.24116-7.71949-37.18425-18.15531-42.79683-31.39341-2.16333-.005-4.17084-1.30135-4.25281-2.67082C559.43882,463.54323,561.3703,462.59411,563.57273,462.3609Z"/>
    <path class="cls-58" d="M668.87762,525.94854c.20371-.21975,39.81728-22.94043,39.81728-22.94043-.20613-1.37548-.53392-3.0027.35085-3.46267,1.00433-.52206,3.06012.49053,4.14049,1.748,13.74332-2.90175,20.06192-2.852,47.40061,12.69117,35.43143,20.14428,37.58278,29.16356,45.51431,43.23314,2.466,1.17123,3.78082,1.96279,3.21734,3.43857-.52156,1.366-3.95443,2.0728-5.68948,1.46955l-37.38326,21.46546c.35619,1.57994-.246,3.69466-1.241,4.19256-1.30756.65449-3.17774-.702-4.01387-3.334l-.00092-.00209c-16.29735-.6754-38.4884-10.59834-53.21876-19.88741-12.24117-7.7195-33.0789-20.1275-38.69147-33.36559-2.16333-.005-4.27247-1.08622-4.35444-2.45569C664.64208,527.346,666.67519,526.18174,668.87762,525.94854Z"/>
  </g>
  <g>
    <path class="cls-5" d="M559.87921,452.81181c.20371-.21975,39.81729-22.94043,39.81729-22.94043-.20613-1.37548.13953-2.57082,1.0243-3.03079,1.00433-.52206,2.38667.05865,3.467,1.31607,10.36243-4.28938,20.06192-2.852,47.40061,12.69117,35.43143,20.14428,44.62807,31.92492,45.51431,43.23314,2.466,1.17123,3.31124,2.6336,2.74776,4.10938-.52156,1.366-2.14659,1.47578-4.41352.9341-.27192-.065-.54653-.07637-.80639-.13536l-37.38326,21.46546c.3562,1.57994-.246,3.69466-1.241,4.19257-1.30755.65448-3.17773-.702-4.01387-3.334l-.00092-.00209c-16.29735-.6754-34.383-12.57052-49.1134-21.8596-12.24116-7.71949-37.18425-18.15531-42.79683-31.3934-2.16332-.005-4.17084-1.30135-4.25281-2.67082C555.7453,453.99413,557.67678,453.045,559.87921,452.81181Z"/>
    <path class="cls-5" d="M665.1841,516.39944c.20371-.21975,39.81728-22.94042,39.81728-22.94042-.20613-1.37549-.53392-3.00271.35085-3.46268,1.00433-.522,3.06013.49054,4.14049,1.748,13.74332-2.90175,20.06192-2.852,47.40062,12.69117,35.43142,20.14427,37.58277,29.16355,45.5143,43.23314,2.466,1.17122,3.78082,1.96278,3.21734,3.43856-.52156,1.366-3.95443,2.07281-5.68948,1.46955l-37.38326,21.46546c.35619,1.57995-.246,3.69466-1.241,4.19257-1.30756.65449-3.17774-.702-4.01387-3.33395l-.00092-.00209c-16.29735-.67541-38.4884-10.59834-53.21876-19.88742-12.24117-7.71949-33.0789-20.1275-38.69147-33.36559-2.16333-.005-4.27247-1.08622-4.35444-2.45569C660.94856,517.7969,662.98167,516.63264,665.1841,516.39944Z"/>
  </g>
  <g>
    <g>
      <polygon class="cls-64" points="771.149 304.223 771.189 394.925 693.909 350.171 693.87 259.469 771.149 304.223"/>
      <polygon class="cls-65" points="767.843 302.314 767.874 380.942 704.321 344.113 704.29 265.485 767.843 302.314"/>
      <polygon class="cls-66" points="756.487 310.97 756.508 364.275 713.423 339.308 713.402 286.003 756.487 310.97"/>
      <path class="cls-67" d="M766.85144,387.41831l-68.61231-39.7495-.03221-80.69349,68.61233,39.74951.03219,80.69348m4.33729,7.5063-.03922-90.70187L693.86964,259.469l.03924,90.70188,77.27985,44.75371Z"/>
      <polygon class="cls-68" points="698.76 256.638 776.04 301.392 771.149 304.223 693.87 259.469 698.76 256.638"/>
      <polygon class="cls-69" points="776.04 301.392 776.063 392.103 771.189 394.925 771.149 304.223 776.04 301.392"/>
    </g>
    <g>
      <polygon class="cls-70" points="836.398 326.384 836.437 385.085 783.406 354.332 783.367 295.63 836.398 326.384"/>
      <polygon class="cls-71" points="833.092 324.475 833.122 371.103 793.818 348.274 793.787 301.646 833.092 324.475"/>
      <path class="cls-72" d="M832.1001,377.57918l-44.3636-25.7495-.03221-48.69349,44.36362,25.74951.03219,48.69348m4.33729,7.5063-.03922-58.70187L783.367,295.62989l.03924,58.70188,53.03114,30.75371Z"/>
      <polygon class="cls-73" points="788.258 292.799 841.289 323.552 836.398 326.384 783.367 295.63 788.258 292.799"/>
      <polygon class="cls-74" points="841.289 323.552 841.312 382.264 836.437 385.085 836.398 326.384 841.289 323.552"/>
    </g>
  </g>
  <g>
    <g>
      <path class="cls-75" d="M817.9279,435.04047s-3.78982,8.4554-1.02891,15.91352,13.90744,5.74475,13.90744,5.74475l-6.928-19.13773Z"/>
      <g>
        <path class="cls-76" d="M809.41134,412.708s-3.72652,3.93089-3.72652,9.10974a11.51541,11.51541,0,0,0,3.83057,8.31356l3.02883-9.34247Z"/>
        <path class="cls-77" d="M818.443,450.67123c7.94976-.3903,12.85081-4.41648,14.29467-11.753l3.09567-15.86644c1.42763-6.36571-3.51987-13.24742-11.03915-14.25787-6.57176-.88312-14.08451,3.63594-15.06633,10.91556a148.47458,148.47458,0,0,0-1.01368,16.24835C808.7923,443.20753,811.05323,451.034,818.443,450.67123Z"/>
        <path class="cls-77" d="M819.14921,453.73041l-.29832-3.28157,3.74842-7.63536s2.75506,7.92545,2.66556,7.8699S819.14921,453.73041,819.14921,453.73041Z"/>
      </g>
    </g>
    <g>
      <path class="cls-78" d="M861.96836,736.1118s2.12877,5.8299.96488,9.4379-7.88483,4.87569-11.31068,1.57983c-2.96356-2.85112-2.56491-3.26828-5.46541-7.43783-3.02908-4.35438-8.2441-9.81052-8.71109-14.49859-1.07474-10.78928,13.36483-5.43225,13.36483-5.43225Z"/>
      <path class="cls-77" d="M862.76429,729.17537s1.33284,9.02733.16895,12.63533-7.88483,4.87568-11.31068,1.57982c-2.96356-2.85111-2.33474-3.76-5.23525-7.92955-3.02907-4.35437-7.27115-8.83991-7.49233-11.72257-.82946-10.8109,11.91591-7.71655,11.91591-7.71655Z"/>
      <path class="cls-78" d="M846.108,736.1937s-1.01224-5.215.60565-7.69476c2.87553-4.40741,9.42467-5.30745,9.42467-5.30745l-7.70213-7.57974a10.13128,10.13128,0,0,0-8.2766,2.3457c-2.42206,2.1715-1.30338,7.09645-1.30338,7.09645Z"/>
      <path class="cls-77" d="M860.497,565.24249l.32625,79.14716c3.34125,25.53669,1.17874,52.52348.86705,78.99649l1.074,5.78931-11.56121-1.08177S826.35766,629.11552,826.35766,577.399Z"/>
      <path class="cls-78" d="M862.72455,565.24256l.01441,78.99079c.92951,5.347.67112,48.68389.67112,48.68389-.20825,10.26237-18.30662,11.0579-20.13634,4.21632,0,0-15.73635-66.29234-16.32448-71.35928l-.5916-48.37531Z"/>
      <path class="cls-78" d="M821.29151,758.823c.98551.59177,2.82459,4.58644,1.90887,7.316s-3.55359,3.82385-7.14336,3.82385-6.96695-1.201-13.03763-1.75131c-8.16592-.74028-12.68875.07955-17.91464-2.55981-6.71613-3.392-3.55545-10.93726,1.99362-11.44766,1.68024-.15455,6.74264-.20069,6.74264-.20069l12.98861-3.35971S820.306,758.23122,821.29151,758.823Z"/>
      <path class="cls-77" d="M820.084,749.87737l-13.68076-.48289-13.0957,3.17845s-4.58681.306-6.16625.45118c-5.21644.47992-7.18456,6.01726-1.00461,9.45685,6.08592,3.38756,9.9226,2.131,17.59869,2.82707,5.70663.51713,8.1227,1.22549,11.49725,1.22549s5.85406-1.02831,6.71487-3.59432S820.084,749.87737,820.084,749.87737Z"/>
      <path class="cls-77" d="M795.3429,583.7673c0,42.08137,12.928,162.567,12.928,162.567l-1.41511,3.07613,13.2282.46691s6.31565-52.17641,3.89811-85.75841l7.54573-67.93849Z"/>
      <path class="cls-79" d="M862.72451,565.24241a131.77582,131.77582,0,0,0-5.70912-35.92682l-61.79417,7.99261s-2.74264,26.23814-2.74264,46.4591c0,64.441,11.03842,135.74062,11.03842,135.74062.65631,7.259,19.45078,8.353,20.37754-3.01463,1.32354-12.977,2.28563-24.91932,3.27569-46.0854l7.46014-75.18206Z"/>
      <path class="cls-60" d="M841.52357,555.847s17.46836-5.84843,18.97345-12.58931c.15447,1.065,2.39934,11.2932,2.54255,12.408,1.03735,8.13668-4.49906,16.49251-19.04773,22.88372-18.51639,8.1343-53.3419,2.06437-51.9504-11.16714l3.30146-23.19584C799.72911,556.22512,841.52357,555.847,841.52357,555.847Z"/>
      <g>
        <path class="cls-77" d="M887.40237,465.35224l-1.5814-9.27147a7.84029,7.84029,0,0,1,.18281-3.57349s2.40511-9.92917,5.25834-9.83519,6.05526,3.4567,6.56857,6.27695,1.18773,7.7697.25426,11.26644a72.94864,72.94864,0,0,1-3.038,8.30656S887.65372,469.12624,887.40237,465.35224Z"/>
        <path class="cls-77" d="M881.338,476.69147l6.8018-12.80808L895.047,468.522l-3.58224,12.15327C889.69585,485.17187,879.56913,481.188,881.338,476.69147Z"/>
        <path class="cls-80" d="M851.39947,450.91428c10.58722,4.45691,25.33789,28.28306,25.33789,28.28306l4.004-4.41515c2.3866-3.023,13.16607,1.94906,12.17609,6.60024a99.18911,99.18911,0,0,1-3.50478,11.697c-2.88434,7.69085-9.25494,9.87817-14.70534,7.83788-4.463-1.67067-19.057-13.86406-19.057-13.86406Z"/>
        <path class="cls-81" d="M864.14269,493.85029c-3.12061-2.39918-6.02345-4.76139-7.491-5.96862l5.32313-12.00617Z"/>
      </g>
      <path class="cls-82" d="M831.86394,450.41979c17.72984-5.05766,33.57148,3.22112,30.11091,25.45575l-6.64879,40.149,5.815,24.01064c1.58346,7.37913-4.20682,14.30249-18.14575,20.42586-17.74038,7.79336-50.74107,2.77837-50.43717-11.13745l5.20879-31.38662-2.96949-37.55524C797.84609,469.125,811.65742,456.184,831.86394,450.41979Z"/>
      <path class="cls-81" d="M792.77152,551.306l21.50309-55.36253-7.15344,66.17789C799.58092,560.02773,793.87566,556.34395,792.77152,551.306Z"/>
      <path class="cls-83" d="M813.53728,458.50633a40.2863,40.2863,0,0,1,6.64658-6.74541c2.187-1.64813,11.31528-5.55277,14.6274-4.713a24.62129,24.62129,0,0,1,5.31018,1.93752C833.52846,449.80247,823.96218,453.979,813.53728,458.50633Z"/>
      <path class="cls-77" d="M788.84606,598.51351l.13057-10.50036-.04009,3.224c.77516,2.2707,2.63034,1.408,2.984-.5339l.46276-5.285a9.892,9.892,0,0,0-.49688-2.51959l-2.5581-7.80878-8.92378-3.31975s-2.351,11.86341-2.351,15.3532a13.29553,13.29553,0,0,0,3.26928,8.435l4.19083,4.33838C787.06834,601.32735,788.77254,600.28167,788.84606,598.51351Z"/>
      <path class="cls-77" d="M796.05888,553.878l-6.8217,21.49927c-.79109,3.43309-9.68117.1714-8.89007-3.26168l4.19643-25.21839Z"/>
      <path class="cls-84" d="M787.3141,528.16244s5.12624-40.0715,7.63826-48.29781c3.81745-12.50138,21.94752.20785,19.32226,16.07873,0,0-4.57431,25.93436-8.23376,36.91271-3.46371,10.39113-8.11529,22.57254-8.11529,22.57254-1.66613,5.236-15.6493,1.93981-14.75432-4.17585Z"/>
      <path class="cls-78" d="M802.37787,750.37147a6.42066,6.42066,0,0,0-2.383,5.17407c-.09983,3.66382,4.118,9.349,4.118,9.349l4.74272,1.00972-16.377-.37766a8.19411,8.19411,0,0,1-6.74454-1.32449c-2.92453-2.368-7.24468-8.45745,1.18085-11.64894C790.0473,751.2704,802.37787,750.37147,802.37787,750.37147Z"/>
    </g>
    <g>
      <path class="cls-85" d="M807.3911,416.218c1.05873-4.0785,9.89829-13.31756,24.07864-9.29435,9.384,3.0362,11.93476,9.10908,14.36414,20.23856,1.662,7.61393,7.3604,9.71171,9.29449,20.33812,2.38129,13.08346-16.39445,21.47909-27.62357,13.99646-7.67791-5.11625-4.80865-19.52955-4.80865-19.52955s.55239-4.03856,1.05313-6.5108l-2.40156.82487-.26353,1.67315c-3.29254,1.28611-5.44592-3.014-4.203-6.122C806.07921,423.9614,806.47556,419.74515,807.3911,416.218Z"/>
      <path class="cls-77" d="M821.60823,442.81288c2.66321.0543,4.98091-3.6186,5.04252-6.64069s-2.50315-5.61879-4.8194-4.30326C818.9237,433.52036,818.945,442.75858,821.60823,442.81288Z"/>
    </g>
  </g>
</svg>
