<svg id="Layer_1" data-name="Layer 1" xmlns="http://www.w3.org/2000/svg" xmlns:xlink="http://www.w3.org/1999/xlink" viewBox="0 0 1000 1000">
  <defs>
    <style>
      .cls-1 {
        fill: url(#linear-gradient);
      }

      .cls-2 {
        fill: #b8cbd8;
      }

      .cls-3 {
        fill: url(#linear-gradient-2);
      }

      .cls-4 {
        fill: url(#linear-gradient-3);
      }

      .cls-5 {
        fill: url(#linear-gradient-4);
      }

      .cls-6 {
        fill: url(#linear-gradient-5);
      }

      .cls-7 {
        fill: url(#linear-gradient-6);
      }

      .cls-8 {
        fill: url(#linear-gradient-7);
      }

      .cls-9 {
        fill: url(#linear-gradient-8);
      }

      .cls-10 {
        fill: url(#linear-gradient-9);
      }

      .cls-11 {
        fill: url(#linear-gradient-10);
      }

      .cls-12 {
        fill: #2a3f5e;
        opacity: 0.2;
      }

      .cls-13 {
        fill: url(#linear-gradient-11);
      }

      .cls-14 {
        fill: #e58630;
      }

      .cls-15 {
        fill: url(#linear-gradient-12);
      }

      .cls-16 {
        fill: url(#linear-gradient-13);
      }

      .cls-17 {
        fill: url(#linear-gradient-14);
      }

      .cls-18 {
        fill: url(#linear-gradient-15);
      }

      .cls-19 {
        fill: url(#linear-gradient-16);
      }

      .cls-20 {
        fill: url(#linear-gradient-17);
      }

      .cls-21 {
        fill: url(#linear-gradient-18);
      }

      .cls-22 {
        fill: url(#linear-gradient-19);
      }

      .cls-23 {
        fill: #541510;
        opacity: 0.3;
      }

      .cls-24 {
        fill: url(#linear-gradient-20);
      }

      .cls-25 {
        fill: url(#linear-gradient-21);
      }

      .cls-26 {
        fill: #bcd0e2;
      }

      .cls-27 {
        fill: #e9f1f4;
      }

      .cls-28 {
        fill: url(#linear-gradient-22);
      }

      .cls-29 {
        fill: #606060;
      }

      .cls-30 {
        fill: url(#linear-gradient-23);
      }

      .cls-31 {
        fill: url(#linear-gradient-24);
      }

      .cls-32 {
        fill: #f0f9fc;
      }

      .cls-33 {
        fill: url(#linear-gradient-25);
      }

      .cls-34 {
        fill: url(#linear-gradient-26);
      }

      .cls-35 {
        fill: url(#linear-gradient-27);
      }

      .cls-36 {
        fill: url(#linear-gradient-28);
      }

      .cls-37 {
        fill: url(#linear-gradient-29);
      }

      .cls-38 {
        fill: url(#linear-gradient-30);
      }

      .cls-39 {
        fill: url(#linear-gradient-31);
      }

      .cls-40 {
        fill: url(#linear-gradient-32);
      }

      .cls-41 {
        fill: url(#linear-gradient-33);
      }

      .cls-42 {
        fill: #d7ebf4;
      }

      .cls-43 {
        fill: #7995a8;
      }

      .cls-44 {
        fill: url(#linear-gradient-34);
      }

      .cls-45 {
        fill: url(#linear-gradient-35);
      }

      .cls-46 {
        fill: url(#linear-gradient-36);
      }

      .cls-47 {
        fill: #ffcb48;
      }

      .cls-48 {
        fill: #404e59;
      }

      .cls-49 {
        fill: #27343d;
      }

      .cls-50 {
        fill: #ffbea4;
      }

      .cls-51 {
        fill: url(#linear-gradient-37);
      }

      .cls-52 {
        fill: #dd7b19;
        opacity: 0.6;
      }

      .cls-53 {
        fill: #303d49;
      }

      .cls-54 {
        fill: url(#linear-gradient-38);
      }

      .cls-55 {
        fill: url(#linear-gradient-39);
      }

      .cls-56 {
        fill: #f2f2f2;
      }

      .cls-57 {
        fill: #e5907c;
      }

      .cls-58 {
        fill: url(#linear-gradient-40);
      }

      .cls-59 {
        fill: url(#linear-gradient-41);
      }

      .cls-60 {
        fill: url(#linear-gradient-42);
      }

      .cls-61 {
        fill: #ffbda3;
      }

      .cls-62 {
        fill: #323f4c;
      }

      .cls-63 {
        fill: url(#linear-gradient-43);
      }

      .cls-64 {
        fill: url(#linear-gradient-44);
      }

      .cls-65 {
        fill: url(#linear-gradient-45);
      }

      .cls-66 {
        fill: url(#linear-gradient-46);
      }

      .cls-67 {
        fill: url(#linear-gradient-47);
      }

      .cls-68 {
        fill: url(#linear-gradient-48);
      }

      .cls-69 {
        fill: url(#linear-gradient-49);
      }

      .cls-70 {
        fill: url(#linear-gradient-50);
      }

      .cls-71 {
        fill: url(#linear-gradient-51);
      }

      .cls-72 {
        fill: url(#linear-gradient-52);
      }

      .cls-73 {
        fill: url(#linear-gradient-53);
      }

      .cls-74 {
        fill: url(#linear-gradient-54);
      }

      .cls-75 {
        fill: url(#linear-gradient-55);
      }

      .cls-76 {
        fill: url(#linear-gradient-56);
      }

      .cls-77 {
        fill: url(#linear-gradient-57);
      }

      .cls-78 {
        fill: url(#linear-gradient-58);
      }

      .cls-79 {
        fill: url(#linear-gradient-59);
      }

      .cls-80 {
        fill: url(#linear-gradient-60);
      }

      .cls-81 {
        fill: url(#linear-gradient-61);
      }

      .cls-82 {
        fill: url(#linear-gradient-62);
      }

      .cls-83 {
        fill: #724133;
      }

      .cls-84 {
        fill: url(#linear-gradient-63);
      }

      .cls-85 {
        fill: url(#linear-gradient-64);
      }

      .cls-86 {
        fill: url(#linear-gradient-65);
      }

      .cls-87 {
        fill: url(#linear-gradient-66);
      }

      .cls-88 {
        fill: url(#linear-gradient-67);
      }

      .cls-89 {
        fill: url(#linear-gradient-68);
      }

      .cls-90 {
        fill: url(#linear-gradient-69);
      }
    </style>
    <linearGradient id="linear-gradient" x1="499.99188" y1="393.55996" x2="921.27857" y2="393.55996" gradientUnits="userSpaceOnUse">
      <stop offset="0" stop-color="#f0f9ff"/>
      <stop offset="1" stop-color="#c3d6e6"/>
    </linearGradient>
    <linearGradient id="linear-gradient-2" x1="541.30297" y1="293.78781" x2="596.5573" y2="293.78781" gradientUnits="userSpaceOnUse">
      <stop offset="0" stop-color="#3e4c59"/>
      <stop offset="1" stop-color="#293440"/>
    </linearGradient>
    <linearGradient id="linear-gradient-3" x1="549.66476" y1="293.79009" x2="588.18656" y2="293.79009" gradientUnits="userSpaceOnUse">
      <stop offset="0" stop-color="#5b6f82"/>
      <stop offset="1" stop-color="#849bb2"/>
    </linearGradient>
    <linearGradient id="linear-gradient-4" x1="582.17955" y1="170.55047" x2="547.6611" y2="419.32137" gradientUnits="userSpaceOnUse">
      <stop offset="0" stop-color="#62778c"/>
      <stop offset="1" stop-color="#435466"/>
    </linearGradient>
    <linearGradient id="linear-gradient-5" x1="613.08527" y1="153.80842" x2="515.94761" y2="439.92298" xlink:href="#linear-gradient-3"/>
    <linearGradient id="linear-gradient-6" x1="833.08744" y1="466.82722" x2="888.34177" y2="466.82722" xlink:href="#linear-gradient-2"/>
    <linearGradient id="linear-gradient-7" x1="841.44923" y1="466.82951" x2="879.97103" y2="466.82951" xlink:href="#linear-gradient-3"/>
    <linearGradient id="linear-gradient-8" x1="872.85407" y1="326.2351" x2="843.12482" y2="586.66328" xlink:href="#linear-gradient-4"/>
    <linearGradient id="linear-gradient-9" x1="905.95945" y1="330.37886" x2="808.74588" y2="603.46061" xlink:href="#linear-gradient-3"/>
    <linearGradient id="linear-gradient-10" x1="78.72143" y1="719.89267" x2="921.27857" y2="719.89267" gradientUnits="userSpaceOnUse">
      <stop offset="0" stop-color="#dae9f2"/>
      <stop offset="0.99337" stop-color="#c4d5e6"/>
    </linearGradient>
    <linearGradient id="linear-gradient-11" x1="662.22376" y1="828.69886" x2="1046.6433" y2="797.49382" gradientTransform="translate(-293.19035)" gradientUnits="userSpaceOnUse">
      <stop offset="0.00005" stop-color="#ffb348"/>
      <stop offset="1" stop-color="#e68e2b"/>
    </linearGradient>
    <linearGradient id="linear-gradient-12" x1="-2549.23498" y1="599.50938" x2="-2525.97861" y2="599.50938" gradientTransform="matrix(-1, 0, 0, 1, -2239.97381, 0)" xlink:href="#linear-gradient-2"/>
    <linearGradient id="linear-gradient-13" x1="-3053.75266" y1="652.65382" x2="-3030.49629" y2="652.65382" gradientTransform="matrix(-1, 0, 0, 1, -2239.97381, 0)" xlink:href="#linear-gradient-2"/>
    <linearGradient id="linear-gradient-14" x1="-2848.62225" y1="772.95919" x2="-2825.36589" y2="772.95919" gradientTransform="matrix(-1, 0, 0, 1, -2239.97381, 0)" xlink:href="#linear-gradient-2"/>
    <linearGradient id="linear-gradient-15" x1="-2766.25995" y1="344.5123" x2="-2301.0097" y2="577.75611" gradientTransform="matrix(-1, 0, 0, 1, -2239.97381, 0)" xlink:href="#linear-gradient-2"/>
    <linearGradient id="linear-gradient-16" x1="-2749.18755" y1="278.02588" x2="-2549.35267" y2="539.72914" gradientTransform="matrix(-1, 0, 0, 1, -2239.97381, 0)" gradientUnits="userSpaceOnUse">
      <stop offset="0" stop-color="#62788c"/>
      <stop offset="1" stop-color="#526575"/>
    </linearGradient>
    <linearGradient id="linear-gradient-17" x1="-2756.17687" y1="292.40282" x2="-2551.39251" y2="559.05556" gradientTransform="matrix(-1, 0, 0, 1, -2239.97381, 0)" gradientUnits="userSpaceOnUse">
      <stop offset="0" stop-color="#849bb2"/>
      <stop offset="1" stop-color="#5b6f82"/>
    </linearGradient>
    <linearGradient id="linear-gradient-18" x1="-2936.89821" y1="581.96609" x2="-2497.94202" y2="699.82536" gradientTransform="matrix(-1, 0, 0, 1, -2239.97381, 0)" xlink:href="#linear-gradient-4"/>
    <linearGradient id="linear-gradient-19" x1="-3054.83962" y1="539.31831" x2="-2656.40722" y2="792.97868" xlink:href="#linear-gradient-16"/>
    <linearGradient id="linear-gradient-20" x1="-3041.27836" y1="613.20591" x2="-2475.18265" y2="643.83076" gradientTransform="matrix(-1, 0, 0, 1, -2239.97381, 0)" xlink:href="#linear-gradient-2"/>
    <linearGradient id="linear-gradient-21" x1="-3042.39054" y1="633.7643" x2="-2476.29482" y2="664.38915" gradientTransform="matrix(-1, 0, 0, 1, -2239.97381, 0)" xlink:href="#linear-gradient-2"/>
    <linearGradient id="linear-gradient-22" x1="484.16621" y1="496.42039" x2="764.42999" y2="632.84018" gradientUnits="userSpaceOnUse">
      <stop offset="0" stop-color="#ffcb48"/>
      <stop offset="0.99366" stop-color="#eb9e2f"/>
    </linearGradient>
    <linearGradient id="linear-gradient-23" x1="-2768.95862" y1="332.55426" x2="-2512.9673" y2="332.55426" xlink:href="#linear-gradient-16"/>
    <linearGradient id="linear-gradient-24" x1="-2745.33097" y1="244.2675" x2="-2512.70585" y2="416.8803" xlink:href="#linear-gradient-17"/>
    <linearGradient id="linear-gradient-25" x1="231.30944" y1="706.98281" x2="249.69873" y2="706.98281" xlink:href="#linear-gradient-2"/>
    <linearGradient id="linear-gradient-26" x1="183.26425" y1="679.27188" x2="201.65354" y2="679.27188" xlink:href="#linear-gradient-2"/>
    <linearGradient id="linear-gradient-27" x1="308.80121" y1="661.92199" x2="327.1905" y2="661.92199" xlink:href="#linear-gradient-2"/>
    <linearGradient id="linear-gradient-28" x1="-2209.77478" y1="580.27671" x2="-2148.75708" y2="682.82355" gradientTransform="matrix(-1, 0, 0, 1, -1965.27657, 0)" xlink:href="#linear-gradient-2"/>
    <linearGradient id="linear-gradient-29" x1="-2335.90484" y1="448.5162" x2="-2207.83729" y2="679.59462" gradientTransform="matrix(-1, 0, 0, 1, -1965.27657, 0)" xlink:href="#linear-gradient-4"/>
    <linearGradient id="linear-gradient-30" x1="-2301.67568" y1="467.14309" x2="-2220.00941" y2="683.06376" gradientTransform="matrix(-1, 0, 0, 1, -1965.27657, 0)" xlink:href="#linear-gradient-17"/>
    <linearGradient id="linear-gradient-31" x1="-2318.63994" y1="473.55938" x2="-2236.97367" y2="689.48004" gradientTransform="matrix(-1, 0, 0, 1, -1965.27657, 0)" xlink:href="#linear-gradient-17"/>
    <linearGradient id="linear-gradient-32" x1="-2296.03011" y1="564.8534" x2="-2145.68755" y2="564.8534" gradientTransform="matrix(-1, 0, 0, 1, -1965.27657, 0)" xlink:href="#linear-gradient-16"/>
    <linearGradient id="linear-gradient-33" x1="-2296.03017" y1="539.99011" x2="-2145.6876" y2="539.99011" gradientTransform="matrix(-1, 0, 0, 1, -1965.27657, 0)" xlink:href="#linear-gradient-17"/>
    <linearGradient id="linear-gradient-34" x1="-2249.99176" y1="445.67754" x2="-2184.33394" y2="506.69524" gradientTransform="matrix(-1, 0, 0, 1, -1965.27657, 0)" gradientUnits="userSpaceOnUse">
      <stop offset="0.00005" stop-color="#ffcb48"/>
      <stop offset="1" stop-color="#e68e2b"/>
    </linearGradient>
    <linearGradient id="linear-gradient-35" x1="-2226.10539" y1="461.05952" x2="-2205.9202" y2="461.05952" gradientTransform="matrix(-1, 0, 0, 1, -1965.27657, 0)" xlink:href="#linear-gradient-2"/>
    <linearGradient id="linear-gradient-36" x1="-2226.10537" y1="456.52413" x2="-2205.92009" y2="456.52413" gradientTransform="matrix(-1, 0, 0, 1, -1965.27657, 0)" xlink:href="#linear-gradient-4"/>
    <linearGradient id="linear-gradient-37" x1="442.89438" y1="427.93475" x2="495.79185" y2="609.8278" gradientTransform="matrix(1, 0, 0, 1, 0, 0)" xlink:href="#linear-gradient-34"/>
    <linearGradient id="linear-gradient-38" x1="459.88744" y1="422.9929" x2="512.78491" y2="604.88594" gradientTransform="matrix(1, 0, 0, 1, 0, 0)" xlink:href="#linear-gradient-34"/>
    <linearGradient id="linear-gradient-39" x1="502.90812" y1="410.48178" x2="555.80559" y2="592.37483" gradientTransform="matrix(1, 0, 0, 1, 0, 0)" xlink:href="#linear-gradient-34"/>
    <linearGradient id="linear-gradient-40" x1="246.3433" y1="167.28969" x2="290.49428" y2="213.17208" gradientTransform="translate(237.3829 193.33149) rotate(6.10324)" gradientUnits="userSpaceOnUse">
      <stop offset="0.00634" stop-color="#adc0cc"/>
      <stop offset="1" stop-color="#7b90a6"/>
    </linearGradient>
    <linearGradient id="linear-gradient-41" x1="453.54701" y1="406.06716" x2="494.08301" y2="449.46453" gradientUnits="userSpaceOnUse">
      <stop offset="0" stop-color="#a2b4bf"/>
      <stop offset="1" stop-color="#7b90a6"/>
    </linearGradient>
    <linearGradient id="linear-gradient-42" x1="256.94756" y1="156.5319" x2="302.5344" y2="203.90646" xlink:href="#linear-gradient-40"/>
    <linearGradient id="linear-gradient-43" x1="-2460.36366" y1="206.28378" x2="-2418.06491" y2="206.28378" gradientTransform="matrix(-1, 0, 0, 1, -1993.44681, 0)" gradientUnits="userSpaceOnUse">
      <stop offset="0" stop-color="#435466"/>
      <stop offset="1" stop-color="#62778c"/>
    </linearGradient>
    <linearGradient id="linear-gradient-44" x1="-2447.1364" y1="171.22904" x2="-2421.66466" y2="240.73669" gradientTransform="matrix(-1, 0, 0, 1, -1993.44681, 0)" gradientUnits="userSpaceOnUse">
      <stop offset="0" stop-color="#fff"/>
      <stop offset="0.98888" stop-color="#e6edf2"/>
    </linearGradient>
    <linearGradient id="linear-gradient-45" x1="-2468.93747" y1="179.15817" x2="-2318.26562" y2="316.66243" gradientTransform="matrix(-1, 0, 0, 1, -1993.44681, 0)" xlink:href="#linear-gradient-17"/>
    <linearGradient id="linear-gradient-46" x1="-2468.61854" y1="168.07889" x2="-2322.12002" y2="299.61095" gradientTransform="matrix(-1, 0, 0, 1, -1993.44681, 0)" xlink:href="#linear-gradient-4"/>
    <linearGradient id="linear-gradient-47" x1="-2456.0344" y1="154.06286" x2="-2309.53588" y2="285.59492" gradientTransform="matrix(-1, 0, 0, 1, -1993.44681, 0)" xlink:href="#linear-gradient-4"/>
    <linearGradient id="linear-gradient-48" x1="-2404.56142" y1="264.78071" x2="-2362.26268" y2="264.78071" xlink:href="#linear-gradient-43"/>
    <linearGradient id="linear-gradient-49" x1="-2394.50862" y1="228.71065" x2="-2363.16376" y2="298.95061" xlink:href="#linear-gradient-44"/>
    <linearGradient id="linear-gradient-50" x1="-2472.70739" y1="183.28911" x2="-2322.03554" y2="320.79336" gradientTransform="matrix(-1, 0, 0, 1, -1993.44681, 0)" xlink:href="#linear-gradient-17"/>
    <linearGradient id="linear-gradient-51" x1="-2472.79204" y1="172.72727" x2="-2326.29352" y2="304.25934" gradientTransform="matrix(-1, 0, 0, 1, -1993.44681, 0)" xlink:href="#linear-gradient-4"/>
    <linearGradient id="linear-gradient-52" x1="-2460.2079" y1="158.71124" x2="-2313.70938" y2="290.24331" gradientTransform="matrix(-1, 0, 0, 1, -1993.44681, 0)" xlink:href="#linear-gradient-4"/>
    <linearGradient id="linear-gradient-53" x1="-2348.75918" y1="255.09787" x2="-2306.46044" y2="255.09787" xlink:href="#linear-gradient-43"/>
    <linearGradient id="linear-gradient-54" x1="-2338.70638" y1="219.02781" x2="-2307.36152" y2="289.26777" xlink:href="#linear-gradient-44"/>
    <linearGradient id="linear-gradient-55" x1="-2442.52948" y1="150.22132" x2="-2291.85763" y2="287.72557" gradientTransform="matrix(-1, 0, 0, 1, -1993.44681, 0)" xlink:href="#linear-gradient-17"/>
    <linearGradient id="linear-gradient-56" x1="-2443.07264" y1="139.62624" x2="-2296.57413" y2="271.1583" gradientTransform="matrix(-1, 0, 0, 1, -1993.44681, 0)" xlink:href="#linear-gradient-4"/>
    <linearGradient id="linear-gradient-57" x1="-2430.4885" y1="125.61021" x2="-2283.98999" y2="257.14227" gradientTransform="matrix(-1, 0, 0, 1, -1993.44681, 0)" xlink:href="#linear-gradient-4"/>
    <linearGradient id="linear-gradient-58" x1="-3049.62053" y1="477.67437" x2="-2994.3662" y2="477.67437" gradientTransform="matrix(-1, 0, 0, 1, -2893.44681, 0)" xlink:href="#linear-gradient-2"/>
    <linearGradient id="linear-gradient-59" x1="-3041.25875" y1="477.67665" x2="-3002.73694" y2="477.67665" gradientTransform="matrix(-1, 0, 0, 1, -2893.44681, 0)" xlink:href="#linear-gradient-3"/>
    <linearGradient id="linear-gradient-60" x1="-3008.74396" y1="354.43703" x2="-3043.26241" y2="603.20793" gradientTransform="matrix(-1, 0, 0, 1, -2893.44681, 0)" xlink:href="#linear-gradient-4"/>
    <linearGradient id="linear-gradient-61" x1="-2977.83824" y1="337.69498" x2="-3074.9759" y2="623.80953" gradientTransform="matrix(-1, 0, 0, 1, -2893.44681, 0)" xlink:href="#linear-gradient-3"/>
    <linearGradient id="linear-gradient-62" x1="3569.55644" y1="664.4371" x2="3511.11781" y2="726.44241" gradientTransform="matrix(-1, 0, 0, 1, 3700.21293, 0)" xlink:href="#linear-gradient-34"/>
    <linearGradient id="linear-gradient-63" x1="3494.36713" y1="597.77203" x2="3530.58263" y2="617.52594" gradientTransform="matrix(-1, 0, 0, 1, 3700.21293, 0)" gradientUnits="userSpaceOnUse">
      <stop offset="0" stop-color="#f2883c"/>
      <stop offset="0.16716" stop-color="#e97d35"/>
      <stop offset="0.67368" stop-color="#d26124"/>
      <stop offset="0.96784" stop-color="#c9571e"/>
    </linearGradient>
    <linearGradient id="linear-gradient-64" x1="3514.14251" y1="552.73849" x2="3539.0178" y2="600.47709" xlink:href="#linear-gradient-63"/>
    <linearGradient id="linear-gradient-65" x1="3573.74475" y1="628.87897" x2="3543.56517" y2="648.08415" xlink:href="#linear-gradient-63"/>
    <linearGradient id="linear-gradient-66" x1="3493.63444" y1="620.72375" x2="3533.69097" y2="637.36824" xlink:href="#linear-gradient-63"/>
    <linearGradient id="linear-gradient-67" x1="3508.29948" y1="570.92651" x2="3528.41919" y2="607.32491" xlink:href="#linear-gradient-63"/>
    <linearGradient id="linear-gradient-68" x1="3600.29762" y1="579.17893" x2="3549.63252" y2="624.72266" xlink:href="#linear-gradient-63"/>
    <linearGradient id="linear-gradient-69" x1="3572.0737" y1="554.76501" x2="3548.11295" y2="596.6506" xlink:href="#linear-gradient-63"/>
  </defs>
  <g>
    <g>
      <polygon class="cls-1" points="499.992 67.227 921.279 310.448 921.279 719.893 499.992 476.649 499.992 67.227"/>
      <polygon class="cls-2" points="500.008 67.227 78.721 310.448 78.721 719.893 500.008 476.649 500.008 67.227"/>
    </g>
    <g>
      <g>
        <path class="cls-3" d="M541.303,141.696l8.36179-4.82605,46.89254,27.0428L588.18656,443.736l.00008,6.96969L541.303,423.64812Z"/>
        <polygon class="cls-4" points="549.665 146.521 549.693 418.847 588.187 441.059 588.187 436.216 553.907 416.445 553.907 148.971 549.665 146.521"/>
        <polygon class="cls-5" points="541.303 141.696 541.307 423.652 588.187 450.706 588.187 441.059 549.665 418.83 549.665 146.521 541.303 141.696"/>
        <path class="cls-6" d="M596.5573,163.9127l-63.62862-36.72922V428.49l63.62862,36.72333ZM541.307,423.65181V141.69567l46.87963,27.05877V450.70572Z"/>
      </g>
      <g>
        <path class="cls-7" d="M833.08744,314.73537l8.36179-4.82606,46.89254,27.0428L879.971,616.77544l.00008,6.9697-46.88367-27.05761Z"/>
        <polygon class="cls-8" points="841.449 319.561 841.477 591.886 879.971 614.098 879.971 609.255 845.691 589.484 845.691 322.01 841.449 319.561"/>
        <polygon class="cls-9" points="833.087 314.735 833.092 596.691 879.971 623.745 879.971 614.098 841.449 591.87 841.449 319.561 833.087 314.735"/>
        <path class="cls-10" d="M888.34177,336.95211l-63.62862-36.72922v301.3065l63.62862,36.72334ZM833.09148,596.69122V314.73509l46.87963,27.05877V623.74514Z"/>
      </g>
    </g>
    <path class="cls-11" d="M85.9912,732.49667l392.2106,226.4329a43.61718,43.61718,0,0,0,43.61686-.00063l392.1905-226.4365a14.53907,14.53907,0,0,0,.00018-25.18216L521.80168,480.8567a43.61723,43.61723,0,0,0-43.62.00054L85.99035,707.31448A14.53907,14.53907,0,0,0,85.9912,732.49667Z"/>
    <path class="cls-12" d="M182.58514,685.06883l83.72156-48.32451a8.7051,8.7051,0,0,1,8.71373,0l53.55906,30.97462a4.35255,4.35255,0,0,1,0,7.53634l-83.72157,48.32451a8.70508,8.70508,0,0,1-8.71372,0l-53.55906-30.97462A4.35255,4.35255,0,0,1,182.58514,685.06883Z"/>
    <path class="cls-12" d="M819.90088,672.414,606.5725,795.57353a20.11586,20.11586,0,0,1-20.11783-.00154L240.83309,595.78068a10.05793,10.05793,0,0,1,.00065-17.41988L454.09725,455.2165a20.11586,20.11586,0,0,1,20.11688-.00059L819.90105,654.99306A10.05793,10.05793,0,0,1,819.90088,672.414Z"/>
    <path class="cls-13" d="M439.228,751.83581,368.12547,792.8929a7.26954,7.26954,0,0,0,0,12.59074L508.8512,886.74377a21.8086,21.8086,0,0,0,21.81413-.00178l71.06038-41.04834a7.26954,7.26954,0,0,0,0-12.58955L461.04213,751.8376A21.80863,21.80863,0,0,0,439.228,751.83581Z"/>
    <ellipse class="cls-14" cx="484.92507" cy="820.60717" rx="64.35396" ry="36.98503"/>
    <g>
      <g>
        <path class="cls-15" d="M309.26117,586.3285l-3.20386,21.4329c0,2.72222-3.78529,4.92886-8.45465,4.92886s-8.45465-2.20664-8.45465-4.92886l-3.14321-21.4329Z"/>
        <path class="cls-16" d="M813.77885,639.47294l-3.20386,21.4329c0,2.72222-3.78529,4.92886-8.45465,4.92886s-8.45465-2.20664-8.45465-4.92886l-3.14321-21.4329Z"/>
        <path class="cls-17" d="M608.64844,759.77831l-3.20386,21.4329c0,2.72222-3.78528,4.92886-8.45465,4.92886s-8.45464-2.20664-8.45464-4.92886l-3.14321-21.4329Z"/>
        <polygon class="cls-18" points="279.849 529.781 279.849 386.92 300.57 398.922 300.57 538.809 279.849 529.781"/>
        <g>
          <polygon class="cls-19" points="522.085 267.98 522.085 413.513 300.57 528.489 300.57 398.922 522.085 267.98"/>
          <polygon class="cls-20" points="508.171 276.246 508.171 464.932 317.656 529.979 317.656 388.863 508.171 276.246"/>
          <path class="cls-21" d="M279.84929,529.78137l.00271,56.71468a9.96213,9.96213,0,0,0,4.821,8.88945L587.25663,770.36332a19.40485,19.40485,0,0,0,9.76363,2.59587V567.33256Z"/>
          <path class="cls-22" d="M597.02026,567.33256V772.95919a19.27383,19.27383,0,0,0,9.61831-2.59587L812.08116,651.75676a9.56675,9.56675,0,0,0,4.83343-8.2429V586.143Z"/>
          <g>
            <path class="cls-23" d="M300.56957,512.51156v36.46827l.0097-.00969a9.58563,9.58563,0,0,0,4.814,8.80465l281.86611,162.785a19.30751,19.30751,0,0,0,9.76362,2.59588V537.68578Z"/>
            <path class="cls-24" d="M300.56957,526.954v36.46827l.0097-.0097a9.58561,9.58561,0,0,0,4.814,8.80465l281.86611,162.785a19.3075,19.3075,0,0,0,9.76362,2.59587V552.1282Z"/>
            <path class="cls-25" d="M597.023,552.1282V737.59807a19.2919,19.2919,0,0,0,9.60862-2.59587L812.07424,616.39564a9.60061,9.60061,0,0,0,4.84306-8.39791V570.80307Z"/>
            <path class="cls-14" d="M392.63361,514.128v87.83419L587.2574,714.36731a19.30148,19.30148,0,0,0,9.75912,2.59884v-185.464Z"/>
            <path class="cls-26" d="M300.56511,506.31325v36.4749h.01819a9.58031,9.58031,0,0,0,4.81589,8.79608l87.23442,50.37794V514.128Z"/>
            <path class="cls-14" d="M597.023,531.49617V716.96605a19.292,19.292,0,0,0,9.60862-2.59587L812.07424,595.76362a9.60061,9.60061,0,0,0,4.84306-8.39791V550.171Z"/>
            <path class="cls-27" d="M812.07677,558.96014,606.63445,677.56686a19.37228,19.37228,0,0,1-19.37415-.00148L305.39478,514.78011a9.68611,9.68611,0,0,1,.00063-16.77592L510.77526,379.41212a19.37224,19.37224,0,0,1,19.37322-.00056L812.07694,542.18319A9.68612,9.68612,0,0,1,812.07677,558.96014Z"/>
            <path class="cls-28" d="M395.57444,562.611,616.43537,435.08a20.74246,20.74246,0,0,1,6.14122-2.305L812.077,542.18315a9.6861,9.6861,0,0,1-.00044,16.777l-205.442,118.60669a19.37186,19.37186,0,0,1-19.374-.00144l-194.63489-112.407A10.41127,10.41127,0,0,1,395.57444,562.611Z"/>
          </g>
          <polygon class="cls-29" points="503.889 257.46 279.849 386.92 300.57 398.922 522.085 267.98 503.889 257.46"/>
          <path class="cls-30" d="M272.99349,385.95619,528.98481,257.4223v9.68429l-.00248-.00089a2.876,2.876,0,0,1-1.42318,2.54563L295.4128,406.87753a5.81184,5.81184,0,0,1-5.87026.026l-15.09968-8.74607a2.86689,2.86689,0,0,1-1.42868-2.68124l-.02069.01106Z"/>
          <path class="cls-31" d="M508.78364,248.02993,274.44546,383.4409a2.90583,2.90583,0,0,0-.00259,5.03048l15.09968,8.746a5.81168,5.81168,0,0,0,5.87024-.026L527.55914,259.96525a2.90584,2.90584,0,0,0-.0243-5.01717l-11.96534-6.91744A6.78028,6.78028,0,0,0,508.78364,248.02993Z"/>
        </g>
      </g>
      <g>
        <path class="cls-26" d="M566.30018,405.32436c-.211-.22766-41.25082-23.76634-41.25082-23.76634.21355-1.425-.14457-2.66339-1.06118-3.13992-1.0405-.54085-2.4726.06077-3.59187,1.36346-10.7355-4.44382-20.7842-2.95472-49.10717,13.14809-36.70706,20.86953-46.23481,33.0743-47.15295,44.78966-2.55481,1.21339-3.43047,2.72841-2.8467,4.25733.54034,1.41516,2.22388,1.52891,4.57242.96772.28172-.06731.56621-.07912.83543-.14023l38.72916,22.23828c-.369,1.63683.25489,3.82768,1.28568,4.34351,1.35463.678,3.29214-.72727,4.15838-3.454l.00095-.00217c16.88411-.69972,35.62094-13.02309,50.88163-22.64661,12.68188-7.99741,38.523-18.80895,44.33764-32.52366,2.24121-.00519,4.321-1.3482,4.40592-2.767C570.58292,406.54925,568.5819,405.566,566.30018,405.32436Z"/>
        <path class="cls-26" d="M457.204,471.20133c-.211-.22766-41.25082-23.76634-41.25082-23.76634.21355-1.425.55314-3.11081-.36348-3.58734-1.04049-.54085-3.1703.50819-4.28957,1.81089-14.23811-3.00623-20.7842-2.95473-49.10717,13.14808-36.70706,20.86953-38.93586,30.21353-47.15295,44.78966-2.55481,1.2134-3.91694,2.03345-3.33317,3.56237.54034,1.41517,4.0968,2.14743,5.89432,1.52245l38.72916,22.23828c-.369,1.63683.25489,3.82768,1.28568,4.34351,1.35463.67806,3.29214-.72727,4.15838-3.454l.001-.00216c16.88411-.69973,39.8741-10.97991,55.1348-20.60343,12.68188-7.99741,34.26983-20.85214,40.08447-34.56684,2.24121-.0052,4.42629-1.12533,4.51121-2.5441C461.592,472.6491,459.48573,471.44293,457.204,471.20133Z"/>
      </g>
      <g>
        <path class="cls-32" d="M570.12667,395.43147c-.211-.22766-41.25082-23.76635-41.25082-23.76635.21355-1.425-.14456-2.66338-1.06118-3.13991-1.04049-.54085-2.4726.06077-3.59186,1.36346-10.73551-4.44382-20.78421-2.95472-49.10717,13.14809-36.70707,20.86953-46.23481,33.0743-47.153,44.78966-2.55481,1.21339-3.43046,2.72841-2.84669,4.25732.54033,1.41517,2.22388,1.52892,4.57242.96773.28171-.06732.56621-.07912.83542-.14023L469.253,455.14952c-.369,1.63683.25488,3.82768,1.28568,4.34351,1.35463.67805,3.29214-.72728,4.15838-3.454l.00095-.00216c16.88411-.69972,35.62093-13.0231,50.88163-22.64661,12.68188-7.99742,38.523-18.80895,44.33764-32.52366,2.24121-.00519,4.321-1.3482,4.40592-2.767C574.40942,396.65636,572.4084,395.67307,570.12667,395.43147Z"/>
        <path class="cls-32" d="M461.03051,461.30844c-.21105-.22766-41.25083-23.76634-41.25083-23.76634.21355-1.425.55314-3.11081-.36348-3.58735-1.04049-.54084-3.17029.5082-4.28956,1.81089-14.23811-3.00622-20.78421-2.95472-49.10717,13.14809-36.70706,20.86953-38.93586,30.21353-47.153,44.78966-2.55481,1.2134-3.91693,2.03345-3.33316,3.56237.54033,1.41516,4.09679,2.14743,5.89431,1.52245l38.72917,22.23828c-.369,1.63683.25488,3.82768,1.28568,4.34351,1.35463.678,3.29214-.72727,4.15838-3.454l.00095-.00217c16.88411-.69972,39.8741-10.97991,55.13479-20.60342,12.68188-7.99742,34.26983-20.85214,40.08448-34.56685,2.24121-.00519,4.42629-1.12532,4.51121-2.5441C465.41853,462.75621,463.31223,461.55,461.03051,461.30844Z"/>
      </g>
    </g>
    <g>
      <g>
        <path class="cls-33" d="M249.69873,696.24043,247.338,713.80048c0,2.16758-3.05752,3.92472-6.8291,3.92472s-6.82892-1.75714-6.82892-3.92472l-2.37058-17.56005Z"/>
        <path class="cls-34" d="M201.65354,668.5295l-2.36069,17.56c0,2.16758-3.05752,3.92472-6.8291,3.92472s-6.82892-1.75714-6.82892-3.92472l-2.37058-17.56Z"/>
        <path class="cls-35" d="M327.1905,651.1796l-2.3607,17.56c0,2.16758-3.05752,3.92472-6.8291,3.92472s-6.82891-1.75714-6.82891-3.92472l-2.37058-17.56Z"/>
        <path class="cls-36" d="M181.34723,563.21859V674.8263a4.298,4.298,0,0,0,2.14622,3.73808l52.70031,30.47033a8.597,8.597,0,0,0,4.31033,1.14472V546.84589Z"/>
        <path class="cls-37" d="M240.50409,546.84589V710.17943a8.59746,8.59746,0,0,0,4.31077-1.14472l82.84469-47.82022a4.27884,4.27884,0,0,0,2.16434-3.73808V545.8687Z"/>
        <polygon class="cls-38" points="320.161 561.501 320.161 603.306 250.167 643.71 250.167 601.905 320.161 561.501"/>
        <polygon class="cls-39" points="320.161 612.762 320.161 654.583 250.167 694.987 250.167 653.166 320.161 612.762"/>
        <path class="cls-40" d="M330.75354,531.31509v13.81514a4.312,4.312,0,0,1-2.17411,3.76818L244.858,597.223a8.70546,8.70546,0,0,1-8.71382,0L182.58509,566.2483a4.312,4.312,0,0,1-2.17411-3.76818V548.665Z"/>
        <path class="cls-41" d="M182.58514,544.89688l83.72156-48.3245a8.7051,8.7051,0,0,1,8.71373,0L328.57949,527.547a4.35255,4.35255,0,0,1,0,7.53634l-83.72157,48.32451a8.70508,8.70508,0,0,1-8.71372,0l-53.55906-30.97462A4.35255,4.35255,0,0,1,182.58514,544.89688Z"/>
      </g>
      <g>
        <g>
          <g>
            <path class="cls-26" d="M229.11724,533.86577c2.31681-5.65283,11.10485-9.86437,21.619-9.86437s19.30221,4.21154,21.61894,9.86437h.61689v2.95338c0,7.07906-9.95529,12.81775-22.23583,12.81775s-22.23592-5.73869-22.23592-12.81775v-2.95338Z"/>
            <ellipse class="cls-42" cx="250.73623" cy="533.43075" rx="22.23588" ry="12.81779"/>
            <path class="cls-26" d="M233.90446,530.14012H233.892l.02618-.15529.004-.02485,1.883-11.2597H265.667l1.87063,11.21178c.008.04393.01464.08808.02174.13223l.016.09583h-.00754a5.71225,5.71225,0,0,1,.07277.8275c0,5.3816-7.56859,9.744-16.90442,9.744s-16.904-4.36243-16.904-9.744A5.71191,5.71191,0,0,1,233.90446,530.14012Z"/>
            <ellipse class="cls-42" cx="250.73623" cy="518.91874" rx="14.93093" ry="8.60688"/>
          </g>
          <path class="cls-43" d="M254.1623,494.78465v22.546c0,1.09073-1.5339,1.97494-3.42607,1.97494s-3.42608-.88421-3.42608-1.97494v-22.546Z"/>
        </g>
        <g>
          <path class="cls-44" d="M216.52838,491.94486h-.00179l.00554-.028a11.81463,11.81463,0,0,1,.31745-1.6175l6.90543-41.60024h53.96741l6.90738,41.62322a11.8071,11.8071,0,0,1,.30507,1.555l.01336.06755H284.944a11.544,11.544,0,0,1,.10169,1.44638c0,10.89006-15.361,19.71813-34.30942,19.71813-18.94877,0-34.30974-8.82807-34.30974-19.71813A11.51205,11.51205,0,0,1,216.52838,491.94486Z"/>
          <ellipse class="cls-14" cx="250.73616" cy="450.02895" rx="27.08493" ry="15.56605"/>
          <path class="cls-45" d="M260.82882,464.46636a45.69122,45.69122,0,0,1-20.18519,0v-7.94229h20.18519Z"/>
          <ellipse class="cls-46" cx="250.73616" cy="456.52413" rx="10.09264" ry="5.81787"/>
          <path class="cls-47" d="M250.73617,435.79787c14.19857,0,25.74982,6.384,25.74982,14.231s-11.55125,14.23115-25.74982,14.23115-25.74981-6.38412-25.74981-14.23115,11.55125-14.231,25.74981-14.231m0-1.335c-14.95852,0-27.08491,6.96917-27.08491,15.566,0,8.597,12.12639,15.56614,27.08491,15.56614s27.08492-6.96918,27.08492-15.56614c0-8.59686-12.12639-15.566-27.08492-15.566Z"/>
        </g>
      </g>
    </g>
    <g>
      <g>
        <g>
          <path class="cls-48" d="M387.88462,597.83061l-13.41515-7.74524c-5.23612-3.02307-5.21659-12.85945.04349-21.97016s13.76882-14.04576,19.00494-11.02269l13.41515,7.74524Z"/>
          <ellipse class="cls-49" cx="397.40883" cy="581.33419" rx="19.04843" ry="10.94737" transform="matrix(0.5, -0.86603, 0.86603, 0.5, -304.74576, 634.83324)"/>
        </g>
        <path class="cls-50" d="M448.13526,458.03629l-17.86449,69.13792-23.91276,53.562c-.20553,7.251,5.45461,10.23805,10.69911,7.6513,14.19221-17.92271,28.31614-33.60517,36.29825-50.36472l23.41634-100.98306Z"/>
        <path class="cls-51" d="M448.94728,452.31347c-8.89743,18.22508-15.64971,52.6268-15.64971,52.6268-1.65576,7.59521,17.65142,21.38325,29.0899,12.13378L476.77171,432.332A36.09787,36.09787,0,0,0,448.94728,452.31347Z"/>
        <path class="cls-52" d="M449.80866,519.80149l.36738-59.181-11.87245,53.54759A25.7763,25.7763,0,0,0,449.80866,519.80149Z"/>
        <path class="cls-50" d="M477.41229,788.98384s3.0257,16.03861-1.19787,19.078c-5.84913,4.20918-10.97968,2.14124-18.96867,3.00656-7.62924.82635-16.2363,5.79261-27.98835,1.63994-7.73507-2.73324-7.10642-8.09038-5.24782-10.22231.95592-1.0965,15.3608-6.398,15.3608-6.398l12.4478-7.1042Z"/>
        <path class="cls-49" d="M441.6391,605.60735c-.437,62.54075,8.81171,182.40425,8.81171,182.40425.656,8.724,28.03161,13.28445,28.42865,2.29259l10.37022-162.59575Z"/>
        <path class="cls-50" d="M531.58745,819.87535s.44856,8.39564-.92629,12.8875c-.8554,2.79475-3.22522,6.50511-5.41074,11.63925-1.61359,3.79058-3.25717,8.6903-10.30471,13.20793-10.95814,7.02442-22.90453.984-18.36723-7.866l5.72376-10.83664,8.75055-19.80362Z"/>
        <path class="cls-53" d="M532.30592,634.59319l-3.23557-63.989-87.44627-17.75654.015,52.75976,30.34514,36.17888,34.56055,181.11408c1.27989,10.4752,25.65005,9.19771,25.99313.08208C535.298,781.41209,532.30592,634.59319,532.30592,634.59319Z"/>
        <path class="cls-54" d="M495.186,434.71756c-18.08658-8.03837-40.45441,1.34023-45.59411,28.62019,0,0-3.85478,28.01311-6.22695,52.19751s-3.21028,59.29643-3.21028,59.29643c-.00954,16.37518,11.74176,31.91716,33.13511,36.93439,23.96187,5.6196,57.8285-7.13215,57.20591-20.50534L529.03184,537.988l13.06141-56.7C537.59924,461.3099,508.85859,440.7942,495.186,434.71756Z"/>
        <polygon class="cls-52" points="530.168 579.342 529.372 550.364 513.815 499.893 515.351 548.504 508.802 574.903 530.168 579.342"/>
        <path class="cls-50" d="M541.26728,482.3581s7.789,70.10508,2.88,82.40115-53.02333-7.61889-53.02333-7.61889a67.76908,67.76908,0,0,0,2.66869-15.57208l29.01,5.07376-6.13458-45.80056Z"/>
        <path class="cls-55" d="M542.87982,481.14655a282.07147,282.07147,0,0,1,5.66711,45.56371c.74209,14.50025-29.01274,13.68832-29.693,5.27556l-5.03926-32.09311C512.12136,476.94482,539.19779,463.75912,542.87982,481.14655Z"/>
        <path class="cls-50" d="M481.17684,447.80517c.49318,4.41606,3.9676,6.9116,11.309,6.09172s15.04972-6.49586,14.55654-10.91193-6.84441-7.33135-14.18587-6.51147S480.68366,443.3891,481.17684,447.80517Z"/>
        <path class="cls-56" d="M484.914,432.06883s-15.6073,6.28434-25.27708,17.145c-12.16876,13.66736-16.18988,27.29017-16.94888,35.11655s18.66953,18.36383,21.299,7.489c5.31783-27.25871,12.248-43.0809,22.42971-49.8917Z"/>
      </g>
      <g>
        <path class="cls-57" d="M486.31775,444.57133c1.34492,8.41113,20.549,1.52209,19.89118-3.18056L504.85779,422.614l-21.53885,3.20283Z"/>
        <path class="cls-56" d="M499.23266,447.66256c-9.0395,10.06544-15.34552,18.45881-18.76018,32.27732-3.32055,13.43762-2.11011,28.314-2.11011,28.314.52462,4.56037,28.70214,3.57328,28.13646-1.83652-2.8412-30.0413,9.62606-40.71106,10.15084-52.98184S505.829,436.11093,505.829,436.11093,502.78247,443.70986,499.23266,447.66256Z"/>
        <g>
          <path class="cls-58" d="M480.205,389.27118c-8.78179,5.79146-12.35423,16.87871-3.28456,29.33916l4.43582-9.24167Z"/>
          <path class="cls-50" d="M489.41382,445.05974c8.295-1.20042,16.115-7.332,17.33986-17.51521l2.61209-22.02017c1.3019-8.85361-6.16945-17.76115-16.55836-18.37443-9.07978-.536-17.872,5.99731-18.47064,16.05544,0,0-1.59568,12.83736-.74741,22.7462S479.36969,446.5133,489.41382,445.05974Z"/>
          <path class="cls-59" d="M485.647,437.88112c.93-1.25347-.57916-3.84289-3.3243-6.32778-2.51573-2.27723-5.6024-4.07207-7.60631-2.41251a3.39754,3.39754,0,0,0-.99063,3.27925c.25263,1.16333.87718,2.30185,5.28876,4.08286C482.28328,437.82259,484.85451,438.9492,485.647,437.88112Z"/>
          <path class="cls-60" d="M517.76769,402.22615c-1.58387-11.07782-13.20809-18.95748-26.89658-16.79114-11.61825,1.83772-16.55054,7.67212-16.32947,14.86411.13841,20.82341,23.26739,4.26631,26.25574,11.29586a4.1686,4.1686,0,0,1,.339,1.63125c-.0365,4.79947-1.25487,11.04933-.89528,12.3161.37579,1.28684,3.89693,2.305,3.973.73645l.54661,12.26721a145.14419,145.14419,0,0,1,8.88155-11.62578C518.81059,420.76283,523.99689,410.15222,517.76769,402.22615Z"/>
          <path class="cls-61" d="M505.42257,433.68771c3.73757.67309,7.82368-3.979,8.58748-8.22023s-2.26558-8.4719-5.82153-7.13857C503.72466,420.00266,501.685,433.01461,505.42257,433.68771Z"/>
        </g>
      </g>
      <g>
        <g>
          <path class="cls-48" d="M467.11482,559.19007l-13.41515-7.74524c-5.23612-3.02307-5.21659-12.85945.04349-21.97016S467.512,515.4289,472.7481,518.452l13.41515,7.74524Z"/>
          <ellipse class="cls-49" cx="476.63903" cy="542.69364" rx="19.04843" ry="10.94737" transform="translate(-231.66696 684.12833) rotate(-60)"/>
        </g>
        <path class="cls-62" d="M502.62977,549.5467,481.91834,537.589c-1.9408-1.12052-5.09465.70871-7.04434,4.08566s-1.95691,7.02287-.0161,8.14339l20.71143,11.95775Z"/>
        <path class="cls-50" d="M485.759,536.2998c-5.44142-.46694-11.2988,4.8937-11.68273,8.47277s1.60333,10.784,5.14035,12.36779,12.80656,3.59745,12.80656,3.59745l7.13475-16.08949S491.2004,536.76673,485.759,536.2998Z"/>
        <g>
          <path class="cls-48" d="M503.99034,580.262l-13.41515-7.74524c-5.23611-3.02308-5.21658-12.85945.04349-21.97016s13.76883-14.04577,19.005-11.02269l13.41515,7.74524Z"/>
          <path class="cls-49" d="M526.68267,553.01991l.00095-.00708.00456.03036c.03922.20437.064.41888.09445.62986l.81264,5.42193-.80469-.76982a30.76244,30.76244,0,0,1-11.35484,19.662l1.07158.31274-5.28256,2.07825c-.12363.0475-.248.10291-.37121.146l-.06932.02725.01355-.01064a8.09517,8.09517,0,0,1-6.80744-.27875c-5.23611-3.02307-5.21647-12.85939.0436-21.9701s13.76872-14.04583,19.00484-11.02275A8.09287,8.09287,0,0,1,526.68267,553.01991Z"/>
          <ellipse class="cls-53" cx="517.69594" cy="566.17966" rx="14.12878" ry="8.11999" transform="translate(-231.478 731.42767) rotate(-60)"/>
        </g>
      </g>
      <g>
        <path class="cls-62" d="M423.39957,588.18725,402.68814,576.2295c-1.9408-1.12053-5.09465.7087-7.04434,4.08566s-1.95691,7.02286-.0161,8.14338l20.71143,11.95776Z"/>
        <path class="cls-50" d="M406.52877,574.94034c-4.24272-.86508-11.55168,5.90729-11.68273,8.66611-.21621,4.55166,2.06735,10.12475,5.14035,12.17446s12.77861,4.35641,12.77861,4.35641l7.1627-16.84845S410.7715,575.80542,406.52877,574.94034Z"/>
        <g>
          <path class="cls-48" d="M424.76014,618.90254,411.345,611.1573c-5.23612-3.02307-5.21659-12.85945.04348-21.97016s13.76883-14.04576,19.005-11.02269l13.41515,7.74524Z"/>
          <path class="cls-49" d="M447.45247,591.66045l.00095-.00708.00456.03036c.03922.20437.064.41888.09445.62986l.81264,5.42194-.80469-.76982a30.76244,30.76244,0,0,1-11.35484,19.662l1.07158.31273-5.28256,2.07826c-.12363.04749-.248.10291-.37121.146l-.06932.02725.01355-.01063a8.09517,8.09517,0,0,1-6.80744-.27876c-5.23611-3.02307-5.21647-12.85939.0436-21.9701s13.76872-14.04582,19.00484-11.02275A8.09283,8.09283,0,0,1,447.45247,591.66045Z"/>
          <ellipse class="cls-53" cx="438.46574" cy="604.82021" rx="14.12878" ry="8.11999" transform="translate(-304.55679 682.13257) rotate(-60)"/>
        </g>
      </g>
    </g>
    <g>
      <g>
        <polygon class="cls-63" points="424.618 186.441 466.917 161.98 466.917 226.126 424.618 250.587 424.618 186.441"/>
        <polygon class="cls-64" points="424.618 189.784 457.765 170.616 457.765 220.883 424.618 240.052 424.618 189.784"/>
        <path class="cls-65" d="M463.1237,168.55574V223.938l-34.71245,20.07381v-55.3823l34.71245-20.07379m3.79314-6.57525-42.29873,24.46084v64.14575l42.29873-24.46086V161.98049Z"/>
        <polygon class="cls-66" points="417.769 246.644 417.769 182.498 424.618 186.441 424.618 250.587 417.769 246.644"/>
        <polygon class="cls-67" points="417.769 182.498 460.082 158.046 466.917 161.98 424.618 186.441 417.769 182.498"/>
      </g>
      <g>
        <polygon class="cls-68" points="368.816 244.938 411.115 220.477 411.115 284.623 368.816 309.084 368.816 244.938"/>
        <polygon class="cls-69" points="368.816 248.281 401.963 229.113 401.963 279.38 368.816 298.548 368.816 248.281"/>
        <path class="cls-70" d="M407.32147,227.05267V282.435L372.609,302.50876v-55.3823l34.71246-20.07379m3.79314-6.57525-42.29874,24.46084V309.084l42.29874-24.46086V220.47742Z"/>
        <polygon class="cls-71" points="361.967 305.141 361.967 240.995 368.816 244.938 368.816 309.084 361.967 305.141"/>
        <polygon class="cls-72" points="361.967 240.995 404.28 216.543 411.115 220.477 368.816 244.938 361.967 240.995"/>
      </g>
      <g>
        <polygon class="cls-73" points="313.014 235.255 355.312 210.795 355.312 274.94 313.014 299.401 313.014 235.255"/>
        <polygon class="cls-74" points="313.014 238.598 346.161 219.43 346.161 269.697 313.014 288.866 313.014 238.598"/>
        <path class="cls-75" d="M351.51923,217.36983v55.38228l-34.71246,20.07381v-55.3823l34.71246-20.07379m3.79314-6.57525-42.29874,24.46084v64.14575l42.29874-24.46086V210.79458Z"/>
        <polygon class="cls-76" points="306.164 295.458 306.164 231.312 313.014 235.255 313.014 299.401 306.164 295.458"/>
        <polygon class="cls-77" points="306.164 231.312 348.477 206.86 355.312 210.795 313.014 235.255 306.164 231.312"/>
      </g>
    </g>
    <g>
      <path class="cls-78" d="M156.17372,607.53468l-46.88367,27.0576.00008-6.96969-8.37074-279.82333,46.89255-27.04281,8.36178,4.82606Z"/>
      <polygon class="cls-79" points="147.812 330.408 147.784 602.733 109.29 624.945 109.29 620.102 143.57 600.331 143.57 332.857 147.812 330.408"/>
      <polygon class="cls-80" points="156.174 325.583 156.17 607.538 109.29 634.592 109.29 624.945 147.812 602.717 147.812 330.408 156.174 325.583"/>
      <path class="cls-81" d="M100.91939,649.09987,164.548,612.37654V311.07l-63.62863,36.72922Zm8.37066-14.50759V352.641l46.87964-27.05877V607.53836Z"/>
    </g>
    <g>
      <g>
        <path class="cls-82" d="M124.15993,669.85086l67.9345.162L183.49557,723.189c-.72863,7.71863-11.81722,13.85318-25.4292,13.85318-13.61265,0-24.70056-6.13455-25.4292-13.85318Z"/>
        <ellipse class="cls-14" cx="158.14484" cy="667.46084" rx="34.23529" ry="19.67545"/>
        <path class="cls-83" d="M128.44247,677.23611c5.90828,5.93595,17.011,9.89331,29.70777,9.89331s23.79882-3.95736,29.70777-9.89331c-3.7653-7.365-15.63687-12.7515-29.70777-12.7515S132.20777,669.87106,128.44247,677.23611Z"/>
        <path class="cls-47" d="M158.14478,652.46264c17.41889,0,29.55817,7.90429,29.55817,14.99819,0,7.094-12.13928,14.99827-29.55817,14.99827s-29.55817-7.9043-29.55817-14.99827c0-7.0939,12.13927-14.99819,29.55817-14.99819m0-4.67722c-18.90762,0-34.23533,8.80895-34.23533,19.67541s15.32771,19.67549,34.23533,19.67549,34.23532-8.809,34.23532-19.67549-15.32771-19.67541-34.23532-19.67541Z"/>
      </g>
      <path class="cls-84" d="M169.16821,621.69777c16.05015-2.47065,47.63987-12.88506,41.0286-24.79918S172.84006,598.74663,169.16821,621.69777Z"/>
      <path class="cls-83" d="M162.12359,671.86267a1.26361,1.26361,0,0,0,1.26416-1.26374c0-34.11454,6.20771-56.35515,20.75771-74.36786a1.26406,1.26406,0,0,0-1.967-1.58814c-14.94291,18.49972-21.319,41.215-21.319,75.956A1.26361,1.26361,0,0,0,162.12359,671.86267Z"/>
      <path class="cls-83" d="M156.45407,671.86267a1.26362,1.26362,0,0,0,1.26416-1.26374c0-32.131,0-76.13677-16.13979-96.11816a1.26406,1.26406,0,0,0-1.967,1.58815c15.57849,19.28719,15.57849,62.7754,15.57849,94.53A1.26362,1.26362,0,0,0,156.45407,671.86267Z"/>
      <path class="cls-83" d="M155.85976,637.37091a1.26418,1.26418,0,0,0,1.25879-1.16057c2.09661-25.69589,7.66584-43.16051,17.52694-54.961a1.264,1.264,0,0,0-1.93978-1.62116c-10.21232,12.22061-15.96562,30.13509-18.10722,56.37578a1.264,1.264,0,0,0,1.15726,1.36279C155.79083,637.37009,155.8255,637.37091,155.85976,637.37091Z"/>
      <path class="cls-85" d="M161.39124,604.09823c15.20815-11.37982,39.89155-41.34029,26.513-50.00128S152.55544,578.3876,161.39124,604.09823Z"/>
      <path class="cls-86" d="M155.85847,649.4288c-12.72465-1.67941-37.17561-11.17711-32.154-20.7039S152.56682,631.3555,155.85847,649.4288Z"/>
      <path class="cls-83" d="M156.40248,657.46538c.03013,0,.06067-.00083.09121-.0033a1.26351,1.26351,0,0,0,1.17089-1.35042c-1.57329-22.01361-11.38362-45.25217-27.09006-47.07474a1.26391,1.26391,0,1,0-.29138,2.511c14.34034,1.66409,23.36073,23.7685,24.85972,44.74371A1.26367,1.26367,0,0,0,156.40248,657.46538Z"/>
      <path class="cls-83" d="M162.65641,655.44636a1.265,1.265,0,0,0,1.25426-1.12095c1.63725-14.29081,14.789-24.44122,21.46593-26.6988a1.26429,1.26429,0,0,0-.80975-2.39542c-7.2069,2.43752-21.40155,13.38943-23.168,28.807a1.26373,1.26373,0,0,0,1.11186,1.39912A1.2435,1.2435,0,0,0,162.65641,655.44636Z"/>
      <path class="cls-87" d="M169.16821,638.006c13.42919-.14344,40.96041-4.54118,36.94287-15.0691S174.8615,619.64628,169.16821,638.006Z"/>
      <path class="cls-88" d="M174.00885,609.03306c11.30865-9.16325,29.97408-32.39548,19.474-38.63181S166.48312,589.60733,174.00885,609.03306Z"/>
      <path class="cls-89" d="M148.52446,624.44816c-20.93075-5.60751-59.77207-26.879-49.27283-41.7224S146.98632,593.47186,148.52446,624.44816Z"/>
      <path class="cls-90" d="M151.41541,599.33713c-14.235-10.65165-38.08136-35.69621-25.55891-43.803S159.68581,575.27169,151.41541,599.33713Z"/>
    </g>
  </g>
</svg>
