<svg id="Layer_1" data-name="Layer 1" xmlns="http://www.w3.org/2000/svg" xmlns:xlink="http://www.w3.org/1999/xlink" viewBox="0 0 1000 1000">
  <defs>
    <style>
      .cls-1, .cls-51 {
        fill: none;
      }

      .cls-2 {
        fill: #d6ceb9;
      }

      .cls-3 {
        fill: url(#linear-gradient);
      }

      .cls-4 {
        fill: url(#linear-gradient-2);
      }

      .cls-5 {
        fill: #b7babc;
      }

      .cls-56, .cls-6 {
        fill: #fff;
      }

      .cls-6 {
        opacity: 0.7;
      }

      .cls-7 {
        fill: url(#linear-gradient-3);
      }

      .cls-8 {
        fill: url(#linear-gradient-4);
      }

      .cls-9 {
        fill: url(#linear-gradient-5);
      }

      .cls-10 {
        fill: url(#linear-gradient-6);
      }

      .cls-11 {
        fill: url(#linear-gradient-7);
      }

      .cls-12 {
        fill: url(#linear-gradient-8);
      }

      .cls-13 {
        fill: url(#linear-gradient-9);
      }

      .cls-14 {
        fill: url(#linear-gradient-10);
      }

      .cls-15 {
        fill: url(#linear-gradient-11);
      }

      .cls-16 {
        fill: url(#linear-gradient-12);
      }

      .cls-17, .cls-42 {
        fill: #dd7b19;
      }

      .cls-17 {
        opacity: 0.5;
      }

      .cls-18 {
        fill: url(#linear-gradient-13);
      }

      .cls-19 {
        fill: url(#linear-gradient-14);
      }

      .cls-20 {
        fill: url(#linear-gradient-15);
      }

      .cls-21 {
        fill: #ccd3d6;
      }

      .cls-22 {
        fill: #b8cbd8;
      }

      .cls-23 {
        fill: url(#linear-gradient-16);
      }

      .cls-24 {
        fill: url(#linear-gradient-17);
      }

      .cls-25 {
        fill: #5e5e5e;
      }

      .cls-26 {
        fill: url(#linear-gradient-18);
      }

      .cls-27 {
        fill: #fff2d7;
      }

      .cls-28 {
        fill: #ffcb48;
      }

      .cls-29 {
        fill: #4f4f4f;
      }

      .cls-30 {
        fill: url(#linear-gradient-19);
      }

      .cls-31 {
        fill: #777;
      }

      .cls-32 {
        fill: url(#linear-gradient-20);
      }

      .cls-33 {
        fill: url(#linear-gradient-21);
      }

      .cls-34 {
        fill: url(#linear-gradient-22);
      }

      .cls-35 {
        fill: url(#linear-gradient-23);
      }

      .cls-36 {
        fill: url(#linear-gradient-24);
      }

      .cls-37 {
        fill: url(#linear-gradient-25);
      }

      .cls-38 {
        fill: #303d49;
      }

      .cls-39 {
        fill: #f5b3a7;
      }

      .cls-40 {
        fill: #27343d;
      }

      .cls-41 {
        fill: url(#linear-gradient-26);
      }

      .cls-42 {
        opacity: 0.6;
      }

      .cls-43 {
        fill: #e88e82;
      }

      .cls-44 {
        fill: url(#linear-gradient-27);
      }

      .cls-45 {
        fill: #ed8324;
      }

      .cls-46 {
        fill: #ffbea4;
      }

      .cls-47 {
        fill: #e5907c;
      }

      .cls-48 {
        fill: url(#linear-gradient-28);
      }

      .cls-49 {
        fill: url(#linear-gradient-29);
      }

      .cls-50 {
        fill: url(#linear-gradient-30);
      }

      .cls-51 {
        stroke: #343e4c;
        stroke-miterlimit: 10;
        stroke-width: 1.02389px;
      }

      .cls-52 {
        fill: #eaeaea;
      }

      .cls-53 {
        fill: #ffbda3;
      }

      .cls-54 {
        fill: url(#linear-gradient-31);
      }

      .cls-55 {
        fill: #e2e2e2;
      }

      .cls-57 {
        fill: url(#linear-gradient-32);
      }

      .cls-58 {
        fill: url(#linear-gradient-33);
      }

      .cls-59 {
        fill: url(#linear-gradient-34);
      }

      .cls-60 {
        fill: url(#linear-gradient-35);
      }

      .cls-61 {
        fill: url(#linear-gradient-36);
      }

      .cls-62 {
        fill: url(#linear-gradient-37);
      }

      .cls-63 {
        fill: #a9b5bf;
      }

      .cls-64 {
        fill: url(#linear-gradient-38);
      }

      .cls-65 {
        fill: url(#linear-gradient-39);
      }

      .cls-66 {
        fill: url(#linear-gradient-40);
      }

      .cls-67 {
        fill: url(#linear-gradient-41);
      }

      .cls-68 {
        fill: url(#linear-gradient-42);
      }

      .cls-69 {
        fill: url(#linear-gradient-43);
      }

      .cls-70 {
        fill: url(#linear-gradient-44);
      }

      .cls-71 {
        fill: #515151;
      }

      .cls-72 {
        fill: url(#linear-gradient-45);
      }

      .cls-73 {
        fill: url(#linear-gradient-46);
      }

      .cls-74 {
        fill: url(#linear-gradient-47);
      }

      .cls-75 {
        fill: url(#linear-gradient-48);
      }

      .cls-76 {
        fill: url(#linear-gradient-49);
      }

      .cls-77 {
        fill: url(#linear-gradient-50);
      }

      .cls-78 {
        fill: url(#linear-gradient-51);
      }

      .cls-79 {
        fill: url(#linear-gradient-52);
      }

      .cls-80 {
        fill: url(#linear-gradient-53);
      }

      .cls-81 {
        fill: url(#linear-gradient-54);
      }

      .cls-82 {
        fill: url(#linear-gradient-55);
      }

      .cls-83 {
        fill: url(#linear-gradient-56);
      }

      .cls-84 {
        fill: url(#linear-gradient-57);
      }

      .cls-85 {
        fill: #34a521;
      }

      .cls-86 {
        fill: url(#linear-gradient-58);
      }

      .cls-87 {
        fill: url(#linear-gradient-59);
      }

      .cls-88 {
        fill: url(#linear-gradient-60);
      }

      .cls-89 {
        fill: url(#linear-gradient-61);
      }

      .cls-90 {
        clip-path: url(#clip-path);
      }

      .cls-91 {
        fill: url(#linear-gradient-62);
      }

      .cls-92 {
        fill: url(#linear-gradient-63);
      }

      .cls-93 {
        fill: #541510;
        opacity: 0.3;
      }

      .cls-94 {
        fill: url(#linear-gradient-64);
      }

      .cls-95 {
        fill: url(#linear-gradient-65);
      }

      .cls-96 {
        fill: #bcd0e2;
      }

      .cls-97 {
        fill: #bcbcbc;
      }

      .cls-98 {
        fill: #e9f1f4;
      }

      .cls-99 {
        fill: url(#linear-gradient-66);
      }

      .cls-100 {
        fill: url(#linear-gradient-67);
      }

      .cls-101 {
        fill: url(#linear-gradient-68);
      }
    </style>
    <linearGradient id="linear-gradient" x1="119.76982" y1="396.22833" x2="526.41606" y2="396.22833" gradientUnits="userSpaceOnUse">
      <stop offset="0" stop-color="#c3d6e6"/>
      <stop offset="1" stop-color="#f2eee4"/>
    </linearGradient>
    <linearGradient id="linear-gradient-2" x1="526.40823" y1="448.86525" x2="526.40823" y2="932.70331" gradientUnits="userSpaceOnUse">
      <stop offset="0" stop-color="#f2ecda"/>
      <stop offset="0.99337" stop-color="#c4d5e6"/>
    </linearGradient>
    <linearGradient id="linear-gradient-3" x1="10922.77345" y1="390.40848" x2="11274.53836" y2="390.40848" gradientTransform="matrix(-1, 0, 0, 1, 11836.93617, 0)" gradientUnits="userSpaceOnUse">
      <stop offset="0" stop-color="#3e4c59"/>
      <stop offset="1" stop-color="#293440"/>
    </linearGradient>
    <linearGradient id="linear-gradient-4" x1="10981.36871" y1="630.93018" x2="10981.36871" y2="285.32439" gradientTransform="matrix(-1, 0, 0, 1, 11836.93617, 0)" gradientUnits="userSpaceOnUse">
      <stop offset="0" stop-color="#62778c"/>
      <stop offset="1" stop-color="#435466"/>
    </linearGradient>
    <linearGradient id="linear-gradient-5" x1="11098.62192" y1="563.24242" x2="11098.62192" y2="217.62078" xlink:href="#linear-gradient-4"/>
    <linearGradient id="linear-gradient-6" x1="11215.90911" y1="495.54657" x2="11215.90911" y2="149.88603" xlink:href="#linear-gradient-4"/>
    <linearGradient id="linear-gradient-7" x1="10934.14015" y1="393.68618" x2="11274.53836" y2="393.68618" gradientTransform="matrix(-1, 0, 0, 1, 11836.93617, 0)" gradientUnits="userSpaceOnUse">
      <stop offset="0" stop-color="#435466"/>
      <stop offset="1" stop-color="#62778c"/>
    </linearGradient>
    <linearGradient id="linear-gradient-8" x1="10922.75165" y1="393.68569" x2="11285.92234" y2="393.68569" gradientTransform="matrix(-1, 0, 0, 1, 11836.93617, 0)" gradientUnits="userSpaceOnUse">
      <stop offset="0" stop-color="#435466"/>
      <stop offset="1" stop-color="#7e858c"/>
    </linearGradient>
    <linearGradient id="linear-gradient-9" x1="11034.29706" y1="582.93315" x2="11034.29706" y2="278.74252" xlink:href="#linear-gradient-4"/>
    <linearGradient id="linear-gradient-10" x1="11151.55727" y1="515.23607" x2="11151.55727" y2="211.0389" xlink:href="#linear-gradient-4"/>
    <linearGradient id="linear-gradient-11" x1="11268.83305" y1="447.52682" x2="11268.83305" y2="143.32965" xlink:href="#linear-gradient-4"/>
    <linearGradient id="linear-gradient-12" x1="11212.15481" y1="156.26908" x2="10933.30841" y2="610.90995" gradientTransform="matrix(-1, 0, 0, 1, 11836.93617, 0)" gradientUnits="userSpaceOnUse">
      <stop offset="0.00005" stop-color="#ffcb48"/>
      <stop offset="1" stop-color="#e68e2b"/>
    </linearGradient>
    <linearGradient id="linear-gradient-13" x1="11294.33712" y1="206.67422" x2="11015.49072" y2="661.3151" xlink:href="#linear-gradient-12"/>
    <linearGradient id="linear-gradient-14" x1="11319.5376" y1="122.37224" x2="10904.90512" y2="448.80438" gradientTransform="matrix(-1, 0, 0, 1, 11836.93617, 0)" gradientUnits="userSpaceOnUse">
      <stop offset="0" stop-color="#a0a9b2"/>
      <stop offset="1" stop-color="#5b6f82"/>
    </linearGradient>
    <linearGradient id="linear-gradient-15" x1="11301.59852" y1="99.58612" x2="10886.96605" y2="426.01826" xlink:href="#linear-gradient-14"/>
    <linearGradient id="linear-gradient-16" x1="11282.8918" y1="75.82493" x2="10868.25932" y2="402.25708" gradientTransform="matrix(-1, 0, 0, 1, 11836.93617, 0)" gradientUnits="userSpaceOnUse">
      <stop offset="0" stop-color="#849bb2"/>
      <stop offset="1" stop-color="#5b6f82"/>
    </linearGradient>
    <linearGradient id="linear-gradient-17" x1="541.84729" y1="278.49767" x2="541.84729" y2="555.97504" gradientUnits="userSpaceOnUse">
      <stop offset="0" stop-color="#fffbf2"/>
      <stop offset="0.58386" stop-color="#fffbf2" stop-opacity="0"/>
    </linearGradient>
    <linearGradient id="linear-gradient-18" x1="503.36095" y1="274.44503" x2="577.7474" y2="274.44503" gradientUnits="userSpaceOnUse">
      <stop offset="0.00844" stop-color="#ffc63f"/>
      <stop offset="1" stop-color="#e68a23"/>
    </linearGradient>
    <linearGradient id="linear-gradient-19" x1="518.42035" y1="631.59211" x2="539.00419" y2="631.59211" gradientTransform="matrix(1, 0, 0, 1, 0, 0)" xlink:href="#linear-gradient-3"/>
    <linearGradient id="linear-gradient-20" x1="542.55935" y1="466.48376" x2="581.37628" y2="538.74296" gradientUnits="userSpaceOnUse">
      <stop offset="0" stop-color="#b2a784"/>
      <stop offset="1" stop-color="#6e7982"/>
    </linearGradient>
    <linearGradient id="linear-gradient-21" x1="494.74139" y1="499.43646" x2="536.39494" y2="627.98021" gradientUnits="userSpaceOnUse">
      <stop offset="0" stop-color="#8c8262"/>
      <stop offset="1" stop-color="#526575"/>
    </linearGradient>
    <linearGradient id="linear-gradient-22" x1="535.75932" y1="634.07154" x2="654.48062" y2="634.07154" gradientTransform="matrix(1, 0, 0, 1, 0, 0)" xlink:href="#linear-gradient-4"/>
    <linearGradient id="linear-gradient-23" x1="535.70252" y1="570.66589" x2="746.89164" y2="570.66589" gradientTransform="matrix(1, 0, 0, 1, 0, 0)" xlink:href="#linear-gradient-4"/>
    <linearGradient id="linear-gradient-24" x1="657.58708" y1="380.5826" x2="758.51109" y2="549.58553" xlink:href="#linear-gradient-21"/>
    <linearGradient id="linear-gradient-25" x1="625.66872" y1="399.04544" x2="706.28849" y2="558.04555" gradientUnits="userSpaceOnUse">
      <stop offset="0" stop-color="#b2a784"/>
      <stop offset="0.98707" stop-color="#676d73"/>
    </linearGradient>
    <linearGradient id="linear-gradient-26" x1="617.76664" y1="404.11793" x2="663.15259" y2="563.86451" gradientTransform="matrix(1, 0, 0, 1, 0, 0)" xlink:href="#linear-gradient-12"/>
    <linearGradient id="linear-gradient-27" x1="632.89688" y1="399.81924" x2="678.28283" y2="559.56583" gradientTransform="matrix(1, 0, 0, 1, 0, 0)" xlink:href="#linear-gradient-12"/>
    <linearGradient id="linear-gradient-28" x1="625.34394" y1="351.79319" x2="671.02848" y2="399.26927" gradientUnits="userSpaceOnUse">
      <stop offset="0.00634" stop-color="#adc0cc"/>
      <stop offset="1" stop-color="#7b90a6"/>
    </linearGradient>
    <linearGradient id="linear-gradient-29" x1="612.36215" y1="364.2851" x2="658.04669" y2="411.76119" xlink:href="#linear-gradient-28"/>
    <linearGradient id="linear-gradient-30" x1="636.60278" y1="340.95921" x2="682.28732" y2="388.43529" xlink:href="#linear-gradient-28"/>
    <linearGradient id="linear-gradient-31" x1="549.15706" y1="518.58299" x2="653.44756" y2="518.58299" gradientTransform="matrix(1, 0, 0, 1, 0, 0)" xlink:href="#linear-gradient-4"/>
    <linearGradient id="linear-gradient-32" x1="677.28576" y1="387.20782" x2="722.6717" y2="546.95441" gradientTransform="matrix(1, 0, 0, 1, 0, 0)" xlink:href="#linear-gradient-12"/>
    <linearGradient id="linear-gradient-33" x1="645.75166" y1="704.85906" x2="666.33551" y2="704.85906" gradientTransform="matrix(1, 0, 0, 1, 0, 0)" xlink:href="#linear-gradient-3"/>
    <linearGradient id="linear-gradient-34" x1="746.89164" y1="648.9946" x2="767.47548" y2="648.9946" gradientTransform="matrix(1, 0, 0, 1, 0, 0)" xlink:href="#linear-gradient-3"/>
    <linearGradient id="linear-gradient-35" x1="702.35462" y1="578.19862" x2="742.66451" y2="652.54797" gradientTransform="matrix(1, 0, 0, 1, 0, 0)" xlink:href="#linear-gradient-16"/>
    <linearGradient id="linear-gradient-36" x1="713.94889" y1="555.35113" x2="750.22779" y2="616.26384" gradientUnits="userSpaceOnUse">
      <stop offset="0" stop-color="#9099a1"/>
      <stop offset="1" stop-color="#5b6f82"/>
    </linearGradient>
    <linearGradient id="linear-gradient-37" x1="659.68654" y1="582.03518" x2="665.65837" y2="693.7085" gradientUnits="userSpaceOnUse">
      <stop offset="0.0392" stop-color="#77828c"/>
      <stop offset="1" stop-color="#526575"/>
    </linearGradient>
    <linearGradient id="linear-gradient-38" x1="230.36279" y1="697.85226" x2="251.01762" y2="697.85226" gradientTransform="matrix(1, 0, 0, 1, 0, 0)" xlink:href="#linear-gradient-3"/>
    <linearGradient id="linear-gradient-39" x1="176.39847" y1="666.72736" x2="197.0533" y2="666.72736" gradientTransform="matrix(1, 0, 0, 1, 0, 0)" xlink:href="#linear-gradient-3"/>
    <linearGradient id="linear-gradient-40" x1="452.62741" y1="569.19808" x2="473.28225" y2="569.19808" gradientTransform="matrix(1, 0, 0, 1, 0, 0)" xlink:href="#linear-gradient-3"/>
    <linearGradient id="linear-gradient-41" x1="283.66169" y1="491.7745" x2="179.15458" y2="666.15208" gradientTransform="matrix(1, 0, 0, 1, 0, 0)" xlink:href="#linear-gradient-4"/>
    <linearGradient id="linear-gradient-42" x1="458.46189" y1="423.2852" x2="228.54625" y2="696.19805" xlink:href="#linear-gradient-21"/>
    <linearGradient id="linear-gradient-43" x1="449.48057" y1="443.23958" x2="227.32831" y2="683.30734" gradientUnits="userSpaceOnUse">
      <stop offset="0" stop-color="#b2a784"/>
      <stop offset="1" stop-color="#5b6f82"/>
    </linearGradient>
    <linearGradient id="linear-gradient-44" x1="478.18671" y1="469.80346" x2="256.03445" y2="709.87123" xlink:href="#linear-gradient-43"/>
    <linearGradient id="linear-gradient-45" x1="170.03594" y1="498.70772" x2="480.44199" y2="498.70772" gradientUnits="userSpaceOnUse">
      <stop offset="0" stop-color="#526575"/>
      <stop offset="1" stop-color="#8c8262"/>
    </linearGradient>
    <linearGradient id="linear-gradient-46" x1="170.03599" y1="472.66782" x2="480.44206" y2="472.66782" gradientUnits="userSpaceOnUse">
      <stop offset="0" stop-color="#748ea6"/>
      <stop offset="1" stop-color="#ccbf96"/>
    </linearGradient>
    <linearGradient id="linear-gradient-47" x1="829.73077" y1="738.50718" x2="846.45625" y2="738.50718" gradientTransform="matrix(1, 0, 0, 1, 0, 0)" xlink:href="#linear-gradient-3"/>
    <linearGradient id="linear-gradient-48" x1="899.20537" y1="698.4121" x2="915.93085" y2="698.4121" gradientTransform="matrix(1, 0, 0, 1, 0, 0)" xlink:href="#linear-gradient-3"/>
    <linearGradient id="linear-gradient-49" x1="760.90733" y1="698.4121" x2="777.63281" y2="698.4121" gradientTransform="matrix(1, 0, 0, 1, 0, 0)" xlink:href="#linear-gradient-3"/>
    <linearGradient id="linear-gradient-50" x1="755.79386" y1="589.29161" x2="925.39397" y2="708.72831" gradientUnits="userSpaceOnUse">
      <stop offset="0" stop-color="#8c8262"/>
      <stop offset="1" stop-color="#435466"/>
    </linearGradient>
    <linearGradient id="linear-gradient-51" x1="758.40963" y1="609.22105" x2="940.5506" y2="806.88879" gradientUnits="userSpaceOnUse">
      <stop offset="0" stop-color="#8c8262"/>
      <stop offset="0.60476" stop-color="#526575"/>
    </linearGradient>
    <linearGradient id="linear-gradient-52" x1="751.0554" y1="582.32353" x2="840.63292" y2="722.06447" xlink:href="#linear-gradient-43"/>
    <linearGradient id="linear-gradient-53" x1="769.92896" y1="625.19723" x2="881.22903" y2="720.5973" xlink:href="#linear-gradient-51"/>
    <linearGradient id="linear-gradient-54" x1="733.5657" y1="593.53487" x2="823.14323" y2="733.27581" xlink:href="#linear-gradient-43"/>
    <linearGradient id="linear-gradient-55" x1="750.90777" y1="647.38863" x2="862.20784" y2="742.78869" xlink:href="#linear-gradient-51"/>
    <linearGradient id="linear-gradient-56" x1="753.84636" y1="626.58673" x2="922.34627" y2="626.58673" xlink:href="#linear-gradient-21"/>
    <linearGradient id="linear-gradient-57" x1="753.8463" y1="597.15054" x2="922.34622" y2="597.15054" gradientUnits="userSpaceOnUse">
      <stop offset="0" stop-color="#ccbf96"/>
      <stop offset="1" stop-color="#748ea6"/>
    </linearGradient>
    <linearGradient id="linear-gradient-58" x1="160.88037" y1="296.58326" x2="160.88037" y2="494.5585" gradientUnits="userSpaceOnUse">
      <stop offset="0" stop-color="#fff2d7"/>
      <stop offset="0.98888" stop-color="#e6edf2" stop-opacity="0.6"/>
    </linearGradient>
    <linearGradient id="linear-gradient-59" x1="328.31965" y1="296.58346" x2="328.31965" y2="494.55841" xlink:href="#linear-gradient-58"/>
    <linearGradient id="linear-gradient-60" x1="245.35783" y1="303.74967" x2="245.35783" y2="507.39274" gradientTransform="matrix(1, 0, 0, 1, 0, 0)" xlink:href="#linear-gradient-4"/>
    <linearGradient id="linear-gradient-61" x1="159.80482" y1="127.53304" x2="347.91762" y2="355.05995" gradientUnits="userSpaceOnUse">
      <stop offset="0" stop-color="#e68a23"/>
      <stop offset="0.99156" stop-color="#ffc63f"/>
    </linearGradient>
    <clipPath id="clip-path">
      <path class="cls-1" d="M1455.98541,305.84375a194.17509,194.17509,0,1,1-71.04617-150.16185A193.78539,193.78539,0,0,1,1455.98541,305.84375Z"/>
    </clipPath>
    <linearGradient id="linear-gradient-62" x1="347.42208" y1="406.81884" x2="1639.2457" y2="1397.49839" gradientTransform="matrix(1, 0, 0, 1, 0, 0)" xlink:href="#linear-gradient-4"/>
    <linearGradient id="linear-gradient-63" x1="-61.7901" y1="821.81959" x2="1055.53882" y2="1829.38573" gradientUnits="userSpaceOnUse">
      <stop offset="0" stop-color="#62788c"/>
      <stop offset="1" stop-color="#526575"/>
    </linearGradient>
    <linearGradient id="linear-gradient-64" x1="-136.78563" y1="1046.47699" x2="1877.54116" y2="1046.47699" gradientTransform="matrix(1, 0, 0, 1, 0, 0)" xlink:href="#linear-gradient-3"/>
    <linearGradient id="linear-gradient-65" x1="-136.78563" y1="1089.206" x2="1877.54116" y2="1089.206" gradientTransform="matrix(1, 0, 0, 1, 0, 0)" xlink:href="#linear-gradient-3"/>
    <linearGradient id="linear-gradient-66" x1="994.62143" y1="239.95182" x2="1040.0413" y2="705.50545" gradientTransform="matrix(1, 0, 0, 1, 0, 0)" xlink:href="#linear-gradient-12"/>
    <linearGradient id="linear-gradient-67" x1="984.80589" y1="246.01296" x2="1027.58912" y2="684.54109" gradientTransform="matrix(1, 0, 0, 1, 0, 0)" xlink:href="#linear-gradient-12"/>
    <linearGradient id="linear-gradient-68" x1="24.57186" y1="530.88203" x2="1134.11689" y2="1149.81192" gradientTransform="matrix(1, 0, 0, 1, 0, 0)" xlink:href="#linear-gradient-12"/>
  </defs>
  <g>
    <g>
      <g>
        <polygon class="cls-2" points="526.4 81.236 933.047 316.004 933.047 711.22 526.4 476.43 526.4 81.236"/>
        <polygon class="cls-3" points="526.416 81.236 119.77 316.004 119.77 711.22 526.416 476.43 526.416 81.236"/>
      </g>
      <path class="cls-4" d="M126.787,723.3864l378.58059,218.564a42.10143,42.10143,0,0,0,42.1011-.00062l378.5612-218.56743a14.03381,14.03381,0,0,0,.00016-24.307L547.45226,480.49136a42.10144,42.10144,0,0,0-42.10408.00053l-378.562,218.58744A14.03381,14.03381,0,0,0,126.787,723.3864Z"/>
      <path class="cls-5" d="M573.95691,754.5533c-46.28793,0-83.81216-21.56548-83.81216-48.16783,0-22.04521,25.77888-40.61765,60.94976-46.33859l103.38611,59.69133C644.40441,739.84216,612.18068,754.5533,573.95691,754.5533Z"/>
      <path class="cls-5" d="M804.09391,631.52072,669.23967,553.55959a14.33363,14.33363,0,0,0-14.34784,0L520.0376,631.52072a7.1668,7.1668,0,0,0,0,12.40917L654.89183,721.891a14.33363,14.33363,0,0,0,14.34784,0l134.85424-77.96113A7.1668,7.1668,0,0,0,804.09391,631.52072Z"/>
    </g>
    <g>
      <g>
        <g>
          <g>
            <path class="cls-6" d="M914.18443,663.77282,554.43073,456.07868a6.8337,6.8337,0,0,1-3.417-5.91823V123.59866L914.18443,333.28571Z"/>
            <path class="cls-7" d="M562.39781,143.32641l11.36671-6.56037,340.3982,196.53735V637.49054l-11.3667,6.56037L562.39781,447.525Z"/>
            <polygon class="cls-8" points="808.339 285.324 808.339 576.399 902.796 630.93 902.795 624.346 814.034 573.114 814.034 288.613 808.339 285.324"/>
            <polygon class="cls-9" points="691.079 217.621 691.097 508.709 785.55 563.242 785.55 556.659 696.791 505.429 696.791 220.9 691.079 217.621"/>
            <polygon class="cls-10" points="573.765 149.886 573.803 440.998 668.29 495.547 668.29 488.963 579.531 437.733 579.531 153.216 573.765 149.886"/>
            <polygon class="cls-11" points="562.398 143.326 562.403 447.53 902.795 644.046 902.796 630.93 573.765 440.976 573.765 149.886 562.398 143.326"/>
            <path class="cls-12" d="M551.01383,123.59864V450.1605a6.83371,6.83371,0,0,0,3.417,5.91823l359.75372,207.694v-330.487Zm234.536,148.5678V576.3577L679.67911,515.23607V211.0389ZM902.795,644.04595l-105.85569-61.1128V278.74252L902.795,339.8613ZM562.40333,143.32632l105.88628,61.1365v304.1978L562.40333,447.53009Z"/>
          </g>
          <polygon class="cls-13" points="796.939 582.933 808.339 576.399 808.339 285.324 796.939 278.743 796.939 582.933"/>
          <polygon class="cls-14" points="679.679 515.236 691.079 508.703 691.079 217.621 679.679 211.039 679.679 515.236"/>
        </g>
        <polygon class="cls-15" points="562.403 447.527 573.803 440.998 573.765 149.886 562.403 143.33 562.403 447.527"/>
      </g>
      <g>
        <path class="cls-16" d="M718.66813,255.26162l-2.82681,294.00307s12.97615,15.70384,30.3445,25.1416,47.44,16.53084,47.44,16.53084,4.378,14.00731,26.19606,25.13166a131.50211,131.50211,0,0,0,42.72539,13.05006s1.77995,8.39876,11.461,13.57662c8.02821,4.267,19.32542,4.89358,24.68889,5.61891V358.34261s-10.34212,1.934-24.29416-5.38219-11.85572-13.565-11.85572-13.565-26.09891-3.06427-41.75649-12.27273-26.64457-27.3982-26.64457-27.3982a152.08914,152.08914,0,0,1-41.9317-12.32652C731.43658,277.5665,723.67727,259.96729,718.66813,255.26162Z"/>
        <path class="cls-17" d="M848.94422,337.02231c7.7864,1.68906,13.603,2.373,13.603,2.373a4.4862,4.4862,0,0,0,0,1.98657v287.7369a118.24757,118.24757,0,0,1-19.32071-3.94885Z"/>
        <path class="cls-17" d="M793.51581,590.911c-.06537-.01565-.1577-.03778-.28072-.06763l-.00916-.00227c-.11952-.02893-.26878-.06537-.43894-.10706l-.10562-.026c-.16018-.03943-.3358-.08287-.534-.13218l-.11427-.02851c-.21545-.05374-.44769-.112-.70268-.17645l-.085-.02151q-.40872-.10346-.879-.224l-.08864-.02275c-.3045-.07824-.62979-.16244-.96981-.25108l-.17747-.04632q-.51867-.13542-1.087-.28608l-.12528-.03314q-.62507-.166-1.30376-.34908l-.03006-.00813c-3.34014-.90208-7.622-2.11463-12.29586-3.5766l5.763-288.52513a133.9063,133.9063,0,0,0,14.09446,2.69738h.0001l-.52037,291.21273-.09769-.02327Z"/>
        <path class="cls-18" d="M547.85474,157.64669l-2.84032,289.88013c0,3.61444,4.8086,9.10485,14.92817,14.27229a80.8766,80.8766,0,0,0,22.77681,7.49573s10.16563,12.3128,24.48376,20.38693c12.88244,7.26453,36.01649,12.24514,36.01649,12.24514s14.88628,22.61966,29.42875,31.34743,37.82946,15.265,43.19292,15.99035l2.82681-294.00307s-26.66657-3.64144-41.30977-12.18168c-14.76692-8.61241-29.83251-26.76187-29.83251-26.76187s-21.07106-1.44375-39.67676-13.10638-21.10033-23.711-21.10033-23.711a32.71909,32.71909,0,0,1-21.82281-4.02822C553.62569,169.0129,549.9845,162.841,547.85474,157.64669Z"/>
        <path class="cls-17" d="M702.38148,252.10658c9.02325,2.16115,16.2866,3.15506,16.2866,3.15506l-2.82678,294.003c-2.80793-.37975-10.53062-2.35458-19.337-5.40052Z"/>
        <path class="cls-17" d="M631.22493,213.24951a91.71749,91.71749,0,0,0,16.30091,3.06858l-4.30626,285.60879s-9.25043-1.993-19.30907-5.294Z"/>
        <path class="cls-17" d="M569.16914,177.59989a34.73063,34.73063,0,0,0,17.57956,1.90077l-4.02936,289.79413a81.02,81.02,0,0,1-19.32729-5.85943Z"/>
      </g>
      <g>
        <g>
          <circle class="cls-19" cx="545.26644" cy="144.31207" r="7.98823"/>
          <path class="cls-20" d="M546.26189,149.9573,897.80024,352.96042l3.89213-6.74136L550.14094,143.20839l-.00177.00308a1.96035,1.96035,0,0,0-1.934.206,6.08478,6.08478,0,0,0-2.76124,4.76281A1.9097,1.9097,0,0,0,546.26189,149.9573Z"/>
          <path class="cls-21" d="M544.88619,149.91087a5.25327,5.25327,0,0,0,2.513,4.73923,4.73186,4.73186,0,0,0,2.41172.64112,5.954,5.954,0,0,0,3.52513-1.24806l-3.72731-2.15889a1.16686,1.16686,0,0,1-.52294-.15195,1.33093,1.33093,0,0,1-.42165-.38788c-.64112-.87706-.50606-2.58054.42165-4.18273.87706-1.518,2.17577-2.46236,3.22125-2.46236a1.332,1.332,0,0,1,.72553.1855l4.18272,2.41192a5.45526,5.45526,0,0,0-2.49613-5.34678,4.9413,4.9413,0,0,0-2.41212-.62383,6.0919,6.0919,0,0,0-3.44072,1.14677,9.16922,9.16922,0,0,0-2.69831,3.00219,9.49659,9.49659,0,0,0-1.24807,3.71043C544.90307,149.4219,544.88619,149.67473,544.88619,149.91087Z"/>
          <path class="cls-21" d="M584.08018,172.55126a5.25329,5.25329,0,0,0,2.513,4.73923,4.732,4.732,0,0,0,2.41172.64112,5.954,5.954,0,0,0,3.52513-1.24807l-3.72731-2.15889a1.167,1.167,0,0,1-.52294-.15194,1.33106,1.33106,0,0,1-.42165-.38789c-.64112-.87706-.50606-2.58054.42165-4.18272.87706-1.518,2.17577-2.46237,3.22125-2.46237a1.33193,1.33193,0,0,1,.72553.18551l4.18273,2.41192a5.45531,5.45531,0,0,0-2.49613-5.34679,4.94136,4.94136,0,0,0-2.41213-.62383,6.0919,6.0919,0,0,0-3.44072,1.14677,9.16932,9.16932,0,0,0-2.69831,3.00219,9.49679,9.49679,0,0,0-1.24806,3.71043C584.09706,172.06229,584.08018,172.31511,584.08018,172.55126Z"/>
        </g>
        <circle class="cls-21" cx="549.37177" cy="156.86599" r="2.69138"/>
        <circle class="cls-21" cx="587.00954" cy="178.4773" r="2.69138"/>
        <path class="cls-21" d="M643.84842,207.05037a5.25325,5.25325,0,0,0,2.513,4.73923,4.73179,4.73179,0,0,0,2.41171.64112,5.95407,5.95407,0,0,0,3.52514-1.24806l-3.72731-2.1589a1.16688,1.16688,0,0,1-.523-.15194,1.33115,1.33115,0,0,1-.42165-.38788c-.64112-.87706-.50606-2.58054.42165-4.18273.87706-1.518,2.17578-2.46236,3.22125-2.46236a1.332,1.332,0,0,1,.72553.1855l4.18273,2.41192a5.45528,5.45528,0,0,0-2.49613-5.34678,4.94133,4.94133,0,0,0-2.41213-.62383,6.09192,6.09192,0,0,0-3.44072,1.14677,9.16944,9.16944,0,0,0-2.69831,3.00219,9.49668,9.49668,0,0,0-1.24806,3.71043C643.8653,206.5614,643.84842,206.81423,643.84842,207.05037Z"/>
        <circle class="cls-21" cx="647.33196" cy="214.07367" r="2.69138"/>
        <path class="cls-21" d="M712.13858,246.48948a5.25327,5.25327,0,0,0,2.513,4.73923,4.73186,4.73186,0,0,0,2.41172.64112,5.954,5.954,0,0,0,3.52513-1.24806l-3.72731-2.1589a1.16688,1.16688,0,0,1-.52294-.15194,1.33115,1.33115,0,0,1-.42165-.38788c-.64112-.87706-.50606-2.58054.42165-4.18273.87706-1.518,2.17577-2.46236,3.22125-2.46236a1.332,1.332,0,0,1,.72553.1855l4.18273,2.41192a5.45528,5.45528,0,0,0-2.49613-5.34678,4.94133,4.94133,0,0,0-2.41213-.62383,6.09192,6.09192,0,0,0-3.44072,1.14677,9.16922,9.16922,0,0,0-2.69831,3.00219,9.49668,9.49668,0,0,0-1.24806,3.71043C712.15547,246.00051,712.13858,246.25334,712.13858,246.48948Z"/>
        <circle class="cls-21" cx="716.59102" cy="253.67305" r="2.69138"/>
        <path class="cls-21" d="M717.86072,249.78a5.25329,5.25329,0,0,0,2.513,4.73923,4.73186,4.73186,0,0,0,2.41172.64112,5.954,5.954,0,0,0,3.52513-1.24807l-3.72731-2.15889a1.167,1.167,0,0,1-.52294-.15194,1.33093,1.33093,0,0,1-.42165-.38788c-.64112-.87707-.50606-2.58055.42165-4.18273.87706-1.518,2.17577-2.46236,3.22125-2.46236a1.33192,1.33192,0,0,1,.72553.1855l4.18272,2.41192a5.45527,5.45527,0,0,0-2.49613-5.34679,4.9414,4.9414,0,0,0-2.41212-.62382,6.09182,6.09182,0,0,0-3.44072,1.14677,9.16918,9.16918,0,0,0-2.69831,3.00218,9.49664,9.49664,0,0,0-1.24807,3.71043C717.8776,249.291,717.86072,249.5438,717.86072,249.78Z"/>
        <circle class="cls-21" cx="719.94205" cy="255.67287" r="2.69138"/>
        <path class="cls-22" d="M790.13876,291.53305a5.25325,5.25325,0,0,0,2.513,4.73922,4.73179,4.73179,0,0,0,2.41171.64112,5.95407,5.95407,0,0,0,3.52514-1.24806l-3.72731-2.15889a1.167,1.167,0,0,1-.52295-.15194,1.33117,1.33117,0,0,1-.42165-.38789c-.64112-.87706-.50606-2.58054.42165-4.18272.87706-1.518,2.17578-2.46237,3.22125-2.46237a1.332,1.332,0,0,1,.72553.1855l4.18273,2.41193a5.45531,5.45531,0,0,0-2.49613-5.34679,4.94133,4.94133,0,0,0-2.41213-.62383,6.09192,6.09192,0,0,0-3.44072,1.14677,9.16922,9.16922,0,0,0-2.69831,3.00219,9.49679,9.49679,0,0,0-1.24806,3.71043C790.15565,291.04407,790.13876,291.2969,790.13876,291.53305Z"/>
        <circle class="cls-22" cx="793.62231" cy="298.55634" r="2.69138"/>
        <path class="cls-22" d="M858.96841,331.328a5.25326,5.25326,0,0,0,2.513,4.73922,4.73186,4.73186,0,0,0,2.41172.64112,5.954,5.954,0,0,0,3.52513-1.24806l-3.72731-2.15889a1.167,1.167,0,0,1-.52294-.15194,1.331,1.331,0,0,1-.42165-.38789c-.64112-.87706-.50606-2.58054.42165-4.18272.87706-1.518,2.17577-2.46237,3.22125-2.46237a1.332,1.332,0,0,1,.72553.1855l4.18273,2.41193a5.45531,5.45531,0,0,0-2.49613-5.34679,4.94136,4.94136,0,0,0-2.41213-.62383,6.0919,6.0919,0,0,0-3.44072,1.14677,9.16922,9.16922,0,0,0-2.69831,3.00219,9.49662,9.49662,0,0,0-1.24806,3.71043C858.98529,330.839,858.96841,331.09184,858.96841,331.328Z"/>
        <circle class="cls-22" cx="862.45196" cy="338.35128" r="2.69138"/>
        <path class="cls-22" d="M893.47873,351.18726a5.25327,5.25327,0,0,0,2.513,4.73923,4.73192,4.73192,0,0,0,2.41171.64112,5.954,5.954,0,0,0,3.52514-1.24807l-3.72731-2.15889a1.167,1.167,0,0,1-.523-.15194,1.33106,1.33106,0,0,1-.42165-.38789c-.64112-.87706-.50606-2.58054.42165-4.18272.87707-1.518,2.17578-2.46236,3.22125-2.46236a1.33192,1.33192,0,0,1,.72553.1855l4.18273,2.41192a5.45531,5.45531,0,0,0-2.49613-5.34679,4.94133,4.94133,0,0,0-2.41213-.62383,6.09192,6.09192,0,0,0-3.44072,1.14677,9.16954,9.16954,0,0,0-2.69831,3.00219,9.49679,9.49679,0,0,0-1.24806,3.71043C893.49561,350.69829,893.47873,350.95111,893.47873,351.18726Z"/>
        <circle class="cls-22" cx="896.96227" cy="358.21056" r="2.69138"/>
      </g>
      <circle class="cls-23" cx="904.53263" cy="351.75757" r="7.98823"/>
    </g>
    <g>
      <polygon class="cls-24" points="503.481 282.857 415.365 553.598 668.33 553.598 577.289 281.146 503.481 282.857"/>
      <g>
        <path class="cls-25" d="M567.627,531.495c-2.90129-7.07889-13.90631-12.35289-27.07292-12.35289s-24.17164,5.274-27.07282,12.35289h-.77251v3.69843c0,8.86492,12.46673,16.05133,27.84533,16.05133s27.84543-7.18641,27.84543-16.05133V531.495Z"/>
        <ellipse class="cls-25" cx="540.55412" cy="530.95026" rx="27.84539" ry="16.05137"/>
      </g>
      <path class="cls-25" d="M536.90552,297.84787V527.62039c0,1.16158,1.63353,2.10321,3.64859,2.10321s3.6486-.94163,3.6486-2.10321V297.84787Z"/>
      <g>
        <path class="cls-26" d="M577.637,282.93021h.00194l-.006-.03039a12.807,12.807,0,0,0-.34414-1.75344L569.803,243.0165H511.29973l-7.48794,38.15479a12.79918,12.79918,0,0,0-.33071,1.68569l-.01448.07323h.00459a12.51394,12.51394,0,0,0-.11024,1.56795c0,11.80534,16.652,21.37539,37.193,21.37539,20.54138,0,37.1934-9.57005,37.1934-21.37539A12.48008,12.48008,0,0,0,577.637,282.93021Z"/>
        <ellipse class="cls-27" cx="540.55412" cy="244.45813" rx="29.36136" ry="16.87434"/>
        <path class="cls-25" d="M529.6132,260.109a49.53127,49.53127,0,0,0,21.8817,0v-8.60982H529.6132Z"/>
        <ellipse class="cls-25" cx="540.55412" cy="251.49922" rx="10.94091" ry="6.30684"/>
        <path class="cls-28" d="M540.55411,229.031c15.39192,0,27.914,6.92056,27.914,15.42712s-12.52211,15.42725-27.914,15.42725-27.914-6.92068-27.914-15.42725,12.52211-15.42712,27.914-15.42712m0-1.4472c-16.21576,0-29.36135,7.55492-29.36135,16.87432,0,9.31953,13.14559,16.87445,29.36135,16.87445s29.36134-7.55492,29.36134-16.87445c0-9.3194-13.14559-16.87432-29.36134-16.87432Z"/>
      </g>
    </g>
    <g>
      <g>
        <path class="cls-29" d="M539.00419,619.92593l-2.83568,18.96991c0,2.4094-3.3503,4.36246-7.48308,4.36246s-7.48308-1.95306-7.48308-4.36246l-2.782-18.96991Z"/>
        <path class="cls-30" d="M539.00419,619.92593l-2.83568,18.96991c0,2.4094-3.3503,4.36246-7.48308,4.36246s-7.48308-1.95306-7.48308-4.36246l-2.782-18.96991Z"/>
        <ellipse class="cls-31" cx="528.68545" cy="619.30915" rx="10.31868" ry="6.01552"/>
      </g>
      <g>
        <path class="cls-32" d="M535.69473,634.65919l-48.685-139.389,109.6418-63.16685.00506.0144c4.53592-2.69071,10.8491-2.34833,17.84065,1.68818,12.928,7.46407,23.56186,24.868,24.85806,40.05817l.0018.00079.003.03847.00078.00911,7.426,92.61493c.18042,2.25035-.38839,3.93371-1.44433,4.89078l.00135.00372-.01969.01136a3.35957,3.35957,0,0,1-1.19126.687Z"/>
        <path class="cls-33" d="M530.1359,536.81857l-.00068-.00911-.00312-.03846-.00175-.00079c-1.29622-15.19022-11.93009-32.59416-24.85813-40.05817-13.80307-7.96921-24.99265-1.58955-24.99265,14.24938,0,14.65914,9.5908,32.26488,21.96157,41.12694l4.85117,59.66111c.43425,5.34,4.16327,11.3735,8.61954,13.94633l14.82411,8.5587c4.16629,2.40541,7.42618.16855,7.026-4.821Z"/>
      </g>
      <g>
        <polygon class="cls-34" points="654.481 696.715 541.146 631.424 535.759 571.428 649.094 636.719 654.481 696.715"/>
        <path class="cls-35" d="M746.89164,569.90367l-113.335-65.29079-89.91317,51.7355a15.85979,15.85979,0,0,0-7.88412,15.07971v0l113.335,65.2908-.78388-10.08434Z"/>
      </g>
      <path class="cls-36" d="M620.58753,403.43444a27.85521,27.85521,0,0,1,18.01386-22.72457l16.10185-5.84621a35.18781,35.18781,0,0,1,29.88584,2.61614l66.58383,38.41879A44.22818,44.22818,0,0,1,772.99316,459.369l-8.22172,112.94993L655.35178,509.17751l9.94051-96.90317Z"/>
      <path class="cls-37" d="M718.16525,582.01522,608.74558,518.87379l11.84194-115.43936a18.42846,18.42846,0,0,1,27.5132-13.81038l59.95507,34.59751A44.22831,44.22831,0,0,1,729.876,467.692Z"/>
      <g>
        <g>
          <path class="cls-38" d="M597.81944,667.23493s7.46523,6.11317,5.84654,13.64628c-1.94084,9.0324-10.45551,12.53779-15.2655,14.96691s-15.31757,16.84848-26.42157,16.60837c-10.38184-.2245-11.30705-8.78607-5.94762-14.09043l8.43057-8.81685,9.09437-11.5996C581.12677,672.75157,592.98574,663.159,597.81944,667.23493Z"/>
          <path class="cls-39" d="M594.21278,662.30374s7.78879,8.3165,6.30759,15.87784c-1.28723,6.57112-10.23691,9.419-15.31109,13.24365-4.30311,3.24342-12.12637,14.25447-23.23037,14.01435-10.38184-.22449-11.30705-8.78607-5.94762-14.09042l8.43057-8.81686,9.09437-11.5996C581.12677,665.73466,589.37907,658.22782,594.21278,662.30374Z"/>
          <polygon class="cls-38" points="575.468 684.875 586.049 692.489 576.084 702.037 569.421 697.748 575.468 684.875"/>
          <path class="cls-40" d="M597.21161,522.91587s-43.99774,12.68533-66.93826,24.44994-23.59405,31.862-12.5355,47.81993L561.44672,661.137l28.52084-12.9725L566.3987,589.93211l69.34287-11.4785Z"/>
          <path class="cls-38" d="M542.39541,702.037,530.35372,718.916s-12.576,6.08558-20.00971,14.41132c-4.91088,5.50018,2.87114,16.233,18.49418,13.476,12.63727-2.23011,16.02606-8.28422,21.11969-12.2839,5.094-3.99956,11.04473-4.74116,15.6063-11.17045,3.2328-4.55647-1.65222-13.57694-1.65222-13.57694Z"/>
          <path class="cls-39" d="M542.39541,695.28442l-11.24052,16.93005-13.36144,12.42822-6.2497,4.16582c-4.91088,5.50019,2.22055,15.17771,17.84359,12.4207,12.63727-2.23011,14.457-7.67121,19.55061-11.67089,5.094-3.99956,11.21209-5.88106,13.84259-9.69335,3.17291-4.59837,1.49-18.257,1.49-18.257Z"/>
          <path class="cls-38" d="M517.79346,724.6427c4.1485-1.67982,12.79384.84974,18.26421,5.51272a7.61224,7.61224,0,0,1,1.71815,10.29047l11.62533-8.54844s.88473-4.46005-5.10033-10.27251c-5.87173-5.70238-13.981-7.49784-16.8243-5.989Z"/>
          <path class="cls-38" d="M610.82483,502.58353l-13.83339,21.131,18.27924,31.47416-32.17429,33.97615a89.39491,89.39491,0,0,0-20.14554,33.95186L539.14235,693.829c-5.74919,15.66624,22.39549,23.376,27.53558,15.45571l45.781-78.3904s44.58031-26.41531,58.19557-37.11222c13.82551-10.86209,21.23479-38.29554,22.826-50.72346Z"/>
          <g>
            <path class="cls-39" d="M619.75262,418.71765l-25.236,55.00641-18.66784,10.30915,1.3122,11.74774s29.15506,1.15442,34.48735-5.036,23.3388-47.28308,23.3388-47.28308l3.46484-30.43431Z"/>
            <path class="cls-41" d="M620.70438,412.72715c-10.80529,15.22818-17.039,34.15611-17.039,34.15611-3.55024,10.32071,9.44424,22.51076,19.98271,18.83058l11.339-22.252,9.30257-45.78861A37.46559,37.46559,0,0,0,620.70438,412.72715Z"/>
            <path class="cls-42" d="M620.906,466.2816,618.07051,427.85l-6.17212,36.31636A15.07391,15.07391,0,0,0,620.906,466.2816Z"/>
            <path class="cls-39" d="M577.77677,483.18978s-9.40124-.27863-13.74311,1.94958-8.05505,13.43621-8.05505,13.43621l19.305,9.94172,9.31078-12.24264,2.28292-1.12025C591.00228,488.33388,583.59029,481.99819,577.77677,483.18978Z"/>
            <polygon class="cls-43" points="574.923 490.01 563.874 493.698 561.593 497.385 571.523 495.086 574.689 491.951 574.923 490.01"/>
            <path class="cls-44" d="M603.24452,517.44154c-5.11594,14.55147,3.20978,35.139,29.48585,46.48551,21.65153,9.34953,53.58954,11.15937,56.97719-1.16453,4.107-15.44678,8.03128-33.899,11.86142-53.89977L714.288,447.166c-1.38152-8.18526-8.99394-25.22276-38.00761-44.40387-14.61287-9.66066-31.99074-5.08894-31.99074-5.08894-10.83471,2.06024-26.5152,12.08668-27.31,40.8453l-.6806,42.12731Z"/>
            <path class="cls-42" d="M702.83068,490.01023,685.77141,461.011l-5.2296,50.29707-12.13043,60.16138c10.95074.02377,19.62-2.60939,21.29622-8.707,3.48383-13.10284,6.83521-28.38241,10.11015-44.92122Z"/>
            <g>
              <path class="cls-45" d="M652.30935,420.45415l-2.21306,7.29558a1.6844,1.6844,0,0,0,.94142,2.10913h0a1.98489,1.98489,0,0,0,2.45362-1.00879l3.30642-6.04839Z"/>
              <g>
                <path class="cls-45" d="M652.75014,424.98922l-3.93789-8.5901a2.11433,2.11433,0,0,0-2.35938-1.117l-3.53384.802a1.09534,1.09534,0,0,1-1.17065-1.649c3.64332-5.80879,8.53062-11.50875,14.23779-12.13034l7.28752-1.2389L654.319,411.59308Z"/>
                <path class="cls-46" d="M652.75014,424.98922l8.89139-6.03209s18.45293-4.70676,17.39517-9.43987c-1.04274-4.66588-7.36825-8.17524-15.23783-7.06089C648.50945,404.6214,652.75014,424.98922,652.75014,424.98922Z"/>
                <path class="cls-47" d="M653.07322,413.62139c1.44937,9.06435,22.1449,1.64029,21.436-3.42757l-1.45607-20.235-23.21159,3.45157Z"/>
                <path class="cls-45" d="M652.75014,424.98922l10.42323-1.91709a3.04871,3.04871,0,0,1,2.9946,1.03988l3.31664,4.01982a2.23415,2.23415,0,0,0,3.68072-.3339c2.74672-4.94716,7.94041-15.07135,7.13441-19.559-1.08805-6.058-6.67541-10.1816-6.67541-10.1816.13674,8.26609-7.99943,16.58868-10.95092,18.55068S652.75014,424.98922,652.75014,424.98922Z"/>
              </g>
              <g>
                <path class="cls-48" d="M641.83223,353.57551c-8.39817,6.92477-10.854,18.72511-.15168,30.5475l3.54717-9.99647Z"/>
                <path class="cls-46" d="M657.44442,409.96155c8.40237-2.14763,15.77364-9.31651,15.91354-19.92848l.265-22.94325c.36547-9.25243-8.30152-17.59517-19.05783-17.08324-9.40087.44742-17.72817,8.1366-17.23756,18.551,0,0-.22947,13.3835,1.7334,23.48509S647.27023,412.56206,657.44442,409.96155Z"/>
                <path class="cls-49" d="M653.80178,404.62067c1.08329-1.46008-.67463-4.47631-3.87225-7.37078-2.93039-2.65259-6.52584-4.74327-8.86006-2.81017a3.95761,3.95761,0,0,0-1.15392,3.81977c.29428,1.35509,1.02177,2.68126,6.16051,4.75584C649.88366,404.5525,652.87871,405.86481,653.80178,404.62067Z"/>
                <path class="cls-50" d="M681.90459,362.77208c-2.8483-11.22339-15.675-18.05171-29.52032-14.31691-11.75149,3.16893-16.18431,9.71438-15.16565,17.08968,2.43326,21.40934,24.40846,1.82975,28.25643,8.73349a4.31344,4.31344,0,0,1,.52822,1.64105c.49045,4.942-.07553,11.50637.4338,12.77015.52822,1.28266,4.263,1.94281,4.16872.32063,1.79188,1.18837,3.018,9.05412,3.018,9.05412a107.30274,107.30274,0,0,0,6.75292-9.43139C685.01688,381.72916,689.1856,370.24167,681.90459,362.77208Z"/>
                <path class="cls-51" d="M644.13629,387.49423a6.30925,6.30925,0,0,1,5.669,2.36047"/>
                <line class="cls-51" x1="658.17242" y1="392.43443" x2="670.68831" y2="386.62965"/>
                <path class="cls-52" d="M643.13593,389.878l-6.41365-3.34595a2.69991,2.69991,0,0,1-1.44637-2.16262l-.28455-3.58316a1.03083,1.03083,0,0,1,1.53521-.98106l6.41364,3.346a2.69987,2.69987,0,0,1,1.44637,2.16262l.28455,3.58315A1.03083,1.03083,0,0,1,643.13593,389.878Z"/>
                <path class="cls-52" d="M657.11478,395.11347l-7.35944-2.80272a2.24992,2.24992,0,0,1-1.44868-1.95392l-.28509-3.53465a1.1809,1.1809,0,0,1,1.53758-1.19485l7.35943,2.80271a2.25,2.25,0,0,1,1.44869,1.95392l.28508,3.53465A1.18089,1.18089,0,0,1,657.11478,395.11347Z"/>
                <path class="cls-53" d="M672.66426,396.5c3.91952.28135,7.6118-4.95459,7.93106-9.40228s-3.263-8.46723-6.77493-6.70421C669.41179,382.6067,668.74474,396.2187,672.66426,396.5Z"/>
              </g>
            </g>
          </g>
        </g>
        <g>
          <path class="cls-54" d="M652.50416,526.20071l-26.37263-4.54514-27.4902-22.55667-47.44962,10.0595a2.56485,2.56485,0,0,0-1.02759,4.54535l28.16713,21.57238,22.45892,2.602a28.43191,28.43191,0,0,0,9.16119-.42765l42.59517-9.01818A1.13639,1.13639,0,0,0,652.50416,526.20071Z"/>
          <path class="cls-55" d="M652.80336,522.51037l-.21215-6.56112-24.29315,2.25635-24.33258-21.16975L552.106,499.54008l-1.04318,8.71132,29.43492,23.57475,18.64671,1.82007a4.734,4.734,0,0,0,1.44052-.08027Z"/>
          <polygon class="cls-56" points="652.591 515.949 627.908 513.552 605.009 488.325 552.106 499.54 580.108 527.172 599.659 527.156 652.591 515.949"/>
          <path class="cls-39" d="M574.68933,491.95094l-5.65313,3.95118c-2.4799,2.00208.4826,4.58437,4.30251,3.48318,4.3756-1.52572,11.55791-5.1184,14.58957-7.58318Z"/>
        </g>
        <path class="cls-39" d="M716.42982,468.853l-27.16938-4.89983,1.2211,45.08847L644.6477,519.49237v15.42385s38.64188.84718,54.07431-1.7073c13.64191-2.2581,16.60917-10.87993,17.21447-23.19684C716.52746,497.98664,716.42982,468.853,716.42982,468.853Z"/>
        <path class="cls-39" d="M649.9747,518.43373l-8.56492-2.02049a20.556,20.556,0,0,0-5.55578-.53215l-12.78647.52054c-3.00224.18473-3.16281,4.41979.63556,5.3417l6.70823,1.256-4.012,7.1963-3.90993,4.28224-7.756,1.96022s8.51669,4.93956,14.33345,4.36462c7.91641-.78248,22.83061-6.49864,22.83061-6.49864C656.77323,533.09719,656.25671,519.7503,649.9747,518.43373Z"/>
        <path class="cls-57" d="M712.69651,441.448c-5.26989-14.38839-27.88822-4.36691-26.89322,20.07305l1.543,31.4317c.44788,10.77437,30.08311,8.71132,30.27064-.70683C717.617,492.24587,719.4359,459.84852,712.69651,441.448Z"/>
      </g>
      <g>
        <g>
          <path class="cls-29" d="M666.33551,693.19287l-2.83569,18.96992c0,2.4094-3.35029,4.36246-7.48307,4.36246s-7.48308-1.95306-7.48308-4.36246l-2.782-18.96992Z"/>
          <path class="cls-58" d="M666.33551,693.19287l-2.83569,18.96992c0,2.4094-3.35029,4.36246-7.48307,4.36246s-7.48308-1.95306-7.48308-4.36246l-2.782-18.96992Z"/>
          <ellipse class="cls-31" cx="656.01676" cy="692.5761" rx="10.31868" ry="6.01552"/>
        </g>
        <path class="cls-59" d="M767.47548,637.32841l-2.83568,18.96992c0,2.4094-3.3503,4.36246-7.48308,4.36246s-7.48308-1.95306-7.48308-4.36246l-2.782-18.96992Z"/>
        <g>
          <path class="cls-60" d="M758.83252,525.65908l.00078.00664c4.53941-2.72727,10.86778-2.41255,17.88789,1.64049,13.803,7.96921,24.99259,27.26949,24.99259,43.10847,0,14.65909-9.5907,21.19037-21.96152,15.7679l-4.85119,54.05948a5.49932,5.49932,0,0,1-2.57621,4.62533l.00394.035L663.06313,707.83043,649.749,588.45363Z"/>
          <path class="cls-61" d="M758.83252,525.65908l.00315.00529c4.53917-2.7258,10.86665-2.41053,17.88552,1.64184,13.803,7.96921,24.99259,27.26949,24.99259,43.10847,0,7.75494-2.70162,13.20564-7.0614,15.84483l.01744.02936-110.50676,63.5693L649.749,588.45363Z"/>
          <path class="cls-62" d="M642.63256,601.60875l.00068-.00832.00312-.03486.00175.00123c1.29622-13.69346,11.93009-18.81848,24.85813-11.35447,13.80307,7.9692,24.99266,27.26949,24.99266,43.10842,0,14.65913-9.59081,21.19037-21.96158,15.76789l-4.85117,54.05947c-.43425,4.83857-4.16326,6.56616-8.61954,3.99333l-14.82411-8.5587c-4.16629-2.40541-7.42618-8.40647-7.026-12.934Z"/>
        </g>
      </g>
    </g>
    <path class="cls-63" d="M172.52867,668.92847,406.552,533.86046a9.98062,9.98062,0,0,1,9.99052,0l61.40686,35.51321a4.9903,4.9903,0,0,1,0,8.64061l-234.02333,135.068a9.9806,9.9806,0,0,1-9.99051,0l-61.40687-35.51321A4.99031,4.99031,0,0,1,172.52867,668.92847Z"/>
    <g>
      <path class="cls-64" d="M251.01762,685.78642l-2.65153,19.72343c0,2.43463-3.4342,4.40824-7.67044,4.40824s-7.67023-1.97361-7.67023-4.40824l-2.66263-19.72343Z"/>
      <path class="cls-65" d="M197.0533,654.66152,194.40177,674.385c0,2.43463-3.4342,4.40824-7.67044,4.40824s-7.67023-1.97361-7.67023-4.40824l-2.66263-19.72343Z"/>
      <path class="cls-66" d="M473.28225,557.13225l-2.65153,19.72343c0,2.43462-3.4342,4.40824-7.67044,4.40824s-7.67023-1.97362-7.67023-4.40824l-2.66264-19.72343Z"/>
      <path class="cls-67" d="M174.24527,536.37639V661.73408a4.82753,4.82753,0,0,0,2.41063,4.19861L235.84884,700.157a9.6562,9.6562,0,0,0,4.84137,1.28575V517.98659Z"/>
      <path class="cls-68" d="M240.69021,517.98659V701.4427a9.65665,9.65665,0,0,0,4.84185-1.28575l228.277-131.75353a4.806,4.806,0,0,0,2.431-4.19861V438.84712Z"/>
      <polygon class="cls-69" points="465.387 456.405 465.387 503.361 251.544 626.785 251.544 579.829 465.387 456.405"/>
      <polygon class="cls-70" points="465.387 513.982 465.387 560.955 251.544 684.378 251.544 637.405 465.387 513.982"/>
      <polygon class="cls-71" points="373.737 574.139 373.737 580.848 343.193 598.477 343.193 591.768 373.737 574.139"/>
      <polygon class="cls-71" points="373.737 516.286 373.737 522.996 343.193 540.625 343.193 533.916 373.737 516.286"/>
      <path class="cls-72" d="M480.442,422.996v10.695a4.94379,4.94379,0,0,1-2.49267,4.32031L243.92614,573.07943a9.981,9.981,0,0,1-9.99063,0l-61.4069-35.51329a4.94379,4.94379,0,0,1-2.49267-4.32031V522.83766Z"/>
      <path class="cls-73" d="M172.52867,518.12492,406.552,383.05691a9.98062,9.98062,0,0,1,9.99052,0l61.40686,35.51321a4.9903,4.9903,0,0,1,0,8.6406l-234.02333,135.068a9.98065,9.98065,0,0,1-9.99051,0l-61.40687-35.51322A4.9903,4.9903,0,0,1,172.52867,518.12492Z"/>
    </g>
    <path class="cls-5" d="M920.27489,698.447,842.24715,653.338a8.29355,8.29355,0,0,0-8.30178,0L755.91763,698.447a4.14678,4.14678,0,0,0,0,7.18l78.02774,45.10893a8.29355,8.29355,0,0,0,8.30178,0L920.27489,705.627A4.14677,4.14677,0,0,0,920.27489,698.447Z"/>
    <g>
      <path class="cls-74" d="M829.73077,728.73673l2.14711,15.97127c0,1.97146,2.78088,3.56962,6.21122,3.56962s6.21105-1.59816,6.21105-3.56962l2.1561-15.97127Z"/>
      <path class="cls-75" d="M899.20537,688.64165l2.1471,15.97127c0,1.97146,2.78088,3.56962,6.21122,3.56962s6.21106-1.59816,6.21106-3.56962l2.1561-15.97127Z"/>
      <path class="cls-76" d="M760.90733,688.64165l2.14711,15.97127c0,1.97146,2.78088,3.56962,6.21122,3.56962s6.21106-1.59816,6.21106-3.56962l2.15609-15.97127Z"/>
      <g>
        <path class="cls-77" d="M917.67442,609.12654v85.2422a3.90914,3.90914,0,0,1-1.952,3.39987l-73.70853,42.60482a7.81927,7.81927,0,0,1-3.92035,1.04115v-132.288Z"/>
        <path class="cls-78" d="M838.09351,609.12654v132.288a7.81958,7.81958,0,0,1-3.92074-1.04115l-73.69206-42.60482a3.89169,3.89169,0,0,1-1.96851-3.39987v-85.2422Z"/>
        <polygon class="cls-79" points="832.077 690.494 764.529 651.459 764.552 621.552 832.077 660.6 832.077 690.494"/>
        <polygon class="cls-80" points="807.674 651.809 788.932 640.978 788.938 647.232 807.674 658.067 807.674 651.809"/>
        <polygon class="cls-81" points="832.077 728.99 764.529 689.954 764.552 660.047 832.077 699.095 832.077 728.99"/>
        <polygon class="cls-82" points="807.674 690.304 788.932 679.473 788.938 685.728 807.674 696.562 807.674 690.304"/>
        <path class="cls-83" d="M753.84636,597.15054v9.05987a4.10814,4.10814,0,0,0,2.07133,3.59l78.02761,45.109a8.29391,8.29391,0,0,0,8.30187,0l78.02777-45.109a4.10814,4.10814,0,0,0,2.07133-3.59v-9.05987Z"/>
        <path class="cls-84" d="M920.27489,593.56052l-78.02774-45.10893a8.29355,8.29355,0,0,0-8.30178,0l-78.02774,45.10893a4.14678,4.14678,0,0,0,0,7.18005l78.02774,45.10893a8.29355,8.29355,0,0,0,8.30178,0l78.02774-45.10893A4.14677,4.14677,0,0,0,920.27489,593.56052Z"/>
      </g>
    </g>
    <g>
      <g>
        <g>
          <path class="cls-85" d="M245.35791,115.93175a191.74873,191.74873,0,1,1-74.88721,15.113,191.17963,191.17963,0,0,1,74.88721-15.113m0-17.54224c-115.95068,0-209.94727,93.99659-209.94727,209.94727,0,115.95093,93.99659,209.94751,209.94727,209.94751s209.94727-93.99658,209.94727-209.94751c0-115.95068-93.99659-209.94727-209.94727-209.94727Z"/>
          <circle class="cls-22" cx="245.35783" cy="308.33688" r="194.19259"/>
          <path class="cls-86" d="M138.46094,297.82889l-62.05811,106.291a195.1182,195.1182,0,0,0,73.33936,73.26562c26.82348,14.687,57.11133,23.7461,88.24634,24.99073.42968.01611.85839.03613,1.28881.04931q.96607.0315,1.93384.05127c1.3794.02881,2.76026.05274,4.14673.05274V297.82889Z"/>
          <path class="cls-87" d="M352.5528,297.8291l58.43071,112.40669a194.05962,194.05962,0,0,1-165.32772,92.29368V297.8291Z"/>
          <rect class="cls-88" x="236.18501" y="314.47182" width="18.34563" height="191.19094"/>
        </g>
        <g>
          <circle class="cls-85" cx="425.70747" cy="193.23687" r="62.02326"/>
          <g>
            <rect class="cls-56" x="404.65068" y="184.59464" width="13.46241" height="40.4658" transform="translate(-24.34397 350.88352) rotate(-45)"/>
            <rect class="cls-56" x="430.86151" y="167.41377" width="13.46241" height="60.59444" transform="translate(607.21471 646.93854) rotate(-135)"/>
          </g>
        </g>
      </g>
      <path class="cls-89" d="M335.97515,314.47182H154.74051a16.27413,16.27413,0,0,1-15.95646-19.47393l35.57443-177.39916a16.27412,16.27412,0,0,1,15.95646-13.07433H300.40072a16.27411,16.27411,0,0,1,15.95645,13.07433L351.9316,294.99789A16.27412,16.27412,0,0,1,335.97515,314.47182Z"/>
    </g>
  </g>
  <g class="cls-90">
    <g>
      <g>
        <g>
          <path class="cls-91" d="M1890.92569,648.26081l-.0092,192.52973c0,11.52343-4.79137,23.46913-16.36574,30.17709l-1200.24359,694.551a65.87387,65.87387,0,0,1-33.14465,8.81223V1089.206Z"/>
          <path class="cls-92" d="M641.16251,1089.206v485.1249a65.42927,65.42927,0,0,1-32.65135-8.81223L-88.90625,1162.88416a32.95509,32.95509,0,0,1-12.19912-12.232,33.01055,33.01055,0,0,1-4.20894-15.75019V940.14463Z"/>
          <g>
            <path class="cls-93" d="M1820.5864,589.63488V713.434l-.03291-.03291a32.54045,32.54045,0,0,1-16.342,29.88921L674.298,1396.45026a65.54353,65.54353,0,0,1-33.14465,8.81223L814.214,675.094Z"/>
            <path class="cls-94" d="M1820.5864,638.66265V762.46173l-.03291-.03291a32.54045,32.54045,0,0,1-16.342,29.88921L674.298,1445.478a65.54342,65.54342,0,0,1-33.14465,8.81222L814.214,724.12174Z"/>
            <path class="cls-95" d="M814.214,724.12174,641.1533,1454.29025a65.49044,65.49044,0,0,1-32.61843-8.81222L-88.88274,1042.84351a32.59124,32.59124,0,0,1-16.44077-28.50844v-126.265Z"/>
            <path class="cls-96" d="M1820.5864,568.623V692.42206l-.03291-.03291a32.54045,32.54045,0,0,1-16.342,29.88921L674.298,1375.43836a65.54342,65.54342,0,0,1-33.14465,8.81222l.31865-160.76321Z"/>
            <path class="cls-97" d="M647.41022,1175.0335l-6.25692,209.21708a65.49044,65.49044,0,0,1-32.61843-8.81222L-88.88274,972.80384a32.59124,32.59124,0,0,1-16.44077-28.50844V818.0304Z"/>
            <path class="cls-98" d="M-88.89134,847.8668l697.41649,402.63508a65.76308,65.76308,0,0,0,65.76954-.005L1804.20624,597.336c21.91691-12.65764,21.91572-44.29336-.00214-56.94935L1106.99968,137.80128a65.76307,65.76307,0,0,0-65.76642-.0019L-88.89192,790.914C-110.81319,803.57024-110.81287,835.211-88.89134,847.8668Z"/>
          </g>
        </g>
        <g>
          <path class="cls-99" d="M1139.98407,296.153C1078.73543,288.0308,931.763,313.386,886.50765,335.921c-50.8683,25.33,15.36769,103.04639,15.36769,103.04639l81.12325-53.09691Z"/>
          <polygon class="cls-42" points="1012.86 335.921 894.73 407.539 922.807 443.637 1012.86 335.921"/>
          <ellipse class="cls-40" cx="901.87534" cy="384.77693" rx="28.15088" ry="46.22595" transform="translate(-62.09556 205.3542) rotate(-12.56134)"/>
          <path class="cls-100" d="M1289.35205,361.05051c-71.16164-49.94873-190.6911-109.417-281.35831-20.52788L898.498,444.89109,709.68165,524.97572C585.01908,601.8599,824.45743,731.55183,935.62435,727.91736l147.49132-85.34244,235.72126-70.50535C1387.33728,514.102,1331.82542,390.8628,1289.35205,361.05051Z"/>
          <path class="cls-42" d="M1251.90338,520.446,1192.133,563.52272c-67.98718-63.5405-158.25832-117.29941-252.50132-157.83873l-41.13381,39.2077L709.682,524.97623c-124.66322,76.88434,114.77577,206.5749,225.9425,202.94055l147.491-85.342,115.79366-34.63447,22.71123,9.66654Z"/>
        </g>
        <path class="cls-101" d="M579.33957,389.77818l15.63369-9.199a166.63693,166.63693,0,0,1,118.75236-19.57082c216.5601,45.50011,489.60188,182.525,562.91189,363.11335,53.64095,132.13656,59.44528,219.9681,57.23867,264.25406a85.88929,85.88929,0,0,1-24.01263,55.21177c-159.90705,166.53955-469.84432,337.165-642.58023,379.356a83.88625,83.88625,0,0,1-43.27592-.858C328.504,1336.35127,12.5489,1143.49988-116.21948,1016.24942a85.43316,85.43316,0,0,1-23.54667-78.42175c8.89869-42.245,24.57708-104.82759,45.09676-139.31931C-61.75375,743.18016,579.33957,389.77818,579.33957,389.77818Z"/>
        <path class="cls-42" d="M916.30066,636.49965l40.346,16.66216c7.68291,3.17257,18.63658,5.93247,27.019,5.75758l39.885-2.45767c39.86815,38.008,137.82758,127.94318,174.80619,130.58495,25.432,1.81641,54.16008-35.62551,75.14542-70.306-14.43845-32.9009-35.48822-64.3091-61.54691-93.93924a40.3188,40.3188,0,0,0-4.373,9.2155l-16.60463,42.052-151.9124-76.90122-20.22134-16.58853a51.41312,51.41312,0,0,0-22.29855-11.96466l-37.42658-10.73736a10.082,10.082,0,0,0-12.03676,6.71028c-1.49348,4.66221,4.32777,11.34641,8.66245,13.62458l-40.77251,4.39068A12.42365,12.42365,0,0,0,901.899,595.77316l1.38992,22.51639A21.10908,21.10908,0,0,0,916.30066,636.49965Z"/>
        <ellipse class="cls-46" cx="982.88094" cy="584.53763" rx="56.40626" ry="33.06956"/>
      </g>
      <g>
        <path class="cls-46" d="M848.48343,523.85586l39.98024-34.99771,30.4676,6.336a51.13161,51.13161,0,0,1,31.2133,22.38118l22.68384,35.88542a23.00813,23.00813,0,0,1-4.1167,29.44926l-15.74,14.06656a19.58018,19.58018,0,0,1-21.53007,3.04776l-32.23938-15.49662a64.92709,64.92709,0,0,1-25.18608-21.462Z"/>
        <path class="cls-42" d="M712.9037,434.76031c3.84222,32.59561,95.50176,86.81169,114.10919,97.50456l24.40951,37.48488a64.925,64.925,0,0,0,25.18577,21.46244l32.2397,15.49623a19.579,19.579,0,0,0,21.53-3.04831L946.118,589.59369a23.00857,23.00857,0,0,0,4.11683-29.44912l-22.68438-35.88478a51.1282,51.1282,0,0,0-31.21336-22.38139l-25.22183-5.24518L829.219,445.65108l60.43159-19.79638c3.84836-1.35464,6.708-4.25414,8.6939-8.14315a1160.00172,1160.00172,0,0,0-109.90414-37.9758C749.35534,395.89165,710.76283,416.59931,712.9037,434.76031Z"/>
        <path class="cls-46" d="M972.82867,553.46038,950.14429,517.5756a51.12814,51.12814,0,0,0-31.21337-22.38139L893.70909,489.949l-41.89626-50.98213,60.4316-19.79639c25.06841-8.8243,8.55736-82.77539-22.72044-73.82836,0,0-158.30357,46.45032-154.02642,82.734,3.84222,32.59561,95.50175,86.81168,114.10919,97.50455l24.4095,37.48488A64.92516,64.92516,0,0,0,899.202,584.528l32.23969,15.49622a19.579,19.579,0,0,0,21.52995-3.04831l15.74015-14.06642A23.00856,23.00856,0,0,0,972.82867,553.46038Z"/>
        <path class="cls-46" d="M926.10922,497.50045l40.35122,16.04242c11.60912,4.67385,3.97716,16.74518-4.68448,14.8016l-10.92863-2.42277Z"/>
      </g>
      <path class="cls-47" d="M972.82867,553.46038l-13.89-21.97331L949.76,528.8545a10.082,10.082,0,0,0-12.03677,6.71028h0c-1.49347,4.66221,4.32777,11.34641,8.66245,13.62459L905.61316,553.58a12.42264,12.42264,0,0,0-13.0723,13.17049l.90053,14.60182A65.14476,65.14476,0,0,0,899.202,584.528l32.23969,15.49622a19.579,19.579,0,0,0,21.52995-3.04831l15.74015-14.06642A23.00856,23.00856,0,0,0,972.82867,553.46038Z"/>
      <path class="cls-53" d="M1018.844,555.44462a51.41378,51.41378,0,0,0-22.29862-11.96573L959.11876,532.7421a10.0829,10.0829,0,0,0-12.03695,6.70957l0,0c-1.49323,4.663,4.32823,11.34786,8.66294,13.62461l10.68319-1.15057-51.45562,5.54169a12.42334,12.42334,0,0,0-13.07282,13.17034l1.38958,22.51645A21.10924,21.10924,0,0,0,916.30089,611.365l40.34591,16.66137c7.6827,3.17268,18.63665,5.93287,27.01883,5.75776l49.04584-3.02162,18.43337-48.821Z"/>
    </g>
  </g>
</svg>
