<svg id="Layer_1" data-name="Layer 1" xmlns="http://www.w3.org/2000/svg" xmlns:xlink="http://www.w3.org/1999/xlink" viewBox="0 0 1000 1000">
  <defs>
    <style>
      .cls-1 {
        fill: none;
      }

      .cls-2 {
        fill: url(#linear-gradient);
      }

      .cls-11, .cls-3 {
        fill: #5a9137;
      }

      .cls-4 {
        fill: #fff;
      }

      .cls-5 {
        fill: #b8cbd8;
      }

      .cls-6 {
        fill: #9bb0c4;
      }

      .cls-7 {
        fill: #c7d8e2;
      }

      .cls-8 {
        fill: url(#linear-gradient-2);
      }

      .cls-11, .cls-9 {
        opacity: 0.7;
      }

      .cls-10 {
        fill: url(#linear-gradient-3);
      }

      .cls-12 {
        fill: #87a1af;
      }

      .cls-13 {
        fill: #939393;
      }

      .cls-14 {
        fill: #6b483c;
      }

      .cls-15 {
        fill: url(#linear-gradient-4);
      }

      .cls-16 {
        fill: #366d26;
      }

      .cls-17 {
        fill: url(#linear-gradient-5);
      }

      .cls-18 {
        fill: url(#linear-gradient-6);
      }

      .cls-19 {
        fill: url(#linear-gradient-7);
      }

      .cls-20 {
        fill: url(#linear-gradient-8);
      }

      .cls-21 {
        fill: url(#linear-gradient-9);
      }

      .cls-22 {
        fill: #e2e2e2;
      }

      .cls-23 {
        fill: url(#linear-gradient-10);
      }

      .cls-24 {
        fill: #323f4c;
      }

      .cls-25 {
        fill: #ffbea4;
      }

      .cls-26 {
        fill: url(#linear-gradient-11);
      }

      .cls-27 {
        fill: #dd7b19;
        opacity: 0.6;
      }

      .cls-28 {
        fill: #455260;
      }

      .cls-29 {
        fill: url(#linear-gradient-12);
      }

      .cls-30 {
        fill: #ed8324;
      }

      .cls-31 {
        fill: #e5907c;
      }

      .cls-32 {
        fill: url(#linear-gradient-13);
      }

      .cls-33 {
        fill: url(#linear-gradient-14);
      }

      .cls-34 {
        fill: #ffbda3;
      }

      .cls-35 {
        fill: url(#linear-gradient-15);
      }

      .cls-36 {
        fill: url(#linear-gradient-16);
      }

      .cls-37 {
        fill: #a0674a;
      }

      .cls-38 {
        fill: url(#linear-gradient-17);
      }

      .cls-39 {
        fill: url(#linear-gradient-18);
      }

      .cls-40 {
        fill: #515151;
      }

      .cls-41 {
        fill: #e0c390;
      }

      .cls-42 {
        fill: url(#linear-gradient-19);
      }

      .cls-43 {
        fill: url(#linear-gradient-20);
      }

      .cls-44 {
        fill: #e88170;
      }

      .cls-45 {
        clip-path: url(#clip-path);
      }

      .cls-46 {
        fill: #f5b3a7;
      }

      .cls-47 {
        fill: #f2f2f2;
      }
    </style>
    <linearGradient id="linear-gradient" x1="79.31392" y1="448.83104" x2="920.68608" y2="448.83104" gradientUnits="userSpaceOnUse">
      <stop offset="0" stop-color="#e6f4ff"/>
      <stop offset="1" stop-color="#c0e3ff"/>
    </linearGradient>
    <linearGradient id="linear-gradient-2" x1="410.16706" y1="720.74224" x2="1000.48295" y2="787.92539" gradientUnits="userSpaceOnUse">
      <stop offset="0.00005" stop-color="#9dcc52"/>
      <stop offset="1" stop-color="#69a642"/>
    </linearGradient>
    <linearGradient id="linear-gradient-3" x1="110.38062" y1="533.51614" x2="937.18117" y2="696.54724" gradientUnits="userSpaceOnUse">
      <stop offset="0.00005" stop-color="#9dcc52"/>
      <stop offset="1" stop-color="#649e3f"/>
    </linearGradient>
    <linearGradient id="linear-gradient-4" x1="415.25204" y1="120.36063" x2="523.34226" y2="330.56922" gradientUnits="userSpaceOnUse">
      <stop offset="0" stop-color="#77bf49"/>
      <stop offset="0.99995" stop-color="#366d26"/>
    </linearGradient>
    <linearGradient id="linear-gradient-5" x1="360.27259" y1="329.01474" x2="436.11489" y2="495.62893" gradientUnits="userSpaceOnUse">
      <stop offset="0" stop-color="#67a63f"/>
      <stop offset="0.99995" stop-color="#366d26"/>
    </linearGradient>
    <linearGradient id="linear-gradient-6" x1="115.68271" y1="450.47206" x2="176.59543" y2="623.05809" xlink:href="#linear-gradient-5"/>
    <linearGradient id="linear-gradient-7" x1="801.74315" y1="393.08563" x2="885.94602" y2="585.9759" xlink:href="#linear-gradient-4"/>
    <linearGradient id="linear-gradient-8" x1="736.43564" y1="498.10132" x2="795.5568" y2="636.64789" xlink:href="#linear-gradient-5"/>
    <linearGradient id="linear-gradient-9" x1="294.34801" y1="479.54212" x2="324.23957" y2="538.34519" xlink:href="#linear-gradient-5"/>
    <linearGradient id="linear-gradient-10" x1="507.28941" y1="826.35532" x2="507.28941" y2="908.20433" xlink:href="#linear-gradient-5"/>
    <linearGradient id="linear-gradient-11" x1="482.3798" y1="396.86678" x2="620.93299" y2="574.22848" gradientUnits="userSpaceOnUse">
      <stop offset="0.00005" stop-color="#ffcb48"/>
      <stop offset="1" stop-color="#e68e2b"/>
    </linearGradient>
    <linearGradient id="linear-gradient-12" x1="476.06445" y1="401.80027" x2="614.61764" y2="579.16197" xlink:href="#linear-gradient-11"/>
    <linearGradient id="linear-gradient-13" x1="503.26058" y1="356.90493" x2="536.85215" y2="394.30355" gradientUnits="userSpaceOnUse">
      <stop offset="0.00634" stop-color="#adc0cc"/>
      <stop offset="1" stop-color="#7b90a6"/>
    </linearGradient>
    <linearGradient id="linear-gradient-14" x1="512.14971" y1="348.92069" x2="545.74128" y2="386.3193" xlink:href="#linear-gradient-13"/>
    <linearGradient id="linear-gradient-15" x1="494.17479" y1="365.06582" x2="527.76636" y2="402.46444" xlink:href="#linear-gradient-13"/>
    <linearGradient id="linear-gradient-16" x1="507.16197" y1="377.50719" x2="645.71516" y2="554.86889" xlink:href="#linear-gradient-11"/>
    <linearGradient id="linear-gradient-17" x1="332.58422" y1="675.5417" x2="439.20933" y2="675.5417" gradientUnits="userSpaceOnUse">
      <stop offset="0.00005" stop-color="#e6ac72"/>
      <stop offset="1" stop-color="#b3703f"/>
    </linearGradient>
    <linearGradient id="linear-gradient-18" x1="320.96158" y1="637.4206" x2="440.19563" y2="699.97379" xlink:href="#linear-gradient-17"/>
    <linearGradient id="linear-gradient-19" x1="359.02829" y1="632.0855" x2="378.92708" y2="632.0855" xlink:href="#linear-gradient-11"/>
    <linearGradient id="linear-gradient-20" x1="2696.35235" y1="-963.6533" x2="2858.28169" y2="-713.07972" gradientTransform="translate(-1504.36808 2621.49519) rotate(-29.28462)" gradientUnits="userSpaceOnUse">
      <stop offset="0" stop-color="#ffbea4"/>
      <stop offset="1" stop-color="#ffa38c"/>
    </linearGradient>
    <clipPath id="clip-path">
      <circle class="cls-1" cx="1292.54335" cy="288.28891" r="196.04503"/>
    </clipPath>
  </defs>
  <g>
    <path class="cls-2" d="M79.34318,582.50156S76.916,493.18774,116.27249,454.91318s101.191-29.83447,150.323-53.496,68.673-70.454,112.94076-112.54122,137.15895-27.051,188.88842,3.59733,84.58457,73.86257,134.86125,101.30245,124.53069,34.14994,152.8969,43.40629,64.50325,29.24171,64.50325,69.11385V608.247L79.34318,634.70046Z"/>
    <path class="cls-3" d="M79.34318,577.088s21.42047-26.66578,59.02509-30.45568,39.07465,2.74482,54.19441,0,13.60385-4.9883,51.955-15.36235,99.43105-18.229,99.43105-18.229L79.31392,643.21032Z"/>
    <path class="cls-4" d="M500.00631,431.57193q26.90507-15.31458,58.96574,7.99895c11.73914-9.70807,38.27648-9.70807,52.067,12.54083,0,0,10.86655-12.90471,36.93273-11.38763,42.32538,2.46338,57.721,39.794,57.721,39.794,17.07625-17.62358,66.11994-8.44188,76.44291,33.81255,26.17335-17.23562,59.32356-4.3669,54.447,42.58667l84.1034,12.24225v61.80849H752.9462Z"/>
    <path class="cls-5" d="M120.18373,698.04762,478.974,905.18614a42.10143,42.10143,0,0,0,42.1011-.00061L887.80371,693.4498a21.92256,21.92256,0,0,0,.00026-37.97061L500.00652,431.572,120.18213,650.88832A27.22767,27.22767,0,0,0,120.18373,698.04762Z"/>
    <ellipse class="cls-6" cx="540.13193" cy="704.69372" rx="66.82963" ry="38.40783"/>
    <ellipse class="cls-6" cx="410.41367" cy="699.24087" rx="68.952" ry="39.62759"/>
    <path class="cls-7" d="M580.05931,481.71029l-31.94851,17.169,1.73895,2.51848a9.0369,9.0369,0,0,0,7.14774,3.8976l24.93255.79693a9.03687,9.03687,0,0,0,5.75935-1.8394l0,0a9.0369,9.0369,0,0,0,1.06609-13.43282Z"/>
    <path class="cls-7" d="M402.25333,851.28994l53.97046-31.83584-7.90891-4.25864a15.72082,15.72082,0,0,0-7.97719-1.87036l-21.17905.70627a15.72081,15.72081,0,0,0-12.62807,7.1l-6.11869,9.34425a15.72077,15.72077,0,0,0-.72111,16.00663Z"/>
    <path class="cls-7" d="M461.149,813.47844l2.01709.97425,26.57467-15.37748-.3353-1.40824a6.32783,6.32783,0,0,0-6.15576-4.86218h-8.72643a6.32782,6.32782,0,0,0-3.99509,1.42062L459.906,802.8732A6.32783,6.32783,0,0,0,461.149,813.47844Z"/>
    <path class="cls-8" d="M546.99683,890.21926l-25.91924,14.96483a42.10145,42.10145,0,0,1-42.10484-.00154l-60.42257-34.8917S503.678,808.41656,577.746,764.14c63.00286-37.662,110.92683-85.84513,150.04235-112.41979,43.47722-29.538,79.03487-42.99775,79.03487-42.99775,24.65112-3.35862,73.135-11.75652,113.86283-10.0065C788.03937,712.70651,661.76727,813.43084,546.99683,890.21926Z"/>
    <g class="cls-9">
      <ellipse class="cls-3" cx="774.47834" cy="670.63973" rx="36.44972" ry="20.94811"/>
    </g>
    <path class="cls-3" d="M919.12044,598.661c-31.35069-1.14458-67.0089,3.54635-92.78663,7.258a16.27908,16.27908,0,0,0-.29294,3.034c0,15.319,21.60812,27.73742,48.26307,27.73742.62464,0,1.24361-.0136,1.86247-.02709q21.65364-18.30567,43.54966-37.11564C919.5287,599.249,919.32505,598.95489,919.12044,598.661Z"/>
    <path class="cls-3" d="M79.34318,634.70046v27.61648A21.05072,21.05072,0,0,0,89.867,680.54648l72.83128,42.05763-12.59478-82.778Z"/>
    <path class="cls-10" d="M162.69823,722.60411s81.5061-34.76645,143.18-72.67547c54.69711-33.6206,101.60051-70.79891,150.49025-106.74655,44.77344-32.921,119.55948-67.77444,119.55948-67.77444L500.00652,431.572C343.72008,515.595,283.92859,535.03785,205.55142,567.9652c-65.33077,27.44638-126.20824,66.73526-126.20824,66.73526s23.5283,17.73609,39.318,37.47326C133.59081,690.83571,162.69823,722.60411,162.69823,722.60411Z"/>
    <g class="cls-9">
      <ellipse class="cls-3" cx="152.79155" cy="630.4774" rx="37.56125" ry="21.58693"/>
    </g>
    <g class="cls-9">
      <ellipse class="cls-3" cx="405.67506" cy="514.51814" rx="36.44972" ry="20.94811"/>
    </g>
    <path class="cls-11" d="M496.64448,475.86127c20.13067,0,36.44977-9.37875,36.44977-20.948a12.64147,12.64147,0,0,0-1.00763-4.81888L505.1974,434.56907a62.28972,62.28972,0,0,0-8.55292-.604c-.39252,0-.77315.02666-1.16267.03373q-18.39144,9.85836-35.03988,18.551a12.288,12.288,0,0,0-.24712,2.36346C460.19481,466.48252,476.51391,475.86127,496.64448,475.86127Z"/>
    <path class="cls-12" d="M159.31176,715.51323c.81287-.346,81.98182-35.15306,142.4324-72.31045,42.10914-25.8817,80.25929-54.40844,117.15372-81.99639,10.713-8.01051,21.79164-16.2934,32.795-24.38443,44.88781-33.00481,117.81755-67.13343,120.9003-68.57073l12.169,12.26692s-2.52359,1.16418-5.24321,2.44171-74.86009,34.51421-118.4742,66.582c-10.95193,8.05334-22.00407,16.31739-32.69217,24.30906-37.1771,27.79867-75.61933,56.54468-118.34091,82.80326-50.7981,31.22421-133.68725,68.6046-138.75612,70.882Z"/>
    <polygon class="cls-12" points="584.762 467.75 584.762 480.518 567.606 470.624 567.606 457.856 584.762 467.75"/>
    <path class="cls-7" d="M584.76213,467.75035c-.14037.07013-8.42659,3.37-13.56646,5.87852-20.64728,10.01667-75.23237,36.20234-110.15908,61.88424-10.94636,8.05184-21.998,16.31429-32.68125,24.296-37.17206,27.80455-75.62468,56.55624-118.34005,82.81707C257.96731,674.6057,191.02607,704.796,171.25591,713.497l-17.15628-9.89386,5.21-2.12265c.807-.35087,81.99253-35.15466,142.44321-72.30917,42.10144-25.8924,80.25587-54.41614,117.1473-81.99253,10.7183-8.01683,21.78746-16.29683,32.7865-24.38379,38.25968-28.13775,115.70871-64.8508,115.91921-64.93849l8.33258,4.80657Z"/>
    <path class="cls-3" d="M546.99683,890.21926s53.59147-38.4426,108.23376-81.14122S743.06888,715.70373,788.578,674.45561s132.10812-75.73969,132.10812-75.73969v63.5953a21.05072,21.05072,0,0,1-10.52518,18.23035Z"/>
    <path class="cls-12" d="M418.55018,870.29085l-13.281-19.26876c.96363-.54991,97.12573-55.50483,168.25242-100.56823,36.54153-23.14928,68.55874-48.90935,96.8071-71.63549,18.99327-15.281,36.93383-29.71392,53.02338-40.64529,36.3956-24.72649,67.04621-38.27251,77.17363-42.45056l9.09268,13.36706c-.34519.1302-35.29353,13.54215-77.39411,42.14426-15.56276,10.57162-33.26092,24.811-51.99894,39.88639-28.57385,22.98825-60.96023,49.043-98.25467,72.67191C510.534,809.05085,445.31893,851.3222,418.55018,870.29085Z"/>
    <polygon class="cls-12" points="418.55 856.257 418.55 870.291 401.394 860.397 401.394 846.363 401.517 846.433 418.55 856.257"/>
    <polygon class="cls-13" points="812.14 600.97 812.14 608.023 809.618 609.09 794.984 605.11 794.984 591.077 812.14 600.97"/>
    <path class="cls-7" d="M418.55018,856.257l-17.03347-9.82373c.96362-.54991,100.87824-57.93295,172.00493-102.99636,36.54153-23.14928,68.55874-48.90934,96.8071-71.63548,18.99327-15.281,36.93383-29.71393,53.02338-40.6453a460.31851,460.31851,0,0,1,71.62921-40.08523l17.15877,9.89949c-.3452.13019-37.8152,14.64439-79.91578,43.24651-15.56276,10.57161-33.26092,24.811-51.99894,39.88638-28.57385,22.98825-60.96023,49.043-98.25467,72.67192C510.534,802.03394,419.51552,855.70542,418.55018,856.257Z"/>
    <g>
      <path class="cls-14" d="M536.90627,335.17091l-11.59721,27.90637s-9.569,13.17994-17.86458,19.25609l.48534-27.02864H500.5746l-3.17084,30.51216c-.38319,1.551-3.36624,2.284-5.54487,1.78247C483.363,385.64359,459.5854,357.364,459.5854,357.364l-1.97082-21.58417L430.799,329.33511s12.75255,28.868,16.38207,35.5798c2.53715,4.69165,20.52662,25.20439,31.12528,37.12674a30.43942,30.43942,0,0,1,7.31654,21.22561l-1.005,28.67572a5.327,5.327,0,0,0,2.7382,4.74164c3.69206,2.45352,12.50753,2.46577,16.17659.02779a5.40068,5.40068,0,0,0,2.73668-4.40274h.00285l-.00057-.01662-.00019-.00876-.94206-27.24269a30.351,30.351,0,0,1,7.67245-21.60306c9.19946-9.93363,23.52441-25.83956,28.22526-33.49012,7.12332-11.59287,15.07484-48.50729,15.07484-48.50729Z"/>
      <path class="cls-15" d="M601.07428,254.537c0-20.09683-8.3106-37.61784-20.63241-46.92564-2.984-15.28037-10.90491-27.93043-21.37641-34.83066-.01939-10.33044-4.23666-19.24267-11.4459-22.23486a13.48715,13.48715,0,0,0-1.88034-.624c-6.58879-15.43746-17.7562-27.0056-31.07616-31.46609-4.7191-8.549-11.88633-13.95558-19.83215-13.74839-8.09656.21135-15.1524,6.20754-19.51261,15.2773-9.73264-3.17356-20.94415,5.398-25.44522,19.76515a40.97139,40.97139,0,0,0-1.7526,9.23648c-9.11277,3.53479-17.49427,13.23379-21.665,26.54613a55.88539,55.88539,0,0,0-2.51751,14.55508c-7.22368,3.4046-12.44042,11.2568-13.09889,20.6018-6.20975,2.40495-11.93061,7.7091-15.60423,15.31406a37.29893,37.29893,0,0,0-3.23775,22.50441A50.61819,50.61819,0,0,0,379.69794,282.143c0,15.6569,6.64734,29.51972,16.86489,38.0762a24.3798,24.3798,0,0,0,6.16642,9.70557,20.41214,20.41214,0,0,0,16.24064,5.3827c5.29013,12.5735,18.4124,17.9508,28.31669,19.39963,6.62635,13.88107,23.57932,23.85907,40.15565,23.85907,14.35917,0,27.53561-5.81,37.86683-15.48887,13.05668.82029,31.11348-7.6075,32.29577-28.07789A52.20747,52.20747,0,0,0,580.74677,301.231C592.90073,291.86561,601.07428,274.46779,601.07428,254.537Z"/>
      <path class="cls-16" d="M540.65174,259.65673c-1.39144,16.0166-20.01463,24.32081-29.22206,17.40789,5.06905,20.70726-21.04357,36.26619-35.78234,30.20257-13.51765,13.7287-35.68288,8.2373-43.03814-2.63118-3.97586,13.95733-23.55665,22.99535-36.04637,15.58317a24.3798,24.3798,0,0,0,6.16642,9.70557,20.41214,20.41214,0,0,0,16.24064,5.3827c5.29012,12.57348,18.41239,17.95093,28.31668,19.39976,6.62624,13.881,23.57933,23.85894,40.15566,23.85894,14.35917,0,27.53561-5.81,37.86683-15.48887,13.05669.82025,31.11343-7.60758,32.29577-28.07789A52.20747,52.20747,0,0,0,580.74677,301.231c12.154-9.36535,20.32751-26.76317,20.32751-46.69394,0-20.09683-8.3106-37.61784-20.63241-46.92564-2.984-15.28037-10.90491-27.93043-21.37641-34.83066a22.34894,22.34894,0,0,1-3.10678,31.98025C561.963,228.01014,560.3244,247.85273,540.65174,259.65673Z"/>
    </g>
    <g>
      <path class="cls-14" d="M412.33092,509.04422V427.98991H399.019V509.07h.00608a3.3524,3.3524,0,0,0,1.95879,2.688,10.4057,10.4057,0,0,0,9.41471.01693A3.2658,3.2658,0,0,0,412.33092,509.04422Z"/>
      <path class="cls-17" d="M448.33779,400.99254a66.11991,66.11991,0,0,0,.14422-8.82539c-.82958-16.09547-7.14008-29.26644-14.88052-32.50592.07-.27056.17615-.52382.22923-.8015,1.2061-6.28243-2.41144-11.95738-8.08-12.67523-.04808-.006-.095.00327-.14269-.00212-2.143-16.0772-10.24264-24.74125-19.933-24.74125-9.48882,0-17.44925,8.31215-19.78915,23.75187-8.44618,4.50154-15.83856,17.96-18.06846,34.64775-.29922,2.238-.47,4.43405-.56575,6.594a12.67877,12.67877,0,0,0-7.33045,9.28268,11.67625,11.67625,0,0,0,.99649,7.50161,26.831,26.831,0,0,0-5.90282,17.20869,29.10273,29.10273,0,0,0,1.17456,8.17618c-3.77368,5.5465-5.37092,13.35751-3.80329,21.681,1.8553,9.85131,7.68082,17.924,14.83782,21.87445a31.63258,31.63258,0,0,0,18.22038,15.14859c4.71441,7.52756,12.01449,12.37889,20.23067,12.37889s15.51665-4.85133,20.23145-12.37889a31.62611,31.62611,0,0,0,18.18307-15.08051,20.59369,20.59369,0,0,0,12.40639-15.34685,18.92509,18.92509,0,0,0-1.92684-12.89329,34.53184,34.53184,0,0,0,5.50592-13.09541C462.4968,418.27661,457.48586,406.61846,448.33779,400.99254Z"/>
      <path class="cls-16" d="M460.06883,430.90223a33.92482,33.92482,0,0,1-5.51361,13.075,18.92122,18.92122,0,0,1,1.953,12.91771,20.747,20.747,0,0,1-12.41332,15.34358,31.57152,31.57152,0,0,1-18.17922,15.05993c-4.72595,7.53007-12.03564,12.382-20.22683,12.382-8.2235,0-15.5328-4.85191-20.25875-12.382a31.56985,31.56985,0,0,1-18.21076-15.15454c18.70613,5.019,31.091-3.109,31.7898-22.81057,14.93938,7.98724,31.9637-4.079,27.94649-21.70792,13.53615-4.09037,16.61975-24.33488,4.82057-33.71183,10.18572-7.84312,13.20718-22.867,1.82684-34.24738,7.75083,3.24525,14.0521,16.41488,14.87129,32.51457a68.27222,68.27222,0,0,1-.12615,8.82174C457.48509,406.61076,462.49488,418.26815,460.06883,430.90223Z"/>
    </g>
    <g>
      <path class="cls-14" d="M157.857,630.84773V547.32166H144.13916v83.55267h.00626a3.45464,3.45464,0,0,0,2.01852,2.77,10.723,10.723,0,0,0,9.70181.01744A3.3654,3.3654,0,0,0,157.857,630.84773Z"/>
      <path class="cls-18" d="M194.9619,517.82227a68.13638,68.13638,0,0,0,.14862-9.09452c-.85488-16.5863-7.35781-30.15893-15.3343-33.49719.07213-.27882.18152-.5398.23621-.826,1.24289-6.474-2.485-12.322-8.32644-13.06176-.04954-.00614-.09789.00337-.147-.00218-2.20833-16.56747-10.555-25.49573-20.54085-25.49573-9.77819,0-17.98137,8.56562-20.39262,24.47618-8.70375,4.63881-16.32156,18.5077-18.61946,35.70434-.30834,2.30623-.48431,4.56926-.583,6.795a13.06539,13.06539,0,0,0-7.554,9.56576,12.03228,12.03228,0,0,0,1.02689,7.73036,27.64912,27.64912,0,0,0-6.08284,17.73347,29.99005,29.99005,0,0,0,1.21039,8.42552c-3.88877,5.71564-5.53471,13.76485-3.91928,22.34216,1.91188,10.15173,7.915,18.47064,15.2903,22.54152a32.59716,32.59716,0,0,0,18.776,15.61054c4.85818,7.75711,12.38087,12.75639,20.84761,12.75639s15.98983-4.99928,20.8484-12.75639a32.59058,32.59058,0,0,0,18.73757-15.54039,21.22172,21.22172,0,0,0,12.78473-15.81485,19.5023,19.5023,0,0,0-1.9856-13.28648,35.58514,35.58514,0,0,0,5.67382-13.49475C209.55269,535.63342,204.38894,523.61975,194.9619,517.82227Z"/>
      <path class="cls-16" d="M207.05068,548.64405a34.95944,34.95944,0,0,1-5.68175,13.47375,19.49828,19.49828,0,0,1,2.01255,13.31164,21.37972,21.37972,0,0,1-12.79186,15.81148,32.53437,32.53437,0,0,1-18.7336,15.51919c-4.87007,7.75969-12.40267,12.75956-20.84365,12.75956-8.47427,0-16.00647-4.99987-20.87654-12.75956a32.53263,32.53263,0,0,1-18.7661-15.61669c19.27658,5.172,32.0391-3.20381,32.75923-23.50617,15.395,8.2308,32.93844-4.20342,28.79873-22.3699,13.94893-4.21512,17.12656-25.077,4.96756-34.73988,10.49634-8.0823,13.60994-23.56438,1.88256-35.29176,7.98718,3.34421,14.48061,16.91545,15.32479,33.50611a70.35556,70.35556,0,0,1-.13,9.09076C204.38815,523.61182,209.55071,535.6247,207.05068,548.64405Z"/>
    </g>
    <g>
      <path class="cls-14" d="M864.02277,612.96744V518.94682H848.58136v94.05057h.007a3.88867,3.88867,0,0,0,2.27214,3.118,12.07027,12.07027,0,0,0,10.92078.01963A3.78824,3.78824,0,0,0,864.02277,612.96744Z"/>
      <path class="cls-19" d="M905.78968,485.17323a76.69639,76.69639,0,0,0,.16729-10.2372c-.96228-18.67027-8.28228-33.94821-17.261-37.70591.08119-.31385.20432-.60762.26589-.92972,1.399-7.28743-2.79719-13.87021-9.37261-14.7029-.05576-.00691-.11019.0038-.16551-.00245-2.4858-18.64908-11.88116-28.69912-23.12169-28.69912-11.00676,0-20.24062,9.64184-22.95484,27.55147-9.79732,5.22165-18.37226,20.83307-20.95888,40.19037-.34708,2.596-.54516,5.14336-.65625,7.64879A14.707,14.707,0,0,0,803.229,479.0542a13.544,13.544,0,0,0,1.15591,8.70163,31.12313,31.12313,0,0,0-6.84711,19.96158,33.75837,33.75837,0,0,0,1.36246,9.48414c-4.37736,6.43377-6.23011,15.49431-4.41171,25.14932,2.1521,11.42723,8.90953,20.79136,17.21144,25.37372a36.69281,36.69281,0,0,0,21.1351,17.57191c5.46858,8.73175,13.93645,14.35915,23.467,14.35915s17.99885-5.6274,23.46788-14.35915a36.68534,36.68534,0,0,0,21.09183-17.493,23.88806,23.88806,0,0,0,14.391-17.80189,21.95254,21.95254,0,0,0-2.23508-14.95584,40.05607,40.05607,0,0,0,6.38671-15.19028C922.21371,505.22224,916.40117,491.69912,905.78968,485.17323Z"/>
      <path class="cls-16" d="M919.39734,519.86758a39.35175,39.35175,0,0,1-6.39563,15.16664,21.94807,21.94807,0,0,1,2.26542,14.98417,24.066,24.066,0,0,1-14.39909,17.7981,36.62206,36.62206,0,0,1-21.08736,17.46908c-5.482,8.73465-13.961,14.36272-23.46253,14.36272-9.539,0-18.01759-5.62807-23.49955-14.36272a36.62014,36.62014,0,0,1-21.12395-17.57883c21.69856,5.82185,36.06462-3.60635,36.87523-26.45958,17.32924,9.26495,37.077-4.73156,32.41712-25.18055,15.70153-4.74472,19.27842-28.22775,5.59171-39.10473,11.81513-9.0978,15.31994-26.52511,2.11908-39.726,8.99073,3.76439,16.3,19.04077,17.25026,37.71595a79.19322,79.19322,0,0,1-.14633,10.233C916.40028,491.6902,922.21148,505.21242,919.39734,519.86758Z"/>
    </g>
    <g>
      <path class="cls-14" d="M779.61141,669.76993V613.6285H769.34514v56.15932h.00468c.0154.67356.51671,1.34621,1.51064,1.86183a8.84183,8.84183,0,0,0,7.26072.01172C779.12582,671.14035,779.62111,670.45506,779.61141,669.76993Z"/>
      <path class="cls-20" d="M730.39282,593.31067a20.91606,20.91606,0,0,1,5.35147-14.31134,25.54567,25.54567,0,0,1-2.31055-7.97962c-.96822-7.79645,1.64779-14.95212,6.31949-19.20887-.49251-4.95862,1.2741-9.44426,4.6717-11.83967a22.67071,22.67071,0,0,1-.28866-3.6007c0-9.7647,6.08184-17.82049,13.91308-18.91907-.017-.32034-.034-.6255-.034-.94594,0-13.41112,7.05028-24.2743,15.73092-24.2743,7.6276,0,13.9811,8.37623,15.42525,19.46831,3.14274,1.40364,5.58912,5.05016,6.42152,9.62734,4.41684,2.68521,8.375,7.62865,10.53248,13.8231a24.91806,24.91806,0,0,1,.76438,14.96739,12.14579,12.14579,0,0,1,5.06239,10.23758,13.29877,13.29877,0,0,1-1.91944,6.95732v.01527c6.914,3.43289,10.29462,13.07551,7.61059,23.23682A27.52207,27.52207,0,0,1,812.479,600.8325c4.298,5.11116,5.0794,13.47221,1.37613,21.45174a25.99257,25.99257,0,0,1-10.92339,11.87012,29.85256,29.85256,0,0,1-14.55863,12.20583c-3.95834,5.85884-10.34585,9.18492-16.41048,7.88808a13.03447,13.03447,0,0,1-8.8679-7.12522,28.935,28.935,0,0,1-11.34787-6.46907c-6.81221-2.74629-12.87684-9.04756-15.76493-17.3628a27.4368,27.4368,0,0,1-.79838-16.29477A21.129,21.129,0,0,1,730.39282,593.31067Z"/>
      <path class="cls-16" d="M817.64305,590.56625a27.43935,27.43935,0,0,1-5.1611,10.26646c4.301,5.11616,5.08479,13.477,1.37626,21.443a25.9461,25.9461,0,0,1-10.934,11.88026,29.82687,29.82687,0,0,1-14.54689,12.20646c-3.95681,5.85437-10.34157,9.185-16.42017,7.88019a13.03214,13.03214,0,0,1-8.86964-7.12479,28.70685,28.70685,0,0,1-11.33561-6.47239c14.45,2.08382,23.00257-2.50867,23.43566-16.29246,5.56717,2.88245,11.66787-1.647,8.17013-7.85671,11.95738.58444,16.43122-13.44222,8.67076-20.522,13.12908-2.70963,15.56936-18.0513,4.18606-22.59506,8.22934-3.69856,12.15606-11.60151,10.66675-23.26085a12.12674,12.12674,0,0,1,5.06543,10.2322,13.37561,13.37561,0,0,1-1.91156,6.97023c5.31418,2.62665,8.52569,8.9274,8.52569,16.30965A26.95755,26.95755,0,0,1,817.64305,590.56625Z"/>
    </g>
    <polygon class="cls-12" points="171.256 713.497 171.256 727.531 154.1 717.637 154.1 703.603 154.222 703.673 171.256 713.497"/>
    <path class="cls-21" d="M264.412,544.91394c3.919,5.09472,12.33558,7.63275,26.0708,3.45247,7.91268,6.569,29.39529,5.94812,33.44227-6.49437,6.793,2.762,17.169-4.62818,14.28574-9.86029,12.43822,3.45451,22.81429-6.413,19.42469-14.09284,20.484-9.5638,8.16706-28.26311-2.65689-26.88212,1.19249-11.52929-9.219-17.50494-17.72888-11.06655-5.71057-9.79755-23.5141-6.71832-23.43273,6.40679-15.04828-8.77687-32.96379,5.10765-25.29731,24.29114-7.47986-6.84792-16.8855.87814-14.078,9.289C261.68607,522.38653,260.493,539.81922,264.412,544.91394Z"/>
    <polygon class="cls-22" points="546.782 503.649 549.828 509.74 541.169 522.729 521.852 521.236 523.85 515.861 546.782 503.649"/>
    <polygon class="cls-22" points="554.008 510.785 549.828 518.698 556.397 518.698 568.116 513.189 566.101 509.964 554.008 510.785"/>
    <path class="cls-23" d="M442.70791,883.83648,478.709,905.043a42.10143,42.10143,0,0,0,42.65839.046l52.049-30.50876c2.3708-9.29742-9.34893-15.79179-16.44049-9.10358,3.20987-10.122-7.13541-19.01629-16.18066-8.95979-1.95878-17.58477-22.18837-23.10872-33.62821-10.29569-11.55172-9.37922-24.24187-1.54119-24.73039,11.09368-4.66219-8.90247-22.80164-6.06585-19.72537,8.84844C447.15019,856.51687,436.3449,869.66836,442.70791,883.83648Z"/>
    <g>
      <g>
        <g>
          <path class="cls-24" d="M517.073,690.475c2.91114,2.53116,5.383,14.62583,3.72393,17.85264-1.07682,2.09442-4.97492,4.33032-10.7436,6.99855-5.315,2.45841-8.02427,11.17609-23.43682,9.23738-9.87219-1.2418-9.34965-8.62184-5.48662-11.70106l11.00282-9.4679,9.30142-9.79127S514.16187,687.94389,517.073,690.475Z"/>
          <polygon class="cls-25" points="491.454 408.469 479.415 462.203 464.489 499.112 475.089 500.865 491.745 479.223 498.24 464.61 509.071 400.746 491.454 408.469"/>
          <path class="cls-26" d="M490.34515,410.81911c-4.68039,11.58831-7.72606,29.85918-7.72606,29.85918-1.1906,9.42352,6.25786,16.03046,18.4638,12.47441l15.00423-62.98158S498.18963,391.39672,490.34515,410.81911Z"/>
          <path class="cls-27" d="M493.84486,454.08094l-3.34667-31.56162-3.13628,29.60129A13.01516,13.01516,0,0,0,493.84486,454.08094Z"/>
          <path class="cls-25" d="M489.82261,577.16071s-.44788,17.74021.75109,34.33794c1.10076,15.238,12.53625,78.49911,12.53625,78.49911l-3.7107,6.26284c.92377,5.91212,13.64253,2.89617,13.64253,2.89617,2.32375-1.38943,4.08376-4.16764,3.8412-5.82532l-.87383-6.3904c.14929-26.98524,5.1344-46.77747,1.35905-69.99676l4.66989-32.69526Z"/>
          <path class="cls-28" d="M492.13269,703.39464l7.41659-9.37137c2.04074-2.61351,9.91558-2.60015,13.4925,5.1335,0,0-8.95764,6.94377-13.51116,7.51S491.00418,704.68665,492.13269,703.39464Z"/>
          <path class="cls-24" d="M487.363,516.96387c-2.01109,35.43229-1.89845,56.58184-1.53024,72.95351.39809,17.70009,36.20535,18.81929,38.25988,7.62208l10.55907-67.1643Z"/>
          <path class="cls-24" d="M588.17127,681.35726c.93878-.923,8.036,6.12008,9.05106,9.98416,1.05314,4.00911.27993,6.569-4.55865,12.74427-3.74511,4.7797-5.91072,17.18707-17.7051,20.69552-8.40394,2.49991-16.14261-3.13521-13.06338-8.36056l9.54326-12.11856,4.93214-12.95572Z"/>
          <path class="cls-25" d="M561.48276,577.51583l3.6561,43.76169c9.52113,14.97373,15.16389,41.7282,22.57633,59.27047l2.48514,3.331c1.79788,4.34454-6.9185,15.63636-6.9185,15.63636s-6.38184.14029-8.16783-1.705l.815-11.24636c-7.23445-12.10572-33.118-48.356-36.76763-57.89629-4.36535-11.41135-12.57466-46.9927-12.57466-46.9927Z"/>
          <path class="cls-28" d="M570.36118,705.52c0,1.67958,5.65839,3.74154,8.21783,1.6095s8.20787-12.64046,8.20787-12.64046c-7.17044-3.67506-11.23111-5.611-12.01492-2.47574C574.772,692.01326,570.36118,703.84038,570.36118,705.52Z"/>
          <path class="cls-28" d="M487.363,516.96384l1.48919-20.37888,73.155,5.97183.3726,35.32757,4.25934,69.09009c1.493,16.1986-34.58812,17.49883-37.80918,3.88169-2.27008-9.59685-6.89031-44.64548-9.567-60.83128Z"/>
          <path class="cls-29" d="M531.76368,390.85746c-22.693-6.94753-39.39926,10.32916-41.26546,31.66194-1.28768,10.95458,1.73647,31.38778.36086,49.36565-.80961,10.58091-2.394,17.501-3.07635,35.7374,0,29.75576,75.02866,30.89984,75.02866,8.46556,0,0-.87887-28.90869-.87887-44.51011s5.02385-46.70709,5.02385-46.70709C561.97362,410.87432,544.18478,394.66022,531.76368,390.85746Z"/>
          <path class="cls-27" d="M562.60488,508.80544c-.249-9.20423-.638-25.13445-.67-35.85468l-15.79459-27.01312Z"/>
          <path class="cls-30" d="M516.569,408.00037l-1.45919,6.78565a1.70912,1.70912,0,0,0,1.04866,1.96171v0a1.70914,1.70914,0,0,0,2.199-.93829l2.57839-5.62563Z"/>
          <g>
            <path class="cls-30" d="M517.67312,411.30547l-3.69209-7.39058a1.77151,1.77151,0,0,0-1.97682-.93589l-2.96086.672a.91775.91775,0,0,1-.98084-1.38166c3.05259-4.86694,7.14745-9.64271,11.92925-10.16351l6.10591-1.038-7.5028,8.82035Z"/>
            <path class="cls-25" d="M517.67312,411.30547l7.057-5.24732s15.461-3.94361,14.57469-7.90928c-.87366-3.90935-6.17355-6.8497-12.76714-5.916C513.72733,394.04683,517.67312,411.30547,517.67312,411.30547Z"/>
            <path class="cls-31" d="M517.55112,401.58755c1.21437,7.59464,18.5543,1.37433,17.9603-2.87182l-1.22-16.95411-19.448,2.89193Z"/>
            <path class="cls-30" d="M517.67312,411.30547l8.3405-1.79954a2.55438,2.55438,0,0,1,2.50905.87127l2.77887,3.368a1.87191,1.87191,0,0,0,3.08393-.27975c2.30137-4.145,6.65294-12.62767,5.97762-16.38767-.91162-5.0757-5.593-8.53074-5.593-8.53074.11457,6.92581-6.70239,13.899-9.17532,15.54284S517.67312,411.30547,517.67312,411.30547Z"/>
          </g>
          <path class="cls-32" d="M510.65367,353.59612c-6.3101,5.203-8.15533,14.06942-.114,22.95236l2.66522-7.511Z"/>
          <path class="cls-25" d="M519.50276,396.29947c8.34624-.97544,13.14979-4.87838,14.45626-12.48471l2.7977-16.44925c1.314-6.60418-3.96312-13.58145-11.74719-14.43614-6.80318-.747-14.44229,4.10382-15.27344,11.63986a153.252,153.252,0,0,0-.63984,16.79129C509.35812,388.83923,511.91784,397.18593,519.50276,396.29947Z"/>
          <g>
            <path class="cls-33" d="M540.76268,360.50611c-2.14011-8.43287-11.77764-13.56344-22.18056-10.75724-8.82967,2.381-12.16034,7.29906-11.395,12.84061,1.82826,16.08626,18.33969,1.37482,21.23092,6.56205a3.24087,3.24087,0,0,1,.39688,1.233c.36851,3.71328-.05675,8.6455.326,9.595.39688.96375,3.20308,1.45976,3.13223.24092,1.34636.8929,2.26763,6.803,2.26763,6.803a80.62778,80.62778,0,0,0,5.07391-7.08644C543.10115,374.74982,546.23339,366.11851,540.76268,360.50611Z"/>
            <path class="cls-34" d="M533.81981,385.32562c2.945.2114,5.71926-3.72271,5.95913-7.06455s-2.45171-6.362-5.09045-5.03732C531.376,374.88664,530.87482,385.11423,533.81981,385.32562Z"/>
          </g>
          <path class="cls-35" d="M519.64719,390.9456c.81394-1.09706-.5069-3.36335-2.90948-5.53816-2.2018-1.99306-4.90329-3.56393-6.65715-2.11146a2.97361,2.97361,0,0,0-.867,2.87c.22111,1.01817.76772,2.01461,4.6288,3.57338C516.70325,390.89438,518.95362,391.8804,519.64719,390.9456Z"/>
          <path class="cls-25" d="M569.19962,433.8494s10.27671,31.56323,10.27671,55.82381c0,13.80591-8.43157,39.898-8.43157,39.898L561.498,527.9989l1.651-35.67569-11.3424-40.74592Z"/>
          <path class="cls-36" d="M566.95637,424.87081c3.48571,10.27289,6.85544,19.76652,8.87933,30.58777,2.61537,14.80484-22.15215,15.86594-23.85685,9.4748l-5.88326-19.141C541.54207,427.07621,562.01382,409.37774,566.95637,424.87081Z"/>
        </g>
        <g>
          <path class="cls-37" d="M332.58422,665.31846c-1.07173,10.33143,1.57049,23.85721,26.74937,33.79466l-5.22845,18.704-4.47035,3.81964c-5.24594,3.758-1.10637,9.20241,4.27425,6.839s6.88887-8.9263,6.88887-8.9263,10.19168-13.77877,9.03093-24.1248-10.966-22.45613-10.966-22.45613Z"/>
          <path class="cls-37" d="M409.415,648.029l.05855-6.61729,8.75177-8.98847s19.32785-1.97572,24.80012.59892,12.65951,19.066,12.65951,19.066,2.86888,6.18449,1.9203,10.64907-7.925,3.07767-7.951-.53893l-1.65618-9.13783-9.08409-7.9Z"/>
          <path class="cls-37" d="M416.16565,619.61993c8.798-3.03138,20.14924-3.42615,27.95714-4.69083,8.7669-1.42,30.8883-17.28227,34.025-11.10517s-.0714,14.652-6.61889,19.45271-19.61046,6.25561-26.20831,6.25561-16.85672-3.48912-16.85672-3.48912Z"/>
          <path class="cls-38" d="M357.18631,694.328c-11.35323-2.11479-23.46561-9.45618-24.60209-21.98241l3.34038-21.07384,18.01694-23.496,8.79551,9.23118,15.56088-.05246s32.17325-17.7144,38.97252-17.40687c12.621.57086,16.57431,8.8443,18.7301,13.2738a33.01342,33.01342,0,0,1,2.72212,19.83711c-1.43913,8.26734-12.186,25.366-12.186,25.366s10.97312,5.153,10.44511,8.62279-11.09291,17.56219-13.879,19.00825-6.735,1.32605-5.92974-3.63,7.27506-14.97393,7.27506-14.97393-13.11587-2.69855-13.30267-7.58579,3.77976-15.743,3.77976-15.743c-8.94492,10.40317-21.21449,21.054-29.24559,24.19328,0,0,5.7112,4.1,5.7112,11.229s-21.21762,16.20028-24.49706,19.09448c-2.2737,5.15708-4.547,12.78036-7.70463,13.2029a7.37422,7.37422,0,0,1-7.79439-3.62062c-2.07982-3.131,2.82516-9.566,4.95777-13.33169S372.47325,698.723,372.47325,698.723Z"/>
          <path class="cls-37" d="M410.41367,668.68768c-10.59317,8.24452-21.60589,13.75087-31.05994,14.98281l6.32584,4.24568,3.025-1.427C395.15071,683.01629,403.32935,676.11229,410.41367,668.68768Z"/>
          <path class="cls-37" d="M323.92138,616.16866a22.63689,22.63689,0,0,0-10.22071,12.295c-1.47779,4.78222,3.18529,9.39429,8.78755,6.7258l15.08591-20.03564S328.59245,613.62825,323.92138,616.16866Z"/>
          <path class="cls-39" d="M355.94122,630.65114s-1.615-9.19952-9.48818-13.19244-18.37476-2.58855-21.59723,1.46132-4.47546,7.2463-6.27294,10.8687c-1.64938,3.32393-10.10757,13.42646-10.10757,13.42646-2.15887,3.45021,2.30061,15.68935,12.63446,14.55791,4.76663-.5219,5.69493-3.82177,5.69493-3.82177l6.9281,23.50642Z"/>
          <path class="cls-40" d="M308.60983,644.08261c1.69724-1.47086,5.09157.792,5.39329,2.22519s-2.45124,4.45038-3.80909,3.96007S306.9126,645.55347,308.60983,644.08261Z"/>
          <path class="cls-41" d="M326.80469,653.95132l9.42869-1.76a143.81468,143.81468,0,0,0,15.76478,19.838c10.40928,11.18872,7.03013,22.82833,7.03013,22.82833s-11.36733-1.59491-15.34-4.88866-9.58007-6.70066-12.17585-13.86647S326.80469,653.95132,326.80469,653.95132Z"/>
          <path class="cls-28" d="M328.09736,661.858a10.78747,10.78747,0,0,1-1.2928-7.90671c10.03229,9.55438,29.13666,1.86059,28.72936-15.352l6.7534-1.44024C365.22347,658.37652,337.89279,674.74476,328.09736,661.858Z"/>
          <path class="cls-42" d="M359.34638,636.62914h0a3.70282,3.70282,0,0,1,1.74572-4.83328l12.84858-6.06141a3.47582,3.47582,0,0,1,4.6683,1.80741l0,0a3.70282,3.70282,0,0,1-1.74572,4.83327l-12.84858,6.06141A3.47582,3.47582,0,0,1,359.34638,636.62914Z"/>
          <path class="cls-37" d="M346.06941,623.20861c0-2.29543,2.13438-2.59239,4.43177-2.80675,0,0,8.04236,7.30753,14.9088,10.32916,7.15442,3.14836,9.37363,14.80508,1.33024,14.81746-10.3087.01586-15.72234-4.78206-18.09445-9.25512S346.06941,623.20861,346.06941,623.20861Z"/>
        </g>
      </g>
      <g>
        <path class="cls-25" d="M571.04476,529.57118s.66536,9.511.01,12.08632a21.37,21.37,0,0,1-5.19017,8.84578c-2.78036,2.94051-7.27066,4.02576-7.46706,4.09085a1.64585,1.64585,0,0,1-1.6938-.16412,2.10009,2.10009,0,0,1-.57505-1.74872l1.62186-8.07482L561.498,527.9989Z"/>
        <path class="cls-25" d="M561.467,528.13629s-4.33788,5.79914-5.34479,7.5467-1.44062,2.679-1.43452,3.8414l.02783,5.30385c.19571,1.54784,2.1,2.04732,3.15618.3608Z"/>
      </g>
      <g>
        <path class="cls-43" d="M456.56713,516.9218l-1.04152-5.228a8.566,8.566,0,0,1,1.83756-4.53616l9.12427-11.40857,8.60154,5.1158.50338,8.32213-.97662,4.90413a4.38657,4.38657,0,0,1-2.6386,3.202l-5.75034,2.35665C464.48288,520.36447,458.224,522.375,456.56713,516.9218Z"/>
        <polygon class="cls-44" points="458.54 514.23 463.556 516.709 461.933 512.328 458.54 514.23"/>
        <path class="cls-44" d="M472.52762,508.75114l-4.048-1.91768.237,6.29627c.17261,2.57382-1.33788,4.19682-2.84736,4.41329-1.15936.16918-2.69069-.39144-3.19138-2.67743l-2.26811-7.702a.82717.82717,0,0,1,.57264-1.05063.847.847,0,0,1,1.05063.57264l2.28208,7.75761c.2375.99923.71136,1.51186,1.31239,1.426.64789-.094,1.51215-.97055,1.39956-2.6521l-.31557-8.38372a.8459.8459,0,0,1,1.66156-.25326.826.826,0,0,1,.029.19071l.00589.15649,4.84442,2.29579c.95533.4536,2.23564,1.63562,2.166,2.83734l-.3947,1.98182A4.54673,4.54673,0,0,0,472.52762,508.75114Z"/>
        <path class="cls-40" d="M482.12739,514.83656c2.26912,1.18858,3.58115-5.92651,1.0057-8.1966-2.63808-1.76515-7.15074-1.47895-12.25721-.54316l2.37652,1.12626c.95527.45366,2.23561,1.6356,2.166,2.83734l-.39476,1.98186C476.53905,512.4515,482.12739,514.83656,482.12739,514.83656Z"/>
        <path class="cls-28" d="M462.67779,514.86558l-1.42189-4.82873a2.22839,2.22839,0,0,0-.24176.52635c-12.80979,53.93487-36.143,90.29856-88.32141,116.8898a2.3029,2.3029,0,1,0,2.09107,4.10376c51.92988-26.46544,75.95049-62.23264,89.33878-114.37955A3.42713,3.42713,0,0,1,462.67779,514.86558Z"/>
      </g>
    </g>
  </g>
  <g class="cls-45">
    <g>
      <path class="cls-46" d="M1179.77091,330.16553,1075.0683,508.58721l-63.27607-18.19684-14.12569,45.79222s68.52141,66.55017,103.00853,51.62288,82.58647-98.34645,103.81759-135.8822l44.34078-156.03817Z"/>
      <path class="cls-46" d="M1010.20809,489.62562s-24.676-13.42681-39.25235-13.34734-39.59306,24.9361-39.59306,24.9361l38.0295,52.53891,41.32887-20.06129,7.59487.095C1038.51022,521.17746,1026.93033,497.05273,1010.20809,489.62562Z"/>
      <path class="cls-24" d="M1165.36059,664.91745,972.5833,738.52077c-54.783,16.9777-8.59571,176.86708,46.36473,167.50259l208.33553-36.54208Z"/>
      <ellipse class="cls-24" cx="996.37072" cy="825.25306" rx="32.92887" ry="75.13826" transform="translate(-159.09659 243.2801) rotate(-12.90059)"/>
      <path class="cls-25" d="M974.80165,758.8684l-29.431,6.68887c-49.37485,11.42448-69.99885,53.54479-54.05706,111.423l75.80715,267.88906,51.45076-23.29955c-10.20276-82.02895,7.67726-154.47937-16.89163-231.21178l11.71068-2.19292C1039.84362,882.73987,1024.75645,750.22629,974.80165,758.8684Z"/>
      <g>
        <polygon class="cls-47" points="955.673 576.259 1111.373 733.768 1042.046 551.67 886.346 394.161 955.673 576.259"/>
        <path class="cls-46" d="M999.58115,496.89551l-23.54194-.73463c-9.51506-.29614-13.54871,11.38-.11148,14.7155s22.43377,3.447,35.399,6.011Z"/>
        <polygon class="cls-47" points="955.673 576.259 1111.373 733.768 1360.684 755.692 1204.984 598.183 955.673 576.259"/>
      </g>
    </g>
  </g>
</svg>
