<svg id="Layer_1" data-name="Layer 1" xmlns="http://www.w3.org/2000/svg" xmlns:xlink="http://www.w3.org/1999/xlink" viewBox="0 0 1000 1000">
  <defs>
    <style>
      .cls-1 {
        fill: url(#linear-gradient);
      }

      .cls-2 {
        fill: #b8cbd8;
      }

      .cls-3 {
        fill: url(#linear-gradient-2);
      }

      .cls-4 {
        fill: url(#linear-gradient-3);
      }

      .cls-5 {
        fill: url(#linear-gradient-4);
      }

      .cls-6 {
        fill: url(#linear-gradient-5);
      }

      .cls-7 {
        fill: url(#linear-gradient-6);
      }

      .cls-8 {
        fill: url(#linear-gradient-7);
      }

      .cls-9 {
        fill: url(#linear-gradient-8);
      }

      .cls-10 {
        fill: url(#linear-gradient-9);
      }

      .cls-11 {
        fill: url(#linear-gradient-10);
      }

      .cls-12 {
        fill: url(#linear-gradient-11);
      }

      .cls-13 {
        fill: #2a3f5e;
        opacity: 0.2;
      }

      .cls-14 {
        fill: url(#linear-gradient-12);
      }

      .cls-15 {
        fill: url(#linear-gradient-13);
      }

      .cls-16 {
        fill: url(#linear-gradient-14);
      }

      .cls-17 {
        fill: url(#linear-gradient-15);
      }

      .cls-18 {
        fill: url(#linear-gradient-16);
      }

      .cls-19 {
        fill: url(#linear-gradient-17);
      }

      .cls-20 {
        fill: url(#linear-gradient-18);
      }

      .cls-21 {
        fill: url(#linear-gradient-19);
      }

      .cls-22 {
        fill: url(#linear-gradient-20);
      }

      .cls-23 {
        fill: url(#linear-gradient-21);
      }

      .cls-24 {
        fill: url(#linear-gradient-22);
      }

      .cls-25 {
        fill: url(#linear-gradient-23);
      }

      .cls-26 {
        fill: url(#linear-gradient-24);
      }

      .cls-27 {
        fill: url(#linear-gradient-25);
      }

      .cls-28 {
        fill: url(#linear-gradient-26);
      }

      .cls-29 {
        fill: #444;
      }

      .cls-30 {
        fill: #323f4c;
      }

      .cls-31 {
        fill: #455260;
      }

      .cls-32 {
        fill: #2e3e59;
      }

      .cls-33 {
        fill: #4f4f4f;
      }

      .cls-34 {
        fill: url(#linear-gradient-27);
      }

      .cls-35 {
        fill: url(#linear-gradient-28);
      }

      .cls-36 {
        fill: url(#linear-gradient-29);
      }

      .cls-37 {
        fill: url(#linear-gradient-30);
      }

      .cls-38 {
        fill: url(#linear-gradient-31);
      }

      .cls-39 {
        fill: url(#linear-gradient-32);
      }

      .cls-40 {
        fill: #bcd0e2;
      }

      .cls-41 {
        fill: #d7ebf4;
      }

      .cls-42 {
        fill: #7995a8;
      }

      .cls-43 {
        fill: url(#linear-gradient-33);
      }

      .cls-44 {
        fill: #e58630;
      }

      .cls-45 {
        fill: url(#linear-gradient-34);
      }

      .cls-46 {
        fill: url(#linear-gradient-35);
      }

      .cls-47 {
        fill: #ffcb48;
      }

      .cls-48 {
        fill: url(#linear-gradient-36);
      }

      .cls-49 {
        fill: url(#linear-gradient-37);
      }

      .cls-50 {
        fill: url(#linear-gradient-38);
      }

      .cls-51 {
        fill: url(#linear-gradient-39);
      }

      .cls-52 {
        fill: url(#linear-gradient-40);
      }

      .cls-53 {
        fill: url(#linear-gradient-41);
      }

      .cls-54 {
        fill: url(#linear-gradient-42);
      }

      .cls-55 {
        fill: url(#linear-gradient-43);
      }

      .cls-56 {
        fill: #541510;
        opacity: 0.3;
      }

      .cls-57 {
        fill: url(#linear-gradient-44);
      }

      .cls-58 {
        fill: url(#linear-gradient-45);
      }

      .cls-59 {
        fill: url(#linear-gradient-46);
      }

      .cls-60 {
        fill: #606060;
      }

      .cls-61 {
        fill: url(#linear-gradient-47);
      }

      .cls-62 {
        fill: url(#linear-gradient-48);
      }

      .cls-63 {
        fill: #f0f9fc;
      }

      .cls-64 {
        fill: url(#linear-gradient-49);
      }

      .cls-65 {
        fill: #ffbea4;
      }

      .cls-66 {
        fill: url(#linear-gradient-50);
      }

      .cls-67 {
        fill: #dd7b19;
        opacity: 0.6;
      }

      .cls-68 {
        fill: url(#linear-gradient-51);
      }

      .cls-69 {
        fill: #ed8324;
      }

      .cls-70 {
        fill: #e5907c;
      }

      .cls-71 {
        fill: url(#linear-gradient-52);
      }

      .cls-72 {
        fill: url(#linear-gradient-53);
      }

      .cls-73 {
        fill: url(#linear-gradient-54);
      }

      .cls-74 {
        fill: none;
        stroke: #37444f;
        stroke-width: 0.9166px;
      }

      .cls-74, .cls-96 {
        stroke-miterlimit: 10;
      }

      .cls-75 {
        fill: #eaeaea;
      }

      .cls-76 {
        fill: #ffbda3;
      }

      .cls-77 {
        fill: url(#linear-gradient-55);
      }

      .cls-78 {
        fill: url(#linear-gradient-56);
      }

      .cls-79 {
        fill: #724133;
      }

      .cls-80 {
        fill: url(#linear-gradient-57);
      }

      .cls-81 {
        fill: url(#linear-gradient-58);
      }

      .cls-82 {
        fill: url(#linear-gradient-59);
      }

      .cls-83 {
        fill: url(#linear-gradient-60);
      }

      .cls-84 {
        fill: url(#linear-gradient-61);
      }

      .cls-85 {
        fill: url(#linear-gradient-62);
      }

      .cls-86 {
        fill: url(#linear-gradient-63);
      }

      .cls-87 {
        fill: url(#linear-gradient-64);
      }

      .cls-88 {
        fill: url(#linear-gradient-65);
      }

      .cls-89 {
        fill: url(#linear-gradient-66);
      }

      .cls-90 {
        fill: url(#linear-gradient-67);
      }

      .cls-91 {
        fill: url(#linear-gradient-68);
      }

      .cls-92 {
        fill: url(#linear-gradient-69);
      }

      .cls-93 {
        fill: url(#linear-gradient-70);
      }

      .cls-94 {
        opacity: 0.5;
        fill: url(#linear-gradient-71);
      }

      .cls-95 {
        fill: #34a521;
      }

      .cls-96 {
        font-size: 73.43536px;
        stroke: #000;
        stroke-width: 2.71848px;
        font-family: AvenirLTStd-Black, Avenir LT Std;
        font-weight: 800;
      }

      .cls-97 {
        fill: url(#linear-gradient-72);
      }

      .cls-98 {
        fill: #fff;
      }
    </style>
    <linearGradient id="linear-gradient" x1="549.29348" y1="385.55996" x2="970.58017" y2="385.55996" gradientUnits="userSpaceOnUse">
      <stop offset="0" stop-color="#f0f9ff"/>
      <stop offset="1" stop-color="#c3d6e6"/>
    </linearGradient>
    <linearGradient id="linear-gradient-2" x1="-5789.4886" y1="291.94008" x2="-5734.23427" y2="291.94008" gradientTransform="matrix(-1, 0, 0, 1, -5268.1994, 0)" gradientUnits="userSpaceOnUse">
      <stop offset="0" stop-color="#3e4c59"/>
      <stop offset="1" stop-color="#293440"/>
    </linearGradient>
    <linearGradient id="linear-gradient-3" x1="-5781.12681" y1="291.94236" x2="-5742.60501" y2="291.94236" gradientTransform="matrix(-1, 0, 0, 1, -5268.1994, 0)" gradientUnits="userSpaceOnUse">
      <stop offset="0" stop-color="#5b6f82"/>
      <stop offset="1" stop-color="#849bb2"/>
    </linearGradient>
    <linearGradient id="linear-gradient-4" x1="-5748.61202" y1="168.70274" x2="-5783.13047" y2="417.47364" gradientTransform="matrix(-1, 0, 0, 1, -5268.1994, 0)" gradientUnits="userSpaceOnUse">
      <stop offset="0" stop-color="#62778c"/>
      <stop offset="1" stop-color="#435466"/>
    </linearGradient>
    <linearGradient id="linear-gradient-5" x1="-5717.7063" y1="151.96069" x2="-5814.84396" y2="438.07524" xlink:href="#linear-gradient-3"/>
    <linearGradient id="linear-gradient-6" x1="-5497.70413" y1="464.97949" x2="-5442.4498" y2="464.97949" xlink:href="#linear-gradient-2"/>
    <linearGradient id="linear-gradient-7" x1="-5489.34234" y1="464.98177" x2="-5450.82054" y2="464.98177" xlink:href="#linear-gradient-3"/>
    <linearGradient id="linear-gradient-8" x1="-5457.9375" y1="324.38737" x2="-5487.66675" y2="584.81555" xlink:href="#linear-gradient-4"/>
    <linearGradient id="linear-gradient-9" x1="-5424.83212" y1="328.53113" x2="-5522.04569" y2="601.61287" xlink:href="#linear-gradient-3"/>
    <linearGradient id="linear-gradient-10" x1="128.02302" y1="711.89267" x2="970.58017" y2="711.89267" gradientUnits="userSpaceOnUse">
      <stop offset="0" stop-color="#dae9f2"/>
      <stop offset="0.99337" stop-color="#c4d5e6"/>
    </linearGradient>
    <linearGradient id="linear-gradient-11" x1="593.57498" y1="805.74871" x2="774.8931" y2="805.74871" gradientUnits="userSpaceOnUse">
      <stop offset="0.00005" stop-color="#ffb348"/>
      <stop offset="1" stop-color="#e68e2b"/>
    </linearGradient>
    <linearGradient id="linear-gradient-12" x1="1963.18305" y1="263.22484" x2="2005.48179" y2="263.22484" gradientTransform="translate(-1272.60866)" gradientUnits="userSpaceOnUse">
      <stop offset="0" stop-color="#435466"/>
      <stop offset="1" stop-color="#62778c"/>
    </linearGradient>
    <linearGradient id="linear-gradient-13" x1="1976.4103" y1="228.17011" x2="2001.88205" y2="297.67775" gradientTransform="translate(-1272.60866)" gradientUnits="userSpaceOnUse">
      <stop offset="0" stop-color="#fff"/>
      <stop offset="0.98888" stop-color="#e6edf2"/>
    </linearGradient>
    <linearGradient id="linear-gradient-14" x1="1954.60924" y1="236.09924" x2="2105.28109" y2="373.60349" gradientTransform="translate(-1272.60866)" gradientUnits="userSpaceOnUse">
      <stop offset="0" stop-color="#849bb2"/>
      <stop offset="1" stop-color="#5b6f82"/>
    </linearGradient>
    <linearGradient id="linear-gradient-15" x1="1954.92817" y1="225.01995" x2="2101.42669" y2="356.55202" gradientTransform="translate(-1272.60866)" xlink:href="#linear-gradient-4"/>
    <linearGradient id="linear-gradient-16" x1="1967.51231" y1="211.00392" x2="2114.01083" y2="342.53599" gradientTransform="translate(-1272.60866)" xlink:href="#linear-gradient-4"/>
    <linearGradient id="linear-gradient-17" x1="2018.98529" y1="321.72178" x2="2061.28403" y2="321.72178" xlink:href="#linear-gradient-12"/>
    <linearGradient id="linear-gradient-18" x1="2029.03809" y1="285.65172" x2="2060.38295" y2="355.89167" xlink:href="#linear-gradient-13"/>
    <linearGradient id="linear-gradient-19" x1="1950.83932" y1="240.23017" x2="2101.51117" y2="377.73443" xlink:href="#linear-gradient-14"/>
    <linearGradient id="linear-gradient-20" x1="1950.75467" y1="229.66834" x2="2097.25319" y2="361.2004" gradientTransform="translate(-1272.60866)" xlink:href="#linear-gradient-4"/>
    <linearGradient id="linear-gradient-21" x1="1963.33881" y1="215.65231" x2="2109.83733" y2="347.18437" gradientTransform="translate(-1272.60866)" xlink:href="#linear-gradient-4"/>
    <linearGradient id="linear-gradient-22" x1="2074.78753" y1="312.03893" x2="2117.08627" y2="312.03893" xlink:href="#linear-gradient-12"/>
    <linearGradient id="linear-gradient-23" x1="2084.84033" y1="275.96888" x2="2116.18519" y2="346.20883" xlink:href="#linear-gradient-13"/>
    <linearGradient id="linear-gradient-24" x1="1981.01723" y1="207.16238" x2="2131.68908" y2="344.66664" xlink:href="#linear-gradient-14"/>
    <linearGradient id="linear-gradient-25" x1="1980.47407" y1="196.5673" x2="2126.97258" y2="328.09937" gradientTransform="translate(-1272.60866)" xlink:href="#linear-gradient-4"/>
    <linearGradient id="linear-gradient-26" x1="1993.05821" y1="182.55127" x2="2139.55672" y2="314.08334" gradientTransform="translate(-1272.60866)" xlink:href="#linear-gradient-4"/>
    <linearGradient id="linear-gradient-27" x1="583.39037" y1="424.24657" x2="644.40806" y2="526.79342" gradientTransform="matrix(1, 0, 0, 1, 0, 0)" xlink:href="#linear-gradient-2"/>
    <linearGradient id="linear-gradient-28" x1="457.26031" y1="292.48607" x2="585.32786" y2="523.56448" gradientTransform="matrix(1, 0, 0, 1, 0, 0)" xlink:href="#linear-gradient-4"/>
    <linearGradient id="linear-gradient-29" x1="491.48947" y1="311.11296" x2="573.15573" y2="527.03362" gradientTransform="matrix(1, 0, 0, 1, 0, 0)" xlink:href="#linear-gradient-14"/>
    <linearGradient id="linear-gradient-30" x1="474.52521" y1="317.52924" x2="556.19147" y2="533.4499" gradientTransform="matrix(1, 0, 0, 1, 0, 0)" xlink:href="#linear-gradient-14"/>
    <linearGradient id="linear-gradient-31" x1="497.13504" y1="408.82327" x2="647.4776" y2="408.82327" gradientUnits="userSpaceOnUse">
      <stop offset="0" stop-color="#62788c"/>
      <stop offset="1" stop-color="#526575"/>
    </linearGradient>
    <linearGradient id="linear-gradient-32" x1="497.13498" y1="383.95997" x2="647.47755" y2="383.95997" gradientTransform="matrix(1, 0, 0, 1, 0, 0)" xlink:href="#linear-gradient-14"/>
    <linearGradient id="linear-gradient-33" x1="543.17339" y1="289.64741" x2="608.83121" y2="350.6651" gradientUnits="userSpaceOnUse">
      <stop offset="0.00005" stop-color="#ffcb48"/>
      <stop offset="1" stop-color="#e68e2b"/>
    </linearGradient>
    <linearGradient id="linear-gradient-34" x1="567.05976" y1="305.02938" x2="587.24494" y2="305.02938" gradientTransform="matrix(1, 0, 0, 1, 0, 0)" xlink:href="#linear-gradient-2"/>
    <linearGradient id="linear-gradient-35" x1="567.05977" y1="300.494" x2="587.24505" y2="300.494" gradientTransform="matrix(1, 0, 0, 1, 0, 0)" xlink:href="#linear-gradient-4"/>
    <linearGradient id="linear-gradient-36" x1="847.07624" y1="648.79877" x2="870.41945" y2="648.79877" gradientTransform="matrix(1, 0, 0, 1, 0, 0)" xlink:href="#linear-gradient-2"/>
    <linearGradient id="linear-gradient-37" x1="289.50468" y1="731.87268" x2="312.84788" y2="731.87268" gradientTransform="matrix(1, 0, 0, 1, 0, 0)" xlink:href="#linear-gradient-2"/>
    <linearGradient id="linear-gradient-38" x1="495.40108" y1="852.62729" x2="518.74428" y2="852.62729" gradientTransform="matrix(1, 0, 0, 1, 0, 0)" xlink:href="#linear-gradient-2"/>
    <linearGradient id="linear-gradient-39" x1="583.33726" y1="294.72133" x2="965.2988" y2="587.64173" gradientTransform="matrix(1, 0, 0, 1, 0, 0)" xlink:href="#linear-gradient-4"/>
    <linearGradient id="linear-gradient-40" x1="633.45735" y1="446.77219" x2="855.80029" y2="446.77219" xlink:href="#linear-gradient-31"/>
    <linearGradient id="linear-gradient-41" x1="647.42352" y1="451.66855" x2="838.65017" y2="451.66855" gradientTransform="matrix(1, 0, 0, 1, 0, 0)" xlink:href="#linear-gradient-14"/>
    <linearGradient id="linear-gradient-42" x1="420.22062" y1="507.42172" x2="802.18216" y2="800.34212" gradientTransform="matrix(1, 0, 0, 1, 0, 0)" xlink:href="#linear-gradient-4"/>
    <linearGradient id="linear-gradient-43" x1="299.2263" y1="630.12758" x2="629.59391" y2="928.04094" xlink:href="#linear-gradient-31"/>
    <linearGradient id="linear-gradient-44" x1="277.0519" y1="696.55343" x2="872.64046" y2="696.55343" gradientTransform="matrix(1, 0, 0, 1, 0, 0)" xlink:href="#linear-gradient-2"/>
    <linearGradient id="linear-gradient-45" x1="277.0519" y1="709.18739" x2="872.64046" y2="709.18739" gradientTransform="matrix(1, 0, 0, 1, 0, 0)" xlink:href="#linear-gradient-2"/>
    <linearGradient id="linear-gradient-46" x1="645.85488" y1="428.25687" x2="496.31926" y2="756.47487" xlink:href="#linear-gradient"/>
    <linearGradient id="linear-gradient-47" x1="626.5321" y1="380.84679" x2="883.47935" y2="380.84679" xlink:href="#linear-gradient-31"/>
    <linearGradient id="linear-gradient-48" x1="626.53061" y1="370.81541" x2="883.47936" y2="370.81541" gradientTransform="matrix(1, 0, 0, 1, 0, 0)" xlink:href="#linear-gradient-14"/>
    <linearGradient id="linear-gradient-49" x1="325.37922" y1="534.80501" x2="676.72797" y2="730.79547" xlink:href="#linear-gradient-33"/>
    <linearGradient id="linear-gradient-50" x1="476.05906" y1="381.76767" x2="523.85238" y2="509.37121" xlink:href="#linear-gradient-33"/>
    <linearGradient id="linear-gradient-51" x1="427.46371" y1="399.96884" x2="475.25704" y2="527.57238" xlink:href="#linear-gradient-33"/>
    <linearGradient id="linear-gradient-52" x1="492.53653" y1="372.41133" x2="426.27372" y2="435.6363" gradientTransform="translate(20.65241)" gradientUnits="userSpaceOnUse">
      <stop offset="0.00634" stop-color="#adc0cc"/>
      <stop offset="1" stop-color="#7b90a6"/>
    </linearGradient>
    <linearGradient id="linear-gradient-53" x1="501.05155" y1="381.33548" x2="434.78874" y2="444.56045" xlink:href="#linear-gradient-52"/>
    <linearGradient id="linear-gradient-54" x1="482.08698" y1="361.4597" x2="415.82417" y2="424.68468" xlink:href="#linear-gradient-52"/>
    <linearGradient id="linear-gradient-55" x1="400.13321" y1="410.20535" x2="447.92654" y2="537.80889" xlink:href="#linear-gradient-33"/>
    <linearGradient id="linear-gradient-56" x1="762.02518" y1="644.17209" x2="712.60781" y2="696.60555" gradientTransform="matrix(-1, 0, 0, 1, 1660.21293, 0)" xlink:href="#linear-gradient-33"/>
    <linearGradient id="linear-gradient-57" x1="698.44296" y1="587.79822" x2="729.06781" y2="604.50268" gradientTransform="matrix(-1, 0, 0, 1, 1660.21293, 0)" gradientUnits="userSpaceOnUse">
      <stop offset="0" stop-color="#f2883c"/>
      <stop offset="0.16716" stop-color="#e97d35"/>
      <stop offset="0.67368" stop-color="#d26124"/>
      <stop offset="0.96784" stop-color="#c9571e"/>
    </linearGradient>
    <linearGradient id="linear-gradient-58" x1="715.16558" y1="549.71657" x2="736.20083" y2="590.08569" xlink:href="#linear-gradient-57"/>
    <linearGradient id="linear-gradient-59" x1="765.56693" y1="614.10313" x2="740.04622" y2="630.34358" xlink:href="#linear-gradient-57"/>
    <linearGradient id="linear-gradient-60" x1="697.82337" y1="607.20684" x2="731.69631" y2="621.2819" xlink:href="#linear-gradient-57"/>
    <linearGradient id="linear-gradient-61" x1="710.22454" y1="565.09688" x2="727.23835" y2="595.8764" xlink:href="#linear-gradient-57"/>
    <linearGradient id="linear-gradient-62" x1="788.0208" y1="572.07536" x2="745.17694" y2="610.58843" xlink:href="#linear-gradient-57"/>
    <linearGradient id="linear-gradient-63" x1="764.15384" y1="551.43025" x2="743.89195" y2="586.8499" xlink:href="#linear-gradient-57"/>
    <linearGradient id="linear-gradient-64" x1="912.23831" y1="386.54445" x2="937.9137" y2="451.66095" gradientUnits="userSpaceOnUse">
      <stop offset="0.00844" stop-color="#ffc63f"/>
      <stop offset="1" stop-color="#e68a23"/>
    </linearGradient>
    <linearGradient id="linear-gradient-65" x1="919.7051" y1="390.62206" x2="928.46669" y2="404.32439" gradientTransform="matrix(1, 0, 0, 1, 0, 0)" xlink:href="#linear-gradient-4"/>
    <linearGradient id="linear-gradient-66" x1="902.7423" y1="400.51877" x2="933.59915" y2="448.77611" gradientTransform="matrix(1, 0, 0, 1, 0, 0)" xlink:href="#linear-gradient-4"/>
    <linearGradient id="linear-gradient-67" x1="595.36287" y1="180.9638" x2="621.03826" y2="246.0803" xlink:href="#linear-gradient-64"/>
    <linearGradient id="linear-gradient-68" x1="602.82966" y1="185.0414" x2="611.59125" y2="198.74373" gradientTransform="matrix(1, 0, 0, 1, 0, 0)" xlink:href="#linear-gradient-4"/>
    <linearGradient id="linear-gradient-69" x1="585.86685" y1="194.93811" x2="616.72371" y2="243.19545" gradientTransform="matrix(1, 0, 0, 1, 0, 0)" xlink:href="#linear-gradient-4"/>
    <linearGradient id="linear-gradient-70" x1="313.38111" y1="89.13206" x2="149.12055" y2="449.67007" xlink:href="#linear-gradient"/>
    <linearGradient id="linear-gradient-71" x1="189.50641" y1="248.17567" x2="61.43886" y2="345.92772" gradientTransform="matrix(1, 0, 0, 1, 0, 0)" xlink:href="#linear-gradient-3"/>
    <linearGradient id="linear-gradient-72" x1="165.39081" y1="188.57886" x2="165.39081" y2="419.46732" gradientUnits="userSpaceOnUse">
      <stop offset="0" stop-color="#ff6969"/>
      <stop offset="1" stop-color="#c21941"/>
    </linearGradient>
  </defs>
  <g>
    <g>
      <g>
        <polygon class="cls-1" points="549.293 59.227 970.58 302.448 970.58 711.893 549.293 468.649 549.293 59.227"/>
        <polygon class="cls-2" points="549.31 59.227 128.023 302.448 128.023 711.893 549.31 468.649 549.31 59.227"/>
      </g>
      <g>
        <g>
          <path class="cls-3" d="M521.2892,421.80039,474.40553,448.858l.00008-6.96969L466.03487,162.065l46.89254-27.04281,8.36179,4.82606Z"/>
          <polygon class="cls-4" points="512.927 144.674 512.899 416.999 474.406 439.211 474.406 434.368 508.685 414.597 508.685 147.123 512.927 144.674"/>
          <polygon class="cls-5" points="521.289 139.848 521.285 421.804 474.406 448.858 474.406 439.211 512.927 416.983 512.927 144.674 521.289 139.848"/>
          <path class="cls-6" d="M466.03487,463.36558l63.62862-36.72333V125.33575L466.03487,162.065Zm8.37066-14.50759V166.90671l46.87963-27.05877V421.80407Z"/>
        </g>
        <g>
          <path class="cls-7" d="M229.50473,594.8398l-46.88367,27.0576.00008-6.96969L174.2504,335.10438l46.89254-27.0428,8.36179,4.82605Z"/>
          <polygon class="cls-8" points="221.143 317.713 221.115 590.038 182.621 612.25 182.621 607.407 216.901 587.637 216.901 320.163 221.143 317.713"/>
          <polygon class="cls-9" points="229.505 312.888 229.501 594.844 182.621 621.897 182.621 612.25 221.143 590.022 221.143 317.713 229.505 312.888"/>
          <path class="cls-10" d="M174.2504,636.405,237.879,599.68166V298.37516L174.2504,335.10438Zm8.37066-14.50759V339.94613l46.87963-27.05878V594.84349Z"/>
        </g>
      </g>
      <path class="cls-11" d="M135.2928,724.49667l392.21059,226.4329a43.6172,43.6172,0,0,0,43.61687-.00063l392.1905-226.4365a14.53906,14.53906,0,0,0,.00017-25.18216L571.10327,472.8567a43.61721,43.61721,0,0,0-43.61994.00054L135.292,699.31448A14.53906,14.53906,0,0,0,135.2928,724.49667Z"/>
      <path class="cls-12" d="M595.49442,816.71065l109.634-63.34411a7.68541,7.68541,0,0,1,7.693,0l60.15222,34.76671a3.84269,3.84269,0,0,1,0,6.65353l-109.634,63.3441a7.68534,7.68534,0,0,1-7.693,0l-60.15222-34.7667A3.84269,3.84269,0,0,1,595.49442,816.71065Z"/>
      <path class="cls-13" d="M278.08842,750.82328l218.6361,126.2238a20.61634,20.61634,0,0,0,20.61838-.00158L871.56373,672.28328a10.30818,10.30818,0,0,0-.00067-17.8533L652.99345,528.22178a20.61635,20.61635,0,0,0-20.6174-.0006L278.08824,732.96889A10.30818,10.30818,0,0,0,278.08842,750.82328Z"/>
      <g>
        <g>
          <polygon class="cls-14" points="732.873 243.382 690.574 218.922 690.574 283.067 732.873 307.528 732.873 243.382"/>
          <polygon class="cls-15" points="732.873 246.725 699.726 227.557 699.726 277.824 732.873 296.993 732.873 246.725"/>
          <path class="cls-16" d="M694.36754,225.49681,729.08,245.57059v55.3823l-34.71246-20.07381V225.49681m-3.79314-6.57526v64.14574l42.29874,24.46086V243.38239L690.5744,218.92155Z"/>
          <polygon class="cls-17" points="739.722 303.585 739.722 239.439 732.873 243.382 732.873 307.528 739.722 303.585"/>
          <polygon class="cls-18" points="739.722 239.439 697.409 214.987 690.574 218.922 732.873 243.382 739.722 239.439"/>
        </g>
        <g>
          <polygon class="cls-19" points="788.675 301.879 746.377 277.418 746.377 341.564 788.675 366.025 788.675 301.879"/>
          <polygon class="cls-20" points="788.675 305.222 755.528 286.054 755.528 336.321 788.675 355.49 788.675 305.222"/>
          <path class="cls-21" d="M750.16978,283.99374l34.71245,20.07379v55.38229L750.16978,339.376V283.99374m-3.79314-6.57526v64.14574l42.29873,24.46086V301.87932l-42.29873-24.46084Z"/>
          <polygon class="cls-22" points="795.525 362.082 795.525 297.936 788.675 301.879 788.675 366.025 795.525 362.082"/>
          <polygon class="cls-23" points="795.525 297.936 753.212 273.484 746.377 277.418 788.675 301.879 795.525 297.936"/>
        </g>
        <g>
          <polygon class="cls-24" points="844.478 292.196 802.179 267.736 802.179 331.881 844.478 356.342 844.478 292.196"/>
          <polygon class="cls-25" points="844.478 295.54 811.331 276.371 811.331 326.638 844.478 345.807 844.478 295.54"/>
          <path class="cls-26" d="M805.972,274.3109l34.71245,20.07379V349.767L805.972,329.69318V274.3109m-3.79314-6.57526v64.14574l42.29873,24.46086V292.19648l-42.29873-24.46084Z"/>
          <polygon class="cls-27" points="851.327 352.399 851.327 288.253 844.478 292.196 844.478 356.342 851.327 352.399"/>
          <polygon class="cls-28" points="851.327 288.253 809.014 263.801 802.179 267.736 844.478 292.196 851.327 288.253"/>
        </g>
      </g>
      <g>
        <path class="cls-29" d="M440.649,661.53984s-1.41479,12.00261.73949,15.192c1.39826,2.07013,7.70388,4.24747,14.27011,5.33665,6.12816,1.01651,12.55018,7.68674,24.00182,5.20913,8.66741-1.87523,10.33585-8.82958,6.27686-11.1535l-10.86719-6.5155-14.18164-8.86085Z"/>
        <path class="cls-30" d="M471.32082,478.39254l11.51455,94.79483-18.29219,88.85155c-.57946,7.70558-24.62463,8.14015-24.98082,0l8.36264-87.61652-14.8447-83.47617Z"/>
        <path class="cls-31" d="M472.68141,469.6975l-71.02846,22.04s-4.69343,28.36811-5.92557,46.60729.69143,52.50538.69143,52.50538-.45789,80.5692.55684,95.85324c.50626,7.47874,22.089,9.362,22.83666,1.13054L430.73524,590.944l8.41028-60.10034,34.85951-30.353Z"/>
        <path class="cls-29" d="M398.311,687.2465a36.98868,36.98868,0,0,0,1.13024,9.44571,106.23932,106.23932,0,0,0,3.895,10.84436c1.42523,3.34809,1.89409,9.35423,7.92492,13.6321,9.05316,6.4217,20.46854.61489,16.91959-7.49169l-4.26043-10.32457-5.48247-17.80592Z"/>
      </g>
      <g>
        <g>
          <path class="cls-32" d="M578.18984,540.2103l2.3607,17.56c0,2.16759,3.05752,3.92472,6.8291,3.92472s6.82891-1.75713,6.82891-3.92472l2.37058-17.56Z"/>
          <path class="cls-33" d="M626.235,512.49936l2.3607,17.56c0,2.16758,3.05752,3.92472,6.8291,3.92472s6.82891-1.75714,6.82891-3.92472l2.37058-17.56Z"/>
          <path class="cls-32" d="M500.69808,495.14947l2.3607,17.56c0,2.16758,3.05751,3.92471,6.82909,3.92471s6.82892-1.75713,6.82892-3.92471l2.37058-17.56Z"/>
          <path class="cls-34" d="M646.54134,407.18846v111.6077a4.298,4.298,0,0,1-2.14621,3.73809l-52.70031,30.47033a8.597,8.597,0,0,1-4.31033,1.14472V390.81576Z"/>
          <path class="cls-35" d="M587.38449,390.81576V554.1493a8.59743,8.59743,0,0,1-4.31077-1.14472L500.229,505.18435a4.27883,4.27883,0,0,1-2.16434-3.73808V389.83856Z"/>
          <polygon class="cls-36" points="507.728 405.471 507.728 447.276 577.722 487.68 577.722 445.875 507.728 405.471"/>
          <polygon class="cls-37" points="507.728 456.732 507.728 498.553 577.722 538.957 577.722 497.136 507.728 456.732"/>
          <path class="cls-38" d="M497.135,375.285V389.1001a4.312,4.312,0,0,0,2.17411,3.76818l83.72143,48.32457a8.70541,8.70541,0,0,0,8.71382,0l53.55909-30.97468A4.312,4.312,0,0,0,647.4776,406.45V392.63485Z"/>
          <path class="cls-39" d="M645.30344,388.86675l-83.72157-48.32451a8.70508,8.70508,0,0,0-8.71372,0l-53.55906,30.97462a4.35255,4.35255,0,0,0,0,7.53634l83.72156,48.3245a8.7051,8.7051,0,0,0,8.71373,0l53.55906-30.97461A4.35255,4.35255,0,0,0,645.30344,388.86675Z"/>
        </g>
        <g>
          <g>
            <g>
              <path class="cls-40" d="M598.77134,377.83563c-2.31682-5.65283-11.10486-9.86437-21.619-9.86437s-19.30222,4.21154-21.61894,9.86437h-.61689V380.789c0,7.079,9.95528,12.81775,22.23583,12.81775s22.23591-5.7387,22.23591-12.81775v-2.95339Z"/>
              <ellipse class="cls-41" cx="577.15235" cy="377.40062" rx="22.23588" ry="12.81779"/>
              <path class="cls-40" d="M593.98411,374.11h.01243l-.02618-.15529-.004-.02485-1.88305-11.2597H562.2216L560.351,373.88193c-.008.04393-.01465.08807-.02174.13222l-.016.09584h.00755a5.71084,5.71084,0,0,0-.07277.8275c0,5.3816,7.56859,9.744,16.90442,9.744s16.904-4.36243,16.904-9.744A5.71051,5.71051,0,0,0,593.98411,374.11Z"/>
              <ellipse class="cls-41" cx="577.15235" cy="362.88861" rx="14.93093" ry="8.60688"/>
            </g>
            <path class="cls-42" d="M573.72627,338.75452v22.546c0,1.09073,1.5339,1.97494,3.42607,1.97494s3.42609-.88421,3.42609-1.97494v-22.546Z"/>
          </g>
          <g>
            <path class="cls-43" d="M611.36019,335.91472h.0018l-.00554-.028a11.81451,11.81451,0,0,0-.31746-1.61749L604.13357,292.669H550.16616l-6.90739,41.62321a11.80757,11.80757,0,0,0-.30507,1.555l-.01336.06754h.00424a11.54244,11.54244,0,0,0-.10169,1.44639c0,10.89005,15.361,19.71813,34.30942,19.71813,18.94877,0,34.30974-8.82808,34.30974-19.71813A11.51235,11.51235,0,0,0,611.36019,335.91472Z"/>
            <ellipse class="cls-44" cx="577.15241" cy="293.99881" rx="27.08493" ry="15.56605"/>
            <path class="cls-45" d="M567.05976,308.43622a45.69078,45.69078,0,0,0,20.18518,0v-7.94228H567.05976Z"/>
            <ellipse class="cls-46" cx="577.15241" cy="300.494" rx="10.09264" ry="5.81787"/>
            <path class="cls-47" d="M577.1524,279.76773c14.19857,0,25.74982,6.384,25.74982,14.231S591.351,308.22992,577.1524,308.22992s-25.74982-6.38411-25.74982-14.23115,11.55125-14.231,25.74982-14.231m0-1.335c-14.95852,0-27.08492,6.96918-27.08492,15.566,0,8.597,12.1264,15.56614,27.08492,15.56614s27.08492-6.96917,27.08492-15.56614c0-8.59685-12.12639-15.566-27.08492-15.566Z"/>
          </g>
        </g>
      </g>
      <g>
        <g>
          <path class="cls-48" d="M847.07624,635.56867l3.21582,21.51293c0,2.73239,3.79942,4.94726,8.48622,4.94726s8.48622-2.21487,8.48622-4.94726l3.15495-21.51293Z"/>
          <path class="cls-49" d="M289.50468,718.64258l3.21582,21.51293c0,2.73239,3.79942,4.94727,8.48622,4.94727s8.48622-2.21488,8.48622-4.94727l3.15494-21.51293Z"/>
          <path class="cls-50" d="M495.40108,839.39719l3.21582,21.51293c0,2.73239,3.79942,4.94727,8.48622,4.94727s8.48622-2.21488,8.48622-4.94727l3.15494-21.51293Z"/>
          <polygon class="cls-51" points="876.598 578.81 876.598 435.416 855.8 447.462 855.8 587.872 876.598 578.81"/>
          <g>
            <polygon class="cls-52" points="633.457 316.031 633.457 462.108 855.8 577.513 855.8 447.462 633.457 316.031"/>
            <polygon class="cls-53" points="647.424 324.328 647.424 513.719 838.65 579.009 838.65 437.366 647.424 324.328"/>
            <path class="cls-54" d="M876.598,578.81038l-.00272,56.92646a9.99936,9.99936,0,0,1-4.839,8.92265L516.87276,850.02172a19.47733,19.47733,0,0,1-9.80008,2.60557V709.18739Z"/>
            <path class="cls-55" d="M507.07268,709.18739v143.4399a19.34582,19.34582,0,0,1-9.65423-2.60557L291.2087,730.97227a9.60241,9.60241,0,0,1-4.85147-8.27368V665.11348Z"/>
            <g>
              <path class="cls-56" d="M855.80029,561.47608v36.60445l-.00973-.00973a9.62141,9.62141,0,0,1-4.832,8.83752L516.87,800.03221a19.37967,19.37967,0,0,1-9.80008,2.60557L558.23988,586.7443Z"/>
              <path class="cls-57" d="M855.80029,575.97243v36.60444l-.00973-.00973a9.62142,9.62142,0,0,1-4.832,8.83753L516.87,814.52856a19.37956,19.37956,0,0,1-9.80008,2.60556l51.16992-215.89347Z"/>
              <path class="cls-58" d="M558.23988,601.24065,507.07,817.13412a19.36392,19.36392,0,0,1-9.6445-2.60556L291.21565,695.4791a9.63646,9.63646,0,0,1-4.86115-8.42927V649.71628Z"/>
              <path class="cls-40" d="M855.80029,555.26336v36.60445l-.00973-.00973a9.62141,9.62141,0,0,1-4.832,8.83752L516.87,793.81949a19.37967,19.37967,0,0,1-9.80008,2.60557l.09421-47.53386Z"/>
              <path class="cls-40" d="M508.92,734.56454l-1.85,61.86052a19.36394,19.36394,0,0,1-9.6445-2.60557L291.21565,674.77a9.63649,9.63649,0,0,1-4.86115-8.42927V629.00721Z"/>
              <path class="cls-59" d="M291.21311,637.82912,497.42259,756.87875a19.4446,19.4446,0,0,0,19.44649-.00149l334.088-193.12416a9.72229,9.72229,0,0,0-.00063-16.83857L644.80966,427.87962a19.44461,19.44461,0,0,0-19.44557-.00056L291.21294,620.98953A9.72228,9.72228,0,0,0,291.21311,637.82912Z"/>
            </g>
            <polygon class="cls-60" points="651.721 305.472 876.598 435.416 855.8 447.462 633.457 316.031 651.721 305.472"/>
            <path class="cls-61" d="M883.47935,434.44812,626.5321,305.43427v9.72045l.0025-.00089a2.8867,2.8867,0,0,0,1.42849,2.55513L860.97632,455.4476a5.83354,5.83354,0,0,0,5.89218.0261l15.15606-8.77872a2.8776,2.8776,0,0,0,1.434-2.69125l.02077.01109Z"/>
            <path class="cls-62" d="M646.80871,296.00683,882.022,431.92345a2.91668,2.91668,0,0,1,.00261,5.04926l-15.15607,8.77871a5.83337,5.83337,0,0,1-5.89216-.02611L627.96311,307.98671a2.91669,2.91669,0,0,1,.02438-5.0359l12.01-6.94327A6.8056,6.8056,0,0,1,646.80871,296.00683Z"/>
          </g>
        </g>
        <path class="cls-40" d="M641.44631,475.46644c.20736-.22368,40.53092-23.35158,40.53092-23.35158-.20982-1.40013-.54349-3.05652.35714-3.52473,1.02233-.53141,3.115.49933,4.2147,1.77928,13.98963-2.95376,20.42149-2.90315,48.25016,12.91863,36.06646,20.50532,38.25636,29.68625,46.33005,44.008,2.51023,1.19222,3.84858,1.998,3.275,3.5002-.53091,1.39047-4.0253,2.11-5.79145,1.49588L740.55956,534.1423c.36258,1.60826-.25044,3.76088-1.26324,4.26771-1.331.66622-3.23469-.71458-4.08581-3.39371l-.00094-.00212c-16.58944-.68751-39.17822-10.78829-54.17259-20.24386-12.46056-7.85784-33.67176-20.48823-39.38492-33.96359-2.2021-.0051-4.34905-1.10569-4.43248-2.4997C637.13486,476.889,639.20441,475.70383,641.44631,475.46644Z"/>
        <path class="cls-63" d="M637.6866,465.7462c.20736-.22369,40.53092-23.35158,40.53092-23.35158-.20983-1.40014-.54349-3.05652.35713-3.52474,1.02233-.5314,3.115.49933,4.2147,1.77929,13.98964-2.95376,20.42149-2.90316,48.25017,12.91863,36.06645,20.50532,38.25635,29.68624,46.33,44.008,2.51022,1.19222,3.84857,1.998,3.275,3.50019-.5309,1.39047-4.0253,2.11-5.79145,1.49589l-38.05327,21.85018c.36258,1.60826-.25043,3.76088-1.26324,4.26771-1.331.66622-3.23469-.71459-4.08581-3.39371l-.00093-.00212c-16.58945-.68751-39.17823-10.78829-54.17259-20.24386-12.46056-7.85785-33.67176-20.48823-39.38493-33.96359-2.2021-.0051-4.349-1.10569-4.43248-2.4997C633.37515,467.1687,635.44469,465.98358,637.6866,465.7462Z"/>
        <path class="cls-64" d="M525.13788,483.25813c65.959,8.38928,214.1223,115.48649,219.49094,137.20285s2.6513,54.78821-1.592,59.208c-47.24868,49.21436-170.524,112.11314-221.99774,122.96909-18.306,3.86078-42.89937-5.46516-58.72065-15.78778-36.27034-23.66466-185.14824-97.95118-185.14824-112.56366,0-10.86146-1.354-35.51366,9.18158-52.38925,10.06189-16.11687,31.6825-24.5158,45.98873-33.01386C361.62646,571.48736,525.13788,483.25813,525.13788,483.25813Z"/>
      </g>
      <g>
        <path class="cls-65" d="M531.611,487.68014s-31.86222-15.73991-36.50234-23.31879-13.38746-28.08156-13.38746-28.08156,12.22231-35.30905,19.18762-21.26235c2.897,5.84231,12.01855,38.74895,12.01855,38.74895l23.78777,24.62615Z"/>
        <path class="cls-66" d="M487.77762,452.69563l-6.05638-16.41584,10.21817-38.18042s3.48876.53584,10.45407,14.58255c2.897,5.84231,8.279,29.92883,8.279,29.92883C512.03831,454.33871,491.75847,460.50315,487.77762,452.69563Z"/>
        <path class="cls-67" d="M499.1538,424.36783l-14.429,20.05289,3.05286,8.275a5.71408,5.71408,0,0,0,2.52375,2.46562Z"/>
        <path class="cls-68" d="M466.03487,394.37275c23.7887-5.66746,43.18334,12.79993,30.19492,36.96635l-12.59927,23.8071L474.005,480.731c0,4.297.60976,13.05652.60976,13.05652.29327,10.066-7.52655,19.1505-18.98591,24.59866-18.11439,8.61216-56.95753.99154-56.95753-14.3517l7.65621-40.02111,10.79122-37.07947C432.62163,409.60783,447.85672,398.70353,466.03487,394.37275Z"/>
        <path class="cls-67" d="M403.42812,479.16954,398.74645,504.985c.55506,5.19569,5.59635,9.44432,12.6853,12.39535V500.71747l23.626-46.992-30.02943,17.07924Z"/>
        <g>
          <path class="cls-69" d="M473.84144,420.22213l1.77827,6.05075a1.70823,1.70823,0,0,0,2.02579,1.18217h0a1.70823,1.70823,0,0,0,1.32073-1.7096l-.19465-7.26337Z"/>
          <path class="cls-65" d="M480.16626,411.67358c-1.40325,4.29877-3.54074,10.07593-3.54074,10.07593s-17.373-15.0351-15.96978-19.33387,5.65242-5.93377,11.85508-3.909S481.56951,407.37481,480.16626,411.67358Z"/>
          <path class="cls-70" d="M477.42087,411.96275c-5.73773,7.60762-15.67866-7.28-13.27538-10.457l9.85943-12.51679,13.27538,10.457Z"/>
          <path class="cls-69" d="M470.09351,393.95462s-3.10524,4.42573-3.25093,6.5663c-.42966,6.3125,1.75467,10.88583,3.90544,13.22436a88.77931,88.77931,0,0,1,5.8775,8.00423l-8.22757-3.54469a2.96025,2.96025,0,0,0-2.92131.33111l-4.3232,3.16884a1.189,1.189,0,0,1-1.8913-.85592c-.456-5.41832-1.34161-19.665,1.62561-22.74948C464.57027,394.27127,470.09351,393.95462,470.09351,393.95462Z"/>
          <path class="cls-69" d="M476.62552,421.74957l6.11409-5.15239a2.47043,2.47043,0,0,1,1.77144-.57479l3.53526.25753a.9015.9015,0,0,0,.937-1.15116,51.25009,51.25009,0,0,0-8.4661-16.28022l-3.42756,4.959A90.10869,90.10869,0,0,1,476.62552,421.74957Z"/>
          <g>
            <path class="cls-71" d="M503.83026,370.22859c6.16444,7.5467,6.25994,18.33649-5.20151,26.84776L497.26,387.6798Z"/>
            <path class="cls-65" d="M480.27544,417.01012a18.48029,18.48029,0,0,1-10.49215-20.27665l3.774-20.19087c1.29491-8.18762,10.36163-13.99914,19.71646-11.67122A15.99106,15.99106,0,0,1,505.169,384.16977s-2.13577,11.791-5.6233,20.31763S488.75443,421.07019,480.27544,417.01012Z"/>
            <path class="cls-72" d="M484.40646,412.95686c-.69617-1.47115,1.37406-3.81247,4.6871-5.79544,3.03618-1.81727,6.55816-3.025,8.27006-.9201a3.54293,3.54293,0,0,1,.34609,3.55535c-.495,1.1384-1.36537,2.17576-6.23958,3.09986C487.85854,413.58126,484.99966,414.21045,484.40646,412.95686Z"/>
            <path class="cls-73" d="M467.04,371.30527c4.46087-9.35692,16.91539-13.11231,28.41963-7.4152,9.76461,4.83462,12.51364,11.35577,10.33124,17.65353-5.87529,18.37286-21.75062-2.656-26.33485,2.73357a3.8615,3.8615,0,0,0-.75036,1.34863c-1.29369,4.25355-1.94312,10.116-2.611,11.13666-.68778,1.034-4.08229.96135-3.71621-.44648-1.78083.73048-4.231,7.42263-4.231,7.42263a96.06175,96.06175,0,0,1-4.28212-9.46024C460.99671,387.40642,459.34263,376.59219,467.04,371.30527Z"/>
            <path class="cls-74" d="M495.88383,399.60748a5.64816,5.64816,0,0,0-5.38972,1.08252"/>
            <line class="cls-74" x1="482.69711" y1="401.49385" x2="472.72165" y2="394.21143"/>
            <path class="cls-75" d="M496.34588,401.87514l6.21562-1.81776a2.417,2.417,0,0,0,1.64761-1.64623l.87559-3.09638a.92282.92282,0,0,0-1.17661-1.1295l-6.21562,1.81776a2.417,2.417,0,0,0-1.64761,1.64623l-.87559,3.09638A.92283.92283,0,0,0,496.34588,401.87514Z"/>
            <path class="cls-75" d="M482.42145,404.97958l7.67738-1.758a2.33736,2.33736,0,0,0,1.759-1.61824l.90273-3.17651a1.05135,1.05135,0,0,0-1.28944-1.248l-7.67738,1.758a2.33735,2.33735,0,0,0-1.759,1.61825l-.90273,3.1765A1.05135,1.05135,0,0,0,482.42145,404.97958Z"/>
            <path class="cls-76" d="M469.263,402.53274c-3.49055-.43747-5.81805-5.67952-5.32164-9.64042s4.34366-6.86455,7.11931-4.70328C474.545,390.90213,472.75356,402.9702,469.263,402.53274Z"/>
          </g>
        </g>
        <path class="cls-65" d="M403.95205,447.04652s-10.52667,16.3251-16.77793,30.70169-2.48,76.64-2.48,76.64l12.358-2.67964,9.27536-64.49454,17.24328-24.20618Z"/>
        <path class="cls-77" d="M417.94757,426.11285c-7.9079,7.701-14.17454,18.382-23.39457,32.4727-6.94062,10.80028,15.25466,26.25037,22.67887,18.30415,0,0,17.809-23.13462,17.82582-23.1643C446.194,434.12085,425.4681,419.1201,417.94757,426.11285Z"/>
      </g>
      <g>
        <g>
          <path class="cls-78" d="M892.69408,648.75013l57.44735.137L942.87,693.85433c-.61616,6.5271-9.993,11.71465-21.50366,11.71465-11.51124,0-20.8875-5.18755-21.50365-11.71465Z"/>
          <ellipse class="cls-44" cx="921.43269" cy="646.72906" rx="28.95033" ry="16.63812"/>
          <path class="cls-79" d="M896.31552,654.9953c4.9962,5.01961,14.38494,8.36607,25.12173,8.36607s20.125-3.34646,25.12174-8.36607c-3.184-6.22809-13.223-10.783-25.12174-10.783S899.49956,648.76721,896.31552,654.9953Z"/>
          <path class="cls-47" d="M921.43263,634.04615c14.72992,0,24.99523,6.6841,24.99523,12.6829,0,5.99886-10.26531,12.683-24.99523,12.683s-24.99523-6.6841-24.99523-12.683c0-5.9988,10.26532-12.6829,24.99523-12.6829m0-3.95519c-15.98881,0-28.95036,7.4491-28.95036,16.63809s12.96155,16.63815,28.95036,16.63815S950.383,655.918,950.383,646.72905,937.42145,630.091,921.43263,630.091Z"/>
        </g>
        <path class="cls-80" d="M930.75436,608.03051c13.57247-2.08926,40.28563-10.896,34.695-20.9709S933.85938,588.62237,930.75436,608.03051Z"/>
        <path class="cls-79" d="M924.79723,650.45137a1.06856,1.06856,0,0,0,1.069-1.06866c0-28.84822,5.24942-47.65551,17.55331-62.88757a1.06892,1.06892,0,0,0-1.66337-1.343c-12.63614,15.64389-18.02795,34.85254-18.02795,64.23055A1.06855,1.06855,0,0,0,924.79723,650.45137Z"/>
        <path class="cls-79" d="M920.00293,650.45137a1.06855,1.06855,0,0,0,1.069-1.06866c0-27.17089,0-64.38342-13.64827-81.28024a1.06892,1.06892,0,0,0-1.66336,1.343c13.17362,16.3098,13.17362,53.08467,13.17362,79.93727A1.06856,1.06856,0,0,0,920.00293,650.45137Z"/>
        <path class="cls-79" d="M919.50036,621.28416a1.069,1.069,0,0,0,1.06447-.98141c1.77295-21.72918,6.48245-36.49776,14.82128-46.47657a1.06889,1.06889,0,0,0-1.64034-1.3709c-8.63582,10.3341-13.501,25.4831-15.312,47.673a1.06894,1.06894,0,0,0,.97862,1.15243C919.44207,621.28346,919.47139,621.28416,919.50036,621.28416Z"/>
        <path class="cls-81" d="M924.17794,593.14783c12.86044-9.6231,33.73343-34.95853,22.42017-42.28251S916.70613,571.40619,924.17794,593.14783Z"/>
        <path class="cls-82" d="M919.49927,631.48065c-10.76033-1.42016-31.43676-9.45168-27.19036-17.50781S916.71576,616.19735,919.49927,631.48065Z"/>
        <path class="cls-79" d="M919.9593,638.27661c.02548,0,.0513-.0007.07713-.00279a1.06846,1.06846,0,0,0,.99013-1.14195c-1.33041-18.61534-9.62631-38.26653-22.90812-39.80774a1.0688,1.0688,0,1,0-.2464,2.12335c12.1266,1.4072,19.7545,20.09932,21.02209,37.83655A1.06859,1.06859,0,0,0,919.9593,638.27661Z"/>
        <path class="cls-79" d="M925.2478,636.56927a1.06974,1.06974,0,0,0,1.06064-.94791c1.38451-12.08471,12.506-20.66819,18.1522-22.57726a1.06912,1.06912,0,0,0-.68475-2.02564c-6.09436,2.06124-18.09776,11.32249-19.59151,24.36a1.06863,1.06863,0,0,0,.94022,1.18313A1.05105,1.05105,0,0,0,925.2478,636.56927Z"/>
        <path class="cls-83" d="M930.75436,621.82118c11.35611-.1213,34.63729-3.84015,31.23994-12.74286S935.56877,606.2957,930.75436,621.82118Z"/>
        <path class="cls-84" d="M934.84775,597.32086c9.56291-7.7487,25.34693-27.39454,16.46772-32.66816S928.48377,580.89391,934.84775,597.32086Z"/>
        <path class="cls-85" d="M913.29742,610.35631c-17.69964-4.74187-50.545-22.72966-41.66651-35.28165S911.99672,584.16187,913.29742,610.35631Z"/>
        <path class="cls-86" d="M915.74209,589.12171c-12.03753-9.00734-32.20268-30.18573-21.61334-37.04106S922.73578,568.77129,915.74209,589.12171Z"/>
      </g>
      <g>
        <ellipse class="cls-44" cx="923.72823" cy="387.6233" rx="10.27365" ry="5.92221"/>
        <path class="cls-87" d="M934.00181,387.62582c-.00266,3.26961-4.60114,5.91981-10.27381,5.91981-5.674,0-10.27336-2.65153-10.27336-5.92247v55.44962c0,3.27082,4.59936,5.92225,10.27336,5.92225s10.27381-2.65143,10.27381-5.92225v-55.447Z"/>
        <path class="cls-88" d="M934.00181,394.354c-.00266,3.2696-4.60114,5.91981-10.27381,5.91981-5.674,0-10.27336-2.65154-10.27336-5.92247v4.0609c0,3.27083,4.59936,5.92225,10.27336,5.92225s10.27381-2.65142,10.27381-5.92225Z"/>
        <path class="cls-89" d="M934.00181,430.779c-.00266,3.2696-4.60114,5.91981-10.27381,5.91981-5.674,0-10.27336-2.65154-10.27336-5.92247v4.0609c0,3.27083,4.59936,5.92225,10.27336,5.92225s10.27381-2.65142,10.27381-5.92225Z"/>
        <path class="cls-47" d="M923.7283,383.06413c5.25122,0,8.91064,2.40258,8.91064,4.55908s-3.65942,4.55932-8.91064,4.55932-8.91065-2.40283-8.91065-4.55932,3.65943-4.55908,8.91065-4.55908m0-1.363c-5.67407,0-10.27368,2.65137-10.27368,5.92212s4.59961,5.92236,10.27368,5.92236c5.67383,0,10.27368-2.65161,10.27368-5.92236s-4.59985-5.92212-10.27368-5.92212Z"/>
      </g>
      <g>
        <ellipse class="cls-44" cx="606.85278" cy="182.04265" rx="10.27365" ry="5.92221"/>
        <path class="cls-90" d="M617.12637,182.04517c-.00266,3.2696-4.60114,5.9198-10.27381,5.9198-5.674,0-10.27337-2.65153-10.27337-5.92247v55.44962c0,3.27083,4.59937,5.92225,10.27337,5.92225s10.27381-2.65142,10.27381-5.92225V182.04517Z"/>
        <path class="cls-91" d="M617.12637,188.77335c-.00266,3.26961-4.60114,5.91981-10.27381,5.91981-5.674,0-10.27337-2.65153-10.27337-5.92247v4.06091c0,3.27082,4.59937,5.92225,10.27337,5.92225s10.27381-2.65143,10.27381-5.92225Z"/>
        <path class="cls-92" d="M617.12637,225.19836c-.00266,3.26961-4.60114,5.91981-10.27381,5.91981-5.674,0-10.27337-2.65153-10.27337-5.92247v4.06091c0,3.27082,4.59937,5.92225,10.27337,5.92225s10.27381-2.65143,10.27381-5.92225Z"/>
        <path class="cls-47" d="M606.85281,177.48356c5.25122,0,8.91064,2.40259,8.91064,4.55908s-3.65942,4.55908-8.91064,4.55908-8.91065-2.40258-8.91065-4.55908,3.65943-4.55908,8.91065-4.55908m0-1.363c-5.67407,0-10.27368,2.65137-10.27368,5.92212s4.59961,5.92212,10.27368,5.92212,10.27368-2.65137,10.27368-5.92212-4.59961-5.92212-10.27368-5.92212Z"/>
      </g>
      <g>
        <g>
          <circle class="cls-93" cx="234.06471" cy="263.22484" r="217.50613"/>
          <polygon class="cls-94" points="240.502 395.458 186.752 468.821 80.997 417.749 29.452 304.367 34.556 187.629 101.663 96.683 132.462 81.834 240.502 395.458"/>
          <path class="cls-63" d="M201.81253,265.08652V52.75608L128.96909,86.78369V265.08652a89.4899,89.4899,0,1,0,72.84344,0Z"/>
          <path class="cls-95" d="M234.06472,63.8925a198.65131,198.65131,0,1,1-77.58349,15.657,198.06882,198.06882,0,0,1,77.58349-15.657m0-18.17383c-120.12524,0-217.5061,97.38086-217.5061,217.5061,0,120.12549,97.38086,217.5061,217.5061,217.5061s217.50611-97.38061,217.50611-217.5061c0-120.12524-97.38086-217.5061-217.50611-217.5061Z"/>
        </g>
        <g>
          <text class="cls-96" transform="translate(252.71579 309.88126)">16</text>
          <text class="cls-96" transform="translate(360.56638 309.88126)">C</text>
          <circle cx="353.10038" cy="263.9988" r="7.94994"/>
        </g>
        <g>
          <text class="cls-96" transform="translate(252.71579 204.18009)">19</text>
          <text class="cls-96" transform="translate(360.56638 204.18009)">C</text>
          <circle cx="353.10038" cy="158.30022" r="7.94994"/>
        </g>
        <g>
          <path class="cls-97" d="M191.32768,302.29553V185.46307a2.6294,2.6294,0,0,0-2.6294-2.6294h-46.615a2.6294,2.6294,0,0,0-2.6294,2.6294V302.29939a2.62292,2.62292,0,0,1-1.51158,2.36245c-33.976,16.24454-51.33272,61.66446-19.48992,103.86339a2.91486,2.91486,0,0,0,.56371.56416c52.4821,39.65849,110.10281,3.09961,110.10281-46.9173a63.71687,63.71687,0,0,0-36.27645-57.50871A2.62952,2.62952,0,0,1,191.32768,302.29553Z"/>
          <g>
            <rect x="176.07965" y="256.43803" width="71.45798" height="5.25881" rx="2.6294"/>
            <rect x="176.07965" y="237.26596" width="53.58308" height="5.25881" rx="2.6294"/>
            <rect x="176.07965" y="218.09389" width="71.11639" height="5.25881" rx="2.6294"/>
          </g>
          <g>
            <rect x="176.07965" y="294.78218" width="71.45798" height="5.25881" rx="2.6294"/>
            <rect x="176.07965" y="275.61011" width="53.58308" height="5.25881" rx="2.6294"/>
          </g>
          <g>
            <rect x="176.07965" y="198.92182" width="53.58308" height="5.25881" rx="2.6294"/>
            <rect x="176.07965" y="179.74975" width="71.11639" height="5.25881" rx="2.6294"/>
          </g>
          <g>
            <rect x="176.07965" y="160.57768" width="53.58308" height="5.25881" rx="2.6294"/>
            <rect x="176.07965" y="141.4056" width="71.11639" height="5.25881" rx="2.6294"/>
          </g>
          <g>
            <rect x="176.07965" y="122.23353" width="53.58308" height="5.25881" rx="2.6294"/>
            <rect x="176.07965" y="103.06146" width="71.11639" height="5.25881" rx="2.6294"/>
          </g>
        </g>
      </g>
      <path class="cls-65" d="M384.40718,550.66872c-6.62706,9.45-9.54367,22.99022-9.23064,26.23s9.32542,6.423,13.55623,3.23976,8.95767-14.4718,8.95767-14.4718a52.48014,52.48014,0,0,1,5.42093,3.41525c1.7326,1.37955,4.23819-.26552,3.31407-3.01975s-9.37324-14.35363-9.37324-14.35363Z"/>
      <path class="cls-65" d="M536.71518,478.39254s8.69835-1.26666,12.5783-.92282,11.31031,3.0022,13.45021,5.78841,1.508,7.49813-1.392,7.9-17.90828,0-17.90828,0,2.21884,4.17194,2.94386,5.767-1.46712,2.64742-3.66264,1.42521S531.611,487.68014,531.611,487.68014Z"/>
    </g>
    <g>
      <circle class="cls-95" cx="51.44097" cy="157.04608" r="51.44097"/>
      <g>
        <rect class="cls-98" x="33.97685" y="149.87836" width="11.16548" height="33.5616" transform="translate(-106.25909 76.78619) rotate(-45)"/>
        <rect class="cls-98" x="55.71563" y="135.62886" width="11.16548" height="50.25593" transform="translate(-9.02938 317.77357) rotate(-135)"/>
      </g>
    </g>
  </g>
</svg>
