<svg id="Layer_1" data-name="Layer 1" xmlns="http://www.w3.org/2000/svg" xmlns:xlink="http://www.w3.org/1999/xlink" viewBox="0 0 1000 1000">
  <defs>
    <style>
      .cls-1 {
        fill: url(#linear-gradient);
      }

      .cls-2 {
        fill: url(#linear-gradient-2);
      }

      .cls-3 {
        fill: #6b483c;
      }

      .cls-4 {
        fill: url(#linear-gradient-3);
      }

      .cls-5 {
        fill: #366d26;
      }

      .cls-6 {
        fill: url(#linear-gradient-4);
      }

      .cls-7 {
        fill: url(#linear-gradient-5);
      }

      .cls-8 {
        fill: #87a1af;
      }

      .cls-9 {
        fill: #b8cbd8;
      }

      .cls-10 {
        fill: #9bb0c4;
      }

      .cls-11 {
        fill: #394651;
      }

      .cls-12 {
        fill: #f2f2f2;
      }

      .cls-13 {
        fill: #49555e;
      }

      .cls-14 {
        fill: #444;
      }

      .cls-15 {
        fill: #a0674a;
      }

      .cls-16 {
        fill: url(#linear-gradient-6);
      }

      .cls-17 {
        fill: #d8d8d8;
      }

      .cls-18 {
        fill: #cecece;
      }

      .cls-19 {
        fill: #fff;
      }

      .cls-20 {
        fill: url(#linear-gradient-7);
      }

      .cls-21 {
        fill: #bf7d51;
      }

      .cls-22 {
        fill: #323f4c;
      }

      .cls-23 {
        fill: #b7b7b7;
      }

      .cls-24 {
        fill: #6e8496;
      }

      .cls-25 {
        fill: #455260;
      }

      .cls-26 {
        fill: #e5907c;
      }

      .cls-27 {
        fill: url(#linear-gradient-8);
      }

      .cls-28 {
        fill: #dd7b19;
        opacity: 0.6;
      }

      .cls-29 {
        fill: #727272;
      }

      .cls-30 {
        fill: url(#linear-gradient-9);
      }

      .cls-31 {
        fill: #ffbea4;
      }

      .cls-32 {
        fill: #ffbda3;
      }

      .cls-33 {
        fill: url(#linear-gradient-10);
      }

      .cls-34 {
        fill: #e9e9e9;
      }

      .cls-35 {
        fill: #fbfbfb;
      }

      .cls-36 {
        fill: #5b3c39;
      }

      .cls-37 {
        fill: #ed8324;
      }

      .cls-38 {
        fill: url(#linear-gradient-11);
      }

      .cls-39 {
        fill: url(#linear-gradient-12);
      }

      .cls-40 {
        fill: url(#linear-gradient-13);
      }

      .cls-41 {
        fill: url(#linear-gradient-14);
      }

      .cls-42 {
        fill: url(#linear-gradient-15);
      }

      .cls-43 {
        fill: #bcd0e2;
      }

      .cls-44 {
        fill: #516272;
      }
    </style>
    <linearGradient id="linear-gradient" x1="85.34704" y1="420.95711" x2="926.7192" y2="420.95711" gradientUnits="userSpaceOnUse">
      <stop offset="0" stop-color="#e6f4ff"/>
      <stop offset="1" stop-color="#c0e3ff"/>
    </linearGradient>
    <linearGradient id="linear-gradient-2" x1="85.37673" y1="514.30577" x2="602.56109" y2="514.30577" gradientUnits="userSpaceOnUse">
      <stop offset="0.00005" stop-color="#9dcc52"/>
      <stop offset="1" stop-color="#649e3f"/>
    </linearGradient>
    <linearGradient id="linear-gradient-3" x1="314.5191" y1="219.11852" x2="314.5191" y2="426.34894" gradientUnits="userSpaceOnUse">
      <stop offset="0" stop-color="#77bf49"/>
      <stop offset="0.99995" stop-color="#366d26"/>
    </linearGradient>
    <linearGradient id="linear-gradient-4" x1="73.34543" y1="153.62865" x2="221.66003" y2="493.38481" xlink:href="#linear-gradient-3"/>
    <linearGradient id="linear-gradient-5" x1="85.37673" y1="665.91293" x2="926.7192" y2="665.91293" xlink:href="#linear-gradient-2"/>
    <linearGradient id="linear-gradient-6" x1="199.12766" y1="401.23885" x2="1250.9077" y2="401.23885" gradientUnits="userSpaceOnUse">
      <stop offset="0.00005" stop-color="#e6ac72"/>
      <stop offset="1" stop-color="#b3703f"/>
    </linearGradient>
    <linearGradient id="linear-gradient-7" x1="170.53191" y1="544.23063" x2="841.15924" y2="544.23063" xlink:href="#linear-gradient-6"/>
    <linearGradient id="linear-gradient-8" x1="601.31862" y1="331.15743" x2="690.89615" y2="498.6674" gradientUnits="userSpaceOnUse">
      <stop offset="0.00005" stop-color="#ffcb48"/>
      <stop offset="1" stop-color="#e68e2b"/>
    </linearGradient>
    <linearGradient id="linear-gradient-9" x1="619.04742" y1="321.67679" x2="708.62494" y2="489.18676" xlink:href="#linear-gradient-8"/>
    <linearGradient id="linear-gradient-10" x1="656.34412" y1="301.73203" x2="745.92164" y2="469.242" xlink:href="#linear-gradient-8"/>
    <linearGradient id="linear-gradient-11" x1="621.5723" y1="270.29296" x2="678.23009" y2="328.7423" gradientUnits="userSpaceOnUse">
      <stop offset="0.00634" stop-color="#adc0cc"/>
      <stop offset="1" stop-color="#7b90a6"/>
    </linearGradient>
    <linearGradient id="linear-gradient-12" x1="634.12291" y1="258.12705" x2="690.7807" y2="316.57638" xlink:href="#linear-gradient-11"/>
    <linearGradient id="linear-gradient-13" x1="607.74845" y1="283.6931" x2="664.40623" y2="342.14244" xlink:href="#linear-gradient-11"/>
    <linearGradient id="linear-gradient-14" x1="673.81099" y1="398.3706" x2="678.91563" y2="398.3706" gradientUnits="userSpaceOnUse">
      <stop offset="0" stop-color="#62778c"/>
      <stop offset="1" stop-color="#435466"/>
    </linearGradient>
    <linearGradient id="linear-gradient-15" x1="280.82979" y1="544.51315" x2="946.24851" y2="544.51315" xlink:href="#linear-gradient-6"/>
  </defs>
  <g>
    <path class="cls-1" d="M85.3763,512.7967s-2.42713-89.31382,36.92931-127.58839,101.191-29.83446,150.323-53.496,68.673-70.454,112.94077-112.54122,137.159-27.051,188.88841,3.59733S659.04237,296.631,709.319,324.07086,833.84975,358.2208,862.216,367.47715,926.7192,396.71887,926.7192,436.591V648.65747l-841.3429-3.677Z"/>
    <path class="cls-2" d="M85.37673,631.38824c0-58.422,53.3732-112.67951,106.51646-141.91955s101.21157-50.56714,135.85069-76.63038,69.5608-68.2392,117.15563-93.95547,111.54713-17.99148,111.54713-17.99148l46.11445,25.98769v91.81644L175.99123,728.80822l-90.6145-62.13307Z"/>
    <g>
      <path class="cls-3" d="M320.68737,456.13045V381.014h-12.3367v75.14035h.00563a3.10681,3.10681,0,0,0,1.8153,2.4911,9.6434,9.6434,0,0,0,8.725.01569A3.02659,3.02659,0,0,0,320.68737,456.13045Z"/>
      <path class="cls-4" d="M261.54275,355.88328c0-7.63483,2.4907-14.4736,6.43072-19.14837a37.15756,37.15756,0,0,1-2.77653-10.67662c-1.16349-10.43154,1.9801-20.00572,7.594-25.70119-.59184-6.63456,1.531-12.63629,5.61385-15.8413a33.70036,33.70036,0,0,1-.34688-4.81768c0-13.065,7.30838-23.84357,16.719-25.31344-.02043-.42862-.04087-.83692-.04087-1.26566,0-17.94389,8.47212-32.47866,18.90341-32.47866,9.16588,0,16.8007,11.20728,18.5361,26.04831,3.77654,1.87806,6.71629,6.757,7.71656,12.88125,5.30759,3.59276,10.064,10.207,12.65659,18.4951,2.24574,7.22652,2.42915,14.351.91853,20.02615,3.61333,2.61293,6.08334,7.77774,6.08334,13.69774a19.33447,19.33447,0,0,1-2.30654,9.30879v.02043c8.3084,4.59316,12.37077,17.49483,9.14544,31.09052a38.54978,38.54978,0,0,1-6.20594,13.73872c5.16481,6.83865,6.10377,18.02562,1.65365,28.70212a33.61871,33.61871,0,0,1-13.12632,15.882c-4.69508,8.186-10.69693,13.39159-17.49471,16.33122-4.75663,7.839-12.43233,12.28928-19.72,10.55414-4.75638-1.12287-8.431-4.69533-10.65631-9.53344a34.05523,34.05523,0,0,1-13.63643-8.65553c-8.18605-3.6745-15.47374-12.1055-18.94428-23.23117a40.67269,40.67269,0,0,1-.9594-21.80216A30.31017,30.31017,0,0,1,261.54275,355.88328Z"/>
      <path class="cls-5" d="M366.38894,352.21128a38.43549,38.43549,0,0,1-6.202,13.73638c5.16838,6.84533,6.11026,18.032,1.65381,28.6904a33.55707,33.55707,0,0,1-13.13912,15.89562c-4.68609,8.17753-10.6811,13.3919-17.48059,16.33207-4.75479,7.83305-12.42718,12.28935-19.73167,10.54357-4.75508-1.12554-8.43032-4.6861-10.6584-9.53286a33.79275,33.79275,0,0,1-13.62169-8.66c17.36423,2.78811,27.64156-3.35657,28.162-21.79909,6.68992,3.85669,14.021-2.20364,9.81783-10.51216,14.36885.782,19.74494-17.98549,10.41941-27.45817,15.77685-3.62545,18.70927-24.15238,5.03028-30.23187,9.889-4.94862,14.60759-15.52265,12.81793-31.12267,3.62925,2.61868,6.087,7.78707,6.087,13.69053a19.45118,19.45118,0,0,1-2.29706,9.32606c6.3859,3.51443,10.24508,11.94474,10.24508,21.82208A39.931,39.931,0,0,1,366.38894,352.21128Z"/>
    </g>
    <g>
      <path class="cls-3" d="M183.04451,543.83888V378.23133H155.84607v165.6603h.01241c.04079,1.98689,1.36892,3.97112,4.00215,5.49209,5.3285,3.07608,13.941,3.0916,19.23582.03458C181.75805,547.88136,183.07022,545.8599,183.04451,543.83888Z"/>
      <path class="cls-6" d="M256.61257,315.83139a135.09388,135.09388,0,0,0,.29468-18.03176c-1.695-32.88574-14.58838-59.79625-30.40339-66.415.143-.55281.35989-1.07026.46833-1.63761,2.46427-12.836-4.927-24.43092-16.50887-25.89762-.09823-.01218-.1941.00668-.29153-.00432-4.37848-32.84841-20.92743-50.55052-40.72646-50.55052-19.38726,0-35.65175,16.9831-40.43256,48.529-17.25695,9.1974-32.36082,36.6953-36.91689,70.79117-.61135,4.57257-.96025,9.05949-1.15591,13.47254a25.90482,25.90482,0,0,0-14.97735,18.96607,23.85645,23.85645,0,0,0,2.036,15.327c-7.41324,8.84026-12.06046,21.3058-12.06046,35.16024A59.46128,59.46128,0,0,0,68.338,372.24594c-7.71027,11.33242-10.9737,27.29163-7.77078,44.29792,3.7907,20.12788,15.69322,36.62182,30.31617,44.69317,9.21194,16.44915,22.06448,25.84182,37.22728,30.95109,9.63234,15.38008,24.54762,25.29216,41.33466,25.29216s31.70311-9.91208,41.33624-25.29216c15.11879-5.09512,27.94462-14.44811,37.15106-30.812,12.36456-4.77413,22.50846-16.56663,25.34834-31.35617a38.66712,38.66712,0,0,0-3.93686-26.34317,70.55449,70.55449,0,0,0,11.24951-26.7561C285.54181,351.14564,275.30362,327.32607,256.61257,315.83139Z"/>
      <path class="cls-5" d="M280.58105,376.94189a69.31381,69.31381,0,0,1-11.26523,26.71445,38.65926,38.65926,0,0,1,3.99029,26.39306c-2.89646,14.74122-13.00342,26.52155-25.36248,31.3495-9.20487,16.35054-22.015,25.68467-37.1432,30.77-9.65592,15.38518-24.59083,25.29845-41.32681,25.29845-16.802,0-31.73611-9.91327-41.392-25.29845-15.12744-5.0853-28.002-14.48387-37.20764-30.96327,38.21977,10.25458,63.52409-6.35222,64.95189-46.60581,30.52366,16.31925,65.30721-8.33414,57.09938-44.35292,27.65662-8.35733,33.95693-49.72024,9.84922-68.87892,20.81113-16.02482,26.98448-46.72121,3.73255-69.97315,15.83623,6.63058,28.71078,33.53835,30.38453,66.43273a139.49224,139.49224,0,0,1-.25774,18.02429C275.30205,327.31036,285.53788,351.12835,280.58105,376.94189Z"/>
    </g>
    <path class="cls-7" d="M94.52982,681.77854,478.60008,903.51183a54.91669,54.91669,0,0,0,54.91627-.0008l384.05023-221.7366a18.30558,18.30558,0,0,0,.00022-31.70587L533.49971,428.31521a54.91669,54.91669,0,0,0-54.92014.00068L94.52874,650.07264A18.30556,18.30556,0,0,0,94.52982,681.77854Z"/>
    <path class="cls-8" d="M917.5673,681.7739a18.30564,18.30564,0,0,0-.00022-31.70537L797.19355,580.567,614.95326,475.34477,175.99134,728.80806,478.60113,903.51217a54.91583,54.91583,0,0,0,54.914-.00045Z"/>
    <polygon class="cls-8" points="926.718 665.913 926.718 644.776 900.645 663.997 926.718 665.913"/>
    <polygon class="cls-8" points="175.991 728.808 147.267 712.225 147.267 688.022 201.47 707.93 201.47 722.185 175.991 728.808"/>
    <path class="cls-9" d="M917.5673,659.80722a18.30564,18.30564,0,0,0-.00022-31.70537l-120.37353-69.5015L614.95326,453.37808,175.99134,706.84138l302.60979,174.7041a54.91583,54.91583,0,0,0,54.914-.00044Z"/>
    <path class="cls-10" d="M748.25258,757.56347,425.10487,571.15891a9.05988,9.05988,0,0,0-9.05894,0L282.52856,648.25879a3.019,3.019,0,0,0,0,5.22928l323.13829,186.399Z"/>
    <path class="cls-10" d="M817.73812,685.26053a9.71092,9.71092,0,0,0-.00329-16.82162l-257.335-148.44112a7.62339,7.62339,0,0,0-7.62259,0L440.42984,584.87306a2.54032,2.54032,0,0,0,0,4.40014L712.33275,746.11759Z"/>
    <g>
      <path class="cls-11" d="M741.79908,719.49846v-72.635h-9.58446v72.65355h.00438a2.4137,2.4137,0,0,0,1.41031,1.93536,7.492,7.492,0,0,0,6.77851.01218A2.35136,2.35136,0,0,0,741.79908,719.49846Z"/>
      <path class="cls-11" d="M815.88772,676.43952V603.80457h-9.58445v72.65354h.00437a2.4137,2.4137,0,0,0,1.41031,1.93536,7.492,7.492,0,0,0,6.77852.01219A2.35136,2.35136,0,0,0,815.88772,676.43952Z"/>
    </g>
    <polygon class="cls-12" points="202.495 549.781 191.512 530.757 586.291 302.874 921.849 496.6 910.866 515.624 586.291 328.239 202.495 549.781"/>
    <path class="cls-13" d="M821.6451,456.24316v-21.501h9.58446v21.5196h-.00438a2.41367,2.41367,0,0,1-1.41031,1.93535,7.492,7.492,0,0,1-6.77851.01219A2.35136,2.35136,0,0,1,821.6451,456.24316Z"/>
    <path class="cls-14" d="M701.6917,386.97249v-21.501h9.58445v21.5196h-.00437a2.41368,2.41368,0,0,1-1.41032,1.93535,7.492,7.492,0,0,1-6.77851.01219A2.35136,2.35136,0,0,1,701.6917,386.97249Z"/>
    <path class="cls-13" d="M591.08244,317.70181v-21.501H581.498V317.7204h.00438a2.4137,2.4137,0,0,0,1.41031,1.93536,7.492,7.492,0,0,0,6.77851.01218A2.35135,2.35135,0,0,0,591.08244,317.70181Z"/>
    <path class="cls-13" d="M231.22223,525.51383v-21.501h-9.58446v21.51959h.00438a2.4137,2.4137,0,0,0,1.41031,1.93536,7.492,7.492,0,0,0,6.77851.01218A2.35136,2.35136,0,0,0,231.22223,525.51383Z"/>
    <path class="cls-13" d="M351.17563,456.24316v-21.501h-9.58445v21.5196h.00437a2.41369,2.41369,0,0,0,1.41032,1.93535,7.492,7.492,0,0,0,6.77851.01219A2.35133,2.35133,0,0,0,351.17563,456.24316Z"/>
    <path class="cls-13" d="M471.129,386.97249v-21.501h-9.58446v21.5196h.00437a2.41372,2.41372,0,0,0,1.41032,1.93535,7.492,7.492,0,0,0,6.77851.01219A2.35137,2.35137,0,0,0,471.129,386.97249Z"/>
    <path class="cls-15" d="M191.37952,536.42315l-8.23572-14.269L581.03935,292.46923a10.50194,10.50194,0,0,1,10.50108.00029L882.90186,460.67939l-8.23751,14.26726L586.29,308.46072Z"/>
    <path class="cls-16" d="M191.37952,523.88189l-8.23572-14.269L580.79867,280.0669a10.98334,10.98334,0,0,1,10.98243.0003L882.90186,448.13813l-8.23751,14.26726L586.29,295.91946Z"/>
    <polygon class="cls-17" points="175.991 706.841 175.991 565.083 586.29 328.239 586.287 469.976 175.991 706.841"/>
    <polygon class="cls-17" points="878.139 496.73 586.29 328.239 586.294 469.976 877.606 638.178 878.139 496.73"/>
    <g>
      <polygon class="cls-18" points="204.715 487.835 204.709 690.226 175.988 706.841 175.988 487.835 204.715 487.835"/>
      <polygon class="cls-12" points="175.988 487.835 175.988 706.841 170.186 703.511 149.168 691.373 147.274 688.022 147.267 688.022 147.267 487.835 175.988 487.835"/>
      <path class="cls-19" d="M202.81345,491.06646,181.58972,503.32a11.4022,11.4022,0,0,1-11.40218,0l-21.02009-12.136a3.80072,3.80072,0,0,1,0-6.58305l21.22373-12.25353a11.4022,11.4022,0,0,1,11.40218,0l21.02009,12.136A3.80072,3.80072,0,0,1,202.81345,491.06646Z"/>
    </g>
    <g>
      <g>
        <path class="cls-20" d="M832.31072,598.05477,742.181,659.44858,439.15952,484.62487c.21879-.15622.43757-.2969.6719-.43748l93.86431-54.19033a7.37026,7.37026,0,0,1,7.3597,0Z"/>
        <path class="cls-21" d="M742.181,659.44858l-11.68808,7.64095L436.87812,497.68812a3.06947,3.06947,0,0,1-1.57813-2.672v-2.95331a9.07591,9.07591,0,0,1,3.85953-7.4379Z"/>
        <path class="cls-15" d="M833.56346,605.52566a6.3874,6.3874,0,0,1-3.1942,5.53194L733.3851,667.0245a3.03251,3.03251,0,0,1-4.54793-2.62671v-2.96363a9.08407,9.08407,0,0,1,4.54451-7.86847l96.23-55.54934a2.63449,2.63449,0,0,1,3.95176,2.28152Z"/>
      </g>
      <polygon class="cls-15" points="800.215 614.977 795.637 617.634 502.147 448.201 506.741 445.56 800.215 614.977"/>
      <polygon class="cls-15" points="768.667 633.197 764.073 635.854 470.599 466.421 475.177 463.78 768.667 633.197"/>
    </g>
    <g>
      <g>
        <path class="cls-22" d="M597.63884,651.77512s3.09023,13.75195.01879,19.57025-9.13884,5.445-18.01243,9.26753-17.17105,11.12447-32.56055,9.9344-18.60639-12.72246-8.02123-18.752l13.77709-9.01207,18.67488-15.2019C585.15245,647.7988,596.584,645.39,597.63884,651.77512Z"/>
        <path class="cls-23" d="M569.55021,640.97121v9.37926l-5.0569,4.49977c3.11405-1.016,8.74161,1.46276,11.15343,5.54941,8.34567-1.31544,20.21008-4.1983,19.58478-8.66462l-1.34128-10.76382Z"/>
        <path class="cls-22" d="M608.44318,478.64859,549.7027,521.46253c-14.52074,10.61872-16.97446,30.7159-11.94326,45.15378l27.0935,78.98876c2.71269,9.18859,32.78217,4.5471,32.15813-4.90717l-5.988-76.21943,65.86853-31.45511Z"/>
        <g>
          <path class="cls-22" d="M645.77984,689.63294s1.31577,14.12025.07017,18.666c-1.55388,5.67078-4.09916,8.76235-6.7329,12.18062S636.85942,734.304,625.52269,739.887c-15.495,7.63071-30.10691-2.59383-23.2518-14.63659l7.9436-14.21972,11.74484-22.17433C624.96531,683.376,645.46121,678.87037,645.77984,689.63294Z"/>
          <path class="cls-24" d="M623.00908,679.00593l.06309,11.3368-3.68528,7.83222c3.35171-3.69683,14.41058-.80618,17.0206,3.68467,0,0,4.20774-6.81558,6.25732-10.93333,1.59284-3.20012,1.32647-9.70475,1.32647-9.70475Z"/>
        </g>
        <path class="cls-25" d="M634.61625,532.50968l-27.58462-53.24194,9.70756-37.44853L712.06493,464.242l-1.63347,43.5398c-.86633,16.88638-1.67664,35.58128-11.78751,49.0676l-30.6103,39.37921L649.36434,680.712c-2.26261,10.28228-30.522,9.6345-30.66244-2.28477l-2.71738-80.274a76.56858,76.56858,0,0,1,4.99589-29.94644Z"/>
        <path class="cls-22" d="M711.57208,491.47319l.93673-25.39272-55.07536-15.02109-40.69434-9.24016-4.92035,20.40545s-.44745,15.25971,23.73225,29.25c34.93637,20.214,76.02107,0,76.02107,0Z"/>
      </g>
      <g>
        <path class="cls-26" d="M591.90975,369.49275c-6.56985,6.77-15.36135,18.55-19.132,26.9627l21.064,14.75776,17.52252-15.489C616.60678,383.36494,598.43267,364.80737,591.90975,369.49275Z"/>
        <path class="cls-27" d="M610.31269,344.1316l-24.9268,30.85167c-4.88134,6.01862,15.52742,33.59382,23.75836,26.81686l19.24466-16.53055,12.568-60.70785S625.38557,325.15044,610.31269,344.1316Z"/>
        <path class="cls-28" d="M617.52593,394.60064l-8.38163,7.19944a4.53614,4.53614,0,0,1-1.89469.92042l9.75924-35.94021Z"/>
        <line class="cls-29" x1="712.50895" y1="471.95744" x2="616.69374" y2="444.35741"/>
        <path class="cls-30" d="M663.59584,324.64818c-26.86672-5.30549-50.67618,4.59428-48.48508,34.77382l1.583,54.52992-1.982,37.49691c1.09259,11.34058,7.88911,21.55079,18.668,27.85528,22.606,13.22211,57.64154,15.49767,74.74128-4.64167l1.27541-35.47221,13.40775-66.40637C711.22312,345.7879,680.33576,327.95389,663.59584,324.64818Z"/>
        <path class="cls-28" d="M710.53931,433.53036l-1.14275,5.65983-1.13918,31.68134-8.47169,11.06a41.44461,41.44461,0,0,1-4.096,2.32864l-4.20635-85.2143L709.033,417.2235Z"/>
        <path class="cls-31" d="M723.10615,376.48392s18.00336,71.33139,12.06992,88.75493c-11.34282,33.30816-48.07964,61.90206-48.07964,61.90206-8.18215,5.18622-13.46717-4.87456-9.22184-11.92415l31.62579-56.24094-14.4368-55.15039Z"/>
        <g>
          <path class="cls-32" d="M688.72739,525.60372l-7.12238-11.53-8.96772-.40972a13.907,13.907,0,0,0-9.793,3.63658l-10.49323,9.59255a3.10415,3.10415,0,0,0-.51059,3.97918l4.57443,7.05923a5.32551,5.32551,0,0,0,5.4308,2.3419l9.56907-1.7567a17.65911,17.65911,0,0,0,8.14572-3.82716Z"/>
          <path class="cls-32" d="M670.58873,513.755l-12.7805,1.34366c-3.38082.39476-2.15623,4.33781.25565,4.44829l4.55054.66468Z"/>
        </g>
        <path class="cls-33" d="M722.8042,372.78386c5.24117,15.4341,11.27544,37.55249,13.064,52.49241,2.063,17.56987-32.67739,24.54677-35.71533,11.46024l-8.6695-37.6906C685.89789,370.83646,715.50141,352.78855,722.8042,372.78386Z"/>
        <path class="cls-31" d="M605.40524,379.36608s-5.725,22.349-9.69806,29.4447c-6.38982,11.41177-30.80147,4.72148-22.92943-12.35531l22.76412-31.02685Z"/>
        <path class="cls-31" d="M607.7343,346.07668c-8.12848.73455-14.63,22.67424-14.63,22.67424l11.93747,10.693,5.31044-7.26473s13.88907-7.63436,13.43-12.71466A14.77788,14.77788,0,0,0,607.7343,346.07668Z"/>
      </g>
      <g>
        <path class="cls-34" d="M607.77675,346.01577l-.508,21.38c-.09147,3.85035,5.26547,7.10069,11.96514,7.25987s12.20493-2.8331,12.29641-6.68346l.50795-21.38Z"/>
        <ellipse class="cls-35" cx="619.90751" cy="346.30402" rx="6.97368" ry="12.1342" transform="translate(258.97738 957.81138) rotate(-88.639)"/>
        <ellipse class="cls-35" cx="619.90751" cy="346.30402" rx="5.34547" ry="9.30112" transform="translate(258.97738 957.81138) rotate(-88.639)"/>
        <path class="cls-36" d="M619.94229,344.84491c3.93988.0936,7.25369,1.58643,8.56126,3.60672-1.402,1.95591-4.783,3.28992-8.72289,3.19632s-7.25369-1.58667-8.56126-3.607C612.62144,346.08507,616.00241,344.7513,619.94229,344.84491Z"/>
      </g>
      <g>
        <path class="cls-37" d="M649.118,353.557l-2.17676,10.12255a2.54962,2.54962,0,0,0,1.56435,2.9264h0a2.54961,2.54961,0,0,0,3.28043-1.39969l3.84634-8.39208Z"/>
        <g>
          <path class="cls-37" d="M650.76508,358.48743l-5.50772-11.025a2.64266,2.64266,0,0,0-2.94894-1.39612l-4.41689,1.00237a1.369,1.369,0,0,1-1.46317-2.06109c4.55373-7.26031,10.66227-14.3846,17.79557-15.16151l9.10854-1.54848-11.19238,13.15784Z"/>
          <path class="cls-31" d="M650.76508,358.48743l10.52738-7.82774s23.064-5.88291,21.74192-11.79874c-1.3033-5.8318-9.20945-10.21809-19.0455-8.82528C644.8789,332.7417,650.76508,358.48743,650.76508,358.48743Z"/>
          <path class="cls-26" d="M650.58308,343.99063c1.81154,11.32937,27.67853,2.05018,26.79243-4.28406l-1.81992-25.29143-29.01175,4.31405Z"/>
          <path class="cls-37" d="M650.76508,358.48743l12.442-2.68449a3.81052,3.81052,0,0,1,3.74289,1.29974l4.14541,5.0243a2.79244,2.79244,0,0,0,4.60047-.41733c3.43308-6.18337,9.92458-18.83743,8.91717-24.44645-1.35993-7.57172-8.34347-12.7258-8.34347-12.7258.1709,10.33164-9.99835,20.7339-13.68737,23.18617S650.76508,358.48743,650.76508,358.48743Z"/>
        </g>
        <path class="cls-38" d="M640.29375,272.399c-9.41315,7.76167-12.16579,20.98817-.17,34.23938l3.97587-11.20462Z"/>
        <path class="cls-31" d="M653.49444,336.10209c12.45058-1.45512,19.61632-7.27736,21.56526-18.62416l4.1735-24.53832c1.96015-9.85184-5.912-20.26025-17.524-21.53523-10.1487-1.11433-21.54442,6.1219-22.78429,17.36386a228.6148,228.6148,0,0,0-.95448,25.04855C638.3611,324.97321,642.17957,337.42447,653.49444,336.10209Z"/>
        <g>
          <path class="cls-39" d="M685.20912,282.70705c-3.19253-12.57981-17.5694-20.23338-33.088-16.04721-13.17173,3.55192-18.14029,10.88843-16.99851,19.15509,2.72733,23.99681,27.35839,2.05089,31.67141,9.789a4.83491,4.83491,0,0,1,.59205,1.83938c.54972,5.53932-.08465,12.897.48624,14.31351.592,1.43767,4.77822,2.17761,4.67253.35939,2.00844,1.332,3.38275,10.14837,3.38275,10.14837s1.92391-2.15645,7.569-10.57125C688.69756,303.95523,693.3701,291.07939,685.20912,282.70705Z"/>
          <path class="cls-32" d="M674.852,319.73177c4.39322.31535,8.53174-5.55339,8.88958-10.53861s-3.65736-9.49056-7.59372-7.51447C671.20649,304.15932,670.45881,319.41642,674.852,319.73177Z"/>
        </g>
        <path class="cls-40" d="M653.7099,328.11541c1.21421-1.63654-.75616-5.01731-4.34023-8.26159-3.28456-2.97317-7.31453-5.31653-9.93087-3.1498a4.4359,4.4359,0,0,0-1.29337,4.28142c.32984,1.51886,1.14525,3.00531,6.905,5.33061C649.31825,328.039,652.67527,329.50991,653.7099,328.11541Z"/>
      </g>
      <path class="cls-41" d="M676.3633,387.62292h0a2.55232,2.55232,0,0,1,2.55232,2.55232v18.943a0,0,0,0,1,0,0H673.811a0,0,0,0,1,0,0v-18.943a2.55232,2.55232,0,0,1,2.55232-2.55232Z"/>
      <path class="cls-37" d="M682.69464,414.03833c-8.65758-.68629-17.27683-3.14719-23.43193-6.61473a5.71388,5.71388,0,0,1-2.87256-5.64852l.76986-7.36778a71.86272,71.86272,0,0,0,30.056,9.13293l-.431,6.9353A3.87453,3.87453,0,0,1,682.69464,414.03833Z"/>
    </g>
    <g>
      <path class="cls-11" d="M605.836,819.348V666.04692h-9.58445V819.36661h.00437a2.41368,2.41368,0,0,0,1.41032,1.93535,7.492,7.492,0,0,0,6.77851.01219A2.35136,2.35136,0,0,0,605.836,819.348Z"/>
      <path class="cls-11" d="M727.88858,749.12969V595.82859h-9.58446V749.14828h.00438a2.4137,2.4137,0,0,0,1.41031,1.93536,7.492,7.492,0,0,0,6.77851.01218A2.35136,2.35136,0,0,0,727.88858,749.12969Z"/>
    </g>
    <g>
      <path class="cls-11" d="M318.63254,654.57013V501.269h-9.58446V654.58872h.00438a2.41369,2.41369,0,0,0,1.41031,1.93535,7.492,7.492,0,0,0,6.77852.01219A2.35138,2.35138,0,0,0,318.63254,654.57013Z"/>
      <path class="cls-14" d="M440.68509,567.17491V437.5824h-9.58446V567.1935h.00438a2.4137,2.4137,0,0,0,1.41031,1.93536,7.492,7.492,0,0,0,6.77851.01218A2.35136,2.35136,0,0,0,440.68509,567.17491Z"/>
    </g>
    <g>
      <g>
        <path class="cls-42" d="M743.76533,584.9776,600.24963,678.812l-314.7093-181.5364c.2563-.183.51261-.34781.78712-.5125l147.89076-85.39552a8.63416,8.63416,0,0,1,8.62185,0Z"/>
        <path class="cls-15" d="M600.24963,678.812,586.5571,687.7633,282.86767,512.5791a3.59589,3.59589,0,0,1-1.84877-3.1303V505.989a10.63239,10.63239,0,0,1,4.52143-8.71347Z"/>
        <path class="cls-15" d="M745.23291,593.7297a7.48282,7.48282,0,0,1-3.742,6.48065L589.94526,687.68711a3.55257,3.55257,0,0,1-5.32787-3.07718v-3.47188a10.64194,10.64194,0,0,1,5.32387-9.21786l150.66219-86.9876a3.08628,3.08628,0,0,1,4.62946,2.67278Z"/>
      </g>
      <polygon class="cls-15" points="705.214 605.37 699.814 608.482 396.289 433.279 401.653 430.167 705.214 605.37"/>
      <polygon class="cls-15" points="668.237 626.714 662.873 629.826 359.33 454.605 364.712 451.512 668.237 626.714"/>
      <polygon class="cls-15" points="631.278 648.059 625.896 651.17 322.371 475.95 327.735 472.856 631.278 648.059"/>
    </g>
    <g>
      <path class="cls-18" d="M926.7192,437.44336V652.27522h-.00634a3.75545,3.75545,0,0,1-1.894,3.23068L897.99206,671.114V437.44336Z"/>
      <path class="cls-12" d="M897.99206,437.44336V671.114l-6.96619-4.02271-19.85426-11.46508a3.75763,3.75763,0,0,1-1.894-3.351h-.00634V437.44336Z"/>
      <path class="cls-19" d="M924.81728,440.6748l-21.22373,12.25353a11.4022,11.4022,0,0,1-11.40218,0l-21.02009-12.136a3.80072,3.80072,0,0,1,0-6.58305L892.395,421.95579a11.4022,11.4022,0,0,1,11.40218,0l21.02009,12.136A3.80072,3.80072,0,0,1,924.81728,440.6748Z"/>
    </g>
    <path class="cls-13" d="M592.71946,516.81133,518.17937,563.859a3.569,3.569,0,0,1-3.57877.134l-52.77293-28.02336a3.569,3.569,0,0,1-.23076-6.17043l71.2282-44.94609a10.30965,10.30965,0,0,1,10.33428-.388l49.328,26.17543A3.569,3.569,0,0,1,592.71946,516.81133Z"/>
    <polygon class="cls-19" points="614.357 539.035 526.526 578.698 471.48 538.814 559.3 499.169 614.357 539.035"/>
    <g>
      <path class="cls-25" d="M367.03713,458.821l55.54431,58.31613,71.928-41.55641c.11431-.05968.2252-.12414.33417-.19308l.11355-.07456a4.5133,4.5133,0,0,0,2.016-3.74288l-.03359-10.32553c.0385-4.56992-2.7404-7.31807-6.39835-10.74948l-45.85093-32.99918a5.68419,5.68419,0,0,0-5.769-.17243l-.005-.0051-.25506.14727-.02433.014Z"/>
      <path class="cls-43" d="M429.9855,439.03523l-5.30447-3.06405a.90581.90581,0,0,0-.906-.0001l-13.8054,7.97054a.45292.45292,0,0,0,0,.78446l5.3066,3.06418a.90585.90585,0,0,0,.90594,0l13.8033-7.97062A.45292.45292,0,0,0,429.9855,439.03523Z"/>
      <path class="cls-22" d="M425.16289,500.65116l-.10483,12.44171a4.57285,4.57285,0,0,1-6.85913,3.92168l-49.88955-31.93189c-5.74134-3.31463-6.72837-14.80514-3.93722-23.10733a5.67291,5.67291,0,0,1,8.403-2.95667l46.09094,32.47866C422.7329,493.93327,425.2014,496.08123,425.16289,500.65116Z"/>
      <path class="cls-44" d="M391.20655,466.47766l27.6596,25.01967a13.1885,13.1885,0,0,1,6.15832,11.27l.03359,10.32553a4.52809,4.52809,0,0,1-2.49459,4.0257l.018.01859,71.928-41.55641c.11431-.05968.44772-.26764.44772-.26764a4.5133,4.5133,0,0,0,2.016-3.74288l-.03359-10.32553c.0385-4.56992-2.41385-7.972-6.15834-11.27L462.17934,424.2091a8.42542,8.42542,0,0,0-9.44223-.69033l-60.96324,35.19917A4.7026,4.7026,0,0,0,391.20655,466.47766Z"/>
    </g>
  </g>
</svg>
