<svg id="Layer_1" data-name="Layer 1" xmlns="http://www.w3.org/2000/svg" xmlns:xlink="http://www.w3.org/1999/xlink" viewBox="0 0 1000 1000">
  <defs>
    <style>
      .cls-1 {
        fill: url(#linear-gradient);
      }

      .cls-2 {
        fill: #b8cbd8;
      }

      .cls-21, .cls-3 {
        fill: #fff;
      }

      .cls-4 {
        fill: url(#linear-gradient-2);
      }

      .cls-5 {
        fill: url(#linear-gradient-3);
      }

      .cls-6 {
        fill: url(#linear-gradient-4);
      }

      .cls-7 {
        fill: url(#linear-gradient-5);
      }

      .cls-8 {
        fill: url(#linear-gradient-6);
      }

      .cls-9 {
        fill: url(#linear-gradient-7);
      }

      .cls-10 {
        fill: url(#linear-gradient-8);
      }

      .cls-11, .cls-43 {
        fill: #2a3f5e;
      }

      .cls-11, .cls-42 {
        opacity: 0.2;
      }

      .cls-12 {
        fill: url(#linear-gradient-9);
      }

      .cls-13 {
        fill: url(#linear-gradient-10);
      }

      .cls-14 {
        fill: url(#linear-gradient-11);
      }

      .cls-15 {
        fill: url(#linear-gradient-12);
      }

      .cls-16 {
        fill: url(#linear-gradient-13);
      }

      .cls-17 {
        fill: url(#linear-gradient-14);
      }

      .cls-18 {
        fill: url(#linear-gradient-15);
      }

      .cls-19 {
        fill: url(#linear-gradient-16);
      }

      .cls-20 {
        fill: url(#linear-gradient-17);
      }

      .cls-21, .cls-38, .cls-71, .cls-74 {
        opacity: 0.5;
      }

      .cls-22 {
        fill: url(#linear-gradient-18);
      }

      .cls-23 {
        fill: url(#linear-gradient-19);
      }

      .cls-24 {
        fill: url(#linear-gradient-20);
      }

      .cls-25 {
        fill: #e58630;
      }

      .cls-26 {
        fill: #724133;
      }

      .cls-27 {
        fill: #ffcb48;
      }

      .cls-28 {
        fill: url(#linear-gradient-21);
      }

      .cls-29 {
        fill: url(#linear-gradient-22);
      }

      .cls-30 {
        fill: url(#linear-gradient-23);
      }

      .cls-31 {
        fill: url(#linear-gradient-24);
      }

      .cls-32 {
        fill: url(#linear-gradient-25);
      }

      .cls-33 {
        fill: url(#linear-gradient-26);
      }

      .cls-34 {
        fill: url(#linear-gradient-27);
      }

      .cls-35 {
        fill: #445263;
      }

      .cls-36 {
        fill: #626f82;
      }

      .cls-37, .cls-51, .cls-73 {
        fill: none;
        stroke-linecap: round;
      }

      .cls-37 {
        stroke: #74899e;
        stroke-width: 9.60564px;
      }

      .cls-37, .cls-51, .cls-73, .cls-80 {
        stroke-miterlimit: 10;
      }

      .cls-38 {
        fill: #93a1b2;
      }

      .cls-39 {
        fill: #baccdd;
      }

      .cls-40 {
        fill: #425260;
      }

      .cls-41 {
        fill: url(#linear-gradient-28);
      }

      .cls-44 {
        fill: #86a1b7;
      }

      .cls-45 {
        fill: #74899e;
      }

      .cls-46 {
        fill: #303d49;
      }

      .cls-47 {
        fill: #e5907c;
      }

      .cls-48 {
        fill: #27343d;
      }

      .cls-49 {
        fill: #ffbea4;
      }

      .cls-50 {
        fill: #586d7f;
      }

      .cls-51 {
        stroke: #425260;
        stroke-width: 12.00705px;
      }

      .cls-52 {
        fill: url(#linear-gradient-29);
      }

      .cls-53 {
        fill: url(#linear-gradient-30);
      }

      .cls-54 {
        fill: #dd7b19;
        opacity: 0.6;
      }

      .cls-55 {
        fill: url(#linear-gradient-31);
      }

      .cls-56 {
        fill: url(#linear-gradient-32);
      }

      .cls-57 {
        fill: url(#linear-gradient-33);
      }

      .cls-58 {
        fill: #f2f2f2;
      }

      .cls-59 {
        fill: url(#linear-gradient-34);
      }

      .cls-60 {
        fill: url(#linear-gradient-35);
      }

      .cls-61 {
        fill: #ffbda3;
      }

      .cls-62 {
        fill: url(#linear-gradient-36);
      }

      .cls-63 {
        fill: url(#linear-gradient-37);
      }

      .cls-64 {
        fill: url(#linear-gradient-38);
      }

      .cls-65 {
        fill: url(#linear-gradient-39);
      }

      .cls-66 {
        fill: #34a521;
      }

      .cls-67, .cls-74 {
        fill: #424a51;
      }

      .cls-68, .cls-80 {
        fill: #333a3d;
      }

      .cls-69 {
        fill: #57646d;
      }

      .cls-70 {
        fill: #abbec9;
      }

      .cls-71 {
        fill: #cfdfe8;
      }

      .cls-72 {
        fill: #a2b8cc;
      }

      .cls-73 {
        stroke: #c93f53;
        stroke-width: 3.63477px;
      }

      .cls-75 {
        fill: url(#linear-gradient-40);
      }

      .cls-76 {
        fill: url(#linear-gradient-41);
      }

      .cls-77 {
        fill: url(#linear-gradient-42);
      }

      .cls-78 {
        fill: url(#linear-gradient-43);
      }

      .cls-79 {
        fill: url(#linear-gradient-44);
      }

      .cls-80 {
        font-size: 41.98214px;
        stroke: #333a3d;
        stroke-width: 1.55412px;
        font-family: AvenirLTStd-Black, Avenir LT Std;
        font-weight: 800;
      }
    </style>
    <linearGradient id="linear-gradient" x1="481.7726" y1="393.55996" x2="903.05929" y2="393.55996" gradientUnits="userSpaceOnUse">
      <stop offset="0" stop-color="#f0f9ff"/>
      <stop offset="1" stop-color="#c3d6e6"/>
    </linearGradient>
    <linearGradient id="linear-gradient-2" x1="531.44547" y1="293.79009" x2="569.96728" y2="293.79009" gradientUnits="userSpaceOnUse">
      <stop offset="0" stop-color="#849bb2"/>
      <stop offset="1" stop-color="#5b6f82"/>
    </linearGradient>
    <linearGradient id="linear-gradient-3" x1="563.96027" y1="170.55047" x2="529.44182" y2="419.32137" gradientUnits="userSpaceOnUse">
      <stop offset="0" stop-color="#62778c"/>
      <stop offset="1" stop-color="#435466"/>
    </linearGradient>
    <linearGradient id="linear-gradient-4" x1="594.86598" y1="153.80842" x2="497.72833" y2="439.92298" xlink:href="#linear-gradient-2"/>
    <linearGradient id="linear-gradient-5" x1="823.22994" y1="466.82951" x2="861.75175" y2="466.82951" xlink:href="#linear-gradient-2"/>
    <linearGradient id="linear-gradient-6" x1="854.63478" y1="326.2351" x2="824.90554" y2="586.66328" xlink:href="#linear-gradient-3"/>
    <linearGradient id="linear-gradient-7" x1="887.73907" y1="330.38017" x2="790.52567" y2="603.46144" xlink:href="#linear-gradient-2"/>
    <linearGradient id="linear-gradient-8" x1="60.50214" y1="719.89267" x2="903.05929" y2="719.89267" gradientUnits="userSpaceOnUse">
      <stop offset="0" stop-color="#dae9f2"/>
      <stop offset="0.99337" stop-color="#c4d5e6"/>
    </linearGradient>
    <linearGradient id="linear-gradient-9" x1="-919.26707" y1="577.95713" x2="-794.29294" y2="660.24208" gradientTransform="translate(1162.29787)" gradientUnits="userSpaceOnUse">
      <stop offset="0" stop-color="#fff"/>
      <stop offset="0.94545" stop-color="#fff" stop-opacity="0"/>
    </linearGradient>
    <linearGradient id="linear-gradient-10" x1="72.81956" y1="478.81517" x2="469.47117" y2="478.81517" xlink:href="#linear-gradient-8"/>
    <linearGradient id="linear-gradient-11" x1="151.57179" y1="546.13688" x2="322.50237" y2="546.13688" gradientUnits="userSpaceOnUse">
      <stop offset="0.00005" stop-color="#ffb348"/>
      <stop offset="1" stop-color="#e68e2b"/>
    </linearGradient>
    <linearGradient id="linear-gradient-12" x1="157.99162" y1="304.43016" x2="157.99162" y2="623.94501" gradientUnits="userSpaceOnUse">
      <stop offset="0" stop-color="#5b6f82"/>
      <stop offset="1" stop-color="#849bb2"/>
    </linearGradient>
    <linearGradient id="linear-gradient-13" x1="364.45933" y1="202.00219" x2="364.45933" y2="514.16383" xlink:href="#linear-gradient-12"/>
    <linearGradient id="linear-gradient-14" x1="456.07211" y1="134.38817" x2="456.07211" y2="474.68614" xlink:href="#linear-gradient-12"/>
    <linearGradient id="linear-gradient-15" x1="72.81956" y1="407.96302" x2="469.47118" y2="407.96302" xlink:href="#linear-gradient-3"/>
    <linearGradient id="linear-gradient-16" x1="421.10256" y1="530.86888" x2="421.10256" y2="232.3575" xlink:href="#linear-gradient-3"/>
    <linearGradient id="linear-gradient-17" x1="726.09997" y1="495.7829" x2="808.88639" y2="495.7829" gradientTransform="matrix(-1, 0, 0, 1, 1188.59575, 0)" xlink:href="#linear-gradient-2"/>
    <linearGradient id="linear-gradient-18" x1="81.62503" y1="673.55887" x2="164.41144" y2="673.55887" xlink:href="#linear-gradient-3"/>
    <linearGradient id="linear-gradient-19" x1="1024.1843" y1="667.81346" x2="1106.97071" y2="667.81346" gradientTransform="matrix(-1, 0, 0, 1, 1188.59575, 0)" xlink:href="#linear-gradient-2"/>
    <linearGradient id="linear-gradient-20" x1="5636.18635" y1="652.34848" x2="5577.74772" y2="714.35379" gradientTransform="matrix(-1, 0, 0, 1, 5740.21293, 0)" gradientUnits="userSpaceOnUse">
      <stop offset="0.00005" stop-color="#ffcb48"/>
      <stop offset="1" stop-color="#e68e2b"/>
    </linearGradient>
    <linearGradient id="linear-gradient-21" x1="5560.99704" y1="585.68341" x2="5597.21253" y2="605.43732" gradientTransform="matrix(-1, 0, 0, 1, 5740.21293, 0)" gradientUnits="userSpaceOnUse">
      <stop offset="0" stop-color="#f2883c"/>
      <stop offset="0.16716" stop-color="#e97d35"/>
      <stop offset="0.67368" stop-color="#d26124"/>
      <stop offset="0.96784" stop-color="#c9571e"/>
    </linearGradient>
    <linearGradient id="linear-gradient-22" x1="5580.77242" y1="540.64987" x2="5605.64771" y2="588.38847" xlink:href="#linear-gradient-21"/>
    <linearGradient id="linear-gradient-23" x1="5640.37466" y1="616.79035" x2="5610.19508" y2="635.99553" xlink:href="#linear-gradient-21"/>
    <linearGradient id="linear-gradient-24" x1="5560.26435" y1="608.63513" x2="5600.32088" y2="625.27962" xlink:href="#linear-gradient-21"/>
    <linearGradient id="linear-gradient-25" x1="5574.92939" y1="558.83789" x2="5595.0491" y2="595.23629" xlink:href="#linear-gradient-21"/>
    <linearGradient id="linear-gradient-26" x1="5666.92753" y1="567.09031" x2="5616.26243" y2="612.63404" xlink:href="#linear-gradient-21"/>
    <linearGradient id="linear-gradient-27" x1="5638.70361" y1="542.67639" x2="5614.74286" y2="584.56198" xlink:href="#linear-gradient-21"/>
    <linearGradient id="linear-gradient-28" x1="344.96923" y1="664.46228" x2="717.27809" y2="664.46228" xlink:href="#linear-gradient-2"/>
    <linearGradient id="linear-gradient-29" x1="442.10545" y1="787.54882" x2="499.62203" y2="787.54882" gradientUnits="userSpaceOnUse">
      <stop offset="0" stop-color="#62788c"/>
      <stop offset="1" stop-color="#526575"/>
    </linearGradient>
    <linearGradient id="linear-gradient-30" x1="443.55063" y1="362.82514" x2="506.65638" y2="528.01373" gradientTransform="matrix(1, 0, 0, 1, 0, 0)" xlink:href="#linear-gradient-20"/>
    <linearGradient id="linear-gradient-31" x1="457.52448" y1="357.48682" x2="520.63023" y2="522.67541" gradientTransform="matrix(1, 0, 0, 1, 0, 0)" xlink:href="#linear-gradient-20"/>
    <linearGradient id="linear-gradient-32" x1="505.20718" y1="414.12477" x2="505.51019" y2="414.91793" gradientTransform="matrix(1, 0, 0, 1, 0, 0)" xlink:href="#linear-gradient-20"/>
    <linearGradient id="linear-gradient-33" x1="491.7113" y1="344.42669" x2="554.81705" y2="509.61527" gradientTransform="matrix(1, 0, 0, 1, 0, 0)" xlink:href="#linear-gradient-20"/>
    <linearGradient id="linear-gradient-34" x1="455.32605" y1="324.04241" x2="494.24736" y2="365.71111" gradientUnits="userSpaceOnUse">
      <stop offset="0" stop-color="#a2b4bf"/>
      <stop offset="1" stop-color="#7b90a6"/>
    </linearGradient>
    <linearGradient id="linear-gradient-35" x1="464.81131" y1="315.18256" x2="503.73262" y2="356.85126" gradientUnits="userSpaceOnUse">
      <stop offset="0.00634" stop-color="#adc0cc"/>
      <stop offset="1" stop-color="#7b90a6"/>
    </linearGradient>
    <linearGradient id="linear-gradient-36" x1="445.24697" y1="333.45694" x2="484.16828" y2="375.12564" xlink:href="#linear-gradient-34"/>
    <linearGradient id="linear-gradient-37" x1="671.05847" y1="151.65544" x2="893.78465" y2="456.5119" xlink:href="#linear-gradient"/>
    <linearGradient id="linear-gradient-38" x1="671.06346" y1="151.66091" x2="893.78471" y2="456.51063" xlink:href="#linear-gradient"/>
    <linearGradient id="linear-gradient-39" x1="599.9992" y1="447.1545" x2="964.98852" y2="447.1545" gradientUnits="userSpaceOnUse">
      <stop offset="0" stop-color="#96b1cc"/>
      <stop offset="1" stop-color="#748ea6"/>
    </linearGradient>
    <linearGradient id="linear-gradient-40" x1="-697.99168" y1="-3766.61709" x2="-660.56189" y2="-3766.61709" gradientTransform="translate(1267.98414 1682.46836) scale(0.85898 0.42013)" xlink:href="#linear-gradient-2"/>
    <linearGradient id="linear-gradient-41" x1="-3332.04622" y1="-170.4955" x2="-3294.61643" y2="-170.4955" gradientTransform="matrix(0.85898, 0, 0, -0.42013, 3425.56705, 28.36465)" xlink:href="#linear-gradient-2"/>
    <linearGradient id="linear-gradient-42" x1="617.23978" y1="90.72919" x2="646.02626" y2="90.72919" xlink:href="#linear-gradient-2"/>
    <linearGradient id="linear-gradient-43" x1="603.88829" y1="102.05662" x2="645.27299" y2="213.18218" xlink:href="#linear-gradient-2"/>
    <linearGradient id="linear-gradient-44" x1="568.59219" y1="176.556" x2="694.68411" y2="176.556" xlink:href="#linear-gradient-2"/>
  </defs>
  <g>
    <g>
      <g>
        <g>
          <g>
            <polygon class="cls-1" points="481.773 67.227 903.059 310.448 903.059 719.893 481.773 476.649 481.773 67.227"/>
            <polygon class="cls-2" points="481.789 67.227 60.502 310.448 60.502 719.893 481.789 476.649 481.789 67.227"/>
          </g>
          <g>
            <g>
              <path class="cls-3" d="M523.08369,141.696l8.36178-4.82605L578.338,163.9127,569.96728,443.736l.00008,6.96969-46.88367-27.0576Z"/>
              <polygon class="cls-4" points="531.445 146.521 531.474 418.847 569.967 441.059 569.967 436.216 535.688 416.445 535.688 148.971 531.445 146.521"/>
              <polygon class="cls-5" points="523.084 141.696 523.088 423.652 569.967 450.706 569.967 441.059 531.445 418.83 531.445 146.521 523.084 141.696"/>
              <path class="cls-6" d="M578.338,163.9127,514.7094,127.18348V425.58692a5.02713,5.02713,0,0,0,2.51342,4.35368l61.1152,35.27271ZM523.08773,423.65181V141.69567l46.87963,27.05877V450.70572Z"/>
            </g>
            <g>
              <path class="cls-3" d="M814.86816,314.73537l8.36178-4.82606,46.89255,27.0428-8.37074,279.82333.00008,6.9697-46.88367-27.05761Z"/>
              <polygon class="cls-7" points="823.23 319.561 823.258 591.886 861.752 614.098 861.752 609.255 827.472 589.484 827.472 322.01 823.23 319.561"/>
              <polygon class="cls-8" points="814.868 314.735 814.872 596.691 861.752 623.745 861.752 614.098 823.23 591.87 823.23 319.561 814.868 314.735"/>
              <path class="cls-9" d="M814.8722,596.69122V314.73509l46.87963,27.05877V623.74514Zm-8.38-296.46723V601.53356l63.63,36.72021V336.954Z"/>
            </g>
          </g>
          <path class="cls-10" d="M67.77192,732.49667l392.21059,226.4329a43.6172,43.6172,0,0,0,43.61687-.00063l392.1905-226.4365a14.53906,14.53906,0,0,0,.00017-25.18216L503.58239,480.8567a43.61721,43.61721,0,0,0-43.61994.00054L67.77107,707.31448A14.53906,14.53906,0,0,0,67.77192,732.49667Z"/>
          <path class="cls-11" d="M318.64115,720.94332,595.61441,560.83638a21.85383,21.85383,0,0,1,21.87551,0l130.30734,75.33514a10.92692,10.92692,0,0,1,0,18.91972L470.824,815.19818a21.85383,21.85383,0,0,1-21.87551,0L318.64115,739.863A10.92692,10.92692,0,0,1,318.64115,720.94332Z"/>
          <polygon class="cls-12" points="111.625 681.919 256.095 812.7 620.271 600.197 423.96 501.661 111.625 681.919"/>
          <g>
            <polygon class="cls-3" points="72.82 341.346 469.471 111.363 469.471 475.614 72.82 704.563 72.82 341.346"/>
            <path class="cls-13" d="M466.78514,368.5111l2.686-4.65235v-6.20556L294.52586,256.64293a26.855,26.855,0,0,0-26.77539-.001L72.81956,369.15709v6.20313l2.68628,4.65381,9.59961-5.541V480.02477L72.8198,487.11656V704.56285L469.47117,475.61363h0L413.01487,443.017V337.4652ZM148.53807,443.41149,95.85154,473.82213V368.27037l52.68653-30.41064Zm63.43261-36.61377-52.68652,30.41064V331.6566L211.97068,301.246ZM275.4033,370.184l-52.68652,30.41113V295.04332L273.123,265.9486a15.83026,15.83026,0,0,1,2.28027-1.07618Zm63.43262,30.00341L286.14939,369.767V264.61119a15.92963,15.92963,0,0,1,3.00342,1.33838l49.68311,28.686Zm63.43286,36.62452L349.582,406.392V300.8402l52.68677,30.42041Z"/>
            <path class="cls-14" d="M153.38127,556.47082l103.3532-59.71518a7.24507,7.24507,0,0,1,7.25227,0l56.70615,32.77495a3.62254,3.62254,0,0,1,0,6.27235l-103.3532,59.71519a7.24512,7.24512,0,0,1-7.25227,0l-56.70615-32.775A3.62254,3.62254,0,0,1,153.38127,556.47082Z"/>
            <polygon class="cls-15" points="164.411 651.68 164.411 302.503 151.572 309.937 151.572 644.191 164.411 651.68"/>
            <polygon class="cls-16" points="370.875 532.525 370.883 182.97 358.036 190.408 358.036 525.035 370.875 532.525"/>
            <polygon class="cls-17" points="462.488 479.647 462.496 129.903 449.648 137.363 449.648 472.157 462.488 479.647"/>
            <polygon class="cls-18" points="469.471 111.363 469.471 475.614 462.472 479.648 462.472 129.938 379.709 177.863 379.709 527.426 370.877 532.519 370.877 182.968 173.234 297.406 173.234 646.612 164.414 651.693 164.414 302.498 81.652 350.436 81.652 699.47 81.455 699.581 72.82 704.563 72.82 341.024 469.471 111.363"/>
            <g>
              <polygon class="cls-19" points="379.709 527.426 379.709 521.107 462.496 475.63 462.496 479.632 379.709 527.426"/>
              <polygon class="cls-20" points="379.709 523.425 379.709 508.495 449.656 468.141 462.496 475.63 379.709 523.425"/>
              <polygon class="cls-21" points="455.793 471.687 455.785 133.823 379.709 177.876 379.709 515.582 455.793 471.687"/>
            </g>
            <g>
              <polygon class="cls-22" points="81.625 699.457 81.625 693.138 164.411 647.661 164.411 651.662 81.625 699.457"/>
              <polygon class="cls-23" points="81.625 695.456 81.625 680.526 151.572 640.171 164.411 647.661 81.625 695.456"/>
              <polygon class="cls-21" points="157.639 643.765 157.631 306.427 81.555 349.942 81.555 687.661 157.639 643.765"/>
            </g>
          </g>
          <g>
            <g>
              <path class="cls-24" d="M97.53,657.76224l67.9345.162-8.59886,53.17606c-.72863,7.71863-11.81722,13.85318-25.4292,13.85318-13.61265,0-24.70056-6.13455-25.4292-13.85318Z"/>
              <ellipse class="cls-25" cx="131.51493" cy="655.37222" rx="34.23529" ry="19.67545"/>
              <path class="cls-26" d="M101.81256,665.14749c5.90828,5.936,17.01095,9.89331,29.70777,9.89331s23.79882-3.95736,29.70777-9.89331c-3.7653-7.365-15.63687-12.7515-29.70777-12.7515S105.57786,657.78244,101.81256,665.14749Z"/>
              <path class="cls-27" d="M131.51487,640.374c17.41889,0,29.55817,7.90429,29.55817,14.99819,0,7.094-12.13928,14.99826-29.55817,14.99826s-29.55817-7.90429-29.55817-14.99826c0-7.0939,12.13927-14.99819,29.55817-14.99819m0-4.67722c-18.90761,0-34.23533,8.80895-34.23533,19.67541s15.32772,19.67548,34.23533,19.67548,34.23532-8.809,34.23532-19.67548-15.32771-19.67541-34.23532-19.67541Z"/>
            </g>
            <path class="cls-28" d="M142.5383,609.60915c16.05015-2.47065,47.63987-12.88506,41.02861-24.79918S146.21015,586.658,142.5383,609.60915Z"/>
            <path class="cls-26" d="M135.49368,659.77405a1.26361,1.26361,0,0,0,1.26416-1.26374c0-34.11454,6.20771-56.35515,20.75771-74.36786a1.26406,1.26406,0,0,0-1.967-1.58814c-14.94291,18.49972-21.319,41.215-21.319,75.956A1.26361,1.26361,0,0,0,135.49368,659.77405Z"/>
            <path class="cls-26" d="M129.82416,659.77405a1.26362,1.26362,0,0,0,1.26416-1.26374c0-32.131,0-76.13677-16.13979-96.11816a1.26406,1.26406,0,0,0-1.967,1.58815C128.56,583.26749,128.56,626.7557,128.56,658.51031A1.26362,1.26362,0,0,0,129.82416,659.77405Z"/>
            <path class="cls-26" d="M129.22985,625.28229a1.26419,1.26419,0,0,0,1.25879-1.16057c2.09661-25.69589,7.66585-43.16051,17.52694-54.961a1.264,1.264,0,1,0-1.93978-1.62116c-10.21232,12.22061-15.96562,30.13509-18.10722,56.37577a1.264,1.264,0,0,0,1.15726,1.3628C129.16092,625.28146,129.19559,625.28229,129.22985,625.28229Z"/>
            <path class="cls-29" d="M134.76133,592.00961c15.20815-11.37982,39.89155-41.34029,26.513-50.00128S125.92553,566.299,134.76133,592.00961Z"/>
            <path class="cls-30" d="M129.22856,637.34018c-12.72465-1.67941-37.17561-11.17711-32.154-20.7039S125.93691,619.26688,129.22856,637.34018Z"/>
            <path class="cls-26" d="M129.77257,645.37676c.03013,0,.06067-.00083.09121-.0033a1.26351,1.26351,0,0,0,1.17089-1.35042c-1.57329-22.01361-11.38362-45.25217-27.09006-47.07474a1.26391,1.26391,0,1,0-.29138,2.511c14.34034,1.66408,23.36073,23.76849,24.85972,44.74371A1.26367,1.26367,0,0,0,129.77257,645.37676Z"/>
            <path class="cls-26" d="M136.02651,643.35774a1.265,1.265,0,0,0,1.25425-1.12095c1.63726-14.29081,14.789-24.44122,21.46593-26.6988a1.26429,1.26429,0,0,0-.80975-2.39542c-7.2069,2.43752-21.40155,13.38943-23.168,28.807a1.26373,1.26373,0,0,0,1.11187,1.39912A1.2454,1.2454,0,0,0,136.02651,643.35774Z"/>
            <path class="cls-31" d="M142.5383,625.91735c13.42919-.14344,40.96041-4.54118,36.94287-15.0691S148.23159,607.55766,142.5383,625.91735Z"/>
            <path class="cls-32" d="M147.37894,596.94444c11.30865-9.16325,29.97408-32.39548,19.474-38.63181S139.85321,577.51871,147.37894,596.94444Z"/>
            <path class="cls-33" d="M121.89455,612.35954c-20.93075-5.60751-59.77207-26.879-49.27283-41.7224S120.35641,581.38324,121.89455,612.35954Z"/>
            <path class="cls-34" d="M124.7855,587.24851c-14.235-10.65165-38.08136-35.69621-25.55891-43.803S133.0559,563.18307,124.7855,587.24851Z"/>
          </g>
          <g>
            <g>
              <path class="cls-35" d="M346.9076,676.53072l-.00929.0083a4.79607,4.79607,0,0,0-2.60489-.73585l-41.72457.53545A11.03835,11.03835,0,0,0,291.67218,687.376V725.5614l4.57827,2.64334,55.08022-49.12332Z"/>
              <path class="cls-36" d="M296.25048,728.20474l57.51658-33.20722v-11.7181a4.83338,4.83338,0,0,0-4.89541-4.833l-41.72454.5355a11.03828,11.03828,0,0,0-10.89663,11.03738Z"/>
            </g>
            <line class="cls-37" x1="348.57351" y1="473.37599" x2="305.96283" y2="686.7573"/>
            <g>
              <g>
                <polygon class="cls-38" points="296.25 723.402 313.417 733.318 313.417 738.121 296.25 728.205 296.25 723.402"/>
                <path class="cls-39" d="M595.94084,535.9802l-.00469-.00263-.00909-.00528.00029.00147a5.13553,5.13553,0,0,0-5.17423.00483l-281.6626,162.6459a13.45825,13.45825,0,0,0-5.7504,6.6153L296.05044,723.285v4.80282l302.48088-174.665,14.84421-7.36795Z"/>
                <path class="cls-40" d="M608.11967,546.01158,326.457,708.6575a13.45984,13.45984,0,0,0-5.75039,6.61528L313.417,733.31807v4.80282l302.48082-174.665V550.50243A5.18551,5.18551,0,0,0,608.11967,546.01158Z"/>
              </g>
              <g>
                <path class="cls-41" d="M613.68291,550.34864c-1.77614-1.02541-4.08741-.7267-6.41642.55052l.0003-.02345-.21238.12268-.06362.03664L354.47,696.90105v.00748a19.13716,19.13716,0,0,0-6.73579,7.07392c-3.68258,6.37845-3.68727,13.2702-.0104,15.393L451.319,779.19325,717.27809,610.16646Z"/>
                <g class="cls-42">
                  <ellipse class="cls-43" cx="488.1943" cy="681.07084" rx="64.35396" ry="36.98503"/>
                </g>
                <path class="cls-40" d="M717.2781,610.16655c-1.77614-1.02541-4.08741-.7267-6.41641.55051l.00029-.02345-.21238.12268-.06361.03664L458.06522,756.719v.00747a19.1372,19.1372,0,0,0-6.73579,7.07393c-3.68259,6.37845-3.68728,13.27019-.01041,15.393,1.84034,1.06249,4.25406.72831,6.66793-.66968v.00059L710.54524,632.6333l.00015-.00616a19.15581,19.15581,0,0,0,6.72216-7.06762C720.95028,619.18107,720.955,612.28932,717.2781,610.16655Z"/>
              </g>
              <polygon class="cls-38" points="420.361 795.066 437.527 804.982 437.527 809.785 420.361 799.869 420.361 795.066"/>
              <g>
                <path class="cls-39" d="M720.051,607.64414l-.00469-.00264-.00909-.00528.00029.00147a5.13551,5.13551,0,0,0-5.17423.00484L433.20068,770.28842a13.45823,13.45823,0,0,0-5.7504,6.61531l-7.28968,18.04516v4.80282l302.48088-174.665,14.84421-7.368Z"/>
                <path class="cls-44" d="M732.22983,617.67551,450.56711,780.32144a13.4598,13.4598,0,0,0-5.75039,6.61528L437.52715,804.982v4.80282L732.578,639.4102a14.86166,14.86166,0,0,0,7.42994-12.87006v-4.37378A5.18551,5.18551,0,0,0,732.22983,617.67551Z"/>
              </g>
              <g>
                <path class="cls-45" d="M471.23126,779.81922l-33.71588,29.96955-141.2649-81.584V683.01019a12.13523,12.13523,0,0,1,.45627-3.38607Z"/>
                <path class="cls-39" d="M502.83375,751.7227l-27.97634,24.85453-3.62615,3.242L296.70675,679.62412a13.03494,13.03494,0,0,1,12.43928-9.65357l42.74521-.55242,6.62777-.096a5.95946,5.95946,0,0,1,2.90576.76846Z"/>
                <path class="cls-44" d="M437.52722,809.78483,505.59,770.48875V756.622a5.71962,5.71962,0,0,0-5.793-5.71916l-49.37513.63368a13.06227,13.06227,0,0,0-12.89464,13.0612Z"/>
              </g>
              <polygon class="cls-40" points="377.354 679.278 484.312 741.021 464.789 741.271 357.83 679.528 377.354 679.278"/>
            </g>
            <g>
              <path class="cls-27" d="M515.81777,625.46125s10.53956,2.3456,11.28144,10.88c.33894,3.89914-1.72048,8.35755-4.74782,13.80258-2.82537,5.08176-3.14142,14.64238-12.2839,20.69928-6.999,4.63686-13.36574-.94853-12.20109-5.037l4.04819-8.69986,4.33084-21.52514Z"/>
              <path class="cls-46" d="M514.00039,623.64386s10.0634,3.12716,10.80528,11.6616c.33894,3.89914-1.24433,7.576-4.27166,13.021-2.82537,5.08176-3.14143,14.64238-12.28391,20.69928-6.999,4.63686-12.31191-.94252-11.14727-5.031l2.99437-8.70586,4.33085-21.52515Z"/>
              <path class="cls-47" d="M454.845,490.157c.68018,24.87912,5.46049,79.02828,5.46049,79.02828.77232,11.17777,1.98942,14.55071,8.53257,23.64614l34.7125,40.37782,1.77228,3.05028c2.51337,4.1234,10.41742-.55177,10.41742-.55177s2.50013-7.56721.52232-9.4877l-1.711-1.305-21.27859-49.0754,2.41318-68.23721Z"/>
              <path class="cls-3" d="M516.26272,626.21992l-1.71134-1.30492-2.07273-4.78084c.89351,6.5402-7.61339,10.871-11.77684,9.76112l2.84876,3.31375,1.77235,3.05042c2.51332,4.12328,10.41734-.55174,10.41734-.55174S518.24028,628.14046,516.26272,626.21992Z"/>
              <path class="cls-48" d="M454.845,490.157c.68018,24.87912,2.8618,78.50375,2.8618,78.50375,2.03321,19.46191,35.56614,7.17886,35.56614,7.17886l2.41318-68.23721Z"/>
              <path class="cls-27" d="M496.94212,680.7661c2.18875,3.17518,3.88173,13.7216,1.891,16.74756-1.93338,2.93874-7.25562,4.63986-10.053,6.37617s-6.40711,8.9509-18.6653,9.8873c-8.56621.65437-14.24793-4.86825-9.42205-10.14447l9.8079-9.5819,12.62647-12.309S494.75336,677.59092,496.94212,680.7661Z"/>
              <path class="cls-46" d="M496.94212,678.446c2.18875,3.17518,3.2532,14.3859.88557,17.127-1.138,1.31751-6.25022,4.2604-9.0476,5.9967s-6.40711,8.95091-18.6653,9.8873c-8.56621.65437-14.24793-4.86825-9.42205-10.14446l9.8079-9.58191,12.62647-12.309S494.75336,675.27085,496.94212,678.446Z"/>
              <path class="cls-49" d="M522.51328,518.03679l-19.6795,79.30953c2.04959,24.43943-7.82879,76.696-7.82879,76.696l.98964,5.77553c-.6813,6.99822-14.273,10.01678-14.21391.41131l.00812-5.80017-6.04039-80.19689,1.8905-88.48393Z"/>
              <path class="cls-3" d="M481.6022,671.95023l.18658,2.47872-.008,5.80023c-.059,9.60538,13.53254,6.58691,14.21384-.41131l-.98967-5.7756s.58923-3.17066.69239-3.731C493.09093,675.84039,483.75267,675.02836,481.6022,671.95023Z"/>
              <path class="cls-46" d="M520.54972,467.03375,454.47134,449.632s-.19377,28.10974.37368,40.525l20.42054,26.54724-2.6492,74.06718c-.242,8.9639,35.553,12.49616,36.82582,2.7538,0,0,10.75429-53.23456,13.071-75.48841S520.54972,467.03375,520.54972,467.03375Z"/>
            </g>
            <g>
              <g>
                <path class="cls-37" d="M542.31932,524.90791l-52.46909,30.1125a28.8647,28.8647,0,0,1-17.995,3.60109l-7.91623-1.00276a87.94861,87.94861,0,0,1-32.95374-11.104l-107.014-61.84394a4.40363,4.40363,0,0,1,2.75675-8.18146l3.85076.48775a28.86463,28.86463,0,0,0,17.99475-3.60113l52.46923-30.11258"/>
                <line class="cls-37" x1="489.85023" y1="555.02041" x2="447.23955" y2="768.40172"/>
                <g>
                  <path class="cls-50" d="M453.21794,541.95013l-6.2184.18746.50816.62967L363.51,494.26286a19.2124,19.2124,0,0,0-7.2888-2.4341l-14.50768-1.76353,1.776-.28142-5.38822-3.90639-2.054,5.0857.03371-.00542a2.33811,2.33811,0,0,0,.903,3.17735l86.55511,49.9811a19.21262,19.21262,0,0,0,7.2888,2.43424l17.74659,2.15707a2.321,2.321,0,0,0,2.509-1.50967l.0107.01319Z"/>
                  <path class="cls-45" d="M358.29044,486.71705l-17.74663-2.15713a2.40141,2.40141,0,0,0-1.49062,4.46346l86.55521,49.98111a19.21121,19.21121,0,0,0,7.28876,2.43416l17.74663,2.15714a2.40141,2.40141,0,0,0,1.49062-4.46346L365.5792,489.15121A19.21121,19.21121,0,0,0,358.29044,486.71705Z"/>
                </g>
                <line class="cls-51" x1="355.11226" y1="469.62334" x2="401.04274" y2="443.26341"/>
                <line class="cls-37" x1="349.66547" y1="472.74931" x2="350.77798" y2="472.11083"/>
                <line class="cls-51" x1="496.38884" y1="551.26784" x2="542.31932" y2="524.90791"/>
                <line class="cls-37" x1="489.85023" y1="555.02041" x2="493.3809" y2="552.99412"/>
              </g>
              <g>
                <path class="cls-35" d="M492.76257,760.75416l-.00929.0083a4.79607,4.79607,0,0,0-2.60489-.73585l-41.72457.53544a11.03836,11.03836,0,0,0-10.89667,11.03738v38.1854l4.57827,2.64334,55.08022-49.12332Z"/>
                <path class="cls-52" d="M442.10545,812.42817,499.622,779.221v-11.7181a4.83338,4.83338,0,0,0-4.89541-4.833l-41.72454.53549a11.03829,11.03829,0,0,0-10.89663,11.03739Z"/>
              </g>
            </g>
            <path class="cls-49" d="M528.76765,525.57206l2.61077,12.51582-4.87214,2.68936s2.80029,2.04092,5.52949,1.392c4.25387-1.01139,9.237-5.16723,10.117-7.67574,1.44466-4.11792,1.60477-16.22827,1.60477-16.22827l-9.47876-1.56109Z"/>
            <path class="cls-49" d="M530.42029,522.91282s-3.03846,3.045-3.914,5.45207-.00007,6.30294-.00007,6.30294c.42728,1.53874,2.57148,1.83662,2.91953.406l1.64334-5.23954Z"/>
          </g>
        </g>
        <path class="cls-49" d="M448.40883,380.23573,422.00029,420.6913,389.96514,437.249l4.56081,10.53485s30.55175-6.87159,36.59993-10.54275,35.05435-28.57995,35.05435-28.57995l8.99541-44.568Z"/>
        <path class="cls-49" d="M402.9851,445.395l-8.45915,2.38887-9.19138-.91374a5.64129,5.64129,0,0,0-3.24851.65522l-7.09932,3.85209s-.94736-3.07408,1.75939-6.82485c3.41329-4.72986,16.594-8.80251,16.594-8.80251Z"/>
        <path class="cls-53" d="M448.11883,378.55368c-5.6633,8.7867-18.39728,27.28277-18.39728,27.28277-5.43462,9.07583,15.82753,25.70373,20.50619,19.205l15.66248-18.06231,10.84426-43.71A32.8183,32.8183,0,0,0,448.11883,378.55368Z"/>
        <path class="cls-54" d="M448.559,395.69414l-2.727,30.71517c1.88926.28751,3.46971-.08187,4.3957-1.36792l8.42271-9.7132Z"/>
        <path class="cls-55" d="M488.2967,365.042c-18.91985-6.94293-42.48917,6.16869-39.925,29.41764l5.80016,38.21869-.101,52.30048c.31086,9.56662,5.9277,21.12046,14.02138,25.33508,20.68386,10.7707,56.75338.94513,55.93509-10.27635l-2.62781-57.97038,6.80987-40.82076C520.60293,381.35576,499.90936,369.30342,488.2967,365.042Z"/>
        <g>
          <polygon class="cls-54" points="505.731 414.833 523.277 483.484 521.399 442.067 523.556 429.141 505.731 414.833"/>
          <polygon class="cls-56" points="504.964 414.218 505.731 414.833 505.681 414.636 504.964 414.218"/>
        </g>
        <path class="cls-49" d="M527.37747,400.6327s14.875,44.9157,16.29478,57.79592.08529,59.83665.08529,59.83665c.05937,7.395-8.4824,5.59433-9.47876-1.56109l-9.577-53.7877-16.93647-47.32932Z"/>
        <path class="cls-57" d="M528.00318,400.1556a195.35926,195.35926,0,0,1,10.96574,32.66114c3.16534,13.73886-22.32933,17.10738-24.25959,11.69386l-8.81467-29.14506C500.15966,397.51008,522.59881,384.9403,528.00318,400.1556Z"/>
        <g>
          <path class="cls-49" d="M472.81832,373.63468c.53525,3.63445,3.47814,5.59584,9.5202,4.706s12.2467-5.80253,11.71145-9.437-5.86721-5.85942-11.90927-4.9696S472.28307,370.00023,472.81832,373.63468Z"/>
          <path class="cls-58" d="M478.367,357.68741s-13.8435,5.57414-22.42049,15.2074c-10.79356,12.12279-15.95169,28.64829-16.62491,35.5902s16.55967,16.28851,18.892,6.64264c4.71686-24.17818,12.4553-42.6545,21.48635-48.6956Z"/>
          <path class="cls-47" d="M476.52328,368.246c-.23886,8.91579,15.723,3.81889,15.81754.09141l.0862-14.91368-15.81754-.09141Z"/>
          <g>
            <path class="cls-59" d="M466.2018,323.02882c-6.92259,5.70807-8.94693,15.43506-.125,25.18023l2.92393-8.24007Z"/>
            <path class="cls-49" d="M475.90982,369.87717c9.15638-1.07011,14.42618-5.3519,15.85947-13.69653l3.06926-18.04591c1.44153-7.24521-4.3478-14.89973-12.88744-15.83738-7.46353-.8195-15.84413,4.50215-16.756,12.76969a168.12762,168.12762,0,0,0-.70194,18.42114C464.7805,361.6928,467.58867,370.84968,475.90982,369.87717Z"/>
            <g>
              <path class="cls-60" d="M499.23335,330.60953c-2.34784-9.25141-12.92084-14.88-24.33353-11.8014-9.68672,2.61215-13.34068,8.00755-12.501,14.087,2.00573,17.64767,20.11983,1.50826,23.29171,7.199a3.55566,3.55566,0,0,1,.4354,1.35272c.40428,4.07371-.06225,9.48467.35759,10.5264.4354,1.05729,3.514,1.60145,3.43626.2643,1.477.97957,2.48773,7.46329,2.48773,7.46329a88.451,88.451,0,0,0,5.56641-7.77428C501.79881,346.23581,505.23507,336.7667,499.23335,330.60953Z"/>
              <path class="cls-61" d="M491.61657,357.83815c3.23086.23192,6.27439-4.084,6.53756-7.75027s-2.68969-6.97952-5.58456-5.52627C488.93557,346.38591,488.38572,357.60624,491.61657,357.83815Z"/>
            </g>
            <path class="cls-62" d="M476.06828,364.00363c.89295-1.20354-.5561-3.68982-3.19189-6.07572-2.41552-2.18652-5.37923-3.90986-7.30333-2.31641a3.26224,3.26224,0,0,0-.95117,3.14863c.24257,1.117.84224,2.21015,5.07809,3.92022C472.83858,363.94744,475.30739,365.02917,476.06828,364.00363Z"/>
          </g>
          <path class="cls-58" d="M486.09263,371.60341c-8.01795,8.92794-13.61131,16.37277-16.64008,28.62964-2.94529,11.919-1.87164,25.11417-1.87164,25.11417.434,5.86171,25.45848,3.16947,24.95673-1.629-2.52012-26.6463,8.53821-36.11026,9.00368-46.99431s-9.191-14.89151-9.191-14.89151S489.24127,368.09742,486.09263,371.60341Z"/>
        </g>
      </g>
      <path class="cls-44" d="M471.86881,692.3694c-1.0784,1.10924,3.41563,4.81558,6.277,3.17221,5.73479-4.05006,10.20011-6.903,14.70785-10.89273-1.0631-5.53445-10.261-8.24781-11.96239-5.02476Z"/>
      <path class="cls-44" d="M502.08109,649.76855c-.11847,1.25633,3.94416,3.24813,6.32227.29012a44.64643,44.64643,0,0,0,7.3369-14.351c-5.50029-4.58649-11.78436-3.25538-11.58292-.59852Z"/>
    </g>
    <g>
      <g>
        <circle class="cls-63" cx="782.49382" cy="304.18258" r="201.18409"/>
        <path class="cls-64" d="M983.6843,304.19011a200.91576,200.91576,0,0,1-9.08692,59.93728c-1.308,4.21635-2.762,8.39642-4.36154,12.48553a199.06615,199.06615,0,0,1-21.80861,41.34548c-1.29027,1.90812-2.63512,3.78008-4.01635,5.63385A200.8546,200.8546,0,0,1,782.5,505.37452c-111.11465,0-201.18429-90.08762-201.18429-201.18441,0-111.11487,90.06964-201.18441,201.18429-201.18441C893.59691,103.0057,983.6843,193.07524,983.6843,304.19011Z"/>
        <path class="cls-65" d="M599.9992,388.9422a201.24178,201.24178,0,0,0,364.98932,0Z"/>
        <path class="cls-66" d="M782.49386,104.85031a199.33246,199.33246,0,1,1-140.94918,58.38312,198.02736,198.02736,0,0,1,140.94918-58.38312m0-18.17384c-120.12537,0-217.50614,97.38078-217.50614,217.50614s97.38077,217.506,217.50614,217.506C902.61911,521.68864,1000,424.308,1000,304.18261S902.61911,86.67647,782.49386,86.67647Z"/>
      </g>
      <g>
        <g>
          <g>
            <path class="cls-67" d="M650.84363,180.01145a7.313,7.313,0,0,0-7.266,6.48469l-3.297,28.91871h297.6472l10.563-35.4034Z"/>
            <path class="cls-68" d="M959.05393,215.41485H937.92781l3.297-28.91864a7.31315,7.31315,0,0,1,7.26608-6.48475h0a7.31315,7.31315,0,0,1,7.26608,6.48475Z"/>
          </g>
          <path class="cls-67" d="M926.58752,423.58855H628.9403a9.37679,9.37679,0,0,1-9.31978-10.40916l20.66011-197.76454H937.92781L917.26773,413.17942Z"/>
          <path class="cls-68" d="M974.1071,359.42043a196.65154,196.65154,0,0,1-31.96795,64.17182H926.58224a9.39235,9.39235,0,0,1-9.323-10.4138l20.66342-197.7676h21.1364Z"/>
          <path class="cls-69" d="M959.0591,215.41085H937.9227l-20.66342,197.7676a9.39235,9.39235,0,0,0,9.323,10.4138h15.55691c1.39943-1.85377,2.76246-3.72573,4.07093-5.63385H926.58224a3.73122,3.73122,0,0,1-2.78065-1.23592,3.76945,3.76945,0,0,1-.94463-2.96234L942.99327,221.0448h10.99526l15.82934,151.53358c1.59909-4.32549,3.01715-8.72353,4.28923-13.15795Z"/>
          <path class="cls-70" d="M903.60087,406.51082h-286.311a5.62579,5.62579,0,0,1-5.58379-6.31191l22.94-209.19724a5.62579,5.62579,0,0,1,5.5838-4.93968h286.311a5.62579,5.62579,0,0,1,5.5838,6.3119l-22.94,209.19725A5.62579,5.62579,0,0,1,903.60087,406.51082Z"/>
          <path class="cls-3" d="M895.23863,395.33847H609.0167a5.62579,5.62579,0,0,1-5.54028-6.60294l30.95677-198.0249a5.62579,5.62579,0,0,1,5.54028-4.64864H926.19541a5.62579,5.62579,0,0,1,5.54028,6.60293l-30.95678,198.0249A5.62578,5.62578,0,0,1,895.23863,395.33847Z"/>
          <g>
            <g>
              <g>
                <ellipse class="cls-71" cx="668.94273" cy="232.21119" rx="13.80372" ry="11.7523" transform="translate(19.84041 515.1822) rotate(-42.69792)"/>
                <ellipse class="cls-71" cx="704.5517" cy="232.21119" rx="13.80372" ry="11.7523" transform="translate(29.27895 539.32982) rotate(-42.69792)"/>
                <ellipse class="cls-71" cx="740.16067" cy="232.21119" rx="13.80372" ry="11.7523" transform="translate(38.71749 563.47744) rotate(-42.69792)"/>
                <ellipse class="cls-71" cx="775.76964" cy="232.21119" rx="13.80372" ry="11.7523" transform="translate(48.15603 587.62505) rotate(-42.69792)"/>
                <ellipse class="cls-71" cx="811.37861" cy="232.21119" rx="13.80372" ry="11.7523" transform="translate(57.59458 611.77267) rotate(-42.69792)"/>
                <ellipse class="cls-71" cx="846.98758" cy="232.21119" rx="13.80372" ry="11.7523" transform="translate(67.03312 635.92029) rotate(-42.69792)"/>
                <ellipse class="cls-72" cx="882.59655" cy="232.21119" rx="13.80372" ry="11.7523" transform="translate(76.47166 660.0679) rotate(-42.69792)"/>
              </g>
              <g>
                <ellipse class="cls-71" cx="648.99687" cy="359.9694" rx="13.80372" ry="11.7523" transform="translate(-72.08351 535.51995) rotate(-42.69792)"/>
                <ellipse class="cls-71" cx="684.60584" cy="359.9694" rx="13.80372" ry="11.7523" transform="translate(-62.64497 559.66756) rotate(-42.69792)"/>
                <ellipse class="cls-71" cx="720.21481" cy="359.9694" rx="13.80372" ry="11.7523" transform="translate(-53.20643 583.81518) rotate(-42.69792)"/>
                <ellipse class="cls-71" cx="755.82378" cy="359.9694" rx="13.80372" ry="11.7523" transform="translate(-43.76789 607.9628) rotate(-42.69792)"/>
                <ellipse class="cls-71" cx="791.43275" cy="359.9694" rx="13.80372" ry="11.7523" transform="translate(-34.32935 632.11041) rotate(-42.69792)"/>
                <ellipse class="cls-71" cx="827.04172" cy="359.9694" rx="13.80372" ry="11.7523" transform="translate(-24.89081 656.25803) rotate(-42.69792)"/>
                <ellipse class="cls-72" cx="862.65069" cy="359.9694" rx="13.80372" ry="11.7523" transform="translate(-15.45227 680.40565) rotate(-42.69792)"/>
              </g>
              <g>
                <ellipse class="cls-71" cx="655.65832" cy="317.38333" rx="13.80372" ry="11.7523" transform="translate(-41.4388 528.7494) rotate(-42.69792)"/>
                <ellipse class="cls-71" cx="691.26729" cy="317.38333" rx="13.80372" ry="11.7523" transform="translate(-32.00026 552.89701) rotate(-42.69792)"/>
                <ellipse class="cls-71" cx="726.87626" cy="317.38333" rx="13.80372" ry="11.7523" transform="translate(-22.56172 577.04463) rotate(-42.69792)"/>
                <ellipse class="cls-71" cx="762.48523" cy="317.38333" rx="13.80372" ry="11.7523" transform="translate(-13.12318 601.19225) rotate(-42.69792)"/>
                <ellipse class="cls-71" cx="798.09419" cy="317.38333" rx="13.80372" ry="11.7523" transform="translate(-3.68464 625.33986) rotate(-42.69792)"/>
                <ellipse class="cls-71" cx="833.70316" cy="317.38333" rx="13.80372" ry="11.7523" transform="translate(5.7539 649.48748) rotate(-42.69792)"/>
                <ellipse class="cls-72" cx="869.31213" cy="317.38333" rx="13.80372" ry="11.7523" transform="translate(15.19244 673.6351) rotate(-42.69792)"/>
              </g>
              <g>
                <ellipse class="cls-71" cx="662.29764" cy="274.79726" rx="13.80372" ry="11.7523" transform="translate(-10.79996 521.96385) rotate(-42.69792)"/>
                <ellipse class="cls-71" cx="697.90661" cy="274.79726" rx="13.80372" ry="11.7523" transform="translate(-1.36142 546.11146) rotate(-42.69792)"/>
                <ellipse class="cls-71" cx="733.51558" cy="274.79726" rx="13.80372" ry="11.7523" transform="translate(8.07712 570.25908) rotate(-42.69792)"/>
                <ellipse class="cls-71" cx="769.12455" cy="274.79726" rx="13.80372" ry="11.7523" transform="translate(17.51566 594.4067) rotate(-42.69792)"/>
                <ellipse class="cls-71" cx="804.73352" cy="274.79726" rx="13.80372" ry="11.7523" transform="translate(26.9542 618.55431) rotate(-42.69792)"/>
                <ellipse class="cls-71" cx="840.34249" cy="274.79726" rx="13.80372" ry="11.7523" transform="translate(36.39275 642.70193) rotate(-42.69792)"/>
                <ellipse class="cls-72" cx="875.95146" cy="274.79726" rx="13.80372" ry="11.7523" transform="translate(45.83129 666.84955) rotate(-42.69792)"/>
              </g>
            </g>
            <g>
              <g>
                <polyline class="cls-73" points="803.519 231.252 807.696 236.822 819.238 227.6"/>
                <polyline class="cls-73" points="767.91 231.252 772.087 236.822 783.629 227.6"/>
                <polyline class="cls-73" points="732.301 231.252 736.478 236.822 748.02 227.6"/>
                <polyline class="cls-73" points="696.692 231.252 700.869 236.822 712.411 227.6"/>
                <polyline class="cls-73" points="661.084 231.252 665.26 236.822 676.802 227.6"/>
              </g>
              <g>
                <polyline class="cls-73" points="797 273.719 801.176 279.29 812.718 270.067"/>
                <polyline class="cls-73" points="761.391 273.719 765.567 279.29 777.109 270.067"/>
                <polyline class="cls-73" points="725.782 273.719 729.958 279.29 741.5 270.067"/>
                <polyline class="cls-73" points="690.173 273.719 694.349 279.29 705.891 270.067"/>
                <polyline class="cls-73" points="654.564 273.719 658.74 279.29 670.282 270.067"/>
              </g>
              <g>
                <polyline class="cls-73" points="790.48 316.187 794.656 321.757 806.198 312.535"/>
                <polyline class="cls-73" points="754.871 316.187 759.047 321.757 770.589 312.535"/>
                <polyline class="cls-73" points="719.262 316.187 723.438 321.757 734.98 312.535"/>
                <polyline class="cls-73" points="683.653 316.187 687.829 321.757 699.371 312.535"/>
                <polyline class="cls-73" points="648.044 316.187 652.22 321.757 663.762 312.535"/>
              </g>
              <g>
                <polyline class="cls-73" points="783.96 358.654 788.136 364.224 799.678 355.002"/>
                <polyline class="cls-73" points="748.351 358.654 752.527 364.224 764.069 355.002"/>
                <polyline class="cls-73" points="712.742 358.654 716.918 364.224 728.46 355.002"/>
                <polyline class="cls-73" points="677.133 358.654 681.309 364.224 692.851 355.002"/>
                <polyline class="cls-73" points="641.524 358.654 645.7 364.224 657.242 355.002"/>
              </g>
            </g>
          </g>
        </g>
        <g>
          <g>
            <circle class="cls-74" cx="657.54679" cy="199.52313" r="5.90538"/>
            <path class="cls-68" d="M676.44646,180.015h-7.59529c-1.03142-5.19467-4.257-9.09545-7.9515-9.09545-3.6944,0-6.92008,3.90078-7.9515,9.09545a18.55992,18.55992,0,0,0-.35632,3.582c0,5.6635,2.56923,10.57693,5.96362,12.17105a3.83783,3.83783,0,0,1,2.3442,3.4506,3.75271,3.75271,0,0,1-5.3635,3.37573c-6.09491-2.813-10.44576-10.25827-10.44576-18.99738a24.19146,24.19146,0,0,1,.24381-3.52569c1.31277-9.45188,7.78278-16.65319,15.56545-16.65319C668.66368,163.41808,675.13369,170.582,676.44646,180.015Z"/>
          </g>
          <g>
            <circle class="cls-74" cx="688.31064" cy="199.52313" r="5.90538"/>
            <path class="cls-68" d="M707.21032,180.015H699.615c-1.03143-5.19467-4.257-9.09545-7.9515-9.09545-3.6944,0-6.92008,3.90078-7.9515,9.09545a18.55913,18.55913,0,0,0-.35633,3.582c0,5.6635,2.56257,10.5912,5.96363,12.17105a3.84861,3.84861,0,0,1,2.3442,3.4506,3.75271,3.75271,0,0,1-5.3635,3.37573c-6.09491-2.813-10.44576-10.25827-10.44576-18.99738a24.89879,24.89879,0,0,1,.24381-3.52569c1.353-9.4462,7.78278-16.65319,15.56545-16.65319C699.42754,163.41808,705.89755,170.582,707.21032,180.015Z"/>
          </g>
          <g>
            <circle class="cls-74" cx="719.0745" cy="199.52313" r="5.90538"/>
            <path class="cls-68" d="M737.97418,180.015h-7.59529c-1.03143-5.19467-4.257-9.09545-7.95151-9.09545-3.6944,0-6.92007,3.90078-7.9515,9.09545a18.55992,18.55992,0,0,0-.35632,3.582c0,5.6635,2.56257,10.5912,5.96363,12.17105a3.84862,3.84862,0,0,1,2.34419,3.4506,3.75271,3.75271,0,0,1-5.36349,3.37573c-6.09492-2.813-10.44576-10.25827-10.44576-18.99738a24.90028,24.90028,0,0,1,.2438-3.52569c1.353-9.4462,7.78279-16.65319,15.56545-16.65319C730.1914,163.41808,736.6614,170.582,737.97418,180.015Z"/>
          </g>
          <g>
            <circle class="cls-74" cx="749.83836" cy="199.52313" r="5.90538"/>
            <path class="cls-68" d="M768.738,180.015h-7.5953c-1.03142-5.19467-4.257-9.09545-7.9515-9.09545-3.6944,0-6.92008,3.90078-7.9515,9.09545a18.55992,18.55992,0,0,0-.35632,3.582c0,5.6635,2.56256,10.5912,5.96362,12.17105a3.84861,3.84861,0,0,1,2.3442,3.4506,3.75271,3.75271,0,0,1-5.3635,3.37573c-6.09491-2.813-10.44576-10.25827-10.44576-18.99738a24.89879,24.89879,0,0,1,.24381-3.52569c1.353-9.4462,7.78278-16.65319,15.56545-16.65319C760.95525,163.41808,767.42526,170.582,768.738,180.015Z"/>
          </g>
          <g>
            <circle class="cls-74" cx="780.60222" cy="199.52313" r="5.90538"/>
            <path class="cls-68" d="M799.50189,180.015H791.9066c-1.03143-5.19467-4.257-9.09545-7.9515-9.09545-3.6944,0-6.92008,3.90078-7.9515,9.09545a18.55913,18.55913,0,0,0-.35633,3.582c0,5.6635,2.56257,10.5912,5.96363,12.17105a3.84861,3.84861,0,0,1,2.3442,3.4506,3.75271,3.75271,0,0,1-5.3635,3.37573c-6.09491-2.813-10.44576-10.25827-10.44576-18.99738a24.89879,24.89879,0,0,1,.24381-3.52569c1.353-9.4462,7.78278-16.65319,15.56545-16.65319C791.71911,163.41808,798.18912,170.582,799.50189,180.015Z"/>
          </g>
          <g>
            <circle class="cls-74" cx="811.36607" cy="199.52313" r="5.90538"/>
            <path class="cls-68" d="M830.26575,180.015h-7.59529c-1.03143-5.19467-4.257-9.09545-7.9515-9.09545-3.69441,0-6.92008,3.90078-7.95151,9.09545a18.55992,18.55992,0,0,0-.35632,3.582c0,5.6635,2.56257,10.5912,5.96363,12.17105a3.84863,3.84863,0,0,1,2.3442,3.4506,3.75271,3.75271,0,0,1-5.3635,3.37573c-6.09492-2.813-10.44576-10.25827-10.44576-18.99738a24.90028,24.90028,0,0,1,.2438-3.52569c1.353-9.4462,7.78279-16.65319,15.56546-16.65319C822.483,163.41808,828.953,170.582,830.26575,180.015Z"/>
          </g>
          <g>
            <circle class="cls-74" cx="842.12993" cy="199.52313" r="5.90538"/>
            <path class="cls-68" d="M861.02961,180.015h-7.5953c-1.03142-5.19467-4.257-9.09545-7.9515-9.09545-3.6944,0-6.92007,3.90078-7.9515,9.09545a18.55992,18.55992,0,0,0-.35632,3.582c0,5.6635,2.56256,10.5912,5.96362,12.17105a3.84861,3.84861,0,0,1,2.3442,3.4506,3.75271,3.75271,0,0,1-5.3635,3.37573c-6.09491-2.813-10.44576-10.25827-10.44576-18.99738a24.89879,24.89879,0,0,1,.24381-3.52569c1.353-9.4462,7.78278-16.65319,15.56545-16.65319C853.24682,163.41808,859.71683,170.582,861.02961,180.015Z"/>
          </g>
          <g>
            <circle class="cls-74" cx="872.89379" cy="199.52313" r="5.90538"/>
            <path class="cls-68" d="M891.79346,180.015h-7.59529c-1.03142-5.19467-4.257-9.09545-7.9515-9.09545-3.6944,0-6.92008,3.90078-7.9515,9.09545a18.55913,18.55913,0,0,0-.35632,3.582c0,5.6635,2.56256,10.5912,5.96362,12.17105a3.84861,3.84861,0,0,1,2.3442,3.4506,3.75271,3.75271,0,0,1-5.3635,3.37573c-6.09491-2.813-10.44576-10.25827-10.44576-18.99738a24.89879,24.89879,0,0,1,.24381-3.52569c1.353-9.4462,7.78278-16.65319,15.56545-16.65319C884.01068,163.41808,890.48069,170.582,891.79346,180.015Z"/>
          </g>
          <g>
            <circle class="cls-74" cx="903.65764" cy="199.52313" r="5.90538"/>
            <path class="cls-68" d="M922.55732,180.015H914.962c-1.03143-5.19467-4.257-9.09545-7.9515-9.09545-3.69441,0-6.92008,3.90078-7.95151,9.09545a18.55992,18.55992,0,0,0-.35632,3.582c0,5.6635,2.56923,10.57693,5.96363,12.17105a3.83785,3.83785,0,0,1,2.3442,3.4506,3.75271,3.75271,0,0,1-5.3635,3.37573c-6.09492-2.813-10.44576-10.25827-10.44576-18.99738a24.19147,24.19147,0,0,1,.2438-3.52569c1.31278-9.45188,7.78279-16.65319,15.56546-16.65319C914.77454,163.41808,921.24455,170.582,922.55732,180.015Z"/>
          </g>
        </g>
      </g>
      <g>
        <g>
          <path class="cls-67" d="M674.66148,99.44019h12.46513a4.29434,4.29434,0,0,1,4.29434,4.29434v7.61359a0,0,0,0,1,0,0H670.36714a0,0,0,0,1,0,0v-7.61359A4.29434,4.29434,0,0,1,674.66148,99.44019Z" transform="translate(173.16601 -360.37067) rotate(33.73288)"/>
          <rect class="cls-75" x="668.42352" y="94.3032" width="32.15143" height="11.38385" rx="5.69192" transform="translate(170.7748 -363.28171) rotate(33.73288)"/>
        </g>
        <g>
          <path class="cls-67" d="M572.56129,99.44019H593.6151a0,0,0,0,1,0,0v7.61359a4.29434,4.29434,0,0,1-4.29434,4.29434H576.85563a4.29434,4.29434,0,0,1-4.29434-4.29434V99.44019A0,0,0,0,1,572.56129,99.44019Z" transform="translate(1126.53275 -130.75789) rotate(146.26712)"/>
          <rect class="cls-76" x="563.4073" y="94.3032" width="32.15143" height="11.38385" rx="5.69192" transform="translate(1116.93116 -138.64491) rotate(146.26712)"/>
        </g>
        <g>
          <path class="cls-77" d="M631.633,77.03537h0a14.39323,14.39323,0,0,1,14.39323,14.39323V104.423a0,0,0,0,1,0,0H617.23978a0,0,0,0,1,0,0V91.42859A14.39323,14.39323,0,0,1,631.633,77.03537Z"/>
          <circle class="cls-78" cx="631.63302" cy="176.55634" r="83.09582"/>
          <circle class="cls-3" cx="631.63302" cy="176.55634" r="65.76652"/>
          <path class="cls-79" d="M631.633,113.4747h-.0675l-.01917.00012h-.03735l-.05957.00012h-.00086l-.0299.00013h-.00025l-.03027.00012h-.00025q-.19866.00073-.39709.00268l-.00281.00013-.02344.00024-.01355.00012-.011.00012-.02014.00013-.0011.00012c-.089.001-.17566.00207-.26465.00342l.13379,8.7998q.42188-.0064.84509-.00647V113.4747Zm-6.833.36585q-.093.00989-.18591.02026-.37592.04157-.75049.08765l-.012.00146-.01.00122-.01221.00147,1.07764,8.73461q.41674-.05145.83545-.09655L624.8,113.84042Zm-6.75219,1.1007q-.29811.06537-.5951.13367l-.00537.00122-.02087.00476-.01026.00232-.01489.00354-.01391.00317-.00342.00074c-.09742.02246-.19275.0448-.28992.06775l2.02063,8.56567q.40869-.09649.81982-.18665l-1.88671-8.59619Zm-6.59278,1.82959q-.46344.15637-.9237.31971l2.94336,8.29406q.39533-.14044.7937-.27478l-2.81336-8.339Zm-6.35327,2.53784q-.35889.16663-.71521.33753l-.01038.005-.00927.0044-.14917.0719,3.82971,7.92383q.3783-.18292.76-.36011l-3.70569-7.98255Zm-6.03992,3.21436-.10107.06116-.01172.0072-.01.006-.01453.00891-.00439.00269c-.17273.105-.34717.21216-.51892.31872l-.0116.00721-.00793.00488-.15283.09534,4.66674,7.46154q.3567-.223.7168-.44067l-4.55054-7.533Zm-5.656,3.84973-.04712.03589-.007.00537-.01331.01013-.012.00916-.007.00537c-.20837.15955-.41784.322-.62426.48413l-.0116.00916-.006.00476-.04468.035,5.44544,6.91382q.33068-.26039.66552-.51587l-5.33813-6.99695Zm-5.20777,4.43738c-.23571.22388-.47143.45129-.70373.67883l6.15832,6.28711q.30085-.29462.60621-.58471l-6.0608-6.38123Zm-4.6997,4.97217-.08692.10278-.0011.00134-.01355.01612-.03637.04309-.00012.00012q-.24611.292-.48853.58728l6.79944,5.58752q.26751-.32536.53967-.64648l-6.71252-5.69177Zm-4.1366,5.4497q-.27447.40523-.542.814l7.36291,4.821q.23053-.35229.46643-.70068l-7.28735-4.93433Zm-3.52332,5.86487c-.05859.11072-.11792.22376-.1759.33484l-.00452.00879-.0061.0116q-.13311.25562-.264.51257l7.84217,3.99439q.191-.37482.38745-.74634l-7.77906-4.11585Zm-2.86547,6.21265c-.09241.23291-.18262.46448-.27234.69873l-.00073.00171-.00782.02051-.00158.00415-.02076.05456-.005.01306-.00476.01245-.0055.01429-.004.01062-.0066.01745-.00354.00928-.00915.02417-.00391.01038-.00586.01538-.00195.00525,8.23047,3.11657q.14886-.3933.30383-.78381l-8.18078-3.24475Zm-2.17139,6.48852c-.06885.25025-.13538.49842-.20117.74988l-.00305.01172-.00257.01013-.04492.17261,8.52149,2.19983q.10509-.407.2163-.81165l-8.48608-2.33252Zm-1.45044,6.68555q-.07727.48212-.14746.967l8.7102,1.25928q.06043-.41693.127-.83191l-8.6897-1.39441Zm-.71655,6.80469-.0011.02026-.00012.00208-.0011.02331-.00012.00257q-.02345.46306-.03992.9281l8.79517.314q.015-.4215.03649-.84167l-8.7893-.44861Zm8.80346,6.35217-8.78711.49085q.00935.16662.01954.333l.00048.00843.001.01562.001.01721.00036.00452c.01087.17578.0221.34741.03443.523l.00024.00208.00122.01879.00147.02015.00024.00305.00208.02978,8.77856-.62585q-.03-.41951-.05347-.84058Zm.64527,5.85462-8.68274,1.43689q.07361.44475.15332.887l.00037.00232.004.022.001.00549.00342.01941.00476.02613.00024.00122,8.6593-1.57178q-.07488-.41326-.14367-.82861Zm1.2749,5.74145-8.47449,2.37427q.07416.26423.15039.52771l.001.00317.0072.02527.0011.00366.01611.0553.0022.00769.00537.01843.00342.01148.00427.01465.00367.01257.00317.01074.0094.03211.002.00683.00513.01734.0022.00769.00512.01758.00232.00781.02588.08764.00037.001.02087.0708,8.4364-2.50635q-.11957-.40227-.233-.80737Zm1.89331,5.56677-8.16479,3.28479.05517.1366c.09473.23389.18933.4635.28674.696l.00586.01391.00269.00635.009.02161.00159.00378.011.02612,8.11255-3.41174q-.16279-.38727-.31983-.77747Zm2.49011,5.32972-7.75891,4.1538.07849.14624.00318.00586.00818.01526.0061.01111.00684.0127.01159.0216.006.01111.00733.01343.00549.01013.00879.01624.00439.00817.02649.04895.00318.00562.011.02026.00306.00574.01086.0199.00305.00561.01294.02381.00427.00781.00879.01611.00611.01111.00683.01257.00647.01185.00659.0122.01245.02271.00574.01037.0083.01526.00391.00708.009.0166.00281.00513q.0846.15417.16992.30774l7.69336-4.2738q-.204-.36732-.40259-.73828Zm3.05616,5.03161-7.26343,4.96973q.2763.40374.55847.80285l7.18567-5.08142q-.243-.34368-.48071-.69116Zm3.58459,4.67517-6.68494,5.72412c.04236.04944.08557.09986.12806.14917l.00048.00049.04078.04724.00683.00794.00879.01013.01013.01172.00684.008.0166.01905.001.00122.03906.045.00171.002q.10968.12652.22.25231l.00012.00013.03931.04492.003.00342.0155.01758.00464.00537.01355.01538.00635.0072.0155.01758.012.01355.00586.00671.0116.01318.00549.00611.02857.03247,6.59594-5.82654q-.27886-.31568-.55273-.6355Zm4.0686,4.26319-6.02978,6.4104.07934.07458.00611.00574.00952.00891.01306.01221.006.00561.0177.0166.00244.00232.02161.02014.001.00086.01989.01868.00391.00366.01892.01758.00183.00171.0437.04064.00135.00135.01831.01709.00549.005.01648.01538.00464.00415.01953.01819.00757.00708.0122.01135.00953.00879.00964.00891.01123.01038.0072.00671.02405.02222.00464.0044.01367.01257.0061.00561.01355.01258.00318.00293.02868.02636.004.00379.01123.01037.00916.00843.01086.01.01123.01025.00769.00708.01954.018.00524.00488.01734.016.00268.00244q.07819.0716.15638.14307l5.93042-6.50269q-.31128-.28382-.618-.57226Zm4.50354,3.7998-5.3042,7.02283q.09651.07287.19324.14538l.00391.00281.01623.01221q.27741.20765.55689.41223l.00708.00513.00744.00549,5.19507-7.10388q-.33984-.24848-.67566-.5022Zm4.88428,3.2898-4.51391,7.555q.41967.25086.84338.49512l4.39612-7.62427q-.36456-.21021-.72559-.4259Zm5.20813,2.73925-3.66675,8.00061q.13826.06336.27674.126l.00354.00159.02258.01025.00561.00256.02173.00977.00452.00208.02563.01159.00538.00232.02014.00916.00793.00354.01892.00854.007.00305.02344.01062.00342.00147.02526.01135.00428.00195.022.00977.00537.00244q.1941.087.38892.17249l3.5415-8.05677q-.38507-.16918-.76709-.34436Zm5.4718,2.15479-2.77246,8.35266c.08411.028.16553.05481.24988.0824l.0022.00073.019.00623.00793.00256.01587.00525.01551.005.00988.00318.02539.0083.00794.00256.021.00684.00476.00158.02526.00818.0022.00073.05738.01856.00024.00012.14416.04639.002.00061.02612.00842.00293.00086.028.009.00367.0011.02038.00647.01563.005.00854.00281c.07117.02258.14307.04541.21436.06787l2.64172-8.395q-.40117-.12615-.79944-.25842Zm5.67334,1.54455-1.8446,8.60535q.26074.05585.52246.10962l.00342.00073.022.00452.00171.00037c.13635.028.27209.05529.40869.08239l1.71021-8.633q-.4131-.08185-.82386-.16993Zm5.81348.91858-.9,8.75464c.32508.03345.64673.064.97315.09241l.76477-8.76746q-.41986-.03661-.83789-.07959Zm6.73694.27637q-.42114.00843-.84387.0105l.042,8.80066.047-.00025h.00464l.017-.00012.02039-.00012h.00378q.44329-.00274.885-.0116l-.1759-8.79907Zm5.879-.43372q-.41676.05366-.83533.10071l.98486,8.74549q.48615-.05475.97058-.117l-1.12011-8.72925Zm5.78637-1.06494q-.40831.09834-.819.19068l1.92871,8.58691q.47774-.1073.95288-.22192l-2.06262-8.55567Zm5.63208-1.68823q-.39495.14228-.79272.27869l2.85437,8.32507c.06286-.02148.12475-.04285.1875-.06457l.012-.00415.00952-.0033.01807-.00635.00842-.00293.02454-.00842h0q.20051-.06977.40014-.14075l.00855-.00305.01465-.00513c.07959-.02832.15954-.057.239-.08557l-2.984-8.27954Zm5.4159-2.29321q-.37738.18458-.75806.36365l3.74463,7.96435c.08667-.04065.171-.08057.25745-.1217l.0061-.00293.01514-.0072q.30249-.14393.603-.29114l-3.86828-7.905Zm5.13818-2.87061q-.35559.22467-.71472.44422l4.58716,7.51074c.07446-.04541.1466-.08972.22082-.1355l.00134-.00085.01954-.012V230.282q.28326-.17467.56433-.35217l.02453-.01563-4.703-7.43872Zm4.80078-3.41235q-.3294.262-.663.519l5.37195,6.97119q.38689-.29828.76989-.60278l-5.47888-6.88745Zm4.407-3.91187q-.29955.29609-.60339.58765l6.09155,6.35193c.06263-.06006.12122-.11646.1836-.17676l.01159-.01123.00489-.00476q.19518-.18878.38867-.37927l.00513-.005.00927-.00915.09741-.09607-6.18872-6.25733Zm3.96033-4.36364q-.26587.32665-.5365.649l6.74,5.65918q.10658-.12688.21253-.25451l.00708-.00843.00781-.00939q.16242-.19575.32336-.39271l.01392-.01721.00037-.00049.05786-.07092-6.82642-5.55456Zm3.46546-4.76319q-.22888.3534-.46314.70288l7.31128,4.89893.077-.11523.00048-.00074c.15479-.23193.30884-.46643.46058-.70068l-7.38623-4.78516Zm2.92761-5.1062q-.189.37573-.38367.74805l7.79895,4.078.06067-.11633.00964-.01856.001-.00171q.1474-.284.29224-.56958l.00036-.00061.01221-.024.00378-.00745.00769-.01526.00611-.012.00525-.0105.02807-.05566.00012-.00025.01917-.03808-7.86157-3.95606Zm2.35376-5.39026q-.147.394-.29993.78516l8.19653,3.20459c.119-.30444.23462-.60669.349-.91345l-8.2456-3.0763Zm1.7511-5.61316q-.10309.408-.21241.81324l8.49732,2.291c.03857-.14306.078-.29114.1156-.43457l.001-.004.00342-.01318.00428-.01611.00219-.00855q.04174-.15948.08252-.31921l.00305-.01221.00269-.01038.03247-.12793-8.5321-2.15808Zm1.12915-5.77307q-.05823.41712-.12268.83216l8.69628,1.352c.00916-.0586.01819-.11744.0271-.17615l.00135-.00867.00134-.00854c.03906-.257.0769-.51587.11291-.77393l-8.7163-1.21692Zm.49829-5.87231q-.013.42205-.03247.84241l8.79138.40625q.02269-.48744.03772-.97681l-8.79663-.27185Zm8.64306-6.56946-8.77539.66809q.03186.41913.0575.84009l8.78467-.53333c-.01978-.32458-.04212-.65161-.06678-.97485Zm-.88769-6.78442-8.65149,1.61389q.07708.41308.14783.82824l8.67553-1.47912c-.011-.06482-.02221-.13025-.03357-.19519l-.00073-.004-.00354-.02087-.00085-.005-.01-.057-.00269-.01538-.0022-.01208-.00268-.01587-.00208-.01148-.003-.01733-.00183-.01038-.00964-.05468-.00147-.00843-.00366-.02026-.00146-.00818-.00379-.02136-.00122-.00659-.00452-.02564-.00061-.00293-.00476-.02649-.00219-.01232-.00257-.01478-.00244-.01318-.00244-.01343-.00281-.0155-.00134-.00781-.0116-.06372-.00073-.00391c-.01685-.09289-.03406-.1864-.05139-.27917Zm-1.61963-6.64673-8.42407,2.54761q.12139.40155.23681.8059l8.46277-2.41577q-.03331-.117-.06714-.23388l-.00073-.00245-.0072-.02453-.00147-.00537-.00756-.026-.00306-.01062-.00439-.0149-.00537-.01855-.00171-.00562-.0061-.021-.00025-.00086c-.02893-.09912-.05786-.19726-.08728-.29614l-.00256-.00842-.00476-.01624-.00281-.00928-.00488-.01635-.00342-.01148-.004-.01379-.00769-.02539-.00195-.00659-.00635-.02112-.002-.00684-.00684-.02258-.00134-.0044-.03467-.11535Zm-2.33557-6.43115-8.09583,3.45153q.16481.38635.32373.776l8.14868-3.3247-.00061-.00147q-.17229-.42223-.35046-.84143l-.00232-.00525-.0061-.01452-.01709-.04016Zm-3.0221-6.13807-7.67248,4.31128q.206.3664.40637.73645l7.73853-4.19153c-.11451-.21142-.22962-.421-.34644-.631l-.001-.00171-.00866-.01562q-.058-.104-.11634-.20789Zm-3.67-5.774-7.16089,5.11621q.24464.34241.484.68872l7.23914-5.00489-.00379-.00561-.00537-.00769-.01233-.01782-.0116-.0166-.00561-.00818-.0105-.01514-.0061-.00879-.00928-.01343-.007-.01-.01037-.01489-.01172-.01684-.00733-.01063-.00976-.014-.00415-.006q-.22193-.3188-.44739-.6344Zm-4.27234-5.34412-6.56763,5.8584q.28034.31421.55579.63281l6.65723-5.75647q-.31989-.36987-.64539-.73474Zm-4.82288-4.85278-5.89892,6.53125q.31256.28216.62073.56933l5.99878-6.43957q-.06537-.06116-.13123-.12195l-.00476-.0044-.01245-.01159c-.17505-.162-.3523-.32422-.529-.48413l-.0431-.03894Zm-5.3175-4.3053-5.16052,7.129q.34111.24683.67822.4989l5.27-7.04846q-.16956-.12672-.34-.25244l-.01037-.00757-.0105-.00782-.0127-.00927-.00561-.00415c-.13525-.09949-.27258-.19983-.40857-.29822Zm-5.7511-3.70593-4.359,7.6455q.36567.20838.72754.42225l4.47717-7.57691c-.28-.1654-.563-.32959-.8457-.49084Zm-6.11926-3.06043-3.50208,8.074q.386.16736.7688.34057l3.62757-8.01831q-.26423-.11957-.52979-.23681l-.00061-.00025-.05432-.02392-.00635-.00281-.01782-.00781-.01221-.00538-.01123-.00488-.0155-.00683-.00244-.0011-.063-.02759-.00147-.00061c-.06042-.02649-.119-.052-.17956-.07825Zm-6.41577-2.37561-2.60047,8.40784q.40155.12414.80054.25439l2.73145-8.36621-.00061-.00012-.0553-.01807-.00733-.00232-.0188-.0061-.00964-.00317-.01587-.00525-.01245-.004-.00818-.00256-.06152-.0199-.00049-.00025c-.21509-.06945-.42773-.13684-.6438-.204l-.00391-.00122-.0144-.00451-.01611-.005-.00733-.00232-.05578-.01721Zm-6.63709-1.6615-1.668,8.64124q.41328.07983.82434.16577l1.80262-8.61414q-.28328-.05932-.56726-.116l-.00562-.00122-.0188-.00367-.0144-.00293-.00843-.00171c-.11462-.0227-.22973-.04528-.34448-.06738Zm-6.778-.92993-.72241,8.77112q.41985.0346.838.07556l.85754-8.75891q-.39423-.03864-.79-.07239h-.00049l-.01843-.00159-.16418-.01379Z"/>
        </g>
        <g>
          <text class="cls-80" transform="translate(606.78031 170.57468)">30</text>
          <text class="cls-80" transform="translate(595.86527 206.88718)">min</text>
        </g>
      </g>
    </g>
    <path class="cls-49" d="M394.526,447.78385s-4.12618,3.472-6.72085,4.01892a70.13246,70.13246,0,0,1-7.888.8057c-1.55658-.06618-1.77408-1.93673-.77336-2.35115l8.2747-4.02271Z"/>
    <g>
      <circle class="cls-66" cx="942.64224" cy="173.99535" r="51.44097"/>
      <g>
        <rect class="cls-3" x="925.17812" y="166.82764" width="11.16548" height="33.5616" transform="translate(142.78277 711.92498) rotate(-45)"/>
        <rect class="cls-3" x="946.9169" y="152.57814" width="11.16548" height="50.25593" transform="translate(1500.3614 976.88225) rotate(-135)"/>
      </g>
    </g>
  </g>
</svg>
