<svg id="Layer_1" data-name="Layer 1" xmlns="http://www.w3.org/2000/svg" xmlns:xlink="http://www.w3.org/1999/xlink" viewBox="0 0 1000 1000">
  <defs>
    <style>
      .cls-1 {
        fill: url(#linear-gradient);
      }

      .cls-2, .cls-6, .cls-95 {
        fill: #fff;
      }

      .cls-2, .cls-20, .cls-64 {
        opacity: 0.5;
      }

      .cls-3 {
        fill: #b8cbd8;
      }

      .cls-4 {
        fill: url(#linear-gradient-2);
      }

      .cls-5 {
        fill: url(#linear-gradient-3);
      }

      .cls-6 {
        opacity: 0.7;
      }

      .cls-7 {
        fill: url(#linear-gradient-4);
      }

      .cls-8 {
        fill: url(#linear-gradient-5);
      }

      .cls-9 {
        fill: url(#linear-gradient-6);
      }

      .cls-10 {
        fill: url(#linear-gradient-7);
      }

      .cls-11 {
        fill: url(#linear-gradient-8);
      }

      .cls-12 {
        fill: url(#linear-gradient-9);
      }

      .cls-13 {
        fill: url(#linear-gradient-10);
      }

      .cls-14 {
        fill: url(#linear-gradient-11);
      }

      .cls-15 {
        fill: url(#linear-gradient-12);
      }

      .cls-16 {
        fill: url(#linear-gradient-13);
      }

      .cls-17 {
        fill: url(#linear-gradient-14);
      }

      .cls-18 {
        fill: url(#linear-gradient-15);
      }

      .cls-19 {
        fill: url(#linear-gradient-16);
      }

      .cls-20 {
        fill: #dd7b19;
      }

      .cls-21 {
        fill: url(#linear-gradient-17);
      }

      .cls-22 {
        fill: none;
        stroke: #d8712b;
        stroke-linecap: round;
        stroke-width: 5.2874px;
      }

      .cls-22, .cls-96 {
        stroke-miterlimit: 10;
      }

      .cls-23 {
        fill: url(#linear-gradient-18);
      }

      .cls-24, .cls-66 {
        opacity: 0.2;
      }

      .cls-25 {
        fill: #2a3f5e;
      }

      .cls-26 {
        fill: #e58630;
      }

      .cls-27 {
        fill: #5e5e5e;
      }

      .cls-28 {
        fill: url(#linear-gradient-19);
      }

      .cls-29 {
        fill: #ffcb48;
      }

      .cls-30 {
        fill: url(#linear-gradient-20);
      }

      .cls-31 {
        fill: url(#linear-gradient-21);
      }

      .cls-32 {
        fill: url(#linear-gradient-22);
      }

      .cls-33 {
        fill: url(#linear-gradient-23);
      }

      .cls-34 {
        fill: url(#linear-gradient-24);
      }

      .cls-35 {
        fill: url(#linear-gradient-25);
      }

      .cls-36 {
        fill: url(#linear-gradient-26);
      }

      .cls-37 {
        fill: url(#linear-gradient-27);
      }

      .cls-38 {
        fill: url(#linear-gradient-28);
      }

      .cls-39 {
        fill: url(#linear-gradient-29);
      }

      .cls-40 {
        fill: url(#linear-gradient-30);
      }

      .cls-41 {
        fill: url(#linear-gradient-31);
      }

      .cls-42 {
        fill: url(#linear-gradient-32);
      }

      .cls-43 {
        fill: url(#linear-gradient-33);
      }

      .cls-44 {
        fill: url(#linear-gradient-34);
      }

      .cls-45 {
        fill: url(#linear-gradient-35);
      }

      .cls-46 {
        fill: url(#linear-gradient-36);
      }

      .cls-47 {
        fill: url(#linear-gradient-37);
      }

      .cls-48 {
        fill: url(#linear-gradient-38);
      }

      .cls-49 {
        fill: url(#linear-gradient-39);
      }

      .cls-50 {
        fill: url(#linear-gradient-40);
      }

      .cls-51 {
        fill: url(#linear-gradient-41);
      }

      .cls-52 {
        fill: url(#linear-gradient-42);
      }

      .cls-53 {
        fill: url(#linear-gradient-43);
      }

      .cls-54 {
        fill: url(#linear-gradient-44);
      }

      .cls-55 {
        fill: url(#linear-gradient-45);
      }

      .cls-56 {
        fill: url(#linear-gradient-46);
      }

      .cls-57 {
        fill: url(#linear-gradient-47);
      }

      .cls-58 {
        fill: url(#linear-gradient-48);
      }

      .cls-59 {
        fill: url(#linear-gradient-49);
      }

      .cls-60 {
        fill: url(#linear-gradient-50);
      }

      .cls-61 {
        fill: url(#linear-gradient-51);
      }

      .cls-62 {
        fill: url(#linear-gradient-52);
      }

      .cls-63 {
        fill: url(#linear-gradient-53);
      }

      .cls-64 {
        fill: #435a75;
      }

      .cls-65 {
        fill: url(#linear-gradient-54);
      }

      .cls-66 {
        fill: #39557c;
      }

      .cls-67 {
        fill: url(#linear-gradient-55);
      }

      .cls-68 {
        fill: #303d49;
      }

      .cls-69 {
        fill: #e5907c;
      }

      .cls-70 {
        fill: url(#linear-gradient-56);
      }

      .cls-71 {
        fill: #263449;
      }

      .cls-72 {
        fill: #ed8324;
      }

      .cls-73 {
        fill: #ffbea4;
      }

      .cls-74 {
        fill: url(#linear-gradient-57);
      }

      .cls-75 {
        fill: url(#linear-gradient-58);
      }

      .cls-76 {
        fill: url(#linear-gradient-59);
      }

      .cls-77 {
        fill: #ffbda3;
      }

      .cls-78 {
        fill: #27343d;
      }

      .cls-79 {
        fill: url(#linear-gradient-60);
      }

      .cls-80 {
        fill: #3b4f72;
      }

      .cls-81 {
        fill: #405260;
      }

      .cls-82 {
        fill: url(#linear-gradient-61);
      }

      .cls-83 {
        fill: #724133;
      }

      .cls-84 {
        fill: url(#linear-gradient-62);
      }

      .cls-85 {
        fill: url(#linear-gradient-63);
      }

      .cls-86 {
        fill: url(#linear-gradient-64);
      }

      .cls-87 {
        fill: url(#linear-gradient-65);
      }

      .cls-88 {
        fill: url(#linear-gradient-66);
      }

      .cls-89 {
        fill: url(#linear-gradient-67);
      }

      .cls-90 {
        fill: url(#linear-gradient-68);
      }

      .cls-91 {
        fill: #34a521;
      }

      .cls-92 {
        fill: #cfdfe8;
      }

      .cls-93 {
        opacity: 0.4;
        fill: url(#linear-gradient-69);
      }

      .cls-94 {
        fill: url(#linear-gradient-70);
      }

      .cls-96 {
        font-size: 52.67426px;
        fill: #333a3d;
        stroke: #333a3d;
        stroke-width: 1.94993px;
        font-family: AvenirLTStd-Black, Avenir LT Std;
        font-weight: 800;
      }

      .cls-97 {
        fill: url(#linear-gradient-71);
      }
    </style>
    <linearGradient id="linear-gradient" x1="516.22368" y1="402.62316" x2="937.51038" y2="402.62316" gradientUnits="userSpaceOnUse">
      <stop offset="0" stop-color="#e4edf2"/>
      <stop offset="1" stop-color="#c3d6e6"/>
    </linearGradient>
    <linearGradient id="linear-gradient-2" x1="94.95323" y1="728.95587" x2="937.51038" y2="728.95587" gradientUnits="userSpaceOnUse">
      <stop offset="0.00663" stop-color="#c4d5e6"/>
      <stop offset="1" stop-color="#dae9f2"/>
    </linearGradient>
    <linearGradient id="linear-gradient-3" x1="-881.53836" y1="584.92371" x2="-760.90729" y2="664.34912" gradientTransform="translate(1162.29787)" gradientUnits="userSpaceOnUse">
      <stop offset="0" stop-color="#fff"/>
      <stop offset="0.94545" stop-color="#fff" stop-opacity="0"/>
    </linearGradient>
    <linearGradient id="linear-gradient-4" x1="406.9347" y1="178.49786" x2="221.32955" y2="580.64236" gradientUnits="userSpaceOnUse">
      <stop offset="0" stop-color="#fff"/>
      <stop offset="0.98888" stop-color="#e6edf2"/>
    </linearGradient>
    <linearGradient id="linear-gradient-5" x1="130.68953" y1="475.30283" x2="229.3957" y2="475.30283" gradientUnits="userSpaceOnUse">
      <stop offset="0" stop-color="#62778c"/>
      <stop offset="1" stop-color="#435466"/>
    </linearGradient>
    <linearGradient id="linear-gradient-6" x1="253.20992" y1="404.56194" x2="351.93072" y2="404.56194" xlink:href="#linear-gradient-5"/>
    <linearGradient id="linear-gradient-7" x1="375.74495" y1="333.80054" x2="474.52214" y2="333.80054" xlink:href="#linear-gradient-5"/>
    <linearGradient id="linear-gradient-8" x1="130.68953" y1="407.96292" x2="486.40017" y2="407.96292" gradientUnits="userSpaceOnUse">
      <stop offset="0" stop-color="#849bb2"/>
      <stop offset="1" stop-color="#5b6f82"/>
    </linearGradient>
    <linearGradient id="linear-gradient-9" x1="502.88221" y1="302.61644" x2="120.5356" y2="509.87552" xlink:href="#linear-gradient-5"/>
    <linearGradient id="linear-gradient-10" x1="150.96961" y1="359.21147" x2="386.06947" y2="593.69265" gradientUnits="userSpaceOnUse">
      <stop offset="0" stop-color="#435466"/>
      <stop offset="1" stop-color="#62778c"/>
    </linearGradient>
    <linearGradient id="linear-gradient-11" x1="247.44812" y1="262.4784" x2="482.54798" y2="496.95957" xlink:href="#linear-gradient-10"/>
    <linearGradient id="linear-gradient-12" x1="343.93857" y1="165.73336" x2="579.03843" y2="400.21453" xlink:href="#linear-gradient-10"/>
    <linearGradient id="linear-gradient-13" x1="-71.91699" y1="147.371" x2="499.41685" y2="147.371" gradientUnits="userSpaceOnUse">
      <stop offset="0" stop-color="#5b6f82"/>
      <stop offset="1" stop-color="#849bb2"/>
    </linearGradient>
    <linearGradient id="linear-gradient-14" x1="-71.91699" y1="255.7235" x2="499.41685" y2="255.7235" xlink:href="#linear-gradient-13"/>
    <linearGradient id="linear-gradient-15" x1="-71.91699" y1="364.1482" x2="499.41685" y2="364.1482" xlink:href="#linear-gradient-13"/>
    <linearGradient id="linear-gradient-16" x1="163.80863" y1="359.66428" x2="139.67996" y2="655.7045" gradientUnits="userSpaceOnUse">
      <stop offset="0.00005" stop-color="#ffcb48"/>
      <stop offset="1" stop-color="#e68e2b"/>
    </linearGradient>
    <linearGradient id="linear-gradient-17" x1="440.98659" y1="193.71823" x2="520.17812" y2="486.97437" xlink:href="#linear-gradient-16"/>
    <linearGradient id="linear-gradient-18" x1="-4538.44678" y1="779.17211" x2="-3844.74753" y2="722.86146" gradientTransform="matrix(-1, 0, 0, 1, -3879.00743, 0)" gradientUnits="userSpaceOnUse">
      <stop offset="0.00005" stop-color="#ffb348"/>
      <stop offset="1" stop-color="#e68e2b"/>
    </linearGradient>
    <linearGradient id="linear-gradient-19" x1="498.29625" y1="286.27363" x2="560.46092" y2="286.27363" gradientUnits="userSpaceOnUse">
      <stop offset="0.00844" stop-color="#ffc63f"/>
      <stop offset="1" stop-color="#e68a23"/>
    </linearGradient>
    <linearGradient id="linear-gradient-20" x1="653.76033" y1="278.00386" x2="696.05907" y2="278.00386" xlink:href="#linear-gradient-10"/>
    <linearGradient id="linear-gradient-21" x1="666.98758" y1="242.94912" x2="692.45933" y2="312.45677" xlink:href="#linear-gradient-4"/>
    <linearGradient id="linear-gradient-22" x1="645.18652" y1="250.87825" x2="795.85837" y2="388.38251" xlink:href="#linear-gradient-8"/>
    <linearGradient id="linear-gradient-23" x1="645.50545" y1="239.79897" x2="792.00396" y2="371.33103" xlink:href="#linear-gradient-5"/>
    <linearGradient id="linear-gradient-24" x1="658.08959" y1="225.78294" x2="804.5881" y2="357.315" xlink:href="#linear-gradient-5"/>
    <linearGradient id="linear-gradient-25" x1="709.56257" y1="336.50079" x2="751.86131" y2="336.50079" xlink:href="#linear-gradient-10"/>
    <linearGradient id="linear-gradient-26" x1="719.61537" y1="300.43073" x2="750.96023" y2="370.67069" xlink:href="#linear-gradient-4"/>
    <linearGradient id="linear-gradient-27" x1="641.41659" y1="255.00919" x2="792.08845" y2="392.51344" xlink:href="#linear-gradient-8"/>
    <linearGradient id="linear-gradient-28" x1="641.33195" y1="244.44735" x2="787.83047" y2="375.97942" xlink:href="#linear-gradient-5"/>
    <linearGradient id="linear-gradient-29" x1="653.91609" y1="230.43132" x2="800.4146" y2="361.96339" xlink:href="#linear-gradient-5"/>
    <linearGradient id="linear-gradient-30" x1="765.36481" y1="326.81795" x2="807.66355" y2="326.81795" xlink:href="#linear-gradient-10"/>
    <linearGradient id="linear-gradient-31" x1="775.4176" y1="290.74789" x2="806.76247" y2="360.98785" xlink:href="#linear-gradient-4"/>
    <linearGradient id="linear-gradient-32" x1="671.59451" y1="221.9414" x2="822.26636" y2="359.44565" xlink:href="#linear-gradient-8"/>
    <linearGradient id="linear-gradient-33" x1="671.05135" y1="211.34632" x2="817.54986" y2="342.87838" xlink:href="#linear-gradient-5"/>
    <linearGradient id="linear-gradient-34" x1="683.63548" y1="197.33029" x2="830.134" y2="328.86235" xlink:href="#linear-gradient-5"/>
    <linearGradient id="linear-gradient-35" x1="432.40569" y1="471.73709" x2="479.54029" y2="595.88625" xlink:href="#linear-gradient-8"/>
    <linearGradient id="linear-gradient-36" x1="451.41633" y1="511.68045" x2="460.25406" y2="622.78343" gradientUnits="userSpaceOnUse">
      <stop offset="0" stop-color="#62788c"/>
      <stop offset="1" stop-color="#526575"/>
    </linearGradient>
    <linearGradient id="linear-gradient-37" x1="366.02066" y1="510.92601" x2="400.95077" y2="656.53825" xlink:href="#linear-gradient-36"/>
    <linearGradient id="linear-gradient-38" x1="420.16672" y1="595.72152" x2="806.92294" y2="726.6042" xlink:href="#linear-gradient-36"/>
    <linearGradient id="linear-gradient-39" x1="405.19712" y1="524.38904" x2="853.81749" y2="679.25986" xlink:href="#linear-gradient-8"/>
    <linearGradient id="linear-gradient-40" x1="454.3266" y1="502.23288" x2="720.30041" y2="763.99824" xlink:href="#linear-gradient-5"/>
    <linearGradient id="linear-gradient-41" x1="577.62635" y1="398.39219" x2="614.66068" y2="611.33957" xlink:href="#linear-gradient-36"/>
    <linearGradient id="linear-gradient-42" x1="529.97614" y1="425.36712" x2="795.94994" y2="687.13247" xlink:href="#linear-gradient-5"/>
    <linearGradient id="linear-gradient-43" x1="489.423" y1="394.73154" x2="740.2464" y2="759.18298" xlink:href="#linear-gradient-8"/>
    <linearGradient id="linear-gradient-44" x1="479.58911" y1="476.56422" x2="745.56292" y2="738.32958" xlink:href="#linear-gradient-5"/>
    <linearGradient id="linear-gradient-45" x1="716.98654" y1="471.74176" x2="767.90874" y2="664.90944" xlink:href="#linear-gradient-36"/>
    <linearGradient id="linear-gradient-46" x1="563.45603" y1="391.34896" x2="829.42984" y2="653.11432" xlink:href="#linear-gradient-5"/>
    <linearGradient id="linear-gradient-47" x1="549.52479" y1="353.36818" x2="800.34819" y2="717.81962" xlink:href="#linear-gradient-8"/>
    <linearGradient id="linear-gradient-48" x1="509.77365" y1="445.8944" x2="775.74746" y2="707.65976" xlink:href="#linear-gradient-5"/>
    <linearGradient id="linear-gradient-49" x1="404.93913" y1="587.07332" x2="661.40895" y2="779.92791" gradientUnits="userSpaceOnUse">
      <stop offset="0" stop-color="#3e4c59"/>
      <stop offset="1" stop-color="#293440"/>
    </linearGradient>
    <linearGradient id="linear-gradient-50" x1="194.63483" y1="439.46029" x2="688.70642" y2="771.08585" xlink:href="#linear-gradient-5"/>
    <linearGradient id="linear-gradient-51" x1="735.97299" y1="658.72171" x2="785.84308" y2="764.77456" xlink:href="#linear-gradient-8"/>
    <linearGradient id="linear-gradient-52" x1="752.07757" y1="693.65427" x2="789.32232" y2="755.51843" xlink:href="#linear-gradient-5"/>
    <linearGradient id="linear-gradient-53" x1="685.84014" y1="683.33928" x2="692.1528" y2="813.06463" xlink:href="#linear-gradient-36"/>
    <linearGradient id="linear-gradient-54" x1="355.17251" y1="435.80288" x2="564.72641" y2="525.13901" xlink:href="#linear-gradient-4"/>
    <linearGradient id="linear-gradient-55" x1="540.91551" y1="451.73169" x2="528.37081" y2="653.1848" xlink:href="#linear-gradient-16"/>
    <linearGradient id="linear-gradient-56" x1="547.39712" y1="456.1982" x2="538.02234" y2="606.74614" xlink:href="#linear-gradient-16"/>
    <linearGradient id="linear-gradient-57" x1="516.51862" y1="417.97374" x2="487.96511" y2="447.64699" gradientUnits="userSpaceOnUse">
      <stop offset="0.00634" stop-color="#adc0cc"/>
      <stop offset="1" stop-color="#7b90a6"/>
    </linearGradient>
    <linearGradient id="linear-gradient-58" x1="971.20835" y1="569.01063" x2="1014.60655" y2="614.11072" gradientTransform="matrix(-1, 0, 0, 1, 1503.45876, -136.07872)" xlink:href="#linear-gradient-57"/>
    <linearGradient id="linear-gradient-59" x1="-2916.21719" y1="2056.19308" x2="-2873.87171" y2="2100.19916" gradientTransform="matrix(-0.86768, 0.49713, 0.49713, 0.86768, -3068.77092, 82.20905)" xlink:href="#linear-gradient-57"/>
    <linearGradient id="linear-gradient-60" x1="107.61107" y1="225.88359" x2="98.26666" y2="375.94391" gradientTransform="translate(422.58933 216.7471) rotate(7.63012)" xlink:href="#linear-gradient-16"/>
    <linearGradient id="linear-gradient-61" x1="3564.36489" y1="687.76906" x2="3514.94752" y2="740.20252" gradientTransform="matrix(-1, 0, 0, 1, 3700.21293, 0)" xlink:href="#linear-gradient-16"/>
    <linearGradient id="linear-gradient-62" x1="3500.78267" y1="631.39519" x2="3531.40752" y2="648.09965" gradientTransform="matrix(-1, 0, 0, 1, 3700.21293, 0)" gradientUnits="userSpaceOnUse">
      <stop offset="0" stop-color="#f2883c"/>
      <stop offset="0.16716" stop-color="#e97d35"/>
      <stop offset="0.67368" stop-color="#d26124"/>
      <stop offset="0.96784" stop-color="#c9571e"/>
    </linearGradient>
    <linearGradient id="linear-gradient-63" x1="3517.50529" y1="593.31354" x2="3538.54054" y2="633.68266" xlink:href="#linear-gradient-62"/>
    <linearGradient id="linear-gradient-64" x1="3567.90664" y1="657.7001" x2="3542.38593" y2="673.94055" xlink:href="#linear-gradient-62"/>
    <linearGradient id="linear-gradient-65" x1="3500.16308" y1="650.80381" x2="3534.03602" y2="664.87887" xlink:href="#linear-gradient-62"/>
    <linearGradient id="linear-gradient-66" x1="3512.56425" y1="608.69385" x2="3529.57806" y2="639.47337" xlink:href="#linear-gradient-62"/>
    <linearGradient id="linear-gradient-67" x1="3590.36051" y1="615.67233" x2="3547.51665" y2="654.1854" xlink:href="#linear-gradient-62"/>
    <linearGradient id="linear-gradient-68" x1="3566.49355" y1="595.02722" x2="3546.23166" y2="630.44687" xlink:href="#linear-gradient-62"/>
    <linearGradient id="linear-gradient-69" x1="26.42364" y1="333.27447" x2="357.88698" y2="333.27447" xlink:href="#linear-gradient-8"/>
    <linearGradient id="linear-gradient-70" x1="176.04364" y1="155.3374" x2="252.9579" y2="361.86643" xlink:href="#linear-gradient-8"/>
    <linearGradient id="linear-gradient-71" x1="110.44509" y1="293.79584" x2="344.78921" y2="293.79584" xlink:href="#linear-gradient-8"/>
  </defs>
  <g>
    <g>
      <g>
        <g>
          <g>
            <g>
              <polygon class="cls-1" points="516.224 76.29 937.51 319.511 937.51 728.956 516.224 485.713 516.224 76.29"/>
              <polygon class="cls-2" points="516.224 443.905 517.51 473.002 680.699 559.13 516.224 180.804 516.224 443.905"/>
              <polygon class="cls-3" points="516.24 76.29 94.953 319.511 94.953 728.956 516.24 485.713 516.24 76.29"/>
            </g>
            <path class="cls-4" d="M102.223,741.55987,494.4336,967.99278a43.61723,43.61723,0,0,0,43.61687-.00064L930.241,741.55565a14.53908,14.53908,0,0,0,.00017-25.18217L538.03348,489.9199a43.61721,43.61721,0,0,0-43.61994.00055L102.22215,716.37768A14.53907,14.53907,0,0,0,102.223,741.55987Z"/>
            <polygon class="cls-5" points="153.921 685.273 293.369 811.509 644.89 606.391 455.401 511.279 153.921 685.273"/>
          </g>
          <g>
            <g>
              <g>
                <g>
                  <path class="cls-6" d="M118.78883,690.19911l375.9368-217.037a7.14111,7.14111,0,0,0,3.57068-6.18446V125.72583L118.78883,344.84541Z"/>
                  <path class="cls-7" d="M486.40017,464.22359,130.68953,669.59l-11.878-6.85548V344.86388L474.52214,139.48552l11.878,6.85548Z"/>
                  <polygon class="cls-8" points="229.396 294.727 229.396 598.895 130.69 655.879 130.691 648.999 223.444 595.463 223.444 298.163 229.396 294.727"/>
                  <polygon class="cls-9" points="351.931 223.977 351.912 528.16 253.21 585.146 253.21 578.267 345.961 524.732 345.961 227.404 351.931 223.977"/>
                  <polygon class="cls-10" points="474.522 153.196 474.482 457.403 375.745 514.405 375.745 507.526 468.496 453.991 468.496 156.675 474.522 153.196"/>
                  <polygon class="cls-11" points="486.4 146.341 486.394 464.229 130.691 669.585 130.69 655.879 474.522 457.38 474.522 153.196 486.4 146.341"/>
                  <path class="cls-12" d="M118.78873,344.8454V690.199L494.72556,473.16213a7.14112,7.14112,0,0,0,3.57069-6.18446V125.7258ZM363.8431,217.09946V534.9806L253.20992,598.85171v-317.875ZM130.69059,351.71679l110.61748-63.86814V605.723L130.69059,669.58485Zm355.7038,112.51215L375.745,528.10936V210.22757l110.64944-63.88666Z"/>
                </g>
                <polygon class="cls-13" points="241.308 605.723 229.396 598.895 229.396 294.727 241.308 287.849 241.308 605.723"/>
                <polygon class="cls-14" points="363.843 534.981 351.931 528.154 351.931 223.977 363.843 217.099 363.843 534.981"/>
              </g>
              <polygon class="cls-15" points="486.394 464.226 474.482 457.403 474.522 153.196 486.394 146.344 486.394 464.226"/>
            </g>
            <g>
              <circle class="cls-16" cx="504.30217" cy="147.371" r="8.34757"/>
              <path class="cls-17" d="M503.26194,153.27018,135.91,365.40516l-4.06721-7.04461L499.20839,146.21767l.00186.00322a2.04854,2.04854,0,0,1,2.021.21531,6.35853,6.35853,0,0,1,2.88545,4.97706A1.99562,1.99562,0,0,1,503.26194,153.27018Z"/>
              <path class="cls-3" d="M495.23109,157.88477a9.92369,9.92369,0,0,0-1.30421-3.87733,9.58173,9.58173,0,0,0-2.81968-3.13724,6.366,6.366,0,0,0-3.5955-1.19836,5.16373,5.16373,0,0,0-2.52064.65189,5.70071,5.70071,0,0,0-2.60841,5.58731l4.37088-2.52042a1.3919,1.3919,0,0,1,.75817-.19385c1.0925,0,2.44964.98687,3.36615,2.57313.96945,1.67426,1.11058,3.45437.44062,4.37088a1.39076,1.39076,0,0,1-.44062.40533,1.21941,1.21941,0,0,1-.54646.15878l-3.895,2.256a6.22184,6.22184,0,0,0,3.6837,1.30421,4.94478,4.94478,0,0,0,2.52021-.67,5.48959,5.48959,0,0,0,2.62606-4.95242C495.26638,158.396,495.24873,158.13176,495.23109,157.88477Z"/>
              <path class="cls-3" d="M473.16564,170.63827a9.92383,9.92383,0,0,0-1.3042-3.87733,9.58164,9.58164,0,0,0-2.81969-3.13724,6.36588,6.36588,0,0,0-3.5955-1.19836,5.16359,5.16359,0,0,0-2.52063.65189,5.70071,5.70071,0,0,0-2.60842,5.58731l4.37088-2.52042a1.39192,1.39192,0,0,1,.75817-.19385c1.09251,0,2.44964.98687,3.36616,2.57313.96944,1.67426,1.11057,3.45436.44061,4.37088a1.39073,1.39073,0,0,1-.44061.40533,1.21949,1.21949,0,0,1-.54647.15878l-3.895,2.256a6.22184,6.22184,0,0,0,3.68371,1.30421,4.94468,4.94468,0,0,0,2.5202-.67,5.48956,5.48956,0,0,0,2.62606-4.95241C473.20093,171.14946,473.18329,170.88526,473.16564,170.63827Z"/>
              <path class="cls-3" d="M443.35373,187.86919a9.92368,9.92368,0,0,0-1.30421-3.87734,9.58173,9.58173,0,0,0-2.81968-3.13724,6.366,6.366,0,0,0-3.5955-1.19836,5.1637,5.1637,0,0,0-2.52064.65189,5.70071,5.70071,0,0,0-2.60841,5.58731l4.37088-2.52042a1.3919,1.3919,0,0,1,.75817-.19385c1.0925,0,2.44964.98687,3.36615,2.57313.96945,1.67426,1.11058,3.45437.44062,4.37088a1.39076,1.39076,0,0,1-.44062.40533,1.21945,1.21945,0,0,1-.54646.15878l-3.895,2.256a6.22184,6.22184,0,0,0,3.6837,1.30421,4.94478,4.94478,0,0,0,2.52021-.67,5.4896,5.4896,0,0,0,2.626-4.95242C443.389,188.38037,443.37137,188.11617,443.35373,187.86919Z"/>
              <path class="cls-3" d="M141.88707,361.953a9.92384,9.92384,0,0,0-1.30421-3.87734,9.58164,9.58164,0,0,0-2.81969-3.13724,6.3659,6.3659,0,0,0-3.59549-1.19836,5.1637,5.1637,0,0,0-2.52064.65189,5.7007,5.7007,0,0,0-2.60841,5.58731l4.37088-2.52042a1.3919,1.3919,0,0,1,.75817-.19385c1.0925,0,2.44963.98687,3.36615,2.57313.96944,1.67426,1.11058,3.45437.44062,4.37088a1.391,1.391,0,0,1-.44062.40534,1.21948,1.21948,0,0,1-.54647.15877l-3.895,2.256a6.22187,6.22187,0,0,0,3.68371,1.30421,4.94474,4.94474,0,0,0,2.5202-.67,5.48959,5.48959,0,0,0,2.62606-4.95242C141.92235,362.46417,141.90471,362.2,141.88707,361.953Z"/>
              <circle class="cls-18" cx="128.8748" cy="364.1482" r="8.34757"/>
            </g>
            <path class="cls-19" d="M136.99686,370.46631a20.20362,20.20362,0,0,0,11.58727,1.46247c11.31427-2.02786,13.27451-14.983,13.27451-14.983s6.4443,3.95937,11.40471,1.89981c9.07879-3.7695,10.43062-15.6009,10.43062-15.6009-6.87817,60.9903-19.83225,122.669-37.34928,184.86459,8.9803,41.4658,14.43514,89.00633,17.99965,139.804,1.2,13.42475-11.981,19.29339-21.37457,15.97471,1.18121,9.39356-15.97471,11.64351-15.97471,5.39992V535.27846Z"/>
            <path class="cls-20" d="M137.27813,534.866l36.83363-176.43909c-.28184.14071-.54991.29475-.84853.41868-4.96037,2.05979-11.40436-1.89961-11.40436-1.89961s-.01162.35025-.09294.91845Z"/>
            <circle class="cls-3" cx="138.86122" cy="368.90356" r="2.81244"/>
            <path class="cls-3" d="M164.42473,348.9282a9.92368,9.92368,0,0,0-1.30421-3.87734,9.58173,9.58173,0,0,0-2.81968-3.13724,6.366,6.366,0,0,0-3.5955-1.19836,5.1637,5.1637,0,0,0-2.52064.65189,5.70072,5.70072,0,0,0-2.60841,5.58731l4.37088-2.52042a1.3919,1.3919,0,0,1,.75817-.19385c1.0925,0,2.44964.98687,3.36615,2.57313.96945,1.67426,1.11058,3.45437.44062,4.37088a1.3909,1.3909,0,0,1-.44062.40534,1.21944,1.21944,0,0,1-.54646.15877l-3.895,2.256a6.22184,6.22184,0,0,0,3.6837,1.30421,4.94478,4.94478,0,0,0,2.52021-.67,5.4896,5.4896,0,0,0,2.62605-4.95242C164.46,349.43938,164.44237,349.17518,164.42473,348.9282Z"/>
            <circle class="cls-3" cx="161.39888" cy="355.87877" r="2.81244"/>
            <path class="cls-3" d="M186.13345,336.39043a9.92368,9.92368,0,0,0-1.30421-3.87734,9.58172,9.58172,0,0,0-2.81968-3.13724,6.36594,6.36594,0,0,0-3.5955-1.19835,5.16369,5.16369,0,0,0-2.52063.65188,5.7007,5.7007,0,0,0-2.60842,5.58731l4.37088-2.52042a1.3919,1.3919,0,0,1,.75817-.19384c1.09251,0,2.44964.98686,3.36615,2.57313.96945,1.67425,1.11058,3.45436.44062,4.37088a1.391,1.391,0,0,1-.44062.40533,1.21941,1.21941,0,0,1-.54646.15878l-3.895,2.256a6.22184,6.22184,0,0,0,3.6837,1.30421,4.94468,4.94468,0,0,0,2.52021-.67,5.48959,5.48959,0,0,0,2.62606-4.95242C186.16874,336.90161,186.15109,336.63742,186.13345,336.39043Z"/>
            <circle class="cls-3" cx="182.9382" cy="342.86454" r="2.81244"/>
            <path class="cls-21" d="M495.9546,470.34832V319.765l-5.74-153.74179c.613,16.4199-13.03387,18.71863-20.51493,14.78118.225,15.6372-18.79492,19.11261-29.37183,15.10023,8.01823,46.25471,17.50555,94.15244,34.91581,131.77328-7.96907,63.318-10.70119,107.29-10.70119,162.75146,0,7.46231,19.68712,4.01238,19.68712-10.34984C491.14824,483.792,495.95553,477.43585,495.9546,470.34832Z"/>
            <circle class="cls-3" cx="490.57902" cy="165.91071" r="2.81244"/>
            <circle class="cls-3" cx="440.32788" cy="194.81976" r="2.81244"/>
            <path class="cls-20" d="M492.38985,479.515l-5.36151-146.99514-2.79871,147.55967C487.53124,481.85117,490.343,481.3145,492.38985,479.515Z"/>
            <path class="cls-20" d="M481.14924,181.79577a15.30717,15.30717,0,0,1-11.44955-.99136l17.32865,149.649Z"/>
            <circle class="cls-3" cx="469.56068" cy="178.73546" r="2.81244"/>
            <path class="cls-20" d="M136.59487,538.39088l6.37493,145.49719,3.19974.7416a17.589,17.589,0,0,0,7.75124-.72493Z"/>
            <path class="cls-22" d="M125.82128,534.538c6.46118,4.80916,19.28593,2.053,22.91374-6.04195"/>
            <path class="cls-22" d="M473.18826,328.50753c6.46117,4.80916,21.52457,2.625,25.108-6.33738"/>
          </g>
          <g>
            <path class="cls-23" d="M656.16716,801.69969l-274.285-158.38221a28.04175,28.04175,0,0,0-28.042-.00169L244.455,706.46119a9.34725,9.34725,0,0,0-.0023,16.18911L518.69857,881.06966a28.04175,28.04175,0,0,0,28.04888.00229L656.16716,817.889A9.34725,9.34725,0,0,0,656.16716,801.69969Z"/>
            <g class="cls-24">
              <path class="cls-25" d="M850.48057,720.74062,542.81492,543.0832a31.45449,31.45449,0,0,0-31.4547-.0019L388.66275,613.91153a10.48482,10.48482,0,0,0-.00258,18.15935L696.282,809.77a31.45448,31.45448,0,0,0,31.46244.00257l122.73616-70.87236A10.48482,10.48482,0,0,0,850.48057,720.74062Z"/>
            </g>
            <path class="cls-26" d="M599.79362,791.70874,399.18765,675.8715a15.77591,15.77591,0,0,0-15.776-.00095L300.82807,723.544a5.25864,5.25864,0,0,0-.00129,9.10778L501.405,848.51665a15.77593,15.77593,0,0,0,15.77992.00128l82.60873-47.7013A5.25864,5.25864,0,0,0,599.79362,791.70874Z"/>
          </g>
          <g>
            <g>
              <path class="cls-27" d="M552.00329,473.05006c-2.42459-5.91582-11.62148-10.32329-22.6248-10.32329s-20.20022,4.40747-22.62472,10.32329h-.64559v3.09078c0,7.4084,10.41843,13.41407,23.27031,13.41407s23.27039-6.00567,23.27039-13.41407v-3.09078Z"/>
              <ellipse class="cls-27" cx="529.37853" cy="472.59481" rx="23.27036" ry="13.41411"/>
            </g>
            <path class="cls-27" d="M526.3294,305.83135V469.812c0,.97073,1.36514,1.75766,3.04913,1.75766s3.04913-.78693,3.04913-1.75766V305.83135Z"/>
            <g>
              <path class="cls-28" d="M560.36864,293.36468h.00163l-.005-.02539a10.70268,10.70268,0,0,0-.28759-1.46535l-6.25589-31.8651h-48.8911L498.673,291.89476a10.69555,10.69555,0,0,0-.27637,1.40873l-.01211.06119h.00384a10.45643,10.45643,0,0,0-.09212,1.31034c0,9.86571,13.91607,17.86339,31.08218,17.86339,17.16641,0,31.08249-7.99768,31.08249-17.86339A10.42823,10.42823,0,0,0,560.36864,293.36468Z"/>
              <ellipse class="cls-26" cx="529.37853" cy="261.21361" rx="24.53725" ry="14.10187"/>
              <path class="cls-27" d="M520.23522,274.293a41.393,41.393,0,0,0,18.28651,0v-7.19521H520.23522Z"/>
              <ellipse class="cls-27" cx="529.37853" cy="267.09784" rx="9.1433" ry="5.27062"/>
              <path class="cls-29" d="M529.37852,248.32114c12.863,0,23.32773,5.78351,23.32773,12.89243s-10.46471,12.89254-23.32773,12.89254-23.32773-5.78361-23.32773-12.89254,10.46472-12.89243,23.32773-12.89243m0-1.20942c-13.55149,0-24.53724,6.31364-24.53724,14.10185,0,7.78832,10.98575,14.10195,24.53724,14.10195s24.53725-6.31363,24.53725-14.10195c0-7.78821-10.98576-14.10185-24.53725-14.10185Z"/>
            </g>
          </g>
          <g>
            <g>
              <polygon class="cls-30" points="696.059 258.161 653.76 233.701 653.76 297.846 696.059 322.307 696.059 258.161"/>
              <polygon class="cls-31" points="696.059 261.504 662.912 242.336 662.912 292.603 696.059 311.772 696.059 261.504"/>
              <path class="cls-32" d="M657.55347,240.27582l34.71246,20.07379v55.3823L657.55347,295.6581V240.27582m-3.79314-6.57525V297.8463l42.29874,24.46086V258.16141l-42.29874-24.46084Z"/>
              <polygon class="cls-33" points="702.908 318.364 702.908 254.218 696.059 258.161 696.059 322.307 702.908 318.364"/>
              <polygon class="cls-34" points="702.908 254.218 660.595 229.766 653.76 233.701 696.059 258.161 702.908 254.218"/>
            </g>
            <g>
              <polygon class="cls-35" points="751.861 316.658 709.563 292.198 709.563 356.343 751.861 380.804 751.861 316.658"/>
              <polygon class="cls-36" points="751.861 320.001 718.714 300.833 718.714 351.1 751.861 370.269 751.861 320.001"/>
              <path class="cls-37" d="M713.35571,298.77275l34.71246,20.07379v55.3823L713.35571,354.155V298.77275m-3.79314-6.57525v64.14573l42.29874,24.46086V316.65834L709.56257,292.1975Z"/>
              <polygon class="cls-38" points="758.711 376.861 758.711 312.715 751.861 316.658 751.861 380.804 758.711 376.861"/>
              <polygon class="cls-39" points="758.711 312.715 716.397 288.263 709.563 292.198 751.861 316.658 758.711 312.715"/>
            </g>
            <g>
              <polygon class="cls-40" points="807.664 306.976 765.365 282.515 765.365 346.66 807.664 371.121 807.664 306.976"/>
              <polygon class="cls-41" points="807.664 310.319 774.517 291.15 774.517 341.417 807.664 360.586 807.664 310.319"/>
              <path class="cls-42" d="M769.158,289.08991,803.8704,309.1637V364.546L769.158,344.47219V289.08991m-3.79314-6.57525v64.14573l42.29873,24.46086V306.9755l-42.29873-24.46084Z"/>
              <polygon class="cls-43" points="814.513 367.178 814.513 303.032 807.664 306.976 807.664 371.121 814.513 367.178"/>
              <polygon class="cls-44" points="814.513 303.032 772.2 278.58 765.365 282.515 807.664 306.976 814.513 303.032"/>
            </g>
          </g>
          <g>
            <g>
              <g>
                <path class="cls-45" d="M364.49971,511.12512l3.87691,15.03171,27.99186,108.46848a.57666.57666,0,0,0,.15394.01393c.16794.014.33589.014.48991.014a15.90326,15.90326,0,0,0,7.97761-2.14134l2.70121-1.55352.79777-.46189,113.91293-65.83693,1.21764-.6998a8.37611,8.37611,0,0,0,4.19878-7.26389V472.06251c.028-8.70543-3.93286-19.72031-10.44091-27.642-4.12882-5.0385-9.27931-8.81742-15.08766-9.97911a10.47588,10.47588,0,0,0-6.96995,1.09173h-.014c-.112.05595-.196.13992-.308.20988v-.02793l-130.48407,75.41Z"/>
                <path class="cls-46" d="M520.88894,467.22318v.03143c.12609-.07876.22065-.17332.34665-.23628h.01581a11.30712,11.30712,0,0,1,5.93562-1.41412,34.91765,34.91765,0,0,1,.63129,6.45826v84.63337a8.37611,8.37611,0,0,1-4.19878,7.26389l-1.21764.6998L408.489,630.49646l-.79778.46189L404.99,632.51187a15.90323,15.90323,0,0,1-7.97761,2.14134c-.154,0-.322,0-.48991-.014a.57655.57655,0,0,1-.15393-.01393l-21.43282-83.05208Z"/>
                <path class="cls-47" d="M368.22268,547.6965v67.99227c0,.182,0,.37792.014.55988a8.42328,8.42328,0,0,0,4.18477,6.718l11.53264,6.63406,5.05251,2.91117.084.042a15.8356,15.8356,0,0,0,7.2779,2.07145.57666.57666,0,0,0,.15394.01393c.16794.014.33589.014.48991.014V547.65456c.04194-10.371-5.58445-24.01707-14.44382-31.81273a28.54472,28.54472,0,0,0-3.21913-2.47731,22.255,22.255,0,0,0-7.86571-3.331,10.47638,10.47638,0,0,0-6.97,1.09164h-.014c-3.83487,2.22539-5.31843,6.8161-5.52841,11.05682C358.48148,530.14563,362.44235,540.53059,368.22268,547.6965Z"/>
              </g>
              <g>
                <path class="cls-48" d="M407.441,622.47432,692.093,787.031l132.143-85.402L771.627,671.27328,539.48244,536.81275,411.86456,551.76488a20.54255,20.54255,0,0,0-1.47828,2.223,21.78265,21.78265,0,0,0-2.92275,10.91228Z"/>
                <path class="cls-49" d="M410.38628,553.98792,692.12681,717.17913,771.627,671.27328l42.38151-32.98266L529.24367,473.47442,420.41833,544.82481l-2.0764,1.19617-.0113.01129a21.63935,21.63935,0,0,0-6.46607,5.73261A20.54255,20.54255,0,0,0,410.38628,553.98792Z"/>
                <path class="cls-50" d="M626.6227,589.25568l-70.05143,40.76a15.40729,15.40729,0,0,0-7.71442,12.94466l-.54454,31.7654-6.266-3.614-.00051-29.18624a20.50007,20.50007,0,0,1,10.028-17.62412l66.96075-39.78867Z"/>
                <g>
                  <path class="cls-51" d="M506.49368,412.1926l.687-.78608c5.04777-5.776,18.92587-13.03358,27.82237-14.11393,8.22342-.99862,12.325.65627,19.02949,4.27032l94.225,54.49858A35.46222,35.46222,0,0,1,664.99823,495.13L643.57131,583.7266Z"/>
                  <path class="cls-52" d="M590.25141,526.62128l73.09544-50.662a35.38569,35.38569,0,0,1,.96435,19.95676L642.61048,588.9004l-29.38674-.93467-33.71146-51.77718A35.38158,35.38158,0,0,1,590.25141,526.62128Z"/>
                  <path class="cls-53" d="M613.22371,587.96579l21.42692-88.59657A35.46218,35.46218,0,0,0,617.91,460.30067l-88.042-51.01179a19.45231,19.45231,0,0,0-28.62708,12.26652l-20.26423,83.78794a7.37314,7.37314,0,0,0,3.474,8.1151Z"/>
                  <path class="cls-54" d="M613.22374,587.96573,484.04452,513.22346A6.7418,6.7418,0,0,1,480.86876,505.8l1.02915-4.24623.22278-.94064L615.6615,577.90761Z"/>
                </g>
                <g>
                  <path class="cls-55" d="M648.38091,494.0847l.687-.78608c5.04778-5.776,18.92588-13.03358,27.82237-14.11394,8.22342-.99861,12.325.65628,19.02949,4.27033l103.59528,59.93165a35.46222,35.46222,0,0,1,16.74063,39.06854L794.8288,671.05177Z"/>
                  <path class="cls-56" d="M762.15983,618.51174l50.87424-29.37121c.343-.21237,1.09438-.58815,1.09438-.58815.23312-.10823.4759-.19084.71688-.278l-19.7221,81.56229Z"/>
                  <path class="cls-57" d="M765.16823,674.50488l21.42693-88.59658a35.4622,35.4622,0,0,0-16.74064-39.06855l-97.41227-56.44486a19.45231,19.45231,0,0,0-28.62707,12.26653L622.25569,591.805Z"/>
                  <polygon class="cls-58" points="765.168 674.505 622.256 591.805 624.701 581.717 767.608 664.44 765.168 674.505"/>
                </g>
                <polygon class="cls-59" points="407.464 630.958 674.438 785.447 674.438 747.739 407.464 593.25 407.464 630.958"/>
                <polygon class="cls-60" points="407.464 602.324 674.438 756.813 674.438 741.498 407.464 587.009 407.464 602.324"/>
              </g>
              <g>
                <path class="cls-61" d="M675.44182,691.76667l23.28925,117.7478c.16795.014.33589.014.48983.014a15.9031,15.9031,0,0,0,7.9777-2.14142l2.7012-1.55353,113.87425-65.73732a8.3819,8.3819,0,0,0,4.19878-7.2779V665.94578s3.65291-2.14142,3.72288-2.18336c7.43183-4.29676,7.41782-18.22274-.014-31.11294-7.20786-12.48443-18.74058-19.38442-26.21436-15.91345,0,0-.64384.322-.9377.50392L676.7014,691.03885Z"/>
                <polygon class="cls-62" points="695.177 752.876 696.6 741.759 827.976 665.987 827.976 676.283 695.177 752.876"/>
                <path class="cls-63" d="M670.43125,703.67722v86.8867a8.38189,8.38189,0,0,0,4.19878,7.2779l11.53264,6.63406,5.05251,2.91118.084.042a15.907,15.907,0,0,0,7.43192,2.08538c.16795.014.33589.014.48983.014V739.25486a9.27455,9.27455,0,0,0,3.72288-1.16168c7.43184-4.29677,7.41791-18.22265-.01393-31.11294-7.20794-12.48435-18.75458-19.41235-26.22845-15.94139-.2379.112-.47581.224-.71372.36391a6.156,6.156,0,0,0-.54586.36391C672.11078,693.992,670.43125,698.3587,670.43125,703.67722Z"/>
              </g>
            </g>
            <g>
              <g>
                <path class="cls-64" d="M468.78181,543.75625l-.64691,7.7159L405.1086,494.698c1.84312,24.88909,10.536,47.09713,20.02494,65.99477,4.32326,5.611,17.99864,10.16688,30.55008,5.49728a19.46986,19.46986,0,0,1,17.65448,1.7883s55.33989,41.147,94.23986,61.64088,118.32353,56.04772,118.32353,56.04772l9.43034-5.38405Z"/>
                <path class="cls-65" d="M511.37759,417.90723a9.2157,9.2157,0,0,0,.735-1.83848c.93721-3.45483-.19929-6.76982-2.53853-7.40441-2.339-.63458-4.99515,1.65159-5.93235,5.10632a9.40645,9.40645,0,0,0-.26612,1.45907c-11.72642,5.94088-38.753,34.37269-38.753,34.37269-21.82479,2.72844-41.5838,11.38661-59.733,24.66536a12.72843,12.72843,0,0,0-6.14888-1.00887c-4.86325.3249-8.652,2.888-8.46256,5.72493.18942,2.83709,4.2857,4.87351,9.14876,4.54872a14.839,14.839,0,0,0,2.17384-.31183c6.85058,26.19174,20.763,50.30551,42.50086,72.11663-.03641.036-.07572.06392-.11214.10052-3.43429,3.45861-4.583,7.88637-2.56526,9.88987,2.01774,2.00341,6.43727.82381,9.87157-2.63479a12.97578,12.97578,0,0,0,3.09865-4.83071c34.98326-3.24943,85.31723-40.83127,96.19011-73.30795C543.38537,458.48981,529.79906,436.61322,511.37759,417.90723Z"/>
                <polygon class="cls-66" points="450.805 452.18 461.251 484.213 461.809 521.577 493.68 479.43 465.811 447.102 450.805 452.18"/>
                <path class="cls-67" d="M525.08559,471.50525c15.46449,2.14167,45.96224,22.73722,45.96224,22.73722,6.985,5.40562-.88606,21.86611-8.94495,22.12893L547.8696,503.54756,503.69294,473.0682S511.75012,469.65843,525.08559,471.50525Z"/>
                <polygon class="cls-26" points="537.357 481.55 570.007 507.732 557.324 511.224 537.357 481.55"/>
                <ellipse class="cls-68" cx="565.14938" cy="504.75072" rx="10.7226" ry="6.44053" transform="translate(-122.39248 823.26806) rotate(-66.6258)"/>
                <path class="cls-69" d="M570.72464,496.38716c11.09043,5.69907,24.08775,15.23539,29.362,20.68754L589.4,531.53649l-27.37564-18.925C554.28118,507.39131,565.60116,493.91243,570.72464,496.38716Z"/>
                <path class="cls-70" d="M459.11932,522.72325c2.16325-12.57109,10.28009-32.57929,30.02407-43.87618,10.67963-6.11055,21.60634-7.88153,31.04517-6.57271a27.20381,27.20381,0,0,1,19.32407,11.40672l37.20388,36.2748,45.82857,29.44952c13.20429,21.90181-28.702,84.75787-57.42439,70.26577-49.68323-26.28933-97.594-66.98166-106.60537-87.74355Z"/>
                <polygon class="cls-26" points="486.999 520.758 528.756 557.135 519.659 567.728 488.541 537.676 486.999 520.758"/>
                <path class="cls-26" d="M584.85611,525.18642,563.17,527.05183l-8.5456,17.78716,7.07963,5.07822s6.33821-9.14837,16.005-13.10448c7.42528-3.03855,17.97285-2.28715,22.47771-1.77479Z"/>
                <path class="cls-26" d="M522.76823,570.72029l-18.68542-17.98494c-5.343-5.384-17.692,2.48693-19.59678,10.419a371.83406,371.83406,0,0,0,39.69049,31.49141c15.90433-3.84574,40.55659-50.16884,40.55659-50.16884l-9.41392-6.80132Z"/>
                <path class="cls-71" d="M621.0926,550.92691c10.10532,9.55489,5.0328,31.47646-11.44027,49.08069s-38.05919,24.17216-48.214,14.66987-5.0328-31.47645,11.44026-49.08069S608.2759,538.80834,621.0926,550.92691Z"/>
                <g>
                  <path class="cls-72" d="M502.62867,493.48088l6.63522,5.34747a1.96652,1.96652,0,0,0,2.42216.03583h0a1.96651,1.96651,0,0,0,.49225-2.58847l-2.97424-4.89289Z"/>
                  <path class="cls-73" d="M480.04923,487.721c-1.68638-3.52569,6.77673-10.23621,13.50455-11.982,9.72239-2.5228,14.91579,18.959,14.91579,18.959l-13.88171-5.1431Z"/>
                  <path class="cls-72" d="M502.82408,471.86856s4.30255,2.99817,7.34688,5.50691a99.40633,99.40633,0,0,1,7.2502,6.964l-6.86147.92466-2.09013,9.43385a94.5823,94.5823,0,0,0-8.1201-14.99785Z"/>
                  <path class="cls-69" d="M502.31372,483.0123c2.13171,6.93354-17.79121,9.49305-20.61379,1.72332l-1.26589-4.05945-6.12893-12.6777,20.50681-4.64442Z"/>
                  <path class="cls-72" d="M479.83172,479.70024l-1.99666,8.14452c-.261,4.46613,8.55369,11.40977,15.84541,13.51445l4.61584-8.78111,10.17326,2.11991-11.407-8.07128Z"/>
                  <g>
                    <path class="cls-74" d="M488.30665,430.36692a19.69756,19.69756,0,0,1,9.69643,6.03334c3.90935,4.70969,3.38605,14.22143,3.38605,14.22143l-11.82041-8.43436Z"/>
                    <path class="cls-73" d="M501.32757,482.56c-8.24966,3.8307-20.44819.13981-26.32922-8.13511L462.3146,456.51318c-5.32984-7.07684-2.663-18.5551,6.54937-24.24633,8.05152-4.97406,20.27482-3.78291,25.5248,4.69368a191.78932,191.78932,0,0,1,10.18872,19.61463C510.3942,470.24459,509.39055,478.816,501.32757,482.56Z"/>
                    <path class="cls-75" d="M493.795,472.13091c-1.01026-1.36165-.23169-5.33484,2.75037-8.03419,2.73286-2.47377,6.08593-4.42352,8.2628-2.62073.99454.82363,2.261,1.91431,1.98655,3.178s-.5361,1.65253-4.89114,4.4352C498.4396,471.30259,494.65589,473.29118,493.795,472.13091Z"/>
                    <path class="cls-76" d="M457.22866,455.16654c-2.89855-10.40233,4.31489-21.87439,17.24986-25.27118,10.97831-2.88394,17.59988.35742,20.19491,6.79768,7.95678,18.45224-18.90268,12.79679-18.81572,20.16718a4.02292,4.02292,0,0,0,.3334,1.57281c1.89435,4.22641,5.39567,9.27578,5.56943,10.53455.16724,1.28279-2.54885,3.54849-3.22461,2.19214-.899,1.79235,2.24991,8.53083,2.24991,8.53083s-2.7753-.5662-10.33131-4.30615C463.49907,471.94926,454.8,464.58643,457.22866,455.16654Z"/>
                    <path class="cls-77" d="M480.34268,478.17476c-3.04119,2.04482-8.4564-.48023-10.77677-3.93122s-1.28517-8.36435,2.374-8.56593C476.53333,465.42456,483.38386,476.12994,480.34268,478.17476Z"/>
                  </g>
                </g>
                <ellipse class="cls-71" cx="690.86888" cy="560.45928" rx="12.74652" ry="21.72781" transform="translate(-78.41372 113.67219) rotate(-8.90295)"/>
                <path class="cls-78" d="M741.33154,653.726,721.77732,552.95141c-2.95524-13.62055-16.85158-20.03939-31.91907-16.86408l-67.22491,11.34856-3.06223,33.8801,13.09773,22.36379,52.28449-16.12605s15.51886,46.4892,29.76508,74.36814Z"/>
                <path class="cls-68" d="M689.48158,618.10308l-68.37972-39.22249,1.53148-31.4447-4.77308-.61891c-13.04707-6.21006-39.64835,10.9817-51.69364,31.25826-9.15716,15.41452-10.93764,32.81241,1.62031,40.20542,14.23446,8.91127,90.93334,40.00046,90.93334,40.00046s53.44521,33.91051,87.74924,48.36228c7.84075,3.82541,21.98262-19.96912,14.73241-27.50933C761.20192,679.13407,692.13441,619.549,689.48158,618.10308Z"/>
                <g>
                  <path class="cls-79" d="M480.48018,513.435C461.22165,495.74,453.3313,531.54608,461.37,544.67956s17.04594,19.63154,17.04594,19.63154c12.1131,12.448,36.96161-12.29483,26.54436-23.37938Z"/>
                  <ellipse class="cls-80" cx="492.71189" cy="553.93551" rx="15.461" ry="9.29579" transform="translate(-245.00901 480.60457) rotate(-42.67103)"/>
                </g>
                <path class="cls-73" d="M751.071,699.802c-4.36946-3.26742,1.02544-18.61085,5.68448-17.66949,0,0,3.5569-6.46088,8.44857-15.35276,0,0,1.22994-2.50928,2.22752-4.17611,2.18821-3.65623,10.41824-8.40772,13.6515-7.80939,3.12618.57852,5.40758,4.6193,3.78353,10.47746-.63574,7.66732-1.07014,16.26706-5.6254,23.37093-4.80384,7.49153-2.43051,19.152-12.26091,19.172C760.74136,707.82735,751.071,699.802,751.071,699.802Z"/>
              </g>
              <path class="cls-73" d="M483.66422,562.78284s19.24887,21.28,34.68969,25.00233,44.16256-50.27085,44.16256-50.27085l-9.41411-6.80131-32.55075,33.04466-18.68577-17.985C494.97453,538.82818,476.414,553.93551,483.66422,562.78284Z"/>
              <path class="cls-73" d="M565.59944,518.48722l7.53,9.21415s7.6086,4.32108,20.91188,5.1329c13.03257.79529,12.38335-19.85215-4.57232-19.85215C573.56871,512.98212,565.59944,518.48722,565.59944,518.48722Z"/>
              <path class="cls-73" d="M547.50113,536.39923s2.41319-7.64116,6.18105-11.48773c2.5013-2.55356,5.34917-1.71751,9.39145-2.08379,6.66228-.60367,15.96932,6.25416,11.7932,11.1843S564.9,545.169,558.21038,545.169Z"/>
              <path class="cls-69" d="M563.07368,522.82772c-4.04208.36627-6.89017-.46976-9.39129,2.08383-.17083.17426-.33544.36427-.50049.55306a5.01251,5.01251,0,0,0-.45257,2.0125c0,4.63786,1.72287,10.78617,7.26953,11.83241,2.45409.46289,8.62059-3.07416,10.67269-3.07416q1.218,0,2.32853-.07831c.65179-.72666,1.277-1.449,1.86663-2.14505C579.04279,529.08186,569.7358,522.22407,563.07368,522.82772Z"/>
              <path class="cls-73" d="M583.21906,525.19577c0,6.68957-4.38873,8.29423-11.0783,8.29423-2.05181,0-8.21835,3.537-10.6723,3.07408-5.54674-1.04623-6.84419-5.22251-6.84419-9.86027,0-6.68957,12.741-11.89033,19.43054-11.89033S583.21906,518.5062,583.21906,525.19577Z"/>
            </g>
          </g>
          <g>
            <path class="cls-68" d="M516.75786,720.80508l-18.83206,9.08683s-11.97794,6.02392-19.31781,13.913c-7.12411,7.65717,3.56825,16.41542,17.85468,13.01,12.05118-2.87259,15.47191-7.99777,20.38941-11.85914,4.91786-3.86126,10.12591-4.72361,15.20482-10.3915,3.42491-3.82209,6.34151-8.54557-.928-12.83769A16.22065,16.22065,0,0,0,516.75786,720.80508Z"/>
            <path class="cls-81" d="M482.67819,740.71245c6.22551-7.65621,12.15793-6.97648,17.43915-2.47473,5.39077,4.59513,4.02144,13.00912,4.02144,13.00912a40.552,40.552,0,0,0,11.22332-8.253s1.80664-4.87524-3.97147-10.48671c-5.66869-5.5052-12.3566-6.669-15.10139-5.2124C490.64375,730.73617,484.41824,734.98963,482.67819,740.71245Z"/>
          </g>
          <g>
            <path class="cls-68" d="M543.39218,735.382l-18.83206,9.08682s-12.14116,5.87516-19.31781,13.913c-4.74107,5.31,2.77186,15.67169,17.85468,13.01,12.2003-2.153,15.47191-7.99777,20.38941-11.85915,4.91786-3.86126,10.66283-4.57721,15.06666-10.78419,3.121-4.39891,6.0277-9.41657-1.59509-13.10748S543.39218,735.382,543.39218,735.382Z"/>
            <path class="cls-81" d="M508.81056,754.87178c7.08478-7.14342,13.36365-5.30137,18.64487-.79963a12.778,12.778,0,0,1,4.27008,11.182c3.7661-1.27785,7.50158-4.35755,11.22332-8.25277a20.15044,20.15044,0,0,0-6.21314-11.91944c-5.66869-5.50521-12.20842-5.23643-14.95322-3.77982C516.321,745.68533,511.67157,750.16847,508.81056,754.87178Z"/>
          </g>
        </g>
        <g>
          <g>
            <path class="cls-82" d="M130.35437,692.3471l57.44734.137-7.27143,44.96719c-.61616,6.5271-9.993,11.71465-21.50366,11.71465-11.51124,0-20.8875-5.18755-21.50365-11.71465Z"/>
            <ellipse class="cls-26" cx="159.09298" cy="690.32603" rx="28.95033" ry="16.63812"/>
            <path class="cls-83" d="M133.97581,698.59227c4.9962,5.01961,14.38494,8.36607,25.12173,8.36607s20.125-3.34646,25.12174-8.36607c-3.184-6.22809-13.223-10.783-25.12174-10.783S137.15985,692.36418,133.97581,698.59227Z"/>
            <path class="cls-29" d="M159.09292,677.64312c14.72991,0,24.99523,6.6841,24.99523,12.6829,0,5.99886-10.26532,12.683-24.99523,12.683s-24.99523-6.6841-24.99523-12.683c0-5.9988,10.26532-12.6829,24.99523-12.6829m0-3.95519c-15.98881,0-28.95036,7.4491-28.95036,16.63809s12.96155,16.63815,28.95036,16.63815,28.95036-7.44916,28.95036-16.63815-12.96154-16.63809-28.95036-16.63809Z"/>
          </g>
          <path class="cls-84" d="M168.41465,651.62747c13.57247-2.08925,40.28563-10.896,34.695-20.97089S171.51967,632.21934,168.41465,651.62747Z"/>
          <path class="cls-83" d="M162.45752,694.04834a1.06856,1.06856,0,0,0,1.069-1.06866c0-28.84822,5.24942-47.65551,17.55331-62.88758a1.06892,1.06892,0,0,0-1.66337-1.343c-12.63615,15.64389-18.028,34.85254-18.028,64.23055A1.06855,1.06855,0,0,0,162.45752,694.04834Z"/>
          <path class="cls-83" d="M157.66321,694.04834a1.06856,1.06856,0,0,0,1.069-1.06866c0-27.17089,0-64.38342-13.64827-81.28025a1.06892,1.06892,0,0,0-1.66336,1.343c13.17362,16.3098,13.17362,53.08467,13.17362,79.93727A1.06855,1.06855,0,0,0,157.66321,694.04834Z"/>
          <path class="cls-83" d="M157.16064,664.88113a1.069,1.069,0,0,0,1.06448-.98141c1.773-21.72918,6.48245-36.49776,14.82128-46.47657a1.06889,1.06889,0,0,0-1.64034-1.3709c-8.63583,10.3341-13.501,25.4831-15.312,47.673a1.06893,1.06893,0,0,0,.97861,1.15243C157.10236,664.88043,157.13168,664.88113,157.16064,664.88113Z"/>
          <path class="cls-85" d="M161.83822,636.7448c12.86045-9.6231,33.73344-34.95853,22.42018-42.28251S154.36642,615.00316,161.83822,636.7448Z"/>
          <path class="cls-86" d="M157.15956,675.07762c-10.76033-1.42016-31.43676-9.45168-27.19036-17.50781S154.37605,659.79432,157.15956,675.07762Z"/>
          <path class="cls-83" d="M157.61959,681.87358c.02548,0,.0513-.0007.07713-.00279a1.06846,1.06846,0,0,0,.99013-1.142c-1.33041-18.61534-9.62631-38.26653-22.90812-39.80775a1.0688,1.0688,0,1,0-.2464,2.12336c12.1266,1.4072,19.7545,20.09932,21.02209,37.83655A1.06859,1.06859,0,0,0,157.61959,681.87358Z"/>
          <path class="cls-83" d="M162.90809,680.16624a1.06973,1.06973,0,0,0,1.06063-.94791c1.38452-12.08471,12.506-20.66819,18.15221-22.57726a1.06912,1.06912,0,0,0-.68475-2.02564c-6.09436,2.06124-18.09776,11.32249-19.59151,24.36a1.06863,1.06863,0,0,0,.94022,1.18313A1.05092,1.05092,0,0,0,162.90809,680.16624Z"/>
          <path class="cls-87" d="M168.41465,665.41815c11.35611-.1213,34.63729-3.84015,31.23994-12.74286S173.22906,649.89267,168.41465,665.41815Z"/>
          <path class="cls-88" d="M172.508,640.91783c9.56291-7.7487,25.34693-27.39454,16.46772-32.66816S166.14406,624.49088,172.508,640.91783Z"/>
          <path class="cls-89" d="M150.95771,653.95328c-17.69964-4.74187-50.545-22.72966-41.66651-35.28165S149.657,627.75884,150.95771,653.95328Z"/>
          <path class="cls-90" d="M153.40237,632.71868c-12.03752-9.00734-32.20267-30.18573-21.61333-37.04106S160.39607,612.36825,153.40237,632.71868Z"/>
        </g>
      </g>
      <g>
        <g>
          <path class="cls-91" d="M227.60769,94.4643a198.65131,198.65131,0,1,1-77.58349,15.657,198.0694,198.0694,0,0,1,77.58349-15.657m0-18.17383c-120.12524,0-217.5061,97.38086-217.5061,217.5061s97.38086,217.50611,217.5061,217.50611c120.12537,0,217.50623-97.38086,217.50623-217.50611S347.73306,76.29047,227.60769,76.29047Z"/>
          <circle class="cls-92" cx="227.60775" cy="293.79658" r="201.18409"/>
          <path class="cls-93" d="M30.45263,253.55517a202.09828,202.09828,0,0,0-4.029,40.24157c0,111.11065,90.07319,201.18385,201.18418,201.18385a200.55068,200.55068,0,0,0,77.57048-15.50788L357.887,376.76057,131.84288,171.56836Z"/>
        </g>
        <g>
          <circle class="cls-94" cx="227.60775" cy="293.79658" r="154.4352"/>
          <circle class="cls-95" cx="227.60775" cy="293.79658" r="122.22836"/>
          <g>
            <g>
              <text class="cls-96" transform="translate(146.09525 295.46161)">20</text>
              <text class="cls-96" transform="translate(219.36771 295.46357)">min</text>
            </g>
            <text class="cls-96" transform="translate(175.69974 337.22235)">max</text>
          </g>
          <path class="cls-97" d="M227.60769,176.55805h-.12549l-.03576.00024h-.06909q-.7956.00147-1.589.01367l.24878,16.3545q.78387-.01209,1.57055-.012V176.55805Zm-12.69922.67993q-.90473.09741-1.80395.20825l2.00281,16.2334q.77453-.09558,1.55273-.17944L214.90847,177.238Zm-12.54931,2.04565q-.88861.1952-1.77246.40357l3.75537,15.91943q.75971-.17907,1.52368-.34692l-3.50659-15.97608ZM190.10647,182.684c-.188.06348-.37988.12867-.5675.19312l-.00159.00049-.0365.01269-.02014.00684-.02454.00854q-.53448.18384-1.0664.37256L193.86,198.69281q.735-.26073,1.47534-.51049l-5.22888-15.4983Zm-11.80774,4.71656-.17236.08032-.03259.01514-.0022.001q-.66412.31019-1.32373.62793l-.02417.01172-.0083.00391-.07947.03833,7.11755,14.7268q.70313-.3402,1.41248-.66918l-6.88721-14.83594Zm-11.22522,5.97412q-.53155.32117-1.0592.64746l-.01612.01-.02551.01587-.02173.01343-.00976.0061c-.1377.0852-.27857.17285-.4159.25879l8.67334,13.86743q.66285-.41456,1.33228-.81885l-8.4574-14.00024Zm-10.51172,7.15454q-.156.119-.31152.23853l-.00854.00659-.02271.01733c-.32861.25269-.65857.509-.98437.76514l-.01246.00976-.01709.01343-.07971.06275,10.12049,12.84936q.61468-.48413,1.23693-.95874l-9.921-13.00415Zm-9.67871,8.24707q-.10143.09632-.20263.19287l-.00879.0083-.02588.02466-.01746.01685-.01416.01342c-.34949.334-.69385.66724-1.03918,1.00562l11.44555,11.68457q.559-.54748,1.12671-1.08667l-11.26416-11.85962Zm-8.73449,9.241q-.51288.605-1.01758,1.21655l-.00635.00781-.02747.03321-.00744.009-.025.03027-.02331.02832-.01489.01831-.02137.02588-.007.00855-.01428.01733,12.637,10.38452q.49713-.6046,1.00305-1.20166l-12.47534-10.57812Zm-7.688,10.12841q-.17413.25709-.3468.51514l-.00586.00855-.02039.03051-.01318.01978-.0105.01562c-.2063.3086-.40723.61231-.6106.9231l13.684,8.96q.42866-.65478.86707-1.30225l-13.5437-9.17041Zm-6.54822,10.89991q-.42462.80272-.83728,1.61279l14.57471,7.42358q.35485-.69653.72021-1.387l-14.45764-7.64941Zm-5.32556,11.54614-.03833.09692-.01172.0293-.00427.011c-.1438.364-.28247.72-.42273,1.08569l-.01807.04712v.00024q-.0813.212-.16186.42481l15.29638,5.79223q.27685-.731.5647-1.45678l-15.2041-6.03052Zm-4.03552,12.05908q-.04487.1637-.08948.32739l-.00073.00293-.01209.04468-.00452.01636-.00744.02734q-.18036.66614-.35352,1.33667l15.83728,4.08814q.19537-.75622.402-1.5083l-15.77148-4.33521Zm-2.69556,12.42529c-.068.42334-.13391.84937-.19739,1.27442l-.00024.00171-.0055.03735-.00219.01489-.00476.03174-.00428.02857-.00268.01806q-.02876.1952-.05713.39063l16.18823,2.34033q.11189-.7749.23572-1.54614l-16.14978-2.59156Zm-1.33191,12.64673q-.00861.16956-.01685.33911l-.00012.002-.00207.04492-.0011.021-.00086.02026c-.022.46094-.04113.9248-.05774,1.38721l16.34607.58374q.028-.78407.06787-1.56446l-16.3352-.83374Zm16.36145,11.80567-16.33093.91235q.01575.28272.03283.5647l.00086.01343.00207.03442.002.03271.00073.011c.02393.38916.04907.76856.07678,1.15674l16.31507-1.16309q-.05566-.77965-.09937-1.56225Zm1.1991,10.88086-16.137,2.67041c.035.21142.07129.427.10743.63794l.00451.02636.00342.02027.00659.03784.00159.00976q.03314.19263.067.38526l.00207.01172.00635.03637.00415.02344.0039.02246c.03382.1919.06885.3877.10364.5791l16.09351-2.92089q-.13935-.768-.26721-1.54ZM130.454,321.08l-15.75,4.4126c.03247.116.06567.2334.09851.34936l.00488.01734.00647.02295.01355.04736.00012.00049q.06225.21863.12512.43677h0l.01453.05029.00635.022.00671.0232.00916.03173.00366.01245c.07019.24195.14306.49048.21484.73194l15.6792-4.658q-.22228-.74781-.4331-1.50049Zm3.51879,10.346-15.17443,6.105q.33984.84448.69152,1.68066l15.07727-6.34082q-.30249-.7196-.59436-1.44482Zm4.62769,9.90527-14.42,7.72q.429.80091.87,1.59522l14.29846-7.94287q-.37939-.683-.74841-1.37232Zm5.67993,9.35132-13.499,9.23633q.51361.75074,1.038,1.49219l13.35462-9.44385q-.45154-.63867-.89356-1.28467Zm6.66211,8.689L138.51858,370.01q.31367.36621.63025.73l.00122.00147.07007.08032.01648.019.01452.0166.02137.02466.01.01123.02124.02442.00781.009.04272.04858.01136.01319.01843.021.01684.01929.01465.0166q.14758.16847.29566.33594l12.25854-10.82861q-.518-.58668-1.02722-1.18116Zm7.56177,7.9231-11.20667,11.91406.03345.0315.02454.02295.005.00488c.42188.39624.84265.78564,1.27039,1.17578l11.02173-12.08545q-.57825-.52734-1.14844-1.06372Zm8.36963,7.06226-9.85779,13.052q.72492.54748,1.4585,1.084L168.12979,375.29q-.63173-.46179-1.25586-.9331Zm9.07763,6.114-8.38916,14.04126q.77985.46582,1.56739.92017l8.17028-14.16968q-.67749-.39075-1.34851-.79175ZM185.631,385.562l-6.8147,14.86915q.722.331,1.44934.65234l.00354.00171.04016.01758.01929.00854.01746.00781.12854.05664,6.582-14.97363q-.71577-.31494-1.42566-.64014Zm10.16943,4.00464-5.15271,15.52368q.32226.10694.64551.21216l.00732.00244.03846.01246.02294.00732.01856.0061q.46527.15088.93237.29834l.00232.00074.02027.00634.04113.01294,4.90955-15.60229q-.74543-.23437-1.48572-.48023Zm10.54407,2.87061-3.42835,15.99316c.59058.12647,1.18726.24951,1.78113.36719l3.17835-16.04468q-.76758-.152-1.53113-.31567Zm10.80444,1.707L215.47622,410.415q.44989.04614.90051.08911l.007.00074.04615.00439.01037.001.04651.00439.00757.00073.05359.00489.00927.001.04151.00391.02112.002.03076.00269.02307.0022.02942.00268.02234.0022.03113.00268.04126.00391.02771.00244.02856.00269.02185.00195.02966.00269.02112.00195.03162.00268.01538.00147.11743.0105.0127.00122.03686.00317.01148.001.03857.00342.00854.00073.08558.00757,1.4215-16.29468q-.78039-.06775-1.55737-.14795Zm12.52075.51367q-.78277.01575-1.56848.01953l.07813,16.3562.13269-.00073h.02014l.02417-.00024q.81958-.00513,1.6366-.02149h.00366l-.32691-16.35327Zm10.92615-.80591q-.77435.09962-1.55249.187l1.83057,16.25366.00366-.00025.03918-.00439.10584-.012.00171-.00025q.82836-.09449,1.65344-.20044L240.59585,393.852ZM251.35,391.87275q-.75879.18311-1.52209.35449L253.4125,408.186c.396-.08887.7898-.17969,1.18433-.27246l.02612-.00611.01978-.00488.03613-.00854.01221-.00269q.24627-.05823.49231-.11768L251.35,391.87275Zm10.46741-3.1377q-.73389.26477-1.47327.51807l5.30481,15.47241.1012-.03491.00928-.00318.04528-.01562c.52015-.179,1.04175-.3628,1.55848-.54907l-5.54578-15.3877Zm10.06555-4.262q-.70148.34314-1.40894.676l6.9596,14.802q.7597-.35742,1.51282-.72485l.01184-.00561.02637-.01294.0249-.01221.01819-.00879.04455-.022L271.883,384.47309Zm9.54932-5.33521q-.66064.41786-1.32837.82569l8.52539,13.959q.145-.08862.28955-.17749l.00171-.001.04541-.02807.01758-.01074.02356-.01465.03064-.0188.00549-.00342c.37927-.23364.75342-.46729,1.12976-.70532l-8.74072-13.8252Zm8.92236-6.34179q-.6123.48705-1.23218.96484l9.98389,12.95581q.22449-.17284.44824-.34717l.00171-.00122.04053-.03149.00512-.00415.04114-.032.016-.01245.0221-.01733.02222-.01734.01623-.01269.02649-.02051.003-.00244c.26294-.20557.52686-.41382.788-.62158l-10.1825-12.80029Zm8.19043-7.27027q-.55646.55042-1.12146,1.09229L308.7449,378.423q.30615-.29334.61-.58911l.01062-.01026.02356-.02295.02027-.01977.01025-.01q.31494-.30688.62732-.61572l-11.50183-11.6294Zm7.36035-8.10986q-.494.60681-.99719,1.2063l12.52649,10.51758q.58318-.69471,1.15784-1.40064L305.90542,357.416Zm6.44068-8.85254q-.42535.657-.86072,1.3064l13.58813,9.10473c.182-.27173.36585-.54858.54566-.822l.01489-.02246.01172-.01782.02063-.03125.00574-.009q.20159-.30688.40136-.61523l-13.72741-8.89331Zm5.441-9.49q-.35139.69837-.71326,1.39038l14.49475,7.57886c.11816-.22608.23181-.44532.34851-.67212l.00635-.01221.01416-.02734q.20434-.39771.40588-.79688l.05445-.10815-14.61084-7.35254Zm4.37438-10.01782q-.27337.732-.55749,1.459l15.23364,5.95606c.12073-.30909.23792-.6128.3562-.92286l.0083-.02172.00721-.019.015-.03955.00183-.00488q.1311-.34424.25989-.6897l-15.32459-5.71728Zm3.2544-10.43213q-.19154.75768-.39478,1.51123l15.79261,4.25806q.2362-.87672.45935-1.75879l-15.85718-4.0105Zm2.09875-10.72949q-.10821.77526-.22827,1.54663l16.16223,2.51269q.13953-.89648.26526-1.79761L327.51467,307.894Zm.92591-10.91382q-.02418.78443-.06031,1.56543l16.339.75537.00086-.019.001-.02173.0017-.03711.00025-.00562c.02637-.57837.04834-1.15137.06616-1.73193l-16.34863-.50537Zm16.06335-12.20948-16.3092,1.2417q.05915.77894.10669,1.56128l16.32654-.99121c-.03394-.55664-.07117-1.10669-.11268-1.66113l-.00134-.01758-.00195-.02637-.00806-.10669Zm-1.6499-12.60913-16.0791,2.99976q.14337.76758.27478,1.53906l16.1239-2.74878q-.11956-.70092-.24719-1.39843l-.00025-.00123-.0094-.05151-.00537-.029-.00305-.01685-.0072-.03882-.001-.00561-.04614-.24854Zm-3.01025-12.353-15.65613,4.73486q.22576.74634.44018,1.4978l15.72828-4.48974q-.20216-.70826-.413-1.41285l-.01208-.04-.00037-.00123c-.02905-.09716-.0575-.19165-.08691-.28881Zm-4.3407-11.9524-15.04614,6.4148q.30633.71814.60168,1.44214l15.14441-6.179c-.11817-.28955-.23584-.575-.3562-.86328l-.00916-.02173-.00805-.01928-.01441-.03443-.004-.00976q-.1529-.36549-.3081-.7295Zm-5.61646-11.40747-14.25952,8.01245q.3827.68117.75513,1.36866l14.3822-7.79q-.31-.57238-.62634-1.14112l-.0105-.019-.01062-.019-.01807-.03247-.00122-.0022c-.07007-.12573-.14062-.252-.21106-.3772Zm-6.82092-10.73144L309.757,235.22577q.45465.63648.89966,1.28l13.4541-9.30176-.06152-.08862-.0127-.01831-.0144-.02075-.019-.02759L324,227.04438c-.30994-.44678-.61841-.885-.93433-1.32715Zm-7.94006-9.93213L302.91958,226.673q.52094.5841,1.03284,1.17627l12.37244-10.69849c-.39551-.45727-.79688-.91455-1.19922-1.36548Zm-8.9635-9.019-10.96326,12.13842q.581.52479,1.15356,1.05835l11.14893-11.96826q-.08057-.07507-.16138-.1499l-.0238-.02222-.00806-.00757-.02954-.02734-.00061-.00049c-.172-.15942-.34192-.31592-.51489-.47436l-.00269-.00244-.02563-.02344-.01331-.01221-.02014-.01831-.023-.021-.0144-.01318-.03662-.03345-.00953-.00879-.03015-.02758-.0094-.00855-.03552-.03222-.00281-.00269-.12463-.11328-.0011-.001-.0813-.07373-.00842-.00781-.02844-.02564-.01612-.01464-.01782-.01612-.1-.09057Zm-9.8827-8.00122L286.6885,212.0141q.63392.45886,1.26038.92725l9.79455-13.09961c-.43212-.323-.86242-.64038-1.29907-.95752l-.00708-.00513-.02795-.02026-.03528-.02564-.00281-.00195-.0918-.0664Zm-10.68859-6.8877-8.1012,14.20947q.6795.38709,1.35217.78467l8.32068-14.08179-.139-.082-.01977-.01172-.01489-.00879c-.25721-.15136-.52186-.30566-.7804-.45532l-.01892-.01074-.01868-.011-.033-.0188-.00757-.00439q-.26934-.15564-.53942-.30957Zm-11.37268-5.68774L267.7095,201.195q.71723.31092,1.42871.63306l6.74194-14.90259c-.24682-.11157-.49743-.22388-.74511-.33374l-.02051-.00928-.02075-.009-.04053-.01807-.00293-.00122q-.41529-.1842-.83215-.36474Zm-11.92395-4.41529-4.833,15.62622q.74652.23071,1.48791.4729l5.07642-15.54882-.00208-.00074-.10034-.03271-.017-.00537-.03418-.01123-.01489-.00489-.03686-.012-.0149-.00464-.04895-.01587-.004-.00146-.04517-.01465-.01428-.00439-.038-.01246-.01294-.00415-.04345-.01391-.006-.002q-.51051-.16441-1.02308-.32446l-.00586-.00171-.03637-.01147c-.0752-.02344-.15772-.04907-.233-.07227Zm-12.335-3.08789-3.10009,16.06006q.76812.14832,1.5321.30811l3.3501-16.00977-.059-.01221q-.72035-.15051-1.44373-.292l-.00158-.00024-.04419-.00855-.02246-.00439-.02271-.0044c-.0636-.01245-.12488-.02441-.18848-.03662Zm-12.59716-1.728-1.34265,16.30127q.78057.0641,1.55773.14014L239.1708,177.121c-.16174-.01587-.33154-.032-.49365-.04712l-.00818-.001-.02356-.0022-.03161-.00293-.01648-.00146-.04285-.00391-.00745-.00073q-.33562-.03112-.67187-.0603l-.01526-.00122-.03345-.00293-.02649-.0022-.023-.00195-.03051-.00269-.0116-.001c-.12378-.01074-.2489-.02124-.3728-.03125Z"/>
        </g>
      </g>
    </g>
    <g>
      <circle class="cls-91" cx="51.44097" cy="188.32242" r="51.44097"/>
      <g>
        <rect class="cls-95" x="33.97685" y="181.1547" width="11.16548" height="33.5616" transform="translate(-128.3748 85.94682) rotate(-45)"/>
        <rect class="cls-95" x="55.71563" y="166.9052" width="11.16548" height="50.25593" transform="translate(-31.14509 371.16562) rotate(-135)"/>
      </g>
    </g>
  </g>
</svg>
