<svg id="Layer_1" data-name="Layer 1" xmlns="http://www.w3.org/2000/svg" xmlns:xlink="http://www.w3.org/1999/xlink" viewBox="0 0 1000 1000">
  <defs>
    <style>
      .cls-1 {
        fill: url(#linear-gradient);
      }

      .cls-2, .cls-6, .cls-91 {
        fill: #fff;
      }

      .cls-2, .cls-20, .cls-64 {
        opacity: 0.5;
      }

      .cls-3 {
        fill: #b8cbd8;
      }

      .cls-4 {
        fill: url(#linear-gradient-2);
      }

      .cls-5 {
        fill: url(#linear-gradient-3);
      }

      .cls-6 {
        opacity: 0.7;
      }

      .cls-7 {
        fill: url(#linear-gradient-4);
      }

      .cls-8 {
        fill: url(#linear-gradient-5);
      }

      .cls-9 {
        fill: url(#linear-gradient-6);
      }

      .cls-10 {
        fill: url(#linear-gradient-7);
      }

      .cls-11 {
        fill: url(#linear-gradient-8);
      }

      .cls-12 {
        fill: url(#linear-gradient-9);
      }

      .cls-13 {
        fill: url(#linear-gradient-10);
      }

      .cls-14 {
        fill: url(#linear-gradient-11);
      }

      .cls-15 {
        fill: url(#linear-gradient-12);
      }

      .cls-16 {
        fill: url(#linear-gradient-13);
      }

      .cls-17 {
        fill: url(#linear-gradient-14);
      }

      .cls-18 {
        fill: url(#linear-gradient-15);
      }

      .cls-19 {
        fill: url(#linear-gradient-16);
      }

      .cls-20 {
        fill: #dd7b19;
      }

      .cls-21 {
        fill: url(#linear-gradient-17);
      }

      .cls-22 {
        fill: none;
        stroke: #d8712b;
        stroke-linecap: round;
        stroke-width: 5.2874px;
      }

      .cls-22, .cls-92 {
        stroke-miterlimit: 10;
      }

      .cls-23 {
        fill: url(#linear-gradient-18);
      }

      .cls-24, .cls-66 {
        opacity: 0.2;
      }

      .cls-25 {
        fill: #2a3f5e;
      }

      .cls-26 {
        fill: #e58630;
      }

      .cls-27 {
        fill: #5e5e5e;
      }

      .cls-28 {
        fill: url(#linear-gradient-19);
      }

      .cls-29 {
        fill: #ffcb48;
      }

      .cls-30 {
        fill: url(#linear-gradient-20);
      }

      .cls-31 {
        fill: url(#linear-gradient-21);
      }

      .cls-32 {
        fill: url(#linear-gradient-22);
      }

      .cls-33 {
        fill: url(#linear-gradient-23);
      }

      .cls-34 {
        fill: url(#linear-gradient-24);
      }

      .cls-35 {
        fill: url(#linear-gradient-25);
      }

      .cls-36 {
        fill: url(#linear-gradient-26);
      }

      .cls-37 {
        fill: url(#linear-gradient-27);
      }

      .cls-38 {
        fill: url(#linear-gradient-28);
      }

      .cls-39 {
        fill: url(#linear-gradient-29);
      }

      .cls-40 {
        fill: url(#linear-gradient-30);
      }

      .cls-41 {
        fill: url(#linear-gradient-31);
      }

      .cls-42 {
        fill: url(#linear-gradient-32);
      }

      .cls-43 {
        fill: url(#linear-gradient-33);
      }

      .cls-44 {
        fill: url(#linear-gradient-34);
      }

      .cls-45 {
        fill: url(#linear-gradient-35);
      }

      .cls-46 {
        fill: url(#linear-gradient-36);
      }

      .cls-47 {
        fill: url(#linear-gradient-37);
      }

      .cls-48 {
        fill: url(#linear-gradient-38);
      }

      .cls-49 {
        fill: url(#linear-gradient-39);
      }

      .cls-50 {
        fill: url(#linear-gradient-40);
      }

      .cls-51 {
        fill: url(#linear-gradient-41);
      }

      .cls-52 {
        fill: url(#linear-gradient-42);
      }

      .cls-53 {
        fill: url(#linear-gradient-43);
      }

      .cls-54 {
        fill: url(#linear-gradient-44);
      }

      .cls-55 {
        fill: url(#linear-gradient-45);
      }

      .cls-56 {
        fill: url(#linear-gradient-46);
      }

      .cls-57 {
        fill: url(#linear-gradient-47);
      }

      .cls-58 {
        fill: url(#linear-gradient-48);
      }

      .cls-59 {
        fill: url(#linear-gradient-49);
      }

      .cls-60 {
        fill: url(#linear-gradient-50);
      }

      .cls-61 {
        fill: url(#linear-gradient-51);
      }

      .cls-62 {
        fill: url(#linear-gradient-52);
      }

      .cls-63 {
        fill: url(#linear-gradient-53);
      }

      .cls-64 {
        fill: #435a75;
      }

      .cls-65 {
        fill: url(#linear-gradient-54);
      }

      .cls-66 {
        fill: #39557c;
      }

      .cls-67 {
        fill: url(#linear-gradient-55);
      }

      .cls-68 {
        fill: #27343d;
      }

      .cls-69 {
        fill: #e48f7c;
      }

      .cls-70 {
        fill: #a3bbce;
      }

      .cls-71 {
        fill: url(#linear-gradient-56);
      }

      .cls-72 {
        fill: #ffbda3;
      }

      .cls-73 {
        fill: url(#linear-gradient-57);
      }

      .cls-74 {
        fill: #303d49;
      }

      .cls-75 {
        fill: url(#linear-gradient-58);
      }

      .cls-76 {
        fill: url(#linear-gradient-59);
      }

      .cls-77 {
        fill: #405260;
      }

      .cls-78 {
        fill: url(#linear-gradient-60);
      }

      .cls-79 {
        fill: #724133;
      }

      .cls-80 {
        fill: url(#linear-gradient-61);
      }

      .cls-81 {
        fill: url(#linear-gradient-62);
      }

      .cls-82 {
        fill: url(#linear-gradient-63);
      }

      .cls-83 {
        fill: url(#linear-gradient-64);
      }

      .cls-84 {
        fill: url(#linear-gradient-65);
      }

      .cls-85 {
        fill: url(#linear-gradient-66);
      }

      .cls-86 {
        fill: url(#linear-gradient-67);
      }

      .cls-87 {
        fill: #34a521;
      }

      .cls-88 {
        fill: #cfdfe8;
      }

      .cls-89 {
        opacity: 0.4;
        fill: url(#linear-gradient-68);
      }

      .cls-90 {
        fill: url(#linear-gradient-69);
      }

      .cls-92 {
        font-size: 52.67426px;
        fill: #333a3d;
        stroke: #333a3d;
        stroke-width: 1.94993px;
        font-family: AvenirLTStd-Black, Avenir LT Std;
        font-weight: 800;
      }

      .cls-93 {
        fill: url(#linear-gradient-70);
      }
    </style>
    <linearGradient id="linear-gradient" x1="516.22368" y1="402.62316" x2="937.51038" y2="402.62316" gradientUnits="userSpaceOnUse">
      <stop offset="0" stop-color="#e4edf2"/>
      <stop offset="1" stop-color="#c3d6e6"/>
    </linearGradient>
    <linearGradient id="linear-gradient-2" x1="94.95323" y1="728.95587" x2="937.51038" y2="728.95587" gradientUnits="userSpaceOnUse">
      <stop offset="0.00663" stop-color="#c4d5e6"/>
      <stop offset="1" stop-color="#dae9f2"/>
    </linearGradient>
    <linearGradient id="linear-gradient-3" x1="-881.53836" y1="584.92371" x2="-760.90729" y2="664.34912" gradientTransform="translate(1162.29787)" gradientUnits="userSpaceOnUse">
      <stop offset="0" stop-color="#fff"/>
      <stop offset="0.94545" stop-color="#fff" stop-opacity="0"/>
    </linearGradient>
    <linearGradient id="linear-gradient-4" x1="406.9347" y1="178.49786" x2="221.32955" y2="580.64236" gradientUnits="userSpaceOnUse">
      <stop offset="0" stop-color="#fff"/>
      <stop offset="0.98888" stop-color="#e6edf2"/>
    </linearGradient>
    <linearGradient id="linear-gradient-5" x1="130.68953" y1="475.30283" x2="229.3957" y2="475.30283" gradientUnits="userSpaceOnUse">
      <stop offset="0" stop-color="#62778c"/>
      <stop offset="1" stop-color="#435466"/>
    </linearGradient>
    <linearGradient id="linear-gradient-6" x1="253.20992" y1="404.56194" x2="351.93072" y2="404.56194" xlink:href="#linear-gradient-5"/>
    <linearGradient id="linear-gradient-7" x1="375.74495" y1="333.80054" x2="474.52214" y2="333.80054" xlink:href="#linear-gradient-5"/>
    <linearGradient id="linear-gradient-8" x1="130.68953" y1="407.96292" x2="486.40017" y2="407.96292" gradientUnits="userSpaceOnUse">
      <stop offset="0" stop-color="#849bb2"/>
      <stop offset="1" stop-color="#5b6f82"/>
    </linearGradient>
    <linearGradient id="linear-gradient-9" x1="502.88221" y1="302.61644" x2="120.5356" y2="509.87552" xlink:href="#linear-gradient-5"/>
    <linearGradient id="linear-gradient-10" x1="150.96961" y1="359.21147" x2="386.06947" y2="593.69265" gradientUnits="userSpaceOnUse">
      <stop offset="0" stop-color="#435466"/>
      <stop offset="1" stop-color="#62778c"/>
    </linearGradient>
    <linearGradient id="linear-gradient-11" x1="247.44812" y1="262.4784" x2="482.54798" y2="496.95957" xlink:href="#linear-gradient-10"/>
    <linearGradient id="linear-gradient-12" x1="343.93857" y1="165.73336" x2="579.03843" y2="400.21453" xlink:href="#linear-gradient-10"/>
    <linearGradient id="linear-gradient-13" x1="-71.91699" y1="147.371" x2="499.41685" y2="147.371" gradientUnits="userSpaceOnUse">
      <stop offset="0" stop-color="#5b6f82"/>
      <stop offset="1" stop-color="#849bb2"/>
    </linearGradient>
    <linearGradient id="linear-gradient-14" x1="-71.91699" y1="255.7235" x2="499.41685" y2="255.7235" xlink:href="#linear-gradient-13"/>
    <linearGradient id="linear-gradient-15" x1="-71.91699" y1="364.1482" x2="499.41685" y2="364.1482" xlink:href="#linear-gradient-13"/>
    <linearGradient id="linear-gradient-16" x1="163.80863" y1="359.66428" x2="139.67996" y2="655.7045" gradientUnits="userSpaceOnUse">
      <stop offset="0.00005" stop-color="#ffcb48"/>
      <stop offset="1" stop-color="#e68e2b"/>
    </linearGradient>
    <linearGradient id="linear-gradient-17" x1="440.98659" y1="193.71823" x2="520.17812" y2="486.97437" xlink:href="#linear-gradient-16"/>
    <linearGradient id="linear-gradient-18" x1="-5443.80415" y1="779.17211" x2="-4750.10489" y2="722.86146" gradientTransform="matrix(-1, 0, 0, 1, -4784.3648, 0)" gradientUnits="userSpaceOnUse">
      <stop offset="0.00005" stop-color="#ffb348"/>
      <stop offset="1" stop-color="#e68e2b"/>
    </linearGradient>
    <linearGradient id="linear-gradient-19" x1="498.29625" y1="286.27363" x2="560.46092" y2="286.27363" gradientUnits="userSpaceOnUse">
      <stop offset="0.00844" stop-color="#ffc63f"/>
      <stop offset="1" stop-color="#e68a23"/>
    </linearGradient>
    <linearGradient id="linear-gradient-20" x1="653.76033" y1="278.00386" x2="696.05907" y2="278.00386" xlink:href="#linear-gradient-10"/>
    <linearGradient id="linear-gradient-21" x1="666.98758" y1="242.94912" x2="692.45933" y2="312.45677" xlink:href="#linear-gradient-4"/>
    <linearGradient id="linear-gradient-22" x1="645.18652" y1="250.87825" x2="795.85837" y2="388.38251" xlink:href="#linear-gradient-8"/>
    <linearGradient id="linear-gradient-23" x1="645.50545" y1="239.79897" x2="792.00396" y2="371.33103" xlink:href="#linear-gradient-5"/>
    <linearGradient id="linear-gradient-24" x1="658.08959" y1="225.78294" x2="804.5881" y2="357.315" xlink:href="#linear-gradient-5"/>
    <linearGradient id="linear-gradient-25" x1="709.56257" y1="336.50079" x2="751.86131" y2="336.50079" xlink:href="#linear-gradient-10"/>
    <linearGradient id="linear-gradient-26" x1="719.61537" y1="300.43073" x2="750.96023" y2="370.67069" xlink:href="#linear-gradient-4"/>
    <linearGradient id="linear-gradient-27" x1="641.41659" y1="255.00919" x2="792.08845" y2="392.51344" xlink:href="#linear-gradient-8"/>
    <linearGradient id="linear-gradient-28" x1="641.33195" y1="244.44735" x2="787.83047" y2="375.97942" xlink:href="#linear-gradient-5"/>
    <linearGradient id="linear-gradient-29" x1="653.91609" y1="230.43132" x2="800.4146" y2="361.96339" xlink:href="#linear-gradient-5"/>
    <linearGradient id="linear-gradient-30" x1="765.36481" y1="326.81795" x2="807.66355" y2="326.81795" xlink:href="#linear-gradient-10"/>
    <linearGradient id="linear-gradient-31" x1="775.4176" y1="290.74789" x2="806.76247" y2="360.98785" xlink:href="#linear-gradient-4"/>
    <linearGradient id="linear-gradient-32" x1="671.59451" y1="221.9414" x2="822.26636" y2="359.44565" xlink:href="#linear-gradient-8"/>
    <linearGradient id="linear-gradient-33" x1="671.05135" y1="211.34632" x2="817.54986" y2="342.87838" xlink:href="#linear-gradient-5"/>
    <linearGradient id="linear-gradient-34" x1="683.63548" y1="197.33029" x2="830.134" y2="328.86235" xlink:href="#linear-gradient-5"/>
    <linearGradient id="linear-gradient-35" x1="432.40569" y1="471.73709" x2="479.54029" y2="595.88625" xlink:href="#linear-gradient-8"/>
    <linearGradient id="linear-gradient-36" x1="451.41633" y1="511.68045" x2="460.25406" y2="622.78343" gradientUnits="userSpaceOnUse">
      <stop offset="0" stop-color="#62788c"/>
      <stop offset="1" stop-color="#526575"/>
    </linearGradient>
    <linearGradient id="linear-gradient-37" x1="366.02066" y1="510.92601" x2="400.95077" y2="656.53825" xlink:href="#linear-gradient-36"/>
    <linearGradient id="linear-gradient-38" x1="420.16672" y1="595.72152" x2="806.92294" y2="726.6042" xlink:href="#linear-gradient-36"/>
    <linearGradient id="linear-gradient-39" x1="405.19712" y1="524.38904" x2="853.81749" y2="679.25986" xlink:href="#linear-gradient-8"/>
    <linearGradient id="linear-gradient-40" x1="454.3266" y1="502.23288" x2="720.30041" y2="763.99824" xlink:href="#linear-gradient-5"/>
    <linearGradient id="linear-gradient-41" x1="577.62635" y1="398.39219" x2="614.66068" y2="611.33957" xlink:href="#linear-gradient-36"/>
    <linearGradient id="linear-gradient-42" x1="529.97614" y1="425.36712" x2="795.94994" y2="687.13247" xlink:href="#linear-gradient-5"/>
    <linearGradient id="linear-gradient-43" x1="489.423" y1="394.73154" x2="740.2464" y2="759.18298" xlink:href="#linear-gradient-8"/>
    <linearGradient id="linear-gradient-44" x1="479.58911" y1="476.56422" x2="745.56292" y2="738.32958" xlink:href="#linear-gradient-5"/>
    <linearGradient id="linear-gradient-45" x1="716.98654" y1="471.74176" x2="767.90874" y2="664.90944" xlink:href="#linear-gradient-36"/>
    <linearGradient id="linear-gradient-46" x1="563.45603" y1="391.34896" x2="829.42984" y2="653.11432" xlink:href="#linear-gradient-5"/>
    <linearGradient id="linear-gradient-47" x1="549.52479" y1="353.36818" x2="800.34819" y2="717.81962" xlink:href="#linear-gradient-8"/>
    <linearGradient id="linear-gradient-48" x1="509.77365" y1="445.8944" x2="775.74746" y2="707.65976" xlink:href="#linear-gradient-5"/>
    <linearGradient id="linear-gradient-49" x1="404.93913" y1="587.07332" x2="661.40895" y2="779.92791" gradientUnits="userSpaceOnUse">
      <stop offset="0" stop-color="#3e4c59"/>
      <stop offset="1" stop-color="#293440"/>
    </linearGradient>
    <linearGradient id="linear-gradient-50" x1="194.63483" y1="439.46029" x2="688.70642" y2="771.08585" xlink:href="#linear-gradient-5"/>
    <linearGradient id="linear-gradient-51" x1="735.97299" y1="658.72171" x2="785.84308" y2="764.77456" xlink:href="#linear-gradient-8"/>
    <linearGradient id="linear-gradient-52" x1="752.07757" y1="693.65427" x2="789.32232" y2="755.51843" xlink:href="#linear-gradient-5"/>
    <linearGradient id="linear-gradient-53" x1="685.84014" y1="683.33928" x2="692.1528" y2="813.06463" xlink:href="#linear-gradient-36"/>
    <linearGradient id="linear-gradient-54" x1="355.17251" y1="435.80288" x2="564.72641" y2="525.13901" xlink:href="#linear-gradient-4"/>
    <linearGradient id="linear-gradient-55" x1="556.21666" y1="455.93345" x2="548.04643" y2="594.82724" xlink:href="#linear-gradient-16"/>
    <linearGradient id="linear-gradient-56" x1="542.91733" y1="454.92005" x2="534.65442" y2="595.38945" xlink:href="#linear-gradient-16"/>
    <linearGradient id="linear-gradient-57" x1="498.6481" y1="449.26966" x2="490.06447" y2="595.19137" xlink:href="#linear-gradient-16"/>
    <linearGradient id="linear-gradient-58" x1="500.61078" y1="429.39109" x2="493.12142" y2="490.32726" gradientUnits="userSpaceOnUse">
      <stop offset="0" stop-color="#cebcb3"/>
      <stop offset="1" stop-color="#bfa090"/>
    </linearGradient>
    <linearGradient id="linear-gradient-59" x1="482.54927" y1="427.17124" x2="475.05991" y2="488.10741" xlink:href="#linear-gradient-58"/>
    <linearGradient id="linear-gradient-60" x1="2659.00752" y1="687.76906" x2="2609.59015" y2="740.20252" gradientTransform="matrix(-1, 0, 0, 1, 2794.85556, 0)" xlink:href="#linear-gradient-16"/>
    <linearGradient id="linear-gradient-61" x1="2595.4253" y1="631.39519" x2="2626.05015" y2="648.09965" gradientTransform="matrix(-1, 0, 0, 1, 2794.85556, 0)" gradientUnits="userSpaceOnUse">
      <stop offset="0" stop-color="#f2883c"/>
      <stop offset="0.16716" stop-color="#e97d35"/>
      <stop offset="0.67368" stop-color="#d26124"/>
      <stop offset="0.96784" stop-color="#c9571e"/>
    </linearGradient>
    <linearGradient id="linear-gradient-62" x1="2612.14793" y1="593.31354" x2="2633.18318" y2="633.68266" xlink:href="#linear-gradient-61"/>
    <linearGradient id="linear-gradient-63" x1="2662.54927" y1="657.7001" x2="2637.02856" y2="673.94055" xlink:href="#linear-gradient-61"/>
    <linearGradient id="linear-gradient-64" x1="2594.80572" y1="650.80381" x2="2628.67866" y2="664.87887" xlink:href="#linear-gradient-61"/>
    <linearGradient id="linear-gradient-65" x1="2607.20689" y1="608.69385" x2="2624.22069" y2="639.47337" xlink:href="#linear-gradient-61"/>
    <linearGradient id="linear-gradient-66" x1="2685.00314" y1="615.67233" x2="2642.15928" y2="654.1854" xlink:href="#linear-gradient-61"/>
    <linearGradient id="linear-gradient-67" x1="2661.13619" y1="595.02722" x2="2640.87429" y2="630.44687" xlink:href="#linear-gradient-61"/>
    <linearGradient id="linear-gradient-68" x1="26.42364" y1="333.27447" x2="357.88698" y2="333.27447" xlink:href="#linear-gradient-8"/>
    <linearGradient id="linear-gradient-69" x1="176.04364" y1="155.3374" x2="252.9579" y2="361.86643" xlink:href="#linear-gradient-8"/>
    <linearGradient id="linear-gradient-70" x1="110.44513" y1="293.7959" x2="344.78925" y2="293.7959" xlink:href="#linear-gradient-8"/>
  </defs>
  <g>
    <g>
      <polygon class="cls-1" points="516.224 76.29 937.51 319.511 937.51 728.956 516.224 485.713 516.224 76.29"/>
      <polygon class="cls-2" points="516.224 443.905 517.51 473.002 680.699 559.13 516.224 180.804 516.224 443.905"/>
      <polygon class="cls-3" points="516.24 76.29 94.953 319.511 94.953 728.956 516.24 485.713 516.24 76.29"/>
    </g>
    <path class="cls-4" d="M102.223,741.55987,494.4336,967.99278a43.61723,43.61723,0,0,0,43.61687-.00064L930.241,741.55565a14.53908,14.53908,0,0,0,.00017-25.18217L538.03348,489.9199a43.61721,43.61721,0,0,0-43.61994.00055L102.22215,716.37768A14.53907,14.53907,0,0,0,102.223,741.55987Z"/>
    <polygon class="cls-5" points="153.921 685.273 293.369 811.509 644.89 606.391 455.401 511.279 153.921 685.273"/>
  </g>
  <g>
    <g>
      <g>
        <g>
          <path class="cls-6" d="M118.78883,690.19911l375.9368-217.037a7.14111,7.14111,0,0,0,3.57068-6.18446V125.72583L118.78883,344.84541Z"/>
          <path class="cls-7" d="M486.40017,464.22359,130.68953,669.59l-11.878-6.85548V344.86388L474.52214,139.48552l11.878,6.85548Z"/>
          <polygon class="cls-8" points="229.396 294.727 229.396 598.895 130.69 655.879 130.691 648.999 223.444 595.463 223.444 298.163 229.396 294.727"/>
          <polygon class="cls-9" points="351.931 223.977 351.912 528.16 253.21 585.146 253.21 578.267 345.961 524.732 345.961 227.404 351.931 223.977"/>
          <polygon class="cls-10" points="474.522 153.196 474.482 457.403 375.745 514.405 375.745 507.526 468.496 453.991 468.496 156.675 474.522 153.196"/>
          <polygon class="cls-11" points="486.4 146.341 486.394 464.229 130.691 669.585 130.69 655.879 474.522 457.38 474.522 153.196 486.4 146.341"/>
          <path class="cls-12" d="M118.78873,344.8454V690.199L494.72556,473.16213a7.14112,7.14112,0,0,0,3.57069-6.18446V125.7258ZM363.8431,217.09946V534.9806L253.20992,598.85171v-317.875ZM130.69059,351.71679l110.61748-63.86814V605.723L130.69059,669.58485Zm355.7038,112.51215L375.745,528.10936V210.22757l110.64944-63.88666Z"/>
        </g>
        <polygon class="cls-13" points="241.308 605.723 229.396 598.895 229.396 294.727 241.308 287.849 241.308 605.723"/>
        <polygon class="cls-14" points="363.843 534.981 351.931 528.154 351.931 223.977 363.843 217.099 363.843 534.981"/>
      </g>
      <polygon class="cls-15" points="486.394 464.226 474.482 457.403 474.522 153.196 486.394 146.344 486.394 464.226"/>
    </g>
    <g>
      <circle class="cls-16" cx="504.30217" cy="147.371" r="8.34757"/>
      <path class="cls-17" d="M503.26194,153.27018,135.91,365.40516l-4.06721-7.04461L499.20839,146.21767l.00186.00322a2.04854,2.04854,0,0,1,2.021.21531,6.35853,6.35853,0,0,1,2.88545,4.97706A1.99562,1.99562,0,0,1,503.26194,153.27018Z"/>
      <path class="cls-3" d="M495.23109,157.88477a9.92369,9.92369,0,0,0-1.30421-3.87733,9.58173,9.58173,0,0,0-2.81968-3.13724,6.366,6.366,0,0,0-3.5955-1.19836,5.16373,5.16373,0,0,0-2.52064.65189,5.70071,5.70071,0,0,0-2.60841,5.58731l4.37088-2.52042a1.3919,1.3919,0,0,1,.75817-.19385c1.0925,0,2.44964.98687,3.36615,2.57313.96945,1.67426,1.11058,3.45437.44062,4.37088a1.39076,1.39076,0,0,1-.44062.40533,1.21941,1.21941,0,0,1-.54646.15878l-3.895,2.256a6.22184,6.22184,0,0,0,3.6837,1.30421,4.94478,4.94478,0,0,0,2.52021-.67,5.48959,5.48959,0,0,0,2.62606-4.95242C495.26638,158.396,495.24873,158.13176,495.23109,157.88477Z"/>
      <path class="cls-3" d="M473.16564,170.63827a9.92383,9.92383,0,0,0-1.3042-3.87733,9.58164,9.58164,0,0,0-2.81969-3.13724,6.36588,6.36588,0,0,0-3.5955-1.19836,5.16359,5.16359,0,0,0-2.52063.65189,5.70071,5.70071,0,0,0-2.60842,5.58731l4.37088-2.52042a1.39192,1.39192,0,0,1,.75817-.19385c1.09251,0,2.44964.98687,3.36616,2.57313.96944,1.67426,1.11057,3.45436.44061,4.37088a1.39073,1.39073,0,0,1-.44061.40533,1.21949,1.21949,0,0,1-.54647.15878l-3.895,2.256a6.22184,6.22184,0,0,0,3.68371,1.30421,4.94468,4.94468,0,0,0,2.5202-.67,5.48956,5.48956,0,0,0,2.62606-4.95241C473.20093,171.14946,473.18329,170.88526,473.16564,170.63827Z"/>
      <path class="cls-3" d="M443.35373,187.86919a9.92368,9.92368,0,0,0-1.30421-3.87734,9.58173,9.58173,0,0,0-2.81968-3.13724,6.366,6.366,0,0,0-3.5955-1.19836,5.1637,5.1637,0,0,0-2.52064.65189,5.70071,5.70071,0,0,0-2.60841,5.58731l4.37088-2.52042a1.3919,1.3919,0,0,1,.75817-.19385c1.0925,0,2.44964.98687,3.36615,2.57313.96945,1.67426,1.11058,3.45437.44062,4.37088a1.39076,1.39076,0,0,1-.44062.40533,1.21945,1.21945,0,0,1-.54646.15878l-3.895,2.256a6.22184,6.22184,0,0,0,3.6837,1.30421,4.94478,4.94478,0,0,0,2.52021-.67,5.4896,5.4896,0,0,0,2.626-4.95242C443.389,188.38037,443.37137,188.11617,443.35373,187.86919Z"/>
      <path class="cls-3" d="M141.88707,361.953a9.92384,9.92384,0,0,0-1.30421-3.87734,9.58164,9.58164,0,0,0-2.81969-3.13724,6.3659,6.3659,0,0,0-3.59549-1.19836,5.1637,5.1637,0,0,0-2.52064.65189,5.7007,5.7007,0,0,0-2.60841,5.58731l4.37088-2.52042a1.3919,1.3919,0,0,1,.75817-.19385c1.0925,0,2.44963.98687,3.36615,2.57313.96944,1.67426,1.11058,3.45437.44062,4.37088a1.391,1.391,0,0,1-.44062.40534,1.21948,1.21948,0,0,1-.54647.15877l-3.895,2.256a6.22187,6.22187,0,0,0,3.68371,1.30421,4.94474,4.94474,0,0,0,2.5202-.67,5.48959,5.48959,0,0,0,2.62606-4.95242C141.92235,362.46417,141.90471,362.2,141.88707,361.953Z"/>
      <circle class="cls-18" cx="128.8748" cy="364.1482" r="8.34757"/>
    </g>
    <path class="cls-19" d="M136.99686,370.46631a20.20362,20.20362,0,0,0,11.58727,1.46247c11.31427-2.02786,13.27451-14.983,13.27451-14.983s6.4443,3.95937,11.40471,1.89981c9.07879-3.7695,10.43062-15.6009,10.43062-15.6009-6.87817,60.9903-19.83225,122.669-37.34928,184.86459,8.9803,41.4658,14.43514,89.00633,17.99965,139.804,1.2,13.42475-11.981,19.29339-21.37457,15.97471,1.18121,9.39356-15.97471,11.64351-15.97471,5.39992V535.27846Z"/>
    <path class="cls-20" d="M137.27813,534.866l36.83363-176.43909c-.28184.14071-.54991.29475-.84853.41868-4.96037,2.05979-11.40436-1.89961-11.40436-1.89961s-.01162.35025-.09294.91845Z"/>
    <circle class="cls-3" cx="138.86122" cy="368.90356" r="2.81244"/>
    <path class="cls-3" d="M164.42473,348.9282a9.92368,9.92368,0,0,0-1.30421-3.87734,9.58173,9.58173,0,0,0-2.81968-3.13724,6.366,6.366,0,0,0-3.5955-1.19836,5.1637,5.1637,0,0,0-2.52064.65189,5.70072,5.70072,0,0,0-2.60841,5.58731l4.37088-2.52042a1.3919,1.3919,0,0,1,.75817-.19385c1.0925,0,2.44964.98687,3.36615,2.57313.96945,1.67426,1.11058,3.45437.44062,4.37088a1.3909,1.3909,0,0,1-.44062.40534,1.21944,1.21944,0,0,1-.54646.15877l-3.895,2.256a6.22184,6.22184,0,0,0,3.6837,1.30421,4.94478,4.94478,0,0,0,2.52021-.67,5.4896,5.4896,0,0,0,2.62605-4.95242C164.46,349.43938,164.44237,349.17518,164.42473,348.9282Z"/>
    <circle class="cls-3" cx="161.39888" cy="355.87877" r="2.81244"/>
    <path class="cls-3" d="M186.13345,336.39043a9.92368,9.92368,0,0,0-1.30421-3.87734,9.58172,9.58172,0,0,0-2.81968-3.13724,6.36594,6.36594,0,0,0-3.5955-1.19835,5.16369,5.16369,0,0,0-2.52063.65188,5.7007,5.7007,0,0,0-2.60842,5.58731l4.37088-2.52042a1.3919,1.3919,0,0,1,.75817-.19384c1.09251,0,2.44964.98686,3.36615,2.57313.96945,1.67425,1.11058,3.45436.44062,4.37088a1.391,1.391,0,0,1-.44062.40533,1.21941,1.21941,0,0,1-.54646.15878l-3.895,2.256a6.22184,6.22184,0,0,0,3.6837,1.30421,4.94468,4.94468,0,0,0,2.52021-.67,5.48959,5.48959,0,0,0,2.62606-4.95242C186.16874,336.90161,186.15109,336.63742,186.13345,336.39043Z"/>
    <circle class="cls-3" cx="182.9382" cy="342.86454" r="2.81244"/>
    <path class="cls-21" d="M495.9546,470.34832V319.765l-5.74-153.74179c.613,16.4199-13.03387,18.71863-20.51493,14.78118.225,15.6372-18.79492,19.11261-29.37183,15.10023,8.01823,46.25471,17.50555,94.15244,34.91581,131.77328-7.96907,63.318-10.70119,107.29-10.70119,162.75146,0,7.46231,19.68712,4.01238,19.68712-10.34984C491.14824,483.792,495.95553,477.43585,495.9546,470.34832Z"/>
    <circle class="cls-3" cx="490.57902" cy="165.91071" r="2.81244"/>
    <circle class="cls-3" cx="440.32788" cy="194.81976" r="2.81244"/>
    <path class="cls-20" d="M492.38985,479.515l-5.36151-146.99514-2.79871,147.55967C487.53124,481.85117,490.343,481.3145,492.38985,479.515Z"/>
    <path class="cls-20" d="M481.14924,181.79577a15.30717,15.30717,0,0,1-11.44955-.99136l17.32865,149.649Z"/>
    <circle class="cls-3" cx="469.56068" cy="178.73546" r="2.81244"/>
    <path class="cls-20" d="M136.59487,538.39088l6.37493,145.49719,3.19974.7416a17.589,17.589,0,0,0,7.75124-.72493Z"/>
    <path class="cls-22" d="M125.82128,534.538c6.46118,4.80916,19.28593,2.053,22.91374-6.04195"/>
    <path class="cls-22" d="M473.18826,328.50753c6.46117,4.80916,21.52457,2.625,25.108-6.33738"/>
  </g>
  <g>
    <path class="cls-23" d="M656.16716,801.69969l-274.285-158.38221a28.04175,28.04175,0,0,0-28.042-.00169L244.455,706.46119a9.34725,9.34725,0,0,0-.0023,16.18911L518.69857,881.06966a28.04175,28.04175,0,0,0,28.04888.00229L656.16716,817.889A9.34725,9.34725,0,0,0,656.16716,801.69969Z"/>
    <g class="cls-24">
      <path class="cls-25" d="M850.48057,720.74062,542.81492,543.0832a31.45449,31.45449,0,0,0-31.4547-.0019L388.66275,613.91153a10.48482,10.48482,0,0,0-.00258,18.15935L696.282,809.77a31.45448,31.45448,0,0,0,31.46244.00257l122.73616-70.87236A10.48482,10.48482,0,0,0,850.48057,720.74062Z"/>
    </g>
    <path class="cls-26" d="M599.79362,791.70874,399.18765,675.8715a15.77591,15.77591,0,0,0-15.776-.00095L300.82807,723.544a5.25864,5.25864,0,0,0-.00129,9.10778L501.405,848.51665a15.77593,15.77593,0,0,0,15.77992.00128l82.60873-47.7013A5.25864,5.25864,0,0,0,599.79362,791.70874Z"/>
  </g>
  <g>
    <g>
      <path class="cls-27" d="M552.00329,473.05006c-2.42459-5.91582-11.62148-10.32329-22.6248-10.32329s-20.20022,4.40747-22.62472,10.32329h-.64559v3.09078c0,7.4084,10.41843,13.41407,23.27031,13.41407s23.27039-6.00567,23.27039-13.41407v-3.09078Z"/>
      <ellipse class="cls-27" cx="529.37853" cy="472.59481" rx="23.27036" ry="13.41411"/>
    </g>
    <path class="cls-27" d="M526.3294,305.83135V469.812c0,.97073,1.36514,1.75766,3.04913,1.75766s3.04913-.78693,3.04913-1.75766V305.83135Z"/>
    <g>
      <path class="cls-28" d="M560.36864,293.36468h.00163l-.005-.02539a10.70268,10.70268,0,0,0-.28759-1.46535l-6.25589-31.8651h-48.8911L498.673,291.89476a10.69555,10.69555,0,0,0-.27637,1.40873l-.01211.06119h.00384a10.45643,10.45643,0,0,0-.09212,1.31034c0,9.86571,13.91607,17.86339,31.08218,17.86339,17.16641,0,31.08249-7.99768,31.08249-17.86339A10.42823,10.42823,0,0,0,560.36864,293.36468Z"/>
      <ellipse class="cls-26" cx="529.37853" cy="261.21361" rx="24.53725" ry="14.10187"/>
      <path class="cls-27" d="M520.23522,274.293a41.393,41.393,0,0,0,18.28651,0v-7.19521H520.23522Z"/>
      <ellipse class="cls-27" cx="529.37853" cy="267.09784" rx="9.1433" ry="5.27062"/>
      <path class="cls-29" d="M529.37852,248.32114c12.863,0,23.32773,5.78351,23.32773,12.89243s-10.46471,12.89254-23.32773,12.89254-23.32773-5.78361-23.32773-12.89254,10.46472-12.89243,23.32773-12.89243m0-1.20942c-13.55149,0-24.53724,6.31364-24.53724,14.10185,0,7.78832,10.98575,14.10195,24.53724,14.10195s24.53725-6.31363,24.53725-14.10195c0-7.78821-10.98576-14.10185-24.53725-14.10185Z"/>
    </g>
  </g>
  <g>
    <g>
      <polygon class="cls-30" points="696.059 258.161 653.76 233.701 653.76 297.846 696.059 322.307 696.059 258.161"/>
      <polygon class="cls-31" points="696.059 261.504 662.912 242.336 662.912 292.603 696.059 311.772 696.059 261.504"/>
      <path class="cls-32" d="M657.55347,240.27582l34.71246,20.07379v55.3823L657.55347,295.6581V240.27582m-3.79314-6.57525V297.8463l42.29874,24.46086V258.16141l-42.29874-24.46084Z"/>
      <polygon class="cls-33" points="702.908 318.364 702.908 254.218 696.059 258.161 696.059 322.307 702.908 318.364"/>
      <polygon class="cls-34" points="702.908 254.218 660.595 229.766 653.76 233.701 696.059 258.161 702.908 254.218"/>
    </g>
    <g>
      <polygon class="cls-35" points="751.861 316.658 709.563 292.198 709.563 356.343 751.861 380.804 751.861 316.658"/>
      <polygon class="cls-36" points="751.861 320.001 718.714 300.833 718.714 351.1 751.861 370.269 751.861 320.001"/>
      <path class="cls-37" d="M713.35571,298.77275l34.71246,20.07379v55.3823L713.35571,354.155V298.77275m-3.79314-6.57525v64.14573l42.29874,24.46086V316.65834L709.56257,292.1975Z"/>
      <polygon class="cls-38" points="758.711 376.861 758.711 312.715 751.861 316.658 751.861 380.804 758.711 376.861"/>
      <polygon class="cls-39" points="758.711 312.715 716.397 288.263 709.563 292.198 751.861 316.658 758.711 312.715"/>
    </g>
    <g>
      <polygon class="cls-40" points="807.664 306.976 765.365 282.515 765.365 346.66 807.664 371.121 807.664 306.976"/>
      <polygon class="cls-41" points="807.664 310.319 774.517 291.15 774.517 341.417 807.664 360.586 807.664 310.319"/>
      <path class="cls-42" d="M769.158,289.08991,803.8704,309.1637V364.546L769.158,344.47219V289.08991m-3.79314-6.57525v64.14573l42.29873,24.46086V306.9755l-42.29873-24.46084Z"/>
      <polygon class="cls-43" points="814.513 367.178 814.513 303.032 807.664 306.976 807.664 371.121 814.513 367.178"/>
      <polygon class="cls-44" points="814.513 303.032 772.2 278.58 765.365 282.515 807.664 306.976 814.513 303.032"/>
    </g>
  </g>
  <g>
    <g>
      <g>
        <g>
          <path class="cls-45" d="M364.49971,511.12512l3.87691,15.03171,27.99186,108.46848a.57666.57666,0,0,0,.15394.01393c.16794.014.33589.014.48991.014a15.90326,15.90326,0,0,0,7.97761-2.14134l2.70121-1.55352.79777-.46189,113.91293-65.83693,1.21764-.6998a8.37611,8.37611,0,0,0,4.19878-7.26389V472.06251c.028-8.70543-3.93286-19.72031-10.44091-27.642-4.12882-5.0385-9.27931-8.81742-15.08766-9.97911a10.47588,10.47588,0,0,0-6.96995,1.09173h-.014c-.112.05595-.196.13992-.308.20988v-.02793l-130.48407,75.41Z"/>
          <path class="cls-46" d="M520.88894,467.22318v.03143c.12609-.07876.22065-.17332.34665-.23628h.01581a11.30712,11.30712,0,0,1,5.93562-1.41412,34.91765,34.91765,0,0,1,.63129,6.45826v84.63337a8.37611,8.37611,0,0,1-4.19878,7.26389l-1.21764.6998L408.489,630.49646l-.79778.46189L404.99,632.51187a15.90323,15.90323,0,0,1-7.97761,2.14134c-.154,0-.322,0-.48991-.014a.57655.57655,0,0,1-.15393-.01393l-21.43282-83.05208Z"/>
          <path class="cls-47" d="M368.22268,547.6965v67.99227c0,.182,0,.37792.014.55988a8.42328,8.42328,0,0,0,4.18477,6.718l11.53264,6.63406,5.05251,2.91117.084.042a15.8356,15.8356,0,0,0,7.2779,2.07145.57666.57666,0,0,0,.15394.01393c.16794.014.33589.014.48991.014V547.65456c.04194-10.371-5.58445-24.01707-14.44382-31.81273a28.54472,28.54472,0,0,0-3.21913-2.47731,22.255,22.255,0,0,0-7.86571-3.331,10.47638,10.47638,0,0,0-6.97,1.09164h-.014c-3.83487,2.22539-5.31843,6.8161-5.52841,11.05682C358.48148,530.14563,362.44235,540.53059,368.22268,547.6965Z"/>
        </g>
        <g>
          <path class="cls-48" d="M407.441,622.47432,692.093,787.031l132.143-85.402L771.627,671.27328,539.48244,536.81275,411.86456,551.76488a20.54255,20.54255,0,0,0-1.47828,2.223,21.78265,21.78265,0,0,0-2.92275,10.91228Z"/>
          <path class="cls-49" d="M410.38628,553.98792,692.12681,717.17913,771.627,671.27328l42.38151-32.98266L529.24367,473.47442,420.41833,544.82481l-2.0764,1.19617-.0113.01129a21.63935,21.63935,0,0,0-6.46607,5.73261A20.54255,20.54255,0,0,0,410.38628,553.98792Z"/>
          <path class="cls-50" d="M626.6227,589.25568l-70.05143,40.76a15.40729,15.40729,0,0,0-7.71442,12.94466l-.54454,31.7654-6.266-3.614-.00051-29.18624a20.50007,20.50007,0,0,1,10.028-17.62412l66.96075-39.78867Z"/>
          <g>
            <path class="cls-51" d="M506.49368,412.1926l.687-.78608c5.04777-5.776,18.92587-13.03358,27.82237-14.11393,8.22342-.99862,12.325.65627,19.02949,4.27032l94.225,54.49858A35.46222,35.46222,0,0,1,664.99823,495.13L643.57131,583.7266Z"/>
            <path class="cls-52" d="M590.25141,526.62128l73.09544-50.662a35.38569,35.38569,0,0,1,.96435,19.95676L642.61048,588.9004l-29.38674-.93467-33.71146-51.77718A35.38158,35.38158,0,0,1,590.25141,526.62128Z"/>
            <path class="cls-53" d="M613.22371,587.96579l21.42692-88.59657A35.46218,35.46218,0,0,0,617.91,460.30067l-88.042-51.01179a19.45231,19.45231,0,0,0-28.62708,12.26652l-20.26423,83.78794a7.37314,7.37314,0,0,0,3.474,8.1151Z"/>
            <path class="cls-54" d="M613.22374,587.96573,484.04452,513.22346A6.7418,6.7418,0,0,1,480.86876,505.8l1.02915-4.24623.22278-.94064L615.6615,577.90761Z"/>
          </g>
          <g>
            <path class="cls-55" d="M648.38091,494.0847l.687-.78608c5.04778-5.776,18.92588-13.03358,27.82237-14.11394,8.22342-.99861,12.325.65628,19.02949,4.27033l103.59528,59.93165a35.46222,35.46222,0,0,1,16.74063,39.06854L794.8288,671.05177Z"/>
            <path class="cls-56" d="M762.15983,618.51174l50.87424-29.37121c.343-.21237,1.09438-.58815,1.09438-.58815.23312-.10823.4759-.19084.71688-.278l-19.7221,81.56229Z"/>
            <path class="cls-57" d="M765.16823,674.50488l21.42693-88.59658a35.4622,35.4622,0,0,0-16.74064-39.06855l-97.41227-56.44486a19.45231,19.45231,0,0,0-28.62707,12.26653L622.25569,591.805Z"/>
            <polygon class="cls-58" points="765.168 674.505 622.256 591.805 624.701 581.717 767.608 664.44 765.168 674.505"/>
          </g>
          <polygon class="cls-59" points="407.464 630.958 674.438 785.447 674.438 747.739 407.464 593.25 407.464 630.958"/>
          <polygon class="cls-60" points="407.464 602.324 674.438 756.813 674.438 741.498 407.464 587.009 407.464 602.324"/>
        </g>
        <g>
          <path class="cls-61" d="M675.44182,691.76667l23.28925,117.7478c.16795.014.33589.014.48983.014a15.9031,15.9031,0,0,0,7.9777-2.14142l2.7012-1.55353,113.87425-65.73732a8.3819,8.3819,0,0,0,4.19878-7.2779V665.94578s3.65291-2.14142,3.72288-2.18336c7.43183-4.29676,7.41782-18.22274-.014-31.11294-7.20786-12.48443-18.74058-19.38442-26.21436-15.91345,0,0-.64384.322-.9377.50392L676.7014,691.03885Z"/>
          <polygon class="cls-62" points="695.177 752.876 696.6 741.759 827.976 665.987 827.976 676.283 695.177 752.876"/>
          <path class="cls-63" d="M670.43125,703.67722v86.8867a8.38189,8.38189,0,0,0,4.19878,7.2779l11.53264,6.63406,5.05251,2.91118.084.042a15.907,15.907,0,0,0,7.43192,2.08538c.16795.014.33589.014.48983.014V739.25486a9.27455,9.27455,0,0,0,3.72288-1.16168c7.43184-4.29677,7.41791-18.22265-.01393-31.11294-7.20794-12.48435-18.75458-19.41235-26.22845-15.94139-.2379.112-.47581.224-.71372.36391a6.156,6.156,0,0,0-.54586.36391C672.11078,693.992,670.43125,698.3587,670.43125,703.67722Z"/>
        </g>
      </g>
      <g>
        <path class="cls-64" d="M468.78181,543.75625l-.64691,7.7159L405.1086,494.698c1.84312,24.88909,10.536,47.09713,20.02494,65.99477,4.32326,5.611,17.99864,10.16688,30.55008,5.49728a19.46986,19.46986,0,0,1,17.65448,1.7883s55.33989,41.147,94.23986,61.64088,118.32353,56.04772,118.32353,56.04772L709.25807,672.332Z"/>
        <path class="cls-65" d="M511.37759,417.90723a9.2157,9.2157,0,0,0,.735-1.83848c.93721-3.45483-.19929-6.76982-2.53853-7.40441-2.339-.63458-4.99515,1.65159-5.93235,5.10632a9.40645,9.40645,0,0,0-.26612,1.45907c-11.72642,5.94088-38.753,34.37269-38.753,34.37269-21.82479,2.72844-41.5838,11.38661-59.733,24.66536a12.72843,12.72843,0,0,0-6.14888-1.00887c-4.86325.3249-8.652,2.888-8.46256,5.72493.18942,2.83709,4.2857,4.87351,9.14876,4.54872a14.839,14.839,0,0,0,2.17384-.31183c6.85058,26.19174,20.763,50.30551,42.50086,72.11663-.03641.036-.07572.06392-.11214.10052-3.43429,3.45861-4.583,7.88637-2.56526,9.88987,2.01774,2.00341,6.43727.82381,9.87157-2.63479a12.97578,12.97578,0,0,0,3.09865-4.83071c34.98326-3.24943,85.31723-40.83127,96.19011-73.30795C543.38537,458.48981,529.79906,436.61322,511.37759,417.90723Z"/>
        <path class="cls-66" d="M450.80533,452.17961l9.14194,28.03485a31.30267,31.30267,0,0,1,1.50618,8.2003l1.69822,35.29531,36.6779-32.44079-34.01834-44.16717Z"/>
        <path class="cls-67" d="M596.79769,510.50333c-7.10022-9.82447-49.9058-33.49213-65.27946-36.21064-13.5957-2.404-21.58618,3.78833-21.58618,3.78833l46.83057,34.90112a8.22471,8.22471,0,0,0,7.24682,1.0481L589.4,531.53665C593.62669,525.05594,600.27633,515.65494,596.79769,510.50333Z"/>
        <path class="cls-68" d="M594.93976,510.34258c3.10914,2.93821,1.825,9.5185-2.8999,14.73227s-11.08714,7.07111-14.21047,4.14848-1.825-9.51851,2.8999-14.73228S590.99641,506.616,594.93976,510.34258Z"/>
        <path class="cls-69" d="M593.75514,510.18418c2.59571.681,8.86586,5.98627,8.86586,5.98627l-18.07863,1.05628-2.83694-2.58461C585.374,511.14519,591.15943,509.50321,593.75514,510.18418Z"/>
        <polygon class="cls-20" points="555.009 497.61 579.512 516.591 571.369 520.846 562.518 515.538 555.009 497.61"/>
        <path class="cls-70" d="M583.45451,533.76193c6.984,2.47583,18.58924.83378,20.55356-2.543L601.1704,529.976l-7.03507-4.513-15.99991,2.74474-5.13525,7.94922A36.06974,36.06974,0,0,0,583.45451,533.76193Z"/>
        <path class="cls-71" d="M606.75514,529.07779l-12.89362-7.78723-24.12766-6.47708c-3.63427-8.63843-26.1942-27.93772-26.1942-27.93772-10.37541-13.1148-21.42369-15.54738-33.10444-9.06631-8.3937,5.17712-20.60868,11.69884-28.52056,18.65835-13.38929,9.19916-20.68473,22.47637-18.76294,41.60327.558.4124,39.40394,28.46913,39.90752,28.85882l21.50166,10.21394,15.2318,19.85969C566.41472,632.54588,634.96791,541.69482,606.75514,529.07779Z"/>
        <path class="cls-72" d="M516.65367,475.19925a29.1557,29.1557,0,0,0-6.2185,2.6101c-2.535,1.56372-5.42115,3.25171-8.42945,5.03565-1.91406,1.227-3.77795,2.39087-5.45068,3.3479-.6023.34448-1.20117.69751-1.79932,1.05151a101.48082,101.48082,0,0,0-12.84106,9.22339c-.70679.4856-1.387.989-2.05933,1.49756,1.99951,1.26611,19.83716,11.79761,39.262-2.34058C529.88,487.79129,520.04015,478.07913,516.65367,475.19925Z"/>
        <path class="cls-20" d="M592.66661,525.71512l-14.531,2.49267-1.17383,1.8169c-8.85132-.02027-21.65039,1.512-21.65039,1.512-3.47913-3.583-35.98462,20.45825-35.98462,20.45825l-30.25-26.28516,16.718,38.15748,8.25867,8.2854c2.4137,1.14648,4.80408,2.282,6.69812,3.18164l.91028.43261c.1427.06763.28259.134.41687.198l2.48218,1.179,15.23181,19.85962c4.07214,5.43652,9.15124,7.84765,14.725,8.01513l2.05554-3.11108c-1.06275-7.16309-10.30921-21.575-7.13721-28.085L583.72691,533.845c6.90552,2.30469,20.57113,2.26912,22.7601-.96892C602.86835,530.88634,596.59508,527.39969,592.66661,525.71512Z"/>
        <path class="cls-68" d="M610.76261,536.06173c10.45262,9.88179,5.62627,32.55141-10.89074,50.75549s-38.42042,24.99473-48.92264,15.16733S545.323,569.43315,561.84,551.22906,597.50543,523.52854,610.76261,536.06173Z"/>
        <path class="cls-72" d="M736.26548,656.6508l-21.29011-95.84738c-2.42555-10.04267-10.39373-13.5-18-13.14894-8.29788.383-18.78527-1.906-18.78527-1.906-15.31915,2.10638-12.88161,42.2173,2.82677,39.91169l9.75675-1.1475c.68082,19.4104,16.92854,52.58825,33.25532,79.37584Z"/>
        <path class="cls-68" d="M719.24171,559.9098c-2.42554-10.043-8.66911-17.52766-20.6383-18.9611-21.35737-2.55778-73.63474,0-73.63474,0l-5.696,35.30682,13.09765,22.36377,50.9806-2.71171s15.08577,38.34876,23.4808,52.56844c2.78406,5.62427,30.24543-.85106,28.288-10.12766Z"/>
        <path class="cls-72" d="M746.75235,696.4103c-4.36946-3.26743,1.1313-17.64421,5.79034-16.70285,0,0,3.5569-6.46087,8.44858-15.35276,0,0,1.22994-2.50928,2.22752-4.17611,2.1882-3.65622,10.41824-8.40771,13.6515-7.80938,3.12617.57851,5.40757,4.61929,3.78352,10.47745-.63574,7.66733-1.07013,16.26706-5.62539,23.37093-4.80384,7.49154-2.43052,19.152-12.26091,19.172C756.52859,705.40231,746.75235,696.4103,746.75235,696.4103Z"/>
        <path class="cls-72" d="M577.63551,515.26971l.90722,15.032a86.25619,86.25619,0,0,1,19.14858.10165c12.98293,1.38717,10.93507-18.28544-5.04255-17.08325C586.89329,513.75106,577.63551,515.26971,577.63551,515.26971Z"/>
        <path class="cls-72" d="M576.29975,514.97423l5.92068.35286c8.72341.42493,8.8755,14.25532.45243,13.40126l-1.04817-1.204Z"/>
        <path class="cls-72" d="M547.50113,536.39923s2.41319-7.64116,6.18105-11.48773c2.5013-2.55356,5.34917-1.71751,9.39145-2.08379,6.66228-.60367,15.96932,6.25416,11.7932,11.1843s-11.604,10.11339-18.2936,10.11339Z"/>
        <path class="cls-73" d="M521.819,557.48205c-4.23449-5.43011-37.84428-37.472-37.84428-37.472-16.83679-14.54566-26.86369,13.42685-17.3112,28.38266,6.31909,9.89355,25.89063,26.74892,33.35872,30.834C508.89455,584.65226,527.2445,564.4395,521.819,557.48205Z"/>
        <path class="cls-68" d="M518.83393,557.96956c3.10914,2.93821,1.825,9.5185-2.8999,14.73228s-11.08714,7.07111-14.21047,4.14847-1.825-9.5185,2.8999-14.73228S514.89058,554.243,518.83393,557.96956Z"/>
        <path class="cls-69" d="M563.07368,522.82772c-4.04208.36627-6.89017-.46976-9.39129,2.08383-.17083.17426-.33544.36427-.50049.55306a5.01251,5.01251,0,0,0-.45257,2.0125c0,4.63786,1.72287,10.78617,7.26953,11.83241,2.45409.46289,8.62059-3.07416,10.67269-3.07416q1.218,0,2.32853-.07831c.65179-.72666,1.277-1.449,1.86663-2.14505C579.04279,529.08186,569.7358,522.22407,563.07368,522.82772Z"/>
        <path class="cls-72" d="M583.21906,525.19577c0,6.68957-2.94876,6.60252-11.0783,8.29423-2.00877.418-8.21835,3.537-10.6723,3.07408-5.54674-1.04623-6.84419-5.22251-6.84419-9.86027,0-6.68957,12.741-11.89033,19.43054-11.89033S583.21906,518.5062,583.21906,525.19577Z"/>
        <path class="cls-74" d="M738.11684,660.4395c-12.45642-11.87476-39.40514-34.68489-50.12853-43.15316-6.559-5.17944-66.31237-38.40576-66.31237-38.40576l3.86682-37.93188-22.63906-8.09863c-9.29145-4.45142-50.16794,15.64075-54.9462,52.50225a24.98081,24.98081,0,0,0,2.31528,14.19812c5.77986,11.772,15.10061,16.74844,25.73766,23.01069,14.23438,8.91138,85.51066,34.24007,85.51066,34.24007,14.55212,13.57715,57.82979,30.12766,57.82979,30.12766C731.436,694.93711,748.37844,668.81645,738.11684,660.4395Z"/>
        <path class="cls-72" d="M724.48575,683.81995l16.07511,7.32068,8.95469-14.31985L736.26548,665.625C728.308,658.83773,714.574,679.09654,724.48575,683.81995Z"/>
        <path class="cls-72" d="M738.83745,690.123l7.9149,6.28727,8.29787-19.69149-5.53467.102C739.60341,672.07984,734.82121,686.89866,738.83745,690.123Z"/>
        <path class="cls-69" d="M485.513,480.79771l5.57015,10.17086a9.55184,9.55184,0,0,0,9.08349,4.95861c12.85373-.99236,16.27735-8.76723,12.57447-13.64492l-7.70673-7.38761Z"/>
      </g>
    </g>
    <path class="cls-72" d="M547.50113,536.39923l-28.3869,23.5509-1.21015-.7234c-6.78406-5.90161-21.08193,11.5452-14.29788,17.44681,0,0,7.95745,7.83914,17.82979,7.83914s35.13724-40.38728,35.13724-40.38728Z"/>
    <g>
      <path class="cls-75" d="M489.66151,426.624a23.22115,23.22115,0,0,1,17.441,12.74638c4.14952,8.167.76414,19.92609.76414,19.92609l-16.59453-24.60364Z"/>
      <path class="cls-72" d="M508.276,486.28218c-10.79988,4.23283-19.186,2.59873-25.71774-5.81776l-14.09179-18.21925c-5.89-7.19091-3.99394-19.11728,4.93249-25.2142,7.80159-5.32863,20.25724-4.38169,26.16439,4.25792a211.54942,211.54942,0,0,1,11.68551,20.03743C515.78739,470.606,518.09075,482.43546,508.276,486.28218Z"/>
      <path class="cls-76" d="M503.54467,447.4743c-1.6342.90835-6.09368.18987-10.96-3.90072,2.29489,6.15037,2.39228,10.58758-1.6546,17.52449a29.77781,29.77781,0,0,1-9.8284,9.60248l2.01248,1.10616-1.63213,3.6045c4.0736,5.00151,7.0203,9.13894,8.69869,14.007-7.30991,1.56819-13.38816-.01852-16.05636-7.65752,0,0-14.02952-5.51571-18.21369-19.55372-3.05874-10.26217,2.62094-21.73528,13.68411-29.322,8.96419-6.14733,20.66232-9.42274,29.52789-2.30768S503.54467,447.4743,503.54467,447.4743Z"/>
      <path class="cls-72" d="M485.965,478.88278c-3.06466,2.14629-8.64131-.3261-11.07682-3.80372s-1.47417-8.5131,2.25706-8.78987C481.82911,465.94175,489.02962,476.73649,485.965,478.88278Z"/>
    </g>
  </g>
  <g>
    <path class="cls-74" d="M516.75786,720.80508l-18.83206,9.08683s-11.97794,6.02392-19.31781,13.913c-7.12411,7.65717,3.56825,16.41542,17.85468,13.01,12.05118-2.87259,15.47191-7.99777,20.38941-11.85914,4.91786-3.86126,10.12591-4.72361,15.20482-10.3915,3.42491-3.82209,6.34151-8.54557-.928-12.83769A16.22065,16.22065,0,0,0,516.75786,720.80508Z"/>
    <path class="cls-77" d="M478.90426,744.10638c-1.85905,3.58542.25531,6.57447,4.21276,8.7697,6.1943,3.436,15.68181.9793,21.02176-1.62924s7.42926-4.48889,11.22332-8.253c0,0,1.80664-4.87524-3.97147-10.48671-5.66869-5.5052-12.3566-6.669-15.10139-5.2124C490.64375,730.73617,480.6443,738.38356,478.90426,744.10638Z"/>
  </g>
  <g>
    <path class="cls-74" d="M543.39218,735.382l-18.83206,9.08682s-12.14116,5.87516-19.31781,13.913c-4.74107,5.31,2.77186,15.67169,17.85468,13.01,12.2003-2.153,15.47191-7.99777,20.38941-11.85915,4.91786-3.86126,10.66283-4.57721,15.06666-10.78419,3.121-4.39891,6.0277-9.41657-1.59509-13.10748S543.39218,735.382,543.39218,735.382Z"/>
    <path class="cls-77" d="M505.9893,756.08511c-1.1829,4.27715.48942,7.91932,5.85113,10.97872,6.15236,3.51055,14.04675.76355,19.88508-1.80971s7.50158-4.35755,11.22332-8.25277a20.15044,20.15044,0,0,0-6.21314-11.91944c-5.66869-5.50521-12.20842-5.23643-14.95322-3.77982C516.321,745.68533,508.85031,751.38179,505.9893,756.08511Z"/>
  </g>
  <g>
    <g>
      <path class="cls-78" d="M130.35437,692.3471l57.44734.137-7.27143,44.96719c-.61616,6.5271-9.993,11.71465-21.50366,11.71465-11.51124,0-20.8875-5.18755-21.50365-11.71465Z"/>
      <ellipse class="cls-26" cx="159.09298" cy="690.32603" rx="28.95033" ry="16.63812"/>
      <path class="cls-79" d="M133.97581,698.59227c4.9962,5.01961,14.38494,8.36607,25.12173,8.36607s20.125-3.34646,25.12174-8.36607c-3.184-6.22809-13.223-10.783-25.12174-10.783S137.15985,692.36418,133.97581,698.59227Z"/>
      <path class="cls-29" d="M159.09292,677.64312c14.72991,0,24.99523,6.6841,24.99523,12.6829,0,5.99886-10.26532,12.683-24.99523,12.683s-24.99523-6.6841-24.99523-12.683c0-5.9988,10.26532-12.6829,24.99523-12.6829m0-3.95519c-15.98881,0-28.95036,7.4491-28.95036,16.63809s12.96155,16.63815,28.95036,16.63815,28.95036-7.44916,28.95036-16.63815-12.96154-16.63809-28.95036-16.63809Z"/>
    </g>
    <path class="cls-80" d="M168.41465,651.62747c13.57247-2.08925,40.28563-10.896,34.695-20.97089S171.51967,632.21934,168.41465,651.62747Z"/>
    <path class="cls-79" d="M162.45752,694.04834a1.06856,1.06856,0,0,0,1.069-1.06866c0-28.84822,5.24942-47.65551,17.55331-62.88758a1.06892,1.06892,0,0,0-1.66337-1.343c-12.63615,15.64389-18.028,34.85254-18.028,64.23055A1.06855,1.06855,0,0,0,162.45752,694.04834Z"/>
    <path class="cls-79" d="M157.66321,694.04834a1.06856,1.06856,0,0,0,1.069-1.06866c0-27.17089,0-64.38342-13.64827-81.28025a1.06892,1.06892,0,0,0-1.66336,1.343c13.17362,16.3098,13.17362,53.08467,13.17362,79.93727A1.06855,1.06855,0,0,0,157.66321,694.04834Z"/>
    <path class="cls-79" d="M157.16064,664.88113a1.069,1.069,0,0,0,1.06448-.98141c1.773-21.72918,6.48245-36.49776,14.82128-46.47657a1.06889,1.06889,0,0,0-1.64034-1.3709c-8.63583,10.3341-13.501,25.4831-15.312,47.673a1.06893,1.06893,0,0,0,.97861,1.15243C157.10236,664.88043,157.13168,664.88113,157.16064,664.88113Z"/>
    <path class="cls-81" d="M161.83822,636.7448c12.86045-9.6231,33.73344-34.95853,22.42018-42.28251S154.36642,615.00316,161.83822,636.7448Z"/>
    <path class="cls-82" d="M157.15956,675.07762c-10.76033-1.42016-31.43676-9.45168-27.19036-17.50781S154.37605,659.79432,157.15956,675.07762Z"/>
    <path class="cls-79" d="M157.61959,681.87358c.02548,0,.0513-.0007.07713-.00279a1.06846,1.06846,0,0,0,.99013-1.142c-1.33041-18.61534-9.62631-38.26653-22.90812-39.80775a1.0688,1.0688,0,1,0-.2464,2.12336c12.1266,1.4072,19.7545,20.09932,21.02209,37.83655A1.06859,1.06859,0,0,0,157.61959,681.87358Z"/>
    <path class="cls-79" d="M162.90809,680.16624a1.06973,1.06973,0,0,0,1.06063-.94791c1.38452-12.08471,12.506-20.66819,18.15221-22.57726a1.06912,1.06912,0,0,0-.68475-2.02564c-6.09436,2.06124-18.09776,11.32249-19.59151,24.36a1.06863,1.06863,0,0,0,.94022,1.18313A1.05092,1.05092,0,0,0,162.90809,680.16624Z"/>
    <path class="cls-83" d="M168.41465,665.41815c11.35611-.1213,34.63729-3.84015,31.23994-12.74286S173.22906,649.89267,168.41465,665.41815Z"/>
    <path class="cls-84" d="M172.508,640.91783c9.56291-7.7487,25.34693-27.39454,16.46772-32.66816S166.14406,624.49088,172.508,640.91783Z"/>
    <path class="cls-85" d="M150.95771,653.95328c-17.69964-4.74187-50.545-22.72966-41.66651-35.28165S149.657,627.75884,150.95771,653.95328Z"/>
    <path class="cls-86" d="M153.40237,632.71868c-12.03752-9.00734-32.20267-30.18573-21.61333-37.04106S160.39607,612.36825,153.40237,632.71868Z"/>
  </g>
  <g>
    <g>
      <path class="cls-87" d="M227.60773,94.46436a198.65275,198.65275,0,1,1-77.5835,15.65722,198.06091,198.06091,0,0,1,77.5835-15.65722m0-18.17383c-120.12525,0-217.50611,97.38086-217.50611,217.50586,0,120.12549,97.38086,217.50634,217.50611,217.50634,120.12536,0,217.5061-97.38085,217.5061-217.50634,0-120.125-97.38074-217.50586-217.5061-217.50586Z"/>
      <circle class="cls-88" cx="227.60775" cy="293.79658" r="201.18409"/>
      <path class="cls-89" d="M30.45263,253.55517a202.09828,202.09828,0,0,0-4.029,40.24157c0,111.11065,90.07319,201.18385,201.18418,201.18385a200.55068,200.55068,0,0,0,77.57048-15.50788L357.887,376.76057,131.84288,171.56836Z"/>
    </g>
    <g>
      <circle class="cls-90" cx="227.60775" cy="293.79658" r="154.4352"/>
      <circle class="cls-91" cx="227.60775" cy="293.79658" r="122.22836"/>
      <g>
        <g>
          <text class="cls-92" transform="translate(146.09537 295.46169)">20</text>
          <text class="cls-92" transform="translate(219.36783 295.46364)">min</text>
        </g>
        <text class="cls-92" transform="translate(175.69986 337.22243)">max</text>
      </g>
      <path class="cls-93" d="M227.60773,176.55811h-.23023q-.79576.00219-1.58911.01367l.24878,16.35449q.78406-.01171,1.57056-.01172V176.55811Zm-12.69922.67968q-.90491.09741-1.804.2085l2.00293,16.2334q.77454-.09522,1.55249-.1792l-1.75146-16.2627Zm-12.54932,2.0459-.21826.04834-.01318.00244-.03247.00733-.02735.00634-.01318.00293c-.20361.04493-.40479.09034-.60815.13672l-.01075.00244-.03247.00733-.02563.00586-.021.00488q-.38562.08789-.77.17871l3.75537,15.91992q.75953-.17945,1.52368-.34716l-3.50659-15.97608Zm-12.25268,3.40039c-.06031.02051-.12329.04151-.1836.062l-.00561.002-.03638.0122q-.18273.06226-.365.125l-.00171.00049-.04663.01612-.00928.00293-.04834.0166-.02563.00879-.01807.00634-.03686.0127-.00586.00195c-.31128.10742-.62378.2168-.93384.32715l5.47022,15.41455q.735-.26075,1.47534-.51074l-5.22876-15.49805Zm-11.80762,4.7168q-.20325.09375-.40576.189l-.01611.00782-.02735.01269-.0227.01074-.01636.00782c-.02026.00927-.04053.01855-.06055.02832l-.00757.00341-.0354.01661-.0061.00293-.03613.01709-.00635.00293-.11133.05273-.00659.00293-.032.01514-.01441.00683-.02832.01367-.03051.01416-.01246.00586-.04663.02246-.01074.00489-.04126.01953-.00488.00244q-.33252.15821-.66358.31787l7.11744,14.727q.70349-.33984,1.41259-.66943l-6.887-14.83545Zm-11.22534,5.97363-.02661.01612-.00952.00585-.021.0127q-.74927.45338-1.49121.917l8.67334,13.86768q.66284-.41455,1.33227-.81885l-8.45727-14.00049Zm-10.51172,7.15479c-.39673.30273-.79395.60937-1.18652.917l-.01856.01465-.01489.01172q-.10841.085-.21631.16992l10.12036,12.84961q.6145-.48414,1.23682-.959l-9.9209-13.0039Zm-9.67871,8.24707q-.5896.55956-1.17236,1.1289l-.00391.00342-.02515.0249-.0105.01026-.02368.023-.0144.01416-.02979.02929-.02319.02246-.00513.00538,11.44556,11.68457q.55884-.54786,1.12671-1.08692l-11.26416-11.85937Zm-8.73462,9.24072c-.0481.05713-.09644.11377-.14453.1709l-.00562.00683-.02465.02881-.01392.01709-.00928.01074q-.27648.3274-.55078.65772l-.00977.01221-.01538.01806-.0249.03028-.00586.00683q-.18054.21753-.35986.436l12.637,10.38428q.49695-.60426,1.00293-1.20167L138.1485,218.01709Zm-7.688,10.12842c-.33374.49316-.667.99316-.99341,1.4917l-.00659.01025-.00732.01074,13.68408,8.96q.42846-.65478.86694-1.30224l-13.5437-9.17041Zm-6.54809,10.8999c-.04664.08838-.096.18164-.14234.27l-.00708.01367-.01416.02686-.01977.03711-.0022.00439-.02588.04981-.00049.00048q-.28748.54932-.56958,1.10108l-.01147.02246-.00977.019-.03467.06787,14.57471,7.42383q.35485-.69652.72022-1.38721l-14.45752-7.64941Zm-5.32569,11.54639c-.21557.54345-.42578,1.08545-.63354,1.6333l-.00074.00195-.00683.01807-.01587.0415,15.29663,5.79248q.27686-.731.5647-1.457l-15.20435-6.03027Zm-4.0354,12.05908c-.04907.17822-.09546.34814-.14355.52685l-.002.00733-.00805.03027-.00708.02539-.00489.01856-.01171.04345-.00147.00635q-.14721.54713-.28906,1.09717l15.8374,4.08789q.19519-.75658.40186-1.5083l-15.77149-4.335Zm-2.69555,12.42529q-.14393.89576-.27417,1.79737l16.18823,2.34033q.112-.7749.23584-1.54639l-16.1499-2.59131ZM110.524,287.72266q-.01466.28125-.02759.56347l-.00049.01319-.00171.03613-.00122.02637-.001.02-.00147.03564-.00049.00635c-.01123.25-.02148.49267-.031.74365l-.00025.00586-.00171.04-.00048.01367-.00123.03516-.00073.01416-.00293.07959v.00293l-.00146.03662-.00049.01367-.00122.0332-.00073.01953-.00122.03321-.00049.01367-.001.02832,16.34619.584q.02784-.78442.06763-1.56445l-16.335-.834Zm16.36133,11.80566-16.33106.9126q.00952.16919.01953.33887l.00025.00585.00244.03907.00171.02929.00049.01026c.02783.46728.05761.92383.09082,1.38916l16.31518-1.1626q-.05567-.78-.09936-1.5625Zm1.19921,10.88086-16.137,2.67041c.02466.14893.04932.29736.07471.44629l.001.00683.00756.04444.0022.01269.00659.03858.00269.01562.00561.03272.00855.0498.0022.0127.00634.03662.00171.01123.00635.03613.002.01172.02954.17041.00074.0044.00757.04345h0l.022.12647.002.01074.00537.03076.00366.021.00464.02588.00537.02978.00342.01953q.0487.27686.09888.55323l16.0935-2.92139q-.13951-.76758-.26709-1.54Zm2.36963,10.6709-15.75,4.4126q.24537.87523.50391,1.7456l15.6792-4.65771q-.22228-.74781-.43311-1.50049Zm3.5188,10.3457-15.17456,6.105q.32886.81738.66944,1.62842l.00024.00049.019.04541.00293.00635,15.07715-6.34082q-.30249-.71925-.59424-1.44483Zm4.62769,9.90576-14.42017,7.71973q.42921.80127.87012,1.59521l14.29834-7.94287q-.37939-.68334-.74829-1.37207Zm5.67993,9.35108-13.499,9.23633c.09961.1455.19873.28955.29882.43457l.01832.02636.00732.01075q.35412.51195.71338,1.0205l13.35473-9.44384q-.45153-.63869-.89355-1.28467Zm6.66211,8.689-12.42407,10.63819q.59106.69066,1.19262,1.37158l12.25855-10.82862q-.51819-.58666-1.0271-1.18115Zm7.56152,7.92285L147.29767,379.2085q.53539.50389,1.0769,1.00048l.00806.00782.02759.0249.2207.20215,11.022-12.08545q-.57861-.52734-1.14868-1.064Zm8.36988,7.0625-9.85791,13.05176c.10522.07959.21069.15869.31616.23828l.00464.00342.0332.0249.01538.01123.02539.01905.03467.02588.01758.01318.03174.02392.00341.00245c.21167.1582.42261.31494.63526.47168h.00049l.0332.02441.00757.00586.0581.04248.00806.00586.01831.01367.02466.01807.01489.01074.03272.02393.0083.00634c.04492.03321.08984.06592.13476.09864l9.655-13.20264q-.63135-.46217-1.25561-.93311Zm9.07763,6.11426-8.38916,14.041.00708.00439q.40942.24464.8208.48584l.00513.00293.04028.02344.00879.00537.04322.02539.02319.01318.01636.00977.031.01807.0083.00488c.188.10986.37451.21826.563.32666l8.17041-14.16943q-.67749-.39112-1.34839-.79151Zm9.6792,5.09082-6.81445,14.86914q.82543.37866,1.6582.74463l6.582-14.97363q-.71594-.31494-1.42578-.64014Zm10.16944,4.00488-5.15259,15.52344c.313.104.62353.20557.9375.30664l.00122.00049.04126.01318.0437.01416.00683.00245.04737.01513.00317.001q.32337.104.64771.20557l4.90967-15.60205q-.74525-.23437-1.48584-.48Zm10.54418,2.87061-3.42846,15.99268q.88806.19042,1.78125.36767l3.17846-16.04492q-.76794-.15161-1.53125-.31543Zm10.80445,1.707L215.47638,410.415q.30762.0315.616.06152l.01513.002.03516.00293.02173.00244.02783.00244.02686.00293.01733.00146c.03833.00391.07764.00733.11621.01123l.011.001.04053.00391.00512.00048c.293.02784.58179.0542.87549.07959l1.42163-16.29443q-.78039-.06811-1.55737-.148Zm12.52075.51367q-.783.01539-1.56836.01953l.07788,16.356c.03174,0,.05982,0,.09131-.00049h.04l.02515-.00049h.01928q.82215-.00512,1.6416-.02148l-.3269-16.353Zm10.926-.80615q-.77418.09961-1.55225.187l1.83032,16.25391.10669-.01221.02979-.00342.01831-.00195.03613-.00439.00977-.001c.53686-.06152,1.0686-.126,1.60327-.19434l-2.082-16.22363Zm10.75415-1.979q-.75879.18237-1.522.354l3.58448,15.959c.49243-.11036.977-.22266,1.46679-.33936l.0044-.001.03711-.00879.02441-.00586.02026-.00488c.07276-.01758.14527-.03515.218-.05224l-3.83349-15.90088Zm10.46753-3.1377q-.73389.26441-1.47339.51758l5.30493,15.47266q.16443-.0564.32861-.11329l.04688-.01611.00122-.00049q.67053-.23291,1.3374-.47314l-5.54565-15.38721Zm10.06542-4.26221q-.70128.34352-1.40893.67579l6.95959,14.80224q.39753-.18676.79273-.37646l.01489-.00733.024-.01123.03357-.01611.00952-.00488q.3827-.18384.76392-.37012l-7.18934-14.6919Zm9.54932-5.335q-.66064.41748-1.32837.8252l8.52551,13.959q.62513-.38158,1.24512-.771l.025-.01563.00781-.00537c.09045-.05664.17554-.11035.26575-.16748l-8.74085-13.82471Zm8.92236-6.34179q-.6123.48705-1.23205.96435l9.98376,12.95606q.3816-.29443.76075-.59131l.00341-.00244.04261-.03369h.00048l.08655-.06836.00684-.00537.03674-.02881.00562-.0044q.24444-.19263.48791-.38574l-10.18262-12.80029Zm8.19043-7.27051q-.55646.55005-1.12146,1.09228l11.32129,11.80469q.18219-.17431.36365-.3501l.01038-.00976.02282-.022c.21314-.20655.42762-.41553.63916-.62354l.01355-.01318.02039-.02051.01807-.01758.01672-.0166.03467-.03369.00659-.00684.03125-.03076.00867-.0083.03247-.03223.00476-.00488.07886-.07764L298.545,365.52588Zm7.36036-8.10986q-.494.60717-.9972,1.20605l12.52649,10.51807.00159-.00244q.58338-.69435,1.15625-1.39844L305.90534,357.416Zm6.44067-8.85254q-.42553.657-.86072,1.30615l13.58814,9.105q.3933-.5874.7799-1.1792l.01221-.019.01135-.01709c.06433-.09864.13257-.20362.19654-.30225L312.346,348.56348Zm5.44116-9.49024q-.35138.69873-.71338,1.39063l14.49475,7.57861q.3144-.60132.62207-1.20654l.00464-.00928.01978-.03906.00476-.00928.02234-.04394.01111-.022.01184-.02344.01342-.02636.00684-.01367.01685-.03321h0c.03173-.063.06421-.127.0957-.18994l-14.61072-7.35254Zm4.37427-10.01758q-.2732.7317-.55737,1.459l15.23352,5.95605q.21367-.54711.42236-1.09668l.00366-.00976.007-.01856.01477-.03906.00147-.00342q.10016-.26514.19934-.53027l-15.32471-5.71729Zm3.25452-10.43212q-.19171.75806-.39478,1.51123l15.7926,4.25781c.157-.58252.311-1.17237.45935-1.75879L325.416,318.62354Zm2.09863-10.7295q-.10821.7749-.22815,1.54639l16.16223,2.51318c.089-.57177.173-1.13965.25354-1.71435l.00037-.00293.00573-.04.00184-.01367.00378-.02686L327.51459,307.894Zm.926-10.91406q-.02416.78442-.0603,1.56592l16.339.75488c.01331-.28906.02576-.58154.037-.87109l.00073-.01709.0011-.02881.00146-.03858.00037-.00976q.01171-.30909.022-.61914l.00122-.03809.00037-.00927.00574-.1836L328.44061,296.98ZM344.504,284.77051l-16.30921,1.2417q.05915.7793.10669,1.56152l16.32654-.99121c-.00976-.15967-.01965-.31689-.02991-.47656l-.00195-.0293-.0011-.01758-.00244-.03662-.0011-.01562-.00268-.04151-.00073-.01074-.00342-.05225h0l-.00757-.11328v-.00049l-.00366-.05419-.00037-.0044-.00354-.05273-.00024-.00245c-.005-.0747-.01026-.14892-.01551-.22363l-.00024-.00342q-.02381-.3391-.04956-.67724Zm-1.6499-12.60889-16.079,2.99951q.14319.76758.27478,1.53955l16.12378-2.749c-.08167-.479-.16675-.96-.25415-1.43652l-.00269-.01465-.00244-.01319q-.02985-.16332-.0603-.32568Zm-3.01026-12.353-15.65613,4.73487q.22578.74634.44031,1.49756l15.72815-4.48975c-.07544-.26416-.15259-.53076-.22986-.79443l-.004-.01368-.00805-.02734-.0072-.02441-.00611-.021-.0122-.0415-.00184-.00586q-.11993-.408-.243-.81446Zm-4.34057-11.95214L320.45709,254.271q.30617.71777.60169,1.44189l15.14441-6.17871c-.03943-.09668-.08155-.19971-.12122-.2959l-.00317-.00781-.01123-.02686-.01172-.02881-.00537-.01269q-.26971-.65552-.54724-1.30566Zm-5.61658-11.40772-14.25952,8.01221q.38268.68115.75525,1.36865l14.3822-7.79q-.23475-.43285-.47241-.86328l-.00208-.00391-.01953-.03515-.0227-.041-.00623-.01123-.02161-.03906-.00268-.00488q-.16461-.29664-.33069-.59229Zm-6.82092-10.73144-13.3086,9.50878q.45447.63575.89954,1.27979l13.4541-9.30176-.04211-.06055-.0221-.03222-.001-.00147q-.485-.70019-.97985-1.39257Zm-7.94007-9.93213-12.20605,10.88769q.52094.58447,1.033,1.17627L316.325,217.15088c-.0791-.09131-.15881-.18359-.23816-.27442l-.007-.0083-.022-.02539-.02087-.02343-.01392-.01612-.03015-.03467-.009-.01025-.02673-.03076-.00867-.00977-.06983-.08007-.00451-.00538-.03052-.03466-.00781-.00879-.02686-.03076-.00915-.01075-.026-.02929-.02918-.03321-.00854-.00976-.02564-.0293-.00439-.00488c-.19348-.22022-.38538-.437-.58045-.65576Zm-8.9635-9.019L295.199,218.90479q.5808.5244,1.15356,1.0581l11.14893-11.96826-.06153-.05713-.00146-.00146-.03113-.02881-.00159-.00147-.05383-.05029-.01062-.00977-.02075-.019-.01734-.01611-.01721-.01612-.02575-.02392-.01123-.01026-.07764-.07177-.00647-.00586q-.49878-.46143-1.00281-.91651Zm-9.88269-8.00146-9.59094,13.24951q.63392.45849,1.26037.92725l9.79456-13.09961-.01147-.00879-.02015-.01465-.02844-.02148-.00158-.001c-.25867-.19336-.51355-.38184-.77393-.57324l-.01282-.00928-.025-.01856-.03894-.02832-.00244-.002q-.27393-.20068-.5492-.3999ZM285.591,191.87744l-8.10131,14.209q.6795.38745,1.35217.78515l8.32068-14.082q-.21827-.12891-.43726-.25732l-.01806-.01026-.02088-.0122-.02991-.01758-.00781-.0044c-.35327-.20654-.702-.40771-1.05762-.61035Zm-11.37268-5.688-6.50879,15.00537q.71742.31128,1.429.63331l6.7417-14.90235c-.1792-.08105-.36035-.1626-.54-.24267l-.01965-.00879-.02039-.00928-.03442-.01514-.01038-.00488q-.46143-.20508-.92493-.40723l-.01464-.00586-.02539-.01123-.072-.03125Zm-11.92407-4.41552-4.833,15.62646q.74671.23072,1.4878.47266l5.07666-15.54883c-.17456-.05664-.345-.11182-.52-.168l-.00635-.00244-.03149-.00977-.02124-.00683-.02271-.00733-.03857-.0122-.009-.00293q-.2688-.08643-.53784-.1709l-.00391-.00147-.04443-.01367-.01245-.00391-.02661-.0083c-.15039-.04736-.30615-.0957-.45679-.14257Zm-12.335-3.08789-3.1001,16.06005q.76831.14868,1.53223.30811l3.34985-16.00977-.07055-.01464-.03809-.00782-.00708-.00146q-.69215-.14429-1.387-.27979l-.001-.00049-.04565-.00878-.02-.00391-.02686-.00537-.02905-.00537-.00244-.00049-.1543-.03027Zm-12.59717-1.728-1.34253,16.30127q.78041.06446,1.55762.14062l1.59375-16.27881c-.17725-.01709-.36328-.03515-.54077-.05175l-.00952-.001-.03272-.00293-.02221-.00195-.02637-.00244-.03076-.00293-.01929-.002-.05151-.00439-.00586-.00049-.04737-.00439-.01391-.00147-.03858-.00342-.01684-.00146-.03638-.00342-.01782-.00147-.03882-.00341-.01343-.00147-.05029-.00439-.01978-.002-.03222-.00244-.02564-.00244-.02221-.00195-.03272-.00293-.01245-.001c-.21631-.019-.43457-.0376-.65137-.05566Z"/>
    </g>
  </g>
  <g>
    <circle class="cls-87" cx="51.44097" cy="188.32242" r="51.44097"/>
    <g>
      <rect class="cls-91" x="33.97685" y="181.1547" width="11.16548" height="33.5616" transform="translate(-128.3748 85.94682) rotate(-45)"/>
      <rect class="cls-91" x="55.71563" y="166.9052" width="11.16548" height="50.25593" transform="translate(-31.14509 371.16562) rotate(-135)"/>
    </g>
  </g>
</svg>
