<svg id="Layer_1" data-name="Layer 1" xmlns="http://www.w3.org/2000/svg" xmlns:xlink="http://www.w3.org/1999/xlink" viewBox="0 0 1000 1000">
  <defs>
    <style>
      .cls-1 {
        fill: url(#linear-gradient);
      }

      .cls-2 {
        fill: #b8cbd8;
      }

      .cls-3 {
        fill: url(#linear-gradient-2);
      }

      .cls-4 {
        fill: #2a3f5e;
        opacity: 0.2;
      }

      .cls-27, .cls-5 {
        fill: #fff;
      }

      .cls-5 {
        opacity: 0.7;
      }

      .cls-6 {
        fill: url(#linear-gradient-3);
      }

      .cls-7 {
        fill: url(#linear-gradient-4);
      }

      .cls-8 {
        fill: url(#linear-gradient-5);
      }

      .cls-9 {
        fill: url(#linear-gradient-6);
      }

      .cls-10 {
        fill: url(#linear-gradient-7);
      }

      .cls-11 {
        fill: url(#linear-gradient-8);
      }

      .cls-12 {
        fill: url(#linear-gradient-9);
      }

      .cls-13 {
        fill: url(#linear-gradient-10);
      }

      .cls-14 {
        fill: url(#linear-gradient-11);
      }

      .cls-15 {
        fill: url(#linear-gradient-12);
      }

      .cls-16 {
        fill: url(#linear-gradient-13);
      }

      .cls-17 {
        fill: url(#linear-gradient-14);
      }

      .cls-18 {
        fill: url(#linear-gradient-15);
      }

      .cls-19 {
        fill: #dd7b19;
      }

      .cls-133, .cls-19, .cls-48 {
        opacity: 0.5;
      }

      .cls-20 {
        fill: url(#linear-gradient-16);
      }

      .cls-21 {
        fill: none;
        stroke: #d8712b;
        stroke-linecap: round;
        stroke-miterlimit: 10;
        stroke-width: 5.2874px;
      }

      .cls-22 {
        fill: url(#linear-gradient-17);
      }

      .cls-23 {
        fill: #e58630;
      }

      .cls-24 {
        fill: url(#linear-gradient-18);
      }

      .cls-25 {
        fill: #5e5e5e;
      }

      .cls-26 {
        fill: url(#linear-gradient-19);
      }

      .cls-28 {
        fill: #ffcb48;
      }

      .cls-29 {
        fill: #4f4f4f;
      }

      .cls-30 {
        fill: url(#linear-gradient-20);
      }

      .cls-31 {
        fill: #777;
      }

      .cls-32 {
        fill: url(#linear-gradient-21);
      }

      .cls-33 {
        fill: url(#linear-gradient-22);
      }

      .cls-34 {
        fill: url(#linear-gradient-23);
      }

      .cls-35 {
        fill: url(#linear-gradient-24);
      }

      .cls-36 {
        fill: url(#linear-gradient-25);
      }

      .cls-37 {
        fill: url(#linear-gradient-26);
      }

      .cls-38 {
        fill: #ffbda3;
      }

      .cls-39 {
        fill: url(#linear-gradient-27);
      }

      .cls-40 {
        fill: #27343d;
      }

      .cls-41 {
        fill: #e48f7c;
      }

      .cls-42 {
        fill: #303d49;
      }

      .cls-43 {
        fill: url(#linear-gradient-28);
      }

      .cls-44 {
        fill: url(#linear-gradient-29);
      }

      .cls-45 {
        fill: url(#linear-gradient-30);
      }

      .cls-46 {
        fill: url(#linear-gradient-31);
      }

      .cls-47 {
        fill: url(#linear-gradient-32);
      }

      .cls-48 {
        fill: #913823;
      }

      .cls-49 {
        fill: url(#linear-gradient-33);
      }

      .cls-50 {
        fill: url(#linear-gradient-34);
      }

      .cls-51 {
        fill: url(#linear-gradient-35);
      }

      .cls-52 {
        fill: url(#linear-gradient-36);
      }

      .cls-53 {
        fill: url(#linear-gradient-37);
      }

      .cls-54 {
        fill: url(#linear-gradient-38);
      }

      .cls-55 {
        fill: url(#linear-gradient-39);
      }

      .cls-56 {
        fill: url(#linear-gradient-40);
      }

      .cls-57 {
        fill: url(#linear-gradient-41);
      }

      .cls-58 {
        fill: url(#linear-gradient-42);
      }

      .cls-59 {
        fill: url(#linear-gradient-43);
      }

      .cls-60 {
        fill: url(#linear-gradient-44);
      }

      .cls-61 {
        fill: url(#linear-gradient-45);
      }

      .cls-62 {
        fill: url(#linear-gradient-46);
      }

      .cls-63 {
        fill: url(#linear-gradient-47);
      }

      .cls-64 {
        fill: url(#linear-gradient-48);
      }

      .cls-65 {
        fill: url(#linear-gradient-49);
      }

      .cls-134, .cls-66 {
        fill: #724133;
      }

      .cls-67 {
        fill: url(#linear-gradient-50);
      }

      .cls-68 {
        fill: url(#linear-gradient-51);
      }

      .cls-69 {
        fill: url(#linear-gradient-52);
      }

      .cls-70 {
        fill: url(#linear-gradient-53);
      }

      .cls-71 {
        fill: url(#linear-gradient-54);
      }

      .cls-72 {
        fill: url(#linear-gradient-55);
      }

      .cls-73 {
        fill: url(#linear-gradient-56);
      }

      .cls-74 {
        fill: #9bb0c4;
      }

      .cls-75 {
        fill: url(#linear-gradient-57);
      }

      .cls-76 {
        fill: url(#linear-gradient-58);
      }

      .cls-77 {
        fill: url(#linear-gradient-59);
      }

      .cls-78 {
        fill: url(#linear-gradient-60);
      }

      .cls-79 {
        fill: url(#linear-gradient-61);
      }

      .cls-80 {
        fill: url(#linear-gradient-62);
      }

      .cls-81 {
        fill: url(#linear-gradient-63);
      }

      .cls-82 {
        fill: url(#linear-gradient-64);
      }

      .cls-83 {
        fill: url(#linear-gradient-65);
      }

      .cls-84 {
        fill: url(#linear-gradient-66);
      }

      .cls-85 {
        fill: url(#linear-gradient-67);
      }

      .cls-86 {
        fill: url(#linear-gradient-68);
      }

      .cls-87 {
        fill: url(#linear-gradient-69);
      }

      .cls-88 {
        fill: url(#linear-gradient-70);
      }

      .cls-89 {
        fill: url(#linear-gradient-71);
      }

      .cls-90 {
        fill: url(#linear-gradient-72);
      }

      .cls-91 {
        fill: url(#linear-gradient-73);
      }

      .cls-92 {
        fill: url(#linear-gradient-74);
      }

      .cls-93 {
        fill: url(#linear-gradient-75);
      }

      .cls-94 {
        fill: url(#linear-gradient-76);
      }

      .cls-95 {
        fill: url(#linear-gradient-77);
      }

      .cls-96 {
        fill: url(#linear-gradient-78);
      }

      .cls-97 {
        fill: url(#linear-gradient-79);
      }

      .cls-98 {
        fill: url(#linear-gradient-80);
      }

      .cls-99 {
        fill: url(#linear-gradient-81);
      }

      .cls-100 {
        fill: url(#linear-gradient-82);
      }

      .cls-101 {
        fill: url(#linear-gradient-83);
      }

      .cls-102 {
        fill: url(#linear-gradient-84);
      }

      .cls-103 {
        fill: url(#linear-gradient-85);
      }

      .cls-104 {
        fill: url(#linear-gradient-86);
      }

      .cls-105 {
        fill: url(#linear-gradient-87);
      }

      .cls-106 {
        fill: url(#linear-gradient-88);
      }

      .cls-107 {
        fill: url(#linear-gradient-89);
      }

      .cls-108 {
        fill: url(#linear-gradient-90);
      }

      .cls-109 {
        fill: url(#linear-gradient-91);
      }

      .cls-110 {
        fill: #efefef;
      }

      .cls-111 {
        fill: url(#linear-gradient-92);
      }

      .cls-112 {
        fill: #e2ebf1;
      }

      .cls-113 {
        fill: #d39b71;
      }

      .cls-114 {
        fill: url(#linear-gradient-93);
      }

      .cls-115 {
        fill: url(#linear-gradient-94);
      }

      .cls-116 {
        fill: #d15d2f;
      }

      .cls-117 {
        fill: #e2803d;
      }

      .cls-118 {
        fill: url(#linear-gradient-95);
      }

      .cls-119 {
        fill: #f5fafc;
      }

      .cls-120 {
        fill: #f2883c;
      }

      .cls-121 {
        fill: #ef683f;
      }

      .cls-122 {
        fill: url(#linear-gradient-96);
      }

      .cls-123 {
        fill: url(#linear-gradient-97);
      }

      .cls-124 {
        fill: #c4a16c;
      }

      .cls-125 {
        fill: url(#linear-gradient-98);
      }

      .cls-126 {
        fill: #2b8e6f;
      }

      .cls-127 {
        fill: #14684c;
      }

      .cls-128 {
        fill: #c93535;
      }

      .cls-129 {
        fill: #cfdfe8;
      }

      .cls-130 {
        fill: url(#linear-gradient-99);
      }

      .cls-131 {
        fill: url(#linear-gradient-100);
      }

      .cls-132 {
        fill: url(#linear-gradient-101);
      }

      .cls-133 {
        fill: url(#linear-gradient-102);
      }

      .cls-134 {
        opacity: 0.6;
      }

      .cls-135 {
        fill: url(#linear-gradient-103);
      }

      .cls-136 {
        fill: url(#linear-gradient-104);
      }

      .cls-137 {
        fill: url(#linear-gradient-105);
      }

      .cls-138 {
        fill: url(#linear-gradient-106);
      }

      .cls-139 {
        fill: url(#linear-gradient-107);
      }

      .cls-140 {
        fill: url(#linear-gradient-108);
      }

      .cls-141 {
        fill: url(#linear-gradient-109);
      }

      .cls-142 {
        fill: url(#linear-gradient-110);
      }

      .cls-143 {
        fill: url(#linear-gradient-111);
      }
    </style>
    <linearGradient id="linear-gradient" x1="521.10776" y1="393.55996" x2="942.39445" y2="393.55996" gradientUnits="userSpaceOnUse">
      <stop offset="0" stop-color="#e4edf2"/>
      <stop offset="1" stop-color="#c3d6e6"/>
    </linearGradient>
    <linearGradient id="linear-gradient-2" x1="99.8373" y1="719.89267" x2="942.39445" y2="719.89267" gradientUnits="userSpaceOnUse">
      <stop offset="0.00663" stop-color="#c4d5e6"/>
      <stop offset="1" stop-color="#dae9f2"/>
    </linearGradient>
    <linearGradient id="linear-gradient-3" x1="411.81877" y1="169.43466" x2="226.21362" y2="571.57916" gradientUnits="userSpaceOnUse">
      <stop offset="0" stop-color="#293440"/>
      <stop offset="1" stop-color="#3e4c59"/>
    </linearGradient>
    <linearGradient id="linear-gradient-4" x1="135.5736" y1="466.23963" x2="234.27977" y2="466.23963" gradientUnits="userSpaceOnUse">
      <stop offset="0" stop-color="#62778c"/>
      <stop offset="1" stop-color="#435466"/>
    </linearGradient>
    <linearGradient id="linear-gradient-5" x1="258.09399" y1="395.49873" x2="356.81479" y2="395.49873" xlink:href="#linear-gradient-4"/>
    <linearGradient id="linear-gradient-6" x1="380.62902" y1="324.73734" x2="479.40621" y2="324.73734" xlink:href="#linear-gradient-4"/>
    <linearGradient id="linear-gradient-7" x1="135.5736" y1="398.89972" x2="491.28424" y2="398.89972" gradientUnits="userSpaceOnUse">
      <stop offset="0" stop-color="#849bb2"/>
      <stop offset="1" stop-color="#5b6f82"/>
    </linearGradient>
    <linearGradient id="linear-gradient-8" x1="507.76628" y1="293.55323" x2="125.41967" y2="500.81232" xlink:href="#linear-gradient-4"/>
    <linearGradient id="linear-gradient-9" x1="155.85368" y1="350.14827" x2="390.95354" y2="584.62944" gradientUnits="userSpaceOnUse">
      <stop offset="0" stop-color="#435466"/>
      <stop offset="1" stop-color="#62778c"/>
    </linearGradient>
    <linearGradient id="linear-gradient-10" x1="252.33219" y1="253.41519" x2="487.43205" y2="487.89637" xlink:href="#linear-gradient-9"/>
    <linearGradient id="linear-gradient-11" x1="348.82264" y1="156.67015" x2="583.9225" y2="391.15133" xlink:href="#linear-gradient-9"/>
    <linearGradient id="linear-gradient-12" x1="-67.03292" y1="138.3078" x2="504.30092" y2="138.3078" gradientUnits="userSpaceOnUse">
      <stop offset="0" stop-color="#5b6f82"/>
      <stop offset="1" stop-color="#849bb2"/>
    </linearGradient>
    <linearGradient id="linear-gradient-13" x1="-67.03292" y1="246.6603" x2="504.30092" y2="246.6603" xlink:href="#linear-gradient-12"/>
    <linearGradient id="linear-gradient-14" x1="-67.03292" y1="355.085" x2="504.30092" y2="355.085" xlink:href="#linear-gradient-12"/>
    <linearGradient id="linear-gradient-15" x1="168.6927" y1="350.60108" x2="144.56403" y2="646.6413" gradientUnits="userSpaceOnUse">
      <stop offset="0.00005" stop-color="#ffcb48"/>
      <stop offset="1" stop-color="#e68e2b"/>
    </linearGradient>
    <linearGradient id="linear-gradient-16" x1="445.87066" y1="184.65503" x2="525.06219" y2="477.91117" xlink:href="#linear-gradient-15"/>
    <linearGradient id="linear-gradient-17" x1="-9583.47782" y1="722.05214" x2="-8942.55976" y2="670.02598" gradientTransform="matrix(-1, 0, 0, 1, -8864.3648, 0)" gradientUnits="userSpaceOnUse">
      <stop offset="0.00005" stop-color="#ffb348"/>
      <stop offset="1" stop-color="#e68e2b"/>
    </linearGradient>
    <linearGradient id="linear-gradient-18" x1="551.40394" y1="285.33612" x2="551.40394" y2="536.83617" gradientUnits="userSpaceOnUse">
      <stop offset="0" stop-color="#fff"/>
      <stop offset="0.56988" stop-color="#fff" stop-opacity="0"/>
    </linearGradient>
    <linearGradient id="linear-gradient-19" x1="516.52068" y1="281.66288" x2="583.94309" y2="281.66288" gradientUnits="userSpaceOnUse">
      <stop offset="0.00844" stop-color="#ffc63f"/>
      <stop offset="1" stop-color="#e68a23"/>
    </linearGradient>
    <linearGradient id="linear-gradient-20" x1="533.3977" y1="600.70424" x2="551.75779" y2="600.70424" gradientUnits="userSpaceOnUse">
      <stop offset="0" stop-color="#3e4c59"/>
      <stop offset="1" stop-color="#293440"/>
    </linearGradient>
    <linearGradient id="linear-gradient-21" x1="554.92887" y1="453.43317" x2="589.55226" y2="517.88593" xlink:href="#linear-gradient-7"/>
    <linearGradient id="linear-gradient-22" x1="512.27687" y1="482.82587" x2="549.43043" y2="597.48254" gradientUnits="userSpaceOnUse">
      <stop offset="0" stop-color="#62788c"/>
      <stop offset="1" stop-color="#526575"/>
    </linearGradient>
    <linearGradient id="linear-gradient-23" x1="548.86348" y1="602.9158" x2="654.75886" y2="602.9158" xlink:href="#linear-gradient-4"/>
    <linearGradient id="linear-gradient-24" x1="548.81281" y1="546.36011" x2="737.18635" y2="546.36011" xlink:href="#linear-gradient-4"/>
    <linearGradient id="linear-gradient-25" x1="657.52971" y1="376.81225" x2="747.55051" y2="527.55714" xlink:href="#linear-gradient-22"/>
    <linearGradient id="linear-gradient-26" x1="629.05962" y1="393.28048" x2="700.96972" y2="535.10319" xlink:href="#linear-gradient-7"/>
    <linearGradient id="linear-gradient-27" x1="599.02928" y1="375.8819" x2="669.71793" y2="507.04861" xlink:href="#linear-gradient-15"/>
    <linearGradient id="linear-gradient-28" x1="608.40752" y1="372.78565" x2="677.15244" y2="500.34568" xlink:href="#linear-gradient-15"/>
    <linearGradient id="linear-gradient-29" x1="577.26658" y1="472.87588" x2="645.20446" y2="496.23286" xlink:href="#linear-gradient"/>
    <linearGradient id="linear-gradient-30" x1="575.25755" y1="476.40708" x2="652.14094" y2="476.40708" xlink:href="#linear-gradient-2"/>
    <linearGradient id="linear-gradient-31" x1="573.8914" y1="476.4071" x2="653.27794" y2="476.4071" gradientUnits="userSpaceOnUse">
      <stop offset="0" stop-color="#fff"/>
      <stop offset="0.98888" stop-color="#e6edf2"/>
    </linearGradient>
    <linearGradient id="linear-gradient-32" x1="581.93473" y1="464.49244" x2="646.37499" y2="486.64694" gradientUnits="userSpaceOnUse">
      <stop offset="0" stop-color="#f2883c"/>
      <stop offset="0.16716" stop-color="#e97d35"/>
      <stop offset="0.67368" stop-color="#d26124"/>
      <stop offset="0.96784" stop-color="#c9571e"/>
    </linearGradient>
    <linearGradient id="linear-gradient-33" x1="629.58145" y1="352.26435" x2="705.1239" y2="492.43754" xlink:href="#linear-gradient-15"/>
    <linearGradient id="linear-gradient-34" x1="594.89655" y1="435.65437" x2="604.0563" y2="435.65437" xlink:href="#linear-gradient-32"/>
    <linearGradient id="linear-gradient-35" x1="632.76374" y1="350.18259" x2="651.41187" y2="399.11739" gradientUnits="userSpaceOnUse">
      <stop offset="0" stop-color="#cebcb3"/>
      <stop offset="1" stop-color="#bfa090"/>
    </linearGradient>
    <linearGradient id="linear-gradient-36" x1="649.72917" y1="343.71739" x2="668.37729" y2="392.65219" xlink:href="#linear-gradient-35"/>
    <linearGradient id="linear-gradient-37" x1="646.97292" y1="666.05587" x2="665.33301" y2="666.05587" xlink:href="#linear-gradient-20"/>
    <linearGradient id="linear-gradient-38" x1="737.18635" y1="616.22666" x2="755.54644" y2="616.22666" xlink:href="#linear-gradient-20"/>
    <linearGradient id="linear-gradient-39" x1="697.46084" y1="553.07905" x2="733.4159" y2="619.39615" xlink:href="#linear-gradient-7"/>
    <linearGradient id="linear-gradient-40" x1="707.80254" y1="532.69986" x2="740.16209" y2="587.03194" xlink:href="#linear-gradient-7"/>
    <linearGradient id="linear-gradient-41" x1="659.40236" y1="556.50113" x2="664.72903" y2="656.10994" xlink:href="#linear-gradient-22"/>
    <linearGradient id="linear-gradient-42" x1="10220.40935" y1="626.60006" x2="10509.60358" y2="758.72678" gradientTransform="translate(-9616.62478)" xlink:href="#linear-gradient-20"/>
    <linearGradient id="linear-gradient-43" x1="10252.37278" y1="558.10142" x2="10541.567" y2="690.22814" gradientTransform="translate(-9616.62478)" xlink:href="#linear-gradient-20"/>
    <linearGradient id="linear-gradient-44" x1="10322.35682" y1="660.39541" x2="10611.55104" y2="792.52213" gradientTransform="translate(-9616.62478)" xlink:href="#linear-gradient-20"/>
    <linearGradient id="linear-gradient-45" x1="10240.4584" y1="552.80022" x2="10535.69809" y2="687.68899" gradientTransform="translate(-9616.62478)" xlink:href="#linear-gradient-20"/>
    <linearGradient id="linear-gradient-46" x1="10337.02948" y1="607.95979" x2="10494.04638" y2="679.69749" gradientTransform="translate(-9616.62478)" xlink:href="#linear-gradient-20"/>
    <linearGradient id="linear-gradient-47" x1="10321.7532" y1="645.58509" x2="10530.45891" y2="645.58509" gradientTransform="translate(-9616.62478)" gradientUnits="userSpaceOnUse">
      <stop offset="0" stop-color="#526575"/>
      <stop offset="1" stop-color="#62788c"/>
    </linearGradient>
    <linearGradient id="linear-gradient-48" x1="10321.75321" y1="611.94319" x2="10530.4589" y2="611.94319" gradientTransform="translate(-9616.62478)" gradientUnits="userSpaceOnUse">
      <stop offset="0" stop-color="#748ea6"/>
      <stop offset="1" stop-color="#96b1cc"/>
    </linearGradient>
    <linearGradient id="linear-gradient-49" x1="-1425.87655" y1="678.70586" x2="-1475.29392" y2="731.13932" gradientTransform="matrix(-1, 0, 0, 1, -1285.14444, 0)" xlink:href="#linear-gradient-15"/>
    <linearGradient id="linear-gradient-50" x1="-1489.45877" y1="622.33198" x2="-1458.83392" y2="639.03645" gradientTransform="matrix(-1, 0, 0, 1, -1285.14444, 0)" xlink:href="#linear-gradient-32"/>
    <linearGradient id="linear-gradient-51" x1="-1472.73615" y1="584.25034" x2="-1451.7009" y2="624.61946" gradientTransform="matrix(-1, 0, 0, 1, -1285.14444, 0)" xlink:href="#linear-gradient-32"/>
    <linearGradient id="linear-gradient-52" x1="-1422.3348" y1="648.6369" x2="-1447.85551" y2="664.87735" gradientTransform="matrix(-1, 0, 0, 1, -1285.14444, 0)" xlink:href="#linear-gradient-32"/>
    <linearGradient id="linear-gradient-53" x1="-1490.07835" y1="641.74061" x2="-1456.20541" y2="655.81567" gradientTransform="matrix(-1, 0, 0, 1, -1285.14444, 0)" xlink:href="#linear-gradient-32"/>
    <linearGradient id="linear-gradient-54" x1="-1477.67718" y1="599.63064" x2="-1460.66338" y2="630.41016" gradientTransform="matrix(-1, 0, 0, 1, -1285.14444, 0)" xlink:href="#linear-gradient-32"/>
    <linearGradient id="linear-gradient-55" x1="-1399.88093" y1="606.60913" x2="-1442.72479" y2="645.1222" gradientTransform="matrix(-1, 0, 0, 1, -1285.14444, 0)" xlink:href="#linear-gradient-32"/>
    <linearGradient id="linear-gradient-56" x1="-1423.74788" y1="585.96402" x2="-1444.00978" y2="621.38367" gradientTransform="matrix(-1, 0, 0, 1, -1285.14444, 0)" xlink:href="#linear-gradient-32"/>
    <linearGradient id="linear-gradient-57" x1="613.06667" y1="884.32931" x2="628.77762" y2="884.32931" gradientTransform="translate(-187.68874)" xlink:href="#linear-gradient-20"/>
    <linearGradient id="linear-gradient-58" x1="674.79652" y1="848.5281" x2="690.50747" y2="848.5281" gradientTransform="translate(-187.68874)" xlink:href="#linear-gradient-20"/>
    <linearGradient id="linear-gradient-59" x1="398.15782" y1="760.26125" x2="413.86877" y2="760.26125" gradientTransform="translate(-187.68874)" xlink:href="#linear-gradient-20"/>
    <linearGradient id="linear-gradient-60" x1="518.57378" y1="734.81486" x2="688.59169" y2="852.0216" gradientTransform="translate(-187.68874)" xlink:href="#linear-gradient-4"/>
    <linearGradient id="linear-gradient-61" x1="465.56841" y1="763.03825" x2="507.11127" y2="763.03825" gradientTransform="translate(-187.68874)" xlink:href="#linear-gradient-20"/>
    <linearGradient id="linear-gradient-62" x1="367.38385" y1="666.20381" x2="538.08319" y2="781.36624" gradientTransform="translate(-187.68874)" xlink:href="#linear-gradient-4"/>
    <linearGradient id="linear-gradient-63" x1="395.44289" y1="785.23199" x2="620.92215" y2="785.23199" gradientTransform="translate(-187.68874)" xlink:href="#linear-gradient-22"/>
    <linearGradient id="linear-gradient-64" x1="348.18473" y1="694.66167" x2="518.88407" y2="809.82411" gradientTransform="translate(-187.68874)" xlink:href="#linear-gradient-4"/>
    <linearGradient id="linear-gradient-65" x1="391.45572" y1="752.49135" x2="697.2561" y2="752.49135" gradientTransform="translate(-187.68874)" xlink:href="#linear-gradient-47"/>
    <linearGradient id="linear-gradient-66" x1="391.4557" y1="726.95846" x2="697.25545" y2="726.95846" gradientTransform="translate(-187.68874)" gradientUnits="userSpaceOnUse">
      <stop offset="0" stop-color="#96b1cc"/>
      <stop offset="1" stop-color="#748ea6"/>
    </linearGradient>
    <linearGradient id="linear-gradient-67" x1="506.13486" y1="692.01902" x2="568.31576" y2="755.22208" gradientTransform="translate(-187.68874)" xlink:href="#linear-gradient-20"/>
    <linearGradient id="linear-gradient-68" x1="510.83319" y1="683.51258" x2="555.97823" y2="743.30846" gradientTransform="translate(-187.68874)" xlink:href="#linear-gradient-4"/>
    <linearGradient id="linear-gradient-69" x1="485.55237" y1="490.84547" x2="657.78494" y2="726.45145" gradientTransform="translate(-187.68874)" gradientUnits="userSpaceOnUse">
      <stop offset="0" stop-color="#596c80"/>
      <stop offset="0.99886" stop-color="#3a4959"/>
    </linearGradient>
    <linearGradient id="linear-gradient-70" x1="446.17079" y1="524.99029" x2="636.29102" y2="765.70703" gradientTransform="translate(-187.68874)" gradientUnits="userSpaceOnUse">
      <stop offset="0" stop-color="#3e4c59"/>
      <stop offset="1" stop-color="#313e4d"/>
    </linearGradient>
    <linearGradient id="linear-gradient-71" x1="353.71377" y1="520.71115" x2="612.82925" y2="729.74119" gradientTransform="translate(-187.68874)" xlink:href="#linear-gradient-4"/>
    <linearGradient id="linear-gradient-72" x1="335.94574" y1="490.27313" x2="599.66089" y2="719.74621" gradientTransform="translate(-187.68874)" gradientUnits="userSpaceOnUse">
      <stop offset="0" stop-color="#596c80"/>
      <stop offset="0.99886" stop-color="#323f4d"/>
    </linearGradient>
    <linearGradient id="linear-gradient-73" x1="518.31894" y1="669.94084" x2="547.96135" y2="716.27838" gradientTransform="translate(-187.68874)" xlink:href="#linear-gradient-4"/>
    <linearGradient id="linear-gradient-74" x1="530.18861" y1="695.36955" x2="546.37268" y2="732.33737" gradientTransform="translate(-187.68874)" xlink:href="#linear-gradient-22"/>
    <linearGradient id="linear-gradient-75" x1="519.35555" y1="680.77881" x2="539.11715" y2="736.14536" xlink:href="#linear-gradient-66"/>
    <linearGradient id="linear-gradient-76" x1="510.91662" y1="683.79086" x2="530.67822" y2="739.15741" xlink:href="#linear-gradient-66"/>
    <linearGradient id="linear-gradient-77" x1="658.6444" y1="268.94065" x2="700.94314" y2="268.94065" xlink:href="#linear-gradient-9"/>
    <linearGradient id="linear-gradient-78" x1="671.87165" y1="233.88592" x2="697.3434" y2="303.39356" xlink:href="#linear-gradient-31"/>
    <linearGradient id="linear-gradient-79" x1="650.07059" y1="241.81505" x2="800.74244" y2="379.3193" xlink:href="#linear-gradient-7"/>
    <linearGradient id="linear-gradient-80" x1="650.38952" y1="230.73576" x2="796.88804" y2="362.26783" xlink:href="#linear-gradient-4"/>
    <linearGradient id="linear-gradient-81" x1="662.97366" y1="216.71973" x2="809.47217" y2="348.2518" xlink:href="#linear-gradient-4"/>
    <linearGradient id="linear-gradient-82" x1="714.44664" y1="327.43759" x2="756.74538" y2="327.43759" xlink:href="#linear-gradient-9"/>
    <linearGradient id="linear-gradient-83" x1="724.49944" y1="291.36753" x2="755.8443" y2="361.60748" xlink:href="#linear-gradient-31"/>
    <linearGradient id="linear-gradient-84" x1="646.30067" y1="245.94599" x2="796.97252" y2="383.45024" xlink:href="#linear-gradient-7"/>
    <linearGradient id="linear-gradient-85" x1="646.21602" y1="235.38415" x2="792.71454" y2="366.91621" xlink:href="#linear-gradient-4"/>
    <linearGradient id="linear-gradient-86" x1="658.80016" y1="221.36812" x2="805.29867" y2="352.90018" xlink:href="#linear-gradient-4"/>
    <linearGradient id="linear-gradient-87" x1="770.24888" y1="317.75475" x2="812.54762" y2="317.75475" xlink:href="#linear-gradient-9"/>
    <linearGradient id="linear-gradient-88" x1="780.30167" y1="281.68469" x2="811.64654" y2="351.92464" xlink:href="#linear-gradient-31"/>
    <linearGradient id="linear-gradient-89" x1="676.47858" y1="212.87819" x2="827.15043" y2="350.38245" xlink:href="#linear-gradient-7"/>
    <linearGradient id="linear-gradient-90" x1="675.93542" y1="202.28312" x2="822.43393" y2="333.81518" xlink:href="#linear-gradient-4"/>
    <linearGradient id="linear-gradient-91" x1="688.51955" y1="188.26708" x2="835.01807" y2="319.79915" xlink:href="#linear-gradient-4"/>
    <linearGradient id="linear-gradient-92" x1="729.12193" y1="585.91513" x2="754.6685" y2="585.91513" xlink:href="#linear-gradient-20"/>
    <linearGradient id="linear-gradient-93" x1="739.20656" y1="528.34229" x2="739.20656" y2="584.95234" gradientUnits="userSpaceOnUse">
      <stop offset="0" stop-color="#fff" stop-opacity="0"/>
      <stop offset="0.98888" stop-color="#fff"/>
    </linearGradient>
    <linearGradient id="linear-gradient-94" x1="10374.07204" y1="612.59667" x2="10512.92602" y2="612.59667" gradientTransform="translate(-9616.62478)" xlink:href="#linear-gradient"/>
    <linearGradient id="linear-gradient-95" x1="815.23862" y1="504.61238" x2="869.62329" y2="626.48169" xlink:href="#linear-gradient-31"/>
    <linearGradient id="linear-gradient-96" x1="758.56062" y1="526.63572" x2="789.15916" y2="585.51152" gradientUnits="userSpaceOnUse">
      <stop offset="0" stop-color="#2b8e6f"/>
      <stop offset="1" stop-color="#1b5959"/>
    </linearGradient>
    <linearGradient id="linear-gradient-97" x1="768.33821" y1="530.76916" x2="786.22701" y2="548.06562" gradientUnits="userSpaceOnUse">
      <stop offset="0" stop-color="#38af87"/>
      <stop offset="1" stop-color="#2b8e6f"/>
    </linearGradient>
    <linearGradient id="linear-gradient-98" x1="772.66302" y1="510.51461" x2="785.32656" y2="535.56935" xlink:href="#linear-gradient-96"/>
    <linearGradient id="linear-gradient-99" x1="63.72042" y1="518.64525" x2="371.29177" y2="518.64525" gradientTransform="matrix(1, 0, 0, 1, 0, 0)" xlink:href="#linear-gradient-66"/>
    <linearGradient id="linear-gradient-100" x1="275.39115" y1="119.61862" x2="303.23192" y2="482.16735" gradientUnits="userSpaceOnUse">
      <stop offset="0" stop-color="#db7b36"/>
      <stop offset="0.30805" stop-color="#c6622b"/>
      <stop offset="0.72536" stop-color="#af461e"/>
      <stop offset="0.96784" stop-color="#a63c19"/>
    </linearGradient>
    <linearGradient id="linear-gradient-101" x1="267.74814" y1="290.52999" x2="322.811" y2="431.5899" gradientUnits="userSpaceOnUse">
      <stop offset="0" stop-color="#f2b055"/>
      <stop offset="0.21424" stop-color="#eba646"/>
      <stop offset="0.69095" stop-color="#de932a"/>
      <stop offset="0.96784" stop-color="#d98c20"/>
    </linearGradient>
    <linearGradient id="linear-gradient-102" x1="266.76653" y1="213.72114" x2="317.4986" y2="279.30163" xlink:href="#linear-gradient-101"/>
    <linearGradient id="linear-gradient-103" x1="277.40633" y1="88.24535" x2="311.10425" y2="120.82744" xlink:href="#linear-gradient-101"/>
    <linearGradient id="linear-gradient-104" x1="69.14082" y1="458.12231" x2="263.14297" y2="458.12231" gradientTransform="matrix(1, 0, 0, 1, 0, 0)" xlink:href="#linear-gradient-66"/>
    <linearGradient id="linear-gradient-105" x1="51.31063" y1="440.63614" x2="280.97316" y2="440.63614" xlink:href="#linear-gradient-31"/>
    <linearGradient id="linear-gradient-106" x1="59.78841" y1="347.19415" x2="60.71644" y2="379.98439" xlink:href="#linear-gradient-101"/>
    <linearGradient id="linear-gradient-107" x1="143.66403" y1="359.69523" x2="138.32788" y2="387.53601" xlink:href="#linear-gradient-31"/>
    <linearGradient id="linear-gradient-108" x1="-107.46834" y1="-345.30064" x2="-86.50126" y2="-345.30064" gradientTransform="translate(-159.0407 480.37595) rotate(90)" xlink:href="#linear-gradient-31"/>
    <linearGradient id="linear-gradient-109" x1="193.21429" y1="367.19168" x2="187.80081" y2="398.58988" gradientTransform="matrix(1, 0, 0, 1, 0, 0)" xlink:href="#linear-gradient-66"/>
    <linearGradient id="linear-gradient-110" x1="-88.79949" y1="-345.30064" x2="-67.83242" y2="-345.30064" gradientTransform="translate(-140.64636 464.89674) rotate(90)" xlink:href="#linear-gradient-4"/>
    <linearGradient id="linear-gradient-111" x1="194.14742" y1="171.40715" x2="194.14742" y2="376.1058" xlink:href="#linear-gradient-93"/>
  </defs>
  <g>
    <g>
      <polygon class="cls-1" points="521.108 67.227 942.394 310.448 942.394 719.893 521.108 476.649 521.108 67.227"/>
      <polygon class="cls-2" points="521.124 67.227 99.837 310.448 99.837 719.893 521.124 476.649 521.124 67.227"/>
    </g>
    <path class="cls-3" d="M107.10708,732.49667l392.21059,226.4329a43.6172,43.6172,0,0,0,43.61687-.00063L935.125,732.49244a14.53906,14.53906,0,0,0,.00017-25.18216L542.91755,480.8567a43.61721,43.61721,0,0,0-43.61994.00054L107.10623,707.31448A14.53906,14.53906,0,0,0,107.10708,732.49667Z"/>
    <path class="cls-4" d="M911.17352,707.63821,807.33006,647.60355a15.96534,15.96534,0,0,0-15.96545-.001l-83.575,48.24582a5.32178,5.32178,0,0,0-.00131,9.21713l103.81535,60.06262a15.96531,15.96531,0,0,0,15.96938.00131l83.60053-48.274A5.32177,5.32177,0,0,0,911.17352,707.63821Z"/>
    <path class="cls-4" d="M770.818,615.15205l-125.85-72.75721a19.3487,19.3487,0,0,0-19.34885-.00117L524.33285,600.86374a6.44957,6.44957,0,0,0-.00158,11.17042l125.81591,72.79112a19.34871,19.34871,0,0,0,19.35361.00158L770.818,626.32261A6.44957,6.44957,0,0,0,770.818,615.15205Z"/>
  </g>
  <g>
    <g>
      <g>
        <g>
          <path class="cls-5" d="M123.6729,681.1359l375.9368-217.037a7.14112,7.14112,0,0,0,3.57068-6.18446V116.66262L123.6729,335.7822Z"/>
          <path class="cls-6" d="M491.28424,455.16039,135.5736,660.52682l-11.878-6.85547V335.80067L479.40621,130.42232l11.878,6.85548Z"/>
          <polygon class="cls-7" points="234.28 285.663 234.28 589.832 135.574 646.816 135.575 639.935 228.328 586.399 228.328 289.1 234.28 285.663"/>
          <polygon class="cls-8" points="356.815 214.914 356.796 519.097 258.094 576.083 258.094 569.203 350.845 515.669 350.845 218.341 356.815 214.914"/>
          <polygon class="cls-9" points="479.406 144.132 479.366 448.34 380.629 505.342 380.629 498.463 473.38 444.928 473.38 147.612 479.406 144.132"/>
          <polygon class="cls-10" points="491.284 137.278 491.278 455.166 135.575 660.522 135.574 646.816 479.406 448.317 479.406 144.132 491.284 137.278"/>
          <path class="cls-11" d="M123.6728,335.7822V681.1358L499.60963,464.09893a7.14113,7.14113,0,0,0,3.57069-6.18446V116.6626ZM368.72717,208.03626V525.9174L258.094,589.78851v-317.875ZM135.57466,342.65358l110.61748-63.86813v317.8743L135.57466,660.52164Zm355.7038,112.51216L380.629,519.04615V201.16436L491.27846,137.2777Z"/>
        </g>
        <polygon class="cls-12" points="246.192 596.66 234.28 589.832 234.28 285.663 246.192 278.785 246.192 596.66"/>
        <polygon class="cls-13" points="368.727 525.917 356.815 519.09 356.815 214.914 368.727 208.036 368.727 525.917"/>
      </g>
      <polygon class="cls-14" points="491.278 455.162 479.366 448.34 479.406 144.132 491.278 137.281 491.278 455.162"/>
    </g>
    <g>
      <circle class="cls-15" cx="509.18624" cy="138.3078" r="8.34757"/>
      <path class="cls-16" d="M508.146,144.207,140.79411,356.342l-4.06721-7.04462L504.09246,137.15447l.00186.00322a2.04851,2.04851,0,0,1,2.021.2153,6.35857,6.35857,0,0,1,2.88545,4.97707A1.99561,1.99561,0,0,1,508.146,144.207Z"/>
      <path class="cls-2" d="M500.11516,148.82157a9.92388,9.92388,0,0,0-1.3042-3.87734,9.58185,9.58185,0,0,0-2.81969-3.13724,6.36594,6.36594,0,0,0-3.5955-1.19835,5.16359,5.16359,0,0,0-2.52063.65189,5.70068,5.70068,0,0,0-2.60842,5.5873l4.37088-2.52042a1.39192,1.39192,0,0,1,.75817-.19384c1.09251,0,2.44964.98687,3.36615,2.57313.96945,1.67425,1.11058,3.45436.44062,4.37088a1.39088,1.39088,0,0,1-.44062.40533,1.21941,1.21941,0,0,1-.54646.15878l-3.895,2.256a6.22184,6.22184,0,0,0,3.68371,1.30421,4.94467,4.94467,0,0,0,2.5202-.67,5.48957,5.48957,0,0,0,2.62606-4.95241C500.15045,149.33275,500.1328,149.06856,500.11516,148.82157Z"/>
      <path class="cls-2" d="M478.04972,161.57507a9.924,9.924,0,0,0-1.30421-3.87734,9.58174,9.58174,0,0,0-2.81969-3.13724,6.36594,6.36594,0,0,0-3.5955-1.19835,5.16359,5.16359,0,0,0-2.52063.65189,5.7007,5.7007,0,0,0-2.60842,5.5873l4.37088-2.52042a1.39192,1.39192,0,0,1,.75817-.19384c1.09251,0,2.44964.98687,3.36616,2.57313.96944,1.67425,1.11057,3.45436.44061,4.37088a1.391,1.391,0,0,1-.44061.40533,1.21949,1.21949,0,0,1-.54647.15878l-3.895,2.256a6.22184,6.22184,0,0,0,3.68371,1.30421,4.94464,4.94464,0,0,0,2.5202-.67A5.48958,5.48958,0,0,0,478.085,162.333C478.085,162.08625,478.06736,161.82206,478.04972,161.57507Z"/>
      <path class="cls-2" d="M448.2378,178.806a9.92374,9.92374,0,0,0-1.30421-3.87734,9.58172,9.58172,0,0,0-2.81968-3.13724,6.36594,6.36594,0,0,0-3.5955-1.19835,5.16362,5.16362,0,0,0-2.52064.65189,5.70069,5.70069,0,0,0-2.60841,5.5873l4.37088-2.52042a1.3919,1.3919,0,0,1,.75817-.19384c1.0925,0,2.44964.98687,3.36615,2.57313.96945,1.67426,1.11058,3.45436.44062,4.37088a1.39076,1.39076,0,0,1-.44062.40533,1.21941,1.21941,0,0,1-.54646.15878l-3.895,2.256a6.22189,6.22189,0,0,0,3.6837,1.3042,4.94468,4.94468,0,0,0,2.52021-.67,5.48956,5.48956,0,0,0,2.62606-4.95241C448.27309,179.31717,448.25544,179.053,448.2378,178.806Z"/>
      <path class="cls-2" d="M146.77114,352.88978a9.9239,9.9239,0,0,0-1.30421-3.87734,9.58184,9.58184,0,0,0-2.81969-3.13724,6.36589,6.36589,0,0,0-3.59549-1.19835,5.1636,5.1636,0,0,0-2.52064.65189,5.70068,5.70068,0,0,0-2.60841,5.58731l4.37088-2.52042a1.3919,1.3919,0,0,1,.75817-.19385c1.0925,0,2.44963.98687,3.36615,2.57313.96944,1.67426,1.11058,3.45436.44062,4.37088a1.39076,1.39076,0,0,1-.44062.40533,1.21949,1.21949,0,0,1-.54647.15878l-3.895,2.256a6.22185,6.22185,0,0,0,3.68371,1.3042,4.94468,4.94468,0,0,0,2.52021-.67,5.48957,5.48957,0,0,0,2.626-4.95241C146.80642,353.401,146.78878,353.13677,146.77114,352.88978Z"/>
      <circle class="cls-17" cx="133.75887" cy="355.085" r="8.34757"/>
    </g>
    <path class="cls-18" d="M141.88093,361.4031a20.20362,20.20362,0,0,0,11.58727,1.46247c11.31427-2.02786,13.27451-14.983,13.27451-14.983s6.4443,3.95938,11.40471,1.89982c9.07879-3.76951,10.43062-15.6009,10.43062-15.6009-6.87817,60.99029-19.83225,122.66894-37.34928,184.86459,8.9803,41.4658,14.43514,89.00632,17.99965,139.804,1.2,13.42475-11.981,19.29338-21.37457,15.97471,1.18121,9.39355-15.97471,11.64351-15.97471,5.39992V526.21526Z"/>
    <path class="cls-19" d="M142.1622,525.80275l36.83363-176.43909c-.28184.1407-.54991.29475-.84853.41867-4.96037,2.0598-11.40436-1.89961-11.40436-1.89961s-.01162.35026-.09294.91846Z"/>
    <circle class="cls-2" cx="143.74529" cy="359.84036" r="2.81244"/>
    <path class="cls-2" d="M169.3088,339.865a9.92369,9.92369,0,0,0-1.30421-3.87733,9.58162,9.58162,0,0,0-2.81968-3.13724,6.36588,6.36588,0,0,0-3.5955-1.19836,5.16362,5.16362,0,0,0-2.52064.65189,5.70071,5.70071,0,0,0-2.60841,5.58731l4.37088-2.52042a1.3919,1.3919,0,0,1,.75817-.19385c1.0925,0,2.44964.98687,3.36615,2.57313.96945,1.67426,1.11058,3.45436.44062,4.37088a1.39076,1.39076,0,0,1-.44062.40533,1.21941,1.21941,0,0,1-.54646.15878l-3.895,2.256a6.22182,6.22182,0,0,0,3.6837,1.3042,4.94468,4.94468,0,0,0,2.52021-.67,5.48956,5.48956,0,0,0,2.62606-4.95241C169.34409,340.37618,169.32644,340.112,169.3088,339.865Z"/>
    <circle class="cls-2" cx="166.28295" cy="346.81557" r="2.81244"/>
    <path class="cls-2" d="M191.01752,327.32723a9.92382,9.92382,0,0,0-1.3042-3.87734,9.58175,9.58175,0,0,0-2.81969-3.13724,6.366,6.366,0,0,0-3.5955-1.19836,5.16369,5.16369,0,0,0-2.52063.65189,5.7007,5.7007,0,0,0-2.60842,5.58731l4.37088-2.52042a1.39192,1.39192,0,0,1,.75817-.19385c1.09251,0,2.44964.98687,3.36616,2.57313.96944,1.67426,1.11057,3.45437.44061,4.37088a1.391,1.391,0,0,1-.44061.40534,1.2196,1.2196,0,0,1-.54647.15877l-3.895,2.256a6.22184,6.22184,0,0,0,3.68371,1.30421,4.94477,4.94477,0,0,0,2.5202-.67,5.48959,5.48959,0,0,0,2.62606-4.95242C191.05281,327.83841,191.03516,327.57421,191.01752,327.32723Z"/>
    <circle class="cls-2" cx="187.82227" cy="333.80134" r="2.81244"/>
    <path class="cls-20" d="M500.83867,461.28512V310.70183l-5.74-153.74179c.613,16.4199-13.03387,18.71863-20.51493,14.78118.225,15.63719-18.79492,19.1126-29.37183,15.10022,8.01823,46.25471,17.50555,94.15244,34.91581,131.77329-7.96906,63.31794-10.70119,107.29-10.70119,162.75146,0,7.4623,19.68712,4.01237,19.68712-10.34984C496.03231,474.72877,500.8396,468.37265,500.83867,461.28512Z"/>
    <circle class="cls-2" cx="495.46309" cy="156.84751" r="2.81244"/>
    <circle class="cls-2" cx="445.21195" cy="185.75656" r="2.81244"/>
    <path class="cls-19" d="M497.27392,470.45182l-5.36151-146.99514L489.1137,471.01636C492.41531,472.788,495.227,472.25129,497.27392,470.45182Z"/>
    <path class="cls-19" d="M486.03331,172.73257a15.30717,15.30717,0,0,1-11.44955-.99136l17.32865,149.649Z"/>
    <circle class="cls-2" cx="474.44475" cy="169.67226" r="2.81244"/>
    <path class="cls-19" d="M141.479,529.32767l6.37492,145.4972,3.19974.7416a17.58916,17.58916,0,0,0,7.75124-.72493Z"/>
    <path class="cls-21" d="M130.70536,525.47477c6.46117,4.80916,19.28592,2.053,22.91373-6.042"/>
    <path class="cls-21" d="M478.07233,319.44433c6.46117,4.80915,21.52457,2.62494,25.108-6.33738"/>
  </g>
  <g>
    <path class="cls-22" d="M716.0898,742.86568,462.67421,596.53423a25.90818,25.90818,0,0,0-25.90836-.00157L335.70337,654.87355a8.636,8.636,0,0,0-.00212,14.95734L589.08073,816.19666a25.90817,25.90817,0,0,0,25.91473.00212L716.0898,757.8232A8.636,8.636,0,0,0,716.0898,742.86568Z"/>
    <path class="cls-23" d="M664.00553,733.6349,478.663,626.61132a14.57562,14.57562,0,0,0-14.5757-.00088l-76.3,44.04614a4.85853,4.85853,0,0,0-.0012,8.4148L573.10294,786.12049a14.57556,14.57556,0,0,0,14.57928.00119l76.32331-44.07187A4.85853,4.85853,0,0,0,664.00553,733.6349Z"/>
  </g>
  <g>
    <polygon class="cls-24" points="516.63 289.287 436.763 534.682 666.045 534.682 583.527 287.737 516.63 289.287"/>
    <g>
      <path class="cls-25" d="M574.77015,514.648c-2.62967-6.41617-12.60441-11.19641-24.53837-11.19641s-21.9087,4.78024-24.53826,11.19641h-.70019v3.35219c0,8.035,11.2996,14.5486,25.23845,14.5486s25.23856-6.51362,25.23856-14.5486V514.648Z"/>
      <ellipse class="cls-25" cx="550.23183" cy="514.1542" rx="25.23852" ry="14.54865"/>
    </g>
    <path class="cls-25" d="M546.92482,302.87476V511.13607c0,1.05283,1.48059,1.90631,3.307,1.90631s3.307-.85348,3.307-1.90631V302.87476Z"/>
    <g>
      <path class="cls-26" d="M583.843,289.35369h.00176l-.00544-.02754a11.60874,11.60874,0,0,0-.31192-1.58929l-6.785-34.56018h-53.0262l-6.78691,34.58276a11.59984,11.59984,0,0,0-.29975,1.52788l-.01313.06637h.00416a11.34244,11.34244,0,0,0-.09991,1.42116c0,10.70013,15.09306,19.37423,33.711,19.37423,18.61831,0,33.71137-8.6741,33.71137-19.37423A11.31234,11.31234,0,0,0,583.843,289.35369Z"/>
      <ellipse class="cls-27" cx="550.23183" cy="254.48335" rx="26.61256" ry="15.29457"/>
      <path class="cls-25" d="M540.3152,268.669a44.89416,44.89416,0,0,0,19.83314,0v-7.80377H540.3152Z"/>
      <ellipse class="cls-25" cx="550.23183" cy="260.86525" rx="9.91662" ry="5.7164"/>
      <path class="cls-28" d="M550.23182,240.50046c13.95094,0,25.30073,6.27267,25.30073,13.98285s-11.34979,13.98295-25.30073,13.98295-25.30073-6.27277-25.30073-13.98295,11.34979-13.98285,25.30073-13.98285m0-1.31171c-14.69764,0-26.61255,6.84763-26.61255,15.29456,0,8.447,11.91491,15.29466,26.61255,15.29466s26.61255-6.84763,26.61255-15.29466c0-8.44693-11.91491-15.29456-26.61255-15.29456Z"/>
    </g>
  </g>
  <g>
    <g>
      <path class="cls-29" d="M551.75779,590.29839l-2.52933,16.92052c0,2.14911-2.98835,3.89117-6.67465,3.89117s-6.67465-1.74206-6.67465-3.89117l-2.48146-16.92052Z"/>
      <path class="cls-30" d="M551.75779,590.29839l-2.52933,16.92052c0,2.14911-2.98835,3.89117-6.67465,3.89117s-6.67465-1.74206-6.67465-3.89117l-2.48146-16.92052Z"/>
      <ellipse class="cls-31" cx="542.55382" cy="589.74825" rx="9.20391" ry="5.36564"/>
    </g>
    <g>
      <path class="cls-32" d="M548.80587,603.44l-43.4254-124.33023L603.17724,422.767l.00451.01284c4.04589-2.4,9.677-2.09462,15.91326,1.50581,11.53137,6.65769,21.01638,22.18138,22.17255,35.73053l.0016.0007.00271.03431.0007.00813,6.62379,82.60938a5.16472,5.16472,0,0,1-1.2883,4.36241l.0012.00332-.01756.01013a2.99677,2.99677,0,0,1-1.06256.6128Z"/>
      <path class="cls-33" d="M543.84758,516.16945l-.00061-.00813-.00278-.03431-.00156-.0007c-1.15619-13.54916-10.64124-29.07289-22.17261-35.73054-12.31187-7.10826-22.2926-1.41781-22.2926,12.71,0,13.07545,8.55467,28.77918,19.589,36.68383l4.32708,53.21569c.38733,4.7631,3.71349,10.14477,7.68833,12.43965l13.22261,7.63408c3.71619,2.14554,6.6239.15034,6.267-4.30019Z"/>
    </g>
    <g>
      <polygon class="cls-34" points="654.759 658.792 553.668 600.554 548.863 547.04 649.954 605.277 654.759 658.792"/>
      <path class="cls-35" d="M737.18635,545.68024l-101.091-58.23718-80.19951,46.14631a14.1464,14.1464,0,0,0-7.03236,13.4506v0l101.091,58.23718-.6992-8.9949Z"/>
    </g>
    <path class="cls-36" d="M624.52736,397.19532a24.84593,24.84593,0,0,1,16.06776-20.26955l14.3623-5.21462a31.38641,31.38641,0,0,1,26.65716,2.3335l59.39053,34.26827A39.45,39.45,0,0,1,760.468,447.08706l-7.3335,100.74751-97.59862-56.32,8.86659-86.43435Z"/>
    <path class="cls-37" d="M711.56339,556.48332l-97.59864-56.32,10.56261-102.968a16.43756,16.43756,0,0,1,24.54084-12.31839l53.4779,30.85981A39.45014,39.45014,0,0,1,722.009,454.51092Z"/>
    <g>
      <path class="cls-38" d="M641.6094,386.23734s-12.09821.81986-23.32617,16.30058c-7.66479,10.56811-22.06258,33.03073-22.06258,33.03073L591.319,442.4793l-4.44849,11.78551s-.48488,4.61189,11.52419,2.86966c13.89306-2.01555,26.79344-19.8238,28.12767-21.1891l5.42153-13.17511Z"/>
      <path class="cls-39" d="M644.15534,386.60105s-13.35079-2.3985-25.97569,11.96574c-11.45282,13.03068-23.929,34.2232-23.929,34.2232-5.47449,7.44426,13.53422,24.9649,19.94864,18.41822,0,0,10.98882-13.89754,12.323-15.26284l5.42153-13.17511Z"/>
      <path class="cls-19" d="M614.19931,451.20833s3.47092-4.38988,6.74821-8.4775l-2.6793-22.46714-6.80366,32.30136A4.71887,4.71887,0,0,0,614.19931,451.20833Z"/>
      <g>
        <path class="cls-40" d="M589.18,614.87376s7.11263,14.66243,4.62923,19.01208-7.83024,4.6539-14.67808,7.339-12.62519,6.82092-24.30462,5.52811-12.01585-8.59916-8.67222-13.61052l7.4082-.30507,9.84212-4.19373,11.15822-10.23448Z"/>
        <path class="cls-41" d="M587.34943,611.37882s8.53446,15.16652,6.12467,19.38725-7.59816,4.516-14.243,7.12152-12.251,6.61875-23.58425,5.36426-13.17944-10.86725-5.54924-12.67075l4.32269-.83239,8.42917-5.91233,9.09216-10.00121Z"/>
        <polygon class="cls-41" points="554.943 576.549 571.942 613.835 587.66 611.801 574.326 570 554.943 576.549"/>
        <path class="cls-40" d="M548.96556,629.90248c-9.96331,6.08379-.6172,18.1191,16.37171,13.84361l13.10842-4.21272c-.29288-11.25751-11.02244-19.26557-16.0747-16.82342Z"/>
      </g>
      <path class="cls-40" d="M625.11384,542.97455,614.178,490.764s-51.20855,13.92007-66.994,21.36036c-12.57838,5.92866-15.99534,20.19256-10.32807,33.20473l19.99595,49.47677c4.42293,9.75341,29.55511-2.72912,28.941-9.53907l-4.11589-32.44792Z"/>
      <g>
        <path class="cls-40" d="M593.90254,655.81658s.83139,8.40973-.0499,12.39535c-1.11364,5.03647-2.56378,7.63209-2.94849,10.96231-1.0351,8.96038-4.25913,15.42921-11.14994,18.59211-14.01494,6.4329-20.96525-3.59285-17.90813-10.68552l5.46061-8.84393,10.176-23.74141C582.44443,649.03811,593.42244,650.29679,593.90254,655.81658Z"/>
        <path class="cls-38" d="M593.36357,649.09126s.92468,13.53769-.02162,17.51068c-1.18592,4.979-3.01126,9.01275-3.8428,12.32711s-1.30627,10.63676-8.20728,14.37032c-13.57235,7.34285-23.06374-1.50618-18.17961-9.10077l4.62385-9.87715,10.58306-25.08905Z"/>
        <polygon class="cls-38" points="579.481 606.218 578.319 649.232 593.364 649.091 603.972 609.65 579.481 606.218"/>
        <path class="cls-40" d="M563.9546,681.12972c-8.64074,14.92067,7.62677,24.40128,24.33781,6.57358l2.22335-10.08235c-2.53227-10.75589-17.41951-12.49167-21.32531-6.69253Z"/>
      </g>
      <path class="cls-42" d="M680.17725,494.16643l-60.026-9.26-10.78692,8.95042,8.4309,32.40575-29.05106,26.01969c-6.73316,5.55976-10.739,16.13521-11.21018,26.16093l-1.46741,53.13914c-.02917,10.2732,22.47064,12.30043,25.21853,2.86685,5.007-15.51668,16.54188-46.3397,16.54188-46.3397s35.205-15.30673,51.36232-30.73072C691.79528,535.79886,680.17725,494.16643,680.17725,494.16643Z"/>
      <path class="cls-43" d="M697.289,432.89271c-.76017-12.83084-10.89519-24.11721-27.07916-34.19022-16.03007-9.97722-25.64773-12.46515-25.64773-12.46515-2.00144-.52306-25.0003,2.73064-24.20079,25.11659-5.4145,17.85645-3.29968,35.15316-2.2698,54.55073L606.29864,468.402c-3.99278,6.2899,4.737,26.90786,25.498,36.24785,22.7372,10.22931,51.43663,5.66389,53.74071-5.51062.46432-4.10154-.43607-19.21529-.43607-19.21529Z"/>
      <g>
        <g>
          <g>
            <path class="cls-38" d="M591.45594,431.74781l-5.99913,16.35238c-5.44574,14.37184,14.01961,19.35349,14.54885,5.7311V441.95824Z"/>
            <g>
              <path class="cls-38" d="M678.62676,404.47925q-3.87032-2.954-8.41692-5.7767a124.4973,124.4973,0,0,0-22.68435-11.49371,28.42683,28.42683,0,0,0-6.77565,1.2859c-12.74673,9.18875-7.04857,19.36848,4.66829,24.01458C656.30354,416.82585,670.26991,415.05381,678.62676,404.47925Z"/>
              <path class="cls-19" d="M685.22928,500.20266a160.87037,160.87037,0,0,0-3.12819-20.4925l.75393-2.31635L672.01539,437.241l-5.90121,39.837-32.71566,7.82848c-.28152,1.45309.70789,14.24738,1.25213,20.92856C656.11663,514.18876,681.54363,510.14868,685.22928,500.20266Z"/>
              <g>
                <g>
                  <path class="cls-44" d="M613.58462,453.30137c21.922,0,39.69328,10.34477,39.69328,23.10571s-9.43605,42.37307-39.69328,42.37307-39.69329-29.61212-39.69329-42.37307S591.66265,453.30137,613.58462,453.30137Z"/>
                  <ellipse class="cls-45" cx="613.69924" cy="476.40708" rx="38.4417" ry="22.37716"/>
                  <path class="cls-46" d="M613.58459,457.13447c19.43823,0,35.86025,8.82582,35.86025,19.27263s-16.422,19.27264-35.86025,19.27264c-19.43815,0-35.86-8.82582-35.86-19.27264s16.4219-19.27263,35.86005-19.27263m0-3.83309c-21.92193,0-39.69319,10.3447-39.69319,23.10572,0,12.76095,17.77126,23.10573,39.69319,23.10573,21.92209,0,39.69335-10.34478,39.69335-23.10573,0-12.761-17.77126-23.10572-39.69335-23.10572Z"/>
                </g>
                <path class="cls-47" d="M647.0852,476.57338a7.66741,7.66741,0,0,0-8.17529-10.72485,7.70278,7.70278,0,0,0-11.37186-6.05008,7.69672,7.69672,0,0,0-13.65577-2.30189,7.69537,7.69537,0,0,0-13.30363,1.34488,7.69386,7.69386,0,0,0-12.76729,5.68118c-.12643-.00619-.25111-.01912-.37907-.01912a7.69837,7.69837,0,0,0-6.8389,11.24718,8.67264,8.67264,0,0,0-1.67814,4.6919c0,.28751.019.575.03824.84327,4.13989,8.18378,18.32236,14.39342,34.63232,14.39342,16.31,0,30.49266-6.20964,34.63232-14.39342.0192-.26832.0384-.55576.0384-.84327A8.06012,8.06012,0,0,0,647.0852,476.57338Z"/>
                <path class="cls-48" d="M631.6236,483.715c-.26664,3.73285-6.89214,5.0388-9.75874,3.35956-1.3865,4.2128-8.292,4.84472-11.0119,2.07973-1.89311,2.87964-7.50144,3.36714-9.62534.55993-2.45312,2.58634-7.31634,2.25321-11.594.88978a55.549,55.549,0,0,0,23.95222,5.07525c16.30989,0,30.4925-6.20964,34.63231-14.39342.01913-.26832.03825-.55576.03825-.84327a8.06051,8.06051,0,0,0-1.17118-3.8692c-.47692,2.07563-4.58313,4.502-7.28482,3.44263C639.08929,482.78182,634.18333,484.72822,631.6236,483.715Z"/>
              </g>
            </g>
            <path class="cls-38" d="M694.67721,429.38593,673.384,440.23425l-.04408,42.91384-40.96693,9.97724-1.21852,12.409s37.86877-.612,48.62192-2.7241c7.468-1.46684,11.52833-3.29735,13.71056-8.42031C696.81849,486.56871,698.61712,440.29311,694.67721,429.38593Z"/>
            <path class="cls-49" d="M695.97188,426.426c-5.12785-12.84177-23.81923-2.72619-24.0878,12.68667l-1.38663,36.83058c-.464,9.67364,27.5142,11.56031,28.16405,2.038C698.6615,477.98119,699.91179,437.33316,695.97188,426.426Z"/>
          </g>
          <g>
            <path class="cls-38" d="M586.87049,432.61426c2.44837-3.14238,8.6194-1.49984,10.7785-1.15978l-2.75244,3.40308Z"/>
            <circle class="cls-50" cx="599.47642" cy="435.65437" r="4.57988"/>
            <path class="cls-38" d="M601.67425,441.29105c0,5.53526-5.27811,9.94938-8.89883,9.45964-3.8839-.52533-6.12627-4.35661-7.04538-9.7861-.94845-5.60277.54717-10.91036,4.88053-8.706C598.71187,436.37961,601.67425,435.75579,601.67425,441.29105Z"/>
            <path class="cls-38" d="M631.49444,492.489c5.7196,3.30522-.34,13.04529-.34,13.04529s-8.07445,2.11274-10.95456,1.8069-8.55133-4.51551-10.37282-7.58167a5.93227,5.93227,0,0,1,.25069-6.61076c1.32027-1.95429,6.78229-4.31134,8.86534-4.96954C623.45949,486.75212,631.49444,492.489,631.49444,492.489Z"/>
          </g>
        </g>
        <path class="cls-41" d="M645.13739,398.20194c-.14587,3.048.673,5.99768,4.04522,7.22865,6.84276,2.49779,17.36907-.81246,17.29907-6.511l-2.6115-16.78436-16.89472,1.90481Z"/>
      </g>
      <g>
        <path class="cls-51" d="M639.10708,347.87123a19.74427,19.74427,0,0,0-7.30963,16.85069c.46936,7.77493,8.01025,14.94353,8.01025,14.94353l1.58867-25.18334Z"/>
        <path class="cls-38" d="M651.11472,399.63431c9.74186-1.54072,15.18978-6.34633,16.3604-15.32891l2.49911-19.42419c1.22707-7.80765-5.29345-15.73953-14.463-16.37185-8.01408-.55265-16.74242,5.49937-17.35892,14.37694a179.87476,179.87476,0,0,0,.04783,19.72275C638.86276,391.3674,642.26149,401.03448,651.11472,399.63431Z"/>
        <path class="cls-52" d="M637.89269,369.13547c1.58931-.03667,4.5511-2.48178,6.36088-7.57518.96224,5.4981,2.79935,8.79447,8.75129,12.1417a25.31917,25.31917,0,0,0,11.33894,2.81554l-1.00027,1.67693,2.74745,1.94166c-.9846,6.13182-1.38891,10.54319-.35531,14.01518,6.036-1.99411,9.81164-5.77228,8.48292-12.52279,0,0,7.91755-10.08,4.94834-22.17591-2.17057-8.84245-11.27122-14.81448-22.64879-15.62045-9.21893-.65306-19.2078,1.97624-22.64992,11.00811S637.89269,369.13547,637.89269,369.13547Z"/>
        <path class="cls-38" d="M664.29616,384.61065c3.171.256,6.19773-3.956,6.48825-7.55427s-2.58046-6.878-5.43619-5.47614C661.76335,373.34008,661.1252,384.35463,664.29616,384.61065Z"/>
      </g>
    </g>
    <g>
      <g>
        <path class="cls-29" d="M665.333,655.65l-2.52933,16.92052c0,2.1491-2.98835,3.89117-6.67465,3.89117s-6.67465-1.74207-6.67465-3.89117L646.97292,655.65Z"/>
        <path class="cls-53" d="M665.333,655.65l-2.52933,16.92052c0,2.1491-2.98835,3.89117-6.67465,3.89117s-6.67465-1.74207-6.67465-3.89117L646.97292,655.65Z"/>
        <ellipse class="cls-31" cx="656.12904" cy="655.09988" rx="9.20391" ry="5.36564"/>
      </g>
      <path class="cls-54" d="M755.54644,605.82082l-2.52933,16.92052c0,2.1491-2.98835,3.89117-6.67465,3.89117s-6.67465-1.74207-6.67465-3.89117l-2.48146-16.92052Z"/>
      <g>
        <path class="cls-55" d="M747.83721,506.21556l.0007.00592c4.049-2.43263,9.69369-2.15192,15.95539,1.46326,12.31182,7.10827,22.29255,24.32346,22.29255,38.4513,0,13.0754-8.55458,18.90109-19.58894,14.06443l-4.3271,48.21922a4.9052,4.9052,0,0,1-2.29788,4.12564l.00351.0312-97.46128,56.1297-11.8758-106.48006Z"/>
        <path class="cls-56" d="M747.83721,506.21556l.00281.00471c4.04879-2.43132,9.69268-2.1501,15.95328,1.46447,12.31182,7.10827,22.29255,24.32346,22.29255,38.4513,0,6.91714-2.40976,11.779-6.29853,14.13305l.01555.02619-98.56828,56.70166-30.69623-54.77077Z"/>
        <path class="cls-57" d="M644.19079,573.96009l.0006-.00742.00278-.0311.00157.0011c1.15619-12.2141,10.64123-16.78545,22.17261-10.1278,12.31187,7.10826,22.2926,24.32346,22.2926,38.45125,0,13.07545-8.55467,18.90109-19.589,14.06442l-4.32708,48.21922c-.38733,4.31584-3.71349,5.85679-7.68834,3.56192L643.834,660.4576c-3.71619-2.14554-6.62391-7.49828-6.267-11.53667Z"/>
      </g>
    </g>
  </g>
  <g>
    <path class="cls-58" d="M812.50607,693.165l1.8445,63.51841c0,1.69361,2.389,3.06652,5.33582,3.06652s5.33568-1.37291,5.33568-3.06652l1.85222-63.51841Z"/>
    <path class="cls-59" d="M892.55147,646.634l1.8445,63.51841c0,1.69361,2.389,3.06652,5.33582,3.06652s5.33568-1.37291,5.33568-3.06652l1.85222-63.51841Z"/>
    <path class="cls-60" d="M711.45667,634.2154l1.8445,63.51841c0,1.69361,2.389,3.06652,5.33582,3.06652s5.33568-1.37291,5.33568-3.06652l1.85222-63.51841Z"/>
    <g>
      <g>
        <path class="cls-61" d="M908.37,629.771V643.1073a4.95916,4.95916,0,0,1-2.50121,4.45965l-78.66654,45.42674a14.93886,14.93886,0,0,1-8.22744,1.99034V609.8143Z"/>
        <path class="cls-62" d="M818.97483,609.8143V694.984a14.97268,14.97268,0,0,1-6.80125-1.99034l-99.08647-57.29937a4.95373,4.95373,0,0,1-2.49056-4.449h-.01065V620.67621Z"/>
      </g>
      <g>
        <path class="cls-63" d="M705.12841,607.39588l.00553,9.47843a5.26946,5.26946,0,0,0,2.65432,4.69658l103.8154,60.06264a15.96525,15.96525,0,0,0,15.96936.0013l83.60054-48.274a5.26767,5.26767,0,0,0,2.65725-4.55527l.00332-9.40867Z"/>
        <path class="cls-64" d="M911.17352,613.21489,807.33006,553.18024a15.96532,15.96532,0,0,0-15.96545-.001l-83.575,48.24581a5.32178,5.32178,0,0,0-.00131,9.21713l103.81535,60.06263a15.96533,15.96533,0,0,0,15.96938.00131l83.60053-48.274A5.32178,5.32178,0,0,0,911.17352,613.21489Z"/>
      </g>
    </g>
  </g>
  <g>
    <g>
      <path class="cls-65" d="M135.23844,683.28389l57.44735.137-7.27144,44.96719c-.61616,6.52709-9.993,11.71464-21.50366,11.71464-11.51124,0-20.8875-5.18755-21.50365-11.71464Z"/>
      <ellipse class="cls-23" cx="163.97705" cy="681.26282" rx="28.95033" ry="16.63812"/>
      <path class="cls-66" d="M138.85988,689.52907c4.9962,5.01961,14.38494,8.36606,25.12173,8.36606s20.125-3.34645,25.12174-8.36606c-3.18405-6.2281-13.223-10.783-25.12174-10.783S142.04392,683.301,138.85988,689.52907Z"/>
      <path class="cls-28" d="M163.977,668.57992c14.72992,0,24.99523,6.68409,24.99523,12.6829s-10.26531,12.683-24.99523,12.683-24.99523-6.68409-24.99523-12.683,10.26532-12.6829,24.99523-12.6829m0-3.95519c-15.98881,0-28.95036,7.44909-28.95036,16.63809S147.98818,697.901,163.977,697.901s28.95037-7.44915,28.95037-16.63814-12.96155-16.63809-28.95037-16.63809Z"/>
    </g>
    <path class="cls-67" d="M173.29872,642.56427c13.57247-2.08925,40.28563-10.896,34.695-20.9709S176.40374,623.15613,173.29872,642.56427Z"/>
    <path class="cls-66" d="M167.34159,684.98514a1.06856,1.06856,0,0,0,1.069-1.06866c0-28.84823,5.24942-47.65552,17.55331-62.88758a1.06892,1.06892,0,0,0-1.66337-1.343c-12.63614,15.64389-18.028,34.85254-18.028,64.23056A1.06855,1.06855,0,0,0,167.34159,684.98514Z"/>
    <path class="cls-66" d="M162.54729,684.98514a1.06855,1.06855,0,0,0,1.069-1.06866c0-27.1709,0-64.38342-13.64827-81.28025a1.06892,1.06892,0,0,0-1.66336,1.343c13.17362,16.3098,13.17362,53.08467,13.17362,79.93727A1.06856,1.06856,0,0,0,162.54729,684.98514Z"/>
    <path class="cls-66" d="M162.04472,655.81792a1.069,1.069,0,0,0,1.06447-.98141c1.77295-21.72917,6.48245-36.49776,14.82128-46.47656a1.06888,1.06888,0,1,0-1.64033-1.3709c-8.63583,10.33409-13.501,25.48309-15.312,47.673a1.06892,1.06892,0,0,0,.97862,1.15242C161.98643,655.81722,162.01575,655.81792,162.04472,655.81792Z"/>
    <path class="cls-68" d="M166.7223,627.6816c12.86044-9.62311,33.73343-34.95853,22.42017-42.28251S159.25049,605.94,166.7223,627.6816Z"/>
    <path class="cls-69" d="M162.04363,666.01441c-10.76033-1.42015-31.43676-9.45167-27.19036-17.5078S159.26012,650.73112,162.04363,666.01441Z"/>
    <path class="cls-66" d="M162.50366,672.81038c.02548,0,.0513-.0007.07713-.0028a1.06845,1.06845,0,0,0,.99013-1.142c-1.33041-18.61533-9.62631-38.26652-22.90812-39.80774a1.0688,1.0688,0,1,0-.2464,2.12336c12.1266,1.4072,19.7545,20.09931,21.02209,37.83655A1.06859,1.06859,0,0,0,162.50366,672.81038Z"/>
    <path class="cls-66" d="M167.79216,671.103a1.06973,1.06973,0,0,0,1.06064-.9479c1.38451-12.08472,12.506-20.6682,18.1522-22.57726a1.06912,1.06912,0,0,0-.68475-2.02564c-6.09436,2.06123-18.09776,11.32248-19.59151,24.36a1.06864,1.06864,0,0,0,.94022,1.18314A1.0532,1.0532,0,0,0,167.79216,671.103Z"/>
    <path class="cls-70" d="M173.29872,656.355c11.35611-.1213,34.63729-3.84016,31.23994-12.74286S178.11313,640.82947,173.29872,656.355Z"/>
    <path class="cls-71" d="M177.39211,631.85463c9.56291-7.74871,25.34693-27.39454,16.46772-32.66816S171.02813,615.42768,177.39211,631.85463Z"/>
    <path class="cls-72" d="M155.84178,644.89008c-17.69964-4.74187-50.545-22.72967-41.6665-35.28166S154.54108,618.69564,155.84178,644.89008Z"/>
    <path class="cls-73" d="M158.28645,623.65547c-12.03753-9.00733-32.20268-30.18572-21.61334-37.04106S165.28014,603.30505,158.28645,623.65547Z"/>
  </g>
  <g>
    <g>
      <path class="cls-74" d="M206.26536,769.45544,428.31149,897.72138a14.9963,14.9963,0,0,0,14.99979.00141l63.75622-36.81313a4.99876,4.99876,0,0,0,.0001-8.65785L284.98533,724.01332a14.99631,14.99631,0,0,0-14.99642-.00091l-63.72232,36.78534A4.99876,4.99876,0,0,0,206.26536,769.45544Z"/>
      <g>
        <path class="cls-75" d="M425.37793,875.15152,427.3948,890.154c0,1.85188,2.6122,3.3531,5.83446,3.3531s5.83431-1.50122,5.83431-3.3531l2.02531-15.00248Z"/>
        <path class="cls-76" d="M487.10778,839.35031l2.01687,15.00248c0,1.85188,2.6122,3.3531,5.83446,3.3531s5.83431-1.50122,5.83431-3.3531l2.02531-15.00248Z"/>
        <path class="cls-77" d="M210.46908,751.08346,212.486,766.086c0,1.85188,2.61219,3.35309,5.83446,3.35309s5.83431-1.50121,5.83431-3.35309L226.18,751.08346Z"/>
        <g>
          <path class="cls-78" d="M505.57605,777.23341v64.38787h-.01943a4.81993,4.81993,0,0,1-2.4147,3.97254l-62.09,35.85a14.50386,14.50386,0,0,1-7.81849,1.93756V755.3359Z"/>
          <polygon class="cls-79" points="277.88 787.02 319.423 763.04 277.88 739.056 277.88 787.02"/>
          <polygon class="cls-80" points="277.88 760.574 319.423 736.593 363.108 761.814 363.108 809.778 277.88 760.574"/>
          <path class="cls-81" d="M207.75415,687.08261v64.865h.02924a4.83631,4.83631,0,0,0,2.4049,4.57619l216.249,124.92a14.42726,14.42726,0,0,0,6.7961,1.93757V755.33587ZM363.10789,788.26017v21.51961l-85.22823-49.204V739.05608Zm-85.22823-1.23977V768.98423l85.22823,49.204v18.03629Z"/>
          <polygon class="cls-82" points="363.108 818.188 293.501 778.003 277.88 787.02 363.108 836.224 363.108 818.188"/>
          <path class="cls-83" d="M509.56736,772.62855l-18.52192-5.54L203.767,681.162v7.78531l.0163.00488a4.94973,4.94973,0,0,0,2.48211,4.59176l222.04614,128.266a14.99625,14.99625,0,0,0,14.99978.00141l63.75619-36.81313a4.95189,4.95189,0,0,0,2.4992-4.329l.00067.00018Z"/>
          <path class="cls-84" d="M206.26536,685.54594,428.31149,813.81188a14.9963,14.9963,0,0,0,14.99979.00141l63.75622-36.81313a4.99877,4.99877,0,0,0,.0001-8.65786L284.98533,640.10382a14.99631,14.99631,0,0,0-14.99642-.00091l-63.72232,36.78534A4.99876,4.99876,0,0,0,206.26536,685.54594Z"/>
        </g>
      </g>
    </g>
    <g>
      <path class="cls-85" d="M397.50589,727.16663,298.02964,709.5255l.0023,5.52667a3.99832,3.99832,0,0,0,2.017,3.47939l56.205,32.45158a12.11617,12.11617,0,0,0,12.11635.00017l29.13555-16.82143A4.03871,4.03871,0,0,0,397.50589,727.16663Z"/>
      <path class="cls-86" d="M356.25393,745.59824l-56.205-32.45163a4.0387,4.0387,0,0,1,.00008-6.99519L329.18458,689.33a12.1161,12.1161,0,0,1,12.11634.00013l56.205,32.45163a4.0387,4.0387,0,0,1-.00008,6.99519l-29.13557,16.82143A12.11613,12.11613,0,0,1,356.25393,745.59824Z"/>
      <g>
        <path class="cls-87" d="M453.94111,616.90034,259.38855,504.58115a5.87132,5.87132,0,0,0-5.91587-.006l-.00055-.00068-8.00067,4.62276L451.96737,769.50251l9.40769-5.43491-1.39017.79425a5.86251,5.86251,0,0,0,2.84885-5.05758V632.30237A17.7847,17.7847,0,0,0,453.94111,616.90034Z"/>
        <path class="cls-88" d="M251.50139,657.17524,446.05391,769.49446a5.92818,5.92818,0,0,0,8.89215-5.134V636.85857a17.78451,17.78451,0,0,0-8.8926-15.402L251.50094,509.13731a5.92817,5.92817,0,0,0-8.89215,5.134V641.7732A17.78452,17.78452,0,0,0,251.50139,657.17524Z"/>
        <g>
          <path class="cls-89" d="M267.588,629.29325l162.379,93.74479a2.69246,2.69246,0,0,0,4.03864-2.33178v-6.72694a8.07739,8.07739,0,0,0-4.03885-6.99532l-162.379-93.74479a2.69246,2.69246,0,0,0-4.03864,2.33177v6.72694A8.07742,8.07742,0,0,0,267.588,629.29325Z"/>
          <path class="cls-90" d="M434.00566,713.97932a8.07735,8.07735,0,0,0-4.03878-6.99533L268.21082,613.59882v5.99226a8.07744,8.07744,0,0,0,4.03886,6.99533l161.756,93.38509Z"/>
        </g>
      </g>
      <g>
        <path class="cls-91" d="M332.19263,696.025,357.83,710.826a2.09934,2.09934,0,0,0,3.149-1.8181V694.42247a8.07741,8.07741,0,0,0-4.03886-6.99532l-25.63735-14.801a2.09934,2.09934,0,0,0-3.149,1.81811v14.58543A8.07741,8.07741,0,0,0,332.19263,696.025Z"/>
        <g>
          <path class="cls-92" d="M357.187,718.19385v5.22339a1.31338,1.31338,0,0,1-.67312,1.15774l-7.21579,4.1599-.70007.40385a.65532.65532,0,0,1-.09425.04043,4.00813,4.00813,0,0,1-1.91162.4981v-4.21372l6.44842-30.97684v21.31089Z"/>
          <polygon class="cls-93" points="346.59 725.461 353.037 694.483 333.611 683.353 327.164 714.331 346.59 725.461"/>
          <path class="cls-94" d="M346.59216,725.46354v4.21372a3.9414,3.9414,0,0,1-1.89824-.48471l-1.02307-.57887-15.83172-9.0736a1.32928,1.32928,0,0,1-.67311-1.15774v-4.05218Z"/>
        </g>
      </g>
    </g>
  </g>
  <g>
    <g>
      <polygon class="cls-95" points="700.943 249.098 658.644 224.637 658.644 288.783 700.943 313.244 700.943 249.098"/>
      <polygon class="cls-96" points="700.943 252.441 667.796 233.273 667.796 283.54 700.943 302.708 700.943 252.441"/>
      <path class="cls-97" d="M662.43754,231.21262,697.15,251.2864v55.3823l-34.71246-20.07381V231.21262m-3.79314-6.57526V288.7831L700.94314,313.244V249.0982L658.6444,224.63736Z"/>
      <polygon class="cls-98" points="707.792 309.301 707.792 245.155 700.943 249.098 700.943 313.244 707.792 309.301"/>
      <polygon class="cls-99" points="707.792 245.155 665.479 220.703 658.644 224.637 700.943 249.098 707.792 245.155"/>
    </g>
    <g>
      <polygon class="cls-100" points="756.745 307.595 714.447 283.134 714.447 347.28 756.745 371.741 756.745 307.595"/>
      <polygon class="cls-101" points="756.745 310.938 723.598 291.77 723.598 342.037 756.745 361.205 756.745 310.938"/>
      <path class="cls-102" d="M718.23978,289.70955l34.71246,20.07379v55.38229l-34.71246-20.0738V289.70955m-3.79314-6.57526V347.28l42.29874,24.46086V307.59514l-42.29874-24.46085Z"/>
      <polygon class="cls-103" points="763.595 367.798 763.595 303.652 756.745 307.595 756.745 371.741 763.595 367.798"/>
      <polygon class="cls-104" points="763.595 303.652 721.282 279.2 714.447 283.134 756.745 307.595 763.595 303.652"/>
    </g>
    <g>
      <polygon class="cls-105" points="812.548 297.912 770.249 273.451 770.249 337.597 812.548 362.058 812.548 297.912"/>
      <polygon class="cls-106" points="812.548 301.255 779.401 282.087 779.401 332.354 812.548 351.523 812.548 301.255"/>
      <path class="cls-107" d="M774.042,280.02671l34.71245,20.07379v55.38229L774.042,335.409V280.02671m-3.79314-6.57526v64.14574l42.29873,24.46086V297.91229l-42.29873-24.46084Z"/>
      <polygon class="cls-108" points="819.397 358.115 819.397 293.969 812.548 297.912 812.548 362.058 819.397 358.115"/>
      <polygon class="cls-109" points="819.397 293.969 777.084 269.517 770.249 273.451 812.548 297.912 819.397 293.969"/>
    </g>
  </g>
  <g>
    <path class="cls-2" d="M724.67021,585.9151v10.35035c0,5.46723,7.7119,9.89933,17.225,9.89933s17.225-4.4321,17.225-9.89933V585.9151Z"/>
    <ellipse class="cls-110" cx="741.89521" cy="585.91513" rx="17.22501" ry="9.89943"/>
    <ellipse class="cls-111" cx="741.89521" cy="585.91513" rx="12.77329" ry="7.34097"/>
  </g>
  <path class="cls-112" d="M739.07453,587.24617a1.75985,1.75985,0,0,1-.43659-.05324l-21.73229-5.351a1.81694,1.81694,0,1,1,.86964-3.52828l21.73229,5.351a1.81719,1.81719,0,0,1-.433,3.58152Z"/>
  <path class="cls-113" d="M725.45835,583.8936a1.75985,1.75985,0,0,1-.43659-.05324l-8.11611-1.99842a1.81694,1.81694,0,1,1,.86964-3.52828l8.11611,1.99841a1.8172,1.8172,0,0,1-.433,3.58153Z"/>
  <path class="cls-114" d="M740.85118,582.31971s7.70354-12.50452,6.72819-19.00157-4.75613-8.57421-5.38347-14.09527,8.16755-22.93271,8.16755-22.93271H731.7511s-4.599,15.88654-3.54427,22.57071,10.3543,10.493,12.64435,17.40648C742.20718,570.361,740.85118,582.31971,740.85118,582.31971Z"/>
  <g>
    <g>
      <g>
        <path class="cls-115" d="M894.53112,613.44275,825.443,573.50109a10.62188,10.62188,0,0,0-10.622-.00064l-55.6033,32.09842a3.54062,3.54062,0,0,0-.00087,6.13224l69.06938,39.96027a10.6219,10.6219,0,0,0,10.62459.00087l55.62027-32.11718A3.54063,3.54063,0,0,0,894.53112,613.44275Z"/>
        <path class="cls-2" d="M814.8211,580.479l-54.87159,31.676,68.3368,39.53642a10.622,10.622,0,0,0,10.62455.00089L893.799,619.99786,825.4431,580.47942A10.62182,10.62182,0,0,0,814.8211,580.479Z"/>
      </g>
      <g>
        <path class="cls-116" d="M825.98424,594.87468c21.54026,0,39.73814,9.78023,39.73814,21.35676s-18.19788,21.35675-39.73814,21.35675c-21.54017,0-39.73792-9.78023-39.73792-21.35675s18.19775-21.35676,39.73792-21.35676m0-4.2476c-24.29254,0-43.98557,11.46337-43.98557,25.60436,0,14.1409,19.693,25.60435,43.98557,25.60435,24.29271,0,43.98574-11.46345,43.98574-25.60435,0-14.141-19.693-25.60436-43.98574-25.60436Z"/>
        <path class="cls-28" d="M825.98424,586.99231c-24.29254,0-43.98557,11.46337-43.98557,25.60436,0,14.1409,19.693,25.60435,43.98557,25.60435,24.29271,0,43.98574-11.46345,43.98574-25.60435,0-14.141-19.693-25.60436-43.98574-25.60436Z"/>
        <path class="cls-117" d="M825.98424,591.23991c21.54026,0,39.73814,9.78023,39.73814,21.35676s-18.19788,21.35675-39.73814,21.35675c-21.54017,0-39.73792-9.78023-39.73792-21.35675s18.19775-21.35676,39.73792-21.35676m0-4.2476c-24.29254,0-43.98557,11.46337-43.98557,25.60436,0,14.1409,19.693,25.60435,43.98557,25.60435,24.29271,0,43.98574-11.46345,43.98574-25.60435,0-14.141-19.693-25.60436-43.98574-25.60436Z"/>
      </g>
      <path class="cls-118" d="M855.61456,551.66853,793.145,515.444a2.127,2.127,0,0,0-2.90852,2.90422l30.809,53.31215,74.5514,43.23053-31.80128-55.02914A22.46434,22.46434,0,0,0,855.61456,551.66853Z"/>
      <path class="cls-119" d="M893.79892,619.9978l-54.888,31.6944a10.62175,10.62175,0,0,1-10.62455-.00089L759.94967,612.155c-1.63259-1.06266-2.44877-2.23468-2.50246-3.5092l.00355,7.23159a3.50707,3.50707,0,0,0,1.76614,3.12474l69.06924,39.96026a10.62272,10.62272,0,0,0,10.62477.00089L894.531,626.846a3.50489,3.50489,0,0,0,1.76813-3.03067l.00222-7.30636C896.30137,618.08709,895.455,618.92777,893.79892,619.9978Z"/>
    </g>
    <polygon class="cls-2" points="787.757 599.926 792.556 601.226 828.862 613.542 814.251 592.231 811.272 588.461 803.457 588.461 790 595.561 787.757 599.926"/>
    <path class="cls-120" d="M811.27233,588.4612c-1.46431,1.08222-2.13133,4.72182,0,7.60253l11.88,15.54116,5.70932,1.93674C821.9397,602.90155,814.7436,591.67224,811.27233,588.4612Z"/>
    <path class="cls-121" d="M797.00053,609.90789c-2.99978,0-5.43159,1.41556-5.43159,3.16177s2.43181,3.16178,5.43159,3.16178,5.43161-1.41558,5.43161-3.16178-2.4318-3.16177-5.43161-3.16177Z"/>
    <path class="cls-121" d="M819.38707,613.77359c-2.99979,0-5.43159,1.41557-5.43159,3.16178s2.4318,3.16177,5.43159,3.16177,5.43161-1.41557,5.43161-3.16177-2.43181-3.16178-5.43161-3.16178Z"/>
    <path class="cls-121" d="M852.15763,616.23144c-2.99978,0-5.43159,1.41556-5.43159,3.16177s2.43181,3.16178,5.43159,3.16178,5.43162-1.41558,5.43162-3.16178-2.43181-3.16177-5.43162-3.16177Z"/>
    <path class="cls-121" d="M834.29314,595.95265c-2.99979,0-5.43159,1.41556-5.43159,3.16177s2.4318,3.16178,5.43159,3.16178,5.43161-1.41557,5.43161-3.16178-2.43181-3.16177-5.43161-3.16177Z"/>
    <path class="cls-121" d="M852.15763,602.79684c-2.99978,0-5.43159,1.41556-5.43159,3.16177s2.43181,3.16178,5.43159,3.16178,5.43162-1.41557,5.43162-3.16178-2.43181-3.16177-5.43162-3.16177Z"/>
    <path class="cls-121" d="M839.72474,609.43489c-2.99978,0-5.43159,1.41557-5.43159,3.16178s2.43181,3.16177,5.43159,3.16177,5.43162-1.41557,5.43162-3.16177-2.43181-3.16178-5.43162-3.16178Z"/>
    <path class="cls-121" d="M830.60158,622.00982c-2.99978,0-5.43159,1.41557-5.43159,3.16178s2.43181,3.16177,5.43159,3.16177,5.43162-1.41557,5.43162-3.16177-2.43181-3.16178-5.43162-3.16178Z"/>
    <path class="cls-121" d="M808.30931,621.42981c-2.99978,0-5.43159,1.41556-5.43159,3.16177s2.43181,3.16178,5.43159,3.16178,5.43162-1.41558,5.43162-3.16178-2.43181-3.16177-5.43162-3.16177Z"/>
  </g>
  <g>
    <path class="cls-122" d="M788.53525,582.416c0,3.60014-5.0139,6.51859-11.19856,6.51859-6.18515,0-11.19856-2.91845-11.19856-6.51859V542.14049h22.39712Z"/>
    <path class="cls-123" d="M781.84442,528.54992s-.91823-1.44827-4.508-1.44827-4.50774,1.44827-4.50774,1.44827-6.691,8.76329-6.691,13.5904c0,3.60038,5.01378,6.519,11.1987,6.519s11.19869-2.91864,11.19869-6.519C788.53515,536.88786,781.84442,528.54992,781.84442,528.54992Z"/>
    <path class="cls-124" d="M777.33651,558.40079c-5.54156,0-10.13116-2.34561-11.02832-5.42287h-.16994v17.7328c0,3.60016,5.01334,6.51836,11.19848,6.51836,6.18469,0,11.19847-2.9182,11.19847-6.51836v-17.7328h-.17038C787.46767,556.05518,782.87806,558.40079,777.33651,558.40079Z"/>
    <path class="cls-125" d="M781.33838,509.56651h-8.00363l-.506,18.98341c0,1.49609,2.01815,2.70867,4.50774,2.70867,2.4898,0,4.508-1.21258,4.508-2.70867Z"/>
    <ellipse class="cls-126" cx="777.33669" cy="508.83521" rx="5.13103" ry="2.98681"/>
    <ellipse class="cls-127" cx="777.33669" cy="508.29005" rx="3.2943" ry="1.82091"/>
  </g>
  <g>
    <g>
      <path class="cls-128" d="M217.50614,153.87283a198.65282,198.65282,0,1,1-77.5835,15.65723,198.06008,198.06008,0,0,1,77.5835-15.65723m0-18.17383C97.38083,135.699,0,233.07986,0,353.20535S97.38083,570.7117,217.50614,570.7117s217.5061-97.38086,217.5061-217.50635S337.63144,135.699,217.50614,135.699Z"/>
      <circle class="cls-129" cx="217.50613" cy="353.20537" r="201.18409"/>
    </g>
    <path class="cls-130" d="M63.72042,482.90111a201.15612,201.15612,0,0,0,307.57135,0Z"/>
    <g>
      <circle class="cls-128" cx="58.40473" cy="223.52672" r="51.44097"/>
      <g>
        <rect class="cls-27" x="54.21768" y="194.94778" width="11.16548" height="57.15788" transform="translate(-140.54212 107.75474) rotate(-45)"/>
        <rect class="cls-27" x="54.21768" y="194.94778" width="11.16548" height="57.15788" transform="translate(-55.97156 423.86926) rotate(-135)"/>
      </g>
    </g>
    <g>
      <path class="cls-131" d="M317.6699,183.70377,313.86812,103.677H275.18427l-3.80188,80.02692a87.36013,87.36013,0,0,1-14.36354,43.99638l-.00012.00017a87.36012,87.36012,0,0,0-14.462,48.142V464.3847a18.51641,18.51641,0,0,0,18.51642,18.51641h66.906a18.51642,18.51642,0,0,0,18.51642-18.51641V275.84251a87.36013,87.36013,0,0,0-14.462-48.14209l0-.00005A87.36013,87.36013,0,0,1,317.6699,183.70377Z"/>
      <path class="cls-132" d="M294.52615,434.29125h.00008c22.43508,0,40.6223-21.09455,40.6223-47.116V331.08463c0-26.02145-18.18722-47.116-40.6223-47.116h-.00008c-22.43507,0-40.62229,21.09455-40.62229,47.116v56.09063C253.90386,413.1967,272.09108,434.29125,294.52615,434.29125Z"/>
      <path class="cls-133" d="M323.40934,210.9214h-57.7665a87.2165,87.2165,0,0,1-8.624,16.77885l-.00011.00023a87.35514,87.35514,0,0,0-13.05668,32.5626H345.09027a87.35486,87.35486,0,0,0-13.05679-32.56272A87.21468,87.21468,0,0,1,323.40934,210.9214Z"/>
      <polygon class="cls-134" points="274.094 126.627 314.958 126.627 314.113 108.84 274.939 108.84 274.094 126.627"/>
      <rect class="cls-135" x="268.73693" y="97.22973" width="51.57849" height="15.13716" rx="7.56857"/>
    </g>
    <g>
      <rect class="cls-136" x="69.14082" y="433.34351" width="194.00215" height="49.55761" rx="7.54997"/>
      <rect class="cls-137" x="51.31063" y="411.30264" width="229.66253" height="58.667" rx="8.93776"/>
    </g>
    <g>
      <path class="cls-138" d="M25.71672,338.34246c-5.70467-.98921-11.62653,5.68914-13.22658,14.91646s1.72761,17.50956,7.43228,18.49876l82.23594,14.26,5.79429-33.41522Z"/>
      <g>
        <path class="cls-139" d="M107.95265,352.60242c-5.70485-.98924-11.62652,5.68913-13.22657,14.91646s1.72742,17.50952,7.43228,18.49876l81.20452,14.08111,5.7943-33.41523Z"/>
        <ellipse class="cls-140" cx="186.25994" cy="383.39115" rx="16.95717" ry="10.48354" transform="translate(-223.31714 501.40875) rotate(-80.16256)"/>
      </g>
      <g>
        <path class="cls-141" d="M189.15713,366.68351c-5.70486-.98923-11.62653,5.68914-13.22658,14.91646s1.72743,17.50953,7.43228,18.49877l18.3944,3.18964,5.7943-33.41522Z"/>
        <ellipse class="cls-142" cx="204.65429" cy="386.58078" rx="16.95717" ry="10.48354" transform="translate(-211.20826 522.17731) rotate(-80.16256)"/>
      </g>
    </g>
    <path class="cls-143" d="M200.0943,366.58637s27.85554-45.21561,24.32873-68.70859-17.19789-31.00384-19.46632-50.96766,29.53338-82.92337,29.53338-82.92337H167.18894s-16.62964,57.44481-12.81588,81.6144S191.8136,283.543,200.0943,308.542C204.99749,323.34441,200.0943,366.58637,200.0943,366.58637Z"/>
  </g>
</svg>
