<svg id="Layer_1" data-name="Layer 1" xmlns="http://www.w3.org/2000/svg" xmlns:xlink="http://www.w3.org/1999/xlink" viewBox="0 0 1000 1000">
  <defs>
    <style>
      .cls-1 {
        fill: #e4ecf2;
      }

      .cls-2 {
        fill: #dae3ea;
      }

      .cls-3 {
        fill: url(#linear-gradient);
      }

      .cls-24, .cls-4 {
        fill: #9bb0c4;
      }

      .cls-16, .cls-4, .cls-76, .cls-80 {
        opacity: 0.5;
      }

      .cls-22, .cls-5, .cls-80 {
        fill: #fff;
      }

      .cls-5 {
        opacity: 0.7;
      }

      .cls-6 {
        fill: url(#linear-gradient-2);
      }

      .cls-7 {
        fill: url(#linear-gradient-3);
      }

      .cls-8 {
        fill: url(#linear-gradient-4);
      }

      .cls-9 {
        fill: url(#linear-gradient-5);
      }

      .cls-10 {
        fill: url(#linear-gradient-6);
      }

      .cls-11 {
        fill: url(#linear-gradient-7);
      }

      .cls-12 {
        fill: url(#linear-gradient-8);
      }

      .cls-13 {
        fill: url(#linear-gradient-9);
      }

      .cls-14 {
        fill: url(#linear-gradient-10);
      }

      .cls-15 {
        fill: url(#linear-gradient-11);
      }

      .cls-16 {
        fill: #dd7b19;
      }

      .cls-17 {
        fill: url(#linear-gradient-12);
      }

      .cls-18 {
        fill: url(#linear-gradient-13);
      }

      .cls-19 {
        fill: url(#linear-gradient-14);
      }

      .cls-20 {
        fill: #b8cbd8;
      }

      .cls-21 {
        fill: url(#linear-gradient-15);
      }

      .cls-23 {
        fill: url(#linear-gradient-16);
      }

      .cls-25 {
        fill: url(#linear-gradient-17);
      }

      .cls-26 {
        fill: url(#linear-gradient-18);
      }

      .cls-27 {
        fill: url(#linear-gradient-19);
      }

      .cls-28 {
        fill: url(#linear-gradient-20);
      }

      .cls-29 {
        fill: url(#linear-gradient-21);
      }

      .cls-30 {
        fill: url(#linear-gradient-22);
      }

      .cls-31 {
        fill: url(#linear-gradient-23);
      }

      .cls-32 {
        fill: url(#linear-gradient-24);
      }

      .cls-33 {
        fill: url(#linear-gradient-25);
      }

      .cls-34 {
        fill: url(#linear-gradient-26);
      }

      .cls-35 {
        fill: url(#linear-gradient-27);
      }

      .cls-36 {
        fill: url(#linear-gradient-28);
      }

      .cls-37 {
        fill: url(#linear-gradient-29);
      }

      .cls-38 {
        fill: url(#linear-gradient-30);
      }

      .cls-39 {
        fill: url(#linear-gradient-31);
      }

      .cls-40 {
        fill: url(#linear-gradient-32);
      }

      .cls-41 {
        fill: url(#linear-gradient-33);
      }

      .cls-42 {
        fill: url(#linear-gradient-34);
      }

      .cls-43 {
        fill: url(#linear-gradient-35);
      }

      .cls-44 {
        fill: #ffbda3;
      }

      .cls-45 {
        fill: url(#linear-gradient-36);
      }

      .cls-46 {
        fill: url(#linear-gradient-37);
      }

      .cls-47 {
        fill: #27343d;
      }

      .cls-48 {
        fill: #303d49;
      }

      .cls-49 {
        fill: url(#linear-gradient-38);
      }

      .cls-50 {
        fill: url(#linear-gradient-39);
      }

      .cls-51 {
        fill: url(#linear-gradient-40);
      }

      .cls-52 {
        fill: url(#linear-gradient-41);
      }

      .cls-53 {
        fill: url(#linear-gradient-42);
      }

      .cls-54 {
        fill: url(#linear-gradient-43);
      }

      .cls-55 {
        fill: url(#linear-gradient-44);
      }

      .cls-56 {
        fill: url(#linear-gradient-45);
      }

      .cls-57 {
        fill: #e58630;
      }

      .cls-58 {
        fill: url(#linear-gradient-46);
      }

      .cls-59 {
        fill: url(#linear-gradient-47);
      }

      .cls-60 {
        fill: url(#linear-gradient-48);
      }

      .cls-61 {
        fill: url(#linear-gradient-49);
      }

      .cls-62 {
        fill: url(#linear-gradient-50);
      }

      .cls-63 {
        fill: url(#linear-gradient-51);
      }

      .cls-64 {
        fill: url(#linear-gradient-52);
      }

      .cls-65 {
        fill: url(#linear-gradient-53);
      }

      .cls-66 {
        fill: #724133;
      }

      .cls-67 {
        fill: #ffcb48;
      }

      .cls-68 {
        fill: url(#linear-gradient-54);
      }

      .cls-69 {
        fill: url(#linear-gradient-55);
      }

      .cls-70 {
        fill: url(#linear-gradient-56);
      }

      .cls-71 {
        fill: url(#linear-gradient-57);
      }

      .cls-72 {
        fill: url(#linear-gradient-58);
      }

      .cls-73 {
        fill: url(#linear-gradient-59);
      }

      .cls-74 {
        fill: url(#linear-gradient-60);
      }

      .cls-75 {
        fill: #34a521;
      }

      .cls-76 {
        fill: url(#linear-gradient-61);
      }

      .cls-77 {
        fill: url(#linear-gradient-62);
      }

      .cls-78 {
        fill: url(#linear-gradient-63);
      }

      .cls-79 {
        fill: url(#linear-gradient-64);
      }

      .cls-81 {
        fill: url(#linear-gradient-65);
      }

      .cls-82 {
        fill: url(#linear-gradient-66);
      }

      .cls-83 {
        fill: url(#linear-gradient-67);
      }

      .cls-84 {
        fill: url(#linear-gradient-68);
      }
    </style>
    <linearGradient id="linear-gradient" x1="68.49217" y1="710.53755" x2="881.76898" y2="710.53755" gradientUnits="userSpaceOnUse">
      <stop offset="0.00663" stop-color="#c4d5e6"/>
      <stop offset="1" stop-color="#dae9f2"/>
    </linearGradient>
    <linearGradient id="linear-gradient-2" x1="99.53657" y1="385.52199" x2="446.07635" y2="385.52199" gradientUnits="userSpaceOnUse">
      <stop offset="0" stop-color="#3e4c59"/>
      <stop offset="1" stop-color="#293440"/>
    </linearGradient>
    <linearGradient id="linear-gradient-3" x1="157.26146" y1="622.47097" x2="157.26146" y2="281.99882" gradientUnits="userSpaceOnUse">
      <stop offset="0" stop-color="#62778c"/>
      <stop offset="1" stop-color="#435466"/>
    </linearGradient>
    <linearGradient id="linear-gradient-4" x1="272.77298" y1="555.78865" x2="272.77298" y2="215.30089" xlink:href="#linear-gradient-3"/>
    <linearGradient id="linear-gradient-5" x1="388.31798" y1="489.09836" x2="388.31798" y2="148.57227" xlink:href="#linear-gradient-3"/>
    <linearGradient id="linear-gradient-6" x1="110.73443" y1="388.75101" x2="446.07635" y2="388.75101" gradientUnits="userSpaceOnUse">
      <stop offset="0" stop-color="#435466"/>
      <stop offset="1" stop-color="#62778c"/>
    </linearGradient>
    <linearGradient id="linear-gradient-7" x1="99.5151" y1="388.75052" x2="457.29124" y2="388.75052" xlink:href="#linear-gradient-3"/>
    <linearGradient id="linear-gradient-8" x1="209.4036" y1="575.1869" x2="209.4036" y2="275.51472" xlink:href="#linear-gradient-3"/>
    <linearGradient id="linear-gradient-9" x1="324.92203" y1="508.49539" x2="324.92203" y2="208.81678" xlink:href="#linear-gradient-3"/>
    <linearGradient id="linear-gradient-10" x1="440.45579" y1="441.79189" x2="440.45579" y2="142.11328" xlink:href="#linear-gradient-3"/>
    <linearGradient id="linear-gradient-11" x1="384.61945" y1="154.8605" x2="109.91505" y2="602.74813" gradientUnits="userSpaceOnUse">
      <stop offset="0.00005" stop-color="#ffcb48"/>
      <stop offset="1" stop-color="#e68e2b"/>
    </linearGradient>
    <linearGradient id="linear-gradient-12" x1="465.58102" y1="204.51693" x2="190.87661" y2="652.40455" xlink:href="#linear-gradient-11"/>
    <linearGradient id="linear-gradient-13" x1="490.40717" y1="121.46717" x2="81.93366" y2="443.05048" gradientUnits="userSpaceOnUse">
      <stop offset="0" stop-color="#849bb2"/>
      <stop offset="1" stop-color="#5b6f82"/>
    </linearGradient>
    <linearGradient id="linear-gradient-14" x1="472.73456" y1="99.01952" x2="64.26105" y2="420.60283" xlink:href="#linear-gradient-13"/>
    <linearGradient id="linear-gradient-15" x1="454.30571" y1="75.61128" x2="45.8322" y2="397.19459" xlink:href="#linear-gradient-13"/>
    <linearGradient id="linear-gradient-16" x1="78.57042" y1="442.23837" x2="89.42402" y2="442.23837" gradientTransform="translate(424.98828 148.37546) rotate(60)" xlink:href="#linear-gradient-3"/>
    <linearGradient id="linear-gradient-17" x1="8910.51901" y1="457.94042" x2="8947.63397" y2="555.69857" gradientTransform="matrix(-1, 0, 0, 1, 9414.82831, 0)" xlink:href="#linear-gradient-13"/>
    <linearGradient id="linear-gradient-18" x1="8925.48847" y1="489.39282" x2="8932.44752" y2="576.87809" gradientTransform="matrix(-1, 0, 0, 1, 9414.82831, 0)" gradientUnits="userSpaceOnUse">
      <stop offset="0" stop-color="#62788c"/>
      <stop offset="1" stop-color="#526575"/>
    </linearGradient>
    <linearGradient id="linear-gradient-19" x1="8858.24579" y1="488.79876" x2="8885.75062" y2="603.45747" xlink:href="#linear-gradient-18"/>
    <linearGradient id="linear-gradient-20" x1="8900.88175" y1="555.56886" x2="9205.42326" y2="658.62915" xlink:href="#linear-gradient-18"/>
    <linearGradient id="linear-gradient-21" x1="8889.09431" y1="499.39988" x2="9242.3492" y2="621.34904" gradientTransform="matrix(-1, 0, 0, 1, 9414.82831, 0)" xlink:href="#linear-gradient-13"/>
    <linearGradient id="linear-gradient-22" x1="8927.78009" y1="481.95357" x2="9137.21451" y2="688.07416" gradientTransform="matrix(-1, 0, 0, 1, 9414.82831, 0)" xlink:href="#linear-gradient-3"/>
    <linearGradient id="linear-gradient-23" x1="9024.86939" y1="400.18681" x2="9054.03115" y2="567.8669" xlink:href="#linear-gradient-18"/>
    <linearGradient id="linear-gradient-24" x1="8987.34843" y1="421.42754" x2="9196.78285" y2="627.54813" gradientTransform="matrix(-1, 0, 0, 1, 9414.82831, 0)" xlink:href="#linear-gradient-3"/>
    <linearGradient id="linear-gradient-25" x1="8955.41587" y1="397.30432" x2="9152.92048" y2="684.2825" gradientTransform="matrix(-1, 0, 0, 1, 9414.82831, 0)" xlink:href="#linear-gradient-13"/>
    <linearGradient id="linear-gradient-26" x1="8947.67242" y1="461.74142" x2="9157.10685" y2="667.86201" gradientTransform="matrix(-1, 0, 0, 1, 9414.82831, 0)" xlink:href="#linear-gradient-3"/>
    <linearGradient id="linear-gradient-27" x1="9134.6051" y1="457.9441" x2="9174.70251" y2="610.04916" xlink:href="#linear-gradient-18"/>
    <linearGradient id="linear-gradient-28" x1="9013.71133" y1="394.6408" x2="9223.14576" y2="600.76138" gradientTransform="matrix(-1, 0, 0, 1, 9414.82831, 0)" xlink:href="#linear-gradient-3"/>
    <linearGradient id="linear-gradient-29" x1="9002.74153" y1="364.73378" x2="9200.24614" y2="651.71196" gradientTransform="matrix(-1, 0, 0, 1, 9414.82831, 0)" xlink:href="#linear-gradient-13"/>
    <linearGradient id="linear-gradient-30" x1="8971.44048" y1="437.59124" x2="9180.87491" y2="643.71183" gradientTransform="matrix(-1, 0, 0, 1, 9414.82831, 0)" xlink:href="#linear-gradient-3"/>
    <linearGradient id="linear-gradient-31" x1="8888.89116" y1="548.75905" x2="9090.84191" y2="700.61758" gradientTransform="matrix(-1, 0, 0, 1, 9414.82831, 0)" xlink:href="#linear-gradient-2"/>
    <linearGradient id="linear-gradient-32" x1="8723.2923" y1="432.52486" x2="9112.33662" y2="693.65512" gradientTransform="matrix(-1, 0, 0, 1, 9414.82831, 0)" xlink:href="#linear-gradient-3"/>
    <linearGradient id="linear-gradient-33" x1="9149.5555" y1="605.17678" x2="9188.82445" y2="688.68545" gradientTransform="matrix(-1, 0, 0, 1, 9414.82831, 0)" xlink:href="#linear-gradient-13"/>
    <linearGradient id="linear-gradient-34" x1="9162.23665" y1="632.68355" x2="9191.5641" y2="681.39694" gradientTransform="matrix(-1, 0, 0, 1, 9414.82831, 0)" xlink:href="#linear-gradient-3"/>
    <linearGradient id="linear-gradient-35" x1="9110.07963" y1="624.56127" x2="9115.05039" y2="726.71026" xlink:href="#linear-gradient-18"/>
    <linearGradient id="linear-gradient-36" x1="173.05363" y1="406.82137" x2="154.48587" y2="444.5012" gradientUnits="userSpaceOnUse">
      <stop offset="0" stop-color="#cebcb3"/>
      <stop offset="1" stop-color="#bfa090"/>
    </linearGradient>
    <linearGradient id="linear-gradient-37" x1="161.66439" y1="401.20901" x2="143.09664" y2="438.88885" xlink:href="#linear-gradient-36"/>
    <linearGradient id="linear-gradient-38" x1="141.7385" y1="429.46124" x2="93.64183" y2="502.42523" xlink:href="#linear-gradient-11"/>
    <linearGradient id="linear-gradient-39" x1="178.2897" y1="451.7074" x2="126.19516" y2="530.73627" xlink:href="#linear-gradient-11"/>
    <linearGradient id="linear-gradient-40" x1="198.58202" y1="465.70743" x2="148.91104" y2="541.0597" xlink:href="#linear-gradient-11"/>
    <linearGradient id="linear-gradient-41" x1="419.46813" y1="219.33233" x2="514.66378" y2="219.33233" gradientUnits="userSpaceOnUse">
      <stop offset="0" stop-color="#e4edf2"/>
      <stop offset="1" stop-color="#c3d6e6"/>
    </linearGradient>
    <linearGradient id="linear-gradient-42" x1="506.44457" y1="228.76719" x2="506.44457" y2="560.82557" gradientUnits="userSpaceOnUse">
      <stop offset="0" stop-color="#fff"/>
      <stop offset="0.56988" stop-color="#fff" stop-opacity="0"/>
    </linearGradient>
    <linearGradient id="linear-gradient-43" x1="440.55055" y1="181.7807" x2="478.17311" y2="241.34976" xlink:href="#linear-gradient-3"/>
    <linearGradient id="linear-gradient-44" x1="456.06516" y1="171.982" x2="493.68772" y2="231.55106" xlink:href="#linear-gradient-3"/>
    <linearGradient id="linear-gradient-45" x1="367.97768" y1="743.45398" x2="1059.51617" y2="687.31873" gradientUnits="userSpaceOnUse">
      <stop offset="0.00005" stop-color="#ffb348"/>
      <stop offset="1" stop-color="#e68e2b"/>
    </linearGradient>
    <linearGradient id="linear-gradient-46" x1="8680.53035" y1="683.56349" x2="8971.35871" y2="816.43682" gradientTransform="matrix(-1, 0, 0, 1, 9408.47275, 0)" xlink:href="#linear-gradient-2"/>
    <linearGradient id="linear-gradient-47" x1="8711.57799" y1="615.60752" x2="9002.40636" y2="748.48084" gradientTransform="matrix(-1, 0, 0, 1, 9408.47275, 0)" xlink:href="#linear-gradient-2"/>
    <linearGradient id="linear-gradient-48" x1="8689.42057" y1="664.10488" x2="8980.24893" y2="796.97821" gradientTransform="matrix(-1, 0, 0, 1, 9408.47275, 0)" xlink:href="#linear-gradient-2"/>
    <linearGradient id="linear-gradient-49" x1="8705.56982" y1="628.75798" x2="8996.39818" y2="761.63131" gradientTransform="matrix(-1, 0, 0, 1, 9408.47275, 0)" xlink:href="#linear-gradient-2"/>
    <linearGradient id="linear-gradient-50" x1="8701.45991" y1="637.75361" x2="8992.28827" y2="770.62694" gradientTransform="matrix(-1, 0, 0, 1, 9408.47275, 0)" xlink:href="#linear-gradient-2"/>
    <linearGradient id="linear-gradient-51" x1="8687.96073" y1="691.98713" x2="8991.23729" y2="691.98713" gradientTransform="matrix(-1, 0, 0, 1, 9408.47275, 0)" gradientUnits="userSpaceOnUse">
      <stop offset="0" stop-color="#526575"/>
      <stop offset="1" stop-color="#62788c"/>
    </linearGradient>
    <linearGradient id="linear-gradient-52" x1="8687.96074" y1="658.84789" x2="8991.23727" y2="658.84789" gradientTransform="matrix(-1, 0, 0, 1, 9408.47275, 0)" gradientUnits="userSpaceOnUse">
      <stop offset="0" stop-color="#748ea6"/>
      <stop offset="1" stop-color="#96b1cc"/>
    </linearGradient>
    <linearGradient id="linear-gradient-53" x1="6562.68623" y1="659.1313" x2="6514.9862" y2="709.7426" gradientTransform="matrix(-1, 0, 0, 1, 7371.06833, 0)" xlink:href="#linear-gradient-11"/>
    <linearGradient id="linear-gradient-54" x1="6501.31361" y1="604.71651" x2="6530.87419" y2="620.84047" gradientTransform="matrix(-1, 0, 0, 1, 7371.06833, 0)" gradientUnits="userSpaceOnUse">
      <stop offset="0" stop-color="#f2883c"/>
      <stop offset="0.16716" stop-color="#e97d35"/>
      <stop offset="0.67368" stop-color="#d26124"/>
      <stop offset="0.96784" stop-color="#c9571e"/>
    </linearGradient>
    <linearGradient id="linear-gradient-55" x1="6517.45509" y1="567.95827" x2="6537.75933" y2="606.92449" xlink:href="#linear-gradient-54"/>
    <linearGradient id="linear-gradient-56" x1="6566.1049" y1="630.10728" x2="6541.47108" y2="645.78335" xlink:href="#linear-gradient-54"/>
    <linearGradient id="linear-gradient-57" x1="6500.71555" y1="623.45065" x2="6533.41135" y2="637.03658" xlink:href="#linear-gradient-54"/>
    <linearGradient id="linear-gradient-58" x1="6512.68576" y1="582.80408" x2="6529.10831" y2="612.51396" xlink:href="#linear-gradient-54"/>
    <linearGradient id="linear-gradient-59" x1="6587.77846" y1="589.54006" x2="6546.4235" y2="626.71473" xlink:href="#linear-gradient-54"/>
    <linearGradient id="linear-gradient-60" x1="6564.74092" y1="569.6124" x2="6545.18316" y2="603.80115" xlink:href="#linear-gradient-54"/>
    <linearGradient id="linear-gradient-61" x1="624.7103" y1="369.86771" x2="939.80222" y2="369.86771" gradientTransform="matrix(1, 0, 0, 1, 0, 0)" xlink:href="#linear-gradient-52"/>
    <linearGradient id="linear-gradient-62" x1="660.40426" y1="336.17632" x2="839.33245" y2="336.17632" gradientTransform="matrix(1, 0, 0, 1, 0, 0)" xlink:href="#linear-gradient-52"/>
    <linearGradient id="linear-gradient-63" x1="646.87988" y1="326.73015" x2="844.34009" y2="326.73015" gradientUnits="userSpaceOnUse">
      <stop offset="0" stop-color="#e68e2b"/>
      <stop offset="0.99995" stop-color="#ffcb48"/>
    </linearGradient>
    <linearGradient id="linear-gradient-64" x1="592.73217" y1="6393.66128" x2="592.73217" y2="6480.78755" gradientTransform="translate(7247.8338 -29.2446) rotate(92.0117)" xlink:href="#linear-gradient-3"/>
    <linearGradient id="linear-gradient-65" x1="732.0386" y1="299.26975" x2="759.9535" y2="375.18464" xlink:href="#linear-gradient-3"/>
    <linearGradient id="linear-gradient-66" x1="735.01607" y1="307.367" x2="756.80647" y2="366.62627" gradientUnits="userSpaceOnUse">
      <stop offset="0" stop-color="#96b1cc"/>
      <stop offset="1" stop-color="#748ea6"/>
    </linearGradient>
    <linearGradient id="linear-gradient-67" x1="838.38951" y1="392.64091" x2="913.41602" y2="392.64091" xlink:href="#linear-gradient-3"/>
    <linearGradient id="linear-gradient-68" x1="577.80326" y1="392.64091" x2="652.82976" y2="392.64091" xlink:href="#linear-gradient-3"/>
  </defs>
  <g>
    <g>
      <polygon class="cls-1" points="475.123 80.553 881.769 315.321 881.769 710.538 475.123 475.747 475.123 80.553"/>
      <polygon class="cls-2" points="475.138 80.553 68.492 315.321 68.492 710.538 475.138 475.747 475.138 80.553"/>
    </g>
    <path class="cls-3" d="M75.50931,722.70353l378.58058,218.564a42.10144,42.10144,0,0,0,42.10111-.00061L874.75219,722.69946a14.03381,14.03381,0,0,0,.00017-24.307L496.1746,479.8085a42.10144,42.10144,0,0,0-42.10407.00052L75.50848,698.39647A14.03381,14.03381,0,0,0,75.50931,722.70353Z"/>
    <path class="cls-4" d="M177.10888,781.3595c24.37842-6.18964,41.40186-20.1922,41.40186-36.49439,0-22.037-31.08441-39.90161-69.429-39.90161-28.2539,0-52.53784,9.70691-63.3717,23.62915Z"/>
  </g>
  <g>
    <g>
      <g>
        <g>
          <path class="cls-5" d="M99.51519,654.82577l354.40989-204.609a6.73219,6.73219,0,0,0,3.36622-5.83032v-321.711L99.51519,329.24773Z"/>
          <path class="cls-6" d="M446.07635,441.79008,110.73443,635.39681l-11.19786-6.46292V329.26514l335.34192-193.618,11.19786,6.46292Z"/>
          <polygon class="cls-7" points="203.788 281.999 203.788 568.75 110.734 622.471 110.735 615.984 198.178 565.514 198.178 285.238 203.788 281.999"/>
          <polygon class="cls-8" points="319.307 215.301 319.289 502.065 226.239 555.789 226.239 549.303 313.679 498.834 313.679 218.531 319.307 215.301"/>
          <polygon class="cls-9" points="434.878 148.572 434.841 435.36 341.757 489.098 341.757 482.613 429.197 432.144 429.197 151.852 434.878 148.572"/>
          <polygon class="cls-10" points="446.076 142.11 446.071 441.795 110.735 635.392 110.734 622.471 434.878 435.338 434.878 148.572 446.076 142.11"/>
          <path class="cls-11" d="M99.5151,329.24772v325.578L453.925,450.21678a6.7322,6.7322,0,0,0,3.36622-5.83033V122.67536ZM330.53715,208.81678V508.49539L226.23906,568.70912V269.03633ZM110.73543,335.72564l104.2833-60.21092V575.1869l-104.2833,60.205ZM446.07091,441.79512,341.75748,502.01761V202.33838L446.07091,142.11Z"/>
        </g>
        <polygon class="cls-12" points="215.019 575.187 203.788 568.75 203.788 281.999 215.019 275.515 215.019 575.187"/>
        <polygon class="cls-13" points="330.537 508.495 319.307 502.059 319.307 215.301 330.537 208.817 330.537 508.495"/>
      </g>
      <polygon class="cls-14" points="446.071 441.792 434.841 435.36 434.878 148.572 446.071 142.113 446.071 441.792"/>
    </g>
    <g>
      <path class="cls-15" d="M292.12727,252.38261l2.78483,289.63594s-12.78341,15.47057-29.89377,24.76815S218.283,583.072,218.283,583.072s-4.31294,13.79924-25.80695,24.75835a129.54862,129.54862,0,0,1-42.09074,12.85621s-1.7535,8.274-11.29074,13.375c-7.909,4.20365-19.03837,4.82088-24.32216,5.53544V353.93243s10.1885,1.90529,23.93328-5.30224,11.67962-13.36354,11.67962-13.36354,25.71124-3.01876,41.13624-12.09044S217.77036,296.185,217.77036,296.185a149.83,149.83,0,0,0,41.30884-12.14342C279.54849,274.35617,287.19254,257.01838,292.12727,252.38261Z"/>
      <path class="cls-16" d="M163.78631,332.92882c-7.67074,1.664-13.40095,2.33777-13.40095,2.33777a4.41947,4.41947,0,0,1,0,1.957V620.68649a116.49077,116.49077,0,0,0,19.03371-3.89019Z"/>
      <path class="cls-16" d="M218.39139,583.04621c.06439-.01541.15536-.03722.27655-.06663l.009-.00223c.11774-.02849.26479-.06439.43243-.10547l.10405-.02565c.15779-.03884.3308-.08164.526-.13022l.11257-.02809c.21226-.05294.441-.11033.69224-.17382l.08377-.02119q.40266-.10193.866-.22068l.08732-.02241c.3-.07707.62044-.16.9554-.24735l.17484-.04563q.511-.13341,1.07081-.28183l.12342-.03265q.61578-.16353,1.28439-.34389l.02962-.008c3.29053-.88868,7.50878-2.08322,12.11322-3.52348l-5.67738-284.23936a131.91588,131.91588,0,0,1-13.8851,2.65731h-.0001l.51264,286.887.09624-.02292Z"/>
      <path class="cls-17" d="M460.4034,156.21765l2.79813,285.57424c0,3.56076-4.73717,8.96961-14.70643,14.0603a79.67567,79.67567,0,0,1-22.43848,7.38439,97.11827,97.11827,0,0,1-24.12007,20.08409c-12.69109,7.15663-35.48151,12.06326-35.48151,12.06326s-14.66516,22.28366-28.99161,30.8818S300.19589,541.304,294.9121,542.01855l-2.78483-289.63594s26.27047-3.58735,40.69616-12.00073c14.54757-8.48448,29.38938-26.36435,29.38938-26.36435s20.75807-1.42231,39.0874-12.9117,20.7869-23.35876,20.7869-23.35876a32.23307,32.23307,0,0,0,21.49866-3.96838C454.71817,167.415,458.30528,161.33485,460.4034,156.21765Z"/>
      <path class="cls-16" d="M308.172,249.27443c-8.88922,2.12906-16.04468,3.1082-16.04468,3.1082l2.78478,289.63592c2.76623-.37411,10.3742-2.3196,19.04974-5.3203Z"/>
      <path class="cls-16" d="M378.2716,210.99455a90.35466,90.35466,0,0,1-16.05878,3.023l4.24229,281.36635s9.113-1.96335,19.02225-5.21534Z"/>
      <path class="cls-16" d="M439.40561,175.87447a34.21475,34.21475,0,0,1-17.31843,1.87254l3.9695,285.48952a79.81673,79.81673,0,0,0,19.0402-5.7724Z"/>
    </g>
    <g>
      <g>
        <circle class="cls-18" cx="462.95325" cy="143.08111" r="7.86957"/>
        <path class="cls-19" d="M461.97259,148.64249,115.656,348.63019l-3.83431-6.64122L458.15115,141.99383l.00175.003a1.93123,1.93123,0,0,1,1.90525.203,5.9944,5.9944,0,0,1,2.72022,4.69206A1.88135,1.88135,0,0,1,461.97259,148.64249Z"/>
        <path class="cls-20" d="M463.29459,147.8822a9.35562,9.35562,0,0,0-1.22952-3.65532,9.03306,9.03306,0,0,0-2.65823-2.95759,6.0014,6.0014,0,0,0-3.38961-1.12974,4.868,4.868,0,0,0-2.3763.61456,5.37426,5.37426,0,0,0-2.45905,5.26737l4.12059-2.3761a1.31221,1.31221,0,0,1,.71476-.18274,4.29033,4.29033,0,0,1,3.1734,2.42579c.91393,1.57838,1.047,3.25656.41538,4.12059a1.311,1.311,0,0,1-.41538.38212,1.14964,1.14964,0,0,1-.51518.14969l-3.67194,2.12682a5.86556,5.86556,0,0,0,3.47277,1.22953,4.66152,4.66152,0,0,0,2.37589-.6316,5.17522,5.17522,0,0,0,2.47568-4.66883C463.32785,148.36411,463.31122,148.115,463.29459,147.8822Z"/>
        <path class="cls-20" d="M424.68279,170.18628a9.35565,9.35565,0,0,0-1.22953-3.65531,9.03309,9.03309,0,0,0-2.65822-2.9576,6.00144,6.00144,0,0,0-3.38962-1.12973,4.86787,4.86787,0,0,0-2.37629.61456,5.37426,5.37426,0,0,0-2.45906,5.26736l4.1206-2.37609a1.31221,1.31221,0,0,1,.71475-.18275,4.29033,4.29033,0,0,1,3.17341,2.42579c.91392,1.57838,1.047,3.25656.41538,4.12059a1.31129,1.31129,0,0,1-.41538.38213,1.14979,1.14979,0,0,1-.51518.14968l-3.67195,2.12682a5.86559,5.86559,0,0,0,3.47278,1.22953,4.66152,4.66152,0,0,0,2.37589-.6316,5.17523,5.17523,0,0,0,2.47568-4.66883C424.71605,170.66819,424.69942,170.41912,424.68279,170.18628Z"/>
      </g>
      <circle class="cls-20" cx="458.9089" cy="155.44855" r="2.6514"/>
      <circle class="cls-20" cx="421.83021" cy="176.73885" r="2.6514"/>
      <path class="cls-20" d="M365.80235,204.17294a9.35547,9.35547,0,0,0-1.22952-3.65531A9.033,9.033,0,0,0,361.9146,197.56a6.00132,6.00132,0,0,0-3.38961-1.12974,4.868,4.868,0,0,0-2.3763.61456,5.37426,5.37426,0,0,0-2.459,5.26737l4.1206-2.3761a1.31218,1.31218,0,0,1,.71475-.18274,4.29028,4.29028,0,0,1,3.1734,2.42578c.91393,1.57839,1.047,3.25656.41539,4.1206a1.31131,1.31131,0,0,1-.41539.38212,1.14963,1.14963,0,0,1-.51517.14969l-3.67195,2.12682a5.86557,5.86557,0,0,0,3.47277,1.22952,4.66159,4.66159,0,0,0,2.37589-.63159,5.17524,5.17524,0,0,0,2.47569-4.66883C365.83562,204.65486,365.819,204.40579,365.80235,204.17294Z"/>
      <circle class="cls-20" cx="362.40382" cy="211.80647" r="2.6514"/>
      <path class="cls-20" d="M298.52657,243.02622a9.35549,9.35549,0,0,0-1.22953-3.65531,9.03294,9.03294,0,0,0-2.65822-2.95759,6.00135,6.00135,0,0,0-3.38961-1.12974,4.868,4.868,0,0,0-2.3763.61456,5.37426,5.37426,0,0,0-2.459,5.26737l4.12059-2.3761a1.31221,1.31221,0,0,1,.71476-.18274,4.29031,4.29031,0,0,1,3.1734,2.42578c.91393,1.57839,1.047,3.25656.41538,4.1206a1.31138,1.31138,0,0,1-.41538.38212,1.14964,1.14964,0,0,1-.51518.14969l-3.67194,2.12682a5.86555,5.86555,0,0,0,3.47277,1.22952,4.66162,4.66162,0,0,0,2.37589-.63159,5.17523,5.17523,0,0,0,2.47568-4.66883C298.55983,243.50814,298.5432,243.25907,298.52657,243.02622Z"/>
      <circle class="cls-20" cx="294.17353" cy="250.81764" r="2.6514"/>
      <path class="cls-20" d="M292.88943,246.26781a9.35563,9.35563,0,0,0-1.22952-3.65531,9.033,9.033,0,0,0-2.65823-2.95759,6.00132,6.00132,0,0,0-3.38961-1.12974,4.868,4.868,0,0,0-2.3763.61456,5.37426,5.37426,0,0,0-2.459,5.26737l4.12059-2.3761a1.31221,1.31221,0,0,1,.71476-.18274,4.29031,4.29031,0,0,1,3.1734,2.42578c.91393,1.57839,1.047,3.25656.41538,4.1206a1.31127,1.31127,0,0,1-.41538.38212,1.14962,1.14962,0,0,1-.51518.14968l-3.67194,2.12683a5.86555,5.86555,0,0,0,3.47277,1.22952,4.66162,4.66162,0,0,0,2.37589-.63159,5.17523,5.17523,0,0,0,2.47568-4.66883C292.92269,246.74973,292.90606,246.50066,292.88943,246.26781Z"/>
      <circle class="cls-20" cx="290.87228" cy="252.78775" r="2.6514"/>
      <path class="cls-20" d="M221.685,287.40071a9.35564,9.35564,0,0,0-1.22953-3.65532,9.03315,9.03315,0,0,0-2.65822-2.95759,6.00145,6.00145,0,0,0-3.38962-1.12974,4.868,4.868,0,0,0-2.3763.61456,5.3743,5.3743,0,0,0-2.459,5.26737l4.1206-2.37609a1.31221,1.31221,0,0,1,.71475-.18275,4.2903,4.2903,0,0,1,3.1734,2.42579c.91393,1.57838,1.047,3.25656.41539,4.12059a1.31108,1.31108,0,0,1-.41539.38212,1.1496,1.1496,0,0,1-.51517.14969l-3.67195,2.12682a5.86558,5.86558,0,0,0,3.47277,1.22953,4.66153,4.66153,0,0,0,2.3759-.6316,5.17524,5.17524,0,0,0,2.47568-4.66883C221.71827,287.88262,221.70164,287.63355,221.685,287.40071Z"/>
      <circle class="cls-20" cx="218.28647" cy="295.03423" r="2.6514"/>
      <path class="cls-20" d="M153.87776,326.60453a9.35565,9.35565,0,0,0-1.22953-3.65531,9.03319,9.03319,0,0,0-2.65822-2.9576,6.00144,6.00144,0,0,0-3.38962-1.12973,4.86787,4.86787,0,0,0-2.37629.61456,5.37427,5.37427,0,0,0-2.45906,5.26737l4.1206-2.3761a1.31221,1.31221,0,0,1,.71475-.18275,4.29033,4.29033,0,0,1,3.17341,2.42579c.91393,1.57839,1.047,3.25656.41538,4.1206a1.31138,1.31138,0,0,1-.41538.38212,1.14966,1.14966,0,0,1-.51518.14968l-3.672,2.12683a5.86558,5.86558,0,0,0,3.47278,1.22952,4.66162,4.66162,0,0,0,2.37589-.63159,5.17525,5.17525,0,0,0,2.47568-4.66883C153.911,327.08645,153.89439,326.83738,153.87776,326.60453Z"/>
      <circle class="cls-20" cx="150.47922" cy="334.23806" r="2.6514"/>
      <path class="cls-20" d="M119.88006,346.16881a9.35563,9.35563,0,0,0-1.22952-3.65531,9.033,9.033,0,0,0-2.65823-2.95759,6.00132,6.00132,0,0,0-3.38961-1.12974,4.868,4.868,0,0,0-2.3763.61456,5.37426,5.37426,0,0,0-2.45905,5.26737l4.12059-2.3761a1.31221,1.31221,0,0,1,.71476-.18274,4.29034,4.29034,0,0,1,3.1734,2.42578c.91393,1.57839,1.047,3.25656.41538,4.1206a1.31127,1.31127,0,0,1-.41538.38212,1.14964,1.14964,0,0,1-.51518.14969l-3.67194,2.12682a5.86556,5.86556,0,0,0,3.47277,1.22953,4.66162,4.66162,0,0,0,2.37589-.6316,5.17523,5.17523,0,0,0,2.47568-4.66883C119.91332,346.65073,119.89669,346.40166,119.88006,346.16881Z"/>
      <circle class="cls-20" cx="116.48153" cy="353.80234" r="2.6514"/>
    </g>
    <circle class="cls-21" cx="109.02362" cy="347.44521" r="7.86957"/>
  </g>
  <path class="cls-22" d="M71.32959,435.16884l.00081,25.71746a2.27677,2.27677,0,0,0,3.41515,1.97169l16.42481-9.48287a6.83032,6.83032,0,0,0,3.41515-5.91537l-.00081-25.71746a2.27676,2.27676,0,0,0-3.41515-1.97168l-16.42481,9.48287A6.83028,6.83028,0,0,0,71.32959,435.16884Z"/>
  <ellipse class="cls-23" cx="83.99722" cy="442.23837" rx="7.68067" ry="4.42749" transform="translate(-340.99106 293.86291) rotate(-60)"/>
  <g>
    <path class="cls-24" d="M449.37549,513.88226l95.68341,55.23606a6.65291,6.65291,0,0,1,.00227,11.52224L291.30785,727.22189a19.95809,19.95809,0,0,1-19.96313.00162L189.35721,679.881a9.16226,9.16226,0,0,1,.00033-15.86909Z"/>
    <g>
      <g>
        <path class="cls-25" d="M557.78016,488.95554l-3.05277,11.83634-22.0415,85.4108a.45432.45432,0,0,1-.12121.011c-.13224.011-.26449.011-.38576.011a12.52267,12.52267,0,0,1-6.28178-1.68614l-2.127-1.22328-.62819-.36371L433.44407,531.1099l-.9588-.551a6.59555,6.59555,0,0,1-3.30622-5.71977V458.19666c-.02207-6.85487,3.09682-15.52826,8.22143-21.766,3.25114-3.96744,7.30676-6.943,11.8804-7.8578a8.249,8.249,0,0,1,5.48831.85966h.011c.08819.044.15431.11018.24249.16527v-.022l102.74642,59.37973Z"/>
        <path class="cls-26" d="M434.63537,454.38605v.02475c-.09928-.062-.17374-.13648-.273-.18605H434.35a8.90342,8.90342,0,0,0-4.67387-1.11351,27.49544,27.49544,0,0,0-.49709,5.08539v66.64243a6.59556,6.59556,0,0,0,3.30623,5.71977l.9588.551,89.69788,51.84164.62819.3637,2.127,1.22329a12.52264,12.52264,0,0,0,6.28177,1.68614c.12128,0,.25353,0,.38577-.011a.45435.45435,0,0,0,.12121-.011l16.87673-65.39729Z"/>
        <path class="cls-27" d="M554.8486,517.75276v53.53881c0,.14328,0,.29758-.011.44086a6.6327,6.6327,0,0,1-3.29519,5.28995l-9.08109,5.22382-3.97847,2.29233-.06612.033a12.46938,12.46938,0,0,1-5.73081,1.63112.45432.45432,0,0,1-.12121.011c-.13224.011-.26449.011-.38576.011V517.71973c-.033-8.16641,4.39733-18.91164,11.37342-25.05014a22.477,22.477,0,0,1,2.53482-1.95069,17.52378,17.52378,0,0,1,6.19366-2.62294,8.24932,8.24932,0,0,1,5.48831.85958h.011c3.01967,1.75233,4.18787,5.36717,4.35321,8.70642C562.51907,503.93277,559.40018,512.11014,554.8486,517.75276Z"/>
      </g>
      <g>
        <path class="cls-28" d="M523.96711,576.63468,299.825,706.21072,195.77236,638.963l41.42558-23.90282L419.99439,509.18262l100.4895,11.77368a16.17558,16.17558,0,0,1,1.164,1.75048,17.15221,17.15221,0,0,1,2.30144,8.5926Z"/>
        <path class="cls-29" d="M521.64793,522.70678,299.7984,651.20762,237.19794,615.0602l-33.37226-25.97137,224.231-129.78039,85.69179,56.18307,1.635.9419.0089.00889a17.03916,17.03916,0,0,1,5.09154,4.514A16.17558,16.17558,0,0,1,521.64793,522.70678Z"/>
        <path class="cls-30" d="M351.378,550.4775l55.16024,32.09544a12.13206,12.13206,0,0,1,6.07453,10.19294l.42879,25.01288,4.934-2.84578.0004-22.982a16.14225,16.14225,0,0,0-7.89631-13.87767l-52.72657-31.33059Z"/>
        <g>
          <path class="cls-31" d="M445.97056,411.0536l-.541-.619c-3.97474-4.54817-14.90271-10.263-21.908-11.11366-6.47533-.78634-9.705.51676-14.9843,3.36256L334.3421,445.59706a27.92386,27.92386,0,0,0-13.182,30.76355l16.8721,69.76315Z"/>
          <path class="cls-32" d="M380.01763,501.1576l-57.55717-39.89251a27.86357,27.86357,0,0,0-.75936,15.71445l17.08769,73.2182,23.13985-.736,26.54525-40.77065A27.86025,27.86025,0,0,0,380.01763,501.1576Z"/>
          <path class="cls-33" d="M361.92867,549.4618l-16.8721-69.76316a27.92381,27.92381,0,0,1,13.182-30.76355l69.32648-40.168a15.31723,15.31723,0,0,1,22.54167,9.659l15.95656,65.97672a5.80578,5.80578,0,0,1-2.73551,6.39Z"/>
          <path class="cls-34" d="M361.92864,549.46176l101.719-58.85394a5.30865,5.30865,0,0,0,2.50067-5.8454l-.81038-3.34359-.17541-.74068L360.00909,541.54174Z"/>
        </g>
        <g>
          <path class="cls-35" d="M334.245,475.53748l-.541-.619c-3.97475-4.54817-14.90271-10.263-21.908-11.11366-6.47533-.78634-9.705.51676-14.9843,3.36256l-81.57351,47.19168a27.92384,27.92384,0,0,0-13.182,30.76354l16.87209,69.76316Z"/>
          <path class="cls-36" d="M244.65264,573.51445,204.593,550.38682c-.27007-.16722-.86173-.46312-.86173-.46312-.18357-.08523-.37474-.15027-.56449-.21888L218.69644,613.929Z"/>
          <path class="cls-37" d="M242.28375,617.60484l-16.87209-69.76316a27.92381,27.92381,0,0,1,13.182-30.76355L315.2985,472.632a15.31724,15.31724,0,0,1,22.54168,9.659l16.97648,70.19387Z"/>
          <polygon class="cls-38" points="242.284 617.605 354.817 552.485 352.891 544.541 240.363 609.68 242.284 617.605"/>
        </g>
        <polygon class="cls-39" points="523.949 583.315 313.727 704.964 313.727 675.271 523.949 553.623 523.949 583.315"/>
        <polygon class="cls-40" points="523.949 560.768 313.727 682.416 313.727 670.357 523.949 548.708 523.949 560.768"/>
      </g>
      <g>
        <path class="cls-41" d="M312.93657,631.19721,294.598,723.91477c-.13224.011-.26449.011-.3857.011a12.52247,12.52247,0,0,1-6.28184-1.68621l-2.127-1.22328L196.13607,669.2531a6.60014,6.60014,0,0,1-3.30623-5.73081V610.8652s-2.87639-1.68621-2.93148-1.71924c-5.852-3.38338-5.841-14.349.011-24.4991,5.67564-9.83056,14.75679-15.26378,20.64184-12.53065,0,0,.507.25352.73837.3968l100.65515,58.1111Z"/>
        <polygon class="cls-42" points="297.397 679.316 296.276 670.562 192.828 610.898 192.828 619.005 297.397 679.316"/>
        <path class="cls-43" d="M316.882,640.57588v68.41675a6.6001,6.6001,0,0,1-3.30622,5.7308l-9.08109,5.22383-3.97847,2.29233-.06613.0331a12.52549,12.52549,0,0,1-5.85208,1.64208c-.13224.011-.26449.011-.3857.011V668.5906a7.30306,7.30306,0,0,1-2.93149-.91474c-5.852-3.38338-5.841-14.349.011-24.4991,5.67571-9.83049,14.76783-15.28578,20.65294-12.55265.18733.08818.37466.17637.562.28655a4.84593,4.84593,0,0,1,.42982.28655C315.55952,632.94947,316.882,636.38794,316.882,640.57588Z"/>
      </g>
    </g>
  </g>
  <g>
    <polygon class="cls-44" points="159.26 447.697 160.228 441.908 145.713 430.175 143.707 442.484 159.26 447.697"/>
    <g>
      <path class="cls-45" d="M168.60579,403.28132s6.34463,3.679,5.41564,12.54434a9.64368,9.64368,0,0,1-6.42917,8.45943l-.80372-15.756Z"/>
      <path class="cls-44" d="M159.07406,444.37111c-7.73313-1.223-12.05772-5.03774-12.987-12.16816l-1.98381-15.419c-.974-6.19775,4.202-12.49411,11.48081-12.99605,6.36162-.43869,13.29022,4.36543,13.7796,11.41249a142.78636,142.78636,0,0,1-.038,15.656C168.79974,437.8088,166.10181,445.48258,159.07406,444.37111Z"/>
      <path class="cls-46" d="M171.31441,421.10955c-1.2616-.02911-3.46186-2.83716-3.69612-6.96179.32536,3.92941.20864,8.144-4.516,10.80107a16.53008,16.53008,0,0,1-6.91071,2.38166l-2.7851,1.66586-.5336,2.94128s-1.9186,8.84155-7.07967,8.30326c-4.55508-.71579-5.27111-3.48789-4.12583-9.2403,0,0-7.21824-8.9241-4.86126-18.52592,1.723-7.01919,8.94715-11.75981,17.97872-12.39959,7.318-.5184,15.24726,1.56874,17.97962,8.73829A12.86257,12.86257,0,0,1,171.31441,421.10955Z"/>
      <path class="cls-44" d="M155.58232,433.65561c-2.51712.20323-4.91979-3.14031-5.1504-5.99662s2.04838-5.45982,4.31527-4.347C157.59288,424.709,158.09945,433.45238,155.58232,433.65561Z"/>
    </g>
    <g>
      <path class="cls-47" d="M115.92476,727.20143s-2.1579,5.90966-.97808,9.567,7.9927,4.9424,11.46542,1.60144c3.00411-2.89012,2.6-3.313,5.5402-7.53959,3.07051-4.414,8.35689-9.94474,8.83026-14.697,1.08945-10.9369-13.54768-5.50658-13.54768-5.50658Z"/>
      <path class="cls-44" d="M115.11793,720.17009s-1.35107,9.15084-.17125,12.80821,7.9927,4.9424,11.46542,1.60144c3.00411-2.89012,2.36669-3.81144,5.30688-8.038,3.07052-4.41395,7.37064-8.96086,7.59484-11.883.84082-10.95882-12.07894-7.82212-12.07894-7.82212Z"/>
      <path class="cls-47" d="M132.00214,727.28446s.442-5.94277-.61394-7.8c-2.30041-4.04624-10.042-8.00777-10.042-8.00777L129.36,706.4209a8.66628,8.66628,0,0,1,8.58079,2.4097,7.18583,7.18583,0,0,1,1.41241,7.16163Z"/>
      <path class="cls-44" d="M117.41623,559.56449l-.33072,74.65986c-3.387,25.88608-1.19487,53.2421-.87891,80.07731l-1.08866,5.86852,11.71938-1.09658s25.18536-100.33236,25.18536-152.75649Z"/>
      <path class="cls-47" d="M115.15822,561.90317l-.01461,72.16274c-.94222,5.42013-2.19047,63.67577-2.19047,63.67577-.32387,11.91711,20.61717,13.73155,23.20335,2.78443,0,0,14.67032-80.03556,15.26649-85.17182l.5997-49.03718Z"/>
      <path class="cls-47" d="M157.15814,750.22336c-.999.59986-2.86324,4.64918-1.935,7.4161s3.6022,3.87617,7.24109,3.87617,7.06228-1.2174,13.216-1.77527c8.27764-.75041,12.86235.08064,18.15974-2.59484,6.808-3.43843,3.6041-11.08689-2.02089-11.60428-1.70323-.15666-6.8349-.20343-6.8349-.20343l-13.16631-3.40568S158.15714,749.62349,157.15814,750.22336Z"/>
      <path class="cls-44" d="M158.38221,741.15535l13.86794-.4895,13.27488,3.22194s4.64956.31021,6.25061.45734c5.28781.4865,7.28286,6.09959,1.01836,9.58624-6.16919,3.43391-10.05836,2.16019-17.83948,2.86575-5.78471.5242-8.23383,1.24226-11.65455,1.24226s-5.93416-1.04238-6.80675-3.64349S158.38221,741.15535,158.38221,741.15535Z"/>
      <path class="cls-44" d="M183.46178,572.77257c0,42.65712-13.10485,164.79126-13.10485,164.79126l1.43447,3.11821-13.40919.47331s-6.40206-52.89029-3.95144-86.93176l-7.649-68.868Z"/>
      <path class="cls-48" d="M115.15826,561.903c-.04032-17.74117,5.07149-44.32716,5.07149-44.32716l63.35538,8.10195s2.78016,26.59714,2.78016,47.09476c0,65.32268-10.83549,154.97012-10.83549,154.97012-.6653,7.3583-21.89423,9.73748-22.86193-.78626-1.34164-13.15457-2.00276-45.58439-3.00637-67.04007l-6.02472-75.52849Z"/>
      <g>
        <path class="cls-44" d="M92.19638,457.72662l1.603-9.39833a7.94755,7.94755,0,0,0-.18532-3.62238s-2.438-10.065-5.33028-9.96975-6.13811,3.504-6.65845,6.36283-1.204,7.876-.25773,11.42059a73.94619,73.94619,0,0,0,3.07954,8.42021S91.9416,461.55225,92.19638,457.72662Z"/>
        <path class="cls-44" d="M128.69188,443.09112c-10.73208,4.51789-29.85234,30.14635-29.85234,30.14635l-6.52088-16.22772-7.87147,3.93s3.37331,18.56709,5.71139,24.89339c2.92379,7.79608,8.53881,8.766,14.06379,6.69782,4.52407-1.69353,20.16047-12.80645,20.16047-12.80645Z"/>
        <path class="cls-49" d="M128.69188,443.09112c-10.73208,4.51789-28.12445,25.30274-28.12445,25.30274-8.86468,9.11036,1.73349,24.40178,9.76355,21.29452,4.50518-1.74333,14.05186-9.96383,14.05186-9.96383Z"/>
        <path class="cls-16" d="M114.81316,487.13584c2.697-1.82568,5.5982-4.12444,7.49137-5.67506.42612-.36366.78821-.6704,1.06321-.89642l-5.396-12.17043Z"/>
      </g>
      <path class="cls-50" d="M148.49469,442.58986c-17.97242-5.12685-34.0308,3.2652-30.52289,25.804l.64511,30.72956-1.69347,19.11208c-.89075,8.05212,3.41043,13.83848,17.54007,20.04564,17.9831,7.9,51.43531,2.81638,51.12724-11.28984l-4.58616-20.94978,2.729-34.62516C180.64322,460.00561,168.97768,448.43289,148.49469,442.58986Z"/>
      <path class="cls-16" d="M163.98993,487.1909l5.431,53.13465c5.22483-1.28228,9.70147-3.28193,12.61309-5.93069Z"/>
      <path class="cls-44" d="M190.0475,587.72054l-.13234-10.644.04063,3.26812c-.78577,2.30177-2.66633,1.4273-3.02488-.54121l-.46908-5.35727a10.02671,10.02671,0,0,1,.50367-2.55407l3.32173-8.17462,8.31724-3.10617s2.38318,12.02572,2.38318,15.56326a13.4774,13.4774,0,0,1-3.314,8.55038l-4.24817,4.39774C191.84955,590.57287,190.122,589.51289,190.0475,587.72054Z"/>
      <path class="cls-44" d="M190.442,520.13114,182.48008,474.81l-15.88135,13.54781s3.99435,22.82094,7.17711,34.11144c3.6692,13.0161,16.51139,41.24823,16.51139,41.24823l8.375-2.81993Z"/>
      <path class="cls-51" d="M192.56536,512.89665s-4.11273-26.07105-8.98883-42.00444c-3.87742-12.67006-22.2478.2107-19.58662,16.29872l5.80949,30.29846C171.33643,525.83964,193.775,522.52788,192.56536,512.89665Z"/>
      <path class="cls-47" d="M176.33056,741.6562a6.50852,6.50852,0,0,1,2.4156,5.24487c.10119,3.71394-4.17433,9.47693-4.17433,9.47693l-4.80761,1.02353,16.60107-.38283,5.65161-1.75665c3.48671.33543,10.58666-9.96354-3.20385-12.28473C185.42946,742.40778,176.33056,741.6562,176.33056,741.6562Z"/>
    </g>
  </g>
  <g>
    <circle class="cls-52" cx="467.06596" cy="219.33233" r="47.59782"/>
    <polygon class="cls-53" points="771.105 646.851 241.784 646.851 241.784 528.09 435.381 222.942 498.761 222.942 625.381 420.03 629.188 425.941 771.105 646.851"/>
    <g>
      <circle class="cls-22" cx="467.06596" cy="234.99358" r="14.18311"/>
      <path class="cls-54" d="M498.75961,222.94367c0,10.05973-14.18973,18.21475-31.69365,18.21475s-31.69366-8.155-31.69366-18.21475,31.69366-18.929,31.69366-18.929S498.75961,212.884,498.75961,222.94367Z"/>
    </g>
    <rect class="cls-55" x="465.05046" y="171.73451" width="4.03099" height="35.33083"/>
  </g>
  <g>
    <path class="cls-56" d="M371.23968,765.91139,644.67033,608.02252a27.95441,27.95441,0,0,1,27.95462-.00169l109.04451,62.94871a9.31814,9.31814,0,0,1,.00229,16.13869L508.28008,845.03414a27.95442,27.95442,0,0,1-27.96151.00228L371.23968,782.05028A9.31815,9.31815,0,0,1,371.23968,765.91139Z"/>
    <path class="cls-57" d="M419.85631,762.15694,619.83743,646.68051a15.7268,15.7268,0,0,1,15.7269-.00095l82.3263,47.52495a5.24226,5.24226,0,0,1,.00129,9.07941L517.9385,818.7879a15.72678,15.72678,0,0,1-15.73077.00128l-82.35142-47.55272A5.24226,5.24226,0,0,1,419.85631,762.15694Z"/>
    <g>
      <path class="cls-58" d="M519.13635,752.901l-2.1718,59.10242c0,1.99414-2.81287,3.61068-6.28267,3.61068s-6.2825-1.61654-6.2825-3.61068l-2.1809-59.10242Z"/>
      <path class="cls-59" d="M439.735,707.03679l-2.1718,59.10241c0,1.99414-2.81287,3.61068-6.28267,3.61068s-6.2825-1.61654-6.2825-3.61068l-2.18089-59.10241Z"/>
      <path class="cls-60" d="M714.39006,640.17334l-2.17181,59.10241c0,1.99415-2.81286,3.61069-6.28266,3.61069s-6.2825-1.61654-6.2825-3.61069l-2.1809-59.10241Z"/>
      <g>
        <g>
          <path class="cls-61" d="M422.61793,704.57867v13.13707a4.88508,4.88508,0,0,0,2.46384,4.393l77.49113,44.748a14.71557,14.71557,0,0,0,8.10452,1.9606V684.92019Z"/>
          <path class="cls-62" d="M510.67742,684.92019v83.89716a14.74889,14.74889,0,0,0,6.69962-1.9606l195.29521-112.782a4.87971,4.87971,0,0,0,2.45334-4.38252h.01049V639.281Z"/>
        </g>
        <g>
          <path class="cls-63" d="M720.512,626.19913l-.00544,9.33682a5.19073,5.19073,0,0,1-2.61467,4.62639l-199.95347,115.504a15.72667,15.72667,0,0,1-15.73075.00128l-82.35143-47.55272a5.189,5.189,0,0,1-2.61754-4.48721l-.00327-9.26809Z"/>
          <path class="cls-64" d="M419.85631,688.27,619.83743,572.79355a15.7268,15.7268,0,0,1,15.7269-.00095l82.3263,47.52495a5.24226,5.24226,0,0,1,.00129,9.07941L517.9385,744.90094a15.72678,15.72678,0,0,1-15.73077.00128L419.85631,697.3495A5.24226,5.24226,0,0,1,419.85631,688.27Z"/>
        </g>
      </g>
    </g>
  </g>
  <g>
    <g>
      <path class="cls-65" d="M803.07934,663.55024l55.451.13225-7.01874,43.4045c-.59475,6.30027-9.64571,11.30754-20.75637,11.30754-11.11121,0-20.16162-5.00727-20.75637-11.30754Z"/>
      <ellipse class="cls-57" cx="830.81923" cy="661.5994" rx="27.94426" ry="16.05992"/>
      <path class="cls-66" d="M806.57493,669.57838c4.82257,4.84517,13.885,8.07533,24.24871,8.07533s19.42558-3.23016,24.24871-8.07533c-3.0734-6.01166-12.76346-10.4083-24.24871-10.4083S809.64832,663.56672,806.57493,669.57838Z"/>
      <path class="cls-67" d="M830.81918,649.35725c14.218,0,24.1266,6.45181,24.1266,12.24215s-9.90858,12.2422-24.1266,12.2422-24.12661-6.45182-24.12661-12.2422,9.90858-12.24215,24.12661-12.24215m0-3.81774c-15.43318,0-27.94429,7.19023-27.94429,16.05989s12.51111,16.05994,27.94429,16.05994,27.94428-7.19029,27.94428-16.05994-12.51111-16.05989-27.94428-16.05989Z"/>
    </g>
    <path class="cls-68" d="M839.817,624.24569c13.1008-2.01664,38.88563-10.51732,33.48925-20.24212S842.81407,605.512,839.817,624.24569Z"/>
    <path class="cls-66" d="M834.06685,665.19236a1.03142,1.03142,0,0,0,1.03186-1.03152c0-27.8457,5.067-45.9994,16.9433-60.70213a1.03177,1.03177,0,0,0-1.60556-1.2963c-12.197,15.10023-17.40146,33.64135-17.40146,61.99843A1.03142,1.03142,0,0,0,834.06685,665.19236Z"/>
    <path class="cls-66" d="M829.43915,665.19236a1.03142,1.03142,0,0,0,1.03186-1.03152c0-26.22666,0-62.146-13.174-78.45562a1.03178,1.03178,0,0,0-1.60556,1.29631c12.71581,15.743,12.71581,51.23988,12.71581,77.15931A1.03142,1.03142,0,0,0,829.43915,665.19236Z"/>
    <path class="cls-66" d="M828.95405,637.03876a1.03188,1.03188,0,0,0,1.02748-.94731c1.71134-20.97405,6.25718-35.22939,14.30621-44.86142a1.03174,1.03174,0,1,0-1.58332-1.32326c-8.33572,9.975-13.03181,24.59751-14.77987,46.01624a1.03179,1.03179,0,0,0,.94461,1.11238C828.89779,637.03808,828.92609,637.03876,828.95405,637.03876Z"/>
    <path class="cls-69" d="M833.46907,609.88022c12.41352-9.28869,32.56114-33.74366,21.641-40.81312S826.25693,588.89414,833.46907,609.88022Z"/>
    <path class="cls-70" d="M828.953,646.8809c-10.38639-1.3708-30.34428-9.12321-26.24544-16.89938S826.26622,632.12873,828.953,646.8809Z"/>
    <path class="cls-66" d="M829.397,653.44069c.0246,0,.04952-.00067.07445-.00269a1.03133,1.03133,0,0,0,.95573-1.10227c-1.28418-17.96842-9.29178-36.9367-22.112-38.42435a1.03166,1.03166,0,1,0-.23783,2.04957c11.70517,1.35829,19.068,19.40082,20.29153,36.52166A1.03145,1.03145,0,0,0,829.397,653.44069Z"/>
    <path class="cls-66" d="M834.50176,651.79268a1.03257,1.03257,0,0,0,1.02378-.915c1.33639-11.66475,12.07136-19.94994,17.52138-21.79266a1.032,1.032,0,0,0-.661-1.95525c-5.88257,1.98961-17.46883,10.929-18.91067,23.51344a1.0315,1.0315,0,0,0,.90755,1.142A1.01449,1.01449,0,0,0,834.50176,651.79268Z"/>
    <path class="cls-71" d="M839.817,637.55712c10.96146-.11708,33.43358-3.7067,30.1543-12.3S844.46406,622.57118,839.817,637.55712Z"/>
    <path class="cls-72" d="M843.76809,613.90823c9.23059-7.47943,24.46609-26.44253,15.89544-31.53289S837.62528,598.05214,843.76809,613.90823Z"/>
    <path class="cls-73" d="M822.96668,626.49067c-17.08455-4.57708-48.78844-21.93976-40.21852-34.05555S821.71118,601.20654,822.96668,626.49067Z"/>
    <path class="cls-74" d="M825.32639,605.994c-11.6192-8.69432-31.08358-29.13672-20.86224-35.75382S832.077,586.3508,825.32639,605.994Z"/>
  </g>
  <g>
    <g>
      <g>
        <path class="cls-75" d="M745.60962,143.77129a191.74718,191.74718,0,1,1-74.88745,15.11279,191.1823,191.1823,0,0,1,74.88745-15.11279m0-17.54248c-115.95068,0-209.94751,93.99658-209.94751,209.94775,0,115.95068,93.99683,209.94727,209.94751,209.94727s209.94751-93.99659,209.94751-209.94727c0-115.95117-93.99683-209.94775-209.94751-209.94775Z"/>
        <circle class="cls-1" cx="745.60964" cy="336.17634" r="194.19259"/>
        <path class="cls-76" d="M624.7103,462.53869l59.994,58.07421a193.98482,193.98482,0,0,0,60.90544,9.75595c107.2495,0,194.19253-86.94292,194.19253-194.19254a193.96854,193.96854,0,0,0-10.0168-61.7088L865.88,209.36658Z"/>
      </g>
      <rect class="cls-22" x="614.32653" y="204.89323" width="262.56622" height="262.56622" rx="25.40683"/>
      <g>
        <circle class="cls-75" cx="925.95928" cy="221.07633" r="62.02326"/>
        <g>
          <rect class="cls-22" x="904.90249" y="212.4341" width="13.46241" height="40.4658" transform="translate(102.49091 712.76896) rotate(-45)"/>
          <rect class="cls-22" x="931.11332" y="195.25323" width="13.46241" height="60.59444" transform="translate(1441.51249 1048.19493) rotate(-135)"/>
        </g>
      </g>
    </g>
    <path class="cls-77" d="M745.60962,237.44682a98.7295,98.7295,0,1,0,98.72974,98.7295A98.72941,98.72941,0,0,0,745.60962,237.44682Zm0,177.82862a79.09912,79.09912,0,1,1,79.09912-79.09912A79.099,79.099,0,0,1,745.60962,415.27544Z"/>
    <path class="cls-78" d="M844.34009,336.18022c0,.7-.01,1.3999-.02,2.09986H824.67993q.03-1.04994.03-2.09986a79.1,79.1,0,1,0-127.01,62.93994L687.53,416.01006a98.72679,98.72679,0,1,1,156.81006-79.82984Z"/>
    <path class="cls-79" d="M835.13436,335.69985l-68.559-16.3619-20.96572,16.12259,19.78282,17.55415,69.53808-11.51141A2.96206,2.96206,0,0,0,835.13436,335.69985Z"/>
    <path class="cls-80" d="M804.772,415.22221,794.3833,398.42363a79.02871,79.02871,0,0,1-96.67627.68457l-10.17944,16.90527a98.74111,98.74111,0,0,0,117.24438-.79126Z"/>
    <circle class="cls-81" cx="745.60964" cy="336.17634" r="42.56481"/>
    <circle class="cls-82" cx="745.60964" cy="336.17634" r="33.22615"/>
    <g>
      <circle class="cls-83" cx="875.90276" cy="392.64091" r="37.51325"/>
      <polygon class="cls-22" points="894.916 386.493 882.051 386.493 882.051 373.628 869.755 373.628 869.755 386.493 856.889 386.493 856.889 398.789 869.755 398.789 869.755 411.654 882.051 411.654 882.051 398.789 894.916 398.789 894.916 386.493"/>
    </g>
    <g>
      <circle class="cls-84" cx="615.31651" cy="392.64091" r="37.51325"/>
      <rect class="cls-22" x="596.30317" y="386.49304" width="38.02667" height="12.29612"/>
    </g>
  </g>
</svg>
