<svg id="Layer_1" data-name="Layer 1" xmlns="http://www.w3.org/2000/svg" xmlns:xlink="http://www.w3.org/1999/xlink" viewBox="0 0 1000 1000">
  <defs>
    <style>
      .cls-1 {
        fill: url(#linear-gradient);
      }

      .cls-2, .cls-8 {
        fill: #fff;
      }

      .cls-3 {
        fill: #b8cbd8;
      }

      .cls-4 {
        fill: url(#linear-gradient-2);
      }

      .cls-5 {
        fill: #9bb0c4;
      }

      .cls-6 {
        fill: url(#linear-gradient-3);
      }

      .cls-21, .cls-7 {
        opacity: 0.5;
      }

      .cls-8 {
        opacity: 0.7;
      }

      .cls-9 {
        fill: url(#linear-gradient-4);
      }

      .cls-10 {
        fill: url(#linear-gradient-5);
      }

      .cls-11 {
        fill: url(#linear-gradient-6);
      }

      .cls-12 {
        fill: url(#linear-gradient-7);
      }

      .cls-13 {
        fill: url(#linear-gradient-8);
      }

      .cls-14 {
        fill: url(#linear-gradient-9);
      }

      .cls-15 {
        fill: url(#linear-gradient-10);
      }

      .cls-16 {
        fill: url(#linear-gradient-11);
      }

      .cls-17 {
        fill: url(#linear-gradient-12);
      }

      .cls-18 {
        fill: url(#linear-gradient-13);
      }

      .cls-19 {
        fill: url(#linear-gradient-14);
      }

      .cls-20 {
        fill: url(#linear-gradient-15);
      }

      .cls-21 {
        fill: #dd7b19;
      }

      .cls-22 {
        fill: url(#linear-gradient-16);
      }

      .cls-23 {
        fill: none;
        stroke: #d8712b;
        stroke-linecap: round;
        stroke-miterlimit: 10;
        stroke-width: 5.21546px;
      }

      .cls-24 {
        fill: url(#linear-gradient-17);
      }

      .cls-25 {
        fill: url(#linear-gradient-18);
      }

      .cls-26 {
        fill: url(#linear-gradient-19);
      }

      .cls-27 {
        fill: url(#linear-gradient-20);
      }

      .cls-28 {
        fill: #e58630;
      }

      .cls-29 {
        fill: url(#linear-gradient-21);
      }

      .cls-30 {
        fill: url(#linear-gradient-22);
      }

      .cls-31 {
        fill: #ffcb48;
      }

      .cls-32 {
        fill: url(#linear-gradient-23);
      }

      .cls-33 {
        fill: url(#linear-gradient-24);
      }

      .cls-34 {
        fill: url(#linear-gradient-25);
      }

      .cls-35 {
        fill: url(#linear-gradient-26);
      }

      .cls-36 {
        fill: url(#linear-gradient-27);
      }

      .cls-37 {
        fill: url(#linear-gradient-28);
      }

      .cls-38 {
        fill: url(#linear-gradient-29);
      }

      .cls-39 {
        fill: url(#linear-gradient-30);
      }

      .cls-40 {
        fill: url(#linear-gradient-31);
      }

      .cls-41 {
        fill: url(#linear-gradient-32);
      }

      .cls-42 {
        fill: url(#linear-gradient-33);
      }

      .cls-43 {
        fill: url(#linear-gradient-34);
      }

      .cls-44 {
        fill: url(#linear-gradient-35);
      }

      .cls-45 {
        fill: url(#linear-gradient-36);
      }

      .cls-46 {
        fill: url(#linear-gradient-37);
      }

      .cls-47 {
        fill: url(#linear-gradient-38);
      }

      .cls-48 {
        fill: url(#linear-gradient-39);
      }

      .cls-49 {
        fill: url(#linear-gradient-40);
      }

      .cls-50 {
        fill: url(#linear-gradient-41);
      }

      .cls-51 {
        fill: url(#linear-gradient-42);
      }

      .cls-52 {
        fill: url(#linear-gradient-43);
      }

      .cls-53 {
        fill: url(#linear-gradient-44);
      }

      .cls-54 {
        fill: url(#linear-gradient-45);
      }

      .cls-55 {
        fill: url(#linear-gradient-46);
      }

      .cls-56 {
        fill: url(#linear-gradient-47);
      }

      .cls-57 {
        fill: url(#linear-gradient-48);
      }

      .cls-58 {
        fill: url(#linear-gradient-49);
      }

      .cls-59 {
        fill: #ffbda3;
      }

      .cls-60 {
        fill: url(#linear-gradient-50);
      }

      .cls-61 {
        fill: #27343d;
      }

      .cls-62 {
        fill: #303d49;
      }

      .cls-63 {
        fill: url(#linear-gradient-51);
      }

      .cls-64 {
        fill: url(#linear-gradient-52);
      }

      .cls-65 {
        fill: url(#linear-gradient-53);
      }

      .cls-66 {
        fill: url(#linear-gradient-54);
      }

      .cls-67 {
        fill: url(#linear-gradient-55);
      }

      .cls-68 {
        fill: url(#linear-gradient-56);
      }

      .cls-69 {
        fill: url(#linear-gradient-57);
      }

      .cls-70 {
        fill: url(#linear-gradient-58);
      }

      .cls-71 {
        fill: url(#linear-gradient-59);
      }

      .cls-72 {
        fill: url(#linear-gradient-60);
      }

      .cls-73 {
        fill: url(#linear-gradient-61);
      }

      .cls-74 {
        fill: url(#linear-gradient-62);
      }

      .cls-75 {
        fill: url(#linear-gradient-63);
      }

      .cls-76 {
        fill: url(#linear-gradient-64);
      }

      .cls-77 {
        fill: url(#linear-gradient-65);
      }

      .cls-78 {
        fill: url(#linear-gradient-66);
      }

      .cls-79 {
        fill: url(#linear-gradient-67);
      }

      .cls-80 {
        fill: url(#linear-gradient-68);
      }

      .cls-81 {
        fill: url(#linear-gradient-69);
      }

      .cls-82 {
        fill: #724133;
      }

      .cls-83 {
        fill: url(#linear-gradient-70);
      }

      .cls-84 {
        fill: url(#linear-gradient-71);
      }

      .cls-85 {
        fill: url(#linear-gradient-72);
      }

      .cls-86 {
        fill: url(#linear-gradient-73);
      }

      .cls-87 {
        fill: url(#linear-gradient-74);
      }

      .cls-88 {
        fill: url(#linear-gradient-75);
      }

      .cls-89 {
        fill: url(#linear-gradient-76);
      }
    </style>
    <linearGradient id="linear-gradient" x1="499.99216" y1="381.81496" x2="906.63841" y2="381.81496" gradientUnits="userSpaceOnUse">
      <stop offset="0" stop-color="#f0f9ff"/>
      <stop offset="1" stop-color="#c3d6e6"/>
    </linearGradient>
    <linearGradient id="linear-gradient-2" x1="93.36159" y1="696.80704" x2="906.63841" y2="696.80704" gradientUnits="userSpaceOnUse">
      <stop offset="0" stop-color="#dae9f2"/>
      <stop offset="0.99337" stop-color="#c4d5e6"/>
    </linearGradient>
    <linearGradient id="linear-gradient-3" x1="-892.75081" y1="559.80401" x2="-772.11975" y2="639.22941" gradientTransform="translate(1162.29787)" gradientUnits="userSpaceOnUse">
      <stop offset="0" stop-color="#fff"/>
      <stop offset="0.94545" stop-color="#fff" stop-opacity="0"/>
    </linearGradient>
    <linearGradient id="linear-gradient-4" x1="-230.03241" y1="442.33285" x2="-132.66914" y2="442.33285" gradientTransform="translate(353.2766)" gradientUnits="userSpaceOnUse">
      <stop offset="0" stop-color="#62778c"/>
      <stop offset="1" stop-color="#435466"/>
    </linearGradient>
    <linearGradient id="linear-gradient-5" x1="-109.17891" y1="372.55439" x2="-11.8012" y2="372.55439" xlink:href="#linear-gradient-4"/>
    <linearGradient id="linear-gradient-6" x1="11.68903" y1="302.7557" x2="109.12237" y2="302.7557" xlink:href="#linear-gradient-4"/>
    <linearGradient id="linear-gradient-7" x1="-230.03241" y1="375.9091" x2="120.83879" y2="375.9091" gradientTransform="translate(353.2766)" gradientUnits="userSpaceOnUse">
      <stop offset="0" stop-color="#849bb2"/>
      <stop offset="1" stop-color="#5b6f82"/>
    </linearGradient>
    <linearGradient id="linear-gradient-8" x1="137.0966" y1="271.99585" x2="-240.0482" y2="476.43519" xlink:href="#linear-gradient-4"/>
    <linearGradient id="linear-gradient-9" x1="-210.02824" y1="327.82091" x2="21.87309" y2="559.11198" gradientTransform="translate(353.2766)" gradientUnits="userSpaceOnUse">
      <stop offset="0" stop-color="#5b6f82"/>
      <stop offset="1" stop-color="#849bb2"/>
    </linearGradient>
    <linearGradient id="linear-gradient-10" x1="-114.86232" y1="232.40389" x2="117.03901" y2="463.69496" xlink:href="#linear-gradient-9"/>
    <linearGradient id="linear-gradient-11" x1="-19.68462" y1="136.97506" x2="212.21671" y2="368.26613" xlink:href="#linear-gradient-9"/>
    <linearGradient id="linear-gradient-12" x1="-429.88247" y1="118.86252" x2="133.67839" y2="118.86252" xlink:href="#linear-gradient-9"/>
    <linearGradient id="linear-gradient-13" x1="-429.88247" y1="225.7409" x2="133.67839" y2="225.7409" xlink:href="#linear-gradient-9"/>
    <linearGradient id="linear-gradient-14" x1="-429.88247" y1="332.69048" x2="133.67839" y2="332.69048" xlink:href="#linear-gradient-9"/>
    <linearGradient id="linear-gradient-15" x1="-197.3639" y1="328.26756" x2="-221.1643" y2="620.28016" gradientTransform="translate(353.2766)" gradientUnits="userSpaceOnUse">
      <stop offset="0.00844" stop-color="#ffc63f"/>
      <stop offset="1" stop-color="#e68e2b"/>
    </linearGradient>
    <linearGradient id="linear-gradient-16" x1="76.04306" y1="164.5792" x2="154.1572" y2="453.8456" xlink:href="#linear-gradient-15"/>
    <linearGradient id="linear-gradient-17" x1="500.06351" y1="488.55112" x2="550.54052" y2="488.55112" gradientTransform="matrix(1, 0, 0, 1, 0, 0)" xlink:href="#linear-gradient-4"/>
    <linearGradient id="linear-gradient-18" x1="500.06349" y1="484.70517" x2="550.54053" y2="484.70517" gradientTransform="matrix(1, 0, 0, 1, 0, 0)" xlink:href="#linear-gradient-7"/>
    <linearGradient id="linear-gradient-19" x1="523.41244" y1="273.00518" x2="526.99554" y2="471.2701" gradientTransform="matrix(1, 0, 0, 1, 0, 0)" xlink:href="#linear-gradient-4"/>
    <linearGradient id="linear-gradient-20" x1="491.59086" y1="252.21385" x2="559.01327" y2="252.21385" gradientUnits="userSpaceOnUse">
      <stop offset="0.00844" stop-color="#ffc63f"/>
      <stop offset="1" stop-color="#e68a23"/>
    </linearGradient>
    <linearGradient id="linear-gradient-21" x1="515.38538" y1="235.87251" x2="535.21852" y2="235.87251" gradientUnits="userSpaceOnUse">
      <stop offset="0" stop-color="#3e4c59"/>
      <stop offset="1" stop-color="#293440"/>
    </linearGradient>
    <linearGradient id="linear-gradient-22" x1="515.38539" y1="231.41622" x2="535.21863" y2="231.41622" gradientTransform="matrix(1, 0, 0, 1, 0, 0)" xlink:href="#linear-gradient-4"/>
    <linearGradient id="linear-gradient-23" x1="497.93189" y1="425.29847" x2="539.9668" y2="536.01542" gradientTransform="matrix(1, 0, 0, 1, 0, 0)" xlink:href="#linear-gradient-7"/>
    <linearGradient id="linear-gradient-24" x1="514.88569" y1="460.9202" x2="522.76723" y2="560.00248" gradientUnits="userSpaceOnUse">
      <stop offset="0" stop-color="#62788c"/>
      <stop offset="1" stop-color="#526575"/>
    </linearGradient>
    <linearGradient id="linear-gradient-25" x1="438.72934" y1="460.24738" x2="469.88021" y2="590.10523" xlink:href="#linear-gradient-24"/>
    <linearGradient id="linear-gradient-26" x1="487.01711" y1="535.86851" x2="831.92855" y2="652.59044" xlink:href="#linear-gradient-24"/>
    <linearGradient id="linear-gradient-27" x1="473.66713" y1="472.25379" x2="873.74939" y2="610.36849" gradientTransform="matrix(1, 0, 0, 1, 0, 0)" xlink:href="#linear-gradient-7"/>
    <linearGradient id="linear-gradient-28" x1="517.48109" y1="452.4948" x2="754.67808" y2="685.93867" gradientTransform="matrix(1, 0, 0, 1, 0, 0)" xlink:href="#linear-gradient-4"/>
    <linearGradient id="linear-gradient-29" x1="627.44052" y1="359.88907" x2="660.46795" y2="549.79678" xlink:href="#linear-gradient-24"/>
    <linearGradient id="linear-gradient-30" x1="584.94579" y1="383.94546" x2="822.14278" y2="617.38933" gradientTransform="matrix(1, 0, 0, 1, 0, 0)" xlink:href="#linear-gradient-4"/>
    <linearGradient id="linear-gradient-31" x1="548.78026" y1="356.62447" x2="772.46603" y2="681.6444" gradientTransform="matrix(1, 0, 0, 1, 0, 0)" xlink:href="#linear-gradient-7"/>
    <linearGradient id="linear-gradient-32" x1="540.01035" y1="429.60334" x2="777.20733" y2="663.04721" gradientTransform="matrix(1, 0, 0, 1, 0, 0)" xlink:href="#linear-gradient-4"/>
    <linearGradient id="linear-gradient-33" x1="751.72276" y1="425.30264" x2="797.13547" y2="597.5707" xlink:href="#linear-gradient-24"/>
    <linearGradient id="linear-gradient-34" x1="614.80335" y1="353.60787" x2="852.00034" y2="587.05174" gradientTransform="matrix(1, 0, 0, 1, 0, 0)" xlink:href="#linear-gradient-4"/>
    <linearGradient id="linear-gradient-35" x1="602.37939" y1="319.73639" x2="826.06516" y2="644.75631" gradientTransform="matrix(1, 0, 0, 1, 0, 0)" xlink:href="#linear-gradient-7"/>
    <linearGradient id="linear-gradient-36" x1="566.92909" y1="402.25181" x2="804.12608" y2="635.69568" gradientTransform="matrix(1, 0, 0, 1, 0, 0)" xlink:href="#linear-gradient-4"/>
    <linearGradient id="linear-gradient-37" x1="473.43706" y1="528.156" x2="702.15834" y2="700.14484" xlink:href="#linear-gradient-21"/>
    <linearGradient id="linear-gradient-38" x1="285.88646" y1="396.51383" x2="726.50238" y2="692.25944" gradientTransform="matrix(1, 0, 0, 1, 0, 0)" xlink:href="#linear-gradient-4"/>
    <linearGradient id="linear-gradient-39" x1="768.65498" y1="592.05245" x2="813.12942" y2="686.63099" gradientTransform="matrix(1, 0, 0, 1, 0, 0)" xlink:href="#linear-gradient-7"/>
    <linearGradient id="linear-gradient-40" x1="783.01714" y1="623.20551" x2="816.23223" y2="678.37632" gradientTransform="matrix(1, 0, 0, 1, 0, 0)" xlink:href="#linear-gradient-4"/>
    <linearGradient id="linear-gradient-41" x1="723.94621" y1="614.00654" x2="729.57588" y2="729.69636" xlink:href="#linear-gradient-24"/>
    <linearGradient id="linear-gradient-42" x1="268.64678" y1="662.82259" x2="935.10356" y2="812.41706" gradientUnits="userSpaceOnUse">
      <stop offset="0.00005" stop-color="#ffb348"/>
      <stop offset="1" stop-color="#e68e2b"/>
    </linearGradient>
    <linearGradient id="linear-gradient-43" x1="319.76521" y1="662.7706" x2="610.59358" y2="795.64393" xlink:href="#linear-gradient-21"/>
    <linearGradient id="linear-gradient-44" x1="350.81286" y1="594.81463" x2="641.64122" y2="727.68796" xlink:href="#linear-gradient-21"/>
    <linearGradient id="linear-gradient-45" x1="328.65544" y1="643.312" x2="619.4838" y2="776.18533" xlink:href="#linear-gradient-21"/>
    <linearGradient id="linear-gradient-46" x1="344.80469" y1="607.9651" x2="635.63305" y2="740.83843" xlink:href="#linear-gradient-21"/>
    <linearGradient id="linear-gradient-47" x1="340.69478" y1="616.96073" x2="631.52314" y2="749.83405" xlink:href="#linear-gradient-21"/>
    <linearGradient id="linear-gradient-48" x1="327.19559" y1="671.19424" x2="630.47216" y2="671.19424" gradientUnits="userSpaceOnUse">
      <stop offset="0" stop-color="#526575"/>
      <stop offset="1" stop-color="#62788c"/>
    </linearGradient>
    <linearGradient id="linear-gradient-49" x1="327.19561" y1="638.055" x2="630.47214" y2="638.055" gradientUnits="userSpaceOnUse">
      <stop offset="0" stop-color="#96b1cc"/>
      <stop offset="1" stop-color="#748ea6"/>
    </linearGradient>
    <linearGradient id="linear-gradient-50" x1="207.67425" y1="383.1534" x2="159.92956" y2="500.60021" gradientTransform="matrix(-1, 0, 0, 1, 459.5062, 0)" gradientUnits="userSpaceOnUse">
      <stop offset="0.00005" stop-color="#ffcb48"/>
      <stop offset="1" stop-color="#e68e2b"/>
    </linearGradient>
    <linearGradient id="linear-gradient-51" x1="222.42387" y1="360.35843" x2="211.44514" y2="401.89035" gradientTransform="matrix(-1, 0, 0, 1, 459.5062, 0)" gradientUnits="userSpaceOnUse">
      <stop offset="0" stop-color="#cebcb3"/>
      <stop offset="1" stop-color="#bfa090"/>
    </linearGradient>
    <linearGradient id="linear-gradient-52" x1="241.47076" y1="396.89242" x2="193.72607" y2="514.33922" xlink:href="#linear-gradient-50"/>
    <linearGradient id="linear-gradient-53" x1="268.00181" y1="407.68704" x2="220.27543" y2="525.08882" xlink:href="#linear-gradient-50"/>
    <linearGradient id="linear-gradient-54" x1="625.204" y1="291.00998" x2="669.08634" y2="291.00998" gradientUnits="userSpaceOnUse">
      <stop offset="0" stop-color="#435466"/>
      <stop offset="1" stop-color="#62778c"/>
    </linearGradient>
    <linearGradient id="linear-gradient-55" x1="638.92646" y1="254.64285" x2="665.35183" y2="326.75276" gradientUnits="userSpaceOnUse">
      <stop offset="0" stop-color="#fff"/>
      <stop offset="0.98888" stop-color="#e6edf2"/>
    </linearGradient>
    <linearGradient id="linear-gradient-56" x1="616.3092" y1="262.86884" x2="772.62198" y2="405.52104" gradientTransform="matrix(1, 0, 0, 1, 0, 0)" xlink:href="#linear-gradient-7"/>
    <linearGradient id="linear-gradient-57" x1="616.64007" y1="251.37476" x2="768.62327" y2="387.83119" gradientTransform="matrix(1, 0, 0, 1, 0, 0)" xlink:href="#linear-gradient-4"/>
    <linearGradient id="linear-gradient-58" x1="629.69534" y1="236.83399" x2="781.67854" y2="373.29042" gradientTransform="matrix(1, 0, 0, 1, 0, 0)" xlink:href="#linear-gradient-4"/>
    <linearGradient id="linear-gradient-59" x1="683.09539" y1="351.69695" x2="726.97773" y2="351.69695" xlink:href="#linear-gradient-54"/>
    <linearGradient id="linear-gradient-60" x1="693.52455" y1="314.27649" x2="726.04292" y2="387.14612" xlink:href="#linear-gradient-55"/>
    <linearGradient id="linear-gradient-61" x1="612.39813" y1="267.15443" x2="768.71091" y2="409.80664" gradientTransform="matrix(1, 0, 0, 1, 0, 0)" xlink:href="#linear-gradient-7"/>
    <linearGradient id="linear-gradient-62" x1="612.31032" y1="256.19717" x2="764.29352" y2="392.6536" gradientTransform="matrix(1, 0, 0, 1, 0, 0)" xlink:href="#linear-gradient-4"/>
    <linearGradient id="linear-gradient-63" x1="625.36559" y1="241.6564" x2="777.34879" y2="378.11283" gradientTransform="matrix(1, 0, 0, 1, 0, 0)" xlink:href="#linear-gradient-4"/>
    <linearGradient id="linear-gradient-64" x1="740.98678" y1="341.6516" x2="784.86912" y2="341.6516" xlink:href="#linear-gradient-54"/>
    <linearGradient id="linear-gradient-65" x1="751.41594" y1="304.23113" x2="783.93431" y2="377.10077" xlink:href="#linear-gradient-55"/>
    <linearGradient id="linear-gradient-66" x1="643.70586" y1="232.84863" x2="800.01864" y2="375.50084" gradientTransform="matrix(1, 0, 0, 1, 0, 0)" xlink:href="#linear-gradient-7"/>
    <linearGradient id="linear-gradient-67" x1="643.14237" y1="221.85689" x2="795.12557" y2="358.31331" gradientTransform="matrix(1, 0, 0, 1, 0, 0)" xlink:href="#linear-gradient-4"/>
    <linearGradient id="linear-gradient-68" x1="656.19764" y1="207.31612" x2="808.18083" y2="343.77254" gradientTransform="matrix(1, 0, 0, 1, 0, 0)" xlink:href="#linear-gradient-4"/>
    <linearGradient id="linear-gradient-69" x1="8577.03899" y1="649.94875" x2="8529.33895" y2="700.56005" gradientTransform="matrix(-1, 0, 0, 1, 9411.06833, 0)" xlink:href="#linear-gradient-50"/>
    <linearGradient id="linear-gradient-70" x1="8515.66636" y1="595.53396" x2="8545.22694" y2="611.65791" gradientTransform="matrix(-1, 0, 0, 1, 9411.06833, 0)" gradientUnits="userSpaceOnUse">
      <stop offset="0" stop-color="#f2883c"/>
      <stop offset="0.16716" stop-color="#e97d35"/>
      <stop offset="0.67368" stop-color="#d26124"/>
      <stop offset="0.96784" stop-color="#c9571e"/>
    </linearGradient>
    <linearGradient id="linear-gradient-71" x1="8531.80784" y1="558.77572" x2="8552.11208" y2="597.74194" xlink:href="#linear-gradient-70"/>
    <linearGradient id="linear-gradient-72" x1="8580.45765" y1="620.92473" x2="8555.82383" y2="636.6008" xlink:href="#linear-gradient-70"/>
    <linearGradient id="linear-gradient-73" x1="8515.06831" y1="614.2681" x2="8547.7641" y2="627.85403" xlink:href="#linear-gradient-70"/>
    <linearGradient id="linear-gradient-74" x1="8527.03852" y1="573.62153" x2="8543.46106" y2="603.33141" xlink:href="#linear-gradient-70"/>
    <linearGradient id="linear-gradient-75" x1="8602.13121" y1="580.3575" x2="8560.77625" y2="617.53218" xlink:href="#linear-gradient-70"/>
    <linearGradient id="linear-gradient-76" x1="8579.09368" y1="560.42985" x2="8559.53592" y2="594.6186" xlink:href="#linear-gradient-70"/>
  </defs>
  <g>
    <polygon class="cls-1" points="499.992 66.823 906.638 301.591 906.638 696.807 499.992 462.017 499.992 66.823"/>
    <polygon class="cls-2" points="499.992 421.007 501.278 450.103 664.467 536.232 499.992 157.906 499.992 421.007"/>
    <polygon class="cls-3" points="500.008 66.823 93.362 301.591 93.362 696.807 500.008 462.017 500.008 66.823"/>
  </g>
  <path class="cls-4" d="M100.37873,708.973,478.95932,927.537a42.10144,42.10144,0,0,0,42.10111-.00062L899.62162,708.96895a14.03381,14.03381,0,0,0,.00017-24.307L521.044,466.078a42.10142,42.10142,0,0,0-42.10407.00053L100.37791,684.666A14.03381,14.03381,0,0,0,100.37873,708.973Z"/>
  <path class="cls-5" d="M560.14771,488.656,451.78054,551.21408a7.53482,7.53482,0,0,0-.00257,13.04963l287.39078,166.0121a22.60369,22.60369,0,0,0,22.60965.00172L870.197,667.67271Z"/>
  <polygon class="cls-6" points="142.708 660.153 282.157 786.389 633.678 581.271 444.189 486.159 142.708 660.153"/>
  <g class="cls-7">
    <ellipse class="cls-5" cx="245.46427" cy="719.46101" rx="69.42869" ry="39.90155"/>
  </g>
  <g>
    <g>
      <g>
        <g>
          <path class="cls-8" d="M111.50539,654.30547,482.32758,440.22123a7.044,7.044,0,0,0,3.52211-6.10032V97.51183L111.50539,313.6503Z"/>
          <path class="cls-2" d="M474.11539,431.40435,123.24418,633.97678l-11.71642-6.76221v-313.546L462.399,111.08433l11.71643,6.76221Z"/>
          <polygon class="cls-9" points="220.607 264.213 220.607 564.243 123.244 620.452 123.245 613.665 214.737 560.858 214.737 267.603 220.607 264.213"/>
          <polygon class="cls-10" points="341.475 194.427 341.457 494.471 244.098 550.682 244.098 543.896 335.587 491.09 335.587 197.807 341.475 194.427"/>
          <polygon class="cls-11" points="462.399 124.608 462.359 424.677 364.966 480.903 364.966 474.117 456.455 421.311 456.455 128.04 462.399 124.608"/>
          <polygon class="cls-12" points="474.115 117.847 474.11 431.41 123.245 633.972 123.244 620.452 462.399 424.654 462.399 124.608 474.115 117.847"/>
          <path class="cls-13" d="M111.5053,313.65029V654.30537L482.32751,440.22128a7.044,7.044,0,0,0,3.52211-6.10032V97.51181ZM353.2257,187.64234V501.19871l-109.128,63.00215V250.65058ZM123.24523,320.42819,232.35776,257.429V570.97862L123.24523,633.97167ZM474.10969,431.40962,364.96563,494.421v-313.557l109.14406-63.01748Z"/>
        </g>
        <polygon class="cls-14" points="232.358 570.979 220.607 564.243 220.607 264.213 232.358 257.429 232.358 570.979"/>
        <polygon class="cls-15" points="353.226 501.199 341.475 494.465 341.475 194.427 353.226 187.642 353.226 501.199"/>
      </g>
      <polygon class="cls-16" points="474.11 431.406 462.359 424.677 462.399 124.608 474.11 117.85 474.11 431.406"/>
    </g>
    <g>
      <circle class="cls-17" cx="491.77383" cy="118.86252" r="8.234"/>
      <path class="cls-18" d="M490.74776,124.68145,128.39367,333.93034l-4.01188-6.94877L486.74936,117.72489l.00183.00317a2.02068,2.02068,0,0,1,1.99347.21238,6.27205,6.27205,0,0,1,2.8462,4.90935A1.9685,1.9685,0,0,1,490.74776,124.68145Z"/>
      <path class="cls-3" d="M482.82617,129.23326a9.78892,9.78892,0,0,0-1.28647-3.82459,9.45137,9.45137,0,0,0-2.78132-3.09455,6.27929,6.27929,0,0,0-3.54658-1.18206,5.09343,5.09343,0,0,0-2.48635.643,5.62315,5.62315,0,0,0-2.57292,5.5113l4.31141-2.48613a1.37294,1.37294,0,0,1,.74786-.19121c1.07764,0,2.41631.97344,3.32035,2.53812.95626,1.65148,1.09547,3.40737.43463,4.31142a1.372,1.372,0,0,1-.43463.39981,1.20285,1.20285,0,0,1-.539.15662l-3.842,2.22531a6.13721,6.13721,0,0,0,3.63359,1.28647,4.87745,4.87745,0,0,0,2.48592-.66085,5.41489,5.41489,0,0,0,2.59033-4.885C482.861,129.73749,482.84357,129.47689,482.82617,129.23326Z"/>
      <path class="cls-3" d="M461.06092,141.81325a9.78906,9.78906,0,0,0-1.28646-3.82459,9.45154,9.45154,0,0,0-2.78133-3.09456,6.27932,6.27932,0,0,0-3.54658-1.18205,5.09336,5.09336,0,0,0-2.48634.643,5.62315,5.62315,0,0,0-2.57293,5.51129l4.31142-2.48613a1.373,1.373,0,0,1,.74785-.1912c1.07764,0,2.41631.97344,3.32036,2.53812.95625,1.65148,1.09547,3.40737.43462,4.31141a1.37191,1.37191,0,0,1-.43462.39982,1.20289,1.20289,0,0,1-.539.15662l-3.842,2.22531a6.13721,6.13721,0,0,0,3.63359,1.28647,4.87742,4.87742,0,0,0,2.48591-.66085,5.41489,5.41489,0,0,0,2.59033-4.885C461.09572,142.31748,461.07832,142.05688,461.06092,141.81325Z"/>
      <path class="cls-3" d="M431.6546,158.80973a9.78882,9.78882,0,0,0-1.28647-3.82458,9.45131,9.45131,0,0,0-2.78132-3.09456,6.27935,6.27935,0,0,0-3.54658-1.18205,5.09343,5.09343,0,0,0-2.48635.643,5.62312,5.62312,0,0,0-2.57292,5.51129l4.31141-2.48613a1.373,1.373,0,0,1,.74786-.19121c1.07764,0,2.41631.97344,3.32035,2.53812.95626,1.65148,1.09547,3.40737.43463,4.31142a1.37205,1.37205,0,0,1-.43463.39982,1.20284,1.20284,0,0,1-.539.15661l-3.842,2.22532a6.1372,6.1372,0,0,0,3.63359,1.28646,4.87745,4.87745,0,0,0,2.48592-.66084,5.41491,5.41491,0,0,0,2.59033-4.885C431.6894,159.314,431.672,159.05336,431.6546,158.80973Z"/>
      <path class="cls-3" d="M134.28938,330.52513a9.78906,9.78906,0,0,0-1.28646-3.82459,9.4514,9.4514,0,0,0-2.78133-3.09455,6.27926,6.27926,0,0,0-3.54658-1.18206,5.09336,5.09336,0,0,0-2.48634.643,5.62315,5.62315,0,0,0-2.57293,5.51129l4.31141-2.48613a1.373,1.373,0,0,1,.74786-.1912c1.07764,0,2.41631.97344,3.32036,2.53812.95625,1.65148,1.09546,3.40737.43462,4.31141a1.37191,1.37191,0,0,1-.43462.39982,1.20293,1.20293,0,0,1-.539.15662l-3.842,2.22531a6.13721,6.13721,0,0,0,3.63359,1.28647,4.87742,4.87742,0,0,0,2.48591-.66085,5.41489,5.41489,0,0,0,2.59033-4.885C134.32418,331.02936,134.30678,330.76876,134.28938,330.52513Z"/>
      <circle class="cls-19" cx="121.45415" cy="332.69048" r="8.234"/>
    </g>
    <path class="cls-20" d="M129.4657,338.92263a19.92874,19.92874,0,0,0,11.42963,1.44257c11.16034-2.00027,13.09391-14.77913,13.09391-14.77913s6.35663,3.90551,11.24955,1.874c8.95527-3.71822,10.28871-15.38865,10.28871-15.38865-6.7846,60.16052-19.56243,121-36.84114,182.34951,8.85812,40.90166,14.23874,87.7954,17.75476,137.902,1.18364,13.24211-11.818,19.0309-21.08377,15.75738C136.52249,657.346,119.6,659.56538,119.6,653.40673V501.49252Z"/>
    <path class="cls-21" d="M129.74315,501.08562,166.07566,327.047c-.278.13879-.54243.29074-.837.413-4.89289,2.03177-11.2492-1.87377-11.2492-1.87377s-.01146.34549-.09168.906Z"/>
    <circle class="cls-3" cx="131.3047" cy="337.38114" r="2.77418"/>
    <path class="cls-3" d="M156.52042,317.67754A9.78882,9.78882,0,0,0,155.234,313.853a9.45131,9.45131,0,0,0-2.78132-3.09456,6.27935,6.27935,0,0,0-3.54658-1.18205,5.09336,5.09336,0,0,0-2.48634.643,5.62313,5.62313,0,0,0-2.57293,5.51129l4.31141-2.48613a1.373,1.373,0,0,1,.74786-.19121c1.07764,0,2.41631.97344,3.32036,2.53812.95625,1.65148,1.09546,3.40737.43462,4.31142a1.37213,1.37213,0,0,1-.43462.39982,1.203,1.203,0,0,1-.539.15661l-3.842,2.22532a6.1372,6.1372,0,0,0,3.63359,1.28646,4.87735,4.87735,0,0,0,2.48591-.66085,5.41488,5.41488,0,0,0,2.59033-4.885C156.55522,318.18177,156.53782,317.92117,156.52042,317.67754Z"/>
    <circle class="cls-3" cx="153.53574" cy="324.53355" r="2.77418"/>
    <path class="cls-3" d="M177.93379,305.31035a9.78873,9.78873,0,0,0-1.28646-3.82459,9.45137,9.45137,0,0,0-2.78132-3.09455,6.27929,6.27929,0,0,0-3.54659-1.18206,5.09342,5.09342,0,0,0-2.48634.643,5.62317,5.62317,0,0,0-2.57293,5.5113l4.31142-2.48613a1.37288,1.37288,0,0,1,.74785-.19121c1.07764,0,2.41631.97344,3.32036,2.53812.95625,1.65148,1.09547,3.40737.43462,4.31141a1.37191,1.37191,0,0,1-.43462.39982,1.20285,1.20285,0,0,1-.539.15662l-3.842,2.22531a6.13721,6.13721,0,0,0,3.63359,1.28647,4.87745,4.87745,0,0,0,2.48592-.66085,5.41489,5.41489,0,0,0,2.59033-4.885C177.9686,305.81458,177.95119,305.554,177.93379,305.31035Z"/>
    <circle class="cls-3" cx="174.78201" cy="311.69638" r="2.77418"/>
    <path class="cls-22" d="M483.53983,437.44575V288.91114L477.878,137.261c.60469,16.1965-12.85655,18.464-20.23583,14.58008.22194,15.42445-18.53922,18.85257-28.97222,14.89478,7.90914,45.62542,17.26738,92.8715,34.44077,129.98052-7.86064,62.4565-10.5556,105.83032-10.5556,160.53722,0,7.36079,19.41928,3.95779,19.41928-10.209C478.79886,450.7065,483.54075,444.43685,483.53983,437.44575Z"/>
    <circle class="cls-3" cx="478.23738" cy="137.15001" r="2.77418"/>
    <circle class="cls-3" cx="428.66992" cy="165.66575" r="2.77418"/>
    <path class="cls-21" d="M480.02358,446.48774,474.735,301.49247,471.97438,447.0446C475.23107,448.79211,478.00454,448.26273,480.02358,446.48774Z"/>
    <path class="cls-21" d="M468.9359,152.819a15.099,15.099,0,0,1-11.29378-.97787l17.09289,147.613Z"/>
    <circle class="cls-3" cx="457.505" cy="149.80027" r="2.77418"/>
    <path class="cls-21" d="M129.06919,504.56259l6.2882,143.51771,3.1562.73151a17.3498,17.3498,0,0,0,7.64578-.71507Z"/>
    <path class="cls-23" d="M118.44217,500.7621c6.37327,4.74373,19.02354,2.025,22.602-5.95975"/>
    <path class="cls-23" d="M461.08322,297.5347c6.37327,4.74373,21.23174,2.58923,24.7664-6.25116"/>
  </g>
  <g>
    <g>
      <path class="cls-24" d="M549.84033,485.19893c-2.62967-6.41617-12.60441-11.19642-24.53837-11.19642s-21.9087,4.78025-24.53826,11.19642h-.70019v3.35219c0,8.035,11.2996,14.5486,25.23845,14.5486s25.23856-6.51362,25.23856-14.5486v-3.35219Z"/>
      <ellipse class="cls-25" cx="525.30201" cy="484.70517" rx="25.23852" ry="14.54865"/>
    </g>
    <path class="cls-26" d="M521.995,273.42573V481.687c0,1.05283,1.48059,1.90631,3.307,1.90631s3.307-.85348,3.307-1.90631V273.42573Z"/>
    <g>
      <path class="cls-27" d="M558.9132,259.90466h.00176l-.00544-.02755a11.6086,11.6086,0,0,0-.31192-1.58928l-6.785-34.56018H498.7864l-6.78691,34.58275a11.6,11.6,0,0,0-.29975,1.52789l-.01313.06637h.00416a11.34244,11.34244,0,0,0-.09991,1.42116c0,10.70012,15.09306,19.37423,33.711,19.37423,18.61831,0,33.71137-8.67411,33.71137-19.37423A11.31234,11.31234,0,0,0,558.9132,259.90466Z"/>
      <ellipse class="cls-28" cx="525.30201" cy="225.03431" rx="26.61256" ry="15.29457"/>
      <path class="cls-29" d="M515.38538,239.21993a44.89416,44.89416,0,0,0,19.83314,0v-7.80377H515.38538Z"/>
      <ellipse class="cls-30" cx="525.30201" cy="231.41622" rx="9.91662" ry="5.7164"/>
      <path class="cls-31" d="M525.302,211.05143c13.95094,0,25.30073,6.27266,25.30073,13.98285s-11.34979,13.983-25.30073,13.983-25.30073-6.27277-25.30073-13.983,11.34979-13.98285,25.30073-13.98285m0-1.31171c-14.69764,0-26.61255,6.84763-26.61255,15.29456,0,8.447,11.91491,15.29466,26.61255,15.29466s26.61255-6.84763,26.61255-15.29466c0-8.44693-11.91491-15.29456-26.61255-15.29456Z"/>
    </g>
  </g>
  <g>
    <g>
      <path class="cls-32" d="M437.373,460.425l3.45744,13.40536,24.96331,96.73283a.51431.51431,0,0,0,.13728.01242c.14978.01249.29955.01249.43691.01249a14.1827,14.1827,0,0,0,7.11448-1.90965l2.409-1.38545.71146-.41191L578.191,508.16728l1.0859-.62408a7.46986,7.46986,0,0,0,3.7445-6.478V425.58868c.025-7.76355-3.50735-17.58668-9.31127-24.65126-3.6821-4.49337-8.27534-7.86343-13.45526-8.89943a9.34247,9.34247,0,0,0-6.21584.9736h-.01249c-.09988.0499-.17477.12479-.27464.18718v-.02491L437.38544,460.425Z"/>
      <path class="cls-33" d="M576.84177,421.27294v.028c.11245-.07024.19678-.15457.30915-.21072h.01409a10.08365,10.08365,0,0,1,5.29343-1.26111,31.13942,31.13942,0,0,1,.563,5.75951v75.47653a7.46985,7.46985,0,0,1-3.74449,6.478l-1.0859.62409L476.60282,566.881l-.71146.41192-2.409,1.38544a14.18265,14.18265,0,0,1-7.11449,1.90966c-.13735,0-.28713,0-.4369-.0125a.51431.51431,0,0,1-.13728-.01242l-19.11391-74.06632Z"/>
      <path class="cls-34" d="M440.69311,493.03952v60.6359c0,.16227,0,.337.0125.4993a7.51189,7.51189,0,0,0,3.732,5.99118l10.28487,5.91629,4.50586,2.59621.07489.0374a14.1223,14.1223,0,0,0,6.49047,1.84734.51431.51431,0,0,0,.13728.01242c.14978.01249.29955.01249.43691.01249V493.00212c.0374-9.24895-4.98025-21.41857-12.88108-28.37078a25.4563,25.4563,0,0,0-2.87084-2.20928,19.84691,19.84691,0,0,0-7.01469-2.97064,9.34291,9.34291,0,0,0-6.21584.97353H437.373c-3.42,1.98462-4.743,6.07864-4.93027,9.86054C432.00585,477.38755,435.53818,486.64892,440.69311,493.03952Z"/>
    </g>
    <g>
      <path class="cls-35" d="M475.66825,559.72682l253.85429,146.7526,117.84585-76.16205L800.45145,603.246,593.42356,483.33333,479.6132,496.66772a18.32007,18.32007,0,0,0-1.31834,1.98252,19.4259,19.4259,0,0,0-2.60653,9.73164Z"/>
      <path class="cls-36" d="M478.29486,498.65024,729.5527,644.18511l70.89875-40.9391,37.79608-29.41413-253.955-146.984L487.2415,490.47853l-1.85175,1.06675-.01007.01007a19.29773,19.29773,0,0,0-5.76648,5.11237A18.32007,18.32007,0,0,0,478.29486,498.65024Z"/>
      <path class="cls-37" d="M671.13575,530.10224l-62.47227,36.35a13.74029,13.74029,0,0,0-6.87976,11.54412l-.48563,28.32857-5.58806-3.223-.00046-26.02846a18.28211,18.28211,0,0,1,8.943-15.7173l59.716-35.48376Z"/>
      <g>
        <path class="cls-38" d="M564.004,372.19635l.61271-.701c4.50163-5.15107,16.87821-11.62342,24.81215-12.58689,7.3337-.89057,10.9915.58527,16.97061,3.8083l84.03043,48.60215a31.62543,31.62543,0,0,1,14.92939,34.84156l-19.10865,79.01093Z"/>
        <path class="cls-39" d="M638.69963,474.24451l65.18693-45.18065a31.55714,31.55714,0,0,1,.86,17.79756l-19.35283,82.924-26.20727-.83354-30.06407-46.17519A31.55342,31.55342,0,0,1,638.69963,474.24451Z"/>
        <path class="cls-40" d="M659.18646,528.95191,678.29511,449.941a31.62536,31.62536,0,0,0-14.92939-34.84155l-78.51638-45.49262a17.34769,17.34769,0,0,0-25.52979,10.93936l-18.07176,74.72257a6.57539,6.57539,0,0,0,3.09813,7.23709Z"/>
        <path class="cls-41" d="M659.18648,528.95185,543.9837,462.29626a6.01239,6.01239,0,0,1-2.83216-6.62027l.91781-3.78681.19867-.83887L661.36049,519.982Z"/>
      </g>
      <g>
        <path class="cls-42" d="M690.53985,445.2282l.61271-.701c4.50163-5.15107,16.87821-11.62342,24.81215-12.58689,7.3337-.89057,10.9915.58527,16.97061,3.8083L825.32219,489.196a31.62544,31.62544,0,0,1,14.9294,34.84156l-19.10866,79.01093Z"/>
        <path class="cls-43" d="M792.00855,556.193l45.37-26.19342c.30587-.18939.976-.52451.976-.52451.2079-.09652.42441-.17019.63932-.2479l-17.58828,72.73773Z"/>
        <path class="cls-44" d="M794.69147,606.128,813.80012,527.117a31.62536,31.62536,0,0,0-14.92939-34.84155L711.9979,441.93761A17.34769,17.34769,0,0,0,686.46811,452.877l-19.22688,79.49875Z"/>
        <polygon class="cls-45" points="794.691 606.128 667.241 532.376 669.422 523.379 796.867 597.152 794.691 606.128"/>
      </g>
      <polygon class="cls-46" points="475.688 567.293 713.778 705.067 713.778 671.438 475.688 533.664 475.688 567.293"/>
      <polygon class="cls-47" points="475.688 541.757 713.778 679.531 713.778 665.873 475.688 528.099 475.688 541.757"/>
    </g>
    <g>
      <path class="cls-48" d="M714.67293,621.52213,735.44242,726.5303c.14977.0125.29955.0125.43683.0125a14.18248,14.18248,0,0,0,7.11456-1.90973l2.40895-1.38545L846.95647,664.6227a7.475,7.475,0,0,0,3.7445-6.49048V598.49491s3.25769-1.90973,3.32009-1.94713c6.62775-3.83188,6.61526-16.25114-.0125-27.7467-6.428-11.13369-16.71295-17.28713-23.37811-14.19171,0,0-.57419.28713-.83625.4494l-113.998,65.81429Z"/>
      <polygon class="cls-49" points="732.273 676.02 733.542 666.105 850.704 598.532 850.704 607.714 732.273 676.02"/>
      <path class="cls-50" d="M710.20447,632.144v77.48606a7.475,7.475,0,0,0,3.7445,6.49048l10.28487,5.91629,4.50586,2.59621.07489.03748a14.18579,14.18579,0,0,0,6.62783,1.85975c.14977.0125.29955.0125.43683.0125V663.87238a8.27121,8.27121,0,0,0,3.32009-1.036c6.62775-3.83188,6.61533-16.25106-.01242-27.74669-6.42809-11.13362-16.72545-17.312-23.39069-14.21663-.21216.09988-.42433.19975-.6365.32454a5.48949,5.48949,0,0,0-.4868.32453C711.70229,623.50667,710.20447,627.40094,710.20447,632.144Z"/>
    </g>
  </g>
  <g>
    <path class="cls-51" d="M674.37779,747.20864,400.94715,589.31978a27.95441,27.95441,0,0,0-27.95463-.00169L263.948,652.2668a9.31814,9.31814,0,0,0-.0023,16.13869L537.3374,826.33139a27.9544,27.9544,0,0,0,27.96151.00229l109.07888-62.98615A9.31814,9.31814,0,0,0,674.37779,747.20864Z"/>
    <path class="cls-28" d="M627.85131,741.36405,427.87019,625.88763a15.72678,15.72678,0,0,0-15.7269-.00095L329.817,673.41162a5.24227,5.24227,0,0,0-.00129,9.07942L529.76912,797.995a15.7268,15.7268,0,0,0,15.73077.00129l82.35142-47.55273A5.24226,5.24226,0,0,0,627.85131,741.36405Z"/>
    <g>
      <path class="cls-52" d="M528.57127,732.10811l2.1718,59.10241c0,1.99414,2.81287,3.61068,6.28267,3.61068s6.2825-1.61654,6.2825-3.61068l2.1809-59.10241Z"/>
      <path class="cls-53" d="M607.97259,686.2439l2.1718,59.10242c0,1.99414,2.81287,3.61068,6.28267,3.61068s6.2825-1.61654,6.2825-3.61068l2.18089-59.10242Z"/>
      <path class="cls-54" d="M333.31756,619.38045l2.17181,59.10242c0,1.99414,2.81286,3.61068,6.28266,3.61068s6.2825-1.61654,6.2825-3.61068l2.1809-59.10242Z"/>
      <g>
        <g>
          <path class="cls-55" d="M625.08969,683.78578v13.13708a4.88507,4.88507,0,0,1-2.46384,4.393l-77.49113,44.748a14.71574,14.71574,0,0,1-8.10452,1.9606V664.12731Z"/>
          <path class="cls-56" d="M537.0302,664.12731v83.89716a14.74889,14.74889,0,0,1-6.69962-1.9606l-195.29521-112.782a4.87969,4.87969,0,0,1-2.45334-4.38252h-.01049V618.48815Z"/>
        </g>
        <g>
          <path class="cls-57" d="M327.19559,605.40624l.00544,9.33682a5.19073,5.19073,0,0,0,2.61467,4.6264l199.95347,115.504a15.72669,15.72669,0,0,0,15.73075.00128L627.85135,687.322a5.189,5.189,0,0,0,2.61754-4.48722l.00327-9.26809Z"/>
          <path class="cls-58" d="M627.85131,667.47709,427.87019,552.00067a15.72678,15.72678,0,0,0-15.7269-.00095L329.817,599.52466a5.24227,5.24227,0,0,0-.00129,9.07942l199.95342,115.504a15.72678,15.72678,0,0,0,15.73077.00128l82.35142-47.55272A5.24226,5.24226,0,0,0,627.85131,667.47709Z"/>
        </g>
      </g>
    </g>
  </g>
  <g>
    <g>
      <path class="cls-59" d="M281.5227,516.372a115.63775,115.63775,0,0,1,.49054,13.91489c-.331,5.234-4.22056,11.48786-4.22056,11.48786l-3.41479-.31765L273.1013,519.755l2.64131-5.8285Z"/>
      <path class="cls-59" d="M272.55968,458.82355l-12.47545-37.22884h18.42124s13.23858,34.55389,13.49,44.63891C292.328,479.57251,281.5227,516.372,281.5227,516.372s-11.23156,1.16486-10.55071-3.64272l3.25408-41.68621Z"/>
      <path class="cls-60" d="M272.55968,458.82355l-18.00345-53.7253s14.387-1.90174,24.31329,13.99136c7.86275,12.58914,13.48937,37.17011,13.48937,37.17011,2.87233,10.02138-9.34366,14.51245-18.13282,14.78345Z"/>
      <path class="cls-21" d="M277.18634,434.84077l4.02131,35.48768c-1.465.25171-5.61286.67248-6.98158.71472l-1.66638-12.21949-1.775-5.29712Z"/>
      <g>
        <path class="cls-61" d="M280.15721,701.40921s3.14317,4.75439,1.36962,9.64364c-1.383,3.81263-8.7726,5.6691-12.43759,2.14317-3.17043-3.05013-2.744-3.49641-5.84692-7.957-3.24052-4.65833-8.99327-10.87065-9.31915-15.51064-.81266-11.571,14.29774-5.81144,14.29774-5.81144Z"/>
        <path class="cls-59" d="M280.98015,693.85072s1.45443,9.79534.2093,13.6552-8.43522,5.216-12.10021,1.6901c-3.17043-3.05013-2.49772-4.02246-5.60069-8.48306-3.24051-4.65833-7.85657-9.452-8.01532-12.54085-.42631-8.29481,12.74768-8.25519,12.74768-8.25519Z"/>
        <path class="cls-61" d="M262.46785,700.38794s-.50213-5.51064.494-7.94512,8.72732-10.77829,8.72732-10.77829l-4.80473-1.03721s-7.91365-1.563-11.26471,3.73492c-1.62748,2.573.455,6.58422.455,6.58422Z"/>
        <path class="cls-59" d="M279.17254,528.89316l.17995,80.11713c2.06284,15.47931.46808,79.10639.46808,79.10639l1.15958,5.734c-.69392,7.13971-15.117-.41489-15.117-.41489l1.02127-7.02128c-10.01185-51.9988-24.82365-90.29787-24.82365-151.2651Z"/>
        <path class="cls-61" d="M281.95465,528.643q1.66923,36.111-.26131,72.58081l1.034,70.41154c.02713,12.42553-20.20527,11.62461-22.66272,2.20972,0,0-12.49938-53.68586-14.92491-79.98373,0,0-2.17779-21.32068-3.079-58.71191Z"/>
        <path class="cls-61" d="M236.641,725.70573c1.0543.63308,3.02176,4.90659,2.04211,7.8267s-3.80164,4.09077-7.642,4.09077-7.45327-1.28481-13.94771-1.87356c-8.73593-.792-13.57447.08511-19.16514-2.7385-7.18495-3.62879-3.80364-11.70071,2.13278-12.24675,1.79753-.16533,7.2133-.21469,7.2133-.21469l13.89526-3.59423S235.58666,725.07266,236.641,725.70573Z"/>
        <path class="cls-59" d="M235.73321,715.23594l-13.91264.07223-15.117,3.71123s-4.907.32739-6.59668.48267c-5.58057.51342-7.68607,6.43728-1.07474,10.117,6.51074,3.624,10.61523,2.27979,18.82715,3.02441,6.105.55323,8.6897,1.311,12.2998,1.311s6.2627-1.1001,7.1836-3.84521S235.73321,715.23594,235.73321,715.23594Z"/>
        <path class="cls-59" d="M208.15883,541.96231c0,49.35815,13.66174,173.34586,13.66174,173.34586l13.91264-.07223-.50877-3.07858s6.83631-43.35983,6.15345-80.89175L248.97,554.045Z"/>
        <path class="cls-62" d="M281.95463,528.6428a266.97661,266.97661,0,0,0-6.10865-42.20744l-63.74242,11.54787s-3.94473,19.60137-3.94473,48.596c0,22.62236,1.98729,71.36141,2.75324,83.48907s5.8714,64.76012,5.8714,64.76012c.82978,9.98937,23.29366,10.72182,24.60757.63413,0,0,4.47675-40.45229,4.56907-66.82734l7.07736-72.94419Z"/>
        <path class="cls-59" d="M234.0857,408.71839c-.57959,9.36875,17.29541,4.43454,17.13312.41779l-.732-15.45758-15.76118-.64311Z"/>
        <g>
          <path class="cls-59" d="M237.18933,404.31489c7.79153-1.23226,12.14878-5.07578,13.085-12.26l1.9988-15.53547c.9814-6.24455-4.2337-12.58847-11.56752-13.0942-6.40966-.442-13.39057,4.3984-13.88365,11.49868a143.86285,143.86285,0,0,0,.03825,15.77424C227.39021,397.703,230.10851,405.43475,237.18933,404.31489Z"/>
          <path class="cls-63" d="M223.59727,381.58576a68.877,68.877,0,0,0,3.78678,5.927l2.87741,4.01658s1.1461,6.36265,3.20693,9.20113c2.6755,3.6851,7.91266,4.6495,13.375,3.35688,6.87111-1.626,9.038-7.44808,7.88406-13.24393,0,0,7.27275-8.99149,4.898-18.66582-1.736-7.0722-9.01473-11.84862-18.1145-12.49324-7.3733-.52231-15.2308,1.63213-18.1154,8.80429C220.72274,375.13426,222.69531,379.75,223.59727,381.58576Z"/>
          <path class="cls-59" d="M228.80284,393.51847c-2.53613.20476-4.957-3.164-5.1893-6.04191s2.06385-5.501,4.34786-4.37981C230.82857,384.50427,231.339,393.3137,228.80284,393.51847Z"/>
        </g>
        <path class="cls-64" d="M248.00266,405.22394c22.16857-3.92839,31.36173,12.2553,28.77011,32.08508l-.92453,31.27s.68085,5.44681,2.5532,18.46809c.89873,10.45114-3.98454,16.46889-16.249,20.64362-17.199,5.85442-52.51694,2.84574-50.985-11.40958,1.25121-12.12766,3.28208-25.238,3.28208-25.238-2.068-10.78723-3.58155-20.76121-4.53189-45.22337C217.1516,416.075,230.23256,408.37291,248.00266,405.22394Z"/>
        <path class="cls-21" d="M214.44944,471.043l-.00067-.00342c-.71094-3.70874-1.35639-7.32178-1.93591-11.46069l12.08907-13.28112Z"/>
        <path class="cls-59" d="M138.56093,455.67311c-1.95218-.82336-3.43428.90157-2.41612,2.34743l5.281,7.84727c1.62406,2.48386,9.4757,5.0406,12.04564,5.46407l8.03525.88054s5.41188-5.49664,2.22936-10.058l-5.32039-7.212a5.94608,5.94608,0,0,0-2.09155-1.9999l-4.63636-2.63827a1.86608,1.86608,0,0,0-2.16908,3.01105l3.68264,3.84229-2.58559.74608-6.53086-.20114Z"/>
        <path class="cls-59" d="M162.74186,462.83429l25.24893.55319L210.061,429.25982l12.03833,18.90374s-16.08959,23.9948-28.22982,29.41454c-7.14894,3.19149-33.57035-5.66413-33.57035-5.66413Z"/>
        <path class="cls-65" d="M190.42271,456.89812c7.03195-11.58246,13.53192-23.10638,19.49485-31.07834,7.87237-11.532,22.69664,6.75919,13.0614,23.95718a124.183,124.183,0,0,1-15.67967,21.73818C201.25308,478.00365,185.32467,464.19727,190.42271,456.89812Z"/>
      </g>
    </g>
    <path class="cls-61" d="M218.17458,716.23005a12.12306,12.12306,0,0,0-3.14349,5.61729,11.952,11.952,0,0,0,2.40495,10.88608l5.90092.5479-17.52017-.404-5.20526-1.14169c-7.22573-.4104-11.18333-12.0755,3.8805-13.767C208.09057,717.56455,218.17458,716.23005,218.17458,716.23005Z"/>
  </g>
  <g>
    <g>
      <polygon class="cls-66" points="669.086 270.425 625.204 245.048 625.204 311.595 669.086 336.972 669.086 270.425"/>
      <polygon class="cls-67" points="669.086 273.893 634.698 254.007 634.698 306.156 669.086 326.042 669.086 273.893"/>
      <path class="cls-68" d="M629.13915,251.86946l36.012,20.82533v57.45572l-36.012-20.82534V251.86946M625.204,245.048V311.5953l43.88233,25.37664V270.42466L625.204,245.048Z"/>
      <polygon class="cls-69" points="676.192 332.881 676.192 266.334 669.086 270.425 669.086 336.972 676.192 332.881"/>
      <polygon class="cls-70" points="676.192 266.334 632.295 240.966 625.204 245.048 669.086 270.425 676.192 266.334"/>
    </g>
    <g>
      <polygon class="cls-71" points="726.978 331.112 683.095 305.735 683.095 372.282 726.978 397.659 726.978 331.112"/>
      <polygon class="cls-72" points="726.978 334.58 692.59 314.694 692.59 366.843 726.978 386.729 726.978 334.58"/>
      <path class="cls-73" d="M687.03054,312.55644l36.012,20.82532v57.45572l-36.012-20.82534v-57.4557m-3.93515-6.82143v66.54726l43.88234,25.37664V331.11163L683.09539,305.735Z"/>
      <polygon class="cls-74" points="734.083 393.568 734.083 327.021 726.978 331.112 726.978 397.659 734.083 393.568"/>
      <polygon class="cls-75" points="734.083 327.021 690.186 301.653 683.095 305.735 726.978 331.112 734.083 327.021"/>
    </g>
    <g>
      <polygon class="cls-76" points="784.869 321.066 740.987 295.69 740.987 362.237 784.869 387.614 784.869 321.066"/>
      <polygon class="cls-77" points="784.869 324.534 750.481 304.648 750.481 356.797 784.869 376.684 784.869 324.534"/>
      <path class="cls-78" d="M744.92193,302.51108l36.012,20.82532v57.45573l-36.012-20.82534V302.51108m-3.93515-6.82142v66.54725l43.88234,25.37664V321.06628l-43.88234-25.37662Z"/>
      <polygon class="cls-79" points="791.975 383.523 791.975 316.976 784.869 321.066 784.869 387.614 791.975 383.523"/>
      <polygon class="cls-80" points="791.975 316.976 748.078 291.608 740.987 295.69 784.869 321.066 791.975 316.976"/>
    </g>
  </g>
  <g>
    <g>
      <path class="cls-81" d="M828.72658,654.36768l55.451.13226-7.01875,43.4045c-.59474,6.30027-9.6457,11.30754-20.75636,11.30754-11.11121,0-20.16162-5.00727-20.75637-11.30754Z"/>
      <ellipse class="cls-28" cx="856.46648" cy="652.41685" rx="27.94426" ry="16.05992"/>
      <path class="cls-82" d="M832.22217,660.39583c4.82258,4.84517,13.885,8.07533,24.24871,8.07533s19.42559-3.23016,24.24871-8.07533c-3.07339-6.01166-12.76346-10.4083-24.24871-10.4083S835.29557,654.38417,832.22217,660.39583Z"/>
      <path class="cls-31" d="M856.46642,640.1747c14.218,0,24.12661,6.45181,24.12661,12.24214,0,5.79039-9.90858,12.24221-24.12661,12.24221s-24.1266-6.45182-24.1266-12.24221c0-5.79033,9.90858-12.24214,24.1266-12.24214m0-3.81775c-15.43317,0-27.94428,7.19023-27.94428,16.05989s12.51111,16.06,27.94428,16.06,27.94429-7.19029,27.94429-16.06S871.8996,636.357,856.46642,636.357Z"/>
    </g>
    <path class="cls-83" d="M865.4642,615.06314c13.1008-2.01665,38.88564-10.51732,33.48925-20.24212S868.46132,596.32947,865.4642,615.06314Z"/>
    <path class="cls-82" d="M859.7141,656.00981a1.03143,1.03143,0,0,0,1.03186-1.03153c0-27.84569,5.067-45.9994,16.9433-60.70212a1.03178,1.03178,0,0,0-1.60556-1.29631c-12.197,15.10024-17.40146,33.64136-17.40146,61.99843A1.03143,1.03143,0,0,0,859.7141,656.00981Z"/>
    <path class="cls-82" d="M855.0864,656.00981a1.03143,1.03143,0,0,0,1.03186-1.03153c0-26.22665,0-62.146-13.174-78.45561a1.03178,1.03178,0,0,0-1.60556,1.29631c12.71581,15.743,12.71581,51.23988,12.71581,77.1593A1.03143,1.03143,0,0,0,855.0864,656.00981Z"/>
    <path class="cls-82" d="M854.6013,627.8562a1.03186,1.03186,0,0,0,1.02747-.9473c1.71135-20.97405,6.25718-35.2294,14.30622-44.86143a1.03174,1.03174,0,1,0-1.58333-1.32325c-8.33572,9.975-13.0318,24.59751-14.77986,46.01624a1.03177,1.03177,0,0,0,.9446,1.11237C854.545,627.85553,854.57333,627.8562,854.6013,627.8562Z"/>
    <path class="cls-84" d="M859.11632,600.69766c12.41352-9.28868,32.56114-33.74365,21.641-40.81311S851.90418,579.71159,859.11632,600.69766Z"/>
    <path class="cls-85" d="M854.60025,637.69835c-10.38639-1.3708-30.34428-9.12322-26.24545-16.89938S851.91347,622.94617,854.60025,637.69835Z"/>
    <path class="cls-82" d="M855.04429,644.25814c.02459,0,.04952-.00067.07445-.0027a1.0313,1.0313,0,0,0,.95572-1.10226c-1.28418-17.96842-9.29178-36.9367-22.112-38.42435a1.03166,1.03166,0,1,0-.23784,2.04956c11.70518,1.3583,19.068,19.40083,20.29154,36.52167A1.03145,1.03145,0,0,0,855.04429,644.25814Z"/>
    <path class="cls-82" d="M860.149,642.61013a1.03255,1.03255,0,0,0,1.02377-.915c1.3364-11.66475,12.07137-19.94994,17.52139-21.79267a1.032,1.032,0,0,0-.661-1.95524c-5.88257,1.9896-17.46883,10.929-18.91067,23.51344a1.0315,1.0315,0,0,0,.90755,1.142A1.01435,1.01435,0,0,0,860.149,642.61013Z"/>
    <path class="cls-86" d="M865.4642,628.37456c10.96147-.11708,33.43359-3.7067,30.1543-12.3S870.11131,613.38862,865.4642,628.37456Z"/>
    <path class="cls-87" d="M869.41534,604.72568c9.23059-7.47943,24.46608-26.44254,15.89544-31.53289S863.27252,588.86959,869.41534,604.72568Z"/>
    <path class="cls-88" d="M848.61392,617.30812c-17.08454-4.57708-48.78844-21.93977-40.21852-34.05555S847.35843,592.024,848.61392,617.30812Z"/>
    <path class="cls-89" d="M850.97363,596.81146c-11.61919-8.69432-31.08358-29.13672-20.86223-35.75382S857.72428,577.16825,850.97363,596.81146Z"/>
  </g>
</svg>
