<svg id="Layer_1" data-name="Layer 1" xmlns="http://www.w3.org/2000/svg" xmlns:xlink="http://www.w3.org/1999/xlink" viewBox="0 0 1000 1000">
  <defs>
    <style>
      .cls-1 {
        fill: url(#linear-gradient);
      }

      .cls-2 {
        fill: url(#linear-gradient-2);
      }

      .cls-3 {
        fill: #6b483c;
      }

      .cls-4 {
        fill: url(#linear-gradient-3);
      }

      .cls-5 {
        fill: #366d26;
      }

      .cls-6 {
        fill: url(#linear-gradient-4);
      }

      .cls-7 {
        fill: url(#linear-gradient-5);
      }

      .cls-8 {
        fill: #87a1af;
      }

      .cls-9 {
        fill: #b8cbd8;
      }

      .cls-10 {
        fill: #9bb0c4;
      }

      .cls-11 {
        fill: #394651;
      }

      .cls-12 {
        fill: #f2f2f2;
      }

      .cls-13 {
        fill: #49555e;
      }

      .cls-14 {
        fill: #444;
      }

      .cls-15 {
        fill: #a0674a;
      }

      .cls-16 {
        fill: url(#linear-gradient-6);
      }

      .cls-17 {
        fill: #d8d8d8;
      }

      .cls-18 {
        fill: #cecece;
      }

      .cls-19 {
        fill: #fff;
      }

      .cls-20 {
        fill: url(#linear-gradient-7);
      }

      .cls-21 {
        fill: #bf7d51;
      }

      .cls-22 {
        fill: #e48f7c;
      }

      .cls-23 {
        fill: url(#linear-gradient-8);
      }

      .cls-24 {
        fill: #303d49;
      }

      .cls-25 {
        fill: #ffbda3;
      }

      .cls-26 {
        fill: #27343d;
      }

      .cls-27 {
        fill: url(#linear-gradient-9);
      }

      .cls-28 {
        fill: #ffcd5c;
      }

      .cls-29 {
        fill: url(#linear-gradient-10);
      }

      .cls-30 {
        fill: url(#linear-gradient-11);
      }

      .cls-31 {
        fill: #dd7b19;
        opacity: 0.5;
      }

      .cls-32 {
        fill: url(#linear-gradient-12);
      }

      .cls-33 {
        fill: #ef8e73;
      }

      .cls-34 {
        fill: #e9e9e9;
      }

      .cls-35 {
        fill: #fbfbfb;
      }

      .cls-36 {
        fill: #5b3c39;
      }

      .cls-37 {
        fill: url(#linear-gradient-13);
      }

      .cls-38 {
        fill: #455260;
      }

      .cls-39 {
        fill: #bcd0e2;
      }

      .cls-40 {
        fill: #323f4c;
      }

      .cls-41 {
        fill: #516272;
      }
    </style>
    <linearGradient id="linear-gradient" x1="85.34704" y1="420.95711" x2="926.7192" y2="420.95711" gradientUnits="userSpaceOnUse">
      <stop offset="0" stop-color="#e6f4ff"/>
      <stop offset="1" stop-color="#c0e3ff"/>
    </linearGradient>
    <linearGradient id="linear-gradient-2" x1="85.37673" y1="514.30577" x2="602.56109" y2="514.30577" gradientUnits="userSpaceOnUse">
      <stop offset="0.00005" stop-color="#9dcc52"/>
      <stop offset="1" stop-color="#649e3f"/>
    </linearGradient>
    <linearGradient id="linear-gradient-3" x1="314.5191" y1="219.11852" x2="314.5191" y2="426.34894" gradientUnits="userSpaceOnUse">
      <stop offset="0" stop-color="#77bf49"/>
      <stop offset="0.99995" stop-color="#366d26"/>
    </linearGradient>
    <linearGradient id="linear-gradient-4" x1="73.34543" y1="153.62865" x2="221.66003" y2="493.38481" xlink:href="#linear-gradient-3"/>
    <linearGradient id="linear-gradient-5" x1="85.37673" y1="665.91293" x2="926.7192" y2="665.91293" xlink:href="#linear-gradient-2"/>
    <linearGradient id="linear-gradient-6" x1="199.12766" y1="401.23885" x2="1250.9077" y2="401.23885" gradientUnits="userSpaceOnUse">
      <stop offset="0.00005" stop-color="#e6ac72"/>
      <stop offset="1" stop-color="#b3703f"/>
    </linearGradient>
    <linearGradient id="linear-gradient-7" x1="170.53191" y1="544.23063" x2="841.15924" y2="544.23063" xlink:href="#linear-gradient-6"/>
    <linearGradient id="linear-gradient-8" x1="614.80722" y1="363.04494" x2="694.5909" y2="480.53732" gradientUnits="userSpaceOnUse">
      <stop offset="0.00005" stop-color="#ffcb48"/>
      <stop offset="1" stop-color="#e68e2b"/>
    </linearGradient>
    <linearGradient id="linear-gradient-9" x1="632.35297" y1="351.11215" x2="709.56806" y2="464.82193" xlink:href="#linear-gradient-8"/>
    <linearGradient id="linear-gradient-10" x1="639.00335" y1="279.9816" x2="670.3225" y2="352.15181" gradientUnits="userSpaceOnUse">
      <stop offset="0" stop-color="#cebcb3"/>
      <stop offset="1" stop-color="#bfa090"/>
    </linearGradient>
    <linearGradient id="linear-gradient-11" x1="660.12855" y1="270.81406" x2="691.44769" y2="342.98428" xlink:href="#linear-gradient-10"/>
    <linearGradient id="linear-gradient-12" x1="640.73303" y1="309.18819" x2="752.00435" y2="473.05044" xlink:href="#linear-gradient-8"/>
    <linearGradient id="linear-gradient-13" x1="280.82979" y1="544.51315" x2="946.24851" y2="544.51315" xlink:href="#linear-gradient-6"/>
  </defs>
  <path class="cls-1" d="M85.3763,512.7967s-2.42713-89.31382,36.92931-127.58839,101.191-29.83446,150.323-53.496,68.673-70.454,112.94077-112.54122,137.159-27.051,188.88841,3.59733S659.04237,296.631,709.319,324.07086,833.84975,358.2208,862.216,367.47715,926.7192,396.71887,926.7192,436.591V648.65747l-841.3429-3.677Z"/>
  <path class="cls-2" d="M85.37673,631.38824c0-58.422,53.3732-112.67951,106.51646-141.91955s101.21157-50.56714,135.85069-76.63038,69.5608-68.2392,117.15563-93.95547,111.54713-17.99148,111.54713-17.99148l46.11445,25.98769v91.81644L175.99123,728.80822l-90.6145-62.13307Z"/>
  <g>
    <path class="cls-3" d="M320.68737,456.13045V381.014h-12.3367v75.14035h.00563a3.10681,3.10681,0,0,0,1.8153,2.4911,9.6434,9.6434,0,0,0,8.725.01569A3.02659,3.02659,0,0,0,320.68737,456.13045Z"/>
    <path class="cls-4" d="M261.54275,355.88328c0-7.63483,2.4907-14.4736,6.43072-19.14837a37.15756,37.15756,0,0,1-2.77653-10.67662c-1.16349-10.43154,1.9801-20.00572,7.594-25.70119-.59184-6.63456,1.531-12.63629,5.61385-15.8413a33.70036,33.70036,0,0,1-.34688-4.81768c0-13.065,7.30838-23.84357,16.719-25.31344-.02043-.42862-.04087-.83692-.04087-1.26566,0-17.94389,8.47212-32.47866,18.90341-32.47866,9.16588,0,16.8007,11.20728,18.5361,26.04831,3.77654,1.87806,6.71629,6.757,7.71656,12.88125,5.30759,3.59276,10.064,10.207,12.65659,18.4951,2.24574,7.22652,2.42915,14.351.91853,20.02615,3.61333,2.61293,6.08334,7.77774,6.08334,13.69774a19.33447,19.33447,0,0,1-2.30654,9.30879v.02043c8.3084,4.59316,12.37077,17.49483,9.14544,31.09052a38.54978,38.54978,0,0,1-6.20594,13.73872c5.16481,6.83865,6.10377,18.02562,1.65365,28.70212a33.61871,33.61871,0,0,1-13.12632,15.882c-4.69508,8.186-10.69693,13.39159-17.49471,16.33122-4.75663,7.839-12.43233,12.28928-19.72,10.55414-4.75638-1.12287-8.431-4.69533-10.65631-9.53344a34.05523,34.05523,0,0,1-13.63643-8.65553c-8.18605-3.6745-15.47374-12.1055-18.94428-23.23117a40.67269,40.67269,0,0,1-.9594-21.80216A30.31017,30.31017,0,0,1,261.54275,355.88328Z"/>
    <path class="cls-5" d="M366.38894,352.21128a38.43549,38.43549,0,0,1-6.202,13.73638c5.16838,6.84533,6.11026,18.032,1.65381,28.6904a33.55707,33.55707,0,0,1-13.13912,15.89562c-4.68609,8.17753-10.6811,13.3919-17.48059,16.33207-4.75479,7.83305-12.42718,12.28935-19.73167,10.54357-4.75508-1.12554-8.43032-4.6861-10.6584-9.53286a33.79275,33.79275,0,0,1-13.62169-8.66c17.36423,2.78811,27.64156-3.35657,28.162-21.79909,6.68992,3.85669,14.021-2.20364,9.81783-10.51216,14.36885.782,19.74494-17.98549,10.41941-27.45817,15.77685-3.62545,18.70927-24.15238,5.03028-30.23187,9.889-4.94862,14.60759-15.52265,12.81793-31.12267,3.62925,2.61868,6.087,7.78707,6.087,13.69053a19.45118,19.45118,0,0,1-2.29706,9.32606c6.3859,3.51443,10.24508,11.94474,10.24508,21.82208A39.931,39.931,0,0,1,366.38894,352.21128Z"/>
  </g>
  <g>
    <path class="cls-3" d="M183.04451,543.83888V378.23133H155.84607v165.6603h.01241c.04079,1.98689,1.36892,3.97112,4.00215,5.49209,5.3285,3.07608,13.941,3.0916,19.23582.03458C181.75805,547.88136,183.07022,545.8599,183.04451,543.83888Z"/>
    <path class="cls-6" d="M256.61257,315.83139a135.09388,135.09388,0,0,0,.29468-18.03176c-1.695-32.88574-14.58838-59.79625-30.40339-66.415.143-.55281.35989-1.07026.46833-1.63761,2.46427-12.836-4.927-24.43092-16.50887-25.89762-.09823-.01218-.1941.00668-.29153-.00432-4.37848-32.84841-20.92743-50.55052-40.72646-50.55052-19.38726,0-35.65175,16.9831-40.43256,48.529-17.25695,9.1974-32.36082,36.6953-36.91689,70.79117-.61135,4.57257-.96025,9.05949-1.15591,13.47254a25.90482,25.90482,0,0,0-14.97735,18.96607,23.85645,23.85645,0,0,0,2.036,15.327c-7.41324,8.84026-12.06046,21.3058-12.06046,35.16024A59.46128,59.46128,0,0,0,68.338,372.24594c-7.71027,11.33242-10.9737,27.29163-7.77078,44.29792,3.7907,20.12788,15.69322,36.62182,30.31617,44.69317,9.21194,16.44915,22.06448,25.84182,37.22728,30.95109,9.63234,15.38008,24.54762,25.29216,41.33466,25.29216s31.70311-9.91208,41.33624-25.29216c15.11879-5.09512,27.94462-14.44811,37.15106-30.812,12.36456-4.77413,22.50846-16.56663,25.34834-31.35617a38.66712,38.66712,0,0,0-3.93686-26.34317,70.55449,70.55449,0,0,0,11.24951-26.7561C285.54181,351.14564,275.30362,327.32607,256.61257,315.83139Z"/>
    <path class="cls-5" d="M280.58105,376.94189a69.31381,69.31381,0,0,1-11.26523,26.71445,38.65926,38.65926,0,0,1,3.99029,26.39306c-2.89646,14.74122-13.00342,26.52155-25.36248,31.3495-9.20487,16.35054-22.015,25.68467-37.1432,30.77-9.65592,15.38518-24.59083,25.29845-41.32681,25.29845-16.802,0-31.73611-9.91327-41.392-25.29845-15.12744-5.0853-28.002-14.48387-37.20764-30.96327,38.21977,10.25458,63.52409-6.35222,64.95189-46.60581,30.52366,16.31925,65.30721-8.33414,57.09938-44.35292,27.65662-8.35733,33.95693-49.72024,9.84922-68.87892,20.81113-16.02482,26.98448-46.72121,3.73255-69.97315,15.83623,6.63058,28.71078,33.53835,30.38453,66.43273a139.49224,139.49224,0,0,1-.25774,18.02429C275.30205,327.31036,285.53788,351.12835,280.58105,376.94189Z"/>
  </g>
  <path class="cls-7" d="M94.52982,681.77854,478.60008,903.51183a54.91669,54.91669,0,0,0,54.91627-.0008l384.05023-221.7366a18.30558,18.30558,0,0,0,.00022-31.70587L533.49971,428.31521a54.91669,54.91669,0,0,0-54.92014.00068L94.52874,650.07264A18.30556,18.30556,0,0,0,94.52982,681.77854Z"/>
  <path class="cls-8" d="M917.5673,681.7739a18.30564,18.30564,0,0,0-.00022-31.70537L797.19355,580.567,614.95326,475.34477,175.99134,728.80806,478.60113,903.51217a54.91583,54.91583,0,0,0,54.914-.00045Z"/>
  <polygon class="cls-8" points="926.718 665.913 926.718 644.776 900.645 663.997 926.718 665.913"/>
  <polygon class="cls-8" points="175.991 728.808 147.267 712.225 147.267 688.022 201.47 707.93 201.47 722.185 175.991 728.808"/>
  <path class="cls-9" d="M917.5673,659.80722a18.30564,18.30564,0,0,0-.00022-31.70537l-120.37353-69.5015L614.95326,453.37808,175.99134,706.84138l302.60979,174.7041a54.91583,54.91583,0,0,0,54.914-.00044Z"/>
  <path class="cls-10" d="M748.25258,757.56347,425.10487,571.15891a9.05988,9.05988,0,0,0-9.05894,0L282.52856,648.25879a3.019,3.019,0,0,0,0,5.22928l323.13829,186.399Z"/>
  <path class="cls-10" d="M817.73812,685.26053a9.71092,9.71092,0,0,0-.00329-16.82162l-257.335-148.44112a7.62339,7.62339,0,0,0-7.62259,0L440.42984,584.87306a2.54032,2.54032,0,0,0,0,4.40014L712.33275,746.11759Z"/>
  <g>
    <path class="cls-11" d="M741.79908,719.49846v-72.635h-9.58446v72.65355h.00438a2.4137,2.4137,0,0,0,1.41031,1.93536,7.492,7.492,0,0,0,6.77851.01218A2.35136,2.35136,0,0,0,741.79908,719.49846Z"/>
    <path class="cls-11" d="M815.88772,676.43952V603.80457h-9.58445v72.65354h.00437a2.4137,2.4137,0,0,0,1.41031,1.93536,7.492,7.492,0,0,0,6.77852.01219A2.35136,2.35136,0,0,0,815.88772,676.43952Z"/>
  </g>
  <polygon class="cls-12" points="202.495 549.781 191.512 530.757 586.291 302.874 921.849 496.6 910.866 515.624 586.291 328.239 202.495 549.781"/>
  <path class="cls-13" d="M821.6451,456.24316v-21.501h9.58446v21.5196h-.00438a2.41367,2.41367,0,0,1-1.41031,1.93535,7.492,7.492,0,0,1-6.77851.01219A2.35136,2.35136,0,0,1,821.6451,456.24316Z"/>
  <path class="cls-14" d="M701.6917,386.97249v-21.501h9.58445v21.5196h-.00437a2.41368,2.41368,0,0,1-1.41032,1.93535,7.492,7.492,0,0,1-6.77851.01219A2.35136,2.35136,0,0,1,701.6917,386.97249Z"/>
  <path class="cls-13" d="M591.08244,317.70181v-21.501H581.498V317.7204h.00438a2.4137,2.4137,0,0,0,1.41031,1.93536,7.492,7.492,0,0,0,6.77851.01218A2.35135,2.35135,0,0,0,591.08244,317.70181Z"/>
  <path class="cls-13" d="M231.22223,525.51383v-21.501h-9.58446v21.51959h.00438a2.4137,2.4137,0,0,0,1.41031,1.93536,7.492,7.492,0,0,0,6.77851.01218A2.35136,2.35136,0,0,0,231.22223,525.51383Z"/>
  <path class="cls-13" d="M351.17563,456.24316v-21.501h-9.58445v21.5196h.00437a2.41369,2.41369,0,0,0,1.41032,1.93535,7.492,7.492,0,0,0,6.77851.01219A2.35133,2.35133,0,0,0,351.17563,456.24316Z"/>
  <path class="cls-13" d="M471.129,386.97249v-21.501h-9.58446v21.5196h.00437a2.41372,2.41372,0,0,0,1.41032,1.93535,7.492,7.492,0,0,0,6.77851.01219A2.35137,2.35137,0,0,0,471.129,386.97249Z"/>
  <path class="cls-15" d="M191.37952,536.42315l-8.23572-14.269L581.03935,292.46923a10.50194,10.50194,0,0,1,10.50108.00029L882.90186,460.67939l-8.23751,14.26726L586.29,308.46072Z"/>
  <path class="cls-16" d="M191.37952,523.88189l-8.23572-14.269L580.79867,280.0669a10.98334,10.98334,0,0,1,10.98243.0003L882.90186,448.13813l-8.23751,14.26726L586.29,295.91946Z"/>
  <polygon class="cls-17" points="175.991 706.841 175.991 565.083 586.29 328.239 586.287 469.976 175.991 706.841"/>
  <polygon class="cls-17" points="878.139 496.73 586.29 328.239 586.294 469.976 877.606 638.178 878.139 496.73"/>
  <g>
    <polygon class="cls-18" points="204.715 487.835 204.709 690.226 175.988 706.841 175.988 487.835 204.715 487.835"/>
    <polygon class="cls-12" points="175.988 487.835 175.988 706.841 170.186 703.511 149.168 691.373 147.274 688.022 147.267 688.022 147.267 487.835 175.988 487.835"/>
    <path class="cls-19" d="M202.81345,491.06646,181.58972,503.32a11.4022,11.4022,0,0,1-11.40218,0l-21.02009-12.136a3.80072,3.80072,0,0,1,0-6.58305l21.22373-12.25353a11.4022,11.4022,0,0,1,11.40218,0l21.02009,12.136A3.80072,3.80072,0,0,1,202.81345,491.06646Z"/>
  </g>
  <g>
    <g>
      <path class="cls-20" d="M832.31072,598.05477,742.181,659.44858,439.15952,484.62487c.21879-.15622.43757-.2969.6719-.43748l93.86431-54.19033a7.37026,7.37026,0,0,1,7.3597,0Z"/>
      <path class="cls-21" d="M742.181,659.44858l-11.68808,7.64095L436.87812,497.68812a3.06947,3.06947,0,0,1-1.57813-2.672v-2.95331a9.07591,9.07591,0,0,1,3.85953-7.4379Z"/>
      <path class="cls-15" d="M833.56346,605.52566a6.3874,6.3874,0,0,1-3.1942,5.53194L733.3851,667.0245a3.03251,3.03251,0,0,1-4.54793-2.62671v-2.96363a9.08407,9.08407,0,0,1,4.54451-7.86847l96.23-55.54934a2.63449,2.63449,0,0,1,3.95176,2.28152Z"/>
    </g>
    <polygon class="cls-15" points="800.215 614.977 795.637 617.634 502.147 448.201 506.741 445.56 800.215 614.977"/>
    <polygon class="cls-15" points="768.667 633.197 764.073 635.854 470.599 466.421 475.177 463.78 768.667 633.197"/>
  </g>
  <g>
    <g>
      <g>
        <path class="cls-22" d="M656.79077,342.94347s-13.81318-1.50438-28.5,16.49607c-10.55818,12.9404-33.03731,42.161-33.03731,42.161l-12.96522,10.37217s-6.43034,4.81962-2.5687,13.01868,12.83661,9.5195,24.022,2.70075c4.18092-2.54874,25.541-12.44607,33.865-26.37972Z"/>
        <path class="cls-23" d="M657.96673,341.33625s-16.1416-2.70629-30.82841,15.29416c-10.55817,12.9404-36.44446,41.30365-36.44446,41.30365-7.76316,13.13188,14.37864,39.36624,27.78315,25.48485l20.04382-18.909Z"/>
        <path class="cls-24" d="M607.294,645.78442s11.34326,19.42563,7.74348,25.39664-14.19131,7.69442-23.80976,11.20474-17.79514,9.07478-34.00587,6.88952S542,674.59043,549.69518,670.91462l17.716-9.45876,17.302-13.90032Z"/>
        <path class="cls-25" d="M651.51943,551.15992l-22.50835-69.84731-63.52958,29.868c-24.41783,12.9172-25.73837,30.34821-18.63151,47.34706l41.10455,85.42639L566.682,662.46555c-2.92918,2.80913,5.25026,7.9094,11.90879,6.33855,6.81875-1.60865,31.06729-11.97318,31.00916-19.16477l-5.36683-8.99857-15.41421-77.93538Z"/>
        <path class="cls-26" d="M603.024,616.11477l-14.20507-53.40939,62.70054-11.54546L624.70124,472.5253,561.78992,504.285c-24.41783,12.9172-24.37674,33.89989-18.69545,54.7084L572.258,629.64676C578.8963,641.64668,606.60343,626.8052,603.024,616.11477Z"/>
        <path class="cls-24" d="M636.69417,677.08743c2.73738,4.18853,4.32533,15.64532,3.27024,20.7429-1.32227,6.38838-5.54246,10.97529-6.47613,15.22763s-1.98149,13.05829-9.89278,18.41869c-16.04681,10.87275-33.64753,4.11458-26.51728-9.49114l8.14761-15.59322,12.49942-29.78143S632.70856,670.989,636.69417,677.08743Z"/>
        <path class="cls-25" d="M631.88321,468.95243l-8.03246,14.78627,9.2119,43.34065L592.41472,542.8232c-14.63552,5.66867-21.6134,23.35094-16.6032,38.22474l41.09868,96.75978c-.14483,4.26085-10.27614,30.68438-10.27614,30.68438-2.88115,6.24249,11.206,8.97959,15.3902,2.30484,0,0,15.52225-25.89436,13.72153-31.22451l-1.45259-5.60625c-3.84154-36.4947-1.06961-53.20542-12.9172-91.813l60.69644-24.20174L713.7652,517.8073l2.17765-36.3437Z"/>
        <path class="cls-24" d="M716.83392,519.91983c-.474,23.91188-14.16119,41.489-34.76148,48.40381s-55.68053,14.41442-55.68053,14.41442l10.33418,67.71713c2.944,15.666-31.46736,23.899-37.4611,9.41588L580.03291,597.9448l-4.73137-13.78363a37.13288,37.13288,0,0,1,14.11033-42.67256L627.4,515.41891l-8.16328-37.94244,8.70836-16.12073,88.539,27.55418C716.81133,495.20679,717.12726,505.50944,716.83392,519.91983Z"/>
        <path class="cls-26" d="M720.691,485.99563l.01045-16.04282-26.95751-5.66263-64.64557-15.17463-1.6719,12.245c-.60146,5.8115,9.014,20.46941,34.073,27.822C687.0608,496.68283,713.58645,489.35575,720.691,485.99563Z"/>
        <path class="cls-27" d="M668.77108,342.94347c-27.371-7.99379-46.67479,16.20795-43.79363,44.73148-2.09465,15.60055-1.51527,28.08441,3.84306,43.29206l-2.841,15.55829c-1.44058,8.7155,9.54837,20.28608,25.53991,27.86986,25.33123,12.013,58.39385,9.74362,62.43785-9.025l-1.76338-13.39474,18.36822-60.21611C726.84253,369.69127,706.51657,353.96715,668.77108,342.94347Z"/>
        <g>
          <g>
            <path class="cls-25" d="M660.7736,369.87509s10.44822-1.89,17.28494-6.78358,8.21637-13.49227,8.21637-13.49227a13.761,13.761,0,0,0-13.00076-7.66128c-13.98157.38759-14.09344,10.21252-14.09344,10.21252C658.02556,358.55819,658.196,364.57309,660.7736,369.87509Z"/>
            <path class="cls-28" d="M660.77364,369.875c-2.27625-6.40047-2.75778-16.13294-.41723-21.50685l9.18638-6.4599.00511-5.40379c-13.26,3.43516-22.11385,17.40382-25.753,24.27075a3.45964,3.45964,0,0,0,2.12223,4.96092l14.85647,4.1389Z"/>
            <path class="cls-22" d="M661.08064,357.02856c.764,10.22417,17.52368,4.996,23.81462-4.644-.83369-6.62928.47616-13.05354-3.83151-21.37509l-21.61442,5.84324Z"/>
            <path class="cls-28" d="M693.29258,357.98513c-.36769,5.45173-2.32586,12.25994-3.8278,16.81946a5.161,5.161,0,0,1-6.69814,3.23133l-21.993-8.16093h0s13.05085-3.80475,18.68915-9.16646c4.31187-4.10034,5.11718-10.44151,5.00493-15.1694l-.70944-6.29266s1.03819-.3101,3.04,2.25632C688.92757,344.23266,693.82421,350.10271,693.29258,357.98513Z"/>
          </g>
          <g>
            <path class="cls-29" d="M649.89875,281.74885a25.623,25.623,0,0,0-9.486,21.86783c.6091,10.08983,10.39523,19.39282,10.39523,19.39282l2.06168-32.68144Z"/>
            <path class="cls-25" d="M665.48155,348.9239c12.6424-1.99946,19.7124-8.23588,21.23155-19.89294l3.2432-25.20757c1.59241-10.1323-6.86953-20.42583-18.76924-21.24642-10.4002-.71718-21.72731,7.13677-22.52737,18.65755a233.43334,233.43334,0,0,0,.06206,25.595C649.58168,338.1956,653.99235,350.741,665.48155,348.9239Z"/>
            <path class="cls-30" d="M648.32278,309.34432c2.06252-.04759,5.90614-3.2207,8.25477-9.83062,1.24874,7.13511,3.63284,11.41294,11.35691,15.75678,6.71954,3.77892,14.715,3.65384,14.715,3.65384l-1.29809,2.17622,3.56551,2.51984c-1.08559,7.03444-1.79464,13.81884-.67488,19.38929,7.83316-2.58767,12.94671-8.69221,11.22237-17.45263,0,0,10.27493-13.08117,6.42167-28.77857-2.81684-11.47521-14.62713-19.22535-29.39226-20.27129-11.96378-.8475-24.92674,2.56464-29.39372,14.28567S648.32278,309.34432,648.32278,309.34432Z"/>
            <path class="cls-25" d="M682.58763,329.42709c4.11508.33225,8.043-5.13389,8.42007-9.80348s-3.34877-8.92591-7.05476-7.10661C679.30071,314.80081,678.47256,329.09484,682.58763,329.42709Z"/>
          </g>
        </g>
        <path class="cls-31" d="M698.52,407.13969l4.96915,53.71012-25.35427,7.2096,1.4406,6.77073,30.03042-1.383a16.51455,16.51455,0,0,0,4.35141-8.07688l-1.76335-13.39488,1.37634-5.05931Z"/>
        <path class="cls-25" d="M726.6156,393.05573c-4.33861-21.701-24.68182-14.13-24.60753,16.27855l11.27694,58.725-37.64127,2.72054,1.39075,14.56642s46.10612,11.35469,54.11371.14406C740.512,472.381,731.49569,425.01611,726.6156,393.05573Z"/>
        <path class="cls-32" d="M730.32393,390.17152c-4.33861-21.701-38.24139-9.12336-33.34252,16.96817l9.57447,51.44316c2.78512,12.293,34.22253,7.29152,33.07007-6.82351C739.626,451.75934,735.5868,410.15285,730.32393,390.17152Z"/>
      </g>
      <polygon class="cls-19" points="661.399 444.642 608.486 423.819 634.814 474.606 687.727 495.428 661.399 444.642"/>
      <g>
        <path class="cls-25" d="M611.11531,349.61637c-13.49806,22.25391-25.3301,43.17825-33.41224,61.11285-9.43579,20.38428,19.88,29.31587,24.5619,12.67718l15.1981-52.86929Z"/>
        <path class="cls-25" d="M620.48831,349.36058l-.46531-5.99728-4.95843,1.695a5.44738,5.44738,0,0,0-2.7972,2.12719,9.57058,9.57058,0,0,0-1.15207,2.43091c-.98123,3.15462-2.52639,8.74885-2.52639,12.69584a10.47172,10.47172,0,0,0,10.47184,10.47174c2.89165,0,6.4005.49325,8.29547-1.40172,1.895-1.89518,2.17626-6.17815,2.17626-9.07C629.53248,358.45589,625.71092,352.55018,620.48831,349.36058Z"/>
        <g>
          <polygon class="cls-33" points="675.765 461.469 669.091 459.456 670.509 462.26 675.765 461.469"/>
          <path class="cls-25" d="M686.144,469.87368c4.49042,6.6318,4.7679,17.26593-2.895,16.87712,0,0-14.41637-2.15008-17.39633-4.0076s-6.939-9.45035-7.30367-13.75885a7.19229,7.19229,0,0,1,3.77129-7.07871c2.47425-1.43327,9.67964-1.11445,12.3002-.73029C680.30222,462.00827,686.144,469.87368,686.144,469.87368Z"/>
        </g>
      </g>
    </g>
    <g>
      <path class="cls-34" d="M619.6352,342.01816l-.5732,24.12632c-.10323,4.34494,5.94184,8.01281,13.50211,8.19242s13.77271-3.197,13.87594-7.542l.5732-24.12631Z"/>
      <ellipse class="cls-35" cx="633.32422" cy="342.34344" rx="7.86947" ry="13.69289" transform="translate(276.03488 967.35778) rotate(-88.639)"/>
      <ellipse class="cls-35" cx="633.32422" cy="342.34344" rx="6.03212" ry="10.49589" transform="translate(276.03488 967.35778) rotate(-88.639)"/>
      <path class="cls-36" d="M633.36345,340.69689c4.446.10563,8.18546,1.79022,9.661,4.07-1.58214,2.20716-5.39741,3.71253-9.84339,3.6069s-8.18545-1.79048-9.661-4.07029C625.10221,342.09636,628.91748,340.59126,633.36345,340.69689Z"/>
    </g>
  </g>
  <g>
    <path class="cls-11" d="M605.836,819.348V666.04692h-9.58445V819.36661h.00437a2.41368,2.41368,0,0,0,1.41032,1.93535,7.492,7.492,0,0,0,6.77851.01219A2.35136,2.35136,0,0,0,605.836,819.348Z"/>
    <path class="cls-11" d="M727.88858,749.12969V595.82859h-9.58446V749.14828h.00438a2.4137,2.4137,0,0,0,1.41031,1.93536,7.492,7.492,0,0,0,6.77851.01218A2.35136,2.35136,0,0,0,727.88858,749.12969Z"/>
  </g>
  <g>
    <path class="cls-11" d="M318.63254,654.57013V501.269h-9.58446V654.58872h.00438a2.41369,2.41369,0,0,0,1.41031,1.93535,7.492,7.492,0,0,0,6.77852.01219A2.35138,2.35138,0,0,0,318.63254,654.57013Z"/>
    <path class="cls-14" d="M440.68509,567.17491V437.5824h-9.58446V567.1935h.00438a2.4137,2.4137,0,0,0,1.41031,1.93536,7.492,7.492,0,0,0,6.77851.01218A2.35136,2.35136,0,0,0,440.68509,567.17491Z"/>
  </g>
  <g>
    <g>
      <path class="cls-37" d="M743.76533,584.9776,600.24963,678.812l-314.7093-181.5364c.2563-.183.51261-.34781.78712-.5125l147.89076-85.39552a8.63416,8.63416,0,0,1,8.62185,0Z"/>
      <path class="cls-15" d="M600.24963,678.812,586.5571,687.7633,282.86767,512.5791a3.59589,3.59589,0,0,1-1.84877-3.1303V505.989a10.63239,10.63239,0,0,1,4.52143-8.71347Z"/>
      <path class="cls-15" d="M745.23291,593.7297a7.48282,7.48282,0,0,1-3.742,6.48065L589.94526,687.68711a3.55257,3.55257,0,0,1-5.32787-3.07718v-3.47188a10.64194,10.64194,0,0,1,5.32387-9.21786l150.66219-86.9876a3.08628,3.08628,0,0,1,4.62946,2.67278Z"/>
    </g>
    <polygon class="cls-15" points="705.214 605.37 699.814 608.482 396.289 433.279 401.653 430.167 705.214 605.37"/>
    <polygon class="cls-15" points="668.237 626.714 662.873 629.826 359.33 454.605 364.712 451.512 668.237 626.714"/>
    <polygon class="cls-15" points="631.278 648.059 625.896 651.17 322.371 475.95 327.735 472.856 631.278 648.059"/>
  </g>
  <g>
    <path class="cls-18" d="M926.7192,437.44336V652.27522h-.00634a3.75545,3.75545,0,0,1-1.894,3.23068L897.99206,671.114V437.44336Z"/>
    <path class="cls-12" d="M897.99206,437.44336V671.114l-6.96619-4.02271-19.85426-11.46508a3.75763,3.75763,0,0,1-1.894-3.351h-.00634V437.44336Z"/>
    <path class="cls-19" d="M924.81728,440.6748l-21.22373,12.25353a11.4022,11.4022,0,0,1-11.40218,0l-21.02009-12.136a3.80072,3.80072,0,0,1,0-6.58305L892.395,421.95579a11.4022,11.4022,0,0,1,11.40218,0l21.02009,12.136A3.80072,3.80072,0,0,1,924.81728,440.6748Z"/>
  </g>
  <path class="cls-13" d="M592.71946,516.81133,518.17937,563.859a3.569,3.569,0,0,1-3.57877.134l-52.77293-28.02336a3.569,3.569,0,0,1-.23076-6.17043l71.2282-44.94609a10.30965,10.30965,0,0,1,10.33428-.388l49.328,26.17543A3.569,3.569,0,0,1,592.71946,516.81133Z"/>
  <polygon class="cls-19" points="614.357 539.035 526.526 578.698 471.48 538.814 559.3 499.169 614.357 539.035"/>
  <g>
    <path class="cls-38" d="M367.03713,458.821l55.54431,58.31613,71.928-41.55641c.11431-.05968.2252-.12414.33417-.19308l.11355-.07456a4.5133,4.5133,0,0,0,2.016-3.74288l-.03359-10.32553c.0385-4.56992-2.7404-7.31807-6.39835-10.74948l-45.85093-32.99918a5.68419,5.68419,0,0,0-5.769-.17243l-.005-.0051-.25506.14727-.02433.014Z"/>
    <path class="cls-39" d="M429.9855,439.03523l-5.30447-3.06405a.90581.90581,0,0,0-.906-.0001l-13.8054,7.97054a.45292.45292,0,0,0,0,.78446l5.3066,3.06418a.90585.90585,0,0,0,.90594,0l13.8033-7.97062A.45292.45292,0,0,0,429.9855,439.03523Z"/>
    <path class="cls-40" d="M425.16289,500.65116l-.10483,12.44171a4.57285,4.57285,0,0,1-6.85913,3.92168l-49.88955-31.93189c-5.74134-3.31463-6.72837-14.80514-3.93722-23.10733a5.67291,5.67291,0,0,1,8.403-2.95667l46.09094,32.47866C422.7329,493.93327,425.2014,496.08123,425.16289,500.65116Z"/>
    <path class="cls-41" d="M391.20655,466.47766l27.6596,25.01967a13.1885,13.1885,0,0,1,6.15832,11.27l.03359,10.32553a4.52809,4.52809,0,0,1-2.49459,4.0257l.018.01859,71.928-41.55641c.11431-.05968.44772-.26764.44772-.26764a4.5133,4.5133,0,0,0,2.016-3.74288l-.03359-10.32553c.0385-4.56992-2.41385-7.972-6.15834-11.27L462.17934,424.2091a8.42542,8.42542,0,0,0-9.44223-.69033l-60.96324,35.19917A4.7026,4.7026,0,0,0,391.20655,466.47766Z"/>
  </g>
</svg>
