<svg id="Layer_1" data-name="Layer 1" xmlns="http://www.w3.org/2000/svg" xmlns:xlink="http://www.w3.org/1999/xlink" viewBox="0 0 1000 1000">
  <defs>
    <style>
      .cls-1, .cls-38, .cls-46 {
        fill: none;
      }

      .cls-2 {
        fill: url(#linear-gradient);
      }

      .cls-3 {
        fill: #6b483c;
      }

      .cls-4 {
        fill: url(#linear-gradient-2);
      }

      .cls-5 {
        fill: #366d26;
      }

      .cls-6 {
        fill: url(#linear-gradient-3);
      }

      .cls-7 {
        fill: #6e9e4f;
      }

      .cls-8 {
        fill: #b8cbd8;
      }

      .cls-9 {
        fill: #9bb0c4;
      }

      .cls-10 {
        fill: #87a1af;
      }

      .cls-11 {
        fill: #c7d8e2;
      }

      .cls-12 {
        fill: #5a9137;
      }

      .cls-13 {
        fill: url(#linear-gradient-4);
      }

      .cls-14 {
        fill: url(#linear-gradient-5);
      }

      .cls-15 {
        fill: #f2f2f2;
      }

      .cls-16 {
        fill: #e2e2e2;
      }

      .cls-17 {
        fill: #fff;
      }

      .cls-18 {
        fill: #303030;
      }

      .cls-19 {
        fill: #424242;
      }

      .cls-20 {
        fill: url(#linear-gradient-6);
      }

      .cls-21 {
        fill: url(#linear-gradient-7);
      }

      .cls-22 {
        fill: #a0674a;
      }

      .cls-23 {
        fill: url(#linear-gradient-8);
      }

      .cls-24 {
        fill: #c93535;
      }

      .cls-25 {
        fill: url(#linear-gradient-9);
      }

      .cls-26 {
        clip-path: url(#clip-path);
      }

      .cls-27 {
        fill: url(#linear-gradient-10);
      }

      .cls-28 {
        fill: #dd7b19;
        opacity: 0.5;
      }

      .cls-29 {
        fill: #e48f7c;
      }

      .cls-30 {
        fill: #ffbda3;
      }

      .cls-31 {
        fill: #27343d;
      }

      .cls-32 {
        fill: #303d49;
      }

      .cls-33 {
        fill: url(#linear-gradient-11);
      }

      .cls-34 {
        fill: #c4ccce;
      }

      .cls-35 {
        fill: url(#linear-gradient-12);
      }

      .cls-36 {
        fill: url(#linear-gradient-13);
      }

      .cls-37 {
        fill: url(#linear-gradient-14);
      }

      .cls-38, .cls-46 {
        stroke: #565656;
        stroke-miterlimit: 10;
      }

      .cls-38 {
        stroke-width: 3.52628px;
      }

      .cls-39 {
        fill: url(#linear-gradient-15);
      }

      .cls-40 {
        fill: #f49b25;
      }

      .cls-41 {
        fill: #cddce8;
      }

      .cls-42 {
        fill: url(#linear-gradient-16);
      }

      .cls-43 {
        fill: url(#linear-gradient-17);
      }

      .cls-44 {
        fill: url(#linear-gradient-18);
      }

      .cls-45 {
        fill: url(#linear-gradient-19);
      }

      .cls-46 {
        stroke-width: 1.36875px;
      }
    </style>
    <linearGradient id="linear-gradient" x1="10119.96182" y1="454.66992" x2="10961.33398" y2="454.66992" gradientTransform="matrix(-1, 0, 0, 1, 11070.10341, 0)" gradientUnits="userSpaceOnUse">
      <stop offset="0" stop-color="#e6f4ff"/>
      <stop offset="1" stop-color="#c0e3ff"/>
    </linearGradient>
    <linearGradient id="linear-gradient-2" x1="722.90424" y1="374.47994" x2="782.0254" y2="513.02651" gradientUnits="userSpaceOnUse">
      <stop offset="0" stop-color="#77bf49"/>
      <stop offset="0.99995" stop-color="#366d26"/>
    </linearGradient>
    <linearGradient id="linear-gradient-3" x1="154.78527" y1="560.05828" x2="936.34095" y2="560.05828" gradientUnits="userSpaceOnUse">
      <stop offset="0.00005" stop-color="#9dcc52"/>
      <stop offset="1" stop-color="#649e3f"/>
    </linearGradient>
    <linearGradient id="linear-gradient-4" x1="154.78527" y1="523.01438" x2="936.34095" y2="523.01438" xlink:href="#linear-gradient-3"/>
    <linearGradient id="linear-gradient-5" x1="798.43447" y1="328.23375" x2="907.61493" y2="578.34219" xlink:href="#linear-gradient-2"/>
    <linearGradient id="linear-gradient-6" x1="373.07721" y1="382.44815" x2="684.05593" y2="854.27793" gradientUnits="userSpaceOnUse">
      <stop offset="0.00005" stop-color="#e6ac72"/>
      <stop offset="1" stop-color="#b3703f"/>
    </linearGradient>
    <linearGradient id="linear-gradient-7" x1="471.80298" y1="317.37889" x2="782.7817" y2="789.20868" xlink:href="#linear-gradient-6"/>
    <linearGradient id="linear-gradient-8" x1="186.67434" y1="531.00086" x2="167.00011" y2="655.30626" gradientUnits="userSpaceOnUse">
      <stop offset="0" stop-color="#67a63f"/>
      <stop offset="0.99995" stop-color="#366d26"/>
    </linearGradient>
    <linearGradient id="linear-gradient-9" x1="132.31148" y1="104.87306" x2="402.8356" y2="458.70428" gradientTransform="matrix(1, 0, 0, 1, 0, 0)" xlink:href="#linear-gradient"/>
    <clipPath id="clip-path">
      <circle class="cls-1" cx="272.54335" cy="288.28891" r="196.04503"/>
    </clipPath>
    <linearGradient id="linear-gradient-10" x1="114.98344" y1="333.13314" x2="253.23618" y2="724.28725" gradientUnits="userSpaceOnUse">
      <stop offset="0.00005" stop-color="#ffcb48"/>
      <stop offset="1" stop-color="#e68e2b"/>
    </linearGradient>
    <linearGradient id="linear-gradient-11" x1="212.03117" y1="296.10873" x2="354.71053" y2="699.78692" xlink:href="#linear-gradient-10"/>
    <linearGradient id="linear-gradient-12" x1="305.05997" y1="255.3941" x2="452.77558" y2="673.32118" xlink:href="#linear-gradient-10"/>
    <linearGradient id="linear-gradient-13" x1="202.31434" y1="163.52007" x2="286.83823" y2="317.11017" gradientUnits="userSpaceOnUse">
      <stop offset="0" stop-color="#cebcb3"/>
      <stop offset="1" stop-color="#bfa090"/>
    </linearGradient>
    <linearGradient id="linear-gradient-14" x1="251.73663" y1="136.32194" x2="336.26052" y2="289.91204" xlink:href="#linear-gradient-13"/>
    <linearGradient id="linear-gradient-15" x1="495.53279" y1="409.19489" x2="549.19652" y2="561.02396" xlink:href="#linear-gradient-10"/>
    <linearGradient id="linear-gradient-16" x1="533.20252" y1="394.82362" x2="588.58446" y2="551.51399" xlink:href="#linear-gradient-10"/>
    <linearGradient id="linear-gradient-17" x1="569.31227" y1="379.01997" x2="626.64906" y2="541.24114" xlink:href="#linear-gradient-10"/>
    <linearGradient id="linear-gradient-18" x1="529.43087" y1="343.35845" x2="562.23938" y2="402.97547" xlink:href="#linear-gradient-13"/>
    <linearGradient id="linear-gradient-19" x1="548.61446" y1="332.80132" x2="581.42297" y2="392.41834" xlink:href="#linear-gradient-13"/>
  </defs>
  <path class="cls-2" d="M950.11233,562.3607s2.42714-89.31382-36.9293-127.58838-101.191-29.83446-150.323-53.496-63.3827-76.8345-112.94076-112.54122c-54.68805-39.4029-146.59745-38.20853-194.76521-7.155-50.53525,32.57984-78.70778,84.6149-128.98446,112.05477s-124.53069,34.14994-152.8969,43.40629-64.50325,29.24171-64.50325,69.11385V670.65079l841.3429-17.71821Z"/>
  <g>
    <path class="cls-3" d="M766.08,546.14855V490.00712H755.81374v56.15931h.00468c.0154.67356.51671,1.34622,1.51064,1.86184a8.84183,8.84183,0,0,0,7.26072.01172C765.59442,547.519,766.08971,546.83368,766.08,546.14855Z"/>
    <path class="cls-4" d="M716.86142,469.68929a20.916,20.916,0,0,1,5.35147-14.31134,25.54575,25.54575,0,0,1-2.31055-7.97962c-.96822-7.79645,1.64779-14.95212,6.31949-19.20887-.49251-4.95862,1.2741-9.44427,4.67171-11.83967a22.66953,22.66953,0,0,1-.28867-3.6007c0-9.7647,6.08184-17.8205,13.91308-18.91907-.017-.32034-.034-.62551-.034-.94594,0-13.41112,7.05028-24.2743,15.73092-24.2743,7.6276,0,13.9811,8.37623,15.42525,19.46831,3.14274,1.40364,5.58912,5.05015,6.42152,9.62734,4.41684,2.6852,8.375,7.62864,10.53248,13.8231a24.91806,24.91806,0,0,1,.76438,14.96739,12.14577,12.14577,0,0,1,5.06239,10.23758,13.29877,13.29877,0,0,1-1.91944,6.95732v.01527c6.914,3.43289,10.29462,13.0755,7.61059,23.23681a27.522,27.522,0,0,1-5.16442,10.26822c4.298,5.11115,5.0794,13.47221,1.37613,21.45174A25.9927,25.9927,0,0,1,789.40036,510.533a29.85262,29.85262,0,0,1-14.55864,12.20583c-3.95834,5.85884-10.34585,9.18491-16.41048,7.88808a13.03447,13.03447,0,0,1-8.8679-7.12522,28.93522,28.93522,0,0,1-11.34787-6.46907c-6.81221-2.74629-12.87684-9.04756-15.76493-17.3628a27.4368,27.4368,0,0,1-.79838-16.29477A21.129,21.129,0,0,1,716.86142,469.68929Z"/>
    <path class="cls-5" d="M804.11165,466.94487a27.43935,27.43935,0,0,1-5.1611,10.26646c4.301,5.11615,5.08479,13.477,1.37626,21.443a25.9461,25.9461,0,0,1-10.934,11.88026A29.82692,29.82692,0,0,1,774.84589,522.741c-3.95681,5.85437-10.34157,9.185-16.42017,7.88018a13.03213,13.03213,0,0,1-8.86964-7.12478,28.70685,28.70685,0,0,1-11.33561-6.47239c14.45005,2.08382,23.00257-2.50867,23.43566-16.29246,5.56717,2.88245,11.66787-1.647,8.17013-7.85671,11.95738.58444,16.43122-13.44222,8.67076-20.522,13.12908-2.70964,15.56936-18.0513,4.18606-22.59506,8.22934-3.69856,12.15606-11.60152,10.66675-23.26085a12.12673,12.12673,0,0,1,5.06543,10.2322,13.37555,13.37555,0,0,1-1.91156,6.97022c5.31418,2.62666,8.52569,8.92741,8.52569,16.30965A26.95757,26.95757,0,0,1,804.11165,466.94487Z"/>
  </g>
  <path class="cls-6" d="M108.86281,602.7253s75.13369-31.572,116.48865-53.12409S318.66931,479.887,359.71775,458.7118s82.59-30.02162,82.59-30.02162v159.448L122.28938,690.923a10.35043,10.35043,0,0,1-13.51556-9.86637Z"/>
  <polygon class="cls-7" points="342.623 472.807 360.091 480.972 398.162 482.536 417.421 449.865 417.421 383.677 385.397 397.786 380.022 422.196 357.852 435.408 349.566 455.563 342.623 472.807"/>
  <path class="cls-8" d="M124.283,704.23233,508.38849,925.986a42.10143,42.10143,0,0,0,42.1011-.00062L926.24334,709.03886a15.90552,15.90552,0,0,0,.00019-27.54891L529.421,452.37183,124.28235,686.305A10.35042,10.35042,0,0,0,124.283,704.23233Z"/>
  <ellipse class="cls-9" cx="458.82996" cy="762.12336" rx="92.12777" ry="52.947"/>
  <path class="cls-9" d="M809.23,762.04451,416.51153,535.36127l-2.46,1.41032L297.67682,603.96283a8.16578,8.16578,0,0,0-4.05109,7.0683v2.64033a2.7263,2.7263,0,0,0,1.41032,2.39451L678.58038,837.45783Z"/>
  <g>
    <path class="cls-10" d="M529.03529,476.93813,129.80839,707.426l-5.52765-3.19222a10.35043,10.35043,0,0,1,.00121-17.927l394.228-227.59495Z"/>
    <polygon class="cls-11" points="529.035 462.904 129.808 693.392 108.758 681.235 518.51 444.678 529.035 462.904"/>
  </g>
  <path class="cls-12" d="M950.10057,652.93258V683.1244a21.0507,21.0507,0,0,1-10.50787,18.22034l-75.64743,43.77195,2.58936-44.33478Z"/>
  <path class="cls-13" d="M950.10057,652.93258s-26.28268-31.8858-88.15151-87.95457-142.19344-71.1149-189.00857-112.60618S623.9732,428.4083,580.22775,410.08c-47.19544-19.7738-98.44975-22.66563-98.44975-22.66563l-44.19158-49.22171V445.00449L855.20276,707.83614Z"/>
  <path class="cls-12" d="M917.00529,617.42275q-11.76972-11.88535-28.09161-27.4539a78.869,78.869,0,0,0-19.7359-2.44076c-26.51384,0-48.00739,12.35239-48.00739,27.5901s21.49355,27.59009,48.00739,27.59009C894.33953,642.70828,914.96583,631.58119,917.00529,617.42275Z"/>
  <g>
    <path class="cls-3" d="M879.18846,613.34039V491.42988H859.16657V613.37922h.00914c.03,1.46263,1.00772,2.9233,2.94614,4.043a15.65077,15.65077,0,0,0,14.16028.02545C878.24144,616.31623,879.20739,614.82815,879.18846,613.34039Z"/>
    <path class="cls-14" d="M933.34493,447.63783a99.44852,99.44852,0,0,0,.21692-13.27391c-1.24774-24.20854-10.7391-44.01847-22.38118-48.89084.10528-.40695.26493-.78786.34476-1.20551,1.814-9.44914-3.62694-17.9846-12.15286-19.0643-.07231-.009-.14288.00492-.21461-.00318-3.22318-24.18106-15.40554-37.21231-29.98041-37.21231-14.27176,0-26.24472,12.502-29.76407,35.72422-12.70355,6.77058-23.82212,27.01291-27.176,52.11228-.45,3.36606-.70688,6.66906-.85092,9.91769a19.06962,19.06962,0,0,0-11.02544,13.96171,17.56168,17.56168,0,0,0,1.49879,11.28285c-5.45719,6.50768-8.8782,15.68407-8.8782,25.8829a43.772,43.772,0,0,0,1.76661,12.29747c-5.67584,8.34226-8.07819,20.09049-5.72038,32.60951,2.79049,14.817,11.55242,26.95883,22.317,32.90048a47.57723,47.57723,0,0,0,27.40453,22.78437c7.09076,11.3219,18.0705,18.61859,30.42814,18.61859s23.338-7.29669,30.42929-18.61859a47.56752,47.56752,0,0,0,27.34842-22.682c9.10207-3.51443,16.5694-12.19537,18.66-23.08256a28.46448,28.46448,0,0,0-2.89809-19.39229,51.93793,51.93793,0,0,0,8.28123-19.69626C954.64092,473.6341,947.10417,456.09954,933.34493,447.63783Z"/>
    <path class="cls-5" d="M950.98911,492.62378a51.02487,51.02487,0,0,1-8.2928,19.6656,28.45867,28.45867,0,0,1,2.93742,19.429c-2.1322,10.85161-9.57235,19.52359-18.67037,23.07765a47.48547,47.48547,0,0,1-27.34263,22.651c-7.10812,11.32567-18.10232,18.62323-30.42236,18.62323-12.36862,0-23.36225-7.29756-30.47036-18.62323a47.483,47.483,0,0,1-27.39007-22.79333c28.13514,7.54882,46.76268-4.67613,47.81375-34.30845,22.46971,12.01327,48.07532-6.1351,42.03319-32.65,20.35918-6.15217,24.99709-36.60111,7.25042-50.7046,15.31992-11.79653,19.86438-34.3934,2.74768-51.5101,11.6577,4.881,21.13518,24.689,22.3673,48.90385a102.68606,102.68606,0,0,1-.18973,13.26842C947.103,456.088,954.638,473.62137,950.98911,492.62378Z"/>
  </g>
  <g>
    <g>
      <path class="cls-15" d="M406.05311,292.16416V520.12294h.00864a5.11708,5.11708,0,0,0,2.58073,4.402l28.92324,16.7015a15.4467,15.4467,0,0,0,7.63,2.07141V292.16416Z"/>
      <path class="cls-16" d="M445.1957,292.16416v251.1337a15.54319,15.54319,0,0,0,7.90623-2.07141l30.71294-204.40853.51477-44.65376Z"/>
      <path class="cls-17" d="M408.6446,296.56721l28.9187,16.69621a15.53617,15.53617,0,0,0,15.5362,0l28.64123-16.536a5.17874,5.17874,0,0,0,0-8.96984L452.822,271.06136a15.53617,15.53617,0,0,0-15.5362,0l-28.64123,16.536A5.17873,5.17873,0,0,0,408.6446,296.56721Z"/>
    </g>
    <g>
      <polygon class="cls-15" points="816.778 559.975 449.726 348.782 449.726 542.663 793.255 740.263 816.778 559.975"/>
      <polygon class="cls-16" points="769.262 726.427 793.255 740.263 803.301 663.267 803.301 552.203 769.262 532.572 769.262 726.427"/>
      <path class="cls-17" d="M449.73038,348.77667,816.7801,559.97475l32.86665-18.96916c-.505-.35123-1.03189-.68047-1.58076-.99886L508.07585,344.42962l-25.413-14.66593Z"/>
    </g>
    <g>
      <path class="cls-15" d="M788.25811,512.592V740.55074h.00864a5.11708,5.11708,0,0,0,2.58072,4.402l28.92325,16.7015a15.44664,15.44664,0,0,0,7.63,2.07141V512.592Z"/>
      <path class="cls-16" d="M827.40069,512.592V763.72566a15.54314,15.54314,0,0,0,7.90623-2.07141l28.63835-16.53756a5.12,5.12,0,0,0,2.58072-4.56595h.00864V512.592Z"/>
      <path class="cls-17" d="M790.8496,516.995l28.91869,16.69621a15.53619,15.53619,0,0,0,15.53621,0l28.64122-16.536a5.17873,5.17873,0,0,0,0-8.96983L835.027,491.48916a15.53619,15.53619,0,0,0-15.53621,0l-28.64122,16.536A5.17874,5.17874,0,0,0,790.8496,516.995Z"/>
    </g>
  </g>
  <g>
    <g>
      <g>
        <g>
          <path class="cls-18" d="M667.4564,735.47543l22.31167-13.145c12.124-15.76078,26.836-25.56861,40.86259-27.73248-.04568-.035.001-.03588.10938-.01386.40673-.06137.80957-.10782,1.21215-.15323,4.44335-1.11405,18.41017-6.48208,18.41017-6.48208v.00009l13.09744-16.52243c0,28.24911,12.53808,59.09336,24.2313,82.0976l.63208-.45259,1.12167,10.35913c-.71666.35708-8.04315-4.11444-8.62834-4.98434a159.74069,159.74069,0,0,1-18.0836-29.58832l-.00061.00017c-8.49054-16.3139-16.85888-23.69188-32.0343-21.35112-14.0092,2.16188-28.277,12.51641-39.14394,28.41084-9.03292,13.21219-20.08869,36.401-20.41968,71.85305.07956,4.193.24154,8.45466.44669,12.83492l.30031-.215,1.12167,10.359-7.73565-4.46866a2.23833,2.23833,0,0,1-1.08779-1.51965C658.98856,797.47,660.29371,757.11256,667.4564,735.47543Z"/>
          <path class="cls-19" d="M676.08474,740.45977l22.31167-13.145c12.124-15.76078,26.836-25.56861,40.86259-27.73247-.04567-.035.001-.03589.10938-.01387.40674-.06136.80958-.10782,1.21216-.15323,4.44335-1.11405,18.41017-6.48207,18.41017-6.48207v.00008l13.09744-16.52243c0,28.13856,12.44111,58.8647,24.095,81.83986a1.18505,1.18505,0,0,1-.47123,1.5671l-6.26705,3.61284a159.74069,159.74069,0,0,1-18.0836-29.58832l-.0006.00017c-8.49055-16.3139-16.85888-23.69187-32.0343-21.35111-14.0092,2.16187-28.277,12.51641-39.144,28.41083-9.03291,13.21219-20.08869,36.401-20.41968,71.853.07763,4.09213.22848,8.23736.42645,12.506a2.1509,2.1509,0,0,1-1.06846,1.96171l-6.11766,3.52685C667.58562,803.45281,668.83374,762.36384,676.08474,740.45977Z"/>
        </g>
        <g>
          <path class="cls-18" d="M312.93921,530.84551l22.31167-13.145c12.124-15.76079,26.836-25.56861,40.86259-27.73248-.04567-.035.001-.03588.10938-.01387.40673-.06136.80957-.10781,1.21215-.15323,4.44335-1.114,18.41017-6.48207,18.41017-6.48207v.00009l13.09744-16.52243c0,28.24911,12.53808,59.09335,24.23131,82.0976l.63207-.45259,1.12168,10.35913c-.71667.35708-8.04316-4.11445-8.62835-4.98434a159.74045,159.74045,0,0,1-18.0836-29.58833l-.00061.00018c-8.49054-16.31391-16.85888-23.69188-32.0343-21.35112-14.0092,2.16188-28.277,12.51641-39.14394,28.41084-9.03292,13.21219-20.08869,36.401-20.41968,71.85305.07956,4.193.24154,8.45466.44669,12.83491l.30031-.215,1.12167,10.359-7.73565-4.46866a2.23835,2.23835,0,0,1-1.08779-1.51966C304.47137,592.84,305.77653,552.48263,312.93921,530.84551Z"/>
          <path class="cls-19" d="M321.56756,535.82985l22.31166-13.145c12.124-15.76078,26.836-25.56861,40.8626-27.73248-.04568-.035.001-.03588.10937-.01386.40674-.06137.80958-.10782,1.21216-.15324,4.44335-1.114,18.41017-6.48207,18.41017-6.48207v.00009L417.571,471.78084c0,28.13855,12.44112,58.86469,24.095,81.83985a1.18508,1.18508,0,0,1-.47123,1.56711l-6.26705,3.61284a159.74018,159.74018,0,0,1-18.08361-29.58832l-.0006.00017c-8.49054-16.31391-16.85888-23.69188-32.0343-21.35112-14.0092,2.16188-28.277,12.51641-39.14394,28.41084-9.03292,13.21219-20.0887,36.401-20.41969,71.85305.07763,4.09213.22848,8.23736.42645,12.506a2.15089,2.15089,0,0,1-1.06845,1.96171l-6.11767,3.52686C313.06843,598.82289,314.31656,557.73391,321.56756,535.82985Z"/>
        </g>
        <g>
          <path class="cls-18" d="M300.677,532.58635v-2.88759a8.851,8.851,0,0,1,4.4279-7.66657l90.58706-52.26809v-.82232c0-37.13565,19.28094-99.72965,37.60388-136.14952,1.84771-3.67262,5.69143-5.81217,9.52607-4.3297h0a3.87614,3.87614,0,0,1,2.29635,5.05075c-17.81868,40.77452-38.06642,98.43992-38.06642,135.42847v2.83487a7.87678,7.87678,0,0,1-3.94056,6.82276L305.1082,535.14567A2.9547,2.9547,0,0,1,300.677,532.58635Z"/>
          <polygon class="cls-18" points="451.563 333.488 443.189 328.627 443.78 334.968 451.563 333.488"/>
          <polygon class="cls-18" points="310.002 539.693 302.074 535.096 311.16 531.422 310.002 539.693"/>
          <path class="cls-19" d="M308.58865,537.17341v-2.88759a8.851,8.851,0,0,1,4.4279-7.66657l90.587-52.26809v-.82232c0-37.13565,19.28094-99.72966,37.60388-136.14953,1.84771-3.67262,5.69144-5.81217,9.52607-4.3297l0,0a3.87612,3.87612,0,0,1,2.29634,5.05074c-17.81867,40.77452-38.06641,98.43993-38.06641,135.42848v2.83487a7.87681,7.87681,0,0,1-3.94057,6.82276l-98.003,56.54625A2.95469,2.95469,0,0,1,308.58865,537.17341Z"/>
        </g>
        <g>
          <path class="cls-18" d="M657.75072,738.71492v-2.88759a8.851,8.851,0,0,1,4.4279-7.66657l90.587-52.2681v-.82231c0-37.13566,19.28094-99.72966,37.60389-136.14953,1.84771-3.67262,5.69143-5.81217,9.52607-4.3297l0,0a3.87611,3.87611,0,0,1,2.29634,5.05074c-17.81867,40.77452-38.06641,98.43993-38.06641,135.42848v2.83487A7.87681,7.87681,0,0,1,760.185,684.728l-98.003,56.54625A2.95469,2.95469,0,0,1,657.75072,738.71492Z"/>
          <polygon class="cls-18" points="808.637 539.616 800.263 534.755 800.853 541.096 808.637 539.616"/>
          <polygon class="cls-18" points="667.076 745.822 659.148 741.225 668.234 737.551 667.076 745.822"/>
          <path class="cls-19" d="M665.66239,743.302v-2.88759a8.851,8.851,0,0,1,4.42755-7.66636l90.58741-52.2683v-.82232c0-37.42951,19.58729-100.72188,38.03867-137.00911a7.25674,7.25674,0,0,1,9.09129-3.47014h0a3.95942,3.95942,0,0,1,2.19475,5.28343c-17.79394,40.76089-37.96483,98.27754-37.96483,135.19582v2.83453a7.87738,7.87738,0,0,1-3.94056,6.8231l-98.00294,56.54619A2.9547,2.9547,0,0,1,665.66239,743.302Z"/>
        </g>
      </g>
      <g>
        <path class="cls-20" d="M282.37753,530.812v2.28615a2.36,2.36,0,0,0,1.22117,2.07322L651.99136,747.81756l106.996-68.82674-1.86018-1.0792-368.35-212.61788-2.13,1.22125L285.88486,524.69183A7.07046,7.07046,0,0,0,282.37753,530.812Z"/>
        <path class="cls-21" d="M801.68739,544.00478c-14.589,32.77744-35.23927,95.37358-41.98407,134.50624l-.71259.48639L388.775,465.29381v-.656c0-29.57809,21.4348-99.10473,36.98466-129.81223,1.47561-2.914,4.52437-4.62613,7.57833-3.44982a3.6732,3.6732,0,0,1,.76914.44114Z"/>
        <path class="cls-22" d="M650.70779,745.72738v-2.30011a7.05026,7.05026,0,0,1,3.527-6.10681L757.1152,677.92058v-.655c0-29.58044,17.80082-90.29655,36.98108-129.80989,1.43006-2.94606,4.53352-4.62969,7.588-3.44883l0,0a3.02753,3.02753,0,0,1,1.82916,4.02317c-18.02305,35.01137-37.34951,99.77228-37.34951,129.23554v2.25812a6.27428,6.27428,0,0,1-3.13887,5.43468L654.23749,747.766A2.35357,2.35357,0,0,1,650.70779,745.72738Z"/>
      </g>
    </g>
    <path class="cls-22" d="M386.64718,466.515,756.048,679.7718l1.0792-1.86018,1.05078-1.83175L388.80559,462.8514c-.01422.61059-.02843,1.207-.02843,1.7892v.65314Z"/>
    <polygon class="cls-22" points="303.919 514.283 672.283 726.901 676.543 724.445 308.179 511.813 303.919 514.283"/>
    <polygon class="cls-22" points="331.495 498.351 699.845 710.983 704.091 708.541 335.755 495.895 331.495 498.351"/>
    <polygon class="cls-22" points="359.071 482.433 727.421 695.079 731.681 692.608 363.331 479.976 359.071 482.433"/>
    <path class="cls-22" d="M415.84211,357.5452l368.279,212.60358c.5396-1.3348,1.07921-2.66959,1.61872-3.976l-368.32158-212.632Q416.6302,355.50036,415.84211,357.5452Z"/>
    <path class="cls-22" d="M406.55543,383.64448l368.066,212.47592c.45441-1.37744.92294-2.74066,1.39156-4.118l-368.10864-212.49C407.44994,380.88979,406.99562,382.26713,406.55543,383.64448Z"/>
    <path class="cls-22" d="M398.51825,410.46806l367.995,212.43327c.38342-1.40577.76676-2.82576,1.1644-4.24574L399.69686,406.22231C399.29923,407.6423,398.90168,409.06228,398.51825,410.46806Z"/>
    <path class="cls-22" d="M391.98634,438.15781l368.10856,212.49q.3835-2.19381.852-4.43035L392.86673,433.75588C392.55429,435.24685,392.25615,436.70948,391.98634,438.15781Z"/>
  </g>
  <path class="cls-22" d="M534.33251,679.90168l-.67346-4.16639a12.35338,12.35338,0,0,1,5.614-12.42565l56.95423-38.64838a86.46689,86.46689,0,0,0,36.35176-55.182L653.93145,458.7118l-40.99793-23.6663L530.71287,622.90133,510.1017,651.69022V665.915Z"/>
  <path class="cls-10" d="M108.75767,681.23539l21.05072,12.15677V707.426l-10.5274-6.07957a21.05071,21.05071,0,0,1-10.52332-18.22928Z"/>
  <path class="cls-23" d="M130.364,636.98777c12.18665,10.11721,45.27283,9.16087,51.506-10.00243,10.462,4.25366,26.44231-7.12783,22.00192-15.18631,19.15645,5.3205,35.13721-9.87652,29.91693-21.7047,31.54781-14.72976,12.5781-43.52931-4.0922-41.40248,1.83646-17.75641-14.19869-26.9601-27.30486-17.04375-8.79511-15.08952-36.21518-10.3472-36.0897,9.86752-23.17669-13.51774-52.78514,6.27252-40.97794,35.81771-6.57578-6.02031-12.0964-3.12725-16.55478,1.50115v61.29557C114.70705,640.46924,121.86315,639.575,130.364,636.98777Z"/>
  <g>
    <g>
      <g>
        <path class="cls-24" d="M272.54346,93.88135a193.74321,193.74321,0,1,1-75.667,15.27,193.17293,193.17293,0,0,1,75.667-15.27m0-17.54248c-117.05713,0-211.9502,94.89306-211.9502,211.95019,0,117.05664,94.89307,211.9502,211.9502,211.9502,117.05664,0,211.95019-94.89356,211.95019-211.9502,0-117.05713-94.89355-211.95019-211.95019-211.95019Z"/>
        <circle class="cls-25" cx="272.54335" cy="288.28891" r="196.04503"/>
      </g>
      <circle class="cls-24" cx="96.42821" cy="179.94767" r="62.61491"/>
    </g>
    <g class="cls-26">
      <g>
        <g>
          <g>
            <path class="cls-27" d="M138.75209,349.07158c-31.69236,33.857-87.29523,98.84768-87.29523,98.84768s-7.1571,100.10632,26.90627,84.01338c22.00593-10.39695,103.45229-94.96613,103.45229-94.96613L226.67391,298.708S182.494,302.34194,138.75209,349.07158Z"/>
            <path class="cls-28" d="M164.43357,454.54174l-7.86292-60.00506-26.78477,93.89043C141.65809,477.10934,153.79635,465.162,164.43357,454.54174Z"/>
            <path class="cls-29" d="M31.33206,445.428l-4.398,24.17317S22.781,485.05884,42.34977,491.801s24.6665-4.11109,24.6665-4.11109l3.12443-11.0177Z"/>
            <path class="cls-30" d="M106.78985,828.96307,77.3762,665.84122-39.48822,716.48978C-84.765,740.49851-103.95,779.74566-84.87459,836.64306l98.22751,253.02353-21.92578,27.84575c3.577,9.91536,19.41524,16.17362,19.41524,16.17362s62.27387-15.76836,62.09385-38.04459l-5.75552-13.15547c-20.391-85.78462-1.697-139.21879-29.98123-243.80478Z"/>
            <path class="cls-31" d="M227.25842,820.8,164.8381,619.25-44.79312,708.24333c-49.86951,22.80281-65.51537,85.64446-47.415,133.05839l67.91261,201.50161c13.31821,39.77119,100.08055,17.86952,95.25688-24.6665L46.2611,852.40185Z"/>
            <path class="cls-30" d="M130.58485,892.75244c-6.35848,12.71695-27.61932,47.90839-28.65177,73.91051l.98666,202.59423-11.4444,33.74832c-5.35367,23.15988,45.539,9.69937,45.539,9.69937s7.72595-12.98188,9.39922-17.01893.40285-14.7664.40285-14.7664l-1.14142-10.01792c9.61894-39.87122,47.13166-105.61565,52.7315-179.24327l25.373-33.32719C246.61391,935.49115,150.30953,853.30308,130.58485,892.75244Z"/>
            <path class="cls-32" d="M179.00221,595.45946l-56.14108,42.971,56.73365,122.96871S115.89868,877.81182,101.65752,924.733c-13.51256,44.52063-10.57678,185.7662-10.57678,185.7662.65376,37.49308,80.3247,40.28862,87.65963,15.951l34.13717-136.65554,127.51371-119.659c43.83628-43.7977,66.62646-70.54716,66.62646-135.79466,0-71.65379-13.47747-104.894-13.47747-104.894Z"/>
            <path class="cls-33" d="M259.52755,295.10643c-50.4293,4.60441-88.58456,7.1536-90.53854,65.55809-24.357,59.337-21.94512,110.15-6.81633,175.98212L153.40236,587.953c-8.44142,33.43681,17.98143,65.86671,67.53141,92.96531C292.63108,720.12914,407.01771,665.008,407.01771,665.008s-6.37089-24.76785-14.7872-71.23963l31.736-181.22166C403.7948,360.9115,340.05774,329.38338,259.52755,295.10643Z"/>
            <path class="cls-30" d="M362.25155,345.95894c-28.18214-18.06352-63.445-34.13381-102.72379-50.85258-12.55937,1.14662-24.3561,2.16681-35.02319,3.9531-16.9603,27.91766-19.29757,67.9305,16.53448,80.3842C283.6961,394.26858,349.495,378.13036,362.25155,345.95894Z"/>
            <path class="cls-28" d="M402.46661,667.07746l-1.73723-29.77566c-.36764-1.73974-.74942-3.57-1.1419-5.4683L340.88718,475.117l4.20073,128.09888a77.66829,77.66829,0,0,1-21.38275,56.1086l-33.86209,35.55683C339.2509,693.23965,387.72376,673.571,402.46661,667.07746Z"/>
            <path class="cls-30" d="M423.41316,415.30159,344.92407,475.117l41.3301,165.89641-76.29486,60.63678,6.74133,43.61906s121.84289-24.55534,136.64643-83.64561C461.83382,627.74893,423.41316,415.30159,423.41316,415.30159Z"/>
          </g>
          <polygon class="cls-29" points="9.415 484.69 41.968 520.667 38.402 474.706 9.415 484.69"/>
          <path class="cls-15" d="M107.31255,684.61191l153.66362,88.59143a8.54149,8.54149,0,0,0,12.33845-10.19185L180.4151,494.42562A24.78024,24.78024,0,0,0,169.373,481.0579L-6.87941,379.44336,92.45,666.61905A33.3541,33.3541,0,0,0,107.31255,684.61191Z"/>
          <polygon class="cls-34" points="131.038 485.34 244.175 719.508 251.575 712.069 169.847 485.34 131.038 485.34"/>
          <path class="cls-30" d="M7.80812,421.05868l-5.35943-15.15-4.469,2.87566a16.75678,16.75678,0,0,0-6.73,8.01691,28.38907,28.38907,0,0,0-1.76335,7.96477c-.72145,9.77227,2.52092,28.01172,5.16551,39.416,3.87511,16.7106,16.60429,26.07469,33.31458,22.19965,8.355-1.93749,18.82378-2.86334,23.02933-9.60825,4.2054-6.74552,2.14846-19.309.21083-27.66461C48.6227,437.96648,25.0352,426.77525,7.80812,421.05868Z"/>
          <path class="cls-29" d="M247.13508,332.48989c1.21225,10.26936,4.70338,18.34922,16.66192,20.58314,24.26538,4.53291,58.44736-12.94816,55.03539-31.95683l-10.6252-57.6035-64.12237,15.80717Z"/>
        </g>
        <path class="cls-30" d="M309.95931,701.65015s-25.33919-10.58194-36.04346-11.59971-25.17014,1.98792-25.17014,1.98792l4.5041,13.02572-11.86045,12.18444-24.85177,2.39391a7.74432,7.74432,0,0,0-4.97557,12.95663c9.63488,10.40646,24.11746,24.29391,33.83159,25.58408,21.37281,2.83861,68.50024-12.25852,68.50024-12.25852C327.50675,745.76015,325.71954,709.015,309.95931,701.65015Z"/>
        <path class="cls-15" d="M-45.29895,387.48574l171.98,99.15135a11.99606,11.99606,0,0,0,6.68274,1.58354l30.20228,5.30276a17.14,17.14,0,0,1,13.11071,10.93339l2.34727,6.34313-7.91663-25.4596-8.84012-8.37907L-6.87941,379.44336l-37.02,2.13635A3.16733,3.16733,0,0,0-45.29895,387.48574Z"/>
        <path class="cls-35" d="M423.96652,412.54672c-18.48509-53.58981-90.69782-19.32272-83.07937,62.57038l23.00358,125.19473c6.48567,35.73833,99.76146,28.64236,96.9111-12.79737C455.56431,537.743,447.86562,481.83219,423.96652,412.54672Z"/>
        <g>
          <path class="cls-36" d="M225.09912,149.23347s-26.70089,18.86232-24.4386,56.33764c1.56921,25.99423,26.781,49.96132,26.781,49.96132l5.31147-84.19651Z"/>
          <path class="cls-30" d="M265.24476,322.29516c32.57037-5.15115,50.78465-21.21793,54.69841-51.24977l8.35539-64.94174C332.40107,180,310.60075,153.481,279.94376,151.367c-26.79381-1.84767-55.97562,18.3863-58.0368,48.067,0,0-2.05552,36.65771.15989,65.93989S235.64538,326.97643,265.24476,322.29516Z"/>
          <path class="cls-37" d="M221.039,220.32711c5.31362-.12262,15.21587-8.29743,21.2666-25.32642,3.21709,18.382,9.35919,29.40293,29.25857,40.59387,17.3114,9.73554,37.90995,9.41331,37.90995,9.41331l-3.34426,5.60654,9.18576,6.49181c-2.79678,18.12269-4.42736,32.848.92377,49.95224,20.18042-6.66656,30.6919-22.39357,26.24952-44.96286,0,0,26.47109-33.70074,16.544-74.14163-7.257-29.56336-37.68356-49.52988-75.72267-52.22452-30.82205-2.18339-64.21826,6.60723-75.72643,36.80388S221.039,220.32711,221.039,220.32711Z"/>
          <g>
            <path class="cls-38" d="M235.42888,254.60831c5.88-1.93536,13.6659-.15049,20.3738,5.67339"/>
            <line class="cls-38" x1="287.78383" y1="257.80712" x2="325.81853" y2="240.43715"/>
            <path class="cls-18" d="M236.96761,262.60945c-3.401,6.67936-22.54062,6.503-28.79907-2.49628-7.32152-10.52788-6.61806-26.3462-.80617-27.43589s21.3872,4.277,25.92455,9.00691C239.058,247.70016,239.99251,256.66869,236.96761,262.60945Z"/>
            <path class="cls-18" d="M251.14017,263.62026c-3.07392-5.71483-2.68246-14.32425,2.03543-17.68373,4.519-3.21785,24.51654-1.48672,31.35212,3.91874,4.9486,3.91329,10.32766,15.13152,3.83478,23.45261C280.64272,283.20135,259.39073,278.95912,251.14017,263.62026Z"/>
          </g>
          <path class="cls-30" d="M309.31482,272.06594c10.60159.856,20.72114-13.22634,21.69244-25.25651s-8.62736-22.99563-18.175-18.3086C300.84679,234.38456,298.71323,271.21,309.31482,272.06594Z"/>
        </g>
      </g>
    </g>
  </g>
  <g>
    <rect class="cls-17" x="89.89837" y="146.52034" width="13.0597" height="66.85466" transform="translate(-98.99905 120.8905) rotate(-45)"/>
    <rect class="cls-17" x="89.89837" y="146.52034" width="13.0597" height="66.85466" transform="translate(37.37104 375.37493) rotate(-135)"/>
  </g>
  <g>
    <g>
      <g>
        <path class="cls-39" d="M504.75876,415.3815c-12.3016,13.14184-33.88423,38.36839-33.88423,38.36839s-2.77807,38.85693,10.44385,32.61035c8.54175-4.03564,40.1557-36.86173,40.1557-36.86173l17.41212-53.666S521.73748,397.24308,504.75876,415.3815Z"/>
        <path class="cls-28" d="M514.72719,456.32045l-3.052-23.29137-10.39669,36.4442C505.88674,465.08021,510.59829,460.44276,514.72719,456.32045Z"/>
        <path class="cls-29" d="M463.063,452.78288l-1.70711,9.383s-1.612,6,5.9837,8.617,9.57447-1.59574,9.57447-1.59574l1.21277-4.2766Z"/>
        <path class="cls-40" d="M486.897,720.686c1.63911,5.94963,3.14465,11.54659-.1745,16.54537-4.15686,6.26042-12.33266,5.78225-22.69969,9.56577s-20.679,10.31364-38.15137,7.9583-15.94249-17.77939-10.97633-22.547l23.65718-9.42389,16-13.57447S483.25307,712.63829,486.897,720.686Z"/>
        <path class="cls-31" d="M480.61048,702.6943c3.644,8.0477,9.57006,23.03314,5.69012,29.46885s-11.91073,6.70152-22.27776,10.48505-20.679,10.31363-38.15137,7.95829-15.783-17.57269-7.06383-21.37513l19.74468-10.59574,16-13.57447S476.96652,694.64659,480.61048,702.6943Z"/>
        <path class="cls-30" d="M492.3524,601.65458l-11.4171-63.31683-45.3617,19.65957c-17.57447,9.31915-25.02128,24.55319-17.617,46.6383l38.12766,98.21276L447.5736,713.6569c1.38843,3.84871,7.53615,6.27789,7.53615,6.27789s24.172-6.12059,24.10214-14.76726l-2.234-5.10638c-7.91489-33.29787-.65869-54.0387-11.63742-94.63444Z"/>
        <path class="cls-41" d="M447.57363,713.6568c1.38843,3.84888,7.53613,6.27783,7.53613,6.27783s24.172-6.12036,24.10217-14.76709l-2.23413-5.10644c-7.15527,7.17187-14.65576,8.40161-22.42553,5Z"/>
        <path class="cls-40" d="M438.55232,718.63562c-1.97449,2.5437,3.70213,8.42553,9.27659,6.29787l18.62973-8.82967c-1.686-8.39477-10.16164-14.7448-15.58717-8.48948Z"/>
        <path class="cls-31" d="M539.11308,598.486l-24.22887-78.233-81.36975,34.54336c-19.35718,8.85106-25.43023,33.24346-18.40443,51.6475l26.36073,78.21419c5.16956,15.43745,38.84694,6.93617,36.9746-9.57447l-9.5876-64.33113Z"/>
        <path class="cls-40" d="M510.04168,745.94413s2.06715,15.99849.92994,21.49279c-1.42517,6.88558-5.97381,11.82947-6.98015,16.41276s-2.06663,14.17784-10.6627,19.85216c-16.56369,10.93378-33.07432-1.61941-26.88654-16.01084l7.08721-11.02576,13.47217-32.09933C489.20125,736.14626,509.14808,736.9974,510.04168,745.94413Z"/>
        <path class="cls-31" d="M510.04168,741.98668s2.06715,15.9985.92994,21.4928c-1.42517,6.88557-5.97381,11.82946-6.98015,16.41275s-3.07616,14.84548-10.6627,19.85216c-16.56493,10.9319-32.90411-1.15132-25.90891-14.30547l6.10958-12.73113,13.47217-32.09933C489.20125,732.18881,509.14808,733.04,510.04168,741.98668Z"/>
        <path class="cls-30" d="M501.58859,626.41484c-2.46809,4.93617-10.72063,18.596-11.12138,28.68886l.383,78.6383L486.408,746.84163c-2.07806,8.98967,17.67628,3.76488,17.67628,3.76488s2.99888-5.039,3.64837-6.606.15637-5.73168.15637-5.73168l-.443-3.88852c3.73365-15.47628,18.29446-40.99542,20.46808-69.57447l9.8487-12.93617C546.626,643.00416,509.24485,611.10232,501.58859,626.41484Z"/>
        <path class="cls-41" d="M504.08425,750.60651s2.9989-5.03906,3.64844-6.606c.64941-1.56714.15625-5.73169.15625-5.73169-6.826,6.537-18.10258,3.6008-18.35791-.35669l-3.123,8.92945C484.32985,755.83136,504.08425,750.60651,504.08425,750.60651Z"/>
        <path class="cls-40" d="M486.19842,746.797c1.30074-7.64328,17.52411-3.69325,17.88583,3.80956L495.87147,764.742c-2.256,3.52128-15.734,1.46809-14.10643-3.31908Z"/>
        <path class="cls-32" d="M520.38211,511.0186l-21.79154,16.67946,22.02155,47.73113s-24.72407,45.18636-30.25187,63.39912c-5.245,17.281-4.10544,72.10638-4.10544,72.10638.25375,14.5532,31.17856,15.6383,34.02566,6.19149L533.531,664.08243l49.4953-46.44644c17.01534-17.00037,25.8615-27.38335,25.8615-52.7096,0-27.8129-5.23137-40.7153-5.23137-40.7153Z"/>
        <path class="cls-42" d="M551.63855,394.43457c-19.57446,1.78724-34.38468,2.77672-35.14313,25.44681-9.45432,23.032-8.51815,42.75545-2.64581,68.30863l-3.40425,19.9149c-3.2766,12.97872,6.97961,25.5666,26.21276,36.0851,27.82979,15.21995,72.22972-6.17568,72.22972-6.17568s-2.4729-9.61381-5.73975-27.65214l12.31854-70.34239C607.63685,419.97725,582.89688,407.7394,551.63855,394.43457Z"/>
        <path class="cls-30" d="M591.51156,414.17331c-10.93909-7.01147-24.62659-13.24926-39.87293-19.73877-4.875.44507-9.454.84107-13.59448,1.53443-6.58325,10.83642-7.49048,26.36767,6.418,31.20166C561.01974,432.925,586.56,426.66086,591.51156,414.17331Z"/>
        <path class="cls-28" d="M607.1213,538.8176,606.447,527.26c-.1427-.67529-.29089-1.38574-.44323-2.12256l-22.78492-60.83056,1.63055,49.72243a30.14745,30.14745,0,0,1-8.29986,21.77892l-13.1438,13.80163C582.5837,548.97263,601.39877,541.33811,607.1213,538.8176Z"/>
        <path class="cls-30" d="M615.25184,441.08912l-30.46606,23.21774,16.04256,64.39379L571.214,552.23722l2.61669,16.931s47.29413-9.53132,53.04022-32.4676C630.16508,523.552,615.25184,441.08912,615.25184,441.08912Z"/>
      </g>
      <polygon class="cls-29" points="454.556 468.023 467.191 481.987 465.807 464.147 454.556 468.023"/>
      <path class="cls-15" d="M492.55529,545.62371l59.64555,34.38736a3.31544,3.31544,0,0,0,4.78926-3.956L520.93053,471.80164a9.61866,9.61866,0,0,0-4.286-5.18877l-68.41356-39.44236L486.7863,538.63967A12.9466,12.9466,0,0,0,492.55529,545.62371Z"/>
      <polygon class="cls-34" points="501.765 468.275 545.679 559.169 548.552 556.281 516.828 468.275 501.765 468.275"/>
      <path class="cls-30" d="M453.932,443.32378l-2.0803-5.88059-1.73468,1.1162a6.50427,6.50427,0,0,0-2.6123,3.11182,11.0194,11.0194,0,0,0-.68446,3.09158c-.28,3.79317.97851,10.87293,2.005,15.29956,1.50415,6.48633,6.44506,10.12106,12.93127,8.61694,3.24305-.752,7.30658-1.11142,8.939-3.7295,1.63235-2.61832.83394-7.49492.08184-10.73821C469.77443,449.88665,460.61879,445.5427,453.932,443.32378Z"/>
      <path class="cls-29" d="M546.82834,408.94521c.47054,3.98612,1.82564,7.12237,6.46743,7.98948,9.41877,1.75948,22.68673-5.02591,21.36235-12.40425l-4.12424-22.35918-24.88952,6.13565Z"/>
    </g>
    <path class="cls-30" d="M571.214,552.23722s-9.83558-4.10745-13.99051-4.5025a40.17647,40.17647,0,0,0-9.77.77162l1.7483,5.056-4.60372,4.72947-9.64637.92921a3.006,3.006,0,0,0-1.9313,5.02921c3.73984,4.03933,9.36135,9.42984,13.132,9.93063,8.296,1.10182,26.58883-4.75823,26.58883-4.75823C578.02513,569.35881,577.33141,555.09593,571.214,552.23722Z"/>
    <path class="cls-15" d="M433.31812,430.29221l66.75519,38.48626a4.65626,4.65626,0,0,0,2.59394.61466l11.72322,2.0583a6.653,6.653,0,0,1,5.089,4.24387l.91111,2.46213-3.07289-9.88231-3.43135-3.25239-65.65543-37.85222-14.36958.82924A1.22942,1.22942,0,0,0,433.31812,430.29221Z"/>
    <path class="cls-43" d="M615.46663,440.0198c-7.17511-20.80124-35.205-7.50024-32.24781,24.28711l8.929,48.59517c2.51745,13.87207,38.72307,11.11772,37.61669-4.96739C627.73153,488.61558,624.74323,466.91342,615.46663,440.0198Z"/>
    <g>
      <path class="cls-44" d="M538.27493,337.813a25.62294,25.62294,0,0,0-9.486,21.86783c.60909,10.08984,10.39522,19.39282,10.39522,19.39282l2.06168-32.68144Z"/>
      <path class="cls-30" d="M553.85773,404.98806c12.6424-1.99945,19.7124-8.23588,21.23155-19.89294l3.2432-25.20757c1.59242-10.1323-6.86952-20.42582-18.76924-21.24641-10.40019-.71719-21.72731,7.13676-22.52737,18.65754a233.4335,233.4335,0,0,0,.06206,25.595C537.95786,394.25976,542.36853,406.80512,553.85773,404.98806Z"/>
      <path class="cls-45" d="M536.699,365.40848c2.06252-.04759,5.90614-3.2207,8.25477-9.83062,1.24874,7.13511,3.63284,11.413,11.35691,15.75679,6.71954,3.77891,14.715,3.65383,14.715,3.65383l-1.29809,2.17622,3.56551,2.51984c-1.08559,7.03444-1.71851,12.75015.35857,19.38929,7.83316-2.58767,11.91326-8.69221,10.18893-17.45263,0,0,10.27492-13.08117,6.42166-28.77857-2.81684-11.47521-14.62712-19.22535-29.39226-20.27129-11.96378-.8475-24.92674,2.56464-29.39371,14.28567S536.699,365.40848,536.699,365.40848Z"/>
      <g>
        <path class="cls-46" d="M542.28449,378.715c2.28238-.75123,5.30452-.05842,7.90823,2.20216"/>
        <line class="cls-46" x1="562.60642" y1="379.9566" x2="577.36984" y2="373.21433"/>
        <path class="cls-18" d="M542.88176,381.82065c-1.32011,2.59264-8.74929,2.52418-11.17855-.96894-2.84189-4.08647-2.56884-10.22646-.31292-10.64943s8.30158,1.66014,10.06279,3.49609A7.364,7.364,0,0,1,542.88176,381.82065Z"/>
        <path class="cls-18" d="M548.38294,382.213c-1.19317-2.21825-1.04122-5.56006.79006-6.86406,1.75407-1.249,9.51626-.57708,12.16954,1.52109,1.92083,1.519,4.00874,5.87339,1.48849,9.10328C559.83455,389.81354,551.58545,388.16689,548.38294,382.213Z"/>
      </g>
      <path class="cls-30" d="M570.96382,385.49125c4.11507.33225,8.043-5.13389,8.42006-9.80348s-3.34877-8.9259-7.05476-7.10661C567.67689,370.865,566.84874,385.159,570.96382,385.49125Z"/>
    </g>
  </g>
</svg>
