<svg id="Layer_1" data-name="Layer 1" xmlns="http://www.w3.org/2000/svg" xmlns:xlink="http://www.w3.org/1999/xlink" viewBox="0 0 1000 1000">
  <defs>
    <style>
      .cls-1, .cls-50 {
        fill: none;
      }

      .cls-2 {
        fill: #d6ceb9;
      }

      .cls-3 {
        fill: url(#linear-gradient);
      }

      .cls-4 {
        fill: url(#linear-gradient-2);
      }

      .cls-5 {
        fill: #b7babc;
      }

      .cls-46, .cls-6 {
        fill: #fff;
      }

      .cls-6 {
        opacity: 0.7;
      }

      .cls-7 {
        fill: url(#linear-gradient-3);
      }

      .cls-8 {
        fill: url(#linear-gradient-4);
      }

      .cls-9 {
        fill: url(#linear-gradient-5);
      }

      .cls-10 {
        fill: url(#linear-gradient-6);
      }

      .cls-11 {
        fill: url(#linear-gradient-7);
      }

      .cls-12 {
        fill: url(#linear-gradient-8);
      }

      .cls-13 {
        fill: url(#linear-gradient-9);
      }

      .cls-14 {
        fill: url(#linear-gradient-10);
      }

      .cls-15 {
        fill: url(#linear-gradient-11);
      }

      .cls-16 {
        fill: url(#linear-gradient-12);
      }

      .cls-17, .cls-95 {
        fill: #dd7b19;
      }

      .cls-17 {
        opacity: 0.5;
      }

      .cls-18 {
        fill: url(#linear-gradient-13);
      }

      .cls-19 {
        fill: url(#linear-gradient-14);
      }

      .cls-20 {
        fill: url(#linear-gradient-15);
      }

      .cls-21 {
        fill: #ccd3d6;
      }

      .cls-22 {
        fill: #b8cbd8;
      }

      .cls-23 {
        fill: url(#linear-gradient-16);
      }

      .cls-24 {
        fill: url(#linear-gradient-17);
      }

      .cls-25 {
        fill: #5e5e5e;
      }

      .cls-26 {
        fill: url(#linear-gradient-18);
      }

      .cls-27 {
        fill: #fff2d7;
      }

      .cls-28 {
        fill: #ffcb48;
      }

      .cls-29 {
        fill: #4f4f4f;
      }

      .cls-30 {
        fill: url(#linear-gradient-19);
      }

      .cls-31 {
        fill: #777;
      }

      .cls-32 {
        fill: url(#linear-gradient-20);
      }

      .cls-33 {
        fill: url(#linear-gradient-21);
      }

      .cls-34 {
        fill: url(#linear-gradient-22);
      }

      .cls-35 {
        fill: url(#linear-gradient-23);
      }

      .cls-36 {
        fill: url(#linear-gradient-24);
      }

      .cls-37 {
        fill: url(#linear-gradient-25);
      }

      .cls-38 {
        fill: #27343d;
      }

      .cls-39 {
        fill: #e48f7c;
      }

      .cls-40 {
        fill: #ffbda3;
      }

      .cls-41 {
        fill: #303d49;
      }

      .cls-42 {
        fill: url(#linear-gradient-26);
      }

      .cls-43 {
        fill: url(#linear-gradient-27);
      }

      .cls-44 {
        fill: url(#linear-gradient-28);
      }

      .cls-45 {
        fill: #e2e2e2;
      }

      .cls-47 {
        fill: url(#linear-gradient-29);
      }

      .cls-48 {
        fill: url(#linear-gradient-30);
      }

      .cls-49 {
        fill: url(#linear-gradient-31);
      }

      .cls-50 {
        stroke: #37444f;
        stroke-miterlimit: 10;
        stroke-width: 1.10253px;
      }

      .cls-51 {
        fill: #eaeaea;
      }

      .cls-52 {
        fill: url(#linear-gradient-32);
      }

      .cls-53 {
        fill: url(#linear-gradient-33);
      }

      .cls-54 {
        fill: url(#linear-gradient-34);
      }

      .cls-55 {
        fill: url(#linear-gradient-35);
      }

      .cls-56 {
        fill: url(#linear-gradient-36);
      }

      .cls-57 {
        fill: #a9b5bf;
      }

      .cls-58 {
        fill: url(#linear-gradient-37);
      }

      .cls-59 {
        fill: url(#linear-gradient-38);
      }

      .cls-60 {
        fill: url(#linear-gradient-39);
      }

      .cls-61 {
        fill: url(#linear-gradient-40);
      }

      .cls-62 {
        fill: url(#linear-gradient-41);
      }

      .cls-63 {
        fill: url(#linear-gradient-42);
      }

      .cls-64 {
        fill: url(#linear-gradient-43);
      }

      .cls-65 {
        fill: #515151;
      }

      .cls-66 {
        fill: url(#linear-gradient-44);
      }

      .cls-67 {
        fill: url(#linear-gradient-45);
      }

      .cls-68 {
        fill: url(#linear-gradient-46);
      }

      .cls-69 {
        fill: url(#linear-gradient-47);
      }

      .cls-70 {
        fill: url(#linear-gradient-48);
      }

      .cls-71 {
        fill: url(#linear-gradient-49);
      }

      .cls-72 {
        fill: url(#linear-gradient-50);
      }

      .cls-73 {
        fill: url(#linear-gradient-51);
      }

      .cls-74 {
        fill: url(#linear-gradient-52);
      }

      .cls-75 {
        fill: url(#linear-gradient-53);
      }

      .cls-76 {
        fill: url(#linear-gradient-54);
      }

      .cls-77 {
        fill: url(#linear-gradient-55);
      }

      .cls-78 {
        fill: url(#linear-gradient-56);
      }

      .cls-79 {
        fill: #34a521;
      }

      .cls-80 {
        fill: url(#linear-gradient-57);
      }

      .cls-81 {
        fill: url(#linear-gradient-58);
      }

      .cls-82 {
        fill: url(#linear-gradient-59);
      }

      .cls-83 {
        fill: url(#linear-gradient-60);
      }

      .cls-84 {
        clip-path: url(#clip-path);
      }

      .cls-85 {
        fill: url(#linear-gradient-61);
      }

      .cls-86 {
        fill: url(#linear-gradient-62);
      }

      .cls-87 {
        fill: #541510;
        opacity: 0.3;
      }

      .cls-88 {
        fill: url(#linear-gradient-63);
      }

      .cls-89 {
        fill: url(#linear-gradient-64);
      }

      .cls-90 {
        fill: #bcd0e2;
      }

      .cls-91 {
        fill: #bcbcbc;
      }

      .cls-92 {
        fill: #e9f1f4;
      }

      .cls-93 {
        fill: url(#linear-gradient-65);
      }

      .cls-94 {
        fill: url(#linear-gradient-66);
      }

      .cls-95 {
        opacity: 0.6;
      }

      .cls-96 {
        fill: url(#linear-gradient-67);
      }

      .cls-97 {
        fill: #ffbea4;
      }
    </style>
    <linearGradient id="linear-gradient" x1="119.76982" y1="396.22833" x2="526.41606" y2="396.22833" gradientUnits="userSpaceOnUse">
      <stop offset="0" stop-color="#c3d6e6"/>
      <stop offset="1" stop-color="#f2eee4"/>
    </linearGradient>
    <linearGradient id="linear-gradient-2" x1="526.40823" y1="448.86525" x2="526.40823" y2="932.70331" gradientUnits="userSpaceOnUse">
      <stop offset="0" stop-color="#f2ecda"/>
      <stop offset="0.99337" stop-color="#c4d5e6"/>
    </linearGradient>
    <linearGradient id="linear-gradient-3" x1="9598.56502" y1="390.40848" x2="9950.32993" y2="390.40848" gradientTransform="matrix(-1, 0, 0, 1, 10512.72774, 0)" gradientUnits="userSpaceOnUse">
      <stop offset="0" stop-color="#3e4c59"/>
      <stop offset="1" stop-color="#293440"/>
    </linearGradient>
    <linearGradient id="linear-gradient-4" x1="9657.16028" y1="630.93018" x2="9657.16028" y2="285.32439" gradientTransform="matrix(-1, 0, 0, 1, 10512.72774, 0)" gradientUnits="userSpaceOnUse">
      <stop offset="0" stop-color="#62778c"/>
      <stop offset="1" stop-color="#435466"/>
    </linearGradient>
    <linearGradient id="linear-gradient-5" x1="9774.41349" y1="563.24242" x2="9774.41349" y2="217.62078" xlink:href="#linear-gradient-4"/>
    <linearGradient id="linear-gradient-6" x1="9891.70068" y1="495.54657" x2="9891.70068" y2="149.88603" xlink:href="#linear-gradient-4"/>
    <linearGradient id="linear-gradient-7" x1="9609.93172" y1="393.68618" x2="9950.32993" y2="393.68618" gradientTransform="matrix(-1, 0, 0, 1, 10512.72774, 0)" gradientUnits="userSpaceOnUse">
      <stop offset="0" stop-color="#435466"/>
      <stop offset="1" stop-color="#62778c"/>
    </linearGradient>
    <linearGradient id="linear-gradient-8" x1="9598.54322" y1="393.68569" x2="9961.71391" y2="393.68569" gradientTransform="matrix(-1, 0, 0, 1, 10512.72774, 0)" gradientUnits="userSpaceOnUse">
      <stop offset="0" stop-color="#435466"/>
      <stop offset="1" stop-color="#7e858c"/>
    </linearGradient>
    <linearGradient id="linear-gradient-9" x1="9710.08863" y1="582.93315" x2="9710.08863" y2="278.74252" xlink:href="#linear-gradient-4"/>
    <linearGradient id="linear-gradient-10" x1="9827.34884" y1="515.23607" x2="9827.34884" y2="211.0389" xlink:href="#linear-gradient-4"/>
    <linearGradient id="linear-gradient-11" x1="9944.62462" y1="447.52682" x2="9944.62462" y2="143.32965" xlink:href="#linear-gradient-4"/>
    <linearGradient id="linear-gradient-12" x1="9887.94638" y1="156.26908" x2="9609.09998" y2="610.90995" gradientTransform="matrix(-1, 0, 0, 1, 10512.72774, 0)" gradientUnits="userSpaceOnUse">
      <stop offset="0.00005" stop-color="#ffcb48"/>
      <stop offset="1" stop-color="#e68e2b"/>
    </linearGradient>
    <linearGradient id="linear-gradient-13" x1="9970.12869" y1="206.67422" x2="9691.28229" y2="661.3151" xlink:href="#linear-gradient-12"/>
    <linearGradient id="linear-gradient-14" x1="9995.32917" y1="122.37224" x2="9580.69669" y2="448.80438" gradientTransform="matrix(-1, 0, 0, 1, 10512.72774, 0)" gradientUnits="userSpaceOnUse">
      <stop offset="0" stop-color="#a0a9b2"/>
      <stop offset="1" stop-color="#5b6f82"/>
    </linearGradient>
    <linearGradient id="linear-gradient-15" x1="9977.39009" y1="99.58612" x2="9562.75762" y2="426.01826" xlink:href="#linear-gradient-14"/>
    <linearGradient id="linear-gradient-16" x1="9958.68337" y1="75.82493" x2="9544.05089" y2="402.25708" gradientTransform="matrix(-1, 0, 0, 1, 10512.72774, 0)" gradientUnits="userSpaceOnUse">
      <stop offset="0" stop-color="#849bb2"/>
      <stop offset="1" stop-color="#5b6f82"/>
    </linearGradient>
    <linearGradient id="linear-gradient-17" x1="541.84729" y1="278.49767" x2="541.84729" y2="555.97504" gradientUnits="userSpaceOnUse">
      <stop offset="0" stop-color="#fffbf2"/>
      <stop offset="0.58386" stop-color="#fffbf2" stop-opacity="0"/>
    </linearGradient>
    <linearGradient id="linear-gradient-18" x1="503.36095" y1="274.44503" x2="577.7474" y2="274.44503" gradientUnits="userSpaceOnUse">
      <stop offset="0.00844" stop-color="#ffc63f"/>
      <stop offset="1" stop-color="#e68a23"/>
    </linearGradient>
    <linearGradient id="linear-gradient-19" x1="518.42035" y1="631.6546" x2="539.00419" y2="631.6546" gradientTransform="matrix(1, 0, 0, 1, 0, 0)" xlink:href="#linear-gradient-3"/>
    <linearGradient id="linear-gradient-20" x1="542.55935" y1="466.54624" x2="581.37628" y2="538.80545" gradientUnits="userSpaceOnUse">
      <stop offset="0" stop-color="#b2a784"/>
      <stop offset="1" stop-color="#6e7982"/>
    </linearGradient>
    <linearGradient id="linear-gradient-21" x1="494.74139" y1="499.49895" x2="536.39494" y2="628.0427" gradientUnits="userSpaceOnUse">
      <stop offset="0" stop-color="#8c8262"/>
      <stop offset="1" stop-color="#526575"/>
    </linearGradient>
    <linearGradient id="linear-gradient-22" x1="535.75932" y1="634.13403" x2="654.48062" y2="634.13403" gradientTransform="matrix(1, 0, 0, 1, 0, 0)" xlink:href="#linear-gradient-4"/>
    <linearGradient id="linear-gradient-23" x1="535.70252" y1="570.72838" x2="746.89164" y2="570.72838" gradientTransform="matrix(1, 0, 0, 1, 0, 0)" xlink:href="#linear-gradient-4"/>
    <linearGradient id="linear-gradient-24" x1="657.58708" y1="380.64509" x2="758.51109" y2="549.64802" xlink:href="#linear-gradient-21"/>
    <linearGradient id="linear-gradient-25" x1="625.66872" y1="399.10793" x2="706.28849" y2="558.10804" gradientUnits="userSpaceOnUse">
      <stop offset="0" stop-color="#b2a784"/>
      <stop offset="0.98707" stop-color="#676d73"/>
    </linearGradient>
    <linearGradient id="linear-gradient-26" x1="604.48522" y1="429.78788" x2="657.82506" y2="554.90603" gradientTransform="matrix(1, 0, 0, 1, 0, 0)" xlink:href="#linear-gradient-12"/>
    <linearGradient id="linear-gradient-27" x1="624.0549" y1="428.53471" x2="676.36479" y2="551.23692" gradientTransform="matrix(1, 0, 0, 1, 0, 0)" xlink:href="#linear-gradient-12"/>
    <linearGradient id="linear-gradient-28" x1="559.0398" y1="534.38026" x2="645.49316" y2="534.38026" gradientTransform="matrix(1, 0, 0, 1, 0, 0)" xlink:href="#linear-gradient-4"/>
    <linearGradient id="linear-gradient-29" x1="647.80673" y1="415.09858" x2="699.96631" y2="537.4482" gradientTransform="matrix(1, 0, 0, 1, 0, 0)" xlink:href="#linear-gradient-12"/>
    <linearGradient id="linear-gradient-30" x1="613.08115" y1="387.88237" x2="646.0079" y2="448.19031" gradientUnits="userSpaceOnUse">
      <stop offset="0" stop-color="#cebcb3"/>
      <stop offset="1" stop-color="#bfa090"/>
    </linearGradient>
    <linearGradient id="linear-gradient-31" x1="630.66426" y1="378.2824" x2="663.59101" y2="438.59034" xlink:href="#linear-gradient-30"/>
    <linearGradient id="linear-gradient-32" x1="645.75166" y1="704.92155" x2="666.33551" y2="704.92155" gradientTransform="matrix(1, 0, 0, 1, 0, 0)" xlink:href="#linear-gradient-3"/>
    <linearGradient id="linear-gradient-33" x1="746.89164" y1="649.05709" x2="767.47548" y2="649.05709" gradientTransform="matrix(1, 0, 0, 1, 0, 0)" xlink:href="#linear-gradient-3"/>
    <linearGradient id="linear-gradient-34" x1="702.35462" y1="578.26111" x2="742.66451" y2="652.61046" gradientTransform="matrix(1, 0, 0, 1, 0, 0)" xlink:href="#linear-gradient-16"/>
    <linearGradient id="linear-gradient-35" x1="713.94889" y1="555.41361" x2="750.22779" y2="616.32633" gradientUnits="userSpaceOnUse">
      <stop offset="0" stop-color="#9099a1"/>
      <stop offset="1" stop-color="#5b6f82"/>
    </linearGradient>
    <linearGradient id="linear-gradient-36" x1="659.68654" y1="582.09767" x2="665.65837" y2="693.77099" gradientUnits="userSpaceOnUse">
      <stop offset="0.0392" stop-color="#77828c"/>
      <stop offset="1" stop-color="#526575"/>
    </linearGradient>
    <linearGradient id="linear-gradient-37" x1="230.36279" y1="697.85226" x2="251.01762" y2="697.85226" gradientTransform="matrix(1, 0, 0, 1, 0, 0)" xlink:href="#linear-gradient-3"/>
    <linearGradient id="linear-gradient-38" x1="176.39847" y1="666.72736" x2="197.0533" y2="666.72736" gradientTransform="matrix(1, 0, 0, 1, 0, 0)" xlink:href="#linear-gradient-3"/>
    <linearGradient id="linear-gradient-39" x1="452.62741" y1="569.19808" x2="473.28225" y2="569.19808" gradientTransform="matrix(1, 0, 0, 1, 0, 0)" xlink:href="#linear-gradient-3"/>
    <linearGradient id="linear-gradient-40" x1="283.66169" y1="491.7745" x2="179.15458" y2="666.15208" gradientTransform="matrix(1, 0, 0, 1, 0, 0)" xlink:href="#linear-gradient-4"/>
    <linearGradient id="linear-gradient-41" x1="458.46189" y1="423.2852" x2="228.54625" y2="696.19805" xlink:href="#linear-gradient-21"/>
    <linearGradient id="linear-gradient-42" x1="449.48057" y1="443.23958" x2="227.32831" y2="683.30734" gradientUnits="userSpaceOnUse">
      <stop offset="0" stop-color="#b2a784"/>
      <stop offset="1" stop-color="#5b6f82"/>
    </linearGradient>
    <linearGradient id="linear-gradient-43" x1="478.18671" y1="469.80346" x2="256.03445" y2="709.87123" xlink:href="#linear-gradient-42"/>
    <linearGradient id="linear-gradient-44" x1="170.03594" y1="498.70772" x2="480.44199" y2="498.70772" gradientUnits="userSpaceOnUse">
      <stop offset="0" stop-color="#526575"/>
      <stop offset="1" stop-color="#8c8262"/>
    </linearGradient>
    <linearGradient id="linear-gradient-45" x1="170.03599" y1="472.66782" x2="480.44206" y2="472.66782" gradientUnits="userSpaceOnUse">
      <stop offset="0" stop-color="#748ea6"/>
      <stop offset="1" stop-color="#ccbf96"/>
    </linearGradient>
    <linearGradient id="linear-gradient-46" x1="829.73077" y1="738.50718" x2="846.45625" y2="738.50718" gradientTransform="matrix(1, 0, 0, 1, 0, 0)" xlink:href="#linear-gradient-3"/>
    <linearGradient id="linear-gradient-47" x1="899.20537" y1="698.4121" x2="915.93085" y2="698.4121" gradientTransform="matrix(1, 0, 0, 1, 0, 0)" xlink:href="#linear-gradient-3"/>
    <linearGradient id="linear-gradient-48" x1="760.90733" y1="698.4121" x2="777.63281" y2="698.4121" gradientTransform="matrix(1, 0, 0, 1, 0, 0)" xlink:href="#linear-gradient-3"/>
    <linearGradient id="linear-gradient-49" x1="755.79386" y1="589.29161" x2="925.39397" y2="708.72831" gradientUnits="userSpaceOnUse">
      <stop offset="0" stop-color="#8c8262"/>
      <stop offset="1" stop-color="#435466"/>
    </linearGradient>
    <linearGradient id="linear-gradient-50" x1="758.40963" y1="609.22105" x2="940.5506" y2="806.88879" gradientUnits="userSpaceOnUse">
      <stop offset="0" stop-color="#8c8262"/>
      <stop offset="0.60476" stop-color="#526575"/>
    </linearGradient>
    <linearGradient id="linear-gradient-51" x1="751.0554" y1="582.32353" x2="840.63292" y2="722.06447" xlink:href="#linear-gradient-42"/>
    <linearGradient id="linear-gradient-52" x1="769.92896" y1="625.19723" x2="881.22903" y2="720.5973" xlink:href="#linear-gradient-50"/>
    <linearGradient id="linear-gradient-53" x1="733.5657" y1="593.53487" x2="823.14323" y2="733.27581" xlink:href="#linear-gradient-42"/>
    <linearGradient id="linear-gradient-54" x1="750.90777" y1="647.38863" x2="862.20784" y2="742.78869" xlink:href="#linear-gradient-50"/>
    <linearGradient id="linear-gradient-55" x1="753.84636" y1="626.58673" x2="922.34627" y2="626.58673" xlink:href="#linear-gradient-21"/>
    <linearGradient id="linear-gradient-56" x1="753.8463" y1="597.15054" x2="922.34622" y2="597.15054" gradientUnits="userSpaceOnUse">
      <stop offset="0" stop-color="#ccbf96"/>
      <stop offset="1" stop-color="#748ea6"/>
    </linearGradient>
    <linearGradient id="linear-gradient-57" x1="160.88037" y1="296.58326" x2="160.88037" y2="494.5585" gradientUnits="userSpaceOnUse">
      <stop offset="0" stop-color="#fff2d7"/>
      <stop offset="0.98888" stop-color="#e6edf2" stop-opacity="0.6"/>
    </linearGradient>
    <linearGradient id="linear-gradient-58" x1="328.31965" y1="296.58346" x2="328.31965" y2="494.55841" xlink:href="#linear-gradient-57"/>
    <linearGradient id="linear-gradient-59" x1="245.35783" y1="303.74967" x2="245.35783" y2="507.39274" gradientTransform="matrix(1, 0, 0, 1, 0, 0)" xlink:href="#linear-gradient-4"/>
    <linearGradient id="linear-gradient-60" x1="159.80482" y1="127.53304" x2="347.91762" y2="355.05995" gradientUnits="userSpaceOnUse">
      <stop offset="0" stop-color="#e68a23"/>
      <stop offset="0.99156" stop-color="#ffc63f"/>
    </linearGradient>
    <clipPath id="clip-path">
      <path class="cls-1" d="M1455.98541,305.84375a194.17509,194.17509,0,1,1-71.04617-150.16185A193.78539,193.78539,0,0,1,1455.98541,305.84375Z"/>
    </clipPath>
    <linearGradient id="linear-gradient-61" x1="376.3409" y1="406.731" x2="1660.81082" y2="1391.77112" gradientTransform="matrix(1, 0, 0, 1, 0, 0)" xlink:href="#linear-gradient-4"/>
    <linearGradient id="linear-gradient-62" x1="-30.54184" y1="819.36937" x2="1080.42669" y2="1821.19994" gradientUnits="userSpaceOnUse">
      <stop offset="0" stop-color="#62788c"/>
      <stop offset="1" stop-color="#526575"/>
    </linearGradient>
    <linearGradient id="linear-gradient-63" x1="-105.11046" y1="1042.7479" x2="1897.74979" y2="1042.7479" gradientTransform="matrix(1, 0, 0, 1, 0, 0)" xlink:href="#linear-gradient-3"/>
    <linearGradient id="linear-gradient-64" x1="-105.11046" y1="1085.23368" x2="1897.74979" y2="1085.23368" gradientTransform="matrix(1, 0, 0, 1, 0, 0)" xlink:href="#linear-gradient-3"/>
    <linearGradient id="linear-gradient-65" x1="991.43819" y1="285.05761" x2="1027.59692" y2="639.20052" gradientTransform="matrix(1, 0, 0, 1, 0, 0)" xlink:href="#linear-gradient-12"/>
    <linearGradient id="linear-gradient-66" x1="40.42182" y1="530.18367" x2="1122.25786" y2="1133.65684" gradientTransform="matrix(1, 0, 0, 1, 0, 0)" xlink:href="#linear-gradient-12"/>
    <linearGradient id="linear-gradient-67" x1="981.68274" y1="280.24665" x2="1020.03772" y2="655.89981" gradientTransform="matrix(1, 0, 0, 1, 0, 0)" xlink:href="#linear-gradient-12"/>
  </defs>
  <g>
    <g>
      <polygon class="cls-2" points="526.4 81.236 933.047 316.004 933.047 711.22 526.4 476.43 526.4 81.236"/>
      <polygon class="cls-3" points="526.416 81.236 119.77 316.004 119.77 711.22 526.416 476.43 526.416 81.236"/>
    </g>
    <path class="cls-4" d="M126.787,723.3864l378.58059,218.564a42.10143,42.10143,0,0,0,42.1011-.00062l378.5612-218.56743a14.03381,14.03381,0,0,0,.00016-24.307L547.45226,480.49136a42.10144,42.10144,0,0,0-42.10408.00053l-378.562,218.58744A14.03381,14.03381,0,0,0,126.787,723.3864Z"/>
    <path class="cls-5" d="M573.95691,754.5533c-46.28793,0-83.81216-21.56548-83.81216-48.16783,0-22.04521,25.77888-40.61765,60.94976-46.33859l103.38611,59.69133C644.40441,739.84216,612.18068,754.5533,573.95691,754.5533Z"/>
    <path class="cls-5" d="M804.09391,631.52072,669.23967,553.55959a14.33363,14.33363,0,0,0-14.34784,0L520.0376,631.52072a7.1668,7.1668,0,0,0,0,12.40917L654.89183,721.891a14.33363,14.33363,0,0,0,14.34784,0l134.85424-77.96113A7.1668,7.1668,0,0,0,804.09391,631.52072Z"/>
  </g>
  <g>
    <g>
      <g>
        <g>
          <path class="cls-6" d="M914.18443,663.77282,554.43073,456.07868a6.8337,6.8337,0,0,1-3.417-5.91823V123.59866L914.18443,333.28571Z"/>
          <path class="cls-7" d="M562.39781,143.32641l11.36671-6.56037,340.3982,196.53735V637.49054l-11.3667,6.56037L562.39781,447.525Z"/>
          <polygon class="cls-8" points="808.339 285.324 808.339 576.399 902.796 630.93 902.795 624.346 814.034 573.114 814.034 288.613 808.339 285.324"/>
          <polygon class="cls-9" points="691.079 217.621 691.097 508.709 785.55 563.242 785.55 556.659 696.791 505.429 696.791 220.9 691.079 217.621"/>
          <polygon class="cls-10" points="573.765 149.886 573.803 440.998 668.29 495.547 668.29 488.963 579.531 437.733 579.531 153.216 573.765 149.886"/>
          <polygon class="cls-11" points="562.398 143.326 562.403 447.53 902.795 644.046 902.796 630.93 573.765 440.976 573.765 149.886 562.398 143.326"/>
          <path class="cls-12" d="M551.01383,123.59864V450.1605a6.83371,6.83371,0,0,0,3.417,5.91823l359.75372,207.694v-330.487Zm234.536,148.5678V576.3577L679.67911,515.23607V211.0389ZM902.795,644.04595l-105.85569-61.1128V278.74252L902.795,339.8613ZM562.40333,143.32632l105.88628,61.1365v304.1978L562.40333,447.53009Z"/>
        </g>
        <polygon class="cls-13" points="796.939 582.933 808.339 576.399 808.339 285.324 796.939 278.743 796.939 582.933"/>
        <polygon class="cls-14" points="679.679 515.236 691.079 508.703 691.079 217.621 679.679 211.039 679.679 515.236"/>
      </g>
      <polygon class="cls-15" points="562.403 447.527 573.803 440.998 573.765 149.886 562.403 143.33 562.403 447.527"/>
    </g>
    <g>
      <path class="cls-16" d="M718.66813,255.26162l-2.82681,294.00307s12.97615,15.70384,30.3445,25.1416,47.44,16.53084,47.44,16.53084,4.378,14.00731,26.19606,25.13166a131.50211,131.50211,0,0,0,42.72539,13.05006s1.77995,8.39876,11.461,13.57662c8.02821,4.267,19.32542,4.89358,24.68889,5.61891V358.34261s-10.34212,1.934-24.29416-5.38219-11.85572-13.565-11.85572-13.565-26.09891-3.06427-41.75649-12.27273-26.64457-27.3982-26.64457-27.3982a152.08914,152.08914,0,0,1-41.9317-12.32652C731.43658,277.5665,723.67727,259.96729,718.66813,255.26162Z"/>
      <path class="cls-17" d="M848.94422,337.02231c7.7864,1.68906,13.603,2.373,13.603,2.373a4.4862,4.4862,0,0,0,0,1.98657v287.7369a118.24757,118.24757,0,0,1-19.32071-3.94885Z"/>
      <path class="cls-17" d="M793.51581,590.911c-.06537-.01565-.1577-.03778-.28072-.06763l-.00916-.00227c-.11952-.02893-.26878-.06537-.43894-.10706l-.10562-.026c-.16018-.03943-.3358-.08287-.534-.13218l-.11427-.02851c-.21545-.05374-.44769-.112-.70268-.17645l-.085-.02151q-.40872-.10346-.879-.224l-.08864-.02275c-.3045-.07824-.62979-.16244-.96981-.25108l-.17747-.04632q-.51867-.13542-1.087-.28608l-.12528-.03314q-.62507-.166-1.30376-.34908l-.03006-.00813c-3.34014-.90208-7.622-2.11463-12.29586-3.5766l5.763-288.52513a133.9063,133.9063,0,0,0,14.09446,2.69738h.0001l-.52037,291.21273-.09769-.02327Z"/>
      <path class="cls-18" d="M547.85474,157.64669l-2.84032,289.88013c0,3.61444,4.8086,9.10485,14.92817,14.27229a80.8766,80.8766,0,0,0,22.77681,7.49573s10.16563,12.3128,24.48376,20.38693c12.88244,7.26453,36.01649,12.24514,36.01649,12.24514s14.88628,22.61966,29.42875,31.34743,37.82946,15.265,43.19292,15.99035l2.82681-294.00307s-26.66657-3.64144-41.30977-12.18168c-14.76692-8.61241-29.83251-26.76187-29.83251-26.76187s-21.07106-1.44375-39.67676-13.10638-21.10033-23.711-21.10033-23.711a32.71909,32.71909,0,0,1-21.82281-4.02822C553.62569,169.0129,549.9845,162.841,547.85474,157.64669Z"/>
      <path class="cls-17" d="M702.38148,252.10658c9.02325,2.16115,16.2866,3.15506,16.2866,3.15506l-2.82678,294.003c-2.80793-.37975-10.53062-2.35458-19.337-5.40052Z"/>
      <path class="cls-17" d="M631.22493,213.24951a91.71749,91.71749,0,0,0,16.30091,3.06858l-4.30626,285.60879s-9.25043-1.993-19.30907-5.294Z"/>
      <path class="cls-17" d="M569.16914,177.59989a34.73063,34.73063,0,0,0,17.57956,1.90077l-4.02936,289.79413a81.02,81.02,0,0,1-19.32729-5.85943Z"/>
    </g>
    <g>
      <g>
        <circle class="cls-19" cx="545.26644" cy="144.31207" r="7.98823"/>
        <path class="cls-20" d="M546.26189,149.9573,897.80024,352.96042l3.89213-6.74136L550.14094,143.20839l-.00177.00308a1.96035,1.96035,0,0,0-1.934.206,6.08478,6.08478,0,0,0-2.76124,4.76281A1.9097,1.9097,0,0,0,546.26189,149.9573Z"/>
        <path class="cls-21" d="M544.88619,149.91087a5.25327,5.25327,0,0,0,2.513,4.73923,4.73186,4.73186,0,0,0,2.41172.64112,5.954,5.954,0,0,0,3.52513-1.24806l-3.72731-2.15889a1.16686,1.16686,0,0,1-.52294-.15195,1.33093,1.33093,0,0,1-.42165-.38788c-.64112-.87706-.50606-2.58054.42165-4.18273.87706-1.518,2.17577-2.46236,3.22125-2.46236a1.332,1.332,0,0,1,.72553.1855l4.18272,2.41192a5.45526,5.45526,0,0,0-2.49613-5.34678,4.9413,4.9413,0,0,0-2.41212-.62383,6.0919,6.0919,0,0,0-3.44072,1.14677,9.16922,9.16922,0,0,0-2.69831,3.00219,9.49659,9.49659,0,0,0-1.24807,3.71043C544.90307,149.4219,544.88619,149.67473,544.88619,149.91087Z"/>
        <path class="cls-21" d="M584.08018,172.55126a5.25329,5.25329,0,0,0,2.513,4.73923,4.732,4.732,0,0,0,2.41172.64112,5.954,5.954,0,0,0,3.52513-1.24807l-3.72731-2.15889a1.167,1.167,0,0,1-.52294-.15194,1.33106,1.33106,0,0,1-.42165-.38789c-.64112-.87706-.50606-2.58054.42165-4.18272.87706-1.518,2.17577-2.46237,3.22125-2.46237a1.33193,1.33193,0,0,1,.72553.18551l4.18273,2.41192a5.45531,5.45531,0,0,0-2.49613-5.34679,4.94136,4.94136,0,0,0-2.41213-.62383,6.0919,6.0919,0,0,0-3.44072,1.14677,9.16932,9.16932,0,0,0-2.69831,3.00219,9.49679,9.49679,0,0,0-1.24806,3.71043C584.09706,172.06229,584.08018,172.31511,584.08018,172.55126Z"/>
      </g>
      <circle class="cls-21" cx="549.37177" cy="156.86599" r="2.69138"/>
      <circle class="cls-21" cx="587.00954" cy="178.4773" r="2.69138"/>
      <path class="cls-21" d="M643.84842,207.05037a5.25325,5.25325,0,0,0,2.513,4.73923,4.73179,4.73179,0,0,0,2.41171.64112,5.95407,5.95407,0,0,0,3.52514-1.24806l-3.72731-2.1589a1.16688,1.16688,0,0,1-.523-.15194,1.33115,1.33115,0,0,1-.42165-.38788c-.64112-.87706-.50606-2.58054.42165-4.18273.87706-1.518,2.17578-2.46236,3.22125-2.46236a1.332,1.332,0,0,1,.72553.1855l4.18273,2.41192a5.45528,5.45528,0,0,0-2.49613-5.34678,4.94133,4.94133,0,0,0-2.41213-.62383,6.09192,6.09192,0,0,0-3.44072,1.14677,9.16944,9.16944,0,0,0-2.69831,3.00219,9.49668,9.49668,0,0,0-1.24806,3.71043C643.8653,206.5614,643.84842,206.81423,643.84842,207.05037Z"/>
      <circle class="cls-21" cx="647.33196" cy="214.07367" r="2.69138"/>
      <path class="cls-21" d="M712.13858,246.48948a5.25327,5.25327,0,0,0,2.513,4.73923,4.73186,4.73186,0,0,0,2.41172.64112,5.954,5.954,0,0,0,3.52513-1.24806l-3.72731-2.1589a1.16688,1.16688,0,0,1-.52294-.15194,1.33115,1.33115,0,0,1-.42165-.38788c-.64112-.87706-.50606-2.58054.42165-4.18273.87706-1.518,2.17577-2.46236,3.22125-2.46236a1.332,1.332,0,0,1,.72553.1855l4.18273,2.41192a5.45528,5.45528,0,0,0-2.49613-5.34678,4.94133,4.94133,0,0,0-2.41213-.62383,6.09192,6.09192,0,0,0-3.44072,1.14677,9.16922,9.16922,0,0,0-2.69831,3.00219,9.49668,9.49668,0,0,0-1.24806,3.71043C712.15547,246.00051,712.13858,246.25334,712.13858,246.48948Z"/>
      <circle class="cls-21" cx="716.59102" cy="253.67305" r="2.69138"/>
      <path class="cls-21" d="M717.86072,249.78a5.25329,5.25329,0,0,0,2.513,4.73923,4.73186,4.73186,0,0,0,2.41172.64112,5.954,5.954,0,0,0,3.52513-1.24807l-3.72731-2.15889a1.167,1.167,0,0,1-.52294-.15194,1.33093,1.33093,0,0,1-.42165-.38788c-.64112-.87707-.50606-2.58055.42165-4.18273.87706-1.518,2.17577-2.46236,3.22125-2.46236a1.33192,1.33192,0,0,1,.72553.1855l4.18272,2.41192a5.45527,5.45527,0,0,0-2.49613-5.34679,4.9414,4.9414,0,0,0-2.41212-.62382,6.09182,6.09182,0,0,0-3.44072,1.14677,9.16918,9.16918,0,0,0-2.69831,3.00218,9.49664,9.49664,0,0,0-1.24807,3.71043C717.8776,249.291,717.86072,249.5438,717.86072,249.78Z"/>
      <circle class="cls-21" cx="719.94205" cy="255.67287" r="2.69138"/>
      <path class="cls-22" d="M790.13876,291.53305a5.25325,5.25325,0,0,0,2.513,4.73922,4.73179,4.73179,0,0,0,2.41171.64112,5.95407,5.95407,0,0,0,3.52514-1.24806l-3.72731-2.15889a1.167,1.167,0,0,1-.52295-.15194,1.33117,1.33117,0,0,1-.42165-.38789c-.64112-.87706-.50606-2.58054.42165-4.18272.87706-1.518,2.17578-2.46237,3.22125-2.46237a1.332,1.332,0,0,1,.72553.1855l4.18273,2.41193a5.45531,5.45531,0,0,0-2.49613-5.34679,4.94133,4.94133,0,0,0-2.41213-.62383,6.09192,6.09192,0,0,0-3.44072,1.14677,9.16922,9.16922,0,0,0-2.69831,3.00219,9.49679,9.49679,0,0,0-1.24806,3.71043C790.15565,291.04407,790.13876,291.2969,790.13876,291.53305Z"/>
      <circle class="cls-22" cx="793.62231" cy="298.55634" r="2.69138"/>
      <path class="cls-22" d="M858.96841,331.328a5.25326,5.25326,0,0,0,2.513,4.73922,4.73186,4.73186,0,0,0,2.41172.64112,5.954,5.954,0,0,0,3.52513-1.24806l-3.72731-2.15889a1.167,1.167,0,0,1-.52294-.15194,1.331,1.331,0,0,1-.42165-.38789c-.64112-.87706-.50606-2.58054.42165-4.18272.87706-1.518,2.17577-2.46237,3.22125-2.46237a1.332,1.332,0,0,1,.72553.1855l4.18273,2.41193a5.45531,5.45531,0,0,0-2.49613-5.34679,4.94136,4.94136,0,0,0-2.41213-.62383,6.0919,6.0919,0,0,0-3.44072,1.14677,9.16922,9.16922,0,0,0-2.69831,3.00219,9.49662,9.49662,0,0,0-1.24806,3.71043C858.98529,330.839,858.96841,331.09184,858.96841,331.328Z"/>
      <circle class="cls-22" cx="862.45196" cy="338.35128" r="2.69138"/>
      <path class="cls-22" d="M893.47873,351.18726a5.25327,5.25327,0,0,0,2.513,4.73923,4.73192,4.73192,0,0,0,2.41171.64112,5.954,5.954,0,0,0,3.52514-1.24807l-3.72731-2.15889a1.167,1.167,0,0,1-.523-.15194,1.33106,1.33106,0,0,1-.42165-.38789c-.64112-.87706-.50606-2.58054.42165-4.18272.87707-1.518,2.17578-2.46236,3.22125-2.46236a1.33192,1.33192,0,0,1,.72553.1855l4.18273,2.41192a5.45531,5.45531,0,0,0-2.49613-5.34679,4.94133,4.94133,0,0,0-2.41213-.62383,6.09192,6.09192,0,0,0-3.44072,1.14677,9.16954,9.16954,0,0,0-2.69831,3.00219,9.49679,9.49679,0,0,0-1.24806,3.71043C893.49561,350.69829,893.47873,350.95111,893.47873,351.18726Z"/>
      <circle class="cls-22" cx="896.96227" cy="358.21056" r="2.69138"/>
    </g>
    <circle class="cls-23" cx="904.53263" cy="351.75757" r="7.98823"/>
  </g>
  <g>
    <polygon class="cls-24" points="503.481 282.857 415.365 553.598 668.33 553.598 577.289 281.146 503.481 282.857"/>
    <g>
      <path class="cls-25" d="M567.627,531.495c-2.90129-7.07889-13.90631-12.35289-27.07292-12.35289s-24.17164,5.274-27.07282,12.35289h-.77251v3.69843c0,8.86492,12.46673,16.05133,27.84533,16.05133s27.84543-7.18641,27.84543-16.05133V531.495Z"/>
      <ellipse class="cls-25" cx="540.55412" cy="530.95026" rx="27.84539" ry="16.05137"/>
    </g>
    <path class="cls-25" d="M536.90552,297.84787V527.62039c0,1.16158,1.63353,2.10321,3.64859,2.10321s3.6486-.94163,3.6486-2.10321V297.84787Z"/>
    <g>
      <path class="cls-26" d="M577.637,282.93021h.00194l-.006-.03039a12.807,12.807,0,0,0-.34414-1.75344L569.803,243.0165H511.29973l-7.48794,38.15479a12.79918,12.79918,0,0,0-.33071,1.68569l-.01448.07323h.00459a12.51394,12.51394,0,0,0-.11024,1.56795c0,11.80534,16.652,21.37539,37.193,21.37539,20.54138,0,37.1934-9.57005,37.1934-21.37539A12.48008,12.48008,0,0,0,577.637,282.93021Z"/>
      <ellipse class="cls-27" cx="540.55412" cy="244.45813" rx="29.36136" ry="16.87434"/>
      <path class="cls-25" d="M529.6132,260.109a49.53127,49.53127,0,0,0,21.8817,0v-8.60982H529.6132Z"/>
      <ellipse class="cls-25" cx="540.55412" cy="251.49922" rx="10.94091" ry="6.30684"/>
      <path class="cls-28" d="M540.55411,229.031c15.39192,0,27.914,6.92056,27.914,15.42712s-12.52211,15.42725-27.914,15.42725-27.914-6.92068-27.914-15.42725,12.52211-15.42712,27.914-15.42712m0-1.4472c-16.21576,0-29.36135,7.55492-29.36135,16.87432,0,9.31953,13.14559,16.87445,29.36135,16.87445s29.36134-7.55492,29.36134-16.87445c0-9.3194-13.14559-16.87432-29.36134-16.87432Z"/>
    </g>
  </g>
  <g>
    <g>
      <path class="cls-29" d="M539.00419,619.98841l-2.83568,18.96992c0,2.4094-3.3503,4.36246-7.48308,4.36246s-7.48308-1.95306-7.48308-4.36246l-2.782-18.96992Z"/>
      <path class="cls-30" d="M539.00419,619.98841l-2.83568,18.96992c0,2.4094-3.3503,4.36246-7.48308,4.36246s-7.48308-1.95306-7.48308-4.36246l-2.782-18.96992Z"/>
      <ellipse class="cls-31" cx="528.68545" cy="619.37164" rx="10.31868" ry="6.01552"/>
    </g>
    <g>
      <path class="cls-32" d="M535.69473,634.72168l-48.685-139.389,109.6418-63.16685.00506.01439c4.53592-2.6907,10.8491-2.34832,17.84065,1.68819,12.928,7.46407,23.56186,24.868,24.85806,40.05817l.0018.00079.003.03846.00078.00911,7.426,92.61494c.18042,2.25035-.38839,3.9337-1.44433,4.89078l.00135.00371-.01969.01136a3.35944,3.35944,0,0,1-1.19126.687Z"/>
      <path class="cls-33" d="M530.1359,536.88106l-.00068-.00911-.00312-.03846-.00175-.00079c-1.29622-15.19022-11.93009-32.59417-24.85813-40.05818-13.80307-7.9692-24.99265-1.58954-24.99265,14.24939,0,14.65913,9.5908,32.26488,21.96157,41.12694l4.85117,59.66111c.43425,5.34,4.16327,11.37349,8.61954,13.94632L530.536,634.317c4.16629,2.40541,7.42618.16855,7.026-4.821Z"/>
    </g>
    <g>
      <polygon class="cls-34" points="654.481 696.777 541.146 631.487 535.759 571.491 649.094 636.781 654.481 696.777"/>
      <path class="cls-35" d="M746.89164,569.96616l-113.335-65.2908-89.91317,51.7355a15.85981,15.85981,0,0,0-7.88412,15.07972v0l113.335,65.2908-.78388-10.08435Z"/>
    </g>
    <path class="cls-36" d="M620.58753,403.49693a27.85523,27.85523,0,0,1,18.01386-22.72458l16.10185-5.8462a35.18784,35.18784,0,0,1,29.88584,2.61613l66.58383,38.4188a44.22818,44.22818,0,0,1,21.82025,43.47042l-8.22172,112.94993L655.35178,509.24l9.94051-96.90317Z"/>
    <path class="cls-37" d="M718.16525,582.07771,608.74558,518.93628l11.84194-115.43936a18.42845,18.42845,0,0,1,27.5132-13.81038l59.95507,34.59751A44.22829,44.22829,0,0,1,729.876,467.75452Z"/>
    <g>
      <g>
        <g>
          <g>
            <path class="cls-38" d="M587.92657,657.50979s7.83382,15.7886,5.19005,20.51669-8.42339,5.10876-15.80334,8.07884-13.58817,7.49867-26.23185,6.2133-13.07806-9.18389-9.51035-14.63591l8.009-.40147,10.60366-4.63053,11.96869-11.17623Z"/>
            <path class="cls-39" d="M585.91309,653.74772s9.3764,16.32005,6.811,20.908-8.17374,4.95734-15.33495,7.83939-13.18542,7.27642-25.45436,6.02914-14.35837-11.62558-6.1238-13.64973l4.66691-.94195,9.059-6.47553,10.33464-12.41636Z"/>
            <path class="cls-38" d="M544.07683,674.78891c-9.47458,5.482-1.34892,16.62013,18.34282,14.17638l14.136-4.6827c-.42545-12.17207-12.1067-20.72911-17.5471-18.03916Z"/>
          </g>
          <path class="cls-39" d="M548.54037,613.37784l21.33114,41.66284s17.08608.26855,15.96386-4.49276l-13.01288-49.5616Z"/>
          <path class="cls-38" d="M626.09444,579.40446l-12.33119-56.35961s-55.24717,15.54892-72.24717,23.748c-13.54615,6.53326-19.4642,20.64545-13.20945,34.66327l26.87867,56.47784c5.10968,9.388,28.54907-.55819,27.81914-7.91716a286.77676,286.77676,0,0,0-7.30128-41.21183Z"/>
          <g>
            <path class="cls-38" d="M593.42933,701.74348s.98034,9.087.06573,13.40594c-1.15576,5.45765-2.699,8.27879-3.08291,11.88411-1.03294,9.70056-4.45723,16.72768-11.879,20.21487-15.09492,7.09244-22.70843-3.68319-19.47067-11.38337l5.8202-9.61736,10.77595-25.77439C580.972,694.52326,592.8568,695.77852,593.42933,701.74348Z"/>
            <path class="cls-40" d="M592.78149,694.47531s1.13076,14.632.14571,18.93785c-1.23448,5.39623-3.16962,9.77629-4.03691,13.36877s-1.31,11.51617-8.73735,15.62062c-14.60747,8.07228-24.95777-1.40622-19.749-9.66685l4.90528-10.72671,11.20322-27.23577Z"/>
            <path class="cls-38" d="M560.42746,730.30976c-7.74712,15.62454,13.6711,24.444,27.24251,5.97312l2.30713-10.92547c-2.84249-11.60795-18.95966-13.34142-23.12775-7.032Z"/>
          </g>
          <path class="cls-40" d="M578.19437,641.95524l-1.68189,52.818,16.269-.298c4.66106-20.08014,12.83762-48.69767,13.12814-56.2637Z"/>
          <path class="cls-41" d="M684.3633,529.9457l-65.007-9.435-10.76912,5.92547,9.43086,34.96512-31.16721,28.42058c-7.22816,6.07785-11.45834,17.55379-11.87108,28.401l-2.706,54.32386c-.03663,12.22663,28.02812,14.08364,30.90885,3.85477,4.26576-17.19534,11.70289-45.57887,11.70289-45.57887s41.6901-19.42886,59.01521-36.26579C698.14053,571.00012,684.3633,529.9457,684.3633,529.9457Z"/>
        </g>
        <g>
          <path class="cls-40" d="M609.81832,440.62842c-8.54091,12-19.05009,47.41338-19.05009,47.41338l-9.36645,17.11269s.51325,13.28617,7.79189,8.412c0,0,11.40607-3.41951,15.6984-8.10813s21.79157-34.668,23.27039-36.20871l-.312-10.3512,10.02728-30.79589Z"/>
          <path class="cls-42" d="M609.45456,437.25988c-8.971,11.682-19.96059,42.46376-19.96059,42.46376-6.28737,12.5586,21.23072,26.33566,27.51809,13.77707,2.84584-5.68423,9.67158-22.71039,11.1504-24.2511l-.312-10.3512L643.018,427.24566S620.79145,422.497,609.45456,437.25988Z"/>
          <path class="cls-17" d="M610.31644,464.52235l-8.12465,32.98134c5.97579,1.8737,12.21718,1.19661,14.8203-4.00292.13472-.26944.28113-.57145.43275-.88862Z"/>
          <path class="cls-43" d="M691.33245,532.20019c-.45791-9.80818-1.09407-17.09392-1.09407-17.09392l8.10033-31.89167q-.00205-.3657-.00783-.76444c-.49018-32.46168-27.73375-54.0131-60.45313-55.83274a23.95045,23.95045,0,0,0-18.81214,6.97136c-3.48764,3.513-5.87488,9.54074-5.90371,19.65442-5.92869,20.19979-4.62757,26.36375-.44817,48.03132l-1.97283,9.41993c-9.09818,28.60044,25.55928,44.58978,60.56789,39.83748C683.82962,548.83227,691.78455,541.88372,691.33245,532.20019Z"/>
          <path class="cls-17" d="M691.35918,509.48685l-19.23933-26.746L660.75066,521.7504,626.09447,531.702c-.65174,4.88807.93536,9.97175,2.4884,13.55311,11.61777,5.39265,27.1353,7.39312,42.72591,5.27682,12.52081-1.6997,20.4757-8.64814,20.02368-18.3318-.458-9.8082-1.09407-17.094-1.09407-17.094l1.32486-5.21642Z"/>
        </g>
      </g>
      <g>
        <path class="cls-40" d="M582.76658,504.36857s-7.79531.44092-11.39458,2.288-6.67736,11.13817-6.67736,11.13817l16.00323,8.24136,7.71832-10.14874,1.89247-.92865C593.7281,509.30475,587.55594,504.24823,582.76658,504.36857Z"/>
        <polygon class="cls-39" points="580.399 510.694 571.239 513.751 569.349 516.808 577.58 514.902 580.205 512.303 580.399 510.694"/>
        <g>
          <path class="cls-44" d="M644.71111,540.69509l-21.862-3.76776-22.78847-18.69874-39.33416,8.339a2.12618,2.12618,0,0,0-.85183,3.76795l23.34962,17.88278,18.61769,2.157a23.569,23.569,0,0,0,7.59432-.35451l35.31-7.47577A.942.942,0,0,0,644.71111,540.69509Z"/>
          <path class="cls-45" d="M644.95914,537.63593l-.17587-5.439-20.13821,1.87044-20.1709-17.549-42.98975,2.07593-.86477,7.22139,24.40058,19.54269,15.4575,1.50878a3.92441,3.92441,0,0,0,1.19414-.06655Z"/>
          <polygon class="cls-46" points="644.783 532.197 624.322 530.209 605.339 509.297 561.484 518.594 584.697 541.5 600.904 541.487 644.783 532.197"/>
          <path class="cls-40" d="M580.20521,512.30317l-4.68626,3.2754c-2.05576,1.65966.40006,3.80029,3.56664,2.88744,3.62722-1.26477,9.58112-4.243,12.09427-6.28621Z"/>
        </g>
        <path class="cls-40" d="M696.65372,473.658s-22.03229-7.90216-24.5339,9.083l-.33446,47.499-29.8569,4.14023.72507,12.98669,31.82267,1.46532c12.03955.81722,16.11869-7.25375,17.58511-15.47286C695.46627,514.275,699.14237,482.47531,696.65372,473.658Z"/>
        <path class="cls-47" d="M696.973,471.96278c-4.73462-14.86512-26.48734-5.32337-27.20086,9.9383l-1.45271,38.60964c-.02779,11.19135,27.7906,13.2327,28.83308,2.06583C698.95446,503.27459,699.46161,480.78008,696.973,471.96278Z"/>
        <path class="cls-40" d="M642.5243,534.613l-6.82174-1.60928a16.3722,16.3722,0,0,0-4.425-.42384l-10.1841.41459c-2.39121.14713-2.5191,3.52026.5062,4.25454l5.34294,1.00037-3.19548,5.73167-3.11415,3.4107-6.1775,1.56127s6.78333,3.93423,11.41623,3.47631c6.30522-.62322,17.40235-5.319,17.40235-5.319C647.15751,546.149,647.52777,535.66161,642.5243,534.613Z"/>
      </g>
      <g>
        <path class="cls-40" d="M674.495,438.62385a71.68205,71.68205,0,0,0-36.61725-12.00653,27.10362,27.10362,0,0,0-5.4062.2339c-4.08483,8.13336-4.22315,19.40437,5.935,22.93477C650.849,454.11031,670.00617,447.76961,674.495,438.62385Z"/>
        <path class="cls-39" d="M638.18465,430.39528l2.08512,9.37778c1.98076,7.90331,19.28815,3.27809,21.317-5.84268l-6.99874-20.24067Z"/>
        <g>
          <path class="cls-48" d="M620.12627,384.09788a22.22176,22.22176,0,0,0-6.36587,19.668c1.36688,8.65923,10.59019,15.87423,10.59019,15.87423l-.94455-28.384Z"/>
          <path class="cls-40" d="M639.17768,440.78746c10.74683-2.77987,16.33011-8.75278,16.66979-18.94232l.6984-22.03067c.53-8.8794-7.63275-17.05986-17.97353-16.77628-9.0377.24784-18.16109,7.97194-17.89138,17.98389a202.44712,202.44712,0,0,0,2.18715,22.0896C624.5579,432.8517,629.41115,443.31376,639.17768,440.78746Z"/>
          <path class="cls-49" d="M621.06615,408.05091c1.77649-.213,4.83-3.27259,6.30643-9.17434,1.67273,6.05525,4.08739,9.54934,11.11726,12.65527a28.49615,28.49615,0,0,0,13.00724,1.92753l-.93917,1.98682,3.288,1.878c.25,6.16233,3.597,12.94309,6.78939,13.85425,3.18948-3.35665,4.69591-5.643,2.47713-13.06166,0,0,7.77935-12.14876,3.14452-25.37827-3.38818-9.67111-14.2294-15.3769-27.06252-15.049-10.39833.26569-21.30411,4.29178-24.18315,14.78227S621.06615,408.05091,621.06615,408.05091Z"/>
          <g>
            <path class="cls-50" d="M626.4757,419.01216c1.86813-.72414,4.84364.31176,6.96,1.92709"/>
            <line class="cls-50" x1="642.84012" y1="421.85929" x2="654.634" y2="415.45959"/>
            <path class="cls-51" d="M626.20486,422.34621l-7.38348-2.11373a2.573,2.573,0,0,1-1.84481-1.92588l-.766-3.62885a1.201,1.201,0,0,1,1.53989-1.32809l7.38348,2.11374a2.573,2.573,0,0,1,1.84481,1.92588l.766,3.62885A1.201,1.201,0,0,1,626.20486,422.34621Z"/>
            <path class="cls-51" d="M642.839,425.94651l-9.16691-2.03936a2.50233,2.50233,0,0,1-1.983-1.89273l-.79127-3.72274a1.37353,1.37353,0,0,1,1.68855-1.46744l9.16691,2.03936a2.50233,2.50233,0,0,1,1.983,1.89273l.79127,3.72274A1.37354,1.37354,0,0,1,642.839,425.94651Z"/>
          </g>
          <path class="cls-40" d="M652.3192,422.531c3.58-.05622,6.51517-5.10226,6.45138-9.1647s-3.63486-7.42609-6.68239-5.54666C648.26255,410.17892,648.73918,422.58721,652.3192,422.531Z"/>
        </g>
      </g>
    </g>
    <g>
      <g>
        <path class="cls-29" d="M666.33551,693.25536l-2.83569,18.96992c0,2.4094-3.35029,4.36246-7.48307,4.36246s-7.48308-1.95306-7.48308-4.36246l-2.782-18.96992Z"/>
        <path class="cls-52" d="M666.33551,693.25536l-2.83569,18.96992c0,2.4094-3.35029,4.36246-7.48307,4.36246s-7.48308-1.95306-7.48308-4.36246l-2.782-18.96992Z"/>
        <ellipse class="cls-31" cx="656.01676" cy="692.63859" rx="10.31868" ry="6.01552"/>
      </g>
      <path class="cls-53" d="M767.47548,637.3909l-2.83568,18.96992c0,2.40939-3.3503,4.36245-7.48308,4.36245s-7.48308-1.95306-7.48308-4.36245l-2.782-18.96992Z"/>
      <g>
        <path class="cls-54" d="M758.83252,525.72157l.00078.00663c4.53941-2.72726,10.86778-2.41254,17.88789,1.6405,13.803,7.96921,24.99259,27.26949,24.99259,43.10847,0,14.65908-9.5907,21.19037-21.96152,15.7679l-4.85119,54.05947a5.49932,5.49932,0,0,1-2.57621,4.62534l.00394.035L663.06313,707.89292,649.749,588.51612Z"/>
        <path class="cls-55" d="M758.83252,525.72157l.00315.00529c4.53917-2.72581,10.86665-2.41053,17.88552,1.64184,13.803,7.96921,24.99259,27.26949,24.99259,43.10847,0,7.75494-2.70162,13.20564-7.0614,15.84483l.01744.02936-110.50676,63.5693L649.749,588.51612Z"/>
        <path class="cls-56" d="M642.63256,601.67124l.00068-.00832.00312-.03487.00175.00124c1.29622-13.69346,11.93009-18.81848,24.85813-11.35447,13.80307,7.9692,24.99266,27.26948,24.99266,43.10842,0,14.65913-9.59081,21.19036-21.96158,15.76789l-4.85117,54.05947c-.43425,4.83857-4.16326,6.56616-8.61954,3.99333l-14.82411-8.55871c-4.16629-2.4054-7.42618-8.40646-7.026-12.934Z"/>
      </g>
    </g>
  </g>
  <path class="cls-57" d="M172.52867,668.92847,406.552,533.86046a9.98062,9.98062,0,0,1,9.99052,0l61.40686,35.51321a4.9903,4.9903,0,0,1,0,8.64061l-234.02333,135.068a9.9806,9.9806,0,0,1-9.99051,0l-61.40687-35.51321A4.99031,4.99031,0,0,1,172.52867,668.92847Z"/>
  <g>
    <path class="cls-58" d="M251.01762,685.78642l-2.65153,19.72343c0,2.43463-3.4342,4.40824-7.67044,4.40824s-7.67023-1.97361-7.67023-4.40824l-2.66263-19.72343Z"/>
    <path class="cls-59" d="M197.0533,654.66152,194.40177,674.385c0,2.43463-3.4342,4.40824-7.67044,4.40824s-7.67023-1.97361-7.67023-4.40824l-2.66263-19.72343Z"/>
    <path class="cls-60" d="M473.28225,557.13225l-2.65153,19.72343c0,2.43462-3.4342,4.40824-7.67044,4.40824s-7.67023-1.97362-7.67023-4.40824l-2.66264-19.72343Z"/>
    <path class="cls-61" d="M174.24527,536.37639V661.73408a4.82753,4.82753,0,0,0,2.41063,4.19861L235.84884,700.157a9.6562,9.6562,0,0,0,4.84137,1.28575V517.98659Z"/>
    <path class="cls-62" d="M240.69021,517.98659V701.4427a9.65665,9.65665,0,0,0,4.84185-1.28575l228.277-131.75353a4.806,4.806,0,0,0,2.431-4.19861V438.84712Z"/>
    <polygon class="cls-63" points="465.387 456.405 465.387 503.361 251.544 626.785 251.544 579.829 465.387 456.405"/>
    <polygon class="cls-64" points="465.387 513.982 465.387 560.955 251.544 684.378 251.544 637.405 465.387 513.982"/>
    <polygon class="cls-65" points="373.737 574.139 373.737 580.848 343.193 598.477 343.193 591.768 373.737 574.139"/>
    <polygon class="cls-65" points="373.737 516.286 373.737 522.996 343.193 540.625 343.193 533.916 373.737 516.286"/>
    <path class="cls-66" d="M480.442,422.996v10.695a4.94379,4.94379,0,0,1-2.49267,4.32031L243.92614,573.07943a9.981,9.981,0,0,1-9.99063,0l-61.4069-35.51329a4.94379,4.94379,0,0,1-2.49267-4.32031V522.83766Z"/>
    <path class="cls-67" d="M172.52867,518.12492,406.552,383.05691a9.98062,9.98062,0,0,1,9.99052,0l61.40686,35.51321a4.9903,4.9903,0,0,1,0,8.6406l-234.02333,135.068a9.98065,9.98065,0,0,1-9.99051,0l-61.40687-35.51322A4.9903,4.9903,0,0,1,172.52867,518.12492Z"/>
  </g>
  <path class="cls-5" d="M920.27489,698.447,842.24715,653.338a8.29355,8.29355,0,0,0-8.30178,0L755.91763,698.447a4.14678,4.14678,0,0,0,0,7.18l78.02774,45.10893a8.29355,8.29355,0,0,0,8.30178,0L920.27489,705.627A4.14677,4.14677,0,0,0,920.27489,698.447Z"/>
  <g>
    <path class="cls-68" d="M829.73077,728.73673l2.14711,15.97127c0,1.97146,2.78088,3.56962,6.21122,3.56962s6.21105-1.59816,6.21105-3.56962l2.1561-15.97127Z"/>
    <path class="cls-69" d="M899.20537,688.64165l2.1471,15.97127c0,1.97146,2.78088,3.56962,6.21122,3.56962s6.21106-1.59816,6.21106-3.56962l2.1561-15.97127Z"/>
    <path class="cls-70" d="M760.90733,688.64165l2.14711,15.97127c0,1.97146,2.78088,3.56962,6.21122,3.56962s6.21106-1.59816,6.21106-3.56962l2.15609-15.97127Z"/>
    <g>
      <path class="cls-71" d="M917.67442,609.12654v85.2422a3.90914,3.90914,0,0,1-1.952,3.39987l-73.70853,42.60482a7.81927,7.81927,0,0,1-3.92035,1.04115v-132.288Z"/>
      <path class="cls-72" d="M838.09351,609.12654v132.288a7.81958,7.81958,0,0,1-3.92074-1.04115l-73.69206-42.60482a3.89169,3.89169,0,0,1-1.96851-3.39987v-85.2422Z"/>
      <polygon class="cls-73" points="832.077 690.494 764.529 651.459 764.552 621.552 832.077 660.6 832.077 690.494"/>
      <polygon class="cls-74" points="807.674 651.809 788.932 640.978 788.938 647.232 807.674 658.067 807.674 651.809"/>
      <polygon class="cls-75" points="832.077 728.99 764.529 689.954 764.552 660.047 832.077 699.095 832.077 728.99"/>
      <polygon class="cls-76" points="807.674 690.304 788.932 679.473 788.938 685.728 807.674 696.562 807.674 690.304"/>
      <path class="cls-77" d="M753.84636,597.15054v9.05987a4.10814,4.10814,0,0,0,2.07133,3.59l78.02761,45.109a8.29391,8.29391,0,0,0,8.30187,0l78.02777-45.109a4.10814,4.10814,0,0,0,2.07133-3.59v-9.05987Z"/>
      <path class="cls-78" d="M920.27489,593.56052l-78.02774-45.10893a8.29355,8.29355,0,0,0-8.30178,0l-78.02774,45.10893a4.14678,4.14678,0,0,0,0,7.18005l78.02774,45.10893a8.29355,8.29355,0,0,0,8.30178,0l78.02774-45.10893A4.14677,4.14677,0,0,0,920.27489,593.56052Z"/>
    </g>
  </g>
  <g>
    <g>
      <g>
        <path class="cls-79" d="M245.35791,115.93175a191.74873,191.74873,0,1,1-74.88721,15.113,191.17963,191.17963,0,0,1,74.88721-15.113m0-17.54224c-115.95068,0-209.94727,93.99659-209.94727,209.94727,0,115.95093,93.99659,209.94751,209.94727,209.94751s209.94727-93.99658,209.94727-209.94751c0-115.95068-93.99659-209.94727-209.94727-209.94727Z"/>
        <circle class="cls-22" cx="245.35783" cy="308.33688" r="194.19259"/>
        <path class="cls-80" d="M138.46094,297.82889l-62.05811,106.291a195.1182,195.1182,0,0,0,73.33936,73.26562c26.82348,14.687,57.11133,23.7461,88.24634,24.99073.42968.01611.85839.03613,1.28881.04931q.96607.0315,1.93384.05127c1.3794.02881,2.76026.05274,4.14673.05274V297.82889Z"/>
        <path class="cls-81" d="M352.5528,297.8291l58.43071,112.40669a194.05962,194.05962,0,0,1-165.32772,92.29368V297.8291Z"/>
        <rect class="cls-82" x="236.18501" y="314.47182" width="18.34563" height="191.19094"/>
      </g>
      <g>
        <circle class="cls-79" cx="425.70747" cy="193.23687" r="62.02326"/>
        <g>
          <rect class="cls-46" x="404.65068" y="184.59464" width="13.46241" height="40.4658" transform="translate(-24.34397 350.88352) rotate(-45)"/>
          <rect class="cls-46" x="430.86151" y="167.41377" width="13.46241" height="60.59444" transform="translate(607.21471 646.93854) rotate(-135)"/>
        </g>
      </g>
    </g>
    <path class="cls-83" d="M335.97515,314.47182H154.74051a16.27413,16.27413,0,0,1-15.95646-19.47393l35.57443-177.39916a16.27412,16.27412,0,0,1,15.95646-13.07433H300.40072a16.27411,16.27411,0,0,1,15.95645,13.07433L351.9316,294.99789A16.27412,16.27412,0,0,1,335.97515,314.47182Z"/>
  </g>
  <g class="cls-84">
    <g>
      <g>
        <path class="cls-85" d="M1911.05813,646.79857l-.00915,191.43376c0,11.45783-4.7641,23.33552-16.27258,30.0053L701.36519,1558.83494a65.4988,65.4988,0,0,1-32.956,8.76207V1085.23368Z"/>
        <path class="cls-86" d="M668.40921,1085.23368V1567.597a65.05674,65.05674,0,0,1-32.46548-8.76207L-57.50363,1158.49243A32.76752,32.76752,0,0,1-69.63331,1146.33a32.82273,32.82273,0,0,1-4.185-15.66053V937.02084Z"/>
        <g>
          <path class="cls-87" d="M1841.11924,588.50637V711.60072l-.03272-.03272a32.35522,32.35522,0,0,1-16.249,29.71906L701.356,1390.729a65.17023,65.17023,0,0,1-32.956,8.76207L840.47557,673.479Z"/>
          <path class="cls-88" d="M1841.11924,637.25505V760.3494l-.03272-.03272a32.35522,32.35522,0,0,1-16.249,29.71906L701.356,1439.47763a65.17023,65.17023,0,0,1-32.956,8.76207l172.07551-726.012Z"/>
          <path class="cls-89" d="M840.47557,722.22766l-172.07551,726.012a65.11781,65.11781,0,0,1-32.43276-8.76207L-57.48026,1039.13511A32.40573,32.40573,0,0,1-73.82744,1010.789V885.24272Z"/>
          <path class="cls-90" d="M1841.11924,567.61408V690.70843l-.03272-.03272a32.35522,32.35522,0,0,1-16.249,29.71906L701.356,1369.83666a65.17023,65.17023,0,0,1-32.956,8.76207l.31684-159.84807Z"/>
          <path class="cls-91" d="M674.62136,1170.57261l-6.2213,208.02612a65.11781,65.11781,0,0,1-32.43276-8.76207L-57.48026,969.49414A32.40572,32.40572,0,0,1-73.82744,941.148V815.60175Z"/>
          <path class="cls-92" d="M-57.48881,845.2683l693.44646,400.34308a65.3887,65.3887,0,0,0,65.39515-.005L1824.83232,596.1636c21.79216-12.58558,21.791-44.04123-.00212-56.62517l-693.23559-400.2936a65.38873,65.38873,0,0,0-65.39205-.0019L-57.48938,788.63968C-79.28587,801.2239-79.28555,832.68453-57.48881,845.2683Z"/>
        </g>
      </g>
      <g>
        <path class="cls-93" d="M1240.4052,378.493c-60.24021-51.75126-136.80679-108.65686-219.6271-27.46025-24.38965,32.3156-48.4218,67.53308-72.18507,104.93819l-207.0077,56.21723C627.712,582.41827,846.42756,700.88569,947.97327,697.56577l158.22847-57.21193L1322.33943,535.206C1336.32763,477.69136,1281.385,413.69806,1240.4052,378.493Z"/>
        <path class="cls-17" d="M1236.87917,508.05048l-54.59741,39.34859c-62.10306-58.04124-119.39686-97.601-205.48337-134.63177l-24.24072,36.81633L752.3328,506.57086c-124.62107,75.848,94.0951,194.3142,195.64064,190.99439l134.72607-77.95586,105.23715-3.03623,21.2805-19.77079Z"/>
        <path class="cls-94" d="M581.33515,392.60364l15.24327-8.96923a162.47541,162.47541,0,0,1,115.78672-19.08208c211.15189,44.36382,477.37492,177.96675,548.85413,354.04522,52.30136,128.83667,57.96074,214.47477,55.80923,257.65476a83.74438,83.74438,0,0,1-23.41295,53.833c-155.91365,162.38051-458.11076,328.74482-626.53289,369.8822a81.79136,81.79136,0,0,1-42.19518-.8366c-288.12367-83.59318-596.18837-271.62843-721.741-395.701a83.29963,83.29963,0,0,1-22.95864-76.4633c8.67646-41.19006,23.96332-102.2097,43.97055-135.84005C-43.748,737.18,581.33515,392.60364,581.33515,392.60364Z"/>
        <path class="cls-95" d="M930.32205,614.06l36.85411,15.22c7.018,2.89806,17.0236,5.41916,24.6807,5.25937l36.4331-2.245c36.41765,34.71856,125.89884,116.87,159.67718,119.2832,21.04434,1.50309,44.55945-26.42212,63.04933-55.2416-14.353-28.23734-33.63667-55.28126-56.77214-80.92638l-13.01772,32.96816L1042.46183,578.132l-18.47139-15.1527a46.96174,46.96174,0,0,0-20.36859-10.92926l-34.18734-9.8081a9.20949,9.20949,0,0,0-10.995,6.12961c-1.36427,4.25871,3.95326,10.36448,7.9128,12.4455l-37.24385,4.01065a11.34827,11.34827,0,0,0-11.94155,12.0306l1.26951,20.56766A19.2821,19.2821,0,0,0,930.32205,614.06Z"/>
        <path class="cls-95" d="M848.76186,518.84665l22.2967,34.24054a59.31687,59.31687,0,0,0,23.006,19.60513l29.45,14.1549a17.8844,17.8844,0,0,0,19.66615-2.78461l14.37761-12.84916a21.01674,21.01674,0,0,0,3.76086-26.90034l-20.721-32.77844a46.7014,46.7014,0,0,0-28.51192-20.44487l-23.03956-4.79126-4.98652-44.36306,36.61405-10.26743c-33.18649-14.4104-66.90305-27.136-100.31224-38.03038-24.72513,12.281-44.01069,25.963-42.55013,38.34919C781.32187,461.7618,831.76515,509.07878,848.76186,518.84665Z"/>
        <path class="cls-96" d="M1060.34588,305.26639c-64.80656,5.08349-136.39288,21.73512-207.24805,50.91469-35.627,13.74719-.53174,96.51192,34.69644,88.26986l81.47542-20.35055c56.26163-67.37081,114.6407-111.76724,170.12051-109.098C1116.73944,309.1485,1084.61618,303.3626,1060.34588,305.26639Z"/>
        <g>
          <path class="cls-97" d="M868.37417,511.16527l36.52006-31.96875,27.83071,5.78767a46.7063,46.7063,0,0,1,28.51186,20.44414L981.95742,538.208a21.01684,21.01684,0,0,1-3.76042,26.90051L963.81931,577.9576a17.88559,17.88559,0,0,1-19.6667,2.784l-29.44915-14.15543a59.30785,59.30785,0,0,1-23.00629-19.60454Z"/>
          <path class="cls-17" d="M1020.77808,369.92827c-22.07749,22.4305-44.321,46.8688-51.50839,54.17212l-38.09444,8.38529Z"/>
          <ellipse class="cls-41" cx="870.68557" cy="400.97604" rx="25.43534" ry="40.10157" transform="translate(-87.66795 380.15115) rotate(-23.48261)"/>
          <path class="cls-40" d="M827.44108,382.36958c-20.8506,12.26572-32.00212,25.68019-28.99091,43.51158,4.99227,29.56251,69.924,85.28411,69.924,85.28411l36.52006-31.96875-23.822-44.79968-.00074-.00024c20.1494-9.22146,10.62285-72.32049-25.71358-65.58663C855.35788,368.81,845.56856,371.70578,827.44108,382.36958Z"/>
          <path class="cls-40" d="M869.40044,512.74092l22.29676,34.24055a59.306,59.306,0,0,0,23.006,19.60492l29.44943,14.15507a17.88452,17.88452,0,0,0,19.66659-2.78449l14.37788-12.849a21.01725,21.01725,0,0,0,3.76053-26.90038l-20.72111-32.779a46.70314,46.70314,0,0,0-28.51192-20.44434l-23.03887-4.79149C878.98646,471.67943,864.189,503.9732,869.40044,512.74092Z"/>
          <path class="cls-39" d="M981.95765,538.20759,969.2698,518.136l-8.3843-2.40473a9.2094,9.2094,0,0,0-10.995,6.12952h0c-1.36422,4.25871,3.95322,10.36441,7.91274,12.44542l-37.24376,4.01067a11.3475,11.3475,0,0,0-11.94093,12.03062l.8226,13.33807a59.506,59.506,0,0,0,5.26208,2.9008l29.44943,14.15507a17.88452,17.88452,0,0,0,19.66659-2.78449l14.37788-12.849A21.01725,21.01725,0,0,0,981.95765,538.20759Z"/>
          <path class="cls-40" d="M939.28165,487.09085l36.85892,14.654c10.60439,4.26935,3.633,15.29593-4.279,13.52056l-9.98279-2.21308Z"/>
        </g>
        <path class="cls-40" d="M1023.99047,540.0201A46.96409,46.96409,0,0,0,1003.62173,529.09l-34.18743-9.80755a9.21026,9.21026,0,0,0-10.99519,6.12888v0c-1.364,4.25943,3.95363,10.36573,7.91318,12.44544l9.75859-1.051-47.00227,5.06207a11.34813,11.34813,0,0,0-11.9414,12.03048l1.26931,20.56771a19.28228,19.28228,0,0,0,11.88569,16.63465l36.85407,15.21937c7.01779,2.89809,17.0237,5.41939,24.68042,5.25943l44.80105-2.7601,16.838-44.59569Z"/>
      </g>
    </g>
  </g>
</svg>
