<svg id="Layer_1" data-name="Layer 1" xmlns="http://www.w3.org/2000/svg" xmlns:xlink="http://www.w3.org/1999/xlink" viewBox="0 0 1000 1000">
  <defs>
    <style>
      .cls-1 {
        fill: url(#linear-gradient);
      }

      .cls-13, .cls-2 {
        fill: #fff;
      }

      .cls-3 {
        fill: #b8cbd8;
      }

      .cls-4 {
        fill: url(#linear-gradient-2);
      }

      .cls-5 {
        fill: url(#linear-gradient-3);
      }

      .cls-6 {
        fill: #9bb0c4;
      }

      .cls-7 {
        fill: url(#linear-gradient-4);
      }

      .cls-8 {
        fill: url(#linear-gradient-5);
      }

      .cls-9 {
        fill: url(#linear-gradient-6);
      }

      .cls-10 {
        fill: url(#linear-gradient-7);
      }

      .cls-11 {
        fill: url(#linear-gradient-8);
      }

      .cls-12 {
        fill: url(#linear-gradient-9);
      }

      .cls-13 {
        opacity: 0.7;
      }

      .cls-14 {
        fill: url(#linear-gradient-10);
      }

      .cls-15 {
        fill: url(#linear-gradient-11);
      }

      .cls-16 {
        fill: url(#linear-gradient-12);
      }

      .cls-17 {
        fill: url(#linear-gradient-13);
      }

      .cls-18 {
        fill: url(#linear-gradient-14);
      }

      .cls-19 {
        fill: url(#linear-gradient-15);
      }

      .cls-20 {
        fill: url(#linear-gradient-16);
      }

      .cls-21 {
        fill: url(#linear-gradient-17);
      }

      .cls-22 {
        fill: url(#linear-gradient-18);
      }

      .cls-23 {
        fill: url(#linear-gradient-19);
      }

      .cls-24 {
        fill: url(#linear-gradient-20);
      }

      .cls-25 {
        fill: url(#linear-gradient-21);
      }

      .cls-26 {
        fill: #dd7b19;
        opacity: 0.5;
      }

      .cls-27 {
        fill: url(#linear-gradient-22);
      }

      .cls-172, .cls-28 {
        fill: none;
        stroke-miterlimit: 10;
      }

      .cls-28 {
        stroke: #d8712b;
        stroke-linecap: round;
        stroke-width: 5.21546px;
      }

      .cls-29 {
        fill: url(#linear-gradient-23);
      }

      .cls-30 {
        fill: url(#linear-gradient-24);
      }

      .cls-31 {
        fill: url(#linear-gradient-25);
      }

      .cls-32 {
        fill: url(#linear-gradient-26);
      }

      .cls-33 {
        fill: url(#linear-gradient-27);
      }

      .cls-34 {
        fill: url(#linear-gradient-28);
      }

      .cls-35 {
        fill: url(#linear-gradient-29);
      }

      .cls-36 {
        fill: url(#linear-gradient-30);
      }

      .cls-37 {
        fill: url(#linear-gradient-31);
      }

      .cls-38 {
        fill: url(#linear-gradient-32);
      }

      .cls-39 {
        fill: url(#linear-gradient-33);
      }

      .cls-40 {
        fill: url(#linear-gradient-34);
      }

      .cls-41 {
        fill: url(#linear-gradient-35);
      }

      .cls-42 {
        fill: url(#linear-gradient-36);
      }

      .cls-43 {
        fill: url(#linear-gradient-37);
      }

      .cls-44 {
        fill: url(#linear-gradient-38);
      }

      .cls-45 {
        fill: url(#linear-gradient-39);
      }

      .cls-46 {
        fill: url(#linear-gradient-40);
      }

      .cls-47 {
        fill: url(#linear-gradient-41);
      }

      .cls-48 {
        fill: url(#linear-gradient-42);
      }

      .cls-49 {
        fill: url(#linear-gradient-43);
      }

      .cls-50 {
        fill: url(#linear-gradient-44);
      }

      .cls-51 {
        fill: url(#linear-gradient-45);
      }

      .cls-52 {
        fill: url(#linear-gradient-46);
      }

      .cls-53 {
        fill: url(#linear-gradient-47);
      }

      .cls-54 {
        fill: #a3bbce;
      }

      .cls-55 {
        fill: #cddce8;
      }

      .cls-56 {
        fill: #7c7c7c;
      }

      .cls-57 {
        fill: #686868;
      }

      .cls-58 {
        fill: #ccc;
      }

      .cls-59 {
        fill: #7995a8;
      }

      .cls-60 {
        fill: url(#linear-gradient-48);
      }

      .cls-61 {
        fill: url(#linear-gradient-49);
      }

      .cls-62 {
        fill: url(#linear-gradient-50);
      }

      .cls-63 {
        fill: #d7ebf4;
      }

      .cls-64 {
        fill: url(#linear-gradient-51);
      }

      .cls-100, .cls-65 {
        fill: #bcd0e2;
      }

      .cls-66 {
        fill: url(#linear-gradient-52);
      }

      .cls-67 {
        fill: #e58630;
      }

      .cls-68 {
        fill: url(#linear-gradient-53);
      }

      .cls-69 {
        fill: url(#linear-gradient-54);
      }

      .cls-70 {
        fill: #ffcb48;
      }

      .cls-71 {
        fill: url(#linear-gradient-55);
      }

      .cls-72 {
        fill: url(#linear-gradient-56);
      }

      .cls-73 {
        fill: url(#linear-gradient-57);
      }

      .cls-74 {
        fill: url(#linear-gradient-58);
      }

      .cls-75 {
        fill: url(#linear-gradient-59);
      }

      .cls-76 {
        fill: #27343d;
      }

      .cls-77 {
        fill: url(#linear-gradient-60);
      }

      .cls-78 {
        fill: url(#linear-gradient-61);
      }

      .cls-79 {
        fill: url(#linear-gradient-62);
      }

      .cls-80 {
        fill: url(#linear-gradient-63);
      }

      .cls-81 {
        fill: url(#linear-gradient-64);
      }

      .cls-82 {
        fill: url(#linear-gradient-65);
      }

      .cls-83 {
        fill: #969696;
      }

      .cls-84 {
        fill: #636363;
      }

      .cls-85 {
        fill: url(#linear-gradient-66);
      }

      .cls-86 {
        fill: url(#linear-gradient-67);
      }

      .cls-87 {
        fill: url(#linear-gradient-68);
      }

      .cls-88 {
        fill: url(#linear-gradient-69);
      }

      .cls-89 {
        fill: #724133;
      }

      .cls-90 {
        fill: url(#linear-gradient-70);
      }

      .cls-91 {
        fill: url(#linear-gradient-71);
      }

      .cls-92 {
        fill: url(#linear-gradient-72);
      }

      .cls-93 {
        fill: url(#linear-gradient-73);
      }

      .cls-94 {
        fill: url(#linear-gradient-74);
      }

      .cls-95 {
        fill: url(#linear-gradient-75);
      }

      .cls-96 {
        fill: url(#linear-gradient-76);
      }

      .cls-97 {
        fill: #9bb3c6;
      }

      .cls-98 {
        fill: url(#linear-gradient-77);
      }

      .cls-99 {
        fill: #445c72;
      }

      .cls-100 {
        opacity: 0.2;
      }

      .cls-101 {
        opacity: 0.6;
      }

      .cls-102 {
        fill: url(#linear-gradient-78);
      }

      .cls-103 {
        fill: url(#linear-gradient-79);
      }

      .cls-104 {
        fill: url(#linear-gradient-80);
      }

      .cls-105 {
        fill: url(#linear-gradient-81);
      }

      .cls-106 {
        fill: url(#linear-gradient-82);
      }

      .cls-107 {
        fill: url(#linear-gradient-83);
      }

      .cls-108 {
        fill: url(#linear-gradient-84);
      }

      .cls-109 {
        fill: url(#linear-gradient-85);
      }

      .cls-110 {
        fill: url(#linear-gradient-86);
      }

      .cls-111 {
        fill: url(#linear-gradient-87);
      }

      .cls-112 {
        fill: url(#linear-gradient-88);
      }

      .cls-113 {
        fill: url(#linear-gradient-89);
      }

      .cls-114 {
        fill: url(#linear-gradient-90);
      }

      .cls-115 {
        fill: url(#linear-gradient-91);
      }

      .cls-116 {
        fill: url(#linear-gradient-92);
      }

      .cls-117 {
        fill: url(#linear-gradient-93);
      }

      .cls-118 {
        fill: url(#linear-gradient-94);
      }

      .cls-119 {
        fill: url(#linear-gradient-95);
      }

      .cls-120 {
        fill: url(#linear-gradient-96);
      }

      .cls-121 {
        fill: url(#linear-gradient-97);
      }

      .cls-122 {
        fill: url(#linear-gradient-98);
      }

      .cls-123 {
        fill: url(#linear-gradient-99);
      }

      .cls-124 {
        fill: url(#linear-gradient-100);
      }

      .cls-125 {
        fill: url(#linear-gradient-101);
      }

      .cls-126 {
        fill: url(#linear-gradient-102);
      }

      .cls-127 {
        fill: url(#linear-gradient-103);
      }

      .cls-128 {
        fill: url(#linear-gradient-104);
      }

      .cls-129 {
        fill: url(#linear-gradient-105);
      }

      .cls-130 {
        fill: url(#linear-gradient-106);
      }

      .cls-131 {
        fill: url(#linear-gradient-107);
      }

      .cls-132 {
        fill: url(#linear-gradient-108);
      }

      .cls-133 {
        fill: url(#linear-gradient-109);
      }

      .cls-134 {
        fill: url(#linear-gradient-110);
      }

      .cls-135 {
        fill: url(#linear-gradient-111);
      }

      .cls-136 {
        fill: url(#linear-gradient-112);
      }

      .cls-137 {
        fill: url(#linear-gradient-113);
      }

      .cls-138 {
        fill: url(#linear-gradient-114);
      }

      .cls-139 {
        fill: url(#linear-gradient-115);
      }

      .cls-140 {
        fill: url(#linear-gradient-116);
      }

      .cls-141 {
        fill: url(#linear-gradient-117);
      }

      .cls-142 {
        fill: url(#linear-gradient-118);
      }

      .cls-143 {
        fill: url(#linear-gradient-119);
      }

      .cls-144 {
        fill: url(#linear-gradient-120);
      }

      .cls-145 {
        fill: url(#linear-gradient-121);
      }

      .cls-146 {
        fill: url(#linear-gradient-122);
      }

      .cls-147 {
        fill: url(#linear-gradient-123);
      }

      .cls-148 {
        fill: url(#linear-gradient-124);
      }

      .cls-149 {
        fill: url(#linear-gradient-125);
      }

      .cls-150 {
        fill: url(#linear-gradient-126);
      }

      .cls-151 {
        fill: url(#linear-gradient-127);
      }

      .cls-152 {
        fill: url(#linear-gradient-128);
      }

      .cls-153 {
        fill: url(#linear-gradient-129);
      }

      .cls-154 {
        fill: url(#linear-gradient-130);
      }

      .cls-155 {
        fill: url(#linear-gradient-131);
      }

      .cls-156 {
        fill: url(#linear-gradient-132);
      }

      .cls-157 {
        fill: url(#linear-gradient-133);
      }

      .cls-158 {
        fill: url(#linear-gradient-134);
      }

      .cls-159 {
        fill: url(#linear-gradient-135);
      }

      .cls-160 {
        fill: url(#linear-gradient-136);
      }

      .cls-161 {
        fill: url(#linear-gradient-137);
      }

      .cls-162 {
        fill: #ffbda3;
      }

      .cls-163 {
        fill: url(#linear-gradient-138);
      }

      .cls-164 {
        fill: #303d49;
      }

      .cls-165 {
        fill: url(#linear-gradient-139);
      }

      .cls-166 {
        fill: #f2f2f2;
      }

      .cls-167 {
        fill: url(#linear-gradient-140);
      }

      .cls-168 {
        fill: #ffcd5c;
      }

      .cls-169 {
        fill: #e48f7c;
      }

      .cls-170 {
        fill: url(#linear-gradient-141);
      }

      .cls-171 {
        fill: url(#linear-gradient-142);
      }

      .cls-172 {
        stroke: #37444f;
        stroke-width: 1.01988px;
      }

      .cls-173 {
        fill: #eaeaea;
      }
    </style>
    <linearGradient id="linear-gradient" x1="500.38526" y1="381.81496" x2="907.0315" y2="381.81496" gradientUnits="userSpaceOnUse">
      <stop offset="0" stop-color="#f0f9ff"/>
      <stop offset="1" stop-color="#c3d6e6"/>
    </linearGradient>
    <linearGradient id="linear-gradient-2" x1="93.75469" y1="696.80704" x2="907.0315" y2="696.80704" gradientUnits="userSpaceOnUse">
      <stop offset="0" stop-color="#dae9f2"/>
      <stop offset="1" stop-color="#b8c8d8"/>
    </linearGradient>
    <linearGradient id="linear-gradient-3" x1="-1968.63666" y1="558.29379" x2="-1848.00559" y2="637.71919" gradientTransform="translate(2241.2766)" gradientUnits="userSpaceOnUse">
      <stop offset="0" stop-color="#fff"/>
      <stop offset="0.94545" stop-color="#fff" stop-opacity="0"/>
    </linearGradient>
    <linearGradient id="linear-gradient-4" x1="570.99927" y1="306.8949" x2="619.25168" y2="306.8949" gradientUnits="userSpaceOnUse">
      <stop offset="0" stop-color="#62778c"/>
      <stop offset="1" stop-color="#435466"/>
    </linearGradient>
    <linearGradient id="linear-gradient-5" x1="589.88854" y1="159.30289" x2="589.88854" y2="428.03547" gradientUnits="userSpaceOnUse">
      <stop offset="0" stop-color="#849bb2"/>
      <stop offset="1" stop-color="#5b6f82"/>
    </linearGradient>
    <linearGradient id="linear-gradient-6" x1="628.87215" y1="192.67933" x2="544.0721" y2="447.67668" xlink:href="#linear-gradient-4"/>
    <linearGradient id="linear-gradient-7" x1="812.67628" y1="445.60362" x2="860.92868" y2="445.60362" xlink:href="#linear-gradient-4"/>
    <linearGradient id="linear-gradient-8" x1="831.56555" y1="298.01161" x2="831.56555" y2="566.74418" xlink:href="#linear-gradient-5"/>
    <linearGradient id="linear-gradient-9" x1="870.54916" y1="331.38805" x2="785.7491" y2="586.3854" xlink:href="#linear-gradient-4"/>
    <linearGradient id="linear-gradient-10" x1="-226.70782" y1="438.65395" x2="-129.34455" y2="438.65395" gradientTransform="translate(353.2766)" xlink:href="#linear-gradient-4"/>
    <linearGradient id="linear-gradient-11" x1="-105.85432" y1="368.87549" x2="-8.47661" y2="368.87549" gradientTransform="translate(353.2766)" xlink:href="#linear-gradient-4"/>
    <linearGradient id="linear-gradient-12" x1="15.01362" y1="299.0768" x2="112.44695" y2="299.0768" gradientTransform="translate(353.2766)" xlink:href="#linear-gradient-4"/>
    <linearGradient id="linear-gradient-13" x1="-226.70782" y1="372.2302" x2="124.16338" y2="372.2302" gradientTransform="translate(353.2766)" xlink:href="#linear-gradient-5"/>
    <linearGradient id="linear-gradient-14" x1="140.42119" y1="268.31695" x2="-236.72361" y2="472.75628" gradientTransform="translate(353.2766)" xlink:href="#linear-gradient-4"/>
    <linearGradient id="linear-gradient-15" x1="-206.70365" y1="324.14201" x2="25.19768" y2="555.43308" gradientTransform="translate(353.2766)" gradientUnits="userSpaceOnUse">
      <stop offset="0" stop-color="#5b6f82"/>
      <stop offset="1" stop-color="#849bb2"/>
    </linearGradient>
    <linearGradient id="linear-gradient-16" x1="-111.53773" y1="228.72499" x2="120.3636" y2="460.01605" xlink:href="#linear-gradient-15"/>
    <linearGradient id="linear-gradient-17" x1="-16.36003" y1="133.29616" x2="215.5413" y2="364.58723" xlink:href="#linear-gradient-15"/>
    <linearGradient id="linear-gradient-18" x1="-426.55789" y1="115.18362" x2="137.00297" y2="115.18362" xlink:href="#linear-gradient-15"/>
    <linearGradient id="linear-gradient-19" x1="-426.55789" y1="222.062" x2="137.00297" y2="222.062" xlink:href="#linear-gradient-15"/>
    <linearGradient id="linear-gradient-20" x1="-426.55789" y1="329.01158" x2="137.00297" y2="329.01158" xlink:href="#linear-gradient-15"/>
    <linearGradient id="linear-gradient-21" x1="-194.03931" y1="324.58866" x2="-217.83971" y2="616.60126" gradientTransform="translate(353.2766)" gradientUnits="userSpaceOnUse">
      <stop offset="0.00844" stop-color="#ffc63f"/>
      <stop offset="1" stop-color="#e68e2b"/>
    </linearGradient>
    <linearGradient id="linear-gradient-22" x1="79.36765" y1="160.9003" x2="157.48178" y2="450.1667" xlink:href="#linear-gradient-21"/>
    <linearGradient id="linear-gradient-23" x1="456.8522" y1="588.27064" x2="693.93405" y2="624.69883" gradientUnits="userSpaceOnUse">
      <stop offset="0" stop-color="#3e4c59"/>
      <stop offset="1" stop-color="#293440"/>
    </linearGradient>
    <linearGradient id="linear-gradient-24" x1="456.56412" y1="590.14556" x2="693.64597" y2="626.57375" xlink:href="#linear-gradient-23"/>
    <linearGradient id="linear-gradient-25" x1="357.04973" y1="573.12833" x2="683.25985" y2="573.12833" xlink:href="#linear-gradient-4"/>
    <linearGradient id="linear-gradient-26" x1="409.44028" y1="397.9605" x2="681.75595" y2="551.43666" xlink:href="#linear-gradient-23"/>
    <linearGradient id="linear-gradient-27" x1="491.74427" y1="457.1608" x2="612.22604" y2="604.96372" xlink:href="#linear-gradient-23"/>
    <linearGradient id="linear-gradient-28" x1="295.35911" y1="683.08263" x2="424.94793" y2="782.81228" xlink:href="#linear-gradient-23"/>
    <linearGradient id="linear-gradient-29" x1="244.33334" y1="690.25342" x2="361.97849" y2="767.88727" xlink:href="#linear-gradient-4"/>
    <linearGradient id="linear-gradient-30" x1="229.85697" y1="716.58023" x2="440.16315" y2="716.58023" gradientUnits="userSpaceOnUse">
      <stop offset="0" stop-color="#62788c"/>
      <stop offset="1" stop-color="#526575"/>
    </linearGradient>
    <linearGradient id="linear-gradient-31" x1="290.9432" y1="608.21213" x2="563.25888" y2="761.68828" xlink:href="#linear-gradient-23"/>
    <linearGradient id="linear-gradient-32" x1="374.27093" y1="460.36215" x2="646.58661" y2="613.83831" xlink:href="#linear-gradient-23"/>
    <linearGradient id="linear-gradient-33" x1="273.66856" y1="537.08921" x2="745.74211" y2="860.46408" xlink:href="#linear-gradient-4"/>
    <linearGradient id="linear-gradient-34" x1="334.25901" y1="567.37552" x2="552.82817" y2="741.15591" xlink:href="#linear-gradient-23"/>
    <linearGradient id="linear-gradient-35" x1="257.26636" y1="561.03369" x2="729.33991" y2="884.40856" xlink:href="#linear-gradient-4"/>
    <linearGradient id="linear-gradient-36" x1="317.13211" y1="588.91657" x2="535.70127" y2="762.69696" xlink:href="#linear-gradient-23"/>
    <linearGradient id="linear-gradient-37" x1="232.28467" y1="597.50281" x2="704.35822" y2="920.87767" xlink:href="#linear-gradient-4"/>
    <linearGradient id="linear-gradient-38" x1="300.00142" y1="610.46239" x2="518.57058" y2="784.24278" xlink:href="#linear-gradient-23"/>
    <linearGradient id="linear-gradient-39" x1="420.09465" y1="323.33145" x2="892.1682" y2="646.70632" xlink:href="#linear-gradient-4"/>
    <linearGradient id="linear-gradient-40" x1="500.58741" y1="358.17897" x2="719.15657" y2="531.95937" xlink:href="#linear-gradient-23"/>
    <linearGradient id="linear-gradient-41" x1="403.69246" y1="347.27594" x2="875.76601" y2="670.6508" xlink:href="#linear-gradient-4"/>
    <linearGradient id="linear-gradient-42" x1="483.46051" y1="379.72002" x2="702.02967" y2="553.50042" xlink:href="#linear-gradient-23"/>
    <linearGradient id="linear-gradient-43" x1="378.71077" y1="383.74505" x2="850.78432" y2="707.11991" xlink:href="#linear-gradient-4"/>
    <linearGradient id="linear-gradient-44" x1="466.32982" y1="401.26584" x2="684.89897" y2="575.04624" xlink:href="#linear-gradient-23"/>
    <linearGradient id="linear-gradient-45" x1="238.28296" y1="536.53579" x2="343.98444" y2="764.65988" xlink:href="#linear-gradient-4"/>
    <linearGradient id="linear-gradient-46" x1="227.8749" y1="485.13039" x2="686.7492" y2="485.13039" xlink:href="#linear-gradient-30"/>
    <linearGradient id="linear-gradient-47" x1="239.85247" y1="475.6672" x2="682.39163" y2="475.6672" xlink:href="#linear-gradient-5"/>
    <linearGradient id="linear-gradient-48" x1="578.46943" y1="404.37773" x2="590.0303" y2="404.37773" xlink:href="#linear-gradient-4"/>
    <linearGradient id="linear-gradient-49" x1="506.17601" y1="360.59652" x2="602.66056" y2="360.59652" xlink:href="#linear-gradient-5"/>
    <linearGradient id="linear-gradient-50" x1="468.38319" y1="350.86548" x2="593.19454" y2="372.36408" gradientUnits="userSpaceOnUse">
      <stop offset="0.00844" stop-color="#ffc63f"/>
      <stop offset="1" stop-color="#e68a23"/>
    </linearGradient>
    <linearGradient id="linear-gradient-51" x1="578.46943" y1="384.4668" x2="590.0303" y2="384.4668" xlink:href="#linear-gradient-4"/>
    <linearGradient id="linear-gradient-52" x1="265.76557" y1="444.71265" x2="329.14167" y2="503.60987" xlink:href="#linear-gradient-50"/>
    <linearGradient id="linear-gradient-53" x1="288.82185" y1="459.56007" x2="308.30556" y2="459.56007" xlink:href="#linear-gradient-23"/>
    <linearGradient id="linear-gradient-54" x1="288.82186" y1="455.1823" x2="308.30567" y2="455.1823" xlink:href="#linear-gradient-4"/>
    <linearGradient id="linear-gradient-55" x1="657.082" y1="294.83308" x2="757.28697" y2="294.83308" gradientUnits="userSpaceOnUse">
      <stop offset="0" stop-color="#435466"/>
      <stop offset="1" stop-color="#62778c"/>
    </linearGradient>
    <linearGradient id="linear-gradient-56" x1="666.5476" y1="291.21473" x2="754.27574" y2="291.21473" gradientUnits="userSpaceOnUse">
      <stop offset="0" stop-color="#fff"/>
      <stop offset="0.98888" stop-color="#e6edf2"/>
    </linearGradient>
    <linearGradient id="linear-gradient-57" x1="657.08198" y1="294.83308" x2="757.28697" y2="294.83308" xlink:href="#linear-gradient-5"/>
    <linearGradient id="linear-gradient-58" x1="679.46052" y1="212.08983" x2="782.47468" y2="348.24767" xlink:href="#linear-gradient-4"/>
    <linearGradient id="linear-gradient-59" x1="678.46281" y1="212.84468" x2="781.47696" y2="349.00252" xlink:href="#linear-gradient-4"/>
    <linearGradient id="linear-gradient-60" x1="577.81093" y1="741.76203" x2="587.78853" y2="741.76203" gradientTransform="translate(929.03194 -135.72854) rotate(59.68934)" xlink:href="#linear-gradient-23"/>
    <linearGradient id="linear-gradient-61" x1="593.03786" y1="684.66801" x2="603.01545" y2="684.66801" gradientTransform="translate(887.28465 -177.1533) rotate(59.68934)" xlink:href="#linear-gradient-23"/>
    <linearGradient id="linear-gradient-62" x1="665.78316" y1="766.38061" x2="675.76075" y2="766.38061" gradientTransform="translate(993.85887 -199.48124) rotate(59.68934)" xlink:href="#linear-gradient-23"/>
    <linearGradient id="linear-gradient-63" x1="736.90503" y1="725.4167" x2="746.88262" y2="725.4167" gradientTransform="translate(993.72215 -281.17077) rotate(59.68934)" xlink:href="#linear-gradient-23"/>
    <linearGradient id="linear-gradient-64" x1="692.48248" y1="674.33428" x2="702.46007" y2="674.33428" gradientTransform="translate(927.6196 -268.12243) rotate(59.68934)" xlink:href="#linear-gradient-23"/>
    <linearGradient id="linear-gradient-65" x1="574.76097" y1="708.51718" x2="740.98515" y2="708.51718" xlink:href="#linear-gradient-23"/>
    <linearGradient id="linear-gradient-66" x1="551.59635" y1="641.94692" x2="724.37654" y2="641.94692" gradientUnits="userSpaceOnUse">
      <stop offset="0.03216" stop-color="#bd451c"/>
      <stop offset="1" stop-color="#d4702a"/>
    </linearGradient>
    <linearGradient id="linear-gradient-67" x1="706.5239" y1="481.03096" x2="668.45345" y2="633.31275" gradientUnits="userSpaceOnUse">
      <stop offset="0" stop-color="#f2883c"/>
      <stop offset="0.16716" stop-color="#e97d35"/>
      <stop offset="0.67368" stop-color="#d26124"/>
      <stop offset="0.96784" stop-color="#c9571e"/>
    </linearGradient>
    <linearGradient id="linear-gradient-68" x1="641.75435" y1="597.29985" x2="759.66621" y2="597.29985" gradientUnits="userSpaceOnUse">
      <stop offset="0" stop-color="#d9652b"/>
      <stop offset="0.96784" stop-color="#ba4b13"/>
    </linearGradient>
    <linearGradient id="linear-gradient-69" x1="-1709.2079" y1="649.3552" x2="-1756.90793" y2="699.96651" gradientTransform="translate(1867.83234)" gradientUnits="userSpaceOnUse">
      <stop offset="0.00005" stop-color="#ffcb48"/>
      <stop offset="1" stop-color="#e68e2b"/>
    </linearGradient>
    <linearGradient id="linear-gradient-70" x1="-1770.58053" y1="594.94042" x2="-1741.01994" y2="611.06437" gradientTransform="translate(1867.83234)" xlink:href="#linear-gradient-67"/>
    <linearGradient id="linear-gradient-71" x1="-1754.43904" y1="558.18218" x2="-1734.1348" y2="597.1484" gradientTransform="translate(1867.83234)" xlink:href="#linear-gradient-67"/>
    <linearGradient id="linear-gradient-72" x1="-1705.78923" y1="620.33119" x2="-1730.42305" y2="636.00725" gradientTransform="translate(1867.83234)" xlink:href="#linear-gradient-67"/>
    <linearGradient id="linear-gradient-73" x1="-1771.17858" y1="613.67456" x2="-1738.48278" y2="627.26048" gradientTransform="translate(1867.83234)" xlink:href="#linear-gradient-67"/>
    <linearGradient id="linear-gradient-74" x1="-1759.20837" y1="573.02799" x2="-1742.78582" y2="602.73787" gradientTransform="translate(1867.83234)" xlink:href="#linear-gradient-67"/>
    <linearGradient id="linear-gradient-75" x1="-1684.11567" y1="579.76396" x2="-1725.47063" y2="616.93863" gradientTransform="translate(1867.83234)" xlink:href="#linear-gradient-67"/>
    <linearGradient id="linear-gradient-76" x1="-1707.15321" y1="559.8363" x2="-1726.71097" y2="594.02506" gradientTransform="translate(1867.83234)" xlink:href="#linear-gradient-67"/>
    <linearGradient id="linear-gradient-77" x1="383.47018" y1="426.47882" x2="505.10284" y2="426.47882" xlink:href="#linear-gradient-23"/>
    <linearGradient id="linear-gradient-78" x1="411.32865" y1="514.24831" x2="541.36535" y2="513.50183" xlink:href="#linear-gradient-5"/>
    <linearGradient id="linear-gradient-79" x1="411.34613" y1="517.29441" x2="541.38284" y2="516.54793" xlink:href="#linear-gradient-5"/>
    <linearGradient id="linear-gradient-80" x1="411.1363" y1="480.74119" x2="541.17301" y2="479.99471" xlink:href="#linear-gradient-5"/>
    <linearGradient id="linear-gradient-81" x1="411.15379" y1="483.78729" x2="541.19049" y2="483.04082" xlink:href="#linear-gradient-5"/>
    <linearGradient id="linear-gradient-82" x1="411.17127" y1="486.8334" x2="541.20798" y2="486.08692" xlink:href="#linear-gradient-5"/>
    <linearGradient id="linear-gradient-83" x1="411.18876" y1="489.8795" x2="541.22546" y2="489.13302" xlink:href="#linear-gradient-5"/>
    <linearGradient id="linear-gradient-84" x1="411.20624" y1="492.9256" x2="541.24295" y2="492.17912" xlink:href="#linear-gradient-5"/>
    <linearGradient id="linear-gradient-85" x1="411.22373" y1="495.9717" x2="541.26044" y2="495.22522" xlink:href="#linear-gradient-5"/>
    <linearGradient id="linear-gradient-86" x1="411.24122" y1="499.0178" x2="541.27792" y2="498.27132" xlink:href="#linear-gradient-5"/>
    <linearGradient id="linear-gradient-87" x1="411.2587" y1="502.0639" x2="541.29541" y2="501.31742" xlink:href="#linear-gradient-5"/>
    <linearGradient id="linear-gradient-88" x1="411.27619" y1="505.11" x2="541.3129" y2="504.36352" xlink:href="#linear-gradient-5"/>
    <linearGradient id="linear-gradient-89" x1="411.29368" y1="508.15611" x2="541.33038" y2="507.40963" xlink:href="#linear-gradient-5"/>
    <linearGradient id="linear-gradient-90" x1="411.31116" y1="511.20221" x2="541.34787" y2="510.45573" xlink:href="#linear-gradient-5"/>
    <linearGradient id="linear-gradient-91" x1="411.19529" y1="491.017" x2="541.23199" y2="490.27052" xlink:href="#linear-gradient-5"/>
    <linearGradient id="linear-gradient-92" x1="411.2129" y1="494.08576" x2="541.24961" y2="493.33928" xlink:href="#linear-gradient-5"/>
    <linearGradient id="linear-gradient-93" x1="411.23052" y1="497.15452" x2="541.26723" y2="496.40804" xlink:href="#linear-gradient-5"/>
    <linearGradient id="linear-gradient-94" x1="411.24814" y1="500.22328" x2="541.28484" y2="499.4768" xlink:href="#linear-gradient-5"/>
    <linearGradient id="linear-gradient-95" x1="411.26575" y1="503.29204" x2="541.30246" y2="502.54556" xlink:href="#linear-gradient-5"/>
    <linearGradient id="linear-gradient-96" x1="411.28337" y1="506.3608" x2="541.32008" y2="505.61432" xlink:href="#linear-gradient-5"/>
    <linearGradient id="linear-gradient-97" x1="411.30099" y1="509.42956" x2="541.33769" y2="508.68308" xlink:href="#linear-gradient-5"/>
    <linearGradient id="linear-gradient-98" x1="411.3186" y1="512.49832" x2="541.35531" y2="511.75184" xlink:href="#linear-gradient-5"/>
    <linearGradient id="linear-gradient-99" x1="411.33622" y1="515.56708" x2="541.37292" y2="514.8206" xlink:href="#linear-gradient-5"/>
    <linearGradient id="linear-gradient-100" x1="411.17767" y1="487.94824" x2="541.21438" y2="487.20176" xlink:href="#linear-gradient-5"/>
    <linearGradient id="linear-gradient-101" x1="411.15745" y1="484.42604" x2="541.19416" y2="483.67956" xlink:href="#linear-gradient-5"/>
    <linearGradient id="linear-gradient-102" x1="411.17911" y1="488.19919" x2="541.21582" y2="487.45272" xlink:href="#linear-gradient-5"/>
    <linearGradient id="linear-gradient-103" x1="411.22143" y1="495.57102" x2="541.25814" y2="494.82454" xlink:href="#linear-gradient-5"/>
    <linearGradient id="linear-gradient-104" x1="411.23896" y1="498.62499" x2="541.27567" y2="497.87851" xlink:href="#linear-gradient-5"/>
    <linearGradient id="linear-gradient-105" x1="411.25649" y1="501.67896" x2="541.2932" y2="500.93248" xlink:href="#linear-gradient-5"/>
    <linearGradient id="linear-gradient-106" x1="411.27403" y1="504.73293" x2="541.31073" y2="503.98645" xlink:href="#linear-gradient-5"/>
    <linearGradient id="linear-gradient-107" x1="411.29156" y1="507.78689" x2="541.32826" y2="507.04042" xlink:href="#linear-gradient-5"/>
    <linearGradient id="linear-gradient-108" x1="411.30909" y1="510.84086" x2="541.34579" y2="510.09438" xlink:href="#linear-gradient-5"/>
    <linearGradient id="linear-gradient-109" x1="411.32662" y1="513.89483" x2="541.36333" y2="513.14835" xlink:href="#linear-gradient-5"/>
    <linearGradient id="linear-gradient-110" x1="411.34415" y1="516.9488" x2="541.38086" y2="516.20232" xlink:href="#linear-gradient-5"/>
    <linearGradient id="linear-gradient-111" x1="411.36168" y1="520.00277" x2="541.39839" y2="519.25629" xlink:href="#linear-gradient-5"/>
    <linearGradient id="linear-gradient-112" x1="411.38079" y1="523.33132" x2="541.4175" y2="522.58485" xlink:href="#linear-gradient-5"/>
    <linearGradient id="linear-gradient-113" x1="411.2039" y1="492.51705" x2="541.24061" y2="491.77057" xlink:href="#linear-gradient-5"/>
    <linearGradient id="linear-gradient-114" x1="411.2593" y1="502.16822" x2="541.29601" y2="501.42174" xlink:href="#linear-gradient-5"/>
    <linearGradient id="linear-gradient-115" x1="411.27692" y1="505.23698" x2="541.31362" y2="504.4905" xlink:href="#linear-gradient-5"/>
    <linearGradient id="linear-gradient-116" x1="411.29453" y1="508.30574" x2="541.33124" y2="507.55926" xlink:href="#linear-gradient-5"/>
    <linearGradient id="linear-gradient-117" x1="411.31215" y1="511.3745" x2="541.34886" y2="510.62802" xlink:href="#linear-gradient-5"/>
    <linearGradient id="linear-gradient-118" x1="411.32977" y1="514.44326" x2="541.36647" y2="513.69678" xlink:href="#linear-gradient-5"/>
    <linearGradient id="linear-gradient-119" x1="411.34738" y1="517.51202" x2="541.38409" y2="516.76554" xlink:href="#linear-gradient-5"/>
    <linearGradient id="linear-gradient-120" x1="411.365" y1="520.58078" x2="541.40171" y2="519.8343" xlink:href="#linear-gradient-5"/>
    <linearGradient id="linear-gradient-121" x1="411.38262" y1="523.64954" x2="541.41932" y2="522.90306" xlink:href="#linear-gradient-5"/>
    <linearGradient id="linear-gradient-122" x1="411.40023" y1="526.7183" x2="541.43694" y2="525.97182" xlink:href="#linear-gradient-5"/>
    <linearGradient id="linear-gradient-123" x1="411.36529" y1="520.63084" x2="541.40199" y2="519.88436" xlink:href="#linear-gradient-5"/>
    <linearGradient id="linear-gradient-124" x1="411.31277" y1="511.48147" x2="541.34947" y2="510.73499" xlink:href="#linear-gradient-5"/>
    <linearGradient id="linear-gradient-125" x1="411.3829" y1="523.6996" x2="541.41961" y2="522.95312" xlink:href="#linear-gradient-5"/>
    <linearGradient id="linear-gradient-126" x1="411.40052" y1="526.76836" x2="541.43723" y2="526.02188" xlink:href="#linear-gradient-5"/>
    <linearGradient id="linear-gradient-127" x1="411.41814" y1="529.83712" x2="541.45484" y2="529.09064" xlink:href="#linear-gradient-5"/>
    <linearGradient id="linear-gradient-128" x1="411.24169" y1="499.09946" x2="541.27839" y2="498.35298" xlink:href="#linear-gradient-5"/>
    <linearGradient id="linear-gradient-129" x1="411.22498" y1="496.18985" x2="541.26169" y2="495.44337" xlink:href="#linear-gradient-5"/>
    <linearGradient id="linear-gradient-130" x1="411.2075" y1="493.14375" x2="541.2442" y2="492.39727" xlink:href="#linear-gradient-5"/>
    <linearGradient id="linear-gradient-131" x1="411.18986" y1="490.07195" x2="541.22657" y2="489.32547" xlink:href="#linear-gradient-5"/>
    <linearGradient id="linear-gradient-132" x1="411.25959" y1="502.21828" x2="541.2963" y2="501.4718" xlink:href="#linear-gradient-5"/>
    <linearGradient id="linear-gradient-133" x1="411.24289" y1="499.30866" x2="541.27959" y2="498.56218" xlink:href="#linear-gradient-5"/>
    <linearGradient id="linear-gradient-134" x1="411.2254" y1="496.26256" x2="541.26211" y2="495.51608" xlink:href="#linear-gradient-5"/>
    <linearGradient id="linear-gradient-135" x1="411.20777" y1="493.19077" x2="541.24447" y2="492.44429" xlink:href="#linear-gradient-5"/>
    <linearGradient id="linear-gradient-136" x1="411.35887" y1="519.51321" x2="541.39558" y2="518.76673" xlink:href="#linear-gradient-5"/>
    <linearGradient id="linear-gradient-137" x1="518.95539" y1="455.39916" x2="596.56815" y2="455.39916" xlink:href="#linear-gradient-50"/>
    <linearGradient id="linear-gradient-138" x1="595.01007" y1="453.75321" x2="651.57033" y2="589.36155" gradientTransform="matrix(1, 0, 0, 1, 0, 0)" xlink:href="#linear-gradient-69"/>
    <linearGradient id="linear-gradient-139" x1="616.67872" y1="444.7311" x2="673.18936" y2="580.22046" gradientTransform="matrix(1, 0, 0, 1, 0, 0)" xlink:href="#linear-gradient-69"/>
    <linearGradient id="linear-gradient-140" x1="641.61493" y1="425.84429" x2="701.34389" y2="569.04987" gradientTransform="matrix(1, 0, 0, 1, 0, 0)" xlink:href="#linear-gradient-69"/>
    <linearGradient id="linear-gradient-141" x1="616.67916" y1="419.77" x2="648.08342" y2="467.51468" gradientUnits="userSpaceOnUse">
      <stop offset="0" stop-color="#cebcb3"/>
      <stop offset="1" stop-color="#bfa090"/>
    </linearGradient>
    <linearGradient id="linear-gradient-142" x1="632.16672" y1="409.583" x2="663.57098" y2="457.32768" xlink:href="#linear-gradient-141"/>
  </defs>
  <g>
    <g>
      <polygon class="cls-1" points="500.385 66.823 907.032 301.591 907.032 696.807 500.385 462.017 500.385 66.823"/>
      <polygon class="cls-2" points="500.385 376.393 501.671 405.489 664.86 491.618 500.385 113.292 500.385 376.393"/>
      <polygon class="cls-3" points="500.401 66.823 93.755 301.591 93.755 696.807 500.401 462.017 500.401 66.823"/>
    </g>
    <path class="cls-4" d="M100.77183,708.973,479.35242,927.537a42.10143,42.10143,0,0,0,42.1011-.00062l378.5612-218.56743a14.03381,14.03381,0,0,0,.00016-24.307L521.43713,466.078a42.10144,42.10144,0,0,0-42.10408.00053L100.771,684.666A14.03381,14.03381,0,0,0,100.77183,708.973Z"/>
    <polygon class="cls-5" points="145.801 658.643 285.25 784.879 636.77 579.761 479.639 551.713 265.986 589.854 145.801 658.643"/>
  </g>
  <ellipse class="cls-6" cx="635.109" cy="737.93905" rx="117.52246" ry="67.54164"/>
  <g>
    <g>
      <path class="cls-2" d="M560.52531,154.07019l10.474-6.04512,58.7376,33.87381L619.25168,457.02877l.0001,8.73024-58.72647-33.89235Z"/>
      <polygon class="cls-7" points="570.999 160.115 571.035 425.852 619.252 453.675 619.252 447.609 576.313 422.844 576.313 163.183 570.999 160.115"/>
      <polygon class="cls-8" points="560.525 154.07 560.53 431.871 619.252 465.759 619.252 453.675 570.999 425.832 570.999 160.115 560.525 154.07"/>
      <path class="cls-9" d="M629.73687,181.89888l-79.7012-46.007V434.2952a6.297,6.297,0,0,0,3.14831,5.45342l76.55289,44.18259Zm-69.20651,249.9724V154.06984l58.72142,33.89381V465.759Z"/>
    </g>
    <g>
      <path class="cls-2" d="M802.20231,292.77891l10.474-6.04512,58.73759,33.87381L860.92868,595.73749l.0001,8.73023-58.72647-33.89235Z"/>
      <polygon class="cls-10" points="812.676 298.823 812.712 564.561 860.929 592.384 860.929 586.318 817.99 561.553 817.99 301.891 812.676 298.823"/>
      <polygon class="cls-11" points="802.202 292.779 802.207 570.58 860.929 604.468 860.929 592.384 812.676 564.541 812.676 298.823 802.202 292.779"/>
      <path class="cls-12" d="M871.41387,320.6076l-79.7012-46.007V573.00391a6.297,6.297,0,0,0,3.14831,5.45343l76.55289,44.18259ZM802.20736,570.58V292.77855l58.72142,33.89382V604.46772Z"/>
    </g>
  </g>
  <g>
    <g>
      <g>
        <g>
          <path class="cls-13" d="M114.83,650.62657,485.65217,436.54232a7.04394,7.04394,0,0,0,3.5221-6.10031V93.83293L114.83,309.9714Z"/>
          <path class="cls-2" d="M477.44,427.72544,126.56877,630.29788l-11.71642-6.76221V309.98961l350.8712-202.58418L477.44,114.16764Z"/>
          <polygon class="cls-14" points="223.932 260.534 223.932 560.564 126.569 616.773 126.57 609.987 218.062 557.179 218.062 263.924 223.932 260.534"/>
          <polygon class="cls-15" points="344.8 190.748 344.781 490.792 247.422 547.003 247.422 540.217 338.911 487.411 338.911 194.128 344.8 190.748"/>
          <polygon class="cls-16" points="465.724 120.929 465.684 420.998 368.29 477.225 368.29 470.439 459.779 417.632 459.779 124.361 465.724 120.929"/>
          <polygon class="cls-17" points="477.44 114.168 477.434 427.731 126.57 630.293 126.569 616.773 465.724 420.975 465.724 120.929 477.44 114.168"/>
          <path class="cls-18" d="M114.82989,309.97139V650.62647L485.6521,436.54237a7.044,7.044,0,0,0,3.52211-6.10031V93.83291Zm241.7204-126.00795V497.5198L247.42228,560.522V246.97168ZM126.56981,316.74929l109.11254-62.99921V567.29971L126.56981,630.29276ZM477.43428,427.73072,368.29022,490.74205V177.185l109.14406-63.01748Z"/>
        </g>
        <polygon class="cls-19" points="235.682 567.3 223.932 560.564 223.932 260.534 235.682 253.75 235.682 567.3"/>
        <polygon class="cls-20" points="356.55 497.52 344.8 490.786 344.8 190.748 356.55 183.963 356.55 497.52"/>
      </g>
      <polygon class="cls-21" points="477.434 427.727 465.684 420.998 465.724 120.929 477.434 114.171 477.434 427.727"/>
    </g>
    <g>
      <circle class="cls-22" cx="495.09842" cy="115.18362" r="8.234"/>
      <path class="cls-23" d="M494.07234,121.00255,131.71826,330.25144l-4.01188-6.94877L490.074,114.046l.00183.00317a2.02066,2.02066,0,0,1,1.99347.21238,6.272,6.272,0,0,1,2.84619,4.90935A1.96845,1.96845,0,0,1,494.07234,121.00255Z"/>
      <path class="cls-3" d="M486.15075,125.55436a9.78873,9.78873,0,0,0-1.28646-3.82459,9.45137,9.45137,0,0,0-2.78132-3.09455,6.27929,6.27929,0,0,0-3.54659-1.18206,5.09342,5.09342,0,0,0-2.48634.643,5.62315,5.62315,0,0,0-2.57292,5.5113l4.31141-2.48613a1.37288,1.37288,0,0,1,.74785-.19121c1.07765,0,2.41631.97344,3.32036,2.53812.95625,1.65148,1.09547,3.40737.43462,4.31141a1.37191,1.37191,0,0,1-.43462.39982,1.20285,1.20285,0,0,1-.539.15662l-3.842,2.22531a6.13721,6.13721,0,0,0,3.63359,1.28647,4.87745,4.87745,0,0,0,2.48592-.66085,5.41489,5.41489,0,0,0,2.59033-4.885C486.18556,126.05859,486.16816,125.798,486.15075,125.55436Z"/>
      <path class="cls-3" d="M464.38551,138.13435a9.78892,9.78892,0,0,0-1.28647-3.82459,9.45151,9.45151,0,0,0-2.78132-3.09456,6.27935,6.27935,0,0,0-3.54658-1.18205,5.09336,5.09336,0,0,0-2.48634.643,5.62313,5.62313,0,0,0-2.57293,5.51129l4.31141-2.48613a1.373,1.373,0,0,1,.74786-.1912c1.07764,0,2.41631.97344,3.32036,2.53812.95625,1.65148,1.09546,3.40737.43462,4.31141a1.372,1.372,0,0,1-.43462.39982,1.20293,1.20293,0,0,1-.539.15662l-3.842,2.22531a6.13723,6.13723,0,0,0,3.63359,1.28647A4.87745,4.87745,0,0,0,461.83,143.767a5.41489,5.41489,0,0,0,2.59033-4.885C464.42031,138.63858,464.40291,138.378,464.38551,138.13435Z"/>
      <path class="cls-3" d="M434.97918,155.13083a9.78863,9.78863,0,0,0-1.28646-3.82458,9.45131,9.45131,0,0,0-2.78132-3.09456,6.27935,6.27935,0,0,0-3.54659-1.18205,5.09342,5.09342,0,0,0-2.48634.643,5.62312,5.62312,0,0,0-2.57292,5.51129l4.31141-2.48613a1.373,1.373,0,0,1,.74785-.19121c1.07765,0,2.41631.97344,3.32036,2.53812.95625,1.65148,1.09547,3.40737.43462,4.31142a1.372,1.372,0,0,1-.43462.39982,1.20284,1.20284,0,0,1-.539.15661l-3.842,2.22532a6.1372,6.1372,0,0,0,3.63359,1.28646,4.87736,4.87736,0,0,0,2.48592-.66085,5.41488,5.41488,0,0,0,2.59033-4.885C435.014,155.63506,434.99659,155.37446,434.97918,155.13083Z"/>
      <path class="cls-3" d="M137.614,326.84623a9.78892,9.78892,0,0,0-1.28647-3.82459,9.45151,9.45151,0,0,0-2.78132-3.09456,6.27935,6.27935,0,0,0-3.54658-1.18205,5.09336,5.09336,0,0,0-2.48634.643,5.62313,5.62313,0,0,0-2.57293,5.51129l4.31141-2.48613a1.373,1.373,0,0,1,.74786-.1912c1.07764,0,2.41631.97344,3.32035,2.53812.95626,1.65148,1.09547,3.40737.43463,4.31141a1.372,1.372,0,0,1-.43463.39982,1.20285,1.20285,0,0,1-.539.15662l-3.842,2.22531a6.13721,6.13721,0,0,0,3.63359,1.28647,4.87745,4.87745,0,0,0,2.48592-.66085,5.41489,5.41489,0,0,0,2.59033-4.885C137.64877,327.35046,137.63137,327.08985,137.614,326.84623Z"/>
      <circle class="cls-24" cx="124.77873" cy="329.01158" r="8.234"/>
    </g>
    <path class="cls-25" d="M132.79029,335.24372a19.92869,19.92869,0,0,0,11.42963,1.44258c11.16034-2.00027,13.09391-14.77913,13.09391-14.77913s6.35662,3.90551,11.24955,1.874c8.95526-3.71822,10.28871-15.38865,10.28871-15.38865-6.7846,60.16052-19.56244,121-36.84114,182.34951,8.85812,40.90166,14.23874,87.7954,17.75476,137.902,1.18364,13.24211-11.818,19.0309-21.08377,15.75738,1.16513,9.26575-15.75737,11.4851-15.75737,5.32645V497.81362Z"/>
    <path class="cls-26" d="M133.06773,497.40672l36.33252-174.03864c-.278.13879-.54243.29074-.837.413-4.89289,2.03178-11.24921-1.87376-11.24921-1.87376s-.01146.34549-.09168.906Z"/>
    <circle class="cls-3" cx="134.62929" cy="333.70224" r="2.77418"/>
    <path class="cls-3" d="M159.845,313.99864a9.78882,9.78882,0,0,0-1.28647-3.82458,9.45131,9.45131,0,0,0-2.78132-3.09456,6.27929,6.27929,0,0,0-3.54658-1.18206,5.09343,5.09343,0,0,0-2.48635.643,5.62315,5.62315,0,0,0-2.57292,5.5113l4.31141-2.48613a1.37294,1.37294,0,0,1,.74786-.19121c1.07764,0,2.41631.97344,3.32035,2.53812.95626,1.65148,1.09547,3.40737.43463,4.31142a1.372,1.372,0,0,1-.43463.39981,1.20285,1.20285,0,0,1-.539.15662l-3.842,2.22532a6.13726,6.13726,0,0,0,3.63359,1.28646,4.87745,4.87745,0,0,0,2.48592-.66085,5.41489,5.41489,0,0,0,2.59033-4.885C159.87981,314.50287,159.86241,314.24227,159.845,313.99864Z"/>
    <circle class="cls-3" cx="156.86033" cy="320.85465" r="2.77418"/>
    <path class="cls-3" d="M181.25838,301.63145a9.78889,9.78889,0,0,0-1.28646-3.82459,9.4514,9.4514,0,0,0-2.78133-3.09455,6.27926,6.27926,0,0,0-3.54658-1.18206,5.09339,5.09339,0,0,0-2.48634.643,5.62315,5.62315,0,0,0-2.57293,5.51129l4.31142-2.48613a1.373,1.373,0,0,1,.74785-.1912c1.07764,0,2.41631.97344,3.32036,2.53812.95625,1.65148,1.09547,3.40737.43462,4.31141a1.37191,1.37191,0,0,1-.43462.39982,1.20289,1.20289,0,0,1-.539.15662l-3.842,2.22531a6.13721,6.13721,0,0,0,3.63359,1.28647,4.87748,4.87748,0,0,0,2.48592-.66085,5.4149,5.4149,0,0,0,2.59032-4.885C181.29318,302.13568,181.27578,301.87508,181.25838,301.63145Z"/>
    <circle class="cls-3" cx="178.1066" cy="308.01748" r="2.77418"/>
    <path class="cls-27" d="M486.86442,433.76685V285.23224l-5.66187-151.65013c.6047,16.1965-12.85654,18.464-20.23582,14.58008.22193,15.42445-18.53922,18.85257-28.97223,14.89478,7.90914,45.62542,17.26739,92.8715,34.44078,129.98052-7.86065,62.4565-10.5556,105.83032-10.5556,160.53722,0,7.36079,19.41928,3.95779,19.41928-10.209C482.12345,447.0276,486.86533,440.758,486.86442,433.76685Z"/>
    <circle class="cls-3" cx="481.56197" cy="133.47111" r="2.77418"/>
    <circle class="cls-3" cx="431.9945" cy="161.98685" r="2.77418"/>
    <path class="cls-26" d="M483.34817,442.80884,478.0596,297.81357,475.299,443.3657C478.55566,445.1132,481.32913,444.58383,483.34817,442.80884Z"/>
    <path class="cls-26" d="M472.26049,149.14005a15.09892,15.09892,0,0,1-11.29378-.97788l17.09289,147.613Z"/>
    <circle class="cls-3" cx="460.82959" cy="146.12137" r="2.77418"/>
    <path class="cls-26" d="M132.39377,500.88369l6.2882,143.5177,3.15621.73152a17.34983,17.34983,0,0,0,7.64578-.71507Z"/>
    <path class="cls-28" d="M121.76676,497.0832c6.37327,4.74373,19.02354,2.025,22.602-5.95975"/>
    <path class="cls-28" d="M464.40781,293.8558c6.37327,4.74373,21.23174,2.58923,24.7664-6.25116"/>
  </g>
  <path class="cls-6" d="M553.30394,534.94264,231.18722,720.75221a2.836,2.836,0,0,0,.00017,4.912l116.848,67.45536a8.50787,8.50787,0,0,0,8.50809-.00029L678.65016,607.31554a2.836,2.836,0,0,0,0-4.91188l-116.83764-67.461A8.50786,8.50786,0,0,0,553.30394,534.94264Z"/>
  <g>
    <g>
      <path class="cls-29" d="M688.90628,583.57834V599.4831a2.64635,2.64635,0,0,1-1.33206,2.39769l-82.79916,47.78686a7.95381,7.95381,0,0,1-3.99617,1.06562V573.78034Z"/>
      <path class="cls-30" d="M600.77889,573.78034v76.95293a7.9536,7.9536,0,0,1-3.99617-1.06562L484.26387,584.71656l-4.32919-2.50428a2.66534,2.66534,0,0,1-1.33205-2.33109v-15.9181l5.66124.45294Z"/>
      <path class="cls-31" d="M566.74391,511.50419l-86.8076,50.104a2.66411,2.66411,0,0,0,0,4.6144l116.84776,67.45914a7.99235,7.99235,0,0,0,7.99222-.00008l82.80205-47.79144a2.66411,2.66411,0,0,0,.00011-4.61431Z"/>
      <g>
        <polygon class="cls-32" points="683.688 582.498 600.78 630.356 600.78 475.816 683.679 427.964 683.688 582.498"/>
        <polygon class="cls-33" points="484.261 563.086 484.261 408.547 600.78 475.816 600.78 630.356 484.261 563.086"/>
      </g>
    </g>
    <g>
      <path class="cls-34" d="M440.159,727.03025V742.935a2.64633,2.64633,0,0,1-1.33206,2.39768l-82.79916,47.78686a7.95388,7.95388,0,0,1-3.99617,1.06563V717.23225Z"/>
      <path class="cls-35" d="M352.0316,717.23225v76.95293a7.95361,7.95361,0,0,1-3.99617-1.06563L235.51657,728.16846l-4.32918-2.50427a2.66534,2.66534,0,0,1-1.33206-2.3311V707.415l5.66124.45293Z"/>
      <path class="cls-36" d="M317.99662,654.95609,231.189,705.06014a2.66411,2.66411,0,0,0,0,4.6144l116.84776,67.45913a7.99235,7.99235,0,0,0,7.99222-.00008l82.802-47.79144a2.66411,2.66411,0,0,0,.00011-4.61431Z"/>
      <g>
        <polygon class="cls-37" points="434.941 725.95 352.033 773.808 352.033 606.051 434.932 558.198 434.941 725.95"/>
        <polygon class="cls-38" points="421.567 578.645 421.57 610.133 609.866 501.42 609.863 470.028 421.567 578.645"/>
        <polygon class="cls-39" points="430.308 611.077 356.666 653.586 356.666 627.245 430.3 584.74 430.308 611.077"/>
        <polygon class="cls-40" points="403.528 611.648 383.446 623.241 383.446 617.282 403.526 605.691 403.528 611.648"/>
        <polygon class="cls-41" points="430.308 646.257 356.666 688.766 356.666 662.425 430.3 619.92 430.308 646.257"/>
        <polygon class="cls-42" points="403.528 646.807 383.446 658.399 383.446 652.44 403.526 640.849 403.528 646.807"/>
        <polygon class="cls-43" points="430.308 718.241 356.666 760.75 356.666 697.605 430.3 655.1 430.308 718.241"/>
        <polygon class="cls-44" points="403.528 681.973 383.446 693.565 383.446 687.606 403.526 676.015 403.528 681.973"/>
        <g>
          <polygon class="cls-45" points="679.055 467.41 605.413 509.919 605.413 483.578 679.047 441.073 679.055 467.41"/>
          <polygon class="cls-46" points="652.275 467.982 632.193 479.574 632.193 473.615 652.273 462.024 652.275 467.982"/>
          <polygon class="cls-47" points="679.055 502.59 605.413 545.099 605.413 518.758 679.047 476.254 679.055 502.59"/>
          <polygon class="cls-48" points="652.275 503.14 632.193 514.732 632.193 508.773 652.273 497.182 652.275 503.14"/>
          <polygon class="cls-49" points="679.055 574.574 605.413 617.083 605.413 553.938 679.047 511.434 679.055 574.574"/>
          <polygon class="cls-50" points="652.275 538.306 632.193 549.898 632.193 543.939 652.273 532.348 652.275 538.306"/>
        </g>
        <polygon class="cls-51" points="235.513 706.538 235.513 538.781 352.033 606.051 352.033 773.808 235.513 706.538"/>
      </g>
    </g>
    <g>
      <path class="cls-52" d="M686.7492,418.91492l-7.69149,3.4448-119.13994-68.7971a8.5079,8.5079,0,0,0-8.50873,0L235.44377,535.82381,227.8749,532.423v9.36267l.00565-.00263a2.80422,2.80422,0,0,0,1.4122,2.50111l125.42407,72.41454a8.50837,8.50837,0,0,0,8.50792-.0004l322.107-185.80381a2.80875,2.80875,0,0,0,1.417-2.46137l.0004.0004Z"/>
      <path class="cls-53" d="M551.40928,344.09938,229.29256,529.909a2.836,2.836,0,0,0,.00017,4.912L354.71682,607.2353a8.50789,8.50789,0,0,0,8.50809-.00028L685.33155,421.43129a2.836,2.836,0,0,0,0-4.91188l-125.41369-72.42A8.50786,8.50786,0,0,0,551.40928,344.09938Z"/>
    </g>
  </g>
  <g>
    <g>
      <path class="cls-54" d="M602.65644,384.01451v17.60841a2.05566,2.05566,0,0,1-1.03757,1.795l-39.04393,22.57762a4.22521,4.22521,0,0,1-2.07515.54989V384.01451Z"/>
      <path class="cls-55" d="M560.49979,384.01451v42.53091a4.22521,4.22521,0,0,1-2.07515-.54989l-51.207-29.59184a2.05563,2.05563,0,0,1-1.03757-1.795V377.0003Z"/>
      <path class="cls-56" d="M507.21256,375.2038l39.047-22.57362a4.15028,4.15028,0,0,1,4.15442,0l51.21,29.58783a2.07515,2.07515,0,0,1,0,3.59307L562.577,408.3847a4.15026,4.15026,0,0,1-4.15441,0l-51.21-29.58783A2.07515,2.07515,0,0,1,507.21256,375.2038Z"/>
      <path class="cls-57" d="M518.22911,380.276l28.15077-16.27927a3.6248,3.6248,0,0,1,3.62839,0l41.41953,23.92218a1.81239,1.81239,0,0,1,0,3.13812L563.277,407.33628a3.6248,3.6248,0,0,1-3.62839,0L518.22911,383.4141A1.81239,1.81239,0,0,1,518.22911,380.276Z"/>
      <polygon class="cls-58" points="559.186 394.54 564.428 397.584 578.469 389.475 573.213 386.432 559.186 394.54"/>
      <path class="cls-59" d="M548.33678,354.38034a1.84574,1.84574,0,0,1,.9223.24742l50.86208,29.38684-38.699,22.37247a1.84286,1.84286,0,0,1-1.84467,0L508.71531,377.0003l38.69909-22.37247a1.84555,1.84555,0,0,1,.92238-.24749m0-2.30739a4.14712,4.14712,0,0,0-2.07721.55723l-39.047,22.57359a2.07516,2.07516,0,0,0,0,3.59312l51.21006,29.58784a4.15029,4.15029,0,0,0,4.1544,0l39.047-22.57367a2.07515,2.07515,0,0,0,0-3.59305L550.414,352.63018a4.14706,4.14706,0,0,0-2.0772-.55723Z"/>
      <path class="cls-60" d="M589.023,403.54495l-9.0296,5.25775a1.0138,1.0138,0,0,1-1.52394-.8761v-.96389a2.02763,2.02763,0,0,1,1.00733-1.75221l9.0296-5.25775a1.0138,1.0138,0,0,1,1.52394.87611v.96388A2.02761,2.02761,0,0,1,589.023,403.54495Z"/>
    </g>
    <g>
      <path class="cls-54" d="M602.65644,364.10358V381.712a2.05564,2.05564,0,0,1-1.03757,1.795l-39.04393,22.57763a4.2252,4.2252,0,0,1-2.07515.54988V364.10358Z"/>
      <path class="cls-55" d="M560.49979,364.10358v42.53091a4.2252,4.2252,0,0,1-2.07515-.54988l-51.207-29.59184a2.05564,2.05564,0,0,1-1.03757-1.795V357.08937Z"/>
      <path class="cls-61" d="M507.21256,355.29288l39.047-22.57363a4.15033,4.15033,0,0,1,4.15442,0l51.21,29.58784a2.07515,2.07515,0,0,1,0,3.59307l-39.047,22.57362a4.15026,4.15026,0,0,1-4.15441,0l-51.21-29.58783A2.07515,2.07515,0,0,1,507.21256,355.29288Z"/>
      <path class="cls-62" d="M518.22911,360.36505l28.15077-16.27927a3.6248,3.6248,0,0,1,3.62839,0L591.4278,368.008a1.81239,1.81239,0,0,1,0,3.13812L563.277,387.42536a3.6248,3.6248,0,0,1-3.62839,0l-41.41953-23.92219A1.81239,1.81239,0,0,1,518.22911,360.36505Z"/>
      <path class="cls-63" d="M534.16875,360.3111l2.73785,1.59a2.62993,2.62993,0,0,0,2.63607.00314l11.53075-6.65967a.79557.79557,0,0,0,.00064-1.37747l-2.74941-1.59137a2.62993,2.62993,0,0,0-2.63356-.00077l-11.52094,6.65938A.79558.79558,0,0,0,534.16875,360.3111Z"/>
      <path class="cls-63" d="M548.33678,334.46942a1.84574,1.84574,0,0,1,.9223.24742l50.86208,29.38684-38.699,22.37247a1.84286,1.84286,0,0,1-1.84467,0l-50.86221-29.38677,38.69909-22.37247a1.84555,1.84555,0,0,1,.92238-.24749m0-2.30739a4.14711,4.14711,0,0,0-2.07721.55722l-39.047,22.5736a2.07516,2.07516,0,0,0,0,3.59312l51.21006,29.58783a4.15023,4.15023,0,0,0,4.1544,0l39.047-22.57366a2.07515,2.07515,0,0,0,0-3.59305L550.414,332.71925a4.147,4.147,0,0,0-2.0772-.55722Z"/>
      <path class="cls-64" d="M589.023,383.634l-9.0296,5.25775a1.0138,1.0138,0,0,1-1.52394-.8761v-.96389a2.02763,2.02763,0,0,1,1.00733-1.75221l9.0296-5.25775a1.0138,1.0138,0,0,1,1.52394.8761v.96389A2.02761,2.02761,0,0,1,589.023,383.634Z"/>
    </g>
  </g>
  <g>
    <g>
      <g>
        <path class="cls-65" d="M319.43139,529.83618c-2.2363-5.45639-10.71894-9.52157-20.86773-9.52157s-18.63143,4.06518-20.86764,9.52157h-.59545v2.85074c0,6.833,9.60932,12.37232,21.46309,12.37232s21.46318-5.53927,21.46318-12.37232v-2.85074Z"/>
        <ellipse class="cls-63" cx="298.56371" cy="529.41628" rx="21.46315" ry="12.37235"/>
        <path class="cls-65" d="M314.81053,526.24h.012l-.02526-.1499-.00386-.024-1.81761-10.86841h-28.824l-1.80562,10.82215c-.00771.0424-.01414.085-.021.12763l-.01542.09251h.00728a5.514,5.514,0,0,0-.07023.79874c0,5.19458,7.30556,9.40541,16.317,9.40541s16.31653-4.21083,16.31653-9.40541A5.51223,5.51223,0,0,0,314.81053,526.24Z"/>
        <ellipse class="cls-63" cx="298.56371" cy="515.40859" rx="14.41205" ry="8.30777"/>
      </g>
      <path class="cls-59" d="M295.25669,492.1132v21.76252c0,1.05283,1.48059,1.90631,3.307,1.90631s3.307-.85348,3.307-1.90631V492.1132Z"/>
    </g>
    <g>
      <path class="cls-66" d="M331.58277,489.37209h.00173l-.00535-.02705a11.40439,11.40439,0,0,0-.30642-1.56129l-6.66546-40.15456H272.51533L265.848,487.80593a11.3953,11.3953,0,0,0-.29447,1.501l-.0129.0652h.00409a11.14209,11.14209,0,0,0-.09815,1.39612c0,10.51161,14.82714,19.03289,33.1171,19.03289,18.29027,0,33.11742-8.52128,33.11742-19.03289A11.11388,11.11388,0,0,0,331.58277,489.37209Z"/>
      <ellipse class="cls-67" cx="298.56376" cy="448.91283" rx="26.14368" ry="15.0251"/>
      <path class="cls-68" d="M288.82185,462.84852a44.10329,44.10329,0,0,0,19.48371,0v-7.66628H288.82185Z"/>
      <ellipse class="cls-69" cx="298.56376" cy="455.1823" rx="9.7419" ry="5.61568"/>
      <path class="cls-70" d="M298.56375,435.17631c13.70515,0,24.855,6.16215,24.855,13.73648s-11.14982,13.7366-24.855,13.7366-24.855-6.16226-24.855-13.7366,11.14982-13.73648,24.855-13.73648m0-1.2886c-14.43868,0-26.14367,6.727-26.14367,15.02508,0,8.29821,11.705,15.02519,26.14367,15.02519s26.14367-6.727,26.14367-15.02519c0-8.2981-11.705-15.02508-26.14367-15.02508Z"/>
    </g>
  </g>
  <g>
    <polygon class="cls-71" points="757.251 284.37 757.287 363.129 657.118 305.296 657.082 226.537 757.251 284.37"/>
    <polygon class="cls-72" points="754.248 282.636 754.276 350.427 666.576 299.794 666.548 232.002 754.248 282.636"/>
    <path class="cls-73" d="M753.347,356.31041l-92.29583-53.287-.02926-69.66763,92.29586,53.287.02923,69.66763m3.93995,6.81865-.03562-78.75915L657.082,226.5371l.03565,78.75916L757.287,363.12906Z"/>
    <polygon class="cls-74" points="664.177 222.429 764.347 280.262 757.251 284.37 657.082 226.537 664.177 222.429"/>
    <polygon class="cls-75" points="764.347 280.262 764.368 359.029 757.287 363.129 757.251 284.37 764.347 280.262"/>
  </g>
  <g>
    <g>
      <g>
        <g>
          <path class="cls-76" d="M580.31171,732.2053l.01814.01047,5.98084,3.453L579.278,747.84973l-6.00156-3.465.00043-.00074a3.45443,3.45443,0,0,1-1.47274-3.20965,10.9927,10.9927,0,0,1,4.98877-8.605,3.53346,3.53346,0,0,1,3.51606-.36533l.00013-.00024Z"/>
          <ellipse class="cls-77" cx="582.79973" cy="741.76203" rx="7.03331" ry="4.06052" transform="translate(-351.69685 870.53541) rotate(-59.68934)"/>
        </g>
        <g>
          <path class="cls-76" d="M595.53863,675.11128l.01815.01047,5.98084,3.453L594.505,690.75571l-6.00156-3.465.00043-.00075a3.45441,3.45441,0,0,1-1.47274-3.20964,10.99267,10.99267,0,0,1,4.98877-8.605,3.53346,3.53346,0,0,1,3.51606-.36533l.00013-.00024Z"/>
          <ellipse class="cls-78" cx="598.02666" cy="684.66801" rx="7.03331" ry="4.06052" transform="translate(-294.86541 855.4015) rotate(-59.68934)"/>
        </g>
        <g>
          <path class="cls-76" d="M668.28393,756.82387l.01815.01048,5.98084,3.453-7.03265,12.18091-6.00156-3.465.00043-.00075a3.45443,3.45443,0,0,1-1.47274-3.20964,10.99267,10.99267,0,0,1,4.98877-8.605,3.53346,3.53346,0,0,1,3.51606-.36534l.00013-.00023Z"/>
          <ellipse class="cls-79" cx="670.77196" cy="766.38061" rx="7.03331" ry="4.06052" transform="translate(-329.37643 958.67585) rotate(-59.68934)"/>
        </g>
        <g>
          <path class="cls-76" d="M739.4058,715.86l.01815.01048,5.98084,3.453-7.03265,12.18091-6.00156-3.465.00043-.00075a3.45443,3.45443,0,0,1-1.47274-3.20964,10.99266,10.99266,0,0,1,4.98877-8.60495,3.53346,3.53346,0,0,1,3.51606-.36534l.00013-.00023Z"/>
          <ellipse class="cls-80" cx="741.89383" cy="725.4167" rx="7.03331" ry="4.06052" transform="translate(-258.78472 999.78557) rotate(-59.68934)"/>
        </g>
        <g>
          <path class="cls-76" d="M694.98325,664.77754l.01814.01048,5.98085,3.453L693.94959,680.422l-6.00157-3.465.00044-.00075a3.45443,3.45443,0,0,1-1.47275-3.20964,10.99269,10.99269,0,0,1,4.98877-8.605,3.53346,3.53346,0,0,1,3.51606-.36534l.00014-.00023Z"/>
          <ellipse class="cls-81" cx="697.47127" cy="674.33428" rx="7.03331" ry="4.06052" transform="translate(-236.6882 936.13378) rotate(-59.68934)"/>
        </g>
        <g>
          <g>
            <path class="cls-76" d="M740.98511,713.62427l-69.75517-12.528,24.37185-32.14161a1.16338,1.16338,0,0,0,.25007-.81845l.00933.002v-5.87891l-4.57907,4.35268a3.08515,3.08515,0,0,0-1.29751.71055l-37.4265,26.83966-54.34553-20.16723-7.50183-2.51986v5.87353l.00377.002a1.42726,1.42726,0,0,0,.77558,1.30783L635.798,707.57324l-61.037,20.95128v5.97192l.01426-.00457a1.20516,1.20516,0,0,0,.31877.84411l.0009.00108a4.39307,4.39307,0,0,0,4.06933.84626l61.93619-15.55807a25.9863,25.9863,0,0,0,8.58085,2.53718l14.11606,37.7909c.35213.94268,1.9181,1.5587,3.57081,1.4047l.0034-.00027c1.52857-.14253,2.62652-.89954,2.65845-1.77218l.00628.0174v-5.86545l-.87954.388-5.53718-33.25632a21.84047,21.84047,0,0,0,3.85658-1.71289,14.78159,14.78159,0,0,0,3.00574-2.26459l67.0387,3.53206c1.6649.08772,3.16746-.58983,3.426-1.545l.00027-.00108a1.06415,1.06415,0,0,0,.03-.29635l.00825.00072Z"/>
            <path class="cls-82" d="M738.49521,711.945l-65.40888-15.13973a8.95761,8.95761,0,0,0-3.88276-5.93937l26.39822-27.78947c.67253-.88689.03319-1.91846-1.45753-2.3516h-.00009a4.59512,4.59512,0,0,0-4.15956.71944l-32.438,25.28548A31.63381,31.63381,0,0,0,644.08,688.158l-48.10437-17.95164a4.96992,4.96992,0,0,0-4.33375.0722c-1.19042.68311-1.257,1.78043-.15176,2.50166l44.08814,21.6326a6.67808,6.67808,0,0,0-.41824,5.6457l-58.81277,26.99944c-1.4508.486-2.00045,1.53853-1.25321,2.39986l.0009.00107a4.393,4.393,0,0,0,4.06933.84627l63.83008-23.50936a27.31022,27.31022,0,0,0,6.17185,1.59952l14.63117,46.67985c.35213.94268,1.9181,1.5587,3.57081,1.4047l.0034-.00027c1.65271-.1541,2.81873-1.02476,2.65881-1.98529l-6.62113-47.2486a21.99687,21.99687,0,0,0,4.06691-1.78483,16.79756,16.79756,0,0,0,1.45385-.947l68.59059,11.03175c1.6649.08772,3.16746-.58983,3.426-1.545l.00027-.00108C741.2054,713.04449,740.13015,712.14342,738.49521,711.945Z"/>
          </g>
          <path class="cls-76" d="M665.774,697.14577h.01182l-1.47513-21.93162H643.37135l-1.47825,21.93162h.01c-.14361,1.86158.99668,3.74576,3.45043,5.16246,4.65511,2.68765,12.22622,2.674,16.91061-.03055C664.71424,700.86314,665.87663,698.99288,665.774,697.14577Z"/>
          <ellipse class="cls-83" cx="653.83993" cy="675.34203" rx="10.47304" ry="6.04638" transform="translate(-3.65212 3.55507) rotate(-0.31066)"/>
        </g>
      </g>
      <path class="cls-84" d="M660.87107,674.33852c.00011-.007,0-.01393,0-.02095v-6.90608H646.80576v6.93h.00087a3.45442,3.45442,0,0,0,2.04326,2.88026,10.99268,10.99268,0,0,0,9.94649-.01793,3.53348,3.53348,0,0,0,2.07442-2.86233h.00027Z"/>
    </g>
    <g>
      <path class="cls-85" d="M724.37654,640.86012l-81.01461,55.591-90.2174-52.09641a2.95379,2.95379,0,0,1-1.54818-2.59911V638.8723a8.83336,8.83336,0,0,1,4.41715-7.66972l75.84474-43.75984Z"/>
      <path class="cls-86" d="M757.129,498.31746,725.27134,640.2494l-.8948.61072-92.5183-53.41738V586.619c0-37.14121,11.03585-95.24617,25.57984-136.03759a7.30124,7.30124,0,0,1,9.51612-4.33194,4.6126,4.6126,0,0,1,.9658.55394Z"/>
      <path class="cls-87" d="M641.75435,693.81793v-2.88826a8.853,8.853,0,0,1,4.42891-7.66832l75.83818-43.7534v-.8225c0-37.14417,11.03886-95.2526,25.57535-136.03467a7.302,7.302,0,0,1,9.52826-4.33069h0a3.95482,3.95482,0,0,1,2.29687,5.0519c-14.70832,39.77853-26.038,98.31642-26.038,135.31346V641.521a7.8786,7.8786,0,0,1-3.94147,6.82432L646.1866,696.37783A2.95538,2.95538,0,0,1,641.75435,693.81793Z"/>
    </g>
  </g>
  <g>
    <g>
      <path class="cls-88" d="M163.9272,653.77414l-55.451.13226,7.01874,43.4045c.59474,6.30027,9.6457,11.30754,20.75636,11.30754,11.11121,0,20.16163-5.00727,20.75637-11.30754Z"/>
      <ellipse class="cls-67" cx="136.18731" cy="651.82331" rx="27.94426" ry="16.05992"/>
      <path class="cls-89" d="M160.43161,659.80229c-4.82258,4.84517-13.885,8.07533-24.24871,8.07533s-19.42558-3.23016-24.24871-8.07533c3.07339-6.01166,12.76346-10.40831,24.24871-10.40831S157.35821,653.79063,160.43161,659.80229Z"/>
      <path class="cls-70" d="M136.18736,639.58115c14.218,0,24.1266,6.45182,24.1266,12.24215,0,5.79039-9.90858,12.2422-24.1266,12.2422s-24.1266-6.45181-24.1266-12.2422c0-5.79033,9.90858-12.24215,24.1266-12.24215m0-3.81774c-15.43318,0-27.94429,7.19023-27.94429,16.05989s12.51111,16.05995,27.94429,16.05995,27.94429-7.19029,27.94429-16.05995-12.51112-16.05989-27.94429-16.05989Z"/>
    </g>
    <path class="cls-90" d="M127.18958,614.4696c-13.1008-2.01665-38.88564-10.51732-33.48925-20.24212S124.19246,595.73593,127.18958,614.4696Z"/>
    <path class="cls-89" d="M132.93968,655.41627a1.03143,1.03143,0,0,1-1.03186-1.03153c0-27.84569-5.067-45.9994-16.9433-60.70212a1.03178,1.03178,0,0,1,1.60557-1.29631c12.197,15.10024,17.40145,33.64136,17.40145,61.99843A1.03143,1.03143,0,0,1,132.93968,655.41627Z"/>
    <path class="cls-89" d="M137.56738,655.41627a1.03143,1.03143,0,0,1-1.03186-1.03153c0-26.22666,0-62.146,13.174-78.45561a1.03178,1.03178,0,0,1,1.60556,1.29631c-12.71581,15.743-12.71581,51.23988-12.71581,77.1593A1.03143,1.03143,0,0,1,137.56738,655.41627Z"/>
    <path class="cls-89" d="M138.05249,627.26266a1.03188,1.03188,0,0,1-1.02748-.9473c-1.71134-20.97405-6.25718-35.2294-14.30622-44.86143a1.03174,1.03174,0,1,1,1.58333-1.32325c8.33572,9.975,13.03181,24.59751,14.77987,46.01624a1.03177,1.03177,0,0,1-.94461,1.11237C138.10875,627.262,138.08045,627.26266,138.05249,627.26266Z"/>
    <path class="cls-91" d="M133.53746,600.10412c-12.41352-9.28868-32.56114-33.74365-21.641-40.81312S140.74961,579.11805,133.53746,600.10412Z"/>
    <path class="cls-92" d="M138.05354,637.10481c10.38638-1.37081,30.34427-9.12322,26.24544-16.89938S140.74032,622.35263,138.05354,637.10481Z"/>
    <path class="cls-89" d="M137.60949,643.6646c-.02459,0-.04952-.00068-.07445-.0027a1.03132,1.03132,0,0,1-.95572-1.10226c1.28418-17.96842,9.29178-36.9367,22.112-38.42436a1.03166,1.03166,0,1,1,.23784,2.04957c-11.70518,1.3583-19.068,19.40083-20.29154,36.52167A1.03145,1.03145,0,0,1,137.60949,643.6646Z"/>
    <path class="cls-89" d="M132.50477,642.01659a1.03255,1.03255,0,0,1-1.02377-.915c-1.3364-11.66476-12.07136-19.94994-17.52138-21.79267a1.032,1.032,0,0,1,.66095-1.95524c5.88257,1.9896,17.46883,10.929,18.91067,23.51344a1.0315,1.0315,0,0,1-.90755,1.142A1.01652,1.01652,0,0,1,132.50477,642.01659Z"/>
    <path class="cls-93" d="M127.18958,627.781c-10.96147-.11708-33.43358-3.7067-30.1543-12.3S122.54248,612.79508,127.18958,627.781Z"/>
    <path class="cls-94" d="M123.23844,604.13213c-9.23058-7.47942-24.46608-26.44253-15.89544-31.53288S129.38126,588.27605,123.23844,604.13213Z"/>
    <path class="cls-95" d="M144.03986,616.71458c17.08455-4.57708,48.78844-21.93977,40.21852-34.05556S145.29535,591.43044,144.03986,616.71458Z"/>
    <path class="cls-96" d="M141.68015,596.21791c11.6192-8.69431,31.08358-29.13672,20.86223-35.75381S134.9295,576.57471,141.68015,596.21791Z"/>
  </g>
  <g>
    <g>
      <g>
        <path class="cls-97" d="M479.04024,469.6971l-69.5648,14.53056v2.62464l.0023-.00115a2.85489,2.85489,0,0,0,1.44117,2.47951l16.45726,9.4911a8.65358,8.65358,0,0,0,8.652-.00331l41.57046-24.01563a2.85171,2.85171,0,0,0,1.43384-2.56068l.00777.00475Z"/>
        <path class="cls-65" d="M477.59866,472.15971l-41.57048,24.0157a8.65354,8.65354,0,0,1-8.652.00325l-16.4573-9.491a2.88453,2.88453,0,0,1-.00187-4.99645l41.57048-24.0157a8.65357,8.65357,0,0,1,8.652-.00325l16.45731,9.491A2.88453,2.88453,0,0,1,477.59866,472.15971Z"/>
      </g>
      <path class="cls-97" d="M455.68812,451.1036l-27.29627,7.96193v17.53166l.0007-.00035a.87562.87562,0,0,0,.442.76048l5.04756,2.911a2.65412,2.65412,0,0,0,2.65363-.001L455.246,469.39623a.87465.87465,0,0,0,.43977-.78538l.00238.00145Z"/>
    </g>
    <g>
      <path class="cls-97" d="M505.08787,347.18142l-3.91135-2.25633-.00295.0037a1.36194,1.36194,0,0,0-1.41364-.02633L380.83144,413.57052a4.13608,4.13608,0,0,0-2.06787,3.58165l-.00227,84.50943a1.3648,1.3648,0,0,0,.6963,1.19688l-.00059.00076,3.9552,2.28233Z"/>
      <path class="cls-98" d="M503.05923,436.6592,385.51412,504.53511a1.36257,1.36257,0,0,1-2.04394-1.18l.00223-83.52472a4.08771,4.08771,0,0,1,2.04376-3.53989l117.54277-67.868a1.36257,1.36257,0,0,1,2.0439,1.18v83.51678A4.08773,4.08773,0,0,1,503.05923,436.6592Z"/>
      <path class="cls-99" d="M493.72721,442.0481v-63.431a1.10768,1.10768,0,0,0-1.66146-.95937L396.50927,432.831a3.32407,3.32407,0,0,0-1.66168,2.87789l-.00128,63.43746Z"/>
      <path class="cls-100" d="M485.56247,408.4867V388.84681a.343.343,0,0,0-.51444-.29705l-29.58677,17.08309a1.02919,1.02919,0,0,0-.5145.89107l-.0004,19.64189Z"/>
      <path class="cls-65" d="M502.94171,350.93109V432.8845a1.29014,1.29014,0,0,1-.64341,1.11419L385.57407,501.40053l.00226-81.96131a1.29047,1.29047,0,0,1,.64312-1.11419l116.72226-67.39394m1.46875-3.92814a1.37014,1.37014,0,0,0-.68741.18673L384.7947,415.85746a4.13654,4.13654,0,0,0-2.06787,3.58176l-.00226,84.50955a1.37582,1.37582,0,0,0,2.06788,1.19373l118.93088-68.67624a4.136,4.136,0,0,0,2.06787-3.58176V348.38341a1.38039,1.38039,0,0,0-1.38074-1.38046Z"/>
    </g>
  </g>
  <g>
    <path class="cls-97" d="M427.81687,518.1854l1.79479.92072,68.79442-39.71849a4.557,4.557,0,0,1,4.55776.00046l27.82369,14.15851-.0101,3.14744a2.25017,2.25017,0,0,1-1.12894,2.05428L460.209,538.84571a4.55693,4.55693,0,0,1-4.55738,0L428.956,523.43089a2.25334,2.25334,0,0,1-1.13423-2.01229Z"/>
    <path class="cls-65" d="M529.64877,491.6569l-26.6849-15.41414a4.55691,4.55691,0,0,0-4.55776-.00049l-69.45,40.09692a2.27846,2.27846,0,0,0-.00012,3.94634l26.69563,15.41482a4.55689,4.55689,0,0,0,4.55742,0L529.64848,495.603A2.27845,2.27845,0,0,0,529.64877,491.6569Z"/>
    <g class="cls-101">
      <path class="cls-102" d="M445.792,514.34763l-3.38007,1.95148a1.17341,1.17341,0,0,1-1.0557-.04376L438.155,514.4071c-.31246-.1804-.3464-.45328-.0758-.60951l3.38006-1.95148a1.17335,1.17335,0,0,1,1.0557.04376l3.20126,1.84825C446.02866,513.91851,446.06259,514.1914,445.792,514.34763Z"/>
      <path class="cls-103" d="M440.46283,517.42442l-3.38006,1.95148a1.17335,1.17335,0,0,1-1.0557-.04376l-3.20126-1.84825c-.31245-.18039-.34639-.45328-.07579-.60951l3.38006-1.95148a1.17341,1.17341,0,0,1,1.0557.04376l3.20126,1.84825C440.69949,516.99531,440.73343,517.26819,440.46283,517.42442Z"/>
      <path class="cls-104" d="M504.41279,480.50289l-3.38006,1.95148a1.17335,1.17335,0,0,1-1.0557-.04376l-3.20126-1.84824c-.31245-.1804-.34639-.45329-.07579-.60951l3.38006-1.95148a1.17335,1.17335,0,0,1,1.0557.04376l3.20126,1.84824C504.64945,480.07378,504.68339,480.34667,504.41279,480.50289Z"/>
      <path class="cls-105" d="M499.08363,483.57969l-3.38006,1.95148a1.17343,1.17343,0,0,1-1.05571-.04376l-3.20125-1.84825c-.31246-.1804-.34639-.45328-.0758-.60951l3.38006-1.95148a1.17337,1.17337,0,0,1,1.05571.04376l3.20125,1.84825C499.32029,483.15057,499.35422,483.42346,499.08363,483.57969Z"/>
      <path class="cls-106" d="M493.75447,486.65648l-3.38006,1.95148a1.17337,1.17337,0,0,1-1.05571-.04376l-3.20125-1.84825c-.31246-.18039-.34639-.45328-.0758-.60951l3.38006-1.95148a1.17341,1.17341,0,0,1,1.0557.04376l3.20126,1.84825C493.99113,486.22737,494.02506,486.50025,493.75447,486.65648Z"/>
      <path class="cls-107" d="M488.4253,489.73328l-3.38006,1.95148a1.17338,1.17338,0,0,1-1.0557-.04377l-3.20126-1.84824c-.31245-.1804-.34639-.45329-.07579-.60951l3.38006-1.95148a1.17335,1.17335,0,0,1,1.0557.04376l3.20126,1.84824C488.662,489.30416,488.6959,489.57705,488.4253,489.73328Z"/>
      <path class="cls-108" d="M483.09614,492.81007l-3.38006,1.95148a1.1734,1.1734,0,0,1-1.05571-.04376l-3.20125-1.84825c-.31246-.18039-.34639-.45328-.0758-.60951l3.38006-1.95148a1.1734,1.1734,0,0,1,1.05571.04376l3.20125,1.84825C483.3328,492.381,483.36673,492.65384,483.09614,492.81007Z"/>
      <path class="cls-109" d="M477.767,495.88686l-3.38006,1.95148a1.17337,1.17337,0,0,1-1.05571-.04376L470.13,495.94634c-.31246-.1804-.34639-.45329-.0758-.60951l3.38006-1.95148a1.17335,1.17335,0,0,1,1.0557.04376l3.20126,1.84824C478.00364,495.45775,478.03757,495.73064,477.767,495.88686Z"/>
      <path class="cls-110" d="M472.43781,498.96366l-3.38006,1.95148a1.17341,1.17341,0,0,1-1.0557-.04376l-3.20126-1.84825c-.31245-.1804-.34639-.45328-.07579-.60951l3.38006-1.95148a1.17335,1.17335,0,0,1,1.0557.04376l3.20126,1.84825C472.67447,498.53454,472.70841,498.80743,472.43781,498.96366Z"/>
      <path class="cls-111" d="M467.10865,502.04045l-3.38006,1.95148a1.17337,1.17337,0,0,1-1.05571-.04376l-3.20125-1.84825c-.31246-.18039-.34639-.45328-.0758-.60951l3.38006-1.95148a1.17343,1.17343,0,0,1,1.05571.04376l3.20125,1.84825C467.34531,501.61134,467.37924,501.88422,467.10865,502.04045Z"/>
      <path class="cls-112" d="M461.77949,505.11725l-3.38006,1.95147a1.17337,1.17337,0,0,1-1.05571-.04376l-3.20125-1.84824c-.31246-.1804-.34639-.45329-.0758-.60951l3.38006-1.95148a1.17335,1.17335,0,0,1,1.0557.04376l3.20126,1.84824C462.01615,504.68813,462.05008,504.961,461.77949,505.11725Z"/>
      <path class="cls-113" d="M456.45032,508.194l-3.38006,1.95148a1.17338,1.17338,0,0,1-1.0557-.04376l-3.20126-1.84825c-.31245-.18039-.34639-.45328-.07579-.60951l3.38006-1.95148a1.17338,1.17338,0,0,1,1.0557.04376l3.20126,1.84825C456.687,507.76492,456.72092,508.03781,456.45032,508.194Z"/>
      <path class="cls-114" d="M451.12116,511.27083l-3.38006,1.95148a1.17337,1.17337,0,0,1-1.05571-.04376l-3.20125-1.84824c-.31246-.1804-.34639-.45329-.0758-.60952l3.38006-1.95147a1.17337,1.17337,0,0,1,1.05571.04376l3.20125,1.84824C451.35782,510.84172,451.39175,511.11461,451.12116,511.27083Z"/>
      <path class="cls-115" d="M497.24056,490.82021l-3.38006,1.95148a1.17337,1.17337,0,0,1-1.05571-.04376l-3.20125-1.84824c-.31246-.1804-.34639-.45329-.0758-.60952l3.38006-1.95147a1.17337,1.17337,0,0,1,1.05571.04376l3.20125,1.84824C497.47722,490.3911,497.51115,490.664,497.24056,490.82021Z"/>
      <path class="cls-116" d="M491.87175,493.91989l-3.38006,1.95148a1.17335,1.17335,0,0,1-1.0557-.04376l-3.20126-1.84824c-.31245-.1804-.34639-.45329-.07579-.60951l3.38006-1.95148a1.17335,1.17335,0,0,1,1.0557.04376l3.20126,1.84824C492.10841,493.49078,492.14235,493.76367,491.87175,493.91989Z"/>
      <path class="cls-117" d="M486.503,497.01958l-3.38006,1.95147a1.17337,1.17337,0,0,1-1.05571-.04376l-3.20125-1.84824c-.31246-.1804-.34639-.45329-.0758-.60951l3.38006-1.95148a1.17337,1.17337,0,0,1,1.05571.04376l3.20125,1.84824C486.73961,496.59046,486.77354,496.86335,486.503,497.01958Z"/>
      <path class="cls-118" d="M481.13414,500.11926l-3.38006,1.95148a1.17338,1.17338,0,0,1-1.0557-.04377l-3.20126-1.84824c-.31245-.1804-.34639-.45328-.07579-.60951l3.38006-1.95148a1.17335,1.17335,0,0,1,1.0557.04376l3.20126,1.84825C481.3708,499.69014,481.40474,499.963,481.13414,500.11926Z"/>
      <path class="cls-119" d="M475.76534,503.21894l-3.38006,1.95148a1.17343,1.17343,0,0,1-1.05571-.04376l-3.20125-1.84825c-.31246-.1804-.34639-.45328-.0758-.60951l3.38006-1.95148a1.17337,1.17337,0,0,1,1.05571.04376l3.20125,1.84825C476.002,502.78982,476.03593,503.06271,475.76534,503.21894Z"/>
      <path class="cls-120" d="M470.39653,506.31862l-3.38006,1.95148a1.17338,1.17338,0,0,1-1.0557-.04376l-3.20126-1.84825c-.31245-.1804-.34639-.45328-.07579-.60951l3.38006-1.95148a1.17338,1.17338,0,0,1,1.0557.04376l3.20126,1.84825C470.63319,505.8895,470.66713,506.16239,470.39653,506.31862Z"/>
      <path class="cls-121" d="M465.02773,509.4183l-3.38006,1.95148a1.1734,1.1734,0,0,1-1.05571-.04376l-3.20125-1.84825c-.31246-.18039-.34639-.45328-.0758-.60951l3.38006-1.95148a1.1734,1.1734,0,0,1,1.05571.04376l3.20125,1.84825C465.26439,508.98918,465.29832,509.26207,465.02773,509.4183Z"/>
      <path class="cls-122" d="M459.65892,512.518l-3.38006,1.95148a1.17335,1.17335,0,0,1-1.0557-.04376l-3.20126-1.84825c-.31245-.18039-.34639-.45328-.07579-.60951l3.38006-1.95148a1.17341,1.17341,0,0,1,1.0557.04376l3.20126,1.84825C459.89558,512.08887,459.92952,512.36175,459.65892,512.518Z"/>
      <path class="cls-123" d="M454.29012,515.61766l-3.38006,1.95148a1.17337,1.17337,0,0,1-1.05571-.04376l-3.20125-1.84825c-.31246-.18039-.34639-.45328-.0758-.60951l3.38006-1.95148a1.17343,1.17343,0,0,1,1.05571.04376l3.20125,1.84825C454.52678,515.18855,454.56071,515.46143,454.29012,515.61766Z"/>
      <path class="cls-124" d="M502.60936,487.72053,499.2293,489.672a1.17335,1.17335,0,0,1-1.0557-.04376L494.97234,487.78c-.31245-.18039-.34639-.45328-.07579-.60951l3.38006-1.95148a1.17338,1.17338,0,0,1,1.0557.04377l3.20126,1.84824C502.846,487.29142,502.88,487.5643,502.60936,487.72053Z"/>
      <path class="cls-125" d="M509.76174,483.59111l-5.36059,3.09494a1.1734,1.1734,0,0,1-1.05571-.04377l-3.20125-1.84824c-.31246-.1804-.34639-.45329-.0758-.60951l5.36059-3.09494a1.17338,1.17338,0,0,1,1.0557.04376l3.20126,1.84825C509.9984,483.162,510.03233,483.43488,509.76174,483.59111Z"/>
      <path class="cls-126" d="M515.11068,486.67932l-7.65013,4.41681a1.1734,1.1734,0,0,1-1.05571-.04376l-3.20125-1.84825c-.31246-.18039-.34639-.45328-.0758-.60951l7.65013-4.41681a1.1734,1.1734,0,0,1,1.05571.04377l3.20125,1.84824C515.34734,486.25021,515.38127,486.52309,515.11068,486.67932Z"/>
      <path class="cls-127" d="M500.07862,495.35809l-3.38006,1.95148a1.1734,1.1734,0,0,1-1.05571-.04377l-3.20125-1.84824c-.31246-.1804-.34639-.45328-.0758-.60951l3.38006-1.95148a1.17337,1.17337,0,0,1,1.05571.04376l3.20125,1.84825C500.31528,494.929,500.34921,495.20186,500.07862,495.35809Z"/>
      <path class="cls-128" d="M494.73569,498.44283l-3.38006,1.95148a1.17343,1.17343,0,0,1-1.05571-.04376l-3.20125-1.84825c-.31246-.1804-.34639-.45328-.0758-.60951l3.38006-1.95148a1.17337,1.17337,0,0,1,1.05571.04376l3.20125,1.84825C494.97235,498.01371,495.00628,498.2866,494.73569,498.44283Z"/>
      <path class="cls-129" d="M489.39276,501.52757l-3.38006,1.95148a1.17338,1.17338,0,0,1-1.0557-.04376l-3.20126-1.84825c-.31245-.18039-.34639-.45328-.0758-.60951l3.38007-1.95148a1.17338,1.17338,0,0,1,1.0557.04376l3.20126,1.84825C489.62942,501.09845,489.66336,501.37134,489.39276,501.52757Z"/>
      <path class="cls-130" d="M484.04983,504.61231l-3.38006,1.95148a1.17335,1.17335,0,0,1-1.0557-.04376l-3.20126-1.84825c-.31245-.18039-.34639-.45328-.07579-.60951l3.38006-1.95148a1.17341,1.17341,0,0,1,1.0557.04376l3.20126,1.84825C484.28649,504.1832,484.32043,504.45608,484.04983,504.61231Z"/>
      <path class="cls-131" d="M478.7069,507.69705l-3.38006,1.95148a1.17335,1.17335,0,0,1-1.0557-.04376l-3.20126-1.84825c-.31245-.18039-.34639-.45328-.07579-.60951l3.38006-1.95148a1.17338,1.17338,0,0,1,1.0557.04377l3.20126,1.84824C478.94356,507.26794,478.9775,507.54082,478.7069,507.69705Z"/>
      <path class="cls-132" d="M473.364,510.78179l-3.38007,1.95148a1.17335,1.17335,0,0,1-1.0557-.04376l-3.20126-1.84824c-.31245-.1804-.34639-.45329-.07579-.60952l3.38006-1.95147a1.17335,1.17335,0,0,1,1.0557.04376l3.20126,1.84824C473.60063,510.35268,473.63457,510.62557,473.364,510.78179Z"/>
      <path class="cls-133" d="M468.02105,513.86653,464.641,515.818a1.17337,1.17337,0,0,1-1.05571-.04376L460.384,513.926c-.31246-.1804-.34639-.45329-.0758-.60951l3.38006-1.95148a1.17335,1.17335,0,0,1,1.0557.04376l3.20126,1.84824C468.25771,513.43742,468.29164,513.71031,468.02105,513.86653Z"/>
      <path class="cls-134" d="M462.67812,516.95128l-3.38006,1.95148a1.1734,1.1734,0,0,1-1.05571-.04377l-3.20125-1.84824c-.31246-.1804-.34639-.45328-.0758-.60951l3.38006-1.95148a1.17337,1.17337,0,0,1,1.05571.04376l3.20125,1.84824C462.91478,516.52216,462.94871,516.795,462.67812,516.95128Z"/>
      <path class="cls-135" d="M457.33519,520.036l-3.38006,1.95148a1.17343,1.17343,0,0,1-1.05571-.04376l-3.20125-1.84825c-.31246-.1804-.34639-.45328-.0758-.60951l3.38006-1.95148a1.17337,1.17337,0,0,1,1.05571.04376l3.20125,1.84825C457.57185,519.6069,457.60578,519.87979,457.33519,520.036Z"/>
      <path class="cls-136" d="M451.863,523.19537l-4.08237,2.357a1.1734,1.1734,0,0,1-1.05571-.04376l-3.20125-1.84825c-.31246-.18039-.34639-.45328-.0758-.60951l4.08238-2.357a1.17335,1.17335,0,0,1,1.0557.04376l3.20126,1.84825C452.09969,522.76625,452.13363,523.03914,451.863,523.19537Z"/>
      <path class="cls-137" d="M505.42155,492.27335l-3.38006,1.95147a1.17337,1.17337,0,0,1-1.05571-.04376l-3.20125-1.84824c-.31246-.1804-.34639-.45329-.0758-.60951l3.38006-1.95148a1.17337,1.17337,0,0,1,1.05571.04376l3.20125,1.84824C505.65821,491.84423,505.69214,492.11712,505.42155,492.27335Z"/>
      <path class="cls-138" d="M499.34212,501.95973l-3.38007,1.95148a1.17335,1.17335,0,0,1-1.0557-.04376l-3.20126-1.84824c-.31245-.1804-.34639-.45329-.07579-.60951l3.38006-1.95148a1.17335,1.17335,0,0,1,1.0557.04376l3.20126,1.84824C499.57877,501.53062,499.61271,501.80351,499.34212,501.95973Z"/>
      <path class="cls-139" d="M493.97331,505.05942l-3.38006,1.95148a1.17338,1.17338,0,0,1-1.0557-.04377l-3.20126-1.84824c-.31246-.1804-.34639-.45328-.0758-.60951l3.38006-1.95148a1.17337,1.17337,0,0,1,1.05571.04376l3.20125,1.84825C494.21,504.6303,494.2439,504.90319,493.97331,505.05942Z"/>
      <path class="cls-140" d="M488.60451,508.1591l-3.38007,1.95148a1.17341,1.17341,0,0,1-1.0557-.04376l-3.20126-1.84825c-.31245-.1804-.34639-.45328-.07579-.60951l3.38006-1.95148a1.17335,1.17335,0,0,1,1.0557.04376l3.20126,1.84825C488.84116,507.73,488.8751,508.00287,488.60451,508.1591Z"/>
      <path class="cls-141" d="M483.2357,511.25878l-3.38006,1.95148a1.1734,1.1734,0,0,1-1.05571-.04376l-3.20125-1.84825c-.31246-.1804-.34639-.45328-.0758-.60951l3.38006-1.95148a1.1734,1.1734,0,0,1,1.05571.04376l3.20125,1.84825C483.47236,510.82966,483.50629,511.10255,483.2357,511.25878Z"/>
      <path class="cls-142" d="M477.86689,514.35846l-3.38006,1.95148a1.17338,1.17338,0,0,1-1.0557-.04376l-3.20126-1.84825c-.31245-.18039-.34639-.45328-.07579-.60951l3.38006-1.95148a1.17338,1.17338,0,0,1,1.0557.04376l3.20126,1.84825C478.10355,513.92934,478.13749,514.20223,477.86689,514.35846Z"/>
      <path class="cls-143" d="M472.49809,517.45814l-3.38006,1.95148a1.1734,1.1734,0,0,1-1.05571-.04376l-3.20125-1.84825c-.31246-.18039-.34639-.45328-.0758-.60951l3.38006-1.95148a1.17343,1.17343,0,0,1,1.05571.04376l3.20125,1.84825C472.73475,517.029,472.76868,517.30191,472.49809,517.45814Z"/>
      <path class="cls-144" d="M467.12928,520.55782l-3.38006,1.95148a1.17335,1.17335,0,0,1-1.0557-.04376l-3.20126-1.84825c-.31245-.18039-.34639-.45328-.07579-.60951l3.38006-1.95148a1.17341,1.17341,0,0,1,1.0557.04376l3.20126,1.84825C467.36594,520.12871,467.39988,520.40159,467.12928,520.55782Z"/>
      <path class="cls-145" d="M461.76048,523.6575l-3.38006,1.95148a1.17337,1.17337,0,0,1-1.05571-.04376l-3.20125-1.84824c-.31246-.1804-.34639-.45329-.0758-.60952l3.38006-1.95148a1.1734,1.1734,0,0,1,1.05571.04377l3.20125,1.84824C461.99714,523.22839,462.03107,523.50128,461.76048,523.6575Z"/>
      <path class="cls-146" d="M456.39167,526.75718l-3.38006,1.95148a1.17335,1.17335,0,0,1-1.0557-.04376l-3.20126-1.84824c-.31245-.1804-.34639-.45329-.07579-.60951l3.38006-1.95148a1.17335,1.17335,0,0,1,1.0557.04376l3.20126,1.84824C456.62833,526.32807,456.66227,526.601,456.39167,526.75718Z"/>
      <path class="cls-147" d="M477.847,520.54635l-3.38006,1.95148a1.17335,1.17335,0,0,1-1.0557-.04376L470.21,520.60583c-.31245-.1804-.34639-.45329-.07579-.60951l3.38006-1.95148a1.17335,1.17335,0,0,1,1.0557.04376l3.20126,1.84824C478.08369,520.11724,478.11763,520.39013,477.847,520.54635Z"/>
      <path class="cls-148" d="M504.49191,505.16293l-24.65613,14.23522a1.17337,1.17337,0,0,1-1.05571-.04376l-3.20125-1.84824c-.31246-.1804-.34639-.45329-.0758-.60952l24.65614-14.23522a1.17335,1.17335,0,0,1,1.0557.04376l3.20126,1.84824C504.72857,504.73381,504.76251,505.0067,504.49191,505.16293Z"/>
      <path class="cls-149" d="M472.47823,523.646l-3.38006,1.95147a1.17337,1.17337,0,0,1-1.05571-.04376l-3.20125-1.84824c-.31246-.1804-.34639-.45329-.0758-.60951l3.38006-1.95148a1.17337,1.17337,0,0,1,1.05571.04376l3.20125,1.84824C472.71489,523.21692,472.74882,523.48981,472.47823,523.646Z"/>
      <path class="cls-150" d="M467.10942,526.74572l-3.38006,1.95148a1.17338,1.17338,0,0,1-1.0557-.04377l-3.20126-1.84824c-.31245-.1804-.34639-.45328-.07579-.60951l3.38006-1.95148a1.17335,1.17335,0,0,1,1.0557.04376l3.20126,1.84825C467.34608,526.3166,467.38,526.58949,467.10942,526.74572Z"/>
      <path class="cls-151" d="M461.74062,529.8454l-3.38006,1.95148a1.17343,1.17343,0,0,1-1.05571-.04376l-3.20125-1.84825c-.31246-.1804-.34639-.45328-.0758-.60951l3.38006-1.95148a1.17337,1.17337,0,0,1,1.05571.04376l3.20125,1.84825C461.97728,529.41628,462.01121,529.68917,461.74062,529.8454Z"/>
      <path class="cls-152" d="M504.71092,498.86005l-3.38006,1.95148a1.17335,1.17335,0,0,1-1.0557-.04376l-3.20126-1.84824c-.31246-.1804-.34639-.45329-.0758-.60951l3.38006-1.95148a1.17337,1.17337,0,0,1,1.05571.04376l3.20125,1.84824C504.94758,498.43094,504.98151,498.70383,504.71092,498.86005Z"/>
      <path class="cls-153" d="M509.8013,495.92112l-3.38006,1.95148a1.17337,1.17337,0,0,1-1.05571-.04376l-3.20125-1.84824c-.31246-.1804-.34639-.45329-.0758-.60951l3.38006-1.95148a1.17337,1.17337,0,0,1,1.05571.04376l3.20125,1.84824C510.038,495.492,510.07189,495.7649,509.8013,495.92112Z"/>
      <path class="cls-154" d="M515.13046,492.84433l-3.38006,1.95148a1.17338,1.17338,0,0,1-1.0557-.04376l-3.20126-1.84825c-.31246-.18039-.34639-.45328-.0758-.60951l3.38006-1.95148a1.1734,1.1734,0,0,1,1.05571.04376l3.20125,1.84825C515.36712,492.41521,515.40105,492.6881,515.13046,492.84433Z"/>
      <path class="cls-155" d="M520.50457,489.74159l-3.38006,1.95147a1.17335,1.17335,0,0,1-1.0557-.04376l-3.20126-1.84824c-.31245-.1804-.34639-.45329-.0758-.60951l3.38007-1.95148a1.17335,1.17335,0,0,1,1.0557.04376l3.20126,1.84824C520.74123,489.31247,520.77517,489.58536,520.50457,489.74159Z"/>
      <path class="cls-156" d="M510.05986,501.94827l-3.38006,1.95148a1.17341,1.17341,0,0,1-1.0557-.04376l-3.20126-1.84825c-.31245-.1804-.34639-.45328-.07579-.60951l3.38006-1.95148a1.17335,1.17335,0,0,1,1.0557.04376l3.20126,1.84825C510.29652,501.51915,510.33046,501.792,510.05986,501.94827Z"/>
      <path class="cls-157" d="M515.15024,499.00934l-3.38006,1.95148a1.17341,1.17341,0,0,1-1.0557-.04376l-3.20126-1.84825c-.31246-.1804-.34639-.45328-.0758-.60951l3.38006-1.95148a1.17337,1.17337,0,0,1,1.05571.04376l3.20125,1.84825C515.3869,498.58022,515.42083,498.85311,515.15024,499.00934Z"/>
      <path class="cls-158" d="M520.4794,495.93254l-3.38006,1.95148a1.17335,1.17335,0,0,1-1.0557-.04376l-3.20126-1.84824c-.31245-.1804-.34639-.45329-.07579-.60951l3.38006-1.95148a1.17335,1.17335,0,0,1,1.0557.04376l3.20126,1.84824C520.71606,495.50343,520.75,495.77632,520.4794,495.93254Z"/>
      <path class="cls-159" d="M525.85352,492.8298l-3.38007,1.95148a1.17338,1.17338,0,0,1-1.0557-.04376l-3.20126-1.84825c-.31245-.18039-.34639-.45328-.07579-.60951l3.38006-1.95148a1.17338,1.17338,0,0,1,1.0557.04376l3.20126,1.84825C526.09017,492.40068,526.12411,492.67357,525.85352,492.8298Z"/>
      <path class="cls-160" d="M448.961,518.69446l-6.52924,3.76965a1.17337,1.17337,0,0,1-1.05571-.04376l-3.20125-1.84824c-.31246-.1804-.34639-.45329-.0758-.60951l6.52924-3.76966a1.17335,1.17335,0,0,1,1.0557.04376l3.20126,1.84824C449.19761,518.26534,449.23155,518.53823,448.961,518.69446Z"/>
    </g>
  </g>
  <polygon class="cls-161" points="518.955 450.032 563.646 478.239 596.568 460.757 551.883 432.559 518.955 450.032"/>
  <polygon class="cls-2" points="509.944 464.02 558.109 485.77 588.295 463.899 540.136 442.159 509.944 464.02"/>
  <g>
    <g>
      <g>
        <path class="cls-162" d="M605.39328,472.47534C596.037,483.94286,592.735,492.01352,592.735,492.01352a10.069,10.069,0,0,0-1.19293,3.22193c-5.02576,6.47583-8.79291,11.37256-8.79291,11.37256l-9.67882,2.27219s-10.13771,21.7049-6.39043,28.80851c3.92252,7.43583,14.35308,8.15331,22.19694,2.79161,2.58093-1.76421,11.73817-9.74831,20.60316-20.15871a10.946,10.946,0,0,0,5.64874-3.2561l3.73572-5.41113,13.848-52.73227S618.40824,456.52392,605.39328,472.47534Z"/>
        <path class="cls-163" d="M603.33381,529.56105c1.97742-.41968,10.04417-10.68255,11.7949-12.49554l3.73572-5.41113,13.848-52.73227s-14.3042-2.39819-27.31916,13.55323C596.037,483.94286,592.735,492.01352,592.735,492.01352c-.58947.99707-5.22184,9.3032-5.4437,10.44114C579.04333,517.20369,595.20615,534.49722,603.33381,529.56105Z"/>
        <path class="cls-26" d="M609.033,495.96981l-8.64808,34.19775.06269-.06323,7.49786-8.00952q.7674-.87489,1.53455-1.7732c.05487-.01172.10913-.02856.16388-.04126l2.19763-2.34765Z"/>
        <path class="cls-76" d="M591.1922,719.464s10.052,17.21437,6.862,22.50568-12.57588,6.81855-21.09944,9.92929-15.76948,8.04178-30.13491,6.10526S533.33082,744.991,540.15,741.73357l15.69938-8.382,15.3325-12.318Z"/>
        <path class="cls-162" d="M630.38338,641.61081l-25.43554-67.19975-49.19149,33.98415c-21.6383,11.44681-21.57447,24.80851-15.2766,39.87234L574.05422,717.842l-18.85106,16.40426c-2.59575,2.48936,4.65261,7.00906,10.55319,5.617,6.04255-1.42553,27.53083-10.61025,27.47931-16.98321l-4.75591-7.97424L574.82018,651.842Z"/>
        <path class="cls-76" d="M587.58913,698.49722l-9.11571-47.3279,51.91-9.55851L603.33086,574.608,553.501,605.18245c-18.6383,11.383-20.71478,31.78285-14.58712,48.43432l21.10075,50.24215C565.07849,713.28445,588.82258,704.55679,587.58913,698.49722Z"/>
        <path class="cls-76" d="M617.24571,747.20372c2.42578,3.71174,3.833,13.86438,2.898,18.38169-1.17175,5.66118-4.91155,9.726-5.73894,13.49424s-1.75593,11.57183-8.76665,16.322c-14.22018,9.63508-29.81737,3.64621-23.49877-8.41074l7.22015-13.81821,11.07659-26.39135S613.7138,741.79947,617.24571,747.20372Z"/>
        <path class="cls-162" d="M687.953,586.44686l-.859-.26734.37934-6.3313-39.71991-5.91186L609.4926,562.02913,603.33086,574.608l14.38294,32.93616L578.0067,634.223c-12.96954,5.02344-11.86737,34.151-11.86737,34.151l33.78723,77.0851c-.12835,3.77588-9.31915,29.57449-9.31915,29.57449-2.55316,5.532,9.93042,7.95727,13.6383,2.04248,0,0,13.75531-22.94678,12.15961-27.67017l-1.54289-6.7852c-3.40429-32.34058-4.55289-42.84245-11.19118-73.54463,0,0,35.53192-6.12769,53.78723-12.25513,18.25531-6.12793,30.38446-21.7041,30.80451-42.894C688.52294,601.15682,688.243,592.02693,687.953,586.44686Z"/>
        <path class="cls-164" d="M616.86573,725.81637l-7.02532-57.09177s29.36276-5.77628,47.61807-11.90372c18.25531-6.12793,30.38446-21.7041,30.80451-42.894.26-12.77-.02-21.89991-.31-27.48l-.859-.26734.37934-6.3313-39.71991-5.91186L609.4926,562.02913,603.33086,574.608l8,34.46807L575.64446,630.0924c-14.04255,9.19149-13.49651,27.89418-10.46258,40.38792l22.44486,61.39241C591.07849,740.8802,617.97211,735.51849,616.86573,725.81637Z"/>
        <path class="cls-76" d="M687.96157,586.61811c-.00287-.05566-.00567-.11645-.00854-.17138l-.859-.26709.37933-6.33155-39.71991-5.91162-38.26086-11.90722-1.90338,3.88549c1.37372,5.97144,10.29382,16.86426,30.02112,22.65235C658.22958,594.61714,679.55172,589.78071,687.96157,586.61811Z"/>
        <path class="cls-165" d="M686.73507,554.69306l8.5059-51.48457c-3.492-13.47448-13.05271-26.8101-33.55613-35.90507,0,0-.05737.0686-.155.18945a129.87828,129.87828,0,0,0-19.243-7.14649c-7.50842-2.19287-13.68195-1.999-18.55646.05689-11.91437,4.26855-16.49969,17.72436-14.69745,35.56641-1.8562,13.8247-4.92691,27.31958,1.10934,39.82983l-1.13279,19.52858c-1.4314,5.36133,9.753,11.44939,11.51577,12.01579,22.56586,7.25074,71.74725,14.37166,69.95446,2.47249Z"/>
      </g>
      <g>
        <path class="cls-26" d="M688.62405,573.6247l-1.12262-11.25122-18.85205-45.13842,1.23762,44.79419L650.91274,568.327l5.73493,6.60337C670.8196,576.70405,683.87161,576.85176,688.62405,573.6247Z"/>
        <path class="cls-162" d="M694.84445,506.73126,670.39764,517.2351l10.7885,52.85077-22.63192.437L656.013,583.96678s37.91494,8.70355,44.26261-1.72488C707.03594,571.13551,694.84445,506.73126,694.84445,506.73126Z"/>
      </g>
      <g>
        <polygon class="cls-162" points="650.591 564.676 644.072 562.881 644.912 565.31 650.591 564.676"/>
        <path class="cls-166" d="M604.42942,563.90071l44.25127,25.51212a2.45974,2.45974,0,0,0,3.55316-2.935l-26.75273-77.346a7.13609,7.13609,0,0,0-3.17984-3.84957L575.87311,478.5151a1.86569,1.86569,0,0,0-2.695,2.22617l26.97131,77.97795A9.60513,9.60513,0,0,0,604.42942,563.90071Z"/>
        <path class="cls-162" d="M579.88062,500.08856l-1.7508-5.0618-1.44842,1.39964a8.51383,8.51383,0,0,0-2.22742,3.60433c-.86954,2.79553-2.23881,7.753-2.23881,11.25065a9.2797,9.2797,0,0,0,9.27981,9.27972c2.56248,0,5.67191.4371,7.35117-1.24216,1.67926-1.67945,1.92854-5.47488,1.92854-8.03756C590.77469,507.86405,584.50873,502.91507,579.88062,500.08856Z"/>
        <path class="cls-162" d="M658.55422,570.52287c3.40374,5.0269,3.26729,13.73863-2.54122,13.44391,0,0-10.67659-1.72258-12.93539-3.13058s-5.25978-7.16336-5.53618-10.42919a5.45176,5.45176,0,0,1,2.85863-5.36567c1.87548-1.08641,7.33717-.84475,9.32355-.55355C654.03043,565.11914,658.55422,570.52287,658.55422,570.52287Z"/>
      </g>
    </g>
    <path class="cls-167" d="M693.8019,499.34828c-8.99566-22.51016-28.49373-4.2133-25.15251,17.88682l7.762,43.33395c1.53192,9.25532,28.87982,8.32952,27.85854-4.11439C704.27,556.45466,702.79756,521.85844,693.8019,499.34828Z"/>
    <g>
      <g>
        <path class="cls-162" d="M635.2563,487.27918l9.25224-6.94919,14.61909-12.03061s-3.22019-7.89318-12.16981-7.1716c-7.78046.62731-13.19264,9.55967-13.19264,9.55967Z"/>
        <path class="cls-168" d="M635.2563,487.27916c-.69952-6.58853-.13-13.04086,2.061-18.07129l6.14769-8.10794,1.02486-5.05841c-11.56433,3.39491-19.96132,17.00519-23.10706,22.85311a2.64625,2.64625,0,0,0,1.41282,3.729l12.46072,4.65551Z"/>
        <path class="cls-169" d="M635.54368,475.25385c.71517,9.57067,16.40364,4.67665,22.29248-4.34719-.7804-6.20557.44573-12.21921-3.58662-20.00888l-20.23291,5.46976Z"/>
        <path class="cls-168" d="M664.15476,475.23468c-1.06413,5.88994-6.05543,14.595-8.76761,19.00879a3.51346,3.51346,0,0,1-4.644,1.25636l-15.48685-8.22065h0s9.35213-7.1895,13.1689-10.17236c10.94366-8.55264,8.45751-18.48625,8.45751-18.48625s.861-.30254,2.73484,2.09986C661.61074,463.27581,665.46959,467.95713,664.15476,475.23468Z"/>
      </g>
      <g>
        <path class="cls-170" d="M623.89619,414.56048a21.74667,21.74667,0,0,0-6.65239,19.1056c1.15059,8.50151,10.01893,15.75944,10.01893,15.75944l-.312-27.79074Z"/>
        <path class="cls-162" d="M641.31327,470.43543c10.57446-2.488,16.16585-8.21142,16.71792-18.17336l1.15839-21.53937c.71005-8.676-7.09987-16.85568-17.22322-16.80123-8.84768.04759-17.94041,7.408-17.89243,17.20931A198.1184,198.1184,0,0,0,625.73744,452.79C627.18066,462.356,631.70339,472.69651,641.31327,470.43543Z"/>
        <path class="cls-171" d="M624.29921,438.016c1.74269-.1701,4.79614-3.09769,6.36794-8.84,1.506,5.96042,3.79311,9.43105,10.604,12.62144a27.88693,27.88693,0,0,0,12.68449,2.16636l-.96171,1.92361,3.17639,1.90833c-.47607,6.02216-.64918,11.809.64918,16.45323,6.467-2.68318,10.41076-8.17181,8.39992-15.47794,0,0,7.87317-11.71839,3.62383-24.76186-3.10639-9.53512-13.59021-15.35134-26.153-15.30727-10.17928.0357-20.93613,3.73958-23.97916,13.94121S624.29921,438.016,624.29921,438.016Z"/>
        <g>
          <path class="cls-172" d="M628.35135,448.70645c1.75317-.60116,4.46568.46493,6.36289,2.03524"/>
          <line class="cls-172" x1="643.37337" y1="451.9353" x2="654.5082" y2="446.45035"/>
          <path class="cls-173" d="M627.97934,451.77829l-6.74754-2.22322a2.38012,2.38012,0,0,1-1.63491-1.84744l-.57559-3.38217a1.111,1.111,0,0,1,1.47182-1.17137l6.74753,2.22321a2.38014,2.38014,0,0,1,1.63491,1.84745l.5756,3.38216A1.111,1.111,0,0,1,627.97934,451.77829Z"/>
          <path class="cls-173" d="M643.22314,455.71315l-8.39872-2.21956a2.31474,2.31474,0,0,1-1.76384-1.82185l-.59553-3.46987a1.27057,1.27057,0,0,1,1.61431-1.29476l8.39871,2.21955a2.31478,2.31478,0,0,1,1.76385,1.82186l.59553,3.46986A1.27058,1.27058,0,0,1,643.22314,455.71315Z"/>
        </g>
        <path class="cls-162" d="M655.06709,454.30713c3.50384.0222,6.48435-4.85147,6.50955-8.82746s-3.39615-7.344-6.41833-5.57087C651.3645,442.13459,651.56325,454.28493,655.06709,454.30713Z"/>
      </g>
    </g>
  </g>
</svg>
