<svg id="Layer_1" data-name="Layer 1" xmlns="http://www.w3.org/2000/svg" xmlns:xlink="http://www.w3.org/1999/xlink" viewBox="0 0 1000 1000">
  <defs>
    <style>
      .cls-1 {
        fill: none;
      }

      .cls-2 {
        fill: url(#linear-gradient);
      }

      .cls-3 {
        fill: #b8cbd8;
      }

      .cls-4 {
        fill: url(#linear-gradient-2);
      }

      .cls-5 {
        fill: #9bb0c4;
      }

      .cls-6, .cls-83 {
        fill: #fff;
      }

      .cls-6 {
        opacity: 0.7;
      }

      .cls-7 {
        fill: url(#linear-gradient-3);
      }

      .cls-8 {
        fill: url(#linear-gradient-4);
      }

      .cls-9 {
        fill: url(#linear-gradient-5);
      }

      .cls-10 {
        fill: url(#linear-gradient-6);
      }

      .cls-11 {
        fill: url(#linear-gradient-7);
      }

      .cls-12 {
        fill: url(#linear-gradient-8);
      }

      .cls-13 {
        fill: url(#linear-gradient-9);
      }

      .cls-14 {
        fill: url(#linear-gradient-10);
      }

      .cls-15 {
        fill: url(#linear-gradient-11);
      }

      .cls-16 {
        fill: url(#linear-gradient-12);
      }

      .cls-17, .cls-56 {
        fill: #dd7b19;
      }

      .cls-17, .cls-53 {
        opacity: 0.5;
      }

      .cls-18 {
        fill: url(#linear-gradient-13);
      }

      .cls-19 {
        fill: url(#linear-gradient-14);
      }

      .cls-20 {
        fill: url(#linear-gradient-15);
      }

      .cls-21 {
        fill: url(#linear-gradient-16);
      }

      .cls-22 {
        fill: #2e3e59;
      }

      .cls-23 {
        fill: #4f4f4f;
      }

      .cls-24 {
        fill: url(#linear-gradient-17);
      }

      .cls-25 {
        fill: url(#linear-gradient-18);
      }

      .cls-26 {
        fill: url(#linear-gradient-19);
      }

      .cls-27 {
        fill: url(#linear-gradient-20);
      }

      .cls-28 {
        fill: url(#linear-gradient-21);
      }

      .cls-29 {
        fill: url(#linear-gradient-22);
      }

      .cls-30, .cls-53 {
        fill: #bcd0e2;
      }

      .cls-31 {
        fill: #d7ebf4;
      }

      .cls-32 {
        fill: #7995a8;
      }

      .cls-33 {
        fill: url(#linear-gradient-23);
      }

      .cls-34 {
        fill: #e58630;
      }

      .cls-35 {
        fill: url(#linear-gradient-24);
      }

      .cls-36 {
        fill: url(#linear-gradient-25);
      }

      .cls-37 {
        fill: #ffcb48;
      }

      .cls-38 {
        fill: #34a521;
      }

      .cls-39 {
        fill: #e2e2e2;
      }

      .cls-40 {
        clip-path: url(#clip-path);
      }

      .cls-41 {
        fill: url(#linear-gradient-26);
      }

      .cls-42 {
        fill: url(#linear-gradient-27);
      }

      .cls-43 {
        fill: url(#linear-gradient-28);
      }

      .cls-44 {
        fill: url(#linear-gradient-29);
      }

      .cls-45 {
        fill: url(#linear-gradient-30);
      }

      .cls-46 {
        fill: #541510;
        opacity: 0.3;
      }

      .cls-47 {
        fill: url(#linear-gradient-31);
      }

      .cls-48 {
        fill: #e9f1f4;
      }

      .cls-49 {
        fill: #606060;
      }

      .cls-50 {
        fill: url(#linear-gradient-32);
      }

      .cls-51 {
        fill: url(#linear-gradient-33);
      }

      .cls-52 {
        fill: #f0f9fc;
      }

      .cls-54 {
        fill: url(#linear-gradient-34);
      }

      .cls-55 {
        fill: url(#linear-gradient-35);
      }

      .cls-56 {
        opacity: 0.6;
      }

      .cls-57 {
        fill: url(#linear-gradient-36);
      }

      .cls-58 {
        fill: #ffbda3;
      }

      .cls-59 {
        fill: url(#linear-gradient-37);
      }

      .cls-60 {
        fill: #303d49;
      }

      .cls-61 {
        fill: #e48f7c;
      }

      .cls-62 {
        fill: url(#linear-gradient-38);
      }

      .cls-63 {
        fill: url(#linear-gradient-39);
      }

      .cls-64 {
        fill: url(#linear-gradient-40);
      }

      .cls-65 {
        fill: url(#linear-gradient-41);
      }

      .cls-66 {
        fill: url(#linear-gradient-42);
      }

      .cls-67 {
        fill: url(#linear-gradient-43);
      }

      .cls-68 {
        fill: url(#linear-gradient-44);
      }

      .cls-69 {
        fill: url(#linear-gradient-45);
      }

      .cls-70 {
        fill: url(#linear-gradient-46);
      }

      .cls-71 {
        fill: url(#linear-gradient-47);
      }

      .cls-72 {
        fill: url(#linear-gradient-48);
      }

      .cls-73 {
        fill: url(#linear-gradient-49);
      }

      .cls-74 {
        fill: url(#linear-gradient-50);
      }

      .cls-75 {
        fill: url(#linear-gradient-51);
      }

      .cls-76 {
        fill: url(#linear-gradient-52);
      }

      .cls-77 {
        fill: url(#linear-gradient-53);
      }

      .cls-78 {
        fill: url(#linear-gradient-54);
      }

      .cls-79 {
        fill: url(#linear-gradient-55);
      }

      .cls-80 {
        fill: url(#linear-gradient-56);
      }

      .cls-81 {
        fill: url(#linear-gradient-57);
      }

      .cls-82 {
        fill: url(#linear-gradient-58);
      }

      .cls-84 {
        fill: url(#linear-gradient-59);
      }

      .cls-85 {
        fill: url(#linear-gradient-60);
      }

      .cls-86 {
        fill: url(#linear-gradient-61);
      }

      .cls-87 {
        fill: url(#linear-gradient-62);
      }

      .cls-88 {
        fill: url(#linear-gradient-63);
      }

      .cls-89 {
        fill: url(#linear-gradient-64);
      }

      .cls-90 {
        fill: url(#linear-gradient-65);
      }

      .cls-91 {
        fill: url(#linear-gradient-66);
      }

      .cls-92 {
        fill: url(#linear-gradient-67);
      }

      .cls-93 {
        fill: url(#linear-gradient-68);
      }

      .cls-94 {
        fill: #bcbcbc;
      }

      .cls-95 {
        fill: url(#linear-gradient-69);
      }

      .cls-96 {
        fill: url(#linear-gradient-70);
      }

      .cls-97 {
        fill: url(#linear-gradient-71);
      }

      .cls-98 {
        fill: url(#linear-gradient-72);
      }

      .cls-99 {
        fill: url(#linear-gradient-73);
      }

      .cls-100 {
        fill: #ffbea4;
      }

      .cls-101 {
        fill: url(#linear-gradient-74);
      }

      .cls-102 {
        fill: url(#linear-gradient-75);
      }

      .cls-103 {
        fill: url(#linear-gradient-76);
      }

      .cls-104 {
        fill: url(#linear-gradient-77);
      }
    </style>
    <linearGradient id="linear-gradient" x1="521.50943" y1="396.22833" x2="928.15567" y2="396.22833" gradientUnits="userSpaceOnUse">
      <stop offset="0" stop-color="#e4edf2"/>
      <stop offset="1" stop-color="#c3d6e6"/>
    </linearGradient>
    <linearGradient id="linear-gradient-2" x1="114.87886" y1="711.22041" x2="928.15567" y2="711.22041" gradientUnits="userSpaceOnUse">
      <stop offset="0" stop-color="#dae9f2"/>
      <stop offset="0.99337" stop-color="#c4d5e6"/>
    </linearGradient>
    <linearGradient id="linear-gradient-3" x1="127.9972" y1="390.07947" x2="493.86751" y2="390.07947" gradientUnits="userSpaceOnUse">
      <stop offset="0" stop-color="#3e4c59"/>
      <stop offset="1" stop-color="#293440"/>
    </linearGradient>
    <linearGradient id="linear-gradient-4" x1="188.94207" y1="640.24583" x2="188.94207" y2="280.78161" gradientUnits="userSpaceOnUse">
      <stop offset="0" stop-color="#62778c"/>
      <stop offset="1" stop-color="#435466"/>
    </linearGradient>
    <linearGradient id="linear-gradient-5" x1="310.89701" y1="569.84386" x2="310.89701" y2="210.36317" xlink:href="#linear-gradient-4"/>
    <linearGradient id="linear-gradient-6" x1="432.88729" y1="499.43348" x2="432.88729" y2="139.91232" xlink:href="#linear-gradient-4"/>
    <linearGradient id="linear-gradient-7" x1="139.8197" y1="393.4886" x2="493.86751" y2="393.4886" gradientUnits="userSpaceOnUse">
      <stop offset="0" stop-color="#435466"/>
      <stop offset="1" stop-color="#62778c"/>
    </linearGradient>
    <linearGradient id="linear-gradient-8" x1="127.97453" y1="393.48809" x2="505.70798" y2="393.48809" xlink:href="#linear-gradient-4"/>
    <linearGradient id="linear-gradient-9" x1="243.99279" y1="590.32418" x2="243.99279" y2="273.93582" xlink:href="#linear-gradient-4"/>
    <linearGradient id="linear-gradient-10" x1="365.95501" y1="519.91251" x2="365.95501" y2="203.51736" xlink:href="#linear-gradient-4"/>
    <linearGradient id="linear-gradient-11" x1="487.93343" y1="449.48819" x2="487.93343" y2="133.09304" xlink:href="#linear-gradient-4"/>
    <linearGradient id="linear-gradient-12" x1="428.98245" y1="146.55132" x2="138.95461" y2="619.42281" gradientUnits="userSpaceOnUse">
      <stop offset="0.00005" stop-color="#ffcb48"/>
      <stop offset="1" stop-color="#e68e2b"/>
    </linearGradient>
    <linearGradient id="linear-gradient-13" x1="514.46018" y1="198.97766" x2="224.43234" y2="671.84915" xlink:href="#linear-gradient-12"/>
    <linearGradient id="linear-gradient-14" x1="540.67117" y1="111.29526" x2="109.41237" y2="450.81698" gradientUnits="userSpaceOnUse">
      <stop offset="0" stop-color="#849bb2"/>
      <stop offset="1" stop-color="#5b6f82"/>
    </linearGradient>
    <linearGradient id="linear-gradient-15" x1="522.01276" y1="87.59544" x2="90.75396" y2="427.11716" xlink:href="#linear-gradient-14"/>
    <linearGradient id="linear-gradient-16" x1="502.55592" y1="62.88145" x2="71.29712" y2="402.40318" xlink:href="#linear-gradient-14"/>
    <linearGradient id="linear-gradient-17" x1="546.23301" y1="417.48309" x2="605.13023" y2="516.46626" xlink:href="#linear-gradient-3"/>
    <linearGradient id="linear-gradient-18" x1="424.48618" y1="290.3015" x2="548.10317" y2="513.34953" xlink:href="#linear-gradient-4"/>
    <linearGradient id="linear-gradient-19" x1="457.52582" y1="308.28107" x2="536.35404" y2="516.69811" xlink:href="#linear-gradient-14"/>
    <linearGradient id="linear-gradient-20" x1="441.1511" y1="314.47438" x2="519.97932" y2="522.89142" xlink:href="#linear-gradient-14"/>
    <linearGradient id="linear-gradient-21" x1="462.9752" y1="402.59578" x2="608.09309" y2="402.59578" gradientUnits="userSpaceOnUse">
      <stop offset="0" stop-color="#62788c"/>
      <stop offset="1" stop-color="#526575"/>
    </linearGradient>
    <linearGradient id="linear-gradient-22" x1="462.97514" y1="378.59652" x2="608.09305" y2="378.59652" xlink:href="#linear-gradient-14"/>
    <linearGradient id="linear-gradient-23" x1="507.41363" y1="287.56149" x2="570.78973" y2="346.45871" xlink:href="#linear-gradient-12"/>
    <linearGradient id="linear-gradient-24" x1="530.46992" y1="302.40891" x2="549.95363" y2="302.40891" xlink:href="#linear-gradient-3"/>
    <linearGradient id="linear-gradient-25" x1="530.46993" y1="298.03114" x2="549.95373" y2="298.03114" xlink:href="#linear-gradient-4"/>
    <clipPath id="clip-path">
      <path class="cls-1" d="M435.98541,305.84375A194.17509,194.17509,0,1,1,364.93924,155.6819,193.78539,193.78539,0,0,1,435.98541,305.84375Z"/>
    </clipPath>
    <linearGradient id="linear-gradient-26" x1="791.78178" y1="882.1573" x2="870.28091" y2="882.1573" xlink:href="#linear-gradient-3"/>
    <linearGradient id="linear-gradient-27" x1="-95.12633" y1="-308.54326" x2="1189.34359" y2="676.49686" xlink:href="#linear-gradient-4"/>
    <linearGradient id="linear-gradient-28" x1="73.41876" y1="202.77722" x2="821.11924" y2="202.77722" xlink:href="#linear-gradient-21"/>
    <linearGradient id="linear-gradient-29" x1="120.38456" y1="219.24284" x2="763.44639" y2="219.24284" xlink:href="#linear-gradient-14"/>
    <linearGradient id="linear-gradient-30" x1="-643.6591" y1="406.731" x2="640.81082" y2="1391.77112" xlink:href="#linear-gradient-4"/>
    <linearGradient id="linear-gradient-31" x1="-1125.11046" y1="1042.7479" x2="877.74979" y2="1042.7479" xlink:href="#linear-gradient-3"/>
    <linearGradient id="linear-gradient-32" x1="50.13039" y1="-18.91838" x2="914.19907" y2="-18.91838" xlink:href="#linear-gradient-21"/>
    <linearGradient id="linear-gradient-33" x1="50.12537" y1="-52.65214" x2="914.19911" y2="-52.65214" xlink:href="#linear-gradient-14"/>
    <linearGradient id="linear-gradient-34" x1="-28.56181" y1="285.05761" x2="7.59692" y2="639.20052" xlink:href="#linear-gradient-12"/>
    <linearGradient id="linear-gradient-35" x1="-979.57818" y1="530.18367" x2="102.25786" y2="1133.65684" xlink:href="#linear-gradient-12"/>
    <linearGradient id="linear-gradient-36" x1="-38.31726" y1="280.24665" x2="0.03772" y2="655.89981" xlink:href="#linear-gradient-12"/>
    <linearGradient id="linear-gradient-37" x1="192.27794" y1="274.0681" x2="227.84773" y2="622.44279" xlink:href="#linear-gradient-12"/>
    <linearGradient id="linear-gradient-38" x1="227.38386" y1="175.54114" x2="215.1537" y2="383.98562" gradientUnits="userSpaceOnUse">
      <stop offset="0" stop-color="#cebcb3"/>
      <stop offset="1" stop-color="#bfa090"/>
    </linearGradient>
    <linearGradient id="linear-gradient-39" x1="286.86655" y1="179.0312" x2="274.63639" y2="387.47568" xlink:href="#linear-gradient-38"/>
    <linearGradient id="linear-gradient-40" x1="-7775.06332" y1="354.98517" x2="-7687.12899" y2="497.24337" gradientTransform="matrix(0.99876, 0.04975, -0.04975, 0.99876, 7986.23319, 260.31609)" xlink:href="#linear-gradient-4"/>
    <linearGradient id="linear-gradient-41" x1="884.47743" y1="403.4152" x2="909.26055" y2="466.26879" gradientUnits="userSpaceOnUse">
      <stop offset="0.00844" stop-color="#ffc63f"/>
      <stop offset="1" stop-color="#e68a23"/>
    </linearGradient>
    <linearGradient id="linear-gradient-42" x1="891.68474" y1="407.3511" x2="900.14185" y2="420.57726" xlink:href="#linear-gradient-4"/>
    <linearGradient id="linear-gradient-43" x1="875.31142" y1="416.90389" x2="905.09595" y2="463.4842" xlink:href="#linear-gradient-4"/>
    <linearGradient id="linear-gradient-44" x1="678.01897" y1="258.80781" x2="718.84775" y2="258.80781" xlink:href="#linear-gradient-7"/>
    <linearGradient id="linear-gradient-45" x1="690.78655" y1="224.97129" x2="715.3731" y2="292.06342" gradientUnits="userSpaceOnUse">
      <stop offset="0" stop-color="#fff"/>
      <stop offset="0.98888" stop-color="#e6edf2"/>
    </linearGradient>
    <linearGradient id="linear-gradient-46" x1="669.74311" y1="232.62486" x2="815.17885" y2="365.35061" xlink:href="#linear-gradient-14"/>
    <linearGradient id="linear-gradient-47" x1="670.05096" y1="221.9306" x2="811.45839" y2="348.8917" xlink:href="#linear-gradient-4"/>
    <linearGradient id="linear-gradient-48" x1="682.19777" y1="208.40165" x2="823.60521" y2="335.36275" xlink:href="#linear-gradient-4"/>
    <linearGradient id="linear-gradient-49" x1="731.88198" y1="315.27187" x2="772.71076" y2="315.27187" xlink:href="#linear-gradient-7"/>
    <linearGradient id="linear-gradient-50" x1="741.58542" y1="280.45531" x2="771.841" y2="348.2543" xlink:href="#linear-gradient-45"/>
    <linearGradient id="linear-gradient-51" x1="666.1042" y1="236.61224" x2="811.53994" y2="369.33798" xlink:href="#linear-gradient-14"/>
    <linearGradient id="linear-gradient-52" x1="666.02249" y1="226.41745" x2="807.42993" y2="353.37854" xlink:href="#linear-gradient-4"/>
    <linearGradient id="linear-gradient-53" x1="678.16931" y1="212.8885" x2="819.57675" y2="339.84959" xlink:href="#linear-gradient-4"/>
    <linearGradient id="linear-gradient-54" x1="785.74499" y1="305.92552" x2="826.57378" y2="305.92552" xlink:href="#linear-gradient-7"/>
    <linearGradient id="linear-gradient-55" x1="795.44843" y1="271.10896" x2="825.70401" y2="338.90796" xlink:href="#linear-gradient-45"/>
    <linearGradient id="linear-gradient-56" x1="695.23337" y1="204.69362" x2="840.66911" y2="337.41936" xlink:href="#linear-gradient-14"/>
    <linearGradient id="linear-gradient-57" x1="694.70909" y1="194.46673" x2="836.11652" y2="321.42783" xlink:href="#linear-gradient-4"/>
    <linearGradient id="linear-gradient-58" x1="706.8559" y1="180.93778" x2="848.26334" y2="307.89888" xlink:href="#linear-gradient-4"/>
    <linearGradient id="linear-gradient-59" x1="832.29003" y1="660.91295" x2="857.41772" y2="660.91295" xlink:href="#linear-gradient-3"/>
    <linearGradient id="linear-gradient-60" x1="232.09455" y1="750.3375" x2="257.22224" y2="750.3375" xlink:href="#linear-gradient-3"/>
    <linearGradient id="linear-gradient-61" x1="453.73083" y1="880.32328" x2="478.85852" y2="880.32328" xlink:href="#linear-gradient-3"/>
    <linearGradient id="linear-gradient-62" x1="548.38935" y1="279.76784" x2="959.55018" y2="595.08073" xlink:href="#linear-gradient-4"/>
    <linearGradient id="linear-gradient-63" x1="602.3409" y1="443.44233" x2="841.68099" y2="443.44233" xlink:href="#linear-gradient-21"/>
    <linearGradient id="linear-gradient-64" x1="617.37472" y1="448.713" x2="823.21982" y2="448.713" xlink:href="#linear-gradient-14"/>
    <linearGradient id="linear-gradient-65" x1="372.80315" y1="508.72825" x2="783.96399" y2="824.04114" xlink:href="#linear-gradient-4"/>
    <linearGradient id="linear-gradient-66" x1="242.55935" y1="640.81444" x2="598.18212" y2="961.50198" xlink:href="#linear-gradient-21"/>
    <linearGradient id="linear-gradient-67" x1="218.68981" y1="712.31826" x2="859.80852" y2="712.31826" xlink:href="#linear-gradient-3"/>
    <linearGradient id="linear-gradient-68" x1="218.68981" y1="725.91802" x2="859.80852" y2="725.91802" xlink:href="#linear-gradient-3"/>
    <linearGradient id="linear-gradient-69" x1="594.88625" y1="372.47722" x2="871.47599" y2="372.47722" xlink:href="#linear-gradient-21"/>
    <linearGradient id="linear-gradient-70" x1="594.88465" y1="361.67899" x2="871.47601" y2="361.67899" xlink:href="#linear-gradient-14"/>
    <linearGradient id="linear-gradient-71" x1="569.69676" y1="469.78041" x2="581.27122" y2="583.14211" xlink:href="#linear-gradient-12"/>
    <linearGradient id="linear-gradient-72" x1="265.27492" y1="548.24564" x2="611.57234" y2="741.41835" xlink:href="#linear-gradient-12"/>
    <linearGradient id="linear-gradient-73" x1="566.57402" y1="468.24041" x2="578.85151" y2="588.48758" xlink:href="#linear-gradient-12"/>
    <linearGradient id="linear-gradient-74" x1="640.38791" y1="466.26265" x2="651.77385" y2="577.77793" xlink:href="#linear-gradient-12"/>
    <linearGradient id="linear-gradient-75" x1="651.62537" y1="434.72402" x2="647.71047" y2="501.44742" xlink:href="#linear-gradient-38"/>
    <linearGradient id="linear-gradient-76" x1="670.66587" y1="435.84119" x2="666.75098" y2="502.56459" xlink:href="#linear-gradient-38"/>
    <linearGradient id="linear-gradient-77" x1="-7323.76633" y1="556.23901" x2="-7295.61841" y2="601.77608" gradientTransform="matrix(0.99876, 0.04975, -0.04975, 0.99876, 7986.23319, 260.31609)" xlink:href="#linear-gradient-4"/>
  </defs>
  <g>
    <g>
      <polygon class="cls-2" points="521.509 81.236 928.156 316.004 928.156 711.22 521.509 476.43 521.509 81.236"/>
      <polygon class="cls-3" points="521.525 81.236 114.879 316.004 114.879 711.22 521.525 476.43 521.525 81.236"/>
    </g>
    <path class="cls-4" d="M121.896,723.3864l378.58059,218.564a42.10143,42.10143,0,0,0,42.1011-.00062l378.5612-218.56743a14.03381,14.03381,0,0,0,.00016-24.307L542.5613,480.49136a42.10144,42.10144,0,0,0-42.10408.00053l-378.562,218.58744A14.03381,14.03381,0,0,0,121.896,723.3864Z"/>
    <path class="cls-5" d="M226.3809,766.56781,459.93617,901.383a25.8435,25.8435,0,0,0,25.846-.002l376.022-217.16324a12.92175,12.92175,0,0,0-.00084-22.37988L628.33138,527.04226a25.84349,25.84349,0,0,0-25.8448-.00074l-376.10591,217.145A12.92174,12.92174,0,0,0,226.3809,766.56781Z"/>
  </g>
  <g>
    <g>
      <g>
        <g>
          <path class="cls-6" d="M127.97463,674.40543,502.15406,458.383a7.10771,7.10771,0,0,0,3.554-6.15554V112.57086L127.97463,330.66614Z"/>
          <path class="cls-7" d="M493.86751,449.48627,139.8197,653.89269l-11.8225-6.82343V330.68452L482.045,126.26624l11.8225,6.82343Z"/>
          <polygon class="cls-8" points="238.064 280.782 238.064 583.528 139.82 640.246 139.821 633.398 232.141 580.112 232.141 284.202 238.064 280.782"/>
          <polygon class="cls-9" points="360.027 210.363 360.008 513.124 261.767 569.844 261.767 562.996 354.085 509.712 354.085 213.774 360.027 210.363"/>
          <polygon class="cls-10" points="482.045 139.912 482.005 442.698 383.73 499.433 383.73 492.586 476.047 439.302 476.047 143.375 482.045 139.912"/>
          <polygon class="cls-11" points="493.868 133.09 493.862 449.492 139.821 653.888 139.82 640.246 482.045 442.675 482.045 139.912 493.868 133.09"/>
          <path class="cls-12" d="M127.97453,330.66613v343.7392L502.154,458.383a7.10774,7.10774,0,0,0,3.554-6.15555V112.57084ZM371.88335,203.51736V519.91251l-110.116,63.57255v-316.389Zm-232.0626,133.988,110.10039-63.56958V590.32418L139.82075,653.88754Zm354.041,111.9862-110.1322,63.58179V196.67759l110.1322-63.588Z"/>
        </g>
        <polygon class="cls-13" points="249.921 590.324 238.064 583.528 238.064 280.782 249.921 273.936 249.921 590.324"/>
        <polygon class="cls-14" points="371.883 519.913 360.027 513.117 360.027 210.363 371.883 203.517 371.883 519.913"/>
      </g>
      <polygon class="cls-15" points="493.862 449.488 482.005 442.698 482.045 139.912 493.862 133.093 493.862 449.488"/>
    </g>
    <g>
      <path class="cls-16" d="M331.33092,249.51336l2.94016,305.79229s-13.49648,16.33354-31.56128,26.14974-49.34229,17.19371-49.34229,17.19371-4.55352,14.569-27.24649,26.13942a136.77529,136.77529,0,0,1-44.43864,13.57335s-1.85131,8.73555-11.92055,14.121c-8.35014,4.43814-20.10036,5.0898-25.67889,5.84422V356.72779s10.75683,2.01157,25.26832-5.598,12.33112-14.109,12.33112-14.109,27.14545-3.18715,43.43089-12.76486,27.713-28.49683,27.713-28.49683a158.18805,158.18805,0,0,0,43.61312-12.8208C318.05046,272.71264,326.12092,254.40772,331.33092,249.51336Z"/>
      <path class="cls-17" d="M195.8309,334.55257c-8.09863,1.75679-14.14849,2.46816-14.14849,2.46816a4.66595,4.66595,0,0,1,0,2.06623V638.3618a122.98843,122.98843,0,0,0,20.09545-4.10718Z"/>
      <path class="cls-17" d="M253.48193,598.62189c.068-.01627.164-.03929.292-.07034l.00953-.00236c.12431-.03008.27956-.068.45655-.11135l.10985-.02709c.1666-.041.34926-.08619.55537-.13748l.11885-.02965c.22409-.05589.46564-.1165.73085-.18352l.08844-.02238q.42513-.10759.91427-.233l.09219-.02366c.31671-.08138.655-.169,1.0087-.26115l.18459-.04818q.53946-.14085,1.13054-.29754l.13031-.03448q.65011-.17265,1.356-.36307l.03126-.00846c3.47409-.93825,7.92764-2.19942,12.78892-3.72L267.48608,292.9535a139.27448,139.27448,0,0,1-14.65963,2.80554h-.00011l.54123,302.89.10161-.0242Z"/>
      <path class="cls-18" d="M508.99374,147.98417l2.95422,301.504c0,3.75938-5.00142,9.47-15.52677,14.8446a84.11985,84.11985,0,0,1-23.69014,7.7963s-10.57327,12.80653-25.46553,21.20442c-13.399,7.55583-37.46072,12.73616-37.46072,12.73616s-15.48321,23.52668-30.6088,32.60443-39.34639,15.87714-44.92492,16.63155l-2.94016-305.79229s27.73587-3.78745,42.96625-12.67015c15.35906-8.95775,31.02876-27.835,31.02876-27.835s21.916-1.50165,41.26776-13.63194,21.94642-24.66174,21.94642-24.66174a34.03115,34.03115,0,0,0,22.69789-4.18975C502.99138,159.80616,506.77859,153.38682,508.99374,147.98417Z"/>
      <path class="cls-17" d="M348.27065,246.23181c-9.38507,2.24781-16.93968,3.28157-16.93968,3.28157l2.94013,305.79227c2.92053-.395,10.95288-2.449,20.11236-5.61708Z"/>
      <path class="cls-17" d="M422.2805,205.81661a95.39521,95.39521,0,0,1-16.95456,3.19163l4.47893,297.0614s9.62137-2.07287,20.08335-5.50626Z"/>
      <path class="cls-17" d="M486.82466,168.73748a36.12336,36.12336,0,0,1-18.28448,1.977L472.73111,472.129a84.269,84.269,0,0,0,20.10229-6.0944Z"/>
    </g>
    <g>
      <g>
        <circle class="cls-19" cx="511.68583" cy="134.11485" r="8.30855"/>
        <path class="cls-20" d="M510.65047,139.98646,145.0158,351.12979l-4.04819-7.01169L506.61587,132.96692l.00184.0032a2.039,2.039,0,0,1,2.01153.2143,6.32884,6.32884,0,0,1,2.872,4.9538A1.98631,1.98631,0,0,1,510.65047,139.98646Z"/>
        <path class="cls-3" d="M512.04621,139.18375a9.87732,9.87732,0,0,0-1.29811-3.85921,9.537,9.537,0,0,0-2.8065-3.12257,6.33617,6.33617,0,0,0-3.57869-1.19276,5.1395,5.1395,0,0,0-2.50886.64884,5.67407,5.67407,0,0,0-2.59622,5.56119l4.35045-2.50864a1.38542,1.38542,0,0,1,.75463-.19294c1.08739,0,2.43818.98226,3.35041,2.56111.96491,1.66643,1.10539,3.43821.43856,4.35044a1.38429,1.38429,0,0,1-.43856.40344,1.21372,1.21372,0,0,1-.54391.158l-3.87677,2.24546a6.19278,6.19278,0,0,0,3.66649,1.29811,4.92156,4.92156,0,0,0,2.50842-.66683,5.46392,5.46392,0,0,0,2.61378-4.92927C512.08133,139.69255,512.06377,139.42958,512.04621,139.18375Z"/>
        <path class="cls-3" d="M471.28058,162.732a9.87732,9.87732,0,0,0-1.29811-3.85921,9.53716,9.53716,0,0,0-2.8065-3.12258,6.33623,6.33623,0,0,0-3.57869-1.19275,5.1395,5.1395,0,0,0-2.50886.64884,5.67407,5.67407,0,0,0-2.59622,5.56119l4.35045-2.50864a1.38542,1.38542,0,0,1,.75463-.19294c1.08739,0,2.43818.98226,3.35041,2.56111.96491,1.66642,1.10539,3.43821.43856,4.35044a1.38429,1.38429,0,0,1-.43856.40344,1.21372,1.21372,0,0,1-.54391.158l-3.87677,2.24546a6.1928,6.1928,0,0,0,3.66649,1.29811,4.92166,4.92166,0,0,0,2.50842-.66683,5.46392,5.46392,0,0,0,2.61378-4.92927C471.3157,163.24079,471.29814,162.97782,471.28058,162.732Z"/>
      </g>
      <circle class="cls-3" cx="507.41588" cy="147.17217" r="2.7993"/>
      <circle class="cls-3" cx="468.26888" cy="169.65007" r="2.7993"/>
      <path class="cls-3" d="M409.11571,198.61448a9.8777,9.8777,0,0,0-1.29811-3.85921,9.53693,9.53693,0,0,0-2.80651-3.12257,6.33615,6.33615,0,0,0-3.57869-1.19276,5.13957,5.13957,0,0,0-2.50885.64884,5.674,5.674,0,0,0-2.59622,5.56119l4.35044-2.50863a1.38536,1.38536,0,0,1,.75463-.19294c1.0874,0,2.43819.98225,3.35042,2.5611.96491,1.66643,1.10538,3.43821.43856,4.35045a1.38448,1.38448,0,0,1-.43856.40343,1.21376,1.21376,0,0,1-.54391.158l-3.87678,2.24546a6.19282,6.19282,0,0,0,3.66649,1.29811,4.92159,4.92159,0,0,0,2.50843-.66683,5.46393,5.46393,0,0,0,2.61378-4.92926C409.15083,199.12328,409.13327,198.86032,409.11571,198.61448Z"/>
      <circle class="cls-3" cx="405.52759" cy="206.67382" r="2.7993"/>
      <path class="cls-3" d="M338.08718,239.63506a9.8775,9.8775,0,0,0-1.29812-3.85921,9.53693,9.53693,0,0,0-2.8065-3.12258,6.33623,6.33623,0,0,0-3.57869-1.19275,5.13947,5.13947,0,0,0-2.50885.64884,5.674,5.674,0,0,0-2.59622,5.56119l4.35044-2.50864a1.38545,1.38545,0,0,1,.75463-.19294c1.0874,0,2.43819.98226,3.35042,2.56111.96491,1.66642,1.10538,3.43821.43855,4.35044a1.38426,1.38426,0,0,1-.43855.40344,1.21375,1.21375,0,0,1-.54392.158l-3.87677,2.24547a6.19282,6.19282,0,0,0,3.66649,1.29811,4.92163,4.92163,0,0,0,2.50842-.66683,5.46392,5.46392,0,0,0,2.61378-4.92927C338.12229,240.14386,338.10473,239.88089,338.08718,239.63506Z"/>
      <circle class="cls-3" cx="333.49132" cy="247.8611" r="2.7993"/>
      <path class="cls-3" d="M332.13559,243.05747a9.87748,9.87748,0,0,0-1.29811-3.85921,9.53707,9.53707,0,0,0-2.80651-3.12258,6.33621,6.33621,0,0,0-3.57869-1.19275,5.13947,5.13947,0,0,0-2.50885.64884,5.67405,5.67405,0,0,0-2.59622,5.56119l4.35045-2.50864a1.38539,1.38539,0,0,1,.75462-.19294c1.0874,0,2.43819.98226,3.35042,2.56111.96491,1.66643,1.10538,3.43821.43856,4.35044a1.3844,1.3844,0,0,1-.43856.40344,1.21376,1.21376,0,0,1-.54391.158l-3.87678,2.24546a6.19282,6.19282,0,0,0,3.66649,1.29811,4.92169,4.92169,0,0,0,2.50843-.66683,5.46392,5.46392,0,0,0,2.61378-4.92927C332.17071,243.56627,332.15315,243.3033,332.13559,243.05747Z"/>
      <circle class="cls-3" cx="330.00592" cy="249.9411" r="2.7993"/>
      <path class="cls-3" d="M256.95927,286.48482a9.87748,9.87748,0,0,0-1.29811-3.85921,9.53693,9.53693,0,0,0-2.80651-3.12257,6.33612,6.33612,0,0,0-3.57869-1.19276,5.1396,5.1396,0,0,0-2.50885.64884,5.67406,5.67406,0,0,0-2.59622,5.56119l4.35045-2.50864a1.38538,1.38538,0,0,1,.75462-.19293c1.0874,0,2.43819.98225,3.35042,2.5611.96491,1.66643,1.10539,3.43821.43856,4.35044a1.38429,1.38429,0,0,1-.43856.40344,1.21372,1.21372,0,0,1-.54391.158l-3.87677,2.24546a6.19277,6.19277,0,0,0,3.66648,1.29811,4.92157,4.92157,0,0,0,2.50843-.66683,5.46392,5.46392,0,0,0,2.61378-4.92927C256.99439,286.99362,256.97683,286.73065,256.95927,286.48482Z"/>
      <circle class="cls-3" cx="253.37116" cy="294.54416" r="2.7993"/>
      <path class="cls-3" d="M185.36963,327.8755a9.87748,9.87748,0,0,0-1.29811-3.85921,9.537,9.537,0,0,0-2.80651-3.12258,6.33614,6.33614,0,0,0-3.57869-1.19275,5.13947,5.13947,0,0,0-2.50885.64884,5.674,5.674,0,0,0-2.59622,5.56119l4.35045-2.50864a1.38539,1.38539,0,0,1,.75462-.19294c1.0874,0,2.43819.98226,3.35042,2.5611.96491,1.66643,1.10538,3.43822.43856,4.35045a1.38463,1.38463,0,0,1-.43856.40344,1.21387,1.21387,0,0,1-.54391.158l-3.87678,2.24546a6.19276,6.19276,0,0,0,3.66649,1.29811,4.92159,4.92159,0,0,0,2.50843-.66683,5.46391,5.46391,0,0,0,2.61378-4.92926C185.40475,328.38429,185.38719,328.12133,185.36963,327.8755Z"/>
      <circle class="cls-3" cx="181.78152" cy="335.93483" r="2.7993"/>
      <path class="cls-3" d="M149.47549,348.53111a9.87774,9.87774,0,0,0-1.29811-3.85922,9.53693,9.53693,0,0,0-2.80651-3.12257,6.33614,6.33614,0,0,0-3.57869-1.19275,5.13947,5.13947,0,0,0-2.50885.64884,5.674,5.674,0,0,0-2.59622,5.56119l4.35044-2.50864a1.38545,1.38545,0,0,1,.75463-.19294c1.0874,0,2.43819.98225,3.35042,2.5611.96491,1.66643,1.10538,3.43822.43855,4.35045a1.38448,1.38448,0,0,1-.43855.40344,1.21387,1.21387,0,0,1-.54391.158l-3.87678,2.24546a6.19276,6.19276,0,0,0,3.66649,1.29811,4.92153,4.92153,0,0,0,2.50842-.66683,5.46391,5.46391,0,0,0,2.61378-4.92926C149.5106,349.0399,149.49305,348.77694,149.47549,348.53111Z"/>
      <circle class="cls-3" cx="145.88737" cy="356.59044" r="2.7993"/>
    </g>
    <circle class="cls-21" cx="138.01345" cy="349.8787" r="8.30855"/>
  </g>
  <g>
    <g>
      <path class="cls-22" d="M541.21321,529.41688l2.27866,16.9498c0,2.09225,2.95126,3.78833,6.59177,3.78833s6.5916-1.69608,6.5916-3.78833l2.2882-16.9498Z"/>
      <path class="cls-23" d="M587.58874,502.66894l2.27866,16.94981c0,2.09225,2.95126,3.78832,6.59178,3.78832s6.5916-1.69607,6.5916-3.78832l2.28819-16.94981Z"/>
      <path class="cls-22" d="M466.41442,485.922l2.27866,16.9498c0,2.09226,2.95126,3.78833,6.59177,3.78833s6.5916-1.69607,6.5916-3.78833l2.2882-16.9498Z"/>
      <path class="cls-24" d="M607.18937,401.01778V508.74692a4.14866,4.14866,0,0,1-2.07162,3.60818l-50.86889,29.41143a8.29818,8.29818,0,0,1-4.16054,1.10494V385.21406Z"/>
      <path class="cls-25" d="M550.08832,385.21406V542.87147a8.29858,8.29858,0,0,1-4.161-1.10494l-79.96569-46.15839A4.13012,4.13012,0,0,1,463.87255,492V384.27082Z"/>
      <polygon class="cls-26" points="473.2 399.36 473.2 439.712 540.761 478.712 540.761 438.36 473.2 399.36"/>
      <polygon class="cls-27" points="473.2 448.84 473.2 489.207 540.761 528.207 540.761 487.839 473.2 448.84"/>
      <path class="cls-28" d="M462.9752,370.223v13.335a4.16214,4.16214,0,0,0,2.09855,3.63723l80.812,46.64521a8.40292,8.40292,0,0,0,8.411,0l51.69782-29.89826a4.16213,4.16213,0,0,0,2.09855-3.63723v-13.335Z"/>
      <path class="cls-29" d="M605.99449,383.33278l-80.8121-46.64514a8.40254,8.40254,0,0,0-8.4109,0L465.0737,366.58583a4.20129,4.20129,0,0,0,0,7.27444l80.81209,46.64514a8.40255,8.40255,0,0,0,8.41091,0l51.69779-29.89819A4.20129,4.20129,0,0,0,605.99449,383.33278Z"/>
    </g>
    <g>
      <g>
        <g>
          <path class="cls-30" d="M561.07946,372.685c-2.2363-5.45639-10.71894-9.52157-20.86773-9.52157s-18.63143,4.06518-20.86765,9.52157h-.59545v2.85074c0,6.83305,9.60933,12.37231,21.4631,12.37231s21.46318-5.53926,21.46318-12.37231V372.685Z"/>
          <ellipse class="cls-31" cx="540.21177" cy="372.26512" rx="21.46315" ry="12.37235"/>
          <path class="cls-30" d="M556.4586,369.08885h.012l-.02527-.1499-.00385-.024-1.81761-10.86841h-28.824l-1.80562,10.82216c-.00771.0424-.01413.085-.021.12763l-.01542.09251h.00728a5.51382,5.51382,0,0,0-.07024.79873c0,5.19459,7.30557,9.40542,16.317,9.40542s16.31654-4.21083,16.31654-9.40542A5.5135,5.5135,0,0,0,556.4586,369.08885Z"/>
          <ellipse class="cls-31" cx="540.21177" cy="358.25742" rx="14.41205" ry="8.30777"/>
        </g>
        <path class="cls-32" d="M536.90476,334.962v21.76252c0,1.05283,1.48059,1.90631,3.307,1.90631s3.307-.85348,3.307-1.90631V334.962Z"/>
      </g>
      <g>
        <path class="cls-33" d="M573.23083,332.22093h.00173l-.00535-.02705a11.40288,11.40288,0,0,0-.30642-1.56129L566.25534,290.478H514.16339l-6.66734,40.17674a11.3969,11.3969,0,0,0-.29446,1.501l-.0129.0652h.00409a11.1421,11.1421,0,0,0-.09816,1.39612c0,10.51161,14.82715,19.03289,33.11711,19.03289,18.29027,0,33.11741-8.52128,33.11741-19.03289A11.112,11.112,0,0,0,573.23083,332.22093Z"/>
        <ellipse class="cls-34" cx="540.21183" cy="291.76167" rx="26.14368" ry="15.0251"/>
        <path class="cls-35" d="M530.46992,305.69736a44.10329,44.10329,0,0,0,19.48371,0v-7.66628H530.46992Z"/>
        <ellipse class="cls-36" cx="540.21183" cy="298.03114" rx="9.7419" ry="5.61568"/>
        <path class="cls-37" d="M540.21182,278.02515c13.70514,0,24.855,6.16215,24.855,13.73648s-11.14983,13.7366-24.855,13.7366-24.855-6.16226-24.855-13.7366,11.14983-13.73648,24.855-13.73648m0-1.2886c-14.43869,0-26.14367,6.727-26.14367,15.02508,0,8.29821,11.705,15.02519,26.14367,15.02519s26.14367-6.727,26.14367-15.02519c0-8.2981-11.705-15.02508-26.14367-15.02508Z"/>
      </g>
    </g>
  </g>
  <g>
    <path class="cls-38" d="M241.7915,113.44029a191.74878,191.74878,0,1,1-74.8872,15.113,191.18371,191.18371,0,0,1,74.8872-15.113m0-17.54223c-115.95068,0-209.94726,93.99682-209.94726,209.94751S125.84082,515.79308,241.7915,515.79308c115.95118,0,209.94776-93.99683,209.94776-209.94751S357.74268,95.89806,241.7915,95.89806Z"/>
    <circle class="cls-39" cx="241.79174" cy="305.84555" r="194.19259"/>
    <path class="cls-39" d="M435.98541,305.84375A194.17509,194.17509,0,1,1,364.93924,155.6819,193.78539,193.78539,0,0,1,435.98541,305.84375Z"/>
  </g>
  <g class="cls-40">
    <g>
      <g>
        <path class="cls-41" d="M791.78178,837.66678,802.596,910.011c0,9.18855,12.77678,16.6368,28.53767,16.6368s28.53768-7.44825,28.53768-16.6368l10.60953-72.34423Z"/>
        <polygon class="cls-42" points="891.058 646.799 891.058 164.588 821.119 205.098 821.119 677.27 891.058 646.799"/>
        <g>
          <polygon class="cls-43" points="73.419 -236.882 73.419 254.349 821.119 642.437 821.119 205.098 73.419 -236.882"/>
          <polygon class="cls-44" points="120.385 -208.981 120.385 427.909 763.446 647.467 763.446 171.145 120.385 -208.981"/>
          <path class="cls-45" d="M891.05813,646.79857,891.049,838.23233c0,11.45783-4.7641,23.33552-16.27258,30.0053L-318.63481,1558.83494a65.4988,65.4988,0,0,1-32.956,8.76207V1085.23368Z"/>
          <g>
            <path class="cls-46" d="M821.11924,588.50637V711.60072l-.03272-.03272a32.35522,32.35522,0,0,1-16.249,29.71906L-318.644,1390.729a65.17023,65.17023,0,0,1-32.956,8.76207l172.07551-726.012Z"/>
            <path class="cls-47" d="M821.11924,637.25505V760.3494l-.03272-.03272a32.35522,32.35522,0,0,1-16.249,29.71906L-318.644,1439.47763a65.17023,65.17023,0,0,1-32.956,8.76207l172.07551-726.012Z"/>
            <path class="cls-30" d="M821.11924,567.61408V690.70843l-.03272-.03272a32.35522,32.35522,0,0,1-16.249,29.71906L-318.644,1369.83666a65.17023,65.17023,0,0,1-32.956,8.76207l.31684-159.84807Z"/>
            <path class="cls-48" d="M-1077.48881,845.2683l693.44646,400.34308a65.3887,65.3887,0,0,0,65.39515-.005L804.83232,596.1636c21.79216-12.58558,21.791-44.04123-.00212-56.62517L111.59461,139.24483a65.38873,65.38873,0,0,0-65.39205-.0019L-1077.48938,788.63968C-1099.28587,801.2239-1099.28555,832.68453-1077.48881,845.2683Z"/>
          </g>
          <polygon class="cls-49" points="134.838 -272.39 891.058 164.588 821.119 205.098 73.419 -236.882 134.838 -272.39"/>
          <path class="cls-50" d="M914.19907,161.33354,50.13039-272.5175v32.68817l.00838-.003a9.70752,9.70752,0,0,0,4.80378,8.59245l783.58276,463.191a19.61711,19.61711,0,0,0,19.81437.08781l50.96721-29.52131a9.6769,9.6769,0,0,0,4.82234-9.05022l.06984.03732Z"/>
          <path class="cls-51" d="M118.31707-304.22035l790.981,457.06385a9.80831,9.80831,0,0,1,.00875,16.97979l-50.9672,29.52127a19.61663,19.61663,0,0,1-19.8143-.08782L54.94259-263.9341a9.80831,9.80831,0,0,1,.082-16.93486l40.38758-23.349A22.88605,22.88605,0,0,1,118.31707-304.22035Z"/>
        </g>
      </g>
      <g>
        <g>
          <path class="cls-30" d="M64.72683,303.8425c.68379-.73764,133.65542-77.00454,133.65542-77.00454-.69192-4.61712-1.79222-10.07924,1.17769-11.62323,3.37126-1.75239,10.272,1.64659,13.89847,5.8674,46.13243-9.74036,67.34222-9.5735,159.11051,42.60068,118.93333,67.61866,126.15479,97.89384,152.77872,145.12148,8.27776,3.93148,12.69113,6.58851,10.79968,11.5423-1.75072,4.58524-13.2739,6.95782-19.098,4.93285L391.56426,497.333c1.19565,5.30343-.82583,12.40193-4.16568,14.07326-4.3891,2.19693-10.66676-2.35642-13.47343-11.19114l-.00308-.007c-54.70563-2.26715-129.19474-35.57564-178.6404-66.75646C154.19152,407.53944,84.24513,365.88927,65.40529,321.45272c-7.26167-.01683-14.34147-3.64614-14.61661-8.24306C50.50933,308.53337,57.33389,304.62529,64.72683,303.8425Z"/>
          <path class="cls-30" d="M336.59838,487.09085,294.98616,638.13326a223.52839,223.52839,0,0,1-47.82028,88.44236l-6.66383,7.55948L130.55243,594.28587,305.06207,472.8045Z"/>
          <path class="cls-52" d="M52.32873,271.78887c.68379-.73764,133.65542-77.00454,133.65542-77.00454-.69193-4.61712-1.79222-10.07924,1.17769-11.62323,3.37126-1.75239,10.272,1.64659,13.89847,5.8674,46.13243-9.74037,67.34222-9.5735,159.11051,42.60068C479.10415,299.24784,486.3256,329.523,512.94954,376.75066c8.27775,3.93148,12.69113,6.58851,10.79968,11.5423-1.75072,4.58524-13.2739,6.95782-19.098,4.93285L379.16616,465.27933c1.19565,5.30343-.82583,12.40193-4.16568,14.07326-4.3891,2.19693-10.66676-2.35642-13.47343-11.19114l-.00309-.007c-54.70562-2.26715-129.19473-35.57564-178.64039-66.75646C141.79342,375.48581,71.847,333.83564,53.00719,289.39909c-7.26168-.01683-14.34147-3.64614-14.61662-8.24306C38.11122,276.47974,44.93579,272.57166,52.32873,271.78887Z"/>
          <path class="cls-53" d="M348.64554,313.31431s-15.58491-9.92776-16.08829-25.55543l-79.2168,10.84632-32.5997,94.931,33.23413,53.17462,33.91271,5.47337c1.92962.67118,3.8562,1.31413,5.78125,1.95174l.0122.016.0122-.00763a298.41545,298.41545,0,0,0,49.03229,12.14825c-27.86572-39.25636-49.04458-66.40935-49.04458-66.40935S340.07584,341.45385,348.64554,313.31431Z"/>
          <path class="cls-54" d="M220.4052,378.493C160.165,326.74178,83.59841,269.83618.7781,351.03279-23.61155,383.34839-47.6437,418.56587-71.407,455.971l-207.0077,56.21723C-392.288,582.41827-173.57244,700.88569-72.02673,697.56577L86.20174,640.35384,302.33943,535.206C316.32763,477.69136,261.385,413.69806,220.4052,378.493Z"/>
          <path class="cls-17" d="M216.87917,508.05048l-54.59741,39.34859C100.1787,489.35783,42.8849,449.79805-43.20161,412.7673l-24.24072,36.81633L-267.6672,506.57086c-124.62107,75.848,94.0951,194.3142,195.64064,190.99439L62.69951,619.60939l105.23715-3.03623,21.2805-19.77079Z"/>
          <path class="cls-55" d="M-438.66485,392.60364l15.24327-8.96923a162.47541,162.47541,0,0,1,115.78672-19.08208C-96.483,408.91615,169.74006,542.51908,241.21927,718.59755,293.52063,847.43422,299.18,933.07232,297.0285,976.25231a83.74438,83.74438,0,0,1-23.413,53.833c-155.91365,162.38051-458.11076,328.74482-626.53289,369.8822a81.79136,81.79136,0,0,1-42.19518-.8366c-288.12367-83.59318-596.18837-271.62843-721.741-395.701a83.29963,83.29963,0,0,1-22.95864-76.4633c8.67646-41.19006,23.96332-102.2097,43.97055-135.84005C-1063.748,737.18-438.66485,392.60364-438.66485,392.60364Z"/>
          <path class="cls-56" d="M-89.67795,614.06l36.85411,15.22c7.018,2.89806,17.0236,5.41916,24.6807,5.25937l36.4331-2.245c36.41765,34.71856,125.89884,116.87,159.67718,119.2832,21.04434,1.50309,44.55945-26.42212,63.04933-55.2416-14.353-28.23734-33.63667-55.28126-56.77214-80.92638l-13.01772,32.96816L22.46183,578.132,3.99044,562.97931a46.96174,46.96174,0,0,0-20.36859-10.92926l-34.18734-9.8081a9.20949,9.20949,0,0,0-10.99505,6.12961c-1.36427,4.25871,3.95326,10.36448,7.9128,12.4455l-37.24385,4.01065a11.34827,11.34827,0,0,0-11.94155,12.0306l1.26951,20.56766A19.2821,19.2821,0,0,0-89.67795,614.06Z"/>
          <path class="cls-57" d="M40.34588,305.26639c-64.80656,5.08349-136.39288,21.73512-207.248,50.91469-35.627,13.74719-.53174,96.51192,34.69644,88.26986l81.47542-20.35055c56.26163-67.37081,114.6407-111.76724,170.12051-109.098C96.73944,309.1485,64.61618,303.3626,40.34588,305.26639Z"/>
          <path class="cls-17" d="M.77808,369.92827c-22.07749,22.4305-44.321,46.8688-51.50839,54.17212l-38.09444,8.38529Z"/>
          <path class="cls-58" d="M3.99047,540.0201A46.96409,46.96409,0,0,0-16.37827,529.09l-34.18743-9.80755a9.21026,9.21026,0,0,0-10.99519,6.12888v0c-1.364,4.25943,3.95363,10.36573,7.91318,12.44544l9.75859-1.051-47.00227,5.06207a11.34813,11.34813,0,0,0-11.9414,12.03048l1.26931,20.56771a19.28228,19.28228,0,0,0,11.88569,16.63465l36.85407,15.21937c7.01779,2.89809,17.0237,5.41939,24.68042,5.25943l44.80105-2.7601,16.838-44.59569Z"/>
          <path class="cls-59" d="M200.26563,515.74068s-40.36651,71.69454-54.83342,103.38885c-22.33334,49.8512,83.57108,88.55652,103.8899,55.63394,16.09857-29.79853,42.88916-94.30734,53.83929-142.97323C314.22146,478.38663,229.73768,461.82925,200.26563,515.74068Z"/>
          <ellipse class="cls-60" cx="199.31574" cy="643.97737" rx="34.25779" ry="47.41685" transform="translate(-469.03545 555.99834) rotate(-65.30325)"/>
          <path class="cls-58" d="M160.747,630.21723h0l-133.38479-71.025L4.09146,609.59357S125.1043,725.55509,167.96764,728.61777c31.2618,2.23325,41.347-21.77322,57.62529-44.68168a165.10328,165.10328,0,0,0,12.11327-20.22854C251.19293,631.53557,180.7366,590.737,160.747,630.21723Z"/>
          <g>
            <path class="cls-58" d="M220.40565,378.49317C195.86727,357.4123,168.61958,335.478,139.34379,322.37c-10.85544-4.86044-23.83317,1.14651-26.5542,12.725-4.26914,18.166,9.68643,41.64309,32.84274,61.8517,23.42493,20.44409,74.74924,38.17629,102.472,31.58413,7.90839-1.88053,10.63434-11.76028,5.21277-17.81713A356.34494,356.34494,0,0,0,220.40565,378.49317Z"/>
            <path class="cls-61" d="M174.6642,350.94258c-6.59183,7.95953-10.37087,17.61421-3.739,27.80463,13.457,20.67766,52.57587,28.49363,63.97177,12.91558l28.65779-41.02144-58.22161-36.14661Z"/>
          </g>
        </g>
        <g>
          <path class="cls-62" d="M258.92729,183.748s-35.91336-.56737-58.19105,34.1483c-15.45261,24.08005-8.61489,61.68248-8.61489,61.68248l59.27386-71.26069Z"/>
          <path class="cls-58" d="M182.39815,363.31078c32.23585,16.536,58.808,14.08422,81.74173-10.02507l49.497-52.20452c20.55568-20.50171,18.39846-58.15758-7.43173-79.89971-22.57525-19.00235-61.57865-19.96042-82.64123,5.03787,0,0-25.57879,31.19222-42.58872,58.60822S153.10277,348.28311,182.39815,363.31078Z"/>
          <path class="cls-63" d="M209.25463,244.19412c4.79392,3.33456,18.87708,2.49842,35.28072-8.68939-9.05765,18.394-10.74992,32.15247-.34636,54.97681,9.05053,19.856,27.53524,32.9184,27.53524,32.9184l-6.60033,2.80721,3.943,11.71246c-13.03512,8.76765-18.51464,18.069-27.88608,44.82613,22.22551,7.16213,38.07828.11268,48.76225-22.79049,0,0,45.32512-12.74681,62.724-55.06064,12.71907-30.93251-1.3379-68.36479-33.34158-95.40581-25.93171-21.91061-61.25875-35.75273-91.03741-16.41857S209.25463,244.19412,209.25463,244.19412Z"/>
          <path class="cls-58" d="M254.04864,347.30376c8.85149,7.62953,26.95563,1.69283,35.61324-8.35141s7.24715-25.9934-4.26125-28.022C270.95386,308.38379,245.19715,339.67424,254.04864,347.30376Z"/>
          <path class="cls-64" d="M278.81869,325.98641c-18.24013,14.10539-30.21651,4.52267-51.98467-26.65563-6.4763-9.27594-15.93559-19.70387-21.91568-23.61087-9.80524-6.4061-17.2.40583-21.08835,4.59333-6.07131-3.17293-3.33814-15.11206-.81-20.61085,11.96095-26.01519,40.05075-37.43494,74.7191-8.57112S291.26237,316.36351,278.81869,325.98641Z"/>
        </g>
      </g>
    </g>
  </g>
  <g>
    <ellipse class="cls-34" cx="895.56805" cy="404.45656" rx="9.91662" ry="5.7164"/>
    <path class="cls-65" d="M905.48461,404.459c-.00257,3.156-4.44124,5.71409-9.91678,5.71409-5.47681,0-9.91634-2.55939-9.91634-5.71666v53.52265c0,3.15716,4.43953,5.71644,9.91634,5.71644s9.91678-2.55928,9.91678-5.71644V404.459Z"/>
    <path class="cls-66" d="M905.48461,410.95336c-.00257,3.156-4.44124,5.71409-9.91678,5.71409-5.47681,0-9.91634-2.55939-9.91634-5.71666v3.91979c0,3.15715,4.43953,5.71644,9.91634,5.71644s9.91678-2.55929,9.91678-5.71644Z"/>
    <path class="cls-67" d="M905.48461,446.11254c-.00257,3.156-4.44124,5.71409-9.91678,5.71409-5.47681,0-9.91634-2.55939-9.91634-5.71666v3.91978c0,3.15716,4.43953,5.71644,9.91634,5.71644s9.91678-2.55928,9.91678-5.71644Z"/>
    <path class="cls-37" d="M895.56812,400.05577c5.0686,0,8.60083,2.31934,8.60083,4.40088s-3.53223,4.40064-8.60083,4.40064c-5.06885,0-8.60108-2.31909-8.60108-4.40064s3.53223-4.40088,8.60108-4.40088m0-1.31567c-5.47681,0-9.91675,2.55933-9.91675,5.71655,0,3.157,4.43994,5.71631,9.91675,5.71631s9.9165-2.55933,9.9165-5.71631c0-3.15722-4.4397-5.71655-9.9165-5.71655Z"/>
  </g>
  <g>
    <g>
      <polygon class="cls-68" points="718.848 239.655 678.019 216.044 678.019 277.961 718.848 301.571 718.848 239.655"/>
      <polygon class="cls-69" points="718.848 242.882 686.853 224.379 686.853 272.9 718.848 291.402 718.848 242.882"/>
      <path class="cls-70" d="M681.68029,222.39088l33.50614,19.37619v53.45767l-33.50614-19.37621V222.39088m-3.66132-6.34675v61.91656l40.82878,23.6108V239.65492L678.019,216.04413Z"/>
      <polygon class="cls-71" points="725.459 297.765 725.459 235.849 718.848 239.655 718.848 301.571 725.459 297.765"/>
      <polygon class="cls-72" points="725.459 235.849 684.616 212.246 678.019 216.044 718.848 239.655 725.459 235.849"/>
    </g>
    <g>
      <polygon class="cls-73" points="772.711 296.119 731.882 272.508 731.882 334.425 772.711 358.036 772.711 296.119"/>
      <polygon class="cls-74" points="772.711 299.346 740.716 280.843 740.716 329.364 772.711 347.866 772.711 299.346"/>
      <path class="cls-75" d="M735.5433,278.85495l33.50614,19.37619V351.6888L735.5433,332.31259V278.85495m-3.66132-6.34676v61.91656l40.82878,23.6108V296.119L731.882,272.50819Z"/>
      <polygon class="cls-76" points="779.322 354.229 779.322 292.313 772.711 296.119 772.711 358.036 779.322 354.229"/>
      <polygon class="cls-77" points="779.322 292.313 738.479 268.71 731.882 272.508 772.711 296.119 779.322 292.313"/>
    </g>
    <g>
      <polygon class="cls-78" points="826.574 286.773 785.745 263.162 785.745 325.078 826.574 348.689 826.574 286.773"/>
      <polygon class="cls-79" points="826.574 289.999 794.579 271.497 794.579 320.017 826.574 338.52 826.574 289.999"/>
      <path class="cls-80" d="M789.40631,269.5086l33.50614,19.37619v53.45767l-33.50614-19.37621V269.5086m-3.66132-6.34675v61.91656l40.82878,23.6108V286.77263L785.745,263.16185Z"/>
      <polygon class="cls-81" points="833.185 344.883 833.185 282.967 826.574 286.773 826.574 348.689 833.185 344.883"/>
      <polygon class="cls-82" points="833.185 282.967 792.342 259.364 785.745 263.162 826.574 286.773 833.185 282.967"/>
    </g>
  </g>
  <g>
    <circle class="cls-38" cx="105.34043" cy="169.43726" r="62.02326"/>
    <g>
      <rect class="cls-83" x="84.28363" y="160.79502" width="13.46241" height="40.4658" transform="translate(-101.34844 117.37906) rotate(-45)"/>
      <rect class="cls-83" x="110.49446" y="143.61416" width="13.46241" height="60.59444" transform="translate(77.14282 379.77635) rotate(-135)"/>
    </g>
  </g>
  <g>
    <g>
      <path class="cls-84" d="M832.29,646.67147l3.46165,23.1575c0,2.94127,4.08987,5.32547,9.135,5.32547s9.13495-2.3842,9.13495-5.32547l3.39613-23.1575Z"/>
      <path class="cls-85" d="M232.09455,736.096l3.46165,23.1575c0,2.94127,4.08987,5.32547,9.135,5.32547s9.135-2.3842,9.135-5.32547l3.39613-23.1575Z"/>
      <path class="cls-86" d="M453.73083,866.0818l3.46165,23.1575c0,2.94127,4.08987,5.32546,9.135,5.32546s9.135-2.38419,9.135-5.32546l3.39613-23.1575Z"/>
      <polygon class="cls-87" points="864.069 585.574 864.069 431.218 841.681 444.185 841.681 595.328 864.069 585.574"/>
      <g>
        <polygon class="cls-88" points="602.341 302.707 602.341 459.95 841.681 584.178 841.681 444.185 602.341 302.707"/>
        <polygon class="cls-89" points="617.375 311.638 617.375 515.507 823.22 585.788 823.22 433.317 617.375 311.638"/>
        <path class="cls-90" d="M864.06854,585.57426l-.00293,61.27824a10.76375,10.76375,0,0,1-5.20888,9.60475L476.84393,877.51853a20.96623,20.96623,0,0,1-10.54926,2.80475V725.918Z"/>
        <path class="cls-91" d="M466.29467,725.918V880.32328a20.8248,20.8248,0,0,1-10.39225-2.80475L233.92883,749.36826a10.33645,10.33645,0,0,1-5.22234-8.90616V678.47486Z"/>
        <g>
          <path class="cls-46" d="M841.681,566.91483v39.4027l-.01047-.01048a10.357,10.357,0,0,1-5.20133,9.51312L476.841,823.70754a20.86107,20.86107,0,0,1-10.54926,2.80475L521.37339,594.1147Z"/>
          <path class="cls-92" d="M841.681,582.51936v39.4027l-.01047-.01048a10.357,10.357,0,0,1-5.20133,9.51312L476.841,839.31207a20.86107,20.86107,0,0,1-10.54926,2.80475l55.08165-232.39759Z"/>
          <path class="cls-93" d="M521.37339,609.71923,466.29174,842.11682A20.84428,20.84428,0,0,1,455.91,839.31207L233.93632,711.1618a10.37313,10.37313,0,0,1-5.23276-9.07365V661.9006Z"/>
          <path class="cls-30" d="M841.681,560.22718v39.40269l-.01047-.01047a10.357,10.357,0,0,1-5.20133,9.51312L476.841,817.01988a20.86107,20.86107,0,0,1-10.54926,2.80475l.10142-51.16761Z"/>
          <path class="cls-94" d="M468.28319,753.23515l-1.99145,66.58948A20.84417,20.84417,0,0,1,455.91,817.01988L233.93632,688.86962a10.37314,10.37314,0,0,1-5.23276-9.07365V639.60842Z"/>
          <path class="cls-48" d="M233.93358,649.10473l221.9733,128.15045a20.931,20.931,0,0,0,20.93309-.00161L836.46753,569.36592a10.46551,10.46551,0,0,0-.00069-18.1258L614.56105,423.10551a20.931,20.931,0,0,0-20.9321-.00061L233.9334,630.97782A10.46552,10.46552,0,0,0,233.93358,649.10473Z"/>
        </g>
        <polygon class="cls-49" points="622.001 291.341 864.069 431.218 841.681 444.185 602.341 302.707 622.001 291.341"/>
        <path class="cls-95" d="M871.476,430.17614,594.88625,291.29974v10.46354l.00269-.001a3.10738,3.10738,0,0,0,1.53769,2.75045L847.2527,452.78093a6.27946,6.27946,0,0,0,6.34261.0281L869.91,443.35922a3.09758,3.09758,0,0,0,1.54363-2.897l.02236.01194Z"/>
        <path class="cls-96" d="M616.71292,281.15161,869.90719,427.45846a3.13966,3.13966,0,0,1,.0028,5.43526l-16.31468,9.4498a6.27931,6.27931,0,0,1-6.34259-.0281L596.42665,294.0473a3.13965,3.13965,0,0,1,.02625-5.42087l12.92813-7.47405A7.32587,7.32587,0,0,1,616.71292,281.15161Z"/>
      </g>
    </g>
    <g>
      <g>
        <path class="cls-30" d="M599.5586,475.79348c.21888-.23612,42.78331-24.64927,42.78331-24.64927-.22149-1.47795-.5737-3.22638.377-3.72062,1.07914-.56094,3.28807.52708,4.44892,1.87817,14.76706-3.11791,21.55635-3.0645,50.93152,13.63654,38.07075,21.64484,40.38235,31.336,48.90471,46.45361,2.64972,1.25848,4.06245,2.109,3.457,3.69471-.56041,1.46774-4.249,2.22721-6.1133,1.579l-40.168,23.06444c.38273,1.69764-.26435,3.96988-1.33344,4.50487-1.405.70324-3.41445-.75429-4.31287-3.5823l-.001-.00224c-17.51136-.72572-41.35544-11.38782-57.18308-21.36885-13.153-8.29453-35.543-21.62681-41.57363-35.851-2.32447-.00539-4.59073-1.16713-4.6788-2.63862C595.00755,477.295,597.19211,476.04405,599.5586,475.79348Z"/>
        <path class="cls-30" d="M686.58511,534.45157,673.265,582.80048A71.55191,71.55191,0,0,1,657.95762,611.111l-2.1331,2.4198-35.195-44.766,55.8608-38.88638Z"/>
        <path class="cls-52" d="M595.59,465.53306c.21888-.23612,42.7833-24.64927,42.7833-24.64927-.22148-1.47795-.57369-3.22638.377-3.72062,1.07915-.56094,3.28808.52708,4.44893,1.87817,14.76706-3.11791,21.55635-3.06449,50.93152,13.63654,38.07075,21.64484,40.38235,31.336,48.90471,46.45362,2.64972,1.25847,4.06245,2.109,3.457,3.6947-.56041,1.46775-4.249,2.22721-6.11329,1.579l-40.168,23.06444c.38273,1.69764-.26435,3.96988-1.33344,4.50488-1.405.70324-3.41445-.7543-4.31287-3.58231l-.001-.00224c-17.51135-.72572-41.35543-11.38782-57.18307-21.36885-13.153-8.29452-35.543-21.62681-41.57363-35.851-2.32447-.00538-4.59073-1.16713-4.6788-2.63861C591.0389,467.03462,593.22345,465.78364,595.59,465.53306Z"/>
        <path class="cls-53" d="M690.44142,478.82542s-4.98875-3.17789-5.14989-8.18033L659.93411,474.117,649.4989,504.50459l10.6383,17.02128,10.85551,1.752c.61767.21485,1.23437.42066,1.85058.62476l.00391.00512.0039-.00244a95.52192,95.52192,0,0,0,15.69532,3.88867c-8.91986-12.566-15.69925-21.25773-15.69925-21.25773S687.69825,487.83293,690.44142,478.82542Z"/>
        <path class="cls-97" d="M649.39149,499.68923c-19.283-16.56565-43.79207-34.78122-70.303-8.79006-7.80717,10.34427-15.4999,21.61744-23.10656,33.59088l-66.26349,17.99522c-36.451,22.48075,33.56017,60.40236,66.06511,59.33965l50.64918-18.31363,69.186-33.658C680.09641,531.44277,662.50919,510.95842,649.39149,499.68923Z"/>
        <path class="cls-17" d="M648.2628,541.16077l-17.47672,12.59555c-19.87929-18.57909-38.21912-31.24224-65.77555-43.09584l-7.75949,11.785-64.09229,18.24171c-39.8914,24.27907,30.12,62.20028,62.62487,61.1376l43.126-24.95379,33.68658-.9719,6.81192-6.32867Z"/>
        <path class="cls-98" d="M438.42213,504.20606l4.87939-2.87107a52.00867,52.00867,0,0,1,37.06352-6.1082c67.59005,14.20093,152.80845,56.96744,175.68906,113.33043,16.74175,41.24082,18.55333,68.65371,17.86462,82.4757a26.80669,26.80669,0,0,1-7.49452,17.232C616.516,760.24319,519.78223,813.49666,465.87,826.6648a26.1815,26.1815,0,0,1-13.50674-.2678c-92.22884-26.7583-190.84083-86.94868-231.03042-126.66452a26.66433,26.66433,0,0,1-7.34909-24.476c2.77735-13.185,7.67069-32.71748,14.075-43.48261C238.33205,614.5055,438.42213,504.20606,438.42213,504.20606Z"/>
        <path class="cls-56" d="M550.13339,575.09459l11.79705,4.87195a21.93808,21.93808,0,0,0,7.90033,1.68353l11.6623-.71862c11.65734,11.11346,40.30041,37.41027,51.11291,38.18274,6.73633.48114,14.26355-8.45777,20.18219-17.68293a120.61028,120.61028,0,0,0-18.17285-25.90466l-4.167,10.55316L586.0295,563.594l-5.91272-4.8504a15.03246,15.03246,0,0,0-6.52-3.49847l-10.94342-3.13959a2.948,2.948,0,0,0-3.51953,1.9621c-.4367,1.36322,1.26544,3.31768,2.5329,3.98382l-11.92181,1.28381a3.6326,3.6326,0,0,0-3.82251,3.851l.40637,6.58374A6.17222,6.17222,0,0,0,550.13339,575.09459Z"/>
        <path class="cls-56" d="M524.02584,544.61665l7.13721,10.96045a18.98734,18.98734,0,0,0,7.36426,6.27563l9.427,4.531a5.72483,5.72483,0,0,0,6.29516-.89136l4.6023-4.113a6.72751,6.72751,0,0,0,1.20386-8.61084l-6.63282-10.49243a14.94913,14.94913,0,0,0-9.12671-6.54443l-7.375-1.5337-1.59619-14.20068,11.72022-3.28662c-10.623-4.61279-21.41577-8.68628-32.11011-12.17358-7.91455,3.93115-14.08789,8.31079-13.62036,12.27563C502.43819,526.3437,518.58517,541.48994,524.02584,544.61665Z"/>
        <path class="cls-99" d="M591.75422,476.24927a222.27322,222.27322,0,0,0-66.34043,16.29787c-11.40425,4.4005-.17021,30.89362,11.10638,28.25532l26.08041-6.51424c18.00944-21.5655,36.69667-35.77687,54.45585-34.92245C609.80588,477.49194,599.52318,475.63987,591.75422,476.24927Z"/>
        <g>
          <path class="cls-100" d="M530.30377,542.15782l11.69013-10.23324,8.90865,1.85264a14.95083,14.95083,0,0,1,9.1267,6.5442l6.6327,10.49281a6.72753,6.72753,0,0,1-1.20372,8.6109l-4.60232,4.113a5.7252,5.7252,0,0,1-6.29534.89116l-9.42672-4.53117a18.98452,18.98452,0,0,1-7.36435-6.27545Z"/>
          <path class="cls-17" d="M579.0885,496.94764c-7.067,7.18-14.18722,15.00278-16.48792,17.34058l-12.19408,2.68414Z"/>
          <ellipse class="cls-60" cx="531.04365" cy="506.88608" rx="8.14189" ry="12.83657" transform="translate(-157.99879 253.58514) rotate(-23.48261)"/>
          <path class="cls-58" d="M517.201,500.93012c-6.67431,3.92628-10.24393,8.22027-9.28,13.92813,1.598,9.463,22.38278,27.29957,22.38278,27.29957l11.69013-10.23324-7.62547-14.34045-.00024-.00008c6.44986-2.9518,3.40039-23.1499-8.231-20.99438A45.8549,45.8549,0,0,0,517.201,500.93012Z"/>
          <path class="cls-58" d="M530.63228,542.66219l7.13723,10.96045a18.984,18.984,0,0,0,7.36426,6.27557l9.42681,4.53106a5.72486,5.72486,0,0,0,6.29531-.89132l4.60238-4.113a6.72766,6.72766,0,0,0,1.20375-8.61086l-6.63286-10.49262a14.94971,14.94971,0,0,0-9.12671-6.54426l-7.37478-1.53377C533.70078,529.51835,528.9641,539.85563,530.63228,542.66219Z"/>
          <path class="cls-61" d="M566.662,550.81411l-4.0614-6.42494-2.68383-.76975a2.94794,2.94794,0,0,0-3.51952,1.96206h0c-.43669,1.36322,1.26543,3.31767,2.53288,3.9838l-11.92178,1.28382a3.63236,3.63236,0,0,0-3.82231,3.851l.26331,4.26954a19.04747,19.04747,0,0,0,1.6844.92855l9.42681,4.53106a5.72486,5.72486,0,0,0,6.29531-.89132l4.60238-4.113A6.72766,6.72766,0,0,0,566.662,550.81411Z"/>
          <path class="cls-58" d="M553.00137,534.45157,564.8,539.14233c3.39448,1.36662,1.16291,4.89625-1.36973,4.32795l-3.19551-.70841Z"/>
        </g>
        <path class="cls-58" d="M580.11679,551.3943a15.03327,15.03327,0,0,0-6.52006-3.49875l-10.94345-3.13941a2.94822,2.94822,0,0,0-3.51958,1.96186v0c-.43662,1.36345,1.26556,3.31808,2.533,3.9838l3.12374-.33642-15.0455,1.62038a3.63255,3.63255,0,0,0-3.82246,3.851l.40631,6.58376a6.17228,6.17228,0,0,0,3.80462,5.32477l11.79705,4.87175a21.93667,21.93667,0,0,0,7.90024,1.68355l14.34089-.88351,5.38987-14.27515Z"/>
        <path class="cls-101" d="M642.94478,543.62242s-12.92139,22.94953-17.55227,33.09493c-7.14893,15.95745,26.75124,28.34708,33.25532,17.80852,5.15318-9.53856,13.72889-30.18793,17.23405-45.766C679.42222,531.66533,652.37883,526.36529,642.94478,543.62242Z"/>
        <ellipse class="cls-60" cx="642.64072" cy="584.67118" rx="10.96597" ry="15.17821" transform="translate(-157.05696 924.24608) rotate(-65.30325)"/>
        <path class="cls-58" d="M630.29479,580.26654h0l-42.69668-22.73521-7.449,16.13355s38.7364,37.11946,52.457,38.09983c10.007.71487,13.23523-6.96964,18.446-14.30267a52.84984,52.84984,0,0,0,3.87748-6.47519C659.24669,580.68855,636.69351,567.62884,630.29479,580.26654Z"/>
        <g>
          <path class="cls-58" d="M649.39163,499.68928c-7.85477-6.748-16.5768-13.76923-25.948-17.96512a6.14508,6.14508,0,0,0-8.5,4.07328c-1.36656,5.815,3.10064,13.33,10.513,19.79882,7.49836,6.54419,23.92735,12.22029,32.80146,10.11013a3.471,3.471,0,0,0,1.66862-5.70329A114.06676,114.06676,0,0,0,649.39163,499.68928Z"/>
          <path class="cls-61" d="M634.74972,490.87029c-2.11005,2.54786-3.31973,5.63834-1.19685,8.90031,4.3076,6.61895,16.82962,9.12085,20.47746,4.13429l9.17341-13.131-18.63683-11.57059Z"/>
        </g>
      </g>
      <g>
        <path class="cls-102" d="M661.72247,437.351A23.216,23.216,0,0,0,643.09542,448.282c-4.9464,7.70806-2.75764,19.74465-2.75764,19.74465L659.31144,445.216Z"/>
        <path class="cls-58" d="M637.22537,494.82937c10.31875,5.29322,18.82452,4.50838,26.16566-3.209l15.84407-16.71075c6.57991-6.56263,5.88938-18.61633-2.3789-25.576-7.22638-6.08268-19.71143-6.38936-26.45359,1.61263a211.50539,211.50539,0,0,0-13.63272,18.76058C631.325,478.48268,627.84787,490.019,637.22537,494.82937Z"/>
        <path class="cls-103" d="M645.82217,456.69994c1.53454,1.0674,6.04258.79975,11.29342-2.78149-2.89937,5.888-3.44107,10.29206-.11088,17.59817a29.77112,29.77112,0,0,0,8.81408,10.53723l-2.11278.89859,1.26216,3.74918c-4.17256,2.80654-5.92656,5.78392-8.92638,14.34891,7.11443,2.29261,12.18892.03607,15.60888-7.29527,0,0,14.50864-4.08028,20.07806-17.625,4.07139-9.90154-.42826-21.88367-10.67269-30.53955-8.30078-7.01362-19.609-11.4445-29.14122-5.25561S645.82217,456.69994,645.82217,456.69994Z"/>
        <path class="cls-58" d="M660.16081,489.7055c2.83337,2.44222,8.62853.54188,11.39985-2.6733s2.31982-8.32053-1.364-8.96989C665.57219,477.24716,657.32743,487.26328,660.16081,489.7055Z"/>
        <path class="cls-104" d="M668.08974,482.88178c-5.8387,4.51516-9.67236,1.44771-16.64038-8.53251-2.07307-2.96924-5.101-6.30724-7.01524-7.55788-3.13867-2.0506-5.50574.12991-6.75042,1.47034-1.94343-1.01566-1.06854-4.8374-.25927-6.59757,3.82872-8.3275,12.82031-11.983,23.9177-2.74363S672.073,479.80148,668.08974,482.88178Z"/>
      </g>
    </g>
  </g>
</svg>
