<svg id="Layer_1" data-name="Layer 1" xmlns="http://www.w3.org/2000/svg" xmlns:xlink="http://www.w3.org/1999/xlink" viewBox="0 0 1000 1000">
  <defs>
    <style>
      .cls-1 {
        fill: #b8cbd8;
      }

      .cls-2 {
        fill: url(#linear-gradient);
      }

      .cls-3 {
        fill: url(#linear-gradient-2);
      }

      .cls-4 {
        fill: #9bb0c4;
      }

      .cls-5 {
        fill: url(#linear-gradient-3);
      }

      .cls-6 {
        fill: url(#linear-gradient-4);
      }

      .cls-7 {
        fill: url(#linear-gradient-5);
      }

      .cls-8 {
        fill: url(#linear-gradient-6);
      }

      .cls-9 {
        fill: url(#linear-gradient-7);
      }

      .cls-10 {
        fill: url(#linear-gradient-8);
      }

      .cls-11 {
        fill: url(#linear-gradient-9);
      }

      .cls-12 {
        fill: url(#linear-gradient-10);
      }

      .cls-13 {
        fill: url(#linear-gradient-11);
      }

      .cls-14 {
        fill: url(#linear-gradient-12);
      }

      .cls-15 {
        fill: url(#linear-gradient-13);
      }

      .cls-16 {
        fill: #d8986c;
      }

      .cls-17 {
        fill: url(#linear-gradient-14);
      }

      .cls-18 {
        fill: #b27246;
      }

      .cls-19 {
        fill: url(#linear-gradient-15);
      }

      .cls-20 {
        fill: #d8882a;
      }

      .cls-21 {
        fill: #eabe32;
      }

      .cls-22 {
        fill: #dda026;
      }

      .cls-23 {
        fill: #bcd0e2;
      }

      .cls-24 {
        fill: #d7ebf4;
      }

      .cls-25 {
        fill: #a3bbce;
      }

      .cls-26 {
        fill: #c67d1c;
      }

      .cls-27 {
        fill: url(#linear-gradient-16);
      }

      .cls-28 {
        fill: url(#linear-gradient-17);
      }

      .cls-29 {
        fill: url(#linear-gradient-18);
      }

      .cls-30 {
        fill: url(#linear-gradient-19);
      }

      .cls-31, .cls-51 {
        fill: none;
      }

      .cls-32 {
        fill: url(#linear-gradient-20);
      }

      .cls-33 {
        fill: url(#linear-gradient-21);
      }

      .cls-34 {
        fill: url(#linear-gradient-22);
      }

      .cls-35, .cls-78 {
        fill: #fff;
      }

      .cls-35 {
        opacity: 0.7;
      }

      .cls-36 {
        fill: url(#linear-gradient-23);
      }

      .cls-37 {
        fill: url(#linear-gradient-24);
      }

      .cls-38 {
        fill: url(#linear-gradient-25);
      }

      .cls-39 {
        fill: url(#linear-gradient-26);
      }

      .cls-40 {
        fill: url(#linear-gradient-27);
      }

      .cls-41 {
        fill: url(#linear-gradient-28);
      }

      .cls-42 {
        fill: url(#linear-gradient-29);
      }

      .cls-43 {
        fill: url(#linear-gradient-30);
      }

      .cls-44 {
        fill: url(#linear-gradient-31);
      }

      .cls-45 {
        fill: url(#linear-gradient-32);
      }

      .cls-46 {
        fill: url(#linear-gradient-33);
      }

      .cls-47 {
        fill: url(#linear-gradient-34);
      }

      .cls-48 {
        fill: url(#linear-gradient-35);
      }

      .cls-106, .cls-49 {
        fill: #dd7b19;
      }

      .cls-49 {
        opacity: 0.5;
      }

      .cls-50 {
        fill: url(#linear-gradient-36);
      }

      .cls-51 {
        stroke: #d8712b;
        stroke-linecap: round;
        stroke-miterlimit: 10;
        stroke-width: 5.25215px;
      }

      .cls-52 {
        fill: url(#linear-gradient-37);
      }

      .cls-53 {
        fill: url(#linear-gradient-38);
      }

      .cls-54 {
        fill: url(#linear-gradient-39);
      }

      .cls-55 {
        fill: url(#linear-gradient-40);
      }

      .cls-56 {
        fill: url(#linear-gradient-41);
      }

      .cls-57 {
        fill: url(#linear-gradient-42);
      }

      .cls-58 {
        fill: url(#linear-gradient-43);
      }

      .cls-59 {
        fill: url(#linear-gradient-44);
      }

      .cls-60 {
        fill: url(#linear-gradient-45);
      }

      .cls-61 {
        fill: url(#linear-gradient-46);
      }

      .cls-62 {
        fill: url(#linear-gradient-47);
      }

      .cls-63 {
        fill: url(#linear-gradient-48);
      }

      .cls-64 {
        fill: url(#linear-gradient-49);
      }

      .cls-65 {
        fill: url(#linear-gradient-50);
      }

      .cls-66 {
        fill: url(#linear-gradient-51);
      }

      .cls-67 {
        fill: url(#linear-gradient-52);
      }

      .cls-68 {
        fill: url(#linear-gradient-53);
      }

      .cls-69 {
        fill: url(#linear-gradient-54);
      }

      .cls-70 {
        fill: url(#linear-gradient-55);
      }

      .cls-71 {
        fill: url(#linear-gradient-56);
      }

      .cls-72 {
        fill: url(#linear-gradient-57);
      }

      .cls-73 {
        fill: url(#linear-gradient-58);
      }

      .cls-74 {
        fill: url(#linear-gradient-59);
      }

      .cls-75 {
        fill: url(#linear-gradient-60);
      }

      .cls-76 {
        fill: url(#linear-gradient-61);
      }

      .cls-77 {
        fill: url(#linear-gradient-62);
      }

      .cls-79 {
        fill: #9bb3c6;
      }

      .cls-80 {
        fill: url(#linear-gradient-63);
      }

      .cls-81 {
        fill: #445c72;
      }

      .cls-82 {
        fill: #a1bbdb;
        opacity: 0.2;
      }

      .cls-83 {
        opacity: 0.8;
        fill: url(#linear-gradient-64);
      }

      .cls-84 {
        fill: #cddce8;
      }

      .cls-85 {
        fill: #34a521;
      }

      .cls-86 {
        fill: #27343d;
      }

      .cls-87 {
        fill: url(#linear-gradient-65);
      }

      .cls-88 {
        fill: url(#linear-gradient-66);
      }

      .cls-89 {
        fill: url(#linear-gradient-67);
      }

      .cls-90 {
        fill: url(#linear-gradient-68);
      }

      .cls-91 {
        fill: url(#linear-gradient-69);
      }

      .cls-92 {
        fill: url(#linear-gradient-70);
      }

      .cls-93 {
        fill: url(#linear-gradient-71);
      }

      .cls-94 {
        fill: url(#linear-gradient-72);
      }

      .cls-95 {
        fill: url(#linear-gradient-73);
      }

      .cls-96 {
        fill: url(#linear-gradient-74);
      }

      .cls-97 {
        fill: url(#linear-gradient-75);
      }

      .cls-98 {
        fill: url(#linear-gradient-76);
      }

      .cls-99 {
        fill: #969696;
      }

      .cls-100 {
        fill: #636363;
      }

      .cls-101 {
        fill: #6e8496;
      }

      .cls-102 {
        fill: url(#linear-gradient-77);
      }

      .cls-103 {
        fill: url(#linear-gradient-78);
      }

      .cls-104 {
        fill: #dd7a64;
      }

      .cls-105 {
        fill: url(#linear-gradient-79);
      }

      .cls-106 {
        opacity: 0.6;
      }

      .cls-107 {
        fill: url(#linear-gradient-80);
      }

      .cls-108 {
        fill: url(#linear-gradient-81);
      }

      .cls-109 {
        fill: url(#linear-gradient-82);
      }

      .cls-110 {
        fill: #cc695c;
      }

      .cls-111 {
        fill: url(#linear-gradient-83);
      }

      .cls-112 {
        fill: #ffcd5c;
      }

      .cls-113 {
        fill: #7c7c7c;
      }

      .cls-114 {
        fill: #686868;
      }

      .cls-115 {
        fill: #ccc;
      }

      .cls-116 {
        fill: #7995a8;
      }

      .cls-117 {
        fill: url(#linear-gradient-84);
      }

      .cls-118 {
        fill: url(#linear-gradient-85);
      }

      .cls-119 {
        fill: url(#linear-gradient-86);
      }

      .cls-120 {
        fill: url(#linear-gradient-87);
      }
    </style>
    <linearGradient id="linear-gradient" x1="123.5797" y1="381.81496" x2="530.22595" y2="381.81496" gradientUnits="userSpaceOnUse">
      <stop offset="0" stop-color="#c3d6e6"/>
      <stop offset="1" stop-color="#e4edf2"/>
    </linearGradient>
    <linearGradient id="linear-gradient-2" x1="123.5797" y1="696.80704" x2="936.85652" y2="696.80704" gradientUnits="userSpaceOnUse">
      <stop offset="0.00663" stop-color="#c4d5e6"/>
      <stop offset="1" stop-color="#dae9f2"/>
    </linearGradient>
    <linearGradient id="linear-gradient-3" x1="11724.99556" y1="673.66461" x2="11898.643" y2="673.66461" gradientTransform="matrix(-1, 0, 0, 1, 12035.06382, 0)" gradientUnits="userSpaceOnUse">
      <stop offset="0" stop-color="#62788c"/>
      <stop offset="1" stop-color="#526575"/>
    </linearGradient>
    <linearGradient id="linear-gradient-4" x1="11724.99581" y1="665.60802" x2="11898.64295" y2="665.60802" gradientTransform="matrix(-1, 0, 0, 1, 12035.06382, 0)" gradientUnits="userSpaceOnUse">
      <stop offset="0" stop-color="#849bb2"/>
      <stop offset="1" stop-color="#5b6f82"/>
    </linearGradient>
    <linearGradient id="linear-gradient-5" x1="11700.97147" y1="319.8884" x2="11812.94337" y2="722.98726" xlink:href="#linear-gradient-4"/>
    <linearGradient id="linear-gradient-6" x1="11724.44507" y1="557.40381" x2="11897.0311" y2="823.15046" xlink:href="#linear-gradient-4"/>
    <linearGradient id="linear-gradient-7" x1="11747.23654" y1="542.60215" x2="11919.82257" y2="808.34881" xlink:href="#linear-gradient-4"/>
    <linearGradient id="linear-gradient-8" x1="11766.63338" y1="588.79978" x2="11793.28269" y2="665.16462" gradientTransform="matrix(-1, 0, 0, 1, 12035.06382, 0)" gradientUnits="userSpaceOnUse">
      <stop offset="0" stop-color="#3e4c59"/>
      <stop offset="1" stop-color="#293440"/>
    </linearGradient>
    <linearGradient id="linear-gradient-9" x1="11774.9414" y1="585.9005" x2="11801.59071" y2="662.26534" xlink:href="#linear-gradient-8"/>
    <linearGradient id="linear-gradient-10" x1="11798.35108" y1="339.3292" x2="11877.77648" y2="685.09844" gradientTransform="matrix(-1, 0, 0, 1, 12035.06382, 0)" gradientUnits="userSpaceOnUse">
      <stop offset="0" stop-color="#62778c"/>
      <stop offset="1" stop-color="#435466"/>
    </linearGradient>
    <linearGradient id="linear-gradient-11" x1="11724.99556" y1="545.31335" x2="11898.643" y2="545.31335" xlink:href="#linear-gradient-3"/>
    <linearGradient id="linear-gradient-12" x1="11724.99581" y1="537.25668" x2="11898.64295" y2="537.25668" xlink:href="#linear-gradient-4"/>
    <linearGradient id="linear-gradient-13" x1="11838.87563" y1="330.02045" x2="11918.30104" y2="675.78969" xlink:href="#linear-gradient-10"/>
    <linearGradient id="linear-gradient-14" x1="11738.41983" y1="303.22627" x2="11808.2903" y2="516.86867" xlink:href="#linear-gradient-8"/>
    <linearGradient id="linear-gradient-15" x1="11734.64604" y1="532.22546" x2="11831.79711" y2="532.22546" xlink:href="#linear-gradient-10"/>
    <linearGradient id="linear-gradient-16" x1="11737.13242" y1="475.13621" x2="11831.79711" y2="475.13621" xlink:href="#linear-gradient-4"/>
    <linearGradient id="linear-gradient-17" x1="11737.1247" y1="457.91259" x2="11831.7971" y2="457.91259" xlink:href="#linear-gradient-10"/>
    <linearGradient id="linear-gradient-18" x1="11737.13242" y1="405.39407" x2="11831.79711" y2="405.39407" xlink:href="#linear-gradient-4"/>
    <linearGradient id="linear-gradient-19" x1="11737.1247" y1="388.17045" x2="11831.7971" y2="388.17045" xlink:href="#linear-gradient-10"/>
    <linearGradient id="linear-gradient-20" x1="11748.86682" y1="306.58414" x2="11860.83872" y2="709.683" xlink:href="#linear-gradient-4"/>
    <linearGradient id="linear-gradient-21" x1="11724.99556" y1="305.63309" x2="11898.643" y2="305.63309" xlink:href="#linear-gradient-3"/>
    <linearGradient id="linear-gradient-22" x1="11721.32025" y1="297.57642" x2="11890.63184" y2="297.57642" xlink:href="#linear-gradient-4"/>
    <linearGradient id="linear-gradient-23" x1="11963.57211" y1="149.78738" x2="11779.20402" y2="549.25158" gradientTransform="matrix(-1, 0, 0, 1, 12598.80851, 0)" gradientUnits="userSpaceOnUse">
      <stop offset="0" stop-color="#293440"/>
      <stop offset="1" stop-color="#3e4c59"/>
    </linearGradient>
    <linearGradient id="linear-gradient-24" x1="11689.16811" y1="444.61414" x2="11787.2164" y2="444.61414" gradientTransform="matrix(-1, 0, 0, 1, 12598.80851, 0)" xlink:href="#linear-gradient-10"/>
    <linearGradient id="linear-gradient-25" x1="11810.87191" y1="374.34473" x2="11908.93473" y2="374.34473" gradientTransform="matrix(-1, 0, 0, 1, 12598.80851, 0)" xlink:href="#linear-gradient-10"/>
    <linearGradient id="linear-gradient-26" x1="11932.59024" y1="304.05496" x2="12030.70908" y2="304.05496" gradientTransform="matrix(-1, 0, 0, 1, 12598.80851, 0)" xlink:href="#linear-gradient-10"/>
    <linearGradient id="linear-gradient-27" x1="11689.16811" y1="377.72305" x2="12042.50794" y2="377.72305" gradientTransform="matrix(-1, 0, 0, 1, 12598.80851, 0)" xlink:href="#linear-gradient-4"/>
    <linearGradient id="linear-gradient-28" x1="12058.88013" y1="273.0787" x2="11679.08186" y2="478.95641" gradientTransform="matrix(-1, 0, 0, 1, 12598.80851, 0)" xlink:href="#linear-gradient-10"/>
    <linearGradient id="linear-gradient-29" x1="11709.31303" y1="329.29653" x2="11942.84595" y2="562.21489" gradientTransform="matrix(-1, 0, 0, 1, 12598.80851, 0)" gradientUnits="userSpaceOnUse">
      <stop offset="0" stop-color="#435466"/>
      <stop offset="1" stop-color="#62778c"/>
    </linearGradient>
    <linearGradient id="linear-gradient-30" x1="11805.14851" y1="233.20818" x2="12038.68143" y2="466.12654" xlink:href="#linear-gradient-29"/>
    <linearGradient id="linear-gradient-31" x1="11900.99585" y1="137.10795" x2="12134.52877" y2="370.0263" xlink:href="#linear-gradient-29"/>
    <linearGradient id="linear-gradient-32" x1="11487.91197" y1="118.86797" x2="12055.43787" y2="118.86797" gradientTransform="matrix(-1, 0, 0, 1, 12598.80851, 0)" gradientUnits="userSpaceOnUse">
      <stop offset="0" stop-color="#5b6f82"/>
      <stop offset="1" stop-color="#849bb2"/>
    </linearGradient>
    <linearGradient id="linear-gradient-33" x1="11487.91197" y1="226.49831" x2="12055.43787" y2="226.49831" xlink:href="#linear-gradient-32"/>
    <linearGradient id="linear-gradient-34" x1="11487.91197" y1="334.20035" x2="12055.43787" y2="334.20035" xlink:href="#linear-gradient-32"/>
    <linearGradient id="linear-gradient-35" x1="11722.06648" y1="329.74632" x2="11698.09862" y2="623.81343" gradientTransform="matrix(-1, 0, 0, 1, 12598.80851, 0)" gradientUnits="userSpaceOnUse">
      <stop offset="0.00005" stop-color="#ffcb48"/>
      <stop offset="1" stop-color="#e68e2b"/>
    </linearGradient>
    <linearGradient id="linear-gradient-36" x1="11997.39704" y1="164.9063" x2="12076.06076" y2="456.20789" xlink:href="#linear-gradient-35"/>
    <linearGradient id="linear-gradient-37" x1="11710.56006" y1="560.79723" x2="11947.64191" y2="597.22543" gradientTransform="matrix(-1, 0, 0, 1, 12370.05889, 0)" xlink:href="#linear-gradient-8"/>
    <linearGradient id="linear-gradient-38" x1="11710.27197" y1="562.67216" x2="11947.35382" y2="599.10035" gradientTransform="matrix(-1, 0, 0, 1, 12370.05889, 0)" xlink:href="#linear-gradient-8"/>
    <linearGradient id="linear-gradient-39" x1="11610.75759" y1="545.65492" x2="11936.9677" y2="545.65492" gradientTransform="matrix(-1, 0, 0, 1, 12370.05889, 0)" xlink:href="#linear-gradient-10"/>
    <linearGradient id="linear-gradient-40" x1="11663.14814" y1="370.4871" x2="11935.46381" y2="523.96326" gradientTransform="matrix(-1, 0, 0, 1, 12370.05889, 0)" xlink:href="#linear-gradient-8"/>
    <linearGradient id="linear-gradient-41" x1="11745.45212" y1="429.6874" x2="11865.93389" y2="577.49031" gradientTransform="matrix(-1, 0, 0, 1, 12370.05889, 0)" xlink:href="#linear-gradient-8"/>
    <linearGradient id="linear-gradient-42" x1="11549.06696" y1="655.60923" x2="11678.65578" y2="755.33887" gradientTransform="matrix(-1, 0, 0, 1, 12370.05889, 0)" xlink:href="#linear-gradient-8"/>
    <linearGradient id="linear-gradient-43" x1="11498.04119" y1="662.78001" x2="11615.68634" y2="740.41387" gradientTransform="matrix(-1, 0, 0, 1, 12370.05889, 0)" xlink:href="#linear-gradient-10"/>
    <linearGradient id="linear-gradient-44" x1="11483.56482" y1="689.10683" x2="11693.871" y2="689.10683" gradientTransform="matrix(-1, 0, 0, 1, 12370.05889, 0)" xlink:href="#linear-gradient-3"/>
    <linearGradient id="linear-gradient-45" x1="11544.65106" y1="580.73872" x2="11816.96673" y2="734.21488" gradientTransform="matrix(-1, 0, 0, 1, 12370.05889, 0)" xlink:href="#linear-gradient-8"/>
    <linearGradient id="linear-gradient-46" x1="11627.97879" y1="432.88875" x2="11900.29446" y2="586.3649" gradientTransform="matrix(-1, 0, 0, 1, 12370.05889, 0)" xlink:href="#linear-gradient-8"/>
    <linearGradient id="linear-gradient-47" x1="11527.37641" y1="509.61581" x2="11999.44996" y2="832.99067" gradientTransform="matrix(-1, 0, 0, 1, 12370.05889, 0)" xlink:href="#linear-gradient-10"/>
    <linearGradient id="linear-gradient-48" x1="11587.96686" y1="539.90211" x2="11806.53602" y2="713.68251" gradientTransform="matrix(-1, 0, 0, 1, 12370.05889, 0)" xlink:href="#linear-gradient-8"/>
    <linearGradient id="linear-gradient-49" x1="11510.97422" y1="533.56029" x2="11983.04777" y2="856.93515" gradientTransform="matrix(-1, 0, 0, 1, 12370.05889, 0)" xlink:href="#linear-gradient-10"/>
    <linearGradient id="linear-gradient-50" x1="11570.83996" y1="561.44316" x2="11789.40912" y2="735.22356" gradientTransform="matrix(-1, 0, 0, 1, 12370.05889, 0)" xlink:href="#linear-gradient-8"/>
    <linearGradient id="linear-gradient-51" x1="11485.99253" y1="570.0294" x2="11958.06608" y2="893.40427" gradientTransform="matrix(-1, 0, 0, 1, 12370.05889, 0)" xlink:href="#linear-gradient-10"/>
    <linearGradient id="linear-gradient-52" x1="11553.70927" y1="582.98898" x2="11772.27843" y2="756.76938" gradientTransform="matrix(-1, 0, 0, 1, 12370.05889, 0)" xlink:href="#linear-gradient-8"/>
    <linearGradient id="linear-gradient-53" x1="11673.80251" y1="295.85805" x2="12145.87606" y2="619.23291" gradientTransform="matrix(-1, 0, 0, 1, 12370.05889, 0)" xlink:href="#linear-gradient-10"/>
    <linearGradient id="linear-gradient-54" x1="11754.29526" y1="330.70557" x2="11972.86442" y2="504.48597" gradientTransform="matrix(-1, 0, 0, 1, 12370.05889, 0)" xlink:href="#linear-gradient-8"/>
    <linearGradient id="linear-gradient-55" x1="11657.40031" y1="319.80253" x2="12129.47386" y2="643.17739" gradientTransform="matrix(-1, 0, 0, 1, 12370.05889, 0)" xlink:href="#linear-gradient-10"/>
    <linearGradient id="linear-gradient-56" x1="11737.16836" y1="352.24662" x2="11955.73752" y2="526.02701" gradientTransform="matrix(-1, 0, 0, 1, 12370.05889, 0)" xlink:href="#linear-gradient-8"/>
    <linearGradient id="linear-gradient-57" x1="11632.41862" y1="356.27165" x2="12104.49217" y2="679.64651" gradientTransform="matrix(-1, 0, 0, 1, 12370.05889, 0)" xlink:href="#linear-gradient-10"/>
    <linearGradient id="linear-gradient-58" x1="11720.03767" y1="373.79244" x2="11938.60683" y2="547.57284" gradientTransform="matrix(-1, 0, 0, 1, 12370.05889, 0)" xlink:href="#linear-gradient-8"/>
    <linearGradient id="linear-gradient-59" x1="11491.99081" y1="509.06238" x2="11597.69229" y2="737.18648" gradientTransform="matrix(-1, 0, 0, 1, 12370.05889, 0)" xlink:href="#linear-gradient-10"/>
    <linearGradient id="linear-gradient-60" x1="11481.58275" y1="457.65699" x2="11940.45706" y2="457.65699" gradientTransform="matrix(-1, 0, 0, 1, 12370.05889, 0)" xlink:href="#linear-gradient-3"/>
    <linearGradient id="linear-gradient-61" x1="11493.56033" y1="448.19379" x2="11936.09949" y2="448.19379" gradientTransform="matrix(-1, 0, 0, 1, 12370.05889, 0)" xlink:href="#linear-gradient-4"/>
    <linearGradient id="linear-gradient-62" x1="11806.63746" y1="438.92903" x2="11901.26227" y2="438.92903" gradientTransform="matrix(-1, 0, 0, 1, 12469.3617, 0)" gradientUnits="userSpaceOnUse">
      <stop offset="0.00844" stop-color="#ffc63f"/>
      <stop offset="1" stop-color="#e68a23"/>
    </linearGradient>
    <linearGradient id="linear-gradient-63" x1="11826.04358" y1="317.2413" x2="11953.03045" y2="317.2413" gradientTransform="matrix(-1, 0, 0, 1, 12442.3884, 0)" xlink:href="#linear-gradient-8"/>
    <linearGradient id="linear-gradient-64" x1="694.71016" y1="359.23642" x2="606.62559" y2="425.82238" gradientUnits="userSpaceOnUse">
      <stop offset="0" stop-color="#fff"/>
      <stop offset="1" stop-color="#fff" stop-opacity="0"/>
    </linearGradient>
    <linearGradient id="linear-gradient-65" x1="354.31194" y1="283.25401" x2="745.76572" y2="505.40627" gradientUnits="userSpaceOnUse">
      <stop offset="0" stop-color="#fff"/>
      <stop offset="0.56988" stop-color="#fff" stop-opacity="0"/>
    </linearGradient>
    <linearGradient id="linear-gradient-66" x1="237.61114" y1="235.62021" x2="168.33786" y2="355.3555" gradientTransform="translate(532.96285 428.60185) rotate(149.24578)" xlink:href="#linear-gradient-8"/>
    <linearGradient id="linear-gradient-67" x1="216.83251" y1="223.59866" x2="147.55922" y2="343.33395" gradientTransform="translate(-113.9932 134.42878) rotate(-30.75422)" xlink:href="#linear-gradient-8"/>
    <linearGradient id="linear-gradient-68" x1="279.52344" y1="69.86665" x2="218.61073" y2="239.16817" gradientTransform="matrix(1, 0, 0, 1, 0, 0)" xlink:href="#linear-gradient-8"/>
    <linearGradient id="linear-gradient-69" x1="381.42567" y1="115.48247" x2="288.26505" y2="316.13612" gradientTransform="matrix(1, 0, 0, 1, 0, 0)" xlink:href="#linear-gradient-10"/>
    <linearGradient id="linear-gradient-70" x1="286.04778" y1="232.70238" x2="450.04933" y2="232.70238" gradientTransform="translate(355.30601 -202.5536) rotate(56.01956)" xlink:href="#linear-gradient-4"/>
    <linearGradient id="linear-gradient-71" x1="11836.15939" y1="724.61208" x2="11846.47409" y2="724.61208" gradientTransform="matrix(-0.8633, -0.50469, -0.50469, 0.8633, 11158.9743, 6075.22692)" xlink:href="#linear-gradient-8"/>
    <linearGradient id="linear-gradient-72" x1="11851.90079" y1="665.58902" x2="11862.21549" y2="665.58902" gradientTransform="matrix(-0.8633, -0.50469, -0.50469, 0.8633, 11127.03423, 6075.10307)" xlink:href="#linear-gradient-8"/>
    <linearGradient id="linear-gradient-73" x1="11927.10394" y1="750.06245" x2="11937.41864" y2="750.06245" gradientTransform="matrix(-0.8633, -0.50469, -0.50469, 0.8633, 11159.38683, 6124.60459)" xlink:href="#linear-gradient-8"/>
    <linearGradient id="linear-gradient-74" x1="12000.6288" y1="707.71449" x2="12010.94351" y2="707.71449" gradientTransform="matrix(-0.8633, -0.50469, -0.50469, 0.8633, 11127.96358, 6155.92283)" xlink:href="#linear-gradient-8"/>
    <linearGradient id="linear-gradient-75" x1="11954.70534" y1="654.90614" x2="11965.02005" y2="654.90614" gradientTransform="matrix(-0.8633, -0.50469, -0.50469, 0.8633, 11107.58949, 6125.52699)" xlink:href="#linear-gradient-8"/>
    <linearGradient id="linear-gradient-76" x1="11850.94657" y1="657.49607" x2="12000.81562" y2="722.21225" gradientTransform="matrix(-1, 0, 0, 1, 12411.95945, 0)" xlink:href="#linear-gradient-8"/>
    <linearGradient id="linear-gradient-77" x1="11803.67335" y1="574.89018" x2="11924.77965" y2="616.36909" gradientTransform="matrix(-1, 0, 0, 1, 12411.95945, 0)" gradientUnits="userSpaceOnUse">
      <stop offset="0" stop-color="#d4702a"/>
      <stop offset="0.96784" stop-color="#bd451c"/>
    </linearGradient>
    <linearGradient id="linear-gradient-78" x1="460.71796" y1="572.85174" x2="638.77647" y2="572.85174" gradientTransform="matrix(1, 0, 0, 1, 0, 0)" xlink:href="#linear-gradient-8"/>
    <linearGradient id="linear-gradient-79" x1="554.91374" y1="432.45544" x2="494.14778" y2="556.54054" gradientTransform="matrix(1, 0, 0, 1, 0, 0)" xlink:href="#linear-gradient-35"/>
    <linearGradient id="linear-gradient-80" x1="600.84409" y1="454.94808" x2="540.07814" y2="579.03319" gradientTransform="matrix(1, 0, 0, 1, 0, 0)" xlink:href="#linear-gradient-35"/>
    <linearGradient id="linear-gradient-81" x1="11956.79405" y1="489.73446" x2="11994.337" y2="630.8233" gradientTransform="matrix(-1, 0, 0, 1, 12411.95945, 0)" gradientUnits="userSpaceOnUse">
      <stop offset="0" stop-color="#f2883c"/>
      <stop offset="0.16716" stop-color="#e97d35"/>
      <stop offset="0.67368" stop-color="#d26124"/>
      <stop offset="0.96784" stop-color="#c9571e"/>
    </linearGradient>
    <linearGradient id="linear-gradient-82" x1="11939.2811" y1="509.36788" x2="11864.1952" y2="637.43779" gradientTransform="matrix(-1, 0, 0, 1, 12411.95945, 0)" gradientUnits="userSpaceOnUse">
      <stop offset="0" stop-color="#d9652b"/>
      <stop offset="0.96784" stop-color="#ba4b13"/>
    </linearGradient>
    <linearGradient id="linear-gradient-83" x1="555.533" y1="372.78888" x2="540.97981" y2="422.06547" gradientUnits="userSpaceOnUse">
      <stop offset="0.00005" stop-color="#bca9a0"/>
      <stop offset="1" stop-color="#a68f85"/>
    </linearGradient>
    <linearGradient id="linear-gradient-84" x1="11773.98055" y1="508.22712" x2="11785.54142" y2="508.22712" gradientTransform="matrix(-1, 0, 0, 1, 12568.93618, 0)" xlink:href="#linear-gradient-10"/>
    <linearGradient id="linear-gradient-85" x1="11701.68713" y1="464.44591" x2="11798.17168" y2="464.44591" gradientTransform="matrix(-1, 0, 0, 1, 12568.93618, 0)" xlink:href="#linear-gradient-4"/>
    <linearGradient id="linear-gradient-86" x1="11663.89431" y1="454.71487" x2="11788.70566" y2="476.21348" gradientTransform="matrix(-1, 0, 0, 1, 12568.93618, 0)" xlink:href="#linear-gradient-62"/>
    <linearGradient id="linear-gradient-87" x1="11773.98055" y1="488.3162" x2="11785.54142" y2="488.3162" gradientTransform="matrix(-1, 0, 0, 1, 12568.93618, 0)" xlink:href="#linear-gradient-10"/>
  </defs>
  <g>
    <g>
      <polygon class="cls-1" points="530.21 66.823 936.857 301.591 936.857 696.807 530.21 462.017 530.21 66.823"/>
      <polygon class="cls-2" points="530.226 66.823 123.58 301.591 123.58 696.807 530.226 462.017 530.226 66.823"/>
    </g>
    <path class="cls-3" d="M130.59684,708.973,509.17743,927.537a42.10144,42.10144,0,0,0,42.10111-.00062L929.83973,708.96895a14.03381,14.03381,0,0,0,.00017-24.307L551.26214,466.078a42.10142,42.10142,0,0,0-42.10407.00053L130.596,684.666A14.03381,14.03381,0,0,0,130.59684,708.973Z"/>
  </g>
  <g>
    <path class="cls-4" d="M123.57994,492.76461V696.81615a13.88469,13.88469,0,0,0,7.0169,12.15688l26.68172,15.40216H195.591l-9.27993-63.76609-1.08782-7.473-49.48666-339.776Z"/>
    <g>
      <g>
        <g>
          <path class="cls-5" d="M136.42082,681.36026l3.204,3.45107,103.693-59.85784a14.92677,14.92677,0,0,1,14.92634.00043L306.10541,652.583l3.96285-2.94762v7.94991l-.02056-.00428a4.91456,4.91456,0,0,1-2.46431,4.46993L203.27672,722.37a14.927,14.927,0,0,1-14.93619.00535l-49.43184-28.53209a4.91692,4.91692,0,0,1-2.47117-4.4421Z"/>
          <path class="cls-6" d="M138.909,677.16819l104.40861-60.27132a14.92719,14.92719,0,0,1,14.92664.00063l49.336,28.48033a4.97574,4.97574,0,0,1,.00294,8.61643L203.27666,714.31344a14.92722,14.92722,0,0,1-14.9361.00537l-49.43175-28.53219A4.97574,4.97574,0,0,1,138.909,677.16819Z"/>
        </g>
        <path class="cls-7" d="M306.66544,533.88625V648.19519h-.01586a4.71564,4.71564,0,0,1-2.35883,3.96844l-100.23146,57.965a14.38982,14.38982,0,0,1-7.77745,1.91253V585.97162Z"/>
        <g>
          <polygon class="cls-8" points="300.411 547.058 255.1 573.214 255.1 668.972 300.411 642.799 300.411 547.058"/>
          <polygon class="cls-9" points="203.262 603.123 203.262 698.881 248.592 672.708 248.592 576.968 203.262 603.123"/>
          <polygon class="cls-10" points="255.1 609.499 255.101 632.687 260.262 629.707 260.26 606.522 255.1 609.499"/>
          <polygon class="cls-11" points="243.431 616.23 243.433 639.418 248.593 636.438 248.592 613.253 243.431 616.23"/>
        </g>
        <path class="cls-12" d="M196.28184,585.97162V712.04113a14.34842,14.34842,0,0,1-6.58223-1.91253L142.2079,682.71318a4.69067,4.69067,0,0,1-2.35873-3.84091h-.0319V564.45166Z"/>
      </g>
      <g>
        <path class="cls-13" d="M136.42082,553.009l3.204,3.45107,103.693-59.85784a14.92679,14.92679,0,0,1,14.92634.00042l47.86135,27.62907,3.96285-2.94762V529.234l-.02056-.00428a4.91456,4.91456,0,0,1-2.46431,4.46993l-104.30667,60.3191a14.927,14.927,0,0,1-14.93619.00535L138.90869,565.492a4.91692,4.91692,0,0,1-2.47117-4.4421Z"/>
        <path class="cls-14" d="M138.909,548.81685l104.40861-60.27133a14.92721,14.92721,0,0,1,14.92664.00064l49.336,28.48033a4.97574,4.97574,0,0,1,.00294,8.61643L203.27666,585.9621a14.92722,14.92722,0,0,1-14.9361.00537l-49.43175-28.53219A4.97574,4.97574,0,0,1,138.909,548.81685Z"/>
      </g>
      <g>
        <g>
          <g>
            <path class="cls-15" d="M196.28184,342.86765V583.68979a14.34842,14.34842,0,0,1-6.58223-1.91253L142.2079,554.36184a4.69067,4.69067,0,0,1-2.35873-3.84091h-.0319V321.34769Z"/>
            <path class="cls-16" d="M142.20506,317.11628l100.32806-57.91577a14.34378,14.34378,0,0,1,14.34326.00061l47.4078,27.36725a4.78127,4.78127,0,0,1,.00283,8.27968l-100.23,57.96175a14.34382,14.34382,0,0,1-14.35236.00516l-47.49983-27.41708A4.78127,4.78127,0,0,1,142.20506,317.11628Z"/>
          </g>
          <polygon class="cls-17" points="203.267 573.847 300.418 517.704 300.385 306.566 203.267 362.729 203.267 573.847"/>
          <polygon class="cls-18" points="203.267 521.264 253.503 492.233 253.477 333.693 203.267 362.729 203.267 521.264"/>
          <polygon class="cls-19" points="203.267 519.635 203.267 573.847 300.418 517.704 253.503 490.604 203.267 519.635"/>
          <g>
            <g>
              <polygon class="cls-20" points="278.428 519.009 254.506 505.217 254.506 471.195 278.429 484.775 278.428 519.009"/>
              <path class="cls-21" d="M278.42856,484.77531l-.0001,34.23388c2.32042,1.27654,10.44866-3.0472,10.3961-5.19914l0-34.15991C288.828,481.59541,280.86319,486.14108,278.42856,484.77531Z"/>
              <path class="cls-22" d="M288.28,478.87165l-23.599-13.47579-10.17465,5.79889,23.9222,13.58055C281.231,486.34739,291.29248,480.681,288.28,478.87165Z"/>
            </g>
            <g>
              <polygon class="cls-23" points="263.035 527.201 239.113 513.409 239.113 479.387 263.035 492.968 263.035 527.201"/>
              <path class="cls-24" d="M263.0348,492.96751l-.0001,34.23389c2.32042,1.27653,10.44866-3.04721,10.3961-5.19915V487.84234C273.43425,489.78762,265.46943,494.33329,263.0348,492.96751Z"/>
              <path class="cls-25" d="M272.88621,487.06385l-23.599-13.47578L239.1126,479.387l23.9222,13.58056C265.83727,494.5396,275.89872,488.87323,272.88621,487.06385Z"/>
            </g>
            <g>
              <polygon class="cls-26" points="228.723 478.078 228.723 479.724 252.547 493.383 252.547 491.036 228.723 478.078"/>
              <path class="cls-25" d="M251.38005,492.65941l-22.66773-12.93507-6.76957,3.90284,22.97149,13.03355C246.36553,497.39324,253.31144,493.806,251.38005,492.65941Z"/>
              <polygon class="cls-20" points="244.093 538.22 220.171 524.427 220.171 482.993 244.093 496.573 244.093 538.22"/>
              <path class="cls-21" d="M244.09349,496.57347l-.0001,41.64605c2.32042,1.27654,10.44866-3.0472,10.3961-5.19914V491.4483C254.49294,493.39357,246.52812,497.93924,244.09349,496.57347Z"/>
              <path class="cls-22" d="M253.9449,490.6698l-23.599-13.47578-1.62268.88362L251.38,491.00644c1.9314,1.14659-5.01444,4.73387-6.46571,4.00132l-22.971-13.03327-1.772,1.01842,23.9222,13.58055C246.896,498.14555,256.95741,492.47918,253.9449,490.6698Z"/>
            </g>
            <g>
              <polygon class="cls-26" points="215.986 485.416 215.986 487.063 239.809 500.722 239.809 498.374 215.986 485.416"/>
              <path class="cls-25" d="M238.64244,499.99809,215.97471,487.063l-6.76957,3.90283,22.97149,13.03355C233.62793,504.73193,240.57383,501.14468,238.64244,499.99809Z"/>
              <polygon class="cls-20" points="231.356 545.558 207.434 531.766 207.434 490.332 231.356 503.912 231.356 545.558"/>
              <path class="cls-21" d="M231.35588,503.91215l-.0001,41.64606c2.32042,1.27654,10.44866-3.0472,10.3961-5.19914V498.787C241.75533,500.73226,233.79051,505.27792,231.35588,503.91215Z"/>
              <path class="cls-22" d="M241.20729,498.00849l-23.599-13.47578-1.62268.88362,22.65672,12.9288c1.9314,1.14659-5.01444,4.73386-6.46571,4.00131l-22.971-13.03326-1.772,1.01841,23.9222,13.58056C234.15835,505.48424,244.2198,499.81787,241.20729,498.00849Z"/>
            </g>
            <g>
              <polygon class="cls-26" points="203.274 496.542 203.274 498.279 207.431 500.647 220.167 507.962 222.518 509.313 222.992 509.576 223.992 510.155 223.992 507.804 220.167 505.734 207.431 498.805 203.274 496.542"/>
              <path class="cls-25" d="M203.274,498.27883v7.7362l4.1573,2.3506,8.92917,5.06974c.63171.31564,2.29814-.17559,3.807-.94735,1.85915-.91223,3.49046-2.21034,2.82406-2.91186a.766.766,0,0,0-.17559-.14048l-.263-.15782-2.38551-1.35078L207.43131,500.647Z"/>
              <polygon class="cls-20" points="203.274 506.383 203.274 547.923 215.536 554.993 215.536 513.348 207.431 508.752 203.274 506.383"/>
              <path class="cls-21" d="M215.53272,513.34616l-.0001,41.64606c2.32043,1.27654,10.44867-3.0472,10.3961-5.19914V508.221C225.93218,510.16627,217.96735,514.71194,215.53272,513.34616Z"/>
              <path class="cls-22" d="M203.274,494.82284v1.80691l4.1573,2.36837,12.73613,7.27987,2.64847,1.50882c.579.3332.36832.89468-.263,1.491l-.03512.03491a10.48248,10.48248,0,0,1-2.35039,1.52638c-1.52638.7542-3.17525,1.263-3.807.94735l-8.92917-5.07-4.1573-2.35061v2.01741l4.1573,2.36816,8.10473,4.59607a.61582.61582,0,0,0,.24583.10535,1.47089,1.47089,0,0,0,.29808.0878,7.91315,7.91315,0,0,0,4.08749-.68439c2.77139-1.06984,5.631-3.0699,5.75348-4.45559v-.17538a.95964.95964,0,0,0-.54391-.78953l-5.20957-2.9821-12.73613-7.26252Z"/>
            </g>
          </g>
          <path class="cls-27" d="M203.26671,498.98718v7.76154l93.85724-54.273a1.581,1.581,0,0,0,.79709-1.3043l.01036-7.6477a1.60491,1.60491,0,0,1-.80745,1.20081Z"/>
          <path class="cls-28" d="M297.124,441.90879,253.54307,416.838l-50.27635,29.06676v53.08244L297.124,444.72451A1.62332,1.62332,0,0,0,297.124,441.90879Z"/>
          <g>
            <g>
              <path class="cls-26" d="M267.67457,391.77733c-3.73392,1.11653-6.5137,2.43941-5.908,4.49522l20.96786,41.73115,5.42995,3.08084a.44716.44716,0,0,0,.66783-.38892l0-36.37282a.546.546,0,0,0-.27272-.47266Z"/>
              <path class="cls-25" d="M262.20263,397.02379l19.65925,11.21832,5.8711-3.38485-19.92269-11.30373C266.55161,392.91824,260.52758,396.02938,262.20263,397.02379Z"/>
              <polygon class="cls-24" points="287.73 440.301 281.866 443.687 281.652 408.367 287.733 404.857 287.73 440.301"/>
              <path class="cls-21" d="M260.05051,396.18738l19.52809,11.15114a3.365,3.365,0,0,1,1.69638,2.92215l0,34.41816-.94142.54652.40909.2336a1.09912,1.09912,0,0,0,1.07069.0108l.32026-.17441a1.15148,1.15148,0,0,0,.60075-1.01124l0-34.935a3.16267,3.16267,0,0,0-1.59518-2.7469l-18.78184-10.71765c-1.737-1.03111,4.50992-4.25752,5.81512-3.59877l19.86471,11.271a1.56958,1.56958,0,0,1,.795,1.36516l0,35.77372a.5236.5236,0,0,1-.66781.389l.118.0669a1.10715,1.10715,0,0,0,1.09789-.003l.66066-.37962a.76734.76734,0,0,0,.38505-.66535l0-35.69035a2.26947,2.26947,0,0,0-1.149-1.97359l-20.36617-11.56182C266.39016,389.46378,257.34106,394.55993,260.05051,396.18738Z"/>
              <path class="cls-20" d="M259.55007,432.888l0,.00263.00006.00237.00054.00122a.89362.89362,0,0,0,.49988.74889l20.283,11.58225a.62934.62934,0,0,0,.94142-.54652l0-34.76194a2.785,2.785,0,0,0-1.39481-2.41318l-20.12036-11.59053-.2068-.45752Z"/>
            </g>
            <g>
              <polygon class="cls-26" points="253.22 395.683 253.22 397.242 275.773 410.173 275.773 407.95 253.22 395.683"/>
              <path class="cls-25" d="M274.66909,409.48743l-21.45984-12.2458-6.40884,3.69487,21.74741,12.339C269.92179,413.969,276.49756,410.57292,274.66909,409.48743Z"/>
              <polygon class="cls-20" points="267.771 452.62 245.123 439.563 245.123 400.336 267.771 413.193 267.771 452.62"/>
              <path class="cls-21" d="M267.77081,413.19292l-.0001,39.42688c2.19678,1.20851,9.89189-2.88483,9.84213-4.9221V408.34086C277.61611,410.18247,270.0757,414.48592,267.77081,413.19292Z"/>
              <path class="cls-22" d="M277.09727,407.60385l-22.34145-12.75771-1.53621.83654L274.669,407.92254c1.82849,1.0855-4.74723,4.48162-6.12117,3.78811l-21.74693-12.33877-1.67758.96415,22.64747,12.85689C270.42394,414.68124,279.94926,409.31681,277.09727,407.60385Z"/>
            </g>
            <g>
              <polygon class="cls-26" points="241.161 402.63 241.161 404.189 263.715 417.12 263.715 414.898 241.161 402.63"/>
              <path class="cls-25" d="M262.61023,416.43506l-21.45984-12.2458-6.40884,3.69487,21.74741,12.339C257.86292,420.91665,264.4387,417.52055,262.61023,416.43506Z"/>
              <polygon class="cls-20" points="255.712 459.567 233.065 446.51 233.065 407.284 255.712 420.141 255.712 459.567"/>
              <path class="cls-21" d="M255.712,420.14056l-.0001,39.42687c2.19678,1.20851,9.89189-2.88483,9.84213-4.9221V415.28849C265.55725,417.13011,258.01684,421.43355,255.712,420.14056Z"/>
              <path class="cls-22" d="M265.0384,414.55148,242.697,401.79378l-1.53621.83654,21.44941,12.23986c1.82848,1.08549-4.74723,4.48161-6.12117,3.7881l-21.74694-12.33877-1.67757.96415L255.712,420.14055C258.36508,421.62887,267.89039,416.26444,265.0384,414.55148Z"/>
            </g>
            <g>
              <polygon class="cls-26" points="226.181 411.562 226.181 413.121 248.735 426.052 248.735 423.829 226.181 411.562"/>
              <path class="cls-25" d="M247.63024,425.36637l-21.45984-12.2458-6.40884,3.69486,21.74741,12.339C242.88293,429.848,249.45871,426.45185,247.63024,425.36637Z"/>
              <polygon class="cls-20" points="240.732 468.499 218.085 455.442 218.085 416.215 240.732 429.072 240.732 468.499"/>
              <path class="cls-21" d="M240.732,429.07186l-.00009,39.42687c2.19678,1.20852,9.89189-2.88482,9.84212-4.9221V424.21979C250.57725,426.06141,243.03685,430.36485,240.732,429.07186Z"/>
              <path class="cls-22" d="M250.05841,423.48278,227.717,410.72508l-1.53622.83654,21.44942,12.23986c1.82848,1.08549-4.74723,4.48161-6.12117,3.7881l-21.74694-12.33876-1.67757.96414L240.732,429.07185C243.38509,430.56017,252.9104,425.19574,250.05841,423.48278Z"/>
            </g>
          </g>
          <g>
            <polygon class="cls-23" points="225.662 476.537 203.835 463.952 203.835 432.909 225.662 445.301 225.662 476.537"/>
            <path class="cls-24" d="M225.66241,445.30067l-.00009,31.23626c2.11724,1.16476,9.53375-2.78038,9.48579-4.74389l0-31.16876C235.15126,442.39922,227.88386,446.54685,225.66241,445.30067Z"/>
            <path class="cls-25" d="M234.6512,439.914l-21.53256-12.2958-9.28373,5.29112,21.8275,12.3914C228.21949,446.7351,237.39993,441.56489,234.6512,439.914Z"/>
          </g>
          <g>
            <polygon class="cls-23" points="203.274 446.968 203.274 478.105 213.185 483.824 213.185 452.599 203.274 446.968"/>
            <path class="cls-24" d="M213.19136,452.59163l-.00009,31.23626c2.11724,1.16476,9.53375-2.78038,9.48579-4.7439V447.91523C222.68021,449.69017,215.41281,453.83781,213.19136,452.59163Z"/>
            <path class="cls-25" d="M203.274,436.42479V446.9677l9.91121,5.63122c2.56153,1.42081,11.7361-3.73673,8.99941-5.3856Z"/>
          </g>
          <g>
            <path class="cls-29" d="M203.26671,429.245v7.76155l93.85724-54.273a1.581,1.581,0,0,0,.79709-1.3043l.01036-7.6477a1.60491,1.60491,0,0,1-.80745,1.20081Z"/>
            <path class="cls-30" d="M297.124,372.16665l-43.58088-25.0708-50.27635,29.06676v53.08244L297.124,374.98237A1.62332,1.62332,0,0,0,297.124,372.16665Z"/>
          </g>
          <g>
            <g>
              <polygon class="cls-26" points="262.599 315.699 262.599 317.399 287.2 331.504 287.2 329.08 262.599 315.699"/>
              <path class="cls-25" d="M285.9958,330.75672l-23.40792-13.35745-6.99062,4.03028,23.7216,13.45914C280.81754,335.64513,287.99026,331.94074,285.9958,330.75672Z"/>
              <polygon class="cls-20" points="278.471 377.805 253.768 363.562 253.768 320.775 278.471 334.799 278.471 377.805"/>
              <path class="cls-21" d="M278.47131,334.79858l-.00011,43.006c2.3962,1.31822,10.78985-3.1467,10.73558-5.36891l0-42.92958C289.21034,331.51485,280.98543,336.209,278.47131,334.79858Z"/>
              <path class="cls-22" d="M288.6444,328.70214l-24.36956-13.91582-1.67566.91248,23.39655,13.351c1.99446,1.184-5.17818,4.88845-6.67684,4.132L255.59781,319.7229l-1.82986,1.05166,24.70336,14.024C281.36529,336.422,291.75529,330.5706,288.6444,328.70214Z"/>
            </g>
            <g>
              <polygon class="cls-20" points="262.575 385.967 237.872 371.725 237.872 336.592 262.575 350.616 262.575 385.967"/>
              <path class="cls-21" d="M262.57488,350.61568l-.0001,35.35176c2.39619,1.31822,10.78985-3.14671,10.73557-5.36892V345.32316C273.31392,347.332,265.089,352.02605,262.57488,350.61568Z"/>
              <path class="cls-22" d="M272.748,344.51924l-24.36956-13.91582-10.5069,5.98824,24.70336,14.024C265.46886,352.2391,275.85886,346.3877,272.748,344.51924Z"/>
            </g>
            <g>
              <polygon class="cls-20" points="247.129 393.327 222.426 379.085 222.426 343.952 247.129 357.976 247.129 393.327"/>
              <path class="cls-21" d="M247.12912,357.97555l-.0001,35.35176c2.39619,1.31822,10.78985-3.14671,10.73557-5.36892V352.683C257.86816,354.69182,249.64325,359.38592,247.12912,357.97555Z"/>
              <path class="cls-22" d="M257.30222,351.87911l-24.36956-13.91582-10.50689,5.98824,24.70336,14.024C250.0231,359.599,260.41311,353.74757,257.30222,351.87911Z"/>
            </g>
            <g>
              <path class="cls-26" d="M219.3832,342.26157c-4.07289,1.21789-7.105,2.66086-6.44437,4.90329l22.87128,45.51942,5.92287,3.36052a.48776.48776,0,0,0,.72846-.42424V355.94589a.5955.5955,0,0,0-.29747-.51556Z"/>
              <path class="cls-25" d="M213.41452,347.9843,234.8584,360.221l6.40407-3.69212L219.53124,344.199C218.1583,343.50605,211.58741,346.89962,213.41452,347.9843Z"/>
              <polygon class="cls-24" points="241.259 395.191 234.862 398.884 234.63 360.357 241.262 356.529 241.259 395.191"/>
              <path class="cls-21" d="M211.067,347.072l21.30082,12.16343a3.6705,3.6705,0,0,1,1.85037,3.18742l0,37.54257-1.02689.59613.44623.25481a1.19887,1.19887,0,0,0,1.16788.01177l.34933-.19024a1.256,1.256,0,0,0,.65529-1.103l0-38.10637a3.44976,3.44976,0,0,0-1.74-2.99626l-20.48681-11.69057c-1.89468-1.12472,4.91932-4.644,6.343-3.92547l21.668,12.29412a1.71208,1.71208,0,0,1,.86719,1.48909l0,39.02118a.57113.57113,0,0,1-.72844.42428l.12866.073a1.20768,1.20768,0,0,0,1.19755-.00331l.72064-.41409a.837.837,0,0,0,.42-.72575l0-38.93025a2.47547,2.47547,0,0,0-1.25335-2.15275l-22.215-12.61138C217.98218,339.738,208.11163,345.29677,211.067,347.072Z"/>
              <path class="cls-20" d="M210.52117,387.10418l0,.00287.00006.00258.00059.00133a.97477.97477,0,0,0,.54526.81688l22.12429,12.63366a.68648.68648,0,0,0,1.02689-.59613l0-37.91757a3.03774,3.03774,0,0,0-1.52143-2.63223L210.75,346.77287l-.22557-.49906Z"/>
            </g>
            <g>
              <path class="cls-26" d="M206.86485,352.707c-4.139,1.21881-7.24954,2.66289-6.71071,4.907l20.39864,45.55414,5.74033,3.36308a.5116.5116,0,0,0,.75151-.42456l2.15514-39.70493a.56.56,0,0,0-.26947-.516Z"/>
              <path class="cls-25" d="M200.58532,358.4341l20.77917,12.246,6.60463-3.69493-21.06147-12.33926C205.57235,353.95244,198.81713,357.3486,200.58532,358.4341Z"/>
              <polygon class="cls-24" points="225.866 405.676 219.268 409.372 221.129 370.816 227.969 366.985 225.866 405.676"/>
              <path class="cls-21" d="M198.28739,357.52106l20.64009,12.1727a3.4512,3.4512,0,0,1,1.67723,3.18985l-2.0393,37.57121-1.05927.59658.43239.255a1.19607,1.19607,0,0,0,1.16724.01178l.35967-.19039a1.34337,1.34337,0,0,0,.7152-1.10387l2.06993-38.13543a3.24364,3.24364,0,0,0-1.57724-2.99854l-19.85177-11.6995c-1.83358-1.12557,5.17158-4.64755,6.55623-3.92846L228.378,365.56549a1.60968,1.60968,0,0,1,.78631,1.49023l-2.11967,39.051a.60368.60368,0,0,1-.75148.4246l.1247.073a1.20716,1.20716,0,0,0,1.19773-.00332l.74313-.4144a.89487.89487,0,0,0,.45943-.72631l2.11468-38.95994a2.32743,2.32743,0,0,0-1.13641-2.15439l-21.52991-12.621C205.60092,350.18152,195.42841,355.74453,198.28739,357.52106Z"/>
            </g>
          </g>
          <polygon class="cls-31" points="203.271 487.143 202.872 486.92 196.274 490.729 196.274 495.176 191.971 492.689 174.248 502.937 174.248 539.355 203.271 556.137 203.271 487.143"/>
          <path class="cls-32" d="M196.282,342.86768v240.822a14.38814,14.38814,0,0,0,7.7771-1.91226l100.2316-57.96507a4.71581,4.71581,0,0,0,2.359-3.96863h.01584V290.78223Zm6.98478,19.861,97.118-56.16223.033,211.13739-97.151,56.14318Z"/>
          <path class="cls-20" d="M205.28169,361.56315l13.96486,8.31095a2.85663,2.85663,0,0,1,1.37863,2.63413l-2.06,37.94671a.71987.71987,0,0,1-1.05913.59659l-14.23938-8.3981V362.7285Z"/>
        </g>
        <g>
          <path class="cls-33" d="M136.42082,313.32875l3.204,3.45107,103.693-59.85784a14.92679,14.92679,0,0,1,14.92634.00042l47.86135,27.62907,3.96285-2.94762v7.94991l-.02056-.00428a4.91456,4.91456,0,0,1-2.46431,4.46993l-104.30667,60.3191a14.927,14.927,0,0,1-14.93619.00535l-49.43184-28.53209a4.91692,4.91692,0,0,1-2.47117-4.4421Z"/>
          <path class="cls-34" d="M138.909,309.13659l104.40861-60.27133a14.92721,14.92721,0,0,1,14.92664.00064l49.336,28.48033a4.97574,4.97574,0,0,1,.00294,8.61643L203.27666,346.28184a14.92722,14.92722,0,0,1-14.9361.00537L138.90881,317.755A4.97574,4.97574,0,0,1,138.909,309.13659Z"/>
        </g>
      </g>
    </g>
  </g>
  <ellipse class="cls-4" cx="506.01964" cy="700.57195" rx="110.62812" ry="63.57938"/>
  <path class="cls-4" d="M520.75389,483.01588,842.87061,668.82545a2.836,2.836,0,0,1-.00017,4.912l-116.848,67.45536a8.50787,8.50787,0,0,1-8.50809-.00029L395.40767,555.38878a2.836,2.836,0,0,1,0-4.91189l116.83764-67.461A8.50786,8.50786,0,0,1,520.75389,483.01588Z"/>
  <g>
    <g>
      <g>
        <g>
          <path class="cls-35" d="M921.46178,658.07813,548.0306,442.48765a7.09349,7.09349,0,0,1-3.54689-6.14323V97.36706L921.46178,315.02621Z"/>
          <path class="cls-36" d="M556.30057,117.84484l11.79886-6.80978,353.33982,204.0095V630.79662l-11.79885,6.80979L556.30057,433.60874Z"/>
          <polygon class="cls-37" points="811.592 265.241 811.592 567.382 909.64 623.987 909.639 617.152 817.504 563.973 817.504 268.655 811.592 265.241"/>
          <polygon class="cls-38" points="689.874 194.964 689.892 497.119 787.937 553.726 787.937 546.892 695.804 493.714 695.804 198.367 689.874 194.964"/>
          <polygon class="cls-39" points="568.099 124.654 568.139 426.834 666.218 483.456 666.218 476.622 574.085 423.445 574.085 128.11 568.099 124.654"/>
          <polygon class="cls-40" points="556.301 117.845 556.306 433.614 909.639 637.601 909.64 623.987 568.099 426.811 568.099 124.654 556.301 117.845"/>
          <path class="cls-41" d="M544.48378,97.367V436.34447a7.09353,7.09353,0,0,0,3.54688,6.14324L921.46187,658.078V315.02621ZM787.9366,251.58325V567.33957L678.0408,503.89415V188.1317Zm121.70275,386.018L799.75913,574.165V258.40934L909.63935,321.8518Zm-353.333-519.75651,109.912,63.46085V497.06871l-109.912-63.45465Z"/>
        </g>
        <polygon class="cls-42" points="799.759 574.165 811.592 567.382 811.592 265.241 799.759 258.409 799.759 574.165"/>
        <polygon class="cls-43" points="678.041 503.894 689.874 497.113 689.874 194.964 678.041 188.132 678.041 503.894"/>
      </g>
      <polygon class="cls-44" points="556.306 433.611 568.139 426.834 568.099 124.654 556.306 117.848 556.306 433.611"/>
    </g>
    <g>
      <circle class="cls-45" cx="538.51788" cy="118.86797" r="8.29194"/>
      <path class="cls-46" d="M539.55118,124.72783l364.9035,210.72111,4.0401-6.99766L543.57771,117.72233l-.00184.0032a2.03489,2.03489,0,0,0-2.0075.21387,6.31616,6.31616,0,0,0-2.86622,4.94389A1.98233,1.98233,0,0,0,539.55118,124.72783Z"/>
      <path class="cls-1" d="M547.49346,130.06458A5.453,5.453,0,0,0,550.102,134.984a4.91172,4.91172,0,0,0,2.50341.66549,6.18038,6.18038,0,0,0,3.65915-1.29551l-3.869-2.241a1.21135,1.21135,0,0,1-.54282-.15772,1.38178,1.38178,0,0,1-.43768-.40263c-.6655-.91041-.5253-2.67866.43768-4.34175.91041-1.57569,2.25849-2.556,3.34372-2.556a1.3826,1.3826,0,0,1,.75311.19255l4.34175,2.50362a5.6627,5.6627,0,0,0-2.591-5.55007,5.12926,5.12926,0,0,0-2.50383-.64754,6.32354,6.32354,0,0,0-3.57154,1.19037,9.51787,9.51787,0,0,0-2.80089,3.11633,9.8578,9.8578,0,0,0-1.29552,3.85149C547.511,129.557,547.49346,129.81945,547.49346,130.06458Z"/>
      <path class="cls-1" d="M569.41184,142.73307a5.453,5.453,0,0,0,2.60855,4.91941,4.91175,4.91175,0,0,0,2.50341.6655,6.18039,6.18039,0,0,0,3.65915-1.29552l-3.869-2.241a1.21123,1.21123,0,0,1-.54282-.15772,1.38155,1.38155,0,0,1-.43768-.40263c-.6655-.91041-.5253-2.67865.43768-4.34175.91041-1.57568,2.25849-2.556,3.34372-2.556a1.3826,1.3826,0,0,1,.75311.19256l4.34175,2.50362a5.6627,5.6627,0,0,0-2.591-5.55007,5.12926,5.12926,0,0,0-2.50383-.64754,6.32347,6.32347,0,0,0-3.57154,1.19037,9.51787,9.51787,0,0,0-2.80089,3.11633,9.85757,9.85757,0,0,0-1.29551,3.85149C569.42936,142.22551,569.41184,142.488,569.41184,142.73307Z"/>
      <path class="cls-1" d="M599.02505,159.84914a5.453,5.453,0,0,0,2.60856,4.91941,4.91172,4.91172,0,0,0,2.50341.66549,6.18038,6.18038,0,0,0,3.65915-1.29551l-3.869-2.241a1.21132,1.21132,0,0,1-.54282-.15772,1.38144,1.38144,0,0,1-.43768-.40263c-.6655-.91041-.5253-2.67865.43768-4.34175.9104-1.57569,2.25849-2.556,3.34371-2.556a1.38263,1.38263,0,0,1,.75312.19255l4.34175,2.50363a5.66272,5.66272,0,0,0-2.591-5.55007,5.1292,5.1292,0,0,0-2.50384-.64755,6.32354,6.32354,0,0,0-3.57153,1.19037,9.518,9.518,0,0,0-2.80089,3.11633,9.85785,9.85785,0,0,0-1.29552,3.8515C599.04258,159.34158,599.02505,159.604,599.02505,159.84914Z"/>
      <path class="cls-1" d="M898.48244,332.77267a5.453,5.453,0,0,0,2.60855,4.91941,4.91178,4.91178,0,0,0,2.50341.6655,6.18042,6.18042,0,0,0,3.65916-1.29552l-3.869-2.241a1.21139,1.21139,0,0,1-.54283-.15772,1.38165,1.38165,0,0,1-.43768-.40263c-.66549-.91041-.5253-2.67865.43768-4.34175.91041-1.57569,2.2585-2.556,3.34372-2.556a1.38266,1.38266,0,0,1,.75312.19256l4.34175,2.50362a5.66272,5.66272,0,0,0-2.591-5.55007,5.12919,5.12919,0,0,0-2.50384-.64754,6.32344,6.32344,0,0,0-3.57153,1.19037,9.51779,9.51779,0,0,0-2.8009,3.11633,9.85757,9.85757,0,0,0-1.29551,3.85149C898.5,332.26511,898.48244,332.52755,898.48244,332.77267Z"/>
      <circle class="cls-47" cx="911.44303" cy="334.20035" r="8.29194"/>
    </g>
    <path class="cls-48" d="M903.37511,340.47635a20.069,20.069,0,0,1-11.51,1.45272c-11.23886-2.01434-13.186-14.88311-13.186-14.88311s-6.40135,3.933-11.3287,1.88716c-9.01827-3.74439-10.3611-15.49692-10.3611-15.49692,6.83233,60.58379,19.70007,121.85135,37.10035,183.63246-8.92045,41.18944-14.33893,88.4131-17.87969,138.87224-1.192,13.33527,11.90118,19.16479,21.23211,15.86824-1.17333,9.331,15.86824,11.5659,15.86824,5.36393V504.19Z"/>
    <path class="cls-49" d="M903.09571,503.78027,866.50757,328.51715c.28.13977.54625.29278.84288.41588,4.92731,2.04607,11.32835-1.88695,11.32835-1.88695s.01154.34792.09232.91233Z"/>
    <circle class="cls-1" cx="901.52317" cy="338.92402" r="2.7937"/>
    <path class="cls-1" d="M876.095,319.8347a5.453,5.453,0,0,0,2.60855,4.9194,4.91178,4.91178,0,0,0,2.50341.6655,6.18042,6.18042,0,0,0,3.65916-1.29552l-3.869-2.241a1.21127,1.21127,0,0,1-.54283-.15772,1.38165,1.38165,0,0,1-.43768-.40263c-.66549-.9104-.5253-2.67865.43768-4.34174.91041-1.57569,2.2585-2.556,3.34372-2.556a1.38266,1.38266,0,0,1,.75312.19256l4.34175,2.50362a5.66272,5.66272,0,0,0-2.591-5.55007,5.1293,5.1293,0,0,0-2.50384-.64754,6.32344,6.32344,0,0,0-3.57153,1.19037,9.51779,9.51779,0,0,0-2.8009,3.11633,9.85757,9.85757,0,0,0-1.29551,3.85149C876.11252,319.32713,876.095,319.58957,876.095,319.8347Z"/>
    <circle class="cls-1" cx="879.13572" cy="325.98604" r="2.7937"/>
    <path class="cls-1" d="M854.531,307.38049a5.453,5.453,0,0,0,2.60855,4.91941,4.91177,4.91177,0,0,0,2.50341.66549,6.1804,6.1804,0,0,0,3.65916-1.29551l-3.869-2.241a1.21139,1.21139,0,0,1-.54283-.15772,1.38165,1.38165,0,0,1-.43768-.40263c-.66549-.91041-.5253-2.67865.43768-4.34175.91041-1.57569,2.2585-2.556,3.34372-2.556a1.38265,1.38265,0,0,1,.75312.19255l4.34174,2.50363a5.66267,5.66267,0,0,0-2.591-5.55007,5.12916,5.12916,0,0,0-2.50383-.64755,6.32349,6.32349,0,0,0-3.57153,1.19037,9.51789,9.51789,0,0,0-2.8009,3.11633,9.85766,9.85766,0,0,0-1.29551,3.8515C854.54848,306.87293,854.531,307.13537,854.531,307.38049Z"/>
    <circle class="cls-1" cx="857.73997" cy="313.05855" r="2.7937"/>
    <path class="cls-50" d="M546.80982,439.69265V290.113l5.7017-152.7171c-.609,16.31046,12.947,18.59387,20.3782,14.68266-.2235,15.533,18.66965,18.98522,29.17606,14.99958-7.96478,45.94643-17.38887,93.52492-34.68309,130.895,7.91595,62.89593,10.62986,106.57492,10.62986,161.66672,0,7.41257-19.5559,3.98563-19.5559-10.28086C551.58415,453.0467,546.8089,446.73294,546.80982,439.69265Z"/>
    <circle class="cls-1" cx="552.14957" cy="137.28412" r="2.7937"/>
    <circle class="cls-1" cx="602.06578" cy="166.00049" r="2.7937"/>
    <path class="cls-49" d="M550.35081,448.79826l5.32577-146.01542,2.78006,146.5762C555.177,451.11884,552.38405,450.58574,550.35081,448.79826Z"/>
    <path class="cls-49" d="M561.5165,153.0633a15.20515,15.20515,0,0,0,11.37324-.98475l-17.21316,148.6516Z"/>
    <circle class="cls-1" cx="573.02782" cy="150.02339" r="2.7937"/>
    <path class="cls-49" d="M903.77441,507.2817,897.442,651.80916l-3.17841.73666a17.47186,17.47186,0,0,1-7.69957-.7201Z"/>
    <path class="cls-51" d="M914.47619,503.45448c-6.41811,4.77711-19.15738,2.03928-22.761-6.00169"/>
    <path class="cls-51" d="M569.42442,298.79723c-6.41811,4.7771-21.38111,2.60745-24.94064-6.29514"/>
  </g>
  <g>
    <g>
      <path class="cls-52" d="M427.44476,556.10494V572.0097a2.64631,2.64631,0,0,0,1.33206,2.39768L511.576,622.19424a7.95382,7.95382,0,0,0,3.99617,1.06563V546.30694Z"/>
      <path class="cls-53" d="M515.57215,546.30694v76.95293a7.95363,7.95363,0,0,0,3.99617-1.06563l112.51885-64.95109,4.32919-2.50427a2.66535,2.66535,0,0,0,1.332-2.3311V536.48969l-5.66124.45293Z"/>
      <path class="cls-54" d="M549.60713,484.03078l86.80759,50.104a2.66411,2.66411,0,0,1,0,4.6144L519.56692,606.20836a7.99233,7.99233,0,0,1-7.99222-.00008l-82.80205-47.79144a2.66411,2.66411,0,0,1-.00011-4.61431Z"/>
      <g>
        <polygon class="cls-55" points="432.663 555.024 515.571 602.883 515.571 448.343 432.672 400.49 432.663 555.024"/>
        <polygon class="cls-56" points="632.09 535.613 632.09 381.073 515.571 448.343 515.571 602.883 632.09 535.613"/>
      </g>
    </g>
    <g>
      <path class="cls-57" d="M676.19205,699.55684V715.4616a2.64632,2.64632,0,0,0,1.33206,2.39768l82.79916,47.78686a7.95385,7.95385,0,0,0,3.99617,1.06563V689.75884Z"/>
      <path class="cls-58" d="M764.31944,689.75884v76.95293a7.95361,7.95361,0,0,0,3.99617-1.06563l112.51886-64.95108,4.32918-2.50428a2.66536,2.66536,0,0,0,1.33206-2.3311V679.94159l-5.66124.45294Z"/>
      <path class="cls-59" d="M798.35442,627.48269l86.8076,50.104a2.66411,2.66411,0,0,1,0,4.6144L768.31421,749.66027a7.99235,7.99235,0,0,1-7.99222-.00008L677.52,701.86875a2.66411,2.66411,0,0,1-.00011-4.61432Z"/>
      <g>
        <polygon class="cls-60" points="681.41 698.476 764.318 746.334 764.318 578.577 681.419 530.724 681.41 698.476"/>
        <polygon class="cls-61" points="694.784 551.171 694.781 582.659 506.485 473.947 506.488 442.555 694.784 551.171"/>
        <polygon class="cls-62" points="686.043 583.604 759.685 626.113 759.685 599.771 686.051 557.267 686.043 583.604"/>
        <polygon class="cls-63" points="712.823 584.175 732.905 595.767 732.905 589.808 712.825 578.217 712.823 584.175"/>
        <polygon class="cls-64" points="686.043 618.784 759.685 661.293 759.685 634.951 686.051 592.447 686.043 618.784"/>
        <polygon class="cls-65" points="712.823 619.333 732.905 630.926 732.905 624.967 712.825 613.376 712.823 619.333"/>
        <polygon class="cls-66" points="686.043 690.767 759.685 733.276 759.685 670.132 686.051 627.627 686.043 690.767"/>
        <polygon class="cls-67" points="712.823 654.499 732.905 666.092 732.905 660.133 712.825 648.542 712.823 654.499"/>
        <g>
          <polygon class="cls-68" points="437.296 439.937 510.938 482.446 510.938 456.105 437.304 413.6 437.296 439.937"/>
          <polygon class="cls-69" points="464.076 440.508 484.158 452.101 484.158 446.142 464.078 434.55 464.076 440.508"/>
          <polygon class="cls-70" points="437.296 475.117 510.938 517.626 510.938 491.285 437.304 448.78 437.296 475.117"/>
          <polygon class="cls-71" points="464.076 475.667 484.158 487.259 484.158 481.3 464.078 469.709 464.076 475.667"/>
          <polygon class="cls-72" points="437.296 547.1 510.938 589.61 510.938 526.465 437.304 483.96 437.296 547.1"/>
          <polygon class="cls-73" points="464.076 510.833 484.158 522.425 484.158 516.466 464.078 504.875 464.076 510.833"/>
        </g>
        <polygon class="cls-74" points="880.838 679.065 880.838 511.308 764.318 578.577 764.318 746.334 880.838 679.065"/>
      </g>
    </g>
    <g>
      <path class="cls-75" d="M429.60184,391.44152l7.69149,3.44479,119.13994-68.7971a8.50795,8.50795,0,0,1,8.50873,0L880.90727,508.3504l7.56887-3.40083v9.36267l-.00565-.00262a2.80426,2.80426,0,0,1-1.4122,2.50111L761.63422,589.22527a8.50835,8.50835,0,0,1-8.50792-.00041l-322.107-185.8038a2.80877,2.80877,0,0,1-1.41705-2.46138l-.0004.00041Z"/>
      <path class="cls-76" d="M564.94176,316.626,887.05848,502.43555a2.836,2.836,0,0,1-.00017,4.912L761.63422,579.7619a8.50787,8.50787,0,0,1-8.50809-.00029L431.01948,393.95789a2.836,2.836,0,0,1,0-4.91189l125.4137-72.42A8.50786,8.50786,0,0,1,564.94176,316.626Z"/>
      <polygon class="cls-77" points="662.724 432.385 608.238 466.775 568.099 445.461 622.58 411.083 662.724 432.385"/>
      <polygon class="cls-78" points="673.71 449.44 614.989 475.957 578.186 449.292 636.901 422.786 673.71 449.44"/>
    </g>
  </g>
  <g>
    <g>
      <g>
        <path class="cls-79" d="M581.67952,362.03072l-64.5449-6.74379-.4145,2.10449.31381.054a2.57394,2.57394,0,0,0,.89806,2.3692l13.22791,11.96189a9.10648,9.10648,0,0,0,7.74277,2.28515l40.99208-8.26395a2.04253,2.04253,0,0,0,1.69367-1.6682h0Z"/>
        <path class="cls-23" d="M580.00062,363.6241l-40.99211,8.264a9.10652,9.10652,0,0,1-7.74275-2.28519l-13.22795-11.96186c-1.54629-1.39829-1.10881-3.62448.78739-4.00675l40.99211-8.264a9.10649,9.10649,0,0,1,7.74274,2.28519L580.788,359.61735C582.33429,361.01564,581.89681,363.24183,580.00062,363.6241Z"/>
      </g>
      <path class="cls-79" d="M562.51545,341.78572l-28.49784-1.55891v14.98683l.00073-.00009a1.05663,1.05663,0,0,0,.46148.78556l5.26975,4.03529a3.70756,3.70756,0,0,0,2.77044.81235l19.53383-3.5592a.50982.50982,0,0,0,.45913-.53661l.00248.002Z"/>
    </g>
    <g>
      <path class="cls-79" d="M616.3292,268.08739l-2.95168-2.55351-.00308.00226a1.92609,1.92609,0,0,0-1.47587-.45573L487.73491,287.3345a2.41,2.41,0,0,0-2.1589,2.428l-.00237,72.24162a1.66121,1.66121,0,0,0,.72695,1.23653l-.00061.00047,2.99745,2.58917Z"/>
      <path class="cls-80" d="M614.21125,343.95518,491.49186,365.95605a1.95814,1.95814,0,0,1-2.13391-1.6351l.00233-71.39986a2.38178,2.38178,0,0,1,2.13372-2.39974l122.717-21.99481a1.95816,1.95816,0,0,1,2.13387,1.63508v71.39375A2.38176,2.38176,0,0,1,614.21125,343.95518Z"/>
      <path class="cls-81" d="M604.46844,345.702V291.47841a1.59184,1.59184,0,0,0-1.7346-1.32927L502.971,308.02979a1.93679,1.93679,0,0,0-1.73483,1.95092l-.00134,54.22869Z"/>
      <path class="cls-82" d="M538.44905,324.66254v-16.789a.49288.49288,0,0,0-.53708-.41158l-30.88917,5.53632a.59967.59967,0,0,0-.53715.60405l-.00041,16.79062Z"/>
      <path class="cls-23" d="M614.08855,270.63507v70.05731a.75142.75142,0,0,1-.67173.75528L491.55445,363.29484l.00236-70.06338a.75154.75154,0,0,1,.67144-.75536l121.8603-21.841m1.53341-2.90784a1.57638,1.57638,0,0,0-.71767-.051l-124.16351,22.2539a2.41017,2.41017,0,0,0-2.1589,2.42813L488.57952,364.6a1.93719,1.93719,0,0,0,1.44123,1.60313,1.57555,1.57555,0,0,0,.71767.051l124.16616-22.26035a2.40986,2.40986,0,0,0,2.1589-2.42813V269.33044a1.9373,1.9373,0,0,0-1.44152-1.60321Z"/>
    </g>
  </g>
  <g>
    <polygon class="cls-83" points="709.315 375.009 655.158 522.033 506.485 368.624 683.95 350.208 709.315 375.009"/>
    <g>
      <g>
        <g>
          <rect class="cls-23" x="723.10806" y="439.10973" width="50.02505" height="2.10949" transform="translate(-87.03635 676.68524) rotate(-46.28326)"/>
          <ellipse class="cls-79" cx="732.60012" cy="479.66924" rx="25.51526" ry="14.70818"/>
          <ellipse class="cls-84" cx="732.60012" cy="476.67541" rx="25.51526" ry="14.70818"/>
        </g>
        <rect class="cls-24" x="726.18652" y="442.94494" width="50.02505" height="6.32978" transform="translate(-90.24868 681.22621) rotate(-46.3159)"/>
        <path class="cls-23" d="M732.6,455.21934a5.89063,5.89063,0,0,0-5.89054,5.89064v12.0647c0,1.86268,2.61935,3.37268,5.85114,3.37268,3.23092,0,5.8507-1.51,5.8507-3.37268h.07923V461.11A5.89062,5.89062,0,0,0,732.6,455.21934Z"/>
        <path class="cls-24" d="M772.6335,432.42978a3.15489,3.15489,0,0,1-2.42748-1.13322l-59.43641-71.00935a3.16368,3.16368,0,1,1,4.85153-4.06178l59.43642,71.00934a3.16313,3.16313,0,0,1-2.42406,5.195Z"/>
      </g>
      <path class="cls-24" d="M682.97652,373.00431c5.77432,8.07847,15.572,10.97006,21.88382,6.45854s15.02179-19.3674,9.24747-27.44588-23.84635-6.3204-30.15813-1.80888S677.2022,364.92583,682.97652,373.00431Z"/>
      <g>
        <path class="cls-79" d="M703.82306,350.65276l6.43877-4.93641,8.656,11.2904-6.43943,4.93692c-1.79728,1.37792-5.19194-.03257-7.58226-3.15036-2.39026-3.11773-2.87108-6.76218-1.07381-8.1401Z"/>
        <ellipse class="cls-24" cx="714.58978" cy="351.36153" rx="4.1005" ry="7.11341" transform="matrix(0.7936, -0.60843, 0.60843, 0.7936, -66.29228, 507.29962)"/>
      </g>
    </g>
  </g>
  <g>
    <g>
      <path class="cls-85" d="M258.74835,74.45239a193.74482,193.74482,0,1,1-75.66687,15.27027,193.17574,193.17574,0,0,1,75.66687-15.27027m0-17.54223c-117.05676,0-211.95007,94.89331-211.95007,211.95,0,117.05688,94.89331,211.95019,211.95007,211.95019S470.69842,385.917,470.69842,268.86011c0-117.05664-94.89331-211.95-211.95007-211.95Z"/>
      <circle class="cls-1" cx="258.74834" cy="268.8602" r="196.04503"/>
      <path class="cls-86" d="M146.56973,333.97652l-23.7296,20.2098,89.59832,105.20209a196.49858,196.49858,0,0,0,46.3097,5.51686Z"/>
      <path class="cls-87" d="M454.79324,268.86029A195.10992,195.10992,0,0,0,425.22921,165.31L293.05064,329.50616l60.033,111.24081A195.98963,195.98963,0,0,0,454.79324,268.86029Z"/>
      <g>
        <rect class="cls-88" x="202.89369" y="214.04337" width="9.30302" height="147.08852" transform="translate(238.84328 640.86101) rotate(-149.24578)"/>
        <rect class="cls-89" x="171.43199" y="200.91831" width="31.94603" height="147.08852" transform="translate(166.70321 -57.23273) rotate(30.75422)"/>
        <circle class="cls-86" cx="146.82979" cy="353.78025" r="36.1033"/>
        <path class="cls-86" d="M187.977,193.78007h64.07013a0,0,0,0,1,0,0v45.22416a28.80085,28.80085,0,0,1-28.80085,28.80085h-6.46843A28.80085,28.80085,0,0,1,187.977,239.00422V193.78007A0,0,0,0,1,187.977,193.78007Z" transform="translate(148.95786 -80.04793) rotate(30.75423)"/>
      </g>
      <g>
        <path class="cls-90" d="M248.31032,81.41816c-11.54709-7.78288-35.55289,7.63637-53.61858,34.43959s-23.3503,54.84077-11.8032,62.62365l69.81037,63.156L333.047,122.42871Z"/>
        <path class="cls-91" d="M259.57172,159.58769c-38.15432,56.60779-16.514,137.93065,39.39231,175.61216,24.3869,16.43705,75.08657-16.12776,113.2409-72.73555S461.52,146.642,437.13308,130.2049C386.4275,96.02874,297.72605,102.9799,259.57172,159.58769Z"/>
        <ellipse class="cls-92" cx="368.04856" cy="232.70238" rx="123.60584" ry="53.24995" transform="translate(-30.62083 407.83904) rotate(-56.01956)"/>
        <path class="cls-78" d="M370.51463,234.36448a45.60374,45.60374,0,0,0-18.15672-66.9932A278.60809,278.60809,0,0,0,301.60365,242.673a45.60373,45.60373,0,0,0,68.911-8.30852Z"/>
      </g>
    </g>
    <g>
      <circle class="cls-85" cx="82.6332" cy="160.51896" r="62.61491"/>
      <g>
        <rect class="cls-78" x="61.39828" y="151.77967" width="13.59083" height="40.85181" transform="translate(-101.79426 98.65807) rotate(-45)"/>
        <rect class="cls-78" x="87.85913" y="134.43491" width="13.59083" height="61.17246" transform="translate(44.89785 348.63958) rotate(-135)"/>
      </g>
    </g>
  </g>
  <g>
    <g>
      <path class="cls-86" d="M555.89726,618.87041c.67593.03136,13.838-3.80592,14.544,8.65659.32091,5.66487-3.12815,13.62026-8.36072,21.07757-1.82921,2.60694-5.06634,11.92855-8.48948,15.619-3.56008,3.838-13.68167,3.12022-16.35012-1.65584-2.61288-4.6766-1.55776-23.48364-1.55776-23.48364Z"/>
      <path class="cls-86" d="M463.16326,570.07538l62.06394,9.77636,9.08042,70.18288c2.16259,10.75527,23.88109,5.57616,24.85154-4.38845l16.34362-108.82031c2.98713-22.70287-18.58737-36.89169-35.53237-25.30712Z"/>
      <g>
        <g>
          <path class="cls-86" d="M573.2148,714.73246l-.01876.01082-6.18292,3.56972,7.27027,12.59246,6.20433-3.58207-.00044-.00078a3.57112,3.57112,0,0,0,1.5225-3.31808,11.36412,11.36412,0,0,0-5.15733-8.89569,3.65285,3.65285,0,0,0-3.63485-.37768l-.00014-.00024Z"/>
          <ellipse class="cls-93" cx="570.64271" cy="724.61208" rx="4.19772" ry="7.27094" transform="translate(-287.69731 387.04995) rotate(-30.31066)"/>
        </g>
        <g>
          <path class="cls-86" d="M557.4734,655.70939l-.01876.01083-6.18292,3.56971L558.542,671.8824l6.20433-3.58207-.00044-.00078a3.57112,3.57112,0,0,0,1.5225-3.31808,11.36407,11.36407,0,0,0-5.15733-8.89569,3.65283,3.65283,0,0,0-3.63485-.37768l-.00014-.00024Z"/>
          <ellipse class="cls-94" cx="554.90131" cy="665.58902" rx="4.19772" ry="7.27094" transform="translate(-260.06088 371.0371) rotate(-30.31066)"/>
        </g>
        <g>
          <path class="cls-86" d="M482.27025,740.18282l-.01876.01083-6.18292,3.56971,7.27027,12.59247,6.20433-3.58208-.00044-.00077a3.57115,3.57115,0,0,0,1.5225-3.31809,11.36411,11.36411,0,0,0-5.15733-8.89569,3.65285,3.65285,0,0,0-3.63485-.37767l-.00014-.00025Z"/>
          <ellipse class="cls-95" cx="479.69816" cy="750.06245" rx="4.19772" ry="7.27094" transform="translate(-312.97377 344.63033) rotate(-30.31066)"/>
        </g>
        <g>
          <path class="cls-86" d="M408.74538,697.83486l-.01875.01083-6.18292,3.56971,7.27026,12.59247,6.20434-3.58208-.00045-.00077a3.57115,3.57115,0,0,0,1.5225-3.31809,11.36408,11.36408,0,0,0-5.15733-8.89569,3.65285,3.65285,0,0,0-3.63485-.37767l-.00014-.00025Z"/>
          <ellipse class="cls-96" cx="406.1733" cy="707.71449" rx="4.19772" ry="7.27094" transform="translate(-301.65198 301.7343) rotate(-30.31066)"/>
        </g>
        <g>
          <path class="cls-86" d="M454.66885,645.02651l-.01876.01083-6.18292,3.56971,7.27026,12.59247,6.20434-3.58207-.00045-.00078a3.57113,3.57113,0,0,0,1.5225-3.31809,11.36407,11.36407,0,0,0-5.15732-8.89568,3.65285,3.65285,0,0,0-3.63486-.37768l-.00014-.00024Z"/>
          <ellipse class="cls-97" cx="452.09676" cy="654.90614" rx="4.19772" ry="7.27094" transform="translate(-268.72257 317.69251) rotate(-30.31066)"/>
        </g>
        <g>
          <g>
            <path class="cls-86" d="M407.11271,695.52363l72.112-12.95131L454.0294,649.34475a1.2027,1.2027,0,0,1-.25851-.84611l-.00965.002v-6.07754l4.73378,4.49973a3.18938,3.18938,0,0,1,1.34135.73457l38.691,27.74649,56.1817-20.84862,7.7553-2.605v6.072l-.00389.002a1.47546,1.47546,0,0,1-.80179,1.352L515.8538,689.26815l63.09926,21.65916v6.1737l-.01474-.00473a1.24587,1.24587,0,0,1-.32955.87263l-.00092.00112a4.54151,4.54151,0,0,1-4.20683.87485L510.3722,702.76115a26.86419,26.86419,0,0,1-8.87078,2.6229l-14.593,39.06774c-.364.97454-1.98292,1.61137-3.69146,1.45216l-.00352-.00027c-1.58022-.14734-2.71526-.92994-2.74827-1.83206l-.00649.018V738.026l.90926.40113,5.72426-34.38a22.57848,22.57848,0,0,1-3.98688-1.77076,15.28052,15.28052,0,0,1-3.10729-2.34111l-69.30375,3.6514c-1.72115.09069-3.27447-.60976-3.54171-1.59718l-.00027-.00111a1.10071,1.10071,0,0,1-.03107-.30636l-.00853.00074Z"/>
            <path class="cls-98" d="M409.68675,693.78764l67.61884-15.65126a9.26029,9.26029,0,0,1,4.014-6.14L454.0294,643.268c-.69525-.91686-.0343-1.98329,1.50678-2.43105h.00009a4.75034,4.75034,0,0,1,4.3001.74374l33.53394,26.1398A32.70254,32.70254,0,0,1,507.292,669.1969l49.72968-18.55818a5.13784,5.13784,0,0,1,4.48017.07464c1.23064.70619,1.29944,1.84059.15689,2.58618L516.081,675.663a6.90376,6.90376,0,0,1,.43238,5.83646l60.79987,27.91168c1.49982.50238,2.068,1.5905,1.29555,2.48093l-.00092.00112a4.54149,4.54149,0,0,1-4.20683.87485l-65.9867-24.30367a28.23269,28.23269,0,0,1-6.38038,1.65356l-15.12551,48.257c-.364.97453-1.98292,1.61136-3.69146,1.45216l-.00352-.00028c-1.70855-.1593-2.914-1.05938-2.74864-2.05237l6.84484-48.845a22.73968,22.73968,0,0,1-4.20432-1.84513,17.36437,17.36437,0,0,1-1.503-.979l-70.90807,11.40447c-1.72115.09069-3.27447-.60975-3.54171-1.59718l-.00027-.00111C406.885,694.92426,407.99656,693.99275,409.68675,693.78764Z"/>
          </g>
          <path class="cls-86" d="M484.865,678.48837h-.01222l1.525-22.67262h21.64685l1.52821,22.67262h-.01031c.14845,1.92448-1.03036,3.87231-3.567,5.33689-4.8124,2.77845-12.63931,2.76432-17.482-.03159C485.96055,682.33134,484.75889,680.39789,484.865,678.48837Z"/>
          <ellipse class="cls-99" cx="497.20227" cy="655.94795" rx="6.25066" ry="10.82689" transform="translate(-161.43188 1149.58634) rotate(-89.68934)"/>
        </g>
      </g>
      <path class="cls-100" d="M489.93357,654.91053c-.00011-.00725,0-.0144,0-.02166v-7.13942H504.4741v7.16415h-.00089a3.57114,3.57114,0,0,1-2.1123,2.97757,11.36408,11.36408,0,0,1-10.28255-.01853,3.65286,3.65286,0,0,1-2.14451-2.959h-.00028Z"/>
      <g>
        <path class="cls-86" d="M591.70014,675.81945c-4.091,1.48261-6.92832,19.57526-3.19708,24.88062,4.3195,6.14178,15.46155,2.29983,23.64621,2.92281,14.19625,1.08054,20.65924,1.70781,28.90213-5.37144,8.874-7.62123,5.58535-16.88594-4.74178-18.06563-5.26824-.6018-16.60867-2.13372-16.60867-2.13372S594.05891,672.22287,591.70014,675.81945Z"/>
        <path class="cls-101" d="M614.36913,678.74015c1.36035,1.45751,1.71014,7.20983,1.71014,7.20983-9.6196.46642-22.6498.81623-25.43111-2.72741-.9998-1.27384.42013-5.95937.42013-5.95937l.97168-5.19851,19.02545,2.51668Z"/>
      </g>
      <path class="cls-86" d="M638.17062,576.02066l-19.10613,94.69211c-2.16059,13.40473-32.54651,11.3809-32.02642-1.33123l4.46756-69.83731Z"/>
      <path class="cls-102" d="M488.25727,564.97593l17.96365-10.42616a3.56908,3.56908,0,0,1,3.546-.36947l.00658-.00329.028.01645.00309.00165,90.99395,52.53652L503.8,666.09632l-17.55161-99.93545Z"/>
      <g>
        <path class="cls-103" d="M464.97272,524.49921l84.90424,4.97808,1.54019,6.64021,52.40793,1.87258c24,1.36171,38.11608,10.65809,34.34554,38.03058L606.5762,593.945l-68.68009,25.51684v-.00093l-.00037.00093c-26.80652,6.9634-61.3409-7.88366-72.90293-27.8541C457.56027,578.77,461.33428,538.45768,464.97272,524.49921Z"/>
        <path class="cls-104" d="M573.11523,446.23152l-9.58659-7.12028,5.10626-5.61063a16.46515,16.46515,0,0,1,4.96728-3.71574A27.5941,27.5941,0,0,1,577.63777,428.1c2.23575-.61014,8.04978.72222,8.04978.72222,2.9378.57,8.40415,7.55643,4.71868,9.17414l-6.6626,2.47474A106.12807,106.12807,0,0,1,573.11523,446.23152Z"/>
        <path class="cls-86" d="M516.50593,557.30923c-19.82671.655-46.93617-27.82978-46.93617-27.82978l-6.90941,7.51291c1.63542,15.62689,21.09217,35.15233,51.94456,34.133,26.52585-.87653,35.78764-9.28974,38.774-23.50268C549.19249,558.63161,539.56213,556.54744,516.50593,557.30923Z"/>
        <path class="cls-105" d="M554.88122,542.45038c-2.96006,14.28407-17.31728,17.412-37.8824,16.561-33.90191-1.403-51.59049-22.5832-49.43119-38.64534,0,0,19.57742-59.06321,24.36419-70.27017,11.81065-27.65158,22.47722-32.61,34.05525-33.01347,19.25756-.671,42.34743,25.65649,57.34193,35.37486l-6.2187,40.716-19.6925,33.18967Z"/>
        <polygon class="cls-106" points="562.333 492.052 570.742 503.906 574.473 497.618 562.333 492.052"/>
        <path class="cls-104" d="M689.365,489.46792l-6.987-11.38478s13.83358-6.17406,20.70447-5.97036c2.65017.07858,8.66823,4.07717,10.19583,6.45343s3.15364,9.68741-1.522,10.03774l-10.6739-.95062S694.49278,489.72173,689.365,489.46792Z"/>
        <path class="cls-104" d="M581.91591,453.94291l49.35353,28.05286,52.26017-3.99439c9.60149-.27392,5.83543,11.46654,5.83543,11.46654s-36.28664,13.65833-57.15454,14.41914S572.96142,482.512,572.96142,482.512Z"/>
        <path class="cls-107" d="M581.77761,451.497l37.45172,21.98247c11.60031,6.32656-2.67412,41.10539-18.458,35.23769l-35.49948-14.98238C542.33263,483.0241,559.7525,441.7181,581.77761,451.497Z"/>
      </g>
      <g>
        <path class="cls-108" d="M369.73377,462.14069c2.99751-3.726,5.58461-3.73748,6.953-2.88l-.00185-.00781L467.51228,511.696,499.27,623.6058v51.99342l-89.04183-51.41239v-.00165c-1.36452-.74881-2.21722-2.39825-2.21722-4.764,0-42.42716-21.41051-121.89025-38.27749-147.99085A7.00107,7.00107,0,0,1,369.73377,462.14069Z"/>
        <path class="cls-109" d="M602.24442,612.529v-2.5468c0-3.225-2.28235-4.53952-5.07189-2.92118L507.3626,659.19168V657.4913c0-36.56863-22.24581-117.45009-38.91587-144.92931-.85467-1.40885-3.98626-2.60239-7.7615,2.0902a7.00111,7.00111,0,0,0-.00037,9.28963C477.552,550.0422,497.166,628.46928,497.166,670.89646v0c0,4.65847,3.29683,6.55728,7.32629,4.2196L597.16163,621.354A11.32136,11.32136,0,0,0,602.24442,612.529Z"/>
      </g>
    </g>
    <g>
      <g>
        <path class="cls-104" d="M556.93907,426.06552c-10.08175-2.115-16.03444-6.87373-16.78726-16.3048l-1.074-20.93056c-.873-8.2084,6.34232-16.14249,15.94037-16.32406,8.38858-.15868,17.1779,6.60941,17.35819,15.902a187.86753,187.86753,0,0,1-1.07807,20.571C570.15049,418.08074,566.10119,427.98763,556.93907,426.06552Z"/>
        <path class="cls-110" d="M572.3765,388.40814c-.00138-.06713-.01339-.13084-.01556-.19778l-5.78154,5.47829a22.28593,22.28593,0,0,1,5.75834-1.17059h0C572.38609,390.02145,572.3765,388.40814,572.3765,388.40814Z"/>
        <path class="cls-104" d="M533.60636,419.2535l3.13955-10.92072c4.539-8.95825,22.41392,6.25536,20.59782,12.99894L554.173,431.007C546.80835,429.61109,538.253,428.35028,533.60636,419.2535Z"/>
        <path class="cls-111" d="M550.09419,422.42248c-2.81481,1.37778-12.8269-3.18458-15.2729-7.395-9.14452-12.60655-9.76812-28.26489-3.04224-36.30821,7.5867-9.07274,22.57211-9.17186,35.01327-5.35445,9.76711,2.99691,9.43566,8.28524,8.48069,12.12885-.91338,3.6762-2.8047,4.799-5.35686,6.07216s-4.094,5.11068-3.699,7.60345,1.00787,4.46654.72119,6.16287c-.58743,3.476-2.9505,1.86731-2.9505,1.86731l-5.54,6.3973S552.909,421.0447,550.09419,422.42248Z"/>
        <path class="cls-104" d="M561.18972,417.75044c-3.841-.07218-6.97366-5.49615-6.89175-9.85479s3.92468-7.95592,7.18835-5.92926C565.58329,404.5105,565.03078,417.82261,561.18972,417.75044Z"/>
      </g>
      <path class="cls-112" d="M526.08677,419.82861a21.02924,21.02924,0,0,1,6.66735-2.93672c3.65507-.81522,16.98861,5.85607,20.06339,8.68208a29.69241,29.69241,0,0,1,5.10147,6.43083C547.53061,432.42736,529.77353,427.14958,526.08677,419.82861Z"/>
    </g>
  </g>
  <g>
    <g>
      <path class="cls-84" d="M770.76861,487.8639v17.60842a2.05565,2.05565,0,0,0,1.03758,1.795l39.04393,22.57763a4.2252,4.2252,0,0,0,2.07515.54988V487.8639Z"/>
      <path class="cls-23" d="M812.92527,487.8639v42.53091a4.22519,4.22519,0,0,0,2.07514-.54988l51.207-29.59184a2.05567,2.05567,0,0,0,1.03757-1.795V480.84969Z"/>
      <path class="cls-113" d="M866.2125,479.05319l-39.047-22.57362a4.15031,4.15031,0,0,0-4.15441,0l-51.21,29.58784a2.07515,2.07515,0,0,0,0,3.59307l39.047,22.57362a4.15026,4.15026,0,0,0,4.15441,0l51.21-29.58783A2.07515,2.07515,0,0,0,866.2125,479.05319Z"/>
      <path class="cls-114" d="M855.196,484.12537,827.04517,467.8461a3.62479,3.62479,0,0,0-3.62838,0l-41.41953,23.92218a1.8124,1.8124,0,0,0,0,3.13813L810.148,511.18568a3.6248,3.6248,0,0,0,3.62839,0L855.196,487.26349A1.81239,1.81239,0,0,0,855.196,484.12537Z"/>
      <polygon class="cls-115" points="814.239 498.389 808.997 501.434 794.956 493.324 800.212 490.281 814.239 498.389"/>
      <path class="cls-116" d="M825.08828,458.22974a1.84555,1.84555,0,0,1,.92238.24749l38.69909,22.37247-50.86221,29.38677a1.84287,1.84287,0,0,1-1.84468,0L773.3039,487.864,824.166,458.47716a1.84574,1.84574,0,0,1,.9223-.24742m0-2.3074a4.14706,4.14706,0,0,0-2.0772.55723L771.801,486.06741a2.07515,2.07515,0,0,0,0,3.59305l39.047,22.57366a4.15025,4.15025,0,0,0,4.15441,0l51.21006-29.58783a2.07517,2.07517,0,0,0,0-3.59312l-39.047-22.5736a4.14706,4.14706,0,0,0-2.0772-.55723Z"/>
      <path class="cls-117" d="M784.40209,507.39435l9.02959,5.25775a1.01381,1.01381,0,0,0,1.524-.87611v-.96388a2.02762,2.02762,0,0,0-1.00734-1.75221l-9.02959-5.25775a1.0138,1.0138,0,0,0-1.52395.8761v.96389A2.02762,2.02762,0,0,0,784.40209,507.39435Z"/>
    </g>
    <g>
      <path class="cls-84" d="M770.76861,467.953v17.60841a2.05567,2.05567,0,0,0,1.03758,1.795L810.85012,509.934a4.22531,4.22531,0,0,0,2.07515.54988V467.953Z"/>
      <path class="cls-23" d="M812.92527,467.953v42.53091a4.2253,4.2253,0,0,0,2.07514-.54988l51.207-29.59184a2.05568,2.05568,0,0,0,1.03757-1.795V460.93877Z"/>
      <path class="cls-118" d="M866.2125,459.14227l-39.047-22.57362a4.15031,4.15031,0,0,0-4.15441,0l-51.21,29.58783a2.07515,2.07515,0,0,0,0,3.59308l39.047,22.57362a4.15031,4.15031,0,0,0,4.15441,0l51.21-29.58783A2.07515,2.07515,0,0,0,866.2125,459.14227Z"/>
      <path class="cls-119" d="M855.196,464.21445l-28.15078-16.27927a3.62479,3.62479,0,0,0-3.62838,0l-41.41953,23.92218a1.81239,1.81239,0,0,0,0,3.13812L810.148,491.27475a3.6248,3.6248,0,0,0,3.62839,0L855.196,467.35257A1.81239,1.81239,0,0,0,855.196,464.21445Z"/>
      <path class="cls-24" d="M839.25631,464.1605l-2.73785,1.59a2.63,2.63,0,0,1-2.63608.00315L822.35164,459.094a.79557.79557,0,0,1-.00064-1.37747l2.74941-1.59137a2.62993,2.62993,0,0,1,2.63356-.00077l11.52094,6.65938A.79558.79558,0,0,1,839.25631,464.1605Z"/>
      <path class="cls-24" d="M825.08828,438.31882a1.84564,1.84564,0,0,1,.92238.24748l38.69909,22.37247-50.86221,29.38678a1.84287,1.84287,0,0,1-1.84468,0l-38.699-22.37247L824.166,438.56624a1.84574,1.84574,0,0,1,.9223-.24742m0-2.3074a4.14706,4.14706,0,0,0-2.0772.55723L771.801,466.15649a2.07515,2.07515,0,0,0,0,3.59305l39.047,22.57366a4.15025,4.15025,0,0,0,4.15441,0l51.21006-29.58784a2.07516,2.07516,0,0,0,0-3.59311l-39.047-22.5736a4.14706,4.14706,0,0,0-2.0772-.55723Z"/>
      <path class="cls-120" d="M784.40209,487.48342l9.02959,5.25776a1.01381,1.01381,0,0,0,1.524-.87611v-.96388a2.02759,2.02759,0,0,0-1.00734-1.75221l-9.02959-5.25776a1.01381,1.01381,0,0,0-1.52395.87611v.96388A2.02759,2.02759,0,0,0,784.40209,487.48342Z"/>
    </g>
  </g>
</svg>
