<svg id="Layer_1" data-name="Layer 1" xmlns="http://www.w3.org/2000/svg" xmlns:xlink="http://www.w3.org/1999/xlink" viewBox="0 0 1000 1000">
  <defs>
    <style>
      .cls-1 {
        fill: url(#linear-gradient);
      }

      .cls-2 {
        fill: #b8cbd8;
      }

      .cls-3 {
        fill: url(#linear-gradient-2);
      }

      .cls-4, .cls-8 {
        fill: #e2e2e2;
      }

      .cls-5 {
        fill: #d3d3d3;
      }

      .cls-6 {
        fill: #fff;
      }

      .cls-7 {
        fill: #f2f2f2;
      }

      .cls-8 {
        opacity: 0.2;
      }

      .cls-9 {
        fill: #a55444;
      }

      .cls-10 {
        fill: #a0674a;
      }

      .cls-11 {
        fill: #c16c56;
      }

      .cls-12 {
        fill: url(#linear-gradient-3);
      }

      .cls-13 {
        fill: url(#linear-gradient-4);
      }

      .cls-14 {
        opacity: 0.7;
      }

      .cls-15 {
        fill: #5a9137;
      }

      .cls-16 {
        fill: #6b483c;
      }

      .cls-17 {
        fill: url(#linear-gradient-5);
      }

      .cls-18 {
        fill: #366d26;
      }

      .cls-19 {
        fill: #9bb0c4;
      }

      .cls-20 {
        fill: url(#linear-gradient-6);
      }

      .cls-21 {
        fill: #323f4c;
      }

      .cls-22 {
        fill: #ffbea4;
      }

      .cls-23 {
        fill: url(#linear-gradient-7);
      }

      .cls-24 {
        fill: url(#linear-gradient-8);
      }

      .cls-25 {
        fill: url(#linear-gradient-9);
      }

      .cls-26 {
        fill: #455260;
      }

      .cls-27 {
        fill: url(#linear-gradient-10);
      }

      .cls-28 {
        fill: #303d49;
      }

      .cls-29 {
        fill: #dd7a64;
      }

      .cls-30 {
        fill: url(#linear-gradient-11);
      }

      .cls-31 {
        fill: #dd7b19;
        opacity: 0.6;
      }

      .cls-32 {
        fill: #cc695c;
      }

      .cls-33 {
        fill: url(#linear-gradient-12);
      }

      .cls-34 {
        fill: url(#linear-gradient-13);
      }

      .cls-35 {
        fill: #c96b5f;
      }

      .cls-36 {
        fill: url(#linear-gradient-14);
      }

      .cls-37 {
        fill: url(#linear-gradient-15);
      }
    </style>
    <linearGradient id="linear-gradient" x1="79.31392" y1="441.39641" x2="920.68608" y2="441.39641" gradientUnits="userSpaceOnUse">
      <stop offset="0" stop-color="#e6f4ff"/>
      <stop offset="1" stop-color="#c0e3ff"/>
    </linearGradient>
    <linearGradient id="linear-gradient-2" x1="404.51949" y1="591.76915" x2="891.7282" y2="591.76915" gradientUnits="userSpaceOnUse">
      <stop offset="0.00005" stop-color="#9dcc52"/>
      <stop offset="1" stop-color="#649e3f"/>
    </linearGradient>
    <linearGradient id="linear-gradient-3" x1="58.85493" y1="403.0431" x2="259.53578" y2="594.53246" gradientUnits="userSpaceOnUse">
      <stop offset="0.00005" stop-color="#e6ac72"/>
      <stop offset="1" stop-color="#b3703f"/>
    </linearGradient>
    <linearGradient id="linear-gradient-4" x1="11105.10028" y1="428.16747" x2="11140.82867" y2="498.45282" gradientTransform="matrix(-1, 0, 0, 1, 11660.63416, 0)" gradientUnits="userSpaceOnUse">
      <stop offset="0" stop-color="#67a63f"/>
      <stop offset="0.99995" stop-color="#366d26"/>
    </linearGradient>
    <linearGradient id="linear-gradient-5" x1="653.27508" y1="344.82613" x2="653.27508" y2="552.05655" gradientUnits="userSpaceOnUse">
      <stop offset="0" stop-color="#77bf49"/>
      <stop offset="0.99995" stop-color="#366d26"/>
    </linearGradient>
    <linearGradient id="linear-gradient-6" x1="409.11296" y1="713.63669" x2="595.7328" y2="788.58322" gradientUnits="userSpaceOnUse">
      <stop offset="0.00005" stop-color="#ffcb48"/>
      <stop offset="1" stop-color="#e68e2b"/>
    </linearGradient>
    <linearGradient id="linear-gradient-7" x1="408.06652" y1="691.96499" x2="556.98915" y2="795.65097" xlink:href="#linear-gradient-6"/>
    <linearGradient id="linear-gradient-8" x1="406.06332" y1="721.23043" x2="592.68316" y2="796.17695" xlink:href="#linear-gradient-6"/>
    <linearGradient id="linear-gradient-9" x1="414.50916" y1="682.71151" x2="563.4318" y2="786.39749" xlink:href="#linear-gradient-6"/>
    <linearGradient id="linear-gradient-10" x1="445.48346" y1="314.70226" x2="515.95154" y2="499.55333" xlink:href="#linear-gradient-6"/>
    <linearGradient id="linear-gradient-11" x1="432.00002" y1="319.84236" x2="502.46811" y2="504.69342" xlink:href="#linear-gradient-6"/>
    <linearGradient id="linear-gradient-12" x1="471.72809" y1="304.6974" x2="542.19617" y2="489.54847" xlink:href="#linear-gradient-6"/>
    <linearGradient id="linear-gradient-13" x1="473.10504" y1="311.33825" x2="485.70079" y2="360.18931" gradientUnits="userSpaceOnUse">
      <stop offset="0.00005" stop-color="#bca9a0"/>
      <stop offset="1" stop-color="#a68f85"/>
    </linearGradient>
    <linearGradient id="linear-gradient-14" x1="493.00605" y1="306.20698" x2="505.6018" y2="355.05804" xlink:href="#linear-gradient-13"/>
    <linearGradient id="linear-gradient-15" x1="690.96483" y1="263.34613" x2="839.27943" y2="603.10228" xlink:href="#linear-gradient-5"/>
  </defs>
  <path class="cls-1" d="M79.34318,533.236S76.916,443.92217,116.27249,405.64761s101.191-29.83447,150.323-53.496,68.673-70.454,112.94076-112.54121,137.15895-27.051,188.88842,3.59733,84.58457,73.86257,134.86125,101.30244,124.53069,34.14995,152.89691,43.40629,64.50324,29.24172,64.50324,69.11385V669.09677l-841.3429-3.677Z"/>
  <g>
    <path class="cls-2" d="M86.57347,678.91934l391.659,226.11445a43.5559,43.5559,0,0,0,43.55553-.00064l391.63891-226.118a14.51862,14.51862,0,0,0,.00018-25.14675L521.771,427.63328a43.55584,43.55584,0,0,0-43.55859.00055L86.57262,653.77256A14.51862,14.51862,0,0,0,86.57347,678.91934Z"/>
    <path class="cls-3" d="M891.7282,673.16413l-99.54326,57.45751L404.51949,506.78074l93.46363-53.737v-.127a12.318,12.318,0,0,0,3.793.63515,11.99381,11.99381,0,0,0,3.57516-.5081L854.72384,653.98139v2.48631h.01816a3.99147,3.99147,0,0,0,2.0326,3.46638l22.8124,13.17567a12.27428,12.27428,0,0,0,12.1412.05438Z"/>
    <g>
      <g>
        <g>
          <path class="cls-4" d="M470.90484,269.9714V435.26772h.00682a4.03635,4.03635,0,0,0,2.03569,3.47233l22.81478,13.17422a12.18437,12.18437,0,0,0,6.01856,1.63394V269.9714Z"/>
          <path class="cls-5" d="M501.78069,269.9714V453.54821a12.26059,12.26059,0,0,0,6.23647-1.63394L532.24367,305.1945l.40606-35.2231Z"/>
          <path class="cls-6" d="M472.949,273.44455l22.8112,13.17005a12.255,12.255,0,0,0,12.255,0l22.59233-13.04368a4.085,4.085,0,0,0,0-7.07545l-22.8112-13.17005a12.255,12.255,0,0,0-12.255,0L472.949,266.36911A4.085,4.085,0,0,0,472.949,273.44455Z"/>
        </g>
        <g>
          <polygon class="cls-7" points="877.224 528.55 505.354 314.632 505.354 453.047 858.67 656.243 877.224 528.55"/>
          <polygon class="cls-8" points="839.743 645.329 858.67 656.243 866.594 595.508 866.594 522.419 839.743 506.934 839.743 645.329"/>
          <path class="cls-6" d="M505.35767,314.62762,877.22611,528.54914l25.92537-14.963c-.39834-.27705-.814-.53676-1.24692-.78791L551.38084,311.19864,531.335,299.63009Z"/>
        </g>
        <g>
          <path class="cls-7" d="M854.72783,491.17337V656.46969h.00682a4.03635,4.03635,0,0,0,2.03569,3.47233l22.81478,13.17422a12.18437,12.18437,0,0,0,6.01856,1.63394V491.17337Z"/>
          <path class="cls-4" d="M885.60368,491.17337V674.75018a12.26059,12.26059,0,0,0,6.23647-1.63394l22.59006-13.0449a4.03867,4.03867,0,0,0,2.03569-3.60165h.00682V491.17337Z"/>
          <path class="cls-6" d="M856.772,494.64652l22.8112,13.17005a12.255,12.255,0,0,0,12.255,0l22.59233-13.04368a4.085,4.085,0,0,0,0-7.07545l-22.8112-13.17a12.255,12.255,0,0,0-12.255,0L856.772,487.57108A4.085,4.085,0,0,0,856.772,494.64652Z"/>
        </g>
      </g>
      <g>
        <g>
          <polygon class="cls-7" points="298.885 429.163 497.984 314.632 497.984 453.047 317.44 556.857 298.885 429.163"/>
          <polygon class="cls-8" points="336.366 545.943 317.44 556.857 309.516 496.122 309.516 423.033 336.366 407.548 336.366 545.943"/>
          <path class="cls-6" d="M472.00274,299.63009l-20.04585,11.56855-177.752,102.21348c-.433.25115-.84857.51086-1.24691.7879l25.92537,14.963L497.98006,314.62762Z"/>
        </g>
        <g>
          <path class="cls-7" d="M321.3816,391.78722V557.08354h-.00682a4.03633,4.03633,0,0,1-2.03569,3.47232L296.5243,573.73009a12.18442,12.18442,0,0,1-6.01855,1.63393V391.78722Z"/>
          <path class="cls-4" d="M290.50575,391.78722V575.364a12.26051,12.26051,0,0,1-6.23648-1.63393l-22.59005-13.04491a4.03867,4.03867,0,0,1-2.03569-3.60164h-.00682V391.78722Z"/>
          <path class="cls-6" d="M319.33742,395.26037l-22.8112,13.17005a12.255,12.255,0,0,1-12.255,0l-22.59233-13.04369a4.085,4.085,0,0,1,0-7.07544l22.8112-13.17006a12.255,12.255,0,0,1,12.255,0l22.59233,13.04369A4.085,4.085,0,0,1,319.33742,395.26037Z"/>
        </g>
      </g>
    </g>
    <g>
      <polygon class="cls-9" points="198.1 569.125 141.358 647.033 131.094 641.111 131.094 523.224 198.1 569.125"/>
      <path class="cls-10" d="M280.25334,449.03533,257.7957,479.8567l-59.6954,89.26875-67.00583-45.90168s33.455-37.988,69.44787-58.94527a159.86409,159.86409,0,0,1,26.30428-12.25831c24.58052-8.90646,43.14358-8.90646,43.14358-8.90646Z"/>
      <path class="cls-10" d="M170.74251,500.06383l-3.19227,2.889-10.27911-5.93768c1.0534-.94166,2.12289-1.91528,3.22413-2.873Z"/>
      <path class="cls-11" d="M141.363,529.14646V647.03627l138.89662-80.094V449.04258s-33.11132,0-69.44831,21.15956C174.81531,491.1631,141.363,529.14646,141.363,529.14646Z"/>
      <path class="cls-12" d="M280.25334,449.03533V566.93876l-26.17666,15.09947-3.19227,1.8356L226.304,598.04742l-3.19227,1.83559-24.5965,14.18967-3.19227,1.8355-24.58043,14.17369-3.19227,1.85157-26.19263,15.09938V529.14537a368.34581,368.34581,0,0,1,26.19263-26.19254c1.03743-.95764,2.10691-1.91538,3.19227-2.889a301.81738,301.81738,0,0,1,24.58043-19.77614c1.05351-.76612,2.12289-1.51635,3.19227-2.23453,4.03827-2.79324,8.14035-5.44288,12.29026-7.85306,4.16589-2.42606,8.28395-4.56492,12.30624-6.46433,1.06939-.51077,2.13877-.9896,3.19227-1.46842a160.08429,160.08429,0,0,1,24.58043-8.63514c1.08546-.30327,2.15484-.55861,3.19227-.81395C269.75074,449.03533,280.25334,449.03533,280.25334,449.03533Z"/>
      <path class="cls-10" d="M170.74251,500.06383v130.018l-3.19227,1.85157V502.95283C168.58767,501.99519,169.65715,501.03745,170.74251,500.06383Z"/>
      <path class="cls-10" d="M198.51521,478.05316l-3.19227,2.23453-10.26314-5.9216c1.05351-.75024,2.10691-1.50037,3.1763-2.23463Z"/>
      <path class="cls-10" d="M226.304,462.26735l-3.19227,1.46842-10.24716-5.9217c1.08536-.51067,2.15475-1.00547,3.20815-1.45244Z"/>
      <path class="cls-10" d="M198.51521,478.05316V614.07268l-3.19227,1.8355V480.28769C196.37645,479.52157,197.44583,478.77134,198.51521,478.05316Z"/>
      <path class="cls-10" d="M226.304,462.26735V598.04742l-3.19227,1.83559V463.73577C224.1811,463.225,225.25048,462.74617,226.304,462.26735Z"/>
      <path class="cls-10" d="M254.07668,452.81826v129.22l-3.19227,1.8356V453.63221C251.96987,453.32894,253.03925,453.0736,254.07668,452.81826Z"/>
      <path class="cls-10" d="M254.07668,452.81826l-3.19227.81395-10.26314-5.9216c1.10134-.2873,2.17082-.55871,3.22423-.79807Z"/>
    </g>
    <g>
      <path class="cls-7" d="M143.80055,502.65044V667.94676h-.00682a4.03635,4.03635,0,0,1-2.03569,3.47233l-22.81479,13.17422a12.18433,12.18433,0,0,1-6.01855,1.63394V502.65044Z"/>
      <path class="cls-4" d="M112.9247,502.65044V686.22725a12.26062,12.26062,0,0,1-6.23648-1.63394l-22.59005-13.0449a4.03867,4.03867,0,0,1-2.03569-3.60165h-.00682V502.65044Z"/>
      <path class="cls-6" d="M141.75637,506.12359l-22.8112,13.17005a12.255,12.255,0,0,1-12.255,0L84.09781,506.25a4.085,4.085,0,0,1,0-7.07545l22.8112-13.17005a12.255,12.255,0,0,1,12.255,0l22.59233,13.04369A4.085,4.085,0,0,1,141.75637,506.12359Z"/>
    </g>
    <path class="cls-6" d="M891.7282,658.64551,792.18494,716.103,404.51949,492.26211l10.23566-5.88L792.18494,703.54433,874.814,655.83255l4.773,2.75857a12.27431,12.27431,0,0,0,12.1412.05439Z"/>
    <polygon class="cls-4" points="792.185 716.103 404.519 492.262 404.519 506.781 792.185 730.622 891.728 673.164 891.728 658.646 792.185 716.103"/>
  </g>
  <path class="cls-13" d="M591.31533,506.30422c-4.68427,6.08955-14.74429,9.12317-31.16154,4.12662-9.45777,7.85173-35.13521,7.10959-39.97244-7.7625-8.1194,3.30129-20.52156-5.5319-17.07526-11.78567-14.867,4.12905-27.26915-7.6652-23.21769-16.8447-24.4838-11.43129-9.76181-33.78195,3.1757-32.1313-1.42534-13.78057,11.01918-20.92307,21.19074-13.22748,6.82565-11.71068,28.10562-8.03018,28.00836,7.65782,17.9867-10.49069,39.40051,6.105,30.237,29.03439,8.94042-8.18509,20.18266,1.04961,16.8269,11.10287C594.5736,479.378,595.9996,500.21467,591.31533,506.30422Z"/>
  <g class="cls-14">
    <ellipse class="cls-15" cx="653.27508" cy="582.38767" rx="36.44972" ry="20.94811"/>
  </g>
  <g class="cls-14">
    <ellipse class="cls-15" cx="787.06487" cy="656.24295" rx="48.80084" ry="28.04646"/>
  </g>
  <g>
    <path class="cls-16" d="M659.44335,581.83806V506.72164h-12.3367V581.862h.00563a3.10682,3.10682,0,0,0,1.8153,2.49111,9.64337,9.64337,0,0,0,8.725.01568A3.02657,3.02657,0,0,0,659.44335,581.83806Z"/>
    <path class="cls-17" d="M600.29873,481.59088c0-7.63482,2.4907-14.4736,6.43071-19.14836a37.158,37.158,0,0,1-2.77652-10.67662c-1.16349-10.43154,1.9801-20.00572,7.594-25.70119-.59184-6.63456,1.53105-12.63629,5.61385-15.8413a33.7004,33.7004,0,0,1-.34688-4.81769c0-13.065,7.30838-23.84356,16.719-25.31344-.02043-.42861-.04087-.83692-.04087-1.26566,0-17.94388,8.47212-32.47866,18.90341-32.47866,9.16588,0,16.8007,11.20728,18.53609,26.04832,3.77655,1.87806,6.7163,6.757,7.71657,12.88125,5.30759,3.59276,10.064,10.207,12.65659,18.4951,2.24574,7.22652,2.42915,14.351.91853,20.02615,3.61333,2.61293,6.08334,7.77774,6.08334,13.69773a19.33441,19.33441,0,0,1-2.30654,9.30879v.02044c8.3084,4.59315,12.37077,17.49483,9.14544,31.09052a38.54986,38.54986,0,0,1-6.20594,13.73872c5.16481,6.83865,6.10377,18.02562,1.65365,28.70212a33.61873,33.61873,0,0,1-13.12632,15.882c-4.69508,8.18605-10.69693,13.3916-17.49471,16.33122-4.75663,7.839-12.43233,12.28929-19.72,10.55415-4.75638-1.12288-8.431-4.69533-10.65631-9.53344a34.05523,34.05523,0,0,1-13.63643-8.65553c-8.18605-3.6745-15.47374-12.1055-18.94428-23.23117a40.67273,40.67273,0,0,1-.9594-21.80217A30.31015,30.31015,0,0,1,600.29873,481.59088Z"/>
    <path class="cls-18" d="M705.14492,477.91889a38.43536,38.43536,0,0,1-6.202,13.73637c5.16838,6.84534,6.11026,18.032,1.65381,28.69041a33.55712,33.55712,0,0,1-13.13912,15.89562c-4.68609,8.17753-10.6811,13.3919-17.48059,16.33206-4.75479,7.83306-12.42718,12.28936-19.73167,10.54357-4.75508-1.12553-8.43032-4.68609-10.6584-9.53285a33.79267,33.79267,0,0,1-13.62169-8.66c17.36423,2.78812,27.64156-3.35656,28.162-21.79908,6.68992,3.85669,14.021-2.20364,9.81783-10.51216,14.36884.782,19.74494-17.9855,10.41941-27.45818,15.77685-3.62545,18.70927-24.15237,5.03028-30.23186,9.889-4.94862,14.60759-15.52265,12.81793-31.12267,3.62925,2.61868,6.087,7.78707,6.087,13.69053a19.45118,19.45118,0,0,1-2.29706,9.32606c6.3859,3.51443,10.24508,11.94474,10.24508,21.82207A39.93115,39.93115,0,0,1,705.14492,477.91889Z"/>
  </g>
  <ellipse class="cls-19" cx="470.81896" cy="744.32543" rx="92.12777" ry="52.947"/>
  <g>
    <path class="cls-20" d="M455.71543,705.96419c2.19949,3.449,5.14653,16.57727,2.75934,20.45921-2.67651,4.35245-6.87111,5.135-14.58954,6.72772-7.2035,1.48644-13.27073,12.52016-31.276,8.33733-10.22783-2.376-12.10636-10.8633-7.41154-13.80079l12.94889-7.7097,15.3902-11.1587S453.516,702.51519,455.71543,705.96419Z"/>
    <path class="cls-21" d="M455.71543,702.6183c2.19949,3.449,5.14653,16.57726,2.75934,20.45921-2.67651,4.35244-6.87111,5.135-14.58954,6.72772-7.2035,1.48643-13.27073,12.52015-31.276,8.33732-10.22783-2.376-11.04045-11.01225-6.34563-13.94974l11.883-7.56075,15.3902-11.1587S453.516,699.1693,455.71543,702.6183Z"/>
    <path class="cls-22" d="M415.79815,507.80951c.47372,56.10864,21.67861,192.94095,21.67861,192.94095l-6.823,6.24917c.43569,5.79442,18.30039,3.77079,18.30039,3.77079s5.15842-2.50544,5.2729-5.12168l-.94447-7.43265c-.1545-29.3848,7.38423-60.87249,3.59316-84.81418l3.79107-89.26476Z"/>
    <path class="cls-23" d="M421.01394,714.55318l13.45919-12.68138c2.74841-2.46959,14.21943-1.4785,15.34713,8.49064,0,0-13.54964,7.256-18.68835,8.00331S419.10093,716.55407,421.01394,714.55318Z"/>
    <path class="cls-21" d="M415.79815,507.80951c.56012,66.34211,11.15932,192.33412,11.15932,192.33412,1.14894,13.21594,33.327,11.52643,33.70934,2.78888,1.90918-26.84009,4.50569-60.99378.98567-89.257L458.17419,522.435Z"/>
    <path class="cls-24" d="M518.82253,740.82821s2.13571,11.18508,1.1802,15.11984c-1.192,4.90856-2.78875,6.23621-4.95748,9.1968s-1.86072,12.95121-11.41458,17.79393c-13.05821,6.619-25.29175-2.62571-21.17422-12.93846l7.048-12.17945,9.50513-19.19974C501.447,733.87586,518.29241,731.51566,518.82253,740.82821Z"/>
    <path class="cls-21" d="M518.82253,737.353s1.46264,12.21691.50713,16.15167c-1.192,4.90857-2.73192,6.02645-4.90064,8.987s-1.59809,11.96469-11.152,16.80742c-13.0582,6.619-25.21754-2.015-19.64812-12.44282l5.40587-9.91384,9.97472-21.79655C501.447,730.40066,517.76315,727.91475,518.82253,737.353Z"/>
    <path class="cls-22" d="M472.04494,608.233l28.36312,122.15186.53864,7.62729-1.911,6.31329h12.24043l4.3247-5.38657-1.1005-7.06616s4.45986-61.05132-4.10784-99.65535L508.44453,608.233Z"/>
    <path class="cls-25" d="M494.271,752.47288c-1.71658,3.42451,8.84245,6.79583,13.01273,2.31672s8.31711-15.85074,8.31711-15.85074c-2.49054-8.32112-15.55105-6.42087-16.37207-2.18165Z"/>
    <path class="cls-26" d="M504.63461,515.397l-3.158-54.69288-81.68538-17.71206c-1.45129,11.38322-4.0563,47.40426-3.9931,64.81741l32.07821,48.37408,42.577,180.41232c2.78328,11.90258,31.35523,9.46263,29.79552-8.41236-1.59546-38.41821-3.75024-78.82446-8.05737-107.48681Z"/>
    <path class="cls-27" d="M453.22537,309.3343s-13.67912,36.69223-19.96926,72.48717l40.48782-31.39708,9.76674-31.59991C486.81211,307.24047,456.36173,299.1649,453.22537,309.3343Z"/>
    <ellipse class="cls-28" cx="469.03875" cy="314.82309" rx="6.94247" ry="13.87106" transform="translate(21.13581 659.0525) rotate(-71.41344)"/>
    <path class="cls-29" d="M526.25271,275.37687l-3.019-13.04348s-38.279,12.95836-48.30622,22.7572c-7.39059,7.2223-10.40624,9.87175-16.812,24.40679-2.13757,6.77664,16.74929,16.52463,20.07008,8.93708l7.51509-15.27284C495.812,296.88474,526.25271,275.37687,526.25271,275.37687Z"/>
    <path class="cls-29" d="M544.89491,259.088c-6.54714-1.43077-21.66118,3.24537-21.66118,3.24537l3.01884,13.04346c5.14453.28866,11.67045,1.49309,16.15224-.76834a33.04742,33.04742,0,0,0,9.6507,1.699c2.56093,0,5.06363-1.59349,6.85986-3.10294a3.33993,3.33993,0,0,0,.06853-5.0573C555.5424,265.08249,549.37787,260.06769,544.89491,259.088Z"/>
    <path class="cls-30" d="M483.29078,350.47391c-21.4973-8.598-41.84249,6.68026-48.99456,25.7044-10.22667,32.80324-11.68783,37.7927-16.11337,68.94163,0,12.81972,5.9702,23.33136,14.29788,29.10639,28.39,19.68774,70.46793,12.82731,70.67-3.19149l5.10063-24.766,19.17417-44.84866C518.94406,383.02579,496.46171,355.7417,483.29078,350.47391Z"/>
    <polygon class="cls-31" points="498.023 423.465 505.003 462.039 505.003 462.039 508.252 446.269 511.298 439.143 498.023 423.465"/>
    <path class="cls-21" d="M470.87769,363.92255c-.34516,4.84911,2.89809,8.22312,10.95945,8.79694s17.48041-4.00434,17.82558-8.85345-5.91-9.24526-13.9714-9.81908S471.22286,359.07344,470.87769,363.92255Z"/>
    <path class="cls-29" d="M474.2269,361.21172c-.29912,4.20217,2.51145,7.126,9.49731,7.62331s15.1483-3.47011,15.44742-7.67228-5.12157-8.01182-12.10743-8.50908S474.526,357.00954,474.2269,361.21172Z"/>
    <path class="cls-7" d="M482.37336,345.5115s-14.69643,1.82382-25.37436,8.88107c-13.43745,8.88107-22.59,23.419-25.00215,29.90605s11.73846,19.83695,16.43,11.17856c10.67659-21.9903,22.80044-37.74277,32.99982-41.23906Z"/>
    <path class="cls-32" d="M478.18874,359.50451c-1.4468,9.87234,20.867,6.29168,20.867-.16858l0-15.29875-18.57171-1.33339Z"/>
    <path class="cls-7" d="M495.07177,363.08058c-9.96224,6.523-17.22156,12.24043-23.2455,23.22593-5.85791,10.6827-8.18577,23.61207-8.18577,23.61207-.583,3.99818,23.61207,9.51819,24.35182,4.78808C492.35559,388.50752,503.784,383.08932,507,372.7683s-7.94427-17.57516-7.94427-17.57516S498.98394,360.519,495.07177,363.08058Z"/>
    <g>
      <path class="cls-29" d="M529.34716,408.98155s13.65392,35.64034,16.33345,46.31672.07723,15.29089-9.22859,19.69281c-8.92251,4.22061-34.48607,12.06311-34.48607,12.06311l-5.59883-8.46,27.11081-21.36521-19.139-37.657Z"/>
      <g>
        <path class="cls-29" d="M504.21356,486.071l-5.66531-9.17121-7.13313-.3259a11.062,11.062,0,0,0-7.78958,2.89262l-8.34655,7.63014a2.46913,2.46913,0,0,0-.40614,3.16514l3.63861,5.61507a4.236,4.236,0,0,0,4.31978,1.8628l7.61147-1.39732a14.04648,14.04648,0,0,0,6.47929-3.04421Z"/>
        <path class="cls-29" d="M489.78564,476.64628l-10.1659,1.06878c-2.68918.314-1.71512,3.45039.20335,3.53827l3.61961.52871Z"/>
      </g>
      <path class="cls-33" d="M527.42556,401.42022c3.306,7.1802,12.17256,30.67253,15.06383,38.93617,4.4571,13.7987-25.65957,26.80851-31.31915,14.46809L499.18375,427.1649C490.82982,407.67554,518.23407,383.33512,527.42556,401.42022Z"/>
    </g>
    <g>
      <path class="cls-34" d="M476.75178,312.85269c-6.23009,6.07838-7.30471,17.79367-3.281,21.7511l7.25482-19.3884Z"/>
      <path class="cls-29" d="M479.14263,357.66329c10.30224,1.33067,14.96935-1.152,18.81512-9.8832L506.24137,328.89c3.55454-7.527,1.5792-18.23526-7.5005-21.59244-7.93554-2.93413-18.55075.59495-21.80539,9.38423a189.45022,189.45022,0,0,0-5.79808,19.94679C469.21085,345.67657,469.78014,356.454,479.14263,357.66329Z"/>
      <path class="cls-35" d="M497.72161,326.466c-5.4683-3.3802-14.068-.97894-21.66524-7.21236.53357-1.59871.87911-2.57187.87911-2.57187a14.77115,14.77115,0,0,1,1.8463-3.44982l19.556,9.94912Z"/>
      <path class="cls-36" d="M499.05576,355.19314a92.96925,92.96925,0,0,0,11.15765-11.23087c6.41118-7.45521,8.47434-16.88022,4.64017-24.95936-2.77666-5.85083-8.40367-10.96769-17.51668-12.944-12.17617-2.64057-20.52829,1.75671-20.52829,1.75671s-3.809,2.20558.73269,7.04312a24.07029,24.07029,0,0,0,10.72276,5.87534c3.6664.866,8.64181,3.14175,9.50835,6.21351,1.202,4.26108-3.79889,8.62281-2.5331,12.84408.47765,1.59289,2.88314,1.49355,2.88314,1.49355l.37173,5.17Z"/>
      <path class="cls-29" d="M496.77549,351.01656c3.19206,1.296,7.68876-2.07,9.15945-5.69218s-.42782-7.944-3.83363-7.425C497.8259,338.551,493.58343,349.72052,496.77549,351.01656Z"/>
    </g>
  </g>
  <g>
    <path class="cls-16" d="M800.66391,653.55635V487.9488H773.46547V653.60911h.01241c.04078,1.98688,1.36892,3.97111,4.00214,5.49208,5.32851,3.07609,13.941,3.0916,19.23583.03458C799.37744,657.59884,800.68962,655.57737,800.66391,653.55635Z"/>
    <path class="cls-37" d="M874.232,425.54886a135.09382,135.09382,0,0,0,.29468-18.03176c-1.695-32.88573-14.58838-59.79624-30.4034-66.415.143-.55281.3599-1.07026.46834-1.63761,2.46427-12.836-4.927-24.43092-16.50888-25.89761-.09822-.01218-.19409.00668-.29153-.00432C823.4127,280.7141,806.86375,263.012,787.06473,263.012c-19.38726,0-35.65175,16.98311-40.43256,48.52906-17.257,9.19739-32.36082,36.69529-36.91689,70.79116-.61135,4.57257-.96025,9.05949-1.15591,13.47254A25.9048,25.9048,0,0,0,693.582,414.77083a23.85639,23.85639,0,0,0,2.036,15.327c-7.41323,8.84025-12.06046,21.30579-12.06046,35.16023a59.4614,59.4614,0,0,0,2.39984,16.70533c-7.71027,11.33242-10.9737,27.29162-7.77078,44.29791,3.7907,20.12788,15.69321,36.62183,30.31617,44.69317,9.21193,16.44916,22.06448,25.84183,37.22728,30.9511,9.63234,15.38007,24.54761,25.29216,41.33466,25.29216s31.70311-9.91209,41.33623-25.29216c15.1188-5.09513,27.94463-14.44812,37.15106-30.812,12.36457-4.77413,22.50846-16.56663,25.34834-31.35618a38.66714,38.66714,0,0,0-3.93685-26.34316A70.55453,70.55453,0,0,0,898.213,486.63814C903.1612,460.86311,892.923,437.04355,874.232,425.54886Z"/>
    <path class="cls-18" d="M898.20045,486.65936a69.31407,69.31407,0,0,1-11.26523,26.71446,38.65924,38.65924,0,0,1,3.99029,26.39306c-2.89646,14.74122-13.00342,26.52154-25.36249,31.3495-9.20486,16.35053-22.015,25.68466-37.1432,30.77-9.65591,15.38518-24.59083,25.29844-41.3268,25.29844-16.802,0-31.73611-9.91326-41.392-25.29844-15.12744-5.08531-28.002-14.48387-37.20764-30.96328,38.21976,10.25458,63.52408-6.35221,64.95188-46.60581,30.52366,16.31926,65.30722-8.33414,57.09939-44.35292,27.65662-8.35732,33.95693-49.72024,9.84922-68.87892,20.81113-16.02482,26.98448-46.72121,3.73255-69.97314,15.83623,6.63058,28.71078,33.53834,30.38453,66.43272a139.494,139.494,0,0,1-.25774,18.02429C892.92144,437.02783,903.15728,460.84583,898.20045,486.65936Z"/>
  </g>
</svg>
