<svg id="Layer_1" data-name="Layer 1" xmlns="http://www.w3.org/2000/svg" xmlns:xlink="http://www.w3.org/1999/xlink" viewBox="0 0 1000 1000">
  <defs>
    <style>
      .cls-1 {
        fill: url(#linear-gradient);
      }

      .cls-2 {
        fill: #b8cbd8;
      }

      .cls-21, .cls-3 {
        fill: #fff;
      }

      .cls-4 {
        fill: url(#linear-gradient-2);
      }

      .cls-5 {
        fill: url(#linear-gradient-3);
      }

      .cls-6 {
        fill: url(#linear-gradient-4);
      }

      .cls-7 {
        fill: url(#linear-gradient-5);
      }

      .cls-8 {
        fill: url(#linear-gradient-6);
      }

      .cls-9 {
        fill: url(#linear-gradient-7);
      }

      .cls-10 {
        fill: url(#linear-gradient-8);
      }

      .cls-11, .cls-61 {
        fill: #2a3f5e;
      }

      .cls-11, .cls-60 {
        opacity: 0.2;
      }

      .cls-12 {
        fill: url(#linear-gradient-9);
      }

      .cls-13 {
        fill: url(#linear-gradient-10);
      }

      .cls-14 {
        fill: url(#linear-gradient-11);
      }

      .cls-15 {
        fill: url(#linear-gradient-12);
      }

      .cls-16 {
        fill: url(#linear-gradient-13);
      }

      .cls-17 {
        fill: url(#linear-gradient-14);
      }

      .cls-18 {
        fill: url(#linear-gradient-15);
      }

      .cls-19 {
        fill: url(#linear-gradient-16);
      }

      .cls-20 {
        fill: url(#linear-gradient-17);
      }

      .cls-21, .cls-43, .cls-46, .cls-56 {
        opacity: 0.5;
      }

      .cls-22 {
        fill: url(#linear-gradient-18);
      }

      .cls-23 {
        fill: url(#linear-gradient-19);
      }

      .cls-24 {
        fill: url(#linear-gradient-20);
      }

      .cls-25 {
        fill: #e58630;
      }

      .cls-26 {
        fill: #724133;
      }

      .cls-27 {
        fill: #ffcb48;
      }

      .cls-28 {
        fill: url(#linear-gradient-21);
      }

      .cls-29 {
        fill: url(#linear-gradient-22);
      }

      .cls-30 {
        fill: url(#linear-gradient-23);
      }

      .cls-31 {
        fill: url(#linear-gradient-24);
      }

      .cls-32 {
        fill: url(#linear-gradient-25);
      }

      .cls-33 {
        fill: url(#linear-gradient-26);
      }

      .cls-34 {
        fill: url(#linear-gradient-27);
      }

      .cls-35 {
        fill: url(#linear-gradient-28);
      }

      .cls-36 {
        fill: url(#linear-gradient-29);
      }

      .cls-37 {
        fill: url(#linear-gradient-30);
      }

      .cls-38 {
        fill: #34a521;
      }

      .cls-39, .cls-46 {
        fill: #424a51;
      }

      .cls-40, .cls-52 {
        fill: #333a3d;
      }

      .cls-41 {
        fill: #57646d;
      }

      .cls-42 {
        fill: #abbec9;
      }

      .cls-43 {
        fill: #cfdfe8;
      }

      .cls-44 {
        fill: #a2b8cc;
      }

      .cls-45, .cls-55, .cls-69 {
        fill: none;
        stroke-linecap: round;
      }

      .cls-45 {
        stroke: #c93f53;
        stroke-width: 3.63477px;
      }

      .cls-45, .cls-52, .cls-55, .cls-69 {
        stroke-miterlimit: 10;
      }

      .cls-47 {
        fill: url(#linear-gradient-31);
      }

      .cls-48 {
        fill: url(#linear-gradient-32);
      }

      .cls-49 {
        fill: url(#linear-gradient-33);
      }

      .cls-50 {
        fill: url(#linear-gradient-34);
      }

      .cls-51 {
        fill: url(#linear-gradient-35);
      }

      .cls-52 {
        font-size: 41.98214px;
        stroke: #333a3d;
        stroke-width: 1.55412px;
        font-family: AvenirLTStd-Black, Avenir LT Std;
        font-weight: 800;
      }

      .cls-53 {
        fill: #445263;
      }

      .cls-54 {
        fill: #626f82;
      }

      .cls-55 {
        stroke: #74899e;
        stroke-width: 9.60564px;
      }

      .cls-56 {
        fill: #93a1b2;
      }

      .cls-57 {
        fill: #baccdd;
      }

      .cls-58 {
        fill: #425260;
      }

      .cls-59 {
        fill: url(#linear-gradient-36);
      }

      .cls-62 {
        fill: #86a1b7;
      }

      .cls-63 {
        fill: #74899e;
      }

      .cls-64 {
        fill: #303d49;
      }

      .cls-65 {
        fill: #e5907c;
      }

      .cls-66 {
        fill: #27343d;
      }

      .cls-67 {
        fill: #ffbea4;
      }

      .cls-68 {
        fill: #586d7f;
      }

      .cls-69 {
        stroke: #425260;
        stroke-width: 12.00705px;
      }

      .cls-70 {
        fill: url(#linear-gradient-37);
      }

      .cls-71 {
        fill: #dd7a64;
      }

      .cls-72 {
        fill: url(#linear-gradient-38);
      }

      .cls-73 {
        fill: #dd7b19;
        opacity: 0.6;
      }

      .cls-74 {
        fill: url(#linear-gradient-39);
      }

      .cls-75 {
        fill: url(#linear-gradient-40);
      }

      .cls-76 {
        fill: url(#linear-gradient-41);
      }

      .cls-77 {
        fill: #f2f2f2;
      }

      .cls-78 {
        fill: #cc695c;
      }

      .cls-79 {
        fill: url(#linear-gradient-42);
      }

      .cls-80 {
        fill: url(#linear-gradient-43);
      }
    </style>
    <linearGradient id="linear-gradient" x1="481.7726" y1="393.55996" x2="903.05929" y2="393.55996" gradientUnits="userSpaceOnUse">
      <stop offset="0" stop-color="#f0f9ff"/>
      <stop offset="1" stop-color="#c3d6e6"/>
    </linearGradient>
    <linearGradient id="linear-gradient-2" x1="531.44547" y1="293.79009" x2="569.96728" y2="293.79009" gradientUnits="userSpaceOnUse">
      <stop offset="0" stop-color="#849bb2"/>
      <stop offset="1" stop-color="#5b6f82"/>
    </linearGradient>
    <linearGradient id="linear-gradient-3" x1="563.96027" y1="170.55047" x2="529.44182" y2="419.32137" gradientUnits="userSpaceOnUse">
      <stop offset="0" stop-color="#62778c"/>
      <stop offset="1" stop-color="#435466"/>
    </linearGradient>
    <linearGradient id="linear-gradient-4" x1="594.86598" y1="153.80842" x2="497.72833" y2="439.92298" xlink:href="#linear-gradient-2"/>
    <linearGradient id="linear-gradient-5" x1="823.22994" y1="466.82951" x2="861.75175" y2="466.82951" xlink:href="#linear-gradient-2"/>
    <linearGradient id="linear-gradient-6" x1="854.63478" y1="326.2351" x2="824.90554" y2="586.66328" xlink:href="#linear-gradient-3"/>
    <linearGradient id="linear-gradient-7" x1="887.73907" y1="330.38017" x2="790.52567" y2="603.46144" xlink:href="#linear-gradient-2"/>
    <linearGradient id="linear-gradient-8" x1="60.50214" y1="719.89267" x2="903.05929" y2="719.89267" gradientUnits="userSpaceOnUse">
      <stop offset="0" stop-color="#dae9f2"/>
      <stop offset="0.99337" stop-color="#c4d5e6"/>
    </linearGradient>
    <linearGradient id="linear-gradient-9" x1="-919.26707" y1="577.95713" x2="-794.29294" y2="660.24208" gradientTransform="translate(1162.29787)" gradientUnits="userSpaceOnUse">
      <stop offset="0" stop-color="#fff"/>
      <stop offset="0.94545" stop-color="#fff" stop-opacity="0"/>
    </linearGradient>
    <linearGradient id="linear-gradient-10" x1="72.81956" y1="478.81517" x2="469.47117" y2="478.81517" xlink:href="#linear-gradient-8"/>
    <linearGradient id="linear-gradient-11" x1="151.57179" y1="546.13688" x2="322.50237" y2="546.13688" gradientUnits="userSpaceOnUse">
      <stop offset="0.00005" stop-color="#ffb348"/>
      <stop offset="1" stop-color="#e68e2b"/>
    </linearGradient>
    <linearGradient id="linear-gradient-12" x1="157.99162" y1="304.43016" x2="157.99162" y2="623.94501" gradientUnits="userSpaceOnUse">
      <stop offset="0" stop-color="#5b6f82"/>
      <stop offset="1" stop-color="#849bb2"/>
    </linearGradient>
    <linearGradient id="linear-gradient-13" x1="364.45933" y1="202.00219" x2="364.45933" y2="514.16383" xlink:href="#linear-gradient-12"/>
    <linearGradient id="linear-gradient-14" x1="456.07211" y1="134.38817" x2="456.07211" y2="474.68614" xlink:href="#linear-gradient-12"/>
    <linearGradient id="linear-gradient-15" x1="72.81956" y1="407.96302" x2="469.47118" y2="407.96302" xlink:href="#linear-gradient-3"/>
    <linearGradient id="linear-gradient-16" x1="421.10256" y1="530.86888" x2="421.10256" y2="232.3575" xlink:href="#linear-gradient-3"/>
    <linearGradient id="linear-gradient-17" x1="1144.95104" y1="495.7829" x2="1227.73745" y2="495.7829" gradientTransform="matrix(-1, 0, 0, 1, 1607.44681, 0)" xlink:href="#linear-gradient-2"/>
    <linearGradient id="linear-gradient-18" x1="81.62503" y1="673.55887" x2="164.41144" y2="673.55887" xlink:href="#linear-gradient-3"/>
    <linearGradient id="linear-gradient-19" x1="1443.03536" y1="667.81346" x2="1525.82178" y2="667.81346" gradientTransform="matrix(-1, 0, 0, 1, 1607.44681, 0)" xlink:href="#linear-gradient-2"/>
    <linearGradient id="linear-gradient-20" x1="6055.03742" y1="652.34848" x2="5996.59878" y2="714.35379" gradientTransform="matrix(-1, 0, 0, 1, 6159.06399, 0)" gradientUnits="userSpaceOnUse">
      <stop offset="0.00005" stop-color="#ffcb48"/>
      <stop offset="1" stop-color="#e68e2b"/>
    </linearGradient>
    <linearGradient id="linear-gradient-21" x1="5979.84811" y1="585.68341" x2="6016.0636" y2="605.43732" gradientTransform="matrix(-1, 0, 0, 1, 6159.06399, 0)" gradientUnits="userSpaceOnUse">
      <stop offset="0" stop-color="#f2883c"/>
      <stop offset="0.16716" stop-color="#e97d35"/>
      <stop offset="0.67368" stop-color="#d26124"/>
      <stop offset="0.96784" stop-color="#c9571e"/>
    </linearGradient>
    <linearGradient id="linear-gradient-22" x1="5999.62349" y1="540.64987" x2="6024.49877" y2="588.38847" xlink:href="#linear-gradient-21"/>
    <linearGradient id="linear-gradient-23" x1="6059.22572" y1="616.79035" x2="6029.04614" y2="635.99553" xlink:href="#linear-gradient-21"/>
    <linearGradient id="linear-gradient-24" x1="5979.11542" y1="608.63513" x2="6019.17195" y2="625.27962" xlink:href="#linear-gradient-21"/>
    <linearGradient id="linear-gradient-25" x1="5993.78045" y1="558.83789" x2="6013.90017" y2="595.23629" xlink:href="#linear-gradient-21"/>
    <linearGradient id="linear-gradient-26" x1="6085.7786" y1="567.09031" x2="6035.11349" y2="612.63404" xlink:href="#linear-gradient-21"/>
    <linearGradient id="linear-gradient-27" x1="6057.55467" y1="542.67639" x2="6033.59392" y2="584.56198" xlink:href="#linear-gradient-21"/>
    <linearGradient id="linear-gradient-28" x1="671.05847" y1="151.65544" x2="893.78465" y2="456.5119" xlink:href="#linear-gradient"/>
    <linearGradient id="linear-gradient-29" x1="671.06346" y1="151.66091" x2="893.78471" y2="456.51063" xlink:href="#linear-gradient"/>
    <linearGradient id="linear-gradient-30" x1="599.9992" y1="447.1545" x2="964.98852" y2="447.1545" gradientUnits="userSpaceOnUse">
      <stop offset="0" stop-color="#96b1cc"/>
      <stop offset="1" stop-color="#748ea6"/>
    </linearGradient>
    <linearGradient id="linear-gradient-31" x1="-474.75083" y1="-3161.68093" x2="-437.32104" y2="-3161.68093" gradientTransform="translate(1076.2248 1428.31583) scale(0.85898 0.42013)" xlink:href="#linear-gradient-2"/>
    <linearGradient id="linear-gradient-32" x1="-2703.28766" y1="-119.18911" x2="-2665.85787" y2="-119.18911" gradientTransform="matrix(0.85898, 0, 0, -0.42013, 2885.47627, 49.92006)" xlink:href="#linear-gradient-2"/>
    <linearGradient id="linear-gradient-33" x1="617.23978" y1="90.72919" x2="646.02626" y2="90.72919" xlink:href="#linear-gradient-2"/>
    <linearGradient id="linear-gradient-34" x1="603.88829" y1="102.05662" x2="645.27299" y2="213.18218" xlink:href="#linear-gradient-2"/>
    <linearGradient id="linear-gradient-35" x1="568.59229" y1="176.55593" x2="694.68408" y2="176.55593" xlink:href="#linear-gradient-2"/>
    <linearGradient id="linear-gradient-36" x1="344.96923" y1="664.46228" x2="717.27809" y2="664.46228" xlink:href="#linear-gradient-2"/>
    <linearGradient id="linear-gradient-37" x1="442.10545" y1="787.54882" x2="499.62203" y2="787.54882" gradientUnits="userSpaceOnUse">
      <stop offset="0" stop-color="#62788c"/>
      <stop offset="1" stop-color="#526575"/>
    </linearGradient>
    <linearGradient id="linear-gradient-38" x1="444.07907" y1="375.19899" x2="487.48333" y2="483.19899" gradientTransform="matrix(1, 0, 0, 1, 0, 0)" xlink:href="#linear-gradient-20"/>
    <linearGradient id="linear-gradient-39" x1="463.45599" y1="367.41158" x2="506.86024" y2="475.41158" gradientTransform="matrix(1, 0, 0, 1, 0, 0)" xlink:href="#linear-gradient-20"/>
    <linearGradient id="linear-gradient-40" x1="505.20718" y1="414.12477" x2="505.51019" y2="414.91793" gradientTransform="matrix(1, 0, 0, 1, 0, 0)" xlink:href="#linear-gradient-20"/>
    <linearGradient id="linear-gradient-41" x1="493.21619" y1="355.45122" x2="536.62044" y2="463.45122" gradientTransform="matrix(1, 0, 0, 1, 0, 0)" xlink:href="#linear-gradient-20"/>
    <linearGradient id="linear-gradient-42" x1="457.78346" y1="329.40801" x2="481.6558" y2="370.00376" gradientUnits="userSpaceOnUse">
      <stop offset="0.00005" stop-color="#bca9a0"/>
      <stop offset="1" stop-color="#a68f85"/>
    </linearGradient>
    <linearGradient id="linear-gradient-43" x1="474.26609" y1="319.7154" x2="498.13843" y2="360.31114" xlink:href="#linear-gradient-42"/>
  </defs>
  <g>
    <polygon class="cls-1" points="481.773 67.227 903.059 310.448 903.059 719.893 481.773 476.649 481.773 67.227"/>
    <polygon class="cls-2" points="481.789 67.227 60.502 310.448 60.502 719.893 481.789 476.649 481.789 67.227"/>
  </g>
  <g>
    <g>
      <path class="cls-3" d="M523.08369,141.696l8.36178-4.82605L578.338,163.9127,569.96728,443.736l.00008,6.96969-46.88367-27.0576Z"/>
      <polygon class="cls-4" points="531.445 146.521 531.474 418.847 569.967 441.059 569.967 436.216 535.688 416.445 535.688 148.971 531.445 146.521"/>
      <polygon class="cls-5" points="523.084 141.696 523.088 423.652 569.967 450.706 569.967 441.059 531.445 418.83 531.445 146.521 523.084 141.696"/>
      <path class="cls-6" d="M578.338,163.9127,514.7094,127.18348V425.58692a5.02713,5.02713,0,0,0,2.51342,4.35368l61.1152,35.27271ZM523.08773,423.65181V141.69567l46.87963,27.05877V450.70572Z"/>
    </g>
    <g>
      <path class="cls-3" d="M814.86816,314.73537l8.36178-4.82606,46.89255,27.0428-8.37074,279.82333.00008,6.9697-46.88367-27.05761Z"/>
      <polygon class="cls-7" points="823.23 319.561 823.258 591.886 861.752 614.098 861.752 609.255 827.472 589.484 827.472 322.01 823.23 319.561"/>
      <polygon class="cls-8" points="814.868 314.735 814.872 596.691 861.752 623.745 861.752 614.098 823.23 591.87 823.23 319.561 814.868 314.735"/>
      <path class="cls-9" d="M814.8722,596.69122V314.73509l46.87963,27.05877V623.74514Zm-8.38-296.46723V601.53356l63.63,36.72021V336.954Z"/>
    </g>
  </g>
  <path class="cls-10" d="M67.77192,732.49667l392.21059,226.4329a43.6172,43.6172,0,0,0,43.61687-.00063l392.1905-226.4365a14.53906,14.53906,0,0,0,.00017-25.18216L503.58239,480.8567a43.61721,43.61721,0,0,0-43.61994.00054L67.77107,707.31448A14.53906,14.53906,0,0,0,67.77192,732.49667Z"/>
  <path class="cls-11" d="M318.64115,720.94332,595.61441,560.83638a21.85383,21.85383,0,0,1,21.87551,0l130.30734,75.33514a10.92692,10.92692,0,0,1,0,18.91972L470.824,815.19818a21.85383,21.85383,0,0,1-21.87551,0L318.64115,739.863A10.92692,10.92692,0,0,1,318.64115,720.94332Z"/>
  <polygon class="cls-12" points="111.625 681.919 256.095 812.7 620.271 600.197 423.96 501.661 111.625 681.919"/>
  <g>
    <polygon class="cls-3" points="72.82 341.346 469.471 111.363 469.471 475.614 72.82 704.563 72.82 341.346"/>
    <path class="cls-13" d="M466.78514,368.5111l2.686-4.65235v-6.20556L294.52586,256.64293a26.855,26.855,0,0,0-26.77539-.001L72.81956,369.15709v6.20313l2.68628,4.65381,9.59961-5.541V480.02477L72.8198,487.11656V704.56285L469.47117,475.61363h0L413.01487,443.017V337.4652ZM148.53807,443.41149,95.85154,473.82213V368.27037l52.68653-30.41064Zm63.43261-36.61377-52.68652,30.41064V331.6566L211.97068,301.246ZM275.4033,370.184l-52.68652,30.41113V295.04332L273.123,265.9486a15.83026,15.83026,0,0,1,2.28027-1.07618Zm63.43262,30.00341L286.14939,369.767V264.61119a15.92963,15.92963,0,0,1,3.00342,1.33838l49.68311,28.686Zm63.43286,36.62452L349.582,406.392V300.8402l52.68677,30.42041Z"/>
    <path class="cls-14" d="M153.38127,556.47082l103.3532-59.71518a7.24507,7.24507,0,0,1,7.25227,0l56.70615,32.77495a3.62254,3.62254,0,0,1,0,6.27235l-103.3532,59.71519a7.24512,7.24512,0,0,1-7.25227,0l-56.70615-32.775A3.62254,3.62254,0,0,1,153.38127,556.47082Z"/>
    <polygon class="cls-15" points="164.411 651.68 164.411 302.503 151.572 309.937 151.572 644.191 164.411 651.68"/>
    <polygon class="cls-16" points="370.875 532.525 370.883 182.97 358.036 190.408 358.036 525.035 370.875 532.525"/>
    <polygon class="cls-17" points="462.488 479.647 462.496 129.903 449.648 137.363 449.648 472.157 462.488 479.647"/>
    <polygon class="cls-18" points="469.471 111.363 469.471 475.614 462.472 479.648 462.472 129.938 379.709 177.863 379.709 527.426 370.877 532.519 370.877 182.968 173.234 297.406 173.234 646.612 164.414 651.693 164.414 302.498 81.652 350.436 81.652 699.47 81.455 699.581 72.82 704.563 72.82 341.024 469.471 111.363"/>
    <g>
      <polygon class="cls-19" points="379.709 527.426 379.709 521.107 462.496 475.63 462.496 479.632 379.709 527.426"/>
      <polygon class="cls-20" points="379.709 523.425 379.709 508.495 449.656 468.141 462.496 475.63 379.709 523.425"/>
      <polygon class="cls-21" points="455.793 471.687 455.785 133.823 379.709 177.876 379.709 515.582 455.793 471.687"/>
    </g>
    <g>
      <polygon class="cls-22" points="81.625 699.457 81.625 693.138 164.411 647.661 164.411 651.662 81.625 699.457"/>
      <polygon class="cls-23" points="81.625 695.456 81.625 680.526 151.572 640.171 164.411 647.661 81.625 695.456"/>
      <polygon class="cls-21" points="157.639 643.765 157.631 306.427 81.555 349.942 81.555 687.661 157.639 643.765"/>
    </g>
  </g>
  <g>
    <g>
      <path class="cls-24" d="M97.53,657.76224l67.9345.162-8.59886,53.17606c-.72863,7.71863-11.81722,13.85318-25.4292,13.85318-13.61265,0-24.70056-6.13455-25.4292-13.85318Z"/>
      <ellipse class="cls-25" cx="131.51493" cy="655.37222" rx="34.23529" ry="19.67545"/>
      <path class="cls-26" d="M101.81256,665.14749c5.90828,5.936,17.01095,9.89331,29.70777,9.89331s23.79882-3.95736,29.70777-9.89331c-3.7653-7.365-15.63687-12.7515-29.70777-12.7515S105.57786,657.78244,101.81256,665.14749Z"/>
      <path class="cls-27" d="M131.51487,640.374c17.41889,0,29.55817,7.90429,29.55817,14.99819,0,7.094-12.13928,14.99826-29.55817,14.99826s-29.55817-7.90429-29.55817-14.99826c0-7.0939,12.13927-14.99819,29.55817-14.99819m0-4.67722c-18.90761,0-34.23533,8.80895-34.23533,19.67541s15.32772,19.67548,34.23533,19.67548,34.23532-8.809,34.23532-19.67548-15.32771-19.67541-34.23532-19.67541Z"/>
    </g>
    <path class="cls-28" d="M142.5383,609.60915c16.05015-2.47065,47.63987-12.88506,41.02861-24.79918S146.21015,586.658,142.5383,609.60915Z"/>
    <path class="cls-26" d="M135.49368,659.77405a1.26361,1.26361,0,0,0,1.26416-1.26374c0-34.11454,6.20771-56.35515,20.75771-74.36786a1.26406,1.26406,0,0,0-1.967-1.58814c-14.94291,18.49972-21.319,41.215-21.319,75.956A1.26361,1.26361,0,0,0,135.49368,659.77405Z"/>
    <path class="cls-26" d="M129.82416,659.77405a1.26362,1.26362,0,0,0,1.26416-1.26374c0-32.131,0-76.13677-16.13979-96.11816a1.26406,1.26406,0,0,0-1.967,1.58815C128.56,583.26749,128.56,626.7557,128.56,658.51031A1.26362,1.26362,0,0,0,129.82416,659.77405Z"/>
    <path class="cls-26" d="M129.22985,625.28229a1.26419,1.26419,0,0,0,1.25879-1.16057c2.09661-25.69589,7.66585-43.16051,17.52694-54.961a1.264,1.264,0,1,0-1.93978-1.62116c-10.21232,12.22061-15.96562,30.13509-18.10722,56.37577a1.264,1.264,0,0,0,1.15726,1.3628C129.16092,625.28146,129.19559,625.28229,129.22985,625.28229Z"/>
    <path class="cls-29" d="M134.76133,592.00961c15.20815-11.37982,39.89155-41.34029,26.513-50.00128S125.92553,566.299,134.76133,592.00961Z"/>
    <path class="cls-30" d="M129.22856,637.34018c-12.72465-1.67941-37.17561-11.17711-32.154-20.7039S125.93691,619.26688,129.22856,637.34018Z"/>
    <path class="cls-26" d="M129.77257,645.37676c.03013,0,.06067-.00083.09121-.0033a1.26351,1.26351,0,0,0,1.17089-1.35042c-1.57329-22.01361-11.38362-45.25217-27.09006-47.07474a1.26391,1.26391,0,1,0-.29138,2.511c14.34034,1.66408,23.36073,23.76849,24.85972,44.74371A1.26367,1.26367,0,0,0,129.77257,645.37676Z"/>
    <path class="cls-26" d="M136.02651,643.35774a1.265,1.265,0,0,0,1.25425-1.12095c1.63726-14.29081,14.789-24.44122,21.46593-26.6988a1.26429,1.26429,0,0,0-.80975-2.39542c-7.2069,2.43752-21.40155,13.38943-23.168,28.807a1.26373,1.26373,0,0,0,1.11187,1.39912A1.2454,1.2454,0,0,0,136.02651,643.35774Z"/>
    <path class="cls-31" d="M142.5383,625.91735c13.42919-.14344,40.96041-4.54118,36.94287-15.0691S148.23159,607.55766,142.5383,625.91735Z"/>
    <path class="cls-32" d="M147.37894,596.94444c11.30865-9.16325,29.97408-32.39548,19.474-38.63181S139.85321,577.51871,147.37894,596.94444Z"/>
    <path class="cls-33" d="M121.89455,612.35954c-20.93075-5.60751-59.77207-26.879-49.27283-41.7224S120.35641,581.38324,121.89455,612.35954Z"/>
    <path class="cls-34" d="M124.7855,587.24851c-14.235-10.65165-38.08136-35.69621-25.55891-43.803S133.0559,563.18307,124.7855,587.24851Z"/>
  </g>
  <g>
    <g>
      <circle class="cls-35" cx="782.49382" cy="304.18258" r="201.18409"/>
      <path class="cls-36" d="M983.6843,304.19011a200.91576,200.91576,0,0,1-9.08692,59.93728c-1.308,4.21635-2.762,8.39642-4.36154,12.48553a199.06615,199.06615,0,0,1-21.80861,41.34548c-1.29027,1.90812-2.63512,3.78008-4.01635,5.63385A200.8546,200.8546,0,0,1,782.5,505.37452c-111.11465,0-201.18429-90.08762-201.18429-201.18441,0-111.11487,90.06964-201.18441,201.18429-201.18441C893.59691,103.0057,983.6843,193.07524,983.6843,304.19011Z"/>
      <path class="cls-37" d="M599.9992,388.9422a201.24178,201.24178,0,0,0,364.98932,0Z"/>
      <path class="cls-38" d="M782.49386,104.85031a199.33246,199.33246,0,1,1-140.94918,58.38312,198.02736,198.02736,0,0,1,140.94918-58.38312m0-18.17384c-120.12537,0-217.50614,97.38078-217.50614,217.50614s97.38077,217.506,217.50614,217.506C902.61911,521.68864,1000,424.308,1000,304.18261S902.61911,86.67647,782.49386,86.67647Z"/>
    </g>
    <g>
      <g>
        <g>
          <path class="cls-39" d="M650.84363,180.01145a7.313,7.313,0,0,0-7.266,6.48469l-3.297,28.91871h297.6472l10.563-35.4034Z"/>
          <path class="cls-40" d="M959.05393,215.41485H937.92781l3.297-28.91864a7.31315,7.31315,0,0,1,7.26608-6.48475h0a7.31315,7.31315,0,0,1,7.26608,6.48475Z"/>
        </g>
        <path class="cls-39" d="M926.58752,423.58855H628.9403a9.37679,9.37679,0,0,1-9.31978-10.40916l20.66011-197.76454H937.92781L917.26773,413.17942Z"/>
        <path class="cls-40" d="M974.1071,359.42043a196.65154,196.65154,0,0,1-31.96795,64.17182H926.58224a9.39235,9.39235,0,0,1-9.323-10.4138l20.66342-197.7676h21.1364Z"/>
        <path class="cls-41" d="M959.0591,215.41085H937.9227l-20.66342,197.7676a9.39235,9.39235,0,0,0,9.323,10.4138h15.55691c1.39943-1.85377,2.76246-3.72573,4.07093-5.63385H926.58224a3.73122,3.73122,0,0,1-2.78065-1.23592,3.76945,3.76945,0,0,1-.94463-2.96234L942.99327,221.0448h10.99526l15.82934,151.53358c1.59909-4.32549,3.01715-8.72353,4.28923-13.15795Z"/>
        <path class="cls-42" d="M903.60087,406.51082h-286.311a5.62579,5.62579,0,0,1-5.58379-6.31191l22.94-209.19724a5.62579,5.62579,0,0,1,5.5838-4.93968h286.311a5.62579,5.62579,0,0,1,5.5838,6.3119l-22.94,209.19725A5.62579,5.62579,0,0,1,903.60087,406.51082Z"/>
        <path class="cls-3" d="M895.23863,395.33847H609.0167a5.62579,5.62579,0,0,1-5.54028-6.60294l30.95677-198.0249a5.62579,5.62579,0,0,1,5.54028-4.64864H926.19541a5.62579,5.62579,0,0,1,5.54028,6.60293l-30.95678,198.0249A5.62578,5.62578,0,0,1,895.23863,395.33847Z"/>
        <g>
          <g>
            <g>
              <ellipse class="cls-43" cx="668.94273" cy="232.21119" rx="13.80372" ry="11.7523" transform="translate(19.84041 515.1822) rotate(-42.69792)"/>
              <ellipse class="cls-43" cx="704.5517" cy="232.21119" rx="13.80372" ry="11.7523" transform="translate(29.27895 539.32982) rotate(-42.69792)"/>
              <ellipse class="cls-43" cx="740.16067" cy="232.21119" rx="13.80372" ry="11.7523" transform="translate(38.71749 563.47744) rotate(-42.69792)"/>
              <ellipse class="cls-43" cx="775.76964" cy="232.21119" rx="13.80372" ry="11.7523" transform="translate(48.15603 587.62505) rotate(-42.69792)"/>
              <ellipse class="cls-43" cx="811.37861" cy="232.21119" rx="13.80372" ry="11.7523" transform="translate(57.59458 611.77267) rotate(-42.69792)"/>
              <ellipse class="cls-43" cx="846.98758" cy="232.21119" rx="13.80372" ry="11.7523" transform="translate(67.03312 635.92029) rotate(-42.69792)"/>
              <ellipse class="cls-44" cx="882.59655" cy="232.21119" rx="13.80372" ry="11.7523" transform="translate(76.47166 660.0679) rotate(-42.69792)"/>
            </g>
            <g>
              <ellipse class="cls-43" cx="648.99687" cy="359.9694" rx="13.80372" ry="11.7523" transform="translate(-72.08351 535.51995) rotate(-42.69792)"/>
              <ellipse class="cls-43" cx="684.60584" cy="359.9694" rx="13.80372" ry="11.7523" transform="translate(-62.64497 559.66756) rotate(-42.69792)"/>
              <ellipse class="cls-43" cx="720.21481" cy="359.9694" rx="13.80372" ry="11.7523" transform="translate(-53.20643 583.81518) rotate(-42.69792)"/>
              <ellipse class="cls-43" cx="755.82378" cy="359.9694" rx="13.80372" ry="11.7523" transform="translate(-43.76789 607.9628) rotate(-42.69792)"/>
              <ellipse class="cls-43" cx="791.43275" cy="359.9694" rx="13.80372" ry="11.7523" transform="translate(-34.32935 632.11041) rotate(-42.69792)"/>
              <ellipse class="cls-43" cx="827.04172" cy="359.9694" rx="13.80372" ry="11.7523" transform="translate(-24.89081 656.25803) rotate(-42.69792)"/>
              <ellipse class="cls-44" cx="862.65069" cy="359.9694" rx="13.80372" ry="11.7523" transform="translate(-15.45227 680.40565) rotate(-42.69792)"/>
            </g>
            <g>
              <ellipse class="cls-43" cx="655.65832" cy="317.38333" rx="13.80372" ry="11.7523" transform="translate(-41.4388 528.7494) rotate(-42.69792)"/>
              <ellipse class="cls-43" cx="691.26729" cy="317.38333" rx="13.80372" ry="11.7523" transform="translate(-32.00026 552.89701) rotate(-42.69792)"/>
              <ellipse class="cls-43" cx="726.87626" cy="317.38333" rx="13.80372" ry="11.7523" transform="translate(-22.56172 577.04463) rotate(-42.69792)"/>
              <ellipse class="cls-43" cx="762.48523" cy="317.38333" rx="13.80372" ry="11.7523" transform="translate(-13.12318 601.19225) rotate(-42.69792)"/>
              <ellipse class="cls-43" cx="798.09419" cy="317.38333" rx="13.80372" ry="11.7523" transform="translate(-3.68464 625.33986) rotate(-42.69792)"/>
              <ellipse class="cls-43" cx="833.70316" cy="317.38333" rx="13.80372" ry="11.7523" transform="translate(5.7539 649.48748) rotate(-42.69792)"/>
              <ellipse class="cls-44" cx="869.31213" cy="317.38333" rx="13.80372" ry="11.7523" transform="translate(15.19244 673.6351) rotate(-42.69792)"/>
            </g>
            <g>
              <ellipse class="cls-43" cx="662.29764" cy="274.79726" rx="13.80372" ry="11.7523" transform="translate(-10.79996 521.96385) rotate(-42.69792)"/>
              <ellipse class="cls-43" cx="697.90661" cy="274.79726" rx="13.80372" ry="11.7523" transform="translate(-1.36142 546.11146) rotate(-42.69792)"/>
              <ellipse class="cls-43" cx="733.51558" cy="274.79726" rx="13.80372" ry="11.7523" transform="translate(8.07712 570.25908) rotate(-42.69792)"/>
              <ellipse class="cls-43" cx="769.12455" cy="274.79726" rx="13.80372" ry="11.7523" transform="translate(17.51566 594.4067) rotate(-42.69792)"/>
              <ellipse class="cls-43" cx="804.73352" cy="274.79726" rx="13.80372" ry="11.7523" transform="translate(26.9542 618.55431) rotate(-42.69792)"/>
              <ellipse class="cls-43" cx="840.34249" cy="274.79726" rx="13.80372" ry="11.7523" transform="translate(36.39275 642.70193) rotate(-42.69792)"/>
              <ellipse class="cls-44" cx="875.95146" cy="274.79726" rx="13.80372" ry="11.7523" transform="translate(45.83129 666.84955) rotate(-42.69792)"/>
            </g>
          </g>
          <g>
            <g>
              <polyline class="cls-45" points="803.519 231.252 807.696 236.822 819.238 227.6"/>
              <polyline class="cls-45" points="767.91 231.252 772.087 236.822 783.629 227.6"/>
              <polyline class="cls-45" points="732.301 231.252 736.478 236.822 748.02 227.6"/>
              <polyline class="cls-45" points="696.692 231.252 700.869 236.822 712.411 227.6"/>
              <polyline class="cls-45" points="661.084 231.252 665.26 236.822 676.802 227.6"/>
            </g>
            <g>
              <polyline class="cls-45" points="797 273.719 801.176 279.29 812.718 270.067"/>
              <polyline class="cls-45" points="761.391 273.719 765.567 279.29 777.109 270.067"/>
              <polyline class="cls-45" points="725.782 273.719 729.958 279.29 741.5 270.067"/>
              <polyline class="cls-45" points="690.173 273.719 694.349 279.29 705.891 270.067"/>
              <polyline class="cls-45" points="654.564 273.719 658.74 279.29 670.282 270.067"/>
            </g>
            <g>
              <polyline class="cls-45" points="790.48 316.187 794.656 321.757 806.198 312.535"/>
              <polyline class="cls-45" points="754.871 316.187 759.047 321.757 770.589 312.535"/>
              <polyline class="cls-45" points="719.262 316.187 723.438 321.757 734.98 312.535"/>
              <polyline class="cls-45" points="683.653 316.187 687.829 321.757 699.371 312.535"/>
              <polyline class="cls-45" points="648.044 316.187 652.22 321.757 663.762 312.535"/>
            </g>
            <g>
              <polyline class="cls-45" points="783.96 358.654 788.136 364.224 799.678 355.002"/>
              <polyline class="cls-45" points="748.351 358.654 752.527 364.224 764.069 355.002"/>
              <polyline class="cls-45" points="712.742 358.654 716.918 364.224 728.46 355.002"/>
              <polyline class="cls-45" points="677.133 358.654 681.309 364.224 692.851 355.002"/>
              <polyline class="cls-45" points="641.524 358.654 645.7 364.224 657.242 355.002"/>
            </g>
          </g>
        </g>
      </g>
      <g>
        <g>
          <circle class="cls-46" cx="657.54679" cy="199.52313" r="5.90538"/>
          <path class="cls-40" d="M676.44646,180.015h-7.59529c-1.03142-5.19467-4.257-9.09545-7.9515-9.09545-3.6944,0-6.92008,3.90078-7.9515,9.09545a18.55992,18.55992,0,0,0-.35632,3.582c0,5.6635,2.56923,10.57693,5.96362,12.17105a3.83783,3.83783,0,0,1,2.3442,3.4506,3.75271,3.75271,0,0,1-5.3635,3.37573c-6.09491-2.813-10.44576-10.25827-10.44576-18.99738a24.19146,24.19146,0,0,1,.24381-3.52569c1.31277-9.45188,7.78278-16.65319,15.56545-16.65319C668.66368,163.41808,675.13369,170.582,676.44646,180.015Z"/>
        </g>
        <g>
          <circle class="cls-46" cx="688.31064" cy="199.52313" r="5.90538"/>
          <path class="cls-40" d="M707.21032,180.015H699.615c-1.03143-5.19467-4.257-9.09545-7.9515-9.09545-3.6944,0-6.92008,3.90078-7.9515,9.09545a18.55913,18.55913,0,0,0-.35633,3.582c0,5.6635,2.56257,10.5912,5.96363,12.17105a3.84861,3.84861,0,0,1,2.3442,3.4506,3.75271,3.75271,0,0,1-5.3635,3.37573c-6.09491-2.813-10.44576-10.25827-10.44576-18.99738a24.89879,24.89879,0,0,1,.24381-3.52569c1.353-9.4462,7.78278-16.65319,15.56545-16.65319C699.42754,163.41808,705.89755,170.582,707.21032,180.015Z"/>
        </g>
        <g>
          <circle class="cls-46" cx="719.0745" cy="199.52313" r="5.90538"/>
          <path class="cls-40" d="M737.97418,180.015h-7.59529c-1.03143-5.19467-4.257-9.09545-7.95151-9.09545-3.6944,0-6.92007,3.90078-7.9515,9.09545a18.55992,18.55992,0,0,0-.35632,3.582c0,5.6635,2.56257,10.5912,5.96363,12.17105a3.84862,3.84862,0,0,1,2.34419,3.4506,3.75271,3.75271,0,0,1-5.36349,3.37573c-6.09492-2.813-10.44576-10.25827-10.44576-18.99738a24.90028,24.90028,0,0,1,.2438-3.52569c1.353-9.4462,7.78279-16.65319,15.56545-16.65319C730.1914,163.41808,736.6614,170.582,737.97418,180.015Z"/>
        </g>
        <g>
          <circle class="cls-46" cx="749.83836" cy="199.52313" r="5.90538"/>
          <path class="cls-40" d="M768.738,180.015h-7.5953c-1.03142-5.19467-4.257-9.09545-7.9515-9.09545-3.6944,0-6.92008,3.90078-7.9515,9.09545a18.55992,18.55992,0,0,0-.35632,3.582c0,5.6635,2.56256,10.5912,5.96362,12.17105a3.84861,3.84861,0,0,1,2.3442,3.4506,3.75271,3.75271,0,0,1-5.3635,3.37573c-6.09491-2.813-10.44576-10.25827-10.44576-18.99738a24.89879,24.89879,0,0,1,.24381-3.52569c1.353-9.4462,7.78278-16.65319,15.56545-16.65319C760.95525,163.41808,767.42526,170.582,768.738,180.015Z"/>
        </g>
        <g>
          <circle class="cls-46" cx="780.60222" cy="199.52313" r="5.90538"/>
          <path class="cls-40" d="M799.50189,180.015H791.9066c-1.03143-5.19467-4.257-9.09545-7.9515-9.09545-3.6944,0-6.92008,3.90078-7.9515,9.09545a18.55913,18.55913,0,0,0-.35633,3.582c0,5.6635,2.56257,10.5912,5.96363,12.17105a3.84861,3.84861,0,0,1,2.3442,3.4506,3.75271,3.75271,0,0,1-5.3635,3.37573c-6.09491-2.813-10.44576-10.25827-10.44576-18.99738a24.89879,24.89879,0,0,1,.24381-3.52569c1.353-9.4462,7.78278-16.65319,15.56545-16.65319C791.71911,163.41808,798.18912,170.582,799.50189,180.015Z"/>
        </g>
        <g>
          <circle class="cls-46" cx="811.36607" cy="199.52313" r="5.90538"/>
          <path class="cls-40" d="M830.26575,180.015h-7.59529c-1.03143-5.19467-4.257-9.09545-7.9515-9.09545-3.69441,0-6.92008,3.90078-7.95151,9.09545a18.55992,18.55992,0,0,0-.35632,3.582c0,5.6635,2.56257,10.5912,5.96363,12.17105a3.84863,3.84863,0,0,1,2.3442,3.4506,3.75271,3.75271,0,0,1-5.3635,3.37573c-6.09492-2.813-10.44576-10.25827-10.44576-18.99738a24.90028,24.90028,0,0,1,.2438-3.52569c1.353-9.4462,7.78279-16.65319,15.56546-16.65319C822.483,163.41808,828.953,170.582,830.26575,180.015Z"/>
        </g>
        <g>
          <circle class="cls-46" cx="842.12993" cy="199.52313" r="5.90538"/>
          <path class="cls-40" d="M861.02961,180.015h-7.5953c-1.03142-5.19467-4.257-9.09545-7.9515-9.09545-3.6944,0-6.92007,3.90078-7.9515,9.09545a18.55992,18.55992,0,0,0-.35632,3.582c0,5.6635,2.56256,10.5912,5.96362,12.17105a3.84861,3.84861,0,0,1,2.3442,3.4506,3.75271,3.75271,0,0,1-5.3635,3.37573c-6.09491-2.813-10.44576-10.25827-10.44576-18.99738a24.89879,24.89879,0,0,1,.24381-3.52569c1.353-9.4462,7.78278-16.65319,15.56545-16.65319C853.24682,163.41808,859.71683,170.582,861.02961,180.015Z"/>
        </g>
        <g>
          <circle class="cls-46" cx="872.89379" cy="199.52313" r="5.90538"/>
          <path class="cls-40" d="M891.79346,180.015h-7.59529c-1.03142-5.19467-4.257-9.09545-7.9515-9.09545-3.6944,0-6.92008,3.90078-7.9515,9.09545a18.55913,18.55913,0,0,0-.35632,3.582c0,5.6635,2.56256,10.5912,5.96362,12.17105a3.84861,3.84861,0,0,1,2.3442,3.4506,3.75271,3.75271,0,0,1-5.3635,3.37573c-6.09491-2.813-10.44576-10.25827-10.44576-18.99738a24.89879,24.89879,0,0,1,.24381-3.52569c1.353-9.4462,7.78278-16.65319,15.56545-16.65319C884.01068,163.41808,890.48069,170.582,891.79346,180.015Z"/>
        </g>
        <g>
          <circle class="cls-46" cx="903.65764" cy="199.52313" r="5.90538"/>
          <path class="cls-40" d="M922.55732,180.015H914.962c-1.03143-5.19467-4.257-9.09545-7.9515-9.09545-3.69441,0-6.92008,3.90078-7.95151,9.09545a18.55992,18.55992,0,0,0-.35632,3.582c0,5.6635,2.56923,10.57693,5.96363,12.17105a3.83785,3.83785,0,0,1,2.3442,3.4506,3.75271,3.75271,0,0,1-5.3635,3.37573c-6.09492-2.813-10.44576-10.25827-10.44576-18.99738a24.19147,24.19147,0,0,1,.2438-3.52569c1.31278-9.45188,7.78279-16.65319,15.56546-16.65319C914.77454,163.41808,921.24455,170.582,922.55732,180.015Z"/>
        </g>
      </g>
    </g>
    <g>
      <g>
        <path class="cls-39" d="M674.66148,99.44019h12.46513a4.29434,4.29434,0,0,1,4.29434,4.29434v7.61359a0,0,0,0,1,0,0H670.36714a0,0,0,0,1,0,0v-7.61359A4.29434,4.29434,0,0,1,674.66148,99.44019Z" transform="translate(173.16601 -360.37067) rotate(33.73288)"/>
        <rect class="cls-47" x="668.42352" y="94.3032" width="32.15143" height="11.38385" rx="5.69192" transform="translate(170.7748 -363.28171) rotate(33.73288)"/>
      </g>
      <g>
        <path class="cls-39" d="M572.56129,99.44019H593.6151a0,0,0,0,1,0,0v7.61359a4.29434,4.29434,0,0,1-4.29434,4.29434H576.85563a4.29434,4.29434,0,0,1-4.29434-4.29434V99.44019A0,0,0,0,1,572.56129,99.44019Z" transform="translate(1126.53275 -130.75789) rotate(146.26712)"/>
        <rect class="cls-48" x="563.4073" y="94.3032" width="32.15143" height="11.38385" rx="5.69192" transform="translate(1116.93116 -138.64491) rotate(146.26712)"/>
      </g>
      <g>
        <path class="cls-49" d="M631.633,77.03537h0a14.39323,14.39323,0,0,1,14.39323,14.39323V104.423a0,0,0,0,1,0,0H617.23978a0,0,0,0,1,0,0V91.42859A14.39323,14.39323,0,0,1,631.633,77.03537Z"/>
        <circle class="cls-50" cx="631.63302" cy="176.55634" r="83.09582"/>
        <circle class="cls-3" cx="631.63302" cy="176.55634" r="65.76652"/>
        <path class="cls-51" d="M631.63306,113.47464h-.0951l-.02307.00024h-.06628l-.02991.00024h-.03076q-.19885.00073-.3971.00269h-.00256l-.0238.00024-.01331.00025h-.01123l-.0199.00024h-.00134c-.08911.001-.17554.0022-.26453.00366l.13379,8.79956q.42188-.00623.8451-.00634v-8.80078Zm-6.833.36572-.1615.01758-.00818.001-.01453.00171q-.37811.04175-.75512.08814l-.00318.00024-.01977.00244-.0083.00122,1.07763,8.73438q.41676-.05127.83545-.09644l-.9425-8.75024Zm-6.7522,1.10083c-.12378.0271-.24634.05444-.36975.08227l-.00989.0022-.01452.00342-.01575.00342-.01038.00244-.02746.0061-.00012.00025-.02771.0061-.00611.00146-.02173.00489-.00708.00171-.02368.00537-.004.001-.05639.01294-.00647.00147-.02124.00488-.00806.00195-.0199.0044-.0083.002-.01794.00415-.02967.00684-.00292.00073-.02186.00513-.00256.00049q-.11023.02564-.22021.05151l2.02063,8.56567q.40869-.09632.81982-.18652l-1.88684-8.59619Zm-6.59277,1.82959q-.46344.15637-.92371.31982l2.94336,8.294q.39533-.14027.7937-.27466l-2.81335-8.33911Zm-6.35327,2.53784q-.37263.17284-.74244.35059l-.00781.00366-.00659.00317-.1272.06128,3.82972,7.92383q.37828-.18275.76-.35986l-3.70569-7.98267Zm-6.04,3.21436-.07825.04736-.00159.001-.02026.01245-.01453.00879-.00671.0039-.017.0105-.00159.001c-.17443.106-.3496.21362-.52294.321l-.00623.00391-.01257.00781-.15125.09448,4.66675,7.46143q.35668-.223.7168-.44068l-4.55066-7.53295Zm-5.65589,3.8496c-.11621.08863-.22949.17579-.345.26514l-.00122.001-.02893.02246-.00879.00683-.01037.00806-.0138.0105-.006.00464-.02173.01684-.00012.00025q-.14428.112-.28772.22485l-.004.00293-.01562.01245-.01062.0083-.0055.0044-.01342.0105,5.44543,6.91381q.33069-.26037.66553-.51587l-5.33814-6.99707Zm-5.20776,4.4375q-.13184.12525-.26294.25123l-.0061.00585-.0127.01221-.009.00855-.00684.00659c-.088.08472-.17651.17041-.264.25561l-.005.00489-.01086.01049-.01539.01514-.00207.00195-.10877.10645,6.15833,6.28711q.30084-.29479.60632-.585l-6.06091-6.38111Zm-4.69971,4.97217-.00451.00537-.01233.01465-.00476.00562-.01746.02051-.00049.00073-.0393.04638-.00013.00025q-.17688.2091-.3518.42016l-.002.00245-.036.04321-.00708.00854-.01025.01245-.00891.01075-.006.00732c-.04151.05-.08435.102-.12561.15234l6.79943,5.58765q.26753-.32556.53968-.64648l-6.71253-5.6919Zm-4.13659,5.44971q-.27411.40466-.542.814l7.3628,4.82105q.23071-.35229.46655-.70068l-7.28735-4.93433Zm-3.52332,5.865q-.17065.32263-.33777.64746l-.00219.00415-.0105.02026-.01.01978-.004.00757-.00977.01929-.00134.00244-.075.14673,7.84216,3.99438q.191-.375.38745-.74634L575.8385,147.097Zm-2.86548,6.2124q-.15178.3827-.29858.76758l-.05493.14453,8.23047,3.1167q.149-.39368.30383-.78393l-8.18079-3.24488Zm-2.17138,6.48853q-.12452.45336-.24256.90918l-.00293.01147-.00122.00488-.005.019,8.52148,2.1997q.1051-.40722.21631-.81176l-8.48608-2.33252Zm-1.45032,6.68554c-.00891.05494-.01831.11426-.027.16919l-.00073.00513-.00269.01685-.00195.01245-.002.01245-.00318.02026-.0011.00659-.009.0586-.00024.001-.00452.02906-.00012.001-.01392.08985-.00012.001-.00415.0271-.00085.00537-.00318.02149-.00146.00952-.00244.01611c-.02369.155-.04651.30884-.069.46436l8.71032,1.25928q.06024-.41712.12683-.832l-8.68969-1.39454Zm-.71668,6.80494c-.01648.32324-.03076.65161-.04235.97607l8.79516.31421q.015-.42187.0365-.8418l-8.78931-.44848Zm8.80347,6.352-8.78711.491c.01172.20972.02417.41455.038.62378l.00037.00611.00122.0188.00073.01025.001.01611.00134.0188.00061.009.00183.02735.00037.00586.00171.02588.00012.00073q.00714.10656.01477.21265l8.77857-.62574q-.03-.41931-.05347-.84057Zm.64514,5.85473-8.68262,1.43677q.07984.483.16712.96338l8.6593-1.57153q-.07507-.41346-.1438-.82862Zm1.275,5.74146-8.47449,2.374q.132.47167.27112.93945l8.4364-2.5061q-.11956-.40247-.233-.80737Zm1.89331,5.56665-8.1648,3.28491.04944.12256.00732.01807.0011.00268q.14868.36694.30176.73145l.00171.0039.00818.01978.00256.00586,8.11255-3.41162q-.16278-.38745-.31982-.77759Zm2.49,5.32983-7.75891,4.15357.00109.00219.00147.00245q.21808.40758.44165.81079l.00513.009.00549.01.01331.02393,7.69348-4.27369q-.20416-.36731-.40271-.73828Zm3.05615,5.0315-7.26331,4.96972q.1205.17578.242.35108l.00134.00195.01685.02417.00146.0022.01379.01977.00708.01026.00794.01147.00818.01148.00647.00927.0354.05078.00073.00123c.07251.10376.14429.20581.21729.30908l7.18566-5.0813q-.243-.34351-.48083-.69116Zm3.58472,4.67529-6.68494,5.72412q.31806.37134.64172.73779l6.59583-5.82641q-.27868-.31567-.55261-.6355Zm4.0686,4.26294-6.02991,6.41064q.12232.115.24536.2295l.00049.00048.01929.01783.00488.00464.0166.01538.00476.00439.01917.01782.00928.00855.01.00952.0111.01025.00745.00684.064.05908.00244.0022c.10132.09375.2008.18506.30273.27807l5.9303-6.50268q-.3111-.28382-.61792-.57251Zm4.50342,3.7998-5.30408,7.02295.08789.06641.00061.00024.0177.01343.00318.00244.01623.01221.01245.00928.01428.01074.01587.012.00672.00488.01672.0127.00562.00415q.29241.219.58752.43482l5.195-7.104q-.33966-.24829-.67566-.5022Zm4.8844,3.29-4.51392,7.55493c.08167.04883.16272.09717.24463.14551l.01306.00757.00818.00513q.20838.123.4176.24438l.00794.00464.0133.00781.13855.08008,4.39624-7.62427q-.36456-.21019-.72558-.42578Zm5.20813,2.73926-3.66675,8.00049c.12341.05664.24634.11255.37012.16821l.01574.00708.00684.00318q.24921.11205.49951.22216l3.5415-8.05688q-.38506-.16918-.767-.34424Zm5.4718,2.15479-2.77246,8.35253q.128.04249.25635.08448l.01306.00439.00879.00269c.20312.0664.40893.13257.61316.197l.0072.0022.00647.00219.02514.00782,2.64161-8.395q-.401-.12634-.79932-.2583Zm5.67334,1.54443-1.84461,8.60522c.08594.01856.173.03711.259.05518l.00122.00024.0188.00391.01049.0022.01539.00317.01489.00318.0105.00219.02734.00562.00427.001.02552.00513.00293.00073.02673.00562.00232.00049q.10437.0216.20874.04272h.00012l.028.00586.00354.00073.02564.00513.00391.00073.02819.00562.006.00122.02039.00415.01257.00268.014.00269.01563.00317.00818.00171c.05419.011.10974.022.16394.03272l1.7102-8.63306q-.41309-.08166-.82385-.16992Zm5.81348.91846-.9,8.75464c.32507.03344.64661.0642.973.09252l.7649-8.76733q-.41987-.037-.83789-.07983Zm6.73693.27661q-.42114.00841-.84387.01025l.042,8.80078.047-.00024h.00476l.01673-.00025h.02417q.4433-.00292.88513-.01171l-.17591-8.79883Zm5.87891-.43384q-.41656.05346-.83521.10059l.98487,8.7456q.48613-.05457.97058-.11694l-1.12024-8.72925Zm5.7865-1.06494q-.40833.09851-.81909.19067l1.92883,8.58692.08826-.02.00232-.00049.0249-.00562.00525-.00122.02673-.0061.01135-.00244.01453-.00342.01794-.00391.00562-.00146q.37884-.08643.75586-.17725l-2.0625-8.55566Zm5.63208-1.68823q-.395.14245-.79273.2788l2.85437,8.325q.46272-.15858.92225-.32422L650.04,227.63919Zm5.41589-2.29322q-.37737.18458-.75818.36377l3.74475,7.96436.05384-.02539.00268-.00122.02552-.01221.00122-.00049.02588-.01221.0072-.00341.01758-.0083.01-.00489.014-.00659.01246-.00586.01184-.00561.032-.01514.00122-.00049.01855-.009.005-.0022.01819-.00879.00427-.00195.0614-.0293.00061-.00024.01978-.00952.00378-.00171.0188-.009.00305-.00146.06116-.0293.00183-.00073.01978-.00952.00317-.00147.082-.03955.00378-.00195c.115-.05518.22657-.10938.34107-.16553l-3.86829-7.905Zm5.13819-2.8706q-.35559.22485-.71485.44409l4.58728,7.51074.10315-.063.00476-.00293.0177-.011.01087-.00659.00927-.00586q.34443-.2113.68482-.42676l-4.703-7.43872Zm4.80066-3.41236q-.32942.26221-.663.51905l5.37207,6.97119c.07813-.0603.15442-.11939.2323-.17993l.00025-.00025.017-.01318.00452-.00366.05188-.04029.00159-.00122.01648-.01294.00341-.00268c.1493-.1167.29419-.23071.44239-.34863l-5.47888-6.88746Zm4.407-3.91186q-.29938.29626-.6034.58765l6.09168,6.3518c.09241-.08862.18213-.175.274-.2644l.00134-.00122.01611-.01587.00037-.00025.02734-.02636.00745-.00733.009-.00879.01148-.01123.00793-.00781.01514-.01465.004-.0039.02063-.02027.00171-.00146.01879-.01856.00428-.00415.01538-.01513.00622-.00586.01612-.01587.00915-.009.01233-.012.01306-.01294.0044-.00415c.069-.06763.13549-.13306.2041-.20093l-6.18872-6.25732Zm3.96032-4.36377q-.26568.32665-.53649.64917l6.74,5.65918.01757-.021.00477-.00561.01-.012c.19764-.23559.39649-.47631.5907-.71508l-6.82654-5.55469Zm3.46546-4.76318q-.2287.35339-.463.70288l7.31128,4.89892.0227-.03393.00549-.0083.00769-.01148q.25379-.3794.50208-.76294l-7.38623-4.78515Zm2.92773-5.10621q-.18915.37573-.38379.7483l7.79908,4.07763c.04174-.07959.08325-.15967.12463-.2395l.006-.01147.00586-.01148.00781-.01514.00208-.00415c.02832-.05468.05676-.1101.085-.16479l.00171-.00366.009-.01758.00366-.00708.01661-.03223.00268-.00537.00672-.01318.00561-.011.00623-.01221.00793-.01538.00415-.0083.02625-.05151.00048-.001.01319-.02588.00061-.00122q.05529-.10877.11011-.21777l-7.86158-3.95606Zm2.35364-5.39013q-.147.394-.29993.78515l8.19666,3.20459.00952-.02441.00232-.0061.00549-.01416c.07447-.19068.14734-.38037.22-.57178v-.00025l.00794-.02075.00159-.00439.0227-.06006.00232-.0061.00537-.01416.00464-.01246.005-.01342.00452-.01172.00525-.01416.00269-.00708.0111-.02954.00452-.012.00525-.01416.00378-.01.00611-.01635.00244-.00659.01636-.04395-8.24561-3.07617Zm1.7511-5.61328q-.10309.408-.2124.81323l8.49743,2.291c.08448-.31347.16736-.63085.2472-.94628l-8.53223-2.158Zm1.12927-5.773q-.05841.41711-.1228.832l8.69629,1.352.001-.0061.00305-.01954.0011-.00732q.07232-.46619.13757-.93433l-8.71619-1.21679Zm.49817-5.87232q-.013.42188-.03247.84229l8.79138.40625q.017-.36512.02967-.73169l.00012-.00195.00073-.023.00049-.01514.00036-.00806.00635-.197-8.79663-.27173Zm8.64307-6.56958-8.77539.66822q.03186.41894.05749.84008l8.78467-.53344q-.0152-.24794-.0321-.49561v-.00073l-.00171-.02368q-.01557-.22742-.033-.45484Zm-.8877-6.78442-8.65161,1.614q.07709.41308.14783.82837l8.67566-1.47925q-.06941-.40722-.14392-.81225l-.00037-.00171-.00476-.02564-.0011-.0061-.00439-.02368-.00086-.00464-.00488-.02685-.00256-.01368-.00245-.01294-.00317-.01733-.00146-.00732-.002-.011Zm-1.61975-6.64673-8.42395,2.54761q.1214.40173.23682.80591l8.46277-2.41578-.00257-.00878-.00219-.00782q-.132-.46179-.27088-.92114Zm-2.33557-6.43115-8.0957,3.45166q.16461.38636.32373.77588l8.14856-3.32471q-.06281-.15417-.12647-.30762l-.00244-.00586-.00745-.01782-.01123-.0271-.00134-.00342-.00806-.01953-.00158-.0039c-.04615-.11084-.09168-.21924-.13831-.32984l-.00159-.00366-.00793-.0188-.00574-.01367-.00866-.02026-.00611-.01441-.00427-.01-.00818-.01929-.00207-.00488-.03516-.08276Zm-3.022-6.13794-7.67261,4.31128q.206.36657.40637.73633l7.73853-4.19141q-.23273-.42993-.47229-.8562Zm-3.67017-5.77417-7.16089,5.11621q.24464.34241.484.68872l7.23914-5.00488c-.17652-.25537-.356-.511-.53614-.76343h-.00012l-.01269-.01807-.00611-.0083-.0072-.01025Zm-4.27222-5.344-6.56762,5.8584q.28033.31422.55578.63282l6.65711-5.75635q-.31989-.36987-.64527-.73487Zm-4.82287-4.85278-5.89893,6.53125q.31257.28235.62073.56934l5.99878-6.4397-.08728-.08105-.00867-.00806-.01037-.00952-.0116-.01074-.00537-.00513c-.14319-.13257-.2876-.26538-.432-.39649l-.00049-.00048-.01391-.0127-.00757-.00684-.012-.011-.00953-.00855-.01342-.0122-.0149-.01368-.00854-.00756-.01343-.01221-.00671-.0061-.01624-.01465-.00427-.00391-.02161-.01953-.00036-.00024-.021-.019-.00134-.00122Zm-5.31751-4.30542-5.16064,7.12915q.34113.24683.67822.49878l5.27-7.04834-.16858-.12573-.00952-.00684-.01062-.00805-.01355-.01-.00513-.00367c-.19189-.14233-.38659-.28515-.58032-.42529Zm-5.75122-3.70581-4.35888,7.64551q.36547.20837.72754.42236l4.477-7.57715c-.17749-.10473-.3595-.21118-.53821-.31421l-.00745-.00439-.01306-.00757-.01648-.00952-.00647-.00366q-.13166-.07581-.264-.15137Zm-6.11926-3.06055-3.50207,8.074q.386.16773.76879.34082l3.62757-8.01856q-.44532-.2014-.89429-.39624Zm-6.41577-2.37548L647.696,124.689q.40175.12414.80054.2544l2.73157-8.366c-.30872-.10083-.62085-.2002-.93164-.29614Zm-6.637-1.66163-1.66809,8.64136q.41327.07983.82446.16577l1.80249-8.61425-.077-.01612-.00427-.00073-.01929-.00415-.00732-.00146-.01746-.00367-.01355-.00268-.01257-.00269-.02625-.00537-.00842-.00171-.01892-.0039-.01-.002-.01819-.0039-.00989-.002-.02368-.00488-.00281-.00049-.02771-.00586-.009-.00171-.01819-.00366-.01233-.00268-.01379-.00269-.014-.00293-.01318-.00268-.01453-.00293-.00366-.00074-.03845-.00781-.00781-.00146-.01734-.00342-.00891-.002-.01916-.0039-.00379-.00073-.06726-.01343-.00293-.00049-.02124-.00439-.00391-.00074-.02111-.00415-.00452-.001-.06189-.01221-.00879-.00171-.01514-.00293-.0133-.00269-.01294-.00268-.01868-.00366-.007-.00122q-.10417-.02052-.20861-.04078Zm-6.77808-.92968-.72241,8.771q.42.0348.83813.07544l.85742-8.75879c-.27563-.0271-.55432-.05249-.83105-.07592l-.01672-.00147-.0083-.00049-.0243-.00219-.00232-.00025-.09045-.00732Z"/>
      </g>
      <g>
        <text class="cls-52" transform="translate(606.7803 170.57565)">30</text>
        <text class="cls-52" transform="translate(595.86526 206.88815)">min</text>
      </g>
    </g>
  </g>
  <g>
    <g>
      <g>
        <path class="cls-53" d="M346.9076,676.53072l-.00929.0083a4.79607,4.79607,0,0,0-2.60489-.73585l-41.72457.53545A11.03835,11.03835,0,0,0,291.67218,687.376V725.5614l4.57827,2.64334,55.08022-49.12332Z"/>
        <path class="cls-54" d="M296.25048,728.20474l57.51658-33.20722v-11.7181a4.83338,4.83338,0,0,0-4.89541-4.833l-41.72454.5355a11.03828,11.03828,0,0,0-10.89663,11.03738Z"/>
      </g>
      <line class="cls-55" x1="348.57351" y1="473.37599" x2="305.96283" y2="686.7573"/>
      <g>
        <g>
          <polygon class="cls-56" points="296.25 723.402 313.417 733.318 313.417 738.121 296.25 728.205 296.25 723.402"/>
          <path class="cls-57" d="M595.94084,535.9802l-.00469-.00263-.00909-.00528.00029.00147a5.13553,5.13553,0,0,0-5.17423.00483l-281.6626,162.6459a13.45825,13.45825,0,0,0-5.7504,6.6153L296.05044,723.285v4.80282l302.48088-174.665,14.84421-7.36795Z"/>
          <path class="cls-58" d="M608.11967,546.01158,326.457,708.6575a13.45984,13.45984,0,0,0-5.75039,6.61528L313.417,733.31807v4.80282l302.48082-174.665V550.50243A5.18551,5.18551,0,0,0,608.11967,546.01158Z"/>
        </g>
        <g>
          <path class="cls-59" d="M613.68291,550.34864c-1.77614-1.02541-4.08741-.7267-6.41642.55052l.0003-.02345-.21238.12268-.06362.03664L354.47,696.90105v.00748a19.13716,19.13716,0,0,0-6.73579,7.07392c-3.68258,6.37845-3.68727,13.2702-.0104,15.393L451.319,779.19325,717.27809,610.16646Z"/>
          <g class="cls-60">
            <ellipse class="cls-61" cx="488.1943" cy="681.07084" rx="64.35396" ry="36.98503"/>
          </g>
          <path class="cls-58" d="M717.2781,610.16655c-1.77614-1.02541-4.08741-.7267-6.41641.55051l.00029-.02345-.21238.12268-.06361.03664L458.06522,756.719v.00747a19.1372,19.1372,0,0,0-6.73579,7.07393c-3.68259,6.37845-3.68728,13.27019-.01041,15.393,1.84034,1.06249,4.25406.72831,6.66793-.66968v.00059L710.54524,632.6333l.00015-.00616a19.15581,19.15581,0,0,0,6.72216-7.06762C720.95028,619.18107,720.955,612.28932,717.2781,610.16655Z"/>
        </g>
        <polygon class="cls-56" points="420.361 795.066 437.527 804.982 437.527 809.785 420.361 799.869 420.361 795.066"/>
        <g>
          <path class="cls-57" d="M720.051,607.64414l-.00469-.00264-.00909-.00528.00029.00147a5.13551,5.13551,0,0,0-5.17423.00484L433.20068,770.28842a13.45823,13.45823,0,0,0-5.7504,6.61531l-7.28968,18.04516v4.80282l302.48088-174.665,14.84421-7.368Z"/>
          <path class="cls-62" d="M732.22983,617.67551,450.56711,780.32144a13.4598,13.4598,0,0,0-5.75039,6.61528L437.52715,804.982v4.80282L732.578,639.4102a14.86166,14.86166,0,0,0,7.42994-12.87006v-4.37378A5.18551,5.18551,0,0,0,732.22983,617.67551Z"/>
        </g>
        <g>
          <path class="cls-63" d="M471.23126,779.81922l-33.71588,29.96955-141.2649-81.584V683.01019a12.13523,12.13523,0,0,1,.45627-3.38607Z"/>
          <path class="cls-57" d="M502.83375,751.7227l-27.97634,24.85453-3.62615,3.242L296.70675,679.62412a13.03494,13.03494,0,0,1,12.43928-9.65357l42.74521-.55242,6.62777-.096a5.95946,5.95946,0,0,1,2.90576.76846Z"/>
          <path class="cls-62" d="M437.52722,809.78483,505.59,770.48875V756.622a5.71962,5.71962,0,0,0-5.793-5.71916l-49.37513.63368a13.06227,13.06227,0,0,0-12.89464,13.0612Z"/>
        </g>
        <polygon class="cls-58" points="377.354 679.278 484.312 741.021 464.789 741.271 357.83 679.528 377.354 679.278"/>
      </g>
      <g>
        <path class="cls-27" d="M515.81777,625.46125s10.53956,2.3456,11.28144,10.88c.33894,3.89914-1.72048,8.35755-4.74782,13.80258-2.82537,5.08176-3.14142,14.64238-12.2839,20.69928-6.999,4.63686-13.36574-.94853-12.20109-5.037l4.04819-8.69986,4.33084-21.52514Z"/>
        <path class="cls-64" d="M514.00039,623.64386s10.0634,3.12716,10.80528,11.6616c.33894,3.89914-1.24433,7.576-4.27166,13.021-2.82537,5.08176-3.14143,14.64238-12.28391,20.69928-6.999,4.63686-12.31191-.94252-11.14727-5.031l2.99437-8.70586,4.33085-21.52515Z"/>
        <path class="cls-65" d="M448.17918,489.04654c.68019,24.87912,12.12631,80.1387,12.12631,80.1387.77232,11.17777,1.98942,14.55071,8.53257,23.64614l34.7125,40.37782,1.77228,3.05028c2.51337,4.1234,10.41742-.55177,10.41742-.55177s2.50013-7.56721.52232-9.4877l-1.711-1.305-21.27859-49.0754,2.41318-68.23721Z"/>
        <path class="cls-3" d="M516.26272,626.21992l-1.71134-1.30492-2.07273-4.78084c.89351,6.5402-7.61339,10.871-11.77684,9.76112l2.84876,3.31375,1.77235,3.05042c2.51332,4.12328,10.41734-.55174,10.41734-.55174S518.24028,628.14046,516.26272,626.21992Z"/>
        <path class="cls-27" d="M502.08109,649.76855c-.11847,1.25633,3.94416,3.24813,6.32227.29012a44.64643,44.64643,0,0,0,7.3369-14.351c-5.50029-4.58649-11.78436-3.25538-11.58292-.59852Z"/>
        <path class="cls-66" d="M448.17918,489.04654c-1.35832,25.03132,2.37963,75.05507,8.33708,91.02011s39.4468,53.36284,39.4468,53.36284c6.40381,7.6521,27.09249-3.16625,19.77719-15.44683l-22.46731-42.14309,2.41318-68.23721Z"/>
        <path class="cls-27" d="M496.94212,680.7661c2.18875,3.17518,3.88173,13.7216,1.891,16.74756-1.93338,2.93874-7.25562,4.63986-10.053,6.37617s-6.40711,8.9509-18.6653,9.8873c-8.56621.65437-14.24793-4.86825-9.42205-10.14447l9.8079-9.5819,12.62647-12.309S494.75336,677.59092,496.94212,680.7661Z"/>
        <path class="cls-64" d="M496.94212,678.446c2.18875,3.17518,3.2532,14.3859.88557,17.127-1.138,1.31751-6.25022,4.2604-9.0476,5.9967s-6.40711,8.95091-18.6653,9.8873c-8.56621.65437-14.24793-4.86825-9.42205-10.14446l9.8079-9.58191,12.62647-12.309S494.75336,675.27085,496.94212,678.446Z"/>
        <path class="cls-67" d="M522.51328,518.03679l-19.6795,79.30953c2.04959,24.43943-7.82879,76.696-7.82879,76.696l.98964,5.77553c-.6813,6.99822-14.273,10.01678-14.21391.41131l.00812-5.80017-6.04039-80.19689,1.8905-88.48393Z"/>
        <path class="cls-3" d="M481.6022,671.95023l.18658,2.47872-.008,5.80023c-.059,9.60538,13.53254,6.58691,14.21384-.41131l-.98967-5.7756s.58923-3.17066.69239-3.731C493.09093,675.84039,483.75267,675.02836,481.6022,671.95023Z"/>
        <path class="cls-64" d="M518.97592,466.91667l-68.94573-17.63382s-1.851,27.33814-1.851,39.76367l27.08635,27.65766-2.6492,74.06718c-.13165,4.87624,2.39346,80.4431,2.39346,80.4431.42553,6.461,20.71572,9.85638,22.7181.30018,0,0,11.34309-75.14853,11.71426-77.98948,0,0,10.75429-53.23456,13.071-75.48841S518.97592,466.91667,518.97592,466.91667Z"/>
      </g>
      <g>
        <g>
          <path class="cls-55" d="M542.31932,524.90791l-52.46909,30.1125a28.8647,28.8647,0,0,1-17.995,3.60109l-7.91623-1.00276a87.94861,87.94861,0,0,1-32.95374-11.104l-107.014-61.84394a4.40363,4.40363,0,0,1,2.75675-8.18146l3.85076.48775a28.86463,28.86463,0,0,0,17.99475-3.60113l52.46923-30.11258"/>
          <line class="cls-55" x1="489.85023" y1="555.02041" x2="447.23955" y2="768.40172"/>
          <g>
            <path class="cls-68" d="M453.21794,541.95013l-6.2184.18746.50816.62967L363.51,494.26286a19.2124,19.2124,0,0,0-7.2888-2.4341l-14.50768-1.76353,1.776-.28142-5.38822-3.90639-2.054,5.0857.03371-.00542a2.33811,2.33811,0,0,0,.903,3.17735l86.55511,49.9811a19.21262,19.21262,0,0,0,7.2888,2.43424l17.74659,2.15707a2.321,2.321,0,0,0,2.509-1.50967l.0107.01319Z"/>
            <path class="cls-63" d="M358.29044,486.71705l-17.74663-2.15713a2.40141,2.40141,0,0,0-1.49062,4.46346l86.55521,49.98111a19.21121,19.21121,0,0,0,7.28876,2.43416l17.74663,2.15714a2.40141,2.40141,0,0,0,1.49062-4.46346L365.5792,489.15121A19.21121,19.21121,0,0,0,358.29044,486.71705Z"/>
          </g>
          <path class="cls-58" d="M355.11785,475.62854a6.00453,6.00453,0,0,1-2.99414-11.21191l45.93067-26.36036a6.00358,6.00358,0,0,1,5.97656,10.41407l-45.93067,26.36035A5.97449,5.97449,0,0,1,355.11785,475.62854Z"/>
          <line class="cls-55" x1="349.66547" y1="472.74931" x2="350.77798" y2="472.11083"/>
          <line class="cls-69" x1="496.38884" y1="551.26784" x2="542.31932" y2="524.90791"/>
          <line class="cls-55" x1="489.85023" y1="555.02041" x2="493.3809" y2="552.99412"/>
        </g>
        <g>
          <path class="cls-53" d="M492.76257,760.75416l-.00929.0083a4.79607,4.79607,0,0,0-2.60489-.73585l-41.72457.53544a11.03836,11.03836,0,0,0-10.89667,11.03738v38.1854l4.57827,2.64334,55.08022-49.12332Z"/>
          <path class="cls-70" d="M442.10545,812.42817,499.622,779.221v-11.7181a4.83338,4.83338,0,0,0-4.89541-4.833l-41.72454.53549a11.03829,11.03829,0,0,0-10.89663,11.03739Z"/>
        </g>
      </g>
      <path class="cls-71" d="M528.03019,524.59552l3.34823,13.49236-4.87214,2.68936s2.80029,2.04092,5.52949,1.392c4.25387-1.01139,9.237-5.16723,10.117-7.67574,1.44466-4.11792,1.60477-16.22827,1.60477-16.22827l-11.0465-1.56109Z"/>
      <path class="cls-71" d="M528.03019,524.59552a15.79646,15.79646,0,0,0-1.617,3.44681c-.87555,2.40707.093,6.6255.093,6.6255.42728,1.53874,2.57148,1.83662,2.91953.406l1.64334-5.23954Z"/>
    </g>
    <path class="cls-71" d="M448.40883,380.23573l-23.12125,39.02482L389.96514,437.249l7.08633,8.70823s31.31352-6.47573,37.3617-10.14689,31.76706-27.14919,31.76706-27.14919l8.99541-44.568Z"/>
    <path class="cls-71" d="M397.05147,445.95723l-11.7169.91288a5.64129,5.64129,0,0,0-3.24851.65522l-7.09932,3.85209s-.94736-3.07408,1.75939-6.82485c3.41329-4.72986,16.594-8.80251,16.594-8.80251Z"/>
    <path class="cls-72" d="M446.112,378.55368c-7.14894,10.47155-19.9497,31.73049-19.9497,31.73049-8.15009,13.43484,12.53076,28.41356,20.50619,19.205l19.22173-22.51,10.84426-43.71S457.34712,362.09681,446.112,378.55368Z"/>
    <path class="cls-73" d="M449.73235,393.6593l-7.59619,38.47608a8.01759,8.01759,0,0,0,4.53247-2.64624l8.36914-9.80127Z"/>
    <path class="cls-74" d="M488.2967,365.042c-18.91985-6.94293-44.26651,11.25692-41.96864,30.83254l2.25891,36.45572-1.15252,19.04719c-.68086,9.43087,7.12436,15.88185,18.2521,21.74151,20.63417,10.86557,56.75338.94514,55.93508-10.27635l-.22211-20.77545,6.92076-41.13605C520.71381,381.04046,499.90936,369.30342,488.2967,365.042Z"/>
    <path class="cls-73" d="M514.57684,471.6405c4.52539-2.53076,7.27734-5.61108,7.04492-8.79785l-.15967-14.91528-16.24058-27.42883Z"/>
    <polygon class="cls-75" points="504.964 414.218 505.731 414.833 505.681 414.636 504.964 414.218"/>
    <path class="cls-71" d="M527.37747,400.6327s14.44605,44.97024,16.29478,57.79592c3.37922,23.4435.08529,59.83665.08529,59.83665.05937,7.395-10.05014,5.59433-11.0465-1.56109l-8.00923-53.7877-16.93647-47.32932Z"/>
    <path class="cls-76" d="M528.00318,400.1556s9.29179,22.42451,13.28041,39.73713c3.16533,13.73887-22.9801,21.93024-25.91627,12.51548l-9.89315-31.05429C499.73917,403.49846,522.59881,384.9403,528.00318,400.1556Z"/>
    <path class="cls-64" d="M470.84905,375.64533c.64584,4.38539,4.19678,6.752,11.48723,5.67836s14.77707-7.00143,14.13123-11.38682-7.07947-7.07007-14.36992-5.9964S470.20321,371.25994,470.84905,375.64533Z"/>
    <path class="cls-71" d="M472.81832,373.63468c.53525,3.63445,3.47814,5.59584,9.5202,4.706s12.2467-5.80253,11.71145-9.437-5.86721-5.85942-11.90927-4.9696S472.28307,370.00023,472.81832,373.63468Z"/>
    <path class="cls-77" d="M478.367,357.68741s-13.8435,5.57414-22.42049,15.2074c-10.79356,12.12279-15.95169,28.64829-16.62491,35.5902s16.55967,16.28851,18.892,6.64264c4.71686-24.17818,12.4553-42.6545,21.48635-48.6956Z"/>
    <g>
      <path class="cls-78" d="M474.6738,372.35628c1.25783,9.19859,21.0313.18227,19.36188-5.59243l-3.95334-13.67531-16.9455,3.60722Z"/>
      <g>
        <path class="cls-79" d="M462.08678,330.97682c-3.99826,7.04328-1.93149,17.79308,2.6879,20.29078l1.47481-19.20569Z"/>
        <path class="cls-71" d="M475.80344,370.41445c9.55286-1.47274,13.08316-4.898,14.26461-13.69645l2.5232-19.0261c1.23229-7.64678-3.30057-16.70828-12.28429-17.36292-7.85165-.57215-16.42847,5.32552-17.06649,14.02315a176.2777,176.2777,0,0,0-.02835,19.32839C463.8281,362.2662,467.122,371.75286,475.80344,370.41445Z"/>
        <path class="cls-78" d="M484.34917,337.72669c-5.76149-1.60845-12.82812,2.76025-21.22994-.8485.06382-1.56694.12122-2.52612.12122-2.52612a13.744,13.744,0,0,1,.75891-3.56084l20.05176,3.83988Z"/>
        <path class="cls-80" d="M492.96514,363.06067a86.506,86.506,0,0,0,7.07147-12.92234c3.80435-8.32081,3.21305-17.2788-2.302-23.50983-3.99393-4.51244-10.34606-7.63224-19.00273-7.04392-11.56643.78609-17.89594,6.875-17.89594,6.875s-2.83485,2.95582,2.47495,6.1064a22.397,22.397,0,0,0,11.10314,2.481c3.50112-.17333,8.53664.57523,10.105,3.0971,2.1756,3.4983-1.16754,8.68947,1.05475,12.13569.83858,1.30043,2.96314.59,2.96314.59l1.66827,4.52529Z"/>
        <path class="cls-71" d="M489.84758,359.91654c3.18824.33365,6.338-3.83718,6.71656-7.455s-2.43522-6.99042-5.3455-5.64639C487.56528,348.5023,486.65934,359.58289,489.84758,359.91654Z"/>
      </g>
    </g>
    <path class="cls-77" d="M486.09263,371.60341c-8.01795,8.92794-13.61131,16.37277-16.64008,28.62964-2.94529,11.919-1.87164,25.11417-1.87164,25.11417.434,5.86171,25.45848,3.16947,24.95673-1.629-2.52012-26.6463,8.53821-36.11026,9.00368-46.99431s-8.57618-13.66327-8.57618-13.66327S489.24127,368.09742,486.09263,371.60341Z"/>
    <path class="cls-27" d="M471.86881,692.3694c-1.0784,1.10924,3.41563,4.81558,6.277,3.17221,5.73479-4.05006,10.20011-6.903,14.70785-10.89273-1.0631-5.53445-10.261-8.24781-11.96239-5.02476Z"/>
    <path class="cls-71" d="M397.05147,445.95723s-6.6517,5.29859-9.24637,5.84554a70.13246,70.13246,0,0,1-7.888.8057c-1.55658-.06618-1.77408-1.93673-.77336-2.35115l8.2747-4.02271Z"/>
  </g>
  <g>
    <circle class="cls-38" cx="942.64224" cy="173.99535" r="51.44097"/>
    <g>
      <rect class="cls-3" x="925.17812" y="166.82764" width="11.16548" height="33.5616" transform="translate(142.78277 711.92498) rotate(-45)"/>
      <rect class="cls-3" x="946.9169" y="152.57814" width="11.16548" height="50.25593" transform="translate(1500.3614 976.88225) rotate(-135)"/>
    </g>
  </g>
</svg>
