<svg id="Layer_1" data-name="Layer 1" xmlns="http://www.w3.org/2000/svg" xmlns:xlink="http://www.w3.org/1999/xlink" viewBox="0 0 1000 1000">
  <defs>
    <style>
      .cls-1 {
        fill: url(#linear-gradient);
      }

      .cls-2 {
        fill: #b8cbd8;
      }

      .cls-3 {
        fill: url(#linear-gradient-2);
      }

      .cls-4 {
        fill: #2a3f5e;
        opacity: 0.2;
      }

      .cls-5, .cls-68 {
        fill: #fff;
      }

      .cls-5 {
        opacity: 0.7;
      }

      .cls-6 {
        fill: url(#linear-gradient-3);
      }

      .cls-7 {
        fill: url(#linear-gradient-4);
      }

      .cls-8 {
        fill: url(#linear-gradient-5);
      }

      .cls-9 {
        fill: url(#linear-gradient-6);
      }

      .cls-10 {
        fill: url(#linear-gradient-7);
      }

      .cls-11 {
        fill: url(#linear-gradient-8);
      }

      .cls-12 {
        fill: url(#linear-gradient-9);
      }

      .cls-13 {
        fill: url(#linear-gradient-10);
      }

      .cls-14 {
        fill: url(#linear-gradient-11);
      }

      .cls-15 {
        fill: url(#linear-gradient-12);
      }

      .cls-16, .cls-86 {
        fill: #dd7b19;
      }

      .cls-16, .cls-84 {
        opacity: 0.5;
      }

      .cls-17 {
        fill: url(#linear-gradient-13);
      }

      .cls-18 {
        fill: url(#linear-gradient-14);
      }

      .cls-19 {
        fill: url(#linear-gradient-15);
      }

      .cls-20 {
        fill: url(#linear-gradient-16);
      }

      .cls-21 {
        fill: #2e3e59;
      }

      .cls-22 {
        fill: #4f4f4f;
      }

      .cls-23 {
        fill: url(#linear-gradient-17);
      }

      .cls-24 {
        fill: url(#linear-gradient-18);
      }

      .cls-25 {
        fill: url(#linear-gradient-19);
      }

      .cls-26 {
        fill: url(#linear-gradient-20);
      }

      .cls-27 {
        fill: url(#linear-gradient-21);
      }

      .cls-28 {
        fill: url(#linear-gradient-22);
      }

      .cls-29 {
        fill: url(#linear-gradient-23);
      }

      .cls-30, .cls-84 {
        fill: #bcd0e2;
      }

      .cls-31 {
        fill: #d7ebf4;
      }

      .cls-32 {
        fill: #7995a8;
      }

      .cls-33 {
        fill: url(#linear-gradient-24);
      }

      .cls-34 {
        fill: #e58630;
      }

      .cls-35 {
        fill: url(#linear-gradient-25);
      }

      .cls-36 {
        fill: url(#linear-gradient-26);
      }

      .cls-37 {
        fill: #ffcb48;
      }

      .cls-38 {
        fill: url(#linear-gradient-27);
      }

      .cls-39 {
        fill: url(#linear-gradient-28);
      }

      .cls-40 {
        fill: url(#linear-gradient-29);
      }

      .cls-41 {
        fill: url(#linear-gradient-30);
      }

      .cls-42 {
        fill: url(#linear-gradient-31);
      }

      .cls-43 {
        fill: url(#linear-gradient-32);
      }

      .cls-44 {
        fill: url(#linear-gradient-33);
      }

      .cls-45 {
        fill: url(#linear-gradient-34);
      }

      .cls-46 {
        fill: url(#linear-gradient-35);
      }

      .cls-47 {
        fill: url(#linear-gradient-36);
      }

      .cls-48 {
        fill: url(#linear-gradient-37);
      }

      .cls-49 {
        fill: url(#linear-gradient-38);
      }

      .cls-50 {
        fill: url(#linear-gradient-39);
      }

      .cls-51 {
        fill: url(#linear-gradient-40);
      }

      .cls-52 {
        fill: url(#linear-gradient-41);
      }

      .cls-53 {
        fill: url(#linear-gradient-42);
      }

      .cls-54 {
        fill: url(#linear-gradient-43);
      }

      .cls-55 {
        fill: url(#linear-gradient-44);
      }

      .cls-56 {
        fill: #c93535;
      }

      .cls-57 {
        fill: #f0f9fc;
      }

      .cls-58 {
        fill: url(#linear-gradient-45);
      }

      .cls-59 {
        fill: url(#linear-gradient-46);
      }

      .cls-60 {
        fill: #f7e1c4;
      }

      .cls-61 {
        fill: url(#linear-gradient-47);
      }

      .cls-62 {
        fill: url(#linear-gradient-48);
      }

      .cls-63 {
        fill: #a3bacc;
      }

      .cls-64 {
        fill: url(#linear-gradient-49);
      }

      .cls-65 {
        fill: #e9f1f4;
      }

      .cls-66 {
        fill: url(#linear-gradient-50);
      }

      .cls-67 {
        fill: url(#linear-gradient-51);
      }

      .cls-69 {
        fill: url(#linear-gradient-52);
      }

      .cls-70 {
        fill: url(#linear-gradient-53);
      }

      .cls-71 {
        fill: url(#linear-gradient-54);
      }

      .cls-72 {
        fill: url(#linear-gradient-55);
      }

      .cls-73 {
        fill: url(#linear-gradient-56);
      }

      .cls-74 {
        fill: url(#linear-gradient-57);
      }

      .cls-75 {
        fill: url(#linear-gradient-58);
      }

      .cls-76 {
        fill: url(#linear-gradient-59);
      }

      .cls-77 {
        fill: #541510;
        opacity: 0.3;
      }

      .cls-78 {
        fill: url(#linear-gradient-60);
      }

      .cls-79 {
        fill: url(#linear-gradient-61);
      }

      .cls-80 {
        fill: #bcbcbc;
      }

      .cls-81 {
        fill: #606060;
      }

      .cls-82 {
        fill: url(#linear-gradient-62);
      }

      .cls-83 {
        fill: url(#linear-gradient-63);
      }

      .cls-85 {
        fill: url(#linear-gradient-64);
      }

      .cls-86, .cls-97 {
        opacity: 0.6;
      }

      .cls-87 {
        fill: url(#linear-gradient-65);
      }

      .cls-88 {
        fill: url(#linear-gradient-66);
      }

      .cls-89 {
        fill: url(#linear-gradient-67);
      }

      .cls-90 {
        fill: url(#linear-gradient-68);
      }

      .cls-91 {
        fill: url(#linear-gradient-69);
      }

      .cls-92 {
        fill: #dd7a64;
      }

      .cls-93 {
        fill: url(#linear-gradient-70);
      }

      .cls-94 {
        fill: url(#linear-gradient-71);
      }

      .cls-95 {
        fill: url(#linear-gradient-72);
      }

      .cls-96 {
        fill: url(#linear-gradient-73);
      }

      .cls-97 {
        fill: #a0432d;
      }

      .cls-98 {
        fill: #ffcd5c;
      }

      .cls-99 {
        fill: #cc695c;
      }

      .cls-100 {
        fill: url(#linear-gradient-74);
      }

      .cls-101 {
        fill: url(#linear-gradient-75);
      }

      .cls-102 {
        fill: none;
        stroke: #37444f;
        stroke-miterlimit: 10;
        stroke-width: 1.19741px;
      }

      .cls-103 {
        fill: #eaeaea;
      }
    </style>
    <linearGradient id="linear-gradient" x1="497.8057" y1="385.55996" x2="919.09239" y2="385.55996" gradientUnits="userSpaceOnUse">
      <stop offset="0" stop-color="#e4edf2"/>
      <stop offset="1" stop-color="#c3d6e6"/>
    </linearGradient>
    <linearGradient id="linear-gradient-2" x1="76.53524" y1="711.89267" x2="919.09239" y2="711.89267" gradientUnits="userSpaceOnUse">
      <stop offset="0" stop-color="#dae9f2"/>
      <stop offset="0.99337" stop-color="#c4d5e6"/>
    </linearGradient>
    <linearGradient id="linear-gradient-3" x1="90.12588" y1="379.18971" x2="469.16859" y2="379.18971" gradientUnits="userSpaceOnUse">
      <stop offset="0" stop-color="#3e4c59"/>
      <stop offset="1" stop-color="#293440"/>
    </linearGradient>
    <linearGradient id="linear-gradient-4" x1="153.26495" y1="638.36279" x2="153.26495" y2="265.95682" gradientUnits="userSpaceOnUse">
      <stop offset="0" stop-color="#62778c"/>
      <stop offset="1" stop-color="#435466"/>
    </linearGradient>
    <linearGradient id="linear-gradient-5" x1="279.61061" y1="565.42615" x2="279.61061" y2="193.0031" xlink:href="#linear-gradient-4"/>
    <linearGradient id="linear-gradient-6" x1="405.9929" y1="492.4808" x2="405.9929" y2="120.01582" xlink:href="#linear-gradient-4"/>
    <linearGradient id="linear-gradient-7" x1="102.37402" y1="382.72159" x2="469.16859" y2="382.72159" gradientUnits="userSpaceOnUse">
      <stop offset="0" stop-color="#435466"/>
      <stop offset="1" stop-color="#62778c"/>
    </linearGradient>
    <linearGradient id="linear-gradient-8" x1="90.1024" y1="382.72105" x2="481.43535" y2="382.72105" xlink:href="#linear-gradient-4"/>
    <linearGradient id="linear-gradient-9" x1="210.29765" y1="586.64382" x2="210.29765" y2="258.86456" xlink:href="#linear-gradient-4"/>
    <linearGradient id="linear-gradient-10" x1="336.65087" y1="513.69713" x2="336.65087" y2="185.91083" xlink:href="#linear-gradient-4"/>
    <linearGradient id="linear-gradient-11" x1="463.02086" y1="440.73732" x2="463.02086" y2="112.95102" xlink:href="#linear-gradient-4"/>
    <linearGradient id="linear-gradient-12" x1="401.94748" y1="126.89384" x2="101.47779" y2="616.79009" gradientUnits="userSpaceOnUse">
      <stop offset="0.00005" stop-color="#ffcb48"/>
      <stop offset="1" stop-color="#e68e2b"/>
    </linearGradient>
    <linearGradient id="linear-gradient-13" x1="490.50266" y1="181.20769" x2="190.03296" y2="671.10393" xlink:href="#linear-gradient-12"/>
    <linearGradient id="linear-gradient-14" x1="517.65732" y1="90.36846" x2="70.87194" y2="442.11396" gradientUnits="userSpaceOnUse">
      <stop offset="0" stop-color="#849bb2"/>
      <stop offset="1" stop-color="#5b6f82"/>
    </linearGradient>
    <linearGradient id="linear-gradient-15" x1="498.32715" y1="65.81538" x2="51.54178" y2="417.56088" xlink:href="#linear-gradient-14"/>
    <linearGradient id="linear-gradient-16" x1="478.1698" y1="40.21162" x2="31.38443" y2="391.95712" xlink:href="#linear-gradient-14"/>
    <linearGradient id="linear-gradient-17" x1="442.14709" y1="489.22523" x2="460.53638" y2="489.22523" xlink:href="#linear-gradient-3"/>
    <linearGradient id="linear-gradient-18" x1="524.83938" y1="407.57995" x2="585.85708" y2="510.1268" xlink:href="#linear-gradient-3"/>
    <linearGradient id="linear-gradient-19" x1="398.70932" y1="275.81945" x2="526.77687" y2="506.89786" xlink:href="#linear-gradient-4"/>
    <linearGradient id="linear-gradient-20" x1="432.93848" y1="294.44634" x2="514.60475" y2="510.367" xlink:href="#linear-gradient-14"/>
    <linearGradient id="linear-gradient-21" x1="415.97422" y1="300.86262" x2="497.64049" y2="516.78328" xlink:href="#linear-gradient-14"/>
    <linearGradient id="linear-gradient-22" x1="438.58405" y1="392.15665" x2="588.92661" y2="392.15665" gradientUnits="userSpaceOnUse">
      <stop offset="0" stop-color="#62788c"/>
      <stop offset="1" stop-color="#526575"/>
    </linearGradient>
    <linearGradient id="linear-gradient-23" x1="438.58399" y1="367.29335" x2="588.92656" y2="367.29335" xlink:href="#linear-gradient-14"/>
    <linearGradient id="linear-gradient-24" x1="484.6224" y1="272.98079" x2="550.28022" y2="333.99848" xlink:href="#linear-gradient-12"/>
    <linearGradient id="linear-gradient-25" x1="508.50877" y1="288.36276" x2="528.69396" y2="288.36276" xlink:href="#linear-gradient-3"/>
    <linearGradient id="linear-gradient-26" x1="508.50879" y1="283.82738" x2="528.69407" y2="283.82738" xlink:href="#linear-gradient-4"/>
    <linearGradient id="linear-gradient-27" x1="873.8416" y1="393.00558" x2="899.51699" y2="458.12208" gradientUnits="userSpaceOnUse">
      <stop offset="0.00844" stop-color="#ffc63f"/>
      <stop offset="1" stop-color="#e68a23"/>
    </linearGradient>
    <linearGradient id="linear-gradient-28" x1="881.3084" y1="397.08318" x2="890.06998" y2="410.78551" xlink:href="#linear-gradient-4"/>
    <linearGradient id="linear-gradient-29" x1="864.34559" y1="406.97989" x2="895.20245" y2="455.23723" xlink:href="#linear-gradient-4"/>
    <linearGradient id="linear-gradient-30" x1="659.95003" y1="264.7249" x2="702.24877" y2="264.7249" xlink:href="#linear-gradient-7"/>
    <linearGradient id="linear-gradient-31" x1="673.17728" y1="229.67016" x2="698.64903" y2="299.17781" gradientUnits="userSpaceOnUse">
      <stop offset="0" stop-color="#fff"/>
      <stop offset="0.98888" stop-color="#e6edf2"/>
    </linearGradient>
    <linearGradient id="linear-gradient-32" x1="651.37622" y1="237.59929" x2="802.04807" y2="375.10355" xlink:href="#linear-gradient-14"/>
    <linearGradient id="linear-gradient-33" x1="651.69515" y1="226.52001" x2="798.19367" y2="358.05207" xlink:href="#linear-gradient-4"/>
    <linearGradient id="linear-gradient-34" x1="664.27929" y1="212.50397" x2="810.77781" y2="344.03604" xlink:href="#linear-gradient-4"/>
    <linearGradient id="linear-gradient-35" x1="715.75227" y1="323.22183" x2="758.05101" y2="323.22183" xlink:href="#linear-gradient-7"/>
    <linearGradient id="linear-gradient-36" x1="725.80507" y1="287.15177" x2="757.14993" y2="357.39172" xlink:href="#linear-gradient-31"/>
    <linearGradient id="linear-gradient-37" x1="647.6063" y1="241.73023" x2="798.27815" y2="379.23448" xlink:href="#linear-gradient-14"/>
    <linearGradient id="linear-gradient-38" x1="647.52165" y1="231.16839" x2="794.02017" y2="362.70045" xlink:href="#linear-gradient-4"/>
    <linearGradient id="linear-gradient-39" x1="660.10579" y1="217.15236" x2="806.60431" y2="348.68442" xlink:href="#linear-gradient-4"/>
    <linearGradient id="linear-gradient-40" x1="771.55451" y1="313.53899" x2="813.85325" y2="313.53899" xlink:href="#linear-gradient-7"/>
    <linearGradient id="linear-gradient-41" x1="781.60731" y1="277.46893" x2="812.95217" y2="347.70888" xlink:href="#linear-gradient-31"/>
    <linearGradient id="linear-gradient-42" x1="677.78421" y1="208.66244" x2="828.45606" y2="346.16669" xlink:href="#linear-gradient-14"/>
    <linearGradient id="linear-gradient-43" x1="677.24105" y1="198.06736" x2="823.73956" y2="329.59942" xlink:href="#linear-gradient-4"/>
    <linearGradient id="linear-gradient-44" x1="689.82519" y1="184.05133" x2="836.3237" y2="315.58339" xlink:href="#linear-gradient-4"/>
    <linearGradient id="linear-gradient-45" x1="26.93738" y1="431.41089" x2="408.07484" y2="431.41089" gradientUnits="userSpaceOnUse">
      <stop offset="0" stop-color="#96b1cc"/>
      <stop offset="1" stop-color="#748ea6"/>
    </linearGradient>
    <linearGradient id="linear-gradient-46" x1="71.65259" y1="199.13031" x2="209.61908" y2="250.79041" gradientUnits="userSpaceOnUse">
      <stop offset="0" stop-color="#ffd773"/>
      <stop offset="1" stop-color="#e69e3a"/>
    </linearGradient>
    <linearGradient id="linear-gradient-47" x1="51.49085" y1="368.44401" x2="85.29124" y2="368.44401" xlink:href="#linear-gradient-46"/>
    <linearGradient id="linear-gradient-48" x1="38.31787" y1="376.48053" x2="48.68083" y2="376.48053" xlink:href="#linear-gradient-46"/>
    <linearGradient id="linear-gradient-49" x1="219.23754" y1="242.3582" x2="354.04605" y2="377.16671" xlink:href="#linear-gradient-3"/>
    <linearGradient id="linear-gradient-50" x1="337.4606" y1="396.44776" x2="350.15527" y2="396.44776" xlink:href="#linear-gradient-14"/>
    <linearGradient id="linear-gradient-51" x1="354.73582" y1="396.44776" x2="367.43048" y2="396.44776" xlink:href="#linear-gradient-14"/>
    <linearGradient id="linear-gradient-52" x1="811.66278" y1="663.26377" x2="836.13912" y2="663.26377" xlink:href="#linear-gradient-3"/>
    <linearGradient id="linear-gradient-53" x1="227.02543" y1="750.37028" x2="251.50177" y2="750.37028" xlink:href="#linear-gradient-3"/>
    <linearGradient id="linear-gradient-54" x1="442.9165" y1="876.98659" x2="467.39284" y2="876.98659" xlink:href="#linear-gradient-3"/>
    <linearGradient id="linear-gradient-55" x1="535.12131" y1="291.99862" x2="935.62413" y2="599.13803" xlink:href="#linear-gradient-4"/>
    <linearGradient id="linear-gradient-56" x1="587.67434" y1="454.1231" x2="820.81031" y2="454.1231" xlink:href="#linear-gradient-22"/>
    <linearGradient id="linear-gradient-57" x1="602.31846" y1="456.56441" x2="802.82769" y2="456.56441" xlink:href="#linear-gradient-14"/>
    <linearGradient id="linear-gradient-58" x1="364.08662" y1="515.02397" x2="764.58943" y2="822.16338" xlink:href="#linear-gradient-4"/>
    <linearGradient id="linear-gradient-59" x1="237.21896" y1="643.68625" x2="583.62336" y2="956.06099" xlink:href="#linear-gradient-22"/>
    <linearGradient id="linear-gradient-60" x1="213.96817" y1="713.33656" x2="838.46794" y2="713.33656" xlink:href="#linear-gradient-3"/>
    <linearGradient id="linear-gradient-61" x1="213.96817" y1="726.58379" x2="838.46794" y2="726.58379" xlink:href="#linear-gradient-3"/>
    <linearGradient id="linear-gradient-62" x1="580.41293" y1="382.3048" x2="849.83297" y2="382.3048" xlink:href="#linear-gradient-22"/>
    <linearGradient id="linear-gradient-63" x1="580.41137" y1="371.78648" x2="849.83299" y2="371.78648" xlink:href="#linear-gradient-14"/>
    <linearGradient id="linear-gradient-64" x1="584.47211" y1="445.40495" x2="600.13169" y2="594.17091" xlink:href="#linear-gradient-12"/>
    <linearGradient id="linear-gradient-65" x1="-2790.89605" y1="-539.90877" x2="-2763.05528" y2="-539.90877" gradientTransform="matrix(0, 1, -1.13936, 0, -52.08841, 3265.13137)" xlink:href="#linear-gradient-3"/>
    <linearGradient id="linear-gradient-66" x1="612.20987" y1="442.48519" x2="627.86944" y2="591.25114" xlink:href="#linear-gradient-12"/>
    <linearGradient id="linear-gradient-67" x1="532.54367" y1="562.42584" x2="623.4398" y2="562.42584" xlink:href="#linear-gradient-4"/>
    <linearGradient id="linear-gradient-68" x1="669.2542" y1="436.48052" x2="684.91378" y2="585.24648" xlink:href="#linear-gradient-12"/>
    <linearGradient id="linear-gradient-69" x1="-671.93065" y1="-207.29761" x2="-644.08987" y2="-207.29761" gradientTransform="matrix(0, 1.11552, -1, 0, 467.20773, 1300.95103)" xlink:href="#linear-gradient-3"/>
    <linearGradient id="linear-gradient-70" x1="264.1749" y1="552.93942" x2="612.76614" y2="747.39168" xlink:href="#linear-gradient-12"/>
    <linearGradient id="linear-gradient-71" x1="558.64581" y1="61.30083" x2="654.3624" y2="61.30083" gradientTransform="matrix(0.94639, 0.1032, -0.19519, 0.96139, 17.86817, 391.46704)" xlink:href="#linear-gradient-4"/>
    <linearGradient id="linear-gradient-72" x1="702.04746" y1="540.165" x2="760.28488" y2="560.18697" xlink:href="#linear-gradient-12"/>
    <linearGradient id="linear-gradient-73" x1="706.04907" y1="532.97858" x2="761.28828" y2="551.96977" gradientUnits="userSpaceOnUse">
      <stop offset="0" stop-color="#f2883c"/>
      <stop offset="0.16716" stop-color="#e97d35"/>
      <stop offset="0.67368" stop-color="#d26124"/>
      <stop offset="0.96784" stop-color="#c9571e"/>
    </linearGradient>
    <linearGradient id="linear-gradient-74" x1="620.11189" y1="406.78164" x2="648.36721" y2="452.73909" gradientUnits="userSpaceOnUse">
      <stop offset="0.00005" stop-color="#bca9a0"/>
      <stop offset="1" stop-color="#a68f85"/>
    </linearGradient>
    <linearGradient id="linear-gradient-75" x1="641.68816" y1="393.51623" x2="669.94348" y2="439.47368" xlink:href="#linear-gradient-74"/>
  </defs>
  <g>
    <g>
      <polygon class="cls-1" points="497.806 59.227 919.092 302.448 919.092 711.893 497.806 468.649 497.806 59.227"/>
      <polygon class="cls-2" points="497.822 59.227 76.535 302.448 76.535 711.893 497.822 468.649 497.822 59.227"/>
    </g>
    <path class="cls-3" d="M83.805,724.49667l392.21059,226.4329a43.6172,43.6172,0,0,0,43.61687-.00063L911.823,724.49244a14.53906,14.53906,0,0,0,.00017-25.18216L519.61549,472.8567a43.61721,43.61721,0,0,0-43.61994.00054L83.80417,699.31448A14.53906,14.53906,0,0,0,83.805,724.49667Z"/>
    <path class="cls-4" d="M222.47916,768.77215l231.45056,133.6219a21.8247,21.8247,0,0,0,21.82684-.00167l374.982-216.76352a10.91235,10.91235,0,0,0-.00071-18.8997L619.35771,533.12378a21.82468,21.82468,0,0,0-21.8258-.00063L222.479,749.87131A10.91234,10.91234,0,0,0,222.47916,768.77215Z"/>
  </g>
  <g>
    <g>
      <g>
        <g>
          <path class="cls-5" d="M90.1025,673.75224l387.651-223.79989a7.36363,7.36363,0,0,0,3.68194-6.37717V91.69L90.1025,317.63733Z"/>
          <path class="cls-6" d="M469.16859,440.73534,102.374,652.501l-12.24814-7.06909V317.65638L456.92045,105.87844l12.24814,7.0691Z"/>
          <polygon class="cls-7" points="204.156 265.957 204.156 579.603 102.374 638.363 102.375 631.268 198.019 576.064 198.019 269.5 204.156 265.957"/>
          <polygon class="cls-8" points="330.509 193.003 330.49 506.664 228.712 565.426 228.712 558.332 324.353 503.129 324.353 196.536 330.509 193.003"/>
          <polygon class="cls-9" points="456.92 120.016 456.879 433.702 355.065 492.481 355.065 485.387 450.707 430.184 450.707 123.604 456.92 120.016"/>
          <polygon class="cls-10" points="469.169 112.948 469.163 440.741 102.375 652.496 102.374 638.363 456.92 433.679 456.92 120.016 469.169 112.948"/>
          <path class="cls-11" d="M90.1024,317.63732V673.75214l387.651-223.79974a7.36365,7.36365,0,0,0,3.68194-6.37717V91.69ZM342.79265,185.91083v327.7863l-114.0805,65.86134V251.77853Zm-240.41754,138.812,114.06432-65.85826V586.64382L102.37511,652.49564Zm366.78753,116.018L355.06536,506.61178v-327.787l114.09728-65.87737Z"/>
        </g>
        <polygon class="cls-12" points="216.439 586.644 204.156 579.603 204.156 265.957 216.439 258.865 216.439 586.644"/>
        <polygon class="cls-13" points="342.793 513.697 330.509 506.657 330.509 193.003 342.793 185.911 342.793 513.697"/>
      </g>
      <polygon class="cls-14" points="469.163 440.737 456.879 433.702 456.92 120.016 469.163 112.951 469.163 440.737"/>
    </g>
    <g>
      <path class="cls-15" d="M300.7802,233.56282l3.046,316.8017s-13.98239,16.9216-32.69758,27.09121-51.11875,17.81274-51.11875,17.81274S215.29243,610.362,191.78244,622.349a141.69953,141.69953,0,0,1-46.03855,14.062s-1.918,9.05-12.34973,14.62943c-8.65077,4.59792-20.824,5.27305-26.60341,6.05462V344.63728s11.14411,2.084,26.17806-5.79955,12.77508-14.617,12.77508-14.617,28.12276-3.3019,44.99452-13.22443,28.71073-29.5228,28.71073-29.5228a163.88309,163.88309,0,0,0,45.18332-13.28239C287.02162,257.59734,295.38263,238.63339,300.7802,233.56282Z"/>
      <path class="cls-16" d="M160.40179,321.66368c-8.39021,1.82-14.65787,2.557-14.65787,2.557a4.83406,4.83406,0,0,1,0,2.14062V636.41094a127.41679,127.41679,0,0,0,20.81894-4.25506Z"/>
      <path class="cls-16" d="M220.12842,595.24028c.07044-.01687.16994-.04071.30249-.07288l.00987-.00244c.12879-.03117.28963-.07044.473-.11536l.1138-.02807c.1726-.04248.36184-.08929.57537-.14242l.12312-.03073c.23217-.0579.48241-.12069.75717-.19012l.09163-.02319q.44042-.11148.94718-.24137l.09551-.02451c.32811-.08431.67863-.175,1.045-.27055l.19124-.04991q.55889-.14592,1.17125-.30826l.135-.03572q.67353-.17886,1.40486-.37614l.03239-.00877c3.59916-.972,8.21305-2.2786,13.24935-3.854l-6.20988-310.899a144.29018,144.29018,0,0,1-15.18742,2.90655h-.00011l.56072,313.795.10527-.02507Z"/>
      <path class="cls-17" d="M484.83941,128.37829,487.9,440.73732c0,3.89473-5.18147,9.8109-16.08578,15.37905a87.14817,87.14817,0,0,1-24.54305,8.077s-10.95393,13.2676-26.38236,21.96784c-13.88141,7.82787-38.80941,13.1947-38.80941,13.1947s-16.04065,24.37371-31.71081,33.77829-40.763,16.44876-46.54235,17.23033l-3.046-316.8017s28.73445-3.92381,44.51316-13.12632c15.912-9.28025,32.14589-28.83713,32.14589-28.83713s22.705-1.55571,42.75352-14.12272S442.92933,151.927,442.92933,151.927a35.25632,35.25632,0,0,0,23.51507-4.34059C478.621,140.62589,482.5445,133.97544,484.83941,128.37829Z"/>
      <path class="cls-16" d="M318.32981,230.16312c-9.723,2.32874-17.54955,3.39972-17.54955,3.39972l3.046,316.80168c3.02568-.4092,11.34722-2.53717,20.83646-5.81931Z"/>
      <path class="cls-16" d="M395.00424,188.29286a98.83052,98.83052,0,0,1-17.565,3.30654l4.64019,307.75647s9.96777-2.1475,20.8064-5.7045Z"/>
      <path class="cls-16" d="M461.87218,149.87877a37.42393,37.42393,0,0,1-18.94278,2.04817l4.34181,312.26637a87.30291,87.30291,0,0,0,20.826-6.31381Z"/>
    </g>
    <g>
      <g>
        <circle class="cls-18" cx="487.62842" cy="114.00963" r="8.60768"/>
        <path class="cls-19" d="M486.55578,120.09262,107.7572,338.83773l-4.19394-7.26413L482.37592,112.82036l.00192.00332a2.11236,2.11236,0,0,1,2.08394.222,6.55668,6.55668,0,0,1,2.97536,5.13215A2.05781,2.05781,0,0,1,486.55578,120.09262Z"/>
        <path class="cls-2" d="M488.00178,119.261a10.23315,10.23315,0,0,0-1.34485-3.99815,9.88024,9.88024,0,0,0-2.90755-3.235,6.56429,6.56429,0,0,0-3.70753-1.2357,5.3246,5.3246,0,0,0-2.59918.6722,5.87835,5.87835,0,0,0-2.68969,5.76141l4.50707-2.599a1.4353,1.4353,0,0,1,.7818-.19989c1.12655,0,2.526,1.01762,3.471,2.65331.99965,1.72643,1.14518,3.562.45435,4.50708a1.43427,1.43427,0,0,1-.45435.418,1.25744,1.25744,0,0,1-.56349.16372l-4.01635,2.32631a6.4157,6.4157,0,0,0,3.79849,1.34484,5.09887,5.09887,0,0,0,2.59874-.69083,5.66066,5.66066,0,0,0,2.70788-5.10674C488.03816,119.78813,488.02,119.5157,488.00178,119.261Z"/>
        <path class="cls-2" d="M445.76846,143.65707a10.233,10.233,0,0,0-1.34484-3.99816,9.88034,9.88034,0,0,0-2.90755-3.235,6.56428,6.56428,0,0,0-3.70753-1.23569,5.32457,5.32457,0,0,0-2.59918.6722,5.87832,5.87832,0,0,0-2.68969,5.76141l4.50707-2.599a1.43529,1.43529,0,0,1,.7818-.19988c1.12654,0,2.526,1.01762,3.471,2.6533.99965,1.72643,1.14518,3.562.45435,4.50708a1.434,1.434,0,0,1-.45435.418,1.25746,1.25746,0,0,1-.5635.16373l-4.01634,2.3263a6.41571,6.41571,0,0,0,3.79849,1.34485,5.09874,5.09874,0,0,0,2.59873-.69084,5.66063,5.66063,0,0,0,2.70789-5.10673C445.80485,144.18418,445.78666,143.91175,445.76846,143.65707Z"/>
      </g>
      <circle class="cls-2" cx="483.20474" cy="127.53705" r="2.90008"/>
      <circle class="cls-2" cx="442.64833" cy="150.82422" r="2.90008"/>
      <path class="cls-2" d="M381.36547,180.83143a10.23313,10.23313,0,0,0-1.34484-3.99815,9.88034,9.88034,0,0,0-2.90755-3.235,6.56433,6.56433,0,0,0-3.70753-1.23569,5.32446,5.32446,0,0,0-2.59918.6722,5.87834,5.87834,0,0,0-2.6897,5.76141l4.50708-2.599a1.4353,1.4353,0,0,1,.7818-.19989c1.12654,0,2.526,1.01762,3.471,2.65331.99965,1.72643,1.14518,3.562.45434,4.50708a1.43434,1.43434,0,0,1-.45434.418,1.25746,1.25746,0,0,1-.5635.16373l-4.01634,2.3263a6.41569,6.41569,0,0,0,3.79849,1.34485,5.09874,5.09874,0,0,0,2.59873-.69084,5.66064,5.66064,0,0,0,2.70789-5.10673C381.40186,181.35855,381.38366,181.08612,381.36547,180.83143Z"/>
      <circle class="cls-2" cx="377.64818" cy="189.18093" r="2.90008"/>
      <path class="cls-2" d="M307.77971,223.32887a10.23315,10.23315,0,0,0-1.34485-3.99815,9.88024,9.88024,0,0,0-2.90755-3.235,6.56429,6.56429,0,0,0-3.70753-1.2357,5.32463,5.32463,0,0,0-2.59918.6722,5.87834,5.87834,0,0,0-2.68969,5.76141l4.50707-2.599a1.43524,1.43524,0,0,1,.7818-.19989c1.12655,0,2.526,1.01762,3.471,2.65331.99965,1.72643,1.14518,3.562.45435,4.50708a1.43427,1.43427,0,0,1-.45435.418,1.25744,1.25744,0,0,1-.56349.16372l-4.01635,2.32631a6.41572,6.41572,0,0,0,3.79849,1.34484,5.09884,5.09884,0,0,0,2.59874-.69083,5.66066,5.66066,0,0,0,2.70788-5.10674C307.81609,223.856,307.7979,223.58355,307.77971,223.32887Z"/>
      <circle class="cls-2" cx="303.01838" cy="231.85107" r="2.90008"/>
      <path class="cls-2" d="M301.61384,226.8745a10.233,10.233,0,0,0-1.34484-3.99816,9.8803,9.8803,0,0,0-2.90755-3.235,6.56422,6.56422,0,0,0-3.70753-1.2357,5.32457,5.32457,0,0,0-2.59918.6722,5.87832,5.87832,0,0,0-2.68969,5.76141l4.50707-2.599a1.43529,1.43529,0,0,1,.7818-.19988c1.12654,0,2.526,1.01762,3.471,2.65331.99965,1.72642,1.14518,3.562.45435,4.50707a1.43419,1.43419,0,0,1-.45435.418,1.25757,1.25757,0,0,1-.5635.16372l-4.01634,2.3263a6.41571,6.41571,0,0,0,3.79849,1.34485,5.09874,5.09874,0,0,0,2.59873-.69084,5.66062,5.66062,0,0,0,2.70789-5.10673C301.65023,227.40161,301.632,227.12918,301.61384,226.8745Z"/>
      <circle class="cls-2" cx="299.4075" cy="234.00596" r="2.90008"/>
      <path class="cls-2" d="M223.731,271.86536a10.233,10.233,0,0,0-1.34485-3.99815,9.88033,9.88033,0,0,0-2.90754-3.235,6.56435,6.56435,0,0,0-3.70754-1.2357,5.32463,5.32463,0,0,0-2.59918.6722,5.87834,5.87834,0,0,0-2.68969,5.76141l4.50708-2.599a1.4352,1.4352,0,0,1,.78179-.19989c1.12655,0,2.526,1.01762,3.471,2.65331.99965,1.72643,1.14518,3.562.45434,4.50708a1.43434,1.43434,0,0,1-.45434.418,1.25748,1.25748,0,0,1-.5635.16372l-4.01635,2.32631a6.41573,6.41573,0,0,0,3.7985,1.34484,5.09883,5.09883,0,0,0,2.59873-.69083,5.66064,5.66064,0,0,0,2.70788-5.10674C223.76734,272.39247,223.74915,272.12,223.731,271.86536Z"/>
      <circle class="cls-2" cx="220.01367" cy="280.21486" r="2.90008"/>
      <path class="cls-2" d="M149.56388,314.74622a10.23313,10.23313,0,0,0-1.34484-3.99815,9.88024,9.88024,0,0,0-2.90755-3.235,6.56435,6.56435,0,0,0-3.70754-1.2357,5.32456,5.32456,0,0,0-2.59917.6722,5.87835,5.87835,0,0,0-2.6897,5.76141l4.50708-2.599a1.4352,1.4352,0,0,1,.78179-.19989c1.12655,0,2.526,1.01762,3.471,2.65331.99965,1.72642,1.14518,3.562.45434,4.50707a1.43426,1.43426,0,0,1-.45434.418,1.25744,1.25744,0,0,1-.5635.16372l-4.01634,2.32631a6.41568,6.41568,0,0,0,3.79849,1.34484,5.09883,5.09883,0,0,0,2.59873-.69083,5.66064,5.66064,0,0,0,2.70789-5.10674C149.60027,315.27333,149.58207,315.0009,149.56388,314.74622Z"/>
      <circle class="cls-2" cx="145.84659" cy="323.09572" r="2.90008"/>
      <path class="cls-2" d="M112.37745,336.14549a10.23315,10.23315,0,0,0-1.34485-3.99815,9.88024,9.88024,0,0,0-2.90755-3.235,6.56429,6.56429,0,0,0-3.70753-1.2357,5.32463,5.32463,0,0,0-2.59918.6722,5.87834,5.87834,0,0,0-2.68969,5.76141l4.50708-2.599a1.43518,1.43518,0,0,1,.78179-.19989c1.12655,0,2.526,1.01762,3.471,2.65331.99965,1.72643,1.14519,3.562.45435,4.50708a1.43427,1.43427,0,0,1-.45435.418,1.25744,1.25744,0,0,1-.56349.16372l-4.01635,2.32631a6.41572,6.41572,0,0,0,3.79849,1.34484,5.09884,5.09884,0,0,0,2.59874-.69083,5.66066,5.66066,0,0,0,2.70788-5.10674C112.41383,336.6726,112.39564,336.40017,112.37745,336.14549Z"/>
      <circle class="cls-2" cx="108.66015" cy="344.49499" r="2.90008"/>
    </g>
    <circle class="cls-20" cx="100.50275" cy="337.5416" r="8.60768"/>
  </g>
  <g>
    <g>
      <path class="cls-21" d="M519.63886,523.54368l2.36069,17.56c0,2.16758,3.05752,3.92472,6.8291,3.92472s6.82892-1.75714,6.82892-3.92472l2.37058-17.56Z"/>
      <path class="cls-22" d="M567.68405,495.83274l2.36069,17.56c0,2.16758,3.05752,3.92471,6.8291,3.92471s6.82892-1.75713,6.82892-3.92471l2.37058-17.56Z"/>
      <path class="cls-23" d="M442.14709,478.48285l2.3607,17.56c0,2.16759,3.05752,3.92472,6.8291,3.92472s6.82891-1.75713,6.82891-3.92472l2.37058-17.56Z"/>
      <path class="cls-24" d="M587.99036,390.52183V502.12954a4.298,4.298,0,0,1-2.14622,3.73808L533.14383,536.338a8.597,8.597,0,0,1-4.31033,1.14472V374.14914Z"/>
      <path class="cls-25" d="M528.8335,374.14914V537.48268a8.59746,8.59746,0,0,1-4.31077-1.14472L441.678,488.51773a4.27883,4.27883,0,0,1-2.16434-3.73808V373.17194Z"/>
      <polygon class="cls-26" points="449.177 388.804 449.177 430.61 519.171 471.014 519.171 429.208 449.177 388.804"/>
      <polygon class="cls-27" points="449.177 440.065 449.177 481.886 519.171 522.29 519.171 480.469 449.177 440.065"/>
      <path class="cls-28" d="M438.58405,358.61834v13.81514a4.312,4.312,0,0,0,2.17411,3.76817l83.72143,48.32458a8.70541,8.70541,0,0,0,8.71382,0l53.55909-30.97468a4.312,4.312,0,0,0,2.17411-3.76818V375.96823Z"/>
      <path class="cls-29" d="M586.75245,372.20013l-83.72156-48.32451a8.7051,8.7051,0,0,0-8.71373,0L440.7581,354.85024a4.35254,4.35254,0,0,0,0,7.53633l83.72157,48.32451a8.70508,8.70508,0,0,0,8.71372,0l53.55906-30.97461A4.35255,4.35255,0,0,0,586.75245,372.20013Z"/>
    </g>
    <g>
      <g>
        <g>
          <path class="cls-30" d="M540.22035,361.169c-2.31681-5.65283-11.10485-9.86437-21.619-9.86437s-19.30221,4.21154-21.61894,9.86437h-.61689v2.95338c0,7.07906,9.95529,12.81776,22.23583,12.81776s22.23592-5.7387,22.23592-12.81776V361.169Z"/>
          <ellipse class="cls-31" cx="518.60136" cy="360.734" rx="22.23588" ry="12.81779"/>
          <path class="cls-30" d="M535.43313,357.44337h.01242l-.02618-.1553-.004-.02484-1.88305-11.25971H503.67062L501.8,357.21531c-.008.04392-.01464.08807-.02174.13222l-.016.09584h.00754a5.71224,5.71224,0,0,0-.07277.82749c0,5.38161,7.56859,9.744,16.90442,9.744s16.904-4.36243,16.904-9.744A5.7119,5.7119,0,0,0,535.43313,357.44337Z"/>
          <ellipse class="cls-31" cx="518.60136" cy="346.22199" rx="14.93093" ry="8.60688"/>
        </g>
        <path class="cls-32" d="M515.17529,322.0879v22.546c0,1.09074,1.5339,1.97495,3.42607,1.97495s3.42608-.88421,3.42608-1.97495v-22.546Z"/>
      </g>
      <g>
        <path class="cls-33" d="M552.80921,319.2481h.00179l-.00554-.028a11.81492,11.81492,0,0,0-.31745-1.6175l-6.90543-41.60023H491.61517l-6.90738,41.62321a11.80742,11.80742,0,0,0-.30507,1.555l-.01337.06755h.00424a11.54433,11.54433,0,0,0-.10169,1.44639c0,10.89005,15.361,19.71812,34.30942,19.71812,18.94877,0,34.30974-8.82807,34.30974-19.71812A11.51235,11.51235,0,0,0,552.80921,319.2481Z"/>
        <ellipse class="cls-34" cx="518.60143" cy="277.33219" rx="27.08493" ry="15.56605"/>
        <path class="cls-35" d="M508.50877,291.7696a45.69082,45.69082,0,0,0,20.18519,0v-7.94228H508.50877Z"/>
        <ellipse class="cls-36" cx="518.60143" cy="283.82738" rx="10.09264" ry="5.81787"/>
        <path class="cls-37" d="M518.60142,263.10111c14.19856,0,25.74981,6.384,25.74981,14.231S532.8,291.5633,518.60142,291.5633s-25.74982-6.38411-25.74982-14.23115,11.55125-14.231,25.74982-14.231m0-1.335c-14.95853,0-27.08492,6.96917-27.08492,15.566,0,8.597,12.12639,15.56614,27.08492,15.56614s27.08491-6.96917,27.08491-15.56614c0-8.59686-12.12639-15.566-27.08491-15.566Z"/>
      </g>
    </g>
  </g>
  <g>
    <ellipse class="cls-34" cx="885.33152" cy="394.08442" rx="10.27365" ry="5.92221"/>
    <path class="cls-38" d="M895.6051,394.087c-.00266,3.2696-4.60114,5.9198-10.27381,5.9198-5.674,0-10.27336-2.65153-10.27336-5.92247V449.5339c0,3.27083,4.59936,5.92225,10.27336,5.92225s10.27381-2.65142,10.27381-5.92225V394.087Z"/>
    <path class="cls-39" d="M895.6051,400.81513c-.00266,3.26961-4.60114,5.91981-10.27381,5.91981-5.674,0-10.27336-2.65153-10.27336-5.92247v4.06091c0,3.27082,4.59936,5.92224,10.27336,5.92224s10.27381-2.65142,10.27381-5.92224Z"/>
    <path class="cls-40" d="M895.6051,437.24014c-.00266,3.26961-4.60114,5.91981-10.27381,5.91981-5.674,0-10.27336-2.65153-10.27336-5.92247v4.06091c0,3.27082,4.59936,5.92225,10.27336,5.92225s10.27381-2.65143,10.27381-5.92225Z"/>
    <path class="cls-37" d="M885.33154,389.52524c5.251,0,8.91016,2.40271,8.91016,4.55921s-3.65918,4.5592-8.91016,4.5592-8.91015-2.40271-8.91015-4.5592,3.65918-4.55921,8.91015-4.55921m0-1.363c-5.67383,0-10.27343,2.65148-10.27343,5.92224s4.5996,5.92224,10.27343,5.92224,10.27344-2.65149,10.27344-5.92224-4.59961-5.92224-10.27344-5.92224Z"/>
  </g>
  <g>
    <g>
      <polygon class="cls-41" points="702.249 244.882 659.95 220.422 659.95 284.567 702.249 309.028 702.249 244.882"/>
      <polygon class="cls-42" points="702.249 248.225 669.102 229.057 669.102 279.324 702.249 298.493 702.249 248.225"/>
      <path class="cls-43" d="M663.74318,226.99686l34.71245,20.07379v55.38229l-34.71245-20.0738V226.99686M659.95,220.4216v64.14574l42.29873,24.46086V244.88244L659.95,220.4216Z"/>
      <polygon class="cls-44" points="709.098 305.085 709.098 240.939 702.249 244.882 702.249 309.028 709.098 305.085"/>
      <polygon class="cls-45" points="709.098 240.939 666.785 216.487 659.95 220.422 702.249 244.882 709.098 240.939"/>
    </g>
    <g>
      <polygon class="cls-46" points="758.051 303.379 715.752 278.919 715.752 343.064 758.051 367.525 758.051 303.379"/>
      <polygon class="cls-47" points="758.051 306.722 724.904 287.554 724.904 337.821 758.051 356.99 758.051 306.722"/>
      <path class="cls-48" d="M719.54541,285.49379l34.71246,20.07379v55.3823l-34.71246-20.07381V285.49379m-3.79314-6.57525v64.14573L758.051,367.52513V303.37938l-42.29874-24.46084Z"/>
      <polygon class="cls-49" points="764.9 363.582 764.9 299.436 758.051 303.379 758.051 367.525 764.9 363.582"/>
      <polygon class="cls-50" points="764.9 299.436 722.587 274.984 715.752 278.919 758.051 303.379 764.9 299.436"/>
    </g>
    <g>
      <polygon class="cls-51" points="813.853 293.697 771.555 269.236 771.555 333.381 813.853 357.842 813.853 293.697"/>
      <polygon class="cls-52" points="813.853 297.04 780.706 277.871 780.706 328.138 813.853 347.307 813.853 297.04"/>
      <path class="cls-53" d="M775.34765,275.811l34.71246,20.07379V351.267l-34.71246-20.0738V275.811m-3.79314-6.57525v64.14573l42.29874,24.46086V293.69654L771.55451,269.2357Z"/>
      <polygon class="cls-54" points="820.703 353.899 820.703 289.753 813.853 293.697 813.853 357.842 820.703 353.899"/>
      <polygon class="cls-55" points="820.703 289.753 778.389 265.301 771.554 269.236 813.853 293.697 820.703 289.753"/>
    </g>
  </g>
  <g>
    <g>
      <g>
        <path class="cls-56" d="M217.50635,99.16037a198.65209,198.65209,0,1,1-77.5835,15.65711,198.06761,198.06761,0,0,1,77.5835-15.65711m0-18.17382C97.38086,80.98655,0,178.36741,0,298.49265,0,418.618,97.38086,515.99888,217.50635,515.99888c120.125,0,217.50586-97.38086,217.50586-217.50623,0-120.12524-97.38086-217.5061-217.50586-217.5061Z"/>
        <circle class="cls-57" cx="217.50613" cy="298.49268" r="201.18409"/>
      </g>
      <path class="cls-58" d="M26.93738,363.14507a201.26225,201.26225,0,0,0,381.13746,0Z"/>
      <g>
        <path class="cls-59" d="M199.91036,222.944a16.13687,16.13687,0,0,0-17.20577-22.57158,16.21134,16.21134,0,0,0-23.93328-12.733,16.19857,16.19857,0,0,0-28.74-4.84457,16.19572,16.19572,0,0,0-27.99889,2.83044,16.19255,16.19255,0,0,0-26.87012,11.95666c-.26609-.013-.52848-.04025-.7978-.04025a16.20206,16.20206,0,0,0-14.39319,23.67089,18.25257,18.25257,0,0,0-3.53181,9.87459c0,.60511.04008,1.21006.08048,1.77477,8.71283,17.22363,38.56134,30.29247,72.88739,30.29247,34.32621,0,64.175-13.06884,72.88738-30.29247.04041-.56471.08081-1.16966.08081-1.77477A16.96318,16.96318,0,0,0,199.91036,222.944Z"/>
        <g>
          <path class="cls-60" d="M188.50831,381.63959H70.3067a3.72641,3.72641,0,0,1-3.725-3.62519l-.34513-12.7L44.9289,214.52115H213.88612L192.57844,365.31437l-.34509,12.7A3.72641,3.72641,0,0,1,188.50831,381.63959Z"/>
          <g>
            <polygon class="cls-56" points="93.186 369.754 75.109 369.754 56.477 223.869 78.281 223.869 93.186 369.754"/>
            <polygon class="cls-56" points="122.443 369.754 104.366 369.754 95.05 223.869 120.58 223.869 122.443 369.754"/>
            <polygon class="cls-56" points="165.629 369.754 183.706 369.754 202.338 223.869 180.534 223.869 165.629 369.754"/>
            <polygon class="cls-56" points="136.372 369.754 154.449 369.754 163.765 223.869 138.235 223.869 136.372 369.754"/>
          </g>
          <rect class="cls-56" x="39.02215" y="214.52115" width="180.77072" height="11.88522" rx="5.9426"/>
          <path class="cls-56" d="M66.23654,365.31437l.34512,12.7a3.72641,3.72641,0,0,0,3.725,3.62519H188.50829a3.72642,3.72642,0,0,0,3.725-3.62519l.34511-12.7Z"/>
        </g>
        <path class="cls-61" d="M83.90714,368.07528a15.60244,15.60244,0,0,1-15.60243,15.60243c-10.26629,3.4801-20.35857-5.22014-15.60244-15.60243,0-8.617,6.98545-13.74638,15.60244-13.74638C76.83094,347.3687,89.514,361.28909,83.90714,368.07528Z"/>
        <circle class="cls-62" cx="43.49935" cy="376.48053" r="5.18148"/>
      </g>
      <g>
        <g>
          <path class="cls-63" d="M406.26556,246.476l-5.4436-4.72409v3.41766H206.15243a7.45289,7.45289,0,0,0-7.39529,6.52839L182.23164,383.9022c-.01694.136.00091.26588-.00625.40041l-3.88255-.47354,5.88245,5.05366a5.52911,5.52911,0,0,0,3.55287,1.30244H384.334a7.45289,7.45289,0,0,0,7.39528-6.5285l16.5255-132.20411A5.55822,5.55822,0,0,0,406.26556,246.476Z"/>
          <path class="cls-64" d="M378.1971,384.85067H183.01487a5.55056,5.55056,0,0,1-5.5077-6.239l16.41-131.2803a7.40074,7.40074,0,0,1,7.34359-6.48279H396.443a5.55056,5.55056,0,0,1,5.5077,6.239l-16.41,131.28029A7.40074,7.40074,0,0,1,378.1971,384.85067Z"/>
          <path class="cls-65" d="M397.1457,244.09924a1.86324,1.86324,0,0,1,1.84887,2.09429L382.469,378.39787a3.73217,3.73217,0,0,1-3.69764,3.26413H182.21549a1.86326,1.86326,0,0,1-1.84882-2.0944l16.5255-132.20411a3.73235,3.73235,0,0,1,3.69765-3.26425H397.1457m0-3.72641H200.58982a7.45289,7.45289,0,0,0-7.39529,6.52839L176.669,379.10544a5.58964,5.58964,0,0,0,5.54646,6.283H378.77132A7.45271,7.45271,0,0,0,386.1666,378.86l16.52562-132.20422a5.58968,5.58968,0,0,0-5.54652-6.283Z"/>
        </g>
        <rect class="cls-30" x="278.39298" y="388.91724" width="106.6897" height="15.06103" rx="3.72641"/>
        <path class="cls-65" d="M278.393,400.25179V392.6436a3.72646,3.72646,0,0,1,3.72641-3.72642H67.7595a3.72646,3.72646,0,0,0-3.72641,3.72642v7.60819a3.72638,3.72638,0,0,0,3.72641,3.72641H282.11939A3.72638,3.72638,0,0,1,278.393,400.25179Z"/>
        <path class="cls-30" d="M148.41848,388.91724h40.277a0,0,0,0,1,0,0v2.51707a3.70364,3.70364,0,0,1-3.70364,3.70364h-32.8697a3.70364,3.70364,0,0,1-3.70364-3.70364v-2.51707A0,0,0,0,1,148.41848,388.91724Z"/>
        <path class="cls-30" d="M67.7595,403.9782H282.11939a3.7183,3.7183,0,0,1-3.71038-3.56777H64.04912A3.7183,3.7183,0,0,0,67.7595,403.9782Z"/>
        <g>
          <rect class="cls-66" x="337.4606" y="394.5501" width="12.69467" height="3.79531" rx="1.89765"/>
          <rect class="cls-67" x="354.73582" y="394.5501" width="12.69467" height="3.79531" rx="1.89765"/>
        </g>
      </g>
    </g>
    <g>
      <circle class="cls-56" cx="60.47452" cy="157.31941" r="51.44097"/>
      <g>
        <rect class="cls-68" x="56.28747" y="128.74047" width="11.16548" height="57.15788" transform="translate(-93.12026 89.82663) rotate(-45)"/>
        <rect class="cls-68" x="56.28747" y="128.74047" width="11.16548" height="57.15788" transform="translate(-5.62257 312.30988) rotate(-135)"/>
      </g>
    </g>
  </g>
  <g>
    <g>
      <g>
        <path class="cls-69" d="M811.66278,649.39145l3.37192,22.55722c0,2.865,3.98385,5.18742,8.89816,5.18742s8.89816-2.32239,8.89816-5.18742l3.3081-22.55722Z"/>
        <path class="cls-70" d="M227.02543,736.498l3.37192,22.55722c0,2.865,3.98386,5.18742,8.89816,5.18742s8.89816-2.32239,8.89816-5.18742l3.3081-22.55722Z"/>
        <path class="cls-71" d="M442.9165,863.11428l3.37193,22.55721c0,2.865,3.98385,5.18742,8.89816,5.18742s8.89816-2.32239,8.89816-5.18742l3.30809-22.55721Z"/>
        <polygon class="cls-72" points="842.618 589.878 842.618 439.523 820.81 452.154 820.81 599.379 842.618 589.878"/>
        <g>
          <polygon class="cls-73" points="587.674 314.343 587.674 472.896 820.81 593.903 820.81 452.154 587.674 314.343"/>
          <polygon class="cls-74" points="602.318 323.042 602.318 521.627 802.828 590.086 802.828 441.567 602.318 323.042"/>
          <path class="cls-75" d="M842.61754,589.878l-.00286,59.6898a10.48475,10.48475,0,0,1-5.07385,9.35578l-372.11035,215.331a20.42275,20.42275,0,0,1-10.27581,2.732V726.58379Z"/>
          <path class="cls-76" d="M455.15467,726.58379v150.4028a20.28491,20.28491,0,0,1-10.12286-2.732L228.81217,749.42616a10.06853,10.06853,0,0,1-5.087-8.6753V680.37044Z"/>
          <g>
            <path class="cls-77" d="M820.81031,571.70225v38.38131l-.0102-.01021a10.08846,10.08846,0,0,1-5.0665,9.26652l-350.306,202.49856a20.32029,20.32029,0,0,1-10.2758,2.732l53.65383-226.37343Z"/>
            <path class="cls-78" d="M820.81031,586.90228v38.38131l-.0102-.01021a10.08848,10.08848,0,0,1-5.0665,9.26653l-350.306,202.49855a20.32029,20.32029,0,0,1-10.2758,2.732l53.65383-226.37343Z"/>
            <path class="cls-79" d="M508.80565,613.39708,455.15182,839.77051a20.30392,20.30392,0,0,1-10.11266-2.732L228.81946,712.21008a10.10424,10.10424,0,0,1-5.09712-8.83845V664.22582Z"/>
            <path class="cls-30" d="M820.81031,565.188v38.38131l-.0102-.01021a10.08846,10.08846,0,0,1-5.0665,9.26652l-350.306,202.49856a20.32029,20.32029,0,0,1-10.2758,2.73205l.09879-49.84126Z"/>
            <path class="cls-80" d="M457.09165,753.19281l-1.93983,64.86337a20.30392,20.30392,0,0,1-10.11266-2.73205L228.81946,690.49575a10.10424,10.10424,0,0,1-5.09712-8.83845V642.51149Z"/>
            <path class="cls-65" d="M228.81679,651.76164,445.03615,776.5902a20.38847,20.38847,0,0,0,20.39046-.00156L815.732,574.0898a10.19423,10.19423,0,0,0-.00066-17.65595L599.57772,431.62072a20.38845,20.38845,0,0,0-20.3895-.00059L228.81661,634.10461A10.19423,10.19423,0,0,0,228.81679,651.76164Z"/>
          </g>
          <polygon class="cls-81" points="606.825 303.271 842.618 439.523 820.81 452.154 587.674 314.343 606.825 303.271"/>
          <path class="cls-82" d="M849.833,438.50807l-269.42-135.27648v10.1923l.00261-.00093a3.02688,3.02688,0,0,0,1.49784,2.67916L826.23759,460.5269a6.11671,6.11671,0,0,0,6.1782.02738l15.89178-9.20487a3.0173,3.0173,0,0,0,1.50363-2.82189l.02177.01164Z"/>
          <path class="cls-83" d="M601.67381,293.34652l246.631,142.51432a3.05826,3.05826,0,0,1,.00273,5.29436l-15.89177,9.20485a6.11653,6.11653,0,0,1-6.17818-.02738L581.9134,305.90793a3.05827,3.05827,0,0,1,.02557-5.28036l12.593-7.28031A7.136,7.136,0,0,1,601.67381,293.34652Z"/>
        </g>
      </g>
      <path class="cls-57" d="M591.58607,471.29657,706.03249,544.459l40.80841-26.51963s17.19111-32.12718,14.05851-49.33415-102.99386-74.47762-115.21865-70.35175-23.5883,33.00693-23.5883,33.00693Z"/>
      <path class="cls-84" d="M679.988,427.85224s-2.64335,14.32748-1.37285,20.12656,13.42962,28.47687,13.42962,28.47687l-28.16757-27.43284Z"/>
      <path class="cls-84" d="M625.48892,608.34635l18.18934-21.5766,19.56557,12.99232c7.06544,4.36376,25.753,5.62061,29.8518-6.73956s17.28216-70.04355,16.31779-83.395-15.34636-29.71639-15.34636-29.71639l-81.40033,94.79426Z"/>
      <g>
        <g>
          <path class="cls-85" d="M623.6075,443.57285c-25.60965,1.61239-57.5109,21.4805-71.08327,30.64475-8.00423,6.29959-1.70138,27.87619,17.38115,27.87619l15.54288-2.86413Z"/>
          <polygon class="cls-86" points="588.292 470.573 569.74 487.447 574.189 494.437 588.292 470.573"/>
          <ellipse class="cls-87" cx="563.0624" cy="488.1557" rx="8.44302" ry="13.92039" transform="translate(-182.13011 492.99031) rotate(-41.29588)"/>
          <path class="cls-88" d="M656.49529,448.11733c-31.098-9.13559-49.02185-6.05209-64.21648,16.56654l-23.42819,34.60569-27.55087,17.5791C519.087,531.16653,594.00541,637.2692,629.56746,595.0243l48.383-46.21277L702.4891,503.9127C701.39891,477.92981,671.40862,452.49837,656.49529,448.11733Z"/>
          <polygon class="cls-86" points="649.865 556.599 658.674 566.173 667.227 555.961 662.288 528.771 649.865 556.599"/>
          <path class="cls-89" d="M543.61017,521.1567s22.1275-5.66432,52.16755,25.11053c21.94812,22.485,27.66208,39.523,27.66208,45.22515s-11.06634,12.61268-11.06634,12.61268l-79.82979-73.70213Z"/>
        </g>
        <path class="cls-90" d="M702.48914,503.9126c-1.93115-12.04248-37.262.99593-40.20079,24.85829l-5.74468,33.99277c-1.52737,9.12559,32.87711,21.63653,36.76847,6.64361C700.08936,543.29521,702.57307,521.55338,702.48914,503.9126Z"/>
        <ellipse class="cls-91" cx="674.50534" cy="566.92684" rx="7.41032" ry="15.52848" transform="translate(-15.54478 1114.82677) rotate(-78.49689)"/>
        <path class="cls-92" d="M545.00636,508.05514c8.56533,4.40863,22.19707,1.80346,22.19707,1.80346l5.78192-7.677-8.06921-3.54475,3.12889,1.14278c9.78107-5.16691-3.14993-23.49845-11.25307-21.35618-4.12032,1.64727-11.41026,7.51341-14.10567,10.83919C537.00213,496.27611,541.06225,506.02508,545.00636,508.05514Z"/>
      </g>
      <path class="cls-93" d="M427.73323,512.08488c115.49276-11.65124,170.06282,24.49019,195.18741,86.38091,16.636,40.98035,45.57222,83.20332,46.99466,96.872,2.30621,22.161-7.88388,39.46223-38.25122,43.39929-50.47695,43.434-114.67593,78.13542-168.26172,91.27844a26.23362,26.23362,0,0,1-13.56621-.22932C358.199,803.19952,260.218,743.38708,220.31482,703.936a26.48676,26.48676,0,0,1-7.26187-24.3257c2.76037-13.09666,7.61755-32.46917,13.97248-43.15123,7.10971-11.95078,99.50236-66.3017,156.96818-99.36619C385.58957,524.66741,409.28389,513.07288,427.73323,512.08488Z"/>
      <path class="cls-16" d="M383.99366,537.09289s80.56675.01944,116.68877,7.93555c39.05089,8.558,68.619,28.99281,86.99191,62.61546s44.55915,132.65726,44.55915,132.65726-49.31415-97.65828-65.96943-121.05693c-24.43664-34.33053-56.24974-50.10193-93.06425-60.02124s-104.06844-13.53871-104.06844-13.53871Z"/>
      <g>
        <path class="cls-68" d="M618.69292,539.88638,596.769,502.87076l-28.24914-7.13793-20.44631-20.14941a2.26324,2.26324,0,0,0-3.037-.21187l-3.20913,2.68943,19.2279,25.23742,31.30461,34.8376,24.14385,5.71961Z"/>
        <path class="cls-94" d="M617.598,548.12768,590.11961,540.054a21.14645,21.14645,0,0,1-9.8627-6.32118l-16.713-18.96243a27.60827,27.60827,0,0,1-2.86886-3.89564l-19.917-32.711c-.19924-.26626.20686-.61972.4354-.379l23.51169,24.76839,26.98411,5.00315a7.25936,7.25936,0,0,1,4.84454,3.2291L619.115,546.198A1.34167,1.34167,0,0,1,617.598,548.12768Z"/>
        <path class="cls-92" d="M561.05532,503.2984c0,5.1123-2.58443,4.98875-7.69673,4.98875S545.451,502.44133,545.451,497.329s-1.86552-7.03733,3.24678-7.03733S561.05532,498.1861,561.05532,503.2984Z"/>
      </g>
      <path class="cls-92" d="M625.48892,535.7172a9.25663,9.25663,0,0,1-9.25663,9.25664,38.59621,38.59621,0,0,1-10.37108-1.43462,27.79113,27.79113,0,0,1-7.11487-3.32543c-4.5519-3.497-7.3662-8.13956-6.20617-10.28562s16.03507-.25889,16.03507-.25889l5.97654-5.90349S622.237,529.52216,625.48892,535.7172Z"/>
      <path class="cls-92" d="M662.24831,563.36472l-37.83625-29.21315-8.17977,10.82227s31.37322,36.52113,38.53245,41.92844c12.103,9.1413,20.90382,6.47019,26.37468,1.61566,4.3048-3.81984,5.47217-6.949,7.05207-17.85837C689.56286,561.19016,663.31214,557.62,662.24831,563.36472Z"/>
    </g>
    <g>
      <ellipse class="cls-30" cx="733.27811" cy="567.4657" rx="29.2545" ry="17.02924"/>
      <g>
        <g>
          <path class="cls-95" d="M733.17985,523.38542c18.79186,0,34.02571,8.8677,34.02571,19.80658s-8.08873,36.32286-34.02571,36.32286-34.0257-25.384-34.0257-36.32286S714.388,523.38542,733.17985,523.38542Z"/>
          <ellipse class="cls-34" cx="733.27811" cy="543.192" rx="32.95282" ry="19.18205"/>
          <path class="cls-37" d="M733.17983,526.67122c16.66276,0,30.74,7.56562,30.74,16.5208s-14.07721,16.5208-30.74,16.5208c-16.66268,0-30.7398-7.56563-30.7398-16.5208s14.07712-16.5208,30.7398-16.5208m0-3.28579c-18.79182,0-34.02562,8.86764-34.02562,19.80659,0,10.93888,15.2338,19.80659,34.02562,19.80659,18.792,0,34.02576-8.86771,34.02576-19.80659,0-10.93895-15.2338-19.80659-34.02576-19.80659Z"/>
        </g>
        <path class="cls-96" d="M761.89708,543.33455a6.5726,6.5726,0,0,0-7.008-9.1935,6.60295,6.60295,0,0,0-9.74813-5.18623A6.59775,6.59775,0,0,0,733.435,526.9816a6.59658,6.59658,0,0,0-11.40407,1.15285,6.59531,6.59531,0,0,0-10.94433,4.87c-.10838-.00531-.21525-.01639-.32494-.01639a6.59917,6.59917,0,0,0-5.86241,9.64126,7.4343,7.4343,0,0,0-1.43853,4.022c0,.24646.01633.49286.03278.72287,3.54878,7.01526,15.70621,12.33826,29.68737,12.33826,13.98122,0,26.13879-5.323,29.68737-12.33826.01645-.23.03291-.47641.03291-.72287A6.90923,6.90923,0,0,0,761.89708,543.33455Z"/>
        <path class="cls-97" d="M748.64315,549.45649c-.22857,3.19986-5.908,4.31934-8.36534,2.87986-1.18853,3.61128-7.108,4.153-9.43958,1.78278-1.62279,2.46847-6.43034,2.88636-8.251.48-2.10285,2.217-6.27168,1.93149-9.93854.76274a47.61753,47.61753,0,0,0,20.53222,4.35058c13.98109,0,26.13865-5.323,29.68736-12.33826.01639-.23.03279-.47641.03279-.72287a6.90964,6.90964,0,0,0-1.004-3.31674c-.40883,1.77926-3.92874,3.85917-6.24467,2.95108C755.04286,548.65652,750.83739,550.325,748.64315,549.45649Z"/>
      </g>
    </g>
    <path class="cls-92" d="M611.14059,527.13529l-3.7183-6.27856a26.01409,26.01409,0,0,1,7.12932,2.909Z"/>
    <g>
      <polygon class="cls-86" points="618.189 466.166 631.373 483.34 656.053 491.868 657.204 476.771 632.411 460.628 618.189 466.166"/>
      <path class="cls-92" d="M632.88817,479.91115l13.08214-6.82629,20.88832-12.10772s-2.41589-10.59919-13.82649-11.54621c-9.91995-.8233-18.58131,9.29427-18.58131,9.29427Z"/>
      <path class="cls-98" d="M632.88817,479.91112c.48539-8.43514,2.53937-16.43586,6.33882-22.3114l9.416-8.92778,2.338-6.15242c-16.21372,1.99268-29.07476,17.29387-33.01815,22.49683a.7909.7909,0,0,0,.81469,1.2444l6.93411-1.6128a2.37787,2.37787,0,0,1,2.80352,1.59161l4.37307,13.67159Z"/>
      <path class="cls-99" d="M637.96572,460.412c-.97979,11.02087,17.778,9.90925,26.16752.74785.275-7.20521,2.79662-13.81612-.33067-23.43262L639.76225,440.158Z"/>
      <path class="cls-98" d="M671.74666,470.74557c-2.74052,7.69838-10.26723,17.18867-13.57364,21.13475a1.38307,1.38307,0,0,1-2.37148-.44933l-3.6978-10.95678a2.70172,2.70172,0,0,0-2.76731-1.82981l-16.44826,1.26675h0s13.25764-7.108,18.67842-10.07012c15.54276-8.49328,13.58461-21.97631,13.58461-21.97631s.34212-.52429,2.68145,2.88266S674.90946,461.861,671.74666,470.74557Z"/>
      <g>
        <path class="cls-100" d="M625.20223,406.099c-5.74322,9.03033-3.72783,23.354,2.203,26.95638l3.21872-25.24858Z"/>
        <path class="cls-92" d="M640.69174,459.05464c12.70474-1.31074,17.59069-5.59729,19.73278-17.13054l4.59041-24.94211c2.1329-10.01-3.24891-22.269-15.0616-23.72815-10.32415-1.27525-22.03392,5.93984-23.45216,17.37607a232.93546,232.93546,0,0,0-1.31792,25.50633C625.42737,447.5078,629.1459,460.24582,640.69174,459.05464Z"/>
        <path class="cls-99" d="M654.13534,416.48186c-7.497-2.5044-17.11249,2.79292-27.96152-2.52626.188-2.06371.32733-3.32577.32733-3.32577a18.16167,18.16167,0,0,1,1.23746-4.64905l26.20846,6.396Z"/>
        <path class="cls-101" d="M665.234,449.49238s3.21024-4.86209,8.78219-15.59124,5.38507-22.59044-1.48047-31.17907c-4.97194-6.21979-13.14834-10.75791-24.61175-10.555-15.31661.27114-24.07324,7.88753-24.07324,7.88753s-3.937,3.71306,2.86172,8.22275c3.63679,2.41231,9.85675,4.00661,14.48875,4.00981s11.22792,1.3247,13.13065,4.75678c2.63943,4.76093-2.11651,11.39038.588,16.08569,1.02054,1.77176,3.87145.975,3.87145.975l1.90185,6.08269Z"/>
        <g>
          <path class="cls-102" d="M631.18628,432.11329c2.10235-.5613,5.19252.90828,7.2867,2.902"/>
          <line class="cls-102" x1="648.5177" y1="437.11863" x2="662.00603" y2="431.60137"/>
          <path class="cls-103" d="M630.50036,435.68086l-7.72191-3.15352a2.79443,2.79443,0,0,1-1.7644-2.297l-.39868-4.00822a1.30438,1.30438,0,0,1,1.81927-1.25208l7.72191,3.15352a2.79443,2.79443,0,0,1,1.7644,2.297l.39867,4.00822A1.30437,1.30437,0,0,1,630.50036,435.68086Z"/>
          <path class="cls-103" d="M648.034,441.53116l-9.65614-3.28372a2.71768,2.71768,0,0,1-1.91749-2.2775l-.41489-4.11256a1.49175,1.49175,0,0,1,1.99621-1.385l9.65614,3.28372a2.71768,2.71768,0,0,1,1.91749,2.2775l.41488,4.11256A1.49174,1.49174,0,0,1,648.034,441.53116Z"/>
        </g>
        <path class="cls-92" d="M659.92165,446.13068c4.18551.65155,8.61859-4.64414,9.35793-9.39364s-2.7507-9.38679-6.68053-7.80584C657.66584,430.9158,655.73615,445.47914,659.92165,446.13068Z"/>
      </g>
    </g>
  </g>
</svg>
