<svg id="Layer_1" data-name="Layer 1" xmlns="http://www.w3.org/2000/svg" xmlns:xlink="http://www.w3.org/1999/xlink" viewBox="0 0 1000 1000">
  <defs>
    <style>
      .cls-1 {
        fill: url(#linear-gradient);
      }

      .cls-2, .cls-6, .cls-94 {
        fill: #fff;
      }

      .cls-2, .cls-20, .cls-64 {
        opacity: 0.5;
      }

      .cls-3 {
        fill: #b8cbd8;
      }

      .cls-4 {
        fill: url(#linear-gradient-2);
      }

      .cls-5 {
        fill: url(#linear-gradient-3);
      }

      .cls-6 {
        opacity: 0.7;
      }

      .cls-7 {
        fill: url(#linear-gradient-4);
      }

      .cls-8 {
        fill: url(#linear-gradient-5);
      }

      .cls-9 {
        fill: url(#linear-gradient-6);
      }

      .cls-10 {
        fill: url(#linear-gradient-7);
      }

      .cls-11 {
        fill: url(#linear-gradient-8);
      }

      .cls-12 {
        fill: url(#linear-gradient-9);
      }

      .cls-13 {
        fill: url(#linear-gradient-10);
      }

      .cls-14 {
        fill: url(#linear-gradient-11);
      }

      .cls-15 {
        fill: url(#linear-gradient-12);
      }

      .cls-16 {
        fill: url(#linear-gradient-13);
      }

      .cls-17 {
        fill: url(#linear-gradient-14);
      }

      .cls-18 {
        fill: url(#linear-gradient-15);
      }

      .cls-19 {
        fill: url(#linear-gradient-16);
      }

      .cls-20, .cls-68 {
        fill: #dd7b19;
      }

      .cls-21 {
        fill: url(#linear-gradient-17);
      }

      .cls-22 {
        fill: none;
        stroke: #d8712b;
        stroke-linecap: round;
        stroke-width: 5.2874px;
      }

      .cls-22, .cls-95 {
        stroke-miterlimit: 10;
      }

      .cls-23 {
        fill: url(#linear-gradient-18);
      }

      .cls-24, .cls-66 {
        opacity: 0.2;
      }

      .cls-25 {
        fill: #2a3f5e;
      }

      .cls-26 {
        fill: #e58630;
      }

      .cls-27 {
        fill: #5e5e5e;
      }

      .cls-28 {
        fill: url(#linear-gradient-19);
      }

      .cls-29 {
        fill: #ffcb48;
      }

      .cls-30 {
        fill: url(#linear-gradient-20);
      }

      .cls-31 {
        fill: url(#linear-gradient-21);
      }

      .cls-32 {
        fill: url(#linear-gradient-22);
      }

      .cls-33 {
        fill: url(#linear-gradient-23);
      }

      .cls-34 {
        fill: url(#linear-gradient-24);
      }

      .cls-35 {
        fill: url(#linear-gradient-25);
      }

      .cls-36 {
        fill: url(#linear-gradient-26);
      }

      .cls-37 {
        fill: url(#linear-gradient-27);
      }

      .cls-38 {
        fill: url(#linear-gradient-28);
      }

      .cls-39 {
        fill: url(#linear-gradient-29);
      }

      .cls-40 {
        fill: url(#linear-gradient-30);
      }

      .cls-41 {
        fill: url(#linear-gradient-31);
      }

      .cls-42 {
        fill: url(#linear-gradient-32);
      }

      .cls-43 {
        fill: url(#linear-gradient-33);
      }

      .cls-44 {
        fill: url(#linear-gradient-34);
      }

      .cls-45 {
        fill: url(#linear-gradient-35);
      }

      .cls-46 {
        fill: url(#linear-gradient-36);
      }

      .cls-47 {
        fill: url(#linear-gradient-37);
      }

      .cls-48 {
        fill: url(#linear-gradient-38);
      }

      .cls-49 {
        fill: url(#linear-gradient-39);
      }

      .cls-50 {
        fill: url(#linear-gradient-40);
      }

      .cls-51 {
        fill: url(#linear-gradient-41);
      }

      .cls-52 {
        fill: url(#linear-gradient-42);
      }

      .cls-53 {
        fill: url(#linear-gradient-43);
      }

      .cls-54 {
        fill: url(#linear-gradient-44);
      }

      .cls-55 {
        fill: url(#linear-gradient-45);
      }

      .cls-56 {
        fill: url(#linear-gradient-46);
      }

      .cls-57 {
        fill: url(#linear-gradient-47);
      }

      .cls-58 {
        fill: url(#linear-gradient-48);
      }

      .cls-59 {
        fill: url(#linear-gradient-49);
      }

      .cls-60 {
        fill: url(#linear-gradient-50);
      }

      .cls-61 {
        fill: url(#linear-gradient-51);
      }

      .cls-62 {
        fill: url(#linear-gradient-52);
      }

      .cls-63 {
        fill: url(#linear-gradient-53);
      }

      .cls-64 {
        fill: #435a75;
      }

      .cls-65 {
        fill: url(#linear-gradient-54);
      }

      .cls-66 {
        fill: #39557c;
      }

      .cls-67 {
        fill: url(#linear-gradient-55);
      }

      .cls-68 {
        opacity: 0.6;
      }

      .cls-69 {
        fill: #303d49;
      }

      .cls-70 {
        fill: #cc695c;
      }

      .cls-71 {
        fill: url(#linear-gradient-56);
      }

      .cls-72 {
        fill: #263449;
      }

      .cls-73 {
        fill: #27343d;
      }

      .cls-74 {
        fill: url(#linear-gradient-57);
      }

      .cls-75 {
        fill: #3b4f72;
      }

      .cls-76 {
        fill: #dd7a64;
      }

      .cls-77 {
        fill: #ffcd5c;
      }

      .cls-78 {
        fill: url(#linear-gradient-58);
      }

      .cls-79 {
        fill: url(#linear-gradient-59);
      }

      .cls-80 {
        fill: #405260;
      }

      .cls-81 {
        fill: url(#linear-gradient-60);
      }

      .cls-82 {
        fill: #724133;
      }

      .cls-83 {
        fill: url(#linear-gradient-61);
      }

      .cls-84 {
        fill: url(#linear-gradient-62);
      }

      .cls-85 {
        fill: url(#linear-gradient-63);
      }

      .cls-86 {
        fill: url(#linear-gradient-64);
      }

      .cls-87 {
        fill: url(#linear-gradient-65);
      }

      .cls-88 {
        fill: url(#linear-gradient-66);
      }

      .cls-89 {
        fill: url(#linear-gradient-67);
      }

      .cls-90 {
        fill: #34a521;
      }

      .cls-91 {
        fill: #cfdfe8;
      }

      .cls-92 {
        opacity: 0.4;
        fill: url(#linear-gradient-68);
      }

      .cls-93 {
        fill: url(#linear-gradient-69);
      }

      .cls-95 {
        font-size: 52.67426px;
        fill: #333a3d;
        stroke: #333a3d;
        stroke-width: 1.94993px;
        font-family: AvenirLTStd-Black, Avenir LT Std;
        font-weight: 800;
      }

      .cls-96 {
        fill: url(#linear-gradient-70);
      }
    </style>
    <linearGradient id="linear-gradient" x1="516.22368" y1="402.62316" x2="937.51038" y2="402.62316" gradientUnits="userSpaceOnUse">
      <stop offset="0" stop-color="#e4edf2"/>
      <stop offset="1" stop-color="#c3d6e6"/>
    </linearGradient>
    <linearGradient id="linear-gradient-2" x1="94.95323" y1="728.95587" x2="937.51038" y2="728.95587" gradientUnits="userSpaceOnUse">
      <stop offset="0.00663" stop-color="#c4d5e6"/>
      <stop offset="1" stop-color="#dae9f2"/>
    </linearGradient>
    <linearGradient id="linear-gradient-3" x1="-881.53836" y1="584.92371" x2="-760.90729" y2="664.34912" gradientTransform="translate(1162.29787)" gradientUnits="userSpaceOnUse">
      <stop offset="0" stop-color="#fff"/>
      <stop offset="0.94545" stop-color="#fff" stop-opacity="0"/>
    </linearGradient>
    <linearGradient id="linear-gradient-4" x1="406.9347" y1="178.49786" x2="221.32955" y2="580.64236" gradientUnits="userSpaceOnUse">
      <stop offset="0" stop-color="#fff"/>
      <stop offset="0.98888" stop-color="#e6edf2"/>
    </linearGradient>
    <linearGradient id="linear-gradient-5" x1="130.68953" y1="475.30283" x2="229.3957" y2="475.30283" gradientUnits="userSpaceOnUse">
      <stop offset="0" stop-color="#62778c"/>
      <stop offset="1" stop-color="#435466"/>
    </linearGradient>
    <linearGradient id="linear-gradient-6" x1="253.20992" y1="404.56194" x2="351.93072" y2="404.56194" xlink:href="#linear-gradient-5"/>
    <linearGradient id="linear-gradient-7" x1="375.74495" y1="333.80054" x2="474.52214" y2="333.80054" xlink:href="#linear-gradient-5"/>
    <linearGradient id="linear-gradient-8" x1="130.68953" y1="407.96292" x2="486.40017" y2="407.96292" gradientUnits="userSpaceOnUse">
      <stop offset="0" stop-color="#849bb2"/>
      <stop offset="1" stop-color="#5b6f82"/>
    </linearGradient>
    <linearGradient id="linear-gradient-9" x1="502.88221" y1="302.61644" x2="120.5356" y2="509.87552" xlink:href="#linear-gradient-5"/>
    <linearGradient id="linear-gradient-10" x1="150.96961" y1="359.21147" x2="386.06947" y2="593.69265" gradientUnits="userSpaceOnUse">
      <stop offset="0" stop-color="#435466"/>
      <stop offset="1" stop-color="#62778c"/>
    </linearGradient>
    <linearGradient id="linear-gradient-11" x1="247.44812" y1="262.4784" x2="482.54798" y2="496.95957" xlink:href="#linear-gradient-10"/>
    <linearGradient id="linear-gradient-12" x1="343.93857" y1="165.73336" x2="579.03843" y2="400.21453" xlink:href="#linear-gradient-10"/>
    <linearGradient id="linear-gradient-13" x1="-71.91699" y1="147.371" x2="499.41685" y2="147.371" gradientUnits="userSpaceOnUse">
      <stop offset="0" stop-color="#5b6f82"/>
      <stop offset="1" stop-color="#849bb2"/>
    </linearGradient>
    <linearGradient id="linear-gradient-14" x1="-71.91699" y1="255.7235" x2="499.41685" y2="255.7235" xlink:href="#linear-gradient-13"/>
    <linearGradient id="linear-gradient-15" x1="-71.91699" y1="364.1482" x2="499.41685" y2="364.1482" xlink:href="#linear-gradient-13"/>
    <linearGradient id="linear-gradient-16" x1="163.80863" y1="359.66428" x2="139.67996" y2="655.7045" gradientUnits="userSpaceOnUse">
      <stop offset="0.00005" stop-color="#ffcb48"/>
      <stop offset="1" stop-color="#e68e2b"/>
    </linearGradient>
    <linearGradient id="linear-gradient-17" x1="440.98659" y1="193.71823" x2="520.17812" y2="486.97437" xlink:href="#linear-gradient-16"/>
    <linearGradient id="linear-gradient-18" x1="-4119.59572" y1="779.17211" x2="-3425.89646" y2="722.86146" gradientTransform="matrix(-1, 0, 0, 1, -3460.15637, 0)" gradientUnits="userSpaceOnUse">
      <stop offset="0.00005" stop-color="#ffb348"/>
      <stop offset="1" stop-color="#e68e2b"/>
    </linearGradient>
    <linearGradient id="linear-gradient-19" x1="498.29625" y1="286.27363" x2="560.46092" y2="286.27363" gradientUnits="userSpaceOnUse">
      <stop offset="0.00844" stop-color="#ffc63f"/>
      <stop offset="1" stop-color="#e68a23"/>
    </linearGradient>
    <linearGradient id="linear-gradient-20" x1="653.76033" y1="278.00386" x2="696.05907" y2="278.00386" xlink:href="#linear-gradient-10"/>
    <linearGradient id="linear-gradient-21" x1="666.98758" y1="242.94912" x2="692.45933" y2="312.45677" xlink:href="#linear-gradient-4"/>
    <linearGradient id="linear-gradient-22" x1="645.18652" y1="250.87825" x2="795.85837" y2="388.38251" xlink:href="#linear-gradient-8"/>
    <linearGradient id="linear-gradient-23" x1="645.50545" y1="239.79897" x2="792.00396" y2="371.33103" xlink:href="#linear-gradient-5"/>
    <linearGradient id="linear-gradient-24" x1="658.08959" y1="225.78294" x2="804.5881" y2="357.315" xlink:href="#linear-gradient-5"/>
    <linearGradient id="linear-gradient-25" x1="709.56257" y1="336.50079" x2="751.86131" y2="336.50079" xlink:href="#linear-gradient-10"/>
    <linearGradient id="linear-gradient-26" x1="719.61537" y1="300.43073" x2="750.96023" y2="370.67069" xlink:href="#linear-gradient-4"/>
    <linearGradient id="linear-gradient-27" x1="641.41659" y1="255.00919" x2="792.08845" y2="392.51344" xlink:href="#linear-gradient-8"/>
    <linearGradient id="linear-gradient-28" x1="641.33195" y1="244.44735" x2="787.83047" y2="375.97942" xlink:href="#linear-gradient-5"/>
    <linearGradient id="linear-gradient-29" x1="653.91609" y1="230.43132" x2="800.4146" y2="361.96339" xlink:href="#linear-gradient-5"/>
    <linearGradient id="linear-gradient-30" x1="765.36481" y1="326.81795" x2="807.66355" y2="326.81795" xlink:href="#linear-gradient-10"/>
    <linearGradient id="linear-gradient-31" x1="775.4176" y1="290.74789" x2="806.76247" y2="360.98785" xlink:href="#linear-gradient-4"/>
    <linearGradient id="linear-gradient-32" x1="671.59451" y1="221.9414" x2="822.26636" y2="359.44565" xlink:href="#linear-gradient-8"/>
    <linearGradient id="linear-gradient-33" x1="671.05135" y1="211.34632" x2="817.54986" y2="342.87838" xlink:href="#linear-gradient-5"/>
    <linearGradient id="linear-gradient-34" x1="683.63548" y1="197.33029" x2="830.134" y2="328.86235" xlink:href="#linear-gradient-5"/>
    <linearGradient id="linear-gradient-35" x1="432.40569" y1="471.73709" x2="479.54029" y2="595.88625" xlink:href="#linear-gradient-8"/>
    <linearGradient id="linear-gradient-36" x1="451.41633" y1="511.68045" x2="460.25406" y2="622.78343" gradientUnits="userSpaceOnUse">
      <stop offset="0" stop-color="#62788c"/>
      <stop offset="1" stop-color="#526575"/>
    </linearGradient>
    <linearGradient id="linear-gradient-37" x1="366.02066" y1="510.92601" x2="400.95077" y2="656.53825" xlink:href="#linear-gradient-36"/>
    <linearGradient id="linear-gradient-38" x1="420.16672" y1="595.72152" x2="806.92294" y2="726.6042" xlink:href="#linear-gradient-36"/>
    <linearGradient id="linear-gradient-39" x1="405.19712" y1="524.38904" x2="853.81749" y2="679.25986" xlink:href="#linear-gradient-8"/>
    <linearGradient id="linear-gradient-40" x1="454.3266" y1="502.23288" x2="720.30041" y2="763.99824" xlink:href="#linear-gradient-5"/>
    <linearGradient id="linear-gradient-41" x1="577.62635" y1="398.39219" x2="614.66068" y2="611.33957" xlink:href="#linear-gradient-36"/>
    <linearGradient id="linear-gradient-42" x1="529.97614" y1="425.36712" x2="795.94994" y2="687.13247" xlink:href="#linear-gradient-5"/>
    <linearGradient id="linear-gradient-43" x1="489.423" y1="394.73154" x2="740.2464" y2="759.18298" xlink:href="#linear-gradient-8"/>
    <linearGradient id="linear-gradient-44" x1="479.58911" y1="476.56422" x2="745.56292" y2="738.32958" xlink:href="#linear-gradient-5"/>
    <linearGradient id="linear-gradient-45" x1="716.98654" y1="471.74176" x2="767.90874" y2="664.90944" xlink:href="#linear-gradient-36"/>
    <linearGradient id="linear-gradient-46" x1="563.45603" y1="391.34896" x2="829.42984" y2="653.11432" xlink:href="#linear-gradient-5"/>
    <linearGradient id="linear-gradient-47" x1="549.52479" y1="353.36818" x2="800.34819" y2="717.81962" xlink:href="#linear-gradient-8"/>
    <linearGradient id="linear-gradient-48" x1="509.77365" y1="445.8944" x2="775.74746" y2="707.65976" xlink:href="#linear-gradient-5"/>
    <linearGradient id="linear-gradient-49" x1="404.93913" y1="587.07332" x2="661.40895" y2="779.92791" gradientUnits="userSpaceOnUse">
      <stop offset="0" stop-color="#3e4c59"/>
      <stop offset="1" stop-color="#293440"/>
    </linearGradient>
    <linearGradient id="linear-gradient-50" x1="194.63483" y1="439.46029" x2="688.70642" y2="771.08585" xlink:href="#linear-gradient-5"/>
    <linearGradient id="linear-gradient-51" x1="735.97299" y1="658.72171" x2="785.84308" y2="764.77456" xlink:href="#linear-gradient-8"/>
    <linearGradient id="linear-gradient-52" x1="752.07757" y1="693.65427" x2="789.32232" y2="755.51843" xlink:href="#linear-gradient-5"/>
    <linearGradient id="linear-gradient-53" x1="685.84014" y1="683.33928" x2="692.1528" y2="813.06463" xlink:href="#linear-gradient-36"/>
    <linearGradient id="linear-gradient-54" x1="355.17251" y1="435.80288" x2="564.72641" y2="525.13901" xlink:href="#linear-gradient-4"/>
    <linearGradient id="linear-gradient-55" x1="484.0505" y1="474.61651" x2="628.81646" y2="525.16971" xlink:href="#linear-gradient-16"/>
    <linearGradient id="linear-gradient-56" x1="468.99753" y1="517.72273" x2="613.76349" y2="568.27592" xlink:href="#linear-gradient-16"/>
    <linearGradient id="linear-gradient-57" x1="460.84219" y1="541.07668" x2="605.60814" y2="591.62987" xlink:href="#linear-gradient-16"/>
    <linearGradient id="linear-gradient-58" x1="484.24459" y1="423.82708" x2="515.39352" y2="458.8058" gradientUnits="userSpaceOnUse">
      <stop offset="0.00005" stop-color="#bca9a0"/>
      <stop offset="1" stop-color="#a68f85"/>
    </linearGradient>
    <linearGradient id="linear-gradient-59" x1="471.78393" y1="434.92343" x2="502.93287" y2="469.90215" xlink:href="#linear-gradient-58"/>
    <linearGradient id="linear-gradient-60" x1="3983.21595" y1="687.76906" x2="3933.79858" y2="740.20252" gradientTransform="matrix(-1, 0, 0, 1, 4119.06399, 0)" xlink:href="#linear-gradient-16"/>
    <linearGradient id="linear-gradient-61" x1="3919.63373" y1="631.39519" x2="3950.25858" y2="648.09965" gradientTransform="matrix(-1, 0, 0, 1, 4119.06399, 0)" gradientUnits="userSpaceOnUse">
      <stop offset="0" stop-color="#f2883c"/>
      <stop offset="0.16716" stop-color="#e97d35"/>
      <stop offset="0.67368" stop-color="#d26124"/>
      <stop offset="0.96784" stop-color="#c9571e"/>
    </linearGradient>
    <linearGradient id="linear-gradient-62" x1="3936.35635" y1="593.31354" x2="3957.39161" y2="633.68266" xlink:href="#linear-gradient-61"/>
    <linearGradient id="linear-gradient-63" x1="3986.7577" y1="657.7001" x2="3961.23699" y2="673.94055" xlink:href="#linear-gradient-61"/>
    <linearGradient id="linear-gradient-64" x1="3919.01415" y1="650.80381" x2="3952.88709" y2="664.87887" xlink:href="#linear-gradient-61"/>
    <linearGradient id="linear-gradient-65" x1="3931.41532" y1="608.69385" x2="3948.42912" y2="639.47337" xlink:href="#linear-gradient-61"/>
    <linearGradient id="linear-gradient-66" x1="4009.21157" y1="615.67233" x2="3966.36771" y2="654.1854" xlink:href="#linear-gradient-61"/>
    <linearGradient id="linear-gradient-67" x1="3985.34462" y1="595.02722" x2="3965.08272" y2="630.44687" xlink:href="#linear-gradient-61"/>
    <linearGradient id="linear-gradient-68" x1="26.42364" y1="333.27447" x2="357.88698" y2="333.27447" xlink:href="#linear-gradient-8"/>
    <linearGradient id="linear-gradient-69" x1="176.04364" y1="155.3374" x2="252.9579" y2="361.86643" xlink:href="#linear-gradient-8"/>
    <linearGradient id="linear-gradient-70" x1="110.44507" y1="293.7959" x2="344.78931" y2="293.7959" xlink:href="#linear-gradient-8"/>
  </defs>
  <g>
    <g>
      <polygon class="cls-1" points="516.224 76.29 937.51 319.511 937.51 728.956 516.224 485.713 516.224 76.29"/>
      <polygon class="cls-2" points="516.224 443.905 517.51 473.002 680.699 559.13 516.224 180.804 516.224 443.905"/>
      <polygon class="cls-3" points="516.24 76.29 94.953 319.511 94.953 728.956 516.24 485.713 516.24 76.29"/>
    </g>
    <path class="cls-4" d="M102.223,741.55987,494.4336,967.99278a43.61723,43.61723,0,0,0,43.61687-.00064L930.241,741.55565a14.53908,14.53908,0,0,0,.00017-25.18217L538.03348,489.9199a43.61721,43.61721,0,0,0-43.61994.00055L102.22215,716.37768A14.53907,14.53907,0,0,0,102.223,741.55987Z"/>
    <polygon class="cls-5" points="153.921 685.273 293.369 811.509 644.89 606.391 455.401 511.279 153.921 685.273"/>
  </g>
  <g>
    <g>
      <g>
        <g>
          <path class="cls-6" d="M118.78883,690.19911l375.9368-217.037a7.14111,7.14111,0,0,0,3.57068-6.18446V125.72583L118.78883,344.84541Z"/>
          <path class="cls-7" d="M486.40017,464.22359,130.68953,669.59l-11.878-6.85548V344.86388L474.52214,139.48552l11.878,6.85548Z"/>
          <polygon class="cls-8" points="229.396 294.727 229.396 598.895 130.69 655.879 130.691 648.999 223.444 595.463 223.444 298.163 229.396 294.727"/>
          <polygon class="cls-9" points="351.931 223.977 351.912 528.16 253.21 585.146 253.21 578.267 345.961 524.732 345.961 227.404 351.931 223.977"/>
          <polygon class="cls-10" points="474.522 153.196 474.482 457.403 375.745 514.405 375.745 507.526 468.496 453.991 468.496 156.675 474.522 153.196"/>
          <polygon class="cls-11" points="486.4 146.341 486.394 464.229 130.691 669.585 130.69 655.879 474.522 457.38 474.522 153.196 486.4 146.341"/>
          <path class="cls-12" d="M118.78873,344.8454V690.199L494.72556,473.16213a7.14112,7.14112,0,0,0,3.57069-6.18446V125.7258ZM363.8431,217.09946V534.9806L253.20992,598.85171v-317.875ZM130.69059,351.71679l110.61748-63.86814V605.723L130.69059,669.58485Zm355.7038,112.51215L375.745,528.10936V210.22757l110.64944-63.88666Z"/>
        </g>
        <polygon class="cls-13" points="241.308 605.723 229.396 598.895 229.396 294.727 241.308 287.849 241.308 605.723"/>
        <polygon class="cls-14" points="363.843 534.981 351.931 528.154 351.931 223.977 363.843 217.099 363.843 534.981"/>
      </g>
      <polygon class="cls-15" points="486.394 464.226 474.482 457.403 474.522 153.196 486.394 146.344 486.394 464.226"/>
    </g>
    <g>
      <circle class="cls-16" cx="504.30217" cy="147.371" r="8.34757"/>
      <path class="cls-17" d="M503.26194,153.27018,135.91,365.40516l-4.06721-7.04461L499.20839,146.21767l.00186.00322a2.04854,2.04854,0,0,1,2.021.21531,6.35853,6.35853,0,0,1,2.88545,4.97706A1.99562,1.99562,0,0,1,503.26194,153.27018Z"/>
      <path class="cls-3" d="M495.23109,157.88477a9.92369,9.92369,0,0,0-1.30421-3.87733,9.58173,9.58173,0,0,0-2.81968-3.13724,6.366,6.366,0,0,0-3.5955-1.19836,5.16373,5.16373,0,0,0-2.52064.65189,5.70071,5.70071,0,0,0-2.60841,5.58731l4.37088-2.52042a1.3919,1.3919,0,0,1,.75817-.19385c1.0925,0,2.44964.98687,3.36615,2.57313.96945,1.67426,1.11058,3.45437.44062,4.37088a1.39076,1.39076,0,0,1-.44062.40533,1.21941,1.21941,0,0,1-.54646.15878l-3.895,2.256a6.22184,6.22184,0,0,0,3.6837,1.30421,4.94478,4.94478,0,0,0,2.52021-.67,5.48959,5.48959,0,0,0,2.62606-4.95242C495.26638,158.396,495.24873,158.13176,495.23109,157.88477Z"/>
      <path class="cls-3" d="M473.16564,170.63827a9.92383,9.92383,0,0,0-1.3042-3.87733,9.58164,9.58164,0,0,0-2.81969-3.13724,6.36588,6.36588,0,0,0-3.5955-1.19836,5.16359,5.16359,0,0,0-2.52063.65189,5.70071,5.70071,0,0,0-2.60842,5.58731l4.37088-2.52042a1.39192,1.39192,0,0,1,.75817-.19385c1.09251,0,2.44964.98687,3.36616,2.57313.96944,1.67426,1.11057,3.45436.44061,4.37088a1.39073,1.39073,0,0,1-.44061.40533,1.21949,1.21949,0,0,1-.54647.15878l-3.895,2.256a6.22184,6.22184,0,0,0,3.68371,1.30421,4.94468,4.94468,0,0,0,2.5202-.67,5.48956,5.48956,0,0,0,2.62606-4.95241C473.20093,171.14946,473.18329,170.88526,473.16564,170.63827Z"/>
      <path class="cls-3" d="M443.35373,187.86919a9.92368,9.92368,0,0,0-1.30421-3.87734,9.58173,9.58173,0,0,0-2.81968-3.13724,6.366,6.366,0,0,0-3.5955-1.19836,5.1637,5.1637,0,0,0-2.52064.65189,5.70071,5.70071,0,0,0-2.60841,5.58731l4.37088-2.52042a1.3919,1.3919,0,0,1,.75817-.19385c1.0925,0,2.44964.98687,3.36615,2.57313.96945,1.67426,1.11058,3.45437.44062,4.37088a1.39076,1.39076,0,0,1-.44062.40533,1.21945,1.21945,0,0,1-.54646.15878l-3.895,2.256a6.22184,6.22184,0,0,0,3.6837,1.30421,4.94478,4.94478,0,0,0,2.52021-.67,5.4896,5.4896,0,0,0,2.626-4.95242C443.389,188.38037,443.37137,188.11617,443.35373,187.86919Z"/>
      <path class="cls-3" d="M141.88707,361.953a9.92384,9.92384,0,0,0-1.30421-3.87734,9.58164,9.58164,0,0,0-2.81969-3.13724,6.3659,6.3659,0,0,0-3.59549-1.19836,5.1637,5.1637,0,0,0-2.52064.65189,5.7007,5.7007,0,0,0-2.60841,5.58731l4.37088-2.52042a1.3919,1.3919,0,0,1,.75817-.19385c1.0925,0,2.44963.98687,3.36615,2.57313.96944,1.67426,1.11058,3.45437.44062,4.37088a1.391,1.391,0,0,1-.44062.40534,1.21948,1.21948,0,0,1-.54647.15877l-3.895,2.256a6.22187,6.22187,0,0,0,3.68371,1.30421,4.94474,4.94474,0,0,0,2.5202-.67,5.48959,5.48959,0,0,0,2.62606-4.95242C141.92235,362.46417,141.90471,362.2,141.88707,361.953Z"/>
      <circle class="cls-18" cx="128.8748" cy="364.1482" r="8.34757"/>
    </g>
    <path class="cls-19" d="M136.99686,370.46631a20.20362,20.20362,0,0,0,11.58727,1.46247c11.31427-2.02786,13.27451-14.983,13.27451-14.983s6.4443,3.95937,11.40471,1.89981c9.07879-3.7695,10.43062-15.6009,10.43062-15.6009-6.87817,60.9903-19.83225,122.669-37.34928,184.86459,8.9803,41.4658,14.43514,89.00633,17.99965,139.804,1.2,13.42475-11.981,19.29339-21.37457,15.97471,1.18121,9.39356-15.97471,11.64351-15.97471,5.39992V535.27846Z"/>
    <path class="cls-20" d="M137.27813,534.866l36.83363-176.43909c-.28184.14071-.54991.29475-.84853.41868-4.96037,2.05979-11.40436-1.89961-11.40436-1.89961s-.01162.35025-.09294.91845Z"/>
    <circle class="cls-3" cx="138.86122" cy="368.90356" r="2.81244"/>
    <path class="cls-3" d="M164.42473,348.9282a9.92368,9.92368,0,0,0-1.30421-3.87734,9.58173,9.58173,0,0,0-2.81968-3.13724,6.366,6.366,0,0,0-3.5955-1.19836,5.1637,5.1637,0,0,0-2.52064.65189,5.70072,5.70072,0,0,0-2.60841,5.58731l4.37088-2.52042a1.3919,1.3919,0,0,1,.75817-.19385c1.0925,0,2.44964.98687,3.36615,2.57313.96945,1.67426,1.11058,3.45437.44062,4.37088a1.3909,1.3909,0,0,1-.44062.40534,1.21944,1.21944,0,0,1-.54646.15877l-3.895,2.256a6.22184,6.22184,0,0,0,3.6837,1.30421,4.94478,4.94478,0,0,0,2.52021-.67,5.4896,5.4896,0,0,0,2.62605-4.95242C164.46,349.43938,164.44237,349.17518,164.42473,348.9282Z"/>
    <circle class="cls-3" cx="161.39888" cy="355.87877" r="2.81244"/>
    <path class="cls-3" d="M186.13345,336.39043a9.92368,9.92368,0,0,0-1.30421-3.87734,9.58172,9.58172,0,0,0-2.81968-3.13724,6.36594,6.36594,0,0,0-3.5955-1.19835,5.16369,5.16369,0,0,0-2.52063.65188,5.7007,5.7007,0,0,0-2.60842,5.58731l4.37088-2.52042a1.3919,1.3919,0,0,1,.75817-.19384c1.09251,0,2.44964.98686,3.36615,2.57313.96945,1.67425,1.11058,3.45436.44062,4.37088a1.391,1.391,0,0,1-.44062.40533,1.21941,1.21941,0,0,1-.54646.15878l-3.895,2.256a6.22184,6.22184,0,0,0,3.6837,1.30421,4.94468,4.94468,0,0,0,2.52021-.67,5.48959,5.48959,0,0,0,2.62606-4.95242C186.16874,336.90161,186.15109,336.63742,186.13345,336.39043Z"/>
    <circle class="cls-3" cx="182.9382" cy="342.86454" r="2.81244"/>
    <path class="cls-21" d="M495.9546,470.34832V319.765l-5.74-153.74179c.613,16.4199-13.03387,18.71863-20.51493,14.78118.225,15.6372-18.79492,19.11261-29.37183,15.10023,8.01823,46.25471,17.50555,94.15244,34.91581,131.77328-7.96907,63.318-10.70119,107.29-10.70119,162.75146,0,7.46231,19.68712,4.01238,19.68712-10.34984C491.14824,483.792,495.95553,477.43585,495.9546,470.34832Z"/>
    <circle class="cls-3" cx="490.57902" cy="165.91071" r="2.81244"/>
    <circle class="cls-3" cx="440.32788" cy="194.81976" r="2.81244"/>
    <path class="cls-20" d="M492.38985,479.515l-5.36151-146.99514-2.79871,147.55967C487.53124,481.85117,490.343,481.3145,492.38985,479.515Z"/>
    <path class="cls-20" d="M481.14924,181.79577a15.30717,15.30717,0,0,1-11.44955-.99136l17.32865,149.649Z"/>
    <circle class="cls-3" cx="469.56068" cy="178.73546" r="2.81244"/>
    <path class="cls-20" d="M136.59487,538.39088l6.37493,145.49719,3.19974.7416a17.589,17.589,0,0,0,7.75124-.72493Z"/>
    <path class="cls-22" d="M125.82128,534.538c6.46118,4.80916,19.28593,2.053,22.91374-6.04195"/>
    <path class="cls-22" d="M473.18826,328.50753c6.46117,4.80916,21.52457,2.625,25.108-6.33738"/>
  </g>
  <g>
    <path class="cls-23" d="M656.16716,801.69969l-274.285-158.38221a28.04175,28.04175,0,0,0-28.042-.00169L244.455,706.46119a9.34725,9.34725,0,0,0-.0023,16.18911L518.69857,881.06966a28.04175,28.04175,0,0,0,28.04888.00229L656.16716,817.889A9.34725,9.34725,0,0,0,656.16716,801.69969Z"/>
    <g class="cls-24">
      <path class="cls-25" d="M850.48057,720.74062,542.81492,543.0832a31.45449,31.45449,0,0,0-31.4547-.0019L388.66275,613.91153a10.48482,10.48482,0,0,0-.00258,18.15935L696.282,809.77a31.45448,31.45448,0,0,0,31.46244.00257l122.73616-70.87236A10.48482,10.48482,0,0,0,850.48057,720.74062Z"/>
    </g>
    <path class="cls-26" d="M599.79362,791.70874,399.18765,675.8715a15.77591,15.77591,0,0,0-15.776-.00095L300.82807,723.544a5.25864,5.25864,0,0,0-.00129,9.10778L501.405,848.51665a15.77593,15.77593,0,0,0,15.77992.00128l82.60873-47.7013A5.25864,5.25864,0,0,0,599.79362,791.70874Z"/>
  </g>
  <g>
    <g>
      <path class="cls-27" d="M552.00329,473.05006c-2.42459-5.91582-11.62148-10.32329-22.6248-10.32329s-20.20022,4.40747-22.62472,10.32329h-.64559v3.09078c0,7.4084,10.41843,13.41407,23.27031,13.41407s23.27039-6.00567,23.27039-13.41407v-3.09078Z"/>
      <ellipse class="cls-27" cx="529.37853" cy="472.59481" rx="23.27036" ry="13.41411"/>
    </g>
    <path class="cls-27" d="M526.3294,305.83135V469.812c0,.97073,1.36514,1.75766,3.04913,1.75766s3.04913-.78693,3.04913-1.75766V305.83135Z"/>
    <g>
      <path class="cls-28" d="M560.36864,293.36468h.00163l-.005-.02539a10.70268,10.70268,0,0,0-.28759-1.46535l-6.25589-31.8651h-48.8911L498.673,291.89476a10.69555,10.69555,0,0,0-.27637,1.40873l-.01211.06119h.00384a10.45643,10.45643,0,0,0-.09212,1.31034c0,9.86571,13.91607,17.86339,31.08218,17.86339,17.16641,0,31.08249-7.99768,31.08249-17.86339A10.42823,10.42823,0,0,0,560.36864,293.36468Z"/>
      <ellipse class="cls-26" cx="529.37853" cy="261.21361" rx="24.53725" ry="14.10187"/>
      <path class="cls-27" d="M520.23522,274.293a41.393,41.393,0,0,0,18.28651,0v-7.19521H520.23522Z"/>
      <ellipse class="cls-27" cx="529.37853" cy="267.09784" rx="9.1433" ry="5.27062"/>
      <path class="cls-29" d="M529.37852,248.32114c12.863,0,23.32773,5.78351,23.32773,12.89243s-10.46471,12.89254-23.32773,12.89254-23.32773-5.78361-23.32773-12.89254,10.46472-12.89243,23.32773-12.89243m0-1.20942c-13.55149,0-24.53724,6.31364-24.53724,14.10185,0,7.78832,10.98575,14.10195,24.53724,14.10195s24.53725-6.31363,24.53725-14.10195c0-7.78821-10.98576-14.10185-24.53725-14.10185Z"/>
    </g>
  </g>
  <g>
    <g>
      <polygon class="cls-30" points="696.059 258.161 653.76 233.701 653.76 297.846 696.059 322.307 696.059 258.161"/>
      <polygon class="cls-31" points="696.059 261.504 662.912 242.336 662.912 292.603 696.059 311.772 696.059 261.504"/>
      <path class="cls-32" d="M657.55347,240.27582l34.71246,20.07379v55.3823L657.55347,295.6581V240.27582m-3.79314-6.57525V297.8463l42.29874,24.46086V258.16141l-42.29874-24.46084Z"/>
      <polygon class="cls-33" points="702.908 318.364 702.908 254.218 696.059 258.161 696.059 322.307 702.908 318.364"/>
      <polygon class="cls-34" points="702.908 254.218 660.595 229.766 653.76 233.701 696.059 258.161 702.908 254.218"/>
    </g>
    <g>
      <polygon class="cls-35" points="751.861 316.658 709.563 292.198 709.563 356.343 751.861 380.804 751.861 316.658"/>
      <polygon class="cls-36" points="751.861 320.001 718.714 300.833 718.714 351.1 751.861 370.269 751.861 320.001"/>
      <path class="cls-37" d="M713.35571,298.77275l34.71246,20.07379v55.3823L713.35571,354.155V298.77275m-3.79314-6.57525v64.14573l42.29874,24.46086V316.65834L709.56257,292.1975Z"/>
      <polygon class="cls-38" points="758.711 376.861 758.711 312.715 751.861 316.658 751.861 380.804 758.711 376.861"/>
      <polygon class="cls-39" points="758.711 312.715 716.397 288.263 709.563 292.198 751.861 316.658 758.711 312.715"/>
    </g>
    <g>
      <polygon class="cls-40" points="807.664 306.976 765.365 282.515 765.365 346.66 807.664 371.121 807.664 306.976"/>
      <polygon class="cls-41" points="807.664 310.319 774.517 291.15 774.517 341.417 807.664 360.586 807.664 310.319"/>
      <path class="cls-42" d="M769.158,289.08991,803.8704,309.1637V364.546L769.158,344.47219V289.08991m-3.79314-6.57525v64.14573l42.29873,24.46086V306.9755l-42.29873-24.46084Z"/>
      <polygon class="cls-43" points="814.513 367.178 814.513 303.032 807.664 306.976 807.664 371.121 814.513 367.178"/>
      <polygon class="cls-44" points="814.513 303.032 772.2 278.58 765.365 282.515 807.664 306.976 814.513 303.032"/>
    </g>
  </g>
  <g>
    <g>
      <g>
        <path class="cls-45" d="M364.49971,511.12512l3.87691,15.03171,27.99186,108.46848a.57666.57666,0,0,0,.15394.01393c.16794.014.33589.014.48991.014a15.90326,15.90326,0,0,0,7.97761-2.14134l2.70121-1.55352.79777-.46189,113.91293-65.83693,1.21764-.6998a8.37611,8.37611,0,0,0,4.19878-7.26389V472.06251c.028-8.70543-3.93286-19.72031-10.44091-27.642-4.12882-5.0385-9.27931-8.81742-15.08766-9.97911a10.47588,10.47588,0,0,0-6.96995,1.09173h-.014c-.112.05595-.196.13992-.308.20988v-.02793l-130.48407,75.41Z"/>
        <path class="cls-46" d="M520.88894,467.22318v.03143c.12609-.07876.22065-.17332.34665-.23628h.01581a11.30712,11.30712,0,0,1,5.93562-1.41412,34.91765,34.91765,0,0,1,.63129,6.45826v84.63337a8.37611,8.37611,0,0,1-4.19878,7.26389l-1.21764.6998L408.489,630.49646l-.79778.46189L404.99,632.51187a15.90323,15.90323,0,0,1-7.97761,2.14134c-.154,0-.322,0-.48991-.014a.57655.57655,0,0,1-.15393-.01393l-21.43282-83.05208Z"/>
        <path class="cls-47" d="M368.22268,547.6965v67.99227c0,.182,0,.37792.014.55988a8.42328,8.42328,0,0,0,4.18477,6.718l11.53264,6.63406,5.05251,2.91117.084.042a15.8356,15.8356,0,0,0,7.2779,2.07145.57666.57666,0,0,0,.15394.01393c.16794.014.33589.014.48991.014V547.65456c.04194-10.371-5.58445-24.01707-14.44382-31.81273a28.54472,28.54472,0,0,0-3.21913-2.47731,22.255,22.255,0,0,0-7.86571-3.331,10.47638,10.47638,0,0,0-6.97,1.09164h-.014c-3.83487,2.22539-5.31843,6.8161-5.52841,11.05682C358.48148,530.14563,362.44235,540.53059,368.22268,547.6965Z"/>
      </g>
      <g>
        <path class="cls-48" d="M407.441,622.47432,692.093,787.031l132.143-85.402L771.627,671.27328,539.48244,536.81275,411.86456,551.76488a20.54255,20.54255,0,0,0-1.47828,2.223,21.78265,21.78265,0,0,0-2.92275,10.91228Z"/>
        <path class="cls-49" d="M410.38628,553.98792,692.12681,717.17913,771.627,671.27328l42.38151-32.98266L529.24367,473.47442,420.41833,544.82481l-2.0764,1.19617-.0113.01129a21.63935,21.63935,0,0,0-6.46607,5.73261A20.54255,20.54255,0,0,0,410.38628,553.98792Z"/>
        <path class="cls-50" d="M626.6227,589.25568l-70.05143,40.76a15.40729,15.40729,0,0,0-7.71442,12.94466l-.54454,31.7654-6.266-3.614-.00051-29.18624a20.50007,20.50007,0,0,1,10.028-17.62412l66.96075-39.78867Z"/>
        <g>
          <path class="cls-51" d="M506.49368,412.1926l.687-.78608c5.04777-5.776,18.92587-13.03358,27.82237-14.11393,8.22342-.99862,12.325.65627,19.02949,4.27032l94.225,54.49858A35.46222,35.46222,0,0,1,664.99823,495.13L643.57131,583.7266Z"/>
          <path class="cls-52" d="M590.25141,526.62128l73.09544-50.662a35.38569,35.38569,0,0,1,.96435,19.95676L642.61048,588.9004l-29.38674-.93467-33.71146-51.77718A35.38158,35.38158,0,0,1,590.25141,526.62128Z"/>
          <path class="cls-53" d="M613.22371,587.96579l21.42692-88.59657A35.46218,35.46218,0,0,0,617.91,460.30067l-88.042-51.01179a19.45231,19.45231,0,0,0-28.62708,12.26652l-20.26423,83.78794a7.37314,7.37314,0,0,0,3.474,8.1151Z"/>
          <path class="cls-54" d="M613.22374,587.96573,484.04452,513.22346A6.7418,6.7418,0,0,1,480.86876,505.8l1.02915-4.24623.22278-.94064L615.6615,577.90761Z"/>
        </g>
        <g>
          <path class="cls-55" d="M648.38091,494.0847l.687-.78608c5.04778-5.776,18.92588-13.03358,27.82237-14.11394,8.22342-.99861,12.325.65628,19.02949,4.27033l103.59528,59.93165a35.46222,35.46222,0,0,1,16.74063,39.06854L794.8288,671.05177Z"/>
          <path class="cls-56" d="M762.15983,618.51174l50.87424-29.37121c.343-.21237,1.09438-.58815,1.09438-.58815.23312-.10823.4759-.19084.71688-.278l-19.7221,81.56229Z"/>
          <path class="cls-57" d="M765.16823,674.50488l21.42693-88.59658a35.4622,35.4622,0,0,0-16.74064-39.06855l-97.41227-56.44486a19.45231,19.45231,0,0,0-28.62707,12.26653L622.25569,591.805Z"/>
          <polygon class="cls-58" points="765.168 674.505 622.256 591.805 624.701 581.717 767.608 664.44 765.168 674.505"/>
        </g>
        <polygon class="cls-59" points="407.464 630.958 674.438 785.447 674.438 747.739 407.464 593.25 407.464 630.958"/>
        <polygon class="cls-60" points="407.464 602.324 674.438 756.813 674.438 741.498 407.464 587.009 407.464 602.324"/>
      </g>
      <g>
        <path class="cls-61" d="M675.44182,691.76667l23.28925,117.7478c.16795.014.33589.014.48983.014a15.9031,15.9031,0,0,0,7.9777-2.14142l2.7012-1.55353,113.87425-65.73732a8.3819,8.3819,0,0,0,4.19878-7.2779V665.94578s3.65291-2.14142,3.72288-2.18336c7.43183-4.29676,7.41782-18.22274-.014-31.11294-7.20786-12.48443-18.74058-19.38442-26.21436-15.91345,0,0-.64384.322-.9377.50392L676.7014,691.03885Z"/>
        <polygon class="cls-62" points="695.177 752.876 696.6 741.759 827.976 665.987 827.976 676.283 695.177 752.876"/>
        <path class="cls-63" d="M670.43125,703.67722v86.8867a8.38189,8.38189,0,0,0,4.19878,7.2779l11.53264,6.63406,5.05251,2.91118.084.042a15.907,15.907,0,0,0,7.43192,2.08538c.16795.014.33589.014.48983.014V739.25486a9.27455,9.27455,0,0,0,3.72288-1.16168c7.43184-4.29677,7.41791-18.22265-.01393-31.11294-7.20794-12.48435-18.75458-19.41235-26.22845-15.94139-.2379.112-.47581.224-.71372.36391a6.156,6.156,0,0,0-.54586.36391C672.11078,693.992,670.43125,698.3587,670.43125,703.67722Z"/>
      </g>
    </g>
    <path class="cls-64" d="M468.78181,543.75625l-.64691,7.7159L405.1086,494.698c1.84312,24.88909,10.536,47.09713,20.02494,65.99477,4.32326,5.611,17.99864,10.16688,30.55008,5.49728a19.46986,19.46986,0,0,1,17.65448,1.7883s55.33989,41.147,94.23986,61.64088,118.32353,56.04772,118.32353,56.04772l9.43034-5.38405Z"/>
    <path class="cls-65" d="M511.37759,417.90723a9.2157,9.2157,0,0,0,.735-1.83848c.93721-3.45483-.19929-6.76982-2.53853-7.40441-2.339-.63458-4.99515,1.65159-5.93235,5.10632a9.40645,9.40645,0,0,0-.26612,1.45907c-11.72642,5.94088-38.753,34.37269-38.753,34.37269-21.82479,2.72844-41.5838,11.38661-59.733,24.66536a12.72843,12.72843,0,0,0-6.14888-1.00887c-4.86325.3249-8.652,2.888-8.46256,5.72493.18942,2.83709,4.2857,4.87351,9.14876,4.54872a14.839,14.839,0,0,0,2.17384-.31183c6.85058,26.19174,20.763,50.30551,42.50086,72.11663-.03641.036-.07572.06392-.11214.10052-3.43429,3.45861-4.583,7.88637-2.56526,9.88987,2.01774,2.00341,6.43727.82381,9.87157-2.63479a12.97578,12.97578,0,0,0,3.09865-4.83071c34.98326-3.24943,85.31723-40.83127,96.19011-73.30795C543.38537,458.48981,529.79906,436.61322,511.37759,417.90723Z"/>
    <polygon class="cls-66" points="450.805 452.18 461.251 484.213 461.809 521.577 493.68 479.43 465.811 447.102 450.805 452.18"/>
    <path class="cls-67" d="M525.08559,471.50525c15.46449,2.14167,58.925,30.4835,58.925,30.4835,6.985,5.40563-1.781,21.795-9.83986,22.05784l-14.23328-12.82384-56.2445-38.15455S511.75012,469.65843,525.08559,471.50525Z"/>
    <polygon class="cls-68" points="550.723 504.972 559.937 511.223 568.47 518.911 573.074 512.426 545.124 491.585 550.723 504.972"/>
    <ellipse class="cls-69" cx="577.21722" cy="512.42591" rx="10.7226" ry="6.44053" transform="translate(-150.0002 771.10495) rotate(-61.17816)"/>
    <path class="cls-70" d="M582.79248,504.06235c11.09044,5.69907,12.01991,7.5602,17.29414,13.01235L589.4,531.53649l-15.30779-11.24985C566.349,515.0665,577.669,501.58762,582.79248,504.06235Z"/>
    <path class="cls-71" d="M456.09879,537.96748c0-23.74468,13.30062-47.82352,33.0446-59.12041,10.67963-6.11055,21.60634-7.88153,31.04517-6.57271a27.20381,27.20381,0,0,1,19.32407,11.40672l17.7033,24.93921,19.50058,11.33559,21.65876,17.42268c13.20429,21.9018-28.702,83.81125-57.4244,69.31915-10.33426-5.46826-31.2243-21.6624-31.2243-21.6624s-44.07431-36.66433-51.21125-53.10769Z"/>
    <path class="cls-68" d="M522.59833,547.478l-41.41357-25.23535,10.85205,47.26807c9.71411,8.8894,17.68969,15.52465,17.68969,15.52465s8.15821,6.32422,16.80005,12.40284l1.292-9.47242,20.35157-47.59594Z"/>
    <polygon class="cls-68" points="493.834 510.233 503.693 503.946 512.807 499.445 518.032 489.117 522.598 484.909 505.307 481.878 494.847 490.67 493.834 510.233"/>
    <path class="cls-72" d="M601.84875,539.49315c10.10532,9.55489,5.03281,31.47646-11.44026,49.08069s-38.0592,24.17216-48.214,14.66987-5.0328-31.47646,11.44026-49.08069S589.03206,527.37458,601.84875,539.49315Z"/>
    <ellipse class="cls-72" cx="690.86888" cy="560.45928" rx="12.74652" ry="21.72781" transform="translate(-78.41372 113.67219) rotate(-8.90295)"/>
    <path class="cls-73" d="M747.00317,652.18707l-25.22585-99.23566c-2.95524-13.62055-16.85158-20.03939-31.91907-16.86408l-76.0253,5.69548,5.73816,39.53318,13.09773,22.36379,48.67521-15.01284s19.12814,45.376,33.37436,73.25493Z"/>
    <path class="cls-69" d="M689.48158,618.10308l-68.37972-39.22249L613.833,541.78281l-15.3979-6.515C585.388,529.05772,558.7867,546.24948,546.7414,566.526c-9.15715,15.41452-10.93763,32.81242,1.62032,40.20542,14.23446,8.91127,110.35855,51.54966,110.35855,51.54966s53.44521,33.91051,87.74924,48.36228c7.84075,3.82541,23.9891-24.59831,16.7389-32.13852C763.20841,674.50488,692.13441,619.549,689.48158,618.10308Z"/>
    <g>
      <path class="cls-74" d="M481.18486,522.24278c-19.06789-13.82849-30.8764,13.17151-22.16079,28.63,7.56253,13.41329,32.58226,27.62664,32.58226,27.62664,15.51064,9.19149,34.41725-15.21331,24-26.29787Z"/>
      <ellipse class="cls-75" cx="504.44835" cy="565.07872" rx="15.461" ry="9.29579" transform="translate(-252.27659 598.98257) rotate(-50.80989)"/>
    </g>
    <path class="cls-76" d="M751.071,699.802c-4.36946-3.26742,1.02544-18.61085,5.68448-17.66949,0,0,3.5569-6.46088,8.44857-15.35276,0,0,1.22994-2.50928,2.22752-4.17611,2.18821-3.65623,10.41824-8.40772,13.6515-7.80939,3.12618.57852,5.40758,4.6193,3.78353,10.47746-.63574,7.66732-1.07014,16.26706-5.6254,23.37093-4.80384,7.49153-2.43051,19.152-12.26091,19.172C760.74136,707.82735,751.071,699.802,751.071,699.802Z"/>
    <path class="cls-76" d="M496.1207,574.38874s8.49949,7.83377,18.20161,10.41535c15.34909,4.08414,48.19416-47.28977,48.19416-47.28977l-9.41411-6.80131L515.787,558.63794l-2.47852-2.67046C506.41715,549.023,488.8705,565.54141,496.1207,574.38874Z"/>
    <path class="cls-76" d="M565.59944,518.48722l7.53,9.21415s7.6086,4.32108,20.91188,5.1329c13.03257.79529,12.38335-19.85215-4.57232-19.85215C573.56871,512.98212,565.59944,518.48722,565.59944,518.48722Z"/>
    <path class="cls-76" d="M547.50113,536.39923s2.41319-7.64116,6.18105-11.48773c2.5013-2.55356,5.34917-1.71751,9.39145-2.08379,6.66228-.60367,15.96932,6.25416,11.7932,11.1843s-10.89008,10.72142-17.57965,10.72142Z"/>
    <path class="cls-70" d="M563.07368,522.82772c-4.04208.36627-6.89017-.46976-9.39129,2.08383-.17083.17426-.33544.36427-.50049.55306a5.01251,5.01251,0,0,0-.45257,2.0125c0,4.63786,1.72287,10.78617,7.26953,11.83241,2.45409.46289,8.62059-3.07416,10.67269-3.07416q1.218,0,2.32853-.07831c.65179-.72666,1.277-1.449,1.86663-2.14505C579.04279,529.08186,569.7358,522.22407,563.07368,522.82772Z"/>
    <path class="cls-76" d="M583.21906,525.19577c0,6.68957-4.38873,8.29423-11.0783,8.29423-2.05181,0-8.21835,3.537-10.6723,3.07408-5.54674-1.04623-6.84419-5.22251-6.84419-9.86027,0-6.68957,12.741-11.89033,19.43054-11.89033S583.21906,518.5062,583.21906,525.19577Z"/>
    <g>
      <path class="cls-77" d="M512.80734,499.44511l1.985-11.23834a2.70959,2.70959,0,0,1,2.36142-2.14094l4.42827-.546a1.27274,1.27274,0,0,0,.77737-2.2392c-6.3597-4.7927-14.13736-8.97273-21.04643-7.36677l-8.98257,1.57208,14.28068,7.74862Z"/>
      <path class="cls-76" d="M512.80734,499.44511l-12.12162-3.37629s-23.31035,2.29327-23.77593-3.21635c-.459-5.43136,5.68666-11.72452,15.30618-13.66242C510.90527,475.425,512.80734,499.44511,512.80734,499.44511Z"/>
      <path class="cls-70" d="M508.191,485.61976c1.56674,10.32178-24.7394,11.88639-25.73414,6.1559l-5.582-22.333,18.39626-.58591Z"/>
      <path class="cls-77" d="M512.80734,499.44511l-12.434,1.65776a3.98647,3.98647,0,0,0-3.13327,2.31116l-2.43728,5.64293a2.904,2.904,0,0,1-4.43174,1.10775c-4.99914-4.22372-14.72907-13.03774-15.40115-18.18315-.90725-6.94589,4.15249-13.60528,4.15249-13.60528,2.81685,8.94059,15.34467,14.64535,19.50856,15.57841S512.80734,499.44511,512.80734,499.44511Z"/>
    </g>
    <g>
      <path class="cls-78" d="M502.713,435.57648c6.936,6.23541,8.59873,18.73136,4.46375,23.14429l-8.615-20.44094Z"/>
      <path class="cls-76" d="M502.1124,483.65733c-10.97188,1.8751-16.07725-.579-20.57645-9.75879l-9.69473-19.86244c-4.13475-7.90334-2.488-19.45447,7.08634-23.4458,8.36787-3.48838,19.88731-.17409,23.75616,9.09383a203.00279,203.00279,0,0,1,7.07979,21.10247C512.22176,470.38956,512.08345,481.95327,502.1124,483.65733Z"/>
      <path class="cls-70" d="M480.8569,451.06832c5.70682-3.85808,15.01906-1.66317,22.88048-8.66913-.64116-1.68832-1.05366-2.71513-1.05366-2.71513a15.82826,15.82826,0,0,0-2.12757-3.61281l-20.5026,11.507Z"/>
      <path class="cls-79" d="M480.80772,481.87826a94.26117,94.26117,0,0,1-12.56017-11.53143c-7.19006-7.70159-9.811-17.70224-6.05924-26.51978,2.717-6.38557,8.51784-12.10994,18.18825-14.62428,12.92093-3.35948,22.05535.98329,22.05535.98329s4.17451,2.19486-.47652,7.57273A25.7922,25.7922,0,0,1,490.732,444.518c-3.88755,1.08748-9.115,3.74154-9.90842,7.06819-1.10066,4.61467,4.44427,9.0659,3.27361,13.64073-.44174,1.7263-3.02152,1.72512-3.02152,1.72512l-.172,5.55147Z"/>
      <path class="cls-76" d="M482.94324,477.312c-3.3609,1.52716-8.32245-1.88006-10.0554-5.69385s.11071-8.52388,3.77983-8.11711C481.27361,464.01163,486.30414,475.7848,482.94324,477.312Z"/>
    </g>
  </g>
  <g>
    <g>
      <path class="cls-69" d="M516.75786,720.80508l-18.83206,9.08683s-11.97794,6.02392-19.31781,13.913c-7.12411,7.65717,3.56825,16.41542,17.85468,13.01,12.05118-2.87259,15.47191-7.99777,20.38941-11.85914,4.91786-3.86126,10.12591-4.72361,15.20482-10.3915,3.42491-3.82209,6.34151-8.54557-.928-12.83769A16.22065,16.22065,0,0,0,516.75786,720.80508Z"/>
      <path class="cls-80" d="M478.90426,744.10638c-1.85905,3.58542.25531,6.57447,4.21276,8.7697,6.1943,3.436,15.68181.9793,21.02176-1.62924s7.42926-4.48889,11.22332-8.253c0,0,1.80664-4.87524-3.97147-10.48671-5.66869-5.5052-12.3566-6.669-15.10139-5.2124C490.64375,730.73617,480.6443,738.38356,478.90426,744.10638Z"/>
    </g>
    <g>
      <path class="cls-69" d="M543.39218,735.382l-18.83206,9.08682s-12.14116,5.87516-19.31781,13.913c-4.74107,5.31,2.77186,15.67169,17.85468,13.01,12.2003-2.153,15.47191-7.99777,20.38941-11.85915,4.91786-3.86126,10.66283-4.57721,15.06666-10.78419,3.121-4.39891,6.0277-9.41657-1.59509-13.10748S543.39218,735.382,543.39218,735.382Z"/>
      <path class="cls-80" d="M505.9893,756.08511c-1.1829,4.27715.48942,7.91932,5.85113,10.97872,6.15236,3.51055,14.04675.76355,19.88508-1.80971s7.50158-4.35755,11.22332-8.25277a20.15044,20.15044,0,0,0-6.21314-11.91944c-5.66869-5.50521-12.20842-5.23643-14.95322-3.77982C516.321,745.68533,508.85031,751.38179,505.9893,756.08511Z"/>
    </g>
  </g>
  <g>
    <g>
      <path class="cls-81" d="M130.35437,692.3471l57.44734.137-7.27143,44.96719c-.61616,6.5271-9.993,11.71465-21.50366,11.71465-11.51124,0-20.8875-5.18755-21.50365-11.71465Z"/>
      <ellipse class="cls-26" cx="159.09298" cy="690.32603" rx="28.95033" ry="16.63812"/>
      <path class="cls-82" d="M133.97581,698.59227c4.9962,5.01961,14.38494,8.36607,25.12173,8.36607s20.125-3.34646,25.12174-8.36607c-3.184-6.22809-13.223-10.783-25.12174-10.783S137.15985,692.36418,133.97581,698.59227Z"/>
      <path class="cls-29" d="M159.09292,677.64312c14.72991,0,24.99523,6.6841,24.99523,12.6829,0,5.99886-10.26532,12.683-24.99523,12.683s-24.99523-6.6841-24.99523-12.683c0-5.9988,10.26532-12.6829,24.99523-12.6829m0-3.95519c-15.98881,0-28.95036,7.4491-28.95036,16.63809s12.96155,16.63815,28.95036,16.63815,28.95036-7.44916,28.95036-16.63815-12.96154-16.63809-28.95036-16.63809Z"/>
    </g>
    <path class="cls-83" d="M168.41465,651.62747c13.57247-2.08925,40.28563-10.896,34.695-20.97089S171.51967,632.21934,168.41465,651.62747Z"/>
    <path class="cls-82" d="M162.45752,694.04834a1.06856,1.06856,0,0,0,1.069-1.06866c0-28.84822,5.24942-47.65551,17.55331-62.88758a1.06892,1.06892,0,0,0-1.66337-1.343c-12.63615,15.64389-18.028,34.85254-18.028,64.23055A1.06855,1.06855,0,0,0,162.45752,694.04834Z"/>
    <path class="cls-82" d="M157.66321,694.04834a1.06856,1.06856,0,0,0,1.069-1.06866c0-27.17089,0-64.38342-13.64827-81.28025a1.06892,1.06892,0,0,0-1.66336,1.343c13.17362,16.3098,13.17362,53.08467,13.17362,79.93727A1.06855,1.06855,0,0,0,157.66321,694.04834Z"/>
    <path class="cls-82" d="M157.16064,664.88113a1.069,1.069,0,0,0,1.06448-.98141c1.773-21.72918,6.48245-36.49776,14.82128-46.47657a1.06889,1.06889,0,0,0-1.64034-1.3709c-8.63583,10.3341-13.501,25.4831-15.312,47.673a1.06893,1.06893,0,0,0,.97861,1.15243C157.10236,664.88043,157.13168,664.88113,157.16064,664.88113Z"/>
    <path class="cls-84" d="M161.83822,636.7448c12.86045-9.6231,33.73344-34.95853,22.42018-42.28251S154.36642,615.00316,161.83822,636.7448Z"/>
    <path class="cls-85" d="M157.15956,675.07762c-10.76033-1.42016-31.43676-9.45168-27.19036-17.50781S154.37605,659.79432,157.15956,675.07762Z"/>
    <path class="cls-82" d="M157.61959,681.87358c.02548,0,.0513-.0007.07713-.00279a1.06846,1.06846,0,0,0,.99013-1.142c-1.33041-18.61534-9.62631-38.26653-22.90812-39.80775a1.0688,1.0688,0,1,0-.2464,2.12336c12.1266,1.4072,19.7545,20.09932,21.02209,37.83655A1.06859,1.06859,0,0,0,157.61959,681.87358Z"/>
    <path class="cls-82" d="M162.90809,680.16624a1.06973,1.06973,0,0,0,1.06063-.94791c1.38452-12.08471,12.506-20.66819,18.15221-22.57726a1.06912,1.06912,0,0,0-.68475-2.02564c-6.09436,2.06124-18.09776,11.32249-19.59151,24.36a1.06863,1.06863,0,0,0,.94022,1.18313A1.05092,1.05092,0,0,0,162.90809,680.16624Z"/>
    <path class="cls-86" d="M168.41465,665.41815c11.35611-.1213,34.63729-3.84015,31.23994-12.74286S173.22906,649.89267,168.41465,665.41815Z"/>
    <path class="cls-87" d="M172.508,640.91783c9.56291-7.7487,25.34693-27.39454,16.46772-32.66816S166.14406,624.49088,172.508,640.91783Z"/>
    <path class="cls-88" d="M150.95771,653.95328c-17.69964-4.74187-50.545-22.72966-41.66651-35.28165S149.657,627.75884,150.95771,653.95328Z"/>
    <path class="cls-89" d="M153.40237,632.71868c-12.03752-9.00734-32.20267-30.18573-21.61333-37.04106S160.39607,612.36825,153.40237,632.71868Z"/>
  </g>
  <g>
    <g>
      <path class="cls-90" d="M227.60767,94.46427a198.65236,198.65236,0,1,1-77.5835,15.6571,198.06642,198.06642,0,0,1,77.5835-15.6571m0-18.1738c-120.12525,0-217.50611,97.38079-217.50611,217.5061s97.38086,217.5061,217.50611,217.5061c120.12548,0,217.5061-97.38079,217.5061-217.5061s-97.38062-217.5061-217.5061-217.5061Z"/>
      <circle class="cls-91" cx="227.60775" cy="293.79658" r="201.18409"/>
      <path class="cls-92" d="M30.45263,253.55517a202.09828,202.09828,0,0,0-4.029,40.24157c0,111.11065,90.07319,201.18385,201.18418,201.18385a200.55068,200.55068,0,0,0,77.57048-15.50788L357.887,376.76057,131.84288,171.56836Z"/>
    </g>
    <g>
      <circle class="cls-93" cx="227.60775" cy="293.79658" r="154.4352"/>
      <circle class="cls-94" cx="227.60775" cy="293.79658" r="122.22836"/>
      <g>
        <g>
          <text class="cls-95" transform="translate(146.09518 295.4621)">20</text>
          <text class="cls-95" transform="translate(219.36764 295.46405)">min</text>
        </g>
        <text class="cls-95" transform="translate(175.69967 337.22284)">max</text>
      </g>
      <path class="cls-96" d="M227.60767,176.55807l-.05274,0h-.01587l-.03735,0-.01953,0-.03565,0-.01562,0-.04346.00007-.01,0q-.79578.00153-1.58911.01364l.24878,16.35449q.784-.01188,1.57056-.01191V176.55807Zm-12.69922.67981q-.9049.09749-1.804.20842l2.00293,16.23334q.77454-.09546,1.55249-.17935l-1.75146-16.26244Zm-12.54932,2.04577q-.88879.19509-1.77246.40356l3.75537,15.91951q.75952-.17926,1.52368-.34694l-3.50659-15.97613ZM190.10645,182.684c-.14551.04908-.29371.09939-.439.149l-.04492.01541-.00049.0002q-.61779.21146-1.23242.42953l5.47021,15.41457q.735-.26079,1.47535-.51057l-5.22876-15.4982Zm-11.80762,4.71661c-.50464.23419-1.01245.47449-1.51319.71562l-.01123.00548-.02758.01332-.03394.01636-.00684.00331-.05029.02418,7.11768,14.72672q.70313-.34,1.41235-.66922l-6.887-14.83579Zm-11.22534,5.974c-.18286.11046-.36866.22331-.55078.33475l-.02027.01237-.01831.01119q-.40722.24935-.81225.50189l-.00611.00369-.02978.01868-.11084.06912,8.67358,13.86742q.66247-.41444,1.332-.81893l-8.45727-14.00023Zm-10.51172,7.1546-.00635.00473-.02856.02179-.01294.00987-.03785.029-.01855.01426-.021.01605-.02075.01577-.01806.01385-.02393.0183-.00366.00285-.06031.04625-.00708.00546-.02929.02252-.00879.00675c-.16016.12289-.324.24943-.4834.37314l-.00049.00035-.09741.07573-.00928.00731-.02441.01893-.02027.01573-.01757.0138q-.2439.1899-.48633.381l10.12036,12.84942q.61451-.48406,1.23682-.95871l-9.9209-13.00415Zm-9.67871,8.24695c-.15943.15135-.32154.30634-.48023.45857l-.00049.00049-.02807.02716-.00806.00766-.02515.02413-.01.00961-.05.0482-.00611.0058-.02368.02292-.01172.01137-.02319.02243-.012.01135-.11744.11351-.0017.00171c-.17115.16556-.34009.3302-.51026.49679l11.44556,11.68479q.5592-.54772,1.12671-1.08679l-11.26416-11.85972Zm-8.73462,9.24106-.01929.02278-.002.0023-.0232.02755-.02.02354-.01049.01245q-.40211.475-.79883.95422l-.00611.00712-.02319.02819-.01953.02343-.00269.00325c-.07934.096-.16015.194-.23925.29033l12.637,10.38462q.49695-.60472,1.00317-1.20157l-12.47558-10.57821Zm-7.688,10.12829q-.50976.7532-1.00732,1.51279l13.68408,8.95992q.42846-.65454.86694-1.30208l-13.5437-9.17064Zm-6.5481,10.9q-.29553.55845-.58545,1.12141l-.0166.03191-.00439.00865q-.11573.22513-.23071.45081l14.5747,7.42364q.35485-.69664.72-1.387l-14.45752-7.64943Zm-5.32544,11.5462q-.06225.1566-.124.31346l-.00342.00917-.01416.036-.00732.01826-.00928.02355-.042.10721v.00012l-.01611.04136-.00025.00065c-.042.1076-.08252.2115-.12427.31927l-.00756.0199-.00928.024-.0105.02681-.00684.01766q-.14208.36819-.28222.73757l15.29663,5.79228q.27686-.73115.5647-1.45679l-15.20411-6.0305Zm-4.03564,12.05907q-.04431.16072-.08789.32162l-.00659.02454-.00464.01688c-.12549.46221-.24878.92767-.36865,1.39212l15.8374,4.08834q.1952-.75654.40185-1.50842l-15.77148-4.33508Zm-2.69556,12.42523c-.07519.46884-.148.94089-.21777,1.41156l-.00684.04642-.00122.00778-.04834.33157,16.18824,2.34046q.11205-.775.23584-1.54615l-16.14991-2.59164Zm-1.33178,12.64679q-.0099.19345-.01929.38708l-.001.01871-.001.02295q-.033.69141-.05762,1.38553l16.34619.5838q.02783-.78378.06763-1.56445l-16.335-.83362Zm16.36132,11.80554-16.33105.91239q.01758.30912.03613.61782l.00122.01752.00171.02872.00195.02994.00074.0137c.0188.30353.03882.60831.05981.91119l.00122.01544.002.02713.0017.02729.00171.02173.00244.03646.001.01383.00366.05215,16.31519-1.16293q-.05567-.77957-.09937-1.56238Zm1.19922,10.881-16.1372,2.67035c.02587.15479.05224.31238.07836.46695l.00416.02439.00317.01916q.07543.44307.154.885l.0022.01172.00561.03192.00513.02948.00073.00375c.0188.10526.03833.21311.05738.31827l16.0935-2.92108q-.13953-.768-.26709-1.53992Zm2.36963,10.67066-15.75024,4.41241q.24573.876.50415,1.74607l15.6792-4.658q-.2223-.74786-.43311-1.50049Zm3.51856,10.34591-15.17432,6.10486.01172.02939.00659.01618.00855.02111.012.02988.00708.01715.01636.041.00195.00445q.13806.34158.27808.68213l.001.00232.01978.048.002.00512.0188.04541.00268.00672.02.04809.0066.01636.01171.028.01075.02582.008.01981.01245.02972.0022.0058c.07837.18906.154.36984.23316.55838l15.07739-6.34091q-.30249-.71957-.59448-1.4448Zm4.62768,9.90537-14.41992,7.71985q.34827.65076.70459,1.29657l.00171.00278.02222.04019.00927.01706.0127.023.01391.02487.0022.00418c.03565.0646.06763.12207.10352.18658l14.29834-7.94293q-.3794-.6828-.74854-1.37213Zm5.68018,9.35129-13.499,9.23626q.51307.75024,1.03785,1.4921l13.35473-9.44388q-.4519-.63867-.89355-1.28448Zm6.66211,8.68893L138.51855,370.01c.39332.45926.79224.91818,1.19263,1.37128l12.25855-10.82865q-.51819-.58648-1.0271-1.18106Zm7.56152,7.92307-11.20654,11.91406c.21338.20077.4226.39612.63745.59531l.0061.00567.02759.02555.03442.03179.002.00177.03759.03489.00538.00491q.26842.248.53808.49429l.022.02.01026.00934.01245.01151,11.02173-12.08533q-.57825-.52749-1.14844-1.06372Zm8.36987,7.06213-9.85791,13.052q.54237.40961,1.08936.813l.00928.00687.033.02417.01147.00842.03223.02374.01123.00827.04.02954.01294.00953.02807.02053.01611.01185.02735.02011.01538.01123.03589.02633.01.00724.03711.02722.0083.0061.03784.02762.00293.00223,9.655-13.20273q-.63135-.46188-1.25562-.93329Zm9.0774,6.11423-8.38892,14.0412q.77967.46586,1.56714.92l8.17041-14.16965q-.67749-.39064-1.34863-.79156Zm9.67944,5.091-6.81445,14.8692q.82323.37734,1.65332.74231l.00488.00211,6.582-14.9737q-.71593-.31457-1.42578-.63992Zm10.16943,4.00455-5.15258,15.52365q.32189.10693.645.212l.009.00293.03808.01239.02027.00659.02246.00732c.33179.10764.66113.21289.99389.31766l4.90967-15.6022q-.74523-.23457-1.48584-.48038Zm10.54419,2.87067L202.916,408.43036c.156.03339.31543.0672.47168.1l.01928.004.01709.0036q.43872.092.87842.1807l.01782.0036.02417.00485c.11573.02329.23682.04749.35279.07044l3.17846-16.04468q-.76794-.152-1.53125-.3157Zm10.80445,1.70706L215.47632,410.415q.449.04619.89941.089l.00952.00091.04248.004.01392.00134.0398.00373.0144.00137.05.0047.02563.00238.02393.00226.03125.0029.0188.00174.03369.00311.01367.00128.03711.00342.00366.00034c.18531.017.36548.0332.551.04937l1.42163-16.29455q-.78039-.06807-1.55737-.148Zm12.52075.5137q-.783.01566-1.56836.01944l.07788,16.35629.09131-.00049h.00122l.03882-.00021.0249-.00015.01953-.00012q.82215-.00518,1.6416-.02155l-.3269-16.35321Zm10.92627-.80591q-.77454.09943-1.55249.187l1.83056,16.25373.00806-.00092.01733-.002c.54859-.06189,1.09156-.127,1.6377-.19648l.00537-.00067.03638-.00464.03027-.00387.01489-.00189.05371-.00687L240.596,393.85208Zm10.75415-1.97937q-.75916.183-1.52222.35443l3.58447,15.95886c.17774-.03991.34668-.07827.52393-.11895l.02075-.00473.02442-.00562.02929-.00677.019-.0044.042-.00964.00732-.00171.05347-.01236.00244-.00052.0498-.01156.00953-.00223.04589-.01062.00611-.00144.051-.01184.00244-.00058.10962-.0256.001-.00022q.38709-.09049.77295-.18356l-3.83325-15.90094Zm10.46728-3.13757q-.73388.26454-1.47314.51794l5.30469,15.47235q.21314-.07305.42578-.14688l.00976-.00345.03687-.01281.01684-.00577.0271-.00946.06128-.02133.00244-.00092c.37793-.13177.75806-.26657,1.13428-.40213l-5.5459-15.38754Zm10.06543-4.262q-.7013.34319-1.40893.67594l6.95971,14.80185q.20289-.09536.40528-.1915l.01928-.00919.02564-.01217.02392-.01132.019-.0091.0271-.01294.00512-.00238.06836-.03262.00928-.0044.03345-.01593.01025-.005.03125-.01483.01538-.00742.05689-.02719.0122-.00589.02613-.01251.02026-.00974.02271-.01086.03-.01444.01464-.007q.382-.18342.76246-.36959l-7.18946-14.69172Zm9.54932-5.33514q-.66064.41775-1.32837.82556l8.52563,13.95886.03345-.02047.0022-.00138.02441-.01486.03223-.01971.00684-.00418q.50646-.31023,1.01-.62534l.0039-.00244.02759-.01737c.13428-.084.26929-.169.40308-.25357l-8.741-13.8251Zm8.92236-6.34186q-.6123.48707-1.23193.96472l9.98364,12.95594.08594-.0662.02637-.02035.00854-.00668c.1626-.12561.32251-.24973.48438-.37616l.00146-.00119.07983-.06238.02735-.02155.01-.00775q.35449-.27773.707-.5581l-10.18262-12.8003Zm8.19043-7.27035q-.55628.55036-1.12134,1.09222l11.32129,11.80512c.439-.42081.86963-.84046,1.302-1.268l-11.502-11.62933Zm7.36035-8.10993q-.494.60705-.99707,1.20636l12.52637,10.5177q.27319-.32534.54395-.65265l.00268-.00305.06958-.0841.00562-.00693.02832-.03421.0083-.01007.0271-.03311.0061-.0073.03345-.04043.00537-.00656.03-.0366.00439-.00531.03247-.03958.00147-.00174q.18018-.21912.35913-.43914l-12.68726-10.32328Zm6.44068-8.85244q-.42518.65679-.8606,1.30636l13.58814,9.1048q.50572-.75486,1-1.51779L312.346,348.56342Zm5.44116-9.49q-.35119.69836-.71338,1.39044l14.49487,7.5787q.20911-.4.41529-.80188l.00757-.01459.01513-.02975.01026-.01984.00976-.01934q.18714-.36536.37134-.73133l-14.61084-7.35241Zm4.37427-10.01792q-.2732.73228-.55738,1.45914l15.2334,5.95593q.1128-.28825.22412-.57715l.00391-.01046.01392-.03586.00659-.01728.01684-.04412.00733-.01874.011-.02881.00953-.02509.00854-.022.01-.02661.00757-.01938.0105-.02759.01611-.04211.00854-.02222.01026-.02743.00781-.02018.012-.03173.00562-.01462.01636-.04279.00244-.00665.01929-.05069.0017-.00442.01783-.04725.00195-.00521q.07947-.20971.158-.41974l.0022-.00556.01757-.04715.00171-.00479.01783-.04742.0017-.0047-15.3247-5.71735Zm3.25464-10.4321q-.19189.75806-.39478,1.51139l15.79248,4.25784q.2362-.87661.45947-1.75858L325.416,318.62341Zm2.09863-10.7294q-.10841.77519-.22827,1.54657l16.16235,2.51285q.13915-.89667.26514-1.79779L327.51465,307.894Zm.926-10.91388q-.02417.78443-.06054,1.56559l16.33911.75512.001-.01968.001-.02081.00171-.03727.00024-.00561c.02637-.57837.0481-1.15143.06617-1.732l-16.34864-.50537Zm16.06324-12.2095-16.30933,1.24173q.05933.779.10693,1.56128l16.32642-.99106c-.03394-.55664-.07129-1.10849-.11279-1.663l-.001-.01221-.0022-.03113-.008-.10562Zm-1.64991-12.609-16.0791,2.99964q.14319.76756.2749,1.53921l16.12378-2.749q-.15308-.89722-.31958-1.78986Zm-3.01025-12.35309-15.65625,4.73481q.22594.74643.44043,1.49777l15.728-4.48966q-.186-.65244-.37964-1.30172l-.00391-.01264-.00854-.0292q-.0597-.19991-.12012-.39936Zm-4.34058-11.95234L320.457,254.27086q.30615.71827.60156,1.44227l15.14454-6.17906c-.14625-.35841-.29322-.7131-.44288-1.06975l-.00976-.02354-.00733-.01755-.01782-.04217-.00122-.00266q-.10986-.26142-.221-.52218Zm-5.6167-11.40766-14.25927,8.01251q.38268.68112.75512,1.36872l14.38208-7.79007-.04541-.08374-.00244-.00463-.01391-.02578-.01368-.02516-.00952-.01748-.02124-.03909-.00244-.00453q-.13513-.24809-.27124-.49539l-.002-.0034-.05127-.093-.00977-.018-.01342-.02422-.01441-.02592-.0061-.01117c-.13208-.239-.26734-.48166-.40113-.71967Zm-6.8208-10.7312-13.30883,9.5085q.45483.63631.89965,1.28l13.45411-9.30171q-.51709-.74791-1.04493-1.48679Zm-7.94018-9.93208-12.20606,10.88786q.52113.584,1.033,1.17615l12.37256-10.6985q-.464-.53629-.93555-1.06859-.13146-.14868-.26391-.29692Zm-8.96338-9.01914L295.199,218.90465q.58082.52455,1.15357,1.05813l11.14892-11.96814c-.11792-.10986-.23217-.21577-.35058-.32516l-.00415-.00392-.1211-.11157-.01-.00927-.02613-.02406-.00757-.007-.08886-.08162-.00367-.00348c-.24292-.223-.48266-.44144-.72729-.66243Zm-9.88257-8.00143-9.59106,13.24943q.6339.45889,1.26049.92728l9.79444-13.09971q-.72766-.54382-1.46387-1.077Zm-10.68872-6.8875-8.10107,14.20929q.67932.38732,1.352.78485l8.3208-14.08184c-.08887-.0525-.18238-.10749-.27124-.15975l-.01221-.00722-.02661-.01559-.01782-.01044-.02368-.0139-.02173-.01274-.02808-.01643-.03564-.02079-.01465-.00868-.02906-.01694-.01733-.01014-.03223-.01877-.012-.007-.04516-.02641-.00171-.001-.04224-.02466-.01416-.00818-.031-.01808-.01635-.00954-.03247-.01883-.01172-.00679-.04126-.024-.0232-.01338-.0205-.01192-.02442-.0142-.0188-.01087-.02392-.0139-.01929-.01113-.05542-.032-.00561-.0033-.03516-.02032-.00415-.00241-.03613-.02083-.00147-.00083c-.17554-.10135-.34912-.20088-.52539-.30134Zm-11.3728-5.68792-6.50855,15.0057q.7174.31115,1.42871.633l6.742-14.90236q-.17982-.08139-.36011-.1622l-.0083-.00369-.03418-.01532-.02222-.01-.01806-.00808c-.24048-.10763-.47681-.21241-.71827-.31846l-.00683-.003-.10571-.04642-.01514-.00665-.02319-.01013-.0271-.0118-.019-.00835-.0332-.01448-.01318-.00578-.04761-.0208-.00659-.00288-.04322-.01886-.00879-.00378-.043-.01873-.0066-.00279-.1018-.04423Zm-11.92383-4.41523-4.833,15.62615q.74634.2309,1.48779.47293l5.07666-15.54871q-.49731-.1623-.99609-.32019l-.00024-.00014c-.24341-.077-.49121-.15455-.73511-.23Zm-12.335-3.08784-3.1001,16.06q.76794.14826,1.53223.30813l3.34985-16.0097-.13818-.02887-.01734-.0036-.02246-.00466-.03955-.00816-.00659-.00137q-.553-.11463-1.1084-.22406l-.00683-.00136-.042-.00827-.01489-.00292-.02759-.00544c-.11963-.02347-.23852-.0466-.35815-.06971Zm-12.59717-1.72815-1.34253,16.30128q.78039.0643,1.55762.14037l1.59375-16.27866c-.17725-.01732-.3606-.03483-.53809-.05139l-.01343-.00125-.02905-.00272-.02783-.00257-.02075-.00191-.042-.00389-.00782-.00072-.16723-.01526-.00147-.00015q-.13916-.01259-.27856-.02489l-.00635-.00058-.04736-.00416-.00879-.00077-.054-.00471-.00024,0-.04932-.0043-.02978-.00258-.01807-.00157-.03662-.00314-.0105-.00092c-.14306-.0123-.27832-.02368-.42163-.03548Z"/>
    </g>
  </g>
  <g>
    <circle class="cls-90" cx="51.44097" cy="188.32242" r="51.44097"/>
    <g>
      <rect class="cls-94" x="33.97685" y="181.1547" width="11.16548" height="33.5616" transform="translate(-128.3748 85.94682) rotate(-45)"/>
      <rect class="cls-94" x="55.71563" y="166.9052" width="11.16548" height="50.25593" transform="translate(-31.14509 371.16562) rotate(-135)"/>
    </g>
  </g>
</svg>
