<svg id="Layer_1" data-name="Layer 1" xmlns="http://www.w3.org/2000/svg" xmlns:xlink="http://www.w3.org/1999/xlink" viewBox="0 0 1000 1000">
  <defs>
    <style>
      .cls-1 {
        fill: url(#linear-gradient);
      }

      .cls-2 {
        fill: url(#linear-gradient-2);
      }

      .cls-3 {
        fill: #6b483c;
      }

      .cls-4 {
        fill: url(#linear-gradient-3);
      }

      .cls-5 {
        fill: #366d26;
      }

      .cls-6 {
        fill: url(#linear-gradient-4);
      }

      .cls-7 {
        fill: url(#linear-gradient-5);
      }

      .cls-8 {
        fill: #87a1af;
      }

      .cls-9 {
        fill: #b8cbd8;
      }

      .cls-10 {
        fill: #9bb0c4;
      }

      .cls-11 {
        fill: #394651;
      }

      .cls-12 {
        fill: #f2f2f2;
      }

      .cls-13 {
        fill: #49555e;
      }

      .cls-14 {
        fill: #444;
      }

      .cls-15 {
        fill: #a0674a;
      }

      .cls-16 {
        fill: url(#linear-gradient-6);
      }

      .cls-17 {
        fill: #d8d8d8;
      }

      .cls-18 {
        fill: #cecece;
      }

      .cls-19 {
        fill: #fff;
      }

      .cls-20 {
        fill: url(#linear-gradient-7);
      }

      .cls-21 {
        fill: #bf7d51;
      }

      .cls-22 {
        fill: #323f4c;
      }

      .cls-23 {
        fill: #b7b7b7;
      }

      .cls-24 {
        fill: #6e8496;
      }

      .cls-25 {
        fill: #455260;
      }

      .cls-26 {
        fill: #546472;
      }

      .cls-27 {
        fill: #cc695c;
      }

      .cls-28 {
        fill: url(#linear-gradient-8);
      }

      .cls-29 {
        fill: #dd7b19;
        opacity: 0.6;
      }

      .cls-30 {
        fill: #727272;
      }

      .cls-31 {
        fill: url(#linear-gradient-9);
      }

      .cls-32 {
        fill: #dd7a64;
      }

      .cls-33 {
        fill: url(#linear-gradient-10);
      }

      .cls-34 {
        fill: #e9e9e9;
      }

      .cls-35 {
        fill: #fbfbfb;
      }

      .cls-36 {
        fill: #5b3c39;
      }

      .cls-37 {
        fill: #ffcd5c;
      }

      .cls-38 {
        fill: url(#linear-gradient-11);
      }

      .cls-39 {
        fill: #c96b5f;
      }

      .cls-40 {
        fill: url(#linear-gradient-12);
      }

      .cls-41 {
        fill: url(#linear-gradient-13);
      }

      .cls-42 {
        fill: #bcd0e2;
      }

      .cls-43 {
        fill: #516272;
      }
    </style>
    <linearGradient id="linear-gradient" x1="85.34704" y1="420.95711" x2="926.7192" y2="420.95711" gradientUnits="userSpaceOnUse">
      <stop offset="0" stop-color="#e6f4ff"/>
      <stop offset="1" stop-color="#c0e3ff"/>
    </linearGradient>
    <linearGradient id="linear-gradient-2" x1="85.37673" y1="514.30577" x2="602.56109" y2="514.30577" gradientUnits="userSpaceOnUse">
      <stop offset="0.00005" stop-color="#9dcc52"/>
      <stop offset="1" stop-color="#649e3f"/>
    </linearGradient>
    <linearGradient id="linear-gradient-3" x1="314.5191" y1="219.11852" x2="314.5191" y2="426.34894" gradientUnits="userSpaceOnUse">
      <stop offset="0" stop-color="#77bf49"/>
      <stop offset="0.99995" stop-color="#366d26"/>
    </linearGradient>
    <linearGradient id="linear-gradient-4" x1="73.34543" y1="153.62865" x2="221.66003" y2="493.38481" xlink:href="#linear-gradient-3"/>
    <linearGradient id="linear-gradient-5" x1="85.37673" y1="665.91293" x2="926.7192" y2="665.91293" xlink:href="#linear-gradient-2"/>
    <linearGradient id="linear-gradient-6" x1="199.12766" y1="401.23885" x2="1250.9077" y2="401.23885" gradientUnits="userSpaceOnUse">
      <stop offset="0.00005" stop-color="#e6ac72"/>
      <stop offset="1" stop-color="#b3703f"/>
    </linearGradient>
    <linearGradient id="linear-gradient-7" x1="170.53191" y1="544.23063" x2="841.15924" y2="544.23063" xlink:href="#linear-gradient-6"/>
    <linearGradient id="linear-gradient-8" x1="597.4176" y1="341.97462" x2="707.20483" y2="481.88951" gradientUnits="userSpaceOnUse">
      <stop offset="0.00005" stop-color="#ffcb48"/>
      <stop offset="1" stop-color="#e68e2b"/>
    </linearGradient>
    <linearGradient id="linear-gradient-9" x1="611.57536" y1="330.86543" x2="721.3626" y2="470.78032" xlink:href="#linear-gradient-8"/>
    <linearGradient id="linear-gradient-10" x1="640.37875" y1="308.26423" x2="750.16599" y2="448.17912" xlink:href="#linear-gradient-8"/>
    <linearGradient id="linear-gradient-11" x1="622.28957" y1="278.09938" x2="659.82148" y2="323.54618" gradientUnits="userSpaceOnUse">
      <stop offset="0.00005" stop-color="#bca9a0"/>
      <stop offset="1" stop-color="#a68f85"/>
    </linearGradient>
    <linearGradient id="linear-gradient-12" x1="641.45562" y1="262.27123" x2="678.98753" y2="307.71804" xlink:href="#linear-gradient-11"/>
    <linearGradient id="linear-gradient-13" x1="280.82979" y1="544.51315" x2="946.24851" y2="544.51315" xlink:href="#linear-gradient-6"/>
  </defs>
  <path class="cls-1" d="M85.3763,512.7967s-2.42713-89.31382,36.92931-127.58839,101.191-29.83446,150.323-53.496,68.673-70.454,112.94077-112.54122,137.159-27.051,188.88841,3.59733S659.04237,296.631,709.319,324.07086,833.84975,358.2208,862.216,367.47715,926.7192,396.71887,926.7192,436.591V648.65747l-841.3429-3.677Z"/>
  <path class="cls-2" d="M85.37673,631.38824c0-58.422,53.3732-112.67951,106.51646-141.91955s101.21157-50.56714,135.85069-76.63038,69.5608-68.2392,117.15563-93.95547,111.54713-17.99148,111.54713-17.99148l46.11445,25.98769v91.81644L175.99123,728.80822l-90.6145-62.13307Z"/>
  <g>
    <path class="cls-3" d="M320.68737,456.13045V381.014h-12.3367v75.14035h.00563a3.10681,3.10681,0,0,0,1.8153,2.4911,9.6434,9.6434,0,0,0,8.725.01569A3.02659,3.02659,0,0,0,320.68737,456.13045Z"/>
    <path class="cls-4" d="M261.54275,355.88328c0-7.63483,2.4907-14.4736,6.43072-19.14837a37.15756,37.15756,0,0,1-2.77653-10.67662c-1.16349-10.43154,1.9801-20.00572,7.594-25.70119-.59184-6.63456,1.531-12.63629,5.61385-15.8413a33.70036,33.70036,0,0,1-.34688-4.81768c0-13.065,7.30838-23.84357,16.719-25.31344-.02043-.42862-.04087-.83692-.04087-1.26566,0-17.94389,8.47212-32.47866,18.90341-32.47866,9.16588,0,16.8007,11.20728,18.5361,26.04831,3.77654,1.87806,6.71629,6.757,7.71656,12.88125,5.30759,3.59276,10.064,10.207,12.65659,18.4951,2.24574,7.22652,2.42915,14.351.91853,20.02615,3.61333,2.61293,6.08334,7.77774,6.08334,13.69774a19.33447,19.33447,0,0,1-2.30654,9.30879v.02043c8.3084,4.59316,12.37077,17.49483,9.14544,31.09052a38.54978,38.54978,0,0,1-6.20594,13.73872c5.16481,6.83865,6.10377,18.02562,1.65365,28.70212a33.61871,33.61871,0,0,1-13.12632,15.882c-4.69508,8.186-10.69693,13.39159-17.49471,16.33122-4.75663,7.839-12.43233,12.28928-19.72,10.55414-4.75638-1.12287-8.431-4.69533-10.65631-9.53344a34.05523,34.05523,0,0,1-13.63643-8.65553c-8.18605-3.6745-15.47374-12.1055-18.94428-23.23117a40.67269,40.67269,0,0,1-.9594-21.80216A30.31017,30.31017,0,0,1,261.54275,355.88328Z"/>
    <path class="cls-5" d="M366.38894,352.21128a38.43549,38.43549,0,0,1-6.202,13.73638c5.16838,6.84533,6.11026,18.032,1.65381,28.6904a33.55707,33.55707,0,0,1-13.13912,15.89562c-4.68609,8.17753-10.6811,13.3919-17.48059,16.33207-4.75479,7.83305-12.42718,12.28935-19.73167,10.54357-4.75508-1.12554-8.43032-4.6861-10.6584-9.53286a33.79275,33.79275,0,0,1-13.62169-8.66c17.36423,2.78811,27.64156-3.35657,28.162-21.79909,6.68992,3.85669,14.021-2.20364,9.81783-10.51216,14.36885.782,19.74494-17.98549,10.41941-27.45817,15.77685-3.62545,18.70927-24.15238,5.03028-30.23187,9.889-4.94862,14.60759-15.52265,12.81793-31.12267,3.62925,2.61868,6.087,7.78707,6.087,13.69053a19.45118,19.45118,0,0,1-2.29706,9.32606c6.3859,3.51443,10.24508,11.94474,10.24508,21.82208A39.931,39.931,0,0,1,366.38894,352.21128Z"/>
  </g>
  <g>
    <path class="cls-3" d="M183.04451,543.83888V378.23133H155.84607v165.6603h.01241c.04079,1.98689,1.36892,3.97112,4.00215,5.49209,5.3285,3.07608,13.941,3.0916,19.23582.03458C181.75805,547.88136,183.07022,545.8599,183.04451,543.83888Z"/>
    <path class="cls-6" d="M256.61257,315.83139a135.09388,135.09388,0,0,0,.29468-18.03176c-1.695-32.88574-14.58838-59.79625-30.40339-66.415.143-.55281.35989-1.07026.46833-1.63761,2.46427-12.836-4.927-24.43092-16.50887-25.89762-.09823-.01218-.1941.00668-.29153-.00432-4.37848-32.84841-20.92743-50.55052-40.72646-50.55052-19.38726,0-35.65175,16.9831-40.43256,48.529-17.25695,9.1974-32.36082,36.6953-36.91689,70.79117-.61135,4.57257-.96025,9.05949-1.15591,13.47254a25.90482,25.90482,0,0,0-14.97735,18.96607,23.85645,23.85645,0,0,0,2.036,15.327c-7.41324,8.84026-12.06046,21.3058-12.06046,35.16024A59.46128,59.46128,0,0,0,68.338,372.24594c-7.71027,11.33242-10.9737,27.29163-7.77078,44.29792,3.7907,20.12788,15.69322,36.62182,30.31617,44.69317,9.21194,16.44915,22.06448,25.84182,37.22728,30.95109,9.63234,15.38008,24.54762,25.29216,41.33466,25.29216s31.70311-9.91208,41.33624-25.29216c15.11879-5.09512,27.94462-14.44811,37.15106-30.812,12.36456-4.77413,22.50846-16.56663,25.34834-31.35617a38.66712,38.66712,0,0,0-3.93686-26.34317,70.55449,70.55449,0,0,0,11.24951-26.7561C285.54181,351.14564,275.30362,327.32607,256.61257,315.83139Z"/>
    <path class="cls-5" d="M280.58105,376.94189a69.31381,69.31381,0,0,1-11.26523,26.71445,38.65926,38.65926,0,0,1,3.99029,26.39306c-2.89646,14.74122-13.00342,26.52155-25.36248,31.3495-9.20487,16.35054-22.015,25.68467-37.1432,30.77-9.65592,15.38518-24.59083,25.29845-41.32681,25.29845-16.802,0-31.73611-9.91327-41.392-25.29845-15.12744-5.0853-28.002-14.48387-37.20764-30.96327,38.21977,10.25458,63.52409-6.35222,64.95189-46.60581,30.52366,16.31925,65.30721-8.33414,57.09938-44.35292,27.65662-8.35733,33.95693-49.72024,9.84922-68.87892,20.81113-16.02482,26.98448-46.72121,3.73255-69.97315,15.83623,6.63058,28.71078,33.53835,30.38453,66.43273a139.49224,139.49224,0,0,1-.25774,18.02429C275.30205,327.31036,285.53788,351.12835,280.58105,376.94189Z"/>
  </g>
  <path class="cls-7" d="M94.52982,681.77854,478.60008,903.51183a54.91669,54.91669,0,0,0,54.91627-.0008l384.05023-221.7366a18.30558,18.30558,0,0,0,.00022-31.70587L533.49971,428.31521a54.91669,54.91669,0,0,0-54.92014.00068L94.52874,650.07264A18.30556,18.30556,0,0,0,94.52982,681.77854Z"/>
  <path class="cls-8" d="M917.5673,681.7739a18.30564,18.30564,0,0,0-.00022-31.70537L797.19355,580.567,614.95326,475.34477,175.99134,728.80806,478.60113,903.51217a54.91583,54.91583,0,0,0,54.914-.00045Z"/>
  <polygon class="cls-8" points="926.718 665.913 926.718 644.776 900.645 663.997 926.718 665.913"/>
  <polygon class="cls-8" points="175.991 728.808 147.267 712.225 147.267 688.022 201.47 707.93 201.47 722.185 175.991 728.808"/>
  <path class="cls-9" d="M917.5673,659.80722a18.30564,18.30564,0,0,0-.00022-31.70537l-120.37353-69.5015L614.95326,453.37808,175.99134,706.84138l302.60979,174.7041a54.91583,54.91583,0,0,0,54.914-.00044Z"/>
  <path class="cls-10" d="M748.25258,757.56347,425.10487,571.15891a9.05988,9.05988,0,0,0-9.05894,0L282.52856,648.25879a3.019,3.019,0,0,0,0,5.22928l323.13829,186.399Z"/>
  <path class="cls-10" d="M817.73812,685.26053a9.71092,9.71092,0,0,0-.00329-16.82162l-257.335-148.44112a7.62339,7.62339,0,0,0-7.62259,0L440.42984,584.87306a2.54032,2.54032,0,0,0,0,4.40014L712.33275,746.11759Z"/>
  <g>
    <path class="cls-11" d="M741.79908,719.49846v-72.635h-9.58446v72.65355h.00438a2.4137,2.4137,0,0,0,1.41031,1.93536,7.492,7.492,0,0,0,6.77851.01218A2.35136,2.35136,0,0,0,741.79908,719.49846Z"/>
    <path class="cls-11" d="M815.88772,676.43952V603.80457h-9.58445v72.65354h.00437a2.4137,2.4137,0,0,0,1.41031,1.93536,7.492,7.492,0,0,0,6.77852.01219A2.35136,2.35136,0,0,0,815.88772,676.43952Z"/>
  </g>
  <polygon class="cls-12" points="202.495 549.781 191.512 530.757 586.291 302.874 921.849 496.6 910.866 515.624 586.291 328.239 202.495 549.781"/>
  <path class="cls-13" d="M821.6451,456.24316v-21.501h9.58446v21.5196h-.00438a2.41367,2.41367,0,0,1-1.41031,1.93535,7.492,7.492,0,0,1-6.77851.01219A2.35136,2.35136,0,0,1,821.6451,456.24316Z"/>
  <path class="cls-14" d="M701.6917,386.97249v-21.501h9.58445v21.5196h-.00437a2.41368,2.41368,0,0,1-1.41032,1.93535,7.492,7.492,0,0,1-6.77851.01219A2.35136,2.35136,0,0,1,701.6917,386.97249Z"/>
  <path class="cls-13" d="M591.08244,317.70181v-21.501H581.498V317.7204h.00438a2.4137,2.4137,0,0,0,1.41031,1.93536,7.492,7.492,0,0,0,6.77851.01218A2.35135,2.35135,0,0,0,591.08244,317.70181Z"/>
  <path class="cls-13" d="M231.22223,525.51383v-21.501h-9.58446v21.51959h.00438a2.4137,2.4137,0,0,0,1.41031,1.93536,7.492,7.492,0,0,0,6.77851.01218A2.35136,2.35136,0,0,0,231.22223,525.51383Z"/>
  <path class="cls-13" d="M351.17563,456.24316v-21.501h-9.58445v21.5196h.00437a2.41369,2.41369,0,0,0,1.41032,1.93535,7.492,7.492,0,0,0,6.77851.01219A2.35133,2.35133,0,0,0,351.17563,456.24316Z"/>
  <path class="cls-13" d="M471.129,386.97249v-21.501h-9.58446v21.5196h.00437a2.41372,2.41372,0,0,0,1.41032,1.93535,7.492,7.492,0,0,0,6.77851.01219A2.35137,2.35137,0,0,0,471.129,386.97249Z"/>
  <path class="cls-15" d="M191.37952,536.42315l-8.23572-14.269L581.03935,292.46923a10.50194,10.50194,0,0,1,10.50108.00029L882.90186,460.67939l-8.23751,14.26726L586.29,308.46072Z"/>
  <path class="cls-16" d="M191.37952,523.88189l-8.23572-14.269L580.79867,280.0669a10.98334,10.98334,0,0,1,10.98243.0003L882.90186,448.13813l-8.23751,14.26726L586.29,295.91946Z"/>
  <polygon class="cls-17" points="175.991 706.841 175.991 565.083 586.29 328.239 586.287 469.976 175.991 706.841"/>
  <polygon class="cls-17" points="878.139 496.73 586.29 328.239 586.294 469.976 877.606 638.178 878.139 496.73"/>
  <g>
    <polygon class="cls-18" points="204.715 487.835 204.709 690.226 175.988 706.841 175.988 487.835 204.715 487.835"/>
    <polygon class="cls-12" points="175.988 487.835 175.988 706.841 170.186 703.511 149.168 691.373 147.274 688.022 147.267 688.022 147.267 487.835 175.988 487.835"/>
    <path class="cls-19" d="M202.81345,491.06646,181.58972,503.32a11.4022,11.4022,0,0,1-11.40218,0l-21.02009-12.136a3.80072,3.80072,0,0,1,0-6.58305l21.22373-12.25353a11.4022,11.4022,0,0,1,11.40218,0l21.02009,12.136A3.80072,3.80072,0,0,1,202.81345,491.06646Z"/>
  </g>
  <g>
    <g>
      <path class="cls-20" d="M832.31072,598.05477,742.181,659.44858,439.15952,484.62487c.21879-.15622.43757-.2969.6719-.43748l93.86431-54.19033a7.37026,7.37026,0,0,1,7.3597,0Z"/>
      <path class="cls-21" d="M742.181,659.44858l-11.68808,7.64095L436.87812,497.68812a3.06947,3.06947,0,0,1-1.57813-2.672v-2.95331a9.07591,9.07591,0,0,1,3.85953-7.4379Z"/>
      <path class="cls-15" d="M833.56346,605.52566a6.3874,6.3874,0,0,1-3.1942,5.53194L733.3851,667.0245a3.03251,3.03251,0,0,1-4.54793-2.62671v-2.96363a9.08407,9.08407,0,0,1,4.54451-7.86847l96.23-55.54934a2.63449,2.63449,0,0,1,3.95176,2.28152Z"/>
    </g>
    <polygon class="cls-15" points="800.215 614.977 795.637 617.634 502.147 448.201 506.741 445.56 800.215 614.977"/>
    <polygon class="cls-15" points="768.667 633.197 764.073 635.854 470.599 466.421 475.177 463.78 768.667 633.197"/>
  </g>
  <g>
    <g>
      <path class="cls-22" d="M591.65244,649.90531s3.42973,15.62176.35829,21.44006-9.13884,5.445-18.01243,9.26753-17.171,11.12447-32.56055,9.9344-18.60639-12.72246-8.02123-18.752l13.7771-9.01207,18.67487-15.2019C579.50556,647.7988,590.59764,643.52018,591.65244,649.90531Z"/>
      <path class="cls-23" d="M563.90331,640.97121v9.37926l-5.0569,4.49977c3.32731-2.71089,8.74161,1.46276,11.15343,5.54941,8.34568-1.31544,20.21008-4.1983,19.58478-8.66462l-1.34128-10.76382Z"/>
      <path class="cls-22" d="M605.62074,467.587,542.39951,512.163c-14.52073,10.61872-17.31817,32.01539-12.287,46.45327l25.97882,87.464c2.7127,9.18859,35.89684,4.07182,35.2728-5.38245l-3.52294-82.36633,71.40343-33.30821Z"/>
      <g>
        <path class="cls-22" d="M650.133,689.63294s1.31576,14.12025.07016,18.666c-1.55387,5.67078-4.09915,8.76235-6.7329,12.18062S641.21253,734.304,629.87579,739.887c-15.495,7.63071-30.1069-2.59383-23.25179-14.63659l7.94359-14.21972,11.74484-22.17433C629.31842,683.376,649.81431,678.87037,650.133,689.63294Z"/>
        <path class="cls-24" d="M627.36219,679.00593l.06308,11.3368L623.74,698.175c3.3517-3.69683,14.41057-.80618,17.02059,3.68467,0,0,4.20774-6.81558,6.25732-10.93333,1.59284-3.20012,1.32647-9.70475,1.32647-9.70475Z"/>
      </g>
      <path class="cls-25" d="M634.3914,529.82093,605.62074,467.587l9.47156-45.76777,90.28084,29.31972,7.82026,25.74547c2.20372,15.82942.98993,43.68681-12.60479,66.55282l-27.64678,47.06456L653.71744,680.712c-2.26261,10.28228-30.522,9.6345-30.66244-2.28477l-4.71738-88.274a76.56876,76.56876,0,0,1,4.99589-29.94644Z"/>
      <path class="cls-22" d="M713.92518,461.055l-3.06327-14.97451-55.07536-3.02109-40.69434-21.24016-4.43789,24.42724s1.95286,15.65958,27.24979,25.22818c37.75236,14.27989,75.28929-5.00728,75.28929-5.00728Z"/>
      <path class="cls-26" d="M637.90414,471.47455c.55206.20874,1.10352.38648,1.65533.5813l2.07361-12.17773-16.3985-8.94385-2.15234,12.63989A59.98639,59.98639,0,0,0,637.90414,471.47455Z"/>
    </g>
    <g>
      <path class="cls-27" d="M590.26285,361.49275c-6.56985,6.77-20.30136,24.56121-24.072,32.974L584.2011,411.274l22.17475-11.66658C611.61834,387.24813,596.78578,356.80737,590.26285,361.49275Z"/>
      <path class="cls-28" d="M600.8115,341.41564l-26.04518,36.16049c-10.12246,12.766,17.68348,36.52164,25.91441,29.74468l27.90788-25.33875,12.51064-63.73633S615.88438,322.43448,600.8115,341.41564Z"/>
      <polygon class="cls-29" points="608.377 368.457 603.758 404.698 614.913 393.635 608.377 368.457"/>
      <line class="cls-30" x1="710.86205" y1="451.95744" x2="615.04684" y2="424.35741"/>
      <path class="cls-31" d="M661.94894,316.64818c-26.86672-5.30549-56.475,16.56876-54.28394,46.7483l5.98744,42.55138L610.65432,432.884c-.87422,11.06383,10.69737,23.40361,24.062,29.02128,20.619,8.667,57.30182,10.19147,74.40155-9.94787l-1.36827-20.76721,14.73-66.90121C710.89844,337.29305,678.68886,319.95389,661.94894,316.64818Z"/>
      <path class="cls-29" d="M709.11781,451.95743l-1.36816-20.76734,1.85058-8.405-22.09936-30.38745L698.53248,460.599A39.13327,39.13327,0,0,0,709.11781,451.95743Z"/>
      <path class="cls-32" d="M721.45925,368.48392s19.20312,71.23189,13.26968,88.65543c-11.34281,33.30816-45.27939,62.00156-45.27939,62.00156-8.18216,5.18622-13.46718-4.87456-9.22184-11.92415l27.62579-56.24094-14.43681-55.15039Z"/>
      <g>
        <path class="cls-32" d="M691.08049,517.60372l-7.12238-11.53-8.96771-.40972a13.907,13.907,0,0,0-9.793,3.63658l-10.49323,9.59255a3.10418,3.10418,0,0,0-.51059,3.97918l4.57443,7.05923a5.32551,5.32551,0,0,0,5.4308,2.3419l9.56907-1.7567a17.65914,17.65914,0,0,0,8.14573-3.82716Z"/>
        <path class="cls-32" d="M671.52237,505.99857,660.028,508.71382c-3.7053.79787-1.54008,5.21156.98619,4.70092l3.95338-1.20313Z"/>
      </g>
      <path class="cls-33" d="M722.47953,364.289c5.24117,15.43409,12.0222,41.47573,13.81075,56.41565,2.063,17.56987-33.82933,23.82289-37.91443,10.39213l-10.875-38.69919C680.54606,364.4585,715.17673,344.29371,722.47953,364.289Z"/>
      <path class="cls-32" d="M603.75834,371.36608s-10.665,28.36026-14.63806,35.45595c-6.38982,11.41177-30.80148,4.72148-22.92943-12.35531l27.70413-37.0381Z"/>
      <path class="cls-32" d="M606.0874,338.07668c-8.12848.73455-14.63,22.67424-14.63,22.67424l11.93747,10.693,5.31044-7.26473s13.88907-7.63436,13.43-12.71466A14.77789,14.77789,0,0,0,606.0874,338.07668Z"/>
    </g>
    <g>
      <path class="cls-34" d="M606.12985,338.01577l-.508,21.38c-.09148,3.85035,5.26547,7.10069,11.96514,7.25987s12.20493-2.8331,12.2964-6.68346l.508-21.38Z"/>
      <ellipse class="cls-35" cx="618.26062" cy="338.30402" rx="6.97368" ry="12.1342" transform="translate(265.36734 948.35496) rotate(-88.639)"/>
      <ellipse class="cls-35" cx="618.26062" cy="338.30402" rx="5.34547" ry="9.30112" transform="translate(265.36734 948.35496) rotate(-88.639)"/>
      <path class="cls-36" d="M618.29539,336.84491c3.93988.0936,7.25369,1.58643,8.56126,3.60672-1.402,1.95591-4.783,3.28992-8.72289,3.19632s-7.25369-1.58667-8.56126-3.607C610.97454,338.08507,614.35551,336.7513,618.29539,336.84491Z"/>
    </g>
    <g>
      <polygon class="cls-29" points="632.204 340.765 648.225 354.714 673.616 358.11 671.785 343.369 644.802 332.673 632.204 340.765"/>
      <path class="cls-32" d="M649.01414,351.12194l11.25089-9.11036L677.9942,326.3033s-4.3861-9.72176-15.54266-8.41142c-9.69909,1.13915-16.05842,12.55387-16.05842,12.55387Z"/>
      <path class="cls-37" d="M649.01414,351.12191c-1.17508-8.20556-.75727-16.2987,1.75259-22.688l7.31651-10.41752,1.05065-6.37113c-15.203,5.072-24.59167,22.28861-27.37086,28.05923a.77593.77593,0,0,0,1.0256,1.038l6.3538-2.90049a2.33289,2.33289,0,0,1,3.00561.98478l6.8661,12.29518Z"/>
      <path class="cls-27" d="M650.1013,331.38357c1.20295,10.78818,19.02371,6.06824,25.30777-4.37414-1.13794-6.98194-2.832-14.542-4.87891-22.468l-22.64359,7.01665Z"/>
      <path class="cls-37" d="M684.59577,334.74505c-1.13681,7.936-6.52717,18.52673-8.93848,22.96476a1.3569,1.3569,0,0,1-2.36783.02952l-5.68838-9.8161a2.6506,2.6506,0,0,0-3.01715-1.22088l-15.56979,4.41959h0s11.36481-9.41536,16.00078-13.31883c13.2925-11.19224,7.52414-23.62935,7.52414-23.62935s1.488-.71752,4.40062,2.1032S685.90776,325.58616,684.59577,334.74505Z"/>
      <g>
        <path class="cls-38" d="M629.09088,278.77037c-4.521,9.47629-.85758,23.18648,5.346,25.9905l.13683-24.971Z"/>
        <path class="cls-32" d="M650.46318,328.50333c12.21717-2.78495,16.46652-7.53962,17.18328-19.02587l1.50907-24.83546c.88866-10.00173-5.80807-21.30144-17.48537-21.3199-10.20581-.01614-20.753,8.40076-20.77632,19.70658a228.528,228.528,0,0,0,1.74492,24.99639C634.22666,319.07053,639.36044,331.03424,650.46318,328.50333Z"/>
        <path class="cls-39" d="M658.50081,285.44669c-7.59852-1.54884-16.33378,4.75174-27.53091.85965-.0619-2.03211-.07609-3.27774-.07609-3.27774a17.81838,17.81838,0,0,1,.65314-4.67451l26.28311,3.11714Z"/>
        <path class="cls-40" d="M673.22889,316.277s2.54909-5.11621,6.70157-16.2266,2.56217-22.63959-5.14372-30.18866c-5.58053-5.467-14.08211-8.91571-25.22193-7.357-14.88423,2.08261-22.50776,10.5397-22.50776,10.5397s-3.39333,4.08349,3.76325,7.66812c3.82819,1.91749,10.07492,2.73163,14.58628,2.18478s11.09185-.043,13.35236,3.07348c3.13574,4.32316-.70882,11.34407,2.48251,15.59559,1.20424,1.60431,3.88605.48985,3.88605.48985l2.57437,5.69795Z"/>
        <path class="cls-32" d="M667.65619,313.63384c4.1535.13758,7.842-5.54609,7.9981-10.25929s-3.79334-8.81493-7.43278-6.8087C663.65283,299.08433,663.50268,313.49627,667.65619,313.63384Z"/>
      </g>
    </g>
  </g>
  <g>
    <path class="cls-11" d="M605.836,819.348V666.04692h-9.58445V819.36661h.00437a2.41368,2.41368,0,0,0,1.41032,1.93535,7.492,7.492,0,0,0,6.77851.01219A2.35136,2.35136,0,0,0,605.836,819.348Z"/>
    <path class="cls-11" d="M727.88858,749.12969V595.82859h-9.58446V749.14828h.00438a2.4137,2.4137,0,0,0,1.41031,1.93536,7.492,7.492,0,0,0,6.77851.01218A2.35136,2.35136,0,0,0,727.88858,749.12969Z"/>
  </g>
  <g>
    <path class="cls-11" d="M318.63254,654.57013V501.269h-9.58446V654.58872h.00438a2.41369,2.41369,0,0,0,1.41031,1.93535,7.492,7.492,0,0,0,6.77852.01219A2.35138,2.35138,0,0,0,318.63254,654.57013Z"/>
    <path class="cls-14" d="M440.68509,567.17491V437.5824h-9.58446V567.1935h.00438a2.4137,2.4137,0,0,0,1.41031,1.93536,7.492,7.492,0,0,0,6.77851.01218A2.35136,2.35136,0,0,0,440.68509,567.17491Z"/>
  </g>
  <g>
    <g>
      <path class="cls-41" d="M743.76533,584.9776,600.24963,678.812l-314.7093-181.5364c.2563-.183.51261-.34781.78712-.5125l147.89076-85.39552a8.63416,8.63416,0,0,1,8.62185,0Z"/>
      <path class="cls-15" d="M600.24963,678.812,586.5571,687.7633,282.86767,512.5791a3.59589,3.59589,0,0,1-1.84877-3.1303V505.989a10.63239,10.63239,0,0,1,4.52143-8.71347Z"/>
      <path class="cls-15" d="M745.23291,593.7297a7.48282,7.48282,0,0,1-3.742,6.48065L589.94526,687.68711a3.55257,3.55257,0,0,1-5.32787-3.07718v-3.47188a10.64194,10.64194,0,0,1,5.32387-9.21786l150.66219-86.9876a3.08628,3.08628,0,0,1,4.62946,2.67278Z"/>
    </g>
    <polygon class="cls-15" points="705.214 605.37 699.814 608.482 396.289 433.279 401.653 430.167 705.214 605.37"/>
    <polygon class="cls-15" points="668.237 626.714 662.873 629.826 359.33 454.605 364.712 451.512 668.237 626.714"/>
    <polygon class="cls-15" points="631.278 648.059 625.896 651.17 322.371 475.95 327.735 472.856 631.278 648.059"/>
  </g>
  <g>
    <path class="cls-18" d="M926.7192,437.44336V652.27522h-.00634a3.75545,3.75545,0,0,1-1.894,3.23068L897.99206,671.114V437.44336Z"/>
    <path class="cls-12" d="M897.99206,437.44336V671.114l-6.96619-4.02271-19.85426-11.46508a3.75763,3.75763,0,0,1-1.894-3.351h-.00634V437.44336Z"/>
    <path class="cls-19" d="M924.81728,440.6748l-21.22373,12.25353a11.4022,11.4022,0,0,1-11.40218,0l-21.02009-12.136a3.80072,3.80072,0,0,1,0-6.58305L892.395,421.95579a11.4022,11.4022,0,0,1,11.40218,0l21.02009,12.136A3.80072,3.80072,0,0,1,924.81728,440.6748Z"/>
  </g>
  <path class="cls-13" d="M592.71946,516.81133,518.17937,563.859a3.569,3.569,0,0,1-3.57877.134l-52.77293-28.02336a3.569,3.569,0,0,1-.23076-6.17043l71.2282-44.94609a10.30965,10.30965,0,0,1,10.33428-.388l49.328,26.17543A3.569,3.569,0,0,1,592.71946,516.81133Z"/>
  <polygon class="cls-19" points="614.357 539.035 526.526 578.698 471.48 538.814 559.3 499.169 614.357 539.035"/>
  <g>
    <path class="cls-25" d="M367.03713,458.821l55.54431,58.31613,71.928-41.55641c.11431-.05968.2252-.12414.33417-.19308l.11355-.07456a4.5133,4.5133,0,0,0,2.016-3.74288l-.03359-10.32553c.0385-4.56992-2.7404-7.31807-6.39835-10.74948l-45.85093-32.99918a5.68419,5.68419,0,0,0-5.769-.17243l-.005-.0051-.25506.14727-.02433.014Z"/>
    <path class="cls-42" d="M429.9855,439.03523l-5.30447-3.06405a.90581.90581,0,0,0-.906-.0001l-13.8054,7.97054a.45292.45292,0,0,0,0,.78446l5.3066,3.06418a.90585.90585,0,0,0,.90594,0l13.8033-7.97062A.45292.45292,0,0,0,429.9855,439.03523Z"/>
    <path class="cls-22" d="M425.16289,500.65116l-.10483,12.44171a4.57285,4.57285,0,0,1-6.85913,3.92168l-49.88955-31.93189c-5.74134-3.31463-6.72837-14.80514-3.93722-23.10733a5.67291,5.67291,0,0,1,8.403-2.95667l46.09094,32.47866C422.7329,493.93327,425.2014,496.08123,425.16289,500.65116Z"/>
    <path class="cls-43" d="M391.20655,466.47766l27.6596,25.01967a13.1885,13.1885,0,0,1,6.15832,11.27l.03359,10.32553a4.52809,4.52809,0,0,1-2.49459,4.0257l.018.01859,71.928-41.55641c.11431-.05968.44772-.26764.44772-.26764a4.5133,4.5133,0,0,0,2.016-3.74288l-.03359-10.32553c.0385-4.56992-2.41385-7.972-6.15834-11.27L462.17934,424.2091a8.42542,8.42542,0,0,0-9.44223-.69033l-60.96324,35.19917A4.7026,4.7026,0,0,0,391.20655,466.47766Z"/>
  </g>
</svg>
