<svg id="Layer_1" data-name="Layer 1" xmlns="http://www.w3.org/2000/svg" xmlns:xlink="http://www.w3.org/1999/xlink" viewBox="0 0 1000 1000">
  <defs>
    <style>
      .cls-1, .cls-58 {
        fill: none;
      }

      .cls-2 {
        fill: #d6ceb9;
      }

      .cls-3 {
        fill: url(#linear-gradient);
      }

      .cls-4 {
        fill: url(#linear-gradient-2);
      }

      .cls-5 {
        fill: #b7babc;
      }

      .cls-47, .cls-6 {
        fill: #fff;
      }

      .cls-6 {
        opacity: 0.7;
      }

      .cls-7 {
        fill: url(#linear-gradient-3);
      }

      .cls-8 {
        fill: url(#linear-gradient-4);
      }

      .cls-9 {
        fill: url(#linear-gradient-5);
      }

      .cls-10 {
        fill: url(#linear-gradient-6);
      }

      .cls-11 {
        fill: url(#linear-gradient-7);
      }

      .cls-12 {
        fill: url(#linear-gradient-8);
      }

      .cls-13 {
        fill: url(#linear-gradient-9);
      }

      .cls-14 {
        fill: url(#linear-gradient-10);
      }

      .cls-15 {
        fill: url(#linear-gradient-11);
      }

      .cls-16 {
        fill: url(#linear-gradient-12);
      }

      .cls-17, .cls-42 {
        fill: #dd7b19;
      }

      .cls-17 {
        opacity: 0.5;
      }

      .cls-18 {
        fill: url(#linear-gradient-13);
      }

      .cls-19 {
        fill: url(#linear-gradient-14);
      }

      .cls-20 {
        fill: url(#linear-gradient-15);
      }

      .cls-21 {
        fill: #ccd3d6;
      }

      .cls-22 {
        fill: #b8cbd8;
      }

      .cls-23 {
        fill: url(#linear-gradient-16);
      }

      .cls-24 {
        fill: url(#linear-gradient-17);
      }

      .cls-25 {
        fill: #5e5e5e;
      }

      .cls-26 {
        fill: url(#linear-gradient-18);
      }

      .cls-27 {
        fill: #fff2d7;
      }

      .cls-28 {
        fill: #ffcb48;
      }

      .cls-29 {
        fill: #4f4f4f;
      }

      .cls-30 {
        fill: url(#linear-gradient-19);
      }

      .cls-31 {
        fill: #777;
      }

      .cls-32 {
        fill: url(#linear-gradient-20);
      }

      .cls-33 {
        fill: url(#linear-gradient-21);
      }

      .cls-34 {
        fill: url(#linear-gradient-22);
      }

      .cls-35 {
        fill: url(#linear-gradient-23);
      }

      .cls-36 {
        fill: url(#linear-gradient-24);
      }

      .cls-37 {
        fill: url(#linear-gradient-25);
      }

      .cls-38 {
        fill: #303d49;
      }

      .cls-39 {
        fill: #dd7a64;
      }

      .cls-40 {
        fill: #27343d;
      }

      .cls-41 {
        fill: url(#linear-gradient-26);
      }

      .cls-42 {
        opacity: 0.6;
      }

      .cls-43 {
        fill: #d67f6e;
      }

      .cls-44 {
        fill: url(#linear-gradient-27);
      }

      .cls-45 {
        fill: url(#linear-gradient-28);
      }

      .cls-46 {
        fill: #e2e2e2;
      }

      .cls-48 {
        fill: url(#linear-gradient-29);
      }

      .cls-49 {
        fill: url(#linear-gradient-30);
      }

      .cls-50 {
        fill: url(#linear-gradient-31);
      }

      .cls-51 {
        fill: url(#linear-gradient-32);
      }

      .cls-52 {
        fill: url(#linear-gradient-33);
      }

      .cls-53 {
        fill: url(#linear-gradient-34);
      }

      .cls-54 {
        fill: #ffcd5c;
      }

      .cls-55 {
        fill: #cc695c;
      }

      .cls-56 {
        fill: url(#linear-gradient-35);
      }

      .cls-57 {
        fill: url(#linear-gradient-36);
      }

      .cls-58 {
        stroke: #37444f;
        stroke-miterlimit: 10;
        stroke-width: 1.08113px;
      }

      .cls-59 {
        fill: #eaeaea;
      }

      .cls-60 {
        fill: #a9b5bf;
      }

      .cls-61 {
        fill: url(#linear-gradient-37);
      }

      .cls-62 {
        fill: url(#linear-gradient-38);
      }

      .cls-63 {
        fill: url(#linear-gradient-39);
      }

      .cls-64 {
        fill: url(#linear-gradient-40);
      }

      .cls-65 {
        fill: url(#linear-gradient-41);
      }

      .cls-66 {
        fill: url(#linear-gradient-42);
      }

      .cls-67 {
        fill: url(#linear-gradient-43);
      }

      .cls-68 {
        fill: #515151;
      }

      .cls-69 {
        fill: url(#linear-gradient-44);
      }

      .cls-70 {
        fill: url(#linear-gradient-45);
      }

      .cls-71 {
        fill: url(#linear-gradient-46);
      }

      .cls-72 {
        fill: url(#linear-gradient-47);
      }

      .cls-73 {
        fill: url(#linear-gradient-48);
      }

      .cls-74 {
        fill: url(#linear-gradient-49);
      }

      .cls-75 {
        fill: url(#linear-gradient-50);
      }

      .cls-76 {
        fill: url(#linear-gradient-51);
      }

      .cls-77 {
        fill: url(#linear-gradient-52);
      }

      .cls-78 {
        fill: url(#linear-gradient-53);
      }

      .cls-79 {
        fill: url(#linear-gradient-54);
      }

      .cls-80 {
        fill: url(#linear-gradient-55);
      }

      .cls-81 {
        fill: url(#linear-gradient-56);
      }

      .cls-82 {
        fill: #34a521;
      }

      .cls-83 {
        fill: url(#linear-gradient-57);
      }

      .cls-84 {
        fill: url(#linear-gradient-58);
      }

      .cls-85 {
        fill: url(#linear-gradient-59);
      }

      .cls-86 {
        fill: url(#linear-gradient-60);
      }

      .cls-87 {
        clip-path: url(#clip-path);
      }

      .cls-88 {
        fill: url(#linear-gradient-61);
      }

      .cls-89 {
        fill: url(#linear-gradient-62);
      }

      .cls-90 {
        fill: #541510;
        opacity: 0.3;
      }

      .cls-91 {
        fill: url(#linear-gradient-63);
      }

      .cls-92 {
        fill: url(#linear-gradient-64);
      }

      .cls-93 {
        fill: #bcd0e2;
      }

      .cls-94 {
        fill: #bcbcbc;
      }

      .cls-95 {
        fill: #e9f1f4;
      }

      .cls-96 {
        fill: url(#linear-gradient-65);
      }

      .cls-97 {
        fill: #aaa;
      }

      .cls-98 {
        fill: url(#linear-gradient-66);
      }

      .cls-99 {
        fill: #ffbea4;
      }

      .cls-100 {
        fill: url(#linear-gradient-67);
      }
    </style>
    <linearGradient id="linear-gradient" x1="119.76982" y1="396.22833" x2="526.41606" y2="396.22833" gradientUnits="userSpaceOnUse">
      <stop offset="0" stop-color="#c3d6e6"/>
      <stop offset="1" stop-color="#f2eee4"/>
    </linearGradient>
    <linearGradient id="linear-gradient-2" x1="526.40823" y1="448.86525" x2="526.40823" y2="932.70331" gradientUnits="userSpaceOnUse">
      <stop offset="0" stop-color="#f2ecda"/>
      <stop offset="0.99337" stop-color="#c4d5e6"/>
    </linearGradient>
    <linearGradient id="linear-gradient-3" x1="10922.77345" y1="390.40848" x2="11274.53836" y2="390.40848" gradientTransform="matrix(-1, 0, 0, 1, 11836.93617, 0)" gradientUnits="userSpaceOnUse">
      <stop offset="0" stop-color="#3e4c59"/>
      <stop offset="1" stop-color="#293440"/>
    </linearGradient>
    <linearGradient id="linear-gradient-4" x1="10981.36871" y1="630.93018" x2="10981.36871" y2="285.32439" gradientTransform="matrix(-1, 0, 0, 1, 11836.93617, 0)" gradientUnits="userSpaceOnUse">
      <stop offset="0" stop-color="#62778c"/>
      <stop offset="1" stop-color="#435466"/>
    </linearGradient>
    <linearGradient id="linear-gradient-5" x1="11098.62192" y1="563.24242" x2="11098.62192" y2="217.62078" xlink:href="#linear-gradient-4"/>
    <linearGradient id="linear-gradient-6" x1="11215.90911" y1="495.54657" x2="11215.90911" y2="149.88603" xlink:href="#linear-gradient-4"/>
    <linearGradient id="linear-gradient-7" x1="10934.14015" y1="393.68618" x2="11274.53836" y2="393.68618" gradientTransform="matrix(-1, 0, 0, 1, 11836.93617, 0)" gradientUnits="userSpaceOnUse">
      <stop offset="0" stop-color="#435466"/>
      <stop offset="1" stop-color="#62778c"/>
    </linearGradient>
    <linearGradient id="linear-gradient-8" x1="10922.75165" y1="393.68569" x2="11285.92234" y2="393.68569" gradientTransform="matrix(-1, 0, 0, 1, 11836.93617, 0)" gradientUnits="userSpaceOnUse">
      <stop offset="0" stop-color="#435466"/>
      <stop offset="1" stop-color="#7e858c"/>
    </linearGradient>
    <linearGradient id="linear-gradient-9" x1="11034.29706" y1="582.93315" x2="11034.29706" y2="278.74252" xlink:href="#linear-gradient-4"/>
    <linearGradient id="linear-gradient-10" x1="11151.55727" y1="515.23607" x2="11151.55727" y2="211.0389" xlink:href="#linear-gradient-4"/>
    <linearGradient id="linear-gradient-11" x1="11268.83305" y1="447.52682" x2="11268.83305" y2="143.32965" xlink:href="#linear-gradient-4"/>
    <linearGradient id="linear-gradient-12" x1="11212.15481" y1="156.26908" x2="10933.30841" y2="610.90995" gradientTransform="matrix(-1, 0, 0, 1, 11836.93617, 0)" gradientUnits="userSpaceOnUse">
      <stop offset="0.00005" stop-color="#ffcb48"/>
      <stop offset="1" stop-color="#e68e2b"/>
    </linearGradient>
    <linearGradient id="linear-gradient-13" x1="11294.33712" y1="206.67422" x2="11015.49072" y2="661.3151" xlink:href="#linear-gradient-12"/>
    <linearGradient id="linear-gradient-14" x1="11319.5376" y1="122.37224" x2="10904.90512" y2="448.80438" gradientTransform="matrix(-1, 0, 0, 1, 11836.93617, 0)" gradientUnits="userSpaceOnUse">
      <stop offset="0" stop-color="#a0a9b2"/>
      <stop offset="1" stop-color="#5b6f82"/>
    </linearGradient>
    <linearGradient id="linear-gradient-15" x1="11301.59852" y1="99.58612" x2="10886.96605" y2="426.01826" xlink:href="#linear-gradient-14"/>
    <linearGradient id="linear-gradient-16" x1="11282.8918" y1="75.82493" x2="10868.25932" y2="402.25708" gradientTransform="matrix(-1, 0, 0, 1, 11836.93617, 0)" gradientUnits="userSpaceOnUse">
      <stop offset="0" stop-color="#849bb2"/>
      <stop offset="1" stop-color="#5b6f82"/>
    </linearGradient>
    <linearGradient id="linear-gradient-17" x1="541.84729" y1="278.49767" x2="541.84729" y2="555.97504" gradientUnits="userSpaceOnUse">
      <stop offset="0" stop-color="#fffbf2"/>
      <stop offset="0.58386" stop-color="#fffbf2" stop-opacity="0"/>
    </linearGradient>
    <linearGradient id="linear-gradient-18" x1="503.36095" y1="274.44503" x2="577.7474" y2="274.44503" gradientUnits="userSpaceOnUse">
      <stop offset="0.00844" stop-color="#ffc63f"/>
      <stop offset="1" stop-color="#e68a23"/>
    </linearGradient>
    <linearGradient id="linear-gradient-19" x1="518.42035" y1="631.6546" x2="539.00419" y2="631.6546" gradientTransform="matrix(1, 0, 0, 1, 0, 0)" xlink:href="#linear-gradient-3"/>
    <linearGradient id="linear-gradient-20" x1="542.55935" y1="466.54624" x2="581.37628" y2="538.80545" gradientUnits="userSpaceOnUse">
      <stop offset="0" stop-color="#b2a784"/>
      <stop offset="1" stop-color="#6e7982"/>
    </linearGradient>
    <linearGradient id="linear-gradient-21" x1="494.74139" y1="499.49895" x2="536.39494" y2="628.0427" gradientUnits="userSpaceOnUse">
      <stop offset="0" stop-color="#8c8262"/>
      <stop offset="1" stop-color="#526575"/>
    </linearGradient>
    <linearGradient id="linear-gradient-22" x1="535.75932" y1="634.13403" x2="654.48062" y2="634.13403" gradientTransform="matrix(1, 0, 0, 1, 0, 0)" xlink:href="#linear-gradient-4"/>
    <linearGradient id="linear-gradient-23" x1="535.70252" y1="570.72838" x2="746.89164" y2="570.72838" gradientTransform="matrix(1, 0, 0, 1, 0, 0)" xlink:href="#linear-gradient-4"/>
    <linearGradient id="linear-gradient-24" x1="657.58708" y1="380.64509" x2="758.51109" y2="549.64802" xlink:href="#linear-gradient-21"/>
    <linearGradient id="linear-gradient-25" x1="625.66872" y1="399.10793" x2="706.28849" y2="558.10804" gradientUnits="userSpaceOnUse">
      <stop offset="0" stop-color="#b2a784"/>
      <stop offset="0.98707" stop-color="#676d73"/>
    </linearGradient>
    <linearGradient id="linear-gradient-26" x1="614.36088" y1="410.12635" x2="657.76513" y2="540.84976" gradientTransform="matrix(1, 0, 0, 1, 0, 0)" xlink:href="#linear-gradient-12"/>
    <linearGradient id="linear-gradient-27" x1="638.5633" y1="402.09039" x2="681.96755" y2="532.8138" gradientTransform="matrix(1, 0, 0, 1, 0, 0)" xlink:href="#linear-gradient-12"/>
    <linearGradient id="linear-gradient-28" x1="549.15706" y1="518.64548" x2="653.44756" y2="518.64548" gradientTransform="matrix(1, 0, 0, 1, 0, 0)" xlink:href="#linear-gradient-4"/>
    <linearGradient id="linear-gradient-29" x1="671.15653" y1="391.26842" x2="714.56079" y2="521.99183" gradientTransform="matrix(1, 0, 0, 1, 0, 0)" xlink:href="#linear-gradient-12"/>
    <linearGradient id="linear-gradient-30" x1="645.75166" y1="704.92155" x2="666.33551" y2="704.92155" gradientTransform="matrix(1, 0, 0, 1, 0, 0)" xlink:href="#linear-gradient-3"/>
    <linearGradient id="linear-gradient-31" x1="746.89164" y1="649.05709" x2="767.47548" y2="649.05709" gradientTransform="matrix(1, 0, 0, 1, 0, 0)" xlink:href="#linear-gradient-3"/>
    <linearGradient id="linear-gradient-32" x1="702.35462" y1="578.26111" x2="742.66451" y2="652.61046" gradientTransform="matrix(1, 0, 0, 1, 0, 0)" xlink:href="#linear-gradient-16"/>
    <linearGradient id="linear-gradient-33" x1="713.94889" y1="555.41361" x2="750.22779" y2="616.32633" gradientUnits="userSpaceOnUse">
      <stop offset="0" stop-color="#9099a1"/>
      <stop offset="1" stop-color="#5b6f82"/>
    </linearGradient>
    <linearGradient id="linear-gradient-34" x1="659.68654" y1="582.09767" x2="665.65837" y2="693.77099" gradientUnits="userSpaceOnUse">
      <stop offset="0.0392" stop-color="#77828c"/>
      <stop offset="1" stop-color="#526575"/>
    </linearGradient>
    <linearGradient id="linear-gradient-35" x1="630.16208" y1="370.97873" x2="661.56633" y2="401.87234" gradientUnits="userSpaceOnUse">
      <stop offset="0.00005" stop-color="#bca9a0"/>
      <stop offset="1" stop-color="#a68f85"/>
    </linearGradient>
    <linearGradient id="linear-gradient-36" x1="645.73002" y1="355.15346" x2="677.13428" y2="386.04708" xlink:href="#linear-gradient-35"/>
    <linearGradient id="linear-gradient-37" x1="230.36279" y1="697.85226" x2="251.01762" y2="697.85226" gradientTransform="matrix(1, 0, 0, 1, 0, 0)" xlink:href="#linear-gradient-3"/>
    <linearGradient id="linear-gradient-38" x1="176.39847" y1="666.72736" x2="197.0533" y2="666.72736" gradientTransform="matrix(1, 0, 0, 1, 0, 0)" xlink:href="#linear-gradient-3"/>
    <linearGradient id="linear-gradient-39" x1="452.62741" y1="569.19808" x2="473.28225" y2="569.19808" gradientTransform="matrix(1, 0, 0, 1, 0, 0)" xlink:href="#linear-gradient-3"/>
    <linearGradient id="linear-gradient-40" x1="283.66169" y1="491.7745" x2="179.15458" y2="666.15208" gradientTransform="matrix(1, 0, 0, 1, 0, 0)" xlink:href="#linear-gradient-4"/>
    <linearGradient id="linear-gradient-41" x1="458.46189" y1="423.2852" x2="228.54625" y2="696.19805" xlink:href="#linear-gradient-21"/>
    <linearGradient id="linear-gradient-42" x1="449.48057" y1="443.23958" x2="227.32831" y2="683.30734" gradientUnits="userSpaceOnUse">
      <stop offset="0" stop-color="#b2a784"/>
      <stop offset="1" stop-color="#5b6f82"/>
    </linearGradient>
    <linearGradient id="linear-gradient-43" x1="478.18671" y1="469.80346" x2="256.03445" y2="709.87123" xlink:href="#linear-gradient-42"/>
    <linearGradient id="linear-gradient-44" x1="170.03594" y1="498.70772" x2="480.44199" y2="498.70772" gradientUnits="userSpaceOnUse">
      <stop offset="0" stop-color="#526575"/>
      <stop offset="1" stop-color="#8c8262"/>
    </linearGradient>
    <linearGradient id="linear-gradient-45" x1="170.03599" y1="472.66782" x2="480.44206" y2="472.66782" gradientUnits="userSpaceOnUse">
      <stop offset="0" stop-color="#748ea6"/>
      <stop offset="1" stop-color="#ccbf96"/>
    </linearGradient>
    <linearGradient id="linear-gradient-46" x1="829.73077" y1="738.50718" x2="846.45625" y2="738.50718" gradientTransform="matrix(1, 0, 0, 1, 0, 0)" xlink:href="#linear-gradient-3"/>
    <linearGradient id="linear-gradient-47" x1="899.20537" y1="698.4121" x2="915.93085" y2="698.4121" gradientTransform="matrix(1, 0, 0, 1, 0, 0)" xlink:href="#linear-gradient-3"/>
    <linearGradient id="linear-gradient-48" x1="760.90733" y1="698.4121" x2="777.63281" y2="698.4121" gradientTransform="matrix(1, 0, 0, 1, 0, 0)" xlink:href="#linear-gradient-3"/>
    <linearGradient id="linear-gradient-49" x1="755.79386" y1="589.29161" x2="925.39397" y2="708.72831" gradientUnits="userSpaceOnUse">
      <stop offset="0" stop-color="#8c8262"/>
      <stop offset="1" stop-color="#435466"/>
    </linearGradient>
    <linearGradient id="linear-gradient-50" x1="758.40963" y1="609.22105" x2="940.5506" y2="806.88879" gradientUnits="userSpaceOnUse">
      <stop offset="0" stop-color="#8c8262"/>
      <stop offset="0.60476" stop-color="#526575"/>
    </linearGradient>
    <linearGradient id="linear-gradient-51" x1="751.0554" y1="582.32353" x2="840.63292" y2="722.06447" xlink:href="#linear-gradient-42"/>
    <linearGradient id="linear-gradient-52" x1="769.92896" y1="625.19723" x2="881.22903" y2="720.5973" xlink:href="#linear-gradient-50"/>
    <linearGradient id="linear-gradient-53" x1="733.5657" y1="593.53487" x2="823.14323" y2="733.27581" xlink:href="#linear-gradient-42"/>
    <linearGradient id="linear-gradient-54" x1="750.90777" y1="647.38863" x2="862.20784" y2="742.78869" xlink:href="#linear-gradient-50"/>
    <linearGradient id="linear-gradient-55" x1="753.84636" y1="626.58673" x2="922.34627" y2="626.58673" xlink:href="#linear-gradient-21"/>
    <linearGradient id="linear-gradient-56" x1="753.8463" y1="597.15054" x2="922.34622" y2="597.15054" gradientUnits="userSpaceOnUse">
      <stop offset="0" stop-color="#ccbf96"/>
      <stop offset="1" stop-color="#748ea6"/>
    </linearGradient>
    <linearGradient id="linear-gradient-57" x1="160.88037" y1="296.58326" x2="160.88037" y2="494.5585" gradientUnits="userSpaceOnUse">
      <stop offset="0" stop-color="#fff2d7"/>
      <stop offset="0.98888" stop-color="#e6edf2" stop-opacity="0.6"/>
    </linearGradient>
    <linearGradient id="linear-gradient-58" x1="328.31965" y1="296.58346" x2="328.31965" y2="494.55841" xlink:href="#linear-gradient-57"/>
    <linearGradient id="linear-gradient-59" x1="245.35783" y1="303.74967" x2="245.35783" y2="507.39274" gradientTransform="matrix(1, 0, 0, 1, 0, 0)" xlink:href="#linear-gradient-4"/>
    <linearGradient id="linear-gradient-60" x1="159.80482" y1="127.53304" x2="347.91762" y2="355.05995" gradientUnits="userSpaceOnUse">
      <stop offset="0" stop-color="#e68a23"/>
      <stop offset="0.99156" stop-color="#ffc63f"/>
    </linearGradient>
    <clipPath id="clip-path">
      <path class="cls-1" d="M1455.98541,305.84375a194.17509,194.17509,0,1,1-71.04617-150.16185A193.78539,193.78539,0,0,1,1455.98541,305.84375Z"/>
    </clipPath>
    <linearGradient id="linear-gradient-61" x1="347.74771" y1="407.297" x2="1640.4315" y2="1398.63621" gradientTransform="matrix(1, 0, 0, 1, 0, 0)" xlink:href="#linear-gradient-4"/>
    <linearGradient id="linear-gradient-62" x1="-61.73696" y1="822.57409" x2="1056.33596" y2="1830.81113" gradientUnits="userSpaceOnUse">
      <stop offset="0" stop-color="#62788c"/>
      <stop offset="1" stop-color="#526575"/>
    </linearGradient>
    <linearGradient id="linear-gradient-63" x1="-136.78242" y1="1047.38108" x2="1878.88564" y2="1047.38108" gradientTransform="matrix(1, 0, 0, 1, 0, 0)" xlink:href="#linear-gradient-3"/>
    <linearGradient id="linear-gradient-64" x1="-136.78242" y1="1090.13854" x2="1878.88564" y2="1090.13854" gradientTransform="matrix(1, 0, 0, 1, 0, 0)" xlink:href="#linear-gradient-3"/>
    <linearGradient id="linear-gradient-65" x1="1083.69362" y1="293.96697" x2="1005.56596" y2="655.49888" gradientTransform="matrix(1, 0, 0, 1, 0, 0)" xlink:href="#linear-gradient-12"/>
    <linearGradient id="linear-gradient-66" x1="24.68251" y1="531.44281" x2="1134.96635" y2="1150.78481" gradientTransform="matrix(1, 0, 0, 1, 0, 0)" xlink:href="#linear-gradient-12"/>
    <linearGradient id="linear-gradient-67" x1="1027.95018" y1="281.92072" x2="949.82252" y2="643.45263" gradientTransform="matrix(1, 0, 0, 1, 0, 0)" xlink:href="#linear-gradient-12"/>
  </defs>
  <g>
    <g>
      <polygon class="cls-2" points="526.4 81.236 933.047 316.004 933.047 711.22 526.4 476.43 526.4 81.236"/>
      <polygon class="cls-3" points="526.416 81.236 119.77 316.004 119.77 711.22 526.416 476.43 526.416 81.236"/>
    </g>
    <path class="cls-4" d="M126.787,723.3864l378.58059,218.564a42.10143,42.10143,0,0,0,42.1011-.00062l378.5612-218.56743a14.03381,14.03381,0,0,0,.00016-24.307L547.45226,480.49136a42.10144,42.10144,0,0,0-42.10408.00053l-378.562,218.58744A14.03381,14.03381,0,0,0,126.787,723.3864Z"/>
    <path class="cls-5" d="M573.95691,754.5533c-46.28793,0-83.81216-21.56548-83.81216-48.16783,0-22.04521,25.77888-40.61765,60.94976-46.33859l103.38611,59.69133C644.40441,739.84216,612.18068,754.5533,573.95691,754.5533Z"/>
    <path class="cls-5" d="M804.09391,631.52072,669.23967,553.55959a14.33363,14.33363,0,0,0-14.34784,0L520.0376,631.52072a7.1668,7.1668,0,0,0,0,12.40917L654.89183,721.891a14.33363,14.33363,0,0,0,14.34784,0l134.85424-77.96113A7.1668,7.1668,0,0,0,804.09391,631.52072Z"/>
  </g>
  <g>
    <g>
      <g>
        <g>
          <path class="cls-6" d="M914.18443,663.77282,554.43073,456.07868a6.8337,6.8337,0,0,1-3.417-5.91823V123.59866L914.18443,333.28571Z"/>
          <path class="cls-7" d="M562.39781,143.32641l11.36671-6.56037,340.3982,196.53735V637.49054l-11.3667,6.56037L562.39781,447.525Z"/>
          <polygon class="cls-8" points="808.339 285.324 808.339 576.399 902.796 630.93 902.795 624.346 814.034 573.114 814.034 288.613 808.339 285.324"/>
          <polygon class="cls-9" points="691.079 217.621 691.097 508.709 785.55 563.242 785.55 556.659 696.791 505.429 696.791 220.9 691.079 217.621"/>
          <polygon class="cls-10" points="573.765 149.886 573.803 440.998 668.29 495.547 668.29 488.963 579.531 437.733 579.531 153.216 573.765 149.886"/>
          <polygon class="cls-11" points="562.398 143.326 562.403 447.53 902.795 644.046 902.796 630.93 573.765 440.976 573.765 149.886 562.398 143.326"/>
          <path class="cls-12" d="M551.01383,123.59864V450.1605a6.83371,6.83371,0,0,0,3.417,5.91823l359.75372,207.694v-330.487Zm234.536,148.5678V576.3577L679.67911,515.23607V211.0389ZM902.795,644.04595l-105.85569-61.1128V278.74252L902.795,339.8613ZM562.40333,143.32632l105.88628,61.1365v304.1978L562.40333,447.53009Z"/>
        </g>
        <polygon class="cls-13" points="796.939 582.933 808.339 576.399 808.339 285.324 796.939 278.743 796.939 582.933"/>
        <polygon class="cls-14" points="679.679 515.236 691.079 508.703 691.079 217.621 679.679 211.039 679.679 515.236"/>
      </g>
      <polygon class="cls-15" points="562.403 447.527 573.803 440.998 573.765 149.886 562.403 143.33 562.403 447.527"/>
    </g>
    <g>
      <path class="cls-16" d="M718.66813,255.26162l-2.82681,294.00307s12.97615,15.70384,30.3445,25.1416,47.44,16.53084,47.44,16.53084,4.378,14.00731,26.19606,25.13166a131.50211,131.50211,0,0,0,42.72539,13.05006s1.77995,8.39876,11.461,13.57662c8.02821,4.267,19.32542,4.89358,24.68889,5.61891V358.34261s-10.34212,1.934-24.29416-5.38219-11.85572-13.565-11.85572-13.565-26.09891-3.06427-41.75649-12.27273-26.64457-27.3982-26.64457-27.3982a152.08914,152.08914,0,0,1-41.9317-12.32652C731.43658,277.5665,723.67727,259.96729,718.66813,255.26162Z"/>
      <path class="cls-17" d="M848.94422,337.02231c7.7864,1.68906,13.603,2.373,13.603,2.373a4.4862,4.4862,0,0,0,0,1.98657v287.7369a118.24757,118.24757,0,0,1-19.32071-3.94885Z"/>
      <path class="cls-17" d="M793.51581,590.911c-.06537-.01565-.1577-.03778-.28072-.06763l-.00916-.00227c-.11952-.02893-.26878-.06537-.43894-.10706l-.10562-.026c-.16018-.03943-.3358-.08287-.534-.13218l-.11427-.02851c-.21545-.05374-.44769-.112-.70268-.17645l-.085-.02151q-.40872-.10346-.879-.224l-.08864-.02275c-.3045-.07824-.62979-.16244-.96981-.25108l-.17747-.04632q-.51867-.13542-1.087-.28608l-.12528-.03314q-.62507-.166-1.30376-.34908l-.03006-.00813c-3.34014-.90208-7.622-2.11463-12.29586-3.5766l5.763-288.52513a133.9063,133.9063,0,0,0,14.09446,2.69738h.0001l-.52037,291.21273-.09769-.02327Z"/>
      <path class="cls-18" d="M547.85474,157.64669l-2.84032,289.88013c0,3.61444,4.8086,9.10485,14.92817,14.27229a80.8766,80.8766,0,0,0,22.77681,7.49573s10.16563,12.3128,24.48376,20.38693c12.88244,7.26453,36.01649,12.24514,36.01649,12.24514s14.88628,22.61966,29.42875,31.34743,37.82946,15.265,43.19292,15.99035l2.82681-294.00307s-26.66657-3.64144-41.30977-12.18168c-14.76692-8.61241-29.83251-26.76187-29.83251-26.76187s-21.07106-1.44375-39.67676-13.10638-21.10033-23.711-21.10033-23.711a32.71909,32.71909,0,0,1-21.82281-4.02822C553.62569,169.0129,549.9845,162.841,547.85474,157.64669Z"/>
      <path class="cls-17" d="M702.38148,252.10658c9.02325,2.16115,16.2866,3.15506,16.2866,3.15506l-2.82678,294.003c-2.80793-.37975-10.53062-2.35458-19.337-5.40052Z"/>
      <path class="cls-17" d="M631.22493,213.24951a91.71749,91.71749,0,0,0,16.30091,3.06858l-4.30626,285.60879s-9.25043-1.993-19.30907-5.294Z"/>
      <path class="cls-17" d="M569.16914,177.59989a34.73063,34.73063,0,0,0,17.57956,1.90077l-4.02936,289.79413a81.02,81.02,0,0,1-19.32729-5.85943Z"/>
    </g>
    <g>
      <g>
        <circle class="cls-19" cx="545.26644" cy="144.31207" r="7.98823"/>
        <path class="cls-20" d="M546.26189,149.9573,897.80024,352.96042l3.89213-6.74136L550.14094,143.20839l-.00177.00308a1.96035,1.96035,0,0,0-1.934.206,6.08478,6.08478,0,0,0-2.76124,4.76281A1.9097,1.9097,0,0,0,546.26189,149.9573Z"/>
        <path class="cls-21" d="M544.88619,149.91087a5.25327,5.25327,0,0,0,2.513,4.73923,4.73186,4.73186,0,0,0,2.41172.64112,5.954,5.954,0,0,0,3.52513-1.24806l-3.72731-2.15889a1.16686,1.16686,0,0,1-.52294-.15195,1.33093,1.33093,0,0,1-.42165-.38788c-.64112-.87706-.50606-2.58054.42165-4.18273.87706-1.518,2.17577-2.46236,3.22125-2.46236a1.332,1.332,0,0,1,.72553.1855l4.18272,2.41192a5.45526,5.45526,0,0,0-2.49613-5.34678,4.9413,4.9413,0,0,0-2.41212-.62383,6.0919,6.0919,0,0,0-3.44072,1.14677,9.16922,9.16922,0,0,0-2.69831,3.00219,9.49659,9.49659,0,0,0-1.24807,3.71043C544.90307,149.4219,544.88619,149.67473,544.88619,149.91087Z"/>
        <path class="cls-21" d="M584.08018,172.55126a5.25329,5.25329,0,0,0,2.513,4.73923,4.732,4.732,0,0,0,2.41172.64112,5.954,5.954,0,0,0,3.52513-1.24807l-3.72731-2.15889a1.167,1.167,0,0,1-.52294-.15194,1.33106,1.33106,0,0,1-.42165-.38789c-.64112-.87706-.50606-2.58054.42165-4.18272.87706-1.518,2.17577-2.46237,3.22125-2.46237a1.33193,1.33193,0,0,1,.72553.18551l4.18273,2.41192a5.45531,5.45531,0,0,0-2.49613-5.34679,4.94136,4.94136,0,0,0-2.41213-.62383,6.0919,6.0919,0,0,0-3.44072,1.14677,9.16932,9.16932,0,0,0-2.69831,3.00219,9.49679,9.49679,0,0,0-1.24806,3.71043C584.09706,172.06229,584.08018,172.31511,584.08018,172.55126Z"/>
      </g>
      <circle class="cls-21" cx="549.37177" cy="156.86599" r="2.69138"/>
      <circle class="cls-21" cx="587.00954" cy="178.4773" r="2.69138"/>
      <path class="cls-21" d="M643.84842,207.05037a5.25325,5.25325,0,0,0,2.513,4.73923,4.73179,4.73179,0,0,0,2.41171.64112,5.95407,5.95407,0,0,0,3.52514-1.24806l-3.72731-2.1589a1.16688,1.16688,0,0,1-.523-.15194,1.33115,1.33115,0,0,1-.42165-.38788c-.64112-.87706-.50606-2.58054.42165-4.18273.87706-1.518,2.17578-2.46236,3.22125-2.46236a1.332,1.332,0,0,1,.72553.1855l4.18273,2.41192a5.45528,5.45528,0,0,0-2.49613-5.34678,4.94133,4.94133,0,0,0-2.41213-.62383,6.09192,6.09192,0,0,0-3.44072,1.14677,9.16944,9.16944,0,0,0-2.69831,3.00219,9.49668,9.49668,0,0,0-1.24806,3.71043C643.8653,206.5614,643.84842,206.81423,643.84842,207.05037Z"/>
      <circle class="cls-21" cx="647.33196" cy="214.07367" r="2.69138"/>
      <path class="cls-21" d="M712.13858,246.48948a5.25327,5.25327,0,0,0,2.513,4.73923,4.73186,4.73186,0,0,0,2.41172.64112,5.954,5.954,0,0,0,3.52513-1.24806l-3.72731-2.1589a1.16688,1.16688,0,0,1-.52294-.15194,1.33115,1.33115,0,0,1-.42165-.38788c-.64112-.87706-.50606-2.58054.42165-4.18273.87706-1.518,2.17577-2.46236,3.22125-2.46236a1.332,1.332,0,0,1,.72553.1855l4.18273,2.41192a5.45528,5.45528,0,0,0-2.49613-5.34678,4.94133,4.94133,0,0,0-2.41213-.62383,6.09192,6.09192,0,0,0-3.44072,1.14677,9.16922,9.16922,0,0,0-2.69831,3.00219,9.49668,9.49668,0,0,0-1.24806,3.71043C712.15547,246.00051,712.13858,246.25334,712.13858,246.48948Z"/>
      <circle class="cls-21" cx="716.59102" cy="253.67305" r="2.69138"/>
      <path class="cls-21" d="M717.86072,249.78a5.25329,5.25329,0,0,0,2.513,4.73923,4.73186,4.73186,0,0,0,2.41172.64112,5.954,5.954,0,0,0,3.52513-1.24807l-3.72731-2.15889a1.167,1.167,0,0,1-.52294-.15194,1.33093,1.33093,0,0,1-.42165-.38788c-.64112-.87707-.50606-2.58055.42165-4.18273.87706-1.518,2.17577-2.46236,3.22125-2.46236a1.33192,1.33192,0,0,1,.72553.1855l4.18272,2.41192a5.45527,5.45527,0,0,0-2.49613-5.34679,4.9414,4.9414,0,0,0-2.41212-.62382,6.09182,6.09182,0,0,0-3.44072,1.14677,9.16918,9.16918,0,0,0-2.69831,3.00218,9.49664,9.49664,0,0,0-1.24807,3.71043C717.8776,249.291,717.86072,249.5438,717.86072,249.78Z"/>
      <circle class="cls-21" cx="719.94205" cy="255.67287" r="2.69138"/>
      <path class="cls-22" d="M790.13876,291.53305a5.25325,5.25325,0,0,0,2.513,4.73922,4.73179,4.73179,0,0,0,2.41171.64112,5.95407,5.95407,0,0,0,3.52514-1.24806l-3.72731-2.15889a1.167,1.167,0,0,1-.52295-.15194,1.33117,1.33117,0,0,1-.42165-.38789c-.64112-.87706-.50606-2.58054.42165-4.18272.87706-1.518,2.17578-2.46237,3.22125-2.46237a1.332,1.332,0,0,1,.72553.1855l4.18273,2.41193a5.45531,5.45531,0,0,0-2.49613-5.34679,4.94133,4.94133,0,0,0-2.41213-.62383,6.09192,6.09192,0,0,0-3.44072,1.14677,9.16922,9.16922,0,0,0-2.69831,3.00219,9.49679,9.49679,0,0,0-1.24806,3.71043C790.15565,291.04407,790.13876,291.2969,790.13876,291.53305Z"/>
      <circle class="cls-22" cx="793.62231" cy="298.55634" r="2.69138"/>
      <path class="cls-22" d="M858.96841,331.328a5.25326,5.25326,0,0,0,2.513,4.73922,4.73186,4.73186,0,0,0,2.41172.64112,5.954,5.954,0,0,0,3.52513-1.24806l-3.72731-2.15889a1.167,1.167,0,0,1-.52294-.15194,1.331,1.331,0,0,1-.42165-.38789c-.64112-.87706-.50606-2.58054.42165-4.18272.87706-1.518,2.17577-2.46237,3.22125-2.46237a1.332,1.332,0,0,1,.72553.1855l4.18273,2.41193a5.45531,5.45531,0,0,0-2.49613-5.34679,4.94136,4.94136,0,0,0-2.41213-.62383,6.0919,6.0919,0,0,0-3.44072,1.14677,9.16922,9.16922,0,0,0-2.69831,3.00219,9.49662,9.49662,0,0,0-1.24806,3.71043C858.98529,330.839,858.96841,331.09184,858.96841,331.328Z"/>
      <circle class="cls-22" cx="862.45196" cy="338.35128" r="2.69138"/>
      <path class="cls-22" d="M893.47873,351.18726a5.25327,5.25327,0,0,0,2.513,4.73923,4.73192,4.73192,0,0,0,2.41171.64112,5.954,5.954,0,0,0,3.52514-1.24807l-3.72731-2.15889a1.167,1.167,0,0,1-.523-.15194,1.33106,1.33106,0,0,1-.42165-.38789c-.64112-.87706-.50606-2.58054.42165-4.18272.87707-1.518,2.17578-2.46236,3.22125-2.46236a1.33192,1.33192,0,0,1,.72553.1855l4.18273,2.41192a5.45531,5.45531,0,0,0-2.49613-5.34679,4.94133,4.94133,0,0,0-2.41213-.62383,6.09192,6.09192,0,0,0-3.44072,1.14677,9.16954,9.16954,0,0,0-2.69831,3.00219,9.49679,9.49679,0,0,0-1.24806,3.71043C893.49561,350.69829,893.47873,350.95111,893.47873,351.18726Z"/>
      <circle class="cls-22" cx="896.96227" cy="358.21056" r="2.69138"/>
    </g>
    <circle class="cls-23" cx="904.53263" cy="351.75757" r="7.98823"/>
  </g>
  <g>
    <polygon class="cls-24" points="503.481 282.857 415.365 553.598 668.33 553.598 577.289 281.146 503.481 282.857"/>
    <g>
      <path class="cls-25" d="M567.627,531.495c-2.90129-7.07889-13.90631-12.35289-27.07292-12.35289s-24.17164,5.274-27.07282,12.35289h-.77251v3.69843c0,8.86492,12.46673,16.05133,27.84533,16.05133s27.84543-7.18641,27.84543-16.05133V531.495Z"/>
      <ellipse class="cls-25" cx="540.55412" cy="530.95026" rx="27.84539" ry="16.05137"/>
    </g>
    <path class="cls-25" d="M536.90552,297.84787V527.62039c0,1.16158,1.63353,2.10321,3.64859,2.10321s3.6486-.94163,3.6486-2.10321V297.84787Z"/>
    <g>
      <path class="cls-26" d="M577.637,282.93021h.00194l-.006-.03039a12.807,12.807,0,0,0-.34414-1.75344L569.803,243.0165H511.29973l-7.48794,38.15479a12.79918,12.79918,0,0,0-.33071,1.68569l-.01448.07323h.00459a12.51394,12.51394,0,0,0-.11024,1.56795c0,11.80534,16.652,21.37539,37.193,21.37539,20.54138,0,37.1934-9.57005,37.1934-21.37539A12.48008,12.48008,0,0,0,577.637,282.93021Z"/>
      <ellipse class="cls-27" cx="540.55412" cy="244.45813" rx="29.36136" ry="16.87434"/>
      <path class="cls-25" d="M529.6132,260.109a49.53127,49.53127,0,0,0,21.8817,0v-8.60982H529.6132Z"/>
      <ellipse class="cls-25" cx="540.55412" cy="251.49922" rx="10.94091" ry="6.30684"/>
      <path class="cls-28" d="M540.55411,229.031c15.39192,0,27.914,6.92056,27.914,15.42712s-12.52211,15.42725-27.914,15.42725-27.914-6.92068-27.914-15.42725,12.52211-15.42712,27.914-15.42712m0-1.4472c-16.21576,0-29.36135,7.55492-29.36135,16.87432,0,9.31953,13.14559,16.87445,29.36135,16.87445s29.36134-7.55492,29.36134-16.87445c0-9.3194-13.14559-16.87432-29.36134-16.87432Z"/>
    </g>
  </g>
  <g>
    <g>
      <path class="cls-29" d="M539.00419,619.98841l-2.83568,18.96992c0,2.4094-3.3503,4.36246-7.48308,4.36246s-7.48308-1.95306-7.48308-4.36246l-2.782-18.96992Z"/>
      <path class="cls-30" d="M539.00419,619.98841l-2.83568,18.96992c0,2.4094-3.3503,4.36246-7.48308,4.36246s-7.48308-1.95306-7.48308-4.36246l-2.782-18.96992Z"/>
      <ellipse class="cls-31" cx="528.68545" cy="619.37164" rx="10.31868" ry="6.01552"/>
    </g>
    <g>
      <path class="cls-32" d="M535.69473,634.72168l-48.685-139.389,109.6418-63.16685.00506.01439c4.53592-2.6907,10.8491-2.34832,17.84065,1.68819,12.928,7.46407,23.56186,24.868,24.85806,40.05817l.0018.00079.003.03846.00078.00911,7.426,92.61494c.18042,2.25035-.38839,3.9337-1.44433,4.89078l.00135.00371-.01969.01136a3.35944,3.35944,0,0,1-1.19126.687Z"/>
      <path class="cls-33" d="M530.1359,536.88106l-.00068-.00911-.00312-.03846-.00175-.00079c-1.29622-15.19022-11.93009-32.59417-24.85813-40.05818-13.80307-7.9692-24.99265-1.58954-24.99265,14.24939,0,14.65913,9.5908,32.26488,21.96157,41.12694l4.85117,59.66111c.43425,5.34,4.16327,11.37349,8.61954,13.94632L530.536,634.317c4.16629,2.40541,7.42618.16855,7.026-4.821Z"/>
    </g>
    <g>
      <polygon class="cls-34" points="654.481 696.777 541.146 631.487 535.759 571.491 649.094 636.781 654.481 696.777"/>
      <path class="cls-35" d="M746.89164,569.96616l-113.335-65.2908-89.91317,51.7355a15.85981,15.85981,0,0,0-7.88412,15.07972v0l113.335,65.2908-.78388-10.08435Z"/>
    </g>
    <path class="cls-36" d="M620.58753,403.49693a27.85523,27.85523,0,0,1,18.01386-22.72458l16.10185-5.8462a35.18784,35.18784,0,0,1,29.88584,2.61613l66.58383,38.4188a44.22818,44.22818,0,0,1,21.82025,43.47042l-8.22172,112.94993L655.35178,509.24l9.94051-96.90317Z"/>
    <path class="cls-37" d="M718.16525,582.07771,608.74558,518.93628l11.84194-115.43936a18.42845,18.42845,0,0,1,27.5132-13.81038l59.95507,34.59751A44.22829,44.22829,0,0,1,729.876,467.75452Z"/>
    <g>
      <g>
        <path class="cls-38" d="M597.81944,667.29742s7.46523,6.11317,5.84654,13.64627c-1.94084,9.0324-10.45551,12.5378-15.2655,14.96692s-15.31757,16.84848-26.42157,16.60837c-10.38184-.2245-11.30705-8.78608-5.94762-14.09043l8.43057-8.81685,9.09437-11.5996C581.12677,672.81406,592.98574,663.22149,597.81944,667.29742Z"/>
        <path class="cls-39" d="M594.21278,662.36623s7.78879,8.3165,6.30759,15.87783c-1.28723,6.57113-10.23691,9.419-15.31109,13.24365-4.30311,3.24343-12.12637,14.25447-23.23037,14.01436-10.38184-.2245-11.30705-8.78607-5.94762-14.09042l8.43057-8.81686,9.09437-11.5996C581.12677,665.79715,589.37907,658.29031,594.21278,662.36623Z"/>
        <polygon class="cls-38" points="578.356 677.41 588.52 690.184 576.084 702.099 560.392 707.24 578.356 677.41"/>
        <path class="cls-40" d="M597.21161,522.97836s-43.99774,12.68533-66.93826,24.44994-23.59405,31.862-12.5355,47.81993l43.70887,65.95124L589.96756,648.227,566.3987,589.9946l69.34287-11.4785Z"/>
        <path class="cls-38" d="M542.39541,702.09946l-12.04169,16.87906s-12.91,5.799-20.00971,14.41132c-2.718,3.297,2.87114,16.233,18.49418,13.476,12.63727-2.23011,16.02606-8.28423,21.11969-12.2839,5.094-3.99956,11.04473-4.74116,15.6063-11.17045,3.2328-4.55647-1.65222-13.57694-1.65222-13.57694Z"/>
        <path class="cls-39" d="M542.39541,695.34691,531.15489,712.277l-13.36144,12.42822-5.40143,5.19447c-4.91088,5.50019,1.37228,14.14906,16.99532,11.39205,12.63727-2.23011,14.457-7.67122,19.55061-11.67089,5.094-3.99956,11.21209-5.88106,13.84259-9.69335,3.17291-4.59838,1.49-18.257,1.49-18.257Z"/>
        <path class="cls-38" d="M516.90266,723.96348c-8.02089,7.53192-9.1725,11.88191-3.70213,16.5449,5.58385,4.75971,24.57529,0,24.57529,0l14.57365-11.37468s-.97238-5.16627-6.95745-10.97873c-5.87172-5.70238-12.73118-7.14186-15.57447-5.633Z"/>
        <path class="cls-38" d="M610.82483,502.646l-13.83339,21.131,18.27924,31.47415-32.17429,33.97616a89.39484,89.39484,0,0,0-20.14554,33.95186l-23.8085,70.71235c-5.74919,15.66624,22.39549,23.376,27.53558,15.45571l45.781-78.39039s44.58031-26.41531,58.19557-37.11222c13.82551-10.8621,24.45018-41.7868,24.45018-65.42546Z"/>
        <g>
          <path class="cls-39" d="M619.75262,418.78014l-25.236,55.00641L575.84873,484.0957l1.3122,11.74774s29.15506,1.15442,34.48735-5.036,23.3388-47.28307,23.3388-47.28307L638.45192,413.09Z"/>
          <path class="cls-41" d="M620.70438,412.78964c-10.80529,15.22818-22.17814,43.9068-22.17814,43.9068C594.976,467.01715,607.97049,479.2072,618.509,475.527l16.47812-32.0027,9.38061-44.67414A33.46875,33.46875,0,0,0,620.70438,412.78964Z"/>
          <path class="cls-42" d="M614.0834,440.228l-3.27979,35.45532a12.9305,12.9305,0,0,0,7.70532-.15625l.749-1.45483Z"/>
          <path class="cls-39" d="M577.77677,483.25227s-9.40124-.27863-13.74311,1.94958-8.05505,13.43621-8.05505,13.43621l19.305,9.94172,9.31078-12.24264,2.28292-1.12025C591.00228,488.39637,583.59029,482.06068,577.77677,483.25227Z"/>
          <polygon class="cls-43" points="574.923 490.073 563.874 493.76 561.593 497.448 571.523 495.149 574.689 492.013 574.923 490.073"/>
          <path class="cls-44" d="M614.14437,488.387c-5.11594,14.55146-2.35358,35.15044,23.92249,46.49693,21.65153,9.34952,55.6638,3.27739,59.05144-9.04651l4.45068-16.91221,12.719-61.69672c-1.38152-8.18525-8.99394-25.22275-38.00761-44.40386-14.61287-9.66066-33.85654-3.44768-33.85654-3.44768-10.83472,2.06025-27.54564,12.09245-28.34043,40.85107l2.21564,40.48028Z"/>
          <path class="cls-42" d="M681.15005,462.9514l-4.58783,45.62841-25.471,7.74952-14.58246,17.84521c.51489.23828,1.02387.47876,1.558.70947,21.65156,9.34937,55.66382,3.27735,59.05146-9.04663l3.11407-11.83325Z"/>
        </g>
      </g>
      <g>
        <path class="cls-45" d="M652.50416,526.2632l-26.37263-4.54514-27.4902-22.55667-47.44962,10.05949a2.56485,2.56485,0,0,0-1.02759,4.54535l28.16713,21.57239,22.45892,2.602a28.43191,28.43191,0,0,0,9.16119-.42765l42.59517-9.01818A1.13639,1.13639,0,0,0,652.50416,526.2632Z"/>
        <path class="cls-46" d="M652.80336,522.57286l-.21215-6.56112-24.29315,2.25635-24.33258-21.16975L552.106,499.60257l-1.04318,8.71132,29.43492,23.57475,18.64671,1.82007a4.73428,4.73428,0,0,0,1.44052-.08027Z"/>
        <polygon class="cls-47" points="652.591 516.012 627.908 513.614 605.009 488.387 552.106 499.603 580.108 527.235 599.659 527.218 652.591 516.012"/>
        <path class="cls-39" d="M574.68933,492.01343l-5.65313,3.95118c-2.4799,2.00208.4826,4.58437,4.30251,3.48318,4.3756-1.52572,11.55791-5.11841,14.58957-7.58318Z"/>
      </g>
      <path class="cls-39" d="M716.42982,468.9155l-27.16938-4.89982,1.2211,45.08846L644.6477,519.55485v15.42386s38.64188.84718,54.07431-1.7073c13.64191-2.2581,16.60917-10.87993,17.21447-23.19684C716.52746,498.04913,716.42982,468.9155,716.42982,468.9155Z"/>
      <path class="cls-39" d="M649.9747,518.49622l-8.56492-2.02049a20.556,20.556,0,0,0-5.55578-.53215l-12.78647.52054c-3.00224.18472-3.16281,4.41979.63556,5.3417l6.70823,1.256-4.012,7.19629-3.90993,4.28225-7.756,1.96022s8.51669,4.93956,14.33345,4.36462c7.91641-.78248,22.83061-6.49864,22.83061-6.49864C656.77323,533.15968,656.25671,519.81279,649.9747,518.49622Z"/>
      <path class="cls-48" d="M712.69651,441.51044c-5.26989-14.38839-32.54146-2.999-31.54646,21.441L683.349,502.31c.44788,10.77437,34.30395,8.61277,34.49148-.80539C717.8405,501.50463,719.4359,459.911,712.69651,441.51044Z"/>
    </g>
    <g>
      <g>
        <path class="cls-29" d="M666.33551,693.25536l-2.83569,18.96992c0,2.4094-3.35029,4.36246-7.48307,4.36246s-7.48308-1.95306-7.48308-4.36246l-2.782-18.96992Z"/>
        <path class="cls-49" d="M666.33551,693.25536l-2.83569,18.96992c0,2.4094-3.35029,4.36246-7.48307,4.36246s-7.48308-1.95306-7.48308-4.36246l-2.782-18.96992Z"/>
        <ellipse class="cls-31" cx="656.01676" cy="692.63859" rx="10.31868" ry="6.01552"/>
      </g>
      <path class="cls-50" d="M767.47548,637.3909l-2.83568,18.96992c0,2.40939-3.3503,4.36245-7.48308,4.36245s-7.48308-1.95306-7.48308-4.36245l-2.782-18.96992Z"/>
      <g>
        <path class="cls-51" d="M758.83252,525.72157l.00078.00663c4.53941-2.72726,10.86778-2.41254,17.88789,1.6405,13.803,7.96921,24.99259,27.26949,24.99259,43.10847,0,14.65908-9.5907,21.19037-21.96152,15.7679l-4.85119,54.05947a5.49932,5.49932,0,0,1-2.57621,4.62534l.00394.035L663.06313,707.89292,649.749,588.51612Z"/>
        <path class="cls-52" d="M758.83252,525.72157l.00315.00529c4.53917-2.72581,10.86665-2.41053,17.88552,1.64184,13.803,7.96921,24.99259,27.26949,24.99259,43.10847,0,7.75494-2.70162,13.20564-7.0614,15.84483l.01744.02936-110.50676,63.5693L649.749,588.51612Z"/>
        <path class="cls-53" d="M642.63256,601.67124l.00068-.00832.00312-.03487.00175.00124c1.29622-13.69346,11.93009-18.81848,24.85813-11.35447,13.80307,7.9692,24.99266,27.26948,24.99266,43.10842,0,14.65913-9.59081,21.19036-21.96158,15.76789l-4.85117,54.05947c-.43425,4.83857-4.16326,6.56616-8.61954,3.99333l-14.82411-8.55871c-4.16629-2.4054-7.42618-8.40646-7.026-12.934Z"/>
      </g>
    </g>
    <g>
      <polygon class="cls-42" points="633.393 418.544 646.693 432.071 669.066 436.85 668.455 423.598 645.169 412.209 633.393 418.544"/>
      <path class="cls-39" d="M647.64408,428.92713l10.64722-7.334,16.87137-12.76094s-3.23336-8.95919-13.25748-8.5636c-8.7146.34391-15.16574,10.0678-15.16574,10.0678Z"/>
      <path class="cls-54" d="M647.64408,428.9271c-.47913-7.38727.45225-14.56435,3.12859-20.0798l7.23448-8.76985,1.37583-5.60009c-13.887,3.4652-23.43641,18.1456-26.30978,23.09155a.693.693,0,0,0,.84142.99511l5.85777-2.14338a2.08339,2.08339,0,0,1,2.60805,1.08456l5.26364,11.42193Z"/>
      <path class="cls-55" d="M649.9763,411.42765c.32545,9.68871,16.5189,6.71788,22.83583-2.14546-.53063-6.29522.95585-12.31364-2.79117-20.34225l-20.64634,4.68242Z"/>
      <path class="cls-54" d="M680.45711,416.80477c-1.5607,6.9875-7.09215,16.04467-9.54588,19.82954a1.21179,1.21179,0,0,1-2.1103-.13738l-4.38636-9.1332a2.36713,2.36713,0,0,0-2.602-1.29558l-14.16847,2.859h0s10.76974-7.59774,15.1673-10.75288c12.60892-9.0466,9.22067-20.24531,9.22067-20.24531s.48634-.80974,2.88468,1.90308S682.25831,408.74057,680.45711,416.80477Z"/>
      <g>
        <path class="cls-56" d="M632.55771,366.23642c-3.76168,8.589-.09576,20.72079,5.52251,23.04445L637.4811,366.988Z"/>
        <path class="cls-39" d="M653.07088,410.01025c10.82447-2.83869,14.48007-7.2054,14.78808-17.47861l.62964-22.21146c.50433-8.95312-5.79948-18.8457-16.22305-18.5249-9.11007.28038-18.28126,8.09786-17.97554,18.19a204.08707,204.08707,0,0,0,2.27948,22.26113C638.30587,402.05961,643.23378,412.59,653.07088,410.01025Z"/>
        <path class="cls-55" d="M659.00155,371.34618c-6.82709-1.163-14.44212,4.71313-24.549,1.56251-.114-1.81206-.16259-2.92348-.16259-2.92348a15.91281,15.91281,0,0,1,.448-4.19129L658.288,367.8171Z"/>
        <path class="cls-57" d="M672.1772,398.55065s2.98849-4.75139,6.374-14.78835,1.63306-20.28187-5.46319-26.79752c-5.139-4.71857-12.82706-7.55133-22.72532-5.8383-13.22536,2.28883-19.78578,10.05773-19.78578,10.05773s-2.91091,3.74291,3.58052,6.7358c3.47239,1.601,9.07167,2.14722,13.08267,1.52881s9.89923-.35877,12.00695,2.35769c2.9238,3.76824-.305,10.14608,2.66632,13.84877,1.12123,1.3972,3.4828.325,3.4828.325l2.46243,5.01157Z"/>
        <g>
          <path class="cls-58" d="M641.38523,387.25178c1.85212-.74148,4.73707.231,6.76287,1.7869"/>
          <line class="cls-58" x1="657.3363" y1="389.79681" x2="669.08347" y2="383.31752"/>
          <path class="cls-59" d="M641.02074,390.53556l-7.17234-1.96387a2.37394,2.37394,0,0,1-1.75051-1.86559l-.64276-3.55757a1.23608,1.23608,0,0,1,1.54843-1.33043l7.17234,1.96388a2.37395,2.37395,0,0,1,1.75052,1.86559l.64275,3.55757A1.23607,1.23607,0,0,1,641.02074,390.53556Z"/>
          <path class="cls-59" d="M657.21369,393.81724l-8.92216-1.86287a2.3096,2.3096,0,0,1-1.88691-1.83083l-.66473-3.64952a1.41687,1.41687,0,0,1,1.69824-1.46983l8.92216,1.86286a2.3096,2.3096,0,0,1,1.88691,1.83083l.66473,3.64953A1.41687,1.41687,0,0,1,657.21369,393.81724Z"/>
        </g>
        <path class="cls-39" d="M667.98769,396.24131c3.71135.00282,6.8395-5.1769,6.84271-9.38836s-3.64051-7.75855-6.83109-5.86269C663.9941,383.37019,664.27634,396.23848,667.98769,396.24131Z"/>
      </g>
    </g>
  </g>
  <path class="cls-60" d="M172.52867,668.92847,406.552,533.86046a9.98062,9.98062,0,0,1,9.99052,0l61.40686,35.51321a4.9903,4.9903,0,0,1,0,8.64061l-234.02333,135.068a9.9806,9.9806,0,0,1-9.99051,0l-61.40687-35.51321A4.99031,4.99031,0,0,1,172.52867,668.92847Z"/>
  <g>
    <path class="cls-61" d="M251.01762,685.78642l-2.65153,19.72343c0,2.43463-3.4342,4.40824-7.67044,4.40824s-7.67023-1.97361-7.67023-4.40824l-2.66263-19.72343Z"/>
    <path class="cls-62" d="M197.0533,654.66152,194.40177,674.385c0,2.43463-3.4342,4.40824-7.67044,4.40824s-7.67023-1.97361-7.67023-4.40824l-2.66263-19.72343Z"/>
    <path class="cls-63" d="M473.28225,557.13225l-2.65153,19.72343c0,2.43462-3.4342,4.40824-7.67044,4.40824s-7.67023-1.97362-7.67023-4.40824l-2.66264-19.72343Z"/>
    <path class="cls-64" d="M174.24527,536.37639V661.73408a4.82753,4.82753,0,0,0,2.41063,4.19861L235.84884,700.157a9.6562,9.6562,0,0,0,4.84137,1.28575V517.98659Z"/>
    <path class="cls-65" d="M240.69021,517.98659V701.4427a9.65665,9.65665,0,0,0,4.84185-1.28575l228.277-131.75353a4.806,4.806,0,0,0,2.431-4.19861V438.84712Z"/>
    <polygon class="cls-66" points="465.387 456.405 465.387 503.361 251.544 626.785 251.544 579.829 465.387 456.405"/>
    <polygon class="cls-67" points="465.387 513.982 465.387 560.955 251.544 684.378 251.544 637.405 465.387 513.982"/>
    <polygon class="cls-68" points="373.737 574.139 373.737 580.848 343.193 598.477 343.193 591.768 373.737 574.139"/>
    <polygon class="cls-68" points="373.737 516.286 373.737 522.996 343.193 540.625 343.193 533.916 373.737 516.286"/>
    <path class="cls-69" d="M480.442,422.996v10.695a4.94379,4.94379,0,0,1-2.49267,4.32031L243.92614,573.07943a9.981,9.981,0,0,1-9.99063,0l-61.4069-35.51329a4.94379,4.94379,0,0,1-2.49267-4.32031V522.83766Z"/>
    <path class="cls-70" d="M172.52867,518.12492,406.552,383.05691a9.98062,9.98062,0,0,1,9.99052,0l61.40686,35.51321a4.9903,4.9903,0,0,1,0,8.6406l-234.02333,135.068a9.98065,9.98065,0,0,1-9.99051,0l-61.40687-35.51322A4.9903,4.9903,0,0,1,172.52867,518.12492Z"/>
  </g>
  <path class="cls-5" d="M920.27489,698.447,842.24715,653.338a8.29355,8.29355,0,0,0-8.30178,0L755.91763,698.447a4.14678,4.14678,0,0,0,0,7.18l78.02774,45.10893a8.29355,8.29355,0,0,0,8.30178,0L920.27489,705.627A4.14677,4.14677,0,0,0,920.27489,698.447Z"/>
  <g>
    <path class="cls-71" d="M829.73077,728.73673l2.14711,15.97127c0,1.97146,2.78088,3.56962,6.21122,3.56962s6.21105-1.59816,6.21105-3.56962l2.1561-15.97127Z"/>
    <path class="cls-72" d="M899.20537,688.64165l2.1471,15.97127c0,1.97146,2.78088,3.56962,6.21122,3.56962s6.21106-1.59816,6.21106-3.56962l2.1561-15.97127Z"/>
    <path class="cls-73" d="M760.90733,688.64165l2.14711,15.97127c0,1.97146,2.78088,3.56962,6.21122,3.56962s6.21106-1.59816,6.21106-3.56962l2.15609-15.97127Z"/>
    <g>
      <path class="cls-74" d="M917.67442,609.12654v85.2422a3.90914,3.90914,0,0,1-1.952,3.39987l-73.70853,42.60482a7.81927,7.81927,0,0,1-3.92035,1.04115v-132.288Z"/>
      <path class="cls-75" d="M838.09351,609.12654v132.288a7.81958,7.81958,0,0,1-3.92074-1.04115l-73.69206-42.60482a3.89169,3.89169,0,0,1-1.96851-3.39987v-85.2422Z"/>
      <polygon class="cls-76" points="832.077 690.494 764.529 651.459 764.552 621.552 832.077 660.6 832.077 690.494"/>
      <polygon class="cls-77" points="807.674 651.809 788.932 640.978 788.938 647.232 807.674 658.067 807.674 651.809"/>
      <polygon class="cls-78" points="832.077 728.99 764.529 689.954 764.552 660.047 832.077 699.095 832.077 728.99"/>
      <polygon class="cls-79" points="807.674 690.304 788.932 679.473 788.938 685.728 807.674 696.562 807.674 690.304"/>
      <path class="cls-80" d="M753.84636,597.15054v9.05987a4.10814,4.10814,0,0,0,2.07133,3.59l78.02761,45.109a8.29391,8.29391,0,0,0,8.30187,0l78.02777-45.109a4.10814,4.10814,0,0,0,2.07133-3.59v-9.05987Z"/>
      <path class="cls-81" d="M920.27489,593.56052l-78.02774-45.10893a8.29355,8.29355,0,0,0-8.30178,0l-78.02774,45.10893a4.14678,4.14678,0,0,0,0,7.18005l78.02774,45.10893a8.29355,8.29355,0,0,0,8.30178,0l78.02774-45.10893A4.14677,4.14677,0,0,0,920.27489,593.56052Z"/>
    </g>
  </g>
  <g>
    <g>
      <g>
        <path class="cls-82" d="M245.35785,115.9317a191.74724,191.74724,0,1,1-74.88745,15.1128,191.18216,191.18216,0,0,1,74.88745-15.1128m0-17.54248c-115.95081,0-209.94739,93.99707-209.94739,209.94776S129.407,518.28424,245.35785,518.28424c115.95068,0,209.94739-93.99658,209.94739-209.94726S361.30853,98.38922,245.35785,98.38922Z"/>
        <circle class="cls-22" cx="245.35783" cy="308.33688" r="194.19259"/>
        <path class="cls-83" d="M138.46094,297.82889l-62.05811,106.291a195.1182,195.1182,0,0,0,73.33936,73.26562c26.82348,14.687,57.11133,23.7461,88.24634,24.99073.42968.01611.85839.03613,1.28881.04931q.96607.0315,1.93384.05127c1.3794.02881,2.76026.05274,4.14673.05274V297.82889Z"/>
        <path class="cls-84" d="M352.5528,297.8291l58.43071,112.40669a194.05962,194.05962,0,0,1-165.32772,92.29368V297.8291Z"/>
        <rect class="cls-85" x="236.18501" y="314.47182" width="18.34563" height="191.19094"/>
      </g>
      <g>
        <circle class="cls-82" cx="425.70747" cy="193.23687" r="62.02326"/>
        <g>
          <rect class="cls-47" x="404.65068" y="184.59464" width="13.46241" height="40.4658" transform="translate(-24.34397 350.88352) rotate(-45)"/>
          <rect class="cls-47" x="430.86151" y="167.41377" width="13.46241" height="60.59444" transform="translate(607.21471 646.93854) rotate(-135)"/>
        </g>
      </g>
    </g>
    <path class="cls-86" d="M335.97515,314.47182H154.74051a16.27413,16.27413,0,0,1-15.95646-19.47393l35.57443-177.39916a16.27412,16.27412,0,0,1,15.95646-13.07433H300.40072a16.27411,16.27411,0,0,1,15.95645,13.07433L351.9316,294.99789A16.27412,16.27412,0,0,1,335.97515,314.47182Z"/>
  </g>
  <g class="cls-87">
    <g>
      <g>
        <path class="cls-88" d="M1892.27909,648.89975l-.00922,192.65792c0,11.53111-4.79456,23.48475-16.37663,30.19718L674.85044,1566.76837a65.9177,65.9177,0,0,1-33.16671,8.8181V1090.13854Z"/>
        <path class="cls-89" d="M641.68373,1090.13854v485.44793a65.47278,65.47278,0,0,1-32.67309-8.8181l-697.8818-402.90261a32.97708,32.97708,0,0,1-12.20724-12.24018,33.03251,33.03251,0,0,1-4.21174-15.76068v-194.887Z"/>
        <g>
          <path class="cls-90" d="M1821.893,590.23477V714.11629l-.03294-.03294a32.56212,32.56212,0,0,1-16.35291,29.90912L674.84123,1397.58738a65.587,65.587,0,0,1-33.16672,8.8181l173.1759-730.65471Z"/>
          <path class="cls-91" d="M1821.893,639.29519V763.17671l-.03294-.03294a32.5621,32.5621,0,0,1-16.35291,29.90911L674.84123,1446.6478a65.58708,65.58708,0,0,1-33.16672,8.81809l173.1759-730.6547Z"/>
          <path class="cls-92" d="M814.85041,724.81119l-173.1759,730.6547a65.53409,65.53409,0,0,1-32.64015-8.81809l-697.882-402.90262a32.613,32.613,0,0,1-16.45171-28.52742V888.86869Z"/>
          <path class="cls-93" d="M1821.893,569.20888V693.0904l-.03294-.03294a32.56209,32.56209,0,0,1-16.35291,29.90911L674.84123,1376.56149a65.587,65.587,0,0,1-33.16672,8.8181l.31887-160.87026Z"/>
          <path class="cls-94" d="M647.93559,1176.02319l-6.26108,209.3564a65.5341,65.5341,0,0,1-32.64015-8.8181l-697.882-402.90261a32.613,32.613,0,0,1-16.45171-28.52743V818.78238Z"/>
          <path class="cls-95" d="M-88.85624,848.63864l697.88088,402.90318a65.80688,65.80688,0,0,0,65.81333-.005L1805.50189,597.941c21.9315-12.66606,21.93032-44.32286-.00214-56.98727L1107.83108,138.10031a65.80687,65.80687,0,0,0-65.81021-.0019L-88.85682,791.6479C-110.79268,804.31259-110.79236,835.9744-88.85624,848.63864Z"/>
        </g>
      </g>
      <path class="cls-96" d="M1279.9603,367.86655c-66.71208-46.82556-158.95454-103.64938-243.95257-20.31829L944.42258,445.927,744.28371,512.97414C627.416,585.051,851.88286,706.63358,956.0988,703.22636l138.26907-80.00619,256.6498-106.76065C1364.19774,479.83687,1319.77792,395.81476,1279.9603,367.86655Z"/>
      <path class="cls-97" d="M1252.60172,508.7276l-56.03309,40.3833c-63.73612-59.56748-127.779-103.60236-216.1292-141.60687l-31.19535,32.26933L755.3138,507.20907C627.41571,585.05158,851.8832,706.63293,956.099,703.22583l138.26881-80.00578,108.55339-32.46887,21.29115,9.06212Z"/>
      <path class="cls-98" d="M579.81962,390.245l15.6441-9.20509a166.74786,166.74786,0,0,1,118.83143-19.58385c216.70431,45.5304,489.9279,182.64653,563.28672,363.35514,53.67667,132.22454,59.48486,220.11456,57.27678,264.43a85.9465,85.9465,0,0,1-24.02862,55.24854c-160.01353,166.65044-470.15717,337.38945-643.0081,379.60857a83.94214,83.94214,0,0,1-43.30474-.85861c-295.70012-85.79132-611.86564-278.77112-740.71976-406.10632a85.49,85.49,0,0,1-23.56235-78.474c8.90461-42.27318,24.59344-104.89739,45.12679-139.41207C-61.70058,743.8823,579.81962,390.245,579.81962,390.245Z"/>
      <path class="cls-42" d="M937.98337,617.52476l37.82329,15.62032c7.20252,2.97421,17.47129,5.56153,25.32963,5.39758l37.39111-2.304c37.3753,35.63147,129.20958,119.94323,163.876,122.41981,23.84181,1.70284,50.77359-33.39794,70.44677-65.90995-13.53565-30.8437-33.26923-60.288-57.69854-88.06547a37.79771,37.79771,0,0,0-4.09959,8.63928l-15.56639,39.42258L1053.072,580.65212l-18.957-15.55129a48.19842,48.19842,0,0,0-20.90428-11.21654l-35.08639-10.066a9.45156,9.45156,0,0,0-11.28414,6.2907c-1.40009,4.3707,4.05717,10.63695,8.12081,12.77268l-38.22311,4.11613a11.64685,11.64685,0,0,0-12.25565,12.347l1.303,21.10851A19.78917,19.78917,0,0,0,937.98337,617.52476Z"/>
      <g>
        <path class="cls-99" d="M874.40657,511.9243,911.887,479.11491l28.56254,5.93985a47.93454,47.93454,0,0,1,29.26161,20.98174l21.26548,33.6416a21.56951,21.56951,0,0,1-3.8593,27.60788l-14.75577,13.187a18.35591,18.35591,0,0,1-20.18385,2.8572l-30.22354-14.52766a60.86737,60.86737,0,0,1-23.61126-20.12006Z"/>
        <path class="cls-42" d="M781.46273,430.66412c3.602,30.55749,55.37184,79.11912,72.8158,89.1434l22.88325,35.141a60.8655,60.8655,0,0,0,23.611,20.12046l30.22383,14.52728a18.35479,18.35479,0,0,0,20.18374-2.8577l14.756-13.18689a21.56989,21.56989,0,0,0,3.85941-27.60774l-21.266-33.641A47.9313,47.9313,0,0,0,919.268,491.321l-23.64478-4.91721-5.11815-45.5299,45.62323-12.793a14.74038,14.74038,0,0,0,8.1503-7.634c-34.35291-13.82257-57.99538-31.51944-92.0024-41.36681C815.63515,394.22581,779.45572,413.63867,781.46273,430.66412Z"/>
        <path class="cls-100" d="M1158.40013,307.50282c-23.24629-6.00784-34.71858-6.26689-71.44257-3.76013s-168.9171,33.365-198.48612,48.089C840.7838,375.57785,913.539,446.83776,913.539,446.83776l39.93379-6.30518C1034.40867,332.91234,1114.39236,306.2199,1158.40013,307.50282Z"/>
        <ellipse class="cls-40" cx="903.17602" cy="398.30049" rx="26.39068" ry="43.33556" transform="translate(-65.0056 205.96078) rotate(-12.56134)"/>
        <path class="cls-39" d="M990.97683,539.67773l-21.266-33.641a47.93124,47.93124,0,0,0-29.26167-20.98193l-23.64477-4.91722-5.11816-45.5299,3.55582-1.53832c23.50095-8.27254,8.0223-77.59966-21.29978-69.21206,0,0-95.30812,26.52564-91.29842,60.54058,3.602,30.55749,55.37184,79.11912,72.8158,89.1434l22.88325,35.141a60.8655,60.8655,0,0,0,23.611,20.12046l30.22383,14.52728a18.35479,18.35479,0,0,0,20.18374-2.8577l14.756-13.18689A21.56989,21.56989,0,0,0,990.97683,539.67773Z"/>
        <path class="cls-39" d="M947.17863,487.21683l37.82816,15.03933c10.88323,4.3816,3.72848,15.69814-4.39157,13.87609L970.36993,513.861Z"/>
      </g>
      <path class="cls-55" d="M990.97683,539.67773l-13.02149-20.59938-8.60477-2.468a9.45157,9.45157,0,0,0-11.28414,6.2907h0c-1.40009,4.3707,4.05717,10.637,8.12081,12.77268l-38.22311,4.11613a11.6459,11.6459,0,0,0-12.25493,12.347l.84423,13.68881a61.07153,61.07153,0,0,0,5.40045,2.97708l30.22383,14.52728a18.35479,18.35479,0,0,0,20.18374-2.8577l14.756-13.18689A21.56989,21.56989,0,0,0,990.97683,539.67773Z"/>
      <path class="cls-39" d="M1034.11493,541.5379a48.19884,48.19884,0,0,0-20.90435-11.21754l-35.08642-10.06545a9.45245,9.45245,0,0,0-11.28431,6.29v0c-1.39987,4.37144,4.05759,10.63831,8.12126,12.7727l10.0152-1.07862-48.23823,5.19518a11.64655,11.64655,0,0,0-12.25542,12.34683l1.3027,21.10855a19.78934,19.78934,0,0,0,12.19823,17.07208l37.82318,15.61958c7.20232,2.97429,17.47135,5.56189,25.32941,5.39773l45.97913-2.83268,17.28079-45.76838Z"/>
    </g>
  </g>
</svg>
