<svg id="Layer_1" data-name="Layer 1" xmlns="http://www.w3.org/2000/svg" xmlns:xlink="http://www.w3.org/1999/xlink" viewBox="0 0 1000 1000">
  <defs>
    <style>
      .cls-1 {
        fill: url(#linear-gradient);
      }

      .cls-2 {
        fill: #b8cbd8;
      }

      .cls-3 {
        fill: url(#linear-gradient-2);
      }

      .cls-4, .cls-55 {
        fill: #9bb0c4;
      }

      .cls-18, .cls-25, .cls-30, .cls-4 {
        opacity: 0.5;
      }

      .cls-5 {
        fill: #f0f9fc;
      }

      .cls-6 {
        fill: url(#linear-gradient-3);
      }

      .cls-26, .cls-30, .cls-7 {
        fill: #fff;
      }

      .cls-7 {
        opacity: 0.7;
      }

      .cls-8 {
        fill: url(#linear-gradient-4);
      }

      .cls-9 {
        fill: url(#linear-gradient-5);
      }

      .cls-10 {
        fill: url(#linear-gradient-6);
      }

      .cls-11 {
        fill: url(#linear-gradient-7);
      }

      .cls-12 {
        fill: url(#linear-gradient-8);
      }

      .cls-13 {
        fill: url(#linear-gradient-9);
      }

      .cls-14 {
        fill: url(#linear-gradient-10);
      }

      .cls-15 {
        fill: url(#linear-gradient-11);
      }

      .cls-16 {
        fill: url(#linear-gradient-12);
      }

      .cls-17 {
        fill: url(#linear-gradient-13);
      }

      .cls-18, .cls-77 {
        fill: #dd7b19;
      }

      .cls-19 {
        fill: url(#linear-gradient-14);
      }

      .cls-20 {
        fill: url(#linear-gradient-15);
      }

      .cls-21 {
        fill: url(#linear-gradient-16);
      }

      .cls-22 {
        fill: url(#linear-gradient-17);
      }

      .cls-23 {
        fill: #34a521;
      }

      .cls-24 {
        fill: #e4ecf2;
      }

      .cls-25 {
        fill: url(#linear-gradient-18);
      }

      .cls-27 {
        fill: url(#linear-gradient-19);
      }

      .cls-28 {
        fill: url(#linear-gradient-20);
      }

      .cls-29 {
        fill: url(#linear-gradient-21);
      }

      .cls-31 {
        fill: url(#linear-gradient-22);
      }

      .cls-32 {
        fill: url(#linear-gradient-23);
      }

      .cls-33 {
        fill: url(#linear-gradient-24);
      }

      .cls-34 {
        fill: url(#linear-gradient-25);
      }

      .cls-35 {
        fill: url(#linear-gradient-26);
      }

      .cls-36 {
        fill: url(#linear-gradient-27);
      }

      .cls-37 {
        fill: url(#linear-gradient-28);
      }

      .cls-38 {
        fill: url(#linear-gradient-29);
      }

      .cls-39 {
        fill: #2e3e59;
      }

      .cls-40 {
        fill: #4f4f4f;
      }

      .cls-41 {
        fill: url(#linear-gradient-30);
      }

      .cls-42 {
        fill: url(#linear-gradient-31);
      }

      .cls-43 {
        fill: url(#linear-gradient-32);
      }

      .cls-44 {
        fill: url(#linear-gradient-33);
      }

      .cls-45 {
        fill: url(#linear-gradient-34);
      }

      .cls-46 {
        fill: url(#linear-gradient-35);
      }

      .cls-47 {
        fill: #bcd0e2;
      }

      .cls-48 {
        fill: #d7ebf4;
      }

      .cls-49 {
        fill: #7995a8;
      }

      .cls-50 {
        fill: url(#linear-gradient-36);
      }

      .cls-51 {
        fill: #e58630;
      }

      .cls-52 {
        fill: url(#linear-gradient-37);
      }

      .cls-53 {
        fill: url(#linear-gradient-38);
      }

      .cls-54 {
        fill: #ffcb48;
      }

      .cls-56 {
        fill: url(#linear-gradient-39);
      }

      .cls-57 {
        fill: url(#linear-gradient-40);
      }

      .cls-58 {
        fill: url(#linear-gradient-41);
      }

      .cls-59 {
        fill: url(#linear-gradient-42);
      }

      .cls-60 {
        fill: url(#linear-gradient-43);
      }

      .cls-61 {
        fill: url(#linear-gradient-44);
      }

      .cls-62 {
        fill: url(#linear-gradient-45);
      }

      .cls-63 {
        fill: url(#linear-gradient-46);
      }

      .cls-64 {
        fill: #541510;
        opacity: 0.3;
      }

      .cls-65 {
        fill: url(#linear-gradient-47);
      }

      .cls-66 {
        fill: url(#linear-gradient-48);
      }

      .cls-67 {
        fill: url(#linear-gradient-49);
      }

      .cls-68 {
        fill: #e9f1f4;
      }

      .cls-69 {
        fill: url(#linear-gradient-50);
      }

      .cls-70 {
        fill: #606060;
      }

      .cls-71 {
        fill: url(#linear-gradient-51);
      }

      .cls-72 {
        fill: url(#linear-gradient-52);
      }

      .cls-73 {
        fill: #303d49;
      }

      .cls-74 {
        fill: #dd7a64;
      }

      .cls-75 {
        fill: #27343d;
      }

      .cls-76 {
        fill: url(#linear-gradient-53);
      }

      .cls-77 {
        opacity: 0.6;
      }

      .cls-78 {
        fill: url(#linear-gradient-54);
      }

      .cls-79 {
        fill: url(#linear-gradient-55);
      }

      .cls-80 {
        fill: #cc695c;
      }

      .cls-81 {
        fill: url(#linear-gradient-56);
      }

      .cls-82 {
        fill: url(#linear-gradient-57);
      }

      .cls-83 {
        fill: url(#linear-gradient-58);
      }

      .cls-84 {
        fill: url(#linear-gradient-59);
      }

      .cls-85 {
        fill: url(#linear-gradient-60);
      }

      .cls-86 {
        fill: url(#linear-gradient-61);
      }

      .cls-87 {
        fill: url(#linear-gradient-62);
      }

      .cls-88 {
        fill: url(#linear-gradient-63);
      }

      .cls-89 {
        fill: url(#linear-gradient-64);
      }

      .cls-90 {
        fill: url(#linear-gradient-65);
      }

      .cls-91 {
        fill: url(#linear-gradient-66);
      }

      .cls-92 {
        fill: url(#linear-gradient-67);
      }

      .cls-93 {
        fill: url(#linear-gradient-68);
      }

      .cls-94 {
        fill: url(#linear-gradient-69);
      }

      .cls-95 {
        fill: url(#linear-gradient-70);
      }

      .cls-96 {
        fill: url(#linear-gradient-71);
      }
    </style>
    <linearGradient id="linear-gradient" x1="524.52355" y1="396.22833" x2="931.16979" y2="396.22833" gradientUnits="userSpaceOnUse">
      <stop offset="0" stop-color="#e4edf2"/>
      <stop offset="1" stop-color="#c3d6e6"/>
    </linearGradient>
    <linearGradient id="linear-gradient-2" x1="117.89298" y1="711.22041" x2="931.16979" y2="711.22041" gradientUnits="userSpaceOnUse">
      <stop offset="0.00663" stop-color="#c4d5e6"/>
      <stop offset="1" stop-color="#dae9f2"/>
    </linearGradient>
    <linearGradient id="linear-gradient-3" x1="888.57995" y1="450.58926" x2="902.59319" y2="450.58926" gradientTransform="translate(345.28048 -387.42577) rotate(30)" gradientUnits="userSpaceOnUse">
      <stop offset="0" stop-color="#849bb2"/>
      <stop offset="1" stop-color="#5b6f82"/>
    </linearGradient>
    <linearGradient id="linear-gradient-4" x1="133.6675" y1="387.8383" x2="499.53781" y2="387.8383" gradientUnits="userSpaceOnUse">
      <stop offset="0" stop-color="#3e4c59"/>
      <stop offset="1" stop-color="#293440"/>
    </linearGradient>
    <linearGradient id="linear-gradient-5" x1="194.61237" y1="638.00467" x2="194.61237" y2="278.54045" gradientUnits="userSpaceOnUse">
      <stop offset="0" stop-color="#62778c"/>
      <stop offset="1" stop-color="#435466"/>
    </linearGradient>
    <linearGradient id="linear-gradient-6" x1="316.5673" y1="567.6027" x2="316.5673" y2="208.122" xlink:href="#linear-gradient-5"/>
    <linearGradient id="linear-gradient-7" x1="438.55759" y1="497.19232" x2="438.55759" y2="137.67116" xlink:href="#linear-gradient-5"/>
    <linearGradient id="linear-gradient-8" x1="145.48999" y1="391.24744" x2="499.53781" y2="391.24744" gradientUnits="userSpaceOnUse">
      <stop offset="0" stop-color="#435466"/>
      <stop offset="1" stop-color="#62778c"/>
    </linearGradient>
    <linearGradient id="linear-gradient-9" x1="133.64483" y1="391.24692" x2="511.37828" y2="391.24692" xlink:href="#linear-gradient-5"/>
    <linearGradient id="linear-gradient-10" x1="249.66309" y1="588.08302" x2="249.66309" y2="271.69466" xlink:href="#linear-gradient-5"/>
    <linearGradient id="linear-gradient-11" x1="371.62531" y1="517.67135" x2="371.62531" y2="201.2762" xlink:href="#linear-gradient-5"/>
    <linearGradient id="linear-gradient-12" x1="493.60372" y1="447.24703" x2="493.60372" y2="130.85187" xlink:href="#linear-gradient-5"/>
    <linearGradient id="linear-gradient-13" x1="434.65275" y1="144.31016" x2="144.6249" y2="617.18165" gradientUnits="userSpaceOnUse">
      <stop offset="0.00005" stop-color="#ffcb48"/>
      <stop offset="1" stop-color="#e68e2b"/>
    </linearGradient>
    <linearGradient id="linear-gradient-14" x1="520.13048" y1="196.7365" x2="230.10263" y2="669.60799" xlink:href="#linear-gradient-13"/>
    <linearGradient id="linear-gradient-15" x1="546.34147" y1="109.05409" x2="115.08267" y2="448.57582" gradientTransform="matrix(1, 0, 0, 1, 0, 0)" xlink:href="#linear-gradient-3"/>
    <linearGradient id="linear-gradient-16" x1="527.68306" y1="85.35427" x2="96.42426" y2="424.876" gradientTransform="matrix(1, 0, 0, 1, 0, 0)" xlink:href="#linear-gradient-3"/>
    <linearGradient id="linear-gradient-17" x1="508.22621" y1="60.64029" x2="76.96742" y2="400.16202" gradientTransform="matrix(1, 0, 0, 1, 0, 0)" xlink:href="#linear-gradient-3"/>
    <linearGradient id="linear-gradient-18" x1="106.62266" y1="296.0483" x2="421.71458" y2="296.0483" gradientUnits="userSpaceOnUse">
      <stop offset="0" stop-color="#748ea6"/>
      <stop offset="1" stop-color="#96b1cc"/>
    </linearGradient>
    <linearGradient id="linear-gradient-19" x1="142.31662" y1="262.3569" x2="321.24481" y2="262.3569" xlink:href="#linear-gradient-18"/>
    <linearGradient id="linear-gradient-20" x1="132.16158" y1="257.00218" x2="170.97009" y2="341.00218" xlink:href="#linear-gradient-13"/>
    <linearGradient id="linear-gradient-21" x1="5199.88525" y1="2373.80902" x2="5199.88525" y2="2460.9353" gradientTransform="matrix(0.0351, 0.99938, 0.99938, -0.0351, -2418.51512, -4848.48902)" xlink:href="#linear-gradient-5"/>
    <linearGradient id="linear-gradient-22" x1="213.95096" y1="225.45033" x2="241.86586" y2="301.36523" xlink:href="#linear-gradient-5"/>
    <linearGradient id="linear-gradient-23" x1="216.92843" y1="233.54759" x2="238.71883" y2="292.80686" gradientUnits="userSpaceOnUse">
      <stop offset="0" stop-color="#96b1cc"/>
      <stop offset="1" stop-color="#748ea6"/>
    </linearGradient>
    <linearGradient id="linear-gradient-24" x1="320.30187" y1="318.8215" x2="395.32838" y2="318.8215" xlink:href="#linear-gradient-5"/>
    <linearGradient id="linear-gradient-25" x1="59.71562" y1="318.8215" x2="134.74212" y2="318.8215" xlink:href="#linear-gradient-5"/>
    <linearGradient id="linear-gradient-26" x1="474.78913" y1="212.63531" x2="569.98477" y2="212.63531" xlink:href="#linear-gradient"/>
    <linearGradient id="linear-gradient-27" x1="561.76556" y1="222.07017" x2="561.76556" y2="554.12855" gradientUnits="userSpaceOnUse">
      <stop offset="0" stop-color="#fff"/>
      <stop offset="0.56988" stop-color="#fff" stop-opacity="0"/>
    </linearGradient>
    <linearGradient id="linear-gradient-28" x1="495.87155" y1="175.08368" x2="533.49411" y2="234.65274" xlink:href="#linear-gradient-5"/>
    <linearGradient id="linear-gradient-29" x1="511.38616" y1="165.28498" x2="549.00872" y2="224.85403" xlink:href="#linear-gradient-5"/>
    <linearGradient id="linear-gradient-30" x1="549.24712" y1="417.48309" x2="608.14435" y2="516.46626" xlink:href="#linear-gradient-4"/>
    <linearGradient id="linear-gradient-31" x1="427.5003" y1="290.3015" x2="551.11728" y2="513.34953" xlink:href="#linear-gradient-5"/>
    <linearGradient id="linear-gradient-32" x1="460.53994" y1="308.28107" x2="539.36816" y2="516.69811" gradientTransform="matrix(1, 0, 0, 1, 0, 0)" xlink:href="#linear-gradient-3"/>
    <linearGradient id="linear-gradient-33" x1="444.16522" y1="314.47438" x2="522.99344" y2="522.89142" gradientTransform="matrix(1, 0, 0, 1, 0, 0)" xlink:href="#linear-gradient-3"/>
    <linearGradient id="linear-gradient-34" x1="465.98932" y1="402.59578" x2="611.10721" y2="402.59578" gradientUnits="userSpaceOnUse">
      <stop offset="0" stop-color="#62788c"/>
      <stop offset="1" stop-color="#526575"/>
    </linearGradient>
    <linearGradient id="linear-gradient-35" x1="465.98926" y1="378.59652" x2="611.10716" y2="378.59652" gradientTransform="matrix(1, 0, 0, 1, 0, 0)" xlink:href="#linear-gradient-3"/>
    <linearGradient id="linear-gradient-36" x1="510.42775" y1="287.56149" x2="573.80385" y2="346.45871" xlink:href="#linear-gradient-13"/>
    <linearGradient id="linear-gradient-37" x1="533.48403" y1="302.40891" x2="552.96774" y2="302.40891" xlink:href="#linear-gradient-4"/>
    <linearGradient id="linear-gradient-38" x1="533.48404" y1="298.03114" x2="552.96785" y2="298.03114" xlink:href="#linear-gradient-5"/>
    <linearGradient id="linear-gradient-39" x1="811.67919" y1="649.79765" x2="834.12735" y2="649.79765" xlink:href="#linear-gradient-4"/>
    <linearGradient id="linear-gradient-40" x1="324.69438" y1="701.09523" x2="347.14255" y2="701.09523" xlink:href="#linear-gradient-4"/>
    <linearGradient id="linear-gradient-41" x1="522.69615" y1="817.21978" x2="545.14431" y2="817.21978" xlink:href="#linear-gradient-4"/>
    <linearGradient id="linear-gradient-42" x1="602.19622" y1="403.66217" x2="1051.2782" y2="628.80035" xlink:href="#linear-gradient-4"/>
    <linearGradient id="linear-gradient-43" x1="618.67532" y1="339.48626" x2="811.56559" y2="592.09488" xlink:href="#linear-gradient-34"/>
    <linearGradient id="linear-gradient-44" x1="611.92889" y1="353.36358" x2="809.59663" y2="610.74967" gradientTransform="matrix(1, 0, 0, 1, 0, 0)" xlink:href="#linear-gradient-3"/>
    <linearGradient id="linear-gradient-45" x1="437.48793" y1="632.86402" x2="861.18962" y2="746.62748" xlink:href="#linear-gradient-5"/>
    <linearGradient id="linear-gradient-46" x1="323.6452" y1="591.69833" x2="708.23137" y2="836.54356" xlink:href="#linear-gradient-34"/>
    <linearGradient id="linear-gradient-47" x1="336.73517" y1="663.0182" x2="883.15807" y2="692.57878" xlink:href="#linear-gradient-4"/>
    <linearGradient id="linear-gradient-48" x1="335.66165" y1="682.86215" x2="882.08455" y2="712.42273" xlink:href="#linear-gradient-4"/>
    <linearGradient id="linear-gradient-49" x1="358.82584" y1="540.06823" x2="530.81469" y2="721.9106" xlink:href="#linear-gradient-13"/>
    <linearGradient id="linear-gradient-50" x1="520.3241" y1="497.65849" x2="533.76073" y2="743.99668" xlink:href="#linear-gradient-13"/>
    <linearGradient id="linear-gradient-51" x1="599.59132" y1="392.11969" x2="846.6865" y2="392.11969" xlink:href="#linear-gradient-34"/>
    <linearGradient id="linear-gradient-52" x1="622.39787" y1="306.90105" x2="846.93887" y2="473.51525" gradientTransform="matrix(1, 0, 0, 1, 0, 0)" xlink:href="#linear-gradient-3"/>
    <linearGradient id="linear-gradient-53" x1="827.65967" y1="423.60274" x2="893.02138" y2="525.21976" xlink:href="#linear-gradient-13"/>
    <linearGradient id="linear-gradient-54" x1="793.63212" y1="445.48981" x2="858.99382" y2="547.10683" xlink:href="#linear-gradient-13"/>
    <linearGradient id="linear-gradient-55" x1="774.85788" y1="457.5657" x2="840.21958" y2="559.18272" xlink:href="#linear-gradient-13"/>
    <linearGradient id="linear-gradient-56" x1="814.63724" y1="402.36945" x2="835.95639" y2="435.43328" gradientUnits="userSpaceOnUse">
      <stop offset="0.00005" stop-color="#bca9a0"/>
      <stop offset="1" stop-color="#a68f85"/>
    </linearGradient>
    <linearGradient id="linear-gradient-57" x1="650.26365" y1="257.34278" x2="691.09243" y2="257.34278" xlink:href="#linear-gradient-8"/>
    <linearGradient id="linear-gradient-58" x1="663.03123" y1="223.50626" x2="687.61779" y2="290.59839" gradientUnits="userSpaceOnUse">
      <stop offset="0" stop-color="#fff"/>
      <stop offset="0.98888" stop-color="#e6edf2"/>
    </linearGradient>
    <linearGradient id="linear-gradient-59" x1="641.98779" y1="231.15984" x2="787.42353" y2="363.88558" gradientTransform="matrix(1, 0, 0, 1, 0, 0)" xlink:href="#linear-gradient-3"/>
    <linearGradient id="linear-gradient-60" x1="642.29564" y1="220.46558" x2="783.70307" y2="347.42667" xlink:href="#linear-gradient-5"/>
    <linearGradient id="linear-gradient-61" x1="654.44245" y1="206.93663" x2="795.84989" y2="333.89772" xlink:href="#linear-gradient-5"/>
    <linearGradient id="linear-gradient-62" x1="704.12666" y1="313.80684" x2="744.95544" y2="313.80684" xlink:href="#linear-gradient-8"/>
    <linearGradient id="linear-gradient-63" x1="713.8301" y1="278.99028" x2="744.08568" y2="346.78927" xlink:href="#linear-gradient-58"/>
    <linearGradient id="linear-gradient-64" x1="638.34888" y1="235.14721" x2="783.78462" y2="367.87296" gradientTransform="matrix(1, 0, 0, 1, 0, 0)" xlink:href="#linear-gradient-3"/>
    <linearGradient id="linear-gradient-65" x1="638.26717" y1="224.95242" x2="779.67461" y2="351.91351" xlink:href="#linear-gradient-5"/>
    <linearGradient id="linear-gradient-66" x1="650.41399" y1="211.42347" x2="791.82143" y2="338.38456" xlink:href="#linear-gradient-5"/>
    <linearGradient id="linear-gradient-67" x1="757.98967" y1="304.46049" x2="798.81846" y2="304.46049" xlink:href="#linear-gradient-8"/>
    <linearGradient id="linear-gradient-68" x1="767.69312" y1="269.64393" x2="797.94869" y2="337.44293" xlink:href="#linear-gradient-58"/>
    <linearGradient id="linear-gradient-69" x1="667.47805" y1="203.22859" x2="812.91379" y2="335.95433" gradientTransform="matrix(1, 0, 0, 1, 0, 0)" xlink:href="#linear-gradient-3"/>
    <linearGradient id="linear-gradient-70" x1="666.95377" y1="193.00171" x2="808.3612" y2="319.9628" xlink:href="#linear-gradient-5"/>
    <linearGradient id="linear-gradient-71" x1="679.10059" y1="179.47276" x2="820.50802" y2="306.43385" xlink:href="#linear-gradient-5"/>
  </defs>
  <g>
    <g>
      <polygon class="cls-1" points="524.524 81.236 931.17 316.004 931.17 711.22 524.524 476.43 524.524 81.236"/>
      <polygon class="cls-2" points="524.539 81.236 117.893 316.004 117.893 711.22 524.539 476.43 524.539 81.236"/>
    </g>
    <path class="cls-3" d="M124.91012,723.3864l378.58059,218.564a42.10143,42.10143,0,0,0,42.1011-.00062L924.153,723.38232a14.03381,14.03381,0,0,0,.00017-24.307L545.57541,480.49136a42.10142,42.10142,0,0,0-42.10407.00053l-378.562,218.58744A14.03381,14.03381,0,0,0,124.91012,723.3864Z"/>
    <path class="cls-4" d="M828.59749,714.98587c-36.18863,0-65.52567,16.86023-65.52567,37.65837,0,17.2353,20.15433,31.75553,47.65149,36.22825l80.8289-46.66763C883.67446,726.48727,858.48144,714.98587,828.59749,714.98587Z"/>
  </g>
  <g>
    <path class="cls-5" d="M911.94193,441.46169l-.001,33.20418a2.93956,2.93956,0,0,1-4.40935,2.54567l-21.20631-12.24347a8.81868,8.81868,0,0,1-4.40935-7.63741l.001-33.20418a2.93956,2.93956,0,0,1,4.40935-2.54567l21.20631,12.24347A8.81868,8.81868,0,0,1,911.94193,441.46169Z"/>
    <ellipse class="cls-6" cx="895.58657" cy="450.58926" rx="5.7164" ry="9.91662" transform="translate(-105.30878 508.1608) rotate(-30)"/>
  </g>
  <g>
    <g>
      <g>
        <g>
          <path class="cls-7" d="M133.64493,672.16427,507.82436,456.14181a7.10771,7.10771,0,0,0,3.554-6.15554V110.3297L133.64493,328.425Z"/>
          <path class="cls-8" d="M499.53781,447.24511,145.49,651.65153,133.6675,644.8281V328.44336L487.71531,124.02508l11.8225,6.82343Z"/>
          <polygon class="cls-9" points="243.735 278.54 243.735 581.287 145.49 638.005 145.491 631.156 237.811 577.871 237.811 281.961 243.735 278.54"/>
          <polygon class="cls-10" points="365.697 208.122 365.678 510.882 267.438 567.603 267.438 560.755 359.755 507.471 359.755 211.532 365.697 208.122"/>
          <polygon class="cls-11" points="487.715 137.671 487.675 440.457 389.4 497.192 389.4 490.345 481.717 437.061 481.717 141.134 487.715 137.671"/>
          <polygon class="cls-12" points="499.538 130.849 499.532 447.25 145.491 651.646 145.49 638.005 487.715 440.434 487.715 137.671 499.538 130.849"/>
          <path class="cls-13" d="M133.64483,328.425v343.7392L507.82429,456.14186a7.10771,7.10771,0,0,0,3.554-6.15554V110.32968ZM377.55365,201.2762V517.67135l-110.116,63.57254v-316.389Zm-232.0626,133.988,110.10038-63.56958V588.083L145.49105,651.64637Zm354.041,111.9862-110.1322,63.58179V194.43643l110.1322-63.588Z"/>
        </g>
        <polygon class="cls-14" points="255.591 588.083 243.735 581.287 243.735 278.54 255.591 271.695 255.591 588.083"/>
        <polygon class="cls-15" points="377.554 517.671 365.697 510.876 365.697 208.122 377.554 201.276 377.554 517.671"/>
      </g>
      <polygon class="cls-16" points="499.532 447.247 487.675 440.457 487.715 137.671 499.532 130.852 499.532 447.247"/>
    </g>
    <g>
      <path class="cls-17" d="M337.00121,247.2722l2.94017,305.79229s-13.49649,16.33354-31.56129,26.14974-49.34228,17.19371-49.34228,17.19371-4.55352,14.569-27.2465,26.13942a136.77527,136.77527,0,0,1-44.43863,13.57335s-1.85131,8.73554-11.92056,14.121c-8.35013,4.43814-20.10035,5.0898-25.67889,5.84421V354.48663s10.75684,2.01157,25.26833-5.598,12.33112-14.109,12.33112-14.109,27.14545-3.18715,43.43089-12.76486,27.713-28.49684,27.713-28.49684a158.18792,158.18792,0,0,0,43.61312-12.82079C323.72076,270.47148,331.79121,252.16656,337.00121,247.2722Z"/>
      <path class="cls-18" d="M201.50119,332.31141c-8.09863,1.75679-14.14848,2.46816-14.14848,2.46816a4.66612,4.66612,0,0,1,0,2.06623V636.12064a122.98822,122.98822,0,0,0,20.09544-4.10718Z"/>
      <path class="cls-18" d="M259.15222,596.38073c.068-.01627.164-.03929.292-.07034l.00953-.00236c.12431-.03009.27956-.068.45654-.11135l.10986-.02709c.1666-.041.34926-.08619.55537-.13748l.11884-.02966c.2241-.05589.46565-.11649.73086-.18351l.08844-.02238q.42512-.10761.91427-.233l.09218-.02367c.31671-.08137.65505-.16895,1.0087-.26114l.18459-.04818q.53948-.14085,1.13055-.29755l.1303-.03447q.65013-.17265,1.356-.36307l.03126-.00846c3.47408-.93825,7.92764-2.19942,12.78892-3.72l-5.99408-300.09468a139.2734,139.2734,0,0,1-14.65963,2.80554h-.00011l.54124,302.89.10161-.0242Z"/>
      <path class="cls-19" d="M514.664,145.743l2.95421,301.504c0,3.75938-5.00141,9.46994-15.52677,14.84459a84.11968,84.11968,0,0,1-23.69013,7.79631s-10.57327,12.80652-25.46553,21.20442c-13.399,7.55583-37.46072,12.73616-37.46072,12.73616s-15.48321,23.52668-30.60881,32.60443-39.34638,15.87713-44.92491,16.63155L337.00121,247.2722s27.73588-3.78745,42.96625-12.67015c15.35906-8.95776,31.02876-27.835,31.02876-27.835s21.916-1.50165,41.26777-13.63194,21.94642-24.66174,21.94642-24.66174a34.03112,34.03112,0,0,0,22.69788-4.18975C508.66168,157.565,512.44888,151.14566,514.664,145.743Z"/>
      <path class="cls-18" d="M353.94094,243.99064c-9.38507,2.24782-16.93967,3.28158-16.93967,3.28158l2.94012,305.79227c2.92054-.395,10.95289-2.449,20.11236-5.61708Z"/>
      <path class="cls-18" d="M427.9508,203.57545a95.39537,95.39537,0,0,1-16.95456,3.19163l4.47893,297.0614s9.62137-2.07287,20.08334-5.50627Z"/>
      <path class="cls-18" d="M492.495,166.49632a36.12336,36.12336,0,0,1-18.28448,1.977l4.19092,301.41457a84.269,84.269,0,0,0,20.1023-6.0944Z"/>
    </g>
    <g>
      <g>
        <circle class="cls-20" cx="517.35613" cy="131.87369" r="8.30855"/>
        <path class="cls-21" d="M516.32076,137.74529,150.6861,348.88862l-4.0482-7.01168L512.28616,130.72576l.00185.0032a2.03893,2.03893,0,0,1,2.01152.2143,6.32878,6.32878,0,0,1,2.872,4.9538A1.98627,1.98627,0,0,1,516.32076,137.74529Z"/>
        <path class="cls-2" d="M517.71651,136.94259a9.87748,9.87748,0,0,0-1.29811-3.85921,9.53707,9.53707,0,0,0-2.80651-3.12258,6.33621,6.33621,0,0,0-3.57869-1.19275,5.13949,5.13949,0,0,0-2.50885.64884,5.67405,5.67405,0,0,0-2.59622,5.56119l4.35045-2.50864a1.38539,1.38539,0,0,1,.75462-.19294c1.0874,0,2.43819.98226,3.35042,2.5611.96491,1.66643,1.10539,3.43822.43856,4.35045a1.3844,1.3844,0,0,1-.43856.40344,1.21375,1.21375,0,0,1-.54391.158l-3.87677,2.24547a6.19277,6.19277,0,0,0,3.66648,1.29811,4.92167,4.92167,0,0,0,2.50843-.66683,5.46392,5.46392,0,0,0,2.61378-4.92927C517.75163,137.45138,517.73407,137.18842,517.71651,136.94259Z"/>
        <path class="cls-2" d="M476.95088,160.49083a9.87748,9.87748,0,0,0-1.29811-3.85921,9.537,9.537,0,0,0-2.80651-3.12258,6.33621,6.33621,0,0,0-3.57869-1.19275,5.13949,5.13949,0,0,0-2.50885.64884,5.67405,5.67405,0,0,0-2.59622,5.56119l4.35045-2.50864a1.38539,1.38539,0,0,1,.75462-.19294c1.0874,0,2.43819.98226,3.35042,2.5611.96491,1.66643,1.10539,3.43822.43856,4.35045a1.3844,1.3844,0,0,1-.43856.40344,1.21375,1.21375,0,0,1-.54391.158l-3.87677,2.24546a6.19272,6.19272,0,0,0,3.66648,1.29812,4.92167,4.92167,0,0,0,2.50843-.66683,5.46392,5.46392,0,0,0,2.61378-4.92927C476.986,160.99962,476.96844,160.73666,476.95088,160.49083Z"/>
      </g>
      <circle class="cls-2" cx="513.08618" cy="144.93101" r="2.7993"/>
      <circle class="cls-2" cx="473.93918" cy="167.40891" r="2.7993"/>
      <path class="cls-2" d="M414.786,196.37332a9.87732,9.87732,0,0,0-1.29811-3.85921,9.53691,9.53691,0,0,0-2.8065-3.12257,6.33617,6.33617,0,0,0-3.57869-1.19276,5.13961,5.13961,0,0,0-2.50886.64884,5.67408,5.67408,0,0,0-2.59622,5.56119l4.35045-2.50864a1.38542,1.38542,0,0,1,.75463-.19293c1.08739,0,2.43818.98225,3.35041,2.5611.96492,1.66643,1.10539,3.43821.43856,4.35044a1.38419,1.38419,0,0,1-.43856.40344,1.21369,1.21369,0,0,1-.54391.158l-3.87677,2.24546a6.1928,6.1928,0,0,0,3.66649,1.29811,4.92156,4.92156,0,0,0,2.50842-.66683,5.46392,5.46392,0,0,0,2.61378-4.92927C414.82112,196.88212,414.80356,196.61915,414.786,196.37332Z"/>
      <circle class="cls-2" cx="411.19789" cy="204.43266" r="2.7993"/>
      <path class="cls-2" d="M343.75747,237.3939a9.87732,9.87732,0,0,0-1.29811-3.85921,9.53705,9.53705,0,0,0-2.8065-3.12258,6.33623,6.33623,0,0,0-3.57869-1.19275,5.1395,5.1395,0,0,0-2.50886.64884,5.67407,5.67407,0,0,0-2.59622,5.56119l4.35045-2.50864a1.3854,1.3854,0,0,1,.75463-.19294c1.08739,0,2.43818.98226,3.35041,2.5611.96491,1.66643,1.10539,3.43822.43856,4.35045a1.38429,1.38429,0,0,1-.43856.40344,1.21371,1.21371,0,0,1-.54391.158l-3.87677,2.24546a6.19272,6.19272,0,0,0,3.66649,1.29812,4.92166,4.92166,0,0,0,2.50842-.66683,5.46392,5.46392,0,0,0,2.61378-4.92927C343.79259,237.90269,343.775,237.63973,343.75747,237.3939Z"/>
      <circle class="cls-2" cx="339.16161" cy="245.61993" r="2.7993"/>
      <path class="cls-2" d="M337.80588,240.81631a9.87732,9.87732,0,0,0-1.29811-3.85921,9.53683,9.53683,0,0,0-2.8065-3.12258,6.33623,6.33623,0,0,0-3.57869-1.19275,5.13944,5.13944,0,0,0-2.50885.64884,5.67406,5.67406,0,0,0-2.59623,5.56119l4.35045-2.50864a1.38542,1.38542,0,0,1,.75463-.19294c1.0874,0,2.43818.98226,3.35042,2.5611.96491,1.66643,1.10538,3.43822.43855,4.35045a1.38426,1.38426,0,0,1-.43855.40344,1.21375,1.21375,0,0,1-.54392.158l-3.87677,2.24547a6.19282,6.19282,0,0,0,3.66649,1.29811,4.92166,4.92166,0,0,0,2.50842-.66683,5.46392,5.46392,0,0,0,2.61378-4.92927C337.841,241.3251,337.82344,241.06214,337.80588,240.81631Z"/>
      <circle class="cls-2" cx="335.67621" cy="247.69994" r="2.7993"/>
      <path class="cls-2" d="M262.62957,284.24366a9.87764,9.87764,0,0,0-1.29811-3.85921,9.53707,9.53707,0,0,0-2.80651-3.12258,6.33621,6.33621,0,0,0-3.57869-1.19275,5.13947,5.13947,0,0,0-2.50885.64884,5.674,5.674,0,0,0-2.59622,5.56119l4.35044-2.50864a1.38545,1.38545,0,0,1,.75463-.19294c1.0874,0,2.43819.98226,3.35042,2.56111.96491,1.66643,1.10538,3.43821.43855,4.35044a1.38426,1.38426,0,0,1-.43855.40344,1.21376,1.21376,0,0,1-.54391.158l-3.87678,2.24546a6.19282,6.19282,0,0,0,3.66649,1.29811,4.92163,4.92163,0,0,0,2.50842-.66683,5.46392,5.46392,0,0,0,2.61378-4.92927C262.66468,284.75246,262.64713,284.48949,262.62957,284.24366Z"/>
      <circle class="cls-2" cx="259.04145" cy="292.303" r="2.7993"/>
      <path class="cls-2" d="M191.03992,325.63434a9.87742,9.87742,0,0,0-1.29811-3.85922,9.5368,9.5368,0,0,0-2.8065-3.12257,6.33616,6.33616,0,0,0-3.57869-1.19275,5.13944,5.13944,0,0,0-2.50885.64884,5.674,5.674,0,0,0-2.59623,5.56119l4.35045-2.50864a1.38542,1.38542,0,0,1,.75463-.19294c1.0874,0,2.43818.98225,3.35042,2.5611.96491,1.66643,1.10538,3.43822.43855,4.35045a1.38448,1.38448,0,0,1-.43855.40344,1.21388,1.21388,0,0,1-.54392.158l-3.87677,2.24546a6.19273,6.19273,0,0,0,3.66649,1.29811,4.92156,4.92156,0,0,0,2.50842-.66683,5.46391,5.46391,0,0,0,2.61378-4.92926C191.075,326.14313,191.05748,325.88017,191.03992,325.63434Z"/>
      <circle class="cls-2" cx="187.45181" cy="333.69367" r="2.7993"/>
      <path class="cls-2" d="M155.14578,346.28994a9.87732,9.87732,0,0,0-1.29811-3.85921,9.537,9.537,0,0,0-2.8065-3.12257,6.33617,6.33617,0,0,0-3.57869-1.19276,5.13961,5.13961,0,0,0-2.50886.64884,5.67408,5.67408,0,0,0-2.59622,5.56119l4.35045-2.50863a1.38534,1.38534,0,0,1,.75463-.19294c1.08739,0,2.43818.98225,3.35041,2.5611.96491,1.66643,1.10539,3.43821.43856,4.35045a1.38438,1.38438,0,0,1-.43856.40343,1.21372,1.21372,0,0,1-.54391.158l-3.87677,2.24546a6.1928,6.1928,0,0,0,3.66649,1.29811,4.92156,4.92156,0,0,0,2.50842-.66683,5.46391,5.46391,0,0,0,2.61378-4.92926C155.1809,346.79874,155.16334,346.53578,155.14578,346.28994Z"/>
      <circle class="cls-2" cx="151.55767" cy="354.34928" r="2.7993"/>
    </g>
    <circle class="cls-22" cx="143.68375" cy="347.63753" r="8.30855"/>
  </g>
  <g>
    <g>
      <g>
        <path class="cls-23" d="M227.52191,69.95221A191.74713,191.74713,0,1,1,152.6347,85.065a191.1823,191.1823,0,0,1,74.88721-15.11279m0-17.54248c-115.95068,0-209.94727,93.99658-209.94727,209.94727s93.99659,209.94726,209.94727,209.94726c115.95093,0,209.94751-93.99658,209.94751-209.94726S343.47284,52.40973,227.52191,52.40973Z"/>
        <circle class="cls-24" cx="227.522" cy="262.35693" r="194.19259"/>
        <path class="cls-25" d="M106.62266,388.71927l59.994,58.07422a193.9851,193.9851,0,0,0,60.90544,9.75594c107.2495,0,194.19253-86.94291,194.19253-194.19253a193.96865,193.96865,0,0,0-10.0168-61.70881l-63.90546-65.10092Z"/>
      </g>
      <rect class="cls-26" x="96.23889" y="131.07382" width="262.56622" height="262.56622" rx="25.40683"/>
      <g>
        <circle class="cls-23" cx="407.87164" cy="147.25692" r="62.02326"/>
        <g>
          <rect class="cls-26" x="386.81485" y="138.61469" width="13.46241" height="40.4658" transform="translate(2.94477 324.80447) rotate(-45)"/>
          <rect class="cls-26" x="413.02568" y="121.43382" width="13.46241" height="60.59444" transform="translate(609.27978 555.83402) rotate(-135)"/>
        </g>
      </g>
    </g>
    <path class="cls-27" d="M227.522,163.62741a98.72949,98.72949,0,1,0,98.72974,98.72949A98.72942,98.72942,0,0,0,227.522,163.62741Zm0,177.82861A79.09912,79.09912,0,1,1,306.6211,262.3569,79.099,79.099,0,0,1,227.522,341.456Z"/>
    <path class="cls-28" d="M148.42237,262.36081a78.96129,78.96129,0,0,0,31.18994,62.93994l-10.16992,16.88989a98.55032,98.55032,0,0,1-40.65015-79.82983Z"/>
    <path class="cls-29" d="M138.5374,261.88044l68.559-16.36191,20.96572,16.1226-19.78282,17.55414-69.53808-11.51141A2.96205,2.96205,0,0,1,138.5374,261.88044Z"/>
    <path class="cls-30" d="M286.68433,341.4028l-10.38867-16.79858a79.02874,79.02874,0,0,1-96.67627.68457L169.44,342.19406a98.74115,98.74115,0,0,0,117.24438-.79126Z"/>
    <circle class="cls-31" cx="227.522" cy="262.35693" r="42.56481"/>
    <circle class="cls-32" cx="227.522" cy="262.35693" r="33.22615"/>
    <g>
      <circle class="cls-33" cx="357.81513" cy="318.8215" r="37.51325"/>
      <polygon class="cls-26" points="376.828 312.674 363.963 312.674 363.963 299.808 351.667 299.808 351.667 312.674 338.802 312.674 338.802 324.97 351.667 324.97 351.667 337.835 363.963 337.835 363.963 324.97 376.828 324.97 376.828 312.674"/>
    </g>
    <g>
      <circle class="cls-34" cx="97.22887" cy="318.8215" r="37.51325"/>
      <rect class="cls-26" x="78.21553" y="312.67362" width="38.02667" height="12.29612"/>
    </g>
  </g>
  <g>
    <circle class="cls-35" cx="522.38695" cy="212.63531" r="47.59782"/>
    <polygon class="cls-36" points="826.426 640.154 297.105 640.154 297.105 521.393 490.702 216.245 554.082 216.245 680.702 413.333 684.509 419.244 826.426 640.154"/>
    <g>
      <circle class="cls-26" cx="522.38695" cy="228.29656" r="14.18311"/>
      <path class="cls-37" d="M554.08061,216.24665c0,10.05973-14.18974,18.21475-31.69366,18.21475s-31.69365-8.155-31.69365-18.21475,31.69365-18.929,31.69365-18.929S554.08061,206.18693,554.08061,216.24665Z"/>
    </g>
    <rect class="cls-38" x="520.37146" y="165.03748" width="4.03099" height="35.33083"/>
  </g>
  <g>
    <path class="cls-39" d="M544.22733,529.41688l2.27865,16.9498c0,2.09225,2.95127,3.78833,6.59178,3.78833s6.5916-1.69608,6.5916-3.78833l2.2882-16.9498Z"/>
    <path class="cls-40" d="M590.60286,502.66894l2.27866,16.94981c0,2.09225,2.95126,3.78832,6.59177,3.78832s6.5916-1.69607,6.5916-3.78832l2.2882-16.94981Z"/>
    <path class="cls-39" d="M469.42854,485.922l2.27866,16.9498c0,2.09226,2.95126,3.78833,6.59177,3.78833s6.5916-1.69607,6.5916-3.78833l2.2882-16.9498Z"/>
    <path class="cls-41" d="M610.20349,401.01778V508.74692a4.14865,4.14865,0,0,1-2.07163,3.60818L557.263,541.76653a8.29818,8.29818,0,0,1-4.16054,1.10494V385.21406Z"/>
    <path class="cls-42" d="M553.10244,385.21406V542.87147a8.29858,8.29858,0,0,1-4.161-1.10494l-79.9657-46.15839A4.13014,4.13014,0,0,1,466.88666,492V384.27082Z"/>
    <polygon class="cls-43" points="476.214 399.36 476.214 439.712 543.775 478.712 543.775 438.36 476.214 399.36"/>
    <polygon class="cls-44" points="476.214 448.84 476.214 489.207 543.775 528.207 543.775 487.839 476.214 448.84"/>
    <path class="cls-45" d="M465.98932,370.223v13.335a4.16214,4.16214,0,0,0,2.09855,3.63723l80.812,46.64521a8.40292,8.40292,0,0,0,8.411,0l51.69781-29.89826a4.16212,4.16212,0,0,0,2.09856-3.63723v-13.335Z"/>
    <path class="cls-46" d="M609.0086,383.33278l-80.81209-46.64514a8.40255,8.40255,0,0,0-8.41091,0l-51.69778,29.89819a4.20129,4.20129,0,0,0,0,7.27444l80.81209,46.64514a8.40255,8.40255,0,0,0,8.41091,0l51.69778-29.89819A4.20129,4.20129,0,0,0,609.0086,383.33278Z"/>
  </g>
  <g>
    <g>
      <g>
        <path class="cls-47" d="M564.09357,372.685c-2.2363-5.45639-10.71893-9.52157-20.86772-9.52157s-18.63143,4.06518-20.86765,9.52157h-.59545v2.85074c0,6.83305,9.60932,12.37231,21.4631,12.37231s21.46317-5.53926,21.46317-12.37231V372.685Z"/>
        <ellipse class="cls-48" cx="543.22589" cy="372.26512" rx="21.46315" ry="12.37235"/>
        <path class="cls-47" d="M559.47272,369.08885h.012l-.02527-.1499-.00386-.024L557.638,358.04655H528.814l-1.80562,10.82216c-.00771.0424-.01413.085-.021.12763l-.01541.09251h.00728a5.51241,5.51241,0,0,0-.07024.79873c0,5.19459,7.30557,9.40542,16.317,9.40542s16.31654-4.21083,16.31654-9.40542A5.5135,5.5135,0,0,0,559.47272,369.08885Z"/>
        <ellipse class="cls-48" cx="543.22589" cy="358.25742" rx="14.41205" ry="8.30777"/>
      </g>
      <path class="cls-49" d="M539.91887,334.962v21.76252c0,1.05283,1.4806,1.90631,3.307,1.90631s3.307-.85348,3.307-1.90631V334.962Z"/>
    </g>
    <g>
      <path class="cls-50" d="M576.245,332.22093h.00173l-.00535-.02705a11.40288,11.40288,0,0,0-.30642-1.56129L569.26946,290.478H517.17751l-6.66734,40.17674a11.39856,11.39856,0,0,0-.29447,1.501l-.01289.0652h.00409a11.14021,11.14021,0,0,0-.09816,1.39612c0,10.51161,14.82714,19.03289,33.1171,19.03289,18.29028,0,33.11742-8.52128,33.11742-19.03289A11.112,11.112,0,0,0,576.245,332.22093Z"/>
      <ellipse class="cls-51" cx="543.22595" cy="291.76167" rx="26.14368" ry="15.0251"/>
      <path class="cls-52" d="M533.484,305.69736a44.10329,44.10329,0,0,0,19.48371,0v-7.66628H533.484Z"/>
      <ellipse class="cls-53" cx="543.22595" cy="298.03114" rx="9.7419" ry="5.61568"/>
      <path class="cls-54" d="M543.22594,278.02515c13.70514,0,24.855,6.16215,24.855,13.73648s-11.14982,13.7366-24.855,13.7366-24.855-6.16226-24.855-13.7366,11.14982-13.73648,24.855-13.73648m0-1.2886c-14.43869,0-26.14367,6.727-26.14367,15.02508,0,8.29821,11.705,15.02519,26.14367,15.02519s26.14367-6.727,26.14367-15.02519c0-8.2981-11.705-15.02508-26.14367-15.02508Z"/>
    </g>
  </g>
  <path class="cls-55" d="M326.33731,717.78451,524.64015,832.26944A18.699,18.699,0,0,0,543.341,832.268l272.0702-157.12819a9.34951,9.34951,0,0,0-.0006-16.19293L617.16807,544.47611a18.699,18.699,0,0,0-18.7-.00054l-272.13095,157.115A9.34951,9.34951,0,0,0,326.33731,717.78451Z"/>
  <g>
    <path class="cls-56" d="M811.67919,637.07483l3.09252,20.68807c0,2.62762,3.65374,4.75758,8.16083,4.75758s8.16084-2.13,8.16084-4.75758l3.034-20.68807Z"/>
    <path class="cls-57" d="M324.69438,688.37241l3.09252,20.68807c0,2.62762,3.65374,4.75757,8.16083,4.75757s8.16084-2.13,8.16084-4.75757l3.034-20.68807Z"/>
    <path class="cls-58" d="M522.69615,804.497l3.09251,20.68806c0,2.62763,3.65374,4.75758,8.16084,4.75758s8.16083-2.13,8.16083-4.75758l3.034-20.68806Z"/>
    <polygon class="cls-59" points="840.069 582.493 840.069 444.596 820.069 456.181 820.069 591.207 840.069 582.493"/>
    <g>
      <polygon class="cls-60" points="606.251 329.789 606.251 470.265 820.069 581.245 820.069 456.181 606.251 329.789"/>
      <polygon class="cls-61" points="619.682 337.768 619.682 519.898 803.576 582.684 803.576 446.471 619.682 337.768"/>
      <path class="cls-62" d="M840.069,582.49281l-.00261,54.74375a9.616,9.616,0,0,1-4.65342,8.58053l-292.06837,168.897a18.73049,18.73049,0,0,1-9.42432,2.50566V618.739Z"/>
      <path class="cls-63" d="M533.92023,618.739V817.21978a18.60414,18.60414,0,0,1-9.28406-2.50566L326.33307,700.22935a9.23427,9.23427,0,0,1-4.66546-7.95645V636.89577Z"/>
      <g>
        <path class="cls-64" d="M820.06874,565.82316v35.20093l-.00936-.00936a9.25254,9.25254,0,0,1-4.64668,8.49868L543.34193,766.64134a18.63654,18.63654,0,0,1-9.42432,2.50566V590.12253Z"/>
        <path class="cls-65" d="M820.06874,579.76368v35.20093l-.00936-.00936a9.25253,9.25253,0,0,1-4.64668,8.49867L543.34193,780.58186a18.63654,18.63654,0,0,1-9.42432,2.50566V604.06305Z"/>
        <path class="cls-66" d="M533.91761,604.06305V783.08752a18.62156,18.62156,0,0,1-9.2747-2.50566L326.33975,666.09709A9.267,9.267,0,0,1,321.665,657.991V622.08893Z"/>
        <path class="cls-51" d="M731.20408,567.3834v84.7818L543.34381,760.66407a18.63086,18.63086,0,0,1-9.42,2.50853V584.1538Z"/>
        <path class="cls-47" d="M820.073,559.84025v35.20734h-.01756a9.24738,9.24738,0,0,1-4.64853,8.4904L731.20408,652.1652V567.3834Z"/>
        <path class="cls-67" d="M533.91761,584.148V763.1725a18.62156,18.62156,0,0,1-9.2747-2.50566L326.33975,646.18206A9.267,9.267,0,0,1,321.665,638.076V602.17391Z"/>
        <path class="cls-68" d="M326.33731,610.65757,524.64015,725.1425a18.699,18.699,0,0,0,18.70086-.00144l272.0702-157.12818a9.34951,9.34951,0,0,0-.0006-16.19293L617.16807,437.34916a18.699,18.699,0,0,0-18.7-.00054l-272.13095,157.115A9.34951,9.34951,0,0,0,326.33731,610.65757Z"/>
        <path class="cls-69" d="M728.36546,614.18152,515.17982,491.08245a20.02162,20.02162,0,0,0-5.92779-2.22491L326.33708,594.46361a9.34949,9.34949,0,0,0,.00043,16.19394l198.30255,114.4849a18.69865,18.69865,0,0,0,18.70075-.00139l187.871-108.50068A10.04944,10.04944,0,0,0,728.36546,614.18152Z"/>
      </g>
      <polygon class="cls-70" points="623.815 319.635 840.069 444.596 820.069 456.181 606.251 329.789 623.815 319.635"/>
      <path class="cls-71" d="M846.6865,443.66581,599.59132,319.5987v9.34774l.0024-.00085a2.776,2.776,0,0,0,1.37372,2.45715L825.0463,463.8601a5.60985,5.60985,0,0,0,5.66625.02511l14.575-8.44212a2.76728,2.76728,0,0,0,1.379-2.58807l.02.01067Z"/>
      <path class="cls-72" d="M619.09047,310.53273,845.285,441.23793a2.80486,2.80486,0,0,1,.0025,4.85567l-14.57494,8.4421a5.60971,5.60971,0,0,1-5.66624-.02511L600.96745,322.05327a2.80485,2.80485,0,0,1,.02346-4.84281l11.54952-6.677A6.54465,6.54465,0,0,1,619.09047,310.53273Z"/>
    </g>
  </g>
  <g>
    <path class="cls-47" d="M563.57273,462.3609c.20371-.21975,39.81729-22.94042,39.81729-22.94042-.20613-1.37548.13953-2.57082,1.0243-3.0308,1.00433-.522,2.38667.05866,3.467,1.31608,10.36242-4.28939,20.06192-2.852,47.40061,12.69117,35.43143,20.14428,44.62807,31.92491,45.51431,43.23314,2.466,1.17123,3.31124,2.63359,2.74776,4.10938-.52156,1.366-2.14659,1.47578-4.41352.93409-.27192-.065-.54653-.07637-.80639-.13536l-37.38326,21.46547c.3562,1.57994-.246,3.69466-1.241,4.19256-1.30755.65449-3.17773-.702-4.01387-3.33395l-.00092-.00209c-16.29735-.6754-34.383-12.57052-49.1134-21.8596-12.24116-7.71949-37.18425-18.15531-42.79683-31.39341-2.16333-.005-4.17084-1.30135-4.25281-2.67082C559.43882,463.54323,561.3703,462.59411,563.57273,462.3609Z"/>
    <path class="cls-47" d="M668.87762,525.94854c.20371-.21975,39.81728-22.94043,39.81728-22.94043-.20613-1.37548-.53392-3.0027.35085-3.46267,1.00433-.52206,3.06012.49053,4.14049,1.748,13.74332-2.90175,20.06192-2.852,47.40061,12.69117,35.43143,20.14428,37.58278,29.16356,45.51431,43.23314,2.466,1.17123,3.78082,1.96279,3.21734,3.43857-.52156,1.366-3.95443,2.0728-5.68948,1.46955l-37.38326,21.46546c.35619,1.57994-.246,3.69466-1.241,4.19256-1.30756.65449-3.17774-.702-4.01387-3.334l-.00092-.00209c-16.29735-.6754-38.4884-10.59834-53.21876-19.88741-12.24117-7.7195-33.0789-20.1275-38.69147-33.36559-2.16333-.005-4.27247-1.08622-4.35444-2.45569C664.64208,527.346,666.67519,526.18174,668.87762,525.94854Z"/>
  </g>
  <g>
    <path class="cls-5" d="M559.87921,452.81181c.20371-.21975,39.81729-22.94043,39.81729-22.94043-.20613-1.37548.13953-2.57082,1.0243-3.03079,1.00433-.52206,2.38667.05865,3.467,1.31607,10.36243-4.28938,20.06192-2.852,47.40061,12.69117,35.43143,20.14428,44.62807,31.92492,45.51431,43.23314,2.466,1.17123,3.31124,2.6336,2.74776,4.10938-.52156,1.366-2.14659,1.47578-4.41352.9341-.27192-.065-.54653-.07637-.80639-.13536l-37.38326,21.46546c.3562,1.57994-.246,3.69466-1.241,4.19257-1.30755.65448-3.17773-.702-4.01387-3.334l-.00092-.00209c-16.29735-.6754-34.383-12.57052-49.1134-21.8596-12.24116-7.71949-37.18425-18.15531-42.79683-31.3934-2.16332-.005-4.17084-1.30135-4.25281-2.67082C555.7453,453.99413,557.67678,453.045,559.87921,452.81181Z"/>
    <path class="cls-5" d="M665.1841,516.39944c.20371-.21975,39.81728-22.94042,39.81728-22.94042-.20613-1.37549-.53392-3.00271.35085-3.46268,1.00433-.522,3.06013.49054,4.14049,1.748,13.74332-2.90175,20.06192-2.852,47.40062,12.69117,35.43142,20.14427,37.58277,29.16355,45.5143,43.23314,2.466,1.17122,3.78082,1.96278,3.21734,3.43856-.52156,1.366-3.95443,2.07281-5.68948,1.46955l-37.38326,21.46546c.35619,1.57995-.246,3.69466-1.241,4.19257-1.30756.65449-3.17774-.702-4.01387-3.33395l-.00092-.00209c-16.29735-.67541-38.4884-10.59834-53.21876-19.88742-12.24117-7.71949-33.0789-20.1275-38.69147-33.36559-2.16333-.005-4.27247-1.08622-4.35444-2.45569C660.94856,517.7969,662.98167,516.63264,665.1841,516.39944Z"/>
  </g>
  <g>
    <path class="cls-73" d="M861.60936,731.55264s2.12029,5.80666.961,9.40028-7.8534,4.85625-11.26559,1.57353c-2.95175-2.83975-2.55469-3.25525-5.44363-7.40818-3.017-4.337-8.21123-9.77141-8.67636-14.44079-1.07046-10.74628,13.31155-5.4106,13.31155-5.4106Z"/>
    <path class="cls-74" d="M862.89222,724.64381s.83743,8.99139-.32182,12.585-7.8534,4.85625-11.26559,1.57353c-2.95175-2.83975-2.32544-3.745-5.21438-7.89794-3.017-4.337-7.24217-8.80468-7.46246-11.67585-.82617-10.76781,11.8684-7.68578,11.8684-7.68578Z"/>
    <path class="cls-73" d="M845.81221,731.63422s-.5734-5.92564.60324-7.66409l7.30992-10.80028-10.063-1.664s-3.9484.92226-4.94274,3.79778a8.444,8.444,0,0,0-.13032,5.23514Z"/>
    <path class="cls-75" d="M859.90582,561.36438l3.27887,84.534s1.298,50.28793.86743,78.27262c-.64606,6.64725-19.4052,6.24737-21.10287-1.17584-9.69809-50.209-16.33833-99.60265-16.80864-149.52267Z"/>
    <path class="cls-73" d="M821.09466,754.1733c.98159.58941,2.81334,4.56816,1.90126,7.28685s-3.53942,3.80861-7.11489,3.80861-6.93918-1.19619-12.98565-1.74433c-8.13337-.73733-12.63817.07923-17.84323-2.54961-6.68937-3.3785-3.54128-10.89366,1.98567-11.402,1.67354-.15393,6.71577-.19989,6.71577-.19989l12.93683-3.34631S820.11308,753.58389,821.09466,754.1733Z"/>
    <path class="cls-74" d="M820.28771,745.69629l-.20425-6.79445-14.01864-.21795.20088,6.09849-13.0435,3.16578s-4.56852.30481-6.14167.44937c-5.19565.478-7.15592,5.99328-1.00061,9.41916,6.06166,3.37405,9.88305,2.12253,17.52854,2.8158,5.68389.51507,8.09033,1.22061,11.45142,1.22061s5.83073-1.02422,6.68811-3.58S820.28771,745.69629,820.28771,745.69629Z"/>
    <path class="cls-73" d="M859.90579,561.36432l-1.61518-36.11-64.07159,8.2872s-1.82244,26.13356-1.82244,46.27392c0,45.95366,1.61993,92.0934,6.57661,157.73937.264,6.62137,24.18636,8.5496,25.338.57615,3.31276-29.59948,4.86493-44.756,4.03624-71.8369l4.22585-75.22931Z"/>
    <g>
      <path class="cls-74" d="M885.962,461.84178l.78709-7.60528a5.36361,5.36361,0,0,1,.91715-3.00559s3.72225-9.65026,6.33007-9.38357,4.98932,3.65781,4.98932,6.36675-.20821,7.449-1.65175,10.71a80.28187,80.28187,0,0,1-4.18361,7.69567S885.5615,465.43973,885.962,461.84178Z"/>
      <path class="cls-74" d="M861.46176,487.58883s6.1858,6.57252,11.35354,9.19831,9.38237-.64286,12.8747-7.141,7.46027-23.02632,7.46027-23.02632l-6.772-5.556-8.71148,16.82541-4.86-7.08983"/>
      <path class="cls-76" d="M845.94637,443.07152c13.60185,4.06122,26.28409,21.8219,31.64135,30.37752,5.30883,8.47827-6.94644,24.68456-16.126,20.08886L851.07,487.79079Z"/>
      <path class="cls-77" d="M861.46175,493.53784l-5.702-3.15335,4.146-26.51124,4.36725,30.439A7.51486,7.51486,0,0,1,861.46175,493.53784Z"/>
    </g>
    <path class="cls-78" d="M826.83367,441.59144c20.997-1.67968,34.64291,4.273,32.662,27.15674l-1.01613,25.33813.95083,27.56976c-.15067,6.899-4.69513,15.03941-16.606,20.13681-15.55075,6.65512-50.65124,5.56934-50.34854-8.291l.55465-24.84054-2.95765-39.168C793.10932,458.2814,811.51407,442.81694,826.83367,441.59144Z"/>
    <path class="cls-77" d="M793.52234,537.46694l8.473-33.85262,9.5987-21.55222-5.03,62.46776C800.45348,543.25834,795.56424,540.95328,793.52234,537.46694Z"/>
    <g>
      <path class="cls-74" d="M790.28912,481.40749,783.374,524.13205l-3.52132,39.55938c-.76787,3.81666,6.95756,6.8909,8.683,1.86209,0,0,8.843-28.45038,11.5855-40.04632s7.98191-32.64793,7.98191-32.64793Z"/>
      <path class="cls-74" d="M787.73427,585.90067l.11709-9.41727-.03595,2.89146c.69521,2.03648,2.67912,1.7622,2.83113-.50654l.26014-4.71213a8.871,8.871,0,0,0-.44562-2.2597l-2.073-6.36793-8.19865-3.61271s-2.72867,12.36006-2.32313,14.85332a13.27368,13.27368,0,0,0,3.1208,6.48115l3.75855,3.89088A1.69692,1.69692,0,0,0,787.73427,585.90067Z"/>
    </g>
    <path class="cls-79" d="M790.22711,468.97829a245.11556,245.11556,0,0,0-7.30025,37.90841c-1.10931,10.22146,22.25612,15.45916,24.20664,4.51646l4.18572-27.85057C814.14652,467.46289,794.179,455.78547,790.22711,468.97829Z"/>
    <path class="cls-73" d="M802.25641,745.75547a6.34077,6.34077,0,0,0-2.92666,5.22984c-.09943,3.64921,3.47876,9.58916,3.47876,9.58916l5.89979.65189-16.31172-.37615-8.22075-2.55537-2.52121-3.17935s-.83642-5.081,2.28351-6.3587S802.25641,745.75547,802.25641,745.75547Z"/>
    <g>
      <path class="cls-73" d="M827.43473,441.51469c-5.76321.461-11.42457,2.67945-16.9023,5.70233a66.2495,66.2495,0,0,0,11.19341.435c6.50672-.26753,11.53723-2.19709,13.84064-4.09869,1.45956-1.20492,1.25939-2.0037,1.24788-2.11433A70.79075,70.79075,0,0,0,827.43473,441.51469Z"/>
      <path class="cls-74" d="M833.50026,441.33567c-.43545.47188-3.34269,3.23722-12.35761,4.03005a57.95615,57.95615,0,0,1-7.55555.2764,41.53524,41.53524,0,0,1,11.60662-3.858q.07305-.01194.146-.02341c.69679-.10593,1.39512-.19,2.095-.24594C829.53329,441.34681,831.55343,441.30885,833.50026,441.33567Z"/>
    </g>
    <g>
      <path class="cls-74" d="M815.49454,441.40717c7.29086-.8521,11.8216-3.84607,12.96287-10.49057l2.10934-14.78469c1.14783-5.76908-3.462-11.86408-10.26176-12.61069-5.94292-.65253-12.61607,3.58489-13.34212,10.168a133.87251,133.87251,0,0,0-.55893,14.668C806.6327,434.89027,808.86874,442.18153,815.49454,441.40717Z"/>
      <path class="cls-80" d="M806.67049,417.41187c.14759-2.22423.29243-3.7226.29243-3.7226.00329-.03072.01152-.05925.01518-.08979.00311-.01646.0064-.03274.00841-.04957,3.1531.87967,6.29138,1.91388,7.7987,3.54118C813.43535,416.50129,810.53793,418.85774,806.67049,417.41187Z"/>
      <path class="cls-74" d="M832.49154,441.31994l-1.52516-11.1975c-2.64465-6.64956-16.30913,2.99663-15.45433,7.89924l1.41108,7.21526C822.23943,444.72028,832.49154,441.31994,832.49154,441.31994Z"/>
      <path class="cls-81" d="M825.89012,438.32863c1.90891,1.15894,3.88577-.48771,6.09871-2.87514,7.301-8.35794,8.66388-19.88625,4.40841-26.02725-4.80012-6.927-15.61051-7.83442-24.50329-5.20515-7.18166,2.12335-8.15389,5.05237-7.72356,7.84154.41159,2.66768,2.35906,3.53306,5.25958,4.04828,2.42259.43033,5.83786-.91289,6.87729,4.02437.47814,2.27118-.14608,5.34723.10359,6.27164a1.63291,1.63291,0,0,0,2.61385,1.15784l.70128,4.89654S823.9812,437.16968,825.89012,438.32863Z"/>
      <path class="cls-74" d="M820.3511,435.23261c2.73054.196,5.30276-3.45161,5.52517-6.55009s-2.27317-5.89869-4.71975-4.67049C818.08528,425.55382,817.62057,435.03661,820.3511,435.23261Z"/>
    </g>
  </g>
  <g>
    <g>
      <polygon class="cls-82" points="691.092 238.19 650.264 214.579 650.264 276.496 691.092 300.106 691.092 238.19"/>
      <polygon class="cls-83" points="691.092 241.417 659.097 222.914 659.097 271.435 691.092 289.937 691.092 241.417"/>
      <path class="cls-84" d="M653.925,220.92586,687.43111,240.302v53.45767L653.925,274.3835V220.92586m-3.66132-6.34676v61.91656l40.82878,23.6108V238.18989L650.26365,214.5791Z"/>
      <polygon class="cls-85" points="697.704 296.3 697.704 234.384 691.092 238.19 691.092 300.106 697.704 296.3"/>
      <polygon class="cls-86" points="697.704 234.384 656.861 210.781 650.264 214.579 691.092 238.19 697.704 234.384"/>
    </g>
    <g>
      <polygon class="cls-87" points="744.955 294.654 704.127 271.043 704.127 332.96 744.955 356.571 744.955 294.654"/>
      <polygon class="cls-88" points="744.955 297.881 712.96 279.378 712.96 327.899 744.955 346.401 744.955 297.881"/>
      <path class="cls-89" d="M707.788,277.38992l33.50614,19.37619v53.45766L707.788,330.84756V277.38992m-3.66132-6.34675v61.91655l40.82878,23.6108V294.654l-40.82878-23.61078Z"/>
      <polygon class="cls-90" points="751.567 352.764 751.567 290.848 744.955 294.654 744.955 356.571 751.567 352.764"/>
      <polygon class="cls-91" points="751.567 290.848 710.724 267.245 704.127 271.043 744.955 294.654 751.567 290.848"/>
    </g>
    <g>
      <polygon class="cls-92" points="798.818 285.308 757.99 261.697 757.99 323.613 798.818 347.224 798.818 285.308"/>
      <polygon class="cls-93" points="798.818 288.534 766.823 270.032 766.823 318.552 798.818 337.055 798.818 288.534"/>
      <path class="cls-94" d="M761.651,268.04357l33.50613,19.37619v53.45767L761.651,321.50122V268.04357m-3.66133-6.34675v61.91656l40.82878,23.6108V285.3076l-40.82878-23.61078Z"/>
      <polygon class="cls-95" points="805.43 343.418 805.43 281.502 798.818 285.308 798.818 347.224 805.43 343.418"/>
      <polygon class="cls-96" points="805.43 281.502 764.587 257.899 757.99 261.697 798.818 285.308 805.43 281.502"/>
    </g>
  </g>
</svg>
