<svg id="Layer_1" data-name="Layer 1" xmlns="http://www.w3.org/2000/svg" xmlns:xlink="http://www.w3.org/1999/xlink" viewBox="0 0 1000 1000">
  <defs>
    <style>
      .cls-1 {
        fill: url(#linear-gradient);
      }

      .cls-2 {
        fill: url(#linear-gradient-2);
      }

      .cls-3 {
        fill: #b8cbd8;
      }

      .cls-4 {
        fill: url(#linear-gradient-3);
      }

      .cls-5 {
        fill: url(#linear-gradient-4);
      }

      .cls-6 {
        fill: #f9e8d2;
      }

      .cls-7 {
        fill: #e6f4ff;
      }

      .cls-8 {
        fill: url(#linear-gradient-5);
      }

      .cls-9 {
        fill: url(#linear-gradient-6);
      }

      .cls-10 {
        fill: #34a521;
      }

      .cls-11, .cls-12 {
        fill: #fff;
      }

      .cls-12 {
        opacity: 0.7;
      }

      .cls-13 {
        fill: url(#linear-gradient-7);
      }

      .cls-14 {
        fill: url(#linear-gradient-8);
      }

      .cls-15 {
        fill: url(#linear-gradient-9);
      }

      .cls-16 {
        fill: url(#linear-gradient-10);
      }

      .cls-17 {
        fill: url(#linear-gradient-11);
      }

      .cls-18 {
        fill: url(#linear-gradient-12);
      }

      .cls-19 {
        fill: url(#linear-gradient-13);
      }

      .cls-20 {
        fill: url(#linear-gradient-14);
      }

      .cls-21 {
        fill: url(#linear-gradient-15);
      }

      .cls-22 {
        fill: url(#linear-gradient-16);
      }

      .cls-23 {
        fill: url(#linear-gradient-17);
      }

      .cls-24 {
        fill: url(#linear-gradient-18);
      }

      .cls-25 {
        fill: #dd7b19;
        opacity: 0.5;
      }

      .cls-26 {
        fill: url(#linear-gradient-19);
      }

      .cls-27 {
        fill: none;
        stroke: #d8712b;
        stroke-linecap: round;
        stroke-miterlimit: 10;
        stroke-width: 5.21546px;
      }

      .cls-28 {
        fill: #c1ad9a;
      }

      .cls-29 {
        fill: #9bb0c4;
      }

      .cls-30 {
        fill: url(#linear-gradient-20);
      }

      .cls-31 {
        fill: url(#linear-gradient-21);
      }

      .cls-32 {
        fill: url(#linear-gradient-22);
      }

      .cls-33 {
        fill: url(#linear-gradient-23);
      }

      .cls-34 {
        fill: url(#linear-gradient-24);
      }

      .cls-35 {
        fill: url(#linear-gradient-25);
      }

      .cls-36 {
        fill: url(#linear-gradient-26);
      }

      .cls-37 {
        fill: url(#linear-gradient-27);
      }

      .cls-38 {
        fill: url(#linear-gradient-28);
      }

      .cls-39 {
        fill: url(#linear-gradient-29);
      }

      .cls-40 {
        fill: url(#linear-gradient-30);
      }

      .cls-41 {
        fill: url(#linear-gradient-31);
      }

      .cls-42 {
        fill: url(#linear-gradient-32);
      }

      .cls-43 {
        fill: url(#linear-gradient-33);
      }

      .cls-44 {
        fill: url(#linear-gradient-34);
      }

      .cls-45 {
        fill: url(#linear-gradient-35);
      }

      .cls-46 {
        fill: url(#linear-gradient-36);
      }

      .cls-47 {
        fill: url(#linear-gradient-37);
      }

      .cls-48 {
        fill: url(#linear-gradient-38);
      }

      .cls-49 {
        fill: url(#linear-gradient-39);
      }

      .cls-50 {
        fill: url(#linear-gradient-40);
      }

      .cls-51 {
        fill: url(#linear-gradient-41);
      }

      .cls-52 {
        fill: url(#linear-gradient-42);
      }

      .cls-53 {
        fill: url(#linear-gradient-43);
      }

      .cls-54 {
        fill: url(#linear-gradient-44);
      }

      .cls-55 {
        fill: url(#linear-gradient-45);
      }

      .cls-56 {
        fill: #ffcb48;
      }

      .cls-57 {
        fill: url(#linear-gradient-46);
      }

      .cls-58 {
        fill: url(#linear-gradient-47);
      }

      .cls-59 {
        fill: url(#linear-gradient-48);
      }

      .cls-60 {
        fill: url(#linear-gradient-49);
      }

      .cls-61 {
        fill: url(#linear-gradient-50);
      }

      .cls-62 {
        fill: url(#linear-gradient-51);
      }

      .cls-63 {
        fill: url(#linear-gradient-52);
      }

      .cls-64 {
        fill: url(#linear-gradient-53);
      }

      .cls-65 {
        fill: url(#linear-gradient-54);
      }

      .cls-66 {
        fill: url(#linear-gradient-55);
      }

      .cls-67 {
        fill: url(#linear-gradient-56);
      }

      .cls-68 {
        fill: url(#linear-gradient-57);
      }

      .cls-69 {
        fill: url(#linear-gradient-58);
      }

      .cls-70 {
        fill: url(#linear-gradient-59);
      }

      .cls-71 {
        fill: url(#linear-gradient-60);
      }

      .cls-72 {
        fill: url(#linear-gradient-61);
      }

      .cls-73 {
        fill: url(#linear-gradient-62);
      }

      .cls-74 {
        fill: url(#linear-gradient-63);
      }

      .cls-75 {
        fill: url(#linear-gradient-64);
      }

      .cls-76 {
        fill: url(#linear-gradient-65);
      }

      .cls-77 {
        fill: url(#linear-gradient-66);
      }

      .cls-78 {
        fill: url(#linear-gradient-67);
      }

      .cls-79 {
        fill: url(#linear-gradient-68);
      }

      .cls-80 {
        fill: url(#linear-gradient-69);
      }

      .cls-81 {
        fill: url(#linear-gradient-70);
      }

      .cls-82 {
        fill: url(#linear-gradient-71);
      }

      .cls-83 {
        fill: url(#linear-gradient-72);
      }

      .cls-84 {
        fill: url(#linear-gradient-73);
      }

      .cls-85 {
        fill: url(#linear-gradient-74);
      }

      .cls-86 {
        fill: url(#linear-gradient-75);
      }

      .cls-87 {
        fill: url(#linear-gradient-76);
      }

      .cls-88 {
        fill: url(#linear-gradient-77);
      }

      .cls-89 {
        fill: url(#linear-gradient-78);
      }

      .cls-90 {
        fill: url(#linear-gradient-79);
      }

      .cls-91 {
        fill: url(#linear-gradient-80);
      }

      .cls-92 {
        fill: #e58630;
      }

      .cls-93 {
        fill: #724133;
      }

      .cls-94 {
        fill: url(#linear-gradient-81);
      }

      .cls-95 {
        fill: url(#linear-gradient-82);
      }

      .cls-96 {
        fill: url(#linear-gradient-83);
      }

      .cls-97 {
        fill: url(#linear-gradient-84);
      }

      .cls-98 {
        fill: url(#linear-gradient-85);
      }

      .cls-99 {
        fill: url(#linear-gradient-86);
      }

      .cls-100 {
        fill: url(#linear-gradient-87);
      }

      .cls-101 {
        fill: url(#linear-gradient-88);
      }

      .cls-102 {
        fill: url(#linear-gradient-89);
      }

      .cls-103 {
        fill: url(#linear-gradient-90);
      }

      .cls-104 {
        fill: url(#linear-gradient-91);
      }

      .cls-105 {
        fill: url(#linear-gradient-92);
      }

      .cls-106 {
        fill: url(#linear-gradient-93);
      }

      .cls-107 {
        fill: #c93535;
      }
    </style>
    <linearGradient id="linear-gradient" x1="688.6621" y1="436.29013" x2="906.64239" y2="436.29013" gradientUnits="userSpaceOnUse">
      <stop offset="0" stop-color="#f2eee4"/>
      <stop offset="1" stop-color="#e6c4a1"/>
    </linearGradient>
    <linearGradient id="linear-gradient-2" x1="499.99589" y1="318.90615" x2="688.6621" y2="318.90615" gradientUnits="userSpaceOnUse">
      <stop offset="0" stop-color="#f0f9ff"/>
      <stop offset="1" stop-color="#c3d6e6"/>
    </linearGradient>
    <linearGradient id="linear-gradient-3" x1="93.35761" y1="696.80704" x2="906.63442" y2="696.80704" gradientUnits="userSpaceOnUse">
      <stop offset="0" stop-color="#dae9f2"/>
      <stop offset="0.99337" stop-color="#c4d5e6"/>
    </linearGradient>
    <linearGradient id="linear-gradient-4" x1="276.11787" y1="750.3596" x2="906.63425" y2="750.3596" gradientUnits="userSpaceOnUse">
      <stop offset="0" stop-color="#f2ecda"/>
      <stop offset="0.99337" stop-color="#e6c3a1"/>
    </linearGradient>
    <linearGradient id="linear-gradient-5" x1="736.11493" y1="238.13032" x2="736.11493" y2="237.23455" gradientUnits="userSpaceOnUse">
      <stop offset="0" stop-color="#fff2d7"/>
      <stop offset="0.98888" stop-color="#f2efe6" stop-opacity="0"/>
    </linearGradient>
    <linearGradient id="linear-gradient-6" x1="660.78413" y1="271.10539" x2="645.85455" y2="431.74775" gradientUnits="userSpaceOnUse">
      <stop offset="0" stop-color="#fff"/>
      <stop offset="1" stop-color="#fff" stop-opacity="0"/>
    </linearGradient>
    <linearGradient id="linear-gradient-7" x1="-227.46512" y1="439.10649" x2="-130.10185" y2="439.10649" gradientTransform="translate(353.2766)" gradientUnits="userSpaceOnUse">
      <stop offset="0" stop-color="#62778c"/>
      <stop offset="1" stop-color="#435466"/>
    </linearGradient>
    <linearGradient id="linear-gradient-8" x1="-106.61162" y1="369.32802" x2="-9.23391" y2="369.32802" xlink:href="#linear-gradient-7"/>
    <linearGradient id="linear-gradient-9" x1="14.25632" y1="299.52933" x2="111.68966" y2="299.52933" xlink:href="#linear-gradient-7"/>
    <linearGradient id="linear-gradient-10" x1="-227.46512" y1="372.68274" x2="123.40608" y2="372.68274" gradientTransform="translate(353.2766)" gradientUnits="userSpaceOnUse">
      <stop offset="0" stop-color="#849bb2"/>
      <stop offset="1" stop-color="#5b6f82"/>
    </linearGradient>
    <linearGradient id="linear-gradient-11" x1="139.66389" y1="268.76949" x2="-237.48091" y2="473.20882" xlink:href="#linear-gradient-7"/>
    <linearGradient id="linear-gradient-12" x1="-207.46095" y1="324.59455" x2="24.44038" y2="555.88561" gradientTransform="translate(353.2766)" gradientUnits="userSpaceOnUse">
      <stop offset="0" stop-color="#5b6f82"/>
      <stop offset="1" stop-color="#849bb2"/>
    </linearGradient>
    <linearGradient id="linear-gradient-13" x1="-112.29503" y1="229.17752" x2="119.60631" y2="460.46859" xlink:href="#linear-gradient-12"/>
    <linearGradient id="linear-gradient-14" x1="-17.11733" y1="133.7487" x2="214.784" y2="365.03976" xlink:href="#linear-gradient-12"/>
    <linearGradient id="linear-gradient-15" x1="-427.31518" y1="115.63616" x2="136.24568" y2="115.63616" xlink:href="#linear-gradient-12"/>
    <linearGradient id="linear-gradient-16" x1="-427.31518" y1="222.51453" x2="136.24568" y2="222.51453" xlink:href="#linear-gradient-12"/>
    <linearGradient id="linear-gradient-17" x1="-427.31518" y1="329.46411" x2="136.24568" y2="329.46411" xlink:href="#linear-gradient-12"/>
    <linearGradient id="linear-gradient-18" x1="-194.7966" y1="325.0412" x2="-218.597" y2="617.0538" gradientTransform="translate(353.2766)" gradientUnits="userSpaceOnUse">
      <stop offset="0.00844" stop-color="#ffc63f"/>
      <stop offset="1" stop-color="#e68e2b"/>
    </linearGradient>
    <linearGradient id="linear-gradient-19" x1="78.61035" y1="161.35284" x2="156.72449" y2="450.61924" xlink:href="#linear-gradient-18"/>
    <linearGradient id="linear-gradient-20" x1="525.27325" y1="447.60992" x2="559.9555" y2="538.9605" gradientTransform="matrix(1, 0, 0, 1, 0, 0)" xlink:href="#linear-gradient-10"/>
    <linearGradient id="linear-gradient-21" x1="539.26153" y1="477.00077" x2="545.76445" y2="558.7518" gradientUnits="userSpaceOnUse">
      <stop offset="0" stop-color="#62788c"/>
      <stop offset="1" stop-color="#526575"/>
    </linearGradient>
    <linearGradient id="linear-gradient-22" x1="476.42628" y1="476.44565" x2="502.1283" y2="583.58904" xlink:href="#linear-gradient-21"/>
    <linearGradient id="linear-gradient-23" x1="516.26766" y1="538.83929" x2="800.84796" y2="635.14449" xlink:href="#linear-gradient-21"/>
    <linearGradient id="linear-gradient-24" x1="608.86559" y1="592.33046" x2="709.81239" y2="626.492" gradientUnits="userSpaceOnUse">
      <stop offset="0" stop-color="#8c8262"/>
      <stop offset="0.99748" stop-color="#756452"/>
    </linearGradient>
    <linearGradient id="linear-gradient-25" x1="505.25283" y1="486.35192" x2="835.35359" y2="600.3079" gradientTransform="matrix(1, 0, 0, 1, 0, 0)" xlink:href="#linear-gradient-10"/>
    <linearGradient id="linear-gradient-26" x1="613.34552" y1="535.74699" x2="818.16525" y2="606.45399" gradientUnits="userSpaceOnUse">
      <stop offset="0" stop-color="#b2a784"/>
      <stop offset="1" stop-color="#826f5b"/>
    </linearGradient>
    <linearGradient id="linear-gradient-27" x1="541.40295" y1="470.04913" x2="737.10996" y2="662.65951" gradientTransform="matrix(1, 0, 0, 1, 0, 0)" xlink:href="#linear-gradient-7"/>
    <linearGradient id="linear-gradient-28" x1="632.12852" y1="393.64178" x2="659.37886" y2="550.33126" xlink:href="#linear-gradient-21"/>
    <linearGradient id="linear-gradient-29" x1="597.06687" y1="413.49029" x2="792.77388" y2="606.10067" gradientTransform="matrix(1, 0, 0, 1, 0, 0)" xlink:href="#linear-gradient-7"/>
    <linearGradient id="linear-gradient-30" x1="567.22733" y1="390.94823" x2="751.78648" y2="659.11638" gradientTransform="matrix(1, 0, 0, 1, 0, 0)" xlink:href="#linear-gradient-10"/>
    <linearGradient id="linear-gradient-31" x1="559.99143" y1="451.16179" x2="755.69845" y2="643.77218" gradientTransform="matrix(1, 0, 0, 1, 0, 0)" xlink:href="#linear-gradient-7"/>
    <linearGradient id="linear-gradient-32" x1="734.67158" y1="447.61336" x2="772.1408" y2="589.74868" xlink:href="#linear-gradient-24"/>
    <linearGradient id="linear-gradient-33" x1="621.70181" y1="388.45928" x2="817.40883" y2="581.06967" gradientUnits="userSpaceOnUse">
      <stop offset="0" stop-color="#8c7762"/>
      <stop offset="1" stop-color="#665543"/>
    </linearGradient>
    <linearGradient id="linear-gradient-34" x1="611.45102" y1="360.51252" x2="796.01017" y2="628.68068" xlink:href="#linear-gradient-26"/>
    <linearGradient id="linear-gradient-35" x1="582.20161" y1="428.59453" x2="777.90863" y2="621.20492" xlink:href="#linear-gradient-33"/>
    <linearGradient id="linear-gradient-36" x1="607.82797" y1="600.75809" x2="706.1695" y2="674.70681" gradientUnits="userSpaceOnUse">
      <stop offset="0" stop-color="#59523e"/>
      <stop offset="1" stop-color="#403529"/>
    </linearGradient>
    <linearGradient id="linear-gradient-37" x1="502.6875" y1="538.71654" x2="608.45734" y2="618.25105" gradientUnits="userSpaceOnUse">
      <stop offset="0" stop-color="#3e4c59"/>
      <stop offset="1" stop-color="#293440"/>
    </linearGradient>
    <linearGradient id="linear-gradient-38" x1="494.53727" y1="535.29923" x2="702.95431" y2="650.25705" xlink:href="#linear-gradient-33"/>
    <linearGradient id="linear-gradient-39" x1="421.00715" y1="475.59794" x2="617.56012" y2="607.52617" gradientTransform="matrix(1, 0, 0, 1, 0, 0)" xlink:href="#linear-gradient-7"/>
    <linearGradient id="linear-gradient-40" x1="748.64206" y1="585.19566" x2="785.33712" y2="663.23074" xlink:href="#linear-gradient-26"/>
    <linearGradient id="linear-gradient-41" x1="760.49202" y1="610.8995" x2="787.89719" y2="656.41996" xlink:href="#linear-gradient-33"/>
    <linearGradient id="linear-gradient-42" x1="711.75364" y1="603.30959" x2="716.39859" y2="698.76321" xlink:href="#linear-gradient-33"/>
    <linearGradient id="linear-gradient-43" x1="677.0794" y1="222.0116" x2="701.86253" y2="284.86519" gradientUnits="userSpaceOnUse">
      <stop offset="0.00844" stop-color="#ffc63f"/>
      <stop offset="1" stop-color="#e68a23"/>
    </linearGradient>
    <linearGradient id="linear-gradient-44" x1="684.28671" y1="225.9475" x2="692.74382" y2="239.17365" gradientTransform="matrix(1, 0, 0, 1, 0, 0)" xlink:href="#linear-gradient-7"/>
    <linearGradient id="linear-gradient-45" x1="667.91339" y1="235.50028" x2="697.69792" y2="282.0806" gradientTransform="matrix(1, 0, 0, 1, 0, 0)" xlink:href="#linear-gradient-7"/>
    <linearGradient id="linear-gradient-46" x1="407.42637" y1="840.98535" x2="421.19486" y2="840.98535" xlink:href="#linear-gradient-36"/>
    <linearGradient id="linear-gradient-47" x1="461.52408" y1="809.61052" x2="475.29257" y2="809.61052" xlink:href="#linear-gradient-36"/>
    <linearGradient id="linear-gradient-48" x1="219.08837" y1="732.25679" x2="232.85685" y2="732.25679" xlink:href="#linear-gradient-37"/>
    <linearGradient id="linear-gradient-49" x1="324.61637" y1="709.95654" x2="473.61365" y2="812.6721" gradientUnits="userSpaceOnUse">
      <stop offset="0" stop-color="#8c8262"/>
      <stop offset="1" stop-color="#665543"/>
    </linearGradient>
    <linearGradient id="linear-gradient-50" x1="278.16446" y1="734.69045" x2="314.57106" y2="734.69045" xlink:href="#linear-gradient-37"/>
    <linearGradient id="linear-gradient-51" x1="192.11922" y1="649.82839" x2="341.71368" y2="750.75241" gradientTransform="matrix(1, 0, 0, 1, 0, 0)" xlink:href="#linear-gradient-7"/>
    <linearGradient id="linear-gradient-52" x1="267.37491" y1="700.71571" x2="350.2262" y2="756.61139" xlink:href="#linear-gradient-49"/>
    <linearGradient id="linear-gradient-53" x1="216.70544" y1="725.27712" x2="311.36344" y2="725.27712" xlink:href="#linear-gradient-21"/>
    <linearGradient id="linear-gradient-54" x1="239.17896" y1="657.62402" x2="417.43823" y2="798.26074" gradientUnits="userSpaceOnUse">
      <stop offset="0" stop-color="#8c8262"/>
      <stop offset="1" stop-color="#756452"/>
    </linearGradient>
    <linearGradient id="linear-gradient-55" x1="175.29383" y1="674.7678" x2="324.8883" y2="775.69181" gradientTransform="matrix(1, 0, 0, 1, 0, 0)" xlink:href="#linear-gradient-7"/>
    <linearGradient id="linear-gradient-56" x1="262.08688" y1="731.67136" x2="344.93818" y2="787.56704" xlink:href="#linear-gradient-49"/>
    <linearGradient id="linear-gradient-57" x1="316.697" y1="682.51585" x2="461.73109" y2="780.3632" xlink:href="#linear-gradient-54"/>
    <linearGradient id="linear-gradient-58" x1="213.21412" y1="695.77102" x2="310.31073" y2="695.77102" gradientUnits="userSpaceOnUse">
      <stop offset="0" stop-color="#526575"/>
      <stop offset="1" stop-color="#62788c"/>
    </linearGradient>
    <linearGradient id="linear-gradient-59" x1="310.41608" y1="731.37743" x2="481.21226" y2="731.37743" gradientUnits="userSpaceOnUse">
      <stop offset="0" stop-color="#ccba96"/>
      <stop offset="1" stop-color="#a68d74"/>
    </linearGradient>
    <linearGradient id="linear-gradient-60" x1="213.20984" y1="673.41783" x2="379.39282" y2="673.41783" gradientUnits="userSpaceOnUse">
      <stop offset="0" stop-color="#96b1cc"/>
      <stop offset="1" stop-color="#748ea6"/>
    </linearGradient>
    <linearGradient id="linear-gradient-61" x1="340.08691" y1="684.52625" x2="363.83577" y2="721.65089" gradientUnits="userSpaceOnUse">
      <stop offset="0" stop-color="#594b3e"/>
      <stop offset="1" stop-color="#403529"/>
    </linearGradient>
    <linearGradient id="linear-gradient-62" x1="301.25701" y1="683.5925" x2="329.00213" y2="711.7937" xlink:href="#linear-gradient-37"/>
    <linearGradient id="linear-gradient-63" x1="366.21429" y1="685.82933" x2="340.8115" y2="719.47604" xlink:href="#linear-gradient-49"/>
    <linearGradient id="linear-gradient-64" x1="314.09747" y1="670.00805" x2="334.5203" y2="697.05867" gradientTransform="matrix(1, 0, 0, 1, 0, 0)" xlink:href="#linear-gradient-7"/>
    <linearGradient id="linear-gradient-65" x1="301.68007" y1="647.3807" x2="440.24598" y2="647.3807" xlink:href="#linear-gradient-54"/>
    <linearGradient id="linear-gradient-66" x1="272.29544" y1="501.04677" x2="318.03969" y2="563.62273" gradientUnits="userSpaceOnUse">
      <stop offset="0" stop-color="#596c80"/>
      <stop offset="0.99886" stop-color="#3a4959"/>
    </linearGradient>
    <linearGradient id="linear-gradient-67" x1="227.75137" y1="472.27242" x2="442.28954" y2="720.40216" xlink:href="#linear-gradient-33"/>
    <linearGradient id="linear-gradient-68" x1="241.72579" y1="533.52914" x2="350.91923" y2="671.78212" gradientUnits="userSpaceOnUse">
      <stop offset="0" stop-color="#3e4c59"/>
      <stop offset="1" stop-color="#313e4d"/>
    </linearGradient>
    <linearGradient id="linear-gradient-69" x1="379.72742" y1="705.12723" x2="370.40824" y2="645.5708" xlink:href="#linear-gradient-49"/>
    <linearGradient id="linear-gradient-70" x1="222.4268" y1="565.21125" x2="334.54539" y2="655.658" gradientTransform="matrix(1, 0, 0, 1, 0, 0)" xlink:href="#linear-gradient-7"/>
    <linearGradient id="linear-gradient-71" x1="380.12486" y1="702.40122" x2="369.78713" y2="636.33549" xlink:href="#linear-gradient-61"/>
    <linearGradient id="linear-gradient-72" x1="218.81216" y1="554.06832" x2="327.98275" y2="649.06367" gradientUnits="userSpaceOnUse">
      <stop offset="0" stop-color="#596c80"/>
      <stop offset="0.99886" stop-color="#323f4d"/>
    </linearGradient>
    <linearGradient id="linear-gradient-73" x1="349.34882" y1="689.30902" x2="334.86166" y2="661.35175" gradientUnits="userSpaceOnUse">
      <stop offset="0" stop-color="#756452"/>
      <stop offset="1" stop-color="#8c8262"/>
    </linearGradient>
    <linearGradient id="linear-gradient-74" x1="321.51647" y1="655.47288" x2="338.65994" y2="682.27187" gradientTransform="matrix(1, 0, 0, 1, 0, 0)" xlink:href="#linear-gradient-7"/>
    <linearGradient id="linear-gradient-75" x1="334.79517" y1="675.38815" x2="348.97828" y2="707.78535" xlink:href="#linear-gradient-54"/>
    <linearGradient id="linear-gradient-76" x1="331.40189" y1="670.75205" x2="342.00483" y2="700.45857" gradientUnits="userSpaceOnUse">
      <stop offset="0.00199" stop-color="#ccba96"/>
      <stop offset="1" stop-color="#a68d74"/>
    </linearGradient>
    <linearGradient id="linear-gradient-77" x1="323.28362" y1="666.67009" x2="342.76673" y2="722.4321" xlink:href="#linear-gradient-60"/>
    <linearGradient id="linear-gradient-78" x1="329.37938" y1="701.02492" x2="338.37835" y2="701.02492" xlink:href="#linear-gradient-54"/>
    <linearGradient id="linear-gradient-79" x1="318.28249" y1="676.32043" x2="328.6619" y2="705.40068" xlink:href="#linear-gradient-60"/>
    <linearGradient id="linear-gradient-80" x1="-353.6144" y1="646.05601" x2="-401.31443" y2="696.66731" gradientTransform="translate(515.94883)" gradientUnits="userSpaceOnUse">
      <stop offset="0.00005" stop-color="#ffcb48"/>
      <stop offset="1" stop-color="#e68e2b"/>
    </linearGradient>
    <linearGradient id="linear-gradient-81" x1="-414.98702" y1="591.64122" x2="-385.42644" y2="607.76517" gradientTransform="translate(515.94883)" gradientUnits="userSpaceOnUse">
      <stop offset="0" stop-color="#f2883c"/>
      <stop offset="0.16716" stop-color="#e97d35"/>
      <stop offset="0.67368" stop-color="#d26124"/>
      <stop offset="0.96784" stop-color="#c9571e"/>
    </linearGradient>
    <linearGradient id="linear-gradient-82" x1="-398.84554" y1="554.88298" x2="-378.5413" y2="593.8492" xlink:href="#linear-gradient-81"/>
    <linearGradient id="linear-gradient-83" x1="-350.19573" y1="617.03199" x2="-374.82955" y2="632.70806" xlink:href="#linear-gradient-81"/>
    <linearGradient id="linear-gradient-84" x1="-415.58508" y1="610.37536" x2="-382.88928" y2="623.96129" xlink:href="#linear-gradient-81"/>
    <linearGradient id="linear-gradient-85" x1="-403.61487" y1="569.72879" x2="-387.19232" y2="599.43867" xlink:href="#linear-gradient-81"/>
    <linearGradient id="linear-gradient-86" x1="-328.52217" y1="576.46476" x2="-369.87713" y2="613.63944" xlink:href="#linear-gradient-81"/>
    <linearGradient id="linear-gradient-87" x1="-351.55971" y1="556.53711" x2="-371.11747" y2="590.72586" xlink:href="#linear-gradient-81"/>
    <linearGradient id="linear-gradient-88" x1="821.44256" y1="695.79454" x2="871.91957" y2="695.79454" xlink:href="#linear-gradient-33"/>
    <linearGradient id="linear-gradient-89" x1="821.44255" y1="691.94859" x2="871.91958" y2="691.94859" xlink:href="#linear-gradient-26"/>
    <linearGradient id="linear-gradient-90" x1="844.79149" y1="480.2486" x2="848.37459" y2="678.51352" xlink:href="#linear-gradient-33"/>
    <linearGradient id="linear-gradient-91" x1="812.96991" y1="459.45727" x2="880.39233" y2="459.45727" xlink:href="#linear-gradient-43"/>
    <linearGradient id="linear-gradient-92" x1="836.76443" y1="443.11593" x2="856.59758" y2="443.11593" xlink:href="#linear-gradient-33"/>
    <linearGradient id="linear-gradient-93" x1="836.76444" y1="438.65964" x2="856.59769" y2="438.65964" xlink:href="#linear-gradient-26"/>
  </defs>
  <g>
    <g>
      <g>
        <polygon class="cls-1" points="906.642 301.596 906.642 696.806 688.662 570.984 688.662 175.774 906.642 301.596"/>
        <polygon class="cls-2" points="688.662 175.774 688.662 570.984 499.996 462.02 499.996 66.828 688.662 175.774"/>
        <polygon class="cls-3" points="500.004 66.823 93.358 301.591 93.358 696.807 500.004 462.017 500.004 66.823"/>
      </g>
      <path class="cls-4" d="M100.37475,708.973,478.95534,927.537a42.10143,42.10143,0,0,0,42.1011-.00062l378.5612-218.56743a14.03381,14.03381,0,0,0,.00016-24.307L521.04,466.078a42.10142,42.10142,0,0,0-42.10407.00053L100.37393,684.666A14.03381,14.03381,0,0,0,100.37475,708.973Z"/>
      <path class="cls-5" d="M899.61777,684.66186,696.77163,567.54208,276.11787,810.43393,478.95545,927.537a42.10211,42.10211,0,0,0,42.10144-.00064L899.61777,708.969A14.03411,14.03411,0,0,0,899.61777,684.66186Z"/>
    </g>
    <g>
      <path class="cls-6" d="M220.1867,713.58017l251.82012,145.382a55.993,55.993,0,0,0,55.99262-.00081L779.80583,713.57753a19.35844,19.35844,0,0,0,.00023-33.52948L527.98849,534.65315a55.99309,55.99309,0,0,0-55.99658.0007L220.18556,680.05064A19.35845,19.35845,0,0,0,220.1867,713.58017Z"/>
      <path class="cls-7" d="M646.17422,602.89137,527.98846,534.65309a55.99311,55.99311,0,0,0-55.9966.00075L220.18562,680.05057a19.35848,19.35848,0,0,0,.00107,33.52956l117.14056,67.62819Z"/>
    </g>
    <g>
      <polygon class="cls-8" points="688.606 282.292 688.606 452.212 783.624 513.731 697.859 277.787 688.606 282.292"/>
      <polygon class="cls-9" points="688.606 282.292 688.606 452.212 603.764 404.17 678.923 277.319 688.606 282.292"/>
    </g>
    <g>
      <circle class="cls-10" cx="587.14379" cy="243.34452" r="49.65331"/>
      <g>
        <rect class="cls-11" x="569.43646" y="235.19951" width="10.77746" height="32.39528" transform="translate(-9.40223 480.09531) rotate(-45)"/>
        <rect class="cls-11" x="590.41978" y="221.4452" width="10.77746" height="48.50945" transform="translate(843.37267 840.73625) rotate(-135)"/>
      </g>
    </g>
    <g>
      <g>
        <g>
          <g>
            <path class="cls-12" d="M114.07268,651.0791,484.89487,436.99486a7.044,7.044,0,0,0,3.52211-6.10032V94.28547L114.07268,310.42393Z"/>
            <path class="cls-11" d="M476.68268,428.178,125.81148,630.75041l-11.71643-6.76221v-313.546L464.96625,107.858l11.71643,6.76221Z"/>
            <polygon class="cls-13" points="223.175 260.987 223.175 561.017 125.811 617.226 125.813 610.439 217.304 557.631 217.304 264.377 223.175 260.987"/>
            <polygon class="cls-14" points="344.043 191.2 344.024 491.244 246.665 547.456 246.665 540.669 338.154 487.863 338.154 194.58 344.043 191.2"/>
            <polygon class="cls-15" points="464.966 121.382 464.927 421.45 367.533 477.677 367.533 470.891 459.022 418.085 459.022 124.814 464.966 121.382"/>
            <polygon class="cls-16" points="476.683 114.62 476.677 428.183 125.813 630.745 125.811 617.226 464.966 421.428 464.966 121.382 476.683 114.62"/>
            <path class="cls-17" d="M114.07259,310.42393V651.079l370.82222-214.0841a7.044,7.044,0,0,0,3.5221-6.10032V94.28544ZM355.793,184.416V497.97234L246.665,560.97449V247.42421ZM125.81252,317.20183l109.11253-62.99921V567.75225L125.81252,630.7453ZM476.677,428.18326,367.53292,491.19458v-313.557L476.677,114.62008Z"/>
          </g>
          <polygon class="cls-18" points="234.925 567.752 223.175 561.017 223.175 260.987 234.925 254.203 234.925 567.752"/>
          <polygon class="cls-19" points="355.793 497.972 344.043 491.238 344.043 191.2 355.793 184.416 355.793 497.972"/>
        </g>
        <polygon class="cls-20" points="476.677 428.18 464.927 421.45 464.966 121.382 476.677 114.624 476.677 428.18"/>
      </g>
      <g>
        <circle class="cls-21" cx="494.34112" cy="115.63616" r="8.234"/>
        <path class="cls-22" d="M493.31505,121.45508,130.961,330.704l-4.01188-6.94878L489.31665,114.49853l.00183.00317a2.02063,2.02063,0,0,1,1.99347.21238,6.272,6.272,0,0,1,2.8462,4.90935A1.96848,1.96848,0,0,1,493.31505,121.45508Z"/>
        <path class="cls-3" d="M485.39346,126.0069a9.78881,9.78881,0,0,0-1.28647-3.82459,9.45131,9.45131,0,0,0-2.78132-3.09456,6.27935,6.27935,0,0,0-3.54658-1.18205,5.09336,5.09336,0,0,0-2.48634.643,5.62313,5.62313,0,0,0-2.57293,5.51129l4.31141-2.48613a1.373,1.373,0,0,1,.74786-.19121c1.07764,0,2.41631.97345,3.32036,2.53813.95625,1.65147,1.09546,3.40736.43462,4.31141a1.372,1.372,0,0,1-.43462.39982,1.20292,1.20292,0,0,1-.539.15661l-3.842,2.22532a6.13725,6.13725,0,0,0,3.6336,1.28646,4.87744,4.87744,0,0,0,2.48591-.66084,5.41489,5.41489,0,0,0,2.59033-4.885C485.42826,126.51112,485.41086,126.25052,485.39346,126.0069Z"/>
        <path class="cls-3" d="M463.62821,138.58688a9.7888,9.7888,0,0,0-1.28646-3.82458,9.45134,9.45134,0,0,0-2.78133-3.09456,6.27932,6.27932,0,0,0-3.54658-1.18205,5.09339,5.09339,0,0,0-2.48634.643,5.62313,5.62313,0,0,0-2.57293,5.51129l4.31142-2.48613a1.373,1.373,0,0,1,.74785-.19121c1.07764,0,2.41631.97344,3.32036,2.53812.95625,1.65148,1.09547,3.40737.43462,4.31142a1.372,1.372,0,0,1-.43462.39982,1.20288,1.20288,0,0,1-.539.15661l-3.842,2.22532a6.1372,6.1372,0,0,0,3.63359,1.28646,4.87738,4.87738,0,0,0,2.48592-.66085,5.4149,5.4149,0,0,0,2.59032-4.885C463.663,139.09111,463.64561,138.83051,463.62821,138.58688Z"/>
        <path class="cls-3" d="M434.22189,155.58337a9.78892,9.78892,0,0,0-1.28647-3.82459,9.45151,9.45151,0,0,0-2.78132-3.09456,6.27935,6.27935,0,0,0-3.54658-1.18205,5.09336,5.09336,0,0,0-2.48634.643,5.62315,5.62315,0,0,0-2.57293,5.51129l4.31141-2.48613a1.373,1.373,0,0,1,.74786-.1912c1.07764,0,2.41631.97344,3.32036,2.53812.95625,1.65148,1.09546,3.40737.43462,4.31141a1.372,1.372,0,0,1-.43462.39982,1.20293,1.20293,0,0,1-.539.15662l-3.842,2.22531a6.13725,6.13725,0,0,0,3.63359,1.28647,4.87745,4.87745,0,0,0,2.48592-.66085,5.41489,5.41489,0,0,0,2.59033-4.885C434.25669,156.0876,434.23929,155.827,434.22189,155.58337Z"/>
        <path class="cls-3" d="M136.85667,327.29876a9.7888,9.7888,0,0,0-1.28646-3.82458,9.45134,9.45134,0,0,0-2.78133-3.09456,6.27932,6.27932,0,0,0-3.54658-1.18205,5.09339,5.09339,0,0,0-2.48634.643,5.62313,5.62313,0,0,0-2.57293,5.51129l4.31142-2.48613a1.373,1.373,0,0,1,.74785-.19121c1.07764,0,2.41631.97344,3.32036,2.53812.95625,1.65148,1.09547,3.40737.43462,4.31142a1.372,1.372,0,0,1-.43462.39982,1.20288,1.20288,0,0,1-.539.15661l-3.842,2.22532a6.1372,6.1372,0,0,0,3.63359,1.28646,4.87738,4.87738,0,0,0,2.48592-.66085,5.4149,5.4149,0,0,0,2.59032-4.885C136.89147,327.803,136.87407,327.54239,136.85667,327.29876Z"/>
        <circle class="cls-23" cx="124.02144" cy="329.46411" r="8.234"/>
      </g>
      <path class="cls-24" d="M132.033,335.69626a19.92874,19.92874,0,0,0,11.42963,1.44257c11.16034-2.00027,13.09391-14.77912,13.09391-14.77912s6.35663,3.90551,11.24955,1.874c8.95527-3.71823,10.28871-15.38865,10.28871-15.38865-6.78459,60.16052-19.56243,121-36.84114,182.3495,8.85812,40.90167,14.23874,87.7954,17.75477,137.902,1.18363,13.2421-11.818,19.03089-21.08378,15.75737,1.16514,9.26576-15.75737,11.4851-15.75737,5.32645V498.26615Z"/>
      <path class="cls-25" d="M132.31044,497.85925,168.643,323.82061c-.278.13879-.54243.29074-.837.413-4.89289,2.03177-11.2492-1.87377-11.2492-1.87377s-.01146.3455-.09168.906Z"/>
      <circle class="cls-3" cx="133.87199" cy="334.15478" r="2.77418"/>
      <path class="cls-3" d="M159.08771,314.45118a9.78889,9.78889,0,0,0-1.28646-3.82459,9.45144,9.45144,0,0,0-2.78133-3.09456,6.27932,6.27932,0,0,0-3.54658-1.18205,5.09339,5.09339,0,0,0-2.48634.643,5.62314,5.62314,0,0,0-2.57293,5.51129l4.31142-2.48613a1.373,1.373,0,0,1,.74785-.19121c1.07764,0,2.41631.97345,3.32036,2.53813.95625,1.65148,1.09547,3.40736.43462,4.31141a1.37191,1.37191,0,0,1-.43462.39982,1.20289,1.20289,0,0,1-.539.15662l-3.842,2.22531a6.1372,6.1372,0,0,0,3.63359,1.28646,4.87741,4.87741,0,0,0,2.48591-.66084,5.41489,5.41489,0,0,0,2.59033-4.885C159.12251,314.95541,159.10511,314.6948,159.08771,314.45118Z"/>
      <circle class="cls-3" cx="156.10303" cy="321.30719" r="2.77418"/>
      <path class="cls-3" d="M180.50108,302.084a9.78863,9.78863,0,0,0-1.28646-3.82458,9.45131,9.45131,0,0,0-2.78132-3.09456,6.27935,6.27935,0,0,0-3.54658-1.18205,5.09343,5.09343,0,0,0-2.48635.643,5.62312,5.62312,0,0,0-2.57292,5.51129l4.31141-2.48613a1.373,1.373,0,0,1,.74786-.19121c1.07764,0,2.41631.97344,3.32035,2.53813.95626,1.65147,1.09547,3.40736.43462,4.31141a1.37191,1.37191,0,0,1-.43462.39982,1.20284,1.20284,0,0,1-.539.15661l-3.842,2.22532a6.1372,6.1372,0,0,0,3.63359,1.28646,4.87745,4.87745,0,0,0,2.48592-.66084,5.4149,5.4149,0,0,0,2.59033-4.885C180.53589,302.58821,180.51849,302.32761,180.50108,302.084Z"/>
      <circle class="cls-3" cx="177.3493" cy="308.47002" r="2.77418"/>
      <path class="cls-26" d="M486.10712,434.21938V285.68477l-5.66186-151.65013c.6047,16.19651-12.85655,18.464-20.23583,14.58008.22194,15.42445-18.53922,18.85258-28.97222,14.89479C439.14635,209.13492,448.50459,256.381,465.678,293.49c-7.86065,62.45651-10.5556,105.83033-10.5556,160.53723,0,7.36078,19.41927,3.95779,19.41927-10.209C481.36615,447.48014,486.108,441.21049,486.10712,434.21938Z"/>
      <circle class="cls-3" cx="480.80468" cy="133.92364" r="2.77418"/>
      <circle class="cls-3" cx="431.23721" cy="162.43938" r="2.77418"/>
      <path class="cls-25" d="M482.59087,443.26137,477.3023,298.2661l-2.76063,145.55213C477.79836,445.56574,480.57184,445.03636,482.59087,443.26137Z"/>
      <path class="cls-25" d="M471.50319,149.59258a15.09887,15.09887,0,0,1-11.29378-.97787l17.09289,147.613Z"/>
      <circle class="cls-3" cx="460.07229" cy="146.57391" r="2.77418"/>
      <path class="cls-25" d="M131.63648,501.33622l6.2882,143.51771,3.1562.73151a17.35,17.35,0,0,0,7.64578-.71506Z"/>
      <path class="cls-27" d="M121.00946,497.53574c6.37327,4.74373,19.02354,2.025,22.602-5.95976"/>
      <path class="cls-27" d="M463.65051,294.30833c6.37328,4.74373,21.23174,2.58924,24.7664-6.25115"/>
    </g>
    <g>
      <path class="cls-28" d="M830.6496,649.33664l-87.48348,50.50415a18.2244,18.2244,0,0,1-18.24378,0L601.61769,628.61923l131.04106-79.60681,88.92164,25.78715Z"/>
      <path class="cls-29" d="M732.65875,549.01242,601.61769,628.61923l-108.56932-62.7136a6.076,6.076,0,0,1,.018-10.52536l87.43037-50.48658Z"/>
      <g>
        <g>
          <path class="cls-30" d="M475.30714,476.59215l2.85268,11.06053,20.59678,79.81254a.42467.42467,0,0,0,.11327.01024c.12357.01031.24715.01031.36048.01031a11.70186,11.70186,0,0,0,5.87-1.57562L507.088,564.767l.587-.33986,83.81863-48.44368.89595-.51492a6.16323,6.16323,0,0,0,3.08952-5.34486V447.84937c.02061-6.40557-2.89385-14.51046-7.68256-20.33932-3.038-3.7074-6.82784-6.488-11.1017-7.34276a7.7083,7.7083,0,0,0-5.12858.8033h-.01031c-.0824.04117-.14419.103-.22659.15444v-.02055l-96.01189,55.48767Z"/>
          <path class="cls-31" d="M590.38039,444.28853v.02313c.09277-.058.16235-.12754.25507-.17386h.01163a8.31982,8.31982,0,0,1,4.36751-1.04053,25.69324,25.69324,0,0,1,.46451,4.75207v62.27435a6.16323,6.16323,0,0,1-3.08952,5.34486l-.89595.51492L507.675,564.42715l-.587.33986-1.98759,1.14311a11.70186,11.70186,0,0,1-5.87,1.57562c-.11333,0-.23691,0-.36048-.01031a.42467.42467,0,0,1-.11327-.01024l-15.77054-61.11081Z"/>
          <path class="cls-32" d="M478.04655,503.50186v50.0296c0,.13389,0,.27808.01031.412a6.198,6.198,0,0,0,3.07921,4.94322l8.48586,4.88143,3.71771,2.14208.06178.03086a11.65211,11.65211,0,0,0,5.35518,1.52421.42467.42467,0,0,0,.11327.01024c.12357.01031.24715.01031.36048.01031V503.471c.03086-7.63114-4.10911-17.67207-10.62795-23.40822a21.00419,21.00419,0,0,0-2.36868-1.82284,16.37526,16.37526,0,0,0-5.78769-2.451,7.70869,7.70869,0,0,0-5.12858.80324h-.01031c-2.82175,1.63748-3.91337,5.01538-4.06788,8.13576C470.87885,490.5877,473.79331,498.22909,478.04655,503.50186Z"/>
        </g>
        <g>
          <path class="cls-33" d="M506.90391,558.52436l209.45066,121.083,97.23252-62.83995-38.71034-22.3361-170.815-98.93782-93.90291,11.002a15.11467,15.11467,0,0,0-1.08774,1.63574,16.028,16.028,0,0,0-2.1506,8.0294Z"/>
          <polygon class="cls-34" points="612.633 567.966 610.095 569.915 610.095 597.684 704.102 650.199 704.102 614.48 612.633 567.966"/>
          <path class="cls-35" d="M509.07108,508.13116,716.37946,628.2094l58.49729-33.77813,31.18488-24.26907L596.52791,448.88827l-80.07512,52.50056-1.52784.88015-.00831.00831a15.92233,15.92233,0,0,0-4.75782,4.21813A15.11467,15.11467,0,0,0,509.07108,508.13116Z"/>
          <polygon class="cls-36" points="609.776 566.462 716.379 628.209 774.877 594.431 806.062 570.162 699.966 508.756 609.776 566.462"/>
          <path class="cls-37" d="M668.18068,534.08165l-51.54476,29.99174a11.33685,11.33685,0,0,0-5.67637,9.52485l-.40069,23.3734-4.61061-2.65926-.00037-21.47561a15.08421,15.08421,0,0,1,7.37874-12.96807l49.2706-29.277Z"/>
          <g>
            <path class="cls-38" d="M579.78817,403.79631l.50553-.57841c3.71422-4.25006,13.92591-9.59028,20.47206-10.38522,6.0509-.73479,9.06889.48289,14.00215,3.14216l69.332,40.10077a26.09358,26.09358,0,0,1,12.318,28.74715l-15.76621,65.19051Z"/>
            <path class="cls-39" d="M641.4182,487.99443l53.78458-37.27775a26.03731,26.03731,0,0,1,.70959,14.68445l-15.96768,68.41909-21.62314-.68774-24.80534-38.09832A26.03407,26.03407,0,0,1,641.4182,487.99443Z"/>
            <path class="cls-40" d="M658.32152,533.13253,674.08773,467.942a26.09353,26.09353,0,0,0-12.318-28.74715l-64.78247-37.53514a14.31327,14.31327,0,0,0-21.06418,9.02587l-14.91068,61.65226a5.42524,5.42524,0,0,0,2.55621,5.9712Z"/>
            <path class="cls-41" d="M658.32155,533.13248l-95.05177-54.99634a4.96071,4.96071,0,0,1-2.33677-5.46227l.75727-3.12443.16392-.69213,98.26108,56.87427Z"/>
          </g>
          <g>
            <path class="cls-42" d="M684.19065,464.05359l.50553-.57841c3.71422-4.25006,13.92591-9.59028,20.47207-10.38522,6.0509-.73479,9.06889.48289,14.00215,3.14216l76.22676,44.09849a26.09357,26.09357,0,0,1,12.318,28.74715l-15.76621,65.19052Z"/>
            <path class="cls-43" d="M767.91067,555.60864l37.43394-21.61173c.25237-.15626.80525-.43276.80525-.43276.17154-.07964.35018-.14042.5275-.20454l-14.51178,60.01461Z"/>
            <path class="cls-44" d="M770.1243,596.80912l15.76621-65.19052a26.09354,26.09354,0,0,0-12.318-28.74715l-71.67722-41.53287a14.31327,14.31327,0,0,0-21.06418,9.02587l-15.86376,65.593Z"/>
            <polygon class="cls-45" points="770.124 596.809 664.967 535.957 666.767 528.534 771.919 589.404 770.124 596.809"/>
          </g>
          <polygon class="cls-46" points="703.363 650.687 703.363 678.439 610.635 624.777 610.635 597.026 703.363 650.687"/>
          <polygon class="cls-47" points="610.635 597.026 610.635 624.777 506.925 564.765 506.925 537.014 610.635 597.026"/>
          <polygon class="cls-48" points="703.363 646.109 703.363 657.371 610.635 603.709 610.635 592.447 703.363 646.109"/>
          <polygon class="cls-49" points="610.635 592.447 610.635 603.709 506.925 543.697 506.925 532.435 610.635 592.447"/>
        </g>
        <g>
          <path class="cls-50" d="M704.10242,609.51058,721.239,696.151c.12358.01031.24715.01031.36042.01031a11.70166,11.70166,0,0,0,5.8701-1.57569l1.98758-1.1431,83.79016-48.37038a6.16751,6.16751,0,0,0,3.08952-5.35518V590.51123s2.68787-1.57569,2.73935-1.60655c5.46844-3.16161,5.45813-13.40853-.01031-22.89331-5.30364-9.18621-13.78956-14.26331-19.28887-11.70932,0,0-.47375.2369-.69.37079L705.02924,608.975Z"/>
          <polygon class="cls-51" points="718.624 654.476 719.671 646.296 816.339 590.542 816.339 598.118 718.624 654.476"/>
          <path class="cls-52" d="M700.41558,618.27452v63.93237a6.16748,6.16748,0,0,0,3.08952,5.35517l8.48586,4.88143,3.71771,2.14208.06179.03093a11.70451,11.70451,0,0,0,5.4685,1.53445c.12358.01031.24715.01031.36042.01031V644.453a6.82451,6.82451,0,0,0,2.73935-.85478c5.46844-3.16162,5.45819-13.40847-.01025-22.89331-5.3037-9.18615-13.79987-14.28386-19.29924-11.72988-.175.0824-.35011.16481-.52516.26777a4.527,4.527,0,0,0-.40166.26777C701.6514,611.148,700.41558,614.36108,700.41558,618.27452Z"/>
        </g>
      </g>
    </g>
    <g>
      <ellipse class="cls-11" cx="688.17002" cy="223.05296" rx="9.91662" ry="5.7164"/>
      <path class="cls-53" d="M698.08658,223.05539c-.00257,3.156-4.44124,5.71409-9.91677,5.71409-5.47682,0-9.91635-2.55939-9.91635-5.71666v53.52265c0,3.15716,4.43953,5.71644,9.91635,5.71644s9.91677-2.55928,9.91677-5.71644V223.05539Z"/>
      <path class="cls-54" d="M698.08658,229.54976c-.00257,3.156-4.44124,5.71409-9.91677,5.71409-5.47682,0-9.91635-2.55939-9.91635-5.71666V233.467c0,3.15716,4.43953,5.71644,9.91635,5.71644s9.91677-2.55928,9.91677-5.71644Z"/>
      <path class="cls-55" d="M698.08658,264.70894c-.00257,3.156-4.44124,5.71408-9.91677,5.71408-5.47682,0-9.91635-2.55938-9.91635-5.71665v3.91978c0,3.15716,4.43953,5.71644,9.91635,5.71644s9.91677-2.55928,9.91677-5.71644Z"/>
      <path class="cls-56" d="M688.17,218.65234c5.06867,0,8.601,2.3191,8.601,4.40064s-3.53228,4.40063-8.601,4.40063-8.601-2.31909-8.601-4.40063,3.53229-4.40064,8.601-4.40064m0-1.31567c-5.4768,0-9.91662,2.55933-9.91662,5.71631s4.43982,5.71631,9.91662,5.71631,9.91663-2.55933,9.91663-5.71631-4.43982-5.71631-9.91663-5.71631Z"/>
    </g>
    <g>
      <g>
        <path class="cls-28" d="M479.01456,820.46142l-55.87229,32.26025a13.12077,13.12077,0,0,1-13.13871,0l-103.62185-59.8542L375.37557,753.029l103.639,59.83674A4.3804,4.3804,0,0,1,479.01456,820.46142Z"/>
        <path class="cls-29" d="M375.37557,753.029l-68.99386,39.83852-68.99387-39.85608L215.4069,740.3108a4.366,4.366,0,0,1,0-7.57827L271.24407,700.49a13.12237,13.12237,0,0,1,13.13957,0l21.98008,12.70058Z"/>
        <g>
          <path class="cls-57" d="M407.42637,832.94228l1.76751,13.14762c0,1.62291,2.28923,2.93852,5.1131,2.93852s5.113-1.31561,5.113-2.93852l1.77491-13.14762Z"/>
          <path class="cls-58" d="M461.52408,801.56745l1.76751,13.14762c0,1.62291,2.28924,2.93852,5.11311,2.93852s5.113-1.31561,5.113-2.93852l1.77491-13.14762Z"/>
          <path class="cls-59" d="M219.08837,724.21372l1.7675,13.14761c0,1.62292,2.28924,2.93853,5.11311,2.93853s5.113-1.31561,5.113-2.93853l1.77491-13.14761Z"/>
          <g>
            <path class="cls-60" d="M477.709,747.13055v56.4271h-.017a4.224,4.224,0,0,1-2.11616,3.48138l-54.41333,31.4176a12.71061,12.71061,0,0,1-6.85183,1.698V727.9404Z"/>
            <polygon class="cls-61" points="278.164 755.708 314.571 734.692 278.164 713.673 278.164 755.708"/>
            <polygon class="cls-62" points="278.164 732.531 314.571 711.515 352.855 733.617 352.855 775.651 278.164 732.531"/>
            <polygon class="cls-63" points="352.855 775.651 352.855 737.093 344.885 732.491 311.488 751.769 352.855 775.651"/>
            <path class="cls-64" d="M311.36344,732.85534V696.77089l-94.658-28.64644v56.85443h.03512a4.194,4.194,0,0,0,2.10456,3.99969l92.51832,53.45123v-7.54315L278.15562,755.713V739.90737l33.20782,19.17368v-7.36777l-33.20782-19.17369V713.68166Z"/>
            <path class="cls-65" d="M414.31889,727.94353V840.16145a12.71094,12.71094,0,0,1-5.9642-1.70165l-96.99125-56.03v-7.54315l41.48728,23.94523v-15.8056l-41.48728-23.94523v-7.36777l41.48728,23.94523V756.80058l-41.48728-23.94524V696.77089Z"/>
            <polygon class="cls-66" points="352.855 783.022 291.855 747.805 278.164 755.707 352.855 798.828 352.855 783.022"/>
            <polygon class="cls-67" points="325.127 767.014 311.488 774.887 352.855 798.769 352.855 783.022 325.127 767.014"/>
            <path class="cls-68" d="M481.20734,743.10007v7.03447a4.3513,4.3513,0,0,1-2.19278,3.80664l-55.87229,32.26025a13.1213,13.1213,0,0,1-13.13871,0l-99.69283-57.59129V691.98188l154.67,46.25895Z"/>
            <path class="cls-69" d="M310.31073,691.98188v36.62826L215.4069,673.79056a4.321,4.321,0,0,1-2.17479-4.0347h-.018v-6.824Z"/>
            <path class="cls-70" d="M479.01456,746.92427l-55.87229,32.26025a13.12125,13.12125,0,0,1-13.13871,0l-99.58748-57.53861,68.97674-39.83852L479.01456,739.346A4.36534,4.36534,0,0,1,479.01456,746.92427Z"/>
            <path class="cls-71" d="M379.39282,681.80739l-68.97674,39.83852-68.99386-39.83852L215.4069,666.77366a4.366,4.366,0,0,1,0-7.57827l55.83717-32.2427a13.1229,13.1229,0,0,1,13.13957,0L310.399,641.96887Z"/>
          </g>
        </g>
      </g>
      <g>
        <path class="cls-72" d="M383.00577,709.38378,357.465,724.11933a10.5777,10.5777,0,0,1-10.61359,0L326.48507,712.366V693.22742l56.5207,10.03413A3.53858,3.53858,0,0,1,383.00577,709.38378Z"/>
        <path class="cls-73" d="M326.48507,693.22742V712.366l-28.89248-16.68271a3.51514,3.51514,0,0,1-1.77136-3.05234v-4.84168Z"/>
        <g>
          <path class="cls-74" d="M383.00577,704.66491,357.465,719.40045a10.62007,10.62007,0,0,1-10.61359,0l-26.017-15.00684,36.15437-20.87534,26.017,15.0244A3.53858,3.53858,0,0,1,383.00577,704.66491Z"/>
          <path class="cls-75" d="M356.98876,683.51827l-36.15437,20.87534-23.2418-13.42921a3.52579,3.52579,0,0,1,0-6.12223l25.54164-14.753a10.61849,10.61849,0,0,1,10.61272,0Z"/>
        </g>
        <g>
          <path class="cls-76" d="M440.246,620.11128V731.85542a5.21473,5.21473,0,0,1-2.47288,4.43824h-.018l-7.034,4.06982-129.041-162.66939,40.32922-23.29618,90.44888,52.22336A15.57965,15.57965,0,0,1,440.246,620.11128Z"/>
          <path class="cls-77" d="M342.00929,554.39791l-40.32922,23.29618-51.92528-65.46775,7.01691-4.05225v.01745a5.1357,5.1357,0,0,1,5.19244,0Z"/>
          <g>
            <path class="cls-78" d="M433.33528,624.11086V735.85511a5.1903,5.1903,0,0,1-7.78951,4.49081l-90.51741-52.25837V558.36248l90.51741,52.25837A15.56025,15.56025,0,0,1,433.33528,624.11086Z"/>
            <path class="cls-79" d="M335.02836,558.36248V688.08755L255.05259,641.9163a15.59674,15.59674,0,0,1-7.80579-13.49V516.682a5.20687,5.20687,0,0,1,7.80579-4.50837Z"/>
          </g>
          <g>
            <g>
              <path class="cls-80" d="M414.98529,696.94638v.649a2.35963,2.35963,0,0,1-3.54357,2.03486l-75.9748-43.85567V651.0383Z"/>
              <path class="cls-81" d="M335.46692,641.7058v14.06882l-12.17509-7.03435-54.15232-31.26033a7.05009,7.05009,0,0,1-3.52644-6.12234v-5.89418a2.35208,2.35208,0,0,1,3.52644-2.05242l.54391.31575,53.60841,30.94458Z"/>
            </g>
            <path class="cls-82" d="M414.98529,691.70126v5.24512L335.46692,651.0383v-9.3325l75.9748,43.85566A7.0941,7.0941,0,0,1,414.98529,691.70126Z"/>
            <path class="cls-83" d="M335.46692,641.7058v9.3325l-12.17509-7.01691-50.06569-28.90972a7.07209,7.07209,0,0,1-3.54272-6.1398v-5.24512l53.60841,30.94458Z"/>
          </g>
        </g>
        <g>
          <g>
            <path class="cls-84" d="M350.99114,674.56243v12.77082a1.83465,1.83465,0,0,1-2.75383,1.5963l-13.20895-7.61339v-20.0508l12.41921,7.15728A7.0941,7.0941,0,0,1,350.99114,674.56243Z"/>
            <path class="cls-85" d="M335.02836,661.26536v20.0508l-9.26279-5.35037A7.07285,7.07285,0,0,1,322.222,669.826V657.05528a1.83718,1.83718,0,0,1,2.75383-1.5964Z"/>
          </g>
          <g>
            <path class="cls-86" d="M347.66642,695.3905v4.57759a1.151,1.151,0,0,1-.58989,1.0146l-6.32365,3.64558-.61351.35392a.57453.57453,0,0,1-.0826.03543,3.51264,3.51264,0,0,1-1.67527.43651v-3.69274l5.65115-27.14694v18.67607Z"/>
            <polygon class="cls-87" points="344.027 674.615 338.378 701.753 329.379 696.596 335.028 669.458 344.027 674.615"/>
            <polygon class="cls-88" points="335.028 669.458 329.379 696.596 321.363 691.999 327.011 664.862 335.028 669.458"/>
            <path class="cls-89" d="M338.37835,701.75294v3.70139a3.5045,3.5045,0,0,1-1.666-.421l-.8951-.50868-6.43787-3.68394v-4.2452Z"/>
            <path class="cls-90" d="M329.37938,696.59551v4.2452L321.9419,696.578a1.17529,1.17529,0,0,1-.579-1.01748v-3.561Z"/>
          </g>
        </g>
      </g>
    </g>
    <g>
      <g>
        <path class="cls-91" d="M167.63719,650.475l-55.451.13225,7.01874,43.4045c.59475,6.30027,9.64571,11.30754,20.75637,11.30754,11.11121,0,20.16162-5.00727,20.75636-11.30754Z"/>
        <ellipse class="cls-92" cx="139.8973" cy="648.52411" rx="27.94426" ry="16.05992"/>
        <path class="cls-93" d="M164.1416,656.50309c-4.82258,4.84517-13.885,8.07533-24.24871,8.07533s-19.42558-3.23016-24.24871-8.07533c3.0734-6.01166,12.76346-10.4083,24.24871-10.4083S161.06821,650.49143,164.1416,656.50309Z"/>
        <path class="cls-56" d="M139.89735,636.282c14.218,0,24.1266,6.45181,24.1266,12.24214,0,5.79039-9.90858,12.24221-24.1266,12.24221s-24.1266-6.45182-24.1266-12.24221c0-5.79033,9.90858-12.24214,24.1266-12.24214m0-3.81774c-15.43317,0-27.94428,7.19023-27.94428,16.05988s12.51111,16.06,27.94428,16.06,27.94429-7.19029,27.94429-16.06-12.51111-16.05988-27.94429-16.05988Z"/>
      </g>
      <path class="cls-94" d="M130.89957,611.1704c-13.1008-2.01665-38.88564-10.51732-33.48925-20.24212S127.90245,592.43673,130.89957,611.1704Z"/>
      <path class="cls-93" d="M136.64968,652.11707a1.03142,1.03142,0,0,1-1.03186-1.03152c0-27.8457-5.067-45.99941-16.9433-60.70213a1.03178,1.03178,0,0,1,1.60556-1.29631c12.197,15.10024,17.40145,33.64136,17.40145,61.99844A1.03142,1.03142,0,0,1,136.64968,652.11707Z"/>
      <path class="cls-93" d="M141.27738,652.11707a1.03142,1.03142,0,0,1-1.03186-1.03152c0-26.22666,0-62.146,13.174-78.45562a1.03178,1.03178,0,0,1,1.60557,1.29631c-12.71582,15.743-12.71582,51.23988-12.71582,77.15931A1.03142,1.03142,0,0,1,141.27738,652.11707Z"/>
      <path class="cls-93" d="M141.76248,623.96346a1.03187,1.03187,0,0,1-1.02748-.9473c-1.71134-20.97405-6.25718-35.2294-14.30622-44.86142a1.03174,1.03174,0,1,1,1.58333-1.32326c8.33572,9.975,13.03181,24.59751,14.77987,46.01624a1.03179,1.03179,0,0,1-.94461,1.11238C141.81874,623.96279,141.79044,623.96346,141.76248,623.96346Z"/>
      <path class="cls-95" d="M137.24745,596.80493c-12.41352-9.28869-32.56113-33.74366-21.641-40.81312S144.4596,575.81885,137.24745,596.80493Z"/>
      <path class="cls-96" d="M141.76353,633.80561c10.38639-1.3708,30.34428-9.12321,26.24544-16.89938S144.45031,619.05343,141.76353,633.80561Z"/>
      <path class="cls-93" d="M141.31948,640.3654c-.02459,0-.04952-.00067-.07445-.00269a1.03133,1.03133,0,0,1-.95572-1.10227c1.28418-17.96842,9.29178-36.9367,22.112-38.42435a1.03166,1.03166,0,1,1,.23783,2.04956c-11.70517,1.3583-19.068,19.40083-20.29153,36.52167A1.03145,1.03145,0,0,1,141.31948,640.3654Z"/>
      <path class="cls-93" d="M136.21477,638.71739a1.03256,1.03256,0,0,1-1.02378-.915c-1.33639-11.66475-12.07136-19.94994-17.52138-21.79267a1.032,1.032,0,0,1,.66095-1.95524c5.88258,1.98961,17.46884,10.929,18.91067,23.51344a1.03149,1.03149,0,0,1-.90755,1.142A1.01418,1.01418,0,0,1,136.21477,638.71739Z"/>
      <path class="cls-97" d="M130.89957,624.48183c-10.96146-.11709-33.43358-3.70671-30.1543-12.3S126.25247,609.49589,130.89957,624.48183Z"/>
      <path class="cls-98" d="M126.94844,600.83294c-9.23059-7.47943-24.46609-26.44254-15.89544-31.53289S133.09125,584.97685,126.94844,600.83294Z"/>
      <path class="cls-99" d="M147.74985,613.41538c17.08455-4.57708,48.78844-21.93977,40.21852-34.05555S149.00535,588.13124,147.74985,613.41538Z"/>
      <path class="cls-100" d="M145.39014,592.91872c11.6192-8.69432,31.08358-29.13672,20.86224-35.75382S138.63949,573.27551,145.39014,592.91872Z"/>
    </g>
    <g>
      <g>
        <path class="cls-101" d="M871.21938,692.44235c-2.62967-6.41617-12.6044-11.19642-24.53837-11.19642s-21.90869,4.78025-24.53826,11.19642h-.70019v3.35219c0,8.035,11.2996,14.5486,25.23845,14.5486s25.23856-6.51362,25.23856-14.5486v-3.35219Z"/>
        <ellipse class="cls-102" cx="846.68106" cy="691.94859" rx="25.23852" ry="14.54865"/>
      </g>
      <path class="cls-103" d="M843.37405,480.66915V688.93046c0,1.05283,1.48059,1.90631,3.307,1.90631s3.307-.85348,3.307-1.90631V480.66915Z"/>
      <g>
        <path class="cls-104" d="M880.29225,467.14808h.00176l-.00544-.02755a11.6071,11.6071,0,0,0-.31192-1.58928l-6.785-34.56018H820.16545l-6.78691,34.58275a11.60016,11.60016,0,0,0-.29975,1.52788l-.01313.06638h.00416a11.34241,11.34241,0,0,0-.09991,1.42115c0,10.70013,15.09306,19.37424,33.71105,19.37424,18.6183,0,33.71137-8.67411,33.71137-19.37424A11.31044,11.31044,0,0,0,880.29225,467.14808Z"/>
        <ellipse class="cls-92" cx="846.68106" cy="432.27773" rx="26.61256" ry="15.29457"/>
        <path class="cls-105" d="M836.76443,446.46335a44.8942,44.8942,0,0,0,19.83315,0v-7.80377H836.76443Z"/>
        <ellipse class="cls-106" cx="846.68106" cy="438.65964" rx="9.91662" ry="5.7164"/>
        <path class="cls-56" d="M846.68105,418.29485c13.95094,0,25.30074,6.27266,25.30074,13.98284s-11.3498,13.983-25.30074,13.983-25.30073-6.27277-25.30073-13.983,11.34979-13.98284,25.30073-13.98284m0-1.31171c-14.69764,0-26.61255,6.84763-26.61255,15.29455,0,8.447,11.91491,15.29467,26.61255,15.29467s26.61255-6.84763,26.61255-15.29467c0-8.44692-11.9149-15.29455-26.61255-15.29455Z"/>
      </g>
    </g>
    <g>
      <circle class="cls-107" cx="799.66039" cy="352.56064" r="49.65331"/>
      <g>
        <rect class="cls-11" x="795.61884" y="324.97486" width="10.77746" height="55.17155" transform="translate(-14.68833 669.66051) rotate(-45)"/>
        <rect class="cls-11" x="795.61884" y="324.97486" width="10.77746" height="55.17155" transform="translate(1118.10744 1168.25654) rotate(-135)"/>
      </g>
    </g>
  </g>
</svg>
