<svg id="Layer_1" data-name="Layer 1" xmlns="http://www.w3.org/2000/svg" xmlns:xlink="http://www.w3.org/1999/xlink" viewBox="0 0 1000 1000">
  <defs>
    <style>
      .cls-1 {
        fill: url(#linear-gradient);
      }

      .cls-2 {
        fill: #b8cbd8;
      }

      .cls-21, .cls-3 {
        fill: #fff;
      }

      .cls-4 {
        fill: url(#linear-gradient-2);
      }

      .cls-5 {
        fill: url(#linear-gradient-3);
      }

      .cls-6 {
        fill: url(#linear-gradient-4);
      }

      .cls-7 {
        fill: url(#linear-gradient-5);
      }

      .cls-8 {
        fill: url(#linear-gradient-6);
      }

      .cls-9 {
        fill: url(#linear-gradient-7);
      }

      .cls-10 {
        fill: url(#linear-gradient-8);
      }

      .cls-11, .cls-61 {
        fill: #2a3f5e;
      }

      .cls-11, .cls-60 {
        opacity: 0.2;
      }

      .cls-12 {
        fill: url(#linear-gradient-9);
      }

      .cls-13 {
        fill: url(#linear-gradient-10);
      }

      .cls-14 {
        fill: url(#linear-gradient-11);
      }

      .cls-15 {
        fill: url(#linear-gradient-12);
      }

      .cls-16 {
        fill: url(#linear-gradient-13);
      }

      .cls-17 {
        fill: url(#linear-gradient-14);
      }

      .cls-18 {
        fill: url(#linear-gradient-15);
      }

      .cls-19 {
        fill: url(#linear-gradient-16);
      }

      .cls-20 {
        fill: url(#linear-gradient-17);
      }

      .cls-21, .cls-43, .cls-46, .cls-56, .cls-75 {
        opacity: 0.5;
      }

      .cls-22 {
        fill: url(#linear-gradient-18);
      }

      .cls-23 {
        fill: url(#linear-gradient-19);
      }

      .cls-24 {
        fill: url(#linear-gradient-20);
      }

      .cls-25 {
        fill: #e58630;
      }

      .cls-26 {
        fill: #724133;
      }

      .cls-27 {
        fill: #ffcb48;
      }

      .cls-28 {
        fill: url(#linear-gradient-21);
      }

      .cls-29 {
        fill: url(#linear-gradient-22);
      }

      .cls-30 {
        fill: url(#linear-gradient-23);
      }

      .cls-31 {
        fill: url(#linear-gradient-24);
      }

      .cls-32 {
        fill: url(#linear-gradient-25);
      }

      .cls-33 {
        fill: url(#linear-gradient-26);
      }

      .cls-34 {
        fill: url(#linear-gradient-27);
      }

      .cls-35 {
        fill: url(#linear-gradient-28);
      }

      .cls-36 {
        fill: url(#linear-gradient-29);
      }

      .cls-37 {
        fill: url(#linear-gradient-30);
      }

      .cls-38 {
        fill: #34a521;
      }

      .cls-39, .cls-46 {
        fill: #424a51;
      }

      .cls-40, .cls-52 {
        fill: #333a3d;
      }

      .cls-41 {
        fill: #57646d;
      }

      .cls-42 {
        fill: #abbec9;
      }

      .cls-43 {
        fill: #cfdfe8;
      }

      .cls-44 {
        fill: #a2b8cc;
      }

      .cls-45, .cls-55, .cls-70 {
        fill: none;
        stroke-linecap: round;
      }

      .cls-45 {
        stroke: #c93f53;
        stroke-width: 3.63477px;
      }

      .cls-45, .cls-52, .cls-55, .cls-70 {
        stroke-miterlimit: 10;
      }

      .cls-47 {
        fill: url(#linear-gradient-31);
      }

      .cls-48 {
        fill: url(#linear-gradient-32);
      }

      .cls-49 {
        fill: url(#linear-gradient-33);
      }

      .cls-50 {
        fill: url(#linear-gradient-34);
      }

      .cls-51 {
        fill: url(#linear-gradient-35);
      }

      .cls-52 {
        font-size: 41.98214px;
        stroke: #333a3d;
        stroke-width: 1.55412px;
        font-family: AvenirLTStd-Black, Avenir LT Std;
        font-weight: 800;
      }

      .cls-53 {
        fill: #445263;
      }

      .cls-54 {
        fill: #626f82;
      }

      .cls-55 {
        stroke: #74899e;
        stroke-width: 9.60564px;
      }

      .cls-56 {
        fill: #93a1b2;
      }

      .cls-57 {
        fill: #baccdd;
      }

      .cls-58 {
        fill: #425260;
      }

      .cls-59 {
        fill: url(#linear-gradient-36);
      }

      .cls-62 {
        fill: #86a1b7;
      }

      .cls-63 {
        fill: #74899e;
      }

      .cls-64 {
        fill: #303d49;
      }

      .cls-65 {
        fill: #e5907c;
      }

      .cls-66 {
        fill: #27343d;
      }

      .cls-67 {
        fill: #ffbea4;
      }

      .cls-68, .cls-75 {
        fill: #dd7b19;
      }

      .cls-69 {
        fill: #586d7f;
      }

      .cls-70 {
        stroke: #425260;
        stroke-width: 12.00705px;
      }

      .cls-71 {
        fill: url(#linear-gradient-37);
      }

      .cls-72 {
        fill: #b75c5a;
      }

      .cls-73 {
        fill: url(#linear-gradient-38);
      }

      .cls-74 {
        fill: url(#linear-gradient-39);
      }

      .cls-76 {
        fill: url(#linear-gradient-40);
      }

      .cls-77 {
        fill: #90a0af;
      }

      .cls-78 {
        fill: #ccd8e2;
      }

      .cls-79 {
        fill: #994a4a;
      }

      .cls-80 {
        fill: url(#linear-gradient-41);
      }

      .cls-81 {
        fill: url(#linear-gradient-42);
      }
    </style>
    <linearGradient id="linear-gradient" x1="481.7726" y1="393.55996" x2="903.05929" y2="393.55996" gradientUnits="userSpaceOnUse">
      <stop offset="0" stop-color="#f0f9ff"/>
      <stop offset="1" stop-color="#c3d6e6"/>
    </linearGradient>
    <linearGradient id="linear-gradient-2" x1="531.44547" y1="293.79009" x2="569.96728" y2="293.79009" gradientUnits="userSpaceOnUse">
      <stop offset="0" stop-color="#849bb2"/>
      <stop offset="1" stop-color="#5b6f82"/>
    </linearGradient>
    <linearGradient id="linear-gradient-3" x1="563.96027" y1="170.55047" x2="529.44182" y2="419.32137" gradientUnits="userSpaceOnUse">
      <stop offset="0" stop-color="#62778c"/>
      <stop offset="1" stop-color="#435466"/>
    </linearGradient>
    <linearGradient id="linear-gradient-4" x1="594.86598" y1="153.80842" x2="497.72833" y2="439.92298" xlink:href="#linear-gradient-2"/>
    <linearGradient id="linear-gradient-5" x1="823.22994" y1="466.82951" x2="861.75175" y2="466.82951" xlink:href="#linear-gradient-2"/>
    <linearGradient id="linear-gradient-6" x1="854.63478" y1="326.2351" x2="824.90554" y2="586.66328" xlink:href="#linear-gradient-3"/>
    <linearGradient id="linear-gradient-7" x1="887.73907" y1="330.38017" x2="790.52567" y2="603.46144" xlink:href="#linear-gradient-2"/>
    <linearGradient id="linear-gradient-8" x1="60.50214" y1="719.89267" x2="903.05929" y2="719.89267" gradientUnits="userSpaceOnUse">
      <stop offset="0" stop-color="#dae9f2"/>
      <stop offset="0.99337" stop-color="#c4d5e6"/>
    </linearGradient>
    <linearGradient id="linear-gradient-9" x1="-919.26707" y1="577.95713" x2="-794.29294" y2="660.24208" gradientTransform="translate(1162.29787)" gradientUnits="userSpaceOnUse">
      <stop offset="0" stop-color="#fff"/>
      <stop offset="0.94545" stop-color="#fff" stop-opacity="0"/>
    </linearGradient>
    <linearGradient id="linear-gradient-10" x1="72.81956" y1="478.81517" x2="469.47117" y2="478.81517" xlink:href="#linear-gradient-8"/>
    <linearGradient id="linear-gradient-11" x1="151.57179" y1="546.13688" x2="322.50237" y2="546.13688" gradientUnits="userSpaceOnUse">
      <stop offset="0.00005" stop-color="#ffb348"/>
      <stop offset="1" stop-color="#e68e2b"/>
    </linearGradient>
    <linearGradient id="linear-gradient-12" x1="157.99162" y1="304.43016" x2="157.99162" y2="623.94501" gradientUnits="userSpaceOnUse">
      <stop offset="0" stop-color="#5b6f82"/>
      <stop offset="1" stop-color="#849bb2"/>
    </linearGradient>
    <linearGradient id="linear-gradient-13" x1="364.45933" y1="202.00219" x2="364.45933" y2="514.16383" xlink:href="#linear-gradient-12"/>
    <linearGradient id="linear-gradient-14" x1="456.07211" y1="134.38817" x2="456.07211" y2="474.68614" xlink:href="#linear-gradient-12"/>
    <linearGradient id="linear-gradient-15" x1="72.81956" y1="407.96302" x2="469.47118" y2="407.96302" xlink:href="#linear-gradient-3"/>
    <linearGradient id="linear-gradient-16" x1="421.10256" y1="530.86888" x2="421.10256" y2="232.3575" xlink:href="#linear-gradient-3"/>
    <linearGradient id="linear-gradient-17" x1="1025.09997" y1="495.7829" x2="1107.88639" y2="495.7829" gradientTransform="matrix(-1, 0, 0, 1, 1487.59575, 0)" xlink:href="#linear-gradient-2"/>
    <linearGradient id="linear-gradient-18" x1="81.62503" y1="673.55887" x2="164.41144" y2="673.55887" xlink:href="#linear-gradient-3"/>
    <linearGradient id="linear-gradient-19" x1="1323.1843" y1="667.81346" x2="1405.97071" y2="667.81346" gradientTransform="matrix(-1, 0, 0, 1, 1487.59575, 0)" xlink:href="#linear-gradient-2"/>
    <linearGradient id="linear-gradient-20" x1="5935.18635" y1="652.34848" x2="5876.74772" y2="714.35379" gradientTransform="matrix(-1, 0, 0, 1, 6039.21293, 0)" gradientUnits="userSpaceOnUse">
      <stop offset="0.00005" stop-color="#ffcb48"/>
      <stop offset="1" stop-color="#e68e2b"/>
    </linearGradient>
    <linearGradient id="linear-gradient-21" x1="5859.99704" y1="585.68341" x2="5896.21253" y2="605.43732" gradientTransform="matrix(-1, 0, 0, 1, 6039.21293, 0)" gradientUnits="userSpaceOnUse">
      <stop offset="0" stop-color="#f2883c"/>
      <stop offset="0.16716" stop-color="#e97d35"/>
      <stop offset="0.67368" stop-color="#d26124"/>
      <stop offset="0.96784" stop-color="#c9571e"/>
    </linearGradient>
    <linearGradient id="linear-gradient-22" x1="5879.77242" y1="540.64987" x2="5904.64771" y2="588.38847" xlink:href="#linear-gradient-21"/>
    <linearGradient id="linear-gradient-23" x1="5939.37466" y1="616.79035" x2="5909.19508" y2="635.99553" xlink:href="#linear-gradient-21"/>
    <linearGradient id="linear-gradient-24" x1="5859.26435" y1="608.63513" x2="5899.32088" y2="625.27962" xlink:href="#linear-gradient-21"/>
    <linearGradient id="linear-gradient-25" x1="5873.92939" y1="558.83789" x2="5894.0491" y2="595.23629" xlink:href="#linear-gradient-21"/>
    <linearGradient id="linear-gradient-26" x1="5965.92753" y1="567.09031" x2="5915.26243" y2="612.63404" xlink:href="#linear-gradient-21"/>
    <linearGradient id="linear-gradient-27" x1="5937.70361" y1="542.67639" x2="5913.74286" y2="584.56198" xlink:href="#linear-gradient-21"/>
    <linearGradient id="linear-gradient-28" x1="671.05847" y1="151.65544" x2="893.78465" y2="456.5119" xlink:href="#linear-gradient"/>
    <linearGradient id="linear-gradient-29" x1="671.06346" y1="151.66091" x2="893.78471" y2="456.51063" xlink:href="#linear-gradient"/>
    <linearGradient id="linear-gradient-30" x1="599.9992" y1="447.1545" x2="964.98852" y2="447.1545" gradientUnits="userSpaceOnUse">
      <stop offset="0" stop-color="#96b1cc"/>
      <stop offset="1" stop-color="#748ea6"/>
    </linearGradient>
    <linearGradient id="linear-gradient-31" x1="-69.96118" y1="-2624.72164" x2="-32.53139" y2="-2624.72164" gradientTransform="translate(728.51875 1202.72249) scale(0.85898 0.42013)" xlink:href="#linear-gradient-2"/>
    <linearGradient id="linear-gradient-32" x1="-2414.53383" y1="576.18716" x2="-2377.10404" y2="576.18716" gradientTransform="matrix(0.85898, 0, 0, -0.42013, 2637.44262, 342.06931)" xlink:href="#linear-gradient-2"/>
    <linearGradient id="linear-gradient-33" x1="617.23978" y1="90.72919" x2="646.02626" y2="90.72919" xlink:href="#linear-gradient-2"/>
    <linearGradient id="linear-gradient-34" x1="603.88829" y1="102.05662" x2="645.27299" y2="213.18218" xlink:href="#linear-gradient-2"/>
    <linearGradient id="linear-gradient-35" x1="568.5921" y1="176.55593" x2="694.6839" y2="176.55593" xlink:href="#linear-gradient-2"/>
    <linearGradient id="linear-gradient-36" x1="344.96923" y1="664.46228" x2="717.27809" y2="664.46228" xlink:href="#linear-gradient-2"/>
    <linearGradient id="linear-gradient-37" x1="442.10545" y1="787.54882" x2="499.62203" y2="787.54882" gradientUnits="userSpaceOnUse">
      <stop offset="0" stop-color="#62788c"/>
      <stop offset="1" stop-color="#526575"/>
    </linearGradient>
    <linearGradient id="linear-gradient-38" x1="410.33821" y1="372.72792" x2="530.33821" y2="521.8343" gradientTransform="matrix(1, 0, 0, 1, 0, 0)" xlink:href="#linear-gradient-20"/>
    <linearGradient id="linear-gradient-39" x1="429.33135" y1="357.44235" x2="549.33135" y2="506.54873" gradientTransform="matrix(1, 0, 0, 1, 0, 0)" xlink:href="#linear-gradient-20"/>
    <linearGradient id="linear-gradient-40" x1="441.34256" y1="347.77579" x2="561.34256" y2="496.88217" gradientTransform="matrix(1, 0, 0, 1, 0, 0)" xlink:href="#linear-gradient-20"/>
    <linearGradient id="linear-gradient-41" x1="476.8507" y1="319.33683" x2="509.02091" y2="368.86874" gradientUnits="userSpaceOnUse">
      <stop offset="0.00005" stop-color="#c6c6c6"/>
      <stop offset="1" stop-color="#a9b0b3"/>
    </linearGradient>
    <linearGradient id="linear-gradient-42" x1="462.15501" y1="328.88145" x2="494.32522" y2="378.41336" xlink:href="#linear-gradient-41"/>
  </defs>
  <g>
    <polygon class="cls-1" points="481.773 67.227 903.059 310.448 903.059 719.893 481.773 476.649 481.773 67.227"/>
    <polygon class="cls-2" points="481.789 67.227 60.502 310.448 60.502 719.893 481.789 476.649 481.789 67.227"/>
  </g>
  <g>
    <g>
      <path class="cls-3" d="M523.08369,141.696l8.36178-4.82605L578.338,163.9127,569.96728,443.736l.00008,6.96969-46.88367-27.0576Z"/>
      <polygon class="cls-4" points="531.445 146.521 531.474 418.847 569.967 441.059 569.967 436.216 535.688 416.445 535.688 148.971 531.445 146.521"/>
      <polygon class="cls-5" points="523.084 141.696 523.088 423.652 569.967 450.706 569.967 441.059 531.445 418.83 531.445 146.521 523.084 141.696"/>
      <path class="cls-6" d="M578.338,163.9127,514.7094,127.18348V425.58692a5.02713,5.02713,0,0,0,2.51342,4.35368l61.1152,35.27271ZM523.08773,423.65181V141.69567l46.87963,27.05877V450.70572Z"/>
    </g>
    <g>
      <path class="cls-3" d="M814.86816,314.73537l8.36178-4.82606,46.89255,27.0428-8.37074,279.82333.00008,6.9697-46.88367-27.05761Z"/>
      <polygon class="cls-7" points="823.23 319.561 823.258 591.886 861.752 614.098 861.752 609.255 827.472 589.484 827.472 322.01 823.23 319.561"/>
      <polygon class="cls-8" points="814.868 314.735 814.872 596.691 861.752 623.745 861.752 614.098 823.23 591.87 823.23 319.561 814.868 314.735"/>
      <path class="cls-9" d="M814.8722,596.69122V314.73509l46.87963,27.05877V623.74514Zm-8.38-296.46723V601.53356l63.63,36.72021V336.954Z"/>
    </g>
  </g>
  <path class="cls-10" d="M67.77192,732.49667l392.21059,226.4329a43.6172,43.6172,0,0,0,43.61687-.00063l392.1905-226.4365a14.53906,14.53906,0,0,0,.00017-25.18216L503.58239,480.8567a43.61721,43.61721,0,0,0-43.61994.00054L67.77107,707.31448A14.53906,14.53906,0,0,0,67.77192,732.49667Z"/>
  <path class="cls-11" d="M318.64115,720.94332,595.61441,560.83638a21.85383,21.85383,0,0,1,21.87551,0l130.30734,75.33514a10.92692,10.92692,0,0,1,0,18.91972L470.824,815.19818a21.85383,21.85383,0,0,1-21.87551,0L318.64115,739.863A10.92692,10.92692,0,0,1,318.64115,720.94332Z"/>
  <polygon class="cls-12" points="111.625 681.919 256.095 812.7 620.271 600.197 423.96 501.661 111.625 681.919"/>
  <g>
    <polygon class="cls-3" points="72.82 341.346 469.471 111.363 469.471 475.614 72.82 704.563 72.82 341.346"/>
    <path class="cls-13" d="M466.78514,368.5111l2.686-4.65235v-6.20556L294.52586,256.64293a26.855,26.855,0,0,0-26.77539-.001L72.81956,369.15709v6.20313l2.68628,4.65381,9.59961-5.541V480.02477L72.8198,487.11656V704.56285L469.47117,475.61363h0L413.01487,443.017V337.4652ZM148.53807,443.41149,95.85154,473.82213V368.27037l52.68653-30.41064Zm63.43261-36.61377-52.68652,30.41064V331.6566L211.97068,301.246ZM275.4033,370.184l-52.68652,30.41113V295.04332L273.123,265.9486a15.83026,15.83026,0,0,1,2.28027-1.07618Zm63.43262,30.00341L286.14939,369.767V264.61119a15.92963,15.92963,0,0,1,3.00342,1.33838l49.68311,28.686Zm63.43286,36.62452L349.582,406.392V300.8402l52.68677,30.42041Z"/>
    <path class="cls-14" d="M153.38127,556.47082l103.3532-59.71518a7.24507,7.24507,0,0,1,7.25227,0l56.70615,32.77495a3.62254,3.62254,0,0,1,0,6.27235l-103.3532,59.71519a7.24512,7.24512,0,0,1-7.25227,0l-56.70615-32.775A3.62254,3.62254,0,0,1,153.38127,556.47082Z"/>
    <polygon class="cls-15" points="164.411 651.68 164.411 302.503 151.572 309.937 151.572 644.191 164.411 651.68"/>
    <polygon class="cls-16" points="370.875 532.525 370.883 182.97 358.036 190.408 358.036 525.035 370.875 532.525"/>
    <polygon class="cls-17" points="462.488 479.647 462.496 129.903 449.648 137.363 449.648 472.157 462.488 479.647"/>
    <polygon class="cls-18" points="469.471 111.363 469.471 475.614 462.472 479.648 462.472 129.938 379.709 177.863 379.709 527.426 370.877 532.519 370.877 182.968 173.234 297.406 173.234 646.612 164.414 651.693 164.414 302.498 81.652 350.436 81.652 699.47 81.455 699.581 72.82 704.563 72.82 341.024 469.471 111.363"/>
    <g>
      <polygon class="cls-19" points="379.709 527.426 379.709 521.107 462.496 475.63 462.496 479.632 379.709 527.426"/>
      <polygon class="cls-20" points="379.709 523.425 379.709 508.495 449.656 468.141 462.496 475.63 379.709 523.425"/>
      <polygon class="cls-21" points="455.793 471.687 455.785 133.823 379.709 177.876 379.709 515.582 455.793 471.687"/>
    </g>
    <g>
      <polygon class="cls-22" points="81.625 699.457 81.625 693.138 164.411 647.661 164.411 651.662 81.625 699.457"/>
      <polygon class="cls-23" points="81.625 695.456 81.625 680.526 151.572 640.171 164.411 647.661 81.625 695.456"/>
      <polygon class="cls-21" points="157.639 643.765 157.631 306.427 81.555 349.942 81.555 687.661 157.639 643.765"/>
    </g>
  </g>
  <g>
    <g>
      <path class="cls-24" d="M97.53,657.76224l67.9345.162-8.59886,53.17606c-.72863,7.71863-11.81722,13.85318-25.4292,13.85318-13.61265,0-24.70056-6.13455-25.4292-13.85318Z"/>
      <ellipse class="cls-25" cx="131.51493" cy="655.37222" rx="34.23529" ry="19.67545"/>
      <path class="cls-26" d="M101.81256,665.14749c5.90828,5.936,17.01095,9.89331,29.70777,9.89331s23.79882-3.95736,29.70777-9.89331c-3.7653-7.365-15.63687-12.7515-29.70777-12.7515S105.57786,657.78244,101.81256,665.14749Z"/>
      <path class="cls-27" d="M131.51487,640.374c17.41889,0,29.55817,7.90429,29.55817,14.99819,0,7.094-12.13928,14.99826-29.55817,14.99826s-29.55817-7.90429-29.55817-14.99826c0-7.0939,12.13927-14.99819,29.55817-14.99819m0-4.67722c-18.90761,0-34.23533,8.80895-34.23533,19.67541s15.32772,19.67548,34.23533,19.67548,34.23532-8.809,34.23532-19.67548-15.32771-19.67541-34.23532-19.67541Z"/>
    </g>
    <path class="cls-28" d="M142.5383,609.60915c16.05015-2.47065,47.63987-12.88506,41.02861-24.79918S146.21015,586.658,142.5383,609.60915Z"/>
    <path class="cls-26" d="M135.49368,659.77405a1.26361,1.26361,0,0,0,1.26416-1.26374c0-34.11454,6.20771-56.35515,20.75771-74.36786a1.26406,1.26406,0,0,0-1.967-1.58814c-14.94291,18.49972-21.319,41.215-21.319,75.956A1.26361,1.26361,0,0,0,135.49368,659.77405Z"/>
    <path class="cls-26" d="M129.82416,659.77405a1.26362,1.26362,0,0,0,1.26416-1.26374c0-32.131,0-76.13677-16.13979-96.11816a1.26406,1.26406,0,0,0-1.967,1.58815C128.56,583.26749,128.56,626.7557,128.56,658.51031A1.26362,1.26362,0,0,0,129.82416,659.77405Z"/>
    <path class="cls-26" d="M129.22985,625.28229a1.26419,1.26419,0,0,0,1.25879-1.16057c2.09661-25.69589,7.66585-43.16051,17.52694-54.961a1.264,1.264,0,1,0-1.93978-1.62116c-10.21232,12.22061-15.96562,30.13509-18.10722,56.37577a1.264,1.264,0,0,0,1.15726,1.3628C129.16092,625.28146,129.19559,625.28229,129.22985,625.28229Z"/>
    <path class="cls-29" d="M134.76133,592.00961c15.20815-11.37982,39.89155-41.34029,26.513-50.00128S125.92553,566.299,134.76133,592.00961Z"/>
    <path class="cls-30" d="M129.22856,637.34018c-12.72465-1.67941-37.17561-11.17711-32.154-20.7039S125.93691,619.26688,129.22856,637.34018Z"/>
    <path class="cls-26" d="M129.77257,645.37676c.03013,0,.06067-.00083.09121-.0033a1.26351,1.26351,0,0,0,1.17089-1.35042c-1.57329-22.01361-11.38362-45.25217-27.09006-47.07474a1.26391,1.26391,0,1,0-.29138,2.511c14.34034,1.66408,23.36073,23.76849,24.85972,44.74371A1.26367,1.26367,0,0,0,129.77257,645.37676Z"/>
    <path class="cls-26" d="M136.02651,643.35774a1.265,1.265,0,0,0,1.25425-1.12095c1.63726-14.29081,14.789-24.44122,21.46593-26.6988a1.26429,1.26429,0,0,0-.80975-2.39542c-7.2069,2.43752-21.40155,13.38943-23.168,28.807a1.26373,1.26373,0,0,0,1.11187,1.39912A1.2454,1.2454,0,0,0,136.02651,643.35774Z"/>
    <path class="cls-31" d="M142.5383,625.91735c13.42919-.14344,40.96041-4.54118,36.94287-15.0691S148.23159,607.55766,142.5383,625.91735Z"/>
    <path class="cls-32" d="M147.37894,596.94444c11.30865-9.16325,29.97408-32.39548,19.474-38.63181S139.85321,577.51871,147.37894,596.94444Z"/>
    <path class="cls-33" d="M121.89455,612.35954c-20.93075-5.60751-59.77207-26.879-49.27283-41.7224S120.35641,581.38324,121.89455,612.35954Z"/>
    <path class="cls-34" d="M124.7855,587.24851c-14.235-10.65165-38.08136-35.69621-25.55891-43.803S133.0559,563.18307,124.7855,587.24851Z"/>
  </g>
  <g>
    <g>
      <circle class="cls-35" cx="782.49382" cy="304.18258" r="201.18409"/>
      <path class="cls-36" d="M983.6843,304.19011a200.91576,200.91576,0,0,1-9.08692,59.93728c-1.308,4.21635-2.762,8.39642-4.36154,12.48553a199.06615,199.06615,0,0,1-21.80861,41.34548c-1.29027,1.90812-2.63512,3.78008-4.01635,5.63385A200.8546,200.8546,0,0,1,782.5,505.37452c-111.11465,0-201.18429-90.08762-201.18429-201.18441,0-111.11487,90.06964-201.18441,201.18429-201.18441C893.59691,103.0057,983.6843,193.07524,983.6843,304.19011Z"/>
      <path class="cls-37" d="M599.9992,388.9422a201.24178,201.24178,0,0,0,364.98932,0Z"/>
      <path class="cls-38" d="M782.49386,104.85031a199.33246,199.33246,0,1,1-140.94918,58.38312,198.02736,198.02736,0,0,1,140.94918-58.38312m0-18.17384c-120.12537,0-217.50614,97.38078-217.50614,217.50614s97.38077,217.506,217.50614,217.506C902.61911,521.68864,1000,424.308,1000,304.18261S902.61911,86.67647,782.49386,86.67647Z"/>
    </g>
    <g>
      <g>
        <g>
          <path class="cls-39" d="M650.84363,180.01145a7.313,7.313,0,0,0-7.266,6.48469l-3.297,28.91871h297.6472l10.563-35.4034Z"/>
          <path class="cls-40" d="M959.05393,215.41485H937.92781l3.297-28.91864a7.31315,7.31315,0,0,1,7.26608-6.48475h0a7.31315,7.31315,0,0,1,7.26608,6.48475Z"/>
        </g>
        <path class="cls-39" d="M926.58752,423.58855H628.9403a9.37679,9.37679,0,0,1-9.31978-10.40916l20.66011-197.76454H937.92781L917.26773,413.17942Z"/>
        <path class="cls-40" d="M974.1071,359.42043a196.65154,196.65154,0,0,1-31.96795,64.17182H926.58224a9.39235,9.39235,0,0,1-9.323-10.4138l20.66342-197.7676h21.1364Z"/>
        <path class="cls-41" d="M959.0591,215.41085H937.9227l-20.66342,197.7676a9.39235,9.39235,0,0,0,9.323,10.4138h15.55691c1.39943-1.85377,2.76246-3.72573,4.07093-5.63385H926.58224a3.73122,3.73122,0,0,1-2.78065-1.23592,3.76945,3.76945,0,0,1-.94463-2.96234L942.99327,221.0448h10.99526l15.82934,151.53358c1.59909-4.32549,3.01715-8.72353,4.28923-13.15795Z"/>
        <path class="cls-42" d="M903.60087,406.51082h-286.311a5.62579,5.62579,0,0,1-5.58379-6.31191l22.94-209.19724a5.62579,5.62579,0,0,1,5.5838-4.93968h286.311a5.62579,5.62579,0,0,1,5.5838,6.3119l-22.94,209.19725A5.62579,5.62579,0,0,1,903.60087,406.51082Z"/>
        <path class="cls-3" d="M895.23863,395.33847H609.0167a5.62579,5.62579,0,0,1-5.54028-6.60294l30.95677-198.0249a5.62579,5.62579,0,0,1,5.54028-4.64864H926.19541a5.62579,5.62579,0,0,1,5.54028,6.60293l-30.95678,198.0249A5.62578,5.62578,0,0,1,895.23863,395.33847Z"/>
        <g>
          <g>
            <g>
              <ellipse class="cls-43" cx="668.94273" cy="232.21119" rx="13.80372" ry="11.7523" transform="matrix(0.73494, -0.67813, 0.67813, 0.73494, 19.84041, 515.1822)"/>
              <ellipse class="cls-43" cx="704.5517" cy="232.21119" rx="13.80372" ry="11.7523" transform="translate(29.27895 539.32982) rotate(-42.69792)"/>
              <ellipse class="cls-43" cx="740.16067" cy="232.21119" rx="13.80372" ry="11.7523" transform="translate(38.71749 563.47744) rotate(-42.69792)"/>
              <ellipse class="cls-43" cx="775.76964" cy="232.21119" rx="13.80372" ry="11.7523" transform="translate(48.15603 587.62505) rotate(-42.69792)"/>
              <ellipse class="cls-43" cx="811.37861" cy="232.21119" rx="13.80372" ry="11.7523" transform="translate(57.59458 611.77267) rotate(-42.69792)"/>
              <ellipse class="cls-43" cx="846.98758" cy="232.21119" rx="13.80372" ry="11.7523" transform="translate(67.03312 635.92029) rotate(-42.69792)"/>
              <ellipse class="cls-44" cx="882.59655" cy="232.21119" rx="13.80372" ry="11.7523" transform="translate(76.47166 660.0679) rotate(-42.69792)"/>
            </g>
            <g>
              <ellipse class="cls-43" cx="648.99687" cy="359.9694" rx="13.80372" ry="11.7523" transform="translate(-72.08351 535.51995) rotate(-42.69792)"/>
              <ellipse class="cls-43" cx="684.60584" cy="359.9694" rx="13.80372" ry="11.7523" transform="translate(-62.64497 559.66756) rotate(-42.69792)"/>
              <ellipse class="cls-43" cx="720.21481" cy="359.9694" rx="13.80372" ry="11.7523" transform="translate(-53.20643 583.81518) rotate(-42.69792)"/>
              <ellipse class="cls-43" cx="755.82378" cy="359.9694" rx="13.80372" ry="11.7523" transform="translate(-43.76789 607.9628) rotate(-42.69792)"/>
              <ellipse class="cls-43" cx="791.43275" cy="359.9694" rx="13.80372" ry="11.7523" transform="translate(-34.32935 632.11041) rotate(-42.69792)"/>
              <ellipse class="cls-43" cx="827.04172" cy="359.9694" rx="13.80372" ry="11.7523" transform="translate(-24.89081 656.25803) rotate(-42.69792)"/>
              <ellipse class="cls-44" cx="862.65069" cy="359.9694" rx="13.80372" ry="11.7523" transform="translate(-15.45227 680.40565) rotate(-42.69792)"/>
            </g>
            <g>
              <ellipse class="cls-43" cx="655.65832" cy="317.38333" rx="13.80372" ry="11.7523" transform="translate(-41.4388 528.7494) rotate(-42.69792)"/>
              <ellipse class="cls-43" cx="691.26729" cy="317.38333" rx="13.80372" ry="11.7523" transform="translate(-32.00026 552.89701) rotate(-42.69792)"/>
              <ellipse class="cls-43" cx="726.87626" cy="317.38333" rx="13.80372" ry="11.7523" transform="translate(-22.56172 577.04463) rotate(-42.69792)"/>
              <ellipse class="cls-43" cx="762.48523" cy="317.38333" rx="13.80372" ry="11.7523" transform="translate(-13.12318 601.19225) rotate(-42.69792)"/>
              <ellipse class="cls-43" cx="798.09419" cy="317.38333" rx="13.80372" ry="11.7523" transform="translate(-3.68464 625.33986) rotate(-42.69792)"/>
              <ellipse class="cls-43" cx="833.70316" cy="317.38333" rx="13.80372" ry="11.7523" transform="translate(5.7539 649.48748) rotate(-42.69792)"/>
              <ellipse class="cls-44" cx="869.31213" cy="317.38333" rx="13.80372" ry="11.7523" transform="translate(15.19244 673.6351) rotate(-42.69792)"/>
            </g>
            <g>
              <ellipse class="cls-43" cx="662.29764" cy="274.79726" rx="13.80372" ry="11.7523" transform="translate(-10.79996 521.96385) rotate(-42.69792)"/>
              <ellipse class="cls-43" cx="697.90661" cy="274.79726" rx="13.80372" ry="11.7523" transform="translate(-1.36142 546.11146) rotate(-42.69792)"/>
              <ellipse class="cls-43" cx="733.51558" cy="274.79726" rx="13.80372" ry="11.7523" transform="translate(8.07712 570.25908) rotate(-42.69792)"/>
              <ellipse class="cls-43" cx="769.12455" cy="274.79726" rx="13.80372" ry="11.7523" transform="translate(17.51566 594.4067) rotate(-42.69792)"/>
              <ellipse class="cls-43" cx="804.73352" cy="274.79726" rx="13.80372" ry="11.7523" transform="translate(26.9542 618.55431) rotate(-42.69792)"/>
              <ellipse class="cls-43" cx="840.34249" cy="274.79726" rx="13.80372" ry="11.7523" transform="translate(36.39275 642.70193) rotate(-42.69792)"/>
              <ellipse class="cls-44" cx="875.95146" cy="274.79726" rx="13.80372" ry="11.7523" transform="translate(45.83129 666.84955) rotate(-42.69792)"/>
            </g>
          </g>
          <g>
            <g>
              <polyline class="cls-45" points="803.519 231.252 807.696 236.822 819.238 227.6"/>
              <polyline class="cls-45" points="767.91 231.252 772.087 236.822 783.629 227.6"/>
              <polyline class="cls-45" points="732.301 231.252 736.478 236.822 748.02 227.6"/>
              <polyline class="cls-45" points="696.692 231.252 700.869 236.822 712.411 227.6"/>
              <polyline class="cls-45" points="661.084 231.252 665.26 236.822 676.802 227.6"/>
            </g>
            <g>
              <polyline class="cls-45" points="797 273.719 801.176 279.29 812.718 270.067"/>
              <polyline class="cls-45" points="761.391 273.719 765.567 279.29 777.109 270.067"/>
              <polyline class="cls-45" points="725.782 273.719 729.958 279.29 741.5 270.067"/>
              <polyline class="cls-45" points="690.173 273.719 694.349 279.29 705.891 270.067"/>
              <polyline class="cls-45" points="654.564 273.719 658.74 279.29 670.282 270.067"/>
            </g>
            <g>
              <polyline class="cls-45" points="790.48 316.187 794.656 321.757 806.198 312.535"/>
              <polyline class="cls-45" points="754.871 316.187 759.047 321.757 770.589 312.535"/>
              <polyline class="cls-45" points="719.262 316.187 723.438 321.757 734.98 312.535"/>
              <polyline class="cls-45" points="683.653 316.187 687.829 321.757 699.371 312.535"/>
              <polyline class="cls-45" points="648.044 316.187 652.22 321.757 663.762 312.535"/>
            </g>
            <g>
              <polyline class="cls-45" points="783.96 358.654 788.136 364.224 799.678 355.002"/>
              <polyline class="cls-45" points="748.351 358.654 752.527 364.224 764.069 355.002"/>
              <polyline class="cls-45" points="712.742 358.654 716.918 364.224 728.46 355.002"/>
              <polyline class="cls-45" points="677.133 358.654 681.309 364.224 692.851 355.002"/>
              <polyline class="cls-45" points="641.524 358.654 645.7 364.224 657.242 355.002"/>
            </g>
          </g>
        </g>
      </g>
      <g>
        <g>
          <circle class="cls-46" cx="657.54679" cy="199.52313" r="5.90538"/>
          <path class="cls-40" d="M676.44646,180.015h-7.59529c-1.03142-5.19467-4.257-9.09545-7.9515-9.09545-3.6944,0-6.92008,3.90078-7.9515,9.09545a18.55992,18.55992,0,0,0-.35632,3.582c0,5.6635,2.56923,10.57693,5.96362,12.17105a3.83783,3.83783,0,0,1,2.3442,3.4506,3.75271,3.75271,0,0,1-5.3635,3.37573c-6.09491-2.813-10.44576-10.25827-10.44576-18.99738a24.19146,24.19146,0,0,1,.24381-3.52569c1.31277-9.45188,7.78278-16.65319,15.56545-16.65319C668.66368,163.41808,675.13369,170.582,676.44646,180.015Z"/>
        </g>
        <g>
          <circle class="cls-46" cx="688.31064" cy="199.52313" r="5.90538"/>
          <path class="cls-40" d="M707.21032,180.015H699.615c-1.03143-5.19467-4.257-9.09545-7.9515-9.09545-3.6944,0-6.92008,3.90078-7.9515,9.09545a18.55913,18.55913,0,0,0-.35633,3.582c0,5.6635,2.56257,10.5912,5.96363,12.17105a3.84861,3.84861,0,0,1,2.3442,3.4506,3.75271,3.75271,0,0,1-5.3635,3.37573c-6.09491-2.813-10.44576-10.25827-10.44576-18.99738a24.89879,24.89879,0,0,1,.24381-3.52569c1.353-9.4462,7.78278-16.65319,15.56545-16.65319C699.42754,163.41808,705.89755,170.582,707.21032,180.015Z"/>
        </g>
        <g>
          <circle class="cls-46" cx="719.0745" cy="199.52313" r="5.90538"/>
          <path class="cls-40" d="M737.97418,180.015h-7.59529c-1.03143-5.19467-4.257-9.09545-7.95151-9.09545-3.6944,0-6.92007,3.90078-7.9515,9.09545a18.55992,18.55992,0,0,0-.35632,3.582c0,5.6635,2.56257,10.5912,5.96363,12.17105a3.84862,3.84862,0,0,1,2.34419,3.4506,3.75271,3.75271,0,0,1-5.36349,3.37573c-6.09492-2.813-10.44576-10.25827-10.44576-18.99738a24.90028,24.90028,0,0,1,.2438-3.52569c1.353-9.4462,7.78279-16.65319,15.56545-16.65319C730.1914,163.41808,736.6614,170.582,737.97418,180.015Z"/>
        </g>
        <g>
          <circle class="cls-46" cx="749.83836" cy="199.52313" r="5.90538"/>
          <path class="cls-40" d="M768.738,180.015h-7.5953c-1.03142-5.19467-4.257-9.09545-7.9515-9.09545-3.6944,0-6.92008,3.90078-7.9515,9.09545a18.55992,18.55992,0,0,0-.35632,3.582c0,5.6635,2.56256,10.5912,5.96362,12.17105a3.84861,3.84861,0,0,1,2.3442,3.4506,3.75271,3.75271,0,0,1-5.3635,3.37573c-6.09491-2.813-10.44576-10.25827-10.44576-18.99738a24.89879,24.89879,0,0,1,.24381-3.52569c1.353-9.4462,7.78278-16.65319,15.56545-16.65319C760.95525,163.41808,767.42526,170.582,768.738,180.015Z"/>
        </g>
        <g>
          <circle class="cls-46" cx="780.60222" cy="199.52313" r="5.90538"/>
          <path class="cls-40" d="M799.50189,180.015H791.9066c-1.03143-5.19467-4.257-9.09545-7.9515-9.09545-3.6944,0-6.92008,3.90078-7.9515,9.09545a18.55913,18.55913,0,0,0-.35633,3.582c0,5.6635,2.56257,10.5912,5.96363,12.17105a3.84861,3.84861,0,0,1,2.3442,3.4506,3.75271,3.75271,0,0,1-5.3635,3.37573c-6.09491-2.813-10.44576-10.25827-10.44576-18.99738a24.89879,24.89879,0,0,1,.24381-3.52569c1.353-9.4462,7.78278-16.65319,15.56545-16.65319C791.71911,163.41808,798.18912,170.582,799.50189,180.015Z"/>
        </g>
        <g>
          <circle class="cls-46" cx="811.36607" cy="199.52313" r="5.90538"/>
          <path class="cls-40" d="M830.26575,180.015h-7.59529c-1.03143-5.19467-4.257-9.09545-7.9515-9.09545-3.69441,0-6.92008,3.90078-7.95151,9.09545a18.55992,18.55992,0,0,0-.35632,3.582c0,5.6635,2.56257,10.5912,5.96363,12.17105a3.84863,3.84863,0,0,1,2.3442,3.4506,3.75271,3.75271,0,0,1-5.3635,3.37573c-6.09492-2.813-10.44576-10.25827-10.44576-18.99738a24.90028,24.90028,0,0,1,.2438-3.52569c1.353-9.4462,7.78279-16.65319,15.56546-16.65319C822.483,163.41808,828.953,170.582,830.26575,180.015Z"/>
        </g>
        <g>
          <circle class="cls-46" cx="842.12993" cy="199.52313" r="5.90538"/>
          <path class="cls-40" d="M861.02961,180.015h-7.5953c-1.03142-5.19467-4.257-9.09545-7.9515-9.09545-3.6944,0-6.92007,3.90078-7.9515,9.09545a18.55992,18.55992,0,0,0-.35632,3.582c0,5.6635,2.56256,10.5912,5.96362,12.17105a3.84861,3.84861,0,0,1,2.3442,3.4506,3.75271,3.75271,0,0,1-5.3635,3.37573c-6.09491-2.813-10.44576-10.25827-10.44576-18.99738a24.89879,24.89879,0,0,1,.24381-3.52569c1.353-9.4462,7.78278-16.65319,15.56545-16.65319C853.24682,163.41808,859.71683,170.582,861.02961,180.015Z"/>
        </g>
        <g>
          <circle class="cls-46" cx="872.89379" cy="199.52313" r="5.90538"/>
          <path class="cls-40" d="M891.79346,180.015h-7.59529c-1.03142-5.19467-4.257-9.09545-7.9515-9.09545-3.6944,0-6.92008,3.90078-7.9515,9.09545a18.55913,18.55913,0,0,0-.35632,3.582c0,5.6635,2.56256,10.5912,5.96362,12.17105a3.84861,3.84861,0,0,1,2.3442,3.4506,3.75271,3.75271,0,0,1-5.3635,3.37573c-6.09491-2.813-10.44576-10.25827-10.44576-18.99738a24.89879,24.89879,0,0,1,.24381-3.52569c1.353-9.4462,7.78278-16.65319,15.56545-16.65319C884.01068,163.41808,890.48069,170.582,891.79346,180.015Z"/>
        </g>
        <g>
          <circle class="cls-46" cx="903.65764" cy="199.52313" r="5.90538"/>
          <path class="cls-40" d="M922.55732,180.015H914.962c-1.03143-5.19467-4.257-9.09545-7.9515-9.09545-3.69441,0-6.92008,3.90078-7.95151,9.09545a18.55992,18.55992,0,0,0-.35632,3.582c0,5.6635,2.56923,10.57693,5.96363,12.17105a3.83785,3.83785,0,0,1,2.3442,3.4506,3.75271,3.75271,0,0,1-5.3635,3.37573c-6.09492-2.813-10.44576-10.25827-10.44576-18.99738a24.19147,24.19147,0,0,1,.2438-3.52569c1.31278-9.45188,7.78279-16.65319,15.56546-16.65319C914.77454,163.41808,921.24455,170.582,922.55732,180.015Z"/>
        </g>
      </g>
    </g>
    <g>
      <g>
        <path class="cls-39" d="M674.66148,99.44019h12.46513a4.29434,4.29434,0,0,1,4.29434,4.29434v7.61359a0,0,0,0,1,0,0H670.36714a0,0,0,0,1,0,0v-7.61359a4.29434,4.29434,0,0,1,4.29434-4.29434Z" transform="translate(173.16601 -360.37067) rotate(33.73288)"/>
        <rect class="cls-47" x="668.42352" y="94.3032" width="32.15143" height="11.38385" rx="5.69192" transform="translate(170.77479 -363.28171) rotate(33.73288)"/>
      </g>
      <g>
        <path class="cls-39" d="M572.56129,99.44019H593.6151a0,0,0,0,1,0,0v7.61359a4.29434,4.29434,0,0,1-4.29434,4.29434H576.85563a4.29434,4.29434,0,0,1-4.29434-4.29434V99.44019a0,0,0,0,1,0,0Z" transform="translate(1126.53275 -130.75789) rotate(146.26712)"/>
        <path class="cls-48" d="M569.09922,94.3032H589.8668a5.69192,5.69192,0,0,1,5.69192,5.69192v0a5.69192,5.69192,0,0,1-5.69192,5.69192H569.09921a5.69192,5.69192,0,0,1-5.69192-5.69192v0a5.69193,5.69193,0,0,1,5.69193-5.69193Z" transform="translate(1116.93116 -138.64491) rotate(146.26712)"/>
      </g>
      <g>
        <path class="cls-49" d="M631.633,77.03537h0a14.39323,14.39323,0,0,1,14.39323,14.39323V104.423a0,0,0,0,1,0,0H617.23978a0,0,0,0,1,0,0V91.42859A14.39323,14.39323,0,0,1,631.633,77.03537Z"/>
        <circle class="cls-50" cx="631.63302" cy="176.55634" r="83.09582"/>
        <circle class="cls-3" cx="631.63302" cy="176.55634" r="65.76652"/>
        <path class="cls-51" d="M631.63312,113.47488h-.124l-.05957.00049h-.00074q-.22924,0-.45825.00293h-.03833l-.01294.00049h-.02148c-.08911.001-.17456.00195-.26367.00341l.134,8.79981q.4215-.0066.845-.00635v-8.80078Zm-6.833.36572q-.4032.04322-.80517.0918l-.0022.00049-.02.00244-.01367.00146-.0105.00147-.11914.01465,1.07763,8.73437q.41676-.05127.83545-.09668l-.94238-8.75Zm-6.7522,1.10059-.11572.02588-.01245.00244-.0127.00293-.01635.00342-.00659.00146c-.14136.03174-.28443.064-.42554.09619h-.00025l-.01831.0044-.01123.00244-.0122.00293-.02466.00586h-.00049q-.14868.03442-.29736.06933l2.02075,8.56592q.40869-.09667.81982-.187l-1.88672-8.59619Zm-6.59277,1.82959c-.09155.03125-.1853.063-.27661.09424l-.0083.00293-.012.0039-.01783.00635-.0061.00195q-.15637.05348-.31226.1084l-.00708.00244-.01562.00537c-.08911.03125-.179.0625-.26807.09424l2.94336,8.294q.39551-.13989.7937-.27442l-2.81323-8.33935Zm-6.35327,2.53808c-.074.03418-.14746.06836-.22119.103l-.00171.001-.023.01074-.00586.00244-.01831.00879-.02222.01025-.00732.00391-.02051.00928-.00073.00049c-.16406.07714-.32715.15478-.49048.23388l-.01147.00537-.01075.00538-.05053.02392,3.82959,7.92432q.37829-.1831.76-.36035l-3.70557-7.98243Zm-6.04,3.21436-.00855.00537-.01123.00635-.01586.00976-.00342.002c-.2085.12646-.41309.25146-.62012.38037l-.01489.00928-.00513.00292c-.05127.03174-.10254.064-.15381.0962l4.66675,7.46142q.35669-.22338.7168-.44092l-4.55054-7.53271Zm-5.656,3.84961-.001.00049q-.38818.29663-.77173.59863l5.44531,6.91357q.33069-.26.66553-.51562l-5.33814-6.99707Zm-5.20776,4.4375c-.18726.17773-.37671.35986-.56177.54l-.00415.0039-.01343.01319-.0061.00586-.01221.0122-.00732.00684-.01855.01807-.01172.01172-.00782.00732-.012.01172-.0083.0083-.0127.01221-.00805.00781-.01758.01758-.0022.00195,6.15845,6.28711q.301-.29443.6062-.585l-6.06079-6.38086Zm-4.69971,4.97217q-.09777.115-.19482.231l-.01074.0127-.00489.00586q-.2091.249-.41626.501l6.79956,5.58741q.26734-.3252.5398-.64649l-6.71265-5.6914Zm-4.13647,5.4497q-.21278.31348-.42114.62989l-.01075.01611-.001.00146c-.03711.05616-.07251.10987-.10938.16651l7.363,4.8208q.23034-.35229.46631-.70068l-7.28711-4.93409Zm-3.52344,5.86475q-.11023.208-.2185.4165l-.00538.01026-.00561.01123-.011.021-.00073.00147q-.1051.20287-.20923.40723l7.842,3.99462q.1908-.375.38745-.74658l-7.779-4.11572Zm-2.86548,6.2124c-.10425.2627-.20532.523-.30615.78711l-.00122.00342-.00708.01855-.00244.00684-.00659.0166-.00318.00879-.02148.05664-.00244.00635-.00293.00781,8.23047,3.1167q.149-.39331.30371-.78369l-8.18067-3.24512Zm-2.17138,6.48877c-.07154.25977-.14087.519-.20923.78076h0l-.00562.02149-.00512.01953-.00123.00439c-.01.03955-.02026.07862-.03051.11817l8.52148,2.1997q.1051-.40722.21631-.81152l-8.48608-2.33252Zm-1.45044,6.68555q-.07728.48193-.14746.9668l8.7102,1.25927q.06042-.41675.127-.83154l-8.68969-1.39453Zm-.71656,6.80469c-.0166.32324-.03076.65136-.04248.97607l8.79517.314q.01538-.42115.03662-.84131l-8.78931-.44873Zm8.80347,6.352-8.78711.49072q.01283.22851.0271.45654l.00049.00586.00122.02.001.01465.00048.00977.00123.02h0c.00537.0835.011.166.0166.24952l.00024.00293.00147.02148.00073.01025.001.01514q.00513.07471.0105.14942l8.77857-.62549q-.03-.41969-.05347-.84082Zm.64526,5.85449-8.68286,1.437.01465.08789.0022.01318.002.01221.00342.01953.00049.00342c.02734.16211.05444.32031.083.48242l.00073.00391.00317.019.002.01074.00244.01465c.01757.09864.0354.19776.05322.29639l8.65918-1.57178q-.07471-.41308-.14356-.82861Zm1.27491,5.7417-8.47461,2.374c.02417.08594.04736.168.07177.25391l.00245.00879.00268.00927.00562.019.00195.00683.00732.02588h0q.08826.30909.17945.61572l8.43652-2.50634q-.11975-.40211-.23315-.80713Zm1.89331,5.56689-8.1648,3.28467c.02222.05518.04468.11084.06714.166l.00317.0083.00538.01269c.0769.18946.15356.37549.23217.564l.00318.00781.00537.0127.0061.01464.00366.00879c.01538.03662.03052.07324.0459.10938l8.11255-3.41162q-.1626-.38745-.31982-.77735Zm2.49,5.32959-7.75879,4.15381q.23072.43067.468.8584l7.69336-4.27393q-.204-.36767-.40259-.73828Zm3.05615,5.03174-7.26318,4.96973.03173.04638.00928.01319.00464.00732.01172.0166h0q.24829.36182.501.71924l7.18579-5.08154q-.24316-.34351-.481-.69092Zm3.58472,4.67481-6.68482,5.72412.00415.00537.00635.00732.01221.01416.01513.01758.00464.00537.01612.019.0017.002q.28821.33545.5813.667l6.596-5.82617q-.27868-.31567-.55273-.63574Zm4.0686,4.26318-6.02979,6.41064q.356.33473.71729.66455l5.93042-6.50293q-.31092-.28344-.61792-.57226Zm4.50342,3.7998-5.304,7.02295.05835.044.01245.00928.00684.00537.01782.01318.00415.00342q.34058.25635.68506.50781l5.19507-7.10351q-.33984-.249-.67578-.50245Zm4.88452,3.29-4.51392,7.55518c.10718.064.2168.1289.32447.19238l.01391.0083.00635.00342q.24865.14649.49854.29053l4.39624-7.624q-.36475-.21019-.72559-.42578Zm5.208,2.73926-3.66675,8.00049c.0647.02978.12915.05908.19385.08838l.00146.001.02393.01075.00464.00195.02539.01172.00757.00342.0166.00732.0122.00537.0127.00586.01392.00635.00756.00342.05494.0249.00708.00293.01684.00781.00708.00293.01733.00781.0022.001.03638.0166.00684.00293.01538.00684.00879.0039.01489.00684.012.00537.01221.00537.02344.01074.008.00342.01831.00781.00781.00391.01954.0083.0061.00293.053.02344.0022.001.02514.01123.00244.00146c.02735.01172.05469.02393.082.03613l.00171.00049.02564.01172.0022.00049.02661.01221h.00049l.02685.01171.00586.00245.01831.0083.00488.00195,3.54151-8.05664q-.38526-.16918-.76709-.34424Zm5.47192,2.15479-2.7727,8.35253c.31.103.61816.20264.93042.30079l2.6416-8.395q-.401-.126-.79932-.2583Zm5.67334,1.54443-1.84473,8.60547q.148.03148.29615.0625l.00561.00146.01929.00391.01025.00195.00611.00147c.2063.043.41406.085.62085.126l1.7102-8.63281q-.41309-.082-.82373-.16992Zm5.81348.91846-.90015,8.75488c.18433.019.36548.03662.55029.0542q.21131.01977.42286.03808l.76489-8.76757q-.42-.03663-.83789-.07959Zm6.73681.27636q-.42114.00879-.84375.01075l.042,8.80029h.06689q.4563-.00292.91089-.01172l-.176-8.79932Zm5.87915-.43359q-.41674.05346-.83544.10059l.98486,8.7456c.07641-.00879.15259-.01709.229-.02637h.00049l.02319-.00244.00513-.001.02026-.002.01172-.00146.0232-.00293.01757-.00195.01246-.00147.01538-.002.01318-.00147.01489-.00195.01245-.00147.01685-.00195.01221-.00146.0249-.00293.01245-.00147.01538-.00195.0127-.00147.01513-.00195.01368-.00146.01245-.00147.01562-.00195.00708-.001.03662-.00439.00733-.001.01977-.00244.00586-.00049.02075-.00244.00489-.00049c.041-.00537.07885-.00976.11987-.01514h.001c.041-.00537.07959-.01025.12085-.01513l.0039-.00049.02222-.00293.00195-.00049.04834-.00586-1.12012-8.72949Zm5.78638-1.06494q-.40833.09815-.81909.19092l1.92871,8.58642q.4779-.10694.95288-.22168l-2.0625-8.55566Zm5.63208-1.688q-.39515.14209-.79272.27832l2.85424,8.3252c.11524-.03955.23023-.07911.345-.11963l.00341-.001.02417-.0083.0044-.00147.02661-.00927.00586-.00244.02-.00684.011-.00391.01441-.00488.01294-.00488.01587-.00537.00879-.00293.0249-.00879.01074-.00391.01636-.00586.00976-.00342.01734-.00634.00879-.00293q.17138-.06079.342-.12207l-2.98389-8.2793Zm5.41577-2.29346q-.37757.18458-.75805.36377l3.74463,7.96436c.29614-.13916.58837-.2793.88183-.42285l-3.86841-7.90528Zm5.13819-2.8706q-.35559.22485-.71485.44433l4.58741,7.51075.1936-.11914.011-.00635.00855-.00537.021-.01319h.00048q.29883-.18456.596-.37256l-4.70312-7.43847Zm4.80078-3.4126q-.3296.2622-.66309.51953l5.37207,6.9707.07056-.05419.00561-.0044.01246-.00976c.11083-.08594.21972-.17042.32983-.25684l.00195-.00147.01709-.01318.02-.01611.00244-.00147q.15528-.12231.30982-.24511l-5.47876-6.8877Zm4.407-3.91162q-.29956.29589-.60352.5874l6.09156,6.352c.10669-.102.21142-.20312.31738-.30615l.01025-.01025.00586-.00538.01685-.0166.0022-.00244q.15014-.14575.29931-.29346l.011-.01074.00171-.00146.03613-.03565-6.18872-6.25732Zm3.96021-4.36377q-.26587.32665-.53638.64893l6.74,5.65917.07519-.08935.00879-.01074.00659-.00782c.17823-.21337.35669-.42968.53223-.6455l-6.82641-5.55469Zm3.46557-4.76318q-.22889.35376-.46313.70312l7.31128,4.89893c.04174-.0625.08447-.12647.126-.189l.00562-.0083.00854-.01318.00757-.01123.00659-.00977.03174-.04785.001-.00147.01513-.02294.00171-.00245q.16847-.25488.33423-.51074l-7.38623-4.78515Zm2.92774-5.106q-.18933.37574-.38379.74805l7.79882,4.07763q.22669-.43285.44629-.86963l-7.86132-3.95605Zm2.35351-5.39063q-.14685.394-.2998.78516l8.19653,3.20459q.178-.45483.34888-.91309l-8.24561-3.07666Zm1.75122-5.61279q-.10327.40723-.2124.813l8.49731,2.291c.0813-.30175.16089-.60546.2378-.90917l.00024-.001.00415-.0166.00342-.0127.00146-.00683-8.532-2.15772Zm1.12915-5.77344q-.05823.41748-.1228.83252l8.69629,1.35205q.05823-.37572.1123-.75195c.01026-.07178.02051-.144.03052-.21533l-8.71631-1.21729Zm.49829-5.87207q-.01319.42188-.03247.84229l8.79126.40625c.01514-.32569.02759-.64942.0376-.97656l-8.79639-.272Zm8.64283-6.56982-8.77539.66846q.03222.41894.05761.83984l8.78467-.5332c-.01147-.18653-.02344-.3711-.03638-.55713l-.00146-.021-.00025-.00244c-.009-.13135-.01879-.26318-.0288-.39453Zm-.8877-6.78418-8.65137,1.61377q.07691.41309.14771.82861l8.67578-1.47949q-.0824-.48267-.17212-.96289Zm-1.61963-6.647-8.42407,2.54785q.12158.40137.23682.80566l8.46289-2.41553q-.02929-.10253-.05884-.20507l-.001-.00342-.0061-.02051-.00342-.01221-.00366-.01269-.00464-.01563-.00024-.001c-.065-.22364-.13038-.44483-.19776-.66748Zm-2.33545-6.43067-8.09594,3.45117q.16479.38673.32373.77588L690.064,152.74c-.07862-.19287-.15943-.3877-.24-.57959l-.0022-.00537-.00659-.01563-.00513-.01221-.00488-.01172q-.05859-.13916-.11768-.27783Zm-3.02221-6.13818-7.67237,4.311q.20582.36694.40625.73682l7.73853-4.19189q-.11608-.21461-.23413-.42823l-.00147-.00293-.01172-.021-.00415-.00733-.0083-.01513-.00586-.01075-.00244-.00439c-.06738-.12158-.13623-.24512-.20434-.36621Zm-3.67017-5.77393-7.16065,5.11621q.24428.342.48389.68848l7.23926-5.00488-.08618-.12451-.00708-.00977-.00733-.01025-.01172-.01758-.001-.001c-.06323-.09082-.126-.18066-.1897-.271l-.00073-.00147-.02637-.03711-.00049-.00049-.00757-.01074-.009-.01269-.0061-.00928-.0127-.01758-.00244-.00342-.03442-.04883-.00049-.00048-.0166-.02393-.00122-.00146-.052-.07325-.00122-.00195-.01489-.02051-.00366-.00537-.01392-.01953-.01245-.01758-.00342-.00488-.03979-.05518Zm-4.27222-5.34424-6.56762,5.8584q.28051.31422.5559.63282l6.657-5.75635c-.13526-.15674-.27246-.31348-.40918-.46875l-.002-.00244-.04321-.04883-.00342-.00391-.01172-.01318-.00586-.00684-.01245-.01367-.00293-.00342-.02343-.02636-.00586-.00684-.00952-.01074-.00977-.01074-.00879-.00977-.0083-.00977-.01025-.01123-.00245-.00293-.02417-.02734-.00683-.00732-.01123-.0127-.00537-.00635-.01245-.01367-.0022-.00244-.01392-.01563Zm-4.823-4.853-5.89868,6.53125q.31237.28271.62061.56933l5.99878-6.43945c-.13257-.12353-.26343-.24414-.39722-.3667l-.00146-.00146-.01343-.01221-.00806-.00733-.00976-.00927-.01441-.01319-.00586-.00537-.02051-.01855-.0039-.00342-.01782-.0166-.00342-.00293c-.07422-.06787-.14893-.13525-.22363-.20313l-.00123-.001Zm-5.31738-4.30518-5.1604,7.12891q.341.24756.678.499l5.27-7.04834-.00244-.00195-.01734-.01319-.00878-.00634-.0105-.00782c-.19483-.1455-.38794-.28808-.58448-.43115h-.00048l-.01856-.01367-.145-.10547Zm-5.75122-3.70556-4.35889,7.6455q.36549.208.72754.42188l4.477-7.57666c-.28-.16553-.563-.32959-.8457-.49072Zm-6.11914-3.06055-3.5022,8.07373q.386.16773.7688.34082l3.62769-8.01856-.01026-.00439-.00634-.00293-.01783-.0083-.00219-.001-.0625-.02783-.002-.001c-.26416-.11914-.52734-.23535-.79321-.35058Zm-6.41577-2.37549-2.60059,8.40771q.40175.12452.80054.2544l2.73145-8.36621c-.3086-.10059-.62085-.2002-.9314-.2959Zm-6.63721-1.66162-1.668,8.64111q.41346.07983.82447.166l1.80249-8.61426c-.18433-.03857-.37207-.07715-.55689-.11377l-.00561-.00146-.01758-.00342-.009-.00147-.01709-.00342-.01-.00244-.01661-.00293-.01-.00195-.032-.00635-.00781-.00146-.02026-.0044-.0044-.00048c-.08447-.01709-.167-.03321-.25171-.04932Zm-6.77783-.92969-.72241,8.771q.41967.03443.83813.07568l.85742-8.75928q-.21093-.0205-.42187-.03955l-.01856-.002-.00439-.00049c-.17651-.01562-.35156-.03076-.52832-.04541Z"/>
      </g>
      <g>
        <text class="cls-52" transform="translate(606.78049 170.57502)">30</text>
        <text class="cls-52" transform="translate(595.86545 206.88752)">min</text>
      </g>
    </g>
  </g>
  <g>
    <g>
      <g>
        <path class="cls-53" d="M346.9076,676.53072l-.00929.0083a4.79607,4.79607,0,0,0-2.60489-.73585l-41.72457.53545A11.03835,11.03835,0,0,0,291.67218,687.376V725.5614l4.57827,2.64334,55.08022-49.12332Z"/>
        <path class="cls-54" d="M296.25048,728.20474l57.51658-33.20722v-11.7181a4.83338,4.83338,0,0,0-4.89541-4.833l-41.72454.5355a11.03828,11.03828,0,0,0-10.89663,11.03738Z"/>
      </g>
      <line class="cls-55" x1="348.57351" y1="473.37599" x2="305.96283" y2="686.7573"/>
      <g>
        <g>
          <polygon class="cls-56" points="296.25 723.402 313.417 733.318 313.417 738.121 296.25 728.205 296.25 723.402"/>
          <path class="cls-57" d="M595.94084,535.9802l-.00469-.00263-.00909-.00528.00029.00147a5.13553,5.13553,0,0,0-5.17423.00483l-281.6626,162.6459a13.45825,13.45825,0,0,0-5.7504,6.6153L296.05044,723.285v4.80282l302.48088-174.665,14.84421-7.36795Z"/>
          <path class="cls-58" d="M608.11967,546.01158,326.457,708.6575a13.45984,13.45984,0,0,0-5.75039,6.61528L313.417,733.31807v4.80282l302.48082-174.665V550.50243A5.18551,5.18551,0,0,0,608.11967,546.01158Z"/>
        </g>
        <g>
          <path class="cls-59" d="M613.68291,550.34864c-1.77614-1.02541-4.08741-.7267-6.41642.55052l.0003-.02345-.21238.12268-.06362.03664L354.47,696.90105v.00748a19.13716,19.13716,0,0,0-6.73579,7.07392c-3.68258,6.37845-3.68727,13.2702-.0104,15.393L451.319,779.19325,717.27809,610.16646Z"/>
          <g class="cls-60">
            <ellipse class="cls-61" cx="488.1943" cy="681.07084" rx="64.35396" ry="36.98503"/>
          </g>
          <path class="cls-58" d="M717.2781,610.16655c-1.77614-1.02541-4.08741-.7267-6.41641.55051l.00029-.02345-.21238.12268-.06361.03664L458.06522,756.719v.00747a19.1372,19.1372,0,0,0-6.73579,7.07393c-3.68259,6.37845-3.68728,13.27019-.01041,15.393,1.84034,1.06249,4.25406.72831,6.66793-.66968v.00059L710.54524,632.6333l.00015-.00616a19.15581,19.15581,0,0,0,6.72216-7.06762C720.95028,619.18107,720.955,612.28932,717.2781,610.16655Z"/>
        </g>
        <polygon class="cls-56" points="420.361 795.066 437.527 804.982 437.527 809.785 420.361 799.869 420.361 795.066"/>
        <g>
          <path class="cls-57" d="M720.051,607.64414l-.00469-.00264-.00909-.00528.00029.00147a5.13551,5.13551,0,0,0-5.17423.00484L433.20068,770.28842a13.45823,13.45823,0,0,0-5.7504,6.61531l-7.28968,18.04516v4.80282l302.48088-174.665,14.84421-7.368Z"/>
          <path class="cls-62" d="M732.22983,617.67551,450.56711,780.32144a13.4598,13.4598,0,0,0-5.75039,6.61528L437.52715,804.982v4.80282L732.578,639.4102a14.86166,14.86166,0,0,0,7.42994-12.87006v-4.37378A5.18551,5.18551,0,0,0,732.22983,617.67551Z"/>
        </g>
        <g>
          <path class="cls-63" d="M471.23126,779.81922l-33.71588,29.96955-141.2649-81.584V683.01019a12.13523,12.13523,0,0,1,.45627-3.38607Z"/>
          <path class="cls-57" d="M502.83375,751.7227l-27.97634,24.85453-3.62615,3.242L296.70675,679.62412a13.03494,13.03494,0,0,1,12.43928-9.65357l42.74521-.55242,6.62777-.096a5.95946,5.95946,0,0,1,2.90576.76846Z"/>
          <path class="cls-62" d="M437.52722,809.78483,505.59,770.48875V756.622a5.71962,5.71962,0,0,0-5.793-5.71916l-49.37513.63368a13.06227,13.06227,0,0,0-12.89464,13.0612Z"/>
        </g>
        <polygon class="cls-58" points="377.354 679.278 484.312 741.021 464.789 741.271 357.83 679.528 377.354 679.278"/>
      </g>
      <g>
        <path class="cls-27" d="M515.81777,625.46125s10.53956,2.3456,11.28144,10.88c.33894,3.89914-1.72048,8.35755-4.74782,13.80258-2.82537,5.08176-3.14142,14.64238-12.2839,20.69928-6.999,4.63686-13.36574-.94853-12.20109-5.037l4.04819-8.69986,4.33084-21.52514Z"/>
        <path class="cls-64" d="M514.00039,623.64386s10.0634,3.12716,10.80528,11.6616c.33894,3.89914-1.24433,7.576-4.27166,13.021-2.82537,5.08176-3.14143,14.64238-12.28391,20.69928-6.999,4.63686-12.31191-.94252-11.14727-5.031l2.99437-8.70586,4.33085-21.52515Z"/>
        <path class="cls-65" d="M448.17918,489.04654c.68019,24.87912,12.12631,80.1387,12.12631,80.1387.77232,11.17777,1.98942,14.55071,8.53257,23.64614l34.7125,40.37782,1.77228,3.05028c2.51337,4.1234,10.41742-.55177,10.41742-.55177s2.50013-7.56721.52232-9.4877l-1.711-1.305-21.27859-49.0754,2.41318-68.23721Z"/>
        <path class="cls-3" d="M516.26272,626.21992l-1.71134-1.30492-2.07273-4.78084c.89351,6.5402-7.61339,10.871-11.77684,9.76112l2.84876,3.31375,1.77235,3.05042c2.51332,4.12328,10.41734-.55174,10.41734-.55174S518.24028,628.14046,516.26272,626.21992Z"/>
        <path class="cls-27" d="M502.08109,649.76855c-.11847,1.25633,3.94416,3.24813,6.32227.29012a44.64643,44.64643,0,0,0,7.3369-14.351c-5.50029-4.58649-11.78436-3.25538-11.58292-.59852Z"/>
        <path class="cls-66" d="M448.17918,489.04654c-1.35832,25.03132,2.37963,75.05507,8.33708,91.02011s39.4468,53.36284,39.4468,53.36284c6.40381,7.6521,27.09249-3.16625,19.77719-15.44683l-22.46731-42.14309,2.41318-68.23721Z"/>
        <path class="cls-27" d="M496.94212,680.7661c2.18875,3.17518,3.88173,13.7216,1.891,16.74756-1.93338,2.93874-7.25562,4.63986-10.053,6.37617s-6.40711,8.9509-18.6653,9.8873c-8.56621.65437-14.24793-4.86825-9.42205-10.14447l9.8079-9.5819,12.62647-12.309S494.75336,677.59092,496.94212,680.7661Z"/>
        <path class="cls-64" d="M496.94212,678.446c2.18875,3.17518,3.2532,14.3859.88557,17.127-1.138,1.31751-6.25022,4.2604-9.0476,5.9967s-6.40711,8.95091-18.6653,9.8873c-8.56621.65437-14.24793-4.86825-9.42205-10.14446l9.8079-9.58191,12.62647-12.309S494.75336,675.27085,496.94212,678.446Z"/>
        <path class="cls-67" d="M522.51328,518.03679l-19.6795,79.30953c2.04959,24.43943-7.82879,76.696-7.82879,76.696l.98964,5.77553c-.6813,6.99822-14.273,10.01678-14.21391.41131l.00812-5.80017-6.04039-80.19689,1.8905-88.48393Z"/>
        <path class="cls-3" d="M481.6022,671.95023l.18658,2.47872-.008,5.80023c-.059,9.60538,13.53254,6.58691,14.21384-.41131l-.98967-5.7756s.58923-3.17066.69239-3.731C493.09093,675.84039,483.75267,675.02836,481.6022,671.95023Z"/>
        <path class="cls-64" d="M518.97592,466.91667l-68.94573-17.63382s-1.851,27.33814-1.851,39.76367l27.08635,27.65766-2.6492,74.06718c-.13165,4.87624,2.39346,80.4431,2.39346,80.4431.42553,6.461,20.71572,9.85638,22.7181.30018,0,0,11.34309-75.14853,11.71426-77.98948,0,0,10.75429-53.23456,13.071-75.48841S518.97592,466.91667,518.97592,466.91667Z"/>
        <path class="cls-68" d="M521.24759,481.17967c-1.09107-8.4314-2.27173-14.263-2.27173-14.263L450.0303,449.28282s-.87451,12.91309-1.42139,25.02338c2.54444,5.88476,8.90772,10.51068,17.07764,14.81274C484.87137,499.2213,517.42434,491.35356,521.24759,481.17967Z"/>
      </g>
      <g>
        <g>
          <path class="cls-55" d="M542.31932,524.90791l-52.46909,30.1125a28.8647,28.8647,0,0,1-17.995,3.60109l-7.91623-1.00276a87.94861,87.94861,0,0,1-32.95374-11.104l-107.014-61.84394a4.40363,4.40363,0,0,1,2.75675-8.18146l3.85076.48775a28.86463,28.86463,0,0,0,17.99475-3.60113l52.46923-30.11258"/>
          <line class="cls-55" x1="489.85023" y1="555.02041" x2="447.23955" y2="768.40172"/>
          <g>
            <path class="cls-69" d="M453.21794,541.95013l-6.2184.18746.50816.62967L363.51,494.26286a19.2124,19.2124,0,0,0-7.2888-2.4341l-14.50768-1.76353,1.776-.28142-5.38822-3.90639-2.054,5.0857.03371-.00542a2.33811,2.33811,0,0,0,.903,3.17735l86.55511,49.9811a19.21262,19.21262,0,0,0,7.2888,2.43424l17.74659,2.15707a2.321,2.321,0,0,0,2.509-1.50967l.0107.01319Z"/>
            <path class="cls-63" d="M358.29044,486.71705l-17.74663-2.15713a2.40141,2.40141,0,0,0-1.49062,4.46346l86.55521,49.98111a19.21121,19.21121,0,0,0,7.28876,2.43416l17.74663,2.15714a2.40141,2.40141,0,0,0,1.49062-4.46346L365.5792,489.15121A19.21121,19.21121,0,0,0,358.29044,486.71705Z"/>
          </g>
          <path class="cls-58" d="M355.11785,475.62854a6.00453,6.00453,0,0,1-2.99414-11.21191l45.93067-26.36036a6.00358,6.00358,0,0,1,5.97656,10.41407l-45.93067,26.36035A5.97449,5.97449,0,0,1,355.11785,475.62854Z"/>
          <line class="cls-55" x1="349.66547" y1="472.74931" x2="350.77798" y2="472.11083"/>
          <line class="cls-70" x1="496.38884" y1="551.26784" x2="542.31932" y2="524.90791"/>
          <line class="cls-55" x1="489.85023" y1="555.02041" x2="493.3809" y2="552.99412"/>
        </g>
        <g>
          <path class="cls-53" d="M492.76257,760.75416l-.00929.0083a4.79607,4.79607,0,0,0-2.60489-.73585l-41.72457.53544a11.03836,11.03836,0,0,0-10.89667,11.03738v38.1854l4.57827,2.64334,55.08022-49.12332Z"/>
          <path class="cls-71" d="M442.10545,812.42817,499.622,779.221v-11.7181a4.83338,4.83338,0,0,0-4.89541-4.833l-41.72454.53549a11.03829,11.03829,0,0,0-10.89663,11.03739Z"/>
        </g>
      </g>
      <path class="cls-72" d="M528.0974,524.04849l3.281,14.03939-4.87214,2.68936s2.80029,2.04092,5.52949,1.392c4.25387-1.01139,9.237-5.16723,10.117-7.67574,1.44466-4.11792,1.60477-19.0408,1.60477-19.0408l-12.36226.383Z"/>
      <path class="cls-72" d="M528.0974,524.04849a39.20125,39.20125,0,0,0-1.68423,3.99384c-.87555,2.40707.093,6.6255.093,6.6255.42728,1.53874,2.57148,1.83662,2.91953.406l1.64334-5.23954Z"/>
    </g>
    <path class="cls-72" d="M397.05147,445.95723l-11.7169.91288a5.64129,5.64129,0,0,0-3.24851.65522l-7.09932,3.85209s-.94736-3.07408,1.75939-6.82485c3.41329-4.72986,16.594-8.80251,16.594-8.80251Z"/>
    <path class="cls-72" d="M397.05147,445.95723s-6.6517,5.29859-9.24637,5.84554a70.13246,70.13246,0,0,1-7.888.8057c-1.55658-.06618-1.77408-1.93673-.77336-2.35115l8.2747-4.02271Z"/>
    <path class="cls-73" d="M469.26614,393.3715l7.46826-30.10241s-20.59338,1.75247-31.82849,18.20932c-7.14892,10.47155-22.12766,36.05944-22.12766,36.05944l-28.93618,16.51064c-3.06382,1.70157,1.15373,16.25,6.33113,15.23436,0,0,26.69016-5.27692,36.81782-12.85138,8.98078-6.71672,21.66843-20.98471,21.66843-20.98471,4.3606-3.90106,7.52075-6.78558,7.52075-6.78558Z"/>
    <path class="cls-74" d="M488.2967,365.042c-18.91985-6.94293-44.26651,11.25692-41.96864,30.83254l2.25891,36.45572-1.15252,27.04719c-.68086,9.43087,7.12436,15.88185,18.2521,21.74151,20.63417,10.86557,56.75338.94514,55.93508-10.27635l-.22211-28.77545,9.61747-40.15976C525.14465,382.50552,499.90936,369.30342,488.2967,365.042Z"/>
    <path class="cls-75" d="M514.57684,479.6405c4.52539-2.53076,7.27734-5.61108,7.04492-8.79785l-.15967-22.91528-11.96043-24.10908Z"/>
    <path class="cls-76" d="M543.67239,458.42863c-3.87286-27.7844-12.89414-57.31631-12.89414-57.31631-5.40454-15.21534-26.75882,5.70588-21.02395,23.56135l11.71044,47.85819,6.4199,40.58046c.99658,7.15545,17.93166,6.28869,17.87234-1.10639C545.757,512.00593,546.94233,481.8876,543.67239,458.42863Z"/>
    <path class="cls-27" d="M471.86881,692.3694c-1.0784,1.10924,3.41563,4.81558,6.277,3.17221,5.73479-4.05006,10.20011-6.903,14.70785-10.89273-1.0631-5.53445-10.261-8.24781-11.96239-5.02476Z"/>
    <g>
      <g>
        <path class="cls-77" d="M467.02136,409.0962l.85257.63112a.76652.76652,0,0,0,1.19772-.42241l1.88238-7.20849a1.30726,1.30726,0,0,0-.48705-1.381l-.85257-.63113a.76652.76652,0,0,0-1.19772.42241l-1.88239,7.20849A1.3073,1.3073,0,0,0,467.02136,409.0962Z"/>
        <path class="cls-78" d="M500.097,370.36326c1.77584,5.99-5.48442,12.341-12.31722,17.71063-5.79058,4.55054-17.78515,12.41864-17.78515,12.41864s-.85575-14.74021-.06963-21.18431c.75655-6.20177,3.53879-12.84833,11.87056-15.31841S498.32112,364.37322,500.097,370.36326Z"/>
        <ellipse class="cls-72" cx="485.25434" cy="373.38061" rx="12.56474" ry="9.0333" transform="translate(-86.1139 153.32791) rotate(-16.51327)"/>
        <path class="cls-68" d="M469.99459,400.49253s-2.68006-20.19113-3.36822-22.17881c-.45266-1.30745-2.60283-2.92114-4.02147-3.87249a1.53083,1.53083,0,0,1-.42593-2.12106c1.88917-2.84792,6.509-9.49262,9.64025-11.32105a29.62442,29.62442,0,0,1,9.66476-3.03969l-2.27626,8.02288s-4.90824,2.60973-7.15162,10.52654C470.40171,382.34713,469.99459,400.49253,469.99459,400.49253Z"/>
        <path class="cls-79" d="M476.96152,370.3713c-.16524,8.989,18.86016,7.40322,18.559-.78556l-1.50637-15.706-16.93508,3.12145Z"/>
        <path class="cls-68" d="M496.34635,362.73773c2.745.86887,5.422,5.05263,6.49626,8.74658,1.22512,4.2128.25384,12.95356-.31928,17.12605a1.69564,1.69564,0,0,1-2.36926,1.32329c-1.97873-.87409-5.06-1.98269-7.63114-1.79629-3.321.24075-22.52834,12.35517-22.52834,12.35517s18.44822-19.87345,21.08643-24.53941,4.04753-13.48884,4.04753-13.48884Z"/>
      </g>
      <g>
        <path class="cls-72" d="M480.345,371.68629c9.251-.72622,14.71545-4.83158,16.47626-13.17034l3.77739-18.03435c1.72706-7.23257-3.80349-15.15338-12.35734-16.42311-7.476-1.10972-15.61472,1.816-17.34257,12.20378a169.23385,169.23385,0,0,0-1.41054,18.50232C469.4634,363.02831,471.93785,372.34628,480.345,371.68629Z"/>
        <path class="cls-80" d="M476.36435,328.94406c1.58379.63673.5389,1.87825,3.373,3.19,2.39791,1.10987,7.60372.33751,10.94587.60969,3.91465.31879,7.05182,3.49923,6.11292,6.939-.65258,2.39081-1.97583,2.06851-3.29053,3.721-.90867,1.14212-.0168,3.92685-.0168,3.92685l1.165,5.48442,1.81386,6.91975s5.20575,2.08155,6.73194-4.48181c.52816-2.27133,2.72062-2.46038,3.81662-4.59967,1.54348-3.01276.3024-5.29253.54391-7.15976.28725-2.22083,2.1537-5.0692,1.673-7.52108-.66584-3.39663-2.2899-3.97021-4.18674-6.0052-1.57555-1.6903-1.53606-3.35115-3.41644-4.76392-3.02766-2.27475-4.69259-1.42331-6.98479-2.45684-2.29854-1.03637-2.6879-2.45638-5.91775-2.84992-2.08074-.25352-3.97845,1.0383-5.95027,1.08894-2.40505.06177-5.5739-1.13466-8.586,1.06651-2.67057,1.95159-2.2195,4.51634-3.384,6.70692a13.28625,13.28625,0,0,0-1.54235,8.21,57.697,57.697,0,0,0,.85109,6.361,65.343,65.343,0,0,1,1.57957-9.88062C472.63773,329.83724,474.78057,328.30732,476.36435,328.94406Z"/>
        <path class="cls-81" d="M469.5939,350.68475s-1.31961,8.335-1.4941,10.61409-.68783,5.3264,1.27893,8.49848c1.75137,2.82469,8.85248,5.50917,12.656,4.6509a14.37568,14.37568,0,0,0,10.52271-8.2262,22.20737,22.20737,0,0,0,1.90592-5.41491l.1502-2.59026.63855-6.97-1.7632-3.91621c.92052,3.38733-1.49226,9.97186-2.67268,12.36019-1.34812,2.72763-3.72179,7.237-7.27977,6.96667s-1.1748-3.53427-7.94028-6.5375c-3.873-1.71925-3.8096,1.57244-4.84949.78519C469.13488,359.685,469.5939,350.68475,469.5939,350.68475Z"/>
        <path class="cls-72" d="M471.59275,363.66828s.69827-2.18635,2.526-1.55651c4.13678,1.42554,4.15928,4.24486,4.15928,4.24486Z"/>
        <path class="cls-72" d="M495.00286,362.97815c3.02844.54761,6.34239-3.22,6.9638-6.65648s-1.83107-6.86669-4.71348-5.78826C493.63483,351.88719,491.97443,362.43053,495.00286,362.97815Z"/>
      </g>
    </g>
  </g>
  <g>
    <circle class="cls-38" cx="942.64224" cy="173.99535" r="51.44097"/>
    <g>
      <rect class="cls-3" x="925.17812" y="166.82764" width="11.16548" height="33.5616" transform="translate(142.78277 711.92498) rotate(-45)"/>
      <rect class="cls-3" x="946.9169" y="152.57814" width="11.16548" height="50.25593" transform="translate(1500.3614 976.88225) rotate(-135)"/>
    </g>
  </g>
</svg>
