<svg id="Layer_1" data-name="Layer 1" xmlns="http://www.w3.org/2000/svg" xmlns:xlink="http://www.w3.org/1999/xlink" viewBox="0 0 1000 1000">
  <defs>
    <style>
      .cls-1 {
        fill: none;
      }

      .cls-2 {
        fill: url(#linear-gradient);
      }

      .cls-11, .cls-3 {
        fill: #5a9137;
      }

      .cls-4 {
        fill: #fff;
      }

      .cls-5 {
        fill: #b8cbd8;
      }

      .cls-6 {
        fill: #9bb0c4;
      }

      .cls-7 {
        fill: #c7d8e2;
      }

      .cls-8 {
        fill: url(#linear-gradient-2);
      }

      .cls-11, .cls-9 {
        opacity: 0.7;
      }

      .cls-10 {
        fill: url(#linear-gradient-3);
      }

      .cls-12 {
        fill: #87a1af;
      }

      .cls-13 {
        fill: #939393;
      }

      .cls-14 {
        fill: #6b483c;
      }

      .cls-15 {
        fill: url(#linear-gradient-4);
      }

      .cls-16 {
        fill: #366d26;
      }

      .cls-17 {
        fill: url(#linear-gradient-5);
      }

      .cls-18 {
        fill: url(#linear-gradient-6);
      }

      .cls-19 {
        fill: url(#linear-gradient-7);
      }

      .cls-20 {
        fill: url(#linear-gradient-8);
      }

      .cls-21 {
        fill: url(#linear-gradient-9);
      }

      .cls-22 {
        fill: #e2e2e2;
      }

      .cls-23 {
        fill: url(#linear-gradient-10);
      }

      .cls-24 {
        fill: #323f4c;
      }

      .cls-25 {
        fill: #6e8496;
      }

      .cls-26 {
        fill: #b75c5a;
      }

      .cls-27 {
        fill: #aa5d5b;
      }

      .cls-28 {
        fill: #994a4a;
      }

      .cls-29 {
        fill: #455260;
      }

      .cls-30 {
        fill: url(#linear-gradient-11);
      }

      .cls-31 {
        fill: #dd7b19;
      }

      .cls-32 {
        fill: url(#linear-gradient-12);
      }

      .cls-33 {
        fill: url(#linear-gradient-13);
      }

      .cls-34 {
        fill: #a0674a;
      }

      .cls-35 {
        fill: url(#linear-gradient-14);
      }

      .cls-36 {
        fill: url(#linear-gradient-15);
      }

      .cls-37 {
        fill: #515151;
      }

      .cls-38 {
        fill: #e0c390;
      }

      .cls-39 {
        fill: url(#linear-gradient-16);
      }

      .cls-40 {
        fill: #90a0af;
      }

      .cls-41 {
        fill: #ccd8e2;
      }

      .cls-42 {
        fill: url(#linear-gradient-17);
      }

      .cls-43 {
        fill: url(#linear-gradient-18);
      }

      .cls-44 {
        clip-path: url(#clip-path);
      }

      .cls-45 {
        fill: #c6716b;
      }

      .cls-46 {
        fill: #f2f2f2;
      }
    </style>
    <linearGradient id="linear-gradient" x1="79.31392" y1="448.83104" x2="920.68608" y2="448.83104" gradientUnits="userSpaceOnUse">
      <stop offset="0" stop-color="#e6f4ff"/>
      <stop offset="1" stop-color="#c0e3ff"/>
    </linearGradient>
    <linearGradient id="linear-gradient-2" x1="410.16706" y1="720.74224" x2="1000.48295" y2="787.92539" gradientUnits="userSpaceOnUse">
      <stop offset="0.00005" stop-color="#9dcc52"/>
      <stop offset="1" stop-color="#69a642"/>
    </linearGradient>
    <linearGradient id="linear-gradient-3" x1="110.38062" y1="533.51614" x2="937.18117" y2="696.54724" gradientUnits="userSpaceOnUse">
      <stop offset="0.00005" stop-color="#9dcc52"/>
      <stop offset="1" stop-color="#649e3f"/>
    </linearGradient>
    <linearGradient id="linear-gradient-4" x1="415.25204" y1="120.36063" x2="523.34226" y2="330.56922" gradientUnits="userSpaceOnUse">
      <stop offset="0" stop-color="#77bf49"/>
      <stop offset="0.99995" stop-color="#366d26"/>
    </linearGradient>
    <linearGradient id="linear-gradient-5" x1="360.27259" y1="329.01474" x2="436.11489" y2="495.62893" gradientUnits="userSpaceOnUse">
      <stop offset="0" stop-color="#67a63f"/>
      <stop offset="0.99995" stop-color="#366d26"/>
    </linearGradient>
    <linearGradient id="linear-gradient-6" x1="115.68271" y1="450.47206" x2="176.59543" y2="623.05809" xlink:href="#linear-gradient-5"/>
    <linearGradient id="linear-gradient-7" x1="801.74315" y1="393.08563" x2="885.94602" y2="585.9759" xlink:href="#linear-gradient-4"/>
    <linearGradient id="linear-gradient-8" x1="736.43564" y1="498.10132" x2="795.5568" y2="636.64789" xlink:href="#linear-gradient-5"/>
    <linearGradient id="linear-gradient-9" x1="294.34801" y1="479.54212" x2="324.23957" y2="538.34519" xlink:href="#linear-gradient-5"/>
    <linearGradient id="linear-gradient-10" x1="507.28941" y1="826.35532" x2="507.28941" y2="908.20433" xlink:href="#linear-gradient-5"/>
    <linearGradient id="linear-gradient-11" x1="473.71723" y1="404.82006" x2="528.52574" y2="537.2456" gradientUnits="userSpaceOnUse">
      <stop offset="0.00005" stop-color="#ffcb48"/>
      <stop offset="1" stop-color="#e68e2b"/>
    </linearGradient>
    <linearGradient id="linear-gradient-12" x1="507.23044" y1="390.94956" x2="562.03895" y2="523.37509" xlink:href="#linear-gradient-11"/>
    <linearGradient id="linear-gradient-13" x1="529.29302" y1="381.81826" x2="584.10153" y2="514.24379" xlink:href="#linear-gradient-11"/>
    <linearGradient id="linear-gradient-14" x1="593.9579" y1="658.86866" x2="697.86616" y2="658.86866" gradientTransform="translate(-252.06651)" gradientUnits="userSpaceOnUse">
      <stop offset="0.00005" stop-color="#e6ac72"/>
      <stop offset="1" stop-color="#b3703f"/>
    </linearGradient>
    <linearGradient id="linear-gradient-15" x1="582.63141" y1="621.7189" x2="698.82732" y2="682.67821" xlink:href="#linear-gradient-14"/>
    <linearGradient id="linear-gradient-16" x1="619.72816" y1="616.51974" x2="639.11993" y2="616.51974" gradientTransform="translate(-252.06651)" xlink:href="#linear-gradient-11"/>
    <linearGradient id="linear-gradient-17" x1="504.15957" y1="362.36704" x2="542.81137" y2="362.36704" gradientUnits="userSpaceOnUse">
      <stop offset="0.00005" stop-color="#c6c6c6"/>
      <stop offset="1" stop-color="#a9b0b3"/>
    </linearGradient>
    <linearGradient id="linear-gradient-18" x1="504.15957" y1="383.12694" x2="542.81137" y2="383.12694" xlink:href="#linear-gradient-17"/>
    <clipPath id="clip-path">
      <circle class="cls-1" cx="1292.54335" cy="288.28891" r="196.04503"/>
    </clipPath>
  </defs>
  <path class="cls-2" d="M79.34318,582.50156S76.916,493.18774,116.27249,454.91318s101.191-29.83447,150.323-53.496,68.673-70.454,112.94076-112.54122,137.15895-27.051,188.88842,3.59733,84.58457,73.86257,134.86125,101.30245,124.53069,34.14994,152.8969,43.40629,64.50325,29.24171,64.50325,69.11385V608.247L79.34318,634.70046Z"/>
  <path class="cls-3" d="M79.34318,577.088s21.42047-26.66578,59.02509-30.45568,39.07465,2.74482,54.19441,0,13.60385-4.9883,51.955-15.36235,99.43105-18.229,99.43105-18.229L79.31392,643.21032Z"/>
  <path class="cls-4" d="M500.00631,431.57193q26.90507-15.31458,58.96574,7.99895c11.73914-9.70807,38.27648-9.70807,52.067,12.54083,0,0,10.86655-12.90471,36.93273-11.38763,42.32538,2.46338,57.721,39.794,57.721,39.794,17.07625-17.62358,66.11994-8.44188,76.44291,33.81255,26.17335-17.23562,59.32356-4.3669,54.447,42.58667l84.1034,12.24225v61.80849H752.9462Z"/>
  <path class="cls-5" d="M120.18373,698.04762,478.974,905.18614a42.10143,42.10143,0,0,0,42.1011-.00061L887.80371,693.4498a21.92256,21.92256,0,0,0,.00026-37.97061L500.00652,431.572,120.18213,650.88832A27.22767,27.22767,0,0,0,120.18373,698.04762Z"/>
  <ellipse class="cls-6" cx="540.13193" cy="704.69372" rx="66.82963" ry="38.40783"/>
  <ellipse class="cls-6" cx="410.41367" cy="699.24087" rx="68.952" ry="39.62759"/>
  <path class="cls-7" d="M580.05931,481.71029l-31.94851,17.169,1.73895,2.51848a9.0369,9.0369,0,0,0,7.14774,3.8976l24.93255.79693a9.03687,9.03687,0,0,0,5.75935-1.8394l0,0a9.0369,9.0369,0,0,0,1.06609-13.43282Z"/>
  <path class="cls-7" d="M402.25333,851.28994l53.97046-31.83584-7.90891-4.25864a15.72082,15.72082,0,0,0-7.97719-1.87036l-21.17905.70627a15.72081,15.72081,0,0,0-12.62807,7.1l-6.11869,9.34425a15.72077,15.72077,0,0,0-.72111,16.00663Z"/>
  <path class="cls-7" d="M461.149,813.47844l2.01709.97425,26.57467-15.37748-.3353-1.40824a6.32783,6.32783,0,0,0-6.15576-4.86218h-8.72643a6.32782,6.32782,0,0,0-3.99509,1.42062L459.906,802.8732A6.32783,6.32783,0,0,0,461.149,813.47844Z"/>
  <path class="cls-8" d="M546.99683,890.21926l-25.91924,14.96483a42.10145,42.10145,0,0,1-42.10484-.00154l-60.42257-34.8917S503.678,808.41656,577.746,764.14c63.00286-37.662,110.92683-85.84513,150.04235-112.41979,43.47722-29.538,79.03487-42.99775,79.03487-42.99775,24.65112-3.35862,73.135-11.75652,113.86283-10.0065C788.03937,712.70651,661.76727,813.43084,546.99683,890.21926Z"/>
  <g class="cls-9">
    <ellipse class="cls-3" cx="774.47834" cy="670.63973" rx="36.44972" ry="20.94811"/>
  </g>
  <path class="cls-3" d="M919.12044,598.661c-31.35069-1.14458-67.0089,3.54635-92.78663,7.258a16.27908,16.27908,0,0,0-.29294,3.034c0,15.319,21.60812,27.73742,48.26307,27.73742.62464,0,1.24361-.0136,1.86247-.02709q21.65364-18.30567,43.54966-37.11564C919.5287,599.249,919.32505,598.95489,919.12044,598.661Z"/>
  <path class="cls-3" d="M79.34318,634.70046v27.61648A21.05072,21.05072,0,0,0,89.867,680.54648l72.83128,42.05763-12.59478-82.778Z"/>
  <path class="cls-10" d="M162.69823,722.60411s81.5061-34.76645,143.18-72.67547c54.69711-33.6206,101.60051-70.79891,150.49025-106.74655,44.77344-32.921,119.55948-67.77444,119.55948-67.77444L500.00652,431.572C343.72008,515.595,283.92859,535.03785,205.55142,567.9652c-65.33077,27.44638-126.20824,66.73526-126.20824,66.73526s23.5283,17.73609,39.318,37.47326C133.59081,690.83571,162.69823,722.60411,162.69823,722.60411Z"/>
  <g class="cls-9">
    <ellipse class="cls-3" cx="152.79155" cy="630.4774" rx="37.56125" ry="21.58693"/>
  </g>
  <g class="cls-9">
    <ellipse class="cls-3" cx="405.67506" cy="514.51814" rx="36.44972" ry="20.94811"/>
  </g>
  <path class="cls-11" d="M496.64448,475.86127c20.13067,0,36.44977-9.37875,36.44977-20.948a12.64147,12.64147,0,0,0-1.00763-4.81888L505.1974,434.56907a62.28972,62.28972,0,0,0-8.55292-.604c-.39252,0-.77315.02666-1.16267.03373q-18.39144,9.85836-35.03988,18.551a12.288,12.288,0,0,0-.24712,2.36346C460.19481,466.48252,476.51391,475.86127,496.64448,475.86127Z"/>
  <path class="cls-12" d="M159.31176,715.51323c.81287-.346,81.98182-35.15306,142.4324-72.31045,42.10914-25.8817,80.25929-54.40844,117.15372-81.99639,10.713-8.01051,21.79164-16.2934,32.795-24.38443,44.88781-33.00481,117.81755-67.13343,120.9003-68.57073l12.169,12.26692s-2.52359,1.16418-5.24321,2.44171-74.86009,34.51421-118.4742,66.582c-10.95193,8.05334-22.00407,16.31739-32.69217,24.30906-37.1771,27.79867-75.61933,56.54468-118.34091,82.80326-50.7981,31.22421-133.68725,68.6046-138.75612,70.882Z"/>
  <polygon class="cls-12" points="584.762 467.75 584.762 480.518 567.606 470.624 567.606 457.856 584.762 467.75"/>
  <path class="cls-7" d="M584.76213,467.75035c-.14037.07013-8.42659,3.37-13.56646,5.87852-20.64728,10.01667-75.23237,36.20234-110.15908,61.88424-10.94636,8.05184-21.998,16.31429-32.68125,24.296-37.17206,27.80455-75.62468,56.55624-118.34005,82.81707C257.96731,674.6057,191.02607,704.796,171.25591,713.497l-17.15628-9.89386,5.21-2.12265c.807-.35087,81.99253-35.15466,142.44321-72.30917,42.10144-25.8924,80.25587-54.41614,117.1473-81.99253,10.7183-8.01683,21.78746-16.29683,32.7865-24.38379,38.25968-28.13775,115.70871-64.8508,115.91921-64.93849l8.33258,4.80657Z"/>
  <path class="cls-3" d="M546.99683,890.21926s53.59147-38.4426,108.23376-81.14122S743.06888,715.70373,788.578,674.45561s132.10812-75.73969,132.10812-75.73969v63.5953a21.05072,21.05072,0,0,1-10.52518,18.23035Z"/>
  <path class="cls-12" d="M418.55018,870.29085l-13.281-19.26876c.96363-.54991,97.12573-55.50483,168.25242-100.56823,36.54153-23.14928,68.55874-48.90935,96.8071-71.63549,18.99327-15.281,36.93383-29.71392,53.02338-40.64529,36.3956-24.72649,67.04621-38.27251,77.17363-42.45056l9.09268,13.36706c-.34519.1302-35.29353,13.54215-77.39411,42.14426-15.56276,10.57162-33.26092,24.811-51.99894,39.88639-28.57385,22.98825-60.96023,49.043-98.25467,72.67191C510.534,809.05085,445.31893,851.3222,418.55018,870.29085Z"/>
  <polygon class="cls-12" points="418.55 856.257 418.55 870.291 401.394 860.397 401.394 846.363 401.517 846.433 418.55 856.257"/>
  <polygon class="cls-13" points="812.14 600.97 812.14 608.023 809.618 609.09 794.984 605.11 794.984 591.077 812.14 600.97"/>
  <path class="cls-7" d="M418.55018,856.257l-17.03347-9.82373c.96362-.54991,100.87824-57.93295,172.00493-102.99636,36.54153-23.14928,68.55874-48.90934,96.8071-71.63548,18.99327-15.281,36.93383-29.71393,53.02338-40.6453a460.31851,460.31851,0,0,1,71.62921-40.08523l17.15877,9.89949c-.3452.13019-37.8152,14.64439-79.91578,43.24651-15.56276,10.57161-33.26092,24.811-51.99894,39.88638-28.57385,22.98825-60.96023,49.043-98.25467,72.67192C510.534,802.03394,419.51552,855.70542,418.55018,856.257Z"/>
  <g>
    <path class="cls-14" d="M536.90627,335.17091l-11.59721,27.90637s-9.569,13.17994-17.86458,19.25609l.48534-27.02864H500.5746l-3.17084,30.51216c-.38319,1.551-3.36624,2.284-5.54487,1.78247C483.363,385.64359,459.5854,357.364,459.5854,357.364l-1.97082-21.58417L430.799,329.33511s12.75255,28.868,16.38207,35.5798c2.53715,4.69165,20.52662,25.20439,31.12528,37.12674a30.43942,30.43942,0,0,1,7.31654,21.22561l-1.005,28.67572a5.327,5.327,0,0,0,2.7382,4.74164c3.69206,2.45352,12.50753,2.46577,16.17659.02779a5.40068,5.40068,0,0,0,2.73668-4.40274h.00285l-.00057-.01662-.00019-.00876-.94206-27.24269a30.351,30.351,0,0,1,7.67245-21.60306c9.19946-9.93363,23.52441-25.83956,28.22526-33.49012,7.12332-11.59287,15.07484-48.50729,15.07484-48.50729Z"/>
    <path class="cls-15" d="M601.07428,254.537c0-20.09683-8.3106-37.61784-20.63241-46.92564-2.984-15.28037-10.90491-27.93043-21.37641-34.83066-.01939-10.33044-4.23666-19.24267-11.4459-22.23486a13.48715,13.48715,0,0,0-1.88034-.624c-6.58879-15.43746-17.7562-27.0056-31.07616-31.46609-4.7191-8.549-11.88633-13.95558-19.83215-13.74839-8.09656.21135-15.1524,6.20754-19.51261,15.2773-9.73264-3.17356-20.94415,5.398-25.44522,19.76515a40.97139,40.97139,0,0,0-1.7526,9.23648c-9.11277,3.53479-17.49427,13.23379-21.665,26.54613a55.88539,55.88539,0,0,0-2.51751,14.55508c-7.22368,3.4046-12.44042,11.2568-13.09889,20.6018-6.20975,2.40495-11.93061,7.7091-15.60423,15.31406a37.29893,37.29893,0,0,0-3.23775,22.50441A50.61819,50.61819,0,0,0,379.69794,282.143c0,15.6569,6.64734,29.51972,16.86489,38.0762a24.3798,24.3798,0,0,0,6.16642,9.70557,20.41214,20.41214,0,0,0,16.24064,5.3827c5.29013,12.5735,18.4124,17.9508,28.31669,19.39963,6.62635,13.88107,23.57932,23.85907,40.15565,23.85907,14.35917,0,27.53561-5.81,37.86683-15.48887,13.05668.82029,31.11348-7.6075,32.29577-28.07789A52.20747,52.20747,0,0,0,580.74677,301.231C592.90073,291.86561,601.07428,274.46779,601.07428,254.537Z"/>
    <path class="cls-16" d="M540.65174,259.65673c-1.39144,16.0166-20.01463,24.32081-29.22206,17.40789,5.06905,20.70726-21.04357,36.26619-35.78234,30.20257-13.51765,13.7287-35.68288,8.2373-43.03814-2.63118-3.97586,13.95733-23.55665,22.99535-36.04637,15.58317a24.3798,24.3798,0,0,0,6.16642,9.70557,20.41214,20.41214,0,0,0,16.24064,5.3827c5.29012,12.57348,18.41239,17.95093,28.31668,19.39976,6.62624,13.881,23.57933,23.85894,40.15566,23.85894,14.35917,0,27.53561-5.81,37.86683-15.48887,13.05669.82025,31.11343-7.60758,32.29577-28.07789A52.20747,52.20747,0,0,0,580.74677,301.231c12.154-9.36535,20.32751-26.76317,20.32751-46.69394,0-20.09683-8.3106-37.61784-20.63241-46.92564-2.984-15.28037-10.90491-27.93043-21.37641-34.83066a22.34894,22.34894,0,0,1-3.10678,31.98025C561.963,228.01014,560.3244,247.85273,540.65174,259.65673Z"/>
  </g>
  <g>
    <path class="cls-14" d="M412.33092,509.04422V427.98991H399.019V509.07h.00608a3.3524,3.3524,0,0,0,1.95879,2.688,10.4057,10.4057,0,0,0,9.41471.01693A3.2658,3.2658,0,0,0,412.33092,509.04422Z"/>
    <path class="cls-17" d="M448.33779,400.99254a66.11991,66.11991,0,0,0,.14422-8.82539c-.82958-16.09547-7.14008-29.26644-14.88052-32.50592.07-.27056.17615-.52382.22923-.8015,1.2061-6.28243-2.41144-11.95738-8.08-12.67523-.04808-.006-.095.00327-.14269-.00212-2.143-16.0772-10.24264-24.74125-19.933-24.74125-9.48882,0-17.44925,8.31215-19.78915,23.75187-8.44618,4.50154-15.83856,17.96-18.06846,34.64775-.29922,2.238-.47,4.43405-.56575,6.594a12.67877,12.67877,0,0,0-7.33045,9.28268,11.67625,11.67625,0,0,0,.99649,7.50161,26.831,26.831,0,0,0-5.90282,17.20869,29.10273,29.10273,0,0,0,1.17456,8.17618c-3.77368,5.5465-5.37092,13.35751-3.80329,21.681,1.8553,9.85131,7.68082,17.924,14.83782,21.87445a31.63258,31.63258,0,0,0,18.22038,15.14859c4.71441,7.52756,12.01449,12.37889,20.23067,12.37889s15.51665-4.85133,20.23145-12.37889a31.62611,31.62611,0,0,0,18.18307-15.08051,20.59369,20.59369,0,0,0,12.40639-15.34685,18.92509,18.92509,0,0,0-1.92684-12.89329,34.53184,34.53184,0,0,0,5.50592-13.09541C462.4968,418.27661,457.48586,406.61846,448.33779,400.99254Z"/>
    <path class="cls-16" d="M460.06883,430.90223a33.92482,33.92482,0,0,1-5.51361,13.075,18.92122,18.92122,0,0,1,1.953,12.91771,20.747,20.747,0,0,1-12.41332,15.34358,31.57152,31.57152,0,0,1-18.17922,15.05993c-4.72595,7.53007-12.03564,12.382-20.22683,12.382-8.2235,0-15.5328-4.85191-20.25875-12.382a31.56985,31.56985,0,0,1-18.21076-15.15454c18.70613,5.019,31.091-3.109,31.7898-22.81057,14.93938,7.98724,31.9637-4.079,27.94649-21.70792,13.53615-4.09037,16.61975-24.33488,4.82057-33.71183,10.18572-7.84312,13.20718-22.867,1.82684-34.24738,7.75083,3.24525,14.0521,16.41488,14.87129,32.51457a68.27222,68.27222,0,0,1-.12615,8.82174C457.48509,406.61076,462.49488,418.26815,460.06883,430.90223Z"/>
  </g>
  <g>
    <path class="cls-14" d="M157.857,630.84773V547.32166H144.13916v83.55267h.00626a3.45464,3.45464,0,0,0,2.01852,2.77,10.723,10.723,0,0,0,9.70181.01744A3.3654,3.3654,0,0,0,157.857,630.84773Z"/>
    <path class="cls-18" d="M194.9619,517.82227a68.13638,68.13638,0,0,0,.14862-9.09452c-.85488-16.5863-7.35781-30.15893-15.3343-33.49719.07213-.27882.18152-.5398.23621-.826,1.24289-6.474-2.485-12.322-8.32644-13.06176-.04954-.00614-.09789.00337-.147-.00218-2.20833-16.56747-10.555-25.49573-20.54085-25.49573-9.77819,0-17.98137,8.56562-20.39262,24.47618-8.70375,4.63881-16.32156,18.5077-18.61946,35.70434-.30834,2.30623-.48431,4.56926-.583,6.795a13.06539,13.06539,0,0,0-7.554,9.56576,12.03228,12.03228,0,0,0,1.02689,7.73036,27.64912,27.64912,0,0,0-6.08284,17.73347,29.99005,29.99005,0,0,0,1.21039,8.42552c-3.88877,5.71564-5.53471,13.76485-3.91928,22.34216,1.91188,10.15173,7.915,18.47064,15.2903,22.54152a32.59716,32.59716,0,0,0,18.776,15.61054c4.85818,7.75711,12.38087,12.75639,20.84761,12.75639s15.98983-4.99928,20.8484-12.75639a32.59058,32.59058,0,0,0,18.73757-15.54039,21.22172,21.22172,0,0,0,12.78473-15.81485,19.5023,19.5023,0,0,0-1.9856-13.28648,35.58514,35.58514,0,0,0,5.67382-13.49475C209.55269,535.63342,204.38894,523.61975,194.9619,517.82227Z"/>
    <path class="cls-16" d="M207.05068,548.64405a34.95944,34.95944,0,0,1-5.68175,13.47375,19.49828,19.49828,0,0,1,2.01255,13.31164,21.37972,21.37972,0,0,1-12.79186,15.81148,32.53437,32.53437,0,0,1-18.7336,15.51919c-4.87007,7.75969-12.40267,12.75956-20.84365,12.75956-8.47427,0-16.00647-4.99987-20.87654-12.75956a32.53263,32.53263,0,0,1-18.7661-15.61669c19.27658,5.172,32.0391-3.20381,32.75923-23.50617,15.395,8.2308,32.93844-4.20342,28.79873-22.3699,13.94893-4.21512,17.12656-25.077,4.96756-34.73988,10.49634-8.0823,13.60994-23.56438,1.88256-35.29176,7.98718,3.34421,14.48061,16.91545,15.32479,33.50611a70.35556,70.35556,0,0,1-.13,9.09076C204.38815,523.61182,209.55071,535.6247,207.05068,548.64405Z"/>
  </g>
  <g>
    <path class="cls-14" d="M864.02277,612.96744V518.94682H848.58136v94.05057h.007a3.88867,3.88867,0,0,0,2.27214,3.118,12.07027,12.07027,0,0,0,10.92078.01963A3.78824,3.78824,0,0,0,864.02277,612.96744Z"/>
    <path class="cls-19" d="M905.78968,485.17323a76.69639,76.69639,0,0,0,.16729-10.2372c-.96228-18.67027-8.28228-33.94821-17.261-37.70591.08119-.31385.20432-.60762.26589-.92972,1.399-7.28743-2.79719-13.87021-9.37261-14.7029-.05576-.00691-.11019.0038-.16551-.00245-2.4858-18.64908-11.88116-28.69912-23.12169-28.69912-11.00676,0-20.24062,9.64184-22.95484,27.55147-9.79732,5.22165-18.37226,20.83307-20.95888,40.19037-.34708,2.596-.54516,5.14336-.65625,7.64879A14.707,14.707,0,0,0,803.229,479.0542a13.544,13.544,0,0,0,1.15591,8.70163,31.12313,31.12313,0,0,0-6.84711,19.96158,33.75837,33.75837,0,0,0,1.36246,9.48414c-4.37736,6.43377-6.23011,15.49431-4.41171,25.14932,2.1521,11.42723,8.90953,20.79136,17.21144,25.37372a36.69281,36.69281,0,0,0,21.1351,17.57191c5.46858,8.73175,13.93645,14.35915,23.467,14.35915s17.99885-5.6274,23.46788-14.35915a36.68534,36.68534,0,0,0,21.09183-17.493,23.88806,23.88806,0,0,0,14.391-17.80189,21.95254,21.95254,0,0,0-2.23508-14.95584,40.05607,40.05607,0,0,0,6.38671-15.19028C922.21371,505.22224,916.40117,491.69912,905.78968,485.17323Z"/>
    <path class="cls-16" d="M919.39734,519.86758a39.35175,39.35175,0,0,1-6.39563,15.16664,21.94807,21.94807,0,0,1,2.26542,14.98417,24.066,24.066,0,0,1-14.39909,17.7981,36.62206,36.62206,0,0,1-21.08736,17.46908c-5.482,8.73465-13.961,14.36272-23.46253,14.36272-9.539,0-18.01759-5.62807-23.49955-14.36272a36.62014,36.62014,0,0,1-21.12395-17.57883c21.69856,5.82185,36.06462-3.60635,36.87523-26.45958,17.32924,9.26495,37.077-4.73156,32.41712-25.18055,15.70153-4.74472,19.27842-28.22775,5.59171-39.10473,11.81513-9.0978,15.31994-26.52511,2.11908-39.726,8.99073,3.76439,16.3,19.04077,17.25026,37.71595a79.19322,79.19322,0,0,1-.14633,10.233C916.40028,491.6902,922.21148,505.21242,919.39734,519.86758Z"/>
  </g>
  <g>
    <path class="cls-14" d="M779.61141,669.76993V613.6285H769.34514v56.15932h.00468c.0154.67356.51671,1.34621,1.51064,1.86183a8.84183,8.84183,0,0,0,7.26072.01172C779.12582,671.14035,779.62111,670.45506,779.61141,669.76993Z"/>
    <path class="cls-20" d="M730.39282,593.31067a20.91606,20.91606,0,0,1,5.35147-14.31134,25.54567,25.54567,0,0,1-2.31055-7.97962c-.96822-7.79645,1.64779-14.95212,6.31949-19.20887-.49251-4.95862,1.2741-9.44426,4.6717-11.83967a22.67071,22.67071,0,0,1-.28866-3.6007c0-9.7647,6.08184-17.82049,13.91308-18.91907-.017-.32034-.034-.6255-.034-.94594,0-13.41112,7.05028-24.2743,15.73092-24.2743,7.6276,0,13.9811,8.37623,15.42525,19.46831,3.14274,1.40364,5.58912,5.05016,6.42152,9.62734,4.41684,2.68521,8.375,7.62865,10.53248,13.8231a24.91806,24.91806,0,0,1,.76438,14.96739,12.14579,12.14579,0,0,1,5.06239,10.23758,13.29877,13.29877,0,0,1-1.91944,6.95732v.01527c6.914,3.43289,10.29462,13.07551,7.61059,23.23682A27.52207,27.52207,0,0,1,812.479,600.8325c4.298,5.11116,5.0794,13.47221,1.37613,21.45174a25.99257,25.99257,0,0,1-10.92339,11.87012,29.85256,29.85256,0,0,1-14.55863,12.20583c-3.95834,5.85884-10.34585,9.18492-16.41048,7.88808a13.03447,13.03447,0,0,1-8.8679-7.12522,28.935,28.935,0,0,1-11.34787-6.46907c-6.81221-2.74629-12.87684-9.04756-15.76493-17.3628a27.4368,27.4368,0,0,1-.79838-16.29477A21.129,21.129,0,0,1,730.39282,593.31067Z"/>
    <path class="cls-16" d="M817.64305,590.56625a27.43935,27.43935,0,0,1-5.1611,10.26646c4.301,5.11616,5.08479,13.477,1.37626,21.443a25.9461,25.9461,0,0,1-10.934,11.88026,29.82687,29.82687,0,0,1-14.54689,12.20646c-3.95681,5.85437-10.34157,9.185-16.42017,7.88019a13.03214,13.03214,0,0,1-8.86964-7.12479,28.70685,28.70685,0,0,1-11.33561-6.47239c14.45,2.08382,23.00257-2.50867,23.43566-16.29246,5.56717,2.88245,11.66787-1.647,8.17013-7.85671,11.95738.58444,16.43122-13.44222,8.67076-20.522,13.12908-2.70963,15.56936-18.0513,4.18606-22.59506,8.22934-3.69856,12.15606-11.60151,10.66675-23.26085a12.12674,12.12674,0,0,1,5.06543,10.2322,13.37561,13.37561,0,0,1-1.91156,6.97023c5.31418,2.62665,8.52569,8.9274,8.52569,16.30965A26.95755,26.95755,0,0,1,817.64305,590.56625Z"/>
  </g>
  <polygon class="cls-12" points="171.256 713.497 171.256 727.531 154.1 717.637 154.1 703.603 154.222 703.673 171.256 713.497"/>
  <path class="cls-21" d="M264.412,544.91394c3.919,5.09472,12.33558,7.63275,26.0708,3.45247,7.91268,6.569,29.39529,5.94812,33.44227-6.49437,6.793,2.762,17.169-4.62818,14.28574-9.86029,12.43822,3.45451,22.81429-6.413,19.42469-14.09284,20.484-9.5638,8.16706-28.26311-2.65689-26.88212,1.19249-11.52929-9.219-17.50494-17.72888-11.06655-5.71057-9.79755-23.5141-6.71832-23.43273,6.40679-15.04828-8.77687-32.96379,5.10765-25.29731,24.29114-7.47986-6.84792-16.8855.87814-14.078,9.289C261.68607,522.38653,260.493,539.81922,264.412,544.91394Z"/>
  <polygon class="cls-22" points="546.782 503.649 549.828 509.74 541.169 522.729 521.852 521.236 523.85 515.861 546.782 503.649"/>
  <polygon class="cls-22" points="554.008 510.785 549.828 518.698 556.397 518.698 568.116 513.189 566.101 509.964 554.008 510.785"/>
  <path class="cls-23" d="M442.70791,883.83648,478.709,905.043a42.10143,42.10143,0,0,0,42.65839.046l52.049-30.50876c2.3708-9.29742-9.34893-15.79179-16.44049-9.10358,3.20987-10.122-7.13541-19.01629-16.18066-8.95979-1.95878-17.58477-22.18837-23.10872-33.62821-10.29569-11.55172-9.37922-24.24187-1.54119-24.73039,11.09368-4.66219-8.90247-22.80164-6.06585-19.72537,8.84844C447.15019,856.51687,436.3449,869.66836,442.70791,883.83648Z"/>
  <g>
    <path class="cls-24" d="M522.73689,689.73482c2.77378,2.75286,4.46527,15.14357,2.57291,18.29464-1.22826,2.04525-5.31783,4.04525-11.32708,6.35742-5.53672,2.13036-8.6275,9.39283-24.04354,6.233-7.92826-1.62507-7.80969-8.22712-5.029-10.65356l11.7539-8.83625,7.9744-7.63684S519.96312,686.982,522.73689,689.73482Z"/>
    <path class="cls-25" d="M507.83669,684.25282l-3.73888,9.99862,11.7329,5.20823s6.57416-3.72481,6.68019-5.33094a7.58542,7.58542,0,0,0-.66678-3.24137l-.07107-7.73476C517.77521,687.37034,512.78732,685.702,507.83669,684.25282Z"/>
    <g>
      <path class="cls-26" d="M460.44473,512.895l-.9344-4.6903a7.68489,7.68489,0,0,1,1.64855-4.06958L469.34465,493.9l9.51093,4.59444-1.34252,7.46129-.87617,4.39969a3.93537,3.93537,0,0,1-2.3672,2.87268l-5.15887,2.11425C467.54627,515.98354,461.93116,517.78724,460.44473,512.895Z"/>
      <polygon class="cls-27" points="462.215 510.48 466.715 512.704 465.258 508.773 462.215 510.48"/>
      <path class="cls-28" d="M474.76355,505.56474l-3.63165-1.72043.2126,5.64864c.15486,2.30908-1.20026,3.76515-2.55448,3.95935-1.04011.15178-2.41393-.35118-2.86312-2.402l-2.03482-6.90983a.74208.74208,0,0,1,.51375-.94256.7599.7599,0,0,1,.94256.51374l2.04735,6.95967c.21307.89646.63819,1.35636,1.1774,1.27935.58124-.08434,1.35661-.87071,1.2556-2.3793l-.28311-7.52139a.75889.75889,0,0,1,1.49066-.22721.74162.74162,0,0,1,.026.1711l.00528.14039,4.34614,2.05965c.85706.40694,2.00568,1.46739,1.94322,2.5455l-.35411,1.778A4.079,4.079,0,0,0,474.76355,505.56474Z"/>
      <path class="cls-29" d="M483.72606,512.00355c2.2113,1.15829,3.4899-5.7755.98008-7.98775-2.57087-1.72017-6.96854-1.44126-11.94489-.52932l2.316,1.09757c.93093.44209,2.17864,1.59391,2.11082,2.765l-.3847,1.93136C478.28012,509.67926,483.72606,512.00355,483.72606,512.00355Z"/>
      <path class="cls-29" d="M464.772,512.03183l-1.38565-4.70569a2.17083,2.17083,0,0,0-.2356.51294c-12.4834,52.56058-31.324,78.25251-82.17287,104.1662a2.24422,2.24422,0,1,0,2.03779,3.99919c50.60668-25.79108,70.11716-50.90173,83.16431-101.71992A3.33979,3.33979,0,0,1,464.772,512.03183Z"/>
    </g>
    <path class="cls-30" d="M480.54544,453.94646s4.50151-32.15555,10.676-48.57919c4.95775-13.18711,17.6734-16.69454,17.6734-16.69454l-.4028,4.98347,2.61-1.93744L505.3839,432.1254l-3.64779,25.7754c-8.00719,16.6325-12.4645,30.73441-20.98332,41.24678-2.11492,2.42593-15.17752-1.55509-12.50288-7.09119Z"/>
    <path class="cls-24" d="M496.6641,701.13006l6.04111-7.33817c2.23727-2.50565,10.02592-2.3884,13.1255,5.66778,0,0-7.26622,5.20319-11.90688,5.47168S495.43713,702.36076,496.6641,701.13006Z"/>
    <path class="cls-24" d="M491.32741,501.94805c-3.46448,32.42137-4.52012,67.29673-3.64927,86.57978.75017,16.61089,12.1344,97.81559,12.1344,97.81559.941,8.86966,26.533,9.26482,26.68051-.2807,0,0,.02746-86.86117.425-89.02886l10.45331-64.04055Z"/>
    <g>
      <path class="cls-24" d="M591.21926,678.72177c.96885-.95261,5.60253,4.12336,7.92591,7.52955,1.75762,2.57675,3.85568,5.87353-2.3172,16.70287-3.10332,5.4443-5.7424,18.77284-15.28459,21.763-10.66021,3.34048-17.3082-1.82826-13.28572-8.75357l4.86071-9.80966,5.92226-17.12313Z"/>
      <path class="cls-25" d="M574.36488,681.88112l3.9827,7.77633-.20735,4.49937,10.92706,1.45142s3.9162-10.18544,3.77117-12.95216a4.86785,4.86785,0,0,0-1.30377-2.37061l-1.82463-2.19785Z"/>
      <path class="cls-24" d="M574.36488,704.51321c0,1.73337,5.83963,3.86137,8.481,1.66105s6.22137-10.566,6.22137-10.566c-1.8972-6.15814-10.84168-7.62445-11.65058-4.38882C577.41671,691.21942,574.36488,702.77983,574.36488,704.51321Z"/>
    </g>
    <path class="cls-29" d="M592.92282,666.41874l-18.96834-66.23107-6.38882-60.48183-7.67225-66.77246L495.18,465.75564l-3.85254,36.19241,28.054,40.67368c2.19326,13.26338,11.28514,58.21925,16.62643,72.93076s27.16417,55.72682,33.1907,65.81117C573.65406,689.93828,599.19892,684.0814,592.92282,666.41874Z"/>
    <path class="cls-31" d="M492.64853,489.53789l1.37422-12.91179,66.91019,1.528.88839,11.55735.23126,3.6946s-10.01476,13.72821-40.37,11.63011C499.67573,503.515,493.86977,492.65422,492.64853,489.53789Z"/>
    <path class="cls-32" d="M531.9129,385.85615c-19.80141-2.4052-37.10211,5.86265-39.31562,25.5665-1.24028,10.55137,2.8281,37.38007,2.8281,37.38007l-1.71587,28.53221c-2.258,28.24033,67.64635,25.2608,67.64635,3.65228l-2.03314-26.91552,10.192-35.99419C564.66283,404.766,544.10538,387.33712,531.9129,385.85615Z"/>
    <g>
      <path class="cls-26" d="M571.10368,516.331s1.454,9.02522,1.25892,11.60757a20.82555,20.82555,0,0,1-3.49125,9.36509c-2.17323,3.2909-6.30035,5.08918-6.4779,5.18475a1.60389,1.60389,0,0,1-1.65342.12787,2.04657,2.04657,0,0,1-.84662-1.5816l.19613-8.02383.79862-16.57208Z"/>
      <path class="cls-26" d="M560.88155,516.57584s-3.18653,6.29718-3.85855,8.14424-.93135,2.8142-.72964,3.92885l.92041,5.08616c.44865,1.45271,2.3606,1.61126,3.09022-.1855Z"/>
    </g>
    <path class="cls-33" d="M569.51471,418.07748c4.22974,9.57,12.03485,35.26827,12.62958,51.08807.622,16.5461-6.61562,48.32654-6.61562,48.32654-1.14469,4.98175-16.81994,2.35129-16.33742-3.3535l2.92356-39.99677-14.297-38.51228C543.38017,417.39031,563.46013,404.67367,569.51471,418.07748Z"/>
    <g>
      <path class="cls-34" d="M341.89139,648.90591c-1.04442,10.06819,1.53047,23.24932,26.06779,32.93356L362.864,700.06685l-4.35644,3.72232c-5.11228,3.66221-1.07818,8.96793,4.16534,6.66473s6.71333-8.69885,6.71333-8.69885,9.932-13.42769,8.80082-23.5101S367.50045,656.361,367.50045,656.361Z"/>
      <path class="cls-34" d="M416.76448,632.057l.05706-6.44868,8.52877-8.75944s18.83536-1.92538,24.1682.58365,12.337,18.58015,12.337,18.58015,2.79578,6.02691,1.87137,10.37774-7.7231,2.99924-7.74841-.5252l-1.614-8.905-8.85262-7.69873Z"/>
      <path class="cls-34" d="M423.34314,604.3718c8.57385-2.95414,19.63582-3.33885,27.24477-4.57131,8.54352-1.38385,30.10125-16.84191,33.158-10.8222s-.06957,14.27869-6.45024,18.957-19.11077,6.09622-25.54051,6.09622-16.4272-3.40022-16.4272-3.40022Z"/>
      <path class="cls-35" d="M365.86661,677.17631c-11.06395-2.0609-22.8677-9.21523-23.97522-21.42228l3.25527-20.53688,17.55786-22.89728,8.57139,8.996,15.16439-.05112s31.35345-17.263,37.97948-16.96334c12.29941.55632,16.152,8.61894,18.25285,12.93558a32.17222,32.17222,0,0,1,2.65276,19.33166c-1.40246,8.05668-11.87546,24.71968-11.87546,24.71968s10.69352,5.02173,10.179,8.40308-10.81026,17.1147-13.5254,18.52391-6.56342,1.29226-5.77864-3.53751,7.08968-14.59239,7.08968-14.59239-12.78167-2.62978-12.96371-7.3925,3.68345-15.34186,3.68345-15.34186c-8.717,10.13809-20.67393,20.51749-28.5004,23.57682,0,0,5.56567,3.99553,5.56567,10.94293s-20.677,15.78749-23.87286,18.60794c-2.21577,5.02568-4.4311,12.45471-7.50831,12.86649a7.18635,7.18635,0,0,1-7.59579-3.52836c-2.02682-3.05122,2.75317-9.32227,4.83144-12.992s15.71-15.36555,15.71-15.36555Z"/>
      <path class="cls-34" d="M417.73771,652.18928c-10.32325,8.03444-21.05536,13.4005-30.26851,14.601l6.16465,4.13751,2.94793-1.39061C402.86367,666.1528,410.8339,659.42471,417.73771,652.18928Z"/>
      <path class="cls-34" d="M333.44928,601.00847a22.06006,22.06006,0,0,0-9.96028,11.98174c-1.44014,4.66037,3.10413,9.15492,8.56364,6.55442l14.70151-19.52512S338.00133,598.53279,333.44928,601.00847Z"/>
      <path class="cls-36" d="M364.65325,615.12193s-1.57384-8.96511-9.24642-12.85629-17.90657-2.52259-21.04692,1.42409-4.36143,7.06166-6.11311,10.59176c-1.60735,3.23923-9.85,13.08435-9.85,13.08435-2.10386,3.36229,2.242,15.28957,12.31252,14.187,4.64518-.5086,5.54982-3.72438,5.54982-3.72438l6.75157,22.90746Z"/>
      <path class="cls-37" d="M318.52788,628.21116c1.654-1.43338,4.96183.77184,5.25586,2.16849s-2.38878,4.337-3.712,3.85916S316.8739,629.64454,318.52788,628.21116Z"/>
      <path class="cls-38" d="M336.25912,637.82842l9.18845-1.71518a140.1507,140.1507,0,0,0,15.36308,19.33249c10.144,10.90363,6.851,22.24665,6.851,22.24665s-11.07768-1.55426-14.94908-4.7641-9.336-6.52992-11.8656-13.51314S336.25912,637.82842,336.25912,637.82842Z"/>
      <path class="cls-29" d="M337.51886,645.53366a10.51256,10.51256,0,0,1-1.25986-7.70524c9.77667,9.31093,28.39425,1.81318,27.99732-14.96085l6.58132-1.40354C373.699,642.14086,347.0647,658.092,337.51886,645.53366Z"/>
      <path class="cls-39" d="M367.97164,620.94761v0a3.60846,3.60846,0,0,1,1.70124-4.71011l12.52119-5.907a3.38725,3.38725,0,0,1,4.54935,1.76136h0a3.60847,3.60847,0,0,1-1.70124,4.71012L372.521,622.709A3.38726,3.38726,0,0,1,367.97164,620.94761Z"/>
      <path class="cls-34" d="M355.033,607.869c0-2.23694,2.08-2.52634,4.31885-2.73524,0,0,7.83744,7.12133,14.52892,10.066,6.97212,3.06814,9.13479,14.42784,1.29634,14.43991-10.046.01545-15.32173-4.66021-17.63339-9.0193S355.033,607.869,355.033,607.869Z"/>
    </g>
    <g>
      <path class="cls-40" d="M514.77375,431.294l.89824.458a.7286.7286,0,0,0,1.05663-.58381l.63443-7.05311a1.24261,1.24261,0,0,0-.67316-1.21833l-.89824-.458a.7286.7286,0,0,0-1.05663.58381l-.63443,7.05311A1.24261,1.24261,0,0,0,514.77375,431.294Z"/>
      <path class="cls-41" d="M539.70871,389.79561c2.60409,5.3372-3.20654,12.42967-8.77033,18.535-4.71513,5.1741-14.72629,14.43119-14.72629,14.43119s-3.11355-13.68474-3.387-19.84934c-.26318-5.93277,1.303-12.60018,8.72668-16.2223S537.10462,384.45841,539.70871,389.79561Z"/>
      <ellipse class="cls-26" cx="526.2669" cy="394.9517" rx="11.94305" ry="8.58634" transform="translate(-119.89222 270.76602) rotate(-26.00836)"/>
      <path class="cls-31" d="M516.21209,422.76183s-5.67855-18.50892-6.63537-20.26446c-.62938-1.15476-2.89818-2.33044-4.37733-2.99988a1.4551,1.4551,0,0,1-.73189-1.92171c1.32454-2.96614,4.61369-9.91992,7.26257-12.12506a28.15872,28.15872,0,0,1,8.58407-4.36515l-.876,7.87835s-4.19226,3.21624-5.05406,10.99C513.74854,405.68671,516.21209,422.76183,516.21209,422.76183Z"/>
      <path class="cls-28" d="M518.02053,393.4308c1.25457,8.45309,18.8422,3.98322,17.27589-3.64653l-3.87492-14.48814-15.38717,5.58178Z"/>
      <path class="cls-31" d="M534.99683,383.23478c2.70966.38415,5.8754,3.88666,7.46171,7.18129,1.80911,3.75739,2.2691,12.10414,2.38605,16.10571a1.61175,1.61175,0,0,1-2.01369,1.61208c-1.99211-.50919-5.05458-1.06537-7.43584-.48745-3.07567.74644-19.183,15.11542-19.183,15.11542s14.179-21.524,15.92069-26.312,1.67949-13.28042,1.67949-13.28042Z"/>
      <g>
        <path class="cls-26" d="M521.39872,394.13308c8.55892-2.1314,13.03811-6.837,13.38135-14.93067l.71349-17.49948c.48505-7.05133-5.94182-13.60988-14.16015-13.459-7.1827.13187-14.354,4.15091-14.34506,14.16035a160.86,160.86,0,0,0,1.5788,17.56707C509.83967,387.72248,513.62053,396.07006,521.39872,394.13308Z"/>
        <path class="cls-42" d="M510.96486,354.68647c1.58463.34859.79972,1.67635,3.66239,2.46174,2.42207.6645,7.1814-.87586,10.35734-1.14475,3.72-.315,7.15976,2.17479,6.8189,5.54682-.23691,2.34371-1.528,2.249-2.50142,4.00438-.67278,1.21321.6,3.68405.6,3.68405l1.95215,4.959,2.78551,6.20283s5.20677,1.13519,5.60843-5.25726c.139-2.21218,2.16479-2.7332,2.85684-4.91063.97461-3.06648-.54637-5.00916-.61273-6.79755-.07894-2.12706,1.22423-5.09007.38917-7.31334-1.15683-3.07993-2.76932-3.363-4.86669-4.97338-1.74212-1.3376-1.96552-2.90084-3.94989-3.93046-3.19512-1.65784-4.62247-.59856-6.93347-1.20806-2.31738-.61119-2.90506-1.88139-5.99475-1.74389-1.99044.08858-3.567,1.59722-5.40762,1.95388-2.245.435-5.40344-.18974-7.88212,2.34615-2.19764,2.24836-1.37262,4.58208-2.12086,6.81834a12.62881,12.62881,0,0,0-.15863,7.93871,54.84338,54.84338,0,0,0,1.79532,5.83,62.11,62.11,0,0,1-.06845-9.51075C507.61121,356.10816,509.38023,354.33787,510.96486,354.68647Z"/>
        <path class="cls-43" d="M508.02653,376.12994s.0698,8.02094.26358,10.185.19035,5.10134,2.53157,7.76678c2.08482,2.37353,9.163,3.77675,12.59427,2.37573a13.66436,13.66436,0,0,0,8.57514-9.362,21.10882,21.10882,0,0,0,.93773-5.37532l-.26534-2.45192-.49427-6.6345-2.26706-3.395c1.39413,3.03129.16462,9.5826-.56754,12.00674-.83617,2.76854-2.3544,7.36823-5.73239,7.67272s-1.65555-3.12917-8.46909-4.88385c-3.90053-1.0045-3.32493,2.07151-4.42327,1.49652C509.00744,384.6396,508.02653,376.12994,508.02653,376.12994Z"/>
        <path class="cls-26" d="M511.93628,387.98856s.31181-2.15919,2.12407-1.85531c4.10175.6878,4.56491,3.32737,4.56491,3.32737Z"/>
        <path class="cls-26" d="M533.775,383.67083c2.925.03853,5.44108-4.01319,5.4848-7.33236s-2.79332-6.1504-5.32647-4.68741C530.75341,373.48759,530.85,383.6323,533.775,383.67083Z"/>
      </g>
    </g>
  </g>
  <g class="cls-44">
    <g>
      <path class="cls-45" d="M1044.40368,460.20328s-23.385-13.45388-37.38153-13.71007-38.58189,23.03788-38.58189,23.03788l35.3135,51.3098,40.13724-18.318,7.28962.26442C1070.85669,491.14161,1060.28919,467.71544,1044.40368,460.20328Z"/>
      <path class="cls-24" d="M1263.58527,830.08887l-57.35943-185.20879L1004.62,713.8409c-44.03568,18.70282-68.58539,76.17527-55.76247,122.26766l72.2839,251.88244c11.01177,30.52436,95.6096,21.45772,95.37372-7.723l-14.57986-230.42743Z"/>
      <g>
        <path class="cls-22" d="M990.06886,542.13584l145.89389,154.77493L1073.55548,520.498,939.73884,378.53545a3.7147,3.7147,0,0,0-6.20513,3.78686Z"/>
        <path class="cls-46" d="M990.06886,542.13584l145.89389,154.77493,213.33692,23.87852a9.42591,9.42591,0,0,0,7.90749-15.83285L1231.30342,571.38852a9.42592,9.42592,0,0,0-5.81053-2.902Z"/>
      </g>
    </g>
  </g>
</svg>
