<svg id="Layer_1" data-name="Layer 1" xmlns="http://www.w3.org/2000/svg" xmlns:xlink="http://www.w3.org/1999/xlink" viewBox="0 0 1000 1000">
  <defs>
    <style>
      .cls-1 {
        fill: url(#linear-gradient);
      }

      .cls-2 {
        fill: #b8cbd8;
      }

      .cls-3 {
        fill: url(#linear-gradient-2);
      }

      .cls-4, .cls-8 {
        fill: #e2e2e2;
      }

      .cls-5 {
        fill: #d3d3d3;
      }

      .cls-6 {
        fill: #fff;
      }

      .cls-7 {
        fill: #f2f2f2;
      }

      .cls-8 {
        opacity: 0.2;
      }

      .cls-9 {
        fill: #a55444;
      }

      .cls-10 {
        fill: #a0674a;
      }

      .cls-11 {
        fill: #c16c56;
      }

      .cls-12 {
        fill: url(#linear-gradient-3);
      }

      .cls-13 {
        fill: url(#linear-gradient-4);
      }

      .cls-14 {
        opacity: 0.7;
      }

      .cls-15 {
        fill: #5a9137;
      }

      .cls-16 {
        fill: #6b483c;
      }

      .cls-17 {
        fill: url(#linear-gradient-5);
      }

      .cls-18 {
        fill: #366d26;
      }

      .cls-19 {
        fill: #9bb0c4;
      }

      .cls-20 {
        fill: url(#linear-gradient-6);
      }

      .cls-21 {
        fill: #323f4c;
      }

      .cls-22 {
        fill: #ffbea4;
      }

      .cls-23 {
        fill: url(#linear-gradient-7);
      }

      .cls-24 {
        fill: url(#linear-gradient-8);
      }

      .cls-25 {
        fill: url(#linear-gradient-9);
      }

      .cls-26 {
        fill: #455260;
      }

      .cls-27 {
        fill: #dd7b19;
      }

      .cls-28 {
        fill: url(#linear-gradient-10);
      }

      .cls-29 {
        fill: #b75c5a;
      }

      .cls-30 {
        fill: url(#linear-gradient-11);
      }

      .cls-31 {
        fill: #90a0af;
      }

      .cls-32 {
        fill: #ccd8e2;
      }

      .cls-33 {
        fill: #994a4a;
      }

      .cls-34 {
        fill: url(#linear-gradient-12);
      }

      .cls-35 {
        fill: url(#linear-gradient-13);
      }

      .cls-36 {
        fill: url(#linear-gradient-14);
      }

      .cls-37 {
        fill: url(#linear-gradient-15);
      }
    </style>
    <linearGradient id="linear-gradient" x1="79.31392" y1="441.39641" x2="920.68608" y2="441.39641" gradientUnits="userSpaceOnUse">
      <stop offset="0" stop-color="#e6f4ff"/>
      <stop offset="1" stop-color="#c0e3ff"/>
    </linearGradient>
    <linearGradient id="linear-gradient-2" x1="404.51949" y1="591.76915" x2="891.7282" y2="591.76915" gradientUnits="userSpaceOnUse">
      <stop offset="0.00005" stop-color="#9dcc52"/>
      <stop offset="1" stop-color="#649e3f"/>
    </linearGradient>
    <linearGradient id="linear-gradient-3" x1="58.85493" y1="403.0431" x2="259.53578" y2="594.53246" gradientUnits="userSpaceOnUse">
      <stop offset="0.00005" stop-color="#e6ac72"/>
      <stop offset="1" stop-color="#b3703f"/>
    </linearGradient>
    <linearGradient id="linear-gradient-4" x1="10985.24922" y1="428.16747" x2="11020.97761" y2="498.45282" gradientTransform="matrix(-1, 0, 0, 1, 11540.7831, 0)" gradientUnits="userSpaceOnUse">
      <stop offset="0" stop-color="#67a63f"/>
      <stop offset="0.99995" stop-color="#366d26"/>
    </linearGradient>
    <linearGradient id="linear-gradient-5" x1="653.27508" y1="344.82613" x2="653.27508" y2="552.05655" gradientUnits="userSpaceOnUse">
      <stop offset="0" stop-color="#77bf49"/>
      <stop offset="0.99995" stop-color="#366d26"/>
    </linearGradient>
    <linearGradient id="linear-gradient-6" x1="409.87892" y1="713.63669" x2="596.49876" y2="788.58322" gradientUnits="userSpaceOnUse">
      <stop offset="0.00005" stop-color="#ffcb48"/>
      <stop offset="1" stop-color="#e68e2b"/>
    </linearGradient>
    <linearGradient id="linear-gradient-7" x1="408.83247" y1="691.96499" x2="557.75511" y2="795.65097" xlink:href="#linear-gradient-6"/>
    <linearGradient id="linear-gradient-8" x1="406.82927" y1="721.23043" x2="593.44912" y2="796.17695" xlink:href="#linear-gradient-6"/>
    <linearGradient id="linear-gradient-9" x1="415.27512" y1="682.71151" x2="564.19776" y2="786.39749" xlink:href="#linear-gradient-6"/>
    <linearGradient id="linear-gradient-10" x1="479.72224" y1="268.36432" x2="493.50947" y2="500.70475" xlink:href="#linear-gradient-6"/>
    <linearGradient id="linear-gradient-11" x1="464.02627" y1="269.29573" x2="477.8135" y2="501.63615" xlink:href="#linear-gradient-6"/>
    <linearGradient id="linear-gradient-12" x1="508.93226" y1="266.63098" x2="522.7195" y2="498.9714" xlink:href="#linear-gradient-6"/>
    <linearGradient id="linear-gradient-13" x1="474.7014" y1="311.61728" x2="529.16949" y2="353.14919" gradientUnits="userSpaceOnUse">
      <stop offset="0.00005" stop-color="#c6c6c6"/>
      <stop offset="1" stop-color="#a9b0b3"/>
    </linearGradient>
    <linearGradient id="linear-gradient-14" x1="458.90628" y1="332.33219" x2="513.37437" y2="373.8641" xlink:href="#linear-gradient-13"/>
    <linearGradient id="linear-gradient-15" x1="690.96483" y1="263.34613" x2="839.27943" y2="603.10228" xlink:href="#linear-gradient-5"/>
  </defs>
  <path class="cls-1" d="M79.34318,533.236S76.916,443.92217,116.27249,405.64761s101.191-29.83447,150.323-53.496,68.673-70.454,112.94076-112.54121,137.15895-27.051,188.88842,3.59733,84.58457,73.86257,134.86125,101.30244,124.53069,34.14995,152.89691,43.40629,64.50324,29.24172,64.50324,69.11385V669.09677l-841.3429-3.677Z"/>
  <g>
    <path class="cls-2" d="M86.57347,678.91934l391.659,226.11445a43.5559,43.5559,0,0,0,43.55553-.00064l391.63891-226.118a14.51862,14.51862,0,0,0,.00018-25.14675L521.771,427.63328a43.55584,43.55584,0,0,0-43.55859.00055L86.57262,653.77256A14.51862,14.51862,0,0,0,86.57347,678.91934Z"/>
    <path class="cls-3" d="M891.7282,673.16413l-99.54326,57.45751L404.51949,506.78074l93.46363-53.737v-.127a12.318,12.318,0,0,0,3.793.63515,11.99381,11.99381,0,0,0,3.57516-.5081L854.72384,653.98139v2.48631h.01816a3.99147,3.99147,0,0,0,2.0326,3.46638l22.8124,13.17567a12.27428,12.27428,0,0,0,12.1412.05438Z"/>
    <g>
      <g>
        <g>
          <path class="cls-4" d="M470.90484,269.9714V435.26772h.00682a4.03635,4.03635,0,0,0,2.03569,3.47233l22.81478,13.17422a12.18437,12.18437,0,0,0,6.01856,1.63394V269.9714Z"/>
          <path class="cls-5" d="M501.78069,269.9714V453.54821a12.26059,12.26059,0,0,0,6.23647-1.63394L532.24367,305.1945l.40606-35.2231Z"/>
          <path class="cls-6" d="M472.949,273.44455l22.8112,13.17005a12.255,12.255,0,0,0,12.255,0l22.59233-13.04368a4.085,4.085,0,0,0,0-7.07545l-22.8112-13.17005a12.255,12.255,0,0,0-12.255,0L472.949,266.36911A4.085,4.085,0,0,0,472.949,273.44455Z"/>
        </g>
        <g>
          <polygon class="cls-7" points="877.224 528.55 505.354 314.632 505.354 453.047 858.67 656.243 877.224 528.55"/>
          <polygon class="cls-8" points="839.743 645.329 858.67 656.243 866.594 595.508 866.594 522.419 839.743 506.934 839.743 645.329"/>
          <path class="cls-6" d="M505.35767,314.62762,877.22611,528.54914l25.92537-14.963c-.39834-.27705-.814-.53676-1.24692-.78791L551.38084,311.19864,531.335,299.63009Z"/>
        </g>
        <g>
          <path class="cls-7" d="M854.72783,491.17337V656.46969h.00682a4.03635,4.03635,0,0,0,2.03569,3.47233l22.81478,13.17422a12.18437,12.18437,0,0,0,6.01856,1.63394V491.17337Z"/>
          <path class="cls-4" d="M885.60368,491.17337V674.75018a12.26059,12.26059,0,0,0,6.23647-1.63394l22.59006-13.0449a4.03867,4.03867,0,0,0,2.03569-3.60165h.00682V491.17337Z"/>
          <path class="cls-6" d="M856.772,494.64652l22.8112,13.17005a12.255,12.255,0,0,0,12.255,0l22.59233-13.04368a4.085,4.085,0,0,0,0-7.07545l-22.8112-13.17a12.255,12.255,0,0,0-12.255,0L856.772,487.57108A4.085,4.085,0,0,0,856.772,494.64652Z"/>
        </g>
      </g>
      <g>
        <g>
          <polygon class="cls-7" points="298.885 429.163 497.984 314.632 497.984 453.047 317.44 556.857 298.885 429.163"/>
          <polygon class="cls-8" points="336.366 545.943 317.44 556.857 309.516 496.122 309.516 423.033 336.366 407.548 336.366 545.943"/>
          <path class="cls-6" d="M472.00274,299.63009l-20.04585,11.56855-177.752,102.21348c-.433.25115-.84857.51086-1.24691.7879l25.92537,14.963L497.98006,314.62762Z"/>
        </g>
        <g>
          <path class="cls-7" d="M321.3816,391.78722V557.08354h-.00682a4.03633,4.03633,0,0,1-2.03569,3.47232L296.5243,573.73009a12.18442,12.18442,0,0,1-6.01855,1.63393V391.78722Z"/>
          <path class="cls-4" d="M290.50575,391.78722V575.364a12.26051,12.26051,0,0,1-6.23648-1.63393l-22.59005-13.04491a4.03867,4.03867,0,0,1-2.03569-3.60164h-.00682V391.78722Z"/>
          <path class="cls-6" d="M319.33742,395.26037l-22.8112,13.17005a12.255,12.255,0,0,1-12.255,0l-22.59233-13.04369a4.085,4.085,0,0,1,0-7.07544l22.8112-13.17006a12.255,12.255,0,0,1,12.255,0l22.59233,13.04369A4.085,4.085,0,0,1,319.33742,395.26037Z"/>
        </g>
      </g>
    </g>
    <g>
      <polygon class="cls-9" points="198.1 569.125 141.358 647.033 131.094 641.111 131.094 523.224 198.1 569.125"/>
      <path class="cls-10" d="M280.25334,449.03533,257.7957,479.8567l-59.6954,89.26875-67.00583-45.90168s33.455-37.988,69.44787-58.94527a159.86409,159.86409,0,0,1,26.30428-12.25831c24.58052-8.90646,43.14358-8.90646,43.14358-8.90646Z"/>
      <path class="cls-10" d="M170.74251,500.06383l-3.19227,2.889-10.27911-5.93768c1.0534-.94166,2.12289-1.91528,3.22413-2.873Z"/>
      <path class="cls-11" d="M141.363,529.14646V647.03627l138.89662-80.094V449.04258s-33.11132,0-69.44831,21.15956C174.81531,491.1631,141.363,529.14646,141.363,529.14646Z"/>
      <path class="cls-12" d="M280.25334,449.03533V566.93876l-26.17666,15.09947-3.19227,1.8356L226.304,598.04742l-3.19227,1.83559-24.5965,14.18967-3.19227,1.8355-24.58043,14.17369-3.19227,1.85157-26.19263,15.09938V529.14537a368.34581,368.34581,0,0,1,26.19263-26.19254c1.03743-.95764,2.10691-1.91538,3.19227-2.889a301.81738,301.81738,0,0,1,24.58043-19.77614c1.05351-.76612,2.12289-1.51635,3.19227-2.23453,4.03827-2.79324,8.14035-5.44288,12.29026-7.85306,4.16589-2.42606,8.28395-4.56492,12.30624-6.46433,1.06939-.51077,2.13877-.9896,3.19227-1.46842a160.08429,160.08429,0,0,1,24.58043-8.63514c1.08546-.30327,2.15484-.55861,3.19227-.81395C269.75074,449.03533,280.25334,449.03533,280.25334,449.03533Z"/>
      <path class="cls-10" d="M170.74251,500.06383v130.018l-3.19227,1.85157V502.95283C168.58767,501.99519,169.65715,501.03745,170.74251,500.06383Z"/>
      <path class="cls-10" d="M198.51521,478.05316l-3.19227,2.23453-10.26314-5.9216c1.05351-.75024,2.10691-1.50037,3.1763-2.23463Z"/>
      <path class="cls-10" d="M226.304,462.26735l-3.19227,1.46842-10.24716-5.9217c1.08536-.51067,2.15475-1.00547,3.20815-1.45244Z"/>
      <path class="cls-10" d="M198.51521,478.05316V614.07268l-3.19227,1.8355V480.28769C196.37645,479.52157,197.44583,478.77134,198.51521,478.05316Z"/>
      <path class="cls-10" d="M226.304,462.26735V598.04742l-3.19227,1.83559V463.73577C224.1811,463.225,225.25048,462.74617,226.304,462.26735Z"/>
      <path class="cls-10" d="M254.07668,452.81826v129.22l-3.19227,1.8356V453.63221C251.96987,453.32894,253.03925,453.0736,254.07668,452.81826Z"/>
      <path class="cls-10" d="M254.07668,452.81826l-3.19227.81395-10.26314-5.9216c1.10134-.2873,2.17082-.55871,3.22423-.79807Z"/>
    </g>
    <g>
      <path class="cls-7" d="M143.80055,502.65044V667.94676h-.00682a4.03635,4.03635,0,0,1-2.03569,3.47233l-22.81479,13.17422a12.18433,12.18433,0,0,1-6.01855,1.63394V502.65044Z"/>
      <path class="cls-4" d="M112.9247,502.65044V686.22725a12.26062,12.26062,0,0,1-6.23648-1.63394l-22.59005-13.0449a4.03867,4.03867,0,0,1-2.03569-3.60165h-.00682V502.65044Z"/>
      <path class="cls-6" d="M141.75637,506.12359l-22.8112,13.17005a12.255,12.255,0,0,1-12.255,0L84.09781,506.25a4.085,4.085,0,0,1,0-7.07545l22.8112-13.17005a12.255,12.255,0,0,1,12.255,0l22.59233,13.04369A4.085,4.085,0,0,1,141.75637,506.12359Z"/>
    </g>
    <path class="cls-6" d="M891.7282,658.64551,792.18494,716.103,404.51949,492.26211l10.23566-5.88L792.18494,703.54433,874.814,655.83255l4.773,2.75857a12.27431,12.27431,0,0,0,12.1412.05439Z"/>
    <polygon class="cls-4" points="792.185 716.103 404.519 492.262 404.519 506.781 792.185 730.622 891.728 673.164 891.728 658.646 792.185 716.103"/>
  </g>
  <path class="cls-13" d="M591.31533,506.30422c-4.68427,6.08955-14.74429,9.12317-31.16154,4.12662-9.45777,7.85173-35.13521,7.10959-39.97244-7.7625-8.1194,3.30129-20.52156-5.5319-17.07526-11.78567-14.867,4.12905-27.26915-7.6652-23.21769-16.8447-24.4838-11.43129-9.76181-33.78195,3.1757-32.1313-1.42534-13.78057,11.01918-20.92307,21.19074-13.22748,6.82565-11.71068,28.10562-8.03018,28.00836,7.65782,17.9867-10.49069,39.40051,6.105,30.237,29.03439,8.94042-8.18509,20.18266,1.04961,16.8269,11.10287C594.5736,479.378,595.9996,500.21467,591.31533,506.30422Z"/>
  <g class="cls-14">
    <ellipse class="cls-15" cx="653.27508" cy="582.38767" rx="36.44972" ry="20.94811"/>
  </g>
  <g class="cls-14">
    <ellipse class="cls-15" cx="787.06487" cy="656.24295" rx="48.80084" ry="28.04646"/>
  </g>
  <g>
    <path class="cls-16" d="M659.44335,581.83806V506.72164h-12.3367V581.862h.00563a3.10682,3.10682,0,0,0,1.8153,2.49111,9.64337,9.64337,0,0,0,8.725.01568A3.02657,3.02657,0,0,0,659.44335,581.83806Z"/>
    <path class="cls-17" d="M600.29873,481.59088c0-7.63482,2.4907-14.4736,6.43071-19.14836a37.158,37.158,0,0,1-2.77652-10.67662c-1.16349-10.43154,1.9801-20.00572,7.594-25.70119-.59184-6.63456,1.53105-12.63629,5.61385-15.8413a33.7004,33.7004,0,0,1-.34688-4.81769c0-13.065,7.30838-23.84356,16.719-25.31344-.02043-.42861-.04087-.83692-.04087-1.26566,0-17.94388,8.47212-32.47866,18.90341-32.47866,9.16588,0,16.8007,11.20728,18.53609,26.04832,3.77655,1.87806,6.7163,6.757,7.71657,12.88125,5.30759,3.59276,10.064,10.207,12.65659,18.4951,2.24574,7.22652,2.42915,14.351.91853,20.02615,3.61333,2.61293,6.08334,7.77774,6.08334,13.69773a19.33441,19.33441,0,0,1-2.30654,9.30879v.02044c8.3084,4.59315,12.37077,17.49483,9.14544,31.09052a38.54986,38.54986,0,0,1-6.20594,13.73872c5.16481,6.83865,6.10377,18.02562,1.65365,28.70212a33.61873,33.61873,0,0,1-13.12632,15.882c-4.69508,8.18605-10.69693,13.3916-17.49471,16.33122-4.75663,7.839-12.43233,12.28929-19.72,10.55415-4.75638-1.12288-8.431-4.69533-10.65631-9.53344a34.05523,34.05523,0,0,1-13.63643-8.65553c-8.18605-3.6745-15.47374-12.1055-18.94428-23.23117a40.67273,40.67273,0,0,1-.9594-21.80217A30.31015,30.31015,0,0,1,600.29873,481.59088Z"/>
    <path class="cls-18" d="M705.14492,477.91889a38.43536,38.43536,0,0,1-6.202,13.73637c5.16838,6.84534,6.11026,18.032,1.65381,28.69041a33.55712,33.55712,0,0,1-13.13912,15.89562c-4.68609,8.17753-10.6811,13.3919-17.48059,16.33206-4.75479,7.83306-12.42718,12.28936-19.73167,10.54357-4.75508-1.12553-8.43032-4.68609-10.6584-9.53285a33.79267,33.79267,0,0,1-13.62169-8.66c17.36423,2.78812,27.64156-3.35656,28.162-21.79908,6.68992,3.85669,14.021-2.20364,9.81783-10.51216,14.36884.782,19.74494-17.9855,10.41941-27.45818,15.77685-3.62545,18.70927-24.15237,5.03028-30.23186,9.889-4.94862,14.60759-15.52265,12.81793-31.12267,3.62925,2.61868,6.087,7.78707,6.087,13.69053a19.45118,19.45118,0,0,1-2.29706,9.32606c6.3859,3.51443,10.24508,11.94474,10.24508,21.82207A39.93115,39.93115,0,0,1,705.14492,477.91889Z"/>
  </g>
  <ellipse class="cls-19" cx="470.81896" cy="744.32543" rx="92.12777" ry="52.947"/>
  <g>
    <path class="cls-20" d="M456.48139,705.96419c2.19948,3.449,5.14652,16.57727,2.75934,20.45921-2.67651,4.35245-6.87111,5.135-14.58954,6.72772-7.2035,1.48644-13.27073,12.52016-31.276,8.33733-10.22782-2.376-12.10635-10.8633-7.41153-13.80079l12.94889-7.7097,15.39019-11.1587S454.28191,702.51519,456.48139,705.96419Z"/>
    <path class="cls-21" d="M456.48139,702.6183c2.19948,3.449,5.14652,16.57726,2.75934,20.45921-2.67651,4.35244-6.87111,5.135-14.58954,6.72772-7.2035,1.48643-13.27073,12.52015-31.276,8.33732-10.22782-2.376-11.04045-11.01225-6.34562-13.94974l11.883-7.56075,15.39019-11.1587S454.28191,699.1693,456.48139,702.6183Z"/>
    <path class="cls-22" d="M416.5641,507.80951c.47373,56.10864,21.67862,192.94095,21.67862,192.94095l-6.823,6.24917c.43568,5.79442,18.30039,3.77079,18.30039,3.77079s5.15842-2.50544,5.2729-5.12168l-.94447-7.43265c-.1545-29.3848,7.38423-60.87249,3.59316-84.81418l3.79107-89.26476Z"/>
    <path class="cls-23" d="M421.7799,714.55318l13.45919-12.68138c2.74841-2.46959,14.21943-1.4785,15.34712,8.49064,0,0-13.54964,7.256-18.68835,8.00331S419.86688,716.55407,421.7799,714.55318Z"/>
    <path class="cls-21" d="M416.5641,507.80951c.56013,66.34211,11.15933,192.33412,11.15933,192.33412,1.14894,13.21594,33.327,11.52643,33.70934,2.78888,1.90918-26.84009,4.50568-60.99378.98567-89.257L458.94015,522.435Z"/>
    <path class="cls-24" d="M519.58849,740.82821s2.1357,11.18508,1.1802,15.11984c-1.192,4.90856-2.78875,6.23621-4.95748,9.1968s-1.86072,12.95121-11.41459,17.79393c-13.0582,6.619-25.29175-2.62571-21.17421-12.93846l7.048-12.17945,9.50513-19.19974C502.21292,733.87586,519.05837,731.51566,519.58849,740.82821Z"/>
    <path class="cls-21" d="M519.58849,737.353s1.46264,12.21691.50713,16.15167c-1.192,4.90857-2.73192,6.02645-4.90065,8.987s-1.59808,11.96469-11.15194,16.80742c-13.05821,6.619-25.21754-2.015-19.64813-12.44282l5.40587-9.91384,9.97473-21.79655C502.21292,730.40066,518.52911,727.91475,519.58849,737.353Z"/>
    <path class="cls-22" d="M472.8109,608.233,501.174,730.38485l.53864,7.62729-1.911,6.31329h12.24044l4.32469-5.38657-1.10049-7.06616s4.45986-61.05132-4.10785-99.65535L509.21049,608.233Z"/>
    <path class="cls-25" d="M495.03693,752.47288c-1.71658,3.42451,8.84244,6.79583,13.01273,2.31672s8.3171-15.85074,8.3171-15.85074c-2.49053-8.32112-15.551-6.42087-16.37206-2.18165Z"/>
    <path class="cls-26" d="M505.40057,515.397l-3.158-54.69288-81.68537-17.71206c-1.45129,11.38322-4.0563,47.40426-3.9931,64.81741l32.0782,48.37408,42.577,180.41232c2.78328,11.90258,31.35523,9.46263,29.79552-8.41236-1.59546-38.41821-3.75024-78.82446-8.05737-107.48681Z"/>
    <path class="cls-27" d="M504.04637,491.94342l-1.804-31.23932-81.12427-17.5904c-.57715,3.73432-1.15649,7.70539-1.781,12.07068-.38819,4.53162-.78614,9.7218-1.15528,15.13373,1.23218,9.89618,7.58033,17.83563,14.48706,22.62518C460.10716,511.971,500.1489,506.55181,504.04637,491.94342Z"/>
    <path class="cls-28" d="M529.74532,284.95747c7.21277-5.17021-.08628-23.51561-7.91595-21.62908,0,0-40.33778,12.97911-54.28633,28.5465-17.71124,19.76675-27.23081,54.15166-33.52084,89.94658l37.83635-31.84272L490.256,310.82981Z"/>
    <path class="cls-29" d="M544.89491,262.87525c-6.54714-1.43077-21.66129,3.24538-21.66129,3.24538-2.84546,1.56285-2.12331,11.26853,2.74574,11.773,5.29787,1.2766,11.94366,2.76354,16.42545.50211a33.04759,33.04759,0,0,0,9.6507,1.699c2.56093,0,5.06363-1.59348,6.85986-3.10293a3.33994,3.33994,0,0,0,.06853-5.05731C555.5424,268.86973,549.37787,263.85492,544.89491,262.87525Z"/>
    <path class="cls-30" d="M484.05674,350.47391c-21.4973-8.598-41.8425,6.68026-48.99456,25.7044-10.22667,32.80324-11.68784,43.88555-16.11337,75.03448-1.54392,12.9149,5.97019,23.33136,14.29787,29.10639,28.39,19.68774,70.46794,12.82731,70.67-3.19149l5.10063-30.85881,19.17417-44.84866C519.71,383.02579,497.22767,355.7417,484.05674,350.47391Z"/>
    <polygon class="cls-27" points="509.017 446.269 513.322 436.2 501.781 420.811 505.554 467.221 509.017 446.269"/>
    <g>
      <path class="cls-31" d="M456.89244,397.04894l.73245.89437a.83537.83537,0,0,0,1.37828-.12673l3.91255-7.11449a1.42471,1.42471,0,0,0-.14613-1.58922l-.73244-.89437a.83537.83537,0,0,0-1.37829.12673l-3.91255,7.1145A1.42472,1.42472,0,0,0,456.89244,397.04894Z"/>
      <path class="cls-32" d="M502.1772,364.94808c.278,6.80321-9.08821,11.5766-17.74088,15.427-7.33286,3.26312-22.10639,8.37621-22.10639,8.37621s3.02911-15.80349,5.57933-22.40283c2.45431-6.35117,7.16773-12.6318,16.63056-13.01851S501.89918,358.14487,502.1772,364.94808Z"/>
      <path class="cls-27" d="M462.32993,388.75132s2.556-22.05,2.35927-24.33387c-.12942-1.5023-1.97077-3.78115-3.21591-5.16495a1.66833,1.66833,0,0,1,.11594-2.35486c2.75613-2.50511,9.4107-8.29343,13.20726-9.38986,4.87376-1.40752,11.02332-.63289,11.02332-.63289l-4.54605,7.86991s-5.88265,1.44783-10.36566,9.21444C467.60209,369.68675,462.32993,388.75132,462.32993,388.75132Z"/>
    </g>
    <path class="cls-29" d="M474.99286,361.21172c-.29912,4.20217,2.51145,7.126,9.49731,7.62331s15.1483-3.47011,15.44742-7.67228-5.12157-8.01182-12.10743-8.50908S475.292,357.00954,474.99286,361.21172Z"/>
    <path class="cls-33" d="M478.9547,359.50451c-1.44681,9.87234,20.867,6.29168,20.867-.16858l0-15.29875L481.25,342.70379Z"/>
    <path class="cls-27" d="M499.94939,354.883c2.66863,1.65057,5.56145,8.63393,5.71082,12.82376.17035,4.77834-4.06935,12.91354-5.78833,17.16945a1.848,1.848,0,0,1-2.85658.766c-1.85756-1.45162-4.81749-3.44522-7.58406-3.93437-3.57335-.6318-27.10131,7.04345-27.10131,7.04345s23.98146-17.043,28.829-20.3026c6.33105-4.2572,7.98677-12.72941,7.98677-12.72941Z"/>
    <g>
      <g>
        <path class="cls-29" d="M504.97951,486.071l-5.6653-9.17121-7.13313-.3259a11.062,11.062,0,0,0-7.78958,2.89262l-9.52543,8.1142a2.46911,2.46911,0,0,0-.40613,3.16513l3.63861,5.61508a4.236,4.236,0,0,0,4.31978,1.8628l8.79033-1.88138a14.04651,14.04651,0,0,0,6.4793-3.04421Z"/>
        <path class="cls-29" d="M490.5516,476.64628l-10.1659,1.06878c-2.68919.314-1.71512,3.45039.20334,3.53827l3.61961.52871Z"/>
      </g>
      <path class="cls-34" d="M547.15574,455.08513c-1.80009-10.74533-9.36787-32-18.96411-53.66491C519,383.33508,494.75326,405.63831,503.107,425.12769l12.97873,31.40425-20.02608,16.29649c-5.2674,4.48485,1.89057,22.35731,10.70693,16.95883,0,0,19.27659-7.14893,30.4514-14.79618C545.71347,469.17738,548.724,464.44684,547.15574,455.08513Z"/>
    </g>
    <g>
      <path class="cls-29" d="M477.6352,363.23176c10.481.82914,17.32455-2.79509,20.77488-11.81393l7.42765-19.51065c3.21624-7.787-1.56689-17.63215-10.91359-20.57111-8.1689-2.56861-17.79567-.739-21.57276,10.57857a191.74623,191.74623,0,0,0-4.86212,20.45437C466.99492,351.612,468.11021,362.47824,477.6352,363.23176Z"/>
      <path class="cls-35" d="M480.76639,314.69533c1.6593.99361.2697,2.19746,3.20837,4.16835,2.48637,1.66755,8.44891,1.72715,12.14059,2.62487,4.324,1.0515,7.27019,5.16727,5.60905,8.84989-1.15456,2.55958-2.57812,1.96407-4.34259,3.57992-1.21952,1.1168-.71571,4.3913-.71571,4.3913l.33033,6.344.80169,8.06533s5.456,3.25321,8.32867-3.82054c.99413-2.448,3.48112-2.27041,5.08724-4.46983,2.26189-3.09745,1.27769-5.86885,1.87933-7.91547.71558-2.4342,3.30971-5.29038,3.207-8.11942-.14229-3.91911-1.85787-4.84919-3.61934-7.46305-1.46311-2.17112-1.12416-4.02266-2.97763-5.93731-2.98435-3.08286-4.99856-2.42555-7.38019-3.98891-2.3882-1.56766-2.5719-3.2258-6.11636-4.2394-2.28342-.653-4.63629.45581-6.8518.16254-2.7023-.35771-6.036-2.25895-9.79729-.33034-3.33481,1.70994-3.28523,4.66-4.97713,6.90469a15.05355,15.05355,0,0,0-3.183,8.91353,65.3715,65.3715,0,0,0-.17651,7.26924,74.03544,74.03544,0,0,1,3.52115-10.77641C476.43766,315.03345,479.10709,313.70172,480.76639,314.69533Z"/>
      <path class="cls-36" d="M469.33161,337.82229s-2.95593,9.09291-3.55567,11.61236-1.715,5.83834-.0771,9.73705c1.45853,3.47175,8.92848,7.736,13.33709,7.45063a16.28789,16.28789,0,0,0,13.2352-7.33788,25.16177,25.16177,0,0,0,3.09379-5.72121l.62778-2.87193,1.95155-7.68634-1.27805-4.6953c.42894,3.95392-3.43962,10.894-5.18442,13.35713-1.99268,2.81306-5.44918,7.43789-9.38271,6.504s-.68739-4.16347-7.7252-8.72488c-4.02891-2.61125-4.54213,1.08351-5.56609.018C467.22065,347.81236,469.33161,337.82229,469.33161,337.82229Z"/>
      <path class="cls-29" d="M469.26415,352.706s1.16941-2.32268,3.10293-1.29349c4.3762,2.3294,3.901,5.4883,3.901,5.4883Z"/>
      <path class="cls-29" d="M495.58332,356.08845c3.29172,1.15027,7.66879-2.47763,8.97406-6.21292s-.83036-8.009-4.24726-7.31377C496.0208,343.43452,492.29159,354.93818,495.58332,356.08845Z"/>
    </g>
  </g>
  <g>
    <path class="cls-16" d="M800.66391,653.55635V487.9488H773.46547V653.60911h.01241c.04078,1.98688,1.36892,3.97111,4.00214,5.49208,5.32851,3.07609,13.941,3.0916,19.23583.03458C799.37744,657.59884,800.68962,655.57737,800.66391,653.55635Z"/>
    <path class="cls-37" d="M874.232,425.54886a135.09382,135.09382,0,0,0,.29468-18.03176c-1.695-32.88573-14.58838-59.79624-30.4034-66.415.143-.55281.3599-1.07026.46834-1.63761,2.46427-12.836-4.927-24.43092-16.50888-25.89761-.09822-.01218-.19409.00668-.29153-.00432C823.4127,280.7141,806.86375,263.012,787.06473,263.012c-19.38726,0-35.65175,16.98311-40.43256,48.52906-17.257,9.19739-32.36082,36.69529-36.91689,70.79116-.61135,4.57257-.96025,9.05949-1.15591,13.47254A25.9048,25.9048,0,0,0,693.582,414.77083a23.85639,23.85639,0,0,0,2.036,15.327c-7.41323,8.84025-12.06046,21.30579-12.06046,35.16023a59.4614,59.4614,0,0,0,2.39984,16.70533c-7.71027,11.33242-10.9737,27.29162-7.77078,44.29791,3.7907,20.12788,15.69321,36.62183,30.31617,44.69317,9.21193,16.44916,22.06448,25.84183,37.22728,30.9511,9.63234,15.38007,24.54761,25.29216,41.33466,25.29216s31.70311-9.91209,41.33623-25.29216c15.1188-5.09513,27.94463-14.44812,37.15106-30.812,12.36457-4.77413,22.50846-16.56663,25.34834-31.35618a38.66714,38.66714,0,0,0-3.93685-26.34316A70.55453,70.55453,0,0,0,898.213,486.63814C903.1612,460.86311,892.923,437.04355,874.232,425.54886Z"/>
    <path class="cls-18" d="M898.20045,486.65936a69.31407,69.31407,0,0,1-11.26523,26.71446,38.65924,38.65924,0,0,1,3.99029,26.39306c-2.89646,14.74122-13.00342,26.52154-25.36249,31.3495-9.20486,16.35053-22.015,25.68466-37.1432,30.77-9.65591,15.38518-24.59083,25.29844-41.3268,25.29844-16.802,0-31.73611-9.91326-41.392-25.29844-15.12744-5.08531-28.002-14.48387-37.20764-30.96328,38.21976,10.25458,63.52408-6.35221,64.95188-46.60581,30.52366,16.31926,65.30722-8.33414,57.09939-44.35292,27.65662-8.35732,33.95693-49.72024,9.84922-68.87892,20.81113-16.02482,26.98448-46.72121,3.73255-69.97314,15.83623,6.63058,28.71078,33.53834,30.38453,66.43272a139.494,139.494,0,0,1-.25774,18.02429C892.92144,437.02783,903.15728,460.84583,898.20045,486.65936Z"/>
  </g>
</svg>
