<svg id="Layer_1" data-name="Layer 1" xmlns="http://www.w3.org/2000/svg" xmlns:xlink="http://www.w3.org/1999/xlink" viewBox="0 0 1000 1000">
  <defs>
    <style>
      .cls-1 {
        fill: none;
      }

      .cls-2 {
        fill: url(#linear-gradient);
      }

      .cls-3 {
        fill: #b8cbd8;
      }

      .cls-4 {
        fill: url(#linear-gradient-2);
      }

      .cls-5 {
        fill: #9bb0c4;
      }

      .cls-111, .cls-6 {
        fill: #fff;
      }

      .cls-6 {
        opacity: 0.7;
      }

      .cls-7 {
        fill: url(#linear-gradient-3);
      }

      .cls-8 {
        fill: url(#linear-gradient-4);
      }

      .cls-9 {
        fill: url(#linear-gradient-5);
      }

      .cls-10 {
        fill: url(#linear-gradient-6);
      }

      .cls-11 {
        fill: url(#linear-gradient-7);
      }

      .cls-12 {
        fill: url(#linear-gradient-8);
      }

      .cls-13 {
        fill: url(#linear-gradient-9);
      }

      .cls-14 {
        fill: url(#linear-gradient-10);
      }

      .cls-15 {
        fill: url(#linear-gradient-11);
      }

      .cls-16 {
        fill: url(#linear-gradient-12);
      }

      .cls-17, .cls-55, .cls-61 {
        fill: #dd7b19;
      }

      .cls-17, .cls-53 {
        opacity: 0.5;
      }

      .cls-18 {
        fill: url(#linear-gradient-13);
      }

      .cls-19 {
        fill: url(#linear-gradient-14);
      }

      .cls-20 {
        fill: url(#linear-gradient-15);
      }

      .cls-21 {
        fill: url(#linear-gradient-16);
      }

      .cls-22 {
        fill: #2e3e59;
      }

      .cls-23 {
        fill: #4f4f4f;
      }

      .cls-24 {
        fill: url(#linear-gradient-17);
      }

      .cls-25 {
        fill: url(#linear-gradient-18);
      }

      .cls-26 {
        fill: url(#linear-gradient-19);
      }

      .cls-27 {
        fill: url(#linear-gradient-20);
      }

      .cls-28 {
        fill: url(#linear-gradient-21);
      }

      .cls-29 {
        fill: url(#linear-gradient-22);
      }

      .cls-30, .cls-53 {
        fill: #bcd0e2;
      }

      .cls-31 {
        fill: #d7ebf4;
      }

      .cls-32 {
        fill: #7995a8;
      }

      .cls-33 {
        fill: url(#linear-gradient-23);
      }

      .cls-34 {
        fill: #e58630;
      }

      .cls-35 {
        fill: url(#linear-gradient-24);
      }

      .cls-36 {
        fill: url(#linear-gradient-25);
      }

      .cls-37 {
        fill: #ffcb48;
      }

      .cls-38 {
        fill: #34a521;
      }

      .cls-39 {
        fill: #e2e2e2;
      }

      .cls-40 {
        clip-path: url(#clip-path);
      }

      .cls-41 {
        fill: url(#linear-gradient-26);
      }

      .cls-42 {
        fill: url(#linear-gradient-27);
      }

      .cls-43 {
        fill: url(#linear-gradient-28);
      }

      .cls-44 {
        fill: url(#linear-gradient-29);
      }

      .cls-45 {
        fill: url(#linear-gradient-30);
      }

      .cls-46 {
        fill: #541510;
        opacity: 0.3;
      }

      .cls-47 {
        fill: url(#linear-gradient-31);
      }

      .cls-48 {
        fill: #e9f1f4;
      }

      .cls-49 {
        fill: #606060;
      }

      .cls-50 {
        fill: url(#linear-gradient-32);
      }

      .cls-51 {
        fill: url(#linear-gradient-33);
      }

      .cls-52 {
        fill: #f0f9fc;
      }

      .cls-54 {
        fill: url(#linear-gradient-34);
      }

      .cls-56 {
        fill: #aaa;
      }

      .cls-57 {
        fill: #ffcd5c;
      }

      .cls-58 {
        fill: #b75c5a;
      }

      .cls-59 {
        fill: #994a4a;
      }

      .cls-60 {
        fill: url(#linear-gradient-35);
      }

      .cls-61 {
        opacity: 0.6;
      }

      .cls-62 {
        fill: url(#linear-gradient-36);
      }

      .cls-63 {
        fill: #27343d;
      }

      .cls-64 {
        fill: #c6716b;
      }

      .cls-65 {
        fill: url(#linear-gradient-37);
      }

      .cls-66 {
        fill: url(#linear-gradient-38);
      }

      .cls-67 {
        fill: url(#linear-gradient-39);
      }

      .cls-68 {
        fill: url(#linear-gradient-40);
      }

      .cls-69 {
        fill: url(#linear-gradient-41);
      }

      .cls-70 {
        fill: #ffbda3;
      }

      .cls-71 {
        fill: url(#linear-gradient-42);
      }

      .cls-72 {
        fill: url(#linear-gradient-43);
      }

      .cls-73 {
        fill: url(#linear-gradient-44);
      }

      .cls-74 {
        fill: url(#linear-gradient-45);
      }

      .cls-75 {
        fill: url(#linear-gradient-46);
      }

      .cls-76 {
        fill: url(#linear-gradient-47);
      }

      .cls-77 {
        fill: url(#linear-gradient-48);
      }

      .cls-78 {
        fill: url(#linear-gradient-49);
      }

      .cls-79 {
        fill: url(#linear-gradient-50);
      }

      .cls-80 {
        fill: url(#linear-gradient-51);
      }

      .cls-81 {
        fill: url(#linear-gradient-52);
      }

      .cls-82 {
        fill: url(#linear-gradient-53);
      }

      .cls-83 {
        fill: url(#linear-gradient-54);
      }

      .cls-84 {
        fill: url(#linear-gradient-55);
      }

      .cls-85 {
        fill: url(#linear-gradient-56);
      }

      .cls-86 {
        fill: url(#linear-gradient-57);
      }

      .cls-87 {
        fill: url(#linear-gradient-58);
      }

      .cls-88 {
        fill: url(#linear-gradient-59);
      }

      .cls-89 {
        fill: url(#linear-gradient-60);
      }

      .cls-90 {
        fill: url(#linear-gradient-61);
      }

      .cls-91 {
        fill: url(#linear-gradient-62);
      }

      .cls-92 {
        fill: url(#linear-gradient-63);
      }

      .cls-93 {
        fill: url(#linear-gradient-64);
      }

      .cls-94 {
        fill: url(#linear-gradient-65);
      }

      .cls-95 {
        fill: url(#linear-gradient-66);
      }

      .cls-96 {
        fill: url(#linear-gradient-67);
      }

      .cls-97 {
        fill: url(#linear-gradient-68);
      }

      .cls-98 {
        fill: url(#linear-gradient-69);
      }

      .cls-99 {
        fill: #bcbcbc;
      }

      .cls-100 {
        fill: url(#linear-gradient-70);
      }

      .cls-101 {
        fill: url(#linear-gradient-71);
      }

      .cls-102 {
        fill: url(#linear-gradient-72);
      }

      .cls-103 {
        fill: url(#linear-gradient-73);
      }

      .cls-104 {
        fill: url(#linear-gradient-74);
      }

      .cls-105 {
        fill: #ffbea4;
      }

      .cls-106 {
        fill: url(#linear-gradient-75);
      }

      .cls-107 {
        fill: url(#linear-gradient-76);
      }

      .cls-108 {
        fill: url(#linear-gradient-77);
      }

      .cls-109 {
        fill: url(#linear-gradient-78);
      }

      .cls-110 {
        fill: url(#linear-gradient-79);
      }
    </style>
    <linearGradient id="linear-gradient" x1="521.50943" y1="396.22833" x2="928.15567" y2="396.22833" gradientUnits="userSpaceOnUse">
      <stop offset="0" stop-color="#e4edf2"/>
      <stop offset="1" stop-color="#c3d6e6"/>
    </linearGradient>
    <linearGradient id="linear-gradient-2" x1="114.87886" y1="711.22041" x2="928.15567" y2="711.22041" gradientUnits="userSpaceOnUse">
      <stop offset="0" stop-color="#dae9f2"/>
      <stop offset="0.99337" stop-color="#c4d5e6"/>
    </linearGradient>
    <linearGradient id="linear-gradient-3" x1="127.9972" y1="390.07947" x2="493.86751" y2="390.07947" gradientUnits="userSpaceOnUse">
      <stop offset="0" stop-color="#3e4c59"/>
      <stop offset="1" stop-color="#293440"/>
    </linearGradient>
    <linearGradient id="linear-gradient-4" x1="188.94207" y1="640.24583" x2="188.94207" y2="280.78161" gradientUnits="userSpaceOnUse">
      <stop offset="0" stop-color="#62778c"/>
      <stop offset="1" stop-color="#435466"/>
    </linearGradient>
    <linearGradient id="linear-gradient-5" x1="310.89701" y1="569.84386" x2="310.89701" y2="210.36317" xlink:href="#linear-gradient-4"/>
    <linearGradient id="linear-gradient-6" x1="432.88729" y1="499.43348" x2="432.88729" y2="139.91232" xlink:href="#linear-gradient-4"/>
    <linearGradient id="linear-gradient-7" x1="139.8197" y1="393.4886" x2="493.86751" y2="393.4886" gradientUnits="userSpaceOnUse">
      <stop offset="0" stop-color="#435466"/>
      <stop offset="1" stop-color="#62778c"/>
    </linearGradient>
    <linearGradient id="linear-gradient-8" x1="127.97453" y1="393.48809" x2="505.70798" y2="393.48809" xlink:href="#linear-gradient-4"/>
    <linearGradient id="linear-gradient-9" x1="243.99279" y1="590.32418" x2="243.99279" y2="273.93582" xlink:href="#linear-gradient-4"/>
    <linearGradient id="linear-gradient-10" x1="365.95501" y1="519.91251" x2="365.95501" y2="203.51736" xlink:href="#linear-gradient-4"/>
    <linearGradient id="linear-gradient-11" x1="487.93343" y1="449.48819" x2="487.93343" y2="133.09304" xlink:href="#linear-gradient-4"/>
    <linearGradient id="linear-gradient-12" x1="428.98245" y1="146.55132" x2="138.95461" y2="619.42281" gradientUnits="userSpaceOnUse">
      <stop offset="0.00005" stop-color="#ffcb48"/>
      <stop offset="1" stop-color="#e68e2b"/>
    </linearGradient>
    <linearGradient id="linear-gradient-13" x1="514.46018" y1="198.97766" x2="224.43234" y2="671.84915" xlink:href="#linear-gradient-12"/>
    <linearGradient id="linear-gradient-14" x1="540.67117" y1="111.29526" x2="109.41237" y2="450.81698" gradientUnits="userSpaceOnUse">
      <stop offset="0" stop-color="#849bb2"/>
      <stop offset="1" stop-color="#5b6f82"/>
    </linearGradient>
    <linearGradient id="linear-gradient-15" x1="522.01276" y1="87.59544" x2="90.75396" y2="427.11716" xlink:href="#linear-gradient-14"/>
    <linearGradient id="linear-gradient-16" x1="502.55592" y1="62.88145" x2="71.29712" y2="402.40318" xlink:href="#linear-gradient-14"/>
    <linearGradient id="linear-gradient-17" x1="546.23301" y1="417.48309" x2="605.13023" y2="516.46626" xlink:href="#linear-gradient-3"/>
    <linearGradient id="linear-gradient-18" x1="424.48618" y1="290.3015" x2="548.10317" y2="513.34953" xlink:href="#linear-gradient-4"/>
    <linearGradient id="linear-gradient-19" x1="457.52582" y1="308.28107" x2="536.35404" y2="516.69811" xlink:href="#linear-gradient-14"/>
    <linearGradient id="linear-gradient-20" x1="441.1511" y1="314.47438" x2="519.97932" y2="522.89142" xlink:href="#linear-gradient-14"/>
    <linearGradient id="linear-gradient-21" x1="462.9752" y1="402.59578" x2="608.09309" y2="402.59578" gradientUnits="userSpaceOnUse">
      <stop offset="0" stop-color="#62788c"/>
      <stop offset="1" stop-color="#526575"/>
    </linearGradient>
    <linearGradient id="linear-gradient-22" x1="462.97514" y1="378.59652" x2="608.09305" y2="378.59652" xlink:href="#linear-gradient-14"/>
    <linearGradient id="linear-gradient-23" x1="507.41363" y1="287.56149" x2="570.78973" y2="346.45871" xlink:href="#linear-gradient-12"/>
    <linearGradient id="linear-gradient-24" x1="530.46992" y1="302.40891" x2="549.95363" y2="302.40891" xlink:href="#linear-gradient-3"/>
    <linearGradient id="linear-gradient-25" x1="530.46993" y1="298.03114" x2="549.95373" y2="298.03114" xlink:href="#linear-gradient-4"/>
    <clipPath id="clip-path">
      <path class="cls-1" d="M435.98541,305.84375A194.17509,194.17509,0,1,1,364.93924,155.6819,193.78539,193.78539,0,0,1,435.98541,305.84375Z"/>
    </clipPath>
    <linearGradient id="linear-gradient-26" x1="771.08094" y1="884.96696" x2="850.02947" y2="884.96696" xlink:href="#linear-gradient-3"/>
    <linearGradient id="linear-gradient-27" x1="-120.90478" y1="-312.55043" x2="1170.91881" y2="678.1291" xlink:href="#linear-gradient-4"/>
    <linearGradient id="linear-gradient-28" x1="48.60525" y1="201.69739" x2="800.58636" y2="201.69739" xlink:href="#linear-gradient-21"/>
    <linearGradient id="linear-gradient-29" x1="95.83992" y1="218.25728" x2="742.58332" y2="218.25728" xlink:href="#linear-gradient-14"/>
    <linearGradient id="linear-gradient-30" x1="-672.57793" y1="406.81882" x2="619.24566" y2="1397.49835" xlink:href="#linear-gradient-4"/>
    <linearGradient id="linear-gradient-31" x1="-1156.78563" y1="1046.47695" x2="857.54111" y2="1046.47695" xlink:href="#linear-gradient-3"/>
    <linearGradient id="linear-gradient-32" x1="25.18354" y1="-21.26743" x2="894.19907" y2="-21.26743" xlink:href="#linear-gradient-21"/>
    <linearGradient id="linear-gradient-33" x1="25.1785" y1="-55.19432" x2="894.19911" y2="-55.19432" xlink:href="#linear-gradient-14"/>
    <linearGradient id="linear-gradient-34" x1="-13.95533" y1="297.60462" x2="13.1085" y2="542.711" xlink:href="#linear-gradient-12"/>
    <linearGradient id="linear-gradient-35" x1="-995.42815" y1="530.88201" x2="114.11686" y2="1149.81188" xlink:href="#linear-gradient-12"/>
    <linearGradient id="linear-gradient-36" x1="215.47613" y1="272.27156" x2="242.53996" y2="517.37795" xlink:href="#linear-gradient-12"/>
    <linearGradient id="linear-gradient-37" x1="-10.42883" y1="297.21524" x2="16.635" y2="542.32162" xlink:href="#linear-gradient-12"/>
    <linearGradient id="linear-gradient-38" x1="200.21962" y1="174.79043" x2="346.26218" y2="313.68404" gradientUnits="userSpaceOnUse">
      <stop offset="0.00005" stop-color="#c6c6c6"/>
      <stop offset="1" stop-color="#a9b0b3"/>
    </linearGradient>
    <linearGradient id="linear-gradient-39" x1="135.64309" y1="242.69076" x2="281.68564" y2="381.58437" xlink:href="#linear-gradient-38"/>
    <linearGradient id="linear-gradient-40" x1="-7728.78028" y1="104.99059" x2="-7637.59902" y2="252.50161" gradientTransform="translate(7904.30267 -279.93675) rotate(-2.74241)" xlink:href="#linear-gradient-4"/>
    <linearGradient id="linear-gradient-41" x1="-7646.09424" y1="92.355" x2="-7552.35926" y2="243.99737" gradientTransform="translate(7832.29087 -276.48734) rotate(-2.74241)" xlink:href="#linear-gradient-4"/>
    <linearGradient id="linear-gradient-42" x1="884.47743" y1="403.4152" x2="909.26055" y2="466.26879" gradientUnits="userSpaceOnUse">
      <stop offset="0.00844" stop-color="#ffc63f"/>
      <stop offset="1" stop-color="#e68a23"/>
    </linearGradient>
    <linearGradient id="linear-gradient-43" x1="891.68474" y1="407.3511" x2="900.14185" y2="420.57726" xlink:href="#linear-gradient-4"/>
    <linearGradient id="linear-gradient-44" x1="875.31142" y1="416.90389" x2="905.09595" y2="463.4842" xlink:href="#linear-gradient-4"/>
    <linearGradient id="linear-gradient-45" x1="678.01897" y1="258.80781" x2="718.84775" y2="258.80781" xlink:href="#linear-gradient-7"/>
    <linearGradient id="linear-gradient-46" x1="690.78655" y1="224.97129" x2="715.3731" y2="292.06342" gradientUnits="userSpaceOnUse">
      <stop offset="0" stop-color="#fff"/>
      <stop offset="0.98888" stop-color="#e6edf2"/>
    </linearGradient>
    <linearGradient id="linear-gradient-47" x1="669.74311" y1="232.62486" x2="815.17885" y2="365.35061" xlink:href="#linear-gradient-14"/>
    <linearGradient id="linear-gradient-48" x1="670.05096" y1="221.9306" x2="811.45839" y2="348.8917" xlink:href="#linear-gradient-4"/>
    <linearGradient id="linear-gradient-49" x1="682.19777" y1="208.40165" x2="823.60521" y2="335.36275" xlink:href="#linear-gradient-4"/>
    <linearGradient id="linear-gradient-50" x1="731.88198" y1="315.27187" x2="772.71076" y2="315.27187" xlink:href="#linear-gradient-7"/>
    <linearGradient id="linear-gradient-51" x1="741.58542" y1="280.45531" x2="771.841" y2="348.2543" xlink:href="#linear-gradient-46"/>
    <linearGradient id="linear-gradient-52" x1="666.1042" y1="236.61224" x2="811.53994" y2="369.33798" xlink:href="#linear-gradient-14"/>
    <linearGradient id="linear-gradient-53" x1="666.02249" y1="226.41745" x2="807.42993" y2="353.37854" xlink:href="#linear-gradient-4"/>
    <linearGradient id="linear-gradient-54" x1="678.16931" y1="212.8885" x2="819.57675" y2="339.84959" xlink:href="#linear-gradient-4"/>
    <linearGradient id="linear-gradient-55" x1="785.74499" y1="305.92552" x2="826.57378" y2="305.92552" xlink:href="#linear-gradient-7"/>
    <linearGradient id="linear-gradient-56" x1="795.44843" y1="271.10896" x2="825.70401" y2="338.90796" xlink:href="#linear-gradient-46"/>
    <linearGradient id="linear-gradient-57" x1="695.23337" y1="204.69362" x2="840.66911" y2="337.41936" xlink:href="#linear-gradient-14"/>
    <linearGradient id="linear-gradient-58" x1="694.70909" y1="194.46673" x2="836.11652" y2="321.42783" xlink:href="#linear-gradient-4"/>
    <linearGradient id="linear-gradient-59" x1="706.8559" y1="180.93778" x2="848.26334" y2="307.89888" xlink:href="#linear-gradient-4"/>
    <linearGradient id="linear-gradient-60" x1="832.29003" y1="660.91295" x2="857.41772" y2="660.91295" xlink:href="#linear-gradient-3"/>
    <linearGradient id="linear-gradient-61" x1="232.09455" y1="750.3375" x2="257.22224" y2="750.3375" xlink:href="#linear-gradient-3"/>
    <linearGradient id="linear-gradient-62" x1="453.73083" y1="880.32328" x2="478.85852" y2="880.32328" xlink:href="#linear-gradient-3"/>
    <linearGradient id="linear-gradient-63" x1="548.38935" y1="279.76784" x2="959.55018" y2="595.08073" xlink:href="#linear-gradient-4"/>
    <linearGradient id="linear-gradient-64" x1="602.3409" y1="443.44233" x2="841.68099" y2="443.44233" xlink:href="#linear-gradient-21"/>
    <linearGradient id="linear-gradient-65" x1="617.37472" y1="448.713" x2="823.21982" y2="448.713" xlink:href="#linear-gradient-14"/>
    <linearGradient id="linear-gradient-66" x1="372.80315" y1="508.72825" x2="783.96399" y2="824.04114" xlink:href="#linear-gradient-4"/>
    <linearGradient id="linear-gradient-67" x1="242.55935" y1="640.81444" x2="598.18212" y2="961.50198" xlink:href="#linear-gradient-21"/>
    <linearGradient id="linear-gradient-68" x1="218.68981" y1="712.31826" x2="859.80852" y2="712.31826" xlink:href="#linear-gradient-3"/>
    <linearGradient id="linear-gradient-69" x1="218.68981" y1="725.91802" x2="859.80852" y2="725.91802" xlink:href="#linear-gradient-3"/>
    <linearGradient id="linear-gradient-70" x1="594.88625" y1="372.47722" x2="871.47599" y2="372.47722" xlink:href="#linear-gradient-21"/>
    <linearGradient id="linear-gradient-71" x1="594.88465" y1="361.67899" x2="871.47601" y2="361.67899" xlink:href="#linear-gradient-14"/>
    <linearGradient id="linear-gradient-72" x1="555.94915" y1="480.90268" x2="630.09526" y2="618.95568" xlink:href="#linear-gradient-12"/>
    <linearGradient id="linear-gradient-73" x1="270.04658" y1="548.21501" x2="623.1919" y2="745.20764" xlink:href="#linear-gradient-12"/>
    <linearGradient id="linear-gradient-74" x1="609.32088" y1="453.15285" x2="680.81024" y2="586.25923" xlink:href="#linear-gradient-12"/>
    <linearGradient id="linear-gradient-75" x1="575.26754" y1="471.44236" x2="646.75691" y2="604.54875" xlink:href="#linear-gradient-12"/>
    <linearGradient id="linear-gradient-76" x1="664.42438" y1="426.55688" x2="695.06268" y2="504.85475" xlink:href="#linear-gradient-38"/>
    <linearGradient id="linear-gradient-77" x1="636.58822" y1="437.44929" x2="667.22652" y2="515.74716" xlink:href="#linear-gradient-38"/>
    <linearGradient id="linear-gradient-78" x1="-7283.34366" y1="373.10922" x2="-7254.32254" y2="420.05894" gradientTransform="translate(7904.30267 -279.93675) rotate(-2.74241)" xlink:href="#linear-gradient-4"/>
    <linearGradient id="linear-gradient-79" x1="-7207.87817" y1="369.08757" x2="-7178.04426" y2="417.35222" gradientTransform="translate(7832.29087 -276.48734) rotate(-2.74241)" xlink:href="#linear-gradient-4"/>
  </defs>
  <g>
    <g>
      <polygon class="cls-2" points="521.509 81.236 928.156 316.004 928.156 711.22 521.509 476.43 521.509 81.236"/>
      <polygon class="cls-3" points="521.525 81.236 114.879 316.004 114.879 711.22 521.525 476.43 521.525 81.236"/>
    </g>
    <path class="cls-4" d="M121.896,723.3864l378.58059,218.564a42.10143,42.10143,0,0,0,42.1011-.00062l378.5612-218.56743a14.03381,14.03381,0,0,0,.00016-24.307L542.5613,480.49136a42.10144,42.10144,0,0,0-42.10408.00053l-378.562,218.58744A14.03381,14.03381,0,0,0,121.896,723.3864Z"/>
    <path class="cls-5" d="M226.3809,766.56781,459.93617,901.383a25.8435,25.8435,0,0,0,25.846-.002l376.022-217.16324a12.92175,12.92175,0,0,0-.00084-22.37988L628.33138,527.04226a25.84349,25.84349,0,0,0-25.8448-.00074l-376.10591,217.145A12.92174,12.92174,0,0,0,226.3809,766.56781Z"/>
  </g>
  <g>
    <g>
      <g>
        <g>
          <path class="cls-6" d="M127.97463,674.40543,502.15406,458.383a7.10771,7.10771,0,0,0,3.554-6.15554V112.57086L127.97463,330.66614Z"/>
          <path class="cls-7" d="M493.86751,449.48627,139.8197,653.89269l-11.8225-6.82343V330.68452L482.045,126.26624l11.8225,6.82343Z"/>
          <polygon class="cls-8" points="238.064 280.782 238.064 583.528 139.82 640.246 139.821 633.398 232.141 580.112 232.141 284.202 238.064 280.782"/>
          <polygon class="cls-9" points="360.027 210.363 360.008 513.124 261.767 569.844 261.767 562.996 354.085 509.712 354.085 213.774 360.027 210.363"/>
          <polygon class="cls-10" points="482.045 139.912 482.005 442.698 383.73 499.433 383.73 492.586 476.047 439.302 476.047 143.375 482.045 139.912"/>
          <polygon class="cls-11" points="493.868 133.09 493.862 449.492 139.821 653.888 139.82 640.246 482.045 442.675 482.045 139.912 493.868 133.09"/>
          <path class="cls-12" d="M127.97453,330.66613v343.7392L502.154,458.383a7.10774,7.10774,0,0,0,3.554-6.15555V112.57084ZM371.88335,203.51736V519.91251l-110.116,63.57255v-316.389Zm-232.0626,133.988,110.10039-63.56958V590.32418L139.82075,653.88754Zm354.041,111.9862-110.1322,63.58179V196.67759l110.1322-63.588Z"/>
        </g>
        <polygon class="cls-13" points="249.921 590.324 238.064 583.528 238.064 280.782 249.921 273.936 249.921 590.324"/>
        <polygon class="cls-14" points="371.883 519.913 360.027 513.117 360.027 210.363 371.883 203.517 371.883 519.913"/>
      </g>
      <polygon class="cls-15" points="493.862 449.488 482.005 442.698 482.045 139.912 493.862 133.093 493.862 449.488"/>
    </g>
    <g>
      <path class="cls-16" d="M331.33092,249.51336l2.94016,305.79229s-13.49648,16.33354-31.56128,26.14974-49.34229,17.19371-49.34229,17.19371-4.55352,14.569-27.24649,26.13942a136.77529,136.77529,0,0,1-44.43864,13.57335s-1.85131,8.73555-11.92055,14.121c-8.35014,4.43814-20.10036,5.0898-25.67889,5.84422V356.72779s10.75683,2.01157,25.26832-5.598,12.33112-14.109,12.33112-14.109,27.14545-3.18715,43.43089-12.76486,27.713-28.49683,27.713-28.49683a158.18805,158.18805,0,0,0,43.61312-12.8208C318.05046,272.71264,326.12092,254.40772,331.33092,249.51336Z"/>
      <path class="cls-17" d="M195.8309,334.55257c-8.09863,1.75679-14.14849,2.46816-14.14849,2.46816a4.66595,4.66595,0,0,1,0,2.06623V638.3618a122.98843,122.98843,0,0,0,20.09545-4.10718Z"/>
      <path class="cls-17" d="M253.48193,598.62189c.068-.01627.164-.03929.292-.07034l.00953-.00236c.12431-.03008.27956-.068.45655-.11135l.10985-.02709c.1666-.041.34926-.08619.55537-.13748l.11885-.02965c.22409-.05589.46564-.1165.73085-.18352l.08844-.02238q.42513-.10759.91427-.233l.09219-.02366c.31671-.08138.655-.169,1.0087-.26115l.18459-.04818q.53946-.14085,1.13054-.29754l.13031-.03448q.65011-.17265,1.356-.36307l.03126-.00846c3.47409-.93825,7.92764-2.19942,12.78892-3.72L267.48608,292.9535a139.27448,139.27448,0,0,1-14.65963,2.80554h-.00011l.54123,302.89.10161-.0242Z"/>
      <path class="cls-18" d="M508.99374,147.98417l2.95422,301.504c0,3.75938-5.00142,9.47-15.52677,14.8446a84.11985,84.11985,0,0,1-23.69014,7.7963s-10.57327,12.80653-25.46553,21.20442c-13.399,7.55583-37.46072,12.73616-37.46072,12.73616s-15.48321,23.52668-30.6088,32.60443-39.34639,15.87714-44.92492,16.63155l-2.94016-305.79229s27.73587-3.78745,42.96625-12.67015c15.35906-8.95775,31.02876-27.835,31.02876-27.835s21.916-1.50165,41.26776-13.63194,21.94642-24.66174,21.94642-24.66174a34.03115,34.03115,0,0,0,22.69789-4.18975C502.99138,159.80616,506.77859,153.38682,508.99374,147.98417Z"/>
      <path class="cls-17" d="M348.27065,246.23181c-9.38507,2.24781-16.93968,3.28157-16.93968,3.28157l2.94013,305.79227c2.92053-.395,10.95288-2.449,20.11236-5.61708Z"/>
      <path class="cls-17" d="M422.2805,205.81661a95.39521,95.39521,0,0,1-16.95456,3.19163l4.47893,297.0614s9.62137-2.07287,20.08335-5.50626Z"/>
      <path class="cls-17" d="M486.82466,168.73748a36.12336,36.12336,0,0,1-18.28448,1.977L472.73111,472.129a84.269,84.269,0,0,0,20.10229-6.0944Z"/>
    </g>
    <g>
      <g>
        <circle class="cls-19" cx="511.68583" cy="134.11485" r="8.30855"/>
        <path class="cls-20" d="M510.65047,139.98646,145.0158,351.12979l-4.04819-7.01169L506.61587,132.96692l.00184.0032a2.039,2.039,0,0,1,2.01153.2143,6.32884,6.32884,0,0,1,2.872,4.9538A1.98631,1.98631,0,0,1,510.65047,139.98646Z"/>
        <path class="cls-3" d="M512.04621,139.18375a9.87732,9.87732,0,0,0-1.29811-3.85921,9.537,9.537,0,0,0-2.8065-3.12257,6.33617,6.33617,0,0,0-3.57869-1.19276,5.1395,5.1395,0,0,0-2.50886.64884,5.67407,5.67407,0,0,0-2.59622,5.56119l4.35045-2.50864a1.38542,1.38542,0,0,1,.75463-.19294c1.08739,0,2.43818.98226,3.35041,2.56111.96491,1.66643,1.10539,3.43821.43856,4.35044a1.38429,1.38429,0,0,1-.43856.40344,1.21372,1.21372,0,0,1-.54391.158l-3.87677,2.24546a6.19278,6.19278,0,0,0,3.66649,1.29811,4.92156,4.92156,0,0,0,2.50842-.66683,5.46392,5.46392,0,0,0,2.61378-4.92927C512.08133,139.69255,512.06377,139.42958,512.04621,139.18375Z"/>
        <path class="cls-3" d="M471.28058,162.732a9.87732,9.87732,0,0,0-1.29811-3.85921,9.53716,9.53716,0,0,0-2.8065-3.12258,6.33623,6.33623,0,0,0-3.57869-1.19275,5.1395,5.1395,0,0,0-2.50886.64884,5.67407,5.67407,0,0,0-2.59622,5.56119l4.35045-2.50864a1.38542,1.38542,0,0,1,.75463-.19294c1.08739,0,2.43818.98226,3.35041,2.56111.96491,1.66642,1.10539,3.43821.43856,4.35044a1.38429,1.38429,0,0,1-.43856.40344,1.21372,1.21372,0,0,1-.54391.158l-3.87677,2.24546a6.1928,6.1928,0,0,0,3.66649,1.29811,4.92166,4.92166,0,0,0,2.50842-.66683,5.46392,5.46392,0,0,0,2.61378-4.92927C471.3157,163.24079,471.29814,162.97782,471.28058,162.732Z"/>
      </g>
      <circle class="cls-3" cx="507.41588" cy="147.17217" r="2.7993"/>
      <circle class="cls-3" cx="468.26888" cy="169.65007" r="2.7993"/>
      <path class="cls-3" d="M409.11571,198.61448a9.8777,9.8777,0,0,0-1.29811-3.85921,9.53693,9.53693,0,0,0-2.80651-3.12257,6.33615,6.33615,0,0,0-3.57869-1.19276,5.13957,5.13957,0,0,0-2.50885.64884,5.674,5.674,0,0,0-2.59622,5.56119l4.35044-2.50863a1.38536,1.38536,0,0,1,.75463-.19294c1.0874,0,2.43819.98225,3.35042,2.5611.96491,1.66643,1.10538,3.43821.43856,4.35045a1.38448,1.38448,0,0,1-.43856.40343,1.21376,1.21376,0,0,1-.54391.158l-3.87678,2.24546a6.19282,6.19282,0,0,0,3.66649,1.29811,4.92159,4.92159,0,0,0,2.50843-.66683,5.46393,5.46393,0,0,0,2.61378-4.92926C409.15083,199.12328,409.13327,198.86032,409.11571,198.61448Z"/>
      <circle class="cls-3" cx="405.52759" cy="206.67382" r="2.7993"/>
      <path class="cls-3" d="M338.08718,239.63506a9.8775,9.8775,0,0,0-1.29812-3.85921,9.53693,9.53693,0,0,0-2.8065-3.12258,6.33623,6.33623,0,0,0-3.57869-1.19275,5.13947,5.13947,0,0,0-2.50885.64884,5.674,5.674,0,0,0-2.59622,5.56119l4.35044-2.50864a1.38545,1.38545,0,0,1,.75463-.19294c1.0874,0,2.43819.98226,3.35042,2.56111.96491,1.66642,1.10538,3.43821.43855,4.35044a1.38426,1.38426,0,0,1-.43855.40344,1.21375,1.21375,0,0,1-.54392.158l-3.87677,2.24547a6.19282,6.19282,0,0,0,3.66649,1.29811,4.92163,4.92163,0,0,0,2.50842-.66683,5.46392,5.46392,0,0,0,2.61378-4.92927C338.12229,240.14386,338.10473,239.88089,338.08718,239.63506Z"/>
      <circle class="cls-3" cx="333.49132" cy="247.8611" r="2.7993"/>
      <path class="cls-3" d="M332.13559,243.05747a9.87748,9.87748,0,0,0-1.29811-3.85921,9.53707,9.53707,0,0,0-2.80651-3.12258,6.33621,6.33621,0,0,0-3.57869-1.19275,5.13947,5.13947,0,0,0-2.50885.64884,5.67405,5.67405,0,0,0-2.59622,5.56119l4.35045-2.50864a1.38539,1.38539,0,0,1,.75462-.19294c1.0874,0,2.43819.98226,3.35042,2.56111.96491,1.66643,1.10538,3.43821.43856,4.35044a1.3844,1.3844,0,0,1-.43856.40344,1.21376,1.21376,0,0,1-.54391.158l-3.87678,2.24546a6.19282,6.19282,0,0,0,3.66649,1.29811,4.92169,4.92169,0,0,0,2.50843-.66683,5.46392,5.46392,0,0,0,2.61378-4.92927C332.17071,243.56627,332.15315,243.3033,332.13559,243.05747Z"/>
      <circle class="cls-3" cx="330.00592" cy="249.9411" r="2.7993"/>
      <path class="cls-3" d="M256.95927,286.48482a9.87748,9.87748,0,0,0-1.29811-3.85921,9.53693,9.53693,0,0,0-2.80651-3.12257,6.33612,6.33612,0,0,0-3.57869-1.19276,5.1396,5.1396,0,0,0-2.50885.64884,5.67406,5.67406,0,0,0-2.59622,5.56119l4.35045-2.50864a1.38538,1.38538,0,0,1,.75462-.19293c1.0874,0,2.43819.98225,3.35042,2.5611.96491,1.66643,1.10539,3.43821.43856,4.35044a1.38429,1.38429,0,0,1-.43856.40344,1.21372,1.21372,0,0,1-.54391.158l-3.87677,2.24546a6.19277,6.19277,0,0,0,3.66648,1.29811,4.92157,4.92157,0,0,0,2.50843-.66683,5.46392,5.46392,0,0,0,2.61378-4.92927C256.99439,286.99362,256.97683,286.73065,256.95927,286.48482Z"/>
      <circle class="cls-3" cx="253.37116" cy="294.54416" r="2.7993"/>
      <path class="cls-3" d="M185.36963,327.8755a9.87748,9.87748,0,0,0-1.29811-3.85921,9.537,9.537,0,0,0-2.80651-3.12258,6.33614,6.33614,0,0,0-3.57869-1.19275,5.13947,5.13947,0,0,0-2.50885.64884,5.674,5.674,0,0,0-2.59622,5.56119l4.35045-2.50864a1.38539,1.38539,0,0,1,.75462-.19294c1.0874,0,2.43819.98226,3.35042,2.5611.96491,1.66643,1.10538,3.43822.43856,4.35045a1.38463,1.38463,0,0,1-.43856.40344,1.21387,1.21387,0,0,1-.54391.158l-3.87678,2.24546a6.19276,6.19276,0,0,0,3.66649,1.29811,4.92159,4.92159,0,0,0,2.50843-.66683,5.46391,5.46391,0,0,0,2.61378-4.92926C185.40475,328.38429,185.38719,328.12133,185.36963,327.8755Z"/>
      <circle class="cls-3" cx="181.78152" cy="335.93483" r="2.7993"/>
      <path class="cls-3" d="M149.47549,348.53111a9.87774,9.87774,0,0,0-1.29811-3.85922,9.53693,9.53693,0,0,0-2.80651-3.12257,6.33614,6.33614,0,0,0-3.57869-1.19275,5.13947,5.13947,0,0,0-2.50885.64884,5.674,5.674,0,0,0-2.59622,5.56119l4.35044-2.50864a1.38545,1.38545,0,0,1,.75463-.19294c1.0874,0,2.43819.98225,3.35042,2.5611.96491,1.66643,1.10538,3.43822.43855,4.35045a1.38448,1.38448,0,0,1-.43855.40344,1.21387,1.21387,0,0,1-.54391.158l-3.87678,2.24546a6.19276,6.19276,0,0,0,3.66649,1.29811,4.92153,4.92153,0,0,0,2.50842-.66683,5.46391,5.46391,0,0,0,2.61378-4.92926C149.5106,349.0399,149.49305,348.77694,149.47549,348.53111Z"/>
      <circle class="cls-3" cx="145.88737" cy="356.59044" r="2.7993"/>
    </g>
    <circle class="cls-21" cx="138.01345" cy="349.8787" r="8.30855"/>
  </g>
  <g>
    <g>
      <path class="cls-22" d="M541.21321,529.41688l2.27866,16.9498c0,2.09225,2.95126,3.78833,6.59177,3.78833s6.5916-1.69608,6.5916-3.78833l2.2882-16.9498Z"/>
      <path class="cls-23" d="M587.58874,502.66894l2.27866,16.94981c0,2.09225,2.95126,3.78832,6.59178,3.78832s6.5916-1.69607,6.5916-3.78832l2.28819-16.94981Z"/>
      <path class="cls-22" d="M466.41442,485.922l2.27866,16.9498c0,2.09226,2.95126,3.78833,6.59177,3.78833s6.5916-1.69607,6.5916-3.78833l2.2882-16.9498Z"/>
      <path class="cls-24" d="M607.18937,401.01778V508.74692a4.14866,4.14866,0,0,1-2.07162,3.60818l-50.86889,29.41143a8.29818,8.29818,0,0,1-4.16054,1.10494V385.21406Z"/>
      <path class="cls-25" d="M550.08832,385.21406V542.87147a8.29858,8.29858,0,0,1-4.161-1.10494l-79.96569-46.15839A4.13012,4.13012,0,0,1,463.87255,492V384.27082Z"/>
      <polygon class="cls-26" points="473.2 399.36 473.2 439.712 540.761 478.712 540.761 438.36 473.2 399.36"/>
      <polygon class="cls-27" points="473.2 448.84 473.2 489.207 540.761 528.207 540.761 487.839 473.2 448.84"/>
      <path class="cls-28" d="M462.9752,370.223v13.335a4.16214,4.16214,0,0,0,2.09855,3.63723l80.812,46.64521a8.40292,8.40292,0,0,0,8.411,0l51.69782-29.89826a4.16213,4.16213,0,0,0,2.09855-3.63723v-13.335Z"/>
      <path class="cls-29" d="M605.99449,383.33278l-80.8121-46.64514a8.40254,8.40254,0,0,0-8.4109,0L465.0737,366.58583a4.20129,4.20129,0,0,0,0,7.27444l80.81209,46.64514a8.40255,8.40255,0,0,0,8.41091,0l51.69779-29.89819A4.20129,4.20129,0,0,0,605.99449,383.33278Z"/>
    </g>
    <g>
      <g>
        <g>
          <path class="cls-30" d="M561.07946,372.685c-2.2363-5.45639-10.71894-9.52157-20.86773-9.52157s-18.63143,4.06518-20.86765,9.52157h-.59545v2.85074c0,6.83305,9.60933,12.37231,21.4631,12.37231s21.46318-5.53926,21.46318-12.37231V372.685Z"/>
          <ellipse class="cls-31" cx="540.21177" cy="372.26512" rx="21.46315" ry="12.37235"/>
          <path class="cls-30" d="M556.4586,369.08885h.012l-.02527-.1499-.00385-.024-1.81761-10.86841h-28.824l-1.80562,10.82216c-.00771.0424-.01413.085-.021.12763l-.01542.09251h.00728a5.51382,5.51382,0,0,0-.07024.79873c0,5.19459,7.30557,9.40542,16.317,9.40542s16.31654-4.21083,16.31654-9.40542A5.5135,5.5135,0,0,0,556.4586,369.08885Z"/>
          <ellipse class="cls-31" cx="540.21177" cy="358.25742" rx="14.41205" ry="8.30777"/>
        </g>
        <path class="cls-32" d="M536.90476,334.962v21.76252c0,1.05283,1.48059,1.90631,3.307,1.90631s3.307-.85348,3.307-1.90631V334.962Z"/>
      </g>
      <g>
        <path class="cls-33" d="M573.23083,332.22093h.00173l-.00535-.02705a11.40288,11.40288,0,0,0-.30642-1.56129L566.25534,290.478H514.16339l-6.66734,40.17674a11.3969,11.3969,0,0,0-.29446,1.501l-.0129.0652h.00409a11.1421,11.1421,0,0,0-.09816,1.39612c0,10.51161,14.82715,19.03289,33.11711,19.03289,18.29027,0,33.11741-8.52128,33.11741-19.03289A11.112,11.112,0,0,0,573.23083,332.22093Z"/>
        <ellipse class="cls-34" cx="540.21183" cy="291.76167" rx="26.14368" ry="15.0251"/>
        <path class="cls-35" d="M530.46992,305.69736a44.10329,44.10329,0,0,0,19.48371,0v-7.66628H530.46992Z"/>
        <ellipse class="cls-36" cx="540.21183" cy="298.03114" rx="9.7419" ry="5.61568"/>
        <path class="cls-37" d="M540.21182,278.02515c13.70514,0,24.855,6.16215,24.855,13.73648s-11.14983,13.7366-24.855,13.7366-24.855-6.16226-24.855-13.7366,11.14983-13.73648,24.855-13.73648m0-1.2886c-14.43869,0-26.14367,6.727-26.14367,15.02508,0,8.29821,11.705,15.02519,26.14367,15.02519s26.14367-6.727,26.14367-15.02519c0-8.2981-11.705-15.02508-26.14367-15.02508Z"/>
      </g>
    </g>
  </g>
  <g>
    <path class="cls-38" d="M241.7915,113.44029a191.74878,191.74878,0,1,1-74.8872,15.113,191.18371,191.18371,0,0,1,74.8872-15.113m0-17.54223c-115.95068,0-209.94726,93.99682-209.94726,209.94751S125.84082,515.79308,241.7915,515.79308c115.95118,0,209.94776-93.99683,209.94776-209.94751S357.74268,95.89806,241.7915,95.89806Z"/>
    <circle class="cls-39" cx="241.79174" cy="305.84555" r="194.19259"/>
    <path class="cls-39" d="M435.98541,305.84375A194.17509,194.17509,0,1,1,364.93924,155.6819,193.78539,193.78539,0,0,1,435.98541,305.84375Z"/>
  </g>
  <g class="cls-40">
    <g>
      <g>
        <g>
          <path class="cls-41" d="M771.08094,840.22173l10.87615,72.75841c0,9.24116,12.84994,16.732,28.70106,16.732s28.70105-7.49088,28.70105-16.732l10.67027-72.75841Z"/>
          <polygon class="cls-42" points="870.926 648.261 870.926 163.289 800.586 204.031 800.586 678.907 870.926 648.261"/>
          <g>
            <polygon class="cls-43" points="48.605 -240.479 48.605 253.564 800.586 643.874 800.586 204.031 48.605 -240.479"/>
            <polygon class="cls-44" points="95.84 -212.419 95.84 428.118 742.583 648.933 742.583 169.884 95.84 -212.419"/>
            <path class="cls-45" d="M870.92565,648.26079l-.00921,192.52973c0,11.52343-4.79137,23.46912-16.36573,30.17708l-1200.24357,694.551a65.874,65.874,0,0,1-33.14465,8.81223V1089.206Z"/>
            <g>
              <path class="cls-46" d="M800.58636,589.63486V713.43394l-.03292-.03291a32.54041,32.54041,0,0,1-16.342,29.8892l-1129.91348,653.16a65.5434,65.5434,0,0,1-33.14465,8.81223l173.06066-730.1685Z"/>
              <path class="cls-47" d="M800.58636,638.66263V762.46171l-.03292-.03292a32.54042,32.54042,0,0,1-16.342,29.88921l-1129.91348,653.16a65.54339,65.54339,0,0,1-33.14465,8.81222l173.06066-730.16849Z"/>
              <path class="cls-30" d="M800.58636,568.623V692.422l-.03292-.03291a32.54041,32.54041,0,0,1-16.342,29.8892l-1129.91348,653.16a65.5435,65.5435,0,0,1-33.14465,8.81223l.31866-160.76321Z"/>
              <path class="cls-48" d="M-1108.89134,847.86677l697.41647,402.63507a65.7631,65.7631,0,0,0,65.76955-.005L784.20619,597.33593c21.91692-12.65764,21.91573-44.29336-.00214-56.94935L86.99965,137.80127a65.76307,65.76307,0,0,0-65.76642-.0019L-1108.89192,790.914C-1130.81319,803.57021-1130.81287,835.211-1108.89134,847.86677Z"/>
              <path class="cls-30" d="M347.61844,484.41505s-9.37887,85.83386-26.20473,151.61307-75.36964,151.08209-75.36964,151.08209L164.18534,620.1918,271.37,448.31669Z"/>
            </g>
            <polygon class="cls-49" points="110.376 -276.19 870.926 163.289 800.586 204.031 48.605 -240.479 110.376 -276.19"/>
            <path class="cls-50" d="M894.19907,160.01645,25.18354-276.31843v32.87532l.00843-.003a9.76308,9.76308,0,0,0,4.83129,8.64164L818.09207,231.03829a19.72943,19.72943,0,0,0,19.92781.0883l51.259-29.69032a9.73229,9.73229,0,0,0,4.85-9.102l.07024.03753Z"/>
            <path class="cls-51" d="M93.7606-308.20277,889.27005,151.4778a9.86446,9.86446,0,0,1,.0088,17.077l-51.259,29.69027a19.72892,19.72892,0,0,1-19.92773-.08831L30.0233-267.68588a9.86446,9.86446,0,0,1,.08248-17.03181l40.61881-23.48267A23.01708,23.01708,0,0,1,93.7606-308.20277Z"/>
          </g>
        </g>
        <path class="cls-30" d="M75.62456,298.74359c.7013-.75654,137.07871-78.97686,137.07871-78.97686-.70964-4.73537-1.83812-10.33739,1.20786-11.92093,3.45761-1.79727,10.53508,1.68876,14.25445,6.01768,47.314-9.98984,69.067-9.8187,163.18579,43.69181,121.97957,69.35057,129.386,100.40118,156.69183,148.83846,8.48977,4.03218,13.01619,6.75727,11.0763,11.83793-1.79557,4.70268-13.61389,7.136-19.58714,5.0592l-128.69912,73.899c1.22628,5.43926-.847,12.71958-4.27238,14.43372-4.50151,2.2532-10.94-2.41678-13.81852-11.47778l-.00316-.00719c-56.1068-2.32521-132.50379-36.48684-183.2159-68.46629-42.14258-26.57585-113.88051-69.2928-133.20289-114.8675-7.44767-.01726-14.7088-3.73953-14.991-8.45419C61.0429,303.5546,68.04226,299.54643,75.62456,298.74359Z"/>
        <path class="cls-52" d="M62.9089,265.869c.70131-.75653,137.07872-78.97685,137.07872-78.97685-.70964-4.73538-1.83812-10.3374,1.20786-11.92094,3.45761-1.79727,10.53507,1.68877,14.25445,6.01768,47.314-9.98984,69.06705-9.8187,163.18579,43.69181,121.97956,69.35057,129.386,100.40119,156.69183,148.83846,8.48977,4.03218,13.01618,6.75727,11.07629,11.83794-1.79557,4.70268-13.61388,7.136-19.58713,5.0592l-128.69912,73.899c1.22627,5.43927-.847,12.71959-4.27238,14.43372-4.50151,2.2532-10.94-2.41678-13.81852-11.47778l-.00317-.00719c-56.10679-2.32521-132.50379-36.48683-183.21589-68.46628C154.665,372.22189,82.92712,329.50494,63.60474,283.93024c-7.44767-.01726-14.7088-3.73952-14.991-8.45419C48.32724,270.68,55.32661,266.67181,62.9089,265.869Z"/>
        <path class="cls-53" d="M278.75347,390.25928c39.05735-20.9209,73.1975-57.18507,71.56082-108.01143L269.06857,293.372l-16.64282,86.02357Z"/>
        <path class="cls-54" d="M259.01432,367.41461C192.34663,320.6202,100.16556,263.8342,15.22409,347.10984L-76.30012,445.4231-276.3058,512.42564c-116.79,72.02885,107.52755,193.53057,211.67414,190.12562l138.17705-79.953,256.479-106.6896C343.19571,479.31042,298.80545,395.34422,259.01432,367.41461Z"/>
        <polygon class="cls-55" points="98.449 343.418 117.247 360.75 124.868 405.538 170.191 420.646 193.755 444.209 193.755 402.731 134.627 342.433 98.449 343.418"/>
        <path class="cls-56" d="M231.674,508.18193l-55.99581,40.35642C111.98445,489.01051,47.98422,445.00493-40.30723,407.02571l-31.17459,32.24786L-265.283,506.66441c-127.813,77.79071,96.50514,199.29115,200.65156,195.88631l138.1768-79.95254,108.48115-32.44726,21.277,9.05609Z"/>
        <g>
          <path class="cls-57" d="M128.05372,397.15756l-3.59236-42.59494a10.14909,10.14909,0,0,0-8.08245-8.78718l-16.33327-3.53884c-4.38765-.95065-5.739-6.38458-2.14026-8.61641,25.34885-15.72074,55.77919-28.67509,81.00692-20.34094l32.97385,8.91106-55.89858,24.06024Z"/>
          <path class="cls-58" d="M128.05372,398.953l46.36172-8.48275s86.17521,16.46115,89.78078-3.93311c3.55436-20.10454-17.2357-45.66407-52.46143-56.1558C143.29638,309.99745,128.05372,398.953,128.05372,398.953Z"/>
          <path class="cls-59" d="M149.96329,348.947c-9.34544,37.97123,88.252,52.73048,93.90633,31.69183l28.3974-81.414-68.42367-8.4255Z"/>
          <path class="cls-57" d="M128.05372,397.15756,173.87308,407.559a14.93182,14.93182,0,0,1,10.9039,9.684l7.17758,21.87618c2.17471,6.62818,10.55228,9.5587,16.15571,5.63536,20.08061-14.05979,59.36521-43.6378,63.61752-62.60343,5.74027-25.60208-10.87493-52.1594-10.87493-52.1594-13.54008,32.395-62.20683,49.42577-78.05564,51.49394S128.05372,397.15756,128.05372,397.15756Z"/>
        </g>
        <path class="cls-60" d="M-440.66045,389.77816l15.63369-9.199A166.63688,166.63688,0,0,1-306.2744,361.00837c216.5601,45.50011,489.60187,182.525,562.91187,363.11335,53.641,132.13655,59.44529,219.96809,57.23867,264.25405a85.88928,85.88928,0,0,1-24.01262,55.21177c-159.907,166.53955-469.84431,337.16494-642.58022,379.356a83.88625,83.88625,0,0,1-43.27592-.858c-295.50335-85.73423-611.45848-278.58562-740.22686-405.83608a85.43316,85.43316,0,0,1-23.54667-78.42175c8.89869-42.245,24.57708-104.82759,45.09676-139.31931C-1081.75376,743.18014-440.66045,389.77816-440.66045,389.77816Z"/>
        <path class="cls-61" d="M-82.735,616.90669l37.79813,15.60992c7.19772,2.97223,17.45966,5.55783,25.31277,5.394l37.36623-2.30247c37.35042,35.60776,129.12359,119.86342,163.767,122.33835,23.82594,1.7017,50.7398-33.37572,70.39989-65.86609-13.52664-30.82317-33.24709-60.24791-57.66014-88.00687a37.77236,37.77236,0,0,0-4.09687,8.63354l-15.556,39.39634L32.277,580.05858,13.33262,564.51765A48.16609,48.16609,0,0,0-7.55775,553.30857l-35.063-10.05929a9.44528,9.44528,0,0,0-11.27663,6.28652c-1.39916,4.36779,4.05447,10.62987,8.11541,12.76417l-38.19768,4.1134a11.63909,11.63909,0,0,0-12.24749,12.33876l1.30214,21.09445A19.776,19.776,0,0,0-82.735,616.90669Z"/>
        <path class="cls-62" d="M331.05029,512.185S299.47446,628.728,275.54791,665.26994C238.65705,721.61213,142.91349,645.4931,166.129,602.60857l52.18236-98.99977C248.53781,448.31669,342.39352,457.413,331.05029,512.185Z"/>
        <ellipse class="cls-63" cx="217.48082" cy="640.89562" rx="35.95245" ry="54.09453" transform="translate(-448.11434 518.30614) rotate(-60.82013)"/>
        <path class="cls-64" d="M255.90189,672.45142s-30.43142,65.08732-74.3925,61.94676S1.57379,596.4136,1.57379,596.4136l24.39354-43.09708,148.6288,75.23856,2.62705-5.99719C193.25575,585.73309,272.05971,623.58117,255.90189,672.45142Z"/>
        <path class="cls-65" d="M137.53505,307.09105c-23.23082-6.00385-34.69548-6.26272-71.395-3.75763s-168.8047,33.34283-198.354,48.057c-47.65591,23.73036,25.05089,94.94286,25.05089,94.94286l39.90721-6.301C13.6261,332.48366,93.55657,305.809,137.53505,307.09105Z"/>
        <path class="cls-64" d="M13.33255,540.97039A48.16694,48.16694,0,0,0-7.55789,529.76031l-35.06306-10.05875a9.44616,9.44616,0,0,0-11.27681,6.28586v0c-1.39894,4.36853,4.05489,10.63123,8.11586,12.7642l10.00853-1.07791-48.20613,5.19173a11.63878,11.63878,0,0,0-12.24726,12.33861l1.30183,21.09451a19.77615,19.77615,0,0,0,12.19011,17.06071l37.798,15.60919c7.19753,2.97231,17.45973,5.55819,25.31256,5.39414l45.94853-2.83079,17.26929-45.73793Z"/>
        <g>
          <path class="cls-58" d="M167.77883,341.01156c36.442,18.76153,64.10435,22.14336,90.0903-5.09408l56.0847-58.97827c23.28952-23.16,20.91173-65.765-8.2746-90.40569-25.50849-21.53563-62.88134-29.45013-93.50327,5.56179,0,0-26.58651,29.1348-45.87613,60.12312S134.661,323.96141,167.77883,341.01156Z"/>
          <path class="cls-66" d="M236.22222,184.66122c1.12158,3.959-.93659,8.92554,9.87993,17.49961,9.14628,7.2501,36.65165,13.88858,48.57549,22.67486C308.644,235.127,313.0419,254.36317,301.524,265.10507c-8.00547,7.46609-12.22807,3.18134-21.006,6.33548-6.06686,2.18-9.18509,14.71373-9.18509,14.71373l-8.36342,23.31063-9.26,30.21028s14.722,19.913,35.70228-1.19948c7.2605-7.30624,15.9365-2.92343,25.02356-8.41454,12.79728-7.73313,13.43055-19.181,18.67541-25.6349,6.23811-7.67614,21.519-17.62608,24.44148-28.3553,4.018-14.75125-.396-18.29124-2.795-30.34279-1.99264-10.01023,1.654-18.89636-2.12849-28.57205-6.09039-15.57923-12.61852-13.0156-18.82924-22.22319-6.22785-9.233-5.4057-13.92443-16.62571-22.90579-7.22817-5.786-17.35853-5.34111-24.88407-9.73134-9.179-5.35481-25.30942-14.07449-41.49491-10.98045-13.51054,2.58269-18.62832,10.83953-28.092,16.36417s-18.513,12.15355-26.13494,27.27063c-7.99389,15.85488-6.79057,25.93429-6.79057,25.93429s13.8001-19.54574,28.69677-33.75682C230.40479,175.74605,234.18414,177.46709,236.22222,184.66122Z"/>
          <path class="cls-67" d="M172.21948,243.08293s-18.92014,24.98715-24.75308,33.22826C139.17,288.03283,131.742,298.18471,134.02328,314.512c2.67422,19.13933,22.25545,35.59225,38.53868,41.2034,24.39576,8.4067,48.118,2.70257,62.1995-7.52624,11.252-8.17343,12.87956-9.44917,12.87956-9.44917l2.62894-9.07464,18.59016-24.70222,2.47314-18.80865c-4.4104,14.86422-20.38036,28.39108-30.36309,34.62165-11.401,7.11576-21.71729,6.98417-35.018-1.47188-10.09517-6.41813-1.23475-15.99863-24.96316-38.85068-13.4014-12.90644-19.308.108-21.386-5.26521C156.38214,266.85989,172.21948,243.08293,172.21948,243.08293Z"/>
          <path class="cls-68" d="M275.85654,289.30235c-17.03083,16.05417-35.39356,5.203-60.46889-24.14-7.46023-8.7299-12.732-15.97292-19.15973-19.32815-10.53922-5.50139-15.80259.76275-22.20685-1.82451-6.44725-2.60464-6.44411-8.72233-4.43418-14.52742,9.50914-27.46435,39.6902-39.44253,77.56848-13.714S287.47521,278.35,275.85654,289.30235Z"/>
          <path class="cls-69" d="M283.32855,324.97892c3.178-1.39494,6.39122-2.96864,9.57191-4.72265-1.072-15.78646-5.23955-29.7879-12.50416-41.67244l-8.35087,5.10287C279.18243,295.37155,282.86076,308.93539,283.32855,324.97892Z"/>
          <path class="cls-58" d="M156.18326,288.50977s5.86276-8.27066,12.7152-3.17543c15.50932,11.53218,11.83461,23.43117,11.83461,23.43117Z"/>
          <path class="cls-58" d="M247.48837,344.41272c10.10538,9.09232,31.30753,2.63622,41.62506-8.83088s9.07208-30.05093-4.262-32.69516C268.11289,299.56731,237.383,335.32039,247.48837,344.41272Z"/>
        </g>
      </g>
      <path class="cls-70" d="M-1.156,555.44462a51.41378,51.41378,0,0,0-22.29862-11.96573L-60.88124,532.7421a10.0829,10.0829,0,0,0-12.03695,6.70957l0,0c-1.49323,4.663,4.32823,11.34786,8.66294,13.62461l10.68319-1.15057-51.45562,5.54169a12.42334,12.42334,0,0,0-13.07282,13.17034l1.38958,22.51645A21.10924,21.10924,0,0,0-103.69911,611.365l40.34591,16.66137c7.6827,3.17268,18.63665,5.93287,27.01883,5.75776l49.04584-3.02162,18.43337-48.821Z"/>
    </g>
  </g>
  <g>
    <ellipse class="cls-34" cx="895.56805" cy="404.45656" rx="9.91662" ry="5.7164"/>
    <path class="cls-71" d="M905.48461,404.459c-.00257,3.156-4.44124,5.71409-9.91678,5.71409-5.47681,0-9.91634-2.55939-9.91634-5.71666v53.52265c0,3.15716,4.43953,5.71644,9.91634,5.71644s9.91678-2.55928,9.91678-5.71644V404.459Z"/>
    <path class="cls-72" d="M905.48461,410.95336c-.00257,3.156-4.44124,5.71409-9.91678,5.71409-5.47681,0-9.91634-2.55939-9.91634-5.71666v3.91979c0,3.15715,4.43953,5.71644,9.91634,5.71644s9.91678-2.55929,9.91678-5.71644Z"/>
    <path class="cls-73" d="M905.48461,446.11254c-.00257,3.156-4.44124,5.71409-9.91678,5.71409-5.47681,0-9.91634-2.55939-9.91634-5.71666v3.91978c0,3.15716,4.43953,5.71644,9.91634,5.71644s9.91678-2.55928,9.91678-5.71644Z"/>
    <path class="cls-37" d="M895.56812,400.05577c5.0686,0,8.60083,2.31934,8.60083,4.40088s-3.53223,4.40064-8.60083,4.40064c-5.06885,0-8.60108-2.31909-8.60108-4.40064s3.53223-4.40088,8.60108-4.40088m0-1.31567c-5.47681,0-9.91675,2.55933-9.91675,5.71655,0,3.157,4.43994,5.71631,9.91675,5.71631s9.9165-2.55933,9.9165-5.71631c0-3.15722-4.4397-5.71655-9.9165-5.71655Z"/>
  </g>
  <g>
    <g>
      <polygon class="cls-74" points="718.848 239.655 678.019 216.044 678.019 277.961 718.848 301.571 718.848 239.655"/>
      <polygon class="cls-75" points="718.848 242.882 686.853 224.379 686.853 272.9 718.848 291.402 718.848 242.882"/>
      <path class="cls-76" d="M681.68029,222.39088l33.50614,19.37619v53.45767l-33.50614-19.37621V222.39088m-3.66132-6.34675v61.91656l40.82878,23.6108V239.65492L678.019,216.04413Z"/>
      <polygon class="cls-77" points="725.459 297.765 725.459 235.849 718.848 239.655 718.848 301.571 725.459 297.765"/>
      <polygon class="cls-78" points="725.459 235.849 684.616 212.246 678.019 216.044 718.848 239.655 725.459 235.849"/>
    </g>
    <g>
      <polygon class="cls-79" points="772.711 296.119 731.882 272.508 731.882 334.425 772.711 358.036 772.711 296.119"/>
      <polygon class="cls-80" points="772.711 299.346 740.716 280.843 740.716 329.364 772.711 347.866 772.711 299.346"/>
      <path class="cls-81" d="M735.5433,278.85495l33.50614,19.37619V351.6888L735.5433,332.31259V278.85495m-3.66132-6.34676v61.91656l40.82878,23.6108V296.119L731.882,272.50819Z"/>
      <polygon class="cls-82" points="779.322 354.229 779.322 292.313 772.711 296.119 772.711 358.036 779.322 354.229"/>
      <polygon class="cls-83" points="779.322 292.313 738.479 268.71 731.882 272.508 772.711 296.119 779.322 292.313"/>
    </g>
    <g>
      <polygon class="cls-84" points="826.574 286.773 785.745 263.162 785.745 325.078 826.574 348.689 826.574 286.773"/>
      <polygon class="cls-85" points="826.574 289.999 794.579 271.497 794.579 320.017 826.574 338.52 826.574 289.999"/>
      <path class="cls-86" d="M789.40631,269.5086l33.50614,19.37619v53.45767l-33.50614-19.37621V269.5086m-3.66132-6.34675v61.91656l40.82878,23.6108V286.77263L785.745,263.16185Z"/>
      <polygon class="cls-87" points="833.185 344.883 833.185 282.967 826.574 286.773 826.574 348.689 833.185 344.883"/>
      <polygon class="cls-88" points="833.185 282.967 792.342 259.364 785.745 263.162 826.574 286.773 833.185 282.967"/>
    </g>
  </g>
  <g>
    <g>
      <path class="cls-89" d="M832.29,646.67147l3.46165,23.1575c0,2.94127,4.08987,5.32547,9.135,5.32547s9.13495-2.3842,9.13495-5.32547l3.39613-23.1575Z"/>
      <path class="cls-90" d="M232.09455,736.096l3.46165,23.1575c0,2.94127,4.08987,5.32547,9.135,5.32547s9.135-2.3842,9.135-5.32547l3.39613-23.1575Z"/>
      <path class="cls-91" d="M453.73083,866.0818l3.46165,23.1575c0,2.94127,4.08987,5.32546,9.135,5.32546s9.135-2.38419,9.135-5.32546l3.39613-23.1575Z"/>
      <polygon class="cls-92" points="864.069 585.574 864.069 431.218 841.681 444.185 841.681 595.328 864.069 585.574"/>
      <g>
        <polygon class="cls-93" points="602.341 302.707 602.341 459.95 841.681 584.178 841.681 444.185 602.341 302.707"/>
        <polygon class="cls-94" points="617.375 311.638 617.375 515.507 823.22 585.788 823.22 433.317 617.375 311.638"/>
        <path class="cls-95" d="M864.06854,585.57426l-.00293,61.27824a10.76375,10.76375,0,0,1-5.20888,9.60475L476.84393,877.51853a20.96623,20.96623,0,0,1-10.54926,2.80475V725.918Z"/>
        <path class="cls-96" d="M466.29467,725.918V880.32328a20.8248,20.8248,0,0,1-10.39225-2.80475L233.92883,749.36826a10.33645,10.33645,0,0,1-5.22234-8.90616V678.47486Z"/>
        <g>
          <path class="cls-46" d="M841.681,566.91483v39.4027l-.01047-.01048a10.357,10.357,0,0,1-5.20133,9.51312L476.841,823.70754a20.86107,20.86107,0,0,1-10.54926,2.80475L521.37339,594.1147Z"/>
          <path class="cls-97" d="M841.681,582.51936v39.4027l-.01047-.01048a10.357,10.357,0,0,1-5.20133,9.51312L476.841,839.31207a20.86107,20.86107,0,0,1-10.54926,2.80475l55.08165-232.39759Z"/>
          <path class="cls-98" d="M521.37339,609.71923,466.29174,842.11682A20.84428,20.84428,0,0,1,455.91,839.31207L233.93632,711.1618a10.37313,10.37313,0,0,1-5.23276-9.07365V661.9006Z"/>
          <path class="cls-30" d="M841.681,560.22718v39.40269l-.01047-.01047a10.357,10.357,0,0,1-5.20133,9.51312L476.841,817.01988a20.86107,20.86107,0,0,1-10.54926,2.80475l.10142-51.16761Z"/>
          <path class="cls-99" d="M468.28319,753.23515l-1.99145,66.58948A20.84417,20.84417,0,0,1,455.91,817.01988L233.93632,688.86962a10.37314,10.37314,0,0,1-5.23276-9.07365V639.60842Z"/>
          <path class="cls-48" d="M233.93358,649.10473l221.9733,128.15045a20.931,20.931,0,0,0,20.93309-.00161L836.46753,569.36592a10.46551,10.46551,0,0,0-.00069-18.1258L614.56105,423.10551a20.931,20.931,0,0,0-20.9321-.00061L233.9334,630.97782A10.46552,10.46552,0,0,0,233.93358,649.10473Z"/>
          <path class="cls-30" d="M697.51064,533.42553s-2.9851,27.31915-8.34043,48.25532-23.9886,48.08632-23.9886,48.08632l-26.05395-53.1267,34.11468-54.7043Z"/>
        </g>
        <polygon class="cls-49" points="622.001 291.341 864.069 431.218 841.681 444.185 602.341 302.707 622.001 291.341"/>
        <path class="cls-100" d="M871.476,430.17614,594.88625,291.29974v10.46354l.00269-.001a3.10738,3.10738,0,0,0,1.53769,2.75045L847.2527,452.78093a6.27946,6.27946,0,0,0,6.34261.0281L869.91,443.35922a3.09758,3.09758,0,0,0,1.54363-2.897l.02236.01194Z"/>
        <path class="cls-101" d="M616.71292,281.15161,869.90719,427.45846a3.13966,3.13966,0,0,1,.0028,5.43526l-16.31468,9.4498a6.27931,6.27931,0,0,1-6.34259-.0281L596.42665,294.0473a3.13965,3.13965,0,0,1,.02625-5.42087l12.92813-7.47405A7.32587,7.32587,0,0,1,616.71292,281.15161Z"/>
      </g>
    </g>
    <path class="cls-30" d="M611.56383,477.57447c.22321-.24079,43.00609-28.381,43.00609-28.381-.22587-1.50718-.585-3.29018.38444-3.79419,1.10048-.572,3.35309.5375,4.53689,1.9153,15.05908-3.17956,21.98262-3.12509,51.93868,13.9062,38.82358,22.07286,41.18089,31.95563,49.87178,47.37222,2.70212,1.28336,4.14278,2.1507,3.52536,3.76777-.5715,1.49677-4.333,2.27125-6.23418,1.61024L717.63061,537.4915c.39029,1.73121-.26958,4.04839-1.35981,4.594-1.43274.71715-3.482-.76921-4.39815-3.65314l-.001-.00229c-17.85764-.74007-42.17323-11.613-58.31385-21.79141-13.41311-8.45854-36.24582-22.05447-42.39573-36.56-2.37044-.00549-4.68151-1.19021-4.77133-2.69079C606.29955,475.86138,609.15054,477.83,611.56383,477.57447Z"/>
    <path class="cls-52" d="M606.89346,463.86682c.22321-.24079,43.62933-25.13671,43.62933-25.13671-.22587-1.50717-.585-3.29018.38443-3.79419,1.10049-.572,3.3531.5375,4.5369,1.91531,15.05908-3.17956,21.98262-3.12509,51.93868,13.9062,38.82358,22.07286,41.18089,31.95563,49.87178,47.37222,2.70212,1.28336,4.14278,2.1507,3.52536,3.76777-.5715,1.49676-4.333,2.27125-6.23419,1.61024l-40.96227,23.52053c.39029,1.73121-.26958,4.04838-1.35981,4.594-1.43274.71714-3.482-.76921-4.39815-3.65314l-.001-.00229c-17.85764-.74007-42.17323-11.613-58.31385-21.79141-13.41311-8.45855-36.24582-22.05447-42.39573-36.56-2.37044-.00549-4.68151-1.19022-4.77133-2.6908C602.25242,465.39806,604.48017,464.12235,606.89346,463.86682Z"/>
    <path class="cls-53" d="M675.59234,503.45769c12.43115-6.65869,23.29725-18.20083,22.77633-34.37781l-25.85884,3.54059L667.21277,500Z"/>
    <path class="cls-102" d="M669.30977,496.1867c-21.21895-14.89369-50.55829-32.96751-77.59341-6.46259L562.58609,521.0152l-63.65768,21.32553c-37.17185,22.9253,34.2238,61.59679,67.37151,60.51306l53.349-16.5049,72.26188-42.89958C696.103,531.80084,681.97447,505.07612,669.30977,496.1867Z"/>
    <polygon class="cls-55" points="618.205 488.549 624.188 494.065 626.614 508.321 641.039 513.129 648.539 520.629 648.539 507.427 629.72 488.236 618.205 488.549"/>
    <path class="cls-61" d="M660.6079,540.99l-17.82232,12.84462c-20.27239-18.94649-40.64234-32.95256-68.74369-45.04056l-9.92223,10.26383-61.68294,21.44912c-40.68024,24.75918,30.7156,63.43026,63.86326,62.34657l43.97883-25.44724,28.84885-2.62786,12.45049-4.81707Z"/>
    <g>
      <path class="cls-57" d="M627.62771,506.22472l-1.14337-13.5571a3.23024,3.23024,0,0,0-2.57248-2.79677l-5.19854-1.12634a1.51731,1.51731,0,0,1-.6812-2.74243c8.068-5.00359,17.75336-9.12669,25.78283-6.4741l10.4949,2.8362-17.79137,7.65788Z"/>
      <path class="cls-58" d="M627.62771,506.22472l14.756-2.69989s27.42779,5.23925,28.57537-1.25182c1.13128-6.39887-5.48576-14.53394-16.69739-17.87324C632.47914,477.912,627.62771,506.22472,627.62771,506.22472Z"/>
      <path class="cls-59" d="M634.60108,490.30885c-2.97446,12.08546,28.08878,16.783,29.88845,10.08686l9.0383-25.91241L651.75,471.80164Z"/>
      <path class="cls-57" d="M627.62771,506.22472l14.58336,3.31054a4.75254,4.75254,0,0,1,3.47049,3.08221l2.28447,6.96274a3.462,3.462,0,0,0,5.142,1.79362c6.39125-4.475,18.89472-13.889,20.24815-19.92539,1.827-8.14861-3.46127-16.60126-3.46127-16.60126-4.30953,10.31067-19.79915,15.7312-24.8435,16.38946S627.62771,506.22472,627.62771,506.22472Z"/>
    </g>
    <path class="cls-103" d="M446.61771,503.30456l4.97588-2.92784a53.03706,53.03706,0,0,1,37.79643-6.229c68.92662,14.48175,155.83019,58.09395,179.16325,115.5715,17.07281,42.05634,18.92021,70.01131,18.21789,84.10662a27.33685,27.33685,0,0,1-7.64272,17.57277c-50.89512,53.00611-149.54177,107.31265-204.52,120.74118a26.69921,26.69921,0,0,1-13.77383-.27309c-94.05263-27.28744-194.61464-88.66806-235.599-129.16926a27.1916,27.1916,0,0,1-7.49442-24.96c2.83227-13.44573,7.82238-33.36446,14.35337-44.34247C242.57091,615.78513,446.61771,503.30456,446.61771,503.30456Z"/>
    <path class="cls-61" d="M560.538,575.59489l12.03037,4.96832a22.37243,22.37243,0,0,0,8.05653,1.71679l11.8929-.73282c11.88787,11.33321,41.09738,38.15,52.12365,38.93777,7.58331.54162,16.14943-10.6228,22.40683-20.96382a109.47293,109.47293,0,0,0-18.352-28.01077,12.0223,12.0223,0,0,0-1.30395,2.74788l-4.95116,12.539L597.14394,563.8669l-6.02959-4.94636a15.33039,15.33039,0,0,0-6.649-3.56762l-11.15984-3.20166a3.00623,3.00623,0,0,0-3.58912,2.00086c-.44532,1.39018,1.29045,3.38327,2.583,4.06258l-12.15754,1.30921a3.70448,3.70448,0,0,0-3.89812,3.92717l.41445,6.71393A6.2943,6.2943,0,0,0,560.538,575.59489Z"/>
    <path class="cls-104" d="M692.23734,542.26415s-10.04994,37.09321-17.66527,48.72377c-11.7416,17.93256-42.2148-6.29456-34.8258-19.94383l16.60858-31.50958C665.97531,521.93617,695.84765,524.83133,692.23734,542.26415Z"/>
    <ellipse class="cls-63" cx="656.09051" cy="583.23007" rx="11.44292" ry="17.21718" transform="translate(-173.00269 871.70285) rotate(-60.82013)"/>
    <path class="cls-58" d="M668.31915,593.27364s-9.68569,20.716-23.6776,19.71637-57.2698-43.91765-57.2698-43.91765l7.764-13.71691,47.30548,23.94689.83614-1.90879C648.38017,565.673,673.46185,577.71924,668.31915,593.27364Z"/>
    <g>
      <path class="cls-105" d="M540.31627,542.00681l11.9213-10.43561,9.08482,1.88928a15.24639,15.24639,0,0,1,9.30717,6.67361l6.76386,10.7003a6.86057,6.86057,0,0,1-1.22752,8.78117l-4.69333,4.19436a5.8384,5.8384,0,0,1-6.41983.90878l-9.61313-4.62077a19.36,19.36,0,0,1-7.51-6.39954Z"/>
      <path class="cls-61" d="M510.75385,516.16057c1.14567,9.71935,17.612,25.16524,23.16034,28.35363l7.27842,11.17723a19.35936,19.35936,0,0,0,7.50989,6.39966l9.61322,4.62066a5.83806,5.83806,0,0,0,6.41979-.90894l4.6934-4.19432a6.86069,6.86069,0,0,0,1.22755-8.78113l-6.764-10.70011a15.24541,15.24541,0,0,0-9.30719-6.67368l-7.52064-1.564L545.43669,519.408l14.51128-4.069a4.68838,4.68838,0,0,0,2.59234-2.42812c-10.92655-4.39651-18.44645-10.02531-29.263-13.15744C521.623,504.57073,510.11548,510.74533,510.75385,516.16057Z"/>
      <path class="cls-106" d="M630.64542,476.987c-7.39389-1.9109-11.04285-1.9933-22.72356-1.196s-53.72706,10.61234-63.132,15.29555c-15.16789,7.55289,7.97318,30.21836,7.97318,30.21836l12.70165-2.00548C591.20776,485.0689,616.648,476.5789,630.64542,476.987Z"/>
      <ellipse class="cls-63" cx="549.4669" cy="505.86675" rx="8.39402" ry="13.78364" transform="translate(-96.86609 131.6092) rotate(-12.56134)"/>
      <path class="cls-58" d="M577.39349,550.83427l-6.764-10.70011a15.24541,15.24541,0,0,0-9.30719-6.67368l-7.52063-1.564-1.62792-14.48159,1.131-.48929c7.47489-2.63123,2.55163-24.68194-6.77477-22.01411,0,0-30.31443,8.43695-29.03907,19.256,1.14567,9.71935,17.612,25.16523,23.16035,28.35363l7.27841,11.17723a19.35936,19.35936,0,0,0,7.50989,6.39966l9.61322,4.62066a5.83806,5.83806,0,0,0,6.41979-.90894l4.6934-4.19432A6.86069,6.86069,0,0,0,577.39349,550.83427Z"/>
      <path class="cls-58" d="M563.46271,534.14816l12.03191,4.78352c3.4616,1.39365,1.18591,4.99307-1.39682,4.41354l-3.25869-.72242Z"/>
    </g>
    <path class="cls-59" d="M577.39349,550.83427l-4.14171-6.552-2.7369-.785a3.00624,3.00624,0,0,0-3.58912,2.00087h0c-.44532,1.39017,1.29046,3.38327,2.583,4.06257L557.3512,550.87a3.70418,3.70418,0,0,0-3.8979,3.92717l.26852,4.354a19.42361,19.42361,0,0,0,1.71771.94691l9.61322,4.62066a5.83806,5.83806,0,0,0,6.41979-.90894l4.6934-4.19432A6.86069,6.86069,0,0,0,577.39349,550.83427Z"/>
    <path class="cls-58" d="M591.11433,551.42593a15.3306,15.3306,0,0,0-6.649-3.56793l-11.15985-3.2015a3.00653,3.00653,0,0,0-3.58918,2.00066v0c-.44525,1.39041,1.29059,3.3837,2.58311,4.06258l3.18551-.34308-15.343,1.65242a3.70439,3.70439,0,0,0-3.89805,3.92713l.41435,6.71394a6.29434,6.29434,0,0,0,3.87986,5.43008l12.03033,4.96808a22.37018,22.37018,0,0,0,8.05646,1.71684l14.62448-.901,5.49645-14.55744Z"/>
    <g>
      <path class="cls-58" d="M640.27139,487.78316c11.59873,5.9714,20.4031,7.04777,28.67389-1.62134l17.85061-18.77157c7.41257-7.37137,6.65577-20.93165-2.63364-28.77427-8.11883-6.85435-20.01383-9.37337-29.76016,1.7702a152.74928,152.74928,0,0,0-14.60143,19.13595C633.66117,469.38507,629.73067,482.35644,640.27139,487.78316Z"/>
      <path class="cls-107" d="M662.05551,438.02006c.357,1.26008-.29809,2.84082,3.14458,5.56977,2.91108,2.30756,11.66547,4.42045,15.46058,7.21694,4.4452,3.27552,5.845,9.398,2.179,12.81691-2.548,2.37631-3.89194,1.01256-6.68576,2.01646-1.931.69385-2.92342,4.68307-2.92342,4.68307l-2.66191,7.4193-2.94725,9.61531s4.68571,6.3379,11.3633-.38177c2.31087-2.32543,5.07226-.93047,7.96448-2.67818,4.07311-2.46129,4.27467-6.10491,5.944-8.15906,1.98546-2.44316,6.84907-5.61,7.77922-9.02491,1.27884-4.695-.126-5.82172-.8896-9.65748-.63421-3.186.52645-6.01432-.67745-9.0939-1.93845-4.95854-4.01621-4.14259-5.993-7.07318-1.9822-2.93867-1.72052-4.43186-5.29162-7.29044-2.30058-1.84156-5.52486-1.7-7.92009-3.09728-2.92149-1.70433-8.05546-4.47962-13.207-3.49486-4.30013.822-5.929,3.45-8.94109,5.20838a19.24745,19.24745,0,0,0-8.31822,8.67968c-2.54429,5.04628-2.1613,8.25435-2.1613,8.25435a85.57773,85.57773,0,0,1,9.13359-10.7441C660.204,435.18255,661.40684,435.73032,662.05551,438.02006Z"/>
      <path class="cls-108" d="M641.68476,456.61449s-6.02189,7.9529-7.87839,10.57587c-2.64058,3.73076-5.00477,6.96189-4.27867,12.15854.85115,6.09166,7.08345,11.32828,12.26607,13.1142,7.76466,2.67567,15.315.86017,19.79681-2.39545,3.58128-2.60144,4.09931-3.00748,4.09931-3.00748l.83673-2.88827,5.91687-7.86221.78715-5.9864c-1.40374,4.731-6.48665,9.03629-9.66395,11.01935-3.62871,2.2648-6.91217,2.22292-11.14549-.46847-3.21309-2.04275-.393-5.092-7.94526-12.36536-4.26539-4.10786-6.14533.03438-6.80672-1.67581C636.64406,464.18221,641.68476,456.61449,641.68476,456.61449Z"/>
      <path class="cls-109" d="M674.6703,471.32518c-5.42056,5.10971-11.265,1.656-19.246-7.68325-2.37444-2.77855-4.05233-5.08386-6.09815-6.15176-3.35441-1.751-5.02963.24277-7.068-.5807-2.052-.829-2.051-2.77614-1.41131-4.62378,3.02657-8.74134,12.63257-12.55374,24.68845-4.36489S678.36829,467.83926,674.6703,471.32518Z"/>
      <path class="cls-110" d="M677.04849,482.6803c1.01148-.444,2.03419-.94486,3.04654-1.50312a28.8648,28.8648,0,0,0-3.97981-13.26348l-2.65791,1.62413A26.04594,26.04594,0,0,1,677.04849,482.6803Z"/>
      <path class="cls-58" d="M636.58076,471.07292s1.866-2.63238,4.047-1.01068c4.9363,3.67046,3.76671,7.45766,3.76671,7.45766Z"/>
      <path class="cls-58" d="M665.6413,488.86568c3.21633,2.89389,9.96454.839,13.2484-2.81069s2.88746-9.56459-1.3565-10.4062C672.20566,474.59231,662.425,485.97178,665.6413,488.86568Z"/>
    </g>
  </g>
  <g>
    <circle class="cls-38" cx="105.34043" cy="169.43726" r="62.02326"/>
    <g>
      <rect class="cls-111" x="84.28363" y="160.79502" width="13.46241" height="40.4658" transform="translate(-101.34844 117.37906) rotate(-45)"/>
      <rect class="cls-111" x="110.49446" y="143.61416" width="13.46241" height="60.59444" transform="translate(77.14282 379.77635) rotate(-135)"/>
    </g>
  </g>
</svg>
