<svg id="Layer_1" data-name="Layer 1" xmlns="http://www.w3.org/2000/svg" xmlns:xlink="http://www.w3.org/1999/xlink" viewBox="0 0 1000 1000">
  <defs>
    <style>
      .cls-1, .cls-38, .cls-52 {
        fill: none;
      }

      .cls-2 {
        fill: url(#linear-gradient);
      }

      .cls-3 {
        fill: #6b483c;
      }

      .cls-4 {
        fill: url(#linear-gradient-2);
      }

      .cls-5 {
        fill: #366d26;
      }

      .cls-6 {
        fill: url(#linear-gradient-3);
      }

      .cls-7 {
        fill: #6e9e4f;
      }

      .cls-8 {
        fill: #b8cbd8;
      }

      .cls-9 {
        fill: #9bb0c4;
      }

      .cls-10 {
        fill: #87a1af;
      }

      .cls-11 {
        fill: #c7d8e2;
      }

      .cls-12 {
        fill: #5a9137;
      }

      .cls-13 {
        fill: url(#linear-gradient-4);
      }

      .cls-14 {
        fill: url(#linear-gradient-5);
      }

      .cls-15 {
        fill: #f2f2f2;
      }

      .cls-16 {
        fill: #e2e2e2;
      }

      .cls-17 {
        fill: #fff;
      }

      .cls-18 {
        fill: #303030;
      }

      .cls-19 {
        fill: #424242;
      }

      .cls-20 {
        fill: url(#linear-gradient-6);
      }

      .cls-21 {
        fill: url(#linear-gradient-7);
      }

      .cls-22 {
        fill: #a0674a;
      }

      .cls-23 {
        fill: #b75c5a;
      }

      .cls-24 {
        fill: url(#linear-gradient-8);
      }

      .cls-25, .cls-33 {
        fill: #dd7b19;
      }

      .cls-25, .cls-31 {
        opacity: 0.5;
      }

      .cls-26, .cls-31 {
        fill: #323f4c;
      }

      .cls-27 {
        fill: #6e8496;
      }

      .cls-28 {
        fill: #455260;
      }

      .cls-29 {
        fill: url(#linear-gradient-9);
      }

      .cls-30 {
        fill: url(#linear-gradient-10);
      }

      .cls-32 {
        fill: url(#linear-gradient-11);
      }

      .cls-34 {
        fill: #994a4a;
      }

      .cls-35 {
        fill: #ffcd5c;
      }

      .cls-36 {
        fill: url(#linear-gradient-12);
      }

      .cls-37 {
        fill: url(#linear-gradient-13);
      }

      .cls-38, .cls-52 {
        stroke: #565656;
        stroke-miterlimit: 10;
      }

      .cls-38 {
        stroke-width: 1.32115px;
      }

      .cls-39 {
        fill: url(#linear-gradient-14);
      }

      .cls-40 {
        fill: #c93535;
      }

      .cls-41 {
        fill: url(#linear-gradient-15);
      }

      .cls-42 {
        clip-path: url(#clip-path);
      }

      .cls-43 {
        fill: #c6716b;
      }

      .cls-44 {
        fill: url(#linear-gradient-16);
      }

      .cls-45 {
        fill: #595959;
      }

      .cls-46 {
        fill: url(#linear-gradient-17);
      }

      .cls-47 {
        fill: url(#linear-gradient-18);
      }

      .cls-48 {
        fill: #565656;
      }

      .cls-49 {
        fill: url(#linear-gradient-19);
      }

      .cls-50 {
        fill: url(#linear-gradient-20);
      }

      .cls-51 {
        fill: url(#linear-gradient-21);
      }

      .cls-52 {
        stroke-width: 3.1277px;
      }
    </style>
    <linearGradient id="linear-gradient" x1="11324.31919" y1="454.66992" x2="12165.69135" y2="454.66992" gradientTransform="matrix(-1, 0, 0, 1, 12274.46078, 0)" gradientUnits="userSpaceOnUse">
      <stop offset="0" stop-color="#e6f4ff"/>
      <stop offset="1" stop-color="#c0e3ff"/>
    </linearGradient>
    <linearGradient id="linear-gradient-2" x1="722.90424" y1="374.47994" x2="782.0254" y2="513.02651" gradientUnits="userSpaceOnUse">
      <stop offset="0" stop-color="#77bf49"/>
      <stop offset="0.99995" stop-color="#366d26"/>
    </linearGradient>
    <linearGradient id="linear-gradient-3" x1="154.78527" y1="560.05828" x2="936.34095" y2="560.05828" gradientUnits="userSpaceOnUse">
      <stop offset="0.00005" stop-color="#9dcc52"/>
      <stop offset="1" stop-color="#649e3f"/>
    </linearGradient>
    <linearGradient id="linear-gradient-4" x1="154.78527" y1="523.01438" x2="936.34095" y2="523.01438" xlink:href="#linear-gradient-3"/>
    <linearGradient id="linear-gradient-5" x1="798.43447" y1="328.23375" x2="907.61493" y2="578.34219" xlink:href="#linear-gradient-2"/>
    <linearGradient id="linear-gradient-6" x1="373.07721" y1="382.44815" x2="684.05593" y2="854.27793" gradientUnits="userSpaceOnUse">
      <stop offset="0.00005" stop-color="#e6ac72"/>
      <stop offset="1" stop-color="#b3703f"/>
    </linearGradient>
    <linearGradient id="linear-gradient-7" x1="471.80298" y1="317.37889" x2="782.7817" y2="789.20868" xlink:href="#linear-gradient-6"/>
    <linearGradient id="linear-gradient-8" x1="493.81287" y1="343.17496" x2="511.17458" y2="562.74943" gradientUnits="userSpaceOnUse">
      <stop offset="0.00005" stop-color="#ffcb48"/>
      <stop offset="1" stop-color="#e68e2b"/>
    </linearGradient>
    <linearGradient id="linear-gradient-9" x1="516.57962" y1="355.96047" x2="588.06898" y2="521.91791" gradientUnits="userSpaceOnUse">
      <stop offset="0" stop-color="#65788c"/>
      <stop offset="0.99995" stop-color="#455260"/>
    </linearGradient>
    <linearGradient id="linear-gradient-10" x1="541.70471" y1="339.38817" x2="559.06641" y2="558.96264" xlink:href="#linear-gradient-8"/>
    <linearGradient id="linear-gradient-11" x1="596.48672" y1="335.05657" x2="613.84842" y2="554.63103" xlink:href="#linear-gradient-8"/>
    <linearGradient id="linear-gradient-12" x1="517.61383" y1="319.12794" x2="593.95426" y2="344.14922" gradientUnits="userSpaceOnUse">
      <stop offset="0.00005" stop-color="#c6c6c6"/>
      <stop offset="1" stop-color="#a9b0b3"/>
    </linearGradient>
    <linearGradient id="linear-gradient-13" x1="506.93675" y1="351.70394" x2="583.27718" y2="376.72521" xlink:href="#linear-gradient-12"/>
    <linearGradient id="linear-gradient-14" x1="186.67434" y1="531.00086" x2="167.00011" y2="655.30626" gradientUnits="userSpaceOnUse">
      <stop offset="0" stop-color="#67a63f"/>
      <stop offset="0.99995" stop-color="#366d26"/>
    </linearGradient>
    <linearGradient id="linear-gradient-15" x1="132.31148" y1="104.87306" x2="402.8356" y2="458.70428" gradientTransform="matrix(1, 0, 0, 1, 0, 0)" xlink:href="#linear-gradient"/>
    <clipPath id="clip-path">
      <circle class="cls-1" cx="272.54335" cy="288.28891" r="196.04503"/>
    </clipPath>
    <linearGradient id="linear-gradient-16" x1="122.84474" y1="340.10934" x2="328.63198" y2="524.9604" xlink:href="#linear-gradient-8"/>
    <linearGradient id="linear-gradient-17" x1="169.92739" y1="308.96638" x2="347.62952" y2="546.92383" xlink:href="#linear-gradient-9"/>
    <linearGradient id="linear-gradient-18" x1="175.80867" y1="281.14673" x2="381.59591" y2="465.99779" xlink:href="#linear-gradient-8"/>
    <linearGradient id="linear-gradient-19" x1="171.29369" y1="286.17308" x2="377.08092" y2="471.02414" xlink:href="#linear-gradient-8"/>
    <linearGradient id="linear-gradient-20" x1="229.38686" y1="151.76466" x2="392.5358" y2="319.50934" xlink:href="#linear-gradient-12"/>
    <linearGradient id="linear-gradient-21" x1="185.14894" y1="194.79058" x2="348.29788" y2="362.53526" xlink:href="#linear-gradient-12"/>
  </defs>
  <path class="cls-2" d="M950.11233,562.3607s2.42714-89.31382-36.9293-127.58838-101.191-29.83446-150.323-53.496-63.3827-76.8345-112.94076-112.54122c-54.68805-39.4029-146.59745-38.20853-194.76521-7.155-50.53525,32.57984-78.70778,84.6149-128.98446,112.05477s-124.53069,34.14994-152.8969,43.40629-64.50325,29.24171-64.50325,69.11385V670.65079l841.3429-17.71821Z"/>
  <g>
    <path class="cls-3" d="M766.08,546.14855V490.00712H755.81374v56.15931h.00468c.0154.67356.51671,1.34622,1.51064,1.86184a8.84183,8.84183,0,0,0,7.26072.01172C765.59442,547.519,766.08971,546.83368,766.08,546.14855Z"/>
    <path class="cls-4" d="M716.86142,469.68929a20.916,20.916,0,0,1,5.35147-14.31134,25.54575,25.54575,0,0,1-2.31055-7.97962c-.96822-7.79645,1.64779-14.95212,6.31949-19.20887-.49251-4.95862,1.2741-9.44427,4.67171-11.83967a22.66953,22.66953,0,0,1-.28867-3.6007c0-9.7647,6.08184-17.8205,13.91308-18.91907-.017-.32034-.034-.62551-.034-.94594,0-13.41112,7.05028-24.2743,15.73092-24.2743,7.6276,0,13.9811,8.37623,15.42525,19.46831,3.14274,1.40364,5.58912,5.05015,6.42152,9.62734,4.41684,2.6852,8.375,7.62864,10.53248,13.8231a24.91806,24.91806,0,0,1,.76438,14.96739,12.14577,12.14577,0,0,1,5.06239,10.23758,13.29877,13.29877,0,0,1-1.91944,6.95732v.01527c6.914,3.43289,10.29462,13.0755,7.61059,23.23681a27.522,27.522,0,0,1-5.16442,10.26822c4.298,5.11115,5.0794,13.47221,1.37613,21.45174A25.9927,25.9927,0,0,1,789.40036,510.533a29.85262,29.85262,0,0,1-14.55864,12.20583c-3.95834,5.85884-10.34585,9.18491-16.41048,7.88808a13.03447,13.03447,0,0,1-8.8679-7.12522,28.93522,28.93522,0,0,1-11.34787-6.46907c-6.81221-2.74629-12.87684-9.04756-15.76493-17.3628a27.4368,27.4368,0,0,1-.79838-16.29477A21.129,21.129,0,0,1,716.86142,469.68929Z"/>
    <path class="cls-5" d="M804.11165,466.94487a27.43935,27.43935,0,0,1-5.1611,10.26646c4.301,5.11615,5.08479,13.477,1.37626,21.443a25.9461,25.9461,0,0,1-10.934,11.88026A29.82692,29.82692,0,0,1,774.84589,522.741c-3.95681,5.85437-10.34157,9.185-16.42017,7.88018a13.03213,13.03213,0,0,1-8.86964-7.12478,28.70685,28.70685,0,0,1-11.33561-6.47239c14.45005,2.08382,23.00257-2.50867,23.43566-16.29246,5.56717,2.88245,11.66787-1.647,8.17013-7.85671,11.95738.58444,16.43122-13.44222,8.67076-20.522,13.12908-2.70964,15.56936-18.0513,4.18606-22.59506,8.22934-3.69856,12.15606-11.60152,10.66675-23.26085a12.12673,12.12673,0,0,1,5.06543,10.2322,13.37555,13.37555,0,0,1-1.91156,6.97022c5.31418,2.62666,8.52569,8.92741,8.52569,16.30965A26.95757,26.95757,0,0,1,804.11165,466.94487Z"/>
  </g>
  <path class="cls-6" d="M108.86281,602.7253s75.13369-31.572,116.48865-53.12409S318.66931,479.887,359.71775,458.7118s82.59-30.02162,82.59-30.02162v159.448L122.28938,690.923a10.35043,10.35043,0,0,1-13.51556-9.86637Z"/>
  <polygon class="cls-7" points="342.623 472.807 360.091 480.972 398.162 482.536 417.421 449.865 417.421 383.677 385.397 397.786 380.022 422.196 357.852 435.408 349.566 455.563 342.623 472.807"/>
  <path class="cls-8" d="M124.283,704.23233,508.38849,925.986a42.10143,42.10143,0,0,0,42.1011-.00062L926.24334,709.03886a15.90552,15.90552,0,0,0,.00019-27.54891L529.421,452.37183,124.28235,686.305A10.35042,10.35042,0,0,0,124.283,704.23233Z"/>
  <ellipse class="cls-9" cx="458.82996" cy="762.12336" rx="92.12777" ry="52.947"/>
  <path class="cls-9" d="M809.23,762.04451,416.51153,535.36127l-2.46,1.41032L297.67682,603.96283a8.16578,8.16578,0,0,0-4.05109,7.0683v2.64033a2.7263,2.7263,0,0,0,1.41032,2.39451L678.58038,837.45783Z"/>
  <g>
    <path class="cls-10" d="M529.03529,476.93813,129.80839,707.426l-5.52765-3.19222a10.35043,10.35043,0,0,1,.00121-17.927l394.228-227.59495Z"/>
    <polygon class="cls-11" points="529.035 462.904 129.808 693.392 108.758 681.235 518.51 444.678 529.035 462.904"/>
  </g>
  <path class="cls-12" d="M950.10057,652.93258V683.1244a21.0507,21.0507,0,0,1-10.50787,18.22034l-75.64743,43.77195,2.58936-44.33478Z"/>
  <path class="cls-13" d="M950.10057,652.93258s-26.28268-31.8858-88.15151-87.95457-142.19344-71.1149-189.00857-112.60618S623.9732,428.4083,580.22775,410.08c-47.19544-19.7738-98.44975-22.66563-98.44975-22.66563l-44.19158-49.22171V445.00449L855.20276,707.83614Z"/>
  <path class="cls-12" d="M917.00529,617.42275q-11.76972-11.88535-28.09161-27.4539a78.869,78.869,0,0,0-19.7359-2.44076c-26.51384,0-48.00739,12.35239-48.00739,27.5901s21.49355,27.59009,48.00739,27.59009C894.33953,642.70828,914.96583,631.58119,917.00529,617.42275Z"/>
  <g>
    <path class="cls-3" d="M879.18846,613.34039V491.42988H859.16657V613.37922h.00914c.03,1.46263,1.00772,2.9233,2.94614,4.043a15.65077,15.65077,0,0,0,14.16028.02545C878.24144,616.31623,879.20739,614.82815,879.18846,613.34039Z"/>
    <path class="cls-14" d="M933.34493,447.63783a99.44852,99.44852,0,0,0,.21692-13.27391c-1.24774-24.20854-10.7391-44.01847-22.38118-48.89084.10528-.40695.26493-.78786.34476-1.20551,1.814-9.44914-3.62694-17.9846-12.15286-19.0643-.07231-.009-.14288.00492-.21461-.00318-3.22318-24.18106-15.40554-37.21231-29.98041-37.21231-14.27176,0-26.24472,12.502-29.76407,35.72422-12.70355,6.77058-23.82212,27.01291-27.176,52.11228-.45,3.36606-.70688,6.66906-.85092,9.91769a19.06962,19.06962,0,0,0-11.02544,13.96171,17.56168,17.56168,0,0,0,1.49879,11.28285c-5.45719,6.50768-8.8782,15.68407-8.8782,25.8829a43.772,43.772,0,0,0,1.76661,12.29747c-5.67584,8.34226-8.07819,20.09049-5.72038,32.60951,2.79049,14.817,11.55242,26.95883,22.317,32.90048a47.57723,47.57723,0,0,0,27.40453,22.78437c7.09076,11.3219,18.0705,18.61859,30.42814,18.61859s23.338-7.29669,30.42929-18.61859a47.56752,47.56752,0,0,0,27.34842-22.682c9.10207-3.51443,16.5694-12.19537,18.66-23.08256a28.46448,28.46448,0,0,0-2.89809-19.39229,51.93793,51.93793,0,0,0,8.28123-19.69626C954.64092,473.6341,947.10417,456.09954,933.34493,447.63783Z"/>
    <path class="cls-5" d="M950.98911,492.62378a51.02487,51.02487,0,0,1-8.2928,19.6656,28.45867,28.45867,0,0,1,2.93742,19.429c-2.1322,10.85161-9.57235,19.52359-18.67037,23.07765a47.48547,47.48547,0,0,1-27.34263,22.651c-7.10812,11.32567-18.10232,18.62323-30.42236,18.62323-12.36862,0-23.36225-7.29756-30.47036-18.62323a47.483,47.483,0,0,1-27.39007-22.79333c28.13514,7.54882,46.76268-4.67613,47.81375-34.30845,22.46971,12.01327,48.07532-6.1351,42.03319-32.65,20.35918-6.15217,24.99709-36.60111,7.25042-50.7046,15.31992-11.79653,19.86438-34.3934,2.74768-51.5101,11.6577,4.881,21.13518,24.689,22.3673,48.90385a102.68606,102.68606,0,0,1-.18973,13.26842C947.103,456.088,954.638,473.62137,950.98911,492.62378Z"/>
  </g>
  <g>
    <g>
      <path class="cls-15" d="M406.05311,292.16416V520.12294h.00864a5.11708,5.11708,0,0,0,2.58073,4.402l28.92324,16.7015a15.4467,15.4467,0,0,0,7.63,2.07141V292.16416Z"/>
      <path class="cls-16" d="M445.1957,292.16416v251.1337a15.54319,15.54319,0,0,0,7.90623-2.07141l30.71294-204.40853.51477-44.65376Z"/>
      <path class="cls-17" d="M408.6446,296.56721l28.9187,16.69621a15.53617,15.53617,0,0,0,15.5362,0l28.64123-16.536a5.17874,5.17874,0,0,0,0-8.96984L452.822,271.06136a15.53617,15.53617,0,0,0-15.5362,0l-28.64123,16.536A5.17873,5.17873,0,0,0,408.6446,296.56721Z"/>
    </g>
    <g>
      <polygon class="cls-15" points="816.778 559.975 449.726 348.782 449.726 542.663 793.255 740.263 816.778 559.975"/>
      <polygon class="cls-16" points="769.262 726.427 793.255 740.263 803.301 663.267 803.301 552.203 769.262 532.572 769.262 726.427"/>
      <path class="cls-17" d="M449.73038,348.77667,816.7801,559.97475l32.86665-18.96916c-.505-.35123-1.03189-.68047-1.58076-.99886L508.07585,344.42962l-25.413-14.66593Z"/>
    </g>
    <g>
      <path class="cls-15" d="M788.25811,512.592V740.55074h.00864a5.11708,5.11708,0,0,0,2.58072,4.402l28.92325,16.7015a15.44664,15.44664,0,0,0,7.63,2.07141V512.592Z"/>
      <path class="cls-16" d="M827.40069,512.592V763.72566a15.54314,15.54314,0,0,0,7.90623-2.07141l28.63835-16.53756a5.12,5.12,0,0,0,2.58072-4.56595h.00864V512.592Z"/>
      <path class="cls-17" d="M790.8496,516.995l28.91869,16.69621a15.53619,15.53619,0,0,0,15.53621,0l28.64122-16.536a5.17873,5.17873,0,0,0,0-8.96983L835.027,491.48916a15.53619,15.53619,0,0,0-15.53621,0l-28.64122,16.536A5.17874,5.17874,0,0,0,790.8496,516.995Z"/>
    </g>
  </g>
  <g>
    <g>
      <g>
        <g>
          <path class="cls-18" d="M667.4564,735.47543l22.31167-13.145c12.124-15.76078,26.836-25.56861,40.86259-27.73248-.04568-.035.001-.03588.10938-.01386.40673-.06137.80957-.10782,1.21215-.15323,4.44335-1.11405,18.41017-6.48208,18.41017-6.48208v.00009l13.09744-16.52243c0,28.24911,12.53808,59.09336,24.2313,82.0976l.63208-.45259,1.12167,10.35913c-.71666.35708-8.04315-4.11444-8.62834-4.98434a159.74069,159.74069,0,0,1-18.0836-29.58832l-.00061.00017c-8.49054-16.3139-16.85888-23.69188-32.0343-21.35112-14.0092,2.16188-28.277,12.51641-39.14394,28.41084-9.03292,13.21219-20.08869,36.401-20.41968,71.85305.07956,4.193.24154,8.45466.44669,12.83492l.30031-.215,1.12167,10.359-7.73565-4.46866a2.23833,2.23833,0,0,1-1.08779-1.51965C658.98856,797.47,660.29371,757.11256,667.4564,735.47543Z"/>
          <path class="cls-19" d="M676.08474,740.45977l22.31167-13.145c12.124-15.76078,26.836-25.56861,40.86259-27.73247-.04567-.035.001-.03589.10938-.01387.40674-.06136.80958-.10782,1.21216-.15323,4.44335-1.11405,18.41017-6.48207,18.41017-6.48207v.00008l13.09744-16.52243c0,28.13856,12.44111,58.8647,24.095,81.83986a1.18505,1.18505,0,0,1-.47123,1.5671l-6.26705,3.61284a159.74069,159.74069,0,0,1-18.0836-29.58832l-.0006.00017c-8.49055-16.3139-16.85888-23.69187-32.0343-21.35111-14.0092,2.16187-28.277,12.51641-39.144,28.41083-9.03291,13.21219-20.08869,36.401-20.41968,71.853.07763,4.09213.22848,8.23736.42645,12.506a2.1509,2.1509,0,0,1-1.06846,1.96171l-6.11766,3.52685C667.58562,803.45281,668.83374,762.36384,676.08474,740.45977Z"/>
        </g>
        <g>
          <path class="cls-18" d="M312.93921,530.84551l22.31167-13.145c12.124-15.76079,26.836-25.56861,40.86259-27.73248-.04567-.035.001-.03588.10938-.01387.40673-.06136.80957-.10781,1.21215-.15323,4.44335-1.114,18.41017-6.48207,18.41017-6.48207v.00009l13.09744-16.52243c0,28.24911,12.53808,59.09335,24.23131,82.0976l.63207-.45259,1.12168,10.35913c-.71667.35708-8.04316-4.11445-8.62835-4.98434a159.74045,159.74045,0,0,1-18.0836-29.58833l-.00061.00018c-8.49054-16.31391-16.85888-23.69188-32.0343-21.35112-14.0092,2.16188-28.277,12.51641-39.14394,28.41084-9.03292,13.21219-20.08869,36.401-20.41968,71.85305.07956,4.193.24154,8.45466.44669,12.83491l.30031-.215,1.12167,10.359-7.73565-4.46866a2.23835,2.23835,0,0,1-1.08779-1.51966C304.47137,592.84,305.77653,552.48263,312.93921,530.84551Z"/>
          <path class="cls-19" d="M321.56756,535.82985l22.31166-13.145c12.124-15.76078,26.836-25.56861,40.8626-27.73248-.04568-.035.001-.03588.10937-.01386.40674-.06137.80958-.10782,1.21216-.15324,4.44335-1.114,18.41017-6.48207,18.41017-6.48207v.00009L417.571,471.78084c0,28.13855,12.44112,58.86469,24.095,81.83985a1.18508,1.18508,0,0,1-.47123,1.56711l-6.26705,3.61284a159.74018,159.74018,0,0,1-18.08361-29.58832l-.0006.00017c-8.49054-16.31391-16.85888-23.69188-32.0343-21.35112-14.0092,2.16188-28.277,12.51641-39.14394,28.41084-9.03292,13.21219-20.0887,36.401-20.41969,71.85305.07763,4.09213.22848,8.23736.42645,12.506a2.15089,2.15089,0,0,1-1.06845,1.96171l-6.11767,3.52686C313.06843,598.82289,314.31656,557.73391,321.56756,535.82985Z"/>
        </g>
        <g>
          <path class="cls-18" d="M300.677,532.58635v-2.88759a8.851,8.851,0,0,1,4.4279-7.66657l90.58706-52.26809v-.82232c0-37.13565,19.28094-99.72965,37.60388-136.14952,1.84771-3.67262,5.69143-5.81217,9.52607-4.3297h0a3.87614,3.87614,0,0,1,2.29635,5.05075c-17.81868,40.77452-38.06642,98.43992-38.06642,135.42847v2.83487a7.87678,7.87678,0,0,1-3.94056,6.82276L305.1082,535.14567A2.9547,2.9547,0,0,1,300.677,532.58635Z"/>
          <polygon class="cls-18" points="451.563 333.488 443.189 328.627 443.78 334.968 451.563 333.488"/>
          <polygon class="cls-18" points="310.002 539.693 302.074 535.096 311.16 531.422 310.002 539.693"/>
          <path class="cls-19" d="M308.58865,537.17341v-2.88759a8.851,8.851,0,0,1,4.4279-7.66657l90.587-52.26809v-.82232c0-37.13565,19.28094-99.72966,37.60388-136.14953,1.84771-3.67262,5.69144-5.81217,9.52607-4.3297l0,0a3.87612,3.87612,0,0,1,2.29634,5.05074c-17.81867,40.77452-38.06641,98.43993-38.06641,135.42848v2.83487a7.87681,7.87681,0,0,1-3.94057,6.82276l-98.003,56.54625A2.95469,2.95469,0,0,1,308.58865,537.17341Z"/>
        </g>
        <g>
          <path class="cls-18" d="M657.75072,738.71492v-2.88759a8.851,8.851,0,0,1,4.4279-7.66657l90.587-52.2681v-.82231c0-37.13566,19.28094-99.72966,37.60389-136.14953,1.84771-3.67262,5.69143-5.81217,9.52607-4.3297l0,0a3.87611,3.87611,0,0,1,2.29634,5.05074c-17.81867,40.77452-38.06641,98.43993-38.06641,135.42848v2.83487A7.87681,7.87681,0,0,1,760.185,684.728l-98.003,56.54625A2.95469,2.95469,0,0,1,657.75072,738.71492Z"/>
          <polygon class="cls-18" points="808.637 539.616 800.263 534.755 800.853 541.096 808.637 539.616"/>
          <polygon class="cls-18" points="667.076 745.822 659.148 741.225 668.234 737.551 667.076 745.822"/>
          <path class="cls-19" d="M665.66239,743.302v-2.88759a8.851,8.851,0,0,1,4.42755-7.66636l90.58741-52.2683v-.82232c0-37.42951,19.58729-100.72188,38.03867-137.00911a7.25674,7.25674,0,0,1,9.09129-3.47014h0a3.95942,3.95942,0,0,1,2.19475,5.28343c-17.79394,40.76089-37.96483,98.27754-37.96483,135.19582v2.83453a7.87738,7.87738,0,0,1-3.94056,6.8231l-98.00294,56.54619A2.9547,2.9547,0,0,1,665.66239,743.302Z"/>
        </g>
      </g>
      <g>
        <path class="cls-20" d="M282.37753,530.812v2.28615a2.36,2.36,0,0,0,1.22117,2.07322L651.99136,747.81756l106.996-68.82674-1.86018-1.0792-368.35-212.61788-2.13,1.22125L285.88486,524.69183A7.07046,7.07046,0,0,0,282.37753,530.812Z"/>
        <path class="cls-21" d="M801.68739,544.00478c-14.589,32.77744-35.23927,95.37358-41.98407,134.50624l-.71259.48639L388.775,465.29381v-.656c0-29.57809,21.4348-99.10473,36.98466-129.81223,1.47561-2.914,4.52437-4.62613,7.57833-3.44982a3.6732,3.6732,0,0,1,.76914.44114Z"/>
        <path class="cls-22" d="M650.70779,745.72738v-2.30011a7.05026,7.05026,0,0,1,3.527-6.10681L757.1152,677.92058v-.655c0-29.58044,17.80082-90.29655,36.98108-129.80989,1.43006-2.94606,4.53352-4.62969,7.588-3.44883l0,0a3.02753,3.02753,0,0,1,1.82916,4.02317c-18.02305,35.01137-37.34951,99.77228-37.34951,129.23554v2.25812a6.27428,6.27428,0,0,1-3.13887,5.43468L654.23749,747.766A2.35357,2.35357,0,0,1,650.70779,745.72738Z"/>
      </g>
    </g>
    <path class="cls-22" d="M386.64718,466.515,756.048,679.7718l1.0792-1.86018,1.05078-1.83175L388.80559,462.8514c-.01422.61059-.02843,1.207-.02843,1.7892v.65314Z"/>
    <polygon class="cls-22" points="303.919 514.283 672.283 726.901 676.543 724.445 308.179 511.813 303.919 514.283"/>
    <polygon class="cls-22" points="331.495 498.351 699.845 710.983 704.091 708.541 335.755 495.895 331.495 498.351"/>
    <polygon class="cls-22" points="359.071 482.433 727.421 695.079 731.681 692.608 363.331 479.976 359.071 482.433"/>
    <path class="cls-22" d="M415.84211,357.5452l368.279,212.60358c.5396-1.3348,1.07921-2.66959,1.61872-3.976l-368.32158-212.632Q416.6302,355.50036,415.84211,357.5452Z"/>
    <path class="cls-22" d="M406.55543,383.64448l368.066,212.47592c.45441-1.37744.92294-2.74066,1.39156-4.118l-368.10864-212.49C407.44994,380.88979,406.99562,382.26713,406.55543,383.64448Z"/>
    <path class="cls-22" d="M398.51825,410.46806l367.995,212.43327c.38342-1.40577.76676-2.82576,1.1644-4.24574L399.69686,406.22231C399.29923,407.6423,398.90168,409.06228,398.51825,410.46806Z"/>
    <path class="cls-22" d="M391.98634,438.15781l368.10856,212.49q.3835-2.19381.852-4.43035L392.86673,433.75588C392.55429,435.24685,392.25615,436.70948,391.98634,438.15781Z"/>
  </g>
  <path class="cls-22" d="M534.33251,679.90168l-.67346-4.16639a12.35338,12.35338,0,0,1,5.614-12.42565l56.95423-38.64838a86.46689,86.46689,0,0,0,36.35176-55.182L653.93145,458.7118l-25.142-14.51335L530.71287,622.90133,510.1017,651.69022V665.915Z"/>
  <g>
    <g>
      <path class="cls-23" d="M504.37256,377.11313,464.1915,448.46286l-25.48616-7.98936-6.16986,18.43484s27.1475,27.6495,41.27752,21.92806,30.44036-39.08848,39.41226-54.10647L532.711,363.87619Z"/>
      <path class="cls-23" d="M438.07027,440.14809s-9.87794-5.683-15.79011-5.79119-16.29715,9.7313-16.29715,9.7313l14.91657,21.67347,16.95413-7.7376,3.07917.11169C449.24413,453.21657,444.78038,443.32126,438.07027,440.14809Z"/>
      <path class="cls-24" d="M497.61134,383.563c-11.37989,13.94749-32.68041,56.35552-32.68041,56.35552-4.96674,11.84932,23.53147,34.13316,33.44637,25.45231a265.33205,265.33205,0,0,0,20.04255-28.46809l14.31689-74.10886S513.44113,364.16158,497.61134,383.563Z"/>
      <path class="cls-25" d="M496.02744,413.57624l2.34986,51.79468s3.44067-4.18115,8.03882-10.48047Z"/>
      <path class="cls-26" d="M462.51294,702.30947s8.841,22.5292,4.96109,28.96491-11.91073,6.70153-22.27776,10.48505-19.18008,9.781-36.65244,7.4257-16.83156-15.98721-8.11242-19.78965l19.09482-10.19491,16.85942-14.25991Z"/>
      <path class="cls-27" d="M435.46123,697.56047,434.179,708.65888l-8.69528,7.22254c4.30587-2.87058,12.209.43883,15.24546,6.24251,0,0,17.09646-7.105,18.98-10.27594.74047-1.24663-.7625-4.79925-.7625-4.79925L455.257,704.6969Z"/>
      <path class="cls-26" d="M530.65349,596.3893l-24.22887-78.233-85.15914,29.12934c-18.60085,7.90015-28.97076,32.17675-23.5543,51.64637l30.533,106.39618c4.65142,12.89362,40.38589,9.06383,40.28625-3.26224l-6.15859-97.3335Z"/>
      <path class="cls-26" d="M520.32193,732.85385s2.57778,15.47721,1.44057,20.97151c-1.42517,6.88558-5.97381,11.82947-6.98014,16.41275s-2.1357,14.07458-10.6627,19.85217c-17.29569,11.71893-33.59409.35914-25.90891-14.30547l6.10958-12.73113,13.47221-32.09923Z"/>
      <path class="cls-27" d="M496.90473,739.49643l-4.98465,11.35862c5.46108-4.00238,12.19577-1.93854,18.715,3.42658l4.119-12.50535Z"/>
      <path class="cls-28" d="M508.5115,498.40021l-18.94271,29.39611,21.19149,42.6383-14.24123,18.62052a52.43492,52.43492,0,0,0-15.17935,42.27617l8.52152,99.10331c1.842,16.609,31.3129,16.609,34.46809,2.21276L542.8825,637.158l31.68424-21.61874c16.1478-11.35526,31.75127-25.46983,32.41187-53.27488s-1.75025-41.571-1.75025-41.571Z"/>
      <path class="cls-26" d="M494.97523,498.17362l-3.81508,9.3364s7.45379,21.6461,42.83417,31.86077,73.0989,2.383,73.0989,2.383V524.05164Z"/>
      <path class="cls-29" d="M553.41047,362.21728c-36.68685-3.76605-64.26721,19.7918-56.43075,57.21736l7.82586,38.06364-3.88833,33.37584c-1.7234,10.43633,4.13418,24.38551,24.05056,33.54472,27.45334,12.62535,70.96265,17.73442,75.32138-2.49486l4.48133-20.57638,19.62493-70.84C620.41985,400.2644,582.02618,365.15479,553.41047,362.21728Z"/>
      <path class="cls-26" d="M525.87,384.88758c-3.383,14.87234.23,30.7083,4.65958,41.74468,13.93317-5.9394,29.17021-18.82979,38.39709-31.69738Z"/>
      <path class="cls-30" d="M529.19287,387.10643c-1.04566,10.23515.02716,22.54824,3.61334,31.48328,13.29788-5.5532,23.63474-17.16507,30.69006-25.28356Z"/>
      <path class="cls-31" d="M585.22325,453.51545l-5.35669,55.30225-32.17017,10.72314,1.00317,12.8938c23.72242,5.55054,48.36573,4.45239,51.5896-10.51074l4.48145-20.57642,1.23608-4.46142Z"/>
      <path class="cls-23" d="M626.774,468.71526s1.18422,41.70555-1.29034,50.95824c-2.93617,10.97872-10.04331,15.3049-24.6383,15.57447-14.25532.26329-44.94835-.98994-44.94835-.98994l-1.75039-14.71088,40.42177-11.48353L592.72835,475.294Z"/>
      <path class="cls-32" d="M624.13875,428.79632c5.25983,34.4478,4.91971,68.5154,4.91971,68.5154.15216,12.82721-40.12773,13.599-41.02159-.36647L584.89444,448.441C584.81438,415.66582,619.4624,405.40642,624.13875,428.79632Z"/>
      <g>
        <path class="cls-16" d="M415.119,474.75675l61.62618,65.37757-26.36109-74.5175-56.5247-59.96556a1.56911,1.56911,0,0,0-2.62108,1.59959Z"/>
        <path class="cls-23" d="M433.69048,442.994l-9.5403-.52476c-3.856-.21178-5.6043,4.48461-.187,5.96677s9.06476,1.61405,14.29808,2.77883Z"/>
        <path class="cls-15" d="M415.119,474.75675l61.62618,65.37757,90.1144,10.08639a3.98154,3.98154,0,0,0,3.34016-6.68786L517.01749,487.1132a3.98157,3.98157,0,0,0-2.45438-1.22581Z"/>
        <path class="cls-23" d="M560.93317,519.13774s-8.1647-9.22658-12.03884-10.77919-12.65114-.84932-12.65114-.84932l3.97248,4.52964-6.41463,2.88057-9.516-1.83344a3.006,3.006,0,0,0-3.27325,4.27885c2.44655,4.93124,6.31647,11.69013,9.79206,13.23561,7.64692,3.40033,30.77159,3.822,30.77159,3.822C566.66222,535.85375,565.994,523.608,560.93317,519.13774Z"/>
      </g>
    </g>
    <polygon class="cls-33" points="522.183 386.385 538.272 401.287 562.611 405.697 562.081 390.983 534.837 379.508 522.183 386.385"/>
    <path class="cls-23" d="M538.8811,398.388l11.81465-9.10852,17.67154-16.42276s-4.701-9.79242-16.02873-8.18838c-9.84789,1.39449-16.04672,13.17059-16.04672,13.17059Z"/>
    <path class="cls-34" d="M539.0281,378.84486c1.61985,11.94363,21.54489,7.92659,28.24507-3.83073l-6.00834-24.81164-24.95038,8.38584Z"/>
    <g>
      <path class="cls-35" d="M538.8811,398.38791c-1.019-8.38063-1.52556-16.63583,1.16828-23.08742l7.67526-10.4493,1.20762-6.46461c-9.71058,2.40277-23.21925,20.76778-27.322,26.62612a.88116.88116,0,0,0,.89878,1.36691l6.75094-1.16456a2.7504,2.7504,0,0,1,2.85493,1.34469L538.8811,398.388Z"/>
      <path class="cls-35" d="M574.359,382.45842c-1.31429,7.61263-6.47432,17.57656-9.172,22.41371a1.98537,1.98537,0,0,1-3.41873.07793l-5.67648-9.07827a3.75145,3.75145,0,0,0-4.31826-1.58594L538.8811,398.388h0s9.01782-9.073,13.82277-12.94738c13.777-11.10889,11.30447-24.58491,11.30447-24.58491s1.3133.34509,4.218,3.28026S576.16116,372.01969,574.359,382.45842Z"/>
    </g>
    <g>
      <path class="cls-23" d="M540.64639,380.90289c13.27959-3.70665,20.07142-11.2561,20.25184-23.91754l.34538-27.3743c.44784-11.039-9.88253-21.00417-22.717-20.407-11.21718.52187-22.24564,7.11694-21.79153,22.7563a251.44435,251.44435,0,0,0,3.23931,27.37912C522.30349,371.39458,528.57813,384.27143,540.64639,380.90289Z"/>
      <path class="cls-36" d="M522.609,319.72635c2.49132.475,1.32328,2.58414,5.83073,3.68543,3.81371.93179,11.18243-1.68429,16.133-2.24407,5.7986-.65568,11.28274,3.08329,10.89842,8.36707-.26712,3.67246-2.2886,3.5813-3.73239,6.36683-.99788,1.92522,1.09947,5.72994,1.09947,5.72994l3.26828,7.66254,4.62511,9.56944s8.18548,1.54479,8.532-8.46106c.11992-3.46265,3.26231-4.36581,4.24789-7.79849,1.388-4.83422-1.074-7.80278-1.25629-10.59421-.21686-3.32007,1.68905-8.00707.28651-11.44422-1.943-4.76152-4.47493-5.13292-7.82288-7.5569-2.78087-2.01341-3.19867-4.44614-6.34453-5.96768-5.06526-2.44988-7.24892-.732-10.88666-1.58272-3.64777-.85309-4.62188-2.81194-9.44347-2.46124-3.10617.22593-5.50318,2.6525-8.36349,3.29072-3.48875.77844-8.45122-.05889-12.21266,4.01243-3.33495,3.60969-1.94323,7.21985-3.014,10.74691s-1.47608,6.93927.10122,12.4112a85.72556,85.72556,0,0,0,3.06152,9.03043,97.08633,97.08633,0,0,1-.52513-14.85753C517.43144,322.09521,520.11769,319.25134,522.609,319.72635Z"/>
      <path class="cls-37" d="M518.96073,353.361s.46175,12.52965.8597,15.90243.52171,7.96247,4.29707,12.02427c3.36189,3.617,14.48329,5.49828,19.783,3.15831,7.94009-3.50577,11.194-8.68848,12.987-15.00521a32.99522,32.99522,0,0,0,1.22885-8.44017l-.52241-3.81945-1.064-10.34467-3.69156-5.20495c2.31162,4.67508.67856,14.96556-.35884,18.78547-1.18478,4.36262-3.35478,11.61638-8.61948,12.24069s-2.72439-4.81654-13.4477-7.25864c-6.13874-1.398-5.10412,3.38293-6.84556,2.53281C520.86758,366.61419,518.96073,353.361,518.96073,353.361Z"/>
      <g>
        <path class="cls-38" d="M525.68036,351.747c2.20314-.72471,5.12006-.05546,7.63284,2.127"/>
        <line class="cls-38" x1="545.29539" y1="352.94898" x2="559.5466" y2="346.44374"/>
        <path class="cls-18" d="M526.25632,354.74479c-1.27466,2.50225-8.44548,2.43488-10.78966-.9372-2.74236-3.94486-2.47774-9.87129-.30019-10.27915s8.01262,1.60385,9.71226,3.37626A7.10792,7.10792,0,0,1,526.25632,354.74479Z"/>
        <path class="cls-18" d="M531.56613,355.12445c-1.15129-2.14131-1.004-5.36689.76378-6.62523,1.6933-1.20528,9.18545-.55535,11.74609,1.47031,1.85377,1.46648,3.86833,5.66986,1.43515,8.787C542.6182,362.46268,534.65624,360.87185,531.56613,355.12445Z"/>
      </g>
      <path class="cls-23" d="M525.59115,371.71815s.39226-3.38745,3.23728-2.99231c6.43923.89432,7.279,4.99829,7.279,4.99829Z"/>
      <path class="cls-23" d="M559.52431,364.01145c4.572-.06841,8.32523-6.50986,8.24759-11.698s-4.635-9.48718-8.52872-7.08987C554.35529,348.233,554.95227,364.07986,559.52431,364.01145Z"/>
    </g>
  </g>
  <path class="cls-10" d="M108.75767,681.23539l21.05072,12.15677V707.426l-10.5274-6.07957a21.05071,21.05071,0,0,1-10.52332-18.22928Z"/>
  <path class="cls-39" d="M130.364,636.98777c12.18665,10.11721,45.27283,9.16087,51.506-10.00243,10.462,4.25366,26.44231-7.12783,22.00192-15.18631,19.15645,5.3205,35.13721-9.87652,29.91693-21.7047,31.54781-14.72976,12.5781-43.52931-4.0922-41.40248,1.83646-17.75641-14.19869-26.9601-27.30486-17.04375-8.79511-15.08952-36.21518-10.3472-36.0897,9.86752-23.17669-13.51774-52.78514,6.27252-40.97794,35.81771-6.57578-6.02031-12.0964-3.12725-16.55478,1.50115v61.29557C114.70705,640.46924,121.86315,639.575,130.364,636.98777Z"/>
  <g>
    <g>
      <g>
        <path class="cls-40" d="M272.54324,93.8809a193.7448,193.7448,0,1,1-75.66674,15.27026A193.17607,193.17607,0,0,1,272.54324,93.8809m0-17.54224c-117.05664,0-211.95,94.89332-211.95,211.9502s94.89331,211.9502,211.95,211.9502c117.05689,0,211.9502-94.89332,211.9502-211.9502s-94.89331-211.9502-211.9502-211.9502Z"/>
        <circle class="cls-41" cx="272.54335" cy="288.28891" r="196.04503"/>
      </g>
      <circle class="cls-40" cx="96.42821" cy="179.94767" r="62.61491"/>
    </g>
    <g class="cls-42">
      <g>
        <g>
          <path class="cls-43" d="M181.36778,310.97424,86.24311,479.88768l-60.336-18.914L11.30062,504.6163s64.269,65.45746,97.72043,51.91251,72.06454-92.5381,93.30463-128.09169l46.13062-148.8Z"/>
          <path class="cls-43" d="M24.40368,460.20328s-23.385-13.45388-37.38153-13.71007-38.58189,23.03788-38.58189,23.03788l35.3135,51.3098,40.13724-18.318,7.28962.26442C50.85669,491.14161,40.28919,467.71544,24.40368,460.20328Z"/>
          <path class="cls-44" d="M165.36127,326.24359c-26.94078,33.01929-77.36764,133.4161-77.36764,133.4161-11.75826,28.05209,55.70844,80.80687,79.181,60.25581,0,0,26.20867-31.84177,47.44876-67.39537l33.89382-175.44538S202.83672,280.31273,165.36127,326.24359Z"/>
          <path class="cls-25" d="M161.61155,397.29705l5.56305,122.61877s8.14545-9.89846,19.0311-24.81147Z"/>
          <path class="cls-26" d="M243.58527,830.08887,186.22584,644.88008-15.38,713.8409c-44.03568,18.70282-68.58539,76.17527-55.76247,122.26766L1.14143,1087.991c11.01177,30.52436,95.6096,21.45772,95.37372-7.723L81.93529,849.84053Z"/>
          <path class="cls-28" d="M191.16632,598.10939l-44.845,69.59238,50.16875,100.942L162.77537,812.726a124.13448,124.13448,0,0,0-35.9356,100.08464l20.17386,234.61727c4.36079,39.32018,74.13019,39.32018,81.59978,5.23851l43.92284-226.06161,75.00931-51.18023c38.22831-26.88246,75.168-60.29729,76.73189-126.123s-4.14354-98.41518-4.14354-98.41518Z"/>
          <path class="cls-45" d="M159.12055,597.573l-9.03184,22.103s17.6461,51.245,101.40566,75.42722,173.0544,5.64146,173.0544,5.64146v-41.908Z"/>
          <path class="cls-46" d="M297.46019,275.70979C210.60769,266.794,145.31392,322.56493,163.866,411.16622l18.52693,90.1119-9.20522,79.014c-4.08,24.707,9.78727,57.73028,56.93731,79.41381,64.99307,29.88924,167.99705,41.98448,178.31591-5.90636L419.05,605.08705l46.46008-167.7066C456.09826,365.78259,365.205,282.66407,297.46019,275.70979Z"/>
          <path class="cls-26" d="M232.261,329.37948c-8.00887,35.20879.54448,72.69887,11.03108,98.8264,32.98541-14.06095,69.05759-44.57766,90.90131-75.0404Z"/>
          <path class="cls-47" d="M240.1274,334.63239c-2.47548,24.2307.06431,53.38074,8.55424,74.53354,31.4814-13.14663,55.95289-40.63659,72.65567-59.85632Z"/>
          <path class="cls-48" d="M372.77378,491.84918,360.09234,622.77177l-76.15968,25.386,2.37492,30.52479c56.16046,13.14035,114.50106,10.5406,122.13327-24.88314l10.60937-48.71263,2.92631-10.562Z"/>
          <path class="cls-43" d="M471.14113,527.83323s2.80351,98.73375-3.05476,120.63857c-6.95109,25.991-23.77655,36.23285-58.32873,36.871-33.74806.62332-106.41078-2.34357-106.41078-2.34357L299.203,648.17269l95.69453-27.18612-4.35615-77.57886Z"/>
          <path class="cls-49" d="M464.90239,433.32907c12.4521,81.55176,11.64692,162.20343,11.64692,162.20343.36022,30.36715-94.99844,32.1942-97.11455-.86757l-7.4394-114.82906C371.80583,402.24392,453.8316,377.95581,464.90239,433.32907Z"/>
          <g>
            <path class="cls-16" d="M-29.93114,542.13584,115.96275,696.91077,53.55548,520.498-80.26116,378.53545a3.7147,3.7147,0,0,0-6.20513,3.78686Z"/>
            <path class="cls-43" d="M14.035,466.94066l-22.58573-1.24232c-9.12861-.50136-13.26763,10.61687-.4427,14.12574s21.45992,3.82111,33.84929,6.5786Z"/>
            <path class="cls-15" d="M-29.93114,542.13584,115.96275,696.91077l213.33692,23.87852a9.42591,9.42591,0,0,0,7.90749-15.83285L211.30342,571.38852a9.42592,9.42592,0,0,0-5.81053-2.902Z"/>
            <path class="cls-43" d="M315.26943,647.20344s-19.32912-21.843-28.50076-25.51867-29.95033-2.01068-29.95033-2.01068l9.40445,10.72347-15.186,6.81948-22.52822-4.3405a7.11642,7.11642,0,0,0-7.74909,10.12977c5.792,11.67422,14.95361,27.67522,23.18173,31.334,18.10333,8.04993,72.84869,9.04816,72.84869,9.04816C328.83238,686.777,327.2504,657.78638,315.26943,647.20344Z"/>
          </g>
        </g>
        <polygon class="cls-33" points="223.532 332.924 244.619 342.516 261.621 368.205 290.821 358.964 319.241 378.644 317.987 343.81 253.49 316.643 223.532 332.924"/>
        <path class="cls-23" d="M263.06334,361.34027l27.97-21.56351L332.869,300.89749s-11.12921-23.18257-37.94643-19.38518c-23.3139,3.30132-37.989,31.18007-37.989,31.18007Z"/>
        <path class="cls-34" d="M263.41135,315.07394c3.83484,28.27536,51.00539,18.76542,66.86739-9.06886L316.0546,247.266,256.987,267.11862Z"/>
        <g>
          <path class="cls-35" d="M263.06333,361.34019c-2.41248-19.84033-3.6116-39.3837,2.76578-54.6572l18.17044-24.73767,2.8589-15.30432c-22.98883,5.68832-54.96926,49.16566-64.68221,63.0347a2.086,2.086,0,0,0,2.12777,3.236l15.98217-2.757a6.51131,6.51131,0,0,1,6.75878,3.18341l16.01838,28.00211Z"/>
          <path class="cls-35" d="M347.05364,323.6287c-3.11145,18.02213-15.32731,41.61076-21.71372,53.06223a4.70016,4.70016,0,0,1-8.09351.18449l-13.4385-21.4919a8.88117,8.88117,0,0,0-10.223-3.75456l-30.52153,9.71131h0s21.3488-21.47938,32.724-30.65163c32.61573-26.29921,26.76221-58.20234,26.76221-58.20234s3.10911.817,9.98572,7.76569S351.32018,298.916,347.05364,323.6287Z"/>
        </g>
        <g>
          <path class="cls-23" d="M267.24248,319.94612c31.43811-8.77512,47.5171-26.64769,47.94424-56.62241l.81765-64.80594c1.0602-26.13381-23.39592-49.72529-53.7803-48.31167-26.55556,1.23548-52.66434,16.84866-51.58929,53.87329,0,0,2.15476,36.27794,7.66874,64.81735S238.67208,327.9208,267.24248,319.94612Z"/>
          <path class="cls-50" d="M224.54076,175.11673c5.89795,1.12454,3.13273,6.1177,13.80367,8.7249,9.02857,2.20592,26.47329-3.9874,38.1933-5.31264,13.7276-1.55224,26.71077,7.2994,25.80093,19.80823-.63237,8.69418-5.418,8.47837-8.83606,15.07283-2.36239,4.55778,2.60289,13.56507,2.60289,13.56507l7.73732,18.1403,10.94948,22.65471s19.37832,3.65713,20.19868-20.03073c.2839-8.19749,7.72318-10.33563,10.05645-18.46214,3.28593-11.44455-2.54249-18.47232-2.97414-25.08076-.51339-7.85994,3.99866-18.95594.67828-27.093-4.59976-11.27243-10.594-12.15169-18.5199-17.89023-6.58343-4.76653-7.57253-10.52579-15.02-14.12788-11.99152-5.79986-17.16112-1.73291-25.7731-3.74694-8.63574-2.0196-10.94185-6.657-22.35648-5.82673-7.35355.53486-13.02824,6.27953-19.79973,7.79044-8.25928,1.84289-20.00743-.13941-28.91226,9.499-7.89517,8.5456-4.60042,17.09229-7.13544,25.44227s-3.49448,16.428.23962,29.38227a202.94869,202.94869,0,0,0,7.24785,21.37866s-2.2477-18.80977-1.2432-35.17375C212.28339,180.72477,218.64281,173.99219,224.54076,175.11673Z"/>
          <path class="cls-51" d="M215.90384,254.74336s1.09314,29.66269,2.03524,37.64742,1.23511,18.85036,10.17289,28.46627c7.95895,8.56281,34.28776,13.01664,46.8343,7.477,18.79738-8.29957,26.50056-20.56912,30.74546-35.52335a78.11336,78.11336,0,0,0,2.90918-19.98126l-1.23675-9.04217-2.51894-24.49-8.7394-12.32222c5.47252,11.06779,1.60642,35.4295-.84952,44.47276-2.80485,10.32805-7.94211,27.50063-20.40578,28.9786s-6.44972-11.40266-31.83609-17.18409c-14.53286-3.30968-12.08349,8.00874-16.20618,5.99617C220.41811,286.119,215.90384,254.74336,215.90384,254.74336Z"/>
          <g>
            <path class="cls-52" d="M231.81189,250.92241c5.21572-1.71566,12.12124-.13129,18.07,5.03537"/>
            <line class="cls-52" x1="278.24854" y1="253.76802" x2="311.98687" y2="238.36749"/>
            <path class="cls-18" d="M233.17542,258.01941c-3.01763,5.92384-19.99385,5.76434-25.54346-2.21872-6.49227-9.33906-5.86579-23.36929-.71066-24.33488s18.96908,3.797,22.99281,7.993C235.03188,244.79568,235.85935,252.75064,233.17542,258.01941Z"/>
            <path class="cls-18" d="M245.74587,258.91823c-2.72556-5.06936-2.377-12.70558,1.80818-15.68457,4.0087-2.85341,21.74563-1.31476,27.8077,3.48081,4.38862,3.47174,9.15788,13.42282,3.39758,20.80232C271.91055,276.29075,253.06139,272.52463,245.74587,258.91823Z"/>
          </g>
          <path class="cls-43" d="M231.60069,298.20217s.92863-8.01945,7.664-7.084c15.24423,2.11722,17.23225,11.833,17.23225,11.833Z"/>
          <path class="cls-23" d="M311.93408,279.95731c10.82383-.162,19.70916-15.41145,19.52537-27.69382s-10.97291-22.45994-20.19091-16.78455C299.697,242.60339,301.11025,280.11927,311.93408,279.95731Z"/>
        </g>
      </g>
    </g>
  </g>
  <g>
    <rect class="cls-17" x="89.89837" y="146.52034" width="13.0597" height="66.85466" transform="translate(-98.99905 120.8905) rotate(-45)"/>
    <rect class="cls-17" x="89.89837" y="146.52034" width="13.0597" height="66.85466" transform="translate(37.37104 375.37493) rotate(-135)"/>
  </g>
</svg>
