<svg id="Layer_1" data-name="Layer 1" xmlns="http://www.w3.org/2000/svg" xmlns:xlink="http://www.w3.org/1999/xlink" viewBox="0 0 1000 1000">
  <defs>
    <style>
      .cls-1 {
        fill: url(#linear-gradient);
      }

      .cls-2 {
        fill: #b8cbd8;
      }

      .cls-3 {
        fill: url(#linear-gradient-2);
      }

      .cls-4 {
        fill: url(#linear-gradient-3);
      }

      .cls-5 {
        fill: url(#linear-gradient-4);
      }

      .cls-6 {
        fill: url(#linear-gradient-5);
      }

      .cls-7 {
        fill: url(#linear-gradient-6);
      }

      .cls-8 {
        fill: url(#linear-gradient-7);
      }

      .cls-9 {
        fill: url(#linear-gradient-8);
      }

      .cls-10 {
        fill: url(#linear-gradient-9);
      }

      .cls-11 {
        fill: url(#linear-gradient-10);
      }

      .cls-12 {
        fill: #2a3f5e;
        opacity: 0.2;
      }

      .cls-13 {
        fill: url(#linear-gradient-11);
      }

      .cls-14 {
        fill: #e58630;
      }

      .cls-15 {
        fill: url(#linear-gradient-12);
      }

      .cls-16 {
        fill: url(#linear-gradient-13);
      }

      .cls-17 {
        fill: url(#linear-gradient-14);
      }

      .cls-18 {
        fill: url(#linear-gradient-15);
      }

      .cls-19 {
        fill: url(#linear-gradient-16);
      }

      .cls-20 {
        fill: url(#linear-gradient-17);
      }

      .cls-21 {
        fill: url(#linear-gradient-18);
      }

      .cls-22 {
        fill: url(#linear-gradient-19);
      }

      .cls-23 {
        fill: #541510;
        opacity: 0.3;
      }

      .cls-24 {
        fill: url(#linear-gradient-20);
      }

      .cls-25 {
        fill: url(#linear-gradient-21);
      }

      .cls-26 {
        fill: #bcd0e2;
      }

      .cls-27 {
        fill: #e9f1f4;
      }

      .cls-28 {
        fill: url(#linear-gradient-22);
      }

      .cls-29 {
        fill: #606060;
      }

      .cls-30 {
        fill: url(#linear-gradient-23);
      }

      .cls-31 {
        fill: url(#linear-gradient-24);
      }

      .cls-32 {
        fill: #f0f9fc;
      }

      .cls-33 {
        fill: url(#linear-gradient-25);
      }

      .cls-34 {
        fill: url(#linear-gradient-26);
      }

      .cls-35 {
        fill: url(#linear-gradient-27);
      }

      .cls-36 {
        fill: url(#linear-gradient-28);
      }

      .cls-37 {
        fill: url(#linear-gradient-29);
      }

      .cls-38 {
        fill: url(#linear-gradient-30);
      }

      .cls-39 {
        fill: url(#linear-gradient-31);
      }

      .cls-40 {
        fill: url(#linear-gradient-32);
      }

      .cls-41 {
        fill: url(#linear-gradient-33);
      }

      .cls-42 {
        fill: #d7ebf4;
      }

      .cls-43 {
        fill: #7995a8;
      }

      .cls-44 {
        fill: url(#linear-gradient-34);
      }

      .cls-45 {
        fill: url(#linear-gradient-35);
      }

      .cls-46 {
        fill: url(#linear-gradient-36);
      }

      .cls-47 {
        fill: #ffcb48;
      }

      .cls-48 {
        fill: #404e59;
      }

      .cls-49 {
        fill: #27343d;
      }

      .cls-50 {
        fill: url(#linear-gradient-37);
      }

      .cls-51, .cls-54 {
        fill: #dd7b19;
      }

      .cls-51 {
        opacity: 0.5;
      }

      .cls-52 {
        fill: #b75c5a;
      }

      .cls-53 {
        fill: #303d49;
      }

      .cls-55 {
        fill: url(#linear-gradient-38);
      }

      .cls-56 {
        fill: url(#linear-gradient-39);
      }

      .cls-57 {
        fill: #323f4c;
      }

      .cls-58 {
        fill: #90a0af;
      }

      .cls-59 {
        fill: #ccd8e2;
      }

      .cls-60 {
        fill: #994a4a;
      }

      .cls-61 {
        fill: url(#linear-gradient-40);
      }

      .cls-62 {
        fill: url(#linear-gradient-41);
      }

      .cls-63 {
        fill: url(#linear-gradient-42);
      }

      .cls-64 {
        fill: url(#linear-gradient-43);
      }

      .cls-65 {
        fill: url(#linear-gradient-44);
      }

      .cls-66 {
        fill: url(#linear-gradient-45);
      }

      .cls-67 {
        fill: url(#linear-gradient-46);
      }

      .cls-68 {
        fill: url(#linear-gradient-47);
      }

      .cls-69 {
        fill: url(#linear-gradient-48);
      }

      .cls-70 {
        fill: url(#linear-gradient-49);
      }

      .cls-71 {
        fill: url(#linear-gradient-50);
      }

      .cls-72 {
        fill: url(#linear-gradient-51);
      }

      .cls-73 {
        fill: url(#linear-gradient-52);
      }

      .cls-74 {
        fill: url(#linear-gradient-53);
      }

      .cls-75 {
        fill: url(#linear-gradient-54);
      }

      .cls-76 {
        fill: url(#linear-gradient-55);
      }

      .cls-77 {
        fill: url(#linear-gradient-56);
      }

      .cls-78 {
        fill: url(#linear-gradient-57);
      }

      .cls-79 {
        fill: url(#linear-gradient-58);
      }

      .cls-80 {
        fill: url(#linear-gradient-59);
      }

      .cls-81 {
        fill: url(#linear-gradient-60);
      }

      .cls-82 {
        fill: url(#linear-gradient-61);
      }

      .cls-83 {
        fill: #724133;
      }

      .cls-84 {
        fill: url(#linear-gradient-62);
      }

      .cls-85 {
        fill: url(#linear-gradient-63);
      }

      .cls-86 {
        fill: url(#linear-gradient-64);
      }

      .cls-87 {
        fill: url(#linear-gradient-65);
      }

      .cls-88 {
        fill: url(#linear-gradient-66);
      }

      .cls-89 {
        fill: url(#linear-gradient-67);
      }

      .cls-90 {
        fill: url(#linear-gradient-68);
      }
    </style>
    <linearGradient id="linear-gradient" x1="499.99188" y1="393.55996" x2="921.27857" y2="393.55996" gradientUnits="userSpaceOnUse">
      <stop offset="0" stop-color="#f0f9ff"/>
      <stop offset="1" stop-color="#c3d6e6"/>
    </linearGradient>
    <linearGradient id="linear-gradient-2" x1="541.30297" y1="293.78781" x2="596.5573" y2="293.78781" gradientUnits="userSpaceOnUse">
      <stop offset="0" stop-color="#3e4c59"/>
      <stop offset="1" stop-color="#293440"/>
    </linearGradient>
    <linearGradient id="linear-gradient-3" x1="549.66476" y1="293.79009" x2="588.18656" y2="293.79009" gradientUnits="userSpaceOnUse">
      <stop offset="0" stop-color="#5b6f82"/>
      <stop offset="1" stop-color="#849bb2"/>
    </linearGradient>
    <linearGradient id="linear-gradient-4" x1="582.17955" y1="170.55047" x2="547.6611" y2="419.32137" gradientUnits="userSpaceOnUse">
      <stop offset="0" stop-color="#62778c"/>
      <stop offset="1" stop-color="#435466"/>
    </linearGradient>
    <linearGradient id="linear-gradient-5" x1="613.08527" y1="153.80842" x2="515.94761" y2="439.92298" xlink:href="#linear-gradient-3"/>
    <linearGradient id="linear-gradient-6" x1="833.08744" y1="466.82722" x2="888.34177" y2="466.82722" xlink:href="#linear-gradient-2"/>
    <linearGradient id="linear-gradient-7" x1="841.44923" y1="466.82951" x2="879.97103" y2="466.82951" xlink:href="#linear-gradient-3"/>
    <linearGradient id="linear-gradient-8" x1="872.85407" y1="326.2351" x2="843.12482" y2="586.66328" xlink:href="#linear-gradient-4"/>
    <linearGradient id="linear-gradient-9" x1="905.95945" y1="330.37886" x2="808.74588" y2="603.46061" xlink:href="#linear-gradient-3"/>
    <linearGradient id="linear-gradient-10" x1="78.72143" y1="719.89267" x2="921.27857" y2="719.89267" gradientUnits="userSpaceOnUse">
      <stop offset="0" stop-color="#dae9f2"/>
      <stop offset="0.99337" stop-color="#c4d5e6"/>
    </linearGradient>
    <linearGradient id="linear-gradient-11" x1="662.22376" y1="828.69886" x2="1046.6433" y2="797.49382" gradientTransform="translate(-293.19035)" gradientUnits="userSpaceOnUse">
      <stop offset="0.00005" stop-color="#ffb348"/>
      <stop offset="1" stop-color="#e68e2b"/>
    </linearGradient>
    <linearGradient id="linear-gradient-12" x1="-2250.23498" y1="599.50938" x2="-2226.97861" y2="599.50938" gradientTransform="matrix(-1, 0, 0, 1, -1940.97381, 0)" xlink:href="#linear-gradient-2"/>
    <linearGradient id="linear-gradient-13" x1="-2754.75266" y1="652.65382" x2="-2731.49629" y2="652.65382" gradientTransform="matrix(-1, 0, 0, 1, -1940.97381, 0)" xlink:href="#linear-gradient-2"/>
    <linearGradient id="linear-gradient-14" x1="-2549.62225" y1="772.95919" x2="-2526.36589" y2="772.95919" gradientTransform="matrix(-1, 0, 0, 1, -1940.97381, 0)" xlink:href="#linear-gradient-2"/>
    <linearGradient id="linear-gradient-15" x1="-2467.25995" y1="344.5123" x2="-2002.0097" y2="577.75611" gradientTransform="matrix(-1, 0, 0, 1, -1940.97381, 0)" xlink:href="#linear-gradient-2"/>
    <linearGradient id="linear-gradient-16" x1="-2450.18755" y1="278.02588" x2="-2250.35267" y2="539.72914" gradientTransform="matrix(-1, 0, 0, 1, -1940.97381, 0)" gradientUnits="userSpaceOnUse">
      <stop offset="0" stop-color="#62788c"/>
      <stop offset="1" stop-color="#526575"/>
    </linearGradient>
    <linearGradient id="linear-gradient-17" x1="-2457.17687" y1="292.40282" x2="-2252.39251" y2="559.05556" gradientTransform="matrix(-1, 0, 0, 1, -1940.97381, 0)" gradientUnits="userSpaceOnUse">
      <stop offset="0" stop-color="#849bb2"/>
      <stop offset="1" stop-color="#5b6f82"/>
    </linearGradient>
    <linearGradient id="linear-gradient-18" x1="-2637.89821" y1="581.96609" x2="-2198.94202" y2="699.82536" gradientTransform="matrix(-1, 0, 0, 1, -1940.97381, 0)" xlink:href="#linear-gradient-4"/>
    <linearGradient id="linear-gradient-19" x1="-2755.83962" y1="539.31831" x2="-2357.40722" y2="792.97868" xlink:href="#linear-gradient-16"/>
    <linearGradient id="linear-gradient-20" x1="-2742.27836" y1="613.20591" x2="-2176.18265" y2="643.83076" gradientTransform="matrix(-1, 0, 0, 1, -1940.97381, 0)" xlink:href="#linear-gradient-2"/>
    <linearGradient id="linear-gradient-21" x1="-2743.39054" y1="633.7643" x2="-2177.29482" y2="664.38915" gradientTransform="matrix(-1, 0, 0, 1, -1940.97381, 0)" xlink:href="#linear-gradient-2"/>
    <linearGradient id="linear-gradient-22" x1="484.16621" y1="496.42039" x2="764.42999" y2="632.84018" gradientUnits="userSpaceOnUse">
      <stop offset="0" stop-color="#ffcb48"/>
      <stop offset="0.99366" stop-color="#eb9e2f"/>
    </linearGradient>
    <linearGradient id="linear-gradient-23" x1="-2469.95862" y1="332.55426" x2="-2213.9673" y2="332.55426" xlink:href="#linear-gradient-16"/>
    <linearGradient id="linear-gradient-24" x1="-2446.33097" y1="244.2675" x2="-2213.70585" y2="416.8803" xlink:href="#linear-gradient-17"/>
    <linearGradient id="linear-gradient-25" x1="231.30944" y1="706.98281" x2="249.69873" y2="706.98281" xlink:href="#linear-gradient-2"/>
    <linearGradient id="linear-gradient-26" x1="183.26425" y1="679.27188" x2="201.65354" y2="679.27188" xlink:href="#linear-gradient-2"/>
    <linearGradient id="linear-gradient-27" x1="308.80121" y1="661.92199" x2="327.1905" y2="661.92199" xlink:href="#linear-gradient-2"/>
    <linearGradient id="linear-gradient-28" x1="-1910.77478" y1="580.27671" x2="-1849.75708" y2="682.82355" gradientTransform="matrix(-1, 0, 0, 1, -1666.27657, 0)" xlink:href="#linear-gradient-2"/>
    <linearGradient id="linear-gradient-29" x1="-2036.90484" y1="448.5162" x2="-1908.83729" y2="679.59462" gradientTransform="matrix(-1, 0, 0, 1, -1666.27657, 0)" xlink:href="#linear-gradient-4"/>
    <linearGradient id="linear-gradient-30" x1="-2002.67568" y1="467.14309" x2="-1921.00941" y2="683.06376" gradientTransform="matrix(-1, 0, 0, 1, -1666.27657, 0)" xlink:href="#linear-gradient-17"/>
    <linearGradient id="linear-gradient-31" x1="-2019.63994" y1="473.55938" x2="-1937.97367" y2="689.48004" gradientTransform="matrix(-1, 0, 0, 1, -1666.27657, 0)" xlink:href="#linear-gradient-17"/>
    <linearGradient id="linear-gradient-32" x1="-1997.03011" y1="564.8534" x2="-1846.68755" y2="564.8534" gradientTransform="matrix(-1, 0, 0, 1, -1666.27657, 0)" xlink:href="#linear-gradient-16"/>
    <linearGradient id="linear-gradient-33" x1="-1997.03017" y1="539.99011" x2="-1846.6876" y2="539.99011" gradientTransform="matrix(-1, 0, 0, 1, -1666.27657, 0)" xlink:href="#linear-gradient-17"/>
    <linearGradient id="linear-gradient-34" x1="-1950.99176" y1="445.67754" x2="-1885.33394" y2="506.69524" gradientTransform="matrix(-1, 0, 0, 1, -1666.27657, 0)" gradientUnits="userSpaceOnUse">
      <stop offset="0.00005" stop-color="#ffcb48"/>
      <stop offset="1" stop-color="#e68e2b"/>
    </linearGradient>
    <linearGradient id="linear-gradient-35" x1="-1927.10539" y1="461.05952" x2="-1906.9202" y2="461.05952" gradientTransform="matrix(-1, 0, 0, 1, -1666.27657, 0)" xlink:href="#linear-gradient-2"/>
    <linearGradient id="linear-gradient-36" x1="-1927.10537" y1="456.52413" x2="-1906.92009" y2="456.52413" gradientTransform="matrix(-1, 0, 0, 1, -1666.27657, 0)" xlink:href="#linear-gradient-4"/>
    <linearGradient id="linear-gradient-37" x1="415.34572" y1="465.11816" x2="495.0053" y2="600.94794" gradientTransform="matrix(1, 0, 0, 1, 0, 0)" xlink:href="#linear-gradient-34"/>
    <linearGradient id="linear-gradient-38" x1="450.7224" y1="444.37093" x2="530.38197" y2="580.20072" gradientTransform="matrix(1, 0, 0, 1, 0, 0)" xlink:href="#linear-gradient-34"/>
    <linearGradient id="linear-gradient-39" x1="468.04369" y1="434.21258" x2="547.70327" y2="570.04237" gradientTransform="matrix(1, 0, 0, 1, 0, 0)" xlink:href="#linear-gradient-34"/>
    <linearGradient id="linear-gradient-40" x1="483.7169" y1="388.0867" x2="515.6318" y2="441.70372" gradientUnits="userSpaceOnUse">
      <stop offset="0.00005" stop-color="#c6c6c6"/>
      <stop offset="1" stop-color="#a9b0b3"/>
    </linearGradient>
    <linearGradient id="linear-gradient-41" x1="468.48025" y1="397.15614" x2="500.39514" y2="450.77316" xlink:href="#linear-gradient-40"/>
    <linearGradient id="linear-gradient-42" x1="-2161.36366" y1="206.28378" x2="-2119.06491" y2="206.28378" gradientTransform="matrix(-1, 0, 0, 1, -1694.44681, 0)" gradientUnits="userSpaceOnUse">
      <stop offset="0" stop-color="#435466"/>
      <stop offset="1" stop-color="#62778c"/>
    </linearGradient>
    <linearGradient id="linear-gradient-43" x1="-2148.1364" y1="171.22904" x2="-2122.66466" y2="240.73669" gradientTransform="matrix(-1, 0, 0, 1, -1694.44681, 0)" gradientUnits="userSpaceOnUse">
      <stop offset="0" stop-color="#fff"/>
      <stop offset="0.98888" stop-color="#e6edf2"/>
    </linearGradient>
    <linearGradient id="linear-gradient-44" x1="-2169.93747" y1="179.15817" x2="-2019.26562" y2="316.66243" gradientTransform="matrix(-1, 0, 0, 1, -1694.44681, 0)" xlink:href="#linear-gradient-17"/>
    <linearGradient id="linear-gradient-45" x1="-2169.61854" y1="168.07889" x2="-2023.12002" y2="299.61095" gradientTransform="matrix(-1, 0, 0, 1, -1694.44681, 0)" xlink:href="#linear-gradient-4"/>
    <linearGradient id="linear-gradient-46" x1="-2157.0344" y1="154.06286" x2="-2010.53588" y2="285.59492" gradientTransform="matrix(-1, 0, 0, 1, -1694.44681, 0)" xlink:href="#linear-gradient-4"/>
    <linearGradient id="linear-gradient-47" x1="-2105.56142" y1="264.78071" x2="-2063.26268" y2="264.78071" xlink:href="#linear-gradient-42"/>
    <linearGradient id="linear-gradient-48" x1="-2095.50862" y1="228.71065" x2="-2064.16376" y2="298.95061" xlink:href="#linear-gradient-43"/>
    <linearGradient id="linear-gradient-49" x1="-2173.70739" y1="183.28911" x2="-2023.03554" y2="320.79336" gradientTransform="matrix(-1, 0, 0, 1, -1694.44681, 0)" xlink:href="#linear-gradient-17"/>
    <linearGradient id="linear-gradient-50" x1="-2173.79204" y1="172.72727" x2="-2027.29352" y2="304.25934" gradientTransform="matrix(-1, 0, 0, 1, -1694.44681, 0)" xlink:href="#linear-gradient-4"/>
    <linearGradient id="linear-gradient-51" x1="-2161.2079" y1="158.71124" x2="-2014.70938" y2="290.24331" gradientTransform="matrix(-1, 0, 0, 1, -1694.44681, 0)" xlink:href="#linear-gradient-4"/>
    <linearGradient id="linear-gradient-52" x1="-2049.75918" y1="255.09787" x2="-2007.46044" y2="255.09787" xlink:href="#linear-gradient-42"/>
    <linearGradient id="linear-gradient-53" x1="-2039.70638" y1="219.02781" x2="-2008.36152" y2="289.26777" xlink:href="#linear-gradient-43"/>
    <linearGradient id="linear-gradient-54" x1="-2143.52948" y1="150.22132" x2="-1992.85763" y2="287.72557" gradientTransform="matrix(-1, 0, 0, 1, -1694.44681, 0)" xlink:href="#linear-gradient-17"/>
    <linearGradient id="linear-gradient-55" x1="-2144.07264" y1="139.62624" x2="-1997.57413" y2="271.1583" gradientTransform="matrix(-1, 0, 0, 1, -1694.44681, 0)" xlink:href="#linear-gradient-4"/>
    <linearGradient id="linear-gradient-56" x1="-2131.4885" y1="125.61021" x2="-1984.98999" y2="257.14227" gradientTransform="matrix(-1, 0, 0, 1, -1694.44681, 0)" xlink:href="#linear-gradient-4"/>
    <linearGradient id="linear-gradient-57" x1="-2750.62053" y1="477.67437" x2="-2695.3662" y2="477.67437" gradientTransform="matrix(-1, 0, 0, 1, -2594.44681, 0)" xlink:href="#linear-gradient-2"/>
    <linearGradient id="linear-gradient-58" x1="-2742.25875" y1="477.67665" x2="-2703.73694" y2="477.67665" gradientTransform="matrix(-1, 0, 0, 1, -2594.44681, 0)" xlink:href="#linear-gradient-3"/>
    <linearGradient id="linear-gradient-59" x1="-2709.74396" y1="354.43703" x2="-2744.26241" y2="603.20793" gradientTransform="matrix(-1, 0, 0, 1, -2594.44681, 0)" xlink:href="#linear-gradient-4"/>
    <linearGradient id="linear-gradient-60" x1="-2678.83824" y1="337.69498" x2="-2775.9759" y2="623.80953" gradientTransform="matrix(-1, 0, 0, 1, -2594.44681, 0)" xlink:href="#linear-gradient-3"/>
    <linearGradient id="linear-gradient-61" x1="3868.55644" y1="664.4371" x2="3810.11781" y2="726.44241" gradientTransform="matrix(-1, 0, 0, 1, 3999.21293, 0)" xlink:href="#linear-gradient-34"/>
    <linearGradient id="linear-gradient-62" x1="3793.36713" y1="597.77203" x2="3829.58263" y2="617.52594" gradientTransform="matrix(-1, 0, 0, 1, 3999.21293, 0)" gradientUnits="userSpaceOnUse">
      <stop offset="0" stop-color="#f2883c"/>
      <stop offset="0.16716" stop-color="#e97d35"/>
      <stop offset="0.67368" stop-color="#d26124"/>
      <stop offset="0.96784" stop-color="#c9571e"/>
    </linearGradient>
    <linearGradient id="linear-gradient-63" x1="3813.14251" y1="552.73849" x2="3838.0178" y2="600.47709" xlink:href="#linear-gradient-62"/>
    <linearGradient id="linear-gradient-64" x1="3872.74475" y1="628.87897" x2="3842.56517" y2="648.08415" xlink:href="#linear-gradient-62"/>
    <linearGradient id="linear-gradient-65" x1="3792.63444" y1="620.72375" x2="3832.69097" y2="637.36824" xlink:href="#linear-gradient-62"/>
    <linearGradient id="linear-gradient-66" x1="3807.29948" y1="570.92651" x2="3827.41919" y2="607.32491" xlink:href="#linear-gradient-62"/>
    <linearGradient id="linear-gradient-67" x1="3899.29762" y1="579.17893" x2="3848.63252" y2="624.72266" xlink:href="#linear-gradient-62"/>
    <linearGradient id="linear-gradient-68" x1="3871.0737" y1="554.76501" x2="3847.11295" y2="596.6506" xlink:href="#linear-gradient-62"/>
  </defs>
  <g>
    <polygon class="cls-1" points="499.992 67.227 921.279 310.448 921.279 719.893 499.992 476.649 499.992 67.227"/>
    <polygon class="cls-2" points="500.008 67.227 78.721 310.448 78.721 719.893 500.008 476.649 500.008 67.227"/>
  </g>
  <g>
    <g>
      <path class="cls-3" d="M541.303,141.696l8.36179-4.82605,46.89254,27.0428L588.18656,443.736l.00008,6.96969L541.303,423.64812Z"/>
      <polygon class="cls-4" points="549.665 146.521 549.693 418.847 588.187 441.059 588.187 436.216 553.907 416.445 553.907 148.971 549.665 146.521"/>
      <polygon class="cls-5" points="541.303 141.696 541.307 423.652 588.187 450.706 588.187 441.059 549.665 418.83 549.665 146.521 541.303 141.696"/>
      <path class="cls-6" d="M596.5573,163.9127l-63.62862-36.72922V428.49l63.62862,36.72333ZM541.307,423.65181V141.69567l46.87963,27.05877V450.70572Z"/>
    </g>
    <g>
      <path class="cls-7" d="M833.08744,314.73537l8.36179-4.82606,46.89254,27.0428L879.971,616.77544l.00008,6.9697-46.88367-27.05761Z"/>
      <polygon class="cls-8" points="841.449 319.561 841.477 591.886 879.971 614.098 879.971 609.255 845.691 589.484 845.691 322.01 841.449 319.561"/>
      <polygon class="cls-9" points="833.087 314.735 833.092 596.691 879.971 623.745 879.971 614.098 841.449 591.87 841.449 319.561 833.087 314.735"/>
      <path class="cls-10" d="M888.34177,336.95211l-63.62862-36.72922v301.3065l63.62862,36.72334ZM833.09148,596.69122V314.73509l46.87963,27.05877V623.74514Z"/>
    </g>
  </g>
  <path class="cls-11" d="M85.9912,732.49667l392.2106,226.4329a43.61718,43.61718,0,0,0,43.61686-.00063l392.1905-226.4365a14.53907,14.53907,0,0,0,.00018-25.18216L521.80168,480.8567a43.61723,43.61723,0,0,0-43.62.00054L85.99035,707.31448A14.53907,14.53907,0,0,0,85.9912,732.49667Z"/>
  <path class="cls-12" d="M182.58514,685.06883l83.72156-48.32451a8.7051,8.7051,0,0,1,8.71373,0l53.55906,30.97462a4.35255,4.35255,0,0,1,0,7.53634l-83.72157,48.32451a8.70508,8.70508,0,0,1-8.71372,0l-53.55906-30.97462A4.35255,4.35255,0,0,1,182.58514,685.06883Z"/>
  <path class="cls-12" d="M819.90088,672.414,606.5725,795.57353a20.11586,20.11586,0,0,1-20.11783-.00154L240.83309,595.78068a10.05793,10.05793,0,0,1,.00065-17.41988L454.09725,455.2165a20.11586,20.11586,0,0,1,20.11688-.00059L819.90105,654.99306A10.05793,10.05793,0,0,1,819.90088,672.414Z"/>
  <path class="cls-13" d="M439.228,751.83581,368.12547,792.8929a7.26954,7.26954,0,0,0,0,12.59074L508.8512,886.74377a21.8086,21.8086,0,0,0,21.81413-.00178l71.06038-41.04834a7.26954,7.26954,0,0,0,0-12.58955L461.04213,751.8376A21.80863,21.80863,0,0,0,439.228,751.83581Z"/>
  <ellipse class="cls-14" cx="484.92507" cy="820.60717" rx="64.35396" ry="36.98503"/>
  <g>
    <g>
      <path class="cls-15" d="M309.26117,586.3285l-3.20386,21.4329c0,2.72222-3.78529,4.92886-8.45465,4.92886s-8.45465-2.20664-8.45465-4.92886l-3.14321-21.4329Z"/>
      <path class="cls-16" d="M813.77885,639.47294l-3.20386,21.4329c0,2.72222-3.78529,4.92886-8.45465,4.92886s-8.45465-2.20664-8.45465-4.92886l-3.14321-21.4329Z"/>
      <path class="cls-17" d="M608.64844,759.77831l-3.20386,21.4329c0,2.72222-3.78528,4.92886-8.45465,4.92886s-8.45464-2.20664-8.45464-4.92886l-3.14321-21.4329Z"/>
      <polygon class="cls-18" points="279.849 529.781 279.849 386.92 300.57 398.922 300.57 538.809 279.849 529.781"/>
      <g>
        <polygon class="cls-19" points="522.085 267.98 522.085 413.513 300.57 528.489 300.57 398.922 522.085 267.98"/>
        <polygon class="cls-20" points="508.171 276.246 508.171 464.932 317.656 529.979 317.656 388.863 508.171 276.246"/>
        <path class="cls-21" d="M279.84929,529.78137l.00271,56.71468a9.96213,9.96213,0,0,0,4.821,8.88945L587.25663,770.36332a19.40485,19.40485,0,0,0,9.76363,2.59587V567.33256Z"/>
        <path class="cls-22" d="M597.02026,567.33256V772.95919a19.27383,19.27383,0,0,0,9.61831-2.59587L812.08116,651.75676a9.56675,9.56675,0,0,0,4.83343-8.2429V586.143Z"/>
        <g>
          <path class="cls-23" d="M300.56957,512.51156v36.46827l.0097-.00969a9.58563,9.58563,0,0,0,4.814,8.80465l281.86611,162.785a19.30751,19.30751,0,0,0,9.76362,2.59588V537.68578Z"/>
          <path class="cls-24" d="M300.56957,526.954v36.46827l.0097-.0097a9.58561,9.58561,0,0,0,4.814,8.80465l281.86611,162.785a19.3075,19.3075,0,0,0,9.76362,2.59587V552.1282Z"/>
          <path class="cls-25" d="M597.023,552.1282V737.59807a19.2919,19.2919,0,0,0,9.60862-2.59587L812.07424,616.39564a9.60061,9.60061,0,0,0,4.84306-8.39791V570.80307Z"/>
          <path class="cls-14" d="M392.63361,514.128v87.83419L587.2574,714.36731a19.30148,19.30148,0,0,0,9.75912,2.59884v-185.464Z"/>
          <path class="cls-26" d="M300.56511,506.31325v36.4749h.01819a9.58031,9.58031,0,0,0,4.81589,8.79608l87.23442,50.37794V514.128Z"/>
          <path class="cls-14" d="M597.023,531.49617V716.96605a19.292,19.292,0,0,0,9.60862-2.59587L812.07424,595.76362a9.60061,9.60061,0,0,0,4.84306-8.39791V550.171Z"/>
          <path class="cls-27" d="M812.07677,558.96014,606.63445,677.56686a19.37228,19.37228,0,0,1-19.37415-.00148L305.39478,514.78011a9.68611,9.68611,0,0,1,.00063-16.77592L510.77526,379.41212a19.37224,19.37224,0,0,1,19.37322-.00056L812.07694,542.18319A9.68612,9.68612,0,0,1,812.07677,558.96014Z"/>
          <path class="cls-28" d="M395.57444,562.611,616.43537,435.08a20.74246,20.74246,0,0,1,6.14122-2.305L812.077,542.18315a9.6861,9.6861,0,0,1-.00044,16.777l-205.442,118.60669a19.37186,19.37186,0,0,1-19.374-.00144l-194.63489-112.407A10.41127,10.41127,0,0,1,395.57444,562.611Z"/>
        </g>
        <polygon class="cls-29" points="503.889 257.46 279.849 386.92 300.57 398.922 522.085 267.98 503.889 257.46"/>
        <path class="cls-30" d="M272.99349,385.95619,528.98481,257.4223v9.68429l-.00248-.00089a2.876,2.876,0,0,1-1.42318,2.54563L295.4128,406.87753a5.81184,5.81184,0,0,1-5.87026.026l-15.09968-8.74607a2.86689,2.86689,0,0,1-1.42868-2.68124l-.02069.01106Z"/>
        <path class="cls-31" d="M508.78364,248.02993,274.44546,383.4409a2.90583,2.90583,0,0,0-.00259,5.03048l15.09968,8.746a5.81168,5.81168,0,0,0,5.87024-.026L527.55914,259.96525a2.90584,2.90584,0,0,0-.0243-5.01717l-11.96534-6.91744A6.78028,6.78028,0,0,0,508.78364,248.02993Z"/>
      </g>
    </g>
    <g>
      <path class="cls-26" d="M566.30018,405.32436c-.211-.22766-41.25082-23.76634-41.25082-23.76634.21355-1.425-.14457-2.66339-1.06118-3.13992-1.0405-.54085-2.4726.06077-3.59187,1.36346-10.7355-4.44382-20.7842-2.95472-49.10717,13.14809-36.70706,20.86953-46.23481,33.0743-47.15295,44.78966-2.55481,1.21339-3.43047,2.72841-2.8467,4.25733.54034,1.41516,2.22388,1.52891,4.57242.96772.28172-.06731.56621-.07912.83543-.14023l38.72916,22.23828c-.369,1.63683.25489,3.82768,1.28568,4.34351,1.35463.678,3.29214-.72727,4.15838-3.454l.00095-.00217c16.88411-.69972,35.62094-13.02309,50.88163-22.64661,12.68188-7.99741,38.523-18.80895,44.33764-32.52366,2.24121-.00519,4.321-1.3482,4.40592-2.767C570.58292,406.54925,568.5819,405.566,566.30018,405.32436Z"/>
      <path class="cls-26" d="M457.204,471.20133c-.211-.22766-41.25082-23.76634-41.25082-23.76634.21355-1.425.55314-3.11081-.36348-3.58734-1.04049-.54085-3.1703.50819-4.28957,1.81089-14.23811-3.00623-20.7842-2.95473-49.10717,13.14808-36.70706,20.86953-38.93586,30.21353-47.15295,44.78966-2.55481,1.2134-3.91694,2.03345-3.33317,3.56237.54034,1.41517,4.0968,2.14743,5.89432,1.52245l38.72916,22.23828c-.369,1.63683.25489,3.82768,1.28568,4.34351,1.35463.67806,3.29214-.72727,4.15838-3.454l.001-.00216c16.88411-.69973,39.8741-10.97991,55.1348-20.60343,12.68188-7.99741,34.26983-20.85214,40.08447-34.56684,2.24121-.0052,4.42629-1.12533,4.51121-2.5441C461.592,472.6491,459.48573,471.44293,457.204,471.20133Z"/>
    </g>
    <g>
      <path class="cls-32" d="M570.12667,395.43147c-.211-.22766-41.25082-23.76635-41.25082-23.76635.21355-1.425-.14456-2.66338-1.06118-3.13991-1.04049-.54085-2.4726.06077-3.59186,1.36346-10.73551-4.44382-20.78421-2.95472-49.10717,13.14809-36.70707,20.86953-46.23481,33.0743-47.153,44.78966-2.55481,1.21339-3.43046,2.72841-2.84669,4.25732.54033,1.41517,2.22388,1.52892,4.57242.96773.28171-.06732.56621-.07912.83542-.14023L469.253,455.14952c-.369,1.63683.25488,3.82768,1.28568,4.34351,1.35463.67805,3.29214-.72728,4.15838-3.454l.00095-.00216c16.88411-.69972,35.62093-13.0231,50.88163-22.64661,12.68188-7.99742,38.523-18.80895,44.33764-32.52366,2.24121-.00519,4.321-1.3482,4.40592-2.767C574.40942,396.65636,572.4084,395.67307,570.12667,395.43147Z"/>
      <path class="cls-32" d="M461.03051,461.30844c-.21105-.22766-41.25083-23.76634-41.25083-23.76634.21355-1.425.55314-3.11081-.36348-3.58735-1.04049-.54084-3.17029.5082-4.28956,1.81089-14.23811-3.00622-20.78421-2.95472-49.10717,13.14809-36.70706,20.86953-38.93586,30.21353-47.153,44.78966-2.55481,1.2134-3.91693,2.03345-3.33316,3.56237.54033,1.41516,4.09679,2.14743,5.89431,1.52245l38.72917,22.23828c-.369,1.63683.25488,3.82768,1.28568,4.34351,1.35463.678,3.29214-.72727,4.15838-3.454l.00095-.00217c16.88411-.69972,39.8741-10.97991,55.13479-20.60342,12.68188-7.99742,34.26983-20.85214,40.08448-34.56685,2.24121-.00519,4.42629-1.12532,4.51121-2.5441C465.41853,462.75621,463.31223,461.55,461.03051,461.30844Z"/>
    </g>
  </g>
  <g>
    <g>
      <path class="cls-33" d="M249.69873,696.24043,247.338,713.80048c0,2.16758-3.05752,3.92472-6.8291,3.92472s-6.82892-1.75714-6.82892-3.92472l-2.37058-17.56005Z"/>
      <path class="cls-34" d="M201.65354,668.5295l-2.36069,17.56c0,2.16758-3.05752,3.92472-6.8291,3.92472s-6.82892-1.75714-6.82892-3.92472l-2.37058-17.56Z"/>
      <path class="cls-35" d="M327.1905,651.1796l-2.3607,17.56c0,2.16758-3.05752,3.92472-6.8291,3.92472s-6.82891-1.75714-6.82891-3.92472l-2.37058-17.56Z"/>
      <path class="cls-36" d="M181.34723,563.21859V674.8263a4.298,4.298,0,0,0,2.14622,3.73808l52.70031,30.47033a8.597,8.597,0,0,0,4.31033,1.14472V546.84589Z"/>
      <path class="cls-37" d="M240.50409,546.84589V710.17943a8.59746,8.59746,0,0,0,4.31077-1.14472l82.84469-47.82022a4.27884,4.27884,0,0,0,2.16434-3.73808V545.8687Z"/>
      <polygon class="cls-38" points="320.161 561.501 320.161 603.306 250.167 643.71 250.167 601.905 320.161 561.501"/>
      <polygon class="cls-39" points="320.161 612.762 320.161 654.583 250.167 694.987 250.167 653.166 320.161 612.762"/>
      <path class="cls-40" d="M330.75354,531.31509v13.81514a4.312,4.312,0,0,1-2.17411,3.76818L244.858,597.223a8.70546,8.70546,0,0,1-8.71382,0L182.58509,566.2483a4.312,4.312,0,0,1-2.17411-3.76818V548.665Z"/>
      <path class="cls-41" d="M182.58514,544.89688l83.72156-48.3245a8.7051,8.7051,0,0,1,8.71373,0L328.57949,527.547a4.35255,4.35255,0,0,1,0,7.53634l-83.72157,48.32451a8.70508,8.70508,0,0,1-8.71372,0l-53.55906-30.97462A4.35255,4.35255,0,0,1,182.58514,544.89688Z"/>
    </g>
    <g>
      <g>
        <g>
          <path class="cls-26" d="M229.11724,533.86577c2.31681-5.65283,11.10485-9.86437,21.619-9.86437s19.30221,4.21154,21.61894,9.86437h.61689v2.95338c0,7.07906-9.95529,12.81775-22.23583,12.81775s-22.23592-5.73869-22.23592-12.81775v-2.95338Z"/>
          <ellipse class="cls-42" cx="250.73623" cy="533.43075" rx="22.23588" ry="12.81779"/>
          <path class="cls-26" d="M233.90446,530.14012H233.892l.02618-.15529.004-.02485,1.883-11.2597H265.667l1.87063,11.21178c.008.04393.01464.08808.02174.13223l.016.09583h-.00754a5.71225,5.71225,0,0,1,.07277.8275c0,5.3816-7.56859,9.744-16.90442,9.744s-16.904-4.36243-16.904-9.744A5.71191,5.71191,0,0,1,233.90446,530.14012Z"/>
          <ellipse class="cls-42" cx="250.73623" cy="518.91874" rx="14.93093" ry="8.60688"/>
        </g>
        <path class="cls-43" d="M254.1623,494.78465v22.546c0,1.09073-1.5339,1.97494-3.42607,1.97494s-3.42608-.88421-3.42608-1.97494v-22.546Z"/>
      </g>
      <g>
        <path class="cls-44" d="M216.52838,491.94486h-.00179l.00554-.028a11.81463,11.81463,0,0,1,.31745-1.6175l6.90543-41.60024h53.96741l6.90738,41.62322a11.8071,11.8071,0,0,1,.30507,1.555l.01336.06755H284.944a11.544,11.544,0,0,1,.10169,1.44638c0,10.89006-15.361,19.71813-34.30942,19.71813-18.94877,0-34.30974-8.82807-34.30974-19.71813A11.51205,11.51205,0,0,1,216.52838,491.94486Z"/>
        <ellipse class="cls-14" cx="250.73616" cy="450.02895" rx="27.08493" ry="15.56605"/>
        <path class="cls-45" d="M260.82882,464.46636a45.69122,45.69122,0,0,1-20.18519,0v-7.94229h20.18519Z"/>
        <ellipse class="cls-46" cx="250.73616" cy="456.52413" rx="10.09264" ry="5.81787"/>
        <path class="cls-47" d="M250.73617,435.79787c14.19857,0,25.74982,6.384,25.74982,14.231s-11.55125,14.23115-25.74982,14.23115-25.74981-6.38412-25.74981-14.23115,11.55125-14.231,25.74981-14.231m0-1.335c-14.95852,0-27.08491,6.96917-27.08491,15.566,0,8.597,12.12639,15.56614,27.08491,15.56614s27.08492-6.96918,27.08492-15.56614c0-8.59686-12.12639-15.566-27.08492-15.566Z"/>
      </g>
    </g>
  </g>
  <g>
    <g>
      <g>
        <path class="cls-48" d="M389.12512,597.83061,375.71,590.08537c-5.23612-3.02307-5.21658-12.85945.04349-21.97016s13.76883-14.04576,19.00494-11.02269l13.41515,7.74524Z"/>
        <ellipse class="cls-49" cx="398.64934" cy="581.33419" rx="19.04843" ry="10.94737" transform="translate(-304.12551 635.90755) rotate(-60)"/>
      </g>
      <path class="cls-50" d="M467.498,482.382l10.51416-45.34228-2.93506,2.15216.81665-4.65491s-19.564,1.84759-29.29785,20.06769c-8.67651,16.241-18.86465,71.01308-18.86465,71.01308L404.0291,578.68154c-.20556,7.251,11.89472,12.97973,17.1391,10.39294,14.19239-17.92267,25.4455-34.29218,33.42768-51.0517l2.70434-11.66193a12.15332,12.15332,0,0,0,2.77491-1.67816Z"/>
      <path class="cls-51" d="M446.49521,477.945,433.838,572.33558a225.83191,225.83191,0,0,0,20.75782-34.31281l2.70434-11.66192c.14453-.06354.28687-.1355.42993-.20465Z"/>
      <path class="cls-52" d="M478.65279,788.98384s3.0257,16.03861-1.19787,19.078c-5.84913,4.20918-10.97968,2.14124-18.96867,3.00656-7.62924.82635-16.2363,5.79261-27.98835,1.63994-7.73507-2.73324-7.10642-8.09038-5.24782-10.22231.95592-1.0965,15.3608-6.398,15.3608-6.398l12.4478-7.1042Z"/>
      <path class="cls-49" d="M439.70624,592.46258c-.437,62.54074,9.44284,195.908,9.44284,195.908.656,8.724,30.5739,12.92539,30.97087,1.93369,3.302-32.10889,3.49732-64.07779,3.3313-90.43741l7.03894-72.15844Z"/>
      <path class="cls-52" d="M532.828,819.87535s.44856,8.39564-.92629,12.8875c-.8554,2.79475-3.22522,6.50511-5.41074,11.63925-1.61359,3.79058-3.25717,8.6903-10.30471,13.20793-10.95814,7.02442-22.90453.984-18.36723-7.866l5.72376-10.83664,8.75055-19.80362Z"/>
      <path class="cls-53" d="M533.54642,634.59319,529.92549,562.983l-87.06414-21.46352-3.15511,50.9431,34.94126,42.04257,33.13779,188.39516c1.27989,10.4752,25.65005,9.19771,25.99313.08208,1.41447-21.30345,6.609-67.11554.88827-112.90774C534.25761,669.49026,533.54642,634.59319,533.54642,634.59319Z"/>
      <path class="cls-54" d="M530.59734,576.26967l-.45776-9.05268-87.5332-21.57916-.99366,16.04144c3.2212,13.47022,14.52955,25.22443,32.72022,29.4906C495.08416,596.03645,523.11639,587.35249,530.59734,576.26967Z"/>
      <path class="cls-55" d="M496.42645,434.71756c-13.533-5.53153-48.3369,4.08593-49.405,32.75943l-2.416,48.05827-3.21029,25.93821c-.00954,16.37517,11.74176,31.91715,33.13511,36.93438,23.96187,5.6196,57.8285-7.13214,57.20591-20.50533L530.27234,537.988l10.4937-60.475C536.49381,461.35624,510.27633,440.37861,496.42645,434.71756Z"/>
      <polygon class="cls-51" points="512.412 501.575 512.728 550.931 532.302 554.675 523.451 521.654 512.412 501.575"/>
      <path class="cls-56" d="M540.766,477.513c-4.915-16.65954-30.70232,1.2962-28.354,24.06216l6.52436,41.74467-23.90331-1.75159a67.76945,67.76945,0,0,1-2.6687,15.57208s45.42641,20.36218,53.0232,7.6189C553.095,551.83048,544.851,491.30025,540.766,477.513Z"/>
    </g>
    <g>
      <g>
        <path class="cls-48" d="M468.35532,559.19007l-13.41515-7.74524c-5.23612-3.02307-5.21658-12.85945.04349-21.97016S468.75249,515.4289,473.9886,518.452l13.41515,7.74524Z"/>
        <ellipse class="cls-49" cx="477.87953" cy="542.69364" rx="19.04843" ry="10.94737" transform="matrix(0.5, -0.86603, 0.86603, 0.5, -231.04671, 685.20264)"/>
      </g>
      <path class="cls-57" d="M503.87027,549.5467,483.15884,537.589c-1.9408-1.12052-5.09465.70871-7.04433,4.08566s-1.95692,7.02287-.01611,8.14339l20.71143,11.95775Z"/>
      <path class="cls-52" d="M486.99947,536.2998c-5.44142-.46694-11.2988,4.8937-11.68272,8.47277s1.60332,10.784,5.14034,12.36779,12.80656,3.59745,12.80656,3.59745l7.13475-16.08949S492.4409,536.76673,486.99947,536.2998Z"/>
      <g>
        <path class="cls-48" d="M505.23085,580.262l-13.41515-7.74524c-5.23612-3.02308-5.21659-12.85945.04348-21.97016s13.76883-14.04577,19.005-11.02269l13.41515,7.74524Z"/>
        <path class="cls-49" d="M527.92317,553.01991l.00095-.00708.00457.03036c.03921.20437.064.41888.09444.62986l.81264,5.42193-.80469-.76982a30.76244,30.76244,0,0,1-11.35484,19.662l1.07158.31274-5.28256,2.07825c-.12363.0475-.248.10291-.37121.146l-.06932.02725.01355-.01064a8.09514,8.09514,0,0,1-6.80743-.27875c-5.23612-3.02307-5.21648-12.85939.04359-21.9701s13.76872-14.04583,19.00484-11.02275A8.09281,8.09281,0,0,1,527.92317,553.01991Z"/>
        <ellipse class="cls-53" cx="518.93644" cy="566.17966" rx="14.12878" ry="8.11999" transform="translate(-230.85775 732.50197) rotate(-60)"/>
      </g>
    </g>
    <g>
      <path class="cls-57" d="M424.64007,588.18725,403.92864,576.2295c-1.9408-1.12053-5.09465.7087-7.04433,4.08566s-1.95692,7.02286-.01611,8.14338l20.71143,11.95776Z"/>
      <path class="cls-52" d="M407.76927,574.94034c-4.24272-.86508-11.55168,5.90729-11.68272,8.66611-.21621,4.55166,2.06734,10.12475,5.14034,12.17446s12.77862,4.35641,12.77862,4.35641l7.16269-16.84845S412.012,575.80542,407.76927,574.94034Z"/>
      <g>
        <path class="cls-48" d="M426.00065,618.90254,412.5855,611.1573c-5.23612-3.02307-5.21659-12.85945.04349-21.97016s13.76882-14.04576,19.00494-11.02269l13.41515,7.74524Z"/>
        <path class="cls-49" d="M448.693,591.66045l.00095-.00708.00457.03036c.03921.20437.064.41888.09444.62986l.81264,5.42194-.80469-.76982a30.76244,30.76244,0,0,1-11.35484,19.662l1.07158.31273-5.28256,2.07826c-.12363.04749-.248.10291-.37121.146l-.06932.02725.01355-.01063a8.09514,8.09514,0,0,1-6.80743-.27876c-5.23612-3.02307-5.21648-12.85939.04359-21.9701s13.76872-14.04582,19.00484-11.02275A8.09283,8.09283,0,0,1,448.693,591.66045Z"/>
        <ellipse class="cls-53" cx="439.70624" cy="604.82021" rx="14.12878" ry="8.11999" transform="translate(-303.93654 683.20688) rotate(-60)"/>
      </g>
    </g>
    <g>
      <path class="cls-58" d="M475.523,486.018l.97059.63425a.83785.83785,0,0,0,1.28-.53739l1.59388-7.98592a1.42893,1.42893,0,0,0-.61963-1.47585l-.97059-.63425a.83784.83784,0,0,0-1.28.53739l-1.59389,7.98592A1.429,1.429,0,0,0,475.523,486.018Z"/>
      <path class="cls-59" d="M509.142,441.642c2.32013,6.42287-5.19672,13.81641-12.30979,20.11175-6.02809,5.3351-18.6141,14.68627-18.6141,14.68627s-1.87469-16.02962-1.42824-23.11148c.42966-6.81554,3.04131-14.24574,11.97511-17.47289S506.82189,435.21918,509.142,441.642Z"/>
      <ellipse class="cls-52" cx="493.13863" cy="445.88197" rx="13.73385" ry="9.87382" transform="translate(-122.1525 194.06208) rotate(-19.8612)"/>
      <path class="cls-54" d="M478.21812,476.44006S474.00483,454.579,473.127,452.454c-.5774-1.39778-3.02662-3.02135-4.63535-3.96889a1.67327,1.67327,0,0,1-.60016-2.28727c1.87964-3.22818,6.49652-10.77365,9.79661-12.96868,4.23643-2.81782,10.352-3.93379,10.352-3.93379l-1.97169,8.89971s-5.18919,3.161-7.13176,11.94288C477.50408,456.61416,478.21812,476.44006,478.21812,476.44006Z"/>
      <path class="cls-60" d="M483.89757,443.12762c.39349,9.81918,21.05242,6.87435,20.20113-2.04186l-2.64628-17.04192-18.28,4.48707Z"/>
      <path class="cls-54" d="M504.56265,433.56062c3.05075.77287,6.23895,5.16724,7.64693,9.12943,1.60574,4.51873,1.10384,14.11847.74481,18.708a1.85343,1.85343,0,0,1-2.50083,1.59519c-2.21494-.82749-5.64787-1.84049-8.44161-1.473-3.60844.4747-23.79383,14.91979-23.79383,14.91979s18.86176-22.86314,21.44269-28.123S503.21636,433.34,503.21636,433.34Z"/>
    </g>
    <g>
      <path class="cls-52" d="M487.67349,444.34654c10.04815-1.383,15.7488-6.21147,17.13788-15.423l2.97063-19.91986c1.42286-8.00229-5.11758-16.2923-14.53244-17.13178-8.22846-.7337-16.92256,2.97833-18.14488,14.42356a184.98071,184.98071,0,0,0-.35809,20.27942C475.247,435.59372,478.54191,445.60336,487.67349,444.34654Z"/>
      <path class="cls-61" d="M480.60152,397.96112c1.76884.59369.70793,2.01511,3.8842,3.26557,2.68741,1.058,8.31859-.11708,11.98285-.03343,4.29194.098,7.91818,3.36815,7.11324,7.18153-.55947,2.65047-2.024,2.38324-3.353,4.27032-.91861,1.30426.23233,4.286.23233,4.286l1.62132,5.91013,2.421,7.43491s5.81328,1.93905,7.05967-5.32018c.43133-2.51215,2.81164-2.85839,3.871-5.2627,1.4919-3.386-.00786-5.79442.13648-7.84731.17168-2.44167,2.02649-5.6689,1.34551-8.31367-.94338-3.66383-2.75214-4.186-4.95183-6.2855-1.82711-1.74385-1.89-3.55866-4.032-4.98021-3.44894-2.28891-5.21132-1.25356-7.77851-2.235-2.57427-.98415-3.08978-2.50878-6.63925-2.732-2.28665-.14382-4.27493,1.38692-6.42331,1.56805-2.6204.22093-6.15457-.88232-9.30079,1.71183-2.7895,2.3-2.13359,5.06982-3.26446,7.53448a14.52247,14.52247,0,0,0-1.15892,9.057,63.066,63.066,0,0,0,1.33474,6.88671,71.42432,71.42432,0,0,1,1.09289-10.88239C476.59212,399.17363,478.83269,397.36742,480.60152,397.96112Z"/>
      <path class="cls-62" d="M474.60151,422.11633s-.90789,9.17919-.9528,11.67727-.41055,5.856,1.938,9.19174c2.09137,2.97046,10.01133,5.44642,14.1069,4.2671a15.71324,15.71324,0,0,0,10.95707-9.648,24.27368,24.27368,0,0,0,1.73405-6.03031l-.00145-2.836.25186-7.64631-2.17395-4.16074c1.22068,3.63744-.99179,10.97637-2.12738,13.65781-1.29694,3.0624-3.59919,8.13442-7.49885,8.0666s-1.50752-3.78155-9.08159-6.62675c-4.33591-1.62878-4.05659,1.959-5.24156,1.16635C474.67514,431.96649,474.60151,422.11633,474.60151,422.11633Z"/>
      <path class="cls-52" d="M477.6114,436.15612s.62238-2.43028,2.657-1.85968c4.605,1.29146,4.80948,4.36641,4.80948,4.36641Z"/>
      <path class="cls-52" d="M503.112,433.90872c3.33952.40423,6.71514-3.91841,7.17385-7.70794s-2.43635-7.37592-5.51273-6.01516C500.91127,421.89381,499.77249,433.50448,503.112,433.90872Z"/>
    </g>
  </g>
  <g>
    <g>
      <polygon class="cls-63" points="424.618 186.441 466.917 161.98 466.917 226.126 424.618 250.587 424.618 186.441"/>
      <polygon class="cls-64" points="424.618 189.784 457.765 170.616 457.765 220.883 424.618 240.052 424.618 189.784"/>
      <path class="cls-65" d="M463.1237,168.55574V223.938l-34.71245,20.07381v-55.3823l34.71245-20.07379m3.79314-6.57525-42.29873,24.46084v64.14575l42.29873-24.46086V161.98049Z"/>
      <polygon class="cls-66" points="417.769 246.644 417.769 182.498 424.618 186.441 424.618 250.587 417.769 246.644"/>
      <polygon class="cls-67" points="417.769 182.498 460.082 158.046 466.917 161.98 424.618 186.441 417.769 182.498"/>
    </g>
    <g>
      <polygon class="cls-68" points="368.816 244.938 411.115 220.477 411.115 284.623 368.816 309.084 368.816 244.938"/>
      <polygon class="cls-69" points="368.816 248.281 401.963 229.113 401.963 279.38 368.816 298.548 368.816 248.281"/>
      <path class="cls-70" d="M407.32147,227.05267V282.435L372.609,302.50876v-55.3823l34.71246-20.07379m3.79314-6.57525-42.29874,24.46084V309.084l42.29874-24.46086V220.47742Z"/>
      <polygon class="cls-71" points="361.967 305.141 361.967 240.995 368.816 244.938 368.816 309.084 361.967 305.141"/>
      <polygon class="cls-72" points="361.967 240.995 404.28 216.543 411.115 220.477 368.816 244.938 361.967 240.995"/>
    </g>
    <g>
      <polygon class="cls-73" points="313.014 235.255 355.312 210.795 355.312 274.94 313.014 299.401 313.014 235.255"/>
      <polygon class="cls-74" points="313.014 238.598 346.161 219.43 346.161 269.697 313.014 288.866 313.014 238.598"/>
      <path class="cls-75" d="M351.51923,217.36983v55.38228l-34.71246,20.07381v-55.3823l34.71246-20.07379m3.79314-6.57525-42.29874,24.46084v64.14575l42.29874-24.46086V210.79458Z"/>
      <polygon class="cls-76" points="306.164 295.458 306.164 231.312 313.014 235.255 313.014 299.401 306.164 295.458"/>
      <polygon class="cls-77" points="306.164 231.312 348.477 206.86 355.312 210.795 313.014 235.255 306.164 231.312"/>
    </g>
  </g>
  <g>
    <path class="cls-78" d="M156.17372,607.53468l-46.88367,27.0576.00008-6.96969-8.37074-279.82333,46.89255-27.04281,8.36178,4.82606Z"/>
    <polygon class="cls-79" points="147.812 330.408 147.784 602.733 109.29 624.945 109.29 620.102 143.57 600.331 143.57 332.857 147.812 330.408"/>
    <polygon class="cls-80" points="156.174 325.583 156.17 607.538 109.29 634.592 109.29 624.945 147.812 602.717 147.812 330.408 156.174 325.583"/>
    <path class="cls-81" d="M100.91939,649.09987,164.548,612.37654V311.07l-63.62863,36.72922Zm8.37066-14.50759V352.641l46.87964-27.05877V607.53836Z"/>
  </g>
  <g>
    <g>
      <path class="cls-82" d="M124.15993,669.85086l67.9345.162L183.49557,723.189c-.72863,7.71863-11.81722,13.85318-25.4292,13.85318-13.61265,0-24.70056-6.13455-25.4292-13.85318Z"/>
      <ellipse class="cls-14" cx="158.14484" cy="667.46084" rx="34.23529" ry="19.67545"/>
      <path class="cls-83" d="M128.44247,677.23611c5.90828,5.93595,17.011,9.89331,29.70777,9.89331s23.79882-3.95736,29.70777-9.89331c-3.7653-7.365-15.63687-12.7515-29.70777-12.7515S132.20777,669.87106,128.44247,677.23611Z"/>
      <path class="cls-47" d="M158.14478,652.46264c17.41889,0,29.55817,7.90429,29.55817,14.99819,0,7.094-12.13928,14.99827-29.55817,14.99827s-29.55817-7.9043-29.55817-14.99827c0-7.0939,12.13927-14.99819,29.55817-14.99819m0-4.67722c-18.90762,0-34.23533,8.80895-34.23533,19.67541s15.32771,19.67549,34.23533,19.67549,34.23532-8.809,34.23532-19.67549-15.32771-19.67541-34.23532-19.67541Z"/>
    </g>
    <path class="cls-84" d="M169.16821,621.69777c16.05015-2.47065,47.63987-12.88506,41.0286-24.79918S172.84006,598.74663,169.16821,621.69777Z"/>
    <path class="cls-83" d="M162.12359,671.86267a1.26361,1.26361,0,0,0,1.26416-1.26374c0-34.11454,6.20771-56.35515,20.75771-74.36786a1.26406,1.26406,0,0,0-1.967-1.58814c-14.94291,18.49972-21.319,41.215-21.319,75.956A1.26361,1.26361,0,0,0,162.12359,671.86267Z"/>
    <path class="cls-83" d="M156.45407,671.86267a1.26362,1.26362,0,0,0,1.26416-1.26374c0-32.131,0-76.13677-16.13979-96.11816a1.26406,1.26406,0,0,0-1.967,1.58815c15.57849,19.28719,15.57849,62.7754,15.57849,94.53A1.26362,1.26362,0,0,0,156.45407,671.86267Z"/>
    <path class="cls-83" d="M155.85976,637.37091a1.26418,1.26418,0,0,0,1.25879-1.16057c2.09661-25.69589,7.66584-43.16051,17.52694-54.961a1.264,1.264,0,0,0-1.93978-1.62116c-10.21232,12.22061-15.96562,30.13509-18.10722,56.37578a1.264,1.264,0,0,0,1.15726,1.36279C155.79083,637.37009,155.8255,637.37091,155.85976,637.37091Z"/>
    <path class="cls-85" d="M161.39124,604.09823c15.20815-11.37982,39.89155-41.34029,26.513-50.00128S152.55544,578.3876,161.39124,604.09823Z"/>
    <path class="cls-86" d="M155.85847,649.4288c-12.72465-1.67941-37.17561-11.17711-32.154-20.7039S152.56682,631.3555,155.85847,649.4288Z"/>
    <path class="cls-83" d="M156.40248,657.46538c.03013,0,.06067-.00083.09121-.0033a1.26351,1.26351,0,0,0,1.17089-1.35042c-1.57329-22.01361-11.38362-45.25217-27.09006-47.07474a1.26391,1.26391,0,1,0-.29138,2.511c14.34034,1.66409,23.36073,23.7685,24.85972,44.74371A1.26367,1.26367,0,0,0,156.40248,657.46538Z"/>
    <path class="cls-83" d="M162.65641,655.44636a1.265,1.265,0,0,0,1.25426-1.12095c1.63725-14.29081,14.789-24.44122,21.46593-26.6988a1.26429,1.26429,0,0,0-.80975-2.39542c-7.2069,2.43752-21.40155,13.38943-23.168,28.807a1.26373,1.26373,0,0,0,1.11186,1.39912A1.2435,1.2435,0,0,0,162.65641,655.44636Z"/>
    <path class="cls-87" d="M169.16821,638.006c13.42919-.14344,40.96041-4.54118,36.94287-15.0691S174.8615,619.64628,169.16821,638.006Z"/>
    <path class="cls-88" d="M174.00885,609.03306c11.30865-9.16325,29.97408-32.39548,19.474-38.63181S166.48312,589.60733,174.00885,609.03306Z"/>
    <path class="cls-89" d="M148.52446,624.44816c-20.93075-5.60751-59.77207-26.879-49.27283-41.7224S146.98632,593.47186,148.52446,624.44816Z"/>
    <path class="cls-90" d="M151.41541,599.33713c-14.235-10.65165-38.08136-35.69621-25.55891-43.803S159.68581,575.27169,151.41541,599.33713Z"/>
  </g>
</svg>
