<svg id="Layer_1" data-name="Layer 1" xmlns="http://www.w3.org/2000/svg" xmlns:xlink="http://www.w3.org/1999/xlink" viewBox="0 0 1000 1000">
  <defs>
    <style>
      .cls-1 {
        fill: url(#linear-gradient);
      }

      .cls-2 {
        fill: #b8cbd8;
      }

      .cls-3 {
        fill: url(#linear-gradient-2);
      }

      .cls-4, .cls-55 {
        fill: #9bb0c4;
      }

      .cls-18, .cls-25, .cls-30, .cls-4, .cls-79 {
        opacity: 0.5;
      }

      .cls-5 {
        fill: #f0f9fc;
      }

      .cls-6 {
        fill: url(#linear-gradient-3);
      }

      .cls-26, .cls-30, .cls-7 {
        fill: #fff;
      }

      .cls-7 {
        opacity: 0.7;
      }

      .cls-8 {
        fill: url(#linear-gradient-4);
      }

      .cls-9 {
        fill: url(#linear-gradient-5);
      }

      .cls-10 {
        fill: url(#linear-gradient-6);
      }

      .cls-11 {
        fill: url(#linear-gradient-7);
      }

      .cls-12 {
        fill: url(#linear-gradient-8);
      }

      .cls-13 {
        fill: url(#linear-gradient-9);
      }

      .cls-14 {
        fill: url(#linear-gradient-10);
      }

      .cls-15 {
        fill: url(#linear-gradient-11);
      }

      .cls-16 {
        fill: url(#linear-gradient-12);
      }

      .cls-17 {
        fill: url(#linear-gradient-13);
      }

      .cls-18 {
        fill: #dd7b19;
      }

      .cls-19 {
        fill: url(#linear-gradient-14);
      }

      .cls-20 {
        fill: url(#linear-gradient-15);
      }

      .cls-21 {
        fill: url(#linear-gradient-16);
      }

      .cls-22 {
        fill: url(#linear-gradient-17);
      }

      .cls-23 {
        fill: #34a521;
      }

      .cls-24 {
        fill: #e4ecf2;
      }

      .cls-25 {
        fill: url(#linear-gradient-18);
      }

      .cls-27 {
        fill: url(#linear-gradient-19);
      }

      .cls-28 {
        fill: url(#linear-gradient-20);
      }

      .cls-29 {
        fill: url(#linear-gradient-21);
      }

      .cls-31 {
        fill: url(#linear-gradient-22);
      }

      .cls-32 {
        fill: url(#linear-gradient-23);
      }

      .cls-33 {
        fill: url(#linear-gradient-24);
      }

      .cls-34 {
        fill: url(#linear-gradient-25);
      }

      .cls-35 {
        fill: url(#linear-gradient-26);
      }

      .cls-36 {
        fill: url(#linear-gradient-27);
      }

      .cls-37 {
        fill: url(#linear-gradient-28);
      }

      .cls-38 {
        fill: url(#linear-gradient-29);
      }

      .cls-39 {
        fill: #2e3e59;
      }

      .cls-40 {
        fill: #4f4f4f;
      }

      .cls-41 {
        fill: url(#linear-gradient-30);
      }

      .cls-42 {
        fill: url(#linear-gradient-31);
      }

      .cls-43 {
        fill: url(#linear-gradient-32);
      }

      .cls-44 {
        fill: url(#linear-gradient-33);
      }

      .cls-45 {
        fill: url(#linear-gradient-34);
      }

      .cls-46 {
        fill: url(#linear-gradient-35);
      }

      .cls-47 {
        fill: #bcd0e2;
      }

      .cls-48 {
        fill: #d7ebf4;
      }

      .cls-49 {
        fill: #7995a8;
      }

      .cls-50 {
        fill: url(#linear-gradient-36);
      }

      .cls-51 {
        fill: #e58630;
      }

      .cls-52 {
        fill: url(#linear-gradient-37);
      }

      .cls-53 {
        fill: url(#linear-gradient-38);
      }

      .cls-54 {
        fill: #ffcb48;
      }

      .cls-56 {
        fill: url(#linear-gradient-39);
      }

      .cls-57 {
        fill: url(#linear-gradient-40);
      }

      .cls-58 {
        fill: url(#linear-gradient-41);
      }

      .cls-59 {
        fill: url(#linear-gradient-42);
      }

      .cls-60 {
        fill: url(#linear-gradient-43);
      }

      .cls-61 {
        fill: url(#linear-gradient-44);
      }

      .cls-62 {
        fill: url(#linear-gradient-45);
      }

      .cls-63 {
        fill: url(#linear-gradient-46);
      }

      .cls-64 {
        fill: #541510;
        opacity: 0.3;
      }

      .cls-65 {
        fill: url(#linear-gradient-47);
      }

      .cls-66 {
        fill: url(#linear-gradient-48);
      }

      .cls-67 {
        fill: url(#linear-gradient-49);
      }

      .cls-68 {
        fill: #e9f1f4;
      }

      .cls-69 {
        fill: url(#linear-gradient-50);
      }

      .cls-70 {
        fill: #606060;
      }

      .cls-71 {
        fill: url(#linear-gradient-51);
      }

      .cls-72 {
        fill: url(#linear-gradient-52);
      }

      .cls-73 {
        fill: #303d49;
      }

      .cls-74 {
        fill: #b75c5a;
      }

      .cls-75 {
        fill: #27343d;
      }

      .cls-76, .cls-79 {
        fill: #323f4c;
      }

      .cls-77 {
        fill: url(#linear-gradient-53);
      }

      .cls-78 {
        fill: url(#linear-gradient-54);
      }

      .cls-80 {
        fill: url(#linear-gradient-55);
      }

      .cls-81 {
        fill: url(#linear-gradient-56);
      }

      .cls-82 {
        fill: url(#linear-gradient-57);
      }

      .cls-83 {
        fill: url(#linear-gradient-58);
      }

      .cls-84 {
        fill: url(#linear-gradient-59);
      }

      .cls-85 {
        fill: url(#linear-gradient-60);
      }

      .cls-86 {
        fill: url(#linear-gradient-61);
      }

      .cls-87 {
        fill: url(#linear-gradient-62);
      }

      .cls-88 {
        fill: url(#linear-gradient-63);
      }

      .cls-89 {
        fill: url(#linear-gradient-64);
      }

      .cls-90 {
        fill: url(#linear-gradient-65);
      }

      .cls-91 {
        fill: url(#linear-gradient-66);
      }

      .cls-92 {
        fill: url(#linear-gradient-67);
      }

      .cls-93 {
        fill: url(#linear-gradient-68);
      }

      .cls-94 {
        fill: url(#linear-gradient-69);
      }

      .cls-95 {
        fill: url(#linear-gradient-70);
      }

      .cls-96 {
        fill: url(#linear-gradient-71);
      }

      .cls-97 {
        fill: url(#linear-gradient-72);
      }

      .cls-98 {
        fill: url(#linear-gradient-73);
      }
    </style>
    <linearGradient id="linear-gradient" x1="524.52355" y1="396.22833" x2="931.16979" y2="396.22833" gradientUnits="userSpaceOnUse">
      <stop offset="0" stop-color="#e4edf2"/>
      <stop offset="1" stop-color="#c3d6e6"/>
    </linearGradient>
    <linearGradient id="linear-gradient-2" x1="117.89298" y1="711.22041" x2="931.16979" y2="711.22041" gradientUnits="userSpaceOnUse">
      <stop offset="0.00663" stop-color="#c4d5e6"/>
      <stop offset="1" stop-color="#dae9f2"/>
    </linearGradient>
    <linearGradient id="linear-gradient-3" x1="888.57995" y1="450.58926" x2="902.59319" y2="450.58926" gradientTransform="translate(345.28048 -387.42577) rotate(30)" gradientUnits="userSpaceOnUse">
      <stop offset="0" stop-color="#849bb2"/>
      <stop offset="1" stop-color="#5b6f82"/>
    </linearGradient>
    <linearGradient id="linear-gradient-4" x1="133.6675" y1="387.8383" x2="499.53781" y2="387.8383" gradientUnits="userSpaceOnUse">
      <stop offset="0" stop-color="#3e4c59"/>
      <stop offset="1" stop-color="#293440"/>
    </linearGradient>
    <linearGradient id="linear-gradient-5" x1="194.61237" y1="638.00467" x2="194.61237" y2="278.54045" gradientUnits="userSpaceOnUse">
      <stop offset="0" stop-color="#62778c"/>
      <stop offset="1" stop-color="#435466"/>
    </linearGradient>
    <linearGradient id="linear-gradient-6" x1="316.5673" y1="567.6027" x2="316.5673" y2="208.122" xlink:href="#linear-gradient-5"/>
    <linearGradient id="linear-gradient-7" x1="438.55759" y1="497.19232" x2="438.55759" y2="137.67116" xlink:href="#linear-gradient-5"/>
    <linearGradient id="linear-gradient-8" x1="145.48999" y1="391.24744" x2="499.53781" y2="391.24744" gradientUnits="userSpaceOnUse">
      <stop offset="0" stop-color="#435466"/>
      <stop offset="1" stop-color="#62778c"/>
    </linearGradient>
    <linearGradient id="linear-gradient-9" x1="133.64483" y1="391.24692" x2="511.37828" y2="391.24692" xlink:href="#linear-gradient-5"/>
    <linearGradient id="linear-gradient-10" x1="249.66309" y1="588.08302" x2="249.66309" y2="271.69466" xlink:href="#linear-gradient-5"/>
    <linearGradient id="linear-gradient-11" x1="371.62531" y1="517.67135" x2="371.62531" y2="201.2762" xlink:href="#linear-gradient-5"/>
    <linearGradient id="linear-gradient-12" x1="493.60372" y1="447.24703" x2="493.60372" y2="130.85187" xlink:href="#linear-gradient-5"/>
    <linearGradient id="linear-gradient-13" x1="434.65275" y1="144.31016" x2="144.6249" y2="617.18165" gradientUnits="userSpaceOnUse">
      <stop offset="0.00005" stop-color="#ffcb48"/>
      <stop offset="1" stop-color="#e68e2b"/>
    </linearGradient>
    <linearGradient id="linear-gradient-14" x1="520.13048" y1="196.7365" x2="230.10263" y2="669.60799" xlink:href="#linear-gradient-13"/>
    <linearGradient id="linear-gradient-15" x1="546.34147" y1="109.05409" x2="115.08267" y2="448.57582" gradientTransform="matrix(1, 0, 0, 1, 0, 0)" xlink:href="#linear-gradient-3"/>
    <linearGradient id="linear-gradient-16" x1="527.68306" y1="85.35427" x2="96.42426" y2="424.876" gradientTransform="matrix(1, 0, 0, 1, 0, 0)" xlink:href="#linear-gradient-3"/>
    <linearGradient id="linear-gradient-17" x1="508.22621" y1="60.64029" x2="76.96742" y2="400.16202" gradientTransform="matrix(1, 0, 0, 1, 0, 0)" xlink:href="#linear-gradient-3"/>
    <linearGradient id="linear-gradient-18" x1="106.62266" y1="296.0483" x2="421.71458" y2="296.0483" gradientUnits="userSpaceOnUse">
      <stop offset="0" stop-color="#748ea6"/>
      <stop offset="1" stop-color="#96b1cc"/>
    </linearGradient>
    <linearGradient id="linear-gradient-19" x1="142.31662" y1="262.3569" x2="321.24481" y2="262.3569" xlink:href="#linear-gradient-18"/>
    <linearGradient id="linear-gradient-20" x1="132.16158" y1="257.00218" x2="170.97009" y2="341.00218" xlink:href="#linear-gradient-13"/>
    <linearGradient id="linear-gradient-21" x1="5770.76071" y1="1782.52934" x2="5770.76071" y2="1869.65562" gradientTransform="matrix(0.0351, 0.99938, 0.99938, -0.0351, -1847.63966, -5439.7687)" xlink:href="#linear-gradient-5"/>
    <linearGradient id="linear-gradient-22" x1="213.95096" y1="225.45033" x2="241.86586" y2="301.36523" xlink:href="#linear-gradient-5"/>
    <linearGradient id="linear-gradient-23" x1="216.92843" y1="233.54759" x2="238.71883" y2="292.80686" gradientUnits="userSpaceOnUse">
      <stop offset="0" stop-color="#96b1cc"/>
      <stop offset="1" stop-color="#748ea6"/>
    </linearGradient>
    <linearGradient id="linear-gradient-24" x1="320.30187" y1="318.8215" x2="395.32838" y2="318.8215" xlink:href="#linear-gradient-5"/>
    <linearGradient id="linear-gradient-25" x1="59.71562" y1="318.8215" x2="134.74212" y2="318.8215" xlink:href="#linear-gradient-5"/>
    <linearGradient id="linear-gradient-26" x1="474.78913" y1="212.63531" x2="569.98477" y2="212.63531" xlink:href="#linear-gradient"/>
    <linearGradient id="linear-gradient-27" x1="561.76556" y1="222.07017" x2="561.76556" y2="554.12855" gradientUnits="userSpaceOnUse">
      <stop offset="0" stop-color="#fff"/>
      <stop offset="0.56988" stop-color="#fff" stop-opacity="0"/>
    </linearGradient>
    <linearGradient id="linear-gradient-28" x1="495.87155" y1="175.08368" x2="533.49411" y2="234.65274" xlink:href="#linear-gradient-5"/>
    <linearGradient id="linear-gradient-29" x1="511.38616" y1="165.28498" x2="549.00872" y2="224.85403" xlink:href="#linear-gradient-5"/>
    <linearGradient id="linear-gradient-30" x1="549.24712" y1="417.48309" x2="608.14435" y2="516.46626" xlink:href="#linear-gradient-4"/>
    <linearGradient id="linear-gradient-31" x1="427.5003" y1="290.3015" x2="551.11728" y2="513.34953" xlink:href="#linear-gradient-5"/>
    <linearGradient id="linear-gradient-32" x1="460.53994" y1="308.28107" x2="539.36816" y2="516.69811" gradientTransform="matrix(1, 0, 0, 1, 0, 0)" xlink:href="#linear-gradient-3"/>
    <linearGradient id="linear-gradient-33" x1="444.16522" y1="314.47438" x2="522.99344" y2="522.89142" gradientTransform="matrix(1, 0, 0, 1, 0, 0)" xlink:href="#linear-gradient-3"/>
    <linearGradient id="linear-gradient-34" x1="465.98932" y1="402.59578" x2="611.10721" y2="402.59578" gradientUnits="userSpaceOnUse">
      <stop offset="0" stop-color="#62788c"/>
      <stop offset="1" stop-color="#526575"/>
    </linearGradient>
    <linearGradient id="linear-gradient-35" x1="465.98926" y1="378.59652" x2="611.10716" y2="378.59652" gradientTransform="matrix(1, 0, 0, 1, 0, 0)" xlink:href="#linear-gradient-3"/>
    <linearGradient id="linear-gradient-36" x1="510.42775" y1="287.56149" x2="573.80385" y2="346.45871" xlink:href="#linear-gradient-13"/>
    <linearGradient id="linear-gradient-37" x1="533.48403" y1="302.40891" x2="552.96774" y2="302.40891" xlink:href="#linear-gradient-4"/>
    <linearGradient id="linear-gradient-38" x1="533.48404" y1="298.03114" x2="552.96785" y2="298.03114" xlink:href="#linear-gradient-5"/>
    <linearGradient id="linear-gradient-39" x1="811.67919" y1="649.79765" x2="834.12735" y2="649.79765" xlink:href="#linear-gradient-4"/>
    <linearGradient id="linear-gradient-40" x1="324.69438" y1="701.09523" x2="347.14255" y2="701.09523" xlink:href="#linear-gradient-4"/>
    <linearGradient id="linear-gradient-41" x1="522.69615" y1="817.21978" x2="545.14431" y2="817.21978" xlink:href="#linear-gradient-4"/>
    <linearGradient id="linear-gradient-42" x1="602.19622" y1="403.66217" x2="1051.2782" y2="628.80035" xlink:href="#linear-gradient-4"/>
    <linearGradient id="linear-gradient-43" x1="618.67532" y1="339.48626" x2="811.56559" y2="592.09488" xlink:href="#linear-gradient-34"/>
    <linearGradient id="linear-gradient-44" x1="611.92889" y1="353.36358" x2="809.59663" y2="610.74967" gradientTransform="matrix(1, 0, 0, 1, 0, 0)" xlink:href="#linear-gradient-3"/>
    <linearGradient id="linear-gradient-45" x1="437.48793" y1="632.86402" x2="861.18962" y2="746.62748" xlink:href="#linear-gradient-5"/>
    <linearGradient id="linear-gradient-46" x1="323.6452" y1="591.69833" x2="708.23137" y2="836.54356" xlink:href="#linear-gradient-34"/>
    <linearGradient id="linear-gradient-47" x1="336.73517" y1="663.0182" x2="883.15807" y2="692.57878" xlink:href="#linear-gradient-4"/>
    <linearGradient id="linear-gradient-48" x1="335.66165" y1="682.86215" x2="882.08455" y2="712.42273" xlink:href="#linear-gradient-4"/>
    <linearGradient id="linear-gradient-49" x1="358.82584" y1="540.06823" x2="530.81469" y2="721.9106" xlink:href="#linear-gradient-13"/>
    <linearGradient id="linear-gradient-50" x1="520.3241" y1="497.65849" x2="533.76073" y2="743.99668" xlink:href="#linear-gradient-13"/>
    <linearGradient id="linear-gradient-51" x1="599.59132" y1="392.11969" x2="846.6865" y2="392.11969" xlink:href="#linear-gradient-34"/>
    <linearGradient id="linear-gradient-52" x1="622.39787" y1="306.90105" x2="846.93887" y2="473.51525" gradientTransform="matrix(1, 0, 0, 1, 0, 0)" xlink:href="#linear-gradient-3"/>
    <linearGradient id="linear-gradient-53" x1="809.64677" y1="422.10682" x2="884.19996" y2="494.27703" xlink:href="#linear-gradient-13"/>
    <linearGradient id="linear-gradient-54" x1="805.19535" y1="451.73056" x2="849.45067" y2="542.28375" gradientUnits="userSpaceOnUse">
      <stop offset="0" stop-color="#65788c"/>
      <stop offset="0.99995" stop-color="#455260"/>
    </linearGradient>
    <linearGradient id="linear-gradient-55" x1="769.89094" y1="463.17534" x2="844.44413" y2="535.34555" xlink:href="#linear-gradient-13"/>
    <linearGradient id="linear-gradient-56" x1="816.12839" y1="392.77333" x2="841.6603" y2="441.79461" gradientUnits="userSpaceOnUse">
      <stop offset="0.00005" stop-color="#c6c6c6"/>
      <stop offset="1" stop-color="#a9b0b3"/>
    </linearGradient>
    <linearGradient id="linear-gradient-57" x1="796.87119" y1="402.80313" x2="822.4031" y2="451.8244" xlink:href="#linear-gradient-56"/>
    <linearGradient id="linear-gradient-58" x1="807.23412" y1="424.59913" x2="881.78731" y2="496.76934" xlink:href="#linear-gradient-13"/>
    <linearGradient id="linear-gradient-59" x1="650.26365" y1="257.34278" x2="691.09243" y2="257.34278" xlink:href="#linear-gradient-8"/>
    <linearGradient id="linear-gradient-60" x1="663.03123" y1="223.50626" x2="687.61779" y2="290.59839" gradientUnits="userSpaceOnUse">
      <stop offset="0" stop-color="#fff"/>
      <stop offset="0.98888" stop-color="#e6edf2"/>
    </linearGradient>
    <linearGradient id="linear-gradient-61" x1="641.98779" y1="231.15984" x2="787.42353" y2="363.88558" gradientTransform="matrix(1, 0, 0, 1, 0, 0)" xlink:href="#linear-gradient-3"/>
    <linearGradient id="linear-gradient-62" x1="642.29564" y1="220.46558" x2="783.70307" y2="347.42667" xlink:href="#linear-gradient-5"/>
    <linearGradient id="linear-gradient-63" x1="654.44245" y1="206.93663" x2="795.84989" y2="333.89772" xlink:href="#linear-gradient-5"/>
    <linearGradient id="linear-gradient-64" x1="704.12666" y1="313.80684" x2="744.95544" y2="313.80684" xlink:href="#linear-gradient-8"/>
    <linearGradient id="linear-gradient-65" x1="713.8301" y1="278.99028" x2="744.08568" y2="346.78927" xlink:href="#linear-gradient-60"/>
    <linearGradient id="linear-gradient-66" x1="638.34888" y1="235.14721" x2="783.78462" y2="367.87296" gradientTransform="matrix(1, 0, 0, 1, 0, 0)" xlink:href="#linear-gradient-3"/>
    <linearGradient id="linear-gradient-67" x1="638.26717" y1="224.95242" x2="779.67461" y2="351.91351" xlink:href="#linear-gradient-5"/>
    <linearGradient id="linear-gradient-68" x1="650.41399" y1="211.42347" x2="791.82143" y2="338.38456" xlink:href="#linear-gradient-5"/>
    <linearGradient id="linear-gradient-69" x1="757.98967" y1="304.46049" x2="798.81846" y2="304.46049" xlink:href="#linear-gradient-8"/>
    <linearGradient id="linear-gradient-70" x1="767.69312" y1="269.64393" x2="797.94869" y2="337.44293" xlink:href="#linear-gradient-60"/>
    <linearGradient id="linear-gradient-71" x1="667.47805" y1="203.22859" x2="812.91379" y2="335.95433" gradientTransform="matrix(1, 0, 0, 1, 0, 0)" xlink:href="#linear-gradient-3"/>
    <linearGradient id="linear-gradient-72" x1="666.95377" y1="193.00171" x2="808.3612" y2="319.9628" xlink:href="#linear-gradient-5"/>
    <linearGradient id="linear-gradient-73" x1="679.10059" y1="179.47276" x2="820.50802" y2="306.43385" xlink:href="#linear-gradient-5"/>
  </defs>
  <g>
    <g>
      <polygon class="cls-1" points="524.524 81.236 931.17 316.004 931.17 711.22 524.524 476.43 524.524 81.236"/>
      <polygon class="cls-2" points="524.539 81.236 117.893 316.004 117.893 711.22 524.539 476.43 524.539 81.236"/>
    </g>
    <path class="cls-3" d="M124.91012,723.3864l378.58059,218.564a42.10143,42.10143,0,0,0,42.1011-.00062L924.153,723.38232a14.03381,14.03381,0,0,0,.00017-24.307L545.57541,480.49136a42.10142,42.10142,0,0,0-42.10407.00053l-378.562,218.58744A14.03381,14.03381,0,0,0,124.91012,723.3864Z"/>
    <path class="cls-4" d="M828.59749,714.98587c-36.18863,0-65.52567,16.86023-65.52567,37.65837,0,17.2353,20.15433,31.75553,47.65149,36.22825l80.8289-46.66763C883.67446,726.48727,858.48144,714.98587,828.59749,714.98587Z"/>
  </g>
  <g>
    <path class="cls-5" d="M911.94193,441.46169l-.001,33.20418a2.93956,2.93956,0,0,1-4.40935,2.54567l-21.20631-12.24347a8.81868,8.81868,0,0,1-4.40935-7.63741l.001-33.20418a2.93956,2.93956,0,0,1,4.40935-2.54567l21.20631,12.24347A8.81868,8.81868,0,0,1,911.94193,441.46169Z"/>
    <ellipse class="cls-6" cx="895.58657" cy="450.58926" rx="5.7164" ry="9.91662" transform="translate(-105.30878 508.1608) rotate(-30)"/>
  </g>
  <g>
    <g>
      <g>
        <g>
          <path class="cls-7" d="M133.64493,672.16427,507.82436,456.14181a7.10771,7.10771,0,0,0,3.554-6.15554V110.3297L133.64493,328.425Z"/>
          <path class="cls-8" d="M499.53781,447.24511,145.49,651.65153,133.6675,644.8281V328.44336L487.71531,124.02508l11.8225,6.82343Z"/>
          <polygon class="cls-9" points="243.735 278.54 243.735 581.287 145.49 638.005 145.491 631.156 237.811 577.871 237.811 281.961 243.735 278.54"/>
          <polygon class="cls-10" points="365.697 208.122 365.678 510.882 267.438 567.603 267.438 560.755 359.755 507.471 359.755 211.532 365.697 208.122"/>
          <polygon class="cls-11" points="487.715 137.671 487.675 440.457 389.4 497.192 389.4 490.345 481.717 437.061 481.717 141.134 487.715 137.671"/>
          <polygon class="cls-12" points="499.538 130.849 499.532 447.25 145.491 651.646 145.49 638.005 487.715 440.434 487.715 137.671 499.538 130.849"/>
          <path class="cls-13" d="M133.64483,328.425v343.7392L507.82429,456.14186a7.10771,7.10771,0,0,0,3.554-6.15554V110.32968ZM377.55365,201.2762V517.67135l-110.116,63.57254v-316.389Zm-232.0626,133.988,110.10038-63.56958V588.083L145.49105,651.64637Zm354.041,111.9862-110.1322,63.58179V194.43643l110.1322-63.588Z"/>
        </g>
        <polygon class="cls-14" points="255.591 588.083 243.735 581.287 243.735 278.54 255.591 271.695 255.591 588.083"/>
        <polygon class="cls-15" points="377.554 517.671 365.697 510.876 365.697 208.122 377.554 201.276 377.554 517.671"/>
      </g>
      <polygon class="cls-16" points="499.532 447.247 487.675 440.457 487.715 137.671 499.532 130.852 499.532 447.247"/>
    </g>
    <g>
      <path class="cls-17" d="M337.00121,247.2722l2.94017,305.79229s-13.49649,16.33354-31.56129,26.14974-49.34228,17.19371-49.34228,17.19371-4.55352,14.569-27.2465,26.13942a136.77527,136.77527,0,0,1-44.43863,13.57335s-1.85131,8.73554-11.92056,14.121c-8.35013,4.43814-20.10035,5.0898-25.67889,5.84421V354.48663s10.75684,2.01157,25.26833-5.598,12.33112-14.109,12.33112-14.109,27.14545-3.18715,43.43089-12.76486,27.713-28.49684,27.713-28.49684a158.18792,158.18792,0,0,0,43.61312-12.82079C323.72076,270.47148,331.79121,252.16656,337.00121,247.2722Z"/>
      <path class="cls-18" d="M201.50119,332.31141c-8.09863,1.75679-14.14848,2.46816-14.14848,2.46816a4.66612,4.66612,0,0,1,0,2.06623V636.12064a122.98822,122.98822,0,0,0,20.09544-4.10718Z"/>
      <path class="cls-18" d="M259.15222,596.38073c.068-.01627.164-.03929.292-.07034l.00953-.00236c.12431-.03009.27956-.068.45654-.11135l.10986-.02709c.1666-.041.34926-.08619.55537-.13748l.11884-.02966c.2241-.05589.46565-.11649.73086-.18351l.08844-.02238q.42512-.10761.91427-.233l.09218-.02367c.31671-.08137.65505-.16895,1.0087-.26114l.18459-.04818q.53948-.14085,1.13055-.29755l.1303-.03447q.65013-.17265,1.356-.36307l.03126-.00846c3.47408-.93825,7.92764-2.19942,12.78892-3.72l-5.99408-300.09468a139.2734,139.2734,0,0,1-14.65963,2.80554h-.00011l.54124,302.89.10161-.0242Z"/>
      <path class="cls-19" d="M514.664,145.743l2.95421,301.504c0,3.75938-5.00141,9.46994-15.52677,14.84459a84.11968,84.11968,0,0,1-23.69013,7.79631s-10.57327,12.80652-25.46553,21.20442c-13.399,7.55583-37.46072,12.73616-37.46072,12.73616s-15.48321,23.52668-30.60881,32.60443-39.34638,15.87713-44.92491,16.63155L337.00121,247.2722s27.73588-3.78745,42.96625-12.67015c15.35906-8.95776,31.02876-27.835,31.02876-27.835s21.916-1.50165,41.26777-13.63194,21.94642-24.66174,21.94642-24.66174a34.03112,34.03112,0,0,0,22.69788-4.18975C508.66168,157.565,512.44888,151.14566,514.664,145.743Z"/>
      <path class="cls-18" d="M353.94094,243.99064c-9.38507,2.24782-16.93967,3.28158-16.93967,3.28158l2.94012,305.79227c2.92054-.395,10.95289-2.449,20.11236-5.61708Z"/>
      <path class="cls-18" d="M427.9508,203.57545a95.39537,95.39537,0,0,1-16.95456,3.19163l4.47893,297.0614s9.62137-2.07287,20.08334-5.50627Z"/>
      <path class="cls-18" d="M492.495,166.49632a36.12336,36.12336,0,0,1-18.28448,1.977l4.19092,301.41457a84.269,84.269,0,0,0,20.1023-6.0944Z"/>
    </g>
    <g>
      <g>
        <circle class="cls-20" cx="517.35613" cy="131.87369" r="8.30855"/>
        <path class="cls-21" d="M516.32076,137.74529,150.6861,348.88862l-4.0482-7.01168L512.28616,130.72576l.00185.0032a2.03893,2.03893,0,0,1,2.01152.2143,6.32878,6.32878,0,0,1,2.872,4.9538A1.98627,1.98627,0,0,1,516.32076,137.74529Z"/>
        <path class="cls-2" d="M517.71651,136.94259a9.87748,9.87748,0,0,0-1.29811-3.85921,9.53707,9.53707,0,0,0-2.80651-3.12258,6.33621,6.33621,0,0,0-3.57869-1.19275,5.13949,5.13949,0,0,0-2.50885.64884,5.67405,5.67405,0,0,0-2.59622,5.56119l4.35045-2.50864a1.38539,1.38539,0,0,1,.75462-.19294c1.0874,0,2.43819.98226,3.35042,2.5611.96491,1.66643,1.10539,3.43822.43856,4.35045a1.3844,1.3844,0,0,1-.43856.40344,1.21375,1.21375,0,0,1-.54391.158l-3.87677,2.24547a6.19277,6.19277,0,0,0,3.66648,1.29811,4.92167,4.92167,0,0,0,2.50843-.66683,5.46392,5.46392,0,0,0,2.61378-4.92927C517.75163,137.45138,517.73407,137.18842,517.71651,136.94259Z"/>
        <path class="cls-2" d="M476.95088,160.49083a9.87748,9.87748,0,0,0-1.29811-3.85921,9.537,9.537,0,0,0-2.80651-3.12258,6.33621,6.33621,0,0,0-3.57869-1.19275,5.13949,5.13949,0,0,0-2.50885.64884,5.67405,5.67405,0,0,0-2.59622,5.56119l4.35045-2.50864a1.38539,1.38539,0,0,1,.75462-.19294c1.0874,0,2.43819.98226,3.35042,2.5611.96491,1.66643,1.10539,3.43822.43856,4.35045a1.3844,1.3844,0,0,1-.43856.40344,1.21375,1.21375,0,0,1-.54391.158l-3.87677,2.24546a6.19272,6.19272,0,0,0,3.66648,1.29812,4.92167,4.92167,0,0,0,2.50843-.66683,5.46392,5.46392,0,0,0,2.61378-4.92927C476.986,160.99962,476.96844,160.73666,476.95088,160.49083Z"/>
      </g>
      <circle class="cls-2" cx="513.08618" cy="144.93101" r="2.7993"/>
      <circle class="cls-2" cx="473.93918" cy="167.40891" r="2.7993"/>
      <path class="cls-2" d="M414.786,196.37332a9.87732,9.87732,0,0,0-1.29811-3.85921,9.53691,9.53691,0,0,0-2.8065-3.12257,6.33617,6.33617,0,0,0-3.57869-1.19276,5.13961,5.13961,0,0,0-2.50886.64884,5.67408,5.67408,0,0,0-2.59622,5.56119l4.35045-2.50864a1.38542,1.38542,0,0,1,.75463-.19293c1.08739,0,2.43818.98225,3.35041,2.5611.96492,1.66643,1.10539,3.43821.43856,4.35044a1.38419,1.38419,0,0,1-.43856.40344,1.21369,1.21369,0,0,1-.54391.158l-3.87677,2.24546a6.1928,6.1928,0,0,0,3.66649,1.29811,4.92156,4.92156,0,0,0,2.50842-.66683,5.46392,5.46392,0,0,0,2.61378-4.92927C414.82112,196.88212,414.80356,196.61915,414.786,196.37332Z"/>
      <circle class="cls-2" cx="411.19789" cy="204.43266" r="2.7993"/>
      <path class="cls-2" d="M343.75747,237.3939a9.87732,9.87732,0,0,0-1.29811-3.85921,9.53705,9.53705,0,0,0-2.8065-3.12258,6.33623,6.33623,0,0,0-3.57869-1.19275,5.1395,5.1395,0,0,0-2.50886.64884,5.67407,5.67407,0,0,0-2.59622,5.56119l4.35045-2.50864a1.3854,1.3854,0,0,1,.75463-.19294c1.08739,0,2.43818.98226,3.35041,2.5611.96491,1.66643,1.10539,3.43822.43856,4.35045a1.38429,1.38429,0,0,1-.43856.40344,1.21371,1.21371,0,0,1-.54391.158l-3.87677,2.24546a6.19272,6.19272,0,0,0,3.66649,1.29812,4.92166,4.92166,0,0,0,2.50842-.66683,5.46392,5.46392,0,0,0,2.61378-4.92927C343.79259,237.90269,343.775,237.63973,343.75747,237.3939Z"/>
      <circle class="cls-2" cx="339.16161" cy="245.61993" r="2.7993"/>
      <path class="cls-2" d="M337.80588,240.81631a9.87732,9.87732,0,0,0-1.29811-3.85921,9.53683,9.53683,0,0,0-2.8065-3.12258,6.33623,6.33623,0,0,0-3.57869-1.19275,5.13944,5.13944,0,0,0-2.50885.64884,5.67406,5.67406,0,0,0-2.59623,5.56119l4.35045-2.50864a1.38542,1.38542,0,0,1,.75463-.19294c1.0874,0,2.43818.98226,3.35042,2.5611.96491,1.66643,1.10538,3.43822.43855,4.35045a1.38426,1.38426,0,0,1-.43855.40344,1.21375,1.21375,0,0,1-.54392.158l-3.87677,2.24547a6.19282,6.19282,0,0,0,3.66649,1.29811,4.92166,4.92166,0,0,0,2.50842-.66683,5.46392,5.46392,0,0,0,2.61378-4.92927C337.841,241.3251,337.82344,241.06214,337.80588,240.81631Z"/>
      <circle class="cls-2" cx="335.67621" cy="247.69994" r="2.7993"/>
      <path class="cls-2" d="M262.62957,284.24366a9.87764,9.87764,0,0,0-1.29811-3.85921,9.53707,9.53707,0,0,0-2.80651-3.12258,6.33621,6.33621,0,0,0-3.57869-1.19275,5.13947,5.13947,0,0,0-2.50885.64884,5.674,5.674,0,0,0-2.59622,5.56119l4.35044-2.50864a1.38545,1.38545,0,0,1,.75463-.19294c1.0874,0,2.43819.98226,3.35042,2.56111.96491,1.66643,1.10538,3.43821.43855,4.35044a1.38426,1.38426,0,0,1-.43855.40344,1.21376,1.21376,0,0,1-.54391.158l-3.87678,2.24546a6.19282,6.19282,0,0,0,3.66649,1.29811,4.92163,4.92163,0,0,0,2.50842-.66683,5.46392,5.46392,0,0,0,2.61378-4.92927C262.66468,284.75246,262.64713,284.48949,262.62957,284.24366Z"/>
      <circle class="cls-2" cx="259.04145" cy="292.303" r="2.7993"/>
      <path class="cls-2" d="M191.03992,325.63434a9.87742,9.87742,0,0,0-1.29811-3.85922,9.5368,9.5368,0,0,0-2.8065-3.12257,6.33616,6.33616,0,0,0-3.57869-1.19275,5.13944,5.13944,0,0,0-2.50885.64884,5.674,5.674,0,0,0-2.59623,5.56119l4.35045-2.50864a1.38542,1.38542,0,0,1,.75463-.19294c1.0874,0,2.43818.98225,3.35042,2.5611.96491,1.66643,1.10538,3.43822.43855,4.35045a1.38448,1.38448,0,0,1-.43855.40344,1.21388,1.21388,0,0,1-.54392.158l-3.87677,2.24546a6.19273,6.19273,0,0,0,3.66649,1.29811,4.92156,4.92156,0,0,0,2.50842-.66683,5.46391,5.46391,0,0,0,2.61378-4.92926C191.075,326.14313,191.05748,325.88017,191.03992,325.63434Z"/>
      <circle class="cls-2" cx="187.45181" cy="333.69367" r="2.7993"/>
      <path class="cls-2" d="M155.14578,346.28994a9.87732,9.87732,0,0,0-1.29811-3.85921,9.537,9.537,0,0,0-2.8065-3.12257,6.33617,6.33617,0,0,0-3.57869-1.19276,5.13961,5.13961,0,0,0-2.50886.64884,5.67408,5.67408,0,0,0-2.59622,5.56119l4.35045-2.50863a1.38534,1.38534,0,0,1,.75463-.19294c1.08739,0,2.43818.98225,3.35041,2.5611.96491,1.66643,1.10539,3.43821.43856,4.35045a1.38438,1.38438,0,0,1-.43856.40343,1.21372,1.21372,0,0,1-.54391.158l-3.87677,2.24546a6.1928,6.1928,0,0,0,3.66649,1.29811,4.92156,4.92156,0,0,0,2.50842-.66683,5.46391,5.46391,0,0,0,2.61378-4.92926C155.1809,346.79874,155.16334,346.53578,155.14578,346.28994Z"/>
      <circle class="cls-2" cx="151.55767" cy="354.34928" r="2.7993"/>
    </g>
    <circle class="cls-22" cx="143.68375" cy="347.63753" r="8.30855"/>
  </g>
  <g>
    <g>
      <g>
        <path class="cls-23" d="M227.522,69.95177a191.74878,191.74878,0,1,1-74.8872,15.113,191.17959,191.17959,0,0,1,74.8872-15.113m0-17.54224c-115.95068,0-209.94726,93.99658-209.94726,209.94751,0,115.95069,93.99658,209.94727,209.94726,209.94727S437.46924,378.30773,437.46924,262.357c0-115.95093-93.99658-209.94751-209.94727-209.94751Z"/>
        <circle class="cls-24" cx="227.522" cy="262.35693" r="194.19259"/>
        <path class="cls-25" d="M106.62266,388.71927l59.994,58.07422a193.9851,193.9851,0,0,0,60.90544,9.75594c107.2495,0,194.19253-86.94291,194.19253-194.19253a193.96865,193.96865,0,0,0-10.0168-61.70881l-63.90546-65.10092Z"/>
      </g>
      <rect class="cls-26" x="96.23889" y="131.07382" width="262.56622" height="262.56622" rx="25.40683"/>
      <g>
        <circle class="cls-23" cx="407.87164" cy="147.25692" r="62.02326"/>
        <g>
          <rect class="cls-26" x="386.81485" y="138.61469" width="13.46241" height="40.4658" transform="translate(2.94477 324.80447) rotate(-45)"/>
          <rect class="cls-26" x="413.02568" y="121.43382" width="13.46241" height="60.59444" transform="translate(609.27978 555.83402) rotate(-135)"/>
        </g>
      </g>
    </g>
    <path class="cls-27" d="M227.522,163.62741a98.72949,98.72949,0,1,0,98.72974,98.72949A98.72942,98.72942,0,0,0,227.522,163.62741Zm0,177.82861A79.09912,79.09912,0,1,1,306.6211,262.3569,79.099,79.099,0,0,1,227.522,341.456Z"/>
    <path class="cls-28" d="M148.42237,262.36081a78.96129,78.96129,0,0,0,31.18994,62.93994l-10.16992,16.88989a98.55032,98.55032,0,0,1-40.65015-79.82983Z"/>
    <path class="cls-29" d="M138.5374,261.88044l68.559-16.36191,20.96572,16.1226-19.78282,17.55414-69.53808-11.51141A2.96205,2.96205,0,0,1,138.5374,261.88044Z"/>
    <path class="cls-30" d="M286.68433,341.4028l-10.38867-16.79858a79.02874,79.02874,0,0,1-96.67627.68457L169.44,342.19406a98.74115,98.74115,0,0,0,117.24438-.79126Z"/>
    <circle class="cls-31" cx="227.522" cy="262.35693" r="42.56481"/>
    <circle class="cls-32" cx="227.522" cy="262.35693" r="33.22615"/>
    <g>
      <circle class="cls-33" cx="357.81513" cy="318.8215" r="37.51325"/>
      <polygon class="cls-26" points="376.828 312.674 363.963 312.674 363.963 299.808 351.667 299.808 351.667 312.674 338.802 312.674 338.802 324.97 351.667 324.97 351.667 337.835 363.963 337.835 363.963 324.97 376.828 324.97 376.828 312.674"/>
    </g>
    <g>
      <circle class="cls-34" cx="97.22887" cy="318.8215" r="37.51325"/>
      <rect class="cls-26" x="78.21553" y="312.67362" width="38.02667" height="12.29612"/>
    </g>
  </g>
  <g>
    <circle class="cls-35" cx="522.38695" cy="212.63531" r="47.59782"/>
    <polygon class="cls-36" points="826.426 640.154 297.105 640.154 297.105 521.393 490.702 216.245 554.082 216.245 680.702 413.333 684.509 419.244 826.426 640.154"/>
    <g>
      <circle class="cls-26" cx="522.38695" cy="228.29656" r="14.18311"/>
      <path class="cls-37" d="M554.08061,216.24665c0,10.05973-14.18974,18.21475-31.69366,18.21475s-31.69365-8.155-31.69365-18.21475,31.69365-18.929,31.69365-18.929S554.08061,206.18693,554.08061,216.24665Z"/>
    </g>
    <rect class="cls-38" x="520.37146" y="165.03748" width="4.03099" height="35.33083"/>
  </g>
  <g>
    <path class="cls-39" d="M544.22733,529.41688l2.27865,16.9498c0,2.09225,2.95127,3.78833,6.59178,3.78833s6.5916-1.69608,6.5916-3.78833l2.2882-16.9498Z"/>
    <path class="cls-40" d="M590.60286,502.66894l2.27866,16.94981c0,2.09225,2.95126,3.78832,6.59177,3.78832s6.5916-1.69607,6.5916-3.78832l2.2882-16.94981Z"/>
    <path class="cls-39" d="M469.42854,485.922l2.27866,16.9498c0,2.09226,2.95126,3.78833,6.59177,3.78833s6.5916-1.69607,6.5916-3.78833l2.2882-16.9498Z"/>
    <path class="cls-41" d="M610.20349,401.01778V508.74692a4.14865,4.14865,0,0,1-2.07163,3.60818L557.263,541.76653a8.29818,8.29818,0,0,1-4.16054,1.10494V385.21406Z"/>
    <path class="cls-42" d="M553.10244,385.21406V542.87147a8.29858,8.29858,0,0,1-4.161-1.10494l-79.9657-46.15839A4.13014,4.13014,0,0,1,466.88666,492V384.27082Z"/>
    <polygon class="cls-43" points="476.214 399.36 476.214 439.712 543.775 478.712 543.775 438.36 476.214 399.36"/>
    <polygon class="cls-44" points="476.214 448.84 476.214 489.207 543.775 528.207 543.775 487.839 476.214 448.84"/>
    <path class="cls-45" d="M465.98932,370.223v13.335a4.16214,4.16214,0,0,0,2.09855,3.63723l80.812,46.64521a8.40292,8.40292,0,0,0,8.411,0l51.69781-29.89826a4.16212,4.16212,0,0,0,2.09856-3.63723v-13.335Z"/>
    <path class="cls-46" d="M609.0086,383.33278l-80.81209-46.64514a8.40255,8.40255,0,0,0-8.41091,0l-51.69778,29.89819a4.20129,4.20129,0,0,0,0,7.27444l80.81209,46.64514a8.40255,8.40255,0,0,0,8.41091,0l51.69778-29.89819A4.20129,4.20129,0,0,0,609.0086,383.33278Z"/>
  </g>
  <g>
    <g>
      <g>
        <path class="cls-47" d="M564.09357,372.685c-2.2363-5.45639-10.71893-9.52157-20.86772-9.52157s-18.63143,4.06518-20.86765,9.52157h-.59545v2.85074c0,6.83305,9.60932,12.37231,21.4631,12.37231s21.46317-5.53926,21.46317-12.37231V372.685Z"/>
        <ellipse class="cls-48" cx="543.22589" cy="372.26512" rx="21.46315" ry="12.37235"/>
        <path class="cls-47" d="M559.47272,369.08885h.012l-.02527-.1499-.00386-.024L557.638,358.04655H528.814l-1.80562,10.82216c-.00771.0424-.01413.085-.021.12763l-.01541.09251h.00728a5.51241,5.51241,0,0,0-.07024.79873c0,5.19459,7.30557,9.40542,16.317,9.40542s16.31654-4.21083,16.31654-9.40542A5.5135,5.5135,0,0,0,559.47272,369.08885Z"/>
        <ellipse class="cls-48" cx="543.22589" cy="358.25742" rx="14.41205" ry="8.30777"/>
      </g>
      <path class="cls-49" d="M539.91887,334.962v21.76252c0,1.05283,1.4806,1.90631,3.307,1.90631s3.307-.85348,3.307-1.90631V334.962Z"/>
    </g>
    <g>
      <path class="cls-50" d="M576.245,332.22093h.00173l-.00535-.02705a11.40288,11.40288,0,0,0-.30642-1.56129L569.26946,290.478H517.17751l-6.66734,40.17674a11.39856,11.39856,0,0,0-.29447,1.501l-.01289.0652h.00409a11.14021,11.14021,0,0,0-.09816,1.39612c0,10.51161,14.82714,19.03289,33.1171,19.03289,18.29028,0,33.11742-8.52128,33.11742-19.03289A11.112,11.112,0,0,0,576.245,332.22093Z"/>
      <ellipse class="cls-51" cx="543.22595" cy="291.76167" rx="26.14368" ry="15.0251"/>
      <path class="cls-52" d="M533.484,305.69736a44.10329,44.10329,0,0,0,19.48371,0v-7.66628H533.484Z"/>
      <ellipse class="cls-53" cx="543.22595" cy="298.03114" rx="9.7419" ry="5.61568"/>
      <path class="cls-54" d="M543.22594,278.02515c13.70514,0,24.855,6.16215,24.855,13.73648s-11.14982,13.7366-24.855,13.7366-24.855-6.16226-24.855-13.7366,11.14982-13.73648,24.855-13.73648m0-1.2886c-14.43869,0-26.14367,6.727-26.14367,15.02508,0,8.29821,11.705,15.02519,26.14367,15.02519s26.14367-6.727,26.14367-15.02519c0-8.2981-11.705-15.02508-26.14367-15.02508Z"/>
    </g>
  </g>
  <path class="cls-55" d="M326.33731,717.78451,524.64015,832.26944A18.699,18.699,0,0,0,543.341,832.268l272.0702-157.12819a9.34951,9.34951,0,0,0-.0006-16.19293L617.16807,544.47611a18.699,18.699,0,0,0-18.7-.00054l-272.13095,157.115A9.34951,9.34951,0,0,0,326.33731,717.78451Z"/>
  <g>
    <path class="cls-56" d="M811.67919,637.07483l3.09252,20.68807c0,2.62762,3.65374,4.75758,8.16083,4.75758s8.16084-2.13,8.16084-4.75758l3.034-20.68807Z"/>
    <path class="cls-57" d="M324.69438,688.37241l3.09252,20.68807c0,2.62762,3.65374,4.75757,8.16083,4.75757s8.16084-2.13,8.16084-4.75757l3.034-20.68807Z"/>
    <path class="cls-58" d="M522.69615,804.497l3.09251,20.68806c0,2.62763,3.65374,4.75758,8.16084,4.75758s8.16083-2.13,8.16083-4.75758l3.034-20.68806Z"/>
    <polygon class="cls-59" points="840.069 582.493 840.069 444.596 820.069 456.181 820.069 591.207 840.069 582.493"/>
    <g>
      <polygon class="cls-60" points="606.251 329.789 606.251 470.265 820.069 581.245 820.069 456.181 606.251 329.789"/>
      <polygon class="cls-61" points="619.682 337.768 619.682 519.898 803.576 582.684 803.576 446.471 619.682 337.768"/>
      <path class="cls-62" d="M840.069,582.49281l-.00261,54.74375a9.616,9.616,0,0,1-4.65342,8.58053l-292.06837,168.897a18.73049,18.73049,0,0,1-9.42432,2.50566V618.739Z"/>
      <path class="cls-63" d="M533.92023,618.739V817.21978a18.60414,18.60414,0,0,1-9.28406-2.50566L326.33307,700.22935a9.23427,9.23427,0,0,1-4.66546-7.95645V636.89577Z"/>
      <g>
        <path class="cls-64" d="M820.06874,565.82316v35.20093l-.00936-.00936a9.25254,9.25254,0,0,1-4.64668,8.49868L543.34193,766.64134a18.63654,18.63654,0,0,1-9.42432,2.50566V590.12253Z"/>
        <path class="cls-65" d="M820.06874,579.76368v35.20093l-.00936-.00936a9.25253,9.25253,0,0,1-4.64668,8.49867L543.34193,780.58186a18.63654,18.63654,0,0,1-9.42432,2.50566V604.06305Z"/>
        <path class="cls-66" d="M533.91761,604.06305V783.08752a18.62156,18.62156,0,0,1-9.2747-2.50566L326.33975,666.09709A9.267,9.267,0,0,1,321.665,657.991V622.08893Z"/>
        <path class="cls-51" d="M731.20408,567.3834v84.7818L543.34381,760.66407a18.63086,18.63086,0,0,1-9.42,2.50853V584.1538Z"/>
        <path class="cls-47" d="M820.073,559.84025v35.20734h-.01756a9.24738,9.24738,0,0,1-4.64853,8.4904L731.20408,652.1652V567.3834Z"/>
        <path class="cls-67" d="M533.91761,584.148V763.1725a18.62156,18.62156,0,0,1-9.2747-2.50566L326.33975,646.18206A9.267,9.267,0,0,1,321.665,638.076V602.17391Z"/>
        <path class="cls-68" d="M326.33731,610.65757,524.64015,725.1425a18.699,18.699,0,0,0,18.70086-.00144l272.0702-157.12818a9.34951,9.34951,0,0,0-.0006-16.19293L617.16807,437.34916a18.699,18.699,0,0,0-18.7-.00054l-272.13095,157.115A9.34951,9.34951,0,0,0,326.33731,610.65757Z"/>
        <path class="cls-69" d="M728.36546,614.18152,515.17982,491.08245a20.02162,20.02162,0,0,0-5.92779-2.22491L326.33708,594.46361a9.34949,9.34949,0,0,0,.00043,16.19394l198.30255,114.4849a18.69865,18.69865,0,0,0,18.70075-.00139l187.871-108.50068A10.04944,10.04944,0,0,0,728.36546,614.18152Z"/>
      </g>
      <polygon class="cls-70" points="623.815 319.635 840.069 444.596 820.069 456.181 606.251 329.789 623.815 319.635"/>
      <path class="cls-71" d="M846.6865,443.66581,599.59132,319.5987v9.34774l.0024-.00085a2.776,2.776,0,0,0,1.37372,2.45715L825.0463,463.8601a5.60985,5.60985,0,0,0,5.66625.02511l14.575-8.44212a2.76728,2.76728,0,0,0,1.379-2.58807l.02.01067Z"/>
      <path class="cls-72" d="M619.09047,310.53273,845.285,441.23793a2.80486,2.80486,0,0,1,.0025,4.85567l-14.57494,8.4421a5.60971,5.60971,0,0,1-5.66624-.02511L600.96745,322.05327a2.80485,2.80485,0,0,1,.02346-4.84281l11.54952-6.677A6.54465,6.54465,0,0,1,619.09047,310.53273Z"/>
    </g>
  </g>
  <g>
    <path class="cls-47" d="M563.57273,462.3609c.20371-.21975,39.81729-22.94042,39.81729-22.94042-.20613-1.37548.13953-2.57082,1.0243-3.0308,1.00433-.522,2.38667.05866,3.467,1.31608,10.36242-4.28939,20.06192-2.852,47.40061,12.69117,35.43143,20.14428,44.62807,31.92491,45.51431,43.23314,2.466,1.17123,3.31124,2.63359,2.74776,4.10938-.52156,1.366-2.14659,1.47578-4.41352.93409-.27192-.065-.54653-.07637-.80639-.13536l-37.38326,21.46547c.3562,1.57994-.246,3.69466-1.241,4.19256-1.30755.65449-3.17773-.702-4.01387-3.33395l-.00092-.00209c-16.29735-.6754-34.383-12.57052-49.1134-21.8596-12.24116-7.71949-37.18425-18.15531-42.79683-31.39341-2.16333-.005-4.17084-1.30135-4.25281-2.67082C559.43882,463.54323,561.3703,462.59411,563.57273,462.3609Z"/>
    <path class="cls-47" d="M668.87762,525.94854c.20371-.21975,39.81728-22.94043,39.81728-22.94043-.20613-1.37548-.53392-3.0027.35085-3.46267,1.00433-.52206,3.06012.49053,4.14049,1.748,13.74332-2.90175,20.06192-2.852,47.40061,12.69117,35.43143,20.14428,37.58278,29.16356,45.51431,43.23314,2.466,1.17123,3.78082,1.96279,3.21734,3.43857-.52156,1.366-3.95443,2.0728-5.68948,1.46955l-37.38326,21.46546c.35619,1.57994-.246,3.69466-1.241,4.19256-1.30756.65449-3.17774-.702-4.01387-3.334l-.00092-.00209c-16.29735-.6754-38.4884-10.59834-53.21876-19.88741-12.24117-7.7195-33.0789-20.1275-38.69147-33.36559-2.16333-.005-4.27247-1.08622-4.35444-2.45569C664.64208,527.346,666.67519,526.18174,668.87762,525.94854Z"/>
  </g>
  <g>
    <path class="cls-5" d="M559.87921,452.81181c.20371-.21975,39.81729-22.94043,39.81729-22.94043-.20613-1.37548.13953-2.57082,1.0243-3.03079,1.00433-.52206,2.38667.05865,3.467,1.31607,10.36243-4.28938,20.06192-2.852,47.40061,12.69117,35.43143,20.14428,44.62807,31.92492,45.51431,43.23314,2.466,1.17123,3.31124,2.6336,2.74776,4.10938-.52156,1.366-2.14659,1.47578-4.41352.9341-.27192-.065-.54653-.07637-.80639-.13536l-37.38326,21.46546c.3562,1.57994-.246,3.69466-1.241,4.19257-1.30755.65448-3.17773-.702-4.01387-3.334l-.00092-.00209c-16.29735-.6754-34.383-12.57052-49.1134-21.8596-12.24116-7.71949-37.18425-18.15531-42.79683-31.3934-2.16332-.005-4.17084-1.30135-4.25281-2.67082C555.7453,453.99413,557.67678,453.045,559.87921,452.81181Z"/>
    <path class="cls-5" d="M665.1841,516.39944c.20371-.21975,39.81728-22.94042,39.81728-22.94042-.20613-1.37549-.53392-3.00271.35085-3.46268,1.00433-.522,3.06013.49054,4.14049,1.748,13.74332-2.90175,20.06192-2.852,47.40062,12.69117,35.43142,20.14427,37.58277,29.16355,45.5143,43.23314,2.466,1.17122,3.78082,1.96278,3.21734,3.43856-.52156,1.366-3.95443,2.07281-5.68948,1.46955l-37.38326,21.46546c.35619,1.57995-.246,3.69466-1.241,4.19257-1.30756.65449-3.17774-.702-4.01387-3.33395l-.00092-.00209c-16.29735-.67541-38.4884-10.59834-53.21876-19.88742-12.24117-7.71949-33.0789-20.1275-38.69147-33.36559-2.16333-.005-4.27247-1.08622-4.35444-2.45569C660.94856,517.7969,662.98167,516.63264,665.1841,516.39944Z"/>
  </g>
  <g>
    <path class="cls-73" d="M863.50952,734.08055s2.15257,5.89506.97567,9.5434-7.973,4.93018-11.43711,1.59748c-2.99668-2.883-2.59358-3.30481-5.5265-7.521-3.06293-4.40305-8.33625-9.92018-8.80846-14.66064-1.08675-10.90988,13.51421-5.493,13.51421-5.493Z"/>
    <path class="cls-74" d="M864.81191,727.06654s.85018,9.12828-.32672,12.77661-7.973,4.93018-11.43711,1.59748c-2.99668-2.883-2.36084-3.802-5.29376-8.01818-3.06293-4.40305-7.35243-8.93872-7.57608-11.85361-.83874-10.93174,12.04909-7.8028,12.04909-7.8028Z"/>
    <path class="cls-73" d="M847.47186,734.16337s-.58212-6.01585.61242-7.78077l7.42121-10.96471L845.2893,713.7286s-4.00851.9363-5.018,3.8556a8.5725,8.5725,0,0,0-.1323,5.31484Z"/>
    <path class="cls-75" d="M861.78,561.30125l3.32879,85.821s1.31777,51.05354.88063,79.46428c-.65589,6.74846-19.70062,6.34249-21.42415-1.19374-9.84574-50.97342-16.58707-101.119-17.06454-151.79908Z"/>
    <path class="cls-73" d="M822.378,757.0456c.99653.59838,2.85617,4.6377,1.9302,7.39778s-3.5933,3.8666-7.2232,3.8666-7.04483-1.2144-13.18336-1.77089c-8.2572-.74856-12.83058.08044-18.11488-2.58842-6.79121-3.42994-3.5952-11.05951,2.0159-11.57562,1.699-.15628,6.818-.20293,6.818-.20293l13.13379-3.39726S821.38147,756.44722,822.378,757.0456Z"/>
    <path class="cls-74" d="M821.55876,748.43953l-.20735-6.8979-14.23207-.22126.20393,6.19133-13.24208,3.214s-4.63807.30945-6.23517.45622c-5.27475.48529-7.26487,6.08452-1.01585,9.56255,6.154,3.42543,10.03352,2.15485,17.79541,2.85868,5.77042.5229,8.2135,1.23919,11.62577,1.23919s5.91949-1.03981,6.78992-3.6345S821.55876,748.43953,821.55876,748.43953Z"/>
    <path class="cls-73" d="M861.78,561.30119l-1.63977-36.65979-65.047,8.41337S793.243,559.5862,793.243,580.03319c0,46.65328,1.64459,93.49548,6.67672,160.14088.67883,11.75511,24.5546,8.67976,25.72373.58492,3.3632-30.05011,4.939-45.43742,4.09769-72.93059l4.29019-76.37464Z"/>
    <path class="cls-76" d="M794.21435,551.75389c.44664-8.71286.87886-14.91832.87886-14.91832l65.047-8.4134.54991,12.29377c-2.0374,5.50066-6.95048,11.06045-15.97989,14.92467C830.63568,561.664,801.03982,561.53611,794.21435,551.75389Z"/>
    <g>
      <path class="cls-74" d="M888.93294,461.57682l-.48259-9.1293a9.30762,9.30762,0,0,1,1.0071-4.06454s3.42565-7.32394,6.07318-7.05319,5.9242,2.34833,5.9242,5.09851-.21138,7.56236-1.6769,10.87308a81.50778,81.50778,0,0,1-4.2473,7.81284S888.52635,465.22955,888.93294,461.57682Z"/>
      <path class="cls-74" d="M863.35967,486.4025s6.28,6.67258,11.52639,9.33835,9.52522-.65265,13.07072-7.24974,7.57385-23.37689,7.57385-23.37689l-6.1751-4.32719-9.54414,15.76821-4.93395-7.19777"/>
      <path class="cls-77" d="M847.60806,441.20743c13.80893,4.12305,26.68426,22.15413,32.12308,30.84,5.38965,8.60735-7.0522,25.06037-16.37147,20.3947l-10.55-5.83461Z"/>
      <path class="cls-18" d="M863.35966,492.44208l-5.78877-3.20135L861.78,462.32586l4.43373,30.90243A7.62929,7.62929,0,0,1,863.35966,492.44208Z"/>
    </g>
    <path class="cls-78" d="M828.20439,439.70482c21.31669-1.70525,35.17032,4.33809,33.15926,27.57019L860.332,492.9989l.96531,31.7703c-.153,7.004-4.76661,15.26838-16.85883,20.44338-15.7875,6.75644-51.42238,5.65413-51.11507-8.41723l.5631-28.99952-3.00269-39.76435C793.9666,456.64888,812.65155,440.949,828.20439,439.70482Z"/>
    <path class="cls-79" d="M794.3859,540.82078l8.602-38.14881,9.74483-21.88034-5.10658,67.1996C801.42257,546.70035,796.45889,544.3602,794.3859,540.82078Z"/>
    <g>
      <path class="cls-74" d="M791.10346,480.12705l-7.02044,43.375-3.57493,40.16165c-.77955,3.87477,7.06349,6.99582,8.81515,1.89045,0,0,8.97759-28.88353,11.76189-40.656s8.10342-33.145,8.10342-33.145Z"/>
      <path class="cls-74" d="M788.50971,586.21109l.11888-9.56064-.0365,2.93548c.70579,2.06749,2.39494,1.282,2.717-.48612l.42134-4.812a9.006,9.006,0,0,0-.45241-2.2941l-2.10456-6.46488-8.5049-3.66771s-1.98547,10.8017-1.98547,13.97918a12.10566,12.10566,0,0,0,2.9767,7.68009l3.81578,3.95012A1.72275,1.72275,0,0,0,788.50971,586.21109Z"/>
    </g>
    <path class="cls-80" d="M791.0405,467.50862a248.84951,248.84951,0,0,0-7.41139,38.48555c-1.1262,10.37708,22.595,15.69453,24.57518,4.58522l4.24944-28.27458C815.32408,465.97016,795.05257,454.11494,791.0405,467.50862Z"/>
    <path class="cls-73" d="M803.25294,748.49961a6.43731,6.43731,0,0,0-2.97121,5.30946c-.101,3.70477,4.7256,9.376,4.7256,9.376l4.79573,1.021-16.56-.38188-8.34591-2.59427-2.5596-3.22776s-.84915-5.15837,2.31827-6.45551S803.25294,748.49961,803.25294,748.49961Z"/>
    <path class="cls-74" d="M833.94839,439.42919,832.4,428.06121c-2.68491-6.7508-16.55742,3.04225-15.68961,8.0195l1.43256,7.32511C823.5402,442.88129,833.94839,439.42919,833.94839,439.42919Z"/>
    <g>
      <path class="cls-74" d="M816.78456,440.86817c7.45365-1.23271,11.965-4.53233,12.81314-11.419l1.44512-15.30254c.89777-5.987-4.13955-12.02743-11.16656-12.46229-6.14152-.38006-12.7945,4.3027-13.21881,11.106a137.78226,137.78226,0,0,0,.14306,15.10675C807.35533,434.60209,810.01082,441.98844,816.78456,440.86817Z"/>
      <path class="cls-81" d="M824.88683,438.706c2.01916,1.09805,6.47825-.04477,8.40289-3.053.36091-.82207.25283-2.00013.79437-2.66665,1.564-1.92485,2.86986-1.7481,4.4076-4.75672.92232-1.80454-.02991-3.79809.56141-5.173.836-1.94384,3.13148-3.26426,3.24819-6.01516.14035-3.30834-1.5974-4.12024-1.92485-6.13546-.28635-1.7623.7531-4.26019-.96243-6.737-1.604-2.31583-3.94995-1.74439-6.57657-3.28828-2.29184-1.34712-2.02255-3.08587-5.678-3.98426-3.54895-.87219-6.4786,1.09711-8.95883,1.43784-2.37734.32659-5.20549-.41111-7.37095,1.72428-2.44168,2.40777-2.0505,4.88409-1.43361,5.955,1.25316,2.17548,5.5941-.09023,6.76705,2.7369,2.01541,4.85764-2.01508,5.94345-1.1128,8.12046.59885,1.44491,2.40148,1.95493,1.47872,4.83218-.44181,1.37762-.7869,2.92737-.7869,2.92737l1.35094,3.40612,6.684,3.46488S822.86768,437.608,824.88683,438.706Z"/>
      <path class="cls-82" d="M815.742,424.63055c-.8697,3.21892-1.66419,8.17059-3.90978,9.05281-1.53845.60441-2.52644-2.30581-4.82829-3.959,0,0-.81648,5.36054-.28466,7.18719a5.114,5.114,0,0,0,3.40845,3.86306c1.0135.43722,5.113.9756,6.65685.09361-1.50373-1.37015.92247-13.64027.92247-13.64027Z"/>
      <path class="cls-74" d="M819.52558,434.64185c2.8167.0679,5.2826-3.80787,5.35964-7.00412s-2.62553-5.95291-5.08063-4.57055C816.72265,424.80248,816.70888,434.574,819.52558,434.64185Z"/>
    </g>
    <path class="cls-83" d="M841.77278,440.12337a18.8995,18.8995,0,0,0-5.415-3.56026c-3.11417-1.273-15.92861,2.62517-19.0778,4.66444s-6.48571,4.72833-6.48571,4.72833C819.94719,447.89973,837.82369,446.15211,841.77278,440.12337Z"/>
  </g>
  <g>
    <g>
      <polygon class="cls-84" points="691.092 238.19 650.264 214.579 650.264 276.496 691.092 300.106 691.092 238.19"/>
      <polygon class="cls-85" points="691.092 241.417 659.097 222.914 659.097 271.435 691.092 289.937 691.092 241.417"/>
      <path class="cls-86" d="M653.925,220.92586,687.43111,240.302v53.45767L653.925,274.3835V220.92586m-3.66132-6.34676v61.91656l40.82878,23.6108V238.18989L650.26365,214.5791Z"/>
      <polygon class="cls-87" points="697.704 296.3 697.704 234.384 691.092 238.19 691.092 300.106 697.704 296.3"/>
      <polygon class="cls-88" points="697.704 234.384 656.861 210.781 650.264 214.579 691.092 238.19 697.704 234.384"/>
    </g>
    <g>
      <polygon class="cls-89" points="744.955 294.654 704.127 271.043 704.127 332.96 744.955 356.571 744.955 294.654"/>
      <polygon class="cls-90" points="744.955 297.881 712.96 279.378 712.96 327.899 744.955 346.401 744.955 297.881"/>
      <path class="cls-91" d="M707.788,277.38992l33.50614,19.37619v53.45766L707.788,330.84756V277.38992m-3.66132-6.34675v61.91655l40.82878,23.6108V294.654l-40.82878-23.61078Z"/>
      <polygon class="cls-92" points="751.567 352.764 751.567 290.848 744.955 294.654 744.955 356.571 751.567 352.764"/>
      <polygon class="cls-93" points="751.567 290.848 710.724 267.245 704.127 271.043 744.955 294.654 751.567 290.848"/>
    </g>
    <g>
      <polygon class="cls-94" points="798.818 285.308 757.99 261.697 757.99 323.613 798.818 347.224 798.818 285.308"/>
      <polygon class="cls-95" points="798.818 288.534 766.823 270.032 766.823 318.552 798.818 337.055 798.818 288.534"/>
      <path class="cls-96" d="M761.651,268.04357l33.50613,19.37619v53.45767L761.651,321.50122V268.04357m-3.66133-6.34675v61.91656l40.82878,23.6108V285.3076l-40.82878-23.61078Z"/>
      <polygon class="cls-97" points="805.43 343.418 805.43 281.502 798.818 285.308 798.818 347.224 805.43 343.418"/>
      <polygon class="cls-98" points="805.43 281.502 764.587 257.899 757.99 261.697 798.818 285.308 805.43 281.502"/>
    </g>
  </g>
</svg>
