<svg id="Layer_1" data-name="Layer 1" xmlns="http://www.w3.org/2000/svg" xmlns:xlink="http://www.w3.org/1999/xlink" viewBox="0 0 1000 1000">
  <defs>
    <style>
      .cls-1, .cls-100, .cls-102, .cls-27, .cls-66, .cls-96, .cls-97 {
        fill: none;
      }

      .cls-2 {
        clip-path: url(#clip-path);
      }

      .cls-3 {
        fill: url(#linear-gradient);
      }

      .cls-4 {
        fill: url(#linear-gradient-2);
      }

      .cls-5 {
        fill: #bcbcbc;
      }

      .cls-6 {
        fill: #e9f1f4;
      }

      .cls-7 {
        fill: url(#linear-gradient-3);
      }

      .cls-8 {
        fill: url(#linear-gradient-4);
      }

      .cls-9 {
        fill: #b8cbd8;
      }

      .cls-10 {
        fill: url(#linear-gradient-5);
      }

      .cls-11, .cls-57 {
        fill: #fff;
      }

      .cls-11 {
        opacity: 0.7;
      }

      .cls-12 {
        fill: url(#linear-gradient-6);
      }

      .cls-13 {
        fill: url(#linear-gradient-7);
      }

      .cls-14 {
        fill: url(#linear-gradient-8);
      }

      .cls-15 {
        fill: url(#linear-gradient-9);
      }

      .cls-16 {
        fill: url(#linear-gradient-10);
      }

      .cls-17 {
        fill: url(#linear-gradient-11);
      }

      .cls-18 {
        fill: url(#linear-gradient-12);
      }

      .cls-19 {
        fill: url(#linear-gradient-13);
      }

      .cls-20 {
        fill: url(#linear-gradient-14);
      }

      .cls-21 {
        fill: url(#linear-gradient-15);
      }

      .cls-22 {
        fill: url(#linear-gradient-16);
      }

      .cls-23 {
        fill: url(#linear-gradient-17);
      }

      .cls-24 {
        fill: url(#linear-gradient-18);
      }

      .cls-25, .cls-61 {
        fill: #dd7b19;
      }

      .cls-25, .cls-56, .cls-58 {
        opacity: 0.5;
      }

      .cls-26 {
        fill: url(#linear-gradient-19);
      }

      .cls-27 {
        stroke: #d8712b;
        stroke-linecap: round;
        stroke-width: 5.10365px;
      }

      .cls-100, .cls-102, .cls-27, .cls-66, .cls-96, .cls-97 {
        stroke-miterlimit: 10;
      }

      .cls-28 {
        fill: #9bb0c4;
      }

      .cls-29 {
        fill: url(#linear-gradient-20);
      }

      .cls-30 {
        fill: url(#linear-gradient-21);
      }

      .cls-31 {
        fill: url(#linear-gradient-22);
      }

      .cls-32 {
        fill: url(#linear-gradient-23);
      }

      .cls-33 {
        fill: url(#linear-gradient-24);
      }

      .cls-34 {
        fill: url(#linear-gradient-25);
      }

      .cls-35 {
        fill: url(#linear-gradient-26);
      }

      .cls-36 {
        fill: url(#linear-gradient-27);
      }

      .cls-37 {
        fill: url(#linear-gradient-28);
      }

      .cls-38 {
        fill: url(#linear-gradient-29);
      }

      .cls-39 {
        fill: url(#linear-gradient-30);
      }

      .cls-40 {
        fill: url(#linear-gradient-31);
      }

      .cls-41 {
        fill: url(#linear-gradient-32);
      }

      .cls-42 {
        fill: url(#linear-gradient-33);
      }

      .cls-43 {
        fill: url(#linear-gradient-34);
      }

      .cls-44 {
        fill: url(#linear-gradient-35);
      }

      .cls-45 {
        fill: url(#linear-gradient-36);
      }

      .cls-46 {
        fill: url(#linear-gradient-37);
      }

      .cls-47 {
        fill: url(#linear-gradient-38);
      }

      .cls-48 {
        fill: #303d49;
      }

      .cls-49 {
        fill: #b75c5a;
      }

      .cls-50 {
        fill: #27343d;
      }

      .cls-51, .cls-56 {
        fill: #323f4c;
      }

      .cls-52 {
        fill: #d67f6e;
      }

      .cls-53 {
        fill: url(#linear-gradient-39);
      }

      .cls-54 {
        fill: url(#linear-gradient-40);
      }

      .cls-55 {
        fill: url(#linear-gradient-41);
      }

      .cls-58 {
        fill: url(#linear-gradient-42);
      }

      .cls-59 {
        fill: url(#linear-gradient-43);
      }

      .cls-60 {
        fill: url(#linear-gradient-44);
      }

      .cls-62 {
        fill: #ffcd5c;
      }

      .cls-63 {
        fill: #994a4a;
      }

      .cls-64 {
        fill: url(#linear-gradient-45);
      }

      .cls-65 {
        fill: url(#linear-gradient-46);
      }

      .cls-66 {
        stroke: #37444f;
        stroke-width: 1.08113px;
      }

      .cls-67 {
        fill: #eaeaea;
      }

      .cls-68 {
        fill: #34a521;
      }

      .cls-69 {
        fill: #e2e2e2;
      }

      .cls-70 {
        fill: url(#linear-gradient-47);
      }

      .cls-71 {
        fill: #242c35;
      }

      .cls-72 {
        fill: url(#linear-gradient-48);
      }

      .cls-73 {
        fill: #e58630;
      }

      .cls-74 {
        fill: url(#linear-gradient-49);
      }

      .cls-75 {
        fill: url(#linear-gradient-50);
      }

      .cls-76 {
        fill: url(#linear-gradient-51);
      }

      .cls-77 {
        fill: url(#linear-gradient-52);
      }

      .cls-78 {
        fill: url(#linear-gradient-53);
      }

      .cls-79 {
        fill: url(#linear-gradient-54);
      }

      .cls-80 {
        fill: url(#linear-gradient-55);
      }

      .cls-81 {
        fill: url(#linear-gradient-56);
      }

      .cls-82 {
        fill: #724133;
      }

      .cls-83 {
        fill: #ffcb48;
      }

      .cls-84 {
        fill: url(#linear-gradient-57);
      }

      .cls-85 {
        fill: url(#linear-gradient-58);
      }

      .cls-86 {
        fill: url(#linear-gradient-59);
      }

      .cls-87 {
        fill: url(#linear-gradient-60);
      }

      .cls-88 {
        fill: url(#linear-gradient-61);
      }

      .cls-89 {
        fill: url(#linear-gradient-62);
      }

      .cls-90 {
        fill: url(#linear-gradient-63);
      }

      .cls-91 {
        fill: #303944;
      }

      .cls-92 {
        fill: #89a1bc;
      }

      .cls-93 {
        fill: url(#linear-gradient-64);
      }

      .cls-94 {
        fill: url(#linear-gradient-65);
      }

      .cls-95 {
        fill: url(#linear-gradient-66);
      }

      .cls-96 {
        stroke: url(#linear-gradient-67);
      }

      .cls-97 {
        stroke: url(#linear-gradient-68);
      }

      .cls-98 {
        fill: url(#linear-gradient-69);
      }

      .cls-99 {
        fill: url(#linear-gradient-70);
      }

      .cls-100 {
        stroke: url(#linear-gradient-71);
      }

      .cls-101 {
        fill: url(#linear-gradient-72);
      }

      .cls-102 {
        stroke: url(#linear-gradient-73);
      }

      .cls-103 {
        fill: url(#linear-gradient-74);
      }

      .cls-104 {
        fill: url(#linear-gradient-75);
      }

      .cls-105 {
        fill: url(#linear-gradient-76);
      }
    </style>
    <clipPath id="clip-path">
      <path class="cls-1" d="M2475.98541,305.84375a194.17509,194.17509,0,1,1-71.04617-150.16185A193.78539,193.78539,0,0,1,2475.98541,305.84375Z"/>
    </clipPath>
    <linearGradient id="linear-gradient" x1="958.20989" y1="821.81957" x2="2075.5388" y2="1829.38568" gradientUnits="userSpaceOnUse">
      <stop offset="0" stop-color="#62788c"/>
      <stop offset="1" stop-color="#526575"/>
    </linearGradient>
    <linearGradient id="linear-gradient-2" x1="883.21437" y1="1089.20597" x2="2897.54111" y2="1089.20597" gradientUnits="userSpaceOnUse">
      <stop offset="0" stop-color="#3e4c59"/>
      <stop offset="1" stop-color="#293440"/>
    </linearGradient>
    <linearGradient id="linear-gradient-3" x1="1044.57185" y1="530.88201" x2="2154.11686" y2="1149.81188" gradientUnits="userSpaceOnUse">
      <stop offset="0.00005" stop-color="#ffcb48"/>
      <stop offset="1" stop-color="#e68e2b"/>
    </linearGradient>
    <linearGradient id="linear-gradient-4" x1="460.38983" y1="396.22833" x2="867.03608" y2="396.22833" gradientUnits="userSpaceOnUse">
      <stop offset="0" stop-color="#e4edf2"/>
      <stop offset="1" stop-color="#c3d6e6"/>
    </linearGradient>
    <linearGradient id="linear-gradient-5" x1="53.75927" y1="711.22041" x2="867.03608" y2="711.22041" gradientUnits="userSpaceOnUse">
      <stop offset="0.00663" stop-color="#c4d5e6"/>
      <stop offset="1" stop-color="#dae9f2"/>
    </linearGradient>
    <linearGradient id="linear-gradient-6" x1="354.89883" y1="179.89178" x2="175.74378" y2="568.06105" gradientUnits="userSpaceOnUse">
      <stop offset="0" stop-color="#293440"/>
      <stop offset="1" stop-color="#3e4c59"/>
    </linearGradient>
    <linearGradient id="linear-gradient-7" x1="88.25366" y1="466.38226" x2="183.52962" y2="466.38226" gradientUnits="userSpaceOnUse">
      <stop offset="0" stop-color="#62778c"/>
      <stop offset="1" stop-color="#435466"/>
    </linearGradient>
    <linearGradient id="linear-gradient-8" x1="206.51626" y1="398.09973" x2="301.80634" y2="398.09973" xlink:href="#linear-gradient-7"/>
    <linearGradient id="linear-gradient-9" x1="324.79298" y1="329.79742" x2="420.13749" y2="329.79742" xlink:href="#linear-gradient-7"/>
    <linearGradient id="linear-gradient-10" x1="88.25366" y1="401.38253" x2="431.60273" y2="401.38253" gradientUnits="userSpaceOnUse">
      <stop offset="0" stop-color="#849bb2"/>
      <stop offset="1" stop-color="#5b6f82"/>
    </linearGradient>
    <linearGradient id="linear-gradient-11" x1="447.512" y1="299.69702" x2="78.4526" y2="499.75349" xlink:href="#linear-gradient-7"/>
    <linearGradient id="linear-gradient-12" x1="107.82898" y1="354.32527" x2="334.75871" y2="580.65782" gradientUnits="userSpaceOnUse">
      <stop offset="0" stop-color="#435466"/>
      <stop offset="1" stop-color="#62778c"/>
    </linearGradient>
    <linearGradient id="linear-gradient-13" x1="200.95469" y1="260.95385" x2="427.88442" y2="487.28639" xlink:href="#linear-gradient-12"/>
    <linearGradient id="linear-gradient-14" x1="294.09193" y1="167.57086" x2="521.02166" y2="393.90341" xlink:href="#linear-gradient-12"/>
    <linearGradient id="linear-gradient-15" x1="-107.31192" y1="149.84663" x2="444.16707" y2="149.84663" gradientUnits="userSpaceOnUse">
      <stop offset="0" stop-color="#5b6f82"/>
      <stop offset="1" stop-color="#849bb2"/>
    </linearGradient>
    <linearGradient id="linear-gradient-16" x1="-107.31192" y1="254.4337" x2="444.16707" y2="254.4337" xlink:href="#linear-gradient-15"/>
    <linearGradient id="linear-gradient-17" x1="-107.31192" y1="359.09044" x2="444.16707" y2="359.09044" xlink:href="#linear-gradient-15"/>
    <linearGradient id="linear-gradient-18" x1="120.22182" y1="354.76235" x2="96.93166" y2="640.51465" xlink:href="#linear-gradient-3"/>
    <linearGradient id="linear-gradient-19" x1="387.76736" y1="194.58321" x2="464.20684" y2="477.64819" xlink:href="#linear-gradient-3"/>
    <linearGradient id="linear-gradient-20" x1="11439.60803" y1="440.88407" x2="11487.72285" y2="567.61507" gradientTransform="matrix(-1, 0, 0, 1, 11949.4369, 0)" xlink:href="#linear-gradient-10"/>
    <linearGradient id="linear-gradient-21" x1="11459.01402" y1="481.65811" x2="11468.03555" y2="595.07161" gradientTransform="matrix(-1, 0, 0, 1, 11949.4369, 0)" xlink:href="#linear-gradient"/>
    <linearGradient id="linear-gradient-22" x1="11371.84245" y1="480.88798" x2="11407.49897" y2="629.52841" gradientTransform="matrix(-1, 0, 0, 1, 11949.4369, 0)" xlink:href="#linear-gradient"/>
    <linearGradient id="linear-gradient-23" x1="11427.11455" y1="567.44691" x2="11821.91383" y2="701.05146" gradientTransform="matrix(-1, 0, 0, 1, 11949.4369, 0)" xlink:href="#linear-gradient"/>
    <linearGradient id="linear-gradient-24" x1="11411.83363" y1="494.63099" x2="11869.78361" y2="652.72254" gradientTransform="matrix(-1, 0, 0, 1, 11949.4369, 0)" xlink:href="#linear-gradient-10"/>
    <linearGradient id="linear-gradient-25" x1="11461.98482" y1="472.01407" x2="11733.48988" y2="739.22316" gradientTransform="matrix(-1, 0, 0, 1, 11949.4369, 0)" xlink:href="#linear-gradient-7"/>
    <linearGradient id="linear-gradient-26" x1="11587.84874" y1="366.01388" x2="11625.65324" y2="583.38976" gradientTransform="matrix(-1, 0, 0, 1, 11949.4369, 0)" xlink:href="#linear-gradient"/>
    <linearGradient id="linear-gradient-27" x1="11539.20758" y1="393.54978" x2="11810.71264" y2="660.75887" gradientTransform="matrix(-1, 0, 0, 1, 11949.4369, 0)" xlink:href="#linear-gradient-7"/>
    <linearGradient id="linear-gradient-28" x1="11497.81109" y1="362.2771" x2="11753.85067" y2="734.30776" gradientTransform="matrix(-1, 0, 0, 1, 11949.4369, 0)" xlink:href="#linear-gradient-10"/>
    <linearGradient id="linear-gradient-29" x1="11487.7727" y1="445.8116" x2="11759.27775" y2="713.02069" gradientTransform="matrix(-1, 0, 0, 1, 11949.4369, 0)" xlink:href="#linear-gradient-7"/>
    <linearGradient id="linear-gradient-30" x1="11730.1071" y1="440.88884" x2="11782.08829" y2="638.07369" gradientTransform="matrix(-1, 0, 0, 1, 11949.4369, 0)" xlink:href="#linear-gradient"/>
    <linearGradient id="linear-gradient-31" x1="11573.38373" y1="358.82418" x2="11844.88879" y2="626.03327" gradientTransform="matrix(-1, 0, 0, 1, 11949.4369, 0)" xlink:href="#linear-gradient-7"/>
    <linearGradient id="linear-gradient-32" x1="11559.16278" y1="320.05354" x2="11815.20235" y2="692.0842" gradientTransform="matrix(-1, 0, 0, 1, 11949.4369, 0)" xlink:href="#linear-gradient-10"/>
    <linearGradient id="linear-gradient-33" x1="11518.58496" y1="414.50396" x2="11790.09002" y2="681.71305" gradientTransform="matrix(-1, 0, 0, 1, 11949.4369, 0)" xlink:href="#linear-gradient-7"/>
    <linearGradient id="linear-gradient-34" x1="11411.57028" y1="558.61887" x2="11673.3737" y2="755.48411" gradientTransform="matrix(-1, 0, 0, 1, 11949.4369, 0)" xlink:href="#linear-gradient-2"/>
    <linearGradient id="linear-gradient-35" x1="11196.89244" y1="407.93604" x2="11701.23886" y2="746.45817" gradientTransform="matrix(-1, 0, 0, 1, 11949.4369, 0)" xlink:href="#linear-gradient-7"/>
    <linearGradient id="linear-gradient-36" x1="11749.48839" y1="631.75727" x2="11800.39559" y2="740.01562" gradientTransform="matrix(-1, 0, 0, 1, 11949.4369, 0)" xlink:href="#linear-gradient-10"/>
    <linearGradient id="linear-gradient-37" x1="11765.92789" y1="667.4163" x2="11803.94719" y2="730.567" gradientTransform="matrix(-1, 0, 0, 1, 11949.4369, 0)" xlink:href="#linear-gradient-7"/>
    <linearGradient id="linear-gradient-38" x1="11698.31296" y1="656.88679" x2="11704.75691" y2="789.30994" gradientTransform="matrix(-1, 0, 0, 1, 11949.4369, 0)" xlink:href="#linear-gradient"/>
    <linearGradient id="linear-gradient-39" x1="394.44176" y1="414.01224" x2="442.10134" y2="546.09735" xlink:href="#linear-gradient-3"/>
    <linearGradient id="linear-gradient-40" x1="401.1564" y1="564.61267" x2="462.6358" y2="564.61267" gradientTransform="translate(3.38432)" xlink:href="#linear-gradient-2"/>
    <linearGradient id="linear-gradient-41" x1="381.38323" y1="453.11295" x2="345.63855" y2="562.04912" gradientUnits="userSpaceOnUse">
      <stop offset="0" stop-color="#65788c"/>
      <stop offset="0.99995" stop-color="#455260"/>
    </linearGradient>
    <linearGradient id="linear-gradient-42" x1="373.93385" y1="421.68066" x2="459.48038" y2="546.64131" gradientTransform="translate(3.38432)" gradientUnits="userSpaceOnUse">
      <stop offset="0.62595" stop-color="#fff" stop-opacity="0"/>
      <stop offset="1" stop-color="#fff"/>
    </linearGradient>
    <linearGradient id="linear-gradient-43" x1="319.83818" y1="440.93106" x2="367.49775" y2="573.01617" xlink:href="#linear-gradient-3"/>
    <linearGradient id="linear-gradient-44" x1="377.72108" y1="436.26436" x2="412.6998" y2="526.1367" xlink:href="#linear-gradient-3"/>
    <linearGradient id="linear-gradient-45" x1="389.25226" y1="395.5705" x2="410.95439" y2="462.97475" gradientUnits="userSpaceOnUse">
      <stop offset="0.00005" stop-color="#c6c6c6"/>
      <stop offset="1" stop-color="#a9b0b3"/>
    </linearGradient>
    <linearGradient id="linear-gradient-46" x1="384.10196" y1="397.22874" x2="405.80409" y2="464.63299" xlink:href="#linear-gradient-45"/>
    <linearGradient id="linear-gradient-47" x1="626.54399" y1="136.23187" x2="840.63427" y2="533.0603" gradientUnits="userSpaceOnUse">
      <stop offset="0" stop-color="#96b1cc"/>
      <stop offset="1" stop-color="#748ea6"/>
    </linearGradient>
    <linearGradient id="linear-gradient-48" x1="329.62351" y1="764.58045" x2="1082.50393" y2="703.46581" gradientUnits="userSpaceOnUse">
      <stop offset="0.00005" stop-color="#ffb348"/>
      <stop offset="1" stop-color="#e68e2b"/>
    </linearGradient>
    <linearGradient id="linear-gradient-49" x1="13971.31173" y1="699.37746" x2="14287.9376" y2="844.03713" gradientTransform="matrix(-1, 0, 0, 1, 14692.83012, 0)" xlink:href="#linear-gradient-2"/>
    <linearGradient id="linear-gradient-50" x1="14005.11342" y1="625.39355" x2="14321.73929" y2="770.05322" gradientTransform="matrix(-1, 0, 0, 1, 14692.83012, 0)" xlink:href="#linear-gradient-2"/>
    <linearGradient id="linear-gradient-51" x1="13980.99055" y1="678.19281" x2="14297.61642" y2="822.85247" gradientTransform="matrix(-1, 0, 0, 1, 14692.83012, 0)" xlink:href="#linear-gradient-2"/>
    <linearGradient id="linear-gradient-52" x1="13998.5723" y1="639.71051" x2="14315.19817" y2="784.37018" gradientTransform="matrix(-1, 0, 0, 1, 14692.83012, 0)" xlink:href="#linear-gradient-2"/>
    <linearGradient id="linear-gradient-53" x1="13994.09782" y1="649.50409" x2="14310.7237" y2="794.16375" gradientTransform="matrix(-1, 0, 0, 1, 14692.83012, 0)" xlink:href="#linear-gradient-2"/>
    <linearGradient id="linear-gradient-54" x1="13979.40121" y1="708.5483" x2="14309.57949" y2="708.5483" gradientTransform="matrix(-1, 0, 0, 1, 14692.83012, 0)" gradientUnits="userSpaceOnUse">
      <stop offset="0" stop-color="#526575"/>
      <stop offset="1" stop-color="#62788c"/>
    </linearGradient>
    <linearGradient id="linear-gradient-55" x1="13979.40123" y1="672.4695" x2="14309.57947" y2="672.4695" gradientTransform="matrix(-1, 0, 0, 1, 14692.83012, 0)" gradientUnits="userSpaceOnUse">
      <stop offset="0" stop-color="#748ea6"/>
      <stop offset="1" stop-color="#96b1cc"/>
    </linearGradient>
    <linearGradient id="linear-gradient-56" x1="11861.52359" y1="663.22305" x2="11813.82355" y2="713.83436" gradientTransform="matrix(-1, 0, 0, 1, 12655.4257, 0)" xlink:href="#linear-gradient-3"/>
    <linearGradient id="linear-gradient-57" x1="11800.15096" y1="608.80827" x2="11829.71154" y2="624.93222" gradientTransform="matrix(-1, 0, 0, 1, 12655.4257, 0)" gradientUnits="userSpaceOnUse">
      <stop offset="0" stop-color="#f2883c"/>
      <stop offset="0.16716" stop-color="#e97d35"/>
      <stop offset="0.67368" stop-color="#d26124"/>
      <stop offset="0.96784" stop-color="#c9571e"/>
    </linearGradient>
    <linearGradient id="linear-gradient-58" x1="11816.29244" y1="572.05003" x2="11836.59668" y2="611.01625" xlink:href="#linear-gradient-57"/>
    <linearGradient id="linear-gradient-59" x1="11864.94225" y1="634.19904" x2="11840.30843" y2="649.87511" xlink:href="#linear-gradient-57"/>
    <linearGradient id="linear-gradient-60" x1="11799.55291" y1="627.54241" x2="11832.2487" y2="641.12834" xlink:href="#linear-gradient-57"/>
    <linearGradient id="linear-gradient-61" x1="11811.52311" y1="586.89584" x2="11827.94566" y2="616.60572" xlink:href="#linear-gradient-57"/>
    <linearGradient id="linear-gradient-62" x1="11886.61581" y1="593.63181" x2="11845.26085" y2="630.80648" xlink:href="#linear-gradient-57"/>
    <linearGradient id="linear-gradient-63" x1="11863.57828" y1="573.70416" x2="11844.02052" y2="607.89291" xlink:href="#linear-gradient-57"/>
    <linearGradient id="linear-gradient-64" x1="795.59389" y1="176.65104" x2="859.67899" y2="195.79997" xlink:href="#linear-gradient-3"/>
    <linearGradient id="linear-gradient-65" x1="794.44989" y1="180.4796" x2="858.535" y2="199.62854" xlink:href="#linear-gradient-3"/>
    <linearGradient id="linear-gradient-66" x1="793.3059" y1="184.30817" x2="857.39101" y2="203.4571" xlink:href="#linear-gradient-3"/>
    <linearGradient id="linear-gradient-67" x1="641.81973" y1="329.72745" x2="677.89884" y2="343.94316" xlink:href="#linear-gradient-3"/>
    <linearGradient id="linear-gradient-68" x1="692.49261" y1="329.72745" x2="728.57171" y2="343.94316" xlink:href="#linear-gradient-3"/>
    <linearGradient id="linear-gradient-69" x1="651.62975" y1="293.661" x2="856.39571" y2="374.34185" xlink:href="#linear-gradient-3"/>
    <linearGradient id="linear-gradient-70" x1="658.43942" y1="276.37824" x2="863.20537" y2="357.05909" xlink:href="#linear-gradient-3"/>
    <linearGradient id="linear-gradient-71" x1="641.81973" y1="398.15298" x2="677.89884" y2="412.36869" xlink:href="#linear-gradient-3"/>
    <linearGradient id="linear-gradient-72" x1="691.64786" y1="405.26083" x2="729.41646" y2="405.26083" xlink:href="#linear-gradient-3"/>
    <linearGradient id="linear-gradient-73" x1="741.82074" y1="405.26083" x2="780.58934" y2="405.26083" xlink:href="#linear-gradient-3"/>
    <linearGradient id="linear-gradient-74" x1="658.43942" y1="344.80377" x2="863.20537" y2="425.48462" xlink:href="#linear-gradient-3"/>
    <linearGradient id="linear-gradient-75" x1="640.97498" y1="287.59575" x2="741.25532" y2="287.59575" xlink:href="#linear-gradient-3"/>
    <linearGradient id="linear-gradient-76" x1="738.23404" y1="242.61645" x2="783.55319" y2="242.61645" xlink:href="#linear-gradient-3"/>
  </defs>
  <g class="cls-2">
    <g>
      <g>
        <path class="cls-3" d="M1661.16249,1089.206v485.12489a65.42927,65.42927,0,0,1-32.65135-8.81223L931.09375,1162.88412a32.47616,32.47616,0,0,1-16.40806-27.98222V940.1446Z"/>
        <g>
          <path class="cls-4" d="M1834.21394,724.12172l-173.06066,730.16849a65.49044,65.49044,0,0,1-32.61843-8.81222L931.11726,1042.84348a32.59125,32.59125,0,0,1-16.44078-28.50844v-126.265Z"/>
          <path class="cls-5" d="M1667.4102,1175.03347l-6.25692,209.21708a65.49055,65.49055,0,0,1-32.61843-8.81223L931.11726,972.80381a32.59125,32.59125,0,0,1-16.44078-28.50844v-126.265Z"/>
          <path class="cls-6" d="M931.10866,847.86677l697.41647,402.63507a65.7631,65.7631,0,0,0,65.76955-.005L2824.20619,597.33593c21.91692-12.65764,21.91573-44.29336-.00214-56.94935l-697.2044-402.58531a65.76307,65.76307,0,0,0-65.76642-.0019L931.10808,790.914C909.18681,803.57021,909.18713,835.211,931.10866,847.86677Z"/>
        </g>
      </g>
      <path class="cls-7" d="M1599.33955,389.77816l15.63369-9.199a166.63688,166.63688,0,0,1,118.75236-19.57083c216.5601,45.50011,489.60187,182.525,562.91187,363.11335,53.641,132.13655,59.44529,219.96809,57.23867,264.25405a85.88928,85.88928,0,0,1-24.01262,55.21177c-159.907,166.53955-469.84431,337.16494-642.58022,379.356a83.88625,83.88625,0,0,1-43.27592-.858c-295.50335-85.73423-611.45848-278.58562-740.22686-405.83608a85.43316,85.43316,0,0,1-23.54667-78.42175c8.89869-42.245,24.57708-104.82759,45.09676-139.31931C958.24624,743.18014,1599.33955,389.77816,1599.33955,389.77816Z"/>
    </g>
  </g>
  <g>
    <g>
      <polygon class="cls-8" points="460.39 81.236 867.036 316.004 867.036 711.22 460.39 476.43 460.39 81.236"/>
      <polygon class="cls-9" points="460.406 81.236 53.759 316.004 53.759 711.22 460.406 476.43 460.406 81.236"/>
    </g>
    <path class="cls-10" d="M60.7764,723.3864,439.357,941.95037a42.10144,42.10144,0,0,0,42.10111-.00062L860.01929,723.38232a14.03381,14.03381,0,0,0,.00017-24.307L481.4417,480.49136a42.10142,42.10142,0,0,0-42.10407.00053L60.77558,699.07933A14.03382,14.03382,0,0,0,60.7764,723.3864Z"/>
  </g>
  <g>
    <g>
      <g>
        <g>
          <path class="cls-11" d="M76.76653,673.81051,439.63887,464.3159a6.89294,6.89294,0,0,0,3.4466-5.96954V128.95366L76.76653,340.45846Z"/>
          <path class="cls-12" d="M431.60273,455.688,88.25366,653.91763,76.78842,647.3004V340.47628L420.13749,142.23519l11.46524,6.61724Z"/>
          <polygon class="cls-13" points="183.53 292.081 183.53 585.679 88.254 640.683 88.255 634.042 177.785 582.366 177.785 295.398 183.53 292.081"/>
          <polygon class="cls-14" points="301.806 223.791 301.788 517.402 206.516 572.409 206.516 565.768 296.044 514.094 296.044 227.098 301.806 223.791"/>
          <polygon class="cls-15" points="420.137 155.469 420.099 449.105 324.793 504.126 324.793 497.485 414.321 445.811 414.321 158.827 420.137 155.469"/>
          <polygon class="cls-16" points="431.603 148.852 431.597 455.693 88.255 653.913 88.254 640.683 420.137 449.082 420.137 155.469 431.603 148.852"/>
          <path class="cls-17" d="M76.76644,340.45845v333.352L439.63881,464.316a6.893,6.893,0,0,0,3.44659-5.96954V128.95364Zm236.5383-123.30654V523.98612L206.51626,585.6376V278.80935ZM88.25468,347.09105,195.028,285.44244V592.27006L88.25468,653.91263ZM431.59716,455.69321,324.793,517.35366V210.51882l106.80418-61.66648Z"/>
        </g>
        <polygon class="cls-18" points="195.028 592.27 183.53 585.679 183.53 292.081 195.028 285.442 195.028 592.27"/>
        <polygon class="cls-19" points="313.305 523.986 301.806 517.396 301.806 223.791 313.305 217.152 313.305 523.986"/>
      </g>
      <polygon class="cls-20" points="431.597 455.69 420.099 449.105 420.137 155.469 431.597 148.856 431.597 455.69"/>
    </g>
    <g>
      <circle class="cls-21" cx="448.88261" cy="149.84663" r="8.05748"/>
      <path class="cls-22" d="M447.87853,155.5408,93.29275,360.30373l-3.92587-6.79981,354.599-204.77053.00179.0031a1.97732,1.97732,0,0,1,1.95074.20783,6.13756,6.13756,0,0,1,2.78518,4.8041A1.92628,1.92628,0,0,1,447.87853,155.5408Z"/>
      <path class="cls-9" d="M440.12677,159.995a9.57912,9.57912,0,0,0-1.25888-3.74259,9.24874,9.24874,0,0,0-2.7217-3.02821,6.14468,6.14468,0,0,0-3.47055-1.15672,4.98415,4.98415,0,0,0-2.433.62924,5.5026,5.5026,0,0,0-2.51777,5.39314l4.219-2.43283a1.34346,1.34346,0,0,1,.73182-.18711c1.05454,0,2.36451.95257,3.24917,2.48371.93576,1.61607,1.072,3.33432.42531,4.219a1.34258,1.34258,0,0,1-.42531.39125,1.17713,1.17713,0,0,1-.52747.15326l-3.75963,2.1776a6.00566,6.00566,0,0,0,3.5557,1.25889,4.77292,4.77292,0,0,0,2.43262-.64668,5.29881,5.29881,0,0,0,2.5348-4.78031C440.16083,160.48845,440.1438,160.23344,440.12677,159.995Z"/>
      <path class="cls-9" d="M418.82813,172.30533a9.579,9.579,0,0,0-1.25888-3.7426,9.24874,9.24874,0,0,0-2.7217-3.02821,6.14466,6.14466,0,0,0-3.47054-1.15671,4.98425,4.98425,0,0,0-2.433.62923,5.50259,5.50259,0,0,0-2.51777,5.39314l4.219-2.43283a1.3436,1.3436,0,0,1,.73183-.18711c1.05453,0,2.3645.95257,3.24917,2.48371.93575,1.61607,1.072,3.33432.4253,4.219a1.34243,1.34243,0,0,1-.4253.39125,1.17714,1.17714,0,0,1-.52748.15326l-3.75962,2.17761a6.00564,6.00564,0,0,0,3.55569,1.25888,4.77283,4.77283,0,0,0,2.43263-.64668,5.2988,5.2988,0,0,0,2.53479-4.78031C418.86219,172.79875,418.84516,172.54373,418.82813,172.30533Z"/>
      <path class="cls-9" d="M390.05224,188.93743a9.579,9.579,0,0,0-1.25889-3.74259,9.24872,9.24872,0,0,0-2.72169-3.02821,6.14468,6.14468,0,0,0-3.47055-1.15672,4.98415,4.98415,0,0,0-2.433.62924,5.5026,5.5026,0,0,0-2.51777,5.39314l4.219-2.43283a1.34346,1.34346,0,0,1,.73182-.18711c1.05454,0,2.36451.95257,3.24917,2.48371.93575,1.61607,1.072,3.33432.42531,4.219a1.34268,1.34268,0,0,1-.42531.39125,1.17713,1.17713,0,0,1-.52747.15326l-3.75963,2.1776a6.00566,6.00566,0,0,0,3.5557,1.25889,4.77292,4.77292,0,0,0,2.43262-.64668,5.29882,5.29882,0,0,0,2.53479-4.78031C390.08629,189.43085,390.06927,189.17584,390.05224,188.93743Z"/>
      <path class="cls-9" d="M99.06207,356.97152a9.579,9.579,0,0,0-1.25889-3.7426,9.24861,9.24861,0,0,0-2.72169-3.02821,6.14467,6.14467,0,0,0-3.47055-1.15671,4.98425,4.98425,0,0,0-2.433.62923,5.50261,5.50261,0,0,0-2.51777,5.39314l4.219-2.43283a1.34355,1.34355,0,0,1,.73182-.18711c1.05454,0,2.36451.95257,3.24917,2.48371.93576,1.61607,1.072,3.33432.42531,4.219a1.34266,1.34266,0,0,1-.42531.39124,1.177,1.177,0,0,1-.52747.15326L90.573,361.87124a6.00565,6.00565,0,0,0,3.5557,1.25888,4.77282,4.77282,0,0,0,2.43262-.64668,5.29881,5.29881,0,0,0,2.5348-4.78031C99.09613,357.46494,99.0791,357.20992,99.06207,356.97152Z"/>
      <circle class="cls-23" cx="86.502" cy="359.09044" r="8.05748"/>
    </g>
    <path class="cls-24" d="M94.3418,365.189a19.50147,19.50147,0,0,0,11.1846,1.41165c10.92108-1.95738,12.81319-14.46228,12.81319-14.46228s6.22035,3.82178,11.00838,1.83379c8.76328-3.63851,10.06814-15.05874,10.06814-15.05874-6.63915,58.87077-19.14305,118.406-36.05133,178.44022,8.66822,40.02479,13.93349,85.9132,17.37413,134.9456,1.15827,12.95821-11.56466,18.6229-20.63176,15.41956,1.14015,9.06711-15.41956,11.23887-15.41956,5.21226V524.27363Z"/>
    <path class="cls-25" d="M94.6133,523.87546l35.5536-170.30753c-.27205.13582-.5308.28451-.819.40413-4.788,1.98821-11.008-1.8336-11.008-1.8336s-.01122.33809-.08972.88654Z"/>
    <circle class="cls-9" cx="96.14137" cy="363.68055" r="2.71471"/>
    <path class="cls-9" d="M120.81651,344.39936a9.579,9.579,0,0,0-1.25889-3.74259,9.24875,9.24875,0,0,0-2.72169-3.02822,6.14474,6.14474,0,0,0-3.47055-1.15671,4.98415,4.98415,0,0,0-2.433.62924,5.5026,5.5026,0,0,0-2.51777,5.39314l4.219-2.43283a1.34346,1.34346,0,0,1,.73182-.18711c1.05454,0,2.36451.95257,3.24917,2.48371.93576,1.61607,1.072,3.33431.42531,4.219a1.34268,1.34268,0,0,1-.42531.39125,1.17713,1.17713,0,0,1-.52747.15326l-3.75963,2.1776a6.00566,6.00566,0,0,0,3.5557,1.25889,4.77292,4.77292,0,0,0,2.43262-.64668,5.29882,5.29882,0,0,0,2.5348-4.78031C120.85057,344.89278,120.83354,344.63777,120.81651,344.39936Z"/>
    <circle class="cls-9" cx="117.89581" cy="351.10839" r="2.71471"/>
    <path class="cls-9" d="M141.77081,332.2973a9.579,9.579,0,0,0-1.25888-3.74259,9.24874,9.24874,0,0,0-2.7217-3.02821,6.14467,6.14467,0,0,0-3.47055-1.15671,4.98413,4.98413,0,0,0-2.433.62923,5.50258,5.50258,0,0,0-2.51777,5.39314l4.219-2.43283a1.34348,1.34348,0,0,1,.73182-.18711c1.05454,0,2.36451.95257,3.24918,2.48371.93575,1.61607,1.072,3.33432.4253,4.219a1.34254,1.34254,0,0,1-.4253.39125,1.17714,1.17714,0,0,1-.52748.15326l-3.75962,2.1776a6.00559,6.00559,0,0,0,3.55569,1.25889,4.77293,4.77293,0,0,0,2.43263-.64668,5.2988,5.2988,0,0,0,2.53479-4.78031C141.80487,332.79072,141.78784,332.53571,141.77081,332.2973Z"/>
    <circle class="cls-9" cx="138.6866" cy="338.54643" r="2.71471"/>
    <path class="cls-26" d="M440.82513,461.59993V316.24967l-5.54048-148.399c.59173,15.84928-12.58092,18.06812-19.802,14.26751.21718,15.09377-18.14177,18.4484-28.35111,14.57546,7.73958,44.64728,16.8972,90.88048,33.70243,127.19393-7.69213,61.11754-10.32931,103.56149-10.32931,157.09556,0,7.203,19.003,3.87294,19.003-9.99016C436.1858,474.57639,440.826,468.44115,440.82513,461.59993Z"/>
    <circle class="cls-9" cx="435.63636" cy="167.74206" r="2.71471"/>
    <circle class="cls-9" cx="387.13154" cy="195.64646" r="2.71471"/>
    <path class="cls-25" d="M437.38427,470.44807l-5.17519-141.8868L429.50763,470.993C432.6945,472.703,435.40851,472.185,437.38427,470.44807Z"/>
    <path class="cls-25" d="M426.53429,183.07508a14.77523,14.77523,0,0,1-11.05166-.95691l16.72645,144.44845Z"/>
    <circle class="cls-9" cx="415.34845" cy="180.12112" r="2.71471"/>
    <path class="cls-25" d="M93.95379,527.27788l6.15339,140.44092,3.08854.71583a16.978,16.978,0,0,0,7.48186-.69974Z"/>
    <path class="cls-27" d="M83.5546,523.55888c6.23664,4.642,18.6157,1.98161,22.11744-5.832"/>
    <path class="cls-27" d="M418.85,324.68835c6.23664,4.642,20.77656,2.53373,24.23544-6.11714"/>
  </g>
  <g>
    <path class="cls-28" d="M433.22622,520.36531l121.295,70.02113a8.4337,8.4337,0,0,1,.00288,14.60641L232.84851,790.80969a25.30024,25.30024,0,0,1-25.30691.00192l-106.874-61.71295a25.29584,25.29584,0,0,1-12.4618-24.95735l10.549-86.81356Z"/>
    <g>
      <g>
        <path class="cls-29" d="M579.147,481.09123l-3.95752,15.34431-28.574,110.72422a.58888.58888,0,0,1-.15713.01421c-.17144.01431-.34288.01431-.5001.01431a16.23409,16.23409,0,0,1-8.14352-2.18587l-2.75738-1.58584-.81437-.47149L417.96112,535.739l-1.243-.71435a8.55028,8.55028,0,0,1-4.2861-7.41495V441.21626c-.0286-8.88647,4.01464-20.13041,10.658-28.21681,4.21468-5.14329,9.47229-9.00079,15.40143-10.18664a10.69374,10.69374,0,0,1,7.11489,1.11443h.0143c.11433.05712.2.14283.31436.21425V404.113l133.19764,76.97825Z"/>
        <path class="cls-30" d="M419.50549,436.27629v.03209c-.12871-.0804-.22524-.17693-.35386-.2412h-.01613a11.54224,11.54224,0,0,0-6.05907-1.44352,35.64353,35.64353,0,0,0-.64441,6.59256v86.39343a8.55028,8.55028,0,0,0,4.2861,7.41495l1.243.71435L534.243,602.945l.81437.47149,2.75738,1.58584a16.234,16.234,0,0,0,8.14352,2.18586c.15722,0,.32866,0,.5001-.0143a.589.589,0,0,0,.15713-.01421L568.494,522.38047Z"/>
        <path class="cls-31" d="M575.34663,518.42316v69.40625c0,.18574,0,.38578-.0143.57152a8.59841,8.59841,0,0,1-4.2718,6.85774l-11.77247,6.772-5.15758,2.97172-.08572.04282a16.16506,16.16506,0,0,1-7.42926,2.11453.58888.58888,0,0,1-.15713.01421c-.17144.01431-.34288.01431-.5001.01431V518.38035c-.04281-10.58672,5.70059-24.51654,14.74419-32.47432a29.1387,29.1387,0,0,1,3.28608-2.52883,22.7175,22.7175,0,0,1,8.02929-3.40031,10.69423,10.69423,0,0,1,7.11489,1.11434h.0143c3.91463,2.27167,5.429,6.95785,5.64338,11.28676C585.29041,500.5073,581.24717,511.10823,575.34663,518.42316Z"/>
      </g>
      <g>
        <path class="cls-32" d="M535.31271,594.75608,244.74105,762.73491,109.85,675.55682l53.703-30.987L400.52532,507.31307l130.27184,15.26307a20.9698,20.9698,0,0,1,1.509,2.26927,22.23569,22.23569,0,0,1,2.98353,11.13922Z"/>
        <path class="cls-33" d="M532.30619,524.84541l-287.59966,166.585L163.553,644.56986l-43.26289-33.66857L410.977,442.65754l111.08849,72.8342,2.11958,1.221.01153.01153a22.08887,22.08887,0,0,1,6.60054,5.85182A20.9698,20.9698,0,0,1,532.30619,524.84541Z"/>
        <path class="cls-34" d="M311.57287,560.84661l71.50823,41.60766a15.72767,15.72767,0,0,1,7.87485,13.21385l.55587,32.426,6.39632-3.68919.00052-29.79321a20.92642,20.92642,0,0,0-10.23656-17.99064L319.31881,556.005Z"/>
        <g>
          <path class="cls-35" d="M434.20012,380.10129l-.70132-.80243c-5.15276-5.89612-19.31947-13.30463-28.401-14.40745-8.39444-1.01938-12.58131.66992-19.42524,4.35913L289.488,424.88248a36.19972,36.19972,0,0,0-17.08877,39.881l21.87252,90.439Z"/>
          <path class="cls-36" d="M348.70054,496.90965,274.085,445.19409a36.12161,36.12161,0,0,0-.98441,20.37179l22.152,94.91806,29.99787-.9541,34.41253-52.854A36.11721,36.11721,0,0,0,348.70054,496.90965Z"/>
          <path class="cls-37" d="M325.25051,559.5299,303.378,469.09085a36.19966,36.19966,0,0,1,17.08877-39.881l89.873-52.07264a19.85683,19.85683,0,0,1,29.2224,12.52162l20.68565,85.53041a7.52645,7.52645,0,0,1-3.54624,8.28386Z"/>
          <path class="cls-38" d="M325.25048,559.52984,457.11614,483.2332a6.882,6.882,0,0,0,3.2418-7.57782l-1.05055-4.33453-.22741-.9602L322.762,549.26254Z"/>
        </g>
        <g>
          <path class="cls-39" d="M289.36217,463.69643l-.70132-.80243c-5.15276-5.89612-19.31947-13.30463-28.401-14.40745-8.39445-1.01938-12.58131.66992-19.42524,4.35914L135.085,514.02368a36.19973,36.19973,0,0,0-17.08877,39.881l21.87252,90.439Z"/>
          <path class="cls-40" d="M173.21708,590.71109l-51.93224-29.982c-.35011-.21678-1.11713-.60037-1.11713-.60037-.238-.11049-.48579-.19481-.73179-.28376l20.13225,83.25848Z"/>
          <path class="cls-41" d="M170.14611,647.86867l-21.87252-90.439a36.19967,36.19967,0,0,1,17.08878-39.881l99.43807-57.6187a19.85685,19.85685,0,0,1,29.22241,12.52163l22.00785,90.99741Z"/>
          <polygon class="cls-42" points="170.146 647.869 316.031 563.449 313.535 553.151 167.656 637.595 170.146 647.869"/>
        </g>
        <polygon class="cls-43" points="535.29 603.417 262.763 761.118 262.763 722.625 535.29 564.924 535.29 603.417"/>
        <polygon class="cls-44" points="535.29 574.187 262.763 731.888 262.763 716.255 535.29 558.553 535.29 574.187"/>
      </g>
      <g>
        <path class="cls-45" d="M261.7385,665.48944,237.96492,785.686c-.17144.0143-.34288.0143-.5.0143a16.2338,16.2338,0,0,1-8.14361-2.18595l-2.75738-1.58584-116.2424-67.10441a8.5562,8.5562,0,0,1-4.2861-7.42925V639.13157s-3.72888-2.186-3.8003-2.22876c-7.58639-4.38612-7.57209-18.6017.0143-31.76,7.35775-12.74406,19.13031-19.78754,26.75952-16.24439,0,0,.65723.32866.9572.51439l130.48658,75.33365Z"/>
        <polygon class="cls-46" points="241.593 727.87 240.14 716.521 106.033 639.174 106.033 649.684 241.593 727.87"/>
        <path class="cls-47" d="M266.85327,677.64769V766.3413a8.5562,8.5562,0,0,1-4.2861,7.42925l-11.77247,6.772-5.15759,2.97172-.08572.0429a16.23772,16.23772,0,0,1-7.58647,2.12875c-.17144.0143-.34288.0143-.5.0143v-71.735a9.46747,9.46747,0,0,1-3.80031-1.18585c-7.58639-4.38611-7.57218-18.60161.01422-31.76,7.35783-12.744,19.14461-19.81606,26.7739-16.27291.24286.11432.48571.22864.72856.37147a6.287,6.287,0,0,1,.55722.37148C265.13881,667.761,266.85327,672.21856,266.85327,677.64769Z"/>
      </g>
    </g>
  </g>
  <g>
    <g>
      <g>
        <g>
          <path class="cls-48" d="M426.7757,662.90542s-6.9034,16.43275-4.15932,21.239,8.65219,5.14243,16.21886,8.10943,13.95047,7.53692,26.85591,6.10841,13.82374-9.47932,10.12913-15.01673l-8.73243-.3596-10.87526-4.634-12.32951-11.3088Z"/>
          <path class="cls-49" d="M427.02271,660.08768s-6.69879,15.94569-4.036,20.60948,8.39575,4.99,15.73815,7.86908,13.537,7.31352,26.05992,5.92735,14.5629-12.008,6.13175-14.00082l-4.77644-.91976-9.314-6.533-7.64194-11.21276Z"/>
          <path class="cls-48" d="M473.16647,680.97622c8.64894,4.70213.6383,17.2766-22.37037,13.46629l-11.20347-4.05774c.32362-12.43923,12.17948-21.2879,17.76209-18.5894Z"/>
        </g>
        <path class="cls-50" d="M446.15126,546.01119l-60.85106-9.10638-10.967,55.60873,47.32745,5.75893.311,63.725c0,17.3617,30.131,15.06392,33.45014,2.80851l17.11245-71.13524C479.03881,567.52941,471.17254,549.075,446.15126,546.01119Z"/>
        <g>
          <path class="cls-48" d="M372.56371,700.51259s-1.95258,9.37144-1.45805,13.92153c.62491,5.74977,1.92253,8.78768,1.9442,12.55959.05833,10.14876,2.3379,19.13357,9.62383,23.27216,14.81855,8.41731,24.30129-3.6939,21.76362-11.918l-4.99985-10.39524L391.00673,700.429Z"/>
          <path class="cls-49" d="M372.56371,696.0798s-1.26131,12.04873-.69286,16.59018c.7124,5.69144,2.25215,10.376,2.77326,14.16819s.15554,12.05409,7.38314,16.83427c14.21466,9.40127,25.86282.27476,21.35226-8.6686l-3.942-11.484-8.43073-27.52368Z"/>
          <path class="cls-48" d="M402.91115,731.572c8.70964,24.25261-18.55319,20.55319-27.99489,5.22057L373.672,725.28281c4.1328-11.86067,20.92-12.54063,24.56057-5.69655Z"/>
        </g>
        <path class="cls-48" d="M409.24313,611.03247c-6.08331-17.51616-31.05409-39.9088-31.05409-39.9088l14.60417-33.52036-13.1884-6.77432-72.94287,10.58643s-13.1966,48.91379,12.33532,67.97762l43.48836,30.00871,5.3107,61.02722c1.58292,13.73874,28.64675,12.12172,31.08747.56019C398.88379,700.98916,415.32643,628.54864,409.24313,611.03247Z"/>
        <path class="cls-51" d="M306.37635,539.26385l-1.9802,13.96682s2.029,11.65295,22.58222,18.40445,43.73726-1.663,54.99629-9.20042a52.62436,52.62436,0,0,0,12.88382-12.629,16.33449,16.33449,0,0,0,2.803-12.848l-.598-2.98719Z"/>
        <path class="cls-52" d="M449.84233,503.87557s-22.8649-46.908-27.77617-54.758l-22.67889-11.87234.76717,33.79185,31.29035,42.11771Z"/>
        <path class="cls-53" d="M441.57892,484.18988s-10.61561-21.494-18.55778-34.17869c-9.76924-15.60272-27.2047-14.9379-27.2047-14.9379l.62376,44.93711,17.67261,27.37221C422.78912,516.5741,446.05427,496.89707,441.57892,484.18988Z"/>
        <path class="cls-25" d="M414.11281,507.38262a7.26652,7.26652,0,0,0,2.6607,1.79419l5.31836-24.666-12.306,16.16992Z"/>
        <path class="cls-54" d="M447.37684,575.98263l-38.78321-3.48353a4.44488,4.44488,0,0,1-2.27849-7.976l13.79508-10.40228a4.44491,4.44491,0,0,1,3.07377-.87808l38.78322,3.48354a4.44487,4.44487,0,0,1,2.27849,7.976l-13.79508,10.40229A4.4449,4.4449,0,0,1,447.37684,575.98263Z"/>
        <path class="cls-55" d="M306.74094,532.89112c4.42466-23.1444,7.50194-36.52515,21.46883-58.10326,10.35647-16.00019,28.37678-30.09939,43.94149-36.07454,15.74832-6.04563,29.016-3.854,35.02128-.64121,0,0,14.94647,10.10381,16.55319,24.96036.88075,8.14392.37966,20.069-4.97872,29.617s-19.53192,29.8207-19.53192,29.8207c-.51223,34.30836-50.13625,52.58725-82.25532,31.09062C310.747,549.40274,304.52817,544.46558,306.74094,532.89112Z"/>
        <path class="cls-56" d="M320.902,555.94683c19.04968,10.46045,42.91791,8.30859,59.26831-2.06811l-8.57831-6.179-6.89935-58.62744-39.94592,11.647Z"/>
        <path class="cls-49" d="M361.13078,551.74958l-.49352-67.87144-30.6369,1.85888s.6981,58.1005,2.13241,68.24938c1.50179,10.62627,3.47561,21.06969,17.71455,22.01406s59.59626-2.44376,59.59626-2.44376l1.11311-12.90189Z"/>
        <polygon class="cls-57" points="443.956 571.635 404.153 568.06 422.817 553.986 462.62 557.562 443.956 571.635"/>
        <polygon class="cls-58" points="462.62 557.562 444.368 363.817 301.329 466.487 413.654 565.709 462.62 557.562"/>
        <path class="cls-49" d="M406.42188,559.78755l7.81712-1.84409a18.76152,18.76152,0,0,1,5.07072-.48569l11.6701.47509c2.74012.1686,2.88667,4.03391-.58007,4.87533l-6.12254,1.14634,3.66173,6.568,3.56856,3.90837,7.07888,1.78907s-7.77311,4.5083-13.082,3.98356c-7.22523-.71416-20.83729-5.93125-20.83729-5.93125C400.21692,573.17076,400.68834,560.98917,406.42188,559.78755Z"/>
        <path class="cls-59" d="M364.86513,540.7346l-.1725-51.6623c.60867-34.12687-34.51838-26.04847-38.37115-3.06111-2.5498,13.01717-2.02738,27.63639-.51845,54.01936C326.52266,553.69508,364.269,555.85957,364.86513,540.7346Z"/>
      </g>
      <path class="cls-49" d="M426.81754,447.22887l2.22276,60.512c1.73733,13.08106,26.46645,15.58486,23.605-7.61358-2.168-17.57622-14.18535-57.71349-14.18535-57.71349Z"/>
    </g>
    <g>
      <g>
        <path class="cls-51" d="M403.67778,456.32992c1.71758,12.94927-2.27664,26.2744-6.60311,35.43822-10.84056-5.9791-22.26012-17.99259-28.83063-29.60075Z"/>
        <path class="cls-60" d="M400.845,458.01616c.147,8.82936-1.5573,19.30165-5.06,26.72066-10.35413-5.60768-17.906-16.21208-23.04728-23.61518Z"/>
      </g>
      <polygon class="cls-61" points="406.085 460.029 399.995 461.429 392.576 470.024 380.424 466.761 372.341 471.109 374.709 459.6 396.658 452.857 406.085 460.029"/>
      <path class="cls-49" d="M392.17922,467.14171l-8.30076-7.8899-12.99555-13.4992a12.0765,12.0765,0,0,1,12.78417-5.65818c7.577,1.50666,11.87588,10.90692,11.87588,10.90692Z"/>
      <path class="cls-62" d="M392.17922,467.14169c1.44132-6.397,2.61218-12.524,1.03372-17.71989l-6.10893-8.95521-.4289-5.09c11.67057,4.95321,17.99441,19.11872,19.82406,23.84362a.61381.61381,0,0,1-.87386.75422l-4.82854-2.68579a1.84548,1.84548,0,0,0-2.43191.58806l-6.18564,9.265Z"/>
      <path class="cls-63" d="M393.84949,453.41684c-1.76444,9.15378-16.69928,3.8996-21.368-5.46795,1.4496-5.8997,3.41469-12.25646,5.70671-18.9025l18.90725,7.54877Z"/>
      <path class="cls-62" d="M365.14758,451.9955c.39869,6.32947,3.98513,15.01915,5.60827,18.67012a1.0734,1.0734,0,0,0,1.86536.1718l5.10141-7.384a2.09681,2.09681,0,0,1,2.45583-.77351l12.00077,4.46176h0s-8.37147-8.13756-11.78245-11.50652c-9.78015-9.65968-4.45126-19.10549-4.45126-19.10549s-1.12842-.65916-3.60214,1.38251S364.68745,444.69073,365.14758,451.9955Z"/>
      <g>
        <path class="cls-49" d="M394.61352,455.851c-10.47092-3.8408-15.46363-10.36431-14.797-20.58607l1.47728-22.0968c.34691-8.9306,9.31649-16.3039,19.62793-14.99917,9.01207,1.14031,17.48241,7.166,16.1131,19.7484a203.40533,203.40533,0,0,1-4.36828,21.87076C410.0151,449.36006,404.12931,459.34149,394.61352,455.851Z"/>
        <path class="cls-64" d="M413.08276,407.67519c-2.03947.22325-1.23284,1.999-4.93829,2.598-3.13513.50678-8.90948-2.07546-12.86572-2.84441-4.63394-.90066-9.29617,1.76269-9.32516,6.04819-.02015,2.9786,1.61582,3.03475,2.60143,5.37361.68121,1.6165-1.25414,4.5501-1.25414,4.5501l-3.127,5.96945-4.34348,7.42014s-6.69986.7207-6.33751-7.37025c.12539-2.8-2.3507-3.72984-2.9253-6.56116-.80921-3.98734,1.36651-6.22328,1.69259-8.4626.38782-2.6634-.84848-6.56524.503-9.247,1.87221-3.71507,3.93781-3.85217,6.79308-5.59213,2.37163-1.44525,2.86458-3.38021,5.499-4.4054,4.24177-1.6507,5.89249-.12532,8.88053-.578,2.99628-.454,3.90744-1.9711,7.77308-1.379,2.49032.38142,4.26763,2.492,6.53325,3.19008,2.7634.8515,6.81885.49457,9.59093,4.01894,2.45778,3.12477,1.10394,5.94673,1.74122,8.85964a15.96887,15.96887,0,0,1-.87769,10.0019,69.34779,69.34779,0,0,1-3.048,7.08578,78.53718,78.53718,0,0,0,1.37643-11.94744C417.106,409.91753,415.12223,407.45193,413.08276,407.67519Z"/>
        <path class="cls-65" d="M413.86739,435.03216s-1.176,10.07429-1.71324,12.76858-.93143,6.38747-4.23641,9.42076c-2.943,2.70109-12.032,3.50485-16.15559,1.278a17.27831,17.27831,0,0,1-9.51029-12.9332,26.69159,26.69159,0,0,1-.44959-6.885l.66625-3.0465,1.52153-8.2737,3.31072-3.9605c-2.16394,3.62172-1.50708,12.02472-.91554,15.17163.67559,3.594,1.96022,9.58263,6.16564,10.42375s2.50588-3.70931,11.3098-4.99082c5.03995-.73363,3.899,3.05537,5.3578,2.48153C411.47964,445.59725,413.86739,435.03216,413.86739,435.03216Z"/>
        <g>
          <path class="cls-66" d="M407.27188,433.82592a6.662,6.662,0,0,0-6.46261.52722"/>
          <line class="cls-66" x1="391.56495" y1="434.22299" x2="380.88026" y2="426.53557"/>
          <path class="cls-63" d="M434.38479,445.34935l-7.56725,1.16494a30.24577,30.24577,0,0,1-8.09038-4.10051,32.10336,32.10336,0,0,1-6.59986-7.51682l1.52065-2.71484,5.7134,3.7653,8.28086-10.04084Z"/>
          <path class="cls-67" d="M407.50143,436.54589l7.53119-1.275a2.85081,2.85081,0,0,0,2.1564-1.702l1.45135-3.50691a1.08845,1.08845,0,0,0-1.22307-1.48489l-7.53119,1.275a2.85079,2.85079,0,0,0-2.1564,1.702l-1.45135,3.5069A1.08845,1.08845,0,0,0,407.50143,436.54589Z"/>
          <path class="cls-67" d="M390.76286,438.26847l9.23535-1.004a2.75688,2.75688,0,0,0,2.28306-1.65389l1.49417-3.597a1.24006,1.24006,0,0,0-1.339-1.63928l-9.23535,1.004a2.7569,2.7569,0,0,0-2.28306,1.65389l-1.49416,3.597A1.24006,1.24006,0,0,0,390.76286,438.26847Z"/>
        </g>
        <path class="cls-49" d="M407.34318,449.41011s-.099-2.7568-2.41861-2.62064c-5.25.30817-6.19036,3.56375-6.19036,3.56375Z"/>
        <path class="cls-49" d="M380.47379,441.01894c-3.6825-.34842-6.29593-5.78354-5.90056-9.96226s4.34618-7.35317,7.33232-5.17023C385.65411,428.62674,384.15629,441.36736,380.47379,441.01894Z"/>
      </g>
    </g>
    <path class="cls-49" d="M432.33882,425.08665a44.09483,44.09483,0,0,0-8.7-1.839c-3.66708-.22-8.69466,2.86189-8.69466,2.86189a1.6835,1.6835,0,0,0,.93507,3.13531c2.29188.07334,6.45713-1.15011,8.859.59173Z"/>
    <path class="cls-49" d="M432.33877,425.08665s-8.03153.81923-9.55189,2.50211-2.20213,6.41489-2.20213,6.41489c-.8074,2.03279,4.31526,8.95029,5.40031,10.84944l1.22119,4.43164,11.87512-4.75532C436.3855,433.79248,436.18,426.91469,432.33877,425.08665Z"/>
  </g>
  <g>
    <g>
      <path class="cls-68" d="M735.86768,171.85192a191.74871,191.74871,0,1,1-74.88721,15.113,191.17954,191.17954,0,0,1,74.88721-15.113m0-17.54224c-115.95069,0-209.94727,93.99658-209.94727,209.94751,0,115.95068,93.99658,209.94726,209.94727,209.94726s209.94775-93.99658,209.94775-209.94726c0-115.95093-93.99707-209.94751-209.94775-209.94751Z"/>
      <circle class="cls-69" cx="735.86783" cy="364.25713" r="194.19259"/>
      <path class="cls-9" d="M930.0615,364.25533a194.17512,194.17512,0,1,1-71.04618-150.16185A193.7854,193.7854,0,0,1,930.0615,364.25533Z"/>
    </g>
    <path class="cls-70" d="M859.01532,171.308V514.41708a194.22451,194.22451,0,0,1-246.29344,0V171.308a31.54872,31.54872,0,0,1,31.55862-31.55851H827.45681A31.55986,31.55986,0,0,1,859.01532,171.308Z"/>
    <path class="cls-71" d="M850.09974,199.33618V517.60485a180.163,180.163,0,0,1-228.46228,0V199.33618a29.26466,29.26466,0,0,1,29.27384-29.27375H820.826A29.275,29.275,0,0,1,850.09974,199.33618Z"/>
    <g>
      <circle class="cls-68" cx="916.21747" cy="249.15712" r="62.02326"/>
      <g>
        <rect class="cls-57" x="895.16068" y="240.51489" width="13.46241" height="40.4658" transform="translate(79.78149 714.10513) rotate(-45)"/>
        <rect class="cls-57" x="921.37151" y="223.33402" width="13.46241" height="60.59444" transform="translate(1405.02606 1089.24333) rotate(-135)"/>
      </g>
    </g>
  </g>
  <g>
    <path class="cls-72" d="M333.17486,789.02991,630.85978,617.13574a30.43408,30.43408,0,0,1,30.4343-.00184l118.71714,68.53248a10.14469,10.14469,0,0,1,.0025,17.57025L482.37123,875.17113a30.43411,30.43411,0,0,1-30.4418.00249L333.17486,806.60038A10.1447,10.1447,0,0,1,333.17486,789.02991Z"/>
    <path class="cls-73" d="M386.104,784.94243,603.82411,659.22284a17.12182,17.12182,0,0,1,17.12194-.001L710.575,710.96238a5.70727,5.70727,0,0,1,.0014,9.88479l-217.69,125.74958a17.12178,17.12178,0,0,1-17.12614.0014L386.104,794.82733A5.70726,5.70726,0,0,1,386.104,784.94243Z"/>
    <g>
      <path class="cls-74" d="M494.19049,774.86545l-2.36445,64.345c0,2.171-3.06238,3.931-6.84,3.931s-6.83978-1.75993-6.83978-3.931l-2.37435-64.345Z"/>
      <path class="cls-75" d="M407.746,724.93292l-2.36446,64.345c0,2.171-3.06238,3.931-6.84,3.931s-6.83978-1.75994-6.83978-3.931l-2.37435-64.345Z"/>
      <path class="cls-76" d="M706.7639,652.13845l-2.36445,64.345c0,2.171-3.06238,3.931-6.84,3.931s-6.83978-1.75993-6.83978-3.931l-2.37435-64.345Z"/>
      <g>
        <g>
          <path class="cls-77" d="M389.11054,722.25676v14.30238a5.31839,5.31839,0,0,0,2.68239,4.78269l84.36488,48.71731a16.021,16.021,0,0,0,8.82341,2.13451V700.85451Z"/>
          <path class="cls-78" d="M484.98122,700.85451v91.33914a16.05744,16.05744,0,0,0,7.29391-2.13451L704.89371,667.273a5.31252,5.31252,0,0,0,2.671-4.77126h.01143V651.167Z"/>
        </g>
        <g>
          <path class="cls-79" d="M713.42891,636.92468l-.00593,10.165a5.65114,5.65114,0,0,1-2.84659,5.03678L492.88633,777.87608a17.12169,17.12169,0,0,1-17.12612.0014l-89.65629-51.77082a5.6493,5.6493,0,0,1-2.84974-4.88524l-.00355-10.09021Z"/>
          <path class="cls-80" d="M386.104,704.50143,603.82411,578.78184a17.12182,17.12182,0,0,1,17.12194-.001L710.575,630.52138a5.70727,5.70727,0,0,1,.0014,9.88479l-217.69,125.74959a17.1218,17.1218,0,0,1-17.12614.0014L386.104,714.38634A5.70727,5.70727,0,0,1,386.104,704.50143Z"/>
        </g>
      </g>
    </g>
  </g>
  <g>
    <g>
      <path class="cls-81" d="M788.59935,667.642l55.451.13226-7.01874,43.4045c-.59474,6.30027-9.64571,11.30754-20.75637,11.30754-11.1112,0-20.16162-5.00727-20.75636-11.30754Z"/>
      <ellipse class="cls-73" cx="816.33924" cy="665.69116" rx="27.94426" ry="16.05992"/>
      <path class="cls-82" d="M792.09494,673.67014c4.82258,4.84517,13.885,8.07533,24.24871,8.07533s19.42558-3.23016,24.24871-8.07533c-3.07339-6.01166-12.76346-10.40831-24.24871-10.40831S795.16833,667.65848,792.09494,673.67014Z"/>
      <path class="cls-83" d="M816.33919,653.449c14.218,0,24.1266,6.45182,24.1266,12.24215,0,5.79039-9.90858,12.2422-24.1266,12.2422s-24.1266-6.45181-24.1266-12.2422c0-5.79033,9.90858-12.24215,24.1266-12.24215m0-3.81774c-15.43318,0-27.94429,7.19023-27.94429,16.05989S800.906,681.7511,816.33919,681.7511s27.94429-7.19029,27.94429-16.05995-12.51112-16.05989-27.94429-16.05989Z"/>
    </g>
    <path class="cls-84" d="M825.337,628.33745c13.1008-2.01665,38.88564-10.51732,33.48925-20.24212S828.33409,609.60378,825.337,628.33745Z"/>
    <path class="cls-82" d="M819.58687,669.28412a1.03142,1.03142,0,0,0,1.03185-1.03153c0-27.84569,5.067-45.9994,16.9433-60.70212a1.03178,1.03178,0,0,0-1.60556-1.29631c-12.197,15.10024-17.40145,33.64136-17.40145,61.99843A1.03143,1.03143,0,0,0,819.58687,669.28412Z"/>
    <path class="cls-82" d="M814.95917,669.28412a1.03143,1.03143,0,0,0,1.03186-1.03153c0-26.22666,0-62.146-13.174-78.45561a1.03178,1.03178,0,0,0-1.60556,1.29631c12.71581,15.743,12.71581,51.23988,12.71581,77.1593A1.03143,1.03143,0,0,0,814.95917,669.28412Z"/>
    <path class="cls-82" d="M814.47406,641.13051a1.03187,1.03187,0,0,0,1.02748-.9473c1.71134-20.97405,6.25718-35.2294,14.30622-44.86143a1.03174,1.03174,0,0,0-1.58333-1.32325c-8.33572,9.975-13.03181,24.59751-14.77987,46.01624a1.03177,1.03177,0,0,0,.94461,1.11237C814.4178,641.12984,814.4461,641.13051,814.47406,641.13051Z"/>
    <path class="cls-85" d="M818.98909,613.972c12.41352-9.28868,32.56114-33.74365,21.641-40.81312S811.77694,592.9859,818.98909,613.972Z"/>
    <path class="cls-86" d="M814.473,650.97266c-10.38638-1.37081-30.34427-9.12322-26.24544-16.89938S811.78623,636.22048,814.473,650.97266Z"/>
    <path class="cls-82" d="M814.91706,657.53245c.02459,0,.04952-.00068.07445-.0027a1.03132,1.03132,0,0,0,.95572-1.10226c-1.28418-17.96842-9.29178-36.9367-22.112-38.42436a1.03166,1.03166,0,1,0-.23784,2.04957c11.70518,1.3583,19.068,19.40083,20.29153,36.52167A1.03146,1.03146,0,0,0,814.91706,657.53245Z"/>
    <path class="cls-82" d="M820.02178,655.88444a1.03256,1.03256,0,0,0,1.02377-.915c1.3364-11.66475,12.07136-19.94994,17.52138-21.79267a1.032,1.032,0,0,0-.66095-1.95524c-5.88257,1.9896-17.46883,10.929-18.91067,23.51344a1.0315,1.0315,0,0,0,.90755,1.142A1.01652,1.01652,0,0,0,820.02178,655.88444Z"/>
    <path class="cls-87" d="M825.337,641.64887c10.96146-.11708,33.43358-3.7067,30.1543-12.3S829.98407,626.66293,825.337,641.64887Z"/>
    <path class="cls-88" d="M829.28811,618c9.23058-7.47942,24.46608-26.44253,15.89544-31.53288S823.14529,602.1439,829.28811,618Z"/>
    <path class="cls-89" d="M808.48669,630.58243c-17.08455-4.57708-48.78844-21.93977-40.21852-34.05556S807.2312,605.29829,808.48669,630.58243Z"/>
    <path class="cls-90" d="M810.8464,610.08576c-11.6192-8.69431-31.08358-29.13672-20.86224-35.75381S817.59705,590.44256,810.8464,610.08576Z"/>
  </g>
  <path class="cls-91" d="M820.82593,170.06236H650.91138a29.27393,29.27393,0,0,0-29.27393,29.27393V448.10967A17.14557,17.14557,0,0,0,638.783,465.25524H832.95416a17.14557,17.14557,0,0,0,17.14557-17.14557V199.33629A29.275,29.275,0,0,0,820.82593,170.06236Z"/>
  <rect class="cls-71" x="713.71327" y="451.38298" width="44.31064" height="5.68085" rx="2.84042"/>
  <rect class="cls-92" x="638.74471" y="181.25533" width="19.91489" height="6.89362" rx="3"/>
  <rect class="cls-92" x="662.14898" y="181.25534" width="12.04253" height="6.89362" rx="3"/>
  <g>
    <circle class="cls-93" cx="826.16969" cy="185.78723" r="4.48988"/>
    <circle class="cls-94" cx="812.21277" cy="185.78723" r="4.48988"/>
    <circle class="cls-95" cx="798.25584" cy="185.78723" r="4.48988"/>
    <g>
      <circle class="cls-96" cx="659.85929" cy="336.8353" r="18.8843"/>
      <circle class="cls-97" cx="710.53216" cy="336.8353" r="18.8843"/>
      <circle class="cls-98" cx="761.20504" cy="336.8353" r="18.8843"/>
      <circle class="cls-99" cx="811.87792" cy="336.8353" r="18.8843"/>
    </g>
    <g>
      <circle class="cls-100" cx="659.85929" cy="405.26083" r="18.8843"/>
      <circle class="cls-101" cx="710.53216" cy="405.26083" r="18.8843"/>
      <circle class="cls-102" cx="761.20504" cy="405.26083" r="18.8843"/>
      <circle class="cls-103" cx="811.87792" cy="405.26083" r="18.8843"/>
    </g>
    <rect class="cls-71" x="640.97498" y="283.6383" width="189.78723" height="7.91489" rx="3.95744"/>
    <rect class="cls-104" x="640.97498" y="283.6383" width="100.28034" height="7.91489" rx="3.95744"/>
    <rect class="cls-92" x="649.90184" y="361.2766" width="19.91489" height="2.55319" rx="1.27659"/>
    <rect class="cls-92" x="700.57472" y="361.2766" width="19.91489" height="2.55319" rx="1.27659"/>
    <rect class="cls-92" x="751.24759" y="361.2766" width="19.91489" height="2.55319" rx="1.27659"/>
    <rect class="cls-92" x="801.92047" y="361.2766" width="19.91489" height="2.55319" rx="1.27659"/>
    <rect class="cls-92" x="649.90184" y="430.44681" width="19.91489" height="2.55319" rx="1.27659"/>
    <rect class="cls-92" x="700.57472" y="430.44681" width="19.91489" height="2.55319" rx="1.27659"/>
    <rect class="cls-92" x="751.24759" y="430.44681" width="19.91489" height="2.55319" rx="1.27659"/>
    <rect class="cls-92" x="801.92047" y="430.44681" width="19.91489" height="2.55319" rx="1.27659"/>
    <rect class="cls-71" x="686.10638" y="222.87234" width="97.44681" height="39.48821" rx="19.74409"/>
    <circle class="cls-105" cx="760.89362" cy="242.61645" r="22.65957"/>
    <path class="cls-71" d="M766.26245,229.21178A13.50037,13.50037,0,0,1,747.489,247.98522a14.44232,14.44232,0,1,0,18.77344-18.77344Z"/>
    <path class="cls-71" d="M758.07869,229.83211l1.19368,2.18256a.8377.8377,0,0,0,.333.333l2.18256,1.19368a.83765.83765,0,0,1,0,1.46983l-2.18256,1.19368a.83764.83764,0,0,0-.333.333l-1.19368,2.18256a.83764.83764,0,0,1-1.46982,0l-1.19368-2.18256a.83764.83764,0,0,0-.333-.333l-2.18256-1.19368a.83765.83765,0,0,1,0-1.46983l2.18256-1.19368a.8377.8377,0,0,0,.333-.333l1.19368-2.18256A.83764.83764,0,0,1,758.07869,229.83211Z"/>
    <path class="cls-71" d="M753.504,239.9016l.67487,1.23395a.47359.47359,0,0,0,.18825.18825l1.23394.67486a.47357.47357,0,0,1,0,.831l-1.23394.67486a.47362.47362,0,0,0-.18825.18826l-.67487,1.23394a.47357.47357,0,0,1-.831,0l-.67487-1.23394a.47362.47362,0,0,0-.18825-.18826l-1.23394-.67486a.47357.47357,0,0,1,0-.831l1.23394-.67486a.47359.47359,0,0,0,.18825-.18825l.67487-1.23395A.47357.47357,0,0,1,753.504,239.9016Z"/>
  </g>
</svg>
