<svg id="Layer_1" data-name="Layer 1" xmlns="http://www.w3.org/2000/svg" xmlns:xlink="http://www.w3.org/1999/xlink" viewBox="0 0 1000 1000">
  <defs>
    <style>
      .cls-1 {
        fill: url(#linear-gradient);
      }

      .cls-2 {
        fill: #fff;
      }

      .cls-3 {
        fill: #b8cbd8;
      }

      .cls-4 {
        fill: #9bb0c4;
      }

      .cls-5 {
        fill: #e2e2e2;
      }

      .cls-6 {
        fill: url(#linear-gradient-2);
      }

      .cls-7 {
        fill: #5a9137;
      }

      .cls-8 {
        fill: url(#linear-gradient-3);
      }

      .cls-9 {
        fill: url(#linear-gradient-4);
      }

      .cls-10 {
        opacity: 0.7;
      }

      .cls-11 {
        fill: #6b483c;
      }

      .cls-12 {
        fill: url(#linear-gradient-5);
      }

      .cls-13 {
        fill: #366d26;
      }

      .cls-14 {
        fill: url(#linear-gradient-6);
      }

      .cls-15 {
        fill: #c7d8e2;
      }

      .cls-16 {
        fill: url(#linear-gradient-7);
      }

      .cls-17 {
        fill: url(#linear-gradient-8);
      }

      .cls-18 {
        fill: #f49b25;
      }

      .cls-19 {
        fill: #303d49;
      }

      .cls-20 {
        fill: #e2786d;
      }

      .cls-21 {
        fill: #cddce8;
      }

      .cls-22 {
        fill: #27343d;
      }

      .cls-23 {
        fill: #ef8e73;
      }

      .cls-24 {
        fill: url(#linear-gradient-9);
      }

      .cls-25, .cls-28 {
        fill: #dd7b19;
      }

      .cls-25 {
        opacity: 0.5;
      }

      .cls-26 {
        fill: url(#linear-gradient-10);
      }

      .cls-27 {
        fill: url(#linear-gradient-11);
      }

      .cls-29 {
        fill: url(#linear-gradient-12);
      }

      .cls-30 {
        fill: url(#linear-gradient-13);
      }
    </style>
    <linearGradient id="linear-gradient" x1="79.31392" y1="441.39641" x2="920.68608" y2="441.39641" gradientUnits="userSpaceOnUse">
      <stop offset="0" stop-color="#e6f4ff"/>
      <stop offset="1" stop-color="#c0e3ff"/>
    </linearGradient>
    <linearGradient id="linear-gradient-2" x1="79.31396" y1="770.26147" x2="559.1647" y2="770.26147" gradientUnits="userSpaceOnUse">
      <stop offset="0.00005" stop-color="#9dcc52"/>
      <stop offset="1" stop-color="#649e3f"/>
    </linearGradient>
    <linearGradient id="linear-gradient-3" x1="384.50003" y1="559.97449" x2="920.68049" y2="559.97449" xlink:href="#linear-gradient-2"/>
    <linearGradient id="linear-gradient-4" x1="477.11537" y1="385.48495" x2="583.83877" y2="480.97432" gradientUnits="userSpaceOnUse">
      <stop offset="0" stop-color="#67a63f"/>
      <stop offset="0.99995" stop-color="#366d26"/>
    </linearGradient>
    <linearGradient id="linear-gradient-5" x1="653.27508" y1="344.82613" x2="653.27508" y2="552.05655" gradientUnits="userSpaceOnUse">
      <stop offset="0" stop-color="#77bf49"/>
      <stop offset="0.99995" stop-color="#366d26"/>
    </linearGradient>
    <linearGradient id="linear-gradient-6" x1="690.96483" y1="263.34613" x2="839.27943" y2="603.10228" xlink:href="#linear-gradient-5"/>
    <linearGradient id="linear-gradient-7" x1="96.51242" y1="485.41104" x2="157.42514" y2="657.99707" xlink:href="#linear-gradient-4"/>
    <linearGradient id="linear-gradient-8" x1="171.5946" y1="566.98212" x2="221.30328" y2="683.47113" xlink:href="#linear-gradient-4"/>
    <linearGradient id="linear-gradient-9" x1="15.97489" y1="326.08606" x2="102.99748" y2="528.0231" gradientTransform="matrix(-1, 0, 0, 1, 548.57109, 0)" gradientUnits="userSpaceOnUse">
      <stop offset="0.00005" stop-color="#ffcb48"/>
      <stop offset="1" stop-color="#e68e2b"/>
    </linearGradient>
    <linearGradient id="linear-gradient-10" x1="27.75623" y1="321.00902" x2="114.77882" y2="522.94605" xlink:href="#linear-gradient-9"/>
    <linearGradient id="linear-gradient-11" x1="74.82825" y1="300.72384" x2="161.85084" y2="502.66087" xlink:href="#linear-gradient-9"/>
    <linearGradient id="linear-gradient-12" x1="486.19908" y1="282.4182" x2="508.41185" y2="325.0565" gradientUnits="userSpaceOnUse">
      <stop offset="0" stop-color="#75413e"/>
      <stop offset="0.98888" stop-color="#5b3c39"/>
    </linearGradient>
    <linearGradient id="linear-gradient-13" x1="473.6646" y1="288.94814" x2="495.87737" y2="331.58644" xlink:href="#linear-gradient-12"/>
  </defs>
  <path class="cls-1" d="M79.34318,533.236S76.916,443.92217,116.27249,405.64761s101.191-29.83447,150.323-53.496,68.673-70.454,112.94076-112.54121,137.15895-27.051,188.88842,3.59733,84.58457,73.86257,134.86125,101.30244,124.53069,34.14995,152.89691,43.40629,64.50324,29.24172,64.50324,69.11385V669.09677l-841.3429-3.677Z"/>
  <path class="cls-2" d="M499.99369,401.87712q-26.90507-15.31456-58.96574,7.999c-11.73914-9.70807-38.27649-9.70807-52.067,12.54084,0,0-18.472-23.67363-44.546-22.29784-47.74468,2.51923-50.10769,50.70423-50.10769,50.70423-24.10507-29.02591-73.29656-18.48287-76.4429,33.81254-26.17335-17.23561-62.726.64076-54.447,42.58664-31.59818-21.86078-84.07415,20.18178-84.1034,74.82007l0,63.3772,167.73987-64.14649Z"/>
  <path class="cls-3" d="M86.57347,678.91934l391.659,226.11445a43.5559,43.5559,0,0,0,43.55553-.00064l391.63891-226.118a14.51862,14.51862,0,0,0,.00018-25.14675L521.771,427.63328a43.55584,43.55584,0,0,0-43.55859.00055L86.57262,653.77256A14.51862,14.51862,0,0,0,86.57347,678.91934Z"/>
  <ellipse class="cls-4" cx="479.11922" cy="687.05164" rx="92.12777" ry="52.947"/>
  <g>
    <polygon class="cls-5" points="559.165 868.935 123.25 617.445 123.25 631.964 559.165 883.453 570.063 877.163 570.063 862.644 559.165 868.935"/>
    <polygon class="cls-2" points="570.063 862.644 559.163 868.934 123.254 617.446 133.484 611.566 570.063 862.644"/>
  </g>
  <path class="cls-6" d="M551.92221,874.22151l-423.58-244.56738-41.76953,24.1184a14.51858,14.51858,0,0,0,.00074,25.14673l391.659,226.1145a43.5558,43.5558,0,0,0,43.55554-.00048L559.1647,883.4532A15.50058,15.50058,0,0,0,551.92221,874.22151Z"/>
  <path class="cls-7" d="M913.42319,678.91267l-93.24,53.82983-1.21.63013v-13.54l81.03-73.81006,13.42,7.75A14.512,14.512,0,0,1,913.42319,678.91267Z"/>
  <polygon class="cls-7" points="920.682 666.333 920.682 622.043 894.628 646.023 920.682 666.333"/>
  <path class="cls-8" d="M913.40543,637.08311c-39.10744,32.01809-52.21968,54.48808-94.43268,82.7468L384.5,472.3404c35.22093-19.67513,67.27608-55.42024,101.68335-71.11658a12.18854,12.18854,0,0,1,10.15749.00754C589.04,443.85085,788.63223,518.13452,912.65258,608.12793,922.35793,615.17047,924.03191,628.383,913.40543,637.08311Z"/>
  <g>
    <polygon class="cls-5" points="808.074 725.141 372.16 473.652 372.16 488.17 808.074 739.66 818.973 733.369 818.973 718.851 808.074 725.141"/>
    <polygon class="cls-2" points="818.973 718.851 808.073 725.141 372.163 473.652 382.393 467.772 818.973 718.851"/>
  </g>
  <path class="cls-9" d="M593.20083,469.8238c-4.68427,6.08955-14.7443,9.12318-31.16155,4.12662-9.45776,7.85173-35.1352,7.1096-39.97243-7.7625-8.1194,3.30129-20.52156-5.5319-17.07527-11.78567-14.867,4.12905-27.26915-7.6652-23.21768-16.8447-24.4838-11.43129-9.76181-33.78195,3.17569-32.1313-1.42534-13.78057,11.01919-20.92307,21.19075-13.22748,6.82564-11.71068,28.10561-8.03018,28.00835,7.65782,17.98671-10.49069,39.40051,6.105,30.237,29.03439,8.94042-8.18509,20.18267,1.04961,16.82691,11.10287C596.45909,442.89754,597.8851,463.73425,593.20083,469.8238Z"/>
  <g class="cls-10">
    <ellipse class="cls-7" cx="653.27508" cy="582.38767" rx="36.44972" ry="20.94811"/>
  </g>
  <g class="cls-10">
    <ellipse class="cls-7" cx="787.06487" cy="656.24295" rx="48.80084" ry="28.04646"/>
  </g>
  <g>
    <path class="cls-11" d="M659.44335,581.83806V506.72164h-12.3367V581.862h.00563a3.10682,3.10682,0,0,0,1.8153,2.49111,9.64337,9.64337,0,0,0,8.725.01568A3.02657,3.02657,0,0,0,659.44335,581.83806Z"/>
    <path class="cls-12" d="M600.29873,481.59088c0-7.63482,2.4907-14.4736,6.43071-19.14836a37.158,37.158,0,0,1-2.77652-10.67662c-1.16349-10.43154,1.9801-20.00572,7.594-25.70119-.59184-6.63456,1.53105-12.63629,5.61385-15.8413a33.7004,33.7004,0,0,1-.34688-4.81769c0-13.065,7.30838-23.84356,16.719-25.31344-.02043-.42861-.04087-.83692-.04087-1.26566,0-17.94388,8.47212-32.47866,18.90341-32.47866,9.16588,0,16.8007,11.20728,18.53609,26.04832,3.77655,1.87806,6.7163,6.757,7.71657,12.88125,5.30759,3.59276,10.064,10.207,12.65659,18.4951,2.24574,7.22652,2.42915,14.351.91853,20.02615,3.61333,2.61293,6.08334,7.77774,6.08334,13.69773a19.33441,19.33441,0,0,1-2.30654,9.30879v.02044c8.3084,4.59315,12.37077,17.49483,9.14544,31.09052a38.54986,38.54986,0,0,1-6.20594,13.73872c5.16481,6.83865,6.10377,18.02562,1.65365,28.70212a33.61873,33.61873,0,0,1-13.12632,15.882c-4.69508,8.18605-10.69693,13.3916-17.49471,16.33122-4.75663,7.839-12.43233,12.28929-19.72,10.55415-4.75638-1.12288-8.431-4.69533-10.65631-9.53344a34.05523,34.05523,0,0,1-13.63643-8.65553c-8.18605-3.6745-15.47374-12.1055-18.94428-23.23117a40.67273,40.67273,0,0,1-.9594-21.80217A30.31015,30.31015,0,0,1,600.29873,481.59088Z"/>
    <path class="cls-13" d="M705.14492,477.91889a38.43536,38.43536,0,0,1-6.202,13.73637c5.16838,6.84534,6.11026,18.032,1.65381,28.69041a33.55712,33.55712,0,0,1-13.13912,15.89562c-4.68609,8.17753-10.6811,13.3919-17.48059,16.33206-4.75479,7.83306-12.42718,12.28936-19.73167,10.54357-4.75508-1.12553-8.43032-4.68609-10.6584-9.53285a33.79267,33.79267,0,0,1-13.62169-8.66c17.36423,2.78812,27.64156-3.35656,28.162-21.79908,6.68992,3.85669,14.021-2.20364,9.81783-10.51216,14.36884.782,19.74494-17.9855,10.41941-27.45818,15.77685-3.62545,18.70927-24.15237,5.03028-30.23186,9.889-4.94862,14.60759-15.52265,12.81793-31.12267,3.62925,2.61868,6.087,7.78707,6.087,13.69053a19.45118,19.45118,0,0,1-2.29706,9.32606c6.3859,3.51443,10.24508,11.94474,10.24508,21.82207A39.93115,39.93115,0,0,1,705.14492,477.91889Z"/>
  </g>
  <g>
    <path class="cls-11" d="M800.66391,653.55635V487.9488H773.46547V653.60911h.01241c.04078,1.98688,1.36892,3.97111,4.00214,5.49208,5.32851,3.07609,13.941,3.0916,19.23583.03458C799.37744,657.59884,800.68962,655.57737,800.66391,653.55635Z"/>
    <path class="cls-14" d="M874.232,425.54886a135.09382,135.09382,0,0,0,.29468-18.03176c-1.695-32.88573-14.58838-59.79624-30.4034-66.415.143-.55281.3599-1.07026.46834-1.63761,2.46427-12.836-4.927-24.43092-16.50888-25.89761-.09822-.01218-.19409.00668-.29153-.00432C823.4127,280.7141,806.86375,263.012,787.06473,263.012c-19.38726,0-35.65175,16.98311-40.43256,48.52906-17.257,9.19739-32.36082,36.69529-36.91689,70.79116-.61135,4.57257-.96025,9.05949-1.15591,13.47254A25.9048,25.9048,0,0,0,693.582,414.77083a23.85639,23.85639,0,0,0,2.036,15.327c-7.41323,8.84025-12.06046,21.30579-12.06046,35.16023a59.4614,59.4614,0,0,0,2.39984,16.70533c-7.71027,11.33242-10.9737,27.29162-7.77078,44.29791,3.7907,20.12788,15.69321,36.62183,30.31617,44.69317,9.21193,16.44916,22.06448,25.84183,37.22728,30.9511,9.63234,15.38007,24.54761,25.29216,41.33466,25.29216s31.70311-9.91209,41.33623-25.29216c15.1188-5.09513,27.94463-14.44812,37.15106-30.812,12.36457-4.77413,22.50846-16.56663,25.34834-31.35618a38.66714,38.66714,0,0,0-3.93685-26.34316A70.55453,70.55453,0,0,0,898.213,486.63814C903.1612,460.86311,892.923,437.04355,874.232,425.54886Z"/>
    <path class="cls-13" d="M898.20045,486.65936a69.31407,69.31407,0,0,1-11.26523,26.71446,38.65924,38.65924,0,0,1,3.99029,26.39306c-2.89646,14.74122-13.00342,26.52154-25.36249,31.3495-9.20486,16.35053-22.015,25.68466-37.1432,30.77-9.65591,15.38518-24.59083,25.29844-41.3268,25.29844-16.802,0-31.73611-9.91326-41.392-25.29844-15.12744-5.08531-28.002-14.48387-37.20764-30.96328,38.21976,10.25458,63.52408-6.35221,64.95188-46.60581,30.52366,16.31926,65.30722-8.33414,57.09939-44.35292,27.65662-8.35732,33.95693-49.72024,9.84922-68.87892,20.81113-16.02482,26.98448-46.72121,3.73255-69.97314,15.83623,6.63058,28.71078,33.53834,30.38453,66.43272a139.494,139.494,0,0,1-.25774,18.02429C892.92144,437.02783,903.15728,460.84583,898.20045,486.65936Z"/>
  </g>
  <path class="cls-15" d="M472.80336,553.66961,416.429,519.68538l-3.17153,4.33914a3.9723,3.9723,0,0,0-.0921,4.55078l7.022,12.48948c1.69557,3.01576,6.44963,5.97286,12.74343,7.9266l13.73849,4.26475c7.06242,2.19234,15.00358,2.79543,20.71487,1.57319Z"/>
  <path class="cls-15" d="M407.35088,516.36356l.66553-1.11469-27.3762-16.71217-1.7073.09578c-3.45582.19387-5.29744,1.54521-4.45111,3.26614l2.52048,5.12516a6.31454,6.31454,0,0,0,2.97392,2.44841l14.147,6.85968C398.90738,518.65166,405.97466,518.66859,407.35088,516.36356Z"/>
  <path class="cls-15" d="M566.67785,857.80477l-53.97046-31.83584,7.90891-4.25864a15.7209,15.7209,0,0,1,7.97719-1.87036l21.17905.70628a15.72078,15.72078,0,0,1,12.62807,7.1l6.11869,9.34424a15.72077,15.72077,0,0,1,.72111,16.00663Z"/>
  <path class="cls-15" d="M507.78223,819.99328l-2.01709.97424-26.57467-15.37747.3353-1.40825a6.32783,6.32783,0,0,1,6.15576-4.86218H494.408a6.32782,6.32782,0,0,1,3.99509,1.42062l10.62217,8.64779A6.32785,6.32785,0,0,1,507.78223,819.99328Z"/>
  <g>
    <g class="cls-10">
      <ellipse class="cls-7" cx="133.62126" cy="665.41639" rx="37.56125" ry="21.58693"/>
    </g>
    <g>
      <path class="cls-11" d="M138.68671,665.78671V582.26064H124.96886v83.55268h.00626a3.45464,3.45464,0,0,0,2.01853,2.77,10.723,10.723,0,0,0,9.70181.01744A3.3654,3.3654,0,0,0,138.68671,665.78671Z"/>
      <path class="cls-16" d="M175.79161,552.76126a68.13656,68.13656,0,0,0,.14862-9.09453c-.85488-16.5863-7.35782-30.15892-15.3343-33.49719.07213-.27881.18152-.53979.23621-.82594,1.24288-6.474-2.485-12.322-8.32644-13.06176-.04954-.00615-.09789.00337-.147-.00218-2.20833-16.56748-10.555-25.49574-20.54085-25.49574-9.77819,0-17.98137,8.56562-20.39263,24.47619-8.70374,4.63881-16.32155,18.50769-18.61945,35.70433-.30835,2.30623-.48432,4.56926-.583,6.795a13.0654,13.0654,0,0,0-7.554,9.56576,12.03221,12.03221,0,0,0,1.02688,7.73036,27.64921,27.64921,0,0,0-6.08283,17.73347,29.99017,29.99017,0,0,0,1.21038,8.42553c-3.88876,5.71563-5.53471,13.76484-3.91928,22.34216,1.91189,10.15172,7.91506,18.47063,15.29031,22.54151a32.59716,32.59716,0,0,0,18.776,15.61054c4.85818,7.75712,12.38087,12.75639,20.84761,12.75639s15.98983-4.99927,20.8484-12.75639a32.59057,32.59057,0,0,0,18.73757-15.54039,21.22167,21.22167,0,0,0,12.78472-15.81485,19.50218,19.50218,0,0,0-1.9856-13.28648,35.58485,35.58485,0,0,0,5.67382-13.49474C190.3824,570.5724,185.21865,558.55873,175.79161,552.76126Z"/>
      <path class="cls-13" d="M187.88038,583.583a34.95916,34.95916,0,0,1-5.68175,13.47374,19.49817,19.49817,0,0,1,2.01255,13.31164,21.37967,21.37967,0,0,1-12.79186,15.81148,32.53427,32.53427,0,0,1-18.7336,15.51919c-4.87007,7.75969-12.40266,12.75956-20.84364,12.75956-8.47427,0-16.00647-4.99987-20.87655-12.75956a32.53262,32.53262,0,0,1-18.76609-15.61668c19.27657,5.172,32.0391-3.20382,32.75922-23.50618,15.395,8.23081,32.93845-4.20342,28.79873-22.3699,13.94894-4.21512,17.12657-25.077,4.96757-34.73988,10.49633-8.0823,13.60993-23.56437,1.88255-35.29175,7.98719,3.34421,14.48062,16.91544,15.32479,33.5061a70.35554,70.35554,0,0,1-.13,9.09076C185.21786,558.55081,190.38042,570.56368,187.88038,583.583Z"/>
    </g>
  </g>
  <g>
    <g class="cls-10">
      <ellipse class="cls-7" cx="203.58065" cy="712.05124" rx="30.64667" ry="17.61303"/>
    </g>
    <g>
      <path class="cls-11" d="M207.8965,711.31992V664.11659h-8.63181V711.335h.00394c.01294.56632.43444,1.13189,1.27013,1.56542a7.43413,7.43413,0,0,0,6.10476.00985C207.48822,712.47216,207.90466,711.896,207.8965,711.31992Z"/>
      <path class="cls-17" d="M166.51384,647.0335a17.586,17.586,0,0,1,4.49949-12.03288,21.47826,21.47826,0,0,1-1.9427-6.70922c-.81408-6.5552,1.38545-12.57164,5.31338-16.15068-.4141-4.16918,1.07126-7.94068,3.92794-9.95472a19.06088,19.06088,0,0,1-.24271-3.02744c0-8.21009,5.11357-14.98335,11.698-15.907-.0143-.26935-.0286-.52593-.0286-.79535,0-11.276,5.92783-20.40966,13.22645-20.40966,6.41324,0,11.75522,7.04268,12.96944,16.36882,2.6424,1.18017,4.6993,4.24614,5.39917,8.0946a22.11289,22.11289,0,0,1,8.85564,11.62237,20.95086,20.95086,0,0,1,.64269,12.58448,10.21209,10.21209,0,0,1,4.25642,8.60769,11.18149,11.18149,0,0,1-1.61385,5.84967v.01284c5.81327,2.88635,8.65565,10.99379,6.39894,19.53735a23.14051,23.14051,0,0,1-4.34222,8.63345c3.61375,4.29742,4.27073,11.32734,1.157,18.03648a21.85441,21.85441,0,0,1-9.1843,9.98031,25.09991,25.09991,0,0,1-12.2408,10.26258c-3.32815,4.92607-8.69872,7.72261-13.79782,6.63225a10.9593,10.9593,0,0,1-7.45607-5.99084,24.32837,24.32837,0,0,1-9.54122-5.43915c-5.72766-2.30907-10.82676-7.60713-13.255-14.59853a23.06867,23.06867,0,0,1-.67128-13.70053A17.76507,17.76507,0,0,1,166.51384,647.0335Z"/>
      <path class="cls-13" d="M239.87324,644.726a23.07079,23.07079,0,0,1-4.33942,8.632c3.61625,4.30162,4.27527,11.33135,1.15716,18.02911a21.81532,21.81532,0,0,1-9.19326,9.98885,25.07831,25.07831,0,0,1-12.23093,10.26311c-3.32686,4.92231-8.69512,7.72266-13.806,6.6256a10.95735,10.95735,0,0,1-7.45753-5.99047,24.13656,24.13656,0,0,1-9.5309-5.44194c12.1495,1.75206,19.3404-2.10927,19.70454-13.69859,4.68084,2.42355,9.81027-1.38478,6.86939-6.60587,10.05368.4914,13.81526-11.30213,7.29032-17.25478,11.03884-2.27824,13.09061-15.17741,3.51961-18.99778,6.91917-3.10972,10.22073-9.75447,8.96853-19.55756a10.19608,10.19608,0,0,1,4.259,8.60316,11.24609,11.24609,0,0,1-1.60722,5.86052c4.46812,2.20848,7.16834,7.50611,7.16834,13.71305A22.66564,22.66564,0,0,1,239.87324,644.726Z"/>
    </g>
  </g>
  <g>
    <g>
      <g>
        <path class="cls-18" d="M439.76271,603.73032c-4.87685.57752-12.62766,6.05221-13.7266,10.04121-1.39723,5.0718.522,10.011,3.52316,16.50662,2.801,6.06224,2.59637,17.2442,10.77492,24.68711,6.97746,6.34986,17.74183,5.92837,18.49463-3.60073l-5.62992-11.588-2.22854-19.64583S446.34017,602.95141,439.76271,603.73032Z"/>
        <path class="cls-19" d="M443.4931,601.56668c-4.87685.57752-12.62767,6.05221-13.7266,10.04121-1.39723,5.0718-.17934,9.90286,2.82186,16.39844,2.801,6.06224,2.24,17.79869,11.03456,24.8602,7.35637,5.90673,16.41731,2.7911,15.24894-3.95945l-1.94257-11.29419-2.22855-19.64584S450.07056,600.78777,443.4931,601.56668Z"/>
        <path class="cls-20" d="M524.62952,478.91l10.42874,83.19188c2.07709,16.36817-3.20219,23.10766-15.92438,28.99275l-64.82259,23.71347-1.53618,4.43546c-3.44147,1.31986-10.25654-2.13841-10.25654-2.13841s-3.34193-11.71969.93126-13.72106l4.58691-1.53618c15.219-9.47993,21.84328-19.03422,37.90693-30.702l-11.34783-75.1783Z"/>
        <path class="cls-21" d="M442.51861,617.10524s6.81511,3.45814,10.25649,2.13834l1.23377-3.56241-4.54407-2.04127c-3.38154-3.08027-3.07243-8.82777-1.428-11.792l-4.58689,1.53629C439.17666,605.38546,442.51861,617.10524,442.51861,617.10524Z"/>
        <path class="cls-18" d="M446.004,629.63011c1.33023,3.41777,8.85851,3.72589,8.90991.18487l.32945-13.88732c.09956-4.96575-14.01244-4.18214-12.68065,1.42276Z"/>
        <path class="cls-22" d="M525.53825,476.92743l12.1627,83.96285c2.41378,18.88646-39.29472,32.71421-46.04527,5.97165l-17.05984-70.8943Z"/>
        <path class="cls-18" d="M467.05512,689.09819c-3.4482,5.21368-7.0751,14.518-3.95946,20.1002,1.75746,3.14879,8.45588,6.12848,11.84592,8.23264s8.53555,8.60046,20.67356,10.2881c10.3121,1.43377,18.71546-5.01964,14.102-13.01528l-12.793-10.13314-12.09894-15.60588S471.20254,682.82728,467.05512,689.09819Z"/>
        <path class="cls-19" d="M467.05512,685.16037c-3.4482,5.21368-5.77847,16.54258-3.24757,20.12893,2.0792,2.94627,7.744,6.09975,11.134,8.20391s8.53555,8.60046,20.67356,10.2881c10.3121,1.43377,18.24594-5.4627,12.39764-11.85674l-11.08863-11.29168L484.82521,685.027S471.20254,678.88946,467.05512,685.16037Z"/>
        <path class="cls-23" d="M443.15921,512.13861l25.908,87.697c-2.66123,32.64941,1.16841,57.86816.714,79.80738l-1.19243,5.88028c-.76392,3.08773,7.53191,8.78925,7.53191,8.78925s10.36695,1.50719,11.07782-5.10619l-2.42327-7.616,15.232-72.0615c2.32751-13.51453,3.0046-19.85024,1.55741-32.38249l-10.096-83.52744Z"/>
        <path class="cls-21" d="M468.58884,685.52328c-.76392,3.08772,7.53186,8.78922,7.53186,8.78922s10.367,1.50724,11.07789-5.10615l-2.42323-7.61615c-4.998,4.08944-13.95551,2.46672-14.99408-1.94717Z"/>
        <path class="cls-18" d="M485.3501,702.19932c2.95337,2.17446,10.45976-.909,8.60733-3.9273l-7.04012-12.138c-2.57455-4.24739-15.94943,3.87591-11.82376,7.89679Z"/>
        <path class="cls-19" d="M495.16077,507.92443l30.37748-30.99691-6.6161-39.49952-76.96388,21.69325c-4.32051,19.93849-1.84045,37.72535,1.201,53.01735L459.13786,586.075c2.856,15.1398,49.13456,9.47673,47.041-6.664Z"/>
        <path class="cls-23" d="M523.02843,357.33523,545.011,408.91636l18.52708,1.995,3.45013,12.83737s-18.90484,4.29424-27.51612,3.8622c-8.44776-.42384-11.79824-3.93649-15.31856-11.48892l-16.53019-37.2369Z"/>
        <path class="cls-24" d="M524.60091,353.95277c4.50254,10.01665,12.01516,30.52626,12.01516,30.52626,4.63019,11.28241-21.409,26.04194-27.69456,12.4075l-5.29222-15.2003-5.94874-48.11294S516.2887,335.46085,524.60091,353.95277Z"/>
        <path class="cls-25" d="M525.84675,400.50444l-3.15314-33.90237L517.565,402.34784A19.21734,19.21734,0,0,0,525.84675,400.50444Z"/>
        <path class="cls-26" d="M483.0869,334.4102c25.575-5.98117,41.58589,11.24139,39.46868,39.50473l-2.989,47.57911,4.67346,44.45581c.83813,12.53931-15.157,29.75515-34.09894,33.32-23.33576,4.39181-52.23022-4.84655-51.12091-20.28917l2.00633-51.34449-7.05969-62.69914C446.21928,349.2865,468.04383,337.92829,483.0869,334.4102Z"/>
        <polygon class="cls-25" points="441.027 427.636 453.918 395.135 438.914 408.874 441.027 427.636"/>
        <path class="cls-23" d="M433.96686,369.01888c-8.64826,13.26884-22.33385,30.53566-30.72231,47.2169-3.10875,6.81849-1.90255,13.94469-.60093,22.1926s11.424,39.85421,11.424,39.85421L425.31854,475.34l-2.98582-44.7873,30.24766-34.66148C462.44266,381.77262,443.56027,354.03918,433.96686,369.01888Z"/>
        <path class="cls-27" d="M433.96686,364.93708c-11.18354,13.40774-22.80339,32.87532-22.80339,32.87532-10.99123,16.2706,16.0591,30.21894,24.62708,21.28641L453.332,396.0639C465.38911,378.01961,445.1504,351.52933,433.96686,364.93708Z"/>
        <g>
          <path class="cls-28" d="M491.881,334.79168c7.27726,5.62175,7.27726,18.523-1.49328,22.80068-12.39074,6.04333-29.17544-3.7527-26.19082-14.797C467.34345,331.15189,484.9427,329.43177,491.881,334.79168Z"/>
          <path class="cls-23" d="M490.26881,334.89855c6.08688,4.70217,6.08688,15.49312-1.249,19.07105-10.36391,5.05478-24.403-3.13886-21.90664-12.37657C469.745,331.85414,484.46544,330.41539,490.26881,334.89855Z"/>
          <path class="cls-20" d="M490.389,342.27349c.05915,2.94394-.80959,5.76731-4.0954,6.86446-6.6673,2.22626-14.50418-2.77219-14.28419-8.26707l.74-14.59642,17.26081,2.43248Z"/>
        </g>
      </g>
      <g>
        <path class="cls-23" d="M570.60349,420.90783l-1.84986,1.82565a4.04889,4.04889,0,0,1-2.96678,1.165l-3.2831-.04068c-2.65841-.52074-3.743-.855-4.38567-2.83048l-1.10893-3.40882-2.7318-4.94619a5.03883,5.03883,0,0,1,1.57349-6.60018l6.05941-4.12876a4.09455,4.09455,0,0,1,3.83167-.41582l5.61779,2.25632a4.31553,4.31553,0,0,1,2.67253,4.54994l-.96806,7.59929A8.49825,8.49825,0,0,1,570.60349,420.90783Z"/>
        <path class="cls-23" d="M425.21488,473.7852s7.62131,6.16147,8.51087,7.5837a11.84185,11.84185,0,0,1,1.17048,5.61255,4.35753,4.35753,0,0,1-1.33557,2.95411l.51321,4.1145a3.34843,3.34843,0,0,1-3.15349,3.77069,21.81811,21.81811,0,0,1-4.45159-.188c-2.01659-.35214-5.81847-2.61526-8.3754-4.25545a6.81107,6.81107,0,0,1-3.05712-4.71465l-1.18361-11.054Z"/>
      </g>
    </g>
    <g>
      <path class="cls-29" d="M502.92227,300.59054s4.49243,5.37106.02228,12.31445a29.60673,29.60673,0,0,1-5.14537,5.99214l-1.40356-12.20529Z"/>
      <path class="cls-23" d="M487.46027,340.33927c-10.18173-1.41525-15.95267-6.31659-17.348-15.65414l-2.98363-20.19244c-1.43117-8.1121,5.2087-16.505,14.75161-17.343,8.34039-.73241,17.55408,5.40369,18.36991,14.64264a187.47556,187.47556,0,0,1,.33538,20.55329C500.06613,331.48533,496.71325,341.62542,487.46027,340.33927Z"/>
      <path class="cls-30" d="M501.6456,306.41885a7.41486,7.41486,0,0,0,4.615-6.11081c.61605-4.30675-1.349-6.236-2.79124-8.1281-1.63143-2.14033-.6274-6.04763-4.41844-8.31983-3.95192-2.36862-7.0975.0547-11.54677-.12161-3.28859-.13031-5.625-1.79469-9.04735-1.10935-4.93.98726-4.27447,2.97179-8.314,5.32146-4.27844,2.48866-7.90695,3.0832-10.01909,7.46589-1.74148,3.61356-.91925,6.53818-1.04,10.61545-.09527,3.21656-1.50353,6.00759-.48536,9.36393,1.75555,5.78709,4.91355,4.76357,5.912,7.75992,2.42643,7.282,5.93852,6.011,7.84625,11.19849l.612-8.52315,3.18035-2.62135c1.18165.47194,2.64191.49425,3.249-.82318.5212-1.13112.377-4.33974.37794-5.44848.00208-2.4746.92167-3.9303,4.14626-4.0762,7.52387-.34043,7.84928-3.70845,10.56226-5.60208C496.97057,305.52453,499.31919,307.24012,501.6456,306.41885Z"/>
      <path class="cls-23" d="M474.43953,329.59489c-3.38509.40515-6.80035-3.98035-7.2601-7.82159s2.47921-7.47205,5.59522-6.08877C476.68626,317.421,477.82462,329.18974,474.43953,329.59489Z"/>
    </g>
  </g>
</svg>
