<svg id="Layer_1" data-name="Layer 1" xmlns="http://www.w3.org/2000/svg" xmlns:xlink="http://www.w3.org/1999/xlink" viewBox="0 0 1000 1000">
  <defs>
    <style>
      .cls-1 {
        fill: url(#linear-gradient);
      }

      .cls-2 {
        fill: #b8cbd8;
      }

      .cls-3 {
        fill: url(#linear-gradient-2);
      }

      .cls-4, .cls-50 {
        fill: #9bb0c4;
      }

      .cls-14, .cls-21, .cls-26, .cls-4, .cls-79 {
        opacity: 0.5;
      }

      .cls-5 {
        fill: #f0f9fc;
      }

      .cls-6 {
        fill: url(#linear-gradient-3);
      }

      .cls-7 {
        fill: url(#linear-gradient-4);
      }

      .cls-8 {
        fill: url(#linear-gradient-5);
      }

      .cls-9 {
        fill: url(#linear-gradient-6);
      }

      .cls-10 {
        fill: url(#linear-gradient-7);
      }

      .cls-11 {
        fill: url(#linear-gradient-8);
      }

      .cls-12 {
        fill: #e58630;
      }

      .cls-13 {
        fill: url(#linear-gradient-9);
      }

      .cls-15 {
        fill: url(#linear-gradient-10);
      }

      .cls-16 {
        fill: #748ca3;
      }

      .cls-17 {
        fill: #586c7f;
      }

      .cls-18 {
        fill: url(#linear-gradient-11);
      }

      .cls-19 {
        fill: #34a521;
      }

      .cls-20 {
        fill: #e4ecf2;
      }

      .cls-21 {
        fill: url(#linear-gradient-12);
      }

      .cls-22, .cls-26 {
        fill: #fff;
      }

      .cls-23 {
        fill: url(#linear-gradient-13);
      }

      .cls-24 {
        fill: url(#linear-gradient-14);
      }

      .cls-25 {
        fill: url(#linear-gradient-15);
      }

      .cls-27 {
        fill: url(#linear-gradient-16);
      }

      .cls-28 {
        fill: url(#linear-gradient-17);
      }

      .cls-29 {
        fill: url(#linear-gradient-18);
      }

      .cls-30 {
        fill: url(#linear-gradient-19);
      }

      .cls-31 {
        fill: url(#linear-gradient-20);
      }

      .cls-32 {
        fill: url(#linear-gradient-21);
      }

      .cls-33 {
        fill: url(#linear-gradient-22);
      }

      .cls-34 {
        fill: url(#linear-gradient-23);
      }

      .cls-35, .cls-36 {
        fill: none;
        stroke-miterlimit: 10;
        stroke-width: 5px;
      }

      .cls-35 {
        stroke: url(#linear-gradient-24);
      }

      .cls-36 {
        stroke: url(#linear-gradient-25);
      }

      .cls-37 {
        fill: url(#linear-gradient-26);
      }

      .cls-38 {
        fill: url(#linear-gradient-27);
      }

      .cls-39 {
        fill: url(#linear-gradient-28);
      }

      .cls-40 {
        fill: url(#linear-gradient-29);
      }

      .cls-41 {
        fill: url(#linear-gradient-30);
      }

      .cls-42 {
        fill: url(#linear-gradient-31);
      }

      .cls-43 {
        fill: url(#linear-gradient-32);
      }

      .cls-44 {
        fill: url(#linear-gradient-33);
      }

      .cls-45 {
        fill: url(#linear-gradient-34);
      }

      .cls-46 {
        fill: url(#linear-gradient-35);
      }

      .cls-47 {
        fill: url(#linear-gradient-36);
      }

      .cls-48 {
        fill: url(#linear-gradient-37);
      }

      .cls-49 {
        fill: #ffcb48;
      }

      .cls-51 {
        fill: url(#linear-gradient-38);
      }

      .cls-52 {
        fill: url(#linear-gradient-39);
      }

      .cls-53 {
        fill: url(#linear-gradient-40);
      }

      .cls-54 {
        fill: url(#linear-gradient-41);
      }

      .cls-55 {
        fill: #541510;
        opacity: 0.3;
      }

      .cls-56 {
        fill: url(#linear-gradient-42);
      }

      .cls-57 {
        fill: url(#linear-gradient-43);
      }

      .cls-58 {
        fill: #bcd0e2;
      }

      .cls-59 {
        fill: url(#linear-gradient-44);
      }

      .cls-60 {
        fill: #e9f1f4;
      }

      .cls-61 {
        fill: url(#linear-gradient-45);
      }

      .cls-62 {
        fill: url(#linear-gradient-46);
      }

      .cls-63 {
        fill: url(#linear-gradient-47);
      }

      .cls-64 {
        fill: url(#linear-gradient-48);
      }

      .cls-65 {
        fill: url(#linear-gradient-49);
      }

      .cls-66 {
        opacity: 0.4;
        fill: url(#linear-gradient-50);
      }

      .cls-67 {
        fill: url(#linear-gradient-51);
      }

      .cls-68 {
        fill: url(#linear-gradient-52);
      }

      .cls-69 {
        fill: url(#linear-gradient-53);
      }

      .cls-70 {
        fill: url(#linear-gradient-54);
      }

      .cls-71 {
        fill: url(#linear-gradient-55);
      }

      .cls-72 {
        fill: url(#linear-gradient-56);
      }

      .cls-73 {
        fill: url(#linear-gradient-57);
      }

      .cls-74 {
        fill: url(#linear-gradient-58);
      }

      .cls-75 {
        fill: #303d49;
      }

      .cls-76 {
        fill: #ef8e73;
      }

      .cls-77 {
        fill: #27343d;
      }

      .cls-78 {
        fill: url(#linear-gradient-59);
      }

      .cls-79 {
        fill: #dd7b19;
      }

      .cls-80 {
        fill: url(#linear-gradient-60);
      }

      .cls-81 {
        fill: url(#linear-gradient-61);
      }

      .cls-82 {
        fill: url(#linear-gradient-62);
      }

      .cls-83 {
        fill: url(#linear-gradient-63);
      }
    </style>
    <linearGradient id="linear-gradient" x1="524.52355" y1="396.22833" x2="931.16979" y2="396.22833" gradientUnits="userSpaceOnUse">
      <stop offset="0" stop-color="#e4edf2"/>
      <stop offset="1" stop-color="#c3d6e6"/>
    </linearGradient>
    <linearGradient id="linear-gradient-2" x1="117.89298" y1="711.22041" x2="931.16979" y2="711.22041" gradientUnits="userSpaceOnUse">
      <stop offset="0.00663" stop-color="#c4d5e6"/>
      <stop offset="1" stop-color="#dae9f2"/>
    </linearGradient>
    <linearGradient id="linear-gradient-3" x1="888.57995" y1="450.58926" x2="902.59319" y2="450.58926" gradientTransform="translate(345.28048 -387.42577) rotate(30)" gradientUnits="userSpaceOnUse">
      <stop offset="0" stop-color="#849bb2"/>
      <stop offset="1" stop-color="#5b6f82"/>
    </linearGradient>
    <linearGradient id="linear-gradient-4" x1="318.84019" y1="183.43889" x2="312.71253" y2="506.67293" gradientUnits="userSpaceOnUse">
      <stop offset="0" stop-color="#293440"/>
      <stop offset="1" stop-color="#3e4c59"/>
    </linearGradient>
    <linearGradient id="linear-gradient-5" x1="145.13283" y1="390.75852" x2="488.47555" y2="390.75852" gradientUnits="userSpaceOnUse">
      <stop offset="0" stop-color="#5b6f82"/>
      <stop offset="1" stop-color="#849bb2"/>
    </linearGradient>
    <linearGradient id="linear-gradient-6" x1="506.84926" y1="287.74017" x2="132.95225" y2="490.41897" gradientUnits="userSpaceOnUse">
      <stop offset="0" stop-color="#62778c"/>
      <stop offset="1" stop-color="#435466"/>
    </linearGradient>
    <linearGradient id="linear-gradient-7" x1="439.80984" y1="319.99414" x2="301.33152" y2="395.05924" xlink:href="#linear-gradient-6"/>
    <linearGradient id="linear-gradient-8" x1="328.34103" y1="384.34656" x2="189.86272" y2="459.41167" xlink:href="#linear-gradient-6"/>
    <linearGradient id="linear-gradient-9" x1="147.22103" y1="327.66025" x2="322.62528" y2="563.57514" gradientUnits="userSpaceOnUse">
      <stop offset="0.00005" stop-color="#ffcb48"/>
      <stop offset="1" stop-color="#e68e2b"/>
    </linearGradient>
    <linearGradient id="linear-gradient-10" x1="324.9499" y1="225.01703" x2="500.35415" y2="460.93192" xlink:href="#linear-gradient-9"/>
    <linearGradient id="linear-gradient-11" x1="-63.91738" y1="234.66122" x2="499.9014" y2="234.66122" xlink:href="#linear-gradient-5"/>
    <linearGradient id="linear-gradient-12" x1="106.62266" y1="296.0483" x2="421.71458" y2="296.0483" gradientUnits="userSpaceOnUse">
      <stop offset="0" stop-color="#748ea6"/>
      <stop offset="1" stop-color="#96b1cc"/>
    </linearGradient>
    <linearGradient id="linear-gradient-13" x1="142.31662" y1="262.3569" x2="321.24481" y2="262.3569" xlink:href="#linear-gradient-12"/>
    <linearGradient id="linear-gradient-14" x1="132.16158" y1="257.00218" x2="170.97009" y2="341.00218" xlink:href="#linear-gradient-9"/>
    <linearGradient id="linear-gradient-15" x1="4353.05685" y1="3250.90476" x2="4353.05685" y2="3338.03103" gradientTransform="matrix(0.0351, 0.99938, 0.99938, -0.0351, -3265.34353, -3971.39328)" xlink:href="#linear-gradient-6"/>
    <linearGradient id="linear-gradient-16" x1="213.95096" y1="225.45033" x2="241.86586" y2="301.36523" xlink:href="#linear-gradient-6"/>
    <linearGradient id="linear-gradient-17" x1="216.92843" y1="233.54759" x2="238.71883" y2="292.80686" gradientUnits="userSpaceOnUse">
      <stop offset="0" stop-color="#96b1cc"/>
      <stop offset="1" stop-color="#748ea6"/>
    </linearGradient>
    <linearGradient id="linear-gradient-18" x1="320.30187" y1="318.8215" x2="395.32838" y2="318.8215" xlink:href="#linear-gradient-6"/>
    <linearGradient id="linear-gradient-19" x1="59.71562" y1="318.8215" x2="134.74212" y2="318.8215" xlink:href="#linear-gradient-6"/>
    <linearGradient id="linear-gradient-20" x1="474.78913" y1="212.63531" x2="569.98477" y2="212.63531" xlink:href="#linear-gradient"/>
    <linearGradient id="linear-gradient-21" x1="561.76556" y1="222.07017" x2="561.76556" y2="554.12855" gradientUnits="userSpaceOnUse">
      <stop offset="0" stop-color="#fff"/>
      <stop offset="0.56988" stop-color="#fff" stop-opacity="0"/>
    </linearGradient>
    <linearGradient id="linear-gradient-22" x1="495.87155" y1="175.08368" x2="533.49411" y2="234.65274" xlink:href="#linear-gradient-6"/>
    <linearGradient id="linear-gradient-23" x1="511.38616" y1="165.28498" x2="549.00872" y2="224.85403" xlink:href="#linear-gradient-6"/>
    <linearGradient id="linear-gradient-24" x1="8918.64141" y1="475.38618" x2="8985.44226" y2="505.90608" gradientTransform="translate(-8377.35491)" gradientUnits="userSpaceOnUse">
      <stop offset="0" stop-color="#3e4c59"/>
      <stop offset="1" stop-color="#293440"/>
    </linearGradient>
    <linearGradient id="linear-gradient-25" x1="8852.10833" y1="429.3766" x2="8927.59114" y2="463.8631" xlink:href="#linear-gradient-24"/>
    <linearGradient id="linear-gradient-26" x1="725.79129" y1="370.69237" x2="848.38364" y2="457.02501" gradientTransform="translate(-242.3977)" xlink:href="#linear-gradient-6"/>
    <linearGradient id="linear-gradient-27" x1="725.44049" y1="384.08754" x2="858.02968" y2="527.97941" gradientTransform="translate(-242.3977)" gradientUnits="userSpaceOnUse">
      <stop offset="0" stop-color="#62788c"/>
      <stop offset="1" stop-color="#526575"/>
    </linearGradient>
    <linearGradient id="linear-gradient-28" x1="712.36069" y1="366.00754" x2="792.51683" y2="491.05112" gradientTransform="translate(-242.3977)" xlink:href="#linear-gradient-17"/>
    <linearGradient id="linear-gradient-29" x1="719.03322" y1="407.07872" x2="847.20137" y2="407.07872" gradientTransform="translate(-242.3977)" gradientUnits="userSpaceOnUse">
      <stop offset="0" stop-color="#526575"/>
      <stop offset="1" stop-color="#62788c"/>
    </linearGradient>
    <linearGradient id="linear-gradient-30" x1="719.03317" y1="386.31293" x2="847.20133" y2="386.31293" gradientTransform="translate(-242.3977)" xlink:href="#linear-gradient-17"/>
    <linearGradient id="linear-gradient-31" x1="515.48108" y1="385.56455" x2="565.95809" y2="385.56455" xlink:href="#linear-gradient-6"/>
    <linearGradient id="linear-gradient-32" x1="515.48107" y1="381.7186" x2="565.95811" y2="381.7186" gradientTransform="matrix(1, 0, 0, 1, 0, 0)" xlink:href="#linear-gradient-3"/>
    <linearGradient id="linear-gradient-33" x1="540.37866" y1="341.10846" x2="541.05072" y2="378.29591" xlink:href="#linear-gradient-6"/>
    <linearGradient id="linear-gradient-34" x1="506.77663" y1="333.73917" x2="574.66259" y2="333.73917" xlink:href="#linear-gradient-6"/>
    <linearGradient id="linear-gradient-35" x1="506.32123" y1="328.76338" x2="575.118" y2="328.76338" gradientUnits="userSpaceOnUse">
      <stop offset="0.00844" stop-color="#ffc63f"/>
      <stop offset="1" stop-color="#e68a23"/>
    </linearGradient>
    <linearGradient id="linear-gradient-36" x1="533.30186" y1="315.9837" x2="548.13722" y2="315.9837" gradientTransform="matrix(1, 0, 0, 1, 0, 0)" xlink:href="#linear-gradient-24"/>
    <linearGradient id="linear-gradient-37" x1="533.30187" y1="310.26008" x2="548.1373" y2="310.26008" xlink:href="#linear-gradient-6"/>
    <linearGradient id="linear-gradient-38" x1="643.53591" y1="346.56832" x2="823.20212" y2="581.85873" xlink:href="#linear-gradient-6"/>
    <linearGradient id="linear-gradient-39" x1="626.03515" y1="359.75835" x2="804.14735" y2="593.01364" gradientTransform="matrix(1, 0, 0, 1, 0, 0)" xlink:href="#linear-gradient-27"/>
    <linearGradient id="linear-gradient-40" x1="449.07954" y1="588.499" x2="875.13355" y2="702.89406" xlink:href="#linear-gradient-6"/>
    <linearGradient id="linear-gradient-41" x1="320.48162" y1="596.40699" x2="714.05142" y2="846.97161" gradientTransform="matrix(1, 0, 0, 1, 0, 0)" xlink:href="#linear-gradient-27"/>
    <linearGradient id="linear-gradient-42" x1="336.73517" y1="663.74094" x2="883.15807" y2="693.30152" gradientTransform="matrix(1, 0, 0, 1, 0, 0)" xlink:href="#linear-gradient-24"/>
    <linearGradient id="linear-gradient-43" x1="335.66165" y1="683.58489" x2="882.08455" y2="713.14548" gradientTransform="matrix(1, 0, 0, 1, 0, 0)" xlink:href="#linear-gradient-24"/>
    <linearGradient id="linear-gradient-44" x1="358.82584" y1="540.79097" x2="530.81469" y2="722.63335" xlink:href="#linear-gradient-9"/>
    <linearGradient id="linear-gradient-45" x1="520.3241" y1="498.38123" x2="533.76073" y2="744.71943" xlink:href="#linear-gradient-9"/>
    <linearGradient id="linear-gradient-46" x1="637.97778" y1="306.89848" x2="880.15229" y2="624.04962" gradientUnits="userSpaceOnUse">
      <stop offset="0" stop-color="#596c80"/>
      <stop offset="0.99886" stop-color="#3a4959"/>
    </linearGradient>
    <linearGradient id="linear-gradient-47" x1="669.74196" y1="716.15226" x2="696.16876" y2="757.37807" gradientTransform="matrix(1, 0, 0, 1, 0, 0)" xlink:href="#linear-gradient-24"/>
    <linearGradient id="linear-gradient-48" x1="712.50986" y1="359.48261" x2="789.82893" y2="359.48261" gradientTransform="translate(-18.64021 -32.28579)" gradientUnits="userSpaceOnUse">
      <stop offset="0" stop-color="#435466"/>
      <stop offset="1" stop-color="#62778c"/>
    </linearGradient>
    <linearGradient id="linear-gradient-49" x1="722.93005" y1="355.49936" x2="786.51402" y2="355.49936" gradientTransform="translate(-18.64021 -32.28579)" gradientUnits="userSpaceOnUse">
      <stop offset="0" stop-color="#fff"/>
      <stop offset="0.98888" stop-color="#e6edf2"/>
    </linearGradient>
    <linearGradient id="linear-gradient-50" x1="732.04235" y1="357.42479" x2="775.14781" y2="357.42479" gradientTransform="translate(-18.64021 -32.28579)" xlink:href="#linear-gradient-6"/>
    <linearGradient id="linear-gradient-51" x1="712.50984" y1="359.4826" x2="789.82894" y2="359.4826" gradientTransform="translate(-18.64021 -32.28579)" xlink:href="#linear-gradient-3"/>
    <linearGradient id="linear-gradient-52" x1="729.47528" y1="280.83601" x2="808.97515" y2="385.9141" gradientTransform="translate(-18.64021 -32.28579)" xlink:href="#linear-gradient-6"/>
    <linearGradient id="linear-gradient-53" x1="698.01281" y1="255.88081" x2="815.89696" y2="411.69291" gradientTransform="translate(-18.64021 -32.28579)" xlink:href="#linear-gradient-6"/>
    <linearGradient id="linear-gradient-54" x1="812.5534" y1="348.69825" x2="786.87323" y2="288.47749" gradientTransform="translate(3.46411 6.00002)" xlink:href="#linear-gradient-48"/>
    <linearGradient id="linear-gradient-55" x1="746.01994" y1="253.6391" x2="785.3552" y2="253.6391" gradientTransform="translate(47.76727 82.73534)" xlink:href="#linear-gradient-49"/>
    <linearGradient id="linear-gradient-56" x1="735.59974" y1="257.62234" x2="788.67012" y2="257.62234" gradientTransform="translate(47.76727 82.73534)" xlink:href="#linear-gradient-3"/>
    <linearGradient id="linear-gradient-57" x1="747.936" y1="204.88243" x2="802.73144" y2="277.30771" gradientTransform="translate(47.76727 82.73534)" xlink:href="#linear-gradient-6"/>
    <linearGradient id="linear-gradient-58" x1="729.77753" y1="190.53688" x2="806.47833" y2="291.91534" gradientTransform="translate(47.76727 82.73534)" xlink:href="#linear-gradient-6"/>
    <linearGradient id="linear-gradient-59" x1="6352.15854" y1="421.51994" x2="6277.90999" y2="536.84215" gradientTransform="matrix(-1, 0, 0, 1, 7180.29398, 0)" xlink:href="#linear-gradient-9"/>
    <linearGradient id="linear-gradient-60" x1="804.95487" y1="408.33671" x2="827.67827" y2="441.5282" gradientUnits="userSpaceOnUse">
      <stop offset="0" stop-color="#75413e"/>
      <stop offset="0.98888" stop-color="#5b3c39"/>
    </linearGradient>
    <linearGradient id="linear-gradient-61" x1="818.10067" y1="399.33689" x2="840.82407" y2="432.52838" xlink:href="#linear-gradient-60"/>
    <linearGradient id="linear-gradient-62" x1="6392.77764" y1="447.67196" x2="6318.52909" y2="562.99418" gradientTransform="matrix(-1, 0, 0, 1, 7180.29398, 0)" xlink:href="#linear-gradient-9"/>
    <linearGradient id="linear-gradient-63" x1="6404.57847" y1="455.26976" x2="6330.32992" y2="570.59198" gradientTransform="matrix(-1, 0, 0, 1, 7180.29398, 0)" xlink:href="#linear-gradient-9"/>
  </defs>
  <g>
    <g>
      <polygon class="cls-1" points="524.524 81.236 931.17 316.004 931.17 711.22 524.524 476.43 524.524 81.236"/>
      <polygon class="cls-2" points="524.539 81.236 117.893 316.004 117.893 711.22 524.539 476.43 524.539 81.236"/>
    </g>
    <path class="cls-3" d="M124.91012,723.3864l378.58059,218.564a42.10143,42.10143,0,0,0,42.1011-.00062L924.153,723.38232a14.03381,14.03381,0,0,0,.00017-24.307L545.57541,480.49136a42.10142,42.10142,0,0,0-42.10407.00053l-378.562,218.58744A14.03381,14.03381,0,0,0,124.91012,723.3864Z"/>
    <path class="cls-4" d="M837.10812,710.93078c-36.18872,0-65.52563,16.86023-65.52563,37.65839,0,16.99494,19.60156,31.343,46.511,36.02814l81.616-47.12213C891.46628,722.11548,866.5737,710.93078,837.10812,710.93078Z"/>
  </g>
  <g>
    <path class="cls-5" d="M911.94193,441.46169l-.001,33.20418a2.93956,2.93956,0,0,1-4.40935,2.54567l-21.20631-12.24347a8.81868,8.81868,0,0,1-4.40935-7.63741l.001-33.20418a2.93956,2.93956,0,0,1,4.40935-2.54567l21.20631,12.24347A8.81868,8.81868,0,0,1,911.94193,441.46169Z"/>
    <ellipse class="cls-6" cx="895.58657" cy="450.58926" rx="5.7164" ry="9.91662" transform="translate(-105.30878 508.1608) rotate(-30)"/>
  </g>
  <g>
    <g>
      <path class="cls-7" d="M492.317,456.36969,148.96794,654.59929l-11.46524-6.61724V325.15794l343.34907-198.2411,11.46524-2.15873Z"/>
      <polygon class="cls-8" points="488.476 130.228 484.534 132.503 484.539 450.939 145.133 646.883 145.133 651.289 488.476 453.069 488.476 130.228"/>
      <path class="cls-9" d="M133.64483,321.83449v349.352l366.319-211.48426V110.32968Zm11.48824,6.63259L488.47555,130.22837l0,322.84092L145.13307,651.28867Z"/>
    </g>
    <polygon class="cls-10" points="373.071 515.291 368.071 518.178 368.071 199.762 373.071 196.875 373.071 515.291"/>
    <polygon class="cls-11" points="261.602 579.644 256.602 582.53 256.602 264.115 261.602 261.228 261.602 579.644"/>
    <g>
      <path class="cls-12" d="M317.32716,236.28326l-172.19409,99.549V649.23663a2.97181,2.97181,0,0,0,1.50513,2.60065l-.00025.00018,3.38843,1.94965-.40356-1.94727.01-.005,163.2008-94.2041a9,9,0,0,0,4.50074-7.79486l3.38391-311.60047Z"/>
      <path class="cls-13" d="M320.72542,551.78805l-.00712-313.55261-172.19412,99.549V651.18878a3,3,0,0,0,4.49976,2.59821l163.20076-94.2041A9,9,0,0,0,320.72542,551.78805Z"/>
      <g>
        <g class="cls-14">
          <polygon class="cls-12" points="170.336 643.766 168.037 645.094 168.037 326.502 170.336 325.175 170.336 643.766"/>
        </g>
        <g class="cls-14">
          <polygon class="cls-12" points="192.148 631.157 189.848 632.484 189.848 313.893 192.148 312.565 192.148 631.157"/>
        </g>
        <g class="cls-14">
          <polygon class="cls-12" points="213.959 618.547 211.66 619.875 211.66 301.283 213.959 299.956 213.959 618.547"/>
        </g>
        <g class="cls-14">
          <polygon class="cls-12" points="235.771 605.938 233.472 607.265 233.472 288.674 235.771 287.346 235.771 605.938"/>
        </g>
        <g class="cls-14">
          <polygon class="cls-12" points="257.583 593.328 255.283 594.656 255.283 276.064 257.583 274.737 257.583 593.328"/>
        </g>
        <g class="cls-14">
          <polygon class="cls-12" points="279.394 580.718 277.095 582.046 277.095 263.455 279.394 262.127 279.394 580.718"/>
        </g>
        <g class="cls-14">
          <polygon class="cls-12" points="301.206 568.109 298.907 569.436 298.907 250.845 301.206 249.517 301.206 568.109"/>
        </g>
      </g>
    </g>
    <g>
      <path class="cls-12" d="M495.056,133.64l-172.19409,99.549V546.59341a2.97179,2.97179,0,0,0,1.50513,2.60065l-.00025.00018,3.38843,1.94965-.40356-1.94727.01-.005,163.2008-94.2041a9,9,0,0,0,4.50073-7.79486l3.38392-311.60047Z"/>
      <path class="cls-15" d="M498.45429,449.14483l-.00712-313.55262L326.253,235.14119V548.54556a3,3,0,0,0,4.49976,2.59821l163.20076-94.2041A9,9,0,0,0,498.45429,449.14483Z"/>
      <g>
        <g class="cls-14">
          <polygon class="cls-12" points="348.065 541.123 345.765 542.451 345.765 223.859 348.065 222.532 348.065 541.123"/>
        </g>
        <g class="cls-14">
          <polygon class="cls-12" points="369.876 528.513 367.577 529.841 367.577 211.25 369.876 209.922 369.876 528.513"/>
        </g>
        <g class="cls-14">
          <polygon class="cls-12" points="391.688 515.904 389.389 517.231 389.389 198.64 391.688 197.312 391.688 515.904"/>
        </g>
        <g class="cls-14">
          <polygon class="cls-12" points="413.5 503.294 411.2 504.622 411.2 186.03 413.5 184.703 413.5 503.294"/>
        </g>
        <g class="cls-14">
          <polygon class="cls-12" points="435.311 490.685 433.012 492.012 433.012 173.421 435.311 172.093 435.311 490.685"/>
        </g>
        <g class="cls-14">
          <polygon class="cls-12" points="457.123 478.075 454.824 479.403 454.824 160.811 457.123 159.484 457.123 478.075"/>
        </g>
        <g class="cls-14">
          <polygon class="cls-12" points="478.935 465.466 476.635 466.793 476.635 148.202 478.935 146.874 478.935 465.466"/>
        </g>
      </g>
    </g>
    <g>
      <path class="cls-16" d="M495.97884,126.90289v6.03443l-14.83479,8.56338v-6.91923a3.36189,3.36189,0,0,1,1.68117-2.91161l10.70616-6.18013A1.63171,1.63171,0,0,1,495.97884,126.90289Z"/>
      <path class="cls-17" d="M153.57458,324.85462v6.03443l-14.83479,8.56338V332.5332a3.36189,3.36189,0,0,1,1.68117-2.91161l10.70616-6.18013A1.63171,1.63171,0,0,1,153.57458,324.85462Z"/>
      <path class="cls-18" d="M503.71437,133.44725,141.08814,342.85233l-3.92586-6.7998,362.63941-209.4127.00179.00311a1.97732,1.97732,0,0,1,1.95074.20783,6.13755,6.13755,0,0,1,2.78517,4.8041A1.92625,1.92625,0,0,1,503.71437,133.44725Z"/>
      <ellipse class="cls-17" cx="139.12521" cy="339.45243" rx="2.26305" ry="3.92587" transform="translate(-151.08697 115.04061) rotate(-30)"/>
    </g>
  </g>
  <g>
    <g>
      <g>
        <path class="cls-19" d="M227.522,69.95177a191.74878,191.74878,0,1,1-74.8872,15.113,191.17959,191.17959,0,0,1,74.8872-15.113m0-17.54224c-115.95068,0-209.94726,93.99658-209.94726,209.94751,0,115.95069,93.99658,209.94727,209.94726,209.94727S437.46924,378.30773,437.46924,262.357c0-115.95093-93.99658-209.94751-209.94727-209.94751Z"/>
        <circle class="cls-20" cx="227.522" cy="262.35693" r="194.19259"/>
        <path class="cls-21" d="M106.62266,388.71927l59.994,58.07422a193.9851,193.9851,0,0,0,60.90544,9.75594c107.2495,0,194.19253-86.94291,194.19253-194.19253a193.96865,193.96865,0,0,0-10.0168-61.70881l-63.90546-65.10092Z"/>
      </g>
      <rect class="cls-22" x="96.23889" y="131.07382" width="262.56622" height="262.56622" rx="25.40683"/>
      <g>
        <circle class="cls-19" cx="407.87164" cy="147.25692" r="62.02326"/>
        <g>
          <rect class="cls-22" x="386.81485" y="138.61469" width="13.46241" height="40.4658" transform="translate(2.94477 324.80447) rotate(-45)"/>
          <rect class="cls-22" x="413.02568" y="121.43382" width="13.46241" height="60.59444" transform="translate(609.27978 555.83402) rotate(-135)"/>
        </g>
      </g>
    </g>
    <path class="cls-23" d="M227.522,163.62741a98.72949,98.72949,0,1,0,98.72974,98.72949A98.72942,98.72942,0,0,0,227.522,163.62741Zm0,177.82861A79.09912,79.09912,0,1,1,306.6211,262.3569,79.099,79.099,0,0,1,227.522,341.456Z"/>
    <path class="cls-24" d="M148.42237,262.36081a78.96129,78.96129,0,0,0,31.18994,62.93994l-10.16992,16.88989a98.55032,98.55032,0,0,1-40.65015-79.82983Z"/>
    <path class="cls-25" d="M138.5374,261.88044l68.559-16.36191,20.96572,16.1226-19.78282,17.55414-69.53808-11.51141A2.96205,2.96205,0,0,1,138.5374,261.88044Z"/>
    <path class="cls-26" d="M286.68433,341.4028l-10.38867-16.79858a79.02874,79.02874,0,0,1-96.67627.68457L169.44,342.19406a98.74115,98.74115,0,0,0,117.24438-.79126Z"/>
    <circle class="cls-27" cx="227.522" cy="262.35693" r="42.56481"/>
    <circle class="cls-28" cx="227.522" cy="262.35693" r="33.22615"/>
    <g>
      <circle class="cls-29" cx="357.81513" cy="318.8215" r="37.51325"/>
      <polygon class="cls-22" points="376.828 312.674 363.963 312.674 363.963 299.808 351.667 299.808 351.667 312.674 338.802 312.674 338.802 324.97 351.667 324.97 351.667 337.835 363.963 337.835 363.963 324.97 376.828 324.97 376.828 312.674"/>
    </g>
    <g>
      <circle class="cls-30" cx="97.22887" cy="318.8215" r="37.51325"/>
      <rect class="cls-22" x="78.21553" y="312.67362" width="38.02667" height="12.29612"/>
    </g>
  </g>
  <g>
    <circle class="cls-31" cx="522.38695" cy="212.63531" r="47.59782"/>
    <polygon class="cls-32" points="826.426 640.154 297.105 640.154 297.105 521.393 490.702 216.245 554.082 216.245 680.702 413.333 684.509 419.244 826.426 640.154"/>
    <g>
      <circle class="cls-22" cx="522.38695" cy="228.29656" r="14.18311"/>
      <path class="cls-33" d="M554.08061,216.24665c0,10.05973-14.18974,18.21475-31.69366,18.21475s-31.69365-8.155-31.69365-18.21475,31.69365-18.929,31.69365-18.929S554.08061,206.18693,554.08061,216.24665Z"/>
    </g>
    <rect class="cls-34" x="520.37146" y="165.03748" width="4.03099" height="35.33083"/>
  </g>
  <g>
    <g>
      <path class="cls-35" d="M548.52111,465.02322v76.9897a1.74094,1.74094,0,0,0,2.611,1.50791l48.82657-28.17015a5.22282,5.22282,0,0,0,2.61249-4.52372V437.33929"/>
      <path class="cls-36" d="M479.202,425.1117v76.9897a1.74094,1.74094,0,0,0,2.61106,1.5079l63.08066-36.39966a5.22281,5.22281,0,0,0,2.61249-4.52372V389.19826"/>
      <g>
        <path class="cls-37" d="M604.80363,398.221v41.964a3.498,3.498,0,0,1-1.74672,3.04229l-51.70209,29.89431a6.99685,6.99685,0,0,1-3.508.93164L533.5927,398.221Z"/>
        <path class="cls-38" d="M547.8468,398.221V474.0533a6.99722,6.99722,0,0,1-3.50838-.93164L478.397,434.99784a3.48239,3.48239,0,0,1-1.76148-3.04229v-41.964Z"/>
        <polygon class="cls-39" points="542.463 462.801 482.02 427.872 482.04 401.11 542.463 436.051 542.463 462.801"/>
        <path class="cls-40" d="M476.63551,382.19818v7.65773a3.47237,3.47237,0,0,0,1.75076,3.03443l65.95179,38.12776a7.01028,7.01028,0,0,0,7.017,0l51.69781-29.89825a3.47232,3.47232,0,0,0,1.75076-3.03442v-7.65774Z"/>
        <path class="cls-41" d="M603.05287,387.39327,537.101,349.26556a7.01,7.01,0,0,0-7.017,0l-51.69779,29.8982a3.505,3.505,0,0,0,0,6.06884l65.95189,38.12771a7.01,7.01,0,0,0,7.017,0l51.69779-29.8982A3.505,3.505,0,0,0,603.05287,387.39327Z"/>
      </g>
    </g>
    <g>
      <g>
        <path class="cls-42" d="M565.2579,382.21236c-2.62966-6.41617-12.6044-11.19641-24.53836-11.19641s-21.9087,4.78024-24.53827,11.19641h-.70019v3.35219c0,8.035,11.29961,14.5486,25.23846,14.5486s25.23855-6.51362,25.23855-14.5486v-3.35219Z"/>
        <ellipse class="cls-43" cx="540.71959" cy="381.7186" rx="25.23852" ry="14.54865"/>
      </g>
      <path class="cls-44" d="M537.41257,341.23614v37.46434c0,1.05282,1.4806,1.90631,3.307,1.90631s3.307-.85349,3.307-1.90631V341.23614Z"/>
      <path class="cls-45" d="M506.77663,308.42788V339.543c0,10.77367,15.19673,19.50744,33.943,19.50744s33.943-8.73377,33.943-19.50744V308.42788Z"/>
      <path class="cls-46" d="M506.32123,303.11249V334.6451c0,10.91822,15.40061,19.76917,34.39838,19.76917s34.39839-8.851,34.39839-19.76917V303.11249Z"/>
      <g>
        <ellipse class="cls-12" cx="540.71959" cy="303.11259" rx="34.3984" ry="19.76919"/>
        <path class="cls-47" d="M533.30186,320.87788a33.58129,33.58129,0,0,0,14.83536,0V310.26H533.30186Z"/>
        <ellipse class="cls-48" cx="540.71959" cy="310.26008" rx="7.41771" ry="4.27591"/>
        <path class="cls-49" d="M540.71957,285.03884c18.03247,0,32.70279,8.10781,32.70279,18.0737s-14.67032,18.07385-32.70279,18.07385-32.70278-8.108-32.70278-18.07385,14.67032-18.0737,32.70278-18.0737m0-1.69547c-18.99762,0-34.39838,8.851-34.39838,19.76917,0,10.91832,15.40076,19.76931,34.39838,19.76931s34.39839-8.851,34.39839-19.76931c0-10.91818-15.40076-19.76917-34.39839-19.76917Z"/>
      </g>
    </g>
  </g>
  <path class="cls-50" d="M316.42918,724.90815,522.76686,844.03179a19.45664,19.45664,0,0,0,19.45858-.00149l283.094-163.49471a9.72834,9.72834,0,0,0-.00064-16.849L619.04382,544.57764a19.45665,19.45665,0,0,0-19.45765-.00057L316.429,708.05809A9.72833,9.72833,0,0,0,316.42918,724.90815Z"/>
  <g>
    <g>
      <g>
        <path class="cls-51" d="M833.88188,466.5933,629.011,345.49021a2.97453,2.97453,0,0,0-3.24439.12842v-.00012l-18.09561,10.467,18.58033,10.86817v87.31482L838.302,566.27073V474.34092A9.00016,9.00016,0,0,0,833.88188,466.5933Z"/>
        <path class="cls-52" d="M606.251,358.6355V465.85306L820.06874,576.83347V484.9037a9,9,0,0,0-4.42023-7.74762L610.77762,356.053A3,3,0,0,0,606.251,358.6355Z"/>
        <path class="cls-53" d="M820.06859,484.9037V585.58345l-286.14844,33.8783V829.94252a18.73026,18.73026,0,0,0,9.42432-2.50567L833.64589,659.5616a9.61615,9.61615,0,0,0,4.65356-8.58051l.00269-66.74377V474.341Z"/>
        <path class="cls-54" d="M533.92023,619.46178V829.94252a18.60414,18.60414,0,0,1-9.28406-2.50566L326.33307,712.95209a9.23427,9.23427,0,0,1-4.66546-7.95644V637.61851Z"/>
        <g>
          <path class="cls-55" d="M820.06874,566.5459v35.20094l-.00936-.00936a9.25254,9.25254,0,0,1-4.64668,8.49867L543.34193,767.36408a18.63645,18.63645,0,0,1-9.42432,2.50567V590.84527Z"/>
          <path class="cls-56" d="M820.06874,580.48642v35.20093l-.00936-.00936a9.25255,9.25255,0,0,1-4.64668,8.49868L543.34193,781.3046a18.63654,18.63654,0,0,1-9.42432,2.50566V604.78579Z"/>
          <path class="cls-57" d="M533.91761,604.78579V783.81026a18.62156,18.62156,0,0,1-9.2747-2.50566L326.33975,666.81983a9.267,9.267,0,0,1-4.67475-8.10607V622.81167Z"/>
          <path class="cls-12" d="M731.20408,568.10614v84.7818L543.34381,761.38681a18.63076,18.63076,0,0,1-9.42,2.50853V584.87655Z"/>
          <path class="cls-58" d="M820.073,560.563v35.20734h-.01756a9.24737,9.24737,0,0,1-4.64853,8.4904l-84.20287,48.62721v-84.7818Z"/>
          <path class="cls-59" d="M533.91761,584.87077V763.89524a18.62156,18.62156,0,0,1-9.2747-2.50566L326.33975,646.90481a9.267,9.267,0,0,1-4.67475-8.10607V602.89665Z"/>
          <path class="cls-60" d="M326.33731,611.38031,524.64015,725.86524a18.699,18.699,0,0,0,18.70086-.00143l272.0702-157.12819a9.34951,9.34951,0,0,0-.0006-16.19293L617.16807,438.0719a18.69906,18.69906,0,0,0-18.7-.00054l-272.13095,157.115A9.34951,9.34951,0,0,0,326.33731,611.38031Z"/>
          <path class="cls-61" d="M728.36546,614.90427,515.17982,491.80519a20.02132,20.02132,0,0,0-5.92779-2.2249L326.33708,595.18635a9.34949,9.34949,0,0,0,.00043,16.19394L524.64006,725.8652a18.69868,18.69868,0,0,0,18.70075-.00139l187.871-108.50069A10.04941,10.04941,0,0,0,728.36546,614.90427Z"/>
        </g>
      </g>
      <path class="cls-62" d="M833.64589,460.77641V659.5616l-5.26978,3.0474V460.77641a6.59747,6.59747,0,0,0-3.23022-5.67l-209.75-123.99a.392.392,0,0,0-.43994,0,.40027.40027,0,0,0-.22.38v20.51l-5.27,3.04v-23.55a5.702,5.702,0,0,1,8.61011-4.91l209.75,123.99A11.8953,11.8953,0,0,1,833.64589,460.77641Z"/>
    </g>
    <path class="cls-63" d="M809.36419,656.44292,559.8262,800.7476a9,9,0,0,0-4.49452,7.79106v11.96621l258.52514-149.4997.00919-11.96292A3,3,0,0,0,809.36419,656.44292Z"/>
  </g>
  <g>
    <path class="cls-58" d="M563.57273,462.3609c.20371-.21975,39.81729-22.94042,39.81729-22.94042-.20613-1.37548.13953-2.57082,1.0243-3.0308,1.00433-.522,2.38667.05866,3.467,1.31608,10.36242-4.28939,20.06192-2.852,47.40061,12.69117,35.43143,20.14428,44.62807,31.92491,45.51431,43.23314,2.466,1.17123,3.31124,2.63359,2.74776,4.10938-.52156,1.366-2.14659,1.47578-4.41352.93409-.27192-.065-.54653-.07637-.80639-.13536l-37.38326,21.46547c.3562,1.57994-.246,3.69466-1.241,4.19256-1.30755.65449-3.17773-.702-4.01387-3.33395l-.00092-.00209c-16.29735-.6754-34.383-12.57052-49.1134-21.8596-12.24116-7.71949-37.18425-18.15531-42.79683-31.39341-2.16333-.005-4.17084-1.30135-4.25281-2.67082C559.43882,463.54323,561.3703,462.59411,563.57273,462.3609Z"/>
    <path class="cls-58" d="M668.87762,525.94854c.20371-.21975,39.81728-22.94043,39.81728-22.94043-.20613-1.37548-.53392-3.0027.35085-3.46267,1.00433-.52206,3.06012.49053,4.14049,1.748,13.74332-2.90175,20.06192-2.852,47.40061,12.69117,35.43143,20.14428,37.58278,29.16356,45.51431,43.23314,2.466,1.17123,3.78082,1.96279,3.21734,3.43857-.52156,1.366-3.95443,2.0728-5.68948,1.46955l-37.38326,21.46546c.35619,1.57994-.246,3.69466-1.241,4.19256-1.30756.65449-3.17774-.702-4.01387-3.334l-.00092-.00209c-16.29735-.6754-38.4884-10.59834-53.21876-19.88741-12.24117-7.7195-33.0789-20.1275-38.69147-33.36559-2.16333-.005-4.27247-1.08622-4.35444-2.45569C664.64208,527.346,666.67519,526.18174,668.87762,525.94854Z"/>
  </g>
  <g>
    <path class="cls-5" d="M559.87921,452.81181c.20371-.21975,39.81729-22.94043,39.81729-22.94043-.20613-1.37548.13953-2.57082,1.0243-3.03079,1.00433-.52206,2.38667.05865,3.467,1.31607,10.36243-4.28938,20.06192-2.852,47.40061,12.69117,35.43143,20.14428,44.62807,31.92492,45.51431,43.23314,2.466,1.17123,3.31124,2.6336,2.74776,4.10938-.52156,1.366-2.14659,1.47578-4.41352.9341-.27192-.065-.54653-.07637-.80639-.13536l-37.38326,21.46546c.3562,1.57994-.246,3.69466-1.241,4.19257-1.30755.65448-3.17773-.702-4.01387-3.334l-.00092-.00209c-16.29735-.6754-34.383-12.57052-49.1134-21.8596-12.24116-7.71949-37.18425-18.15531-42.79683-31.3934-2.16332-.005-4.17084-1.30135-4.25281-2.67082C555.7453,453.99413,557.67678,453.045,559.87921,452.81181Z"/>
    <path class="cls-5" d="M665.1841,516.39944c.20371-.21975,39.81728-22.94042,39.81728-22.94042-.20613-1.37549-.53392-3.00271.35085-3.46268,1.00433-.522,3.06013.49054,4.14049,1.748,13.74332-2.90175,20.06192-2.852,47.40062,12.69117,35.43142,20.14427,37.58277,29.16355,45.5143,43.23314,2.466,1.17122,3.78082,1.96278,3.21734,3.43856-.52156,1.366-3.95443,2.07281-5.68948,1.46955l-37.38326,21.46546c.35619,1.57995-.246,3.69466-1.241,4.19257-1.30756.65449-3.17774-.702-4.01387-3.33395l-.00092-.00209c-16.29735-.67541-38.4884-10.59834-53.21876-19.88742-12.24117-7.71949-33.0789-20.1275-38.69147-33.36559-2.16333-.005-4.27247-1.08622-4.35444-2.45569C660.94856,517.7969,662.98167,516.63264,665.1841,516.39944Z"/>
  </g>
  <g>
    <g>
      <polygon class="cls-64" points="771.149 304.223 771.189 394.925 693.909 350.171 693.87 259.469 771.149 304.223"/>
      <polygon class="cls-65" points="767.843 302.314 767.874 380.942 704.321 344.113 704.29 265.485 767.843 302.314"/>
      <polygon class="cls-66" points="756.487 310.97 756.508 364.275 713.423 339.308 713.402 286.003 756.487 310.97"/>
      <path class="cls-67" d="M766.85144,387.41831l-68.61231-39.7495-.03221-80.69349,68.61233,39.74951.03219,80.69348m4.33729,7.5063-.03922-90.70187L693.86964,259.469l.03924,90.70188,77.27985,44.75371Z"/>
      <polygon class="cls-68" points="698.76 256.638 776.04 301.392 771.149 304.223 693.87 259.469 698.76 256.638"/>
      <polygon class="cls-69" points="776.04 301.392 776.063 392.103 771.189 394.925 771.149 304.223 776.04 301.392"/>
    </g>
    <g>
      <polygon class="cls-70" points="836.398 326.384 836.437 385.085 783.406 354.332 783.367 295.63 836.398 326.384"/>
      <polygon class="cls-71" points="833.092 324.475 833.122 371.103 793.818 348.274 793.787 301.646 833.092 324.475"/>
      <path class="cls-72" d="M832.1001,377.57918l-44.3636-25.7495-.03221-48.69349,44.36362,25.74951.03219,48.69348m4.33729,7.5063-.03922-58.70187L783.367,295.62989l.03924,58.70188,53.03114,30.75371Z"/>
      <polygon class="cls-73" points="788.258 292.799 841.289 323.552 836.398 326.384 783.367 295.63 788.258 292.799"/>
      <polygon class="cls-74" points="841.289 323.552 841.312 382.264 836.437 385.085 836.398 326.384 841.289 323.552"/>
    </g>
  </g>
  <g>
    <path class="cls-75" d="M863.35787,733.44554s2.11365,5.78846.958,9.37083-7.82879,4.841-11.23029,1.56859c-2.94249-2.83085-2.54668-3.245-5.42657-7.385-3.00754-4.32342-8.18549-9.74078-8.64916-14.39553-1.06711-10.71259,13.26983-5.39364,13.26983-5.39364Z"/>
    <path class="cls-76" d="M864.63671,726.55837s.83481,8.96321-.32081,12.54557-7.82879,4.841-11.23029,1.56859c-2.94249-2.83085-2.31815-3.73327-5.198-7.87319-3.00755-4.32342-7.21948-8.77708-7.43908-11.63925-.82357-10.73406,11.83121-7.6617,11.83121-7.6617Z"/>
    <path class="cls-75" d="M847.61023,733.52687s-.5716-5.90707.60134-7.64007l7.287-10.76643-6.29211-.31311s-4.39709,1.18291-6.42763,3.436a8.57708,8.57708,0,0,0-2.36886,4.223Z"/>
    <path class="cls-76" d="M862.81338,563.79072l-.59245,84.03477c3.3175,25.35519,2.20519,44.44884,1.89572,70.73369l.52,7.99927-13.77148-1.23593s-22.3961-99.69814-22.86494-149.46171Z"/>
    <path class="cls-77" d="M862.81338,563.79072l3.31746,78.97965c.373,16.23476-32.464,17.77225-34.00426,4.5023,0,0-3.65746-21.64829-4.1263-71.41186Z"/>
    <path class="cls-75" d="M822.97015,755.99531c.97851.58756,2.80451,4.55384,1.8953,7.264s-3.52833,3.79667-7.09259,3.79667-6.91743-1.19244-12.945-1.73886c-8.10788-.735-12.59856.079-17.7873-2.54162-6.66841-3.36791-3.53019-10.85952,1.97944-11.36629,1.6683-.15345,6.69472-.19926,6.69472-.19926l12.89629-3.33583S821.99164,755.40775,822.97015,755.99531Z"/>
    <path class="cls-76" d="M822.16572,747.54487l-.2036-6.77316-13.97471-.21726.20025,6.07937L795.185,749.78968s-4.5542.30385-6.12242.448c-5.17937.47652-7.1335,5.97449-.99748,9.38964,6.04267,3.36348,9.85208,2.11588,17.47361,2.807,5.66607.51345,8.065,1.21678,11.41553,1.21678s5.81245-1.021,6.66715-3.56877S822.16572,747.54487,822.16572,747.54487Z"/>
    <path class="cls-76" d="M794.362,582.18387c0,45.80964,13.6254,158.37058,13.6254,158.37058l14.10817,4.65711s8.87691-45.08558,6.47655-78.4289l5.84063-73.38474Z"/>
    <path class="cls-75" d="M862.81335,563.79067l-2.004-36.0952L796.17873,536.055s-1.81672,26.05166-1.81672,46.12889c0,16.96751.56131,65.32576.56131,65.32576.27646,20.61583,37.95365,21.01076,37.95365,1.73774l1.53579-55.84945Z"/>
    <g>
      <path class="cls-76" d="M887.40247,464.91478l-1.11852-9.40647a7.396,7.396,0,0,1,.27049-3.585s3.19484-10.37625,6.1613-10.4329,6.10984,3.21421,6.4837,6.0738.79411,7.89019-.37753,11.51982a82.45542,82.45542,0,0,1-3.63783,8.66616S887.4491,468.76475,887.40247,464.91478Z"/>
      <path class="cls-76" d="M878.39247,478.28811l9.88678-14.6392,8.45937.13506s-4.24092,23.35006-7.72229,29.82778c-3.48136,6.47794-8.09927,11.46418-13.25082,8.84663-1.52126-.77312-19.20158-12.01067-19.20158-12.01067l-5.10753-44.57927C865.01563,449.91713,878.194,477.3063,878.39247,478.28811Z"/>
      <path class="cls-78" d="M880.88181,479.22608c5.92409,11.315-5.8796,23.2489-13.50691,19.46193-1.52843-.75885-10.811-8.2403-10.811-8.2403l-5.84536-45.11425C865.14349,450.13882,880.88181,479.22608,880.88181,479.22608Z"/>
      <path class="cls-79" d="M860.33033,493.44615c.86619-4.93374,3.30961-18.47966,3.30961-18.47966l1.13855,21.91746C863.42649,495.87065,861.78911,494.59563,860.33033,493.44615Z"/>
    </g>
    <g>
      <path class="cls-80" d="M810.98543,412.53809s-3.90858,4.06233-.707,9.88894a23.83609,23.83609,0,0,0,3.79714,5.10042l1.8102-9.724Z"/>
      <path class="cls-76" d="M820.56161,445.84569c8.25651-.56692,13.16562-4.18045,14.80872-11.60171l3.52613-16.05033c1.60335-6.435-3.25975-13.54721-10.87713-14.75423-6.65749-1.05492-14.63341,3.37808-15.8056,10.75256a110.90367,110.90367,0,0,0-1.18669,16.46793C811.1944,438.02811,813.05824,446.3609,820.56161,445.84569Z"/>
      <path class="cls-76" d="M838.04374,444.12246l-1.52038-11.16241c-2.63636-6.62872-16.258,2.98724-15.4059,7.87449l.7759,8.06022C827.193,448.37972,838.04374,444.12246,838.04374,444.12246Z"/>
      <path class="cls-81" d="M810.60116,416.958c-1.70926-.63917-2.69629-1.79721-2.89344-4.339-.26641-3.43443,1.43347-4.93785,2.70685-6.41986,1.44047-1.67646.78365-4.32984,3.98436-6.07734,3.33654-1.82166,5.81231-.31483,9.43363-.38534,2.67663-.05212,4.66357-1.33906,7.40451-.74046,3.94843.8623,3.8985,2.60834,7.05011,4.5401,3.33806,2.046,4.81825,1.91582,6.78517,5.17961,1.68969,2.80379,1.03088,6.0348.62125,9.194-.33081,2.55136.64372,4.76736-.42492,7.40028-1.57807,3.88805-4.25986,4.08469-4.96323,6.53044a17.83282,17.83282,0,0,1-3.04335,6.5434c-3.44,1.43971-9.5317.72645-9.806-4.9104l-4.61653-2.87643c-.98483.35678-2.17143.35165-2.59272-.7055-.36172-.90764-.07057-3.45692-.01117-4.33862.13258-1.96787-2.50564-2.49649-3.64842-3.60058-2.618-2.52936-1.15744-2.39078-3.12756-4.09125C812.34227,416.89655,812.4451,417.6475,810.60116,416.958Z"/>
      <path class="cls-76" d="M823.26715,436.82541c2.696.5148,5.68434-2.81625,6.26851-5.87557s-1.573-6.13979-4.153-5.20319C822.14392,426.92239,820.57113,436.31061,823.26715,436.82541Z"/>
    </g>
    <path class="cls-82" d="M832.4036,444.3931c17.96917-3.49585,33.58778,4.15185,31.61309,26.96383l-3.42724,32.83919,2.2239,48.68611c.27646,8.4122-4.16937,15.48382-18.00922,21.56367-17.61429,7.738-50.66488,3.04-50.36313-10.77687l4.26534-52.41622L795.758,472.20753C798.785,461.03076,817.36517,447.31879,832.4036,444.3931Z"/>
    <path class="cls-79" d="M794.441,563.66913l2.64593-32.51547,9.92158-37.3955,8.80711-4.4611-1.7976,22.93646a107.30341,107.30341,0,0,1-7.77433,32.52047l-10.00743,24.26988A8.53839,8.53839,0,0,1,794.441,563.66913Z"/>
    <path class="cls-76" d="M789.71431,593.8187l.11672-9.38775-.03584,2.88239c.693,2.0301,2.35164,1.25884,2.66787-.47733l.41372-4.725a8.84343,8.84343,0,0,0-.44423-2.25262l-2.06651-6.348-8.3511-3.60139s-1.94956,10.60638-1.94956,13.72639a11.88675,11.88675,0,0,0,2.92287,7.54122l3.74678,3.87869A1.6916,1.6916,0,0,0,789.71431,593.8187Z"/>
    <path class="cls-76" d="M805.36823,531.131c-2.92132,10.47576-15.00219,42.37948-15.00219,42.37948l-8.3511-3.60139,6.3129-42.93483,8.3727-53.67222,18.00923,17.35633S808.28956,520.65521,805.36823,531.131Z"/>
    <path class="cls-83" d="M812.1671,513.932c-2.01418,11.61113-24.82661,6.7498-23.36609-4.10513,0,0,4.61659-29.96489,7.11076-38.13279,3.79031-12.41244,21.78811,1.275,19.90383,17.60293Z"/>
    <path class="cls-75" d="M804.19093,747.60386a6.375,6.375,0,0,0-2.366,5.1373c-.09912,3.63777,4.08872,9.28256,4.08872,9.28256l4.709,1.00254-16.26059-.375-5.53569-1.72074s.20131-9.69015,3.31145-10.96383S804.19093,747.60386,804.19093,747.60386Z"/>
  </g>
</svg>
