<svg id="Layer_1" data-name="Layer 1" xmlns="http://www.w3.org/2000/svg" xmlns:xlink="http://www.w3.org/1999/xlink" viewBox="0 0 1000 1000">
  <defs>
    <style>
      .cls-1 {
        fill: url(#linear-gradient);
      }

      .cls-2 {
        fill: url(#linear-gradient-2);
      }

      .cls-3 {
        fill: #6b483c;
      }

      .cls-4 {
        fill: url(#linear-gradient-3);
      }

      .cls-5 {
        fill: #366d26;
      }

      .cls-6 {
        fill: url(#linear-gradient-4);
      }

      .cls-7 {
        fill: url(#linear-gradient-5);
      }

      .cls-8 {
        fill: #87a1af;
      }

      .cls-9 {
        fill: #b8cbd8;
      }

      .cls-10 {
        fill: #9bb0c4;
      }

      .cls-11 {
        fill: #394651;
      }

      .cls-12 {
        fill: #f2f2f2;
      }

      .cls-13 {
        fill: #49555e;
      }

      .cls-14 {
        fill: #444;
      }

      .cls-15 {
        fill: #a0674a;
      }

      .cls-16 {
        fill: url(#linear-gradient-6);
      }

      .cls-17 {
        fill: #d8d8d8;
      }

      .cls-18 {
        fill: #cecece;
      }

      .cls-19 {
        fill: #fff;
      }

      .cls-20 {
        fill: url(#linear-gradient-7);
      }

      .cls-21 {
        fill: #bf7d51;
      }

      .cls-22 {
        fill: #e2786d;
      }

      .cls-23 {
        fill: url(#linear-gradient-8);
      }

      .cls-24 {
        fill: #dd7b19;
      }

      .cls-24, .cls-38, .cls-40 {
        opacity: 0.5;
      }

      .cls-25 {
        fill: #27343d;
      }

      .cls-26 {
        fill: #303d49;
      }

      .cls-27 {
        fill: url(#linear-gradient-9);
      }

      .cls-28 {
        fill: #ef8e73;
      }

      .cls-29 {
        fill: url(#linear-gradient-10);
      }

      .cls-30 {
        fill: #ffcd5c;
      }

      .cls-31 {
        fill: #e9e9e9;
      }

      .cls-32 {
        fill: url(#linear-gradient-11);
      }

      .cls-33 {
        fill: url(#linear-gradient-12);
      }

      .cls-34 {
        fill: url(#linear-gradient-13);
      }

      .cls-35 {
        fill: #a3bbce;
      }

      .cls-36 {
        fill: #cddce8;
      }

      .cls-37 {
        fill: #dde9f2;
      }

      .cls-39, .cls-40 {
        fill: #5e798e;
      }

      .cls-41 {
        fill: #fbfbfb;
      }

      .cls-42 {
        fill: #5b3c39;
      }
    </style>
    <linearGradient id="linear-gradient" x1="85.34704" y1="420.95711" x2="926.7192" y2="420.95711" gradientUnits="userSpaceOnUse">
      <stop offset="0" stop-color="#e6f4ff"/>
      <stop offset="1" stop-color="#c0e3ff"/>
    </linearGradient>
    <linearGradient id="linear-gradient-2" x1="85.37673" y1="514.30577" x2="602.56109" y2="514.30577" gradientUnits="userSpaceOnUse">
      <stop offset="0.00005" stop-color="#9dcc52"/>
      <stop offset="1" stop-color="#649e3f"/>
    </linearGradient>
    <linearGradient id="linear-gradient-3" x1="314.5191" y1="219.11852" x2="314.5191" y2="426.34894" gradientUnits="userSpaceOnUse">
      <stop offset="0" stop-color="#77bf49"/>
      <stop offset="0.99995" stop-color="#366d26"/>
    </linearGradient>
    <linearGradient id="linear-gradient-4" x1="73.34543" y1="153.62865" x2="221.66003" y2="493.38481" xlink:href="#linear-gradient-3"/>
    <linearGradient id="linear-gradient-5" x1="85.37673" y1="665.91293" x2="926.7192" y2="665.91293" xlink:href="#linear-gradient-2"/>
    <linearGradient id="linear-gradient-6" x1="199.12766" y1="401.23885" x2="1250.9077" y2="401.23885" gradientUnits="userSpaceOnUse">
      <stop offset="0.00005" stop-color="#e6ac72"/>
      <stop offset="1" stop-color="#b3703f"/>
    </linearGradient>
    <linearGradient id="linear-gradient-7" x1="170.53191" y1="528.23063" x2="841.15924" y2="528.23063" xlink:href="#linear-gradient-6"/>
    <linearGradient id="linear-gradient-8" x1="596.8661" y1="325.59655" x2="680.11404" y2="492.91667" gradientUnits="userSpaceOnUse">
      <stop offset="0.00005" stop-color="#ffcb48"/>
      <stop offset="1" stop-color="#e68e2b"/>
    </linearGradient>
    <linearGradient id="linear-gradient-9" x1="614.95462" y1="316.28304" x2="703.04294" y2="493.33186" xlink:href="#linear-gradient-8"/>
    <linearGradient id="linear-gradient-10" x1="655.09537" y1="296.31154" x2="743.18369" y2="473.36035" xlink:href="#linear-gradient-8"/>
    <linearGradient id="linear-gradient-11" x1="615.94892" y1="265.7882" x2="649.31062" y2="313.10735" gradientUnits="userSpaceOnUse">
      <stop offset="0" stop-color="#75413e"/>
      <stop offset="0.98888" stop-color="#5b3c39"/>
    </linearGradient>
    <linearGradient id="linear-gradient-12" x1="637.20799" y1="250.79979" x2="670.56969" y2="298.11894" xlink:href="#linear-gradient-11"/>
    <linearGradient id="linear-gradient-13" x1="280.82979" y1="544.51315" x2="946.24851" y2="544.51315" xlink:href="#linear-gradient-6"/>
  </defs>
  <path class="cls-1" d="M85.3763,512.7967s-2.42713-89.31382,36.92931-127.58839,101.191-29.83446,150.323-53.496,68.673-70.454,112.94077-112.54122,137.159-27.051,188.88841,3.59733S659.04237,296.631,709.319,324.07086,833.84975,358.2208,862.216,367.47715,926.7192,396.71887,926.7192,436.591V648.65747l-841.3429-3.677Z"/>
  <path class="cls-2" d="M85.37673,631.38824c0-58.422,53.3732-112.67951,106.51646-141.91955s101.21157-50.56714,135.85069-76.63038,69.5608-68.2392,117.15563-93.95547,111.54713-17.99148,111.54713-17.99148l46.11445,25.98769v91.81644L175.99123,728.80822l-90.6145-62.13307Z"/>
  <g>
    <path class="cls-3" d="M320.68737,456.13045V381.014h-12.3367v75.14035h.00563a3.10681,3.10681,0,0,0,1.8153,2.4911,9.6434,9.6434,0,0,0,8.725.01569A3.02659,3.02659,0,0,0,320.68737,456.13045Z"/>
    <path class="cls-4" d="M261.54275,355.88328c0-7.63483,2.4907-14.4736,6.43072-19.14837a37.15756,37.15756,0,0,1-2.77653-10.67662c-1.16349-10.43154,1.9801-20.00572,7.594-25.70119-.59184-6.63456,1.531-12.63629,5.61385-15.8413a33.70036,33.70036,0,0,1-.34688-4.81768c0-13.065,7.30838-23.84357,16.719-25.31344-.02043-.42862-.04087-.83692-.04087-1.26566,0-17.94389,8.47212-32.47866,18.90341-32.47866,9.16588,0,16.8007,11.20728,18.5361,26.04831,3.77654,1.87806,6.71629,6.757,7.71656,12.88125,5.30759,3.59276,10.064,10.207,12.65659,18.4951,2.24574,7.22652,2.42915,14.351.91853,20.02615,3.61333,2.61293,6.08334,7.77774,6.08334,13.69774a19.33447,19.33447,0,0,1-2.30654,9.30879v.02043c8.3084,4.59316,12.37077,17.49483,9.14544,31.09052a38.54978,38.54978,0,0,1-6.20594,13.73872c5.16481,6.83865,6.10377,18.02562,1.65365,28.70212a33.61871,33.61871,0,0,1-13.12632,15.882c-4.69508,8.186-10.69693,13.39159-17.49471,16.33122-4.75663,7.839-12.43233,12.28928-19.72,10.55414-4.75638-1.12287-8.431-4.69533-10.65631-9.53344a34.05523,34.05523,0,0,1-13.63643-8.65553c-8.18605-3.6745-15.47374-12.1055-18.94428-23.23117a40.67269,40.67269,0,0,1-.9594-21.80216A30.31017,30.31017,0,0,1,261.54275,355.88328Z"/>
    <path class="cls-5" d="M366.38894,352.21128a38.43549,38.43549,0,0,1-6.202,13.73638c5.16838,6.84533,6.11026,18.032,1.65381,28.6904a33.55707,33.55707,0,0,1-13.13912,15.89562c-4.68609,8.17753-10.6811,13.3919-17.48059,16.33207-4.75479,7.83305-12.42718,12.28935-19.73167,10.54357-4.75508-1.12554-8.43032-4.6861-10.6584-9.53286a33.79275,33.79275,0,0,1-13.62169-8.66c17.36423,2.78811,27.64156-3.35657,28.162-21.79909,6.68992,3.85669,14.021-2.20364,9.81783-10.51216,14.36885.782,19.74494-17.98549,10.41941-27.45817,15.77685-3.62545,18.70927-24.15238,5.03028-30.23187,9.889-4.94862,14.60759-15.52265,12.81793-31.12267,3.62925,2.61868,6.087,7.78707,6.087,13.69053a19.45118,19.45118,0,0,1-2.29706,9.32606c6.3859,3.51443,10.24508,11.94474,10.24508,21.82208A39.931,39.931,0,0,1,366.38894,352.21128Z"/>
  </g>
  <g>
    <path class="cls-3" d="M183.04451,543.83888V378.23133H155.84607v165.6603h.01241c.04079,1.98689,1.36892,3.97112,4.00215,5.49209,5.3285,3.07608,13.941,3.0916,19.23582.03458C181.75805,547.88136,183.07022,545.8599,183.04451,543.83888Z"/>
    <path class="cls-6" d="M256.61257,315.83139a135.09388,135.09388,0,0,0,.29468-18.03176c-1.695-32.88574-14.58838-59.79625-30.40339-66.415.143-.55281.35989-1.07026.46833-1.63761,2.46427-12.836-4.927-24.43092-16.50887-25.89762-.09823-.01218-.1941.00668-.29153-.00432-4.37848-32.84841-20.92743-50.55052-40.72646-50.55052-19.38726,0-35.65175,16.9831-40.43256,48.529-17.25695,9.1974-32.36082,36.6953-36.91689,70.79117-.61135,4.57257-.96025,9.05949-1.15591,13.47254a25.90482,25.90482,0,0,0-14.97735,18.96607,23.85645,23.85645,0,0,0,2.036,15.327c-7.41324,8.84026-12.06046,21.3058-12.06046,35.16024A59.46128,59.46128,0,0,0,68.338,372.24594c-7.71027,11.33242-10.9737,27.29163-7.77078,44.29792,3.7907,20.12788,15.69322,36.62182,30.31617,44.69317,9.21194,16.44915,22.06448,25.84182,37.22728,30.95109,9.63234,15.38008,24.54762,25.29216,41.33466,25.29216s31.70311-9.91208,41.33624-25.29216c15.11879-5.09512,27.94462-14.44811,37.15106-30.812,12.36456-4.77413,22.50846-16.56663,25.34834-31.35617a38.66712,38.66712,0,0,0-3.93686-26.34317,70.55449,70.55449,0,0,0,11.24951-26.7561C285.54181,351.14564,275.30362,327.32607,256.61257,315.83139Z"/>
    <path class="cls-5" d="M280.58105,376.94189a69.31381,69.31381,0,0,1-11.26523,26.71445,38.65926,38.65926,0,0,1,3.99029,26.39306c-2.89646,14.74122-13.00342,26.52155-25.36248,31.3495-9.20487,16.35054-22.015,25.68467-37.1432,30.77-9.65592,15.38518-24.59083,25.29845-41.32681,25.29845-16.802,0-31.73611-9.91327-41.392-25.29845-15.12744-5.0853-28.002-14.48387-37.20764-30.96327,38.21977,10.25458,63.52409-6.35222,64.95189-46.60581,30.52366,16.31925,65.30721-8.33414,57.09938-44.35292,27.65662-8.35733,33.95693-49.72024,9.84922-68.87892,20.81113-16.02482,26.98448-46.72121,3.73255-69.97315,15.83623,6.63058,28.71078,33.53835,30.38453,66.43273a139.49224,139.49224,0,0,1-.25774,18.02429C275.30205,327.31036,285.53788,351.12835,280.58105,376.94189Z"/>
  </g>
  <path class="cls-7" d="M94.52982,681.77854,478.60008,903.51183a54.91669,54.91669,0,0,0,54.91627-.0008l384.05023-221.7366a18.30558,18.30558,0,0,0,.00022-31.70587L533.49971,428.31521a54.91669,54.91669,0,0,0-54.92014.00068L94.52874,650.07264A18.30556,18.30556,0,0,0,94.52982,681.77854Z"/>
  <path class="cls-8" d="M917.5673,681.7739a18.30564,18.30564,0,0,0-.00022-31.70537L797.19355,580.567,614.95326,475.34477,175.99134,728.80806,478.60113,903.51217a54.91583,54.91583,0,0,0,54.914-.00045Z"/>
  <polygon class="cls-8" points="926.718 665.913 926.718 644.776 900.645 663.997 926.718 665.913"/>
  <polygon class="cls-8" points="175.991 728.808 147.267 712.225 147.267 688.022 201.47 707.93 201.47 722.185 175.991 728.808"/>
  <path class="cls-9" d="M917.5673,659.80722a18.30564,18.30564,0,0,0-.00022-31.70537l-120.37353-69.5015L614.95326,453.37808,175.99134,706.84138l302.60979,174.7041a54.91583,54.91583,0,0,0,54.914-.00044Z"/>
  <path class="cls-10" d="M748.25258,757.56347,425.10487,571.15891a9.05988,9.05988,0,0,0-9.05894,0L282.52856,648.25879a3.019,3.019,0,0,0,0,5.22928l323.13829,186.399Z"/>
  <path class="cls-10" d="M817.73812,685.26053a9.71092,9.71092,0,0,0-.00329-16.82162l-257.335-148.44112a7.62339,7.62339,0,0,0-7.62259,0L440.42984,584.87306a2.54032,2.54032,0,0,0,0,4.40014L712.33275,746.11759Z"/>
  <g>
    <path class="cls-11" d="M741.79908,719.49846v-72.635h-9.58446v72.65355h.00438a2.4137,2.4137,0,0,0,1.41031,1.93536,7.492,7.492,0,0,0,6.77851.01218A2.35136,2.35136,0,0,0,741.79908,719.49846Z"/>
    <path class="cls-11" d="M815.88772,676.43952V603.80457h-9.58445v72.65354h.00437a2.4137,2.4137,0,0,0,1.41031,1.93536,7.492,7.492,0,0,0,6.77852.01219A2.35136,2.35136,0,0,0,815.88772,676.43952Z"/>
  </g>
  <polygon class="cls-12" points="202.495 549.781 191.512 530.757 586.291 302.874 921.849 496.6 910.866 515.624 586.291 328.239 202.495 549.781"/>
  <path class="cls-13" d="M821.6451,456.24316v-21.501h9.58446v21.5196h-.00438a2.41367,2.41367,0,0,1-1.41031,1.93535,7.492,7.492,0,0,1-6.77851.01219A2.35136,2.35136,0,0,1,821.6451,456.24316Z"/>
  <path class="cls-14" d="M701.6917,386.97249v-21.501h9.58445v21.5196h-.00437a2.41368,2.41368,0,0,1-1.41032,1.93535,7.492,7.492,0,0,1-6.77851.01219A2.35136,2.35136,0,0,1,701.6917,386.97249Z"/>
  <path class="cls-13" d="M591.08244,317.70181v-21.501H581.498V317.7204h.00438a2.4137,2.4137,0,0,0,1.41031,1.93536,7.492,7.492,0,0,0,6.77851.01218A2.35135,2.35135,0,0,0,591.08244,317.70181Z"/>
  <path class="cls-13" d="M231.22223,525.51383v-21.501h-9.58446v21.51959h.00438a2.4137,2.4137,0,0,0,1.41031,1.93536,7.492,7.492,0,0,0,6.77851.01218A2.35136,2.35136,0,0,0,231.22223,525.51383Z"/>
  <path class="cls-13" d="M351.17563,456.24316v-21.501h-9.58445v21.5196h.00437a2.41369,2.41369,0,0,0,1.41032,1.93535,7.492,7.492,0,0,0,6.77851.01219A2.35133,2.35133,0,0,0,351.17563,456.24316Z"/>
  <path class="cls-13" d="M471.129,386.97249v-21.501h-9.58446v21.5196h.00437a2.41372,2.41372,0,0,0,1.41032,1.93535,7.492,7.492,0,0,0,6.77851.01219A2.35137,2.35137,0,0,0,471.129,386.97249Z"/>
  <path class="cls-15" d="M191.37952,536.42315l-8.23572-14.269L581.03935,292.46923a10.50194,10.50194,0,0,1,10.50108.00029L882.90186,460.67939l-8.23751,14.26726L586.29,308.46072Z"/>
  <path class="cls-16" d="M191.37952,523.88189l-8.23572-14.269L580.79867,280.0669a10.98334,10.98334,0,0,1,10.98243.0003L882.90186,448.13813l-8.23751,14.26726L586.29,295.91946Z"/>
  <polygon class="cls-17" points="175.991 706.841 175.991 565.083 586.29 328.239 586.287 469.976 175.991 706.841"/>
  <polygon class="cls-17" points="878.139 496.73 586.29 328.239 586.294 469.976 877.606 638.178 878.139 496.73"/>
  <g>
    <polygon class="cls-18" points="204.715 487.835 204.709 690.226 175.988 706.841 175.988 487.835 204.715 487.835"/>
    <polygon class="cls-12" points="175.988 487.835 175.988 706.841 170.186 703.511 149.168 691.373 147.274 688.022 147.267 688.022 147.267 487.835 175.988 487.835"/>
    <path class="cls-19" d="M202.81345,491.06646,181.58972,503.32a11.4022,11.4022,0,0,1-11.40218,0l-21.02009-12.136a3.80072,3.80072,0,0,1,0-6.58305l21.22373-12.25353a11.4022,11.4022,0,0,1,11.40218,0l21.02009,12.136A3.80072,3.80072,0,0,1,202.81345,491.06646Z"/>
  </g>
  <g>
    <g>
      <path class="cls-20" d="M832.31072,582.05477,742.181,643.44858,439.15952,468.62487c.21879-.15622.43757-.2969.6719-.43748l93.86431-54.19033a7.37026,7.37026,0,0,1,7.3597,0Z"/>
      <path class="cls-21" d="M742.181,643.44858l-11.68808,7.64095L436.87812,481.68812a3.06947,3.06947,0,0,1-1.57813-2.672v-2.95331a9.07591,9.07591,0,0,1,3.85953-7.4379Z"/>
      <path class="cls-15" d="M833.56346,589.52566a6.3874,6.3874,0,0,1-3.1942,5.53194L733.3851,651.0245a3.03251,3.03251,0,0,1-4.54793-2.62671v-2.96363a9.08407,9.08407,0,0,1,4.54451-7.86847l96.23-55.54934a2.63449,2.63449,0,0,1,3.95176,2.28152Z"/>
    </g>
    <polygon class="cls-15" points="800.215 598.977 795.637 601.634 502.147 432.201 506.741 429.56 800.215 598.977"/>
    <polygon class="cls-15" points="768.667 617.197 764.073 619.854 470.599 450.421 475.177 447.78 768.667 617.197"/>
  </g>
  <g>
    <g>
      <path class="cls-22" d="M638.548,318.825s-18.51484-3.83686-35.18686,16.5967c-11.98532,14.68956-32.2441,47.81938-32.2441,47.81938l-11.86865,4.32072-4.11007,21.97006,17.40761,9.85431s33.43554-16.8883,42.88466-32.70537Z"/>
      <path class="cls-23" d="M640.58923,313.77916s-20.72787-.64681-37.39989,19.78676c-11.98532,14.68955-28.24919,36.55372-28.24919,36.55372-6.92362,13.78187,21.17227,42.86248,36.38866,27.10475a49.80555,49.80555,0,0,0,6.47968-8.51093Z"/>
      <path class="cls-24" d="M611.32883,397.22444s.39276-.39917,1.01837-1.10327c-3.33142-13.3877-8.23981-32.729-8.23981-32.729l-5.71667,38.20142A14.32606,14.32606,0,0,0,611.32883,397.22444Z"/>
      <path class="cls-25" d="M574.67477,662.601s9.3114,23.7278,5.225,30.50591-12.54441,7.05806-23.463,11.04288-20.2005,10.30141-38.60243,7.82077-17.727-16.83778-8.544-20.84251l20.11072-10.7373,17.75638-15.01858Z"/>
      <path class="cls-25" d="M632.5641,555.18611l-25.5508-79.28857-80.83848,21.0409c-28.16561,7.74044-31.72488,36.19471-24.74759,57.34463l37.53839,118.02821c4.89888,13.57959,38.43174,7.64753,38.3268-5.33431l-7.72756-105.38955Z"/>
      <path class="cls-25" d="M610.24405,699.59468s2.71493,16.30065,1.51722,22.08726c-1.501,7.2519-6.29164,12.45882-7.35151,17.28595s-2.24932,14.82337-11.23,20.90834c-18.21586,12.34242-35.38137.37825-27.28733-15.06655l6.43463-13.40846,14.189-33.807Z"/>
      <path class="cls-26" d="M604.56035,461.01628l-14.71773,19.355,21.76991,47.47928s-23.73826,46.97472-27.4147,69.30065-4.66455,105.29793-4.66455,105.29793c-.59268,17.43561,30.46088,20.15534,35.08545,5.05022l34.39612-104.21144,27.011-25.31975c17.93108-16.92586,30.14135-31.09849,30.68645-58.24452.58808-29.2867-1.01665-43.65472-1.01665-43.65472Z"/>
      <path class="cls-25" d="M706.73688,496.61278l.01185-18.21133-30.60135-6.428-73.38371-17.22579-3.24582,12.91757c-.68275,6.59705,11.58039,24.21888,40.02659,32.56531C668.56091,508.74456,698.672,500.42709,706.73688,496.61278Z"/>
      <path class="cls-27" d="M653.74306,314.94274c-34.71028-6.09141-51.5539,13.75027-49.50977,51.60753l4.00649,50.80342-6.21415,35.159c-1.63531,9.89358,10.87351,21.97129,29.02663,30.58016,28.75524,13.6368,75.62252,13.45608,80.21315-7.84945L710.02388,448.915l15.35-72.22528C721.18678,344.83751,683.58354,320.17954,653.74306,314.94274Z"/>
      <path class="cls-24" d="M711.26543,475.24338l-1.2415-26.32842.62462-2.93883-22.52095-51.46-1.31148,70.26135-25.39653,14.56279,12.90088,13.1026C692.8288,492.4898,708.69181,487.1879,711.26543,475.24338Z"/>
      <path class="cls-28" d="M723.11982,378.27c-4.92506-24.6343-31.48216-16.20347-31.39782,18.31539l14.28864,68.98913-38.87234,3.0504-.77056,17.91481s49.06615,12.90623,58.11483.15086C736.28286,470.0564,728.65955,414.55041,723.11982,378.27Z"/>
      <path class="cls-29" d="M725.1035,374.88731c-4.92506-24.6343-39.59565-11.49862-36.97593,19.62877l4.59013,40.21215c1.2895,13.573,39.32088,13.77786,38.74853-4.29211C731.46623,430.43612,730.91476,408.31524,725.1035,374.88731Z"/>
    </g>
    <g>
      <polygon class="cls-24" points="629.52 333.234 636.198 335.609 643.43 346.266 657.549 344.183 666.087 350.142 664.927 336.864 641.081 326.389 629.52 333.234"/>
      <path class="cls-28" d="M644.255,343.0706l10.38668-7.80126,16.4116-13.50572s-3.615-8.861-13.662-8.05094c-8.73446.70423-14.81025,10.73181-14.81025,10.73181Z"/>
      <path class="cls-30" d="M644.255,343.07057c-.78529-7.39637-.14592-14.63984,2.31367-20.28706l6.90148-9.10209,1.15052-5.67863c-13.79843,4.05076-22.78045,19.18184-25.4613,24.26545a.69625.69625,0,0,0,.8857.96434l5.79234-2.393a2.09329,2.09329,0,0,1,2.66291.98138L644.255,343.0706Z"/>
      <path class="cls-22" d="M644.57763,329.5708c.80286,10.74417,18.41494,5.25007,25.02583-4.88021-.87608-6.96645.50039-13.71745-4.02638-22.46224l-22.71374,6.14043Z"/>
      <path class="cls-30" d="M676.6968,329.54928c-1.279,7.07907-6.45893,16.39945-8.76632,20.30017a1.21756,1.21756,0,0,1-2.12421-.051l-4.77969-8.98818a2.37837,2.37837,0,0,0-2.66555-1.19345l-14.106,3.45376h0s10.49882-8.071,14.78358-11.41963c12.2855-9.60131,9.49451-20.75292,9.49451-20.75292s.96655-.33963,3.07017,2.35733C673.84086,316.12409,678.17285,321.37941,676.6968,329.54928Z"/>
    </g>
    <polygon class="cls-28" points="656.743 458.839 649.446 456.638 650.997 459.705 656.743 458.839"/>
    <polygon class="cls-31" points="641.784 440.527 581.718 416.89 611.605 474.542 671.67 498.179 641.784 440.527"/>
    <g>
      <path class="cls-32" d="M624.74505,274.33257s-5.15321,7.53756,1.5242,15.98542a38.60735,38.60735,0,0,0,7.43379,7.12811l.28229-16.018Z"/>
      <path class="cls-28" d="M649.826,323.97134c13.03612-3.121,19.90792-10.21012,20.54116-22.50508l1.32566-26.58355c.83438-10.709-8.84187-20.76447-21.33307-20.64854-10.91715.10133-22.10146,9.22728-21.99507,21.32117a244.46614,244.46614,0,0,0,2.15693,26.71789C632.34847,314.06991,637.979,326.80761,649.826,323.97134Z"/>
      <path class="cls-33" d="M627.13708,281.736a9.6689,9.6689,0,0,1-6.76044-7.349c-1.34272-5.51192.9644-8.26373,2.59756-10.90129,1.84744-2.98364.05154-7.9282,4.68526-11.35536,4.83036-3.5726,9.21856-.82416,14.97092-1.61413,4.25174-.5839,7.07422-3.03873,11.60242-2.58087,6.523.65955,5.92253,3.3179,11.46161,5.858,5.86676,2.69037,10.6511,3.00437,13.94515,8.42616,2.716,4.47032,2.01767,8.3698,2.68863,13.64636.52932,4.16268,2.70907,7.60748,1.81093,12.092-1.5486,7.73232-5.77638,6.80221-6.69429,10.817-2.23078,9.75709-6.83621,8.72454-8.658,15.69781l-1.98235-11.15879-4.45831-3.00107c-1.47412.76155-3.36654.97468-4.32057-.65862-.8191-1.40232-1.03664-5.58489-1.17768-7.02377-.31481-3.21147-1.69192-4.9848-5.89544-4.76747-9.808.5071-10.65509-3.82314-14.415-5.93866C633.09188,279.98563,630.26005,282.50846,627.13708,281.736Z"/>
      <path class="cls-28" d="M665.37016,308.38428c4.44452.0989,8.324-6.02367,8.43622-11.0671s-4.16008-9.3851-8.02982-7.19678C660.91879,292.86745,660.92564,308.28539,665.37016,308.38428Z"/>
    </g>
    <g>
      <path class="cls-28" d="M589.17112,339.43876l.64113-6.36973-4.17451,1.04485a11.91971,11.91971,0,0,0-3.11849,5.04623c-1.21739,3.91385-3.13443,10.85447-3.13443,15.75139a12.992,12.992,0,0,0,12.99214,12.992c3.58759,0,7.94093.612,10.292-1.73907,2.351-2.3513,2.7-7.66507,2.7-11.25293C605.369,350.12708,595.65067,343.396,589.17112,339.43876Z"/>
      <path class="cls-28" d="M554.00589,395.59675a438.57866,438.57866,0,0,1,27.55023-53.12939l5.8375,21.27732-7.44681,46.46965C577.8617,427.31915,542.54255,423.19149,554.00589,395.59675Z"/>
      <path class="cls-28" d="M669.81663,468.41469c4.9094,7.25058,4.929,18.55008-3.44889,18.125,0,0-17.20387-2.40991-20.46187-4.44075s-7.58648-10.33212-7.98515-15.04262a7.86337,7.86337,0,0,1,4.12317-7.7392c2.70511-1.567,10.58281-1.21843,13.44788-.79843C661.70374,459.42932,669.81663,468.41469,669.81663,468.41469Z"/>
    </g>
  </g>
  <g>
    <path class="cls-11" d="M605.836,819.348V666.04692h-9.58445V819.36661h.00437a2.41368,2.41368,0,0,0,1.41032,1.93535,7.492,7.492,0,0,0,6.77851.01219A2.35136,2.35136,0,0,0,605.836,819.348Z"/>
    <path class="cls-11" d="M727.88858,749.12969V595.82859h-9.58446V749.14828h.00438a2.4137,2.4137,0,0,0,1.41031,1.93536,7.492,7.492,0,0,0,6.77851.01218A2.35136,2.35136,0,0,0,727.88858,749.12969Z"/>
  </g>
  <g>
    <path class="cls-11" d="M318.63254,654.57013V501.269h-9.58446V654.58872h.00438a2.41369,2.41369,0,0,0,1.41031,1.93535,7.492,7.492,0,0,0,6.77852.01219A2.35138,2.35138,0,0,0,318.63254,654.57013Z"/>
    <path class="cls-14" d="M440.68509,567.17491V437.5824h-9.58446V567.1935h.00438a2.4137,2.4137,0,0,0,1.41031,1.93536,7.492,7.492,0,0,0,6.77851.01218A2.35136,2.35136,0,0,0,440.68509,567.17491Z"/>
  </g>
  <g>
    <g>
      <path class="cls-34" d="M743.76533,584.9776,600.24963,678.812l-314.7093-181.5364c.2563-.183.51261-.34781.78712-.5125l147.89076-85.39552a8.63416,8.63416,0,0,1,8.62185,0Z"/>
      <path class="cls-15" d="M600.24963,678.812,586.5571,687.7633,282.86767,512.5791a3.59589,3.59589,0,0,1-1.84877-3.1303V505.989a10.63239,10.63239,0,0,1,4.52143-8.71347Z"/>
      <path class="cls-15" d="M745.23291,593.7297a7.48282,7.48282,0,0,1-3.742,6.48065L589.94526,687.68711a3.55257,3.55257,0,0,1-5.32787-3.07718v-3.47188a10.64194,10.64194,0,0,1,5.32387-9.21786l150.66219-86.9876a3.08628,3.08628,0,0,1,4.62946,2.67278Z"/>
    </g>
    <polygon class="cls-15" points="705.214 605.37 699.814 608.482 396.289 433.279 401.653 430.167 705.214 605.37"/>
    <polygon class="cls-15" points="668.237 626.714 662.873 629.826 359.33 454.605 364.712 451.512 668.237 626.714"/>
    <polygon class="cls-15" points="631.278 648.059 625.896 651.17 322.371 475.95 327.735 472.856 631.278 648.059"/>
  </g>
  <g>
    <path class="cls-18" d="M926.7192,437.44336V652.27522h-.00634a3.75545,3.75545,0,0,1-1.894,3.23068L897.99206,671.114V437.44336Z"/>
    <path class="cls-12" d="M897.99206,437.44336V671.114l-6.96619-4.02271-19.85426-11.46508a3.75763,3.75763,0,0,1-1.894-3.351h-.00634V437.44336Z"/>
    <path class="cls-19" d="M924.81728,440.6748l-21.22373,12.25353a11.4022,11.4022,0,0,1-11.40218,0l-21.02009-12.136a3.80072,3.80072,0,0,1,0-6.58305L892.395,421.95579a11.4022,11.4022,0,0,1,11.40218,0l21.02009,12.136A3.80072,3.80072,0,0,1,924.81728,440.6748Z"/>
  </g>
  <g>
    <g>
      <path class="cls-35" d="M410.11071,477.60545l-5.741-1.78055-.00147,2.99283a1.73425,1.73425,0,0,0,.87364,1.45941l17.52657,10.11928a3.50959,3.50959,0,0,0,3.50961,0l3.34906-1.93367.00009,0,36.90806-21.30887a1.73511,1.73511,0,0,0,.87471-1.47683l.00758-2.96469-18.40962-8.13678a3.50949,3.50949,0,0,0-3.50957,0l-37.785,21.81553Z"/>
      <path class="cls-26" d="M407.7186,472.89578l-2.47181,1.4273a1.75475,1.75475,0,0,0,0,3.03927l17.5266,10.11935a3.50955,3.50955,0,0,0,3.5096,0l5.47659-3.162.00005,0,34.78056-20.08063a1.75476,1.75476,0,0,0,0-3.03931l-17.52673-10.1194a3.50957,3.50957,0,0,0-3.5096,0L407.7189,472.896Z"/>
      <path class="cls-36" d="M405.36345,476.285a.882.882,0,0,1,.32207-1.20217l2.03437-1.1747.00028.00015.43743-.25255,37.785-21.81554a2.63953,2.63953,0,0,1,2.63224,0l17.52671,10.1194a.86327.86327,0,0,1,.32208.31753.882.882,0,0,1-.32208,1.20217L431.32094,483.56l-5.4766,3.162a2.63947,2.63947,0,0,1-2.63222,0l-17.5266-10.11934a.86322.86322,0,0,1-.32207-.31752m-.75981.43868a1.74034,1.74034,0,0,0,.64318.63864l17.52661,10.11934a3.50953,3.50953,0,0,0,3.5096,0l5.47659-3.162,0,0,34.78058-20.08064a1.75119,1.75119,0,0,0,0-3.03931l-17.52672-10.1194a3.50959,3.50959,0,0,0-3.50961,0L407.7189,472.896l-.00029-.00018-2.47182,1.42731a1.757,1.757,0,0,0-.64315,2.40062Z"/>
    </g>
    <g>
      <path class="cls-35" d="M583.89236,518.91745l-5.03535.76758-82.4318-47.59955a6.73551,6.73551,0,0,0-6.73727.00057l-55.63408,32.13608-2.58788-2.15254v4.995l.00577-.00547a2.218,2.218,0,0,0,1.1168,1.89821l86.33119,49.85145a6.73579,6.73579,0,0,0,6.73612.00014l57.11466-32.97522a2.20858,2.20858,0,0,0,1.10615-1.81166l.01656.01152v-.1443Z"/>
      <path class="cls-37" d="M489.68789,467.094l-57.09965,32.98279a2.24523,2.24523,0,0,0,.00028,3.88854l86.33129,49.85147a6.73572,6.73572,0,0,0,6.73611.00023l57.11467-32.97523a2.24523,2.24523,0,0,0,.00013-3.88878l-86.34549-49.85951A6.73567,6.73567,0,0,0,489.68789,467.094Z"/>
      <g>
        <g class="cls-38">
          <path class="cls-39" d="M459.38561,505.5716l-3.85576-2.22612a1.33852,1.33852,0,0,0-1.20427.04992l-3.65179,2.10836c-.35643.20578-.39514.51708-.08646.69529l3.85575,2.22612a1.33848,1.33848,0,0,0,1.20428-.04992l3.65179-2.10836C459.65557,506.06111,459.69428,505.74982,459.38561,505.5716Z"/>
          <path class="cls-39" d="M453.30645,502.0618l-3.85576-2.22612a1.33848,1.33848,0,0,0-1.20428.04992l-3.65178,2.10835c-.35643.20579-.39514.51708-.08647.69529l3.85576,2.22613a1.33854,1.33854,0,0,0,1.20428-.04992l3.65178-2.10836C453.57641,502.5513,453.61512,502.24,453.30645,502.0618Z"/>
          <path class="cls-39" d="M526.2564,544.17947l-3.85575-2.22612a1.33854,1.33854,0,0,0-1.20428.04992l-3.65178,2.10836c-.35643.20579-.39514.51708-.08647.69529l3.85576,2.22612a1.33846,1.33846,0,0,0,1.20427-.04992l3.65179-2.10836C526.52637,544.669,526.56508,544.35769,526.2564,544.17947Z"/>
          <path class="cls-39" d="M520.17724,540.66967l-3.85575-2.22612a1.33848,1.33848,0,0,0-1.20428.04992l-3.65179,2.10836c-.35643.20578-.39514.51707-.08646.69529l3.85575,2.22612a1.33854,1.33854,0,0,0,1.20428-.04992l3.65179-2.10836C520.4472,541.15917,520.48592,540.84788,520.17724,540.66967Z"/>
          <path class="cls-39" d="M514.09808,537.15986l-3.85576-2.22612a1.33854,1.33854,0,0,0-1.20428.04992l-3.65178,2.10836c-.35643.20578-.39514.51708-.08646.69529l3.85575,2.22612a1.33854,1.33854,0,0,0,1.20428-.04992l3.65178-2.10836C514.368,537.64937,514.40675,537.33808,514.09808,537.15986Z"/>
          <path class="cls-39" d="M508.01891,533.65005l-3.85575-2.22612a1.33854,1.33854,0,0,0-1.20428.04992l-3.65178,2.10836c-.35643.20579-.39514.51708-.08647.69529l3.85576,2.22612a1.33848,1.33848,0,0,0,1.20428-.04992l3.65178-2.10835C508.28888,534.13956,508.32759,533.82827,508.01891,533.65005Z"/>
          <path class="cls-39" d="M501.93975,530.14025l-3.85575-2.22612a1.33848,1.33848,0,0,0-1.20428.04992l-3.65179,2.10836c-.35643.20578-.39514.51707-.08646.69529l3.85575,2.22612a1.33854,1.33854,0,0,0,1.20428-.04992l3.65179-2.10836C502.20972,530.62975,502.24843,530.31846,501.93975,530.14025Z"/>
          <path class="cls-39" d="M495.86059,526.63044l-3.85576-2.22612a1.33854,1.33854,0,0,0-1.20428.04992l-3.65178,2.10836c-.35643.20578-.39514.51708-.08646.69529l3.85575,2.22612a1.33851,1.33851,0,0,0,1.20428-.04992l3.65178-2.10836C496.13055,527.12,496.16926,526.80866,495.86059,526.63044Z"/>
          <path class="cls-39" d="M489.78142,523.12064l-3.85575-2.22613a1.33854,1.33854,0,0,0-1.20428.04992l-3.65178,2.10836c-.35643.20579-.39514.51708-.08647.69529l3.85576,2.22612a1.33848,1.33848,0,0,0,1.20428-.04992l3.65178-2.10835C490.05139,523.61014,490.0901,523.29885,489.78142,523.12064Z"/>
          <path class="cls-39" d="M483.70226,519.61083l-3.85575-2.22612a1.33848,1.33848,0,0,0-1.20428.04992l-3.65179,2.10836c-.35642.20578-.39514.51707-.08646.69529l3.85575,2.22612a1.33854,1.33854,0,0,0,1.20428-.04992l3.65179-2.10836C483.97223,520.10034,484.01094,519.789,483.70226,519.61083Z"/>
          <path class="cls-39" d="M477.6231,516.101l-3.85576-2.22612a1.33852,1.33852,0,0,0-1.20427.04992l-3.65179,2.10836c-.35643.20578-.39514.51708-.08646.69529l3.85575,2.22612a1.33848,1.33848,0,0,0,1.20428-.04992l3.65178-2.10836C477.89306,516.59053,477.93177,516.27924,477.6231,516.101Z"/>
          <path class="cls-39" d="M471.54393,512.59122l-3.85575-2.22612a1.33851,1.33851,0,0,0-1.20428.04991l-3.65178,2.10836c-.35643.20579-.39514.51708-.08647.69529l3.85576,2.22612a1.33851,1.33851,0,0,0,1.20428-.04991l3.65178-2.10836C471.8139,513.08072,471.85261,512.76943,471.54393,512.59122Z"/>
          <path class="cls-39" d="M465.46477,509.08141l-3.85575-2.22612a1.33848,1.33848,0,0,0-1.20428.04992l-3.65179,2.10836c-.35642.20578-.39513.51707-.08646.69529l3.85576,2.22612a1.33852,1.33852,0,0,0,1.20427-.04992l3.65179-2.10836C465.73474,509.57092,465.77345,509.25962,465.46477,509.08141Z"/>
          <path class="cls-39" d="M518.07478,532.41015,514.219,530.184a1.33848,1.33848,0,0,0-1.20428.04992L509.363,532.3423c-.35643.20579-.39514.51708-.08647.6953l3.85576,2.22612a1.33854,1.33854,0,0,0,1.20428-.04992l3.65178-2.10836C518.34475,532.89965,518.38346,532.58836,518.07478,532.41015Z"/>
          <path class="cls-39" d="M511.9504,528.87423l-3.85575-2.22612a1.33854,1.33854,0,0,0-1.20428.04992l-3.65179,2.10836c-.35642.20578-.39514.51708-.08646.69529l3.85575,2.22612a1.33848,1.33848,0,0,0,1.20428-.04992l3.65179-2.10836C512.22037,529.36374,512.25908,529.05245,511.9504,528.87423Z"/>
          <path class="cls-39" d="M505.826,525.33832l-3.85576-2.22612a1.33848,1.33848,0,0,0-1.20428.04992l-3.65178,2.10836c-.35643.20578-.39514.51707-.08646.69529l3.85575,2.22612a1.33854,1.33854,0,0,0,1.20428-.04992l3.65178-2.10836C506.096,525.82782,506.13469,525.51653,505.826,525.33832Z"/>
          <path class="cls-39" d="M499.70163,521.8024l-3.85575-2.22612a1.33854,1.33854,0,0,0-1.20428.04992l-3.65178,2.10836c-.35643.20578-.39514.51708-.08647.69529l3.85576,2.22612a1.33848,1.33848,0,0,0,1.20428-.04992l3.65178-2.10836C499.9716,522.29191,500.01031,521.98062,499.70163,521.8024Z"/>
          <path class="cls-39" d="M493.57725,518.26649l-3.85575-2.22612a1.33848,1.33848,0,0,0-1.20428.04992l-3.65179,2.10836c-.35643.20578-.39514.51707-.08646.69529l3.85575,2.22612a1.33854,1.33854,0,0,0,1.20428-.04992l3.65179-2.10836C493.84721,518.756,493.88593,518.4447,493.57725,518.26649Z"/>
          <path class="cls-39" d="M487.45287,514.73057l-3.85576-2.22612a1.33854,1.33854,0,0,0-1.20428.04992l-3.65178,2.10836c-.35643.20579-.39514.51708-.08646.69529l3.85575,2.22612a1.33848,1.33848,0,0,0,1.20428-.04992l3.65178-2.10836C487.72283,515.22008,487.76154,514.90879,487.45287,514.73057Z"/>
          <path class="cls-39" d="M481.32848,511.19466l-3.85575-2.22612a1.33848,1.33848,0,0,0-1.20428.04992l-3.65179,2.10836c-.35642.20578-.39514.51707-.08646.69529l3.85576,2.22612a1.33852,1.33852,0,0,0,1.20427-.04992L481.242,511.89C481.59845,511.68417,481.63716,511.37287,481.32848,511.19466Z"/>
          <path class="cls-39" d="M475.2041,507.65874l-3.85576-2.22612a1.33852,1.33852,0,0,0-1.20427.04992l-3.65179,2.10836c-.35643.20579-.39514.51708-.08646.69529l3.85575,2.22612a1.33848,1.33848,0,0,0,1.20428-.04992l3.65178-2.10835C475.47406,508.14825,475.51277,507.837,475.2041,507.65874Z"/>
          <path class="cls-39" d="M469.07971,504.12283l-3.85575-2.22612a1.33848,1.33848,0,0,0-1.20428.04992L460.3679,504.055c-.35643.20578-.39514.51707-.08647.69529l3.85576,2.22612a1.33854,1.33854,0,0,0,1.20428-.04992l3.65178-2.10836C469.34968,504.61234,469.38839,504.301,469.07971,504.12283Z"/>
          <path class="cls-39" d="M524.19917,535.94606l-3.85576-2.22612a1.33852,1.33852,0,0,0-1.20427.04992l-3.65179,2.10836c-.35643.20578-.39514.51708-.08646.69529l3.85575,2.22612a1.33848,1.33848,0,0,0,1.20428-.04992l3.65179-2.10836C524.46913,536.43557,524.50784,536.12428,524.19917,535.94606Z"/>
          <path class="cls-39" d="M532.35813,540.65664l-6.115-3.5305a1.33848,1.33848,0,0,0-1.20428.04992l-3.65178,2.10836c-.35643.20578-.39514.51707-.08647.69529l6.115,3.5305a1.33854,1.33854,0,0,0,1.20428-.04992l3.65179-2.10836C532.62809,541.14615,532.66681,540.83485,532.35813,540.65664Z"/>
          <path class="cls-39" d="M538.45986,537.13381l-8.72678-5.03841a1.33854,1.33854,0,0,0-1.20428.04992l-3.65178,2.10836c-.35643.20578-.39514.51707-.08647.69529l8.72678,5.03841a1.33854,1.33854,0,0,0,1.20428-.04992l3.65178-2.10836C538.72982,537.62331,538.76853,537.312,538.45986,537.13381Z"/>
          <path class="cls-39" d="M521.31226,527.23364l-3.85576-2.22612a1.33846,1.33846,0,0,0-1.20427.04992l-3.65179,2.10835c-.35643.20579-.39514.51708-.08646.69529l3.85575,2.22612a1.33851,1.33851,0,0,0,1.20428-.04991l3.65179-2.10836C521.58222,527.72314,521.62093,527.41185,521.31226,527.23364Z"/>
          <path class="cls-39" d="M515.21739,523.71476l-3.85575-2.22612a1.33854,1.33854,0,0,0-1.20428.04992l-3.65178,2.10836c-.35643.20579-.39514.51708-.08647.69529l3.85576,2.22612a1.33846,1.33846,0,0,0,1.20427-.04992l3.65179-2.10836C515.48736,524.20427,515.52607,523.893,515.21739,523.71476Z"/>
          <path class="cls-39" d="M509.12253,520.19589l-3.85576-2.22612a1.33854,1.33854,0,0,0-1.20428.04992l-3.65178,2.10836c-.35643.20578-.39514.51708-.08646.69529l3.85575,2.22612a1.33854,1.33854,0,0,0,1.20428-.04992l3.65178-2.10836C509.39249,520.6854,509.4312,520.37411,509.12253,520.19589Z"/>
          <path class="cls-39" d="M503.02766,516.677l-3.85575-2.22612a1.33848,1.33848,0,0,0-1.20428.04992l-3.65179,2.10836c-.35642.20578-.39514.51707-.08646.69529l3.85575,2.22612a1.33854,1.33854,0,0,0,1.20428-.04992l3.65179-2.10836C503.29763,517.16653,503.33634,516.85523,503.02766,516.677Z"/>
          <path class="cls-39" d="M496.9328,513.15815,493.077,510.932a1.33848,1.33848,0,0,0-1.20428.04992L488.221,513.0903c-.35643.20579-.39514.51708-.08646.69529l3.85575,2.22613a1.33854,1.33854,0,0,0,1.20428-.04992l3.65178-2.10836C497.20276,513.64765,497.24147,513.33636,496.9328,513.15815Z"/>
          <path class="cls-39" d="M490.83793,509.63927l-3.85575-2.22612a1.33854,1.33854,0,0,0-1.20428.04992l-3.65179,2.10836c-.35643.20579-.39514.51708-.08646.69529l3.85575,2.22612a1.33848,1.33848,0,0,0,1.20428-.04992l3.65179-2.10836C491.10789,510.12878,491.14661,509.81749,490.83793,509.63927Z"/>
          <path class="cls-39" d="M484.74306,506.1204l-3.85575-2.22612a1.33854,1.33854,0,0,0-1.20428.04992l-3.65178,2.10836c-.35643.20578-.39514.51708-.08647.69529l3.85576,2.22612a1.33851,1.33851,0,0,0,1.20428-.04992l3.65178-2.10836C485.013,506.60991,485.05174,506.29862,484.74306,506.1204Z"/>
          <path class="cls-39" d="M478.6482,502.60153l-3.85576-2.22612a1.33846,1.33846,0,0,0-1.20427.04992l-3.65179,2.10836c-.35643.20578-.39514.51707-.08646.69529l3.85575,2.22612a1.33854,1.33854,0,0,0,1.20428-.04992l3.65178-2.10836C478.91816,503.091,478.95687,502.77974,478.6482,502.60153Z"/>
          <path class="cls-39" d="M472.55333,499.08266l-3.85575-2.22612a1.33848,1.33848,0,0,0-1.20428.04992l-3.65178,2.10835c-.35643.20579-.39514.51708-.08647.6953l3.85576,2.22612a1.33852,1.33852,0,0,0,1.20427-.04992l3.65179-2.10836C472.8233,499.57216,472.862,499.26087,472.55333,499.08266Z"/>
          <path class="cls-39" d="M466.31105,495.47868l-4.6569-2.68867a1.33848,1.33848,0,0,0-1.20428.04992l-3.65179,2.10836c-.35643.20578-.39514.51707-.08646.69529l4.65691,2.68866a1.33851,1.33851,0,0,0,1.20428-.04991l3.65178-2.10836C466.581,495.96818,466.61973,495.65689,466.31105,495.47868Z"/>
          <path class="cls-39" d="M527.40712,530.75251l-3.85575-2.22612a1.33848,1.33848,0,0,0-1.20428.04992l-3.65178,2.10836c-.35643.20578-.39514.51707-.08647.69529l3.85576,2.22612a1.33854,1.33854,0,0,0,1.20428-.04992l3.65178-2.10836C527.67709,531.242,527.7158,530.93072,527.40712,530.75251Z"/>
          <path class="cls-39" d="M520.4721,519.7029l-3.85575-2.22612a1.33854,1.33854,0,0,0-1.20428.04992l-3.65178,2.10836c-.35643.20579-.39514.51708-.08647.69529l3.85576,2.22612a1.33848,1.33848,0,0,0,1.20428-.04992l3.65178-2.10835C520.74207,520.19241,520.78078,519.88112,520.4721,519.7029Z"/>
          <path class="cls-39" d="M514.34772,516.167l-3.85575-2.22612a1.33851,1.33851,0,0,0-1.20428.04992l-3.65179,2.10836c-.35643.20578-.39514.51707-.08646.69529l3.85575,2.22612a1.33854,1.33854,0,0,0,1.20428-.04992l3.65179-2.10836C514.61768,516.6565,514.6564,516.3452,514.34772,516.167Z"/>
          <path class="cls-39" d="M508.22334,512.63108l-3.85576-2.22613a1.33854,1.33854,0,0,0-1.20428.04992l-3.65178,2.10836c-.35643.20579-.39514.51708-.08647.69529l3.85576,2.22612a1.33848,1.33848,0,0,0,1.20428-.04992l3.65178-2.10835C508.4933,513.12058,508.532,512.80929,508.22334,512.63108Z"/>
          <path class="cls-39" d="M502.099,509.09516,498.2432,506.869a1.33854,1.33854,0,0,0-1.20428.04992l-3.65179,2.10836c-.35642.20578-.39514.51707-.08646.69529l3.85576,2.22612a1.33852,1.33852,0,0,0,1.20427-.04992l3.65179-2.10836C502.36892,509.58467,502.40763,509.27338,502.099,509.09516Z"/>
          <path class="cls-39" d="M495.97457,505.55925l-3.85576-2.22612a1.33846,1.33846,0,0,0-1.20427.04992l-3.65179,2.10835c-.35643.20579-.39514.51708-.08646.69529l3.85575,2.22613a1.33854,1.33854,0,0,0,1.20428-.04992l3.65178-2.10836C496.24453,506.04875,496.28324,505.73746,495.97457,505.55925Z"/>
          <path class="cls-39" d="M489.85018,502.02333l-3.85575-2.22612a1.33854,1.33854,0,0,0-1.20428.04992l-3.65178,2.10836c-.35643.20578-.39514.51708-.08647.69529l3.85576,2.22612a1.33854,1.33854,0,0,0,1.20428-.04992l3.65178-2.10836C490.12015,502.51284,490.15886,502.20155,489.85018,502.02333Z"/>
          <path class="cls-39" d="M483.7258,498.48742l-3.85575-2.22612a1.33848,1.33848,0,0,0-1.20428.04992l-3.65179,2.10835c-.35643.20579-.39514.51708-.08646.69529l3.85575,2.22613a1.33854,1.33854,0,0,0,1.20428-.04992l3.65179-2.10836C483.99577,498.97692,484.03448,498.66563,483.7258,498.48742Z"/>
          <path class="cls-39" d="M477.60142,494.9515l-3.85576-2.22612a1.33854,1.33854,0,0,0-1.20428.04992l-3.65178,2.10836c-.35643.20578-.39514.51708-.08646.69529l3.85575,2.22612a1.33848,1.33848,0,0,0,1.20428-.04992l3.65178-2.10836C477.87138,495.441,477.91009,495.12972,477.60142,494.9515Z"/>
          <path class="cls-39" d="M471.477,491.41559l-3.85575-2.22612a1.33848,1.33848,0,0,0-1.20428.04992l-3.65178,2.10836c-.35643.20578-.39514.51707-.08647.69529l3.85576,2.22612a1.33852,1.33852,0,0,0,1.20427-.04992l3.65179-2.10836C471.747,491.90509,471.78571,491.5938,471.477,491.41559Z"/>
          <path class="cls-39" d="M495.95191,498.5005l-3.85575-2.22612a1.33848,1.33848,0,0,0-1.20428.04992l-3.65179,2.10836c-.35642.20578-.39514.51707-.08646.69529l3.85575,2.22612a1.33854,1.33854,0,0,0,1.20428-.04992l3.65179-2.10836C496.22188,498.99,496.26059,498.67871,495.95191,498.5005Z"/>
          <path class="cls-39" d="M526.34666,516.04891l-28.12612-16.23862a1.33854,1.33854,0,0,0-1.20428.04992l-3.65178,2.10836c-.35643.20578-.39514.51708-.08647.69529l28.12612,16.23862a1.33848,1.33848,0,0,0,1.20428-.04992l3.65178-2.10836C526.61662,516.53842,526.65533,516.22713,526.34666,516.04891Z"/>
          <path class="cls-39" d="M489.82753,494.96458l-3.85576-2.22612a1.33854,1.33854,0,0,0-1.20428.04992l-3.65178,2.10836c-.35643.20578-.39514.51708-.08646.69529l3.85575,2.22612a1.33848,1.33848,0,0,0,1.20428-.04992l3.65178-2.10836C490.09749,495.45409,490.1362,495.1428,489.82753,494.96458Z"/>
          <path class="cls-39" d="M483.70314,491.42867l-3.85575-2.22612a1.33848,1.33848,0,0,0-1.20428.04992l-3.65178,2.10836c-.35643.20578-.39514.51707-.08647.69529l3.85576,2.22612a1.33854,1.33854,0,0,0,1.20428-.04992l3.65178-2.10836C483.97311,491.91817,484.01182,491.60688,483.70314,491.42867Z"/>
          <path class="cls-39" d="M477.57876,487.89275l-3.85575-2.22612a1.33854,1.33854,0,0,0-1.20428.04992l-3.65179,2.10836c-.35643.20579-.39514.51708-.08646.69529l3.85575,2.22612a1.33848,1.33848,0,0,0,1.20428-.04992l3.65179-2.10836C477.84872,488.38226,477.88744,488.071,477.57876,487.89275Z"/>
          <path class="cls-39" d="M526.59649,523.23882l-3.85576-2.22612a1.33848,1.33848,0,0,0-1.20428.04992l-3.65178,2.10836c-.35643.20578-.39514.51707-.08646.69529l3.85575,2.22612a1.33854,1.33854,0,0,0,1.20428-.04992l3.65178-2.10836C526.86645,523.72833,526.90516,523.417,526.59649,523.23882Z"/>
          <path class="cls-39" d="M532.40326,526.59136l-3.85576-2.22612a1.33848,1.33848,0,0,0-1.20428.04992l-3.65178,2.10836c-.35643.20578-.39514.51707-.08646.69529l3.85575,2.22612a1.33854,1.33854,0,0,0,1.20428-.04992l3.65178-2.10836C532.67322,527.08087,532.71193,526.76957,532.40326,526.59136Z"/>
          <path class="cls-39" d="M538.48242,530.10117l-3.85575-2.22612a1.33848,1.33848,0,0,0-1.20428.04992l-3.65179,2.10835c-.35643.20579-.39514.51708-.08646.69529l3.85575,2.22613a1.33854,1.33854,0,0,0,1.20428-.04992l3.65179-2.10836C538.75239,530.59067,538.7911,530.27938,538.48242,530.10117Z"/>
          <path class="cls-39" d="M544.61286,533.64058l-3.85576-2.22612a1.33851,1.33851,0,0,0-1.20428.04991l-3.65178,2.10836c-.35643.20579-.39514.51708-.08646.69529l3.85575,2.22612a1.33851,1.33851,0,0,0,1.20428-.04991l3.65178-2.10836C544.88282,534.13008,544.92153,533.81879,544.61286,533.64058Z"/>
          <path class="cls-39" d="M532.69821,519.716l-3.85575-2.22612a1.33851,1.33851,0,0,0-1.20428.04991l-3.65178,2.10836c-.35643.20579-.39514.51708-.08647.69529l3.85576,2.22612a1.33848,1.33848,0,0,0,1.20428-.04992l3.65178-2.10835C532.96818,520.20549,533.00689,519.8942,532.69821,519.716Z"/>
          <path class="cls-39" d="M538.505,523.06853l-3.85575-2.22612a1.33848,1.33848,0,0,0-1.20428.04992l-3.65178,2.10835c-.35643.20579-.39514.51708-.08647.69529l3.85576,2.22613a1.33854,1.33854,0,0,0,1.20428-.04992l3.65178-2.10836C538.775,523.558,538.81366,523.24674,538.505,523.06853Z"/>
          <path class="cls-39" d="M544.58415,526.57833l-3.85576-2.22612a1.33854,1.33854,0,0,0-1.20428.04992l-3.65178,2.10836c-.35643.20578-.39514.51708-.08646.69529l3.85575,2.22612a1.33848,1.33848,0,0,0,1.20428-.04992l3.65178-2.10836C544.85411,527.06784,544.89282,526.75655,544.58415,526.57833Z"/>
          <path class="cls-39" d="M550.71458,530.11774l-3.85575-2.22612a1.33854,1.33854,0,0,0-1.20428.04992l-3.65178,2.10836c-.35643.20578-.39514.51708-.08647.69529l3.85576,2.22612a1.33848,1.33848,0,0,0,1.20428-.04992l3.65178-2.10836C550.98455,530.60725,551.02326,530.296,550.71458,530.11774Z"/>
          <path class="cls-39" d="M463.00055,500.613l-7.44813-4.30018a1.33854,1.33854,0,0,0-1.20428.04992l-3.65178,2.10836c-.35643.20578-.39514.51708-.08647.69529l7.44813,4.30018a1.33848,1.33848,0,0,0,1.20428-.04992l3.65179-2.10836C463.27052,501.10253,463.30923,500.79124,463.00055,500.613Z"/>
        </g>
        <path class="cls-40" d="M549.27583,502.77674l-28.12611-16.23862a1.33848,1.33848,0,0,0-1.20428.04992l-16.77,9.71936c-.35643.20579-.39514.51708-.08646.6953l28.12612,16.23862a1.33852,1.33852,0,0,0,1.20427-.04992l16.77-9.71937C549.5458,503.26625,549.58451,502.955,549.27583,502.77674Z"/>
      </g>
      <g>
        <path class="cls-37" d="M522.89238,552.93013,486.575,510.03352a8.9816,8.9816,0,0,0-2.36329-1.97438l-86.14027-49.741a1.08014,1.08014,0,0,0-1.36469.20158l-.00528-.00836-2.29826,2.29888,4.32958,1.66118,34.25232,40.44945a8.98149,8.98149,0,0,0,2.36274,1.97369l82.539,47.66163,2.64545,4.19117,2.29826-2.29888-.012-.00459A1.08841,1.08841,0,0,0,522.89238,552.93013Z"/>
        <path class="cls-35" d="M394.4081,462.26106l36.33173,42.90507a8.981,8.981,0,0,0,2.36275,1.97369L519.229,556.87295a1.12261,1.12261,0,0,0,1.41816-1.69755l-36.31737-42.89663a8.98106,8.98106,0,0,0-2.36332-1.97436l-86.14022-49.741A1.12262,1.12262,0,0,0,394.4081,462.26106Z"/>
      </g>
    </g>
    <g>
      <path class="cls-13" d="M652.89793,556.83489l-69.28314,43.72967a3.31729,3.31729,0,0,1-3.32638.12459l-49.05112-26.047a3.31729,3.31729,0,0,1-.21448-5.73527l66.20482-41.77627a9.5826,9.5826,0,0,1,9.60546-.36064l45.84918,24.32941A3.31728,3.31728,0,0,1,652.89793,556.83489Z"/>
      <polygon class="cls-19" points="673.009 577.491 591.372 614.357 540.209 577.286 621.836 540.436 673.009 577.491"/>
    </g>
  </g>
  <g>
    <path class="cls-31" d="M587.27718,337.29452l-.58943,24.80957c-.10615,4.468,6.11011,8.23973,13.88449,8.42444s14.16275-3.28757,14.2689-7.75556l.58943-24.80957Z"/>
    <ellipse class="cls-41" cx="601.35387" cy="337.62901" rx="8.09234" ry="14.08067" transform="translate(249.53698 930.794) rotate(-88.639)"/>
    <ellipse class="cls-31" cx="601.35387" cy="337.62901" rx="6.20295" ry="10.79314" transform="translate(249.53698 930.794) rotate(-88.639)"/>
    <path class="cls-42" d="M601.39422,335.93583c4.57188.10862,8.41727,1.84092,9.93459,4.18529-1.62694,2.26966-5.55026,3.81766-10.12215,3.709s-8.41726-1.84119-9.93458-4.18556C592.899,337.37494,596.82234,335.82721,601.39422,335.93583Z"/>
  </g>
</svg>
