<svg id="Layer_1" data-name="Layer 1" xmlns="http://www.w3.org/2000/svg" xmlns:xlink="http://www.w3.org/1999/xlink" viewBox="0 0 1000 1000">
  <defs>
    <style>
      .cls-1, .cls-26, .cls-27, .cls-60, .cls-61 {
        fill: none;
      }

      .cls-2 {
        fill: #d6ceb9;
      }

      .cls-3 {
        fill: url(#linear-gradient);
      }

      .cls-4 {
        fill: url(#linear-gradient-2);
      }

      .cls-5 {
        fill: #b7babc;
      }

      .cls-6 {
        fill: url(#linear-gradient-3);
      }

      .cls-7 {
        fill: url(#linear-gradient-4);
      }

      .cls-8 {
        fill: url(#linear-gradient-5);
      }

      .cls-9 {
        fill: url(#linear-gradient-6);
      }

      .cls-10 {
        fill: url(#linear-gradient-7);
      }

      .cls-11 {
        fill: #e58630;
      }

      .cls-12 {
        fill: url(#linear-gradient-8);
      }

      .cls-13, .cls-59, .cls-84 {
        opacity: 0.5;
      }

      .cls-14 {
        fill: url(#linear-gradient-9);
      }

      .cls-15 {
        fill: #94989b;
      }

      .cls-16 {
        fill: #586c7f;
      }

      .cls-17 {
        fill: url(#linear-gradient-10);
      }

      .cls-18 {
        fill: url(#linear-gradient-11);
      }

      .cls-19 {
        fill: url(#linear-gradient-12);
      }

      .cls-20 {
        fill: url(#linear-gradient-13);
      }

      .cls-21 {
        fill: #5e5e5e;
      }

      .cls-22 {
        fill: url(#linear-gradient-14);
      }

      .cls-23 {
        fill: #424242;
      }

      .cls-24 {
        fill: #ffcb48;
      }

      .cls-25 {
        fill: #a9b5bf;
      }

      .cls-26, .cls-27, .cls-60, .cls-61 {
        stroke-miterlimit: 10;
      }

      .cls-26, .cls-27 {
        stroke-width: 4.19613px;
      }

      .cls-26 {
        stroke: url(#linear-gradient-15);
      }

      .cls-27 {
        stroke: url(#linear-gradient-16);
      }

      .cls-28 {
        fill: url(#linear-gradient-17);
      }

      .cls-29 {
        fill: url(#linear-gradient-18);
      }

      .cls-30 {
        fill: #c67d1c;
      }

      .cls-31 {
        fill: #f2f2f2;
      }

      .cls-32 {
        fill: #dda026;
      }

      .cls-33 {
        fill: #eabe32;
      }

      .cls-34 {
        fill: #d8d8d8;
      }

      .cls-35 {
        fill: #c9c9c9;
      }

      .cls-36 {
        fill: #b9c1c6;
      }

      .cls-37 {
        fill: #d0d8dd;
      }

      .cls-38 {
        fill: #cfd2d3;
      }

      .cls-39 {
        fill: url(#linear-gradient-19);
      }

      .cls-40 {
        fill: url(#linear-gradient-20);
      }

      .cls-41 {
        fill: url(#linear-gradient-21);
      }

      .cls-42 {
        fill: url(#linear-gradient-22);
      }

      .cls-43 {
        fill: #5b6175;
      }

      .cls-44 {
        fill: #656b7c;
      }

      .cls-45 {
        fill: #7a8299;
      }

      .cls-46 {
        fill: url(#linear-gradient-23);
      }

      .cls-47 {
        fill: url(#linear-gradient-24);
      }

      .cls-48 {
        fill: url(#linear-gradient-25);
      }

      .cls-49 {
        fill: url(#linear-gradient-26);
      }

      .cls-50 {
        fill: url(#linear-gradient-27);
      }

      .cls-51 {
        fill: url(#linear-gradient-28);
      }

      .cls-52 {
        fill: url(#linear-gradient-29);
      }

      .cls-53 {
        fill: url(#linear-gradient-30);
      }

      .cls-54 {
        fill: #565656;
        opacity: 0.4;
      }

      .cls-55 {
        fill: url(#linear-gradient-31);
      }

      .cls-56 {
        fill: url(#linear-gradient-32);
      }

      .cls-57 {
        fill: url(#linear-gradient-33);
      }

      .cls-58 {
        fill: url(#linear-gradient-34);
      }

      .cls-59 {
        fill: url(#linear-gradient-35);
      }

      .cls-60, .cls-61 {
        stroke-width: 5px;
      }

      .cls-60 {
        stroke: url(#linear-gradient-36);
      }

      .cls-61 {
        stroke: url(#linear-gradient-37);
      }

      .cls-62 {
        fill: url(#linear-gradient-38);
      }

      .cls-63 {
        fill: url(#linear-gradient-39);
      }

      .cls-64 {
        fill: url(#linear-gradient-40);
      }

      .cls-65 {
        fill: url(#linear-gradient-41);
      }

      .cls-66 {
        fill: url(#linear-gradient-42);
      }

      .cls-67 {
        fill: #34a521;
      }

      .cls-68 {
        fill: #b8cbd8;
      }

      .cls-69 {
        fill: url(#linear-gradient-43);
      }

      .cls-70 {
        fill: url(#linear-gradient-44);
      }

      .cls-71 {
        fill: url(#linear-gradient-45);
      }

      .cls-72 {
        fill: #fff;
      }

      .cls-73 {
        fill: url(#linear-gradient-46);
      }

      .cls-74 {
        clip-path: url(#clip-path);
      }

      .cls-75 {
        fill: url(#linear-gradient-47);
      }

      .cls-76 {
        fill: url(#linear-gradient-48);
      }

      .cls-77 {
        fill: #541510;
        opacity: 0.3;
      }

      .cls-78 {
        fill: url(#linear-gradient-49);
      }

      .cls-79 {
        fill: url(#linear-gradient-50);
      }

      .cls-80 {
        fill: #bcd0e2;
      }

      .cls-81 {
        fill: #e9f1f4;
      }

      .cls-82 {
        fill: url(#linear-gradient-51);
      }

      .cls-83 {
        fill: url(#linear-gradient-52);
      }

      .cls-84, .cls-86, .cls-98 {
        fill: #dd7b19;
      }

      .cls-85 {
        fill: url(#linear-gradient-53);
      }

      .cls-86 {
        opacity: 0.6;
      }

      .cls-87 {
        fill: #ffbea4;
      }

      .cls-88 {
        fill: #f49d82;
      }

      .cls-89 {
        fill: url(#linear-gradient-54);
      }

      .cls-90 {
        fill: #e2786d;
      }

      .cls-91 {
        fill: #493628;
      }

      .cls-92 {
        fill: #303d49;
      }

      .cls-93 {
        fill: #27343d;
      }

      .cls-94 {
        fill: #ef8e73;
      }

      .cls-95 {
        fill: url(#linear-gradient-55);
      }

      .cls-96 {
        fill: url(#linear-gradient-56);
      }

      .cls-97 {
        fill: url(#linear-gradient-57);
      }

      .cls-99 {
        fill: url(#linear-gradient-58);
      }

      .cls-100 {
        fill: url(#linear-gradient-59);
      }
    </style>
    <linearGradient id="linear-gradient" x1="119.76982" y1="396.22833" x2="526.41606" y2="396.22833" gradientUnits="userSpaceOnUse">
      <stop offset="0" stop-color="#c3d6e6"/>
      <stop offset="1" stop-color="#f2eee4"/>
    </linearGradient>
    <linearGradient id="linear-gradient-2" x1="526.40823" y1="448.86525" x2="526.40823" y2="932.70331" gradientUnits="userSpaceOnUse">
      <stop offset="0" stop-color="#f2ecda"/>
      <stop offset="0.99337" stop-color="#c4d5e6"/>
    </linearGradient>
    <linearGradient id="linear-gradient-3" x1="673.71295" y1="196.70785" x2="667.58529" y2="519.94189" gradientTransform="matrix(-1, 0, 0, 1, 1402.70211, 0)" gradientUnits="userSpaceOnUse">
      <stop offset="0" stop-color="#293440"/>
      <stop offset="1" stop-color="#3e4c59"/>
    </linearGradient>
    <linearGradient id="linear-gradient-4" x1="500.00559" y1="404.02748" x2="843.34832" y2="404.02748" gradientTransform="matrix(-1, 0, 0, 1, 1402.70211, 0)" gradientUnits="userSpaceOnUse">
      <stop offset="0" stop-color="#5b6f82"/>
      <stop offset="1" stop-color="#849bb2"/>
    </linearGradient>
    <linearGradient id="linear-gradient-5" x1="861.72202" y1="301.00914" x2="487.82501" y2="503.68794" gradientTransform="matrix(-1, 0, 0, 1, 1402.70211, 0)" gradientUnits="userSpaceOnUse">
      <stop offset="0" stop-color="#7e858c"/>
      <stop offset="1" stop-color="#435466"/>
    </linearGradient>
    <linearGradient id="linear-gradient-6" x1="794.68261" y1="333.2631" x2="656.20429" y2="408.32821" gradientTransform="matrix(-1, 0, 0, 1, 1402.70211, 0)" gradientUnits="userSpaceOnUse">
      <stop offset="0" stop-color="#62778c"/>
      <stop offset="1" stop-color="#435466"/>
    </linearGradient>
    <linearGradient id="linear-gradient-7" x1="683.2138" y1="397.61553" x2="544.73548" y2="472.68064" xlink:href="#linear-gradient-6"/>
    <linearGradient id="linear-gradient-8" x1="502.0938" y1="340.92921" x2="677.49805" y2="576.84411" gradientTransform="matrix(-1, 0, 0, 1, 1402.70211, 0)" gradientUnits="userSpaceOnUse">
      <stop offset="0.00005" stop-color="#ffcb48"/>
      <stop offset="1" stop-color="#e68e2b"/>
    </linearGradient>
    <linearGradient id="linear-gradient-9" x1="679.82266" y1="238.28599" x2="855.22692" y2="474.20089" xlink:href="#linear-gradient-8"/>
    <linearGradient id="linear-gradient-10" x1="290.95539" y1="247.93019" x2="854.77416" y2="247.93019" gradientTransform="matrix(-1, 0, 0, 1, 1402.70211, 0)" gradientUnits="userSpaceOnUse">
      <stop offset="0" stop-color="#5b6f82"/>
      <stop offset="1" stop-color="#a0a9b2"/>
    </linearGradient>
    <linearGradient id="linear-gradient-11" x1="541.84729" y1="278.49767" x2="541.84729" y2="555.97504" gradientUnits="userSpaceOnUse">
      <stop offset="0" stop-color="#fffbf2"/>
      <stop offset="0.58386" stop-color="#fffbf2" stop-opacity="0"/>
    </linearGradient>
    <linearGradient id="linear-gradient-12" x1="511.6054" y1="542.13287" x2="569.5027" y2="542.13287" gradientTransform="matrix(1, 0, 0, 1, 0, 0)" xlink:href="#linear-gradient-6"/>
    <linearGradient id="linear-gradient-13" x1="511.60539" y1="537.72155" x2="569.50271" y2="537.72155" gradientUnits="userSpaceOnUse">
      <stop offset="0" stop-color="#849bb2"/>
      <stop offset="1" stop-color="#5b6f82"/>
    </linearGradient>
    <linearGradient id="linear-gradient-14" x1="501.09902" y1="274.43219" x2="580.00913" y2="274.43219" gradientUnits="userSpaceOnUse">
      <stop offset="0.00844" stop-color="#ffc63f"/>
      <stop offset="1" stop-color="#e68a23"/>
    </linearGradient>
    <linearGradient id="linear-gradient-15" x1="4651.06543" y1="625.72167" x2="4707.20664" y2="651.37141" gradientTransform="matrix(-1, 0, 0, 1, 4875.04256, 0)" gradientUnits="userSpaceOnUse">
      <stop offset="0" stop-color="#3e4c59"/>
      <stop offset="1" stop-color="#293440"/>
    </linearGradient>
    <linearGradient id="linear-gradient-16" x1="4398.86056" y1="522.09322" x2="4455.00178" y2="547.74296" xlink:href="#linear-gradient-15"/>
    <linearGradient id="linear-gradient-17" x1="4417.79384" y1="519.97549" x2="4673.0044" y2="636.5758" gradientTransform="matrix(-1, 0, 0, 1, 4875.04256, 0)" gradientUnits="userSpaceOnUse">
      <stop offset="0" stop-color="#ccbf96"/>
      <stop offset="1" stop-color="#748ea6"/>
    </linearGradient>
    <linearGradient id="linear-gradient-18" x1="507.67462" y1="474.92404" x2="371.63733" y2="537.0766" gradientUnits="userSpaceOnUse">
      <stop offset="0" stop-color="#736b50"/>
      <stop offset="1" stop-color="#475866"/>
    </linearGradient>
    <linearGradient id="linear-gradient-19" x1="-2436.82862" y1="612.33255" x2="-2426.21944" y2="612.33255" gradientTransform="matrix(-1, 0, 0, 1, -2121.88683, 0)" xlink:href="#linear-gradient-6"/>
    <linearGradient id="linear-gradient-20" x1="443.78232" y1="488.44513" x2="210.19125" y2="595.16795" gradientTransform="matrix(1, 0, 0, 1, 0, 0)" xlink:href="#linear-gradient-6"/>
    <linearGradient id="linear-gradient-21" x1="233.79753" y1="562.98651" x2="468.77751" y2="562.98651" gradientUnits="userSpaceOnUse">
      <stop offset="0" stop-color="#526575"/>
      <stop offset="1" stop-color="#8c8262"/>
    </linearGradient>
    <linearGradient id="linear-gradient-22" x1="233.79753" y1="546.20154" x2="468.76883" y2="546.20154" gradientUnits="userSpaceOnUse">
      <stop offset="0" stop-color="#748ea6"/>
      <stop offset="1" stop-color="#ccbf96"/>
    </linearGradient>
    <linearGradient id="linear-gradient-23" x1="513.14857" y1="486.90779" x2="199.19005" y2="630.3488" gradientUnits="userSpaceOnUse">
      <stop offset="0" stop-color="#8c8262"/>
      <stop offset="1" stop-color="#526575"/>
    </linearGradient>
    <linearGradient id="linear-gradient-24" x1="170.03594" y1="541.06969" x2="480.09917" y2="541.06969" xlink:href="#linear-gradient-22"/>
    <linearGradient id="linear-gradient-25" x1="556.94756" y1="446.82443" x2="520.94756" y2="603.07975" gradientUnits="userSpaceOnUse">
      <stop offset="0" stop-color="#b2a784"/>
      <stop offset="1" stop-color="#6e7982"/>
    </linearGradient>
    <linearGradient id="linear-gradient-26" x1="562.84698" y1="489.34259" x2="559.1023" y2="634.36387" xlink:href="#linear-gradient-23"/>
    <linearGradient id="linear-gradient-27" x1="571.36391" y1="406.26581" x2="644.89582" y2="666.18071" xlink:href="#linear-gradient-23"/>
    <linearGradient id="linear-gradient-28" x1="586.98822" y1="426.72583" x2="645.71163" y2="620.25774" xlink:href="#linear-gradient-25"/>
    <linearGradient id="linear-gradient-29" x1="670.28474" y1="416.40441" x2="741.7741" y2="590.36185" xlink:href="#linear-gradient-23"/>
    <linearGradient id="linear-gradient-30" x1="640.70275" y1="429.50454" x2="670.57509" y2="588.82369" gradientUnits="userSpaceOnUse">
      <stop offset="0" stop-color="#b2a784"/>
      <stop offset="0.98707" stop-color="#676d73"/>
    </linearGradient>
    <linearGradient id="linear-gradient-31" x1="688.34574" y1="456.49801" x2="702.64361" y2="598.45546" xlink:href="#linear-gradient-25"/>
    <linearGradient id="linear-gradient-32" x1="654.39187" y1="441.52541" x2="737.11527" y2="689.69562" xlink:href="#linear-gradient-23"/>
    <linearGradient id="linear-gradient-33" x1="-2251.68714" y1="618.421" x2="-2244.73656" y2="618.421" gradientTransform="translate(3040.4478)" xlink:href="#linear-gradient-15"/>
    <linearGradient id="linear-gradient-34" x1="-2377.03986" y1="648.43765" x2="-2235.58427" y2="648.43765" gradientTransform="translate(3040.4478)" xlink:href="#linear-gradient-15"/>
    <linearGradient id="linear-gradient-35" x1="-2541.07392" y1="634.00099" x2="-2422.96377" y2="634.00099" gradientTransform="translate(3040.4478)" xlink:href="#linear-gradient-15"/>
    <linearGradient id="linear-gradient-36" x1="9199.02817" y1="672.10491" x2="9265.82902" y2="702.6248" gradientTransform="translate(-8377.35491)" xlink:href="#linear-gradient-15"/>
    <linearGradient id="linear-gradient-37" x1="9132.49509" y1="626.09533" x2="9207.9779" y2="660.58182" gradientTransform="translate(-8377.35491)" xlink:href="#linear-gradient-15"/>
    <linearGradient id="linear-gradient-38" x1="757.48237" y1="553.27572" x2="860.63131" y2="635.99913" gradientUnits="userSpaceOnUse">
      <stop offset="0" stop-color="#8c8262"/>
      <stop offset="1" stop-color="#435466"/>
    </linearGradient>
    <linearGradient id="linear-gradient-39" x1="737.93005" y1="552.28102" x2="835.9726" y2="660.19591" gradientUnits="userSpaceOnUse">
      <stop offset="0" stop-color="#8c8262"/>
      <stop offset="0.60476" stop-color="#526575"/>
    </linearGradient>
    <linearGradient id="linear-gradient-40" x1="735.63031" y1="574.53249" x2="824.14095" y2="658.61759" gradientUnits="userSpaceOnUse">
      <stop offset="0" stop-color="#b2a784"/>
      <stop offset="1" stop-color="#5b6f82"/>
    </linearGradient>
    <linearGradient id="linear-gradient-41" x1="723.31336" y1="530.3109" x2="871.39847" y2="617.45984" xlink:href="#linear-gradient-23"/>
    <linearGradient id="linear-gradient-42" x1="735.70919" y1="521.39423" x2="862.34749" y2="612.79848" gradientTransform="matrix(1, 0, 0, 1, 0, 0)" xlink:href="#linear-gradient-17"/>
    <linearGradient id="linear-gradient-43" x1="160.88037" y1="296.58326" x2="160.88037" y2="494.5585" gradientUnits="userSpaceOnUse">
      <stop offset="0" stop-color="#fff2d7"/>
      <stop offset="0.98888" stop-color="#e6edf2" stop-opacity="0.6"/>
    </linearGradient>
    <linearGradient id="linear-gradient-44" x1="328.31965" y1="296.58346" x2="328.31965" y2="494.55841" xlink:href="#linear-gradient-43"/>
    <linearGradient id="linear-gradient-45" x1="245.35783" y1="303.74967" x2="245.35783" y2="507.39274" gradientTransform="matrix(1, 0, 0, 1, 0, 0)" xlink:href="#linear-gradient-6"/>
    <linearGradient id="linear-gradient-46" x1="159.80482" y1="127.53304" x2="347.91762" y2="355.05995" gradientUnits="userSpaceOnUse">
      <stop offset="0" stop-color="#e68a23"/>
      <stop offset="0.99156" stop-color="#ffc63f"/>
    </linearGradient>
    <clipPath id="clip-path">
      <path class="cls-1" d="M1455.98541,305.84375a194.17509,194.17509,0,1,1-71.04617-150.16185A193.78539,193.78539,0,0,1,1455.98541,305.84375Z"/>
    </clipPath>
    <linearGradient id="linear-gradient-47" x1="364.55137" y1="716.99071" x2="2031.87113" y2="1164.6643" gradientTransform="matrix(1, 0, 0, 1, 0, 0)" xlink:href="#linear-gradient-6"/>
    <linearGradient id="linear-gradient-48" x1="-89.39552" y1="828.69195" x2="1272.86551" y2="1695.96993" gradientUnits="userSpaceOnUse">
      <stop offset="0" stop-color="#62788c"/>
      <stop offset="1" stop-color="#526575"/>
    </linearGradient>
    <linearGradient id="linear-gradient-49" x1="-113.63894" y1="995.62719" x2="2089.31999" y2="1114.80366" gradientTransform="matrix(1, 0, 0, 1, 0, 0)" xlink:href="#linear-gradient-15"/>
    <linearGradient id="linear-gradient-50" x1="-39.69889" y1="1131.79084" x2="1843.88584" y2="1233.68969" gradientTransform="matrix(1, 0, 0, 1, 0, 0)" xlink:href="#linear-gradient-15"/>
    <linearGradient id="linear-gradient-51" x1="1208.51477" y1="1184.47703" x2="1312.19626" y2="1346.22015" gradientTransform="matrix(1, 0, 0, 1, 0, 0)" xlink:href="#linear-gradient-15"/>
    <linearGradient id="linear-gradient-52" x1="1024.0691" y1="316.38194" x2="1062.02497" y2="686.18055" gradientTransform="matrix(1, 0, 0, 1, 0, 0)" xlink:href="#linear-gradient-8"/>
    <linearGradient id="linear-gradient-53" x1="26.88259" y1="551.32148" x2="1151.85591" y2="1178.85762" gradientTransform="matrix(1, 0, 0, 1, 0, 0)" xlink:href="#linear-gradient-8"/>
    <linearGradient id="linear-gradient-54" x1="1027.98475" y1="315.98004" x2="1065.94062" y2="685.77865" gradientTransform="matrix(1, 0, 0, 1, 0, 0)" xlink:href="#linear-gradient-8"/>
    <linearGradient id="linear-gradient-55" x1="593.15825" y1="412.42797" x2="643.62677" y2="559.33635" gradientTransform="matrix(1, 0, 0, 1, 0, 0)" xlink:href="#linear-gradient-8"/>
    <linearGradient id="linear-gradient-56" x1="606.70095" y1="407.77555" x2="657.16947" y2="554.68393" gradientTransform="matrix(1, 0, 0, 1, 0, 0)" xlink:href="#linear-gradient-8"/>
    <linearGradient id="linear-gradient-57" x1="642.28124" y1="395.55238" x2="692.74976" y2="542.46076" gradientTransform="matrix(1, 0, 0, 1, 0, 0)" xlink:href="#linear-gradient-8"/>
    <linearGradient id="linear-gradient-58" x1="603.64821" y1="365.77303" x2="635.64821" y2="417.17729" gradientUnits="userSpaceOnUse">
      <stop offset="0" stop-color="#75413e"/>
      <stop offset="0.98888" stop-color="#5b3c39"/>
    </linearGradient>
    <linearGradient id="linear-gradient-59" x1="621.80577" y1="354.46965" x2="653.80577" y2="405.87391" xlink:href="#linear-gradient-58"/>
  </defs>
  <g>
    <g>
      <polygon class="cls-2" points="526.4 81.236 933.047 316.004 933.047 711.22 526.4 476.43 526.4 81.236"/>
      <polygon class="cls-3" points="526.416 81.236 119.77 316.004 119.77 711.22 526.416 476.43 526.416 81.236"/>
    </g>
    <path class="cls-4" d="M126.787,723.3864l378.58059,218.564a42.10143,42.10143,0,0,0,42.1011-.00062l378.5612-218.56743a14.03381,14.03381,0,0,0,.00016-24.307L547.45226,480.49136a42.10144,42.10144,0,0,0-42.10408.00053l-378.562,218.58744A14.03381,14.03381,0,0,0,126.787,723.3864Z"/>
    <path class="cls-5" d="M537.94616,756.75267c-46.28792,0-83.81215-21.56548-83.81215-48.16783,0-22.04521,25.77887-40.61765,60.94976-46.33859l103.38611,59.69133C608.39366,742.04153,576.16993,756.75267,537.94616,756.75267Z"/>
    <path class="cls-5" d="M829.15113,631.21544,653.32954,529.57052a18.68806,18.68806,0,0,0-18.70657,0L458.80138,631.21544a9.344,9.344,0,0,0,0,16.179L634.623,749.03933a18.68806,18.68806,0,0,0,18.70657,0L829.15113,647.3944A9.344,9.344,0,0,0,829.15113,631.21544Z"/>
  </g>
  <g>
    <g>
      <path class="cls-6" d="M555.51233,138.02708l11.46525,2.15873L910.32665,338.4269V661.251l-11.46525,6.61724L555.51233,469.63866Z"/>
      <polygon class="cls-7" points="559.354 143.497 563.295 145.772 563.29 464.208 902.697 660.152 902.696 664.558 559.354 466.338 559.354 143.497"/>
      <path class="cls-8" d="M547.86556,123.59864V472.97115l366.319,211.48427v-349.352Zm354.83071,540.959L559.35383,466.33825l0-322.84091L902.69627,341.73605Z"/>
    </g>
    <polygon class="cls-9" points="674.759 528.56 679.759 531.447 679.759 213.031 674.759 210.144 674.759 528.56"/>
    <polygon class="cls-10" points="786.227 592.913 791.227 595.799 791.227 277.384 786.227 274.497 786.227 592.913"/>
    <g>
      <path class="cls-11" d="M730.50218,249.55223l172.19409,99.549V662.5056a2.97177,2.97177,0,0,1-1.50512,2.60064l.00024.00019-3.38843,1.94964.40357-1.94726-.01-.005L734.99571,570.8997a9,9,0,0,1-4.50073-7.79486l-3.38391-311.60046Z"/>
      <path class="cls-12" d="M727.10393,565.057,727.111,251.5044l172.19412,99.549V664.45774a3,3,0,0,1-4.49976,2.59822l-163.20076-94.2041A9,9,0,0,1,727.10393,565.057Z"/>
      <g>
        <g class="cls-13">
          <polygon class="cls-11" points="877.493 657.035 879.793 658.363 879.793 339.771 877.493 338.444 877.493 657.035"/>
        </g>
        <g class="cls-13">
          <polygon class="cls-11" points="855.682 644.426 857.981 645.753 857.981 327.162 855.682 325.834 855.682 644.426"/>
        </g>
        <g class="cls-13">
          <polygon class="cls-11" points="833.87 631.816 836.169 633.144 836.169 314.552 833.87 313.225 833.87 631.816"/>
        </g>
        <g class="cls-13">
          <polygon class="cls-11" points="812.058 619.207 814.358 620.534 814.358 301.943 812.058 300.615 812.058 619.207"/>
        </g>
        <g class="cls-13">
          <polygon class="cls-11" points="790.247 606.597 792.546 607.924 792.546 289.333 790.247 288.006 790.247 606.597"/>
        </g>
        <g class="cls-13">
          <polygon class="cls-11" points="768.435 593.987 770.734 595.315 770.734 276.724 768.435 275.396 768.435 593.987"/>
        </g>
        <g class="cls-13">
          <polygon class="cls-11" points="746.623 581.378 748.923 582.705 748.923 264.114 746.623 262.786 746.623 581.378"/>
        </g>
      </g>
    </g>
    <g>
      <path class="cls-11" d="M552.77331,146.909l172.1941,99.549V559.86238a2.97178,2.97178,0,0,1-1.50513,2.60064l.00024.00019-3.38842,1.94964.40356-1.94726-.01-.005-163.2008-94.2041a9,9,0,0,1-4.50074-7.79486L549.3822,148.86116Z"/>
      <path class="cls-14" d="M549.37506,462.41379l.00712-313.55261,172.19412,99.549V561.81452a3,3,0,0,1-4.49977,2.59822l-163.20076-94.2041A9,9,0,0,1,549.37506,462.41379Z"/>
      <g>
        <g class="cls-13">
          <polygon class="cls-11" points="699.765 554.392 702.064 555.72 702.064 237.128 699.765 235.801 699.765 554.392"/>
        </g>
        <g class="cls-13">
          <polygon class="cls-11" points="677.953 541.782 680.252 543.11 680.252 224.519 677.953 223.191 677.953 541.782"/>
        </g>
        <g class="cls-13">
          <polygon class="cls-11" points="656.141 529.173 658.441 530.5 658.441 211.909 656.141 210.581 656.141 529.173"/>
        </g>
        <g class="cls-13">
          <polygon class="cls-11" points="634.33 516.563 636.629 517.891 636.629 199.299 634.33 197.972 634.33 516.563"/>
        </g>
        <g class="cls-13">
          <polygon class="cls-11" points="612.518 503.954 614.817 505.281 614.817 186.69 612.518 185.362 612.518 503.954"/>
        </g>
        <g class="cls-13">
          <polygon class="cls-11" points="590.706 491.344 593.006 492.672 593.006 174.08 590.706 172.753 590.706 491.344"/>
        </g>
        <g class="cls-13">
          <polygon class="cls-11" points="568.895 478.735 571.194 480.062 571.194 161.471 568.895 160.143 568.895 478.735"/>
        </g>
      </g>
    </g>
    <g>
      <path class="cls-15" d="M551.85051,140.17186v6.03443l14.83479,8.56337v-6.91922a3.3619,3.3619,0,0,0-1.68117-2.91162L554.298,138.75869A1.63171,1.63171,0,0,0,551.85051,140.17186Z"/>
      <path class="cls-16" d="M894.25477,338.12359V344.158l14.83478,8.56337v-6.91922a3.3619,3.3619,0,0,0-1.68116-2.91162l-10.70617-6.18013A1.63171,1.63171,0,0,0,894.25477,338.12359Z"/>
      <path class="cls-17" d="M544.115,146.71622,906.7412,356.12129l3.92587-6.7998L548.02766,139.9088l-.00179.0031a1.97737,1.97737,0,0,0-1.95074.20783,6.13758,6.13758,0,0,0-2.78518,4.8041A1.9263,1.9263,0,0,0,544.115,146.71622Z"/>
      <ellipse class="cls-16" cx="908.70414" cy="352.72139" rx="3.92587" ry="2.26305" transform="matrix(0.5, -0.86603, 0.86603, 0.5, 148.88638, 963.32156)"/>
    </g>
  </g>
  <polygon class="cls-18" points="503.481 282.857 415.365 553.598 668.33 553.598 577.289 281.146 503.481 282.857"/>
  <g>
    <g>
      <path class="cls-19" d="M568.69958,538.2879c-3.01624-7.35936-14.45729-12.84232-28.14559-12.84232s-25.12935,5.483-28.14547,12.84232h-.80312v3.845c0,9.21615,12.96068,16.6873,28.94859,16.6873s28.94871-7.47115,28.94871-16.6873v-3.845Z"/>
      <ellipse class="cls-20" cx="540.55405" cy="537.72155" rx="28.94866" ry="16.68735"/>
    </g>
    <path class="cls-21" d="M536.76089,288.73849V534.25975c0,1.2076,1.69825,2.18655,3.79315,2.18655s3.79317-.97895,3.79317-2.18655V288.73849Z"/>
    <path class="cls-21" d="M501.62137,251.10731v35.68916c0,12.35745,17.43069,22.3751,38.9327,22.3751s38.93271-10.01765,38.93271-22.3751V251.10731Z"/>
    <path class="cls-22" d="M501.099,245.01054v36.168c0,12.52324,17.66455,22.6753,39.45505,22.6753s39.45506-10.15206,39.45506-22.6753v-36.168Z"/>
    <g>
      <ellipse class="cls-11" cx="540.55405" cy="245.01066" rx="39.45507" ry="22.67533"/>
      <path class="cls-23" d="M532.0459,265.3875a38.51763,38.51763,0,0,0,17.01619,0V253.2088H532.0459Z"/>
      <ellipse class="cls-21" cx="540.55405" cy="253.20885" rx="8.50814" ry="4.90449"/>
      <path class="cls-24" d="M540.554,224.28c20.6833,0,37.5102,9.29969,37.5102,20.7306s-16.8269,20.73076-37.5102,20.73076-37.5102-9.29985-37.5102-20.73076S519.87074,224.28,540.554,224.28m0-1.9447c-21.79033,0-39.45506,10.15211-39.45506,22.6753,0,12.52335,17.66473,22.67546,39.45506,22.67546s39.45506-10.15211,39.45506-22.67546c0-12.52319-17.66472-22.6753-39.45506-22.6753Z"/>
    </g>
  </g>
  <path class="cls-25" d="M166.34563,674.45145,409.84426,533.91471a10.38471,10.38471,0,0,1,10.395,0l63.89315,36.9511a5.19235,5.19235,0,0,1,0,8.99045L240.63379,720.393a10.38469,10.38469,0,0,1-10.395,0l-63.89315-36.95109A5.19236,5.19236,0,0,1,166.34563,674.45145Z"/>
  <g>
    <path class="cls-26" d="M237.99034,660.98545v44.45677a3.1471,3.1471,0,0,1-4.72,2.72585l-47.87479-27.62536a9.44132,9.44132,0,0,1-4.72259-8.17753V556.013"/>
    <path class="cls-27" d="M476.052,526.40085v44.45677a3.1471,3.1471,0,0,1-4.72,2.72584L423.4572,545.9581a9.44129,9.44129,0,0,1-4.72259-8.17752V496.26413"/>
    <path class="cls-28" d="M349.67741,489.01153l-47.26,27.28-64.79,37.38a15.98082,15.98082,0,0,0-8.01,13.86l.01,128.25a5.32584,5.32584,0,0,0,8,4.62l191.8601-110.75,45.22-26.11a16.09086,16.09086,0,0,0,1.87-1.26Z"/>
    <path class="cls-29" d="M482.71745,421.48151l-.01,128.2a16.00539,16.00539,0,0,1-6.13,12.6l-126.9-73.27,125.04-72.15a5.25413,5.25413,0,0,1,2.64991-.73A5.348,5.348,0,0,1,482.71745,421.48151Z"/>
    <g>
      <g>
        <polygon class="cls-30" points="419.587 491.809 419.587 493.847 449.075 510.754 449.075 507.848 419.587 491.809"/>
        <path class="cls-31" d="M447.63115,509.8576,419.57374,493.847l-8.37916,4.83081L439.628,514.81031C441.42434,515.717,450.02176,511.27681,447.63115,509.8576Z"/>
        <polygon class="cls-30" points="438.612 566.25 409.002 549.179 409.002 497.893 438.612 514.702 438.612 566.25"/>
        <path class="cls-32" d="M438.61207,514.7023l-.00012,51.5482c2.87214,1.58005,12.933-3.77174,12.868-6.43534V508.35853C451.48419,510.76632,441.62558,516.39281,438.61207,514.7023Z"/>
        <path class="cls-33" d="M450.80584,507.39493,421.59578,490.715l-2.0085,1.09372,28.04378,16.00286c2.39063,1.41921-6.20671,5.85943-8.003,4.95271l-28.43277-16.13217-2.19333,1.26056,29.61016,16.80959C442.08088,516.64818,454.53463,509.63452,450.80584,507.39493Z"/>
      </g>
      <g>
        <polygon class="cls-30" points="402.798 501.496 402.798 503.534 432.286 520.441 432.286 517.535 402.798 501.496"/>
        <path class="cls-31" d="M430.84191,519.54512,402.7845,503.53449l-8.37916,4.83081,28.43339,16.13253C424.6351,525.40451,433.23252,520.96432,430.84191,519.54512Z"/>
        <polygon class="cls-30" points="421.823 575.938 392.213 558.867 392.213 507.58 421.823 524.39 421.823 575.938"/>
        <path class="cls-32" d="M421.82283,524.38982l-.00012,51.54819c2.87214,1.58006,12.933-3.77173,12.868-6.43534V518.046C434.695,520.45384,424.83634,526.08033,421.82283,524.38982Z"/>
        <path class="cls-33" d="M434.0166,517.08245l-29.21006-16.67991-2.0085,1.09373,28.04378,16.00286c2.39063,1.41921-6.20671,5.85943-8.003,4.9527L394.406,506.31966l-2.19333,1.26056,29.61016,16.80959C425.29164,526.33569,437.74539,519.322,434.0166,517.08245Z"/>
      </g>
      <g>
        <polygon class="cls-30" points="386.009 511.184 386.009 513.222 415.496 530.129 415.496 527.223 386.009 511.184"/>
        <path class="cls-31" d="M414.05267,529.23264,385.99526,513.222l-8.37916,4.83081,28.43339,16.13252C407.84586,535.092,416.44328,530.65184,414.05267,529.23264Z"/>
        <polygon class="cls-30" points="405.034 585.626 375.424 568.554 375.424 517.268 405.034 534.077 405.034 585.626"/>
        <path class="cls-34" d="M396.35351,544.59252l-13.68736-7.88443a2.79071,2.79071,0,0,1-1.39773-2.41819v-4.6653a.93023.93023,0,0,1,1.38929-.80908l13.67682,7.75993a2.79071,2.79071,0,0,1,1.41354,2.42723v4.78377A.93024.93024,0,0,1,396.35351,544.59252Z"/>
        <path class="cls-32" d="M405.03359,534.07734l-.00012,51.54819c2.87214,1.58006,12.933-3.77173,12.868-6.43534l0-51.45663C417.90571,530.14136,408.0471,535.76785,405.03359,534.07734Z"/>
        <path class="cls-33" d="M417.22736,526.77,388.0173,510.09006l-2.0085,1.09372,28.04378,16.00286c2.39063,1.41922-6.20671,5.85944-8.003,4.95271l-28.43277-16.13217-2.19333,1.26056,29.61016,16.80959C408.5024,536.02321,420.95615,529.00956,417.22736,526.77Z"/>
      </g>
    </g>
    <g>
      <g>
        <g>
          <polygon class="cls-30" points="368.259 519.962 368.259 522.001 397.747 538.907 397.747 536.001 368.259 519.962"/>
          <path class="cls-31" d="M396.30326,538.0112l-28.05741-16.01063-8.37916,4.83081,28.43339,16.13252C390.09645,543.87059,398.69387,539.4304,396.30326,538.0112Z"/>
          <polygon class="cls-30" points="387.284 594.404 357.674 577.333 357.674 526.046 387.284 542.856 387.284 594.404"/>
          <path class="cls-32" d="M387.28418,542.8559l-.00012,51.54819c2.87214,1.58006,12.933-3.77173,12.868-6.43534V536.51212C400.1563,538.91992,390.29769,544.54641,387.28418,542.8559Z"/>
          <path class="cls-33" d="M399.478,535.54853l-29.21006-16.67991-2.0085,1.09372,28.04378,16.00286c2.39063,1.41922-6.20671,5.85944-8.00305,4.95271l-28.43277-16.13217L357.674,526.0463l29.61016,16.80959C390.753,544.80177,403.20674,537.78812,399.478,535.54853Z"/>
        </g>
        <g>
          <polygon class="cls-30" points="351.47 529.65 351.47 531.688 380.958 548.595 380.958 545.689 351.47 529.65"/>
          <path class="cls-31" d="M379.514,547.69871l-28.05741-16.01062-8.37916,4.83081,28.43339,16.13252C373.30721,553.55811,381.90463,549.11792,379.514,547.69871Z"/>
          <polygon class="cls-30" points="370.495 604.092 340.885 587.02 340.885 535.734 370.495 552.543 370.495 604.092"/>
          <path class="cls-34" d="M361.81486,563.0586l-13.68736-7.88443a2.7907,2.7907,0,0,1-1.39773-2.41819v-4.66531a.93023.93023,0,0,1,1.38929-.80907l13.67682,7.75993a2.79071,2.79071,0,0,1,1.41354,2.42723v4.78377A.93024.93024,0,0,1,361.81486,563.0586Z"/>
          <path class="cls-32" d="M370.49494,552.54341l-.00012,51.5482c2.87214,1.58005,12.933-3.77174,12.868-6.43534V546.19964C383.36706,548.60744,373.50845,554.23392,370.49494,552.54341Z"/>
          <path class="cls-33" d="M382.68871,545.236l-29.21006-16.6799-2.0085,1.09372,28.04378,16.00286c2.39063,1.41922-6.20671,5.85943-8.00305,4.95271l-28.43277-16.13217-2.19333,1.26056,29.61016,16.80959C373.96375,554.48929,386.4175,547.47563,382.68871,545.236Z"/>
        </g>
      </g>
      <g>
        <g>
          <path class="cls-30" d="M334.3547,539.89234c-5.14246,1.53772-8.97085,3.35963-8.13672,6.191l28.8775,57.47325,7.47827,4.243a.61585.61585,0,0,0,.91976-.53564l0-50.09362a.75188.75188,0,0,0-.3756-.65095Z"/>
          <path class="cls-35" d="M326.81859,547.11791l27.07525,15.45017,8.08584-4.66171-27.43807-15.56779C332.80813,541.46363,324.51166,545.74839,326.81859,547.11791Z"/>
          <polygon class="cls-34" points="361.976 606.721 353.899 611.384 353.605 562.74 361.98 557.906 361.976 606.721"/>
          <path class="cls-33" d="M323.85463,545.966l26.89461,15.35766a4.63438,4.63438,0,0,1,2.3363,4.02446l0,47.40161-1.29656.75268.56341.32172a1.51371,1.51371,0,0,0,1.47458.01487l.44107-.2402a1.58584,1.58584,0,0,0,.82738-1.3927l0-48.11346a4.35574,4.35574,0,0,0-2.19693-3.78311l-25.86685-14.76063c-2.39223-1.42008,6.21118-5.86357,8.00873-4.95633l27.35822,15.52267a2.16169,2.16169,0,0,1,1.09492,1.88014l0,49.26852a.72111.72111,0,0,1-.91973.5357l.16245.09214a1.52481,1.52481,0,0,0,1.512-.00418l.90988-.52283a1.05683,1.05683,0,0,0,.53031-.91634l0-49.1537a3.12552,3.12552,0,0,0-1.58249-2.71808l-28.04883-15.92326C332.58577,536.70607,320.1231,543.72462,323.85463,545.966Z"/>
          <path class="cls-30" d="M323.16542,596.51105l0,.00362.00008.00326.00075.00168a1.23072,1.23072,0,0,0,.68844,1.0314L351.789,613.50239a.86675.86675,0,0,0,1.29656-.75268l0-47.87508a3.83549,3.83549,0,0,0-1.921-3.32349l-27.71029-15.96279-.28481-.63012Z"/>
        </g>
        <g>
          <path class="cls-30" d="M318.54892,553.08085c-5.226,1.53889-9.15335,3.36219-8.473,6.19567l25.75552,57.51709,7.24779,4.24626a.646.646,0,0,0,.94886-.536l2.72111-50.13183a.70709.70709,0,0,0-.34024-.65145Z"/>
          <path class="cls-35" d="M310.62032,560.31194l26.236,15.46194,8.33907-4.66526L318.603,555.529C316.917,554.65334,308.38778,558.94137,310.62032,560.31194Z"/>
          <polygon class="cls-34" points="342.54 619.96 334.21 624.627 336.559 575.945 345.195 571.109 342.54 619.96"/>
          <path class="cls-33" d="M307.71893,559.15912l26.06037,15.36937A4.35751,4.35751,0,0,1,335.897,578.556l-2.57484,47.43776-1.33744.75326.54594.322a1.5102,1.5102,0,0,0,1.47377.01487l.45411-.24038a1.69616,1.69616,0,0,0,.903-1.39376l2.61351-48.15016a4.09546,4.09546,0,0,0-1.99143-3.786l-25.065-14.77189c-2.3151-1.42116,6.52969-5.86805,8.27795-4.96012l26.515,15.53451a2.03236,2.03236,0,0,1,.9928,1.88158l-2.67631,49.3061a.76223.76223,0,0,1-.94883.53611l.15745.09221a1.52417,1.52417,0,0,0,1.51227-.00419l.93828-.52322a1.12986,1.12986,0,0,0,.58008-.917l2.67-49.1912a2.93857,2.93857,0,0,0-1.43484-2.72015l-27.18387-15.9354C316.95307,549.89215,304.10916,556.91605,307.71893,559.15912Z"/>
          <path class="cls-32" d="M304.28409,609.74275l-.00021.00362-.0001.00326.00065.00168a1.15311,1.15311,0,0,0,.63242,1.03219L331.98471,626.747a.909.909,0,0,0,1.33744-.75326l2.60056-47.91159a3.60675,3.60675,0,0,0-1.74043-3.326l-26.84319-15.975-.25058-.6306Z"/>
        </g>
      </g>
    </g>
    <g>
      <path class="cls-36" d="M326.52855,593.64562v37.47713a1.88644,1.88644,0,0,1-.95216,1.64722L289.74654,653.489a3.87747,3.87747,0,0,1-1.90432.50461v-60.348Z"/>
      <path class="cls-37" d="M287.84222,593.64562v60.348a3.87748,3.87748,0,0,1-1.90433-.50461l-46.99163-27.15586a1.88642,1.88642,0,0,1-.95216-1.64722V587.20881Z"/>
      <path class="cls-38" d="M238.94156,585.5602l35.83268-20.71537a3.80866,3.80866,0,0,1,3.81242,0L325.58111,591.997a1.90432,1.90432,0,0,1,0,3.29729l-35.83267,20.71537a3.80863,3.80863,0,0,1-3.81243,0L238.94156,588.8575A1.90433,1.90433,0,0,1,238.94156,585.5602Z"/>
      <path class="cls-39" d="M314.01738,611.56832l-8.28628,4.82494a.93035.93035,0,0,1-1.3985-.804v-.88454a1.86071,1.86071,0,0,1,.92441-1.608l8.28629-4.82494a.93035.93035,0,0,1,1.39849.804v.88454A1.86069,1.86069,0,0,1,314.01738,611.56832Z"/>
    </g>
    <path class="cls-40" d="M237.62668,553.66659a16.007,16.007,0,0,0-8.007,13.86566l.00159,70.16351L419.34531,528.175a10.03533,10.03533,0,0,0,5.00439-8.66675l.00257-73.59088Z"/>
    <g>
      <path class="cls-41" d="M468.77751,491.26153v6.14a2.8483,2.8483,0,0,1-1.43,2.48l-233.54993,134.83v-49.02l234.97-94.42Z"/>
      <path class="cls-42" d="M468.7675,491.27154a2.82315,2.82315,0,0,1-1.43,2.41l-233.53992,134.83v-54.57l186.37988-107.6,4.24-2.45,4.24,2.46,38.68,22.37A2.81343,2.81343,0,0,1,468.7675,491.27154Z"/>
    </g>
    <g>
      <g>
        <polygon class="cls-43" points="432.707 499.149 401.794 481.327 401.794 437.363 432.707 454.912 432.707 499.149"/>
        <path class="cls-44" d="M432.70688,454.91158l-.00013,44.2376c2.99849,1.64957,13.50193-3.93764,13.434-6.71842v-44.142C446.14522,450.80246,435.85294,456.67645,432.70688,454.91158Z"/>
        <path class="cls-45" d="M445.437,447.28277l-30.495-17.41364-13.14786,7.49342,30.91268,17.549C436.32827,456.94305,449.32986,449.62087,445.437,447.28277Z"/>
      </g>
      <g>
        <polygon class="cls-30" points="417.197 511.846 386.285 494.024 386.285 450.06 417.197 467.609 417.197 511.846"/>
        <path class="cls-33" d="M417.19713,467.60882l-.00014,44.2376c2.9985,1.64956,13.50194-3.93765,13.434-6.71842V460.986C430.63547,463.4997,420.34319,469.37369,417.19713,467.60882Z"/>
        <path class="cls-32" d="M429.92728,459.98l-30.495-17.41364-13.14786,7.49342,30.91268,17.549C420.81852,469.64029,433.8201,462.31811,429.92728,459.98Z"/>
      </g>
      <g>
        <polygon class="cls-30" points="376.733 440.268 376.733 442.396 407.518 460.046 407.518 457.013 376.733 440.268"/>
        <path class="cls-34" d="M406.01022,459.1109,376.7186,442.396l-8.74775,5.04331L397.655,464.28147C399.53038,465.228,408.506,460.59254,406.01022,459.1109Z"/>
        <polygon class="cls-30" points="396.594 517.984 365.682 500.162 365.682 446.62 396.594 464.169 396.594 517.984"/>
        <path class="cls-33" d="M396.59441,464.16871l-.00013,53.81575c2.99849,1.64956,13.50194-3.93765,13.434-6.71843V457.54588C410.03276,460.0596,399.74048,465.93359,396.59441,464.16871Z"/>
        <path class="cls-32" d="M409.32456,456.5399l-30.495-17.41364-2.09685,1.14184,29.27739,16.70681c2.49579,1.48164-6.47974,6.11718-8.3551,5.17057l-29.68349-16.84181-2.28981,1.316,30.91268,17.549C400.2158,466.20019,413.21739,458.878,409.32456,456.5399Z"/>
      </g>
      <g>
        <polygon class="cls-30" points="358.754 450.698 358.754 452.826 389.539 470.476 389.539 467.442 358.754 450.698"/>
        <path class="cls-34" d="M388.03152,469.54045l-29.29163-16.71491-8.74774,5.04331L379.67629,474.711C381.55168,475.6576,390.52729,471.02209,388.03152,469.54045Z"/>
        <polygon class="cls-30" points="378.616 528.414 347.703 510.592 347.703 457.049 378.616 474.598 378.616 528.414"/>
        <path class="cls-33" d="M378.61571,474.59827l-.00014,53.81574c2.9985,1.64956,13.50194-3.93765,13.434-6.71842V467.97544C392.05405,470.48915,381.76177,476.36314,378.61571,474.59827Z"/>
        <path class="cls-32" d="M391.34586,466.96945l-30.495-17.41363-2.09686,1.14183,29.2774,16.70681c2.49579,1.48165-6.47974,6.11718-8.3551,5.17057l-29.6835-16.84181-2.2898,1.316,30.91268,17.549C382.2371,476.62974,395.23869,469.30756,391.34586,466.96945Z"/>
      </g>
      <g>
        <polygon class="cls-43" points="360.697 537.898 329.784 520.076 329.784 476.111 360.697 493.66 360.697 537.898"/>
        <path class="cls-44" d="M360.69673,493.66037l-.00013,44.2376c2.99849,1.64956,13.50194-3.93765,13.434-6.71842l0-44.142C374.13508,489.55125,363.8428,495.42524,360.69673,493.66037Z"/>
        <path class="cls-45" d="M373.42688,486.03155l-30.495-17.41363-13.14786,7.49342,30.91268,17.549C364.31813,495.69184,377.31971,488.36966,373.42688,486.03155Z"/>
      </g>
      <g>
        <polygon class="cls-43" points="344.763 551.034 313.85 533.212 313.85 489.248 344.763 506.797 344.763 551.034"/>
        <path class="cls-44" d="M344.763,506.79655l-.00013,44.23761c2.99849,1.64956,13.50194-3.93765,13.434-6.71843v-44.142C358.20134,502.68744,347.90906,508.56143,344.763,506.79655Z"/>
        <path class="cls-45" d="M357.49314,499.16774l-30.495-17.41364-13.14786,7.49342,30.91268,17.549C348.38439,508.828,361.386,501.50585,357.49314,499.16774Z"/>
      </g>
      <g>
        <path class="cls-30" d="M304.97706,486.137c-5.09663,1.524-8.89089,3.32969-8.0642,6.13576l28.6201,56.961,7.41162,4.2052a.61036.61036,0,0,0,.91156-.53087V503.26093a.7452.7452,0,0,0-.37224-.64515Z"/>
        <path class="cls-35" d="M297.50813,493.29815,324.342,508.6106l8.01377-4.62016-27.19349-15.429C303.44427,487.69427,295.22176,491.94083,297.50813,493.29815Z"/>
        <polygon class="cls-34" points="332.352 552.37 324.347 556.991 324.056 508.781 332.356 503.99 332.352 552.37"/>
        <path class="cls-33" d="M294.57058,492.15648l26.65489,15.22077a4.59308,4.59308,0,0,1,2.31547,3.98859l0,46.97909-1.285.746.55839.31886a1.50021,1.50021,0,0,0,1.46143.01473l.43714-.23806a1.57169,1.57169,0,0,0,.82-1.38028l0-47.6846a4.31687,4.31687,0,0,0-2.17734-3.74938l-25.63629-14.62906c-2.37091-1.40743,6.15582-5.81131,7.93735-4.91216L332.771,502.21526a2.14239,2.14239,0,0,1,1.08517,1.86338l0,48.82936a.71467.71467,0,0,1-.91153.53092l.161.09133a1.51121,1.51121,0,0,0,1.49856-.00415l.90178-.51817a1.0474,1.0474,0,0,0,.52557-.90817l0-48.71557a3.09771,3.09771,0,0,0-1.56839-2.69385L306.66427,484.909C303.22389,482.97911,290.87232,489.9351,294.57058,492.15648Z"/>
        <path class="cls-30" d="M293.88752,542.251l0,.00358.00008.00324.00073.00166a1.21978,1.21978,0,0,0,.68232,1.02221L322.256,559.0909a.859.859,0,0,0,1.285-.746l0-47.44834a3.8013,3.8013,0,0,0-1.90384-3.29386l-27.4633-15.82051-.28227-.6245Z"/>
      </g>
      <g>
        <path class="cls-30" d="M284.61835,497.85692c-5.09662,1.524-8.89089,3.32968-8.06419,6.13576l28.62009,56.961,7.41162,4.2052a.61036.61036,0,0,0,.91156-.53086V514.98087a.74518.74518,0,0,0-.37224-.64515Z"/>
        <path class="cls-35" d="M277.14942,505.01809l26.8339,15.31244,8.01377-4.62015-27.19349-15.429C283.08556,499.41421,274.86305,503.66077,277.14942,505.01809Z"/>
        <polygon class="cls-34" points="311.993 564.09 303.988 568.711 303.697 520.5 311.997 515.71 311.993 564.09"/>
        <path class="cls-33" d="M274.21187,503.87642l26.65489,15.22076a4.59309,4.59309,0,0,1,2.31547,3.9886l0,46.97909-1.285.746.55839.31885a1.50023,1.50023,0,0,0,1.46144.01474l.43713-.23806a1.57169,1.57169,0,0,0,.82-1.38029l0-47.6846a4.31689,4.31689,0,0,0-2.17734-3.74938L277.36057,503.463c-2.37091-1.40742,6.15581-5.8113,7.93734-4.91215l27.11435,15.3843a2.14241,2.14241,0,0,1,1.08517,1.86338l0,48.82937a.71468.71468,0,0,1-.91153.53092l.161.09132a1.51121,1.51121,0,0,0,1.49857-.00415l.90177-.51816a1.04745,1.04745,0,0,0,.52558-.90818l0-48.71556a3.09765,3.09765,0,0,0-1.56839-2.69385L286.30556,496.629C282.86519,494.69905,270.51361,501.655,274.21187,503.87642Z"/>
        <path class="cls-30" d="M273.52881,553.971l0,.00358.00008.00323.00074.00166a1.21973,1.21973,0,0,0,.68231,1.02221l27.68535,15.8092a.859.859,0,0,0,1.285-.746l0-47.44834a3.80133,3.80133,0,0,0-1.90384-3.29387l-27.4633-15.8205-.28227-.6245Z"/>
      </g>
      <g>
        <polygon class="cls-30" points="264.32 503.41 264.32 505.538 295.105 523.188 295.105 520.154 264.32 503.41"/>
        <path class="cls-34" d="M293.59757,522.25263l-29.29163-16.71491L255.5582,510.581l29.68414,16.84217C287.11773,528.36977,296.09335,523.73426,293.59757,522.25263Z"/>
        <polygon class="cls-30" points="284.182 581.126 253.269 563.304 253.269 509.761 284.182 527.31 284.182 581.126"/>
        <path class="cls-33" d="M284.18176,527.31044l-.00013,53.81575c2.99849,1.64956,13.50193-3.93765,13.434-6.71843V520.68761C297.6201,523.20133,287.32782,529.07532,284.18176,527.31044Z"/>
        <path class="cls-32" d="M296.91191,519.68163l-30.495-17.41364-2.09686,1.14184,29.2774,16.70681c2.49579,1.48164-6.47974,6.11718-8.3551,5.17057l-29.6835-16.84181-2.2898,1.316,30.91268,17.549C287.80315,529.34191,300.80474,522.01974,296.91191,519.68163Z"/>
      </g>
      <g>
        <polygon class="cls-30" points="266.526 598.167 235.613 580.344 235.613 536.38 266.526 553.929 266.526 598.167"/>
        <path class="cls-33" d="M266.52582,553.92893l-.00013,44.2376c2.99849,1.64956,13.50194-3.93765,13.434-6.71842v-44.142C279.96417,549.81981,269.67189,555.6938,266.52582,553.92893Z"/>
        <path class="cls-32" d="M279.256,546.30012l-30.495-17.41364-13.14785,7.49342,30.91268,17.549C270.14722,555.9604,283.1488,548.63822,279.256,546.30012Z"/>
      </g>
    </g>
    <path class="cls-46" d="M476.71573,422.62848l-.00434,127.04992a10.03539,10.03539,0,0,1-5.00439,8.66675L235.62265,694.62805l-.003-127.09607a10.03467,10.03467,0,0,1,5.00586-8.66852l236.09021-136.235m.656-6.4939a5.29081,5.29081,0,0,0-2.65869.72226L237.62674,553.66656a16.00725,16.00725,0,0,0-8.00708,13.86573l.00305,128.246a5.32519,5.32519,0,0,0,8.00372,4.621L474.70663,563.5415a16.00786,16.00786,0,0,0,8.00476-13.86285l.0044-128.19992a5.34292,5.34292,0,0,0-5.34406-5.34415Z"/>
    <path class="cls-47" d="M229.62273,695.77826l-.00318-128.246a16.00762,16.00762,0,0,1,8.00708-13.86567L474.71306,416.85681a5.29107,5.29107,0,0,1,2.65869-.72223,5.35714,5.35714,0,0,1,2.72315.75733l.00427-.00489-59.387-34.30786-.01331.01245a5.28353,5.28353,0,0,0-5.56958-.15619L178.043,519.24518a16.00783,16.00783,0,0,0-8.00708,13.86566l.00329,128.246a5.28557,5.28557,0,0,0,2.668,4.62091l-.00049.00049,59.62305,34.44427.00488-.00463A5.2825,5.2825,0,0,1,229.62273,695.77826Z"/>
  </g>
  <g>
    <g>
      <path class="cls-48" d="M455.30524,539.2372v80.89313a10.1177,10.1177,0,0,0,5.09712,8.79244l17.34172,9.91615,3.8112,2.18945a1.26531,1.26531,0,0,0,.17373.09269,11.39665,11.39665,0,0,0,5.88484,1.41325V557.71416a21.96124,21.96124,0,0,1,10.99348-19.02138l136.15021-78.333L611.83,447.25244a18.86477,18.86477,0,0,0-18.77042.02585L466.2872,520.21582A21.93656,21.93656,0,0,0,455.30524,539.2372Z"/>
      <path class="cls-49" d="M487.61385,557.71416v84.82015a11.46911,11.46911,0,0,0,5.87324-1.81874l1.96934-1.26265,139.30111-89.52344V460.35973l-136.15021,78.333A21.96124,21.96124,0,0,0,487.61385,557.71416Z"/>
    </g>
    <path class="cls-50" d="M499.35073,636.93888l136.25694,78.35328,135.652-87.66991-54.006-31.16177-82.3552-47.45792L503.89175,564.35174a21.0897,21.0897,0,0,0-1.51754,2.28207,22.361,22.361,0,0,0-3.00036,11.20207Z"/>
    <path class="cls-51" d="M502.37421,566.63381l133.26817,76.95156,81.61135-47.12489,41.10111-23.7362L621.982,494.10458l-109.30936,63.1228-2.13154,1.22793-.01159.01159a22.21374,22.21374,0,0,0-6.63778,5.88484A21.0897,21.0897,0,0,0,502.37421,566.63381Z"/>
    <path class="cls-52" d="M604.90834,418.30171l.70528-.807a31.81868,31.81868,0,0,1,20.19764-10.6575l15.78572-1.87905a19.841,19.841,0,0,1,12.11267,2.43154l92.7746,53.4209a36.40394,36.40394,0,0,1,17.18518,40.106l-23.404,96.2954Z"/>
    <path class="cls-53" d="M709.81722,600.75688l23.404-96.29541a36.40389,36.40389,0,0,0-17.18519-40.106l-86.4274-49.84153a19.96888,19.96888,0,0,0-29.38727,12.59227l-23.54011,96.85693Z"/>
    <polygon class="cls-54" points="709.817 600.757 576.681 523.963 579.207 513.541 712.337 590.359 709.817 600.757"/>
    <path class="cls-55" d="M617.61723,633.982v80.91624a10.11094,10.11094,0,0,0,5.07392,8.76932l.60241.336L641.78211,734.58c.01153.0116.02313.0116.03472.02319a16.41363,16.41363,0,0,0,8.109,2.13154V652.459a21.97553,21.97553,0,0,1,10.99349-19.02145l134.27356-77.244a14.01865,14.01865,0,0,0-5.05081-5.16655.01133.01133,0,0,0-.01152-.01159l-7.99319-4.72641-25.833-15.26809-2.94245,12.1635-124.76276,71.7763A21.93658,21.93658,0,0,0,617.61723,633.982Z"/>
    <path class="cls-56" d="M649.92583,652.459v84.27572a16.25586,16.25586,0,0,0,8.02791-2.11994l15.29128-8.79251,115.39111-66.38957a16.86232,16.86232,0,0,0,8.4334-14.59618V563.24833a14.24137,14.24137,0,0,0-1.87665-7.05486l-134.27356,77.244A21.97553,21.97553,0,0,0,649.92583,652.459Z"/>
    <path class="cls-57" d="M788.76067,575.40605v84.02662c0,1.10639,1.55607,2.00328,3.47528,2.00328s3.47529-.89689,3.47529-2.00328V575.40605Z"/>
    <path class="cls-58" d="M802.99385,566.76966l-5.92423-3.3995v5.24546L675.19021,638.73077a23.61678,23.61678,0,0,0-11.78227,20.3879v72.38311c0,1.10639,1.55579,2.00335,3.47529,2.00335,1.91921,0,3.47529-.897,3.47529-2.00335V659.11867a16.643,16.643,0,0,1,8.30245-14.3661l118.40865-68.11774,5.92762-3.41A3.72235,3.72235,0,0,0,802.99385,566.76966Z"/>
    <polygon class="cls-59" points="499.374 604.54 617.484 672.558 617.484 663.462 499.374 595.444 499.374 604.54"/>
  </g>
  <path class="cls-5" d="M889.33418,708.169l-73.62-42.56077a7.825,7.825,0,0,0-7.83281,0l-56.50991,32.721a3.91253,3.91253,0,0,0,0,6.77445l73.62,42.56077a7.82507,7.82507,0,0,0,7.83282,0l56.5099-32.721A3.91252,3.91252,0,0,0,889.33418,708.169Z"/>
  <g>
    <path class="cls-60" d="M828.90787,661.742v76.9897a1.74094,1.74094,0,0,0,2.611,1.5079l48.82657-28.17014a5.22283,5.22283,0,0,0,2.61249-4.52373V634.058"/>
    <path class="cls-61" d="M759.58872,621.83043v76.98969a1.741,1.741,0,0,0,2.61106,1.50791l63.08066-36.39966a5.22282,5.22282,0,0,0,2.61249-4.52372V585.917"/>
    <g>
      <path class="cls-62" d="M885.19039,594.93977v41.964a3.498,3.498,0,0,1-1.74672,3.04229l-51.70209,29.8943a6.99676,6.99676,0,0,1-3.508.93165l-14.2541-75.83226Z"/>
      <path class="cls-63" d="M828.23356,594.93977V670.772a6.99713,6.99713,0,0,1-3.50838-.93165l-65.94143-38.12382a3.48237,3.48237,0,0,1-1.76148-3.04228v-41.964Z"/>
      <polygon class="cls-64" points="822.849 659.52 762.406 624.59 762.427 597.829 822.849 632.77 822.849 659.52"/>
      <path class="cls-65" d="M757.02227,578.9169v7.65774a3.47237,3.47237,0,0,0,1.75076,3.03443l65.95179,38.12776a7.01028,7.01028,0,0,0,7.017,0l51.69781-29.89825a3.47235,3.47235,0,0,0,1.75076-3.03443v-7.65773Z"/>
      <path class="cls-66" d="M883.43963,584.112l-65.95189-38.12771a7.01,7.01,0,0,0-7.017,0L758.773,575.88248a3.505,3.505,0,0,0,0,6.06884L824.72488,620.079a7.01,7.01,0,0,0,7.017,0l51.69779-29.89819A3.505,3.505,0,0,0,883.43963,584.112Z"/>
    </g>
  </g>
  <g>
    <g>
      <g>
        <path class="cls-67" d="M245.35791,115.93175a191.74873,191.74873,0,1,1-74.88721,15.113,191.17963,191.17963,0,0,1,74.88721-15.113m0-17.54224c-115.95068,0-209.94727,93.99659-209.94727,209.94727,0,115.95093,93.99659,209.94751,209.94727,209.94751s209.94727-93.99658,209.94727-209.94751c0-115.95068-93.99659-209.94727-209.94727-209.94727Z"/>
        <circle class="cls-68" cx="245.35783" cy="308.33688" r="194.19259"/>
        <path class="cls-69" d="M138.46094,297.82889l-62.05811,106.291a195.1182,195.1182,0,0,0,73.33936,73.26562c26.82348,14.687,57.11133,23.7461,88.24634,24.99073.42968.01611.85839.03613,1.28881.04931q.96607.0315,1.93384.05127c1.3794.02881,2.76026.05274,4.14673.05274V297.82889Z"/>
        <path class="cls-70" d="M352.5528,297.8291l58.43071,112.40669a194.05962,194.05962,0,0,1-165.32772,92.29368V297.8291Z"/>
        <rect class="cls-71" x="236.18501" y="314.47182" width="18.34563" height="191.19094"/>
      </g>
      <g>
        <circle class="cls-67" cx="425.70747" cy="193.23687" r="62.02326"/>
        <g>
          <rect class="cls-72" x="404.65068" y="184.59464" width="13.46241" height="40.4658" transform="translate(-24.34397 350.88352) rotate(-45)"/>
          <rect class="cls-72" x="430.86151" y="167.41377" width="13.46241" height="60.59444" transform="translate(607.21471 646.93854) rotate(-135)"/>
        </g>
      </g>
    </g>
    <path class="cls-73" d="M335.97515,314.47182H154.74051a16.27413,16.27413,0,0,1-15.95646-19.47393l35.57443-177.39916a16.27412,16.27412,0,0,1,15.95646-13.07433H300.40072a16.27411,16.27411,0,0,1,15.95645,13.07433L351.9316,294.99789A16.27412,16.27412,0,0,1,335.97515,314.47182Z"/>
  </g>
  <g class="cls-74">
    <g>
      <g>
        <g>
          <path class="cls-75" d="M1836.03458,310.97146v362.964L677.27222,910.02048,642.1578,1648.36842a67.52494,67.52494,0,0,0,33.97593-9.03329L1884.98257,940.63664c11.86455-6.87625,16.77673-19.12147,16.77673-30.93387l.00968-240.62028V272.89133Z"/>
          <path class="cls-76" d="M677.2725,910.02058l-35.11442,738.34784a67.07018,67.07018,0,0,1-33.47028-9.03325L-71.10711,1247.06572a33.7815,33.7815,0,0,1-12.50509-12.53883,33.83848,33.83848,0,0,1-4.3145-16.14521V975.47805Z"/>
          <g>
            <path class="cls-77" d="M1836.03512,605.30257V732.20665l-.03374-.03373a33.35659,33.35659,0,0,1-16.75191,30.63886l-1143.12488,659.953a67.1873,67.1873,0,0,1-33.976,9.03325l35.11442-624.94375Z"/>
            <path class="cls-78" d="M1836.03512,655.56V782.46409l-.03374-.03374a33.35659,33.35659,0,0,1-16.75191,30.63886l-1143.12488,659.953a67.1873,67.1873,0,0,1-33.976,9.03325l35.11442-624.94376Z"/>
            <path class="cls-79" d="M677.26306,857.11167l-35.11442,624.94376a67.13314,67.13314,0,0,1-33.43654-9.03325L-71.083,1080.75272a33.40868,33.40868,0,0,1-16.85312-29.22346V922.09741Z"/>
            <path class="cls-80" d="M1515.66642,610.92732,677.28512,785.33617,642.1707,1410.25948a67.16613,67.16613,0,0,0,33.9608-9.04368l737.13263-425.86123,405.96466-234.085a33.33882,33.33882,0,0,0,16.75845-30.609h.06382V583.73332Z"/>
            <path class="cls-80" d="M677.26306,785.31534l-35.11442,624.94375a67.133,67.133,0,0,1-33.43654-9.03325L-71.083,1008.95639a33.40869,33.40869,0,0,1-16.85312-29.22346V850.30108Z"/>
            <path class="cls-81" d="M1819.24212,554.81909,1139.6655,162.59993a67.413,67.413,0,0,0-67.416-.00193l-424.038,244.47393h0l-719.304,415.43234a33.23814,33.23814,0,0,0-15.7998,20.75311,34.27239,34.27239,0,0,0-1.05332,8.438A33.39007,33.39007,0,0,0-71.09183,880.8857L405.5138,1156.04139,608.70148,1273.1557a67.36469,67.36469,0,0,0,29.3485,8.89011q2.17853.141,4.362.14078a67.36724,67.36724,0,0,0,33.70905-9.036l1143.12323-659.954C1841.71038,600.22161,1841.70967,567.79239,1819.24212,554.81909Z"/>
          </g>
        </g>
        <path class="cls-82" d="M1797.44378,929.3934,735.5526,1543.11679a32.44619,32.44619,0,0,0-16.20337,28.08783v43.13978L1813.64034,981.89226l.03312-43.12794A10.8154,10.8154,0,0,0,1797.44378,929.3934Z"/>
      </g>
      <g>
        <path class="cls-83" d="M1298.76818,385.58105c-67.59471-47.44509-161.05756-105.02071-247.18015-20.58711l-92.79686,99.68031L756.00439,532.60846c-118.414,73.03042,109.02273,196.22163,214.61748,192.76933l162.703-66.65427L1370.76567,536.14C1383.90606,492.38223,1339.11261,413.899,1298.76818,385.58105Z"/>
        <path class="cls-84" d="M1271.04764,528.30574l-56.77443,40.91758c-64.57937-60.35558-129.46953-104.97306-218.98867-143.48038l-31.60807,32.69627L767.18041,526.76712c-129.59023,78.8724,97.84706,202.06231,203.44164,198.61013L1110.72021,644.313l109.98959-32.89844,21.57284,9.182Z"/>
        <path class="cls-85" d="M589.36437,408.25556l15.85108-9.32687a168.954,168.954,0,0,1,120.40362-19.843c219.57139,46.13279,496.40983,185.063,570.73921,368.16247,54.38684,133.97392,60.27188,223.02676,58.03458,267.92852a87.08361,87.08361,0,0,1-24.34652,55.9795c-162.13057,168.85529-476.37753,341.85324-651.51535,384.63093a85.05266,85.05266,0,0,1-43.87767-.87C335.041,1367.99082,14.69245,1172.45781-115.86646,1043.43792a86.6211,86.6211,0,0,1-23.87409-79.5122c9.02243-42.83248,24.91883-106.28523,45.72384-141.25656C-60.64339,766.57163,589.36437,408.25556,589.36437,408.25556Z"/>
        <path class="cls-86" d="M952.26677,638.54233l38.32371,15.827c7.29781,3.01356,17.70244,5.63511,25.66475,5.469l37.88581-2.33448c37.86978,36.10289,130.91906,121.53012,166.04415,124.03947,24.15724,1.72537,51.44535-33.83981,71.37881-66.782-13.71473-31.25177-33.70939-61.08566-58.46191-89.23061a38.29774,38.29774,0,0,0-4.15384,8.75358l-15.77234,39.94415-144.2979-73.0466-19.20776-15.757a48.836,48.836,0,0,0-21.18084-11.36494l-35.5506-10.19916a9.57663,9.57663,0,0,0-11.43344,6.37393c-1.41861,4.42853,4.11085,10.77768,8.22826,12.94167l-38.72882,4.17059a11.80094,11.80094,0,0,0-12.4178,12.51033l1.32026,21.38777A20.051,20.051,0,0,0,952.26677,638.54233Z"/>
        <path class="cls-86" d="M793.6753,449.20945c3.64964,30.96178,56.10443,80.1659,73.77918,90.3228l23.186,35.606a61.67075,61.67075,0,0,0,23.92336,20.38666l30.6237,14.71949a18.59764,18.59764,0,0,0,20.45078-2.89552L980.5895,593.9875A21.85527,21.85527,0,0,0,984.5,566.0145l-21.54734-34.08608a48.56538,48.56538,0,0,0-29.64882-21.25954l-23.9576-4.98227-5.18587-46.13228L950.3872,446.592a14.93533,14.93533,0,0,0,8.25812-7.735c-34.80741-14.00544-58.76267-31.93645-93.21962-41.91411C828.29983,412.289,791.64174,431.95875,793.6753,449.20945Z"/>
        <g>
          <path class="cls-87" d="M887.84883,531.54473l37.97626-33.24347,28.94043,6.01844A48.56874,48.56874,0,0,1,984.41428,525.579l21.54683,34.08669a21.85487,21.85487,0,0,1-3.91036,27.97314l-14.951,13.36148a18.59878,18.59878,0,0,1-20.4509,2.895l-30.6234-14.71987a61.6726,61.6726,0,0,1-23.92365-20.38625Z"/>
          <path class="cls-88" d="M1091.48745,321.88876c-26.6778,1.8211-168.67879,37.17333-240.18357,73.63822-28.22982,14.39621-39.29849,28.79061-36.16721,47.333,5.19133,30.74129,72.71216,88.68474,72.71216,88.68474l37.97626-33.24347-15.28294-34.65705,57.41884-4.43556c82.007-109.04474,163.04875-136.08952,207.63873-134.78993C1152.04578,318.33143,1128.69755,319.34947,1091.48745,321.88876Z"/>
          <path class="cls-89" d="M1091.48745,321.88876c-26.6778,1.8211-119.2006,10.94311-190.70538,47.408-28.22983,14.39621,4.0667,100.85417,24.4002,97.87192l42.77872-7.96c82.007-109.04474,163.04875-136.08952,207.63873-134.78993C1152.04578,318.33143,1128.69755,319.34947,1091.48745,321.88876Z"/>
          <path class="cls-84" d="M967.961,459.20865c24.06375-31.99736,48.03572-56.88783,71.03669-76.12032l-101.36,81.76275Z"/>
          <path class="cls-88" d="M888.916,533.18321l23.18583,35.60586a61.6708,61.6708,0,0,0,23.92335,20.38666l30.62371,14.71948a18.59763,18.59763,0,0,0,20.45077-2.89551l14.95119-13.36135a21.85529,21.85529,0,0,0,3.91048-27.973L984.414,525.57926a48.56547,48.56547,0,0,0-29.64882-21.25954l-23.95752-4.98254C898.88428,490.48443,883.4968,524.06588,888.916,533.18321Z"/>
          <path class="cls-90" d="M1005.96135,559.66535l-13.19377-20.87192-8.71861-2.50061a9.57661,9.57661,0,0,0-11.43343,6.37393h0c-1.41862,4.42852,4.11085,10.77768,8.22825,12.94167L942.115,559.779a11.8,11.8,0,0,0-12.41706,12.51033l.85539,13.86992a61.88055,61.88055,0,0,0,5.4719,3.01647l30.62371,14.71948a18.59763,18.59763,0,0,0,20.45077-2.89551l14.95119-13.36135A21.85529,21.85529,0,0,0,1005.96135,559.66535Z"/>
          <path class="cls-88" d="M961.58368,506.51037l38.32864,15.2383c11.02723,4.43958,3.77782,15.90584-4.44967,14.05968L985.08181,533.507Z"/>
        </g>
        <path class="cls-88" d="M1049.67019,561.55013a48.83664,48.83664,0,0,0-21.18092-11.36595l-35.55063-10.19862a9.57751,9.57751,0,0,0-11.43361,6.37326v0c-1.41839,4.42928,4.11127,10.77906,8.22871,12.94169l10.1477-1.09289L951.005,563.47154a11.80064,11.80064,0,0,0-12.41756,12.51018l1.31993,21.38783a20.05116,20.05116,0,0,0,12.35962,17.298l38.3236,15.82623c7.29761,3.01365,17.7025,5.63548,25.66453,5.46915l46.58745-2.87016,17.50941-46.37391Z"/>
      </g>
    </g>
  </g>
  <g>
    <g>
      <path class="cls-33" d="M814.251,555.92986l0,21.917c0,3.94707-5.56753,7.14678-12.43549,7.14677S789.38,581.79394,789.38,577.84687l0-21.917Z"/>
      <ellipse class="cls-33" cx="801.81551" cy="555.92985" rx="12.43549" ry="7.14683"/>
      <ellipse class="cls-30" cx="801.81551" cy="555.92985" rx="9.72323" ry="5.58806"/>
      <path class="cls-91" d="M801.81566,553.514c4.404,0,8.08128,1.694,9.27681,4.00169-1.19553,2.3077-4.87279,4.002-9.27681,4.002s-8.08256-1.6943-9.27809-4.002C793.7331,555.208,797.41163,553.514,801.81566,553.514Z"/>
    </g>
    <path class="cls-32" d="M817.41367,576.681v-5.22511a8.97433,8.97433,0,0,0-4.49333-7.77555l-1.73463-.99965a1.96165,1.96165,0,0,0-1.96189,3.39753l2.02338,1.16678a4.48129,4.48129,0,0,1,2.2427,3.88211v6.47719l-2.30419-1.32836a1.96165,1.96165,0,0,0-1.96189,3.39754l1.50465.86825A4.45739,4.45739,0,0,0,817.41367,576.681Z"/>
  </g>
  <g>
    <g>
      <g>
        <path class="cls-92" d="M577.891,665.57363s7.30514,5.98208,5.72117,13.35365c-1.89923,8.83871-10.23131,12.26893-14.93815,14.646s-14.98911,16.48719-25.855,16.25223c-10.15922-.21968-11.06459-8.59767-5.82008-13.78827l8.24979-8.6278,8.89934-11.35086C561.55626,670.972,573.16094,661.5851,577.891,665.57363Z"/>
        <path class="cls-90" d="M573.45973,660.14345s8.52371,8.74289,7.07427,16.14209c-1.25963,6.43022-10.01739,9.21706-14.98276,12.95966-4.21085,3.17387-11.86634,13.9488-22.73223,13.71383-10.15922-.21968-11.06459-8.59767-5.82008-13.78827l8.24979-8.62779,8.89934-11.35087C561.55626,664.10553,568.72967,656.15492,573.45973,660.14345Z"/>
        <path class="cls-92" d="M552.13193,674.55374c6.299.37628,11.84349,4.89446,16.659,13.41573l-14.72273,13.33507c-2.18613-7.26289-10.15111-10.8848-13.78307-9.84461A39.62834,39.62834,0,0,1,552.13193,674.55374Z"/>
        <path class="cls-93" d="M579.83337,524.77222s-42.85577,13.17208-65.99009,23.23551c-24.98442,10.86822,18.36662,57.018,30.85576,52.09251l70.30089-21.40414Z"/>
        <path class="cls-90" d="M507.09743,556.3933c-13.45456,7.58715-16.81762,26.67544-5.9962,42.29116l46.471,62.96073,25.88749-1.50174c-10.91057-27.83654-22.86214-52.20479-33.38281-64.41548l2.49844-1.624C547.57227,592.56316,531.20167,542.80054,507.09743,556.3933Z"/>
        <path class="cls-92" d="M523.65544,699.62939,511.872,716.1465s-12.63321,5.67463-19.58063,14.10229c-2.65967,3.22634,2.80956,15.88491,18.09759,13.187,12.36629-2.18229,15.68241-8.10658,20.66681-12.02049,4.98477-3.91379,10.80789-4.63949,15.27164-10.93091,3.16348-4.45876-1.61679-13.28581-1.61679-13.28581Z"/>
        <path class="cls-94" d="M523.65544,693.02163l-10.99948,16.567L499.581,721.75036l-5.2856,5.08308c-4.80557,5.38225,1.34285,13.84565,16.63088,11.14776,12.36628-2.18228,14.147-7.50672,19.13137-11.42063,4.98477-3.91379,10.97166-5.75494,13.54576-9.48548,3.10487-4.49977-.31549-20.22553-.31549-20.22553Z"/>
        <path class="cls-92" d="M497.637,723.61988s3.596-1.145,9.54373,2.61c9.036,5.70478,10.28525,11.74268,10.28525,11.74268l15.93-11.88868s-.95153-5.05548-6.80826-10.7433c-5.74581-5.58011-12.45818-6.98872-15.24049-5.51224Z"/>
        <path class="cls-92" d="M592.52927,505.03755l-13.53675,20.67786L594.968,555.93,567.273,583.806c-8.965,9.4671-14.77149,11.38419-18.78462,23.7896-3.95587,14.19947,16.69792,45.09687,40.7246,28.23239,0,0,44.44316-31.33285,57.76647-41.80039,13.529-10.62917,23.92587-40.89073,23.92587-64.02249Z"/>
        <path class="cls-94" d="M597.49829,420.505c-10.2117,15.152-27.61813,41.67154-27.61813,41.67154l-4.108,1.36129c-4.29584,1.44036-12.36311,10.90952-8.55078,19.39161,0,0,4.36292,10.765,17.369,8.76621s39.67127-45.09652,39.67127-45.09652l11.3196-42.6878S608.74469,403.81771,597.49829,420.505Z"/>
        <path class="cls-95" d="M597.49829,420.505c-10.2117,15.152-21.19392,30.56329-21.19392,30.56329-9.30674,13.429,13.87073,31.42681,22.80483,22.28366l15.15242-26.75282,11.3196-42.6878S608.74469,403.81771,597.49829,420.505Z"/>
        <path class="cls-84" d="M595.7312,437.35009l-.05256.7516L587.209,474.63152c4.39681,1.78844,8.93339,1.75667,11.90023-1.27958l1.21089-2.138Z"/>
        <path class="cls-96" d="M582.80027,514.15384c-5.00623,14.23943,1.2597,36.77576,27.56615,46.38774,25.98379,9.49408,56.44338-.72407,59.75838-12.7837l6.86673-40.01671,12.287-52.87842c-1.01692-6.94025-4.875-27.07172-37.34011-45.44423-14.91864-8.44269-27.45359-5.39452-27.45359-5.39452-10.60238,2.01606-28.94254,8.36-28.94254,38.42456L594.543,483.423Z"/>
        <path class="cls-84" d="M657.33713,467.59958l-16.95045,39.55866-35.6834-11.6035.838,3.00891a30.21541,30.21541,0,0,0,7.45768,12.97078l45.8126,47.05775c6.02614-2.95621,10.20137-6.78945,11.31324-10.83436l6.86674-40.01665,9.32746-40.14159Z"/>
        <path class="cls-94" d="M686.96776,452.16985c-5.15677-14.07988-25.42306-4.81129-28.56552,19.07144l-10.02209,36.74884L613.656,490.5297l-5.27512,9.71615s30.398,37.29118,44.20917,37.31006c9.605.01313,15.39406-8.08679,17.81572-12.41317S693.56274,470.17591,686.96776,452.16985Z"/>
        <path class="cls-97" d="M687.93934,449.13189c-5.15678-14.07989-26.52143-.85363-30.60222,18.46765L650.79251,494.792c-3.65736,14.44826,26.23377,22.59117,30.36313,12.78268C681.15564,507.57466,694.53432,467.138,687.93934,449.13189Z"/>
        <path class="cls-94" d="M555.74559,601.69874c-5.4667,6.52144-8.23637,14.86559-9.4309,20.55215l-22.92485,70.77074c-5.62591,15.3303,19.352,4.68443,19.352,4.68443,11.16584-14.794,29.14854-36.64384,34.97824-58.71341l7.24548-7.412C594.70951,619.33824,564.28976,593.33889,555.74559,601.69874Z"/>
        <path class="cls-98" d="M627.64788,408.16654c-8.16577,6.29376-8.18173,20.75789,1.646,25.56458,13.88426,6.79074,32.71437-4.17121,29.38186-16.55709C655.16239,404.11618,635.43332,402.16592,627.64788,408.16654Z"/>
        <path class="cls-94" d="M629.45524,408.28835c-6.83005,5.26425-6.8434,17.3624,1.37672,21.38283,11.61314,5.67994,27.36309-3.4889,24.5757-13.84875C652.469,404.90053,635.96717,403.26929,629.45524,408.28835Z"/>
        <path class="cls-90" d="M629.57067,417.14216c.11765,3.29914,1.26645,6.40535,5.01309,7.4283,7.60241,2.07568,16.06283-4.009,15.4734-10.14623l-1.7399-16.293-19.16981,3.8009Z"/>
      </g>
      <g>
        <polygon class="cls-94" points="613.403 482.691 607.613 480.193 608.667 482.553 613.403 482.691"/>
        <path class="cls-92" d="M608.15819,495.24411l-35.58282-16.19525a10.7769,10.7769,0,0,1-5.30722-5.26363l-5.92388-12.73579a2.73876,2.73876,0,0,1,3.61782-3.64778l37.36836,17.00793a9.77267,9.77267,0,0,1,4.81266,4.77312l5.4097,11.63038A3.32682,3.32682,0,0,1,608.15819,495.24411Z"/>
        <path class="cls-94" d="M572.16361,474.15344c0,6.00231-4.07525,7.72855-8.00148,7.19749-4.21161-.56966-6.64318-4.72421-7.63984-10.61182-1.02848-6.07551.59334-11.83094,5.29234-9.44061C570.59948,465.76726,572.16361,468.15114,572.16361,474.15344Z"/>
        <path class="cls-94" d="M621.26985,493.64908c3.23853,6.38944-3.76588,14.86251-8.03383,11.64916,0,0-8.586-2.86216-11.02124-4.84548s-5.09421-9.16574-4.93321-13.02971a6.43283,6.43283,0,0,1,4.14239-5.85685c2.35661-.99348,8.71414.09976,10.99617.73535C617.368,483.67961,621.26985,493.64908,621.26985,493.64908Z"/>
      </g>
    </g>
    <g>
      <path class="cls-99" d="M611.73511,376.96789s-4.01915,6.39358,1.76837,13.163a31.93176,31.93176,0,0,0,6.37064,5.65466l-.27637-13.24742Z"/>
      <path class="cls-94" d="M634.04334,417.195c10.67471-2.9942,16.12851-9.07187,16.26065-19.25349l.24975-22.01281c.34884-8.87727-7.96829-16.88-18.28827-16.38669-9.01952.43112-17.97269,8.32937-17.49994,18.32127a202.19331,202.19331,0,0,0,2.6328,22.013C619.28357,409.56786,624.34235,419.91609,634.04334,417.195Z"/>
      <path class="cls-100" d="M613.94764,383.0105a7.997,7.997,0,0,1-5.82118-5.85865c-1.28511-4.51274.53411-6.86045,1.8-9.0923,1.43193-2.52468-.20967-6.5541,3.51093-9.534,3.87849-3.10636,7.59268-.97448,12.32172-1.81041,3.49538-.61786,5.75-2.73652,9.507-2.5022,5.41211.33754,5.0004,2.55371,9.65914,4.47679,4.93433,2.03685,8.89846,2.14413,11.79342,6.52028,2.38693,3.60819,1.93388,6.85323,2.65631,11.19282.56992,3.42351,2.481,6.20119,1.88145,9.93611-1.03384,6.43985-4.55759,5.80566-5.18847,9.153-1.53322,8.135-5.3565,7.38885-6.64024,13.21l-2.00928-9.1201-3.78017-2.33845c-1.19409.67631-2.75135.91267-3.59179-.40685-.7216-1.13292-1.03447-4.58279-1.19683-5.7675-.36236-2.64418-1.55693-4.066-5.02412-3.7526-8.08991.73119-8.92782-2.82069-12.10262-4.44948C618.81344,381.37441,616.55328,383.54958,613.94764,383.0105Z"/>
      <path class="cls-94" d="M646.39425,403.8181c3.67643-.05968,6.6879-5.24328,6.62017-9.41512s-3.73683-7.62417-6.86544-5.69244C642.22157,391.13547,642.71781,403.87779,646.39425,403.8181Z"/>
    </g>
  </g>
</svg>
