<svg id="Layer_1" data-name="Layer 1" xmlns="http://www.w3.org/2000/svg" xmlns:xlink="http://www.w3.org/1999/xlink" viewBox="0 0 1000 1000">
  <defs>
    <style>
      .cls-1, .cls-18, .cls-19 {
        fill: none;
      }

      .cls-2 {
        fill: url(#linear-gradient);
      }

      .cls-3 {
        fill: #b8cbd8;
      }

      .cls-4 {
        fill: url(#linear-gradient-2);
      }

      .cls-5 {
        fill: #9bb0c4;
      }

      .cls-6 {
        fill: url(#linear-gradient-3);
      }

      .cls-7 {
        fill: url(#linear-gradient-4);
      }

      .cls-8 {
        fill: url(#linear-gradient-5);
      }

      .cls-9 {
        fill: url(#linear-gradient-6);
      }

      .cls-10 {
        fill: url(#linear-gradient-7);
      }

      .cls-11 {
        fill: #e58630;
      }

      .cls-12 {
        fill: url(#linear-gradient-8);
      }

      .cls-13, .cls-46, .cls-48 {
        opacity: 0.5;
      }

      .cls-14 {
        fill: url(#linear-gradient-9);
      }

      .cls-15 {
        fill: #748ca3;
      }

      .cls-16 {
        fill: #586c7f;
      }

      .cls-17 {
        fill: url(#linear-gradient-10);
      }

      .cls-18, .cls-19 {
        stroke-miterlimit: 10;
        stroke-width: 5px;
      }

      .cls-18 {
        stroke: url(#linear-gradient-11);
      }

      .cls-19 {
        stroke: url(#linear-gradient-12);
      }

      .cls-20 {
        fill: url(#linear-gradient-13);
      }

      .cls-21 {
        fill: url(#linear-gradient-14);
      }

      .cls-22 {
        fill: url(#linear-gradient-15);
      }

      .cls-23 {
        fill: url(#linear-gradient-16);
      }

      .cls-24 {
        fill: url(#linear-gradient-17);
      }

      .cls-25 {
        fill: url(#linear-gradient-18);
      }

      .cls-26 {
        fill: url(#linear-gradient-19);
      }

      .cls-27 {
        fill: url(#linear-gradient-20);
      }

      .cls-28 {
        fill: url(#linear-gradient-21);
      }

      .cls-29 {
        fill: url(#linear-gradient-22);
      }

      .cls-30 {
        fill: url(#linear-gradient-23);
      }

      .cls-31 {
        fill: url(#linear-gradient-24);
      }

      .cls-32 {
        fill: #ffcb48;
      }

      .cls-33 {
        fill: #34a521;
      }

      .cls-34 {
        fill: #e2e2e2;
      }

      .cls-35 {
        clip-path: url(#clip-path);
      }

      .cls-36 {
        fill: url(#linear-gradient-25);
      }

      .cls-37 {
        fill: url(#linear-gradient-26);
      }

      .cls-38 {
        fill: url(#linear-gradient-27);
      }

      .cls-39 {
        fill: #541510;
        opacity: 0.3;
      }

      .cls-40 {
        fill: url(#linear-gradient-28);
      }

      .cls-41, .cls-46 {
        fill: #bcd0e2;
      }

      .cls-42 {
        fill: #e9f1f4;
      }

      .cls-43 {
        fill: url(#linear-gradient-29);
      }

      .cls-44 {
        fill: url(#linear-gradient-30);
      }

      .cls-45 {
        fill: #f0f9fc;
      }

      .cls-47 {
        fill: url(#linear-gradient-31);
      }

      .cls-48, .cls-50, .cls-54 {
        fill: #dd7b19;
      }

      .cls-49 {
        fill: url(#linear-gradient-32);
      }

      .cls-50 {
        opacity: 0.6;
      }

      .cls-51 {
        fill: #f49d82;
      }

      .cls-52 {
        fill: url(#linear-gradient-33);
      }

      .cls-53 {
        fill: url(#linear-gradient-34);
      }

      .cls-55 {
        fill: #ef8e73;
      }

      .cls-56 {
        fill: #e2786d;
      }

      .cls-57 {
        fill: url(#linear-gradient-35);
      }

      .cls-58 {
        fill: url(#linear-gradient-36);
      }

      .cls-59 {
        fill: url(#linear-gradient-37);
      }

      .cls-60 {
        fill: url(#linear-gradient-38);
      }

      .cls-61 {
        fill: url(#linear-gradient-39);
      }

      .cls-62 {
        fill: url(#linear-gradient-40);
      }

      .cls-63 {
        fill: url(#linear-gradient-41);
      }

      .cls-64 {
        fill: #fff;
      }

      .cls-65 {
        fill: url(#linear-gradient-42);
      }

      .cls-66 {
        fill: url(#linear-gradient-43);
      }

      .cls-67 {
        opacity: 0.4;
        fill: url(#linear-gradient-44);
      }

      .cls-68 {
        fill: url(#linear-gradient-45);
      }

      .cls-69 {
        fill: url(#linear-gradient-46);
      }

      .cls-70 {
        fill: url(#linear-gradient-47);
      }

      .cls-71 {
        fill: url(#linear-gradient-48);
      }

      .cls-72 {
        fill: url(#linear-gradient-49);
      }

      .cls-73 {
        fill: url(#linear-gradient-50);
      }

      .cls-74 {
        fill: url(#linear-gradient-51);
      }

      .cls-75 {
        fill: url(#linear-gradient-52);
      }

      .cls-76 {
        fill: url(#linear-gradient-53);
      }

      .cls-77 {
        fill: url(#linear-gradient-54);
      }

      .cls-78 {
        fill: url(#linear-gradient-55);
      }

      .cls-79 {
        fill: url(#linear-gradient-56);
      }

      .cls-80 {
        fill: url(#linear-gradient-57);
      }

      .cls-81 {
        fill: url(#linear-gradient-58);
      }

      .cls-82 {
        fill: url(#linear-gradient-59);
      }

      .cls-83 {
        fill: url(#linear-gradient-60);
      }

      .cls-84 {
        fill: url(#linear-gradient-61);
      }

      .cls-85 {
        fill: url(#linear-gradient-62);
      }

      .cls-86 {
        fill: #ffbea4;
      }

      .cls-87 {
        fill: url(#linear-gradient-63);
      }

      .cls-88 {
        fill: url(#linear-gradient-64);
      }

      .cls-89 {
        fill: url(#linear-gradient-65);
      }

      .cls-90 {
        fill: url(#linear-gradient-66);
      }

      .cls-91 {
        fill: url(#linear-gradient-67);
      }

      .cls-92 {
        fill: url(#linear-gradient-68);
      }
    </style>
    <linearGradient id="linear-gradient" x1="521.50943" y1="396.22833" x2="928.15567" y2="396.22833" gradientUnits="userSpaceOnUse">
      <stop offset="0" stop-color="#e4edf2"/>
      <stop offset="1" stop-color="#c3d6e6"/>
    </linearGradient>
    <linearGradient id="linear-gradient-2" x1="114.87886" y1="711.22041" x2="928.15567" y2="711.22041" gradientUnits="userSpaceOnUse">
      <stop offset="0" stop-color="#dae9f2"/>
      <stop offset="0.99337" stop-color="#c4d5e6"/>
    </linearGradient>
    <linearGradient id="linear-gradient-3" x1="-916.23489" y1="188.87542" x2="-922.36255" y2="512.10947" gradientTransform="translate(1237.78726)" gradientUnits="userSpaceOnUse">
      <stop offset="0" stop-color="#293440"/>
      <stop offset="1" stop-color="#3e4c59"/>
    </linearGradient>
    <linearGradient id="linear-gradient-4" x1="-1089.94225" y1="396.19506" x2="-746.59953" y2="396.19506" gradientTransform="translate(1237.78726)" gradientUnits="userSpaceOnUse">
      <stop offset="0" stop-color="#5b6f82"/>
      <stop offset="1" stop-color="#849bb2"/>
    </linearGradient>
    <linearGradient id="linear-gradient-5" x1="-728.22582" y1="293.17671" x2="-1102.12283" y2="495.85551" gradientTransform="translate(1237.78726)" gradientUnits="userSpaceOnUse">
      <stop offset="0" stop-color="#62778c"/>
      <stop offset="1" stop-color="#435466"/>
    </linearGradient>
    <linearGradient id="linear-gradient-6" x1="-795.26524" y1="325.43067" x2="-933.74356" y2="400.49578" xlink:href="#linear-gradient-5"/>
    <linearGradient id="linear-gradient-7" x1="-906.73405" y1="389.7831" x2="-1045.21236" y2="464.84821" xlink:href="#linear-gradient-5"/>
    <linearGradient id="linear-gradient-8" x1="-1087.85405" y1="333.09678" x2="-912.4498" y2="569.01168" gradientTransform="translate(1237.78726)" gradientUnits="userSpaceOnUse">
      <stop offset="0.00005" stop-color="#ffcb48"/>
      <stop offset="1" stop-color="#e68e2b"/>
    </linearGradient>
    <linearGradient id="linear-gradient-9" x1="-910.12518" y1="230.45356" x2="-734.72093" y2="466.36846" xlink:href="#linear-gradient-8"/>
    <linearGradient id="linear-gradient-10" x1="-1298.99246" y1="240.09776" x2="-735.17368" y2="240.09776" xlink:href="#linear-gradient-4"/>
    <linearGradient id="linear-gradient-11" x1="8918.07187" y1="475.31353" x2="8984.87272" y2="505.83343" gradientTransform="translate(-8377.35491)" gradientUnits="userSpaceOnUse">
      <stop offset="0" stop-color="#3e4c59"/>
      <stop offset="1" stop-color="#293440"/>
    </linearGradient>
    <linearGradient id="linear-gradient-12" x1="8851.53879" y1="429.30395" x2="8927.0216" y2="463.79045" xlink:href="#linear-gradient-11"/>
    <linearGradient id="linear-gradient-13" x1="725.22175" y1="370.61972" x2="847.81411" y2="456.95236" gradientTransform="translate(-242.3977)" xlink:href="#linear-gradient-5"/>
    <linearGradient id="linear-gradient-14" x1="724.87096" y1="384.01489" x2="857.46014" y2="527.90676" gradientTransform="translate(-242.3977)" gradientUnits="userSpaceOnUse">
      <stop offset="0" stop-color="#62788c"/>
      <stop offset="1" stop-color="#526575"/>
    </linearGradient>
    <linearGradient id="linear-gradient-15" x1="711.79115" y1="365.93489" x2="791.94729" y2="490.97847" gradientTransform="translate(-242.3977)" gradientUnits="userSpaceOnUse">
      <stop offset="0" stop-color="#96b1cc"/>
      <stop offset="1" stop-color="#748ea6"/>
    </linearGradient>
    <linearGradient id="linear-gradient-16" x1="718.46368" y1="407.00607" x2="846.63183" y2="407.00607" gradientTransform="translate(-242.3977)" gradientUnits="userSpaceOnUse">
      <stop offset="0" stop-color="#526575"/>
      <stop offset="1" stop-color="#62788c"/>
    </linearGradient>
    <linearGradient id="linear-gradient-17" x1="718.46363" y1="386.24029" x2="846.6318" y2="386.24029" xlink:href="#linear-gradient-15"/>
    <linearGradient id="linear-gradient-18" x1="514.91155" y1="385.4919" x2="565.38856" y2="385.4919" gradientTransform="matrix(1, 0, 0, 1, 0, 0)" xlink:href="#linear-gradient-5"/>
    <linearGradient id="linear-gradient-19" x1="514.91153" y1="381.64595" x2="565.38857" y2="381.64595" gradientUnits="userSpaceOnUse">
      <stop offset="0" stop-color="#849bb2"/>
      <stop offset="1" stop-color="#5b6f82"/>
    </linearGradient>
    <linearGradient id="linear-gradient-20" x1="539.80912" y1="341.03581" x2="540.48118" y2="378.22327" gradientTransform="matrix(1, 0, 0, 1, 0, 0)" xlink:href="#linear-gradient-5"/>
    <linearGradient id="linear-gradient-21" x1="506.20709" y1="333.66652" x2="574.09305" y2="333.66652" gradientTransform="matrix(1, 0, 0, 1, 0, 0)" xlink:href="#linear-gradient-5"/>
    <linearGradient id="linear-gradient-22" x1="505.75169" y1="328.69073" x2="574.54846" y2="328.69073" gradientUnits="userSpaceOnUse">
      <stop offset="0.00844" stop-color="#ffc63f"/>
      <stop offset="1" stop-color="#e68a23"/>
    </linearGradient>
    <linearGradient id="linear-gradient-23" x1="532.73233" y1="315.91105" x2="547.56768" y2="315.91105" gradientTransform="matrix(1, 0, 0, 1, 0, 0)" xlink:href="#linear-gradient-11"/>
    <linearGradient id="linear-gradient-24" x1="532.73234" y1="310.18743" x2="547.56776" y2="310.18743" gradientTransform="matrix(1, 0, 0, 1, 0, 0)" xlink:href="#linear-gradient-5"/>
    <clipPath id="clip-path">
      <path class="cls-1" d="M435.98541,305.84375A194.17509,194.17509,0,1,1,364.93924,155.6819,193.78539,193.78539,0,0,1,435.98541,305.84375Z"/>
    </clipPath>
    <linearGradient id="linear-gradient-25" x1="207.51485" y1="-163.96395" x2="833.24715" y2="655.49352" gradientTransform="matrix(1, 0, 0, 1, 0, 0)" xlink:href="#linear-gradient-5"/>
    <linearGradient id="linear-gradient-26" x1="144.42225" y1="-116.41211" x2="764.55213" y2="695.70845" gradientTransform="matrix(1, 0, 0, 1, 0, 0)" xlink:href="#linear-gradient-14"/>
    <linearGradient id="linear-gradient-27" x1="-655.44863" y1="716.99071" x2="1011.87113" y2="1164.6643" gradientTransform="matrix(1, 0, 0, 1, 0, 0)" xlink:href="#linear-gradient-5"/>
    <linearGradient id="linear-gradient-28" x1="-1133.63894" y1="995.62719" x2="1069.31999" y2="1114.80366" gradientTransform="matrix(1, 0, 0, 1, 0, 0)" xlink:href="#linear-gradient-11"/>
    <linearGradient id="linear-gradient-29" x1="182.37658" y1="-300.89746" x2="1032.6444" y2="812.61118" gradientUnits="userSpaceOnUse">
      <stop offset="0" stop-color="#596c80"/>
      <stop offset="0.99886" stop-color="#3a4959"/>
    </linearGradient>
    <linearGradient id="linear-gradient-30" x1="188.51477" y1="1184.47703" x2="292.19626" y2="1346.22015" gradientTransform="matrix(1, 0, 0, 1, 0, 0)" xlink:href="#linear-gradient-11"/>
    <linearGradient id="linear-gradient-31" x1="4.0691" y1="316.38194" x2="42.02497" y2="686.18055" gradientTransform="matrix(1, 0, 0, 1, 0, 0)" xlink:href="#linear-gradient-8"/>
    <linearGradient id="linear-gradient-32" x1="-993.11741" y1="551.32148" x2="131.85591" y2="1178.85762" gradientTransform="matrix(1, 0, 0, 1, 0, 0)" xlink:href="#linear-gradient-8"/>
    <linearGradient id="linear-gradient-33" x1="7.98475" y1="315.98004" x2="45.94062" y2="685.77865" gradientTransform="matrix(1, 0, 0, 1, 0, 0)" xlink:href="#linear-gradient-8"/>
    <linearGradient id="linear-gradient-34" x1="235.54648" y1="292.62327" x2="273.50234" y2="662.42188" gradientTransform="matrix(1, 0, 0, 1, 0, 0)" xlink:href="#linear-gradient-8"/>
    <linearGradient id="linear-gradient-35" x1="200.70189" y1="201.07678" x2="257.55296" y2="377.41721" gradientUnits="userSpaceOnUse">
      <stop offset="0" stop-color="#75413e"/>
      <stop offset="0.98888" stop-color="#5b3c39"/>
    </linearGradient>
    <linearGradient id="linear-gradient-36" x1="269.64706" y1="178.84929" x2="326.49812" y2="355.18971" xlink:href="#linear-gradient-35"/>
    <linearGradient id="linear-gradient-37" x1="-7688.3171" y1="266.01136" x2="-7605.28295" y2="400.34217" gradientTransform="matrix(0.99049, -0.01259, 0.10291, 1.00507, 7800.57886, -129.74637)" xlink:href="#linear-gradient-5"/>
    <linearGradient id="linear-gradient-38" x1="-7621.52024" y1="233.96344" x2="-7516.9789" y2="403.0881" gradientTransform="matrix(0.99049, -0.01259, 0.10291, 1.00507, 7729.16995, -128.83863)" xlink:href="#linear-gradient-5"/>
    <linearGradient id="linear-gradient-39" x1="884.47743" y1="403.4152" x2="909.26055" y2="466.26879" xlink:href="#linear-gradient-22"/>
    <linearGradient id="linear-gradient-40" x1="891.68474" y1="407.3511" x2="900.14185" y2="420.57726" gradientTransform="matrix(1, 0, 0, 1, 0, 0)" xlink:href="#linear-gradient-5"/>
    <linearGradient id="linear-gradient-41" x1="875.31142" y1="416.90389" x2="905.09595" y2="463.4842" gradientTransform="matrix(1, 0, 0, 1, 0, 0)" xlink:href="#linear-gradient-5"/>
    <linearGradient id="linear-gradient-42" x1="692.07474" y1="321.16965" x2="769.39381" y2="321.16965" gradientTransform="translate(-18.64021 -32.28579)" gradientUnits="userSpaceOnUse">
      <stop offset="0" stop-color="#435466"/>
      <stop offset="1" stop-color="#62778c"/>
    </linearGradient>
    <linearGradient id="linear-gradient-43" x1="702.49493" y1="317.1864" x2="766.0789" y2="317.1864" gradientTransform="translate(-18.64021 -32.28579)" gradientUnits="userSpaceOnUse">
      <stop offset="0" stop-color="#fff"/>
      <stop offset="0.98888" stop-color="#e6edf2"/>
    </linearGradient>
    <linearGradient id="linear-gradient-44" x1="711.60723" y1="319.11183" x2="754.71269" y2="319.11183" gradientTransform="translate(-18.64021 -32.28579)" xlink:href="#linear-gradient-5"/>
    <linearGradient id="linear-gradient-45" x1="692.07473" y1="321.16965" x2="769.39382" y2="321.16965" gradientTransform="translate(-18.64021 -32.28579)" xlink:href="#linear-gradient-19"/>
    <linearGradient id="linear-gradient-46" x1="709.04016" y1="242.52306" x2="788.54003" y2="347.60115" gradientTransform="translate(-18.64021 -32.28579)" xlink:href="#linear-gradient-5"/>
    <linearGradient id="linear-gradient-47" x1="677.5777" y1="217.56786" x2="795.46185" y2="373.37996" gradientTransform="translate(-18.64021 -32.28579)" xlink:href="#linear-gradient-5"/>
    <linearGradient id="linear-gradient-48" x1="792.11828" y1="358.86149" x2="766.43811" y2="298.64073" gradientTransform="translate(3.46411 6.00002)" xlink:href="#linear-gradient-42"/>
    <linearGradient id="linear-gradient-49" x1="725.58483" y1="263.80234" x2="764.92008" y2="263.80234" gradientTransform="translate(47.76727 82.73534)" xlink:href="#linear-gradient-43"/>
    <linearGradient id="linear-gradient-50" x1="715.16462" y1="267.78559" x2="768.235" y2="267.78559" gradientTransform="translate(47.76727 82.73534)" xlink:href="#linear-gradient-19"/>
    <linearGradient id="linear-gradient-51" x1="727.50088" y1="215.04567" x2="782.29632" y2="287.47095" gradientTransform="translate(47.76727 82.73534)" xlink:href="#linear-gradient-5"/>
    <linearGradient id="linear-gradient-52" x1="709.34241" y1="200.70012" x2="786.04322" y2="302.07858" gradientTransform="translate(47.76727 82.73534)" xlink:href="#linear-gradient-5"/>
    <linearGradient id="linear-gradient-53" x1="645.30886" y1="322.89488" x2="841.73524" y2="580.13437" gradientTransform="matrix(1, 0, 0, 1, 0, 0)" xlink:href="#linear-gradient-5"/>
    <linearGradient id="linear-gradient-54" x1="625.50319" y1="337.82209" x2="820.17088" y2="592.75842" gradientTransform="matrix(1, 0, 0, 1, 0, 0)" xlink:href="#linear-gradient-14"/>
    <linearGradient id="linear-gradient-55" x1="374.41221" y1="599.43923" x2="897.80788" y2="739.97041" gradientTransform="matrix(1, 0, 0, 1, 0, 0)" xlink:href="#linear-gradient-5"/>
    <linearGradient id="linear-gradient-56" x1="231.91174" y1="634.50385" x2="659.54509" y2="906.7549" gradientTransform="matrix(1, 0, 0, 1, 0, 0)" xlink:href="#linear-gradient-14"/>
    <linearGradient id="linear-gradient-57" x1="224.30138" y1="686.90723" x2="915.8419" y2="724.31844" gradientTransform="matrix(1, 0, 0, 1, 0, 0)" xlink:href="#linear-gradient-11"/>
    <linearGradient id="linear-gradient-58" x1="247.51223" y1="729.65096" x2="838.79659" y2="761.63847" gradientTransform="matrix(1, 0, 0, 1, 0, 0)" xlink:href="#linear-gradient-11"/>
    <linearGradient id="linear-gradient-59" x1="637.4176" y1="279.90948" x2="904.32891" y2="629.45587" xlink:href="#linear-gradient-29"/>
    <linearGradient id="linear-gradient-60" x1="639.34446" y1="746.18991" x2="671.89158" y2="796.96341" gradientTransform="matrix(1, 0, 0, 1, 0, 0)" xlink:href="#linear-gradient-11"/>
    <linearGradient id="linear-gradient-61" x1="581.44431" y1="473.68237" x2="593.35921" y2="589.76747" gradientTransform="matrix(1, 0, 0, 1, 0, 0)" xlink:href="#linear-gradient-8"/>
    <linearGradient id="linear-gradient-62" x1="268.41311" y1="547.43327" x2="621.55843" y2="744.4259" gradientTransform="matrix(1, 0, 0, 1, 0, 0)" xlink:href="#linear-gradient-8"/>
    <linearGradient id="linear-gradient-63" x1="582.67349" y1="473.55621" x2="594.58839" y2="589.64131" gradientTransform="matrix(1, 0, 0, 1, 0, 0)" xlink:href="#linear-gradient-8"/>
    <linearGradient id="linear-gradient-64" x1="654.10839" y1="466.22418" x2="666.02329" y2="582.30928" gradientTransform="matrix(1, 0, 0, 1, 0, 0)" xlink:href="#linear-gradient-8"/>
    <linearGradient id="linear-gradient-65" x1="640.46353" y1="428.53538" x2="661.14439" y2="494.1524" xlink:href="#linear-gradient-35"/>
    <linearGradient id="linear-gradient-66" x1="662.35303" y1="421.63635" x2="683.03388" y2="487.25337" xlink:href="#linear-gradient-35"/>
    <linearGradient id="linear-gradient-67" x1="-7272.55097" y1="483.67793" x2="-7246.48535" y2="525.8463" gradientTransform="matrix(0.99049, -0.01259, 0.10291, 1.00507, 7800.57886, -129.74637)" xlink:href="#linear-gradient-5"/>
    <linearGradient id="linear-gradient-68" x1="-7202.11956" y1="473.61762" x2="-7169.30253" y2="526.70829" gradientTransform="matrix(0.99049, -0.01259, 0.10291, 1.00507, 7729.16995, -128.83863)" xlink:href="#linear-gradient-5"/>
  </defs>
  <g>
    <g>
      <polygon class="cls-2" points="521.509 81.236 928.156 316.004 928.156 711.22 521.509 476.43 521.509 81.236"/>
      <polygon class="cls-3" points="521.525 81.236 114.879 316.004 114.879 711.22 521.525 476.43 521.525 81.236"/>
    </g>
    <path class="cls-4" d="M121.896,723.3864l378.58059,218.564a42.10143,42.10143,0,0,0,42.1011-.00062l378.5612-218.56743a14.03381,14.03381,0,0,0,.00016-24.307L542.5613,480.49136a42.10144,42.10144,0,0,0-42.10408.00053l-378.562,218.58744A14.03381,14.03381,0,0,0,121.896,723.3864Z"/>
    <path class="cls-5" d="M226.3809,766.56781,459.93617,901.383a25.8435,25.8435,0,0,0,25.846-.002l376.022-217.16324a12.92175,12.92175,0,0,0-.00084-22.37988L628.33138,527.04226a25.84349,25.84349,0,0,0-25.8448-.00074l-376.10591,217.145A12.92174,12.92174,0,0,0,226.3809,766.56781Z"/>
  </g>
  <g>
    <g>
      <path class="cls-6" d="M495.0292,461.80623,151.68013,660.03582l-11.46525-6.61724V330.59447L483.564,132.35338l11.46525-2.15873Z"/>
      <polygon class="cls-7" points="491.188 135.665 487.246 137.94 487.252 456.375 147.845 652.319 147.845 656.725 491.188 458.506 491.188 135.665"/>
      <path class="cls-8" d="M136.357,327.271V676.623L502.676,465.13872V115.76621Zm11.48824,6.6326L491.18773,135.66491l0,322.84091L147.84525,656.7252Z"/>
    </g>
    <polygon class="cls-9" points="375.783 520.728 370.783 523.615 370.783 205.199 375.783 202.312 375.783 520.728"/>
    <polygon class="cls-10" points="264.314 585.08 259.314 587.967 259.314 269.551 264.314 266.664 264.314 585.08"/>
    <g>
      <path class="cls-11" d="M320.03935,241.7198l-172.1941,99.549V654.67317a2.97181,2.97181,0,0,0,1.50513,2.60065l-.00024.00018,3.38843,1.94965-.40357-1.94727.01-.005,163.20081-94.20411a9,9,0,0,0,4.50073-7.79486L323.43046,243.672Z"/>
      <path class="cls-12" d="M323.4376,557.22459,323.43049,243.672,151.23636,343.221V656.62532a3,3,0,0,0,4.49977,2.59821l163.20076-94.2041A9,9,0,0,0,323.4376,557.22459Z"/>
      <g>
        <g class="cls-13">
          <polygon class="cls-11" points="173.048 649.203 170.749 650.53 170.749 331.939 173.048 330.611 173.048 649.203"/>
        </g>
        <g class="cls-13">
          <polygon class="cls-11" points="194.86 636.593 192.56 637.921 192.56 319.329 194.86 318.002 194.86 636.593"/>
        </g>
        <g class="cls-13">
          <polygon class="cls-11" points="216.671 623.984 214.372 625.311 214.372 306.72 216.671 305.392 216.671 623.984"/>
        </g>
        <g class="cls-13">
          <polygon class="cls-11" points="238.483 611.374 236.184 612.702 236.184 294.11 238.483 292.783 238.483 611.374"/>
        </g>
        <g class="cls-13">
          <polygon class="cls-11" points="260.295 598.765 257.995 600.092 257.995 281.501 260.295 280.173 260.295 598.765"/>
        </g>
        <g class="cls-13">
          <polygon class="cls-11" points="282.106 586.155 279.807 587.482 279.807 268.891 282.106 267.564 282.106 586.155"/>
        </g>
        <g class="cls-13">
          <polygon class="cls-11" points="303.918 573.545 301.619 574.873 301.619 256.282 303.918 254.954 303.918 573.545"/>
        </g>
      </g>
    </g>
    <g>
      <path class="cls-11" d="M497.76821,139.07658l-172.19409,99.549V552.03a2.97181,2.97181,0,0,0,1.50513,2.60065l-.00024.00018,3.38842,1.94965-.40356-1.94727.01-.005,163.2008-94.2041a9,9,0,0,0,4.50074-7.79486l3.38391-311.60046Z"/>
      <path class="cls-14" d="M501.16647,454.58136l-.00712-313.55261-172.19412,99.549V553.98209a3,3,0,0,0,4.49976,2.59822l163.20076-94.2041A9,9,0,0,0,501.16647,454.58136Z"/>
      <g>
        <g class="cls-13">
          <polygon class="cls-11" points="350.777 546.56 348.478 547.887 348.478 229.296 350.777 227.968 350.777 546.56"/>
        </g>
        <g class="cls-13">
          <polygon class="cls-11" points="372.589 533.95 370.289 535.278 370.289 216.686 372.589 215.359 372.589 533.95"/>
        </g>
        <g class="cls-13">
          <polygon class="cls-11" points="394.4 521.34 392.101 522.668 392.101 204.077 394.4 202.749 394.4 521.34"/>
        </g>
        <g class="cls-13">
          <polygon class="cls-11" points="416.212 508.731 413.913 510.058 413.913 191.467 416.212 190.139 416.212 508.731"/>
        </g>
        <g class="cls-13">
          <polygon class="cls-11" points="438.024 496.121 435.724 497.449 435.724 178.857 438.024 177.53 438.024 496.121"/>
        </g>
        <g class="cls-13">
          <polygon class="cls-11" points="459.835 483.512 457.536 484.839 457.536 166.248 459.835 164.92 459.835 483.512"/>
        </g>
        <g class="cls-13">
          <polygon class="cls-11" points="481.647 470.902 479.348 472.23 479.348 153.638 481.647 152.311 481.647 470.902"/>
        </g>
      </g>
    </g>
    <g>
      <path class="cls-15" d="M498.691,132.33943v6.03443l-14.83479,8.56338V140.018a3.36191,3.36191,0,0,1,1.68117-2.91162l10.70616-6.18012A1.63171,1.63171,0,0,1,498.691,132.33943Z"/>
      <path class="cls-16" d="M156.28676,330.29116v6.03443L141.452,344.889v-6.91922a3.36193,3.36193,0,0,1,1.68116-2.91162L153.8393,328.878A1.63171,1.63171,0,0,1,156.28676,330.29116Z"/>
      <path class="cls-17" d="M506.42655,138.88379,143.80033,348.28887l-3.92587-6.79981L502.51387,132.07637l.00179.0031a1.97737,1.97737,0,0,1,1.95074.20783,6.13755,6.13755,0,0,1,2.78517,4.8041A1.92627,1.92627,0,0,1,506.42655,138.88379Z"/>
      <ellipse class="cls-16" cx="141.83739" cy="344.88896" rx="2.26305" ry="3.92587" transform="translate(-153.44187 117.12506) rotate(-30)"/>
    </g>
  </g>
  <g>
    <g>
      <path class="cls-18" d="M547.95157,464.95057v76.9897a1.741,1.741,0,0,0,2.61106,1.50791L599.38919,515.278a5.22281,5.22281,0,0,0,2.61249-4.52372V437.26664"/>
      <path class="cls-19" d="M478.63242,425.03905v76.9897a1.741,1.741,0,0,0,2.61106,1.50791L544.32415,467.137a5.22282,5.22282,0,0,0,2.61248-4.52372V389.12561"/>
      <g>
        <path class="cls-20" d="M604.23409,398.14839v41.964a3.498,3.498,0,0,1-1.74672,3.04229L550.78528,473.049a6.99683,6.99683,0,0,1-3.508.93164l-14.2541-75.83226Z"/>
        <path class="cls-21" d="M547.27726,398.14839v75.83226a6.99716,6.99716,0,0,1-3.50837-.93164l-65.94144-38.12382a3.4824,3.4824,0,0,1-1.76147-3.04229v-41.964Z"/>
        <polygon class="cls-22" points="541.893 462.729 481.45 427.799 481.471 401.037 541.893 435.979 541.893 462.729"/>
        <path class="cls-23" d="M476.066,382.12553v7.65773a3.47235,3.47235,0,0,0,1.75076,3.03443l65.95178,38.12776a7.01028,7.01028,0,0,0,7.017,0l51.69781-29.89824a3.47235,3.47235,0,0,0,1.75076-3.03443V390.355Z"/>
        <path class="cls-24" d="M602.48333,387.32062l-65.95189-38.12771a7.01,7.01,0,0,0-7.017,0l-51.69779,29.8982a3.505,3.505,0,0,0,0,6.06884l65.95189,38.12771a7.01,7.01,0,0,0,7.017,0l51.69779-29.8982A3.505,3.505,0,0,0,602.48333,387.32062Z"/>
      </g>
    </g>
    <g>
      <g>
        <path class="cls-25" d="M564.68837,382.13971C562.0587,375.72354,552.084,370.9433,540.15,370.9433s-21.9087,4.78024-24.53826,11.19641h-.70019v3.35219c0,8.035,11.2996,14.54861,25.23845,14.54861s25.23856-6.51363,25.23856-14.54861v-3.35219Z"/>
        <ellipse class="cls-26" cx="540.15005" cy="381.64595" rx="25.23852" ry="14.54865"/>
      </g>
      <path class="cls-27" d="M536.843,341.16349v37.46434c0,1.05282,1.48059,1.90631,3.307,1.90631s3.307-.85349,3.307-1.90631V341.16349Z"/>
      <path class="cls-28" d="M506.20709,308.35523v31.11514c0,10.77367,15.19673,19.50744,33.943,19.50744s33.943-8.73377,33.943-19.50744V308.35523Z"/>
      <path class="cls-29" d="M505.75169,303.03984v31.53261c0,10.91822,15.40062,19.76917,34.39838,19.76917s34.39839-8.85095,34.39839-19.76917V303.03984Z"/>
      <g>
        <ellipse class="cls-11" cx="540.15005" cy="303.03994" rx="34.3984" ry="19.76919"/>
        <path class="cls-30" d="M532.73233,320.80523a33.58124,33.58124,0,0,0,14.83535,0V310.18739H532.73233Z"/>
        <ellipse class="cls-31" cx="540.15005" cy="310.18743" rx="7.41771" ry="4.27591"/>
        <path class="cls-32" d="M540.15,284.96619c18.03246,0,32.70278,8.10781,32.70278,18.0737S558.1825,321.11374,540.15,321.11374s-32.70279-8.108-32.70279-18.07385,14.67032-18.0737,32.70279-18.0737m0-1.69547c-18.99763,0-34.39839,8.851-34.39839,19.76917,0,10.91832,15.40076,19.76931,34.39839,19.76931s34.39838-8.851,34.39838-19.76931c0-10.91818-15.40076-19.76917-34.39838-19.76917Z"/>
      </g>
    </g>
  </g>
  <g>
    <path class="cls-33" d="M241.7915,113.44029a191.74878,191.74878,0,1,1-74.8872,15.113,191.18371,191.18371,0,0,1,74.8872-15.113m0-17.54223c-115.95068,0-209.94726,93.99682-209.94726,209.94751S125.84082,515.79308,241.7915,515.79308c115.95118,0,209.94776-93.99683,209.94776-209.94751S357.74268,95.89806,241.7915,95.89806Z"/>
    <circle class="cls-34" cx="241.79174" cy="305.84555" r="194.19259"/>
    <path class="cls-34" d="M435.98541,305.84375A194.17509,194.17509,0,1,1,364.93924,155.6819,193.78539,193.78539,0,0,1,435.98541,305.84375Z"/>
  </g>
  <g class="cls-35">
    <g>
      <g>
        <g>
          <g>
            <path class="cls-36" d="M865.83335,244.96,162.36082-171.16939a10.72352,10.72352,0,0,0-11.69644.463v-.00044L85.42727-132.97175l66.98456,39.18119V220.9911L881.76864,604.31052V272.8912A32.44677,32.44677,0,0,0,865.83335,244.96Z"/>
            <path class="cls-37" d="M80.308-123.77885V262.75488L816.03512,642.39061V310.97146a32.44622,32.44622,0,0,0-15.93552-27.93123L96.62694-133.08926A10.81541,10.81541,0,0,0,80.308-123.77885Z"/>
            <path class="cls-38" d="M816.03458,310.97146v362.964l-1158.76236,236.085-35.11442,738.34794a67.52494,67.52494,0,0,0,33.97593-9.03329L864.98257,940.63664c11.86455-6.87625,16.77673-19.12147,16.77673-30.93387l.00968-240.62028V272.89133Z"/>
            <g>
              <path class="cls-39" d="M816.03512,605.30257V732.20665l-.03374-.03373a33.35659,33.35659,0,0,1-16.75191,30.63886l-1143.12488,659.953a67.1873,67.1873,0,0,1-33.976,9.03325l35.11442-624.94375Z"/>
              <path class="cls-40" d="M816.03512,655.56V782.46409l-.03374-.03374a33.35659,33.35659,0,0,1-16.75191,30.63886l-1143.12488,659.953a67.1873,67.1873,0,0,1-33.976,9.03325l35.11442-624.94376Z"/>
              <path class="cls-41" d="M495.66642,610.92732l-838.3813,174.40885-35.11442,624.92331a67.16613,67.16613,0,0,0,33.9608-9.04368L393.26413,975.35457l405.96466-234.085a33.33882,33.33882,0,0,0,16.75845-30.609h.06382V583.73332Z"/>
              <path class="cls-42" d="M799.24212,554.81909,119.6655,162.59993a67.413,67.413,0,0,0-67.416-.00193l-424.038,244.47393h0l-719.304,415.43234a33.23814,33.23814,0,0,0-15.7998,20.75311,34.27239,34.27239,0,0,0-1.05332,8.438,33.39007,33.39007,0,0,0,16.85382,29.19036l476.60563,275.15569,203.18768,117.11431a67.41468,67.41468,0,0,0,12.18121,5.50381,67.38669,67.38669,0,0,0,17.16729,3.3863q2.17852.141,4.362.14078a67.36724,67.36724,0,0,0,33.709-9.036l1143.12323-659.954C821.71038,600.22161,821.70967,567.79239,799.24212,554.81909Z"/>
              <path class="cls-41" d="M390.10857,504.5118s-38.5626,125.19533-55.3259,165.12139-44.14841,65.39636-73.81882,82.47343l0,0-58.39649-62.60978L307.2802,499.03278Z"/>
            </g>
          </g>
          <path class="cls-43" d="M864.98257,223.98932V940.63664l-18.99825,10.98629V223.98932a23.78482,23.78482,0,0,0-11.64539-20.441l-721.06252-426.537a1.41318,1.41318,0,0,0-1.58605,0,1.44307,1.44307,0,0,0-.793,1.37v73.94112L91.89821-136.71793V-221.6188a20.38012,20.38012,0,0,1,10.38236-17.88155,20.37778,20.37778,0,0,1,20.65823.18021L844.00132,187.21691A42.88419,42.88419,0,0,1,864.98257,223.98932Z"/>
        </g>
        <path class="cls-44" d="M777.44378,929.3934-284.4474,1543.11679a32.44619,32.44619,0,0,0-16.20337,28.08783v43.13978L793.64034,981.89226l.03312-43.12794A10.8154,10.8154,0,0,0,777.44378,929.3934Z"/>
      </g>
      <g>
        <path class="cls-41" d="M92.82837,315.95515c.71105-.76706,138.9848-80.075,138.9848-80.075-.71951-4.80122-1.86368-10.48113,1.22466-12.08669,3.50569-1.82226,10.68156,1.71224,14.45266,6.10135,47.97192-10.12875,70.02743-9.95523,165.4549,44.29935C536.62109,344.509,544.13049,375.99139,571.816,425.10219c8.60782,4.08825,13.19718,6.85123,11.23031,12.00254-1.82053,4.76807-13.80318,7.23526-19.85949,5.12955L432.69816,517.16087c1.24332,5.5149-.85877,12.89645-4.33179,14.63442-4.56411,2.28453-11.09209-2.45038-14.01067-11.63738l-.00321-.00729c-56.887-2.35754-134.34626-36.99419-185.76353-69.41831-42.72858-26.9454-115.464-70.25633-135.05508-116.46475-7.55123-.0175-14.91333-3.79152-15.19944-8.57174C78.044,320.83306,85.14064,316.76915,92.82837,315.95515Z"/>
        <path class="cls-45" d="M79.9359,282.6234c.71105-.767,138.98481-80.075,138.98481-80.075-.71951-4.80122-1.86368-10.48114,1.22465-12.08669,3.50569-1.82226,10.68157,1.71224,14.45266,6.10135,47.97193-10.12875,70.02743-9.95523,165.45491,44.29935C523.72862,311.17728,531.238,342.65965,558.92357,391.77045c8.60782,4.08825,13.19717,6.85123,11.23031,12.00254-1.82054,4.76807-13.80319,7.23526-19.8595,5.12955L419.80569,483.82913c1.24332,5.5149-.85876,12.89645-4.33179,14.63442-4.5641,2.28453-11.09209-2.45038-14.01066-11.63738l-.00321-.00729c-56.887-2.35754-134.34627-36.99419-185.76353-69.41831-42.72858-26.9454-115.464-70.25633-135.05509-116.46475-7.55123-.0175-14.91333-3.79152-15.19944-8.57175C65.15148,287.50132,72.24817,283.43741,79.9359,282.6234Z"/>
        <path class="cls-46" d="M298.7818,408.74337c39.60045-21.2118,74.21532-57.98024,72.55589-109.51334l-82.37545,11.27885-25.91035,83.86587Z"/>
        <path class="cls-47" d="M278.76818,385.58105C211.17347,338.136,117.71062,280.56034,31.588,364.99394l-92.79686,99.68031-202.78678,67.93421c-118.414,73.03042,109.02273,196.22163,214.61748,192.76933l162.703-66.65427L350.76567,536.14C363.90606,492.38223,319.11261,413.899,278.76818,385.58105Z"/>
        <path class="cls-48" d="M251.04764,528.30574l-56.77443,40.91758C129.69384,508.86774,64.80368,464.25026-24.71546,425.74294l-31.60807,32.69627-196.49606,68.32791c-129.59023,78.8724,97.84706,202.06231,203.44164,198.61013L90.72021,644.313,200.7098,611.41452l21.57284,9.182Z"/>
        <path class="cls-49" d="M-430.63563,408.25556l15.85108-9.32687a168.954,168.954,0,0,1,120.40362-19.843c219.57139,46.13279,496.40983,185.063,570.73921,368.16247,54.38684,133.97392,60.27188,223.02676,58.03458,267.92852a87.08361,87.08361,0,0,1-24.34652,55.9795C147.91577,1240.01151-166.33119,1413.00946-341.469,1455.78715a85.05266,85.05266,0,0,1-43.87767-.87c-299.61236-86.92637-619.96087-282.45938-750.51978-411.47927a86.6211,86.6211,0,0,1-23.87409-79.5122c9.02243-42.83248,24.91883-106.28523,45.72384-141.25656C-1080.64339,766.57163-430.63563,408.25556-430.63563,408.25556Z"/>
        <path class="cls-50" d="M-67.73323,638.54233l38.32371,15.827c7.29781,3.01356,17.70244,5.63511,25.66475,5.469L34.141,657.50382C72.01082,693.60671,165.0601,779.03394,200.18519,781.54329c24.15724,1.72537,51.44535-33.83981,71.37881-66.782-13.71473-31.25177-33.70939-61.08566-58.46191-89.23061a38.29774,38.29774,0,0,0-4.15384,8.75358l-15.77234,39.94415L48.878,601.18185l-19.20776-15.757A48.836,48.836,0,0,0,8.48941,574.05987l-35.5506-10.19916a9.57663,9.57663,0,0,0-11.43344,6.37393c-1.41861,4.42853,4.11085,10.77768,8.22826,12.94167l-38.72882,4.17059A11.80094,11.80094,0,0,0-81.413,599.85723l1.32026,21.38777A20.051,20.051,0,0,0-67.73323,638.54233Z"/>
        <g>
          <path class="cls-51" d="M71.48745,321.88876c-26.6778,1.8211-168.67879,37.17333-240.18357,73.63822-28.22982,14.39621-39.29849,28.79061-36.16721,47.333,5.19133,30.74129,72.71216,88.68474,72.71216,88.68474l37.97626-33.24347-15.28294-34.65705,57.41884-4.43556C29.968,350.16391,111.00974,323.11913,155.59972,324.41872,132.04578,318.33143,108.69755,319.34947,71.48745,321.88876Z"/>
          <path class="cls-52" d="M71.48745,321.88876c-26.6778,1.8211-119.2006,10.94311-190.70538,47.408-28.22983,14.39621,4.0667,100.85417,24.4002,97.87192l42.77872-7.96C29.968,350.16391,111.00974,323.11913,155.59972,324.41872,132.04578,318.33143,108.69755,319.34947,71.48745,321.88876Z"/>
          <path class="cls-48" d="M-52.039,459.20865c24.06375-31.99736,48.03572-56.88783,71.03669-76.12032l-101.36,81.76275Z"/>
        </g>
        <path class="cls-51" d="M29.67019,561.55013A48.83664,48.83664,0,0,0,8.48927,550.18418l-35.55063-10.19862A9.57751,9.57751,0,0,0-38.495,546.35882v0c-1.41839,4.42928,4.11127,10.77906,8.22871,12.94169l10.1477-1.09289L-68.995,563.47154a11.80064,11.80064,0,0,0-12.41756,12.51018l1.31993,21.38783A20.05116,20.05116,0,0,0-67.733,614.6675l38.3236,15.82623c7.29761,3.01365,17.7025,5.63548,25.66453,5.46915l46.58745-2.87016L60.352,586.71881Z"/>
        <path class="cls-53" d="M237.499,523.66924s-41.08327,60.57124-56.127,93.52934c-27.45877,58.75191,87.82862,101.4223,111.70577,68.48746,18.298-27.25132,48.1904-113.46093,58.72812-153.32178C363.30689,476.83123,268.14619,467.60813,237.499,523.66924Z"/>
        <ellipse class="cls-54" cx="235.37802" cy="658.72352" rx="26.57433" ry="57.28" transform="translate(-461.43789 597.34705) rotate(-65.30325)"/>
        <path class="cls-51" d="M188.22461,633.09005l-6.83186,11.29766-127.41892-62.901-24.19862,52.411S155.61333,754.48316,200.18581,757.668c32.50834,2.3223,57.7029-32.13424,68.96832-50.9662L283.72429,682.026C295.85661,661.82807,202.3225,613.29878,188.22461,633.09005Z"/>
        <g>
          <path class="cls-54" d="M185.35914,345.27521c-29.85122,15.34056-38.42215,61.64033-9.78855,82.81851,40.45267,29.91989,107.19712,5.915,103.82324-35.70325C275.83692,348.51428,213.82,330.64916,185.35914,345.27521Z"/>
          <path class="cls-55" d="M191.07393,346.7298c-24.96828,12.83122-32.13721,51.55747-8.18738,69.27141,33.8356,25.02572,89.66227,4.94747,86.84028-29.86306C266.75174,349.439,214.87928,334.49622,191.07393,346.7298Z"/>
          <path class="cls-56" d="M199.016,355.84977c-6.85467,8.27692-10.7844,18.31657-3.888,28.91333,13.99355,21.50215,47.736,25.01842,59.58633,8.81921l33.21227-41.36569-57.01867-34.268Z"/>
        </g>
        <g>
          <path class="cls-57" d="M226.45309,217.24931s-25.00652,8.827-23.84664,40.07993a112.12868,112.12868,0,0,0,5.19632,29.45716l28.13642-37.0576Z"/>
          <path class="cls-55" d="M200.09323,376.6093c35.90637,15.04549,64.1717,10.21723,86.74477-17.51266l48.7044-60.03089c20.32414-23.66785,14.89324-63.83235-14.58164-84.98615-25.76066-18.48816-67.627-16.28325-88.12164,12.24407,0,0-24.82,35.53744-40.77255,66.31926S167.46213,362.93622,200.09323,376.6093Z"/>
          <path class="cls-58" d="M219.36072,238.70383c-5.55659-6.64372-7.90721-17.55484-3.2393-28.81994,6.30734-15.22157,16.43465-17.71379,24.78641-21.09425,9.44759-3.824,13.71965-18.49316,30.45826-18.57752,17.449-.088,23.01947,13.8805,37.85646,21.89574C320.189,198.03217,331.0148,197.12,340.84234,205.96c14.15694,12.73444,8.18979,17.93489,16.815,33.38913,9.13546,16.36845,19.81008,25.31071,18.23073,43.668-1.3022,15.1358-9.62742,23.07739-17.10547,36.59508-5.89944,10.66412-6.69938,22.47663-16.49646,31.4466-16.89236,15.46626-25.20577,6.03465-34.24352,13.86985-21.96419,19.04167-31.17694,7.85513-47.40752,21.07388l14.68394-28.6864-5.3015-14.68081c-4.76118-.74362-9.56207-3.49008-8.99654-8.95448.48555-4.69163,7.14987-14.86758,9.28733-18.48187,4.77065-8.06678,4.58477-14.58507-5.63993-21.28579-23.857-15.63462-18.415-27.23655-23.59867-38.644C236.31945,244.81546,225.35511,245.871,219.36072,238.70383Z"/>
          <g>
            <path class="cls-59" d="M294.993,324.32077c-15.637,14.2508-32.87363,8.48381-58.04277-20.2949-7.48814-8.562-12.836-15.63487-19.06905-19.04541-10.22-5.59207-14.66536-2.95219-20.53944-1.64346-4.65419-1.12554-4.83356-8.62441-3.24438-14.08327,7.51858-25.82627,38.0311-43.77641,75.07475-18.00783S310.82728,309.8902,294.993,324.32077Z"/>
            <path class="cls-60" d="M306.271,366.42232c3.40674-1.42391,6.75112-2.51863,10.05231-5.033-2.14455-17.56792-7.57722-33.77877-16.28767-47.25788l-8.86406,5.33736C299.72961,332.72122,304.77474,348.59271,306.271,366.42232Z"/>
          </g>
          <path class="cls-55" d="M263.26031,366.73956c10.24714,7.85526,29.84132.15986,38.75508-11.4681s6.34764-29.13173-6.47548-30.64045C279.44272,322.73708,253.01317,358.88431,263.26031,366.73956Z"/>
        </g>
        <g class="cls-13">
          <path class="cls-54" d="M29.01951,375.00461c.24459-.18977.49152-.39042.73612-.57941l.01944-.03033Z"/>
        </g>
      </g>
    </g>
  </g>
  <g>
    <ellipse class="cls-11" cx="895.56805" cy="404.45656" rx="9.91662" ry="5.7164"/>
    <path class="cls-61" d="M905.48461,404.459c-.00257,3.156-4.44124,5.71409-9.91678,5.71409-5.47681,0-9.91634-2.55939-9.91634-5.71666v53.52265c0,3.15716,4.43953,5.71644,9.91634,5.71644s9.91678-2.55928,9.91678-5.71644V404.459Z"/>
    <path class="cls-62" d="M905.48461,410.95336c-.00257,3.156-4.44124,5.71409-9.91678,5.71409-5.47681,0-9.91634-2.55939-9.91634-5.71666v3.91979c0,3.15715,4.43953,5.71644,9.91634,5.71644s9.91678-2.55929,9.91678-5.71644Z"/>
    <path class="cls-63" d="M905.48461,446.11254c-.00257,3.156-4.44124,5.71409-9.91678,5.71409-5.47681,0-9.91634-2.55939-9.91634-5.71666v3.91978c0,3.15716,4.43953,5.71644,9.91634,5.71644s9.91678-2.55928,9.91678-5.71644Z"/>
    <path class="cls-32" d="M895.56812,400.05577c5.0686,0,8.60083,2.31934,8.60083,4.40088s-3.53223,4.40064-8.60083,4.40064c-5.06885,0-8.60108-2.31909-8.60108-4.40064s3.53223-4.40088,8.60108-4.40088m0-1.31567c-5.47681,0-9.91675,2.55933-9.91675,5.71655,0,3.157,4.43994,5.71631,9.91675,5.71631s9.9165-2.55933,9.9165-5.71631c0-3.15722-4.4397-5.71655-9.9165-5.71655Z"/>
  </g>
  <g>
    <circle class="cls-33" cx="105.34043" cy="169.43726" r="62.02326"/>
    <g>
      <rect class="cls-64" x="84.28363" y="160.79502" width="13.46241" height="40.4658" transform="translate(-101.34844 117.37906) rotate(-45)"/>
      <rect class="cls-64" x="110.49446" y="143.61416" width="13.46241" height="60.59444" transform="translate(77.14282 379.77635) rotate(-135)"/>
    </g>
  </g>
  <g>
    <g>
      <polygon class="cls-65" points="750.714 265.91 750.754 356.612 673.474 311.858 673.435 221.156 750.714 265.91"/>
      <polygon class="cls-66" points="747.408 264.001 747.439 342.629 683.885 305.8 683.855 227.172 747.408 264.001"/>
      <polygon class="cls-67" points="736.052 272.657 736.072 325.962 692.988 300.995 692.967 247.69 736.052 272.657"/>
      <path class="cls-68" d="M746.41632,349.10536,677.804,309.35585l-.0322-80.69349,68.61233,39.74952.03218,80.69348m4.33729,7.5063-.03922-90.70188-77.27987-44.75372.03924,90.70189,77.27985,44.75371Z"/>
      <polygon class="cls-69" points="678.325 218.325 755.605 263.079 750.714 265.91 673.435 221.156 678.325 218.325"/>
      <polygon class="cls-70" points="755.605 263.079 755.628 353.79 750.754 356.612 750.714 265.91 755.605 263.079"/>
    </g>
    <g>
      <polygon class="cls-71" points="815.963 336.547 816.002 395.249 762.971 364.495 762.932 305.793 815.963 336.547"/>
      <polygon class="cls-72" points="812.657 334.638 812.687 381.266 773.383 358.437 773.352 311.809 812.657 334.638"/>
      <path class="cls-73" d="M811.665,387.74243l-44.3636-25.74951-.0322-48.69349,44.36362,25.74951.03218,48.69349m4.33729,7.5063-.03922-58.70188-53.03116-30.75372.03924,58.70188,53.03114,30.75372Z"/>
      <polygon class="cls-74" points="767.823 302.962 820.854 333.716 815.963 336.547 762.932 305.793 767.823 302.962"/>
      <polygon class="cls-75" points="820.854 333.716 820.876 392.427 816.002 395.249 815.963 336.547 820.854 333.716"/>
    </g>
  </g>
  <g>
    <g>
      <g>
        <g>
          <path class="cls-76" d="M851.96452,451.262,631.13436,320.633a3.36625,3.36625,0,0,0-3.67168.14533v-.00014l-20.47886,11.8456,21.02741,12.29954v98.81449l228.9556,120.32948V460.03A10.1855,10.1855,0,0,0,851.96452,451.262Z"/>
          <path class="cls-77" d="M605.37679,335.50956v121.3385L836.33213,576.02118V471.98394a10.18536,10.18536,0,0,0-5.00238-8.768l-220.8302-130.629A3.39511,3.39511,0,0,0,605.37679,335.50956Z"/>
          <path class="cls-78" d="M836.332,471.98394V585.92357L472.57978,660.03405,461.55686,891.8121a21.197,21.197,0,0,0,10.66553-2.83569L851.69744,669.6449a10.88259,10.88259,0,0,0,5.26646-9.71059l.003-75.53416V460.03Z"/>
          <path class="cls-79" d="M472.57987,660.03408,461.557,891.8121a21.05431,21.05431,0,0,1-10.5068-2.83567L237.65274,765.8374a10.45041,10.45041,0,0,1-5.27991-9.00433V680.58212Z"/>
          <g>
            <path class="cls-39" d="M836.33213,564.37871v39.837l-.01059-.01059a10.47112,10.47112,0,0,1-5.25866,9.618L472.21952,820.99185a21.09094,21.09094,0,0,1-10.66554,2.83567l11.02293-196.17884Z"/>
            <path class="cls-80" d="M836.33213,580.15524v39.837l-.01059-.01059a10.47111,10.47111,0,0,1-5.25866,9.618L472.21952,836.76839a21.091,21.091,0,0,1-10.66554,2.83566l11.02293-196.17884Z"/>
            <path class="cls-81" d="M472.57691,643.42521,461.554,839.60405a21.07406,21.07406,0,0,1-10.49621-2.83566L237.6603,713.62936a10.48748,10.48748,0,0,1-5.29044-9.17367V663.82517Z"/>
            <path class="cls-41" d="M735.76379,566.1444l-263.18,54.74945L461.56091,817.06627a21.08441,21.08441,0,0,0,10.66079-2.83894l231.39654-133.684,127.43815-73.48265a10.46557,10.46557,0,0,0,5.26072-9.60863h.02V557.60782Z"/>
            <path class="cls-41" d="M472.57691,620.88731,461.554,817.06615a21.074,21.074,0,0,1-10.49621-2.83567L237.6603,691.09146a10.48751,10.48751,0,0,1-5.29044-9.17367V641.28727Z"/>
            <path class="cls-42" d="M831.06057,548.53122,617.73169,425.408a21.16192,21.16192,0,0,0-21.16285-.0006L463.4572,502.15126h0L237.65732,632.56145a10.434,10.434,0,0,0-4.95979,6.5147,10.75875,10.75875,0,0,0-.33065,2.6488,10.4816,10.4816,0,0,0,5.29066,9.16327L387.2709,737.26356l63.78354,36.76386a21.14654,21.14654,0,0,0,9.21292,2.79073q.68387.04425,1.36928.0442a21.14754,21.14754,0,0,0,10.58175-2.83652L831.06123,566.85678A10.5809,10.5809,0,0,0,831.06057,548.53122Z"/>
            <path class="cls-41" d="M702.62766,532.739s-12.10535,39.30061-17.3676,51.834a52.87882,52.87882,0,0,1-23.17278,25.8896h0l-18.3315-19.65411,32.87088-59.78942Z"/>
          </g>
        </g>
        <path class="cls-82" d="M851.69744,444.679V669.6449l-5.96382,3.44876V444.679a7.46641,7.46641,0,0,0-3.65566-6.41674L615.72606,304.36614a.44359.44359,0,0,0-.49788,0,.453.453,0,0,0-.24895.43005v23.21118l-5.9641,3.44043V304.79619a6.453,6.453,0,0,1,9.74409-5.5567L845.11113,433.1356A13.462,13.462,0,0,1,851.69744,444.679Z"/>
      </g>
      <path class="cls-83" d="M824.21776,666.11549,490.87483,858.77209a10.18534,10.18534,0,0,0-5.08647,8.81718v13.5422L829.30209,682.59564l.0104-13.53849A3.39511,3.39511,0,0,0,824.21776,666.11549Z"/>
    </g>
    <g>
      <path class="cls-41" d="M609.30713,473.54839c.22321-.24079,43.62933-25.1367,43.62933-25.1367-.22587-1.50718-.585-3.29018.38443-3.79419,1.10049-.572,3.3531.5375,4.5369,1.9153,15.05908-3.17956,21.98262-3.12509,51.93868,13.9062,38.82358,22.07286,41.18089,31.95563,49.87178,47.37222,2.70212,1.28336,4.14278,2.1507,3.52535,3.76777-.57149,1.49677-4.333,2.27125-6.23418,1.61024l-40.96228,23.52053c.3903,1.73121-.26957,4.04839-1.35981,4.594-1.43273.71715-3.482-.76921-4.39815-3.65314l-.001-.00229c-17.85764-.74007-42.17323-11.613-58.31385-21.79141-13.41312-8.45855-36.24582-22.05447-42.39573-36.56-2.37044-.00549-4.68151-1.19021-4.77133-2.69079C604.66608,475.07964,606.89384,473.80392,609.30713,473.54839Z"/>
      <path class="cls-45" d="M605.26,463.08508c.22321-.24079,43.62933-25.13671,43.62933-25.13671-.22587-1.50717-.585-3.29018.38443-3.79419,1.10049-.572,3.3531.5375,4.5369,1.91531,15.05908-3.17956,21.98262-3.12509,51.93868,13.9062,38.82358,22.07286,41.18089,31.95563,49.87178,47.37222,2.70212,1.28336,4.14278,2.15069,3.52535,3.76777-.57149,1.49676-4.333,2.27125-6.23418,1.61024L711.95,526.24645c.3903,1.73121-.26957,4.04838-1.35981,4.594-1.43273.71714-3.482-.76921-4.39815-3.65314l-.001-.00229c-17.85764-.74007-42.17323-11.613-58.31385-21.79141-13.41312-8.45855-36.24582-22.05447-42.39573-36.56-2.37044-.0055-4.68151-1.19022-4.77133-2.6908C600.619,464.61632,602.84671,463.34061,605.26,463.08508Z"/>
      <path class="cls-46" d="M673.95887,502.676c12.43116-6.65869,23.29726-18.20083,22.77634-34.37781l-25.85884,3.54059-8.13363,26.3267Z"/>
      <path class="cls-84" d="M667.67631,495.405c-21.21895-14.89369-50.55829-32.96751-77.59341-6.46259l-29.13027,31.29109L497.29494,541.559c-37.17184,22.9253,34.22381,61.59679,67.37152,60.51306l51.0748-20.92373,74.5361-38.48075C694.40232,528.93139,680.341,504.29438,667.67631,495.405Z"/>
      <path class="cls-48" d="M658.97443,540.2083l-17.82231,12.84462c-20.27239-18.94649-40.64235-32.95256-68.74369-45.04056l-9.92223,10.26383L500.80326,539.7253c-40.68024,24.75918,30.7156,63.43027,63.86326,62.34658l43.97882-25.44724,34.52732-10.3273,6.772,2.88237Z"/>
      <path class="cls-85" d="M444.98424,502.52282l4.97589-2.92784a53.037,53.037,0,0,1,37.79642-6.229c68.92662,14.48175,155.8302,58.09395,179.16326,115.5715,17.07281,42.05634,18.92021,70.01131,18.21789,84.10662a27.33682,27.33682,0,0,1-7.64273,17.57277c-50.89512,53.0061-149.54176,107.31265-204.52,120.74118a26.69925,26.69925,0,0,1-13.77384-.27309c-94.05263-27.28744-194.61463-88.66806-235.599-129.16926a27.19163,27.19163,0,0,1-7.49443-24.96c2.83227-13.44573,7.82238-33.36446,14.35337-44.34247C240.93745,615.00339,444.98424,502.52282,444.98424,502.52282Z"/>
      <path class="cls-50" d="M558.90453,574.81315l12.03036,4.96832a22.37248,22.37248,0,0,0,8.05654,1.71679l11.8929-.73283c11.88787,11.33322,41.09738,38.15006,52.12365,38.93778,7.5833.54162,16.14943-10.6228,22.40683-20.96382a109.47276,109.47276,0,0,0-18.352-28.01077,12.022,12.022,0,0,0-1.30395,2.74787l-4.95117,12.539-45.29718-22.93038-6.02959-4.94636a15.33039,15.33039,0,0,0-6.649-3.56762l-11.15984-3.20166a3.00623,3.00623,0,0,0-3.58912,2.00086c-.44533,1.39018,1.29045,3.38327,2.583,4.06258l-12.15754,1.30921a3.70448,3.70448,0,0,0-3.89812,3.92717l.41444,6.71393A6.29431,6.29431,0,0,0,558.90453,574.81315Z"/>
      <path class="cls-50" d="M509.12039,515.37883c1.14567,9.71935,17.612,25.16523,23.16034,28.35363l7.27842,11.17723a19.35929,19.35929,0,0,0,7.50989,6.39966l9.61322,4.62066a5.83806,5.83806,0,0,0,6.41979-.90894l4.69339-4.19432a6.86068,6.86068,0,0,0,1.22756-8.78113l-6.764-10.70011a15.24541,15.24541,0,0,0-9.30719-6.67368l-7.52064-1.564-1.62792-14.48159,14.51127-4.06905a4.68836,4.68836,0,0,0,2.59235-2.42812c-10.92655-4.39651-18.44645-10.02531-29.263-13.15744C519.98952,503.789,508.482,509.96359,509.12039,515.37883Z"/>
      <g>
        <path class="cls-86" d="M538.68281,541.22506l11.9213-10.4356,9.08481,1.88928a15.24641,15.24641,0,0,1,9.30718,6.67361l6.76385,10.7003a6.86055,6.86055,0,0,1-1.22751,8.78117l-4.69333,4.19436a5.8384,5.8384,0,0,1-6.41983.90878l-9.61313-4.62077a19.36,19.36,0,0,1-7.51-6.39954Z"/>
        <path class="cls-55" d="M602.60791,475.411c-8.37455.57167-52.95071,11.66924-75.39708,23.11609-8.86175,4.51918-12.33637,9.03779-11.35341,14.85852,1.62963,9.65013,22.82539,27.83941,22.82539,27.83941l11.9213-10.4356-4.79754-10.87935,18.0246-1.39238c25.74317-34.23072,51.18335-42.72046,65.18079-42.3125C621.618,474.29434,614.28869,474.61392,602.60791,475.411Z"/>
        <path class="cls-87" d="M602.60791,475.411c-8.37455.57167-37.41879,3.4352-59.86517,14.882-8.86175,4.51918,1.2766,31.65958,7.65958,30.72341l13.42885-2.49877c25.74317-34.23072,51.18335-42.72046,65.18079-42.3125C621.618,474.29434,614.28869,474.61392,602.60791,475.411Z"/>
        <path class="cls-48" d="M563.83117,518.51773a142.72581,142.72581,0,0,1,22.29944-23.89527L554.31225,520.289Z"/>
        <path class="cls-55" d="M539.01782,541.73941l7.27836,11.17719a19.35945,19.35945,0,0,0,7.50989,6.39966l9.61322,4.62066a5.83806,5.83806,0,0,0,6.41979-.90894l4.6934-4.19432a6.86069,6.86069,0,0,0,1.22755-8.78113l-6.764-10.70011a15.24541,15.24541,0,0,0-9.30719-6.67368l-7.52061-1.56409C542.147,528.33565,537.31665,538.87735,539.01782,541.73941Z"/>
        <path class="cls-56" d="M575.76,550.05253l-4.14171-6.552-2.7369-.785a3.00623,3.00623,0,0,0-3.58912,2.00087h0c-.44532,1.39017,1.29046,3.38326,2.583,4.06257l-12.15754,1.30921a3.70418,3.70418,0,0,0-3.89789,3.92717l.26852,4.354a19.42361,19.42361,0,0,0,1.71771.94691l9.61322,4.62066a5.83806,5.83806,0,0,0,6.41979-.90894l4.6934-4.19432A6.86069,6.86069,0,0,0,575.76,550.05253Z"/>
        <path class="cls-55" d="M561.82924,533.36642l12.03191,4.78352c3.46161,1.39365,1.18591,4.99307-1.39681,4.41354l-3.2587-.72242Z"/>
      </g>
      <path class="cls-55" d="M589.48086,550.64419a15.33058,15.33058,0,0,0-6.649-3.56794L571.672,543.87476a3.00653,3.00653,0,0,0-3.58918,2.00066h0c-.44525,1.39042,1.29059,3.3837,2.58311,4.06259l3.18551-.34308-15.343,1.65242a3.70439,3.70439,0,0,0-3.898,3.92713l.41435,6.71394a6.29434,6.29434,0,0,0,3.87986,5.43008l12.03033,4.96808a22.37014,22.37014,0,0,0,8.05646,1.71684l14.62447-.901,5.49646-14.55744Z"/>
      <path class="cls-88" d="M654.72131,538.75284S641.82468,557.767,637.10222,568.113c-8.6197,18.44307,27.57067,31.83792,35.06605,21.4992,5.744-8.55458,15.12766-35.617,18.43561-48.12991C694.21423,524.04971,664.34191,521.15445,654.72131,538.75284Z"/>
      <ellipse class="cls-54" cx="654.05551" cy="581.14832" rx="8.34206" ry="17.98102" transform="translate(-147.2108 932.56583) rotate(-65.30325)"/>
      <path class="cls-55" d="M639.25338,573.1016l-2.14462,3.5465-39.99863-19.74552-7.5963,16.45258s39.5024,37.85349,53.49434,38.85324c10.20484.729,18.11377-10.0874,21.65015-15.999l4.57378-7.74607C673.04061,582.12288,643.67891,566.88884,639.25338,573.1016Z"/>
      <g>
        <path class="cls-54" d="M638.35387,482.75238c-9.37073,4.81562-12.06127,19.34979-3.07277,25.99792,12.69868,9.39229,33.65072,1.85682,32.59161-11.20776C666.75615,483.76917,647.28814,478.16105,638.35387,482.75238Z"/>
        <path class="cls-55" d="M640.14782,483.209c-7.8379,4.0279-10.08833,16.18463-2.57013,21.74529,10.62148,7.85593,28.14627,1.55308,27.26041-9.37445C663.90418,484.05947,647.62066,479.3687,640.14782,483.209Z"/>
        <path class="cls-56" d="M642.641,486.07189c-2.15178,2.59824-3.38538,5.74983-1.22052,9.07631,4.39278,6.74983,14.985,7.85364,18.705,2.76847l10.42581-12.98528-17.899-10.75722Z"/>
      </g>
      <g>
        <path class="cls-89" d="M651.25385,442.56321s-7.84991,2.77092-7.4858,12.58167a35.19831,35.19831,0,0,0,1.6312,9.247l8.83242-11.63291Z"/>
        <path class="cls-55" d="M642.97911,492.5886c11.27153,4.723,20.14442,3.20734,27.23043-5.49747l15.289-18.84456c6.38-7.42968,4.67521-20.0379-4.57738-26.67838-8.08665-5.8037-21.22908-5.11155-27.66265,3.84359a222.88092,222.88092,0,0,0-12.79909,20.81857C635.45171,475.8932,632.73574,488.29643,642.97911,492.5886Z"/>
        <path class="cls-90" d="M649.02745,449.29809a8.81527,8.81527,0,0,1-1.01686-9.047c1.98-4.77827,5.15907-5.56062,7.78081-6.62179,2.96574-1.20042,4.3068-5.80527,9.56129-5.83175,5.47748-.02761,7.22614,4.35729,11.88368,6.87338,3.44254,1.85973,6.8409,1.57337,9.92591,4.3484,4.44407,3.99752,2.57089,5.63,5.27847,10.48133,2.86775,5.13829,6.21867,7.9454,5.72289,13.708-.40878,4.75134-3.02219,7.24432-5.36965,11.48772-1.85192,3.34762-2.103,7.05573-5.17848,9.87154-5.30275,4.85508-7.91245,1.89436-10.74953,4.35394-6.89488,5.97746-9.78689,2.46584-14.88191,6.6154l4.6095-9.00508-1.66421-4.60851c-1.4946-.23344-3.00167-1.09559-2.82415-2.81094.15243-1.47277,2.24445-4.66715,2.91543-5.80173,1.49758-2.53228,1.43923-4.57846-1.77045-6.68192-7.48907-4.90793-5.78075-8.54994-7.408-12.1309C654.351,451.21662,650.90918,451.548,649.02745,449.29809Z"/>
        <g>
          <path class="cls-91" d="M672.7695,476.17448c-4.90869,4.47353-10.3195,2.66319-18.22046-6.37086-2.35063-2.68775-4.02941-4.908-5.986-5.97863-3.2082-1.75543-4.60366-.92673-6.44762-.51591-1.461-.35332-1.51733-2.70732-1.01846-4.42093,2.36019-8.10725,11.93851-13.74205,23.567-5.65292S677.74012,471.64452,672.7695,476.17448Z"/>
          <path class="cls-92" d="M676.30985,489.39076a12.98623,12.98623,0,0,0,3.15556-1.57993,35.09645,35.09645,0,0,0-5.11293-14.83493l-2.78255,1.67548A31.77723,31.77723,0,0,1,676.30985,489.39076Z"/>
        </g>
        <path class="cls-55" d="M662.80817,489.49035c3.21672,2.46588,9.36761.05018,12.16577-3.6s1.99262-9.14487-2.03274-9.61848C667.88806,475.67734,659.59144,487.02447,662.80817,489.49035Z"/>
      </g>
      <g class="cls-13">
        <path class="cls-54" d="M589.27661,492.08487c.07678-.05957.15429-.12256.23108-.18189l.0061-.00952Z"/>
      </g>
    </g>
  </g>
</svg>
