<svg id="Layer_1" data-name="Layer 1" xmlns="http://www.w3.org/2000/svg" xmlns:xlink="http://www.w3.org/1999/xlink" viewBox="0 0 1000 1000">
  <defs>
    <style>
      .cls-1 {
        fill: #e4ecf2;
      }

      .cls-2 {
        fill: #dae3ea;
      }

      .cls-3 {
        fill: url(#linear-gradient);
      }

      .cls-19, .cls-4 {
        fill: #9bb0c4;
      }

      .cls-12, .cls-35, .cls-4, .cls-61, .cls-65, .cls-81 {
        opacity: 0.5;
      }

      .cls-5 {
        fill: url(#linear-gradient-2);
      }

      .cls-6 {
        fill: url(#linear-gradient-3);
      }

      .cls-7 {
        fill: url(#linear-gradient-4);
      }

      .cls-8 {
        fill: url(#linear-gradient-5);
      }

      .cls-9 {
        fill: url(#linear-gradient-6);
      }

      .cls-10 {
        fill: #e58630;
      }

      .cls-11 {
        fill: url(#linear-gradient-7);
      }

      .cls-13 {
        fill: url(#linear-gradient-8);
      }

      .cls-14 {
        fill: #748ca3;
      }

      .cls-15 {
        fill: #586c7f;
      }

      .cls-16 {
        fill: url(#linear-gradient-9);
      }

      .cls-17, .cls-65 {
        fill: #fff;
      }

      .cls-18 {
        fill: url(#linear-gradient-10);
      }

      .cls-20 {
        fill: url(#linear-gradient-11);
      }

      .cls-21 {
        fill: url(#linear-gradient-12);
      }

      .cls-22 {
        fill: url(#linear-gradient-13);
      }

      .cls-23 {
        fill: url(#linear-gradient-14);
      }

      .cls-24 {
        fill: url(#linear-gradient-15);
      }

      .cls-25 {
        fill: url(#linear-gradient-16);
      }

      .cls-26 {
        fill: url(#linear-gradient-17);
      }

      .cls-27, .cls-30 {
        opacity: 0.4;
      }

      .cls-27 {
        fill: url(#linear-gradient-18);
      }

      .cls-28 {
        fill: url(#linear-gradient-19);
      }

      .cls-29 {
        fill: url(#linear-gradient-20);
      }

      .cls-30 {
        fill: url(#linear-gradient-21);
      }

      .cls-31 {
        fill: url(#linear-gradient-22);
      }

      .cls-32 {
        fill: url(#linear-gradient-23);
      }

      .cls-33 {
        fill: url(#linear-gradient-24);
      }

      .cls-34 {
        fill: url(#linear-gradient-25);
      }

      .cls-35 {
        fill: url(#linear-gradient-26);
      }

      .cls-36 {
        fill: url(#linear-gradient-27);
      }

      .cls-37 {
        fill: url(#linear-gradient-28);
      }

      .cls-38 {
        fill: url(#linear-gradient-29);
      }

      .cls-39 {
        fill: url(#linear-gradient-30);
      }

      .cls-40 {
        fill: url(#linear-gradient-31);
      }

      .cls-41 {
        opacity: 0.6;
      }

      .cls-42 {
        fill: url(#linear-gradient-32);
      }

      .cls-43 {
        fill: url(#linear-gradient-33);
      }

      .cls-44 {
        fill: #724133;
      }

      .cls-45 {
        fill: #ffcb48;
      }

      .cls-46 {
        fill: url(#linear-gradient-34);
      }

      .cls-47 {
        fill: url(#linear-gradient-35);
      }

      .cls-48 {
        fill: url(#linear-gradient-36);
      }

      .cls-49 {
        fill: url(#linear-gradient-37);
      }

      .cls-50 {
        fill: url(#linear-gradient-38);
      }

      .cls-51 {
        fill: url(#linear-gradient-39);
      }

      .cls-52 {
        fill: url(#linear-gradient-40);
      }

      .cls-53 {
        fill: url(#linear-gradient-41);
      }

      .cls-54 {
        fill: url(#linear-gradient-42);
      }

      .cls-55 {
        fill: url(#linear-gradient-43);
      }

      .cls-56 {
        fill: url(#linear-gradient-44);
      }

      .cls-57 {
        fill: url(#linear-gradient-45);
      }

      .cls-58 {
        fill: url(#linear-gradient-46);
      }

      .cls-59 {
        fill: url(#linear-gradient-47);
      }

      .cls-60 {
        fill: #34a521;
      }

      .cls-61 {
        fill: url(#linear-gradient-48);
      }

      .cls-62 {
        fill: url(#linear-gradient-49);
      }

      .cls-63 {
        fill: url(#linear-gradient-50);
      }

      .cls-64 {
        fill: url(#linear-gradient-51);
      }

      .cls-66 {
        fill: url(#linear-gradient-52);
      }

      .cls-67 {
        fill: url(#linear-gradient-53);
      }

      .cls-68 {
        fill: url(#linear-gradient-54);
      }

      .cls-69 {
        fill: url(#linear-gradient-55);
      }

      .cls-70 {
        fill: url(#linear-gradient-56);
      }

      .cls-71, .cls-72 {
        fill: none;
        stroke-miterlimit: 10;
        stroke-width: 4.5px;
      }

      .cls-71 {
        stroke: url(#linear-gradient-57);
      }

      .cls-72 {
        stroke: url(#linear-gradient-58);
      }

      .cls-73 {
        fill: url(#linear-gradient-59);
      }

      .cls-74 {
        fill: url(#linear-gradient-60);
      }

      .cls-75 {
        fill: url(#linear-gradient-61);
      }

      .cls-76 {
        fill: url(#linear-gradient-62);
      }

      .cls-77 {
        fill: #303d49;
      }

      .cls-78 {
        fill: #ef8e73;
      }

      .cls-79 {
        fill: #27343d;
      }

      .cls-80 {
        fill: url(#linear-gradient-63);
      }

      .cls-81 {
        fill: #dd7b19;
      }

      .cls-82 {
        fill: url(#linear-gradient-64);
      }

      .cls-83 {
        fill: url(#linear-gradient-65);
      }

      .cls-84 {
        fill: url(#linear-gradient-66);
      }

      .cls-85 {
        fill: url(#linear-gradient-67);
      }
    </style>
    <linearGradient id="linear-gradient" x1="68.49217" y1="710.53755" x2="881.76898" y2="710.53755" gradientUnits="userSpaceOnUse">
      <stop offset="0.00663" stop-color="#c4d5e6"/>
      <stop offset="1" stop-color="#dae9f2"/>
    </linearGradient>
    <linearGradient id="linear-gradient-2" x1="282.42266" y1="189.25437" x2="276.295" y2="512.48842" gradientUnits="userSpaceOnUse">
      <stop offset="0" stop-color="#293440"/>
      <stop offset="1" stop-color="#3e4c59"/>
    </linearGradient>
    <linearGradient id="linear-gradient-3" x1="108.7153" y1="396.57401" x2="452.05802" y2="396.57401" gradientUnits="userSpaceOnUse">
      <stop offset="0" stop-color="#5b6f82"/>
      <stop offset="1" stop-color="#849bb2"/>
    </linearGradient>
    <linearGradient id="linear-gradient-4" x1="470.43173" y1="293.55566" x2="96.53471" y2="496.23446" gradientUnits="userSpaceOnUse">
      <stop offset="0" stop-color="#62778c"/>
      <stop offset="1" stop-color="#435466"/>
    </linearGradient>
    <linearGradient id="linear-gradient-5" x1="403.39231" y1="325.80962" x2="264.91399" y2="400.87473" xlink:href="#linear-gradient-4"/>
    <linearGradient id="linear-gradient-6" x1="291.9235" y1="390.16205" x2="153.44519" y2="465.22716" xlink:href="#linear-gradient-4"/>
    <linearGradient id="linear-gradient-7" x1="110.8035" y1="333.47574" x2="286.20775" y2="569.39063" gradientUnits="userSpaceOnUse">
      <stop offset="0.00005" stop-color="#ffcb48"/>
      <stop offset="1" stop-color="#e68e2b"/>
    </linearGradient>
    <linearGradient id="linear-gradient-8" x1="288.53237" y1="230.83251" x2="463.93662" y2="466.74741" xlink:href="#linear-gradient-7"/>
    <linearGradient id="linear-gradient-9" x1="-100.33491" y1="240.47671" x2="463.48386" y2="240.47671" xlink:href="#linear-gradient-3"/>
    <linearGradient id="linear-gradient-10" x1="78.57042" y1="443.38731" x2="89.42402" y2="443.38731" gradientTransform="translate(425.98329 148.94993) rotate(60)" xlink:href="#linear-gradient-4"/>
    <linearGradient id="linear-gradient-11" x1="82.67297" y1="452.23325" x2="152.80063" y2="542.78644" gradientTransform="matrix(-1, 0, 0, 1, 619.809, 0)" gradientUnits="userSpaceOnUse">
      <stop offset="0" stop-color="#849bb2"/>
      <stop offset="1" stop-color="#5b6f82"/>
    </linearGradient>
    <linearGradient id="linear-gradient-12" x1="131.37488" y1="392.87444" x2="131.37488" y2="549.73684" gradientTransform="matrix(-1, 0, 0, 1, 619.809, 0)" gradientUnits="userSpaceOnUse">
      <stop offset="0" stop-color="#62788c"/>
      <stop offset="1" stop-color="#526575"/>
    </linearGradient>
    <linearGradient id="linear-gradient-13" x1="136.84193" y1="482.43642" x2="300.24619" y2="658.096" xlink:href="#linear-gradient-12"/>
    <linearGradient id="linear-gradient-14" x1="-102.89551" y1="488.25208" x2="489.1896" y2="600.08187" xlink:href="#linear-gradient-11"/>
    <linearGradient id="linear-gradient-15" x1="236.93516" y1="419.82631" x2="231.82878" y2="560.25184" xlink:href="#linear-gradient-12"/>
    <linearGradient id="linear-gradient-16" x1="229.98897" y1="419.57372" x2="224.88259" y2="559.99925" xlink:href="#linear-gradient-12"/>
    <linearGradient id="linear-gradient-17" x1="203.47235" y1="417.32864" x2="218.02554" y2="690.00949" xlink:href="#linear-gradient-11"/>
    <linearGradient id="linear-gradient-18" x1="51.3084" y1="361.79783" x2="265.71038" y2="572.80737" gradientTransform="matrix(-1, 0, 0, 1, 619.809, 0)" xlink:href="#linear-gradient-4"/>
    <linearGradient id="linear-gradient-19" x1="351.22565" y1="509.81061" x2="351.22565" y2="597.32381" xlink:href="#linear-gradient-12"/>
    <linearGradient id="linear-gradient-20" x1="321.60699" y1="411.0237" x2="336.16018" y2="683.70455" xlink:href="#linear-gradient-11"/>
    <linearGradient id="linear-gradient-21" x1="173.54424" y1="432.33635" x2="387.94621" y2="643.34589" gradientTransform="matrix(-1, 0, 0, 1, 619.809, 0)" xlink:href="#linear-gradient-4"/>
    <linearGradient id="linear-gradient-22" x1="282.60148" y1="597.41643" x2="398.00574" y2="659.7143" xlink:href="#linear-gradient-11"/>
    <linearGradient id="linear-gradient-23" x1="327.47657" y1="656.32091" x2="454.49659" y2="656.32091" xlink:href="#linear-gradient-12"/>
    <linearGradient id="linear-gradient-24" x1="447.32407" y1="632.11306" x2="453.32407" y2="632.11306" gradientTransform="matrix(-1, 0, 0, 1, 619.809, 0)" gradientUnits="userSpaceOnUse">
      <stop offset="0" stop-color="#3e4c59"/>
      <stop offset="1" stop-color="#293440"/>
    </linearGradient>
    <linearGradient id="linear-gradient-25" x1="339.11484" y1="658.02457" x2="457.81227" y2="658.02457" xlink:href="#linear-gradient-24"/>
    <linearGradient id="linear-gradient-26" x1="78.01658" y1="611.05605" x2="299.47158" y2="611.05605" xlink:href="#linear-gradient-24"/>
    <linearGradient id="linear-gradient-27" x1="345.11483" y1="687.00214" x2="454.49667" y2="687.00214" xlink:href="#linear-gradient-24"/>
    <linearGradient id="linear-gradient-28" x1="419.46813" y1="219.33233" x2="514.66378" y2="219.33233" gradientUnits="userSpaceOnUse">
      <stop offset="0" stop-color="#e4edf2"/>
      <stop offset="1" stop-color="#c3d6e6"/>
    </linearGradient>
    <linearGradient id="linear-gradient-29" x1="506.44457" y1="228.76719" x2="506.44457" y2="560.82557" gradientUnits="userSpaceOnUse">
      <stop offset="0" stop-color="#fff"/>
      <stop offset="0.56988" stop-color="#fff" stop-opacity="0"/>
    </linearGradient>
    <linearGradient id="linear-gradient-30" x1="440.55055" y1="181.7807" x2="478.17311" y2="241.34976" xlink:href="#linear-gradient-4"/>
    <linearGradient id="linear-gradient-31" x1="456.06516" y1="171.982" x2="493.68772" y2="231.55106" xlink:href="#linear-gradient-4"/>
    <linearGradient id="linear-gradient-32" x1="785.08928" y1="712.96733" x2="844.37125" y2="712.96733" gradientTransform="matrix(1, 0, 0, 1, 0, 0)" xlink:href="#linear-gradient-24"/>
    <linearGradient id="linear-gradient-33" x1="789.28346" y1="656.85899" x2="848.68771" y2="714.05047" xlink:href="#linear-gradient-7"/>
    <linearGradient id="linear-gradient-34" x1="-6266.27254" y1="1778.55409" x2="-6233.57674" y2="1792.14002" gradientTransform="matrix(-0.94085, 0.33882, 0.33882, 0.94085, -5650.97643, 968.42714)" gradientUnits="userSpaceOnUse">
      <stop offset="0" stop-color="#f2883c"/>
      <stop offset="0.16716" stop-color="#e97d35"/>
      <stop offset="0.67368" stop-color="#d26124"/>
      <stop offset="0.96784" stop-color="#c9571e"/>
    </linearGradient>
    <linearGradient id="linear-gradient-35" x1="1023.86328" y1="-918.66056" x2="999.22946" y2="-902.9845" gradientTransform="translate(-436.93855 1049.03115) rotate(21.53204)" xlink:href="#linear-gradient-34"/>
    <linearGradient id="linear-gradient-36" x1="867.59692" y1="533.55264" x2="826.24196" y2="570.72731" gradientTransform="matrix(1, 0, 0, 1, 0, 0)" xlink:href="#linear-gradient-34"/>
    <linearGradient id="linear-gradient-37" x1="258.01735" y1="1526.73079" x2="224.35455" y2="1548.15257" gradientTransform="translate(168.14638 -842.95413) rotate(-16.16083)" xlink:href="#linear-gradient-34"/>
    <linearGradient id="linear-gradient-38" x1="791.85607" y1="506.12842" x2="812.16031" y2="545.09464" gradientTransform="matrix(1, 0, 0, 1, 0, 0)" xlink:href="#linear-gradient-34"/>
    <linearGradient id="linear-gradient-39" x1="76.7809" y1="1831.60998" x2="100.29306" y2="1876.73257" gradientTransform="translate(31.2184 -1137.85001) rotate(-21.26361)" xlink:href="#linear-gradient-34"/>
    <linearGradient id="linear-gradient-40" x1="875.43157" y1="-1492.83482" x2="908.12737" y2="-1479.24889" gradientTransform="matrix(0.87147, 0.49044, -0.49044, 0.87147, -715.38811, 1398.16327)" xlink:href="#linear-gradient-34"/>
    <linearGradient id="linear-gradient-41" x1="572.91007" y1="810.0592" x2="551.54185" y2="847.4128" gradientTransform="matrix(1.03159, -0.09458, 0.10022, 1.01436, 163.78556, -272.04814)" xlink:href="#linear-gradient-34"/>
    <linearGradient id="linear-gradient-42" x1="-597.82345" y1="2523.36613" x2="-628.13468" y2="2542.6551" gradientTransform="translate(-170.03778 -1867.34229) rotate(-35.91139)" xlink:href="#linear-gradient-34"/>
    <linearGradient id="linear-gradient-43" x1="-6821.73788" y1="-728.99968" x2="-6849.64972" y2="-711.2376" gradientTransform="matrix(-0.94244, -0.33439, -0.33439, 0.94244, -5876.52717, -1047.59137)" xlink:href="#linear-gradient-34"/>
    <linearGradient id="linear-gradient-44" x1="3225.60873" y1="694.24775" x2="3229.29037" y2="694.24775" gradientTransform="matrix(-0.04492, -0.99899, -0.99899, 0.04492, 1682.04192, 3887.25353)" xlink:href="#linear-gradient-24"/>
    <linearGradient id="linear-gradient-45" x1="784.02348" y1="694.24775" x2="787.70512" y2="694.24775" gradientTransform="translate(31.89345 -34.51188) rotate(2.56788)" xlink:href="#linear-gradient-24"/>
    <linearGradient id="linear-gradient-46" x1="813.73442" y1="710.34248" x2="815.73442" y2="710.34248" gradientTransform="matrix(1, 0, 0, 1, 0, 0)" xlink:href="#linear-gradient-24"/>
    <linearGradient id="linear-gradient-47" x1="783.40458" y1="679.51863" x2="846.06462" y2="679.51863" gradientTransform="matrix(1, 0, 0, 1, 0, 0)" xlink:href="#linear-gradient-24"/>
    <linearGradient id="linear-gradient-48" x1="624.7103" y1="369.86771" x2="939.80222" y2="369.86771" gradientUnits="userSpaceOnUse">
      <stop offset="0" stop-color="#748ea6"/>
      <stop offset="1" stop-color="#96b1cc"/>
    </linearGradient>
    <linearGradient id="linear-gradient-49" x1="660.40426" y1="336.17632" x2="839.33245" y2="336.17632" xlink:href="#linear-gradient-48"/>
    <linearGradient id="linear-gradient-50" x1="646.87988" y1="326.73015" x2="844.34009" y2="326.73015" gradientUnits="userSpaceOnUse">
      <stop offset="0" stop-color="#e68e2b"/>
      <stop offset="0.99995" stop-color="#ffcb48"/>
    </linearGradient>
    <linearGradient id="linear-gradient-51" x1="72.43084" y1="7593.95311" x2="72.43084" y2="7681.07938" gradientTransform="translate(8429.12139 532.87066) rotate(92.0117)" xlink:href="#linear-gradient-4"/>
    <linearGradient id="linear-gradient-52" x1="732.0386" y1="299.26975" x2="759.9535" y2="375.18464" xlink:href="#linear-gradient-4"/>
    <linearGradient id="linear-gradient-53" x1="735.01607" y1="307.367" x2="756.80647" y2="366.62627" gradientUnits="userSpaceOnUse">
      <stop offset="0" stop-color="#96b1cc"/>
      <stop offset="1" stop-color="#748ea6"/>
    </linearGradient>
    <linearGradient id="linear-gradient-54" x1="838.38951" y1="392.64091" x2="913.41602" y2="392.64091" xlink:href="#linear-gradient-4"/>
    <linearGradient id="linear-gradient-55" x1="577.80326" y1="392.64091" x2="652.82976" y2="392.64091" xlink:href="#linear-gradient-4"/>
    <linearGradient id="linear-gradient-56" x1="-67.95338" y1="669.03757" x2="598.5034" y2="818.63204" gradientTransform="matrix(-1, 0, 0, 1, 683.9793, 0)" gradientUnits="userSpaceOnUse">
      <stop offset="0.00005" stop-color="#ffb348"/>
      <stop offset="1" stop-color="#e68e2b"/>
    </linearGradient>
    <linearGradient id="linear-gradient-57" x1="191.37114" y1="719.35849" x2="274.16578" y2="757.18561" gradientTransform="matrix(-1, 0, 0, 1, 683.9793, 0)" xlink:href="#linear-gradient-24"/>
    <linearGradient id="linear-gradient-58" x1="-10.94997" y1="602.55091" x2="72.66083" y2="640.75091" gradientTransform="matrix(-1, 0, 0, 1, 683.9793, 0)" xlink:href="#linear-gradient-24"/>
    <linearGradient id="linear-gradient-59" x1="-1.14373" y1="601.99489" x2="289.68463" y2="734.86822" gradientTransform="matrix(-1, 0, 0, 1, 683.9793, 0)" xlink:href="#linear-gradient-24"/>
    <linearGradient id="linear-gradient-60" x1="-5.25364" y1="610.99052" x2="285.57472" y2="743.86384" gradientTransform="matrix(-1, 0, 0, 1, 683.9793, 0)" xlink:href="#linear-gradient-24"/>
    <linearGradient id="linear-gradient-61" x1="-15.40953" y1="670.19219" x2="281.27132" y2="670.19219" gradientTransform="matrix(-1, 0, 0, 1, 683.9793, 0)" gradientUnits="userSpaceOnUse">
      <stop offset="0" stop-color="#526575"/>
      <stop offset="1" stop-color="#62788c"/>
    </linearGradient>
    <linearGradient id="linear-gradient-62" x1="-15.40952" y1="641.5388" x2="281.2713" y2="641.5388" gradientTransform="matrix(-1, 0, 0, 1, 683.9793, 0)" xlink:href="#linear-gradient-53"/>
    <linearGradient id="linear-gradient-63" x1="152.17883" y1="417.44742" x2="77.77097" y2="533.01707" xlink:href="#linear-gradient-7"/>
    <linearGradient id="linear-gradient-64" x1="173.45548" y1="405.5417" x2="155.32782" y2="436.30766" gradientUnits="userSpaceOnUse">
      <stop offset="0" stop-color="#75413e"/>
      <stop offset="0.98888" stop-color="#5b3c39"/>
    </linearGradient>
    <linearGradient id="linear-gradient-65" x1="159.72058" y1="397.44894" x2="141.59292" y2="428.2149" xlink:href="#linear-gradient-64"/>
    <linearGradient id="linear-gradient-66" x1="192.88508" y1="443.65555" x2="118.47722" y2="559.22521" xlink:href="#linear-gradient-7"/>
    <linearGradient id="linear-gradient-67" x1="204.71124" y1="451.26965" x2="130.30338" y2="566.83931" xlink:href="#linear-gradient-7"/>
  </defs>
  <g>
    <g>
      <polygon class="cls-1" points="475.123 80.553 881.769 315.321 881.769 710.538 475.123 475.747 475.123 80.553"/>
      <polygon class="cls-2" points="475.138 80.553 68.492 315.321 68.492 710.538 475.138 475.747 475.138 80.553"/>
    </g>
    <path class="cls-3" d="M75.50931,722.70353l378.58058,218.564a42.10144,42.10144,0,0,0,42.10111-.00061L874.75219,722.69946a14.03381,14.03381,0,0,0,.00017-24.307L496.1746,479.8085a42.10144,42.10144,0,0,0-42.10407.00052L75.50848,698.39647A14.03381,14.03381,0,0,0,75.50931,722.70353Z"/>
    <path class="cls-4" d="M175.67184,780.52984c26.25141-5.69079,44.932-20.24817,44.932-37.32684,0-22.03705-31.08441-39.90155-69.429-39.90155-29.60553,0-54.85632,10.65619-64.83581,25.65436Z"/>
  </g>
  <g>
    <g>
      <path class="cls-5" d="M455.89948,462.18518,112.55041,660.41477l-11.46524-6.61724V330.97342L444.43424,132.73233l11.46524-2.15873Z"/>
      <polygon class="cls-6" points="452.058 136.044 448.117 138.319 448.122 456.754 108.715 652.698 108.716 657.104 452.058 458.885 452.058 136.044"/>
      <path class="cls-7" d="M97.2273,327.65v349.352l366.319-211.48427V116.14516Zm11.48824,6.6326L452.058,136.04386l0,322.84091L108.71554,657.10416Z"/>
    </g>
    <polygon class="cls-8" points="336.653 521.107 331.653 523.994 331.653 205.578 336.653 202.691 336.653 521.107"/>
    <polygon class="cls-9" points="225.184 585.459 220.184 588.346 220.184 269.93 225.184 267.043 225.184 585.459"/>
    <g>
      <path class="cls-10" d="M280.90963,242.09875l-172.19409,99.549V655.05212a2.97179,2.97179,0,0,0,1.50513,2.60065l-.00025.00018,3.38843,1.94965-.40356-1.94727.01-.005,163.2008-94.20411a9,9,0,0,0,4.50073-7.79486l3.38392-311.60046Z"/>
      <path class="cls-11" d="M284.30789,557.60354l-.00712-313.55262-172.19412,99.549V657.00427a3,3,0,0,0,4.49976,2.59821l163.20076-94.2041A9,9,0,0,0,284.30789,557.60354Z"/>
      <g>
        <g class="cls-12">
          <polygon class="cls-10" points="133.918 649.582 131.619 650.909 131.619 332.318 133.918 330.99 133.918 649.582"/>
        </g>
        <g class="cls-12">
          <polygon class="cls-10" points="155.73 636.972 153.431 638.3 153.431 319.708 155.73 318.381 155.73 636.972"/>
        </g>
        <g class="cls-12">
          <polygon class="cls-10" points="177.542 624.363 175.242 625.69 175.242 307.099 177.542 305.771 177.542 624.363"/>
        </g>
        <g class="cls-12">
          <polygon class="cls-10" points="199.353 611.753 197.054 613.081 197.054 294.489 199.353 293.162 199.353 611.753"/>
        </g>
        <g class="cls-12">
          <polygon class="cls-10" points="221.165 599.143 218.866 600.471 218.866 281.88 221.165 280.552 221.165 599.143"/>
        </g>
        <g class="cls-12">
          <polygon class="cls-10" points="242.977 586.534 240.677 587.861 240.677 269.27 242.977 267.942 242.977 586.534"/>
        </g>
        <g class="cls-12">
          <polygon class="cls-10" points="264.788 573.924 262.489 575.252 262.489 256.66 264.788 255.333 264.788 573.924"/>
        </g>
      </g>
    </g>
    <g>
      <path class="cls-10" d="M458.6385,139.45553l-172.19409,99.549V552.4089a2.97179,2.97179,0,0,0,1.50513,2.60065l-.00025.00018,3.38843,1.94965-.40357-1.94727.01-.005L454.145,460.803a9,9,0,0,0,4.50073-7.79486l3.38391-311.60046Z"/>
      <path class="cls-13" d="M462.03675,454.96032l-.00711-313.55262-172.19412,99.549V554.361a3,3,0,0,0,4.49976,2.59822L457.536,462.75516A9,9,0,0,0,462.03675,454.96032Z"/>
      <g>
        <g class="cls-12">
          <polygon class="cls-10" points="311.647 546.939 309.348 548.266 309.348 229.675 311.647 228.347 311.647 546.939"/>
        </g>
        <g class="cls-12">
          <polygon class="cls-10" points="333.459 534.329 331.16 535.656 331.16 217.065 333.459 215.738 333.459 534.329"/>
        </g>
        <g class="cls-12">
          <polygon class="cls-10" points="355.271 521.719 352.971 523.047 352.971 204.456 355.271 203.128 355.271 521.719"/>
        </g>
        <g class="cls-12">
          <polygon class="cls-10" points="377.082 509.11 374.783 510.437 374.783 191.846 377.082 190.518 377.082 509.11"/>
        </g>
        <g class="cls-12">
          <polygon class="cls-10" points="398.894 496.5 396.595 497.828 396.595 179.236 398.894 177.909 398.894 496.5"/>
        </g>
        <g class="cls-12">
          <polygon class="cls-10" points="420.706 483.891 418.406 485.218 418.406 166.627 420.706 165.299 420.706 483.891"/>
        </g>
        <g class="cls-12">
          <polygon class="cls-10" points="442.517 471.281 440.218 472.609 440.218 154.017 442.517 152.69 442.517 471.281"/>
        </g>
      </g>
    </g>
    <g>
      <path class="cls-14" d="M459.5613,132.71838v6.03443l-14.83478,8.56338V140.397a3.3619,3.3619,0,0,1,1.68116-2.91161l10.70617-6.18013A1.6317,1.6317,0,0,1,459.5613,132.71838Z"/>
      <path class="cls-15" d="M117.15705,330.67011v6.03443l-14.83479,8.56337v-6.91922a3.36191,3.36191,0,0,1,1.68117-2.91162l10.70616-6.18012A1.63171,1.63171,0,0,1,117.15705,330.67011Z"/>
      <path class="cls-16" d="M467.29684,139.26274,104.67061,348.66782l-3.92587-6.79981L463.38416,132.45532l.00179.00311a1.97732,1.97732,0,0,1,1.95073.20782,6.13759,6.13759,0,0,1,2.78518,4.8041A1.92629,1.92629,0,0,1,467.29684,139.26274Z"/>
      <ellipse class="cls-15" cx="102.70768" cy="345.26791" rx="2.26305" ry="3.92587" transform="translate(-158.87374 97.61097) rotate(-30)"/>
    </g>
  </g>
  <path class="cls-17" d="M71.32959,436.31778l.00081,25.71746a2.27676,2.27676,0,0,0,3.41515,1.97168l16.42481-9.48287a6.8303,6.8303,0,0,0,3.41515-5.91536l-.00081-25.71746a2.27677,2.27677,0,0,0-3.41515-1.97169l-16.42481,9.48287A6.8303,6.8303,0,0,0,71.32959,436.31778Z"/>
  <ellipse class="cls-18" cx="83.99722" cy="443.38731" rx="7.68067" ry="4.42749" transform="matrix(0.5, -0.86603, 0.86603, 0.5, -341.98606, 294.43738)"/>
  <path class="cls-19" d="M440.00808,487.92407l137.27578,79.24066a8.899,8.899,0,0,1,.003,15.41232h0l-277.045,160.03586a26.69619,26.69619,0,0,1-26.70324.002L136.20213,663.31915Z"/>
  <g>
    <g>
      <g>
        <path class="cls-20" d="M579.83415,494.7461v69.83a8.734,8.734,0,0,1-4.4,7.59l-14.97,8.56-3.29,1.89a1.09158,1.09158,0,0,1-.15.08,9.838,9.838,0,0,1-5.08,1.22v-73.22a18.95779,18.95779,0,0,0-9.49-16.42l-117.53-67.62006,27.9-15.94995,117.53,67.62A18.93649,18.93649,0,0,1,579.83415,494.7461Z"/>
        <path class="cls-21" d="M551.94413,510.69611v73.22a9.90049,9.90049,0,0,1-5.07-1.57l-1.7-1.09-120.25-77.28v-77.32l117.53,67.62006A18.95779,18.95779,0,0,1,551.94413,510.69611Z"/>
      </g>
      <path class="cls-22" d="M541.81241,579.0859l-237.12,136.65-117.1-75.68,46.62-26.9,190.59-109.98,113.09,13.25a18.20289,18.20289,0,0,1,1.31,1.97,19.30283,19.30283,0,0,1,2.59,9.67Z"/>
      <path class="cls-23" d="M539.20242,518.3959l-234.54,135.44-70.45-40.68-35.48-20.49,237.22-136.88,94.36,54.49,1.84,1.06.01.01a19.17584,19.17584,0,0,1,5.73,5.08A18.20289,18.20289,0,0,1,539.20242,518.3959Z"/>
      <polygon class="cls-24" points="350.411 547.513 419.705 587.408 425.943 583.806 357.718 543.266 350.411 547.513"/>
      <path class="cls-25" d="M459.78684,414.811l-.60882-.69659a27.46707,27.46707,0,0,0-17.43537-9.2l-13.62683-1.62207a17.12743,17.12743,0,0,0-10.45611,2.099l-80.08656,46.11494a31.42526,31.42526,0,0,0-14.8349,34.621l13.84545,57.13879,26.284,3.06Z"/>
      <path class="cls-26" d="M362.86775,546.32619l-13.84546-57.1388a31.42521,31.42521,0,0,1,14.8349-34.621l74.60742-43.0251a17.23788,17.23788,0,0,1,25.3682,10.87012l13.96295,57.62352Z"/>
      <polygon class="cls-27" points="362.868 546.326 477.796 480.035 475.615 471.038 360.692 537.351 362.868 546.326"/>
      <path class="cls-28" d="M337.551,485.34955l-.60883-.69659a27.467,27.467,0,0,0-17.43536-9.2L305.88,473.83093a17.1276,17.1276,0,0,0-10.45612,2.099l-80.08656,46.115a31.42529,31.42529,0,0,0-14.8349,34.621l13.84546,57.13878Z"/>
      <path class="cls-29" d="M240.63192,616.86472l-13.84546-57.1388a31.42521,31.42521,0,0,1,14.8349-34.621l74.60742-43.0251a17.23788,17.23788,0,0,1,25.3682,10.87012l13.96294,57.62352Z"/>
      <polygon class="cls-30" points="240.632 616.865 355.56 550.573 353.379 541.577 238.456 607.889 240.632 616.865"/>
      <path class="cls-31" d="M320.22244,645.54592v69.85a8.72811,8.72811,0,0,1-4.38,7.57l-.52.29-15.96,9.13c-.01.01-.02.01-.03.02a14.1689,14.1689,0,0,1-7,1.84v-72.75a18.97011,18.97011,0,0,0-9.49-16.42l-115.91-66.68a12.10137,12.10137,0,0,1,4.36-4.46.00979.00979,0,0,1,.01-.01l6.9-4.08,22.3-13.18,2.54,10.5,107.69995,61.96A18.93647,18.93647,0,0,1,320.22244,645.54592Z"/>
      <path class="cls-32" d="M292.33243,661.49593v72.75a14.03268,14.03268,0,0,1-6.93-1.83l-13.2-7.59-99.61-57.31a14.55618,14.55618,0,0,1-7.28-12.6v-70.43a12.29361,12.29361,0,0,1,1.62-6.09l115.91,66.68A18.97011,18.97011,0,0,1,292.33243,661.49593Z"/>
      <path class="cls-33" d="M172.48494,594.98092v72.535c0,.95508-1.34327,1.72931-3,1.72931s-3-.77423-3-1.72931v-72.535Z"/>
      <path class="cls-34" d="M165.31232,584.5911l0,0v4.52808l105.21094,60.52606a20.38691,20.38691,0,0,1,10.17089,17.59961v62.48384c0,.95508-1.343,1.72937-3,1.72937-1.65673,0-3-.77429-3-1.72937V667.24484a14.36689,14.36689,0,0,0-7.167-12.40137L165.31233,596.04165l-.00625-.00359A6.60092,6.60092,0,0,1,165.31232,584.5911Z"/>
      <polygon class="cls-35" points="541.792 551.118 320.337 678.846 320.337 670.994 541.792 543.266 541.792 551.118"/>
    </g>
    <path class="cls-36" d="M172.59236,660.34565l99.61011,57.31,2.4917,1.43274v7.17023l-2.4917-1.43274-99.61011-57.31a14.55618,14.55618,0,0,1-7.28-12.6v-7.17023A14.55621,14.55621,0,0,0,172.59236,660.34565Z"/>
  </g>
  <g>
    <circle class="cls-37" cx="467.06596" cy="219.33233" r="47.59782"/>
    <polygon class="cls-38" points="771.105 646.851 241.784 646.851 241.784 528.09 435.381 222.942 498.761 222.942 625.381 420.03 629.188 425.941 771.105 646.851"/>
    <g>
      <circle class="cls-17" cx="467.06596" cy="234.99358" r="14.18311"/>
      <path class="cls-39" d="M498.75961,222.94367c0,10.05973-14.18973,18.21475-31.69365,18.21475s-31.69366-8.155-31.69366-18.21475,31.69366-18.929,31.69366-18.929S498.75961,212.884,498.75961,222.94367Z"/>
    </g>
    <rect class="cls-40" x="465.05046" y="171.73451" width="4.03099" height="35.33083"/>
  </g>
  <g>
    <g class="cls-41">
      <ellipse class="cls-19" cx="814.7303" cy="711.99222" rx="27.94426" ry="16.05992"/>
    </g>
    <g>
      <path class="cls-42" d="M814.73033,699.11446c14.34209,0,26.45876,6.34385,26.45876,13.8529,0,7.509-12.11667,13.85284-26.45876,13.85284-14.34222,0-26.4589-6.34385-26.4589-13.85284,0-7.50905,12.11668-13.8529,26.4589-13.8529m0-3.18215c-16.3703,0-29.641,7.62682-29.641,17.035,0,9.40817,13.27075,17.035,29.641,17.035,16.37016,0,29.64092-7.62682,29.64092-17.035,0-9.40823-13.27076-17.035-29.64092-17.035Z"/>
      <g>
        <g>
          <path class="cls-43" d="M786.786,657.35388v43.57447c0,8.86969,12.51123,16.06,27.94434,16.06,15.43322,0,27.94433-7.1903,27.94433-16.06V657.35388Z"/>
          <ellipse class="cls-10" cx="814.7303" cy="657.35393" rx="27.94426" ry="16.05992"/>
          <path class="cls-44" d="M838.9746,665.33291c-4.82258,4.84516-13.885,8.07532-24.24871,8.07532s-19.42558-3.23016-24.24871-8.07532c3.07339-6.01166,12.76346-10.40831,24.24871-10.40831S835.90121,659.32125,838.9746,665.33291Z"/>
          <path class="cls-45" d="M814.73033,644.294c13.52111,0,24.94421,5.98071,24.94421,13.05993s-11.4231,13.05988-24.94421,13.05988c-13.52125,0-24.94434-5.98071-24.94434-13.05988S801.20908,644.294,814.73033,644.294m0-3c-15.43323,0-27.94434,7.19024-27.94434,16.05993,0,8.86963,12.51111,16.05988,27.94434,16.05988,15.4331,0,27.94421-7.19025,27.94421-16.05988,0-8.86969-12.51111-16.05993-27.94421-16.05993Z"/>
        </g>
        <g>
          <path class="cls-46" d="M823.31184,542.23965c10.27342-3.82415,30.20007-14.81552,24.20314-21.78945S822.60648,526.56558,823.31184,542.23965Z"/>
          <path class="cls-44" d="M812.63078,663.15756c-.57,0-1.268-.94038-1.268-2.03785,0-53.61358-4.83087-88.51461-16.70718-116.823a3.37389,3.37389,0,0,1,.15429-2.793c.44333-.69143,1.09249-.55911,1.45127.29706,12.197,29.07372,17.40145,64.77244,17.40145,119.37062C813.66263,662.269,813.20077,663.15756,812.63078,663.15756Z"/>
          <path class="cls-44" d="M817.25847,663.15756c-.57,0-1.03185-.88861-1.03185-1.98608,0-50.49631,0-119.65471,13.174-151.057.35844-.85618,1.00794-.9872,1.45094-.29707a3.3727,3.3727,0,0,1,.15463,2.793c-12.71582,30.31128-12.71582,98.65631-12.71582,148.56108C818.29033,662.269,817.82847,663.15756,817.25847,663.15756Z"/>
          <path class="cls-44" d="M817.74358,608.95113c-.53193,0-.98335-.78612-1.02748-1.82391-1.71134-40.383-6.25718-67.83-14.30622-86.37535a3.385,3.385,0,0,1,.13-2.79815c.43794-.7044,1.08845-.58894,1.45329.25037,8.33572,19.20562,13.03181,47.3596,14.77987,88.59882.04615,1.09357-.37663,2.05353-.94461,2.14174A.47245.47245,0,0,1,817.74358,608.95113Z"/>
        </g>
        <path class="cls-44" d="M817.25948,624.66206a.52446.52446,0,0,1-.07445-.00476c-.56865-.0715-.79917-.97985-.7584-1.9844,1.28418-31.77955,9.09445-65.29259,21.9147-67.92371.56326-.11678,1.078.60058,1.1437,1.60155.06569,1.00216-.33991,1.9078-.90587,2.02339-11.70517,2.40232-19.068,34.313-20.29153,64.59344C818.24889,623.92921,817.79579,624.66206,817.25948,624.66206Z"/>
        <path class="cls-47" d="M824.16829,577.05971c10.16466,2.53688,31.575,2.65046,30.61627-6.08738S832.08193,564.32315,824.16829,577.05971Z"/>
        <path class="cls-48" d="M827.92011,570.50326c17.08455-4.57709,48.78844-21.93977,40.21853-34.05556S829.17561,545.21912,827.92011,570.50326Z"/>
        <path class="cls-49" d="M815.80275,582.77185c13.111-5.7497,36.35769-23.516,28.02018-32.16342S813.71821,562.38728,815.80275,582.77185Z"/>
        <path class="cls-50" d="M812.00023,548.05036c-12.41352-9.28868-32.56114-33.74365-21.641-40.81312S819.21238,527.06429,812.00023,548.05036Z"/>
        <path class="cls-51" d="M806.36691,578.00261c-17.297-4.81082-49.30951-22.74048-40.49385-34.95552S805.33671,552.32652,806.36691,578.00261Z"/>
        <path class="cls-52" d="M799.37176,553.81916c-9.49519-5.478-27.31852-19.62761-20.24616-25.50815S802.67171,538.48018,799.37176,553.81916Z"/>
        <path class="cls-53" d="M818.55059,537.73807c12.14387-10.83616,31.84359-35.50284,19.59867-41.78006S808.79114,516.666,818.55059,537.73807Z"/>
        <path class="cls-54" d="M814.00644,561.0686c9.36164-8.86212,23.65646-30.992,13.95945-35.78344S806.03722,544.42764,814.00644,561.0686Z"/>
        <path class="cls-55" d="M815.54981,573.48813c-10.57167-5.39906-28.94632-21.2392-21.62312-27.98995S818.27014,556.71711,815.54981,573.48813Z"/>
      </g>
      <rect class="cls-56" x="824.72776" y="693.24772" width="37.57777" height="2.00007" transform="translate(112.07858 1505.72704) rotate(-87.42538)"/>
      <rect class="cls-57" x="784.86427" y="675.45887" width="2.00007" height="37.57777" transform="translate(-30.31519 35.90614) rotate(-2.56788)"/>
      <rect class="cls-58" x="813.73442" y="691.70429" width="2" height="37.27637"/>
      <path class="cls-59" d="M842.6746,666.44361v7.77a3.429,3.429,0,0,1,0,.74c-.38,7.78-13.02,14.28-27.93994,14.28-14.92,0-27.57007-6.5-27.95007-14.28a3.44956,3.44956,0,0,1,0-.74v-7.76a11.47968,11.47968,0,0,0,0,16.27c5.16,5.86,15.74011,9.87,27.95007,9.87,12.2,0,22.77-4.01,27.93994-9.86005a11.47974,11.47974,0,0,0,0-16.29Z"/>
    </g>
  </g>
  <g>
    <g>
      <g>
        <path class="cls-60" d="M745.60962,143.77129a191.74718,191.74718,0,1,1-74.88745,15.11279,191.1823,191.1823,0,0,1,74.88745-15.11279m0-17.54248c-115.95068,0-209.94751,93.99658-209.94751,209.94775,0,115.95068,93.99683,209.94727,209.94751,209.94727s209.94751-93.99659,209.94751-209.94727c0-115.95117-93.99683-209.94775-209.94751-209.94775Z"/>
        <circle class="cls-1" cx="745.60964" cy="336.17634" r="194.19259"/>
        <path class="cls-61" d="M624.7103,462.53869l59.994,58.07421a193.98482,193.98482,0,0,0,60.90544,9.75595c107.2495,0,194.19253-86.94292,194.19253-194.19254a193.96854,193.96854,0,0,0-10.0168-61.7088L865.88,209.36658Z"/>
      </g>
      <rect class="cls-17" x="614.32653" y="204.89323" width="262.56622" height="262.56622" rx="25.40683"/>
      <g>
        <circle class="cls-60" cx="925.95928" cy="221.07633" r="62.02326"/>
        <g>
          <rect class="cls-17" x="904.90249" y="212.4341" width="13.46241" height="40.4658" transform="translate(102.49091 712.76896) rotate(-45)"/>
          <rect class="cls-17" x="931.11332" y="195.25323" width="13.46241" height="60.59444" transform="translate(1441.51249 1048.19493) rotate(-135)"/>
        </g>
      </g>
    </g>
    <path class="cls-62" d="M745.60962,237.44682a98.7295,98.7295,0,1,0,98.72974,98.7295A98.72941,98.72941,0,0,0,745.60962,237.44682Zm0,177.82862a79.09912,79.09912,0,1,1,79.09912-79.09912A79.099,79.099,0,0,1,745.60962,415.27544Z"/>
    <path class="cls-63" d="M844.34009,336.18022c0,.7-.01,1.3999-.02,2.09986H824.67993q.03-1.04994.03-2.09986a79.1,79.1,0,1,0-127.01,62.93994L687.53,416.01006a98.72679,98.72679,0,1,1,156.81006-79.82984Z"/>
    <path class="cls-64" d="M835.13436,335.69985l-68.559-16.3619-20.96572,16.12259,19.78282,17.55415,69.53808-11.51141A2.96206,2.96206,0,0,0,835.13436,335.69985Z"/>
    <path class="cls-65" d="M804.772,415.22221,794.3833,398.42363a79.02871,79.02871,0,0,1-96.67627.68457l-10.17944,16.90527a98.74111,98.74111,0,0,0,117.24438-.79126Z"/>
    <circle class="cls-66" cx="745.60964" cy="336.17634" r="42.56481"/>
    <circle class="cls-67" cx="745.60964" cy="336.17634" r="33.22615"/>
    <g>
      <circle class="cls-68" cx="875.90276" cy="392.64091" r="37.51325"/>
      <polygon class="cls-17" points="894.916 386.493 882.051 386.493 882.051 373.628 869.755 373.628 869.755 386.493 856.889 386.493 856.889 398.789 869.755 398.789 869.755 411.654 882.051 411.654 882.051 398.789 894.916 398.789 894.916 386.493"/>
    </g>
    <g>
      <circle class="cls-69" cx="615.31651" cy="392.64091" r="37.51325"/>
      <rect class="cls-17" x="596.30317" y="386.49304" width="38.02667" height="12.29612"/>
    </g>
  </g>
  <g>
    <path class="cls-70" d="M346.20167,753.42362,619.63231,595.53476a27.95441,27.95441,0,0,1,27.95463-.00169l109.0445,62.94871a9.31814,9.31814,0,0,1,.0023,16.13869L483.24206,832.54637a27.95438,27.95438,0,0,1-27.9615.00229L346.20167,769.56251A9.31814,9.31814,0,0,1,346.20167,753.42362Z"/>
    <path class="cls-10" d="M402.39961,743.46379,602.38073,627.98737a15.7268,15.7268,0,0,1,15.7269-.001l82.3263,47.525a5.24226,5.24226,0,0,1,.00129,9.07941L500.4818,800.09476a15.72678,15.72678,0,0,1-15.73077.00128l-82.35142-47.55272A5.24227,5.24227,0,0,1,402.39961,743.46379Z"/>
    <g>
      <path class="cls-71" d="M492.89752,724.91654v69.14383a3,3,0,0,1-4.49938,2.59843l-76.37675-44.07194a9,9,0,0,1-4.50185-7.7953V680.02593"/>
      <path class="cls-72" d="M695.21862,608.109v69.14383a3,3,0,0,1-4.49938,2.59843l-79.378-45.80375a3,3,0,0,1-1.50062-2.59844V563.21835"/>
      <g>
        <g>
          <path class="cls-73" d="M404.838,677.81557v13.13708a4.88507,4.88507,0,0,0,2.46384,4.393l77.49114,44.748a14.71573,14.71573,0,0,0,8.10451,1.9606V658.1571Z"/>
          <path class="cls-74" d="M492.89752,658.1571v83.89716a14.74889,14.74889,0,0,0,6.69962-1.9606l195.29521-112.782a4.87969,4.87969,0,0,0,2.45334-4.38252h.0105V612.51794Z"/>
        </g>
        <g>
          <path class="cls-75" d="M699.38884,608.12491l-.00533,4.55385a5.07784,5.07784,0,0,1-2.5578,4.52579l-195.60485,112.992a15.38463,15.38463,0,0,1-15.38863.00126L405.2718,683.67925a5.07612,5.07612,0,0,1-2.56062-4.38962l-.0032-4.75807Z"/>
          <path class="cls-76" d="M405.27184,670.321,600.90373,557.356a15.38476,15.38476,0,0,1,15.38487-.00094l80.53585,46.49137a5.12825,5.12825,0,0,1,.00126,8.88195l-195.6048,112.992a15.38471,15.38471,0,0,1-15.38865.00126l-80.56042-46.51854A5.12825,5.12825,0,0,1,405.27184,670.321Z"/>
        </g>
      </g>
    </g>
  </g>
  <g>
    <path class="cls-77" d="M116.88082,730.0423s-2.11818,5.80088-.96008,9.39093,7.84558,4.85141,11.25438,1.572c2.94881-2.83692,2.55214-3.252,5.43821-7.40081,3.014-4.33271,8.20306-9.76169,8.66772-14.42642,1.0694-10.73558-13.2983-5.40522-13.2983-5.40522Z"/>
    <path class="cls-78" d="M115.59924,723.14035s-.8366,8.98244.3215,12.57249,7.84558,4.85141,11.25438,1.572c2.94881-2.83693,2.32312-3.74128,5.20919-7.89009,3.014-4.3327,7.235-8.79591,7.455-11.66422.82534-10.7571-11.8566-7.67814-11.8566-7.67814Z"/>
    <path class="cls-77" d="M132.66225,730.1238s.57283-5.91974-.60264-7.65647L124.757,711.67781l6.30561-.31378s4.40653,1.18544,6.44143,3.44334a8.59546,8.59546,0,0,1,2.37394,4.23207Z"/>
    <path class="cls-78" d="M117.42648,560.02346l.59372,84.21508c-3.32462,25.40959-2.20993,44.54421-1.89979,70.88546l-.52117,8.01643,13.801-1.23858s22.44415-99.91206,22.914-149.78241Z"/>
    <path class="cls-79" d="M117.42648,560.02346l-3.32458,79.14911c-.3738,16.2696,32.53365,17.81039,34.07722,4.512,0,0,3.66531-21.69474,4.13515-71.56509Z"/>
    <path class="cls-77" d="M157.3552,752.64045c-.98061.58882-2.81053,4.56361-1.89937,7.27959s3.5359,3.80482,7.10781,3.80482,6.93227-1.195,12.97274-1.74259c8.12527-.7366,12.62558.07916,17.82546-2.54707,6.68271-3.37514,3.53776-10.88282-1.98369-11.39068-1.67188-.15378-6.70908-.19969-6.70908-.19969l-12.924-3.343S158.33581,752.05163,157.3552,752.64045Z"/>
    <path class="cls-78" d="M158.16135,744.17188l.204-6.7877,14.00469-.21772-.20067,6.09241,13.03051,3.16263s4.564.30451,6.13556.44893c5.19048.47754,7.1488,5.98731.99962,9.40978-6.05563,3.3707-9.87321,2.12042-17.5111,2.813-5.67823.51455-8.08227,1.21939-11.44,1.21939s-5.82492-1.0232-6.68145-3.57642S158.16135,744.17188,158.16135,744.17188Z"/>
    <path class="cls-78" d="M186.02472,578.45607c0,45.90794-13.65464,158.71039-13.65464,158.71039l-14.13844,4.6671s-8.89595-45.18232-6.49044-78.59717l-5.85316-73.5422Z"/>
    <path class="cls-77" d="M117.42651,560.02341l2.0083-36.17265,64.76929,8.37745s1.82062,26.10755,1.82062,46.22786c0,17.00392-.56251,65.46594-.56251,65.46594-.27705,20.66-38.03509,21.05584-38.03509,1.74146L145.888,589.69419Z"/>
    <g>
      <path class="cls-78" d="M92.78463,460.93537l1.12092-9.42665a7.41186,7.41186,0,0,0-.27107-3.59274S90.43279,437.51748,87.46,437.4607s-6.12295,3.22111-6.49761,6.08684-.79582,7.90711.37833,11.54452a82.63244,82.63244,0,0,0,3.64564,8.68476S92.7379,464.7936,92.78463,460.93537Z"/>
      <path class="cls-78" d="M101.814,474.3374l-9.908-14.67061-8.47751.13534s4.25,23.40017,7.73885,29.89178c3.48884,6.49184,8.11665,11.48879,13.27925,8.86562,1.52453-.77478,19.24279-12.03645,19.24279-12.03645l5.11849-44.67491C115.2195,445.90554,102.01282,473.35348,101.814,474.3374Z"/>
      <path class="cls-80" d="M99.31928,475.27738c-5.9368,11.33928,5.89222,23.29878,13.53589,19.50368,1.53171-.76047,10.83417-8.258,10.83417-8.258l5.8579-45.211C115.09137,446.12771,99.31928,475.27738,99.31928,475.27738Z"/>
      <path class="cls-81" d="M119.91486,489.528c-.86805-4.94433-3.31672-18.51931-3.31672-18.51931l-1.141,21.96448C116.81205,491.95766,118.453,490.67991,119.91486,489.528Z"/>
    </g>
    <g>
      <path class="cls-82" d="M169.36563,408.4463s3.917,4.071.70847,9.91016a23.88736,23.88736,0,0,1-3.80529,5.11136l-1.81409-9.74484Z"/>
      <path class="cls-78" d="M159.7689,441.82537c-8.27422-.56814-13.19387-4.18942-14.84049-11.6266L141.39472,414.114c-1.60679-6.44885,3.26674-13.57627,10.90046-14.78588,6.67178-1.05718,14.66481,3.38532,15.83952,10.77563a111.14083,111.14083,0,0,1,1.18923,16.50326C169.15621,433.991,167.28838,442.34168,159.7689,441.82537Z"/>
      <path class="cls-78" d="M142.24927,440.09843l1.52364-11.18635c2.642-6.64294,16.2929,2.99365,15.439,7.89138l-.77756,8.07752C153.12329,444.36483,142.24927,440.09843,142.24927,440.09843Z"/>
      <path class="cls-83" d="M169.75073,412.87567c1.71293-.64053,2.70207-1.80106,2.89965-4.34826.267-3.4418-1.43655-4.94844-2.71266-6.43363-1.44356-1.68006-.78533-4.33913-3.99291-6.09038-3.3437-1.82557-5.82478-.31551-9.45388-.38617-2.68237-.05223-4.67357-1.34193-7.42039-.74205-3.9569.86415-3.90686,2.61394-7.06524,4.54984-3.34522,2.05043-4.82859,1.91993-6.79972,5.19073-1.69333,2.8098-1.0331,6.04774-.62259,9.21369.33153,2.55683-.6451,4.77759.42583,7.41615,1.58146,3.8964,4.269,4.09346,4.97388,6.54445a17.8715,17.8715,0,0,0,3.04988,6.55745c3.44739,1.44279,9.55216.728,9.827-4.92094l4.62644-2.8826c.98694.35755,2.17609.3524,2.59828-.707.3625-.9096.07073-3.46435.0112-4.34794-.13287-1.97209,2.511-2.50184,3.65625-3.6083,2.6236-2.53479,1.15991-2.39591,3.13427-4.1C168.00588,412.81412,167.90283,413.56667,169.75073,412.87567Z"/>
      <path class="cls-78" d="M157.05756,432.78573c-2.70181.51591-5.69654-2.82229-6.282-5.88817s1.57641-6.153,4.16193-5.21436C158.1832,422.86147,159.75936,432.26982,157.05756,432.78573Z"/>
    </g>
    <path class="cls-84" d="M147.90151,440.36966c-18.00773-3.50336-33.65985,4.16075-31.68092,27.02168l3.43459,32.90965-2.22867,48.79057c-.277,8.43025,4.17832,15.517,18.04786,21.60994,17.65208,7.75457,50.77359,3.04656,50.47119-10.8l-4.27449-52.52869,2.95471-39.12906C181.59229,457.043,162.9722,443.30163,147.90151,440.36966Z"/>
    <path class="cls-81" d="M185.94559,559.90161,183.294,527.31638l-9.94287-37.47574-8.826-4.47068,1.80145,22.98568a107.53354,107.53354,0,0,0,7.791,32.59025l10.02889,24.322A8.55669,8.55669,0,0,0,185.94559,559.90161Z"/>
    <path class="cls-78" d="M190.6824,590.11587l-.117-9.4079.03591,2.88859c-.69451,2.03445-2.35668,1.26154-2.67358-.47836l-.41461-4.73512a8.86189,8.86189,0,0,1,.44518-2.25745l2.07094-6.36159,8.369-3.60912s1.95375,10.62913,1.95375,13.75584a11.91228,11.91228,0,0,1-2.92915,7.5574l-3.75481,3.887A1.69523,1.69523,0,0,1,190.6824,590.11587Z"/>
    <path class="cls-78" d="M174.99488,527.29363c2.92759,10.49823,15.03438,42.47041,15.03438,42.47041l8.369-3.60912L192.07184,523.128l-8.39067-53.78739L165.6333,486.73415S172.06729,516.7954,174.99488,527.29363Z"/>
    <path class="cls-85" d="M168.18142,510.05778c2.01851,11.63605,24.87989,6.76428,23.41624-4.11394,0,0-4.6265-30.02918-7.126-38.2146-3.79844-12.43908-21.83485,1.27774-19.94653,17.6407Z"/>
    <path class="cls-77" d="M176.17471,744.231a6.3887,6.3887,0,0,1,2.37113,5.14833c.09933,3.64558-4.09749,9.30248-4.09749,9.30248l-4.71911,1.00469,16.29548-.37578,5.54757-1.72443s-.20174-9.711-3.31856-10.98736S176.17471,744.231,176.17471,744.231Z"/>
  </g>
</svg>
