<svg id="Layer_1" data-name="Layer 1" xmlns="http://www.w3.org/2000/svg" xmlns:xlink="http://www.w3.org/1999/xlink" viewBox="0 0 1000 1000">
  <defs>
    <style>
      .cls-1, .cls-18, .cls-19 {
        fill: none;
      }

      .cls-2 {
        fill: url(#linear-gradient);
      }

      .cls-3 {
        fill: #b8cbd8;
      }

      .cls-4 {
        fill: url(#linear-gradient-2);
      }

      .cls-5 {
        fill: #9bb0c4;
      }

      .cls-6 {
        fill: url(#linear-gradient-3);
      }

      .cls-7 {
        fill: url(#linear-gradient-4);
      }

      .cls-8 {
        fill: url(#linear-gradient-5);
      }

      .cls-9 {
        fill: url(#linear-gradient-6);
      }

      .cls-10 {
        fill: url(#linear-gradient-7);
      }

      .cls-11 {
        fill: #e58630;
      }

      .cls-12 {
        fill: url(#linear-gradient-8);
      }

      .cls-13, .cls-46 {
        opacity: 0.5;
      }

      .cls-14 {
        fill: url(#linear-gradient-9);
      }

      .cls-15 {
        fill: #748ca3;
      }

      .cls-16 {
        fill: #586c7f;
      }

      .cls-17 {
        fill: url(#linear-gradient-10);
      }

      .cls-18, .cls-19 {
        stroke-miterlimit: 10;
        stroke-width: 5px;
      }

      .cls-18 {
        stroke: url(#linear-gradient-11);
      }

      .cls-19 {
        stroke: url(#linear-gradient-12);
      }

      .cls-20 {
        fill: url(#linear-gradient-13);
      }

      .cls-21 {
        fill: url(#linear-gradient-14);
      }

      .cls-22 {
        fill: url(#linear-gradient-15);
      }

      .cls-23 {
        fill: url(#linear-gradient-16);
      }

      .cls-24 {
        fill: url(#linear-gradient-17);
      }

      .cls-25 {
        fill: url(#linear-gradient-18);
      }

      .cls-26 {
        fill: url(#linear-gradient-19);
      }

      .cls-27 {
        fill: url(#linear-gradient-20);
      }

      .cls-28 {
        fill: url(#linear-gradient-21);
      }

      .cls-29 {
        fill: url(#linear-gradient-22);
      }

      .cls-30 {
        fill: url(#linear-gradient-23);
      }

      .cls-31 {
        fill: url(#linear-gradient-24);
      }

      .cls-32 {
        fill: #ffcb48;
      }

      .cls-33 {
        fill: #34a521;
      }

      .cls-34 {
        fill: #e2e2e2;
      }

      .cls-35 {
        clip-path: url(#clip-path);
      }

      .cls-36 {
        fill: url(#linear-gradient-25);
      }

      .cls-37 {
        fill: url(#linear-gradient-26);
      }

      .cls-38 {
        fill: url(#linear-gradient-27);
      }

      .cls-39 {
        fill: #541510;
        opacity: 0.3;
      }

      .cls-40 {
        fill: url(#linear-gradient-28);
      }

      .cls-41, .cls-46 {
        fill: #bcd0e2;
      }

      .cls-42 {
        fill: #e9f1f4;
      }

      .cls-43 {
        fill: url(#linear-gradient-29);
      }

      .cls-44 {
        fill: url(#linear-gradient-30);
      }

      .cls-45 {
        fill: #f0f9fc;
      }

      .cls-47 {
        fill: #cddce8;
      }

      .cls-48 {
        fill: #a3bbce;
      }

      .cls-49 {
        fill: url(#linear-gradient-31);
      }

      .cls-50 {
        fill: #dd7b19;
        opacity: 0.6;
      }

      .cls-51 {
        fill: #93514c;
      }

      .cls-52 {
        fill: #7a403f;
      }

      .cls-53 {
        fill: url(#linear-gradient-32);
      }

      .cls-54 {
        fill: url(#linear-gradient-33);
      }

      .cls-55 {
        fill: url(#linear-gradient-34);
      }

      .cls-56 {
        fill: url(#linear-gradient-35);
      }

      .cls-57 {
        fill: url(#linear-gradient-36);
      }

      .cls-58 {
        fill: url(#linear-gradient-37);
      }

      .cls-59 {
        fill: url(#linear-gradient-38);
      }

      .cls-60 {
        fill: url(#linear-gradient-39);
      }

      .cls-61 {
        fill: url(#linear-gradient-40);
      }

      .cls-62 {
        fill: url(#linear-gradient-41);
      }

      .cls-63 {
        fill: url(#linear-gradient-42);
      }

      .cls-64 {
        fill: url(#linear-gradient-43);
      }

      .cls-65 {
        fill: url(#linear-gradient-44);
      }

      .cls-66 {
        fill: url(#linear-gradient-45);
      }

      .cls-67 {
        fill: url(#linear-gradient-46);
      }

      .cls-68 {
        fill: url(#linear-gradient-47);
      }

      .cls-69 {
        fill: #ffbea4;
      }

      .cls-70 {
        fill: url(#linear-gradient-48);
      }

      .cls-71 {
        fill: url(#linear-gradient-49);
      }

      .cls-72 {
        fill: url(#linear-gradient-50);
      }

      .cls-73 {
        fill: url(#linear-gradient-51);
      }

      .cls-74 {
        fill: #fff;
      }

      .cls-75 {
        fill: url(#linear-gradient-52);
      }

      .cls-76 {
        fill: url(#linear-gradient-53);
      }

      .cls-77 {
        opacity: 0.4;
        fill: url(#linear-gradient-54);
      }

      .cls-78 {
        fill: url(#linear-gradient-55);
      }

      .cls-79 {
        fill: url(#linear-gradient-56);
      }

      .cls-80 {
        fill: url(#linear-gradient-57);
      }

      .cls-81 {
        fill: url(#linear-gradient-58);
      }

      .cls-82 {
        fill: url(#linear-gradient-59);
      }

      .cls-83 {
        fill: url(#linear-gradient-60);
      }

      .cls-84 {
        fill: url(#linear-gradient-61);
      }

      .cls-85 {
        fill: url(#linear-gradient-62);
      }
    </style>
    <linearGradient id="linear-gradient" x1="521.50943" y1="396.22833" x2="928.15567" y2="396.22833" gradientUnits="userSpaceOnUse">
      <stop offset="0" stop-color="#e4edf2"/>
      <stop offset="1" stop-color="#c3d6e6"/>
    </linearGradient>
    <linearGradient id="linear-gradient-2" x1="114.87886" y1="711.22041" x2="928.15567" y2="711.22041" gradientUnits="userSpaceOnUse">
      <stop offset="0" stop-color="#dae9f2"/>
      <stop offset="0.99337" stop-color="#c4d5e6"/>
    </linearGradient>
    <linearGradient id="linear-gradient-3" x1="-916.23489" y1="188.87542" x2="-922.36255" y2="512.10947" gradientTransform="translate(1237.78726)" gradientUnits="userSpaceOnUse">
      <stop offset="0" stop-color="#293440"/>
      <stop offset="1" stop-color="#3e4c59"/>
    </linearGradient>
    <linearGradient id="linear-gradient-4" x1="-1089.94225" y1="396.19506" x2="-746.59953" y2="396.19506" gradientTransform="translate(1237.78726)" gradientUnits="userSpaceOnUse">
      <stop offset="0" stop-color="#5b6f82"/>
      <stop offset="1" stop-color="#849bb2"/>
    </linearGradient>
    <linearGradient id="linear-gradient-5" x1="-728.22582" y1="293.17671" x2="-1102.12283" y2="495.85551" gradientTransform="translate(1237.78726)" gradientUnits="userSpaceOnUse">
      <stop offset="0" stop-color="#62778c"/>
      <stop offset="1" stop-color="#435466"/>
    </linearGradient>
    <linearGradient id="linear-gradient-6" x1="-795.26524" y1="325.43067" x2="-933.74356" y2="400.49578" xlink:href="#linear-gradient-5"/>
    <linearGradient id="linear-gradient-7" x1="-906.73405" y1="389.7831" x2="-1045.21236" y2="464.84821" xlink:href="#linear-gradient-5"/>
    <linearGradient id="linear-gradient-8" x1="-1087.85405" y1="333.09678" x2="-912.4498" y2="569.01168" gradientTransform="translate(1237.78726)" gradientUnits="userSpaceOnUse">
      <stop offset="0.00005" stop-color="#ffcb48"/>
      <stop offset="1" stop-color="#e68e2b"/>
    </linearGradient>
    <linearGradient id="linear-gradient-9" x1="-910.12518" y1="230.45356" x2="-734.72093" y2="466.36846" xlink:href="#linear-gradient-8"/>
    <linearGradient id="linear-gradient-10" x1="-1298.99246" y1="240.09776" x2="-735.17368" y2="240.09776" xlink:href="#linear-gradient-4"/>
    <linearGradient id="linear-gradient-11" x1="8918.07187" y1="475.31353" x2="8984.87272" y2="505.83343" gradientTransform="translate(-8377.35491)" gradientUnits="userSpaceOnUse">
      <stop offset="0" stop-color="#3e4c59"/>
      <stop offset="1" stop-color="#293440"/>
    </linearGradient>
    <linearGradient id="linear-gradient-12" x1="8851.53879" y1="429.30395" x2="8927.0216" y2="463.79045" xlink:href="#linear-gradient-11"/>
    <linearGradient id="linear-gradient-13" x1="725.22175" y1="370.61972" x2="847.81411" y2="456.95236" gradientTransform="translate(-242.3977)" xlink:href="#linear-gradient-5"/>
    <linearGradient id="linear-gradient-14" x1="724.87096" y1="384.01489" x2="857.46014" y2="527.90676" gradientTransform="translate(-242.3977)" gradientUnits="userSpaceOnUse">
      <stop offset="0" stop-color="#62788c"/>
      <stop offset="1" stop-color="#526575"/>
    </linearGradient>
    <linearGradient id="linear-gradient-15" x1="711.79115" y1="365.93489" x2="791.94729" y2="490.97847" gradientTransform="translate(-242.3977)" gradientUnits="userSpaceOnUse">
      <stop offset="0" stop-color="#96b1cc"/>
      <stop offset="1" stop-color="#748ea6"/>
    </linearGradient>
    <linearGradient id="linear-gradient-16" x1="718.46368" y1="407.00607" x2="846.63183" y2="407.00607" gradientTransform="translate(-242.3977)" gradientUnits="userSpaceOnUse">
      <stop offset="0" stop-color="#526575"/>
      <stop offset="1" stop-color="#62788c"/>
    </linearGradient>
    <linearGradient id="linear-gradient-17" x1="718.46363" y1="386.24029" x2="846.6318" y2="386.24029" xlink:href="#linear-gradient-15"/>
    <linearGradient id="linear-gradient-18" x1="514.91155" y1="385.4919" x2="565.38856" y2="385.4919" gradientTransform="matrix(1, 0, 0, 1, 0, 0)" xlink:href="#linear-gradient-5"/>
    <linearGradient id="linear-gradient-19" x1="514.91153" y1="381.64595" x2="565.38857" y2="381.64595" gradientUnits="userSpaceOnUse">
      <stop offset="0" stop-color="#849bb2"/>
      <stop offset="1" stop-color="#5b6f82"/>
    </linearGradient>
    <linearGradient id="linear-gradient-20" x1="539.80912" y1="341.03581" x2="540.48118" y2="378.22327" gradientTransform="matrix(1, 0, 0, 1, 0, 0)" xlink:href="#linear-gradient-5"/>
    <linearGradient id="linear-gradient-21" x1="506.20709" y1="333.66652" x2="574.09305" y2="333.66652" gradientTransform="matrix(1, 0, 0, 1, 0, 0)" xlink:href="#linear-gradient-5"/>
    <linearGradient id="linear-gradient-22" x1="505.75169" y1="328.69073" x2="574.54846" y2="328.69073" gradientUnits="userSpaceOnUse">
      <stop offset="0.00844" stop-color="#ffc63f"/>
      <stop offset="1" stop-color="#e68a23"/>
    </linearGradient>
    <linearGradient id="linear-gradient-23" x1="532.73233" y1="315.91105" x2="547.56768" y2="315.91105" gradientTransform="matrix(1, 0, 0, 1, 0, 0)" xlink:href="#linear-gradient-11"/>
    <linearGradient id="linear-gradient-24" x1="532.73234" y1="310.18743" x2="547.56776" y2="310.18743" gradientTransform="matrix(1, 0, 0, 1, 0, 0)" xlink:href="#linear-gradient-5"/>
    <clipPath id="clip-path">
      <path class="cls-1" d="M435.98541,305.84375A194.17509,194.17509,0,1,1,364.93924,155.6819,193.78539,193.78539,0,0,1,435.98541,305.84375Z"/>
    </clipPath>
    <linearGradient id="linear-gradient-25" x1="194.24817" y1="-169.23703" x2="826.15354" y2="658.30467" gradientTransform="matrix(1, 0, 0, 1, 0, 0)" xlink:href="#linear-gradient-5"/>
    <linearGradient id="linear-gradient-26" x1="130.53315" y1="-121.21608" x2="756.78083" y2="698.91633" gradientTransform="matrix(1, 0, 0, 1, 0, 0)" xlink:href="#linear-gradient-14"/>
    <linearGradient id="linear-gradient-27" x1="-677.22874" y1="720.40855" x2="1006.53971" y2="1172.4986" gradientTransform="matrix(1, 0, 0, 1, 0, 0)" xlink:href="#linear-gradient-5"/>
    <linearGradient id="linear-gradient-28" x1="-1160.13656" y1="1001.79388" x2="1064.55532" y2="1122.14606" gradientTransform="matrix(1, 0, 0, 1, 0, 0)" xlink:href="#linear-gradient-11"/>
    <linearGradient id="linear-gradient-29" x1="168.86191" y1="-307.52144" x2="1027.51792" y2="816.97234" gradientUnits="userSpaceOnUse">
      <stop offset="0" stop-color="#596c80"/>
      <stop offset="0.99886" stop-color="#3a4959"/>
    </linearGradient>
    <linearGradient id="linear-gradient-30" x1="175.06065" y1="1192.50678" x2="279.765" y2="1355.84556" gradientTransform="matrix(1, 0, 0, 1, 0, 0)" xlink:href="#linear-gradient-11"/>
    <linearGradient id="linear-gradient-31" x1="-1011.8692" y1="561.45263" x2="124.20238" y2="1195.17964" gradientTransform="matrix(1, 0, 0, 1, 0, 0)" xlink:href="#linear-gradient-8"/>
    <linearGradient id="linear-gradient-32" x1="220.36906" y1="195.22276" x2="231.04679" y2="401.38511" gradientUnits="userSpaceOnUse">
      <stop offset="0" stop-color="#3f3230"/>
      <stop offset="1"/>
    </linearGradient>
    <linearGradient id="linear-gradient-33" x1="286.16517" y1="191.815" x2="296.8429" y2="397.97734" xlink:href="#linear-gradient-32"/>
    <linearGradient id="linear-gradient-34" x1="-7617.35674" y1="228.20568" x2="-7543.45367" y2="347.76442" gradientTransform="matrix(0.98984, -0.0381, 0.12876, 1.00209, 7719.73408, -276.71672)" xlink:href="#linear-gradient-5"/>
    <linearGradient id="linear-gradient-35" x1="-7539.79844" y1="214.80641" x2="-7460.73254" y2="342.71746" gradientTransform="matrix(0.98984, -0.0381, 0.12876, 1.00209, 7648.37225, -273.96983)" xlink:href="#linear-gradient-5"/>
    <linearGradient id="linear-gradient-36" x1="884.47743" y1="403.4152" x2="909.26055" y2="466.26879" xlink:href="#linear-gradient-22"/>
    <linearGradient id="linear-gradient-37" x1="891.68474" y1="407.3511" x2="900.14185" y2="420.57726" gradientTransform="matrix(1, 0, 0, 1, 0, 0)" xlink:href="#linear-gradient-5"/>
    <linearGradient id="linear-gradient-38" x1="875.31142" y1="416.90389" x2="905.09595" y2="463.4842" gradientTransform="matrix(1, 0, 0, 1, 0, 0)" xlink:href="#linear-gradient-5"/>
    <linearGradient id="linear-gradient-39" x1="645.30886" y1="322.89488" x2="841.73524" y2="580.13437" gradientTransform="matrix(1, 0, 0, 1, 0, 0)" xlink:href="#linear-gradient-5"/>
    <linearGradient id="linear-gradient-40" x1="625.50319" y1="337.82209" x2="820.17088" y2="592.75842" gradientTransform="matrix(1, 0, 0, 1, 0, 0)" xlink:href="#linear-gradient-14"/>
    <linearGradient id="linear-gradient-41" x1="374.41221" y1="599.43923" x2="897.80788" y2="739.97041" gradientTransform="matrix(1, 0, 0, 1, 0, 0)" xlink:href="#linear-gradient-5"/>
    <linearGradient id="linear-gradient-42" x1="231.91174" y1="634.50385" x2="659.54509" y2="906.7549" gradientTransform="matrix(1, 0, 0, 1, 0, 0)" xlink:href="#linear-gradient-14"/>
    <linearGradient id="linear-gradient-43" x1="224.30138" y1="686.90723" x2="915.8419" y2="724.31844" gradientTransform="matrix(1, 0, 0, 1, 0, 0)" xlink:href="#linear-gradient-11"/>
    <linearGradient id="linear-gradient-44" x1="247.51223" y1="729.65096" x2="838.79659" y2="761.63847" gradientTransform="matrix(1, 0, 0, 1, 0, 0)" xlink:href="#linear-gradient-11"/>
    <linearGradient id="linear-gradient-45" x1="637.4176" y1="279.90948" x2="904.32891" y2="629.45587" xlink:href="#linear-gradient-29"/>
    <linearGradient id="linear-gradient-46" x1="639.34446" y1="746.18991" x2="671.89158" y2="796.96341" gradientTransform="matrix(1, 0, 0, 1, 0, 0)" xlink:href="#linear-gradient-11"/>
    <linearGradient id="linear-gradient-47" x1="270.38996" y1="550.02813" x2="623.53528" y2="747.02076" gradientTransform="matrix(1, 0, 0, 1, 0, 0)" xlink:href="#linear-gradient-8"/>
    <linearGradient id="linear-gradient-48" x1="653.42848" y1="436.18639" x2="656.74763" y2="500.2715" xlink:href="#linear-gradient-32"/>
    <linearGradient id="linear-gradient-49" x1="673.88106" y1="435.1271" x2="677.20021" y2="499.2122" xlink:href="#linear-gradient-32"/>
    <linearGradient id="linear-gradient-50" x1="-7201.1845" y1="452.18691" x2="-7178.2119" y2="489.35148" gradientTransform="matrix(0.98984, -0.0381, 0.12876, 1.00209, 7719.73408, -276.71672)" xlink:href="#linear-gradient-5"/>
    <linearGradient id="linear-gradient-51" x1="-7127.39168" y1="448.02178" x2="-7102.81422" y2="487.78264" gradientTransform="matrix(0.98984, -0.0381, 0.12876, 1.00209, 7648.37225, -273.96983)" xlink:href="#linear-gradient-5"/>
    <linearGradient id="linear-gradient-52" x1="692.07474" y1="321.16965" x2="769.39381" y2="321.16965" gradientTransform="translate(-18.64021 -32.28579)" gradientUnits="userSpaceOnUse">
      <stop offset="0" stop-color="#435466"/>
      <stop offset="1" stop-color="#62778c"/>
    </linearGradient>
    <linearGradient id="linear-gradient-53" x1="702.49493" y1="317.1864" x2="766.0789" y2="317.1864" gradientTransform="translate(-18.64021 -32.28579)" gradientUnits="userSpaceOnUse">
      <stop offset="0" stop-color="#fff"/>
      <stop offset="0.98888" stop-color="#e6edf2"/>
    </linearGradient>
    <linearGradient id="linear-gradient-54" x1="711.60723" y1="319.11183" x2="754.71269" y2="319.11183" gradientTransform="translate(-18.64021 -32.28579)" xlink:href="#linear-gradient-5"/>
    <linearGradient id="linear-gradient-55" x1="692.07473" y1="321.16965" x2="769.39382" y2="321.16965" gradientTransform="translate(-18.64021 -32.28579)" xlink:href="#linear-gradient-19"/>
    <linearGradient id="linear-gradient-56" x1="709.04016" y1="242.52306" x2="788.54003" y2="347.60115" gradientTransform="translate(-18.64021 -32.28579)" xlink:href="#linear-gradient-5"/>
    <linearGradient id="linear-gradient-57" x1="677.5777" y1="217.56786" x2="795.46185" y2="373.37996" gradientTransform="translate(-18.64021 -32.28579)" xlink:href="#linear-gradient-5"/>
    <linearGradient id="linear-gradient-58" x1="792.11828" y1="358.86149" x2="766.43811" y2="298.64073" gradientTransform="translate(3.46411 6.00002)" xlink:href="#linear-gradient-52"/>
    <linearGradient id="linear-gradient-59" x1="725.58483" y1="263.80234" x2="764.92008" y2="263.80234" gradientTransform="translate(47.76727 82.73534)" xlink:href="#linear-gradient-53"/>
    <linearGradient id="linear-gradient-60" x1="715.16462" y1="267.78559" x2="768.235" y2="267.78559" gradientTransform="translate(47.76727 82.73534)" xlink:href="#linear-gradient-19"/>
    <linearGradient id="linear-gradient-61" x1="727.50088" y1="215.04567" x2="782.29632" y2="287.47095" gradientTransform="translate(47.76727 82.73534)" xlink:href="#linear-gradient-5"/>
    <linearGradient id="linear-gradient-62" x1="709.34241" y1="200.70012" x2="786.04322" y2="302.07858" gradientTransform="translate(47.76727 82.73534)" xlink:href="#linear-gradient-5"/>
  </defs>
  <g>
    <g>
      <polygon class="cls-2" points="521.509 81.236 928.156 316.004 928.156 711.22 521.509 476.43 521.509 81.236"/>
      <polygon class="cls-3" points="521.525 81.236 114.879 316.004 114.879 711.22 521.525 476.43 521.525 81.236"/>
    </g>
    <path class="cls-4" d="M121.896,723.3864l378.58059,218.564a42.10143,42.10143,0,0,0,42.1011-.00062l378.5612-218.56743a14.03381,14.03381,0,0,0,.00016-24.307L542.5613,480.49136a42.10144,42.10144,0,0,0-42.10408.00053l-378.562,218.58744A14.03381,14.03381,0,0,0,121.896,723.3864Z"/>
    <path class="cls-5" d="M226.3809,766.56781,459.93617,901.383a25.8435,25.8435,0,0,0,25.846-.002l376.022-217.16324a12.92175,12.92175,0,0,0-.00084-22.37988L628.33138,527.04226a25.84349,25.84349,0,0,0-25.8448-.00074l-376.10591,217.145A12.92174,12.92174,0,0,0,226.3809,766.56781Z"/>
  </g>
  <g>
    <g>
      <path class="cls-6" d="M495.0292,461.80623,151.68013,660.03582l-11.46525-6.61724V330.59447L483.564,132.35338l11.46525-2.15873Z"/>
      <polygon class="cls-7" points="491.188 135.665 487.246 137.94 487.252 456.375 147.845 652.319 147.845 656.725 491.188 458.506 491.188 135.665"/>
      <path class="cls-8" d="M136.357,327.271V676.623L502.676,465.13872V115.76621Zm11.48824,6.6326L491.18773,135.66491l0,322.84091L147.84525,656.7252Z"/>
    </g>
    <polygon class="cls-9" points="375.783 520.728 370.783 523.615 370.783 205.199 375.783 202.312 375.783 520.728"/>
    <polygon class="cls-10" points="264.314 585.08 259.314 587.967 259.314 269.551 264.314 266.664 264.314 585.08"/>
    <g>
      <path class="cls-11" d="M320.03935,241.7198l-172.1941,99.549V654.67317a2.97181,2.97181,0,0,0,1.50513,2.60065l-.00024.00018,3.38843,1.94965-.40357-1.94727.01-.005,163.20081-94.20411a9,9,0,0,0,4.50073-7.79486L323.43046,243.672Z"/>
      <path class="cls-12" d="M323.4376,557.22459,323.43049,243.672,151.23636,343.221V656.62532a3,3,0,0,0,4.49977,2.59821l163.20076-94.2041A9,9,0,0,0,323.4376,557.22459Z"/>
      <g>
        <g class="cls-13">
          <polygon class="cls-11" points="173.048 649.203 170.749 650.53 170.749 331.939 173.048 330.611 173.048 649.203"/>
        </g>
        <g class="cls-13">
          <polygon class="cls-11" points="194.86 636.593 192.56 637.921 192.56 319.329 194.86 318.002 194.86 636.593"/>
        </g>
        <g class="cls-13">
          <polygon class="cls-11" points="216.671 623.984 214.372 625.311 214.372 306.72 216.671 305.392 216.671 623.984"/>
        </g>
        <g class="cls-13">
          <polygon class="cls-11" points="238.483 611.374 236.184 612.702 236.184 294.11 238.483 292.783 238.483 611.374"/>
        </g>
        <g class="cls-13">
          <polygon class="cls-11" points="260.295 598.765 257.995 600.092 257.995 281.501 260.295 280.173 260.295 598.765"/>
        </g>
        <g class="cls-13">
          <polygon class="cls-11" points="282.106 586.155 279.807 587.482 279.807 268.891 282.106 267.564 282.106 586.155"/>
        </g>
        <g class="cls-13">
          <polygon class="cls-11" points="303.918 573.545 301.619 574.873 301.619 256.282 303.918 254.954 303.918 573.545"/>
        </g>
      </g>
    </g>
    <g>
      <path class="cls-11" d="M497.76821,139.07658l-172.19409,99.549V552.03a2.97181,2.97181,0,0,0,1.50513,2.60065l-.00024.00018,3.38842,1.94965-.40356-1.94727.01-.005,163.2008-94.2041a9,9,0,0,0,4.50074-7.79486l3.38391-311.60046Z"/>
      <path class="cls-14" d="M501.16647,454.58136l-.00712-313.55261-172.19412,99.549V553.98209a3,3,0,0,0,4.49976,2.59822l163.20076-94.2041A9,9,0,0,0,501.16647,454.58136Z"/>
      <g>
        <g class="cls-13">
          <polygon class="cls-11" points="350.777 546.56 348.478 547.887 348.478 229.296 350.777 227.968 350.777 546.56"/>
        </g>
        <g class="cls-13">
          <polygon class="cls-11" points="372.589 533.95 370.289 535.278 370.289 216.686 372.589 215.359 372.589 533.95"/>
        </g>
        <g class="cls-13">
          <polygon class="cls-11" points="394.4 521.34 392.101 522.668 392.101 204.077 394.4 202.749 394.4 521.34"/>
        </g>
        <g class="cls-13">
          <polygon class="cls-11" points="416.212 508.731 413.913 510.058 413.913 191.467 416.212 190.139 416.212 508.731"/>
        </g>
        <g class="cls-13">
          <polygon class="cls-11" points="438.024 496.121 435.724 497.449 435.724 178.857 438.024 177.53 438.024 496.121"/>
        </g>
        <g class="cls-13">
          <polygon class="cls-11" points="459.835 483.512 457.536 484.839 457.536 166.248 459.835 164.92 459.835 483.512"/>
        </g>
        <g class="cls-13">
          <polygon class="cls-11" points="481.647 470.902 479.348 472.23 479.348 153.638 481.647 152.311 481.647 470.902"/>
        </g>
      </g>
    </g>
    <g>
      <path class="cls-15" d="M498.691,132.33943v6.03443l-14.83479,8.56338V140.018a3.36191,3.36191,0,0,1,1.68117-2.91162l10.70616-6.18012A1.63171,1.63171,0,0,1,498.691,132.33943Z"/>
      <path class="cls-16" d="M156.28676,330.29116v6.03443L141.452,344.889v-6.91922a3.36193,3.36193,0,0,1,1.68116-2.91162L153.8393,328.878A1.63171,1.63171,0,0,1,156.28676,330.29116Z"/>
      <path class="cls-17" d="M506.42655,138.88379,143.80033,348.28887l-3.92587-6.79981L502.51387,132.07637l.00179.0031a1.97737,1.97737,0,0,1,1.95074.20783,6.13755,6.13755,0,0,1,2.78517,4.8041A1.92627,1.92627,0,0,1,506.42655,138.88379Z"/>
      <ellipse class="cls-16" cx="141.83739" cy="344.88896" rx="2.26305" ry="3.92587" transform="translate(-153.44187 117.12506) rotate(-30)"/>
    </g>
  </g>
  <g>
    <g>
      <path class="cls-18" d="M547.95157,464.95057v76.9897a1.741,1.741,0,0,0,2.61106,1.50791L599.38919,515.278a5.22281,5.22281,0,0,0,2.61249-4.52372V437.26664"/>
      <path class="cls-19" d="M478.63242,425.03905v76.9897a1.741,1.741,0,0,0,2.61106,1.50791L544.32415,467.137a5.22282,5.22282,0,0,0,2.61248-4.52372V389.12561"/>
      <g>
        <path class="cls-20" d="M604.23409,398.14839v41.964a3.498,3.498,0,0,1-1.74672,3.04229L550.78528,473.049a6.99683,6.99683,0,0,1-3.508.93164l-14.2541-75.83226Z"/>
        <path class="cls-21" d="M547.27726,398.14839v75.83226a6.99716,6.99716,0,0,1-3.50837-.93164l-65.94144-38.12382a3.4824,3.4824,0,0,1-1.76147-3.04229v-41.964Z"/>
        <polygon class="cls-22" points="541.893 462.729 481.45 427.799 481.471 401.037 541.893 435.979 541.893 462.729"/>
        <path class="cls-23" d="M476.066,382.12553v7.65773a3.47235,3.47235,0,0,0,1.75076,3.03443l65.95178,38.12776a7.01028,7.01028,0,0,0,7.017,0l51.69781-29.89824a3.47235,3.47235,0,0,0,1.75076-3.03443V390.355Z"/>
        <path class="cls-24" d="M602.48333,387.32062l-65.95189-38.12771a7.01,7.01,0,0,0-7.017,0l-51.69779,29.8982a3.505,3.505,0,0,0,0,6.06884l65.95189,38.12771a7.01,7.01,0,0,0,7.017,0l51.69779-29.8982A3.505,3.505,0,0,0,602.48333,387.32062Z"/>
      </g>
    </g>
    <g>
      <g>
        <path class="cls-25" d="M564.68837,382.13971C562.0587,375.72354,552.084,370.9433,540.15,370.9433s-21.9087,4.78024-24.53826,11.19641h-.70019v3.35219c0,8.035,11.2996,14.54861,25.23845,14.54861s25.23856-6.51363,25.23856-14.54861v-3.35219Z"/>
        <ellipse class="cls-26" cx="540.15005" cy="381.64595" rx="25.23852" ry="14.54865"/>
      </g>
      <path class="cls-27" d="M536.843,341.16349v37.46434c0,1.05282,1.48059,1.90631,3.307,1.90631s3.307-.85349,3.307-1.90631V341.16349Z"/>
      <path class="cls-28" d="M506.20709,308.35523v31.11514c0,10.77367,15.19673,19.50744,33.943,19.50744s33.943-8.73377,33.943-19.50744V308.35523Z"/>
      <path class="cls-29" d="M505.75169,303.03984v31.53261c0,10.91822,15.40062,19.76917,34.39838,19.76917s34.39839-8.85095,34.39839-19.76917V303.03984Z"/>
      <g>
        <ellipse class="cls-11" cx="540.15005" cy="303.03994" rx="34.3984" ry="19.76919"/>
        <path class="cls-30" d="M532.73233,320.80523a33.58124,33.58124,0,0,0,14.83535,0V310.18739H532.73233Z"/>
        <ellipse class="cls-31" cx="540.15005" cy="310.18743" rx="7.41771" ry="4.27591"/>
        <path class="cls-32" d="M540.15,284.96619c18.03246,0,32.70278,8.10781,32.70278,18.0737S558.1825,321.11374,540.15,321.11374s-32.70279-8.108-32.70279-18.07385,14.67032-18.0737,32.70279-18.0737m0-1.69547c-18.99763,0-34.39839,8.851-34.39839,19.76917,0,10.91832,15.40076,19.76931,34.39839,19.76931s34.39838-8.851,34.39838-19.76931c0-10.91818-15.40076-19.76917-34.39838-19.76917Z"/>
      </g>
    </g>
  </g>
  <g>
    <path class="cls-33" d="M241.7915,113.44029a191.74878,191.74878,0,1,1-74.8872,15.113,191.18371,191.18371,0,0,1,74.8872-15.113m0-17.54223c-115.95068,0-209.94726,93.99682-209.94726,209.94751S125.84082,515.79308,241.7915,515.79308c115.95118,0,209.94776-93.99683,209.94776-209.94751S357.74268,95.89806,241.7915,95.89806Z"/>
    <circle class="cls-34" cx="241.79174" cy="305.84555" r="194.19259"/>
    <path class="cls-34" d="M435.98541,305.84375A194.17509,194.17509,0,1,1,364.93924,155.6819,193.78539,193.78539,0,0,1,435.98541,305.84375Z"/>
  </g>
  <g class="cls-35">
    <g>
      <g>
        <g>
          <g>
            <path class="cls-36" d="M859.06122,243.72108,148.64869-176.51355a10.8293,10.8293,0,0,0-11.81183.46753v-.00044l-65.8807,38.10738,67.64539,39.56772V219.51573l736.55217,387.101V271.92784A32.76688,32.76688,0,0,0,859.06122,243.72108Z"/>
            <path class="cls-37" d="M65.78636-128.65549v390.347l742.98535,383.381V310.38378A32.76628,32.76628,0,0,0,792.679,282.177L82.26632-138.05775A10.9221,10.9221,0,0,0,65.78636-128.65549Z"/>
            <path class="cls-38" d="M808.77117,310.38378V676.92857l-1170.19395,238.414-35.46084,745.632a68.191,68.191,0,0,0,34.31111-9.12242L858.20205,946.26083c11.9816-6.94409,16.94223-19.31011,16.94223-31.23905l.00978-242.99408V271.928Z"/>
            <g>
              <path class="cls-39" d="M808.77171,607.61856V735.77461l-.03407-.03408a33.6857,33.6857,0,0,1-16.91717,30.94113L-362.58174,1433.14529a67.85008,67.85008,0,0,1-34.31113,9.12236l35.46084-631.109Z"/>
              <path class="cls-40" d="M808.77171,658.37181v128.156l-.03407-.03407a33.68568,33.68568,0,0,1-16.91717,30.94112L-362.58174,1483.89853a67.85008,67.85008,0,0,1-34.31113,9.12236l35.46084-631.109Z"/>
              <path class="cls-41" d="M485.24246,613.29881-361.40976,789.42826l-35.46084,631.0884a67.82884,67.82884,0,0,0,34.29585-9.13291L381.82994,981.32126,791.79959,744.92691a33.66773,33.66773,0,0,0,16.92377-30.911h.06445V585.83653Z"/>
              <path class="cls-42" d="M791.813,556.63705,105.53217,160.54852a68.07809,68.07809,0,0,0-68.08108-.00195L-390.7702,407.43231h0L-1117.17041,826.963a33.566,33.566,0,0,0-15.95567,20.95784,34.61037,34.61037,0,0,0-1.06371,8.5212,33.71947,33.71947,0,0,0,17.02009,29.47834l481.3075,277.8702L-430.67,1282.0603a68.0795,68.0795,0,0,0,12.30137,5.5581,68.05122,68.05122,0,0,0,17.33666,3.41971q2.2.14235,4.405.14217a68.0317,68.0317,0,0,0,34.0416-9.12511L791.81517,615.59054C814.503,602.48748,814.50225,569.73834,791.813,556.63705Z"/>
            </g>
          </g>
          <path class="cls-43" d="M858.20205,222.54353v723.7173L839.01637,957.3555v-734.812a24.01948,24.01948,0,0,0-11.76028-20.64271L99.08-228.84415a1.42711,1.42711,0,0,0-1.60169,0,1.45729,1.45729,0,0,0-.80085,1.38348v74.67058L77.49094-141.72222v-85.73845a20.58116,20.58116,0,0,1,10.48479-18.058,20.57878,20.57878,0,0,1,20.862.182l728.17605,430.745A43.30725,43.30725,0,0,1,858.20205,222.54353Z"/>
        </g>
        <path class="cls-44" d="M769.79965,934.90667l-1072.3671,619.778a32.76631,32.76631,0,0,0-16.36322,28.36493v43.56536L786.156,987.92345l.03345-43.55342A10.9221,10.9221,0,0,0,769.79965,934.90667Z"/>
      </g>
      <g>
        <path class="cls-41" d="M84.78981,323.76433c.71807-.77462,140.356-80.865,140.356-80.865-.72661-4.84858-1.88207-10.58454,1.23673-12.20593,3.54027-1.84024,10.78694,1.72914,14.59524,6.16155,48.44518-10.22868,70.71828-10.05345,167.08717,44.73637,124.8958,71.00858,132.47929,102.80154,160.438,152.39684,8.69274,4.12857,13.32737,6.91881,11.3411,12.12094-1.8385,4.81511-13.93936,7.30664-20.05542,5.18016L428.01254,526.955c1.25559,5.56931-.86724,13.02368-4.37453,14.7788-4.60913,2.30707-11.20151-2.47456-14.14888-11.75219l-.00324-.00736c-57.44818-2.3808-135.67164-37.35915-187.59616-70.10315C178.73962,432.6599,105.28662,388.92169,85.50229,342.25741c-7.62573-.01768-15.06046-3.82893-15.34939-8.65631C69.85954,328.69037,77.02625,324.58637,84.78981,323.76433Z"/>
        <path class="cls-45" d="M71.77016,290.10376c.71807-.77462,140.35594-80.865,140.35594-80.865-.72661-4.84858-1.88207-10.58454,1.23673-12.20593,3.54028-1.84024,10.78695,1.72914,14.59525,6.16155,48.44518-10.22868,70.71827-10.05345,167.08717,44.73637,124.8958,71.00858,132.47929,102.80154,160.438,152.39684,8.69274,4.12857,13.32737,6.91881,11.3411,12.12094-1.8385,4.81511-13.93936,7.30664-20.05542,5.18016l-131.776,75.66576c1.25559,5.56931-.86723,13.02368-4.37452,14.7788-4.60913,2.30707-11.20152-2.47456-14.14889-11.75219l-.00324-.00736c-57.44817-2.3808-135.67164-37.35915-187.59615-70.10315C165.72,398.99933,92.267,355.26112,72.48263,308.59684c-7.62573-.01768-15.06045-3.82893-15.34939-8.65631C56.83989,295.0298,64.00659,290.9258,71.77016,290.10376Z"/>
        <path class="cls-46" d="M292.77505,417.46795c39.99113-21.42107,69.67783-76.85328,68.002-128.89477l-117.72389,64.5332,22.76471,53.23815Z"/>
        <path class="cls-47" d="M272.564,394.07712C204.30244,346.164,109.91754,288.02035,22.94532,373.28691L-70.767,473.95061-275.55436,542.555C-395.13651,616.3059-165.45608,740.71243-58.8196,737.22608L82.66094,655.36164,345.27176,546.12135C358.54178,501.93193,313.30643,422.67445,272.564,394.07712Z"/>
        <path class="cls-48" d="M244.57,538.20984l-57.33454,41.32125C122.019,518.58008,56.48866,473.52243-33.91362,434.63522l-31.9199,33.01883-198.43456,69.002c-130.86868,79.6505,98.81235,204.05573,205.44866,200.56949l141.48028-81.864,111.07467-33.223,21.78567,9.27259Z"/>
        <path class="cls-49" d="M-443.83833,416.97533l16.00746-9.41889a170.62076,170.62076,0,0,1,121.59143-20.03872C-84.5019,434.10563,195.06765,574.40645,270.13032,759.31224c54.92338,135.29562,60.86647,225.227,58.60711,270.57173a87.94265,87.94265,0,0,1-24.58672,56.53175c-163.73,170.52111-481.07715,345.22575-657.94277,388.42546a85.89176,85.89176,0,0,1-44.31054-.87855c-302.56813-87.78393-626.077-285.24593-757.92391-415.53865a87.47565,87.47565,0,0,1-24.10962-80.29662c9.11144-43.255,25.16467-107.33377,46.17492-142.6501C-1100.25864,778.8263-443.83833,416.97533-443.83833,416.97533Z"/>
        <path class="cls-50" d="M-77.35578,649.534-38.654,665.51707c7.3698,3.04329,17.87708,5.69071,25.91794,5.52294l38.25957-2.35751C63.7669,705.14156,157.73414,791.41156,193.20575,793.94567c24.39556,1.74238,51.95287-34.17365,72.083-67.4408-13.85-31.56008-34.04194-61.68828-59.03866-90.11089a38.67555,38.67555,0,0,0-4.19481,8.83994l-15.92794,40.33821L40.40587,611.8049,21.00863,595.89241A49.31794,49.31794,0,0,0-.38118,584.41535L-36.2825,574.11558a9.67109,9.67109,0,0,0-11.54623,6.4368c-1.4326,4.47222,4.15141,10.884,8.30943,13.06934l-39.11089,4.21174a11.91735,11.91735,0,0,0-12.5403,12.63375l1.33328,21.59877A20.2488,20.2488,0,0,0-77.35578,649.534Z"/>
        <g>
          <path class="cls-51" d="M63.23836,329.75649c-26.941,1.83906-170.34286,37.54005-242.55306,74.36468-28.50832,14.53823-39.68619,29.07465-36.524,47.8,5.24254,31.04456,73.42948,89.55964,73.42948,89.55964l38.35091-33.57143-15.4337-34.999,54.55736-17.36731c82.816-110.1205,168.08522-124.5441,213.11509-123.23169C124.39412,326.16406,100.81555,327.19215,63.23836,329.75649Z"/>
          <path class="cls-47" d="M63.23836,329.75649c-26.941,1.83906-120.37656,11.05106-192.58675,47.8757-28.50832,14.53823,4.10682,101.84912,24.64092,98.83745l43.20074-8.03856C21.30926,358.31058,103.15056,330.999,148.18043,332.3114,124.39412,326.16406,100.81555,327.19215,63.23836,329.75649Z"/>
          <polygon class="cls-48" points="19.678 383.894 -93.984 474.474 -61.507 468.431 19.678 383.894"/>
        </g>
        <path class="cls-51" d="M21.00856,571.78219A49.31866,49.31866,0,0,0-.38132,560.30411l-35.90134-10.29922A9.672,9.672,0,0,0-47.82907,556.441v0c-1.43239,4.473,4.15183,10.8854,8.30989,13.06936l10.24781-1.10367L-78.63,573.72257a11.917,11.917,0,0,0-12.54007,12.63359l1.333,21.59883a20.249,20.249,0,0,0,12.48155,17.46859L-38.65389,641.406c7.36961,3.04338,17.87715,5.69108,25.91773,5.5231l47.04705-2.89847L51.993,597.19917Z"/>
        <path class="cls-47" d="M230.88764,533.5276s-41.48857,61.16879-56.68075,94.452c-27.72966,59.33153,88.69508,102.42288,112.80778,69.16312,18.47849-27.52017,48.66582-114.58026,59.3075-154.83435C357.93671,486.22752,261.83721,476.91343,230.88764,533.5276Z"/>
        <ellipse class="cls-48" cx="228.74577" cy="669.91423" rx="26.83649" ry="57.84509" transform="translate(-475.46621 597.8365) rotate(-65.30325)"/>
        <path class="cls-51" d="M181.12717,644.02789l-6.89926,11.4091L45.552,591.91547l-24.43735,52.9281s127.07956,121.775,172.09176,124.99123c32.829,2.34521,58.27216-32.45126,69.64871-51.469l14.7139-24.91918C289.821,673.04941,195.36415,624.04136,181.12717,644.02789Z"/>
        <g>
          <path class="cls-51" d="M184.00461,354.84259c-25.2146,12.9578-32.45426,52.0661-8.26815,69.9548,34.16939,25.2726,90.54681,4.99628,87.697-30.15768C260.429,357.57856,208.0448,342.48832,184.00461,354.84259Z"/>
          <path class="cls-52" d="M192.025,364.05254c-6.92229,8.35856-10.89079,18.49726-3.92641,29.19856,14.13161,21.71428,48.207,25.26524,60.17418,8.90622l31.34037-43.81241-55.38163-32.56745Z"/>
        </g>
        <g>
          <path class="cls-53" d="M235.28111,196.96416c-21.17786,12.92551-20.3932,47.03681-20.3932,47.03681L201.1095,280.99972l45.12752-43.961Z"/>
          <path class="cls-51" d="M203.03165,369.049c34.66291,14.71,72.15931.463,94.11413-26.25846l47.37133-57.84843c19.76178-22.80246,4.5489-51.97255-23.86654-72.56232-24.83474-17.9952-65.338-16.04664-85.28607,11.45521,0,0-24.16244,34.26311-39.7272,63.96549S171.5306,355.68078,203.03165,369.049Z"/>
          <path class="cls-54" d="M302.79547,199.91316c-40.14028-18.44029-69.04509-12.2349-80.78659,11.84921-21.11493,43.31086,39.55443,62.9,49.23347,77.71083,4.30709,8.26213,6.26516,13.06421,4.54747,20.26561l-6.55458,9.36022c-3.01754,3.92845,6.76509,10.28447,6.76509,10.28447S271.74,347.358,271.50622,352.86008c-3.37332,8.28985-10.3594,31.03344-10.3594,31.03344,17.24835-10.88363,49.2609-37.268,49.2609-37.268s44.37055-20.13467,50.0276-55.5713C366.56756,252.641,337.36912,215.79615,302.79547,199.91316Z"/>
          <g>
            <path class="cls-55" d="M284.40931,320.30093c-13.58613,13.038-29.05437,8.302-52.10808-16.72639-6.85877-7.44628-11.77913-13.61664-17.40309-16.50821-9.2213-4.74117-13.116-2.29044-18.31237-.99135-4.16681-.89473-4.49833-7.56264-3.20952-12.456,6.09744-23.151,32.834-39.82141,66.3839-17.74345S298.16684,307.09849,284.40931,320.30093Z"/>
            <path class="cls-56" d="M293.12487,350.5397c2.57125-1.15338,5.15988-2.45767,7.70882-3.91474-1.98162-13.36167-6.43853-25.23932-13.34936-35.35225l-6.65809,4.24652C287.61629,325.4622,291.63271,336.96564,293.12487,350.5397Z"/>
          </g>
          <path class="cls-51" d="M264.171,359.78054c9.87661,7.64273,28.86215.2858,37.53476-10.92171s6.26757-28.14863-6.12847-29.66425C280.01619,317.292,254.29433,352.1378,264.171,359.78054Z"/>
        </g>
      </g>
    </g>
  </g>
  <g>
    <ellipse class="cls-11" cx="895.56805" cy="404.45656" rx="9.91662" ry="5.7164"/>
    <path class="cls-57" d="M905.48461,404.459c-.00257,3.156-4.44124,5.71409-9.91678,5.71409-5.47681,0-9.91634-2.55939-9.91634-5.71666v53.52265c0,3.15716,4.43953,5.71644,9.91634,5.71644s9.91678-2.55928,9.91678-5.71644V404.459Z"/>
    <path class="cls-58" d="M905.48461,410.95336c-.00257,3.156-4.44124,5.71409-9.91678,5.71409-5.47681,0-9.91634-2.55939-9.91634-5.71666v3.91979c0,3.15715,4.43953,5.71644,9.91634,5.71644s9.91678-2.55929,9.91678-5.71644Z"/>
    <path class="cls-59" d="M905.48461,446.11254c-.00257,3.156-4.44124,5.71409-9.91678,5.71409-5.47681,0-9.91634-2.55939-9.91634-5.71666v3.91978c0,3.15716,4.43953,5.71644,9.91634,5.71644s9.91678-2.55928,9.91678-5.71644Z"/>
    <path class="cls-32" d="M895.56812,400.05577c5.0686,0,8.60083,2.31934,8.60083,4.40088s-3.53223,4.40064-8.60083,4.40064c-5.06885,0-8.60108-2.31909-8.60108-4.40064s3.53223-4.40088,8.60108-4.40088m0-1.31567c-5.47681,0-9.91675,2.55933-9.91675,5.71655,0,3.157,4.43994,5.71631,9.91675,5.71631s9.9165-2.55933,9.9165-5.71631c0-3.15722-4.4397-5.71655-9.9165-5.71655Z"/>
  </g>
  <g>
    <g>
      <g>
        <g>
          <path class="cls-60" d="M851.96452,451.262,631.13436,320.633a3.36625,3.36625,0,0,0-3.67168.14533v-.00014l-20.47886,11.8456,21.02741,12.29954v98.81449l228.9556,120.32948V460.03A10.1855,10.1855,0,0,0,851.96452,451.262Z"/>
          <path class="cls-61" d="M605.37679,335.50956v121.3385L836.33213,576.02118V471.98394a10.18536,10.18536,0,0,0-5.00238-8.768l-220.8302-130.629A3.39511,3.39511,0,0,0,605.37679,335.50956Z"/>
          <path class="cls-62" d="M836.332,471.98394V585.92357L472.57978,660.03405,461.55686,891.8121a21.197,21.197,0,0,0,10.66553-2.83569L851.69744,669.6449a10.88259,10.88259,0,0,0,5.26646-9.71059l.003-75.53416V460.03Z"/>
          <path class="cls-63" d="M472.57987,660.03408,461.557,891.8121a21.05431,21.05431,0,0,1-10.5068-2.83567L237.65274,765.8374a10.45041,10.45041,0,0,1-5.27991-9.00433V680.58212Z"/>
          <g>
            <path class="cls-39" d="M836.33213,564.37871v39.837l-.01059-.01059a10.47112,10.47112,0,0,1-5.25866,9.618L472.21952,820.99185a21.09094,21.09094,0,0,1-10.66554,2.83567l11.02293-196.17884Z"/>
            <path class="cls-64" d="M836.33213,580.15524v39.837l-.01059-.01059a10.47111,10.47111,0,0,1-5.25866,9.618L472.21952,836.76839a21.091,21.091,0,0,1-10.66554,2.83566l11.02293-196.17884Z"/>
            <path class="cls-65" d="M472.57691,643.42521,461.554,839.60405a21.07406,21.07406,0,0,1-10.49621-2.83566L237.6603,713.62936a10.48748,10.48748,0,0,1-5.29044-9.17367V663.82517Z"/>
            <path class="cls-41" d="M735.76379,566.1444l-263.18,54.74945L461.56091,817.06627a21.08441,21.08441,0,0,0,10.66079-2.83894l231.39654-133.684,127.43815-73.48265a10.46557,10.46557,0,0,0,5.26072-9.60863h.02V557.60782Z"/>
            <path class="cls-41" d="M472.57691,620.88731,461.554,817.06615a21.074,21.074,0,0,1-10.49621-2.83567L237.6603,691.09146a10.48751,10.48751,0,0,1-5.29044-9.17367V641.28727Z"/>
            <path class="cls-42" d="M831.06057,548.53122,617.73169,425.408a21.16192,21.16192,0,0,0-21.16285-.0006L463.4572,502.15126h0L237.65732,632.56145a10.434,10.434,0,0,0-4.95979,6.5147,10.75875,10.75875,0,0,0-.33065,2.6488,10.4816,10.4816,0,0,0,5.29066,9.16327L387.2709,737.26356l63.78354,36.76386a21.14654,21.14654,0,0,0,9.21292,2.79073q.68387.04425,1.36928.0442a21.14754,21.14754,0,0,0,10.58175-2.83652L831.06123,566.85678A10.5809,10.5809,0,0,0,831.06057,548.53122Z"/>
          </g>
        </g>
        <path class="cls-66" d="M851.69744,444.679V669.6449l-5.96382,3.44876V444.679a7.46641,7.46641,0,0,0-3.65566-6.41674L615.72606,304.36614a.44359.44359,0,0,0-.49788,0,.453.453,0,0,0-.24895.43005v23.21118l-5.9641,3.44043V304.79619a6.453,6.453,0,0,1,9.74409-5.5567L845.11113,433.1356A13.462,13.462,0,0,1,851.69744,444.679Z"/>
      </g>
      <path class="cls-67" d="M824.21776,666.11549,490.87483,858.77209a10.18534,10.18534,0,0,0-5.08647,8.81718v13.5422L829.30209,682.59564l.0104-13.53849A3.39511,3.39511,0,0,0,824.21776,666.11549Z"/>
    </g>
    <g>
      <path class="cls-41" d="M611.284,476.14325c.22321-.24078,43.62934-25.1367,43.62934-25.1367-.22587-1.50717-.585-3.29018.38443-3.79419,1.10049-.572,3.3531.5375,4.5369,1.91531,15.05908-3.17956,21.98262-3.1251,51.93868,13.9062,38.82358,22.07286,41.18089,31.95563,49.87178,47.37221,2.70212,1.28336,4.14278,2.1507,3.52535,3.76777-.57149,1.49677-4.333,2.27126-6.23418,1.61024L717.974,539.30463c.3903,1.7312-.26957,4.04838-1.35981,4.594-1.43274.71715-3.482-.76921-4.39815-3.65314l-.001-.00229c-17.85764-.74006-42.17323-11.613-58.31385-21.7914-13.41312-8.45855-36.24582-22.05448-42.39573-36.56-2.37045-.0055-4.68151-1.19022-4.77133-2.6908C606.64293,477.6745,608.87069,476.39878,611.284,476.14325Z"/>
      <path class="cls-45" d="M607.23684,465.67994c.22321-.24079,43.62934-25.1367,43.62934-25.1367-.22587-1.50718-.585-3.29018.38443-3.79419,1.10049-.572,3.3531.5375,4.5369,1.9153,15.05908-3.17956,21.98262-3.12509,51.93868,13.9062,38.82358,22.07286,41.18089,31.95563,49.87178,47.37222,2.70212,1.28336,4.14278,2.1507,3.52535,3.76777-.57149,1.49677-4.333,2.27125-6.23418,1.61024l-40.96228,23.52054c.3903,1.7312-.26958,4.04838-1.35981,4.59395-1.43274.71715-3.482-.76921-4.39815-3.65314l-.001-.00229c-17.85764-.74007-42.17323-11.613-58.31385-21.79141-13.41312-8.45854-36.24582-22.05447-42.39574-36.56-2.37044-.00549-4.6815-1.19021-4.77132-2.69079C602.5958,467.21119,604.82356,465.93547,607.23684,465.67994Z"/>
      <path class="cls-46" d="M675.93572,505.27082c12.43115-6.6587,21.0852-24.12513,20.56428-40.30211l-40.46809,16.53807,11.52424,20.30634Z"/>
      <path class="cls-47" d="M669.65316,497.99983c-21.21895-14.8937-50.55829-32.96751-77.59341-6.46259l-29.13027,31.29108-63.65769,21.32553c-37.17184,22.9253,34.22381,61.59679,67.37152,60.51307l43.97891-25.44738,81.632-33.9571C696.37916,531.52625,682.31786,506.88925,669.65316,497.99983Z"/>
      <path class="cls-48" d="M660.95128,542.80316,643.129,555.64778c-20.27239-18.94648-40.64235-32.95255-68.74369-45.04056L564.463,520.87105l-61.68294,21.44912c-40.68024,24.75918,30.7156,63.43027,63.86325,62.34658l43.97883-25.44725,34.52732-10.32729,6.772,2.88236Z"/>
      <path class="cls-68" d="M446.96109,505.11768l4.97589-2.92784a53.03714,53.03714,0,0,1,37.79642-6.229c68.92662,14.48175,155.83019,58.094,179.16326,115.5715,17.07281,42.05634,18.92021,70.01131,18.21789,84.10662a27.33679,27.33679,0,0,1-7.64273,17.57277c-50.89512,53.00611-149.54176,107.31265-204.52,120.74119a26.69925,26.69925,0,0,1-13.77384-.2731c-94.05263-27.28744-194.61464-88.66806-235.599-129.16926a27.19165,27.19165,0,0,1-7.49442-24.96c2.83227-13.44573,7.82238-33.36446,14.35337-44.34246C242.9143,617.59825,446.96109,505.11768,446.96109,505.11768Z"/>
      <path class="cls-50" d="M560.88138,577.408l12.03036,4.96831a22.37249,22.37249,0,0,0,8.05654,1.7168l11.8929-.73283c11.88787,11.33322,41.09738,38.15006,52.12365,38.93778,7.5833.54161,16.14943-10.62281,22.40683-20.96382a109.4728,109.4728,0,0,0-18.352-28.01078,12.02208,12.02208,0,0,0-1.30395,2.74788l-4.95117,12.539L597.48733,565.68l-6.0296-4.94636a15.3303,15.3303,0,0,0-6.649-3.56762l-11.15984-3.20166a3.00624,3.00624,0,0,0-3.58912,2.00087c-.44533,1.39018,1.29045,3.38327,2.583,4.06257L560.48523,561.337a3.70448,3.70448,0,0,0-3.89812,3.92717l.41444,6.71394A6.29429,6.29429,0,0,0,560.88138,577.408Z"/>
      <path class="cls-50" d="M511.09723,517.9737c1.14568,9.71935,17.612,25.16523,23.16035,28.35363l7.27842,11.17722a19.35925,19.35925,0,0,0,7.50989,6.39967l9.61322,4.62066a5.83806,5.83806,0,0,0,6.41979-.909l4.69339-4.19432a6.86068,6.86068,0,0,0,1.22756-8.78112l-6.764-10.70012a15.24539,15.24539,0,0,0-9.30719-6.67367l-7.52064-1.564-1.62792-14.48158,14.51127-4.069a4.68846,4.68846,0,0,0,2.59235-2.42812c-10.92655-4.39651-18.44645-10.02532-29.263-13.15745C521.96637,506.38385,510.45887,512.55846,511.09723,517.9737Z"/>
      <g>
        <path class="cls-69" d="M540.65966,543.81993,552.581,533.38432l9.08482,1.88928a15.24643,15.24643,0,0,1,9.30717,6.67361l6.76386,10.7003a6.86057,6.86057,0,0,1-1.22751,8.78118l-4.69334,4.19436a5.83841,5.83841,0,0,1-6.41983.90878l-9.61312-4.62078a19.35985,19.35985,0,0,1-7.51-6.39954Z"/>
        <path class="cls-51" d="M604.58475,478.0059c-8.37454.57167-52.9507,11.66925-75.39707,23.1161-8.86175,4.51918-12.33637,9.03779-11.35341,14.85851,1.62963,9.65014,22.82539,27.83942,22.82539,27.83942L552.581,533.38432,547.78342,522.505l16.959-5.39859c25.74317-34.23072,52.24892-38.71426,66.24636-38.3063C623.59489,476.8892,616.26554,477.20878,604.58475,478.0059Z"/>
        <path class="cls-47" d="M604.58475,478.0059c-8.37454.57167-37.41878,3.4352-59.86516,14.88206-8.86175,4.51917,1.2766,31.65957,7.65957,30.7234l13.42886-2.49877c25.74316-34.23071,51.18335-42.72046,65.18079-42.3125C623.59489,476.8892,616.26554,477.20878,604.58475,478.0059Z"/>
        <polygon class="cls-48" points="591.044 494.834 555.713 522.991 565.808 521.113 591.044 494.834"/>
        <path class="cls-51" d="M540.99467,544.33427l7.27836,11.17719a19.35932,19.35932,0,0,0,7.50989,6.39967l9.61322,4.62066a5.83806,5.83806,0,0,0,6.41979-.909l4.69339-4.19432a6.86067,6.86067,0,0,0,1.22756-8.78112l-6.764-10.70012a15.24539,15.24539,0,0,0-9.30719-6.67367l-7.52061-1.56409C544.12385,530.93051,539.29349,541.47221,540.99467,544.33427Z"/>
        <path class="cls-52" d="M577.73688,552.6474l-4.14171-6.552-2.7369-.785a3.00624,3.00624,0,0,0-3.58912,2.00087h0c-.44532,1.39018,1.29045,3.38327,2.583,4.06258l-12.15754,1.30921a3.70417,3.70417,0,0,0-3.89789,3.92717l.26852,4.354a19.42618,19.42618,0,0,0,1.71771.94691l9.61322,4.62066a5.83806,5.83806,0,0,0,6.41979-.909l4.69339-4.19432A6.86067,6.86067,0,0,0,577.73688,552.6474Z"/>
        <path class="cls-51" d="M563.80609,535.96128l12.03191,4.78353c3.46161,1.39364,1.18591,4.99307-1.39681,4.41353l-3.2587-.72242Z"/>
      </g>
      <path class="cls-51" d="M591.45771,553.23905a15.33056,15.33056,0,0,0-6.649-3.56793l-11.15986-3.20149a3.0065,3.0065,0,0,0-3.58917,2.00065v0c-.44525,1.39041,1.29059,3.3837,2.58311,4.06258l3.18551-.34307-15.343,1.65242a3.70438,3.70438,0,0,0-3.89805,3.92712l.41435,6.71395a6.29432,6.29432,0,0,0,3.87986,5.43007l12.03033,4.96808a22.37036,22.37036,0,0,0,8.05646,1.71685l14.62447-.901,5.49646-14.55743Z"/>
      <path class="cls-47" d="M656.69816,541.3477s-12.89663,19.01418-17.61909,29.3602c-8.6197,18.44308,27.57067,31.83793,35.06605,21.49921,5.744-8.55459,15.12766-35.617,18.43561-48.12992C696.19108,526.64457,666.31876,523.74931,656.69816,541.3477Z"/>
      <ellipse class="cls-48" cx="656.03236" cy="583.74318" rx="8.34206" ry="17.98102" transform="translate(-148.41743 935.87255) rotate(-65.30325)"/>
      <path class="cls-51" d="M641.23023,575.69647l-2.14462,3.54649L599.087,559.49744,591.49068,575.95s39.5024,37.85349,53.49434,38.85325c10.20484.729,18.11377-10.08741,21.65015-15.999l4.57378-7.74607C675.01746,584.71774,645.65576,569.4837,641.23023,575.69647Z"/>
      <g>
        <path class="cls-51" d="M642.12467,485.80386c-7.8379,4.02791-10.08833,16.18463-2.57013,21.74529,10.62148,7.85594,28.14627,1.55309,27.26041-9.37444C665.881,486.65433,649.59751,481.96357,642.12467,485.80386Z"/>
        <path class="cls-52" d="M644.6178,488.66675c-2.15178,2.59825-3.38538,5.74984-1.22052,9.07631,4.39278,6.74984,14.985,7.85364,18.705,2.76848l9.74209-13.619L654.62912,476.769Z"/>
      </g>
      <g>
        <path class="cls-70" d="M658.06386,436.7277c-6.58309,4.01787-6.33918,14.62129-6.33918,14.62129l-4.283,11.501,14.02779-13.66518Z"/>
        <path class="cls-51" d="M648.03919,490.21989c10.77488,4.57257,22.43056.14391,29.25516-8.16239l14.72528-17.98205c6.1429-7.0881,1.414-16.15556-7.41887-22.55584-7.71982-5.59377-20.31016-4.98806-26.511,3.56083A213.47048,213.47048,0,0,0,645.74067,464.964C640.9024,474.19689,638.24715,486.06441,648.03919,490.21989Z"/>
        <path class="cls-71" d="M679.05055,437.64439c-12.47752-5.73212-21.46252-3.80319-25.11234,3.6833-6.56352,13.46309,12.29541,19.55234,15.30412,24.15624,1.33885,2.56827,1.94751,4.061,1.41357,6.29952l-2.03748,2.9096c-.938,1.22116,2.10292,3.19691,2.10292,3.19691a71.45119,71.45119,0,0,0-1.397,7.29764c-1.04858,2.57689-3.22019,9.64668-3.22019,9.64668,5.36161-3.38315,15.31264-11.58468,15.31264-11.58468s13.79248-6.25882,15.551-17.27421C698.874,454.03471,689.79769,442.58159,679.05055,437.64439Z"/>
        <g>
          <path class="cls-72" d="M673.33525,475.06666c-4.22322,4.05283-9.03149,2.58067-16.19768-5.19936-2.132-2.31466-3.66152-4.2327-5.40971-5.13154-2.86642-1.47378-4.07708-.712-5.69236-.30816-1.29524-.27812-1.3983-2.35083-.99768-3.87192,1.89538-7.19643,10.20639-12.3784,20.63529-5.51551S677.61175,470.96271,673.33525,475.06666Z"/>
          <path class="cls-73" d="M676.04446,484.46632c.79927-.35853,1.60394-.764,2.39627-1.21689a26.0111,26.0111,0,0,0-4.14962-10.98917l-2.06965,1.32A23.35379,23.35379,0,0,1,676.04446,484.46632Z"/>
        </g>
        <path class="cls-51" d="M667.0442,487.33881c3.07012,2.37573,8.97174.08884,11.6676-3.395s1.94826-8.74994-1.905-9.22106C671.96966,474.13134,663.97408,484.96308,667.0442,487.33881Z"/>
      </g>
    </g>
  </g>
  <g>
    <circle class="cls-33" cx="105.34043" cy="169.43726" r="62.02326"/>
    <g>
      <rect class="cls-74" x="84.28363" y="160.79502" width="13.46241" height="40.4658" transform="translate(-101.34844 117.37906) rotate(-45)"/>
      <rect class="cls-74" x="110.49446" y="143.61416" width="13.46241" height="60.59444" transform="translate(77.14282 379.77635) rotate(-135)"/>
    </g>
  </g>
  <g>
    <g>
      <polygon class="cls-75" points="750.714 265.91 750.754 356.612 673.474 311.858 673.435 221.156 750.714 265.91"/>
      <polygon class="cls-76" points="747.408 264.001 747.439 342.629 683.885 305.8 683.855 227.172 747.408 264.001"/>
      <polygon class="cls-77" points="736.052 272.657 736.072 325.962 692.988 300.995 692.967 247.69 736.052 272.657"/>
      <path class="cls-78" d="M746.41632,349.10536,677.804,309.35585l-.0322-80.69349,68.61233,39.74952.03218,80.69348m4.33729,7.5063-.03922-90.70188-77.27987-44.75372.03924,90.70189,77.27985,44.75371Z"/>
      <polygon class="cls-79" points="678.325 218.325 755.605 263.079 750.714 265.91 673.435 221.156 678.325 218.325"/>
      <polygon class="cls-80" points="755.605 263.079 755.628 353.79 750.754 356.612 750.714 265.91 755.605 263.079"/>
    </g>
    <g>
      <polygon class="cls-81" points="815.963 336.547 816.002 395.249 762.971 364.495 762.932 305.793 815.963 336.547"/>
      <polygon class="cls-82" points="812.657 334.638 812.687 381.266 773.383 358.437 773.352 311.809 812.657 334.638"/>
      <path class="cls-83" d="M811.665,387.74243l-44.3636-25.74951-.0322-48.69349,44.36362,25.74951.03218,48.69349m4.33729,7.5063-.03922-58.70188-53.03116-30.75372.03924,58.70188,53.03114,30.75372Z"/>
      <polygon class="cls-84" points="767.823 302.962 820.854 333.716 815.963 336.547 762.932 305.793 767.823 302.962"/>
      <polygon class="cls-85" points="820.854 333.716 820.876 392.427 816.002 395.249 815.963 336.547 820.854 333.716"/>
    </g>
  </g>
</svg>
