<svg id="Layer_1" data-name="Layer 1" xmlns="http://www.w3.org/2000/svg" xmlns:xlink="http://www.w3.org/1999/xlink" viewBox="0 0 1000 1000">
  <defs>
    <style>
      .cls-1 {
        fill: url(#linear-gradient);
      }

      .cls-2 {
        fill: #fff;
      }

      .cls-3 {
        fill: #b8cbd8;
      }

      .cls-4 {
        fill: url(#linear-gradient-2);
      }

      .cls-5 {
        opacity: 0.6;
      }

      .cls-33, .cls-35, .cls-6 {
        fill: #9bb0c4;
      }

      .cls-7 {
        fill: url(#linear-gradient-3);
      }

      .cls-8 {
        fill: url(#linear-gradient-4);
      }

      .cls-9 {
        fill: url(#linear-gradient-5);
      }

      .cls-10 {
        opacity: 0.4;
        fill: url(#linear-gradient-6);
      }

      .cls-11 {
        fill: url(#linear-gradient-7);
      }

      .cls-12 {
        fill: url(#linear-gradient-8);
      }

      .cls-13 {
        fill: url(#linear-gradient-9);
      }

      .cls-14 {
        fill: url(#linear-gradient-10);
      }

      .cls-15 {
        fill: url(#linear-gradient-11);
      }

      .cls-16 {
        fill: url(#linear-gradient-12);
      }

      .cls-17 {
        fill: url(#linear-gradient-13);
      }

      .cls-18 {
        fill: url(#linear-gradient-14);
      }

      .cls-19 {
        fill: url(#linear-gradient-15);
      }

      .cls-20 {
        fill: url(#linear-gradient-16);
      }

      .cls-21 {
        fill: url(#linear-gradient-17);
      }

      .cls-22 {
        fill: url(#linear-gradient-18);
      }

      .cls-23 {
        fill: url(#linear-gradient-19);
      }

      .cls-24 {
        fill: #e58630;
      }

      .cls-25 {
        fill: url(#linear-gradient-20);
      }

      .cls-26 {
        fill: #ffcb48;
      }

      .cls-27 {
        fill: url(#linear-gradient-21);
      }

      .cls-28 {
        fill: url(#linear-gradient-22);
      }

      .cls-29 {
        fill: url(#linear-gradient-23);
      }

      .cls-30 {
        fill: #748ca3;
      }

      .cls-31 {
        fill: #586c7f;
      }

      .cls-32 {
        fill: url(#linear-gradient-24);
      }

      .cls-133, .cls-33 {
        opacity: 0.5;
      }

      .cls-34, .cls-35 {
        opacity: 0.9;
      }

      .cls-127, .cls-128, .cls-36, .cls-40 {
        fill: none;
        stroke-miterlimit: 10;
      }

      .cls-36, .cls-40 {
        stroke-width: 6px;
      }

      .cls-36 {
        stroke: url(#linear-gradient-25);
      }

      .cls-37 {
        fill: url(#linear-gradient-26);
      }

      .cls-38 {
        fill: url(#linear-gradient-27);
      }

      .cls-39 {
        fill: url(#linear-gradient-28);
      }

      .cls-40 {
        stroke: url(#linear-gradient-29);
      }

      .cls-41 {
        fill: url(#linear-gradient-30);
      }

      .cls-42 {
        fill: url(#linear-gradient-31);
      }

      .cls-43 {
        fill: url(#linear-gradient-32);
      }

      .cls-44 {
        fill: #a3bbce;
      }

      .cls-45 {
        fill: url(#linear-gradient-33);
      }

      .cls-46 {
        fill: #cddce8;
      }

      .cls-47 {
        fill: url(#linear-gradient-34);
      }

      .cls-48 {
        fill: url(#linear-gradient-35);
      }

      .cls-49 {
        fill: url(#linear-gradient-36);
      }

      .cls-50 {
        fill: url(#linear-gradient-37);
      }

      .cls-51 {
        fill: url(#linear-gradient-38);
      }

      .cls-52 {
        fill: url(#linear-gradient-39);
      }

      .cls-53 {
        fill: url(#linear-gradient-40);
      }

      .cls-54 {
        fill: url(#linear-gradient-41);
      }

      .cls-55 {
        fill: url(#linear-gradient-42);
      }

      .cls-56 {
        fill: url(#linear-gradient-43);
      }

      .cls-57 {
        fill: url(#linear-gradient-44);
      }

      .cls-58 {
        fill: url(#linear-gradient-45);
      }

      .cls-59 {
        fill: url(#linear-gradient-46);
      }

      .cls-60 {
        fill: url(#linear-gradient-47);
      }

      .cls-61 {
        fill: url(#linear-gradient-48);
      }

      .cls-62 {
        fill: url(#linear-gradient-49);
      }

      .cls-63 {
        fill: url(#linear-gradient-50);
      }

      .cls-64 {
        fill: url(#linear-gradient-51);
      }

      .cls-65 {
        fill: url(#linear-gradient-52);
      }

      .cls-66 {
        fill: url(#linear-gradient-53);
      }

      .cls-67 {
        fill: url(#linear-gradient-54);
      }

      .cls-68 {
        fill: url(#linear-gradient-55);
      }

      .cls-69 {
        fill: url(#linear-gradient-56);
      }

      .cls-70 {
        fill: url(#linear-gradient-57);
      }

      .cls-71 {
        fill: url(#linear-gradient-58);
      }

      .cls-72 {
        fill: url(#linear-gradient-59);
      }

      .cls-73 {
        fill: url(#linear-gradient-60);
      }

      .cls-74 {
        fill: url(#linear-gradient-61);
      }

      .cls-75 {
        fill: url(#linear-gradient-62);
      }

      .cls-76 {
        fill: url(#linear-gradient-63);
      }

      .cls-77 {
        fill: url(#linear-gradient-64);
      }

      .cls-78 {
        fill: url(#linear-gradient-65);
      }

      .cls-79 {
        fill: url(#linear-gradient-66);
      }

      .cls-80 {
        fill: url(#linear-gradient-67);
      }

      .cls-81 {
        fill: url(#linear-gradient-68);
      }

      .cls-82 {
        fill: url(#linear-gradient-69);
      }

      .cls-83 {
        fill: url(#linear-gradient-70);
      }

      .cls-84 {
        fill: url(#linear-gradient-71);
      }

      .cls-85 {
        fill: url(#linear-gradient-72);
      }

      .cls-86 {
        fill: url(#linear-gradient-73);
      }

      .cls-87 {
        fill: url(#linear-gradient-74);
      }

      .cls-88 {
        fill: url(#linear-gradient-75);
      }

      .cls-89 {
        fill: url(#linear-gradient-76);
      }

      .cls-90 {
        fill: url(#linear-gradient-77);
      }

      .cls-91 {
        fill: url(#linear-gradient-78);
      }

      .cls-92 {
        fill: url(#linear-gradient-79);
      }

      .cls-93 {
        fill: url(#linear-gradient-80);
      }

      .cls-94 {
        fill: url(#linear-gradient-81);
      }

      .cls-95 {
        fill: url(#linear-gradient-82);
      }

      .cls-96 {
        fill: url(#linear-gradient-83);
      }

      .cls-97 {
        fill: url(#linear-gradient-84);
      }

      .cls-98 {
        fill: url(#linear-gradient-85);
      }

      .cls-99 {
        fill: url(#linear-gradient-86);
      }

      .cls-100 {
        fill: url(#linear-gradient-87);
      }

      .cls-101 {
        fill: url(#linear-gradient-88);
      }

      .cls-102 {
        fill: url(#linear-gradient-89);
      }

      .cls-103 {
        fill: url(#linear-gradient-90);
      }

      .cls-104 {
        fill: url(#linear-gradient-91);
      }

      .cls-105 {
        fill: url(#linear-gradient-92);
      }

      .cls-106 {
        fill: url(#linear-gradient-93);
      }

      .cls-107 {
        fill: url(#linear-gradient-94);
      }

      .cls-108 {
        fill: url(#linear-gradient-95);
      }

      .cls-109 {
        fill: url(#linear-gradient-96);
      }

      .cls-110 {
        fill: url(#linear-gradient-97);
      }

      .cls-111 {
        fill: url(#linear-gradient-98);
      }

      .cls-112 {
        fill: url(#linear-gradient-99);
      }

      .cls-113 {
        fill: #27343d;
      }

      .cls-114 {
        fill: url(#linear-gradient-100);
      }

      .cls-115 {
        fill: url(#linear-gradient-101);
      }

      .cls-116 {
        fill: #724133;
      }

      .cls-117 {
        fill: #d7ebf4;
      }

      .cls-118 {
        fill: url(#linear-gradient-102);
      }

      .cls-119 {
        fill: url(#linear-gradient-103);
      }

      .cls-120 {
        fill: url(#linear-gradient-104);
      }

      .cls-121 {
        fill: url(#linear-gradient-105);
      }

      .cls-122 {
        fill: url(#linear-gradient-106);
      }

      .cls-123 {
        fill: url(#linear-gradient-107);
      }

      .cls-124 {
        fill: url(#linear-gradient-108);
      }

      .cls-125 {
        fill: url(#linear-gradient-109);
      }

      .cls-126 {
        fill: url(#linear-gradient-110);
      }

      .cls-127, .cls-128 {
        stroke-width: 6.39315px;
      }

      .cls-127 {
        stroke: url(#linear-gradient-111);
      }

      .cls-128 {
        stroke: url(#linear-gradient-112);
      }

      .cls-129 {
        fill: url(#linear-gradient-113);
      }

      .cls-130 {
        fill: url(#linear-gradient-114);
      }

      .cls-131 {
        fill: url(#linear-gradient-115);
      }

      .cls-132 {
        fill: url(#linear-gradient-116);
      }

      .cls-133 {
        fill: #dd7b19;
      }

      .cls-134 {
        fill: #303d49;
      }

      .cls-135 {
        fill: #e9f1f4;
      }

      .cls-136 {
        fill: url(#linear-gradient-117);
      }

      .cls-137 {
        fill: url(#linear-gradient-118);
      }

      .cls-138 {
        fill: url(#linear-gradient-119);
      }

      .cls-139 {
        fill: #93514c;
      }

      .cls-140 {
        fill: #7a403f;
      }

      .cls-141 {
        fill: #ffcd5c;
      }

      .cls-142 {
        fill: #323f4c;
      }

      .cls-143 {
        fill: url(#linear-gradient-120);
      }

      .cls-144 {
        fill: url(#linear-gradient-121);
      }

      .cls-145 {
        fill: url(#linear-gradient-122);
      }

      .cls-146 {
        fill: url(#linear-gradient-123);
      }

      .cls-147 {
        fill: url(#linear-gradient-124);
      }

      .cls-148 {
        fill: url(#linear-gradient-125);
      }

      .cls-149 {
        fill: url(#linear-gradient-126);
      }

      .cls-150 {
        fill: url(#linear-gradient-127);
      }

      .cls-151 {
        fill: url(#linear-gradient-128);
      }

      .cls-152 {
        fill: url(#linear-gradient-129);
      }

      .cls-153 {
        fill: url(#linear-gradient-130);
      }

      .cls-154 {
        fill: url(#linear-gradient-131);
      }

      .cls-155 {
        fill: url(#linear-gradient-132);
      }

      .cls-156 {
        fill: url(#linear-gradient-133);
      }

      .cls-157 {
        fill: url(#linear-gradient-134);
      }

      .cls-158 {
        fill: url(#linear-gradient-135);
      }

      .cls-159 {
        fill: url(#linear-gradient-136);
      }

      .cls-160 {
        fill: url(#linear-gradient-137);
      }

      .cls-161 {
        fill: url(#linear-gradient-138);
      }
    </style>
    <linearGradient id="linear-gradient" x1="500.38526" y1="381.81496" x2="907.0315" y2="381.81496" gradientUnits="userSpaceOnUse">
      <stop offset="0" stop-color="#f0f9ff"/>
      <stop offset="1" stop-color="#c3d6e6"/>
    </linearGradient>
    <linearGradient id="linear-gradient-2" x1="93.75469" y1="696.80704" x2="907.0315" y2="696.80704" gradientUnits="userSpaceOnUse">
      <stop offset="0" stop-color="#dae9f2"/>
      <stop offset="1" stop-color="#b8c8d8"/>
    </linearGradient>
    <linearGradient id="linear-gradient-3" x1="-1968.63666" y1="558.29379" x2="-1848.00559" y2="637.71919" gradientTransform="translate(2241.2766)" gradientUnits="userSpaceOnUse">
      <stop offset="0" stop-color="#fff"/>
      <stop offset="0.94545" stop-color="#fff" stop-opacity="0"/>
    </linearGradient>
    <linearGradient id="linear-gradient-4" x1="681.25198" y1="350.92568" x2="758.57105" y2="350.92568" gradientTransform="translate(-18.64021 -32.28579)" gradientUnits="userSpaceOnUse">
      <stop offset="0" stop-color="#435466"/>
      <stop offset="1" stop-color="#62778c"/>
    </linearGradient>
    <linearGradient id="linear-gradient-5" x1="691.67217" y1="346.94243" x2="755.25614" y2="346.94243" gradientTransform="translate(-18.64021 -32.28579)" gradientUnits="userSpaceOnUse">
      <stop offset="0" stop-color="#fff"/>
      <stop offset="0.98888" stop-color="#e6edf2"/>
    </linearGradient>
    <linearGradient id="linear-gradient-6" x1="701.37278" y1="349.48861" x2="744.47823" y2="349.48861" gradientTransform="translate(-18.64021 -32.28579)" gradientUnits="userSpaceOnUse">
      <stop offset="0" stop-color="#62778c"/>
      <stop offset="1" stop-color="#435466"/>
    </linearGradient>
    <linearGradient id="linear-gradient-7" x1="681.25196" y1="350.92568" x2="758.57105" y2="350.92568" gradientTransform="translate(-18.64021 -32.28579)" gradientUnits="userSpaceOnUse">
      <stop offset="0" stop-color="#849bb2"/>
      <stop offset="1" stop-color="#5b6f82"/>
    </linearGradient>
    <linearGradient id="linear-gradient-8" x1="698.2174" y1="272.27909" x2="777.71727" y2="377.35717" xlink:href="#linear-gradient-6"/>
    <linearGradient id="linear-gradient-9" x1="666.75493" y1="247.32389" x2="784.63908" y2="403.13598" xlink:href="#linear-gradient-6"/>
    <linearGradient id="linear-gradient-10" x1="628.86821" y1="192.67928" x2="544.06786" y2="447.67751" gradientTransform="matrix(1, 0, 0, 1, 0, 0)" xlink:href="#linear-gradient-6"/>
    <linearGradient id="linear-gradient-11" x1="-3308.69598" y1="309.91721" x2="-3249.96926" y2="309.91721" gradientTransform="matrix(-1, 0, 0, 1, -2689.44395, 0)" gradientUnits="userSpaceOnUse">
      <stop offset="0" stop-color="#5b6f82"/>
      <stop offset="1" stop-color="#849bb2"/>
    </linearGradient>
    <linearGradient id="linear-gradient-12" x1="870.54521" y1="331.38799" x2="785.74486" y2="586.38623" gradientTransform="matrix(1, 0, 0, 1, 0, 0)" xlink:href="#linear-gradient-6"/>
    <linearGradient id="linear-gradient-13" x1="-3550.37298" y1="448.62593" x2="-3491.64626" y2="448.62593" xlink:href="#linear-gradient-11"/>
    <linearGradient id="linear-gradient-14" x1="126.06681" y1="380.50787" x2="469.40953" y2="380.50787" gradientTransform="matrix(1, 0, 0, 1, 0, 0)" xlink:href="#linear-gradient-11"/>
    <linearGradient id="linear-gradient-15" x1="487.78324" y1="277.48953" x2="113.88623" y2="480.16833" gradientTransform="matrix(1, 0, 0, 1, 0, 0)" xlink:href="#linear-gradient-6"/>
    <linearGradient id="linear-gradient-16" x1="420.74382" y1="309.74349" x2="282.2655" y2="384.8086" gradientTransform="matrix(1, 0, 0, 1, 0, 0)" xlink:href="#linear-gradient-6"/>
    <linearGradient id="linear-gradient-17" x1="309.27502" y1="374.09592" x2="170.7967" y2="449.16103" gradientTransform="matrix(1, 0, 0, 1, 0, 0)" xlink:href="#linear-gradient-6"/>
    <linearGradient id="linear-gradient-18" x1="155.11502" y1="475.00434" x2="180.16507" y2="475.00434" gradientUnits="userSpaceOnUse">
      <stop offset="0" stop-color="#e68e2b"/>
      <stop offset="0.99995" stop-color="#ffcb48"/>
    </linearGradient>
    <linearGradient id="linear-gradient-19" x1="139.22512" y1="483.91178" x2="164.27517" y2="483.91178" xlink:href="#linear-gradient-18"/>
    <linearGradient id="linear-gradient-20" x1="123.33523" y1="493.15745" x2="148.39505" y2="493.15745" xlink:href="#linear-gradient-18"/>
    <linearGradient id="linear-gradient-21" x1="464.1104" y1="296.23257" x2="489.16045" y2="296.23257" xlink:href="#linear-gradient-18"/>
    <linearGradient id="linear-gradient-22" x1="448.22051" y1="305.14001" x2="473.27056" y2="305.14001" xlink:href="#linear-gradient-18"/>
    <linearGradient id="linear-gradient-23" x1="432.33062" y1="314.38568" x2="457.39043" y2="314.38568" xlink:href="#linear-gradient-18"/>
    <linearGradient id="linear-gradient-24" x1="-82.9834" y1="224.41058" x2="480.83538" y2="224.41058" gradientTransform="matrix(1, 0, 0, 1, 0, 0)" xlink:href="#linear-gradient-11"/>
    <linearGradient id="linear-gradient-25" x1="4930.97179" y1="640.51676" x2="5071.79898" y2="704.85772" gradientTransform="matrix(-1, 0, 0, 1, 5301.25532, 0)" gradientUnits="userSpaceOnUse">
      <stop offset="0" stop-color="#3e4c59"/>
      <stop offset="1" stop-color="#293440"/>
    </linearGradient>
    <linearGradient id="linear-gradient-26" x1="268.43241" y1="518.38066" x2="326.47668" y2="643.65135" gradientTransform="matrix(1, 0, 0, 1, 0, 0)" xlink:href="#linear-gradient-6"/>
    <linearGradient id="linear-gradient-27" x1="3034.22576" y1="523.99568" x2="3116.27087" y2="701.06481" gradientTransform="translate(-2778.38305)" xlink:href="#linear-gradient-6"/>
    <linearGradient id="linear-gradient-28" x1="-5994.5629" y1="629.29966" x2="-5965.67971" y2="691.63515" gradientTransform="matrix(-1, 0, 0, 1, -5616.2766, 0)" xlink:href="#linear-gradient-25"/>
    <linearGradient id="linear-gradient-29" x1="4607.62073" y1="453.84511" x2="4748.44792" y2="518.18607" xlink:href="#linear-gradient-25"/>
    <linearGradient id="linear-gradient-30" x1="362.77853" y1="437.01662" x2="785.37424" y2="675.19008" gradientTransform="matrix(1, 0, 0, 1, 0, 0)" xlink:href="#linear-gradient-25"/>
    <linearGradient id="linear-gradient-31" x1="236.557" y1="483.22231" x2="688.91023" y2="483.22231" gradientUnits="userSpaceOnUse">
      <stop offset="0" stop-color="#62788c"/>
      <stop offset="1" stop-color="#526575"/>
    </linearGradient>
    <linearGradient id="linear-gradient-32" x1="248.36436" y1="473.8936" x2="684.61459" y2="473.8936" gradientTransform="matrix(1, 0, 0, 1, 0, 0)" xlink:href="#linear-gradient-7"/>
    <linearGradient id="linear-gradient-33" x1="394.15976" y1="442.82603" x2="473.08414" y2="442.82603" gradientUnits="userSpaceOnUse">
      <stop offset="0" stop-color="#293440"/>
      <stop offset="1" stop-color="#3e4c59"/>
    </linearGradient>
    <linearGradient id="linear-gradient-34" x1="419.77886" y1="484.31747" x2="490.94663" y2="510.84125" gradientTransform="matrix(1, 0, 0, 1, 0, 0)" xlink:href="#linear-gradient-7"/>
    <linearGradient id="linear-gradient-35" x1="418.41366" y1="487.98053" x2="489.58143" y2="514.50431" gradientTransform="matrix(1, 0, 0, 1, 0, 0)" xlink:href="#linear-gradient-7"/>
    <linearGradient id="linear-gradient-36" x1="434.79608" y1="444.02374" x2="505.96385" y2="470.54752" gradientTransform="matrix(1, 0, 0, 1, 0, 0)" xlink:href="#linear-gradient-7"/>
    <linearGradient id="linear-gradient-37" x1="433.43088" y1="447.6868" x2="504.59865" y2="474.21058" gradientTransform="matrix(1, 0, 0, 1, 0, 0)" xlink:href="#linear-gradient-7"/>
    <linearGradient id="linear-gradient-38" x1="432.06568" y1="451.34987" x2="503.23345" y2="477.87365" gradientTransform="matrix(1, 0, 0, 1, 0, 0)" xlink:href="#linear-gradient-7"/>
    <linearGradient id="linear-gradient-39" x1="430.70047" y1="455.01293" x2="501.86824" y2="481.53672" gradientTransform="matrix(1, 0, 0, 1, 0, 0)" xlink:href="#linear-gradient-7"/>
    <linearGradient id="linear-gradient-40" x1="429.33527" y1="458.676" x2="500.50304" y2="485.19978" gradientTransform="matrix(1, 0, 0, 1, 0, 0)" xlink:href="#linear-gradient-7"/>
    <linearGradient id="linear-gradient-41" x1="427.97007" y1="462.33907" x2="499.13784" y2="488.86285" gradientTransform="matrix(1, 0, 0, 1, 0, 0)" xlink:href="#linear-gradient-7"/>
    <linearGradient id="linear-gradient-42" x1="426.60487" y1="466.00213" x2="497.77264" y2="492.52592" gradientTransform="matrix(1, 0, 0, 1, 0, 0)" xlink:href="#linear-gradient-7"/>
    <linearGradient id="linear-gradient-43" x1="425.23967" y1="469.6652" x2="496.40744" y2="496.18898" gradientTransform="matrix(1, 0, 0, 1, 0, 0)" xlink:href="#linear-gradient-7"/>
    <linearGradient id="linear-gradient-44" x1="423.87446" y1="473.32827" x2="495.04223" y2="499.85205" gradientTransform="matrix(1, 0, 0, 1, 0, 0)" xlink:href="#linear-gradient-7"/>
    <linearGradient id="linear-gradient-45" x1="422.50926" y1="476.99133" x2="493.67703" y2="503.51512" gradientTransform="matrix(1, 0, 0, 1, 0, 0)" xlink:href="#linear-gradient-7"/>
    <linearGradient id="linear-gradient-46" x1="421.14406" y1="480.6544" x2="492.31183" y2="507.17818" gradientTransform="matrix(1, 0, 0, 1, 0, 0)" xlink:href="#linear-gradient-7"/>
    <linearGradient id="linear-gradient-47" x1="431.29328" y1="453.42234" x2="502.46105" y2="479.94612" gradientTransform="matrix(1, 0, 0, 1, 0, 0)" xlink:href="#linear-gradient-7"/>
    <linearGradient id="linear-gradient-48" x1="429.91792" y1="457.11266" x2="501.08569" y2="483.63644" gradientTransform="matrix(1, 0, 0, 1, 0, 0)" xlink:href="#linear-gradient-7"/>
    <linearGradient id="linear-gradient-49" x1="428.54256" y1="460.80297" x2="499.71033" y2="487.32675" gradientTransform="matrix(1, 0, 0, 1, 0, 0)" xlink:href="#linear-gradient-7"/>
    <linearGradient id="linear-gradient-50" x1="427.16721" y1="464.49328" x2="498.33498" y2="491.01707" gradientTransform="matrix(1, 0, 0, 1, 0, 0)" xlink:href="#linear-gradient-7"/>
    <linearGradient id="linear-gradient-51" x1="425.79185" y1="468.1836" x2="496.95962" y2="494.70738" gradientTransform="matrix(1, 0, 0, 1, 0, 0)" xlink:href="#linear-gradient-7"/>
    <linearGradient id="linear-gradient-52" x1="424.41649" y1="471.87391" x2="495.58426" y2="498.3977" gradientTransform="matrix(1, 0, 0, 1, 0, 0)" xlink:href="#linear-gradient-7"/>
    <linearGradient id="linear-gradient-53" x1="423.04114" y1="475.56423" x2="494.20891" y2="502.08801" gradientTransform="matrix(1, 0, 0, 1, 0, 0)" xlink:href="#linear-gradient-7"/>
    <linearGradient id="linear-gradient-54" x1="421.66578" y1="479.25454" x2="492.83355" y2="505.77833" gradientTransform="matrix(1, 0, 0, 1, 0, 0)" xlink:href="#linear-gradient-7"/>
    <linearGradient id="linear-gradient-55" x1="420.29042" y1="482.94486" x2="491.45819" y2="509.46864" gradientTransform="matrix(1, 0, 0, 1, 0, 0)" xlink:href="#linear-gradient-7"/>
    <linearGradient id="linear-gradient-56" x1="432.66864" y1="449.73203" x2="503.83641" y2="476.25581" gradientTransform="matrix(1, 0, 0, 1, 0, 0)" xlink:href="#linear-gradient-7"/>
    <linearGradient id="linear-gradient-57" x1="434.24722" y1="445.49642" x2="505.41499" y2="472.02021" gradientTransform="matrix(1, 0, 0, 1, 0, 0)" xlink:href="#linear-gradient-7"/>
    <linearGradient id="linear-gradient-58" x1="433.65877" y1="447.07532" x2="504.82654" y2="473.5991" gradientTransform="matrix(1, 0, 0, 1, 0, 0)" xlink:href="#linear-gradient-7"/>
    <linearGradient id="linear-gradient-59" x1="430.35487" y1="455.94025" x2="501.52264" y2="482.46403" gradientTransform="matrix(1, 0, 0, 1, 0, 0)" xlink:href="#linear-gradient-7"/>
    <linearGradient id="linear-gradient-60" x1="428.98614" y1="459.61278" x2="500.15391" y2="486.13656" gradientTransform="matrix(1, 0, 0, 1, 0, 0)" xlink:href="#linear-gradient-7"/>
    <linearGradient id="linear-gradient-61" x1="427.61741" y1="463.2853" x2="498.78518" y2="489.80909" gradientTransform="matrix(1, 0, 0, 1, 0, 0)" xlink:href="#linear-gradient-7"/>
    <linearGradient id="linear-gradient-62" x1="426.24869" y1="466.95783" x2="497.41646" y2="493.48161" gradientTransform="matrix(1, 0, 0, 1, 0, 0)" xlink:href="#linear-gradient-7"/>
    <linearGradient id="linear-gradient-63" x1="424.87996" y1="470.63036" x2="496.04773" y2="497.15414" gradientTransform="matrix(1, 0, 0, 1, 0, 0)" xlink:href="#linear-gradient-7"/>
    <linearGradient id="linear-gradient-64" x1="423.51123" y1="474.30289" x2="494.679" y2="500.82667" gradientTransform="matrix(1, 0, 0, 1, 0, 0)" xlink:href="#linear-gradient-7"/>
    <linearGradient id="linear-gradient-65" x1="422.1425" y1="477.97542" x2="493.31027" y2="504.4992" gradientTransform="matrix(1, 0, 0, 1, 0, 0)" xlink:href="#linear-gradient-7"/>
    <linearGradient id="linear-gradient-66" x1="420.77377" y1="481.64794" x2="491.94154" y2="508.17173" gradientTransform="matrix(1, 0, 0, 1, 0, 0)" xlink:href="#linear-gradient-7"/>
    <linearGradient id="linear-gradient-67" x1="419.40504" y1="485.32047" x2="490.57281" y2="511.84425" gradientTransform="matrix(1, 0, 0, 1, 0, 0)" xlink:href="#linear-gradient-7"/>
    <linearGradient id="linear-gradient-68" x1="417.91325" y1="489.3232" x2="489.08102" y2="515.84698" gradientTransform="matrix(1, 0, 0, 1, 0, 0)" xlink:href="#linear-gradient-7"/>
    <linearGradient id="linear-gradient-69" x1="431.7236" y1="452.26772" x2="502.89137" y2="478.7915" gradientTransform="matrix(1, 0, 0, 1, 0, 0)" xlink:href="#linear-gradient-7"/>
    <linearGradient id="linear-gradient-70" x1="428.50075" y1="460.91517" x2="499.66852" y2="487.43896" gradientTransform="matrix(1, 0, 0, 1, 0, 0)" xlink:href="#linear-gradient-7"/>
    <linearGradient id="linear-gradient-71" x1="427.12539" y1="464.60549" x2="498.29316" y2="491.12927" gradientTransform="matrix(1, 0, 0, 1, 0, 0)" xlink:href="#linear-gradient-7"/>
    <linearGradient id="linear-gradient-72" x1="425.75003" y1="468.2958" x2="496.9178" y2="494.81958" gradientTransform="matrix(1, 0, 0, 1, 0, 0)" xlink:href="#linear-gradient-7"/>
    <linearGradient id="linear-gradient-73" x1="424.37467" y1="471.98612" x2="495.54245" y2="498.5099" gradientTransform="matrix(1, 0, 0, 1, 0, 0)" xlink:href="#linear-gradient-7"/>
    <linearGradient id="linear-gradient-74" x1="422.99932" y1="475.67643" x2="494.16709" y2="502.20021" gradientTransform="matrix(1, 0, 0, 1, 0, 0)" xlink:href="#linear-gradient-7"/>
    <linearGradient id="linear-gradient-75" x1="421.62396" y1="479.36675" x2="492.79173" y2="505.89053" gradientTransform="matrix(1, 0, 0, 1, 0, 0)" xlink:href="#linear-gradient-7"/>
    <linearGradient id="linear-gradient-76" x1="420.2486" y1="483.05706" x2="491.41637" y2="509.58084" gradientTransform="matrix(1, 0, 0, 1, 0, 0)" xlink:href="#linear-gradient-7"/>
    <linearGradient id="linear-gradient-77" x1="418.87325" y1="486.74738" x2="490.04102" y2="513.27116" gradientTransform="matrix(1, 0, 0, 1, 0, 0)" xlink:href="#linear-gradient-7"/>
    <linearGradient id="linear-gradient-78" x1="417.49789" y1="490.43769" x2="488.66566" y2="516.96147" gradientTransform="matrix(1, 0, 0, 1, 0, 0)" xlink:href="#linear-gradient-7"/>
    <linearGradient id="linear-gradient-79" x1="421.32878" y1="480.15877" x2="492.49655" y2="506.68255" gradientTransform="matrix(1, 0, 0, 1, 0, 0)" xlink:href="#linear-gradient-7"/>
    <linearGradient id="linear-gradient-80" x1="425.42934" y1="469.15626" x2="496.59711" y2="495.68005" gradientTransform="matrix(1, 0, 0, 1, 0, 0)" xlink:href="#linear-gradient-7"/>
    <linearGradient id="linear-gradient-81" x1="419.95342" y1="483.84908" x2="491.12119" y2="510.37286" gradientTransform="matrix(1, 0, 0, 1, 0, 0)" xlink:href="#linear-gradient-7"/>
    <linearGradient id="linear-gradient-82" x1="418.57807" y1="487.5394" x2="489.74584" y2="514.06318" gradientTransform="matrix(1, 0, 0, 1, 0, 0)" xlink:href="#linear-gradient-7"/>
    <linearGradient id="linear-gradient-83" x1="417.20271" y1="491.22971" x2="488.37048" y2="517.75349" gradientTransform="matrix(1, 0, 0, 1, 0, 0)" xlink:href="#linear-gradient-7"/>
    <linearGradient id="linear-gradient-84" x1="429.8761" y1="457.22486" x2="501.04387" y2="483.74864" gradientTransform="matrix(1, 0, 0, 1, 0, 0)" xlink:href="#linear-gradient-7"/>
    <linearGradient id="linear-gradient-85" x1="431.18013" y1="453.72593" x2="502.3479" y2="480.24971" gradientTransform="matrix(1, 0, 0, 1, 0, 0)" xlink:href="#linear-gradient-7"/>
    <linearGradient id="linear-gradient-86" x1="432.54534" y1="450.06286" x2="503.71311" y2="476.58664" gradientTransform="matrix(1, 0, 0, 1, 0, 0)" xlink:href="#linear-gradient-7"/>
    <linearGradient id="linear-gradient-87" x1="433.92205" y1="446.3689" x2="505.08982" y2="472.89268" gradientTransform="matrix(1, 0, 0, 1, 0, 0)" xlink:href="#linear-gradient-7"/>
    <linearGradient id="linear-gradient-88" x1="429.58092" y1="458.01688" x2="500.74869" y2="484.54066" gradientTransform="matrix(1, 0, 0, 1, 0, 0)" xlink:href="#linear-gradient-7"/>
    <linearGradient id="linear-gradient-89" x1="430.88495" y1="454.51794" x2="502.05272" y2="481.04173" gradientTransform="matrix(1, 0, 0, 1, 0, 0)" xlink:href="#linear-gradient-7"/>
    <linearGradient id="linear-gradient-90" x1="432.25016" y1="450.85488" x2="503.41793" y2="477.37866" gradientTransform="matrix(1, 0, 0, 1, 0, 0)" xlink:href="#linear-gradient-7"/>
    <linearGradient id="linear-gradient-91" x1="433.62687" y1="447.16092" x2="504.79464" y2="473.6847" gradientTransform="matrix(1, 0, 0, 1, 0, 0)" xlink:href="#linear-gradient-7"/>
    <linearGradient id="linear-gradient-92" x1="418.52185" y1="487.69024" x2="489.68962" y2="514.21402" gradientTransform="matrix(1, 0, 0, 1, 0, 0)" xlink:href="#linear-gradient-7"/>
    <linearGradient id="linear-gradient-93" x1="424.68482" y1="471.15395" x2="495.85259" y2="497.67773" gradientTransform="matrix(1, 0, 0, 1, 0, 0)" xlink:href="#linear-gradient-7"/>
    <linearGradient id="linear-gradient-94" x1="295.84976" y1="502.19331" x2="319.08381" y2="528.06565" gradientTransform="matrix(1, 0, 0, 1, 0, 0)" xlink:href="#linear-gradient-25"/>
    <linearGradient id="linear-gradient-95" x1="298.71846" y1="498.78252" x2="315.2291" y2="523.29316" gradientUnits="userSpaceOnUse">
      <stop offset="0.01405" stop-color="#596d80"/>
      <stop offset="1" stop-color="#394959"/>
    </linearGradient>
    <linearGradient id="linear-gradient-96" x1="303.46285" y1="471.70386" x2="313.29264" y2="511.78897" gradientTransform="matrix(1, 0, 0, 1, 0, 0)" xlink:href="#linear-gradient-25"/>
    <linearGradient id="linear-gradient-97" x1="342.46368" y1="423.5637" x2="308.59134" y2="471.39349" gradientTransform="translate(445.52544 -93.1365) rotate(48.5895)" xlink:href="#linear-gradient-25"/>
    <linearGradient id="linear-gradient-98" x1="334.49092" y1="428.77901" x2="349.84385" y2="428.77901" gradientTransform="matrix(1, 0, 0, 1, 0, 0)" xlink:href="#linear-gradient-25"/>
    <linearGradient id="linear-gradient-99" x1="301.51812" y1="469.31124" x2="313.8266" y2="469.31124" gradientTransform="matrix(1, 0, 0, 1, 0, 0)" xlink:href="#linear-gradient-25"/>
    <linearGradient id="linear-gradient-100" x1="11808.67713" y1="3098.62502" x2="11818.65391" y2="3098.62502" gradientTransform="matrix(-0.50469, 0.8633, 0.8633, 0.50469, 3622.593, -11347.40573)" xlink:href="#linear-gradient-95"/>
    <linearGradient id="linear-gradient-101" x1="512.06142" y1="366.08872" x2="542.08444" y2="366.08872" gradientTransform="matrix(1, 0, 0, 1, 0, 0)" xlink:href="#linear-gradient-7"/>
    <linearGradient id="linear-gradient-102" x1="466.284" y1="1012.11961" x2="450.54196" y2="1039.63814" gradientTransform="translate(-141.94046 -555.62764) rotate(-12.79612)" gradientUnits="userSpaceOnUse">
      <stop offset="0" stop-color="#f2883c"/>
      <stop offset="0.16716" stop-color="#e97d35"/>
      <stop offset="0.67368" stop-color="#d26124"/>
      <stop offset="0.96784" stop-color="#c9571e"/>
    </linearGradient>
    <linearGradient id="linear-gradient-103" x1="488.52342" y1="-48.90829" x2="504.8663" y2="-17.54438" gradientTransform="translate(24.64554 320.14604) rotate(7.10789)" xlink:href="#linear-gradient-102"/>
    <linearGradient id="linear-gradient-104" x1="418.37644" y1="952.77475" x2="431.64678" y2="976.78199" gradientTransform="matrix(0.98986, -0.18711, 0.21086, 0.92377, -104.47671, -452.12976)" xlink:href="#linear-gradient-102"/>
    <linearGradient id="linear-gradient-105" x1="473.32786" y1="1027.82366" x2="446.7092" y2="1051.75164" xlink:href="#linear-gradient-102"/>
    <linearGradient id="linear-gradient-106" x1="371.95736" y1="495.33467" x2="386.25523" y2="510.84531" xlink:href="#linear-gradient-95"/>
    <linearGradient id="linear-gradient-107" x1="371.95736" y1="491.33467" x2="386.25523" y2="506.84531" gradientUnits="userSpaceOnUse">
      <stop offset="0.00005" stop-color="#ffcb48"/>
      <stop offset="1" stop-color="#e68e2b"/>
    </linearGradient>
    <linearGradient id="linear-gradient-108" x1="378.18075" y1="464.88592" x2="385.71266" y2="495.26889" gradientTransform="matrix(1, 0, 0, 1, 0, 0)" xlink:href="#linear-gradient-25"/>
    <linearGradient id="linear-gradient-109" x1="374.09885" y1="465.89782" x2="381.63076" y2="496.28079" gradientTransform="matrix(1, 0, 0, 1, 0, 0)" xlink:href="#linear-gradient-25"/>
    <linearGradient id="linear-gradient-110" x1="369.18528" y1="467.11589" x2="376.71719" y2="497.49886" gradientTransform="matrix(1, 0, 0, 1, 0, 0)" xlink:href="#linear-gradient-25"/>
    <linearGradient id="linear-gradient-111" x1="10661.10195" y1="681.23162" x2="10754.7289" y2="724.00779" gradientTransform="translate(-10018.80851)" xlink:href="#linear-gradient-25"/>
    <linearGradient id="linear-gradient-112" x1="10579.08595" y1="633.89897" x2="10672.7129" y2="676.67514" gradientTransform="translate(-10018.80851)" xlink:href="#linear-gradient-25"/>
    <linearGradient id="linear-gradient-113" x1="556.92197" y1="633.09081" x2="724.62378" y2="633.09081" gradientUnits="userSpaceOnUse">
      <stop offset="0.03216" stop-color="#bd451c"/>
      <stop offset="1" stop-color="#d4702a"/>
    </linearGradient>
    <linearGradient id="linear-gradient-114" x1="707.29587" y1="476.9045" x2="670.34439" y2="624.71041" gradientTransform="matrix(1, 0, 0, 1, 0, 0)" xlink:href="#linear-gradient-102"/>
    <linearGradient id="linear-gradient-115" x1="644.43003" y1="589.75601" x2="758.87621" y2="589.75601" gradientUnits="userSpaceOnUse">
      <stop offset="0" stop-color="#d9652b"/>
      <stop offset="0.96784" stop-color="#ba4b13"/>
    </linearGradient>
    <linearGradient id="linear-gradient-116" x1="584.02262" y1="450.21107" x2="683.41114" y2="628.37911" xlink:href="#linear-gradient-107"/>
    <linearGradient id="linear-gradient-117" x1="584.97146" y1="449.68177" x2="684.35998" y2="627.84981" xlink:href="#linear-gradient-107"/>
    <linearGradient id="linear-gradient-118" x1="610.12807" y1="435.64851" x2="709.51659" y2="613.81655" xlink:href="#linear-gradient-107"/>
    <linearGradient id="linear-gradient-119" x1="622.46149" y1="428.76849" x2="721.85001" y2="606.93653" xlink:href="#linear-gradient-107"/>
    <linearGradient id="linear-gradient-120" x1="627.15462" y1="404.93077" x2="652.91586" y2="456.61945" gradientUnits="userSpaceOnUse">
      <stop offset="0" stop-color="#3f3230"/>
      <stop offset="1"/>
    </linearGradient>
    <linearGradient id="linear-gradient-121" x1="643.54051" y1="396.76417" x2="669.30175" y2="448.45285" xlink:href="#linear-gradient-120"/>
    <linearGradient id="linear-gradient-122" x1="527.06741" y1="448.40737" x2="604.68017" y2="448.40737" gradientUnits="userSpaceOnUse">
      <stop offset="0.00844" stop-color="#ffc63f"/>
      <stop offset="1" stop-color="#e68a23"/>
    </linearGradient>
    <linearGradient id="linear-gradient-123" x1="118.4122" y1="694.80035" x2="177.69416" y2="694.80035" gradientTransform="matrix(-1, 0, 0, 1, 291.90157, 0)" xlink:href="#linear-gradient-25"/>
    <linearGradient id="linear-gradient-124" x1="122.60637" y1="638.69201" x2="182.01063" y2="695.8835" gradientTransform="matrix(-1, 0, 0, 1, 291.90157, 0)" xlink:href="#linear-gradient-107"/>
    <linearGradient id="linear-gradient-125" x1="-6099.17901" y1="1614.83191" x2="-6066.48322" y2="1628.41784" gradientTransform="translate(6396.87225 1047.68303) rotate(19.80519)" xlink:href="#linear-gradient-102"/>
    <linearGradient id="linear-gradient-126" x1="-94.73319" y1="-597.36564" x2="-119.36701" y2="-581.68957" gradientTransform="matrix(-0.93021, 0.36702, 0.36702, 0.93021, 237.06266, 1142.54047)" xlink:href="#linear-gradient-102"/>
    <linearGradient id="linear-gradient-127" x1="200.91984" y1="515.38566" x2="159.56488" y2="552.56033" gradientTransform="matrix(-1, 0, 0, 1, 291.90157, 0)" xlink:href="#linear-gradient-102"/>
    <linearGradient id="linear-gradient-128" x1="-4.31437" y1="1376.67026" x2="-37.97717" y2="1398.09204" gradientTransform="matrix(-0.96048, -0.27833, -0.27833, 0.96048, 496.69976, -790.00632)" xlink:href="#linear-gradient-102"/>
    <linearGradient id="linear-gradient-129" x1="125.17898" y1="487.96144" x2="145.48322" y2="526.92766" gradientTransform="matrix(-1, 0, 0, 1, 291.90157, 0)" xlink:href="#linear-gradient-102"/>
    <linearGradient id="linear-gradient-130" x1="-51.98883" y1="1664.12212" x2="-28.47667" y2="1709.24471" gradientTransform="matrix(-0.93192, -0.36266, -0.36266, 0.93192, 746.61589, -1046.63096)" xlink:href="#linear-gradient-102"/>
    <linearGradient id="linear-gradient-131" x1="-371.623" y1="-1009.48259" x2="-338.9272" y2="-995.89667" gradientTransform="matrix(-0.87147, 0.49044, 0.49044, 0.87147, 350.13567, 1570.37934)" xlink:href="#linear-gradient-102"/>
    <linearGradient id="linear-gradient-132" x1="61.35598" y1="763.41457" x2="39.98776" y2="800.76817" gradientTransform="matrix(-1.03159, -0.09458, -0.10022, 1.01436, 262.40187, -291.28269)" xlink:href="#linear-gradient-102"/>
    <linearGradient id="linear-gradient-133" x1="-341.22159" y1="2372.30813" x2="-371.53282" y2="2391.59709" gradientTransform="matrix(-0.80993, -0.58653, -0.58653, 0.80993, 1247.84414, -1612.65805)" xlink:href="#linear-gradient-102"/>
    <linearGradient id="linear-gradient-134" x1="-5739.31043" y1="-446.05949" x2="-5767.22227" y2="-428.29741" gradientTransform="translate(5720.37605 -970.4594) rotate(-19.53538)" xlink:href="#linear-gradient-102"/>
    <linearGradient id="linear-gradient-135" x1="3892.28581" y1="676.08077" x2="3895.96745" y2="676.08077" gradientTransform="translate(-3744.76396 -174.24326) rotate(2.57462)" xlink:href="#linear-gradient-25"/>
    <linearGradient id="linear-gradient-136" x1="117.3464" y1="676.08077" x2="121.02804" y2="676.08077" gradientTransform="matrix(-0.0448, -0.999, -0.999, 0.0448, 853.45617, 764.85792)" xlink:href="#linear-gradient-25"/>
    <linearGradient id="linear-gradient-137" x1="147.05733" y1="692.1755" x2="149.05733" y2="692.1755" gradientTransform="matrix(-1, 0, 0, 1, 291.90157, 0)" xlink:href="#linear-gradient-25"/>
    <linearGradient id="linear-gradient-138" x1="116.7275" y1="661.35165" x2="179.38753" y2="661.35165" gradientTransform="matrix(-1, 0, 0, 1, 291.90157, 0)" xlink:href="#linear-gradient-25"/>
  </defs>
  <g>
    <g>
      <polygon class="cls-1" points="500.385 66.823 907.032 301.591 907.032 696.807 500.385 462.017 500.385 66.823"/>
      <polygon class="cls-2" points="500.385 376.393 501.671 405.489 664.86 491.618 500.385 113.292 500.385 376.393"/>
      <polygon class="cls-3" points="500.401 66.823 93.755 301.591 93.755 696.807 500.401 462.017 500.401 66.823"/>
    </g>
    <path class="cls-4" d="M100.77183,708.973,479.35242,927.537a42.10143,42.10143,0,0,0,42.1011-.00062l378.5612-218.56743a14.03381,14.03381,0,0,0,.00016-24.307L521.43713,466.078a42.10144,42.10144,0,0,0-42.10408.00053L100.771,684.666A14.03381,14.03381,0,0,0,100.77183,708.973Z"/>
    <g class="cls-5">
      <ellipse class="cls-6" cx="143.94681" cy="696.80704" rx="36.30951" ry="20.86753"/>
    </g>
    <polygon class="cls-7" points="145.801 658.643 285.25 784.879 636.77 579.761 479.639 551.713 265.986 589.854 145.801 658.643"/>
  </g>
  <g>
    <polygon class="cls-8" points="739.892 295.666 739.931 386.368 662.651 341.614 662.612 250.912 739.892 295.666"/>
    <polygon class="cls-9" points="736.585 293.757 736.616 372.385 673.063 335.556 673.032 256.928 736.585 293.757"/>
    <polygon class="cls-10" points="725.817 303.034 725.838 356.339 682.753 331.371 682.733 278.067 725.817 303.034"/>
    <path class="cls-11" d="M735.59356,378.86138l-68.61232-39.7495-.0322-80.69349,68.61233,39.74951.03219,80.69348m4.33728,7.5063-.03922-90.70187-77.27987-44.75372L662.651,341.614l77.27985,44.75371Z"/>
    <polygon class="cls-12" points="667.502 248.081 744.782 292.835 739.892 295.666 662.612 250.912 667.502 248.081"/>
    <polygon class="cls-13" points="744.782 292.835 744.805 383.546 739.931 386.368 739.892 295.666 744.782 292.835"/>
  </g>
  <g>
    <g>
      <path class="cls-2" d="M560.52531,154.07375l10.474-6.04512,58.7376,33.87381L619.25168,457.03233l.0001,8.73023-58.72647-33.89235Z"/>
      <path class="cls-14" d="M550.03221,135.89187v302.04l79.7,46v-302.03Zm69.22,329.87-58.72-33.89V154.07186l58.72,33.9Z"/>
    </g>
    <polygon class="cls-15" points="560.532 154.072 564.474 156.347 564.461 429.74 619.252 461.357 619.252 465.763 560.525 431.87 560.532 154.072"/>
  </g>
  <g>
    <g>
      <path class="cls-2" d="M802.20231,292.78246l10.474-6.04512,58.73759,33.87381L860.92868,595.741l.0001,8.73023-58.72647-33.89234Z"/>
      <path class="cls-16" d="M791.70922,274.60059v302.04l79.7,46v-302.03Zm69.22,329.87-58.72-33.88995V292.78058l58.72,33.9Z"/>
    </g>
    <polygon class="cls-17" points="802.209 292.781 806.151 295.055 806.138 568.449 860.929 600.066 860.929 604.471 802.202 570.579 802.209 292.781"/>
  </g>
  <g>
    <g>
      <path class="cls-2" d="M473.251,446.11905,129.90192,644.34864l-11.46524-6.61724V314.90729L461.78575,116.6662l11.46524-2.15873Z"/>
      <polygon class="cls-18" points="469.41 119.978 465.468 122.252 465.473 440.688 126.067 636.632 126.067 641.038 469.409 442.819 469.41 119.978"/>
      <path class="cls-19" d="M114.57881,311.58384v349.352l366.319-211.48427V100.079Zm11.48824,6.63259,343.34248-198.2387,0,322.84091L126.06705,641.038Z"/>
    </g>
    <polygon class="cls-20" points="354.005 505.041 349.005 507.927 349.005 189.512 354.005 186.625 354.005 505.041"/>
    <polygon class="cls-21" points="242.536 569.393 237.536 572.28 237.536 253.864 242.536 250.977 242.536 569.393"/>
    <g>
      <g>
        <path class="cls-22" d="M180.16507,313.60512V638.01983a2.17527,2.17527,0,0,1-2.68995,2.1l-13.19995-3.28-7.76-1.93a.335.335,0,0,0-.32007.06l-1.08007-.31995V309.82023l23.31005,5.92491Z"/>
        <path class="cls-23" d="M164.27517,322.72512V647.34979a2.005,2.005,0,0,1-.3601,1.04,2.13014,2.13014,0,0,1-2.32007.9l-20.97-5.21a.35594.35594,0,0,0-.40992.16.36826.36826,0,0,0-.02.4l-.97-.26V318.46511l23.31006,5.5Z"/>
        <polygon class="cls-24" points="138.367 320.033 138.367 331.315 146.401 332.974 147.252 331.698 138.367 320.033"/>
        <path class="cls-25" d="M148.39505,332.04512V656.51983a2.2385,2.2385,0,0,1-.35987,1.04,2.13717,2.13717,0,0,1-1.79.97,2.0034,2.0034,0,0,1-.54-.06994l-21.68994-5.4a.88431.88431,0,0,1-.67993-.86V327.78511l23.30982,5.5Z"/>
        <polygon class="cls-24" points="154.25 310.862 154.25 322.144 162.285 323.803 163.136 322.527 154.25 310.862"/>
        <polygon class="cls-24" points="169.433 301.173 169.433 312.455 178.319 314.751 179.284 313.554 169.433 301.173"/>
        <path class="cls-26" d="M146.24387,334.12895a2.23457,2.23457,0,0,1-.53634-.06611l-21.69444-5.404a.88879.88879,0,0,1,.42907-1.725l21.69444,5.404a.38828.38828,0,0,0,.40538-.60931l-7.74139-10.37631a2.16559,2.16559,0,0,1,2.25824-3.397l20.96093,5.21279a.38816.38816,0,0,0,.40475-.60931l-7.74139-10.37631a2.16579,2.16579,0,0,1,2.25887-3.397l20.9603,5.21279a.38822.38822,0,0,0,.40537-.609l-8.6979-11.649a.88858.88858,0,1,1,1.42442-1.06271l8.6979,11.64868a2.16588,2.16588,0,0,1-2.25887,3.397l-20.9603-5.21279a.38837.38837,0,0,0-.40537.60931l7.74139,10.37631a2.16568,2.16568,0,0,1-2.25825,3.397l-20.96092-5.21279a.364.364,0,0,0-.41722.16153.36861.36861,0,0,0,.01247.44778l7.74138,10.37631a2.16761,2.16761,0,0,1-1.72252,3.46314Z"/>
      </g>
      <g>
        <path class="cls-27" d="M489.16045,134.83335V459.24806a2.17525,2.17525,0,0,1-2.68994,2.1l-13.19995-3.28-7.76-1.93a.335.335,0,0,0-.32007.06l-1.08008-.32V131.04846l23.31006,5.92491Z"/>
        <path class="cls-28" d="M473.27056,143.95335V468.578a2.005,2.005,0,0,1-.36011,1.04,2.13014,2.13014,0,0,1-2.32007.9l-20.97-5.21a.35591.35591,0,0,0-.40991.16.3682.3682,0,0,0-.02.4l-.97-.26V139.69334l23.31006,5.5Z"/>
        <polygon class="cls-24" points="447.362 141.261 447.362 152.543 455.397 154.203 456.248 152.926 447.362 141.261"/>
        <path class="cls-29" d="M457.39043,153.27335V477.74806a2.23844,2.23844,0,0,1-.35986,1.04,2.13718,2.13718,0,0,1-1.79.97,2.00335,2.00335,0,0,1-.54-.06994l-21.68994-5.4a.88431.88431,0,0,1-.67993-.86V149.01334l23.30981,5.5Z"/>
        <polygon class="cls-24" points="463.245 132.09 463.245 143.372 471.28 145.032 472.131 143.755 463.245 132.09"/>
        <polygon class="cls-24" points="478.429 122.401 478.429 133.684 487.314 135.979 488.28 134.783 478.429 122.401"/>
        <path class="cls-26" d="M455.23926,155.35718a2.23451,2.23451,0,0,1-.53634-.06611l-21.69444-5.404a.88879.88879,0,0,1,.42907-1.725l21.69444,5.404a.38828.38828,0,0,0,.40537-.60931L447.796,142.58043a2.16559,2.16559,0,0,1,2.25824-3.397l20.96092,5.21279a.38816.38816,0,0,0,.40475-.60931l-7.74138-10.37631a2.16579,2.16579,0,0,1,2.25886-3.397l20.9603,5.21279a.38822.38822,0,0,0,.40538-.609l-8.6979-11.649a.88858.88858,0,1,1,1.42442-1.06271l8.6979,11.64868a2.16588,2.16588,0,0,1-2.25887,3.397l-20.9603-5.21279a.38836.38836,0,0,0-.40537.60931l7.74138,10.37631a2.16567,2.16567,0,0,1-2.25824,3.397l-20.96092-5.21279a.36407.36407,0,0,0-.41723.16153.36863.36863,0,0,0,.01248.44778l7.74138,10.37631a2.16761,2.16761,0,0,1-1.72252,3.46314Z"/>
      </g>
    </g>
    <g>
      <path class="cls-30" d="M476.91282,116.65225v6.03443L462.078,131.25v-6.91922a3.3619,3.3619,0,0,1,1.68117-2.91162l10.70616-6.18013A1.63171,1.63171,0,0,1,476.91282,116.65225Z"/>
      <path class="cls-31" d="M134.50856,314.604v6.03442l-14.83479,8.56338v-6.91923a3.36189,3.36189,0,0,1,1.68117-2.91161l10.70616-6.18013A1.63171,1.63171,0,0,1,134.50856,314.604Z"/>
      <path class="cls-32" d="M484.64835,123.19661,122.02212,332.60168l-3.92586-6.7998L480.73567,116.38919l.00179.0031a1.97737,1.97737,0,0,1,1.95074.20783,6.13754,6.13754,0,0,1,2.78517,4.8041A1.92627,1.92627,0,0,1,484.64835,123.19661Z"/>
      <ellipse class="cls-31" cx="120.05919" cy="329.20178" rx="2.26305" ry="3.92587" transform="translate(-148.51601 104.13427) rotate(-30)"/>
    </g>
  </g>
  <path class="cls-33" d="M557.27629,534.97121,227.08763,725.437a2.907,2.907,0,0,0,.00017,5.03507l119.77614,69.14573a8.72106,8.72106,0,0,0,8.72129-.0003L685.76357,609.1577a2.907,2.907,0,0,0,0-5.035L565.99809,534.97121A8.72107,8.72107,0,0,0,557.27629,534.97121Z"/>
  <g class="cls-34">
    <ellipse class="cls-6" cx="578.49544" cy="755.63899" rx="78.55598" ry="45.14711"/>
  </g>
  <path class="cls-35" d="M547.91043,709.31023l93.395-53.993a9.92693,9.92693,0,0,1,9.93678,0L756.81614,716.361a4.96348,4.96348,0,0,1,0,8.59414l-93.395,53.993a9.927,9.927,0,0,1-9.93678,0l-105.57394-61.0437A4.96346,4.96346,0,0,1,547.91043,709.31023Z"/>
  <g>
    <g>
      <path class="cls-36" d="M357.34538,618.7645V785.89757A3,3,0,0,1,352.846,788.496L244.14512,725.77195a9,9,0,0,1-4.50185-7.7953V556.87829"/>
      <path class="cls-37" d="M236.55681,561.14416V533.67848l124.23292,71.72278v29.42245L238.25144,564.07928A3.38914,3.38914,0,0,1,236.55681,561.14416Z"/>
      <g>
        <path class="cls-38" d="M236.55681,626.74776V533.67848l124.25295,71.73434v95.02637l-122.558-70.75583A3.38971,3.38971,0,0,1,236.55681,626.74776Z"/>
        <polygon class="cls-39" points="360.81 700.439 366.73 697.049 366.73 624.208 360.81 624.208 360.81 700.439"/>
      </g>
      <path class="cls-40" d="M680.69645,432.09285V599.22592a3,3,0,0,1-4.49939,2.59843L567.49618,539.1003a9,9,0,0,1-4.50185-7.7953V370.20664"/>
      <path class="cls-41" d="M683.6953,418.95627,360.78979,605.40121V634.8237L681.21586,449.81038a4.95921,4.95921,0,0,0,2.47944-4.2947Z"/>
      <path class="cls-42" d="M688.91023,417.94783l-7.58219,3.39584L563.88121,353.52425a8.387,8.387,0,0,0-8.38781,0L244.01831,533.19532l-7.46131-3.3525v9.22962l.00557-.00259a2.76441,2.76441,0,0,0,1.39214,2.46557l123.64166,71.38545a8.38742,8.38742,0,0,0,8.387-.0004L687.51293,429.75713a2.76882,2.76882,0,0,0,1.3969-2.42639l.0004.00039Z"/>
      <path class="cls-43" d="M555.49362,344.1955l-317.5391,183.169a2.79565,2.79565,0,0,0,.00016,4.84217L361.59637,603.592a8.387,8.387,0,0,0,8.38718-.00029L687.51273,420.42844a2.79566,2.79566,0,0,0,0-4.84208L563.88129,344.1955A8.387,8.387,0,0,0,555.49362,344.1955Z"/>
    </g>
    <g>
      <path class="cls-44" d="M462.67676,395.27265l-2.64794-.62786.00365.00829a1.235,1.235,0,0,0-.99685.104l-67.23746,38.811a2.509,2.509,0,0,0-1.20261,2.67988l10.38882,51.28727a1.24243,1.24243,0,0,0,.87131.94076l-.00666.00464,2.97816.80549Z"/>
      <path class="cls-45" d="M471.862,450.68612l-65.50233,37.80942a1.22211,1.22211,0,0,1-1.808-.81134l-10.34131-50.10752a2.44423,2.44423,0,0,1,1.17157-2.61073l65.50233-37.80942a1.22211,1.22211,0,0,1,1.808.81133l10.3413,50.10753A2.44421,2.44421,0,0,1,471.862,450.68612Z"/>
      <path class="cls-46" d="M461.73157,397.7775l10.38116,50.30061a.41738.41738,0,0,1-.20019.44645L405.678,486.75666,395.2968,436.456a.41737.41737,0,0,1,.2002-.44645l66.23457-38.23208m.58294-2.55871a1.24554,1.24554,0,0,0-.62527.169l-67.23748,38.811a2.509,2.509,0,0,0-1.20258,2.67987l10.61525,51.43487a1.25281,1.25281,0,0,0,1.85586.83281l67.23748-38.811a2.50888,2.50888,0,0,0,1.20258-2.67987l-10.61524-51.43487a1.25487,1.25487,0,0,0-1.2306-1.00183Z"/>
      <path class="cls-44" d="M518.39233,479.182l.00282-2.88157-3.16857.3851-38.81837-22.40639a3.76339,3.76339,0,0,0-3.76326.00028L412.11856,489.2165l-6.64811.808-.0002,3.6296.01574-.002a1.2371,1.2371,0,0,0,.61162,1.21284l41.35952,23.87322a3.76348,3.76348,0,0,0,3.76327-.00028l66.54754-38.41261a1.23836,1.23836,0,0,0,.6202-1.14267Z"/>
      <path class="cls-46" d="M472.645,450.516l-66.54755,38.41261a1.25448,1.25448,0,0,0,.00016,2.17285l41.3596,24.70954a3.76342,3.76342,0,0,0,3.76324-.00028L517.768,477.39809a1.25449,1.25449,0,0,0-.00016-2.17286L476.4082,450.5157A3.7634,3.7634,0,0,0,472.645,450.516Z"/>
      <g>
        <path class="cls-47" d="M428.22091,486.50608l-2.78518,1.608a.96686.96686,0,0,1-.8699-.03606l-2.63784-1.523c-.25746-.14864-.28542-.3735-.06245-.50223l2.78517-1.608a.96689.96689,0,0,1,.8699.03606l2.63784,1.523C428.41592,486.15249,428.44388,486.37735,428.22091,486.50608Z"/>
        <path class="cls-48" d="M423.82967,489.04136l-2.78517,1.608a.96686.96686,0,0,1-.8699-.03606l-2.63784-1.52295c-.25747-.14865-.28543-.37351-.06246-.50224l2.78518-1.608a.96686.96686,0,0,1,.8699.03606l2.63784,1.523C424.02468,488.68777,424.05264,488.91263,423.82967,489.04136Z"/>
        <path class="cls-49" d="M476.52452,458.618l-2.78517,1.608a.96688.96688,0,0,1-.86991-.03606l-2.63783-1.523c-.25747-.14865-.28543-.3735-.06246-.50224l2.78517-1.608a.96688.96688,0,0,1,.86991.03606l2.63783,1.523C476.71953,458.26438,476.74749,458.48924,476.52452,458.618Z"/>
        <path class="cls-50" d="M472.13328,461.15326l-2.78517,1.608a.96686.96686,0,0,1-.8699-.03606l-2.63784-1.523c-.25747-.14864-.28543-.3735-.06246-.50223l2.78518-1.608a.96689.96689,0,0,1,.8699.03606l2.63784,1.523C472.32829,460.79967,472.35625,461.02453,472.13328,461.15326Z"/>
        <path class="cls-51" d="M467.74205,463.68854l-2.78518,1.608a.96686.96686,0,0,1-.8699-.03606l-2.63784-1.52295c-.25746-.14865-.28543-.37351-.06246-.50224l2.78518-1.608a.96682.96682,0,0,1,.8699.03606l2.63784,1.523C467.93705,463.335,467.965,463.55981,467.74205,463.68854Z"/>
        <path class="cls-52" d="M463.35081,466.22382l-2.78518,1.608a.96683.96683,0,0,1-.8699-.03606l-2.63784-1.52295c-.25746-.14865-.28542-.37351-.06245-.50224l2.78517-1.608a.96686.96686,0,0,1,.8699.03606l2.63784,1.523C463.54582,465.87023,463.57378,466.09509,463.35081,466.22382Z"/>
        <path class="cls-53" d="M458.95957,468.7591l-2.78517,1.608a.96691.96691,0,0,1-.86991-.03606l-2.63783-1.523c-.25747-.14865-.28543-.37351-.06246-.50224l2.78517-1.608a.96688.96688,0,0,1,.86991.03606l2.63783,1.523C459.15458,468.40551,459.18254,468.63037,458.95957,468.7591Z"/>
        <path class="cls-54" d="M454.56833,471.29439l-2.78517,1.608a.96686.96686,0,0,1-.8699-.03606l-2.63784-1.523c-.25746-.14864-.28543-.3735-.06246-.50224l2.78518-1.608a.96686.96686,0,0,1,.8699.03606l2.63784,1.523C454.76334,470.9408,454.7913,471.16565,454.56833,471.29439Z"/>
        <path class="cls-55" d="M450.1771,473.82967l-2.78518,1.608a.96686.96686,0,0,1-.8699-.03606l-2.63784-1.523c-.25746-.14864-.28542-.3735-.06245-.50223l2.78517-1.608a.96689.96689,0,0,1,.8699.03606l2.63784,1.523C450.3721,473.47608,450.40007,473.70094,450.1771,473.82967Z"/>
        <path class="cls-56" d="M445.78586,476.365l-2.78518,1.608a.96686.96686,0,0,1-.8699-.03606l-2.63784-1.523c-.25746-.14865-.28542-.37351-.06245-.50224l2.78517-1.608a.96682.96682,0,0,1,.8699.03606l2.63784,1.52295C445.98087,476.01136,446.00883,476.23622,445.78586,476.365Z"/>
        <path class="cls-57" d="M441.39462,478.90023l-2.78517,1.608a.96682.96682,0,0,1-.8699-.03606l-2.63784-1.523c-.25747-.14865-.28543-.37351-.06246-.50224l2.78518-1.608a.96686.96686,0,0,1,.8699.03606l2.63784,1.52295C441.58963,478.54664,441.61759,478.7715,441.39462,478.90023Z"/>
        <path class="cls-58" d="M437.00338,481.43551l-2.78517,1.608a.96689.96689,0,0,1-.8699-.03606l-2.63784-1.523c-.25746-.14865-.28543-.37351-.06246-.50224l2.78518-1.608a.96686.96686,0,0,1,.8699.03606l2.63784,1.523C437.19839,481.08192,437.22635,481.30678,437.00338,481.43551Z"/>
        <path class="cls-59" d="M432.61215,483.9708l-2.78518,1.608a.96686.96686,0,0,1-.8699-.03606l-2.63784-1.523c-.25746-.14864-.28542-.3735-.06245-.50224l2.78517-1.608a.96689.96689,0,0,1,.8699.03606l2.63784,1.523C432.80715,483.61721,432.83512,483.84206,432.61215,483.9708Z"/>
        <path class="cls-60" d="M470.61459,467.11946l-2.78517,1.608a.96688.96688,0,0,1-.86991-.03606l-2.63783-1.52295c-.25747-.14865-.28543-.37351-.06246-.50224l2.78517-1.608a.96685.96685,0,0,1,.86991.03606l2.63783,1.52295C470.8096,466.76587,470.83756,466.99073,470.61459,467.11946Z"/>
        <path class="cls-61" d="M466.19069,469.6736l-2.78518,1.608a.96686.96686,0,0,1-.8699-.03606l-2.63784-1.523c-.25746-.14865-.28542-.37351-.06245-.50224l2.78517-1.608a.96686.96686,0,0,1,.8699.03606l2.63784,1.52295C466.3857,469.32,466.41366,469.54487,466.19069,469.6736Z"/>
        <path class="cls-62" d="M461.76679,472.22774l-2.78518,1.608a.96682.96682,0,0,1-.8699-.03606l-2.63784-1.52295c-.25746-.14865-.28542-.37351-.06245-.50224l2.78517-1.608a.96686.96686,0,0,1,.8699.03606l2.63784,1.523C461.96179,471.87415,461.98976,472.099,461.76679,472.22774Z"/>
        <path class="cls-63" d="M457.34288,474.78188l-2.78517,1.608a.96685.96685,0,0,1-.8699-.036l-2.63784-1.523c-.25746-.14865-.28543-.37351-.06246-.50224l2.78518-1.608a.96686.96686,0,0,1,.8699.03606l2.63784,1.523C457.53789,474.42829,457.56585,474.65315,457.34288,474.78188Z"/>
        <path class="cls-64" d="M452.919,477.336l-2.78517,1.608a.96689.96689,0,0,1-.8699-.03606l-2.63784-1.523c-.25747-.14865-.28543-.37351-.06246-.50224l2.78518-1.608a.96686.96686,0,0,1,.8699.03606l2.63784,1.523C453.114,476.98243,453.142,477.20729,452.919,477.336Z"/>
        <path class="cls-65" d="M448.49508,479.89017l-2.78518,1.608a.96689.96689,0,0,1-.8699-.03606l-2.63784-1.523c-.25746-.14865-.28542-.37351-.06245-.50224l2.78517-1.608a.96686.96686,0,0,1,.8699.03606l2.63784,1.523C448.69009,479.53657,448.71805,479.76143,448.49508,479.89017Z"/>
        <path class="cls-66" d="M444.07118,482.44431l-2.78518,1.608a.96686.96686,0,0,1-.8699-.03606l-2.63784-1.523c-.25746-.14864-.28542-.3735-.06245-.50224l2.78517-1.608a.96689.96689,0,0,1,.8699.03606l2.63784,1.523C444.26618,482.09072,444.29415,482.31557,444.07118,482.44431Z"/>
        <path class="cls-67" d="M439.64728,484.99845l-2.78518,1.608a.96686.96686,0,0,1-.8699-.03606l-2.63784-1.523c-.25746-.14864-.28543-.3735-.06246-.50223l2.78518-1.608a.96689.96689,0,0,1,.8699.03606l2.63784,1.523C439.84228,484.64486,439.87025,484.86972,439.64728,484.99845Z"/>
        <path class="cls-68" d="M435.22337,487.55259l-2.78517,1.608a.96686.96686,0,0,1-.8699-.03606l-2.63784-1.523c-.25747-.14864-.28543-.3735-.06246-.50223l2.78518-1.608a.96685.96685,0,0,1,.8699.03605l2.63784,1.523C435.41838,487.199,435.44634,487.42386,435.22337,487.55259Z"/>
        <path class="cls-69" d="M475.03849,464.56532l-2.78517,1.608a.96686.96686,0,0,1-.8699-.03606l-2.63784-1.523c-.25747-.14864-.28543-.3735-.06246-.50223l2.78518-1.608a.96685.96685,0,0,1,.8699.036l2.63784,1.523C475.2335,464.21173,475.26146,464.43659,475.03849,464.56532Z"/>
        <path class="cls-70" d="M480.93206,461.16267l-4.41714,2.55023a.96686.96686,0,0,1-.8699-.03606l-2.63784-1.523c-.25746-.14864-.28542-.3735-.06245-.50223l4.41713-2.55024a.96689.96689,0,0,1,.8699.03606l2.63784,1.523C481.12706,460.80908,481.155,461.03394,480.93206,461.16267Z"/>
        <path class="cls-71" d="M485.33959,463.70736l-6.30372,3.63946a.96689.96689,0,0,1-.8699-.03606l-2.63784-1.523c-.25746-.14865-.28542-.37351-.06245-.50224l6.30372-3.63945a.96683.96683,0,0,1,.8699.03606l2.63784,1.523C485.5346,463.35377,485.56256,463.57863,485.33959,463.70736Z"/>
        <path class="cls-72" d="M472.95316,470.85867l-2.78518,1.608a.96685.96685,0,0,1-.8699-.03605l-2.63784-1.523c-.25746-.14865-.28543-.37351-.06246-.50224l2.78518-1.608a.96686.96686,0,0,1,.8699.03606l2.63784,1.523C473.14816,470.50508,473.17612,470.72994,472.95316,470.85867Z"/>
        <path class="cls-73" d="M468.55058,473.4005l-2.78518,1.608a.96689.96689,0,0,1-.8699-.03606l-2.63784-1.523c-.25746-.14865-.28543-.37351-.06246-.50224l2.78518-1.608a.96686.96686,0,0,1,.8699.03606l2.63784,1.523C468.74558,473.04691,468.77354,473.27177,468.55058,473.4005Z"/>
        <path class="cls-74" d="M464.148,475.94233l-2.78518,1.608a.96689.96689,0,0,1-.8699-.03606l-2.63784-1.523c-.25746-.14865-.28543-.37351-.06246-.50224l2.78518-1.608a.96686.96686,0,0,1,.8699.03606l2.63784,1.523C464.343,475.58874,464.371,475.8136,464.148,475.94233Z"/>
        <path class="cls-75" d="M459.74542,478.48417l-2.78518,1.608a.96689.96689,0,0,1-.8699-.03606l-2.63784-1.523c-.25746-.14865-.28543-.3735-.06246-.50224l2.78518-1.608a.96686.96686,0,0,1,.8699.03606l2.63784,1.523C459.94042,478.13057,459.96838,478.35543,459.74542,478.48417Z"/>
        <path class="cls-76" d="M455.34284,481.026l-2.78518,1.608a.96686.96686,0,0,1-.8699-.03606l-2.63784-1.523c-.25746-.14864-.28543-.3735-.06246-.50224l2.78518-1.608a.96689.96689,0,0,1,.8699.03606l2.63784,1.523C455.53784,480.67241,455.5658,480.89726,455.34284,481.026Z"/>
        <path class="cls-77" d="M450.94026,483.56783l-2.78518,1.608a.96686.96686,0,0,1-.8699-.03606l-2.63784-1.523c-.25746-.14864-.28543-.3735-.06246-.50224l2.78518-1.608a.96689.96689,0,0,1,.8699.03606l2.63784,1.523C451.13526,483.21424,451.16322,483.4391,450.94026,483.56783Z"/>
        <path class="cls-78" d="M446.53768,486.10966l-2.78518,1.608a.96686.96686,0,0,1-.8699-.03606l-2.63784-1.523c-.25746-.14864-.28543-.3735-.06246-.50223l2.78518-1.608a.96689.96689,0,0,1,.8699.03606l2.63784,1.523C446.73268,485.75607,446.76064,485.98093,446.53768,486.10966Z"/>
        <path class="cls-79" d="M442.1351,488.65149l-2.78518,1.608a.96686.96686,0,0,1-.8699-.03606l-2.63784-1.523c-.25746-.14864-.28543-.3735-.06246-.50223l2.78518-1.608a.96689.96689,0,0,1,.8699.03606l2.63784,1.523C442.3301,488.2979,442.35806,488.52276,442.1351,488.65149Z"/>
        <path class="cls-80" d="M437.73252,491.19332l-2.78518,1.608a.96686.96686,0,0,1-.8699-.03606l-2.63784-1.523c-.25746-.14864-.28543-.3735-.06246-.50223l2.78518-1.608a.96685.96685,0,0,1,.8699.036l2.63784,1.523C437.92752,490.83973,437.95548,491.06459,437.73252,491.19332Z"/>
        <path class="cls-81" d="M433.22345,493.79663l-3.36388,1.94214a.96689.96689,0,0,1-.8699-.03606l-2.63784-1.523c-.25746-.14865-.28543-.37351-.06246-.50224l3.36389-1.94214a.96689.96689,0,0,1,.8699.03606l2.63784,1.523C433.41846,493.443,433.44642,493.6679,433.22345,493.79663Z"/>
        <path class="cls-82" d="M477.35574,468.31684l-2.78518,1.608a.96685.96685,0,0,1-.8699-.03605l-2.63784-1.523c-.25746-.14865-.28543-.37351-.06246-.50224l2.78518-1.608a.96686.96686,0,0,1,.8699.03606l2.63784,1.52295C477.55074,467.96325,477.5787,468.18811,477.35574,468.31684Z"/>
        <path class="cls-83" d="M472.34628,476.29844l-2.78518,1.608a.96686.96686,0,0,1-.8699-.03606l-2.63784-1.523c-.25746-.14865-.28543-.37351-.06246-.50224l2.78518-1.608a.96682.96682,0,0,1,.8699.03606l2.63784,1.52295C472.54128,475.94485,472.56925,476.16971,472.34628,476.29844Z"/>
        <path class="cls-84" d="M467.92237,478.85258l-2.78517,1.608a.96686.96686,0,0,1-.8699-.03606l-2.63784-1.52295c-.25747-.14865-.28543-.37351-.06246-.50224l2.78518-1.608a.96686.96686,0,0,1,.8699.03606l2.63784,1.523C468.11738,478.499,468.14534,478.72385,467.92237,478.85258Z"/>
        <path class="cls-85" d="M463.49847,481.40672l-2.78517,1.608a.96685.96685,0,0,1-.86991-.03606l-2.63783-1.52295c-.25747-.14865-.28543-.37351-.06246-.50224l2.78517-1.608a.96688.96688,0,0,1,.86991.03606l2.63783,1.52295C463.69348,481.05313,463.72144,481.278,463.49847,481.40672Z"/>
        <path class="cls-86" d="M459.07457,483.96086l-2.78518,1.608a.96685.96685,0,0,1-.8699-.036l-2.63784-1.523c-.25746-.14865-.28542-.37351-.06245-.50224l2.78517-1.608a.96686.96686,0,0,1,.8699.03606l2.63784,1.523C459.26958,483.60727,459.29754,483.83213,459.07457,483.96086Z"/>
        <path class="cls-87" d="M454.65067,486.515l-2.78518,1.608a.96689.96689,0,0,1-.8699-.03606l-2.63784-1.523c-.25746-.14865-.28542-.37351-.06245-.50224l2.78517-1.608a.96686.96686,0,0,1,.8699.03606l2.63784,1.523C454.84567,486.16141,454.87364,486.38627,454.65067,486.515Z"/>
        <path class="cls-88" d="M450.22676,489.06915l-2.78517,1.608a.96689.96689,0,0,1-.8699-.03606l-2.63784-1.523c-.25746-.14865-.28543-.37351-.06246-.50224l2.78518-1.608a.96686.96686,0,0,1,.8699.03606l2.63784,1.523C450.42177,488.71555,450.44973,488.94041,450.22676,489.06915Z"/>
        <path class="cls-89" d="M445.80286,491.62329l-2.78517,1.608a.96686.96686,0,0,1-.8699-.03606l-2.63784-1.523c-.25747-.14864-.28543-.3735-.06246-.50224l2.78518-1.608a.96689.96689,0,0,1,.8699.03606l2.63784,1.523C445.99787,491.2697,446.02583,491.49456,445.80286,491.62329Z"/>
        <path class="cls-90" d="M441.379,494.17743l-2.78517,1.608a.96688.96688,0,0,1-.86991-.03606l-2.63783-1.523c-.25747-.14864-.28543-.3735-.06246-.50223l2.78517-1.608a.96691.96691,0,0,1,.86991.03606l2.63783,1.523C441.574,493.82384,441.60193,494.0487,441.379,494.17743Z"/>
        <path class="cls-91" d="M436.95506,496.73157l-2.78518,1.608a.96686.96686,0,0,1-.8699-.03606l-2.63784-1.523c-.25746-.14864-.28542-.3735-.06245-.50223l2.78517-1.608a.96685.96685,0,0,1,.8699.036l2.63784,1.523C437.15007,496.378,437.178,496.60284,436.95506,496.73157Z"/>
        <path class="cls-92" d="M454.6343,491.61384l-2.78517,1.608a.96688.96688,0,0,1-.86991-.03606l-2.63783-1.523c-.25747-.14864-.28543-.3735-.06246-.50223l2.78517-1.608a.96691.96691,0,0,1,.86991.03606l2.63783,1.523C454.82931,491.26025,454.85727,491.48511,454.6343,491.61384Z"/>
        <path class="cls-93" d="M476.58972,478.93787,456.273,490.66772a.96686.96686,0,0,1-.8699-.03606l-2.63784-1.523c-.25747-.14864-.28543-.3735-.06246-.50224l20.31669-11.72984a.96686.96686,0,0,1,.8699.03606l2.63784,1.523C476.78472,478.58428,476.81269,478.80914,476.58972,478.93787Z"/>
        <path class="cls-94" d="M450.2104,494.168l-2.78518,1.608a.96686.96686,0,0,1-.8699-.03606l-2.63784-1.523c-.25746-.14864-.28542-.3735-.06245-.50223l2.78517-1.608a.96685.96685,0,0,1,.8699.036l2.63784,1.523C450.40541,493.81439,450.43337,494.03925,450.2104,494.168Z"/>
        <path class="cls-95" d="M445.7865,496.72212l-2.78518,1.608a.96686.96686,0,0,1-.8699-.03606l-2.63784-1.52295c-.25746-.14865-.28542-.37351-.06245-.50224l2.78517-1.608a.96682.96682,0,0,1,.8699.03606l2.63784,1.52295C445.9815,496.36853,446.00947,496.59339,445.7865,496.72212Z"/>
        <path class="cls-96" d="M441.36259,499.27626l-2.78517,1.608a.96686.96686,0,0,1-.8699-.03606l-2.63784-1.523c-.25746-.14865-.28543-.37351-.06246-.50224l2.78518-1.608a.96686.96686,0,0,1,.8699.03606l2.63784,1.52295C441.5576,498.92267,441.58556,499.14753,441.36259,499.27626Z"/>
        <path class="cls-97" d="M476.77018,473.7443l-2.78518,1.608a.96686.96686,0,0,1-.8699-.03606l-2.63784-1.523c-.25746-.14864-.28542-.3735-.06245-.50223l2.78517-1.608a.96685.96685,0,0,1,.8699.03605l2.63784,1.523C476.96518,473.39071,476.99315,473.61557,476.77018,473.7443Z"/>
        <path class="cls-98" d="M480.96465,471.32262l-2.78517,1.608a.96686.96686,0,0,1-.8699-.03606l-2.63784-1.523c-.25746-.14864-.28543-.3735-.06246-.50224l2.78518-1.608a.96689.96689,0,0,1,.8699.03606l2.63784,1.523C481.15966,470.969,481.18762,471.19389,480.96465,471.32262Z"/>
        <path class="cls-99" d="M485.35589,468.78733l-2.78517,1.608a.96689.96689,0,0,1-.8699-.03606l-2.63784-1.523c-.25747-.14865-.28543-.37351-.06246-.50224l2.78518-1.608a.96686.96686,0,0,1,.8699.03606l2.63784,1.523C485.5509,468.43374,485.57886,468.6586,485.35589,468.78733Z"/>
        <path class="cls-100" d="M489.78417,466.23067l-2.78518,1.608a.96686.96686,0,0,1-.8699-.03606l-2.63784-1.523c-.25746-.14864-.28542-.3735-.06246-.50223l2.78518-1.608a.96685.96685,0,0,1,.8699.036l2.63784,1.523C489.97917,465.87708,490.00714,466.10194,489.78417,466.23067Z"/>
        <path class="cls-101" d="M481.17771,476.289l-2.78517,1.608a.96686.96686,0,0,1-.8699-.03606L474.8848,476.338c-.25746-.14865-.28543-.37351-.06246-.50224l2.78518-1.608a.96686.96686,0,0,1,.8699.03606l2.63784,1.52295C481.37272,475.9354,481.40068,476.16026,481.17771,476.289Z"/>
        <path class="cls-102" d="M485.37219,473.86731l-2.78517,1.608a.96688.96688,0,0,1-.86991-.03606l-2.63783-1.523c-.25747-.14864-.28543-.3735-.06246-.50223l2.78517-1.608a.96688.96688,0,0,1,.86991.036l2.63783,1.523C485.5672,473.51372,485.59516,473.73858,485.37219,473.86731Z"/>
        <path class="cls-103" d="M489.76343,471.332l-2.78518,1.608a.96686.96686,0,0,1-.8699-.03606l-2.63784-1.523c-.25746-.14864-.28542-.3735-.06245-.50224l2.78517-1.608a.96689.96689,0,0,1,.8699.03606l2.63784,1.523C489.95843,470.97844,489.9864,471.2033,489.76343,471.332Z"/>
        <path class="cls-104" d="M494.1917,468.77536l-2.78517,1.608a.96686.96686,0,0,1-.8699-.03606l-2.63784-1.523c-.25747-.14865-.28543-.37351-.06246-.50224l2.78518-1.608a.96686.96686,0,0,1,.8699.03606l2.63784,1.52295C494.38671,468.42177,494.41467,468.64663,494.1917,468.77536Z"/>
        <path class="cls-105" d="M430.83214,490.08787l-5.38011,3.1062a.96685.96685,0,0,1-.8699-.036l-2.63784-1.523c-.25746-.14865-.28542-.37351-.06245-.50224l5.3801-3.1062a.96686.96686,0,0,1,.8699.03606l2.63784,1.52295C431.02714,489.73428,431.05511,489.95914,430.83214,490.08787Z"/>
      </g>
      <path class="cls-106" d="M477.70325,479.81629,457.5476,491.45054a.38.38,0,0,0,0,.65811l12.52682,7.48392a1.13988,1.13988,0,0,0,1.1398-.00009l20.15564-11.63425a.38.38,0,0,0,0-.65811L478.843,479.8162A1.13983,1.13983,0,0,0,477.70325,479.81629Z"/>
    </g>
    <g>
      <g>
        <g>
          <path class="cls-107" d="M328.54005,512.4948c-2.2363-5.45638-10.71894-9.52156-20.86773-9.52156s-18.63143,4.06518-20.86764,9.52156h-.59545v2.85075c0,6.833,9.60932,12.37231,21.46309,12.37231s21.46318-5.53926,21.46318-12.37231V512.4948Z"/>
          <ellipse class="cls-108" cx="307.67236" cy="512.07491" rx="21.46315" ry="12.37235"/>
        </g>
        <path class="cls-109" d="M304.36535,469.92076v37.76252c0,1.05283,1.48059,1.90632,3.307,1.90632s3.307-.85349,3.307-1.90632V469.92076Z"/>
      </g>
      <rect class="cls-110" x="298.3281" y="443.91704" width="55.19413" height="6.00008" transform="translate(-224.84109 395.74462) rotate(-48.5895)"/>
      <circle class="cls-111" cx="342.16738" cy="428.77901" r="7.67647"/>
      <circle class="cls-112" cx="307.67236" cy="469.31124" r="6.15424"/>
      <g>
        <path class="cls-113" d="M360.87139,442.38872c5.55124-3.02672,10.17753-10.63631,10.33328-16.99693.09388-3.83733-1.46774-6.3303-3.93517-7.04993l.00672-.011-28.15434-9.11847-7.32671,12.0025,21.01712,20.81058.00554-.00908C354.56992,443.94091,357.49976,444.2268,360.87139,442.38872Z"/>
        <ellipse class="cls-114" cx="335.42271" cy="415.19099" rx="7.03274" ry="4.0602" transform="translate(-193.33666 488.02975) rotate(-58.90946)"/>
      </g>
    </g>
    <g>
      <g>
        <path class="cls-46" d="M541.97466,367.1367l-29.788.071,3.77043,23.31667c.3195,3.38447,5.18163,6.07436,11.15022,6.07436,5.96888,0,10.83071-2.68989,11.15021-6.07436Z"/>
        <ellipse class="cls-115" cx="527.07293" cy="366.08872" rx="15.01151" ry="8.6273"/>
        <path class="cls-116" d="M540.09684,370.375c-2.59066,2.6028-7.459,4.338-13.02628,4.338s-10.43532-1.73523-13.02628-4.338c1.651-3.22943,6.85646-5.59129,13.02628-5.59129S538.44583,367.14556,540.09684,370.375Z"/>
        <path class="cls-117" d="M527.073,359.5123c7.63785,0,12.96068,3.46588,12.96068,6.57642s-5.32283,6.57645-12.96068,6.57645-12.96069-3.46588-12.96069-6.57645,5.32284-6.57642,12.96069-6.57642m0-2.05087c-8.29062,0-15.01153,3.86256-15.01153,8.62729s6.72091,8.62732,15.01153,8.62732,15.01152-3.86258,15.01152-8.62732-6.7209-8.62729-15.01152-8.62729Z"/>
      </g>
      <g>
        <path class="cls-118" d="M528.5031,360.02487c7.57008-8.89562,19.20357-28.411,10.0011-31.78266S519.70263,345.81017,528.5031,360.02487Z"/>
        <path class="cls-119" d="M527.38057,367.55257c-8.98973-8.65535-22.64628-30.19453-13.22014-34.7534S535.23116,351.509,527.38057,367.55257Z"/>
        <path class="cls-120" d="M527.62931,370.67538c-8.62374-4.1711-24.19948-15.94076-18.23489-21.01644S529.83239,357.96056,527.62931,370.67538Z"/>
        <path class="cls-121" d="M527.64034,370.685c10.07107-5.30851,27.49567-20.72638,20.38929-27.10946S524.82387,354.63569,527.64034,370.685Z"/>
      </g>
    </g>
    <g>
      <g>
        <path class="cls-122" d="M367.52353,510.958c0,3.10149,4.31944,5.61571,9.64748,5.61571,5.32845,0,9.64747-2.51422,9.64747-5.61571v-21.3486h-19.295Z"/>
        <path class="cls-123" d="M367.52353,506.958c0,3.10149,4.31944,5.61571,9.64748,5.61571,5.32845,0,9.64747-2.51422,9.64747-5.61571v-21.3486h-19.295Z"/>
        <ellipse class="cls-24" cx="377.17119" cy="485.60937" rx="9.64766" ry="5.61596"/>
        <path class="cls-26" d="M377.17124,480.9844c4.69239,0,8.65667,2.118,8.65667,4.625,0,2.507-3.96428,4.625-8.65667,4.625-4.69251,0-8.65678-2.118-8.65678-4.625,0-2.507,3.96427-4.625,8.65678-4.625Zm0-.991c-5.32832,0-9.64776,2.51434-9.64776,5.61593,0,3.10165,4.31944,5.616,9.64776,5.616,5.32821,0,9.64765-2.51434,9.64765-5.616,0-3.10159-4.31944-5.61593-9.64765-5.61593Z"/>
      </g>
      <path class="cls-124" d="M382.56168,471.44636,378.68692,490.156a13.1174,13.1174,0,0,0,2.99266-.62432l1.69465-8.19541.43609.08921a.69842.69842,0,0,0,.82247-.54509l1.45671-7.03592a.69847.69847,0,0,0-.545-.82253l-.4361-.08915.19827-.9216a1.40127,1.40127,0,1,0-2.745-.56487Z"/>
      <path class="cls-125" d="M375.5058,490.1362a6.15843,6.15843,0,0,0,.61452.05945c.34682.0297.69364.03962,1.05038.03962.43609,0,.87206-.01978,1.2882-.05945L379.985,471.3869a1.48235,1.48235,0,0,0-1.35751-1.5856c-.03968,0-.08928-.00992-.129-.00992a1.47459,1.47459,0,0,0-1.45671,1.35764l-1.37747,16.93585v.00991Z"/>
      <path class="cls-126" d="M369.56985,473.71568l3.409,15.91511a12.96816,12.96816,0,0,0,2.52692.50541,6.15843,6.15843,0,0,0,.61452.05945l-.45593-2.10087v-.00991l-3.21076-14.99351a1.47224,1.47224,0,0,0-1.44679-1.15943,1.69537,1.69537,0,0,0-.30714.0297A1.46857,1.46857,0,0,0,369.56985,473.71568Z"/>
    </g>
  </g>
  <g>
    <path class="cls-127" d="M644.91154,682.49762l.004,86.7715a2.91182,2.91182,0,0,0,4.36342,2.66906l80.73084-46.5844a8.73548,8.73548,0,0,0,4.36953-7.56618l-4.96292-87.48635"/>
    <path class="cls-128" d="M562.89554,635.165l.004,86.7715a2.91182,2.91182,0,0,0,4.36342,2.66906l80.73084-46.5844a8.73546,8.73546,0,0,0,4.36953-7.56618l-4.96291-87.48636"/>
    <g>
      <path class="cls-129" d="M724.62378,632.036l-78.63342,53.957L558.42464,635.4278a2.867,2.867,0,0,1-1.50267-2.52271v-2.79853a8.57374,8.57374,0,0,1,4.28732-7.4443l73.6155-42.47364Z"/>
      <path class="cls-130" d="M756.41353,493.68292,725.49229,631.44318l-.86851.59277-89.799-51.84733v-.79951c0-36.04955,10.71149-92.44668,24.828-132.03916a7.08663,7.08663,0,0,1,9.23641-4.20461,4.4762,4.4762,0,0,1,.93742.53766Z"/>
      <path class="cls-131" d="M644.43,683.43722v-2.80337a8.59279,8.59279,0,0,1,4.29874-7.44293l73.60913-42.4674v-.79833c0-36.05242,10.71441-92.45292,24.82364-132.03632a7.08737,7.08737,0,0,1,9.2482-4.2034h0a3.83858,3.83858,0,0,1,2.22937,4.90342c-14.276,38.60935-25.27268,95.42669-25.27268,131.3363v2.75218a7.647,7.647,0,0,1-3.82563,6.62374L648.732,685.92187A2.86851,2.86851,0,0,1,644.43,683.43722Z"/>
    </g>
  </g>
  <g>
    <g>
      <g>
        <path class="cls-132" d="M635.14052,450.54816s-13.23708,1.99015-24.30418,15.95807c-8.8026,11.10988-24.74086,33.00142-24.74086,33.00142l-5.7881,2.98064s-11.92569,8.58472-6.67885,20.29035c2.97379,6.6345,12.46695,12.16325,25.76173,3.31725,3.45985-2.3021,15.3028-8.1247,22.36744-19.95033Z"/>
        <path class="cls-133" d="M619.58137,509.38579l-4.92913-28.24245L609.042,519.82357A50.70126,50.70126,0,0,0,619.58137,509.38579Z"/>
        <circle class="cls-134" cx="586.49891" cy="510.24959" r="9.49316"/>
      </g>
      <g>
        <g>
          <path class="cls-113" d="M591.65253,715.37956s7.09763,18.08654,3.98279,23.25317-9.562,5.38-17.88469,8.41744-15.39786,7.85226-29.42475,5.96139-13.51245-12.83461-6.51269-15.88723l15.32941-8.18452,13.53483-11.44792Z"/>
          <path class="cls-113" d="M635.77874,633.50246l-19.45105-62.80579-59.85944,17.28258c-19.06982,6.0268-21.18723,28.77813-16.83887,44.40843l24.80381,90.39356c3.73418,10.35106,29.29464,5.82934,29.21465-4.06609l-2.10857-81.67085Z"/>
          <path class="cls-113" d="M618.76525,743.578s2.06946,12.42518,1.1565,16.836c-1.14413,5.52778-4.7958,9.49675-5.60369,13.17624s-1.71455,11.29913-8.56006,15.93741c-13.88506,9.408-26.96949.28832-20.7998-11.4845l4.9048-10.22061,10.81556-25.76941Z"/>
          <path class="cls-134" d="M616.59488,558.13937l-13.79913,20.29632,17.01263,34.23022s-18.71777,34.31072-20.89689,52.8245-3.55555,80.26345-3.55555,80.26345c-2.4462,12.1269,24.185,15.69027,26.718,4.1329l26.24436-79.71864,22.71417-21.292c13.69237-11.10308,22.447-20.07336,22.97737-42.39538s-6.4154-34.02526-6.4154-34.02526Z"/>
          <path class="cls-113" d="M620.00085,546.46818l-6.20425,12.90651s2.71735,21.07293,28.39164,29.20846,52.34853-4.20335,52.34853-4.20335l.763-8.22733Z"/>
          <path class="cls-135" d="M651.92242,450.37669c-25.97928-3.94635-32.37888,15.61263-35.9295,38.2286l3.26677,39.78111-5.26313,15.80392c-1.38355,8.37833,4.30936,23.73133,20.29832,31.08439,22.03967,10.13568,57.78665,11.70329,61.28586-4.53687L691.14731,564.12l15.37578-66.67659C703.33147,473.164,674.75405,453.84491,651.92242,450.37669Z"/>
          <path class="cls-136" d="M645.67064,449.77778c-21.88078-.84985-31.52865,10.85154-31.17547,38.58642l1.18418,44.31349L601.4068,572.1921c-1.56022,5.76528-1.12154,14.80078,4.709,23.979a1.57411,1.57411,0,0,0,2.81595-.28062c8.75841-24.17594,16.50442-49.23372,19.42-73.71119a212.00952,212.00952,0,0,1,12.798-66.079Z"/>
          <path class="cls-137" d="M671.2686,456.54559c-6.33046,12.37063-12.75429,42.18405-19.17369,71.17027l-7.25933,85.43757a3.27635,3.27635,0,0,0,2.541,3.47913c20.81212,4.64332,48.38273-.18967,49.57532-13.984l-1.662-46.37023,11.2332-58.83476C704.20269,479.79144,688.46222,464.76852,671.2686,456.54559Z"/>
          <path class="cls-133" d="M696.33019,585.30186l-18.19812-74.27025,1.86729,45.8924-23.559,3.35268,2.39129,18.31533a7.73225,7.73225,0,0,0,6.22679,6.59587l31.48163,5.969Z"/>
          <path class="cls-138" d="M706.317,496.0695c-3.75413-18.77751-28.24923-11.35-28.18494,14.96206l7.35195,50.06659-29.04372.62326,2.53457,17.3265s44.557,9.99274,48.94636,1.99442C715.40027,567.41381,710.53965,523.72432,706.317,496.0695Z"/>
          <ellipse class="cls-134" cx="663.03508" cy="570.71191" rx="5.79573" ry="8.04272" transform="translate(-41.59048 52.22331) rotate(-4.37349)"/>
        </g>
        <polygon class="cls-2" points="644.327 541.334 598.543 523.316 621.324 567.261 667.108 585.279 644.327 541.334"/>
      </g>
      <g>
        <g>
          <path class="cls-44" d="M662.94824,475.28276l-14.4433.04185a5.34054,5.34054,0,0,1-3.44138-1.27387l-7.49777-6.31029,5.30937-7.00083,17.05169,6.12755Z"/>
          <path class="cls-139" d="M655.643,466.68345c-.02932.10154-7.50863,4.3608-7.50863,4.3608l-1.25148-8.69Z"/>
          <path class="cls-140" d="M646.65152,462.11648c.30056,8.50785,14.154,5.47419,19.597-2.00919-.47119-5.54242.98656-10.4854-2.45313-17.95845l-17.838,3.16916Z"/>
          <path class="cls-135" d="M665.79966,448.5344a30.20819,30.20819,0,0,1-5.95422,11.05668c-3.36867,4.14447-11.71109,11.45325-11.71109,11.45325l6.68015-2.47518a3.63011,3.63011,0,0,1,4.14029,1.32028l3.99345,5.39333a26.95294,26.95294,0,0,1,3.10613-9.07607,16.428,16.428,0,0,0,2.60716-8.92761,25.59215,25.59215,0,0,0-1.14547-6.38531A3.95686,3.95686,0,0,0,665.79966,448.5344Z"/>
          <path class="cls-135" d="M648.13435,471.04425l-3.92161-5.47631a2.43742,2.43742,0,0,0-3.57373-.52331l-3.07322,2.69582a63.78493,63.78493,0,0,1,2.20089-6.73167,56.26139,56.26139,0,0,1,4.40671-9.12336l2.2399-.71777C646.10947,456.91016,646.8928,463.74647,648.13435,471.04425Z"/>
          <path class="cls-141" d="M646.74368,450.12439a18.57115,18.57115,0,0,0-5.00911,6.298c-3.36871,6.2784-11.67817,41.1175-13.38693,65.75291-2.61683-23.25849-2.6461-36.25488-.85927-47.96231l9.53-5.722-8.02626-1.904c2.236-8.16286,6.28824-11.26785,9.0906-13.65053a49.28307,49.28307,0,0,1,6.80572-4.67692Z"/>
        </g>
        <path class="cls-141" d="M673.80069,479.07557l-9.18828-2.21653,6.56167,8.81723c-5.86838,13.719-19.07956,42.03553-19.07956,42.03553,1.42562-24.90884,11.19973-53.18633,13.6994-63.84891l1.90406-8.7295a8.40235,8.40235,0,0,0-.07813-3.8471l-.09768-.37116a66.19041,66.19041,0,0,1,7.42093,10.243C677.55017,465.9719,676.15387,471.85983,673.80069,479.07557Z"/>
      </g>
      <g>
        <path class="cls-142" d="M598.40027,519.37235l-9.86863-5.92381a1.54761,1.54761,0,0,1-.72755-1.05794l-5.04428-28.58424a1.54759,1.54759,0,0,1,2.32053-1.59584L594.652,487.956a7.13479,7.13479,0,0,1,3.3542,4.87738l4.21914,23.90846A2.551,2.551,0,0,1,598.40027,519.37235Z"/>
        <path class="cls-139" d="M585.46048,497.863l-1.10636-5.02237-1.35793,1.30863a8.31327,8.31327,0,0,0-2.17493,3.5194c-.849,2.72964-2.18605,7.57025-2.18605,10.98551a9.061,9.061,0,0,0,9.06112,9.061c2.5021,0,5.53826.4268,7.17794-1.21288,1.63969-1.63987,1.88309-5.34586,1.88309-7.84815C596.75736,505.31741,589.97953,500.62294,585.46048,497.863Z"/>
      </g>
      <g>
        <polygon class="cls-139" points="657.188 557.529 651.909 555.937 653.031 558.155 657.188 557.529"/>
        <path class="cls-139" d="M665.49719,563.59507c3.55184,5.24562,3.30816,14.87229-2.75309,14.56475,0,0-11.03984-2.33342-13.39692-3.80268s-5.48864-7.475-5.77707-10.883a5.689,5.689,0,0,1,2.983-5.59913c1.95708-1.13369,7.65641-.88151,9.72922-.57764C660.77656,557.95621,665.49719,563.59507,665.49719,563.59507Z"/>
      </g>
    </g>
    <g>
      <path class="cls-143" d="M630.01818,409.74582c-2.736,6.49512,3.10755,14.22787,3.10755,14.22787l2.96594,10.8159,3.10458-17.62491Z"/>
      <path class="cls-139" d="M651.15145,454.76678c10.43211-2.36344,16.71033-11.87216,17.33523-21.67636l1.31641-21.19859c.76995-8.53678-7.57919-12.73536-17.54727-12.76439-8.712-.02537-17.72493,7.14758-17.7577,16.79854a195.07912,195.07912,0,0,0,1.46112,21.33967C637.30217,446.69621,641.67093,456.91463,651.15145,454.76678Z"/>
      <path class="cls-144" d="M646.0705,399.21781c-12.314,2.41285-17.94668,8.64163-16.65512,16.14242,2.32265,13.48881,19.5595,7.93285,24.2493,9.74011,2.36439,1.18951,3.61292,1.97139,4.41245,3.91653l.043,3.24573c-.04343,1.40648,3.26671,1.24763,3.26671,1.24763s1.57787,7.07279,2.43737,8.37988c.59858,2.47089,1.9755,6.64429,1.9755,6.64429,2.16917-5.37212,6.38067-16.76153,6.38067-16.76153s6.8854-12.007,2.30672-21.11465C669.52376,400.78557,656.67676,397.13958,646.0705,399.21781Z"/>
      <path class="cls-139" d="M663.70608,442.48082c3.5454.12215,6.70047-4.72541,6.83909-8.74856s-3.2281-7.529-6.33712-5.82056C660.30522,430.05635,660.16068,442.35866,663.70608,442.48082Z"/>
    </g>
  </g>
  <polygon class="cls-145" points="527.067 443.04 571.758 471.247 604.68 453.765 559.995 425.567 527.067 443.04"/>
  <polygon class="cls-2" points="518.056 457.029 566.221 478.779 596.407 456.907 548.248 435.167 518.056 457.029"/>
  <g>
    <path class="cls-146" d="M143.84832,680.94748c14.34222,0,26.4589,6.34385,26.4589,13.8529s-12.11668,13.85284-26.4589,13.85284c-14.34209,0-26.45876-6.34384-26.45876-13.85284s12.11667-13.8529,26.45876-13.8529m0-3.18215c-16.37017,0-29.64092,7.62682-29.64092,17.03505s13.27075,17.035,29.64092,17.035c16.3703,0,29.64105-7.62682,29.64105-17.035s-13.27075-17.03505-29.64105-17.03505Z"/>
    <g>
      <g>
        <path class="cls-147" d="M171.79266,639.1869v43.57447c0,8.86969-12.51123,16.06-27.94434,16.06-15.43322,0-27.94433-7.19031-27.94433-16.06V639.1869Z"/>
        <ellipse class="cls-24" cx="143.84835" cy="639.18695" rx="27.94426" ry="16.05992"/>
        <path class="cls-116" d="M119.60405,647.16593c4.82258,4.84517,13.885,8.07532,24.24871,8.07532s19.42558-3.23015,24.24871-8.07532c-3.0734-6.01166-12.76346-10.40831-24.24871-10.40831S122.67744,641.15427,119.60405,647.16593Z"/>
        <path class="cls-26" d="M143.84832,626.127c13.52124,0,24.94434,5.98071,24.94434,13.05994,0,7.07916-11.4231,13.05987-24.94434,13.05987-13.52111,0-24.94421-5.98071-24.94421-13.05987,0-7.07923,11.4231-13.05994,24.94421-13.05994m0-3c-15.4331,0-27.94421,7.19025-27.94421,16.05994,0,8.86962,12.51111,16.05987,27.94421,16.05987,15.43323,0,27.94434-7.19025,27.94434-16.05987,0-8.86969-12.51111-16.05994-27.94434-16.05994Z"/>
      </g>
      <g>
        <path class="cls-148" d="M135.26681,524.07267c-10.27342-3.82415-30.20007-14.81552-24.20314-21.78945S135.97217,508.3986,135.26681,524.07267Z"/>
        <path class="cls-116" d="M145.94787,644.99058c.57,0,1.268-.94038,1.268-2.03785,0-53.61358,4.83087-88.51461,16.70718-116.823a3.37389,3.37389,0,0,0-.15429-2.793c-.44333-.69143-1.09249-.55911-1.45127.29707-12.197,29.07371-17.40145,64.77243-17.40145,119.37062C144.916,644.102,145.37788,644.99058,145.94787,644.99058Z"/>
        <path class="cls-116" d="M141.32018,644.99058c.57,0,1.03185-.88861,1.03185-1.98607,0-50.49632,0-119.65472-13.174-151.057-.35844-.85618-1.00794-.9872-1.45094-.29707a3.3727,3.3727,0,0,0-.15463,2.793c12.71582,30.31128,12.71582,98.65631,12.71582,148.56109C140.28832,644.102,140.75018,644.99058,141.32018,644.99058Z"/>
        <path class="cls-116" d="M140.83507,590.78416c.53193,0,.98335-.78613,1.02748-1.82392,1.71134-40.38305,6.25718-67.83,14.30622-86.37535a3.385,3.385,0,0,0-.13-2.79814c-.43794-.70441-1.08845-.589-1.45329.25036-8.33572,19.20562-13.03181,47.3596-14.77987,88.59882-.04615,1.09357.37663,2.05353.94461,2.14174A.47247.47247,0,0,0,140.83507,590.78416Z"/>
      </g>
      <path class="cls-116" d="M141.31917,606.49509a.52448.52448,0,0,0,.07445-.00477c.56865-.0715.79917-.97985.7584-1.9844-1.28418-31.77955-9.09445-65.29259-21.9147-67.92371-.56326-.11678-1.078.60058-1.1437,1.60155-.06569,1.00216.33991,1.9078.90587,2.02339,11.70517,2.40232,19.068,34.313,20.29153,64.59344C140.32976,605.76223,140.78286,606.49509,141.31917,606.49509Z"/>
      <path class="cls-149" d="M134.41036,558.89273c-10.16466,2.53688-31.575,2.65047-30.61627-6.08738S126.49672,546.15617,134.41036,558.89273Z"/>
      <path class="cls-150" d="M130.65854,552.33628C113.574,547.75919,81.87009,530.39651,90.44,518.28072S129.403,527.05214,130.65854,552.33628Z"/>
      <path class="cls-151" d="M142.7759,564.60487c-13.111-5.7497-36.35769-23.516-28.02018-32.16342S144.86044,544.2203,142.7759,564.60487Z"/>
      <path class="cls-152" d="M146.57842,529.88339c12.41352-9.28869,32.56114-33.74366,21.641-40.81312S139.36627,508.89731,146.57842,529.88339Z"/>
      <path class="cls-153" d="M152.21174,559.83563c17.297-4.81081,49.30951-22.74047,40.49385-34.95552S153.24194,534.15954,152.21174,559.83563Z"/>
      <path class="cls-154" d="M159.20689,535.65218c9.49519-5.478,27.31851-19.62761,20.24616-25.50814S155.90694,520.3132,159.20689,535.65218Z"/>
      <path class="cls-155" d="M140.02806,519.57109c-12.14387-10.83616-31.84359-35.50284-19.59867-41.78006S149.78751,498.499,140.02806,519.57109Z"/>
      <path class="cls-156" d="M144.57221,542.90162c-9.36164-8.86212-23.65647-30.992-13.95945-35.78344S152.54143,526.26066,144.57221,542.90162Z"/>
      <path class="cls-157" d="M143.02884,555.32115c10.57167-5.39906,28.94632-21.2392,21.62312-27.98994S140.30851,538.55014,143.02884,555.32115Z"/>
    </g>
    <rect class="cls-158" x="114.06197" y="657.29189" width="2.00007" height="37.57777" transform="translate(-30.25367 5.85109) rotate(-2.57462)"/>
    <rect class="cls-159" x="153.92546" y="675.08074" width="37.57777" height="2.00007" transform="translate(-510.42564 818.3313) rotate(-87.43212)"/>
    <rect class="cls-160" x="142.84423" y="673.53732" width="2" height="37.27637"/>
    <path class="cls-161" d="M112.514,656.41665a12.22977,12.22977,0,0,0,3.39,8.15c5.16992,5.85,15.74,9.86005,27.93994,9.86005,12.21,0,22.79-4.01,27.95007-9.87a11.47966,11.47966,0,0,0,0-16.27v7.76a3.44965,3.44965,0,0,1,0,.74c-.38,7.78-13.03,14.28-27.95007,14.28-14.91992,0-27.55994-6.5-27.93994-14.28a3.42909,3.42909,0,0,1,0-.74v-7.77A12.22538,12.22538,0,0,0,112.514,656.41665Z"/>
  </g>
</svg>
