<svg id="Layer_1" data-name="Layer 1" xmlns="http://www.w3.org/2000/svg" xmlns:xlink="http://www.w3.org/1999/xlink" viewBox="0 0 1000 1000">
  <defs>
    <style>
      .cls-1 {
        fill: none;
      }

      .cls-2 {
        fill: url(#linear-gradient);
      }

      .cls-11, .cls-3 {
        fill: #5a9137;
      }

      .cls-4 {
        fill: #fff;
      }

      .cls-5 {
        fill: #b8cbd8;
      }

      .cls-6 {
        fill: #9bb0c4;
      }

      .cls-7 {
        fill: #c7d8e2;
      }

      .cls-8 {
        fill: url(#linear-gradient-2);
      }

      .cls-11, .cls-9 {
        opacity: 0.7;
      }

      .cls-10 {
        fill: url(#linear-gradient-3);
      }

      .cls-12 {
        fill: #87a1af;
      }

      .cls-13 {
        fill: #939393;
      }

      .cls-14 {
        fill: #6b483c;
      }

      .cls-15 {
        fill: url(#linear-gradient-4);
      }

      .cls-16 {
        fill: #366d26;
      }

      .cls-17 {
        fill: url(#linear-gradient-5);
      }

      .cls-18 {
        fill: url(#linear-gradient-6);
      }

      .cls-19 {
        fill: url(#linear-gradient-7);
      }

      .cls-20 {
        fill: url(#linear-gradient-8);
      }

      .cls-21 {
        fill: url(#linear-gradient-9);
      }

      .cls-22 {
        fill: #e2e2e2;
      }

      .cls-23 {
        fill: url(#linear-gradient-10);
      }

      .cls-24 {
        fill: #f49b25;
      }

      .cls-25 {
        fill: #303d49;
      }

      .cls-26 {
        fill: #93514c;
      }

      .cls-27 {
        fill: #455260;
      }

      .cls-28, .cls-31 {
        fill: #dd7b19;
      }

      .cls-29 {
        fill: #7a403f;
      }

      .cls-30 {
        fill: url(#linear-gradient-11);
      }

      .cls-31 {
        opacity: 0.5;
      }

      .cls-32 {
        fill: #27343d;
      }

      .cls-33 {
        fill: url(#linear-gradient-12);
      }

      .cls-34 {
        fill: url(#linear-gradient-13);
      }

      .cls-35 {
        fill: #a0674a;
      }

      .cls-36 {
        fill: url(#linear-gradient-14);
      }

      .cls-37 {
        fill: url(#linear-gradient-15);
      }

      .cls-38 {
        fill: #515151;
      }

      .cls-39 {
        fill: #e0c390;
      }

      .cls-40 {
        fill: url(#linear-gradient-16);
      }

      .cls-41 {
        fill: #ffcd5c;
      }

      .cls-42 {
        fill: #cddce8;
      }

      .cls-43 {
        fill: url(#linear-gradient-17);
      }

      .cls-44 {
        fill: url(#linear-gradient-18);
      }

      .cls-45 {
        clip-path: url(#clip-path);
      }

      .cls-46 {
        fill: url(#linear-gradient-19);
      }
    </style>
    <linearGradient id="linear-gradient" x1="79.31392" y1="448.83104" x2="920.68608" y2="448.83104" gradientUnits="userSpaceOnUse">
      <stop offset="0" stop-color="#e6f4ff"/>
      <stop offset="1" stop-color="#c0e3ff"/>
    </linearGradient>
    <linearGradient id="linear-gradient-2" x1="410.16706" y1="720.74224" x2="1000.48295" y2="787.92539" gradientUnits="userSpaceOnUse">
      <stop offset="0.00005" stop-color="#9dcc52"/>
      <stop offset="1" stop-color="#69a642"/>
    </linearGradient>
    <linearGradient id="linear-gradient-3" x1="110.38062" y1="533.51614" x2="937.18117" y2="696.54724" gradientUnits="userSpaceOnUse">
      <stop offset="0.00005" stop-color="#9dcc52"/>
      <stop offset="1" stop-color="#649e3f"/>
    </linearGradient>
    <linearGradient id="linear-gradient-4" x1="415.25204" y1="120.36063" x2="523.34226" y2="330.56922" gradientUnits="userSpaceOnUse">
      <stop offset="0" stop-color="#77bf49"/>
      <stop offset="0.99995" stop-color="#366d26"/>
    </linearGradient>
    <linearGradient id="linear-gradient-5" x1="360.27259" y1="329.01474" x2="436.11489" y2="495.62893" gradientUnits="userSpaceOnUse">
      <stop offset="0" stop-color="#67a63f"/>
      <stop offset="0.99995" stop-color="#366d26"/>
    </linearGradient>
    <linearGradient id="linear-gradient-6" x1="115.68271" y1="450.47206" x2="176.59543" y2="623.05809" xlink:href="#linear-gradient-5"/>
    <linearGradient id="linear-gradient-7" x1="801.74315" y1="393.08563" x2="885.94602" y2="585.9759" xlink:href="#linear-gradient-4"/>
    <linearGradient id="linear-gradient-8" x1="736.43564" y1="498.10132" x2="795.5568" y2="636.64789" xlink:href="#linear-gradient-5"/>
    <linearGradient id="linear-gradient-9" x1="294.34801" y1="479.54212" x2="324.23957" y2="538.34519" xlink:href="#linear-gradient-5"/>
    <linearGradient id="linear-gradient-10" x1="507.28941" y1="826.35532" x2="507.28941" y2="908.20433" xlink:href="#linear-gradient-5"/>
    <linearGradient id="linear-gradient-11" x1="2728.6748" y1="367.16786" x2="2660.93012" y2="517.29552" gradientTransform="matrix(-1, 0, 0, 1, 3199.84288, 0)" gradientUnits="userSpaceOnUse">
      <stop offset="0.00005" stop-color="#ffcb48"/>
      <stop offset="1" stop-color="#e68e2b"/>
    </linearGradient>
    <linearGradient id="linear-gradient-12" x1="2699.96161" y1="354.21112" x2="2632.21693" y2="504.33878" xlink:href="#linear-gradient-11"/>
    <linearGradient id="linear-gradient-13" x1="2676.1514" y1="343.46683" x2="2608.40672" y2="493.59449" xlink:href="#linear-gradient-11"/>
    <linearGradient id="linear-gradient-14" x1="-2281.13715" y1="636.13582" x2="-2174.51204" y2="636.13582" gradientTransform="translate(2618.73624)" gradientUnits="userSpaceOnUse">
      <stop offset="0.00005" stop-color="#e6ac72"/>
      <stop offset="1" stop-color="#b3703f"/>
    </linearGradient>
    <linearGradient id="linear-gradient-15" x1="-2292.75978" y1="598.01472" x2="-2173.52574" y2="660.56791" xlink:href="#linear-gradient-14"/>
    <linearGradient id="linear-gradient-16" x1="-2254.69308" y1="592.67963" x2="-2234.79429" y2="592.67963" gradientTransform="translate(2618.73624)" xlink:href="#linear-gradient-11"/>
    <linearGradient id="linear-gradient-17" x1="505.50054" y1="323.17115" x2="525.16012" y2="358.40519" gradientUnits="userSpaceOnUse">
      <stop offset="0" stop-color="#3f3230"/>
      <stop offset="1"/>
    </linearGradient>
    <linearGradient id="linear-gradient-18" x1="519.69055" y1="315.25353" x2="539.35012" y2="350.48758" xlink:href="#linear-gradient-17"/>
    <clipPath id="clip-path">
      <circle class="cls-1" cx="1292.54335" cy="288.28891" r="196.04503"/>
    </clipPath>
    <linearGradient id="linear-gradient-19" x1="1088.87457" y1="338.6153" x2="1324.94323" y2="941.2502" gradientTransform="matrix(1, 0, 0, 1, 0, 0)" xlink:href="#linear-gradient-11"/>
  </defs>
  <path class="cls-2" d="M79.34318,582.50156S76.916,493.18774,116.27249,454.91318s101.191-29.83447,150.323-53.496,68.673-70.454,112.94076-112.54122,137.15895-27.051,188.88842,3.59733,84.58457,73.86257,134.86125,101.30245,124.53069,34.14994,152.8969,43.40629,64.50325,29.24171,64.50325,69.11385V608.247L79.34318,634.70046Z"/>
  <path class="cls-3" d="M79.34318,577.088s21.42047-26.66578,59.02509-30.45568,39.07465,2.74482,54.19441,0,13.60385-4.9883,51.955-15.36235,99.43105-18.229,99.43105-18.229L79.31392,643.21032Z"/>
  <path class="cls-4" d="M500.00631,431.57193q26.90507-15.31458,58.96574,7.99895c11.73914-9.70807,38.27648-9.70807,52.067,12.54083,0,0,10.86655-12.90471,36.93273-11.38763,42.32538,2.46338,57.721,39.794,57.721,39.794,17.07625-17.62358,66.11994-8.44188,76.44291,33.81255,26.17335-17.23562,59.32356-4.3669,54.447,42.58667l84.1034,12.24225v61.80849H752.9462Z"/>
  <path class="cls-5" d="M120.18373,698.04762,478.974,905.18614a42.10143,42.10143,0,0,0,42.1011-.00061L887.80371,693.4498a21.92256,21.92256,0,0,0,.00026-37.97061L500.00652,431.572,120.18213,650.88832A27.22767,27.22767,0,0,0,120.18373,698.04762Z"/>
  <ellipse class="cls-6" cx="540.13193" cy="704.69372" rx="66.82963" ry="38.40783"/>
  <ellipse class="cls-6" cx="405.26922" cy="670.63973" rx="68.952" ry="39.62759"/>
  <path class="cls-7" d="M580.05931,481.71029l-31.94851,17.169,1.73895,2.51848a9.0369,9.0369,0,0,0,7.14774,3.8976l24.93255.79693a9.03687,9.03687,0,0,0,5.75935-1.8394l0,0a9.0369,9.0369,0,0,0,1.06609-13.43282Z"/>
  <path class="cls-7" d="M402.25333,851.28994l53.97046-31.83584-7.90891-4.25864a15.72082,15.72082,0,0,0-7.97719-1.87036l-21.17905.70627a15.72081,15.72081,0,0,0-12.62807,7.1l-6.11869,9.34425a15.72077,15.72077,0,0,0-.72111,16.00663Z"/>
  <path class="cls-7" d="M461.149,813.47844l2.01709.97425,26.57467-15.37748-.3353-1.40824a6.32783,6.32783,0,0,0-6.15576-4.86218h-8.72643a6.32782,6.32782,0,0,0-3.99509,1.42062L459.906,802.8732A6.32783,6.32783,0,0,0,461.149,813.47844Z"/>
  <path class="cls-8" d="M546.99683,890.21926l-25.91924,14.96483a42.10145,42.10145,0,0,1-42.10484-.00154l-60.42257-34.8917S503.678,808.41656,577.746,764.14c63.00286-37.662,110.92683-85.84513,150.04235-112.41979,43.47722-29.538,79.03487-42.99775,79.03487-42.99775,24.65112-3.35862,73.135-11.75652,113.86283-10.0065C788.03937,712.70651,661.76727,813.43084,546.99683,890.21926Z"/>
  <g class="cls-9">
    <ellipse class="cls-3" cx="774.47834" cy="670.63973" rx="36.44972" ry="20.94811"/>
  </g>
  <path class="cls-3" d="M919.12044,598.661c-31.35069-1.14458-67.0089,3.54635-92.78663,7.258a16.27908,16.27908,0,0,0-.29294,3.034c0,15.319,21.60812,27.73742,48.26307,27.73742.62464,0,1.24361-.0136,1.86247-.02709q21.65364-18.30567,43.54966-37.11564C919.5287,599.249,919.32505,598.95489,919.12044,598.661Z"/>
  <path class="cls-3" d="M79.34318,634.70046v27.61648A21.05072,21.05072,0,0,0,89.867,680.54648l72.83128,42.05763-12.59478-82.778Z"/>
  <path class="cls-10" d="M162.69823,722.60411s81.5061-34.76645,143.18-72.67547c54.69711-33.6206,101.60051-70.79891,150.49025-106.74655,44.77344-32.921,119.55948-67.77444,119.55948-67.77444L500.00652,431.572C343.72008,515.595,283.92859,535.03785,205.55142,567.9652c-65.33077,27.44638-126.20824,66.73526-126.20824,66.73526s23.5283,17.73609,39.318,37.47326C133.59081,690.83571,162.69823,722.60411,162.69823,722.60411Z"/>
  <g class="cls-9">
    <ellipse class="cls-3" cx="152.79155" cy="630.4774" rx="37.56125" ry="21.58693"/>
  </g>
  <g class="cls-9">
    <ellipse class="cls-3" cx="405.67506" cy="514.51814" rx="36.44972" ry="20.94811"/>
  </g>
  <path class="cls-11" d="M496.64448,475.86127c20.13067,0,36.44977-9.37875,36.44977-20.948a12.64147,12.64147,0,0,0-1.00763-4.81888L505.1974,434.56907a62.28972,62.28972,0,0,0-8.55292-.604c-.39252,0-.77315.02666-1.16267.03373q-18.39144,9.85836-35.03988,18.551a12.288,12.288,0,0,0-.24712,2.36346C460.19481,466.48252,476.51391,475.86127,496.64448,475.86127Z"/>
  <path class="cls-12" d="M159.31176,715.51323c.81287-.346,81.98182-35.15306,142.4324-72.31045,42.10914-25.8817,80.25929-54.40844,117.15372-81.99639,10.713-8.01051,21.79164-16.2934,32.795-24.38443,44.88781-33.00481,117.81755-67.13343,120.9003-68.57073l12.169,12.26692s-2.52359,1.16418-5.24321,2.44171-74.86009,34.51421-118.4742,66.582c-10.95193,8.05334-22.00407,16.31739-32.69217,24.30906-37.1771,27.79867-75.61933,56.54468-118.34091,82.80326-50.7981,31.22421-133.68725,68.6046-138.75612,70.882Z"/>
  <polygon class="cls-12" points="584.762 467.75 584.762 480.518 567.606 470.624 567.606 457.856 584.762 467.75"/>
  <path class="cls-7" d="M584.76213,467.75035c-.14037.07013-8.42659,3.37-13.56646,5.87852-20.64728,10.01667-75.23237,36.20234-110.15908,61.88424-10.94636,8.05184-21.998,16.31429-32.68125,24.296-37.17206,27.80455-75.62468,56.55624-118.34005,82.81707C257.96731,674.6057,191.02607,704.796,171.25591,713.497l-17.15628-9.89386,5.21-2.12265c.807-.35087,81.99253-35.15466,142.44321-72.30917,42.10144-25.8924,80.25587-54.41614,117.1473-81.99253,10.7183-8.01683,21.78746-16.29683,32.7865-24.38379,38.25968-28.13775,115.70871-64.8508,115.91921-64.93849l8.33258,4.80657Z"/>
  <path class="cls-3" d="M546.99683,890.21926s53.59147-38.4426,108.23376-81.14122S743.06888,715.70373,788.578,674.45561s132.10812-75.73969,132.10812-75.73969v63.5953a21.05072,21.05072,0,0,1-10.52518,18.23035Z"/>
  <path class="cls-12" d="M418.55018,870.29085l-13.281-19.26876c.96363-.54991,97.12573-55.50483,168.25242-100.56823,36.54153-23.14928,68.55874-48.90935,96.8071-71.63549,18.99327-15.281,36.93383-29.71392,53.02338-40.64529,36.3956-24.72649,67.04621-38.27251,77.17363-42.45056l9.09268,13.36706c-.34519.1302-35.29353,13.54215-77.39411,42.14426-15.56276,10.57162-33.26092,24.811-51.99894,39.88639-28.57385,22.98825-60.96023,49.043-98.25467,72.67191C510.534,809.05085,445.31893,851.3222,418.55018,870.29085Z"/>
  <polygon class="cls-12" points="418.55 856.257 418.55 870.291 401.394 860.397 401.394 846.363 401.517 846.433 418.55 856.257"/>
  <polygon class="cls-13" points="812.14 600.97 812.14 608.023 809.618 609.09 794.984 605.11 794.984 591.077 812.14 600.97"/>
  <path class="cls-7" d="M418.55018,856.257l-17.03347-9.82373c.96362-.54991,100.87824-57.93295,172.00493-102.99636,36.54153-23.14928,68.55874-48.90934,96.8071-71.63548,18.99327-15.281,36.93383-29.71393,53.02338-40.6453a460.31851,460.31851,0,0,1,71.62921-40.08523l17.15877,9.89949c-.3452.13019-37.8152,14.64439-79.91578,43.24651-15.56276,10.57161-33.26092,24.811-51.99894,39.88638-28.57385,22.98825-60.96023,49.043-98.25467,72.67192C510.534,802.03394,419.51552,855.70542,418.55018,856.257Z"/>
  <g>
    <path class="cls-14" d="M536.90627,335.17091l-11.59721,27.90637s-9.569,13.17994-17.86458,19.25609l.48534-27.02864H500.5746l-3.17084,30.51216c-.38319,1.551-3.36624,2.284-5.54487,1.78247C483.363,385.64359,459.5854,357.364,459.5854,357.364l-1.97082-21.58417L430.799,329.33511s12.75255,28.868,16.38207,35.5798c2.53715,4.69165,20.52662,25.20439,31.12528,37.12674a30.43942,30.43942,0,0,1,7.31654,21.22561l-1.005,28.67572a5.327,5.327,0,0,0,2.7382,4.74164c3.69206,2.45352,12.50753,2.46577,16.17659.02779a5.40068,5.40068,0,0,0,2.73668-4.40274h.00285l-.00057-.01662-.00019-.00876-.94206-27.24269a30.351,30.351,0,0,1,7.67245-21.60306c9.19946-9.93363,23.52441-25.83956,28.22526-33.49012,7.12332-11.59287,15.07484-48.50729,15.07484-48.50729Z"/>
    <path class="cls-15" d="M601.07428,254.537c0-20.09683-8.3106-37.61784-20.63241-46.92564-2.984-15.28037-10.90491-27.93043-21.37641-34.83066-.01939-10.33044-4.23666-19.24267-11.4459-22.23486a13.48715,13.48715,0,0,0-1.88034-.624c-6.58879-15.43746-17.7562-27.0056-31.07616-31.46609-4.7191-8.549-11.88633-13.95558-19.83215-13.74839-8.09656.21135-15.1524,6.20754-19.51261,15.2773-9.73264-3.17356-20.94415,5.398-25.44522,19.76515a40.97139,40.97139,0,0,0-1.7526,9.23648c-9.11277,3.53479-17.49427,13.23379-21.665,26.54613a55.88539,55.88539,0,0,0-2.51751,14.55508c-7.22368,3.4046-12.44042,11.2568-13.09889,20.6018-6.20975,2.40495-11.93061,7.7091-15.60423,15.31406a37.29893,37.29893,0,0,0-3.23775,22.50441A50.61819,50.61819,0,0,0,379.69794,282.143c0,15.6569,6.64734,29.51972,16.86489,38.0762a24.3798,24.3798,0,0,0,6.16642,9.70557,20.41214,20.41214,0,0,0,16.24064,5.3827c5.29013,12.5735,18.4124,17.9508,28.31669,19.39963,6.62635,13.88107,23.57932,23.85907,40.15565,23.85907,14.35917,0,27.53561-5.81,37.86683-15.48887,13.05668.82029,31.11348-7.6075,32.29577-28.07789A52.20747,52.20747,0,0,0,580.74677,301.231C592.90073,291.86561,601.07428,274.46779,601.07428,254.537Z"/>
    <path class="cls-16" d="M540.65174,259.65673c-1.39144,16.0166-20.01463,24.32081-29.22206,17.40789,5.06905,20.70726-21.04357,36.26619-35.78234,30.20257-13.51765,13.7287-35.68288,8.2373-43.03814-2.63118-3.97586,13.95733-23.55665,22.99535-36.04637,15.58317a24.3798,24.3798,0,0,0,6.16642,9.70557,20.41214,20.41214,0,0,0,16.24064,5.3827c5.29012,12.57348,18.41239,17.95093,28.31668,19.39976,6.62624,13.881,23.57933,23.85894,40.15566,23.85894,14.35917,0,27.53561-5.81,37.86683-15.48887,13.05669.82025,31.11343-7.60758,32.29577-28.07789A52.20747,52.20747,0,0,0,580.74677,301.231c12.154-9.36535,20.32751-26.76317,20.32751-46.69394,0-20.09683-8.3106-37.61784-20.63241-46.92564-2.984-15.28037-10.90491-27.93043-21.37641-34.83066a22.34894,22.34894,0,0,1-3.10678,31.98025C561.963,228.01014,560.3244,247.85273,540.65174,259.65673Z"/>
  </g>
  <g>
    <path class="cls-14" d="M412.33092,509.04422V427.98991H399.019V509.07h.00608a3.3524,3.3524,0,0,0,1.95879,2.688,10.4057,10.4057,0,0,0,9.41471.01693A3.2658,3.2658,0,0,0,412.33092,509.04422Z"/>
    <path class="cls-17" d="M448.33779,400.99254a66.11991,66.11991,0,0,0,.14422-8.82539c-.82958-16.09547-7.14008-29.26644-14.88052-32.50592.07-.27056.17615-.52382.22923-.8015,1.2061-6.28243-2.41144-11.95738-8.08-12.67523-.04808-.006-.095.00327-.14269-.00212-2.143-16.0772-10.24264-24.74125-19.933-24.74125-9.48882,0-17.44925,8.31215-19.78915,23.75187-8.44618,4.50154-15.83856,17.96-18.06846,34.64775-.29922,2.238-.47,4.43405-.56575,6.594a12.67877,12.67877,0,0,0-7.33045,9.28268,11.67625,11.67625,0,0,0,.99649,7.50161,26.831,26.831,0,0,0-5.90282,17.20869,29.10273,29.10273,0,0,0,1.17456,8.17618c-3.77368,5.5465-5.37092,13.35751-3.80329,21.681,1.8553,9.85131,7.68082,17.924,14.83782,21.87445a31.63258,31.63258,0,0,0,18.22038,15.14859c4.71441,7.52756,12.01449,12.37889,20.23067,12.37889s15.51665-4.85133,20.23145-12.37889a31.62611,31.62611,0,0,0,18.18307-15.08051,20.59369,20.59369,0,0,0,12.40639-15.34685,18.92509,18.92509,0,0,0-1.92684-12.89329,34.53184,34.53184,0,0,0,5.50592-13.09541C462.4968,418.27661,457.48586,406.61846,448.33779,400.99254Z"/>
    <path class="cls-16" d="M460.06883,430.90223a33.92482,33.92482,0,0,1-5.51361,13.075,18.92122,18.92122,0,0,1,1.953,12.91771,20.747,20.747,0,0,1-12.41332,15.34358,31.57152,31.57152,0,0,1-18.17922,15.05993c-4.72595,7.53007-12.03564,12.382-20.22683,12.382-8.2235,0-15.5328-4.85191-20.25875-12.382a31.56985,31.56985,0,0,1-18.21076-15.15454c18.70613,5.019,31.091-3.109,31.7898-22.81057,14.93938,7.98724,31.9637-4.079,27.94649-21.70792,13.53615-4.09037,16.61975-24.33488,4.82057-33.71183,10.18572-7.84312,13.20718-22.867,1.82684-34.24738,7.75083,3.24525,14.0521,16.41488,14.87129,32.51457a68.27222,68.27222,0,0,1-.12615,8.82174C457.48509,406.61076,462.49488,418.26815,460.06883,430.90223Z"/>
  </g>
  <g>
    <path class="cls-14" d="M157.857,630.84773V547.32166H144.13916v83.55267h.00626a3.45464,3.45464,0,0,0,2.01852,2.77,10.723,10.723,0,0,0,9.70181.01744A3.3654,3.3654,0,0,0,157.857,630.84773Z"/>
    <path class="cls-18" d="M194.9619,517.82227a68.13638,68.13638,0,0,0,.14862-9.09452c-.85488-16.5863-7.35781-30.15893-15.3343-33.49719.07213-.27882.18152-.5398.23621-.826,1.24289-6.474-2.485-12.322-8.32644-13.06176-.04954-.00614-.09789.00337-.147-.00218-2.20833-16.56747-10.555-25.49573-20.54085-25.49573-9.77819,0-17.98137,8.56562-20.39262,24.47618-8.70375,4.63881-16.32156,18.5077-18.61946,35.70434-.30834,2.30623-.48431,4.56926-.583,6.795a13.06539,13.06539,0,0,0-7.554,9.56576,12.03228,12.03228,0,0,0,1.02689,7.73036,27.64912,27.64912,0,0,0-6.08284,17.73347,29.99005,29.99005,0,0,0,1.21039,8.42552c-3.88877,5.71564-5.53471,13.76485-3.91928,22.34216,1.91188,10.15173,7.915,18.47064,15.2903,22.54152a32.59716,32.59716,0,0,0,18.776,15.61054c4.85818,7.75711,12.38087,12.75639,20.84761,12.75639s15.98983-4.99928,20.8484-12.75639a32.59058,32.59058,0,0,0,18.73757-15.54039,21.22172,21.22172,0,0,0,12.78473-15.81485,19.5023,19.5023,0,0,0-1.9856-13.28648,35.58514,35.58514,0,0,0,5.67382-13.49475C209.55269,535.63342,204.38894,523.61975,194.9619,517.82227Z"/>
    <path class="cls-16" d="M207.05068,548.64405a34.95944,34.95944,0,0,1-5.68175,13.47375,19.49828,19.49828,0,0,1,2.01255,13.31164,21.37972,21.37972,0,0,1-12.79186,15.81148,32.53437,32.53437,0,0,1-18.7336,15.51919c-4.87007,7.75969-12.40267,12.75956-20.84365,12.75956-8.47427,0-16.00647-4.99987-20.87654-12.75956a32.53263,32.53263,0,0,1-18.7661-15.61669c19.27658,5.172,32.0391-3.20381,32.75923-23.50617,15.395,8.2308,32.93844-4.20342,28.79873-22.3699,13.94893-4.21512,17.12656-25.077,4.96756-34.73988,10.49634-8.0823,13.60994-23.56438,1.88256-35.29176,7.98718,3.34421,14.48061,16.91545,15.32479,33.50611a70.35556,70.35556,0,0,1-.13,9.09076C204.38815,523.61182,209.55071,535.6247,207.05068,548.64405Z"/>
  </g>
  <g>
    <path class="cls-14" d="M864.02277,612.96744V518.94682H848.58136v94.05057h.007a3.88867,3.88867,0,0,0,2.27214,3.118,12.07027,12.07027,0,0,0,10.92078.01963A3.78824,3.78824,0,0,0,864.02277,612.96744Z"/>
    <path class="cls-19" d="M905.78968,485.17323a76.69639,76.69639,0,0,0,.16729-10.2372c-.96228-18.67027-8.28228-33.94821-17.261-37.70591.08119-.31385.20432-.60762.26589-.92972,1.399-7.28743-2.79719-13.87021-9.37261-14.7029-.05576-.00691-.11019.0038-.16551-.00245-2.4858-18.64908-11.88116-28.69912-23.12169-28.69912-11.00676,0-20.24062,9.64184-22.95484,27.55147-9.79732,5.22165-18.37226,20.83307-20.95888,40.19037-.34708,2.596-.54516,5.14336-.65625,7.64879A14.707,14.707,0,0,0,803.229,479.0542a13.544,13.544,0,0,0,1.15591,8.70163,31.12313,31.12313,0,0,0-6.84711,19.96158,33.75837,33.75837,0,0,0,1.36246,9.48414c-4.37736,6.43377-6.23011,15.49431-4.41171,25.14932,2.1521,11.42723,8.90953,20.79136,17.21144,25.37372a36.69281,36.69281,0,0,0,21.1351,17.57191c5.46858,8.73175,13.93645,14.35915,23.467,14.35915s17.99885-5.6274,23.46788-14.35915a36.68534,36.68534,0,0,0,21.09183-17.493,23.88806,23.88806,0,0,0,14.391-17.80189,21.95254,21.95254,0,0,0-2.23508-14.95584,40.05607,40.05607,0,0,0,6.38671-15.19028C922.21371,505.22224,916.40117,491.69912,905.78968,485.17323Z"/>
    <path class="cls-16" d="M919.39734,519.86758a39.35175,39.35175,0,0,1-6.39563,15.16664,21.94807,21.94807,0,0,1,2.26542,14.98417,24.066,24.066,0,0,1-14.39909,17.7981,36.62206,36.62206,0,0,1-21.08736,17.46908c-5.482,8.73465-13.961,14.36272-23.46253,14.36272-9.539,0-18.01759-5.62807-23.49955-14.36272a36.62014,36.62014,0,0,1-21.12395-17.57883c21.69856,5.82185,36.06462-3.60635,36.87523-26.45958,17.32924,9.26495,37.077-4.73156,32.41712-25.18055,15.70153-4.74472,19.27842-28.22775,5.59171-39.10473,11.81513-9.0978,15.31994-26.52511,2.11908-39.726,8.99073,3.76439,16.3,19.04077,17.25026,37.71595a79.19322,79.19322,0,0,1-.14633,10.233C916.40028,491.6902,922.21148,505.21242,919.39734,519.86758Z"/>
  </g>
  <g>
    <path class="cls-14" d="M779.61141,669.76993V613.6285H769.34514v56.15932h.00468c.0154.67356.51671,1.34621,1.51064,1.86183a8.84183,8.84183,0,0,0,7.26072.01172C779.12582,671.14035,779.62111,670.45506,779.61141,669.76993Z"/>
    <path class="cls-20" d="M730.39282,593.31067a20.91606,20.91606,0,0,1,5.35147-14.31134,25.54567,25.54567,0,0,1-2.31055-7.97962c-.96822-7.79645,1.64779-14.95212,6.31949-19.20887-.49251-4.95862,1.2741-9.44426,4.6717-11.83967a22.67071,22.67071,0,0,1-.28866-3.6007c0-9.7647,6.08184-17.82049,13.91308-18.91907-.017-.32034-.034-.6255-.034-.94594,0-13.41112,7.05028-24.2743,15.73092-24.2743,7.6276,0,13.9811,8.37623,15.42525,19.46831,3.14274,1.40364,5.58912,5.05016,6.42152,9.62734,4.41684,2.68521,8.375,7.62865,10.53248,13.8231a24.91806,24.91806,0,0,1,.76438,14.96739,12.14579,12.14579,0,0,1,5.06239,10.23758,13.29877,13.29877,0,0,1-1.91944,6.95732v.01527c6.914,3.43289,10.29462,13.07551,7.61059,23.23682A27.52207,27.52207,0,0,1,812.479,600.8325c4.298,5.11116,5.0794,13.47221,1.37613,21.45174a25.99257,25.99257,0,0,1-10.92339,11.87012,29.85256,29.85256,0,0,1-14.55863,12.20583c-3.95834,5.85884-10.34585,9.18492-16.41048,7.88808a13.03447,13.03447,0,0,1-8.8679-7.12522,28.935,28.935,0,0,1-11.34787-6.46907c-6.81221-2.74629-12.87684-9.04756-15.76493-17.3628a27.4368,27.4368,0,0,1-.79838-16.29477A21.129,21.129,0,0,1,730.39282,593.31067Z"/>
    <path class="cls-16" d="M817.64305,590.56625a27.43935,27.43935,0,0,1-5.1611,10.26646c4.301,5.11616,5.08479,13.477,1.37626,21.443a25.9461,25.9461,0,0,1-10.934,11.88026,29.82687,29.82687,0,0,1-14.54689,12.20646c-3.95681,5.85437-10.34157,9.185-16.42017,7.88019a13.03214,13.03214,0,0,1-8.86964-7.12479,28.70685,28.70685,0,0,1-11.33561-6.47239c14.45,2.08382,23.00257-2.50867,23.43566-16.29246,5.56717,2.88245,11.66787-1.647,8.17013-7.85671,11.95738.58444,16.43122-13.44222,8.67076-20.522,13.12908-2.70963,15.56936-18.0513,4.18606-22.59506,8.22934-3.69856,12.15606-11.60151,10.66675-23.26085a12.12674,12.12674,0,0,1,5.06543,10.2322,13.37561,13.37561,0,0,1-1.91156,6.97023c5.31418,2.62665,8.52569,8.9274,8.52569,16.30965A26.95755,26.95755,0,0,1,817.64305,590.56625Z"/>
  </g>
  <polygon class="cls-12" points="171.256 713.497 171.256 727.531 154.1 717.637 154.1 703.603 154.222 703.673 171.256 713.497"/>
  <path class="cls-21" d="M264.412,544.91394c3.919,5.09472,12.33558,7.63275,26.0708,3.45247,7.91268,6.569,29.39529,5.94812,33.44227-6.49437,6.793,2.762,17.169-4.62818,14.28574-9.86029,12.43822,3.45451,22.81429-6.413,19.42469-14.09284,20.484-9.5638,8.16706-28.26311-2.65689-26.88212,1.19249-11.52929-9.219-17.50494-17.72888-11.06655-5.71057-9.79755-23.5141-6.71832-23.43273,6.40679-15.04828-8.77687-32.96379,5.10765-25.29731,24.29114-7.47986-6.84792-16.8855.87814-14.078,9.289C261.68607,522.38653,260.493,539.81922,264.412,544.91394Z"/>
  <polygon class="cls-22" points="546.782 503.649 549.828 509.74 541.169 522.729 521.852 521.236 523.85 515.861 546.782 503.649"/>
  <polygon class="cls-22" points="554.008 510.785 549.828 518.698 556.397 518.698 568.116 513.189 566.101 509.964 554.008 510.785"/>
  <path class="cls-23" d="M442.70791,883.83648,478.709,905.043a42.10143,42.10143,0,0,0,42.65839.046l52.049-30.50876c2.3708-9.29742-9.34893-15.79179-16.44049-9.10358,3.20987-10.122-7.13541-19.01629-16.18066-8.95979-1.95878-17.58477-22.18837-23.10872-33.62821-10.29569-11.55172-9.37922-24.24187-1.54119-24.73039,11.09368-4.66219-8.90247-22.80164-6.06585-19.72537,8.84844C447.15019,856.51687,436.3449,869.66836,442.70791,883.83648Z"/>
  <g>
    <g>
      <g>
        <path class="cls-24" d="M525.166,690.5133c2.94491,2.95954,3.39323,10.56912,1.96059,12.94446-2.64851,4.39125-6.78606,3.74994-12.8642,6.971-5.84638,3.09821-16.82127,10.58944-28.65208,7.25761-8.59906-2.4217-7.10176-9.56216-5.15419-13.0423l14.88941-8.94185,8.51951-8.15888S517.84446,683.15538,525.166,690.5133Z"/>
        <path class="cls-25" d="M523.20056,679.40044c2.9449,2.95954,5.77162,16.75248,3.926,19.92977-1.28021,2.204-5.79064,4.85617-12.21067,7.3264-5.91518,2.276-14.89139,10.74019-28.61768,8.34682-6.63119-1.15624-8.73665-8.48441-4.35686-12.24506l13.40415-11.18373,8.51951-8.15888S515.879,672.04251,523.20056,679.40044Z"/>
        <path class="cls-24" d="M496.984,690.71968l6.75313-10.31888c1.92619-3.05184,10.20506-3.00713,13.51652,5.59974,0,0-9.15395,8.20129-14.11183,8.48812S495.94713,692.57708,496.984,690.71968Z"/>
        <path class="cls-24" d="M596.70785,668.606c3.12647,1.25931,7.07123,2.815,9.75154,7.47208,2.49195,4.32979,3.78983,9.64894-3.74209,19.734-3.80211,5.091-8.63548,17.99017-18.33054,20.95812-11.2567,3.446-19.712-1.67088-16.69855-11.38845l10.18867-11.93137,5.17021-15.09574C585.79278,671.2525,591.26586,666.414,596.70785,668.606Z"/>
        <path class="cls-25" d="M595.34615,665.66979c3.12647,1.25931,6.25413,4.13165,9.28605,8.56783,1.78452,2.611,4.03412,7.36309-2.87234,17.94818-3.47213,5.3215-9.03974,18.68028-18.7348,21.64823-11.2567,3.446-18.54383-3.057-14.58435-10.2028l8.07446-13.117,5.17022-15.09574C584.43108,668.31633,589.90416,663.47779,595.34615,665.66979Z"/>
        <path class="cls-24" d="M577.82368,689.078c-.32272,1.72766,6.19273,4.428,9,2.3617s6.89362-12.89112,6.89362-12.89112c-.65957-6.70212-11.45254-7.61111-12.46808-4.38547C581.24922,674.16315,578.36172,686.19774,577.82368,689.078Z"/>
      </g>
      <g>
        <g>
          <path class="cls-26" d="M457.58146,488.46958l-.86823-4.35818a2.63145,2.63145,0,0,1-.03292-.91528,7.88587,7.88587,0,0,1,1.634-3.71547l8.3998-10.50271,9.75961,4.71457-1.37763,7.65637-.89908,4.51474a4.038,4.038,0,0,1-2.429,2.94773l-5.2939,2.16958C464.86869,491.63889,459.10676,493.48975,457.58146,488.46958Z"/>
          <path class="cls-27" d="M481.47152,487.55484c2.26913,1.18858,3.58116-5.92651,1.00571-8.1966-2.63809-1.76515-7.15075-1.47895-12.25721-.54316l2.37651,1.12626c.95528.45365,2.23561,1.63559,2.166,2.83734l-.39477,1.98186C475.88319,485.16977,481.47152,487.55484,481.47152,487.55484Z"/>
          <path class="cls-28" d="M480.85865,468.10761l-3.35106,5.8617c-2.5304,4.76244-13.42553-1.48936-11.14894-5.6383l3.34043-6.70212C472.24887,459.93169,477.29585,462.119,480.85865,468.10761Z"/>
          <polygon class="cls-29" points="459.398 485.992 464.016 488.273 462.521 484.24 459.398 485.992"/>
          <path class="cls-29" d="M472.27467,480.94767l-3.7266-1.76541.21816,5.79634c.15891,2.36945-1.23165,3.86359-2.62127,4.06287-1.0673.15575-2.47705-.36036-2.938-2.46484l-2.088-7.09049a.7615.7615,0,0,1,.52718-.96721.77978.77978,0,0,1,.96721.52718l2.10088,7.14164c.21864.91989.65487,1.39182,1.20818,1.3128.59644-.08655,1.39208-.89349,1.28843-2.44152l-.29051-7.71805a.77873.77873,0,0,1,1.52963-.23314.76059.76059,0,0,1,.02674.17557l.00542.14406,4.45977,2.1135c.87948.41758,2.05813,1.50575,1.994,2.61205l-.36337,1.82447A4.1857,4.1857,0,0,0,472.27467,480.94767Z"/>
          <path class="cls-27" d="M462.999,486.23215l-1.35605-4.96675a3.55261,3.55261,0,0,0-.30759.66438c-12.8098,53.93486-31.44932,79.5261-83.62771,106.11734a2.3029,2.3029,0,1,0,2.09106,4.10376c51.92989-26.46543,71.2568-51.46019,84.64509-103.6071A3.42712,3.42712,0,0,1,462.999,486.23215Z"/>
        </g>
        <path class="cls-30" d="M481.465,426.37357s6.99868-36.4947,13.33465-53.34776a26.45184,26.45184,0,0,1,18.02349-16.20469l-1.63966,4.95106,2.67822-1.9881-5.86767,41.46313-4.23115,31.16891c-8.21656,17.06738-12.6627,27.55319-21.40426,38.34043-3.27659,3.87234-16.10627-3.52956-13.3617-9.21041Z"/>
        <path class="cls-31" d="M488.5289,462.14485l5.85742-74.59814,5.09033,53.8396A196.97769,196.97769,0,0,1,488.5289,462.14485Z"/>
        <path class="cls-32" d="M490.94512,493.98325c-3.55506,33.26908-2.22117,72.25532-1.32756,92.04256.76979,17.04521,10.31556,95.83712,10.31556,95.83712.96565,9.10157,27.254,14.23342,27.78165.41207.19771-25.03637,4.37837-67.248,1.38278-94.88749l9.09268-80.41826Z"/>
        <path class="cls-25" d="M603.01334,667.19621c-4.55786-20.57764-20.42638-61.82059-27.28344-83.27567L569.174,513.85729,561.30114,445.339,493.6933,454.196l-2.74818,39.78723,30.4603,22.85107c2.25061,13.61016,10.56162,64.98894,16.04256,80.0851s34.72656,73.35235,40.91067,83.70038C582.9307,689.41862,606.76941,684.187,603.01334,667.19621Z"/>
        <path class="cls-28" d="M492.298,472.07975l.74148-13.536,70.68,1.85453.92921,11.85954.90146,6.88167s-13.3617,12.17022-42.8842,8.84373C499.74026,485.40007,492.097,477.30636,492.298,472.07975Z"/>
        <path class="cls-33" d="M534.37415,356.962c-22.35547-5.15381-37.22965,2.82214-39.501,23.04118-1.27271,10.82726-.24365,40.74605-.24365,40.74605L492.298,457.345c-2.317,28.97872,73.74259,26.42888,72.46687,5.6994l-2.10837-34.20271,8.79144-40.26682C566.46924,374.91526,548.58691,360.23857,534.37415,356.962Z"/>
        <path class="cls-31" d="M557.55014,447.99056l-7.97217-40.2815,13.51612,28.23169,1.67077,27.10352c.23316,3.78882-2.12463,6.967-6.10766,9.45971Z"/>
        <path class="cls-26" d="M561.54087,508.99732c.54627-2.16787,3.36249-9.63584,3.36259-9.63612l-.00552-.15714,10.87825-1.00089s2.381,10.18618,2.41093,13.15324a24.96986,24.96986,0,0,1-2.85862,10.99925c-2.01331,3.94651-6.24653,6.35579-6.427,6.48005a1.61822,1.61822,0,0,1-1.75052.28831,2.39338,2.39338,0,0,1-1.04794-1.7343l-.46614-8.07609a1.59726,1.59726,0,0,1-3.06232-.03328l-1.44956-5.73154C560.8074,512.29267,560.99474,511.16545,561.54087,508.99732Z"/>
        <path class="cls-28" d="M564.18376,500.75655l.61106-6.89362c.06383-5.42553,13.96367-3.7782,13.14894,1.85106l-1.28571,6.51924C576.14589,506.714,563.59378,504.25313,564.18376,500.75655Z"/>
        <path class="cls-34" d="M571.448,388.57481c4.34033,9.82019,13.33717,37.7282,13.94744,53.96163.6383,16.97873-5.10286,52.41991-5.10286,52.41991-1.17462,5.112-17.25973,2.41277-16.76459-3.44118l.18395-43.52646-14.5281-41.40291C544.63011,387.86968,565.23509,374.82054,571.448,388.57481Z"/>
        <g>
          <path class="cls-35" d="M337.5991,625.91258c-1.07173,10.33144,1.57048,23.85722,26.74937,33.79467l-5.22846,18.704-4.47034,3.81964c-5.24595,3.758-1.10637,9.20241,4.27424,6.839s6.88888-8.9263,6.88888-8.9263,10.19168-13.77878,9.03093-24.12481-10.966-22.45612-10.966-22.45612Z"/>
          <path class="cls-35" d="M414.42986,608.62313l.05856-6.61729,8.75176-8.98847s19.32785-1.97573,24.80012.59891,12.65952,19.066,12.65952,19.066,2.86888,6.18449,1.9203,10.64908-7.925,3.07766-7.951-.53893l-1.65617-9.13784-9.0841-7.9Z"/>
          <path class="cls-35" d="M421.18053,580.21405c8.798-3.03137,20.14924-3.42615,27.95713-4.69082,8.7669-1.42,30.8883-17.28228,34.025-11.10517s-.0714,14.652-6.61889,19.4527-19.61046,6.25562-26.20832,6.25562-16.85672-3.48912-16.85672-3.48912Z"/>
          <path class="cls-36" d="M362.20119,654.92216c-11.35324-2.11478-23.46561-9.45618-24.60209-21.98241l3.34038-21.07384,18.01694-23.496,8.7955,9.23117,15.56088-.05245s32.17325-17.71441,38.97253-17.40687c12.621.57086,16.57431,8.84429,18.73009,13.2738a33.01339,33.01339,0,0,1,2.72213,19.83711c-1.43914,8.26734-12.186,25.366-12.186,25.366s10.97312,5.153,10.44512,8.62279-11.09291,17.56219-13.879,19.00825-6.735,1.32605-5.92974-3.63,7.275-14.97393,7.275-14.97393-13.11586-2.69854-13.30267-7.58579,3.77976-15.743,3.77976-15.743c-8.94491,10.40317-21.21448,21.05395-29.24558,24.19327,0,0,5.71119,4.1,5.71119,11.22906s-21.21762,16.20027-24.49705,19.09447c-2.27371,5.15709-4.547,12.78036-7.70464,13.20291a7.37423,7.37423,0,0,1-7.79438-3.62062c-2.07983-3.131,2.82515-9.566,4.95776-13.33169s16.12076-15.76731,16.12076-15.76731Z"/>
          <path class="cls-35" d="M415.42854,629.2818c-10.59317,8.24452-21.60588,13.75088-31.05993,14.98281l6.32583,4.24569,3.025-1.427C400.16559,643.61042,408.34422,636.70642,415.42854,629.2818Z"/>
          <path class="cls-35" d="M328.93625,576.76279a22.63679,22.63679,0,0,0-10.2207,12.295c-1.4778,4.78222,3.18529,9.39428,8.78754,6.7258L342.589,575.748S333.60732,574.22237,328.93625,576.76279Z"/>
          <path class="cls-37" d="M360.9561,591.24526s-1.615-9.19951-9.48818-13.19244-18.37477-2.58854-21.59723,1.46133-4.47546,7.2463-6.273,10.8687c-1.64938,3.32392-10.10756,13.42646-10.10756,13.42646-2.15887,3.4502,2.3006,15.68935,12.63445,14.5579,4.76663-.52189,5.69493-3.82176,5.69493-3.82176l6.9281,23.50641Z"/>
          <path class="cls-38" d="M313.62471,604.67674c1.69723-1.47087,5.09156.792,5.39328,2.22518s-2.45124,4.45038-3.80908,3.96007S311.92748,606.1476,313.62471,604.67674Z"/>
          <path class="cls-39" d="M331.81956,614.54545l9.4287-1.76a143.81474,143.81474,0,0,0,15.76477,19.838c10.40928,11.18872,7.03013,22.82833,7.03013,22.82833s-11.36733-1.59491-15.33995-4.88867-9.58007-6.70066-12.17584-13.86646S331.81956,614.54545,331.81956,614.54545Z"/>
          <path class="cls-27" d="M333.11224,622.45216a10.78743,10.78743,0,0,1-1.29281-7.90671c10.0323,9.55438,29.13667,1.86059,28.72936-15.352l6.7534-1.44023C370.23835,618.97065,342.90767,635.33889,333.11224,622.45216Z"/>
          <path class="cls-40" d="M364.36126,597.22327l0,0A3.70282,3.70282,0,0,1,366.107,592.39l12.84859-6.06141a3.47581,3.47581,0,0,1,4.6683,1.80741h0a3.70281,3.70281,0,0,1-1.74572,4.83327l-12.84858,6.06142A3.47582,3.47582,0,0,1,364.36126,597.22327Z"/>
          <path class="cls-35" d="M351.08428,583.80274c0-2.29544,2.13438-2.5924,4.43178-2.80676,0,0,8.04236,7.30753,14.9088,10.32917,7.15442,3.14836,9.37363,14.80508,1.33024,14.81745-10.30871.01586-15.72235-4.78206-18.09445-9.25512S351.08428,583.80274,351.08428,583.80274Z"/>
        </g>
        <g>
          <path class="cls-41" d="M517.27175,386.14381s-7.86919-11.12062-9.0827-17.06224c-1.21341-5.94161-.71706-9.5975,1.80183-14.3411,1.93638-3.64662,7.67642-13.011,25.80012-9.82813,13.0764,2.29647,24.7393,17.66745,24.20987,26.74328-.2574,4.41264-5.87943,6.812-15.15008,9.193a264.91445,264.91445,0,0,1-27.579,5.29518"/>
          <path class="cls-28" d="M546.6069,362.87282c-.80406,15.8099-29.33521,23.27105-29.33521,23.27105-3.24883-12.431-7.8781-19.91531-2.43183-31.54671C521.20715,340.99878,547.17335,351.735,546.6069,362.87282Z"/>
          <g>
            <path class="cls-42" d="M520.412,360.7821c-7.49256,5.84045-3.14028,25.36171-3.14028,25.36171s21.57625-10.60243,19.64572-20.64121C535.29853,357.08414,525.32691,356.951,520.412,360.7821Z"/>
            <path class="cls-26" d="M534.00648,373.81223c-3.82229,3.2015-10.14925,3.9551-12.89432,2.98167-2.26437-.803-4.38464-3.52155-4.84962-6.76652.459-3.78527,1.63588-7.28593,4.1494-9.24524,4.915-3.83126,14.88664-3.69792,16.50554,4.72051C537.45736,368.30985,536.15724,371.16094,534.00648,373.81223Z"/>
            <path class="cls-29" d="M519.51908,365.9599c-.05027,2.50169.688,4.90091,3.48016,5.83324,5.6657,1.89182,12.32527-2.35573,12.13833-7.02514l-.62881-12.40365L519.841,354.43141Z"/>
          </g>
        </g>
      </g>
    </g>
    <g>
      <path class="cls-43" d="M508.989,322.67914c-3.156,5.248.91389,12.621.91389,12.621l1.21388,9.669,4.84884-14.77471Z"/>
      <path class="cls-26" d="M521.59963,364.01228c9.26441-.74313,15.83948-8.14511,17.58888-16.50007l3.75267-18.06935c1.71748-7.247-4.94427-11.89008-13.51384-13.14726-7.48969-1.09875-16.12806,3.95628-17.34926,12.25264a169.50385,169.50385,0,0,0-1.38126,18.534C510.68606,355.35912,513.1803,364.68763,521.59963,364.01228Z"/>
      <path class="cls-44" d="M524.09642,315.60872c-10.889.553-16.50347,5.21384-16.31986,11.82464.33019,11.8883,15.84172,9.24058,19.65183,11.37467,1.88648,1.31532,2.86364,2.14212,3.31083,3.9139l-.36428,2.79683c-.21121,1.20429,2.65534,1.47685,2.65534,1.47685a56.73492,56.73492,0,0,0,1.69972,5.64966,52.37384,52.37384,0,0,0,.20784,7.99542c2.5297-4.3522,7.5903-13.80507,7.5903-13.80507s7.40612-9.47562,4.594-17.87472C544.07385,319.85628,533.47535,315.13242,524.09642,315.60872Z"/>
      <path class="cls-26" d="M533.91611,354.99756c3.03416.54333,6.34694-3.23585,6.96349-6.67887s-1.84566-6.87445-4.7308-5.7894C532.527,343.89137,530.882,354.45424,533.91611,354.99756Z"/>
    </g>
  </g>
  <g class="cls-45">
    <g>
      <path class="cls-46" d="M1265.62742,299.94314s-55.51132-.93164-101.96651,53.94633c-45.667,53.94692-116.842,172.71438-116.842,172.71438l-16.06782,5.86506c-31.03595,9.28635-37.26757,45.08765-30.35209,69.64759,6.93657,24.63485,39.405,45.68165,78.67029,26.33324,29.12036-14.34938,98.68707-81.08342,124.449-124.20683Z"/>
      <path class="cls-32" d="M1243.74782,958.11149,1174.1762,733.47057,966.7242,802.9948c-69.64758,23.09367-85.24044,99.0968-69.68743,155.00255l94.24737,305.42951c13.35625,37.02319,109.15628,19.97288,108.87017-15.42065l-28.59216-269.79275Z"/>
    </g>
  </g>
</svg>
