<svg id="Layer_1" data-name="Layer 1" xmlns="http://www.w3.org/2000/svg" xmlns:xlink="http://www.w3.org/1999/xlink" viewBox="0 0 1000 1000">
  <defs>
    <style>
      .cls-1, .cls-39, .cls-46 {
        fill: none;
      }

      .cls-2 {
        fill: url(#linear-gradient);
      }

      .cls-3 {
        fill: #6b483c;
      }

      .cls-4 {
        fill: url(#linear-gradient-2);
      }

      .cls-5 {
        fill: #366d26;
      }

      .cls-6 {
        fill: url(#linear-gradient-3);
      }

      .cls-7 {
        fill: #6e9e4f;
      }

      .cls-8 {
        fill: #b8cbd8;
      }

      .cls-9 {
        fill: #9bb0c4;
      }

      .cls-10 {
        fill: #87a1af;
      }

      .cls-11 {
        fill: #c7d8e2;
      }

      .cls-12 {
        fill: #5a9137;
      }

      .cls-13 {
        fill: url(#linear-gradient-4);
      }

      .cls-14 {
        fill: url(#linear-gradient-5);
      }

      .cls-15 {
        fill: #f2f2f2;
      }

      .cls-16 {
        fill: #e2e2e2;
      }

      .cls-17 {
        fill: #fff;
      }

      .cls-18 {
        fill: #303030;
      }

      .cls-19 {
        fill: #424242;
      }

      .cls-20 {
        fill: url(#linear-gradient-6);
      }

      .cls-21 {
        fill: url(#linear-gradient-7);
      }

      .cls-22 {
        fill: #a0674a;
      }

      .cls-23 {
        fill: url(#linear-gradient-8);
      }

      .cls-24 {
        fill: #c93535;
      }

      .cls-25 {
        fill: url(#linear-gradient-9);
      }

      .cls-26 {
        clip-path: url(#clip-path);
      }

      .cls-27 {
        fill: #473634;
      }

      .cls-28 {
        fill: url(#linear-gradient-10);
      }

      .cls-29 {
        fill: url(#linear-gradient-11);
      }

      .cls-30, .cls-31 {
        fill: #dd7b19;
      }

      .cls-30 {
        opacity: 0.5;
      }

      .cls-32 {
        fill: #a05452;
      }

      .cls-33 {
        fill: #27343d;
      }

      .cls-34 {
        fill: #303d49;
      }

      .cls-35 {
        fill: url(#linear-gradient-12);
      }

      .cls-36 {
        fill: #ffcd5c;
      }

      .cls-37 {
        fill: url(#linear-gradient-13);
      }

      .cls-38 {
        fill: #323f4c;
      }

      .cls-39, .cls-46 {
        stroke: #565656;
        stroke-miterlimit: 10;
      }

      .cls-39 {
        stroke-width: 3.55339px;
      }

      .cls-40 {
        fill: url(#linear-gradient-14);
      }

      .cls-41 {
        fill: url(#linear-gradient-15);
      }

      .cls-42 {
        fill: #f49b25;
      }

      .cls-43 {
        fill: #cddce8;
      }

      .cls-44 {
        fill: url(#linear-gradient-16);
      }

      .cls-45 {
        fill: url(#linear-gradient-17);
      }

      .cls-46 {
        stroke-width: 1.32115px;
      }
    </style>
    <linearGradient id="linear-gradient" x1="10758.53195" y1="454.66992" x2="11599.90411" y2="454.66992" gradientTransform="matrix(-1, 0, 0, 1, 11708.67355, 0)" gradientUnits="userSpaceOnUse">
      <stop offset="0" stop-color="#e6f4ff"/>
      <stop offset="1" stop-color="#c0e3ff"/>
    </linearGradient>
    <linearGradient id="linear-gradient-2" x1="722.90424" y1="374.47994" x2="782.0254" y2="513.02651" gradientUnits="userSpaceOnUse">
      <stop offset="0" stop-color="#77bf49"/>
      <stop offset="0.99995" stop-color="#366d26"/>
    </linearGradient>
    <linearGradient id="linear-gradient-3" x1="154.78527" y1="560.05828" x2="936.34095" y2="560.05828" gradientUnits="userSpaceOnUse">
      <stop offset="0.00005" stop-color="#9dcc52"/>
      <stop offset="1" stop-color="#649e3f"/>
    </linearGradient>
    <linearGradient id="linear-gradient-4" x1="154.78527" y1="523.01438" x2="936.34095" y2="523.01438" xlink:href="#linear-gradient-3"/>
    <linearGradient id="linear-gradient-5" x1="798.43447" y1="328.23375" x2="907.61493" y2="578.34219" xlink:href="#linear-gradient-2"/>
    <linearGradient id="linear-gradient-6" x1="373.07721" y1="382.44815" x2="684.05593" y2="854.27793" gradientUnits="userSpaceOnUse">
      <stop offset="0.00005" stop-color="#e6ac72"/>
      <stop offset="1" stop-color="#b3703f"/>
    </linearGradient>
    <linearGradient id="linear-gradient-7" x1="471.80298" y1="317.37889" x2="782.7817" y2="789.20868" xlink:href="#linear-gradient-6"/>
    <linearGradient id="linear-gradient-8" x1="186.67434" y1="531.00086" x2="167.00011" y2="655.30626" gradientUnits="userSpaceOnUse">
      <stop offset="0" stop-color="#67a63f"/>
      <stop offset="0.99995" stop-color="#366d26"/>
    </linearGradient>
    <linearGradient id="linear-gradient-9" x1="132.31148" y1="104.87306" x2="402.8356" y2="458.70428" gradientTransform="matrix(1, 0, 0, 1, 0, 0)" xlink:href="#linear-gradient"/>
    <clipPath id="clip-path">
      <circle class="cls-1" cx="272.54335" cy="288.28891" r="196.04503"/>
    </clipPath>
    <linearGradient id="linear-gradient-10" x1="751.55295" y1="549.97952" x2="800.12507" y2="549.97952" gradientTransform="matrix(-0.66145, -0.76273, -0.84432, 0.61376, 1320.21625, 541.01402)" gradientUnits="userSpaceOnUse">
      <stop offset="0" stop-color="#ffc050"/>
      <stop offset="0.50022" stop-color="#fbb648"/>
      <stop offset="1" stop-color="#f5a83d"/>
    </linearGradient>
    <linearGradient id="linear-gradient-11" x1="91.29064" y1="329.88699" x2="259.7637" y2="850.87161" gradientUnits="userSpaceOnUse">
      <stop offset="0.00005" stop-color="#ffcb48"/>
      <stop offset="1" stop-color="#e68e2b"/>
    </linearGradient>
    <linearGradient id="linear-gradient-12" x1="206.52404" y1="292.62347" x2="374.99709" y2="813.60808" xlink:href="#linear-gradient-11"/>
    <linearGradient id="linear-gradient-13" x1="245.21512" y1="280.11177" x2="413.68817" y2="801.09638" xlink:href="#linear-gradient-11"/>
    <linearGradient id="linear-gradient-14" x1="526.86826" y1="625.8293" x2="544.92738" y2="625.8293" gradientTransform="matrix(-0.66145, -0.76273, -0.84432, 0.61376, 1460.25236, 392.54123)" xlink:href="#linear-gradient-10"/>
    <linearGradient id="linear-gradient-15" x1="483.91684" y1="383.92106" x2="546.55513" y2="577.62319" xlink:href="#linear-gradient-11"/>
    <linearGradient id="linear-gradient-16" x1="526.76062" y1="370.06648" x2="589.39892" y2="563.76861" xlink:href="#linear-gradient-11"/>
    <linearGradient id="linear-gradient-17" x1="541.14597" y1="365.41463" x2="603.78427" y2="559.11675" xlink:href="#linear-gradient-11"/>
  </defs>
  <path class="cls-2" d="M950.11233,562.3607s2.42714-89.31382-36.9293-127.58838-101.191-29.83446-150.323-53.496-63.3827-76.8345-112.94076-112.54122c-54.68805-39.4029-146.59745-38.20853-194.76521-7.155-50.53525,32.57984-78.70778,84.6149-128.98446,112.05477s-124.53069,34.14994-152.8969,43.40629-64.50325,29.24171-64.50325,69.11385V670.65079l841.3429-17.71821Z"/>
  <g>
    <path class="cls-3" d="M766.08,546.14855V490.00712H755.81374v56.15931h.00468c.0154.67356.51671,1.34622,1.51064,1.86184a8.84183,8.84183,0,0,0,7.26072.01172C765.59442,547.519,766.08971,546.83368,766.08,546.14855Z"/>
    <path class="cls-4" d="M716.86142,469.68929a20.916,20.916,0,0,1,5.35147-14.31134,25.54575,25.54575,0,0,1-2.31055-7.97962c-.96822-7.79645,1.64779-14.95212,6.31949-19.20887-.49251-4.95862,1.2741-9.44427,4.67171-11.83967a22.66953,22.66953,0,0,1-.28867-3.6007c0-9.7647,6.08184-17.8205,13.91308-18.91907-.017-.32034-.034-.62551-.034-.94594,0-13.41112,7.05028-24.2743,15.73092-24.2743,7.6276,0,13.9811,8.37623,15.42525,19.46831,3.14274,1.40364,5.58912,5.05015,6.42152,9.62734,4.41684,2.6852,8.375,7.62864,10.53248,13.8231a24.91806,24.91806,0,0,1,.76438,14.96739,12.14577,12.14577,0,0,1,5.06239,10.23758,13.29877,13.29877,0,0,1-1.91944,6.95732v.01527c6.914,3.43289,10.29462,13.0755,7.61059,23.23681a27.522,27.522,0,0,1-5.16442,10.26822c4.298,5.11115,5.0794,13.47221,1.37613,21.45174A25.9927,25.9927,0,0,1,789.40036,510.533a29.85262,29.85262,0,0,1-14.55864,12.20583c-3.95834,5.85884-10.34585,9.18491-16.41048,7.88808a13.03447,13.03447,0,0,1-8.8679-7.12522,28.93522,28.93522,0,0,1-11.34787-6.46907c-6.81221-2.74629-12.87684-9.04756-15.76493-17.3628a27.4368,27.4368,0,0,1-.79838-16.29477A21.129,21.129,0,0,1,716.86142,469.68929Z"/>
    <path class="cls-5" d="M804.11165,466.94487a27.43935,27.43935,0,0,1-5.1611,10.26646c4.301,5.11615,5.08479,13.477,1.37626,21.443a25.9461,25.9461,0,0,1-10.934,11.88026A29.82692,29.82692,0,0,1,774.84589,522.741c-3.95681,5.85437-10.34157,9.185-16.42017,7.88018a13.03213,13.03213,0,0,1-8.86964-7.12478,28.70685,28.70685,0,0,1-11.33561-6.47239c14.45005,2.08382,23.00257-2.50867,23.43566-16.29246,5.56717,2.88245,11.66787-1.647,8.17013-7.85671,11.95738.58444,16.43122-13.44222,8.67076-20.522,13.12908-2.70964,15.56936-18.0513,4.18606-22.59506,8.22934-3.69856,12.15606-11.60152,10.66675-23.26085a12.12673,12.12673,0,0,1,5.06543,10.2322,13.37555,13.37555,0,0,1-1.91156,6.97022c5.31418,2.62666,8.52569,8.92741,8.52569,16.30965A26.95757,26.95757,0,0,1,804.11165,466.94487Z"/>
  </g>
  <path class="cls-6" d="M108.86281,602.7253s75.13369-31.572,116.48865-53.12409S318.66931,479.887,359.71775,458.7118s82.59-30.02162,82.59-30.02162v159.448L122.28938,690.923a10.35043,10.35043,0,0,1-13.51556-9.86637Z"/>
  <polygon class="cls-7" points="342.623 472.807 360.091 480.972 398.162 482.536 417.421 449.865 417.421 383.677 385.397 397.786 380.022 422.196 357.852 435.408 349.566 455.563 342.623 472.807"/>
  <path class="cls-8" d="M124.283,704.23233,508.38849,925.986a42.10143,42.10143,0,0,0,42.1011-.00062L926.24334,709.03886a15.90552,15.90552,0,0,0,.00019-27.54891L529.421,452.37183,124.28235,686.305A10.35042,10.35042,0,0,0,124.283,704.23233Z"/>
  <ellipse class="cls-9" cx="458.82996" cy="762.12336" rx="92.12777" ry="52.947"/>
  <path class="cls-9" d="M809.23,762.04451,416.51153,535.36127l-2.46,1.41032L297.67682,603.96283a8.16578,8.16578,0,0,0-4.05109,7.0683v2.64033a2.7263,2.7263,0,0,0,1.41032,2.39451L678.58038,837.45783Z"/>
  <g>
    <path class="cls-10" d="M529.03529,476.93813,129.80839,707.426l-5.52765-3.19222a10.35043,10.35043,0,0,1,.00121-17.927l394.228-227.59495Z"/>
    <polygon class="cls-11" points="529.035 462.904 129.808 693.392 108.758 681.235 518.51 444.678 529.035 462.904"/>
  </g>
  <path class="cls-12" d="M950.10057,652.93258V683.1244a21.0507,21.0507,0,0,1-10.50787,18.22034l-75.64743,43.77195,2.58936-44.33478Z"/>
  <path class="cls-13" d="M950.10057,652.93258s-26.28268-31.8858-88.15151-87.95457-142.19344-71.1149-189.00857-112.60618S623.9732,428.4083,580.22775,410.08c-47.19544-19.7738-98.44975-22.66563-98.44975-22.66563l-44.19158-49.22171V445.00449L855.20276,707.83614Z"/>
  <path class="cls-12" d="M917.00529,617.42275q-11.76972-11.88535-28.09161-27.4539a78.869,78.869,0,0,0-19.7359-2.44076c-26.51384,0-48.00739,12.35239-48.00739,27.5901s21.49355,27.59009,48.00739,27.59009C894.33953,642.70828,914.96583,631.58119,917.00529,617.42275Z"/>
  <g>
    <path class="cls-3" d="M879.18846,613.34039V491.42988H859.16657V613.37922h.00914c.03,1.46263,1.00772,2.9233,2.94614,4.043a15.65077,15.65077,0,0,0,14.16028.02545C878.24144,616.31623,879.20739,614.82815,879.18846,613.34039Z"/>
    <path class="cls-14" d="M933.34493,447.63783a99.44852,99.44852,0,0,0,.21692-13.27391c-1.24774-24.20854-10.7391-44.01847-22.38118-48.89084.10528-.40695.26493-.78786.34476-1.20551,1.814-9.44914-3.62694-17.9846-12.15286-19.0643-.07231-.009-.14288.00492-.21461-.00318-3.22318-24.18106-15.40554-37.21231-29.98041-37.21231-14.27176,0-26.24472,12.502-29.76407,35.72422-12.70355,6.77058-23.82212,27.01291-27.176,52.11228-.45,3.36606-.70688,6.66906-.85092,9.91769a19.06962,19.06962,0,0,0-11.02544,13.96171,17.56168,17.56168,0,0,0,1.49879,11.28285c-5.45719,6.50768-8.8782,15.68407-8.8782,25.8829a43.772,43.772,0,0,0,1.76661,12.29747c-5.67584,8.34226-8.07819,20.09049-5.72038,32.60951,2.79049,14.817,11.55242,26.95883,22.317,32.90048a47.57723,47.57723,0,0,0,27.40453,22.78437c7.09076,11.3219,18.0705,18.61859,30.42814,18.61859s23.338-7.29669,30.42929-18.61859a47.56752,47.56752,0,0,0,27.34842-22.682c9.10207-3.51443,16.5694-12.19537,18.66-23.08256a28.46448,28.46448,0,0,0-2.89809-19.39229,51.93793,51.93793,0,0,0,8.28123-19.69626C954.64092,473.6341,947.10417,456.09954,933.34493,447.63783Z"/>
    <path class="cls-5" d="M950.98911,492.62378a51.02487,51.02487,0,0,1-8.2928,19.6656,28.45867,28.45867,0,0,1,2.93742,19.429c-2.1322,10.85161-9.57235,19.52359-18.67037,23.07765a47.48547,47.48547,0,0,1-27.34263,22.651c-7.10812,11.32567-18.10232,18.62323-30.42236,18.62323-12.36862,0-23.36225-7.29756-30.47036-18.62323a47.483,47.483,0,0,1-27.39007-22.79333c28.13514,7.54882,46.76268-4.67613,47.81375-34.30845,22.46971,12.01327,48.07532-6.1351,42.03319-32.65,20.35918-6.15217,24.99709-36.60111,7.25042-50.7046,15.31992-11.79653,19.86438-34.3934,2.74768-51.5101,11.6577,4.881,21.13518,24.689,22.3673,48.90385a102.68606,102.68606,0,0,1-.18973,13.26842C947.103,456.088,954.638,473.62137,950.98911,492.62378Z"/>
  </g>
  <g>
    <g>
      <path class="cls-15" d="M406.05311,292.16416V520.12294h.00864a5.11708,5.11708,0,0,0,2.58073,4.402l28.92324,16.7015a15.4467,15.4467,0,0,0,7.63,2.07141V292.16416Z"/>
      <path class="cls-16" d="M445.1957,292.16416v251.1337a15.54319,15.54319,0,0,0,7.90623-2.07141l30.71294-204.40853.51477-44.65376Z"/>
      <path class="cls-17" d="M408.6446,296.56721l28.9187,16.69621a15.53617,15.53617,0,0,0,15.5362,0l28.64123-16.536a5.17874,5.17874,0,0,0,0-8.96984L452.822,271.06136a15.53617,15.53617,0,0,0-15.5362,0l-28.64123,16.536A5.17873,5.17873,0,0,0,408.6446,296.56721Z"/>
    </g>
    <g>
      <polygon class="cls-15" points="816.778 559.975 449.726 348.782 449.726 542.663 793.255 740.263 816.778 559.975"/>
      <polygon class="cls-16" points="769.262 726.427 793.255 740.263 803.301 663.267 803.301 552.203 769.262 532.572 769.262 726.427"/>
      <path class="cls-17" d="M449.73038,348.77667,816.7801,559.97475l32.86665-18.96916c-.505-.35123-1.03189-.68047-1.58076-.99886L508.07585,344.42962l-25.413-14.66593Z"/>
    </g>
    <g>
      <path class="cls-15" d="M788.25811,512.592V740.55074h.00864a5.11708,5.11708,0,0,0,2.58072,4.402l28.92325,16.7015a15.44664,15.44664,0,0,0,7.63,2.07141V512.592Z"/>
      <path class="cls-16" d="M827.40069,512.592V763.72566a15.54314,15.54314,0,0,0,7.90623-2.07141l28.63835-16.53756a5.12,5.12,0,0,0,2.58072-4.56595h.00864V512.592Z"/>
      <path class="cls-17" d="M790.8496,516.995l28.91869,16.69621a15.53619,15.53619,0,0,0,15.53621,0l28.64122-16.536a5.17873,5.17873,0,0,0,0-8.96983L835.027,491.48916a15.53619,15.53619,0,0,0-15.53621,0l-28.64122,16.536A5.17874,5.17874,0,0,0,790.8496,516.995Z"/>
    </g>
  </g>
  <g>
    <g>
      <g>
        <g>
          <path class="cls-18" d="M667.4564,735.47543l22.31167-13.145c12.124-15.76078,26.836-25.56861,40.86259-27.73248-.04568-.035.001-.03588.10938-.01386.40673-.06137.80957-.10782,1.21215-.15323,4.44335-1.11405,18.41017-6.48208,18.41017-6.48208v.00009l13.09744-16.52243c0,28.24911,12.53808,59.09336,24.2313,82.0976l.63208-.45259,1.12167,10.35913c-.71666.35708-8.04315-4.11444-8.62834-4.98434a159.74069,159.74069,0,0,1-18.0836-29.58832l-.00061.00017c-8.49054-16.3139-16.85888-23.69188-32.0343-21.35112-14.0092,2.16188-28.277,12.51641-39.14394,28.41084-9.03292,13.21219-20.08869,36.401-20.41968,71.85305.07956,4.193.24154,8.45466.44669,12.83492l.30031-.215,1.12167,10.359-7.73565-4.46866a2.23833,2.23833,0,0,1-1.08779-1.51965C658.98856,797.47,660.29371,757.11256,667.4564,735.47543Z"/>
          <path class="cls-19" d="M676.08474,740.45977l22.31167-13.145c12.124-15.76078,26.836-25.56861,40.86259-27.73247-.04567-.035.001-.03589.10938-.01387.40674-.06136.80958-.10782,1.21216-.15323,4.44335-1.11405,18.41017-6.48207,18.41017-6.48207v.00008l13.09744-16.52243c0,28.13856,12.44111,58.8647,24.095,81.83986a1.18505,1.18505,0,0,1-.47123,1.5671l-6.26705,3.61284a159.74069,159.74069,0,0,1-18.0836-29.58832l-.0006.00017c-8.49055-16.3139-16.85888-23.69187-32.0343-21.35111-14.0092,2.16187-28.277,12.51641-39.144,28.41083-9.03291,13.21219-20.08869,36.401-20.41968,71.853.07763,4.09213.22848,8.23736.42645,12.506a2.1509,2.1509,0,0,1-1.06846,1.96171l-6.11766,3.52685C667.58562,803.45281,668.83374,762.36384,676.08474,740.45977Z"/>
        </g>
        <g>
          <path class="cls-18" d="M312.93921,530.84551l22.31167-13.145c12.124-15.76079,26.836-25.56861,40.86259-27.73248-.04567-.035.001-.03588.10938-.01387.40673-.06136.80957-.10781,1.21215-.15323,4.44335-1.114,18.41017-6.48207,18.41017-6.48207v.00009l13.09744-16.52243c0,28.24911,12.53808,59.09335,24.23131,82.0976l.63207-.45259,1.12168,10.35913c-.71667.35708-8.04316-4.11445-8.62835-4.98434a159.74045,159.74045,0,0,1-18.0836-29.58833l-.00061.00018c-8.49054-16.31391-16.85888-23.69188-32.0343-21.35112-14.0092,2.16188-28.277,12.51641-39.14394,28.41084-9.03292,13.21219-20.08869,36.401-20.41968,71.85305.07956,4.193.24154,8.45466.44669,12.83491l.30031-.215,1.12167,10.359-7.73565-4.46866a2.23835,2.23835,0,0,1-1.08779-1.51966C304.47137,592.84,305.77653,552.48263,312.93921,530.84551Z"/>
          <path class="cls-19" d="M321.56756,535.82985l22.31166-13.145c12.124-15.76078,26.836-25.56861,40.8626-27.73248-.04568-.035.001-.03588.10937-.01386.40674-.06137.80958-.10782,1.21216-.15324,4.44335-1.114,18.41017-6.48207,18.41017-6.48207v.00009L417.571,471.78084c0,28.13855,12.44112,58.86469,24.095,81.83985a1.18508,1.18508,0,0,1-.47123,1.56711l-6.26705,3.61284a159.74018,159.74018,0,0,1-18.08361-29.58832l-.0006.00017c-8.49054-16.31391-16.85888-23.69188-32.0343-21.35112-14.0092,2.16188-28.277,12.51641-39.14394,28.41084-9.03292,13.21219-20.0887,36.401-20.41969,71.85305.07763,4.09213.22848,8.23736.42645,12.506a2.15089,2.15089,0,0,1-1.06845,1.96171l-6.11767,3.52686C313.06843,598.82289,314.31656,557.73391,321.56756,535.82985Z"/>
        </g>
        <g>
          <path class="cls-18" d="M300.677,532.58635v-2.88759a8.851,8.851,0,0,1,4.4279-7.66657l90.58706-52.26809v-.82232c0-37.13565,19.28094-99.72965,37.60388-136.14952,1.84771-3.67262,5.69143-5.81217,9.52607-4.3297h0a3.87614,3.87614,0,0,1,2.29635,5.05075c-17.81868,40.77452-38.06642,98.43992-38.06642,135.42847v2.83487a7.87678,7.87678,0,0,1-3.94056,6.82276L305.1082,535.14567A2.9547,2.9547,0,0,1,300.677,532.58635Z"/>
          <polygon class="cls-18" points="451.563 333.488 443.189 328.627 443.78 334.968 451.563 333.488"/>
          <polygon class="cls-18" points="310.002 539.693 302.074 535.096 311.16 531.422 310.002 539.693"/>
          <path class="cls-19" d="M308.58865,537.17341v-2.88759a8.851,8.851,0,0,1,4.4279-7.66657l90.587-52.26809v-.82232c0-37.13565,19.28094-99.72966,37.60388-136.14953,1.84771-3.67262,5.69144-5.81217,9.52607-4.3297l0,0a3.87612,3.87612,0,0,1,2.29634,5.05074c-17.81867,40.77452-38.06641,98.43993-38.06641,135.42848v2.83487a7.87681,7.87681,0,0,1-3.94057,6.82276l-98.003,56.54625A2.95469,2.95469,0,0,1,308.58865,537.17341Z"/>
        </g>
        <g>
          <path class="cls-18" d="M657.75072,738.71492v-2.88759a8.851,8.851,0,0,1,4.4279-7.66657l90.587-52.2681v-.82231c0-37.13566,19.28094-99.72966,37.60389-136.14953,1.84771-3.67262,5.69143-5.81217,9.52607-4.3297l0,0a3.87611,3.87611,0,0,1,2.29634,5.05074c-17.81867,40.77452-38.06641,98.43993-38.06641,135.42848v2.83487A7.87681,7.87681,0,0,1,760.185,684.728l-98.003,56.54625A2.95469,2.95469,0,0,1,657.75072,738.71492Z"/>
          <polygon class="cls-18" points="808.637 539.616 800.263 534.755 800.853 541.096 808.637 539.616"/>
          <polygon class="cls-18" points="667.076 745.822 659.148 741.225 668.234 737.551 667.076 745.822"/>
          <path class="cls-19" d="M665.66239,743.302v-2.88759a8.851,8.851,0,0,1,4.42755-7.66636l90.58741-52.2683v-.82232c0-37.42951,19.58729-100.72188,38.03867-137.00911a7.25674,7.25674,0,0,1,9.09129-3.47014h0a3.95942,3.95942,0,0,1,2.19475,5.28343c-17.79394,40.76089-37.96483,98.27754-37.96483,135.19582v2.83453a7.87738,7.87738,0,0,1-3.94056,6.8231l-98.00294,56.54619A2.9547,2.9547,0,0,1,665.66239,743.302Z"/>
        </g>
      </g>
      <g>
        <path class="cls-20" d="M282.37753,530.812v2.28615a2.36,2.36,0,0,0,1.22117,2.07322L651.99136,747.81756l106.996-68.82674-1.86018-1.0792-368.35-212.61788-2.13,1.22125L285.88486,524.69183A7.07046,7.07046,0,0,0,282.37753,530.812Z"/>
        <path class="cls-21" d="M801.68739,544.00478c-14.589,32.77744-35.23927,95.37358-41.98407,134.50624l-.71259.48639L388.775,465.29381v-.656c0-29.57809,21.4348-99.10473,36.98466-129.81223,1.47561-2.914,4.52437-4.62613,7.57833-3.44982a3.6732,3.6732,0,0,1,.76914.44114Z"/>
        <path class="cls-22" d="M650.70779,745.72738v-2.30011a7.05026,7.05026,0,0,1,3.527-6.10681L757.1152,677.92058v-.655c0-29.58044,17.80082-90.29655,36.98108-129.80989,1.43006-2.94606,4.53352-4.62969,7.588-3.44883l0,0a3.02753,3.02753,0,0,1,1.82916,4.02317c-18.02305,35.01137-37.34951,99.77228-37.34951,129.23554v2.25812a6.27428,6.27428,0,0,1-3.13887,5.43468L654.23749,747.766A2.35357,2.35357,0,0,1,650.70779,745.72738Z"/>
      </g>
    </g>
    <path class="cls-22" d="M386.64718,466.515,756.048,679.7718l1.0792-1.86018,1.05078-1.83175L388.80559,462.8514c-.01422.61059-.02843,1.207-.02843,1.7892v.65314Z"/>
    <polygon class="cls-22" points="303.919 514.283 672.283 726.901 676.543 724.445 308.179 511.813 303.919 514.283"/>
    <polygon class="cls-22" points="331.495 498.351 699.845 710.983 704.091 708.541 335.755 495.895 331.495 498.351"/>
    <polygon class="cls-22" points="359.071 482.433 727.421 695.079 731.681 692.608 363.331 479.976 359.071 482.433"/>
    <path class="cls-22" d="M415.84211,357.5452l368.279,212.60358c.5396-1.3348,1.07921-2.66959,1.61872-3.976l-368.32158-212.632Q416.6302,355.50036,415.84211,357.5452Z"/>
    <path class="cls-22" d="M406.55543,383.64448l368.066,212.47592c.45441-1.37744.92294-2.74066,1.39156-4.118l-368.10864-212.49C407.44994,380.88979,406.99562,382.26713,406.55543,383.64448Z"/>
    <path class="cls-22" d="M398.51825,410.46806l367.995,212.43327c.38342-1.40577.76676-2.82576,1.1644-4.24574L399.69686,406.22231C399.29923,407.6423,398.90168,409.06228,398.51825,410.46806Z"/>
    <path class="cls-22" d="M391.98634,438.15781l368.10856,212.49q.3835-2.19381.852-4.43035L392.86673,433.75588C392.55429,435.24685,392.25615,436.70948,391.98634,438.15781Z"/>
  </g>
  <path class="cls-22" d="M534.33251,679.90168l-.67346-4.16639a12.35338,12.35338,0,0,1,5.614-12.42565l56.95423-38.64838a86.46689,86.46689,0,0,0,36.35176-55.182L653.93145,458.7118l-25.142-14.51335L530.71287,622.90133,510.1017,651.69022V665.915Z"/>
  <path class="cls-10" d="M108.75767,681.23539l21.05072,12.15677V707.426l-10.5274-6.07957a21.05071,21.05071,0,0,1-10.52332-18.22928Z"/>
  <path class="cls-23" d="M130.364,636.98777c12.18665,10.11721,45.27283,9.16087,51.506-10.00243,10.462,4.25366,26.44231-7.12783,22.00192-15.18631,19.15645,5.3205,35.13721-9.87652,29.91693-21.7047,31.54781-14.72976,12.5781-43.52931-4.0922-41.40248,1.83646-17.75641-14.19869-26.9601-27.30486-17.04375-8.79511-15.08952-36.21518-10.3472-36.0897,9.86752-23.17669-13.51774-52.78514,6.27252-40.97794,35.81771-6.57578-6.02031-12.0964-3.12725-16.55478,1.50115v61.29557C114.70705,640.46924,121.86315,639.575,130.364,636.98777Z"/>
  <g>
    <g>
      <g>
        <path class="cls-24" d="M272.54346,93.88135a193.74321,193.74321,0,1,1-75.667,15.27,193.17293,193.17293,0,0,1,75.667-15.27m0-17.54248c-117.05713,0-211.9502,94.89306-211.9502,211.95019,0,117.05664,94.89307,211.9502,211.9502,211.9502,117.05664,0,211.95019-94.89356,211.95019-211.9502,0-117.05713-94.89355-211.95019-211.95019-211.95019Z"/>
        <circle class="cls-25" cx="272.54335" cy="288.28891" r="196.04503"/>
      </g>
      <circle class="cls-24" cx="96.42821" cy="179.94767" r="62.61491"/>
    </g>
    <g class="cls-26">
      <g>
        <g>
          <path class="cls-27" d="M354.34306,272.67326s16.40531-16.33732,41.15241,2.7331,25.14831,57.733,41.46069,79.81222S502.3953,392.4011,508.5227,446.42c8.77845,77.39033-60.09241,114.05921-99.72045,121.77057-32.22887,6.27152-88.26523,4.449-115.343-37.25835s7.09319-109.98248,10.15619-161.48028c3.40608-57.26609,27.67747-73.92326,27.67747-73.92326Z"/>
          <ellipse class="cls-28" cx="342.67868" cy="286.81512" rx="31.72359" ry="19.50007" transform="translate(-99.16478 353.64286) rotate(-48.52931)"/>
        </g>
        <g>
          <path class="cls-29" d="M164.67326,336.04947c-32.77019,35.64006-125.6027,169.12086-125.6027,169.12086l-19.63664-3.27994s-24.03485,35.06352-19.5713,63.864c4.14113,26.71888,31.736,43.92626,67.29789,27.12534C90.13454,582.02536,190.768,477.85587,190.768,477.85587l60.32793-174.17111S205.18923,291.986,164.67326,336.04947Z"/>
          <path class="cls-30" d="M123.95044,544.48957c16.5724-15.88358,33.35953-32.62474,45.975-45.37022l-21.92471-44.5875Z"/>
          <circle class="cls-31" cx="36.70266" cy="536.79827" r="27.35398"/>
          <path class="cls-32" d="M96.8378,907.73034l-30.70764-170.298L-55.87546,790.309C-103.144,815.374-123.17312,856.34771-103.25851,915.7482L-2.88427,1183.451-23.6,1208.97372c3.73436,10.35157,20.26938,16.88514,20.26938,16.88514s65.01348-16.46205,64.82554-39.71828l-6.00872-13.73421c-21.288-89.55854-1.77164-145.34343-31.3002-254.53045Z"/>
          <path class="cls-33" d="M222.60613,899.20811,157.43976,688.79137l-216.291,91.67479c-52.0634,23.806-70.96011,90.64583-52.0634,140.14564L-42.769,1115.26286c13.90413,41.52084,101.57421,16.79925,96.53833-27.60805L40.03515,931.08474Z"/>
          <path class="cls-32" d="M121.67961,974.326c-6.6382,13.27641-23.96075,47.40459-25.03862,74.55062l-7.39156,225.33465L80.84956,1298.228C75.26037,1322.40672,128.392,1308.354,128.392,1308.354s8.06584-13.553,9.81271-17.76764.42058-15.416.42058-15.416c6.92723-40.177,49.93591-116.59711,56.11631-197.85789l24.23261-34.52279C242.81312,1018.9449,142.272,933.14114,121.67961,974.326Z"/>
          <path class="cls-34" d="M172.227,663.95423,113.6161,708.8156l59.22953,128.37846S84.84189,966.92725,77.98814,1012.11662s5.30063,197.601,5.30063,197.601c.68251,39.14251,69.3553,38.28412,77.01291,12.87582l47.29091-146.95611L340.716,950.71422c45.76476-45.72449,69.55755-73.65073,69.55755-141.76866,0-74.80605-14.07038-114.26157-14.07038-114.26157Z"/>
          <path class="cls-35" d="M283.13078,312.81609c-69.0505-29.52856-119.831,9.15615-116.83632,83.32469C134.80125,462.748,140.54184,532.7267,170.7571,593.90972l.78318,30.902-20.01841,45.32292c-16.37076,28.9563,14.64156,91.88364,66.37139,120.17439,74.85148,40.93585,196.39929,22.64286,193.26859-33.64883-2.05179-45.951-7.53946-50.70821-16.326-99.22442l52.539-208.68906C437.12569,396.137,367.14318,348.74292,283.13078,312.81609Z"/>
          <path class="cls-30" d="M305.77344,812.41447l94.78471-108.63073L360.17154,516.36941l-6.9171,172.42181-98.7827,116.09219A215.483,215.483,0,0,0,305.77344,812.41447Z"/>
          <g>
            <path class="cls-36" d="M243.777,372.55972c4.82,50.583,105.07864,25.47759,100.28-12.53267l-8.368-51.83488c-8.09242-48.836-97.65419-20.47723-95.33919,20.75881Z"/>
            <ellipse class="cls-34" cx="288.82525" cy="315.56786" rx="41.73725" ry="26.59107" transform="translate(-98.22426 133.37078) rotate(-22.32559)"/>
          </g>
          <path class="cls-37" d="M447.94165,451.30247c-12.57738-62.90921-95.72372-20.42888-87.77011,65.06694L377.43907,690.736,274.37522,801.46807c-19.99582,18.9186,36.74745,67.81221,56.74327,48.89361,0,0,109.95578-66.23306,132.61724-136.96427C474.85945,678.67793,460.43366,518.14235,447.94165,451.30247Z"/>
          <path class="cls-31" d="M281.01252,806.23252l-19.63543,20.82773c-13.40748,11.74774,22.42378,51.56477,35.83127,39.817l25.92333-19.39958C341.44584,828.77579,299.32667,787.53062,281.01252,806.23252Z"/>
        </g>
        <g>
          <path class="cls-38" d="M82.48337,554.97824,47.1675,533.77933a5.53825,5.53825,0,0,1-2.60362-3.786L26.51244,427.70186a5.53821,5.53821,0,0,1,8.30425-5.71087l34.25293,20.56087A25.53249,25.53249,0,0,1,81.073,460.00605L96.17156,545.5648A9.12882,9.12882,0,0,1,82.48337,554.97824Z"/>
          <path class="cls-32" d="M36.17705,478.00506l-3.95924-17.973-4.85946,4.68306a29.74947,29.74947,0,0,0-7.78319,12.5945c-3.0384,9.76831-7.823,27.09088-7.823,39.31275a32.42574,32.42574,0,0,0,32.42611,32.42578c8.954,0,19.81918,1.52736,25.687-4.34042,5.86778-5.86844,6.73882-19.13069,6.73882-28.08536C76.60405,504.68125,52.3489,487.88165,36.17705,478.00506Z"/>
        </g>
        <g>
          <path class="cls-32" d="M293.56435,866.20827c-13.89789,20.3506-20.0673,33.01487-27.336,37.50036l-34.04071,17.03285a20.04374,20.04374,0,0,1-19.61064-.79363l-13.017-9.40156c-6.61519-5.744-9.55582-13.50164-5.61659-20.84079,5.61917-10.46906,19.84615-29.57157,27.79461-36.08825s38.93315-20.26993,38.93315-20.26993C273.04675,822.201,305.93986,855.06191,293.56435,866.20827Z"/>
          <path class="cls-32" d="M260.67125,833.34732s-29.33,1.40889-38.26337,6.204-21.06071,14.64191-21.06071,14.64191c-9.22188,7.10107,3.2771,17.19575,10.32923,9.63408Z"/>
        </g>
        <g>
          <path class="cls-27" d="M202.17832,236.78658c-8.84262-32.44538-1.54183-73.43226,55.25935-88.31383,75.30084-19.72837,116.25,47.36313,108.85012,99.042-5.69282,39.75726-32.66233,59.53942-32.66233,59.53942l-19.69464,18.58638c-5.43209-9.2529-2.03891-38.90859-2.03891-38.90859S216.93781,290.94218,202.17832,236.78658Z"/>
          <g>
            <path class="cls-32" d="M339.17059,216.69668c4.331-29.2352-23.868-58.1542-58.1761-60.21639-29.98486-1.80232-62.42281,21.11537-64.43547,54.33113,0,0-1.93754,41.01886.82888,73.7467s15.79374,68.76345,48.852,63.236c36.37646-6.08222,60.14489-24.75649,64.226-58.38318Z"/>
            <path class="cls-27" d="M219.03643,192.04156l-6.76415,48.39763c6.43692-.89863,10.10056-5.8331,18.64946-26.42709-1.32355,33.5914,37.16022,48.56536,66.75033,42.322,0,0-1.23081,12.70494,5.54235,20.42662,7.35895,8.38953,26.37124,13.2412,35.10181-.47143C372.52146,136.49071,243.19558,124.5557,219.03643,192.04156Z"/>
            <g>
              <path class="cls-39" d="M234.27026,273.59828c5.92561-1.94917,13.771-.14917,20.52943,5.72071"/>
              <line class="cls-39" x1="287.0272" y1="276.83119" x2="325.35751" y2="259.33457"/>
              <path class="cls-18" d="M235.81937,281.66122c-3.42834,6.73011-22.71511,6.54889-29.02006-2.5207-7.3759-10.61016-6.66416-26.55-.80738-27.647s21.55087,4.31375,26.12225,9.08086C237.92851,266.63767,238.86861,275.67534,235.81937,281.66122Z"/>
              <path class="cls-18" d="M250.10073,282.68238c-3.09652-5.75933-2.70049-14.43488,2.05429-17.81934,4.55431-3.24176,24.70533-1.4937,31.59248,3.95457,4.98594,3.94427,10.40432,15.24974,3.86,23.63364C279.82658,302.41939,258.41194,298.14068,250.10073,282.68238Z"/>
            </g>
            <path class="cls-32" d="M319.68091,306.735c12.07426-.70644,21.252-18.16022,20.45032-31.86151s-13.33928-24.53806-23.35328-17.75524C304.20714,265.63288,307.60666,307.44142,319.68091,306.735Z"/>
          </g>
        </g>
      </g>
    </g>
  </g>
  <g>
    <rect class="cls-17" x="89.89837" y="146.52034" width="13.0597" height="66.85466" transform="translate(-98.99905 120.8905) rotate(-45)"/>
    <rect class="cls-17" x="89.89837" y="146.52034" width="13.0597" height="66.85466" transform="translate(37.37104 375.37493) rotate(-135)"/>
  </g>
  <g>
    <g>
      <path class="cls-27" d="M581.71975,362.649s6.09949-6.07422,15.30047,1.01616,9.35014,21.46516,15.41509,29.6742,24.33027,13.82446,26.60844,33.90869c3.26383,28.77373-22.34236,42.40722-37.07607,45.27431-11.9827,2.33175-32.817,1.65412-42.88453-13.85266s2.63725-40.8915,3.77607-60.03838c1.26639-21.29154,10.29049-27.48468,10.29049-27.48468Z"/>
      <ellipse class="cls-40" cx="577.38293" cy="367.90693" rx="11.79483" ry="7.25013" transform="translate(-80.65199 556.8953) rotate(-48.52931)"/>
    </g>
    <g>
      <path class="cls-41" d="M511.2005,386.21227c-12.184,13.251-46.6991,62.87915-46.6991,62.87915l-7.3009-1.21948s-8.93616,13.03662-7.27661,23.74463c1.53967,9.93408,11.79944,16.33178,25.02136,10.0852,8.54175-4.03564,45.95727-42.76587,45.95727-42.76587l22.42994-64.75683S526.26434,369.82946,511.2005,386.21227Z"/>
      <path class="cls-30" d="M496.05975,463.71032c6.16162-5.90552,12.40308-12.12989,17.09351-16.86866L505.00165,430.264Z"/>
      <circle class="cls-31" cx="463.62102" cy="460.85069" r="10.17021"/>
      <path class="cls-42" d="M480.5239,717.79468c1.63911,5.94963,3.14465,11.54659-.1745,16.54537-4.15686,6.26043-12.33266,5.78225-22.69969,9.56577s-20.679,10.31364-38.15137,7.9583-15.94249-17.77938-10.97633-22.547l23.65718-9.42389,16-13.57447S476.87994,709.747,480.5239,717.79468Z"/>
      <path class="cls-33" d="M474.23735,699.803c3.644,8.0477,9.57006,23.03314,5.69012,29.46885s-11.91073,6.70152-22.27776,10.48505-20.679,10.31363-38.15137,7.95829-15.783-17.57269-7.06383-21.37513l19.74468-10.59574,16-13.57447S470.59339,691.75529,474.23735,699.803Z"/>
      <path class="cls-32" d="M485.97927,598.76327l-11.4171-63.31683L429.20046,555.106c-17.57446,9.31915-25.02127,24.55319-17.617,46.6383l37.31915,99.53191-7.70213,9.48937c1.38844,3.84871,7.53616,6.27789,7.53616,6.27789s24.172-6.12059,24.10214-14.76726l-2.234-5.10638c-7.91489-33.29787-.65869-54.0387-11.63742-94.63444Z"/>
      <path class="cls-33" d="M436.77247,674.54855l7.341,17.78716c2.69295,7.91117,26.09974,1.20411,24.86869-6.06758l-2.54692-20.15021Z"/>
      <path class="cls-43" d="M441.2005,710.76549c1.38843,3.84888,7.53613,6.27784,7.53613,6.27784s24.172-6.12037,24.10217-14.76709l-2.23413-5.10645c-7.15527,7.17187-14.65576,8.40161-22.42553,5Z"/>
      <path class="cls-42" d="M432.17919,715.74431c-1.97449,2.5437,3.70213,8.42553,9.27659,6.29787l18.62973-8.82967c-1.686-8.39477-10.16164-14.7448-15.58717-8.48948Z"/>
      <path class="cls-33" d="M532.74,595.5947l-24.22887-78.233-80.417,34.0847c-19.35718,8.85106-26.383,33.70213-19.35718,52.10616l25.33656,72.37128c5.16956,15.43745,37.7653,6.246,35.893-10.26468L464.86,607.44644Z"/>
      <path class="cls-42" d="M503.66855,743.05282s2.06715,15.99849.92994,21.49279c-1.42517,6.88558-5.97381,11.82947-6.98015,16.41276s-2.06663,14.17785-10.6627,19.85216c-16.56369,10.93378-33.07432-1.61941-26.88654-16.01084l7.08721-11.02576,13.47217-32.09933C482.82812,733.255,502.775,734.1061,503.66855,743.05282Z"/>
      <path class="cls-33" d="M503.66855,739.09537s2.06715,15.9985.92994,21.4928c-1.42517,6.88557-5.97381,11.82946-6.98015,16.41275s-3.07616,14.84549-10.6627,19.85216c-16.56493,10.9319-32.90411-1.15132-25.90891-14.30547l6.10958-12.73113,13.47217-32.09933C482.82812,729.2975,502.775,730.14865,503.66855,739.09537Z"/>
      <path class="cls-32" d="M495.21546,623.52354c-2.46809,4.93617-8.90861,17.625-9.30936,27.71792l-2.74819,83.77945-3.12307,8.92941c-2.07806,8.98967,17.67628,3.76488,17.67628,3.76488s2.99888-5.039,3.64837-6.606.15637-5.73168.15637-5.73168c2.57554-14.9378,18.56617-43.35081,20.86405-73.56358l9.00968-12.83558C540.25291,640.11285,502.87172,608.211,495.21546,623.52354Z"/>
      <path class="cls-33" d="M482.15174,707.84348l.0341,17.221c-.4585,7.46494,21.19972,9.86516,22.65129,3.4264l4.738-17.54845Z"/>
      <path class="cls-43" d="M497.71112,747.7152s2.9989-5.03906,3.64844-6.606c.64941-1.56714.15625-5.73169.15625-5.73169-6.826,6.537-18.10258,3.6008-18.35791-.35669l-3.123,8.92945C477.95672,752.94005,497.71112,747.7152,497.71112,747.7152Z"/>
      <path class="cls-42" d="M479.82529,743.90564c1.30074-7.64328,17.52411-3.69324,17.88583,3.80956l-8.21278,14.13549c-2.256,3.52128-15.734,1.46809-14.10644-3.31908Z"/>
      <path class="cls-34" d="M514.009,508.12729l-21.79154,16.67946L514.239,572.53788s-32.7198,48.23481-35.268,65.03622,1.97077,73.46808,1.97077,73.46808c.25376,14.55319,25.78631,14.234,28.63341,4.78724l17.58276-54.6383,49.4953-46.44644c17.01534-17.00037,25.8615-27.38335,25.8615-52.7096,0-27.8129-5.23137-42.48246-5.23137-42.48246Z"/>
      <path class="cls-44" d="M555.243,377.5741c-25.673-10.97873-44.55319,3.40425-43.43976,30.98012-11.70918,24.76456-9.57482,50.78266,1.65921,73.53052l.29119,11.48936-7.44285,16.85106c-6.08665,10.766,5.44373,34.16235,24.67689,44.68085,27.82979,15.22,73.02128,8.41862,71.85728-12.51064-.76286-17.08459-2.80317-18.85331-6.07-36.89164l19.534-77.59062C612.49834,408.55282,586.47883,390.93169,555.243,377.5741Z"/>
      <path class="cls-30" d="M563.66156,563.32482l35.241-40.38892-15.01574-69.68066L581.315,517.36168l-36.72742,43.16309A80.11655,80.11655,0,0,0,563.66156,563.32482Z"/>
      <g>
        <path class="cls-36" d="M540.61128,399.78678c1.79209,18.80678,39.06825,9.47257,37.28411-4.65965l-3.11121-19.27221c-3.00876-18.15724-36.30784-7.61343-35.44712,7.71813Z"/>
        <ellipse class="cls-34" cx="557.36022" cy="378.59721" rx="15.51791" ry="9.88656" transform="translate(-102.03783 240.10365) rotate(-22.32559)"/>
      </g>
      <path class="cls-45" d="M616.51971,429.06334c-4.67627-23.38964-35.59009-7.59545-32.63293,24.1919l6.42007,64.8295L551.9877,559.255c-7.43445,7.03393,13.6627,25.21258,21.09715,18.17865,0,0,40.88157-24.62546,49.3071-50.92333C626.52775,513.60156,621.16424,453.91442,616.51971,429.06334Z"/>
      <path class="cls-31" d="M554.45545,561.02637l-7.30046,7.74375c-4.9849,4.36781,8.33717,19.17179,13.32207,14.804l9.6383-7.21277C576.92456,569.408,561.26465,554.073,554.45545,561.02637Z"/>
    </g>
    <g>
      <path class="cls-38" d="M480.64229,467.61l-13.13044-7.88176a2.0591,2.0591,0,0,1-.968-1.40762l-6.71153-38.032a2.05911,2.05911,0,0,1,3.08752-2.12331l12.73525,7.64454a9.493,9.493,0,0,1,4.46284,6.48947l5.61366,31.81075A3.3941,3.3941,0,0,1,480.64229,467.61Z"/>
      <path class="cls-32" d="M463.4256,438.99137l-1.472-6.68237-1.80675,1.74116a11.06088,11.06088,0,0,0-2.89379,4.68263c-1.12968,3.63186-2.90859,10.07239-2.90859,14.61649a12.0559,12.0559,0,0,0,12.056,12.05591c3.3291,0,7.36878.56787,9.55042-1.61377,2.18164-2.18189,2.50549-7.1128,2.50549-10.44214C478.45636,448.90958,469.43829,442.66349,463.4256,438.99137Z"/>
    </g>
    <g>
      <path class="cls-32" d="M559.12222,583.32536c-5.16724,7.56635-7.461,12.27493-10.16352,13.94264l-12.65634,6.33281a7.45226,7.45226,0,0,1-7.29124-.29507l-4.8397-3.4955c-2.45953-2.13563-3.55285-5.01991-2.08825-7.74861,2.08921-3.89239,7.3788-10.99471,10.334-13.41761s14.47535-7.53636,14.47535-7.53636C551.49377,566.96344,563.72343,579.18114,559.12222,583.32536Z"/>
      <path class="cls-32" d="M546.89256,571.10766s-10.9049.52382-14.22633,2.30665a64.16707,64.16707,0,0,0-7.83037,5.44386c-3.42869,2.64018,1.21843,6.39338,3.84041,3.582Z"/>
    </g>
    <g>
      <path class="cls-27" d="M525.14488,349.30632c-3.28768-12.0632-.57325-27.30213,20.54544-32.83509,27.99686-7.335,43.22175,17.60961,40.47048,36.82382a34.85622,34.85622,0,0,1-12.14386,22.13676l-7.32247,6.91042c-2.01965-3.44023-.75806-14.46622-.75806-14.46622S530.63246,369.44137,525.14488,349.30632Z"/>
      <g>
        <path class="cls-32" d="M576.07862,341.83689c1.61026-10.86965-8.87411-21.62174-21.62988-22.38846-11.14837-.6701-23.2088,7.8507-23.95711,20.20032a250.082,250.082,0,0,0,.30818,27.419C531.82836,379.236,536.67192,392.634,548.963,390.579c13.52477-2.26137,22.36188-9.20447,23.87925-21.70688Z"/>
        <path class="cls-27" d="M531.41273,332.67011l-2.51491,17.99425c2.39325-.33411,3.75539-2.16875,6.93387-9.8256-.4921,12.48929,13.81617,18.05661,24.81778,15.73532,0,0-.45762,4.72369,2.06064,7.59462,2.73607,3.11922,9.80483,4.92307,13.05086-.17528C588.47848,312.0163,540.3951,307.57887,531.41273,332.67011Z"/>
        <g>
          <path class="cls-46" d="M537.07667,362.99291c2.20314-.7247,5.12007-.05546,7.63285,2.127"/>
          <line class="cls-46" x1="556.69171" y1="364.19491" x2="570.94292" y2="357.68966"/>
          <path class="cls-18" d="M537.65263,365.99071c-1.27466,2.50226-8.44548,2.43488-10.78966-.93719-2.74236-3.94486-2.47774-9.87129-.30019-10.27916s8.01262,1.60386,9.71226,3.37627A7.10789,7.10789,0,0,1,537.65263,365.99071Z"/>
          <path class="cls-18" d="M542.96244,366.37038c-1.15129-2.14132-1.004-5.36689.76378-6.62523,1.6933-1.20529,9.18545-.55536,11.74609,1.47031,1.85378,1.46648,3.86833,5.66985,1.43516,8.787C554.01451,373.7086,546.05255,372.11778,542.96244,366.37038Z"/>
        </g>
        <path class="cls-32" d="M568.83236,375.31314c4.48921-.26265,7.90147-6.752,7.60343-11.84611s-4.95955-9.12326-8.68275-6.6014C563.07921,360.03137,564.34315,375.57579,568.83236,375.31314Z"/>
      </g>
    </g>
  </g>
</svg>
