<svg id="Layer_1" data-name="Layer 1" xmlns="http://www.w3.org/2000/svg" xmlns:xlink="http://www.w3.org/1999/xlink" viewBox="0 0 1000 1000">
  <defs>
    <style>
      .cls-1 {
        fill: url(#linear-gradient);
      }

      .cls-2 {
        fill: #b8cbd8;
      }

      .cls-19, .cls-3 {
        fill: #fff;
      }

      .cls-4 {
        fill: url(#linear-gradient-2);
      }

      .cls-5 {
        fill: url(#linear-gradient-3);
      }

      .cls-6 {
        fill: url(#linear-gradient-4);
      }

      .cls-7 {
        fill: url(#linear-gradient-5);
      }

      .cls-8 {
        fill: url(#linear-gradient-6);
      }

      .cls-48, .cls-9 {
        fill: #2a3f5e;
      }

      .cls-47, .cls-9 {
        opacity: 0.2;
      }

      .cls-10 {
        fill: url(#linear-gradient-7);
      }

      .cls-11 {
        fill: url(#linear-gradient-8);
      }

      .cls-12 {
        fill: url(#linear-gradient-9);
      }

      .cls-13 {
        fill: url(#linear-gradient-10);
      }

      .cls-14 {
        fill: url(#linear-gradient-11);
      }

      .cls-15 {
        fill: url(#linear-gradient-12);
      }

      .cls-16 {
        fill: url(#linear-gradient-13);
      }

      .cls-17 {
        fill: url(#linear-gradient-14);
      }

      .cls-18 {
        fill: url(#linear-gradient-15);
      }

      .cls-19, .cls-30, .cls-33, .cls-43, .cls-59 {
        opacity: 0.5;
      }

      .cls-20 {
        fill: url(#linear-gradient-16);
      }

      .cls-21 {
        fill: url(#linear-gradient-17);
      }

      .cls-22 {
        fill: url(#linear-gradient-18);
      }

      .cls-23 {
        fill: url(#linear-gradient-19);
      }

      .cls-24 {
        fill: url(#linear-gradient-20);
      }

      .cls-25 {
        fill: #34a521;
      }

      .cls-26, .cls-33 {
        fill: #424a51;
      }

      .cls-27, .cls-39 {
        fill: #333a3d;
      }

      .cls-28 {
        fill: #57646d;
      }

      .cls-29 {
        fill: #abbec9;
      }

      .cls-30 {
        fill: #cfdfe8;
      }

      .cls-31 {
        fill: #a2b8cc;
      }

      .cls-32, .cls-42, .cls-67 {
        fill: none;
        stroke-linecap: round;
      }

      .cls-32 {
        stroke: #c93f53;
        stroke-width: 3.63477px;
      }

      .cls-32, .cls-39, .cls-42, .cls-67 {
        stroke-miterlimit: 10;
      }

      .cls-34 {
        fill: url(#linear-gradient-21);
      }

      .cls-35 {
        fill: url(#linear-gradient-22);
      }

      .cls-36 {
        fill: url(#linear-gradient-23);
      }

      .cls-37 {
        fill: url(#linear-gradient-24);
      }

      .cls-38 {
        fill: url(#linear-gradient-25);
      }

      .cls-39 {
        font-size: 41.98214px;
        stroke: #333a3d;
        stroke-width: 1.55412px;
        font-family: AvenirLTStd-Black, Avenir LT Std;
        font-weight: 800;
      }

      .cls-40 {
        fill: #445263;
      }

      .cls-41 {
        fill: #626f82;
      }

      .cls-42 {
        stroke: #74899e;
        stroke-width: 9.60564px;
      }

      .cls-43 {
        fill: #93a1b2;
      }

      .cls-44 {
        fill: #baccdd;
      }

      .cls-45 {
        fill: #425260;
      }

      .cls-46 {
        fill: url(#linear-gradient-26);
      }

      .cls-49 {
        fill: #86a1b7;
      }

      .cls-50 {
        fill: #74899e;
      }

      .cls-51 {
        fill: #473634;
      }

      .cls-52 {
        fill: url(#linear-gradient-27);
      }

      .cls-53 {
        fill: #f49b25;
      }

      .cls-54 {
        fill: #27343d;
      }

      .cls-55 {
        fill: #a05452;
      }

      .cls-56 {
        fill: #cddce8;
      }

      .cls-57 {
        fill: #303d49;
      }

      .cls-58 {
        fill: url(#linear-gradient-28);
      }

      .cls-59, .cls-60 {
        fill: #dd7b19;
      }

      .cls-61 {
        fill: url(#linear-gradient-29);
      }

      .cls-62 {
        fill: #ffcd5c;
      }

      .cls-63 {
        fill: url(#linear-gradient-30);
      }

      .cls-64 {
        fill: url(#linear-gradient-31);
      }

      .cls-65 {
        fill: #7a403f;
      }

      .cls-66 {
        fill: #586d7f;
      }

      .cls-67 {
        stroke: #425260;
        stroke-width: 12.00705px;
      }

      .cls-68 {
        fill: url(#linear-gradient-32);
      }

      .cls-69 {
        opacity: 0.6;
      }

      .cls-70 {
        fill: #9bb0c4;
      }

      .cls-71 {
        fill: url(#linear-gradient-33);
      }

      .cls-72 {
        fill: url(#linear-gradient-34);
      }

      .cls-73 {
        fill: #e58630;
      }

      .cls-74 {
        fill: #724133;
      }

      .cls-75 {
        fill: #ffcb48;
      }

      .cls-76 {
        fill: url(#linear-gradient-35);
      }

      .cls-77 {
        fill: url(#linear-gradient-36);
      }

      .cls-78 {
        fill: url(#linear-gradient-37);
      }

      .cls-79 {
        fill: url(#linear-gradient-38);
      }

      .cls-80 {
        fill: url(#linear-gradient-39);
      }

      .cls-81 {
        fill: url(#linear-gradient-40);
      }

      .cls-82 {
        fill: url(#linear-gradient-41);
      }

      .cls-83 {
        fill: url(#linear-gradient-42);
      }

      .cls-84 {
        fill: url(#linear-gradient-43);
      }

      .cls-85 {
        fill: url(#linear-gradient-44);
      }

      .cls-86 {
        fill: url(#linear-gradient-45);
      }

      .cls-87 {
        fill: url(#linear-gradient-46);
      }

      .cls-88 {
        fill: url(#linear-gradient-47);
      }

      .cls-89 {
        fill: url(#linear-gradient-48);
      }
    </style>
    <linearGradient id="linear-gradient" x1="481.7726" y1="393.55996" x2="903.05929" y2="393.55996" gradientUnits="userSpaceOnUse">
      <stop offset="0" stop-color="#f0f9ff"/>
      <stop offset="1" stop-color="#c3d6e6"/>
    </linearGradient>
    <linearGradient id="linear-gradient-2" x1="1689.37518" y1="183.97088" x2="1604.57483" y2="438.96912" gradientTransform="translate(-1095.82979)" gradientUnits="userSpaceOnUse">
      <stop offset="0" stop-color="#62778c"/>
      <stop offset="1" stop-color="#435466"/>
    </linearGradient>
    <linearGradient id="linear-gradient-3" x1="554.56585" y1="153.31017" x2="554.56585" y2="434.50107" gradientUnits="userSpaceOnUse">
      <stop offset="0" stop-color="#435466"/>
      <stop offset="1" stop-color="#62778c"/>
    </linearGradient>
    <linearGradient id="linear-gradient-4" x1="1965.08362" y1="347.00114" x2="1880.28327" y2="601.99937" xlink:href="#linear-gradient-2"/>
    <linearGradient id="linear-gradient-5" x1="830.27429" y1="316.34043" x2="830.27429" y2="597.53132" xlink:href="#linear-gradient-3"/>
    <linearGradient id="linear-gradient-6" x1="60.50214" y1="719.89267" x2="903.05929" y2="719.89267" gradientUnits="userSpaceOnUse">
      <stop offset="0" stop-color="#dae9f2"/>
      <stop offset="0.99337" stop-color="#c4d5e6"/>
    </linearGradient>
    <linearGradient id="linear-gradient-7" x1="-919.26707" y1="577.95713" x2="-794.29294" y2="660.24208" gradientTransform="translate(1162.29787)" gradientUnits="userSpaceOnUse">
      <stop offset="0" stop-color="#fff"/>
      <stop offset="0.94545" stop-color="#fff" stop-opacity="0"/>
    </linearGradient>
    <linearGradient id="linear-gradient-8" x1="72.81956" y1="478.81517" x2="469.47117" y2="478.81517" xlink:href="#linear-gradient-6"/>
    <linearGradient id="linear-gradient-9" x1="151.57179" y1="546.13688" x2="322.50237" y2="546.13688" gradientUnits="userSpaceOnUse">
      <stop offset="0.00005" stop-color="#ffb348"/>
      <stop offset="1" stop-color="#e68e2b"/>
    </linearGradient>
    <linearGradient id="linear-gradient-10" x1="157.99162" y1="304.43016" x2="157.99162" y2="623.94501" gradientUnits="userSpaceOnUse">
      <stop offset="0" stop-color="#5b6f82"/>
      <stop offset="1" stop-color="#849bb2"/>
    </linearGradient>
    <linearGradient id="linear-gradient-11" x1="364.45933" y1="202.00219" x2="364.45933" y2="514.16383" xlink:href="#linear-gradient-10"/>
    <linearGradient id="linear-gradient-12" x1="456.07211" y1="134.38817" x2="456.07211" y2="474.68614" xlink:href="#linear-gradient-10"/>
    <linearGradient id="linear-gradient-13" x1="72.81956" y1="407.96302" x2="469.47118" y2="407.96302" gradientTransform="matrix(1, 0, 0, 1, 0, 0)" xlink:href="#linear-gradient-2"/>
    <linearGradient id="linear-gradient-14" x1="421.10256" y1="530.86888" x2="421.10256" y2="232.3575" gradientTransform="matrix(1, 0, 0, 1, 0, 0)" xlink:href="#linear-gradient-2"/>
    <linearGradient id="linear-gradient-15" x1="459.31274" y1="495.7829" x2="542.09915" y2="495.7829" gradientTransform="matrix(-1, 0, 0, 1, 921.80851, 0)" gradientUnits="userSpaceOnUse">
      <stop offset="0" stop-color="#849bb2"/>
      <stop offset="1" stop-color="#5b6f82"/>
    </linearGradient>
    <linearGradient id="linear-gradient-16" x1="81.62503" y1="673.55887" x2="164.41144" y2="673.55887" gradientTransform="matrix(1, 0, 0, 1, 0, 0)" xlink:href="#linear-gradient-2"/>
    <linearGradient id="linear-gradient-17" x1="757.39707" y1="667.81346" x2="840.18348" y2="667.81346" xlink:href="#linear-gradient-15"/>
    <linearGradient id="linear-gradient-18" x1="671.05847" y1="151.65544" x2="893.78465" y2="456.5119" xlink:href="#linear-gradient"/>
    <linearGradient id="linear-gradient-19" x1="671.06346" y1="151.66091" x2="893.78471" y2="456.51063" xlink:href="#linear-gradient"/>
    <linearGradient id="linear-gradient-20" x1="599.9992" y1="447.1545" x2="964.98852" y2="447.1545" gradientUnits="userSpaceOnUse">
      <stop offset="0" stop-color="#96b1cc"/>
      <stop offset="1" stop-color="#748ea6"/>
    </linearGradient>
    <linearGradient id="linear-gradient-21" x1="-819.48656" y1="-4120.57207" x2="-782.05677" y2="-4120.57207" gradientTransform="translate(1372.34576 1831.17588) scale(0.85898 0.42013)" xlink:href="#linear-gradient-15"/>
    <linearGradient id="linear-gradient-22" x1="-3711.83565" y1="-171.81594" x2="-3674.40586" y2="-171.81594" gradientTransform="matrix(0.85898, 0, 0, -0.42013, 3751.79842, 27.8099)" xlink:href="#linear-gradient-15"/>
    <linearGradient id="linear-gradient-23" x1="617.23978" y1="90.72919" x2="646.02626" y2="90.72919" gradientTransform="matrix(1, 0, 0, 1, 0, 0)" xlink:href="#linear-gradient-15"/>
    <linearGradient id="linear-gradient-24" x1="603.88829" y1="102.05662" x2="645.27299" y2="213.18218" gradientTransform="matrix(1, 0, 0, 1, 0, 0)" xlink:href="#linear-gradient-15"/>
    <linearGradient id="linear-gradient-25" x1="568.5921" y1="176.55593" x2="694.6839" y2="176.55593" gradientTransform="matrix(1, 0, 0, 1, 0, 0)" xlink:href="#linear-gradient-15"/>
    <linearGradient id="linear-gradient-26" x1="344.96923" y1="664.46228" x2="717.27809" y2="664.46228" gradientTransform="matrix(1, 0, 0, 1, 0, 0)" xlink:href="#linear-gradient-15"/>
    <linearGradient id="linear-gradient-27" x1="-6648.05295" y1="340.95829" x2="-6637.02157" y2="340.95829" gradientTransform="matrix(-0.63532, -0.77225, -0.77225, 0.63532, -3433.56957, -5005.36744)" gradientUnits="userSpaceOnUse">
      <stop offset="0" stop-color="#ffc050"/>
      <stop offset="0.50022" stop-color="#fbb648"/>
      <stop offset="1" stop-color="#f5a83d"/>
    </linearGradient>
    <linearGradient id="linear-gradient-28" x1="444.12836" y1="370.8734" x2="544.21347" y2="502.27766" gradientUnits="userSpaceOnUse">
      <stop offset="0.00005" stop-color="#ffcb48"/>
      <stop offset="1" stop-color="#e68e2b"/>
    </linearGradient>
    <linearGradient id="linear-gradient-29" x1="445.70146" y1="369.67523" x2="545.78657" y2="501.07949" xlink:href="#linear-gradient-28"/>
    <linearGradient id="linear-gradient-30" x1="463.31866" y1="356.25695" x2="563.40377" y2="487.66121" xlink:href="#linear-gradient-28"/>
    <linearGradient id="linear-gradient-31" x1="485.55589" y1="339.31979" x2="585.64099" y2="470.72405" xlink:href="#linear-gradient-28"/>
    <linearGradient id="linear-gradient-32" x1="442.10545" y1="787.54882" x2="499.62203" y2="787.54882" gradientUnits="userSpaceOnUse">
      <stop offset="0" stop-color="#62788c"/>
      <stop offset="1" stop-color="#526575"/>
    </linearGradient>
    <linearGradient id="linear-gradient-33" x1="87.71267" y1="707.39009" x2="146.99464" y2="707.39009" gradientUnits="userSpaceOnUse">
      <stop offset="0" stop-color="#3e4c59"/>
      <stop offset="1" stop-color="#293440"/>
    </linearGradient>
    <linearGradient id="linear-gradient-34" x1="91.90685" y1="651.28175" x2="151.3111" y2="708.47324" xlink:href="#linear-gradient-28"/>
    <linearGradient id="linear-gradient-35" x1="-8100.92234" y1="1971.51592" x2="-8068.22654" y2="1985.10184" gradientTransform="matrix(-0.94085, 0.33882, 0.33882, 0.94085, -8139.86336, 1402.92368)" gradientUnits="userSpaceOnUse">
      <stop offset="0" stop-color="#f2883c"/>
      <stop offset="0.16716" stop-color="#e97d35"/>
      <stop offset="0.67368" stop-color="#d26124"/>
      <stop offset="0.96784" stop-color="#c9571e"/>
    </linearGradient>
    <linearGradient id="linear-gradient-36" x1="254.62347" y1="-1127.61684" x2="229.98965" y2="-1111.94077" gradientTransform="translate(-495.4501 1520.15513) rotate(21.53204)" xlink:href="#linear-gradient-35"/>
    <linearGradient id="linear-gradient-37" x1="170.22031" y1="527.9754" x2="128.86535" y2="565.15007" gradientTransform="matrix(1, 0, 0, 1, 0, 0)" xlink:href="#linear-gradient-35"/>
    <linearGradient id="linear-gradient-38" x1="-437.61924" y1="1683.45627" x2="-471.28204" y2="1704.87805" gradientTransform="translate(95.29562 -1192.6834) rotate(-16.16083)" xlink:href="#linear-gradient-35"/>
    <linearGradient id="linear-gradient-39" x1="94.47946" y1="500.55118" x2="114.7837" y2="539.5174" gradientTransform="matrix(1, 0, 0, 1, 0, 0)" xlink:href="#linear-gradient-35"/>
    <linearGradient id="linear-gradient-40" x1="-627.7973" y1="2038.95508" x2="-604.28515" y2="2084.07768" gradientTransform="translate(-84.7421 -1592.17856) rotate(-21.26361)" xlink:href="#linear-gradient-35"/>
    <linearGradient id="linear-gradient-41" x1="61.89473" y1="-1767.10557" x2="94.59052" y2="-1753.51965" gradientTransform="matrix(0.87147, 0.49044, -0.49044, 0.87147, -838.30444, 2030.60016)" xlink:href="#linear-gradient-35"/>
    <linearGradient id="linear-gradient-42" x1="-138.62864" y1="857.61127" x2="-159.99685" y2="894.96487" gradientTransform="matrix(1.03159, -0.09458, 0.10022, 1.01436, 195.66288, -393.156)" xlink:href="#linear-gradient-35"/>
    <linearGradient id="linear-gradient-43" x1="-1352.48923" y1="2869.13057" x2="-1382.80046" y2="2888.41954" gradientTransform="translate(-458.99405 -2595.59947) rotate(-35.91139)" xlink:href="#linear-gradient-35"/>
    <linearGradient id="linear-gradient-44" x1="-8598.53483" y1="-920.3984" x2="-8626.44667" y2="-902.63632" gradientTransform="matrix(-0.94244, -0.33439, -0.33439, 0.94244, -8312.42133, -1466.92891)" xlink:href="#linear-gradient-35"/>
    <linearGradient id="linear-gradient-45" x1="1386.77257" y1="688.67051" x2="1390.45421" y2="688.67051" gradientTransform="matrix(-0.04492, -0.99899, -0.99899, 0.04492, 896.49245, 2044.94684)" xlink:href="#linear-gradient-33"/>
    <linearGradient id="linear-gradient-46" x1="86.64687" y1="688.67051" x2="90.32851" y2="688.67051" gradientTransform="translate(30.9433 -3.27297) rotate(2.56788)" xlink:href="#linear-gradient-33"/>
    <linearGradient id="linear-gradient-47" x1="116.35781" y1="704.76524" x2="118.35781" y2="704.76524" xlink:href="#linear-gradient-33"/>
    <linearGradient id="linear-gradient-48" x1="86.02797" y1="673.94139" x2="148.68801" y2="673.94139" xlink:href="#linear-gradient-33"/>
  </defs>
  <g>
    <polygon class="cls-1" points="481.773 67.227 903.059 310.448 903.059 719.893 481.773 476.649 481.773 67.227"/>
    <polygon class="cls-2" points="481.789 67.227 60.502 310.448 60.502 719.893 481.789 476.649 481.789 67.227"/>
  </g>
  <g>
    <g>
      <path class="cls-3" d="M525.20249,145.36535l10.474-6.04511,58.73759,33.87381L583.92886,448.32393l.00011,8.73024-58.72648-33.89235Z"/>
      <path class="cls-4" d="M514.7094,127.18348v302.04l79.7,46v-302.03Zm69.22,329.87-58.72-33.88995v-277.8l58.72,33.9Z"/>
    </g>
    <polygon class="cls-5" points="525.209 145.363 529.151 147.638 529.139 421.031 583.929 452.648 583.929 457.054 525.202 423.162 525.209 145.363"/>
  </g>
  <g>
    <g>
      <path class="cls-3" d="M800.91093,308.39561l10.474-6.04512,58.73759,33.87381L859.6373,611.35419l.0001,8.73023-58.72647-33.89235Z"/>
      <path class="cls-6" d="M790.41784,290.21373v302.04l79.7,46v-302.03Zm69.22,329.87-58.72-33.89v-277.8l58.72,33.9Z"/>
    </g>
    <polygon class="cls-7" points="800.918 308.394 804.859 310.668 804.847 584.062 859.638 615.679 859.637 620.084 800.911 586.192 800.918 308.394"/>
  </g>
  <path class="cls-8" d="M67.77192,732.49667l392.21059,226.4329a43.6172,43.6172,0,0,0,43.61687-.00063l392.1905-226.4365a14.53906,14.53906,0,0,0,.00017-25.18216L503.58239,480.8567a43.61721,43.61721,0,0,0-43.61994.00054L67.77107,707.31448A14.53906,14.53906,0,0,0,67.77192,732.49667Z"/>
  <path class="cls-9" d="M318.64115,720.94332,595.61441,560.83638a21.85383,21.85383,0,0,1,21.87551,0l130.30734,75.33514a10.92692,10.92692,0,0,1,0,18.91972L470.824,815.19818a21.85383,21.85383,0,0,1-21.87551,0L318.64115,739.863A10.92692,10.92692,0,0,1,318.64115,720.94332Z"/>
  <polygon class="cls-10" points="111.625 681.919 256.095 812.7 620.271 600.197 423.96 501.661 111.625 681.919"/>
  <g>
    <polygon class="cls-3" points="72.82 341.346 469.471 111.363 469.471 475.614 72.82 704.563 72.82 341.346"/>
    <path class="cls-11" d="M466.78514,368.5111l2.686-4.65235v-6.20556L294.52586,256.64293a26.855,26.855,0,0,0-26.77539-.001L72.81956,369.15709v6.20313l2.68628,4.65381,9.59961-5.541V480.02477L72.8198,487.11656V704.56285L469.47117,475.61363h0L413.01487,443.017V337.4652ZM148.53807,443.41149,95.85154,473.82213V368.27037l52.68653-30.41064Zm63.43261-36.61377-52.68652,30.41064V331.6566L211.97068,301.246ZM275.4033,370.184l-52.68652,30.41113V295.04332L273.123,265.9486a15.83026,15.83026,0,0,1,2.28027-1.07618Zm63.43262,30.00341L286.14939,369.767V264.61119a15.92963,15.92963,0,0,1,3.00342,1.33838l49.68311,28.686Zm63.43286,36.62452L349.582,406.392V300.8402l52.68677,30.42041Z"/>
    <path class="cls-12" d="M153.38127,556.47082l103.3532-59.71518a7.24507,7.24507,0,0,1,7.25227,0l56.70615,32.77495a3.62254,3.62254,0,0,1,0,6.27235l-103.3532,59.71519a7.24512,7.24512,0,0,1-7.25227,0l-56.70615-32.775A3.62254,3.62254,0,0,1,153.38127,556.47082Z"/>
    <polygon class="cls-13" points="164.411 651.68 164.411 302.503 151.572 309.937 151.572 644.191 164.411 651.68"/>
    <polygon class="cls-14" points="370.875 532.525 370.883 182.97 358.036 190.408 358.036 525.035 370.875 532.525"/>
    <polygon class="cls-15" points="462.488 479.647 462.496 129.903 449.648 137.363 449.648 472.157 462.488 479.647"/>
    <polygon class="cls-16" points="469.471 111.363 469.471 475.614 462.472 479.648 462.472 129.938 379.709 177.863 379.709 527.426 370.877 532.519 370.877 182.968 173.234 297.406 173.234 646.612 164.414 651.693 164.414 302.498 81.652 350.436 81.652 699.47 81.455 699.581 72.82 704.563 72.82 341.024 469.471 111.363"/>
    <g>
      <polygon class="cls-17" points="379.709 527.426 379.709 521.107 462.496 475.63 462.496 479.632 379.709 527.426"/>
      <polygon class="cls-18" points="379.709 523.425 379.709 508.495 449.656 468.141 462.496 475.63 379.709 523.425"/>
      <polygon class="cls-19" points="455.793 471.687 455.785 133.823 379.709 177.876 379.709 515.582 455.793 471.687"/>
    </g>
    <g>
      <polygon class="cls-20" points="81.625 699.457 81.625 693.138 164.411 647.661 164.411 651.662 81.625 699.457"/>
      <polygon class="cls-21" points="81.625 695.456 81.625 680.526 151.572 640.171 164.411 647.661 81.625 695.456"/>
      <polygon class="cls-19" points="157.639 643.765 157.631 306.427 81.555 349.942 81.555 687.661 157.639 643.765"/>
    </g>
  </g>
  <g>
    <g>
      <circle class="cls-22" cx="782.49382" cy="304.18258" r="201.18409"/>
      <path class="cls-23" d="M983.6843,304.19011a200.91576,200.91576,0,0,1-9.08692,59.93728c-1.308,4.21635-2.762,8.39642-4.36154,12.48553a199.06615,199.06615,0,0,1-21.80861,41.34548c-1.29027,1.90812-2.63512,3.78008-4.01635,5.63385A200.8546,200.8546,0,0,1,782.5,505.37452c-111.11465,0-201.18429-90.08762-201.18429-201.18441,0-111.11487,90.06964-201.18441,201.18429-201.18441C893.59691,103.0057,983.6843,193.07524,983.6843,304.19011Z"/>
      <path class="cls-24" d="M599.9992,388.9422a201.24178,201.24178,0,0,0,364.98932,0Z"/>
      <path class="cls-25" d="M782.49386,104.85031a199.33246,199.33246,0,1,1-140.94918,58.38312,198.02736,198.02736,0,0,1,140.94918-58.38312m0-18.17384c-120.12537,0-217.50614,97.38078-217.50614,217.50614s97.38077,217.506,217.50614,217.506C902.61911,521.68864,1000,424.308,1000,304.18261S902.61911,86.67647,782.49386,86.67647Z"/>
    </g>
    <g>
      <g>
        <g>
          <path class="cls-26" d="M650.84363,180.01145a7.313,7.313,0,0,0-7.266,6.48469l-3.297,28.91871h297.6472l10.563-35.4034Z"/>
          <path class="cls-27" d="M959.05393,215.41485H937.92781l3.297-28.91864a7.31315,7.31315,0,0,1,7.26608-6.48475h0a7.31315,7.31315,0,0,1,7.26608,6.48475Z"/>
        </g>
        <path class="cls-26" d="M926.58752,423.58855H628.9403a9.37679,9.37679,0,0,1-9.31978-10.40916l20.66011-197.76454H937.92781L917.26773,413.17942Z"/>
        <path class="cls-27" d="M974.1071,359.42043a196.65154,196.65154,0,0,1-31.96795,64.17182H926.58224a9.39235,9.39235,0,0,1-9.323-10.4138l20.66342-197.7676h21.1364Z"/>
        <path class="cls-28" d="M959.0591,215.41085H937.9227l-20.66342,197.7676a9.39235,9.39235,0,0,0,9.323,10.4138h15.55691c1.39943-1.85377,2.76246-3.72573,4.07093-5.63385H926.58224a3.73122,3.73122,0,0,1-2.78065-1.23592,3.76945,3.76945,0,0,1-.94463-2.96234L942.99327,221.0448h10.99526l15.82934,151.53358c1.59909-4.32549,3.01715-8.72353,4.28923-13.15795Z"/>
        <path class="cls-29" d="M903.60087,406.51082h-286.311a5.62579,5.62579,0,0,1-5.58379-6.31191l22.94-209.19724a5.62579,5.62579,0,0,1,5.5838-4.93968h286.311a5.62579,5.62579,0,0,1,5.5838,6.3119l-22.94,209.19725A5.62579,5.62579,0,0,1,903.60087,406.51082Z"/>
        <path class="cls-3" d="M895.23863,395.33847H609.0167a5.62579,5.62579,0,0,1-5.54028-6.60294l30.95677-198.0249a5.62579,5.62579,0,0,1,5.54028-4.64864H926.19541a5.62579,5.62579,0,0,1,5.54028,6.60293l-30.95678,198.0249A5.62578,5.62578,0,0,1,895.23863,395.33847Z"/>
        <g>
          <g>
            <g>
              <ellipse class="cls-30" cx="668.94273" cy="232.21119" rx="13.80372" ry="11.7523" transform="translate(19.84041 515.1822) rotate(-42.69792)"/>
              <ellipse class="cls-30" cx="704.5517" cy="232.21119" rx="13.80372" ry="11.7523" transform="translate(29.27895 539.32982) rotate(-42.69792)"/>
              <ellipse class="cls-30" cx="740.16067" cy="232.21119" rx="13.80372" ry="11.7523" transform="translate(38.71749 563.47744) rotate(-42.69792)"/>
              <ellipse class="cls-30" cx="775.76964" cy="232.21119" rx="13.80372" ry="11.7523" transform="translate(48.15603 587.62505) rotate(-42.69792)"/>
              <ellipse class="cls-30" cx="811.37861" cy="232.21119" rx="13.80372" ry="11.7523" transform="translate(57.59458 611.77267) rotate(-42.69792)"/>
              <ellipse class="cls-30" cx="846.98758" cy="232.21119" rx="13.80372" ry="11.7523" transform="translate(67.03312 635.92029) rotate(-42.69792)"/>
              <ellipse class="cls-31" cx="882.59655" cy="232.21119" rx="13.80372" ry="11.7523" transform="translate(76.47166 660.0679) rotate(-42.69792)"/>
            </g>
            <g>
              <ellipse class="cls-30" cx="648.99687" cy="359.9694" rx="13.80372" ry="11.7523" transform="translate(-72.08351 535.51995) rotate(-42.69792)"/>
              <ellipse class="cls-30" cx="684.60584" cy="359.9694" rx="13.80372" ry="11.7523" transform="translate(-62.64497 559.66756) rotate(-42.69792)"/>
              <ellipse class="cls-30" cx="720.21481" cy="359.9694" rx="13.80372" ry="11.7523" transform="translate(-53.20643 583.81518) rotate(-42.69792)"/>
              <ellipse class="cls-30" cx="755.82378" cy="359.9694" rx="13.80372" ry="11.7523" transform="translate(-43.76789 607.9628) rotate(-42.69792)"/>
              <ellipse class="cls-30" cx="791.43275" cy="359.9694" rx="13.80372" ry="11.7523" transform="translate(-34.32935 632.11041) rotate(-42.69792)"/>
              <ellipse class="cls-30" cx="827.04172" cy="359.9694" rx="13.80372" ry="11.7523" transform="translate(-24.89081 656.25803) rotate(-42.69792)"/>
              <ellipse class="cls-31" cx="862.65069" cy="359.9694" rx="13.80372" ry="11.7523" transform="translate(-15.45227 680.40565) rotate(-42.69792)"/>
            </g>
            <g>
              <ellipse class="cls-30" cx="655.65832" cy="317.38333" rx="13.80372" ry="11.7523" transform="translate(-41.4388 528.7494) rotate(-42.69792)"/>
              <ellipse class="cls-30" cx="691.26729" cy="317.38333" rx="13.80372" ry="11.7523" transform="translate(-32.00026 552.89701) rotate(-42.69792)"/>
              <ellipse class="cls-30" cx="726.87626" cy="317.38333" rx="13.80372" ry="11.7523" transform="translate(-22.56172 577.04463) rotate(-42.69792)"/>
              <ellipse class="cls-30" cx="762.48523" cy="317.38333" rx="13.80372" ry="11.7523" transform="translate(-13.12318 601.19225) rotate(-42.69792)"/>
              <ellipse class="cls-30" cx="798.09419" cy="317.38333" rx="13.80372" ry="11.7523" transform="translate(-3.68464 625.33986) rotate(-42.69792)"/>
              <ellipse class="cls-30" cx="833.70316" cy="317.38333" rx="13.80372" ry="11.7523" transform="translate(5.7539 649.48748) rotate(-42.69792)"/>
              <ellipse class="cls-31" cx="869.31213" cy="317.38333" rx="13.80372" ry="11.7523" transform="translate(15.19244 673.6351) rotate(-42.69792)"/>
            </g>
            <g>
              <ellipse class="cls-30" cx="662.29764" cy="274.79726" rx="13.80372" ry="11.7523" transform="translate(-10.79996 521.96385) rotate(-42.69792)"/>
              <ellipse class="cls-30" cx="697.90661" cy="274.79726" rx="13.80372" ry="11.7523" transform="translate(-1.36142 546.11146) rotate(-42.69792)"/>
              <ellipse class="cls-30" cx="733.51558" cy="274.79726" rx="13.80372" ry="11.7523" transform="translate(8.07712 570.25908) rotate(-42.69792)"/>
              <ellipse class="cls-30" cx="769.12455" cy="274.79726" rx="13.80372" ry="11.7523" transform="translate(17.51566 594.4067) rotate(-42.69792)"/>
              <ellipse class="cls-30" cx="804.73352" cy="274.79726" rx="13.80372" ry="11.7523" transform="translate(26.9542 618.55431) rotate(-42.69792)"/>
              <ellipse class="cls-30" cx="840.34249" cy="274.79726" rx="13.80372" ry="11.7523" transform="translate(36.39275 642.70193) rotate(-42.69792)"/>
              <ellipse class="cls-31" cx="875.95146" cy="274.79726" rx="13.80372" ry="11.7523" transform="translate(45.83129 666.84955) rotate(-42.69792)"/>
            </g>
          </g>
          <g>
            <g>
              <polyline class="cls-32" points="803.519 231.252 807.696 236.822 819.238 227.6"/>
              <polyline class="cls-32" points="767.91 231.252 772.087 236.822 783.629 227.6"/>
              <polyline class="cls-32" points="732.301 231.252 736.478 236.822 748.02 227.6"/>
              <polyline class="cls-32" points="696.692 231.252 700.869 236.822 712.411 227.6"/>
              <polyline class="cls-32" points="661.084 231.252 665.26 236.822 676.802 227.6"/>
            </g>
            <g>
              <polyline class="cls-32" points="797 273.719 801.176 279.29 812.718 270.067"/>
              <polyline class="cls-32" points="761.391 273.719 765.567 279.29 777.109 270.067"/>
              <polyline class="cls-32" points="725.782 273.719 729.958 279.29 741.5 270.067"/>
              <polyline class="cls-32" points="690.173 273.719 694.349 279.29 705.891 270.067"/>
              <polyline class="cls-32" points="654.564 273.719 658.74 279.29 670.282 270.067"/>
            </g>
            <g>
              <polyline class="cls-32" points="790.48 316.187 794.656 321.757 806.198 312.535"/>
              <polyline class="cls-32" points="754.871 316.187 759.047 321.757 770.589 312.535"/>
              <polyline class="cls-32" points="719.262 316.187 723.438 321.757 734.98 312.535"/>
              <polyline class="cls-32" points="683.653 316.187 687.829 321.757 699.371 312.535"/>
              <polyline class="cls-32" points="648.044 316.187 652.22 321.757 663.762 312.535"/>
            </g>
            <g>
              <polyline class="cls-32" points="783.96 358.654 788.136 364.224 799.678 355.002"/>
              <polyline class="cls-32" points="748.351 358.654 752.527 364.224 764.069 355.002"/>
              <polyline class="cls-32" points="712.742 358.654 716.918 364.224 728.46 355.002"/>
              <polyline class="cls-32" points="677.133 358.654 681.309 364.224 692.851 355.002"/>
              <polyline class="cls-32" points="641.524 358.654 645.7 364.224 657.242 355.002"/>
            </g>
          </g>
        </g>
      </g>
      <g>
        <g>
          <circle class="cls-33" cx="657.54679" cy="199.52313" r="5.90538"/>
          <path class="cls-27" d="M676.44646,180.015h-7.59529c-1.03142-5.19467-4.257-9.09545-7.9515-9.09545-3.6944,0-6.92008,3.90078-7.9515,9.09545a18.55992,18.55992,0,0,0-.35632,3.582c0,5.6635,2.56923,10.57693,5.96362,12.17105a3.83783,3.83783,0,0,1,2.3442,3.4506,3.75271,3.75271,0,0,1-5.3635,3.37573c-6.09491-2.813-10.44576-10.25827-10.44576-18.99738a24.19146,24.19146,0,0,1,.24381-3.52569c1.31277-9.45188,7.78278-16.65319,15.56545-16.65319C668.66368,163.41808,675.13369,170.582,676.44646,180.015Z"/>
        </g>
        <g>
          <circle class="cls-33" cx="688.31064" cy="199.52313" r="5.90538"/>
          <path class="cls-27" d="M707.21032,180.015H699.615c-1.03143-5.19467-4.257-9.09545-7.9515-9.09545-3.6944,0-6.92008,3.90078-7.9515,9.09545a18.55913,18.55913,0,0,0-.35633,3.582c0,5.6635,2.56257,10.5912,5.96363,12.17105a3.84861,3.84861,0,0,1,2.3442,3.4506,3.75271,3.75271,0,0,1-5.3635,3.37573c-6.09491-2.813-10.44576-10.25827-10.44576-18.99738a24.89879,24.89879,0,0,1,.24381-3.52569c1.353-9.4462,7.78278-16.65319,15.56545-16.65319C699.42754,163.41808,705.89755,170.582,707.21032,180.015Z"/>
        </g>
        <g>
          <circle class="cls-33" cx="719.0745" cy="199.52313" r="5.90538"/>
          <path class="cls-27" d="M737.97418,180.015h-7.59529c-1.03143-5.19467-4.257-9.09545-7.95151-9.09545-3.6944,0-6.92007,3.90078-7.9515,9.09545a18.55992,18.55992,0,0,0-.35632,3.582c0,5.6635,2.56257,10.5912,5.96363,12.17105a3.84862,3.84862,0,0,1,2.34419,3.4506,3.75271,3.75271,0,0,1-5.36349,3.37573c-6.09492-2.813-10.44576-10.25827-10.44576-18.99738a24.90028,24.90028,0,0,1,.2438-3.52569c1.353-9.4462,7.78279-16.65319,15.56545-16.65319C730.1914,163.41808,736.6614,170.582,737.97418,180.015Z"/>
        </g>
        <g>
          <circle class="cls-33" cx="749.83836" cy="199.52313" r="5.90538"/>
          <path class="cls-27" d="M768.738,180.015h-7.5953c-1.03142-5.19467-4.257-9.09545-7.9515-9.09545-3.6944,0-6.92008,3.90078-7.9515,9.09545a18.55992,18.55992,0,0,0-.35632,3.582c0,5.6635,2.56256,10.5912,5.96362,12.17105a3.84861,3.84861,0,0,1,2.3442,3.4506,3.75271,3.75271,0,0,1-5.3635,3.37573c-6.09491-2.813-10.44576-10.25827-10.44576-18.99738a24.89879,24.89879,0,0,1,.24381-3.52569c1.353-9.4462,7.78278-16.65319,15.56545-16.65319C760.95525,163.41808,767.42526,170.582,768.738,180.015Z"/>
        </g>
        <g>
          <circle class="cls-33" cx="780.60222" cy="199.52313" r="5.90538"/>
          <path class="cls-27" d="M799.50189,180.015H791.9066c-1.03143-5.19467-4.257-9.09545-7.9515-9.09545-3.6944,0-6.92008,3.90078-7.9515,9.09545a18.55913,18.55913,0,0,0-.35633,3.582c0,5.6635,2.56257,10.5912,5.96363,12.17105a3.84861,3.84861,0,0,1,2.3442,3.4506,3.75271,3.75271,0,0,1-5.3635,3.37573c-6.09491-2.813-10.44576-10.25827-10.44576-18.99738a24.89879,24.89879,0,0,1,.24381-3.52569c1.353-9.4462,7.78278-16.65319,15.56545-16.65319C791.71911,163.41808,798.18912,170.582,799.50189,180.015Z"/>
        </g>
        <g>
          <circle class="cls-33" cx="811.36607" cy="199.52313" r="5.90538"/>
          <path class="cls-27" d="M830.26575,180.015h-7.59529c-1.03143-5.19467-4.257-9.09545-7.9515-9.09545-3.69441,0-6.92008,3.90078-7.95151,9.09545a18.55992,18.55992,0,0,0-.35632,3.582c0,5.6635,2.56257,10.5912,5.96363,12.17105a3.84863,3.84863,0,0,1,2.3442,3.4506,3.75271,3.75271,0,0,1-5.3635,3.37573c-6.09492-2.813-10.44576-10.25827-10.44576-18.99738a24.90028,24.90028,0,0,1,.2438-3.52569c1.353-9.4462,7.78279-16.65319,15.56546-16.65319C822.483,163.41808,828.953,170.582,830.26575,180.015Z"/>
        </g>
        <g>
          <circle class="cls-33" cx="842.12993" cy="199.52313" r="5.90538"/>
          <path class="cls-27" d="M861.02961,180.015h-7.5953c-1.03142-5.19467-4.257-9.09545-7.9515-9.09545-3.6944,0-6.92007,3.90078-7.9515,9.09545a18.55992,18.55992,0,0,0-.35632,3.582c0,5.6635,2.56256,10.5912,5.96362,12.17105a3.84861,3.84861,0,0,1,2.3442,3.4506,3.75271,3.75271,0,0,1-5.3635,3.37573c-6.09491-2.813-10.44576-10.25827-10.44576-18.99738a24.89879,24.89879,0,0,1,.24381-3.52569c1.353-9.4462,7.78278-16.65319,15.56545-16.65319C853.24682,163.41808,859.71683,170.582,861.02961,180.015Z"/>
        </g>
        <g>
          <circle class="cls-33" cx="872.89379" cy="199.52313" r="5.90538"/>
          <path class="cls-27" d="M891.79346,180.015h-7.59529c-1.03142-5.19467-4.257-9.09545-7.9515-9.09545-3.6944,0-6.92008,3.90078-7.9515,9.09545a18.55913,18.55913,0,0,0-.35632,3.582c0,5.6635,2.56256,10.5912,5.96362,12.17105a3.84861,3.84861,0,0,1,2.3442,3.4506,3.75271,3.75271,0,0,1-5.3635,3.37573c-6.09491-2.813-10.44576-10.25827-10.44576-18.99738a24.89879,24.89879,0,0,1,.24381-3.52569c1.353-9.4462,7.78278-16.65319,15.56545-16.65319C884.01068,163.41808,890.48069,170.582,891.79346,180.015Z"/>
        </g>
        <g>
          <circle class="cls-33" cx="903.65764" cy="199.52313" r="5.90538"/>
          <path class="cls-27" d="M922.55732,180.015H914.962c-1.03143-5.19467-4.257-9.09545-7.9515-9.09545-3.69441,0-6.92008,3.90078-7.95151,9.09545a18.55992,18.55992,0,0,0-.35632,3.582c0,5.6635,2.56923,10.57693,5.96363,12.17105a3.83785,3.83785,0,0,1,2.3442,3.4506,3.75271,3.75271,0,0,1-5.3635,3.37573c-6.09492-2.813-10.44576-10.25827-10.44576-18.99738a24.19147,24.19147,0,0,1,.2438-3.52569c1.31278-9.45188,7.78279-16.65319,15.56546-16.65319C914.77454,163.41808,921.24455,170.582,922.55732,180.015Z"/>
        </g>
      </g>
    </g>
    <g>
      <g>
        <path class="cls-26" d="M674.66148,99.44019h12.46513a4.29434,4.29434,0,0,1,4.29434,4.29434v7.61359a0,0,0,0,1,0,0H670.36714a0,0,0,0,1,0,0v-7.61359A4.29434,4.29434,0,0,1,674.66148,99.44019Z" transform="translate(173.16601 -360.37067) rotate(33.73288)"/>
        <rect class="cls-34" x="668.42352" y="94.3032" width="32.15143" height="11.38385" rx="5.69192" transform="translate(170.77479 -363.28171) rotate(33.73288)"/>
      </g>
      <g>
        <path class="cls-26" d="M572.56129,99.44019H593.6151a0,0,0,0,1,0,0v7.61359a4.29434,4.29434,0,0,1-4.29434,4.29434H576.85563a4.29434,4.29434,0,0,1-4.29434-4.29434V99.44019a0,0,0,0,1,0,0Z" transform="matrix(-0.83164, 0.55532, -0.55532, -0.83164, 1126.53275, -130.75789)"/>
        <rect class="cls-35" x="563.4073" y="94.3032" width="32.15143" height="11.38385" rx="5.69192" transform="translate(1116.93116 -138.64491) rotate(146.26712)"/>
      </g>
      <g>
        <path class="cls-36" d="M631.633,77.03537h0a14.39323,14.39323,0,0,1,14.39323,14.39323V104.423a0,0,0,0,1,0,0H617.23978a0,0,0,0,1,0,0V91.42859A14.39323,14.39323,0,0,1,631.633,77.03537Z"/>
        <circle class="cls-37" cx="631.63302" cy="176.55634" r="83.09582"/>
        <circle class="cls-3" cx="631.63302" cy="176.55634" r="65.76652"/>
        <path class="cls-38" d="M631.63312,113.47488h-.124l-.05957.00049h-.00074q-.22924,0-.45825.00293h-.03833l-.01294.00049h-.02148c-.08911.001-.17456.00195-.26367.00341l.134,8.79981q.4215-.0066.845-.00635v-8.80078Zm-6.833.36572q-.4032.04322-.80517.0918l-.0022.00049-.02.00244-.01367.00146-.0105.00147-.11914.01465,1.07763,8.73437q.41676-.05127.83545-.09668l-.94238-8.75Zm-6.7522,1.10059-.11572.02588-.01245.00244-.0127.00293-.01635.00342-.00659.00146c-.14136.03174-.28443.064-.42554.09619h-.00025l-.01831.0044-.01123.00244-.0122.00293-.02466.00586h-.00049q-.14868.03442-.29736.06933l2.02075,8.56592q.40869-.09667.81982-.187l-1.88672-8.59619Zm-6.59277,1.82959c-.09155.03125-.1853.063-.27661.09424l-.0083.00293-.012.0039-.01783.00635-.0061.00195q-.15637.05348-.31226.1084l-.00708.00244-.01562.00537c-.08911.03125-.179.0625-.26807.09424l2.94336,8.294q.39551-.13989.7937-.27442l-2.81323-8.33935Zm-6.35327,2.53808c-.074.03418-.14746.06836-.22119.103l-.00171.001-.023.01074-.00586.00244-.01831.00879-.02222.01025-.00732.00391-.02051.00928-.00073.00049c-.16406.07714-.32715.15478-.49048.23388l-.01147.00537-.01075.00538-.05053.02392,3.82959,7.92432q.37829-.1831.76-.36035l-3.70557-7.98243Zm-6.04,3.21436-.00855.00537-.01123.00635-.01586.00976-.00342.002c-.2085.12646-.41309.25146-.62012.38037l-.01489.00928-.00513.00292c-.05127.03174-.10254.064-.15381.0962l4.66675,7.46142q.35669-.22338.7168-.44092l-4.55054-7.53271Zm-5.656,3.84961-.001.00049q-.38818.29663-.77173.59863l5.44531,6.91357q.33069-.26.66553-.51562l-5.33814-6.99707Zm-5.20776,4.4375c-.18726.17773-.37671.35986-.56177.54l-.00415.0039-.01343.01319-.0061.00586-.01221.0122-.00732.00684-.01855.01807-.01172.01172-.00782.00732-.012.01172-.0083.0083-.0127.01221-.00805.00781-.01758.01758-.0022.00195,6.15845,6.28711q.301-.29443.6062-.585l-6.06079-6.38086Zm-4.69971,4.97217q-.09777.115-.19482.231l-.01074.0127-.00489.00586q-.2091.249-.41626.501l6.79956,5.58741q.26734-.3252.5398-.64649l-6.71265-5.6914Zm-4.13647,5.4497q-.21278.31348-.42114.62989l-.01075.01611-.001.00146c-.03711.05616-.07251.10987-.10938.16651l7.363,4.8208q.23034-.35229.46631-.70068l-7.28711-4.93409Zm-3.52344,5.86475q-.11023.208-.2185.4165l-.00538.01026-.00561.01123-.011.021-.00073.00147q-.1051.20287-.20923.40723l7.842,3.99462q.1908-.375.38745-.74658l-7.779-4.11572Zm-2.86548,6.2124c-.10425.2627-.20532.523-.30615.78711l-.00122.00342-.00708.01855-.00244.00684-.00659.0166-.00318.00879-.02148.05664-.00244.00635-.00293.00781,8.23047,3.1167q.149-.39331.30371-.78369l-8.18067-3.24512Zm-2.17138,6.48877c-.07154.25977-.14087.519-.20923.78076h0l-.00562.02149-.00512.01953-.00123.00439c-.01.03955-.02026.07862-.03051.11817l8.52148,2.1997q.1051-.40722.21631-.81152l-8.48608-2.33252Zm-1.45044,6.68555q-.07728.48193-.14746.9668l8.7102,1.25927q.06042-.41675.127-.83154l-8.68969-1.39453Zm-.71656,6.80469c-.0166.32324-.03076.65136-.04248.97607l8.79517.314q.01538-.42115.03662-.84131l-8.78931-.44873Zm8.80347,6.352-8.78711.49072q.01283.22851.0271.45654l.00049.00586.00122.02.001.01465.00048.00977.00123.02h0c.00537.0835.011.166.0166.24952l.00024.00293.00147.02148.00073.01025.001.01514q.00513.07471.0105.14942l8.77857-.62549q-.03-.41969-.05347-.84082Zm.64526,5.85449-8.68286,1.437.01465.08789.0022.01318.002.01221.00342.01953.00049.00342c.02734.16211.05444.32031.083.48242l.00073.00391.00317.019.002.01074.00244.01465c.01757.09864.0354.19776.05322.29639l8.65918-1.57178q-.07471-.41308-.14356-.82861Zm1.27491,5.7417-8.47461,2.374c.02417.08594.04736.168.07177.25391l.00245.00879.00268.00927.00562.019.00195.00683.00732.02588h0q.08826.30909.17945.61572l8.43652-2.50634q-.11975-.40211-.23315-.80713Zm1.89331,5.56689-8.1648,3.28467c.02222.05518.04468.11084.06714.166l.00317.0083.00538.01269c.0769.18946.15356.37549.23217.564l.00318.00781.00537.0127.0061.01464.00366.00879c.01538.03662.03052.07324.0459.10938l8.11255-3.41162q-.1626-.38745-.31982-.77735Zm2.49,5.32959-7.75879,4.15381q.23072.43067.468.8584l7.69336-4.27393q-.204-.36767-.40259-.73828Zm3.05615,5.03174-7.26318,4.96973.03173.04638.00928.01319.00464.00732.01172.0166h0q.24829.36182.501.71924l7.18579-5.08154q-.24316-.34351-.481-.69092Zm3.58472,4.67481-6.68482,5.72412.00415.00537.00635.00732.01221.01416.01513.01758.00464.00537.01612.019.0017.002q.28821.33545.5813.667l6.596-5.82617q-.27868-.31567-.55273-.63574Zm4.0686,4.26318-6.02979,6.41064q.356.33473.71729.66455l5.93042-6.50293q-.31092-.28344-.61792-.57226Zm4.50342,3.7998-5.304,7.02295.05835.044.01245.00928.00684.00537.01782.01318.00415.00342q.34058.25635.68506.50781l5.19507-7.10351q-.33984-.249-.67578-.50245Zm4.88452,3.29-4.51392,7.55518c.10718.064.2168.1289.32447.19238l.01391.0083.00635.00342q.24865.14649.49854.29053l4.39624-7.624q-.36475-.21019-.72559-.42578Zm5.208,2.73926-3.66675,8.00049c.0647.02978.12915.05908.19385.08838l.00146.001.02393.01075.00464.00195.02539.01172.00757.00342.0166.00732.0122.00537.0127.00586.01392.00635.00756.00342.05494.0249.00708.00293.01684.00781.00708.00293.01733.00781.0022.001.03638.0166.00684.00293.01538.00684.00879.0039.01489.00684.012.00537.01221.00537.02344.01074.008.00342.01831.00781.00781.00391.01954.0083.0061.00293.053.02344.0022.001.02514.01123.00244.00146c.02735.01172.05469.02393.082.03613l.00171.00049.02564.01172.0022.00049.02661.01221h.00049l.02685.01171.00586.00245.01831.0083.00488.00195,3.54151-8.05664q-.38526-.16918-.76709-.34424Zm5.47192,2.15479-2.7727,8.35253c.31.103.61816.20264.93042.30079l2.6416-8.395q-.401-.126-.79932-.2583Zm5.67334,1.54443-1.84473,8.60547q.148.03148.29615.0625l.00561.00146.01929.00391.01025.00195.00611.00147c.2063.043.41406.085.62085.126l1.7102-8.63281q-.41309-.082-.82373-.16992Zm5.81348.91846-.90015,8.75488c.18433.019.36548.03662.55029.0542q.21131.01977.42286.03808l.76489-8.76757q-.42-.03663-.83789-.07959Zm6.73681.27636q-.42114.00879-.84375.01075l.042,8.80029h.06689q.4563-.00292.91089-.01172l-.176-8.79932Zm5.87915-.43359q-.41674.05346-.83544.10059l.98486,8.7456c.07641-.00879.15259-.01709.229-.02637h.00049l.02319-.00244.00513-.001.02026-.002.01172-.00146.0232-.00293.01757-.00195.01246-.00147.01538-.002.01318-.00147.01489-.00195.01245-.00147.01685-.00195.01221-.00146.0249-.00293.01245-.00147.01538-.00195.0127-.00147.01513-.00195.01368-.00146.01245-.00147.01562-.00195.00708-.001.03662-.00439.00733-.001.01977-.00244.00586-.00049.02075-.00244.00489-.00049c.041-.00537.07885-.00976.11987-.01514h.001c.041-.00537.07959-.01025.12085-.01513l.0039-.00049.02222-.00293.00195-.00049.04834-.00586-1.12012-8.72949Zm5.78638-1.06494q-.40833.09815-.81909.19092l1.92871,8.58642q.4779-.10694.95288-.22168l-2.0625-8.55566Zm5.63208-1.688q-.39515.14209-.79272.27832l2.85424,8.3252c.11524-.03955.23023-.07911.345-.11963l.00341-.001.02417-.0083.0044-.00147.02661-.00927.00586-.00244.02-.00684.011-.00391.01441-.00488.01294-.00488.01587-.00537.00879-.00293.0249-.00879.01074-.00391.01636-.00586.00976-.00342.01734-.00634.00879-.00293q.17138-.06079.342-.12207l-2.98389-8.2793Zm5.41577-2.29346q-.37757.18458-.75805.36377l3.74463,7.96436c.29614-.13916.58837-.2793.88183-.42285l-3.86841-7.90528Zm5.13819-2.8706q-.35559.22485-.71485.44433l4.58741,7.51075.1936-.11914.011-.00635.00855-.00537.021-.01319h.00048q.29883-.18456.596-.37256l-4.70312-7.43847Zm4.80078-3.4126q-.3296.2622-.66309.51953l5.37207,6.9707.07056-.05419.00561-.0044.01246-.00976c.11083-.08594.21972-.17042.32983-.25684l.00195-.00147.01709-.01318.02-.01611.00244-.00147q.15528-.12231.30982-.24511l-5.47876-6.8877Zm4.407-3.91162q-.29956.29589-.60352.5874l6.09156,6.352c.10669-.102.21142-.20312.31738-.30615l.01025-.01025.00586-.00538.01685-.0166.0022-.00244q.15014-.14575.29931-.29346l.011-.01074.00171-.00146.03613-.03565-6.18872-6.25732Zm3.96021-4.36377q-.26587.32665-.53638.64893l6.74,5.65917.07519-.08935.00879-.01074.00659-.00782c.17823-.21337.35669-.42968.53223-.6455l-6.82641-5.55469Zm3.46557-4.76318q-.22889.35376-.46313.70312l7.31128,4.89893c.04174-.0625.08447-.12647.126-.189l.00562-.0083.00854-.01318.00757-.01123.00659-.00977.03174-.04785.001-.00147.01513-.02294.00171-.00245q.16847-.25488.33423-.51074l-7.38623-4.78515Zm2.92774-5.106q-.18933.37574-.38379.74805l7.79882,4.07763q.22669-.43285.44629-.86963l-7.86132-3.95605Zm2.35351-5.39063q-.14685.394-.2998.78516l8.19653,3.20459q.178-.45483.34888-.91309l-8.24561-3.07666Zm1.75122-5.61279q-.10327.40723-.2124.813l8.49731,2.291c.0813-.30175.16089-.60546.2378-.90917l.00024-.001.00415-.0166.00342-.0127.00146-.00683-8.532-2.15772Zm1.12915-5.77344q-.05823.41748-.1228.83252l8.69629,1.35205q.05823-.37572.1123-.75195c.01026-.07178.02051-.144.03052-.21533l-8.71631-1.21729Zm.49829-5.87207q-.01319.42188-.03247.84229l8.79126.40625c.01514-.32569.02759-.64942.0376-.97656l-8.79639-.272Zm8.64283-6.56982-8.77539.66846q.03222.41894.05761.83984l8.78467-.5332c-.01147-.18653-.02344-.3711-.03638-.55713l-.00146-.021-.00025-.00244c-.009-.13135-.01879-.26318-.0288-.39453Zm-.8877-6.78418-8.65137,1.61377q.07691.41309.14771.82861l8.67578-1.47949q-.0824-.48267-.17212-.96289Zm-1.61963-6.647-8.42407,2.54785q.12158.40137.23682.80566l8.46289-2.41553q-.02929-.10253-.05884-.20507l-.001-.00342-.0061-.02051-.00342-.01221-.00366-.01269-.00464-.01563-.00024-.001c-.065-.22364-.13038-.44483-.19776-.66748Zm-2.33545-6.43067-8.09594,3.45117q.16479.38673.32373.77588L690.064,152.74c-.07862-.19287-.15943-.3877-.24-.57959l-.0022-.00537-.00659-.01563-.00513-.01221-.00488-.01172q-.05859-.13916-.11768-.27783Zm-3.02221-6.13818-7.67237,4.311q.20582.36694.40625.73682l7.73853-4.19189q-.11608-.21461-.23413-.42823l-.00147-.00293-.01172-.021-.00415-.00733-.0083-.01513-.00586-.01075-.00244-.00439c-.06738-.12158-.13623-.24512-.20434-.36621Zm-3.67017-5.77393-7.16065,5.11621q.24428.342.48389.68848l7.23926-5.00488-.08618-.12451-.00708-.00977-.00733-.01025-.01172-.01758-.001-.001c-.06323-.09082-.126-.18066-.1897-.271l-.00073-.00147-.02637-.03711-.00049-.00049-.00757-.01074-.009-.01269-.0061-.00928-.0127-.01758-.00244-.00342-.03442-.04883-.00049-.00048-.0166-.02393-.00122-.00146-.052-.07325-.00122-.00195-.01489-.02051-.00366-.00537-.01392-.01953-.01245-.01758-.00342-.00488-.03979-.05518Zm-4.27222-5.34424-6.56762,5.8584q.28051.31422.5559.63282l6.657-5.75635c-.13526-.15674-.27246-.31348-.40918-.46875l-.002-.00244-.04321-.04883-.00342-.00391-.01172-.01318-.00586-.00684-.01245-.01367-.00293-.00342-.02343-.02636-.00586-.00684-.00952-.01074-.00977-.01074-.00879-.00977-.0083-.00977-.01025-.01123-.00245-.00293-.02417-.02734-.00683-.00732-.01123-.0127-.00537-.00635-.01245-.01367-.0022-.00244-.01392-.01563Zm-4.823-4.853-5.89868,6.53125q.31237.28271.62061.56933l5.99878-6.43945c-.13257-.12353-.26343-.24414-.39722-.3667l-.00146-.00146-.01343-.01221-.00806-.00733-.00976-.00927-.01441-.01319-.00586-.00537-.02051-.01855-.0039-.00342-.01782-.0166-.00342-.00293c-.07422-.06787-.14893-.13525-.22363-.20313l-.00123-.001Zm-5.31738-4.30518-5.1604,7.12891q.341.24756.678.499l5.27-7.04834-.00244-.00195-.01734-.01319-.00878-.00634-.0105-.00782c-.19483-.1455-.38794-.28808-.58448-.43115h-.00048l-.01856-.01367-.145-.10547Zm-5.75122-3.70556-4.35889,7.6455q.36549.208.72754.42188l4.477-7.57666c-.28-.16553-.563-.32959-.8457-.49072Zm-6.11914-3.06055-3.5022,8.07373q.386.16773.7688.34082l3.62769-8.01856-.01026-.00439-.00634-.00293-.01783-.0083-.00219-.001-.0625-.02783-.002-.001c-.26416-.11914-.52734-.23535-.79321-.35058Zm-6.41577-2.37549-2.60059,8.40771q.40175.12452.80054.2544l2.73145-8.36621c-.3086-.10059-.62085-.2002-.9314-.2959Zm-6.63721-1.66162-1.668,8.64111q.41346.07983.82447.166l1.80249-8.61426c-.18433-.03857-.37207-.07715-.55689-.11377l-.00561-.00146-.01758-.00342-.009-.00147-.01709-.00342-.01-.00244-.01661-.00293-.01-.00195-.032-.00635-.00781-.00146-.02026-.0044-.0044-.00048c-.08447-.01709-.167-.03321-.25171-.04932Zm-6.77783-.92969-.72241,8.771q.41967.03443.83813.07568l.85742-8.75928q-.21093-.0205-.42187-.03955l-.01856-.002-.00439-.00049c-.17651-.01562-.35156-.03076-.52832-.04541Z"/>
      </g>
      <g>
        <text class="cls-39" transform="translate(606.78034 170.57505)">30</text>
        <text class="cls-39" transform="translate(595.8653 206.88755)">min</text>
      </g>
    </g>
  </g>
  <g>
    <g>
      <path class="cls-40" d="M346.9076,676.53072l-.00929.0083a4.79607,4.79607,0,0,0-2.60489-.73585l-41.72457.53545A11.03835,11.03835,0,0,0,291.67218,687.376V725.5614l4.57827,2.64334,55.08022-49.12332Z"/>
      <path class="cls-41" d="M296.25048,728.20474l57.51658-33.20722v-11.7181a4.83338,4.83338,0,0,0-4.89541-4.833l-41.72454.5355a11.03828,11.03828,0,0,0-10.89663,11.03738Z"/>
    </g>
    <line class="cls-42" x1="348.57351" y1="473.37599" x2="305.96283" y2="686.7573"/>
    <g>
      <g>
        <polygon class="cls-43" points="296.25 723.402 313.417 733.318 313.417 738.121 296.25 728.205 296.25 723.402"/>
        <path class="cls-44" d="M595.94084,535.9802l-.00469-.00263-.00909-.00528.00029.00147a5.13553,5.13553,0,0,0-5.17423.00483l-281.6626,162.6459a13.45825,13.45825,0,0,0-5.7504,6.6153L296.05044,723.285v4.80282l302.48088-174.665,14.84421-7.36795Z"/>
        <path class="cls-45" d="M608.11967,546.01158,326.457,708.6575a13.45984,13.45984,0,0,0-5.75039,6.61528L313.417,733.31807v4.80282l302.48082-174.665V550.50243A5.18551,5.18551,0,0,0,608.11967,546.01158Z"/>
      </g>
      <g>
        <path class="cls-46" d="M613.68291,550.34864c-1.77614-1.02541-4.08741-.7267-6.41642.55052l.0003-.02345-.21238.12268-.06362.03664L354.47,696.90105v.00748a19.13716,19.13716,0,0,0-6.73579,7.07392c-3.68258,6.37845-3.68727,13.2702-.0104,15.393L451.319,779.19325,717.27809,610.16646Z"/>
        <g class="cls-47">
          <ellipse class="cls-48" cx="488.1943" cy="681.07084" rx="64.35396" ry="36.98503"/>
        </g>
        <path class="cls-45" d="M717.2781,610.16655c-1.77614-1.02541-4.08741-.7267-6.41641.55051l.00029-.02345-.21238.12268-.06361.03664L458.06522,756.719v.00747a19.1372,19.1372,0,0,0-6.73579,7.07393c-3.68259,6.37845-3.68728,13.27019-.01041,15.393,1.84034,1.06249,4.25406.72831,6.66793-.66968v.00059L710.54524,632.6333l.00015-.00616a19.15581,19.15581,0,0,0,6.72216-7.06762C720.95028,619.18107,720.955,612.28932,717.2781,610.16655Z"/>
      </g>
      <polygon class="cls-43" points="420.361 795.066 437.527 804.982 437.527 809.785 420.361 799.869 420.361 795.066"/>
      <g>
        <path class="cls-44" d="M720.051,607.64414l-.00469-.00264-.00909-.00528.00029.00147a5.13551,5.13551,0,0,0-5.17423.00484L433.20068,770.28842a13.45823,13.45823,0,0,0-5.7504,6.61531l-7.28968,18.04516v4.80282l302.48088-174.665,14.84421-7.368Z"/>
        <path class="cls-49" d="M732.22983,617.67551,450.56711,780.32144a13.4598,13.4598,0,0,0-5.75039,6.61528L437.52715,804.982v4.80282L732.578,639.4102a14.86166,14.86166,0,0,0,7.42994-12.87006v-4.37378A5.18551,5.18551,0,0,0,732.22983,617.67551Z"/>
      </g>
      <g>
        <path class="cls-50" d="M471.23126,779.81922l-33.71588,29.96955-141.2649-81.584V683.01019a12.13523,12.13523,0,0,1,.45627-3.38607Z"/>
        <path class="cls-44" d="M502.83375,751.7227l-27.97634,24.85453-3.62615,3.242L296.70675,679.62412a13.03494,13.03494,0,0,1,12.43928-9.65357l42.74521-.55242,6.62777-.096a5.95946,5.95946,0,0,1,2.90576.76846Z"/>
        <path class="cls-49" d="M437.52722,809.78483,505.59,770.48875V756.622a5.71962,5.71962,0,0,0-5.793-5.71916l-49.37513.63368a13.06227,13.06227,0,0,0-12.89464,13.0612Z"/>
      </g>
      <polygon class="cls-45" points="377.354 679.278 484.312 741.021 464.789 741.271 357.83 679.528 377.354 679.278"/>
    </g>
    <g>
      <g>
        <path class="cls-51" d="M525.55977,337.84618s3.33659-3.60126,9.30824.51238,6.89183,12.55563,11.03225,17.34362,15.50657,7.9853,18.04346,19.7689c3.63449,16.88181-11.058,25.03056-19.79936,26.79582-7.10924,1.43566-19.74329,1.15265-26.72475-7.89946s-.76681-24.03156-1.18391-35.28349c-.46382-12.51225,4.63391-16.1995,4.63391-16.1995Z"/>
        <ellipse class="cls-52" cx="523.24164" cy="340.95829" rx="6.71846" ry="4.52334" transform="translate(-72.4882 528.41582) rotate(-50.5565)"/>
      </g>
      <g>
        <g>
          <path class="cls-53" d="M542.10156,588.845c4.41449.52277,11.43047,5.47842,12.42522,9.08924,1.26476,4.591-.47247,9.06192-3.18914,14.94168-2.53543,5.4875-2.35021,15.60932-9.75338,22.3466-6.31595,5.74784-16.05978,5.36631-16.74121-3.25936l5.09616-10.48938,2.01726-17.78327S536.14769,588.14,542.10156,588.845Z"/>
          <path class="cls-54" d="M538.72484,586.88652c4.41449.52277,11.43047,5.47842,12.42522,9.08924,1.26476,4.59095.16234,8.964-2.55433,14.84375-2.53544,5.4875-2.02764,16.11126-9.98841,22.50328-6.65893,5.34674-14.86083,2.52648-13.80324-3.58407l1.75841-10.22342,2.01726-17.78327S532.771,586.18146,538.72484,586.88652Z"/>
          <path class="cls-55" d="M465.28071,475.8586S454.21973,530.41,453.00459,543.956c-1.286,14.33629,3.26791,26.90992,17.039,31.84537l58.88867,23.07124,1.39054,4.01495c3.11519,1.19473,9.28414-1.93567,9.28414-1.93567s3.02509-10.60859-.843-12.42021l-4.15205-1.39054c-13.77617-8.58117-19.77238-17.22964-34.31309-27.79126l10.272-68.05086Z"/>
          <path class="cls-54" d="M512.94326,593.76044l11.89979,4.45292c4.7782,1.92011,9.79773-12.37608,5.90562-14.72232l-9.71142-6.42475Z"/>
          <path class="cls-56" d="M539.60694,600.95192s-6.169,3.13029-9.28411,1.93561l-1.1168-3.22467L532.148,597.629c3.87785-2.90839,5.44164-7.30589,3.95315-9.98912l2.66285.89186C542.63205,590.34325,539.60694,600.95192,539.60694,600.95192Z"/>
          <path class="cls-53" d="M536.452,612.28935c-1.20411,3.09374-8.01866,3.37265-8.06519.16734l-.29822-12.57071c-.09012-4.495,12.684-3.78564,11.47843,1.28787Z"/>
          <path class="cls-54" d="M463.698,472.86193c-3.425,14.82644-16.41228,65.45355-10.90153,89.11235,4.514,19.37968,62.26741,35.95121,62.26741,35.95121,6.34557,2.19353,14.65573-16.0861,8.33392-21.64827l-30.36129-24.17383L510.57085,491.299Z"/>
          <path class="cls-53" d="M517.39666,666.11944c3.12128,4.71939,6.40433,13.1416,3.58408,18.19456-1.59085,2.85026-7.65421,5.54745-10.72285,7.45213s-7.72632,7.78507-18.71356,9.31271c-9.33445,1.29784-16.94111-4.54374-12.765-11.78134l11.58013-9.17245,10.95188-14.12633S513.64245,660.44305,517.39666,666.11944Z"/>
          <path class="cls-54" d="M517.39666,662.555c3.12128,4.71939,5.23063,14.97423,2.93967,18.22057-1.88207,2.66694-7.0098,5.52144-10.07844,7.42612s-7.72632,7.78507-18.71356,9.31271c-9.33445,1.29784-16.5161-4.94479-11.22226-10.73263l10.03735-10.22116,10.95188-14.12633S513.64245,656.87856,517.39666,662.555Z"/>
          <path class="cls-55" d="M539.02707,505.93686,516.46031,577.799c2.40892,29.554-1.94266,59.90242-1.53135,79.76165l1.07938,5.32279c.69149,2.795-6.81783,7.956-6.81783,7.956s-9.38409,1.3643-10.02758-4.62209l2.19354-6.894-15.19975-69.53829c-1.99926-8.80231-3.2261-16.92153-1.07174-28.42923l10.21265-72.1829Z"/>
          <path class="cls-54" d="M497.30608,643.01742l2.39316,11.91219c.89714,5.07082,15.78181,3.18415,15.71493-1.36l.34107-12.51075Z"/>
          <path class="cls-56" d="M516.00835,662.88345c.69149,2.795-6.81779,7.95594-6.81779,7.95594s-9.38411,1.36434-10.02763-4.622l2.19349-6.89408c.44969,3.906,13.10007,4.5389,14.04018.54348Z"/>
          <path class="cls-53" d="M500.83617,677.97849c-2.67337,1.9683-9.4681-.82285-7.79129-3.555l6.37266-10.98724c2.33047-3.8447,14.43732,3.50845,10.70279,7.14812Z"/>
          <path class="cls-57" d="M490.48394,501.65217l-26.78589-28.7901c1.7809-7.61922,5.71908-15.10581,8.81329-27.77167l68.66294,13.79313c3.91089,18.04817,3.14077,31.13509-1.17921,49.34923s-21.41957,67.68611-21.41957,67.68611l-.70507,61.92808c-.235,11.24185-22.20955,12.04485-24.55971,3.40781,0,0-9.82656-50.52956-10.14508-73.24827S490.48394,501.65217,490.48394,501.65217Z"/>
          <path class="cls-58" d="M468.07865,368.70846c-4.76026,8.727-20.24453,44.34072-20.24453,44.34072l-16.715,1.88017-3.8726,16.92166s15.76965,10.91461,27.99075,6.34544,30.5412-44.70349,30.5412-44.70349l8.09281-40.453A29.6094,29.6094,0,0,0,468.07865,368.70846Z"/>
          <path class="cls-59" d="M460.60476,434.44711a75.47935,75.47935,0,0,0,10.104-13.08341l-2.66992-31.37834Z"/>
          <circle class="cls-60" cx="433.04737" cy="424.18514" r="8.35942"/>
          <path class="cls-56" d="M502.44832,353.92789c-18.545-4.49111-30.5637,8.5134-31.50378,25.3198-5.6862,25.22321-2.03685,39.14822,2.50689,57.36237L471.57126,447.754c-2.99279,14.78675,2.38039,29.221,25.1933,33.99973,21.0376,4.40688,43.96807-23.6588,43.96807-23.6588s-2.72871-9.79255-5.549-21.30859a245.87163,245.87163,0,0,0,9.05888-60.09884C533.17946,364.94818,516.03975,357.21939,502.44832,353.92789Z"/>
          <path class="cls-55" d="M522.07306,361.22783c-.02113-.078-.04989-.15079-.07225-.22788a99.408,99.408,0,0,0-19.55242-7.07207,30.134,30.134,0,0,0-7.54917-.88207c-.109.07709-.22305.1508-.32721.23125-7.22916,5.58458-8.777,19.90592,1.48345,22.65C509.488,379.51949,525.03783,372.19922,522.07306,361.22783Z"/>
          <path class="cls-61" d="M479.4053,447.754c2.17766-17.31334,1.71667-31.82189,2.58523-51.93969.72465-16.78443,6.9723-34.4306,16.45149-41.36373l-3.06637-1.40947c-14.48371-.05011-22.74679,11.41746-25.50829,25.46-4.01495,18.48833-2.60482,37.44671-.333,58.28525l-5.09213,23.11042c-1.68894,8.44472-1.76855,15.74064,2.10784,21.60858a2.9634,2.9634,0,0,0,5.29735-.782C474.02929,473.56686,477.88305,459.85658,479.4053,447.754Z"/>
          <path class="cls-62" d="M484.3946,379.41177c-5.15309-6.38192-8.80889-15.23845-7.84872-21.5534a21.05721,21.05721,0,0,1,8.59785-14.14044c7.46193-5.36632,13.67267-4.17163,13.67267-4.17163C491.9858,353.79922,486.97834,366.93716,484.3946,379.41177Z"/>
          <path class="cls-60" d="M484.42292,379.334s-6.26143-12.18577-3.76417-20.10469c2.97693-9.44,9.75338-10.9172,9.75338-10.9172l11.86857,1.94722C494.6187,358.46272,488.60314,364.765,484.42292,379.334Z"/>
          <path class="cls-63" d="M536.82881,436.39462s7.09915-42.32275,7.41377-59.70707c-6.41731-6.80958-14.88013-12.25954-23.508-16.28695a36.51345,36.51345,0,0,0-8.38712,9.16966c-8.93081,14.04345-9.79319,24.0505-9.675,38.3868.09018,10.94245.75789,67.45883.96959,85.29168a5.45584,5.45584,0,0,0,5.82525,5.36253c19.2096-1.19749,37.05375-12.90447,36.01818-24.80911C543.7143,456.29308,536.82881,436.39462,536.82881,436.39462Z"/>
          <path class="cls-59" d="M526.27115,401.99275l10.55766,34.40188s2.58329-15.40219,4.70239-31.44014Z"/>
          <path class="cls-55" d="M555.27015,476.86024s-6.89875,5.57732-7.704,6.86471a10.71909,10.71909,0,0,0-1.05951,5.08044,3.94439,3.94439,0,0,0,1.20895,2.674l-.46456,3.72442a3.031,3.031,0,0,0,2.85452,3.4132,19.74956,19.74956,0,0,0,4.02955-.17013c1.8254-.31877,5.26684-2.36732,7.58135-3.852a6.16537,6.16537,0,0,0,2.76729-4.26767l1.07139-10.006Z"/>
          <path class="cls-60" d="M556.07531,468.55721l-1.9176,8.30475c-.945,3.61937,10.68366,6.65527,11.62861,3.0359l2.46173-9.13792Z"/>
          <path class="cls-64" d="M544.24255,376.68747c8.646,9.41262,29.91546,35.30412,32.691,51.40115,2.0749,12.03377-7.18148,43.70361-7.18148,43.70361-1.49821,4.6416-15.992,2.38154-15.73735-2.41685L555.885,434.363l-28.42085-30.51816C516.382,388.76366,533.55121,365.0482,544.24255,376.68747Z"/>
          <g>
            <path class="cls-65" d="M495.81006,361.18786c-.05739,2.85653.78556,5.59607,3.9738,6.66065,6.46935,2.16016,14.51032-2.75865,14.29686-8.09038l-1.15477-14.09427-16.74832,2.36026Z"/>
            <path class="cls-62" d="M505.5489,383.43646c9.26691.96,29.24306-4.77871,31.2995-14.04246,1.903-8.57239-2.7105-15.40219-10.01574-21.08187a117.67442,117.67442,0,0,0-15.07278-9.96052l1.38505,11.63089C514.22761,358.46551,514.05134,365.86868,505.5489,383.43646Z"/>
            <path class="cls-60" d="M505.54889,383.43646s18.53511-6.5285,21.19359-15.0669c1.82142-5.84993-1.05759-10.67838-5.758-14.66323a26.09608,26.09608,0,0,0-7.91706-4.64349C514.46263,360.94181,508.64585,375.35766,505.54889,383.43646Z"/>
          </g>
        </g>
        <path class="cls-55" d="M423.50763,428.76191l1.39582,1.89381a3.665,3.665,0,0,0,2.48784,1.461l2.94112.4278c2.45046-.08974,3.46745-.23524,4.32133-1.91064l1.47342-2.891,3.14175-4.03608a4.56113,4.56113,0,0,0-.4737-6.12358l-4.83389-4.54814a3.70641,3.70641,0,0,0-3.36705-.91351l-5.34177,1.2231a3.9064,3.9064,0,0,0-3.03274,3.69019l-.20886,6.93126A7.69258,7.69258,0,0,0,423.50763,428.76191Z"/>
      </g>
      <g>
        <path class="cls-51" d="M485.35654,329.83926c-1.59077-8.30929,1.03287-18.449,15.56813-21.08366,19.26928-3.49277,28.24361,14.12758,25.38841,26.94725a25.15717,25.15717,0,0,1-9.10719,14.58709l-4.15933,6.84431c-1.18366-2.42594-1.13588-12.64606-1.13588-12.64606S488.01174,343.70857,485.35654,329.83926Z"/>
        <g>
          <path class="cls-55" d="M520.107,327.44844c1.65153-7.2494-4.8626-15.04837-13.42832-16.22888-7.48633-1.03176-16.06586,4.08963-17.21284,12.38231a169.2154,169.2154,0,0,0-1.21778,18.51407c.0612,8.26268,2.63222,17.55342,11.03116,16.80606,9.242-.82238,15.56488-5.047,17.23865-13.40275Z"/>
          <path class="cls-51" d="M490.45012,318.94168l-2.63231,12.00891c1.632-.101,2.64632-1.26786,5.18879-6.26822-.98139,8.40021,8.3821,12.90015,15.925,11.90615,0,0-.55434,3.163.9953,5.2308,1.68368,2.24663,6.35878,3.83113,8.81378.56035C530.023,307.975,497.81467,302.4811,490.45012,318.94168Z"/>
          <path class="cls-55" d="M513.47771,349.65617c3.04227.05623,5.68175-4.14432,5.74555-7.59654s-2.87154-6.41282-5.5145-4.90506C510.391,339.0473,510.43544,349.6,513.47771,349.65617Z"/>
        </g>
      </g>
    </g>
    <g>
      <g>
        <path class="cls-42" d="M542.31932,524.90791l-52.46909,30.1125a28.8647,28.8647,0,0,1-17.995,3.60109l-7.91623-1.00276a87.94861,87.94861,0,0,1-32.95374-11.104l-107.014-61.84394a4.40363,4.40363,0,0,1,2.75675-8.18146l3.85076.48775a28.86463,28.86463,0,0,0,17.99475-3.60113l52.46923-30.11258"/>
        <line class="cls-42" x1="489.85023" y1="555.02041" x2="447.23955" y2="768.40172"/>
        <g>
          <path class="cls-66" d="M453.21794,541.95013l-6.2184.18746.50816.62967L363.51,494.26286a19.2124,19.2124,0,0,0-7.2888-2.4341l-14.50768-1.76353,1.776-.28142-5.38822-3.90639-2.054,5.0857.03371-.00542a2.33811,2.33811,0,0,0,.903,3.17735l86.55511,49.9811a19.21262,19.21262,0,0,0,7.2888,2.43424l17.74659,2.15707a2.321,2.321,0,0,0,2.509-1.50967l.0107.01319Z"/>
          <path class="cls-50" d="M358.29044,486.71705l-17.74663-2.15713a2.40141,2.40141,0,0,0-1.49062,4.46346l86.55521,49.98111a19.21121,19.21121,0,0,0,7.28876,2.43416l17.74663,2.15714a2.40141,2.40141,0,0,0,1.49062-4.46346L365.5792,489.15121A19.21121,19.21121,0,0,0,358.29044,486.71705Z"/>
        </g>
        <path class="cls-45" d="M355.11785,475.62854a6.00453,6.00453,0,0,1-2.99414-11.21191l45.93067-26.36036a6.00358,6.00358,0,0,1,5.97656,10.41407l-45.93067,26.36035A5.97449,5.97449,0,0,1,355.11785,475.62854Z"/>
        <line class="cls-42" x1="349.66547" y1="472.74931" x2="350.77798" y2="472.11083"/>
        <line class="cls-67" x1="496.38884" y1="551.26784" x2="542.31932" y2="524.90791"/>
        <line class="cls-42" x1="489.85023" y1="555.02041" x2="493.3809" y2="552.99412"/>
      </g>
      <g>
        <path class="cls-40" d="M492.76257,760.75416l-.00929.0083a4.79607,4.79607,0,0,0-2.60489-.73585l-41.72457.53544a11.03836,11.03836,0,0,0-10.89667,11.03738v38.1854l4.57827,2.64334,55.08022-49.12332Z"/>
        <path class="cls-68" d="M442.10545,812.42817,499.622,779.221v-11.7181a4.83338,4.83338,0,0,0-4.89541-4.833l-41.72454.53549a11.03829,11.03829,0,0,0-10.89663,11.03739Z"/>
      </g>
    </g>
  </g>
  <g>
    <circle class="cls-25" cx="942.64224" cy="173.99535" r="51.44097"/>
    <g>
      <rect class="cls-3" x="925.17812" y="166.82764" width="11.16548" height="33.5616" transform="translate(142.78277 711.92498) rotate(-45)"/>
      <rect class="cls-3" x="946.9169" y="152.57814" width="11.16548" height="50.25593" transform="translate(1500.3614 976.88225) rotate(-135)"/>
    </g>
  </g>
  <g>
    <g class="cls-69">
      <ellipse class="cls-70" cx="117.35369" cy="709.53553" rx="36.30513" ry="20.86502"/>
    </g>
    <g>
      <path class="cls-71" d="M117.35372,693.53722c14.34209,0,26.45877,6.34385,26.45877,13.85291,0,7.509-12.11668,13.85283-26.45877,13.85283-14.34222,0-26.45889-6.34384-26.45889-13.85283,0-7.50906,12.11667-13.85291,26.45889-13.85291m0-3.18215c-16.3703,0-29.641,7.62682-29.641,17.03506,0,9.40817,13.27075,17.035,29.641,17.035,16.37017,0,29.64092-7.62682,29.64092-17.035,0-9.40824-13.27075-17.03506-29.64092-17.03506Z"/>
      <g>
        <g>
          <path class="cls-72" d="M89.40938,651.77665v43.57446c0,8.86969,12.51123,16.06,27.94434,16.06,15.43322,0,27.94433-7.19031,27.94433-16.06V651.77665Z"/>
          <ellipse class="cls-73" cx="117.35369" cy="651.77669" rx="27.94426" ry="16.05992"/>
          <path class="cls-74" d="M141.598,659.75567c-4.82258,4.84517-13.885,8.07533-24.24871,8.07533s-19.42558-3.23016-24.24871-8.07533c3.0734-6.01166,12.76346-10.40831,24.24871-10.40831S138.5246,653.744,141.598,659.75567Z"/>
          <path class="cls-75" d="M117.35372,638.71677c13.52111,0,24.94421,5.98071,24.94421,13.05994,0,7.07916-11.4231,13.05987-24.94421,13.05987-13.52124,0-24.94434-5.98071-24.94434-13.05987,0-7.07923,11.4231-13.05994,24.94434-13.05994m0-3c-15.43323,0-27.94434,7.19025-27.94434,16.05994,0,8.86963,12.51111,16.05987,27.94434,16.05987,15.4331,0,27.94421-7.19024,27.94421-16.05987,0-8.86969-12.51111-16.05994-27.94421-16.05994Z"/>
        </g>
        <g>
          <path class="cls-76" d="M125.93523,536.66241c10.27342-3.82415,30.20007-14.81552,24.20314-21.78945S125.22987,520.98835,125.93523,536.66241Z"/>
          <path class="cls-74" d="M115.25417,657.58032c-.57,0-1.268-.94038-1.268-2.03785,0-53.61358-4.83087-88.51461-16.70718-116.823a3.37389,3.37389,0,0,1,.15429-2.793c.44333-.69143,1.09249-.55911,1.45127.29707,12.197,29.07371,17.40146,64.77243,17.40146,119.37062C116.286,656.69171,115.82416,657.58032,115.25417,657.58032Z"/>
          <path class="cls-74" d="M119.88187,657.58032c-.57,0-1.03186-.88861-1.03186-1.98607,0-50.49632,0-119.65472,13.174-151.057.35844-.85618,1.00794-.9872,1.45094-.29707a3.3727,3.3727,0,0,1,.15463,2.793c-12.71582,30.31128-12.71582,98.65631-12.71582,148.56109C120.91372,656.69171,120.45186,657.58032,119.88187,657.58032Z"/>
          <path class="cls-74" d="M120.367,603.3739c-.53193,0-.98335-.78613-1.02748-1.82392-1.71134-40.383-6.25718-67.83-14.30621-86.37535a3.38493,3.38493,0,0,1,.13-2.79814c.43794-.7044,1.08845-.589,1.45329.25036,8.33572,19.20562,13.03181,47.3596,14.77987,88.59882.04615,1.09357-.37663,2.05353-.94461,2.14174A.47247.47247,0,0,1,120.367,603.3739Z"/>
        </g>
        <path class="cls-74" d="M119.88287,619.08483a.52457.52457,0,0,1-.07445-.00477c-.56865-.0715-.79917-.97985-.7584-1.98439,1.28418-31.77956,9.09445-65.2926,21.9147-67.92372.56326-.11678,1.078.60058,1.1437,1.60155.06569,1.00216-.33991,1.9078-.90586,2.02339-11.70518,2.40232-19.068,34.313-20.29154,64.59344C120.87228,618.352,120.41918,619.08483,119.88287,619.08483Z"/>
        <path class="cls-77" d="M126.79168,571.48247c10.16466,2.53688,31.575,2.65047,30.61628-6.08738S134.70532,558.74591,126.79168,571.48247Z"/>
        <path class="cls-78" d="M130.54351,564.926c17.08454-4.57709,48.78844-21.93977,40.21852-34.05556S131.799,539.64188,130.54351,564.926Z"/>
        <path class="cls-79" d="M118.42614,577.19461c13.111-5.7497,36.35769-23.516,28.02018-32.16342S116.3416,556.81,118.42614,577.19461Z"/>
        <path class="cls-80" d="M114.62362,542.47313c-12.41352-9.28869-32.56113-33.74366-21.641-40.81312S121.83577,521.48705,114.62362,542.47313Z"/>
        <path class="cls-81" d="M108.9903,572.42538c-17.297-4.81082-49.30951-22.74048-40.49385-34.95553S107.9601,546.74928,108.9903,572.42538Z"/>
        <path class="cls-82" d="M101.99515,548.24192C92.5,542.76389,74.67664,528.61431,81.749,522.73378S105.2951,532.90294,101.99515,548.24192Z"/>
        <path class="cls-83" d="M121.174,532.16083c12.14387-10.83615,31.84358-35.50284,19.59866-41.78006S111.41453,511.08874,121.174,532.16083Z"/>
        <path class="cls-84" d="M116.62983,555.49136c9.36164-8.86212,23.65647-30.992,13.95945-35.78344S108.66061,538.8504,116.62983,555.49136Z"/>
        <path class="cls-85" d="M118.1732,567.91089c-10.57167-5.39906-28.94632-21.23919-21.62312-27.98994S120.89353,551.13988,118.1732,567.91089Z"/>
      </g>
      <rect class="cls-86" x="127.35115" y="687.67048" width="37.57777" height="2.00007" transform="translate(-548.39998 803.72768) rotate(-87.42538)"/>
      <rect class="cls-87" x="87.48766" y="669.88163" width="2.00007" height="37.57777" transform="translate(-30.76559 4.65604) rotate(-2.56788)"/>
      <rect class="cls-88" x="116.35781" y="686.12706" width="2" height="37.27637"/>
      <path class="cls-89" d="M145.298,660.86638v7.77a3.429,3.429,0,0,1,0,.74c-.38,7.78-13.02,14.28-27.93994,14.28-14.92,0-27.57007-6.5-27.95007-14.28a3.44956,3.44956,0,0,1,0-.74v-7.76a11.47968,11.47968,0,0,0,0,16.27c5.16,5.86,15.74011,9.87,27.95007,9.87,12.19995,0,22.77-4.01,27.93994-9.86005a11.47973,11.47973,0,0,0,0-16.29Z"/>
    </g>
  </g>
</svg>
