<svg id="Layer_1" data-name="Layer 1" xmlns="http://www.w3.org/2000/svg" xmlns:xlink="http://www.w3.org/1999/xlink" viewBox="0 0 1000 1000">
  <defs>
    <style>
      .cls-1 {
        fill: url(#linear-gradient);
      }

      .cls-2 {
        fill: #b8cbd8;
      }

      .cls-3 {
        fill: url(#linear-gradient-2);
      }

      .cls-4 {
        fill: #2a3f5e;
        opacity: 0.2;
      }

      .cls-5 {
        fill: url(#linear-gradient-3);
      }

      .cls-6 {
        fill: url(#linear-gradient-4);
      }

      .cls-7 {
        fill: url(#linear-gradient-5);
      }

      .cls-8 {
        fill: url(#linear-gradient-6);
      }

      .cls-9 {
        fill: url(#linear-gradient-7);
      }

      .cls-10 {
        fill: #e58630;
      }

      .cls-11 {
        fill: url(#linear-gradient-8);
      }

      .cls-12, .cls-72 {
        opacity: 0.5;
      }

      .cls-13 {
        fill: url(#linear-gradient-9);
      }

      .cls-14 {
        fill: #748ca3;
      }

      .cls-15 {
        fill: #586c7f;
      }

      .cls-16 {
        fill: url(#linear-gradient-10);
      }

      .cls-17, .cls-18 {
        fill: none;
        stroke-miterlimit: 10;
        stroke-width: 5.40487px;
      }

      .cls-17 {
        stroke: url(#linear-gradient-11);
      }

      .cls-18 {
        stroke: url(#linear-gradient-12);
      }

      .cls-19 {
        fill: url(#linear-gradient-13);
      }

      .cls-20 {
        fill: url(#linear-gradient-14);
      }

      .cls-21 {
        fill: url(#linear-gradient-15);
      }

      .cls-22 {
        fill: url(#linear-gradient-16);
      }

      .cls-23 {
        fill: url(#linear-gradient-17);
      }

      .cls-24 {
        fill: url(#linear-gradient-18);
      }

      .cls-25 {
        fill: url(#linear-gradient-19);
      }

      .cls-26 {
        fill: url(#linear-gradient-20);
      }

      .cls-27 {
        fill: url(#linear-gradient-21);
      }

      .cls-28 {
        fill: url(#linear-gradient-22);
      }

      .cls-29 {
        fill: url(#linear-gradient-23);
      }

      .cls-30 {
        fill: url(#linear-gradient-24);
      }

      .cls-31 {
        fill: #ffcb48;
      }

      .cls-32 {
        fill: url(#linear-gradient-25);
      }

      .cls-33 {
        fill: url(#linear-gradient-26);
      }

      .cls-34 {
        fill: url(#linear-gradient-27);
      }

      .cls-35 {
        fill: #c93535;
      }

      .cls-36 {
        fill: #f0f9fc;
      }

      .cls-37 {
        fill: url(#linear-gradient-28);
      }

      .cls-38 {
        fill: url(#linear-gradient-29);
      }

      .cls-39 {
        fill: #f7e1c4;
      }

      .cls-40 {
        fill: url(#linear-gradient-30);
      }

      .cls-41 {
        fill: url(#linear-gradient-31);
      }

      .cls-42 {
        fill: #a3bacc;
      }

      .cls-43 {
        fill: url(#linear-gradient-32);
      }

      .cls-44 {
        fill: #e9f1f4;
      }

      .cls-45 {
        fill: #bcd0e2;
      }

      .cls-46 {
        fill: url(#linear-gradient-33);
      }

      .cls-47 {
        fill: url(#linear-gradient-34);
      }

      .cls-48 {
        fill: #fff;
      }

      .cls-49 {
        fill: url(#linear-gradient-35);
      }

      .cls-50 {
        fill: url(#linear-gradient-36);
      }

      .cls-51 {
        opacity: 0.4;
        fill: url(#linear-gradient-37);
      }

      .cls-52 {
        fill: url(#linear-gradient-38);
      }

      .cls-53 {
        fill: url(#linear-gradient-39);
      }

      .cls-54 {
        fill: url(#linear-gradient-40);
      }

      .cls-55 {
        fill: url(#linear-gradient-41);
      }

      .cls-56 {
        fill: url(#linear-gradient-42);
      }

      .cls-57 {
        fill: url(#linear-gradient-43);
      }

      .cls-58 {
        fill: url(#linear-gradient-44);
      }

      .cls-59 {
        fill: url(#linear-gradient-45);
      }

      .cls-60 {
        fill: url(#linear-gradient-46);
      }

      .cls-61 {
        fill: url(#linear-gradient-47);
      }

      .cls-62 {
        fill: url(#linear-gradient-48);
      }

      .cls-63 {
        fill: url(#linear-gradient-49);
      }

      .cls-64 {
        fill: #541510;
        opacity: 0.3;
      }

      .cls-65 {
        fill: url(#linear-gradient-50);
      }

      .cls-66 {
        fill: url(#linear-gradient-51);
      }

      .cls-67 {
        fill: url(#linear-gradient-52);
      }

      .cls-68 {
        fill: url(#linear-gradient-53);
      }

      .cls-69 {
        fill: #473634;
      }

      .cls-70 {
        fill: url(#linear-gradient-54);
      }

      .cls-71 {
        fill: url(#linear-gradient-55);
      }

      .cls-72, .cls-81 {
        fill: #dd7b19;
      }

      .cls-73 {
        fill: url(#linear-gradient-56);
      }

      .cls-74 {
        fill: #ffcd5c;
      }

      .cls-75 {
        fill: #303d49;
      }

      .cls-76 {
        fill: #999;
      }

      .cls-77 {
        fill: url(#linear-gradient-57);
      }

      .cls-78 {
        fill: url(#linear-gradient-58);
      }

      .cls-79 {
        fill: url(#linear-gradient-59);
      }

      .cls-80 {
        fill: #a0432d;
        opacity: 0.6;
      }

      .cls-82 {
        fill: url(#linear-gradient-60);
      }

      .cls-83 {
        fill: #a05452;
      }
    </style>
    <linearGradient id="linear-gradient" x1="497.8057" y1="385.55996" x2="919.09239" y2="385.55996" gradientUnits="userSpaceOnUse">
      <stop offset="0" stop-color="#e4edf2"/>
      <stop offset="1" stop-color="#c3d6e6"/>
    </linearGradient>
    <linearGradient id="linear-gradient-2" x1="76.53524" y1="711.89267" x2="919.09239" y2="711.89267" gradientUnits="userSpaceOnUse">
      <stop offset="0" stop-color="#dae9f2"/>
      <stop offset="0.99337" stop-color="#c4d5e6"/>
    </linearGradient>
    <linearGradient id="linear-gradient-3" x1="293.06858" y1="181.59806" x2="286.94092" y2="504.83211" gradientUnits="userSpaceOnUse">
      <stop offset="0" stop-color="#293440"/>
      <stop offset="1" stop-color="#3e4c59"/>
    </linearGradient>
    <linearGradient id="linear-gradient-4" x1="119.36122" y1="388.9177" x2="462.70394" y2="388.9177" gradientUnits="userSpaceOnUse">
      <stop offset="0" stop-color="#5b6f82"/>
      <stop offset="1" stop-color="#849bb2"/>
    </linearGradient>
    <linearGradient id="linear-gradient-5" x1="481.07765" y1="285.89935" x2="107.18064" y2="488.57815" gradientUnits="userSpaceOnUse">
      <stop offset="0" stop-color="#62778c"/>
      <stop offset="1" stop-color="#435466"/>
    </linearGradient>
    <linearGradient id="linear-gradient-6" x1="414.03823" y1="318.15331" x2="275.55991" y2="393.21842" xlink:href="#linear-gradient-5"/>
    <linearGradient id="linear-gradient-7" x1="302.56943" y1="382.50574" x2="164.09111" y2="457.57085" xlink:href="#linear-gradient-5"/>
    <linearGradient id="linear-gradient-8" x1="121.44942" y1="325.81943" x2="296.85368" y2="561.73432" gradientUnits="userSpaceOnUse">
      <stop offset="0.00005" stop-color="#ffcb48"/>
      <stop offset="1" stop-color="#e68e2b"/>
    </linearGradient>
    <linearGradient id="linear-gradient-9" x1="299.17829" y1="223.1762" x2="474.58255" y2="459.0911" xlink:href="#linear-gradient-8"/>
    <linearGradient id="linear-gradient-10" x1="-89.68898" y1="232.8204" x2="474.12979" y2="232.8204" xlink:href="#linear-gradient-4"/>
    <linearGradient id="linear-gradient-11" x1="6226.16823" y1="492.96369" x2="6298.37822" y2="525.95491" gradientTransform="translate(-5721.26989)" gradientUnits="userSpaceOnUse">
      <stop offset="0" stop-color="#3e4c59"/>
      <stop offset="1" stop-color="#293440"/>
    </linearGradient>
    <linearGradient id="linear-gradient-12" x1="6154.24771" y1="443.22854" x2="6235.84266" y2="480.50754" xlink:href="#linear-gradient-11"/>
    <linearGradient id="linear-gradient-13" x1="-1971.3697" y1="379.79241" x2="-1838.85056" y2="473.11574" gradientTransform="translate(2413.68732)" xlink:href="#linear-gradient-5"/>
    <linearGradient id="linear-gradient-14" x1="-1971.7489" y1="394.27225" x2="-1828.42345" y2="549.81561" gradientTransform="translate(2413.68732)" gradientUnits="userSpaceOnUse">
      <stop offset="0" stop-color="#62788c"/>
      <stop offset="1" stop-color="#526575"/>
    </linearGradient>
    <linearGradient id="linear-gradient-15" x1="-1985.88783" y1="374.72824" x2="-1899.24113" y2="509.89709" gradientTransform="translate(2413.68732)" gradientUnits="userSpaceOnUse">
      <stop offset="0" stop-color="#96b1cc"/>
      <stop offset="1" stop-color="#748ea6"/>
    </linearGradient>
    <linearGradient id="linear-gradient-16" x1="-1978.675" y1="419.1251" x2="-1840.12856" y2="419.1251" gradientTransform="translate(2413.68732)" gradientUnits="userSpaceOnUse">
      <stop offset="0" stop-color="#526575"/>
      <stop offset="1" stop-color="#62788c"/>
    </linearGradient>
    <linearGradient id="linear-gradient-17" x1="-1978.67506" y1="396.67784" x2="-1840.12861" y2="396.67784" xlink:href="#linear-gradient-15"/>
    <linearGradient id="linear-gradient-18" x1="-2179.08166" y1="395.86885" x2="-2124.51732" y2="395.86885" gradientTransform="translate(2656.08503)" xlink:href="#linear-gradient-5"/>
    <linearGradient id="linear-gradient-19" x1="-2179.08167" y1="391.71148" x2="-2124.51731" y2="391.71148" gradientTransform="translate(2656.08503)" gradientUnits="userSpaceOnUse">
      <stop offset="0" stop-color="#849bb2"/>
      <stop offset="1" stop-color="#5b6f82"/>
    </linearGradient>
    <linearGradient id="linear-gradient-20" x1="-2152.16803" y1="347.81297" x2="-2151.44155" y2="388.01164" gradientTransform="translate(2656.08503)" xlink:href="#linear-gradient-5"/>
    <linearGradient id="linear-gradient-21" x1="-2188.49094" y1="339.84696" x2="-2115.10799" y2="339.84696" gradientTransform="translate(2656.08503)" xlink:href="#linear-gradient-5"/>
    <linearGradient id="linear-gradient-22" x1="-2188.98322" y1="334.46826" x2="-2114.61571" y2="334.46826" gradientTransform="translate(2656.08503)" gradientUnits="userSpaceOnUse">
      <stop offset="0.00844" stop-color="#ffc63f"/>
      <stop offset="1" stop-color="#e68a23"/>
    </linearGradient>
    <linearGradient id="linear-gradient-23" x1="-2159.81786" y1="320.65376" x2="-2143.78123" y2="320.65376" gradientTransform="translate(2656.08503)" xlink:href="#linear-gradient-11"/>
    <linearGradient id="linear-gradient-24" x1="-2159.81785" y1="314.46668" x2="-2143.78114" y2="314.46668" gradientTransform="translate(2656.08503)" xlink:href="#linear-gradient-5"/>
    <linearGradient id="linear-gradient-25" x1="873.8416" y1="393.00558" x2="899.51699" y2="458.12208" gradientTransform="matrix(1, 0, 0, 1, 0, 0)" xlink:href="#linear-gradient-22"/>
    <linearGradient id="linear-gradient-26" x1="881.3084" y1="397.08318" x2="890.06998" y2="410.78551" xlink:href="#linear-gradient-5"/>
    <linearGradient id="linear-gradient-27" x1="864.34559" y1="406.97989" x2="895.20245" y2="455.23723" xlink:href="#linear-gradient-5"/>
    <linearGradient id="linear-gradient-28" x1="26.93738" y1="431.41089" x2="408.07484" y2="431.41089" gradientTransform="matrix(1, 0, 0, 1, 0, 0)" xlink:href="#linear-gradient-15"/>
    <linearGradient id="linear-gradient-29" x1="71.65259" y1="199.13031" x2="209.61908" y2="250.79041" gradientUnits="userSpaceOnUse">
      <stop offset="0" stop-color="#ffd773"/>
      <stop offset="1" stop-color="#e69e3a"/>
    </linearGradient>
    <linearGradient id="linear-gradient-30" x1="51.49085" y1="368.44401" x2="85.29124" y2="368.44401" xlink:href="#linear-gradient-29"/>
    <linearGradient id="linear-gradient-31" x1="38.31787" y1="376.48053" x2="48.68083" y2="376.48053" xlink:href="#linear-gradient-29"/>
    <linearGradient id="linear-gradient-32" x1="219.23754" y1="242.3582" x2="354.04605" y2="377.16671" gradientTransform="matrix(1, 0, 0, 1, 0, 0)" xlink:href="#linear-gradient-11"/>
    <linearGradient id="linear-gradient-33" x1="337.4606" y1="396.44776" x2="350.15527" y2="396.44776" gradientTransform="matrix(1, 0, 0, 1, 0, 0)" xlink:href="#linear-gradient-19"/>
    <linearGradient id="linear-gradient-34" x1="354.73582" y1="396.44776" x2="367.43048" y2="396.44776" gradientTransform="matrix(1, 0, 0, 1, 0, 0)" xlink:href="#linear-gradient-19"/>
    <linearGradient id="linear-gradient-35" x1="668.06281" y1="305.50805" x2="745.38188" y2="305.50805" gradientTransform="translate(-18.64021 -32.28579)" gradientUnits="userSpaceOnUse">
      <stop offset="0" stop-color="#435466"/>
      <stop offset="1" stop-color="#62778c"/>
    </linearGradient>
    <linearGradient id="linear-gradient-36" x1="678.483" y1="301.5248" x2="742.06697" y2="301.5248" gradientTransform="translate(-18.64021 -32.28579)" gradientUnits="userSpaceOnUse">
      <stop offset="0" stop-color="#fff"/>
      <stop offset="0.98888" stop-color="#e6edf2"/>
    </linearGradient>
    <linearGradient id="linear-gradient-37" x1="687.5953" y1="303.45023" x2="730.70076" y2="303.45023" gradientTransform="translate(-18.64021 -32.28579)" xlink:href="#linear-gradient-5"/>
    <linearGradient id="linear-gradient-38" x1="668.0628" y1="305.50805" x2="745.38189" y2="305.50805" gradientTransform="translate(-18.64021 -32.28579)" xlink:href="#linear-gradient-19"/>
    <linearGradient id="linear-gradient-39" x1="685.02823" y1="226.86146" x2="764.5281" y2="331.93954" gradientTransform="translate(-18.64021 -32.28579)" xlink:href="#linear-gradient-5"/>
    <linearGradient id="linear-gradient-40" x1="653.56576" y1="201.90626" x2="771.44992" y2="357.71835" gradientTransform="translate(-18.64021 -32.28579)" xlink:href="#linear-gradient-5"/>
    <linearGradient id="linear-gradient-41" x1="768.10635" y1="343.19989" x2="742.42618" y2="282.97913" gradientTransform="translate(3.46411 6.00002)" xlink:href="#linear-gradient-35"/>
    <linearGradient id="linear-gradient-42" x1="701.57289" y1="248.14074" x2="740.90815" y2="248.14074" gradientTransform="translate(47.76727 82.73534)" xlink:href="#linear-gradient-36"/>
    <linearGradient id="linear-gradient-43" x1="691.15269" y1="252.12398" x2="744.22307" y2="252.12398" gradientTransform="translate(47.76727 82.73534)" xlink:href="#linear-gradient-19"/>
    <linearGradient id="linear-gradient-44" x1="703.48895" y1="199.38407" x2="758.28439" y2="271.80935" gradientTransform="translate(47.76727 82.73534)" xlink:href="#linear-gradient-5"/>
    <linearGradient id="linear-gradient-45" x1="685.33048" y1="185.03852" x2="762.03129" y2="286.41698" gradientTransform="translate(47.76727 82.73534)" xlink:href="#linear-gradient-5"/>
    <linearGradient id="linear-gradient-46" x1="620.12461" y1="334.5115" x2="816.55099" y2="591.751" xlink:href="#linear-gradient-5"/>
    <linearGradient id="linear-gradient-47" x1="600.31894" y1="349.43871" x2="794.98663" y2="604.37504" gradientTransform="matrix(1, 0, 0, 1, 0, 0)" xlink:href="#linear-gradient-14"/>
    <linearGradient id="linear-gradient-48" x1="381.33773" y1="607.59395" x2="872.04539" y2="739.34843" xlink:href="#linear-gradient-5"/>
    <linearGradient id="linear-gradient-49" x1="235.19703" y1="629.59783" x2="662.83038" y2="901.84887" gradientTransform="matrix(1, 0, 0, 1, 0, 0)" xlink:href="#linear-gradient-14"/>
    <linearGradient id="linear-gradient-50" x1="245.69899" y1="692.01245" x2="884.6968" y2="726.58119" gradientTransform="matrix(1, 0, 0, 1, 0, 0)" xlink:href="#linear-gradient-11"/>
    <linearGradient id="linear-gradient-51" x1="250.79752" y1="724.74494" x2="842.08188" y2="756.73245" gradientTransform="matrix(1, 0, 0, 1, 0, 0)" xlink:href="#linear-gradient-11"/>
    <linearGradient id="linear-gradient-52" x1="612.23335" y1="291.52611" x2="879.14466" y2="641.07249" gradientUnits="userSpaceOnUse">
      <stop offset="0" stop-color="#596c80"/>
      <stop offset="0.99886" stop-color="#3a4959"/>
    </linearGradient>
    <linearGradient id="linear-gradient-53" x1="629.12207" y1="750.67947" x2="660.29069" y2="799.30251" gradientTransform="matrix(1, 0, 0, 1, 0, 0)" xlink:href="#linear-gradient-11"/>
    <linearGradient id="linear-gradient-54" x1="-8802.22359" y1="614.98829" x2="-8786.61955" y2="614.98829" gradientTransform="matrix(-0.66145, -0.76273, -0.84432, 0.61376, -4614.7427, -6638.68264)" gradientUnits="userSpaceOnUse">
      <stop offset="0" stop-color="#ffc050"/>
      <stop offset="0.50022" stop-color="#fbb648"/>
      <stop offset="1" stop-color="#f5a83d"/>
    </linearGradient>
    <linearGradient id="linear-gradient-55" x1="591.54498" y1="442.62116" x2="590.5237" y2="579.1318" xlink:href="#linear-gradient-8"/>
    <linearGradient id="linear-gradient-56" x1="627.75756" y1="442.89208" x2="626.73628" y2="579.40272" xlink:href="#linear-gradient-8"/>
    <linearGradient id="linear-gradient-57" x1="273.90905" y1="546.88113" x2="622.5003" y2="741.33339" xlink:href="#linear-gradient-8"/>
    <linearGradient id="linear-gradient-58" x1="711.78162" y1="534.10671" x2="770.01903" y2="554.12868" xlink:href="#linear-gradient-8"/>
    <linearGradient id="linear-gradient-59" x1="715.78323" y1="526.92029" x2="771.02243" y2="545.91148" gradientUnits="userSpaceOnUse">
      <stop offset="0" stop-color="#f2883c"/>
      <stop offset="0.16716" stop-color="#e97d35"/>
      <stop offset="0.67368" stop-color="#d26124"/>
      <stop offset="0.96784" stop-color="#c9571e"/>
    </linearGradient>
    <linearGradient id="linear-gradient-60" x1="664.7377" y1="443.16874" x2="663.71642" y2="579.67938" xlink:href="#linear-gradient-8"/>
  </defs>
  <g>
    <g>
      <polygon class="cls-1" points="497.806 59.227 919.092 302.448 919.092 711.893 497.806 468.649 497.806 59.227"/>
      <polygon class="cls-2" points="497.822 59.227 76.535 302.448 76.535 711.893 497.822 468.649 497.822 59.227"/>
    </g>
    <path class="cls-3" d="M83.805,724.49667l392.21059,226.4329a43.6172,43.6172,0,0,0,43.61687-.00063L911.823,724.49244a14.53906,14.53906,0,0,0,.00017-25.18216L519.61549,472.8567a43.61721,43.61721,0,0,0-43.61994.00054L83.80417,699.31448A14.53906,14.53906,0,0,0,83.805,724.49667Z"/>
    <path class="cls-4" d="M222.47916,768.77215l231.45056,133.6219a21.8247,21.8247,0,0,0,21.82684-.00167l374.982-216.76352a10.91235,10.91235,0,0,0-.00071-18.8997L619.35771,533.12378a21.82468,21.82468,0,0,0-21.8258-.00063L222.479,749.87131A10.91234,10.91234,0,0,0,222.47916,768.77215Z"/>
  </g>
  <g>
    <g>
      <path class="cls-5" d="M466.54541,454.52887,123.19634,652.75846l-11.46525-6.61724V323.31711L455.08016,125.076l11.46525-2.15873Z"/>
      <polygon class="cls-6" points="462.704 128.388 458.763 130.662 458.768 449.098 119.361 645.042 119.361 649.448 462.704 451.228 462.704 128.388"/>
      <path class="cls-7" d="M107.87322,319.99366v349.352l366.319-211.48427V108.48885Zm11.48824,6.6326L462.70394,128.38755l0,322.84091L119.36146,649.44785Z"/>
    </g>
    <polygon class="cls-8" points="347.299 513.451 342.299 516.337 342.299 197.921 347.299 195.035 347.299 513.451"/>
    <polygon class="cls-9" points="235.83 577.803 230.83 580.69 230.83 262.274 235.83 259.387 235.83 577.803"/>
    <g>
      <path class="cls-10" d="M291.55556,234.44244l-172.1941,99.549V647.39581a2.97181,2.97181,0,0,0,1.50513,2.60065l-.00024.00018,3.38843,1.94965-.40357-1.94727.01-.005L287.062,555.78992a9,9,0,0,0,4.50073-7.79487l3.38391-311.60046Z"/>
      <path class="cls-11" d="M294.95381,549.94723l-.00711-313.55262-172.19413,99.549V649.348a3,3,0,0,0,4.49977,2.59821l163.20076-94.2041A9,9,0,0,0,294.95381,549.94723Z"/>
      <g>
        <g class="cls-12">
          <polygon class="cls-10" points="144.564 641.925 142.265 643.253 142.265 324.662 144.564 323.334 144.564 641.925"/>
        </g>
        <g class="cls-12">
          <polygon class="cls-10" points="166.376 629.316 164.077 630.643 164.077 312.052 166.376 310.724 166.376 629.316"/>
        </g>
        <g class="cls-12">
          <polygon class="cls-10" points="188.188 616.706 185.888 618.034 185.888 299.442 188.188 298.115 188.188 616.706"/>
        </g>
        <g class="cls-12">
          <polygon class="cls-10" points="209.999 604.097 207.7 605.424 207.7 286.833 209.999 285.505 209.999 604.097"/>
        </g>
        <g class="cls-12">
          <polygon class="cls-10" points="231.811 591.487 229.512 592.815 229.512 274.223 231.811 272.896 231.811 591.487"/>
        </g>
        <g class="cls-12">
          <polygon class="cls-10" points="253.623 578.878 251.323 580.205 251.323 261.614 253.623 260.286 253.623 578.878"/>
        </g>
        <g class="cls-12">
          <polygon class="cls-10" points="275.434 566.268 273.135 567.596 273.135 249.004 275.434 247.677 275.434 566.268"/>
        </g>
      </g>
    </g>
    <g>
      <path class="cls-10" d="M469.28442,131.79922l-172.19409,99.549V544.75259a2.97181,2.97181,0,0,0,1.50513,2.60065l-.00024.00018,3.38842,1.94965-.40356-1.94727.01-.005,163.2008-94.20411a9,9,0,0,0,4.50074-7.79486l3.38391-311.60046Z"/>
      <path class="cls-13" d="M472.68268,447.304l-.00712-313.55262-172.19412,99.549V546.70473a3,3,0,0,0,4.49976,2.59822L468.182,455.09885A9,9,0,0,0,472.68268,447.304Z"/>
      <g>
        <g class="cls-12">
          <polygon class="cls-10" points="322.293 539.282 319.994 540.61 319.994 222.018 322.293 220.691 322.293 539.282"/>
        </g>
        <g class="cls-12">
          <polygon class="cls-10" points="344.105 526.673 341.805 528 341.805 209.409 344.105 208.081 344.105 526.673"/>
        </g>
        <g class="cls-12">
          <polygon class="cls-10" points="365.916 514.063 363.617 515.391 363.617 196.799 365.916 195.472 365.916 514.063"/>
        </g>
        <g class="cls-12">
          <polygon class="cls-10" points="387.728 501.454 385.429 502.781 385.429 184.19 387.728 182.862 387.728 501.454"/>
        </g>
        <g class="cls-12">
          <polygon class="cls-10" points="409.54 488.844 407.24 490.171 407.24 171.58 409.54 170.252 409.54 488.844"/>
        </g>
        <g class="cls-12">
          <polygon class="cls-10" points="431.352 476.234 429.052 477.562 429.052 158.971 431.352 157.643 431.352 476.234"/>
        </g>
        <g class="cls-12">
          <polygon class="cls-10" points="453.163 463.625 450.864 464.952 450.864 146.361 453.163 145.033 453.163 463.625"/>
        </g>
      </g>
    </g>
    <g>
      <path class="cls-14" d="M470.20723,125.06207v6.03443l-14.83479,8.56338v-6.91923a3.36189,3.36189,0,0,1,1.68117-2.91161l10.70616-6.18013A1.63171,1.63171,0,0,1,470.20723,125.06207Z"/>
      <path class="cls-15" d="M127.803,323.0138v6.03443l-14.83478,8.56337v-6.91922a3.36193,3.36193,0,0,1,1.68116-2.91162l10.70616-6.18012A1.63171,1.63171,0,0,1,127.803,323.0138Z"/>
      <path class="cls-16" d="M477.94276,131.60643,115.31654,341.01151l-3.92587-6.79981L474.03008,124.799l.00179.00311a1.97734,1.97734,0,0,1,1.95074.20782,6.13755,6.13755,0,0,1,2.78517,4.8041A1.92626,1.92626,0,0,1,477.94276,131.60643Z"/>
      <ellipse class="cls-15" cx="113.3536" cy="337.6116" rx="2.26305" ry="3.92587" transform="translate(-153.6193 101.90818) rotate(-30)"/>
    </g>
  </g>
  <g>
    <g>
      <path class="cls-17" d="M512.71878,481.76161v83.22385a1.88191,1.88191,0,0,0,2.82248,1.63l52.78025-30.45119a5.64575,5.64575,0,0,0,2.824-4.89V451.836"/>
      <path class="cls-18" d="M437.78658,438.61829v83.22386a1.88192,1.88192,0,0,0,2.82249,1.63l68.18855-39.34709a5.64574,5.64574,0,0,0,2.824-4.89V399.79679"/>
      <g>
        <path class="cls-19" d="M573.55872,409.55019v45.362a3.78125,3.78125,0,0,1-1.88817,3.28864l-55.8886,32.315a7.56346,7.56346,0,0,1-3.79208,1.00708l-15.40831-81.9727Z"/>
        <path class="cls-20" d="M511.98987,409.55019v81.9727a7.56382,7.56382,0,0,1-3.79247-1.00708l-71.281-41.21087a3.76436,3.76436,0,0,1-1.90411-3.28863v-45.362Z"/>
        <polygon class="cls-21" points="506.17 479.36 440.832 441.602 440.855 412.673 506.17 450.444 506.17 479.36"/>
        <path class="cls-22" d="M435.01232,392.22989v8.27781a3.75351,3.75351,0,0,0,1.89253,3.28014L508.197,445.003a7.57794,7.57794,0,0,0,7.58524,0l55.884-32.31923a3.7535,3.7535,0,0,0,1.89253-3.28014v-8.27781Z"/>
        <path class="cls-23" d="M571.66619,397.84565l-71.29228-41.21506a7.57763,7.57763,0,0,0-7.58515,0l-55.884,32.31917a3.78882,3.78882,0,0,0,0,6.56026l71.29227,41.21506a7.57763,7.57763,0,0,0,7.58515,0l55.884-32.31917A3.78883,3.78883,0,0,0,571.66619,397.84565Z"/>
      </g>
    </g>
    <g>
      <g>
        <path class="cls-24" d="M530.81082,392.24522c-2.8426-6.93571-13.625-12.103-26.52534-12.103s-23.68273,5.16732-26.52522,12.103h-.75689v3.62363c0,8.68561,12.21458,15.72666,27.28211,15.72666s27.28222-7.041,27.28222-15.72666v-3.62363Z"/>
        <ellipse class="cls-25" cx="504.28554" cy="391.71148" rx="27.28218" ry="15.72671"/>
      </g>
      <path class="cls-26" d="M500.71074,347.951v40.498c0,1.13808,1.60048,2.06068,3.57479,2.06068s3.5748-.9226,3.5748-2.06068V347.951Z"/>
      <path class="cls-27" d="M467.59408,312.48611v33.63466c0,11.64607,16.42727,21.087,36.69148,21.087s36.69148-9.441,36.69148-21.087V312.48611Z"/>
      <path class="cls-28" d="M467.1018,306.74032v34.08593c0,11.80231,16.64767,21.36995,37.18376,21.36995s37.18376-9.56764,37.18376-21.36995V306.74032Z"/>
      <g>
        <ellipse class="cls-10" cx="504.28554" cy="306.74043" rx="37.18377" ry="21.36998"/>
        <path class="cls-29" d="M496.26717,325.94424a36.30032,36.30032,0,0,0,16.03663,0V314.46663H496.26717Z"/>
        <ellipse class="cls-30" cx="504.28553" cy="314.46668" rx="8.01835" ry="4.62215"/>
        <path class="cls-31" d="M504.28552,287.20317c19.49262,0,35.35086,8.76434,35.35086,19.53721s-15.85824,19.53735-35.35086,19.53735-35.35086-8.76448-35.35086-19.53735,15.85824-19.53721,35.35086-19.53721m0-1.83275c-20.53594,0-37.18376,9.56769-37.18376,21.37,0,11.80242,16.64782,21.3701,37.18376,21.3701s37.18376-9.56768,37.18376-21.3701c0-11.80227-16.64782-21.37-37.18376-21.37Z"/>
      </g>
    </g>
  </g>
  <g>
    <ellipse class="cls-10" cx="885.33152" cy="394.08442" rx="10.27365" ry="5.92221"/>
    <path class="cls-32" d="M895.6051,394.087c-.00266,3.2696-4.60114,5.9198-10.27381,5.9198-5.674,0-10.27336-2.65153-10.27336-5.92247V449.5339c0,3.27083,4.59936,5.92225,10.27336,5.92225s10.27381-2.65142,10.27381-5.92225V394.087Z"/>
    <path class="cls-33" d="M895.6051,400.81513c-.00266,3.26961-4.60114,5.91981-10.27381,5.91981-5.674,0-10.27336-2.65153-10.27336-5.92247v4.06091c0,3.27082,4.59936,5.92224,10.27336,5.92224s10.27381-2.65142,10.27381-5.92224Z"/>
    <path class="cls-34" d="M895.6051,437.24014c-.00266,3.26961-4.60114,5.91981-10.27381,5.91981-5.674,0-10.27336-2.65153-10.27336-5.92247v4.06091c0,3.27082,4.59936,5.92225,10.27336,5.92225s10.27381-2.65143,10.27381-5.92225Z"/>
    <path class="cls-31" d="M885.33154,389.52561c5.25116,0,8.91059,2.40234,8.91059,4.55859s-3.65943,4.55908-8.91059,4.55908-8.91064-2.40283-8.91064-4.55908,3.65948-4.55859,8.91064-4.55859m0-1.36328c-5.674,0-10.27368,2.65136-10.27368,5.92187,0,3.271,4.59967,5.92237,10.27368,5.92237,5.67395,0,10.27362-2.65137,10.27362-5.92237,0-3.27051-4.59967-5.92187-10.27362-5.92187Z"/>
  </g>
  <g>
    <g>
      <g>
        <path class="cls-35" d="M217.50614,99.16037a198.65277,198.65277,0,1,1-77.5835,15.65723,198.06008,198.06008,0,0,1,77.5835-15.65723m0-18.17382C97.38083,80.98655,0,178.36741,0,298.49289c0,120.125,97.3808,217.50586,217.50611,217.50586s217.5061-97.38086,217.5061-217.50586c0-120.12548-97.3808-217.50634-217.5061-217.50634Z"/>
        <circle class="cls-36" cx="217.50613" cy="298.49268" r="201.18409"/>
      </g>
      <path class="cls-37" d="M26.93738,363.14507a201.26225,201.26225,0,0,0,381.13746,0Z"/>
      <g>
        <path class="cls-38" d="M199.91036,222.944a16.13687,16.13687,0,0,0-17.20577-22.57158,16.21134,16.21134,0,0,0-23.93328-12.733,16.19857,16.19857,0,0,0-28.74-4.84457,16.19572,16.19572,0,0,0-27.99889,2.83044,16.19255,16.19255,0,0,0-26.87012,11.95666c-.26609-.013-.52848-.04025-.7978-.04025a16.20206,16.20206,0,0,0-14.39319,23.67089,18.25257,18.25257,0,0,0-3.53181,9.87459c0,.60511.04008,1.21006.08048,1.77477,8.71283,17.22363,38.56134,30.29247,72.88739,30.29247,34.32621,0,64.175-13.06884,72.88738-30.29247.04041-.56471.08081-1.16966.08081-1.77477A16.96318,16.96318,0,0,0,199.91036,222.944Z"/>
        <g>
          <path class="cls-39" d="M188.50831,381.63959H70.3067a3.72641,3.72641,0,0,1-3.725-3.62519l-.34513-12.7L44.9289,214.52115H213.88612L192.57844,365.31437l-.34509,12.7A3.72641,3.72641,0,0,1,188.50831,381.63959Z"/>
          <g>
            <polygon class="cls-35" points="93.186 369.754 75.109 369.754 56.477 223.869 78.281 223.869 93.186 369.754"/>
            <polygon class="cls-35" points="122.443 369.754 104.366 369.754 95.05 223.869 120.58 223.869 122.443 369.754"/>
            <polygon class="cls-35" points="165.629 369.754 183.706 369.754 202.338 223.869 180.534 223.869 165.629 369.754"/>
            <polygon class="cls-35" points="136.372 369.754 154.449 369.754 163.765 223.869 138.235 223.869 136.372 369.754"/>
          </g>
          <rect class="cls-35" x="39.02215" y="214.52115" width="180.77072" height="11.88522" rx="5.9426"/>
          <path class="cls-35" d="M66.23654,365.31437l.34512,12.7a3.72641,3.72641,0,0,0,3.725,3.62519H188.50829a3.72642,3.72642,0,0,0,3.725-3.62519l.34511-12.7Z"/>
        </g>
        <path class="cls-40" d="M83.90714,368.07528a15.60244,15.60244,0,0,1-15.60243,15.60243c-10.26629,3.4801-20.35857-5.22014-15.60244-15.60243,0-8.617,6.98545-13.74638,15.60244-13.74638C76.83094,347.3687,89.514,361.28909,83.90714,368.07528Z"/>
        <circle class="cls-41" cx="43.49935" cy="376.48053" r="5.18148"/>
      </g>
      <g>
        <g>
          <path class="cls-42" d="M406.26556,246.476l-5.4436-4.72409v3.41766H206.15243a7.45289,7.45289,0,0,0-7.39529,6.52839L182.23164,383.9022c-.01694.136.00091.26588-.00625.40041l-3.88255-.47354,5.88245,5.05366a5.52911,5.52911,0,0,0,3.55287,1.30244H384.334a7.45289,7.45289,0,0,0,7.39528-6.5285l16.5255-132.20411A5.55822,5.55822,0,0,0,406.26556,246.476Z"/>
          <path class="cls-43" d="M378.1971,384.85067H183.01487a5.55056,5.55056,0,0,1-5.5077-6.239l16.41-131.2803a7.40074,7.40074,0,0,1,7.34359-6.48279H396.443a5.55056,5.55056,0,0,1,5.5077,6.239l-16.41,131.28029A7.40074,7.40074,0,0,1,378.1971,384.85067Z"/>
          <path class="cls-44" d="M397.1457,244.09924a1.86324,1.86324,0,0,1,1.84887,2.09429L382.469,378.39787a3.73217,3.73217,0,0,1-3.69764,3.26413H182.21549a1.86326,1.86326,0,0,1-1.84882-2.0944l16.5255-132.20411a3.73235,3.73235,0,0,1,3.69765-3.26425H397.1457m0-3.72641H200.58982a7.45289,7.45289,0,0,0-7.39529,6.52839L176.669,379.10544a5.58964,5.58964,0,0,0,5.54646,6.283H378.77132A7.45271,7.45271,0,0,0,386.1666,378.86l16.52562-132.20422a5.58968,5.58968,0,0,0-5.54652-6.283Z"/>
        </g>
        <rect class="cls-45" x="278.39298" y="388.91724" width="106.6897" height="15.06103" rx="3.72641"/>
        <path class="cls-44" d="M278.393,400.25179V392.6436a3.72646,3.72646,0,0,1,3.72641-3.72642H67.7595a3.72646,3.72646,0,0,0-3.72641,3.72642v7.60819a3.72638,3.72638,0,0,0,3.72641,3.72641H282.11939A3.72638,3.72638,0,0,1,278.393,400.25179Z"/>
        <path class="cls-45" d="M148.41848,388.91724h40.277a0,0,0,0,1,0,0v2.51707a3.70364,3.70364,0,0,1-3.70364,3.70364h-32.8697a3.70364,3.70364,0,0,1-3.70364-3.70364v-2.51707A0,0,0,0,1,148.41848,388.91724Z"/>
        <path class="cls-45" d="M67.7595,403.9782H282.11939a3.7183,3.7183,0,0,1-3.71038-3.56777H64.04912A3.7183,3.7183,0,0,0,67.7595,403.9782Z"/>
        <g>
          <rect class="cls-46" x="337.4606" y="394.5501" width="12.69467" height="3.79531" rx="1.89765"/>
          <rect class="cls-47" x="354.73582" y="394.5501" width="12.69467" height="3.79531" rx="1.89765"/>
        </g>
      </g>
    </g>
    <g>
      <circle class="cls-35" cx="60.47452" cy="157.31941" r="51.44097"/>
      <g>
        <rect class="cls-48" x="56.28747" y="128.74047" width="11.16548" height="57.15788" transform="translate(-93.12026 89.82663) rotate(-45)"/>
        <rect class="cls-48" x="56.28747" y="128.74047" width="11.16548" height="57.15788" transform="translate(-5.62257 312.30988) rotate(-135)"/>
      </g>
    </g>
  </g>
  <g>
    <g>
      <polygon class="cls-49" points="726.702 250.248 726.742 340.95 649.462 296.196 649.423 205.494 726.702 250.248"/>
      <polygon class="cls-50" points="723.396 248.339 723.427 326.967 659.874 290.139 659.843 211.511 723.396 248.339"/>
      <polygon class="cls-51" points="712.04 256.996 712.061 310.3 668.976 285.333 668.955 232.029 712.04 256.996"/>
      <path class="cls-52" d="M722.40439,333.44376l-68.61231-39.74951-.03221-80.69349,68.61234,39.74951.03218,80.69349m4.33729,7.50629-.03922-90.70187-77.27987-44.75372.03924,90.70188L726.74168,340.95Z"/>
      <polygon class="cls-53" points="654.313 202.663 731.593 247.417 726.702 250.248 649.423 205.494 654.313 202.663"/>
      <polygon class="cls-54" points="731.593 247.417 731.616 338.128 726.742 340.95 726.702 250.248 731.593 247.417"/>
    </g>
    <g>
      <polygon class="cls-55" points="791.951 320.885 791.99 379.587 738.959 348.833 738.92 290.132 791.951 320.885"/>
      <polygon class="cls-56" points="788.645 318.976 788.675 365.605 749.371 342.776 749.34 296.148 788.645 318.976"/>
      <path class="cls-57" d="M787.65305,372.08082l-44.3636-25.7495-.0322-48.69349,44.36362,25.74951.03218,48.69348m4.33729,7.5063-.03922-58.70187L738.92,290.13153l.03924,58.70188,53.03114,30.75371Z"/>
      <polygon class="cls-58" points="743.811 287.3 796.842 318.054 791.951 320.885 738.92 290.132 743.811 287.3"/>
      <polygon class="cls-59" points="796.842 318.054 796.865 376.765 791.99 379.587 791.951 320.885 796.842 318.054"/>
    </g>
  </g>
  <g>
    <g>
      <g>
        <g>
          <path class="cls-60" d="M826.78027,462.87862l-220.83016-130.629a3.36625,3.36625,0,0,0-3.67168.14533v-.00014L581.79957,344.2404,602.827,356.53994v98.8145l228.9556,120.32948V471.64662A10.18549,10.18549,0,0,0,826.78027,462.87862Z"/>
          <path class="cls-61" d="M580.19254,347.12619v121.3385L811.14788,587.63781V483.60057a10.18534,10.18534,0,0,0-5.00238-8.768l-220.8302-130.629A3.39512,3.39512,0,0,0,580.19254,347.12619Z"/>
          <path class="cls-62" d="M811.14772,483.60057V597.5402L475.86507,655.128l-11.02292,231.778a21.197,21.197,0,0,0,10.66553-2.83568L826.51319,681.26153a10.88259,10.88259,0,0,0,5.26646-9.71059l.003-75.53417V471.64666Z"/>
          <path class="cls-63" d="M475.86516,655.12806l-11.02292,231.778a21.0543,21.0543,0,0,1-10.5068-2.83566L240.938,760.93138a10.45041,10.45041,0,0,1-5.27991-9.00434V675.6761Z"/>
          <g>
            <path class="cls-64" d="M811.14788,575.99534v39.837l-.01059-.01059a10.47113,10.47113,0,0,1-5.25866,9.618L475.50481,816.08583a21.09114,21.09114,0,0,1-10.66554,2.83567L475.8622,622.74266Z"/>
            <path class="cls-65" d="M811.14788,591.77187v39.837l-.01059-.01059a10.47112,10.47112,0,0,1-5.25866,9.618L475.50481,831.86236a21.09094,21.09094,0,0,1-10.66554,2.83567L475.8622,638.51919Z"/>
            <path class="cls-66" d="M475.8622,638.51919,464.83927,834.698a21.07407,21.07407,0,0,1-10.49621-2.83567l-213.39747-123.139a10.48748,10.48748,0,0,1-5.29044-9.17366V658.91915Z"/>
            <path class="cls-45" d="M710.57954,577.761l-234.71042,38.2268L464.8462,812.16025a21.08451,21.08451,0,0,0,10.66079-2.83894L678.434,692.16l127.43815-73.48266a10.46554,10.46554,0,0,0,5.26072-9.60862h.02V569.22444Z"/>
            <path class="cls-45" d="M475.8622,615.98129,464.83927,812.16013a21.07417,21.07417,0,0,1-10.49621-2.83567l-213.39747-123.139a10.48748,10.48748,0,0,1-5.29044-9.17366V636.38125Z"/>
            <path class="cls-44" d="M805.87632,560.14785,592.54744,437.02461a21.16192,21.16192,0,0,0-21.16285-.00061L438.273,513.76789h0L240.94261,627.65543a10.43393,10.43393,0,0,0-4.95979,6.5147,10.75861,10.75861,0,0,0-.33065,2.64879,10.48162,10.48162,0,0,0,5.29066,9.16328l149.61336,86.37533,63.78354,36.76387a21.1469,21.1469,0,0,0,9.21292,2.79073q.68386.04425,1.36928.04419a21.14744,21.14744,0,0,0,10.58175-2.83652L805.877,578.47341A10.5809,10.5809,0,0,0,805.87632,560.14785Z"/>
            <path class="cls-45" d="M698.47872,538.40069s-15.06383,48.83335-24.383,55.344-25.78332-.383-25.78332-.383l-16.472,24.51064-19.40426-26.10047L663.117,527.24372l37.05518-2.84145Z"/>
          </g>
        </g>
        <path class="cls-67" d="M826.51319,456.29562V681.26153l-5.96382,3.44875V456.29562a7.4664,7.4664,0,0,0-3.65566-6.41674L590.54181,315.98276a.44362.44362,0,0,0-.49788,0,.453.453,0,0,0-.24894.43006V339.624l-5.9641,3.44042v-26.6516a6.453,6.453,0,0,1,9.74408-5.55671L819.92688,444.75223A13.462,13.462,0,0,1,826.51319,456.29562Z"/>
      </g>
      <path class="cls-68" d="M799.03351,677.73211l-304.87339,176.134a10.18533,10.18533,0,0,0-5.08647,8.81718v13.54219L804.11784,694.21226l.0104-13.53848A3.39511,3.39511,0,0,0,799.03351,677.73211Z"/>
    </g>
    <g>
      <path class="cls-36" d="M601.32022,465.23828l114.44642,73.16241,39.10652-19.21576s18.893-39.43105,15.7604-56.638-102.99385-74.47763-115.21864-70.35176-23.58831,33.00693-23.58831,33.00693Z"/>
      <g>
        <path class="cls-69" d="M687.33422,442.46906s5.83183-4.61647,13.03538,2.3726,5.92212,19.344,10.32378,26.98594,19.53133,14.25356,19.51776,31.71868c-.01943,25.02146-23.33842,34.21467-36.268,35.2313-10.51544.82681-28.33467-1.79777-35.45686-16.097s6.27352-34.8456,9.12857-51.171c3.17485-18.154,11.529-22.58581,11.529-22.58581Z"/>
        <ellipse class="cls-70" cx="683.09563" cy="446.55762" rx="10.19136" ry="6.2645" transform="translate(-123.31951 571.96884) rotate(-42.01336)"/>
      </g>
      <g>
        <path class="cls-71" d="M568.40509,469.99354c-11.06384,6.12756-16.65959,13.12756-18.72339,16.49585-4.71642,7.6976-1.04839,17.62926,5.53193,19.09644,10.89358,2.42888,27.60472-5.34734,29.40421-6.06048l10.5646-6.35407,39.93792-45.76612C616.6604,443.28309,579.46894,463.866,568.40509,469.99354Z"/>
        <path class="cls-72" d="M592.62879,494.70716l10.51281-24.05859-33.95575,34.19067a95.0901,95.0901,0,0,0,15.432-5.314Z"/>
        <path class="cls-73" d="M658.9658,458.317c-26.73491-18.32463-41.36923-13.19145-51.41178,8.6802-11.57447,7.78594-22.7331,30.00093-29.87235,44.86861l-24,19.16882c-22.21276,14.29787,40.86349,107.67183,76.42554,65.42692L651.89444,565.644l35.79015-22.89072,17.558-35.56831C704.15241,481.202,679.32916,472.27441,658.9658,458.317Z"/>
        <path class="cls-72" d="M635.29148,514.31988l-11.62186,7.4942a10.99506,10.99506,0,0,0-4.546,12.48786L635.835,588.35975l16.05939-22.71582,8.82483-5.644,6.15393-7.45313,2.21277-36.34057L657.171,527.24379l-6.88-9.94071A10.99507,10.99507,0,0,0,635.29148,514.31988Z"/>
        <g>
          <path class="cls-74" d="M642.95338,472.96989c-1.42727,17.9095,35.02527,15.32313,35.68806,1.79291l.26871-18.56324c.18053-17.50209-32.747-13.1261-34.47268,1.37487Z"/>
          <ellipse class="cls-75" cx="662.13882" cy="455.89055" rx="14.75756" ry="9.40213" transform="translate(-82.05675 151.85609) rotate(-12.32585)"/>
        </g>
        <polygon class="cls-76" points="659.6 550.54 668.408 560.115 676.961 549.902 672.023 522.713 659.6 550.54"/>
      </g>
      <path class="cls-77" d="M437.46739,506.02659c115.49275-11.65124,170.06282,24.4902,195.18741,86.38091,16.636,40.98036,45.57221,83.20332,46.99466,96.872,2.3062,22.161-7.88389,39.46223-38.25123,43.39929-50.47695,43.434-114.67593,78.13542-168.26171,91.27845a26.23376,26.23376,0,0,1-13.56622-.22933c-91.63713-26.58666-189.6181-86.3991-229.52133-125.85016a26.4868,26.4868,0,0,1-7.26187-24.3257c2.76037-13.09666,7.61755-32.46917,13.97248-43.15123,7.10971-11.95078,99.50236-66.30169,156.96819-99.36619C395.32372,518.60912,419.018,507.01459,437.46739,506.02659Z"/>
      <path class="cls-72" d="M393.72782,531.0346s80.56674.01945,116.68876,7.93555c39.0509,8.558,68.619,28.99281,86.99191,62.61547s44.55916,132.65725,44.55916,132.65725-49.31415-97.65828-65.96944-121.05693C551.56157,578.85541,519.74847,563.084,482.934,553.1647S378.86552,539.626,378.86552,539.626Z"/>
      <g>
        <ellipse class="cls-45" cx="743.01227" cy="561.40741" rx="29.2545" ry="17.02924"/>
        <g>
          <g>
            <path class="cls-78" d="M742.914,517.32713c18.79185,0,34.0257,8.8677,34.0257,19.80658s-8.08873,36.32286-34.0257,36.32286-34.02571-25.384-34.02571-36.32286S724.12215,517.32713,742.914,517.32713Z"/>
            <ellipse class="cls-10" cx="743.01227" cy="537.13371" rx="32.95282" ry="19.18205"/>
            <path class="cls-31" d="M742.914,520.61293c16.66275,0,30.74,7.56563,30.74,16.5208s-14.07722,16.5208-30.74,16.5208c-16.66269,0-30.7398-7.56562-30.7398-16.5208s14.07711-16.5208,30.7398-16.5208m0-3.28579c-18.79182,0-34.02563,8.86764-34.02563,19.80659,0,10.93888,15.23381,19.80659,34.02563,19.80659,18.792,0,34.02575-8.86771,34.02575-19.80659,0-10.93895-15.2338-19.80659-34.02575-19.80659Z"/>
          </g>
          <path class="cls-79" d="M771.63123,537.27627a6.5726,6.5726,0,0,0-7.008-9.19351,6.60295,6.60295,0,0,0-9.74813-5.18623,6.59775,6.59775,0,0,0-11.70594-1.97322,6.5966,6.5966,0,0,0-11.40408,1.15285,6.5953,6.5953,0,0,0-10.94432,4.87c-.10838-.00531-.21526-.0164-.325-.0164a6.59917,6.59917,0,0,0-5.86241,9.64126,7.43441,7.43441,0,0,0-1.43853,4.022c0,.24647.01633.49286.03279.72287,3.54877,7.01527,15.7062,12.33826,29.68736,12.33826,13.98123,0,26.13879-5.323,29.68737-12.33826.01646-.23.03291-.4764.03291-.72287A6.90916,6.90916,0,0,0,771.63123,537.27627Z"/>
          <path class="cls-80" d="M758.37731,543.3982c-.22857,3.19986-5.90805,4.31934-8.36534,2.87987-1.18853,3.61127-7.10805,4.153-9.43958,1.78278-1.6228,2.46846-6.43035,2.88636-8.251.48-2.10284,2.217-6.27167,1.93149-9.93853.76274a47.61745,47.61745,0,0,0,20.53221,4.35058c13.98109,0,26.13866-5.323,29.68737-12.33826.01639-.23.03278-.47641.03278-.72287a6.90967,6.90967,0,0,0-1.004-3.31674c-.40883,1.77927-3.92873,3.85917-6.24467,2.95108C764.777,542.59824,760.57155,544.26672,758.37731,543.3982Z"/>
        </g>
      </g>
      <circle class="cls-81" cx="570.40508" cy="481.56791" r="9.40426"/>
      <path class="cls-82" d="M669.08594,516.20619,658.17,540.24876l-14.19042-22.46809c-3.41472-4.6748-23.80851,4.32412-20.50388,12.6383,0,0,13.61027,35.87242,22.9365,47.39317,6.89014,8.51172,17.054,6.09961,22.52484,1.24512,2.69416-2.39038,36.306-55.66211,36.30561-71.87231C703.31147,495.14247,679.08594,496.14247,669.08594,516.20619Z"/>
      <path class="cls-81" d="M642.69341,519.614l-6.5505-9.60793c-2.65309-4.78508-16.92491,3.37693-14.27182,8.162l5.33531,10.64647C631.11144,535.20568,647.11385,526.32273,642.69341,519.614Z"/>
      <g>
        <polygon class="cls-83" points="628.18 496.465 621.895 493.032 622.839 495.812 628.18 496.465"/>
        <path class="cls-75" d="M624.06465,516.802l-38.53347-22.05228a12.23851,12.23851,0,0,1-5.448-6.50961l-10.763-30.64191a3.11022,3.11022,0,0,1,4.47422-3.74455l40.46707,23.15886a11.09808,11.09808,0,0,1,4.94032,5.903l10.29778,29.33793A3.778,3.778,0,0,1,624.06465,516.802Z"/>
        <path class="cls-83" d="M582.44538,482.478c-.63079,6.78714-5.42032,8.31082-9.8041,7.29771-4.70244-1.08674-7.01535-6.04006-7.5236-12.80224-.52446-6.978,1.91425-13.31553,6.97646-10.11884C581.558,472.83088,583.07616,475.69083,582.44538,482.478Z"/>
        <path class="cls-83" d="M637.08836,512.15017c2.99052,7.56523-8.10825,14.06711-12.59656,9.98508,0,0-8.28452-4.26253-10.82973-6.76111s-4.79707-10.89956-4.209-15.25183a7.3053,7.3053,0,0,1,5.29953-6.18734c2.76915-.87573,9.84307,1.02858,12.35669,1.98709C632.5593,498.00028,637.08836,512.15017,637.08836,512.15017Z"/>
      </g>
      <g>
        <path class="cls-69" d="M640.07458,425.46744c-1.63955-10.67827,2.18493-23.4943,20.85724-26.17346,24.75373-3.55173,35.378,19.35536,31.13209,35.58045a30.11759,30.11759,0,0,1-12.59572,17.813l-6.96372,5.21441c-1.39649-3.15137.76767-12.49317.76767-12.49317S642.81122,443.29089,640.07458,425.46744Z"/>
        <g>
          <path class="cls-83" d="M684.53215,424.04934c2.44815-9.1734-5.49811-19.43178-16.37339-21.34072-9.50486-1.6684-20.69389,4.46391-22.5472,14.99234a216.08593,216.08593,0,0,0-2.42394,23.56867c-.31014,10.54692,2.5342,22.52369,13.28725,21.96462,11.83237-.61518,20.09956-5.70913,22.62807-16.29331Z"/>
          <path class="cls-69" d="M647.08658,411.80032l-3.92337,15.20095c2.0873-.05216,3.43655-1.49358,6.916-7.75511-1.64706,10.67344,10.09029,16.85579,19.76247,15.94176,0,0-.856,4.01029,1.02433,6.72182,2.043,2.94605,7.93445,5.18771,11.221,1.1292C698.10106,399.66505,657.258,391.14094,647.08658,411.80032Z"/>
          <path class="cls-83" d="M675.029,452.07723c3.87961.2147,7.44524-5.02161,7.68886-9.424s-3.36307-8.31835-6.80661-6.51848C671.58851,438.39416,671.14939,451.86253,675.029,452.07723Z"/>
        </g>
      </g>
    </g>
  </g>
</svg>
