<svg id="Layer_1" data-name="Layer 1" xmlns="http://www.w3.org/2000/svg" xmlns:xlink="http://www.w3.org/1999/xlink" viewBox="0 0 1000 1000">
  <defs>
    <style>
      .cls-1 {
        fill: url(#linear-gradient);
      }

      .cls-2 {
        fill: #b8cbd8;
      }

      .cls-3 {
        fill: url(#linear-gradient-2);
      }

      .cls-4, .cls-50 {
        fill: #9bb0c4;
      }

      .cls-14, .cls-21, .cls-26, .cls-4, .cls-83 {
        opacity: 0.5;
      }

      .cls-5 {
        fill: #f0f9fc;
      }

      .cls-6 {
        fill: url(#linear-gradient-3);
      }

      .cls-7 {
        fill: url(#linear-gradient-4);
      }

      .cls-8 {
        fill: url(#linear-gradient-5);
      }

      .cls-9 {
        fill: url(#linear-gradient-6);
      }

      .cls-10 {
        fill: url(#linear-gradient-7);
      }

      .cls-11 {
        fill: url(#linear-gradient-8);
      }

      .cls-12 {
        fill: #e58630;
      }

      .cls-13 {
        fill: url(#linear-gradient-9);
      }

      .cls-15 {
        fill: url(#linear-gradient-10);
      }

      .cls-16 {
        fill: #748ca3;
      }

      .cls-17 {
        fill: #586c7f;
      }

      .cls-18 {
        fill: url(#linear-gradient-11);
      }

      .cls-19 {
        fill: #34a521;
      }

      .cls-20 {
        fill: #e4ecf2;
      }

      .cls-21 {
        fill: url(#linear-gradient-12);
      }

      .cls-22, .cls-26 {
        fill: #fff;
      }

      .cls-23 {
        fill: url(#linear-gradient-13);
      }

      .cls-24 {
        fill: url(#linear-gradient-14);
      }

      .cls-25 {
        fill: url(#linear-gradient-15);
      }

      .cls-27 {
        fill: url(#linear-gradient-16);
      }

      .cls-28 {
        fill: url(#linear-gradient-17);
      }

      .cls-29 {
        fill: url(#linear-gradient-18);
      }

      .cls-30 {
        fill: url(#linear-gradient-19);
      }

      .cls-31 {
        fill: url(#linear-gradient-20);
      }

      .cls-32 {
        fill: url(#linear-gradient-21);
      }

      .cls-33 {
        fill: url(#linear-gradient-22);
      }

      .cls-34 {
        fill: url(#linear-gradient-23);
      }

      .cls-35, .cls-36 {
        fill: none;
        stroke-miterlimit: 10;
        stroke-width: 5px;
      }

      .cls-35 {
        stroke: url(#linear-gradient-24);
      }

      .cls-36 {
        stroke: url(#linear-gradient-25);
      }

      .cls-37 {
        fill: url(#linear-gradient-26);
      }

      .cls-38 {
        fill: url(#linear-gradient-27);
      }

      .cls-39 {
        fill: url(#linear-gradient-28);
      }

      .cls-40 {
        fill: url(#linear-gradient-29);
      }

      .cls-41 {
        fill: url(#linear-gradient-30);
      }

      .cls-42 {
        fill: url(#linear-gradient-31);
      }

      .cls-43 {
        fill: url(#linear-gradient-32);
      }

      .cls-44 {
        fill: url(#linear-gradient-33);
      }

      .cls-45 {
        fill: url(#linear-gradient-34);
      }

      .cls-46 {
        fill: url(#linear-gradient-35);
      }

      .cls-47 {
        fill: url(#linear-gradient-36);
      }

      .cls-48 {
        fill: url(#linear-gradient-37);
      }

      .cls-49 {
        fill: #ffcb48;
      }

      .cls-51 {
        fill: url(#linear-gradient-38);
      }

      .cls-52 {
        fill: url(#linear-gradient-39);
      }

      .cls-53 {
        fill: url(#linear-gradient-40);
      }

      .cls-54 {
        fill: url(#linear-gradient-41);
      }

      .cls-55 {
        fill: #541510;
        opacity: 0.3;
      }

      .cls-56 {
        fill: url(#linear-gradient-42);
      }

      .cls-57 {
        fill: url(#linear-gradient-43);
      }

      .cls-58 {
        fill: #bcd0e2;
      }

      .cls-59 {
        fill: url(#linear-gradient-44);
      }

      .cls-60 {
        fill: #e9f1f4;
      }

      .cls-61 {
        fill: url(#linear-gradient-45);
      }

      .cls-62 {
        fill: url(#linear-gradient-46);
      }

      .cls-63 {
        fill: url(#linear-gradient-47);
      }

      .cls-64 {
        fill: url(#linear-gradient-48);
      }

      .cls-65 {
        fill: url(#linear-gradient-49);
      }

      .cls-66 {
        opacity: 0.4;
        fill: url(#linear-gradient-50);
      }

      .cls-67 {
        fill: url(#linear-gradient-51);
      }

      .cls-68 {
        fill: url(#linear-gradient-52);
      }

      .cls-69 {
        fill: url(#linear-gradient-53);
      }

      .cls-70 {
        fill: url(#linear-gradient-54);
      }

      .cls-71 {
        fill: url(#linear-gradient-55);
      }

      .cls-72 {
        fill: url(#linear-gradient-56);
      }

      .cls-73 {
        fill: url(#linear-gradient-57);
      }

      .cls-74 {
        fill: url(#linear-gradient-58);
      }

      .cls-75 {
        fill: #473634;
      }

      .cls-76 {
        fill: #a05452;
      }

      .cls-77 {
        fill: #27343d;
      }

      .cls-78 {
        fill: #303d49;
      }

      .cls-79, .cls-83 {
        fill: #dd7b19;
      }

      .cls-80 {
        fill: url(#linear-gradient-59);
      }

      .cls-81 {
        fill: #ffcd5c;
      }

      .cls-82 {
        fill: url(#linear-gradient-60);
      }

      .cls-84 {
        fill: url(#linear-gradient-61);
      }

      .cls-85 {
        fill: url(#linear-gradient-62);
      }
    </style>
    <linearGradient id="linear-gradient" x1="524.52355" y1="396.22833" x2="931.16979" y2="396.22833" gradientUnits="userSpaceOnUse">
      <stop offset="0" stop-color="#e4edf2"/>
      <stop offset="1" stop-color="#c3d6e6"/>
    </linearGradient>
    <linearGradient id="linear-gradient-2" x1="117.89298" y1="711.22041" x2="931.16979" y2="711.22041" gradientUnits="userSpaceOnUse">
      <stop offset="0.00663" stop-color="#c4d5e6"/>
      <stop offset="1" stop-color="#dae9f2"/>
    </linearGradient>
    <linearGradient id="linear-gradient-3" x1="888.57995" y1="450.58926" x2="902.59319" y2="450.58926" gradientTransform="translate(345.28048 -387.42577) rotate(30)" gradientUnits="userSpaceOnUse">
      <stop offset="0" stop-color="#849bb2"/>
      <stop offset="1" stop-color="#5b6f82"/>
    </linearGradient>
    <linearGradient id="linear-gradient-4" x1="318.84019" y1="183.43889" x2="312.71253" y2="506.67293" gradientUnits="userSpaceOnUse">
      <stop offset="0" stop-color="#293440"/>
      <stop offset="1" stop-color="#3e4c59"/>
    </linearGradient>
    <linearGradient id="linear-gradient-5" x1="145.13283" y1="390.75852" x2="488.47555" y2="390.75852" gradientUnits="userSpaceOnUse">
      <stop offset="0" stop-color="#5b6f82"/>
      <stop offset="1" stop-color="#849bb2"/>
    </linearGradient>
    <linearGradient id="linear-gradient-6" x1="506.84926" y1="287.74017" x2="132.95225" y2="490.41897" gradientUnits="userSpaceOnUse">
      <stop offset="0" stop-color="#62778c"/>
      <stop offset="1" stop-color="#435466"/>
    </linearGradient>
    <linearGradient id="linear-gradient-7" x1="439.80984" y1="319.99414" x2="301.33152" y2="395.05924" xlink:href="#linear-gradient-6"/>
    <linearGradient id="linear-gradient-8" x1="328.34103" y1="384.34656" x2="189.86272" y2="459.41167" xlink:href="#linear-gradient-6"/>
    <linearGradient id="linear-gradient-9" x1="147.22103" y1="327.66025" x2="322.62528" y2="563.57514" gradientUnits="userSpaceOnUse">
      <stop offset="0.00005" stop-color="#ffcb48"/>
      <stop offset="1" stop-color="#e68e2b"/>
    </linearGradient>
    <linearGradient id="linear-gradient-10" x1="324.9499" y1="225.01703" x2="500.35415" y2="460.93192" xlink:href="#linear-gradient-9"/>
    <linearGradient id="linear-gradient-11" x1="-63.91738" y1="234.66122" x2="499.9014" y2="234.66122" xlink:href="#linear-gradient-5"/>
    <linearGradient id="linear-gradient-12" x1="106.62266" y1="296.0483" x2="421.71458" y2="296.0483" gradientUnits="userSpaceOnUse">
      <stop offset="0" stop-color="#748ea6"/>
      <stop offset="1" stop-color="#96b1cc"/>
    </linearGradient>
    <linearGradient id="linear-gradient-13" x1="142.31662" y1="262.3569" x2="321.24481" y2="262.3569" xlink:href="#linear-gradient-12"/>
    <linearGradient id="linear-gradient-14" x1="132.16158" y1="257.00218" x2="170.97009" y2="341.00218" xlink:href="#linear-gradient-9"/>
    <linearGradient id="linear-gradient-15" x1="4353.05685" y1="3250.90476" x2="4353.05685" y2="3338.03103" gradientTransform="matrix(0.0351, 0.99938, 0.99938, -0.0351, -3265.34353, -3971.39328)" xlink:href="#linear-gradient-6"/>
    <linearGradient id="linear-gradient-16" x1="213.95096" y1="225.45033" x2="241.86586" y2="301.36523" xlink:href="#linear-gradient-6"/>
    <linearGradient id="linear-gradient-17" x1="216.92843" y1="233.54759" x2="238.71883" y2="292.80686" gradientUnits="userSpaceOnUse">
      <stop offset="0" stop-color="#96b1cc"/>
      <stop offset="1" stop-color="#748ea6"/>
    </linearGradient>
    <linearGradient id="linear-gradient-18" x1="320.30187" y1="318.8215" x2="395.32838" y2="318.8215" xlink:href="#linear-gradient-6"/>
    <linearGradient id="linear-gradient-19" x1="59.71562" y1="318.8215" x2="134.74212" y2="318.8215" xlink:href="#linear-gradient-6"/>
    <linearGradient id="linear-gradient-20" x1="474.78913" y1="212.63531" x2="569.98477" y2="212.63531" xlink:href="#linear-gradient"/>
    <linearGradient id="linear-gradient-21" x1="561.76556" y1="222.07017" x2="561.76556" y2="554.12855" gradientUnits="userSpaceOnUse">
      <stop offset="0" stop-color="#fff"/>
      <stop offset="0.56988" stop-color="#fff" stop-opacity="0"/>
    </linearGradient>
    <linearGradient id="linear-gradient-22" x1="495.87155" y1="175.08368" x2="533.49411" y2="234.65274" xlink:href="#linear-gradient-6"/>
    <linearGradient id="linear-gradient-23" x1="511.38616" y1="165.28498" x2="549.00872" y2="224.85403" xlink:href="#linear-gradient-6"/>
    <linearGradient id="linear-gradient-24" x1="8918.64141" y1="475.38618" x2="8985.44226" y2="505.90608" gradientTransform="translate(-8377.35491)" gradientUnits="userSpaceOnUse">
      <stop offset="0" stop-color="#3e4c59"/>
      <stop offset="1" stop-color="#293440"/>
    </linearGradient>
    <linearGradient id="linear-gradient-25" x1="8852.10833" y1="429.3766" x2="8927.59114" y2="463.8631" xlink:href="#linear-gradient-24"/>
    <linearGradient id="linear-gradient-26" x1="725.79129" y1="370.69237" x2="848.38364" y2="457.02501" gradientTransform="translate(-242.3977)" xlink:href="#linear-gradient-6"/>
    <linearGradient id="linear-gradient-27" x1="725.44049" y1="384.08754" x2="858.02968" y2="527.97941" gradientTransform="translate(-242.3977)" gradientUnits="userSpaceOnUse">
      <stop offset="0" stop-color="#62788c"/>
      <stop offset="1" stop-color="#526575"/>
    </linearGradient>
    <linearGradient id="linear-gradient-28" x1="712.36069" y1="366.00754" x2="792.51683" y2="491.05112" gradientTransform="translate(-242.3977)" xlink:href="#linear-gradient-17"/>
    <linearGradient id="linear-gradient-29" x1="719.03322" y1="407.07872" x2="847.20137" y2="407.07872" gradientTransform="translate(-242.3977)" gradientUnits="userSpaceOnUse">
      <stop offset="0" stop-color="#526575"/>
      <stop offset="1" stop-color="#62788c"/>
    </linearGradient>
    <linearGradient id="linear-gradient-30" x1="719.03317" y1="386.31293" x2="847.20133" y2="386.31293" gradientTransform="translate(-242.3977)" xlink:href="#linear-gradient-17"/>
    <linearGradient id="linear-gradient-31" x1="515.48108" y1="385.56455" x2="565.95809" y2="385.56455" xlink:href="#linear-gradient-6"/>
    <linearGradient id="linear-gradient-32" x1="515.48107" y1="381.7186" x2="565.95811" y2="381.7186" gradientTransform="matrix(1, 0, 0, 1, 0, 0)" xlink:href="#linear-gradient-3"/>
    <linearGradient id="linear-gradient-33" x1="540.37866" y1="341.10846" x2="541.05072" y2="378.29591" xlink:href="#linear-gradient-6"/>
    <linearGradient id="linear-gradient-34" x1="506.77663" y1="333.73917" x2="574.66259" y2="333.73917" xlink:href="#linear-gradient-6"/>
    <linearGradient id="linear-gradient-35" x1="506.32123" y1="328.76338" x2="575.118" y2="328.76338" gradientUnits="userSpaceOnUse">
      <stop offset="0.00844" stop-color="#ffc63f"/>
      <stop offset="1" stop-color="#e68a23"/>
    </linearGradient>
    <linearGradient id="linear-gradient-36" x1="533.30186" y1="315.9837" x2="548.13722" y2="315.9837" gradientTransform="matrix(1, 0, 0, 1, 0, 0)" xlink:href="#linear-gradient-24"/>
    <linearGradient id="linear-gradient-37" x1="533.30187" y1="310.26008" x2="548.1373" y2="310.26008" xlink:href="#linear-gradient-6"/>
    <linearGradient id="linear-gradient-38" x1="643.53591" y1="346.56832" x2="823.20212" y2="581.85873" xlink:href="#linear-gradient-6"/>
    <linearGradient id="linear-gradient-39" x1="626.03515" y1="359.75835" x2="804.14735" y2="593.01364" gradientTransform="matrix(1, 0, 0, 1, 0, 0)" xlink:href="#linear-gradient-27"/>
    <linearGradient id="linear-gradient-40" x1="449.07954" y1="588.499" x2="875.13355" y2="702.89406" xlink:href="#linear-gradient-6"/>
    <linearGradient id="linear-gradient-41" x1="320.48162" y1="596.40699" x2="714.05142" y2="846.97161" gradientTransform="matrix(1, 0, 0, 1, 0, 0)" xlink:href="#linear-gradient-27"/>
    <linearGradient id="linear-gradient-42" x1="336.73517" y1="663.74094" x2="883.15807" y2="693.30152" gradientTransform="matrix(1, 0, 0, 1, 0, 0)" xlink:href="#linear-gradient-24"/>
    <linearGradient id="linear-gradient-43" x1="335.66165" y1="683.58489" x2="882.08455" y2="713.14548" gradientTransform="matrix(1, 0, 0, 1, 0, 0)" xlink:href="#linear-gradient-24"/>
    <linearGradient id="linear-gradient-44" x1="358.82584" y1="540.79097" x2="530.81469" y2="722.63335" xlink:href="#linear-gradient-9"/>
    <linearGradient id="linear-gradient-45" x1="520.3241" y1="498.38123" x2="533.76073" y2="744.71943" xlink:href="#linear-gradient-9"/>
    <linearGradient id="linear-gradient-46" x1="637.97778" y1="306.89848" x2="880.15229" y2="624.04962" gradientUnits="userSpaceOnUse">
      <stop offset="0" stop-color="#596c80"/>
      <stop offset="0.99886" stop-color="#3a4959"/>
    </linearGradient>
    <linearGradient id="linear-gradient-47" x1="669.74196" y1="716.15226" x2="696.16876" y2="757.37807" gradientTransform="matrix(1, 0, 0, 1, 0, 0)" xlink:href="#linear-gradient-24"/>
    <linearGradient id="linear-gradient-48" x1="712.50986" y1="359.48261" x2="789.82893" y2="359.48261" gradientTransform="translate(-18.64021 -32.28579)" gradientUnits="userSpaceOnUse">
      <stop offset="0" stop-color="#435466"/>
      <stop offset="1" stop-color="#62778c"/>
    </linearGradient>
    <linearGradient id="linear-gradient-49" x1="722.93005" y1="355.49936" x2="786.51402" y2="355.49936" gradientTransform="translate(-18.64021 -32.28579)" gradientUnits="userSpaceOnUse">
      <stop offset="0" stop-color="#fff"/>
      <stop offset="0.98888" stop-color="#e6edf2"/>
    </linearGradient>
    <linearGradient id="linear-gradient-50" x1="732.04235" y1="357.42479" x2="775.14781" y2="357.42479" gradientTransform="translate(-18.64021 -32.28579)" xlink:href="#linear-gradient-6"/>
    <linearGradient id="linear-gradient-51" x1="712.50984" y1="359.4826" x2="789.82894" y2="359.4826" gradientTransform="translate(-18.64021 -32.28579)" xlink:href="#linear-gradient-3"/>
    <linearGradient id="linear-gradient-52" x1="729.47528" y1="280.83601" x2="808.97515" y2="385.9141" gradientTransform="translate(-18.64021 -32.28579)" xlink:href="#linear-gradient-6"/>
    <linearGradient id="linear-gradient-53" x1="698.01281" y1="255.88081" x2="815.89696" y2="411.69291" gradientTransform="translate(-18.64021 -32.28579)" xlink:href="#linear-gradient-6"/>
    <linearGradient id="linear-gradient-54" x1="812.5534" y1="348.69825" x2="786.87323" y2="288.47749" gradientTransform="translate(3.46411 6.00002)" xlink:href="#linear-gradient-48"/>
    <linearGradient id="linear-gradient-55" x1="746.01994" y1="253.6391" x2="785.3552" y2="253.6391" gradientTransform="translate(47.76727 82.73534)" xlink:href="#linear-gradient-49"/>
    <linearGradient id="linear-gradient-56" x1="735.59974" y1="257.62234" x2="788.67012" y2="257.62234" gradientTransform="translate(47.76727 82.73534)" xlink:href="#linear-gradient-3"/>
    <linearGradient id="linear-gradient-57" x1="747.936" y1="204.88243" x2="802.73144" y2="277.30771" gradientTransform="translate(47.76727 82.73534)" xlink:href="#linear-gradient-6"/>
    <linearGradient id="linear-gradient-58" x1="729.77753" y1="190.53688" x2="806.47833" y2="291.91534" gradientTransform="translate(47.76727 82.73534)" xlink:href="#linear-gradient-6"/>
    <linearGradient id="linear-gradient-59" x1="787.1373" y1="432.326" x2="718.59534" y2="529.29551" gradientTransform="matrix(-1, 0, 0, 1, 1628.3907, 0)" xlink:href="#linear-gradient-9"/>
    <linearGradient id="linear-gradient-60" x1="833.63741" y1="465.19416" x2="765.09545" y2="562.16367" gradientTransform="matrix(-1, 0, 0, 1, 1628.3907, 0)" xlink:href="#linear-gradient-9"/>
    <linearGradient id="linear-gradient-61" x1="860.59736" y1="484.25054" x2="792.0554" y2="581.22005" gradientTransform="matrix(-1, 0, 0, 1, 1628.3907, 0)" xlink:href="#linear-gradient-9"/>
    <linearGradient id="linear-gradient-62" x1="1079.46797" y1="-269.79769" x2="1092.42838" y2="-269.79769" gradientTransform="matrix(-0.10447, -0.99287, -0.97425, 0.06357, 690.37251, 1532.31069)" gradientUnits="userSpaceOnUse">
      <stop offset="0" stop-color="#ffc050"/>
      <stop offset="0.50022" stop-color="#fbb648"/>
      <stop offset="1" stop-color="#f5a83d"/>
    </linearGradient>
  </defs>
  <g>
    <g>
      <polygon class="cls-1" points="524.524 81.236 931.17 316.004 931.17 711.22 524.524 476.43 524.524 81.236"/>
      <polygon class="cls-2" points="524.539 81.236 117.893 316.004 117.893 711.22 524.539 476.43 524.539 81.236"/>
    </g>
    <path class="cls-3" d="M124.91012,723.3864l378.58059,218.564a42.10143,42.10143,0,0,0,42.1011-.00062L924.153,723.38232a14.03381,14.03381,0,0,0,.00017-24.307L545.57541,480.49136a42.10142,42.10142,0,0,0-42.10407.00053l-378.562,218.58744A14.03381,14.03381,0,0,0,124.91012,723.3864Z"/>
    <path class="cls-4" d="M828.59749,714.98587c-36.18863,0-65.52567,16.86023-65.52567,37.65837,0,17.2353,20.15433,31.75553,47.65149,36.22825l80.8289-46.66763C883.67446,726.48727,858.48144,714.98587,828.59749,714.98587Z"/>
  </g>
  <g>
    <path class="cls-5" d="M911.94193,441.46169l-.001,33.20418a2.93956,2.93956,0,0,1-4.40935,2.54567l-21.20631-12.24347a8.81868,8.81868,0,0,1-4.40935-7.63741l.001-33.20418a2.93956,2.93956,0,0,1,4.40935-2.54567l21.20631,12.24347A8.81868,8.81868,0,0,1,911.94193,441.46169Z"/>
    <ellipse class="cls-6" cx="895.58657" cy="450.58926" rx="5.7164" ry="9.91662" transform="translate(-105.30878 508.1608) rotate(-30)"/>
  </g>
  <g>
    <g>
      <path class="cls-7" d="M492.317,456.36969,148.96794,654.59929l-11.46524-6.61724V325.15794l343.34907-198.2411,11.46524-2.15873Z"/>
      <polygon class="cls-8" points="488.476 130.228 484.534 132.503 484.539 450.939 145.133 646.883 145.133 651.289 488.476 453.069 488.476 130.228"/>
      <path class="cls-9" d="M133.64483,321.83449v349.352l366.319-211.48426V110.32968Zm11.48824,6.63259L488.47555,130.22837l0,322.84092L145.13307,651.28867Z"/>
    </g>
    <polygon class="cls-10" points="373.071 515.291 368.071 518.178 368.071 199.762 373.071 196.875 373.071 515.291"/>
    <polygon class="cls-11" points="261.602 579.644 256.602 582.53 256.602 264.115 261.602 261.228 261.602 579.644"/>
    <g>
      <path class="cls-12" d="M317.32716,236.28326l-172.19409,99.549V649.23663a2.97181,2.97181,0,0,0,1.50513,2.60065l-.00025.00018,3.38843,1.94965-.40356-1.94727.01-.005,163.2008-94.2041a9,9,0,0,0,4.50074-7.79486l3.38391-311.60047Z"/>
      <path class="cls-13" d="M320.72542,551.78805l-.00712-313.55261-172.19412,99.549V651.18878a3,3,0,0,0,4.49976,2.59821l163.20076-94.2041A9,9,0,0,0,320.72542,551.78805Z"/>
      <g>
        <g class="cls-14">
          <polygon class="cls-12" points="170.336 643.766 168.037 645.094 168.037 326.502 170.336 325.175 170.336 643.766"/>
        </g>
        <g class="cls-14">
          <polygon class="cls-12" points="192.148 631.157 189.848 632.484 189.848 313.893 192.148 312.565 192.148 631.157"/>
        </g>
        <g class="cls-14">
          <polygon class="cls-12" points="213.959 618.547 211.66 619.875 211.66 301.283 213.959 299.956 213.959 618.547"/>
        </g>
        <g class="cls-14">
          <polygon class="cls-12" points="235.771 605.938 233.472 607.265 233.472 288.674 235.771 287.346 235.771 605.938"/>
        </g>
        <g class="cls-14">
          <polygon class="cls-12" points="257.583 593.328 255.283 594.656 255.283 276.064 257.583 274.737 257.583 593.328"/>
        </g>
        <g class="cls-14">
          <polygon class="cls-12" points="279.394 580.718 277.095 582.046 277.095 263.455 279.394 262.127 279.394 580.718"/>
        </g>
        <g class="cls-14">
          <polygon class="cls-12" points="301.206 568.109 298.907 569.436 298.907 250.845 301.206 249.517 301.206 568.109"/>
        </g>
      </g>
    </g>
    <g>
      <path class="cls-12" d="M495.056,133.64l-172.19409,99.549V546.59341a2.97179,2.97179,0,0,0,1.50513,2.60065l-.00025.00018,3.38843,1.94965-.40356-1.94727.01-.005,163.2008-94.2041a9,9,0,0,0,4.50073-7.79486l3.38392-311.60047Z"/>
      <path class="cls-15" d="M498.45429,449.14483l-.00712-313.55262L326.253,235.14119V548.54556a3,3,0,0,0,4.49976,2.59821l163.20076-94.2041A9,9,0,0,0,498.45429,449.14483Z"/>
      <g>
        <g class="cls-14">
          <polygon class="cls-12" points="348.065 541.123 345.765 542.451 345.765 223.859 348.065 222.532 348.065 541.123"/>
        </g>
        <g class="cls-14">
          <polygon class="cls-12" points="369.876 528.513 367.577 529.841 367.577 211.25 369.876 209.922 369.876 528.513"/>
        </g>
        <g class="cls-14">
          <polygon class="cls-12" points="391.688 515.904 389.389 517.231 389.389 198.64 391.688 197.312 391.688 515.904"/>
        </g>
        <g class="cls-14">
          <polygon class="cls-12" points="413.5 503.294 411.2 504.622 411.2 186.03 413.5 184.703 413.5 503.294"/>
        </g>
        <g class="cls-14">
          <polygon class="cls-12" points="435.311 490.685 433.012 492.012 433.012 173.421 435.311 172.093 435.311 490.685"/>
        </g>
        <g class="cls-14">
          <polygon class="cls-12" points="457.123 478.075 454.824 479.403 454.824 160.811 457.123 159.484 457.123 478.075"/>
        </g>
        <g class="cls-14">
          <polygon class="cls-12" points="478.935 465.466 476.635 466.793 476.635 148.202 478.935 146.874 478.935 465.466"/>
        </g>
      </g>
    </g>
    <g>
      <path class="cls-16" d="M495.97884,126.90289v6.03443l-14.83479,8.56338v-6.91923a3.36189,3.36189,0,0,1,1.68117-2.91161l10.70616-6.18013A1.63171,1.63171,0,0,1,495.97884,126.90289Z"/>
      <path class="cls-17" d="M153.57458,324.85462v6.03443l-14.83479,8.56338V332.5332a3.36189,3.36189,0,0,1,1.68117-2.91161l10.70616-6.18013A1.63171,1.63171,0,0,1,153.57458,324.85462Z"/>
      <path class="cls-18" d="M503.71437,133.44725,141.08814,342.85233l-3.92586-6.7998,362.63941-209.4127.00179.00311a1.97732,1.97732,0,0,1,1.95074.20783,6.13755,6.13755,0,0,1,2.78517,4.8041A1.92625,1.92625,0,0,1,503.71437,133.44725Z"/>
      <ellipse class="cls-17" cx="139.12521" cy="339.45243" rx="2.26305" ry="3.92587" transform="translate(-151.08697 115.04061) rotate(-30)"/>
    </g>
  </g>
  <g>
    <g>
      <g>
        <path class="cls-19" d="M227.522,69.95177a191.74878,191.74878,0,1,1-74.8872,15.113,191.17959,191.17959,0,0,1,74.8872-15.113m0-17.54224c-115.95068,0-209.94726,93.99658-209.94726,209.94751,0,115.95069,93.99658,209.94727,209.94726,209.94727S437.46924,378.30773,437.46924,262.357c0-115.95093-93.99658-209.94751-209.94727-209.94751Z"/>
        <circle class="cls-20" cx="227.522" cy="262.35693" r="194.19259"/>
        <path class="cls-21" d="M106.62266,388.71927l59.994,58.07422a193.9851,193.9851,0,0,0,60.90544,9.75594c107.2495,0,194.19253-86.94291,194.19253-194.19253a193.96865,193.96865,0,0,0-10.0168-61.70881l-63.90546-65.10092Z"/>
      </g>
      <rect class="cls-22" x="96.23889" y="131.07382" width="262.56622" height="262.56622" rx="25.40683"/>
      <g>
        <circle class="cls-19" cx="407.87164" cy="147.25692" r="62.02326"/>
        <g>
          <rect class="cls-22" x="386.81485" y="138.61469" width="13.46241" height="40.4658" transform="translate(2.94477 324.80447) rotate(-45)"/>
          <rect class="cls-22" x="413.02568" y="121.43382" width="13.46241" height="60.59444" transform="translate(609.27978 555.83402) rotate(-135)"/>
        </g>
      </g>
    </g>
    <path class="cls-23" d="M227.522,163.62741a98.72949,98.72949,0,1,0,98.72974,98.72949A98.72942,98.72942,0,0,0,227.522,163.62741Zm0,177.82861A79.09912,79.09912,0,1,1,306.6211,262.3569,79.099,79.099,0,0,1,227.522,341.456Z"/>
    <path class="cls-24" d="M148.42237,262.36081a78.96129,78.96129,0,0,0,31.18994,62.93994l-10.16992,16.88989a98.55032,98.55032,0,0,1-40.65015-79.82983Z"/>
    <path class="cls-25" d="M138.5374,261.88044l68.559-16.36191,20.96572,16.1226-19.78282,17.55414-69.53808-11.51141A2.96205,2.96205,0,0,1,138.5374,261.88044Z"/>
    <path class="cls-26" d="M286.68433,341.4028l-10.38867-16.79858a79.02874,79.02874,0,0,1-96.67627.68457L169.44,342.19406a98.74115,98.74115,0,0,0,117.24438-.79126Z"/>
    <circle class="cls-27" cx="227.522" cy="262.35693" r="42.56481"/>
    <circle class="cls-28" cx="227.522" cy="262.35693" r="33.22615"/>
    <g>
      <circle class="cls-29" cx="357.81513" cy="318.8215" r="37.51325"/>
      <polygon class="cls-22" points="376.828 312.674 363.963 312.674 363.963 299.808 351.667 299.808 351.667 312.674 338.802 312.674 338.802 324.97 351.667 324.97 351.667 337.835 363.963 337.835 363.963 324.97 376.828 324.97 376.828 312.674"/>
    </g>
    <g>
      <circle class="cls-30" cx="97.22887" cy="318.8215" r="37.51325"/>
      <rect class="cls-22" x="78.21553" y="312.67362" width="38.02667" height="12.29612"/>
    </g>
  </g>
  <g>
    <circle class="cls-31" cx="522.38695" cy="212.63531" r="47.59782"/>
    <polygon class="cls-32" points="826.426 640.154 297.105 640.154 297.105 521.393 490.702 216.245 554.082 216.245 680.702 413.333 684.509 419.244 826.426 640.154"/>
    <g>
      <circle class="cls-22" cx="522.38695" cy="228.29656" r="14.18311"/>
      <path class="cls-33" d="M554.08061,216.24665c0,10.05973-14.18974,18.21475-31.69366,18.21475s-31.69365-8.155-31.69365-18.21475,31.69365-18.929,31.69365-18.929S554.08061,206.18693,554.08061,216.24665Z"/>
    </g>
    <rect class="cls-34" x="520.37146" y="165.03748" width="4.03099" height="35.33083"/>
  </g>
  <g>
    <g>
      <path class="cls-35" d="M548.52111,465.02322v76.9897a1.74094,1.74094,0,0,0,2.611,1.50791l48.82657-28.17015a5.22282,5.22282,0,0,0,2.61249-4.52372V437.33929"/>
      <path class="cls-36" d="M479.202,425.1117v76.9897a1.74094,1.74094,0,0,0,2.61106,1.5079l63.08066-36.39966a5.22281,5.22281,0,0,0,2.61249-4.52372V389.19826"/>
      <g>
        <path class="cls-37" d="M604.80363,398.221v41.964a3.498,3.498,0,0,1-1.74672,3.04229l-51.70209,29.89431a6.99685,6.99685,0,0,1-3.508.93164L533.5927,398.221Z"/>
        <path class="cls-38" d="M547.8468,398.221V474.0533a6.99722,6.99722,0,0,1-3.50838-.93164L478.397,434.99784a3.48239,3.48239,0,0,1-1.76148-3.04229v-41.964Z"/>
        <polygon class="cls-39" points="542.463 462.801 482.02 427.872 482.04 401.11 542.463 436.051 542.463 462.801"/>
        <path class="cls-40" d="M476.63551,382.19818v7.65773a3.47237,3.47237,0,0,0,1.75076,3.03443l65.95179,38.12776a7.01028,7.01028,0,0,0,7.017,0l51.69781-29.89825a3.47232,3.47232,0,0,0,1.75076-3.03442v-7.65774Z"/>
        <path class="cls-41" d="M603.05287,387.39327,537.101,349.26556a7.01,7.01,0,0,0-7.017,0l-51.69779,29.8982a3.505,3.505,0,0,0,0,6.06884l65.95189,38.12771a7.01,7.01,0,0,0,7.017,0l51.69779-29.8982A3.505,3.505,0,0,0,603.05287,387.39327Z"/>
      </g>
    </g>
    <g>
      <g>
        <path class="cls-42" d="M565.2579,382.21236c-2.62966-6.41617-12.6044-11.19641-24.53836-11.19641s-21.9087,4.78024-24.53827,11.19641h-.70019v3.35219c0,8.035,11.29961,14.5486,25.23846,14.5486s25.23855-6.51362,25.23855-14.5486v-3.35219Z"/>
        <ellipse class="cls-43" cx="540.71959" cy="381.7186" rx="25.23852" ry="14.54865"/>
      </g>
      <path class="cls-44" d="M537.41257,341.23614v37.46434c0,1.05282,1.4806,1.90631,3.307,1.90631s3.307-.85349,3.307-1.90631V341.23614Z"/>
      <path class="cls-45" d="M506.77663,308.42788V339.543c0,10.77367,15.19673,19.50744,33.943,19.50744s33.943-8.73377,33.943-19.50744V308.42788Z"/>
      <path class="cls-46" d="M506.32123,303.11249V334.6451c0,10.91822,15.40061,19.76917,34.39838,19.76917s34.39839-8.851,34.39839-19.76917V303.11249Z"/>
      <g>
        <ellipse class="cls-12" cx="540.71959" cy="303.11259" rx="34.3984" ry="19.76919"/>
        <path class="cls-47" d="M533.30186,320.87788a33.58129,33.58129,0,0,0,14.83536,0V310.26H533.30186Z"/>
        <ellipse class="cls-48" cx="540.71959" cy="310.26008" rx="7.41771" ry="4.27591"/>
        <path class="cls-49" d="M540.71957,285.03884c18.03247,0,32.70279,8.10781,32.70279,18.0737s-14.67032,18.07385-32.70279,18.07385-32.70278-8.108-32.70278-18.07385,14.67032-18.0737,32.70278-18.0737m0-1.69547c-18.99762,0-34.39838,8.851-34.39838,19.76917,0,10.91832,15.40076,19.76931,34.39838,19.76931s34.39839-8.851,34.39839-19.76931c0-10.91818-15.40076-19.76917-34.39839-19.76917Z"/>
      </g>
    </g>
  </g>
  <path class="cls-50" d="M316.42918,724.90815,522.76686,844.03179a19.45664,19.45664,0,0,0,19.45858-.00149l283.094-163.49471a9.72834,9.72834,0,0,0-.00064-16.849L619.04382,544.57764a19.45665,19.45665,0,0,0-19.45765-.00057L316.429,708.05809A9.72833,9.72833,0,0,0,316.42918,724.90815Z"/>
  <g>
    <g>
      <g>
        <path class="cls-51" d="M833.88188,466.5933,629.011,345.49021a2.97453,2.97453,0,0,0-3.24439.12842v-.00012l-18.09561,10.467,18.58033,10.86817v87.31482L838.302,566.27073V474.34092A9.00016,9.00016,0,0,0,833.88188,466.5933Z"/>
        <path class="cls-52" d="M606.251,358.6355V465.85306L820.06874,576.83347V484.9037a9,9,0,0,0-4.42023-7.74762L610.77762,356.053A3,3,0,0,0,606.251,358.6355Z"/>
        <path class="cls-53" d="M820.06859,484.9037V585.58345l-286.14844,33.8783V829.94252a18.73026,18.73026,0,0,0,9.42432-2.50567L833.64589,659.5616a9.61615,9.61615,0,0,0,4.65356-8.58051l.00269-66.74377V474.341Z"/>
        <path class="cls-54" d="M533.92023,619.46178V829.94252a18.60414,18.60414,0,0,1-9.28406-2.50566L326.33307,712.95209a9.23427,9.23427,0,0,1-4.66546-7.95644V637.61851Z"/>
        <g>
          <path class="cls-55" d="M820.06874,566.5459v35.20094l-.00936-.00936a9.25254,9.25254,0,0,1-4.64668,8.49867L543.34193,767.36408a18.63645,18.63645,0,0,1-9.42432,2.50567V590.84527Z"/>
          <path class="cls-56" d="M820.06874,580.48642v35.20093l-.00936-.00936a9.25255,9.25255,0,0,1-4.64668,8.49868L543.34193,781.3046a18.63654,18.63654,0,0,1-9.42432,2.50566V604.78579Z"/>
          <path class="cls-57" d="M533.91761,604.78579V783.81026a18.62156,18.62156,0,0,1-9.2747-2.50566L326.33975,666.81983a9.267,9.267,0,0,1-4.67475-8.10607V622.81167Z"/>
          <path class="cls-12" d="M731.20408,568.10614v84.7818L543.34381,761.38681a18.63076,18.63076,0,0,1-9.42,2.50853V584.87655Z"/>
          <path class="cls-58" d="M820.073,560.563v35.20734h-.01756a9.24737,9.24737,0,0,1-4.64853,8.4904l-84.20287,48.62721v-84.7818Z"/>
          <path class="cls-59" d="M533.91761,584.87077V763.89524a18.62156,18.62156,0,0,1-9.2747-2.50566L326.33975,646.90481a9.267,9.267,0,0,1-4.67475-8.10607V602.89665Z"/>
          <path class="cls-60" d="M326.33731,611.38031,524.64015,725.86524a18.699,18.699,0,0,0,18.70086-.00143l272.0702-157.12819a9.34951,9.34951,0,0,0-.0006-16.19293L617.16807,438.0719a18.69906,18.69906,0,0,0-18.7-.00054l-272.13095,157.115A9.34951,9.34951,0,0,0,326.33731,611.38031Z"/>
          <path class="cls-61" d="M728.36546,614.90427,515.17982,491.80519a20.02132,20.02132,0,0,0-5.92779-2.2249L326.33708,595.18635a9.34949,9.34949,0,0,0,.00043,16.19394L524.64006,725.8652a18.69868,18.69868,0,0,0,18.70075-.00139l187.871-108.50069A10.04941,10.04941,0,0,0,728.36546,614.90427Z"/>
        </g>
      </g>
      <path class="cls-62" d="M833.64589,460.77641V659.5616l-5.26978,3.0474V460.77641a6.59747,6.59747,0,0,0-3.23022-5.67l-209.75-123.99a.392.392,0,0,0-.43994,0,.40027.40027,0,0,0-.22.38v20.51l-5.27,3.04v-23.55a5.702,5.702,0,0,1,8.61011-4.91l209.75,123.99A11.8953,11.8953,0,0,1,833.64589,460.77641Z"/>
    </g>
    <path class="cls-63" d="M809.36419,656.44292,559.8262,800.7476a9,9,0,0,0-4.49452,7.79106v11.96621l258.52514-149.4997.00919-11.96292A3,3,0,0,0,809.36419,656.44292Z"/>
  </g>
  <g>
    <path class="cls-58" d="M563.57273,462.3609c.20371-.21975,39.81729-22.94042,39.81729-22.94042-.20613-1.37548.13953-2.57082,1.0243-3.0308,1.00433-.522,2.38667.05866,3.467,1.31608,10.36242-4.28939,20.06192-2.852,47.40061,12.69117,35.43143,20.14428,44.62807,31.92491,45.51431,43.23314,2.466,1.17123,3.31124,2.63359,2.74776,4.10938-.52156,1.366-2.14659,1.47578-4.41352.93409-.27192-.065-.54653-.07637-.80639-.13536l-37.38326,21.46547c.3562,1.57994-.246,3.69466-1.241,4.19256-1.30755.65449-3.17773-.702-4.01387-3.33395l-.00092-.00209c-16.29735-.6754-34.383-12.57052-49.1134-21.8596-12.24116-7.71949-37.18425-18.15531-42.79683-31.39341-2.16333-.005-4.17084-1.30135-4.25281-2.67082C559.43882,463.54323,561.3703,462.59411,563.57273,462.3609Z"/>
    <path class="cls-58" d="M668.87762,525.94854c.20371-.21975,39.81728-22.94043,39.81728-22.94043-.20613-1.37548-.53392-3.0027.35085-3.46267,1.00433-.52206,3.06012.49053,4.14049,1.748,13.74332-2.90175,20.06192-2.852,47.40061,12.69117,35.43143,20.14428,37.58278,29.16356,45.51431,43.23314,2.466,1.17123,3.78082,1.96279,3.21734,3.43857-.52156,1.366-3.95443,2.0728-5.68948,1.46955l-37.38326,21.46546c.35619,1.57994-.246,3.69466-1.241,4.19256-1.30756.65449-3.17774-.702-4.01387-3.334l-.00092-.00209c-16.29735-.6754-38.4884-10.59834-53.21876-19.88741-12.24117-7.7195-33.0789-20.1275-38.69147-33.36559-2.16333-.005-4.27247-1.08622-4.35444-2.45569C664.64208,527.346,666.67519,526.18174,668.87762,525.94854Z"/>
  </g>
  <g>
    <path class="cls-5" d="M559.87921,452.81181c.20371-.21975,39.81729-22.94043,39.81729-22.94043-.20613-1.37548.13953-2.57082,1.0243-3.03079,1.00433-.52206,2.38667.05865,3.467,1.31607,10.36243-4.28938,20.06192-2.852,47.40061,12.69117,35.43143,20.14428,44.62807,31.92492,45.51431,43.23314,2.466,1.17123,3.31124,2.6336,2.74776,4.10938-.52156,1.366-2.14659,1.47578-4.41352.9341-.27192-.065-.54653-.07637-.80639-.13536l-37.38326,21.46546c.3562,1.57994-.246,3.69466-1.241,4.19257-1.30755.65448-3.17773-.702-4.01387-3.334l-.00092-.00209c-16.29735-.6754-34.383-12.57052-49.1134-21.8596-12.24116-7.71949-37.18425-18.15531-42.79683-31.3934-2.16332-.005-4.17084-1.30135-4.25281-2.67082C555.7453,453.99413,557.67678,453.045,559.87921,452.81181Z"/>
    <path class="cls-5" d="M665.1841,516.39944c.20371-.21975,39.81728-22.94042,39.81728-22.94042-.20613-1.37549-.53392-3.00271.35085-3.46268,1.00433-.522,3.06013.49054,4.14049,1.748,13.74332-2.90175,20.06192-2.852,47.40062,12.69117,35.43142,20.14427,37.58277,29.16355,45.5143,43.23314,2.466,1.17122,3.78082,1.96278,3.21734,3.43856-.52156,1.366-3.95443,2.07281-5.68948,1.46955l-37.38326,21.46546c.35619,1.57995-.246,3.69466-1.241,4.19257-1.30756.65449-3.17774-.702-4.01387-3.33395l-.00092-.00209c-16.29735-.67541-38.4884-10.59834-53.21876-19.88742-12.24117-7.71949-33.0789-20.1275-38.69147-33.36559-2.16333-.005-4.27247-1.08622-4.35444-2.45569C660.94856,517.7969,662.98167,516.63264,665.1841,516.39944Z"/>
  </g>
  <g>
    <g>
      <polygon class="cls-64" points="771.149 304.223 771.189 394.925 693.909 350.171 693.87 259.469 771.149 304.223"/>
      <polygon class="cls-65" points="767.843 302.314 767.874 380.942 704.321 344.113 704.29 265.485 767.843 302.314"/>
      <polygon class="cls-66" points="756.487 310.97 756.508 364.275 713.423 339.308 713.402 286.003 756.487 310.97"/>
      <path class="cls-67" d="M766.85144,387.41831l-68.61231-39.7495-.03221-80.69349,68.61233,39.74951.03219,80.69348m4.33729,7.5063-.03922-90.70187L693.86964,259.469l.03924,90.70188,77.27985,44.75371Z"/>
      <polygon class="cls-68" points="698.76 256.638 776.04 301.392 771.149 304.223 693.87 259.469 698.76 256.638"/>
      <polygon class="cls-69" points="776.04 301.392 776.063 392.103 771.189 394.925 771.149 304.223 776.04 301.392"/>
    </g>
    <g>
      <polygon class="cls-70" points="836.398 326.384 836.437 385.085 783.406 354.332 783.367 295.63 836.398 326.384"/>
      <polygon class="cls-71" points="833.092 324.475 833.122 371.103 793.818 348.274 793.787 301.646 833.092 324.475"/>
      <path class="cls-72" d="M832.1001,377.57918l-44.3636-25.7495-.03221-48.69349,44.36362,25.74951.03219,48.69348m4.33729,7.5063-.03922-58.70187L783.367,295.62989l.03924,58.70188,53.03114,30.75371Z"/>
      <polygon class="cls-73" points="788.258 292.799 841.289 323.552 836.398 326.384 783.367 295.63 788.258 292.799"/>
      <polygon class="cls-74" points="841.289 323.552 841.312 382.264 836.437 385.085 836.398 326.384 841.289 323.552"/>
    </g>
  </g>
  <g>
    <g>
      <path class="cls-75" d="M805.29151,425.318c-1.88216-7.33444-.10115-16.53786,12.737-19.69806,17.01948-4.18945,29.20908,9.55112,25.8393,23.02175-2.19463,8.773-8.59831,16.05528-8.59831,16.05528l-2.81791-3.23592c-1.192-2.10141-2.62627-4.53072-2.62627-4.53072S808.43309,437.56014,805.29151,425.318Z"/>
      <g>
        <path class="cls-76" d="M836.20154,421.2538c1.073-6.56757-5.17888-13.17292-12.89618-13.75212-6.74482-.50623-14.12474,4.54485-14.68914,12.01638a151.45389,151.45389,0,0,0-.06041,16.60627c.5132,7.37768,3.32549,15.53446,10.78683,14.40074,8.21025-1.24751,13.62407-5.37226,14.65555-12.92937Z"/>
        <path class="cls-75" d="M809.23686,415.30051a15.59805,15.59805,0,0,0-.89445,10.70583s0-3.34839.30381-6.23193c-.41051,7.55841,2.52927,11.571,9.21216,10.26443,0,0-.31966,2.85629,1.1794,4.61746.81435.95674,4.111,1.72409,7.45541,1.87,1.26372,5.36835,4.13332,8.18095,8.77635,8.17062,0,0-.00281-9.204.54-10.02922C843.9789,403.30777,814.90225,400.18755,809.23686,415.30051Z"/>
        <path class="cls-76" d="M823.696,441.45993c2.72079-.1186,4.84554-4.01744,4.711-7.10486s-2.921-5.56924-5.19833-4.07569C820.34984,432.15428,820.97517,441.57853,823.696,441.45993Z"/>
      </g>
    </g>
    <g>
      <path class="cls-77" d="M863.60579,736.20933s2.113,5.78681.95775,9.36816-7.82656,4.83965-11.2271,1.56815c-2.94166-2.83-2.546-3.24413-5.425-7.38287-3.00668-4.3222-8.18317-9.738-8.64671-14.39145-1.0668-10.70955,13.26607-5.39211,13.26607-5.39211Z"/>
      <path class="cls-76" d="M864.39584,729.32415s1.323,8.96062.1677,12.542-7.82656,4.83966-11.2271,1.56815c-2.94166-2.83-2.31749-3.73221-5.19656-7.87095-3.00669-4.3222-7.21742-8.77459-7.437-11.63595-.82334-10.731,11.82785-7.65952,11.82785-7.65952Z"/>
      <path class="cls-77" d="M847.86261,736.29062s-.57143-5.90538.60118-7.6379l7.28494-10.76337-6.29033-.313s-4.39584,1.18256-6.4258,3.435a8.57462,8.57462,0,0,0-2.36819,4.2218Z"/>
      <path class="cls-76" d="M862.14532,566.60266l.32385,78.5623c3.31656,25.348,1.7687,51.49507,1.45932,77.77246l.46735,6.38682-11.47577-1.07379s-25.46883-98.24675-25.46883-149.58113Z"/>
      <path class="cls-77" d="M864.05328,712.24073l.36537,9.39659c.07146,4.10962-13.37436,4.80229-14.04,1.24161l-1.92927-9.36335Z"/>
      <path class="cls-77" d="M864.35639,566.60273l.01431,78.40709c.92263,5.30746,1.60288,63.643,1.60288,63.643-.28526,9.41709-19.374,10.28683-21.6547,1.1849,0,0-14.88963-78.121-15.47341-83.15051l-.58724-48.01784Z"/>
      <path class="cls-77" d="M823.22953,758.75269c.97823.58739,2.80372,4.55255,1.89476,7.26195s-3.52733,3.79559-7.09058,3.79559-6.91547-1.19209-12.94128-1.73837c-8.10558-.73481-12.595.079-17.78226-2.54089-6.6665-3.367-3.52918-10.85644,1.97889-11.36307,1.66782-.1534,6.69282-.1992,6.69282-.1992l12.89262-3.33488S822.2513,758.1653,823.22953,758.75269Z"/>
      <path class="cls-76" d="M822.0309,749.87318l-13.57967-.47933-12.99892,3.155s-4.55292.30377-6.12069.44784c-5.17789.47638-7.13147,5.97279-.99719,9.387,6.04095,3.36252,9.84928,2.11528,17.46865,2.80618,5.66446.5133,8.06268,1.21644,11.41229,1.21644s5.8108-1.02072,6.66525-3.56776S822.0309,749.87318,822.0309,749.87318Z"/>
      <path class="cls-76" d="M797.47266,584.99059c0,45.79663,11.42779,164.41912,11.42779,164.41912l13.13045.46347s6.269-51.79085,3.86931-85.1247l7.49-67.43645Z"/>
      <path class="cls-77" d="M824.65732,731.57811,823.455,741.9608c-.27052,4.53179-15.13662,4.152-15.567.17425L806.559,731.6597Z"/>
      <path class="cls-78" d="M864.35635,566.60259c-.17215-11.77722-2.28083-24.93008-6.57309-35.66134l-61.33754,7.93354s-1.81621,26.04426-1.81621,46.1158c0,63.96481,8.88645,143.2948,8.88645,143.2948.55276,7.975,22.68277,13.37539,23.93528-2.02287l3.18689-64.9798,5.83169-64.91828Z"/>
      <g>
        <path class="cls-76" d="M887.854,467.12882l-1.75454-9.66737c-.22574-1.16263-.46571-3.73253.0234-4.73375,0,0,2.55469-9.29548,5.55024-9.16848s6.3906,3.66018,6.95818,6.60119,1.326,8.10006.382,11.73048a74.10858,74.10858,0,0,1-3.10357,8.61571S888.15635,471.06,887.854,467.12882Z"/>
        <path class="cls-79" d="M884.80558,472.039l2.643-6.41926c.96039-3.122,10.30251-.11211,9.34213,3.00985l-1.93322,7.36381C893.10164,480.45668,883.04975,476.50228,884.80558,472.039Z"/>
        <path class="cls-80" d="M852.20884,453.11929c10.509,4.424,25.15065,28.07406,25.15065,28.07406l6.89615-11.01295c2.14193-3.25012,13.02929,1.8925,11.64739,6.2356,0,0-3.67241,12.36207-5.96189,18.55687-2.863,7.634-9.18654,9.80517-14.59667,7.78-4.43-1.65832-18.91616-13.76161-18.91616-13.76161Z"/>
      </g>
      <path class="cls-81" d="M840.10672,454.177l-1.88436-9.52662c-.8995-7.98281-20.921.34768-20.24867,6.29068l1.04864,7.734C824.556,459.26577,834.66579,460.47413,840.10672,454.177Z"/>
      <path class="cls-82" d="M832.81767,452.62845c17.59882-5.02028,33.3234,3.19732,29.88841,25.26765l-6.59967,39.85232s4.53857,11.65336,7.06546,31.31575c.27639,8.40994-4.27864,15.68468-18.11456,21.76281-17.60929,7.73577-50.6505,3.03917-50.34883-10.77382l4.26413-40.40644L796.02506,482.369C799.05119,471.19541,812.76046,458.35,832.81767,452.62845Z"/>
      <path class="cls-83" d="M794.70848,560.05325l.361-3.42052,20.28887-58.817L804.16972,570.901C798.413,568.44212,794.60519,564.78262,794.70848,560.05325Z"/>
      <path class="cls-76" d="M790.71167,598.18839l.12317-9.90544-.03782,3.04135c.73125,2.142,2.48132,1.32826,2.815-.50366l.43654-4.98553a9.33177,9.33177,0,0,0-.46872-2.37684l-2.18047-6.698-8.81162-3.8s-2.05707,11.19125-2.05707,14.48332a12.54219,12.54219,0,0,0,3.08406,7.95707l3.95338,4.09258A1.78488,1.78488,0,0,0,790.71167,598.18839Z"/>
      <path class="cls-79" d="M794.56105,569.62157l-2.32821,7.05825c-.78525,3.40772-10.99293.91271-10.20769-2.495l1.49759-8.01226C785.05415,561.27122,796.09247,564.72024,794.56105,569.62157Z"/>
      <path class="cls-84" d="M788.597,529.79663s5.08836-39.7754,7.58182-47.94092c3.78924-12.409,21.78533.20632,19.17947,15.95991,0,0-4.54051,25.74272-8.17291,36.63995-3.43812,10.31434-11.90849,36.10164-11.90849,36.10164-1.65382,5.19726-13.49863,1.77585-12.84717-3.95455Z"/>
      <path class="cls-77" d="M804.45564,750.36362a6.37322,6.37322,0,0,0-2.36538,5.13584c-.09909,3.63675,4.08756,9.27993,4.08756,9.27993l4.70767,1.00226-16.256-.37487-5.53412-1.72024s.20125-9.68741,3.31051-10.96073S804.45564,750.36362,804.45564,750.36362Z"/>
    </g>
    <g>
      <ellipse class="cls-85" cx="839.77717" cy="436.95696" rx="8.16529" ry="6.4561" transform="translate(98.13906 1025.28509) rotate(-65.91342)"/>
      <path class="cls-75" d="M838.56418,446.62156c-3.76317-6.64679-1.37139-14.61924,4.35782-15.34978s12.84292,3.29915,18.33232,12.33222c5.91554,9.73431,5.27679,20.2942,10.75394,30.85606,10.54259,20.32978-.4645,35.327-17.79995,34.65808-10.16056-.392-17.96568-10.05918-18.5771-19.09629-.706-10.43491,3.18491-17.31082,3.6446-23.33608C840.33968,452.74133,838.56418,446.62156,838.56418,446.62156Z"/>
    </g>
  </g>
</svg>
