<svg id="Layer_1" data-name="Layer 1" xmlns="http://www.w3.org/2000/svg" xmlns:xlink="http://www.w3.org/1999/xlink" viewBox="0 0 1000 1000">
  <defs>
    <style>
      .cls-1 {
        fill: url(#linear-gradient);
      }

      .cls-2 {
        fill: url(#linear-gradient-2);
      }

      .cls-3 {
        fill: #6b483c;
      }

      .cls-4 {
        fill: url(#linear-gradient-3);
      }

      .cls-5 {
        fill: #366d26;
      }

      .cls-6 {
        fill: url(#linear-gradient-4);
      }

      .cls-7 {
        fill: url(#linear-gradient-5);
      }

      .cls-8 {
        fill: #87a1af;
      }

      .cls-9 {
        fill: #b8cbd8;
      }

      .cls-10 {
        fill: #9bb0c4;
      }

      .cls-11 {
        fill: #394651;
      }

      .cls-12 {
        fill: #f2f2f2;
      }

      .cls-13 {
        fill: #49555e;
      }

      .cls-14 {
        fill: #444;
      }

      .cls-15 {
        fill: #a0674a;
      }

      .cls-16 {
        fill: url(#linear-gradient-6);
      }

      .cls-17 {
        fill: #d8d8d8;
      }

      .cls-18 {
        fill: #cecece;
      }

      .cls-19 {
        fill: #fff;
      }

      .cls-20 {
        fill: url(#linear-gradient-7);
      }

      .cls-21 {
        fill: #bf7d51;
      }

      .cls-22 {
        fill: #473634;
      }

      .cls-23 {
        fill: url(#linear-gradient-8);
      }

      .cls-24 {
        fill: #e9f1f4;
      }

      .cls-25 {
        fill: #303d49;
      }

      .cls-26 {
        fill: #27343d;
      }

      .cls-27 {
        fill: #a05452;
      }

      .cls-28, .cls-30 {
        fill: #dd7b19;
      }

      .cls-29 {
        fill: url(#linear-gradient-9);
      }

      .cls-30, .cls-40, .cls-42 {
        opacity: 0.5;
      }

      .cls-31 {
        fill: #7a403f;
      }

      .cls-32 {
        fill: #ffbda3;
      }

      .cls-33 {
        fill: #cddce8;
      }

      .cls-34 {
        fill: #e9e9e9;
      }

      .cls-35 {
        fill: #fbfbfb;
      }

      .cls-36 {
        fill: #5b3c39;
      }

      .cls-37 {
        fill: url(#linear-gradient-10);
      }

      .cls-38 {
        fill: #a3bbce;
      }

      .cls-39 {
        fill: #dde9f2;
      }

      .cls-41, .cls-42 {
        fill: #5e798e;
      }
    </style>
    <linearGradient id="linear-gradient" x1="85.34704" y1="420.95711" x2="926.7192" y2="420.95711" gradientUnits="userSpaceOnUse">
      <stop offset="0" stop-color="#e6f4ff"/>
      <stop offset="1" stop-color="#c0e3ff"/>
    </linearGradient>
    <linearGradient id="linear-gradient-2" x1="85.37673" y1="514.30577" x2="602.56109" y2="514.30577" gradientUnits="userSpaceOnUse">
      <stop offset="0.00005" stop-color="#9dcc52"/>
      <stop offset="1" stop-color="#649e3f"/>
    </linearGradient>
    <linearGradient id="linear-gradient-3" x1="314.5191" y1="219.11852" x2="314.5191" y2="426.34894" gradientUnits="userSpaceOnUse">
      <stop offset="0" stop-color="#77bf49"/>
      <stop offset="0.99995" stop-color="#366d26"/>
    </linearGradient>
    <linearGradient id="linear-gradient-4" x1="73.34543" y1="153.62865" x2="221.66003" y2="493.38481" xlink:href="#linear-gradient-3"/>
    <linearGradient id="linear-gradient-5" x1="85.37673" y1="665.91293" x2="926.7192" y2="665.91293" xlink:href="#linear-gradient-2"/>
    <linearGradient id="linear-gradient-6" x1="199.12766" y1="401.23885" x2="1250.9077" y2="401.23885" gradientUnits="userSpaceOnUse">
      <stop offset="0.00005" stop-color="#e6ac72"/>
      <stop offset="1" stop-color="#b3703f"/>
    </linearGradient>
    <linearGradient id="linear-gradient-7" x1="170.53191" y1="528.23063" x2="841.15924" y2="528.23063" xlink:href="#linear-gradient-6"/>
    <linearGradient id="linear-gradient-8" x1="-3963.23967" y1="575.91011" x2="-3946.7534" y2="575.91011" gradientTransform="matrix(-0.66145, -0.76273, -0.84432, 0.61376, -1461.11167, -3073.3908)" gradientUnits="userSpaceOnUse">
      <stop offset="0" stop-color="#ffc050"/>
      <stop offset="0.50022" stop-color="#fbb648"/>
      <stop offset="1" stop-color="#f5a83d"/>
    </linearGradient>
    <linearGradient id="linear-gradient-9" x1="625.49073" y1="311.7284" x2="677.16562" y2="435.14019" gradientUnits="userSpaceOnUse">
      <stop offset="0.00005" stop-color="#ffcb48"/>
      <stop offset="1" stop-color="#e68e2b"/>
    </linearGradient>
    <linearGradient id="linear-gradient-10" x1="280.82979" y1="544.51315" x2="946.24851" y2="544.51315" xlink:href="#linear-gradient-6"/>
  </defs>
  <path class="cls-1" d="M85.3763,512.7967s-2.42713-89.31382,36.92931-127.58839,101.191-29.83446,150.323-53.496,68.673-70.454,112.94077-112.54122,137.159-27.051,188.88841,3.59733S659.04237,296.631,709.319,324.07086,833.84975,358.2208,862.216,367.47715,926.7192,396.71887,926.7192,436.591V648.65747l-841.3429-3.677Z"/>
  <path class="cls-2" d="M85.37673,631.38824c0-58.422,53.3732-112.67951,106.51646-141.91955s101.21157-50.56714,135.85069-76.63038,69.5608-68.2392,117.15563-93.95547,111.54713-17.99148,111.54713-17.99148l46.11445,25.98769v91.81644L175.99123,728.80822l-90.6145-62.13307Z"/>
  <g>
    <path class="cls-3" d="M320.68737,456.13045V381.014h-12.3367v75.14035h.00563a3.10681,3.10681,0,0,0,1.8153,2.4911,9.6434,9.6434,0,0,0,8.725.01569A3.02659,3.02659,0,0,0,320.68737,456.13045Z"/>
    <path class="cls-4" d="M261.54275,355.88328c0-7.63483,2.4907-14.4736,6.43072-19.14837a37.15756,37.15756,0,0,1-2.77653-10.67662c-1.16349-10.43154,1.9801-20.00572,7.594-25.70119-.59184-6.63456,1.531-12.63629,5.61385-15.8413a33.70036,33.70036,0,0,1-.34688-4.81768c0-13.065,7.30838-23.84357,16.719-25.31344-.02043-.42862-.04087-.83692-.04087-1.26566,0-17.94389,8.47212-32.47866,18.90341-32.47866,9.16588,0,16.8007,11.20728,18.5361,26.04831,3.77654,1.87806,6.71629,6.757,7.71656,12.88125,5.30759,3.59276,10.064,10.207,12.65659,18.4951,2.24574,7.22652,2.42915,14.351.91853,20.02615,3.61333,2.61293,6.08334,7.77774,6.08334,13.69774a19.33447,19.33447,0,0,1-2.30654,9.30879v.02043c8.3084,4.59316,12.37077,17.49483,9.14544,31.09052a38.54978,38.54978,0,0,1-6.20594,13.73872c5.16481,6.83865,6.10377,18.02562,1.65365,28.70212a33.61871,33.61871,0,0,1-13.12632,15.882c-4.69508,8.186-10.69693,13.39159-17.49471,16.33122-4.75663,7.839-12.43233,12.28928-19.72,10.55414-4.75638-1.12287-8.431-4.69533-10.65631-9.53344a34.05523,34.05523,0,0,1-13.63643-8.65553c-8.18605-3.6745-15.47374-12.1055-18.94428-23.23117a40.67269,40.67269,0,0,1-.9594-21.80216A30.31017,30.31017,0,0,1,261.54275,355.88328Z"/>
    <path class="cls-5" d="M366.38894,352.21128a38.43549,38.43549,0,0,1-6.202,13.73638c5.16838,6.84533,6.11026,18.032,1.65381,28.6904a33.55707,33.55707,0,0,1-13.13912,15.89562c-4.68609,8.17753-10.6811,13.3919-17.48059,16.33207-4.75479,7.83305-12.42718,12.28935-19.73167,10.54357-4.75508-1.12554-8.43032-4.6861-10.6584-9.53286a33.79275,33.79275,0,0,1-13.62169-8.66c17.36423,2.78811,27.64156-3.35657,28.162-21.79909,6.68992,3.85669,14.021-2.20364,9.81783-10.51216,14.36885.782,19.74494-17.98549,10.41941-27.45817,15.77685-3.62545,18.70927-24.15238,5.03028-30.23187,9.889-4.94862,14.60759-15.52265,12.81793-31.12267,3.62925,2.61868,6.087,7.78707,6.087,13.69053a19.45118,19.45118,0,0,1-2.29706,9.32606c6.3859,3.51443,10.24508,11.94474,10.24508,21.82208A39.931,39.931,0,0,1,366.38894,352.21128Z"/>
  </g>
  <g>
    <path class="cls-3" d="M183.04451,543.83888V378.23133H155.84607v165.6603h.01241c.04079,1.98689,1.36892,3.97112,4.00215,5.49209,5.3285,3.07608,13.941,3.0916,19.23582.03458C181.75805,547.88136,183.07022,545.8599,183.04451,543.83888Z"/>
    <path class="cls-6" d="M256.61257,315.83139a135.09388,135.09388,0,0,0,.29468-18.03176c-1.695-32.88574-14.58838-59.79625-30.40339-66.415.143-.55281.35989-1.07026.46833-1.63761,2.46427-12.836-4.927-24.43092-16.50887-25.89762-.09823-.01218-.1941.00668-.29153-.00432-4.37848-32.84841-20.92743-50.55052-40.72646-50.55052-19.38726,0-35.65175,16.9831-40.43256,48.529-17.25695,9.1974-32.36082,36.6953-36.91689,70.79117-.61135,4.57257-.96025,9.05949-1.15591,13.47254a25.90482,25.90482,0,0,0-14.97735,18.96607,23.85645,23.85645,0,0,0,2.036,15.327c-7.41324,8.84026-12.06046,21.3058-12.06046,35.16024A59.46128,59.46128,0,0,0,68.338,372.24594c-7.71027,11.33242-10.9737,27.29163-7.77078,44.29792,3.7907,20.12788,15.69322,36.62182,30.31617,44.69317,9.21194,16.44915,22.06448,25.84182,37.22728,30.95109,9.63234,15.38008,24.54762,25.29216,41.33466,25.29216s31.70311-9.91208,41.33624-25.29216c15.11879-5.09512,27.94462-14.44811,37.15106-30.812,12.36456-4.77413,22.50846-16.56663,25.34834-31.35617a38.66712,38.66712,0,0,0-3.93686-26.34317,70.55449,70.55449,0,0,0,11.24951-26.7561C285.54181,351.14564,275.30362,327.32607,256.61257,315.83139Z"/>
    <path class="cls-5" d="M280.58105,376.94189a69.31381,69.31381,0,0,1-11.26523,26.71445,38.65926,38.65926,0,0,1,3.99029,26.39306c-2.89646,14.74122-13.00342,26.52155-25.36248,31.3495-9.20487,16.35054-22.015,25.68467-37.1432,30.77-9.65592,15.38518-24.59083,25.29845-41.32681,25.29845-16.802,0-31.73611-9.91327-41.392-25.29845-15.12744-5.0853-28.002-14.48387-37.20764-30.96327,38.21977,10.25458,63.52409-6.35222,64.95189-46.60581,30.52366,16.31925,65.30721-8.33414,57.09938-44.35292,27.65662-8.35733,33.95693-49.72024,9.84922-68.87892,20.81113-16.02482,26.98448-46.72121,3.73255-69.97315,15.83623,6.63058,28.71078,33.53835,30.38453,66.43273a139.49224,139.49224,0,0,1-.25774,18.02429C275.30205,327.31036,285.53788,351.12835,280.58105,376.94189Z"/>
  </g>
  <path class="cls-7" d="M94.52982,681.77854,478.60008,903.51183a54.91669,54.91669,0,0,0,54.91627-.0008l384.05023-221.7366a18.30558,18.30558,0,0,0,.00022-31.70587L533.49971,428.31521a54.91669,54.91669,0,0,0-54.92014.00068L94.52874,650.07264A18.30556,18.30556,0,0,0,94.52982,681.77854Z"/>
  <path class="cls-8" d="M917.5673,681.7739a18.30564,18.30564,0,0,0-.00022-31.70537L797.19355,580.567,614.95326,475.34477,175.99134,728.80806,478.60113,903.51217a54.91583,54.91583,0,0,0,54.914-.00045Z"/>
  <polygon class="cls-8" points="926.718 665.913 926.718 644.776 900.645 663.997 926.718 665.913"/>
  <polygon class="cls-8" points="175.991 728.808 147.267 712.225 147.267 688.022 201.47 707.93 201.47 722.185 175.991 728.808"/>
  <path class="cls-9" d="M917.5673,659.80722a18.30564,18.30564,0,0,0-.00022-31.70537l-120.37353-69.5015L614.95326,453.37808,175.99134,706.84138l302.60979,174.7041a54.91583,54.91583,0,0,0,54.914-.00044Z"/>
  <path class="cls-10" d="M748.25258,757.56347,425.10487,571.15891a9.05988,9.05988,0,0,0-9.05894,0L282.52856,648.25879a3.019,3.019,0,0,0,0,5.22928l323.13829,186.399Z"/>
  <path class="cls-10" d="M817.73812,685.26053a9.71092,9.71092,0,0,0-.00329-16.82162l-257.335-148.44112a7.62339,7.62339,0,0,0-7.62259,0L440.42984,584.87306a2.54032,2.54032,0,0,0,0,4.40014L712.33275,746.11759Z"/>
  <g>
    <path class="cls-11" d="M741.79908,719.49846v-72.635h-9.58446v72.65355h.00438a2.4137,2.4137,0,0,0,1.41031,1.93536,7.492,7.492,0,0,0,6.77851.01218A2.35136,2.35136,0,0,0,741.79908,719.49846Z"/>
    <path class="cls-11" d="M815.88772,676.43952V603.80457h-9.58445v72.65354h.00437a2.4137,2.4137,0,0,0,1.41031,1.93536,7.492,7.492,0,0,0,6.77852.01219A2.35136,2.35136,0,0,0,815.88772,676.43952Z"/>
  </g>
  <polygon class="cls-12" points="202.495 549.781 191.512 530.757 586.291 302.874 921.849 496.6 910.866 515.624 586.291 328.239 202.495 549.781"/>
  <path class="cls-13" d="M821.6451,456.24316v-21.501h9.58446v21.5196h-.00438a2.41367,2.41367,0,0,1-1.41031,1.93535,7.492,7.492,0,0,1-6.77851.01219A2.35136,2.35136,0,0,1,821.6451,456.24316Z"/>
  <path class="cls-14" d="M701.6917,386.97249v-21.501h9.58445v21.5196h-.00437a2.41368,2.41368,0,0,1-1.41032,1.93535,7.492,7.492,0,0,1-6.77851.01219A2.35136,2.35136,0,0,1,701.6917,386.97249Z"/>
  <path class="cls-13" d="M591.08244,317.70181v-21.501H581.498V317.7204h.00438a2.4137,2.4137,0,0,0,1.41031,1.93536,7.492,7.492,0,0,0,6.77851.01218A2.35135,2.35135,0,0,0,591.08244,317.70181Z"/>
  <path class="cls-13" d="M231.22223,525.51383v-21.501h-9.58446v21.51959h.00438a2.4137,2.4137,0,0,0,1.41031,1.93536,7.492,7.492,0,0,0,6.77851.01218A2.35136,2.35136,0,0,0,231.22223,525.51383Z"/>
  <path class="cls-13" d="M351.17563,456.24316v-21.501h-9.58445v21.5196h.00437a2.41369,2.41369,0,0,0,1.41032,1.93535,7.492,7.492,0,0,0,6.77851.01219A2.35133,2.35133,0,0,0,351.17563,456.24316Z"/>
  <path class="cls-13" d="M471.129,386.97249v-21.501h-9.58446v21.5196h.00437a2.41372,2.41372,0,0,0,1.41032,1.93535,7.492,7.492,0,0,0,6.77851.01219A2.35137,2.35137,0,0,0,471.129,386.97249Z"/>
  <path class="cls-15" d="M191.37952,536.42315l-8.23572-14.269L581.03935,292.46923a10.50194,10.50194,0,0,1,10.50108.00029L882.90186,460.67939l-8.23751,14.26726L586.29,308.46072Z"/>
  <path class="cls-16" d="M191.37952,523.88189l-8.23572-14.269L580.79867,280.0669a10.98334,10.98334,0,0,1,10.98243.0003L882.90186,448.13813l-8.23751,14.26726L586.29,295.91946Z"/>
  <polygon class="cls-17" points="175.991 706.841 175.991 565.083 586.29 328.239 586.287 469.976 175.991 706.841"/>
  <polygon class="cls-17" points="878.139 496.73 586.29 328.239 586.294 469.976 877.606 638.178 878.139 496.73"/>
  <g>
    <polygon class="cls-18" points="204.715 487.835 204.709 690.226 175.988 706.841 175.988 487.835 204.715 487.835"/>
    <polygon class="cls-12" points="175.988 487.835 175.988 706.841 170.186 703.511 149.168 691.373 147.274 688.022 147.267 688.022 147.267 487.835 175.988 487.835"/>
    <path class="cls-19" d="M202.81345,491.06646,181.58972,503.32a11.4022,11.4022,0,0,1-11.40218,0l-21.02009-12.136a3.80072,3.80072,0,0,1,0-6.58305l21.22373-12.25353a11.4022,11.4022,0,0,1,11.40218,0l21.02009,12.136A3.80072,3.80072,0,0,1,202.81345,491.06646Z"/>
  </g>
  <g>
    <g>
      <path class="cls-20" d="M832.31072,582.05477,742.181,643.44858,439.15952,468.62487c.21879-.15622.43757-.2969.6719-.43748l93.86431-54.19033a7.37026,7.37026,0,0,1,7.3597,0Z"/>
      <path class="cls-21" d="M742.181,643.44858l-11.68808,7.64095L436.87812,481.68812a3.06947,3.06947,0,0,1-1.57813-2.672v-2.95331a9.07591,9.07591,0,0,1,3.85953-7.4379Z"/>
      <path class="cls-15" d="M833.56346,589.52566a6.3874,6.3874,0,0,1-3.1942,5.53194L733.3851,651.0245a3.03251,3.03251,0,0,1-4.54793-2.62671v-2.96363a9.08407,9.08407,0,0,1,4.54451-7.86847l96.23-55.54934a2.63449,2.63449,0,0,1,3.95176,2.28152Z"/>
    </g>
    <polygon class="cls-15" points="800.215 598.977 795.637 601.634 502.147 432.201 506.741 429.56 800.215 598.977"/>
    <polygon class="cls-15" points="768.667 617.197 764.073 619.854 470.599 450.421 475.177 447.78 768.667 617.197"/>
  </g>
  <g>
    <g>
      <g>
        <path class="cls-22" d="M672.38031,291.68373s5.27288-5.82678,13.99721.20128,9.54158,19.1261,15.45989,26.32263,22.83648,11.45032,25.86528,29.65263c4.33922,26.0776-18.35915,39.72046-31.65562,43.03258-10.81381,2.6937-29.84,3.06333-39.75325-10.59668s.46634-37.40472.59714-54.91442c.14546-19.471,8.079-25.54477,8.079-25.54477Z"/>
        <ellipse class="cls-23" cx="668.67573" cy="296.6828" rx="10.76757" ry="6.61868" transform="translate(20.25926 635.3626) rotate(-51.50513)"/>
      </g>
      <g>
        <path class="cls-24" d="M604.329,325.13785c-11.13916,13.65266-21.75069,30.06921-21.75069,30.06921a11.9874,11.9874,0,0,0-1.42025,3.83586,114.354,114.354,0,0,1-9.39,11.0006s-7.52323-1.08928-12.6401,7.346c-5.11681,8.435-11.45992,19.72606-7.3858,28.37643,4.07413,8.65008,14.44187,14.33706,26.24279,7.14319,3.1781-1.93726,16.626-14.54411,27.18018-26.9382a13.03179,13.03179,0,0,0,6.72511-3.87655l4.44755-6.44222,20.516-66.6501S619.8239,306.14691,604.329,325.13785Z"/>
        <ellipse class="cls-25" cx="571.76805" cy="382.17233" rx="8.79456" ry="10.71513" transform="translate(-102.76966 516.23675) rotate(-45)"/>
        <path class="cls-26" d="M583.39265,630.203s11.96743,20.49454,8.16957,26.79411-14.9722,8.11782-25.11992,11.8213-18.77434,9.57413-35.87708,7.26862-16.05938-15.49294-7.94081-19.371l18.69088-9.97923,18.25409-14.6652Z"/>
        <path class="cls-27" d="M630.05166,530.37167,599.7694,450.36708l-58.56487,40.4598c-25.76145,13.628-25.68546,29.53574-18.18753,47.47l39.972,89.9751L540.54593,647.802c-3.09036,2.96371,5.53916,8.34463,12.56409,6.68734,7.194-1.69716,32.7768-12.632,32.71547-20.21933l-5.66215-9.49373L563.901,542.55243Z"/>
        <path class="cls-26" d="M583.2537,620.11542l-15.00339-78.36388,61.80135-11.37987-32.20735-79.77014-59.32485,36.40039c-22.1898,13.552-24.67222,37.4643-16.16522,57.3156l36.2779,81.97862C562.58375,635.01,584.72218,627.32963,583.2537,620.11542Z"/>
        <path class="cls-26" d="M614.41062,663.22849c2.888,4.419,4.56334,16.50622,3.45019,21.88429-1.395,6.73992-5.84744,11.57922-6.83249,16.06555s-2.09052,13.77684-10.43713,19.43221c-16.92981,11.471-35.499,4.341-27.97643-10.01341l8.59594-16.45125,13.18722-31.42019S610.2057,656.79446,614.41062,663.22849Z"/>
        <path class="cls-27" d="M698.59109,464.69628l-1.02262-.31827.45162-7.53772-47.2885-7.03836-45.55142-14.17614-7.33586,14.97574,17.12359,39.21211L567.69466,521.5761c-15.44087,5.98064-15.95251,40.58239-15.95251,40.58239L593.538,663.98824c-.15282,4.49537-10.8416,32.373-10.8416,32.373-3.03966,6.58609,11.82265,9.47352,16.23707,2.43167,0,0,16.37637-27.31926,14.47661-32.94268l-1.53252-5.91467c-4.053-38.503-1.12849-56.1331-13.628-96.86522,0,0,42.30249-7.29531,64.03633-14.59033,21.73384-7.2956,36.17419-25.83979,36.67427-51.06745C699.26964,482.20921,698.93633,471.33964,698.59109,464.69628Z"/>
        <path class="cls-25" d="M615.27187,660.94871c-4.053-38.503-2.83705-56.9437-13.98262-97.42236,0,0,39.2628-7.75133,60.99664-15.04635,21.73384-7.2956,36.17419-25.83979,36.67427-51.06745.30948-15.20334-.02383-26.07291-.36907-32.71627l-1.02262-.31827.45162-7.53772-47.2885-7.03836-45.55142-14.17614-7.33586,14.97574,9.52434,41.03593-41.03594,24.01363c-16.71834,10.94291-20.66825,32.74856-15.38235,48.44079l36.96422,104.68406C592.30675,681.54268,617.76,674.68563,615.27187,660.94871Z"/>
        <path class="cls-28" d="M703.02945,464.77023l.011-16.9256-28.44087-5.97422-68.20278-16.00963-1.7639,12.91882c-.63455,6.13129,9.51,21.59576,35.94793,29.35294C667.54874,476.0455,695.534,468.31524,703.02945,464.77023Z"/>
        <path class="cls-29" d="M648.25261,310.69785c-28.87715-8.43365-49.24313,17.09982-46.20343,47.19289-2.20992,16.459,1.58623,31.91723,8.77274,46.8113l-2.99731,16.4144c-1.51985,9.19509,5.35556,20.26531,22.227,28.26639,26.72511,12.674,61.607,10.27977,65.87356-9.52158l-1.86041-14.1318L711.375,362.099C707.45075,338.81658,688.07509,322.32812,648.25261,310.69785Z"/>
        <path class="cls-30" d="M679.63845,378.42654l1.49356,53.3288-27.45493,6.68725,3.948,12.36154h30.91925a18.07681,18.07681,0,0,0,7.38091-10.94282l-1.86038-14.132,1.05706-3.88527Z"/>
        <path class="cls-24" d="M711.12376,360.42385c-4.57734-22.8951-35.4632-8.30858-31.48531,18.00269l10.562,60.05624-32.3728,2.89832.60794,21.2779s46.861,10.02369,55.62652-1.5704C722.168,450.36708,715.73393,394.22805,711.12376,360.42385Z"/>
        <ellipse class="cls-25" cx="665.56592" cy="452.90577" rx="7.00428" ry="10.28345" transform="translate(-58.8544 101.7408) rotate(-8.37266)"/>
      </g>
      <g>
        <polygon class="cls-30" points="627.223 328.112 633.429 330.319 640.15 340.224 653.273 338.287 661.208 343.826 660.13 331.485 637.967 321.75 627.223 328.112"/>
        <path class="cls-27" d="M640.91718,337.25407l9.65338-7.25049,15.25292-12.55221s-3.35981-8.23539-12.69744-7.48253c-8.1178.6545-13.76464,9.97414-13.76464,9.97414Z"/>
        <path class="cls-24" d="M640.91718,337.254c-.72985-6.87418-.13562-13.60626,2.15033-18.85479l6.41422-8.45947,1.0693-5.27772c-12.82425,3.76478-21.17214,17.82759-23.66372,22.5523a.64709.64709,0,0,0,.82317.89626l5.38339-2.2241a1.94552,1.94552,0,0,1,2.47492.91209l5.34839,10.45546Z"/>
        <path class="cls-31" d="M641.217,324.70736c.74618,9.98562,17.11483,4.87941,23.259-4.53566-.81423-6.47462.46506-12.749-3.74211-20.87639l-21.11014,5.7069Z"/>
        <path class="cls-24" d="M671.06856,324.68736c-1.18867,6.57928-6.00292,15.24164-8.14742,18.867a1.13158,1.13158,0,0,1-1.97423-.04738l-4.44224-8.35361a2.21048,2.21048,0,0,0-2.47737-1.10919l-13.11012,3.20993h0s9.75759-7.50121,13.73985-10.6134c11.41814-8.92345,8.82419-19.28775,8.82419-19.28775s.89831-.31565,2.85342,2.1909C668.41425,312.21,672.4404,317.09428,671.06856,324.68736Z"/>
      </g>
      <path class="cls-32" d="M663.697,300.73935c4.25115.24554,8.1726-5.48358,8.45123-10.30757s-3.66365-9.12507-7.44222-7.16167C659.96265,285.73482,659.44584,300.49381,663.697,300.73935Z"/>
      <polygon class="cls-33" points="640.475 417.992 584.65 396.023 612.427 449.605 668.251 471.573 640.475 417.992"/>
      <g>
        <polygon class="cls-19" points="640.475 417.992 584.65 396.023 612.427 449.605 668.251 471.573 640.475 417.992"/>
        <g>
          <polygon class="cls-27" points="655.631 435.745 648.59 433.621 650.086 436.58 655.631 435.745"/>
          <path class="cls-27" d="M666.58145,444.61256c4.73751,6.99671,5.03026,18.216-3.05435,17.80579,0,0-15.20966-2.26839-18.35359-4.22812s-7.32085-9.97037-7.70557-14.51594a7.58806,7.58806,0,0,1,3.97882-7.46823c2.61039-1.51214,10.21227-1.17578,12.977-.77048C660.41826,436.31434,666.58145,444.61256,666.58145,444.61256Z"/>
        </g>
      </g>
      <g>
        <path class="cls-22" d="M620.1701,282.20082c-3.569-10.84189-1.81655-24.86348,17.17459-30.90863,25.17639-8.014,40.23874,14.00583,38.6411,31.65332a31.82047,31.82047,0,0,1-10.02211,20.75706l-2.297,4.87021c-2.0043-3.04066-5.42787-11.37568-5.42787-11.37568S626.12725,300.29736,620.1701,282.20082Z"/>
        <g>
          <path class="cls-27" d="M666.25109,272.97722c.95288-9.98589-9.115-19.29141-20.78047-19.38587-10.19545-.08256-20.78681,8.25721-20.88373,19.55151a228.30144,228.30144,0,0,0,1.58043,24.98263c1.51439,11.0447,6.56512,23.0298,17.67318,20.57372,12.223-2.70262,19.95053-9.45128,20.74135-20.92132Z"/>
          <path class="cls-22" d="M625.09589,266.737l-1.44,16.52408c2.166-.418,3.32091-2.15517,5.85577-9.28636.14328,11.40948,13.45161,15.80695,23.37148,13.16929,0,0-.19332,4.32816,2.23857,6.82616,2.64223,2.714,9.17214,4.02356,11.88983-.77832C676.14243,245.20289,632.09574,243.43621,625.09589,266.737Z"/>
          <path class="cls-27" d="M661.2314,303.84009c4.08025-.45221,6.88357-6.53008,6.37042-11.16015s-4.95387-8.08239-8.2287-5.60682C655.26215,290.18075,657.15115,304.2923,661.2314,303.84009Z"/>
        </g>
      </g>
    </g>
    <g>
      <path class="cls-27" d="M581.96331,348.8037c-7.17262.64817-13.07828,21.84776-13.07828,21.84776L566.2,374.45108c-8.015,8.9483,6.41292,20.468,14.42791,11.51966l4.45223-6.09066s16.53561-9.08909,15.989-15.13744A17.59379,17.59379,0,0,0,581.96331,348.8037Z"/>
      <g>
        <path class="cls-34" d="M582.01385,348.73119l-.60475,25.45389c-.1089,4.584,6.2688,8.45372,14.24509,8.64323s14.53056-3.373,14.63947-7.957l.60474-25.4539Z"/>
        <ellipse class="cls-35" cx="596.45612" cy="349.07436" rx="8.3025" ry="14.44635" transform="translate(233.31343 937.07113) rotate(-88.639)"/>
        <ellipse class="cls-35" cx="596.45612" cy="349.07436" rx="6.36405" ry="11.07344" transform="translate(233.31343 937.07113) rotate(-88.639)"/>
        <path class="cls-36" d="M596.49752,347.33721c4.69062.11144,8.63587,1.88873,10.1926,4.294-1.6692,2.32861-5.69441,3.91681-10.385,3.80537s-8.63587-1.889-10.1926-4.29426C587.78169,348.81369,591.8069,347.22577,596.49752,347.33721Z"/>
      </g>
    </g>
  </g>
  <g>
    <path class="cls-11" d="M605.836,819.348V666.04692h-9.58445V819.36661h.00437a2.41368,2.41368,0,0,0,1.41032,1.93535,7.492,7.492,0,0,0,6.77851.01219A2.35136,2.35136,0,0,0,605.836,819.348Z"/>
    <path class="cls-11" d="M727.88858,749.12969V595.82859h-9.58446V749.14828h.00438a2.4137,2.4137,0,0,0,1.41031,1.93536,7.492,7.492,0,0,0,6.77851.01218A2.35136,2.35136,0,0,0,727.88858,749.12969Z"/>
  </g>
  <g>
    <path class="cls-11" d="M318.63254,654.57013V501.269h-9.58446V654.58872h.00438a2.41369,2.41369,0,0,0,1.41031,1.93535,7.492,7.492,0,0,0,6.77852.01219A2.35138,2.35138,0,0,0,318.63254,654.57013Z"/>
    <path class="cls-14" d="M440.68509,567.17491V437.5824h-9.58446V567.1935h.00438a2.4137,2.4137,0,0,0,1.41031,1.93536,7.492,7.492,0,0,0,6.77851.01218A2.35136,2.35136,0,0,0,440.68509,567.17491Z"/>
  </g>
  <g>
    <g>
      <path class="cls-37" d="M743.76533,584.9776,600.24963,678.812l-314.7093-181.5364c.2563-.183.51261-.34781.78712-.5125l147.89076-85.39552a8.63416,8.63416,0,0,1,8.62185,0Z"/>
      <path class="cls-15" d="M600.24963,678.812,586.5571,687.7633,282.86767,512.5791a3.59589,3.59589,0,0,1-1.84877-3.1303V505.989a10.63239,10.63239,0,0,1,4.52143-8.71347Z"/>
      <path class="cls-15" d="M745.23291,593.7297a7.48282,7.48282,0,0,1-3.742,6.48065L589.94526,687.68711a3.55257,3.55257,0,0,1-5.32787-3.07718v-3.47188a10.64194,10.64194,0,0,1,5.32387-9.21786l150.66219-86.9876a3.08628,3.08628,0,0,1,4.62946,2.67278Z"/>
    </g>
    <polygon class="cls-15" points="705.214 605.37 699.814 608.482 396.289 433.279 401.653 430.167 705.214 605.37"/>
    <polygon class="cls-15" points="668.237 626.714 662.873 629.826 359.33 454.605 364.712 451.512 668.237 626.714"/>
    <polygon class="cls-15" points="631.278 648.059 625.896 651.17 322.371 475.95 327.735 472.856 631.278 648.059"/>
  </g>
  <g>
    <path class="cls-18" d="M926.7192,437.44336V652.27522h-.00634a3.75545,3.75545,0,0,1-1.894,3.23068L897.99206,671.114V437.44336Z"/>
    <path class="cls-12" d="M897.99206,437.44336V671.114l-6.96619-4.02271-19.85426-11.46508a3.75763,3.75763,0,0,1-1.894-3.351h-.00634V437.44336Z"/>
    <path class="cls-19" d="M924.81728,440.6748l-21.22373,12.25353a11.4022,11.4022,0,0,1-11.40218,0l-21.02009-12.136a3.80072,3.80072,0,0,1,0-6.58305L892.395,421.95579a11.4022,11.4022,0,0,1,11.40218,0l21.02009,12.136A3.80072,3.80072,0,0,1,924.81728,440.6748Z"/>
  </g>
  <g>
    <g>
      <path class="cls-38" d="M410.11071,477.60545l-5.741-1.78055-.00147,2.99283a1.73425,1.73425,0,0,0,.87364,1.45941l17.52657,10.11928a3.50959,3.50959,0,0,0,3.50961,0l3.34906-1.93367.00009,0,36.90806-21.30887a1.73511,1.73511,0,0,0,.87471-1.47683l.00758-2.96469-18.40962-8.13678a3.50949,3.50949,0,0,0-3.50957,0l-37.785,21.81553Z"/>
      <path class="cls-25" d="M407.7186,472.89578l-2.47181,1.4273a1.75475,1.75475,0,0,0,0,3.03927l17.5266,10.11935a3.50955,3.50955,0,0,0,3.5096,0l5.47659-3.162.00005,0,34.78056-20.08063a1.75476,1.75476,0,0,0,0-3.03931l-17.52673-10.1194a3.50957,3.50957,0,0,0-3.5096,0L407.7189,472.896Z"/>
      <path class="cls-33" d="M405.36345,476.285a.882.882,0,0,1,.32207-1.20217l2.03437-1.1747.00028.00015.43743-.25255,37.785-21.81554a2.63953,2.63953,0,0,1,2.63224,0l17.52671,10.1194a.86327.86327,0,0,1,.32208.31753.882.882,0,0,1-.32208,1.20217L431.32094,483.56l-5.4766,3.162a2.63947,2.63947,0,0,1-2.63222,0l-17.5266-10.11934a.86322.86322,0,0,1-.32207-.31752m-.75981.43868a1.74034,1.74034,0,0,0,.64318.63864l17.52661,10.11934a3.50953,3.50953,0,0,0,3.5096,0l5.47659-3.162,0,0,34.78058-20.08064a1.75119,1.75119,0,0,0,0-3.03931l-17.52672-10.1194a3.50959,3.50959,0,0,0-3.50961,0L407.7189,472.896l-.00029-.00018-2.47182,1.42731a1.757,1.757,0,0,0-.64315,2.40062Z"/>
    </g>
    <g>
      <path class="cls-38" d="M583.89236,518.91745l-5.03535.76758-82.4318-47.59955a6.73551,6.73551,0,0,0-6.73727.00057l-55.63408,32.13608-2.58788-2.15254v4.995l.00577-.00547a2.218,2.218,0,0,0,1.1168,1.89821l86.33119,49.85145a6.73579,6.73579,0,0,0,6.73612.00014l57.11466-32.97522a2.20858,2.20858,0,0,0,1.10615-1.81166l.01656.01152v-.1443Z"/>
      <path class="cls-39" d="M489.68789,467.094l-57.09965,32.98279a2.24523,2.24523,0,0,0,.00028,3.88854l86.33129,49.85147a6.73572,6.73572,0,0,0,6.73611.00023l57.11467-32.97523a2.24523,2.24523,0,0,0,.00013-3.88878l-86.34549-49.85951A6.73567,6.73567,0,0,0,489.68789,467.094Z"/>
      <g>
        <g class="cls-40">
          <path class="cls-41" d="M459.38561,505.5716l-3.85576-2.22612a1.33852,1.33852,0,0,0-1.20427.04992l-3.65179,2.10836c-.35643.20578-.39514.51708-.08646.69529l3.85575,2.22612a1.33848,1.33848,0,0,0,1.20428-.04992l3.65179-2.10836C459.65557,506.06111,459.69428,505.74982,459.38561,505.5716Z"/>
          <path class="cls-41" d="M453.30645,502.0618l-3.85576-2.22612a1.33848,1.33848,0,0,0-1.20428.04992l-3.65178,2.10835c-.35643.20579-.39514.51708-.08647.69529l3.85576,2.22613a1.33854,1.33854,0,0,0,1.20428-.04992l3.65178-2.10836C453.57641,502.5513,453.61512,502.24,453.30645,502.0618Z"/>
          <path class="cls-41" d="M526.2564,544.17947l-3.85575-2.22612a1.33854,1.33854,0,0,0-1.20428.04992l-3.65178,2.10836c-.35643.20579-.39514.51708-.08647.69529l3.85576,2.22612a1.33846,1.33846,0,0,0,1.20427-.04992l3.65179-2.10836C526.52637,544.669,526.56508,544.35769,526.2564,544.17947Z"/>
          <path class="cls-41" d="M520.17724,540.66967l-3.85575-2.22612a1.33848,1.33848,0,0,0-1.20428.04992l-3.65179,2.10836c-.35643.20578-.39514.51707-.08646.69529l3.85575,2.22612a1.33854,1.33854,0,0,0,1.20428-.04992l3.65179-2.10836C520.4472,541.15917,520.48592,540.84788,520.17724,540.66967Z"/>
          <path class="cls-41" d="M514.09808,537.15986l-3.85576-2.22612a1.33854,1.33854,0,0,0-1.20428.04992l-3.65178,2.10836c-.35643.20578-.39514.51708-.08646.69529l3.85575,2.22612a1.33854,1.33854,0,0,0,1.20428-.04992l3.65178-2.10836C514.368,537.64937,514.40675,537.33808,514.09808,537.15986Z"/>
          <path class="cls-41" d="M508.01891,533.65005l-3.85575-2.22612a1.33854,1.33854,0,0,0-1.20428.04992l-3.65178,2.10836c-.35643.20579-.39514.51708-.08647.69529l3.85576,2.22612a1.33848,1.33848,0,0,0,1.20428-.04992l3.65178-2.10835C508.28888,534.13956,508.32759,533.82827,508.01891,533.65005Z"/>
          <path class="cls-41" d="M501.93975,530.14025l-3.85575-2.22612a1.33848,1.33848,0,0,0-1.20428.04992l-3.65179,2.10836c-.35643.20578-.39514.51707-.08646.69529l3.85575,2.22612a1.33854,1.33854,0,0,0,1.20428-.04992l3.65179-2.10836C502.20972,530.62975,502.24843,530.31846,501.93975,530.14025Z"/>
          <path class="cls-41" d="M495.86059,526.63044l-3.85576-2.22612a1.33854,1.33854,0,0,0-1.20428.04992l-3.65178,2.10836c-.35643.20578-.39514.51708-.08646.69529l3.85575,2.22612a1.33851,1.33851,0,0,0,1.20428-.04992l3.65178-2.10836C496.13055,527.12,496.16926,526.80866,495.86059,526.63044Z"/>
          <path class="cls-41" d="M489.78142,523.12064l-3.85575-2.22613a1.33854,1.33854,0,0,0-1.20428.04992l-3.65178,2.10836c-.35643.20579-.39514.51708-.08647.69529l3.85576,2.22612a1.33848,1.33848,0,0,0,1.20428-.04992l3.65178-2.10835C490.05139,523.61014,490.0901,523.29885,489.78142,523.12064Z"/>
          <path class="cls-41" d="M483.70226,519.61083l-3.85575-2.22612a1.33848,1.33848,0,0,0-1.20428.04992l-3.65179,2.10836c-.35642.20578-.39514.51707-.08646.69529l3.85575,2.22612a1.33854,1.33854,0,0,0,1.20428-.04992l3.65179-2.10836C483.97223,520.10034,484.01094,519.789,483.70226,519.61083Z"/>
          <path class="cls-41" d="M477.6231,516.101l-3.85576-2.22612a1.33852,1.33852,0,0,0-1.20427.04992l-3.65179,2.10836c-.35643.20578-.39514.51708-.08646.69529l3.85575,2.22612a1.33848,1.33848,0,0,0,1.20428-.04992l3.65178-2.10836C477.89306,516.59053,477.93177,516.27924,477.6231,516.101Z"/>
          <path class="cls-41" d="M471.54393,512.59122l-3.85575-2.22612a1.33851,1.33851,0,0,0-1.20428.04991l-3.65178,2.10836c-.35643.20579-.39514.51708-.08647.69529l3.85576,2.22612a1.33851,1.33851,0,0,0,1.20428-.04991l3.65178-2.10836C471.8139,513.08072,471.85261,512.76943,471.54393,512.59122Z"/>
          <path class="cls-41" d="M465.46477,509.08141l-3.85575-2.22612a1.33848,1.33848,0,0,0-1.20428.04992l-3.65179,2.10836c-.35642.20578-.39513.51707-.08646.69529l3.85576,2.22612a1.33852,1.33852,0,0,0,1.20427-.04992l3.65179-2.10836C465.73474,509.57092,465.77345,509.25962,465.46477,509.08141Z"/>
          <path class="cls-41" d="M518.07478,532.41015,514.219,530.184a1.33848,1.33848,0,0,0-1.20428.04992L509.363,532.3423c-.35643.20579-.39514.51708-.08647.6953l3.85576,2.22612a1.33854,1.33854,0,0,0,1.20428-.04992l3.65178-2.10836C518.34475,532.89965,518.38346,532.58836,518.07478,532.41015Z"/>
          <path class="cls-41" d="M511.9504,528.87423l-3.85575-2.22612a1.33854,1.33854,0,0,0-1.20428.04992l-3.65179,2.10836c-.35642.20578-.39514.51708-.08646.69529l3.85575,2.22612a1.33848,1.33848,0,0,0,1.20428-.04992l3.65179-2.10836C512.22037,529.36374,512.25908,529.05245,511.9504,528.87423Z"/>
          <path class="cls-41" d="M505.826,525.33832l-3.85576-2.22612a1.33848,1.33848,0,0,0-1.20428.04992l-3.65178,2.10836c-.35643.20578-.39514.51707-.08646.69529l3.85575,2.22612a1.33854,1.33854,0,0,0,1.20428-.04992l3.65178-2.10836C506.096,525.82782,506.13469,525.51653,505.826,525.33832Z"/>
          <path class="cls-41" d="M499.70163,521.8024l-3.85575-2.22612a1.33854,1.33854,0,0,0-1.20428.04992l-3.65178,2.10836c-.35643.20578-.39514.51708-.08647.69529l3.85576,2.22612a1.33848,1.33848,0,0,0,1.20428-.04992l3.65178-2.10836C499.9716,522.29191,500.01031,521.98062,499.70163,521.8024Z"/>
          <path class="cls-41" d="M493.57725,518.26649l-3.85575-2.22612a1.33848,1.33848,0,0,0-1.20428.04992l-3.65179,2.10836c-.35643.20578-.39514.51707-.08646.69529l3.85575,2.22612a1.33854,1.33854,0,0,0,1.20428-.04992l3.65179-2.10836C493.84721,518.756,493.88593,518.4447,493.57725,518.26649Z"/>
          <path class="cls-41" d="M487.45287,514.73057l-3.85576-2.22612a1.33854,1.33854,0,0,0-1.20428.04992l-3.65178,2.10836c-.35643.20579-.39514.51708-.08646.69529l3.85575,2.22612a1.33848,1.33848,0,0,0,1.20428-.04992l3.65178-2.10836C487.72283,515.22008,487.76154,514.90879,487.45287,514.73057Z"/>
          <path class="cls-41" d="M481.32848,511.19466l-3.85575-2.22612a1.33848,1.33848,0,0,0-1.20428.04992l-3.65179,2.10836c-.35642.20578-.39514.51707-.08646.69529l3.85576,2.22612a1.33852,1.33852,0,0,0,1.20427-.04992L481.242,511.89C481.59845,511.68417,481.63716,511.37287,481.32848,511.19466Z"/>
          <path class="cls-41" d="M475.2041,507.65874l-3.85576-2.22612a1.33852,1.33852,0,0,0-1.20427.04992l-3.65179,2.10836c-.35643.20579-.39514.51708-.08646.69529l3.85575,2.22612a1.33848,1.33848,0,0,0,1.20428-.04992l3.65178-2.10835C475.47406,508.14825,475.51277,507.837,475.2041,507.65874Z"/>
          <path class="cls-41" d="M469.07971,504.12283l-3.85575-2.22612a1.33848,1.33848,0,0,0-1.20428.04992L460.3679,504.055c-.35643.20578-.39514.51707-.08647.69529l3.85576,2.22612a1.33854,1.33854,0,0,0,1.20428-.04992l3.65178-2.10836C469.34968,504.61234,469.38839,504.301,469.07971,504.12283Z"/>
          <path class="cls-41" d="M524.19917,535.94606l-3.85576-2.22612a1.33852,1.33852,0,0,0-1.20427.04992l-3.65179,2.10836c-.35643.20578-.39514.51708-.08646.69529l3.85575,2.22612a1.33848,1.33848,0,0,0,1.20428-.04992l3.65179-2.10836C524.46913,536.43557,524.50784,536.12428,524.19917,535.94606Z"/>
          <path class="cls-41" d="M532.35813,540.65664l-6.115-3.5305a1.33848,1.33848,0,0,0-1.20428.04992l-3.65178,2.10836c-.35643.20578-.39514.51707-.08647.69529l6.115,3.5305a1.33854,1.33854,0,0,0,1.20428-.04992l3.65179-2.10836C532.62809,541.14615,532.66681,540.83485,532.35813,540.65664Z"/>
          <path class="cls-41" d="M538.45986,537.13381l-8.72678-5.03841a1.33854,1.33854,0,0,0-1.20428.04992l-3.65178,2.10836c-.35643.20578-.39514.51707-.08647.69529l8.72678,5.03841a1.33854,1.33854,0,0,0,1.20428-.04992l3.65178-2.10836C538.72982,537.62331,538.76853,537.312,538.45986,537.13381Z"/>
          <path class="cls-41" d="M521.31226,527.23364l-3.85576-2.22612a1.33846,1.33846,0,0,0-1.20427.04992l-3.65179,2.10835c-.35643.20579-.39514.51708-.08646.69529l3.85575,2.22612a1.33851,1.33851,0,0,0,1.20428-.04991l3.65179-2.10836C521.58222,527.72314,521.62093,527.41185,521.31226,527.23364Z"/>
          <path class="cls-41" d="M515.21739,523.71476l-3.85575-2.22612a1.33854,1.33854,0,0,0-1.20428.04992l-3.65178,2.10836c-.35643.20579-.39514.51708-.08647.69529l3.85576,2.22612a1.33846,1.33846,0,0,0,1.20427-.04992l3.65179-2.10836C515.48736,524.20427,515.52607,523.893,515.21739,523.71476Z"/>
          <path class="cls-41" d="M509.12253,520.19589l-3.85576-2.22612a1.33854,1.33854,0,0,0-1.20428.04992l-3.65178,2.10836c-.35643.20578-.39514.51708-.08646.69529l3.85575,2.22612a1.33854,1.33854,0,0,0,1.20428-.04992l3.65178-2.10836C509.39249,520.6854,509.4312,520.37411,509.12253,520.19589Z"/>
          <path class="cls-41" d="M503.02766,516.677l-3.85575-2.22612a1.33848,1.33848,0,0,0-1.20428.04992l-3.65179,2.10836c-.35642.20578-.39514.51707-.08646.69529l3.85575,2.22612a1.33854,1.33854,0,0,0,1.20428-.04992l3.65179-2.10836C503.29763,517.16653,503.33634,516.85523,503.02766,516.677Z"/>
          <path class="cls-41" d="M496.9328,513.15815,493.077,510.932a1.33848,1.33848,0,0,0-1.20428.04992L488.221,513.0903c-.35643.20579-.39514.51708-.08646.69529l3.85575,2.22613a1.33854,1.33854,0,0,0,1.20428-.04992l3.65178-2.10836C497.20276,513.64765,497.24147,513.33636,496.9328,513.15815Z"/>
          <path class="cls-41" d="M490.83793,509.63927l-3.85575-2.22612a1.33854,1.33854,0,0,0-1.20428.04992l-3.65179,2.10836c-.35643.20579-.39514.51708-.08646.69529l3.85575,2.22612a1.33848,1.33848,0,0,0,1.20428-.04992l3.65179-2.10836C491.10789,510.12878,491.14661,509.81749,490.83793,509.63927Z"/>
          <path class="cls-41" d="M484.74306,506.1204l-3.85575-2.22612a1.33854,1.33854,0,0,0-1.20428.04992l-3.65178,2.10836c-.35643.20578-.39514.51708-.08647.69529l3.85576,2.22612a1.33851,1.33851,0,0,0,1.20428-.04992l3.65178-2.10836C485.013,506.60991,485.05174,506.29862,484.74306,506.1204Z"/>
          <path class="cls-41" d="M478.6482,502.60153l-3.85576-2.22612a1.33846,1.33846,0,0,0-1.20427.04992l-3.65179,2.10836c-.35643.20578-.39514.51707-.08646.69529l3.85575,2.22612a1.33854,1.33854,0,0,0,1.20428-.04992l3.65178-2.10836C478.91816,503.091,478.95687,502.77974,478.6482,502.60153Z"/>
          <path class="cls-41" d="M472.55333,499.08266l-3.85575-2.22612a1.33848,1.33848,0,0,0-1.20428.04992l-3.65178,2.10835c-.35643.20579-.39514.51708-.08647.6953l3.85576,2.22612a1.33852,1.33852,0,0,0,1.20427-.04992l3.65179-2.10836C472.8233,499.57216,472.862,499.26087,472.55333,499.08266Z"/>
          <path class="cls-41" d="M466.31105,495.47868l-4.6569-2.68867a1.33848,1.33848,0,0,0-1.20428.04992l-3.65179,2.10836c-.35643.20578-.39514.51707-.08646.69529l4.65691,2.68866a1.33851,1.33851,0,0,0,1.20428-.04991l3.65178-2.10836C466.581,495.96818,466.61973,495.65689,466.31105,495.47868Z"/>
          <path class="cls-41" d="M527.40712,530.75251l-3.85575-2.22612a1.33848,1.33848,0,0,0-1.20428.04992l-3.65178,2.10836c-.35643.20578-.39514.51707-.08647.69529l3.85576,2.22612a1.33854,1.33854,0,0,0,1.20428-.04992l3.65178-2.10836C527.67709,531.242,527.7158,530.93072,527.40712,530.75251Z"/>
          <path class="cls-41" d="M520.4721,519.7029l-3.85575-2.22612a1.33854,1.33854,0,0,0-1.20428.04992l-3.65178,2.10836c-.35643.20579-.39514.51708-.08647.69529l3.85576,2.22612a1.33848,1.33848,0,0,0,1.20428-.04992l3.65178-2.10835C520.74207,520.19241,520.78078,519.88112,520.4721,519.7029Z"/>
          <path class="cls-41" d="M514.34772,516.167l-3.85575-2.22612a1.33851,1.33851,0,0,0-1.20428.04992l-3.65179,2.10836c-.35643.20578-.39514.51707-.08646.69529l3.85575,2.22612a1.33854,1.33854,0,0,0,1.20428-.04992l3.65179-2.10836C514.61768,516.6565,514.6564,516.3452,514.34772,516.167Z"/>
          <path class="cls-41" d="M508.22334,512.63108l-3.85576-2.22613a1.33854,1.33854,0,0,0-1.20428.04992l-3.65178,2.10836c-.35643.20579-.39514.51708-.08647.69529l3.85576,2.22612a1.33848,1.33848,0,0,0,1.20428-.04992l3.65178-2.10835C508.4933,513.12058,508.532,512.80929,508.22334,512.63108Z"/>
          <path class="cls-41" d="M502.099,509.09516,498.2432,506.869a1.33854,1.33854,0,0,0-1.20428.04992l-3.65179,2.10836c-.35642.20578-.39514.51707-.08646.69529l3.85576,2.22612a1.33852,1.33852,0,0,0,1.20427-.04992l3.65179-2.10836C502.36892,509.58467,502.40763,509.27338,502.099,509.09516Z"/>
          <path class="cls-41" d="M495.97457,505.55925l-3.85576-2.22612a1.33846,1.33846,0,0,0-1.20427.04992l-3.65179,2.10835c-.35643.20579-.39514.51708-.08646.69529l3.85575,2.22613a1.33854,1.33854,0,0,0,1.20428-.04992l3.65178-2.10836C496.24453,506.04875,496.28324,505.73746,495.97457,505.55925Z"/>
          <path class="cls-41" d="M489.85018,502.02333l-3.85575-2.22612a1.33854,1.33854,0,0,0-1.20428.04992l-3.65178,2.10836c-.35643.20578-.39514.51708-.08647.69529l3.85576,2.22612a1.33854,1.33854,0,0,0,1.20428-.04992l3.65178-2.10836C490.12015,502.51284,490.15886,502.20155,489.85018,502.02333Z"/>
          <path class="cls-41" d="M483.7258,498.48742l-3.85575-2.22612a1.33848,1.33848,0,0,0-1.20428.04992l-3.65179,2.10835c-.35643.20579-.39514.51708-.08646.69529l3.85575,2.22613a1.33854,1.33854,0,0,0,1.20428-.04992l3.65179-2.10836C483.99577,498.97692,484.03448,498.66563,483.7258,498.48742Z"/>
          <path class="cls-41" d="M477.60142,494.9515l-3.85576-2.22612a1.33854,1.33854,0,0,0-1.20428.04992l-3.65178,2.10836c-.35643.20578-.39514.51708-.08646.69529l3.85575,2.22612a1.33848,1.33848,0,0,0,1.20428-.04992l3.65178-2.10836C477.87138,495.441,477.91009,495.12972,477.60142,494.9515Z"/>
          <path class="cls-41" d="M471.477,491.41559l-3.85575-2.22612a1.33848,1.33848,0,0,0-1.20428.04992l-3.65178,2.10836c-.35643.20578-.39514.51707-.08647.69529l3.85576,2.22612a1.33852,1.33852,0,0,0,1.20427-.04992l3.65179-2.10836C471.747,491.90509,471.78571,491.5938,471.477,491.41559Z"/>
          <path class="cls-41" d="M495.95191,498.5005l-3.85575-2.22612a1.33848,1.33848,0,0,0-1.20428.04992l-3.65179,2.10836c-.35642.20578-.39514.51707-.08646.69529l3.85575,2.22612a1.33854,1.33854,0,0,0,1.20428-.04992l3.65179-2.10836C496.22188,498.99,496.26059,498.67871,495.95191,498.5005Z"/>
          <path class="cls-41" d="M526.34666,516.04891l-28.12612-16.23862a1.33854,1.33854,0,0,0-1.20428.04992l-3.65178,2.10836c-.35643.20578-.39514.51708-.08647.69529l28.12612,16.23862a1.33848,1.33848,0,0,0,1.20428-.04992l3.65178-2.10836C526.61662,516.53842,526.65533,516.22713,526.34666,516.04891Z"/>
          <path class="cls-41" d="M489.82753,494.96458l-3.85576-2.22612a1.33854,1.33854,0,0,0-1.20428.04992l-3.65178,2.10836c-.35643.20578-.39514.51708-.08646.69529l3.85575,2.22612a1.33848,1.33848,0,0,0,1.20428-.04992l3.65178-2.10836C490.09749,495.45409,490.1362,495.1428,489.82753,494.96458Z"/>
          <path class="cls-41" d="M483.70314,491.42867l-3.85575-2.22612a1.33848,1.33848,0,0,0-1.20428.04992l-3.65178,2.10836c-.35643.20578-.39514.51707-.08647.69529l3.85576,2.22612a1.33854,1.33854,0,0,0,1.20428-.04992l3.65178-2.10836C483.97311,491.91817,484.01182,491.60688,483.70314,491.42867Z"/>
          <path class="cls-41" d="M477.57876,487.89275l-3.85575-2.22612a1.33854,1.33854,0,0,0-1.20428.04992l-3.65179,2.10836c-.35643.20579-.39514.51708-.08646.69529l3.85575,2.22612a1.33848,1.33848,0,0,0,1.20428-.04992l3.65179-2.10836C477.84872,488.38226,477.88744,488.071,477.57876,487.89275Z"/>
          <path class="cls-41" d="M526.59649,523.23882l-3.85576-2.22612a1.33848,1.33848,0,0,0-1.20428.04992l-3.65178,2.10836c-.35643.20578-.39514.51707-.08646.69529l3.85575,2.22612a1.33854,1.33854,0,0,0,1.20428-.04992l3.65178-2.10836C526.86645,523.72833,526.90516,523.417,526.59649,523.23882Z"/>
          <path class="cls-41" d="M532.40326,526.59136l-3.85576-2.22612a1.33848,1.33848,0,0,0-1.20428.04992l-3.65178,2.10836c-.35643.20578-.39514.51707-.08646.69529l3.85575,2.22612a1.33854,1.33854,0,0,0,1.20428-.04992l3.65178-2.10836C532.67322,527.08087,532.71193,526.76957,532.40326,526.59136Z"/>
          <path class="cls-41" d="M538.48242,530.10117l-3.85575-2.22612a1.33848,1.33848,0,0,0-1.20428.04992l-3.65179,2.10835c-.35643.20579-.39514.51708-.08646.69529l3.85575,2.22613a1.33854,1.33854,0,0,0,1.20428-.04992l3.65179-2.10836C538.75239,530.59067,538.7911,530.27938,538.48242,530.10117Z"/>
          <path class="cls-41" d="M544.61286,533.64058l-3.85576-2.22612a1.33851,1.33851,0,0,0-1.20428.04991l-3.65178,2.10836c-.35643.20579-.39514.51708-.08646.69529l3.85575,2.22612a1.33851,1.33851,0,0,0,1.20428-.04991l3.65178-2.10836C544.88282,534.13008,544.92153,533.81879,544.61286,533.64058Z"/>
          <path class="cls-41" d="M532.69821,519.716l-3.85575-2.22612a1.33851,1.33851,0,0,0-1.20428.04991l-3.65178,2.10836c-.35643.20579-.39514.51708-.08647.69529l3.85576,2.22612a1.33848,1.33848,0,0,0,1.20428-.04992l3.65178-2.10835C532.96818,520.20549,533.00689,519.8942,532.69821,519.716Z"/>
          <path class="cls-41" d="M538.505,523.06853l-3.85575-2.22612a1.33848,1.33848,0,0,0-1.20428.04992l-3.65178,2.10835c-.35643.20579-.39514.51708-.08647.69529l3.85576,2.22613a1.33854,1.33854,0,0,0,1.20428-.04992l3.65178-2.10836C538.775,523.558,538.81366,523.24674,538.505,523.06853Z"/>
          <path class="cls-41" d="M544.58415,526.57833l-3.85576-2.22612a1.33854,1.33854,0,0,0-1.20428.04992l-3.65178,2.10836c-.35643.20578-.39514.51708-.08646.69529l3.85575,2.22612a1.33848,1.33848,0,0,0,1.20428-.04992l3.65178-2.10836C544.85411,527.06784,544.89282,526.75655,544.58415,526.57833Z"/>
          <path class="cls-41" d="M550.71458,530.11774l-3.85575-2.22612a1.33854,1.33854,0,0,0-1.20428.04992l-3.65178,2.10836c-.35643.20578-.39514.51708-.08647.69529l3.85576,2.22612a1.33848,1.33848,0,0,0,1.20428-.04992l3.65178-2.10836C550.98455,530.60725,551.02326,530.296,550.71458,530.11774Z"/>
          <path class="cls-41" d="M463.00055,500.613l-7.44813-4.30018a1.33854,1.33854,0,0,0-1.20428.04992l-3.65178,2.10836c-.35643.20578-.39514.51708-.08647.69529l7.44813,4.30018a1.33848,1.33848,0,0,0,1.20428-.04992l3.65179-2.10836C463.27052,501.10253,463.30923,500.79124,463.00055,500.613Z"/>
        </g>
        <path class="cls-42" d="M549.27583,502.77674l-28.12611-16.23862a1.33848,1.33848,0,0,0-1.20428.04992l-16.77,9.71936c-.35643.20579-.39514.51708-.08646.6953l28.12612,16.23862a1.33852,1.33852,0,0,0,1.20427-.04992l16.77-9.71937C549.5458,503.26625,549.58451,502.955,549.27583,502.77674Z"/>
      </g>
      <g>
        <path class="cls-39" d="M522.89238,552.93013,486.575,510.03352a8.9816,8.9816,0,0,0-2.36329-1.97438l-86.14027-49.741a1.08014,1.08014,0,0,0-1.36469.20158l-.00528-.00836-2.29826,2.29888,4.32958,1.66118,34.25232,40.44945a8.98149,8.98149,0,0,0,2.36274,1.97369l82.539,47.66163,2.64545,4.19117,2.29826-2.29888-.012-.00459A1.08841,1.08841,0,0,0,522.89238,552.93013Z"/>
        <path class="cls-38" d="M394.4081,462.26106l36.33173,42.90507a8.981,8.981,0,0,0,2.36275,1.97369L519.229,556.87295a1.12261,1.12261,0,0,0,1.41816-1.69755l-36.31737-42.89663a8.98106,8.98106,0,0,0-2.36332-1.97436l-86.14022-49.741A1.12262,1.12262,0,0,0,394.4081,462.26106Z"/>
      </g>
    </g>
    <g>
      <path class="cls-13" d="M652.89793,556.83489l-69.28314,43.72967a3.31729,3.31729,0,0,1-3.32638.12459l-49.05112-26.047a3.31729,3.31729,0,0,1-.21448-5.73527l66.20482-41.77627a9.5826,9.5826,0,0,1,9.60546-.36064l45.84918,24.32941A3.31728,3.31728,0,0,1,652.89793,556.83489Z"/>
      <polygon class="cls-19" points="673.009 577.491 591.372 614.357 540.209 577.286 621.836 540.436 673.009 577.491"/>
    </g>
  </g>
</svg>
