<svg id="Layer_1" data-name="Layer 1" xmlns="http://www.w3.org/2000/svg" xmlns:xlink="http://www.w3.org/1999/xlink" viewBox="0 0 1000 1000">
  <defs>
    <style>
      .cls-1, .cls-18, .cls-19 {
        fill: none;
      }

      .cls-2 {
        fill: url(#linear-gradient);
      }

      .cls-3 {
        fill: #b8cbd8;
      }

      .cls-4 {
        fill: url(#linear-gradient-2);
      }

      .cls-5 {
        fill: #9bb0c4;
      }

      .cls-6 {
        fill: url(#linear-gradient-3);
      }

      .cls-7 {
        fill: url(#linear-gradient-4);
      }

      .cls-8 {
        fill: url(#linear-gradient-5);
      }

      .cls-9 {
        fill: url(#linear-gradient-6);
      }

      .cls-10 {
        fill: url(#linear-gradient-7);
      }

      .cls-11 {
        fill: #e58630;
      }

      .cls-12 {
        fill: url(#linear-gradient-8);
      }

      .cls-13, .cls-48 {
        opacity: 0.5;
      }

      .cls-14 {
        fill: url(#linear-gradient-9);
      }

      .cls-15 {
        fill: #748ca3;
      }

      .cls-16 {
        fill: #586c7f;
      }

      .cls-17 {
        fill: url(#linear-gradient-10);
      }

      .cls-18, .cls-19 {
        stroke-miterlimit: 10;
        stroke-width: 5px;
      }

      .cls-18 {
        stroke: url(#linear-gradient-11);
      }

      .cls-19 {
        stroke: url(#linear-gradient-12);
      }

      .cls-20 {
        fill: url(#linear-gradient-13);
      }

      .cls-21 {
        fill: url(#linear-gradient-14);
      }

      .cls-22 {
        fill: url(#linear-gradient-15);
      }

      .cls-23 {
        fill: url(#linear-gradient-16);
      }

      .cls-24 {
        fill: url(#linear-gradient-17);
      }

      .cls-25 {
        fill: url(#linear-gradient-18);
      }

      .cls-26 {
        fill: url(#linear-gradient-19);
      }

      .cls-27 {
        fill: url(#linear-gradient-20);
      }

      .cls-28 {
        fill: url(#linear-gradient-21);
      }

      .cls-29 {
        fill: url(#linear-gradient-22);
      }

      .cls-30 {
        fill: url(#linear-gradient-23);
      }

      .cls-31 {
        fill: url(#linear-gradient-24);
      }

      .cls-32 {
        fill: #ffcb48;
      }

      .cls-33 {
        fill: #34a521;
      }

      .cls-34 {
        fill: #e2e2e2;
      }

      .cls-35 {
        clip-path: url(#clip-path);
      }

      .cls-36 {
        fill: url(#linear-gradient-25);
      }

      .cls-37 {
        fill: url(#linear-gradient-26);
      }

      .cls-38 {
        fill: url(#linear-gradient-27);
      }

      .cls-39 {
        fill: #541510;
        opacity: 0.3;
      }

      .cls-40 {
        fill: url(#linear-gradient-28);
      }

      .cls-41 {
        fill: #bcd0e2;
      }

      .cls-42 {
        fill: #e9f1f4;
      }

      .cls-43 {
        fill: url(#linear-gradient-29);
      }

      .cls-44 {
        fill: url(#linear-gradient-30);
      }

      .cls-45 {
        fill: #f0f9fc;
      }

      .cls-46 {
        fill: #473634;
      }

      .cls-47 {
        fill: url(#linear-gradient-31);
      }

      .cls-48, .cls-50 {
        fill: #dd7b19;
      }

      .cls-49 {
        fill: url(#linear-gradient-32);
      }

      .cls-50 {
        opacity: 0.6;
      }

      .cls-51 {
        fill: url(#linear-gradient-33);
      }

      .cls-52 {
        fill: #a05452;
      }

      .cls-53 {
        fill: url(#linear-gradient-34);
      }

      .cls-54 {
        fill: #303d49;
      }

      .cls-55 {
        fill: #7a403f;
      }

      .cls-56 {
        fill: url(#linear-gradient-35);
      }

      .cls-57 {
        fill: url(#linear-gradient-36);
      }

      .cls-58 {
        fill: url(#linear-gradient-37);
      }

      .cls-59 {
        fill: url(#linear-gradient-38);
      }

      .cls-60 {
        fill: url(#linear-gradient-39);
      }

      .cls-61 {
        fill: #fff;
      }

      .cls-62 {
        fill: url(#linear-gradient-40);
      }

      .cls-63 {
        fill: url(#linear-gradient-41);
      }

      .cls-64 {
        opacity: 0.4;
        fill: url(#linear-gradient-42);
      }

      .cls-65 {
        fill: url(#linear-gradient-43);
      }

      .cls-66 {
        fill: url(#linear-gradient-44);
      }

      .cls-67 {
        fill: url(#linear-gradient-45);
      }

      .cls-68 {
        fill: url(#linear-gradient-46);
      }

      .cls-69 {
        fill: url(#linear-gradient-47);
      }

      .cls-70 {
        fill: url(#linear-gradient-48);
      }

      .cls-71 {
        fill: url(#linear-gradient-49);
      }

      .cls-72 {
        fill: url(#linear-gradient-50);
      }

      .cls-73 {
        fill: url(#linear-gradient-51);
      }

      .cls-74 {
        fill: url(#linear-gradient-52);
      }

      .cls-75 {
        fill: url(#linear-gradient-53);
      }

      .cls-76 {
        fill: url(#linear-gradient-54);
      }

      .cls-77 {
        fill: url(#linear-gradient-55);
      }

      .cls-78 {
        fill: url(#linear-gradient-56);
      }

      .cls-79 {
        fill: url(#linear-gradient-57);
      }

      .cls-80 {
        fill: url(#linear-gradient-58);
      }

      .cls-81 {
        fill: url(#linear-gradient-59);
      }

      .cls-82 {
        fill: url(#linear-gradient-60);
      }

      .cls-83 {
        fill: #ffbea4;
      }

      .cls-84 {
        fill: url(#linear-gradient-61);
      }

      .cls-85 {
        fill: url(#linear-gradient-62);
      }

      .cls-86 {
        fill: url(#linear-gradient-63);
      }

      .cls-87 {
        fill: url(#linear-gradient-64);
      }
    </style>
    <linearGradient id="linear-gradient" x1="521.50943" y1="396.22833" x2="928.15567" y2="396.22833" gradientUnits="userSpaceOnUse">
      <stop offset="0" stop-color="#e4edf2"/>
      <stop offset="1" stop-color="#c3d6e6"/>
    </linearGradient>
    <linearGradient id="linear-gradient-2" x1="114.87886" y1="711.22041" x2="928.15567" y2="711.22041" gradientUnits="userSpaceOnUse">
      <stop offset="0" stop-color="#dae9f2"/>
      <stop offset="0.99337" stop-color="#c4d5e6"/>
    </linearGradient>
    <linearGradient id="linear-gradient-3" x1="-916.23489" y1="188.87542" x2="-922.36255" y2="512.10947" gradientTransform="translate(1237.78726)" gradientUnits="userSpaceOnUse">
      <stop offset="0" stop-color="#293440"/>
      <stop offset="1" stop-color="#3e4c59"/>
    </linearGradient>
    <linearGradient id="linear-gradient-4" x1="-1089.94225" y1="396.19506" x2="-746.59953" y2="396.19506" gradientTransform="translate(1237.78726)" gradientUnits="userSpaceOnUse">
      <stop offset="0" stop-color="#5b6f82"/>
      <stop offset="1" stop-color="#849bb2"/>
    </linearGradient>
    <linearGradient id="linear-gradient-5" x1="-728.22582" y1="293.17671" x2="-1102.12283" y2="495.85551" gradientTransform="translate(1237.78726)" gradientUnits="userSpaceOnUse">
      <stop offset="0" stop-color="#62778c"/>
      <stop offset="1" stop-color="#435466"/>
    </linearGradient>
    <linearGradient id="linear-gradient-6" x1="-795.26524" y1="325.43067" x2="-933.74356" y2="400.49578" xlink:href="#linear-gradient-5"/>
    <linearGradient id="linear-gradient-7" x1="-906.73405" y1="389.7831" x2="-1045.21236" y2="464.84821" xlink:href="#linear-gradient-5"/>
    <linearGradient id="linear-gradient-8" x1="-1087.85405" y1="333.09678" x2="-912.4498" y2="569.01168" gradientTransform="translate(1237.78726)" gradientUnits="userSpaceOnUse">
      <stop offset="0.00005" stop-color="#ffcb48"/>
      <stop offset="1" stop-color="#e68e2b"/>
    </linearGradient>
    <linearGradient id="linear-gradient-9" x1="-910.12518" y1="230.45356" x2="-734.72093" y2="466.36846" xlink:href="#linear-gradient-8"/>
    <linearGradient id="linear-gradient-10" x1="-1298.99246" y1="240.09776" x2="-735.17368" y2="240.09776" xlink:href="#linear-gradient-4"/>
    <linearGradient id="linear-gradient-11" x1="8918.07187" y1="475.31353" x2="8984.87272" y2="505.83343" gradientTransform="translate(-8377.35491)" gradientUnits="userSpaceOnUse">
      <stop offset="0" stop-color="#3e4c59"/>
      <stop offset="1" stop-color="#293440"/>
    </linearGradient>
    <linearGradient id="linear-gradient-12" x1="8851.53879" y1="429.30395" x2="8927.0216" y2="463.79045" xlink:href="#linear-gradient-11"/>
    <linearGradient id="linear-gradient-13" x1="725.22175" y1="370.61972" x2="847.81411" y2="456.95236" gradientTransform="translate(-242.3977)" xlink:href="#linear-gradient-5"/>
    <linearGradient id="linear-gradient-14" x1="724.87096" y1="384.01489" x2="857.46014" y2="527.90676" gradientTransform="translate(-242.3977)" gradientUnits="userSpaceOnUse">
      <stop offset="0" stop-color="#62788c"/>
      <stop offset="1" stop-color="#526575"/>
    </linearGradient>
    <linearGradient id="linear-gradient-15" x1="711.79115" y1="365.93489" x2="791.94729" y2="490.97847" gradientTransform="translate(-242.3977)" gradientUnits="userSpaceOnUse">
      <stop offset="0" stop-color="#96b1cc"/>
      <stop offset="1" stop-color="#748ea6"/>
    </linearGradient>
    <linearGradient id="linear-gradient-16" x1="718.46368" y1="407.00607" x2="846.63183" y2="407.00607" gradientTransform="translate(-242.3977)" gradientUnits="userSpaceOnUse">
      <stop offset="0" stop-color="#526575"/>
      <stop offset="1" stop-color="#62788c"/>
    </linearGradient>
    <linearGradient id="linear-gradient-17" x1="718.46363" y1="386.24029" x2="846.6318" y2="386.24029" xlink:href="#linear-gradient-15"/>
    <linearGradient id="linear-gradient-18" x1="514.91155" y1="385.4919" x2="565.38856" y2="385.4919" gradientTransform="matrix(1, 0, 0, 1, 0, 0)" xlink:href="#linear-gradient-5"/>
    <linearGradient id="linear-gradient-19" x1="514.91153" y1="381.64595" x2="565.38857" y2="381.64595" gradientUnits="userSpaceOnUse">
      <stop offset="0" stop-color="#849bb2"/>
      <stop offset="1" stop-color="#5b6f82"/>
    </linearGradient>
    <linearGradient id="linear-gradient-20" x1="539.80912" y1="341.03581" x2="540.48118" y2="378.22327" gradientTransform="matrix(1, 0, 0, 1, 0, 0)" xlink:href="#linear-gradient-5"/>
    <linearGradient id="linear-gradient-21" x1="506.20709" y1="333.66652" x2="574.09305" y2="333.66652" gradientTransform="matrix(1, 0, 0, 1, 0, 0)" xlink:href="#linear-gradient-5"/>
    <linearGradient id="linear-gradient-22" x1="505.75169" y1="328.69073" x2="574.54846" y2="328.69073" gradientUnits="userSpaceOnUse">
      <stop offset="0.00844" stop-color="#ffc63f"/>
      <stop offset="1" stop-color="#e68a23"/>
    </linearGradient>
    <linearGradient id="linear-gradient-23" x1="532.73233" y1="315.91105" x2="547.56768" y2="315.91105" gradientTransform="matrix(1, 0, 0, 1, 0, 0)" xlink:href="#linear-gradient-11"/>
    <linearGradient id="linear-gradient-24" x1="532.73234" y1="310.18743" x2="547.56776" y2="310.18743" gradientTransform="matrix(1, 0, 0, 1, 0, 0)" xlink:href="#linear-gradient-5"/>
    <clipPath id="clip-path">
      <path class="cls-1" d="M435.98541,305.84375A194.17509,194.17509,0,1,1,364.93924,155.6819,193.78539,193.78539,0,0,1,435.98541,305.84375Z"/>
    </clipPath>
    <linearGradient id="linear-gradient-25" x1="193.6891" y1="-179.55418" x2="824.57813" y2="646.65654" gradientTransform="matrix(1, 0, 0, 1, 0, 0)" xlink:href="#linear-gradient-5"/>
    <linearGradient id="linear-gradient-26" x1="130.07655" y1="-131.61046" x2="755.31699" y2="687.20288" gradientTransform="matrix(1, 0, 0, 1, 0, 0)" xlink:href="#linear-gradient-14"/>
    <linearGradient id="linear-gradient-27" x1="-676.38616" y1="708.66053" x2="1004.67418" y2="1160.02345" gradientTransform="matrix(1, 0, 0, 1, 0, 0)" xlink:href="#linear-gradient-5"/>
    <linearGradient id="linear-gradient-28" x1="-1158.51729" y1="989.59329" x2="1062.59648" y2="1109.75191" gradientTransform="matrix(1, 0, 0, 1, 0, 0)" xlink:href="#linear-gradient-11"/>
    <linearGradient id="linear-gradient-29" x1="168.34367" y1="-317.61617" x2="1025.61865" y2="805.06902" gradientUnits="userSpaceOnUse">
      <stop offset="0" stop-color="#596c80"/>
      <stop offset="0.99886" stop-color="#3a4959"/>
    </linearGradient>
    <linearGradient id="linear-gradient-30" x1="174.53244" y1="1179.99946" x2="279.06838" y2="1343.07553" gradientTransform="matrix(1, 0, 0, 1, 0, 0)" xlink:href="#linear-gradient-11"/>
    <linearGradient id="linear-gradient-31" x1="-2.3737" y1="306.26576" x2="24.96106" y2="695.51278" gradientTransform="matrix(1, 0, 0, 1, 0, 0)" xlink:href="#linear-gradient-8"/>
    <linearGradient id="linear-gradient-32" x1="-1013.14513" y1="552.33683" x2="121.09923" y2="1185.04457" gradientTransform="matrix(1, 0, 0, 1, 0, 0)" xlink:href="#linear-gradient-8"/>
    <linearGradient id="linear-gradient-33" x1="12.84505" y1="305.19703" x2="40.17981" y2="694.44405" gradientTransform="matrix(1, 0, 0, 1, 0, 0)" xlink:href="#linear-gradient-8"/>
    <linearGradient id="linear-gradient-34" x1="244.93253" y1="288.89875" x2="272.26729" y2="678.14577" gradientTransform="matrix(1, 0, 0, 1, 0, 0)" xlink:href="#linear-gradient-8"/>
    <linearGradient id="linear-gradient-35" x1="-7676.63622" y1="273.57623" x2="-7582.28518" y2="426.21525" gradientTransform="matrix(0.99056, 0.00495, 0.08509, 1.00674, 7782.83025, -27.59449)" xlink:href="#linear-gradient-5"/>
    <linearGradient id="linear-gradient-36" x1="-7742.43392" y1="300.45367" x2="-7654.2438" y2="443.12569" gradientTransform="matrix(0.99056, 0.00495, 0.08509, 1.00674, 7854.24403, -27.23736)" xlink:href="#linear-gradient-5"/>
    <linearGradient id="linear-gradient-37" x1="884.47743" y1="403.4152" x2="909.26055" y2="466.26879" xlink:href="#linear-gradient-22"/>
    <linearGradient id="linear-gradient-38" x1="891.68474" y1="407.3511" x2="900.14185" y2="420.57726" gradientTransform="matrix(1, 0, 0, 1, 0, 0)" xlink:href="#linear-gradient-5"/>
    <linearGradient id="linear-gradient-39" x1="875.31142" y1="416.90389" x2="905.09595" y2="463.4842" gradientTransform="matrix(1, 0, 0, 1, 0, 0)" xlink:href="#linear-gradient-5"/>
    <linearGradient id="linear-gradient-40" x1="692.07474" y1="321.16965" x2="769.39381" y2="321.16965" gradientTransform="translate(-18.64021 -32.28579)" gradientUnits="userSpaceOnUse">
      <stop offset="0" stop-color="#435466"/>
      <stop offset="1" stop-color="#62778c"/>
    </linearGradient>
    <linearGradient id="linear-gradient-41" x1="702.49493" y1="317.1864" x2="766.0789" y2="317.1864" gradientTransform="translate(-18.64021 -32.28579)" gradientUnits="userSpaceOnUse">
      <stop offset="0" stop-color="#fff"/>
      <stop offset="0.98888" stop-color="#e6edf2"/>
    </linearGradient>
    <linearGradient id="linear-gradient-42" x1="711.60723" y1="319.11183" x2="754.71269" y2="319.11183" gradientTransform="translate(-18.64021 -32.28579)" xlink:href="#linear-gradient-5"/>
    <linearGradient id="linear-gradient-43" x1="692.07473" y1="321.16965" x2="769.39382" y2="321.16965" gradientTransform="translate(-18.64021 -32.28579)" xlink:href="#linear-gradient-19"/>
    <linearGradient id="linear-gradient-44" x1="709.04016" y1="242.52306" x2="788.54003" y2="347.60115" gradientTransform="translate(-18.64021 -32.28579)" xlink:href="#linear-gradient-5"/>
    <linearGradient id="linear-gradient-45" x1="677.5777" y1="217.56786" x2="795.46185" y2="373.37996" gradientTransform="translate(-18.64021 -32.28579)" xlink:href="#linear-gradient-5"/>
    <linearGradient id="linear-gradient-46" x1="792.11828" y1="358.86149" x2="766.43811" y2="298.64073" gradientTransform="translate(3.46411 6.00002)" xlink:href="#linear-gradient-40"/>
    <linearGradient id="linear-gradient-47" x1="725.58483" y1="263.80234" x2="764.92008" y2="263.80234" gradientTransform="translate(47.76727 82.73534)" xlink:href="#linear-gradient-41"/>
    <linearGradient id="linear-gradient-48" x1="715.16462" y1="267.78559" x2="768.235" y2="267.78559" gradientTransform="translate(47.76727 82.73534)" xlink:href="#linear-gradient-19"/>
    <linearGradient id="linear-gradient-49" x1="727.50088" y1="215.04567" x2="782.29632" y2="287.47095" gradientTransform="translate(47.76727 82.73534)" xlink:href="#linear-gradient-5"/>
    <linearGradient id="linear-gradient-50" x1="709.34241" y1="200.70012" x2="786.04322" y2="302.07858" gradientTransform="translate(47.76727 82.73534)" xlink:href="#linear-gradient-5"/>
    <linearGradient id="linear-gradient-51" x1="649.00031" y1="321.21408" x2="845.42669" y2="578.45358" gradientTransform="matrix(1, 0, 0, 1, 0, 0)" xlink:href="#linear-gradient-5"/>
    <linearGradient id="linear-gradient-52" x1="629.19464" y1="336.14129" x2="823.86234" y2="591.07762" gradientTransform="matrix(1, 0, 0, 1, 0, 0)" xlink:href="#linear-gradient-14"/>
    <linearGradient id="linear-gradient-53" x1="378.10366" y1="597.75843" x2="901.49933" y2="738.28961" gradientTransform="matrix(1, 0, 0, 1, 0, 0)" xlink:href="#linear-gradient-5"/>
    <linearGradient id="linear-gradient-54" x1="235.6032" y1="632.82306" x2="663.23654" y2="905.0741" gradientTransform="matrix(1, 0, 0, 1, 0, 0)" xlink:href="#linear-gradient-14"/>
    <linearGradient id="linear-gradient-55" x1="227.99284" y1="685.22643" x2="919.53335" y2="722.63764" gradientTransform="matrix(1, 0, 0, 1, 0, 0)" xlink:href="#linear-gradient-11"/>
    <linearGradient id="linear-gradient-56" x1="251.20368" y1="727.97016" x2="842.48804" y2="759.95768" gradientTransform="matrix(1, 0, 0, 1, 0, 0)" xlink:href="#linear-gradient-11"/>
    <linearGradient id="linear-gradient-57" x1="641.10905" y1="278.22868" x2="908.02036" y2="627.77507" xlink:href="#linear-gradient-29"/>
    <linearGradient id="linear-gradient-58" x1="643.03592" y1="744.50911" x2="675.58303" y2="795.28261" gradientTransform="matrix(1, 0, 0, 1, 0, 0)" xlink:href="#linear-gradient-11"/>
    <linearGradient id="linear-gradient-59" x1="587.95645" y1="472.47341" x2="596.46709" y2="593.6649" gradientTransform="matrix(1, 0, 0, 1, 0, 0)" xlink:href="#linear-gradient-8"/>
    <linearGradient id="linear-gradient-60" x1="273.25424" y1="549.08727" x2="626.39956" y2="746.0799" gradientTransform="matrix(1, 0, 0, 1, 0, 0)" xlink:href="#linear-gradient-8"/>
    <linearGradient id="linear-gradient-61" x1="592.69478" y1="472.14066" x2="601.20542" y2="593.33215" gradientTransform="matrix(1, 0, 0, 1, 0, 0)" xlink:href="#linear-gradient-8"/>
    <linearGradient id="linear-gradient-62" x1="664.95488" y1="467.06621" x2="673.46552" y2="588.2577" gradientTransform="matrix(1, 0, 0, 1, 0, 0)" xlink:href="#linear-gradient-8"/>
    <linearGradient id="linear-gradient-63" x1="-7242.38962" y1="502.52421" x2="-7213.01357" y2="550.04815" gradientTransform="matrix(0.99056, 0.00495, 0.08509, 1.00674, 7782.83025, -27.59449)" xlink:href="#linear-gradient-5"/>
    <linearGradient id="linear-gradient-64" x1="-7312.52354" y1="510.89246" x2="-7285.06567" y2="555.31319" gradientTransform="matrix(0.99056, 0.00495, 0.08509, 1.00674, 7854.24403, -27.23736)" xlink:href="#linear-gradient-5"/>
  </defs>
  <g>
    <g>
      <polygon class="cls-2" points="521.509 81.236 928.156 316.004 928.156 711.22 521.509 476.43 521.509 81.236"/>
      <polygon class="cls-3" points="521.525 81.236 114.879 316.004 114.879 711.22 521.525 476.43 521.525 81.236"/>
    </g>
    <path class="cls-4" d="M121.896,723.3864l378.58059,218.564a42.10143,42.10143,0,0,0,42.1011-.00062l378.5612-218.56743a14.03381,14.03381,0,0,0,.00016-24.307L542.5613,480.49136a42.10144,42.10144,0,0,0-42.10408.00053l-378.562,218.58744A14.03381,14.03381,0,0,0,121.896,723.3864Z"/>
    <path class="cls-5" d="M226.3809,766.56781,459.93617,901.383a25.8435,25.8435,0,0,0,25.846-.002l376.022-217.16324a12.92175,12.92175,0,0,0-.00084-22.37988L628.33138,527.04226a25.84349,25.84349,0,0,0-25.8448-.00074l-376.10591,217.145A12.92174,12.92174,0,0,0,226.3809,766.56781Z"/>
  </g>
  <g>
    <g>
      <path class="cls-6" d="M495.0292,461.80623,151.68013,660.03582l-11.46525-6.61724V330.59447L483.564,132.35338l11.46525-2.15873Z"/>
      <polygon class="cls-7" points="491.188 135.665 487.246 137.94 487.252 456.375 147.845 652.319 147.845 656.725 491.188 458.506 491.188 135.665"/>
      <path class="cls-8" d="M136.357,327.271V676.623L502.676,465.13872V115.76621Zm11.48824,6.6326L491.18773,135.66491l0,322.84091L147.84525,656.7252Z"/>
    </g>
    <polygon class="cls-9" points="375.783 520.728 370.783 523.615 370.783 205.199 375.783 202.312 375.783 520.728"/>
    <polygon class="cls-10" points="264.314 585.08 259.314 587.967 259.314 269.551 264.314 266.664 264.314 585.08"/>
    <g>
      <path class="cls-11" d="M320.03935,241.7198l-172.1941,99.549V654.67317a2.97181,2.97181,0,0,0,1.50513,2.60065l-.00024.00018,3.38843,1.94965-.40357-1.94727.01-.005,163.20081-94.20411a9,9,0,0,0,4.50073-7.79486L323.43046,243.672Z"/>
      <path class="cls-12" d="M323.4376,557.22459,323.43049,243.672,151.23636,343.221V656.62532a3,3,0,0,0,4.49977,2.59821l163.20076-94.2041A9,9,0,0,0,323.4376,557.22459Z"/>
      <g>
        <g class="cls-13">
          <polygon class="cls-11" points="173.048 649.203 170.749 650.53 170.749 331.939 173.048 330.611 173.048 649.203"/>
        </g>
        <g class="cls-13">
          <polygon class="cls-11" points="194.86 636.593 192.56 637.921 192.56 319.329 194.86 318.002 194.86 636.593"/>
        </g>
        <g class="cls-13">
          <polygon class="cls-11" points="216.671 623.984 214.372 625.311 214.372 306.72 216.671 305.392 216.671 623.984"/>
        </g>
        <g class="cls-13">
          <polygon class="cls-11" points="238.483 611.374 236.184 612.702 236.184 294.11 238.483 292.783 238.483 611.374"/>
        </g>
        <g class="cls-13">
          <polygon class="cls-11" points="260.295 598.765 257.995 600.092 257.995 281.501 260.295 280.173 260.295 598.765"/>
        </g>
        <g class="cls-13">
          <polygon class="cls-11" points="282.106 586.155 279.807 587.482 279.807 268.891 282.106 267.564 282.106 586.155"/>
        </g>
        <g class="cls-13">
          <polygon class="cls-11" points="303.918 573.545 301.619 574.873 301.619 256.282 303.918 254.954 303.918 573.545"/>
        </g>
      </g>
    </g>
    <g>
      <path class="cls-11" d="M497.76821,139.07658l-172.19409,99.549V552.03a2.97181,2.97181,0,0,0,1.50513,2.60065l-.00024.00018,3.38842,1.94965-.40356-1.94727.01-.005,163.2008-94.2041a9,9,0,0,0,4.50074-7.79486l3.38391-311.60046Z"/>
      <path class="cls-14" d="M501.16647,454.58136l-.00712-313.55261-172.19412,99.549V553.98209a3,3,0,0,0,4.49976,2.59822l163.20076-94.2041A9,9,0,0,0,501.16647,454.58136Z"/>
      <g>
        <g class="cls-13">
          <polygon class="cls-11" points="350.777 546.56 348.478 547.887 348.478 229.296 350.777 227.968 350.777 546.56"/>
        </g>
        <g class="cls-13">
          <polygon class="cls-11" points="372.589 533.95 370.289 535.278 370.289 216.686 372.589 215.359 372.589 533.95"/>
        </g>
        <g class="cls-13">
          <polygon class="cls-11" points="394.4 521.34 392.101 522.668 392.101 204.077 394.4 202.749 394.4 521.34"/>
        </g>
        <g class="cls-13">
          <polygon class="cls-11" points="416.212 508.731 413.913 510.058 413.913 191.467 416.212 190.139 416.212 508.731"/>
        </g>
        <g class="cls-13">
          <polygon class="cls-11" points="438.024 496.121 435.724 497.449 435.724 178.857 438.024 177.53 438.024 496.121"/>
        </g>
        <g class="cls-13">
          <polygon class="cls-11" points="459.835 483.512 457.536 484.839 457.536 166.248 459.835 164.92 459.835 483.512"/>
        </g>
        <g class="cls-13">
          <polygon class="cls-11" points="481.647 470.902 479.348 472.23 479.348 153.638 481.647 152.311 481.647 470.902"/>
        </g>
      </g>
    </g>
    <g>
      <path class="cls-15" d="M498.691,132.33943v6.03443l-14.83479,8.56338V140.018a3.36191,3.36191,0,0,1,1.68117-2.91162l10.70616-6.18012A1.63171,1.63171,0,0,1,498.691,132.33943Z"/>
      <path class="cls-16" d="M156.28676,330.29116v6.03443L141.452,344.889v-6.91922a3.36193,3.36193,0,0,1,1.68116-2.91162L153.8393,328.878A1.63171,1.63171,0,0,1,156.28676,330.29116Z"/>
      <path class="cls-17" d="M506.42655,138.88379,143.80033,348.28887l-3.92587-6.79981L502.51387,132.07637l.00179.0031a1.97737,1.97737,0,0,1,1.95074.20783,6.13755,6.13755,0,0,1,2.78517,4.8041A1.92627,1.92627,0,0,1,506.42655,138.88379Z"/>
      <ellipse class="cls-16" cx="141.83739" cy="344.88896" rx="2.26305" ry="3.92587" transform="translate(-153.44187 117.12506) rotate(-30)"/>
    </g>
  </g>
  <g>
    <g>
      <path class="cls-18" d="M547.95157,464.95057v76.9897a1.741,1.741,0,0,0,2.61106,1.50791L599.38919,515.278a5.22281,5.22281,0,0,0,2.61249-4.52372V437.26664"/>
      <path class="cls-19" d="M478.63242,425.03905v76.9897a1.741,1.741,0,0,0,2.61106,1.50791L544.32415,467.137a5.22282,5.22282,0,0,0,2.61248-4.52372V389.12561"/>
      <g>
        <path class="cls-20" d="M604.23409,398.14839v41.964a3.498,3.498,0,0,1-1.74672,3.04229L550.78528,473.049a6.99683,6.99683,0,0,1-3.508.93164l-14.2541-75.83226Z"/>
        <path class="cls-21" d="M547.27726,398.14839v75.83226a6.99716,6.99716,0,0,1-3.50837-.93164l-65.94144-38.12382a3.4824,3.4824,0,0,1-1.76147-3.04229v-41.964Z"/>
        <polygon class="cls-22" points="541.893 462.729 481.45 427.799 481.471 401.037 541.893 435.979 541.893 462.729"/>
        <path class="cls-23" d="M476.066,382.12553v7.65773a3.47235,3.47235,0,0,0,1.75076,3.03443l65.95178,38.12776a7.01028,7.01028,0,0,0,7.017,0l51.69781-29.89824a3.47235,3.47235,0,0,0,1.75076-3.03443V390.355Z"/>
        <path class="cls-24" d="M602.48333,387.32062l-65.95189-38.12771a7.01,7.01,0,0,0-7.017,0l-51.69779,29.8982a3.505,3.505,0,0,0,0,6.06884l65.95189,38.12771a7.01,7.01,0,0,0,7.017,0l51.69779-29.8982A3.505,3.505,0,0,0,602.48333,387.32062Z"/>
      </g>
    </g>
    <g>
      <g>
        <path class="cls-25" d="M564.68837,382.13971C562.0587,375.72354,552.084,370.9433,540.15,370.9433s-21.9087,4.78024-24.53826,11.19641h-.70019v3.35219c0,8.035,11.2996,14.54861,25.23845,14.54861s25.23856-6.51363,25.23856-14.54861v-3.35219Z"/>
        <ellipse class="cls-26" cx="540.15005" cy="381.64595" rx="25.23852" ry="14.54865"/>
      </g>
      <path class="cls-27" d="M536.843,341.16349v37.46434c0,1.05282,1.48059,1.90631,3.307,1.90631s3.307-.85349,3.307-1.90631V341.16349Z"/>
      <path class="cls-28" d="M506.20709,308.35523v31.11514c0,10.77367,15.19673,19.50744,33.943,19.50744s33.943-8.73377,33.943-19.50744V308.35523Z"/>
      <path class="cls-29" d="M505.75169,303.03984v31.53261c0,10.91822,15.40062,19.76917,34.39838,19.76917s34.39839-8.85095,34.39839-19.76917V303.03984Z"/>
      <g>
        <ellipse class="cls-11" cx="540.15005" cy="303.03994" rx="34.3984" ry="19.76919"/>
        <path class="cls-30" d="M532.73233,320.80523a33.58124,33.58124,0,0,0,14.83535,0V310.18739H532.73233Z"/>
        <ellipse class="cls-31" cx="540.15005" cy="310.18743" rx="7.41771" ry="4.27591"/>
        <path class="cls-32" d="M540.15,284.96619c18.03246,0,32.70278,8.10781,32.70278,18.0737S558.1825,321.11374,540.15,321.11374s-32.70279-8.108-32.70279-18.07385,14.67032-18.0737,32.70279-18.0737m0-1.69547c-18.99763,0-34.39839,8.851-34.39839,19.76917,0,10.91832,15.40076,19.76931,34.39839,19.76931s34.39838-8.851,34.39838-19.76931c0-10.91818-15.40076-19.76917-34.39838-19.76917Z"/>
      </g>
    </g>
  </g>
  <g>
    <path class="cls-33" d="M241.7915,113.44029a191.74878,191.74878,0,1,1-74.8872,15.113,191.18371,191.18371,0,0,1,74.8872-15.113m0-17.54223c-115.95068,0-209.94726,93.99682-209.94726,209.94751S125.84082,515.79308,241.7915,515.79308c115.95118,0,209.94776-93.99683,209.94776-209.94751S357.74268,95.89806,241.7915,95.89806Z"/>
    <circle class="cls-34" cx="241.79174" cy="305.84555" r="194.19259"/>
    <path class="cls-34" d="M435.98541,305.84375A194.17509,194.17509,0,1,1,364.93924,155.6819,193.78539,193.78539,0,0,1,435.98541,305.84375Z"/>
  </g>
  <g class="cls-35">
    <g>
      <g>
        <g>
          <g>
            <path class="cls-36" d="M857.43288,232.73975,148.163-186.819a10.8119,10.8119,0,0,0-11.79284.46678v-.00044L70.59539-148.30657,138.132-108.80248V208.57334L873.4995,595.05173V260.90115A32.71417,32.71417,0,0,0,857.43288,232.73975Z"/>
            <path class="cls-37" d="M65.4339-139.0379V250.68129L807.22426,633.44564V299.29523a32.71359,32.71359,0,0,0-16.06685-28.16141L81.88735-148.425A10.90453,10.90453,0,0,0,65.4339-139.0379Z"/>
            <path class="cls-38" d="M807.22372,299.29523V665.25049L-361.08813,903.28108l-35.40381,744.43276a68.08142,68.08142,0,0,0,34.25593-9.10775L856.57509,934.14956c11.96233-6.93292,16.915-19.27906,16.915-31.18881l.00976-242.60326V260.90128Z"/>
            <g>
              <path class="cls-39" d="M807.22426,596.052V724.00188l-.034-.034a33.63148,33.63148,0,0,1-16.89,30.89136l-1152.5455,665.39171a67.741,67.741,0,0,1-34.25595,9.10769l35.4038-630.094Z"/>
              <path class="cls-40" d="M807.22426,646.72357V774.67349l-.034-.034a33.63148,33.63148,0,0,1-16.89,30.89136l-1152.5455,665.39171a67.741,67.741,0,0,1-34.25595,9.10769l35.4038-630.094Z"/>
              <path class="cls-41" d="M484.21536,601.72307-361.07513,777.56923l-35.40381,630.07338a67.71961,67.71961,0,0,0,34.24069-9.11821L380.96917,969.1536,790.27943,733.13946a33.61358,33.61358,0,0,0,16.89656-30.8613h.06434V574.305Z"/>
              <path class="cls-42" d="M790.29287,545.15244,105.11578,149.701a67.96861,67.96861,0,0,0-67.97158-.002L-390.38835,396.18768h0l-725.23189,418.856a33.512,33.512,0,0,0-15.93,20.92413,34.55467,34.55467,0,0,0-1.062,8.5075,33.66525,33.66525,0,0,0,16.99272,29.43092l480.53339,277.42328L-430.224,1269.40894a67.97043,67.97043,0,0,0,12.28159,5.54917,67.94227,67.94227,0,0,0,17.30877,3.4142q2.19648.14213,4.3979.14195a67.92239,67.92239,0,0,0,33.98685-9.11044L790.295,604.01111C812.94629,590.92912,812.94558,558.23265,790.29287,545.15244Z"/>
              <path class="cls-41" d="M360.84005,507.15643S318.19782,668.91281,297.4234,703.9013s-46.4691,54.12283-46.4691,54.12283l-97.85845-134.487L329.04771,499.61722Z"/>
            </g>
          </g>
          <path class="cls-43" d="M856.57509,211.59627V934.14956l-19.15481,11.07683V211.59627a23.98085,23.98085,0,0,0-11.74137-20.60951L98.674-239.06543a1.42484,1.42484,0,0,0-1.59912,0,1.455,1.455,0,0,0-.79956,1.38126v74.55048l-19.1557,11.05007v-85.60055a20.54809,20.54809,0,0,1,10.46793-18.02891,20.54571,20.54571,0,0,1,20.82848.1817L835.42094,174.5208A43.23764,43.23764,0,0,1,856.57509,211.59627Z"/>
        </g>
        <path class="cls-44" d="M768.31488,922.81366-302.32746,1541.59481a32.7136,32.7136,0,0,0-16.3369,28.31931v43.4953L784.64492,975.74517l.03339-43.48337A10.90453,10.90453,0,0,0,768.31488,922.81366Z"/>
      </g>
      <g>
        <path class="cls-41" d="M81.75005,315.03082c.71691-.77337,140.1302-80.73494,140.1302-80.73494-.72544-4.84079-1.879-10.56751,1.23474-12.1863,3.53458-1.83728,10.7696,1.72635,14.57177,6.15164C286.054,218.049,308.2913,218.22394,404.5052,272.92564,529.20012,343.82,536.77141,375.56183,564.68511,425.07736c8.67876,4.12194,13.30593,6.90769,11.32286,12.10146-1.83554,4.80736-13.91694,7.29488-20.02316,5.17182L424.42075,517.89471c1.25357,5.56034-.86584,13.00273-4.36749,14.755-4.60172,2.30336-11.1835-2.47058-14.12613-11.73328l-.00324-.00735c-57.35577-2.377-135.45343-37.29906-187.29443-69.9904-43.08071-27.16746-116.41557-70.83532-136.16808-117.42455-7.61346-.01764-15.03623-3.82277-15.32471-8.64238C66.84379,319.94893,73.999,315.85154,81.75005,315.03082Z"/>
        <path class="cls-45" d="M68.75134,281.42439c.71691-.77337,140.13019-80.73494,140.13019-80.73494-.72544-4.84079-1.879-10.56751,1.23475-12.1863,3.53458-1.83728,10.76959,1.72635,14.57177,6.15164,48.36726-10.21223,70.60453-10.03728,166.81843,44.66442C516.2014,310.21358,523.77269,341.9554,551.6864,391.47093c8.67875,4.12194,13.30593,6.90769,11.32286,12.10146-1.83554,4.80736-13.91694,7.29488-20.02316,5.17182L411.422,484.28827c1.25357,5.56035-.86584,13.00274-4.36748,14.755-4.60172,2.30336-11.1835-2.47058-14.12613-11.73328l-.00324-.00735c-57.35578-2.377-135.45343-37.29907-187.29443-69.9904C162.55,390.14481,89.21517,346.477,69.46266,299.88772c-7.61346-.01764-15.03623-3.82277-15.3247-8.64239C53.84508,286.3425,61.00026,282.24511,68.75134,281.42439Z"/>
        <path class="cls-46" d="M365.50737,243.9862c24.45276,67.46922-7.98818,133.49464-18.39373,162.86057-11.90375,33.59475-3.32929,55.43988-30.398,123.32806L99.44355,368.19807,87.28434,322.46819c22.87083-27.225,52.07687-29.09741,65.13831-37.47285,17.926-11.49473,52.41374-64.20789,52.41374-64.20789Z"/>
        <path class="cls-47" d="M244.97007,393.29772C181.8116,339.03943,101.53584,279.37711,14.70339,364.50719c-25.57117,33.88109-50.76753,70.80465-75.682,110.02181l-217.036,58.9406c-119.38981,73.63227,109.9212,197.83872,216.38618,194.358l165.89366-59.9835L338.89248,535.3084C353.55832,475.00759,287.93513,430.20821,244.97007,393.29772Z"/>
        <path class="cls-48" d="M241.27323,529.13142l-57.24232,41.25479C118.91934,509.53323,58.85,468.057-31.40686,429.23236l-25.415,38.59985-209.92454,59.74791C-397.40462,607.10252-168.093,731.30765-61.62821,727.827L79.62452,646.09467l110.33524-3.1833,22.31141-20.72858Z"/>
        <path class="cls-49" d="M-446.02787,408.0919l15.98171-9.40374a170.34636,170.34636,0,0,1,121.39588-20.00649c221.3809,46.513,500.5008,186.58815,575.44274,371.19654,54.835,135.078,60.76858,224.86475,58.51285,270.13655a87.80129,87.80129,0,0,1-24.54717,56.44083c-163.46671,170.24685-480.30341,344.6705-656.88456,387.80072a85.75351,85.75351,0,0,1-44.23927-.87713c-302.0815-87.64274-625.07-284.78715-756.7049-414.87031a87.335,87.335,0,0,1-24.07084-80.16748c9.09678-43.18546,25.12419-107.16113,46.10065-142.42066C-1101.39242,769.36088-446.02787,408.0919-446.02787,408.0919Z"/>
        <path class="cls-50" d="M-80.13468,640.27647l38.63944,15.95743c7.358,3.03834,17.84839,5.68148,25.87621,5.51407l38.19817-2.35379C60.761,695.79451,154.577,781.92594,189.99171,784.456c22.06372,1.57573,46.71784-27.70188,66.10372-57.91771C241.047,696.93308,220.82936,668.5788,196.573,641.69145L182.92465,676.2567,37.4374,602.608,18.07152,586.72113A49.24,49.24,0,0,0-3.28393,575.2625l-35.8436-10.2832a9.65562,9.65562,0,0,0-11.52763,6.4266c-1.43027,4.46489,4.14477,10.86641,8.296,13.04828l-39.048,4.205A11.89826,11.89826,0,0,0-93.9273,601.2726l1.33127,21.564A20.21594,20.21594,0,0,0-80.13468,640.27647Z"/>
        <path class="cls-51" d="M62.6481,319.81447c-25.42133,2.28944-74.7621,8.1094-148.36095,31.0706-39.22385,11.74529-15.13509,100.03376,18.34964,94.799l28.06254-4.56993C19.68649,370.47966,80.89406,323.9328,139.06153,326.73133,115.31348,320.59387,88.06943,317.525,62.6481,319.81447Z"/>
        <path class="cls-52" d="M18.07138,562.64978A49.23919,49.23919,0,0,0-3.2841,551.19016L-39.1277,540.9075a9.65642,9.65642,0,0,0-11.52783,6.42578l0,0c-1.43008,4.46578,4.14516,10.86789,8.29653,13.04834l10.23133-1.1019-49.27924,5.3073a11.89788,11.89788,0,0,0-12.51989,12.61328l1.3308,21.56409a20.2164,20.2164,0,0,0,12.46148,17.44049l38.63942,15.95666c7.35776,3.03849,17.8484,5.68193,25.876,5.51422L31.35231,634.782,49.006,588.02588Z"/>
        <path class="cls-53" d="M223.85487,537.19417s-15.17385,30.73364-30.34159,63.96335c-27.68506,59.23609,77.102,95.87668,98.40515,61.35921,16.87845-31.24209,36.35523-79.76605,47.83583-130.78951C351.35011,475.73654,254.75466,480.67106,223.85487,537.19417Z"/>
        <ellipse class="cls-54" cx="242.90387" cy="631.27464" rx="35.91737" ry="49.71391" transform="translate(-432.11828 588.20422) rotate(-65.30325)"/>
        <path class="cls-52" d="M199.048,619.95835l-16.6262,37.25806L42.57531,582.75068l-24.398,52.843s126.87517,121.57914,171.815,124.79019c32.77624,2.34144,50.91133-28.23866,64.20421-54.53418l27.40876-54.21908C295.74529,617.90006,220.006,578.56549,199.048,619.95835Z"/>
        <g>
          <path class="cls-52" d="M169.45869,429.23236c37.08077,27.426,90.00712,16.79,96.0395-18.75578-7.11959-5.91947-14.08118-11.64055-20.52837-17.17893-17.4275-14.97157-36.16137-30.35011-55.97422-42.98887a47.01926,47.01926,0,0,0-16.2454,4.55115C143.174,370.05968,141.08931,408.24957,169.45869,429.23236Z"/>
          <path class="cls-55" d="M197.0132,364.41261c-6.91116,8.34512-10.87327,18.46751-3.92009,29.1516,14.10888,21.67936,48.12943,25.2246,60.07739,8.89189l31.29-43.74194-55.29256-32.51507Z"/>
        </g>
        <g>
          <path class="cls-46" d="M194.71824,243.13089c8.09993-36.55886,51.36267-63.56124,104.7721-52.69,80.6829,16.42263,85.47972,101.2155,51.40449,148.31213-26.21454,36.23209-63.04609,41.75136-63.04609,41.75136l-29.04218,8.111c-.55826-11.93427,18.1548-39.40263,18.1548-39.40263S181.19837,304.15245,194.71824,243.13089Z"/>
          <g>
            <path class="cls-52" d="M340.14109,294.32719c19.41937-26.56794,6.61535-69.68276-26.128-89.49517-28.61723-17.3158-72.46313-11.54034-91.66062,20.15206,0,0-23.16738,39.4216-37.402,73.10987s-20.071,75.95417,15.37381,87.639c39.00254,12.85769,72.10514,6.77135,93.55418-24.25406Z"/>
            <path class="cls-46" d="M234.52151,207.76955l-31.74823,44.19229c6.80956,2.45027,12.97749-.51417,32.07552-16.37994-18.713,32.41974,11.45408,67.12123,43.85192,76.30308,0,0-7.79729,11.88336-5.12381,23.00355,2.90471,12.082,19.12772,26.71652,34.83856,17.72676C414.57613,232.565,293.30559,153.77992,234.52151,207.76955Z"/>
            <path class="cls-56" d="M291.32625,359.38288c3.12524-1.2417,6.279-2.66242,9.39343-4.26734-1.6695-16.03247-6.367-30.42408-14.08157-42.83907l-8.158,4.71737C286.05953,329.19994,290.25128,343.12258,291.32625,359.38288Z"/>
            <path class="cls-57" d="M296.67808,333.54178c-16.87348,14.83917-35.069,8.39081-61.25547-22.64356-7.7908-9.23312-13.33682-16.84456-19.8917-20.58355-10.74769-6.13063-19.37976-4.66135-25.64222-3.38207-1.121-4.05686-1.10894-7.999.68135-13.766,8.47-27.28422,41.20976-45.772,80.06272-17.7108S313.76443,318.5154,296.67808,333.54178Z"/>
            <path class="cls-52" d="M279.147,375.37473c12.26578,5.56122,30.3561-6.88389,36.6667-20.80249s-.42964-31.09628-13.814-29.60124C285.198,326.84775,266.88123,369.81352,279.147,375.37473Z"/>
          </g>
        </g>
        <path class="cls-48" d="M-64.40686,445.20219l25.10618-4.08851a564.05012,564.05012,0,0,1,50.24648-53.3795Z"/>
      </g>
    </g>
  </g>
  <g>
    <ellipse class="cls-11" cx="895.56805" cy="404.45656" rx="9.91662" ry="5.7164"/>
    <path class="cls-58" d="M905.48461,404.459c-.00257,3.156-4.44124,5.71409-9.91678,5.71409-5.47681,0-9.91634-2.55939-9.91634-5.71666v53.52265c0,3.15716,4.43953,5.71644,9.91634,5.71644s9.91678-2.55928,9.91678-5.71644V404.459Z"/>
    <path class="cls-59" d="M905.48461,410.95336c-.00257,3.156-4.44124,5.71409-9.91678,5.71409-5.47681,0-9.91634-2.55939-9.91634-5.71666v3.91979c0,3.15715,4.43953,5.71644,9.91634,5.71644s9.91678-2.55929,9.91678-5.71644Z"/>
    <path class="cls-60" d="M905.48461,446.11254c-.00257,3.156-4.44124,5.71409-9.91678,5.71409-5.47681,0-9.91634-2.55939-9.91634-5.71666v3.91978c0,3.15716,4.43953,5.71644,9.91634,5.71644s9.91678-2.55928,9.91678-5.71644Z"/>
    <path class="cls-32" d="M895.56812,400.05577c5.0686,0,8.60083,2.31934,8.60083,4.40088s-3.53223,4.40064-8.60083,4.40064c-5.06885,0-8.60108-2.31909-8.60108-4.40064s3.53223-4.40088,8.60108-4.40088m0-1.31567c-5.47681,0-9.91675,2.55933-9.91675,5.71655,0,3.157,4.43994,5.71631,9.91675,5.71631s9.9165-2.55933,9.9165-5.71631c0-3.15722-4.4397-5.71655-9.9165-5.71655Z"/>
  </g>
  <g>
    <circle class="cls-33" cx="105.34043" cy="169.43726" r="62.02326"/>
    <g>
      <rect class="cls-61" x="84.28363" y="160.79502" width="13.46241" height="40.4658" transform="translate(-101.34844 117.37906) rotate(-45)"/>
      <rect class="cls-61" x="110.49446" y="143.61416" width="13.46241" height="60.59444" transform="translate(77.14282 379.77635) rotate(-135)"/>
    </g>
  </g>
  <g>
    <g>
      <polygon class="cls-62" points="750.714 265.91 750.754 356.612 673.474 311.858 673.435 221.156 750.714 265.91"/>
      <polygon class="cls-63" points="747.408 264.001 747.439 342.629 683.885 305.8 683.855 227.172 747.408 264.001"/>
      <polygon class="cls-64" points="736.052 272.657 736.072 325.962 692.988 300.995 692.967 247.69 736.052 272.657"/>
      <path class="cls-65" d="M746.41632,349.10536,677.804,309.35585l-.0322-80.69349,68.61233,39.74952.03218,80.69348m4.33729,7.5063-.03922-90.70188-77.27987-44.75372.03924,90.70189,77.27985,44.75371Z"/>
      <polygon class="cls-66" points="678.325 218.325 755.605 263.079 750.714 265.91 673.435 221.156 678.325 218.325"/>
      <polygon class="cls-67" points="755.605 263.079 755.628 353.79 750.754 356.612 750.714 265.91 755.605 263.079"/>
    </g>
    <g>
      <polygon class="cls-68" points="815.963 336.547 816.002 395.249 762.971 364.495 762.932 305.793 815.963 336.547"/>
      <polygon class="cls-69" points="812.657 334.638 812.687 381.266 773.383 358.437 773.352 311.809 812.657 334.638"/>
      <path class="cls-70" d="M811.665,387.74243l-44.3636-25.74951-.0322-48.69349,44.36362,25.74951.03218,48.69349m4.33729,7.5063-.03922-58.70188-53.03116-30.75372.03924,58.70188,53.03114,30.75372Z"/>
      <polygon class="cls-71" points="767.823 302.962 820.854 333.716 815.963 336.547 762.932 305.793 767.823 302.962"/>
      <polygon class="cls-72" points="820.854 333.716 820.876 392.427 816.002 395.249 815.963 336.547 820.854 333.716"/>
    </g>
  </g>
  <g>
    <g>
      <g>
        <g>
          <path class="cls-73" d="M855.656,449.58119l-220.83015-130.629a3.3663,3.3663,0,0,0-3.67169.14533v-.00013L610.67527,330.943l21.02742,12.29954V442.057L860.65829,562.3865V458.3492A10.18553,10.18553,0,0,0,855.656,449.58119Z"/>
          <path class="cls-74" d="M609.06825,333.82876V455.16727L840.02359,574.34038V470.30314a10.18534,10.18534,0,0,0-5.00239-8.768L614.191,330.90609A3.3951,3.3951,0,0,0,609.06825,333.82876Z"/>
          <path class="cls-75" d="M840.02342,470.30314V584.24278L476.27124,658.35325,465.24831,890.1313a21.197,21.197,0,0,0,10.66553-2.83568L855.3889,667.96411a10.88263,10.88263,0,0,0,5.26645-9.71059l.003-75.53417V458.34924Z"/>
          <path class="cls-76" d="M476.27132,658.35328,465.2484,890.1313a21.05423,21.05423,0,0,1-10.5068-2.83567l-213.39741-123.139a10.45041,10.45041,0,0,1-5.27991-9.00434V678.90133Z"/>
          <g>
            <path class="cls-39" d="M840.02359,562.69791v39.837l-.01059-.01059a10.47113,10.47113,0,0,1-5.25867,9.618L475.911,819.31106a21.09108,21.09108,0,0,1-10.66554,2.83566l11.02292-196.17883Z"/>
            <path class="cls-77" d="M840.02359,578.47445v39.837l-.01059-.01059a10.47113,10.47113,0,0,1-5.25867,9.618L475.911,835.08759a21.09119,21.09119,0,0,1-10.66554,2.83567l11.02292-196.17884Z"/>
            <path class="cls-78" d="M476.26836,641.74442,465.24544,837.92326a21.074,21.074,0,0,1-10.49621-2.83567l-213.39748-123.139a10.48747,10.48747,0,0,1-5.29043-9.17366V662.14438Z"/>
            <path class="cls-41" d="M739.45524,564.46361l-263.18,54.74944L465.25236,815.38548a21.08452,21.08452,0,0,0,10.66079-2.839l231.39654-133.684,127.43815-73.48265a10.46555,10.46555,0,0,0,5.26072-9.60862h.02V555.927Z"/>
            <path class="cls-41" d="M476.26836,619.20651,465.24544,815.38535a21.074,21.074,0,0,1-10.49621-2.83566l-213.39748-123.139a10.48747,10.48747,0,0,1-5.29043-9.17367V639.60647Z"/>
            <path class="cls-42" d="M834.752,546.85042,621.42314,423.72719a21.1619,21.1619,0,0,0-21.16285-.00061L467.14865,500.47046h0L241.34877,630.88066a10.4339,10.4339,0,0,0-4.95979,6.5147,10.75861,10.75861,0,0,0-.33065,2.64879,10.48163,10.48163,0,0,0,5.29066,9.16328l149.61336,86.37533,63.78354,36.76387a21.1469,21.1469,0,0,0,9.21292,2.79073q.68386.04425,1.36928.04419a21.14748,21.14748,0,0,0,10.58176-2.83652L834.75268,565.176A10.5809,10.5809,0,0,0,834.752,546.85042Z"/>
            <path class="cls-41" d="M701.04252,535.02042s-13.2766,50.36261-19.74468,61.25623a62.36637,62.36637,0,0,1-14.46809,16.85106l-30.46808-41.87234L691.144,532.6731Z"/>
          </g>
        </g>
        <path class="cls-79" d="M855.3889,442.9982V667.96411l-5.96383,3.44875V442.9982a7.46641,7.46641,0,0,0-3.65565-6.41674L619.41751,302.68534a.44362.44362,0,0,0-.49788,0,.453.453,0,0,0-.24894.43v23.21119l-5.9641,3.44042V303.11539a6.453,6.453,0,0,1,9.74409-5.5567l226.3519,133.89612A13.462,13.462,0,0,1,855.3889,442.9982Z"/>
      </g>
      <path class="cls-80" d="M827.90921,664.43469,494.56628,857.0913a10.18532,10.18532,0,0,0-5.08647,8.81717v13.5422L832.99354,680.91484l.0104-13.53848A3.39511,3.39511,0,0,0,827.90921,664.43469Z"/>
    </g>
    <g>
      <path class="cls-41" d="M614.14826,475.2024c.22321-.24079,43.62933-25.13671,43.62933-25.13671-.22587-1.50717-.585-3.29018.38443-3.79419,1.10049-.572,3.3531.5375,4.5369,1.91531,15.05908-3.17956,21.98262-3.12509,51.93868,13.9062,38.82358,22.07286,41.18089,31.95563,49.87178,47.37222,2.70212,1.28335,4.14278,2.15069,3.52535,3.76777-.57149,1.49676-4.333,2.27125-6.23418,1.61023l-40.96228,23.52054c.3903,1.73121-.26957,4.04838-1.35981,4.59395-1.43273.71715-3.482-.76921-4.39815-3.65314l-.001-.00228c-17.85764-.74007-42.17323-11.613-58.31385-21.79141-13.41312-8.45855-36.24582-22.05447-42.39573-36.56-2.37044-.0055-4.68151-1.19022-4.77133-2.6908C609.50721,476.73364,611.735,475.45792,614.14826,475.2024Z"/>
      <path class="cls-45" d="M610.10112,464.73908c.22321-.24079,43.62934-25.1367,43.62934-25.1367-.22587-1.50717-.585-3.29018.38443-3.79419,1.10049-.572,3.3531.5375,4.5369,1.9153,15.05908-3.17956,21.98262-3.12509,51.93868,13.90621,38.82358,22.07285,41.18089,31.95562,49.87178,47.37221,2.70212,1.28336,4.14278,2.1507,3.52535,3.76777-.57149,1.49677-4.333,2.27125-6.23418,1.61024l-40.96228,23.52054c.3903,1.7312-.26957,4.04838-1.35981,4.594-1.43274.71715-3.482-.76921-4.39815-3.65314l-.001-.00229c-17.85764-.74007-42.17323-11.613-58.31385-21.79141-13.41312-8.45854-36.24582-22.05447-42.39573-36.56-2.37045-.00549-4.68151-1.19021-4.77133-2.69079C605.46008,466.27033,607.68784,464.99461,610.10112,464.73908Z"/>
      <path class="cls-46" d="M702.49568,453.08276c7.61333,21.00644-2.48711,41.56336-5.72686,50.7064-3.70622,10.45967-1.03657,17.26112-9.46438,38.398L619.6571,491.75594,615.87135,477.518c7.1208-8.47645,16.21406-9.05944,20.28072-11.66712,5.58123-3.57887,16.31894-19.991,16.31894-19.991Z"/>
      <path class="cls-81" d="M664.96657,499.57068c-19.6643-16.89324-44.658-35.469-71.69319-8.96389-7.96155,10.54883-15.8064,22.04492-23.56348,34.25513L502.13607,543.213c-37.17184,22.9253,34.22381,61.59679,67.37152,60.51307l51.65075-18.67578,73.05083-41.26478C698.77536,525.01093,678.34368,511.06271,664.96657,499.57068Z"/>
      <path class="cls-48" d="M663.81556,541.8623l-17.82231,12.84462c-20.27239-18.94648-38.97489-31.86-67.07623-43.948l-7.91294,12.018-65.35969,18.60242c-40.68024,24.75918,30.7156,63.43027,63.86325,62.34658l43.97883-25.44725,34.35272-.99112,6.94662-6.45381Z"/>
      <path class="cls-82" d="M449.82537,504.17683l4.97589-2.92785a53.03714,53.03714,0,0,1,37.79642-6.229c68.92662,14.48175,155.83019,58.09395,179.16326,115.5715,17.07281,42.05634,18.92021,70.01131,18.21789,84.10662a27.33679,27.33679,0,0,1-7.64273,17.57277C631.441,765.277,532.79434,819.58354,477.81606,833.01207a26.69936,26.69936,0,0,1-13.77384-.27309c-94.05263-27.28744-194.61464-88.66807-235.599-129.16927a27.19163,27.19163,0,0,1-7.49442-24.96c2.83227-13.44574,7.82238-33.36447,14.35337-44.34247C245.77858,616.65739,449.82537,504.17683,449.82537,504.17683Z"/>
      <path class="cls-50" d="M563.74568,576.46715l12.03034,4.96832a22.37314,22.37314,0,0,0,8.05651,1.7168l11.89295-.73285c11.88788,11.33319,41.09735,38.15009,52.12366,38.93781,6.8695.4906,14.54553-8.62494,20.58129-18.0326a122.99511,122.99511,0,0,0-18.53222-26.41693l-4.24939,10.76184-45.29724-22.93042-6.02954-4.94635a15.3309,15.3309,0,0,0-6.649-3.56762l-11.15985-3.20166a3.00625,3.00625,0,0,0-3.58911,2.00091c-.44532,1.39014,1.29046,3.38324,2.58294,4.06256l-12.15753,1.30921a3.7045,3.7045,0,0,0-3.89813,3.92718l.41449,6.71393A6.29417,6.29417,0,0,0,563.74568,576.46715Z"/>
      <path class="cls-50" d="M513.96152,517.03284c1.14567,9.71935,17.612,25.16523,23.16034,28.35363l7.27842,11.17722a19.35925,19.35925,0,0,0,7.50989,6.39967l9.61322,4.62066a5.83806,5.83806,0,0,0,6.41979-.909l4.69339-4.19432a6.86068,6.86068,0,0,0,1.22756-8.78112l-6.764-10.70012a15.24539,15.24539,0,0,0-9.30719-6.67367l-7.52064-1.564-1.62792-14.48158,14.51127-4.06905a4.68843,4.68843,0,0,0,2.59235-2.42812c-10.92655-4.39651-18.44645-10.02532-29.263-13.15745C524.83065,505.443,513.32315,511.6176,513.96152,517.03284Z"/>
      <g>
        <path class="cls-83" d="M543.52394,542.87907l11.92129-10.4356,9.08482,1.88927a15.2464,15.2464,0,0,1,9.30717,6.67361l6.76386,10.7003a6.86057,6.86057,0,0,1-1.22751,8.78118l-4.69333,4.19436a5.83843,5.83843,0,0,1-6.41984.90878l-9.61312-4.62078a19.35985,19.35985,0,0,1-7.51-6.39954Z"/>
        <path class="cls-84" d="M608.20089,476.69178c-7.91489.71281-23.27707,2.52485-46.192,9.67378-12.21229,3.65688-4.71229,31.14537,5.71313,29.51554l8.73723-1.42284c18.36557-21.99195,37.42245-36.48425,55.53281-35.61293A72.0046,72.0046,0,0,0,608.20089,476.69178Z"/>
        <ellipse class="cls-54" cx="565.41349" cy="501.50234" rx="8.96676" ry="13.09041" transform="matrix(0.97684, -0.21395, 0.21395, 0.97684, -94.20432, 132.58317)"/>
        <path class="cls-52" d="M532.052,500.18114c-8.97931,4.28083-12.33637,9.03779-11.35341,14.85851,1.62963,9.65014,22.82539,27.83942,22.82539,27.83942l11.92129-10.4356-7.77625-14.624,18.59574-4.48936c11.82979-2.02128,5.31915-24.78724-4.37181-23.23146A124.83627,124.83627,0,0,0,532.052,500.18114Z"/>
        <path class="cls-52" d="M543.859,543.39341l7.27836,11.17719a19.35932,19.35932,0,0,0,7.50989,6.39967l9.61322,4.62066a5.83806,5.83806,0,0,0,6.41979-.909l4.69339-4.19432a6.86067,6.86067,0,0,0,1.22756-8.78112l-6.764-10.70012a15.24539,15.24539,0,0,0-9.30719-6.67367l-7.52061-1.56409C546.98813,529.98965,542.15778,540.53135,543.859,543.39341Z"/>
        <path class="cls-55" d="M580.60116,551.70654l-4.14171-6.552-2.7369-.785a3.00624,3.00624,0,0,0-3.58912,2.00087h0c-.44532,1.39018,1.29045,3.38327,2.583,4.06258l-12.15754,1.30921a3.70418,3.70418,0,0,0-3.89789,3.92717l.26852,4.354a19.42618,19.42618,0,0,0,1.71771.94691l9.61322,4.62066a5.83806,5.83806,0,0,0,6.41979-.909l4.69339-4.19432A6.86067,6.86067,0,0,0,580.60116,551.70654Z"/>
        <path class="cls-52" d="M566.67037,535.02042l12.03191,4.78353c3.46161,1.39364,1.18591,4.99307-1.39681,4.41353l-3.2587-.72242Z"/>
      </g>
      <path class="cls-52" d="M594.322,552.2982a15.33048,15.33048,0,0,0-6.649-3.56794l-11.15985-3.20149a3.00651,3.00651,0,0,0-3.58918,2.00066h0c-.44525,1.39041,1.29059,3.3837,2.58311,4.06258l3.18551-.34307-15.343,1.65242a3.70439,3.70439,0,0,0-3.89805,3.92712l.41435,6.71395a6.29432,6.29432,0,0,0,3.87986,5.43007l12.03033,4.96808a22.37036,22.37036,0,0,0,8.05646,1.71685l14.62447-.901,5.49646-14.55744Z"/>
      <path class="cls-85" d="M658.39238,544.37263s-4.72435,9.56887-9.44681,19.91489c-8.6197,18.44307,24.0056,29.85107,30.6383,19.1041a168.9796,168.9796,0,0,0,14.89362-40.72112C698.08784,525.23788,668.013,526.77424,658.39238,544.37263Z"/>
      <ellipse class="cls-54" cx="664.32326" cy="573.66445" rx="11.18282" ry="15.47835" transform="translate(-134.43374 937.53741) rotate(-65.30325)"/>
      <path class="cls-52" d="M650.66879,570.14114l-5.17654,11.60024-43.541-23.1848-7.5963,16.45258s39.5024,37.85349,53.49434,38.85325c10.20484.729,15.85117-8.79207,19.98989-16.97914l8.53368-16.881C680.77536,569.50029,657.194,557.25353,650.66879,570.14114Z"/>
      <g>
        <path class="cls-52" d="M641.45621,510.75888c11.545,8.53906,28.02359,5.22755,29.90176-5.83959-2.21667-1.843-4.38415-3.62427-6.39148-5.34863A156.6973,156.6973,0,0,0,647.539,486.18614a14.63945,14.63945,0,0,0-5.058,1.417C633.27252,492.33555,632.62345,504.22592,641.45621,510.75888Z"/>
        <path class="cls-55" d="M650.03527,490.57734c-2.15178,2.59824-3.38538,5.74984-1.22052,9.07631,4.39278,6.74984,14.985,7.85364,18.705,2.76848l9.74209-13.619-17.21526-10.12352Z"/>
      </g>
      <g>
        <path class="cls-46" d="M649.32073,452.81646c2.52191-11.38255,15.9917-19.7897,32.62065-16.405,25.1205,5.11316,26.614,31.5133,16.00471,46.17676a32.50166,32.50166,0,0,1-19.62931,12.99923l-9.04224,2.52533c-.17381-3.71571,5.65247-12.26795,5.65247-12.26795S645.11135,471.81543,649.32073,452.81646Z"/>
        <g>
          <path class="cls-52" d="M694.59793,468.75635c6.04619-8.27189,2.05968-21.69562-8.13491-27.86419-8.90993-5.39125-22.56128-3.59307-28.5384,6.27431a233.18987,233.18987,0,0,0-11.64507,22.76266c-4.43193,10.48879-6.24908,23.64822,4.78662,27.28628,12.14338,4.00322,22.44983,2.10824,29.12795-7.55147Z"/>
          <path class="cls-46" d="M661.71342,441.80675,651.82866,455.566c2.12015.76289,4.04052-.16009,9.98667-5.09987-5.82627,10.09384,3.56621,20.8981,13.65323,23.75685,0,0-2.42768,3.69987-1.59529,7.16213.90437,3.7617,5.95538,8.31814,10.84693,5.5192C717.77317,449.52678,680.01576,424.99716,661.71342,441.80675Z"/>
          <path class="cls-86" d="M679.3995,489.01134c.973-.3866,1.955-.82894,2.92463-1.32862a31.08972,31.08972,0,0,0-4.38428-13.33789l-2.54,1.46875A27.91356,27.91356,0,0,1,679.3995,489.01134Z"/>
          <path class="cls-87" d="M681.06578,480.96575c-5.25353,4.62016-10.91868,2.61247-19.0718-7.05-2.42565-2.87472-4.1524-5.24453-6.19325-6.40866a10.4311,10.4311,0,0,0-7.98367-1.053,7.08062,7.08062,0,0,1,.21214-4.286c2.63712-8.4949,12.8306-14.25105,24.92741-5.51423S686.38559,476.28732,681.06578,480.96575Z"/>
          <path class="cls-52" d="M675.55753,493.23952c3.81893,1.73148,9.45133-2.14329,11.41613-6.47683s-.13377-9.68177-4.301-9.2163C677.4415,478.13072,671.7386,491.50805,675.55753,493.23952Z"/>
        </g>
      </g>
      <path class="cls-48" d="M568.64252,515.73106l7.81677-1.27295a175.61715,175.61715,0,0,1,15.64416-16.61963Z"/>
    </g>
  </g>
</svg>
