<svg id="Layer_1" data-name="Layer 1" xmlns="http://www.w3.org/2000/svg" xmlns:xlink="http://www.w3.org/1999/xlink" viewBox="0 0 500 500">
  <defs>
    <style>
      .cls-1 {
        fill: url(#linear-gradient);
      }

      .cls-2 {
        fill: #e9f1f4;
      }

      .cls-3 {
        fill: #a05452;
      }

      .cls-4 {
        fill: #7a403f;
      }

      .cls-5 {
        fill: url(#linear-gradient-2);
      }

      .cls-6 {
        fill: url(#linear-gradient-3);
      }

      .cls-7 {
        fill: #dd7b19;
      }

      .cls-8 {
        fill: url(#linear-gradient-4);
      }

      .cls-9 {
        fill: url(#linear-gradient-5);
      }

      .cls-10 {
        fill: url(#linear-gradient-6);
      }
    </style>
    <linearGradient id="linear-gradient" x1="162.74029" y1="70.86095" x2="348.35642" y2="451.91994" gradientUnits="userSpaceOnUse">
      <stop offset="0" stop-color="#f0f9ff"/>
      <stop offset="1" stop-color="#c3d6e6"/>
    </linearGradient>
    <linearGradient id="linear-gradient-2" x1="138.32794" y1="46.54638" x2="272.1548" y2="265.87375" gradientUnits="userSpaceOnUse">
      <stop offset="0.00005" stop-color="#c6bfbc"/>
      <stop offset="1" stop-color="#a6948d"/>
    </linearGradient>
    <linearGradient id="linear-gradient-3" x1="113.11019" y1="302.19256" x2="267.06239" y2="548.67985" gradientUnits="userSpaceOnUse">
      <stop offset="0.00005" stop-color="#ffcb48"/>
      <stop offset="1" stop-color="#e68e2b"/>
    </linearGradient>
    <linearGradient id="linear-gradient-4" x1="238.99171" y1="223.56889" x2="392.9439" y2="470.05619" xlink:href="#linear-gradient-3"/>
    <linearGradient id="linear-gradient-5" x1="178.7475" y1="23.64128" x2="307.60713" y2="234.82789" xlink:href="#linear-gradient-2"/>
    <linearGradient id="linear-gradient-6" x1="175.94472" y1="23.59377" x2="309.77159" y2="242.92113" xlink:href="#linear-gradient-2"/>
  </defs>
  <g>
    <circle class="cls-1" cx="250" cy="250" r="215.44891"/>
    <path class="cls-2" d="M388.80417,306.0765c-16.07949-9.47245-37.09828-23.07153-69.02183-31.89171-18.99815-5.26-41.86662-8.83088-69.85591-8.83088A290.97538,290.97538,0,0,0,215.084,267.364a235.80323,235.80323,0,0,0-35.00273,6.82081q-6.78348,1.87617-12.9361,4.01988c-24.84617,8.5743-42.28345,19.74647-56.08573,27.87183-25.30594,14.89267-48.30256,40.9468-51.54187,44.6887A215.55244,215.55244,0,0,0,220.21576,463.3856q6.19032.88209,12.47659,1.36849c.96222.07491,1.92432.14982,2.88668.21377q7.10414.48119,14.3474.48105h.07491q8.65966,0,17.15918-.67341h.0107a215.49244,215.49244,0,0,0,173.2603-113.914C437.51287,347.48321,414.32388,321.10829,388.80417,306.0765Z"/>
    <path class="cls-3" d="M249.93139,274.00156a272.94933,272.94933,0,0,0-54.68447,5.19626c3.16583,29.10878,32.64421,57.85919,54.68447,70.50609,22.04-12.6469,51.51838-41.39731,54.68422-70.50609A272.94677,272.94677,0,0,0,249.93139,274.00156Z"/>
    <path class="cls-4" d="M214.09087,207.59857l0,75.04679c0,13.53881,20.48985,23.42958,35.84046,23.42958l0-91.93026Z"/>
    <path class="cls-5" d="M188.23876,202.90084s-17.09781,33.72071,4.14513,51.29385c18.27728,15.11981,57.02533-3.04621,57.02533-3.04621s33.5722,23.41768,55.36827.20652c19.78108-21.06534,6.197-43.95591,6.197-43.95591Z"/>
    <g>
      <g>
        <path class="cls-4" d="M186.92939,233.84786c-11.63189,0-21.42357-18.5257-21.42358-33.58142s11.42837-27.72646,21.42357-20.94017C199.4766,187.84526,198.56128,233.84786,186.92939,233.84786Z"/>
        <path class="cls-4" d="M313.8479,233.84786c11.63189,0,21.42358-18.5257,21.42358-33.58142S323.84311,172.54,313.84791,179.32627C301.3007,187.84526,302.216,233.84786,313.8479,233.84786Z"/>
      </g>
      <path class="cls-6" d="M232.69235,464.75409A215.46136,215.46136,0,0,1,59.51753,350.7652c-.07478-.16027-.1604-.30983-.246-.47035,4.44768-5.089,26.71711-29.84954,51.125-44.21835,16.19708-9.5364,37.38683-23.25319,69.674-32.07337,0,.06421.0107.11745.0107.18166C183.39558,339.78539,199.97753,403.44039,232.69235,464.75409Z"/>
      <path class="cls-7" d="M235.579,464.96786c-.96236-.06395-1.92446-.13886-2.88668-.21377q-6.28645-.49722-12.47659-1.36849c-7.55857-9.237-38.15657-48.20638-53.6694-91.75131-14.19784-39.85628-13.87706-75.66111-4.08408-87.85959q2.32544-2.90233,4.68285-5.57c8.29632-9.39754,16.785-16.40028,25.73348-20.13147,10.41314-4.33,22.52614-3.47462,22.52614-3.47462L215.084,267.364l-.22447,9.00184a22.97749,22.97749,0,0,0-11.03318,4.918c-5.431,4.3618-12.44449,27.70061-5.89082,57.67856C204.21117,367.71073,233.2055,457.60179,235.579,464.96786Z"/>
      <path class="cls-8" d="M440.6774,350.39116c-.07478.16026-.16026.31009-.24588.47035a215.49244,215.49244,0,0,1-173.2603,113.914C299.886,403.46179,316.468,339.79635,319.78234,274.18479c0-.06421.01057-.11745.01057-.18166,32.27657,8.82018,53.477,22.537,69.6634,32.07337C414.0352,320.54136,436.43305,345.52665,440.6774,350.39116Z"/>
      <path class="cls-7" d="M333.31721,371.63429c-15.52354,43.59844-46.17491,82.5999-53.6908,91.78341q-6.17428.866-12.45519,1.3578h-.0107c-.96223.07491-1.92432.14982-2.88668.20306,2.36283-7.29115,31.36785-97.24642,37.65424-126.01615,6.55366-29.97795-.45978-53.31676-5.89082-57.67856a22.97749,22.97749,0,0,0-11.03318-4.918l-.54526-21.76724s12.113-.85534,22.52614,3.47462c10.63775,4.437,20.62309,13.49232,30.41633,25.7015C347.19427,295.97318,347.515,331.778,333.31721,371.63429Z"/>
      <path class="cls-4" d="M249.93139,214.14457l-35.84058-6.546v75.04668c0,13.53879,20.48984,23.42965,35.84058,23.42965,15.35048,0,35.84033-9.89086,35.84033-23.42965V207.59861Z"/>
      <g>
        <path class="cls-9" d="M352.23274,154.21872a27.62138,27.62138,0,0,0-6.26582-17.557,31.4367,31.4367,0,0,0-23.88328-47.82522,37.01047,37.01047,0,0,0-61.69726-24.06472c-.40879-.02607-.817-.0551-1.22636-.07731A37.01331,37.01331,0,0,0,190.25007,79.2546a36.95848,36.95848,0,0,0-41.71625,36.70892,36.831,36.831,0,0,0,5.11411,18.768,24.93571,24.93571,0,0,0,3.013,41.03435c.91917,2.94562,1.41183,7.74025,3.19558,10.43116,6.77653,10.22288,13.90764,4.994,20.85225,13.33768,4.69244,18.16458,11.59529,18.57011,11.59529,18.57011l115.16475.81194s13.20258-.79061,14.09524-22.77319c0,0,11.40659,1.96153,18.63973-19.06663A27.70366,27.70366,0,0,0,352.23274,154.21872Z"/>
        <path class="cls-3" d="M249.93139,102.43615h-.00026c-33.59195,0-63.42478,17.77922-63.42478,55.59777s.76424,48.18288,8.54324,75.66685c8.26474,29.20092,30.42585,53.79573,54.8818,53.79573,25.84428,0,46.61693-24.59481,54.88181-53.79573,7.779-27.484,8.543-37.8483,8.543-75.66685S283.52334,102.43615,249.93139,102.43615Z"/>
      </g>
      <path class="cls-10" d="M180.7528,156.45771c15.247,2.58154,32.07686-4.02719,37.466-32.3207,1.389,30.12037,33.02409,36.96747,50.51342,27.364-2.71368,12.0017,32.695,36.91776,44.48814,25.9472-.61955,17.86422-.45128,16.96793,6.0085,22.3048,0,0,12.387-38.119,4.91663-65.56471S287.822,83.95245,287.822,83.95245c-27.927-7.36976-58.31508-4.74478-90.07813,3.46456l-27.86276,63.50312Z"/>
    </g>
  </g>
</svg>
