<svg id="Layer_1" data-name="Layer 1" xmlns="http://www.w3.org/2000/svg" xmlns:xlink="http://www.w3.org/1999/xlink" viewBox="0 0 500 500">
  <defs>
    <style>
      .cls-1 {
        fill: url(#linear-gradient);
      }

      .cls-2 {
        fill: #f4a589;
      }

      .cls-3 {
        fill: url(#linear-gradient-2);
      }

      .cls-4 {
        fill: url(#linear-gradient-3);
      }

      .cls-5 {
        fill: #ed8324;
      }

      .cls-6 {
        fill: #ffbea4;
      }

      .cls-7 {
        fill: url(#linear-gradient-4);
      }

      .cls-8 {
        fill: url(#linear-gradient-5);
      }

      .cls-9 {
        fill: #dd7b19;
        opacity: 0.5;
      }
    </style>
    <linearGradient id="linear-gradient" x1="162.74029" y1="70.86086" x2="348.35642" y2="451.91985" gradientUnits="userSpaceOnUse">
      <stop offset="0" stop-color="#f0f9ff"/>
      <stop offset="1" stop-color="#c3d6e6"/>
    </linearGradient>
    <linearGradient id="linear-gradient-2" x1="204.41228" y1="28.36201" x2="289.4286" y2="221.02488" gradientUnits="userSpaceOnUse">
      <stop offset="0.00634" stop-color="#adc0cc"/>
      <stop offset="1" stop-color="#7b90a6"/>
    </linearGradient>
    <linearGradient id="linear-gradient-3" x1="190.93393" y1="254.44881" x2="361.26402" y2="533.69189" gradientUnits="userSpaceOnUse">
      <stop offset="0.00005" stop-color="#ffcb48"/>
      <stop offset="1" stop-color="#e68e2b"/>
    </linearGradient>
    <linearGradient id="linear-gradient-4" x1="171.44292" y1="43.91368" x2="253.54841" y2="229.98008" xlink:href="#linear-gradient-2"/>
    <linearGradient id="linear-gradient-5" x1="205.79236" y1="28.41295" x2="288.04694" y2="214.8172" xlink:href="#linear-gradient-2"/>
  </defs>
  <g>
    <g>
      <circle class="cls-1" cx="250" cy="249.99991" r="215.44891"/>
      <g>
        <path class="cls-2" d="M192.40128,218.16316c-10.59615,0-19.516-16.87612-19.516-30.59124s10.41075-25.25761,19.516-19.07559C203.83124,176.25677,202.99743,218.16316,192.40128,218.16316Z"/>
        <path class="cls-2" d="M308.0186,218.16316c10.59615,0,19.516-16.87612,19.516-30.59124s-10.41075-25.25761-19.51595-19.07559C296.58863,176.25677,297.42244,218.16316,308.0186,218.16316Z"/>
      </g>
      <path class="cls-3" d="M190.99986,209.272S184.129,207.93206,178.649,187.723c-11.04618-16.2376-22.80742-32.6469-22.30693-61.9409.54945-32.15929,22.2403-43.183,22.2403-43.183s2.1039-15.936,22.53617-27.90052c32.917-19.27526,70.28864-9.91591,98.18277,5.5801,35.11107,19.50524,44.24854,47.57588,38.64905,76.81442-3.66119,19.11751-10.34962,36.90339-17.89455,48.61659-.94335,20.71174-10.99284,22.60818-10.99284,22.60818Z"/>
      <path class="cls-4" d="M388.66733,297.47005c-25.6587-15.09586-63.87947-32.11611-138.87774-32.11611-74.98757,0-113.20834,17.02025-138.867,32.11611C85.72363,312.30934,62.81249,345.516,59.41272,350.57292A215.44439,215.44439,0,0,0,249.78959,465.449h.21384a215.41615,215.41615,0,0,0,190.3982-114.534C437.97479,347.28,414.51846,312.69427,388.66733,297.47005Z"/>
      <path class="cls-5" d="M249.79337,340.398l-9.8703-8.14467,1.363,33.23612a5.83207,5.83207,0,0,0,5.82713,5.59314h5.36044a5.83208,5.83208,0,0,0,5.82714-5.59314l1.363-33.23612Z"/>
      <path class="cls-6" d="M294.41081,267.64884a407.46092,407.46092,0,0,0-44.61744-2.29464,407.46086,407.46086,0,0,0-44.61743,2.29464c-1.54468,3.29034-.92836,7.29886,2.29092,12.17251L249.79337,340.398l42.32652-60.57666C295.33917,274.9477,295.95549,270.93918,294.41081,267.64884Z"/>
      <path class="cls-2" d="M249.79337,210.12792l-37.32007-6.21963v74.63918c0,9.13568,24.525,18.92559,37.32007,18.92559s37.32008-9.78991,37.32008-18.92559V203.90829Z"/>
      <path class="cls-5" d="M286.65341,254.11713s22.25265,13.30739,28.803,24.15739c4.93666,8.17711,10.6018,30.30829,13.09341,40.71607a3.33166,3.33166,0,0,1-4.16961,3.97274L299.03146,315.633a12.58992,12.58992,0,0,0-9.95634,1.28752L249.79335,340.398l30.52372-50.4271a43.84554,43.84554,0,0,0,6.33634-22.70443Z"/>
      <path class="cls-6" d="M249.7935,69.48025h-.00026c-35.05376,0-66.18487,19.6914-66.18487,61.57805,0,41.88658.7974,53.3657,8.91492,83.80631,8.62449,32.34182,27.87556,53.99259,57.27008,53.99259,29.39446,0,48.6456-21.65077,57.27008-53.99259,8.11747-30.44061,8.91493-41.91973,8.91493-83.80631C315.97838,89.17165,284.84727,69.48025,249.7935,69.48025Z"/>
      <path class="cls-5" d="M212.93329,254.11713s-22.25265,13.30739-28.803,24.15739c-4.93666,8.17711-10.60179,30.30829-13.09341,40.71607a3.33166,3.33166,0,0,0,4.16961,3.97274l25.34875-7.33029a12.5899,12.5899,0,0,1,9.95633,1.28752L249.79335,340.398l-30.52372-50.4271a43.84554,43.84554,0,0,1-6.33634-22.70443Z"/>
      <path class="cls-7" d="M219.611,227.55954c-3.08926-2.67164-3.33731-13.48348,10.64688-20.46329,11.70506-5.84224,28.9066-5.02121,40.54142.06606,11.18473,4.89046,13.88286,16.88231,10.04794,20.11956-2.75068,2.322-15.65436-.31262-30.63734-.34094C234.94045,226.91207,223.45748,230.886,219.611,227.55954Z"/>
      <path class="cls-8" d="M183.61318,143.935s-2.04713-23.41919,10.5522-25.68061c11.53931-2.07116,18.9363,24.2095,55.628,24.2095,32.10038,0,43.07447-16.988,54.29136-15.03723,13.61047,2.367,11.70224,17.84309,11.70224,17.84309s8.41758-5.025,1.61235-30.0268-33.08922-45.76274-33.08922-45.76274c-25.44034-6.71353-53.12254-4.32228-82.05732,3.15607L176.871,130.48494Z"/>
    </g>
    <g>
      <path class="cls-9" d="M97.43333,402.124a216.71525,216.71525,0,0,0,17.83481,16.00537c.22141.16339.43694.3341.659.49658l-9.15833-58.58872Z"/>
      <path class="cls-9" d="M393.23269,360.03727,384.07443,418.626c.191-.13978.37632-.28673.56686-.42715a216.69719,216.69719,0,0,0,17.92538-16.08158Z"/>
    </g>
  </g>
</svg>
