<svg id="Layer_1" data-name="Layer 1" xmlns="http://www.w3.org/2000/svg" xmlns:xlink="http://www.w3.org/1999/xlink" viewBox="0 0 500 500">
  <defs>
    <style>
      .cls-1 {
        fill: url(#linear-gradient);
      }

      .cls-2 {
        fill: url(#linear-gradient-2);
      }

      .cls-3 {
        fill: url(#linear-gradient-3);
      }

      .cls-4 {
        fill: #e48f7c;
      }

      .cls-5 {
        fill: url(#linear-gradient-4);
      }

      .cls-6 {
        fill: #dd7b19;
        opacity: 0.5;
      }

      .cls-7 {
        fill: #ffbda3;
      }

      .cls-8 {
        fill: url(#linear-gradient-5);
      }
    </style>
    <linearGradient id="linear-gradient" x1="162.74029" y1="70.86095" x2="348.35642" y2="451.91994" gradientUnits="userSpaceOnUse">
      <stop offset="0" stop-color="#f0f9ff"/>
      <stop offset="1" stop-color="#c3d6e6"/>
    </linearGradient>
    <linearGradient id="linear-gradient-2" x1="185.50193" y1="250.74065" x2="349.28087" y2="507.32765" gradientUnits="userSpaceOnUse">
      <stop offset="0.00005" stop-color="#ffcb48"/>
      <stop offset="1" stop-color="#e68e2b"/>
    </linearGradient>
    <linearGradient id="linear-gradient-3" x1="224.19527" y1="139.61468" x2="299.75279" y2="370.01848" gradientUnits="userSpaceOnUse">
      <stop offset="0" stop-color="#cebcb3"/>
      <stop offset="1" stop-color="#998073"/>
    </linearGradient>
    <linearGradient id="linear-gradient-4" x1="218.78629" y1="30.20473" x2="313.24193" y2="318.23611" xlink:href="#linear-gradient-3"/>
    <linearGradient id="linear-gradient-5" x1="215.65203" y1="34.1313" x2="313.26482" y2="331.79006" xlink:href="#linear-gradient-3"/>
  </defs>
  <g>
    <g>
      <circle class="cls-1" cx="250" cy="250" r="215.44891"/>
      <path class="cls-2" d="M388.36794,297.47749c-25.6587-15.10644-63.87947-32.12689-138.87767-32.12689-74.99826,0-113.20833,17.02045-138.867,32.12689-24.82483,14.604-47.41512,47.041-51.33881,52.84615a215.43689,215.43689,0,0,0,190.20584,115.122h.51316A215.3987,215.3987,0,0,0,440.26264,351.16828C439.22563,349.57532,415.07435,313.19339,388.36794,297.47749Z"/>
      <ellipse class="cls-3" cx="249.23235" cy="215.96232" rx="62.36836" ry="53.48526"/>
      <g>
        <g>
          <path class="cls-4" d="M187.66193,219.29862c-11.45773,0-21.1028-18.24831-21.10281-33.0786s11.25725-27.31132,21.10279-20.62664C200.02126,173.98482,199.11965,219.29862,187.66193,219.29862Z"/>
          <path class="cls-4" d="M312.68007,219.29862c11.45773,0,21.1028-18.24831,21.10281-33.0786s-11.25725-27.31132-21.10279-20.62664C300.32074,173.98482,301.22235,219.29862,312.68007,219.29862Z"/>
        </g>
        <path class="cls-5" d="M192.57472,194.1233s-4.917.08938-11.42148-6.83c-8.8751-8.21885-11.9378-12.07533-19.90453-27.74819-21.76708-42.82216,4.11947-87.98376,40.737-106.49595,28.972-14.647,75.54518-13.46585,105.37708,4.272,30.10774,17.9019,43.28331,51.12843,38.60441,78.439s-17.9949,39.14313-27.203,47.34837c-5.0951,8.41244-10.55522,10.818-10.55522,10.818Z"/>
        <path class="cls-6" d="M370.49786,428.26967l1.5764-52.54651,18.53446,37.06891A216.3666,216.3666,0,0,1,370.49786,428.26967Z"/>
        <path class="cls-7" d="M249.49314,265.35426c-44.49658,0-76.04434,5.99-99.70472,14.01618,7.80085,34.81819,47.4865,59.23421,99.70472,59.23421s91.90387-24.416,99.70473-59.23421C325.53749,271.34426,293.98973,265.35426,249.49314,265.35426Z"/>
        <path class="cls-4" d="M285.18025,199.23633l-35.687,6.518-35.687-6.518-2.50358,76.48461c0,13.83634,23.38867,21.57018,38.19063,21.57018s38.19062-7.73384,38.19062-21.57018Z"/>
        <path class="cls-7" d="M249.72068,89.85459h-.00026c-33.089,0-62.47515,17.513-62.47515,54.76513,0,37.25241.75276,47.46144,8.41521,74.53405,8.14109,28.76372,29.97033,52.99024,54.06007,52.99024,25.45746,0,45.919-24.22652,54.06007-52.99024,7.66245-27.07261,8.41521-37.28164,8.41521-74.53405C312.19583,107.36757,282.80966,89.85459,249.72068,89.85459Z"/>
        <path class="cls-8" d="M184.94016,167.75173c46.8578-.30537,63.94683-50.34045,65.08061-60.44413,6.12834,29.44659,40.21972,62.4967,61.57994,65.16419,0,0-.00373,6.09026,6.35933,11.34722,0,0,12.22205-35.653,4.86348-62.68771s-35.7797-49.4837-35.7797-49.4837c-27.50889-7.25941-57.44193-4.67373-88.72939,3.41269l-27.44557,62.55228Z"/>
      </g>
    </g>
    <path class="cls-6" d="M128.99241,428.26967,127.416,375.72316l-18.53446,37.06891A216.36514,216.36514,0,0,0,128.99241,428.26967Z"/>
  </g>
</svg>
