<svg id="Layer_1" data-name="Layer 1" xmlns="http://www.w3.org/2000/svg" xmlns:xlink="http://www.w3.org/1999/xlink" viewBox="0 0 500 500">
  <defs>
    <style>
      .cls-1 {
        fill: url(#linear-gradient);
      }

      .cls-2 {
        fill: url(#linear-gradient-2);
      }

      .cls-3 {
        fill: #dd7b19;
        opacity: 0.5;
      }

      .cls-4 {
        fill: url(#linear-gradient-3);
      }

      .cls-5 {
        fill: url(#linear-gradient-4);
      }

      .cls-6 {
        fill: #323f4c;
      }

      .cls-7 {
        fill: url(#linear-gradient-5);
      }

      .cls-8 {
        fill: #b75c5a;
      }

      .cls-9 {
        fill: #994a4a;
      }

      .cls-10 {
        fill: #ffcd5c;
      }

      .cls-11 {
        fill: url(#linear-gradient-6);
      }

      .cls-12 {
        fill: url(#linear-gradient-7);
      }

      .cls-13 {
        fill: url(#linear-gradient-8);
      }

      .cls-14 {
        fill: url(#linear-gradient-9);
      }

      .cls-15 {
        fill: url(#linear-gradient-10);
      }

      .cls-16 {
        fill: url(#linear-gradient-11);
      }
    </style>
    <linearGradient id="linear-gradient" x1="162.74029" y1="70.86086" x2="348.35642" y2="451.91985" gradientUnits="userSpaceOnUse">
      <stop offset="0" stop-color="#f0f9ff"/>
      <stop offset="1" stop-color="#c3d6e6"/>
    </linearGradient>
    <linearGradient id="linear-gradient-2" x1="81.65243" y1="321.87493" x2="217.58895" y2="568.08926" gradientUnits="userSpaceOnUse">
      <stop offset="0.00005" stop-color="#ffcb48"/>
      <stop offset="1" stop-color="#e68e2b"/>
    </linearGradient>
    <linearGradient id="linear-gradient-3" x1="308.12708" y1="196.83683" x2="444.06359" y2="443.05115" xlink:href="#linear-gradient-2"/>
    <linearGradient id="linear-gradient-4" x1="221.38735" y1="242.06834" x2="279.19734" y2="450.07095" gradientUnits="userSpaceOnUse">
      <stop offset="0" stop-color="#65788c"/>
      <stop offset="0.99995" stop-color="#455260"/>
    </linearGradient>
    <linearGradient id="linear-gradient-5" x1="215.14149" y1="248.17477" x2="351.078" y2="494.3891" xlink:href="#linear-gradient-2"/>
    <linearGradient id="linear-gradient-6" x1="235.54079" y1="60.06019" x2="279.35155" y2="283.55048" gradientUnits="userSpaceOnUse">
      <stop offset="0.00005" stop-color="#c6c6c6"/>
      <stop offset="1" stop-color="#a9b0b3"/>
    </linearGradient>
    <linearGradient id="linear-gradient-7" x1="223.9558" y1="62.3312" x2="267.76655" y2="285.82148" xlink:href="#linear-gradient-6"/>
    <linearGradient id="linear-gradient-8" x1="234.94117" y1="60.17774" x2="278.75192" y2="283.66803" xlink:href="#linear-gradient-6"/>
    <linearGradient id="linear-gradient-9" x1="218.05038" y1="63.48884" x2="261.86113" y2="286.97912" xlink:href="#linear-gradient-6"/>
    <linearGradient id="linear-gradient-10" x1="174.41577" y1="72.04252" x2="218.22652" y2="295.53281" xlink:href="#linear-gradient-6"/>
    <linearGradient id="linear-gradient-11" x1="290.52997" y1="49.28068" x2="334.34072" y2="272.77096" xlink:href="#linear-gradient-6"/>
  </defs>
  <g>
    <circle class="cls-1" cx="250" cy="249.99991" r="215.44891"/>
    <g>
      <path class="cls-2" d="M115.91285,418.66469a216.554,216.554,0,0,1-56.54538-68.13458c3.50672-5.18517,26.204-37.96419,48.13147-50.93247Z"/>
      <path class="cls-3" d="M97.41742,402.124a216.71689,216.71689,0,0,0,17.83481,16.00537c.22141.16339.43694.3341.659.49658l-3.89163-55.05548Z"/>
    </g>
    <g>
      <path class="cls-4" d="M383.51821,418.66469a216.554,216.554,0,0,0,56.54538-68.13458c-3.50672-5.18517-26.204-37.96419-48.13147-50.93247Z"/>
      <path class="cls-3" d="M402.01364,402.124a216.71525,216.71525,0,0,1-17.83481,16.00537c-.22141.16339-.43694.3341-.659.49658l3.89163-55.05548Z"/>
      <path class="cls-5" d="M391.93219,299.59764c-25.62659-15.16007-67.21523-34.2437-142.21336-34.2437l-.00653.24274v-.24274c-74.99826,0-116.58677,19.08363-142.21336,34.2437-2.72081,36.02252,1.29645,76.51613,8.41391,119.06705A214.51565,214.51565,0,0,0,249.7123,465.449v-.04626l.00653.04626a214.515,214.515,0,0,0,133.79932-46.78431C390.63573,376.11377,394.653,335.62016,391.93219,299.59764Z"/>
      <g>
        <path class="cls-6" d="M317.64949,294.43068c-4.503-12.4901-44.68686-19.89545-67.93066-19.89545l-.00653.395v-.395c-23.2438,0-63.42765,7.40535-67.93066,19.89545-9.84753,40.332,29.4588,93.59374,67.93066,129.72712v-.06826l.00653.06826C288.19056,388.02442,327.49689,334.76266,317.64949,294.43068Z"/>
        <path class="cls-7" d="M300.87035,300.198a10.81614,10.81614,0,0,0-9.64146-9.97451,374.78247,374.78247,0,0,0-41.51006-2.15813l-.00653.1341v-.1341a374.78352,374.78352,0,0,0-41.5102,2.15813,10.81614,10.81614,0,0,0-9.64145,9.97451c-1.98919,31.16674,22.47146,67.30254,51.15165,94.23942v-.074l.00653.074C278.399,367.50058,302.85967,331.36478,300.87035,300.198Z"/>
      </g>
      <polygon class="cls-8" points="249.715 279.821 206.929 279.821 249.715 341.056 292.502 279.821 249.715 279.821"/>
      <path class="cls-9" d="M249.71543,210.12792l-37.32-6.21963v78.15092c0,6.67895,20.38505,15.41385,37.32,15.41385v-.00072l.00013.00072c16.935,0,37.32015-8.7349,37.32015-15.41385V203.90829Z"/>
      <path class="cls-10" d="M212.39544,254.77556s-21.79262,13.30739-28.343,24.1574c-4.93666,8.1771-10.60179,30.30828-13.09341,40.71606a3.33166,3.33166,0,0,0,4.16961,3.97274l25.34874-7.33028a12.58992,12.58992,0,0,1,9.95634,1.28751l39.28177,23.47746-30.52372-50.42711a44.32069,44.32069,0,0,1-6.79637-22.70443Z"/>
      <path class="cls-10" d="M287.03562,254.77556s21.79262,13.30739,28.343,24.1574c4.93666,8.1771,10.60179,30.30828,13.09341,40.71606a3.33166,3.33166,0,0,1-4.16961,3.97274l-25.34874-7.33028a12.58992,12.58992,0,0,0-9.95634,1.28751l-39.28177,23.47746,30.52372-50.42711a44.32069,44.32069,0,0,0,6.79637-22.70443Z"/>
    </g>
    <g>
      <g>
        <path class="cls-9" d="M196.84749,217.74218c-9.75545,0-17.96756-15.53717-17.96757-28.16412s9.58476-23.25368,17.96755-17.56214C207.3706,179.16064,206.60294,217.74218,196.84749,217.74218Z"/>
        <path class="cls-9" d="M303.2917,217.74218c9.75545,0,17.96756-15.53717,17.96756-28.16412s-9.58476-23.25368-17.96755-17.56214C292.76859,179.16064,293.53625,217.74218,303.2917,217.74218Z"/>
      </g>
      <path class="cls-11" d="M195.55726,209.55641s-4.67865-1.28706-9.72382-20.699c-2.25-10.89349-9.77677-9.42926-13.76995-19.84374-1.39614-3.64123.41788-16.59673-1.38566-20.00541-2.60867-4.93039-6.47441-10.41882-6.01894-18.075.58457-9.82629,4.12206-13.30717,7.92422-21.59524,4.8498-10.57173,3.64934-14.16885,6.82843-25.28685,3.06641-10.724,9.75614-18.14871,21.40431-21.04019,14.02047-3.48038,21.61549.72724,32.12989.1732,9.03261-.47595,18.70636-7.4479,33.03924-5.75913,10.69631,1.26029,15.00082,7.90513,23.42624,12.78854,4.36434,2.52959,12.23274-.96716,19.7456,3.43355,7.30145,4.27688,8.38553,14.52543,10.479,20.10807,3.37754,9.00677,9.88184,12.96846,12.15529,21.73748a41.60194,41.60194,0,0,1-.98344,22.94993c-2.07848,6.06224-6.51836,11.84659-7.79431,16.52551-1.63123,5.98168,1.36218,12.54374-.08661,17.66685-1.61819,5.72217-7.71625,9.8843-10.39242,14.219-.8685,19.89484-8.28113,21.786-8.28113,21.786Z"/>
      <path class="cls-12" d="M185.83344,188.8574s4.32939,38.37749,11.50291,55.32809c8.402,19.85345,24.52277,34.98781,51.91181,34.98781s41.332-14.83873,50.90189-29.7916c11.97214-18.70635,12.3843-62.52772,12.3843-62.52772Z"/>
      <path class="cls-8" d="M249.6862,80.85582h-.00026c-32.27253,0-60.93367,18.1291-60.93367,56.69239s.7341,49.13167,8.20758,77.15711c7.94017,29.7758,25.66392,49.70884,52.72622,49.70884s44.78605-19.933,52.72622-49.70884c7.47348-28.02544,8.20758-38.59382,8.20758-77.15711S281.95873,80.85582,249.6862,80.85582Z"/>
      <path class="cls-13" d="M188.75664,142.90807s2.07328-37.7013,13.44486-40.79561c19.09607-5.19621,24.75822,15.45873,50.2846,13.89986C276.25876,114.56056,284.648,93.149,299.717,103.628c10.44207,7.26144,10.72667,40.5089,10.72667,40.5089s7.74973-4.62628,1.48443-27.64447-30.46392-42.13191-30.46392-42.13191c-23.42189-6.18088-48.90779-3.97935-75.54687,2.90567l-23.368,53.25889Z"/>
      <path class="cls-14" d="M197.33635,216.08174s13.54715,19.89807,21.36312,17.79793,3.46277-11.08524,30.54869-11.08524,20.21052,7.07983,30.30962,10.21921,22.20741-15.98041,22.20741-15.98041l-7.41757,35.37959L248.188,269.99333,201.24887,251.287Z"/>
      <path class="cls-15" d="M189.13382,129.46651a71.25577,71.25577,0,0,1,4.30367,14.21562c1.24417,6.83871-3.70338,18.46634-3.83326,31.262l-3.77079-35.20246Z"/>
      <path class="cls-16" d="M310.02512,128.0995a133.26307,133.26307,0,0,0-4.03039,15.58263c-1.24417,6.83871,3.70338,18.46634,3.83326,31.262l3.77079-35.20246Z"/>
      <path class="cls-8" d="M230.78066,241.241h37.2395s-7.86615-8.83355-19.82482-8.83355A20.95182,20.95182,0,0,0,230.78066,241.241Z"/>
    </g>
  </g>
</svg>
