<svg id="Layer_1" data-name="Layer 1" xmlns="http://www.w3.org/2000/svg" xmlns:xlink="http://www.w3.org/1999/xlink" viewBox="0 0 500 500">
  <defs>
    <style>
      .cls-1 {
        fill: url(#linear-gradient);
      }

      .cls-2 {
        fill: url(#linear-gradient-2);
      }

      .cls-3 {
        fill: url(#linear-gradient-3);
      }

      .cls-4 {
        fill: #cc695c;
      }

      .cls-5 {
        fill: url(#linear-gradient-4);
      }

      .cls-6 {
        fill: url(#linear-gradient-5);
      }

      .cls-7 {
        fill: #dd7a64;
      }

      .cls-8 {
        fill: #ffcd5c;
      }

      .cls-9 {
        fill: url(#linear-gradient-6);
      }

      .cls-10 {
        fill: #dd7b19;
        opacity: 0.5;
      }
    </style>
    <linearGradient id="linear-gradient" x1="162.74029" y1="70.86086" x2="348.35642" y2="451.91985" gradientUnits="userSpaceOnUse">
      <stop offset="0" stop-color="#f0f9ff"/>
      <stop offset="1" stop-color="#c3d6e6"/>
    </linearGradient>
    <linearGradient id="linear-gradient-2" x1="175.01693" y1="91.23978" x2="213.23201" y2="257.56639" gradientUnits="userSpaceOnUse">
      <stop offset="0.00005" stop-color="#d9c3b8"/>
      <stop offset="1" stop-color="#a68f85"/>
    </linearGradient>
    <linearGradient id="linear-gradient-3" x1="277.08307" y1="67.78913" x2="315.29816" y2="234.11574" xlink:href="#linear-gradient-2"/>
    <linearGradient id="linear-gradient-4" x1="238.75448" y1="76.59548" x2="276.96957" y2="242.92209" xlink:href="#linear-gradient-2"/>
    <linearGradient id="linear-gradient-5" x1="192.45861" y1="244.52545" x2="339.85965" y2="517.21738" gradientUnits="userSpaceOnUse">
      <stop offset="0.00005" stop-color="#ffcb48"/>
      <stop offset="1" stop-color="#e68e2b"/>
    </linearGradient>
    <linearGradient id="linear-gradient-6" x1="235.7146" y1="77.29392" x2="273.92968" y2="243.62053" xlink:href="#linear-gradient-2"/>
  </defs>
  <g>
    <circle class="cls-1" cx="250" cy="249.99991" r="215.44891"/>
    <g>
      <path class="cls-2" d="M166.85919,116.81571c-15.1493,48.45135,17.64153,102.64965,44.539,133.1842h14.01218l2.4677-44.12932Z"/>
      <path class="cls-3" d="M334.86933,126.64253c12.64738,47.26842-15.832,92.82283-46.23286,123.35738H274.62429l-2.4677-44.12932Z"/>
      <path class="cls-4" d="M194.21761,219.46536c-10.24938,0-18.87728-16.32383-18.87728-29.5901s10.07-24.431,18.87726-18.45132C205.27351,178.93041,204.467,219.46535,194.21761,219.46536Z"/>
      <path class="cls-4" d="M306.05117,219.46536c10.24938,0,18.87728-16.32383,18.87728-29.5901s-10.07-24.431-18.87726-18.45132C294.99527,178.93041,295.8018,219.46535,306.05117,219.46536Z"/>
    </g>
    <path class="cls-5" d="M192.86205,204.847s-7.05687-.3695-11.85393-16.92383c-8.96234-13.23879-12.55638-18.15407-16.46888-40.94473-5.26392-30.66282,14.44595-56.9204,33.57468-69.51506,36.75928-24.20288,85.37938-15.644,109.004.364,33.30172,22.56509,35.014,41.71813,27.75143,48.81522,5.30048,19.10754-9.87686,44.1275-17.17487,55.45736-.91248,20.03392-10.63308,22.5651-10.63308,22.5651Z"/>
    <path class="cls-6" d="M391.95354,299.59764c-25.63729-15.16007-67.22573-34.2437-142.224-34.2437s-116.5867,19.08363-142.21336,34.2437c-21.92751,12.96828-44.62474,45.7473-48.1314,50.93247A215.43243,215.43243,0,0,0,249.72954,465.449h.26728A215.398,215.398,0,0,0,440.37369,350.95778C438.09647,347.57935,414.61874,313.00429,391.95354,299.59764Z"/>
    <polygon class="cls-7" points="249.731 279.821 206.945 279.821 249.731 341.056 292.518 279.821 249.731 279.821"/>
    <path class="cls-4" d="M249.73143,210.12792l-37.32007-6.21963v78.15092c0,6.67895,20.385,15.41385,37.32007,15.41385s37.32008-8.7349,37.32008-15.41385V203.90829Z"/>
    <path class="cls-8" d="M287.05152,254.77556s21.79263,13.30739,28.343,24.1574c4.93666,8.1771,10.60179,30.30828,13.09341,40.71606a3.33166,3.33166,0,0,1-4.16961,3.97274l-25.34875-7.33028a12.5899,12.5899,0,0,0-9.95633,1.28751l-39.28177,23.47746,30.52372-50.42711a44.32068,44.32068,0,0,0,6.79636-22.70443Z"/>
    <path class="cls-7" d="M249.73157,75.64827h-.00027c-33.9066,0-64.01885,19.047-64.01885,59.56282s.7713,51.61926,8.62318,81.06364c8.3422,31.28342,26.96331,52.22566,55.3958,52.22566s47.05361-20.94224,55.39587-52.22566c7.85182-29.44438,8.62312-40.54784,8.62312-81.06364S283.63817,75.64827,249.73157,75.64827Z"/>
    <path class="cls-9" d="M185.71711,147.66646S183.737,125.0137,195.924,122.82629c11.16166-2.00338,39.85366,8.13818,75.34453,8.13818,31.04985,0,39.48893-2.18371,39.48893-2.18371,2.08452,5.48475,2.993,11.03232,2.92591,20.0587,0,0,8.024-4.74244,1.44153-28.92606s-32.00633-44.26508-32.00633-44.26508c-24.60776-6.49383-51.384-4.18084-79.37187,3.05278l-24.55112,55.95543Z"/>
    <path class="cls-8" d="M212.41135,254.77556s-21.79262,13.30739-28.343,24.1574c-4.93666,8.1771-10.6018,30.30828-13.09341,40.71606a3.33166,3.33166,0,0,0,4.16961,3.97274l25.34874-7.33028a12.58992,12.58992,0,0,1,9.95634,1.28751l39.28177,23.47746-30.52372-50.42711a44.32069,44.32069,0,0,1-6.79637-22.70443Z"/>
    <g>
      <path class="cls-10" d="M97.43333,402.124a216.71525,216.71525,0,0,0,17.83481,16.00537c.22141.16339.43694.3341.659.49658l-9.15833-58.58872Z"/>
      <path class="cls-10" d="M393.23269,360.03727,384.07443,418.626c.191-.13978.37632-.28673.56686-.42715a216.69719,216.69719,0,0,0,17.92538-16.08158Z"/>
    </g>
  </g>
</svg>
