<svg id="Layer_1" data-name="Layer 1" xmlns="http://www.w3.org/2000/svg" xmlns:xlink="http://www.w3.org/1999/xlink" viewBox="0 0 500 500">
  <defs>
    <style>
      .cls-1 {
        fill: url(#linear-gradient);
      }

      .cls-2 {
        fill: #e9f1f4;
      }

      .cls-3 {
        fill: #ffbda3;
      }

      .cls-4 {
        fill: url(#linear-gradient-2);
      }

      .cls-5 {
        fill: #dd7b19;
        opacity: 0.5;
      }

      .cls-6 {
        fill: url(#linear-gradient-3);
      }

      .cls-7 {
        fill: url(#linear-gradient-4);
      }

      .cls-8 {
        fill: #e48f7c;
      }

      .cls-9 {
        fill: url(#linear-gradient-5);
      }

      .cls-10 {
        fill: url(#linear-gradient-6);
      }

      .cls-11 {
        fill: url(#linear-gradient-7);
      }

      .cls-12 {
        fill: url(#linear-gradient-8);
      }

      .cls-13 {
        fill: url(#linear-gradient-9);
      }
    </style>
    <linearGradient id="linear-gradient" x1="162.74029" y1="70.86046" x2="348.35642" y2="451.91945" gradientUnits="userSpaceOnUse">
      <stop offset="0" stop-color="#f0f9ff"/>
      <stop offset="1" stop-color="#c3d6e6"/>
    </linearGradient>
    <linearGradient id="linear-gradient-2" x1="302.18553" y1="222.63686" x2="395.53952" y2="466.66747" gradientUnits="userSpaceOnUse">
      <stop offset="0.00005" stop-color="#ffcb48"/>
      <stop offset="1" stop-color="#e68e2b"/>
    </linearGradient>
    <linearGradient id="linear-gradient-3" x1="128.1473" y1="63.12991" x2="219.36813" y2="341.29711" gradientUnits="userSpaceOnUse">
      <stop offset="0" stop-color="#966551"/>
      <stop offset="1" stop-color="#805345"/>
    </linearGradient>
    <linearGradient id="linear-gradient-4" x1="230.28168" y1="-12.94464" x2="334.49295" y2="304.83539" xlink:href="#linear-gradient-3"/>
    <linearGradient id="linear-gradient-5" x1="221.59764" y1="38.17157" x2="310.68072" y2="309.81995" xlink:href="#linear-gradient-3"/>
    <linearGradient id="linear-gradient-6" x1="115.31244" y1="294.12522" x2="208.66643" y2="538.15583" xlink:href="#linear-gradient-2"/>
    <linearGradient id="linear-gradient-7" x1="123.43363" y1="70.69966" x2="212.34524" y2="341.82518" xlink:href="#linear-gradient-3"/>
    <linearGradient id="linear-gradient-8" x1="237.99773" y1="32.7934" x2="327.08081" y2="304.44179" xlink:href="#linear-gradient-3"/>
    <linearGradient id="linear-gradient-9" x1="218.89641" y1="39.0574" x2="307.97948" y2="310.70578" xlink:href="#linear-gradient-3"/>
  </defs>
  <g>
    <circle class="cls-1" cx="250" cy="249.99951" r="215.44891"/>
    <path class="cls-2" d="M438.23137,347.601c-.24588-.35276-.51316-.71635-.79114-1.10108-.75909-1.06911-1.62507-2.24524-2.57659-3.51742q-.5452-.75369-1.1546-1.53959c-.6094-.81241-1.25091-1.657-1.92445-2.52309-.34213-.43825-.68419-.88732-1.037-1.33639a239.73775,239.73775,0,0,0-17.74731-20.32384c-.33142-.34206-.67348-.68412-1.0156-1.01561-.31009-.32078-.63081-.63087-.94083-.94082-2.51245-2.46958-5.12109-4.89649-7.8045-7.19524-.35283-.30995-.70566-.60933-1.06912-.90859-.36352-.29938-.71635-.59876-1.07981-.89815-2.53379-2.074-5.11039-4.03057-7.719-5.8052-.67354-.45978-1.34709-.90885-2.03127-1.33639-.82324-.53456-1.64648-1.037-2.48035-1.52889-.96223-.556-1.92439-1.11179-2.91872-1.68915-.49175-.278-.98357-.56666-1.486-.84464-2.769-1.55016-5.66628-3.111-8.74533-4.672-.45971-.2246-.91942-.45978-1.38983-.695-2.66215-1.315-5.46322-2.63-8.39258-3.91286-.6201-.278-1.26154-.556-1.903-.82323-.63081-.278-1.28295-.54526-1.93509-.81254a1.18453,1.18453,0,0,1-.1711-.07491q-2.85447-1.1867-5.88012-2.31989c-.33142-.11772-.67354-.24588-1.005-.3743-1.06911-.40613-2.14892-.80183-3.25007-1.176-.71629-.25658-1.44334-.50245-2.19167-.759-.0214,0-.03211-.0107-.05351-.0214q-3.30356-1.12269-6.79954-2.1702c-1.57156-.49188-3.18593-.95166-4.811-1.4113-.85528-.23518-1.71056-.47035-2.58724-.695-2.48035-.67355-5.02484-1.30429-7.65488-1.90293-.898-.2139-1.7961-.40639-2.69412-.62016-20.15281-4.43685-44.82788-7.30213-75.71455-7.30213-30.72629,0-55.28383,2.85458-75.32969,7.27-.898.20307-1.7961.39557-2.68349.60947q-3.9289.89794-7.62271,1.89235c-.866.22447-1.72132.45964-2.56589.69482-1.63578.44907-3.22874.91955-4.78961,1.4006-2.33072.69482-4.58653,1.42187-6.7675,2.15963-.0214.0107-.0321.0214-.05344.0214-.73769.25658-1.46468.50245-2.181.759-1.09045.37416-2.17026.76973-3.22868,1.16529-.33142.12829-.67354.25658-1.005.37417q-3.01491,1.13853-5.84808,2.30932a1.18776,1.18776,0,0,1-.171.07478c-.65215.26727-1.29365.53455-1.92439.81253-.64151.26728-1.27225.54526-1.89235.81254q-4.378,1.92432-8.34977,3.90228c-.47041.22461-.93012.45978-1.38983.68425-3.05771,1.55016-5.94426,3.111-8.69189,4.65062-.50252.278-.99427.56666-1.48608.84464-.98357.56653-1.94579,1.12249-2.89732,1.67845-24.55748,14.45442-46.9447,46.3781-51.21045,52.66449A215.06944,215.06944,0,0,0,249.27644,465.4387c.24587.0107.48111.0107.727.0107A215.70861,215.70861,0,0,0,440.46577,350.79766C439.92058,350.00653,439.17219,348.92671,438.23137,347.601Z"/>
    <path class="cls-3" d="M249.28153,251.43258v.0911l-.01012-.0911-84.00422,25.34013c5.98779,24.40349,42.78238,54.54758,84.00422,54.54758l.01012-.039v.039c41.22184,0,78.01643-30.14409,84.00422-54.54758Z"/>
    <path class="cls-4" d="M440.46577,350.79766A215.8746,215.8746,0,0,1,303.27732,458.79942c12.82935-58.6943,8.79877-121.09839,11.02255-186.14315.898.21377,12.48722.40626,13.38524.62016,2.63.59864,5.17453,1.22938,7.65488,1.90293.87668.2246,1.732.45977,2.58724.695,1.62507.45964,3.23944.91942,4.811,1.4113q3.496,1.04223,6.79954,2.1702c.0214.0107.03211.0214.05351.0214.74833.25658,1.47538.50245,2.19167.759,1.10115.38486,2.181.78056,3.25007,1.176.33143.12842.67355.25658,1.005.3743q3.031,1.13854,5.88012,2.31989a1.18453,1.18453,0,0,0,.1711.07491c.65214.26728,1.30428.53456,1.93509.81254.64144.26727,1.28288.54525,1.903.82323,2.92936,1.28289,5.73043,2.59787,8.39258,3.91286.47041.23517.93012.47035,1.38983.695,3.079,1.561,5.9763,3.12186,8.74533,4.672.50245.278.99427.56666,1.486.84464.99433.57736,1.95649,1.13319,2.91872,1.68915.83387.49188,1.65711.99433,2.48035,1.52889.68418.42754,1.35773.87661,2.03127,1.33639,2.60864,1.77463,5.18524,3.73119,7.719,5.8052.36346.29939.71629.59877,1.07981.89815.36346.29926.71629.59864,1.06912.90859,2.68341,2.29875,5.292,4.72566,7.8045,7.19524.31.31.63074.62.94083.94082.34212.33149.68418.67355,1.0156,1.01561a239.73775,239.73775,0,0,1,17.74731,20.32384c.35282.44907.69488.89814,1.037,1.33639.67354.866,1.31505,1.71068,1.92445,2.52309q.59335.786,1.1546,1.53959c.95152,1.27218,1.8175,2.44831,2.57659,3.51742.278.38473.54526.74832.79114,1.10108C439.17219,348.92671,439.92058,350.00653,440.46577,350.79766Z"/>
    <path class="cls-5" d="M403.75249,400.92836a215.98246,215.98246,0,0,1-20.37728,18.28193l10.52-53.81922Z"/>
    <g>
      <g>
        <path class="cls-6" d="M167.06893,109.35c-4.8986,24.14641-9.71855,57.11469-15.59854,73.65934-13.26579,37.32617-27.057,72.42668,0,96.12062,0,0,65.18838,17.5675,93.54238-25.24592L227.70216,216.862Z"/>
        <path class="cls-7" d="M326.51775,94.25183c17.65952,35.99741,14.84944,80.06236,22.63675,94.50242,18.19765,33.744,32.57381,62.67832,1.48547,91.33062,0,0-66.8057,16.61263-95.1597-26.20079l17.31061-37.0221Z"/>
        <path class="cls-8" d="M193.79714,206.26846c-10.32383,0-19.0144-16.44241-19.0144-29.805s10.14319-24.60849,19.01439-18.58535C204.93335,165.43906,204.121,206.26845,193.79714,206.26846Z"/>
        <path class="cls-8" d="M303.70714,212.94427c9.80407,0,18.05711-15.61461,18.05711-28.30449s-9.63253-23.36957-18.0571-17.64967C293.13159,174.17045,293.90307,212.94426,303.70714,212.94427Z"/>
      </g>
      <path class="cls-9" d="M203.27049,193.91222s-6.12654-.35985-10.29118-16.48172c-3.56107-15.01237-12.27464-9.68888-19.45295-23.8107-19.61294-38.58434.1833-77.53527,33.177-94.21543,26.10484-13.19746,67.72879-13.0142,92.93234,5.49895,24.055,17.66953,33.54363,31.98559,32.44383,65.75834.08754,35.88068-14.09794,30.06383-20.43383,41.09772-.79218,19.51056-9.23128,21.97561-9.23128,21.97561Z"/>
      <path class="cls-10" d="M195.69252,458.54285a215.8567,215.8567,0,0,1-136.50427-108.408c4.26575-6.28639,26.653-38.21007,51.21045-52.66449.95153-.556,1.91375-1.11192,2.89732-1.67845.49181-.278.98356-.56666,1.48608-.84464,2.74763-1.53959,5.63418-3.10046,8.69189-4.65062.45971-.22447.91942-.45964,1.38983-.68425q3.97707-1.97247,8.34977-3.90228c.6201-.26728,1.25084-.54526,1.89235-.81254.63074-.278,1.27224-.54526,1.92439-.81253a1.18776,1.18776,0,0,0,.171-.07478q2.83852-1.17066,5.84808-2.30932c.33142-.11759.67354-.24588,1.005-.37417,1.05842-.38486,2.13823-.78043,3.22868-1.16529.71635-.25658,1.44334-.50245,2.181-.759.02134,0,.032-.0107.05344-.0214,2.19167-.73776,4.44748-1.46481,6.7675-2.15963,1.56087-.48105,3.16454-.94083,4.78961-1.4006.84457-.23518,1.69985-.47035,2.56589-.69482,2.46965-.663,5.00344-1.29372,7.62271-1.89235.88739-.2139,12.47659-.4064,13.37461-.60947C186.86164,337.60485,182.83107,399.92346,195.69252,458.54285Z"/>
      <path class="cls-8" d="M285.24172,196.80931l-35.8582,6.54936-35.85814-6.54936-5.485,82.29413c0,6.67712,23.37431,16.231,41.34315,16.231,17.9689,0,43.19439-9.55389,43.19439-16.231Z"/>
      <path class="cls-11" d="M151.47039,279.13a52.70471,52.70471,0,0,0,41.57726,10.13069c38.401-7.19446,24.00455-56.01775,24.00455-56.01775l-10.89871-15.10207Z"/>
      <path class="cls-12" d="M350.64,280.08483a57.10972,57.10972,0,0,1-41.57726,9.17586c-36.92176-6.004-27.75683-55.17285-27.75683-55.17285l14.651-15.947Z"/>
      <path class="cls-3" d="M249.71435,89.6347h-.00019c-29.81443,0-56.29239,15.77959-56.29239,49.34531s.67818,42.7645,7.58238,67.15794c7.33541,25.9171,27.00436,47.7462,48.71007,47.7462,22.93815,0,41.37473-21.8291,48.71013-47.7462,6.90421-24.39344,7.58239-33.59222,7.58239-67.15794S279.52878,89.6347,249.71435,89.6347Z"/>
      <path class="cls-13" d="M185.2349,145.77072a210.85668,210.85668,0,0,1,1.489-26.44649c7.69852,10.78679,19.631,21.73982,50.40708,36.88694,18.80757,9.25657,55.97594,12.4956,68.55364,9.323,0,0-.199,5.73684,5.53439,10.47355,0,0,10.99408-33.83237,4.36374-58.19166s-32.23883-44.58663-32.23883-44.58663c-24.78652-6.541-51.75729-4.21121-79.94845,3.075L178.666,132.66632Z"/>
    </g>
    <path class="cls-5" d="M95.48718,400.1418a216.63051,216.63051,0,0,0,19.98,18.15155l-10.34326-52.89693Z"/>
  </g>
</svg>
