<svg id="Layer_1" data-name="Layer 1" xmlns="http://www.w3.org/2000/svg" xmlns:xlink="http://www.w3.org/1999/xlink" viewBox="0 0 500 500">
  <defs>
    <style>
      .cls-1 {
        fill: url(#linear-gradient);
      }

      .cls-2 {
        fill: url(#linear-gradient-2);
      }

      .cls-3 {
        fill: url(#linear-gradient-3);
      }

      .cls-4 {
        fill: url(#linear-gradient-4);
      }

      .cls-5 {
        fill: #cc695c;
      }

      .cls-6 {
        fill: url(#linear-gradient-5);
      }

      .cls-7 {
        fill: url(#linear-gradient-6);
      }

      .cls-11, .cls-8 {
        fill: #dd7b19;
      }

      .cls-9 {
        fill: #dd7a64;
      }

      .cls-10 {
        fill: url(#linear-gradient-7);
      }

      .cls-11 {
        opacity: 0.5;
      }
    </style>
    <linearGradient id="linear-gradient" x1="162.74121" y1="70.86095" x2="348.35733" y2="451.91994" gradientUnits="userSpaceOnUse">
      <stop offset="0" stop-color="#f0f9ff"/>
      <stop offset="1" stop-color="#c3d6e6"/>
    </linearGradient>
    <linearGradient id="linear-gradient-2" x1="162.73778" y1="70.86283" x2="348.35264" y2="451.91922" xlink:href="#linear-gradient"/>
    <linearGradient id="linear-gradient-3" x1="179.56107" y1="224.46055" x2="221.40785" y2="224.46055" gradientUnits="userSpaceOnUse">
      <stop offset="0" stop-color="#75413e"/>
      <stop offset="0.98888" stop-color="#5b3c39"/>
    </linearGradient>
    <linearGradient id="linear-gradient-4" x1="221.91336" y1="40.61757" x2="305.53276" y2="232.45032" xlink:href="#linear-gradient-3"/>
    <linearGradient id="linear-gradient-5" x1="207.9988" y1="37.79474" x2="293.07608" y2="232.97204" xlink:href="#linear-gradient-3"/>
    <linearGradient id="linear-gradient-6" x1="188.79142" y1="262.46607" x2="352.57035" y2="503.2211" gradientUnits="userSpaceOnUse">
      <stop offset="0.00005" stop-color="#ffcb48"/>
      <stop offset="1" stop-color="#e68e2b"/>
    </linearGradient>
    <linearGradient id="linear-gradient-7" x1="210.40847" y1="37.61296" x2="297.51964" y2="237.45624" xlink:href="#linear-gradient-3"/>
  </defs>
  <g>
    <circle class="cls-1" cx="250.00092" cy="250" r="215.44891"/>
    <path class="cls-2" d="M465.44531,249.99951A215.32653,215.32653,0,0,1,249.99774,465.44708c-.24588,0-.48112,0-.727-.01071A215.29774,215.29774,0,0,1,34.55017,249.99951c0-118.99214,96.46606-215.4475,215.44757-215.4475C368.98994,34.552,465.44531,131.00737,465.44531,249.99951Z"/>
    <g>
      <path class="cls-3" d="M179.56107,197.86237s11.973,25.36931,17.73287,33.89123c8.602,12.72709,24.11391,19.30514,24.11391,19.30514l-26.56994-49.33535Z"/>
      <path class="cls-4" d="M320.061,188.4243s-13.94319,33.96813-19.61991,43.3293c-7.54441,12.44109-20.894,18.43811-20.894,18.43811l24.69649-48.46832Z"/>
      <path class="cls-5" d="M192.36333,215.181c-10.58991,0-19.50446-17.10347-19.50447-31.00335s10.40462-25.59788,19.50445-19.33258C203.78655,172.71,202.95323,215.181,192.36333,215.181Z"/>
      <path class="cls-5" d="M307.91251,215.181c10.5899,0,19.50445-17.10347,19.50446-31.00335s-10.40462-25.59788-19.50445-19.33258C296.48928,172.71,297.3226,215.181,307.91251,215.181Z"/>
      <path class="cls-6" d="M194.978,204.82175s-9.40025,1.23934-15.417-13.53743c-2.7801-6.82779-20.54148-18.11346-22.3747-37.89526-1.32567-14.30493,4.40707-21.20144,5.684-31.84282,1.1553-9.62747-2.29008-17.8574-.41939-28.64661,2.25627-13.01309,7.14486-23.64283,20.58848-30.79288,15.471-8.22832,34.70156-5.0527,45.78352-7.24538S249.13374,43.326,267.7437,45.51864c21.0278,2.47756,23.85906,16.36456,31.68182,19.82947,8.179,3.62269,21.65019,5.06513,29.167,14.60993,8.10847,10.29608,3.89308,18.21545,7.96746,28.767s8.743,24.9775,5.45265,39.94494c-3.63591,16.53914-15.60588,23.16616-20.11842,34.32024-4.37153,14.0141-18.37977,21.83149-18.37977,21.83149Z"/>
      <path class="cls-7" d="M385.02663,300.622c-29.454-18.97675-90.10476-28.35289-135.75588-28.35289S142.97961,281.64521,113.5148,300.622c-26.41772,17.031-49.72436,44.2079-54.26809,49.639a215.41055,215.41055,0,0,0,190.024,115.17546v.01071h.727a215.40993,215.40993,0,0,0,190.08818-113.946v-.278S414.48067,319.60941,385.02663,300.622Z"/>
      <path class="cls-8" d="M249.27075,272.26907a403.7098,403.7098,0,0,0-79.93658,8.27414c3.50809,40.12565,48.25068,57.48777,79.93658,57.48777s76.42849-17.36212,79.93658-57.48777A403.70988,403.70988,0,0,0,249.27075,272.26907Z"/>
      <path class="cls-9" d="M249.27232,263.26149c-25.01557,5.98374-48.33682,12.28344-63.23581,14.17709,1.52366,33.00037,37.737,47.24,63.23581,47.24s61.71214-14.23961,63.23581-47.24C297.60913,275.54493,274.28788,269.24523,249.27232,263.26149Z"/>
      <path class="cls-5" d="M282.96006,200.93453l-33.68774,6.27816-33.68775-6.27816c0,39.76193-.7279,61.41811-.7279,76.33922,0,7.27916,20.1994,18.10666,34.41565,18.10666s34.41564-10.8275,34.41564-18.10666C283.688,262.35264,282.96006,240.69646,282.96006,200.93453Z"/>
      <path class="cls-9" d="M249.24634,83.08021h-.00026c-32.09667,0-60.60166,18.284-60.60166,57.1767,0,38.89275.73019,49.55138,8.16288,77.81631,7.897,30.03015,25.52409,45.18827,52.43891,45.18827s44.54194-15.15812,52.43891-45.18827c7.43276-28.26493,8.16288-38.92356,8.16288-77.81631C309.848,101.36423,281.34308,83.08021,249.24634,83.08021Z"/>
      <path class="cls-10" d="M187.27,139.89929a33.20716,33.20716,0,0,1,8.555-9.10439c5.92271-4.433,20.87052-7.86506,31.02374-4.147s14.05469,12.25042,30.36566,15.63477,31.21769-1.67414,37.74555.95334,12.417,9.24927,14.888,23.0231l3.68784-47.4286s-26.91972-44.48717-35.53335-36.03623l-62.81109,0-32.71594,44.61631Z"/>
    </g>
    <g>
      <path class="cls-11" d="M97.43107,402.11821a216.71525,216.71525,0,0,0,17.83481,16.00537c.2214.16339.43694.3341.659.49658l-9.15832-58.58872Z"/>
      <path class="cls-11" d="M393.23043,360.03144l-9.15826,58.58872c.191-.13977.37632-.28673.56686-.42715a216.69881,216.69881,0,0,0,17.92538-16.08158Z"/>
    </g>
  </g>
</svg>
