<svg id="Layer_1" data-name="Layer 1" xmlns="http://www.w3.org/2000/svg" xmlns:xlink="http://www.w3.org/1999/xlink" viewBox="0 0 500 500">
  <defs>
    <style>
      .cls-1 {
        fill: url(#linear-gradient);
      }

      .cls-2 {
        fill: #e9f1f4;
      }

      .cls-3 {
        fill: url(#linear-gradient-2);
      }

      .cls-4 {
        fill: #ed8324;
      }

      .cls-5 {
        fill: url(#linear-gradient-3);
      }

      .cls-6 {
        fill: #7a403f;
      }

      .cls-7 {
        fill: url(#linear-gradient-4);
      }

      .cls-8 {
        fill: url(#linear-gradient-5);
      }

      .cls-9 {
        fill: url(#linear-gradient-6);
      }

      .cls-10 {
        fill: #93514c;
      }

      .cls-11 {
        fill: url(#linear-gradient-7);
      }

      .cls-12 {
        fill: #dd7b19;
        opacity: 0.5;
      }
    </style>
    <linearGradient id="linear-gradient" x1="162.74029" y1="70.86095" x2="348.35642" y2="451.91994" gradientUnits="userSpaceOnUse">
      <stop offset="0" stop-color="#f0f9ff"/>
      <stop offset="1" stop-color="#c3d6e6"/>
    </linearGradient>
    <linearGradient id="linear-gradient-2" x1="196.49657" y1="215.10002" x2="438.07049" y2="464.8629" gradientUnits="userSpaceOnUse">
      <stop offset="0.00005" stop-color="#ffcb48"/>
      <stop offset="1" stop-color="#e68e2b"/>
    </linearGradient>
    <linearGradient id="linear-gradient-3" x1="235.42095" y1="46.45621" x2="261.44148" y2="199.65572" gradientUnits="userSpaceOnUse">
      <stop offset="0" stop-color="#3f3230"/>
      <stop offset="1"/>
    </linearGradient>
    <linearGradient id="linear-gradient-4" x1="187.67973" y1="161.87883" x2="192.43849" y2="189.89673" xlink:href="#linear-gradient-3"/>
    <linearGradient id="linear-gradient-5" x1="282.14274" y1="160.92206" x2="286.90151" y2="188.93996" gradientTransform="matrix(-1, 0, 0, 1, 593.14894, 0)" xlink:href="#linear-gradient-3"/>
    <linearGradient id="linear-gradient-6" x1="110.93606" y1="297.85527" x2="352.50999" y2="547.61814" xlink:href="#linear-gradient-2"/>
    <linearGradient id="linear-gradient-7" x1="234.93234" y1="52.97341" x2="259.21011" y2="195.9122" xlink:href="#linear-gradient-3"/>
  </defs>
  <g>
    <circle class="cls-1" cx="250" cy="250" r="215.44891"/>
    <path class="cls-2" d="M385.02981,293.71553c-1.05841-.60946-2.1702-1.2188-3.357-1.81744-.36346-.18179-.73762-.37429-1.12262-.556-.53455-.26728-1.07981-.52386-1.63564-.79114q-3.33556-1.57157-7.18454-3.10045c-.36333-.14969-.72692-.29938-1.10108-.43837-3.73133-1.454-7.76177-2.87585-12.04892-4.24435-.85521-.278-1.72126-.556-2.6087-.82324q-1.25091-.38486-2.53366-.76973-5.11581-1.50735-10.59508-2.94005c-1.45384-.3743-2.92935-.74833-4.41531-1.12262-5.21727-1.28289-10.61634-2.491-16.1223-3.61348-1.57156-.32079-3.15382-.64157-4.74679-.941-2.48042-.47035-4.99267-.93-7.50519-1.3685q-3.17523-.545-6.36117-1.05841c-1.05841-.171-2.11682-.33136-3.18593-.49175a351.07315,351.07315,0,0,0-51.23192-4.28715,351.21317,351.21317,0,0,0-51.24262,4.28715c-1.05841.16039-2.12752.32079-3.18593.49175-1.97784.32079-3.95567.64157-5.93363.98363q-3.99312.68967-7.922,1.44328c-1.593.31008-3.17523.62016-4.7468.941-.107.02127-.2139.04268-.31008.06408-1.037.21377-2.06345.42767-3.08975.64144-1.02644.22447-2.05274.43837-3.06835.66285-.1818.0428-.36359.08548-.54526.11758q-2.77431.62545-5.48455,1.26161c-.99433.23518-1.98853.47035-2.96146.70565-.2246.05338-.43837.10676-.66285.16027-1.48608.36359-2.96146.73775-4.41544,1.12262q-.36881.09632-.73775.19236c-.9514.24588-1.90292.50245-2.84375.75916q-3.5922.97821-7.01344,1.98853-1.283.38487-2.53366.76973c-.87674.278-1.75349.54526-2.6087.82324l-1.283.417c-.84464.26728-1.67845.55583-2.51239.83381-2.46958.83394-4.85368,1.68928-7.131,2.55533-.759.28868-1.50735.57723-2.23428.87661-.36359.139-.72718.28868-1.07981.43837-.72706.28868-1.43271.57737-2.117.87662a95.86007,95.86007,0,0,0-10.09249,4.95C90.27542,307.133,63.9112,343.50417,59.19638,350.16472A215.09139,215.09139,0,0,0,249.27393,465.43637v.01071h.727A215.14615,215.14615,0,0,0,440.0784,351.52252v-.29938S410.65654,308.51214,385.02981,293.71553Z"/>
    <path class="cls-3" d="M440.0784,351.22314v.29938A215.99548,215.99548,0,0,1,312.38354,456.27414c2.51252-75.8108,2.66208-113.47562-11.87769-186.635,1.06911.16039,2.12752.32079,3.18593.49175q3.19128.51328,6.36117,1.05841c2.51252.4385,5.02477.89815,7.50519,1.3685,1.593.31008,3.17523.62016,4.74679.941,5.506,1.12249,10.905,2.33059,16.1223,3.61348,1.486.37429,2.96147.74832,4.41531,1.12262q5.46876,1.42728,10.59508,2.94005,1.28281.38487,2.53366.76973c.87674.278,1.74279.54526,2.6087.82324,4.28715,1.3685,8.31759,2.79037,12.04892,4.24435.37416.139.73775.28868,1.10108.43837q3.849,1.52361,7.18454,3.10045c.55583.26728,1.10109.52386,1.63564.79114.385.18166.75916.37416,1.12262.556,1.18683.59864,2.29862,1.208,3.357,1.81744C410.65654,308.51214,440.0784,351.22314,440.0784,351.22314Z"/>
    <path class="cls-4" d="M312.81044,361.40416c-3.87432-42.59426-15.31526-84.3062-29.85151-94.05833l0-26.01247s29.84269,10.32686,39.89839,39.53442C332.09264,307.69245,312.81044,361.40416,312.81044,361.40416Z"/>
    <g>
      <path class="cls-5" d="M195.43282,203.48223s-28.02339-28.44671-32.3183-74.82346c-3.9125-42.24739,27.54934-59.44476,40.82266-65.344,22.11015-9.82673,65.30624-10.50152,93.354,1.41032,30.20811,12.82935,44.03833,43.85636,32.57381,85.8537-4.91253,17.99579-26.76,52.90345-26.76,52.90345Z"/>
      <path class="cls-6" d="M194.21761,219.46545c-10.24938,0-18.87728-16.32383-18.87728-29.5901s10.07-24.431,18.87726-18.45132C205.27351,178.9305,204.467,219.46544,194.21761,219.46545Z"/>
      <polygon class="cls-7" points="184.648 169.769 192.21 191.929 192.21 162.81 184.648 169.769"/>
      <path class="cls-6" d="M306.05117,219.46545c10.24938,0,18.87728-16.32383,18.87728-29.5901s-10.07-24.431-18.87726-18.45132C294.99527,178.9305,295.8018,219.46544,306.05117,219.46545Z"/>
      <polygon class="cls-8" points="314.038 168.812 306.476 190.973 306.476 161.854 314.038 168.812"/>
      <path class="cls-9" d="M186.14292,455.82506A216.07812,216.07812,0,0,1,59.19638,350.16472c4.71482-6.66055,31.079-43.03177,54.32154-56.44919a95.86007,95.86007,0,0,1,10.09249-4.95c.69495-.29925,1.40047-.58794,2.117-.87662.35263-.14969.71622-.29938,1.07981-.43837.73763-.29938,1.47525-.58793,2.23428-.87661,2.27735-.866,4.66145-1.72139,7.131-2.55533.83394-.278,1.66775-.56653,2.51239-.83381l1.283-.417c.85521-.278,1.732-.54526,2.6087-.82324q1.25071-.38486,2.53366-.76973,3.416-1.01031,7.01344-1.98853c.94083-.25671,1.89235-.51328,2.84375-.75916q.3688-.09612.73775-.19236c1.454-.3743,2.92936-.74833,4.41544-1.12262.22448-.05351.43825-.10689.66285-.16027.97293-.2353,1.96713-.47047,2.96146-.70565q2.7103-.6415,5.48455-1.26161c.18167-.0321.36346-.07478.54526-.11758,1.01561-.22448,2.04191-.43838,3.06835-.66285,1.0263-.21377,2.05274-.42767,3.08975-.64144.09618-.0214.20307-.04281.31008-.06408,1.57157-.32079,3.15383-.63087,4.7468-.941q3.92891-.75369,7.922-1.44328c1.978-.34206,3.95579-.66284,5.93363-.98363,1.05841-.171,2.12752-.33136,3.18593-.49175C183.51281,342.65953,183.6518,380.31364,186.14292,455.82506Z"/>
      <path class="cls-10" d="M249.27145,265.3543h-.00026a351.97451,351.97451,0,0,0-51.23544,4.28062c.59994,27.271,27.26615,47.49172,51.23557,47.49172s50.63563-20.22073,51.23557-47.49172A351.97451,351.97451,0,0,0,249.27145,265.3543Z"/>
      <path class="cls-4" d="M185.73219,361.40416c3.87433-42.59426,15.31527-84.3062,29.85151-94.05833V241.33336s-29.84269,10.32686-39.89839,39.53442C166.45,307.69245,185.73219,361.40416,185.73219,361.40416Z"/>
      <path class="cls-6" d="M249.27132,207.21269l-33.68762-6.27816v78.88685c0,7.37011,20.56332,15.559,33.68762,15.559s33.68761-8.18892,33.68761-15.559V200.93453Z"/>
      <path class="cls-10" d="M249.27145,93.38641h-.00026c-31.06456,0-58.65293,17.45053-58.65293,54.57041,0,37.11982.70669,47.29257,7.90036,74.269,7.643,28.66128,24.70339,43.12849,50.75283,43.12849,26.04931,0,43.10956-14.46721,50.75256-43.12849,7.19381-26.97642,7.90037-37.14917,7.90037-74.269C307.92438,110.83694,280.33614,93.38641,249.27145,93.38641Z"/>
      <path class="cls-11" d="M189.28806,147.61542s-.31846-15.26061,7.18807-19.4715,22.48553,4.36744,52.79529,4.09448c24.87859-.22405,31.86079-3.44443,44.06176-3.958,14.59125-.61417,14.59125,22.31488,14.59125,22.31488s6.7-18.62986,2.46905-30.09438-13.626-19.38051-33.29057-27.38748-60.79133,0-60.79133,0L184.64766,135.696Z"/>
    </g>
    <g>
      <path class="cls-12" d="M97.43333,402.11821a216.71525,216.71525,0,0,0,17.83481,16.00537c.22141.16339.43694.3341.659.49658l-9.15833-58.58872Z"/>
      <path class="cls-12" d="M393.23269,360.03144l-9.15826,58.58872c.191-.13977.37632-.28673.56686-.42715a216.69719,216.69719,0,0,0,17.92538-16.08158Z"/>
    </g>
  </g>
</svg>
