<svg id="Layer_1" data-name="Layer 1" xmlns="http://www.w3.org/2000/svg" xmlns:xlink="http://www.w3.org/1999/xlink" viewBox="0 0 500 500">
  <defs>
    <style>
      .cls-1 {
        fill: url(#linear-gradient);
      }

      .cls-2 {
        fill: #473634;
      }

      .cls-3 {
        fill: #7a403f;
      }

      .cls-4 {
        fill: url(#linear-gradient-2);
      }

      .cls-5 {
        fill: url(#linear-gradient-3);
      }

      .cls-6 {
        fill: #303d49;
      }

      .cls-7 {
        fill: #a05452;
      }

      .cls-8 {
        fill: #dd7b19;
        opacity: 0.5;
      }
    </style>
    <linearGradient id="linear-gradient" x1="162.74029" y1="70.86046" x2="348.35642" y2="451.91945" gradientUnits="userSpaceOnUse">
      <stop offset="0" stop-color="#f0f9ff"/>
      <stop offset="1" stop-color="#c3d6e6"/>
    </linearGradient>
    <linearGradient id="linear-gradient-2" x1="207.1059" y1="247.42393" x2="307.01105" y2="488.72489" gradientUnits="userSpaceOnUse">
      <stop offset="0.00005" stop-color="#ffcb48"/>
      <stop offset="1" stop-color="#e68e2b"/>
    </linearGradient>
    <linearGradient id="linear-gradient-3" x1="238.84523" y1="225.05865" x2="259.79562" y2="327.40643" xlink:href="#linear-gradient-2"/>
  </defs>
  <g>
    <circle class="cls-1" cx="250" cy="249.99951" r="215.44891"/>
    <path class="cls-2" d="M249.05929,190.98921s20.86285-4.75234,41.54424,10.4453c20.47,15.0423,18.83882,33.02662,35.62192,44.62975,22.11015,15.286,80.25167,6.18721,83.52725,89.16853C408.24583,399.1967,304.44,427.47572,271.32745,429.32166c-26.92989,1.50127-72.33025-6.246-89.70471-43.21553s-26.27332-67.70617-4.733-116.11194c19.15931-43.05513,46.155-77.704,46.155-77.704Z"/>
    <path class="cls-2" d="M195.37135,178.89328s-7.26614,23.4966,3.65246,45.19731c13.28507,26.40409,50.24756,32.32557,50.24756,32.32557s34.54081-4.0612,48.78747-28.2311a57.80372,57.80372,0,0,0,5.46047-45.32817Z"/>
    <g>
      <g>
        <path class="cls-3" d="M194.21761,206.16209c-10.24938,0-18.87728-16.32383-18.87728-29.5901s10.07-24.431,18.87726-18.45132C205.27351,165.62714,204.467,206.16208,194.21761,206.16209Z"/>
        <path class="cls-3" d="M306.05117,206.16209c10.24938,0,18.87728-16.32383,18.87728-29.5901s-10.07-24.431-18.87726-18.45132C294.99527,165.62714,295.8018,206.16208,306.05117,206.16209Z"/>
      </g>
      <path class="cls-2" d="M198.95338,193.895s-6.08235-.35726-10.21695-16.36285c-6.11936-7.35208-12.00476-7.28158-18.28295-21.06631-15.83173-34.761.89407-79.10342,33.64985-95.66329,25.91659-13.10228,69.1061-14.3029,95.55353,1.73836,25.33589,15.36708,37.85113,38.761,33.66567,69.879C328.961,164.84714,312.85017,174.544,312.85017,174.544c-.78647,19.36986-12.41991,20.06643-12.41991,20.06643Z"/>
      <path class="cls-4" d="M388.60061,297.47033c-25.6587-15.10644-63.86877-32.11619-138.86691-32.11619-74.99839,0-113.20846,17.00975-138.86716,32.11619-25.11344,14.7859-47.96024,47.83208-51.47766,53.04948A215.4177,215.4177,0,0,0,249.7337,465.4494h.26728a215.45762,215.45762,0,0,0,190.3768-114.46994v-.0107C438.17548,347.67581,414.6122,312.78009,388.60061,297.47033Z"/>
      <path class="cls-5" d="M201.16348,240.18279s-4.74471,41.606-4.74471,51.28269c0,12.2051,12.756,33.48564,53.39981,33.48564s52.72774-21.186,52.72774-33.48564c0-10.39761-4.37842-51.28269-4.37842-51.28269C295.757,204.3025,205.27624,203.30977,201.16348,240.18279Z"/>
      <ellipse class="cls-6" cx="249.48254" cy="236.95699" rx="39.70941" ry="23.31643"/>
      <path class="cls-7" d="M249.73162,90.36946h-.00026c-29.59949,0-55.88645,15.66578-55.88645,48.98941s.67342,42.45611,7.52764,66.67363c7.28254,25.73021,26.80977,47.4018,48.35881,47.4018,22.77267,0,41.07639-21.67159,48.3588-47.4018,6.85449-24.21752,7.5279-33.35,7.5279-66.67363S279.33084,90.36946,249.73162,90.36946Z"/>
      <path class="cls-2" d="M185.53514,156.4658c36.071,6.51864,58.78249-11.39854,64.1963-42.15994,5.72445,31.94424,37.733,45.5015,55.76683,42.15994-.54593,15.741-.39766,14.95126,5.29434,19.65382,0,0,10.91479-33.58838,4.33227-57.772s-32.00633-44.26508-32.00633-44.26508c-24.60776-6.49383-51.384-4.18083-79.37187,3.05278l-24.55112,55.95543Z"/>
    </g>
    <g>
      <path class="cls-8" d="M395.76257,408.6468l-9.82678-43.24294-8.94821,58.65528A216.59274,216.59274,0,0,0,395.76257,408.6468Z"/>
      <path class="cls-8" d="M122.91846,423.9905l-9.15832-58.58873L104.17963,408.593A216.5358,216.5358,0,0,0,122.91846,423.9905Z"/>
    </g>
  </g>
</svg>
