<svg id="Layer_1" data-name="Layer 1" xmlns="http://www.w3.org/2000/svg" xmlns:xlink="http://www.w3.org/1999/xlink" viewBox="0 0 500 500">
  <defs>
    <style>
      .cls-1 {
        fill: url(#linear-gradient);
      }

      .cls-2 {
        fill: url(#linear-gradient-2);
      }

      .cls-3 {
        fill: url(#linear-gradient-3);
      }

      .cls-4 {
        fill: url(#linear-gradient-4);
      }

      .cls-5 {
        fill: url(#linear-gradient-5);
      }

      .cls-6 {
        fill: url(#linear-gradient-6);
      }

      .cls-7 {
        fill: #ef8e73;
      }

      .cls-8 {
        fill: #e2786d;
      }

      .cls-9 {
        fill: url(#linear-gradient-7);
      }

      .cls-10 {
        fill: #dd7b19;
        opacity: 0.5;
      }

      .cls-11 {
        fill: url(#linear-gradient-8);
      }
    </style>
    <linearGradient id="linear-gradient" x1="162.74121" y1="70.86046" x2="348.35733" y2="451.91945" gradientUnits="userSpaceOnUse">
      <stop offset="0" stop-color="#f0f9ff"/>
      <stop offset="1" stop-color="#c3d6e6"/>
    </linearGradient>
    <linearGradient id="linear-gradient-2" x1="162.73856" y1="70.86474" x2="348.35383" y2="451.92197" xlink:href="#linear-gradient"/>
    <linearGradient id="linear-gradient-3" x1="162.73859" y1="70.8648" x2="348.35462" y2="451.9236" xlink:href="#linear-gradient"/>
    <linearGradient id="linear-gradient-4" x1="175.04068" y1="-4.88028" x2="388.67104" y2="332.90175" gradientUnits="userSpaceOnUse">
      <stop offset="0" stop-color="#75413e"/>
      <stop offset="1" stop-color="#592f2f"/>
    </linearGradient>
    <linearGradient id="linear-gradient-5" x1="25.98988" y1="89.38695" x2="239.62024" y2="427.16898" xlink:href="#linear-gradient-4"/>
    <linearGradient id="linear-gradient-6" x1="192.85062" y1="261.18729" x2="346.80282" y2="504.39901" gradientUnits="userSpaceOnUse">
      <stop offset="0.00005" stop-color="#ffcb48"/>
      <stop offset="1" stop-color="#e68e2b"/>
    </linearGradient>
    <linearGradient id="linear-gradient-7" x1="169.71402" y1="-1.51143" x2="383.34438" y2="336.2706" xlink:href="#linear-gradient-4"/>
    <linearGradient id="linear-gradient-8" x1="167.13907" y1="0.1171" x2="380.76942" y2="337.89913" xlink:href="#linear-gradient-4"/>
  </defs>
  <g>
    <circle class="cls-1" cx="250.00092" cy="249.99951" r="215.44891"/>
    <path class="cls-2" d="M465.44531,250.00184A215.33156,215.33156,0,0,1,249.99774,465.4494h-.23524A215.31956,215.31956,0,0,1,34.55017,250.00184c0-118.99228,96.46606-215.44757,215.44757-215.44757C368.98994,34.55427,465.44531,131.00956,465.44531,250.00184Z"/>
    <path class="cls-3" d="M465.44531,250.00184a214.57325,214.57325,0,0,1-25.028,100.8813c-.01071.02141-.02141.03211-.032.05351A215.9637,215.9637,0,0,1,397.685,406.85129a215.40138,215.40138,0,0,1-91.32363,51.157c-1.37913.37416-2.769.72706-4.1588,1.06911-.97293.23518-1.9565.47048-2.92942.70565a215.36743,215.36743,0,0,1-45.651,5.63425c-1.28295.0214-2.5659.0321-3.85955.0321A215.31956,215.31956,0,0,1,34.55017,250.00184c0-118.99228,96.46606-215.44757,215.44757-215.44757C368.98994,34.55427,465.44531,131.00956,465.44531,250.00184Z"/>
    <g>
      <g>
        <path class="cls-4" d="M332.35813,108.05192c7.65734,29.11164,10.11651,35.09151,17.75948,48.51331,8.70579,15.28822,20.3394,13.47152,27.40285,43.06161,6.89731,28.89416-4.46473,52.0771,3.54186,66.36336,9.50711,16.96367,38.96051,15.84518,54.33966,84.91154-8.46087,2.58494-68.50712,5.3128-68.50712,5.3128s-97.89869-77.67823-111.2693-97.86731l17.60484-37.65134Z"/>
        <path class="cls-5" d="M167.50935,108.05192c-7.65734,29.11164-12.91182,35.09151-20.55479,48.51331-8.70579,15.28822-20.3394,13.47152-27.40284,43.06161-6.89732,28.89416,4.46472,52.0771-3.54187,66.36336-9.50711,16.96367-38.96051,15.84518-54.33966,84.91154,8.46088,2.58494,68.50712,5.3128,68.50712,5.3128s97.89869-77.67823,111.2693-97.86731l-17.60483-37.65134Z"/>
        <path class="cls-6" d="M388.62954,297.47033c-25.6587-15.10644-62.789-24.68578-138.867-32.11619-76.078,7.43041-113.20827,17.00975-138.867,32.11619C85.75,312.27764,62.871,345.388,59.39633,350.54108A215.42384,215.42384,0,0,0,249.7625,465.4494c1.29365,0,2.5766-.0107,3.85955-.0321a219.96364,219.96364,0,0,0,45.65105-5.63425c.97292-.23517,1.95649-.47047,2.92942-.70565,1.38983-.34205,2.77967-.695,4.1588-1.06911a216.17935,216.17935,0,0,0,134.024-107.07164c.01063-.0214.02133-.0321.032-.05351C436.06605,344.48987,413.14428,311.90334,388.62954,297.47033Z"/>
        <path class="cls-7" d="M249.76152,265.35375c-28.33755,2.76884-51.26611,5.83653-70.21747,9.376,3.268,35.21963,21.941,61.68591,70.21747,61.68591S316.711,309.94939,319.979,274.72976C301.02763,271.19028,278.09907,268.12259,249.76152,265.35375Z"/>
        <path class="cls-8" d="M192.894,209.92231c-10.4993,0-19.33757-16.72186-19.33758-30.31162s10.31559-25.02675,19.33757-18.90124C204.21953,168.399,203.39334,209.92231,192.894,209.92231Z"/>
        <path class="cls-8" d="M307.45457,209.92231c10.49929,0,19.33757-16.72186,19.33758-30.31162s-10.3156-25.02675-19.33757-18.90124C296.12908,168.399,296.95527,209.92231,307.45457,209.92231Z"/>
      </g>
      <path class="cls-9" d="M202.5284,197.35606s-6.23066-.366-10.46608-16.76184c-3.62161-15.26754-12.03129-10.09241-19.78359-24.21541-18.82781-34.30016.18641-78.85308,33.74092-95.81675,26.54854-13.42176,67.41953-10.84,94.51186,5.59242,25.95368,15.74179,34.69629,38.77409,34.69592,66.876.089,36.49053-16.03822,30.57481-22.4818,41.79623-.80564,19.84217-9.38817,22.34912-9.38817,22.34912Z"/>
      <path class="cls-10" d="M397.685,406.85129a212.72376,212.72376,0,0,1-19.45786,16.29326l9.67546-50.71863Z"/>
      <path class="cls-8" d="M283.81442,203.90784l-34.0529,6.2197-34.0529-6.2197-2.61334,71.36365c0,11.28246,22.81006,22.20118,36.66624,22.20118,13.85624,0,36.66624-10.91872,36.66624-22.20118Z"/>
      <path class="cls-7" d="M249.76165,91.30623h-.00026c-30.32112,0-57.24913,16.04779-57.24913,50.18408,0,34.13617.68973,43.49116,7.71126,68.29922,7.4601,26.35769,27.46335,48.5577,49.538,48.5577,23.328,0,42.0779-22.2,49.538-48.5577,7.02154-24.80806,7.71126-34.16305,7.71126-68.29922C307.01078,107.354,280.08277,91.30623,249.76165,91.30623Z"/>
      <path class="cls-11" d="M185.70053,151.11262c2.38274,3.9,31.87678-16.49763,36.49053-35.28637,3.12243,16.59838,9.76415,28.84743,36.95656,45.39933a122.85383,122.85383,0,0,0,46.8831,16.59084s-2.6797,6.99052,6.2809,1.33087c0,0,11.18094-34.40741,4.4379-59.18072s-32.78677-45.34444-32.78677-45.34444c-25.20779-6.65218-52.637-4.28278-81.30728,3.12722L177.5057,135.0692Z"/>
    </g>
    <path class="cls-10" d="M121.49158,422.93861l-9.874-50.51426L102.11724,406.675A216.56925,216.56925,0,0,0,121.49158,422.93861Z"/>
  </g>
</svg>
