<svg id="Layer_1" data-name="Layer 1" xmlns="http://www.w3.org/2000/svg" xmlns:xlink="http://www.w3.org/1999/xlink" viewBox="0 0 1000 1000">
  <defs>
    <style>
      .cls-1 {
        fill: url(#linear-gradient);
      }

      .cls-2 {
        fill: #b8cbd8;
      }

      .cls-3 {
        fill: url(#linear-gradient-2);
      }

      .cls-4, .cls-89 {
        opacity: 0.6;
      }

      .cls-5 {
        fill: #9bb0c4;
      }

      .cls-6, .cls-8 {
        opacity: 0.2;
      }

      .cls-7, .cls-8 {
        fill: #2a3f5e;
      }

      .cls-9 {
        fill: url(#linear-gradient-3);
      }

      .cls-10 {
        fill: url(#linear-gradient-4);
      }

      .cls-11 {
        fill: url(#linear-gradient-5);
      }

      .cls-12 {
        fill: url(#linear-gradient-6);
      }

      .cls-13 {
        fill: url(#linear-gradient-7);
      }

      .cls-14 {
        fill: url(#linear-gradient-8);
      }

      .cls-15 {
        fill: url(#linear-gradient-9);
      }

      .cls-16 {
        fill: url(#linear-gradient-10);
      }

      .cls-17 {
        fill: #e58630;
      }

      .cls-18 {
        fill: url(#linear-gradient-11);
      }

      .cls-19 {
        fill: #ffcb48;
      }

      .cls-20 {
        fill: url(#linear-gradient-12);
      }

      .cls-21 {
        fill: url(#linear-gradient-13);
      }

      .cls-22 {
        fill: url(#linear-gradient-14);
      }

      .cls-23 {
        fill: #748ca3;
      }

      .cls-24 {
        fill: #586c7f;
      }

      .cls-25 {
        fill: url(#linear-gradient-15);
      }

      .cls-26, .cls-27, .cls-41, .cls-42 {
        fill: none;
        stroke-miterlimit: 10;
      }

      .cls-26, .cls-27 {
        stroke-width: 5px;
      }

      .cls-26 {
        stroke: url(#linear-gradient-16);
      }

      .cls-27 {
        stroke: url(#linear-gradient-17);
      }

      .cls-28 {
        fill: url(#linear-gradient-18);
      }

      .cls-29 {
        fill: url(#linear-gradient-19);
      }

      .cls-30 {
        fill: url(#linear-gradient-20);
      }

      .cls-31 {
        fill: url(#linear-gradient-21);
      }

      .cls-32 {
        fill: url(#linear-gradient-22);
      }

      .cls-33 {
        fill: url(#linear-gradient-23);
      }

      .cls-34 {
        fill: url(#linear-gradient-24);
      }

      .cls-35 {
        fill: url(#linear-gradient-25);
      }

      .cls-36 {
        fill: url(#linear-gradient-26);
      }

      .cls-37 {
        fill: url(#linear-gradient-27);
      }

      .cls-38 {
        fill: url(#linear-gradient-28);
      }

      .cls-39 {
        fill: url(#linear-gradient-29);
      }

      .cls-40 {
        fill: url(#linear-gradient-30);
      }

      .cls-41, .cls-42 {
        stroke-width: 4px;
      }

      .cls-41 {
        stroke: url(#linear-gradient-31);
      }

      .cls-42 {
        stroke: url(#linear-gradient-32);
      }

      .cls-43 {
        fill: url(#linear-gradient-33);
      }

      .cls-44 {
        fill: url(#linear-gradient-34);
      }

      .cls-45 {
        fill: url(#linear-gradient-35);
      }

      .cls-46 {
        fill: url(#linear-gradient-36);
      }

      .cls-47 {
        fill: url(#linear-gradient-37);
      }

      .cls-48 {
        fill: url(#linear-gradient-38);
      }

      .cls-49 {
        fill: url(#linear-gradient-39);
      }

      .cls-50 {
        fill: url(#linear-gradient-40);
      }

      .cls-51 {
        fill: url(#linear-gradient-41);
      }

      .cls-52 {
        fill: url(#linear-gradient-42);
      }

      .cls-53 {
        fill: url(#linear-gradient-43);
      }

      .cls-54 {
        fill: url(#linear-gradient-44);
      }

      .cls-55, .cls-56 {
        fill: #64fbff;
      }

      .cls-117, .cls-55, .cls-58 {
        opacity: 0.4;
      }

      .cls-57 {
        fill: #485565;
      }

      .cls-58 {
        fill: url(#linear-gradient-45);
      }

      .cls-59 {
        fill: url(#linear-gradient-46);
      }

      .cls-60 {
        fill: url(#linear-gradient-47);
      }

      .cls-61 {
        fill: url(#linear-gradient-48);
      }

      .cls-62 {
        fill: url(#linear-gradient-49);
      }

      .cls-63 {
        fill: url(#linear-gradient-50);
      }

      .cls-64 {
        fill: url(#linear-gradient-51);
      }

      .cls-65 {
        fill: url(#linear-gradient-52);
      }

      .cls-66 {
        fill: url(#linear-gradient-53);
      }

      .cls-67 {
        fill: url(#linear-gradient-54);
      }

      .cls-68 {
        fill: url(#linear-gradient-55);
      }

      .cls-69 {
        fill: url(#linear-gradient-56);
      }

      .cls-70 {
        fill: url(#linear-gradient-57);
      }

      .cls-71 {
        fill: #ef8e73;
      }

      .cls-72 {
        fill: url(#linear-gradient-58);
      }

      .cls-73 {
        fill: #303d49;
      }

      .cls-74 {
        fill: #e48f7c;
      }

      .cls-75 {
        fill: #e2786d;
      }

      .cls-76 {
        fill: #27343d;
      }

      .cls-77 {
        fill: #ffbda3;
      }

      .cls-78 {
        fill: url(#linear-gradient-59);
      }

      .cls-79 {
        fill: #dd7b19;
      }

      .cls-79, .cls-95, .cls-97 {
        opacity: 0.5;
      }

      .cls-80 {
        fill: url(#linear-gradient-60);
      }

      .cls-81 {
        fill: url(#linear-gradient-61);
      }

      .cls-82 {
        fill: url(#linear-gradient-62);
      }

      .cls-83 {
        fill: #c93535;
      }

      .cls-84 {
        fill: url(#linear-gradient-63);
      }

      .cls-85 {
        fill: url(#linear-gradient-64);
      }

      .cls-86 {
        fill: url(#linear-gradient-65);
      }

      .cls-87 {
        fill: url(#linear-gradient-66);
      }

      .cls-88 {
        fill: #fff;
      }

      .cls-89 {
        fill: #9ff8ff;
      }

      .cls-90 {
        fill: url(#linear-gradient-67);
      }

      .cls-91 {
        fill: url(#linear-gradient-68);
      }

      .cls-92 {
        fill: url(#linear-gradient-69);
      }

      .cls-93 {
        fill: url(#linear-gradient-70);
      }

      .cls-94 {
        fill: url(#linear-gradient-71);
      }

      .cls-95 {
        fill: #426884;
      }

      .cls-96 {
        fill: url(#linear-gradient-72);
      }

      .cls-97 {
        fill: url(#linear-gradient-73);
      }

      .cls-98 {
        fill: url(#linear-gradient-74);
      }

      .cls-99 {
        fill: url(#linear-gradient-75);
      }

      .cls-100 {
        fill: #724133;
      }

      .cls-101 {
        fill: url(#linear-gradient-76);
      }

      .cls-102 {
        fill: url(#linear-gradient-77);
      }

      .cls-103 {
        fill: url(#linear-gradient-78);
      }

      .cls-104 {
        fill: url(#linear-gradient-79);
      }

      .cls-105 {
        fill: url(#linear-gradient-80);
      }

      .cls-106 {
        fill: url(#linear-gradient-81);
      }

      .cls-107 {
        fill: url(#linear-gradient-82);
      }

      .cls-108 {
        fill: url(#linear-gradient-83);
      }

      .cls-109 {
        fill: url(#linear-gradient-84);
      }

      .cls-110 {
        fill: url(#linear-gradient-85);
      }

      .cls-111 {
        fill: url(#linear-gradient-86);
      }

      .cls-112 {
        fill: url(#linear-gradient-87);
      }

      .cls-113 {
        fill: url(#linear-gradient-88);
      }

      .cls-114 {
        fill: url(#linear-gradient-89);
      }

      .cls-115 {
        fill: url(#linear-gradient-90);
      }

      .cls-116 {
        fill: url(#linear-gradient-91);
      }

      .cls-117 {
        fill: url(#linear-gradient-92);
      }

      .cls-118 {
        fill: url(#linear-gradient-93);
      }

      .cls-119 {
        fill: url(#linear-gradient-94);
      }

      .cls-120 {
        fill: url(#linear-gradient-95);
      }

      .cls-121 {
        fill: url(#linear-gradient-96);
      }

      .cls-122 {
        fill: url(#linear-gradient-97);
      }

      .cls-123 {
        fill: url(#linear-gradient-98);
      }

      .cls-124 {
        fill: url(#linear-gradient-99);
      }

      .cls-125 {
        fill: url(#linear-gradient-100);
      }
    </style>
    <linearGradient id="linear-gradient" x1="520.63288" y1="385.55996" x2="941.91958" y2="385.55996" gradientUnits="userSpaceOnUse">
      <stop offset="0" stop-color="#e4edf2"/>
      <stop offset="1" stop-color="#c3d6e6"/>
    </linearGradient>
    <linearGradient id="linear-gradient-2" x1="99.36243" y1="711.89267" x2="941.91958" y2="711.89267" gradientUnits="userSpaceOnUse">
      <stop offset="0" stop-color="#dae9f2"/>
      <stop offset="0.99337" stop-color="#c4d5e6"/>
    </linearGradient>
    <linearGradient id="linear-gradient-3" x1="351.8835" y1="641.28394" x2="1042.33467" y2="796.26424" gradientUnits="userSpaceOnUse">
      <stop offset="0" stop-color="#96b1cc"/>
      <stop offset="1" stop-color="#748ea6"/>
    </linearGradient>
    <linearGradient id="linear-gradient-4" x1="133.62509" y1="376.08734" x2="488.4394" y2="376.08734" gradientUnits="userSpaceOnUse">
      <stop offset="0" stop-color="#3e4c59"/>
      <stop offset="1" stop-color="#293440"/>
    </linearGradient>
    <linearGradient id="linear-gradient-5" x1="141.25522" y1="377.16716" x2="484.59794" y2="377.16716" gradientUnits="userSpaceOnUse">
      <stop offset="0" stop-color="#5b6f82"/>
      <stop offset="1" stop-color="#849bb2"/>
    </linearGradient>
    <linearGradient id="linear-gradient-6" x1="502.97165" y1="274.14881" x2="129.07464" y2="476.82761" gradientUnits="userSpaceOnUse">
      <stop offset="0" stop-color="#62778c"/>
      <stop offset="1" stop-color="#435466"/>
    </linearGradient>
    <linearGradient id="linear-gradient-7" x1="435.93223" y1="306.40278" x2="297.45391" y2="381.46788" xlink:href="#linear-gradient-6"/>
    <linearGradient id="linear-gradient-8" x1="324.46342" y1="370.7552" x2="185.98511" y2="445.82031" xlink:href="#linear-gradient-6"/>
    <linearGradient id="linear-gradient-9" x1="170.30343" y1="471.66362" x2="195.35347" y2="471.66362" gradientUnits="userSpaceOnUse">
      <stop offset="0" stop-color="#e68e2b"/>
      <stop offset="0.99995" stop-color="#ffcb48"/>
    </linearGradient>
    <linearGradient id="linear-gradient-10" x1="154.41353" y1="480.57106" x2="179.46358" y2="480.57106" xlink:href="#linear-gradient-9"/>
    <linearGradient id="linear-gradient-11" x1="138.52364" y1="489.81673" x2="163.58346" y2="489.81673" xlink:href="#linear-gradient-9"/>
    <linearGradient id="linear-gradient-12" x1="479.29881" y1="292.89185" x2="504.34886" y2="292.89185" xlink:href="#linear-gradient-9"/>
    <linearGradient id="linear-gradient-13" x1="463.40892" y1="301.79929" x2="488.45897" y2="301.79929" xlink:href="#linear-gradient-9"/>
    <linearGradient id="linear-gradient-14" x1="447.51903" y1="311.04496" x2="472.57884" y2="311.04496" xlink:href="#linear-gradient-9"/>
    <linearGradient id="linear-gradient-15" x1="-67.79499" y1="221.06986" x2="496.02379" y2="221.06986" xlink:href="#linear-gradient-5"/>
    <linearGradient id="linear-gradient-16" x1="8921.68603" y1="518.37204" x2="8997.16883" y2="552.85854" gradientTransform="translate(-8377.35491)" xlink:href="#linear-gradient-4"/>
    <linearGradient id="linear-gradient-17" x1="8852.36688" y1="478.46052" x2="8927.84969" y2="512.94702" gradientTransform="translate(-8377.35491)" xlink:href="#linear-gradient-4"/>
    <linearGradient id="linear-gradient-18" x1="736.00411" y1="445.65253" x2="858.59646" y2="531.98517" gradientTransform="translate(-242.3977)" xlink:href="#linear-gradient-6"/>
    <linearGradient id="linear-gradient-19" x1="727.74955" y1="459.28202" x2="860.33874" y2="603.17388" gradientTransform="translate(-242.3977)" gradientUnits="userSpaceOnUse">
      <stop offset="0" stop-color="#62788c"/>
      <stop offset="1" stop-color="#526575"/>
    </linearGradient>
    <linearGradient id="linear-gradient-20" x1="712.61924" y1="443.09146" x2="792.77538" y2="568.13504" gradientTransform="translate(-242.3977)" xlink:href="#linear-gradient-3"/>
    <linearGradient id="linear-gradient-21" x1="729.50776" y1="481.4559" x2="829.10176" y2="566.82219" gradientTransform="translate(-242.3977)" xlink:href="#linear-gradient-4"/>
    <linearGradient id="linear-gradient-22" x1="719.29177" y1="484.16264" x2="861.71402" y2="484.16264" gradientTransform="translate(-242.3977)" gradientUnits="userSpaceOnUse">
      <stop offset="0" stop-color="#526575"/>
      <stop offset="1" stop-color="#62788c"/>
    </linearGradient>
    <linearGradient id="linear-gradient-23" x1="719.29171" y1="459.2821" x2="861.71398" y2="459.2821" gradientTransform="translate(-242.3977)" xlink:href="#linear-gradient-3"/>
    <linearGradient id="linear-gradient-24" x1="523.54115" y1="457.82931" x2="574.01816" y2="457.82931" xlink:href="#linear-gradient-6"/>
    <linearGradient id="linear-gradient-25" x1="523.54113" y1="453.98336" x2="574.01817" y2="453.98336" gradientUnits="userSpaceOnUse">
      <stop offset="0" stop-color="#849bb2"/>
      <stop offset="1" stop-color="#5b6f82"/>
    </linearGradient>
    <linearGradient id="linear-gradient-26" x1="548.43872" y1="413.37322" x2="549.11078" y2="450.56067" xlink:href="#linear-gradient-6"/>
    <linearGradient id="linear-gradient-27" x1="514.83669" y1="406.00393" x2="582.72266" y2="406.00393" xlink:href="#linear-gradient-6"/>
    <linearGradient id="linear-gradient-28" x1="514.38129" y1="401.02814" x2="583.17806" y2="401.02814" gradientUnits="userSpaceOnUse">
      <stop offset="0.00844" stop-color="#ffc63f"/>
      <stop offset="1" stop-color="#e68a23"/>
    </linearGradient>
    <linearGradient id="linear-gradient-29" x1="541.36193" y1="388.24846" x2="556.19728" y2="388.24846" xlink:href="#linear-gradient-4"/>
    <linearGradient id="linear-gradient-30" x1="541.36194" y1="382.52484" x2="556.19736" y2="382.52484" xlink:href="#linear-gradient-6"/>
    <linearGradient id="linear-gradient-31" x1="797.56371" y1="673.27359" x2="851.08082" y2="697.72443" xlink:href="#linear-gradient-4"/>
    <linearGradient id="linear-gradient-32" x1="570.62935" y1="544.97963" x2="624.14646" y2="569.43047" xlink:href="#linear-gradient-4"/>
    <linearGradient id="linear-gradient-33" x1="-1467.07327" y1="4079.32291" x2="-1176.67073" y2="4079.32291" gradientTransform="matrix(0.5, 0.86603, 0.86603, -0.5, -2144.63665, 3775.54296)" xlink:href="#linear-gradient-3"/>
    <linearGradient id="linear-gradient-34" x1="556.42177" y1="527.54516" x2="610.82708" y2="575.43592" gradientUnits="userSpaceOnUse">
      <stop offset="0" stop-color="#435466"/>
      <stop offset="1" stop-color="#62778c"/>
    </linearGradient>
    <linearGradient id="linear-gradient-35" x1="600.32884" y1="554.18789" x2="681.98995" y2="626.0708" xlink:href="#linear-gradient-6"/>
    <linearGradient id="linear-gradient-36" x1="636.87855" y1="603.85822" x2="839.43174" y2="692.70929" xlink:href="#linear-gradient-25"/>
    <linearGradient id="linear-gradient-37" x1="548.8728" y1="553.26746" x2="821.19222" y2="677.68445" gradientTransform="matrix(1, 0, 0, 1, 0, 0)" xlink:href="#linear-gradient-19"/>
    <linearGradient id="linear-gradient-38" x1="850.0218" y1="2630.8997" x2="1080.43117" y2="2814.09403" gradientTransform="translate(3425.95495 1142.89979) rotate(120)" xlink:href="#linear-gradient-4"/>
    <linearGradient id="linear-gradient-39" x1="678.59461" y1="533.00115" x2="741.86735" y2="597.314" gradientTransform="translate(9.40672)" xlink:href="#linear-gradient-4"/>
    <linearGradient id="linear-gradient-40" x1="683.37544" y1="524.34534" x2="729.31319" y2="585.19119" gradientTransform="translate(9.40672)" xlink:href="#linear-gradient-6"/>
    <linearGradient id="linear-gradient-41" x1="697.71977" y1="543.34481" x2="718.39415" y2="570.72862" gradientTransform="translate(9.40672)" xlink:href="#linear-gradient-3"/>
    <linearGradient id="linear-gradient-42" x1="569.73505" y1="331.11693" x2="744.99188" y2="570.85995" gradientTransform="translate(91.95989)" gradientUnits="userSpaceOnUse">
      <stop offset="0" stop-color="#596c80"/>
      <stop offset="0.99886" stop-color="#3a4959"/>
    </linearGradient>
    <linearGradient id="linear-gradient-43" x1="549.94396" y1="614.37265" x2="699.66545" y2="489.39851" gradientUnits="userSpaceOnUse">
      <stop offset="0.55211" stop-color="#fff" stop-opacity="0"/>
      <stop offset="0.98888" stop-color="#fff"/>
    </linearGradient>
    <linearGradient id="linear-gradient-44" x1="529.66197" y1="365.86131" x2="723.12055" y2="610.80483" gradientTransform="translate(91.95989)" gradientUnits="userSpaceOnUse">
      <stop offset="0" stop-color="#fff"/>
      <stop offset="0.98888" stop-color="#e6edf2"/>
    </linearGradient>
    <linearGradient id="linear-gradient-45" x1="605.46997" y1="484.84242" x2="814.79589" y2="484.84242" xlink:href="#linear-gradient"/>
    <linearGradient id="linear-gradient-46" x1="280.86571" y1="574.69282" x2="475.79251" y2="878.82231" xlink:href="#linear-gradient-25"/>
    <linearGradient id="linear-gradient-47" x1="300.34704" y1="695.15437" x2="436.16654" y2="695.15437" gradientTransform="matrix(1, 0, 0, 1, 0, 0)" xlink:href="#linear-gradient-19"/>
    <linearGradient id="linear-gradient-48" x1="275.6381" y1="601.52133" x2="390.97535" y2="810.01558" xlink:href="#linear-gradient-6"/>
    <linearGradient id="linear-gradient-49" x1="433.848" y1="659.0001" x2="403.79551" y2="743.69349" xlink:href="#linear-gradient-6"/>
    <linearGradient id="linear-gradient-50" x1="326.13086" y1="616.35023" x2="431.11161" y2="754.7577" xlink:href="#linear-gradient-25"/>
    <linearGradient id="linear-gradient-51" x1="300.97471" y1="624.5529" x2="409.96635" y2="821.57625" xlink:href="#linear-gradient-6"/>
    <linearGradient id="linear-gradient-52" x1="334.82771" y1="540.10676" x2="529.75451" y2="844.23625" xlink:href="#linear-gradient-25"/>
    <linearGradient id="linear-gradient-53" x1="421.13984" y1="764.83934" x2="556.95934" y2="764.83934" gradientTransform="matrix(1, 0, 0, 1, 0, 0)" xlink:href="#linear-gradient-19"/>
    <linearGradient id="linear-gradient-54" x1="243.18303" y1="592.39075" x2="441.82485" y2="902.3165" xlink:href="#linear-gradient-25"/>
    <linearGradient id="linear-gradient-55" x1="432.95871" y1="808.69678" x2="439.37437" y2="808.69678" xlink:href="#linear-gradient-4"/>
    <linearGradient id="linear-gradient-56" x1="265.9056" y1="736.44974" x2="545.39847" y2="736.44974" xlink:href="#linear-gradient-4"/>
    <linearGradient id="linear-gradient-57" x1="265.9056" y1="800.64038" x2="539.32944" y2="800.64038" xlink:href="#linear-gradient-4"/>
    <linearGradient id="linear-gradient-58" x1="606.26846" y1="554.67107" x2="551.88548" y2="683.86256" gradientUnits="userSpaceOnUse">
      <stop offset="0.00005" stop-color="#ffcb48"/>
      <stop offset="1" stop-color="#e68e2b"/>
    </linearGradient>
    <linearGradient id="linear-gradient-59" x1="596.38052" y1="550.50876" x2="541.99754" y2="679.70025" xlink:href="#linear-gradient-58"/>
    <linearGradient id="linear-gradient-60" x1="565.42895" y1="537.47974" x2="511.04597" y2="666.67123" xlink:href="#linear-gradient-58"/>
    <linearGradient id="linear-gradient-61" x1="620.79843" y1="564.6076" x2="656.55414" y2="564.6076" xlink:href="#linear-gradient-4"/>
    <linearGradient id="linear-gradient-62" x1="556.82873" y1="498.78862" x2="575.72234" y2="610.61841" gradientUnits="userSpaceOnUse">
      <stop offset="0" stop-color="#75413e"/>
      <stop offset="1" stop-color="#592f2f"/>
    </linearGradient>
    <linearGradient id="linear-gradient-63" x1="123.74985" y1="104.62211" x2="340.90788" y2="433.14323" gradientUnits="userSpaceOnUse">
      <stop offset="0" stop-color="#b8cfe6"/>
      <stop offset="1" stop-color="#8fa8bf"/>
    </linearGradient>
    <linearGradient id="linear-gradient-64" x1="357.37164" y1="246.68302" x2="357.37164" y2="413.54851" gradientUnits="userSpaceOnUse">
      <stop offset="0" stop-color="#9ff8ff"/>
      <stop offset="1" stop-color="#9ff8ff" stop-opacity="0"/>
    </linearGradient>
    <linearGradient id="linear-gradient-65" x1="370.27036" y1="108.86819" x2="370.27036" y2="157.43586" gradientUnits="userSpaceOnUse">
      <stop offset="0" stop-color="#9ff8ff" stop-opacity="0"/>
      <stop offset="1" stop-color="#9ff8ff"/>
    </linearGradient>
    <linearGradient id="linear-gradient-66" x1="243.0437" y1="415.11969" x2="243.0437" y2="504.83098" gradientTransform="matrix(1, 0, 0, 1, 0, 0)" xlink:href="#linear-gradient-22"/>
    <linearGradient id="linear-gradient-67" x1="144.32464" y1="410.34034" x2="281.0917" y2="410.34034" xlink:href="#linear-gradient-4"/>
    <linearGradient id="linear-gradient-68" x1="190.90953" y1="393.96058" x2="234.50681" y2="393.96058" xlink:href="#linear-gradient-4"/>
    <linearGradient id="linear-gradient-69" x1="395.21172" y1="322.1809" x2="402.02042" y2="322.1809" xlink:href="#linear-gradient-4"/>
    <linearGradient id="linear-gradient-70" x1="366.30842" y1="408.84815" x2="430.92383" y2="408.84815" xlink:href="#linear-gradient-4"/>
    <linearGradient id="linear-gradient-71" x1="379.74621" y1="161.28165" x2="417.48593" y2="161.28165" xlink:href="#linear-gradient-4"/>
    <linearGradient id="linear-gradient-72" x1="379.74621" y1="246.18637" x2="417.48593" y2="246.18637" xlink:href="#linear-gradient-4"/>
    <linearGradient id="linear-gradient-73" x1="219.16898" y1="429.03999" x2="219.16898" y2="486.27627" gradientUnits="userSpaceOnUse">
      <stop offset="0" stop-color="#64b2ff" stop-opacity="0"/>
      <stop offset="1" stop-color="#9ed1ff"/>
    </linearGradient>
    <linearGradient id="linear-gradient-74" x1="846.24265" y1="711.09398" x2="905.52461" y2="711.09398" xlink:href="#linear-gradient-4"/>
    <linearGradient id="linear-gradient-75" x1="850.43682" y1="654.98564" x2="909.84108" y2="712.17713" xlink:href="#linear-gradient-58"/>
    <linearGradient id="linear-gradient-76" x1="-11284.87428" y1="2663.47717" x2="-11252.17848" y2="2677.06309" gradientTransform="matrix(-0.94085, 0.33882, 0.33882, 0.94085, -10611.40729, 1834.39258)" gradientUnits="userSpaceOnUse">
      <stop offset="0" stop-color="#f2883c"/>
      <stop offset="0.16716" stop-color="#e97d35"/>
      <stop offset="0.67368" stop-color="#d26124"/>
      <stop offset="0.96784" stop-color="#c9571e"/>
    </linearGradient>
    <linearGradient id="linear-gradient-77" x1="623.95799" y1="-1776.10681" x2="599.32417" y2="-1760.43074" gradientTransform="translate(-318.48941 1991.53882) rotate(21.53204)" xlink:href="#linear-gradient-76"/>
    <linearGradient id="linear-gradient-78" x1="928.75029" y1="531.67929" x2="887.39533" y2="568.85396" gradientTransform="matrix(1, 0, 0, 1, 0, 0)" xlink:href="#linear-gradient-76"/>
    <linearGradient id="linear-gradient-79" x1="439.53952" y1="2246.21814" x2="405.87672" y2="2267.63992" gradientTransform="translate(-145.3076 -1485.35983) rotate(-16.16083)" xlink:href="#linear-gradient-76"/>
    <linearGradient id="linear-gradient-80" x1="853.00943" y1="504.25507" x2="873.31367" y2="543.22129" gradientTransform="matrix(1, 0, 0, 1, 0, 0)" xlink:href="#linear-gradient-76"/>
    <linearGradient id="linear-gradient-81" x1="253.62031" y1="2782.65938" x2="277.13246" y2="2827.78198" gradientTransform="translate(-417.33572 -1961.89452) rotate(-21.26361)" xlink:href="#linear-gradient-76"/>
    <linearGradient id="linear-gradient-82" x1="232.99498" y1="-2610.32187" x2="265.69078" y2="-2596.73594" gradientTransform="matrix(0.87147, 0.49044, -0.49044, 0.87147, -642.43448, 2685.22857)" xlink:href="#linear-gradient-76"/>
    <linearGradient id="linear-gradient-83" x1="610.98552" y1="1048.40096" x2="589.6173" y2="1085.75456" gradientTransform="matrix(1.03159, -0.09458, 0.10022, 1.01436, 161.77396, -512.08356)" xlink:href="#linear-gradient-76"/>
    <linearGradient id="linear-gradient-84" x1="-547.92324" y1="4125.41127" x2="-578.23447" y2="4144.70024" gradientTransform="translate(-1088.95278 -3137.484) rotate(-35.91139)" xlink:href="#linear-gradient-76"/>
    <linearGradient id="linear-gradient-85" x1="-11316.07116" y1="-1515.09699" x2="-11343.983" y2="-1497.33492" gradientTransform="matrix(-0.94244, -0.33439, -0.33439, 0.94244, -10313.85379, -1811.47417)" xlink:href="#linear-gradient-76"/>
    <linearGradient id="linear-gradient-86" x1="-1673.86379" y1="692.3744" x2="-1670.18215" y2="692.3744" gradientTransform="matrix(-0.04492, -0.99899, -0.99899, 0.04492, 1521.23757, -1009.0625)" xlink:href="#linear-gradient-4"/>
    <linearGradient id="linear-gradient-87" x1="845.17685" y1="692.3744" x2="848.85849" y2="692.3744" gradientTransform="translate(31.87093 -37.25361) rotate(2.56788)" xlink:href="#linear-gradient-4"/>
    <linearGradient id="linear-gradient-88" x1="874.88778" y1="708.46913" x2="876.88778" y2="708.46913" xlink:href="#linear-gradient-4"/>
    <linearGradient id="linear-gradient-89" x1="844.55795" y1="677.64528" x2="907.21798" y2="677.64528" xlink:href="#linear-gradient-4"/>
    <linearGradient id="linear-gradient-90" x1="693.47349" y1="348.47808" x2="770.79256" y2="348.47808" gradientTransform="translate(-18.64021 -32.28579)" xlink:href="#linear-gradient-34"/>
    <linearGradient id="linear-gradient-91" x1="703.89368" y1="344.49483" x2="767.47765" y2="344.49483" gradientTransform="translate(-18.64021 -32.28579)" xlink:href="#linear-gradient-44"/>
    <linearGradient id="linear-gradient-92" x1="713.00598" y1="346.42026" x2="756.11144" y2="346.42026" gradientTransform="translate(-18.64021 -32.28579)" xlink:href="#linear-gradient-6"/>
    <linearGradient id="linear-gradient-93" x1="693.47348" y1="348.47808" x2="770.79257" y2="348.47808" gradientTransform="translate(-18.64021 -32.28579)" xlink:href="#linear-gradient-25"/>
    <linearGradient id="linear-gradient-94" x1="710.43891" y1="269.83149" x2="789.93878" y2="374.90958" gradientTransform="translate(-18.64021 -32.28579)" xlink:href="#linear-gradient-6"/>
    <linearGradient id="linear-gradient-95" x1="678.97644" y1="244.87629" x2="796.8606" y2="400.68839" gradientTransform="translate(-18.64021 -32.28579)" xlink:href="#linear-gradient-6"/>
    <linearGradient id="linear-gradient-96" x1="793.51703" y1="337.69372" x2="767.83686" y2="277.47296" gradientTransform="translate(3.46411 6.00002)" xlink:href="#linear-gradient-34"/>
    <linearGradient id="linear-gradient-97" x1="726.98357" y1="242.63457" x2="766.31883" y2="242.63457" gradientTransform="translate(47.76727 82.73534)" xlink:href="#linear-gradient-44"/>
    <linearGradient id="linear-gradient-98" x1="716.56337" y1="246.61782" x2="769.63375" y2="246.61782" gradientTransform="translate(47.76727 82.73534)" xlink:href="#linear-gradient-25"/>
    <linearGradient id="linear-gradient-99" x1="728.89963" y1="193.8779" x2="783.69507" y2="266.30318" gradientTransform="translate(47.76727 82.73534)" xlink:href="#linear-gradient-6"/>
    <linearGradient id="linear-gradient-100" x1="710.74116" y1="179.53235" x2="787.44197" y2="280.91081" gradientTransform="translate(47.76727 82.73534)" xlink:href="#linear-gradient-6"/>
  </defs>
  <g>
    <polygon class="cls-1" points="520.633 59.227 941.92 302.448 941.92 711.893 520.633 468.649 520.633 59.227"/>
    <polygon class="cls-2" points="520.649 59.227 99.362 302.448 99.362 711.893 520.649 468.649 520.649 59.227"/>
  </g>
  <path class="cls-3" d="M106.6322,724.49667l392.2106,226.4329a43.61718,43.61718,0,0,0,43.61686-.00063l392.19051-226.4365a14.53907,14.53907,0,0,0,.00017-25.18216L542.44268,472.8567a43.61721,43.61721,0,0,0-43.61994.00054L106.63135,699.31448A14.53907,14.53907,0,0,0,106.6322,724.49667Z"/>
  <g class="cls-4">
    <ellipse class="cls-5" cx="875.88797" cy="713.24194" rx="36.30951" ry="20.86753"/>
  </g>
  <path class="cls-5" d="M528.13951,576.24823,792.61576,729.14447a15.367,15.367,0,0,0,15.37052.00144l65.332-37.723a5.12232,5.12232,0,0,0,.00011-8.87184L608.80511,529.683a15.36694,15.36694,0,0,0-15.36707-.00093l-65.29727,37.69451A5.12232,5.12232,0,0,0,528.13951,576.24823Z"/>
  <g class="cls-6">
    <ellipse class="cls-7" cx="565.43291" cy="855.30557" rx="51.45519" ry="29.57195"/>
  </g>
  <path class="cls-8" d="M614.999,549.76166,549.04713,511.634a7.01,7.01,0,0,0-7.017,0l-65.95189,38.12771a3.505,3.505,0,0,0,0,6.06884l65.95189,38.12771a7.01,7.01,0,0,0,7.017,0L614.999,555.8305A3.505,3.505,0,0,0,614.999,549.76166Z"/>
  <path class="cls-8" d="M562.0846,774.971,412.05968,688.30421a13.53308,13.53308,0,0,0-13.5465,0L263.42879,766.35335a6.76654,6.76654,0,0,0,0,11.71612l150.02492,86.66676a13.5331,13.5331,0,0,0,13.54651,0L562.0846,786.68709A6.76654,6.76654,0,0,0,562.0846,774.971Z"/>
  <path class="cls-9" d="M772.222,728.70813,488.94707,565.13481a28.96084,28.96084,0,0,0-28.96107-.00175l-112.97043,65.215a9.65362,9.65362,0,0,0-.00238,16.71973l283.23457,163.6117a28.96088,28.96088,0,0,0,28.96821.00237l113.006-65.25383A9.65362,9.65362,0,0,0,772.222,728.70813Z"/>
  <g>
    <g>
      <path class="cls-10" d="M488.4394,442.77833,145.09033,641.00793l-11.46524-6.61724V311.56658l343.34907-198.2411,11.46524-2.15873Z"/>
      <polygon class="cls-11" points="484.598 116.637 480.657 118.912 480.662 437.348 141.255 633.292 141.255 637.697 484.598 439.478 484.598 116.637"/>
      <path class="cls-12" d="M129.76722,308.24313v349.352l366.319-211.48426V96.73832Zm11.48824,6.63259L484.59794,116.637l0,322.84092L141.25546,637.69731Z"/>
    </g>
    <polygon class="cls-13" points="369.193 501.7 364.193 504.587 364.193 186.171 369.193 183.284 369.193 501.7"/>
    <polygon class="cls-14" points="257.724 566.052 252.724 568.939 252.724 250.523 257.724 247.636 257.724 566.052"/>
    <g>
      <g>
        <path class="cls-15" d="M195.35347,310.26441V634.67912a2.17526,2.17526,0,0,1-2.68994,2.1l-13.19995-3.28-7.76-1.93006a.33506.33506,0,0,0-.32007.06l-1.08007-.31995V306.47952l23.31005,5.9249Z"/>
        <path class="cls-16" d="M179.46358,319.3844V644.00908a2.00489,2.00489,0,0,1-.36011,1.04,2.13013,2.13013,0,0,1-2.32006.9l-20.97-5.21a.35592.35592,0,0,0-.40992.16.36822.36822,0,0,0-.02.4l-.97-.26V315.12439l23.31006,5.5Z"/>
        <polygon class="cls-17" points="153.555 316.692 153.555 327.974 161.59 329.634 162.441 328.357 153.555 316.692"/>
        <path class="cls-18" d="M163.58346,328.70441V653.17912a2.23854,2.23854,0,0,1-.35987,1.04,2.13719,2.13719,0,0,1-1.79.97,2.003,2.003,0,0,1-.54-.07l-21.68994-5.4a.88433.88433,0,0,1-.67993-.86V324.4444l23.30982,5.5Z"/>
        <polygon class="cls-17" points="169.438 307.521 169.438 318.803 177.473 320.463 178.324 319.186 169.438 307.521"/>
        <polygon class="cls-17" points="184.622 297.832 184.622 309.115 193.507 311.41 194.473 310.214 184.622 297.832"/>
        <path class="cls-19" d="M161.43228,330.78823a2.23457,2.23457,0,0,1-.53634-.06611l-21.69444-5.404a.88879.88879,0,0,1,.42907-1.725l21.69444,5.404a.38828.38828,0,0,0,.40537-.60931L153.989,318.01149a2.16559,2.16559,0,0,1,2.25824-3.397l20.96093,5.21279a.38817.38817,0,0,0,.40475-.60931l-7.74139-10.37631a2.16579,2.16579,0,0,1,2.25887-3.397l20.9603,5.21279a.38823.38823,0,0,0,.40537-.609l-8.6979-11.649a.88858.88858,0,1,1,1.42442-1.0627l8.6979,11.64868a2.16588,2.16588,0,0,1-2.25887,3.397l-20.9603-5.21279a.38836.38836,0,0,0-.40537.6093l7.74138,10.37632a2.16568,2.16568,0,0,1-2.25824,3.397l-20.96092-5.21279a.364.364,0,0,0-.41722.16152.36861.36861,0,0,0,.01247.44778l7.74138,10.37632a2.1676,2.1676,0,0,1-1.72252,3.46313Z"/>
      </g>
      <g>
        <path class="cls-20" d="M504.34886,131.49264V455.90735a2.17526,2.17526,0,0,1-2.68994,2.1l-13.19995-3.28-7.76-1.93006a.33505.33505,0,0,0-.32007.06l-1.08008-.32V127.70775l23.31006,5.9249Z"/>
        <path class="cls-21" d="M488.459,140.61263V465.23731a2.005,2.005,0,0,1-.36011,1.04,2.13014,2.13014,0,0,1-2.32007.9l-20.97-5.21a.35591.35591,0,0,0-.40991.16.3682.3682,0,0,0-.02.4l-.97-.26V136.35262l23.31006,5.5Z"/>
        <polygon class="cls-17" points="462.55 137.92 462.55 149.202 470.585 150.862 471.436 149.585 462.55 137.92"/>
        <path class="cls-22" d="M472.57884,149.93264V474.40735a2.23848,2.23848,0,0,1-.35986,1.04,2.13721,2.13721,0,0,1-1.79.97,2.003,2.003,0,0,1-.54-.07l-21.68994-5.4a.88433.88433,0,0,1-.67993-.86V145.67263l23.30981,5.5Z"/>
        <polygon class="cls-17" points="478.434 128.749 478.434 140.031 486.468 141.691 487.319 140.414 478.434 128.749"/>
        <polygon class="cls-17" points="493.617 119.061 493.617 130.343 502.503 132.639 503.468 131.442 493.617 119.061"/>
        <path class="cls-19" d="M470.42767,152.01646a2.23451,2.23451,0,0,1-.53634-.06611l-21.69444-5.404a.88879.88879,0,0,1,.42907-1.725l21.69444,5.404a.38828.38828,0,0,0,.40537-.60931l-7.74138-10.37631a2.16559,2.16559,0,0,1,2.25824-3.397l20.96092,5.21279a.38816.38816,0,0,0,.40475-.60931l-7.74138-10.37631a2.16579,2.16579,0,0,1,2.25886-3.397l20.9603,5.21279a.38823.38823,0,0,0,.40538-.609l-8.6979-11.649a.88858.88858,0,0,1,1.42442-1.0627l8.6979,11.64868a2.16588,2.16588,0,0,1-2.25887,3.397l-20.9603-5.21279a.38836.38836,0,0,0-.40537.60931l7.74138,10.37631a2.16568,2.16568,0,0,1-2.25824,3.397l-20.96092-5.21279a.36406.36406,0,0,0-.41723.16152.36863.36863,0,0,0,.01248.44778l7.74138,10.37632a2.1676,2.1676,0,0,1-1.72252,3.46313Z"/>
      </g>
    </g>
    <g>
      <path class="cls-23" d="M492.10123,113.31153V119.346l-14.83479,8.56338v-6.91923a3.36189,3.36189,0,0,1,1.68117-2.91161l10.70616-6.18013A1.63171,1.63171,0,0,1,492.10123,113.31153Z"/>
      <path class="cls-24" d="M149.697,311.26326v6.03443l-14.83479,8.56338v-6.91923a3.36189,3.36189,0,0,1,1.68117-2.91161l10.70616-6.18013A1.63171,1.63171,0,0,1,149.697,311.26326Z"/>
      <path class="cls-25" d="M499.83676,119.85589,137.21053,329.261l-3.92586-6.7998,362.63941-209.4127.00179.00311a1.97734,1.97734,0,0,1,1.95074.20782,6.13758,6.13758,0,0,1,2.78517,4.80411A1.92625,1.92625,0,0,1,499.83676,119.85589Z"/>
      <ellipse class="cls-24" cx="135.2476" cy="325.86107" rx="2.26305" ry="3.92587" transform="translate(-144.81079 111.2809) rotate(-30)"/>
    </g>
  </g>
  <g>
    <path class="cls-26" d="M548.77966,514.10714v76.9897a1.74094,1.74094,0,0,0,2.611,1.50791l63.08067-36.39966a5.22286,5.22286,0,0,0,2.61249-4.52373V478.1937"/>
    <path class="cls-27" d="M479.46051,474.19562v76.9897a1.74093,1.74093,0,0,0,2.611,1.5079l63.08067-36.39966a5.22283,5.22283,0,0,0,2.61249-4.52372V438.28218"/>
    <g>
      <path class="cls-28" d="M619.31628,467.07545v41.964a3.498,3.498,0,0,1-1.74673,3.04229l-65.95618,38.12382a6.99685,6.99685,0,0,1-3.508.93164V467.07545Z"/>
      <path class="cls-29" d="M548.10535,467.07545v84.06177a6.99719,6.99719,0,0,1-3.50838-.93164l-65.94144-38.12382a3.4824,3.4824,0,0,1-1.76147-3.04229v-41.964Z"/>
      <polygon class="cls-30" points="542.721 539.885 482.278 504.955 482.299 478.194 542.721 513.135 542.721 539.885"/>
      <polygon class="cls-31" points="520.885 505.268 504.114 495.577 504.12 501.173 520.885 510.868 520.885 505.268"/>
      <path class="cls-32" d="M476.89406,459.2821v7.65773a3.47235,3.47235,0,0,0,1.75076,3.03443L544.5966,508.102a7.01028,7.01028,0,0,0,7.017,0l65.95192-38.12776a3.47237,3.47237,0,0,0,1.75076-3.03443V459.2821Z"/>
      <path class="cls-33" d="M617.56551,456.24768,551.61363,418.12a7.01,7.01,0,0,0-7.017,0l-65.95188,38.12771a3.505,3.505,0,0,0,0,6.06884l65.95188,38.12771a7.01005,7.01005,0,0,0,7.017,0l65.95188-38.12771A3.505,3.505,0,0,0,617.56551,456.24768Z"/>
    </g>
    <g>
      <g>
        <path class="cls-34" d="M573.318,454.47712c-2.62967-6.41617-12.6044-11.19641-24.53837-11.19641s-21.9087,4.78024-24.53826,11.19641h-.70019v3.35219c0,8.035,11.2996,14.5486,25.23845,14.5486s25.23856-6.51362,25.23856-14.5486v-3.35219Z"/>
        <ellipse class="cls-35" cx="548.77965" cy="453.98336" rx="25.23852" ry="14.54865"/>
      </g>
      <path class="cls-36" d="M545.47264,413.5009v37.46433c0,1.05283,1.48059,1.90631,3.307,1.90631s3.307-.85348,3.307-1.90631V413.5009Z"/>
      <path class="cls-37" d="M514.83669,380.69263v31.11514c0,10.77368,15.19673,19.50745,33.943,19.50745s33.943-8.73377,33.943-19.50745V380.69263Z"/>
      <path class="cls-38" d="M514.38129,375.37725v31.5326c0,10.91823,15.40062,19.76917,34.39838,19.76917s34.39839-8.85094,34.39839-19.76917v-31.5326Z"/>
      <g>
        <ellipse class="cls-17" cx="548.77965" cy="375.37735" rx="34.3984" ry="19.76919"/>
        <path class="cls-39" d="M541.36193,393.14264a33.58124,33.58124,0,0,0,14.83535,0V382.52479H541.36193Z"/>
        <ellipse class="cls-40" cx="548.77965" cy="382.52484" rx="7.41771" ry="4.27591"/>
        <path class="cls-19" d="M548.77964,357.30359c18.03246,0,32.70278,8.10782,32.70278,18.07371s-14.67032,18.07384-32.70278,18.07384-32.70278-8.108-32.70278-18.07384,14.67031-18.07371,32.70278-18.07371m0-1.69546c-18.99763,0-34.39839,8.851-34.39839,19.76917,0,10.91832,15.40076,19.76931,34.39839,19.76931s34.39838-8.851,34.39838-19.76931c0-10.91818-15.40076-19.76917-34.39838-19.76917Z"/>
      </g>
    </g>
  </g>
  <g>
    <g>
      <path class="cls-41" d="M797.68764,677.37987v42.37881a3,3,0,0,0,4.49938,2.59843L847.82408,696.023a9,9,0,0,0,4.50186-7.7953V648.65178"/>
      <path class="cls-42" d="M570.75328,549.08591v42.37881a3,3,0,0,0,4.49938,2.59843L620.88972,567.729a9,9,0,0,0,4.50186-7.7953V520.35783"/>
      <g>
        <path class="cls-43" d="M803.08356,714.97358,788.778,701.47011,566.89529,516.0288l56.61115-32.70429.01259.01187a5.03667,5.03667,0,0,1,5.30926-.14888L854.83293,613.60257a15.25957,15.25957,0,0,1,7.63282,13.21758l-.00306,50.91376a5.03884,5.03884,0,0,1-2.54332,4.40489l.0005.0005Z"/>
        <path class="cls-44" d="M632.4524,550.86892l-59.34,34.24-1.08-.62a15.24935,15.24935,0,0,1-7.63013-13.21v-50.87a5.087,5.087,0,0,1,7.63013-4.41Z"/>
        <polygon class="cls-45" points="709.204 595.154 649.874 629.414 573.114 585.104 632.454 550.864 709.204 595.154"/>
        <path class="cls-46" d="M805.6644,659.62437v50.92a5.0859,5.0859,0,0,1-7.63013,4.4l-106.17993-61.29-25.56006-14.76-16.41992-9.48,59.33008-34.26,5.57983,3.22,36.42017,21.01,46.82983,27.03A15.22839,15.22839,0,0,1,805.6644,659.62437Z"/>
      </g>
      <path class="cls-47" d="M798.03427,646.41508,572.02964,516a5.07609,5.07609,0,0,0-7.62867,4.40588l.00415,50.86982a15.25978,15.25978,0,0,0,7.63062,13.2149L798.03452,714.95146a5.07628,5.07628,0,0,0,7.62964-4.405l.00293-50.91376A15.25913,15.25913,0,0,0,798.03427,646.41508Zm1.62989,62.54913L655.92588,625.9893V571.33921l139.10961,80.27271a9.28424,9.28424,0,0,1,4.6316,8.02038Z"/>
      <polygon class="cls-48" points="646.31 605.321 646.311 578.052 650.31 580.361 650.309 607.628 646.31 605.321"/>
    </g>
    <g>
      <g>
        <path class="cls-49" d="M768.44933,568.76592,667.22637,550.815l.00234,5.62371a4.06849,4.06849,0,0,0,2.05238,3.54048L726.473,593.00063a12.32889,12.32889,0,0,0,12.3291.00017l29.64715-17.1168A4.10963,4.10963,0,0,0,768.44933,568.76592Z"/>
        <path class="cls-50" d="M726.473,587.52117l-57.19191-33.02145a4.10961,4.10961,0,0,1,.00008-7.118l29.64717-17.1168a12.32885,12.32885,0,0,1,12.32909.00013l57.19191,33.02146a4.10961,4.10961,0,0,1-.00008,7.118l-29.64717,17.1168A12.32885,12.32885,0,0,1,726.473,587.52117Z"/>
        <path class="cls-51" d="M722.28914,571.77723l-25.73935-14.86138a1.84954,1.84954,0,0,1,0-3.20348l13.34278-7.70346a5.54863,5.54863,0,0,1,5.54873.00006l25.73936,14.86139a1.84955,1.84955,0,0,1,0,3.20348l-13.34278,7.70345A5.54861,5.54861,0,0,1,722.28914,571.77723Z"/>
      </g>
      <g>
        <path class="cls-52" d="M820.513,459.38522,622.54427,345.0938a5.97444,5.97444,0,0,0-6.01975-.00608l-.00055-.00069-8.14116,4.70393L818.50462,614.667l9.57288-5.53035-1.41458.8082a5.96544,5.96544,0,0,0,2.89887-5.14638V475.05769A18.097,18.097,0,0,0,820.513,459.38522Z"/>
        <polygon class="cls-53" points="611.468 355.903 463.409 346.439 463.409 572.116 777.894 764.266 814.796 608.936 611.468 355.903"/>
        <path class="cls-54" d="M614.51862,500.36731,812.48733,614.65876a6.03226,6.03226,0,0,0,9.04828-5.22416V479.6939a18.09679,18.09679,0,0,0-9.04875-15.67249L614.51816,349.73a6.03226,6.03226,0,0,0-9.04828,5.22417V484.69482A18.0968,18.0968,0,0,0,614.51862,500.36731Z"/>
        <path class="cls-55" d="M724.06957,484.82779c-16.34047-1.74269-31.25236,1.35073-43.36229-8.62555s-13.08626-32.62988-22.22637-47.05579-46.90944-33.40907-46.90944-33.40907l-6.10172,35.54369v6.5898a18.09756,18.09756,0,0,0,9.04876,15.67271l98.98423,90.25674c1.7657,1.0194,102.70943,44.20927,104.352,43.50955V530.3012A257.63453,257.63453,0,0,0,791.443,509.78575C775.64869,499.01621,740.41,486.57047,724.06957,484.82779Z"/>
        <path class="cls-56" d="M724.06957,531.65159c-14.02041-6.65066-39.54089-22.582-49.904-30.16076s-6.15791-12.99221-15.6847-25.52058-46.90944-33.40907-46.90944-33.40907l-6.10172,35.5437v6.58979a18.09757,18.09757,0,0,0,9.04876,15.67272l197.96882,114.2913a5.958,5.958,0,0,0,5.3674.33077V577.125A301.572,301.572,0,0,0,791.443,556.60956C778.25905,547.73756,738.09,538.30225,724.06957,531.65159Z"/>
        <path class="cls-57" d="M611.58136,355.09055,809.43158,469.31321a12.02015,12.02015,0,0,1,5.99341,10.38086l-.00086,129.60449L617.57391,495.07541a12.01937,12.01937,0,0,1-5.9934-10.38037l.00085-129.60449m-.07007-6.17773a6.03989,6.03989,0,0,0-6.04138,6.0415V484.695a18.09712,18.09712,0,0,0,9.04871,15.67237l197.96875,114.2915a6.01958,6.01958,0,0,0,9.04821-5.22412V479.69407a18.09733,18.09733,0,0,0-9.0487-15.67286L614.51813,349.7302a5.98433,5.98433,0,0,0-3.00684-.81738Z"/>
        <path class="cls-58" d="M813.34056,615.06178l1.45533-6.12612L617.574,495.07541a12.0198,12.0198,0,0,1-5.99346-10.38052l.00088-129.60462.29.16727-.193-.24-6.17449-.39444c-.006.11247-.03394.2163-.03394.331V484.69489a18.097,18.097,0,0,0,9.04876,15.6725l197.9686,114.2913a6.17635,6.17635,0,0,0,.8448.40043Z"/>
      </g>
    </g>
  </g>
  <g>
    <g>
      <path class="cls-59" d="M434.43123,611.82747,310.49137,683.12681a20.28426,20.28426,0,0,0-10.14742,17.5575v77.78985a15.15035,15.15035,0,0,1-7.48493-1.96743c-.01071-.0107-.02128-.0107-.032-.02141l-17.06574-9.7625-.55605-.31006a9.33279,9.33279,0,0,1-4.68343-8.09443v-74.689a20.24863,20.24863,0,0,1,10.13672-17.5575l120.02-69.04788a12.1547,12.1547,0,0,1,12.24582.072l9.45611,5.58919,7.378,4.3626a.01048.01048,0,0,1,.0107.0107A12.94076,12.94076,0,0,1,434.43123,611.82747Z"/>
      <path class="cls-60" d="M300.347,700.6879v77.78985a15.00489,15.00489,0,0,0,7.41008-1.95679l14.11446-8.11584,106.5106-61.28022a15.5646,15.5646,0,0,0,7.78436-13.47286V618.34292a13.14533,13.14533,0,0,0-1.73222-6.51192L310.49446,683.13033A20.28431,20.28431,0,0,0,300.347,700.6879Z"/>
    </g>
    <g>
      <polygon class="cls-61" points="430.658 836.266 315.239 769.775 309.754 708.675 425.173 775.167 430.658 836.266"/>
      <path class="cls-62" d="M524.7681,707.12284,419.45953,646.456a20.26624,20.26624,0,0,0-20.22378-.00526l-81.453,46.86759a16.1514,16.1514,0,0,0-8.02908,15.357v0l115.419,66.49132-.7983-10.26977Z"/>
    </g>
    <g>
      <path class="cls-63" d="M421.84113,676.70134a55.29814,55.29814,0,0,0-25.41676-32.3821L337.56831,610.239a9.37076,9.37076,0,0,0-10.98341,1.06921l-.004-.02293-30.37209,27.03118,22.48034,12.47784,34.6765,73.31945L427.807,802.24482,452.38546,781.317Z"/>
      <path class="cls-64" d="M421.93836,808.41367l-99.01968-57.20331L293.2195,648.20953a9.51427,9.51427,0,0,1,13.90181-10.87391l58.85616,34.08023A55.29858,55.29858,0,0,1,391.39406,703.798Z"/>
    </g>
    <g>
      <path class="cls-65" d="M555.224,681.51244,431.28417,752.81177a20.28428,20.28428,0,0,0-10.14742,17.5575v77.78986a15.15042,15.15042,0,0,1-7.48494-1.96744c-.0107-.0107-.02127-.0107-.032-.0214l-17.06574-9.7625-.55605-.31007a9.33276,9.33276,0,0,1-4.68343-8.09443v-74.689a20.24864,20.24864,0,0,1,10.13671-17.5575l120.02-69.04787a12.1547,12.1547,0,0,1,12.24582.072l9.45611,5.58919,7.378,4.3626a.01048.01048,0,0,1,.01071.0107A12.94076,12.94076,0,0,1,555.224,681.51244Z"/>
      <path class="cls-66" d="M421.13984,770.37286v77.78986a15.00482,15.00482,0,0,0,7.41008-1.9568l14.11446-8.11583L549.175,776.80986a15.56459,15.56459,0,0,0,7.78436-13.47285V688.02788a13.14539,13.14539,0,0,0-1.73222-6.51192L431.28726,752.8153A20.28428,20.28428,0,0,0,421.13984,770.37286Z"/>
    </g>
    <polygon class="cls-67" points="301.792 677.939 404.336 737.187 407.246 764.839 398.851 837.722 292.827 776.485 294.226 686.94 301.792 677.939"/>
    <path class="cls-68" d="M432.95871,771.65559v72.23326c0,1.02124,1.43632,1.84911,3.20783,1.84911s3.20783-.82787,3.20783-1.84911V771.65559Z"/>
    <path class="cls-69" d="M541.31909,711.3689a7.98926,7.98926,0,0,0-8.03039.02532l-103.14757,59.561a17.81315,17.81315,0,0,1-17.76211,0L271.14945,689.39907l-.62771-.36241v-4.54508l-1.744,1.0051a5.73657,5.73657,0,0,0-.00428,9.938v0L409.1712,776.51043a24.24154,24.24154,0,0,0,24.17775,0l103.14758-59.561a1.65769,1.65769,0,0,1,2.48627,1.4358v68.17355c0,1.02124,1.43632,1.84911,3.20783,1.84911s3.20783-.82787,3.20783-1.84911V724.17992l0-5.48166A8.38334,8.38334,0,0,0,541.31909,711.3689Z"/>
    <path class="cls-70" d="M539.19955,776.50578l-7.346,4.24185L430.14113,839.4799a17.81317,17.81317,0,0,1-17.76211,0L271.14945,757.92376l-.62771-.36241v-4.54508l-1.744,1.00509a5.73658,5.73658,0,0,0-.00428,9.938h0L409.1712,845.03512a24.24156,24.24156,0,0,0,24.17775,0l101.384-58.54263,4.59649-2.65418"/>
  </g>
  <g>
    <g>
      <g>
        <path class="cls-71" d="M629.32919,576.67613l-9.00631,7.68945c-2.769-6.084-8.4724-18.14217-14.42553-27.19149L588.91863,545.9826l6.04255,33.2766s14.17459,26.31224,22.62362,26.31224c8.59575,0,18.30562-22.277,18.30562-22.277Z"/>
        <path class="cls-72" d="M618.45054,577.9826c-2.769-6.084-7.08582-13.47837-13-22.55319-6.47872-9.94107-20.39207-10.35648-20.39207-10.35648l8.31561,36.16895,7.37433,10.74072C607.90364,600.388,622.908,587.56771,618.45054,577.9826Z"/>
        <path class="cls-73" d="M580.68479,849.98083v12.96766c0,3.27581-7.0791,5.47157-10.84629,3.14478a26.60057,26.60057,0,0,0-7.03086-6.63148c-5.85406-3.72937-13.51576-5.63257-16.72168-10.54648-6.11954-9.37976,3.91989-12.77714,7.627-11.80851s16.98393,8.00691,16.98393,8.00691Z"/>
        <path class="cls-74" d="M580.21671,845.00211v12.96766c0,3.27581-7.07911,5.47157-10.84629,3.14478a66.45849,66.45849,0,0,0-7.2171-5.24179c-5.85407-3.72937-12.5323-4.2563-15.46163-9.57447-5.45343-9.90063,5.21407-12.85106,10.50565-10.96863,3.61,1.2842,13.03147,4.80532,13.03147,4.80532Z"/>
        <path class="cls-73" d="M547.62775,848.43817c2.78906,3.47046,9.15018,6.5363,13.95756,7.5197.41675-8.61914.35323-15.248,7.27657-16.59563l-11.66455-4.03247C551.90576,834.53234,546.92573,842.19191,547.62775,848.43817Z"/>
        <path class="cls-75" d="M602.43666,665.89748,590.05588,753.216c1.31488,29.56525-3.04017,55.21593-7.06383,79.46808l.38057,4.8056c-.52417,6.97071-16.7392,8.30268-17.06142.93908l-12.38967-159.722Z"/>
        <path class="cls-76" d="M602.43666,665.89748l-7.844,58.53678c-1.90807,14.69728-30.103,15.062-32.28563,6.79177l-8.38549-52.51924Z"/>
        <path class="cls-71" d="M588.05587,844.75358s5.37372,6.33408,6.74758,12.03928-7.37152,9.07186-12.31862,11.03-21.65842,6.99839-26.79444,4.7569c-8.09521-3.53295-1.55825-10.86594,4.31059-13.18535,4.6055-1.82012,10.94188-9.25547,10.94188-9.25547Z"/>
        <path class="cls-73" d="M551.94562,867.49774c-1.43408,1.44336-.97855,3.5908.661,4.88566s3.47873,3,12.95745,3.06383c10.292.06931,26.617-10.97872,28.65958-13.65957s1.76595-5.03393,1.06383-6.04256-4.30852-.734-8.42554,1.30851c-2.866,1.42188-20.29787,12.81915-25.19149,13.47873S551.94562,867.49774,551.94562,867.49774Z"/>
        <path class="cls-73" d="M560.838,870.603c-3.35473-5.76026-3.41186-9.35059-.83691-11.2085l9.57583-7.73649c-1.14966,2.63941-.22134,6.79435,6.64682,12.3C570.43292,867.90326,564.994,870.92938,560.838,870.603Z"/>
        <path class="cls-71" d="M530.78369,683.86107s.71708,55.398,4.88922,78.59868c3.80123,21.13811,35.26995,87.67924,35.26995,87.67924l17.113-5.38541-5.41895-8.72222s-7.87239-50.60745-17.07117-79.30473l7.02542-65.53786Z"/>
        <path class="cls-73" d="M602.43669,665.89759a134.50549,134.50549,0,0,0,.11212-13.67359l-66.26707-17.2731c-2.2168,15.30175-6.92621,29.42156-7.36311,47.37213,0,0-.229,24.29108,1.86506,47.617,1.74028,19.38555,36.11366,17.617,38.51135,4.79263l7.21663-42.85676Z"/>
        <path class="cls-77" d="M571.80192,542.36244c-8.26141-.1768-13.65828-3.04845-15.64636-10.37279l-3.94167-16.34329c-1.902-6.34259,2.6135-13.66489,10.154-15.22727,6.59027-1.36549,14.52073,2.671,16.03694,9.97084a150.703,150.703,0,0,1,2.19176,16.378C581.03741,534.11356,579.30974,542.52311,571.80192,542.36244Z"/>
        <path class="cls-74" d="M562.28623,548.80828l-3.0771-13.692c.62167-7.922,18.284-2.17707,18.98723,3.30408l.8726,8.117C573.26,547.73506,562.28623,548.80828,562.28623,548.80828Z"/>
        <path class="cls-78" d="M572.408,545.9826c18.54827-4.167,36.68085,3.57447,33.617,28.10853l-8.04259,43.50861s3.525,19.10627,4.97187,35.30664c.77285,11.0975-3.33756,17.8208-16.64309,26.55067-18.80851,12.34043-57.42583,5.3979-56.20785-10.72976l11.411-50.06383-7.48857-45.63477C540.696,556.27345,556.71373,549.5084,572.408,545.9826Z"/>
        <path class="cls-79" d="M554.74389,608.79114l-11.35717-1.19165s-.937,3.05567-2.40869,7.79614l.53637,3.26783-11.41113,50.064a10.50532,10.50532,0,0,0,3.41943,8.33472C541.33789,658.52307,548.29346,635.09436,554.74389,608.79114Z"/>
        <path class="cls-71" d="M527.6546,690.68335a65.39209,65.39209,0,0,1-1.4444,7.24344s.1567,6.59828-1.20434,7.24729c-1.30492.62225-5.46171.08128-7.88822-3.01608a16.80933,16.80933,0,0,1-2.60957-6.10355c-1.0827-4.21479.58337-14.75859.58337-14.75859l11.27086-.02923S527.92527,688.00785,527.6546,690.68335Z"/>
        <path class="cls-71" d="M535.17935,575.45274s-9.438,37.44822-13.282,56.18944c-2.50035,12.19047-6.80591,49.65368-6.80591,49.65368l11.27086-.02923,14.62726-43.01089,11.61952-39.91208Z"/>
        <path class="cls-80" d="M533.76969,573.81239c-4.62109,13.92212-7.25554,31.85184-7.25554,31.85184-1.96786,10.85029,20.34065,17.04178,23.37,7.80462l4.45751-16.6486C557.742,577.41766,538.61027,557.67421,533.76969,573.81239Z"/>
      </g>
      <g>
        <path class="cls-81" d="M632.5,575.91873l22.32566-12.89162a3.45745,3.45745,0,0,0-.00036-5.98846l-6.51636-3.74238a3.45743,3.45743,0,0,0-3.45747.00021L622.527,566.18739a3.45745,3.45745,0,0,0,0,5.98825l6.51516,3.74308A3.45745,3.45745,0,0,0,632.5,575.91873Z"/>
        <path class="cls-71" d="M638.76835,569.31692l1.44874-2.15772c.8617-1.53192-.56383-2.766-1.54078-2.07445,0,0-5.275,3.36123-6.43853,5.06807a53.05385,53.05385,0,0,0-3.15693,6.88407l6.80957,6.25757s5.96-4.34082,7.54639-6.91235c1.58642-2.57178,2.32763-8.1228,2.32763-8.1228Z"/>
      </g>
    </g>
    <path class="cls-82" d="M612.39809,587.65735c-.101-4.54616-3.98978-10.54036-6.17031-15.86718-2.6331-6.43251,1.92338-15.96139-.56053-23.63048-3.26649-10.08536-13.56941-13.68134-13.74731-23.01789a48.47664,48.47664,0,0,0-2.85512-16.442c-.10249-.28641-.19932-.5734-.31553-.85851a20.37558,20.37558,0,0,0-1.22041-2.4856,11.75631,11.75631,0,0,0-.81885-1.30906l-.00433.008a21.78435,21.78435,0,0,0-31.52682-4.25442,40.0834,40.0834,0,0,0-3.80725,4.069,18.69713,18.69713,0,0,0-1.34284,2.16814,37.207,37.207,0,0,0-4.545,16.18922c-.54787,11.025-4.94533,10.48736-6.955,23.29307-1.11138,7.08177,3.08983,14.847,1.11153,21.17328-1.81379,5.80022-5.98488,11.46444-7.17826,17.51818-2.0138,10.21553,2.07516,20.72913,7.563,24.7077,9.98376,7.23807,19.53191,7.64037,32.88338,7.5204,10.49372-.09429,17.24032-.55673,28.00322-7.11624A25.01629,25.01629,0,0,0,612.39809,587.65735Z"/>
  </g>
  <g>
    <g>
      <path class="cls-83" d="M243.04376,85.76a198.65291,198.65291,0,1,1-77.58349,15.65723A198.0603,198.0603,0,0,1,243.04376,85.76m0-18.17382c-120.12524,0-217.5061,97.38086-217.5061,217.50634,0,120.125,97.38086,217.50586,217.5061,217.50586S460.54987,405.2175,460.54987,285.0925c0-120.12548-97.38086-217.50634-217.50611-217.50634Z"/>
      <circle class="cls-84" cx="243.04374" cy="285.09236" r="201.18409"/>
      <path class="cls-85" d="M444.05943,292.98956,417.486,249.67129H379.74618L270.68385,414.78822H396.82941A200.29747,200.29747,0,0,0,444.05943,292.98956Z"/>
      <path class="cls-86" d="M379.74618,157.79669h19.08541A202.11475,202.11475,0,0,0,341.70913,109.738Z"/>
    </g>
    <path class="cls-87" d="M89.258,414.7881a201.15612,201.15612,0,0,0,307.57135,0Z"/>
    <g>
      <rect class="cls-88" x="55.95989" y="188.78701" width="313.49656" height="195.2595" rx="8.80692"/>
      <path class="cls-89" d="M61.72354,236.78407s80.28583,7.52325,99.65254,12.88721,22.30536,14.22536,38.35252,18.84291,62.69535,2.3401,81.20226.90545,45.43454-6.14817,59.85766-4.64012a99.64239,99.64239,0,0,1,27.37676,7.4242V378.30788H62.65152Z"/>
      <path class="cls-56" d="M293.11125,347.99249c-28.15027-4.61127-52.06595-.07194-65.11639-2.16547s-30.62469-14.726-40.52376-22.86016-11.617-17.1883-28.05437-28.32454-94.75447-16.5611-94.75447-16.5611L61.72354,378.30788h298.3602S321.26151,352.60377,293.11125,347.99249Z"/>
      <path class="cls-57" d="M360.64948,197.46946a.12456.12456,0,0,1,.12451.12451V375.23948a.12457.12457,0,0,1-.12451.12451H64.76691a.12456.12456,0,0,1-.12451-.12451V197.594a.12455.12455,0,0,1,.12451-.12451H360.64948m0-8.68262H64.76691a8.80732,8.80732,0,0,0-8.80713,8.80713V375.23948a8.807,8.807,0,0,0,8.80713,8.80712H360.64948a8.8069,8.8069,0,0,0,8.807-8.80712V197.594a8.80722,8.80722,0,0,0-8.807-8.80713Z"/>
      <path class="cls-90" d="M153.3718,403.87465H272.04453a9.04716,9.04716,0,0,1,9.04716,9.04716V416.806a0,0,0,0,1,0,0H144.32464a0,0,0,0,1,0,0v-3.88423A9.04716,9.04716,0,0,1,153.3718,403.87465Z"/>
      <rect class="cls-91" x="190.90953" y="384.04651" width="43.59728" height="19.82814"/>
    </g>
    <rect class="cls-92" x="395.21172" y="229.5737" width="6.80871" height="185.2144"/>
    <polygon class="cls-93" points="398.616 402.908 366.308 409.98 366.308 414.788 398.616 414.788 430.924 414.788 430.924 409.98 398.616 402.908"/>
    <g>
      <rect class="cls-88" x="379.74621" y="157.79673" width="37.73971" height="91.87455"/>
      <rect class="cls-94" x="379.74621" y="157.79673" width="37.73971" height="6.96983"/>
      <rect class="cls-95" x="379.74621" y="200.24909" width="37.73971" height="6.96983"/>
      <rect class="cls-96" x="379.74621" y="242.70145" width="37.73971" height="6.96983"/>
    </g>
    <g>
      <circle class="cls-83" cx="63.44097" cy="174.2917" r="51.44097"/>
      <g>
        <rect class="cls-88" x="59.25391" y="145.71276" width="11.16548" height="57.15788" transform="translate(-104.25263 96.8953) rotate(-45)"/>
        <rect class="cls-88" x="59.25391" y="145.71276" width="11.16548" height="57.15788" transform="translate(-12.55975 343.38099) rotate(-135)"/>
      </g>
    </g>
  </g>
  <path class="cls-97" d="M340.08374,429.04H82.53758A200.48276,200.48276,0,0,0,223.004,486.27583l.03972.00044.0275-.00044a200.36281,200.36281,0,0,0,132.72914-50.0557Z"/>
  <g>
    <path class="cls-98" d="M875.88369,697.24111c14.34209,0,26.45877,6.34385,26.45877,13.8529s-12.11668,13.85284-26.45877,13.85284c-14.34221,0-26.45889-6.34384-26.45889-13.85284s12.11668-13.8529,26.45889-13.8529m0-3.18215c-16.37029,0-29.641,7.62682-29.641,17.03505s13.27075,17.035,29.641,17.035c16.37017,0,29.64092-7.62682,29.64092-17.035S892.25386,694.059,875.88369,694.059Z"/>
    <g>
      <g>
        <path class="cls-99" d="M847.93935,655.48054V699.055c0,8.86969,12.51124,16.06,27.94434,16.06,15.43323,0,27.94434-7.19031,27.94434-16.06V655.48054Z"/>
        <ellipse class="cls-17" cx="875.88366" cy="655.48058" rx="27.94426" ry="16.05992"/>
        <path class="cls-100" d="M900.128,663.45956c-4.82258,4.84517-13.885,8.07533-24.24871,8.07533s-19.42559-3.23016-24.24871-8.07533c3.07339-6.01166,12.76345-10.40831,24.24871-10.40831S897.05457,657.4479,900.128,663.45956Z"/>
        <path class="cls-19" d="M875.88369,642.42066c13.52112,0,24.94421,5.98071,24.94421,13.05994,0,7.07916-11.42309,13.05987-24.94421,13.05987-13.52124,0-24.94434-5.98071-24.94434-13.05987,0-7.07923,11.4231-13.05994,24.94434-13.05994m0-3c-15.43323,0-27.94434,7.19025-27.94434,16.05994,0,8.86963,12.51111,16.05987,27.94434,16.05987,15.43311,0,27.94421-7.19024,27.94421-16.05987,0-8.86969-12.5111-16.05994-27.94421-16.05994Z"/>
      </g>
      <g>
        <path class="cls-101" d="M884.4652,540.3663c10.27343-3.82415,30.20007-14.81552,24.20314-21.78945S883.75984,524.69223,884.4652,540.3663Z"/>
        <path class="cls-100" d="M873.78414,661.28421c-.57,0-1.268-.94038-1.268-2.03785,0-53.61358-4.83087-88.51461-16.70718-116.823a3.374,3.374,0,0,1,.15429-2.793c.44333-.69143,1.0925-.55911,1.45127.29707,12.197,29.07371,17.40146,64.77243,17.40146,119.37062C874.816,660.3956,874.35414,661.28421,873.78414,661.28421Z"/>
        <path class="cls-100" d="M878.41184,661.28421c-.57,0-1.03186-.88861-1.03186-1.98607,0-50.49632,0-119.65472,13.174-151.057.35844-.85618,1.00794-.9872,1.45093-.29707a3.37262,3.37262,0,0,1,.15463,2.793c-12.71581,30.31128-12.71581,98.65631-12.71581,148.56109C879.4437,660.3956,878.98184,661.28421,878.41184,661.28421Z"/>
        <path class="cls-100" d="M878.89694,607.07779c-.53193,0-.98334-.78613-1.02747-1.82392-1.71135-40.383-6.25718-67.83-14.30622-86.37535a3.385,3.385,0,0,1,.13-2.79814c.438-.7044,1.08846-.58895,1.4533.25036,8.33572,19.20562,13.0318,47.3596,14.77986,88.59882.04616,1.09357-.37663,2.05353-.9446,2.14174A.47258.47258,0,0,1,878.89694,607.07779Z"/>
      </g>
      <path class="cls-100" d="M878.41284,622.78872a.52457.52457,0,0,1-.07445-.00477c-.56865-.0715-.79916-.97985-.7584-1.98439,1.28418-31.77956,9.09446-65.2926,21.9147-67.92372.56326-.11678,1.078.60058,1.14371,1.60155.06569,1.00216-.33991,1.9078-.90587,2.02339-11.70518,2.40232-19.068,34.313-20.29154,64.59344C879.40225,622.05586,878.94915,622.78872,878.41284,622.78872Z"/>
      <path class="cls-102" d="M885.32166,575.18636c10.16466,2.53688,31.575,2.65047,30.61627-6.08738S893.2353,562.4498,885.32166,575.18636Z"/>
      <path class="cls-103" d="M889.07348,568.62991c17.08455-4.57709,48.78844-21.93977,40.21852-34.05556S890.329,543.34577,889.07348,568.62991Z"/>
      <path class="cls-104" d="M876.95612,580.8985c13.111-5.7497,36.35769-23.516,28.02017-32.16342S874.87157,560.51393,876.95612,580.8985Z"/>
      <path class="cls-105" d="M873.1536,546.177c-12.41352-9.28869-32.56114-33.74366-21.641-40.81312S880.36574,525.19094,873.1536,546.177Z"/>
      <path class="cls-106" d="M867.52028,576.12926c-17.297-4.81081-49.30951-22.74047-40.49386-34.95552S866.49008,550.45317,867.52028,576.12926Z"/>
      <path class="cls-107" d="M860.52512,551.94581c-9.49519-5.478-27.31851-19.62761-20.24616-25.50814S863.82507,536.60683,860.52512,551.94581Z"/>
      <path class="cls-108" d="M879.704,535.86472c12.14387-10.83615,31.84358-35.50284,19.59866-41.78006S869.9445,514.79263,879.704,535.86472Z"/>
      <path class="cls-109" d="M875.1598,559.19525c9.36165-8.86212,23.65647-30.992,13.95945-35.78344S867.19058,542.55429,875.1598,559.19525Z"/>
      <path class="cls-110" d="M876.70318,571.61478c-10.57167-5.39906-28.94632-21.23919-21.62312-27.98994S879.42351,554.84377,876.70318,571.61478Z"/>
    </g>
    <rect class="cls-111" x="885.88112" y="691.37437" width="37.57777" height="2.00007" transform="translate(172.35637 1565.02948) rotate(-87.42538)"/>
    <rect class="cls-112" x="846.01763" y="673.58552" width="2.00007" height="37.57777" transform="translate(-30.16985 38.64411) rotate(-2.56788)"/>
    <rect class="cls-113" x="874.88778" y="689.83095" width="2" height="37.27637"/>
    <path class="cls-114" d="M903.828,664.57027v7.77a3.429,3.429,0,0,1,0,.74c-.38,7.78-13.02,14.28-27.93994,14.28-14.92,0-27.57007-6.5-27.95008-14.28a3.45128,3.45128,0,0,1,0-.74v-7.76a11.4797,11.4797,0,0,0,0,16.27c5.16,5.86,15.74012,9.87,27.95008,9.87,12.2,0,22.77-4.01,27.93994-9.86005a11.47975,11.47975,0,0,0,0-16.29Z"/>
  </g>
  <g>
    <g>
      <polygon class="cls-115" points="752.113 293.218 752.152 383.92 674.873 339.166 674.833 248.464 752.113 293.218"/>
      <polygon class="cls-116" points="748.807 291.309 748.837 369.937 685.284 333.109 685.253 254.481 748.807 291.309"/>
      <polygon class="cls-117" points="737.45 299.966 737.471 353.27 694.387 328.303 694.366 274.999 737.45 299.966"/>
      <path class="cls-118" d="M747.81507,376.41379l-68.61231-39.74951-.03221-80.69349,68.61234,39.74951.03218,80.69349m4.33729,7.5063-.03922-90.70188-77.27987-44.75372.03924,90.70188,77.27985,44.75372Z"/>
      <polygon class="cls-119" points="679.724 245.633 757.004 290.387 752.113 293.218 674.833 248.465 679.724 245.633"/>
      <polygon class="cls-120" points="757.004 290.387 757.027 381.098 752.152 383.92 752.113 293.218 757.004 290.387"/>
    </g>
    <g>
      <polygon class="cls-121" points="817.362 315.379 817.401 374.081 764.37 343.327 764.331 284.625 817.362 315.379"/>
      <polygon class="cls-122" points="814.055 313.47 814.086 360.098 774.782 337.27 774.751 290.641 814.055 313.47"/>
      <path class="cls-123" d="M813.06373,366.57466l-44.3636-25.74951-.0322-48.69349,44.36362,25.74952.03218,48.69348m4.33729,7.5063-.03922-58.70188-53.03116-30.75372.03924,58.70189L817.401,374.081Z"/>
      <polygon class="cls-124" points="769.221 281.794 822.252 312.548 817.362 315.379 764.331 284.625 769.221 281.794"/>
      <polygon class="cls-125" points="822.252 312.548 822.275 371.259 817.401 374.081 817.362 315.379 822.252 312.548"/>
    </g>
  </g>
</svg>
