<svg id="Layer_1" data-name="Layer 1" xmlns="http://www.w3.org/2000/svg" xmlns:xlink="http://www.w3.org/1999/xlink" viewBox="0 0 1000 1000">
  <defs>
    <style>
      .cls-1 {
        fill: url(#linear-gradient);
      }

      .cls-2 {
        fill: #b8cbd8;
      }

      .cls-3 {
        fill: url(#linear-gradient-2);
      }

      .cls-4 {
        fill: url(#linear-gradient-3);
      }

      .cls-5 {
        fill: url(#linear-gradient-4);
      }

      .cls-6 {
        fill: url(#linear-gradient-5);
      }

      .cls-7 {
        fill: url(#linear-gradient-6);
      }

      .cls-8 {
        fill: url(#linear-gradient-7);
      }

      .cls-9 {
        fill: url(#linear-gradient-8);
      }

      .cls-10 {
        fill: #2a3f5e;
        opacity: 0.2;
      }

      .cls-11 {
        fill: url(#linear-gradient-9);
      }

      .cls-12 {
        fill: #e58630;
      }

      .cls-13 {
        fill: url(#linear-gradient-10);
      }

      .cls-14 {
        fill: url(#linear-gradient-11);
      }

      .cls-15 {
        fill: url(#linear-gradient-12);
      }

      .cls-16 {
        fill: url(#linear-gradient-13);
      }

      .cls-17 {
        fill: #541510;
        opacity: 0.3;
      }

      .cls-18 {
        fill: url(#linear-gradient-14);
      }

      .cls-19 {
        fill: url(#linear-gradient-15);
      }

      .cls-20 {
        fill: #bcd0e2;
      }

      .cls-21 {
        fill: url(#linear-gradient-16);
      }

      .cls-22 {
        fill: #e9f1f4;
      }

      .cls-23 {
        fill: url(#linear-gradient-17);
      }

      .cls-24 {
        fill: url(#linear-gradient-18);
      }

      .cls-25 {
        fill: url(#linear-gradient-19);
      }

      .cls-26 {
        fill: #f0f9fc;
      }

      .cls-27, .cls-28 {
        fill: none;
        stroke-miterlimit: 10;
        stroke-width: 5.40487px;
      }

      .cls-27 {
        stroke: url(#linear-gradient-20);
      }

      .cls-28 {
        stroke: url(#linear-gradient-21);
      }

      .cls-29 {
        fill: url(#linear-gradient-22);
      }

      .cls-30 {
        fill: url(#linear-gradient-23);
      }

      .cls-31 {
        fill: url(#linear-gradient-24);
      }

      .cls-32 {
        fill: url(#linear-gradient-25);
      }

      .cls-33 {
        fill: url(#linear-gradient-26);
      }

      .cls-34 {
        fill: url(#linear-gradient-27);
      }

      .cls-35 {
        fill: url(#linear-gradient-28);
      }

      .cls-36 {
        fill: url(#linear-gradient-29);
      }

      .cls-37 {
        fill: url(#linear-gradient-30);
      }

      .cls-38 {
        fill: url(#linear-gradient-31);
      }

      .cls-39 {
        fill: url(#linear-gradient-32);
      }

      .cls-40 {
        fill: url(#linear-gradient-33);
      }

      .cls-41 {
        fill: #ffcb48;
      }

      .cls-42 {
        fill: url(#linear-gradient-34);
      }

      .cls-43 {
        fill: url(#linear-gradient-35);
      }

      .cls-44 {
        fill: #404e59;
      }

      .cls-45 {
        fill: #27343d;
      }

      .cls-46 {
        fill: #ef8e73;
      }

      .cls-47 {
        fill: url(#linear-gradient-36);
      }

      .cls-48 {
        fill: #dd7b19;
        opacity: 0.5;
      }

      .cls-49 {
        fill: #303d49;
      }

      .cls-50 {
        fill: url(#linear-gradient-37);
      }

      .cls-51 {
        fill: url(#linear-gradient-38);
      }

      .cls-52 {
        fill: #323f4c;
      }

      .cls-53 {
        fill: #e2786d;
      }

      .cls-54 {
        fill: url(#linear-gradient-39);
      }

      .cls-55 {
        fill: url(#linear-gradient-40);
      }

      .cls-56 {
        fill: url(#linear-gradient-41);
      }

      .cls-57 {
        fill: url(#linear-gradient-42);
      }

      .cls-58 {
        opacity: 0.6;
      }

      .cls-59 {
        fill: #9bb0c4;
      }

      .cls-60 {
        fill: url(#linear-gradient-43);
      }

      .cls-61 {
        fill: url(#linear-gradient-44);
      }

      .cls-62 {
        fill: #724133;
      }

      .cls-63 {
        fill: url(#linear-gradient-45);
      }

      .cls-64 {
        fill: url(#linear-gradient-46);
      }

      .cls-65 {
        fill: url(#linear-gradient-47);
      }

      .cls-66 {
        fill: url(#linear-gradient-48);
      }

      .cls-67 {
        fill: url(#linear-gradient-49);
      }

      .cls-68 {
        fill: url(#linear-gradient-50);
      }

      .cls-69 {
        fill: url(#linear-gradient-51);
      }

      .cls-70 {
        fill: url(#linear-gradient-52);
      }

      .cls-71 {
        fill: url(#linear-gradient-53);
      }

      .cls-72 {
        fill: url(#linear-gradient-54);
      }

      .cls-73 {
        fill: url(#linear-gradient-55);
      }

      .cls-74 {
        fill: url(#linear-gradient-56);
      }

      .cls-75 {
        fill: url(#linear-gradient-57);
      }

      .cls-76 {
        fill: url(#linear-gradient-58);
      }

      .cls-77 {
        fill: url(#linear-gradient-59);
      }

      .cls-78 {
        fill: url(#linear-gradient-60);
      }

      .cls-79 {
        opacity: 0.4;
        fill: url(#linear-gradient-61);
      }

      .cls-80 {
        fill: url(#linear-gradient-62);
      }

      .cls-81 {
        fill: url(#linear-gradient-63);
      }

      .cls-82 {
        fill: url(#linear-gradient-64);
      }

      .cls-83 {
        fill: url(#linear-gradient-65);
      }

      .cls-84 {
        fill: url(#linear-gradient-66);
      }

      .cls-85 {
        fill: url(#linear-gradient-67);
      }

      .cls-86 {
        fill: url(#linear-gradient-68);
      }

      .cls-87 {
        fill: url(#linear-gradient-69);
      }
    </style>
    <linearGradient id="linear-gradient" x1="499.99188" y1="393.55996" x2="921.27857" y2="393.55996" gradientUnits="userSpaceOnUse">
      <stop offset="0" stop-color="#f0f9ff"/>
      <stop offset="1" stop-color="#c3d6e6"/>
    </linearGradient>
    <linearGradient id="linear-gradient-2" x1="592.0607" y1="179.77289" x2="553.76283" y2="421.04949" gradientUnits="userSpaceOnUse">
      <stop offset="0" stop-color="#293440"/>
      <stop offset="1" stop-color="#3e4c59"/>
    </linearGradient>
    <linearGradient id="linear-gradient-3" x1="611.76468" y1="183.97088" x2="526.96433" y2="438.96912" gradientUnits="userSpaceOnUse">
      <stop offset="0" stop-color="#62778c"/>
      <stop offset="1" stop-color="#435466"/>
    </linearGradient>
    <linearGradient id="linear-gradient-4" x1="-8129.91159" y1="301.20882" x2="-8071.18488" y2="301.20882" gradientTransform="matrix(-1, 0, 0, 1, -7527.7631, 0)" xlink:href="#linear-gradient-2"/>
    <linearGradient id="linear-gradient-5" x1="876.35802" y1="330.09097" x2="822.741" y2="588.21863" xlink:href="#linear-gradient-2"/>
    <linearGradient id="linear-gradient-6" x1="887.47312" y1="347.00009" x2="802.67277" y2="601.99833" xlink:href="#linear-gradient-3"/>
    <linearGradient id="linear-gradient-7" x1="-8405.62003" y1="464.23803" x2="-8346.89331" y2="464.23803" gradientTransform="matrix(-1, 0, 0, 1, -7527.7631, 0)" xlink:href="#linear-gradient-2"/>
    <linearGradient id="linear-gradient-8" x1="78.72143" y1="719.89267" x2="921.27857" y2="719.89267" gradientUnits="userSpaceOnUse">
      <stop offset="0" stop-color="#dae9f2"/>
      <stop offset="0.99337" stop-color="#c4d5e6"/>
    </linearGradient>
    <linearGradient id="linear-gradient-9" x1="662.22376" y1="828.69886" x2="1046.6433" y2="797.49382" gradientTransform="translate(-293.19035)" gradientUnits="userSpaceOnUse">
      <stop offset="0.00005" stop-color="#ffb348"/>
      <stop offset="1" stop-color="#e68e2b"/>
    </linearGradient>
    <linearGradient id="linear-gradient-10" x1="187.83433" y1="286.19272" x2="373.66923" y2="529.56164" gradientTransform="matrix(-1, 0, 0, 1, 669.68613, 0)" xlink:href="#linear-gradient-3"/>
    <linearGradient id="linear-gradient-11" x1="169.73269" y1="299.83562" x2="353.96023" y2="541.09954" gradientTransform="matrix(-1, 0, 0, 1, 669.68613, 0)" gradientUnits="userSpaceOnUse">
      <stop offset="0" stop-color="#62788c"/>
      <stop offset="1" stop-color="#526575"/>
    </linearGradient>
    <linearGradient id="linear-gradient-12" x1="-13.29855" y1="536.4299" x2="427.38369" y2="654.75262" gradientTransform="matrix(-1, 0, 0, 1, 669.68613, 0)" xlink:href="#linear-gradient-3"/>
    <linearGradient id="linear-gradient-13" x1="-146.31179" y1="544.6094" x2="260.77092" y2="803.77697" xlink:href="#linear-gradient-11"/>
    <linearGradient id="linear-gradient-14" x1="-129.50018" y1="614.25521" x2="435.68372" y2="644.83074" gradientTransform="matrix(-1, 0, 0, 1, 669.68613, 0)" gradientUnits="userSpaceOnUse">
      <stop offset="0" stop-color="#3e4c59"/>
      <stop offset="1" stop-color="#293440"/>
    </linearGradient>
    <linearGradient id="linear-gradient-15" x1="-130.61056" y1="634.78049" x2="434.57334" y2="665.35601" xlink:href="#linear-gradient-14"/>
    <linearGradient id="linear-gradient-16" x1="-106.65104" y1="487.08385" x2="71.24291" y2="675.16964" gradientTransform="matrix(-1, 0, 0, 1, 669.68613, 0)" gradientUnits="userSpaceOnUse">
      <stop offset="0.00005" stop-color="#ffcb48"/>
      <stop offset="1" stop-color="#e68e2b"/>
    </linearGradient>
    <linearGradient id="linear-gradient-17" x1="60.39213" y1="443.21801" x2="74.29009" y2="698.01403" xlink:href="#linear-gradient-16"/>
    <linearGradient id="linear-gradient-18" x1="182.08536" y1="245.16085" x2="432.57474" y2="573.20112" gradientTransform="matrix(-1, 0, 0, 1, 669.68613, 0)" gradientUnits="userSpaceOnUse">
      <stop offset="0" stop-color="#596c80"/>
      <stop offset="0.99886" stop-color="#3a4959"/>
    </linearGradient>
    <linearGradient id="linear-gradient-19" x1="214.94013" y1="668.46603" x2="242.27428" y2="711.1073" xlink:href="#linear-gradient-14"/>
    <linearGradient id="linear-gradient-20" x1="8538.91156" y1="636.28433" x2="8611.12155" y2="669.27555" gradientTransform="matrix(-1, 0, 0, 1, 8796.0358, 0)" xlink:href="#linear-gradient-14"/>
    <linearGradient id="linear-gradient-21" x1="8466.99104" y1="586.54918" x2="8548.58599" y2="623.82818" gradientTransform="matrix(-1, 0, 0, 1, 8796.0358, 0)" xlink:href="#linear-gradient-14"/>
    <linearGradient id="linear-gradient-22" x1="341.37363" y1="523.11305" x2="473.89277" y2="616.43638" gradientTransform="matrix(-1, 0, 0, 1, 661.07859, 0)" xlink:href="#linear-gradient-3"/>
    <linearGradient id="linear-gradient-23" x1="340.99442" y1="537.59289" x2="484.31988" y2="693.13625" gradientTransform="matrix(-1, 0, 0, 1, 661.07859, 0)" xlink:href="#linear-gradient-11"/>
    <linearGradient id="linear-gradient-24" x1="326.8555" y1="518.04888" x2="413.5022" y2="653.21773" gradientTransform="matrix(-1, 0, 0, 1, 661.07859, 0)" gradientUnits="userSpaceOnUse">
      <stop offset="0" stop-color="#96b1cc"/>
      <stop offset="1" stop-color="#748ea6"/>
    </linearGradient>
    <linearGradient id="linear-gradient-25" x1="334.06833" y1="562.44574" x2="472.61476" y2="562.44574" gradientTransform="matrix(-1, 0, 0, 1, 661.07859, 0)" gradientUnits="userSpaceOnUse">
      <stop offset="0" stop-color="#526575"/>
      <stop offset="1" stop-color="#62788c"/>
    </linearGradient>
    <linearGradient id="linear-gradient-26" x1="334.06827" y1="539.99847" x2="472.61472" y2="539.99847" xlink:href="#linear-gradient-24"/>
    <linearGradient id="linear-gradient-27" x1="133.66167" y1="539.18949" x2="188.22601" y2="539.18949" gradientTransform="matrix(-1, 0, 0, 1, 418.68089, 0)" xlink:href="#linear-gradient-3"/>
    <linearGradient id="linear-gradient-28" x1="133.66166" y1="535.03212" x2="188.22602" y2="535.03212" gradientTransform="matrix(-1, 0, 0, 1, 418.68089, 0)" gradientUnits="userSpaceOnUse">
      <stop offset="0" stop-color="#849bb2"/>
      <stop offset="1" stop-color="#5b6f82"/>
    </linearGradient>
    <linearGradient id="linear-gradient-29" x1="160.5753" y1="491.13361" x2="161.30178" y2="531.33228" gradientTransform="matrix(-1, 0, 0, 1, 418.68089, 0)" xlink:href="#linear-gradient-3"/>
    <linearGradient id="linear-gradient-30" x1="124.25238" y1="483.1676" x2="197.63534" y2="483.1676" gradientTransform="matrix(-1, 0, 0, 1, 418.68089, 0)" xlink:href="#linear-gradient-3"/>
    <linearGradient id="linear-gradient-31" x1="123.7601" y1="477.7889" x2="198.12762" y2="477.7889" gradientTransform="matrix(-1, 0, 0, 1, 418.68089, 0)" gradientUnits="userSpaceOnUse">
      <stop offset="0.00844" stop-color="#ffc63f"/>
      <stop offset="1" stop-color="#e68a23"/>
    </linearGradient>
    <linearGradient id="linear-gradient-32" x1="152.92547" y1="463.9744" x2="168.9621" y2="463.9744" gradientTransform="matrix(-1, 0, 0, 1, 418.68089, 0)" xlink:href="#linear-gradient-14"/>
    <linearGradient id="linear-gradient-33" x1="152.92548" y1="457.78732" x2="168.96219" y2="457.78732" gradientTransform="matrix(-1, 0, 0, 1, 418.68089, 0)" xlink:href="#linear-gradient-3"/>
    <linearGradient id="linear-gradient-34" x1="472.86306" y1="401.92891" x2="494.11574" y2="555.14591" gradientUnits="userSpaceOnUse">
      <stop offset="0" stop-color="#75413e"/>
      <stop offset="1" stop-color="#592f2f"/>
    </linearGradient>
    <linearGradient id="linear-gradient-35" x1="517.40925" y1="395.74992" x2="538.66193" y2="548.96692" xlink:href="#linear-gradient-34"/>
    <linearGradient id="linear-gradient-36" x1="453.26243" y1="456.36662" x2="531.68317" y2="612.21961" gradientTransform="matrix(1, 0, 0, 1, 0, 0)" xlink:href="#linear-gradient-16"/>
    <linearGradient id="linear-gradient-37" x1="456.07901" y1="454.9494" x2="534.49975" y2="610.80238" gradientTransform="matrix(1, 0, 0, 1, 0, 0)" xlink:href="#linear-gradient-16"/>
    <linearGradient id="linear-gradient-38" x1="496.81523" y1="434.4521" x2="575.23597" y2="590.30509" gradientTransform="matrix(1, 0, 0, 1, 0, 0)" xlink:href="#linear-gradient-16"/>
    <linearGradient id="linear-gradient-39" x1="502.22925" y1="397.85554" x2="523.48193" y2="551.07254" xlink:href="#linear-gradient-34"/>
    <linearGradient id="linear-gradient-40" x1="155.9065" y1="335.60273" x2="119.14054" y2="583.00699" xlink:href="#linear-gradient-2"/>
    <linearGradient id="linear-gradient-41" x1="199.45069" y1="358.57665" x2="114.65034" y2="613.57489" gradientTransform="matrix(-1, 0, 0, 1, 301.23404, 0)" xlink:href="#linear-gradient-3"/>
    <linearGradient id="linear-gradient-42" x1="-7717.59761" y1="475.81459" x2="-7658.87089" y2="475.81459" gradientTransform="translate(7828.99714)" xlink:href="#linear-gradient-2"/>
    <linearGradient id="linear-gradient-43" x1="126.82236" y1="720.23732" x2="186.10433" y2="720.23732" gradientTransform="matrix(1, 0, 0, 1, 0, 0)" xlink:href="#linear-gradient-14"/>
    <linearGradient id="linear-gradient-44" x1="131.01654" y1="664.12897" x2="190.4208" y2="721.32046" gradientTransform="matrix(1, 0, 0, 1, 0, 0)" xlink:href="#linear-gradient-16"/>
    <linearGradient id="linear-gradient-45" x1="-10145.37892" y1="2348.10097" x2="-10112.68312" y2="2361.6869" gradientTransform="matrix(-0.94085, 0.33882, 0.33882, 0.94085, -10151.87652, 1754.17016)" gradientUnits="userSpaceOnUse">
      <stop offset="0" stop-color="#f2883c"/>
      <stop offset="0.16716" stop-color="#e97d35"/>
      <stop offset="0.67368" stop-color="#d26124"/>
      <stop offset="0.96784" stop-color="#c9571e"/>
    </linearGradient>
    <linearGradient id="linear-gradient-46" x1="455.87479" y1="-1598.2086" x2="431.24097" y2="-1582.53253" gradientTransform="translate(-816.26415 1896.88914) rotate(21.53204)" xlink:href="#linear-gradient-45"/>
    <linearGradient id="linear-gradient-47" x1="209.33" y1="540.82262" x2="167.97505" y2="577.9973" gradientTransform="matrix(1, 0, 0, 1, 0, 0)" xlink:href="#linear-gradient-45"/>
    <linearGradient id="linear-gradient-48" x1="-631.48988" y1="2001.16715" x2="-665.15268" y2="2022.58893" gradientTransform="translate(232.18508 -1538.95335) rotate(-16.16083)" xlink:href="#linear-gradient-45"/>
    <linearGradient id="linear-gradient-49" x1="133.58915" y1="513.3984" x2="153.89339" y2="552.36463" gradientTransform="matrix(1, 0, 0, 1, 0, 0)" xlink:href="#linear-gradient-45"/>
    <linearGradient id="linear-gradient-50" x1="-911.99775" y1="2437.94425" x2="-888.4856" y2="2483.06685" gradientTransform="translate(74.52301 -2054.22599) rotate(-21.26361)" xlink:href="#linear-gradient-45"/>
    <linearGradient id="linear-gradient-51" x1="275.69246" y1="-2423.83419" x2="308.38825" y2="-2410.24827" gradientTransform="matrix(0.87147, 0.49044, -0.49044, 0.87147, -1307.60256, 2510.9123)" xlink:href="#linear-gradient-45"/>
    <linearGradient id="linear-gradient-52" x1="-209.73831" y1="961.69736" x2="-231.10653" y2="999.05096" gradientTransform="matrix(1.03159, -0.09458, 0.10022, 1.01436, 297.69746, -492.61444)" xlink:href="#linear-gradient-45"/>
    <linearGradient id="linear-gradient-53" x1="-1931.45163" y1="3453.06254" x2="-1961.76286" y2="3472.3515" gradientTransform="translate(-293.46378 -3395.27415) rotate(-35.91139)" xlink:href="#linear-gradient-45"/>
    <linearGradient id="linear-gradient-54" x1="-11094.63835" y1="-1343.98643" x2="-11122.55019" y2="-1326.22435" gradientTransform="matrix(-0.94244, -0.33439, -0.33439, 0.94244, -10767.37053, -1889.54677)" xlink:href="#linear-gradient-45"/>
    <linearGradient id="linear-gradient-55" x1="-954.4435" y1="701.51774" x2="-950.76186" y2="701.51774" gradientTransform="matrix(-0.04492, -0.99899, -0.99899, 0.04492, 843.26804, -281.63582)" xlink:href="#linear-gradient-14"/>
    <linearGradient id="linear-gradient-56" x1="125.75656" y1="701.51774" x2="129.4382" y2="701.51774" gradientTransform="translate(31.55817 -5.0123) rotate(2.56788)" xlink:href="#linear-gradient-14"/>
    <linearGradient id="linear-gradient-57" x1="155.4675" y1="717.61246" x2="157.4675" y2="717.61246" gradientTransform="matrix(1, 0, 0, 1, 0, 0)" xlink:href="#linear-gradient-14"/>
    <linearGradient id="linear-gradient-58" x1="125.13767" y1="686.78861" x2="187.7977" y2="686.78861" gradientTransform="matrix(1, 0, 0, 1, 0, 0)" xlink:href="#linear-gradient-14"/>
    <linearGradient id="linear-gradient-59" x1="-286.12296" y1="279.07476" x2="-208.8039" y2="279.07476" gradientTransform="matrix(-1, 0, 0, 1, 162.85298, -32.28579)" gradientUnits="userSpaceOnUse">
      <stop offset="0" stop-color="#435466"/>
      <stop offset="1" stop-color="#62778c"/>
    </linearGradient>
    <linearGradient id="linear-gradient-60" x1="-275.70277" y1="275.09151" x2="-212.1188" y2="275.09151" gradientTransform="matrix(-1, 0, 0, 1, 162.85298, -32.28579)" gradientUnits="userSpaceOnUse">
      <stop offset="0" stop-color="#fff"/>
      <stop offset="0.98888" stop-color="#e6edf2"/>
    </linearGradient>
    <linearGradient id="linear-gradient-61" x1="-266.59048" y1="277.01694" x2="-223.48502" y2="277.01694" gradientTransform="matrix(-1, 0, 0, 1, 162.85298, -32.28579)" xlink:href="#linear-gradient-3"/>
    <linearGradient id="linear-gradient-62" x1="-286.12298" y1="279.07476" x2="-208.80389" y2="279.07476" gradientTransform="matrix(-1, 0, 0, 1, 162.85298, -32.28579)" xlink:href="#linear-gradient-28"/>
    <linearGradient id="linear-gradient-63" x1="-269.15754" y1="200.42817" x2="-189.65767" y2="305.50626" gradientTransform="matrix(-1, 0, 0, 1, 162.85298, -32.28579)" xlink:href="#linear-gradient-3"/>
    <linearGradient id="linear-gradient-64" x1="-300.62001" y1="175.47297" x2="-182.73586" y2="331.28507" gradientTransform="matrix(-1, 0, 0, 1, 162.85298, -32.28579)" xlink:href="#linear-gradient-3"/>
    <linearGradient id="linear-gradient-65" x1="-186.07943" y1="316.76661" x2="-211.7596" y2="256.54585" gradientTransform="matrix(-1, 0, 0, 1, 140.74865, 6.00002)" xlink:href="#linear-gradient-59"/>
    <linearGradient id="linear-gradient-66" x1="-252.61288" y1="221.70745" x2="-213.27762" y2="221.70745" gradientTransform="matrix(-1, 0, 0, 1, 96.44549, 82.73534)" xlink:href="#linear-gradient-60"/>
    <linearGradient id="linear-gradient-67" x1="-263.03309" y1="225.6907" x2="-209.96271" y2="225.6907" gradientTransform="matrix(-1, 0, 0, 1, 96.44549, 82.73534)" xlink:href="#linear-gradient-28"/>
    <linearGradient id="linear-gradient-68" x1="-250.69683" y1="172.95078" x2="-195.90139" y2="245.37606" gradientTransform="matrix(-1, 0, 0, 1, 96.44549, 82.73534)" xlink:href="#linear-gradient-3"/>
    <linearGradient id="linear-gradient-69" x1="-268.8553" y1="158.60524" x2="-192.15449" y2="259.98369" gradientTransform="matrix(-1, 0, 0, 1, 96.44549, 82.73534)" xlink:href="#linear-gradient-3"/>
  </defs>
  <g>
    <polygon class="cls-1" points="499.992 67.227 921.279 310.448 921.279 719.893 499.992 476.649 499.992 67.227"/>
    <polygon class="cls-2" points="500.008 67.227 78.721 310.448 78.721 719.893 500.008 476.649 500.008 67.227"/>
  </g>
  <g>
    <g>
      <g>
        <path class="cls-3" d="M543.42177,145.36535l10.474-6.04511,58.73759,33.87381L602.14815,448.32393l.0001,8.73024-58.72648-33.89235Z"/>
        <path class="cls-4" d="M532.92868,127.18348v302.04l79.7,46v-302.03Zm69.22,329.87-58.72-33.88995v-277.8l58.72,33.9Z"/>
      </g>
      <polygon class="cls-5" points="543.429 145.363 547.37 147.638 547.358 421.031 602.148 452.648 602.148 457.054 543.422 423.162 543.429 145.363"/>
    </g>
    <g>
      <g>
        <path class="cls-6" d="M819.13021,308.39456l10.474-6.04511,58.73759,33.8738L877.85659,611.35314l.0001,8.73024L819.13021,586.191Z"/>
        <path class="cls-7" d="M808.63712,290.21269v302.04l79.7,46v-302.03Zm69.22,329.87-58.72-33.88995v-277.8l58.72,33.9Z"/>
      </g>
      <polygon class="cls-8" points="819.137 308.393 823.079 310.667 823.066 584.061 877.857 615.678 877.857 620.083 819.13 586.191 819.137 308.393"/>
    </g>
  </g>
  <path class="cls-9" d="M85.9912,732.49667l392.2106,226.4329a43.61718,43.61718,0,0,0,43.61686-.00063l392.1905-226.4365a14.53907,14.53907,0,0,0,.00018-25.18216L521.80168,480.8567a43.61723,43.61723,0,0,0-43.62.00054L85.99035,707.31448A14.53907,14.53907,0,0,0,85.9912,732.49667Z"/>
  <path class="cls-10" d="M182.85562,677.93276l83.72156-48.32451a8.70508,8.70508,0,0,1,8.71372,0L328.85,660.58286a4.35255,4.35255,0,0,1,0,7.53634L245.1284,716.44371a8.70508,8.70508,0,0,1-8.71372,0l-53.55906-30.97462A4.35254,4.35254,0,0,1,182.85562,677.93276Z"/>
  <path class="cls-10" d="M819.90088,672.414,606.5725,795.57353a20.11586,20.11586,0,0,1-20.11783-.00154L240.83309,595.78068a10.05793,10.05793,0,0,1,.00065-17.41988L454.09725,455.2165a20.11586,20.11586,0,0,1,20.11688-.00059L819.90105,654.99306A10.05793,10.05793,0,0,1,819.90088,672.414Z"/>
  <path class="cls-11" d="M439.228,751.83581,368.12547,792.8929a7.26954,7.26954,0,0,0,0,12.59074L508.8512,886.74377a21.8086,21.8086,0,0,0,21.81413-.00178l71.06038-41.04834a7.26954,7.26954,0,0,0,0-12.58955L461.04213,751.8376A21.80863,21.80863,0,0,0,439.228,751.83581Z"/>
  <ellipse class="cls-12" cx="484.92507" cy="820.60717" rx="64.35396" ry="36.98503"/>
  <g>
    <g>
      <g>
        <g>
          <path class="cls-13" d="M284.97046,410.33866,496.87538,285.07759a3.07665,3.07665,0,0,1,3.35578.13283v-.00012l18.71691,10.82642L499.72981,307.278v90.31271L280.39853,513.43844V418.35229A9.30917,9.30917,0,0,1,284.97046,410.33866Z"/>
          <path class="cls-14" d="M520.41683,298.67422V409.573l-221.159,114.79083v-95.0861a9.309,9.309,0,0,1,4.572-8.01363l211.905-125.2611A3.103,3.103,0,0,1,520.41683,298.67422Z"/>
          <path class="cls-15" d="M299.258,429.27774V533.41425l295.97312,35.04148V786.1632a19.37343,19.37343,0,0,1-9.74789-2.59171L285.21455,609.93237a9.94628,9.94628,0,0,1-4.81334-8.87511l-.00278-69.03537V418.35233Z"/>
          <path class="cls-16" d="M595.23105,568.45576V786.16319a19.24288,19.24288,0,0,0,9.60282-2.59169L809.94555,665.156a9.55129,9.55129,0,0,0,4.82564-8.22962V587.23589Z"/>
          <g>
            <path class="cls-17" d="M299.25786,513.72306v36.40953l.00968-.00968a9.57022,9.57022,0,0,0,4.80622,8.79047l281.4121,162.5228a19.27646,19.27646,0,0,0,9.7479,2.59169V538.85673Z"/>
            <path class="cls-18" d="M299.25786,528.14221v36.40953l.00968-.00968a9.57021,9.57021,0,0,0,4.80622,8.79047l281.4121,162.5228a19.27646,19.27646,0,0,0,9.7479,2.59169V553.27588Z"/>
            <path class="cls-19" d="M595.23376,553.27588V738.447a19.2609,19.2609,0,0,0,9.59314-2.59169L809.93864,617.43981a9.58514,9.58514,0,0,0,4.83526-8.38438V571.92067Z"/>
            <path class="cls-12" d="M391.17361,515.33687v87.69271l194.31031,112.2241a19.2705,19.2705,0,0,0,9.7434,2.59465V532.68307Z"/>
            <path class="cls-20" d="M299.25341,507.53473v36.41616h.01816a9.56487,9.56487,0,0,0,4.80813,8.7819l87.09391,50.29679V515.33687Z"/>
            <path class="cls-21" d="M595.23376,532.67709V717.84823a19.2609,19.2609,0,0,0,9.59314-2.59169L809.93864,596.841a9.58514,9.58514,0,0,0,4.83526-8.38438V551.32188Z"/>
            <path class="cls-22" d="M809.94117,560.09682,604.82976,678.5125a19.341,19.341,0,0,1-19.34294-.00148L304.07529,515.988a9.67052,9.67052,0,0,1,.00063-16.7489L509.125,380.838a19.341,19.341,0,0,1,19.342-.00056L809.94134,543.34689A9.67052,9.67052,0,0,1,809.94117,560.09682Z"/>
            <path class="cls-23" d="M394.1097,563.74177,614.61489,436.41618a20.70892,20.70892,0,0,1,6.13133-2.30129l189.19518,109.232a9.6705,9.6705,0,0,1-.00044,16.75L604.82985,678.51246A19.34069,19.34069,0,0,1,585.487,678.511L391.16564,566.285A10.39443,10.39443,0,0,1,394.1097,563.74177Z"/>
          </g>
        </g>
        <path class="cls-24" d="M285.21455,404.32205V609.93237l5.45071,3.152V404.32205a6.824,6.824,0,0,1,3.34113-5.86465L510.958,270.21031a.40545.40545,0,0,1,.45505,0,.414.414,0,0,1,.22752.39305V291.8175l5.451,3.14442V270.60336a5.89777,5.89777,0,0,0-8.90573-5.07862L291.23419,393.77183A12.30374,12.30374,0,0,0,285.21455,404.32205Z"/>
      </g>
      <path class="cls-25" d="M310.32994,606.70662,568.43562,755.96588a9.309,9.309,0,0,1,4.64884,8.05857V776.4015L305.68305,621.76885l-.0095-12.37366A3.103,3.103,0,0,1,310.32994,606.70662Z"/>
    </g>
    <g>
      <g>
        <path class="cls-20" d="M557.60835,405.01806c-.20944-.22593-40.93836-23.58632-40.93836-23.58632.21194-1.41421-.14346-2.64321-1.05314-3.11613-1.03261-.53675-2.45387.06031-3.56466,1.35313-10.65418-4.41015-20.62677-2.93234-48.73519,13.0485-36.429,20.71145-45.8846,32.82377-46.79579,44.45039-2.53546,1.2042-3.40448,2.70774-2.82513,4.22508.53624,1.40445,2.207,1.51733,4.53779.96039.27958-.0668.56192-.07852.82909-.13917l38.43581,22.06984c-.36623,1.62442.25295,3.79868,1.27594,4.3106,1.34436.67292,3.2672-.72176,4.12688-3.42782l.00094-.00214c16.75621-.69443,35.35112-12.92446,50.49621-22.47507,12.58582-7.93684,38.2312-18.66649,44.0018-32.2773,2.22424-.00516,4.28827-1.338,4.37255-2.746C561.85865,406.23368,559.87279,405.25783,557.60835,405.01806Z"/>
        <path class="cls-20" d="M449.33855,470.396c-.20944-.22594-40.93835-23.58633-40.93835-23.58633.21193-1.41421.54895-3.08724-.36073-3.56017-1.03261-.53675-3.14628.50435-4.25707,1.79718-14.13026-2.98345-20.62677-2.93234-48.7352,13.04849-36.429,20.71145-38.64093,29.98467-46.79579,44.45039-2.53545,1.20421-3.88726,2.01805-3.30791,3.53538.53624,1.40445,4.06576,2.13117,5.84966,1.51093L349.229,529.66174c-.36623,1.62443.25295,3.79868,1.27594,4.31061,1.34437.67291,3.2672-.72177,4.12688-3.42782l.00094-.00215C371.389,529.848,394.2048,519.64564,409.3499,510.095c12.58582-7.93684,34.01024-20.69419,39.78084-34.305,2.22424-.00516,4.39277-1.1168,4.477-2.52483C453.69335,471.83284,451.603,470.63581,449.33855,470.396Z"/>
      </g>
      <g>
        <path class="cls-26" d="M561.40586,395.20011c-.20944-.22594-40.93836-23.58632-40.93836-23.58632.21194-1.41422-.14346-2.64321-1.05314-3.11613-1.03261-.53676-2.45387.0603-3.56465,1.35313-10.65419-4.41016-20.62678-2.93234-48.7352,13.04849-36.429,20.71145-45.8846,32.82378-46.79579,44.45039-2.53546,1.20421-3.40447,2.70775-2.82513,4.22508.53625,1.40445,2.207,1.51734,4.53779.9604.27958-.06681.56192-.07852.82909-.13917l38.43581,22.06983c-.36623,1.62443.25295,3.79868,1.27594,4.31061,1.34437.67291,3.2672-.72177,4.12688-3.42782l.00094-.00215c16.75622-.69442,35.35112-12.92445,50.49622-22.47507,12.58582-7.93684,38.23119-18.66648,44.00179-32.2773,2.22424-.00515,4.28827-1.338,4.37255-2.746C565.65616,396.41572,563.6703,395.43988,561.40586,395.20011Z"/>
        <path class="cls-26" d="M453.13607,460.57808c-.20945-.22594-40.93836-23.58632-40.93836-23.58632.21193-1.41421.549-3.08725-.36073-3.56017-1.03261-.53675-3.14628.50435-4.25707,1.79717-14.13026-2.98345-20.62677-2.93234-48.7352,13.0485-36.429,20.71144-38.64093,29.98466-46.79578,44.45039-2.53546,1.2042-3.88727,2.018-3.30792,3.53538.53624,1.40444,4.06576,2.13116,5.84967,1.51092l38.4358,22.06983c-.36622,1.62443.25295,3.79869,1.27594,4.31061,1.34437.67292,3.26721-.72177,4.12688-3.42782l.00095-.00215c16.75621-.69442,39.57206-10.89674,54.71716-20.44735,12.58582-7.93684,34.01024-20.6942,39.78084-34.305,2.22424-.00515,4.39277-1.1168,4.477-2.52483C457.49086,462.01488,455.40051,460.81785,453.13607,460.57808Z"/>
      </g>
    </g>
  </g>
  <g>
    <g>
      <path class="cls-27" d="M249.30381,625.08225V708.3061a1.88191,1.88191,0,0,1-2.82248,1.63l-52.78025-30.45119a5.64575,5.64575,0,0,1-2.824-4.89V595.15664"/>
      <path class="cls-28" d="M324.236,581.93893v83.22386a1.88192,1.88192,0,0,1-2.82249,1.63L253.225,627.44571a5.64575,5.64575,0,0,1-2.824-4.89V543.11743"/>
      <g>
        <path class="cls-29" d="M188.46387,552.87083v45.362a3.78126,3.78126,0,0,0,1.88816,3.28864l55.88861,32.315a7.56336,7.56336,0,0,0,3.79208,1.00709l15.40831-81.9727Z"/>
        <path class="cls-30" d="M250.03272,552.87083v81.9727a7.5637,7.5637,0,0,0,3.79246-1.00709l71.281-41.21086a3.76436,3.76436,0,0,0,1.90411-3.28863v-45.362Z"/>
        <polygon class="cls-31" points="255.853 622.68 321.19 584.922 321.168 555.993 255.853 593.764 255.853 622.68"/>
        <path class="cls-32" d="M327.01027,535.55053v8.27781a3.75351,3.75351,0,0,1-1.89253,3.28014L253.82558,588.3236a7.57794,7.57794,0,0,1-7.58524,0l-55.884-32.31923a3.75353,3.75353,0,0,1-1.89252-3.28014v-8.27781Z"/>
        <path class="cls-33" d="M190.3564,541.16629l71.29227-41.21506a7.57765,7.57765,0,0,1,7.58516,0l55.884,32.31917a3.78882,3.78882,0,0,1,0,6.56026l-71.29227,41.21506a7.57765,7.57765,0,0,1-7.58516,0l-55.884-32.31917A3.78883,3.78883,0,0,1,190.3564,541.16629Z"/>
      </g>
    </g>
    <g>
      <g>
        <path class="cls-34" d="M231.21177,535.56586c2.8426-6.93571,13.625-12.103,26.52533-12.103s23.68274,5.16732,26.52523,12.103h.75689v3.62363c0,8.68561-12.21458,15.72666-27.28212,15.72666s-27.28222-7.04105-27.28222-15.72666v-3.62363Z"/>
        <ellipse class="cls-35" cx="257.73705" cy="535.03212" rx="27.28218" ry="15.72671"/>
      </g>
      <path class="cls-36" d="M261.31185,491.27163v40.498c0,1.13808-1.60048,2.06068-3.57479,2.06068s-3.57481-.9226-3.57481-2.06068v-40.498Z"/>
      <path class="cls-37" d="M294.42851,455.80675v33.63466c0,11.64607-16.42727,21.087-36.69148,21.087s-36.69148-9.441-36.69148-21.087V455.80675Z"/>
      <path class="cls-38" d="M294.92079,450.061v34.08593c0,11.80231-16.64767,21.37-37.18376,21.37s-37.18376-9.56764-37.18376-21.37V450.061Z"/>
      <g>
        <ellipse class="cls-12" cx="257.73705" cy="450.06107" rx="37.18377" ry="21.36998"/>
        <path class="cls-39" d="M265.75542,469.26488a36.30032,36.30032,0,0,1-16.03663,0V457.78727h16.03663Z"/>
        <ellipse class="cls-40" cx="257.73705" cy="457.78732" rx="8.01835" ry="4.62215"/>
        <path class="cls-41" d="M257.73707,430.52381c19.49262,0,35.35085,8.76434,35.35085,19.53721s-15.85823,19.53735-35.35085,19.53735-35.35086-8.76448-35.35086-19.53735,15.85823-19.53721,35.35086-19.53721m0-1.83275c-20.53594,0-37.18376,9.56769-37.18376,21.37,0,11.80241,16.64782,21.3701,37.18376,21.3701s37.18376-9.56769,37.18376-21.3701c0-11.80227-16.64783-21.37-37.18376-21.37Z"/>
      </g>
    </g>
  </g>
  <g>
    <path class="cls-42" d="M516.39663,450.47561l-30.619-36.48878a36.86685,36.86685,0,0,0-8.13136,20.48965c-1.05549,12.13427-14.16835,8.08365-17.34268,26.07646-.53309,3.02168.17984,13.06076-1.33316,17.843-2.03227,6.42347-5.96363,8.22372-7.84884,15.831-2.79288,11.26987,1.1275,21.37244,6.311,25.61732,10.75127,8.80448,19.05393,10.10875,28.85576,8.19042,10.94339-2.94169,15.09947-13.294,19.82883-25.24577,3.389-8.56459-1.7357-22.72517-3.11024-30.50657C512.32883,458.89856,516.39663,450.47561,516.39663,450.47561Z"/>
    <path class="cls-43" d="M504.5027,452.535l22.88907-36.07864s5.63508,7.29568,5.4309,23.526c-.12967,10.30741,12.00459,14.782,15.52454,26.0678,2.67663,8.58191-.11594,17.73513,2.78357,24.96032,2.40111,5.98326,7.43658,12.34131,9.01229,18.65162,2.75247,11.02293-2.66564,21.08617-9.52894,26.5307-13.33443,10.57794-25.042,10.868-34.44992,7.51438-10.38474-4.53526-6.36929-25.39037-9.27008-37.91222-2.0787-8.97312,5.09346-22.21492,7.60908-29.70566C507.27365,461.46891,504.5027,452.535,504.5027,452.535Z"/>
    <g>
      <g>
        <g>
          <g>
            <path class="cls-44" d="M401.73109,596.99038l-10.11265-5.83854c-3.9471-2.27886-3.93237-9.69374.03279-16.5616s10.37925-10.588,14.32635-8.30915l10.11264,5.83854Z"/>
            <ellipse class="cls-45" cx="408.91065" cy="584.555" rx="14.35914" ry="8.25238" transform="matrix(0.5, -0.86603, 0.86603, 0.5, -301.78415, 646.40452)"/>
          </g>
          <path class="cls-46" d="M481.69352,459.90357s-13.06684-4.94957-22.4883,12.68571c-8.398,15.71968-19.68756,59.84524-19.68756,59.84524l-24.30055,49.672c-.199,7.0183,8.13976,10.79994,13.21582,8.29618,13.73685-17.34741,23.25225-31.81276,30.97822-48.03435l5.72726-11.14334c.931-.4094,9.87044-36.75988,9.87044-36.75988Z"/>
          <path class="cls-47" d="M475.00885,494.46509l12.32734-38.948s-16.10426-1.9564-26.89535,14.76567c-7.57765,11.74247-13.82517,32.28788-13.82517,32.28788-5.55349,16.39558,18.47266,23.69365,25.35763,10.75291Z"/>
          <path class="cls-48" d="M450.91287,516.97583a16.15861,16.15861,0,0,0,12.70207,2.59911l-4.54957-33.05663Z"/>
          <path class="cls-46" d="M486.95887,785.41856s2.92858,15.52382-1.15942,18.46566c-5.66139,4.07408-10.62726,2.07252-18.35983,2.91006-7.38437.79982-15.71517,5.60668-27.09,1.5873-7.48679-2.64551-6.87832-7.8307-5.07938-9.8942.92524-1.06131,14.86777-6.19264,14.86777-6.19264l14.07279-8.03161Z"/>
          <path class="cls-46" d="M453.19186,595.205c-.37569,53.76828,16.02189,184.84793,16.02189,184.84793l-5.003,4.21017c.63494,8.44395,22.36386,11.79433,22.74809,1.15543l-.87748-5.304c.30749-15.63038,5.99134-47.633,5.522-80.95243l6.81293-69.84247Z"/>
          <path class="cls-45" d="M450.39114,598.499c-.19051,27.26593,4.94247,74.60293,4.94247,74.60293,1.32331,21.94784,39.07273,16.75074,38.82037,1.99108l3.1091-45.77336Z"/>
          <path class="cls-46" d="M532.72466,814.362s1.29726,9.08269-.03346,13.43038c-.82795,2.705-3.1217,6.29631-5.23707,11.26566-1.5618,3.66891-3.15263,8.41137-9.974,12.784-10.60642,6.799-22.16937.95238-17.7777-7.61353l5.54005-10.48882,8.46968-19.168Z"/>
          <path class="cls-46" d="M491.41374,641.00441,515.426,809.96464l-3.45974,8.51613c1.23882,10.139,20.75843-4.11874,20.75843-4.11874l-1.091-7.35745c1.65782-26.45737,7.94119-48.94567,4.42716-94.00475-.39581-39.2816-2.22405-75.53753-2.22405-75.53753Z"/>
          <path class="cls-49" d="M538.36733,633.13763c.8123-48.93059-7.77173-68.14151-7.77173-68.14151L458.8297,549.519a202.1772,202.1772,0,0,0-8.43858,48.98l33.27939,37.89238L494.40634,684.663c3.21069,20.97446,42.81461,16.56106,42.81439-2.22412C537.22073,682.4389,538.01416,654.41162,538.36733,633.13763Z"/>
          <path class="cls-50" d="M502.2872,459.03864c-16.74411-9.24188-42.188-.27347-43.22182,27.47955-3.79717,18.07469-3.51646,27.5993,2.02748,51.36444,0,0-4.85958,16.79309-9.0606,38.37525-3.08921,14.64331,9.07976,29.9844,28.83751,34.43263,30.97332,6.9733,57.55178-6.91947,56.34432-19.36715a209.48228,209.48228,0,0,0-11.068-44.48741l19.3235-53.58481C541.33447,477.61292,521.31576,469.54141,502.2872,459.03864Z"/>
          <path class="cls-48" d="M521.65841,509.825l-.02954.57422L519.613,549.519l14.64166,49.95618c2.1551-2.63054,3.22391-5.42578,2.95948-8.15179a209.49151,209.49151,0,0,0-11.068-44.48739l8.63622-23.94851Z"/>
          <path class="cls-46" d="M544.62781,497.39607c-4.75728-16.12483-22.10449-2.56561-19.83152,19.46963l6.77513,30.16783-29.91121-1.08927a65.59435,65.59435,0,0,1-2.583,15.07226s43.96835,19.70861,51.32131,7.37436C557.85845,555.8771,548.58166,510.74077,544.62781,497.39607Z"/>
          <path class="cls-51" d="M545.24631,492.47121c-4.43764-15.0414-27.22241.96308-23.12739,20.99653l3.24636,15.91832c3.30243,12.87165,28.94156,6.13751,27.17051-4.1658C552.53579,525.22026,548.9345,504.91929,545.24631,492.47121Z"/>
        </g>
        <g>
          <g>
            <path class="cls-44" d="M477.0147,557.97049l-10.05619-5.80594c-3.92507-2.26614-3.91043-9.63963.0326-16.46915s10.32131-10.52891,14.24638-8.26277l10.05619,5.80594Z"/>
            <ellipse class="cls-45" cx="484.15419" cy="545.60453" rx="14.27898" ry="8.20631" transform="translate(-230.43029 692.09209) rotate(-60)"/>
          </g>
          <path class="cls-52" d="M510.2137,553.66662l-20.04665-11.57394c-1.87852-1.08456-4.93113.686-6.81824,3.95452s-1.8941,6.79745-.01559,7.882l20.04666,11.57395Z"/>
          <path class="cls-46" d="M493.88441,540.8449c-5.26678-.45194-10.93615,4.73664-11.30775,8.20083s1.55186,10.43785,4.97536,11.97082,12.3955,3.482,12.3955,3.482l6.90575-15.57306S499.15118,541.29685,493.88441,540.8449Z"/>
          <g>
            <path class="cls-44" d="M504.65713,573.76631l-10.05619-5.80594c-3.92507-2.26614-3.91043-9.63963.0326-16.46915s10.32131-10.5289,14.24637-8.26277l10.05619,5.806Z"/>
            <path class="cls-45" d="M521.66762,553.34525l.00071-.0053.00342.02275c.0294.1532.048.314.0708.47215l.60917,4.06437-.60321-.57707a23.05994,23.05994,0,0,1-8.51175,14.7389l.80327.23443-3.95988,1.55789c-.09268.03561-.18589.07714-.27827.10945l-.052.02043.01016-.008a6.06818,6.06818,0,0,1-5.103-.209c-3.92507-2.26613-3.91035-9.63958.03268-16.4691s10.32123-10.52895,14.24629-8.26281A6.06652,6.06652,0,0,1,521.66762,553.34525Z"/>
            <ellipse class="cls-49" cx="514.93104" cy="563.20999" rx="10.59114" ry="6.08686" transform="translate(-230.28864 727.54836) rotate(-60)"/>
          </g>
        </g>
        <g>
          <path class="cls-52" d="M433.52655,591.06692,413.47989,579.493c-1.87851-1.08456-4.93113.686-6.81823,3.95453s-1.89411,6.79745-.01559,7.882l20.04665,11.57394Z"/>
          <path class="cls-46" d="M417.19725,578.24521c-4.10655-.83732-11.18091,5.71768-11.30775,8.38795-.20927,4.40557,2.001,9.79978,4.97536,11.78369s12.36846,4.21659,12.36846,4.21659l6.9328-16.30767S421.3038,579.08252,417.19725,578.24521Z"/>
          <g>
            <path class="cls-44" d="M429.52869,612.87487l-10.11264-5.83853c-3.9471-2.27886-3.93238-9.69375.03278-16.56161s10.37925-10.588,14.32635-8.30915l10.11264,5.83854Z"/>
            <path class="cls-45" d="M446.63467,592.33917l.00072-.00533.00344.02288c.02956.15406.04827.31576.0712.4748l.61258,4.08718-.60659-.58031A23.18944,23.18944,0,0,1,438.15648,611.16l.80779.23575-3.98212,1.56664c-.09319.0358-.18693.07757-.27982.11006l-.05226.02054.01021-.008a6.10225,6.10225,0,0,1-5.13159-.21013c-3.9471-2.27886-3.9323-9.69369.03286-16.56155s10.37917-10.58806,14.32627-8.3092A6.10058,6.10058,0,0,1,446.63467,592.33917Z"/>
            <ellipse class="cls-49" cx="439.86027" cy="602.25929" rx="10.65059" ry="6.12103" transform="translate(-301.64171 682.05982) rotate(-60)"/>
          </g>
        </g>
      </g>
      <g>
        <path class="cls-46" d="M521.65841,469.46091c-6.11226-3.45855-12.80038-6.79564-19.3713-10.42221a28.60435,28.60435,0,0,0-13.37483-3.49754c-7.7196,6.73633-7.45564,20.9439,2.38313,25.74254C503.57308,487.27189,519.57845,479.7704,521.65841,469.46091Z"/>
        <path class="cls-53" d="M492.32756,465.2908c-.215,2.97067.51368,5.86846,3.77493,7.15,6.61749,2.60041,14.79739-2.03544,14.86493-7.59762l.02225-14.7834-17.56405,1.54692Z"/>
      </g>
    </g>
    <g>
      <path class="cls-46" d="M519.60594,429.93393c1.94284-7.67552-4.79333-16.14408-13.88217-17.619-7.94353-1.28908-17.2076,3.94453-18.63988,12.74355a180.19818,180.19818,0,0,0-1.768,19.67873c-.14531,8.79786,2.35511,18.75411,11.31551,18.17241,9.85979-.64008,16.69865-4.97647,18.69334-13.82923Z"/>
      <path class="cls-54" d="M490.00868,410.21724c-10.92308,7.80135-10.45909,18.935-5.33585,22.305l1.49947-.17151s.6502-5.00349,3.57913-7.7126c-.50721,9.494,13.608,14.17253,17.63275,15.37563a6.708,6.708,0,0,0,3.34476,8.88926c-.09724.10157.26073,3.30882.2474,10.012,9.48338-4.2247,25.29677-21.67766,18.7044-38.17236C523.79586,406.01822,503.316,400.713,490.00868,410.21724Z"/>
      <path class="cls-46" d="M511.98286,453.407c3.23732.13735,6.15425-4.26724,6.31011-7.94079s-2.89365-6.90011-5.7457-5.3623C508.967,442.03438,508.74555,453.26968,511.98286,453.407Z"/>
    </g>
  </g>
  <g>
    <g>
      <path class="cls-55" d="M170.12625,597.76759l-58.72647,33.89235.0001-8.73024L100.91469,347.79981l58.7376-33.87381,10.474,6.04512Z"/>
      <path class="cls-56" d="M100.91939,347.79926v302.03l79.7-46v-302.04Zm10.48,6.07,58.72-33.9v277.8l-58.72,33.89Z"/>
    </g>
    <polygon class="cls-57" points="170.119 319.969 166.178 322.244 166.19 595.637 111.4 627.254 111.4 631.66 170.126 597.768 170.119 319.969"/>
  </g>
  <g>
    <g class="cls-58">
      <ellipse class="cls-59" cx="156.46338" cy="719.26221" rx="27.94426" ry="16.05992"/>
    </g>
    <g>
      <path class="cls-60" d="M156.46341,706.38444c14.34209,0,26.45877,6.34385,26.45877,13.85291,0,7.509-12.11668,13.85284-26.45877,13.85284-14.34221,0-26.45889-6.34385-26.45889-13.85284,0-7.50906,12.11668-13.85291,26.45889-13.85291m0-3.18215c-16.37029,0-29.64105,7.62682-29.64105,17.03506,0,9.40817,13.27076,17.035,29.64105,17.035,16.37017,0,29.64092-7.62682,29.64092-17.035,0-9.40824-13.27075-17.03506-29.64092-17.03506Z"/>
      <g>
        <g>
          <path class="cls-61" d="M128.51907,664.62387v43.57446c0,8.86969,12.51123,16.06,27.94434,16.06,15.43323,0,27.94433-7.19031,27.94433-16.06V664.62387Z"/>
          <ellipse class="cls-12" cx="156.46338" cy="664.62391" rx="27.94426" ry="16.05992"/>
          <path class="cls-62" d="M180.70768,672.60289c-4.82257,4.84517-13.885,8.07533-24.24871,8.07533s-19.42558-3.23016-24.24871-8.07533c3.0734-6.01166,12.76346-10.4083,24.24871-10.4083S177.63429,666.59123,180.70768,672.60289Z"/>
          <path class="cls-41" d="M156.46341,651.564c13.52112,0,24.94421,5.98072,24.94421,13.05994,0,7.07916-11.42309,13.05988-24.94421,13.05988-13.52124,0-24.94434-5.98072-24.94434-13.05988,0-7.07922,11.4231-13.05994,24.94434-13.05994m0-3c-15.43323,0-27.94434,7.19025-27.94434,16.05994,0,8.86963,12.51111,16.05988,27.94434,16.05988,15.4331,0,27.94421-7.19025,27.94421-16.05988,0-8.86969-12.51111-16.05994-27.94421-16.05994Z"/>
        </g>
        <g>
          <path class="cls-63" d="M165.04492,549.50964c10.27342-3.82416,30.20007-14.81553,24.20314-21.78945S164.33956,533.83557,165.04492,549.50964Z"/>
          <path class="cls-62" d="M154.36386,670.42754c-.57,0-1.268-.94038-1.268-2.03784,0-53.61359-4.83087-88.51462-16.70718-116.823a3.37392,3.37392,0,0,1,.15429-2.793c.44333-.69143,1.0925-.55911,1.45127.29707,12.197,29.07372,17.40146,64.77243,17.40146,119.37062C155.39572,669.53893,154.93386,670.42754,154.36386,670.42754Z"/>
          <path class="cls-62" d="M158.99156,670.42754c-.57,0-1.03186-.88861-1.03186-1.98607,0-50.49632,0-119.65471,13.174-151.057.35844-.85618,1.00794-.9872,1.45093-.29707a3.37267,3.37267,0,0,1,.15463,2.79295c-12.71581,30.31128-12.71581,98.65631-12.71581,148.56109C160.02342,669.53893,159.56156,670.42754,158.99156,670.42754Z"/>
          <path class="cls-62" d="M159.47666,616.22112c-.53193,0-.98335-.78613-1.02748-1.82392-1.71134-40.383-6.25718-67.83-14.30621-86.37535a3.38493,3.38493,0,0,1,.13-2.79814c.43794-.7044,1.08846-.58895,1.4533.25037,8.33572,19.20562,13.0318,47.35959,14.77986,88.59881.04616,1.09358-.37663,2.05353-.9446,2.14174A.47265.47265,0,0,1,159.47666,616.22112Z"/>
        </g>
        <path class="cls-62" d="M158.99256,631.93205a.5231.5231,0,0,1-.07445-.00477c-.56865-.07149-.79916-.97985-.7584-1.98439,1.28418-31.77955,9.09446-65.2926,21.9147-67.92371.56326-.11678,1.078.60058,1.1437,1.60155.0657,1.00216-.33991,1.90779-.90586,2.02338-11.70518,2.40233-19.068,34.313-20.29154,64.59344C159.982,631.1992,159.52887,631.93205,158.99256,631.93205Z"/>
        <path class="cls-64" d="M165.90137,584.32969c10.16466,2.53689,31.575,2.65047,30.61628-6.08738S173.815,571.59314,165.90137,584.32969Z"/>
        <path class="cls-65" d="M169.6532,577.77324c17.08454-4.57708,48.78844-21.93977,40.21852-34.05555S170.90869,552.4891,169.6532,577.77324Z"/>
        <path class="cls-66" d="M157.53584,590.04184c13.111-5.7497,36.35769-23.516,28.02017-32.16342S155.45129,569.65727,157.53584,590.04184Z"/>
        <path class="cls-67" d="M153.73332,555.32035c-12.41352-9.28868-32.56114-33.74366-21.641-40.81312S160.94546,534.33427,153.73332,555.32035Z"/>
        <path class="cls-68" d="M148.1,585.2726c-17.297-4.81082-49.3095-22.74048-40.49385-34.95552S147.06979,559.59651,148.1,585.2726Z"/>
        <path class="cls-69" d="M141.10484,561.08914c-9.49519-5.478-27.31851-19.62761-20.24616-25.50814S144.40479,545.75016,141.10484,561.08914Z"/>
        <path class="cls-70" d="M160.28368,545.00805c12.14387-10.83615,31.84358-35.50284,19.59866-41.78006S150.52422,523.936,160.28368,545.00805Z"/>
        <path class="cls-71" d="M155.73952,568.33859c9.36165-8.86212,23.65647-30.992,13.95945-35.78344S147.7703,551.69763,155.73952,568.33859Z"/>
        <path class="cls-72" d="M157.28289,580.75812c-10.57166-5.39906-28.94631-21.2392-21.62312-27.98995S160.00323,563.9871,157.28289,580.75812Z"/>
      </g>
      <rect class="cls-73" x="166.46084" y="700.5177" width="37.57777" height="2.00007" transform="translate(-523.88137 855.06801) rotate(-87.42538)"/>
      <rect class="cls-74" x="126.59735" y="682.72885" width="2.00007" height="37.57777" transform="translate(-31.30191 6.42117) rotate(-2.56788)"/>
      <rect class="cls-75" x="155.4675" y="698.97428" width="2" height="37.27637"/>
      <path class="cls-76" d="M184.40769,673.7136v7.77a3.429,3.429,0,0,1,0,.74c-.38,7.78-13.02,14.28-27.94,14.28-14.92,0-27.57006-6.5-27.95007-14.28a3.44956,3.44956,0,0,1,0-.74v-7.76a11.4797,11.4797,0,0,0,0,16.27c5.16,5.86,15.74011,9.87,27.95007,9.87,12.2,0,22.77-4.01,27.94-9.86a11.47976,11.47976,0,0,0,0-16.29Z"/>
    </g>
  </g>
  <g>
    <g>
      <polygon class="cls-77" points="371.696 223.815 371.657 314.517 448.937 269.763 448.976 179.061 371.696 223.815"/>
      <polygon class="cls-78" points="375.003 221.906 374.972 300.534 438.525 263.706 438.556 185.077 375.003 221.906"/>
      <polygon class="cls-79" points="386.359 230.563 386.338 283.867 429.423 258.9 429.443 205.595 386.359 230.563"/>
      <path class="cls-80" d="M375.99415,307.01047l.03219-80.69348,68.61233-39.74952-.03221,80.6935-68.61231,39.7495m-4.33729,7.5063,77.27986-44.75371.03924-90.70189L371.69608,223.8149l-.03922,90.70187Z"/>
      <polygon class="cls-81" points="444.085 176.23 366.805 220.984 371.696 223.815 448.976 179.061 444.085 176.23"/>
      <polygon class="cls-82" points="366.805 220.984 366.783 311.695 371.657 314.517 371.696 223.815 366.805 220.984"/>
    </g>
    <g>
      <polygon class="cls-83" points="306.447 294.452 306.408 353.154 359.439 322.4 359.479 263.698 306.447 294.452"/>
      <polygon class="cls-84" points="309.754 292.543 309.723 339.171 349.028 316.343 349.058 269.714 309.754 292.543"/>
      <path class="cls-85" d="M310.74549,345.64754l.03219-48.69348,44.36362-25.74952-.03221,48.69349-44.3636,25.74951m-4.33729,7.5063,53.03114-30.75371.03924-58.70189L306.44742,294.452l-.03922,58.70187Z"/>
      <polygon class="cls-86" points="354.588 260.867 301.557 291.621 306.447 294.452 359.479 263.698 354.588 260.867"/>
      <polygon class="cls-87" points="301.557 291.621 301.534 350.332 306.408 353.154 306.447 294.452 301.557 291.621"/>
    </g>
  </g>
</svg>
