<svg id="Layer_1" data-name="Layer 1" xmlns="http://www.w3.org/2000/svg" xmlns:xlink="http://www.w3.org/1999/xlink" viewBox="0 0 1000 1000">
  <defs>
    <style>
      .cls-1 {
        fill: url(#linear-gradient);
      }

      .cls-2 {
        fill: #fff;
      }

      .cls-3 {
        fill: #b8cbd8;
      }

      .cls-4 {
        fill: #9bb0c4;
      }

      .cls-5 {
        fill: #e2e2e2;
      }

      .cls-6 {
        fill: url(#linear-gradient-2);
      }

      .cls-7 {
        fill: #5a9137;
      }

      .cls-8 {
        fill: url(#linear-gradient-3);
      }

      .cls-9 {
        fill: url(#linear-gradient-4);
      }

      .cls-10 {
        opacity: 0.7;
      }

      .cls-11 {
        fill: #6b483c;
      }

      .cls-12 {
        fill: url(#linear-gradient-5);
      }

      .cls-13 {
        fill: #366d26;
      }

      .cls-14 {
        fill: url(#linear-gradient-6);
      }

      .cls-15 {
        fill: #c7d8e2;
      }

      .cls-16 {
        fill: url(#linear-gradient-7);
      }

      .cls-17 {
        fill: url(#linear-gradient-8);
      }

      .cls-18 {
        fill: url(#linear-gradient-9);
      }

      .cls-19 {
        fill: url(#linear-gradient-10);
      }

      .cls-20 {
        fill: #f49b25;
      }

      .cls-21 {
        fill: #27343d;
      }

      .cls-22 {
        fill: #e2786d;
      }

      .cls-23 {
        fill: #cddce8;
      }

      .cls-24 {
        fill: #ef8e73;
      }

      .cls-25 {
        fill: #303d49;
      }

      .cls-26 {
        fill: url(#linear-gradient-11);
      }

      .cls-27 {
        fill: #dd7b19;
        opacity: 0.5;
      }

      .cls-28 {
        fill: url(#linear-gradient-12);
      }

      .cls-29 {
        fill: url(#linear-gradient-13);
      }

      .cls-30 {
        fill: url(#linear-gradient-14);
      }
    </style>
    <linearGradient id="linear-gradient" x1="79.31392" y1="441.39641" x2="920.68608" y2="441.39641" gradientUnits="userSpaceOnUse">
      <stop offset="0" stop-color="#e6f4ff"/>
      <stop offset="1" stop-color="#c0e3ff"/>
    </linearGradient>
    <linearGradient id="linear-gradient-2" x1="79.31396" y1="770.26147" x2="559.1647" y2="770.26147" gradientUnits="userSpaceOnUse">
      <stop offset="0.00005" stop-color="#9dcc52"/>
      <stop offset="1" stop-color="#649e3f"/>
    </linearGradient>
    <linearGradient id="linear-gradient-3" x1="384.50003" y1="559.97449" x2="920.68049" y2="559.97449" xlink:href="#linear-gradient-2"/>
    <linearGradient id="linear-gradient-4" x1="477.11537" y1="385.48495" x2="583.83877" y2="480.97432" gradientUnits="userSpaceOnUse">
      <stop offset="0" stop-color="#67a63f"/>
      <stop offset="0.99995" stop-color="#366d26"/>
    </linearGradient>
    <linearGradient id="linear-gradient-5" x1="653.27508" y1="344.82613" x2="653.27508" y2="552.05655" gradientUnits="userSpaceOnUse">
      <stop offset="0" stop-color="#77bf49"/>
      <stop offset="0.99995" stop-color="#366d26"/>
    </linearGradient>
    <linearGradient id="linear-gradient-6" x1="690.96483" y1="263.34613" x2="839.27943" y2="603.10228" xlink:href="#linear-gradient-5"/>
    <linearGradient id="linear-gradient-7" x1="96.51242" y1="485.41104" x2="157.42514" y2="657.99707" xlink:href="#linear-gradient-4"/>
    <linearGradient id="linear-gradient-8" x1="171.5946" y1="566.98212" x2="221.30328" y2="683.47113" xlink:href="#linear-gradient-4"/>
    <linearGradient id="linear-gradient-9" x1="-213.52612" y1="307.52448" x2="-154.5474" y2="437.73724" gradientTransform="matrix(-1, 0, 0, 1, 297.98867, 0)" gradientUnits="userSpaceOnUse">
      <stop offset="0" stop-color="#75413e"/>
      <stop offset="1" stop-color="#592f2f"/>
    </linearGradient>
    <linearGradient id="linear-gradient-10" x1="-179.1706" y1="291.96345" x2="-120.19187" y2="422.17621" xlink:href="#linear-gradient-9"/>
    <linearGradient id="linear-gradient-11" x1="-214.98876" y1="346.9159" x2="-141.79728" y2="502.49037" gradientTransform="matrix(-1, 0, 0, 1, 297.98867, 0)" gradientUnits="userSpaceOnUse">
      <stop offset="0.00005" stop-color="#ffcb48"/>
      <stop offset="1" stop-color="#e68e2b"/>
    </linearGradient>
    <linearGradient id="linear-gradient-12" x1="-210.54096" y1="344.82339" x2="-137.34947" y2="500.39786" xlink:href="#linear-gradient-11"/>
    <linearGradient id="linear-gradient-13" x1="-165.89031" y1="323.81707" x2="-92.69882" y2="479.39154" xlink:href="#linear-gradient-11"/>
    <linearGradient id="linear-gradient-14" x1="-177.5973" y1="291.25084" x2="-118.61858" y2="421.4636" xlink:href="#linear-gradient-9"/>
  </defs>
  <path class="cls-1" d="M79.34318,533.236S76.916,443.92217,116.27249,405.64761s101.191-29.83447,150.323-53.496,68.673-70.454,112.94076-112.54121,137.15895-27.051,188.88842,3.59733,84.58457,73.86257,134.86125,101.30244,124.53069,34.14995,152.89691,43.40629,64.50324,29.24172,64.50324,69.11385V669.09677l-841.3429-3.677Z"/>
  <path class="cls-2" d="M499.99369,401.87712q-26.90507-15.31456-58.96574,7.999c-11.73914-9.70807-38.27649-9.70807-52.067,12.54084,0,0-18.472-23.67363-44.546-22.29784-47.74468,2.51923-50.10769,50.70423-50.10769,50.70423-24.10507-29.02591-73.29656-18.48287-76.4429,33.81254-26.17335-17.23561-62.726.64076-54.447,42.58664-31.59818-21.86078-84.07415,20.18178-84.1034,74.82007l0,63.3772,167.73987-64.14649Z"/>
  <path class="cls-3" d="M86.57347,678.91934l391.659,226.11445a43.5559,43.5559,0,0,0,43.55553-.00064l391.63891-226.118a14.51862,14.51862,0,0,0,.00018-25.14675L521.771,427.63328a43.55584,43.55584,0,0,0-43.55859.00055L86.57262,653.77256A14.51862,14.51862,0,0,0,86.57347,678.91934Z"/>
  <ellipse class="cls-4" cx="458.80581" cy="684.88278" rx="92.12777" ry="52.947"/>
  <g>
    <polygon class="cls-5" points="559.165 868.935 123.25 617.445 123.25 631.964 559.165 883.453 570.063 877.163 570.063 862.644 559.165 868.935"/>
    <polygon class="cls-2" points="570.063 862.644 559.163 868.934 123.254 617.446 133.484 611.566 570.063 862.644"/>
  </g>
  <path class="cls-6" d="M551.92221,874.22151l-423.58-244.56738-41.76953,24.1184a14.51858,14.51858,0,0,0,.00074,25.14673l391.659,226.1145a43.5558,43.5558,0,0,0,43.55554-.00048L559.1647,883.4532A15.50058,15.50058,0,0,0,551.92221,874.22151Z"/>
  <path class="cls-7" d="M913.42319,678.91267l-93.24,53.82983-1.21.63013v-13.54l81.03-73.81006,13.42,7.75A14.512,14.512,0,0,1,913.42319,678.91267Z"/>
  <polygon class="cls-7" points="920.682 666.333 920.682 622.043 894.628 646.023 920.682 666.333"/>
  <path class="cls-8" d="M913.40543,637.08311c-39.10744,32.01809-52.21968,54.48808-94.43268,82.7468L384.5,472.3404c35.22093-19.67513,67.27608-55.42024,101.68335-71.11658a12.18854,12.18854,0,0,1,10.15749.00754C589.04,443.85085,788.63223,518.13452,912.65258,608.12793,922.35793,615.17047,924.03191,628.383,913.40543,637.08311Z"/>
  <g>
    <polygon class="cls-5" points="808.074 725.141 372.16 473.652 372.16 488.17 808.074 739.66 818.973 733.369 818.973 718.851 808.074 725.141"/>
    <polygon class="cls-2" points="818.973 718.851 808.073 725.141 372.163 473.652 382.393 467.772 818.973 718.851"/>
  </g>
  <path class="cls-9" d="M593.20083,469.8238c-4.68427,6.08955-14.7443,9.12318-31.16155,4.12662-9.45776,7.85173-35.1352,7.1096-39.97243-7.7625-8.1194,3.30129-20.52156-5.5319-17.07527-11.78567-14.867,4.12905-27.26915-7.6652-23.21768-16.8447-24.4838-11.43129-9.76181-33.78195,3.17569-32.1313-1.42534-13.78057,11.01919-20.92307,21.19075-13.22748,6.82564-11.71068,28.10561-8.03018,28.00835,7.65782,17.98671-10.49069,39.40051,6.105,30.237,29.03439,8.94042-8.18509,20.18267,1.04961,16.82691,11.10287C596.45909,442.89754,597.8851,463.73425,593.20083,469.8238Z"/>
  <g class="cls-10">
    <ellipse class="cls-7" cx="653.27508" cy="582.38767" rx="36.44972" ry="20.94811"/>
  </g>
  <g class="cls-10">
    <ellipse class="cls-7" cx="787.06487" cy="656.24295" rx="48.80084" ry="28.04646"/>
  </g>
  <g>
    <path class="cls-11" d="M659.44335,581.83806V506.72164h-12.3367V581.862h.00563a3.10682,3.10682,0,0,0,1.8153,2.49111,9.64337,9.64337,0,0,0,8.725.01568A3.02657,3.02657,0,0,0,659.44335,581.83806Z"/>
    <path class="cls-12" d="M600.29873,481.59088c0-7.63482,2.4907-14.4736,6.43071-19.14836a37.158,37.158,0,0,1-2.77652-10.67662c-1.16349-10.43154,1.9801-20.00572,7.594-25.70119-.59184-6.63456,1.53105-12.63629,5.61385-15.8413a33.7004,33.7004,0,0,1-.34688-4.81769c0-13.065,7.30838-23.84356,16.719-25.31344-.02043-.42861-.04087-.83692-.04087-1.26566,0-17.94388,8.47212-32.47866,18.90341-32.47866,9.16588,0,16.8007,11.20728,18.53609,26.04832,3.77655,1.87806,6.7163,6.757,7.71657,12.88125,5.30759,3.59276,10.064,10.207,12.65659,18.4951,2.24574,7.22652,2.42915,14.351.91853,20.02615,3.61333,2.61293,6.08334,7.77774,6.08334,13.69773a19.33441,19.33441,0,0,1-2.30654,9.30879v.02044c8.3084,4.59315,12.37077,17.49483,9.14544,31.09052a38.54986,38.54986,0,0,1-6.20594,13.73872c5.16481,6.83865,6.10377,18.02562,1.65365,28.70212a33.61873,33.61873,0,0,1-13.12632,15.882c-4.69508,8.18605-10.69693,13.3916-17.49471,16.33122-4.75663,7.839-12.43233,12.28929-19.72,10.55415-4.75638-1.12288-8.431-4.69533-10.65631-9.53344a34.05523,34.05523,0,0,1-13.63643-8.65553c-8.18605-3.6745-15.47374-12.1055-18.94428-23.23117a40.67273,40.67273,0,0,1-.9594-21.80217A30.31015,30.31015,0,0,1,600.29873,481.59088Z"/>
    <path class="cls-13" d="M705.14492,477.91889a38.43536,38.43536,0,0,1-6.202,13.73637c5.16838,6.84534,6.11026,18.032,1.65381,28.69041a33.55712,33.55712,0,0,1-13.13912,15.89562c-4.68609,8.17753-10.6811,13.3919-17.48059,16.33206-4.75479,7.83306-12.42718,12.28936-19.73167,10.54357-4.75508-1.12553-8.43032-4.68609-10.6584-9.53285a33.79267,33.79267,0,0,1-13.62169-8.66c17.36423,2.78812,27.64156-3.35656,28.162-21.79908,6.68992,3.85669,14.021-2.20364,9.81783-10.51216,14.36884.782,19.74494-17.9855,10.41941-27.45818,15.77685-3.62545,18.70927-24.15237,5.03028-30.23186,9.889-4.94862,14.60759-15.52265,12.81793-31.12267,3.62925,2.61868,6.087,7.78707,6.087,13.69053a19.45118,19.45118,0,0,1-2.29706,9.32606c6.3859,3.51443,10.24508,11.94474,10.24508,21.82207A39.93115,39.93115,0,0,1,705.14492,477.91889Z"/>
  </g>
  <g>
    <path class="cls-11" d="M800.66391,653.55635V487.9488H773.46547V653.60911h.01241c.04078,1.98688,1.36892,3.97111,4.00214,5.49208,5.32851,3.07609,13.941,3.0916,19.23583.03458C799.37744,657.59884,800.68962,655.57737,800.66391,653.55635Z"/>
    <path class="cls-14" d="M874.232,425.54886a135.09382,135.09382,0,0,0,.29468-18.03176c-1.695-32.88573-14.58838-59.79624-30.4034-66.415.143-.55281.3599-1.07026.46834-1.63761,2.46427-12.836-4.927-24.43092-16.50888-25.89761-.09822-.01218-.19409.00668-.29153-.00432C823.4127,280.7141,806.86375,263.012,787.06473,263.012c-19.38726,0-35.65175,16.98311-40.43256,48.52906-17.257,9.19739-32.36082,36.69529-36.91689,70.79116-.61135,4.57257-.96025,9.05949-1.15591,13.47254A25.9048,25.9048,0,0,0,693.582,414.77083a23.85639,23.85639,0,0,0,2.036,15.327c-7.41323,8.84025-12.06046,21.30579-12.06046,35.16023a59.4614,59.4614,0,0,0,2.39984,16.70533c-7.71027,11.33242-10.9737,27.29162-7.77078,44.29791,3.7907,20.12788,15.69321,36.62183,30.31617,44.69317,9.21193,16.44916,22.06448,25.84183,37.22728,30.9511,9.63234,15.38007,24.54761,25.29216,41.33466,25.29216s31.70311-9.91209,41.33623-25.29216c15.1188-5.09513,27.94463-14.44812,37.15106-30.812,12.36457-4.77413,22.50846-16.56663,25.34834-31.35618a38.66714,38.66714,0,0,0-3.93685-26.34316A70.55453,70.55453,0,0,0,898.213,486.63814C903.1612,460.86311,892.923,437.04355,874.232,425.54886Z"/>
    <path class="cls-13" d="M898.20045,486.65936a69.31407,69.31407,0,0,1-11.26523,26.71446,38.65924,38.65924,0,0,1,3.99029,26.39306c-2.89646,14.74122-13.00342,26.52154-25.36249,31.3495-9.20486,16.35053-22.015,25.68466-37.1432,30.77-9.65591,15.38518-24.59083,25.29844-41.3268,25.29844-16.802,0-31.73611-9.91326-41.392-25.29844-15.12744-5.08531-28.002-14.48387-37.20764-30.96328,38.21976,10.25458,63.52408-6.35221,64.95188-46.60581,30.52366,16.31926,65.30722-8.33414,57.09939-44.35292,27.65662-8.35732,33.95693-49.72024,9.84922-68.87892,20.81113-16.02482,26.98448-46.72121,3.73255-69.97314,15.83623,6.63058,28.71078,33.53834,30.38453,66.43272a139.494,139.494,0,0,1-.25774,18.02429C892.92144,437.02783,903.15728,460.84583,898.20045,486.65936Z"/>
  </g>
  <path class="cls-15" d="M472.80336,553.66961,416.429,519.68538l-3.17153,4.33914a3.9723,3.9723,0,0,0-.0921,4.55078l7.022,12.48948c1.69557,3.01576,6.44963,5.97286,12.74343,7.9266l13.73849,4.26475c7.06242,2.19234,15.00358,2.79543,20.71487,1.57319Z"/>
  <path class="cls-15" d="M407.35088,516.36356l.66553-1.11469-27.3762-16.71217-1.7073.09578c-3.45582.19387-5.29744,1.54521-4.45111,3.26614l2.52048,5.12516a6.31454,6.31454,0,0,0,2.97392,2.44841l14.147,6.85968C398.90738,518.65166,405.97466,518.66859,407.35088,516.36356Z"/>
  <path class="cls-15" d="M566.67785,857.80477l-53.97046-31.83584,7.90891-4.25864a15.7209,15.7209,0,0,1,7.97719-1.87036l21.17905.70628a15.72078,15.72078,0,0,1,12.62807,7.1l6.11869,9.34424a15.72077,15.72077,0,0,1,.72111,16.00663Z"/>
  <path class="cls-15" d="M507.78223,819.99328l-2.01709.97424-26.57467-15.37747.3353-1.40825a6.32783,6.32783,0,0,1,6.15576-4.86218H494.408a6.32782,6.32782,0,0,1,3.99509,1.42062l10.62217,8.64779A6.32785,6.32785,0,0,1,507.78223,819.99328Z"/>
  <g>
    <g class="cls-10">
      <ellipse class="cls-7" cx="133.62126" cy="665.41639" rx="37.56125" ry="21.58693"/>
    </g>
    <g>
      <path class="cls-11" d="M138.68671,665.78671V582.26064H124.96886v83.55268h.00626a3.45464,3.45464,0,0,0,2.01853,2.77,10.723,10.723,0,0,0,9.70181.01744A3.3654,3.3654,0,0,0,138.68671,665.78671Z"/>
      <path class="cls-16" d="M175.79161,552.76126a68.13656,68.13656,0,0,0,.14862-9.09453c-.85488-16.5863-7.35782-30.15892-15.3343-33.49719.07213-.27881.18152-.53979.23621-.82594,1.24288-6.474-2.485-12.322-8.32644-13.06176-.04954-.00615-.09789.00337-.147-.00218-2.20833-16.56748-10.555-25.49574-20.54085-25.49574-9.77819,0-17.98137,8.56562-20.39263,24.47619-8.70374,4.63881-16.32155,18.50769-18.61945,35.70433-.30835,2.30623-.48432,4.56926-.583,6.795a13.0654,13.0654,0,0,0-7.554,9.56576,12.03221,12.03221,0,0,0,1.02688,7.73036,27.64921,27.64921,0,0,0-6.08283,17.73347,29.99017,29.99017,0,0,0,1.21038,8.42553c-3.88876,5.71563-5.53471,13.76484-3.91928,22.34216,1.91189,10.15172,7.91506,18.47063,15.29031,22.54151a32.59716,32.59716,0,0,0,18.776,15.61054c4.85818,7.75712,12.38087,12.75639,20.84761,12.75639s15.98983-4.99927,20.8484-12.75639a32.59057,32.59057,0,0,0,18.73757-15.54039,21.22167,21.22167,0,0,0,12.78472-15.81485,19.50218,19.50218,0,0,0-1.9856-13.28648,35.58485,35.58485,0,0,0,5.67382-13.49474C190.3824,570.5724,185.21865,558.55873,175.79161,552.76126Z"/>
      <path class="cls-13" d="M187.88038,583.583a34.95916,34.95916,0,0,1-5.68175,13.47374,19.49817,19.49817,0,0,1,2.01255,13.31164,21.37967,21.37967,0,0,1-12.79186,15.81148,32.53427,32.53427,0,0,1-18.7336,15.51919c-4.87007,7.75969-12.40266,12.75956-20.84364,12.75956-8.47427,0-16.00647-4.99987-20.87655-12.75956a32.53262,32.53262,0,0,1-18.76609-15.61668c19.27657,5.172,32.0391-3.20382,32.75922-23.50618,15.395,8.23081,32.93845-4.20342,28.79873-22.3699,13.94894-4.21512,17.12657-25.077,4.96757-34.73988,10.49633-8.0823,13.60993-23.56437,1.88255-35.29175,7.98719,3.34421,14.48062,16.91544,15.32479,33.5061a70.35554,70.35554,0,0,1-.13,9.09076C185.21786,558.55081,190.38042,570.56368,187.88038,583.583Z"/>
    </g>
  </g>
  <g>
    <g class="cls-10">
      <ellipse class="cls-7" cx="203.58065" cy="712.05124" rx="30.64667" ry="17.61303"/>
    </g>
    <g>
      <path class="cls-11" d="M207.8965,711.31992V664.11659h-8.63181V711.335h.00394c.01294.56632.43444,1.13189,1.27013,1.56542a7.43413,7.43413,0,0,0,6.10476.00985C207.48822,712.47216,207.90466,711.896,207.8965,711.31992Z"/>
      <path class="cls-17" d="M166.51384,647.0335a17.586,17.586,0,0,1,4.49949-12.03288,21.47826,21.47826,0,0,1-1.9427-6.70922c-.81408-6.5552,1.38545-12.57164,5.31338-16.15068-.4141-4.16918,1.07126-7.94068,3.92794-9.95472a19.06088,19.06088,0,0,1-.24271-3.02744c0-8.21009,5.11357-14.98335,11.698-15.907-.0143-.26935-.0286-.52593-.0286-.79535,0-11.276,5.92783-20.40966,13.22645-20.40966,6.41324,0,11.75522,7.04268,12.96944,16.36882,2.6424,1.18017,4.6993,4.24614,5.39917,8.0946a22.11289,22.11289,0,0,1,8.85564,11.62237,20.95086,20.95086,0,0,1,.64269,12.58448,10.21209,10.21209,0,0,1,4.25642,8.60769,11.18149,11.18149,0,0,1-1.61385,5.84967v.01284c5.81327,2.88635,8.65565,10.99379,6.39894,19.53735a23.14051,23.14051,0,0,1-4.34222,8.63345c3.61375,4.29742,4.27073,11.32734,1.157,18.03648a21.85441,21.85441,0,0,1-9.1843,9.98031,25.09991,25.09991,0,0,1-12.2408,10.26258c-3.32815,4.92607-8.69872,7.72261-13.79782,6.63225a10.9593,10.9593,0,0,1-7.45607-5.99084,24.32837,24.32837,0,0,1-9.54122-5.43915c-5.72766-2.30907-10.82676-7.60713-13.255-14.59853a23.06867,23.06867,0,0,1-.67128-13.70053A17.76507,17.76507,0,0,1,166.51384,647.0335Z"/>
      <path class="cls-13" d="M239.87324,644.726a23.07079,23.07079,0,0,1-4.33942,8.632c3.61625,4.30162,4.27527,11.33135,1.15716,18.02911a21.81532,21.81532,0,0,1-9.19326,9.98885,25.07831,25.07831,0,0,1-12.23093,10.26311c-3.32686,4.92231-8.69512,7.72266-13.806,6.6256a10.95735,10.95735,0,0,1-7.45753-5.99047,24.13656,24.13656,0,0,1-9.5309-5.44194c12.1495,1.75206,19.3404-2.10927,19.70454-13.69859,4.68084,2.42355,9.81027-1.38478,6.86939-6.60587,10.05368.4914,13.81526-11.30213,7.29032-17.25478,11.03884-2.27824,13.09061-15.17741,3.51961-18.99778,6.91917-3.10972,10.22073-9.75447,8.96853-19.55756a10.19608,10.19608,0,0,1,4.259,8.60316,11.24609,11.24609,0,0,1-1.60722,5.86052c4.46812,2.20848,7.16834,7.50611,7.16834,13.71305A22.66564,22.66564,0,0,1,239.87324,644.726Z"/>
    </g>
  </g>
  <g>
    <path class="cls-18" d="M451.736,341.15131l33.07521-33.94749a36.68322,36.68322,0,0,1,6.55655,20.93147c.15189,12.11846,13.46241,9.06677,15.28446,27.15488.306,3.03769-1.14227,12.94663.00615,17.80355,1.54256,6.52383,5.31072,8.60029,6.62,16.2879,1.93966,11.38894-2.696,21.12419-8.15266,24.95378-11.318,7.94311-19.65276,8.62461-29.23733,5.99778-10.64181-3.72654-14.00185-14.30561-17.81272-26.51407-2.73086-8.74854,3.39929-22.42159,5.33744-30.04147C455.15076,349.8094,451.736,341.15131,451.736,341.15131Z"/>
    <path class="cls-19" d="M463.38605,344.0725l-20.04991-37.48912s-6.12994,6.8235-7.125,22.94354c-.632,10.23737-13.00272,13.782-17.32831,24.72086-3.28926,8.31812-1.19371,17.60674-4.604,24.56216-2.82411,5.75987-9.66059,11.11518-11.6898,17.26048-3.54464,10.7347.78032,19.39338,5.77111,23.813,10.71313,9.48713,22.96221,9.35727,32.545,6.72381,10.63923-3.7339,12.37532-17.6515,16.17775-29.86259,2.72481-8.75043-3.41479-22.41924-5.35821-30.03777C459.97723,352.73294,463.38605,344.0725,463.38605,344.0725Z"/>
    <g>
      <g>
        <path class="cls-20" d="M428.302,607.58194c-4.79575.56792-12.41768,5.95157-13.49834,9.87424-1.374,4.98746.51327,9.84457,3.46457,16.23214,2.75441,5.96143,2.55319,16.95745,10.59575,24.2766,6.86143,6.24426,17.4468,5.82978,18.18709-3.54086l-5.5363-11.39531L439.3233,623.7096S434.77011,606.816,428.302,607.58194Z"/>
        <path class="cls-21" d="M431.97038,605.45428c-4.79576.56792-12.41769,5.95157-13.49835,9.87424-1.374,4.98746-.17636,9.73818,2.77494,16.12576,2.75441,5.96143,2.20276,17.50272,10.85107,24.44681,7.234,5.80851,16.14431,2.74468,14.99538-3.89362l-1.91028-11.10638-2.19149-19.31915S438.43846,604.68832,431.97038,605.45428Z"/>
        <path class="cls-22" d="M511.75761,484.83726s12.01628,59.2628,13.33637,73.97872c1.39711,15.57447-3.55015,29.234-18.51063,34.59574l-63.97467,25.06383-1.51064,4.36171c-3.38424,1.29791-10.086-2.10285-10.086-2.10285s-3.28635-11.52481.91577-13.4929l4.51064-1.51064c14.966-9.32229,21.48006-18.7177,37.2766-30.19149L462.55592,501.6112Z"/>
        <path class="cls-23" d="M431.01209,620.73446s6.70178,3.40063,10.08594,2.10278l1.21326-3.50317-3.196-2.20958c-4.21276-3.15957-5.91161-7.93688-4.29457-10.85185l-2.89283.9689C427.72572,609.20955,431.01209,620.73446,431.01209,620.73446Z"/>
        <path class="cls-20" d="M434.43955,633.05106c1.3081,3.36093,8.7112,3.66393,8.76174.18179l.324-13.6564c.0979-4.88317-13.77943-4.11259-12.46979,1.3991Z"/>
        <path class="cls-21" d="M513.477,481.58178c3.72085,16.10694,7.66209,38.50422,10.17018,58.34058,2.8013,18.383-36.14239,29.59768-43.87234,9.95745L462.55592,501.6112Z"/>
        <path class="cls-20" d="M455.14059,691.53026c-3.39085,5.127-6.95745,14.2766-3.89362,19.766,1.72824,3.09643,8.31527,6.02657,11.64894,8.09575s8.39362,8.45744,20.32979,10.117c10.14063,1.40992,18.40425-4.93617,13.86751-12.79886l-12.58027-9.96464-11.89775-15.34637S459.219,685.36363,455.14059,691.53026Z"/>
        <path class="cls-21" d="M455.14059,687.65792c-3.39085,5.127-5.68238,16.26751-3.19356,19.79422,2.04462,2.89727,7.61521,5.99831,10.94888,8.06748s8.39362,8.45745,20.32979,10.117c10.14063,1.40992,17.94254-5.37186,12.19149-11.65958l-10.90425-11.10392-11.89775-15.34637S459.219,681.49129,455.14059,687.65792Z"/>
        <path class="cls-24" d="M431.642,517.51328l24.51577,78.06866c-2.617,32.10649,2.11044,65.076,1.66361,86.65038l-1.1726,5.7825c-.75122,3.0364,7.40666,8.6431,7.40666,8.6431s10.19456,1.48213,10.89362-5.02127l-2.383-7.48937,16.5125-75.54407c2.17192-9.56253,3.50473-18.383,1.1643-30.88456l-11.09468-78.41709Z"/>
        <path class="cls-23" d="M456.64881,688.01479c-.75122,3.03638,7.40662,8.64307,7.40662,8.64307S474.25,698.14,474.9491,691.63662l-2.38293-7.4895c-.48853,4.24333-14.23148,4.93091-15.25278.59042Z"/>
        <path class="cls-20" d="M473.13136,704.41354c2.90425,2.13829,10.28583-.89392,8.4642-3.862l-6.923-11.93617c-2.53174-4.17676-15.68422,3.81146-11.62715,7.76547Z"/>
        <path class="cls-25" d="M484.37767,512.85853,513.477,481.58194c-1.93471-8.27727-6.213-16.41045-9.57446-30.17022l-74.59312,14.98439c-4.24865,19.60694-3.412,33.82412,1.28105,53.61136s16.60371,50.36335,16.60371,50.36335c5.31145,13.58089,43.498,6.82814,41.88448-7.981Z"/>
        <path class="cls-24" d="M509.328,372.05l22.43377,51.4838,17.05964,3.32483,4.25532,10.17021s-18.3232,5.2758-26.79129,4.851c-8.30728-.41679-11.06055-4.31783-14.52233-11.74468l-16.72893-37.5318Z"/>
        <path class="cls-26" d="M508.71809,368.433c5.17135,9.48081,10.29535,23.57164,10.29535,23.57164,4.55319,11.0948-18.6661,24.53289-24.84713,11.12518l-4.67675-7.7719-8.79186-43.94658A32.1663,32.1663,0,0,1,508.71809,368.433Z"/>
        <path class="cls-27" d="M505.60462,408.484V379.88241l9.42957,23.81738A19.82737,19.82737,0,0,1,505.60462,408.484Z"/>
        <path class="cls-28" d="M471.38,352.37583c20.14664-4.879,33.20339,9.24866,34.22466,27.50658,6.1773,27.40164,2.21277,42.52931-2.7234,62.31655l8.34042,28.02127c3.25127,16.06383-8.18845,31.31915-32.97163,36.51064-22.85454,4.78749-52.78718-7.798-51.69624-22.98385,1.29731-19.56934,6.41425-27.87024,9.26362-41.35657a267.10679,267.10679,0,0,1-9.84126-65.28937C437.99469,364.34789,456.6147,355.95159,471.38,352.37583Z"/>
        <path class="cls-27" d="M433.78834,434.70809c-1.51929-6.11816-2.80713-12.24292-3.86744-18.27441l14.28272-9.82984Z"/>
        <path class="cls-24" d="M425.97611,381.115c-12.0192,13.53192-25.336,31.81411-33.585,48.218-3.05706,6.70511-1.87091,13.71281-.59094,21.82356s11.234,39.19149,11.234,39.19149L414.098,487.4544l-3.77-46.91058,32.74468-34.08954C452.771,392.57041,436.808,369.62563,425.97611,381.115Z"/>
        <path class="cls-29" d="M425.97611,377.10107a184.93925,184.93925,0,0,0-17.30766,22.73619c-10.80846,16,13.10641,31.08187,21.53192,22.29787l14.00324-15.53121C456.24292,390.22023,437.59084,364.45656,425.97611,377.10107Z"/>
        <g>
          <path class="cls-24" d="M449.05079,360.59945a108.16466,108.16466,0,0,1,22.3291-8.22364,33.76359,33.76359,0,0,1,6.4884-.93261c.069.04907.14344.09448.21082.14453,8.154,6.07959,9.05029,20.04-.00916,24.67309C465.39185,382.74471,447.04737,372.41219,449.05079,360.59945Z"/>
          <path class="cls-22" d="M475.05964,359.83728c.06234,3.10324-.85341,6.07938-4.317,7.23591-7.02808,2.34672-15.289-2.9222-15.05713-8.71441l.78-15.38625,18.19481,2.5641Z"/>
        </g>
      </g>
      <g>
        <path class="cls-24" d="M557.13849,433.673l-1.51637,2.05737a3.98153,3.98153,0,0,1-2.70271,1.58722l-3.19513.46475c-2.6621-.09749-3.76692-.25556-4.69455-2.07566l-1.60067-3.14067-3.4131-4.38467a4.95506,4.95506,0,0,1,.51461-6.65245L545.782,416.588a4.02651,4.02651,0,0,1,3.65785-.9924l5.80312,1.32873a4.24377,4.24377,0,0,1,3.29467,4.0089l.2269,7.52989A8.357,8.357,0,0,1,557.13849,433.673Z"/>
        <path class="cls-24" d="M413.9961,485.92541s7.49458,6.059,8.36935,7.4576a11.64485,11.64485,0,0,1,1.151,5.51921,4.28507,4.28507,0,0,1-1.31336,2.905l.50468,4.04609a3.29274,3.29274,0,0,1-3.101,3.708,21.45544,21.45544,0,0,1-4.37757-.18483c-1.98306-.34629-5.72172-2.57177-8.23613-4.18469a6.69784,6.69784,0,0,1-3.00629-4.63625l-1.16392-10.87021Z"/>
      </g>
    </g>
    <g>
      <path class="cls-24" d="M450.06728,320.53143c-1.36143-7.75961,5.94766-15.66569,15.07516-16.45853,7.97731-.69294,16.78363,5.1839,17.55553,14.02066a179.29948,179.29948,0,0,1,.30217,19.65723c-.505,8.74064-3.72087,18.43549-12.56915,17.19706-9.73641-1.36273-16.20245-6.17031-17.52846-15.1019Z"/>
      <path class="cls-30" d="M480.891,303.15112c10.263,8.54716,8.981,19.56054,3.64866,22.52649l-1.47523-.28084s-.276-5.01283-2.98235-7.91716c-.19731,9.45811-14.54874,13.0589-18.63121,13.9557a6.67451,6.67451,0,0,1-3.97489,8.57374s.07486,1.50391-1.37977,10.24893c-9.09839-4.89174-23.10631-23.70942-15.34762-39.59026C447.67456,296.49121,468.38772,292.73829,480.891,303.15112Z"/>
      <path class="cls-24" d="M455.89931,344.3858c-3.22245-.10261-5.79183-4.68844-5.67539-8.34513s3.38049-6.63329,6.097-4.89689C459.7311,333.32353,459.12176,344.48841,455.89931,344.3858Z"/>
    </g>
  </g>
</svg>
