<svg id="Layer_1" data-name="Layer 1" xmlns="http://www.w3.org/2000/svg" xmlns:xlink="http://www.w3.org/1999/xlink" viewBox="0 0 1000 1000">
  <defs>
    <style>
      .cls-1 {
        fill: url(#linear-gradient);
      }

      .cls-2 {
        fill: #b8cbd8;
      }

      .cls-10, .cls-3 {
        fill: #fff;
      }

      .cls-3, .cls-32, .cls-71, .cls-8, .cls-81, .cls-91 {
        opacity: 0.5;
      }

      .cls-4 {
        fill: url(#linear-gradient-2);
      }

      .cls-5 {
        fill: #2a3f5e;
        opacity: 0.2;
      }

      .cls-6 {
        fill: url(#linear-gradient-3);
      }

      .cls-7 {
        fill: url(#linear-gradient-4);
      }

      .cls-9 {
        fill: #e58630;
      }

      .cls-11 {
        fill: url(#linear-gradient-5);
      }

      .cls-12 {
        fill: url(#linear-gradient-6);
      }

      .cls-13 {
        fill: url(#linear-gradient-7);
      }

      .cls-14 {
        fill: url(#linear-gradient-8);
      }

      .cls-15 {
        fill: url(#linear-gradient-9);
      }

      .cls-16 {
        fill: url(#linear-gradient-10);
      }

      .cls-17 {
        fill: url(#linear-gradient-11);
      }

      .cls-18 {
        fill: #ffcb48;
      }

      .cls-19 {
        fill: url(#linear-gradient-12);
      }

      .cls-20 {
        fill: url(#linear-gradient-13);
      }

      .cls-21 {
        fill: url(#linear-gradient-14);
      }

      .cls-22 {
        fill: #748ca3;
      }

      .cls-23 {
        fill: #586c7f;
      }

      .cls-24 {
        fill: url(#linear-gradient-15);
      }

      .cls-25 {
        fill: #29232d;
      }

      .cls-26 {
        fill: url(#linear-gradient-16);
      }

      .cls-27 {
        fill: url(#linear-gradient-17);
      }

      .cls-28 {
        fill: url(#linear-gradient-18);
      }

      .cls-29 {
        fill: url(#linear-gradient-19);
      }

      .cls-30 {
        fill: url(#linear-gradient-20);
      }

      .cls-31 {
        fill: url(#linear-gradient-21);
      }

      .cls-32 {
        fill: #c65c44;
      }

      .cls-33 {
        fill: url(#linear-gradient-22);
      }

      .cls-34 {
        fill: url(#linear-gradient-23);
      }

      .cls-35 {
        fill: #bcd0e2;
      }

      .cls-36 {
        fill: url(#linear-gradient-24);
      }

      .cls-37 {
        fill: #dd7b19;
      }

      .cls-38 {
        fill: #283452;
      }

      .cls-39 {
        fill: url(#linear-gradient-25);
      }

      .cls-40 {
        fill: #242d46;
      }

      .cls-41 {
        fill: url(#linear-gradient-26);
      }

      .cls-42 {
        fill: #8eaabf;
      }

      .cls-43 {
        fill: #d7ebf4;
      }

      .cls-44 {
        fill: url(#linear-gradient-27);
      }

      .cls-45 {
        fill: url(#linear-gradient-28);
      }

      .cls-46 {
        fill: #324469;
      }

      .cls-47 {
        fill: url(#linear-gradient-29);
      }

      .cls-48 {
        fill: url(#linear-gradient-30);
      }

      .cls-49 {
        fill: url(#linear-gradient-31);
      }

      .cls-50 {
        fill: url(#linear-gradient-32);
      }

      .cls-51 {
        fill: url(#linear-gradient-33);
      }

      .cls-52 {
        fill: url(#linear-gradient-34);
      }

      .cls-53 {
        fill: url(#linear-gradient-35);
      }

      .cls-107, .cls-54 {
        opacity: 0.4;
      }

      .cls-54 {
        fill: url(#linear-gradient-36);
      }

      .cls-55, .cls-56, .cls-89 {
        fill: none;
        stroke-miterlimit: 10;
      }

      .cls-55, .cls-56 {
        stroke-width: 5.40487px;
      }

      .cls-55 {
        stroke: url(#linear-gradient-37);
      }

      .cls-56 {
        stroke: url(#linear-gradient-38);
      }

      .cls-57 {
        fill: url(#linear-gradient-39);
      }

      .cls-58 {
        fill: url(#linear-gradient-40);
      }

      .cls-59 {
        fill: url(#linear-gradient-41);
      }

      .cls-60 {
        fill: url(#linear-gradient-42);
      }

      .cls-61 {
        fill: url(#linear-gradient-43);
      }

      .cls-62 {
        fill: url(#linear-gradient-44);
      }

      .cls-63 {
        fill: url(#linear-gradient-45);
      }

      .cls-64 {
        fill: url(#linear-gradient-46);
      }

      .cls-65 {
        fill: url(#linear-gradient-47);
      }

      .cls-66 {
        fill: url(#linear-gradient-48);
      }

      .cls-67 {
        fill: url(#linear-gradient-49);
      }

      .cls-68 {
        fill: url(#linear-gradient-50);
      }

      .cls-69 {
        fill: #937057;
      }

      .cls-70 {
        fill: url(#linear-gradient-51);
      }

      .cls-71 {
        fill: #604840;
      }

      .cls-72 {
        fill: #6d635c;
      }

      .cls-73 {
        fill: #847e7a;
      }

      .cls-74 {
        fill: url(#linear-gradient-52);
      }

      .cls-75 {
        fill: url(#linear-gradient-53);
      }

      .cls-76 {
        fill: url(#linear-gradient-54);
      }

      .cls-77 {
        fill: url(#linear-gradient-55);
      }

      .cls-78 {
        fill: url(#linear-gradient-56);
      }

      .cls-79 {
        fill: url(#linear-gradient-57);
      }

      .cls-80 {
        fill: url(#linear-gradient-58);
      }

      .cls-81, .cls-82 {
        fill: #44332f;
      }

      .cls-83 {
        fill: url(#linear-gradient-59);
      }

      .cls-84 {
        fill: url(#linear-gradient-60);
      }

      .cls-85 {
        fill: #c93535;
      }

      .cls-86 {
        fill: url(#linear-gradient-61);
      }

      .cls-87 {
        fill: url(#linear-gradient-62);
      }

      .cls-88 {
        fill: url(#linear-gradient-63);
      }

      .cls-89 {
        stroke: #99432e;
        stroke-linecap: round;
        stroke-width: 3.6348px;
      }

      .cls-90 {
        fill: url(#linear-gradient-64);
      }

      .cls-91 {
        fill: #23262b;
      }

      .cls-92 {
        fill: url(#linear-gradient-65);
      }

      .cls-93 {
        fill: url(#linear-gradient-66);
      }

      .cls-94 {
        fill: url(#linear-gradient-67);
      }

      .cls-95 {
        fill: #303d49;
      }

      .cls-96 {
        fill: #ef8e73;
      }

      .cls-97 {
        fill: #27343d;
      }

      .cls-98 {
        fill: url(#linear-gradient-68);
      }

      .cls-99 {
        fill: url(#linear-gradient-69);
      }

      .cls-100 {
        fill: #e2786d;
      }

      .cls-101 {
        fill: url(#linear-gradient-70);
      }

      .cls-102 {
        fill: url(#linear-gradient-71);
      }

      .cls-103 {
        fill: url(#linear-gradient-72);
      }

      .cls-104 {
        fill: url(#linear-gradient-73);
      }

      .cls-105 {
        fill: url(#linear-gradient-74);
      }

      .cls-106 {
        fill: url(#linear-gradient-75);
      }

      .cls-107 {
        fill: url(#linear-gradient-76);
      }
    </style>
    <linearGradient id="linear-gradient" x1="476.43571" y1="402.62316" x2="897.7224" y2="402.62316" gradientUnits="userSpaceOnUse">
      <stop offset="0" stop-color="#e4edf2"/>
      <stop offset="1" stop-color="#c3d6e6"/>
    </linearGradient>
    <linearGradient id="linear-gradient-2" x1="55.16526" y1="728.95587" x2="897.7224" y2="728.95587" gradientUnits="userSpaceOnUse">
      <stop offset="0" stop-color="#dae9f2"/>
      <stop offset="0.99337" stop-color="#c4d5e6"/>
    </linearGradient>
    <linearGradient id="linear-gradient-3" x1="652.142" y1="583.39608" x2="580.142" y2="684.50246" gradientUnits="userSpaceOnUse">
      <stop offset="0" stop-color="#fff"/>
      <stop offset="0.94545" stop-color="#fff" stop-opacity="0"/>
    </linearGradient>
    <linearGradient id="linear-gradient-4" x1="-219.53177" y1="733.03634" x2="766.0945" y2="733.03634" gradientUnits="userSpaceOnUse">
      <stop offset="0" stop-color="#e68e2b"/>
      <stop offset="0.99995" stop-color="#ffcb48"/>
    </linearGradient>
    <linearGradient id="linear-gradient-5" x1="-158.50521" y1="392.40763" x2="184.83751" y2="392.40763" gradientTransform="matrix(-1, 0, 0, 1, 699.38583, 0)" gradientUnits="userSpaceOnUse">
      <stop offset="0" stop-color="#5b6f82"/>
      <stop offset="1" stop-color="#849bb2"/>
    </linearGradient>
    <linearGradient id="linear-gradient-6" x1="203.21122" y1="289.38929" x2="-170.68579" y2="492.06809" gradientTransform="matrix(-1, 0, 0, 1, 699.38583, 0)" gradientUnits="userSpaceOnUse">
      <stop offset="0" stop-color="#62778c"/>
      <stop offset="1" stop-color="#435466"/>
    </linearGradient>
    <linearGradient id="linear-gradient-7" x1="136.1718" y1="321.64325" x2="-2.30652" y2="396.70836" xlink:href="#linear-gradient-6"/>
    <linearGradient id="linear-gradient-8" x1="24.703" y1="385.99568" x2="-113.77532" y2="461.06079" xlink:href="#linear-gradient-6"/>
    <linearGradient id="linear-gradient-9" x1="-129.457" y1="486.9041" x2="-104.40695" y2="486.9041" gradientTransform="matrix(-1, 0, 0, 1, 699.38583, 0)" xlink:href="#linear-gradient-4"/>
    <linearGradient id="linear-gradient-10" x1="-145.3469" y1="495.81154" x2="-120.29685" y2="495.81154" gradientTransform="matrix(-1, 0, 0, 1, 699.38583, 0)" xlink:href="#linear-gradient-4"/>
    <linearGradient id="linear-gradient-11" x1="-161.23679" y1="505.05721" x2="-136.17697" y2="505.05721" gradientTransform="matrix(-1, 0, 0, 1, 699.38583, 0)" xlink:href="#linear-gradient-4"/>
    <linearGradient id="linear-gradient-12" x1="179.53838" y1="308.13233" x2="204.58843" y2="308.13233" gradientTransform="matrix(-1, 0, 0, 1, 699.38583, 0)" xlink:href="#linear-gradient-4"/>
    <linearGradient id="linear-gradient-13" x1="163.64849" y1="317.03977" x2="188.69854" y2="317.03977" gradientTransform="matrix(-1, 0, 0, 1, 699.38583, 0)" xlink:href="#linear-gradient-4"/>
    <linearGradient id="linear-gradient-14" x1="147.7586" y1="326.28544" x2="172.81841" y2="326.28544" gradientTransform="matrix(-1, 0, 0, 1, 699.38583, 0)" xlink:href="#linear-gradient-4"/>
    <linearGradient id="linear-gradient-15" x1="-367.55542" y1="236.31033" x2="196.26336" y2="236.31033" xlink:href="#linear-gradient-5"/>
    <linearGradient id="linear-gradient-16" x1="265.70593" y1="681.73452" x2="281.88695" y2="681.73452" gradientUnits="userSpaceOnUse">
      <stop offset="0" stop-color="#3e4c59"/>
      <stop offset="1" stop-color="#293440"/>
    </linearGradient>
    <linearGradient id="linear-gradient-17" x1="404.17837" y1="601.66721" x2="420.35939" y2="601.66721" xlink:href="#linear-gradient-16"/>
    <linearGradient id="linear-gradient-18" x1="-6586.4821" y1="566.29313" x2="-6393.78843" y2="684.27937" gradientTransform="matrix(-1, 0, 0, 1, -6200.13124, 0)" gradientUnits="userSpaceOnUse">
      <stop offset="0" stop-color="#849bb2"/>
      <stop offset="1" stop-color="#5b6f82"/>
    </linearGradient>
    <linearGradient id="linear-gradient-19" x1="-6642.0157" y1="613.5619" x2="-6314.85081" y2="-37.17264" gradientTransform="matrix(-1, 0, 0, 1, -6200.13124, 0)" xlink:href="#linear-gradient-6"/>
    <linearGradient id="linear-gradient-20" x1="-6674.53842" y1="597.2107" x2="-6347.37354" y2="-53.52385" gradientTransform="matrix(-1, 0, 0, 1, -6200.13124, 0)" xlink:href="#linear-gradient-16"/>
    <linearGradient id="linear-gradient-21" x1="301.90312" y1="593.28737" x2="379.66046" y2="593.28737" xlink:href="#linear-gradient-4"/>
    <linearGradient id="linear-gradient-22" x1="-6611.98017" y1="360.64826" x2="-6351.22234" y2="360.64826" gradientTransform="matrix(-1, 0, 0, 1, -6200.13124, 0)" xlink:href="#linear-gradient-6"/>
    <linearGradient id="linear-gradient-23" x1="-6719.84148" y1="379.47785" x2="-6845.85396" y2="301.16168" gradientTransform="matrix(-1, 0, 0, 1, -6467.01118, 0)" xlink:href="#linear-gradient-18"/>
    <linearGradient id="linear-gradient-24" x1="347.05008" y1="313.20888" x2="301.09263" y2="354.7408" gradientUnits="userSpaceOnUse">
      <stop offset="0.00005" stop-color="#ffcb48"/>
      <stop offset="1" stop-color="#e68e2b"/>
    </linearGradient>
    <linearGradient id="linear-gradient-25" x1="363.62086" y1="495.97197" x2="363.62086" y2="393.05023" gradientUnits="userSpaceOnUse">
      <stop offset="0" stop-color="#19253d"/>
      <stop offset="0.99246" stop-color="#2e4973"/>
    </linearGradient>
    <linearGradient id="linear-gradient-26" x1="351.80978" y1="507.54429" x2="351.80978" y2="395.48988" xlink:href="#linear-gradient-4"/>
    <linearGradient id="linear-gradient-27" x1="328.47061" y1="516.16062" x2="328.47061" y2="413.23889" xlink:href="#linear-gradient-25"/>
    <linearGradient id="linear-gradient-28" x1="316.65952" y1="527.73294" x2="316.65952" y2="415.67854" xlink:href="#linear-gradient-4"/>
    <linearGradient id="linear-gradient-29" x1="347.89533" y1="638.45896" x2="347.89533" y2="299.61614" gradientTransform="matrix(1, 0, 0, 1, 0, 0)" xlink:href="#linear-gradient-6"/>
    <linearGradient id="linear-gradient-30" x1="-6708.61788" y1="682.75048" x2="-6708.61788" y2="298.34206" gradientTransform="matrix(-1, 0, 0, 1, -6467.01118, 0)" gradientUnits="userSpaceOnUse">
      <stop offset="0" stop-color="#293440"/>
      <stop offset="1" stop-color="#3e4c59"/>
    </linearGradient>
    <linearGradient id="linear-gradient-31" x1="-6629.51231" y1="290.26354" x2="-6321.58562" y2="290.26354" gradientTransform="matrix(-1, 0, 0, 1, -6200.13124, 0)" gradientUnits="userSpaceOnUse">
      <stop offset="0" stop-color="#62788c"/>
      <stop offset="1" stop-color="#526575"/>
    </linearGradient>
    <linearGradient id="linear-gradient-32" x1="-6708.60851" y1="312.49925" x2="-6857.41557" y2="220.01635" gradientTransform="matrix(-1, 0, 0, 1, -6467.01118, 0)" xlink:href="#linear-gradient-18"/>
    <linearGradient id="linear-gradient-33" x1="310.74033" y1="-32.31176" x2="582.37116" y2="685.86371" gradientTransform="matrix(1, 0, 0, 1, 0, 0)" xlink:href="#linear-gradient-31"/>
    <linearGradient id="linear-gradient-34" x1="312.16318" y1="-29.49852" x2="583.79397" y2="688.67683" gradientTransform="matrix(1, 0, 0, 1, 0, 0)" xlink:href="#linear-gradient-18"/>
    <linearGradient id="linear-gradient-35" x1="432.3183" y1="389.89834" x2="532.8351" y2="389.89834" gradientUnits="userSpaceOnUse">
      <stop offset="0" stop-color="#fff"/>
      <stop offset="0.98888" stop-color="#e6edf2"/>
    </linearGradient>
    <linearGradient id="linear-gradient-36" x1="432.3183" y1="545.55546" x2="532.8351" y2="545.55546" xlink:href="#linear-gradient-16"/>
    <linearGradient id="linear-gradient-37" x1="6607.38398" y1="686.8406" x2="6679.59397" y2="719.83181" gradientTransform="matrix(-1, 0, 0, 1, 6756.0358, 0)" xlink:href="#linear-gradient-16"/>
    <linearGradient id="linear-gradient-38" x1="6535.46346" y1="637.10544" x2="6617.05841" y2="674.38445" gradientTransform="matrix(-1, 0, 0, 1, 6756.0358, 0)" xlink:href="#linear-gradient-16"/>
    <linearGradient id="linear-gradient-39" x1="-1590.15395" y1="573.66931" x2="-1457.63481" y2="666.99265" gradientTransform="matrix(-1, 0, 0, 1, -1378.92141, 0)" xlink:href="#linear-gradient-6"/>
    <linearGradient id="linear-gradient-40" x1="-1590.53315" y1="588.14915" x2="-1447.2077" y2="743.69251" gradientTransform="matrix(-1, 0, 0, 1, -1378.92141, 0)" xlink:href="#linear-gradient-31"/>
    <linearGradient id="linear-gradient-41" x1="-1604.67208" y1="568.60514" x2="-1518.02538" y2="703.77399" gradientTransform="matrix(-1, 0, 0, 1, -1378.92141, 0)" gradientUnits="userSpaceOnUse">
      <stop offset="0" stop-color="#96b1cc"/>
      <stop offset="1" stop-color="#748ea6"/>
    </linearGradient>
    <linearGradient id="linear-gradient-42" x1="-1597.45925" y1="613.00201" x2="-1458.91281" y2="613.00201" gradientTransform="matrix(-1, 0, 0, 1, -1378.92141, 0)" gradientUnits="userSpaceOnUse">
      <stop offset="0" stop-color="#526575"/>
      <stop offset="1" stop-color="#62788c"/>
    </linearGradient>
    <linearGradient id="linear-gradient-43" x1="-1597.45931" y1="590.55474" x2="-1458.91285" y2="590.55474" xlink:href="#linear-gradient-41"/>
    <linearGradient id="linear-gradient-44" x1="-1797.8659" y1="589.74575" x2="-1743.30157" y2="589.74575" gradientTransform="matrix(-1, 0, 0, 1, -1621.31911, 0)" xlink:href="#linear-gradient-6"/>
    <linearGradient id="linear-gradient-45" x1="-1797.86592" y1="585.58838" x2="-1743.30156" y2="585.58838" gradientTransform="matrix(-1, 0, 0, 1, -1621.31911, 0)" xlink:href="#linear-gradient-18"/>
    <linearGradient id="linear-gradient-46" x1="-1770.95228" y1="541.68988" x2="-1770.22579" y2="581.88855" gradientTransform="matrix(-1, 0, 0, 1, -1621.31911, 0)" xlink:href="#linear-gradient-6"/>
    <linearGradient id="linear-gradient-47" x1="-1807.27519" y1="533.72387" x2="-1733.89224" y2="533.72387" gradientTransform="matrix(-1, 0, 0, 1, -1621.31911, 0)" xlink:href="#linear-gradient-6"/>
    <linearGradient id="linear-gradient-48" x1="-1807.76747" y1="528.34517" x2="-1733.39996" y2="528.34517" gradientTransform="matrix(-1, 0, 0, 1, -1621.31911, 0)" gradientUnits="userSpaceOnUse">
      <stop offset="0.00844" stop-color="#ffc63f"/>
      <stop offset="1" stop-color="#e68a23"/>
    </linearGradient>
    <linearGradient id="linear-gradient-49" x1="-1778.60211" y1="514.53067" x2="-1762.56548" y2="514.53067" gradientTransform="matrix(-1, 0, 0, 1, -1621.31911, 0)" xlink:href="#linear-gradient-16"/>
    <linearGradient id="linear-gradient-50" x1="-1778.6021" y1="508.34358" x2="-1762.56539" y2="508.34358" gradientTransform="matrix(-1, 0, 0, 1, -1621.31911, 0)" xlink:href="#linear-gradient-6"/>
    <linearGradient id="linear-gradient-51" x1="864.72636" y1="178.71291" x2="691.61998" y2="511.9044" gradientUnits="userSpaceOnUse">
      <stop offset="0" stop-color="#c68b63"/>
      <stop offset="1" stop-color="#936657"/>
    </linearGradient>
    <linearGradient id="linear-gradient-52" x1="905.507" y1="168.26037" x2="894.61338" y2="240.771" gradientUnits="userSpaceOnUse">
      <stop offset="0.02147" stop-color="#bfb5af"/>
      <stop offset="0.60327" stop-color="#a59d98"/>
      <stop offset="0.96784" stop-color="#9b938e"/>
    </linearGradient>
    <linearGradient id="linear-gradient-53" x1="965.79722" y1="220.41176" x2="955.24403" y2="305.85857" xlink:href="#linear-gradient-52"/>
    <linearGradient id="linear-gradient-54" x1="962.92033" y1="316.9261" x2="954.06926" y2="369.69206" xlink:href="#linear-gradient-52"/>
    <linearGradient id="linear-gradient-55" x1="897.09494" y1="262.12412" x2="900.4992" y2="369.69858" xlink:href="#linear-gradient-52"/>
    <linearGradient id="linear-gradient-56" x1="945.07824" y1="360.76596" x2="945.07824" y2="413.87343" xlink:href="#linear-gradient-52"/>
    <linearGradient id="linear-gradient-57" x1="928.09632" y1="425.25571" x2="921.62824" y2="481.76634" xlink:href="#linear-gradient-52"/>
    <linearGradient id="linear-gradient-58" x1="901.81238" y1="148.70211" x2="799.17408" y2="737.72339" xlink:href="#linear-gradient-51"/>
    <linearGradient id="linear-gradient-59" x1="586.61702" y1="415.08145" x2="824.07261" y2="415.08145" gradientUnits="userSpaceOnUse">
      <stop offset="0" stop-color="#44332f"/>
      <stop offset="1" stop-color="#604840"/>
    </linearGradient>
    <linearGradient id="linear-gradient-60" x1="895.0424" y1="379.14894" x2="895.0424" y2="440.76596" xlink:href="#linear-gradient-52"/>
    <linearGradient id="linear-gradient-61" x1="587.56966" y1="216.54907" x2="693.98208" y2="216.54907" gradientUnits="userSpaceOnUse">
      <stop offset="0" stop-color="#f2973c"/>
      <stop offset="0.25523" stop-color="#ea8433"/>
      <stop offset="0.70599" stop-color="#de6825"/>
      <stop offset="0.96784" stop-color="#d95e20"/>
    </linearGradient>
    <linearGradient id="linear-gradient-62" x1="767.85789" y1="80.81288" x2="685.63147" y2="256.46388" xlink:href="#linear-gradient-61"/>
    <linearGradient id="linear-gradient-63" x1="783.97934" y1="170.50514" x2="724.35368" y2="262.8437" xlink:href="#linear-gradient-61"/>
    <linearGradient id="linear-gradient-64" x1="640.36463" y1="340.62495" x2="775.23771" y2="340.62495" gradientTransform="matrix(1, 0, 0, 1, 0, 0)" xlink:href="#linear-gradient-30"/>
    <linearGradient id="linear-gradient-65" x1="635.58109" y1="300.55168" x2="780.02125" y2="300.55168" gradientTransform="matrix(1, 0, 0, 1, 0, 0)" xlink:href="#linear-gradient-30"/>
    <linearGradient id="linear-gradient-66" x1="454.7808" y1="321.00504" x2="490.52548" y2="463.47312" gradientUnits="userSpaceOnUse">
      <stop offset="0" stop-color="#75413e"/>
      <stop offset="1" stop-color="#592f2f"/>
    </linearGradient>
    <linearGradient id="linear-gradient-67" x1="496.07317" y1="310.64495" x2="531.81785" y2="453.11303" xlink:href="#linear-gradient-66"/>
    <linearGradient id="linear-gradient-68" x1="449.82786" y1="386.84065" x2="503.95552" y2="518.33001" xlink:href="#linear-gradient-24"/>
    <linearGradient id="linear-gradient-69" x1="462.52133" y1="381.61538" x2="516.64899" y2="513.10474" xlink:href="#linear-gradient-24"/>
    <linearGradient id="linear-gradient-70" x1="497.55204" y1="367.19497" x2="551.6797" y2="498.68433" xlink:href="#linear-gradient-24"/>
    <linearGradient id="linear-gradient-71" x1="395.93036" y1="473.36629" x2="525.07742" y2="473.36629" xlink:href="#linear-gradient-35"/>
    <linearGradient id="linear-gradient-72" x1="483.43452" y1="313.81593" x2="519.1792" y2="456.28402" xlink:href="#linear-gradient-66"/>
    <linearGradient id="linear-gradient-73" x1="58.44041" y1="53.06002" x2="360.93217" y2="852.82991" gradientTransform="matrix(1, 0, 0, 1, 0, 0)" xlink:href="#linear-gradient-31"/>
    <linearGradient id="linear-gradient-74" x1="62.55873" y1="57.15493" x2="362.89785" y2="851.23337" gradientTransform="matrix(1, 0, 0, 1, 0, 0)" xlink:href="#linear-gradient-18"/>
    <linearGradient id="linear-gradient-75" x1="233.72936" y1="521.26334" x2="268.23677" y2="521.26334" xlink:href="#linear-gradient-35"/>
    <linearGradient id="linear-gradient-76" x1="233.72936" y1="673.1864" x2="268.23677" y2="673.1864" xlink:href="#linear-gradient-16"/>
  </defs>
  <g>
    <g>
      <polygon class="cls-1" points="476.436 76.29 897.722 319.511 897.722 728.956 476.436 485.713 476.436 76.29"/>
      <polygon class="cls-2" points="476.452 76.29 55.165 319.511 55.165 728.956 476.452 485.713 476.452 76.29"/>
      <polygon class="cls-3" points="476.452 433.762 475.166 462.859 311.977 548.987 476.452 170.662 476.452 433.762"/>
    </g>
    <path class="cls-4" d="M62.435,741.55987l392.2106,226.43291a43.61721,43.61721,0,0,0,43.61686-.00064L890.453,741.55565a14.53908,14.53908,0,0,0,.00018-25.18217L498.24551,489.9199a43.61721,43.61721,0,0,0-43.61994.00055L62.43418,716.37768A14.53907,14.53907,0,0,0,62.435,741.55987Z"/>
    <path class="cls-5" d="M82.16557,726.91436l83.72156-48.32451a8.7051,8.7051,0,0,1,8.71373,0l53.559,30.97462a4.35255,4.35255,0,0,1,0,7.53634l-83.72156,48.3245a8.70508,8.70508,0,0,1-8.71372,0L82.16557,734.4507A4.35255,4.35255,0,0,1,82.16557,726.91436Z"/>
    <path class="cls-5" d="M425.39014,608.76426,362.96673,572.848a5.79466,5.79466,0,0,0-5.7903.00611L205.79668,660.37865a2.37638,2.37638,0,0,0,.00434,4.11705L268.22443,700.412a5.79468,5.79468,0,0,0,5.7903-.00611l151.37975-87.52452A2.37639,2.37639,0,0,0,425.39014,608.76426Z"/>
    <polygon class="cls-6" points="849.213 690.822 709.765 817.058 358.244 611.94 547.733 516.828 849.213 690.822"/>
    <path class="cls-7" d="M770.01948,713.47058,487.63484,876.5877a21.80859,21.80859,0,0,1-21.81445.00138L272.91467,765.19143a7.26954,7.26954,0,0,1,0-12.59052L555.379,589.48365a21.80861,21.80861,0,0,1,21.81542.00182L770.01977,700.88113A7.26954,7.26954,0,0,1,770.01948,713.47058Z"/>
    <g class="cls-8">
      <ellipse class="cls-9" cx="486.6935" cy="756.28093" rx="80.14409" ry="46.05982"/>
    </g>
  </g>
  <g>
    <g>
      <path class="cls-10" d="M510.70686,126.40722,522.1721,128.566,865.52117,326.80705V649.63116l-11.46524,6.61724L510.70686,458.0188Z"/>
      <polygon class="cls-11" points="514.548 131.877 518.49 134.152 518.484 452.588 857.891 648.532 857.891 652.938 514.548 454.718 514.548 131.877"/>
      <path class="cls-12" d="M503.06008,111.97879V461.3513L869.379,672.83556V323.4836Zm354.83072,540.959L514.54835,454.7184l0-322.84092L857.8908,330.11619Z"/>
    </g>
    <polygon class="cls-13" points="629.953 516.94 634.953 519.827 634.953 201.411 629.953 198.524 629.953 516.94"/>
    <polygon class="cls-14" points="741.422 581.293 746.422 584.18 746.422 265.764 741.422 262.877 741.422 581.293"/>
    <g>
      <g>
        <path class="cls-15" d="M803.79279,325.50488V649.91959a2.17526,2.17526,0,0,0,2.68994,2.1l13.2-3.28,7.76-1.93005a.33505.33505,0,0,1,.32007.06l1.08008-.31994V321.72l-23.31006,5.92491Z"/>
        <path class="cls-16" d="M819.68268,334.62488V659.24955a2.005,2.005,0,0,0,.36011,1.04,2.13014,2.13014,0,0,0,2.32007.9l20.97-5.21a.35592.35592,0,0,1,.40991.16.36822.36822,0,0,1,.02.4l.97-.26V330.36487l-23.31006,5.5Z"/>
        <polygon class="cls-9" points="845.591 331.932 845.591 343.215 837.557 344.874 836.706 343.598 845.591 331.932"/>
        <path class="cls-17" d="M835.56281,343.94488V668.41959a2.23848,2.23848,0,0,0,.35986,1.04,2.13718,2.13718,0,0,0,1.79.97,2.00335,2.00335,0,0,0,.54-.06994l21.68994-5.4a.88431.88431,0,0,0,.67993-.86V339.68487l-23.30981,5.5Z"/>
        <polygon class="cls-9" points="829.708 322.761 829.708 334.044 821.673 335.703 820.822 334.427 829.708 322.761"/>
        <polygon class="cls-9" points="814.525 313.073 814.525 324.355 805.639 326.651 804.674 325.454 814.525 313.073"/>
        <path class="cls-18" d="M837.714,346.02871a2.23451,2.23451,0,0,0,.53634-.06611l21.69444-5.404a.88879.88879,0,1,0-.42907-1.725l-21.69444,5.404a.38828.38828,0,0,1-.40537-.60931l7.74138-10.37631a2.16559,2.16559,0,0,0-2.25824-3.397l-20.96092,5.21279a.38817.38817,0,0,1-.40475-.60931l7.74138-10.37631a2.16579,2.16579,0,0,0-2.25886-3.397l-20.9603,5.21279a.38822.38822,0,0,1-.40538-.609l8.6979-11.649a.88858.88858,0,1,0-1.42442-1.0627l-8.6979,11.64868a2.16588,2.16588,0,0,0,2.25887,3.397l20.9603-5.21279a.38836.38836,0,0,1,.40537.60931l-7.74138,10.37631a2.16568,2.16568,0,0,0,2.25824,3.397L843.32809,331.58a.36408.36408,0,0,1,.41723.16152.36863.36863,0,0,1-.01248.44779l-7.74138,10.37631a2.16761,2.16761,0,0,0,1.72252,3.46314Z"/>
      </g>
      <g>
        <path class="cls-19" d="M494.7974,146.73311V471.14782a2.17526,2.17526,0,0,0,2.68994,2.1l13.2-3.28,7.76-1.93a.33505.33505,0,0,1,.32007.06l1.08008-.31994V142.94822l-23.31006,5.92491Z"/>
        <path class="cls-20" d="M510.68729,155.85311V480.47778a2.005,2.005,0,0,0,.36011,1.04,2.13014,2.13014,0,0,0,2.32007.9l20.97-5.21a.35592.35592,0,0,1,.40991.16.36822.36822,0,0,1,.02.4l.97-.26V151.5931l-23.31006,5.5Z"/>
        <polygon class="cls-9" points="536.596 153.161 536.596 164.443 528.561 166.102 527.71 164.826 536.596 153.161"/>
        <path class="cls-21" d="M526.56742,165.17311V489.64782a2.23848,2.23848,0,0,0,.35986,1.04,2.13718,2.13718,0,0,0,1.79.97,2.00335,2.00335,0,0,0,.54-.06994l21.68994-5.4a.88431.88431,0,0,0,.67994-.86V160.9131l-23.30982,5.5Z"/>
        <polygon class="cls-9" points="520.713 143.99 520.713 155.272 512.678 156.931 511.827 155.655 520.713 143.99"/>
        <polygon class="cls-9" points="505.529 134.301 505.529 145.583 496.643 147.879 495.678 146.682 505.529 134.301"/>
        <path class="cls-18" d="M528.7186,167.25694a2.23463,2.23463,0,0,0,.53634-.06611l21.69443-5.404a.88879.88879,0,1,0-.42907-1.725l-21.69444,5.404a.38828.38828,0,0,1-.40537-.60931l7.74139-10.37631a2.16559,2.16559,0,0,0-2.25825-3.397L512.94271,156.296a.38817.38817,0,0,1-.40475-.60931l7.74139-10.37631a2.1658,2.1658,0,0,0-2.25887-3.397l-20.9603,5.21279a.38822.38822,0,0,1-.40537-.609l8.6979-11.649a.88858.88858,0,1,0-1.42442-1.0627l-8.6979,11.64868a2.16588,2.16588,0,0,0,2.25886,3.397l20.9603-5.21279a.38837.38837,0,0,1,.40538.60931l-7.74139,10.37631a2.16568,2.16568,0,0,0,2.25824,3.397l20.96093-5.21279a.36405.36405,0,0,1,.41722.16153.36863.36863,0,0,1-.01247.44778l-7.74139,10.37631a2.16761,2.16761,0,0,0,1.72253,3.46314Z"/>
      </g>
    </g>
    <g>
      <path class="cls-22" d="M507.045,128.552v6.03442l14.83478,8.56338v-6.91923a3.3619,3.3619,0,0,0-1.68116-2.91161l-10.70616-6.18013A1.63171,1.63171,0,0,0,507.045,128.552Z"/>
      <path class="cls-23" d="M849.44929,326.50374v6.03442l14.83479,8.56338v-6.91923a3.36189,3.36189,0,0,0-1.68117-2.91161l-10.70616-6.18013A1.63171,1.63171,0,0,0,849.44929,326.50374Z"/>
      <path class="cls-24" d="M499.30951,135.09636,861.93573,344.50144l3.92587-6.7998L503.22219,128.289l-.0018.0031a1.97733,1.97733,0,0,0-1.95073.20783,6.13758,6.13758,0,0,0-2.78518,4.8041A1.92625,1.92625,0,0,0,499.30951,135.09636Z"/>
      <ellipse class="cls-23" cx="863.89866" cy="341.10154" rx="3.92587" ry="2.26305" transform="translate(136.54673 918.70896) rotate(-60)"/>
    </g>
  </g>
  <g>
    <g>
      <path class="cls-25" d="M228.06138,641.26574l-2.22914,14.91231c0,1.894-2.63368,3.42934-5.88247,3.42934s-5.88247-1.5353-5.88247-3.42934l-2.18694-14.91231Z"/>
      <path class="cls-26" d="M281.887,672.56369,279.65781,687.476c0,1.894-2.63367,3.42934-5.88247,3.42934s-5.88246-1.5353-5.88246-3.42934l-2.18695-14.91231Z"/>
      <path class="cls-27" d="M420.35939,592.49638l-2.22914,14.91231c0,1.894-2.63368,3.42934-5.88247,3.42934s-5.88247-1.5353-5.88247-3.42934l-2.18694-14.91231Z"/>
      <g>
        <polygon class="cls-28" points="281.894 588.275 281.894 667.734 413.897 591.404 345.027 551.768 281.894 588.275"/>
        <polygon class="cls-29" points="281.894 341.173 281.894 588.275 345.027 551.768 413.897 591.404 413.897 264.958 359.746 296.221 281.894 341.173"/>
        <polygon class="cls-30" points="345.027 551.768 413.897 591.404 413.897 264.958 345.027 304.719 345.027 551.768"/>
        <g>
          <path class="cls-31" d="M379.6154,590.939a5.74528,5.74528,0,0,1-2.866,5.717l-65.363,37.64818a17.46442,17.46442,0,0,1-9.48334,2.3258V567.29067l77.75734-17.36111Z"/>
          <path class="cls-9" d="M301.90312,567.29067V636.63a17.641,17.641,0,0,1-7.9678-2.31078L271.7725,621.51975a5.76371,5.76371,0,0,1-2.911-5.13187V574.67324Z"/>
          <path class="cls-18" d="M376.7537,544.80167l-22.15918-12.79361a17.44979,17.44979,0,0,0-17.45023.00025l-65.37258,37.649a5.8166,5.8166,0,0,0,.00067,10.07486l22.16869,12.796a17.44978,17.44978,0,0,0,17.44919-.00147L376.754,554.87612A5.8166,5.8166,0,0,0,376.7537,544.80167Z"/>
          <path class="cls-32" d="M378.22085,561.20654l-67.19036,38.70278a17.93711,17.93711,0,0,1-17.93672.00147l-22.78816-13.15352a6.00616,6.00616,0,0,1-1.44411-1.17055v3.89887l22.69007,13.097a21.02208,21.02208,0,0,0,21.02158-.00174l67.05372-38.6242.00421-3.88147A6.01782,6.01782,0,0,1,378.22085,561.20654Z"/>
        </g>
        <g>
          <path class="cls-33" d="M409.47332,318.73746v7.26305c.00053.02576.00053.051,0,.07675v.09644l-.0113-.00517a1.97854,1.97854,0,0,1-.989,1.61424L280.2819,401.90011a4.9069,4.9069,0,0,1-4.90329.00517l-52.86129-30.4145a1.9893,1.9893,0,0,1-1.00475-1.70985l-.004.00082V362.274Z"/>
          <path class="cls-34" d="M408.46933,316.93587l-52.86125-30.41452a4.907,4.907,0,0,0-4.90333.00518L222.51366,360.64385a2.01237,2.01237,0,0,0,.00368,3.4864l52.86126,30.41452a4.907,4.907,0,0,0,4.90333-.00518L408.473,320.42227A2.01237,2.01237,0,0,0,408.46933,316.93587Z"/>
          <g>
            <path class="cls-35" d="M370.33342,298.40348l-.00615,25.4441a2.22121,2.22121,0,0,1-1.11913,1.892l-12.8696,7.41823a6.7483,6.7483,0,0,1-6.74416-.00232l-11.9091-6.87572a2.20661,2.20661,0,0,1-1.09868-1.73969l-.02551-25.62267Z"/>
            <path class="cls-35" d="M356.33791,307.797l12.86966-7.41825a2.24941,2.24941,0,0,0,.00137-3.89689l-11.9091-6.87572a6.74824,6.74824,0,0,0-6.74413-.00237L337.686,297.022a2.24941,2.24941,0,0,0-.00137,3.89689l11.9091,6.87572A6.74824,6.74824,0,0,0,356.33791,307.797Z"/>
          </g>
          <g>
            <polygon class="cls-36" points="299.048 334.544 344.51 308.254 344.51 337.548 299.048 363.838 299.048 334.544"/>
            <polygon class="cls-37" points="283.904 355.078 283.904 325.783 299.048 334.544 299.048 363.838 283.904 355.078"/>
            <polygon class="cls-9" points="283.904 325.783 329.382 299.502 344.51 308.254 299.048 334.544 283.904 325.783"/>
          </g>
        </g>
        <g>
          <g>
            <path class="cls-35" d="M376.40291,355.99393a6.464,6.464,0,0,0-2.02971-3.469,2.35415,2.35415,0,0,0-2.591-.65126l-70.59258,40.72364,3.90146,6.75817,70.62714-40.74295-.00183-.00305A2.41865,2.41865,0,0,0,376.40291,355.99393Z"/>
            <g>
              <path class="cls-38" d="M356.56233,369.66257c6.06588.28979,19.3972,6.48344,23.21213,10.516,0,0-12.30059,15.03246-20.039,9.32019s-9.474-16.20443-9.474-16.20443"/>
              <path class="cls-38" d="M403.05045,409.37881c-7.356-7.29089-18.03186-21.22166-27.593-32.71129l-.27669-2.669a4.27629,4.27629,0,0,0-2.10749-3.23857l-4.06042-2.34349v-1.13108c0-.52888.25225-.85439.651-.86253.89507-.00815,3.621-.04068,3.621-4.11739a8.34063,8.34063,0,0,0-.31736-2.11563,10.50369,10.50369,0,0,0-4.58935-6.3551c-.00815-.00815-.00815-.01629-.01629-.01629-3.27924-1.90411-5.07756.00814-5.13453,2.791a.72765.72765,0,0,0,.01629.18714l1.87153-1.08221a1.655,1.655,0,0,1,1.41585-.81371,3.43948,3.43948,0,0,1,1.83086.55332,7.68231,7.68231,0,0,1,3.45019,5.40307,5.9073,5.9073,0,0,1,.04067.62652c0,2.71783-1.51354,3.084-2.83985,3.10025-.87882.01629-1.43214.73236-1.43214,1.87158v1.131l-2.57137-1.48906a1.88125,1.88125,0,0,0-2.791,1.32636l-.45567,2.83985c-2.376.14646-4.79279.34989-7.18511.537l-10.42366,6.00521c6.47717-.3336,12.7102-2.14007,18.17023-3.0189,3.32-.537,7.58381,1.9285,10.90378,6.29819,6.20864,8.16966,13.41,18.67468,20.83919,27.13732l-51.28838-29.611-3.84885,2.21332,30.87229,17.8203,35.08731,20.26148c.86254.61028,1.66.30107,1.66-.74051A11.84646,11.84646,0,0,0,403.05045,409.37881Z"/>
              <path class="cls-39" d="M356.56233,369.66257c-1.34909,16.03394,14.639,22.80446,22.5466,9.87459,3.67152,2.5123,23.1756,24.31551,27.44048,33.15273,3.26338,6.762,2.7656,35.18669,2.7656,35.18669-5.936,3.67551-14.1342,3.57832-17.72268,1.38129L381.739,514.10213,341.198,490.61463V414.44722s-23.41285-15.04977-23.29808-15.0944c.05666-.022,12.77649-14.75924,12.77649-14.75924l24.8972-14.36073Z"/>
              <path class="cls-40" d="M386.75887,445.59617l.6764-13.3024,0,0a14.12381,14.12381,0,0,0-5.69631,11.334l0,70.47437c2.55991,1.74662,9.8534.13421,9.8534-5.69629l-.00007-59.148A14.74223,14.74223,0,0,1,386.75887,445.59617Z"/>
            </g>
            <g>
              <path class="cls-37" d="M344.75124,376.435c6.06588.2898,19.3972,6.48345,23.21213,10.516,0,0-12.30059,15.03247-20.039,9.3202s-9.474-16.20443-9.474-16.20443"/>
              <path class="cls-38" d="M391.23937,416.15127c-7.356-7.29089-18.03187-21.22166-27.593-32.71129l-.27669-2.669a4.27626,4.27626,0,0,0-2.10749-3.23857l-4.06042-2.3435v-1.13107c0-.52888.25225-.85439.651-.86253.89507-.00815,3.621-.04068,3.621-4.11739a8.34121,8.34121,0,0,0-.31736-2.11564,10.50375,10.50375,0,0,0-4.58936-6.35509c-.00814-.00815-.00814-.01629-.01629-.01629-3.27924-1.90412-5.07756.00814-5.13453,2.791a.72754.72754,0,0,0,.01629.18713l1.87153-1.0822a1.655,1.655,0,0,1,1.41586-.81371,3.43945,3.43945,0,0,1,1.83085.55332,7.68228,7.68228,0,0,1,3.45019,5.40307,5.9073,5.9073,0,0,1,.04067.62652c0,2.71783-1.51354,3.084-2.83985,3.10025-.87882.01629-1.43214.73236-1.43214,1.87158v1.131l-2.57136-1.48906a1.88124,1.88124,0,0,0-2.791,1.32636l-.45568,2.83985c-2.376.14646-4.79278.34989-7.1851.537l-10.42367,6.00521c6.47718-.3336,12.7102-2.14007,18.17023-3.0189,3.32-.537,7.58382,1.9285,10.90378,6.29819,6.20864,8.16966,13.41,18.67468,20.83919,27.13732l-51.28838-29.611-3.84885,2.21332L357.991,404.41748,393.07837,424.679c.86253.61028,1.65995.30107,1.65995-.74051A11.84644,11.84644,0,0,0,391.23937,416.15127Z"/>
              <path class="cls-41" d="M344.75124,376.435c-1.34909,16.034,14.639,22.80446,22.5466,9.8746,3.67152,2.5123,23.1756,24.31551,27.44048,33.15273,3.26338,6.762,2.7656,35.18669,2.7656,35.18669-5.936,3.67551-14.1342,3.57832-17.72268,1.38129l-9.85338,64.84426-40.54093-23.4875V421.21967s-23.41284-15.04976-23.29808-15.09439c.05666-.022,12.7765-14.75924,12.7765-14.75924l24.8972-14.36073Z"/>
              <path class="cls-37" d="M374.82853,452.48788l.6764-13.3024,0,0a14.12381,14.12381,0,0,0-5.69631,11.334l-.00009,70.4744c2.4945,2.15864,9.66736-.08409,9.85341-5.6963l.00006-59.148A14.74223,14.74223,0,0,1,374.82853,452.48788Z"/>
            </g>
            <g>
              <path class="cls-42" d="M333.1258,383.17071c6.06588.28979,19.3972,6.48344,23.21212,10.516,0,0-12.30058,15.03246-20.039,9.32019s-9.474-16.20443-9.474-16.20443"/>
              <path class="cls-38" d="M379.61392,422.887c-7.356-7.29089-18.03186-21.22166-27.593-32.71129l-.27668-2.669a4.27628,4.27628,0,0,0-2.10749-3.23856l-4.06042-2.3435v-1.13108c0-.52888.25225-.85439.651-.86253.89506-.00815,3.621-.04068,3.621-4.11739a8.34063,8.34063,0,0,0-.31736-2.11563,10.50375,10.50375,0,0,0-4.58935-6.3551c-.00815-.00815-.00815-.01629-.01629-.01629-3.27924-1.90411-5.07757.00814-5.13453,2.791a.72761.72761,0,0,0,.01629.18714l1.87153-1.08221a1.655,1.655,0,0,1,1.41585-.81371,3.43948,3.43948,0,0,1,1.83086.55332,7.68227,7.68227,0,0,1,3.45018,5.40307,5.9048,5.9048,0,0,1,.04068.62652c0,2.71783-1.51354,3.084-2.83985,3.10025-.87883.01629-1.43215.73236-1.43215,1.87158v1.131l-2.57136-1.48906a1.88124,1.88124,0,0,0-2.791,1.32636l-.45568,2.83985c-2.376.14646-4.79278.34989-7.1851.537L320.71735,390.314c6.47717-.3336,12.71019-2.14007,18.17023-3.0189,3.32-.537,7.58381,1.9285,10.90378,6.29819,6.20863,8.16966,13.41,18.67468,20.83918,27.13732l-51.28837-29.611-3.84885,2.21332,30.87229,17.8203,35.08731,20.26148c.86254.61028,1.66.30107,1.66-.74051A11.84646,11.84646,0,0,0,379.61392,422.887Z"/>
              <path class="cls-43" d="M333.1258,383.17071c-1.34909,16.03394,14.639,22.80446,22.5466,9.87459,3.67152,2.5123,23.1756,24.31551,27.44048,33.15273,3.26337,6.762,2.7656,35.18669,2.7656,35.18669-5.936,3.67551-14.1342,3.57832-17.72268,1.38129l-9.85338,64.84426-40.54093-23.4875V427.95536s-23.41285-15.04976-23.29808-15.0944c.05666-.022,12.77649-14.75924,12.77649-14.75924L332.1371,383.741Z"/>
              <path class="cls-35" d="M363.32234,459.10431l.6764-13.3024,0,0c-3.584,2.66488-5.69631,10.98291-5.69631,15.449l.00005,66.35933c3.29283,1.8225,9.8534-.72957,9.8534-5.69629l-.00007-59.148A14.74223,14.74223,0,0,1,363.32234,459.10431Z"/>
            </g>
          </g>
          <g>
            <path class="cls-35" d="M341.25266,376.18259a6.464,6.464,0,0,0-2.02971-3.469,2.35415,2.35415,0,0,0-2.591-.65126L266.03936,412.786l3.90146,6.75818,70.62714-40.743-.00183-.00305A2.41865,2.41865,0,0,0,341.25266,376.18259Z"/>
            <g>
              <path class="cls-38" d="M321.41208,389.85122c6.06587.2898,19.39719,6.48344,23.21212,10.516,0,0-12.30058,15.03246-20.039,9.3202s-9.474-16.20444-9.474-16.20444"/>
              <path class="cls-38" d="M367.9002,429.56746c-7.356-7.29089-18.03187-21.22166-27.593-32.71129l-.27668-2.669a4.27631,4.27631,0,0,0-2.10749-3.23856l-4.06043-2.3435V387.474c0-.52889.25225-.85439.651-.86254.89506-.00814,3.621-.04067,3.621-4.11739a8.34108,8.34108,0,0,0-.31736-2.11563,10.50373,10.50373,0,0,0-4.58936-6.3551c-.00814-.00815-.00814-.01629-.01629-.01629-3.27923-1.90411-5.07756.00814-5.13452,2.791a.72761.72761,0,0,0,.01629.18714l1.87153-1.0822a1.65494,1.65494,0,0,1,1.41585-.81372,3.43954,3.43954,0,0,1,1.83085.55332,7.68229,7.68229,0,0,1,3.45019,5.40307,5.90482,5.90482,0,0,1,.04068.62653c0,2.71782-1.51355,3.084-2.83986,3.10024-.87882.01629-1.43214.73236-1.43214,1.87158v1.131l-2.57136-1.48906a1.88124,1.88124,0,0,0-2.791,1.32635l-.45568,2.83985c-2.376.14647-4.79278.34989-7.1851.537l-10.42367,6.00521c6.47718-.3336,12.7102-2.14007,18.17024-3.01889,3.32-.537,7.58381,1.92849,10.90377,6.29818,6.20864,8.16966,13.41,18.67468,20.83919,27.13732l-51.28838-29.611-3.84884,2.21333,30.87228,17.82029,35.08732,20.26148c.86253.61029,1.66.30107,1.66-.74051A11.84646,11.84646,0,0,0,367.9002,429.56746Z"/>
              <path class="cls-44" d="M321.41208,389.85122c-1.34909,16.03394,14.639,22.80446,22.5466,9.8746,3.67152,2.51229,23.17559,24.3155,27.44048,33.15272,3.26337,6.762,2.7656,35.18669,2.7656,35.18669-5.936,3.67551-14.13421,3.57832-17.72268,1.38129l-9.85338,64.84427-40.54094-23.4875V434.63587s-23.41284-15.04976-23.29808-15.09439c.05666-.022,12.7765-14.75925,12.7765-14.75925l24.8972-14.36073Z"/>
              <path class="cls-40" d="M351.60862,465.78482l.67639-13.30239h0a14.12381,14.12381,0,0,0-5.69631,11.334l-.00006,70.47439c3.097,2.14083,9.8534-.46924,9.8534-5.6963l0-59.148A14.742,14.742,0,0,1,351.60862,465.78482Z"/>
            </g>
            <g>
              <path class="cls-37" d="M309.601,396.62368c6.06588.2898,19.3972,6.48344,23.21212,10.516,0,0-12.30058,15.03246-20.039,9.32019s-9.474-16.20443-9.474-16.20443"/>
              <path class="cls-38" d="M356.08911,436.33992c-7.356-7.29089-18.03186-21.22166-27.593-32.71129l-.27668-2.669a4.27628,4.27628,0,0,0-2.10749-3.23856l-4.06042-2.3435v-1.13108c0-.52888.25225-.85439.651-.86253.89506-.00815,3.621-.04068,3.621-4.11739a8.34063,8.34063,0,0,0-.31736-2.11563,10.50375,10.50375,0,0,0-4.58935-6.3551c-.00815-.00815-.00815-.01629-.01629-.01629-3.27924-1.90411-5.07757.00814-5.13453,2.791a.72761.72761,0,0,0,.01629.18714l1.87153-1.08221a1.655,1.655,0,0,1,1.41585-.81371,3.43957,3.43957,0,0,1,1.83086.55332,7.68228,7.68228,0,0,1,3.45018,5.40307,5.9048,5.9048,0,0,1,.04068.62652c0,2.71783-1.51355,3.084-2.83985,3.10025-.87883.01629-1.43215.73236-1.43215,1.87158v1.131L318.048,393.0585a1.88124,1.88124,0,0,0-2.791,1.32636l-.45568,2.83985c-2.376.14646-4.79278.34989-7.1851.537L297.19254,403.767c6.47717-.3336,12.71019-2.14007,18.17023-3.01889,3.32-.537,7.58381,1.92849,10.90378,6.29818,6.20863,8.16966,13.41,18.67468,20.83918,27.13732l-51.28837-29.611-3.84885,2.21332,30.87229,17.8203,35.08731,20.26148c.86254.61028,1.66.30107,1.66-.74051A11.84646,11.84646,0,0,0,356.08911,436.33992Z"/>
              <path class="cls-45" d="M309.601,396.62368c-1.34909,16.03394,14.639,22.80446,22.5466,9.87459,3.67152,2.5123,23.1756,24.31551,27.44048,33.15273,3.26337,6.762,2.7656,35.18669,2.7656,35.18669-5.936,3.67551-14.1342,3.57832-17.72268,1.38129l-9.85338,64.84427-40.54093-23.48751V441.40833s-23.41285-15.04976-23.29808-15.0944c.05666-.022,12.77649-14.75924,12.77649-14.75924l24.8972-14.36073Z"/>
              <path class="cls-37" d="M339.67828,472.67653l.67639-13.30239h0a14.12381,14.12381,0,0,0-5.69631,11.334l0,70.47441c3.88769,1.94186,9.8534.43382,9.8534-5.69629l-.00005-59.148A14.742,14.742,0,0,1,339.67828,472.67653Z"/>
            </g>
            <g>
              <path class="cls-42" d="M297.97554,403.35936c6.06588.2898,19.3972,6.48344,23.21213,10.516,0,0-12.30059,15.03246-20.039,9.3202s-9.474-16.20444-9.474-16.20444"/>
              <path class="cls-38" d="M344.46367,443.0756c-7.356-7.29089-18.03187-21.22166-27.593-32.71129l-.27669-2.669a4.27627,4.27627,0,0,0-2.10748-3.23856l-4.06043-2.3435v-1.13107c0-.52889.25225-.85439.651-.86254.89507-.00814,3.621-.04067,3.621-4.11739a8.34108,8.34108,0,0,0-.31736-2.11563,10.50377,10.50377,0,0,0-4.58936-6.3551c-.00814-.00814-.00814-.01629-.01629-.01629-3.27924-1.90411-5.07756.00815-5.13453,2.791a.72761.72761,0,0,0,.01629.18714l1.87153-1.0822a1.655,1.655,0,0,1,1.41586-.81372,3.43963,3.43963,0,0,1,1.83085.55332,7.68229,7.68229,0,0,1,3.45019,5.40307,5.90746,5.90746,0,0,1,.04068.62653c0,2.71782-1.51355,3.084-2.83986,3.10024-.87882.01629-1.43214.73236-1.43214,1.87158v1.131l-2.57136-1.48906a1.88124,1.88124,0,0,0-2.791,1.32635l-.45568,2.83985c-2.376.14647-4.79278.3499-7.1851.537l-10.42367,6.00521c6.47718-.3336,12.7102-2.14007,18.17023-3.01889,3.32-.537,7.58382,1.92849,10.90378,6.29818,6.20864,8.16966,13.41,18.67468,20.83919,27.13732l-51.28838-29.611-3.84884,2.21333,30.87228,17.82029,35.08732,20.26148c.86253.61029,1.66.30107,1.66-.74051A11.84644,11.84644,0,0,0,344.46367,443.0756Z"/>
              <path class="cls-43" d="M297.97554,403.35936c-1.34908,16.03394,14.639,22.80446,22.5466,9.8746,3.67153,2.51229,23.1756,24.3155,27.44048,33.15272,3.26338,6.762,2.7656,35.18669,2.7656,35.18669-5.936,3.67551-14.1342,3.57832-17.72267,1.3813l-9.85339,64.84426-40.54093-23.4875V448.144s-23.41284-15.04976-23.29808-15.09439c.05666-.022,12.7765-14.75925,12.7765-14.75925l24.8972-14.36073Z"/>
              <path class="cls-35" d="M328.17209,479.293l.67639-13.30239h0c-3.584,2.66488-5.69632,10.98291-5.69632,15.449l0,66.35934c3.70975,1.84411,10.09974-.42434,9.8534-5.6963l0-59.148A14.742,14.742,0,0,1,328.17209,479.293Z"/>
            </g>
            <path class="cls-46" d="M328.85415,452.09762c-7.356-7.29089-18.03187-21.22166-27.593-32.71129l-.27668-2.669a4.27634,4.27634,0,0,0-2.10749-3.23857l-4.06042-2.34349v-1.13108c0-.52888.25224-.85439.651-.86253.89506-.00815,3.621-.04068,3.621-4.11739a8.34108,8.34108,0,0,0-.31736-2.11563,10.50373,10.50373,0,0,0-4.58935-6.3551c-.00815-.00815-.00815-.01629-.01629-.01629-3.27924-1.90411-5.07757.00814-5.13453,2.791a.72765.72765,0,0,0,.01629.18714l1.87153-1.08221a1.655,1.655,0,0,1,1.41585-.81371,3.4395,3.4395,0,0,1,1.83086.55332,7.68227,7.68227,0,0,1,3.45018,5.40307,5.9048,5.9048,0,0,1,.04068.62652c0,2.71783-1.51355,3.084-2.83985,3.10025-.87883.01629-1.43215.73236-1.43215,1.87158v1.131L290.813,408.8162a1.88124,1.88124,0,0,0-2.791,1.32636l-.45568,2.83985c-2.376.14646-4.79278.34989-7.1851.537l-10.42367,6.00521c6.47718-.3336,12.7102-2.14007,18.17024-3.0189,3.32-.537,7.58381,1.9285,10.90377,6.29819,6.20864,8.16966,13.41,18.67468,20.83919,27.13732l-51.28837-29.611-3.84885,2.21332,30.87228,17.8203,35.08732,20.26148c.86253.61028,1.66.30107,1.66-.74051A11.84646,11.84646,0,0,0,328.85415,452.09762Z"/>
          </g>
        </g>
      </g>
      <path class="cls-47" d="M273.9046,335.50037V682.75045a4.7108,4.7108,0,0,0,2.31787-.62295h.01465c.01442,0,.01442-.01442.02884-.01442l11.22731-6.49007,131.49544-76.026a5.83431,5.83431,0,0,0,2.89734-5.01245V249.94212ZM413.89662,591.404,281.89411,667.73425l.00015-79.45947V341.17271l77.85133-44.95219,54.151-31.26213Z"/>
      <path class="cls-48" d="M209.30864,298.34206V642.97015a5.82268,5.82268,0,0,0,2.91184,5.02683l48.02334,27.62609,11.28509,6.49a.05324.05324,0,0,0,.0435.01451l.01441.0145a4.69675,4.69675,0,0,0,2.31792.60841V335.5004Z"/>
      <path class="cls-49" d="M426.57574,240.77144v8.57688c.00062.03041.00062.06021,0,.09063v.11388l-.01335-.0061a2.33641,2.33641,0,0,1-1.16793,1.90624L274.01469,338.97751a5.79454,5.79454,0,0,1-5.79025.0061L205.801,303.06739a2.34916,2.34916,0,0,1-1.18651-2.01915l-.00477.001v-8.86584Z"/>
      <path class="cls-50" d="M425.39014,238.644l-62.42341-35.91625a5.79466,5.79466,0,0,0-5.7903.00611L205.79668,290.25834a2.37639,2.37639,0,0,0,.00434,4.11706l62.42341,35.91624a5.79466,5.79466,0,0,0,5.7903-.00611L425.39448,242.761A2.37638,2.37638,0,0,0,425.39014,238.644Z"/>
    </g>
    <path class="cls-51" d="M541.08083,249.01152l.00277.02906a3.20372,3.20372,0,0,0-3.02135-1.45422L423.1176,259.57129a3.21839,3.21839,0,0,0-2.88458,3.20105V585.8894a3.17931,3.17931,0,0,0,.51025,1.712l-.02463-.01176,1.71844,2.82768.67553-1.32909a3.243,3.243,0,0,0,.67253.00222l114.94465-11.98493a3.2184,3.2184,0,0,0,2.88459-3.20105V251.818l1.0733-.14764Z"/>
    <path class="cls-52" d="M421.886,265.49846V588.61553a3.21839,3.21839,0,0,0,3.55215,3.201l114.94462-11.98492a3.21839,3.21839,0,0,0,2.88463-3.201V253.51354a3.21838,3.21838,0,0,0-3.55215-3.201L424.77063,262.29743A3.21838,3.21838,0,0,0,421.886,265.49846Z"/>
    <path class="cls-53" d="M432.3183,277.07856V512.64291a2.66517,2.66517,0,0,0,2.94156,2.6508l95.18646-9.9248a2.66517,2.66517,0,0,0,2.38878-2.6508V267.15376a2.66517,2.66517,0,0,0-2.94156-2.6508l-95.18646,9.9248A2.66517,2.66517,0,0,0,432.3183,277.07856Z"/>
    <path class="cls-54" d="M432.3183,529.10119v42.83334a2.66517,2.66517,0,0,0,2.94156,2.6508l95.18646-9.9248a2.66517,2.66517,0,0,0,2.38878-2.6508V519.17639a2.66516,2.66516,0,0,0-2.94156-2.65079l-95.18646,9.92479A2.66518,2.66518,0,0,0,432.3183,529.10119Z"/>
  </g>
  <g>
    <g>
      <path class="cls-55" d="M140.83139,675.63851v83.22386a1.88192,1.88192,0,0,1-2.82249,1.63l-52.78024-30.4512a5.64574,5.64574,0,0,1-2.824-4.89V645.7129"/>
      <path class="cls-56" d="M215.76358,632.4952v83.22385a1.88191,1.88191,0,0,1-2.82248,1.63L144.75254,678.002a5.64572,5.64572,0,0,1-2.824-4.89V593.6737"/>
      <g>
        <path class="cls-57" d="M79.99145,603.42709v45.362a3.78124,3.78124,0,0,0,1.88816,3.28863l55.88861,32.315a7.56335,7.56335,0,0,0,3.79208,1.00708l15.40831-81.9727Z"/>
        <path class="cls-58" d="M141.5603,603.42709v81.9727a7.56371,7.56371,0,0,0,3.79246-1.00708l71.281-41.21086a3.76437,3.76437,0,0,0,1.9041-3.28863v-45.362Z"/>
        <polygon class="cls-59" points="147.38 673.237 212.718 635.479 212.696 606.55 147.38 644.321 147.38 673.237"/>
        <path class="cls-60" d="M218.53784,586.10679v8.27781a3.75351,3.75351,0,0,1-1.89252,3.28014l-71.29216,41.21512a7.57794,7.57794,0,0,1-7.58524,0l-55.884-32.31923a3.75351,3.75351,0,0,1-1.89252-3.28014v-8.27781Z"/>
        <path class="cls-61" d="M81.884,591.72255l71.29227-41.21506a7.57765,7.57765,0,0,1,7.58516,0l55.884,32.31917a3.78883,3.78883,0,0,1,0,6.56026L145.35309,630.602a7.57763,7.57763,0,0,1-7.58515,0L81.884,598.28281A3.78882,3.78882,0,0,1,81.884,591.72255Z"/>
      </g>
    </g>
    <g>
      <g>
        <path class="cls-62" d="M122.73935,586.12212c2.8426-6.9357,13.625-12.103,26.52533-12.103s23.68273,5.16733,26.52523,12.103h.75688v3.62363c0,8.68561-12.21457,15.72667-27.28211,15.72667s-27.28222-7.04106-27.28222-15.72667v-3.62363Z"/>
        <ellipse class="cls-63" cx="149.26463" cy="585.58838" rx="27.28218" ry="15.72671"/>
      </g>
      <path class="cls-64" d="M152.83942,541.8279v40.498c0,1.13808-1.60048,2.06067-3.57479,2.06067s-3.5748-.92259-3.5748-2.06067v-40.498Z"/>
      <path class="cls-65" d="M185.95608,506.363v33.63465c0,11.64607-16.42726,21.087-36.69148,21.087s-36.69147-9.441-36.69147-21.087V506.363Z"/>
      <path class="cls-66" d="M186.44836,500.61722v34.08593c0,11.80232-16.64766,21.37-37.18376,21.37s-37.18375-9.56764-37.18375-21.37V500.61722Z"/>
      <g>
        <ellipse class="cls-9" cx="149.26463" cy="500.61733" rx="37.18377" ry="21.36998"/>
        <path class="cls-67" d="M157.283,519.82115a36.30036,36.30036,0,0,1-16.03664,0V508.34353H157.283Z"/>
        <ellipse class="cls-68" cx="149.26463" cy="508.34358" rx="8.01835" ry="4.62215"/>
        <path class="cls-18" d="M149.26464,481.08008c19.49263,0,35.35086,8.76433,35.35086,19.5372s-15.85823,19.53735-35.35086,19.53735-35.35085-8.76448-35.35085-19.53735,15.85823-19.5372,35.35085-19.5372m0-1.83276c-20.53593,0-37.18376,9.56769-37.18376,21.37,0,11.80242,16.64783,21.37011,37.18376,21.37011s37.18376-9.56769,37.18376-21.37011c0-11.80227-16.64782-21.37-37.18376-21.37Z"/>
      </g>
    </g>
  </g>
  <g>
    <g>
      <circle class="cls-69" cx="780.91633" cy="340.04253" r="201.18409"/>
      <path class="cls-70" d="M982.09405,340.04118c0,111.11487-90.06965,201.1844-201.1843,201.1844a200.63394,200.63394,0,0,1-145.31794-62.0637q-4.11639-4.27995-7.96037-8.81427a200.54981,200.54981,0,0,1-38.56483-69.58769q-1.39032-4.36166-2.56235-8.79608a200.5723,200.5723,0,0,1-6.77881-51.92266q0-8.94162.78136-17.665c.23649-2.96235.56349-5.88831.96326-8.81427a199.62967,199.62967,0,0,1,22.62634-69.58758c1.63591-2.98054,3.326-5.9065,5.107-8.79619a201.88093,201.88093,0,0,1,71.4774-69.60578q8.34195-4.79792,17.13825-8.79618a200.17192,200.17192,0,0,1,83.09073-17.91938C892.0244,138.85677,982.09405,228.9263,982.09405,340.04118Z"/>
      <polygon class="cls-71" points="851.057 212.866 798.512 214.567 851.057 218.031 851.057 212.866"/>
      <polygon class="cls-71" points="851.057 495.351 717.929 500.399 851.057 503.802 851.057 495.351"/>
      <polygon class="cls-71" points="581.586 275.192 707.801 277.582 579.725 282.068 581.586 275.192"/>
      <polygon class="cls-71" points="851.057 334.769 721.158 336.919 851.057 342.066 851.057 334.769"/>
      <path class="cls-71" d="M851.05651,151.43359v5.34256H697.819q-8.80518,3.98013-17.13825,8.79618H851.05651v69.60578H609.20337c-1.781,2.88969-3.471,5.81565-5.107,8.79619h246.9601v69.58758H581.47007c-.39977,2.926-.72677,5.85192-.96326,8.81427h270.5497v69.58769H586.50426q1.172,4.44353,2.56235,8.79608h261.9899v69.58769H627.63144q3.8442,4.52522,7.96037,8.81427h215.4647v49.48955q4.45848-1.65872,8.81626-3.51775V154.95133Q855.51677,153.09062,851.05651,151.43359Z"/>
      <path class="cls-72" d="M859.87277,154.95122V525.13379a201.25727,201.25727,0,0,0,0-370.18257Z"/>
      <path class="cls-73" d="M884.77506,243.886l18.19376,8.02532a10.24426,10.24426,0,0,0,11.51813-2.27182l3.49865-3.6379a31.57914,31.57914,0,0,0,8.50818-17.47769l3.20074-22.68354A10.24429,10.24429,0,0,0,926.843,197.214l-28.62265-29.00943a10.2442,10.2442,0,0,0-5.15489-2.82381l-2.01862-.43064A10.24426,10.24426,0,0,0,878.66522,174.969V234.5131A10.24426,10.24426,0,0,0,884.77506,243.886Z"/>
      <path class="cls-74" d="M899.87786,245.26043a10.244,10.244,0,0,0,11.51794-2.27184l3.49877-3.63787a31.57873,31.57873,0,0,0,8.50812-17.47768l3.20083-22.68358a10.23324,10.23324,0,0,0,.06522-2.15215l-28.44853-28.83278a10.24424,10.24424,0,0,0-5.15487-2.8238l-2.01838-.4306a10.24436,10.24436,0,0,0-12.38182,10.01879v59.54417c0,.23549.0355.4641.05125.69671a10.18819,10.18819,0,0,0,2.96767,2.02537Z"/>
      <path class="cls-73" d="M935.14352,235.84465l-2.65359,17.43788a10.24448,10.24448,0,0,0-.00637,3.03987l4.46159,30.16884a22.14733,22.14733,0,0,0,13.1784,17.11381l17.16064,7.36094a10.24425,10.24425,0,0,0,14.2678-8.86372l.43855-8.14216a10.24436,10.24436,0,0,0-.56932-3.96081l-8.95363-25.36581a10.24485,10.24485,0,0,0-.75488-1.65393l-17.13908-30.14113a10.2445,10.2445,0,0,0-.78539-1.18227l-.39721-.51638A10.24426,10.24426,0,0,0,935.14352,235.84465Z"/>
      <path class="cls-75" d="M972.46761,264.63347a10.23933,10.23933,0,0,0-.755-1.65388l-17.13891-30.14124a10.28754,10.28754,0,0,0-.78535-1.18223l-.39733-.51635a10.20731,10.20731,0,0,0-14.01817-2.12054l-2.56257,16.83908a10.25124,10.25124,0,0,0-.00621,3.03988l4.46137,30.16886A22.14794,22.14794,0,0,0,954.444,296.18079l17.16065,7.36093a10.16954,10.16954,0,0,0,9.90022-1.03381c.01264-.13644.03971-.26722.047-.40565l.43882-8.14218a10.245,10.245,0,0,0-.56949-3.96077Z"/>
      <path class="cls-73" d="M939.46272,329.54762l.58171,13.37939a10.24426,10.24426,0,0,0,5.51063,8.64506l22.34164,11.61062a10.24426,10.24426,0,0,0,14.69794-6.7524l.70214-2.9958a10.24428,10.24428,0,0,0-1.1252-7.49944l-9.23144-15.82532a10.24428,10.24428,0,0,0-4.81336-4.25417l-14.39406-6.16888A10.24426,10.24426,0,0,0,939.46272,329.54762Z"/>
      <path class="cls-76" d="M942.13218,329.98739l.45429,10.44852a8.00018,8.00018,0,0,0,4.30347,6.75129l17.44753,9.06722a8.00017,8.00017,0,0,0,11.47823-5.27323l.54833-2.33955a8.00016,8.00016,0,0,0-.87872-5.85662l-7.20921-12.35865a8.00012,8.00012,0,0,0-3.759-3.32226l-11.24092-4.81754A8.00017,8.00017,0,0,0,942.13218,329.98739Z"/>
      <path class="cls-73" d="M877.3845,359.59169l9.56586,8.44575a18.50273,18.50273,0,0,0,24.29089.17521l11.15161-9.56312a19.7482,19.7482,0,0,0,6.75183-17.34527l-6.48694-54.02362a24.05132,24.05132,0,0,0-14.60517-19.32377l-17.69371-7.39494a10.24426,10.24426,0,0,0-14.19078,9.1714l-2.24379,81.89838A10.24426,10.24426,0,0,0,877.3845,359.59169Z"/>
      <path class="cls-77" d="M925.264,332.97748l-6.48686-54.02357a24.05737,24.05737,0,0,0-.544-2.92829,24.02385,24.02385,0,0,0-10.18063-8.06875l-17.69376-7.395a10.24433,10.24433,0,0,0-14.19077,9.17145l-2.24377,81.89829.00022.00466,9.14526,8.0744a18.50274,18.50274,0,0,0,24.29087.17515l11.15167-9.56311A19.74864,19.74864,0,0,0,925.264,332.97748Z"/>
      <path class="cls-73" d="M917.82062,393.58475l10.9732,17.48273a10.24426,10.24426,0,0,0,9.93331,4.72086l16.73859-2.06881a10.24428,10.24428,0,0,0,6.93882-4.02034l9.45-12.6A10.24425,10.24425,0,0,0,972.914,386.5605l-3.77564-7.95582a10.24425,10.24425,0,0,0-7.35183-5.67376l-25.618-4.84343a10.24424,10.24424,0,0,0-9.98873,3.77567l-7.76812,9.9853A10.24425,10.24425,0,0,0,917.82062,393.58475Z"/>
      <path class="cls-78" d="M921.4961,390.12255l9.49355,15.12532a8.86288,8.86288,0,0,0,8.59388,4.08429l14.48152-1.78985a8.86289,8.86289,0,0,0,6.00317-3.47823l8.17572-10.90095a8.86291,8.86291,0,0,0,.91665-9.11766l-3.26653-6.883a8.86286,8.86286,0,0,0-6.36049-4.9087L937.37,368.0634a8.8629,8.8629,0,0,0-8.64182,3.26655l-6.72065,8.63886A8.86291,8.86291,0,0,0,921.4961,390.12255Z"/>
      <path class="cls-73" d="M897.37,484.29351l4.06594-25.267a10.2443,10.2443,0,0,1,2.71574-5.45822l16.03157-16.73885a10.24425,10.24425,0,0,1,6.83016-3.14269l14.52049-.8067a10.24426,10.24426,0,0,1,9.09984,15.89918l-22.069,33.20286a10.24408,10.24408,0,0,1-2.30327,2.46274l-12.549,9.60964A10.24426,10.24426,0,0,1,897.37,484.29351Z"/>
      <path class="cls-79" d="M899.32737,479.75283l3.63972-22.61823a9.17032,9.17032,0,0,1,2.43105-4.886l14.351-14.98413a9.17038,9.17038,0,0,1,6.11415-2.81325l12.99832-.72212a9.17036,9.17036,0,0,1,8.14591,14.23248L927.252,477.68375a9.17,9.17,0,0,1-2.06182,2.20458l-11.23354,8.60226A9.17036,9.17036,0,0,1,899.32737,479.75283Z"/>
      <path class="cls-80" d="M857.32284,526.19434a200.40263,200.40263,0,0,0,24.38871-12.00922V165.89989a200.40409,200.40409,0,0,0-24.38871-12.00922Z"/>
    </g>
    <g>
      <polygon class="cls-81" points="826.27 440.84 792.26 543.156 683.894 526.194 619.298 460.681 826.27 440.84"/>
      <path class="cls-82" d="M811.44678,444.46852v2.99682A17.12163,17.12163,0,0,1,794.32515,464.587H625.266c-5.36164-6.379-9.57-13.10327-14.09479-20.11845Z"/>
      <polygon class="cls-82" points="792.26 543.156 772.307 543.156 765.038 439.372 799.529 439.372 792.26 543.156"/>
      <path class="cls-83" d="M830.20186,398.5769V431.586a12.88251,12.88251,0,0,1-12.88251,12.88251H611.17117a199.8611,199.8611,0,0,1-25.77082-58.77413h231.919A12.88251,12.88251,0,0,1,830.20186,398.5769Z"/>
    </g>
    <path class="cls-73" d="M899.50741,444.68138l12.36283-13.48673a10.24424,10.24424,0,0,0,1.87511-10.93254L905.67774,401.298a10.24428,10.24428,0,0,0-3.98675-4.67029l-19.97944-12.52079v77.95416l17.39713-16.96841Q899.31376,444.89264,899.50741,444.68138Z"/>
    <path class="cls-84" d="M896.15434,433.268l10.03343-10.94557a8.314,8.314,0,0,0,1.5218-8.87265l-6.54752-15.39092a8.314,8.314,0,0,0-3.23556-3.79031l-16.21494-10.16164V447.373l14.11918-13.77124Q895.99717,433.43946,896.15434,433.268Z"/>
    <path class="cls-85" d="M780.91632,140.71045a198.6546,198.6546,0,1,1-77.58362,15.65723,198.06084,198.06084,0,0,1,77.58362-15.65723m0-18.17383c-120.1253,0-217.5061,97.38037-217.5061,217.50586s97.3808,217.50635,217.5061,217.50635S998.42243,460.168,998.42243,340.04248s-97.3808-217.50586-217.50611-217.50586Z"/>
    <g>
      <g>
        <path class="cls-86" d="M693.95706,280.10813C644.54783,243.332,586.20728,211.15779,587.59392,159.03371c0,0,62.15119-21.654,85.069,17.01377S693.95706,280.10813,693.95706,280.10813Z"/>
        <path class="cls-87" d="M703.75721,275.19157c35.57432-75.22663,84.75969-114.45652,91.41054-180.32851,0,0-55.68155-26.91274-92.54806,33.77483C678.46534,168.39943,703.75721,275.19157,703.75721,275.19157Z"/>
        <path class="cls-88" d="M723.4351,286.01853c39.48375-32.71291,70.03906-66.20539,78.61883-105.45862,0,0-47.96577-13.97072-69.18713,17.32316S723.4351,286.01853,723.4351,286.01853Z"/>
        <path class="cls-89" d="M612.50134,169.706c41.14248,14.22973,72.49595,75.87255,86.61572,127.44892"/>
        <path class="cls-89" d="M768.719,108.76561c-40.83313,23.879-58.15628,70.53-66.81785,185.14114"/>
        <path class="cls-89" d="M782.35527,190.01469c-39.3555,22.59994-52.47845,57.09811-61.19755,105.98012"/>
      </g>
      <g>
        <polygon class="cls-81" points="637.524 293.907 587.57 386.666 664.235 386.666 637.524 293.907"/>
        <path class="cls-90" d="M751.367,386.26638H664.23533a10.93554,10.93554,0,0,1-10.79942-9.21547l-13.07128-82.06739H775.23771l-13.07128,82.06739A10.93555,10.93555,0,0,1,751.367,386.26638Z"/>
        <polygon class="cls-91" points="770.52 324.603 773.181 307.899 642.421 307.899 645.082 324.603 770.52 324.603"/>
        <rect class="cls-92" x="635.58109" y="288.178" width="144.44016" height="24.74735" rx="12.37366"/>
      </g>
    </g>
  </g>
  <g>
    <path class="cls-93" d="M502.9733,368.65686l-31.39816-32.2262a34.82324,34.82324,0,0,0-6.2241,19.87016c-.14419,11.504-12.7798,8.607-14.50947,25.778-.29047,2.88367,1.08435,12.29018-.00584,16.90083-1.46435,6.193-5.04144,8.16421-6.28434,15.462-1.8413,10.81146,2.55927,20.0531,7.73929,23.68851,10.7441,7.54036,18.65628,8.1873,27.75487,5.69367,10.10222-3.5376,13.29189-13.58026,16.90953-25.1697,2.5924-8.305-3.22693-21.28472-5.0668-28.51823C499.73163,376.876,502.9733,368.65686,502.9733,368.65686Z"/>
    <path class="cls-94" d="M491.9139,371.42993l19.03329-35.58825s5.81913,6.47752,6.76378,21.7802c.59991,9.71829,12.34342,13.0832,16.44968,23.4674,3.12249,7.89636,1.13319,16.714,4.37057,23.31675,2.68091,5.46782,9.17075,10.5516,11.09707,16.3853,3.36491,10.1904-.74076,18.41-5.47849,22.6056-10.16993,9.00609-21.79793,8.88282-30.89479,6.38289-10.09977-3.54457-11.74784-16.75649-15.35747-28.34843-2.58665-8.30674,3.24165-21.28248,5.08652-28.51472C495.14989,379.65126,491.9139,371.42993,491.9139,371.42993Z"/>
    <g>
      <g>
        <path class="cls-95" d="M479.12256,717.12664s6.13486,14.6033,3.69627,18.87447-7.689,4.56993-14.41323,7.20662-12.39739,6.69784-23.86607,5.42836-11.76447-8.13132-8.48118-13.05225l7.24-.61224,9.66452-4.11807,10.95689-10.04981Z"/>
        <path class="cls-96" d="M480.94273,714.46248s3.91334,14.33058,1.547,18.47516-7.46107,4.43447-13.986,6.993S456.47379,746.43,445.345,745.19813,432.4034,734.527,439.89592,732.756l4.24468-.81736,8.27709-5.80565,10.57522-9.74509Z"/>
        <path class="cls-95" d="M442.47037,732.28877c9.03916.71243,14.171,6.07806,13.247,13.14193l16.84432-6.91646c-.28759-11.05438-12.51063-19.05319-16.69747-16.16364Z"/>
      </g>
      <path class="cls-96" d="M443.16313,530.10537c-2.22889,77.94211,19.82978,186.28253,19.82978,186.28253.587,7.80671,18.32615,8.86766,18.687.62059.201-25.28148,2.30811-62.98646.4563-85.79212l6.22331-79.19611Z"/>
      <path class="cls-97" d="M443.16313,530.10537c-.818,28.60354,1.122,62.577,1.122,62.577,1.08508,15.775,41.64314,19.18677,42.787.481l1.2873-41.14309Z"/>
      <path class="cls-98" d="M487.24259,377.28647s-13.155-2.4463-22.85107,1.16394c-12,4.46809-26.75977,21.14782-26.75977,21.14782l-17.24631-18.19-5.06532,4.9952,9.34371,38.84246a11.1906,11.1906,0,0,0,18.46119,6.77941l17.37224-9.09117Z"/>
      <g>
        <path class="cls-95" d="M527.47968,748.94679s1.65824,7.95879,1.23826,11.823c-.53071,4.88306-1.63273,7.463-1.65114,10.66636-.04953,8.619-3.31743,15.909-9.50508,19.42377-12.58482,7.14849-19.10085-3.66447-16.9457-10.64887l4.04083-7.96051,7.15989-23.37478Z"/>
        <path class="cls-96" d="M527.47968,745.18219s1.07118,10.23251.58841,14.08939c-.605,4.83352-1.91266,8.812-2.35522,12.03249s-.13209,10.23707-6.27021,14.29669c-12.072,7.98413-21.96428.23334-18.13364-7.3619l3.34783-9.75291,7.15989-23.37478Z"/>
        <path class="cls-95" d="M501.01228,778.89724c3.54944-6.03731,19.82608-2.71818,22.50687,4.43074a58.51027,58.51027,0,0,0,3.31921-14.80859c-2.57251-10.97412-18.5398-11.79764-20.58237-5.47323Z"/>
      </g>
      <path class="cls-96" d="M528.43972,550.68578s1.86669,46.74336,1.82414,94.44548c4.46809,38.5532-2.07076,80.46809-2.78418,100.05093-.33686,6.921-14.51751,9.30283-15.6629-.071-12.74536-80.23486-25.30542-159.459-31.1189-201.89673Z"/>
      <path class="cls-95" d="M530.76906,598.66633s.26991-32.47529-.20381-57.26377-6.93389-52.03717-6.93389-52.03717l-73.52515-9.84033L448.541,530.10538l32.83472,32.09644,5.124,38.40039C488.9651,622.35709,530.84813,618.57807,530.76906,598.66633Z"/>
      <path class="cls-99" d="M499.26779,380.85809c-19.44879-9.48721-43.491-2.60935-45.364,25.14057L449.70272,484.989c0,12.1001,5.81912,21.39581,13.62046,28.1355,15.97383,13.8,64.76586,9.06383,63.67513-6.383L521.115,471.47169,534.03369,413.928C528.62026,398.65425,511.30141,386.72815,499.26779,380.85809Z"/>
      <g>
        <path class="cls-96" d="M506.11527,385.52223a12.42693,12.42693,0,0,0-.39234-1.18847c-2.24634-1.3208-4.42676-2.48633-6.45508-3.47559a38.03583,38.03583,0,0,0-18.533-3.96972,10.416,10.416,0,0,0-1.3833.89624c-7.0354,5.43481-7.0354,17.907,1.44361,22.04248C492.774,405.6697,509.00052,396.19924,506.11527,385.52223Z"/>
        <path class="cls-100" d="M482.20934,387.09733c.10242,2.78576,1.07538,5.40765,4.24009,6.268,6.42159,1.74568,13.5601-3.40026,13.05666-8.58213l-1.4844-13.75658-16.1839,3.22743Z"/>
      </g>
      <path class="cls-100" d="M539.2222,442.62551c2.62549,9.33007,4.953,18.18164,5.85608,24.74511l-6.77187-3.4734-6.41495-17.40264Z"/>
      <path class="cls-101" d="M534.03374,413.928c3.36179,9.92986,4.44289,15.50113,7.14662,26.90378,2.378,13.28241-24.94487,17.31809-27.14894,8.17021l-4.51393-13.49953C504.29291,415.58758,528.19486,397.91959,534.03374,413.928Z"/>
      <path class="cls-96" d="M545.07831,467.37057c-2.09614-6.0708-15.36677-25.80953-23.96329-42.97462l-10.83542,6.79973,12.28213,36.78665C526.89252,483.85544,545.18176,483.72705,545.07831,467.37057Z"/>
      <path class="cls-96" d="M423.69559,373.0474c2.62846-.19722,7.50414,1.69,11.493,4.95346l-7.66168,3.53876Z"/>
      <path class="cls-102" d="M414.66587,385.7106s3.64328-17.51526,48.13968-.43554,48.47122,38.73167,52.02865,52.65205,10.23513,97.02876,10.23513,97.02876c.477,9-20.312,11.36805-21.65247,3.19784l-6.98279-54.76713,5.09029,68.17138c1.29676,15.31915-36.38848,24.525-59.87151,10.34049-13.9285-8.41327-23.51259-23.99634-23.51259-42.766l6.54913-58.63946-8,29.70212c-2.88955,11.91607-22.80444,6.299-20.58714-7.3335Z"/>
      <path class="cls-35" d="M451.93847,383.2348c5.18147,0,21.75209,6.68345,25.70277,10.77528s5.34007,8.34528,2.21534,11.516-25.83005,9.74427-25.83005,9.74427-9.01617-15.87094-9.57356-20.54115S446.757,383.2348,451.93847,383.2348Z"/>
      <path class="cls-96" d="M423.38943,373.07138c-4.73106.3773-11.89786,6.80938-11.62961,10.92976.37973,5.83262,6.06464,10.95618,9.0002,10.14416s8.59713-5.684,8.13247-11.51049S428.12049,372.69408,423.38943,373.07138Z"/>
      <polygon class="cls-35" points="496.434 483.387 506.615 446.495 499.82 508.83 496.434 483.387"/>
      <polygon class="cls-35" points="424.689 460.493 420.33 401.132 420.411 475.517 424.689 460.493"/>
      <path class="cls-96" d="M507.1056,414.68009c-4.70984.58447-12.83885,5.19162-12.37419,11.01808s3.04116,7.49217,7.77221,7.11487c.9359-.07464,6.01284-.96669,6.01284-.96669s4.228,1.73606,5.04051,1.09459a36.24846,36.24846,0,0,0,7.558-8.545C518.64684,419.85467,512.20155,414.04776,507.1056,414.68009Z"/>
    </g>
    <g>
      <path class="cls-96" d="M504.55736,349.0825c1.29239-7.36617-5.64609-14.87137-14.31079-15.624-7.57282-.6578-15.93262,4.92105-16.66538,13.30975a170.20739,170.20739,0,0,0-.28686,18.66053c.47944,8.29745,3.53221,17.50072,11.93184,16.32509,9.24274-1.29364,15.38092-5.85745,16.63969-14.33617Z"/>
      <path class="cls-103" d="M475.29657,332.58345c-9.74265,8.11378-8.52565,18.56873-3.46366,21.3843l1.40043-.2666s.262-4.75866,2.83113-7.51573c.18731,8.97854,13.81106,12.39675,17.68653,13.24809a6.33607,6.33607,0,0,0,3.77335,8.139s-.07106,1.42765,1.3098,9.72927c8.63707-4.64372,21.93472-22.50725,14.56944-37.58287C506.82875,326.26122,487.16584,322.6986,475.29657,332.58345Z"/>
      <path class="cls-96" d="M499.021,371.72735c3.059-.09741,5.49815-4.45072,5.38762-7.922s-3.20909-6.297-5.78789-4.6486C495.38353,361.226,495.962,371.82475,499.021,371.72735Z"/>
    </g>
  </g>
  <g>
    <path class="cls-104" d="M268.1477,346.27083l.00044.00843a.90182.90182,0,0,0-1.18622.43039L222.966,435.63534a.923.923,0,0,0-.09573.40953V761.46749a.89423.89423,0,0,0,.66755.881l-.00289.00555.034.0071c.013.0031.02573.00488.03871.00754l5.23086,1.05334-.33611-9.38819,38.68474-78.19032a14.72194,14.72194,0,0,0,1.52654-6.5279V356.93931l4.59027-9.63821Z"/>
    <path class="cls-105" d="M228.06138,437.08885V762.51154a.92371.92371,0,0,0,1.75163.40961l42.56519-86.03363a14.72082,14.72082,0,0,0,1.52654-6.52791V348.16335a.9237.9237,0,0,0-1.75162-.40961l-43.99595,88.92549A.92373.92373,0,0,0,228.06138,437.08885Z"/>
    <path class="cls-106" d="M233.72936,444.06773V665.39532a.6953.6953,0,0,0,1.31849.30833L267.0877,600.944a11.08073,11.08073,0,0,0,1.14907-4.91372v-218.899a.69529.69529,0,0,0-1.31849-.30832l-33.11682,66.93638A.69524.69524,0,0,0,233.72936,444.06773Z"/>
    <path class="cls-107" d="M233.72936,682.10809v49.093a.69529.69529,0,0,0,1.31849.30832l32.03985-64.7596a11.08073,11.08073,0,0,0,1.14907-4.91372V615.17171a.6953.6953,0,0,0-1.31849-.30833l-33.11682,66.93638A.69528.69528,0,0,0,233.72936,682.10809Z"/>
  </g>
  <g>
    <circle class="cls-85" cx="948.55903" cy="211.15349" r="51.44097"/>
    <g>
      <rect class="cls-10" x="944.37198" y="182.57455" width="11.16548" height="57.15788" transform="translate(128.92723 733.56485) rotate(-45)"/>
      <rect class="cls-10" x="944.37198" y="182.57455" width="11.16548" height="57.15788" transform="translate(1472.36607 1032.18097) rotate(-135)"/>
    </g>
  </g>
</svg>
