<svg id="Layer_1" data-name="Layer 1" xmlns="http://www.w3.org/2000/svg" xmlns:xlink="http://www.w3.org/1999/xlink" viewBox="0 0 1000 1000">
  <defs>
    <style>
      .cls-1 {
        fill: url(#linear-gradient);
      }

      .cls-2, .cls-6 {
        fill: #fff;
      }

      .cls-2, .cls-47, .cls-87, .cls-93 {
        opacity: 0.5;
      }

      .cls-3 {
        fill: #b8cbd8;
      }

      .cls-4 {
        fill: url(#linear-gradient-2);
      }

      .cls-5 {
        fill: url(#linear-gradient-3);
      }

      .cls-7 {
        fill: url(#linear-gradient-4);
      }

      .cls-8 {
        fill: url(#linear-gradient-5);
      }

      .cls-9 {
        fill: url(#linear-gradient-6);
      }

      .cls-10 {
        fill: url(#linear-gradient-7);
      }

      .cls-11 {
        fill: url(#linear-gradient-8);
      }

      .cls-12 {
        fill: url(#linear-gradient-9);
      }

      .cls-13 {
        fill: #e58630;
      }

      .cls-14 {
        fill: url(#linear-gradient-10);
      }

      .cls-15 {
        fill: #ffcb48;
      }

      .cls-16 {
        fill: url(#linear-gradient-11);
      }

      .cls-17 {
        fill: url(#linear-gradient-12);
      }

      .cls-18 {
        fill: url(#linear-gradient-13);
      }

      .cls-19 {
        fill: #748ca3;
      }

      .cls-20 {
        fill: #586c7f;
      }

      .cls-21 {
        fill: url(#linear-gradient-14);
      }

      .cls-22 {
        fill: url(#linear-gradient-15);
      }

      .cls-23 {
        opacity: 0.2;
      }

      .cls-24 {
        fill: #2a3f5e;
      }

      .cls-25 {
        fill: url(#linear-gradient-16);
      }

      .cls-26 {
        fill: url(#linear-gradient-17);
      }

      .cls-27 {
        fill: url(#linear-gradient-18);
      }

      .cls-28 {
        fill: url(#linear-gradient-19);
      }

      .cls-29 {
        fill: url(#linear-gradient-20);
      }

      .cls-30 {
        fill: url(#linear-gradient-21);
      }

      .cls-31 {
        fill: url(#linear-gradient-22);
      }

      .cls-32 {
        fill: url(#linear-gradient-23);
      }

      .cls-33 {
        fill: url(#linear-gradient-24);
      }

      .cls-34 {
        fill: url(#linear-gradient-25);
      }

      .cls-35 {
        fill: url(#linear-gradient-26);
      }

      .cls-36 {
        fill: url(#linear-gradient-27);
      }

      .cls-37 {
        fill: url(#linear-gradient-28);
      }

      .cls-38 {
        fill: url(#linear-gradient-29);
      }

      .cls-39, .cls-42, .cls-53, .cls-78 {
        opacity: 0.4;
      }

      .cls-39 {
        fill: url(#linear-gradient-30);
      }

      .cls-40 {
        fill: url(#linear-gradient-31);
      }

      .cls-41 {
        fill: url(#linear-gradient-32);
      }

      .cls-42 {
        fill: url(#linear-gradient-33);
      }

      .cls-43 {
        fill: url(#linear-gradient-34);
      }

      .cls-44 {
        fill: url(#linear-gradient-35);
      }

      .cls-45 {
        fill: url(#linear-gradient-36);
      }

      .cls-46 {
        fill: url(#linear-gradient-37);
      }

      .cls-47 {
        fill: url(#linear-gradient-38);
      }

      .cls-48 {
        fill: #dd7a64;
      }

      .cls-49 {
        fill: #303d49;
      }

      .cls-50 {
        fill: #405260;
      }

      .cls-51 {
        fill: #34a521;
      }

      .cls-52 {
        fill: #cfdfe8;
      }

      .cls-53 {
        fill: url(#linear-gradient-39);
      }

      .cls-54 {
        fill: url(#linear-gradient-40);
      }

      .cls-55 {
        font-size: 52.67426px;
        fill: #333a3d;
        stroke: #333a3d;
        stroke-miterlimit: 10;
        stroke-width: 1.94993px;
        font-family: AvenirLTStd-Black, Avenir LT Std;
        font-weight: 800;
      }

      .cls-56 {
        fill: url(#linear-gradient-41);
      }

      .cls-57 {
        opacity: 0.6;
      }

      .cls-58 {
        fill: #9bb0c4;
      }

      .cls-59 {
        fill: url(#linear-gradient-42);
      }

      .cls-60 {
        fill: url(#linear-gradient-43);
      }

      .cls-61 {
        fill: #724133;
      }

      .cls-62 {
        fill: url(#linear-gradient-44);
      }

      .cls-63 {
        fill: url(#linear-gradient-45);
      }

      .cls-64 {
        fill: url(#linear-gradient-46);
      }

      .cls-65 {
        fill: url(#linear-gradient-47);
      }

      .cls-66 {
        fill: url(#linear-gradient-48);
      }

      .cls-67 {
        fill: url(#linear-gradient-49);
      }

      .cls-68 {
        fill: url(#linear-gradient-50);
      }

      .cls-69 {
        fill: url(#linear-gradient-51);
      }

      .cls-70 {
        fill: url(#linear-gradient-52);
      }

      .cls-71 {
        fill: url(#linear-gradient-53);
      }

      .cls-72 {
        fill: url(#linear-gradient-54);
      }

      .cls-73 {
        fill: url(#linear-gradient-55);
      }

      .cls-74 {
        fill: url(#linear-gradient-56);
      }

      .cls-75 {
        fill: url(#linear-gradient-57);
      }

      .cls-76 {
        fill: url(#linear-gradient-58);
      }

      .cls-77 {
        fill: url(#linear-gradient-59);
      }

      .cls-78 {
        fill: url(#linear-gradient-60);
      }

      .cls-79 {
        fill: url(#linear-gradient-61);
      }

      .cls-80 {
        fill: url(#linear-gradient-62);
      }

      .cls-81 {
        fill: url(#linear-gradient-63);
      }

      .cls-82 {
        fill: url(#linear-gradient-64);
      }

      .cls-83 {
        fill: url(#linear-gradient-65);
      }

      .cls-84 {
        fill: url(#linear-gradient-66);
      }

      .cls-85 {
        fill: url(#linear-gradient-67);
      }

      .cls-86 {
        fill: url(#linear-gradient-68);
      }

      .cls-87 {
        fill: #435a75;
      }

      .cls-88 {
        fill: url(#linear-gradient-69);
      }

      .cls-89 {
        fill: url(#linear-gradient-70);
      }

      .cls-90 {
        fill: url(#linear-gradient-71);
      }

      .cls-91 {
        fill: #e2786d;
      }

      .cls-92 {
        fill: url(#linear-gradient-72);
      }

      .cls-93 {
        fill: #dd7b19;
      }

      .cls-94 {
        fill: url(#linear-gradient-73);
      }

      .cls-95 {
        fill: #27343d;
      }

      .cls-96 {
        fill: #ef8e73;
      }

      .cls-97 {
        fill: url(#linear-gradient-74);
      }

      .cls-98 {
        fill: url(#linear-gradient-75);
      }
    </style>
    <linearGradient id="linear-gradient" x1="516.22368" y1="402.62316" x2="937.51038" y2="402.62316" gradientUnits="userSpaceOnUse">
      <stop offset="0" stop-color="#e4edf2"/>
      <stop offset="1" stop-color="#c3d6e6"/>
    </linearGradient>
    <linearGradient id="linear-gradient-2" x1="94.95323" y1="728.95587" x2="937.51038" y2="728.95587" gradientUnits="userSpaceOnUse">
      <stop offset="0.00663" stop-color="#c4d5e6"/>
      <stop offset="1" stop-color="#dae9f2"/>
    </linearGradient>
    <linearGradient id="linear-gradient-3" x1="-881.53836" y1="584.92371" x2="-760.90729" y2="664.34912" gradientTransform="translate(1162.29787)" gradientUnits="userSpaceOnUse">
      <stop offset="0" stop-color="#fff"/>
      <stop offset="0.94545" stop-color="#fff" stop-opacity="0"/>
    </linearGradient>
    <linearGradient id="linear-gradient-4" x1="134.36994" y1="402.62362" x2="477.71266" y2="402.62362" gradientUnits="userSpaceOnUse">
      <stop offset="0" stop-color="#5b6f82"/>
      <stop offset="1" stop-color="#849bb2"/>
    </linearGradient>
    <linearGradient id="linear-gradient-5" x1="496.08637" y1="299.60527" x2="122.18935" y2="502.28407" gradientUnits="userSpaceOnUse">
      <stop offset="0" stop-color="#62778c"/>
      <stop offset="1" stop-color="#435466"/>
    </linearGradient>
    <linearGradient id="linear-gradient-6" x1="429.04695" y1="331.85923" x2="290.56863" y2="406.92434" xlink:href="#linear-gradient-5"/>
    <linearGradient id="linear-gradient-7" x1="317.57814" y1="396.21166" x2="179.09982" y2="471.27677" xlink:href="#linear-gradient-5"/>
    <linearGradient id="linear-gradient-8" x1="163.41814" y1="497.12008" x2="188.46819" y2="497.12008" gradientUnits="userSpaceOnUse">
      <stop offset="0" stop-color="#e68e2b"/>
      <stop offset="0.99995" stop-color="#ffcb48"/>
    </linearGradient>
    <linearGradient id="linear-gradient-9" x1="147.52825" y1="506.02752" x2="172.5783" y2="506.02752" xlink:href="#linear-gradient-8"/>
    <linearGradient id="linear-gradient-10" x1="131.63836" y1="515.27319" x2="156.69817" y2="515.27319" xlink:href="#linear-gradient-8"/>
    <linearGradient id="linear-gradient-11" x1="472.41353" y1="318.34831" x2="497.46358" y2="318.34831" xlink:href="#linear-gradient-8"/>
    <linearGradient id="linear-gradient-12" x1="456.52364" y1="327.25575" x2="481.57369" y2="327.25575" xlink:href="#linear-gradient-8"/>
    <linearGradient id="linear-gradient-13" x1="440.63375" y1="336.50142" x2="465.69356" y2="336.50142" xlink:href="#linear-gradient-8"/>
    <linearGradient id="linear-gradient-14" x1="-74.68027" y1="246.52632" x2="489.1385" y2="246.52632" xlink:href="#linear-gradient-4"/>
    <linearGradient id="linear-gradient-15" x1="-5067.3404" y1="779.17211" x2="-4373.64114" y2="722.86146" gradientTransform="matrix(-1, 0, 0, 1, -4407.90105, 0)" gradientUnits="userSpaceOnUse">
      <stop offset="0.00005" stop-color="#ffb348"/>
      <stop offset="1" stop-color="#e68e2b"/>
    </linearGradient>
    <linearGradient id="linear-gradient-16" x1="500.82401" y1="525.92312" x2="551.30101" y2="525.92312" xlink:href="#linear-gradient-5"/>
    <linearGradient id="linear-gradient-17" x1="500.82399" y1="522.07717" x2="551.30103" y2="522.07717" gradientUnits="userSpaceOnUse">
      <stop offset="0" stop-color="#849bb2"/>
      <stop offset="1" stop-color="#5b6f82"/>
    </linearGradient>
    <linearGradient id="linear-gradient-18" x1="524.12041" y1="304.57401" x2="527.80225" y2="508.30249" xlink:href="#linear-gradient-5"/>
    <linearGradient id="linear-gradient-19" x1="491.66415" y1="297.16792" x2="560.46092" y2="297.16792" xlink:href="#linear-gradient-5"/>
    <linearGradient id="linear-gradient-20" x1="491.66415" y1="292.53173" x2="560.46092" y2="292.53173" gradientUnits="userSpaceOnUse">
      <stop offset="0.00844" stop-color="#ffc63f"/>
      <stop offset="1" stop-color="#e68a23"/>
    </linearGradient>
    <linearGradient id="linear-gradient-21" x1="518.64478" y1="279.75205" x2="533.48014" y2="279.75205" gradientUnits="userSpaceOnUse">
      <stop offset="0" stop-color="#3e4c59"/>
      <stop offset="1" stop-color="#293440"/>
    </linearGradient>
    <linearGradient id="linear-gradient-22" x1="518.64479" y1="274.02843" x2="533.48022" y2="274.02843" xlink:href="#linear-gradient-5"/>
    <linearGradient id="linear-gradient-23" x1="376.66335" y1="533.13127" x2="554.24843" y2="533.13127" xlink:href="#linear-gradient-17"/>
    <linearGradient id="linear-gradient-24" x1="408.63578" y1="542.27029" x2="554.24843" y2="542.27029" gradientUnits="userSpaceOnUse">
      <stop offset="0" stop-color="#62788c"/>
      <stop offset="1" stop-color="#526575"/>
    </linearGradient>
    <linearGradient id="linear-gradient-25" x1="487.7094" y1="516.076" x2="675.03205" y2="717.44785" xlink:href="#linear-gradient-24"/>
    <linearGradient id="linear-gradient-26" x1="472.56034" y1="514.412" x2="748.27586" y2="675.97778" xlink:href="#linear-gradient-17"/>
    <linearGradient id="linear-gradient-27" x1="553.08021" y1="611.11153" x2="639.66893" y2="611.11153" xlink:href="#linear-gradient-24"/>
    <linearGradient id="linear-gradient-28" x1="514.28265" y1="507.26362" x2="672.40831" y2="507.26362" xlink:href="#linear-gradient-24"/>
    <linearGradient id="linear-gradient-29" x1="517.39431" y1="454.95691" x2="754.47454" y2="699.06173" xlink:href="#linear-gradient-17"/>
    <linearGradient id="linear-gradient-30" x1="389.65585" y1="377.77886" x2="635.44104" y2="619.67504" xlink:href="#linear-gradient-5"/>
    <linearGradient id="linear-gradient-31" x1="654.41082" y1="586.3733" x2="812.53649" y2="586.3733" xlink:href="#linear-gradient-24"/>
    <linearGradient id="linear-gradient-32" x1="549.08904" y1="424.17426" x2="786.16926" y2="668.27908" xlink:href="#linear-gradient-17"/>
    <linearGradient id="linear-gradient-33" x1="529.78403" y1="458.64251" x2="775.56921" y2="700.53869" xlink:href="#linear-gradient-5"/>
    <linearGradient id="linear-gradient-34" x1="674.27586" y1="702.95758" x2="850.00382" y2="702.95758" xlink:href="#linear-gradient-17"/>
    <linearGradient id="linear-gradient-35" x1="706.24829" y1="715.41294" x2="851.86094" y2="715.41294" xlink:href="#linear-gradient-24"/>
    <linearGradient id="linear-gradient-36" x1="843.63853" y1="687.66164" x2="850.51679" y2="687.66164" xlink:href="#linear-gradient-21"/>
    <linearGradient id="linear-gradient-37" x1="719.59012" y1="717.36596" x2="859.57385" y2="717.36596" xlink:href="#linear-gradient-21"/>
    <linearGradient id="linear-gradient-38" x1="420.27345" y1="663.5224" x2="674.14405" y2="663.5224" xlink:href="#linear-gradient-21"/>
    <linearGradient id="linear-gradient-39" x1="26.42364" y1="333.27447" x2="357.88698" y2="333.27447" xlink:href="#linear-gradient-17"/>
    <linearGradient id="linear-gradient-40" x1="176.04364" y1="155.3374" x2="252.9579" y2="361.86643" xlink:href="#linear-gradient-17"/>
    <linearGradient id="linear-gradient-41" x1="110.44513" y1="293.7959" x2="344.78925" y2="293.7959" xlink:href="#linear-gradient-17"/>
    <linearGradient id="linear-gradient-42" x1="120.6191" y1="728.95435" x2="179.90107" y2="728.95435" xlink:href="#linear-gradient-21"/>
    <linearGradient id="linear-gradient-43" x1="124.81328" y1="672.846" x2="184.21753" y2="730.03749" gradientUnits="userSpaceOnUse">
      <stop offset="0.00005" stop-color="#ffcb48"/>
      <stop offset="1" stop-color="#e68e2b"/>
    </linearGradient>
    <linearGradient id="linear-gradient-44" x1="-11016.89498" y1="2507.87967" x2="-10984.19918" y2="2521.4656" gradientTransform="matrix(-0.94085, 0.33882, 0.33882, 0.94085, -11032.18245, 1907.84925)" gradientUnits="userSpaceOnUse">
      <stop offset="0" stop-color="#f2883c"/>
      <stop offset="0.16716" stop-color="#e97d35"/>
      <stop offset="0.67368" stop-color="#d26124"/>
      <stop offset="0.96784" stop-color="#c9571e"/>
    </linearGradient>
    <linearGradient id="linear-gradient-45" x1="-500.26469" y1="-1406.50633" x2="-524.89851" y2="-1390.83026" gradientTransform="translate(137.30432 2078.20599) rotate(21.53204)" xlink:href="#linear-gradient-44"/>
    <linearGradient id="linear-gradient-46" x1="203.12674" y1="549.53965" x2="161.77178" y2="586.71432" gradientTransform="matrix(1, 0, 0, 1, 0, 0)" xlink:href="#linear-gradient-44"/>
    <linearGradient id="linear-gradient-47" x1="83.27437" y1="2110.48024" x2="49.61158" y2="2131.90202" gradientTransform="translate(-490.96355 -1436.28624) rotate(-16.16083)" xlink:href="#linear-gradient-44"/>
    <linearGradient id="linear-gradient-48" x1="127.38589" y1="522.11543" x2="147.69013" y2="561.08166" gradientTransform="matrix(1, 0, 0, 1, 0, 0)" xlink:href="#linear-gradient-44"/>
    <linearGradient id="linear-gradient-49" x1="21.29538" y1="2620.69413" x2="44.80754" y2="2665.81673" gradientTransform="translate(-867.71239 -1877.35003) rotate(-21.26361)" xlink:href="#linear-gradient-44"/>
    <linearGradient id="linear-gradient-50" x1="-999.67594" y1="-2079.26402" x2="-966.98015" y2="-2065.67809" gradientTransform="matrix(0.87147, 0.49044, -0.49044, 0.87147, -33.36491, 2844.84346)" xlink:href="#linear-gradient-44"/>
    <linearGradient id="linear-gradient-51" x1="30.07795" y1="1029.41984" x2="8.70973" y2="1066.77344" gradientTransform="matrix(1.03159, -0.09458, 0.10022, 1.01436, 37.31388, -529.9107)" xlink:href="#linear-gradient-44"/>
    <linearGradient id="linear-gradient-52" x1="-417.70006" y1="3950.32322" x2="-448.01129" y2="3969.61218" gradientTransform="translate(-1817.35235 -2901.4352) rotate(-35.91139)" xlink:href="#linear-gradient-44"/>
    <linearGradient id="linear-gradient-53" x1="-10222.92198" y1="-1184.13613" x2="-10250.83381" y2="-1166.37405" gradientTransform="matrix(-0.94244, -0.33439, -0.33439, 0.94244, -9898.58545, -1739.986)" xlink:href="#linear-gradient-44"/>
    <linearGradient id="linear-gradient-54" x1="-948.24024" y1="710.23477" x2="-944.5586" y2="710.23477" gradientTransform="matrix(-0.04492, -0.99899, -0.99899, 0.04492, 846.05166, -267.11336)" xlink:href="#linear-gradient-21"/>
    <linearGradient id="linear-gradient-55" x1="119.5533" y1="710.23477" x2="123.23494" y2="710.23477" gradientTransform="translate(31.94249 -4.72562) rotate(2.56788)" xlink:href="#linear-gradient-21"/>
    <linearGradient id="linear-gradient-56" x1="149.26424" y1="726.32949" x2="151.26424" y2="726.32949" xlink:href="#linear-gradient-21"/>
    <linearGradient id="linear-gradient-57" x1="118.93441" y1="695.50564" x2="181.59444" y2="695.50564" xlink:href="#linear-gradient-21"/>
    <linearGradient id="linear-gradient-58" x1="669.67312" y1="391.05423" x2="746.99219" y2="391.05423" gradientTransform="translate(-18.64021 -32.28579)" gradientUnits="userSpaceOnUse">
      <stop offset="0" stop-color="#435466"/>
      <stop offset="1" stop-color="#62778c"/>
    </linearGradient>
    <linearGradient id="linear-gradient-59" x1="680.09331" y1="387.07098" x2="743.67728" y2="387.07098" gradientTransform="translate(-18.64021 -32.28579)" gradientUnits="userSpaceOnUse">
      <stop offset="0" stop-color="#fff"/>
      <stop offset="0.98888" stop-color="#e6edf2"/>
    </linearGradient>
    <linearGradient id="linear-gradient-60" x1="689.20561" y1="388.9964" x2="732.31107" y2="388.9964" gradientTransform="translate(-18.64021 -32.28579)" xlink:href="#linear-gradient-5"/>
    <linearGradient id="linear-gradient-61" x1="669.67311" y1="391.05422" x2="746.9922" y2="391.05422" gradientTransform="translate(-18.64021 -32.28579)" xlink:href="#linear-gradient-17"/>
    <linearGradient id="linear-gradient-62" x1="686.63854" y1="312.40763" x2="766.13841" y2="417.48572" gradientTransform="translate(-18.64021 -32.28579)" xlink:href="#linear-gradient-5"/>
    <linearGradient id="linear-gradient-63" x1="655.17607" y1="287.45243" x2="773.06023" y2="443.26453" gradientTransform="translate(-18.64021 -32.28579)" xlink:href="#linear-gradient-5"/>
    <linearGradient id="linear-gradient-64" x1="769.71666" y1="380.26987" x2="744.03649" y2="320.04911" gradientTransform="translate(3.46411 6.00002)" xlink:href="#linear-gradient-58"/>
    <linearGradient id="linear-gradient-65" x1="703.1832" y1="285.21072" x2="742.51846" y2="285.21072" gradientTransform="translate(47.76727 82.73534)" xlink:href="#linear-gradient-59"/>
    <linearGradient id="linear-gradient-66" x1="692.763" y1="289.19396" x2="745.83338" y2="289.19396" gradientTransform="translate(47.76727 82.73534)" xlink:href="#linear-gradient-17"/>
    <linearGradient id="linear-gradient-67" x1="705.09926" y1="236.45405" x2="759.8947" y2="308.87933" gradientTransform="translate(47.76727 82.73534)" xlink:href="#linear-gradient-5"/>
    <linearGradient id="linear-gradient-68" x1="686.94079" y1="222.1085" x2="763.6416" y2="323.48696" gradientTransform="translate(47.76727 82.73534)" xlink:href="#linear-gradient-5"/>
    <linearGradient id="linear-gradient-69" x1="374.73559" y1="444.38745" x2="573.92007" y2="529.30294" gradientTransform="matrix(1, 0, 0, 1, 0, 0)" xlink:href="#linear-gradient-59"/>
    <linearGradient id="linear-gradient-70" x1="531.11512" y1="441.94306" x2="526.26142" y2="569.11006" gradientUnits="userSpaceOnUse">
      <stop offset="0" stop-color="#75413e"/>
      <stop offset="1" stop-color="#592f2f"/>
    </linearGradient>
    <linearGradient id="linear-gradient-71" x1="491.31681" y1="440.42404" x2="486.46311" y2="567.59105" xlink:href="#linear-gradient-70"/>
    <linearGradient id="linear-gradient-72" x1="549.47669" y1="477.59658" x2="568.56792" y2="614.14741" xlink:href="#linear-gradient-43"/>
    <linearGradient id="linear-gradient-73" x1="543.92419" y1="478.37288" x2="563.01542" y2="614.92371" xlink:href="#linear-gradient-43"/>
    <linearGradient id="linear-gradient-74" x1="486.89329" y1="486.34639" x2="505.98452" y2="622.89722" xlink:href="#linear-gradient-43"/>
    <linearGradient id="linear-gradient-75" x1="490.5845" y1="440.39609" x2="485.7308" y2="567.56309" xlink:href="#linear-gradient-70"/>
  </defs>
  <g>
    <g>
      <polygon class="cls-1" points="516.224 76.29 937.51 319.511 937.51 728.956 516.224 485.713 516.224 76.29"/>
      <polygon class="cls-2" points="516.224 443.905 517.51 473.002 680.699 559.13 516.224 180.804 516.224 443.905"/>
      <polygon class="cls-3" points="516.24 76.29 94.953 319.511 94.953 728.956 516.24 485.713 516.24 76.29"/>
    </g>
    <path class="cls-4" d="M102.223,741.55987,494.4336,967.99278a43.61723,43.61723,0,0,0,43.61687-.00064L930.241,741.55565a14.53908,14.53908,0,0,0,.00017-25.18217L538.03348,489.9199a43.61721,43.61721,0,0,0-43.61994.00055L102.22215,716.37768A14.53907,14.53907,0,0,0,102.223,741.55987Z"/>
    <polygon class="cls-5" points="153.921 685.273 293.369 811.509 644.89 606.391 455.401 511.279 153.921 685.273"/>
  </g>
  <g>
    <g>
      <path class="cls-6" d="M481.55412,468.23479,138.20505,666.46438l-11.46524-6.61724V337.023L470.08888,138.78194l11.46524-2.15873Z"/>
      <polygon class="cls-7" points="477.713 142.093 473.771 144.368 473.777 462.804 134.37 658.748 134.37 663.154 477.713 464.934 477.713 142.093"/>
      <path class="cls-8" d="M122.88194,333.69958v349.352l366.319-211.48427V122.19477Zm11.48824,6.6326L477.71266,142.09347l0,322.84091L134.37018,663.15377Z"/>
    </g>
    <polygon class="cls-9" points="362.308 527.156 357.308 530.043 357.308 211.627 362.308 208.74 362.308 527.156"/>
    <polygon class="cls-10" points="250.839 591.509 245.839 594.396 245.839 275.98 250.839 273.093 250.839 591.509"/>
    <g>
      <g>
        <path class="cls-11" d="M188.46819,335.72087V660.13558a2.17525,2.17525,0,0,1-2.68994,2.1l-13.19995-3.28-7.76-1.93005a.335.335,0,0,0-.32007.06l-1.08008-.31995V331.936l23.31006,5.9249Z"/>
        <path class="cls-12" d="M172.5783,344.84086V669.46553a2.005,2.005,0,0,1-.36011,1.04,2.13014,2.13014,0,0,1-2.32007.9l-20.97-5.21a.35593.35593,0,0,0-.40991.16.3682.3682,0,0,0-.02.4l-.97-.26V340.58085l23.31006,5.5Z"/>
        <polygon class="cls-13" points="146.67 342.148 146.67 353.431 154.704 355.09 155.555 353.814 146.67 342.148"/>
        <path class="cls-14" d="M156.69817,354.16087V678.63558a2.23852,2.23852,0,0,1-.35986,1.04,2.13721,2.13721,0,0,1-1.79.97,2.003,2.003,0,0,1-.54-.07l-21.68994-5.4a.88433.88433,0,0,1-.67993-.86V349.90086l23.30981,5.5Z"/>
        <polygon class="cls-13" points="162.553 332.977 162.553 344.26 170.588 345.919 171.439 344.643 162.553 332.977"/>
        <polygon class="cls-13" points="177.736 323.289 177.736 334.571 186.622 336.867 187.587 335.67 177.736 323.289"/>
        <path class="cls-15" d="M154.547,356.24469a2.23451,2.23451,0,0,1-.53634-.06611l-21.69444-5.404a.88879.88879,0,0,1,.42907-1.725l21.69444,5.404a.38827.38827,0,0,0,.40537-.6093l-7.74138-10.37632a2.16559,2.16559,0,0,1,2.25824-3.397l20.96092,5.21279a.38816.38816,0,0,0,.40475-.6093l-7.74138-10.37632a2.16578,2.16578,0,0,1,2.25886-3.397l20.9603,5.21279a.38823.38823,0,0,0,.40538-.609l-8.6979-11.649a.88858.88858,0,1,1,1.42442-1.0627l8.6979,11.64868a2.16588,2.16588,0,0,1-2.25887,3.397l-20.9603-5.2128a.38836.38836,0,0,0-.40537.60931l7.74138,10.37631a2.16567,2.16567,0,0,1-2.25824,3.397l-20.96092-5.21279a.36408.36408,0,0,0-.41723.16153.36863.36863,0,0,0,.01248.44778l7.74138,10.37631a2.16761,2.16761,0,0,1-1.72252,3.46314Z"/>
      </g>
      <g>
        <path class="cls-16" d="M497.46358,156.9491V481.36381a2.17525,2.17525,0,0,1-2.68994,2.1l-13.19995-3.28-7.76-1.93a.335.335,0,0,0-.32007.06l-1.08008-.32V153.16421l23.31006,5.9249Z"/>
        <path class="cls-17" d="M481.57369,166.06909V490.69376a2.005,2.005,0,0,1-.36011,1.04,2.13014,2.13014,0,0,1-2.32007.9l-20.97-5.21a.35593.35593,0,0,0-.40991.16.3682.3682,0,0,0-.02.4l-.97-.26V161.80908l23.31006,5.5Z"/>
        <polygon class="cls-13" points="455.665 163.377 455.665 174.659 463.7 176.318 464.551 175.042 455.665 163.377"/>
        <path class="cls-18" d="M465.69356,175.3891V499.86381a2.23852,2.23852,0,0,1-.35986,1.04,2.13721,2.13721,0,0,1-1.79.97,2.003,2.003,0,0,1-.54-.07l-21.68994-5.4a.88433.88433,0,0,1-.67993-.86V171.12909l23.30981,5.5Z"/>
        <polygon class="cls-13" points="471.548 154.206 471.548 165.488 479.583 167.147 480.434 165.871 471.548 154.206"/>
        <polygon class="cls-13" points="486.732 144.517 486.732 155.799 495.618 158.095 496.583 156.898 486.732 144.517"/>
        <path class="cls-15" d="M463.54238,177.47292a2.23463,2.23463,0,0,1-.53634-.06611l-21.69443-5.404a.88879.88879,0,1,1,.42907-1.725l21.69444,5.404a.38827.38827,0,0,0,.40537-.6093l-7.74139-10.37632a2.1656,2.1656,0,0,1,2.25825-3.397l20.96092,5.21279a.38816.38816,0,0,0,.40475-.6093l-7.74139-10.37632a2.16579,2.16579,0,0,1,2.25887-3.397l20.9603,5.21279a.38822.38822,0,0,0,.40537-.609l-8.6979-11.649a.88858.88858,0,0,1,1.42442-1.0627l8.6979,11.64868a2.16588,2.16588,0,0,1-2.25886,3.397l-20.9603-5.21279a.38836.38836,0,0,0-.40538.6093l7.74139,10.37631a2.16567,2.16567,0,0,1-2.25824,3.397l-20.96093-5.21279a.36406.36406,0,0,0-.41722.16153.36863.36863,0,0,0,.01247.44778l7.74139,10.37631a2.16761,2.16761,0,0,1-1.72253,3.46314Z"/>
      </g>
    </g>
    <g>
      <path class="cls-19" d="M485.21594,138.768v6.03443l-14.83478,8.56338v-6.91923a3.3619,3.3619,0,0,1,1.68116-2.91161l10.70617-6.18013A1.6317,1.6317,0,0,1,485.21594,138.768Z"/>
      <path class="cls-20" d="M142.81169,336.71972v6.03443l-14.83479,8.56337V344.3983a3.36191,3.36191,0,0,1,1.68117-2.91162l10.70616-6.18012A1.63171,1.63171,0,0,1,142.81169,336.71972Z"/>
      <path class="cls-21" d="M492.95148,145.31235,130.32525,354.71743l-3.92587-6.79981L489.0388,138.50493l.00179.0031a1.97735,1.97735,0,0,1,1.95073.20783,6.13759,6.13759,0,0,1,2.78518,4.8041A1.92629,1.92629,0,0,1,492.95148,145.31235Z"/>
      <ellipse class="cls-20" cx="128.36232" cy="351.31752" rx="2.26305" ry="3.92587" transform="translate(-158.46147 111.24878) rotate(-30)"/>
    </g>
  </g>
  <g>
    <path class="cls-22" d="M656.16716,801.69969l-274.285-158.38221a28.04175,28.04175,0,0,0-28.042-.00169L244.455,706.46119a9.34725,9.34725,0,0,0-.0023,16.18911L518.69857,881.06966a28.04175,28.04175,0,0,0,28.04888.00229L656.16716,817.889A9.34725,9.34725,0,0,0,656.16716,801.69969Z"/>
    <g class="cls-23">
      <path class="cls-24" d="M860.36848,722.8637,537.96214,536.69447a32.96151,32.96151,0,0,0-32.96174-.002L376.42432,610.91629a10.98716,10.98716,0,0,0-.0027,19.02938L698.782,816.15857a32.96147,32.96147,0,0,0,32.96985.00269l128.61662-74.26794A10.98717,10.98717,0,0,0,860.36848,722.8637Z"/>
    </g>
    <path class="cls-13" d="M599.79362,791.70874,399.18765,675.8715a15.77591,15.77591,0,0,0-15.776-.00095L300.82807,723.544a5.25864,5.25864,0,0,0-.00129,9.10778L501.405,848.51665a15.77593,15.77593,0,0,0,15.77992.00128l82.60873-47.7013A5.25864,5.25864,0,0,0,599.79362,791.70874Z"/>
  </g>
  <g>
    <g>
      <path class="cls-25" d="M550.60082,522.57093c-2.62966-6.41617-12.6044-11.19642-24.53836-11.19642s-21.9087,4.78025-24.53827,11.19642H500.824v3.35219c0,8.035,11.2996,14.5486,25.23845,14.5486s25.23855-6.51362,25.23855-14.5486v-3.35219Z"/>
      <ellipse class="cls-26" cx="526.06251" cy="522.07717" rx="25.23852" ry="14.54865"/>
    </g>
    <path class="cls-27" d="M522.75549,305.00449V519.059c0,1.05283,1.4806,1.90631,3.307,1.90631s3.307-.85348,3.307-1.90631V305.00449Z"/>
    <path class="cls-28" d="M491.66415,271.517v31.53261c0,10.91822,15.40061,19.76917,34.39838,19.76917s34.39839-8.851,34.39839-19.76917V271.517Z"/>
    <path class="cls-29" d="M491.66415,266.88084v31.5326c0,10.91823,15.40061,19.76917,34.39838,19.76917s34.39839-8.85094,34.39839-19.76917v-31.5326Z"/>
    <g>
      <ellipse class="cls-13" cx="526.06251" cy="266.88094" rx="34.3984" ry="19.76919"/>
      <path class="cls-30" d="M518.64478,284.64623a33.58129,33.58129,0,0,0,14.83536,0V274.02838H518.64478Z"/>
      <ellipse class="cls-31" cx="526.06251" cy="274.02843" rx="7.41771" ry="4.27591"/>
      <path class="cls-15" d="M526.06249,248.80719c18.03247,0,32.70279,8.10781,32.70279,18.0737s-14.67032,18.07384-32.70279,18.07384-32.70278-8.10795-32.70278-18.07384,14.67032-18.0737,32.70278-18.0737m0-1.69547c-18.99762,0-34.39838,8.851-34.39838,19.76917,0,10.91832,15.40076,19.76931,34.39838,19.76931s34.39839-8.851,34.39839-19.76931c0-10.91818-15.40076-19.76917-34.39839-19.76917Z"/>
    </g>
  </g>
  <g>
    <g>
      <path class="cls-32" d="M376.66335,530.18752v80.05142a10.01241,10.01241,0,0,0,5.04408,8.701l17.16128,9.813,3.77155,2.16666a1.25091,1.25091,0,0,0,.17191.09173,11.27813,11.27813,0,0,0,5.82361,1.39855V548.47222a21.7328,21.7328,0,0,1,10.87909-18.82347l134.73356-77.518-31.98391-18.28463L387.531,511.36405A21.70833,21.70833,0,0,0,376.66335,530.18752Z"/>
      <path class="cls-33" d="M408.63578,548.47222v83.93759a11.34977,11.34977,0,0,0,5.81213-1.79982l1.94886-1.24951,137.85166-88.59194V452.13077l-134.73356,77.518A21.7328,21.7328,0,0,0,408.63578,548.47222Z"/>
    </g>
    <path class="cls-34" d="M420.25054,626.8726,692.07911,783.52485l134.24055-86.7577-53.444-30.83753L554.388,539.85126,424.74431,555.04074a20.86933,20.86933,0,0,0-1.50175,2.25832,22.1285,22.1285,0,0,0-2.96914,11.08551Z"/>
    <path class="cls-35" d="M423.24256,557.29906l268.8709,155.26511,80.76218-46.63455,40.67345-23.48922L541.60584,485.52451l-108.172,62.466-2.10936,1.21516-.01148.01147a21.98262,21.98262,0,0,0-6.56871,5.82361A20.86933,20.86933,0,0,0,423.24256,557.29906Z"/>
    <polygon class="cls-36" points="639.669 590.679 560.232 636.413 553.08 632.284 631.291 585.81 639.669 590.679"/>
    <path class="cls-37" d="M514.28265,438.5519l.69794-.79856a31.48756,31.48756,0,0,1,19.98748-10.5466l15.62146-1.8595a19.63445,19.63445,0,0,1,11.98664,2.40624l91.80927,52.86505a36.02514,36.02514,0,0,1,17.00637,39.6887l-15.8721,65.50252-30.13138,3.50792Z"/>
    <path class="cls-38" d="M625.38833,589.31767l15.87209-65.50252a36.02509,36.02509,0,0,0-17.00637-39.68871l-85.52812-49.32292a19.76109,19.76109,0,0,0-29.08149,12.46124L493.63767,513.323Z"/>
    <polygon class="cls-39" points="625.388 589.318 493.638 513.323 496.137 503.009 627.882 579.028 625.388 589.318"/>
    <path class="cls-40" d="M654.41082,519.41554l.69794-.79856a31.48763,31.48763,0,0,1,19.98748-10.5466l15.62146-1.8595a19.63459,19.63459,0,0,1,11.98664,2.40624l91.80928,52.86505A36.02516,36.02516,0,0,1,811.52,601.17088l-15.87209,65.50251Z"/>
    <path class="cls-41" d="M765.5165,670.18132l15.8721-65.50252a36.02511,36.02511,0,0,0-17.00637-39.68871l-85.52812-49.32292a19.76109,19.76109,0,0,0-29.08149,12.46124L633.76584,594.1866Z"/>
    <polygon class="cls-42" points="765.516 670.181 633.766 594.187 636.266 583.873 768.01 659.892 765.516 670.181"/>
    <path class="cls-43" d="M674.27586,703.06075v80.0743a10.00571,10.00571,0,0,0,5.02113,8.67807l.59614.3325L698.18931,802.612c.01141.01148.02288.01148.03436.023a16.24286,16.24286,0,0,0,8.02462,2.10936V721.34545a21.74688,21.74688,0,0,1,10.8791-18.82354L850.00382,626.0816a13.87275,13.87275,0,0,0-4.99825-5.11279.01122.01122,0,0,0-.01141-.01148l-7.91-4.67723L811.52,601.17088l-2.91184,12.03694L685.14355,684.23728A21.70833,21.70833,0,0,0,674.27586,703.06075Z"/>
    <path class="cls-44" d="M706.24829,721.34545v83.39882a16.08679,16.08679,0,0,0,7.94438-2.09788l15.13217-8.701,114.19045-65.69878a16.68686,16.68686,0,0,0,8.34565-14.4443V633.06306a14.0932,14.0932,0,0,0-1.85712-6.98146L717.12739,702.52191A21.74688,21.74688,0,0,0,706.24829,721.34545Z"/>
    <path class="cls-45" d="M843.63853,645.09427v83.15231c0,1.09488,1.53989,1.98244,3.43913,1.98244s3.43913-.88756,3.43913-1.98244V645.09427Z"/>
    <path class="cls-46" d="M857.72362,636.54774l-5.86258-3.36412v5.19087l-120.61125,69.3856a23.371,23.371,0,0,0-11.65967,20.17576v71.63c0,1.09488,1.5396,1.98251,3.43913,1.98251,1.89924,0,3.43912-.88763,3.43912-1.98251v-71.63a16.46987,16.46987,0,0,1,8.21607-14.21662l117.1766-67.409,5.86594-3.37454A3.68362,3.68362,0,0,0,857.72362,636.54774Z"/>
    <polygon class="cls-47" points="420.273 594.811 674.144 741.235 674.144 732.234 420.273 585.81 420.273 594.811"/>
  </g>
  <path class="cls-48" d="M572.14076,533.49c-2.05181,0-8.21835,3.537-10.6723,3.07408"/>
  <g>
    <g>
      <path class="cls-49" d="M516.75786,720.80508l-18.83206,9.08683s-11.97794,6.02392-19.31781,13.913c-7.12411,7.65717,3.56825,16.41542,17.85468,13.01,12.05118-2.87259,15.47191-7.99777,20.38941-11.85914,4.91786-3.86126,10.12591-4.72361,15.20482-10.3915,3.42491-3.82209,6.34151-8.54557-.928-12.83769A16.22065,16.22065,0,0,0,516.75786,720.80508Z"/>
      <path class="cls-50" d="M478.90426,744.10638c-1.85905,3.58542.25531,6.57447,4.21276,8.7697,6.1943,3.436,15.68181.9793,21.02176-1.62924s7.42926-4.48889,11.22332-8.253c0,0,1.80664-4.87524-3.97147-10.48671-5.66869-5.5052-12.3566-6.669-15.10139-5.2124C490.64375,730.73617,480.6443,738.38356,478.90426,744.10638Z"/>
    </g>
    <g>
      <path class="cls-49" d="M543.39218,735.382l-18.83206,9.08682s-12.14116,5.87516-19.31781,13.913c-4.74107,5.31,2.77186,15.67169,17.85468,13.01,12.2003-2.153,15.47191-7.99777,20.38941-11.85915,4.91786-3.86126,10.66283-4.57721,15.06666-10.78419,3.121-4.39891,6.0277-9.41657-1.59509-13.10748S543.39218,735.382,543.39218,735.382Z"/>
      <path class="cls-50" d="M505.9893,756.08511c-1.1829,4.27715.48942,7.91932,5.85113,10.97872,6.15236,3.51055,14.04675.76355,19.88508-1.80971s7.50158-4.35755,11.22332-8.25277a20.15044,20.15044,0,0,0-6.21314-11.91944c-5.66869-5.50521-12.20842-5.23643-14.95322-3.77982C516.321,745.68533,508.85031,751.38179,505.9893,756.08511Z"/>
    </g>
  </g>
  <g>
    <g>
      <path class="cls-51" d="M227.60773,94.46436a198.65275,198.65275,0,1,1-77.5835,15.65722,198.06091,198.06091,0,0,1,77.5835-15.65722m0-18.17383c-120.12525,0-217.50611,97.38086-217.50611,217.50586,0,120.12549,97.38086,217.50634,217.50611,217.50634,120.12536,0,217.5061-97.38085,217.5061-217.50634,0-120.125-97.38074-217.50586-217.5061-217.50586Z"/>
      <circle class="cls-52" cx="227.60775" cy="293.79658" r="201.18409"/>
      <path class="cls-53" d="M30.45263,253.55517a202.09828,202.09828,0,0,0-4.029,40.24157c0,111.11065,90.07319,201.18385,201.18418,201.18385a200.55068,200.55068,0,0,0,77.57048-15.50788L357.887,376.76057,131.84288,171.56836Z"/>
    </g>
    <g>
      <circle class="cls-54" cx="227.60775" cy="293.79658" r="154.4352"/>
      <circle class="cls-6" cx="227.60775" cy="293.79658" r="122.22836"/>
      <g>
        <g>
          <text class="cls-55" transform="translate(146.09528 295.46183)">20</text>
          <text class="cls-55" transform="translate(219.36774 295.46378)">min</text>
        </g>
        <text class="cls-55" transform="translate(175.69977 337.22257)">max</text>
      </g>
      <path class="cls-56" d="M227.60773,176.55811h-.23023q-.79576.00219-1.58911.01367l.24878,16.35449q.78406-.01171,1.57056-.01172V176.55811Zm-12.69922.67968q-.90491.09741-1.804.2085l2.00293,16.2334q.77454-.09522,1.55249-.1792l-1.75146-16.2627Zm-12.54932,2.0459-.21826.04834-.01318.00244-.03247.00733-.02735.00634-.01318.00293c-.20361.04493-.40479.09034-.60815.13672l-.01075.00244-.03247.00733-.02563.00586-.021.00488q-.38562.08789-.77.17871l3.75537,15.91992q.75953-.17945,1.52368-.34716l-3.50659-15.97608Zm-12.25268,3.40039c-.06031.02051-.12329.04151-.1836.062l-.00561.002-.03638.0122q-.18273.06226-.365.125l-.00171.00049-.04663.01612-.00928.00293-.04834.0166-.02563.00879-.01807.00634-.03686.0127-.00586.00195c-.31128.10742-.62378.2168-.93384.32715l5.47022,15.41455q.735-.26075,1.47534-.51074l-5.22876-15.49805Zm-11.80762,4.7168q-.20325.09375-.40576.189l-.01611.00782-.02735.01269-.0227.01074-.01636.00782c-.02026.00927-.04053.01855-.06055.02832l-.00757.00341-.0354.01661-.0061.00293-.03613.01709-.00635.00293-.11133.05273-.00659.00293-.032.01514-.01441.00683-.02832.01367-.03051.01416-.01246.00586-.04663.02246-.01074.00489-.04126.01953-.00488.00244q-.33252.15821-.66358.31787l7.11744,14.727q.70349-.33984,1.41259-.66943l-6.887-14.83545Zm-11.22534,5.97363-.02661.01612-.00952.00585-.021.0127q-.74927.45338-1.49121.917l8.67334,13.86768q.66284-.41455,1.33227-.81885l-8.45727-14.00049Zm-10.51172,7.15479c-.39673.30273-.79395.60937-1.18652.917l-.01856.01465-.01489.01172q-.10841.085-.21631.16992l10.12036,12.84961q.6145-.48414,1.23682-.959l-9.9209-13.0039Zm-9.67871,8.24707q-.5896.55956-1.17236,1.1289l-.00391.00342-.02515.0249-.0105.01026-.02368.023-.0144.01416-.02979.02929-.02319.02246-.00513.00538,11.44556,11.68457q.55884-.54786,1.12671-1.08692l-11.26416-11.85937Zm-8.73462,9.24072c-.0481.05713-.09644.11377-.14453.1709l-.00562.00683-.02465.02881-.01392.01709-.00928.01074q-.27648.3274-.55078.65772l-.00977.01221-.01538.01806-.0249.03028-.00586.00683q-.18054.21753-.35986.436l12.637,10.38428q.49695-.60426,1.00293-1.20167L138.1485,218.01709Zm-7.688,10.12842c-.33374.49316-.667.99316-.99341,1.4917l-.00659.01025-.00732.01074,13.68408,8.96q.42846-.65478.86694-1.30224l-13.5437-9.17041Zm-6.54809,10.8999c-.04664.08838-.096.18164-.14234.27l-.00708.01367-.01416.02686-.01977.03711-.0022.00439-.02588.04981-.00049.00048q-.28748.54932-.56958,1.10108l-.01147.02246-.00977.019-.03467.06787,14.57471,7.42383q.35485-.69652.72022-1.38721l-14.45752-7.64941Zm-5.32569,11.54639c-.21557.54345-.42578,1.08545-.63354,1.6333l-.00074.00195-.00683.01807-.01587.0415,15.29663,5.79248q.27686-.731.5647-1.457l-15.20435-6.03027Zm-4.0354,12.05908c-.04907.17822-.09546.34814-.14355.52685l-.002.00733-.00805.03027-.00708.02539-.00489.01856-.01171.04345-.00147.00635q-.14721.54713-.28906,1.09717l15.8374,4.08789q.19519-.75658.40186-1.5083l-15.77149-4.335Zm-2.69555,12.42529q-.14393.89576-.27417,1.79737l16.18823,2.34033q.112-.7749.23584-1.54639l-16.1499-2.59131ZM110.524,287.72266q-.01466.28125-.02759.56347l-.00049.01319-.00171.03613-.00122.02637-.001.02-.00147.03564-.00049.00635c-.01123.25-.02148.49267-.031.74365l-.00025.00586-.00171.04-.00048.01367-.00123.03516-.00073.01416-.00293.07959v.00293l-.00146.03662-.00049.01367-.00122.0332-.00073.01953-.00122.03321-.00049.01367-.001.02832,16.34619.584q.02784-.78442.06763-1.56445l-16.335-.834Zm16.36133,11.80566-16.33106.9126q.00952.16919.01953.33887l.00025.00585.00244.03907.00171.02929.00049.01026c.02783.46728.05761.92383.09082,1.38916l16.31518-1.1626q-.05567-.78-.09936-1.5625Zm1.19921,10.88086-16.137,2.67041c.02466.14893.04932.29736.07471.44629l.001.00683.00756.04444.0022.01269.00659.03858.00269.01562.00561.03272.00855.0498.0022.0127.00634.03662.00171.01123.00635.03613.002.01172.02954.17041.00074.0044.00757.04345h0l.022.12647.002.01074.00537.03076.00366.021.00464.02588.00537.02978.00342.01953q.0487.27686.09888.55323l16.0935-2.92139q-.13951-.76758-.26709-1.54Zm2.36963,10.6709-15.75,4.4126q.24537.87523.50391,1.7456l15.6792-4.65771q-.22228-.74781-.43311-1.50049Zm3.5188,10.3457-15.17456,6.105q.32886.81738.66944,1.62842l.00024.00049.019.04541.00293.00635,15.07715-6.34082q-.30249-.71925-.59424-1.44483Zm4.62769,9.90576-14.42017,7.71973q.42921.80127.87012,1.59521l14.29834-7.94287q-.37939-.68334-.74829-1.37207Zm5.67993,9.35108-13.499,9.23633c.09961.1455.19873.28955.29882.43457l.01832.02636.00732.01075q.35412.51195.71338,1.0205l13.35473-9.44384q-.45153-.63869-.89355-1.28467Zm6.66211,8.689-12.42407,10.63819q.59106.69066,1.19262,1.37158l12.25855-10.82862q-.51819-.58666-1.0271-1.18115Zm7.56152,7.92285L147.29767,379.2085q.53539.50389,1.0769,1.00048l.00806.00782.02759.0249.2207.20215,11.022-12.08545q-.57861-.52734-1.14868-1.064Zm8.36988,7.0625-9.85791,13.05176c.10522.07959.21069.15869.31616.23828l.00464.00342.0332.0249.01538.01123.02539.01905.03467.02588.01758.01318.03174.02392.00341.00245c.21167.1582.42261.31494.63526.47168h.00049l.0332.02441.00757.00586.0581.04248.00806.00586.01831.01367.02466.01807.01489.01074.03272.02393.0083.00634c.04492.03321.08984.06592.13476.09864l9.655-13.20264q-.63135-.46217-1.25561-.93311Zm9.07763,6.11426-8.38916,14.041.00708.00439q.40942.24464.8208.48584l.00513.00293.04028.02344.00879.00537.04322.02539.02319.01318.01636.00977.031.01807.0083.00488c.188.10986.37451.21826.563.32666l8.17041-14.16943q-.67749-.39112-1.34839-.79151Zm9.6792,5.09082-6.81445,14.86914q.82543.37866,1.6582.74463l6.582-14.97363q-.71594-.31494-1.42578-.64014Zm10.16944,4.00488-5.15259,15.52344c.313.104.62353.20557.9375.30664l.00122.00049.04126.01318.0437.01416.00683.00245.04737.01513.00317.001q.32337.104.64771.20557l4.90967-15.60205q-.74525-.23437-1.48584-.48Zm10.54418,2.87061-3.42846,15.99268q.88806.19042,1.78125.36767l3.17846-16.04492q-.76794-.15161-1.53125-.31543Zm10.80445,1.707L215.47638,410.415q.30762.0315.616.06152l.01513.002.03516.00293.02173.00244.02783.00244.02686.00293.01733.00146c.03833.00391.07764.00733.11621.01123l.011.001.04053.00391.00512.00048c.293.02784.58179.0542.87549.07959l1.42163-16.29443q-.78039-.06811-1.55737-.148Zm12.52075.51367q-.783.01539-1.56836.01953l.07788,16.356c.03174,0,.05982,0,.09131-.00049h.04l.02515-.00049h.01928q.82215-.00512,1.6416-.02148l-.3269-16.353Zm10.926-.80615q-.77418.09961-1.55225.187l1.83032,16.25391.10669-.01221.02979-.00342.01831-.00195.03613-.00439.00977-.001c.53686-.06152,1.0686-.126,1.60327-.19434l-2.082-16.22363Zm10.75415-1.979q-.75879.18237-1.522.354l3.58448,15.959c.49243-.11036.977-.22266,1.46679-.33936l.0044-.001.03711-.00879.02441-.00586.02026-.00488c.07276-.01758.14527-.03515.218-.05224l-3.83349-15.90088Zm10.46753-3.1377q-.73389.26441-1.47339.51758l5.30493,15.47266q.16443-.0564.32861-.11329l.04688-.01611.00122-.00049q.67053-.23291,1.3374-.47314l-5.54565-15.38721Zm10.06542-4.26221q-.70128.34352-1.40893.67579l6.95959,14.80224q.39753-.18676.79273-.37646l.01489-.00733.024-.01123.03357-.01611.00952-.00488q.3827-.18384.76392-.37012l-7.18934-14.6919Zm9.54932-5.335q-.66064.41748-1.32837.8252l8.52551,13.959q.62513-.38158,1.24512-.771l.025-.01563.00781-.00537c.09045-.05664.17554-.11035.26575-.16748l-8.74085-13.82471Zm8.92236-6.34179q-.6123.48705-1.23205.96435l9.98376,12.95606q.3816-.29443.76075-.59131l.00341-.00244.04261-.03369h.00048l.08655-.06836.00684-.00537.03674-.02881.00562-.0044q.24444-.19263.48791-.38574l-10.18262-12.80029Zm8.19043-7.27051q-.55646.55005-1.12146,1.09228l11.32129,11.80469q.18219-.17431.36365-.3501l.01038-.00976.02282-.022c.21314-.20655.42762-.41553.63916-.62354l.01355-.01318.02039-.02051.01807-.01758.01672-.0166.03467-.03369.00659-.00684.03125-.03076.00867-.0083.03247-.03223.00476-.00488.07886-.07764L298.545,365.52588Zm7.36036-8.10986q-.494.60717-.9972,1.20605l12.52649,10.51807.00159-.00244q.58338-.69435,1.15625-1.39844L305.90534,357.416Zm6.44067-8.85254q-.42553.657-.86072,1.30615l13.58814,9.105q.3933-.5874.7799-1.1792l.01221-.019.01135-.01709c.06433-.09864.13257-.20362.19654-.30225L312.346,348.56348Zm5.44116-9.49024q-.35138.69873-.71338,1.39063l14.49475,7.57861q.3144-.60132.62207-1.20654l.00464-.00928.01978-.03906.00476-.00928.02234-.04394.01111-.022.01184-.02344.01342-.02636.00684-.01367.01685-.03321h0c.03173-.063.06421-.127.0957-.18994l-14.61072-7.35254Zm4.37427-10.01758q-.2732.7317-.55737,1.459l15.23352,5.95605q.21367-.54711.42236-1.09668l.00366-.00976.007-.01856.01477-.03906.00147-.00342q.10016-.26514.19934-.53027l-15.32471-5.71729Zm3.25452-10.43212q-.19171.75806-.39478,1.51123l15.7926,4.25781c.157-.58252.311-1.17237.45935-1.75879L325.416,318.62354Zm2.09863-10.7295q-.10821.7749-.22815,1.54639l16.16223,2.51318c.089-.57177.173-1.13965.25354-1.71435l.00037-.00293.00573-.04.00184-.01367.00378-.02686L327.51459,307.894Zm.926-10.91406q-.02416.78442-.0603,1.56592l16.339.75488c.01331-.28906.02576-.58154.037-.87109l.00073-.01709.0011-.02881.00146-.03858.00037-.00976q.01171-.30909.022-.61914l.00122-.03809.00037-.00927.00574-.1836L328.44061,296.98ZM344.504,284.77051l-16.30921,1.2417q.05915.7793.10669,1.56152l16.32654-.99121c-.00976-.15967-.01965-.31689-.02991-.47656l-.00195-.0293-.0011-.01758-.00244-.03662-.0011-.01562-.00268-.04151-.00073-.01074-.00342-.05225h0l-.00757-.11328v-.00049l-.00366-.05419-.00037-.0044-.00354-.05273-.00024-.00245c-.005-.0747-.01026-.14892-.01551-.22363l-.00024-.00342q-.02381-.3391-.04956-.67724Zm-1.6499-12.60889-16.079,2.99951q.14319.76758.27478,1.53955l16.12378-2.749c-.08167-.479-.16675-.96-.25415-1.43652l-.00269-.01465-.00244-.01319q-.02985-.16332-.0603-.32568Zm-3.01026-12.353-15.65613,4.73487q.22578.74634.44031,1.49756l15.72815-4.48975c-.07544-.26416-.15259-.53076-.22986-.79443l-.004-.01368-.00805-.02734-.0072-.02441-.00611-.021-.0122-.0415-.00184-.00586q-.11993-.408-.243-.81446Zm-4.34057-11.95214L320.45709,254.271q.30617.71777.60169,1.44189l15.14441-6.17871c-.03943-.09668-.08155-.19971-.12122-.2959l-.00317-.00781-.01123-.02686-.01172-.02881-.00537-.01269q-.26971-.65552-.54724-1.30566Zm-5.61658-11.40772-14.25952,8.01221q.38268.68115.75525,1.36865l14.3822-7.79q-.23475-.43285-.47241-.86328l-.00208-.00391-.01953-.03515-.0227-.041-.00623-.01123-.02161-.03906-.00268-.00488q-.16461-.29664-.33069-.59229Zm-6.82092-10.73144-13.3086,9.50878q.45447.63575.89954,1.27979l13.4541-9.30176-.04211-.06055-.0221-.03222-.001-.00147q-.485-.70019-.97985-1.39257Zm-7.94007-9.93213-12.20605,10.88769q.52094.58447,1.033,1.17627L316.325,217.15088c-.0791-.09131-.15881-.18359-.23816-.27442l-.007-.0083-.022-.02539-.02087-.02343-.01392-.01612-.03015-.03467-.009-.01025-.02673-.03076-.00867-.00977-.06983-.08007-.00451-.00538-.03052-.03466-.00781-.00879-.02686-.03076-.00915-.01075-.026-.02929-.02918-.03321-.00854-.00976-.02564-.0293-.00439-.00488c-.19348-.22022-.38538-.437-.58045-.65576Zm-8.9635-9.019L295.199,218.90479q.5808.5244,1.15356,1.0581l11.14893-11.96826-.06153-.05713-.00146-.00146-.03113-.02881-.00159-.00147-.05383-.05029-.01062-.00977-.02075-.019-.01734-.01611-.01721-.01612-.02575-.02392-.01123-.01026-.07764-.07177-.00647-.00586q-.49878-.46143-1.00281-.91651Zm-9.88269-8.00146-9.59094,13.24951q.63392.45849,1.26037.92725l9.79456-13.09961-.01147-.00879-.02015-.01465-.02844-.02148-.00158-.001c-.25867-.19336-.51355-.38184-.77393-.57324l-.01282-.00928-.025-.01856-.03894-.02832-.00244-.002q-.27393-.20068-.5492-.3999ZM285.591,191.87744l-8.10131,14.209q.6795.38745,1.35217.78515l8.32068-14.082q-.21827-.12891-.43726-.25732l-.01806-.01026-.02088-.0122-.02991-.01758-.00781-.0044c-.35327-.20654-.702-.40771-1.05762-.61035Zm-11.37268-5.688-6.50879,15.00537q.71742.31128,1.429.63331l6.7417-14.90235c-.1792-.08105-.36035-.1626-.54-.24267l-.01965-.00879-.02039-.00928-.03442-.01514-.01038-.00488q-.46143-.20508-.92493-.40723l-.01464-.00586-.02539-.01123-.072-.03125Zm-11.92407-4.41552-4.833,15.62646q.74671.23072,1.4878.47266l5.07666-15.54883c-.17456-.05664-.345-.11182-.52-.168l-.00635-.00244-.03149-.00977-.02124-.00683-.02271-.00733-.03857-.0122-.009-.00293q-.2688-.08643-.53784-.1709l-.00391-.00147-.04443-.01367-.01245-.00391-.02661-.0083c-.15039-.04736-.30615-.0957-.45679-.14257Zm-12.335-3.08789-3.1001,16.06005q.76831.14868,1.53223.30811l3.34985-16.00977-.07055-.01464-.03809-.00782-.00708-.00146q-.69215-.14429-1.387-.27979l-.001-.00049-.04565-.00878-.02-.00391-.02686-.00537-.02905-.00537-.00244-.00049-.1543-.03027Zm-12.59717-1.728-1.34253,16.30127q.78041.06446,1.55762.14062l1.59375-16.27881c-.17725-.01709-.36328-.03515-.54077-.05175l-.00952-.001-.03272-.00293-.02221-.00195-.02637-.00244-.03076-.00293-.01929-.002-.05151-.00439-.00586-.00049-.04737-.00439-.01391-.00147-.03858-.00342-.01684-.00146-.03638-.00342-.01782-.00147-.03882-.00341-.01343-.00147-.05029-.00439-.01978-.002-.03222-.00244-.02564-.00244-.02221-.00195-.03272-.00293-.01245-.001c-.21631-.019-.43457-.0376-.65137-.05566Z"/>
    </g>
  </g>
  <g>
    <circle class="cls-51" cx="51.44097" cy="188.32242" r="51.44097"/>
    <g>
      <rect class="cls-6" x="33.97685" y="181.1547" width="11.16548" height="33.5616" transform="translate(-128.3748 85.94682) rotate(-45)"/>
      <rect class="cls-6" x="55.71563" y="166.9052" width="11.16548" height="50.25593" transform="translate(-31.14509 371.16562) rotate(-135)"/>
    </g>
  </g>
  <g>
    <g class="cls-57">
      <ellipse class="cls-58" cx="150.26012" cy="731.09979" rx="36.30513" ry="20.86502"/>
    </g>
    <g>
      <path class="cls-59" d="M150.26015,715.10147c14.34209,0,26.45877,6.34385,26.45877,13.85291,0,7.509-12.11668,13.85284-26.45877,13.85284-14.34222,0-26.45889-6.34385-26.45889-13.85284,0-7.50906,12.11667-13.85291,26.45889-13.85291m0-3.18215c-16.37029,0-29.64105,7.62682-29.64105,17.03506,0,9.40817,13.27076,17.035,29.64105,17.035,16.37017,0,29.64092-7.62682,29.64092-17.035,0-9.40824-13.27075-17.03506-29.64092-17.03506Z"/>
      <g>
        <g>
          <path class="cls-60" d="M122.31581,673.3409v43.57446c0,8.86969,12.51123,16.06,27.94434,16.06,15.43322,0,27.94433-7.19031,27.94433-16.06V673.3409Z"/>
          <ellipse class="cls-13" cx="150.26012" cy="673.34094" rx="27.94426" ry="16.05992"/>
          <path class="cls-61" d="M174.50442,681.31992c-4.82258,4.84517-13.885,8.07533-24.24871,8.07533s-19.42558-3.23016-24.24871-8.07533c3.0734-6.01166,12.76346-10.4083,24.24871-10.4083S171.431,675.30826,174.50442,681.31992Z"/>
          <path class="cls-15" d="M150.26015,660.281c13.52112,0,24.94421,5.98072,24.94421,13.05994,0,7.07916-11.42309,13.05988-24.94421,13.05988-13.52124,0-24.94434-5.98072-24.94434-13.05988,0-7.07922,11.4231-13.05994,24.94434-13.05994m0-3c-15.43323,0-27.94434,7.19025-27.94434,16.05994,0,8.86963,12.51111,16.05988,27.94434,16.05988,15.4331,0,27.94421-7.19025,27.94421-16.05988,0-8.86969-12.51111-16.05994-27.94421-16.05994Z"/>
        </g>
        <g>
          <path class="cls-62" d="M158.84166,558.22667c10.27342-3.82416,30.20007-14.81553,24.20314-21.78945S158.1363,542.5526,158.84166,558.22667Z"/>
          <path class="cls-61" d="M148.1606,679.14457c-.57,0-1.268-.94038-1.268-2.03784,0-53.61359-4.83087-88.51462-16.70718-116.823a3.37392,3.37392,0,0,1,.15429-2.793c.44333-.69143,1.0925-.55911,1.45127.29707,12.197,29.07372,17.40146,64.77243,17.40146,119.37062C149.19246,678.256,148.7306,679.14457,148.1606,679.14457Z"/>
          <path class="cls-61" d="M152.7883,679.14457c-.57,0-1.03186-.88861-1.03186-1.98607,0-50.49632,0-119.65472,13.174-151.057.35844-.85617,1.008-.98719,1.45094-.29706a3.37267,3.37267,0,0,1,.15463,2.793c-12.71582,30.31128-12.71582,98.65631-12.71582,148.56109C153.82015,678.256,153.35829,679.14457,152.7883,679.14457Z"/>
          <path class="cls-61" d="M153.2734,624.93815c-.53193,0-.98335-.78613-1.02748-1.82392-1.71134-40.383-6.25718-67.83-14.30621-86.37535a3.38493,3.38493,0,0,1,.13-2.79814c.43794-.7044,1.08845-.58895,1.45329.25037,8.33572,19.20562,13.03181,47.35959,14.77987,88.59881.04615,1.09357-.37663,2.05353-.94461,2.14174A.47247.47247,0,0,1,153.2734,624.93815Z"/>
        </g>
        <path class="cls-61" d="M152.7893,640.64908a.5231.5231,0,0,1-.07445-.00477c-.56865-.0715-.79916-.97985-.7584-1.98439,1.28418-31.77956,9.09445-65.2926,21.9147-67.92371.56326-.11678,1.078.60058,1.1437,1.60154.06569,1.00216-.33991,1.9078-.90586,2.02339-11.70518,2.40232-19.068,34.313-20.29154,64.59344C153.77871,639.91623,153.32561,640.64908,152.7893,640.64908Z"/>
        <path class="cls-63" d="M159.69811,593.04672c10.16466,2.53689,31.575,2.65047,30.61628-6.08738S167.61175,580.31017,159.69811,593.04672Z"/>
        <path class="cls-64" d="M163.44994,586.49027c17.08454-4.57708,48.78844-21.93977,40.21852-34.05555S164.70543,561.20613,163.44994,586.49027Z"/>
        <path class="cls-65" d="M151.33257,598.75887c13.111-5.7497,36.35769-23.516,28.02018-32.16342S149.248,578.3743,151.33257,598.75887Z"/>
        <path class="cls-66" d="M147.53005,564.03738c-12.41352-9.28868-32.56113-33.74366-21.641-40.81312S154.7422,543.0513,147.53005,564.03738Z"/>
        <path class="cls-67" d="M141.89673,593.98963c-17.297-4.81082-49.30951-22.74048-40.49385-34.95552S140.86653,568.31354,141.89673,593.98963Z"/>
        <path class="cls-68" d="M134.90158,569.80617c-9.49519-5.478-27.31851-19.62761-20.24616-25.50814S138.20153,554.46719,134.90158,569.80617Z"/>
        <path class="cls-69" d="M154.08042,553.72508c12.14387-10.83615,31.84358-35.50284,19.59866-41.78006S144.321,532.653,154.08042,553.72508Z"/>
        <path class="cls-70" d="M149.53626,577.05561c9.36164-8.86211,23.65647-30.992,13.95945-35.78343S141.567,560.41466,149.53626,577.05561Z"/>
        <path class="cls-71" d="M151.07963,589.47515c-10.57167-5.39906-28.94632-21.2392-21.62312-27.99S153.8,572.70413,151.07963,589.47515Z"/>
      </g>
      <rect class="cls-72" x="160.25758" y="709.23473" width="37.57777" height="2.00007" transform="translate(-538.51421 857.19647) rotate(-87.42538)"/>
      <rect class="cls-73" x="120.39409" y="691.44588" width="2.00007" height="37.57777" transform="translate(-31.69869 6.152) rotate(-2.56788)"/>
      <rect class="cls-74" x="149.26424" y="707.69131" width="2" height="37.27637"/>
      <path class="cls-75" d="M178.20442,682.43063v7.77a3.429,3.429,0,0,1,0,.74c-.38,7.78-13.02,14.28-27.93994,14.28-14.92,0-27.57007-6.5-27.95007-14.28a3.44956,3.44956,0,0,1,0-.74v-7.76a11.4797,11.4797,0,0,0,0,16.27c5.16,5.86,15.74011,9.87,27.95007,9.87,12.2,0,22.77-4.01,27.93994-9.86a11.47974,11.47974,0,0,0,0-16.29Z"/>
    </g>
  </g>
  <g>
    <g>
      <polygon class="cls-76" points="728.313 335.794 728.352 426.496 651.072 381.743 651.033 291.041 728.313 335.794"/>
      <polygon class="cls-77" points="725.006 333.885 725.037 412.514 661.484 375.685 661.453 297.057 725.006 333.885"/>
      <polygon class="cls-78" points="713.65 342.542 713.671 395.846 670.586 370.879 670.565 317.575 713.65 342.542"/>
      <path class="cls-79" d="M724.0147,418.98993l-68.61231-39.7495-.03221-80.69349,68.61233,39.74951.03219,80.69348m4.33729,7.5063-.03922-90.70187L651.0329,291.04064l.03924,90.70188L728.352,426.49623Z"/>
      <polygon class="cls-80" points="655.924 288.209 733.203 332.963 728.313 335.794 651.033 291.041 655.924 288.209"/>
      <polygon class="cls-81" points="733.203 332.963 733.226 423.675 728.352 426.496 728.313 335.794 733.203 332.963"/>
    </g>
    <g>
      <polygon class="cls-82" points="793.561 357.955 793.601 416.657 740.57 385.903 740.53 327.202 793.561 357.955"/>
      <polygon class="cls-83" points="790.255 356.046 790.286 402.675 750.981 379.846 750.95 333.218 790.255 356.046"/>
      <path class="cls-84" d="M789.26336,409.1508l-44.3636-25.7495-.0322-48.69349,44.36361,25.74951.03219,48.69348m4.33729,7.5063-.03922-58.70187-53.03116-30.75372.03924,58.70188,53.03114,30.75371Z"/>
      <polygon class="cls-85" points="745.421 324.37 798.452 355.124 793.561 357.955 740.53 327.202 745.421 324.37"/>
      <polygon class="cls-86" points="798.452 355.124 798.475 413.835 793.601 416.657 793.561 357.955 798.452 355.124"/>
    </g>
  </g>
  <g>
    <path class="cls-87" d="M482.72313,546.99894l-.6149,7.33409-59.90756-53.9648c1.75192,23.65749,10.01468,44.76661,19.034,62.72913,4.10932,5.33333,17.108,9.66379,29.03836,5.22526a18.5064,18.5064,0,0,1,16.78087,1.69981s52.6015,39.1109,89.57657,58.59069S689.099,681.88741,689.099,681.88741l19.55575-11.70609L674.14405,643.2766Z"/>
    <path class="cls-88" d="M523.21112,427.37734a8.75921,8.75921,0,0,0,.69864-1.74751c.89083-3.28387-.18943-6.43483-2.41292-7.038-2.2233-.60319-4.748,1.56986-5.6388,4.85364a8.9402,8.9402,0,0,0-.25295,1.38687c-11.14615,5.6469-36.83537,32.67182-36.83537,32.67182-20.74483,2.59342-39.5261,10.82316-56.77719,23.44483a12.0985,12.0985,0,0,0-5.84461-.95894c-4.62261.30882-8.22385,2.74512-8.04381,5.44163.18,2.69671,4.07363,4.63236,8.69605,4.32364a14.1063,14.1063,0,0,0,2.06627-.29639c6.51159,24.89568,19.73562,47.81622,40.39778,68.54806-.03461.03424-.072.06075-.10659.09554-3.26435,3.28746-4.35621,7.49613-2.43832,9.40049,1.91789,1.90427,6.11873.783,9.38309-2.50441a12.33375,12.33375,0,0,0,2.94532-4.59168c33.25217-3.08864,81.09545-38.8108,91.43031-69.68042C553.63506,465.95176,540.721,445.1577,523.21112,427.37734Z"/>
    <path class="cls-89" d="M486.92435,486.20683,506.228,441.467s9.19831,4.309,15.99074,15.98942c6.87364,11.82008,20.97768,11.59,28.56743,23.23322,4.0937,6.28,2.5188,9.402,5.53127,13.68767,4.04636,5.75649,5.111,7.861,9.38366,14.8426,6.32981,10.343,5.60707,21.63751,1.78205,27.49671-7.93363,12.15281-15.79065,16.066-26.15526,17.24213-11.82362.51658-19.222-8.48348-27.69483-18.89573-6.07163-7.46137-5.42738-23.176-6.50886-31.35751C493.62727,493.31345,486.92435,486.20683,486.92435,486.20683Z"/>
    <path class="cls-90" d="M499.41668,484.51235l-32.69271-29.52s-4.10023,10.07973.59516,26.52635c2.95547,10.35218-7.35527,17.91115-7.3067,30.25777.03693,9.38861,6.77942,13.50847,6.16721,21.61624-.507,6.71415-1.70613,12.13426,0,18.71883,2.95495,11.40419,12.768,15.96048,19.69794,16.92864,11.19663,1.56425,15.74662.66648,24.05894-5.63541,8.913-7.78615,4.9238-11.72114,3.86946-25.10369-.75554-9.58989-12.06713-20.51755-16.93086-27.18464C499.47053,494.28119,499.41668,484.51235,499.41668,484.51235Z"/>
    <path class="cls-91" d="M607.53052,521.63765c-4.41007-4.559-46.47176-35.63616-61.171-37.67179-12.67557-1.75553-15.75431,3.68073-15.75431,3.68073l38.76285,28.42859,28.00474,19.30876Z"/>
    <path class="cls-92" d="M579.10178,499.90219s-22.13375-16.34546-36.74657-18.9295c-12.923-2.28523-20.5181,3.601-20.5181,3.601l44.51322,33.17392C576.98693,524.54285,586.958,504.62313,579.10178,499.90219Z"/>
    <path class="cls-93" d="M573.96191,518.47653a13.38318,13.38318,0,0,0,6.102-6.05211l-19.58584-15.24935Z"/>
    <path class="cls-94" d="M473.15336,539.379c-1.50964-20.71108,17.20169-36.35709,35.96867-47.095,10.15116-5.80817,16.12151-11.295,24.59764-11.31124,5.1186-.00982,14.23752,3.55938,20.062,11.96028,10.6421,4.54642,20.06577,19.46734,23.52023,27.67829l8.015,3.765,45.96223,21.02937c12.5509,20.818-23.3999,89.81643-50.70092,76.04136-13.77243-5.21776-44.83615-42.71268-44.83615-42.71268L515.30575,569.027Z"/>
    <path class="cls-93" d="M554.32128,568.12081l12.52777-20.19311-8.38084-10.42853-27.86295,14.01409-30.48963-19.943-7.32891,13.99947,29.2191,26.63976,13.7362,6.52483s5.16484,6.23382,12.21551,13.97116v0A42.69153,42.69153,0,0,1,554.32128,568.12081Z"/>
    <path class="cls-93" d="M591.72145,537.49917c6.63841,2.35332,17.14971,1.718,19.01683-1.49168h0L601.04,531.57027l-14.37448.64954-4.88114,7.55586A34.28494,34.28494,0,0,0,591.72145,537.49917Z"/>
    <path class="cls-49" d="M635.38888,552.07882c11.08557,10.46908,7.45479,32.9122-8.2147,50.24376s-37.3969,22.93665-48.52954,12.51934-7.45479-32.91221,8.21469-50.24376S621.32892,538.80076,635.38888,552.07882Z"/>
    <path class="cls-95" d="M694.09409,561.74644c-1.6988-9.36709-2.91223-19.17212-14.07574-18.32272l-48.83709.90648-5.13039,38.3699,12.44962,21.25715,46.89738-10.864C693.31142,591.17983,696.76366,578.16812,694.09409,561.74644Z"/>
    <path class="cls-91" d="M736.97083,654.3071l-18.00152-95.10885c-2.30553-9.54573-9.87941-12.832-17.1093-12.49828-7.88727.364-20.0908,2.19262-20.0908,2.19262-14.56111,2.00216-12.24419,40.12826,2.68689,37.93673l9.274-1.09072c.64713,18.44991,16.09086,49.986,31.60974,75.44807Z"/>
    <path class="cls-49" d="M662.50457,599.484l-34.99869-19.09877,3.67538-36.055-2.4316.18216c-14.681-.72462-38.76488,13.96942-50.21414,33.24263-8.704,14.65176-5.92453,35.08737,6.012,42.11454,13.53009,8.47032,59.55341,20.62824,59.55341,20.62824C657.04416,645.2416,677.34881,608.66557,662.50457,599.484Z"/>
    <path class="cls-96" d="M750.94308,694.4042c-4.15324-3.10574,1.07532-16.77111,5.50382-15.87633,0,0,3.38089-6.14117,8.03051-14.59306,0,0,1.16908-2.38511,2.11729-3.96946,2.07993-3.4753,9.90271-7.99167,12.976-7.42295,2.97148.54989,5.14,4.39071,3.59631,9.959-.60428,7.28792-1.01719,15.46211-5.347,22.21447-4.56613,7.12082-2.31024,18.20431-11.6542,18.22333C760.23556,702.95126,750.94308,694.4042,750.94308,694.4042Z"/>
    <path class="cls-97" d="M514.93179,545.48654c-7.70525-7.70525-20.41936-18.93665-20.41936-18.93665-16.00363-13.82584-27.18665,9.41278-18.1069,23.62856,6.00646,9.404,13.86994,14.28331,19.71817,17.75646C509.10434,575.64389,522.63705,553.19179,514.93179,545.48654Z"/>
    <ellipse class="cls-49" cx="505.0728" cy="556.70938" rx="12.14968" ry="7.09022" transform="translate(-240.88537 649.28516) rotate(-54.85863)"/>
    <path class="cls-96" d="M562.87131,534.601,529.23,560.24989,512.76785,548.5201c-7.40189-5.01549-18.69174,11.4462-12.94321,16.56326,5.33908,4.75259,23.05509,14.94536,27.58521,15.2285,15.0678.94173,44.40969-39.24593,44.40969-39.24593Z"/>
    <path class="cls-96" d="M574.7499,522.9803l7.15735,8.7582s7.2321,4.10727,19.8771,4.87891c12.38767.75594,11.77058-18.8698-4.34607-18.8698C582.32483,517.74761,574.7499,522.9803,574.7499,522.9803Z"/>
    <path class="cls-96" d="M557.54715,540.006s2.29378-7.26306,5.8752-10.91928c2.37753-2.4272,5.08447-1.63253,8.92673-1.98068,6.33261-.5738,15.1791,5.94469,11.20963,10.63086s-10.3512,10.1909-16.70975,10.1909Z"/>
    <path class="cls-91" d="M572.34913,527.106c-3.84207.34815-6.54923-.44652-8.92659,1.98071-.16237.16564-.31883.34625-.47572.5257a4.76456,4.76456,0,0,0-.43018,1.91291c0,4.40836,1.63763,10.25244,6.90982,11.2469,2.33265.44,8.194-2.922,10.14457-2.922q1.15769,0,2.2133-.07444c.61954-.69071,1.21377-1.3773,1.77427-2.03891C587.528,533.05068,578.68158,526.53224,572.34913,527.106Z"/>
    <path class="cls-96" d="M591.49765,529.35689c0,6.35854-4.17157,7.8838-10.53012,7.8838-1.95027,0-7.81168,3.36193-10.14419,2.922-5.27227-.99446-6.50552-4.96408-6.50552-9.37235,0-6.35855,12.11051-11.302,18.46905-11.302S591.49765,522.99834,591.49765,529.35689Z"/>
    <path class="cls-96" d="M673.58719,647.77832c13.83211,12.90542,69.83265,40.64976,69.83265,40.64976l7.52324,5.97612,7.88726-18.71709-5.26078.09688c-11.84014-11.287-52.83993-50.84431-63.0327-58.89337s-30.879-12.93337-30.879-12.93337c-13.85807-5.444-24.86065,27.82862-16.12128,32.67681Z"/>
    <g>
      <path class="cls-96" d="M521.87726,484.80234c-.07054-.04362-.14805-.08122-.22022-.12345-3.706,2.07508-7.63152,4.79946-12.53494,7.60506a121.83466,121.83466,0,0,0-17.08424,11.61227c4.04712,8.45719,18.85973,11.77169,29.79926,4.94473C531.36769,502.89349,530.88257,490.36853,521.87726,484.80234Z"/>
      <path class="cls-91" d="M515.308,489.71245c1.759,2.502,2.64868,5.43848.45441,8.29013-4.45247,5.78636-14.10432,6.02694-17.1029,1.16526l-7.83129-13.00469,16.28215-7.919Z"/>
    </g>
    <g>
      <path class="cls-96" d="M477.262,466.76134c-4.37815-7.01823-.04982-17.71484,8.86845-22.21041,7.79445-3.92907,18.96859-1.78411,23.16767,6.52579a181.29311,181.29311,0,0,1,7.91075,19.06218c2.8713,8.73677,3.372,19.51016-6.04993,21.90937-10.36768,2.64-18.76285.5844-23.55864-7.59212Z"/>
      <path class="cls-98" d="M501.27854,439.36492c13.33361,4.329,15.34735,13.93078,11.30685,18.89986,0,0-4.6038-5.80426-9.08-6.69738,3.49458,9.29432-8.97376,17.50354-12.60275,19.96891,2.54349,3.10756,2.36712,9.62369-.54813,12.10511.84934,3.92715,3.7665,7.65681,4.99886,10.03612-10.77361-1.22064-31.26137-14.01923-29.89065-32.52032C466.68631,444.64167,485.03448,434.091,501.27854,439.36492Z"/>
      <path class="cls-96" d="M492.24259,487.73609c-3.18043,1.15614-7.472-2.31142-8.784-5.92042s.70874-7.78223,4.033-7.149C491.66469,475.46168,495.423,486.57994,492.24259,487.73609Z"/>
    </g>
  </g>
</svg>
