<svg id="Layer_1" data-name="Layer 1" xmlns="http://www.w3.org/2000/svg" xmlns:xlink="http://www.w3.org/1999/xlink" viewBox="0 0 1000 1000">
  <defs>
    <style>
      .cls-1, .cls-18, .cls-19 {
        fill: none;
      }

      .cls-2 {
        fill: url(#linear-gradient);
      }

      .cls-3 {
        fill: #b8cbd8;
      }

      .cls-4 {
        fill: url(#linear-gradient-2);
      }

      .cls-5 {
        fill: #9bb0c4;
      }

      .cls-6 {
        fill: url(#linear-gradient-3);
      }

      .cls-7 {
        fill: url(#linear-gradient-4);
      }

      .cls-8 {
        fill: url(#linear-gradient-5);
      }

      .cls-9 {
        fill: url(#linear-gradient-6);
      }

      .cls-10 {
        fill: url(#linear-gradient-7);
      }

      .cls-11 {
        fill: #e58630;
      }

      .cls-12 {
        fill: url(#linear-gradient-8);
      }

      .cls-13, .cls-47, .cls-50 {
        opacity: 0.5;
      }

      .cls-14 {
        fill: url(#linear-gradient-9);
      }

      .cls-15 {
        fill: #748ca3;
      }

      .cls-16 {
        fill: #586c7f;
      }

      .cls-17 {
        fill: url(#linear-gradient-10);
      }

      .cls-18, .cls-19 {
        stroke-miterlimit: 10;
        stroke-width: 5px;
      }

      .cls-18 {
        stroke: url(#linear-gradient-11);
      }

      .cls-19 {
        stroke: url(#linear-gradient-12);
      }

      .cls-20 {
        fill: url(#linear-gradient-13);
      }

      .cls-21 {
        fill: url(#linear-gradient-14);
      }

      .cls-22 {
        fill: url(#linear-gradient-15);
      }

      .cls-23 {
        fill: url(#linear-gradient-16);
      }

      .cls-24 {
        fill: url(#linear-gradient-17);
      }

      .cls-25 {
        fill: url(#linear-gradient-18);
      }

      .cls-26 {
        fill: url(#linear-gradient-19);
      }

      .cls-27 {
        fill: url(#linear-gradient-20);
      }

      .cls-28 {
        fill: url(#linear-gradient-21);
      }

      .cls-29 {
        fill: url(#linear-gradient-22);
      }

      .cls-30 {
        fill: url(#linear-gradient-23);
      }

      .cls-31 {
        fill: url(#linear-gradient-24);
      }

      .cls-32 {
        fill: #ffcb48;
      }

      .cls-33 {
        fill: #34a521;
      }

      .cls-34 {
        fill: #e2e2e2;
      }

      .cls-35 {
        clip-path: url(#clip-path);
      }

      .cls-36 {
        fill: url(#linear-gradient-25);
      }

      .cls-37 {
        fill: url(#linear-gradient-26);
      }

      .cls-38 {
        fill: url(#linear-gradient-27);
      }

      .cls-39 {
        fill: #541510;
        opacity: 0.3;
      }

      .cls-40 {
        fill: url(#linear-gradient-28);
      }

      .cls-41, .cls-47 {
        fill: #bcd0e2;
      }

      .cls-42 {
        fill: #e9f1f4;
      }

      .cls-43 {
        fill: url(#linear-gradient-29);
      }

      .cls-44 {
        fill: url(#linear-gradient-30);
      }

      .cls-45 {
        fill: #f0f9fc;
      }

      .cls-46 {
        fill: url(#linear-gradient-31);
      }

      .cls-48 {
        fill: url(#linear-gradient-32);
      }

      .cls-49 {
        fill: url(#linear-gradient-33);
      }

      .cls-50, .cls-52 {
        fill: #dd7b19;
      }

      .cls-51 {
        fill: url(#linear-gradient-34);
      }

      .cls-52 {
        opacity: 0.6;
      }

      .cls-53 {
        fill: url(#linear-gradient-35);
      }

      .cls-54 {
        fill: #ef8e73;
      }

      .cls-55 {
        fill: url(#linear-gradient-36);
      }

      .cls-56 {
        fill: #303d49;
      }

      .cls-57 {
        fill: #e2786d;
      }

      .cls-58 {
        fill: url(#linear-gradient-37);
      }

      .cls-59 {
        fill: url(#linear-gradient-38);
      }

      .cls-60 {
        fill: url(#linear-gradient-39);
      }

      .cls-61 {
        fill: url(#linear-gradient-40);
      }

      .cls-62 {
        fill: url(#linear-gradient-41);
      }

      .cls-63 {
        fill: url(#linear-gradient-42);
      }

      .cls-64 {
        fill: #fff;
      }

      .cls-65 {
        fill: url(#linear-gradient-43);
      }

      .cls-66 {
        fill: url(#linear-gradient-44);
      }

      .cls-67 {
        opacity: 0.4;
        fill: url(#linear-gradient-45);
      }

      .cls-68 {
        fill: url(#linear-gradient-46);
      }

      .cls-69 {
        fill: url(#linear-gradient-47);
      }

      .cls-70 {
        fill: url(#linear-gradient-48);
      }

      .cls-71 {
        fill: url(#linear-gradient-49);
      }

      .cls-72 {
        fill: url(#linear-gradient-50);
      }

      .cls-73 {
        fill: url(#linear-gradient-51);
      }

      .cls-74 {
        fill: url(#linear-gradient-52);
      }

      .cls-75 {
        fill: url(#linear-gradient-53);
      }

      .cls-76 {
        fill: url(#linear-gradient-54);
      }

      .cls-77 {
        fill: url(#linear-gradient-55);
      }

      .cls-78 {
        fill: url(#linear-gradient-56);
      }

      .cls-79 {
        fill: url(#linear-gradient-57);
      }

      .cls-80 {
        fill: url(#linear-gradient-58);
      }

      .cls-81 {
        fill: url(#linear-gradient-59);
      }

      .cls-82 {
        fill: url(#linear-gradient-60);
      }

      .cls-83 {
        fill: url(#linear-gradient-61);
      }

      .cls-84 {
        fill: url(#linear-gradient-62);
      }

      .cls-85 {
        fill: url(#linear-gradient-63);
      }

      .cls-86 {
        fill: url(#linear-gradient-64);
      }

      .cls-87 {
        fill: url(#linear-gradient-65);
      }

      .cls-88 {
        fill: #ffbea4;
      }

      .cls-89 {
        fill: url(#linear-gradient-66);
      }

      .cls-90 {
        fill: url(#linear-gradient-67);
      }

      .cls-91 {
        fill: url(#linear-gradient-68);
      }

      .cls-92 {
        fill: url(#linear-gradient-69);
      }

      .cls-93 {
        fill: url(#linear-gradient-70);
      }
    </style>
    <linearGradient id="linear-gradient" x1="521.50943" y1="396.22833" x2="928.15567" y2="396.22833" gradientUnits="userSpaceOnUse">
      <stop offset="0" stop-color="#e4edf2"/>
      <stop offset="1" stop-color="#c3d6e6"/>
    </linearGradient>
    <linearGradient id="linear-gradient-2" x1="114.87886" y1="711.22041" x2="928.15567" y2="711.22041" gradientUnits="userSpaceOnUse">
      <stop offset="0" stop-color="#dae9f2"/>
      <stop offset="0.99337" stop-color="#c4d5e6"/>
    </linearGradient>
    <linearGradient id="linear-gradient-3" x1="-916.23489" y1="188.87542" x2="-922.36255" y2="512.10947" gradientTransform="translate(1237.78726)" gradientUnits="userSpaceOnUse">
      <stop offset="0" stop-color="#293440"/>
      <stop offset="1" stop-color="#3e4c59"/>
    </linearGradient>
    <linearGradient id="linear-gradient-4" x1="-1089.94225" y1="396.19506" x2="-746.59953" y2="396.19506" gradientTransform="translate(1237.78726)" gradientUnits="userSpaceOnUse">
      <stop offset="0" stop-color="#5b6f82"/>
      <stop offset="1" stop-color="#849bb2"/>
    </linearGradient>
    <linearGradient id="linear-gradient-5" x1="-728.22582" y1="293.17671" x2="-1102.12283" y2="495.85551" gradientTransform="translate(1237.78726)" gradientUnits="userSpaceOnUse">
      <stop offset="0" stop-color="#62778c"/>
      <stop offset="1" stop-color="#435466"/>
    </linearGradient>
    <linearGradient id="linear-gradient-6" x1="-795.26524" y1="325.43067" x2="-933.74356" y2="400.49578" xlink:href="#linear-gradient-5"/>
    <linearGradient id="linear-gradient-7" x1="-906.73405" y1="389.7831" x2="-1045.21236" y2="464.84821" xlink:href="#linear-gradient-5"/>
    <linearGradient id="linear-gradient-8" x1="-1087.85405" y1="333.09678" x2="-912.4498" y2="569.01168" gradientTransform="translate(1237.78726)" gradientUnits="userSpaceOnUse">
      <stop offset="0.00005" stop-color="#ffcb48"/>
      <stop offset="1" stop-color="#e68e2b"/>
    </linearGradient>
    <linearGradient id="linear-gradient-9" x1="-910.12518" y1="230.45356" x2="-734.72093" y2="466.36846" xlink:href="#linear-gradient-8"/>
    <linearGradient id="linear-gradient-10" x1="-1298.99246" y1="240.09776" x2="-735.17368" y2="240.09776" xlink:href="#linear-gradient-4"/>
    <linearGradient id="linear-gradient-11" x1="8918.07187" y1="475.31353" x2="8984.87272" y2="505.83343" gradientTransform="translate(-8377.35491)" gradientUnits="userSpaceOnUse">
      <stop offset="0" stop-color="#3e4c59"/>
      <stop offset="1" stop-color="#293440"/>
    </linearGradient>
    <linearGradient id="linear-gradient-12" x1="8851.53879" y1="429.30395" x2="8927.0216" y2="463.79045" xlink:href="#linear-gradient-11"/>
    <linearGradient id="linear-gradient-13" x1="725.22175" y1="370.61972" x2="847.81411" y2="456.95236" gradientTransform="translate(-242.3977)" xlink:href="#linear-gradient-5"/>
    <linearGradient id="linear-gradient-14" x1="724.87096" y1="384.01489" x2="857.46014" y2="527.90676" gradientTransform="translate(-242.3977)" gradientUnits="userSpaceOnUse">
      <stop offset="0" stop-color="#62788c"/>
      <stop offset="1" stop-color="#526575"/>
    </linearGradient>
    <linearGradient id="linear-gradient-15" x1="711.79115" y1="365.93489" x2="791.94729" y2="490.97847" gradientTransform="translate(-242.3977)" gradientUnits="userSpaceOnUse">
      <stop offset="0" stop-color="#96b1cc"/>
      <stop offset="1" stop-color="#748ea6"/>
    </linearGradient>
    <linearGradient id="linear-gradient-16" x1="718.46368" y1="407.00607" x2="846.63183" y2="407.00607" gradientTransform="translate(-242.3977)" gradientUnits="userSpaceOnUse">
      <stop offset="0" stop-color="#526575"/>
      <stop offset="1" stop-color="#62788c"/>
    </linearGradient>
    <linearGradient id="linear-gradient-17" x1="718.46363" y1="386.24029" x2="846.6318" y2="386.24029" xlink:href="#linear-gradient-15"/>
    <linearGradient id="linear-gradient-18" x1="514.91155" y1="385.4919" x2="565.38856" y2="385.4919" gradientTransform="matrix(1, 0, 0, 1, 0, 0)" xlink:href="#linear-gradient-5"/>
    <linearGradient id="linear-gradient-19" x1="514.91153" y1="381.64595" x2="565.38857" y2="381.64595" gradientUnits="userSpaceOnUse">
      <stop offset="0" stop-color="#849bb2"/>
      <stop offset="1" stop-color="#5b6f82"/>
    </linearGradient>
    <linearGradient id="linear-gradient-20" x1="539.80912" y1="341.03581" x2="540.48118" y2="378.22327" gradientTransform="matrix(1, 0, 0, 1, 0, 0)" xlink:href="#linear-gradient-5"/>
    <linearGradient id="linear-gradient-21" x1="506.20709" y1="333.66652" x2="574.09305" y2="333.66652" gradientTransform="matrix(1, 0, 0, 1, 0, 0)" xlink:href="#linear-gradient-5"/>
    <linearGradient id="linear-gradient-22" x1="505.75169" y1="328.69073" x2="574.54846" y2="328.69073" gradientUnits="userSpaceOnUse">
      <stop offset="0.00844" stop-color="#ffc63f"/>
      <stop offset="1" stop-color="#e68a23"/>
    </linearGradient>
    <linearGradient id="linear-gradient-23" x1="532.73233" y1="315.91105" x2="547.56768" y2="315.91105" gradientTransform="matrix(1, 0, 0, 1, 0, 0)" xlink:href="#linear-gradient-11"/>
    <linearGradient id="linear-gradient-24" x1="532.73234" y1="310.18743" x2="547.56776" y2="310.18743" gradientTransform="matrix(1, 0, 0, 1, 0, 0)" xlink:href="#linear-gradient-5"/>
    <clipPath id="clip-path">
      <path class="cls-1" d="M435.98541,305.84375A194.17509,194.17509,0,1,1,364.93924,155.6819,193.78539,193.78539,0,0,1,435.98541,305.84375Z"/>
    </clipPath>
    <linearGradient id="linear-gradient-25" x1="193.50525" y1="-189.97682" x2="823.77115" y2="635.41785" gradientTransform="matrix(1, 0, 0, 1, 0, 0)" xlink:href="#linear-gradient-5"/>
    <linearGradient id="linear-gradient-26" x1="129.95553" y1="-142.08045" x2="754.57842" y2="675.92415" gradientTransform="matrix(1, 0, 0, 1, 0, 0)" xlink:href="#linear-gradient-14"/>
    <linearGradient id="linear-gradient-27" x1="-675.71064" y1="697.3606" x2="1003.68931" y2="1148.27771" gradientTransform="matrix(1, 0, 0, 1, 0, 0)" xlink:href="#linear-gradient-5"/>
    <linearGradient id="linear-gradient-28" x1="-1157.36557" y1="978.01588" x2="1061.55441" y2="1098.05582" gradientTransform="matrix(1, 0, 0, 1, 0, 0)" xlink:href="#linear-gradient-11"/>
    <linearGradient id="linear-gradient-29" x1="168.18485" y1="-327.90245" x2="1024.6131" y2="793.67386" gradientUnits="userSpaceOnUse">
      <stop offset="0" stop-color="#596c80"/>
      <stop offset="0.99886" stop-color="#3a4959"/>
    </linearGradient>
    <linearGradient id="linear-gradient-30" x1="174.36751" y1="1168.23399" x2="278.8002" y2="1331.14899" gradientTransform="matrix(1, 0, 0, 1, 0, 0)" xlink:href="#linear-gradient-11"/>
    <linearGradient id="linear-gradient-31" x1="156.82936" y1="201.42026" x2="143.72163" y2="679.85228" gradientUnits="userSpaceOnUse">
      <stop offset="0" stop-color="#75413e"/>
      <stop offset="1" stop-color="#592f2f"/>
    </linearGradient>
    <linearGradient id="linear-gradient-32" x1="284.21695" y1="204.91033" x2="271.10922" y2="683.34235" xlink:href="#linear-gradient-31"/>
    <linearGradient id="linear-gradient-33" x1="21.21873" y1="303.14435" x2="14.66486" y2="662.51452" gradientTransform="matrix(1, 0, 0, 1, 0, 0)" xlink:href="#linear-gradient-8"/>
    <linearGradient id="linear-gradient-34" x1="-1009.89666" y1="540.26741" x2="123.22741" y2="1172.35023" gradientTransform="matrix(1, 0, 0, 1, 0, 0)" xlink:href="#linear-gradient-8"/>
    <linearGradient id="linear-gradient-35" x1="19.52388" y1="303.11344" x2="12.97002" y2="662.48362" gradientTransform="matrix(1, 0, 0, 1, 0, 0)" xlink:href="#linear-gradient-8"/>
    <linearGradient id="linear-gradient-36" x1="271.38359" y1="307.70662" x2="264.82973" y2="667.0768" gradientTransform="matrix(1, 0, 0, 1, 0, 0)" xlink:href="#linear-gradient-8"/>
    <linearGradient id="linear-gradient-37" x1="303.88624" y1="205.44921" x2="290.77851" y2="683.88124" xlink:href="#linear-gradient-31"/>
    <linearGradient id="linear-gradient-38" x1="-7684.45111" y1="219.05685" x2="-7610.73979" y2="338.30539" gradientTransform="matrix(0.98984, -0.0381, 0.12876, 1.00209, 7802.77179, -280.34325)" xlink:href="#linear-gradient-5"/>
    <linearGradient id="linear-gradient-39" x1="-7610.52815" y1="203.95804" x2="-7531.66738" y2="331.53723" gradientTransform="matrix(0.98984, -0.0381, 0.12876, 1.00209, 7731.40996, -277.59636)" xlink:href="#linear-gradient-5"/>
    <linearGradient id="linear-gradient-40" x1="884.47743" y1="403.4152" x2="909.26055" y2="466.26879" xlink:href="#linear-gradient-22"/>
    <linearGradient id="linear-gradient-41" x1="891.68474" y1="407.3511" x2="900.14185" y2="420.57726" gradientTransform="matrix(1, 0, 0, 1, 0, 0)" xlink:href="#linear-gradient-5"/>
    <linearGradient id="linear-gradient-42" x1="875.31142" y1="416.90389" x2="905.09595" y2="463.4842" gradientTransform="matrix(1, 0, 0, 1, 0, 0)" xlink:href="#linear-gradient-5"/>
    <linearGradient id="linear-gradient-43" x1="692.07474" y1="321.16965" x2="769.39381" y2="321.16965" gradientTransform="translate(-18.64021 -32.28579)" gradientUnits="userSpaceOnUse">
      <stop offset="0" stop-color="#435466"/>
      <stop offset="1" stop-color="#62778c"/>
    </linearGradient>
    <linearGradient id="linear-gradient-44" x1="702.49493" y1="317.1864" x2="766.0789" y2="317.1864" gradientTransform="translate(-18.64021 -32.28579)" gradientUnits="userSpaceOnUse">
      <stop offset="0" stop-color="#fff"/>
      <stop offset="0.98888" stop-color="#e6edf2"/>
    </linearGradient>
    <linearGradient id="linear-gradient-45" x1="711.60723" y1="319.11183" x2="754.71269" y2="319.11183" gradientTransform="translate(-18.64021 -32.28579)" xlink:href="#linear-gradient-5"/>
    <linearGradient id="linear-gradient-46" x1="692.07473" y1="321.16965" x2="769.39382" y2="321.16965" gradientTransform="translate(-18.64021 -32.28579)" xlink:href="#linear-gradient-19"/>
    <linearGradient id="linear-gradient-47" x1="709.04016" y1="242.52306" x2="788.54003" y2="347.60115" gradientTransform="translate(-18.64021 -32.28579)" xlink:href="#linear-gradient-5"/>
    <linearGradient id="linear-gradient-48" x1="677.5777" y1="217.56786" x2="795.46185" y2="373.37996" gradientTransform="translate(-18.64021 -32.28579)" xlink:href="#linear-gradient-5"/>
    <linearGradient id="linear-gradient-49" x1="792.11828" y1="358.86149" x2="766.43811" y2="298.64073" gradientTransform="translate(3.46411 6.00002)" xlink:href="#linear-gradient-43"/>
    <linearGradient id="linear-gradient-50" x1="725.58483" y1="263.80234" x2="764.92008" y2="263.80234" gradientTransform="translate(47.76727 82.73534)" xlink:href="#linear-gradient-44"/>
    <linearGradient id="linear-gradient-51" x1="715.16462" y1="267.78559" x2="768.235" y2="267.78559" gradientTransform="translate(47.76727 82.73534)" xlink:href="#linear-gradient-19"/>
    <linearGradient id="linear-gradient-52" x1="727.50088" y1="215.04567" x2="782.29632" y2="287.47095" gradientTransform="translate(47.76727 82.73534)" xlink:href="#linear-gradient-5"/>
    <linearGradient id="linear-gradient-53" x1="709.34241" y1="200.70012" x2="786.04322" y2="302.07858" gradientTransform="translate(47.76727 82.73534)" xlink:href="#linear-gradient-5"/>
    <linearGradient id="linear-gradient-54" x1="645.30886" y1="322.89488" x2="841.73524" y2="580.13437" gradientTransform="matrix(1, 0, 0, 1, 0, 0)" xlink:href="#linear-gradient-5"/>
    <linearGradient id="linear-gradient-55" x1="625.50319" y1="337.82209" x2="820.17088" y2="592.75842" gradientTransform="matrix(1, 0, 0, 1, 0, 0)" xlink:href="#linear-gradient-14"/>
    <linearGradient id="linear-gradient-56" x1="374.41221" y1="599.43923" x2="897.80788" y2="739.97041" gradientTransform="matrix(1, 0, 0, 1, 0, 0)" xlink:href="#linear-gradient-5"/>
    <linearGradient id="linear-gradient-57" x1="231.91174" y1="634.50385" x2="659.54509" y2="906.7549" gradientTransform="matrix(1, 0, 0, 1, 0, 0)" xlink:href="#linear-gradient-14"/>
    <linearGradient id="linear-gradient-58" x1="224.30138" y1="686.90723" x2="915.8419" y2="724.31844" gradientTransform="matrix(1, 0, 0, 1, 0, 0)" xlink:href="#linear-gradient-11"/>
    <linearGradient id="linear-gradient-59" x1="247.51223" y1="729.65096" x2="838.79659" y2="761.63847" gradientTransform="matrix(1, 0, 0, 1, 0, 0)" xlink:href="#linear-gradient-11"/>
    <linearGradient id="linear-gradient-60" x1="637.4176" y1="279.90948" x2="904.32891" y2="629.45587" xlink:href="#linear-gradient-29"/>
    <linearGradient id="linear-gradient-61" x1="639.34446" y1="746.18991" x2="671.89158" y2="796.96341" gradientTransform="matrix(1, 0, 0, 1, 0, 0)" xlink:href="#linear-gradient-11"/>
    <linearGradient id="linear-gradient-62" x1="633.87859" y1="444.87626" x2="629.79348" y2="593.98265" xlink:href="#linear-gradient-31"/>
    <linearGradient id="linear-gradient-63" x1="673.57974" y1="445.96397" x2="669.49463" y2="595.07035" xlink:href="#linear-gradient-31"/>
    <linearGradient id="linear-gradient-64" x1="591.61467" y1="476.57922" x2="589.57212" y2="588.57922" gradientTransform="matrix(1, 0, 0, 1, 0, 0)" xlink:href="#linear-gradient-8"/>
    <linearGradient id="linear-gradient-65" x1="270.26101" y1="550.48014" x2="623.40633" y2="747.47276" gradientTransform="matrix(1, 0, 0, 1, 0, 0)" xlink:href="#linear-gradient-8"/>
    <linearGradient id="linear-gradient-66" x1="591.08646" y1="476.56959" x2="589.04391" y2="588.56959" gradientTransform="matrix(1, 0, 0, 1, 0, 0)" xlink:href="#linear-gradient-8"/>
    <linearGradient id="linear-gradient-67" x1="669.58014" y1="478.00109" x2="667.53759" y2="590.00109" gradientTransform="matrix(1, 0, 0, 1, 0, 0)" xlink:href="#linear-gradient-8"/>
    <linearGradient id="linear-gradient-68" x1="679.7098" y1="446.13191" x2="675.62469" y2="595.2383" xlink:href="#linear-gradient-31"/>
    <linearGradient id="linear-gradient-69" x1="-7280.48918" y1="455.53316" x2="-7257.51657" y2="492.69773" gradientTransform="matrix(0.98984, -0.0381, 0.12876, 1.00209, 7802.77179, -280.34325)" xlink:href="#linear-gradient-5"/>
    <linearGradient id="linear-gradient-70" x1="-7208.11735" y1="451.34116" x2="-7183.53989" y2="491.10202" gradientTransform="matrix(0.98984, -0.0381, 0.12876, 1.00209, 7731.40996, -277.59636)" xlink:href="#linear-gradient-5"/>
  </defs>
  <g>
    <g>
      <polygon class="cls-2" points="521.509 81.236 928.156 316.004 928.156 711.22 521.509 476.43 521.509 81.236"/>
      <polygon class="cls-3" points="521.525 81.236 114.879 316.004 114.879 711.22 521.525 476.43 521.525 81.236"/>
    </g>
    <path class="cls-4" d="M121.896,723.3864l378.58059,218.564a42.10143,42.10143,0,0,0,42.1011-.00062l378.5612-218.56743a14.03381,14.03381,0,0,0,.00016-24.307L542.5613,480.49136a42.10144,42.10144,0,0,0-42.10408.00053l-378.562,218.58744A14.03381,14.03381,0,0,0,121.896,723.3864Z"/>
    <path class="cls-5" d="M226.3809,766.56781,459.93617,901.383a25.8435,25.8435,0,0,0,25.846-.002l376.022-217.16324a12.92175,12.92175,0,0,0-.00084-22.37988L628.33138,527.04226a25.84349,25.84349,0,0,0-25.8448-.00074l-376.10591,217.145A12.92174,12.92174,0,0,0,226.3809,766.56781Z"/>
  </g>
  <g>
    <g>
      <path class="cls-6" d="M495.0292,461.80623,151.68013,660.03582l-11.46525-6.61724V330.59447L483.564,132.35338l11.46525-2.15873Z"/>
      <polygon class="cls-7" points="491.188 135.665 487.246 137.94 487.252 456.375 147.845 652.319 147.845 656.725 491.188 458.506 491.188 135.665"/>
      <path class="cls-8" d="M136.357,327.271V676.623L502.676,465.13872V115.76621Zm11.48824,6.6326L491.18773,135.66491l0,322.84091L147.84525,656.7252Z"/>
    </g>
    <polygon class="cls-9" points="375.783 520.728 370.783 523.615 370.783 205.199 375.783 202.312 375.783 520.728"/>
    <polygon class="cls-10" points="264.314 585.08 259.314 587.967 259.314 269.551 264.314 266.664 264.314 585.08"/>
    <g>
      <path class="cls-11" d="M320.03935,241.7198l-172.1941,99.549V654.67317a2.97181,2.97181,0,0,0,1.50513,2.60065l-.00024.00018,3.38843,1.94965-.40357-1.94727.01-.005,163.20081-94.20411a9,9,0,0,0,4.50073-7.79486L323.43046,243.672Z"/>
      <path class="cls-12" d="M323.4376,557.22459,323.43049,243.672,151.23636,343.221V656.62532a3,3,0,0,0,4.49977,2.59821l163.20076-94.2041A9,9,0,0,0,323.4376,557.22459Z"/>
      <g>
        <g class="cls-13">
          <polygon class="cls-11" points="173.048 649.203 170.749 650.53 170.749 331.939 173.048 330.611 173.048 649.203"/>
        </g>
        <g class="cls-13">
          <polygon class="cls-11" points="194.86 636.593 192.56 637.921 192.56 319.329 194.86 318.002 194.86 636.593"/>
        </g>
        <g class="cls-13">
          <polygon class="cls-11" points="216.671 623.984 214.372 625.311 214.372 306.72 216.671 305.392 216.671 623.984"/>
        </g>
        <g class="cls-13">
          <polygon class="cls-11" points="238.483 611.374 236.184 612.702 236.184 294.11 238.483 292.783 238.483 611.374"/>
        </g>
        <g class="cls-13">
          <polygon class="cls-11" points="260.295 598.765 257.995 600.092 257.995 281.501 260.295 280.173 260.295 598.765"/>
        </g>
        <g class="cls-13">
          <polygon class="cls-11" points="282.106 586.155 279.807 587.482 279.807 268.891 282.106 267.564 282.106 586.155"/>
        </g>
        <g class="cls-13">
          <polygon class="cls-11" points="303.918 573.545 301.619 574.873 301.619 256.282 303.918 254.954 303.918 573.545"/>
        </g>
      </g>
    </g>
    <g>
      <path class="cls-11" d="M497.76821,139.07658l-172.19409,99.549V552.03a2.97181,2.97181,0,0,0,1.50513,2.60065l-.00024.00018,3.38842,1.94965-.40356-1.94727.01-.005,163.2008-94.2041a9,9,0,0,0,4.50074-7.79486l3.38391-311.60046Z"/>
      <path class="cls-14" d="M501.16647,454.58136l-.00712-313.55261-172.19412,99.549V553.98209a3,3,0,0,0,4.49976,2.59822l163.20076-94.2041A9,9,0,0,0,501.16647,454.58136Z"/>
      <g>
        <g class="cls-13">
          <polygon class="cls-11" points="350.777 546.56 348.478 547.887 348.478 229.296 350.777 227.968 350.777 546.56"/>
        </g>
        <g class="cls-13">
          <polygon class="cls-11" points="372.589 533.95 370.289 535.278 370.289 216.686 372.589 215.359 372.589 533.95"/>
        </g>
        <g class="cls-13">
          <polygon class="cls-11" points="394.4 521.34 392.101 522.668 392.101 204.077 394.4 202.749 394.4 521.34"/>
        </g>
        <g class="cls-13">
          <polygon class="cls-11" points="416.212 508.731 413.913 510.058 413.913 191.467 416.212 190.139 416.212 508.731"/>
        </g>
        <g class="cls-13">
          <polygon class="cls-11" points="438.024 496.121 435.724 497.449 435.724 178.857 438.024 177.53 438.024 496.121"/>
        </g>
        <g class="cls-13">
          <polygon class="cls-11" points="459.835 483.512 457.536 484.839 457.536 166.248 459.835 164.92 459.835 483.512"/>
        </g>
        <g class="cls-13">
          <polygon class="cls-11" points="481.647 470.902 479.348 472.23 479.348 153.638 481.647 152.311 481.647 470.902"/>
        </g>
      </g>
    </g>
    <g>
      <path class="cls-15" d="M498.691,132.33943v6.03443l-14.83479,8.56338V140.018a3.36191,3.36191,0,0,1,1.68117-2.91162l10.70616-6.18012A1.63171,1.63171,0,0,1,498.691,132.33943Z"/>
      <path class="cls-16" d="M156.28676,330.29116v6.03443L141.452,344.889v-6.91922a3.36193,3.36193,0,0,1,1.68116-2.91162L153.8393,328.878A1.63171,1.63171,0,0,1,156.28676,330.29116Z"/>
      <path class="cls-17" d="M506.42655,138.88379,143.80033,348.28887l-3.92587-6.79981L502.51387,132.07637l.00179.0031a1.97737,1.97737,0,0,1,1.95074.20783,6.13755,6.13755,0,0,1,2.78517,4.8041A1.92627,1.92627,0,0,1,506.42655,138.88379Z"/>
      <ellipse class="cls-16" cx="141.83739" cy="344.88896" rx="2.26305" ry="3.92587" transform="translate(-153.44187 117.12506) rotate(-30)"/>
    </g>
  </g>
  <g>
    <g>
      <path class="cls-18" d="M547.95157,464.95057v76.9897a1.741,1.741,0,0,0,2.61106,1.50791L599.38919,515.278a5.22281,5.22281,0,0,0,2.61249-4.52372V437.26664"/>
      <path class="cls-19" d="M478.63242,425.03905v76.9897a1.741,1.741,0,0,0,2.61106,1.50791L544.32415,467.137a5.22282,5.22282,0,0,0,2.61248-4.52372V389.12561"/>
      <g>
        <path class="cls-20" d="M604.23409,398.14839v41.964a3.498,3.498,0,0,1-1.74672,3.04229L550.78528,473.049a6.99683,6.99683,0,0,1-3.508.93164l-14.2541-75.83226Z"/>
        <path class="cls-21" d="M547.27726,398.14839v75.83226a6.99716,6.99716,0,0,1-3.50837-.93164l-65.94144-38.12382a3.4824,3.4824,0,0,1-1.76147-3.04229v-41.964Z"/>
        <polygon class="cls-22" points="541.893 462.729 481.45 427.799 481.471 401.037 541.893 435.979 541.893 462.729"/>
        <path class="cls-23" d="M476.066,382.12553v7.65773a3.47235,3.47235,0,0,0,1.75076,3.03443l65.95178,38.12776a7.01028,7.01028,0,0,0,7.017,0l51.69781-29.89824a3.47235,3.47235,0,0,0,1.75076-3.03443V390.355Z"/>
        <path class="cls-24" d="M602.48333,387.32062l-65.95189-38.12771a7.01,7.01,0,0,0-7.017,0l-51.69779,29.8982a3.505,3.505,0,0,0,0,6.06884l65.95189,38.12771a7.01,7.01,0,0,0,7.017,0l51.69779-29.8982A3.505,3.505,0,0,0,602.48333,387.32062Z"/>
      </g>
    </g>
    <g>
      <g>
        <path class="cls-25" d="M564.68837,382.13971C562.0587,375.72354,552.084,370.9433,540.15,370.9433s-21.9087,4.78024-24.53826,11.19641h-.70019v3.35219c0,8.035,11.2996,14.54861,25.23845,14.54861s25.23856-6.51363,25.23856-14.54861v-3.35219Z"/>
        <ellipse class="cls-26" cx="540.15005" cy="381.64595" rx="25.23852" ry="14.54865"/>
      </g>
      <path class="cls-27" d="M536.843,341.16349v37.46434c0,1.05282,1.48059,1.90631,3.307,1.90631s3.307-.85349,3.307-1.90631V341.16349Z"/>
      <path class="cls-28" d="M506.20709,308.35523v31.11514c0,10.77367,15.19673,19.50744,33.943,19.50744s33.943-8.73377,33.943-19.50744V308.35523Z"/>
      <path class="cls-29" d="M505.75169,303.03984v31.53261c0,10.91822,15.40062,19.76917,34.39838,19.76917s34.39839-8.85095,34.39839-19.76917V303.03984Z"/>
      <g>
        <ellipse class="cls-11" cx="540.15005" cy="303.03994" rx="34.3984" ry="19.76919"/>
        <path class="cls-30" d="M532.73233,320.80523a33.58124,33.58124,0,0,0,14.83535,0V310.18739H532.73233Z"/>
        <ellipse class="cls-31" cx="540.15005" cy="310.18743" rx="7.41771" ry="4.27591"/>
        <path class="cls-32" d="M540.15,284.96619c18.03246,0,32.70278,8.10781,32.70278,18.0737S558.1825,321.11374,540.15,321.11374s-32.70279-8.108-32.70279-18.07385,14.67032-18.0737,32.70279-18.0737m0-1.69547c-18.99763,0-34.39839,8.851-34.39839,19.76917,0,10.91832,15.40076,19.76931,34.39839,19.76931s34.39838-8.851,34.39838-19.76931c0-10.91818-15.40076-19.76917-34.39838-19.76917Z"/>
      </g>
    </g>
  </g>
  <g>
    <path class="cls-33" d="M241.7915,113.44029a191.74878,191.74878,0,1,1-74.8872,15.113,191.18371,191.18371,0,0,1,74.8872-15.113m0-17.54223c-115.95068,0-209.94726,93.99682-209.94726,209.94751S125.84082,515.79308,241.7915,515.79308c115.95118,0,209.94776-93.99683,209.94776-209.94751S357.74268,95.89806,241.7915,95.89806Z"/>
    <circle class="cls-34" cx="241.79174" cy="305.84555" r="194.19259"/>
    <path class="cls-34" d="M435.98541,305.84375A194.17509,194.17509,0,1,1,364.93924,155.6819,193.78539,193.78539,0,0,1,435.98541,305.84375Z"/>
  </g>
  <g class="cls-35">
    <g>
      <g>
        <g>
          <g>
            <path class="cls-36" d="M856.59345,221.90989,148.02407-197.23446a10.80124,10.80124,0,0,0-11.78119.46632v-.00044L70.53312-158.76007,138.003-119.295V197.76734L872.6442,583.864V250.04347A32.68185,32.68185,0,0,0,856.59345,221.90989Z"/>
            <path class="cls-37" d="M65.37672-149.50056V239.83371L806.43442,622.22V288.39963a32.68129,32.68129,0,0,0-16.051-28.1336L81.81393-158.87843A10.89377,10.89377,0,0,0,65.37672-149.50056Z"/>
            <path class="cls-38" d="M806.43388,288.39963v365.5938L-360.724,891.78893l-35.36884,743.69748a68.0142,68.0142,0,0,0,34.22209-9.09875L855.73651,922.62691c11.95051-6.92607,16.89828-19.26,16.89828-31.158l.00975-242.36364V250.0436Z"/>
            <g>
              <path class="cls-39" d="M806.43442,584.86325V712.68679l-.034-.034a33.59825,33.59825,0,0,1-16.87327,30.86084L-361.88,1408.24816a67.67409,67.67409,0,0,1-34.22212,9.0987l35.36884-629.47164Z"/>
              <path class="cls-40" d="M806.43442,635.48481V763.30835l-.034-.034a33.59826,33.59826,0,0,1-16.87327,30.86085L-361.88,1458.86973a67.67408,67.67408,0,0,1-34.22212,9.09869l35.36884-629.47164Z"/>
              <path class="cls-41" d="M483.74456,590.52876-360.711,766.20124l-35.36884,629.45106a67.6528,67.6528,0,0,0,34.20686-9.10921L380.60034,957.59638l408.906-235.781a33.58039,33.58039,0,0,0,16.87987-30.83082h.06427V563.13773Z"/>
              <path class="cls-42" d="M789.51975,534.014,105.01941,138.95311a67.90146,67.90146,0,0,0-67.90444-.00194L-389.99532,385.19638h0L-1114.5109,803.63864a33.47891,33.47891,0,0,0-15.91427,20.90347,34.5206,34.5206,0,0,0-1.061,8.49909,33.632,33.632,0,0,0,16.97593,29.40186l480.05877,277.14927,204.65983,117.96283a67.9039,67.9039,0,0,0,12.26946,5.54369,67.87536,67.87536,0,0,0,17.29168,3.41083q2.1943.142,4.39356.1418a67.85523,67.85523,0,0,0,33.95328-9.10144L789.52187,592.81454C812.15079,579.74547,812.15009,547.0813,789.51975,534.014Z"/>
            </g>
          </g>
          <path class="cls-43" d="M855.73651,200.78728V922.62691l-19.1359,11.06589V200.78728a23.95716,23.95716,0,0,0-11.72977-20.58915L98.584-249.42929a1.42342,1.42342,0,0,0-1.59754,0,1.45351,1.45351,0,0,0-.79877,1.37989v74.47685L77.05093-162.53339v-85.516a20.52778,20.52778,0,0,1,10.45759-18.0111,20.52543,20.52543,0,0,1,20.80791.18152L834.60324,163.74844A43.19491,43.19491,0,0,1,855.73651,200.78728Z"/>
        </g>
        <path class="cls-44" d="M767.56347,911.30221l-1069.58487,618.17a32.68129,32.68129,0,0,0-16.32076,28.29134v43.45234L783.87738,964.18144l.03336-43.44042A10.89376,10.89376,0,0,0,767.56347,911.30221Z"/>
      </g>
      <g>
        <path class="cls-41" d="M83.9171,303.19579c.71621-.77261,139.99179-80.6552,139.99179-80.6552-.72472-4.836-1.87718-10.55708,1.23352-12.17427,3.53109-1.83546,10.759,1.72465,14.55738,6.14557,48.31949-10.20214,70.5348-10.02737,166.65367,44.6203C530.92522,331.95654,538.489,363.667,566.37517,413.13364c8.67018,4.11786,13.29279,6.90086,11.31167,12.0895-1.83373,4.80261-13.90319,7.28768-20.00338,5.16671L426.24934,505.8593c1.25233,5.55486-.865,12.98989-4.36317,14.74046-4.59718,2.30108-11.17246-2.46814-14.11218-11.7217l-.00323-.00734c-57.29913-2.37463-135.31965-37.26222-187.10944-69.92127-43.03816-27.14062-116.3006-70.76535-136.0336-117.30857-7.60594-.01763-15.02138-3.819-15.30956-8.63385C69.02556,308.109,76.17367,304.01569,83.9171,303.19579Z"/>
        <path class="cls-45" d="M70.93122,269.62255c.71621-.77261,139.9918-80.6552,139.9918-80.6552-.72473-4.836-1.87719-10.55708,1.23352-12.17427,3.53109-1.83546,10.759,1.72466,14.55738,6.14557,48.31949-10.20214,70.5348-10.02737,166.65367,44.6203C517.93935,298.3833,525.50316,330.09378,553.38929,379.5604c8.67019,4.11786,13.29279,6.90086,11.31167,12.0895-1.83372,4.80262-13.90319,7.28768-20.00338,5.16671L413.26346,472.28607c1.25234,5.55485-.865,12.98988-4.36317,14.74045-4.59717,2.30108-11.17245-2.46814-14.11218-11.7217l-.00323-.00734c-57.29913-2.37463-135.31964-37.26222-187.10944-69.92127C164.63728,378.23559,91.37485,334.61086,71.64185,288.06764c-7.60594-.01762-15.02138-3.819-15.30957-8.63385C56.03969,274.5358,63.1878,270.44245,70.93122,269.62255Z"/>
        <path class="cls-46" d="M300.06755,348.5839l-44.961-158.22264s-32.67929,10.38262-60.54338,46.494c-28.19729,36.54321-69.72037,12.13465-100.2368,47.77129-16.45968,19.22137-18.14189,47.807-30.10681,60.828-16.07132,17.49-20.55893,24.06627-37.92577,45.55731C.56546,422.85016-1.97579,460.97043,8.25337,482.26111,29.47008,526.421,54.04907,542.969,88.223,551.45755c39.34693,6.92165,68.06193-19.9525,100.99354-51.08132,23.59868-22.30681,28.34388-75.18694,35.55672-102.09544C274.51174,369.42606,300.06755,348.5839,300.06755,348.5839Z"/>
        <path class="cls-47" d="M291.36272,396.65629c39.88737-21.36549,74.753-58.40032,73.08158-110.30679L281.472,297.71006l-16.9965,87.85167Z"/>
        <path class="cls-48" d="M258.99976,337.42611l122.3874-84.44589s9.29675,35.53771-13.64177,88.52268c-14.43844,33.35089,16.752,63.17908,11.16712,104.48205-4.24688,31.40761-20.26393,55.17151-21.7756,82.57721-1.25183,22.695,4.04421,52.40475-.3322,74.91365-7.64478,39.31884-36.01455,58.58582-59.0972,63.59783-49.54872,10.75865-87.18118-10.86666-112.235-35.60973-26.41227-29.9747-7.66289-75.9971,1.74331-120.32562,6.74045-31.76567,49.39965-63.37292,68.60668-83.55169C254.52927,370.09888,258.99976,337.42611,258.99976,337.42611Z"/>
        <path class="cls-49" d="M246.97591,381.38538c-63.09609-54.20469-143.29256-113.80809-230.03925-28.76209C-8.60926,386.47092-33.78073,423.358-58.67058,462.53643l-216.82159,58.88239c-119.27189,73.55954,109.81263,197.64331,216.17245,194.166l165.72981-59.92426L340.80554,523.2558C355.4569,463.01454,289.89853,418.25942,246.97591,381.38538Z"/>
        <path class="cls-50" d="M243.28272,517.08492l-57.18578,41.214C121.04968,497.50609,61.03968,456.07084-29.128,417.28453L-54.518,455.84626l-209.71719,59.6889c-130.52915,79.44384,98.556,203.5263,204.91562,200.04911L81.79367,633.93265l110.22626-3.18016,22.28937-20.7081Z"/>
        <path class="cls-51" d="M-443.33953,396.16495l15.96592-9.39446a170.17814,170.17814,0,0,1,121.276-19.98672c221.16225,46.467,500.00646,186.40385,574.87438,370.8299,54.78088,134.94461,60.70856,224.64266,58.45506,269.86975a87.71451,87.71451,0,0,1-24.52293,56.38508c-163.30525,170.0787-479.829,344.33006-656.23575,387.41769a85.66889,85.66889,0,0,1-44.19558-.87626c-301.78313-87.55618-624.45266-284.50587-755.9575-414.46055a87.24871,87.24871,0,0,1-24.04707-80.08829c9.0878-43.14281,25.09938-107.0553,46.05512-142.28C-1098.05678,757.07711-443.33953,396.16495-443.33953,396.16495Z"/>
        <path class="cls-52" d="M-77.80781,628.12021l38.60137,15.94165c7.35069,3.03539,17.8307,5.67594,25.8507,5.50861l38.16031-2.3514c38.14416,36.36447,131.8676,122.41065,167.24718,124.93818,24.33227,1.73786,51.81808-34.085,71.896-67.26582-13.8141-31.4782-33.95363-61.52824-58.88549-89.87711a38.57585,38.57585,0,0,0-4.18393,8.817l-15.88661,40.23355L39.64831,590.489l-19.34692-15.8712A49.18979,49.18979,0,0,0-1.03292,563.17055L-36.84109,552.8975a9.646,9.646,0,0,0-11.51627,6.42011c-1.4289,4.46061,4.14063,10.85576,8.28786,13.03543l-39.00942,4.20081a11.88643,11.88643,0,0,0-12.50776,12.601l1.32982,21.54273A20.19627,20.19627,0,0,0-77.80781,628.12021Z"/>
        <path class="cls-53" d="M64.834,307.97471C39.4378,310.26189-9.85425,316.0761-83.3804,339.01462c-39.18511,11.73369-15.12015,99.935,18.33152,94.7054l27.774-4.06217C21.654,359.09311,83.062,312.089,141.172,314.88473,117.44737,308.75334,90.23024,305.68753,64.834,307.97471Z"/>
        <path class="cls-54" d="M20.30132,550.57017a49.19054,49.19054,0,0,0-21.33438-11.4483l-35.8082-10.2725a9.64689,9.64689,0,0,0-11.51645,6.41943v0c-1.42867,4.46136,4.14106,10.85715,8.28833,13.03544l10.22123-1.10081-49.23057,5.30206a11.88613,11.88613,0,0,0-12.50753,12.60082l1.32949,21.54279a20.19645,20.19645,0,0,0,12.44917,17.42327l38.60126,15.9409c7.35049,3.03548,17.83076,5.67631,25.85048,5.50877l46.925-2.89095,17.63628-46.7099Z"/>
        <path class="cls-55" d="M225.88156,525.13971S210.7227,555.843,195.56994,589.03988c-27.65771,59.17758,77.02586,95.782,98.30795,61.2986,16.86178-31.21123,36.31933-79.68726,47.78859-130.66032C353.25088,463.74277,256.75083,468.67242,225.88156,525.13971Z"/>
        <ellipse class="cls-56" cx="244.91174" cy="619.12725" rx="35.88189" ry="49.66481" transform="translate(-419.91304 582.95642) rotate(-65.30325)"/>
        <path class="cls-54" d="M201.09917,607.82214,184.48939,645.0434,44.78105,570.65122,20.40711,623.442S147.157,744.90106,192.05238,748.10894c32.74387,2.33912,50.86105-28.21077,64.1408-54.48033l27.38169-54.16552C297.701,605.76588,222.03647,566.47016,201.09917,607.82214Z"/>
        <g>
          <path class="cls-54" d="M168.26238,423.55463c40.044,29.61824,97.34717,18.33622,110.058-15.90074-10.81317-9.21394-21.65533-17.94454-31.34477-26.26858-20.46619-17.58262-42.73412-35.72691-66.43874-49.32456a46.35129,46.35129,0,0,0-7.90376,3.10526C138.30572,352.80738,135.3352,399.20138,168.26238,423.55463Z"/>
          <path class="cls-57" d="M199.06641,352.5288c-6.90434,8.33688-10.86254,18.44928-3.91622,29.12281,14.09494,21.65794,48.08189,25.19968,60.018,8.88311L286.42731,346.836l-55.23795-32.483Z"/>
        </g>
        <g>
          <path class="cls-54" d="M340.94747,287.743c17.736-21.56731,7.94669-59.26989-19.92851-78.23333-24.36256-16.5738-62.70459-14.302-80.40846,11.66722,0,0-21.40182,32.346-34.84906,60.32712S185.9068,345.32387,216.38856,357.492c33.54131,13.38944,62.54284,10.1962,82.18535-15.06451Z"/>
          <path class="cls-58" d="M272.5958,185.49939c-46.529,8.63342-57.48587,39.88629-46.14457,58.29235,0,0,11.65055-16.46027,27.02475-17.48372-15.77825,29.57347,28.65568,61.58089,39.71922,71.42628-9.87788,9.284-12.1493,31.17069-3.48174,40.75684l-18.90091,30.68322c36.59576.64616,108.5512-32.481,112.08865-95.00638C386.059,218.35285,329.28106,174.98148,272.5958,185.49939Z"/>
          <g>
            <path class="cls-59" d="M300.10877,309.53687c-13.55088,13.00414-28.979,8.28051-51.97289-16.683-6.841-7.427-11.74857-13.58131-17.35794-16.46538-9.19737-4.72886-16.35206-3.1884-21.535-1.89268-1.08341-3.34688-1.21656-6.63911.0689-11.5198,6.08163-23.0909,32.74883-39.71809,66.21168-17.69741S313.8306,296.36869,300.10877,309.53687Z"/>
            <path class="cls-60" d="M304.54639,338.4206c2.56458-1.15039,5.1465-2.4513,7.68882-3.90459-1.97648-13.327-6.42182-25.17384-13.31472-35.26053l-6.64082,4.2355C299.05211,313.40816,303.0581,324.88175,304.54639,338.4206Z"/>
          </g>
          <path class="cls-54" d="M281.59572,351.36668c10.13721,5.26641,26.02409-4.45479,32.00016-15.958s1.04561-26.35848-10.35891-25.69884C288.9206,310.53788,271.4585,346.10027,281.59572,351.36668Z"/>
        </g>
        <polygon class="cls-50" points="16.937 372.627 -60.441 433.046 -37.275 429.658 16.937 372.627"/>
      </g>
    </g>
  </g>
  <g>
    <ellipse class="cls-11" cx="895.56805" cy="404.45656" rx="9.91662" ry="5.7164"/>
    <path class="cls-61" d="M905.48461,404.459c-.00257,3.156-4.44124,5.71409-9.91678,5.71409-5.47681,0-9.91634-2.55939-9.91634-5.71666v53.52265c0,3.15716,4.43953,5.71644,9.91634,5.71644s9.91678-2.55928,9.91678-5.71644V404.459Z"/>
    <path class="cls-62" d="M905.48461,410.95336c-.00257,3.156-4.44124,5.71409-9.91678,5.71409-5.47681,0-9.91634-2.55939-9.91634-5.71666v3.91979c0,3.15715,4.43953,5.71644,9.91634,5.71644s9.91678-2.55929,9.91678-5.71644Z"/>
    <path class="cls-63" d="M905.48461,446.11254c-.00257,3.156-4.44124,5.71409-9.91678,5.71409-5.47681,0-9.91634-2.55939-9.91634-5.71666v3.91978c0,3.15716,4.43953,5.71644,9.91634,5.71644s9.91678-2.55928,9.91678-5.71644Z"/>
    <path class="cls-32" d="M895.56812,400.05577c5.0686,0,8.60083,2.31934,8.60083,4.40088s-3.53223,4.40064-8.60083,4.40064c-5.06885,0-8.60108-2.31909-8.60108-4.40064s3.53223-4.40088,8.60108-4.40088m0-1.31567c-5.47681,0-9.91675,2.55933-9.91675,5.71655,0,3.157,4.43994,5.71631,9.91675,5.71631s9.9165-2.55933,9.9165-5.71631c0-3.15722-4.4397-5.71655-9.9165-5.71655Z"/>
  </g>
  <g>
    <circle class="cls-33" cx="105.34043" cy="169.43726" r="62.02326"/>
    <g>
      <rect class="cls-64" x="84.28363" y="160.79502" width="13.46241" height="40.4658" transform="translate(-101.34844 117.37906) rotate(-45)"/>
      <rect class="cls-64" x="110.49446" y="143.61416" width="13.46241" height="60.59444" transform="translate(77.14282 379.77635) rotate(-135)"/>
    </g>
  </g>
  <g>
    <g>
      <polygon class="cls-65" points="750.714 265.91 750.754 356.612 673.474 311.858 673.435 221.156 750.714 265.91"/>
      <polygon class="cls-66" points="747.408 264.001 747.439 342.629 683.885 305.8 683.855 227.172 747.408 264.001"/>
      <polygon class="cls-67" points="736.052 272.657 736.072 325.962 692.988 300.995 692.967 247.69 736.052 272.657"/>
      <path class="cls-68" d="M746.41632,349.10536,677.804,309.35585l-.0322-80.69349,68.61233,39.74952.03218,80.69348m4.33729,7.5063-.03922-90.70188-77.27987-44.75372.03924,90.70189,77.27985,44.75371Z"/>
      <polygon class="cls-69" points="678.325 218.325 755.605 263.079 750.714 265.91 673.435 221.156 678.325 218.325"/>
      <polygon class="cls-70" points="755.605 263.079 755.628 353.79 750.754 356.612 750.714 265.91 755.605 263.079"/>
    </g>
    <g>
      <polygon class="cls-71" points="815.963 336.547 816.002 395.249 762.971 364.495 762.932 305.793 815.963 336.547"/>
      <polygon class="cls-72" points="812.657 334.638 812.687 381.266 773.383 358.437 773.352 311.809 812.657 334.638"/>
      <path class="cls-73" d="M811.665,387.74243l-44.3636-25.74951-.0322-48.69349,44.36362,25.74951.03218,48.69349m4.33729,7.5063-.03922-58.70188-53.03116-30.75372.03924,58.70188,53.03114,30.75372Z"/>
      <polygon class="cls-74" points="767.823 302.962 820.854 333.716 815.963 336.547 762.932 305.793 767.823 302.962"/>
      <polygon class="cls-75" points="820.854 333.716 820.876 392.427 816.002 395.249 815.963 336.547 820.854 333.716"/>
    </g>
  </g>
  <g>
    <g>
      <g>
        <g>
          <path class="cls-76" d="M851.96452,451.262,631.13436,320.633a3.36625,3.36625,0,0,0-3.67168.14533v-.00014l-20.47886,11.8456,21.02741,12.29954v98.81449l228.9556,120.32948V460.03A10.1855,10.1855,0,0,0,851.96452,451.262Z"/>
          <path class="cls-77" d="M605.37679,335.50956v121.3385L836.33213,576.02118V471.98394a10.18536,10.18536,0,0,0-5.00238-8.768l-220.8302-130.629A3.39511,3.39511,0,0,0,605.37679,335.50956Z"/>
          <path class="cls-78" d="M836.332,471.98394V585.92357L472.57978,660.03405,461.55686,891.8121a21.197,21.197,0,0,0,10.66553-2.83569L851.69744,669.6449a10.88259,10.88259,0,0,0,5.26646-9.71059l.003-75.53416V460.03Z"/>
          <path class="cls-79" d="M472.57987,660.03408,461.557,891.8121a21.05431,21.05431,0,0,1-10.5068-2.83567L237.65274,765.8374a10.45041,10.45041,0,0,1-5.27991-9.00433V680.58212Z"/>
          <g>
            <path class="cls-39" d="M836.33213,564.37871v39.837l-.01059-.01059a10.47112,10.47112,0,0,1-5.25866,9.618L472.21952,820.99185a21.09094,21.09094,0,0,1-10.66554,2.83567l11.02293-196.17884Z"/>
            <path class="cls-80" d="M836.33213,580.15524v39.837l-.01059-.01059a10.47111,10.47111,0,0,1-5.25866,9.618L472.21952,836.76839a21.091,21.091,0,0,1-10.66554,2.83566l11.02293-196.17884Z"/>
            <path class="cls-81" d="M472.57691,643.42521,461.554,839.60405a21.07406,21.07406,0,0,1-10.49621-2.83566L237.6603,713.62936a10.48748,10.48748,0,0,1-5.29044-9.17367V663.82517Z"/>
            <path class="cls-41" d="M735.76379,566.1444l-263.18,54.74945L461.56091,817.06627a21.08441,21.08441,0,0,0,10.66079-2.83894l231.39654-133.684,127.43815-73.48265a10.46557,10.46557,0,0,0,5.26072-9.60863h.02V557.60782Z"/>
            <path class="cls-41" d="M472.57691,620.88731,461.554,817.06615a21.074,21.074,0,0,1-10.49621-2.83567L237.6603,691.09146a10.48751,10.48751,0,0,1-5.29044-9.17367V641.28727Z"/>
            <path class="cls-42" d="M831.06057,548.53122,617.73169,425.408a21.16192,21.16192,0,0,0-21.16285-.0006L463.4572,502.15126h0L237.65732,632.56145a10.434,10.434,0,0,0-4.95979,6.5147,10.75875,10.75875,0,0,0-.33065,2.6488,10.4816,10.4816,0,0,0,5.29066,9.16327L387.2709,737.26356l63.78354,36.76386a21.14654,21.14654,0,0,0,9.21292,2.79073q.68387.04425,1.36928.0442a21.14754,21.14754,0,0,0,10.58175-2.83652L831.06123,566.85678A10.5809,10.5809,0,0,0,831.06057,548.53122Z"/>
          </g>
        </g>
        <path class="cls-82" d="M851.69744,444.679V669.6449l-5.96382,3.44876V444.679a7.46641,7.46641,0,0,0-3.65566-6.41674L615.72606,304.36614a.44359.44359,0,0,0-.49788,0,.453.453,0,0,0-.24895.43005v23.21118l-5.9641,3.44043V304.79619a6.453,6.453,0,0,1,9.74409-5.5567L845.11113,433.1356A13.462,13.462,0,0,1,851.69744,444.679Z"/>
      </g>
      <path class="cls-83" d="M824.21776,666.11549,490.87483,858.77209a10.18534,10.18534,0,0,0-5.08647,8.81718v13.5422L829.30209,682.59564l.0104-13.53849A3.39511,3.39511,0,0,0,824.21776,666.11549Z"/>
    </g>
    <g>
      <path class="cls-41" d="M611.155,476.59526c.22321-.24079,43.62933-25.13671,43.62933-25.13671-.22586-1.50717-.585-3.29018.38444-3.79419,1.10048-.572,3.35309.5375,4.5369,1.91531,15.05907-3.17956,21.98261-3.12509,51.93867,13.9062,38.82358,22.07286,41.18089,31.95563,49.87178,47.37222,2.70212,1.28336,4.14279,2.15069,3.52536,3.76777-.57149,1.49676-4.333,2.27125-6.23418,1.61024L717.845,539.75663c.3903,1.73121-.26958,4.04838-1.35981,4.594-1.43274.71715-3.482-.76921-4.39815-3.65314l-.001-.00228c-17.85764-.74007-42.17323-11.613-58.31385-21.79141-13.41311-8.45855-36.24582-22.05447-42.39573-36.56-2.37044-.0055-4.68151-1.19022-4.77132-2.6908C606.514,478.1265,608.74173,476.85079,611.155,476.59526Z"/>
      <path class="cls-45" d="M607.10789,466.13194c.22321-.24079,43.62933-25.1367,43.62933-25.1367-.22586-1.50717-.585-3.29018.38444-3.79419,1.10048-.572,3.35309.5375,4.5369,1.9153,15.05907-3.17956,21.98261-3.12509,51.93867,13.90621,38.82358,22.07285,41.18089,31.95563,49.87178,47.37221,2.70212,1.28336,4.14278,2.1507,3.52536,3.76777-.5715,1.49677-4.333,2.27125-6.23418,1.61024l-40.96228,23.52054c.39029,1.7312-.26958,4.04838-1.35981,4.59395-1.43274.71715-3.482-.76921-4.39815-3.65314l-.001-.00229c-17.85764-.74006-42.17323-11.613-58.31385-21.79141-13.41311-8.45854-36.24582-22.05447-42.39573-36.56-2.37044-.00549-4.68151-1.19021-4.77132-2.69079C602.46685,467.66319,604.6946,466.38747,607.10789,466.13194Z"/>
      <path class="cls-84" d="M678.51968,490.74075l-14.01237-49.31109s-10.18471,3.23581-18.86873,14.49016c-8.78786,11.38892-21.7288,3.78184-31.23943,14.88822-5.12977,5.99047-5.654,14.89934-9.383,18.95745-5.00874,5.45087-6.40733,7.5004-11.81981,14.19823-8.01841,9.92258-8.8104,21.803-5.62242,28.43838,6.61232,13.76271,14.27252,18.92,24.923,21.56551,12.26273,2.15718,21.21194-6.21832,31.47528-15.91981,7.35468-6.95206,8.83355-23.43249,11.08148-31.8187C670.55505,497.23634,678.51968,490.74075,678.51968,490.74075Z"/>
      <path class="cls-47" d="M675.80677,505.72282C688.23792,499.06413,699.104,487.522,698.5831,471.345l-25.85884,3.5406-5.29706,27.37953Z"/>
      <path class="cls-85" d="M665.72064,487.26335l38.14282-26.3181s2.89739,11.07556-4.25155,27.58866c-4.49983,10.394,5.22088,19.69016,3.4803,32.5625-1.32356,9.78838-6.31538,17.19455-6.7865,25.73571-.39014,7.073,1.2604,16.33227-.10353,23.34731-2.38255,12.254-11.22417,18.25865-18.418,19.82067-15.44217,3.353-27.17057-3.38666-34.97876-11.098-8.23155-9.3418-2.38818-23.685.54332-37.50024,2.1007-9.9,15.39571-19.75057,21.38171-26.03942C664.32739,497.446,665.72064,487.26335,665.72064,487.26335Z"/>
      <path class="cls-86" d="M661.97333,500.96354c-19.66429-16.89324-44.658-35.469-71.69319-8.96389-7.96155,10.54883-15.8064,22.04492-23.56348,34.25513l-67.57382,18.35107c-37.17185,22.9253,34.2238,61.59679,67.37151,60.51307l51.65075-18.67578,73.05084-41.26478C695.78212,526.40379,675.35044,512.45557,661.97333,500.96354Z"/>
      <path class="cls-50" d="M660.82233,543.25516,643,556.09978c-20.27239-18.94648-38.97488-31.86-67.07623-43.948l-7.91293,12.018-65.3597,18.60242c-40.68024,24.75918,30.7156,63.43027,63.86326,62.34658l43.97883-25.44725,34.35271-.99112,6.94663-6.45381Z"/>
      <path class="cls-87" d="M446.83214,505.56969l4.97588-2.92785a53.03711,53.03711,0,0,1,37.79643-6.229C558.53107,510.8946,645.43464,554.5068,668.7677,611.98435c17.07281,42.05635,18.92021,70.01131,18.21789,84.10662a27.33683,27.33683,0,0,1-7.64272,17.57277c-50.89512,53.00611-149.54177,107.31266-204.52,120.74119a26.69932,26.69932,0,0,1-13.77383-.27309C366.99636,806.8444,266.43435,745.46377,225.45,704.96257a27.19158,27.19158,0,0,1-7.49442-24.96c2.83227-13.44573,7.82238-33.36447,14.35337-44.34247C242.78535,618.05026,446.83214,505.56969,446.83214,505.56969Z"/>
      <path class="cls-52" d="M560.75242,577.86l12.03037,4.96831a22.37244,22.37244,0,0,0,8.05653,1.7168l11.8929-.73283c11.88787,11.33322,41.09738,38.15006,52.12365,38.93778,7.58331.54161,16.14944-10.62281,22.40684-20.96382a109.473,109.473,0,0,0-18.352-28.01078,12.0225,12.0225,0,0,0-1.30395,2.74788l-4.95116,12.539L597.35837,566.132l-6.02959-4.94636a15.33041,15.33041,0,0,0-6.649-3.56762L573.52,554.41638a3.00624,3.00624,0,0,0-3.58912,2.00087c-.44532,1.39018,1.29046,3.38327,2.583,4.06258l-12.15754,1.3092a3.70449,3.70449,0,0,0-3.89812,3.92718l.41445,6.71393A6.2943,6.2943,0,0,0,560.75242,577.86Z"/>
      <path class="cls-52" d="M510.96828,518.4257c1.14567,9.71935,17.612,25.16523,23.16035,28.35363l7.27841,11.17722a19.35939,19.35939,0,0,0,7.50989,6.39967l9.61322,4.62066a5.83806,5.83806,0,0,0,6.41979-.909l4.6934-4.19432a6.86068,6.86068,0,0,0,1.22755-8.78112l-6.764-10.70012a15.24539,15.24539,0,0,0-9.30719-6.67367l-7.52063-1.564-1.62792-14.48158,14.51127-4.069a4.68845,4.68845,0,0,0,2.59234-2.42812c-10.92655-4.39651-18.44645-10.02531-29.263-13.15745C521.83742,506.83586,510.32991,513.01046,510.96828,518.4257Z"/>
      <g>
        <path class="cls-88" d="M540.5307,544.27193l11.9213-10.4356,9.08482,1.88927a15.24643,15.24643,0,0,1,9.30717,6.67361l6.76386,10.70031a6.86057,6.86057,0,0,1-1.22752,8.78117l-4.69333,4.19436a5.83842,5.83842,0,0,1-6.41983.90878l-9.61313-4.62078a19.35992,19.35992,0,0,1-7.51-6.39954Z"/>
        <path class="cls-89" d="M605.20766,478.08464c-7.9149.71281-23.27708,2.52485-46.192,9.67378-12.21229,3.65688-4.71229,31.14537,5.71313,29.51554l8.65593-1.266c18.36557-21.992,37.50376-36.64109,55.61411-35.76977A72.00457,72.00457,0,0,0,605.20766,478.08464Z"/>
        <ellipse class="cls-56" cx="562.42025" cy="502.8952" rx="8.96676" ry="13.09041" transform="translate(-94.57164 131.97502) rotate(-12.35397)"/>
        <path class="cls-54" d="M529.05872,501.574c-8.97931,4.28083-12.33636,9.03779-11.35341,14.85851,1.62963,9.65014,22.82539,27.83942,22.82539,27.83942l11.9213-10.4356-7.77626-14.624,18.59575-4.48936c11.82978-2.02128,5.31914-24.78724-4.37182-23.23145A124.83593,124.83593,0,0,0,529.05872,501.574Z"/>
        <path class="cls-54" d="M540.86571,544.78627l7.27837,11.17719a19.35929,19.35929,0,0,0,7.50988,6.39967l9.61322,4.62066a5.83808,5.83808,0,0,0,6.4198-.909l4.69339-4.19432a6.86068,6.86068,0,0,0,1.22755-8.78112l-6.764-10.70012a15.24539,15.24539,0,0,0-9.30719-6.67367l-7.52061-1.56409C543.99489,531.38251,539.16454,541.92421,540.86571,544.78627Z"/>
        <path class="cls-57" d="M577.60792,553.0994l-4.14171-6.552-2.7369-.785a3.00624,3.00624,0,0,0-3.58912,2.00087h0c-.44532,1.39018,1.29046,3.38327,2.583,4.06258l-12.15753,1.30921a3.70418,3.70418,0,0,0-3.8979,3.92717l.26852,4.354a19.42618,19.42618,0,0,0,1.71771.94691l9.61322,4.62066a5.83808,5.83808,0,0,0,6.4198-.909l4.69339-4.19432A6.86068,6.86068,0,0,0,577.60792,553.0994Z"/>
        <path class="cls-54" d="M563.67714,536.41328l12.03191,4.78353c3.4616,1.39364,1.18591,4.99307-1.39682,4.41353l-3.25869-.72242Z"/>
      </g>
      <path class="cls-54" d="M591.32876,553.69106a15.33051,15.33051,0,0,0-6.649-3.56794l-11.15985-3.20149a3.00651,3.00651,0,0,0-3.58918,2.00066h0c-.44525,1.39041,1.29059,3.3837,2.58311,4.06258l3.18551-.34307-15.343,1.65242a3.70437,3.70437,0,0,0-3.89805,3.92712l.41434,6.71395a6.29434,6.29434,0,0,0,3.87986,5.43007l12.03033,4.96809a22.37061,22.37061,0,0,0,8.05647,1.71684l14.62447-.901,5.49646-14.55744Z"/>
      <path class="cls-90" d="M655.39915,545.76549s-4.72436,9.56887-9.44681,19.91489c-8.6197,18.44308,24.0056,29.85107,30.63829,19.1041a168.97918,168.97918,0,0,0,14.89362-40.72112C695.0946,526.63075,665.01975,528.1671,655.39915,545.76549Z"/>
      <ellipse class="cls-56" cx="661.33002" cy="575.05731" rx="11.18282" ry="15.47835" transform="translate(-137.44182 935.62887) rotate(-65.30325)"/>
      <path class="cls-54" d="M647.67556,571.534,642.499,583.13424l-43.541-23.1848L591.36173,576.402s39.50239,37.85349,53.49434,38.85325c10.20483.729,15.85116-8.79207,19.98988-16.97914l8.53368-16.881C677.78212,570.89315,654.2008,558.64639,647.67556,571.534Z"/>
      <g>
        <path class="cls-54" d="M637.44176,514.10585c12.48,9.23072,30.33887,5.7146,34.30029-4.95556-3.37-2.87159-6.749-5.59253-9.7688-8.18677-6.37841-5.47974-13.31835-11.13452-20.70605-15.37232a14.44569,14.44569,0,0,0-2.46326.96778C628.10558,492.057,627.1798,506.516,637.44176,514.10585Z"/>
        <path class="cls-57" d="M647.042,491.9702c-2.15178,2.59824-3.38537,5.74984-1.22051,9.07631,4.39278,6.74984,14.985,7.85364,18.705,2.76848l9.74208-13.619-17.21526-10.12352Z"/>
      </g>
      <g>
        <path class="cls-54" d="M691.26017,471.77931c5.52753-6.72159,2.47663-18.47184-6.21085-24.38192-7.59275-5.16533-19.54228-4.45731-25.05981,3.63616a190.73225,190.73225,0,0,0-10.86093,18.80134c-4.19092,8.72047-6.18782,19.88985,3.312,23.68212,10.45336,4.1729,19.49187,3.17771,25.61359-4.695Z"/>
        <path class="cls-91" d="M669.95794,439.91443c-14.501,2.69066-17.91584,12.43081-14.38125,18.16718,0,0,3.631-5.13,8.42243-5.44891-4.91739,9.21676,8.93073,19.19207,12.37875,22.26045-3.0785,2.89342-3.78641,9.71454-1.08511,12.70213l-5.89058,9.56262c11.4053.20138,33.83067-10.12291,34.93314-29.60934C705.31947,450.15341,687.62426,436.63645,669.95794,439.91443Z"/>
        <g>
          <path class="cls-92" d="M678.26729,477.84219c-4.22322,4.05283-9.03149,2.58067-16.19768-5.19936-2.132-2.31466-3.66152-4.2327-5.40971-5.13154a7.19237,7.19237,0,0,0-6.05352-.5964c-.96239-.65957-1.03714-2.06259-.63652-3.58368,1.89538-7.19643,10.20638-12.3784,20.63529-5.51551S682.54378,473.73824,678.26729,477.84219Z"/>
          <path class="cls-93" d="M679.60416,487.24185c.79927-.35853,1.60394-.764,2.39627-1.21689a26.011,26.011,0,0,0-4.14962-10.98917l-2.06965,1.32A23.3539,23.3539,0,0,1,679.60416,487.24185Z"/>
        </g>
        <path class="cls-54" d="M672.76282,491.608c3.15932,1.64131,8.11057-1.38836,9.973-4.97341s.32587-8.21479-3.22842-8.00921C675.04566,478.88347,669.60349,489.96671,672.76282,491.608Z"/>
      </g>
      <polygon class="cls-50" points="590.28 498.234 566.165 517.064 573.385 516.008 590.28 498.234"/>
    </g>
  </g>
</svg>
