<svg id="Layer_1" data-name="Layer 1" xmlns="http://www.w3.org/2000/svg" xmlns:xlink="http://www.w3.org/1999/xlink" viewBox="0 0 1000 1000">
  <defs>
    <style>
      .cls-1 {
        fill: url(#linear-gradient);
      }

      .cls-2 {
        fill: #b8cbd8;
      }

      .cls-3 {
        fill: url(#linear-gradient-2);
      }

      .cls-4 {
        fill: url(#linear-gradient-3);
      }

      .cls-5 {
        fill: url(#linear-gradient-4);
      }

      .cls-6 {
        fill: url(#linear-gradient-5);
      }

      .cls-7 {
        fill: url(#linear-gradient-6);
      }

      .cls-8 {
        fill: url(#linear-gradient-7);
      }

      .cls-9 {
        fill: url(#linear-gradient-8);
      }

      .cls-10 {
        fill: url(#linear-gradient-9);
      }

      .cls-11 {
        fill: #2a3f5e;
        opacity: 0.2;
      }

      .cls-12, .cls-13 {
        fill: none;
        stroke-width: 5.40487px;
      }

      .cls-12, .cls-13, .cls-38 {
        stroke-miterlimit: 10;
      }

      .cls-12 {
        stroke: url(#linear-gradient-10);
      }

      .cls-13 {
        stroke: url(#linear-gradient-11);
      }

      .cls-14 {
        fill: url(#linear-gradient-12);
      }

      .cls-15 {
        fill: url(#linear-gradient-13);
      }

      .cls-16 {
        fill: url(#linear-gradient-14);
      }

      .cls-17 {
        fill: url(#linear-gradient-15);
      }

      .cls-18 {
        fill: url(#linear-gradient-16);
      }

      .cls-19 {
        fill: url(#linear-gradient-17);
      }

      .cls-20 {
        fill: url(#linear-gradient-18);
      }

      .cls-21 {
        fill: url(#linear-gradient-19);
      }

      .cls-22 {
        fill: url(#linear-gradient-20);
      }

      .cls-23 {
        fill: url(#linear-gradient-21);
      }

      .cls-24 {
        fill: #e58630;
      }

      .cls-25 {
        fill: url(#linear-gradient-22);
      }

      .cls-26 {
        fill: url(#linear-gradient-23);
      }

      .cls-27 {
        fill: #ffcb48;
      }

      .cls-28 {
        fill: url(#linear-gradient-24);
      }

      .cls-29 {
        fill: url(#linear-gradient-25);
      }

      .cls-30 {
        fill: url(#linear-gradient-26);
      }

      .cls-31 {
        fill: url(#linear-gradient-27);
      }

      .cls-32 {
        fill: url(#linear-gradient-28);
      }

      .cls-33 {
        fill: url(#linear-gradient-29);
      }

      .cls-34 {
        fill: url(#linear-gradient-30);
      }

      .cls-35, .cls-46 {
        opacity: 0.5;
      }

      .cls-35 {
        fill: url(#linear-gradient-31);
      }

      .cls-36 {
        fill: #f0f9fc;
      }

      .cls-37 {
        fill: #34a521;
      }

      .cls-38 {
        font-size: 73.43536px;
        stroke: #000;
        stroke-width: 2.71848px;
        font-family: AvenirLTStd-Black, Avenir LT Std;
        font-weight: 800;
      }

      .cls-39 {
        fill: url(#linear-gradient-32);
      }

      .cls-40 {
        fill: url(#linear-gradient-33);
      }

      .cls-41 {
        fill: #444;
      }

      .cls-42 {
        fill: #27343d;
      }

      .cls-43 {
        fill: #303d49;
      }

      .cls-44 {
        fill: url(#linear-gradient-34);
      }

      .cls-45 {
        fill: url(#linear-gradient-35);
      }

      .cls-46 {
        fill: #dd7b19;
      }

      .cls-47 {
        fill: url(#linear-gradient-36);
      }

      .cls-48 {
        fill: #ef8e73;
      }

      .cls-49 {
        fill: #e2786d;
      }

      .cls-50 {
        fill: url(#linear-gradient-37);
      }

      .cls-51 {
        fill: url(#linear-gradient-38);
      }

      .cls-52 {
        fill: url(#linear-gradient-39);
      }

      .cls-53 {
        fill: url(#linear-gradient-40);
      }

      .cls-54 {
        fill: url(#linear-gradient-41);
      }

      .cls-55 {
        fill: #541510;
        opacity: 0.3;
      }

      .cls-56 {
        fill: url(#linear-gradient-42);
      }

      .cls-57 {
        fill: url(#linear-gradient-43);
      }

      .cls-58 {
        fill: #bcd0e2;
      }

      .cls-59 {
        fill: #e9f1f4;
      }

      .cls-60 {
        fill: url(#linear-gradient-44);
      }

      .cls-61 {
        fill: url(#linear-gradient-45);
      }

      .cls-62 {
        fill: url(#linear-gradient-46);
      }

      .cls-63 {
        fill: #fff;
      }

      .cls-64 {
        opacity: 0.6;
      }

      .cls-65 {
        fill: #9bb0c4;
      }

      .cls-66 {
        fill: url(#linear-gradient-47);
      }

      .cls-67 {
        fill: url(#linear-gradient-48);
      }

      .cls-68 {
        fill: #724133;
      }

      .cls-69 {
        fill: url(#linear-gradient-49);
      }

      .cls-70 {
        fill: url(#linear-gradient-50);
      }

      .cls-71 {
        fill: url(#linear-gradient-51);
      }

      .cls-72 {
        fill: url(#linear-gradient-52);
      }

      .cls-73 {
        fill: url(#linear-gradient-53);
      }

      .cls-74 {
        fill: url(#linear-gradient-54);
      }

      .cls-75 {
        fill: url(#linear-gradient-55);
      }

      .cls-76 {
        fill: url(#linear-gradient-56);
      }

      .cls-77 {
        fill: url(#linear-gradient-57);
      }

      .cls-78 {
        fill: url(#linear-gradient-58);
      }

      .cls-79 {
        fill: url(#linear-gradient-59);
      }

      .cls-80 {
        fill: url(#linear-gradient-60);
      }

      .cls-81 {
        fill: url(#linear-gradient-61);
      }

      .cls-82 {
        fill: url(#linear-gradient-62);
      }

      .cls-83 {
        fill: url(#linear-gradient-63);
      }

      .cls-84 {
        fill: url(#linear-gradient-64);
      }

      .cls-85 {
        opacity: 0.4;
        fill: url(#linear-gradient-65);
      }

      .cls-86 {
        fill: url(#linear-gradient-66);
      }

      .cls-87 {
        fill: url(#linear-gradient-67);
      }

      .cls-88 {
        fill: url(#linear-gradient-68);
      }

      .cls-89 {
        fill: url(#linear-gradient-69);
      }

      .cls-90 {
        fill: url(#linear-gradient-70);
      }

      .cls-91 {
        fill: url(#linear-gradient-71);
      }

      .cls-92 {
        fill: url(#linear-gradient-72);
      }

      .cls-93 {
        fill: url(#linear-gradient-73);
      }

      .cls-94 {
        fill: url(#linear-gradient-74);
      }
    </style>
    <linearGradient id="linear-gradient" x1="549.29348" y1="385.55996" x2="970.58017" y2="385.55996" gradientUnits="userSpaceOnUse">
      <stop offset="0" stop-color="#f0f9ff"/>
      <stop offset="1" stop-color="#c3d6e6"/>
    </linearGradient>
    <linearGradient id="linear-gradient-2" x1="-260.17706" y1="187.87055" x2="-298.47494" y2="429.14714" gradientTransform="matrix(-1, 0, 0, 1, 197.06383, 0)" gradientUnits="userSpaceOnUse">
      <stop offset="0" stop-color="#293440"/>
      <stop offset="1" stop-color="#3e4c59"/>
    </linearGradient>
    <linearGradient id="linear-gradient-3" x1="-240.47309" y1="192.06854" x2="-325.27344" y2="447.06678" gradientTransform="matrix(-1, 0, 0, 1, 197.06383, 0)" gradientUnits="userSpaceOnUse">
      <stop offset="0" stop-color="#62778c"/>
      <stop offset="1" stop-color="#435466"/>
    </linearGradient>
    <linearGradient id="linear-gradient-4" x1="-9317.67383" y1="309.30648" x2="-9258.94711" y2="309.30648" gradientTransform="translate(9764.82693)" xlink:href="#linear-gradient-2"/>
    <linearGradient id="linear-gradient-5" x1="24.12025" y1="338.18863" x2="-29.49677" y2="596.31629" xlink:href="#linear-gradient-2"/>
    <linearGradient id="linear-gradient-6" x1="35.23535" y1="355.09775" x2="-49.565" y2="610.09599" xlink:href="#linear-gradient-3"/>
    <linearGradient id="linear-gradient-7" x1="-9593.38227" y1="472.33569" x2="-9534.65555" y2="472.33569" gradientTransform="translate(9764.82693)" xlink:href="#linear-gradient-2"/>
    <linearGradient id="linear-gradient-8" x1="128.02302" y1="711.89267" x2="970.58017" y2="711.89267" gradientUnits="userSpaceOnUse">
      <stop offset="0" stop-color="#dae9f2"/>
      <stop offset="0.99337" stop-color="#c4d5e6"/>
    </linearGradient>
    <linearGradient id="linear-gradient-9" x1="593.57498" y1="805.74871" x2="774.8931" y2="805.74871" gradientUnits="userSpaceOnUse">
      <stop offset="0.00005" stop-color="#ffb348"/>
      <stop offset="1" stop-color="#e68e2b"/>
    </linearGradient>
    <linearGradient id="linear-gradient-10" x1="6271.19244" y1="482.07096" x2="6343.40242" y2="515.06217" gradientTransform="translate(-5721.26989)" gradientUnits="userSpaceOnUse">
      <stop offset="0" stop-color="#3e4c59"/>
      <stop offset="1" stop-color="#293440"/>
    </linearGradient>
    <linearGradient id="linear-gradient-11" x1="6199.27191" y1="432.3358" x2="6280.86686" y2="469.61481" xlink:href="#linear-gradient-10"/>
    <linearGradient id="linear-gradient-12" x1="-1926.3455" y1="368.89967" x2="-1793.82636" y2="462.22301" gradientTransform="translate(2413.68732)" xlink:href="#linear-gradient-3"/>
    <linearGradient id="linear-gradient-13" x1="-1926.7247" y1="383.37951" x2="-1783.39925" y2="538.92287" gradientTransform="translate(2413.68732)" gradientUnits="userSpaceOnUse">
      <stop offset="0" stop-color="#62788c"/>
      <stop offset="1" stop-color="#526575"/>
    </linearGradient>
    <linearGradient id="linear-gradient-14" x1="-1940.86363" y1="363.8355" x2="-1854.21692" y2="499.00436" gradientTransform="translate(2413.68732)" gradientUnits="userSpaceOnUse">
      <stop offset="0" stop-color="#96b1cc"/>
      <stop offset="1" stop-color="#748ea6"/>
    </linearGradient>
    <linearGradient id="linear-gradient-15" x1="-1933.6508" y1="408.23237" x2="-1795.10436" y2="408.23237" gradientTransform="translate(2413.68732)" gradientUnits="userSpaceOnUse">
      <stop offset="0" stop-color="#526575"/>
      <stop offset="1" stop-color="#62788c"/>
    </linearGradient>
    <linearGradient id="linear-gradient-16" x1="-1933.65085" y1="385.7851" x2="-1795.1044" y2="385.7851" xlink:href="#linear-gradient-14"/>
    <linearGradient id="linear-gradient-17" x1="-2134.05745" y1="384.97612" x2="-2079.49312" y2="384.97612" gradientTransform="translate(2656.08503)" xlink:href="#linear-gradient-3"/>
    <linearGradient id="linear-gradient-18" x1="-2134.05747" y1="380.81874" x2="-2079.4931" y2="380.81874" gradientTransform="translate(2656.08503)" gradientUnits="userSpaceOnUse">
      <stop offset="0" stop-color="#849bb2"/>
      <stop offset="1" stop-color="#5b6f82"/>
    </linearGradient>
    <linearGradient id="linear-gradient-19" x1="-2107.14382" y1="336.92024" x2="-2106.41734" y2="377.11891" gradientTransform="translate(2656.08503)" xlink:href="#linear-gradient-3"/>
    <linearGradient id="linear-gradient-20" x1="-2143.46674" y1="328.95423" x2="-2070.08378" y2="328.95423" gradientTransform="translate(2656.08503)" xlink:href="#linear-gradient-3"/>
    <linearGradient id="linear-gradient-21" x1="-2143.95902" y1="323.57553" x2="-2069.5915" y2="323.57553" gradientTransform="translate(2656.08503)" gradientUnits="userSpaceOnUse">
      <stop offset="0.00844" stop-color="#ffc63f"/>
      <stop offset="1" stop-color="#e68a23"/>
    </linearGradient>
    <linearGradient id="linear-gradient-22" x1="-2114.79365" y1="309.76103" x2="-2098.75702" y2="309.76103" gradientTransform="translate(2656.08503)" xlink:href="#linear-gradient-10"/>
    <linearGradient id="linear-gradient-23" x1="-2114.79364" y1="303.57394" x2="-2098.75693" y2="303.57394" gradientTransform="translate(2656.08503)" xlink:href="#linear-gradient-3"/>
    <linearGradient id="linear-gradient-24" x1="912.23831" y1="386.54445" x2="937.9137" y2="451.66095" gradientTransform="matrix(1, 0, 0, 1, 0, 0)" xlink:href="#linear-gradient-21"/>
    <linearGradient id="linear-gradient-25" x1="919.7051" y1="390.62206" x2="928.46669" y2="404.32439" gradientTransform="matrix(1, 0, 0, 1, 0, 0)" xlink:href="#linear-gradient-3"/>
    <linearGradient id="linear-gradient-26" x1="902.7423" y1="400.51877" x2="933.59915" y2="448.77611" gradientTransform="matrix(1, 0, 0, 1, 0, 0)" xlink:href="#linear-gradient-3"/>
    <linearGradient id="linear-gradient-27" x1="595.36287" y1="180.9638" x2="621.03826" y2="246.0803" gradientTransform="matrix(1, 0, 0, 1, 0, 0)" xlink:href="#linear-gradient-21"/>
    <linearGradient id="linear-gradient-28" x1="602.82966" y1="185.0414" x2="611.59125" y2="198.74373" gradientTransform="matrix(1, 0, 0, 1, 0, 0)" xlink:href="#linear-gradient-3"/>
    <linearGradient id="linear-gradient-29" x1="585.86685" y1="194.93811" x2="616.72371" y2="243.19545" gradientTransform="matrix(1, 0, 0, 1, 0, 0)" xlink:href="#linear-gradient-3"/>
    <linearGradient id="linear-gradient-30" x1="313.38111" y1="89.13206" x2="149.12055" y2="449.67007" xlink:href="#linear-gradient"/>
    <linearGradient id="linear-gradient-31" x1="189.50641" y1="248.17567" x2="61.43886" y2="345.92772" gradientUnits="userSpaceOnUse">
      <stop offset="0" stop-color="#5b6f82"/>
      <stop offset="1" stop-color="#849bb2"/>
    </linearGradient>
    <linearGradient id="linear-gradient-32" x1="165.39081" y1="188.57886" x2="165.39081" y2="419.46732" gradientUnits="userSpaceOnUse">
      <stop offset="0" stop-color="#ff6969"/>
      <stop offset="1" stop-color="#c21941"/>
    </linearGradient>
    <linearGradient id="linear-gradient-33" x1="463.69809" y1="345.38311" x2="409.91086" y2="464.87247" gradientUnits="userSpaceOnUse">
      <stop offset="0" stop-color="#75413e"/>
      <stop offset="1" stop-color="#592f2f"/>
    </linearGradient>
    <linearGradient id="linear-gradient-34" x1="501.69149" y1="362.48555" x2="447.90426" y2="481.97492" xlink:href="#linear-gradient-33"/>
    <linearGradient id="linear-gradient-35" x1="502.02994" y1="405.98199" x2="403.22143" y2="518.06709" gradientUnits="userSpaceOnUse">
      <stop offset="0.00005" stop-color="#ffcb48"/>
      <stop offset="1" stop-color="#e68e2b"/>
    </linearGradient>
    <linearGradient id="linear-gradient-36" x1="496.80639" y1="401.37717" x2="397.99788" y2="513.46228" xlink:href="#linear-gradient-35"/>
    <linearGradient id="linear-gradient-37" x1="473.39973" y1="349.75023" x2="419.61249" y2="469.23959" xlink:href="#linear-gradient-33"/>
    <linearGradient id="linear-gradient-38" x1="664.26315" y1="315.55019" x2="860.68952" y2="572.78969" gradientTransform="matrix(1, 0, 0, 1, 0, 0)" xlink:href="#linear-gradient-3"/>
    <linearGradient id="linear-gradient-39" x1="644.45747" y1="330.4774" x2="839.12517" y2="585.41373" gradientTransform="matrix(1, 0, 0, 1, 0, 0)" xlink:href="#linear-gradient-13"/>
    <linearGradient id="linear-gradient-40" x1="425.47626" y1="588.63264" x2="916.18392" y2="720.38712" gradientTransform="matrix(1, 0, 0, 1, 0, 0)" xlink:href="#linear-gradient-3"/>
    <linearGradient id="linear-gradient-41" x1="279.33557" y1="610.63652" x2="706.96891" y2="882.88756" gradientTransform="matrix(1, 0, 0, 1, 0, 0)" xlink:href="#linear-gradient-13"/>
    <linearGradient id="linear-gradient-42" x1="289.83752" y1="673.05114" x2="928.83533" y2="707.61988" gradientTransform="matrix(1, 0, 0, 1, 0, 0)" xlink:href="#linear-gradient-10"/>
    <linearGradient id="linear-gradient-43" x1="294.93606" y1="705.78362" x2="886.22041" y2="737.77114" gradientTransform="matrix(1, 0, 0, 1, 0, 0)" xlink:href="#linear-gradient-10"/>
    <linearGradient id="linear-gradient-44" x1="656.37188" y1="272.56479" x2="923.28319" y2="622.11118" gradientUnits="userSpaceOnUse">
      <stop offset="0" stop-color="#596c80"/>
      <stop offset="0.99886" stop-color="#3a4959"/>
    </linearGradient>
    <linearGradient id="linear-gradient-45" x1="673.26061" y1="731.71816" x2="704.42922" y2="780.3412" gradientTransform="matrix(1, 0, 0, 1, 0, 0)" xlink:href="#linear-gradient-10"/>
    <linearGradient id="linear-gradient-46" x1="345.58022" y1="560.13511" x2="698.77911" y2="757.15761" gradientTransform="matrix(0.9748, -0.02632, 0, 1, -17.7135, -18.50221)" xlink:href="#linear-gradient-35"/>
    <linearGradient id="linear-gradient-47" x1="879.47064" y1="703.48431" x2="938.75261" y2="703.48431" gradientTransform="matrix(1, 0, 0, 1, 0, 0)" xlink:href="#linear-gradient-10"/>
    <linearGradient id="linear-gradient-48" x1="883.66482" y1="647.37596" x2="943.06907" y2="704.56745" xlink:href="#linear-gradient-35"/>
    <linearGradient id="linear-gradient-49" x1="-13298.38224" y1="3013.17569" x2="-13265.68644" y2="3026.76161" gradientTransform="matrix(-0.94085, 0.33882, 0.33882, 0.94085, -12591.07435, 2179.99225)" gradientUnits="userSpaceOnUse">
      <stop offset="0" stop-color="#f2883c"/>
      <stop offset="0.16716" stop-color="#e97d35"/>
      <stop offset="0.67368" stop-color="#d26124"/>
      <stop offset="0.96784" stop-color="#c9571e"/>
    </linearGradient>
    <linearGradient id="linear-gradient-50" x1="580.89092" y1="-2169.74265" x2="556.2571" y2="-2154.06658" gradientTransform="translate(-389.67267 2365.90065) rotate(21.53204)" xlink:href="#linear-gradient-49"/>
    <linearGradient id="linear-gradient-51" x1="961.97828" y1="524.06961" x2="920.62332" y2="561.24429" gradientTransform="matrix(1, 0, 0, 1, 0, 0)" xlink:href="#linear-gradient-49"/>
    <linearGradient id="linear-gradient-52" x1="433.2664" y1="2532.05889" x2="399.6036" y2="2553.48067" gradientTransform="translate(-185.61372 -1769.26105) rotate(-16.16083)" xlink:href="#linear-gradient-49"/>
    <linearGradient id="linear-gradient-53" x1="886.23743" y1="496.64539" x2="906.54167" y2="535.61162" gradientTransform="matrix(1, 0, 0, 1, 0, 0)" xlink:href="#linear-gradient-49"/>
    <linearGradient id="linear-gradient-54" x1="217.90611" y1="3157.53078" x2="241.41827" y2="3202.65338" gradientTransform="translate(-486.77553 -2331.8071) rotate(-21.26361)" xlink:href="#linear-gradient-49"/>
    <linearGradient id="linear-gradient-55" x1="127.12196" y1="-3133.50346" x2="159.81776" y2="-3119.91753" gradientTransform="matrix(0.87147, 0.49044, -0.49044, 0.87147, -773.53266, 3185.48205)" xlink:href="#linear-gradient-49"/>
    <linearGradient id="linear-gradient-56" x1="603.5133" y1="1135.30665" x2="582.14509" y2="1172.66025" gradientTransform="matrix(1.03159, -0.09458, 0.10022, 1.01436, 194.00058, -608.55316)" xlink:href="#linear-gradient-49"/>
    <linearGradient id="linear-gradient-57" x1="-710.42416" y1="4737.00137" x2="-740.73539" y2="4756.29034" gradientTransform="translate(-1282.82922 -3735.74804) rotate(-35.91139)" xlink:href="#linear-gradient-49"/>
    <linearGradient id="linear-gradient-58" x1="-13326.12568" y1="-1874.45638" x2="-13354.03751" y2="-1856.69431" gradientTransform="matrix(-0.94244, -0.33439, -0.33439, 0.94244, -12295.13767, -2152.55086)" xlink:href="#linear-gradient-49"/>
    <linearGradient id="linear-gradient-59" x1="-3747.09178" y1="684.76473" x2="-3743.41014" y2="684.76473" gradientTransform="matrix(-0.04492, -0.99899, -0.99899, 0.04492, 1453.73335, -3087.46557)" xlink:href="#linear-gradient-10"/>
    <linearGradient id="linear-gradient-60" x1="878.40484" y1="684.76473" x2="882.08648" y2="684.76473" gradientTransform="translate(31.56336 -38.74996) rotate(2.56788)" xlink:href="#linear-gradient-10"/>
    <linearGradient id="linear-gradient-61" x1="908.11578" y1="700.85945" x2="910.11578" y2="700.85945" gradientTransform="matrix(1, 0, 0, 1, 0, 0)" xlink:href="#linear-gradient-10"/>
    <linearGradient id="linear-gradient-62" x1="877.78594" y1="670.0356" x2="940.44598" y2="670.0356" gradientTransform="matrix(1, 0, 0, 1, 0, 0)" xlink:href="#linear-gradient-10"/>
    <linearGradient id="linear-gradient-63" x1="714.47012" y1="317.95672" x2="791.78919" y2="317.95672" gradientTransform="translate(-18.64021 -32.28579)" gradientUnits="userSpaceOnUse">
      <stop offset="0" stop-color="#435466"/>
      <stop offset="1" stop-color="#62778c"/>
    </linearGradient>
    <linearGradient id="linear-gradient-64" x1="724.89031" y1="313.97347" x2="788.47428" y2="313.97347" gradientTransform="translate(-18.64021 -32.28579)" gradientUnits="userSpaceOnUse">
      <stop offset="0" stop-color="#fff"/>
      <stop offset="0.98888" stop-color="#e6edf2"/>
    </linearGradient>
    <linearGradient id="linear-gradient-65" x1="734.00261" y1="315.8989" x2="777.10807" y2="315.8989" gradientTransform="translate(-18.64021 -32.28579)" xlink:href="#linear-gradient-3"/>
    <linearGradient id="linear-gradient-66" x1="714.47011" y1="317.95672" x2="791.7892" y2="317.95672" gradientTransform="translate(-18.64021 -32.28579)" xlink:href="#linear-gradient-18"/>
    <linearGradient id="linear-gradient-67" x1="731.43554" y1="239.31013" x2="810.93541" y2="344.38822" gradientTransform="translate(-18.64021 -32.28579)" xlink:href="#linear-gradient-3"/>
    <linearGradient id="linear-gradient-68" x1="699.97307" y1="214.35493" x2="817.85723" y2="370.16703" gradientTransform="translate(-18.64021 -32.28579)" xlink:href="#linear-gradient-3"/>
    <linearGradient id="linear-gradient-69" x1="814.51366" y1="355.64856" x2="788.83349" y2="295.4278" gradientTransform="translate(3.46411 6.00002)" xlink:href="#linear-gradient-63"/>
    <linearGradient id="linear-gradient-70" x1="747.9802" y1="260.58941" x2="787.31546" y2="260.58941" gradientTransform="translate(47.76727 82.73534)" xlink:href="#linear-gradient-64"/>
    <linearGradient id="linear-gradient-71" x1="737.56" y1="264.57266" x2="790.63038" y2="264.57266" gradientTransform="translate(47.76727 82.73534)" xlink:href="#linear-gradient-18"/>
    <linearGradient id="linear-gradient-72" x1="749.89626" y1="211.83274" x2="804.6917" y2="284.25802" gradientTransform="translate(47.76727 82.73534)" xlink:href="#linear-gradient-3"/>
    <linearGradient id="linear-gradient-73" x1="731.73779" y1="197.48719" x2="808.4386" y2="298.86565" gradientTransform="translate(47.76727 82.73534)" xlink:href="#linear-gradient-3"/>
    <linearGradient id="linear-gradient-74" x1="473.58257" y1="380.90424" x2="374.77406" y2="492.98935" xlink:href="#linear-gradient-35"/>
  </defs>
  <g>
    <polygon class="cls-1" points="549.293 59.227 970.58 302.448 970.58 711.893 549.293 468.649 549.293 59.227"/>
    <polygon class="cls-2" points="549.31 59.227 128.023 302.448 128.023 711.893 549.31 468.649 549.31 59.227"/>
  </g>
  <g>
    <g>
      <g>
        <path class="cls-3" d="M505.87982,431.25948l-58.72647,33.89234.0001-8.73023L436.66826,181.2917l58.7376-33.87381,10.474,6.04512Z"/>
        <path class="cls-4" d="M436.673,181.29115v302.03l79.7-46v-302.04Zm10.48,6.07,58.72-33.9V431.26118l-58.72,33.89Z"/>
      </g>
      <polygon class="cls-5" points="505.873 153.461 501.932 155.736 501.944 429.129 447.153 460.746 447.153 465.152 505.88 431.259 505.873 153.461"/>
    </g>
    <g>
      <g>
        <path class="cls-6" d="M230.17138,594.28869,171.44491,628.181l.0001-8.73023L160.95982,344.32091l58.7376-33.87381,10.474,6.04512Z"/>
        <path class="cls-7" d="M160.96453,344.32035v302.03l79.7-46v-302.04Zm10.48,6.07,58.72-33.9V594.29039l-58.72,33.89Z"/>
      </g>
      <polygon class="cls-8" points="230.164 316.49 226.223 318.765 226.235 592.158 171.445 623.775 171.445 628.181 230.171 594.289 230.164 316.49"/>
    </g>
  </g>
  <path class="cls-9" d="M135.2928,724.49667l392.21059,226.4329a43.6172,43.6172,0,0,0,43.61687-.00063l392.1905-226.4365a14.53906,14.53906,0,0,0,.00017-25.18216L571.10327,472.8567a43.61721,43.61721,0,0,0-43.61994.00054L135.292,699.31448A14.53906,14.53906,0,0,0,135.2928,724.49667Z"/>
  <path class="cls-10" d="M595.49442,816.71065l109.634-63.34411a7.68541,7.68541,0,0,1,7.693,0l60.15222,34.76671a3.84269,3.84269,0,0,1,0,6.65353l-109.634,63.3441a7.68534,7.68534,0,0,1-7.693,0l-60.15222-34.7667A3.84269,3.84269,0,0,1,595.49442,816.71065Z"/>
  <path class="cls-11" d="M273.49178,752.40631l225.81837,130.3703a21.29362,21.29362,0,0,0,21.2957-.00163L886.463,671.28625a10.6468,10.6468,0,0,0-.0007-18.43978L660.71256,522.49228a21.2936,21.2936,0,0,0-21.29468-.00062L273.49159,733.9654A10.64681,10.64681,0,0,0,273.49178,752.40631Z"/>
  <g>
    <g>
      <path class="cls-12" d="M557.743,470.86887v83.22386a1.88191,1.88191,0,0,0,2.82248,1.63l52.78025-30.4512a5.64571,5.64571,0,0,0,2.824-4.89V440.94327"/>
      <path class="cls-13" d="M482.81079,427.72556v83.22385a1.88191,1.88191,0,0,0,2.82248,1.63l68.18856-39.34708a5.64575,5.64575,0,0,0,2.824-4.89V388.90406"/>
      <g>
        <path class="cls-14" d="M618.58292,398.65746v45.362a3.78123,3.78123,0,0,1-1.88816,3.28863l-55.88861,32.315a7.56335,7.56335,0,0,1-3.79208,1.00708l-15.40831-81.97269Z"/>
        <path class="cls-15" d="M557.01407,398.65746v81.97269a7.56371,7.56371,0,0,1-3.79246-1.00708l-71.281-41.21086a3.76436,3.76436,0,0,1-1.9041-3.28863v-45.362Z"/>
        <polygon class="cls-16" points="551.194 468.467 485.857 430.709 485.879 401.78 551.194 439.551 551.194 468.467"/>
        <path class="cls-17" d="M480.03653,381.33715V389.615a3.75351,3.75351,0,0,0,1.89252,3.28014l71.29216,41.21512a7.57794,7.57794,0,0,0,7.58524,0l55.884-32.31923a3.75351,3.75351,0,0,0,1.89252-3.28013v-8.27781Z"/>
        <path class="cls-18" d="M616.69039,386.95292l-71.29227-41.21507a7.5777,7.5777,0,0,0-7.58516,0L481.929,378.057a3.78883,3.78883,0,0,0,0,6.56026l71.29227,41.21506a7.57765,7.57765,0,0,0,7.58516,0l55.884-32.31917A3.78881,3.78881,0,0,0,616.69039,386.95292Z"/>
      </g>
    </g>
    <g>
      <g>
        <path class="cls-19" d="M575.835,381.35248c-2.8426-6.9357-13.625-12.103-26.52533-12.103s-23.68274,5.16733-26.52523,12.103h-.75688v3.62364c0,8.6856,12.21457,15.72666,27.28211,15.72666s27.28222-7.04106,27.28222-15.72666v-3.62364Z"/>
        <ellipse class="cls-20" cx="549.30974" cy="380.81874" rx="27.28218" ry="15.72671"/>
      </g>
      <path class="cls-21" d="M545.73494,337.05826v40.498c0,1.13808,1.60049,2.06067,3.57479,2.06067s3.57481-.92259,3.57481-2.06067v-40.498Z"/>
      <path class="cls-22" d="M512.61829,301.59338V335.228c0,11.64606,16.42726,21.087,36.69147,21.087s36.69148-9.441,36.69148-21.087V301.59338Z"/>
      <path class="cls-23" d="M512.126,295.84759v34.08592c0,11.80232,16.64766,21.37,37.18375,21.37s37.18376-9.56764,37.18376-21.37V295.84759Z"/>
      <g>
        <ellipse class="cls-24" cx="549.30974" cy="295.8477" rx="37.18377" ry="21.36998"/>
        <path class="cls-25" d="M541.29137,315.05151a36.30032,36.30032,0,0,0,16.03663,0V303.57389H541.29137Z"/>
        <ellipse class="cls-26" cx="549.30974" cy="303.57394" rx="8.01835" ry="4.62215"/>
        <path class="cls-27" d="M549.30973,276.31044c19.49262,0,35.35085,8.76433,35.35085,19.5372S568.80235,315.385,549.30973,315.385s-35.35086-8.76449-35.35086-19.53736,15.85823-19.5372,35.35086-19.5372m0-1.83276c-20.53594,0-37.18376,9.56769-37.18376,21.37,0,11.80242,16.64782,21.37011,37.18376,21.37011s37.18376-9.56769,37.18376-21.37011c0-11.80227-16.64783-21.37-37.18376-21.37Z"/>
      </g>
    </g>
  </g>
  <g>
    <ellipse class="cls-24" cx="923.72823" cy="387.6233" rx="10.27365" ry="5.92221"/>
    <path class="cls-28" d="M934.00181,387.62582c-.00266,3.26961-4.60114,5.91981-10.27381,5.91981-5.674,0-10.27336-2.65153-10.27336-5.92247v55.44962c0,3.27082,4.59936,5.92225,10.27336,5.92225s10.27381-2.65143,10.27381-5.92225v-55.447Z"/>
    <path class="cls-29" d="M934.00181,394.354c-.00266,3.2696-4.60114,5.91981-10.27381,5.91981-5.674,0-10.27336-2.65154-10.27336-5.92247v4.0609c0,3.27083,4.59936,5.92225,10.27336,5.92225s10.27381-2.65142,10.27381-5.92225Z"/>
    <path class="cls-30" d="M934.00181,430.779c-.00266,3.2696-4.60114,5.91981-10.27381,5.91981-5.674,0-10.27336-2.65154-10.27336-5.92247v4.0609c0,3.27083,4.59936,5.92225,10.27336,5.92225s10.27381-2.65142,10.27381-5.92225Z"/>
    <path class="cls-27" d="M923.72821,383.06418c5.25116,0,8.91062,2.40284,8.91062,4.55909s-3.65946,4.55908-8.91062,4.55908-8.91058-2.40283-8.91058-4.55908,3.65945-4.55909,8.91058-4.55909m0-1.36328c-5.67395,0-10.27362,2.65186-10.27362,5.92237,0,3.271,4.59967,5.92236,10.27362,5.92236s10.27365-2.65137,10.27365-5.92236c0-3.27051-4.59967-5.92237-10.27365-5.92237Z"/>
  </g>
  <g>
    <ellipse class="cls-24" cx="606.85278" cy="182.04265" rx="10.27365" ry="5.92221"/>
    <path class="cls-31" d="M617.12637,182.04517c-.00266,3.2696-4.60114,5.9198-10.27381,5.9198-5.674,0-10.27337-2.65153-10.27337-5.92247v55.44962c0,3.27083,4.59937,5.92225,10.27337,5.92225s10.27381-2.65142,10.27381-5.92225V182.04517Z"/>
    <path class="cls-32" d="M617.12637,188.77335c-.00266,3.26961-4.60114,5.91981-10.27381,5.91981-5.674,0-10.27337-2.65153-10.27337-5.92247v4.06091c0,3.27082,4.59937,5.92225,10.27337,5.92225s10.27381-2.65143,10.27381-5.92225Z"/>
    <path class="cls-33" d="M617.12637,225.19836c-.00266,3.26961-4.60114,5.91981-10.27381,5.91981-5.674,0-10.27337-2.65153-10.27337-5.92247v4.06091c0,3.27082,4.59937,5.92225,10.27337,5.92225s10.27381-2.65143,10.27381-5.92225Z"/>
    <path class="cls-27" d="M606.85278,177.48362c5.25116,0,8.91059,2.40283,8.91059,4.55908s-3.65943,4.55908-8.91059,4.55908-8.91058-2.40283-8.91058-4.55908,3.65942-4.55908,8.91058-4.55908m0-1.36328c-5.674,0-10.27362,2.65136-10.27362,5.92236,0,3.27051,4.59961,5.92236,10.27362,5.92236,5.67395,0,10.27363-2.65185,10.27363-5.92236,0-3.271-4.59968-5.92236-10.27363-5.92236Z"/>
  </g>
  <g>
    <g>
      <circle class="cls-34" cx="234.06471" cy="263.22484" r="217.50613"/>
      <polygon class="cls-35" points="240.502 395.458 186.752 468.821 80.997 417.749 29.452 304.367 34.556 187.629 101.663 96.683 132.462 81.834 240.502 395.458"/>
      <path class="cls-36" d="M201.81253,265.08652V52.75608L128.96909,86.78369V265.08652a89.4899,89.4899,0,1,0,72.84344,0Z"/>
      <path class="cls-37" d="M234.06476,63.89231a198.65275,198.65275,0,1,1-77.58362,15.65722,198.0605,198.0605,0,0,1,77.58362-15.65722m0-18.17383c-120.12537,0-217.50623,97.38086-217.50623,217.50635s97.38086,217.50635,217.50623,217.50635c120.12518,0,217.5061-97.38086,217.5061-217.50635S354.18994,45.71848,234.06476,45.71848Z"/>
    </g>
    <g>
      <text class="cls-38" transform="translate(252.71582 309.88246)">16</text>
      <text class="cls-38" transform="translate(360.56641 309.88246)">C</text>
      <circle cx="353.10038" cy="263.9988" r="7.94994"/>
    </g>
    <g>
      <text class="cls-38" transform="translate(252.71582 204.18129)">19</text>
      <text class="cls-38" transform="translate(360.56641 204.18129)">C</text>
      <circle cx="353.10038" cy="158.30022" r="7.94994"/>
    </g>
    <g>
      <path class="cls-39" d="M191.32768,302.29553V185.46307a2.6294,2.6294,0,0,0-2.6294-2.6294h-46.615a2.6294,2.6294,0,0,0-2.6294,2.6294V302.29939a2.62292,2.62292,0,0,1-1.51158,2.36245c-33.976,16.24454-51.33272,61.66446-19.48992,103.86339a2.91486,2.91486,0,0,0,.56371.56416c52.4821,39.65849,110.10281,3.09961,110.10281-46.9173a63.71687,63.71687,0,0,0-36.27645-57.50871A2.62952,2.62952,0,0,1,191.32768,302.29553Z"/>
      <g>
        <rect x="176.07965" y="256.43803" width="71.45798" height="5.25881" rx="2.6294"/>
        <rect x="176.07965" y="237.26596" width="53.58308" height="5.25881" rx="2.6294"/>
        <rect x="176.07965" y="218.09389" width="71.11639" height="5.25881" rx="2.6294"/>
      </g>
      <g>
        <rect x="176.07965" y="294.78218" width="71.45798" height="5.25881" rx="2.6294"/>
        <rect x="176.07965" y="275.61011" width="53.58308" height="5.25881" rx="2.6294"/>
      </g>
      <g>
        <rect x="176.07965" y="198.92182" width="53.58308" height="5.25881" rx="2.6294"/>
        <rect x="176.07965" y="179.74975" width="71.11639" height="5.25881" rx="2.6294"/>
      </g>
      <g>
        <rect x="176.07965" y="160.57768" width="53.58308" height="5.25881" rx="2.6294"/>
        <rect x="176.07965" y="141.4056" width="71.11639" height="5.25881" rx="2.6294"/>
      </g>
      <g>
        <rect x="176.07965" y="122.23353" width="53.58308" height="5.25881" rx="2.6294"/>
        <rect x="176.07965" y="103.06146" width="71.11639" height="5.25881" rx="2.6294"/>
      </g>
    </g>
  </g>
  <g>
    <path class="cls-40" d="M462.18572,390.63419l-13.66747-38.15264s-6.73384,5.57768-9.92484,20.63921c-2.02651,9.56514-14.187,11.17887-19.7945,20.88932-4.264,7.384-3.586,16.43567-7.77378,22.51781-3.46793,5.03669-10.66284,9.13119-13.43506,14.64241-4.84256,9.62707-1.97428,18.39626,2.11423,23.26125,8.77632,10.44308,20.34488,12.03235,29.74906,10.88823,10.55417-2.03418,14.13612-14.91534,19.42809-25.89857,3.7922-7.87055-.0871-21.61768-.855-29.07325C457.76109,398.3243,462.18572,390.63419,462.18572,390.63419Z"/>
    <g>
      <path class="cls-41" d="M437.76231,656.55445s-1.41479,12.00261.73949,15.192c1.39826,2.07013,7.70388,4.24748,14.2701,5.33665,6.12816,1.01651,12.55019,7.68675,24.00182,5.20913,8.66741-1.87523,10.33586-8.82957,6.27686-11.15349l-10.86718-6.5155-14.18165-8.86086Z"/>
      <path class="cls-42" d="M472.4365,496.29129l7.51217,71.91068-18.2922,88.85156c-.57945,7.70558-24.62462,8.14015-24.98082,0l8.36264-87.61652-14.8447-83.47616Z"/>
      <path class="cls-43" d="M469.7947,464.71211l-68.12707,27.67044s-5.74468,8.617-8.827,40.97679c-1.73339,18.19838.69144,52.50539.69144,52.50539s-.4579,80.5692.55684,95.85324c.50626,7.47874,22.089,9.362,22.83665,1.13054l10.92294-96.88994,8.41028-60.10034,36.17768-29.56694Z"/>
      <path class="cls-41" d="M395.42425,682.26111a36.989,36.989,0,0,0,1.13023,9.44571,106.23988,106.23988,0,0,0,3.89506,10.84436c1.42523,3.34809,1.89409,9.35423,7.92491,13.63209,9.05316,6.42171,20.46855.6149,16.91959-7.49169L421.03361,698.367l-5.48246-17.80592Z"/>
    </g>
    <g>
      <path class="cls-44" d="M451.60833,386.2516l35.93258-27.38917a34.96872,34.96872,0,0,1,3.25756,20.65382c-1.55024,11.44847,11.42752,10.43089,10.618,27.7419-.136,2.90719-2.88631,12.04856-2.48212,16.78893.54292,6.36729,3.806,8.85188,3.96629,16.284.2375,11.01038-5.49414,19.54256-11.17476,22.39118-11.7824,5.90845-19.737,5.38635-28.40784,1.57-9.51406-5.00111-11.20409-15.44631-13.09156-27.491-1.35255-8.63116,6.33866-20.66768,9.23108-27.58209C453.61846,394.89305,451.60833,386.2516,451.60833,386.2516Z"/>
      <path class="cls-45" d="M507.05061,431.80808s-4.59575-13.46808-9.51064-24.383c-6.43752-14.29631-15.866-16.042-15.866-16.042l-4.6842,36.70152,8.48545,16.10475C489.64555,453.3093,510.19954,442.19106,507.05061,431.80808Z"/>
      <path class="cls-46" d="M490.68808,447.53285l-.65875-15.87378-4.16748,13.23364A5.88692,5.88692,0,0,0,490.68808,447.53285Z"/>
      <path class="cls-47" d="M465.94422,390.46766c22.34369-4.85106,39.01383,15.31924,24.08511,41.19149-2.55319,13.81763-6.46808,28.04255-19.31915,40.25529l1.3617,21.0213c-1.1093,14.6383-6.92269,17.03278-19.3617,22.21277-17.56708,7.31548-48.54964,6.95819-53.85075-13.285a11.5572,11.5572,0,0,1,.18386-6.29421c4.60257-15.01841,12.00734-23.14408,12.00734-23.14408l5.89178-52.50916c6.36352-7.03347,19.35932-17.33416,33.45186-23.32766C455.10489,394.585,461.36931,391.46093,465.94422,390.46766Z"/>
      <path class="cls-46" d="M401.05216,507.0934l30.59424-54.66846-19.86133,13.45459-.73444,6.54565s-7.40133,8.12182-12.00416,23.13361a11.51194,11.51194,0,0,0-.17875,6.31132A20.5048,20.5048,0,0,0,401.05216,507.0934Z"/>
    </g>
    <g>
      <path class="cls-48" d="M472.41672,419.96791c10.07117-3.94141,11.22455-18.19336,3.688-25.0542-2.59332-2.36084-6.80487-3.82056-11.33887-4.13892-4.43335,1.21314-10.04895,3.9751-14.37164,5.81348-1.43072.60864-2.84564,1.27124-4.248,1.96069a14.01949,14.01949,0,0,0-1.33941,2.73145C440.52243,413.214,458.18851,425.53627,472.41672,419.96791Z"/>
      <path class="cls-49" d="M472.40929,402.71041c-.35659,3.0208-1.64557,5.78675-5.16325,6.44387-7.13782,1.33339-14.44878-4.8917-13.44513-10.48323L456.6262,383.84l17.31765,4.93467Z"/>
    </g>
    <g>
      <path class="cls-48" d="M452.91632,366.57466c-.19943-7.50728,7.79759-13.941,16.51526-13.41313,7.61914.46136,15.10191,7.23361,14.59491,15.67421a170.91724,170.91724,0,0,1-2.462,18.57825c-1.69768,8.17152-6.08486,16.864-14.25539,14.45972-8.99064-2.6456-14.416-8.08254-14.41829-16.69Z"/>
      <path class="cls-50" d="M484.41065,354.49307c8.48325,9.49383,5.73532,19.69988.29263,21.7515l-1.35184-.471s.44029-4.76547-1.70587-7.88235c-1.50776,8.89107-15.5438,10.281-19.51874,10.55612a6.36254,6.36254,0,0,1-4.94629,7.52925s-.04039.73791-2.6341,8.78086c-7.89585-5.88417-18.57433-24.89535-9.03895-38.78616C454.01952,343.57128,474.07569,342.92693,484.41065,354.49307Z"/>
      <path class="cls-48" d="M455.08222,389.8834c-3.02431-.54707-4.80629-5.23039-4.18551-8.66223s4.11464-5.78254,6.43359-3.76556C460.24133,379.98757,458.10653,390.43047,455.08222,389.8834Z"/>
    </g>
  </g>
  <g>
    <g>
      <g>
        <g>
          <path class="cls-51" d="M870.9188,443.9173,650.08865,313.2883a3.3663,3.3663,0,0,0-3.67169.14533v-.00013L625.9381,325.27909l21.02742,12.29954v98.81449l228.9556,120.32949V452.68531A10.18553,10.18553,0,0,0,870.9188,443.9173Z"/>
          <path class="cls-52" d="M624.33108,328.16487V449.50338L855.28642,568.67649V464.63925a10.18534,10.18534,0,0,0-5.00239-8.768l-220.8302-130.629A3.39511,3.39511,0,0,0,624.33108,328.16487Z"/>
          <path class="cls-53" d="M855.28625,464.63925V578.57889L520.00361,636.16671,508.98068,867.94476a21.19708,21.19708,0,0,0,10.66554-2.83568L870.65173,662.30022a10.88263,10.88263,0,0,0,5.26645-9.71059l.003-75.53417V452.68535Z"/>
          <path class="cls-54" d="M520.00369,636.16675l-11.02292,231.778a21.05423,21.05423,0,0,1-10.5068-2.83567l-213.39741-123.139a10.45041,10.45041,0,0,1-5.27991-9.00434V656.71479Z"/>
          <g>
            <path class="cls-55" d="M855.28642,557.034v39.837l-.01059-.0106a10.4711,10.4711,0,0,1-5.25867,9.618L519.64335,797.12452a21.09108,21.09108,0,0,1-10.66554,2.83566l11.02292-196.17883Z"/>
            <path class="cls-56" d="M855.28642,572.81056v39.837l-.01059-.01059a10.47112,10.47112,0,0,1-5.25867,9.618L519.64335,812.90105a21.09119,21.09119,0,0,1-10.66554,2.83567l11.02292-196.17884Z"/>
            <path class="cls-57" d="M520.00073,619.55788,508.97781,815.73672a21.074,21.074,0,0,1-10.49621-2.83567L285.08412,689.762a10.48747,10.48747,0,0,1-5.29043-9.17366V639.95784Z"/>
            <path class="cls-58" d="M754.71807,558.79972,520.00766,597.02651,508.98473,793.19894A21.08452,21.08452,0,0,0,519.64552,790.36l202.927-117.16132L850.01067,599.716a10.46554,10.46554,0,0,0,5.26072-9.60862h.02V550.26313Z"/>
            <path class="cls-58" d="M520.00073,597.02,508.97781,793.19881a21.074,21.074,0,0,1-10.49621-2.83566l-213.39748-123.139a10.48747,10.48747,0,0,1-5.29043-9.17367V617.41993Z"/>
            <path class="cls-59" d="M850.01485,541.18654,636.686,418.0633a21.1619,21.1619,0,0,0-21.16285-.00061L482.41149,494.80658h0L285.08114,608.69412a10.43393,10.43393,0,0,0-4.95979,6.5147,10.75861,10.75861,0,0,0-.33065,2.64879,10.48163,10.48163,0,0,0,5.29066,9.16328l149.61336,86.37533,63.78354,36.76387a21.1469,21.1469,0,0,0,9.21292,2.79073q.68387.04425,1.36928.04419a21.14748,21.14748,0,0,0,10.58176-2.83652l330.37329-190.6464A10.58089,10.58089,0,0,0,850.01485,541.18654Z"/>
          </g>
        </g>
        <path class="cls-60" d="M870.65173,437.33431V662.30022L864.6879,665.749V437.33431a7.46641,7.46641,0,0,0-3.65565-6.41674L634.68034,297.02145a.44362.44362,0,0,0-.49788,0,.453.453,0,0,0-.24894.43v23.21119l-5.9641,3.44042V297.4515a6.453,6.453,0,0,1,9.74409-5.5567l226.3519,133.89612A13.462,13.462,0,0,1,870.65173,437.33431Z"/>
      </g>
      <path class="cls-61" d="M843.172,658.7708l-304.87338,176.134a10.18531,10.18531,0,0,0-5.08647,8.81717v13.5422L848.25637,675.251l.0104-13.53848A3.39511,3.39511,0,0,0,843.172,658.7708Z"/>
    </g>
    <g>
      <path class="cls-58" d="M630.22094,471.44808c.20736-.22369,40.53092-23.35158,40.53092-23.35158-.20983-1.40014-.54349-3.05652.35713-3.52474,1.02234-.53141,3.115.49933,4.21471,1.77929,13.98963-2.95376,20.42148-2.90316,48.25016,12.91863,36.06645,20.50531,38.25636,29.68624,46.33005,44.008,2.51022,1.19222,3.84857,1.998,3.275,3.5002-.5309,1.39047-4.0253,2.10995-5.79145,1.49588l-38.05327,21.85019c.36258,1.60826-.25043,3.76087-1.26324,4.2677-1.331.66622-3.23469-.71458-4.08581-3.3937l-.00093-.00213c-16.58945-.68751-39.17823-10.78829-54.17259-20.24385-12.46056-7.85785-33.67176-20.48824-39.38493-33.96359-2.2021-.00511-4.349-1.10569-4.43248-2.49971C625.90949,472.87058,627.979,471.68546,630.22094,471.44808Z"/>
      <path class="cls-36" d="M626.46122,461.72783c.20736-.22368,40.53092-23.35158,40.53092-23.35158-.20982-1.40013-.54349-3.05652.35714-3.52473,1.02233-.53141,3.115.49933,4.2147,1.77928,13.98963-2.95376,20.42148-2.90315,48.25016,12.91863,36.06646,20.50532,38.25636,29.68625,46.33005,44.008,2.51022,1.19222,3.84858,1.998,3.275,3.5002-.53091,1.39047-4.0253,2.10995-5.79145,1.49588l-38.05327,21.85018c.36257,1.60826-.25044,3.76088-1.26325,4.26771-1.331.66622-3.23468-.71458-4.0858-3.39371l-.00094-.00212c-16.58945-.68751-39.17822-10.78829-54.17259-20.24386-12.46056-7.85784-33.67176-20.48823-39.38493-33.96359-2.2021-.0051-4.349-1.10569-4.43248-2.4997C622.14977,463.15034,624.21932,461.96522,626.46122,461.72783Z"/>
      <path class="cls-62" d="M513.234,474.31543c63.69328,6.59072,206.767,108.81925,211.95122,130.19174s2.56023,67.12572-1.53729,71.61467C678.02225,726.1061,564.35567,786.82333,514.6501,798.91947c-17.67713,4.30184-41.42574-4.2953-56.70354-14.10849-35.02442-22.49677-184.16234-100.31977-184.16234-114.79506,0-10.75949-1.30746-35.14493,8.86619-52.13679,9.71625-16.22791,30.59418-25.11171,44.409-33.903C355.33932,565.97968,513.234,474.31543,513.234,474.31543Z"/>
    </g>
  </g>
  <g>
    <circle class="cls-37" cx="51.44097" cy="157.04608" r="51.44097"/>
    <g>
      <rect class="cls-63" x="33.97685" y="149.87836" width="11.16548" height="33.5616" transform="translate(-106.25909 76.78619) rotate(-45)"/>
      <rect class="cls-63" x="55.71563" y="135.62886" width="11.16548" height="50.25593" transform="translate(-9.02938 317.77357) rotate(-135)"/>
    </g>
  </g>
  <g>
    <g class="cls-64">
      <ellipse class="cls-65" cx="909.11596" cy="705.63226" rx="36.30951" ry="20.86753"/>
    </g>
    <g>
      <path class="cls-66" d="M909.11169,689.63143c14.34209,0,26.45876,6.34385,26.45876,13.85291,0,7.509-12.11667,13.85284-26.45876,13.85284-14.34222,0-26.4589-6.34385-26.4589-13.85284,0-7.50906,12.11668-13.85291,26.4589-13.85291m0-3.18215c-16.3703,0-29.641,7.62682-29.641,17.03506,0,9.40817,13.27075,17.035,29.641,17.035,16.37016,0,29.64092-7.62682,29.64092-17.035,0-9.40824-13.27076-17.03506-29.64092-17.03506Z"/>
      <g>
        <g>
          <path class="cls-67" d="M881.16735,647.87086v43.57446c0,8.86969,12.51123,16.06,27.94434,16.06,15.43322,0,27.94433-7.19031,27.94433-16.06V647.87086Z"/>
          <ellipse class="cls-24" cx="909.11166" cy="647.8709" rx="27.94426" ry="16.05992"/>
          <path class="cls-68" d="M933.356,655.84988c-4.82258,4.84517-13.885,8.07533-24.24871,8.07533s-19.42558-3.23016-24.24871-8.07533c3.07339-6.01166,12.76346-10.4083,24.24871-10.4083S930.28257,649.83822,933.356,655.84988Z"/>
          <path class="cls-27" d="M909.11169,634.811c13.52111,0,24.94421,5.98072,24.94421,13.05994,0,7.07916-11.4231,13.05988-24.94421,13.05988-13.52124,0-24.94434-5.98072-24.94434-13.05988,0-7.07922,11.4231-13.05994,24.94434-13.05994m0-3c-15.43323,0-27.94434,7.19025-27.94434,16.05994,0,8.86963,12.51111,16.05988,27.94434,16.05988,15.4331,0,27.94421-7.19025,27.94421-16.05988,0-8.86969-12.51111-16.05994-27.94421-16.05994Z"/>
        </g>
        <g>
          <path class="cls-69" d="M917.6932,532.75663c10.27342-3.82416,30.20007-14.81553,24.20314-21.78945S916.98784,517.08256,917.6932,532.75663Z"/>
          <path class="cls-68" d="M907.01214,653.67453c-.57,0-1.268-.94038-1.268-2.03784,0-53.61359-4.83087-88.51462-16.70718-116.823a3.37392,3.37392,0,0,1,.15429-2.793c.44333-.69143,1.09249-.55911,1.45127.29707,12.197,29.07372,17.40145,64.77243,17.40145,119.37062C908.044,652.78592,907.58213,653.67453,907.01214,653.67453Z"/>
          <path class="cls-68" d="M911.63983,653.67453c-.57,0-1.03185-.88861-1.03185-1.98607,0-50.49632,0-119.65472,13.174-151.057.35844-.85617,1.00794-.98719,1.45094-.29706a3.37267,3.37267,0,0,1,.15463,2.79295c-12.71582,30.31128-12.71582,98.65631-12.71582,148.56109C912.67169,652.78592,912.20983,653.67453,911.63983,653.67453Z"/>
          <path class="cls-68" d="M912.12494,599.46811c-.53193,0-.98335-.78613-1.02748-1.82392-1.71134-40.383-6.25718-67.83-14.30622-86.37535a3.385,3.385,0,0,1,.13-2.79814c.43794-.7044,1.08845-.589,1.45329.25037,8.33572,19.20562,13.03181,47.35959,14.77987,88.59881.04615,1.09358-.37663,2.05353-.94461,2.14174A.47247.47247,0,0,1,912.12494,599.46811Z"/>
        </g>
        <path class="cls-68" d="M911.64084,615.179a.523.523,0,0,1-.07445-.00477c-.56865-.0715-.79917-.97985-.7584-1.98439,1.28418-31.77956,9.09445-65.2926,21.9147-67.92371.56326-.11678,1.078.60058,1.1437,1.60155.06569,1.00216-.33991,1.90779-.90587,2.02338-11.70517,2.40233-19.068,34.313-20.29153,64.59344C912.63025,614.44619,912.17715,615.179,911.64084,615.179Z"/>
        <path class="cls-70" d="M918.54965,567.57668c10.16466,2.53689,31.575,2.65047,30.61627-6.08738S926.46329,554.84013,918.54965,567.57668Z"/>
        <path class="cls-71" d="M922.30147,561.02023c17.08455-4.57708,48.78844-21.93977,40.21853-34.05555S923.557,535.73609,922.30147,561.02023Z"/>
        <path class="cls-72" d="M910.18411,573.28883c13.111-5.7497,36.35769-23.516,28.02018-32.16342S908.09957,552.90426,910.18411,573.28883Z"/>
        <path class="cls-73" d="M906.38159,538.56734c-12.41352-9.28868-32.56114-33.74366-21.641-40.81312S913.59374,517.58126,906.38159,538.56734Z"/>
        <path class="cls-74" d="M900.74827,568.51959c-17.297-4.81082-49.30951-22.74048-40.49385-34.95552S899.71807,542.8435,900.74827,568.51959Z"/>
        <path class="cls-75" d="M893.75312,544.33613c-9.49519-5.478-27.31852-19.62761-20.24616-25.50814S897.05307,528.99715,893.75312,544.33613Z"/>
        <path class="cls-76" d="M912.932,528.255c12.14387-10.83615,31.84359-35.50284,19.59867-41.78006S903.1725,507.183,912.932,528.255Z"/>
        <path class="cls-77" d="M908.3878,551.58558c9.36164-8.86212,23.65646-30.992,13.95945-35.78344S900.41858,534.94462,908.3878,551.58558Z"/>
        <path class="cls-78" d="M909.93117,564.00511c-10.57167-5.39906-28.94632-21.2392-21.62312-27.98995S912.6515,547.23409,909.93117,564.00511Z"/>
      </g>
      <rect class="cls-79" x="919.10912" y="683.76469" width="37.57777" height="2.00007" transform="translate(211.69375 1590.95609) rotate(-87.42538)"/>
      <rect class="cls-80" x="879.24563" y="665.97584" width="2.00007" height="37.57777" transform="translate(-29.79555 40.12518) rotate(-2.56788)"/>
      <rect class="cls-81" x="908.11578" y="682.22127" width="2" height="37.27637"/>
      <path class="cls-82" d="M937.056,656.96059v7.77a3.429,3.429,0,0,1,0,.74c-.38,7.78-13.02,14.28-27.93994,14.28-14.92,0-27.57007-6.5-27.95007-14.28a3.44956,3.44956,0,0,1,0-.74v-7.76a11.47968,11.47968,0,0,0,0,16.27c5.16,5.86,15.74011,9.87,27.95007,9.87,12.19995,0,22.77-4.01,27.93994-9.86a11.47974,11.47974,0,0,0,0-16.29Z"/>
    </g>
  </g>
  <g>
    <g>
      <polygon class="cls-83" points="773.11 262.697 773.149 353.399 695.869 308.645 695.83 217.943 773.11 262.697"/>
      <polygon class="cls-84" points="769.803 260.788 769.834 339.416 706.281 302.587 706.25 223.959 769.803 260.788"/>
      <polygon class="cls-85" points="758.447 269.445 758.468 322.749 715.383 297.782 715.362 244.477 758.447 269.445"/>
      <path class="cls-86" d="M768.8117,345.89243l-68.61231-39.74951-.03221-80.69349L768.77951,265.199l.03219,80.69348m4.33729,7.5063-.03922-90.70188L695.8299,217.94313l.03924,90.70189L773.149,353.39873Z"/>
      <polygon class="cls-87" points="700.721 215.112 778 259.866 773.11 262.697 695.83 217.943 700.721 215.112"/>
      <polygon class="cls-88" points="778 259.866 778.023 350.577 773.149 353.399 773.11 262.697 778 259.866"/>
    </g>
    <g>
      <polygon class="cls-89" points="838.358 333.334 838.398 392.036 785.367 361.282 785.327 302.58 838.358 333.334"/>
      <polygon class="cls-90" points="835.052 331.425 835.083 378.053 795.778 355.225 795.747 308.596 835.052 331.425"/>
      <path class="cls-91" d="M834.06036,384.5295,789.69676,358.78l-.0322-48.69349L834.02818,335.836l.03218,48.69348m4.33729,7.5063-.03922-58.70188L785.32727,302.5802l.03924,58.70189,53.03114,30.75371Z"/>
      <polygon class="cls-92" points="790.218 299.749 843.249 330.503 838.358 333.334 785.327 302.58 790.218 299.749"/>
      <polygon class="cls-93" points="843.249 330.503 843.272 389.214 838.398 392.036 838.358 333.334 843.249 330.503"/>
    </g>
  </g>
  <path class="cls-48" d="M413.35724,424.25489S383.6038,464.04213,380.157,482.04213c-3.07172,16.04121,1.36349,63.6412,1.36349,63.6412l12.645,1.0398,4.97022-59.064,28.59575-33.44681Z"/>
  <path class="cls-94" d="M417.00805,419.8381a293.80173,293.80173,0,0,0-22.59351,30.45322c-9.66181,15.0274,14.99688,28.82917,23.16709,19.38236l14.06472-17.24857C445.22039,432.14319,423.62571,411.98558,417.00805,419.8381Z"/>
  <path class="cls-48" d="M381.52048,545.68333c-6.62706,9.45-9.54367,22.99022-9.23065,26.23s9.32543,6.423,13.55624,3.23976,8.95767-14.4718,8.95767-14.4718a52.48126,52.48126,0,0,1,5.42093,3.41525c1.7326,1.37955,4.23819-.26552,3.31407-3.01975s-9.37325-14.35364-9.37325-14.35364Z"/>
  <path class="cls-48" d="M533.82848,473.40715s8.69835-1.26666,12.57829-.92283,11.31032,3.0022,13.45021,5.78841,1.50805,7.49814-1.392,7.9-17.90828,0-17.90828,0,2.21884,4.17195,2.94386,5.767-1.46713,2.64742-3.66264,1.42521-11.11355-10.67016-11.11355-10.67016Z"/>
  <path class="cls-48" d="M510.428,445.46294l-3.30029-9.5022c-1.67383,6.907-11.73877,12.86475-17.78931,11.37256,2.35889,4.06055,4.68457,7.88672,6.38477,10.2832,5.13842,9.77271,33.00122,25.07813,33.00122,25.07813l5.80053-9.38428Z"/>
</svg>
