<svg id="Layer_1" data-name="Layer 1" xmlns="http://www.w3.org/2000/svg" xmlns:xlink="http://www.w3.org/1999/xlink" viewBox="0 0 1000 1000">
  <defs>
    <style>
      .cls-1 {
        fill: url(#linear-gradient);
      }

      .cls-2 {
        fill: #b8cbd8;
      }

      .cls-3 {
        fill: url(#linear-gradient-2);
      }

      .cls-4 {
        fill: url(#linear-gradient-3);
      }

      .cls-5 {
        fill: url(#linear-gradient-4);
      }

      .cls-6 {
        fill: url(#linear-gradient-5);
      }

      .cls-7 {
        fill: url(#linear-gradient-6);
      }

      .cls-8 {
        fill: url(#linear-gradient-7);
      }

      .cls-9 {
        fill: url(#linear-gradient-8);
      }

      .cls-10 {
        fill: #fff;
      }

      .cls-11, .cls-54, .cls-86, .cls-88 {
        opacity: 0.5;
      }

      .cls-12 {
        fill: url(#linear-gradient-9);
      }

      .cls-13 {
        fill: url(#linear-gradient-10);
      }

      .cls-14 {
        fill: url(#linear-gradient-11);
      }

      .cls-15 {
        fill: url(#linear-gradient-12);
      }

      .cls-16 {
        fill: url(#linear-gradient-13);
      }

      .cls-17 {
        fill: url(#linear-gradient-14);
      }

      .cls-18 {
        fill: url(#linear-gradient-15);
      }

      .cls-19 {
        fill: url(#linear-gradient-16);
      }

      .cls-20 {
        fill: url(#linear-gradient-17);
      }

      .cls-21 {
        fill: url(#linear-gradient-18);
      }

      .cls-22 {
        fill: url(#linear-gradient-19);
      }

      .cls-23 {
        fill: url(#linear-gradient-20);
      }

      .cls-24 {
        fill: url(#linear-gradient-21);
      }

      .cls-25 {
        fill: url(#linear-gradient-22);
      }

      .cls-26 {
        fill: url(#linear-gradient-23);
      }

      .cls-27 {
        fill: url(#linear-gradient-24);
      }

      .cls-28 {
        fill: url(#linear-gradient-25);
      }

      .cls-29 {
        fill: #ffcb48;
      }

      .cls-30 {
        fill: url(#linear-gradient-26);
      }

      .cls-31 {
        fill: url(#linear-gradient-27);
      }

      .cls-32 {
        fill: url(#linear-gradient-28);
      }

      .cls-33 {
        fill: #725a56;
      }

      .cls-34 {
        fill: url(#linear-gradient-29);
      }

      .cls-35 {
        fill: url(#linear-gradient-30);
      }

      .cls-36 {
        fill: url(#linear-gradient-31);
      }

      .cls-37 {
        fill: url(#linear-gradient-32);
      }

      .cls-38 {
        fill: #e58630;
      }

      .cls-39 {
        fill: url(#linear-gradient-33);
      }

      .cls-40 {
        fill: #333d44;
      }

      .cls-41 {
        fill: url(#linear-gradient-34);
      }

      .cls-42 {
        fill: url(#linear-gradient-35);
      }

      .cls-43 {
        fill: url(#linear-gradient-36);
      }

      .cls-44 {
        fill: #a05028;
      }

      .cls-45 {
        fill: url(#linear-gradient-37);
      }

      .cls-46 {
        fill: url(#linear-gradient-38);
      }

      .cls-47 {
        fill: url(#linear-gradient-39);
      }

      .cls-48 {
        fill: url(#linear-gradient-40);
      }

      .cls-49 {
        fill: url(#linear-gradient-41);
      }

      .cls-50 {
        fill: url(#linear-gradient-42);
      }

      .cls-51 {
        fill: url(#linear-gradient-43);
      }

      .cls-52 {
        fill: url(#linear-gradient-44);
      }

      .cls-53 {
        fill: url(#linear-gradient-45);
      }

      .cls-54 {
        fill: url(#linear-gradient-46);
      }

      .cls-55 {
        fill: url(#linear-gradient-47);
      }

      .cls-56 {
        fill: url(#linear-gradient-48);
      }

      .cls-57 {
        fill: url(#linear-gradient-49);
      }

      .cls-58 {
        fill: url(#linear-gradient-50);
      }

      .cls-59 {
        fill: url(#linear-gradient-51);
      }

      .cls-60 {
        fill: url(#linear-gradient-52);
      }

      .cls-61 {
        fill: #e4f0f4;
      }

      .cls-62 {
        fill: url(#linear-gradient-53);
      }

      .cls-63 {
        fill: url(#linear-gradient-54);
      }

      .cls-64 {
        fill: #d7f3ff;
      }

      .cls-65 {
        fill: url(#linear-gradient-55);
      }

      .cls-66 {
        fill: url(#linear-gradient-56);
      }

      .cls-67 {
        fill: #ef8e73;
      }

      .cls-68 {
        fill: #e2786d;
      }

      .cls-69 {
        fill: #ffbda3;
      }

      .cls-70 {
        fill: url(#linear-gradient-57);
      }

      .cls-71, .cls-72 {
        fill: none;
        stroke-miterlimit: 10;
        stroke-width: 5px;
      }

      .cls-71 {
        stroke: url(#linear-gradient-58);
      }

      .cls-72 {
        stroke: url(#linear-gradient-59);
      }

      .cls-73 {
        fill: url(#linear-gradient-60);
      }

      .cls-74 {
        fill: url(#linear-gradient-61);
      }

      .cls-75 {
        fill: url(#linear-gradient-62);
      }

      .cls-76 {
        fill: url(#linear-gradient-63);
      }

      .cls-77 {
        fill: #efefef;
      }

      .cls-78 {
        fill: url(#linear-gradient-64);
      }

      .cls-79 {
        fill: #ed8324;
      }

      .cls-80 {
        fill: url(#linear-gradient-65);
      }

      .cls-81 {
        fill: #724133;
      }

      .cls-82 {
        fill: url(#linear-gradient-66);
      }

      .cls-83 {
        fill: url(#linear-gradient-67);
      }

      .cls-84 {
        fill: url(#linear-gradient-68);
      }

      .cls-85 {
        fill: url(#linear-gradient-69);
      }

      .cls-86 {
        fill: url(#linear-gradient-70);
      }

      .cls-87 {
        fill: url(#linear-gradient-71);
      }

      .cls-88 {
        fill: url(#linear-gradient-72);
      }

      .cls-89 {
        fill: #ffb133;
      }

      .cls-90 {
        fill: #ff9433;
      }

      .cls-91 {
        opacity: 0.6;
      }

      .cls-92 {
        fill: #9bb0c4;
      }

      .cls-93 {
        fill: url(#linear-gradient-73);
      }

      .cls-94 {
        fill: url(#linear-gradient-74);
      }

      .cls-95 {
        fill: url(#linear-gradient-75);
      }

      .cls-96 {
        fill: url(#linear-gradient-76);
      }

      .cls-97 {
        fill: url(#linear-gradient-77);
      }

      .cls-98 {
        fill: url(#linear-gradient-78);
      }

      .cls-99 {
        fill: url(#linear-gradient-79);
      }

      .cls-100 {
        fill: url(#linear-gradient-80);
      }

      .cls-101 {
        fill: url(#linear-gradient-81);
      }

      .cls-102 {
        fill: url(#linear-gradient-82);
      }

      .cls-103 {
        fill: url(#linear-gradient-83);
      }

      .cls-104 {
        fill: url(#linear-gradient-84);
      }

      .cls-105 {
        fill: url(#linear-gradient-85);
      }

      .cls-106 {
        fill: url(#linear-gradient-86);
      }

      .cls-107 {
        fill: url(#linear-gradient-87);
      }

      .cls-108 {
        fill: url(#linear-gradient-88);
      }
    </style>
    <linearGradient id="linear-gradient" x1="499.99188" y1="385.55996" x2="921.27857" y2="385.55996" gradientUnits="userSpaceOnUse">
      <stop offset="0" stop-color="#f0f9ff"/>
      <stop offset="1" stop-color="#c3d6e6"/>
    </linearGradient>
    <linearGradient id="linear-gradient-2" x1="78.72143" y1="711.89267" x2="921.27857" y2="711.89267" gradientUnits="userSpaceOnUse">
      <stop offset="0" stop-color="#dae9f2"/>
      <stop offset="0.99337" stop-color="#c4d5e6"/>
    </linearGradient>
    <linearGradient id="linear-gradient-3" x1="-2483.60315" y1="255.22757" x2="-2387.37042" y2="255.22757" gradientTransform="matrix(-1, 0, 0, 1, -1999.96636, -3.00245)" gradientUnits="userSpaceOnUse">
      <stop offset="0" stop-color="#435466"/>
      <stop offset="1" stop-color="#62778c"/>
    </linearGradient>
    <linearGradient id="linear-gradient-4" x1="-2468.82229" y1="168.36519" x2="-2391.49861" y2="341.63797" gradientTransform="matrix(-1, 0, 0, 1, -1999.96636, -3.00245)" gradientUnits="userSpaceOnUse">
      <stop offset="0" stop-color="#fff"/>
      <stop offset="0.98888" stop-color="#e6edf2"/>
    </linearGradient>
    <linearGradient id="linear-gradient-5" x1="-2697.47066" y1="16.13912" x2="-2353.98207" y2="329.60937" gradientTransform="matrix(-1, 0, 0, 1, -1999.96636, -3.00245)" gradientUnits="userSpaceOnUse">
      <stop offset="0" stop-color="#849bb2"/>
      <stop offset="1" stop-color="#5b6f82"/>
    </linearGradient>
    <linearGradient id="linear-gradient-6" x1="-2693.14552" y1="4.68167" x2="-2370.55183" y2="294.31882" gradientTransform="matrix(-1, 0, 0, 1, -1999.96636, -3.00245)" gradientUnits="userSpaceOnUse">
      <stop offset="0" stop-color="#62778c"/>
      <stop offset="1" stop-color="#435466"/>
    </linearGradient>
    <linearGradient id="linear-gradient-7" x1="-2666.78675" y1="-29.55798" x2="-2344.45909" y2="259.84033" xlink:href="#linear-gradient-6"/>
    <linearGradient id="linear-gradient-8" x1="455.79877" y1="422.95776" x2="392.47962" y2="535.29819" gradientUnits="userSpaceOnUse">
      <stop offset="0" stop-color="#e6f6ff"/>
      <stop offset="0.99337" stop-color="#c4d5e6"/>
    </linearGradient>
    <linearGradient id="linear-gradient-9" x1="519.67237" y1="382.44382" x2="458.90641" y2="551.4651" xlink:href="#linear-gradient-2"/>
    <linearGradient id="linear-gradient-10" x1="551.94265" y1="394.04552" x2="491.17669" y2="563.0668" xlink:href="#linear-gradient-2"/>
    <linearGradient id="linear-gradient-11" x1="383.9373" y1="406.01227" x2="560.53197" y2="406.01227" gradientUnits="userSpaceOnUse">
      <stop offset="0" stop-color="#62788c"/>
      <stop offset="1" stop-color="#526575"/>
    </linearGradient>
    <linearGradient id="linear-gradient-12" x1="383.93734" y1="381.11418" x2="560.53203" y2="381.11418" gradientTransform="matrix(1, 0, 0, 1, 0, 0)" xlink:href="#linear-gradient-5"/>
    <linearGradient id="linear-gradient-13" x1="520.70323" y1="351.53519" x2="408.02238" y2="420.30115" gradientUnits="userSpaceOnUse">
      <stop offset="0" stop-color="#fff"/>
      <stop offset="0.99337" stop-color="#c4d5e6"/>
    </linearGradient>
    <linearGradient id="linear-gradient-14" x1="504.95496" y1="374.64889" x2="438.57198" y2="420.60634" xlink:href="#linear-gradient-2"/>
    <linearGradient id="linear-gradient-15" x1="467.45541" y1="398.39882" x2="481.8014" y2="398.39882" gradientTransform="matrix(1, 0, 0, 1, 0, 0)" xlink:href="#linear-gradient-5"/>
    <linearGradient id="linear-gradient-16" x1="449.62487" y1="348.90877" x2="461.47862" y2="348.90877" gradientUnits="userSpaceOnUse">
      <stop offset="0" stop-color="#3e4c59"/>
      <stop offset="1" stop-color="#293440"/>
    </linearGradient>
    <linearGradient id="linear-gradient-17" x1="449.57502" y1="342.62971" x2="461.52231" y2="342.62971" gradientTransform="matrix(1, 0, 0, 1, 0, 0)" xlink:href="#linear-gradient-6"/>
    <linearGradient id="linear-gradient-18" x1="441.84309" y1="350.2891" x2="469.25424" y2="350.2891" gradientUnits="userSpaceOnUse">
      <stop offset="0" stop-color="#5b6f82"/>
      <stop offset="1" stop-color="#849bb2"/>
    </linearGradient>
    <linearGradient id="linear-gradient-19" x1="428.88295" y1="360.41646" x2="440.7367" y2="360.41646" xlink:href="#linear-gradient-16"/>
    <linearGradient id="linear-gradient-20" x1="428.8331" y1="354.1374" x2="440.78039" y2="354.1374" gradientTransform="matrix(1, 0, 0, 1, 0, 0)" xlink:href="#linear-gradient-6"/>
    <linearGradient id="linear-gradient-21" x1="-258.64728" y1="13470.96627" x2="-164.5724" y2="13551.60188" gradientTransform="translate(-11300.76715 7013.06444) rotate(-120)" xlink:href="#linear-gradient-5"/>
    <linearGradient id="linear-gradient-22" x1="-274.73532" y1="13469.47299" x2="-180.66044" y2="13550.1086" gradientTransform="translate(-11300.76715 7013.06444) rotate(-120)" xlink:href="#linear-gradient-5"/>
    <linearGradient id="linear-gradient-23" x1="-4279.42773" y1="327.84701" x2="-4268.75927" y2="336.91309" gradientTransform="matrix(-1, 0, 0, 1, -3781.79621, 0)" xlink:href="#linear-gradient-3"/>
    <linearGradient id="linear-gradient-24" x1="485.0581" y1="327.51104" x2="500.03015" y2="327.51104" xlink:href="#linear-gradient-16"/>
    <linearGradient id="linear-gradient-25" x1="485.7978" y1="296.78941" x2="502.13822" y2="333.8958" gradientUnits="userSpaceOnUse">
      <stop offset="0.00005" stop-color="#ffcb48"/>
      <stop offset="1" stop-color="#e68e2b"/>
    </linearGradient>
    <linearGradient id="linear-gradient-26" x1="473.48134" y1="327.45126" x2="489.99197" y2="347.45126" xlink:href="#linear-gradient-25"/>
    <linearGradient id="linear-gradient-27" x1="-3236.49786" y1="412.4683" x2="-3200.87809" y2="412.4683" gradientTransform="translate(4026.08912)" xlink:href="#linear-gradient-6"/>
    <linearGradient id="linear-gradient-28" x1="652.72266" y1="314.91111" x2="708.25095" y2="314.91111" xlink:href="#linear-gradient-8"/>
    <linearGradient id="linear-gradient-29" x1="665.11119" y1="246.14373" x2="697.11119" y2="295.16501" xlink:href="#linear-gradient-25"/>
    <linearGradient id="linear-gradient-30" x1="690.90997" y1="335.13715" x2="729.27296" y2="335.13715" xlink:href="#linear-gradient-8"/>
    <linearGradient id="linear-gradient-31" x1="701.72372" y1="287.62291" x2="721.29819" y2="324.72929" gradientUnits="userSpaceOnUse">
      <stop offset="0" stop-color="#f2883c"/>
      <stop offset="0.16716" stop-color="#e97d35"/>
      <stop offset="0.67368" stop-color="#d26124"/>
      <stop offset="0.96784" stop-color="#c9571e"/>
    </linearGradient>
    <linearGradient id="linear-gradient-32" x1="729.3086" y1="366.99958" x2="791.58167" y2="366.99958" xlink:href="#linear-gradient-25"/>
    <linearGradient id="linear-gradient-33" x1="729.33213" y1="358.54985" x2="818.04352" y2="358.54985" xlink:href="#linear-gradient-31"/>
    <linearGradient id="linear-gradient-34" x1="2841.46443" y1="343.28243" x2="2758.33147" y2="593.26676" gradientTransform="matrix(-1, 0, 0, 1, 2955.27224, 0)" xlink:href="#linear-gradient-6"/>
    <linearGradient id="linear-gradient-35" x1="1707.42033" y1="312.35187" x2="1707.42033" y2="589.67119" gradientTransform="matrix(-1, 0, 0, 1, 1859.44246, 0)" xlink:href="#linear-gradient-3"/>
    <linearGradient id="linear-gradient-36" x1="148.72418" y1="320.8613" x2="180.54992" y2="385.88457" xlink:href="#linear-gradient-25"/>
    <linearGradient id="linear-gradient-37" x1="120.02889" y1="309.45698" x2="187.14328" y2="309.45698" gradientTransform="matrix(1, 0, 0, 1, 0, 0)" xlink:href="#linear-gradient-6"/>
    <linearGradient id="linear-gradient-38" x1="123.51465" y1="313.25251" x2="187.14328" y2="313.25251" gradientTransform="matrix(1, 0, 0, 1, 0, 0)" xlink:href="#linear-gradient-6"/>
    <linearGradient id="linear-gradient-39" x1="120.02889" y1="330.60928" x2="123.51465" y2="330.60928" gradientTransform="matrix(1, 0, 0, 1, 0, 0)" xlink:href="#linear-gradient-5"/>
    <linearGradient id="linear-gradient-40" x1="2682.83591" y1="251.94931" x2="2599.70295" y2="501.93364" gradientTransform="matrix(-1, 0, 0, 1, 2955.27224, 0)" xlink:href="#linear-gradient-6"/>
    <linearGradient id="linear-gradient-41" x1="1548.7918" y1="221.01875" x2="1548.7918" y2="498.33807" gradientTransform="matrix(-1, 0, 0, 1, 1859.44246, 0)" xlink:href="#linear-gradient-3"/>
    <linearGradient id="linear-gradient-42" x1="307.3527" y1="229.52818" x2="339.17844" y2="294.55145" xlink:href="#linear-gradient-25"/>
    <linearGradient id="linear-gradient-43" x1="278.65741" y1="218.12386" x2="345.7718" y2="218.12386" gradientTransform="matrix(1, 0, 0, 1, 0, 0)" xlink:href="#linear-gradient-6"/>
    <linearGradient id="linear-gradient-44" x1="282.14318" y1="221.91939" x2="345.7718" y2="221.91939" gradientTransform="matrix(1, 0, 0, 1, 0, 0)" xlink:href="#linear-gradient-6"/>
    <linearGradient id="linear-gradient-45" x1="278.65741" y1="239.27616" x2="282.14318" y2="239.27616" gradientTransform="matrix(1, 0, 0, 1, 0, 0)" xlink:href="#linear-gradient-5"/>
    <linearGradient id="linear-gradient-46" x1="432.98436" y1="672.84898" x2="1066.43286" y2="841.12549" gradientUnits="userSpaceOnUse">
      <stop offset="0" stop-color="#96b1cc"/>
      <stop offset="1" stop-color="#748ea6"/>
    </linearGradient>
    <linearGradient id="linear-gradient-47" x1="569.19512" y1="751.6099" x2="750.51324" y2="751.6099" gradientUnits="userSpaceOnUse">
      <stop offset="0.00005" stop-color="#ffb348"/>
      <stop offset="1" stop-color="#e68e2b"/>
    </linearGradient>
    <linearGradient id="linear-gradient-48" x1="435.42892" y1="772.96799" x2="453.54942" y2="772.96799" gradientUnits="userSpaceOnUse">
      <stop offset="0" stop-color="#526575"/>
      <stop offset="1" stop-color="#62788c"/>
    </linearGradient>
    <linearGradient id="linear-gradient-49" x1="688.47604" y1="626.85355" x2="706.59654" y2="626.85355" xlink:href="#linear-gradient-48"/>
    <linearGradient id="linear-gradient-50" x1="341.70322" y1="720.50775" x2="359.82372" y2="720.50775" xlink:href="#linear-gradient-48"/>
    <linearGradient id="linear-gradient-51" x1="473.95384" y1="605.22125" x2="735.91128" y2="750.75316" xlink:href="#linear-gradient-2"/>
    <linearGradient id="linear-gradient-52" x1="359.91831" y1="646.21148" x2="559.8332" y2="881.36041" xlink:href="#linear-gradient-8"/>
    <linearGradient id="linear-gradient-53" x1="310.46789" y1="571.62859" x2="738.87495" y2="571.62859" xlink:href="#linear-gradient-2"/>
    <linearGradient id="linear-gradient-54" x1="353.28389" y1="628.77416" x2="721.96475" y2="538.90181" gradientUnits="userSpaceOnUse">
      <stop offset="0" stop-color="#aedbf4"/>
      <stop offset="0.99337" stop-color="#86cdf4"/>
    </linearGradient>
    <linearGradient id="linear-gradient-55" x1="621.47914" y1="427.96566" x2="651.6068" y2="556.13587" gradientUnits="userSpaceOnUse">
      <stop offset="0" stop-color="#75413e"/>
      <stop offset="1" stop-color="#592f2f"/>
    </linearGradient>
    <linearGradient id="linear-gradient-56" x1="650.16312" y1="421.22321" x2="680.29078" y2="549.39342" xlink:href="#linear-gradient-55"/>
    <linearGradient id="linear-gradient-57" x1="643.13065" y1="422.87626" x2="673.25831" y2="551.04648" xlink:href="#linear-gradient-55"/>
    <linearGradient id="linear-gradient-58" x1="9185.03563" y1="690.43616" x2="9251.83648" y2="720.95605" gradientTransform="translate(-8377.35491)" xlink:href="#linear-gradient-16"/>
    <linearGradient id="linear-gradient-59" x1="9060.86039" y1="611.03089" x2="9136.3432" y2="645.51739" gradientTransform="translate(-8377.35491)" xlink:href="#linear-gradient-16"/>
    <linearGradient id="linear-gradient-60" x1="914.11463" y1="542.58239" x2="1114.58763" y2="683.76055" gradientTransform="translate(-242.3977)" xlink:href="#linear-gradient-6"/>
    <linearGradient id="linear-gradient-61" x1="947.79709" y1="577.20594" x2="1135.96817" y2="781.41783" gradientTransform="translate(-242.3977)" xlink:href="#linear-gradient-11"/>
    <linearGradient id="linear-gradient-62" x1="927.78528" y1="629.43085" x2="1113.85185" y2="629.43085" gradientTransform="translate(-242.3977)" xlink:href="#linear-gradient-48"/>
    <linearGradient id="linear-gradient-63" x1="927.78523" y1="608.66507" x2="1113.85181" y2="608.66507" gradientTransform="translate(-242.3977)" xlink:href="#linear-gradient-46"/>
    <linearGradient id="linear-gradient-64" x1="-2397.96954" y1="626.34914" x2="-2321.73756" y2="626.34914" gradientTransform="matrix(-1, 0, 0, 1, -1543.17943, 0)" xlink:href="#linear-gradient-25"/>
    <linearGradient id="linear-gradient-65" x1="-2397.96954" y1="616.00619" x2="-2321.73756" y2="616.00619" gradientTransform="matrix(-1, 0, 0, 1, -1543.17943, 0)" xlink:href="#linear-gradient-25"/>
    <linearGradient id="linear-gradient-66" x1="7608.96237" y1="514.51826" x2="7575.83354" y2="544.29833" gradientTransform="translate(-6792.75494)" xlink:href="#linear-gradient-31"/>
    <linearGradient id="linear-gradient-67" x1="7590.50735" y1="498.55452" x2="7574.83993" y2="525.94262" gradientTransform="translate(-6792.75494)" xlink:href="#linear-gradient-31"/>
    <linearGradient id="linear-gradient-68" x1="7543.32627" y1="537.30986" x2="7569.51838" y2="548.19334" gradientTransform="translate(-6792.75494)" xlink:href="#linear-gradient-31"/>
    <linearGradient id="linear-gradient-69" x1="7561.12056" y1="516.4974" x2="7574.27642" y2="540.29753" gradientTransform="translate(-6792.75494)" xlink:href="#linear-gradient-31"/>
    <linearGradient id="linear-gradient-70" x1="567.57201" y1="658.94262" x2="519.57201" y2="475.11283" gradientUnits="userSpaceOnUse">
      <stop offset="0" stop-color="#fff"/>
      <stop offset="0.94545" stop-color="#fff" stop-opacity="0"/>
    </linearGradient>
    <linearGradient id="linear-gradient-71" x1="727.43759" y1="553.36623" x2="743.77801" y2="590.47261" xlink:href="#linear-gradient-25"/>
    <linearGradient id="linear-gradient-72" x1="734.52134" y1="507.61482" x2="734.52134" y2="552.68516" gradientUnits="userSpaceOnUse">
      <stop offset="0.05455" stop-color="#fff" stop-opacity="0"/>
      <stop offset="1" stop-color="#fff"/>
    </linearGradient>
    <linearGradient id="linear-gradient-73" x1="224.45207" y1="630.05326" x2="283.73404" y2="630.05326" xlink:href="#linear-gradient-16"/>
    <linearGradient id="linear-gradient-74" x1="228.64625" y1="573.94492" x2="288.0505" y2="631.13641" xlink:href="#linear-gradient-25"/>
    <linearGradient id="linear-gradient-75" x1="-8747.65399" y1="2030.95326" x2="-8714.9582" y2="2044.53919" gradientTransform="matrix(-0.94085, 0.33882, 0.33882, 0.94085, -8631.74023, 1488.79291)" xlink:href="#linear-gradient-31"/>
    <linearGradient id="linear-gradient-76" x1="87.00021" y1="-1248.91961" x2="62.36639" y2="-1233.24354" gradientTransform="translate(-247.30616 1617.17698) rotate(21.53204)" xlink:href="#linear-gradient-31"/>
    <linearGradient id="linear-gradient-77" x1="306.95971" y1="450.63857" x2="265.60475" y2="487.81324" xlink:href="#linear-gradient-31"/>
    <linearGradient id="linear-gradient-78" x1="-94.81795" y1="1711.41281" x2="-128.48074" y2="1732.83459" gradientTransform="translate(-105.00148 -1201.45861) rotate(-16.16083)" xlink:href="#linear-gradient-31"/>
    <linearGradient id="linear-gradient-79" x1="231.21886" y1="423.21435" x2="251.5231" y2="462.18057" xlink:href="#linear-gradient-31"/>
    <linearGradient id="linear-gradient-80" x1="-227.00987" y1="2111.725" x2="-203.49772" y2="2156.84759" gradientTransform="translate(-347.89592 -1591.98194) rotate(-21.26361)" xlink:href="#linear-gradient-31"/>
    <linearGradient id="linear-gradient-81" x1="-217.52614" y1="-1875.73931" x2="-184.83034" y2="-1862.15339" gradientTransform="matrix(0.87147, 0.49044, -0.49044, 0.87147, -511.33631, 2184.97509)" xlink:href="#linear-gradient-31"/>
    <linearGradient id="linear-gradient-82" x1="61.45708" y1="822.16495" x2="40.08886" y2="859.51854" gradientTransform="matrix(1.03159, -0.09458, 0.10022, 1.01436, 129.54733, -415.61395)" xlink:href="#linear-gradient-31"/>
    <linearGradient id="linear-gradient-83" x1="-810.11748" y1="3096.80941" x2="-840.42871" y2="3116.09837" gradientTransform="translate(-895.07634 -2539.21997) rotate(-35.91139)" xlink:href="#linear-gradient-31"/>
    <linearGradient id="linear-gradient-84" x1="-8721.69086" y1="-1042.47606" x2="-8749.60269" y2="-1024.71398" gradientTransform="matrix(-0.94244, -0.33439, -0.33439, 0.94244, -8332.56991, -1470.39748)" xlink:href="#linear-gradient-31"/>
    <linearGradient id="linear-gradient-85" x1="987.92679" y1="611.33368" x2="991.60843" y2="611.33368" gradientTransform="matrix(-0.04492, -0.99899, -0.99899, 0.04492, 938.05678, 1572.64084)" xlink:href="#linear-gradient-16"/>
    <linearGradient id="linear-gradient-86" x1="223.38627" y1="611.33368" x2="227.06791" y2="611.33368" gradientTransform="translate(27.61569 -9.47696) rotate(2.56788)" xlink:href="#linear-gradient-16"/>
    <linearGradient id="linear-gradient-87" x1="253.09721" y1="627.42841" x2="255.09721" y2="627.42841" xlink:href="#linear-gradient-16"/>
    <linearGradient id="linear-gradient-88" x1="222.76737" y1="596.60456" x2="285.42741" y2="596.60456" xlink:href="#linear-gradient-16"/>
  </defs>
  <g>
    <g>
      <polygon class="cls-1" points="499.992 59.227 921.279 302.448 921.279 711.893 499.992 468.649 499.992 59.227"/>
      <polygon class="cls-2" points="500.008 59.227 78.721 302.448 78.721 711.893 500.008 468.649 500.008 59.227"/>
    </g>
    <path class="cls-3" d="M85.9912,724.49667l392.2106,226.4329a43.61718,43.61718,0,0,0,43.61686-.00063l392.1905-226.4365a14.53907,14.53907,0,0,0,.00018-25.18216L521.80168,472.8567a43.61723,43.61723,0,0,0-43.62.00054L85.99035,699.31448A14.53907,14.53907,0,0,0,85.9912,724.49667Z"/>
  </g>
  <g>
    <polygon class="cls-4" points="387.404 206.743 483.637 151.119 483.637 297.708 387.404 353.331 387.404 206.743"/>
    <polygon class="cls-5" points="389.433 213.417 470.956 166.3 470.956 290.581 389.433 337.699 389.433 213.417"/>
    <path class="cls-6" d="M477.54,161.68737V294.19055l-84.03909,48.57233V210.25967L477.54,161.68737m6.09681-10.56858-96.23271,55.62372V353.33146l96.23271-55.62376V151.11879Z"/>
    <polygon class="cls-7" points="382.224 350.34 382.224 203.751 387.404 206.743 387.404 353.331 382.224 350.34"/>
    <polygon class="cls-8" points="382.224 203.751 478.48 148.141 483.637 151.119 387.404 206.743 382.224 203.751"/>
  </g>
  <g>
    <g>
      <path class="cls-9" d="M387.8889,401.07578v125.5168A3.30648,3.30648,0,0,0,389.54,529.4683l62.34509,36.03655a6.6138,6.6138,0,0,0,3.316.88063V401.07578Z"/>
      <path class="cls-10" d="M455.201,401.07578v165.3097a6.61408,6.61408,0,0,0,3.31629-.88063l96.40309-55.70037a3.2917,3.2917,0,0,0,1.665-2.87572V381.412Z"/>
      <g class="cls-11">
        <polygon class="cls-12" points="504.022 423.858 461.777 448.253 461.777 545.589 504.022 521.202 504.022 423.858"/>
        <polygon class="cls-13" points="507.764 421.697 507.764 519.042 550.009 494.654 550.009 397.301 507.764 421.697"/>
      </g>
      <path class="cls-14" d="M560.532,371.28227v7.66314a3.47481,3.47481,0,0,1-1.752,3.03657L458.70973,439.80046a7.01525,7.01525,0,0,1-7.022,0L385.6893,401.6458a3.47479,3.47479,0,0,1-1.752-3.03657v-7.66314Z"/>
      <path class="cls-15" d="M385.68934,387.90953,485.7597,330.0911a7.015,7.015,0,0,1,7.02191,0L558.78,368.24571a3.50748,3.50748,0,0,1,0,6.07312L458.70967,432.13726a7.015,7.015,0,0,1-7.02191,0l-65.99842-38.15461A3.50748,3.50748,0,0,1,385.68934,387.90953Z"/>
    </g>
    <g>
      <g>
        <path class="cls-16" d="M525.89517,362.56477l-21.52512-12.42755a38.68473,38.68473,0,0,0-38.68413-.00036l-47.11152,27.192a12.89491,12.89491,0,0,0-.00021,22.33475l21.52513,12.42755a38.68473,38.68473,0,0,0,38.68413.00036l47.11151-27.192A12.8949,12.8949,0,0,0,525.89517,362.56477Z"/>
        <path class="cls-17" d="M465.68585,382.51133l-38.41672,22.1723,12.83024,7.40751a38.68472,38.68472,0,0,0,38.68407.00039l38.41686-22.17242-12.83024-7.40751A38.68469,38.68469,0,0,0,465.68585,382.51133Z"/>
        <ellipse class="cls-18" cx="474.6284" cy="398.39882" rx="7.173" ry="4.13485"/>
      </g>
      <g>
        <g>
          <path class="cls-19" d="M461.47862,343.04674l-11.85375.02827,1.50039,9.27858c.12714,1.34681,2.062,2.41721,4.43709,2.41721,2.37525,0,4.31-1.0704,4.43709-2.41721Z"/>
          <ellipse class="cls-20" cx="455.54866" cy="342.62971" rx="5.97365" ry="3.43313"/>
        </g>
        <path class="cls-21" d="M446.16192,340.367a8.55215,8.55215,0,0,1,8.6369,0l5.46641,3.1568a18.03322,18.03322,0,0,1,8.989,15.57258h0c0,1.26213-1.775,2.28528-3.96445,2.28528s-3.96444-1.02315-3.96444-2.28528h0A10.07982,10.07982,0,0,0,456.3,350.391l-5.46641-3.1568a.708.708,0,0,0-1.06165.61295V357.694c0,1.26213-1.775,2.28527-3.96444,2.28527s-3.96444-1.02314-3.96444-2.28527v-9.84685A8.54943,8.54943,0,0,1,446.16192,340.367Z"/>
        <g>
          <path class="cls-22" d="M440.7367,354.55443l-11.85375.02827,1.5004,9.27858c.12714,1.34681,2.062,2.41721,4.43709,2.41721,2.37524,0,4.30995-1.0704,4.43709-2.41721Z"/>
          <ellipse class="cls-23" cx="434.80674" cy="354.1374" rx="5.97365" ry="3.43313"/>
        </g>
      </g>
    </g>
  </g>
  <g>
    <polygon class="cls-24" points="498.283 462.701 498.276 480.997 502.851 478.349 502.864 460.056 498.283 462.701"/>
    <polygon class="cls-25" points="508.93 456.566 508.922 474.863 513.498 472.215 513.511 453.922 508.93 456.566"/>
  </g>
  <g>
    <path class="cls-26" d="M485.0581,335.47971c0,2.40658,3.35164,4.35747,7.48589,4.35747,4.13457,0,7.48588-1.95089,7.48588-4.35747V327.511H485.0581Z"/>
    <ellipse class="cls-27" cx="492.54413" cy="327.51104" rx="7.48603" ry="4.35766"/>
    <path class="cls-28" d="M485.05824,326.31623c0,2.40658,3.35164,4.35747,7.48589,4.35747,4.13457,0,7.48588-1.95089,7.48588-4.35747V297.34836H485.05824Z"/>
    <ellipse class="cls-29" cx="492.54413" cy="297.36355" rx="7.48603" ry="4.35766"/>
  </g>
  <g>
    <path class="cls-30" d="M470.95566,327.80566l.003,12.23734a1.0683,1.0683,0,0,0,.53825.90995l6.18963,3.56779a3.24558,3.24558,0,0,0,3.24361-.00111l5.72768-3.30688a1.06127,1.06127,0,0,0,.52841-.8367l.01227-12.32322Z"/>
    <path class="cls-29" d="M477.68681,332.32348l-6.18967-3.56781a1.08186,1.08186,0,0,1-.00066-1.87421l5.72768-3.30688a3.24558,3.24558,0,0,1,3.2436-.00114l6.18966,3.56781a1.08185,1.08185,0,0,1,.00066,1.87421l-5.72768,3.30688A3.24559,3.24559,0,0,1,477.68681,332.32348Z"/>
  </g>
  <g>
    <g>
      <path class="cls-31" d="M825.20529,424.91883V398.0366l-35.614,20.53531a5.01193,5.01193,0,0,0,6.83391,1.827l16.725-9.62474a4.71248,4.71248,0,0,1,7.063,4.08444l.00213,7.34687a5.12382,5.12382,0,0,0,.73677,2.47577c.97984,1.697,2.56467,2.61623,3.54,2.05315A1.86693,1.86693,0,0,0,825.20529,424.91883Z"/>
      <g>
        <path class="cls-10" d="M634.14907,322.15125l.01549,6.65093a3.35683,3.35683,0,0,0,1.68345,3.06792L784.2687,417.32522a10.19779,10.19779,0,0,0,10.20039.00083l33.72324-19.473v-6.60569Z"/>
        <path class="cls-10" d="M828.19235,391.24738,669.56383,299.91426l-33.715,19.46282a3.39926,3.39926,0,0,0-.00083,5.88739L784.26873,410.7196a10.19777,10.19777,0,0,0,10.20035.00083Z"/>
      </g>
    </g>
    <g>
      <path class="cls-32" d="M652.72266,292.33725H708.251l-6.41643,32.97417-.04728-.00043a1.38225,1.38225,0,0,1-.63518.90337l-18.48236,10.685a4.36217,4.36217,0,0,1-4.36636,0l-18.48236-10.685a1.44045,1.44045,0,0,1-.72632-1.25872h0Z"/>
      <path class="cls-33" d="M653.61663,290.26723l24.03119-13.89276a5.67176,5.67176,0,0,1,5.67739,0l24.03118,13.89276a1.89059,1.89059,0,0,1,0,3.27352l-24.03118,13.89276a5.67176,5.67176,0,0,1-5.67739,0l-24.03119-13.89276A1.8906,1.8906,0,0,1,653.61663,290.26723Z"/>
      <path class="cls-10" d="M680.48655,280.2651a1.02127,1.02127,0,0,1,.51037.13689l19.89556,11.502-19.89556,11.50194a1.01968,1.01968,0,0,1-1.02073,0L660.08044,291.904l19.89575-11.502a1.02126,1.02126,0,0,1,.51036-.13689m0-4.65212a5.66771,5.66771,0,0,0-2.83869.76151l-24.03124,13.89274a1.89057,1.89057,0,0,0,0,3.27354l24.03124,13.89273a5.67168,5.67168,0,0,0,5.67739,0l24.03105-13.89273a1.89057,1.89057,0,0,0,0-3.27354l-24.03105-13.89274a5.66772,5.66772,0,0,0-2.8387-.76151Z"/>
      <path class="cls-34" d="M663.04127,269.09675c-11.677,1.20168,7.81063,28.64854,17.44553,28.64854s30.97507-26.98356,17.44554-28.64854c0-15.82215-7.81063-28.64854-17.44554-28.64854S663.04127,253.2746,663.04127,269.09675Z"/>
    </g>
    <g>
      <path class="cls-35" d="M690.91,319.54148h38.363l-4.43293,22.781-.03267-.00029a.95494.95494,0,0,1-.43883.62411l-12.769,7.382a3.01371,3.01371,0,0,1-3.0166,0l-12.769-7.382a.99518.99518,0,0,1-.50181-.86962h0Z"/>
      <path class="cls-33" d="M691.52759,318.11136l16.60249-9.59814a3.91847,3.91847,0,0,1,3.92237,0l16.60249,9.59814a1.30615,1.30615,0,0,1,0,2.26158l-16.60249,9.59814a3.91852,3.91852,0,0,1-3.92237,0l-16.60249-9.59814A1.30615,1.30615,0,0,1,691.52759,318.11136Z"/>
      <path class="cls-10" d="M710.09129,311.20115a.7056.7056,0,0,1,.3526.09458l13.74531,7.94641-13.74531,7.94638a.7045.7045,0,0,1-.70519,0l-13.74544-7.94638,13.74544-7.94644a.70559.70559,0,0,1,.35259-.09458m0-3.214a3.91566,3.91566,0,0,0-1.96118.52611l-16.60253,9.59811a1.30614,1.30614,0,0,0,0,2.2616l16.60253,9.59812a3.9184,3.9184,0,0,0,3.92236,0l16.60241-9.59812a1.30615,1.30615,0,0,0,0-2.2616l-16.60241-9.59811a3.91566,3.91566,0,0,0-1.96118-.52611Z"/>
      <ellipse class="cls-36" cx="710.09147" cy="303.48524" rx="12.05265" ry="19.79251"/>
    </g>
    <g>
      <path class="cls-37" d="M729.34469,365.11886a4.60118,4.60118,0,0,0,2.29525,4.57854l52.34686,30.15108a13.98675,13.98675,0,0,0,7.59487,1.86265V346.17976L729.3086,332.27587Z"/>
      <path class="cls-38" d="M791.58167,346.17976v55.53137a14.12817,14.12817,0,0,0,6.38112-1.85062l17.74941-10.25062A4.616,4.616,0,0,0,818.04354,385.5V352.09219Z"/>
      <path class="cls-29" d="M731.63652,328.16912l17.7465-10.24594a13.97492,13.97492,0,0,1,13.97526.0002l52.35455,30.15177a4.6583,4.6583,0,0,1-.00054,8.06859l-17.7541,10.24787a13.975,13.975,0,0,1-13.97443-.00118l-52.3475-30.153A4.65831,4.65831,0,0,1,731.63652,328.16912Z"/>
      <path class="cls-39" d="M730.46153,341.3072l53.81035,30.99567a14.36516,14.36516,0,0,0,14.36488.00117L816.887,361.76986a4.81043,4.81043,0,0,0,1.15654-.93745v3.12246L799.87185,374.4438a16.83582,16.83582,0,0,1-16.83543-.0014l-53.70091-30.93274-.00338-3.10852A4.8195,4.8195,0,0,0,730.46153,341.3072Z"/>
    </g>
  </g>
  <g>
    <g>
      <g>
        <g>
          <path class="cls-40" d="M175.3288,585.01229l-46.61314,26.90148.00008-6.92948L120.3933,326.60463l46.622-26.88676,8.31354,4.79821Z"/>
          <path class="cls-41" d="M120.397,326.60419V626.33538l63.26048-36.51172V290.08453Zm8.31831,4.818,46.608-26.90756V585.01364l-46.608,26.89958Z"/>
        </g>
        <polygon class="cls-42" points="175.323 304.515 172.195 306.32 172.205 583.321 128.715 608.417 128.716 611.914 175.329 585.012 175.323 304.515"/>
      </g>
      <g>
        <path class="cls-43" d="M185.40108,294.55107l-63.62862,36.72922v35.34605a1.764,1.764,0,0,0,2.646,1.52767L181.873,335.0199a7.056,7.056,0,0,0,3.528-6.11067Z"/>
        <g class="cls-11">
          <polygon class="cls-44" points="185.402 302.752 185.402 304.11 121.77 340.844 121.77 339.48 185.402 302.752"/>
        </g>
        <g class="cls-11">
          <polygon class="cls-44" points="185.402 314.844 185.402 316.203 121.77 352.936 121.77 351.572 185.402 314.844"/>
        </g>
        <g class="cls-11">
          <path class="cls-44" d="M185.40242,326.93673v1.14661c0,.07056,0,.147-.00588.21756l-63.6268,36.72756v-1.36417Z"/>
        </g>
        <g class="cls-11">
          <path class="cls-44" d="M185.40242,320.89054v1.14661c0,.07056,0,.147-.00588.21756l-63.6268,36.72756V357.6181Z"/>
        </g>
        <g class="cls-11">
          <path class="cls-44" d="M185.40242,308.79817v1.14661c0,.07056,0,.147-.00588.21756l-63.6268,36.72755v-1.36417Z"/>
        </g>
        <polygon class="cls-45" points="183.658 290.085 187.143 292.1 123.515 328.829 120.029 326.814 183.658 290.085"/>
        <polygon class="cls-46" points="187.143 297.676 187.143 292.1 123.515 328.829 123.515 334.405 187.143 297.676"/>
        <polygon class="cls-47" points="123.515 334.405 120.029 332.389 120.029 326.814 123.515 328.829 123.515 334.405"/>
      </g>
    </g>
    <g>
      <g>
        <g>
          <path class="cls-40" d="M333.95732,493.67917l-46.61314,26.90148.00008-6.92948-8.32244-278.37966,46.622-26.88676,8.31353,4.79821Z"/>
          <path class="cls-48" d="M279.02555,235.27107V535.00226L342.286,498.49054V198.75141Zm8.31831,4.818,46.608-26.90756V493.68052l-46.608,26.89958Z"/>
        </g>
        <polygon class="cls-49" points="333.952 213.181 330.823 214.987 330.833 491.988 287.344 517.084 287.344 520.581 333.957 493.679 333.952 213.181"/>
      </g>
      <g>
        <path class="cls-50" d="M344.02961,203.218,280.401,239.94717v35.34605a1.764,1.764,0,0,0,2.646,1.52768l57.45456-33.13412a7.056,7.056,0,0,0,3.528-6.11067Z"/>
        <g class="cls-11">
          <polygon class="cls-44" points="344.031 211.419 344.031 212.777 280.398 249.511 280.398 248.146 344.031 211.419"/>
        </g>
        <g class="cls-11">
          <polygon class="cls-44" points="344.031 223.511 344.031 224.87 280.398 261.603 280.398 260.239 344.031 223.511"/>
        </g>
        <g class="cls-11">
          <path class="cls-44" d="M344.03094,235.60361v1.14661c0,.07056,0,.147-.00588.21756l-63.62679,36.72756v-1.36417Z"/>
        </g>
        <g class="cls-11">
          <path class="cls-44" d="M344.03094,229.55742V230.704c0,.07056,0,.147-.00588.21756l-63.62679,36.72756V266.285Z"/>
        </g>
        <g class="cls-11">
          <path class="cls-44" d="M344.03094,217.46505v1.14661c0,.07056,0,.147-.00588.21756l-63.62679,36.72755V254.1926Z"/>
        </g>
        <polygon class="cls-51" points="342.286 198.751 345.772 200.767 282.143 237.496 278.657 235.481 342.286 198.751"/>
        <polygon class="cls-52" points="345.772 206.342 345.772 200.767 282.143 237.496 282.143 243.072 345.772 206.342"/>
        <polygon class="cls-53" points="282.143 243.072 278.657 241.056 278.657 235.481 282.143 237.496 282.143 243.072"/>
      </g>
    </g>
  </g>
  <path class="cls-54" d="M877.43545,724.30793,749.13059,650.22a10.06674,10.06674,0,0,0-5.33662-1.33307,22.77687,22.77687,0,0,0-11.27358-22.76208l-81.05853-46.793a68.73857,68.73857,0,0,0-68.73882.00395L321.92312,729.93125a22.913,22.913,0,0,0,0,39.68492l81.09151,46.82511a68.739,68.739,0,0,0,68.75575-.00543L691.43261,689.5467l123.07472,71.09468a10.08872,10.08872,0,0,0,10.09268.001l52.83544-30.509A3.36339,3.36339,0,0,0,877.43545,724.30793Z"/>
  <path class="cls-55" d="M571.11456,762.57184l109.634-63.34411a7.68541,7.68541,0,0,1,7.693,0l60.15221,34.76671a3.84267,3.84267,0,0,1,0,6.65352l-109.634,63.34411a7.68534,7.68534,0,0,1-7.693,0l-60.15222-34.7667A3.84269,3.84269,0,0,1,571.11456,762.57184Z"/>
  <g>
    <g>
      <path class="cls-56" d="M435.42892,739.38242l2.32619,63.30379c0,2.13589,3.01282,3.86735,6.72928,3.86735s6.7291-1.73146,6.7291-3.86735l2.33593-63.30379Z"/>
      <path class="cls-57" d="M688.476,593.268l2.3262,63.30379c0,2.13589,3.01282,3.86735,6.72927,3.86735s6.7291-1.73146,6.7291-3.86735l2.33593-63.30379Z"/>
      <path class="cls-58" d="M341.70322,686.92218l2.32619,63.30378c0,2.1359,3.01283,3.86735,6.72928,3.86735s6.7291-1.73145,6.7291-3.86735l2.33593-63.30378Z"/>
      <g>
        <path class="cls-59" d="M732.34439,548.60487,716.51174,631.8103h-.00961a28.41422,28.41422,0,0,1-14.08525,20.739L485.07071,778.10634a86.22324,86.22324,0,0,1-39.51926,11.50248l-5.29037-168.8497L512.01221,603.035,575.83247,566.185a63.3679,63.3679,0,0,1,63.369-.00961l6.60563,3.81171Z"/>
        <path class="cls-60" d="M445.55145,789.60882A86.3396,86.3396,0,0,1,398.63918,778.116l-51.713-29.86984A28.43666,28.43666,0,0,1,332.85058,727.584H332.841l-15.83265-76.37888,123.25276-30.44595Z"/>
        <g>
          <path class="cls-61" d="M738.869,532.86315q.00165-.19555,0-.39013v-12.6167l-2.7362,1.95605a22.41951,22.41951,0,0,0-8.58045-8.75195l-80.10437-46.24219a67.92943,67.92943,0,0,0-67.92969.00391l-257.73,148.82275A22.382,22.382,0,0,0,312.882,625.036l-2.41406-2.92138v12.63867l.01563-.01172a22.43553,22.43553,0,0,0,11.30468,20.12109l80.137,46.27393a67.92987,67.92987,0,0,0,67.94641-.00537l257.68628-148.854a22.41149,22.41149,0,0,0,11.30468-19.209l.00635.00586Z"/>
          <path class="cls-62" d="M321.78815,603.2942,579.5182,454.47143a67.92921,67.92921,0,0,1,67.92972-.00411l80.1044,46.2423a22.64307,22.64307,0,0,1,.00557,39.217L469.87166,688.78021a67.92922,67.92922,0,0,1-67.94644.00555l-80.13707-46.27408A22.64307,22.64307,0,0,1,321.78815,603.2942Z"/>
          <path class="cls-63" d="M719.39344,541.15513a6.32079,6.32079,0,0,0-.00164-10.9474l-80.10427-46.24227a51.66839,51.66839,0,0,0-25.79653-6.91253h-.00234a51.68381,51.68381,0,0,0-25.80836,6.9157l-257.73,148.82273a6.32082,6.32082,0,0,0,0,10.94751l80.13708,46.2741a51.60767,51.60767,0,0,0,51.62-.00422Z"/>
          <path class="cls-64" d="M582.85513,496.19185c-1.87234,5.2766-3.31915,19.14894,12.12182,31.57447,15.479,12.45614,37.50686,18.00037,54.942,18.85106s22.50486.23571,28.21277-2.80851c4.78723-2.55319,7.78723-7.46808,6-15.70212-1.88889-8.70238-10.76784-17.64557-10.76784-17.64557l-74.50876-23.90763C591.13173,485.1493,584.72747,490.91526,582.85513,496.19185Z"/>
          <path class="cls-64" d="M681.81013,525.434s7.07691-2.08522,8.3216-6.26608-3.82979-7.14626-3.82979-7.14626l-8.17021,2.617Z"/>
          <path class="cls-10" d="M613.491,461.69077a51.66836,51.66836,0,0,1,25.79653,6.9125l80.10427,46.2423a6.32079,6.32079,0,0,1,.00164,10.9474L461.70734,674.64656a51.60767,51.60767,0,0,1-51.62.00422l-80.13708-46.27409a6.3208,6.3208,0,0,1,0-10.94749L587.6803,468.60644a51.68378,51.68378,0,0,1,25.80836-6.91567h.00234m-.00433-16.32232a67.90085,67.90085,0,0,0-33.96848,9.103l-257.73,148.82277a22.64313,22.64313,0,0,0,0,39.21755l80.13708,46.27406a67.92972,67.92972,0,0,0,67.94644-.00557L727.55788,539.92666a22.64313,22.64313,0,0,0-.00562-39.21708l-80.10439-46.24231a67.87081,67.87081,0,0,0-33.9612-9.09882Z"/>
        </g>
      </g>
    </g>
    <g>
      <path class="cls-65" d="M657.04433,472.41243l-25.79791-41.72354a28.9252,28.9252,0,0,0-11.77427,22.69623c-.39189,13.49215-11.80851,16.89184-10.14894,29.70035.43692,3.37213,26.80852,38.43907,26.80852,38.43907s6.90317-16.61357,5.56367-25.26728C652.33894,481.64867,657.04433,472.41243,657.04433,472.41243Z"/>
      <path class="cls-66" d="M643.81806,474.41377l25.53823-38.25892s6.56267,8.63275,6.1344,25.01883c-.29846,11.41955,6.79438,19.8055,10.42827,32.39238,2.76328,9.57132,3.41489,18.45558-.70213,24.20026-7.0851,8.3617-29.04255,2.55319-29.04255,2.55319s-4.79514-11.33336-1.83144-19.57335C646.67754,484.37731,643.81806,474.41377,643.81806,474.41377Z"/>
      <path class="cls-67" d="M601.08917,481.70249c-2.36926,1.92256-4.656,5.43617-6.23043,9.35106s-3.02489,7.40426,2.37937,11.7766l11.96326-.66813,14.22823-26.52336S614.46151,470.85143,601.08917,481.70249Z"/>
      <polygon class="cls-68" points="597.238 502.83 600.813 501 602.195 494.374 594.977 500.584 597.238 502.83"/>
      <path class="cls-67" d="M657.29882,528.8727l20.02439-8.93617c-.80453-18.1934-18.54272-24.307-33.85106-33.06383-7.31439-4.184-12.678-7.68523-16.53191-9.81977-15-8.30789-22.9149,8.55961-25.617,20.75594l-4.0851,5.02128C601.45087,515.21313,617.14922,527.87005,657.29882,528.8727Z"/>
      <path class="cls-68" d="M657.29887,528.87272l3.57519-1.59546-3.99093-7.75548-4.7847,9.14073C653.78983,528.75236,655.51151,528.828,657.29887,528.87272Z"/>
      <path class="cls-67" d="M678.13173,522.4259c0,4.89261-10.167,13.81326-20.83291,6.4468l-.37258-7.88576C655.7913,499.4259,677.05915,504.09,678.13173,522.4259Z"/>
      <path class="cls-68" d="M628.77525,486.53751c-.23776,8.91489,18.708,8.41325,20.6867,3.68028l6.23986-27.82479H635.5749Z"/>
      <path class="cls-69" d="M652.67591,474.49548c3.55051.79527,7.64976-3.4928,8.5522-7.52175s-1.82647-8.201-5.28418-7.06838C651.6034,461.3272,649.12539,473.7002,652.67591,474.49548Z"/>
    </g>
    <g>
      <path class="cls-67" d="M661.08421,449.72916c2.33345-8.45821-4.93022-17.99963-14.96533-19.848-8.77056-1.61544-19.15793,3.96473-20.95219,13.67974a199.69266,199.69266,0,0,0-2.42266,21.76116c-.36835,9.74406,2.16729,20.8339,12.10858,20.40061,10.93912-.47678,18.61836-5.12005,21.037-14.88135Z"/>
      <path class="cls-70" d="M632.81258,429.60467c-12.50115,8.06169-8.383,18.2042-8.383,18.2042s-.39768-.2723,2.91125-3.2048c14.10535,8.99228,17.59939,11.82183,19.96482,16.00485-1.66293,3.92318-.21265,8.2702,3.49628,9.92758-.11013.11025-1.04791,2.46519.4412,11.50915,10.60657-4.45719,27.46332-22.65735,20.54815-41.08784C665.61826,424.50529,646.08917,421.04292,632.81258,429.60467Z"/>
      <path class="cls-64" d="M625.0679,444.91526c6.31914-1.70213,21.37749,6.42678,27.74468,16.29787l3.37889-.21277s-1.581-11.75532-9.11294-18.13829c-4.77628-4.0477-11.31264-5.24537-14.15431-4.81106a9.401,9.401,0,0,0-5.47335,2.89616A13.99149,13.99149,0,0,0,625.0679,444.91526Z"/>
      <path class="cls-67" d="M652.08506,475.55623c3.58351.22847,6.91911-4.5828,7.17837-8.64919s-3.04336-7.7131-6.2395-6.07652C649.01173,462.885,648.50155,475.32775,652.08506,475.55623Z"/>
    </g>
  </g>
  <g>
    <g>
      <path class="cls-71" d="M814.91533,680.0732v76.9897a1.74094,1.74094,0,0,0,2.61106,1.5079L866.353,730.40066a5.22282,5.22282,0,0,0,2.61249-4.52372V652.38927"/>
      <path class="cls-72" d="M687.954,606.766v76.9897a1.741,1.741,0,0,0,2.61106,1.50791l63.08066-36.39966a5.22283,5.22283,0,0,0,2.61249-4.52373V570.85255"/>
      <g>
        <path class="cls-73" d="M871.45411,637.271v17.964a3.498,3.498,0,0,1-1.74673,3.04229L818.0053,688.17164a6.99685,6.99685,0,0,1-3.508.93164l-72.15252-85.22794Z"/>
        <path class="cls-74" d="M814.49728,636.109v52.99425a6.99719,6.99719,0,0,1-3.50838-.93164L687.14905,616.65213a3.48238,3.48238,0,0,1-1.76147-3.04229v-17.964Z"/>
        <path class="cls-75" d="M685.38758,587.85247v7.65773a3.47235,3.47235,0,0,0,1.75076,3.03443l123.85019,71.52345a7.01028,7.01028,0,0,0,7.017,0l51.69782-29.89825a3.47234,3.47234,0,0,0,1.75076-3.03443v-7.65773Z"/>
        <path class="cls-76" d="M869.70334,626.44325,745.853,554.91985a7.01,7.01,0,0,0-7.017,0l-51.69779,29.8982a3.505,3.505,0,0,0,0,6.06884l123.8503,71.52339a7.01,7.01,0,0,0,7.017,0l51.69778-29.89819A3.505,3.505,0,0,0,869.70334,626.44325Z"/>
      </g>
    </g>
    <g>
      <g>
        <path class="cls-77" d="M759.984,573.66507h38.363l-4.43293,22.781-.03267-.00029a.95494.95494,0,0,1-.43883.62411l-12.769,7.382a3.01371,3.01371,0,0,1-3.0166,0l-12.769-7.382a.99518.99518,0,0,1-.50181-.86962h0Z"/>
        <path class="cls-33" d="M760.60165,572.235l16.60249-9.59814a3.91852,3.91852,0,0,1,3.92237,0L797.729,572.235a1.30615,1.30615,0,0,1,0,2.26158l-16.60249,9.59814a3.91852,3.91852,0,0,1-3.92237,0l-16.60249-9.59814A1.30615,1.30615,0,0,1,760.60165,572.235Z"/>
        <path class="cls-10" d="M779.16535,565.32474a.7056.7056,0,0,1,.3526.09458l13.74531,7.94641L779.518,581.31211a.70443.70443,0,0,1-.70519,0l-13.74544-7.94638,13.74544-7.94644a.70559.70559,0,0,1,.35259-.09458m0-3.214a3.91566,3.91566,0,0,0-1.96118.52611L760.60164,572.235a1.30614,1.30614,0,0,0,0,2.2616l16.60253,9.59811a3.9184,3.9184,0,0,0,3.92236,0l16.60241-9.59811a1.30615,1.30615,0,0,0,0-2.2616l-16.60241-9.59812a3.91566,3.91566,0,0,0-1.96118-.52611Z"/>
      </g>
      <g>
        <ellipse class="cls-77" cx="733.01543" cy="584.95811" rx="24.1959" ry="13.90569"/>
        <ellipse class="cls-10" cx="733.01543" cy="583.49486" rx="24.1959" ry="13.90569"/>
        <ellipse class="cls-77" cx="733.01543" cy="583.89769" rx="15.26306" ry="8.77187"/>
      </g>
      <g>
        <path class="cls-78" d="M783.91883,641.303l12.70619,7.44821a17.6787,17.6787,0,0,0,17.79933.04728l36.20137-20.96318a8.34743,8.34743,0,0,0,.016-14.43809l-16.0752-9.35641a18.55878,18.55878,0,0,0-15.73157-1.385c-11.562,4.24364-23.56944,11.52047-35.82873,20.51283A10.8639,10.8639,0,0,0,783.91883,641.303Z"/>
        <path class="cls-79" d="M850.64166,613.39719l-16.07515-9.35635a18.55808,18.55808,0,0,0-15.73128-1.385c-11.56231,4.24364-23.56964,11.52049-35.829,20.51279a10.76971,10.76971,0,0,0-3.91253,5.39192,10.70446,10.70446,0,0,0,4.82521,6.01421l12.70616,7.44823a17.67869,17.67869,0,0,0,17.79936.04725l36.20125-20.96314a8.2262,8.2262,0,0,0,3.45241-3.85905A8.22585,8.22585,0,0,0,850.64166,613.39719Z"/>
        <path class="cls-80" d="M783.91883,630.96006l12.70619,7.4482a17.6787,17.6787,0,0,0,17.79933.04728l36.20137-20.96318a8.34742,8.34742,0,0,0,.016-14.43808l-16.0752-9.35641a18.55878,18.55878,0,0,0-15.73157-1.385c-11.562,4.24364-23.56944,11.52048-35.82873,20.51283A10.86391,10.86391,0,0,0,783.91883,630.96006Z"/>
      </g>
      <g>
        <g>
          <path class="cls-81" d="M779.23794,575.12218a.82624.82624,0,0,1-.8266-.82633c0-21.00978,0-49.78421,10.55346-62.84961a.82654.82654,0,0,1,1.28619,1.03845c-10.18644,12.61148-10.18644,41.0475-10.18644,61.81116A.82625.82625,0,0,1,779.23794,575.12218Z"/>
          <path class="cls-81" d="M779.27168,565.7081c-.01971,0-.03968-.00054-.05965-.00216a.82617.82617,0,0,1-.76561-.883c1.02874-14.39423,7.4435-29.58943,17.71361-30.78117a.82645.82645,0,1,1,.19053,1.64188c-9.37685,1.08811-15.27509,15.54171-16.25525,29.257A.82627.82627,0,0,1,779.27168,565.7081Z"/>
          <path class="cls-82" d="M784.423,544.11885c13.68617-3.66664,39.08368-17.57562,32.21845-27.28139S785.4287,523.86411,784.423,544.11885Z"/>
          <path class="cls-83" d="M782.53262,527.69928c9.308-6.96489,24.90059-23.341,16.71242-28.64185S777.12477,511.9634,782.53262,527.69928Z"/>
        </g>
        <g>
          <path class="cls-81" d="M779.291,560.01423a.82715.82715,0,0,1-.82013-.733c-1.07057-9.34446-9.67019-15.9816-14.03612-17.45777a.8267.8267,0,0,1,.52948-1.56632c4.71244,1.59384,13.994,8.75507,15.149,18.83626a.82632.82632,0,0,1-.727.91486A.81507.81507,0,0,1,779.291,560.01423Z"/>
          <path class="cls-84" d="M775.03311,548.61034c-8.78106-.0938-26.78314-2.96939-24.15615-9.85337S771.31039,536.60533,775.03311,548.61034Z"/>
        </g>
        <path class="cls-85" d="M780.07306,541.41446c-7.39448-5.99166-19.59941-21.18272-12.73359-25.26052S784.994,528.71239,780.07306,541.41446Z"/>
      </g>
    </g>
  </g>
  <path class="cls-86" d="M326.70213,630.21277s-12.54689-27.66222-11.89047-56.14309,17.29825-50.02132,16.76457-74.0455-19.93491-50.994-19.93491-50.994L722.2872,396.41506s26.74179,32.68463,22.57409,50.33086-16.48471,22.11938-20.62422,36.41013-1.97872,43.18739-1.97872,43.18739L461.04389,684.49237l-41.48767,3.80729Z"/>
  <g>
    <g>
      <ellipse class="cls-29" cx="734.18362" cy="583.19403" rx="10.24487" ry="7.03919"/>
      <path class="cls-87" d="M726.698,582.89305c0,2.40658,3.35164,4.35747,7.48589,4.35747,4.13457,0,7.48588-1.95089,7.48588-4.35747V553.92518H726.698Z"/>
      <path class="cls-88" d="M726.69789,553.94037a19.49907,19.49907,0,0,1-4.12342-9.529c-.66308-5.55925,4.12342-14.39226,4.12342-18.92417s-9.79182-18.51064-9.79182-18.51064h32.98755s3.42679,10.91489,1.80914,17.87234-7.54662,12.79036-8.5751,17.93617a105.02425,105.02425,0,0,0-1.45772,11.15534Z"/>
      <ellipse class="cls-29" cx="734.18392" cy="553.94037" rx="7.48603" ry="4.35766"/>
    </g>
    <path class="cls-89" d="M737.5021,545.48716c0,3.54872-3.40168,6.42553-3.40168,6.42553s-3.40168-2.87681-3.40168-6.42553,3.40168-6.42553,3.40168-6.42553S737.5021,541.93843,737.5021,545.48716Z"/>
    <path class="cls-90" d="M735.99274,548.33822a2.28813,2.28813,0,1,1-1.89232-3.57447A5.49758,5.49758,0,0,1,735.99274,548.33822Z"/>
  </g>
  <g>
    <g class="cls-91">
      <ellipse class="cls-92" cx="254.09309" cy="632.1987" rx="36.30513" ry="20.86502"/>
    </g>
    <g>
      <path class="cls-93" d="M254.09312,616.20039c14.34209,0,26.45877,6.34385,26.45877,13.85291,0,7.509-12.11668,13.85283-26.45877,13.85283-14.34222,0-26.4589-6.34384-26.4589-13.85283,0-7.50906,12.11668-13.85291,26.4589-13.85291m0-3.18215c-16.3703,0-29.64105,7.62682-29.64105,17.03506,0,9.40817,13.27075,17.035,29.64105,17.035,16.37017,0,29.64092-7.62682,29.64092-17.035,0-9.40824-13.27075-17.03506-29.64092-17.03506Z"/>
      <g>
        <g>
          <path class="cls-94" d="M226.14878,574.43982v43.57446c0,8.86969,12.51123,16.06,27.94434,16.06,15.43322,0,27.94433-7.19031,27.94433-16.06V574.43982Z"/>
          <ellipse class="cls-38" cx="254.09309" cy="574.43986" rx="27.94426" ry="16.05992"/>
          <path class="cls-81" d="M278.33739,582.41884c-4.82258,4.84517-13.885,8.07533-24.24871,8.07533S234.6631,587.264,229.84,582.41884c3.0734-6.01166,12.76346-10.4083,24.24871-10.4083S275.264,576.40718,278.33739,582.41884Z"/>
          <path class="cls-29" d="M254.09312,561.37994c13.52111,0,24.94421,5.98071,24.94421,13.05994,0,7.07916-11.4231,13.05987-24.94421,13.05987-13.52124,0-24.94434-5.98071-24.94434-13.05987,0-7.07923,11.4231-13.05994,24.94434-13.05994m0-3c-15.43323,0-27.94434,7.19025-27.94434,16.05994,0,8.86963,12.51111,16.05987,27.94434,16.05987,15.4331,0,27.94421-7.19024,27.94421-16.05987,0-8.86969-12.51111-16.05994-27.94421-16.05994Z"/>
        </g>
        <g>
          <path class="cls-95" d="M262.67463,459.32558c10.27342-3.82415,30.20007-14.81552,24.20314-21.78945S261.96927,443.65152,262.67463,459.32558Z"/>
          <path class="cls-81" d="M251.99357,580.24349c-.57,0-1.268-.94038-1.268-2.03785,0-53.61358-4.83087-88.51461-16.70718-116.82295a3.37391,3.37391,0,0,1,.15429-2.793c.44333-.69143,1.09249-.55911,1.45127.29707,12.197,29.07371,17.40145,64.77243,17.40145,119.37062C253.02542,579.35488,252.56356,580.24349,251.99357,580.24349Z"/>
          <path class="cls-81" d="M256.62127,580.24349c-.57,0-1.03186-.88861-1.03186-1.98607,0-50.49632,0-119.65472,13.174-151.057.35844-.85618,1.00794-.9872,1.45094-.29707a3.3727,3.3727,0,0,1,.15463,2.793c-12.71582,30.31128-12.71582,98.65631-12.71582,148.56109C257.65312,579.35488,257.19126,580.24349,256.62127,580.24349Z"/>
          <path class="cls-81" d="M257.10637,526.03707c-.53193,0-.98335-.78613-1.02748-1.82392-1.71134-40.383-6.25718-67.83-14.30622-86.37535a3.385,3.385,0,0,1,.13-2.79814c.43794-.7044,1.08845-.589,1.45329.25036,8.33572,19.20562,13.03181,47.3596,14.77987,88.59882.04615,1.09357-.37663,2.05353-.94461,2.14174A.47247.47247,0,0,1,257.10637,526.03707Z"/>
        </g>
        <path class="cls-81" d="M256.62227,541.748a.52457.52457,0,0,1-.07445-.00477c-.56865-.0715-.79917-.97985-.7584-1.98439,1.28418-31.77956,9.09445-65.2926,21.9147-67.92372.56326-.11678,1.078.60058,1.1437,1.60155.06569,1.00216-.33991,1.9078-.90586,2.02339-11.70518,2.40232-19.068,34.313-20.29154,64.59344C257.61168,541.01514,257.15858,541.748,256.62227,541.748Z"/>
        <path class="cls-96" d="M263.53108,494.14564c10.16466,2.53689,31.575,2.65047,30.61627-6.08738S271.44472,481.40909,263.53108,494.14564Z"/>
        <path class="cls-97" d="M267.28291,487.58919c17.08454-4.57709,48.78844-21.93977,40.21852-34.05556S268.5384,462.30505,267.28291,487.58919Z"/>
        <path class="cls-98" d="M255.16554,499.85778c13.111-5.7497,36.35769-23.516,28.02018-32.16342S253.081,479.47321,255.16554,499.85778Z"/>
        <path class="cls-99" d="M251.363,465.1363c-12.41352-9.28869-32.56113-33.74366-21.641-40.81312S258.57517,444.15022,251.363,465.1363Z"/>
        <path class="cls-100" d="M245.7297,495.08855c-17.297-4.81082-49.30951-22.74048-40.49385-34.95553S244.6995,469.41245,245.7297,495.08855Z"/>
        <path class="cls-101" d="M238.73455,470.90509c-9.49519-5.478-27.31851-19.62761-20.24616-25.50814S242.0345,455.56611,238.73455,470.90509Z"/>
        <path class="cls-102" d="M257.91339,454.824c12.14387-10.83615,31.84358-35.50284,19.59866-41.78006S248.15393,433.75191,257.91339,454.824Z"/>
        <path class="cls-103" d="M253.36923,478.15453c9.36164-8.86212,23.65647-30.992,13.95945-35.78343S245.4,461.51357,253.36923,478.15453Z"/>
        <path class="cls-104" d="M254.9126,490.57406c-10.57167-5.39906-28.94632-21.23919-21.62312-27.98994S257.63293,473.80305,254.9126,490.57406Z"/>
      </g>
      <rect class="cls-105" x="264.09055" y="610.33365" width="37.57777" height="2.00007" transform="translate(-340.54421 866.46622) rotate(-87.42538)"/>
      <rect class="cls-106" x="224.22706" y="592.5448" width="2.00007" height="37.57777" transform="translate(-27.16337 10.7047) rotate(-2.56788)"/>
      <rect class="cls-107" x="253.09721" y="608.79023" width="2" height="37.27637"/>
      <path class="cls-108" d="M282.03739,583.52955v7.77a3.429,3.429,0,0,1,0,.74c-.38,7.78-13.02,14.28-27.93994,14.28-14.92,0-27.57007-6.5-27.95007-14.28a3.44956,3.44956,0,0,1,0-.74v-7.76a11.47968,11.47968,0,0,0,0,16.27c5.16,5.86,15.74011,9.87,27.95007,9.87,12.19995,0,22.77-4.01,27.93994-9.86005a11.47973,11.47973,0,0,0,0-16.29Z"/>
    </g>
  </g>
</svg>
