<svg id="Layer_1" data-name="Layer 1" xmlns="http://www.w3.org/2000/svg" xmlns:xlink="http://www.w3.org/1999/xlink" viewBox="0 0 1000 1000">
  <defs>
    <style>
      .cls-1 {
        fill: url(#linear-gradient);
      }

      .cls-2 {
        fill: #b8cbd8;
      }

      .cls-3 {
        fill: url(#linear-gradient-2);
      }

      .cls-4, .cls-50 {
        fill: #9bb0c4;
      }

      .cls-14, .cls-21, .cls-26, .cls-4, .cls-80 {
        opacity: 0.5;
      }

      .cls-5 {
        fill: #f0f9fc;
      }

      .cls-6 {
        fill: url(#linear-gradient-3);
      }

      .cls-7 {
        fill: url(#linear-gradient-4);
      }

      .cls-8 {
        fill: url(#linear-gradient-5);
      }

      .cls-9 {
        fill: url(#linear-gradient-6);
      }

      .cls-10 {
        fill: url(#linear-gradient-7);
      }

      .cls-11 {
        fill: url(#linear-gradient-8);
      }

      .cls-12 {
        fill: #e58630;
      }

      .cls-13 {
        fill: url(#linear-gradient-9);
      }

      .cls-15 {
        fill: url(#linear-gradient-10);
      }

      .cls-16 {
        fill: #748ca3;
      }

      .cls-17 {
        fill: #586c7f;
      }

      .cls-18 {
        fill: url(#linear-gradient-11);
      }

      .cls-19 {
        fill: #34a521;
      }

      .cls-20 {
        fill: #e4ecf2;
      }

      .cls-21 {
        fill: url(#linear-gradient-12);
      }

      .cls-22, .cls-26 {
        fill: #fff;
      }

      .cls-23 {
        fill: url(#linear-gradient-13);
      }

      .cls-24 {
        fill: url(#linear-gradient-14);
      }

      .cls-25 {
        fill: url(#linear-gradient-15);
      }

      .cls-27 {
        fill: url(#linear-gradient-16);
      }

      .cls-28 {
        fill: url(#linear-gradient-17);
      }

      .cls-29 {
        fill: url(#linear-gradient-18);
      }

      .cls-30 {
        fill: url(#linear-gradient-19);
      }

      .cls-31 {
        fill: url(#linear-gradient-20);
      }

      .cls-32 {
        fill: url(#linear-gradient-21);
      }

      .cls-33 {
        fill: url(#linear-gradient-22);
      }

      .cls-34 {
        fill: url(#linear-gradient-23);
      }

      .cls-35, .cls-36 {
        fill: none;
        stroke-miterlimit: 10;
        stroke-width: 5px;
      }

      .cls-35 {
        stroke: url(#linear-gradient-24);
      }

      .cls-36 {
        stroke: url(#linear-gradient-25);
      }

      .cls-37 {
        fill: url(#linear-gradient-26);
      }

      .cls-38 {
        fill: url(#linear-gradient-27);
      }

      .cls-39 {
        fill: url(#linear-gradient-28);
      }

      .cls-40 {
        fill: url(#linear-gradient-29);
      }

      .cls-41 {
        fill: url(#linear-gradient-30);
      }

      .cls-42 {
        fill: url(#linear-gradient-31);
      }

      .cls-43 {
        fill: url(#linear-gradient-32);
      }

      .cls-44 {
        fill: url(#linear-gradient-33);
      }

      .cls-45 {
        fill: url(#linear-gradient-34);
      }

      .cls-46 {
        fill: url(#linear-gradient-35);
      }

      .cls-47 {
        fill: url(#linear-gradient-36);
      }

      .cls-48 {
        fill: url(#linear-gradient-37);
      }

      .cls-49 {
        fill: #ffcb48;
      }

      .cls-51 {
        fill: url(#linear-gradient-38);
      }

      .cls-52 {
        fill: url(#linear-gradient-39);
      }

      .cls-53 {
        fill: url(#linear-gradient-40);
      }

      .cls-54 {
        fill: url(#linear-gradient-41);
      }

      .cls-55 {
        fill: #541510;
        opacity: 0.3;
      }

      .cls-56 {
        fill: url(#linear-gradient-42);
      }

      .cls-57 {
        fill: url(#linear-gradient-43);
      }

      .cls-58 {
        fill: #bcd0e2;
      }

      .cls-59 {
        fill: url(#linear-gradient-44);
      }

      .cls-60 {
        fill: #e9f1f4;
      }

      .cls-61 {
        fill: url(#linear-gradient-45);
      }

      .cls-62 {
        fill: url(#linear-gradient-46);
      }

      .cls-63 {
        fill: url(#linear-gradient-47);
      }

      .cls-64 {
        fill: url(#linear-gradient-48);
      }

      .cls-65 {
        fill: url(#linear-gradient-49);
      }

      .cls-66 {
        opacity: 0.4;
        fill: url(#linear-gradient-50);
      }

      .cls-67 {
        fill: url(#linear-gradient-51);
      }

      .cls-68 {
        fill: url(#linear-gradient-52);
      }

      .cls-69 {
        fill: url(#linear-gradient-53);
      }

      .cls-70 {
        fill: url(#linear-gradient-54);
      }

      .cls-71 {
        fill: url(#linear-gradient-55);
      }

      .cls-72 {
        fill: url(#linear-gradient-56);
      }

      .cls-73 {
        fill: url(#linear-gradient-57);
      }

      .cls-74 {
        fill: url(#linear-gradient-58);
      }

      .cls-75 {
        fill: #303d49;
      }

      .cls-76 {
        fill: #ef8e73;
      }

      .cls-77 {
        fill: #27343d;
      }

      .cls-78 {
        fill: url(#linear-gradient-59);
      }

      .cls-79 {
        fill: url(#linear-gradient-60);
      }

      .cls-80 {
        fill: #dd7b19;
      }

      .cls-81 {
        fill: url(#linear-gradient-61);
      }

      .cls-82 {
        fill: url(#linear-gradient-62);
      }

      .cls-83 {
        fill: url(#linear-gradient-63);
      }
    </style>
    <linearGradient id="linear-gradient" x1="524.52355" y1="396.22833" x2="931.16979" y2="396.22833" gradientUnits="userSpaceOnUse">
      <stop offset="0" stop-color="#e4edf2"/>
      <stop offset="1" stop-color="#c3d6e6"/>
    </linearGradient>
    <linearGradient id="linear-gradient-2" x1="117.89298" y1="711.22041" x2="931.16979" y2="711.22041" gradientUnits="userSpaceOnUse">
      <stop offset="0.00663" stop-color="#c4d5e6"/>
      <stop offset="1" stop-color="#dae9f2"/>
    </linearGradient>
    <linearGradient id="linear-gradient-3" x1="888.57995" y1="450.58926" x2="902.59319" y2="450.58926" gradientTransform="translate(345.28048 -387.42577) rotate(30)" gradientUnits="userSpaceOnUse">
      <stop offset="0" stop-color="#849bb2"/>
      <stop offset="1" stop-color="#5b6f82"/>
    </linearGradient>
    <linearGradient id="linear-gradient-4" x1="318.84019" y1="183.43889" x2="312.71253" y2="506.67293" gradientUnits="userSpaceOnUse">
      <stop offset="0" stop-color="#293440"/>
      <stop offset="1" stop-color="#3e4c59"/>
    </linearGradient>
    <linearGradient id="linear-gradient-5" x1="145.13283" y1="390.75852" x2="488.47555" y2="390.75852" gradientUnits="userSpaceOnUse">
      <stop offset="0" stop-color="#5b6f82"/>
      <stop offset="1" stop-color="#849bb2"/>
    </linearGradient>
    <linearGradient id="linear-gradient-6" x1="506.84926" y1="287.74017" x2="132.95225" y2="490.41897" gradientUnits="userSpaceOnUse">
      <stop offset="0" stop-color="#62778c"/>
      <stop offset="1" stop-color="#435466"/>
    </linearGradient>
    <linearGradient id="linear-gradient-7" x1="439.80984" y1="319.99414" x2="301.33152" y2="395.05924" xlink:href="#linear-gradient-6"/>
    <linearGradient id="linear-gradient-8" x1="328.34103" y1="384.34656" x2="189.86272" y2="459.41167" xlink:href="#linear-gradient-6"/>
    <linearGradient id="linear-gradient-9" x1="147.22103" y1="327.66025" x2="322.62528" y2="563.57514" gradientUnits="userSpaceOnUse">
      <stop offset="0.00005" stop-color="#ffcb48"/>
      <stop offset="1" stop-color="#e68e2b"/>
    </linearGradient>
    <linearGradient id="linear-gradient-10" x1="324.9499" y1="225.01703" x2="500.35415" y2="460.93192" xlink:href="#linear-gradient-9"/>
    <linearGradient id="linear-gradient-11" x1="-63.91738" y1="234.66122" x2="499.9014" y2="234.66122" xlink:href="#linear-gradient-5"/>
    <linearGradient id="linear-gradient-12" x1="106.62266" y1="296.0483" x2="421.71458" y2="296.0483" gradientUnits="userSpaceOnUse">
      <stop offset="0" stop-color="#748ea6"/>
      <stop offset="1" stop-color="#96b1cc"/>
    </linearGradient>
    <linearGradient id="linear-gradient-13" x1="142.31662" y1="262.3569" x2="321.24481" y2="262.3569" xlink:href="#linear-gradient-12"/>
    <linearGradient id="linear-gradient-14" x1="132.16158" y1="257.00218" x2="170.97009" y2="341.00218" xlink:href="#linear-gradient-9"/>
    <linearGradient id="linear-gradient-15" x1="4881.4343" y1="2703.64204" x2="4881.4343" y2="2790.76831" gradientTransform="matrix(0.0351, 0.99938, 0.99938, -0.0351, -2736.96607, -4518.656)" xlink:href="#linear-gradient-6"/>
    <linearGradient id="linear-gradient-16" x1="213.95096" y1="225.45033" x2="241.86586" y2="301.36523" xlink:href="#linear-gradient-6"/>
    <linearGradient id="linear-gradient-17" x1="216.92843" y1="233.54759" x2="238.71883" y2="292.80686" gradientUnits="userSpaceOnUse">
      <stop offset="0" stop-color="#96b1cc"/>
      <stop offset="1" stop-color="#748ea6"/>
    </linearGradient>
    <linearGradient id="linear-gradient-18" x1="320.30187" y1="318.8215" x2="395.32838" y2="318.8215" xlink:href="#linear-gradient-6"/>
    <linearGradient id="linear-gradient-19" x1="59.71562" y1="318.8215" x2="134.74212" y2="318.8215" xlink:href="#linear-gradient-6"/>
    <linearGradient id="linear-gradient-20" x1="474.78913" y1="212.63531" x2="569.98477" y2="212.63531" xlink:href="#linear-gradient"/>
    <linearGradient id="linear-gradient-21" x1="561.76556" y1="222.07017" x2="561.76556" y2="554.12855" gradientUnits="userSpaceOnUse">
      <stop offset="0" stop-color="#fff"/>
      <stop offset="0.56988" stop-color="#fff" stop-opacity="0"/>
    </linearGradient>
    <linearGradient id="linear-gradient-22" x1="495.87155" y1="175.08368" x2="533.49411" y2="234.65274" xlink:href="#linear-gradient-6"/>
    <linearGradient id="linear-gradient-23" x1="511.38616" y1="165.28498" x2="549.00872" y2="224.85403" xlink:href="#linear-gradient-6"/>
    <linearGradient id="linear-gradient-24" x1="8918.64141" y1="475.38618" x2="8985.44226" y2="505.90608" gradientTransform="translate(-8377.35491)" gradientUnits="userSpaceOnUse">
      <stop offset="0" stop-color="#3e4c59"/>
      <stop offset="1" stop-color="#293440"/>
    </linearGradient>
    <linearGradient id="linear-gradient-25" x1="8852.10833" y1="429.3766" x2="8927.59114" y2="463.8631" xlink:href="#linear-gradient-24"/>
    <linearGradient id="linear-gradient-26" x1="725.79129" y1="370.69237" x2="848.38364" y2="457.02501" gradientTransform="translate(-242.3977)" xlink:href="#linear-gradient-6"/>
    <linearGradient id="linear-gradient-27" x1="725.44049" y1="384.08754" x2="858.02968" y2="527.97941" gradientTransform="translate(-242.3977)" gradientUnits="userSpaceOnUse">
      <stop offset="0" stop-color="#62788c"/>
      <stop offset="1" stop-color="#526575"/>
    </linearGradient>
    <linearGradient id="linear-gradient-28" x1="712.36069" y1="366.00754" x2="792.51683" y2="491.05112" gradientTransform="translate(-242.3977)" xlink:href="#linear-gradient-17"/>
    <linearGradient id="linear-gradient-29" x1="719.03322" y1="407.07872" x2="847.20137" y2="407.07872" gradientTransform="translate(-242.3977)" gradientUnits="userSpaceOnUse">
      <stop offset="0" stop-color="#526575"/>
      <stop offset="1" stop-color="#62788c"/>
    </linearGradient>
    <linearGradient id="linear-gradient-30" x1="719.03317" y1="386.31293" x2="847.20133" y2="386.31293" gradientTransform="translate(-242.3977)" xlink:href="#linear-gradient-17"/>
    <linearGradient id="linear-gradient-31" x1="515.48108" y1="385.56455" x2="565.95809" y2="385.56455" xlink:href="#linear-gradient-6"/>
    <linearGradient id="linear-gradient-32" x1="515.48107" y1="381.7186" x2="565.95811" y2="381.7186" gradientTransform="matrix(1, 0, 0, 1, 0, 0)" xlink:href="#linear-gradient-3"/>
    <linearGradient id="linear-gradient-33" x1="540.37866" y1="341.10846" x2="541.05072" y2="378.29591" xlink:href="#linear-gradient-6"/>
    <linearGradient id="linear-gradient-34" x1="506.77663" y1="333.73917" x2="574.66259" y2="333.73917" xlink:href="#linear-gradient-6"/>
    <linearGradient id="linear-gradient-35" x1="506.32123" y1="328.76338" x2="575.118" y2="328.76338" gradientUnits="userSpaceOnUse">
      <stop offset="0.00844" stop-color="#ffc63f"/>
      <stop offset="1" stop-color="#e68a23"/>
    </linearGradient>
    <linearGradient id="linear-gradient-36" x1="533.30186" y1="315.9837" x2="548.13722" y2="315.9837" gradientTransform="matrix(1, 0, 0, 1, 0, 0)" xlink:href="#linear-gradient-24"/>
    <linearGradient id="linear-gradient-37" x1="533.30187" y1="310.26008" x2="548.1373" y2="310.26008" xlink:href="#linear-gradient-6"/>
    <linearGradient id="linear-gradient-38" x1="643.53591" y1="346.56832" x2="823.20212" y2="581.85873" xlink:href="#linear-gradient-6"/>
    <linearGradient id="linear-gradient-39" x1="626.03515" y1="359.75835" x2="804.14735" y2="593.01364" gradientTransform="matrix(1, 0, 0, 1, 0, 0)" xlink:href="#linear-gradient-27"/>
    <linearGradient id="linear-gradient-40" x1="449.07954" y1="588.499" x2="875.13355" y2="702.89406" xlink:href="#linear-gradient-6"/>
    <linearGradient id="linear-gradient-41" x1="320.48162" y1="596.40699" x2="714.05142" y2="846.97161" gradientTransform="matrix(1, 0, 0, 1, 0, 0)" xlink:href="#linear-gradient-27"/>
    <linearGradient id="linear-gradient-42" x1="336.73517" y1="663.74094" x2="883.15807" y2="693.30152" gradientTransform="matrix(1, 0, 0, 1, 0, 0)" xlink:href="#linear-gradient-24"/>
    <linearGradient id="linear-gradient-43" x1="335.66165" y1="683.58489" x2="882.08455" y2="713.14548" gradientTransform="matrix(1, 0, 0, 1, 0, 0)" xlink:href="#linear-gradient-24"/>
    <linearGradient id="linear-gradient-44" x1="358.82584" y1="540.79097" x2="530.81469" y2="722.63335" xlink:href="#linear-gradient-9"/>
    <linearGradient id="linear-gradient-45" x1="520.3241" y1="498.38123" x2="533.76073" y2="744.71943" xlink:href="#linear-gradient-9"/>
    <linearGradient id="linear-gradient-46" x1="637.97778" y1="306.89848" x2="880.15229" y2="624.04962" gradientUnits="userSpaceOnUse">
      <stop offset="0" stop-color="#596c80"/>
      <stop offset="0.99886" stop-color="#3a4959"/>
    </linearGradient>
    <linearGradient id="linear-gradient-47" x1="669.74196" y1="716.15226" x2="696.16876" y2="757.37807" gradientTransform="matrix(1, 0, 0, 1, 0, 0)" xlink:href="#linear-gradient-24"/>
    <linearGradient id="linear-gradient-48" x1="712.50986" y1="359.48261" x2="789.82893" y2="359.48261" gradientTransform="translate(-18.64021 -32.28579)" gradientUnits="userSpaceOnUse">
      <stop offset="0" stop-color="#435466"/>
      <stop offset="1" stop-color="#62778c"/>
    </linearGradient>
    <linearGradient id="linear-gradient-49" x1="722.93005" y1="355.49936" x2="786.51402" y2="355.49936" gradientTransform="translate(-18.64021 -32.28579)" gradientUnits="userSpaceOnUse">
      <stop offset="0" stop-color="#fff"/>
      <stop offset="0.98888" stop-color="#e6edf2"/>
    </linearGradient>
    <linearGradient id="linear-gradient-50" x1="732.04235" y1="357.42479" x2="775.14781" y2="357.42479" gradientTransform="translate(-18.64021 -32.28579)" xlink:href="#linear-gradient-6"/>
    <linearGradient id="linear-gradient-51" x1="712.50984" y1="359.4826" x2="789.82894" y2="359.4826" gradientTransform="translate(-18.64021 -32.28579)" xlink:href="#linear-gradient-3"/>
    <linearGradient id="linear-gradient-52" x1="729.47528" y1="280.83601" x2="808.97515" y2="385.9141" gradientTransform="translate(-18.64021 -32.28579)" xlink:href="#linear-gradient-6"/>
    <linearGradient id="linear-gradient-53" x1="698.01281" y1="255.88081" x2="815.89696" y2="411.69291" gradientTransform="translate(-18.64021 -32.28579)" xlink:href="#linear-gradient-6"/>
    <linearGradient id="linear-gradient-54" x1="812.5534" y1="348.69825" x2="786.87323" y2="288.47749" gradientTransform="translate(3.46411 6.00002)" xlink:href="#linear-gradient-48"/>
    <linearGradient id="linear-gradient-55" x1="746.01994" y1="253.6391" x2="785.3552" y2="253.6391" gradientTransform="translate(47.76727 82.73534)" xlink:href="#linear-gradient-49"/>
    <linearGradient id="linear-gradient-56" x1="735.59974" y1="257.62234" x2="788.67012" y2="257.62234" gradientTransform="translate(47.76727 82.73534)" xlink:href="#linear-gradient-3"/>
    <linearGradient id="linear-gradient-57" x1="747.936" y1="204.88243" x2="802.73144" y2="277.30771" gradientTransform="translate(47.76727 82.73534)" xlink:href="#linear-gradient-6"/>
    <linearGradient id="linear-gradient-58" x1="729.77753" y1="190.53688" x2="806.47833" y2="291.91534" gradientTransform="translate(47.76727 82.73534)" xlink:href="#linear-gradient-6"/>
    <linearGradient id="linear-gradient-59" x1="330.18161" y1="461.53065" x2="310.80129" y2="491.23656" gradientTransform="matrix(-1, 0, 0, 1, 1180.69832, 0)" xlink:href="#linear-gradient-9"/>
    <linearGradient id="linear-gradient-60" x1="386.46476" y1="459.64754" x2="316.88622" y2="576.8826" gradientTransform="matrix(-1, 0, 0, 1, 1180.69832, 0)" xlink:href="#linear-gradient-9"/>
    <linearGradient id="linear-gradient-61" x1="398.30872" y1="466.67688" x2="328.73019" y2="583.91194" gradientTransform="matrix(-1, 0, 0, 1, 1180.69832, 0)" xlink:href="#linear-gradient-9"/>
    <linearGradient id="linear-gradient-62" x1="367.43491" y1="398.56561" x2="305.16371" y2="519.93091" gradientTransform="matrix(-1, 0, 0, 1, 1180.69832, 0)" gradientUnits="userSpaceOnUse">
      <stop offset="0" stop-color="#75413e"/>
      <stop offset="1" stop-color="#592f2f"/>
    </linearGradient>
    <linearGradient id="linear-gradient-63" x1="373.60604" y1="401.73195" x2="311.33484" y2="523.09725" xlink:href="#linear-gradient-62"/>
  </defs>
  <g>
    <g>
      <polygon class="cls-1" points="524.524 81.236 931.17 316.004 931.17 711.22 524.524 476.43 524.524 81.236"/>
      <polygon class="cls-2" points="524.539 81.236 117.893 316.004 117.893 711.22 524.539 476.43 524.539 81.236"/>
    </g>
    <path class="cls-3" d="M124.91012,723.3864l378.58059,218.564a42.10143,42.10143,0,0,0,42.1011-.00062L924.153,723.38232a14.03381,14.03381,0,0,0,.00017-24.307L545.57541,480.49136a42.10142,42.10142,0,0,0-42.10407.00053l-378.562,218.58744A14.03381,14.03381,0,0,0,124.91012,723.3864Z"/>
    <path class="cls-4" d="M828.59749,714.98587c-36.18863,0-65.52567,16.86023-65.52567,37.65837,0,17.2353,20.15433,31.75553,47.65149,36.22825l80.8289-46.66763C883.67446,726.48727,858.48144,714.98587,828.59749,714.98587Z"/>
  </g>
  <g>
    <path class="cls-5" d="M911.94193,441.46169l-.001,33.20418a2.93956,2.93956,0,0,1-4.40935,2.54567l-21.20631-12.24347a8.81868,8.81868,0,0,1-4.40935-7.63741l.001-33.20418a2.93956,2.93956,0,0,1,4.40935-2.54567l21.20631,12.24347A8.81868,8.81868,0,0,1,911.94193,441.46169Z"/>
    <ellipse class="cls-6" cx="895.58657" cy="450.58926" rx="5.7164" ry="9.91662" transform="translate(-105.30878 508.1608) rotate(-30)"/>
  </g>
  <g>
    <g>
      <path class="cls-7" d="M492.317,456.36969,148.96794,654.59929l-11.46524-6.61724V325.15794l343.34907-198.2411,11.46524-2.15873Z"/>
      <polygon class="cls-8" points="488.476 130.228 484.534 132.503 484.539 450.939 145.133 646.883 145.133 651.289 488.476 453.069 488.476 130.228"/>
      <path class="cls-9" d="M133.64483,321.83449v349.352l366.319-211.48426V110.32968Zm11.48824,6.63259L488.47555,130.22837l0,322.84092L145.13307,651.28867Z"/>
    </g>
    <polygon class="cls-10" points="373.071 515.291 368.071 518.178 368.071 199.762 373.071 196.875 373.071 515.291"/>
    <polygon class="cls-11" points="261.602 579.644 256.602 582.53 256.602 264.115 261.602 261.228 261.602 579.644"/>
    <g>
      <path class="cls-12" d="M317.32716,236.28326l-172.19409,99.549V649.23663a2.97181,2.97181,0,0,0,1.50513,2.60065l-.00025.00018,3.38843,1.94965-.40356-1.94727.01-.005,163.2008-94.2041a9,9,0,0,0,4.50074-7.79486l3.38391-311.60047Z"/>
      <path class="cls-13" d="M320.72542,551.78805l-.00712-313.55261-172.19412,99.549V651.18878a3,3,0,0,0,4.49976,2.59821l163.20076-94.2041A9,9,0,0,0,320.72542,551.78805Z"/>
      <g>
        <g class="cls-14">
          <polygon class="cls-12" points="170.336 643.766 168.037 645.094 168.037 326.502 170.336 325.175 170.336 643.766"/>
        </g>
        <g class="cls-14">
          <polygon class="cls-12" points="192.148 631.157 189.848 632.484 189.848 313.893 192.148 312.565 192.148 631.157"/>
        </g>
        <g class="cls-14">
          <polygon class="cls-12" points="213.959 618.547 211.66 619.875 211.66 301.283 213.959 299.956 213.959 618.547"/>
        </g>
        <g class="cls-14">
          <polygon class="cls-12" points="235.771 605.938 233.472 607.265 233.472 288.674 235.771 287.346 235.771 605.938"/>
        </g>
        <g class="cls-14">
          <polygon class="cls-12" points="257.583 593.328 255.283 594.656 255.283 276.064 257.583 274.737 257.583 593.328"/>
        </g>
        <g class="cls-14">
          <polygon class="cls-12" points="279.394 580.718 277.095 582.046 277.095 263.455 279.394 262.127 279.394 580.718"/>
        </g>
        <g class="cls-14">
          <polygon class="cls-12" points="301.206 568.109 298.907 569.436 298.907 250.845 301.206 249.517 301.206 568.109"/>
        </g>
      </g>
    </g>
    <g>
      <path class="cls-12" d="M495.056,133.64l-172.19409,99.549V546.59341a2.97179,2.97179,0,0,0,1.50513,2.60065l-.00025.00018,3.38843,1.94965-.40356-1.94727.01-.005,163.2008-94.2041a9,9,0,0,0,4.50073-7.79486l3.38392-311.60047Z"/>
      <path class="cls-15" d="M498.45429,449.14483l-.00712-313.55262L326.253,235.14119V548.54556a3,3,0,0,0,4.49976,2.59821l163.20076-94.2041A9,9,0,0,0,498.45429,449.14483Z"/>
      <g>
        <g class="cls-14">
          <polygon class="cls-12" points="348.065 541.123 345.765 542.451 345.765 223.859 348.065 222.532 348.065 541.123"/>
        </g>
        <g class="cls-14">
          <polygon class="cls-12" points="369.876 528.513 367.577 529.841 367.577 211.25 369.876 209.922 369.876 528.513"/>
        </g>
        <g class="cls-14">
          <polygon class="cls-12" points="391.688 515.904 389.389 517.231 389.389 198.64 391.688 197.312 391.688 515.904"/>
        </g>
        <g class="cls-14">
          <polygon class="cls-12" points="413.5 503.294 411.2 504.622 411.2 186.03 413.5 184.703 413.5 503.294"/>
        </g>
        <g class="cls-14">
          <polygon class="cls-12" points="435.311 490.685 433.012 492.012 433.012 173.421 435.311 172.093 435.311 490.685"/>
        </g>
        <g class="cls-14">
          <polygon class="cls-12" points="457.123 478.075 454.824 479.403 454.824 160.811 457.123 159.484 457.123 478.075"/>
        </g>
        <g class="cls-14">
          <polygon class="cls-12" points="478.935 465.466 476.635 466.793 476.635 148.202 478.935 146.874 478.935 465.466"/>
        </g>
      </g>
    </g>
    <g>
      <path class="cls-16" d="M495.97884,126.90289v6.03443l-14.83479,8.56338v-6.91923a3.36189,3.36189,0,0,1,1.68117-2.91161l10.70616-6.18013A1.63171,1.63171,0,0,1,495.97884,126.90289Z"/>
      <path class="cls-17" d="M153.57458,324.85462v6.03443l-14.83479,8.56338V332.5332a3.36189,3.36189,0,0,1,1.68117-2.91161l10.70616-6.18013A1.63171,1.63171,0,0,1,153.57458,324.85462Z"/>
      <path class="cls-18" d="M503.71437,133.44725,141.08814,342.85233l-3.92586-6.7998,362.63941-209.4127.00179.00311a1.97732,1.97732,0,0,1,1.95074.20783,6.13755,6.13755,0,0,1,2.78517,4.8041A1.92625,1.92625,0,0,1,503.71437,133.44725Z"/>
      <ellipse class="cls-17" cx="139.12521" cy="339.45243" rx="2.26305" ry="3.92587" transform="translate(-151.08697 115.04061) rotate(-30)"/>
    </g>
  </g>
  <g>
    <g>
      <g>
        <path class="cls-19" d="M227.522,69.95177a191.74878,191.74878,0,1,1-74.8872,15.113,191.17959,191.17959,0,0,1,74.8872-15.113m0-17.54224c-115.95068,0-209.94726,93.99658-209.94726,209.94751,0,115.95069,93.99658,209.94727,209.94726,209.94727S437.46924,378.30773,437.46924,262.357c0-115.95093-93.99658-209.94751-209.94727-209.94751Z"/>
        <circle class="cls-20" cx="227.522" cy="262.35693" r="194.19259"/>
        <path class="cls-21" d="M106.62266,388.71927l59.994,58.07422a193.9851,193.9851,0,0,0,60.90544,9.75594c107.2495,0,194.19253-86.94291,194.19253-194.19253a193.96865,193.96865,0,0,0-10.0168-61.70881l-63.90546-65.10092Z"/>
      </g>
      <rect class="cls-22" x="96.23889" y="131.07382" width="262.56622" height="262.56622" rx="25.40683"/>
      <g>
        <circle class="cls-19" cx="407.87164" cy="147.25692" r="62.02326"/>
        <g>
          <rect class="cls-22" x="386.81485" y="138.61469" width="13.46241" height="40.4658" transform="translate(2.94477 324.80447) rotate(-45)"/>
          <rect class="cls-22" x="413.02568" y="121.43382" width="13.46241" height="60.59444" transform="translate(609.27978 555.83402) rotate(-135)"/>
        </g>
      </g>
    </g>
    <path class="cls-23" d="M227.522,163.62741a98.72949,98.72949,0,1,0,98.72974,98.72949A98.72942,98.72942,0,0,0,227.522,163.62741Zm0,177.82861A79.09912,79.09912,0,1,1,306.6211,262.3569,79.099,79.099,0,0,1,227.522,341.456Z"/>
    <path class="cls-24" d="M148.42237,262.36081a78.96129,78.96129,0,0,0,31.18994,62.93994l-10.16992,16.88989a98.55032,98.55032,0,0,1-40.65015-79.82983Z"/>
    <path class="cls-25" d="M138.5374,261.88044l68.559-16.36191,20.96572,16.1226-19.78282,17.55414-69.53808-11.51141A2.96205,2.96205,0,0,1,138.5374,261.88044Z"/>
    <path class="cls-26" d="M286.68433,341.4028l-10.38867-16.79858a79.02874,79.02874,0,0,1-96.67627.68457L169.44,342.19406a98.74115,98.74115,0,0,0,117.24438-.79126Z"/>
    <circle class="cls-27" cx="227.522" cy="262.35693" r="42.56481"/>
    <circle class="cls-28" cx="227.522" cy="262.35693" r="33.22615"/>
    <g>
      <circle class="cls-29" cx="357.81513" cy="318.8215" r="37.51325"/>
      <polygon class="cls-22" points="376.828 312.674 363.963 312.674 363.963 299.808 351.667 299.808 351.667 312.674 338.802 312.674 338.802 324.97 351.667 324.97 351.667 337.835 363.963 337.835 363.963 324.97 376.828 324.97 376.828 312.674"/>
    </g>
    <g>
      <circle class="cls-30" cx="97.22887" cy="318.8215" r="37.51325"/>
      <rect class="cls-22" x="78.21553" y="312.67362" width="38.02667" height="12.29612"/>
    </g>
  </g>
  <g>
    <circle class="cls-31" cx="522.38695" cy="212.63531" r="47.59782"/>
    <polygon class="cls-32" points="826.426 640.154 297.105 640.154 297.105 521.393 490.702 216.245 554.082 216.245 680.702 413.333 684.509 419.244 826.426 640.154"/>
    <g>
      <circle class="cls-22" cx="522.38695" cy="228.29656" r="14.18311"/>
      <path class="cls-33" d="M554.08061,216.24665c0,10.05973-14.18974,18.21475-31.69366,18.21475s-31.69365-8.155-31.69365-18.21475,31.69365-18.929,31.69365-18.929S554.08061,206.18693,554.08061,216.24665Z"/>
    </g>
    <rect class="cls-34" x="520.37146" y="165.03748" width="4.03099" height="35.33083"/>
  </g>
  <g>
    <g>
      <path class="cls-35" d="M548.52111,465.02322v76.9897a1.74094,1.74094,0,0,0,2.611,1.50791l48.82657-28.17015a5.22282,5.22282,0,0,0,2.61249-4.52372V437.33929"/>
      <path class="cls-36" d="M479.202,425.1117v76.9897a1.74094,1.74094,0,0,0,2.61106,1.5079l63.08066-36.39966a5.22281,5.22281,0,0,0,2.61249-4.52372V389.19826"/>
      <g>
        <path class="cls-37" d="M604.80363,398.221v41.964a3.498,3.498,0,0,1-1.74672,3.04229l-51.70209,29.89431a6.99685,6.99685,0,0,1-3.508.93164L533.5927,398.221Z"/>
        <path class="cls-38" d="M547.8468,398.221V474.0533a6.99722,6.99722,0,0,1-3.50838-.93164L478.397,434.99784a3.48239,3.48239,0,0,1-1.76148-3.04229v-41.964Z"/>
        <polygon class="cls-39" points="542.463 462.801 482.02 427.872 482.04 401.11 542.463 436.051 542.463 462.801"/>
        <path class="cls-40" d="M476.63551,382.19818v7.65773a3.47237,3.47237,0,0,0,1.75076,3.03443l65.95179,38.12776a7.01028,7.01028,0,0,0,7.017,0l51.69781-29.89825a3.47232,3.47232,0,0,0,1.75076-3.03442v-7.65774Z"/>
        <path class="cls-41" d="M603.05287,387.39327,537.101,349.26556a7.01,7.01,0,0,0-7.017,0l-51.69779,29.8982a3.505,3.505,0,0,0,0,6.06884l65.95189,38.12771a7.01,7.01,0,0,0,7.017,0l51.69779-29.8982A3.505,3.505,0,0,0,603.05287,387.39327Z"/>
      </g>
    </g>
    <g>
      <g>
        <path class="cls-42" d="M565.2579,382.21236c-2.62966-6.41617-12.6044-11.19641-24.53836-11.19641s-21.9087,4.78024-24.53827,11.19641h-.70019v3.35219c0,8.035,11.29961,14.5486,25.23846,14.5486s25.23855-6.51362,25.23855-14.5486v-3.35219Z"/>
        <ellipse class="cls-43" cx="540.71959" cy="381.7186" rx="25.23852" ry="14.54865"/>
      </g>
      <path class="cls-44" d="M537.41257,341.23614v37.46434c0,1.05282,1.4806,1.90631,3.307,1.90631s3.307-.85349,3.307-1.90631V341.23614Z"/>
      <path class="cls-45" d="M506.77663,308.42788V339.543c0,10.77367,15.19673,19.50744,33.943,19.50744s33.943-8.73377,33.943-19.50744V308.42788Z"/>
      <path class="cls-46" d="M506.32123,303.11249V334.6451c0,10.91822,15.40061,19.76917,34.39838,19.76917s34.39839-8.851,34.39839-19.76917V303.11249Z"/>
      <g>
        <ellipse class="cls-12" cx="540.71959" cy="303.11259" rx="34.3984" ry="19.76919"/>
        <path class="cls-47" d="M533.30186,320.87788a33.58129,33.58129,0,0,0,14.83536,0V310.26H533.30186Z"/>
        <ellipse class="cls-48" cx="540.71959" cy="310.26008" rx="7.41771" ry="4.27591"/>
        <path class="cls-49" d="M540.71957,285.03884c18.03247,0,32.70279,8.10781,32.70279,18.0737s-14.67032,18.07385-32.70279,18.07385-32.70278-8.108-32.70278-18.07385,14.67032-18.0737,32.70278-18.0737m0-1.69547c-18.99762,0-34.39838,8.851-34.39838,19.76917,0,10.91832,15.40076,19.76931,34.39838,19.76931s34.39839-8.851,34.39839-19.76931c0-10.91818-15.40076-19.76917-34.39839-19.76917Z"/>
      </g>
    </g>
  </g>
  <path class="cls-50" d="M316.42918,724.90815,522.76686,844.03179a19.45664,19.45664,0,0,0,19.45858-.00149l283.094-163.49471a9.72834,9.72834,0,0,0-.00064-16.849L619.04382,544.57764a19.45665,19.45665,0,0,0-19.45765-.00057L316.429,708.05809A9.72833,9.72833,0,0,0,316.42918,724.90815Z"/>
  <g>
    <g>
      <g>
        <path class="cls-51" d="M833.88188,466.5933,629.011,345.49021a2.97453,2.97453,0,0,0-3.24439.12842v-.00012l-18.09561,10.467,18.58033,10.86817v87.31482L838.302,566.27073V474.34092A9.00016,9.00016,0,0,0,833.88188,466.5933Z"/>
        <path class="cls-52" d="M606.251,358.6355V465.85306L820.06874,576.83347V484.9037a9,9,0,0,0-4.42023-7.74762L610.77762,356.053A3,3,0,0,0,606.251,358.6355Z"/>
        <path class="cls-53" d="M820.06859,484.9037V585.58345l-286.14844,33.8783V829.94252a18.73026,18.73026,0,0,0,9.42432-2.50567L833.64589,659.5616a9.61615,9.61615,0,0,0,4.65356-8.58051l.00269-66.74377V474.341Z"/>
        <path class="cls-54" d="M533.92023,619.46178V829.94252a18.60414,18.60414,0,0,1-9.28406-2.50566L326.33307,712.95209a9.23427,9.23427,0,0,1-4.66546-7.95644V637.61851Z"/>
        <g>
          <path class="cls-55" d="M820.06874,566.5459v35.20094l-.00936-.00936a9.25254,9.25254,0,0,1-4.64668,8.49867L543.34193,767.36408a18.63645,18.63645,0,0,1-9.42432,2.50567V590.84527Z"/>
          <path class="cls-56" d="M820.06874,580.48642v35.20093l-.00936-.00936a9.25255,9.25255,0,0,1-4.64668,8.49868L543.34193,781.3046a18.63654,18.63654,0,0,1-9.42432,2.50566V604.78579Z"/>
          <path class="cls-57" d="M533.91761,604.78579V783.81026a18.62156,18.62156,0,0,1-9.2747-2.50566L326.33975,666.81983a9.267,9.267,0,0,1-4.67475-8.10607V622.81167Z"/>
          <path class="cls-12" d="M731.20408,568.10614v84.7818L543.34381,761.38681a18.63076,18.63076,0,0,1-9.42,2.50853V584.87655Z"/>
          <path class="cls-58" d="M820.073,560.563v35.20734h-.01756a9.24737,9.24737,0,0,1-4.64853,8.4904l-84.20287,48.62721v-84.7818Z"/>
          <path class="cls-59" d="M533.91761,584.87077V763.89524a18.62156,18.62156,0,0,1-9.2747-2.50566L326.33975,646.90481a9.267,9.267,0,0,1-4.67475-8.10607V602.89665Z"/>
          <path class="cls-60" d="M326.33731,611.38031,524.64015,725.86524a18.699,18.699,0,0,0,18.70086-.00143l272.0702-157.12819a9.34951,9.34951,0,0,0-.0006-16.19293L617.16807,438.0719a18.69906,18.69906,0,0,0-18.7-.00054l-272.13095,157.115A9.34951,9.34951,0,0,0,326.33731,611.38031Z"/>
          <path class="cls-61" d="M728.36546,614.90427,515.17982,491.80519a20.02132,20.02132,0,0,0-5.92779-2.2249L326.33708,595.18635a9.34949,9.34949,0,0,0,.00043,16.19394L524.64006,725.8652a18.69868,18.69868,0,0,0,18.70075-.00139l187.871-108.50069A10.04941,10.04941,0,0,0,728.36546,614.90427Z"/>
        </g>
      </g>
      <path class="cls-62" d="M833.64589,460.77641V659.5616l-5.26978,3.0474V460.77641a6.59747,6.59747,0,0,0-3.23022-5.67l-209.75-123.99a.392.392,0,0,0-.43994,0,.40027.40027,0,0,0-.22.38v20.51l-5.27,3.04v-23.55a5.702,5.702,0,0,1,8.61011-4.91l209.75,123.99A11.8953,11.8953,0,0,1,833.64589,460.77641Z"/>
    </g>
    <path class="cls-63" d="M809.36419,656.44292,559.8262,800.7476a9,9,0,0,0-4.49452,7.79106v11.96621l258.52514-149.4997.00919-11.96292A3,3,0,0,0,809.36419,656.44292Z"/>
  </g>
  <g>
    <path class="cls-58" d="M563.57273,462.3609c.20371-.21975,39.81729-22.94042,39.81729-22.94042-.20613-1.37548.13953-2.57082,1.0243-3.0308,1.00433-.522,2.38667.05866,3.467,1.31608,10.36242-4.28939,20.06192-2.852,47.40061,12.69117,35.43143,20.14428,44.62807,31.92491,45.51431,43.23314,2.466,1.17123,3.31124,2.63359,2.74776,4.10938-.52156,1.366-2.14659,1.47578-4.41352.93409-.27192-.065-.54653-.07637-.80639-.13536l-37.38326,21.46547c.3562,1.57994-.246,3.69466-1.241,4.19256-1.30755.65449-3.17773-.702-4.01387-3.33395l-.00092-.00209c-16.29735-.6754-34.383-12.57052-49.1134-21.8596-12.24116-7.71949-37.18425-18.15531-42.79683-31.39341-2.16333-.005-4.17084-1.30135-4.25281-2.67082C559.43882,463.54323,561.3703,462.59411,563.57273,462.3609Z"/>
    <path class="cls-58" d="M668.87762,525.94854c.20371-.21975,39.81728-22.94043,39.81728-22.94043-.20613-1.37548-.53392-3.0027.35085-3.46267,1.00433-.52206,3.06012.49053,4.14049,1.748,13.74332-2.90175,20.06192-2.852,47.40061,12.69117,35.43143,20.14428,37.58278,29.16356,45.51431,43.23314,2.466,1.17123,3.78082,1.96279,3.21734,3.43857-.52156,1.366-3.95443,2.0728-5.68948,1.46955l-37.38326,21.46546c.35619,1.57994-.246,3.69466-1.241,4.19256-1.30756.65449-3.17774-.702-4.01387-3.334l-.00092-.00209c-16.29735-.6754-38.4884-10.59834-53.21876-19.88741-12.24117-7.7195-33.0789-20.1275-38.69147-33.36559-2.16333-.005-4.27247-1.08622-4.35444-2.45569C664.64208,527.346,666.67519,526.18174,668.87762,525.94854Z"/>
  </g>
  <g>
    <path class="cls-5" d="M559.87921,452.81181c.20371-.21975,39.81729-22.94043,39.81729-22.94043-.20613-1.37548.13953-2.57082,1.0243-3.03079,1.00433-.52206,2.38667.05865,3.467,1.31607,10.36243-4.28938,20.06192-2.852,47.40061,12.69117,35.43143,20.14428,44.62807,31.92492,45.51431,43.23314,2.466,1.17123,3.31124,2.6336,2.74776,4.10938-.52156,1.366-2.14659,1.47578-4.41352.9341-.27192-.065-.54653-.07637-.80639-.13536l-37.38326,21.46546c.3562,1.57994-.246,3.69466-1.241,4.19257-1.30755.65448-3.17773-.702-4.01387-3.334l-.00092-.00209c-16.29735-.6754-34.383-12.57052-49.1134-21.8596-12.24116-7.71949-37.18425-18.15531-42.79683-31.3934-2.16332-.005-4.17084-1.30135-4.25281-2.67082C555.7453,453.99413,557.67678,453.045,559.87921,452.81181Z"/>
    <path class="cls-5" d="M665.1841,516.39944c.20371-.21975,39.81728-22.94042,39.81728-22.94042-.20613-1.37549-.53392-3.00271.35085-3.46268,1.00433-.522,3.06013.49054,4.14049,1.748,13.74332-2.90175,20.06192-2.852,47.40062,12.69117,35.43142,20.14427,37.58277,29.16355,45.5143,43.23314,2.466,1.17122,3.78082,1.96278,3.21734,3.43856-.52156,1.366-3.95443,2.07281-5.68948,1.46955l-37.38326,21.46546c.35619,1.57995-.246,3.69466-1.241,4.19257-1.30756.65449-3.17774-.702-4.01387-3.33395l-.00092-.00209c-16.29735-.67541-38.4884-10.59834-53.21876-19.88742-12.24117-7.71949-33.0789-20.1275-38.69147-33.36559-2.16333-.005-4.27247-1.08622-4.35444-2.45569C660.94856,517.7969,662.98167,516.63264,665.1841,516.39944Z"/>
  </g>
  <g>
    <g>
      <polygon class="cls-64" points="771.149 304.223 771.189 394.925 693.909 350.171 693.87 259.469 771.149 304.223"/>
      <polygon class="cls-65" points="767.843 302.314 767.874 380.942 704.321 344.113 704.29 265.485 767.843 302.314"/>
      <polygon class="cls-66" points="756.487 310.97 756.508 364.275 713.423 339.308 713.402 286.003 756.487 310.97"/>
      <path class="cls-67" d="M766.85144,387.41831l-68.61231-39.7495-.03221-80.69349,68.61233,39.74951.03219,80.69348m4.33729,7.5063-.03922-90.70187L693.86964,259.469l.03924,90.70188,77.27985,44.75371Z"/>
      <polygon class="cls-68" points="698.76 256.638 776.04 301.392 771.149 304.223 693.87 259.469 698.76 256.638"/>
      <polygon class="cls-69" points="776.04 301.392 776.063 392.103 771.189 394.925 771.149 304.223 776.04 301.392"/>
    </g>
    <g>
      <polygon class="cls-70" points="836.398 326.384 836.437 385.085 783.406 354.332 783.367 295.63 836.398 326.384"/>
      <polygon class="cls-71" points="833.092 324.475 833.122 371.103 793.818 348.274 793.787 301.646 833.092 324.475"/>
      <path class="cls-72" d="M832.1001,377.57918l-44.3636-25.7495-.03221-48.69349,44.36362,25.74951.03219,48.69348m4.33729,7.5063-.03922-58.70187L783.367,295.62989l.03924,58.70188,53.03114,30.75371Z"/>
      <polygon class="cls-73" points="788.258 292.799 841.289 323.552 836.398 326.384 783.367 295.63 788.258 292.799"/>
      <polygon class="cls-74" points="841.289 323.552 841.312 382.264 836.437 385.085 836.398 326.384 841.289 323.552"/>
    </g>
  </g>
  <g>
    <g>
      <path class="cls-75" d="M863.90693,738.75889s2.12541,5.82069.96335,9.423-7.87236,4.868-11.2928,1.57733c-2.95888-2.84661-2.56086-3.26312-5.45678-7.42608-3.02428-4.3475-8.23106-9.795-8.69731-14.47567-1.07305-10.77223,13.3437-5.42367,13.3437-5.42367Z"/>
      <path class="cls-76" d="M865.19288,731.83337s.83946,9.01311-.3226,12.61541-7.87236,4.868-11.2928,1.57733c-2.95888-2.84661-2.33105-3.75405-5.227-7.917-3.02429-4.34749-7.25967-8.82594-7.48049-11.70405-.82816-10.79382,11.89707-7.70435,11.89707-7.70435Z"/>
      <path class="cls-75" d="M848.07161,738.84066s-.57478-5.93995.6047-7.6826l7.32758-10.82636-6.32714-.31485s-4.42157,1.18949-6.46342,3.4551a8.62479,8.62479,0,0,0-2.38205,4.24651Z"/>
      <path class="cls-76" d="M863.98679,568.15959l-1.22313,79.02209c3.336,25.49634,2.21747,50.17679,1.90627,76.608l.52295,8.04381-13.84815-1.24282s-23.80394-98.65895-23.80394-150.29377Z"/>
      <path class="cls-77" d="M863.98679,568.15959l.36233,51.93812c.37508,16.32514-33.85711,21.84185-35.40595,8.498l-.59067-48.29886Z"/>
      <path class="cls-75" d="M823.29436,761.43419c.984.59083,2.82013,4.57919,1.90585,7.30445s-3.548,3.81781-7.13207,3.81781-6.95594-1.19908-13.017-1.74854c-8.153-.73912-12.66869.07942-17.88632-2.55577-6.70553-3.38666-3.54984-10.92,1.99046-11.42957,1.67759-.15431,6.732-.20037,6.732-.20037l12.96809-3.3544S822.31041,760.84336,823.29436,761.43419Z"/>
      <path class="cls-76" d="M822.48546,752.93671l-.20474-6.81087-14.0525-.21847.20136,6.11321-13.075,3.17343s-4.57955.30555-6.1565.45046c-5.2082.47917-7.17321,6.00775-1.003,9.44191,6.07631,3.3822,9.90692,2.12766,17.57088,2.8226,5.69762.51631,8.10987,1.22356,11.47909,1.22356s5.84481-1.02669,6.70426-3.58864S822.48546,752.93671,822.48546,752.93671Z"/>
      <path class="cls-76" d="M794.527,586.65513c0,46.06467,13.70126,159.25224,13.70126,159.25224l14.18671,4.683s8.92632-50.81708,6.5126-84.346l4.58694-67.19571Z"/>
      <path class="cls-75" d="M863.98675,568.15944c-.17316-11.84615-2.77811-23.81716-5.93643-35.87l-61.69652,7.98s-1.82684,26.19669-1.82684,46.38569c0,22.28228,1.48967,50.93577,1.48967,50.93577,1.19141,18.70519,35.68283,19.06261,36.60428-.25814l3.99124-39.23721Z"/>
      <g>
        <path class="cls-76" d="M886.50574,469.543l-1.43906-12.01259a10.82634,10.82634,0,0,1,.52631-4.94679s2.84551-9.88089,6.02082-9.73829,6.7835,3.8886,7.39322,7.00048,1.42789,8.57.43745,12.40679a77.86827,77.86827,0,0,1-3.26555,9.103S886.83714,473.70122,886.50574,469.543Z"/>
        <path class="cls-76" d="M877.7411,482.25047,888.232,467.0401l9.2415.556s-5.83649,22.54588-8.43918,29.46762c-2.75888,7.33711-6.5253,8.58026-12.212,7.38676-4.82522-1.0127-20.13488-14.35653-20.13488-14.35653L850.73039,455.463C864.36511,459.53425,877.7411,482.25047,877.7411,482.25047Z"/>
        <path class="cls-78" d="M875.6905,478.12024c5.95707,11.378-6.53832,22.68708-14.2081,18.879a29.31571,29.31571,0,0,1-3.961-2.73537l-5.07817-40.25182C862.64453,458.38249,875.6905,478.12024,875.6905,478.12024Z"/>
      </g>
      <path class="cls-76" d="M836.9626,453.9425,835.43376,442.718c-2.651-6.66562-14.0629,2.82734-13.206,7.7418l-.417,8.00217C827.13987,457.944,836.9626,453.9425,836.9626,453.9425Z"/>
      <path class="cls-79" d="M832.93862,453.51834c17.70182-5.04966,33.51843,3.216,30.06333,25.41553l-6.71163,40.52841a185.31109,185.31109,0,0,1,7.69643,37.728c.278,8.45916-4.82,15.57009-18.73686,21.6838-17.71234,7.781-50.94693,3.057-50.6435-10.83687l4.28909-47.10839-2.9648-37.49589C798.97452,472.194,812.764,459.27339,832.93862,453.51834Z"/>
      <path class="cls-80" d="M794.60636,568.03732l2.66067-32.69648,9.97681-30.23729L816.1,500.61761l-1.80761,21.2974c-.88108,11.242-3.519,16.67684-7.81761,27.10187l-10.06314,24.405A8.58592,8.58592,0,0,1,794.60636,568.03732Z"/>
      <path class="cls-76" d="M790.39869,600.86927l.12862-10.34374-.03949,3.17592c.7636,2.23683,2.59111,1.387,2.93954-.52594l.45585-5.20613a9.74409,9.74409,0,0,0-.48946-2.482l-2.55977-9.711-8.72282-1.46443s-2.344,11.8993-2.344,15.337a13.09723,13.09723,0,0,0,3.22052,8.30916l4.12832,4.27366C788.64749,603.64113,790.32627,602.61105,790.39869,600.86927Z"/>
      <path class="cls-76" d="M805.59446,535.318c-2.93759,10.53407-15.08571,42.61541-15.08571,42.61541l-8.39759-3.62144,6.348-43.17385,8.41933-46.60462,18.10948,17.453S808.532,524.78394,805.59446,535.318Z"/>
      <path class="cls-81" d="M813.42994,514.47878c-2.0254,11.67578-23.56014,6.60584-22.0915-4.30952,0,0,2.23885-19.03924,4.74691-27.2526,3.81141-12.48154,22.15114,1.61685,20.01463,17.70093Z"/>
      <path class="cls-75" d="M804.4106,752.996a6.4105,6.4105,0,0,0-2.37922,5.16589c-.09967,3.658,4.11148,9.33425,4.11148,9.33425l4.73522,1.00812-16.35112-.37706-5.56651-1.73032s.20243-9.7441,3.32989-11.02487S804.4106,752.996,804.4106,752.996Z"/>
    </g>
    <g>
      <path class="cls-76" d="M837.33884,426.13123c.9463-6.58636-5.431-13.06951-13.15723-13.5-6.75265-.37625-14.03326,4.81544-14.45369,12.29571a151.44017,151.44017,0,0,0,.25923,16.60273c.65507,7.36572,3.62356,15.466,11.061,14.189,8.18391-1.40519,13.51682-5.633,14.40255-13.2078Z"/>
      <path class="cls-82" d="M810.86244,412.26511c-8.44051,7.48412-5.83224,16.79515-1.253,19.15951a27.39311,27.39311,0,0,1,.86066-8.17292c.414,7.97947,8.071,12.22985,11.54073,12.8801,0,0-2.812,4.97124,1.60688,6.37062,1.5729,2.4944,8.69183.9245,9.97256,9.0296,7.553-4.36772,18.32293-20.76791,11.35745-33.97166C838.72978,405.77364,821.14534,403.14736,810.86244,412.26511Z"/>
      <path class="cls-83" d="M826.68731,446.55824l1.02549-39.68436s16.14524.58145,20.63118,19.29949c2.30049,9.59906,11.72118,16.91786,16.97048,25.09353,4.859,7.56781,2.38937,16.27167,4.487,21.42718,2.26569,5.56867,8.49746,5.79506,12.17964,15.53415,5.44439,14.4-4.301,25.20555-10.99892,30.73277-8.4636,6.98423-18.35748,8.49075-28.40466,4.79037-12.1477-5.18527-13.55586-16.26484-15.72665-27.16422-1.55558-7.81047-8.33565-12.77342-8.10161-24.7814C818.95209,461.39737,826.68731,446.55824,826.68731,446.55824Z"/>
      <path class="cls-76" d="M825.98738,446.68855c2.71774-.17094,4.76684-4.10957,4.57287-7.19353s-3.02741-5.51143-5.27531-3.97447C822.4631,437.44994,823.26964,446.85949,825.98738,446.68855Z"/>
    </g>
  </g>
</svg>
