<svg id="Layer_1" data-name="Layer 1" xmlns="http://www.w3.org/2000/svg" xmlns:xlink="http://www.w3.org/1999/xlink" viewBox="0 0 1000 1000">
  <defs>
    <style>
      .cls-1 {
        fill: url(#linear-gradient);
      }

      .cls-2 {
        fill: #fff;
      }

      .cls-3 {
        fill: #b8cbd8;
      }

      .cls-4 {
        fill: url(#linear-gradient-2);
      }

      .cls-5 {
        fill: #9bb0c4;
      }

      .cls-6 {
        opacity: 0.6;
      }

      .cls-7 {
        fill: url(#linear-gradient-3);
      }

      .cls-46, .cls-8 {
        opacity: 0.5;
      }

      .cls-9 {
        fill: url(#linear-gradient-4);
      }

      .cls-10 {
        fill: url(#linear-gradient-5);
      }

      .cls-11 {
        fill: url(#linear-gradient-6);
      }

      .cls-12 {
        fill: url(#linear-gradient-7);
      }

      .cls-13 {
        fill: url(#linear-gradient-8);
      }

      .cls-14 {
        fill: url(#linear-gradient-9);
      }

      .cls-15 {
        fill: #e58630;
      }

      .cls-16 {
        fill: url(#linear-gradient-10);
      }

      .cls-17 {
        fill: #ffcb48;
      }

      .cls-18 {
        fill: url(#linear-gradient-11);
      }

      .cls-19 {
        fill: url(#linear-gradient-12);
      }

      .cls-20 {
        fill: url(#linear-gradient-13);
      }

      .cls-21 {
        fill: #748ca3;
      }

      .cls-22 {
        fill: #586c7f;
      }

      .cls-23 {
        fill: url(#linear-gradient-14);
      }

      .cls-24 {
        fill: url(#linear-gradient-15);
      }

      .cls-25 {
        fill: url(#linear-gradient-16);
      }

      .cls-26 {
        fill: url(#linear-gradient-17);
      }

      .cls-27 {
        fill: url(#linear-gradient-18);
      }

      .cls-28 {
        fill: url(#linear-gradient-19);
      }

      .cls-29 {
        fill: url(#linear-gradient-20);
      }

      .cls-30 {
        fill: url(#linear-gradient-21);
      }

      .cls-31 {
        fill: url(#linear-gradient-22);
      }

      .cls-32 {
        fill: url(#linear-gradient-23);
      }

      .cls-33 {
        fill: url(#linear-gradient-24);
      }

      .cls-34 {
        fill: url(#linear-gradient-25);
      }

      .cls-35 {
        fill: url(#linear-gradient-26);
      }

      .cls-36 {
        fill: url(#linear-gradient-27);
      }

      .cls-37 {
        fill: url(#linear-gradient-28);
      }

      .cls-38, .cls-41, .cls-82 {
        opacity: 0.4;
      }

      .cls-38 {
        fill: url(#linear-gradient-29);
      }

      .cls-39 {
        fill: url(#linear-gradient-30);
      }

      .cls-40 {
        fill: url(#linear-gradient-31);
      }

      .cls-41 {
        fill: url(#linear-gradient-32);
      }

      .cls-42 {
        fill: url(#linear-gradient-33);
      }

      .cls-43 {
        fill: url(#linear-gradient-34);
      }

      .cls-44 {
        fill: url(#linear-gradient-35);
      }

      .cls-45 {
        fill: url(#linear-gradient-36);
      }

      .cls-46 {
        fill: url(#linear-gradient-37);
      }

      .cls-47 {
        fill: url(#linear-gradient-38);
      }

      .cls-48, .cls-49 {
        fill: none;
        stroke-miterlimit: 10;
        stroke-width: 4.5px;
      }

      .cls-48 {
        stroke: url(#linear-gradient-39);
      }

      .cls-49 {
        stroke: url(#linear-gradient-40);
      }

      .cls-50 {
        fill: url(#linear-gradient-41);
      }

      .cls-51 {
        fill: url(#linear-gradient-42);
      }

      .cls-52 {
        fill: url(#linear-gradient-43);
      }

      .cls-53 {
        fill: url(#linear-gradient-44);
      }

      .cls-54 {
        fill: #ffbda3;
      }

      .cls-55 {
        fill: #ef8e73;
      }

      .cls-56 {
        fill: #919191;
      }

      .cls-57 {
        fill: #27343d;
      }

      .cls-58 {
        fill: #303d49;
      }

      .cls-59 {
        fill: #e48f7c;
      }

      .cls-60 {
        fill: url(#linear-gradient-45);
      }

      .cls-61 {
        fill: url(#linear-gradient-46);
      }

      .cls-62 {
        fill: url(#linear-gradient-47);
      }

      .cls-63 {
        fill: url(#linear-gradient-48);
      }

      .cls-64 {
        fill: url(#linear-gradient-49);
      }

      .cls-65 {
        fill: #724133;
      }

      .cls-66 {
        fill: url(#linear-gradient-50);
      }

      .cls-67 {
        fill: url(#linear-gradient-51);
      }

      .cls-68 {
        fill: url(#linear-gradient-52);
      }

      .cls-69 {
        fill: url(#linear-gradient-53);
      }

      .cls-70 {
        fill: url(#linear-gradient-54);
      }

      .cls-71 {
        fill: url(#linear-gradient-55);
      }

      .cls-72 {
        fill: url(#linear-gradient-56);
      }

      .cls-73 {
        fill: url(#linear-gradient-57);
      }

      .cls-74 {
        fill: url(#linear-gradient-58);
      }

      .cls-75 {
        fill: url(#linear-gradient-59);
      }

      .cls-76 {
        fill: url(#linear-gradient-60);
      }

      .cls-77 {
        fill: url(#linear-gradient-61);
      }

      .cls-78 {
        fill: url(#linear-gradient-62);
      }

      .cls-79 {
        fill: url(#linear-gradient-63);
      }

      .cls-80 {
        fill: url(#linear-gradient-64);
      }

      .cls-81 {
        fill: url(#linear-gradient-65);
      }

      .cls-82 {
        fill: url(#linear-gradient-66);
      }

      .cls-83 {
        fill: url(#linear-gradient-67);
      }

      .cls-84 {
        fill: url(#linear-gradient-68);
      }

      .cls-85 {
        fill: url(#linear-gradient-69);
      }

      .cls-86 {
        fill: url(#linear-gradient-70);
      }

      .cls-87 {
        fill: url(#linear-gradient-71);
      }

      .cls-88 {
        fill: url(#linear-gradient-72);
      }

      .cls-89 {
        fill: url(#linear-gradient-73);
      }

      .cls-90 {
        fill: url(#linear-gradient-74);
      }
    </style>
    <linearGradient id="linear-gradient" x1="499.99216" y1="381.81496" x2="906.63841" y2="381.81496" gradientUnits="userSpaceOnUse">
      <stop offset="0" stop-color="#f0f9ff"/>
      <stop offset="1" stop-color="#c3d6e6"/>
    </linearGradient>
    <linearGradient id="linear-gradient-2" x1="93.36159" y1="696.80704" x2="906.63841" y2="696.80704" gradientUnits="userSpaceOnUse">
      <stop offset="0" stop-color="#dae9f2"/>
      <stop offset="0.99337" stop-color="#c4d5e6"/>
    </linearGradient>
    <linearGradient id="linear-gradient-3" x1="-892.75081" y1="559.80401" x2="-772.11975" y2="639.22941" gradientTransform="translate(1162.29787)" gradientUnits="userSpaceOnUse">
      <stop offset="0" stop-color="#fff"/>
      <stop offset="0.94545" stop-color="#fff" stop-opacity="0"/>
    </linearGradient>
    <linearGradient id="linear-gradient-4" x1="122.9933" y1="385.94065" x2="466.33602" y2="385.94065" gradientUnits="userSpaceOnUse">
      <stop offset="0" stop-color="#5b6f82"/>
      <stop offset="1" stop-color="#849bb2"/>
    </linearGradient>
    <linearGradient id="linear-gradient-5" x1="484.70973" y1="282.9223" x2="110.81271" y2="485.60111" gradientUnits="userSpaceOnUse">
      <stop offset="0" stop-color="#62778c"/>
      <stop offset="1" stop-color="#435466"/>
    </linearGradient>
    <linearGradient id="linear-gradient-6" x1="417.67031" y1="315.17627" x2="279.19199" y2="390.24138" xlink:href="#linear-gradient-5"/>
    <linearGradient id="linear-gradient-7" x1="306.2015" y1="379.5287" x2="167.72318" y2="454.59381" xlink:href="#linear-gradient-5"/>
    <linearGradient id="linear-gradient-8" x1="152.0415" y1="480.43712" x2="177.09155" y2="480.43712" gradientUnits="userSpaceOnUse">
      <stop offset="0" stop-color="#e68e2b"/>
      <stop offset="0.99995" stop-color="#ffcb48"/>
    </linearGradient>
    <linearGradient id="linear-gradient-9" x1="136.15161" y1="489.34456" x2="161.20166" y2="489.34456" xlink:href="#linear-gradient-8"/>
    <linearGradient id="linear-gradient-10" x1="120.26172" y1="498.59023" x2="145.32153" y2="498.59023" xlink:href="#linear-gradient-8"/>
    <linearGradient id="linear-gradient-11" x1="461.03689" y1="301.66535" x2="486.08694" y2="301.66535" xlink:href="#linear-gradient-8"/>
    <linearGradient id="linear-gradient-12" x1="445.147" y1="310.57279" x2="470.19705" y2="310.57279" xlink:href="#linear-gradient-8"/>
    <linearGradient id="linear-gradient-13" x1="429.25711" y1="319.81846" x2="454.31692" y2="319.81846" xlink:href="#linear-gradient-8"/>
    <linearGradient id="linear-gradient-14" x1="-86.05691" y1="229.84335" x2="477.76186" y2="229.84335" xlink:href="#linear-gradient-4"/>
    <linearGradient id="linear-gradient-15" x1="504.09658" y1="500.42105" x2="554.57359" y2="500.42105" xlink:href="#linear-gradient-5"/>
    <linearGradient id="linear-gradient-16" x1="504.09657" y1="496.5751" x2="554.5736" y2="496.5751" gradientUnits="userSpaceOnUse">
      <stop offset="0" stop-color="#849bb2"/>
      <stop offset="1" stop-color="#5b6f82"/>
    </linearGradient>
    <linearGradient id="linear-gradient-17" x1="527.39299" y1="279.07194" x2="531.07483" y2="482.80043" xlink:href="#linear-gradient-5"/>
    <linearGradient id="linear-gradient-18" x1="494.93672" y1="271.66586" x2="563.73349" y2="271.66586" xlink:href="#linear-gradient-5"/>
    <linearGradient id="linear-gradient-19" x1="494.93672" y1="267.02966" x2="563.73349" y2="267.02966" gradientUnits="userSpaceOnUse">
      <stop offset="0.00844" stop-color="#ffc63f"/>
      <stop offset="1" stop-color="#e68a23"/>
    </linearGradient>
    <linearGradient id="linear-gradient-20" x1="521.91736" y1="254.24998" x2="536.75271" y2="254.24998" gradientUnits="userSpaceOnUse">
      <stop offset="0" stop-color="#3e4c59"/>
      <stop offset="1" stop-color="#293440"/>
    </linearGradient>
    <linearGradient id="linear-gradient-21" x1="521.91737" y1="248.52636" x2="536.7528" y2="248.52636" xlink:href="#linear-gradient-5"/>
    <linearGradient id="linear-gradient-22" x1="439.37515" y1="488.30295" x2="594.28519" y2="488.30295" xlink:href="#linear-gradient-16"/>
    <linearGradient id="linear-gradient-23" x1="467.26517" y1="496.27505" x2="594.28519" y2="496.27505" gradientUnits="userSpaceOnUse">
      <stop offset="0" stop-color="#62788c"/>
      <stop offset="1" stop-color="#526575"/>
    </linearGradient>
    <linearGradient id="linear-gradient-24" x1="536.24223" y1="473.42539" x2="699.64649" y2="649.08497" xlink:href="#linear-gradient-23"/>
    <linearGradient id="linear-gradient-25" x1="523.02749" y1="471.97386" x2="763.53813" y2="612.91003" xlink:href="#linear-gradient-16"/>
    <linearGradient id="linear-gradient-26" x1="593.26613" y1="556.32626" x2="668.79873" y2="556.32626" xlink:href="#linear-gradient-23"/>
    <linearGradient id="linear-gradient-27" x1="559.42246" y1="465.73822" x2="697.35777" y2="465.73822" xlink:href="#linear-gradient-23"/>
    <linearGradient id="linear-gradient-28" x1="562.13681" y1="420.11032" x2="768.94532" y2="633.04649" xlink:href="#linear-gradient-16"/>
    <linearGradient id="linear-gradient-29" x1="450.7087" y1="352.7868" x2="665.11068" y2="563.79634" xlink:href="#linear-gradient-5"/>
    <linearGradient id="linear-gradient-30" x1="681.65829" y1="534.74674" x2="819.5936" y2="534.74674" xlink:href="#linear-gradient-23"/>
    <linearGradient id="linear-gradient-31" x1="589.78457" y1="393.25817" x2="796.59309" y2="606.19434" xlink:href="#linear-gradient-16"/>
    <linearGradient id="linear-gradient-32" x1="572.94454" y1="423.32532" x2="787.34651" y2="634.33486" xlink:href="#linear-gradient-5"/>
    <linearGradient id="linear-gradient-33" x1="698.98686" y1="636.44489" x2="852.27689" y2="636.44489" xlink:href="#linear-gradient-16"/>
    <linearGradient id="linear-gradient-34" x1="726.87687" y1="647.30988" x2="853.89689" y2="647.30988" xlink:href="#linear-gradient-23"/>
    <linearGradient id="linear-gradient-35" x1="846.72437" y1="623.10203" x2="852.72437" y2="623.10203" xlink:href="#linear-gradient-20"/>
    <linearGradient id="linear-gradient-36" x1="738.51514" y1="649.01354" x2="860.62497" y2="649.01354" xlink:href="#linear-gradient-20"/>
    <linearGradient id="linear-gradient-37" x1="477.41688" y1="602.04502" x2="698.87188" y2="602.04502" xlink:href="#linear-gradient-20"/>
    <linearGradient id="linear-gradient-38" x1="281.88422" y1="658.71658" x2="948.341" y2="808.31105" gradientUnits="userSpaceOnUse">
      <stop offset="0.00005" stop-color="#ffb348"/>
      <stop offset="1" stop-color="#e68e2b"/>
    </linearGradient>
    <linearGradient id="linear-gradient-39" x1="541.20874" y1="709.0375" x2="624.00338" y2="746.86463" xlink:href="#linear-gradient-20"/>
    <linearGradient id="linear-gradient-40" x1="338.88763" y1="592.22992" x2="422.49843" y2="630.42992" xlink:href="#linear-gradient-20"/>
    <linearGradient id="linear-gradient-41" x1="348.69387" y1="591.6739" x2="639.52224" y2="724.54723" xlink:href="#linear-gradient-20"/>
    <linearGradient id="linear-gradient-42" x1="344.58396" y1="600.66953" x2="635.41232" y2="733.54286" xlink:href="#linear-gradient-20"/>
    <linearGradient id="linear-gradient-43" x1="334.42807" y1="659.8712" x2="631.10892" y2="659.8712" gradientUnits="userSpaceOnUse">
      <stop offset="0" stop-color="#526575"/>
      <stop offset="1" stop-color="#62788c"/>
    </linearGradient>
    <linearGradient id="linear-gradient-44" x1="334.42808" y1="631.21782" x2="631.10891" y2="631.21782" gradientUnits="userSpaceOnUse">
      <stop offset="0" stop-color="#96b1cc"/>
      <stop offset="1" stop-color="#748ea6"/>
    </linearGradient>
    <linearGradient id="linear-gradient-45" x1="210.52275" y1="419.46085" x2="273.8419" y2="529.24808" gradientUnits="userSpaceOnUse">
      <stop offset="0.00005" stop-color="#ffcb48"/>
      <stop offset="1" stop-color="#e68e2b"/>
    </linearGradient>
    <linearGradient id="linear-gradient-46" x1="201.6336" y1="424.58761" x2="264.95275" y2="534.37484" xlink:href="#linear-gradient-45"/>
    <linearGradient id="linear-gradient-47" x1="214.68059" y1="360.81893" x2="270.34017" y2="478.26573" gradientUnits="userSpaceOnUse">
      <stop offset="0" stop-color="#75413e"/>
      <stop offset="1" stop-color="#592f2f"/>
    </linearGradient>
    <linearGradient id="linear-gradient-48" x1="821.41079" y1="692.11072" x2="880.69275" y2="692.11072" xlink:href="#linear-gradient-20"/>
    <linearGradient id="linear-gradient-49" x1="825.60496" y1="636.00237" x2="885.00922" y2="693.19386" xlink:href="#linear-gradient-45"/>
    <linearGradient id="linear-gradient-50" x1="-4814.18562" y1="1510.54074" x2="-4781.48983" y2="1524.12667" gradientTransform="matrix(-0.94085, 0.33882, 0.33882, 0.94085, -4157.64972, 707.73017)" gradientUnits="userSpaceOnUse">
      <stop offset="0" stop-color="#f2883c"/>
      <stop offset="0.16716" stop-color="#e97d35"/>
      <stop offset="0.67368" stop-color="#d26124"/>
      <stop offset="0.96784" stop-color="#c9571e"/>
    </linearGradient>
    <linearGradient id="linear-gradient-51" x1="860.74003" y1="-577.34774" x2="836.10621" y2="-561.67167" gradientTransform="translate(-123.60864 770.55081) rotate(21.53204)" xlink:href="#linear-gradient-50"/>
    <linearGradient id="linear-gradient-52" x1="903.91842" y1="512.69603" x2="862.56347" y2="549.8707" gradientTransform="matrix(1, 0, 0, 1, 0, 0)" xlink:href="#linear-gradient-50"/>
    <linearGradient id="linear-gradient-53" x1="524.40647" y1="1296.439" x2="490.74367" y2="1317.86078" gradientTransform="translate(12.70351 -568.47383) rotate(-16.16083)" xlink:href="#linear-gradient-50"/>
    <linearGradient id="linear-gradient-54" x1="828.17757" y1="485.27181" x2="848.48181" y2="524.23803" gradientTransform="matrix(1, 0, 0, 1, 0, 0)" xlink:href="#linear-gradient-50"/>
    <linearGradient id="linear-gradient-55" x1="427.01742" y1="1549.57254" x2="450.52958" y2="1594.69514" gradientTransform="translate(-156.56961 -768.85323) rotate(-21.26361)" xlink:href="#linear-gradient-50"/>
    <linearGradient id="linear-gradient-56" x1="675.31195" y1="-1004.84491" x2="708.00774" y2="-991.25898" gradientTransform="matrix(0.87147, 0.49044, -0.49044, 0.87147, -265.33588, 1050.18452)" xlink:href="#linear-gradient-50"/>
    <linearGradient id="linear-gradient-57" x1="709.73107" y1="729.05939" x2="688.36286" y2="766.41299" gradientTransform="matrix(1.03159, -0.09458, 0.10022, 1.01436, 67.08101, -197.80192)" xlink:href="#linear-gradient-50"/>
    <linearGradient id="linear-gradient-58" x1="14.38202" y1="2136.52132" x2="-15.92921" y2="2155.81028" gradientTransform="translate(-402.65944 -1215.80465) rotate(-35.91139)" xlink:href="#linear-gradient-50"/>
    <linearGradient id="linear-gradient-59" x1="-4893.32309" y1="-424.1337" x2="-4921.23493" y2="-406.37162" gradientTransform="matrix(-0.94244, -0.33439, -0.33439, 0.94244, -3920.85594, -710.92388)" xlink:href="#linear-gradient-50"/>
    <linearGradient id="linear-gradient-60" x1="4967.18084" y1="673.39114" x2="4970.86248" y2="673.39114" gradientTransform="matrix(-0.04492, -0.99899, -0.99899, 0.04492, 1775.75997, 5607.14792)" xlink:href="#linear-gradient-20"/>
    <linearGradient id="linear-gradient-61" x1="820.34498" y1="673.39114" x2="824.02662" y2="673.39114" gradientTransform="translate(30.99549 -36.16013) rotate(2.56788)" xlink:href="#linear-gradient-20"/>
    <linearGradient id="linear-gradient-62" x1="850.05592" y1="689.48587" x2="852.05592" y2="689.48587" xlink:href="#linear-gradient-20"/>
    <linearGradient id="linear-gradient-63" x1="819.72609" y1="658.66201" x2="882.38612" y2="658.66201" xlink:href="#linear-gradient-20"/>
    <linearGradient id="linear-gradient-64" x1="668.92901" y1="367.97684" x2="746.24808" y2="367.97684" gradientTransform="translate(-18.64021 -32.28579)" gradientUnits="userSpaceOnUse">
      <stop offset="0" stop-color="#435466"/>
      <stop offset="1" stop-color="#62778c"/>
    </linearGradient>
    <linearGradient id="linear-gradient-65" x1="679.34921" y1="363.99359" x2="742.93317" y2="363.99359" gradientTransform="translate(-18.64021 -32.28579)" gradientUnits="userSpaceOnUse">
      <stop offset="0" stop-color="#fff"/>
      <stop offset="0.98888" stop-color="#e6edf2"/>
    </linearGradient>
    <linearGradient id="linear-gradient-66" x1="688.4615" y1="365.91901" x2="731.56696" y2="365.91901" gradientTransform="translate(-18.64021 -32.28579)" xlink:href="#linear-gradient-5"/>
    <linearGradient id="linear-gradient-67" x1="668.929" y1="367.97683" x2="746.24809" y2="367.97683" gradientTransform="translate(-18.64021 -32.28579)" xlink:href="#linear-gradient-16"/>
    <linearGradient id="linear-gradient-68" x1="685.89443" y1="289.33024" x2="765.3943" y2="394.40833" gradientTransform="translate(-18.64021 -32.28579)" xlink:href="#linear-gradient-5"/>
    <linearGradient id="linear-gradient-69" x1="654.43197" y1="264.37504" x2="772.31612" y2="420.18714" gradientTransform="translate(-18.64021 -32.28579)" xlink:href="#linear-gradient-5"/>
    <linearGradient id="linear-gradient-70" x1="768.97255" y1="357.19248" x2="743.29238" y2="296.97172" gradientTransform="translate(3.46411 6.00002)" xlink:href="#linear-gradient-64"/>
    <linearGradient id="linear-gradient-71" x1="702.4391" y1="262.13333" x2="741.77435" y2="262.13333" gradientTransform="translate(47.76727 82.73534)" xlink:href="#linear-gradient-65"/>
    <linearGradient id="linear-gradient-72" x1="692.01889" y1="266.11657" x2="745.08927" y2="266.11657" gradientTransform="translate(47.76727 82.73534)" xlink:href="#linear-gradient-16"/>
    <linearGradient id="linear-gradient-73" x1="704.35515" y1="213.37666" x2="759.15059" y2="285.80193" gradientTransform="translate(47.76727 82.73534)" xlink:href="#linear-gradient-5"/>
    <linearGradient id="linear-gradient-74" x1="686.19668" y1="199.03111" x2="762.89749" y2="300.40957" gradientTransform="translate(47.76727 82.73534)" xlink:href="#linear-gradient-5"/>
  </defs>
  <g>
    <polygon class="cls-1" points="499.992 66.823 906.638 301.591 906.638 696.807 499.992 462.017 499.992 66.823"/>
    <polygon class="cls-2" points="499.992 421.007 501.278 450.103 664.467 536.232 499.992 157.906 499.992 421.007"/>
    <polygon class="cls-3" points="500.008 66.823 93.362 301.591 93.362 696.807 500.008 462.017 500.008 66.823"/>
  </g>
  <path class="cls-4" d="M100.37873,708.973,478.95932,927.537a42.10144,42.10144,0,0,0,42.10111-.00062L899.62162,708.96895a14.03381,14.03381,0,0,0,.00017-24.307L521.044,466.078a42.10142,42.10142,0,0,0-42.10407.00053L100.37791,684.666A14.03381,14.03381,0,0,0,100.37873,708.973Z"/>
  <path class="cls-5" d="M558.44558,495.12074,450.07841,557.67887a7.53482,7.53482,0,0,0-.00257,13.04963L737.46662,736.7406a22.60369,22.60369,0,0,0,22.60965.00171L868.49484,674.1375Z"/>
  <g class="cls-6">
    <ellipse class="cls-5" cx="851.05177" cy="694.25868" rx="36.30951" ry="20.86753"/>
  </g>
  <polygon class="cls-7" points="142.708 660.153 282.157 786.389 633.678 581.271 444.189 486.159 142.708 660.153"/>
  <g class="cls-8">
    <ellipse class="cls-5" cx="245.46427" cy="719.46101" rx="69.42869" ry="39.90155"/>
  </g>
  <g>
    <g>
      <path class="cls-2" d="M470.17748,451.55182,126.82841,649.78142l-11.46524-6.61724V320.34007L458.71224,122.099l11.46524-2.15874Z"/>
      <polygon class="cls-9" points="466.336 125.411 462.395 127.685 462.4 446.121 122.993 642.065 122.994 646.471 466.336 448.251 466.336 125.411"/>
      <path class="cls-10" d="M111.5053,317.01662v349.352l366.319-211.48426V105.51181Zm11.48824,6.63259L466.336,125.4105l0,322.84092L122.99354,646.4708Z"/>
    </g>
    <polygon class="cls-11" points="350.931 510.473 345.931 513.36 345.931 194.944 350.931 192.057 350.931 510.473"/>
    <polygon class="cls-12" points="239.462 574.826 234.462 577.713 234.462 259.297 239.462 256.41 239.462 574.826"/>
    <g>
      <g>
        <path class="cls-13" d="M177.09155,319.0379V643.45261a2.17526,2.17526,0,0,1-2.68994,2.1l-13.19995-3.28-7.76-1.93a.33505.33505,0,0,0-.32007.06l-1.08008-.31994V315.253l23.31006,5.92491Z"/>
        <path class="cls-14" d="M161.20166,328.1579V652.78257a2.005,2.005,0,0,1-.36011,1.04,2.13014,2.13014,0,0,1-2.32007.9l-20.97-5.21a.35592.35592,0,0,0-.40991.16.36822.36822,0,0,0-.02.4l-.97-.26V323.89789l23.31006,5.5Z"/>
        <polygon class="cls-15" points="135.293 325.465 135.293 336.748 143.328 338.407 144.179 337.131 135.293 325.465"/>
        <path class="cls-16" d="M145.32153,337.4779V661.95261a2.23848,2.23848,0,0,1-.35986,1.04,2.13718,2.13718,0,0,1-1.79.97,2.00335,2.00335,0,0,1-.54-.06994l-21.68994-5.4a.88431.88431,0,0,1-.67993-.86V333.21789l23.30981,5.5Z"/>
        <polygon class="cls-15" points="151.176 316.294 151.176 327.577 159.211 329.236 160.062 327.96 151.176 316.294"/>
        <polygon class="cls-15" points="166.36 306.606 166.36 317.888 175.246 320.184 176.211 318.987 166.36 306.606"/>
        <path class="cls-17" d="M143.17036,339.56172a2.23449,2.23449,0,0,1-.53634-.0661l-21.69444-5.404a.88879.88879,0,0,1,.42907-1.725l21.69444,5.404a.38828.38828,0,0,0,.40537-.60931L135.72708,326.785a2.16559,2.16559,0,0,1,2.25824-3.397l20.96092,5.21279a.38816.38816,0,0,0,.40475-.60931l-7.74138-10.37631a2.16579,2.16579,0,0,1,2.25886-3.397l20.9603,5.21279a.38822.38822,0,0,0,.40538-.609l-8.6979-11.649a.88858.88858,0,1,1,1.42442-1.0627l8.6979,11.64868a2.16588,2.16588,0,0,1-2.25887,3.397l-20.9603-5.21279a.38836.38836,0,0,0-.40537.60931l7.74138,10.37631a2.16568,2.16568,0,0,1-2.25824,3.397L137.55625,325.113a.36408.36408,0,0,0-.41723.16152.36865.36865,0,0,0,.01248.44779l7.74138,10.37631a2.1676,2.1676,0,0,1-1.72252,3.46313Z"/>
      </g>
      <g>
        <path class="cls-18" d="M486.08694,140.26613V464.68084a2.17526,2.17526,0,0,1-2.68994,2.1l-13.19995-3.28-7.76-1.93a.33505.33505,0,0,0-.32007.06l-1.08008-.31994V136.48124l23.31006,5.92491Z"/>
        <path class="cls-19" d="M470.19705,149.38613V474.0108a2.005,2.005,0,0,1-.36011,1.04,2.13014,2.13014,0,0,1-2.32007.9l-20.97-5.21a.35592.35592,0,0,0-.40991.16.36822.36822,0,0,0-.02.4l-.97-.26V145.12612l23.31006,5.5Z"/>
        <polygon class="cls-15" points="444.288 146.694 444.288 157.976 452.323 159.635 453.174 158.359 444.288 146.694"/>
        <path class="cls-20" d="M454.31692,158.70613V483.18084a2.23848,2.23848,0,0,1-.35986,1.04,2.13718,2.13718,0,0,1-1.79.97,2.00335,2.00335,0,0,1-.54-.06994l-21.68994-5.4a.8843.8843,0,0,1-.67993-.86V154.44612l23.30981,5.5Z"/>
        <polygon class="cls-15" points="460.172 137.523 460.172 148.805 468.206 150.465 469.058 149.188 460.172 137.523"/>
        <polygon class="cls-15" points="475.355 127.834 475.355 139.116 484.241 141.412 485.206 140.215 475.355 127.834"/>
        <path class="cls-17" d="M452.16574,160.79a2.23463,2.23463,0,0,1-.53634-.06611l-21.69443-5.404a.88879.88879,0,1,1,.42907-1.725l21.69444,5.404a.38828.38828,0,0,0,.40537-.60931l-7.74139-10.37631a2.16559,2.16559,0,0,1,2.25825-3.397l20.96092,5.21279a.38817.38817,0,0,0,.40475-.60931L460.605,138.84335a2.1658,2.1658,0,0,1,2.25887-3.397l20.9603,5.21279a.38822.38822,0,0,0,.40537-.609l-8.6979-11.649a.88858.88858,0,0,1,1.42442-1.0627l8.6979,11.64868a2.16588,2.16588,0,0,1-2.25886,3.397l-20.9603-5.21279a.38837.38837,0,0,0-.40538.60931L469.7708,148.157a2.16568,2.16568,0,0,1-2.25824,3.397l-20.96093-5.21279a.36406.36406,0,0,0-.41722.16152.36864.36864,0,0,0,.01247.44779l7.74139,10.37631a2.16761,2.16761,0,0,1-1.72253,3.46314Z"/>
      </g>
    </g>
    <g>
      <path class="cls-21" d="M473.8393,122.085v6.03442l-14.83478,8.56338V129.7636a3.3619,3.3619,0,0,1,1.68116-2.91161l10.70616-6.18013A1.63171,1.63171,0,0,1,473.8393,122.085Z"/>
      <path class="cls-22" d="M131.43505,320.03676v6.03442l-14.83479,8.56338v-6.91923a3.36189,3.36189,0,0,1,1.68117-2.91161l10.70616-6.18013A1.63171,1.63171,0,0,1,131.43505,320.03676Z"/>
      <path class="cls-23" d="M481.57483,128.62938,118.94861,338.03446l-3.92587-6.7998L477.66216,121.822l.00179.0031a1.97733,1.97733,0,0,1,1.95073.20783,6.13758,6.13758,0,0,1,2.78518,4.8041A1.92625,1.92625,0,0,1,481.57483,128.62938Z"/>
      <ellipse class="cls-22" cx="116.98568" cy="334.63456" rx="2.26305" ry="3.92587" transform="translate(-151.64417 103.32537) rotate(-30)"/>
    </g>
  </g>
  <g>
    <g>
      <path class="cls-24" d="M553.8734,497.06886c-2.62966-6.41616-12.6044-11.19641-24.53836-11.19641s-21.9087,4.78025-24.53827,11.19641h-.70019v3.35219c0,8.035,11.2996,14.54861,25.23846,14.54861s25.23855-6.51362,25.23855-14.54861v-3.35219Z"/>
      <ellipse class="cls-25" cx="529.33509" cy="496.5751" rx="25.23852" ry="14.54865"/>
    </g>
    <path class="cls-26" d="M526.02807,279.50242V493.557c0,1.05283,1.48059,1.90631,3.307,1.90631s3.307-.85348,3.307-1.90631V279.50242Z"/>
    <path class="cls-27" d="M494.93672,246.015v31.5326c0,10.91823,15.40062,19.76917,34.39839,19.76917s34.39838-8.85094,34.39838-19.76917V246.015Z"/>
    <path class="cls-28" d="M494.93672,241.37877v31.53261c0,10.91822,15.40062,19.76917,34.39839,19.76917s34.39838-8.85095,34.39838-19.76917V241.37877Z"/>
    <g>
      <ellipse class="cls-15" cx="529.33508" cy="241.37888" rx="34.3984" ry="19.76919"/>
      <path class="cls-29" d="M521.91736,259.14416a33.58085,33.58085,0,0,0,14.83535,0V248.52632H521.91736Z"/>
      <ellipse class="cls-30" cx="529.33508" cy="248.52636" rx="7.41771" ry="4.27591"/>
      <path class="cls-17" d="M529.33507,223.30512c18.03246,0,32.70278,8.10781,32.70278,18.07371s-14.67032,18.07384-32.70278,18.07384-32.70278-8.108-32.70278-18.07384,14.67032-18.07371,32.70278-18.07371m0-1.69546c-18.99762,0-34.39839,8.851-34.39839,19.76917,0,10.91831,15.40077,19.7693,34.39839,19.7693s34.39839-8.851,34.39839-19.7693c0-10.91819-15.40077-19.76917-34.39839-19.76917Z"/>
    </g>
  </g>
  <g>
    <g>
      <path class="cls-31" d="M439.37515,485.73507v69.83a8.734,8.734,0,0,0,4.4,7.59l14.97,8.56,3.29,1.89a1.09158,1.09158,0,0,0,.15.08,9.838,9.838,0,0,0,5.08,1.22v-73.22a18.9578,18.9578,0,0,1,9.49-16.42l117.53-67.62-27.9-15.95-117.53,67.62A18.93648,18.93648,0,0,0,439.37515,485.73507Z"/>
      <path class="cls-32" d="M467.26517,501.68508v73.22a9.90049,9.90049,0,0,0,5.07-1.57l1.7-1.09,120.25-77.28v-77.32l-117.53,67.62A18.9578,18.9578,0,0,0,467.26517,501.68508Z"/>
    </g>
    <path class="cls-33" d="M477.39689,570.07487l237.12,136.65,117.1-75.68-46.62-26.9-190.59-109.98-113.09,13.25a18.20179,18.20179,0,0,0-1.31,1.97,19.30283,19.30283,0,0,0-2.59,9.67Z"/>
    <path class="cls-34" d="M480.00688,509.38487l234.54,135.44,70.45-40.68,35.48-20.49-237.22-136.88-94.36,54.49-1.84,1.06-.01.01a19.17573,19.17573,0,0,0-5.73,5.08A18.20179,18.20179,0,0,0,480.00688,509.38487Z"/>
    <polygon class="cls-35" points="668.799 538.502 599.505 578.397 593.266 574.795 661.491 534.255 668.799 538.502"/>
    <path class="cls-36" d="M559.42246,405.8l.60882-.69659a27.46712,27.46712,0,0,1,17.43537-9.2l13.62683-1.62207a17.12748,17.12748,0,0,1,10.45612,2.099l80.08655,46.11494a31.42526,31.42526,0,0,1,14.8349,34.621L682.6256,534.25515l-26.284,3.06Z"/>
    <path class="cls-37" d="M656.34155,537.31516l13.84546-57.1388a31.42521,31.42521,0,0,0-14.8349-34.621l-74.60742-43.0251a17.23788,17.23788,0,0,0-25.3682,10.87012l-13.96294,57.62352Z"/>
    <polygon class="cls-38" points="656.342 537.315 541.414 471.024 543.594 462.027 658.517 528.34 656.342 537.315"/>
    <path class="cls-39" d="M681.65829,476.33852l.60883-.69659a27.467,27.467,0,0,1,17.43536-9.2l13.62683-1.62207a17.12753,17.12753,0,0,1,10.45612,2.099l80.08656,46.115a31.42529,31.42529,0,0,1,14.8349,34.621l-13.84546,57.13879Z"/>
    <path class="cls-40" d="M778.57738,607.85369l13.84546-57.1388a31.42519,31.42519,0,0,0-14.8349-34.621l-74.60742-43.0251a17.23788,17.23788,0,0,0-25.3682,10.87012L663.64938,541.5624Z"/>
    <polygon class="cls-41" points="778.577 607.854 663.649 541.562 665.83 532.566 780.753 598.878 778.577 607.854"/>
    <path class="cls-42" d="M698.98686,636.53489v69.85a8.72811,8.72811,0,0,0,4.38,7.57l.52.29,15.96,9.13c.01.01.02.01.03.02a14.1689,14.1689,0,0,0,7,1.84v-72.75a18.97011,18.97011,0,0,1,9.49-16.42l115.91-66.68a12.1012,12.1012,0,0,0-4.36-4.46.00979.00979,0,0,0-.01-.01l-6.9-4.08-22.3-13.18-2.54,10.5-107.69995,61.96A18.93647,18.93647,0,0,0,698.98686,636.53489Z"/>
    <path class="cls-43" d="M726.87687,652.4849v72.75a14.03265,14.03265,0,0,0,6.93-1.83l13.2-7.59,99.61-57.31a14.55618,14.55618,0,0,0,7.28-12.6v-70.43a12.29361,12.29361,0,0,0-1.62-6.09l-115.91,66.68A18.97011,18.97011,0,0,0,726.87687,652.4849Z"/>
    <path class="cls-44" d="M846.72437,585.96989v72.535c0,.95508,1.34326,1.72931,3,1.72931s3-.77423,3-1.72931v-72.535Z"/>
    <path class="cls-45" d="M859.011,578.51463l-5.114-2.93457v4.52808L748.686,640.6342a20.3869,20.3869,0,0,0-10.1709,17.59961v62.48384c0,.95508,1.343,1.72937,3,1.72937,1.65673,0,3-.77429,3-1.72937V658.23381a14.36689,14.36689,0,0,1,7.167-12.40137L853.897,587.03062l5.11695-2.94366A3.21328,3.21328,0,0,0,859.011,578.51463Z"/>
    <polygon class="cls-46" points="477.417 542.107 698.872 669.835 698.872 661.983 477.417 534.255 477.417 542.107"/>
  </g>
  <g>
    <path class="cls-47" d="M687.61523,743.10264,414.18459,585.21377a27.95441,27.95441,0,0,0-27.95462-.00169L277.18546,648.16079a9.31814,9.31814,0,0,0-.00229,16.13869L550.57484,822.22539a27.95442,27.95442,0,0,0,27.96151.00228l109.07888-62.98615A9.31813,9.31813,0,0,0,687.61523,743.10264Z"/>
    <path class="cls-15" d="M631.41729,733.14281,431.43617,617.66639a15.72678,15.72678,0,0,0-15.7269-.00095L333.383,665.19038a5.24226,5.24226,0,0,0-.00129,9.07941l199.95342,115.504a15.72678,15.72678,0,0,0,15.73077.00128l82.35141-47.55272A5.24226,5.24226,0,0,0,631.41729,733.14281Z"/>
    <g>
      <path class="cls-48" d="M540.91938,714.59555v69.14383a3,3,0,0,0,4.49939,2.59843l76.37674-44.07194a9,9,0,0,0,4.50185-7.7953V669.70494"/>
      <path class="cls-49" d="M338.59828,597.788v69.14383a3,3,0,0,0,4.49938,2.59843l79.378-45.80375a3,3,0,0,0,1.50062-2.59843V552.89736"/>
      <g>
        <g>
          <path class="cls-50" d="M628.97887,667.49459v13.13707a4.88505,4.88505,0,0,1-2.46384,4.393l-77.49113,44.748a14.71566,14.71566,0,0,1-8.10452,1.9606V647.83611Z"/>
          <path class="cls-51" d="M540.91938,647.83611v83.89716a14.74893,14.74893,0,0,1-6.69962-1.9606l-195.29521-112.782a4.87971,4.87971,0,0,1-2.45334-4.38252h-.01049V602.197Z"/>
        </g>
        <g>
          <path class="cls-52" d="M334.42807,597.80392l.00532,4.55386a5.07782,5.07782,0,0,0,2.5578,4.52578L532.596,719.87555a15.38465,15.38465,0,0,0,15.38863.00125l80.56044-46.51854a5.07614,5.07614,0,0,0,2.56062-4.38962l.00319-4.75807Z"/>
          <path class="cls-53" d="M628.54507,660,432.91318,547.035a15.38474,15.38474,0,0,0-15.38487-.00093l-80.53585,46.49136a5.12825,5.12825,0,0,0-.00126,8.88195L532.596,715.39937a15.38476,15.38476,0,0,0,15.38866.00125l80.56042-46.51853A5.12825,5.12825,0,0,0,628.54507,660Z"/>
        </g>
      </g>
    </g>
  </g>
  <g>
    <g>
      <g>
        <path class="cls-54" d="M280.88577,521.42922s.53075,8.301.19978,13.535-4.22056,11.48786-4.22056,11.48786l-3.41479-.31764-1.2766-21.70213,2.64131-5.8285Z"/>
        <path class="cls-55" d="M283.00339,431.68763l-20.42553-3.40426,13.93219,46.80851-3.12368,46.89362,7.07417,1.36115s11.07354-36.59519,11.04547-52.59519C291.47734,454.41106,283.00339,431.68763,283.00339,431.68763Z"/>
        <path class="cls-56" d="M279.38637,422.15571c-8.55732-16.67021-23.42926-14.764-23.42926-14.764L271.632,463.50094s19.51617-3.0048,17.54157-13.558C288.38224,447.07061,285.27462,433.62641,279.38637,422.15571Z"/>
        <g>
          <path class="cls-57" d="M279.22952,706.08655s3.14317,4.75439,1.36962,9.64363c-1.383,3.81263-8.7726,5.6691-12.43759,2.14318-3.17043-3.05014-2.74395-3.49642-5.84692-7.957-3.24052-4.65833-8.99327-10.87066-9.31915-15.51064-.81266-11.571,14.05724-8.93084,14.05724-8.93084Z"/>
          <path class="cls-55" d="M280.60742,698.66588s.89947,9.65752-.34567,13.51737-8.43521,5.216-12.1002,1.69011c-3.17043-3.05014-2.49772-4.02246-5.60069-8.48307-3.24051-4.65833-7.85657-9.452-8.01532-12.54085-.42631-8.29481,12.74768-8.25519,12.74768-8.25519Z"/>
          <path class="cls-57" d="M261.54016,705.06527s-.50213-5.51064.494-7.94512,8.72732-10.77828,8.72732-10.77828l-7.29.23937s-5.95562,2.37066-7.65958,4.89362-.66489,4.14894-.66489,4.14894Z"/>
          <path class="cls-55" d="M279.63188,526.92626l-.2658,87.47355c3.03525,21.458,1.89795,48.24288.33384,78.01167l.9075,6.2544c-.69392,7.13971-15.672-.55272-15.672-.55272l-.29788-7.617c-10.01185-51.9988-23.5045-89.70213-23.5045-150.66936Z"/>
          <path class="cls-57" d="M280.28,526.70908l-.30069,60.04238c.58526,17.73227-32.368,21.37168-35.25006,7.05918,0,0-2.695-16.59262-3.59621-53.98386Z"/>
          <path class="cls-57" d="M235.71328,730.38307c1.0543.63307,3.02176,4.90659,2.04211,7.82669s-3.80164,4.09077-7.642,4.09077-7.45327-1.2848-13.9477-1.87356c-8.73593-.79195-13.57447.08511-19.16514-2.73849-7.185-3.6288-3.80364-11.70072,2.13277-12.24675,1.79753-.16534,7.21331-.2147,7.21331-.2147l13.89526-3.59423S234.659,729.75,235.71328,730.38307Z"/>
          <path class="cls-55" d="M234.80552,719.91328l-13.91264.07222-15.117,3.71123s-4.907.3274-6.59668.48267c-5.58057.51343-7.68607,6.43729-1.07474,10.117,6.51074,3.624,10.61523,2.27979,18.82715,3.02442,6.105.55322,8.68969,1.311,12.2998,1.311s6.2627-1.10009,7.1836-3.84521S234.80552,719.91328,234.80552,719.91328Z"/>
          <path class="cls-55" d="M207.23114,546.63964c0,49.35815,13.66174,173.34586,13.66174,173.34586l13.91264-.07222-.50877-3.07859s9.45881-44.38111,6.15345-80.89174l7.59206-77.22059Z"/>
          <path class="cls-58" d="M280.28,526.7089c-.23715-11.97872-2.26039-21.87208-5.3617-35.5962l-63.3377,14.79444s-4.34945,14.23263-4.34945,43.2273c0,22.62235,1.76479,49.64716,1.76479,49.64716,1.032,17.59068,35.15227,18.14007,36.97054,3.33979l6.1433-41.753Z"/>
          <path class="cls-54" d="M240.199,406.39131c8.087-1.89617,12.79536-5.84514,13.22337-13.462l.46884-16.89295c.548-6.63352-5.41882-12.89254-13.15946-12.85688-6.76522.03116-13.72214,5.65376-13.69124,13.14818a151.4862,151.4862,0,0,0,1.25917,16.56228C229.39757,400.20516,232.84968,408.11452,240.199,406.39131Z"/>
          <path class="cls-59" d="M252.23743,408.66635l-1.24859-8.43408c-1.02944-7.93906-15.77647-1.20013-16.07861,4.41928l-.252,8.74235C239.929,413.9566,247.055,414.66435,252.23743,408.66635Z"/>
          <path class="cls-60" d="M249.38637,408.45358c21.79219-5.65493,31.37885,11.31915,28.78723,31.14894L273.829,482.99114s4.82681,20.21707,6.15805,34.41555c.89873,10.45115-9.17926,19.38281-21.44374,23.55753-17.199,5.85442-52.37382-1.70212-50.84191-15.95744,1.25121-12.12766,8.74881-45.6383,8.74881-45.6383-2.068-10.78724-4.18144-26.79311-5.13179-51.25527C216.55246,420.83656,228.95671,413.755,249.38637,408.45358Z"/>
          <path class="cls-55" d="M133.07531,457.62576c-2.04737-.8635-3.60173.94553-2.53393,2.46189l5.53854,8.22989c1.70324,2.605,9.93772,5.28638,12.633,5.73049l7.64914,1.08045c3.7171.60511,6.45365-5.92162,3.116-10.70534l-5.57981-7.56367a6.236,6.236,0,0,0-2.19353-2.09742l-4.86242-2.7669a1.95707,1.95707,0,0,0-2.27485,3.15785l3.86221,4.02964-2.71166.78246-6.8493-.21094Z"/>
          <path class="cls-55" d="M211.70814,430.78484l-24.98547,35.01971-26.662-.41132-4.31682,9.64793s29.03647,11.10947,36.7661,7.06283,22.97582-19.52467,28.34043-28.85106S220.14088,418.59295,211.70814,430.78484Z"/>
          <path class="cls-61" d="M211.31841,428.11316s-10.73094,15.13473-10.85106,15.48019c-8.37626,11.14252,8.89361,27.617,17.06383,17.74468.76239-.92122,6.84862-9.26745,6.84862-9.26745C234.03294,434.71548,219.19075,416.58124,211.31841,428.11316Z"/>
        </g>
      </g>
      <path class="cls-57" d="M217.24689,720.90739a12.12306,12.12306,0,0,0-3.14349,5.61729,11.95193,11.95193,0,0,0,2.405,10.88607l5.90092.5479-17.52017-.404-5.20526-1.14177s.43657-11.60821,3.78764-12.98055S217.24689,720.90739,217.24689,720.90739Z"/>
    </g>
    <path class="cls-62" d="M294.8355,445.13313c-.679-4.4963-5.29936-9.94657-8.14038-14.9524-3.43069-6.04489-.12456-16.07637-3.56472-23.36679-4.524-9.58736-15.201-11.84226-16.56617-21.08017a48.4769,48.4769,0,0,0-4.92535-15.94463c-.13813-.271-.27072-.54335-.42227-.81134a20.377,20.377,0,0,0-1.527-2.31,11.7575,11.7575,0,0,0-.97886-1.19413l-.00329.00843a21.78435,21.78435,0,0,0-31.81192-.20565,40.08549,40.08549,0,0,0-3.25817,4.52063,18.69857,18.69857,0,0,0-1.05586,2.32147,37.20728,37.20728,0,0,0-2.44677,16.63616c.86036,11.005-3.56977,11.03167-3.93258,23.989-.20065,7.16564,4.95507,14.33275,3.79837,20.85943-1.06052,5.98395-4.47646,12.13316-4.88934,18.28957-.69671,10.38879,3.39769,17.13926,9.34741,20.38672,10.82409,5.908,21.72346,7.43352,34.8732,6.42925,10.46367-.79913,17.02912-2.74732,26.86923-10.62383A25.0163,25.0163,0,0,0,294.8355,445.13313Z"/>
  </g>
  <g>
    <path class="cls-63" d="M851.05183,678.25785c14.34209,0,26.45877,6.34384,26.45877,13.8529,0,7.509-12.11668,13.85284-26.45877,13.85284-14.34221,0-26.45889-6.34385-26.45889-13.85284,0-7.50906,12.11668-13.8529,26.45889-13.8529m0-3.18216c-16.37029,0-29.641,7.62683-29.641,17.03506,0,9.40817,13.27075,17.035,29.641,17.035,16.37017,0,29.64092-7.62682,29.64092-17.035,0-9.40823-13.27075-17.03506-29.64092-17.03506Z"/>
    <g>
      <g>
        <path class="cls-64" d="M823.10749,636.49727v43.57446c0,8.86969,12.51123,16.06,27.94434,16.06,15.43323,0,27.94434-7.19031,27.94434-16.06V636.49727Z"/>
        <ellipse class="cls-15" cx="851.0518" cy="636.49731" rx="27.94426" ry="16.05992"/>
        <path class="cls-65" d="M875.2961,644.47629c-4.82257,4.84517-13.885,8.07533-24.24871,8.07533s-19.42558-3.23016-24.24871-8.07533c3.0734-6.01165,12.76346-10.4083,24.24871-10.4083S872.22271,638.46464,875.2961,644.47629Z"/>
        <path class="cls-17" d="M851.05183,623.4374c13.52112,0,24.94421,5.98071,24.94421,13.05993,0,7.07917-11.42309,13.05988-24.94421,13.05988-13.52124,0-24.94434-5.98071-24.94434-13.05988,0-7.07922,11.4231-13.05993,24.94434-13.05993m0-3c-15.43323,0-27.94434,7.19024-27.94434,16.05993,0,8.86963,12.51111,16.05988,27.94434,16.05988,15.4331,0,27.94421-7.19025,27.94421-16.05988,0-8.86969-12.51111-16.05993-27.94421-16.05993Z"/>
      </g>
      <g>
        <path class="cls-66" d="M859.63334,521.383c10.27342-3.82415,30.20007-14.81552,24.20314-21.78945S858.928,505.709,859.63334,521.383Z"/>
        <path class="cls-65" d="M848.95228,642.30094c-.57,0-1.268-.94038-1.268-2.03784,0-53.61358-4.83087-88.51461-16.70718-116.823a3.374,3.374,0,0,1,.15429-2.793c.44333-.69143,1.0925-.55911,1.45127.29706,12.197,29.07372,17.40146,64.77243,17.40146,119.37062C849.98414,641.41234,849.52228,642.30094,848.95228,642.30094Z"/>
        <path class="cls-65" d="M853.58,642.30094c-.57,0-1.03186-.8886-1.03186-1.98607,0-50.49632,0-119.65471,13.174-151.057.35844-.85618,1.00794-.9872,1.45093-.29707a3.3727,3.3727,0,0,1,.15463,2.793c-12.71581,30.31128-12.71581,98.6563-12.71581,148.56108C854.61184,641.41234,854.15,642.30094,853.58,642.30094Z"/>
        <path class="cls-65" d="M854.06508,588.09452c-.53193,0-.98335-.78612-1.02748-1.82391-1.71134-40.38305-6.25718-67.83-14.30621-86.37535a3.385,3.385,0,0,1,.13-2.79815c.43794-.7044,1.08846-.58894,1.4533.25037,8.33572,19.20562,13.0318,47.35959,14.77986,88.59882.04616,1.09357-.37663,2.05353-.9446,2.14174A.47263.47263,0,0,1,854.06508,588.09452Z"/>
      </g>
      <path class="cls-65" d="M853.581,603.80545a.52455.52455,0,0,1-.07445-.00476c-.56865-.0715-.79916-.97986-.7584-1.9844,1.28418-31.77955,9.09446-65.29259,21.9147-67.92371.56326-.11678,1.078.60058,1.1437,1.60155.0657,1.00216-.33991,1.9078-.90586,2.02338-11.70518,2.40233-19.068,34.313-20.29154,64.59345C854.57039,603.0726,854.11729,603.80545,853.581,603.80545Z"/>
      <path class="cls-67" d="M860.48979,556.20309c10.16466,2.53689,31.575,2.65047,30.61628-6.08737S868.40343,543.46654,860.48979,556.20309Z"/>
      <path class="cls-68" d="M864.24162,549.64664c17.08454-4.57708,48.78844-21.93976,40.21852-34.05555S865.49711,524.36251,864.24162,549.64664Z"/>
      <path class="cls-69" d="M852.12426,561.91524c13.111-5.7497,36.35769-23.516,28.02017-32.16342S850.03971,541.53067,852.12426,561.91524Z"/>
      <path class="cls-70" d="M848.32174,527.19375c-12.41352-9.28868-32.56114-33.74365-21.641-40.81312S855.53388,506.20767,848.32174,527.19375Z"/>
      <path class="cls-71" d="M842.68841,557.146c-17.297-4.81082-49.3095-22.74048-40.49385-34.95552S841.65821,531.46991,842.68841,557.146Z"/>
      <path class="cls-72" d="M835.69326,532.96254c-9.49519-5.478-27.31851-19.6276-20.24616-25.50814S838.99321,517.62357,835.69326,532.96254Z"/>
      <path class="cls-73" d="M854.8721,516.88145c12.14387-10.83615,31.84358-35.50283,19.59866-41.78S845.11264,495.80936,854.8721,516.88145Z"/>
      <path class="cls-74" d="M850.32794,540.212c9.36165-8.86212,23.65647-30.992,13.95945-35.78344S842.35872,523.571,850.32794,540.212Z"/>
      <path class="cls-75" d="M851.87132,552.63152c-10.57167-5.39906-28.94632-21.2392-21.62313-27.99S854.59165,535.8605,851.87132,552.63152Z"/>
    </g>
    <rect class="cls-76" x="861.04926" y="672.39111" width="37.57777" height="2.00007" transform="translate(167.60407 1522.09216) rotate(-87.42538)"/>
    <rect class="cls-77" x="821.18577" y="654.60225" width="2.00007" height="37.57777" transform="translate(-29.34428 37.51251) rotate(-2.56788)"/>
    <rect class="cls-78" x="850.05592" y="670.84768" width="2" height="37.27637"/>
    <path class="cls-79" d="M878.99611,645.587v7.77a3.429,3.429,0,0,1,0,.74c-.38,7.78-13.02,14.28-27.93994,14.28-14.92,0-27.57007-6.5-27.95008-14.28a3.44956,3.44956,0,0,1,0-.74v-7.76a11.4797,11.4797,0,0,0,0,16.27c5.16,5.86,15.74011,9.87,27.95008,9.87,12.2,0,22.77-4.01,27.93994-9.86005a11.47976,11.47976,0,0,0,0-16.29Z"/>
  </g>
  <g>
    <g>
      <polygon class="cls-80" points="727.569 312.717 727.608 403.419 650.328 358.665 650.289 267.963 727.569 312.717"/>
      <polygon class="cls-81" points="724.262 310.808 724.293 389.436 660.74 352.608 660.709 273.979 724.262 310.808"/>
      <polygon class="cls-82" points="712.906 319.465 712.927 372.769 669.842 347.802 669.821 294.497 712.906 319.465"/>
      <path class="cls-83" d="M723.27059,395.91254,654.65828,356.163l-.0322-80.6935,68.61233,39.74952.03218,80.69348m4.33729,7.5063-.03922-90.70187-77.27987-44.75373.03924,90.70189,77.27985,44.75371Z"/>
      <polygon class="cls-84" points="655.179 265.132 732.459 309.886 727.569 312.717 650.289 267.963 655.179 265.132"/>
      <polygon class="cls-85" points="732.459 309.886 732.482 400.597 727.608 403.419 727.569 312.717 732.459 309.886"/>
    </g>
    <g>
      <polygon class="cls-86" points="792.817 334.878 792.857 393.58 739.825 362.826 739.786 304.124 792.817 334.878"/>
      <polygon class="cls-87" points="789.511 332.969 789.542 379.597 750.237 356.768 750.206 310.14 789.511 332.969"/>
      <path class="cls-88" d="M788.51925,386.07341l-44.3636-25.7495-.0322-48.6935,44.36362,25.74952.03218,48.69348m4.33729,7.5063-.03922-58.70187-53.03116-30.75372.03924,58.70188,53.03114,30.75371Z"/>
      <polygon class="cls-89" points="744.677 301.293 797.708 332.047 792.817 334.878 739.786 304.124 744.677 301.293"/>
      <polygon class="cls-90" points="797.708 332.047 797.731 390.758 792.857 393.58 792.817 334.878 797.708 332.047"/>
    </g>
  </g>
</svg>
