<svg id="Layer_1" data-name="Layer 1" xmlns="http://www.w3.org/2000/svg" xmlns:xlink="http://www.w3.org/1999/xlink" viewBox="0 0 1000 1000">
  <defs>
    <style>
      .cls-1, .cls-32, .cls-40, .cls-47, .cls-51 {
        fill: none;
      }

      .cls-2 {
        fill: url(#linear-gradient);
      }

      .cls-3 {
        fill: #6b483c;
      }

      .cls-4 {
        fill: url(#linear-gradient-2);
      }

      .cls-5 {
        fill: #366d26;
      }

      .cls-6 {
        fill: url(#linear-gradient-3);
      }

      .cls-7 {
        fill: #6e9e4f;
      }

      .cls-8 {
        fill: #b8cbd8;
      }

      .cls-9 {
        fill: #9bb0c4;
      }

      .cls-10 {
        fill: #87a1af;
      }

      .cls-11 {
        fill: #c7d8e2;
      }

      .cls-12 {
        fill: #5a9137;
      }

      .cls-13 {
        fill: url(#linear-gradient-4);
      }

      .cls-14 {
        fill: url(#linear-gradient-5);
      }

      .cls-15 {
        fill: #f2f2f2;
      }

      .cls-16 {
        fill: #e2e2e2;
      }

      .cls-17 {
        fill: #fff;
      }

      .cls-18 {
        fill: #303030;
      }

      .cls-19 {
        fill: #424242;
      }

      .cls-20 {
        fill: url(#linear-gradient-6);
      }

      .cls-21 {
        fill: url(#linear-gradient-7);
      }

      .cls-22 {
        fill: #a0674a;
      }

      .cls-23 {
        fill: url(#linear-gradient-8);
      }

      .cls-24, .cls-36 {
        fill: #dd7b19;
      }

      .cls-24 {
        opacity: 0.5;
      }

      .cls-25 {
        fill: #303d49;
      }

      .cls-26 {
        fill: #e48f7c;
      }

      .cls-27 {
        fill: #f49b25;
      }

      .cls-28 {
        fill: #27343d;
      }

      .cls-29 {
        fill: #93514c;
      }

      .cls-30 {
        fill: #cddce8;
      }

      .cls-31 {
        fill: url(#linear-gradient-9);
      }

      .cls-32, .cls-47 {
        stroke: #dd7b19;
      }

      .cls-32, .cls-40, .cls-47, .cls-51 {
        stroke-miterlimit: 10;
      }

      .cls-32 {
        stroke-width: 3.07521px;
      }

      .cls-33 {
        fill: url(#linear-gradient-10);
      }

      .cls-34 {
        fill: #c4ccce;
      }

      .cls-35 {
        fill: #e9f1f4;
      }

      .cls-37 {
        fill: #7a403f;
      }

      .cls-38 {
        fill: url(#linear-gradient-11);
      }

      .cls-39 {
        fill: url(#linear-gradient-12);
      }

      .cls-40, .cls-51 {
        stroke: #565656;
      }

      .cls-40 {
        stroke-width: 1.40306px;
      }

      .cls-41 {
        fill: url(#linear-gradient-13);
      }

      .cls-42 {
        fill: #c93535;
      }

      .cls-43 {
        fill: url(#linear-gradient-14);
      }

      .cls-44 {
        clip-path: url(#clip-path);
      }

      .cls-45 {
        fill: url(#linear-gradient-15);
      }

      .cls-46 {
        fill: url(#linear-gradient-16);
      }

      .cls-47 {
        stroke-width: 7.86953px;
      }

      .cls-48 {
        fill: url(#linear-gradient-17);
      }

      .cls-49 {
        fill: url(#linear-gradient-18);
      }

      .cls-50 {
        fill: url(#linear-gradient-19);
      }

      .cls-51 {
        stroke-width: 3.59047px;
      }
    </style>
    <linearGradient id="linear-gradient" x1="10119.96182" y1="454.66992" x2="10961.33398" y2="454.66992" gradientTransform="matrix(-1, 0, 0, 1, 11070.10341, 0)" gradientUnits="userSpaceOnUse">
      <stop offset="0" stop-color="#e6f4ff"/>
      <stop offset="1" stop-color="#c0e3ff"/>
    </linearGradient>
    <linearGradient id="linear-gradient-2" x1="722.90424" y1="374.47994" x2="782.0254" y2="513.02651" gradientUnits="userSpaceOnUse">
      <stop offset="0" stop-color="#77bf49"/>
      <stop offset="0.99995" stop-color="#366d26"/>
    </linearGradient>
    <linearGradient id="linear-gradient-3" x1="154.78527" y1="560.05828" x2="936.34095" y2="560.05828" gradientUnits="userSpaceOnUse">
      <stop offset="0.00005" stop-color="#9dcc52"/>
      <stop offset="1" stop-color="#649e3f"/>
    </linearGradient>
    <linearGradient id="linear-gradient-4" x1="154.78527" y1="523.01438" x2="936.34095" y2="523.01438" xlink:href="#linear-gradient-3"/>
    <linearGradient id="linear-gradient-5" x1="798.43447" y1="328.23375" x2="907.61493" y2="578.34219" xlink:href="#linear-gradient-2"/>
    <linearGradient id="linear-gradient-6" x1="373.07721" y1="382.44815" x2="684.05593" y2="854.27793" gradientUnits="userSpaceOnUse">
      <stop offset="0.00005" stop-color="#e6ac72"/>
      <stop offset="1" stop-color="#b3703f"/>
    </linearGradient>
    <linearGradient id="linear-gradient-7" x1="471.80298" y1="317.37889" x2="782.7817" y2="789.20868" xlink:href="#linear-gradient-6"/>
    <linearGradient id="linear-gradient-8" x1="472.47024" y1="377.9168" x2="554.65025" y2="574.20662" gradientUnits="userSpaceOnUse">
      <stop offset="0.00005" stop-color="#ffcb48"/>
      <stop offset="1" stop-color="#e68e2b"/>
    </linearGradient>
    <linearGradient id="linear-gradient-9" x1="509.00621" y1="362.62041" x2="591.18621" y2="558.91023" xlink:href="#linear-gradient-8"/>
    <linearGradient id="linear-gradient-10" x1="527.90274" y1="355.49203" x2="609.72484" y2="550.92698" xlink:href="#linear-gradient-8"/>
    <linearGradient id="linear-gradient-11" x1="514.78516" y1="322.83867" x2="566.08224" y2="395.07332" gradientUnits="userSpaceOnUse">
      <stop offset="0.00005" stop-color="#c6bfbc"/>
      <stop offset="1" stop-color="#a6948d"/>
    </linearGradient>
    <linearGradient id="linear-gradient-12" x1="535.94945" y1="307.80895" x2="587.24653" y2="380.04361" xlink:href="#linear-gradient-11"/>
    <linearGradient id="linear-gradient-13" x1="186.67434" y1="531.00086" x2="167.00011" y2="655.30626" gradientUnits="userSpaceOnUse">
      <stop offset="0" stop-color="#67a63f"/>
      <stop offset="0.99995" stop-color="#366d26"/>
    </linearGradient>
    <linearGradient id="linear-gradient-14" x1="132.31148" y1="104.87306" x2="402.8356" y2="458.70428" gradientTransform="matrix(1, 0, 0, 1, 0, 0)" xlink:href="#linear-gradient"/>
    <clipPath id="clip-path">
      <circle class="cls-1" cx="272.54335" cy="288.28891" r="196.04503"/>
    </clipPath>
    <linearGradient id="linear-gradient-15" x1="72.23054" y1="293.93378" x2="282.53109" y2="796.24402" xlink:href="#linear-gradient-8"/>
    <linearGradient id="linear-gradient-16" x1="165.72692" y1="254.78996" x2="376.02748" y2="757.1002" xlink:href="#linear-gradient-8"/>
    <linearGradient id="linear-gradient-17" x1="214.0836" y1="236.54827" x2="423.46827" y2="736.67088" xlink:href="#linear-gradient-8"/>
    <linearGradient id="linear-gradient-18" x1="180.5154" y1="152.98755" x2="311.78581" y2="337.83772" xlink:href="#linear-gradient-11"/>
    <linearGradient id="linear-gradient-19" x1="234.67532" y1="114.52616" x2="365.94573" y2="299.37633" xlink:href="#linear-gradient-11"/>
  </defs>
  <path class="cls-2" d="M950.11233,562.3607s2.42714-89.31382-36.9293-127.58838-101.191-29.83446-150.323-53.496-63.3827-76.8345-112.94076-112.54122c-54.68805-39.4029-146.59745-38.20853-194.76521-7.155-50.53525,32.57984-78.70778,84.6149-128.98446,112.05477s-124.53069,34.14994-152.8969,43.40629-64.50325,29.24171-64.50325,69.11385V670.65079l841.3429-17.71821Z"/>
  <g>
    <path class="cls-3" d="M766.08,546.14855V490.00712H755.81374v56.15931h.00468c.0154.67356.51671,1.34622,1.51064,1.86184a8.84183,8.84183,0,0,0,7.26072.01172C765.59442,547.519,766.08971,546.83368,766.08,546.14855Z"/>
    <path class="cls-4" d="M716.86142,469.68929a20.916,20.916,0,0,1,5.35147-14.31134,25.54575,25.54575,0,0,1-2.31055-7.97962c-.96822-7.79645,1.64779-14.95212,6.31949-19.20887-.49251-4.95862,1.2741-9.44427,4.67171-11.83967a22.66953,22.66953,0,0,1-.28867-3.6007c0-9.7647,6.08184-17.8205,13.91308-18.91907-.017-.32034-.034-.62551-.034-.94594,0-13.41112,7.05028-24.2743,15.73092-24.2743,7.6276,0,13.9811,8.37623,15.42525,19.46831,3.14274,1.40364,5.58912,5.05015,6.42152,9.62734,4.41684,2.6852,8.375,7.62864,10.53248,13.8231a24.91806,24.91806,0,0,1,.76438,14.96739,12.14577,12.14577,0,0,1,5.06239,10.23758,13.29877,13.29877,0,0,1-1.91944,6.95732v.01527c6.914,3.43289,10.29462,13.0755,7.61059,23.23681a27.522,27.522,0,0,1-5.16442,10.26822c4.298,5.11115,5.0794,13.47221,1.37613,21.45174A25.9927,25.9927,0,0,1,789.40036,510.533a29.85262,29.85262,0,0,1-14.55864,12.20583c-3.95834,5.85884-10.34585,9.18491-16.41048,7.88808a13.03447,13.03447,0,0,1-8.8679-7.12522,28.93522,28.93522,0,0,1-11.34787-6.46907c-6.81221-2.74629-12.87684-9.04756-15.76493-17.3628a27.4368,27.4368,0,0,1-.79838-16.29477A21.129,21.129,0,0,1,716.86142,469.68929Z"/>
    <path class="cls-5" d="M804.11165,466.94487a27.43935,27.43935,0,0,1-5.1611,10.26646c4.301,5.11615,5.08479,13.477,1.37626,21.443a25.9461,25.9461,0,0,1-10.934,11.88026A29.82692,29.82692,0,0,1,774.84589,522.741c-3.95681,5.85437-10.34157,9.185-16.42017,7.88018a13.03213,13.03213,0,0,1-8.86964-7.12478,28.70685,28.70685,0,0,1-11.33561-6.47239c14.45005,2.08382,23.00257-2.50867,23.43566-16.29246,5.56717,2.88245,11.66787-1.647,8.17013-7.85671,11.95738.58444,16.43122-13.44222,8.67076-20.522,13.12908-2.70964,15.56936-18.0513,4.18606-22.59506,8.22934-3.69856,12.15606-11.60152,10.66675-23.26085a12.12673,12.12673,0,0,1,5.06543,10.2322,13.37555,13.37555,0,0,1-1.91156,6.97022c5.31418,2.62666,8.52569,8.92741,8.52569,16.30965A26.95757,26.95757,0,0,1,804.11165,466.94487Z"/>
  </g>
  <path class="cls-6" d="M108.86281,602.7253s75.13369-31.572,116.48865-53.12409S318.66931,479.887,359.71775,458.7118s82.59-30.02162,82.59-30.02162v159.448L122.28938,690.923a10.35043,10.35043,0,0,1-13.51556-9.86637Z"/>
  <polygon class="cls-7" points="342.623 472.807 360.091 480.972 398.162 482.536 417.421 449.865 417.421 383.677 385.397 397.786 380.022 422.196 357.852 435.408 349.566 455.563 342.623 472.807"/>
  <path class="cls-8" d="M124.283,704.23233,508.38849,925.986a42.10143,42.10143,0,0,0,42.1011-.00062L926.24334,709.03886a15.90552,15.90552,0,0,0,.00019-27.54891L529.421,452.37183,124.28235,686.305A10.35042,10.35042,0,0,0,124.283,704.23233Z"/>
  <ellipse class="cls-9" cx="458.82996" cy="762.12336" rx="92.12777" ry="52.947"/>
  <path class="cls-9" d="M809.23,762.04451,416.51153,535.36127l-2.46,1.41032L297.67682,603.96283a8.16578,8.16578,0,0,0-4.05109,7.0683v2.64033a2.7263,2.7263,0,0,0,1.41032,2.39451L678.58038,837.45783Z"/>
  <g>
    <path class="cls-10" d="M529.03529,476.93813,129.80839,707.426l-5.52765-3.19222a10.35043,10.35043,0,0,1,.00121-17.927l394.228-227.59495Z"/>
    <polygon class="cls-11" points="529.035 462.904 129.808 693.392 108.758 681.235 518.51 444.678 529.035 462.904"/>
  </g>
  <path class="cls-12" d="M950.10057,652.93258V683.1244a21.0507,21.0507,0,0,1-10.50787,18.22034l-75.64743,43.77195,2.58936-44.33478Z"/>
  <path class="cls-13" d="M950.10057,652.93258s-26.28268-31.8858-88.15151-87.95457-142.19344-71.1149-189.00857-112.60618S623.9732,428.4083,580.22775,410.08c-47.19544-19.7738-98.44975-22.66563-98.44975-22.66563l-44.19158-49.22171V445.00449L855.20276,707.83614Z"/>
  <path class="cls-12" d="M917.00529,617.42275q-11.76972-11.88535-28.09161-27.4539a78.869,78.869,0,0,0-19.7359-2.44076c-26.51384,0-48.00739,12.35239-48.00739,27.5901s21.49355,27.59009,48.00739,27.59009C894.33953,642.70828,914.96583,631.58119,917.00529,617.42275Z"/>
  <g>
    <path class="cls-3" d="M879.18846,613.34039V491.42988H859.16657V613.37922h.00914c.03,1.46263,1.00772,2.9233,2.94614,4.043a15.65077,15.65077,0,0,0,14.16028.02545C878.24144,616.31623,879.20739,614.82815,879.18846,613.34039Z"/>
    <path class="cls-14" d="M933.34493,447.63783a99.44852,99.44852,0,0,0,.21692-13.27391c-1.24774-24.20854-10.7391-44.01847-22.38118-48.89084.10528-.40695.26493-.78786.34476-1.20551,1.814-9.44914-3.62694-17.9846-12.15286-19.0643-.07231-.009-.14288.00492-.21461-.00318-3.22318-24.18106-15.40554-37.21231-29.98041-37.21231-14.27176,0-26.24472,12.502-29.76407,35.72422-12.70355,6.77058-23.82212,27.01291-27.176,52.11228-.45,3.36606-.70688,6.66906-.85092,9.91769a19.06962,19.06962,0,0,0-11.02544,13.96171,17.56168,17.56168,0,0,0,1.49879,11.28285c-5.45719,6.50768-8.8782,15.68407-8.8782,25.8829a43.772,43.772,0,0,0,1.76661,12.29747c-5.67584,8.34226-8.07819,20.09049-5.72038,32.60951,2.79049,14.817,11.55242,26.95883,22.317,32.90048a47.57723,47.57723,0,0,0,27.40453,22.78437c7.09076,11.3219,18.0705,18.61859,30.42814,18.61859s23.338-7.29669,30.42929-18.61859a47.56752,47.56752,0,0,0,27.34842-22.682c9.10207-3.51443,16.5694-12.19537,18.66-23.08256a28.46448,28.46448,0,0,0-2.89809-19.39229,51.93793,51.93793,0,0,0,8.28123-19.69626C954.64092,473.6341,947.10417,456.09954,933.34493,447.63783Z"/>
    <path class="cls-5" d="M950.98911,492.62378a51.02487,51.02487,0,0,1-8.2928,19.6656,28.45867,28.45867,0,0,1,2.93742,19.429c-2.1322,10.85161-9.57235,19.52359-18.67037,23.07765a47.48547,47.48547,0,0,1-27.34263,22.651c-7.10812,11.32567-18.10232,18.62323-30.42236,18.62323-12.36862,0-23.36225-7.29756-30.47036-18.62323a47.483,47.483,0,0,1-27.39007-22.79333c28.13514,7.54882,46.76268-4.67613,47.81375-34.30845,22.46971,12.01327,48.07532-6.1351,42.03319-32.65,20.35918-6.15217,24.99709-36.60111,7.25042-50.7046,15.31992-11.79653,19.86438-34.3934,2.74768-51.5101,11.6577,4.881,21.13518,24.689,22.3673,48.90385a102.68606,102.68606,0,0,1-.18973,13.26842C947.103,456.088,954.638,473.62137,950.98911,492.62378Z"/>
  </g>
  <g>
    <g>
      <path class="cls-15" d="M406.05311,292.16416V520.12294h.00864a5.11708,5.11708,0,0,0,2.58073,4.402l28.92324,16.7015a15.4467,15.4467,0,0,0,7.63,2.07141V292.16416Z"/>
      <path class="cls-16" d="M445.1957,292.16416v251.1337a15.54319,15.54319,0,0,0,7.90623-2.07141l30.71294-204.40853.51477-44.65376Z"/>
      <path class="cls-17" d="M408.6446,296.56721l28.9187,16.69621a15.53617,15.53617,0,0,0,15.5362,0l28.64123-16.536a5.17874,5.17874,0,0,0,0-8.96984L452.822,271.06136a15.53617,15.53617,0,0,0-15.5362,0l-28.64123,16.536A5.17873,5.17873,0,0,0,408.6446,296.56721Z"/>
    </g>
    <g>
      <polygon class="cls-15" points="816.778 559.975 449.726 348.782 449.726 542.663 793.255 740.263 816.778 559.975"/>
      <polygon class="cls-16" points="769.262 726.427 793.255 740.263 803.301 663.267 803.301 552.203 769.262 532.572 769.262 726.427"/>
      <path class="cls-17" d="M449.73038,348.77667,816.7801,559.97475l32.86665-18.96916c-.505-.35123-1.03189-.68047-1.58076-.99886L508.07585,344.42962l-25.413-14.66593Z"/>
    </g>
    <g>
      <path class="cls-15" d="M788.25811,512.592V740.55074h.00864a5.11708,5.11708,0,0,0,2.58072,4.402l28.92325,16.7015a15.44664,15.44664,0,0,0,7.63,2.07141V512.592Z"/>
      <path class="cls-16" d="M827.40069,512.592V763.72566a15.54314,15.54314,0,0,0,7.90623-2.07141l28.63835-16.53756a5.12,5.12,0,0,0,2.58072-4.56595h.00864V512.592Z"/>
      <path class="cls-17" d="M790.8496,516.995l28.91869,16.69621a15.53619,15.53619,0,0,0,15.53621,0l28.64122-16.536a5.17873,5.17873,0,0,0,0-8.96983L835.027,491.48916a15.53619,15.53619,0,0,0-15.53621,0l-28.64122,16.536A5.17874,5.17874,0,0,0,790.8496,516.995Z"/>
    </g>
  </g>
  <g>
    <g>
      <g>
        <g>
          <path class="cls-18" d="M667.4564,735.47543l22.31167-13.145c12.124-15.76078,26.836-25.56861,40.86259-27.73248-.04568-.035.001-.03588.10938-.01386.40673-.06137.80957-.10782,1.21215-.15323,4.44335-1.11405,18.41017-6.48208,18.41017-6.48208v.00009l13.09744-16.52243c0,28.24911,12.53808,59.09336,24.2313,82.0976l.63208-.45259,1.12167,10.35913c-.71666.35708-8.04315-4.11444-8.62834-4.98434a159.74069,159.74069,0,0,1-18.0836-29.58832l-.00061.00017c-8.49054-16.3139-16.85888-23.69188-32.0343-21.35112-14.0092,2.16188-28.277,12.51641-39.14394,28.41084-9.03292,13.21219-20.08869,36.401-20.41968,71.85305.07956,4.193.24154,8.45466.44669,12.83492l.30031-.215,1.12167,10.359-7.73565-4.46866a2.23833,2.23833,0,0,1-1.08779-1.51965C658.98856,797.47,660.29371,757.11256,667.4564,735.47543Z"/>
          <path class="cls-19" d="M676.08474,740.45977l22.31167-13.145c12.124-15.76078,26.836-25.56861,40.86259-27.73247-.04567-.035.001-.03589.10938-.01387.40674-.06136.80958-.10782,1.21216-.15323,4.44335-1.11405,18.41017-6.48207,18.41017-6.48207v.00008l13.09744-16.52243c0,28.13856,12.44111,58.8647,24.095,81.83986a1.18505,1.18505,0,0,1-.47123,1.5671l-6.26705,3.61284a159.74069,159.74069,0,0,1-18.0836-29.58832l-.0006.00017c-8.49055-16.3139-16.85888-23.69187-32.0343-21.35111-14.0092,2.16187-28.277,12.51641-39.144,28.41083-9.03291,13.21219-20.08869,36.401-20.41968,71.853.07763,4.09213.22848,8.23736.42645,12.506a2.1509,2.1509,0,0,1-1.06846,1.96171l-6.11766,3.52685C667.58562,803.45281,668.83374,762.36384,676.08474,740.45977Z"/>
        </g>
        <g>
          <path class="cls-18" d="M312.93921,530.84551l22.31167-13.145c12.124-15.76079,26.836-25.56861,40.86259-27.73248-.04567-.035.001-.03588.10938-.01387.40673-.06136.80957-.10781,1.21215-.15323,4.44335-1.114,18.41017-6.48207,18.41017-6.48207v.00009l13.09744-16.52243c0,28.24911,12.53808,59.09335,24.23131,82.0976l.63207-.45259,1.12168,10.35913c-.71667.35708-8.04316-4.11445-8.62835-4.98434a159.74045,159.74045,0,0,1-18.0836-29.58833l-.00061.00018c-8.49054-16.31391-16.85888-23.69188-32.0343-21.35112-14.0092,2.16188-28.277,12.51641-39.14394,28.41084-9.03292,13.21219-20.08869,36.401-20.41968,71.85305.07956,4.193.24154,8.45466.44669,12.83491l.30031-.215,1.12167,10.359-7.73565-4.46866a2.23835,2.23835,0,0,1-1.08779-1.51966C304.47137,592.84,305.77653,552.48263,312.93921,530.84551Z"/>
          <path class="cls-19" d="M321.56756,535.82985l22.31166-13.145c12.124-15.76078,26.836-25.56861,40.8626-27.73248-.04568-.035.001-.03588.10937-.01386.40674-.06137.80958-.10782,1.21216-.15324,4.44335-1.114,18.41017-6.48207,18.41017-6.48207v.00009L417.571,471.78084c0,28.13855,12.44112,58.86469,24.095,81.83985a1.18508,1.18508,0,0,1-.47123,1.56711l-6.26705,3.61284a159.74018,159.74018,0,0,1-18.08361-29.58832l-.0006.00017c-8.49054-16.31391-16.85888-23.69188-32.0343-21.35112-14.0092,2.16188-28.277,12.51641-39.14394,28.41084-9.03292,13.21219-20.0887,36.401-20.41969,71.85305.07763,4.09213.22848,8.23736.42645,12.506a2.15089,2.15089,0,0,1-1.06845,1.96171l-6.11767,3.52686C313.06843,598.82289,314.31656,557.73391,321.56756,535.82985Z"/>
        </g>
        <g>
          <path class="cls-18" d="M300.677,532.58635v-2.88759a8.851,8.851,0,0,1,4.4279-7.66657l90.58706-52.26809v-.82232c0-37.13565,19.28094-99.72965,37.60388-136.14952,1.84771-3.67262,5.69143-5.81217,9.52607-4.3297h0a3.87614,3.87614,0,0,1,2.29635,5.05075c-17.81868,40.77452-38.06642,98.43992-38.06642,135.42847v2.83487a7.87678,7.87678,0,0,1-3.94056,6.82276L305.1082,535.14567A2.9547,2.9547,0,0,1,300.677,532.58635Z"/>
          <polygon class="cls-18" points="451.563 333.488 443.189 328.627 443.78 334.968 451.563 333.488"/>
          <polygon class="cls-18" points="310.002 539.693 302.074 535.096 311.16 531.422 310.002 539.693"/>
          <path class="cls-19" d="M308.58865,537.17341v-2.88759a8.851,8.851,0,0,1,4.4279-7.66657l90.587-52.26809v-.82232c0-37.13565,19.28094-99.72966,37.60388-136.14953,1.84771-3.67262,5.69144-5.81217,9.52607-4.3297l0,0a3.87612,3.87612,0,0,1,2.29634,5.05074c-17.81867,40.77452-38.06641,98.43993-38.06641,135.42848v2.83487a7.87681,7.87681,0,0,1-3.94057,6.82276l-98.003,56.54625A2.95469,2.95469,0,0,1,308.58865,537.17341Z"/>
        </g>
        <g>
          <path class="cls-18" d="M657.75072,738.71492v-2.88759a8.851,8.851,0,0,1,4.4279-7.66657l90.587-52.2681v-.82231c0-37.13566,19.28094-99.72966,37.60389-136.14953,1.84771-3.67262,5.69143-5.81217,9.52607-4.3297l0,0a3.87611,3.87611,0,0,1,2.29634,5.05074c-17.81867,40.77452-38.06641,98.43993-38.06641,135.42848v2.83487A7.87681,7.87681,0,0,1,760.185,684.728l-98.003,56.54625A2.95469,2.95469,0,0,1,657.75072,738.71492Z"/>
          <polygon class="cls-18" points="808.637 539.616 800.263 534.755 800.853 541.096 808.637 539.616"/>
          <polygon class="cls-18" points="667.076 745.822 659.148 741.225 668.234 737.551 667.076 745.822"/>
          <path class="cls-19" d="M665.66239,743.302v-2.88759a8.851,8.851,0,0,1,4.42755-7.66636l90.58741-52.2683v-.82232c0-37.42951,19.58729-100.72188,38.03867-137.00911a7.25674,7.25674,0,0,1,9.09129-3.47014h0a3.95942,3.95942,0,0,1,2.19475,5.28343c-17.79394,40.76089-37.96483,98.27754-37.96483,135.19582v2.83453a7.87738,7.87738,0,0,1-3.94056,6.8231l-98.00294,56.54619A2.9547,2.9547,0,0,1,665.66239,743.302Z"/>
        </g>
      </g>
      <g>
        <path class="cls-20" d="M282.37753,530.812v2.28615a2.36,2.36,0,0,0,1.22117,2.07322L651.99136,747.81756l106.996-68.82674-1.86018-1.0792-368.35-212.61788-2.13,1.22125L285.88486,524.69183A7.07046,7.07046,0,0,0,282.37753,530.812Z"/>
        <path class="cls-21" d="M801.68739,544.00478c-14.589,32.77744-35.23927,95.37358-41.98407,134.50624l-.71259.48639L388.775,465.29381v-.656c0-29.57809,21.4348-99.10473,36.98466-129.81223,1.47561-2.914,4.52437-4.62613,7.57833-3.44982a3.6732,3.6732,0,0,1,.76914.44114Z"/>
        <path class="cls-22" d="M650.70779,745.72738v-2.30011a7.05026,7.05026,0,0,1,3.527-6.10681L757.1152,677.92058v-.655c0-29.58044,17.80082-90.29655,36.98108-129.80989,1.43006-2.94606,4.53352-4.62969,7.588-3.44883l0,0a3.02753,3.02753,0,0,1,1.82916,4.02317c-18.02305,35.01137-37.34951,99.77228-37.34951,129.23554v2.25812a6.27428,6.27428,0,0,1-3.13887,5.43468L654.23749,747.766A2.35357,2.35357,0,0,1,650.70779,745.72738Z"/>
      </g>
    </g>
    <path class="cls-22" d="M386.64718,466.515,756.048,679.7718l1.0792-1.86018,1.05078-1.83175L388.80559,462.8514c-.01422.61059-.02843,1.207-.02843,1.7892v.65314Z"/>
    <polygon class="cls-22" points="303.919 514.283 672.283 726.901 676.543 724.445 308.179 511.813 303.919 514.283"/>
    <polygon class="cls-22" points="331.495 498.351 699.845 710.983 704.091 708.541 335.755 495.895 331.495 498.351"/>
    <polygon class="cls-22" points="359.071 482.433 727.421 695.079 731.681 692.608 363.331 479.976 359.071 482.433"/>
    <path class="cls-22" d="M415.84211,357.5452l368.279,212.60358c.5396-1.3348,1.07921-2.66959,1.61872-3.976l-368.32158-212.632Q416.6302,355.50036,415.84211,357.5452Z"/>
    <path class="cls-22" d="M406.55543,383.64448l368.066,212.47592c.45441-1.37744.92294-2.74066,1.39156-4.118l-368.10864-212.49C407.44994,380.88979,406.99562,382.26713,406.55543,383.64448Z"/>
    <path class="cls-22" d="M398.51825,410.46806l367.995,212.43327c.38342-1.40577.76676-2.82576,1.1644-4.24574L399.69686,406.22231C399.29923,407.6423,398.90168,409.06228,398.51825,410.46806Z"/>
    <path class="cls-22" d="M391.98634,438.15781l368.10856,212.49q.3835-2.19381.852-4.43035L392.86673,433.75588C392.55429,435.24685,392.25615,436.70948,391.98634,438.15781Z"/>
  </g>
  <path class="cls-22" d="M534.33251,679.90168l-.67346-4.16639a12.35338,12.35338,0,0,1,5.614-12.42565l56.95423-38.64838a86.46689,86.46689,0,0,0,36.35176-55.182L653.93145,458.7118l-38.58466-22.27322L530.71287,622.90133,510.1017,651.69022V665.915Z"/>
  <g>
    <g>
      <g>
        <path class="cls-23" d="M503.61182,402.02473c-11.935,14.0728-37.59667,46.79015-37.59667,46.79015A75.819,75.819,0,0,0,455.0628,450.073c-4.51466,1.00449-7.13186,9.33467-4.73324,21.76636,1.95223,10.11809,12.83787,16.80656,26.39125,10.40338,8.75588-4.13682,41.16236-37.78583,41.16236-37.78583l18.713-61.08771S519.64662,383.11776,503.61182,402.02473Z"/>
        <path class="cls-24" d="M510.96715,451.44987l-4.92461-26.84472-8.86126,40.32729C501.90508,460.42924,506.73474,455.67553,510.96715,451.44987Z"/>
        <circle class="cls-25" cx="461.79757" cy="460.49817" r="10.42517"/>
        <path class="cls-26" d="M458.00774,447.82363l-1.7499,9.6182s-1.65245,6.15041,6.13371,8.833,9.81449-1.63575,9.81449-1.63575l1.24317-4.3838Z"/>
        <path class="cls-27" d="M482.43932,722.44282c1.68019,6.09878,3.22348,11.83605-.17888,16.96015-4.26107,6.41736-12.64183,5.9272-23.26875,9.80557s-21.19742,10.57219-39.10779,8.1578-16.34216-18.22509-11.25149-23.11221l24.25024-9.66014,16.4011-13.91477S478.704,714.19337,482.43932,722.44282Z"/>
        <path class="cls-28" d="M475.99517,704.00009c3.73531,8.24945,9.81,23.61056,5.83276,30.20761s-12.20932,6.86952-22.83624,10.74789-21.19742,10.57219-39.10779,8.15781-16.17864-18.01322-7.24092-21.911L432.88265,720.341l16.4011-13.91476S472.25985,695.75064,475.99517,704.00009Z"/>
        <path class="cls-29" d="M488.03144,600.4274l-11.70331-64.90413-46.49888,20.15242c-18.015,9.55277-25.64854,25.16872-18.05867,47.80748L450.85407,704.158l-8.724,11.07947c1.42324,3.9452,7.72508,6.43528,7.72508,6.43528s24.778-6.274,24.70636-15.13746l-2.29-5.2344c-8.11331-34.13262-.67521-55.3934-11.92916-97.00684Z"/>
        <path class="cls-28" d="M433.04766,664.0252l8.08685,18.7043c4.26794,7.89257,29.53852.87775,27.97263-9.95187l-2.66487-21.90214Z"/>
        <path class="cls-30" d="M442.13011,715.23741c1.42324,3.94537,7.72506,6.43521,7.72506,6.43521s24.778-6.27379,24.70639-15.13728l-2.29014-5.23446c-7.33465,7.35167-15.02317,8.61223-22.98772,5.12534Z"/>
        <path class="cls-27" d="M432.88265,720.341c-2.024,2.60747,3.79493,8.63676,9.50915,6.45576l19.09675-9.051c-1.7283-8.60523-10.41638-15.11444-15.97793-8.70231Z"/>
        <path class="cls-28" d="M535.96437,597.1794l-24.83626-80.19419-83.40962,35.40933c-19.84244,9.07295-26.06774,34.07685-18.86581,52.94225l23.61922,64.03556c5.29915,15.82446,39.82079,7.11006,37.90151-9.81449l-6.42559-49.80447Z"/>
        <path class="cls-27" d="M506.16418,748.33415s2.119,16.39956.95325,22.0316c-1.4609,7.05819-6.12357,12.126-7.15513,16.82421s-2.11844,14.53327-10.93,20.34983c-16.97893,11.20789-33.90347-1.66-27.56057-16.41221l7.26488-11.30217,13.8099-32.904C484.8013,738.29066,505.24818,739.16314,506.16418,748.33415Z"/>
        <path class="cls-28" d="M506.16418,744.2775s2.119,16.39956.95325,22.0316c-1.4609,7.05818-6.12357,12.126-7.15513,16.8242s-3.15328,15.21765-10.93,20.34984c-16.9802,11.20595-33.729-1.18019-26.55843-14.6641l6.26274-13.05028,13.8099-32.904C484.8013,734.234,505.24818,735.10649,506.16418,744.2775Z"/>
        <path class="cls-29" d="M497.49918,625.80838c-2.53,5.05992-10.98938,19.06215-11.40018,29.40806l.39258,80.60969-4.55359,13.428c-2.13015,9.215,18.11941,3.85926,18.11941,3.85926s3.07406-5.16533,3.73983-6.77162.16029-5.87537.16029-5.87537l-.45416-3.986c3.82726-15.86425,18.75309-42.02314,20.9812-71.31864l10.0956-13.26046C543.66567,642.81358,505.34738,610.112,497.49918,625.80838Z"/>
        <path class="cls-28" d="M484.34924,692.542l1.07306,18.94475c.30534,9.05182,24.42717,12.10521,27.44473,1.82475l6.1195-20.53151Z"/>
        <path class="cls-30" d="M500.0574,753.11342s3.07408-5.16539,3.7399-6.77157c.6657-1.60642.16017-5.87537.16017-5.87537-6.9971,6.70084-18.55639,3.69106-18.81813-.36564l-3.20134,9.1533C479.80778,758.46925,500.0574,753.11342,500.0574,753.11342Z"/>
        <path class="cls-27" d="M481.72319,749.20835c1.33335-7.83488,17.96343-3.78583,18.33421,3.90507l-8.41867,14.48985c-2.31258,3.60956-16.12848,1.50489-14.46007-3.40229Z"/>
        <path class="cls-25" d="M516.76383,507.51926,494.426,524.61686l22.57361,48.9277S491.65573,619.8637,485.98935,638.533c-5.37647,17.7142-2.8616,58.71247-2.8616,58.71247.26012,14.918,31.96018,16.03033,34.87866,6.3467l12.236-39.172,50.73609-47.6108c17.44191-17.42656,26.50983-28.06983,26.50983-54.031,0-28.51014-5.36251-41.736-5.36251-41.736Z"/>
        <path class="cls-31" d="M607.82674,544.66267c-.78182-17.51276-2.87325-19.32565-6.222-37.81644L614.76322,433.988a24.40886,24.40886,0,0,0-2.48071-6.85465c-4.75283-9.94963-14.16465-18.57963-27.66072-27.21263h0a196.31581,196.31581,0,0,0-35.20122-16.00845q-1.6964.155-3.40605.29131c-20.10672-3.40931-38.3978,5.85385-37.45869,29.10986-7.692,26.51014-2.98111,51.11055,1.0755,75.14512l-8.11327,25.67035c-6.23926,11.03576,7.04395,27.94038,26.75926,38.72238,28.52738,15.60152,74.35879-4.07761,74.35879-4.07761S607.47862,544.82534,607.82674,544.66267Z"/>
        <path class="cls-32" d="M529.7184,475.96152c-1.16809,11.51877-1.97706,41.002-2.81356,69.11058"/>
        <path class="cls-24" d="M586.076,513.60547l-28.81158,38.25471c7.00994-.22674,16.587.81619,23.55989-.55223l24.0955-28.28043-23.744-63.391Z"/>
        <path class="cls-33" d="M614.9792,434.96207c-5.71984-22.81662-36.83468-7.90975-33.80339,24.67448l13.79861,59.90124-31.82135,28.8546c-9.24744,10.556,1.57031,26.89171,12.43168,22.96591,0,0,48.28585-18.36389,54.176-41.87516C633.13752,516.00483,621.3227,460.26653,614.9792,434.96207Z"/>
        <ellipse class="cls-25" cx="569.42239" cy="558.74359" rx="7.9695" ry="11.13727" transform="translate(-94.57181 116.53554) rotate(-10.79478)"/>
      </g>
      <path class="cls-15" d="M488.23942,542.99189l61.14081,35.24941a3.39855,3.39855,0,0,0,4.90932-4.05521L517.326,467.31917a9.85973,9.85973,0,0,0-4.39349-5.31885l-70.12863-40.43114,39.52193,114.26358A13.27115,13.27115,0,0,0,488.23942,542.99189Z"/>
      <polygon class="cls-34" points="497.68 463.704 542.695 556.876 545.64 553.917 513.121 463.704 497.68 463.704"/>
      <path class="cls-29" d="M448.64786,438.12739l-2.13245-6.028-1.77817,1.14419a6.66728,6.66728,0,0,0-2.67779,3.18983,11.29544,11.29544,0,0,0-.70161,3.16908c-.28706,3.88826,1.003,11.1455,2.05529,15.68311,1.54185,6.64893,6.60663,10.37478,13.25545,8.83295,3.32434-.7709,7.48974-1.13928,9.16308-3.823,1.67327-2.684.85484-7.68282.08388-11.00741C464.88747,444.85479,455.5023,440.40194,448.64786,438.12739Z"/>
    </g>
    <path class="cls-29" d="M568.87,549.77119s-10.08215-4.21042-14.34124-4.61537a41.18391,41.18391,0,0,0-10.01488.791l1.79212,5.18277-4.71912,4.848-9.8882.9525a3.08137,3.08137,0,0,0-1.97972,5.15528c3.8336,4.1406,9.596,9.66625,13.46116,10.17959,8.504,1.12944,27.25538-4.87751,27.25538-4.87751C575.85191,567.322,575.1408,552.70156,568.87,549.77119Z"/>
    <path class="cls-15" d="M427.51723,424.76914l68.42868,39.45107a4.773,4.773,0,0,0,2.659.63007l12.01711,2.1099a6.81982,6.81982,0,0,1,5.21659,4.35026l.93394,2.52385-3.14992-10.13-3.51737-3.33393-67.30135-38.80113-14.72981.85A1.26024,1.26024,0,0,0,427.51723,424.76914Z"/>
    <g>
      <path class="cls-35" d="M544.951,389.78638c-15.58342,25.14137-18.40068,59.05211-15.84069,91.35829l44.7085-64.12446,1.78007-23.99009Z"/>
      <path class="cls-29" d="M540.4877,394.23286c-3.1357,8.13019.47107,19.84228,2.773,26.27441,14.40928-1.56289,27.19281-10.78854,36.3414-19.94369-3.27043-2.63264-9.36316-10.76056-12.13011-11.65948l-17.74512-2.10477Z"/>
      <path class="cls-36" d="M529.11037,481.1447s-14.82768-46.06763-5.15722-73.453a46.84827,46.84827,0,0,1,23.1944-26.33765l8.05439-1.05428,2.64532,3.09115s-9.94584,3.58447-14.36356,10.45881C526.80665,413.13338,529.11037,481.1447,529.11037,481.1447Z"/>
      <path class="cls-37" d="M544.44621,399.22464c.45878,3.93377,3.35022,5.76816,7.94319,6.55155,8.73023,1.489,21.807-6.29632,20.51044-13.57839l-2.60353-22.20028-24.32615,6.53414Z"/>
      <path class="cls-36" d="M584.50327,401.744c-.98637-7.22615-5.37858-13.66565-7.67973-16.3223a16.84183,16.84183,0,0,0-5.182-3.95376l1.35969,11.90927c-3.16036,25.28035-26.89119,63.65156-43.8908,87.76746,24.22818-18.92352,40.658-36.15418,50.49175-55.43343C584.66348,415.78838,585.63078,410.004,584.50327,401.744Z"/>
    </g>
    <g>
      <g>
        <path class="cls-38" d="M531.51111,333.41939c-9.4519-.95872-13.94022,10.57048-6.47181,16.802-2.873,9.75036,7.73387,16.04717,7.73387,16.04717l.07781-13.71613c.02829-.00162.05576.00022.084-.00188a9.59185,9.59185,0,0,0,8.85354-10.27755C541.39535,336.9902,536.78164,333.954,531.51111,333.41939Z"/>
        <path class="cls-29" d="M552.85111,395.31763c13.33758-3.139,20.38966-10.35851,21.08522-22.92376l1.4594-27.16814c.89492-10.94331-8.95654-21.25985-21.72533-21.19037-11.15976.06072-22.628,9.34524-22.56674,21.70787a249.89043,249.89043,0,0,0,2.09993,27.31912C535.02471,385.12793,540.73014,398.17033,552.85111,395.31763Z"/>
        <path class="cls-39" d="M584.18978,334.03568c1.31594-9.76788-8.39846-16.73617-16.44557-13.61546-4.37822-11.0419-21.33254-10.16106-25.59259-1.273-8.69741-3.79569-23.541,5.819-16.74246,20.68438.88739,2.69968,3.84825,7.33443,9.74525,4.65161.7738,5.277,10.709,9.06771,15.731,1.45413-.79549,8.11707,9.543,10.467,13.52132,7.76924-2.22044,8.11318,4.224,11.33642,5.86,12.5852-1.21976,6.6153-.39213,15.72,1.88618,19.91006a17.616,17.616,0,0,0,5.94951-12.22713,10.88059,10.88059,0,0,0,5.692-6.081,11.67065,11.67065,0,0,0,.772-6.53321,7.57756,7.57756,0,0,0,3.0152-11.83759C590.85968,345.15045,590.20393,336.34,584.18978,334.03568Z"/>
        <g>
          <path class="cls-40" d="M538.27573,367.53356c2.33959-.77005,5.43749-.05987,8.10648,2.25738"/>
          <line class="cls-40" x1="559.1071" y1="368.80633" x2="574.24063" y2="361.89504"/>
          <path class="cls-18" d="M538.888,370.71712c-1.35321,2.65763-8.96863,2.58745-11.45879-.99324-2.91314-4.18891-2.63324-10.48282-.32076-10.91639s8.5097,1.70176,10.315,3.58373A7.54859,7.54859,0,0,1,538.888,370.71712Z"/>
          <path class="cls-18" d="M544.52706,371.11931c-1.22308-2.27386-1.06732-5.69944.80987-7.03614,1.798-1.28034,9.75482-.59154,12.47461,1.55922,1.969,1.55705,4.10924,6.02064,1.52581,9.3315C556.26575,378.91038,547.80985,377.22244,544.52706,371.11931Z"/>
        </g>
      </g>
      <path class="cls-29" d="M571.74524,376.24193c4.74656-.38121,8.20992-7.32967,7.77734-12.71584s-5.46015-9.54457-9.34386-6.78921C565.30342,360.19575,566.99867,376.62314,571.74524,376.24193Z"/>
    </g>
  </g>
  <path class="cls-10" d="M108.75767,681.23539l21.05072,12.15677V707.426l-10.5274-6.07957a21.05071,21.05071,0,0,1-10.52332-18.22928Z"/>
  <path class="cls-41" d="M130.364,636.98777c12.18665,10.11721,45.27283,9.16087,51.506-10.00243,10.462,4.25366,26.44231-7.12783,22.00192-15.18631,19.15645,5.3205,35.13721-9.87652,29.91693-21.7047,31.54781-14.72976,12.5781-43.52931-4.0922-41.40248,1.83646-17.75641-14.19869-26.9601-27.30486-17.04375-8.79511-15.08952-36.21518-10.3472-36.0897,9.86752-23.17669-13.51774-52.78514,6.27252-40.97794,35.81771-6.57578-6.02031-12.0964-3.12725-16.55478,1.50115v61.29557C114.70705,640.46924,121.86315,639.575,130.364,636.98777Z"/>
  <g>
    <g>
      <g>
        <path class="cls-42" d="M272.54346,93.88135a193.74321,193.74321,0,1,1-75.667,15.27,193.17293,193.17293,0,0,1,75.667-15.27m0-17.54248c-117.05713,0-211.9502,94.89306-211.9502,211.95019,0,117.05664,94.89307,211.9502,211.9502,211.9502,117.05664,0,211.95019-94.89356,211.95019-211.9502,0-117.05713-94.89355-211.95019-211.95019-211.95019Z"/>
        <circle class="cls-43" cx="272.54335" cy="288.28891" r="196.04503"/>
      </g>
      <circle class="cls-42" cx="96.42821" cy="179.94767" r="62.61491"/>
    </g>
    <g class="cls-44">
      <g>
        <g>
          <g>
            <path class="cls-45" d="M151.92256,355.62655C121.38064,391.63916,55.7118,475.36362,55.7118,475.36362s-16.47417.649-28.02731,3.21957S9.43389,502.47083,15.572,534.28382c4.99579,25.89242,32.8524,43.00836,67.53583,26.62248,22.40651-10.5862,105.33545-96.69481,105.33545-96.69481L236.33037,307.8866S192.956,307.24317,151.92256,355.62655Z"/>
            <path class="cls-24" d="M170.745,482.10664l-12.6022-68.69626L135.46665,516.60883C147.555,505.085,159.91418,492.9202,170.745,482.10664Z"/>
            <circle class="cls-25" cx="44.91893" cy="505.26145" r="26.67825"/>
            <path class="cls-26" d="M35.22066,472.827l-4.478,24.6132s-4.22867,15.73906,15.6963,22.604,25.11551-4.18591,25.11551-4.18591L74.73573,504.64Z"/>
            <path class="cls-29" d="M112.052,863.34361,82.103,697.25243-36.88876,748.823C-82.98968,773.26871-102.524,813.23028-83.10131,871.1634L16.91424,1128.79274l-22.3249,28.35262c3.64212,10.09585,19.76867,16.468,19.76867,16.468s63.40745-16.05539,63.22415-38.73712l-5.86029-13.39494c-20.76216-87.34617-1.72787-141.753-30.527-248.24278Z"/>
            <path class="cls-28" d="M-28.65279,1026.09186l20.69446,47.86475c10.92175,20.19726,75.58977,2.24618,71.58261-25.46707l-6.81948-56.0481Z"/>
            <path class="cls-28" d="M234.71349,855.0319,171.15693,649.81309l-213.44717,90.6133c-50.77728,23.21789-66.70795,87.20345-48.27805,135.48047l60.44212,163.86849c13.56065,40.49515,101.90234,18.1948,96.99086-25.11551L50.42146,887.209Z"/>
            <path class="cls-29" d="M136.28016,928.29413c-6.47422,12.94844-28.12208,48.78047-29.17332,75.25592l1.00462,206.28207-11.65273,34.36264c-5.45112,23.58147,46.368,9.87593,46.368,9.87593s7.86659-13.21819,9.57031-17.32873.41018-15.03519.41018-15.03519l-1.1622-10.20028c9.794-40.597,47.9896-107.53818,53.69139-182.506l25.83488-33.93385C254.42131,971.81082,156.36389,888.12668,136.28016,928.29413Z"/>
            <path class="cls-25" d="M185.57886,625.5895l-57.163,43.75317,57.76638,125.20712s-64.85557,118.53176-79.356,166.30705c-13.75853,45.331-7.32292,150.24657-7.32292,150.24657.66565,38.17558,81.78686,41.022,89.2553,16.24136l31.31219-100.24195L349.90568,905.26565c44.63424-44.595,67.83927-71.83133,67.83927-138.26654,0-72.95812-13.7228-106.80339-13.7228-106.80339Z"/>
            <path class="cls-46" d="M418.611,720.64037c-2.00068-44.81557-7.3527-49.4548-15.92221-96.77315l33.67284-186.44593a62.46291,62.46291,0,0,0-6.3482-17.54121c-12.16261-25.46132-36.24767-47.5457-70.78444-69.63775h0a502.37559,502.37559,0,0,0-90.08072-40.966q-4.34112.39675-8.71617.74545c-51.45357-8.72449-98.26086,14.98016-95.85767,74.49281-19.68406,67.84009-7.62872,130.79311,2.75222,192.29812l-20.762,65.69105c-15.9664,28.24076,18.02563,71.50008,68.47758,99.09146C288.04438,781.51988,405.328,731.16054,405.328,731.16054S417.72013,721.05665,418.611,720.64037Z"/>
            <path class="cls-47" d="M218.72991,544.83252c-2.98918,29.47679-5.05935,104.92511-7.2,176.85558"/>
            <path class="cls-24" d="M362.95019,641.16427,289.22069,739.059c17.93859-.58023,42.4465,2.08866,60.29031-1.41318l61.661-72.37026L350.41062,503.05639Z"/>
            <path class="cls-48" d="M436.91428,439.914c-14.63719-58.38827-94.2608-20.24123-86.50367,63.14258l35.311,153.28867L304.29,730.18481c-23.6644,27.01313,4.01848,68.8165,31.813,58.7703,0,0,123.56461-46.99363,138.63762-107.15952C483.38184,647.30429,453.14746,504.66868,436.91428,439.914Z"/>
            <ellipse class="cls-25" cx="320.33333" cy="756.67376" rx="20.39414" ry="28.50054" transform="translate(-136.05032 73.38569) rotate(-10.79478)"/>
          </g>
          <path class="cls-15" d="M112.58423,716.3648,269.045,806.56887a8.697,8.697,0,0,0,12.563-10.37737l-94.59058-273.475a25.23129,25.23129,0,0,0-11.24305-13.61106L-3.68638,405.64124,97.45116,698.04441A33.9612,33.9612,0,0,0,112.58423,716.3648Z"/>
          <polygon class="cls-34" points="136.742 513.466 251.938 751.896 259.473 744.321 176.257 513.466 136.742 513.466"/>
          <path class="cls-29" d="M11.26851,448.01409l-5.457-15.42582-4.55038,2.928a17.06178,17.06178,0,0,0-6.85253,8.16284,28.90547,28.90547,0,0,0-1.79545,8.10975c-.73458,9.95016,2.5668,28.52162,5.25953,40.13345,3.94565,17.01478,16.90655,26.54932,33.921,22.60374,8.50708-1.97275,19.16644-2.91545,23.44854-9.78314,4.28195-6.86831,2.18757-19.6605.21467-28.1682C52.826,465.22967,28.80917,453.83471,11.26851,448.01409Z"/>
        </g>
        <path class="cls-29" d="M318.91979,733.7132s-25.80045-10.77457-36.69957-11.81087-25.6283,2.02411-25.6283,2.02411l4.58608,13.26282L249.10165,749.5955,223.79751,752.033a7.88528,7.88528,0,0,0-5.06614,13.19248c9.81026,10.59589,24.55647,24.73614,34.44742,26.04979,21.76187,2.89028,69.74716-12.48166,69.74716-12.48166C336.78665,778.62613,334.9669,741.21208,318.91979,733.7132Z"/>
        <path class="cls-15" d="M-42.80528,413.83,132.30531,514.78623a12.21443,12.21443,0,0,0,6.80438,1.61237l30.752,5.39928a17.452,17.452,0,0,1,13.34938,11.13241l2.39,6.4586-8.06073-25.923-9.001-8.5316-172.22572-99.293-37.69392,2.17524A3.225,3.225,0,0,0-42.80528,413.83Z"/>
        <g>
          <path class="cls-35" d="M257.71056,324.30832c-39.87832,64.33735-47.08777,151.11574-40.53668,233.788L331.584,394.00033l4.55526-61.39119Z"/>
          <path class="cls-29" d="M246.2888,335.687c-8.02434,20.80534,1.20548,50.77686,7.09628,67.23682,36.87366-3.99948,69.587-27.60811,92.99849-51.03636-8.36912-6.737-23.96055-27.53652-31.04123-29.83689l-45.41019-5.38615Z"/>
          <path class="cls-36" d="M217.174,558.09639s-37.94438-117.88814-13.19746-187.96791c17.44412-49.39929,59.355-67.39867,59.355-67.39867l20.61139-2.69793,6.76943,7.91034s-25.45165,9.17274-36.75668,26.76433C211.27866,384.05385,217.174,558.09639,217.174,558.09639Z"/>
          <path class="cls-37" d="M256.41872,348.46105c1.174,10.06662,8.57328,14.76085,20.3268,16.76556,22.34087,3.8105,55.80467-16.11242,52.48669-34.74741l-6.66248-56.811-62.2512,16.721Z"/>
          <path class="cls-36" d="M358.92568,354.90818c-2.52416-18.49189-13.76392-34.97073-19.65262-41.76916a43.0986,43.0986,0,0,0-13.261-10.11777l3.47947,30.47611c-8.08744,64.693-68.81519,162.88582-112.31757,224.599,62.00048-48.42573,104.04483-92.51939,129.20957-141.85543C359.33566,390.84805,361.811,376.04575,358.92568,354.90818Z"/>
        </g>
        <g>
          <g>
            <path class="cls-49" d="M223.31748,180.06387c-24.18763-2.45339-35.67334,27.0501-16.5615,42.99685-7.35207,24.9514,19.79117,41.06508,19.79117,41.06508l.19909-35.09991c.07242-.00414.1427.00057.215-.00481a24.54575,24.54575,0,0,0,22.6564-26.30048C248.61149,189.20167,236.8049,181.43206,223.31748,180.06387Z"/>
            <path class="cls-29" d="M277.927,338.46291c34.1312-8.03287,52.17763-26.50767,53.95757-58.66243l3.73466-69.5239c2.29011-28.00418-22.92-54.40445-55.59563-54.22666-28.55808.15539-57.90564,23.9147-57.74881,55.55094,0,0,.71348,39.0342,5.37376,69.91028S246.90921,345.763,277.927,338.46291Z"/>
            <path class="cls-50" d="M358.12345,181.641c3.36752-24.99623-21.49187-42.82824-42.08461-34.84228-11.204-28.25647-54.59046-26.00239-65.492-3.25769-22.25687-9.71326-60.242,14.891-42.84434,52.93183,2.27083,6.90854,9.84776,18.769,24.93831,11.90357,1.98017,13.504,27.40458,23.20447,40.25587,3.72116-2.03567,20.77176,24.42077,26.78522,34.60139,19.88165-5.68217,20.76181,10.80931,29.01017,14.99583,32.20582-3.12139,16.92872-1.00345,40.2279,4.8268,50.95032,0,0,14.51955-11.64148,15.22492-31.28952,5.87282-2.31884,11.413-7.91467,14.56606-15.5615a29.86524,29.86524,0,0,0,1.97561-16.71863,19.39114,19.39114,0,0,0,7.716-30.29266C375.19186,210.08393,373.5138,187.53785,358.12345,181.641Z"/>
            <g>
              <path class="cls-51" d="M240.62831,267.36284c5.98708-1.97058,13.91467-.15322,20.74467,5.77667"/>
              <line class="cls-51" x1="293.93629" y1="270.61989" x2="332.66333" y2="252.93373"/>
              <path class="cls-18" d="M242.19505,275.50963c-3.46288,6.801-22.95092,6.62136-29.3233-2.54172-7.45479-10.71951-6.73853-26.82578-.82084-27.9353s21.77651,4.35484,26.39645,9.17085C244.32346,260.329,245.275,269.46074,242.19505,275.50963Z"/>
              <path class="cls-18" d="M256.6256,276.53884c-3.12987-5.81885-2.73129-14.585,2.07248-18.00563,4.60124-3.27641,24.96282-1.51378,31.92282,3.99008,5.03869,3.98452,10.51566,15.407,3.90459,23.87952C286.66519,296.47637,265.02635,292.15692,256.6256,276.53884Z"/>
            </g>
          </g>
          <path class="cls-29" d="M326.27757,289.64775c12.14656-.97553,21.00938-18.75679,19.90239-32.54013s-13.97265-24.42478-23.91114-17.37374C309.79279,248.58522,314.131,290.62328,326.27757,289.64775Z"/>
        </g>
      </g>
    </g>
  </g>
  <g>
    <rect class="cls-17" x="89.89837" y="146.52034" width="13.0597" height="66.85466" transform="translate(-98.99905 120.8905) rotate(-45)"/>
    <rect class="cls-17" x="89.89837" y="146.52034" width="13.0597" height="66.85466" transform="translate(37.37104 375.37493) rotate(-135)"/>
  </g>
</svg>
