<svg id="Layer_1" data-name="Layer 1" xmlns="http://www.w3.org/2000/svg" xmlns:xlink="http://www.w3.org/1999/xlink" viewBox="0 0 1000 1000">
  <defs>
    <style>
      .cls-1 {
        fill: url(#linear-gradient);
      }

      .cls-2 {
        fill: #b8cbd8;
      }

      .cls-3 {
        fill: url(#linear-gradient-2);
      }

      .cls-4 {
        fill: #2a3f5e;
        opacity: 0.2;
      }

      .cls-27, .cls-5 {
        fill: #fff;
      }

      .cls-5 {
        opacity: 0.7;
      }

      .cls-6 {
        fill: url(#linear-gradient-3);
      }

      .cls-7 {
        fill: url(#linear-gradient-4);
      }

      .cls-8 {
        fill: url(#linear-gradient-5);
      }

      .cls-9 {
        fill: url(#linear-gradient-6);
      }

      .cls-10 {
        fill: url(#linear-gradient-7);
      }

      .cls-11 {
        fill: url(#linear-gradient-8);
      }

      .cls-12 {
        fill: url(#linear-gradient-9);
      }

      .cls-13 {
        fill: url(#linear-gradient-10);
      }

      .cls-14 {
        fill: url(#linear-gradient-11);
      }

      .cls-15 {
        fill: url(#linear-gradient-12);
      }

      .cls-16 {
        fill: url(#linear-gradient-13);
      }

      .cls-17 {
        fill: url(#linear-gradient-14);
      }

      .cls-18 {
        fill: url(#linear-gradient-15);
      }

      .cls-19, .cls-45 {
        fill: #dd7b19;
      }

      .cls-138, .cls-19, .cls-53 {
        opacity: 0.5;
      }

      .cls-20 {
        fill: url(#linear-gradient-16);
      }

      .cls-21, .cls-47 {
        fill: none;
        stroke-miterlimit: 10;
      }

      .cls-21 {
        stroke: #d8712b;
        stroke-linecap: round;
        stroke-width: 5.2874px;
      }

      .cls-22 {
        fill: url(#linear-gradient-17);
      }

      .cls-23 {
        fill: #e58630;
      }

      .cls-24 {
        fill: url(#linear-gradient-18);
      }

      .cls-25 {
        fill: #5e5e5e;
      }

      .cls-26 {
        fill: url(#linear-gradient-19);
      }

      .cls-28 {
        fill: #ffcb48;
      }

      .cls-29 {
        fill: #4f4f4f;
      }

      .cls-30 {
        fill: url(#linear-gradient-20);
      }

      .cls-31 {
        fill: #777;
      }

      .cls-32 {
        fill: url(#linear-gradient-21);
      }

      .cls-33 {
        fill: url(#linear-gradient-22);
      }

      .cls-34 {
        fill: url(#linear-gradient-23);
      }

      .cls-35 {
        fill: url(#linear-gradient-24);
      }

      .cls-36 {
        fill: url(#linear-gradient-25);
      }

      .cls-37 {
        fill: url(#linear-gradient-26);
      }

      .cls-38 {
        fill: #27343d;
      }

      .cls-39 {
        fill: #93514c;
      }

      .cls-40 {
        fill: #e48f7c;
      }

      .cls-41 {
        fill: #ffbda3;
      }

      .cls-42 {
        fill: #303d49;
      }

      .cls-43 {
        fill: url(#linear-gradient-27);
      }

      .cls-44 {
        fill: #7a403f;
      }

      .cls-46 {
        fill: url(#linear-gradient-28);
      }

      .cls-47 {
        stroke: #dd7b19;
        stroke-width: 2.04615px;
      }

      .cls-48 {
        fill: #e9f1f4;
      }

      .cls-49 {
        fill: url(#linear-gradient-29);
      }

      .cls-50 {
        fill: url(#linear-gradient-30);
      }

      .cls-51 {
        fill: url(#linear-gradient-31);
      }

      .cls-52 {
        fill: url(#linear-gradient-32);
      }

      .cls-53 {
        fill: #913823;
      }

      .cls-54 {
        fill: url(#linear-gradient-33);
      }

      .cls-55 {
        fill: url(#linear-gradient-34);
      }

      .cls-56 {
        fill: url(#linear-gradient-35);
      }

      .cls-57 {
        fill: url(#linear-gradient-36);
      }

      .cls-58 {
        fill: url(#linear-gradient-37);
      }

      .cls-59 {
        fill: url(#linear-gradient-38);
      }

      .cls-60 {
        fill: url(#linear-gradient-39);
      }

      .cls-61 {
        fill: url(#linear-gradient-40);
      }

      .cls-62 {
        fill: url(#linear-gradient-41);
      }

      .cls-63 {
        fill: url(#linear-gradient-42);
      }

      .cls-64 {
        fill: url(#linear-gradient-43);
      }

      .cls-65 {
        fill: url(#linear-gradient-44);
      }

      .cls-66 {
        fill: url(#linear-gradient-45);
      }

      .cls-67 {
        fill: url(#linear-gradient-46);
      }

      .cls-68 {
        fill: url(#linear-gradient-47);
      }

      .cls-69 {
        fill: url(#linear-gradient-48);
      }

      .cls-70 {
        fill: url(#linear-gradient-49);
      }

      .cls-139, .cls-71 {
        fill: #724133;
      }

      .cls-72 {
        fill: url(#linear-gradient-50);
      }

      .cls-73 {
        fill: url(#linear-gradient-51);
      }

      .cls-74 {
        fill: url(#linear-gradient-52);
      }

      .cls-75 {
        fill: url(#linear-gradient-53);
      }

      .cls-76 {
        fill: url(#linear-gradient-54);
      }

      .cls-77 {
        fill: url(#linear-gradient-55);
      }

      .cls-78 {
        fill: url(#linear-gradient-56);
      }

      .cls-79 {
        fill: #9bb0c4;
      }

      .cls-80 {
        fill: url(#linear-gradient-57);
      }

      .cls-81 {
        fill: url(#linear-gradient-58);
      }

      .cls-82 {
        fill: url(#linear-gradient-59);
      }

      .cls-83 {
        fill: url(#linear-gradient-60);
      }

      .cls-84 {
        fill: url(#linear-gradient-61);
      }

      .cls-85 {
        fill: url(#linear-gradient-62);
      }

      .cls-86 {
        fill: url(#linear-gradient-63);
      }

      .cls-87 {
        fill: url(#linear-gradient-64);
      }

      .cls-88 {
        fill: url(#linear-gradient-65);
      }

      .cls-89 {
        fill: url(#linear-gradient-66);
      }

      .cls-90 {
        fill: url(#linear-gradient-67);
      }

      .cls-91 {
        fill: url(#linear-gradient-68);
      }

      .cls-92 {
        fill: url(#linear-gradient-69);
      }

      .cls-93 {
        fill: url(#linear-gradient-70);
      }

      .cls-94 {
        fill: url(#linear-gradient-71);
      }

      .cls-95 {
        fill: url(#linear-gradient-72);
      }

      .cls-96 {
        fill: url(#linear-gradient-73);
      }

      .cls-97 {
        fill: url(#linear-gradient-74);
      }

      .cls-98 {
        fill: url(#linear-gradient-75);
      }

      .cls-99 {
        fill: url(#linear-gradient-76);
      }

      .cls-100 {
        fill: url(#linear-gradient-77);
      }

      .cls-101 {
        fill: url(#linear-gradient-78);
      }

      .cls-102 {
        fill: url(#linear-gradient-79);
      }

      .cls-103 {
        fill: url(#linear-gradient-80);
      }

      .cls-104 {
        fill: url(#linear-gradient-81);
      }

      .cls-105 {
        fill: url(#linear-gradient-82);
      }

      .cls-106 {
        fill: url(#linear-gradient-83);
      }

      .cls-107 {
        fill: url(#linear-gradient-84);
      }

      .cls-108 {
        fill: url(#linear-gradient-85);
      }

      .cls-109 {
        fill: url(#linear-gradient-86);
      }

      .cls-110 {
        fill: url(#linear-gradient-87);
      }

      .cls-111 {
        fill: url(#linear-gradient-88);
      }

      .cls-112 {
        fill: url(#linear-gradient-89);
      }

      .cls-113 {
        fill: url(#linear-gradient-90);
      }

      .cls-114 {
        fill: url(#linear-gradient-91);
      }

      .cls-115 {
        fill: #efefef;
      }

      .cls-116 {
        fill: url(#linear-gradient-92);
      }

      .cls-117 {
        fill: #e2ebf1;
      }

      .cls-118 {
        fill: #d39b71;
      }

      .cls-119 {
        fill: url(#linear-gradient-93);
      }

      .cls-120 {
        fill: url(#linear-gradient-94);
      }

      .cls-121 {
        fill: #d15d2f;
      }

      .cls-122 {
        fill: #e2803d;
      }

      .cls-123 {
        fill: url(#linear-gradient-95);
      }

      .cls-124 {
        fill: #f5fafc;
      }

      .cls-125 {
        fill: #f2883c;
      }

      .cls-126 {
        fill: #ef683f;
      }

      .cls-127 {
        fill: url(#linear-gradient-96);
      }

      .cls-128 {
        fill: url(#linear-gradient-97);
      }

      .cls-129 {
        fill: #c4a16c;
      }

      .cls-130 {
        fill: url(#linear-gradient-98);
      }

      .cls-131 {
        fill: #2b8e6f;
      }

      .cls-132 {
        fill: #14684c;
      }

      .cls-133 {
        fill: #c93535;
      }

      .cls-134 {
        fill: #cfdfe8;
      }

      .cls-135 {
        fill: url(#linear-gradient-99);
      }

      .cls-136 {
        fill: url(#linear-gradient-100);
      }

      .cls-137 {
        fill: url(#linear-gradient-101);
      }

      .cls-138 {
        fill: url(#linear-gradient-102);
      }

      .cls-139 {
        opacity: 0.6;
      }

      .cls-140 {
        fill: url(#linear-gradient-103);
      }

      .cls-141 {
        fill: url(#linear-gradient-104);
      }

      .cls-142 {
        fill: url(#linear-gradient-105);
      }

      .cls-143 {
        fill: url(#linear-gradient-106);
      }

      .cls-144 {
        fill: url(#linear-gradient-107);
      }

      .cls-145 {
        fill: url(#linear-gradient-108);
      }

      .cls-146 {
        fill: url(#linear-gradient-109);
      }

      .cls-147 {
        fill: url(#linear-gradient-110);
      }

      .cls-148 {
        fill: url(#linear-gradient-111);
      }
    </style>
    <linearGradient id="linear-gradient" x1="521.10776" y1="393.55996" x2="942.39445" y2="393.55996" gradientUnits="userSpaceOnUse">
      <stop offset="0" stop-color="#e4edf2"/>
      <stop offset="1" stop-color="#c3d6e6"/>
    </linearGradient>
    <linearGradient id="linear-gradient-2" x1="99.8373" y1="719.89267" x2="942.39445" y2="719.89267" gradientUnits="userSpaceOnUse">
      <stop offset="0.00663" stop-color="#c4d5e6"/>
      <stop offset="1" stop-color="#dae9f2"/>
    </linearGradient>
    <linearGradient id="linear-gradient-3" x1="411.81877" y1="169.43466" x2="226.21362" y2="571.57916" gradientUnits="userSpaceOnUse">
      <stop offset="0" stop-color="#293440"/>
      <stop offset="1" stop-color="#3e4c59"/>
    </linearGradient>
    <linearGradient id="linear-gradient-4" x1="135.5736" y1="466.23963" x2="234.27977" y2="466.23963" gradientUnits="userSpaceOnUse">
      <stop offset="0" stop-color="#62778c"/>
      <stop offset="1" stop-color="#435466"/>
    </linearGradient>
    <linearGradient id="linear-gradient-5" x1="258.09399" y1="395.49873" x2="356.81479" y2="395.49873" xlink:href="#linear-gradient-4"/>
    <linearGradient id="linear-gradient-6" x1="380.62902" y1="324.73734" x2="479.40621" y2="324.73734" xlink:href="#linear-gradient-4"/>
    <linearGradient id="linear-gradient-7" x1="135.5736" y1="398.89972" x2="491.28424" y2="398.89972" gradientUnits="userSpaceOnUse">
      <stop offset="0" stop-color="#849bb2"/>
      <stop offset="1" stop-color="#5b6f82"/>
    </linearGradient>
    <linearGradient id="linear-gradient-8" x1="507.76628" y1="293.55323" x2="125.41967" y2="500.81232" xlink:href="#linear-gradient-4"/>
    <linearGradient id="linear-gradient-9" x1="155.85368" y1="350.14827" x2="390.95354" y2="584.62944" gradientUnits="userSpaceOnUse">
      <stop offset="0" stop-color="#435466"/>
      <stop offset="1" stop-color="#62778c"/>
    </linearGradient>
    <linearGradient id="linear-gradient-10" x1="252.33219" y1="253.41519" x2="487.43205" y2="487.89637" xlink:href="#linear-gradient-9"/>
    <linearGradient id="linear-gradient-11" x1="348.82264" y1="156.67015" x2="583.9225" y2="391.15133" xlink:href="#linear-gradient-9"/>
    <linearGradient id="linear-gradient-12" x1="-67.03292" y1="138.3078" x2="504.30092" y2="138.3078" gradientUnits="userSpaceOnUse">
      <stop offset="0" stop-color="#5b6f82"/>
      <stop offset="1" stop-color="#849bb2"/>
    </linearGradient>
    <linearGradient id="linear-gradient-13" x1="-67.03292" y1="246.6603" x2="504.30092" y2="246.6603" xlink:href="#linear-gradient-12"/>
    <linearGradient id="linear-gradient-14" x1="-67.03292" y1="355.085" x2="504.30092" y2="355.085" xlink:href="#linear-gradient-12"/>
    <linearGradient id="linear-gradient-15" x1="168.6927" y1="350.60108" x2="144.56403" y2="646.6413" gradientUnits="userSpaceOnUse">
      <stop offset="0.00005" stop-color="#ffcb48"/>
      <stop offset="1" stop-color="#e68e2b"/>
    </linearGradient>
    <linearGradient id="linear-gradient-16" x1="445.87066" y1="184.65503" x2="525.06219" y2="477.91117" xlink:href="#linear-gradient-15"/>
    <linearGradient id="linear-gradient-17" x1="-9583.47782" y1="722.05214" x2="-8942.55976" y2="670.02598" gradientTransform="matrix(-1, 0, 0, 1, -8864.3648, 0)" gradientUnits="userSpaceOnUse">
      <stop offset="0.00005" stop-color="#ffb348"/>
      <stop offset="1" stop-color="#e68e2b"/>
    </linearGradient>
    <linearGradient id="linear-gradient-18" x1="551.40394" y1="285.33612" x2="551.40394" y2="536.83617" gradientUnits="userSpaceOnUse">
      <stop offset="0" stop-color="#fff"/>
      <stop offset="0.56988" stop-color="#fff" stop-opacity="0"/>
    </linearGradient>
    <linearGradient id="linear-gradient-19" x1="516.52068" y1="281.66288" x2="583.94309" y2="281.66288" gradientUnits="userSpaceOnUse">
      <stop offset="0.00844" stop-color="#ffc63f"/>
      <stop offset="1" stop-color="#e68a23"/>
    </linearGradient>
    <linearGradient id="linear-gradient-20" x1="533.3977" y1="600.70424" x2="551.75779" y2="600.70424" gradientUnits="userSpaceOnUse">
      <stop offset="0" stop-color="#3e4c59"/>
      <stop offset="1" stop-color="#293440"/>
    </linearGradient>
    <linearGradient id="linear-gradient-21" x1="554.92887" y1="453.43317" x2="589.55226" y2="517.88593" xlink:href="#linear-gradient-7"/>
    <linearGradient id="linear-gradient-22" x1="512.27687" y1="482.82587" x2="549.43043" y2="597.48254" gradientUnits="userSpaceOnUse">
      <stop offset="0" stop-color="#62788c"/>
      <stop offset="1" stop-color="#526575"/>
    </linearGradient>
    <linearGradient id="linear-gradient-23" x1="548.86348" y1="602.9158" x2="654.75886" y2="602.9158" xlink:href="#linear-gradient-4"/>
    <linearGradient id="linear-gradient-24" x1="548.81281" y1="546.36011" x2="737.18635" y2="546.36011" xlink:href="#linear-gradient-4"/>
    <linearGradient id="linear-gradient-25" x1="657.52971" y1="376.81225" x2="747.55051" y2="527.55714" xlink:href="#linear-gradient-22"/>
    <linearGradient id="linear-gradient-26" x1="629.05962" y1="393.28048" x2="700.96972" y2="535.10319" xlink:href="#linear-gradient-7"/>
    <linearGradient id="linear-gradient-27" x1="610.90703" y1="371.84761" x2="635.98327" y2="529.96726" xlink:href="#linear-gradient-15"/>
    <linearGradient id="linear-gradient-28" x1="643.75228" y1="366.63867" x2="668.82852" y2="524.75832" xlink:href="#linear-gradient-15"/>
    <linearGradient id="linear-gradient-29" x1="583.52517" y1="475.93014" x2="650.61507" y2="498.99558" xlink:href="#linear-gradient"/>
    <linearGradient id="linear-gradient-30" x1="581.54121" y1="479.41726" x2="657.46496" y2="479.41726" xlink:href="#linear-gradient-2"/>
    <linearGradient id="linear-gradient-31" x1="580.19212" y1="479.41728" x2="658.58777" y2="479.41728" gradientUnits="userSpaceOnUse">
      <stop offset="0" stop-color="#fff"/>
      <stop offset="0.98888" stop-color="#e6edf2"/>
    </linearGradient>
    <linearGradient id="linear-gradient-32" x1="588.13505" y1="467.65134" x2="651.77099" y2="489.52931" gradientUnits="userSpaceOnUse">
      <stop offset="0" stop-color="#f2883c"/>
      <stop offset="0.16716" stop-color="#e97d35"/>
      <stop offset="0.67368" stop-color="#d26124"/>
      <stop offset="0.96784" stop-color="#c9571e"/>
    </linearGradient>
    <linearGradient id="linear-gradient-33" x1="653.13253" y1="365.15106" x2="678.20878" y2="523.2707" xlink:href="#linear-gradient-15"/>
    <linearGradient id="linear-gradient-34" x1="600.93508" y1="439.17322" x2="609.98051" y2="439.17322" xlink:href="#linear-gradient-32"/>
    <linearGradient id="linear-gradient-35" x1="638.24001" y1="349.30455" x2="660.4716" y2="399.04925" gradientUnits="userSpaceOnUse">
      <stop offset="0.00005" stop-color="#c6bfbc"/>
      <stop offset="1" stop-color="#a6948d"/>
    </linearGradient>
    <linearGradient id="linear-gradient-36" x1="654.44135" y1="342.06395" x2="676.67293" y2="391.80866" xlink:href="#linear-gradient-35"/>
    <linearGradient id="linear-gradient-37" x1="646.97292" y1="666.05587" x2="665.33301" y2="666.05587" xlink:href="#linear-gradient-20"/>
    <linearGradient id="linear-gradient-38" x1="737.18635" y1="616.22666" x2="755.54644" y2="616.22666" xlink:href="#linear-gradient-20"/>
    <linearGradient id="linear-gradient-39" x1="697.46084" y1="553.07905" x2="733.4159" y2="619.39615" xlink:href="#linear-gradient-7"/>
    <linearGradient id="linear-gradient-40" x1="707.80254" y1="532.69986" x2="740.16209" y2="587.03194" xlink:href="#linear-gradient-7"/>
    <linearGradient id="linear-gradient-41" x1="659.40236" y1="556.50113" x2="664.72903" y2="656.10994" xlink:href="#linear-gradient-22"/>
    <linearGradient id="linear-gradient-42" x1="10220.40935" y1="626.60006" x2="10509.60358" y2="758.72678" gradientTransform="translate(-9616.62478)" xlink:href="#linear-gradient-20"/>
    <linearGradient id="linear-gradient-43" x1="10252.37278" y1="558.10142" x2="10541.567" y2="690.22814" gradientTransform="translate(-9616.62478)" xlink:href="#linear-gradient-20"/>
    <linearGradient id="linear-gradient-44" x1="10322.35682" y1="660.39541" x2="10611.55104" y2="792.52213" gradientTransform="translate(-9616.62478)" xlink:href="#linear-gradient-20"/>
    <linearGradient id="linear-gradient-45" x1="10240.4584" y1="552.80022" x2="10535.69809" y2="687.68899" gradientTransform="translate(-9616.62478)" xlink:href="#linear-gradient-20"/>
    <linearGradient id="linear-gradient-46" x1="10337.02948" y1="607.95979" x2="10494.04638" y2="679.69749" gradientTransform="translate(-9616.62478)" xlink:href="#linear-gradient-20"/>
    <linearGradient id="linear-gradient-47" x1="10321.7532" y1="645.58509" x2="10530.45891" y2="645.58509" gradientTransform="translate(-9616.62478)" gradientUnits="userSpaceOnUse">
      <stop offset="0" stop-color="#526575"/>
      <stop offset="1" stop-color="#62788c"/>
    </linearGradient>
    <linearGradient id="linear-gradient-48" x1="10321.75321" y1="611.94319" x2="10530.4589" y2="611.94319" gradientTransform="translate(-9616.62478)" gradientUnits="userSpaceOnUse">
      <stop offset="0" stop-color="#748ea6"/>
      <stop offset="1" stop-color="#96b1cc"/>
    </linearGradient>
    <linearGradient id="linear-gradient-49" x1="-1425.87655" y1="678.70586" x2="-1475.29392" y2="731.13932" gradientTransform="matrix(-1, 0, 0, 1, -1285.14444, 0)" xlink:href="#linear-gradient-15"/>
    <linearGradient id="linear-gradient-50" x1="-1489.45877" y1="622.33198" x2="-1458.83392" y2="639.03645" gradientTransform="matrix(-1, 0, 0, 1, -1285.14444, 0)" xlink:href="#linear-gradient-32"/>
    <linearGradient id="linear-gradient-51" x1="-1472.73615" y1="584.25034" x2="-1451.7009" y2="624.61946" gradientTransform="matrix(-1, 0, 0, 1, -1285.14444, 0)" xlink:href="#linear-gradient-32"/>
    <linearGradient id="linear-gradient-52" x1="-1422.3348" y1="648.6369" x2="-1447.85551" y2="664.87735" gradientTransform="matrix(-1, 0, 0, 1, -1285.14444, 0)" xlink:href="#linear-gradient-32"/>
    <linearGradient id="linear-gradient-53" x1="-1490.07835" y1="641.74061" x2="-1456.20541" y2="655.81567" gradientTransform="matrix(-1, 0, 0, 1, -1285.14444, 0)" xlink:href="#linear-gradient-32"/>
    <linearGradient id="linear-gradient-54" x1="-1477.67718" y1="599.63064" x2="-1460.66338" y2="630.41016" gradientTransform="matrix(-1, 0, 0, 1, -1285.14444, 0)" xlink:href="#linear-gradient-32"/>
    <linearGradient id="linear-gradient-55" x1="-1399.88093" y1="606.60913" x2="-1442.72479" y2="645.1222" gradientTransform="matrix(-1, 0, 0, 1, -1285.14444, 0)" xlink:href="#linear-gradient-32"/>
    <linearGradient id="linear-gradient-56" x1="-1423.74788" y1="585.96402" x2="-1444.00978" y2="621.38367" gradientTransform="matrix(-1, 0, 0, 1, -1285.14444, 0)" xlink:href="#linear-gradient-32"/>
    <linearGradient id="linear-gradient-57" x1="613.06667" y1="884.32931" x2="628.77762" y2="884.32931" gradientTransform="translate(-187.68874)" xlink:href="#linear-gradient-20"/>
    <linearGradient id="linear-gradient-58" x1="674.79652" y1="848.5281" x2="690.50747" y2="848.5281" gradientTransform="translate(-187.68874)" xlink:href="#linear-gradient-20"/>
    <linearGradient id="linear-gradient-59" x1="398.15782" y1="760.26125" x2="413.86877" y2="760.26125" gradientTransform="translate(-187.68874)" xlink:href="#linear-gradient-20"/>
    <linearGradient id="linear-gradient-60" x1="518.57378" y1="734.81486" x2="688.59169" y2="852.0216" gradientTransform="translate(-187.68874)" xlink:href="#linear-gradient-4"/>
    <linearGradient id="linear-gradient-61" x1="465.56841" y1="763.03825" x2="507.11127" y2="763.03825" gradientTransform="translate(-187.68874)" xlink:href="#linear-gradient-20"/>
    <linearGradient id="linear-gradient-62" x1="367.38385" y1="666.20381" x2="538.08319" y2="781.36624" gradientTransform="translate(-187.68874)" xlink:href="#linear-gradient-4"/>
    <linearGradient id="linear-gradient-63" x1="395.44289" y1="785.23199" x2="620.92215" y2="785.23199" gradientTransform="translate(-187.68874)" xlink:href="#linear-gradient-22"/>
    <linearGradient id="linear-gradient-64" x1="348.18473" y1="694.66167" x2="518.88407" y2="809.82411" gradientTransform="translate(-187.68874)" xlink:href="#linear-gradient-4"/>
    <linearGradient id="linear-gradient-65" x1="391.45572" y1="752.49135" x2="697.2561" y2="752.49135" gradientTransform="translate(-187.68874)" xlink:href="#linear-gradient-47"/>
    <linearGradient id="linear-gradient-66" x1="391.4557" y1="726.95846" x2="697.25545" y2="726.95846" gradientTransform="translate(-187.68874)" gradientUnits="userSpaceOnUse">
      <stop offset="0" stop-color="#96b1cc"/>
      <stop offset="1" stop-color="#748ea6"/>
    </linearGradient>
    <linearGradient id="linear-gradient-67" x1="506.13486" y1="692.01902" x2="568.31576" y2="755.22208" gradientTransform="translate(-187.68874)" xlink:href="#linear-gradient-20"/>
    <linearGradient id="linear-gradient-68" x1="510.83319" y1="683.51258" x2="555.97823" y2="743.30846" gradientTransform="translate(-187.68874)" xlink:href="#linear-gradient-4"/>
    <linearGradient id="linear-gradient-69" x1="485.55237" y1="490.84547" x2="657.78494" y2="726.45145" gradientTransform="translate(-187.68874)" gradientUnits="userSpaceOnUse">
      <stop offset="0" stop-color="#596c80"/>
      <stop offset="0.99886" stop-color="#3a4959"/>
    </linearGradient>
    <linearGradient id="linear-gradient-70" x1="446.17079" y1="524.99029" x2="636.29102" y2="765.70703" gradientTransform="translate(-187.68874)" gradientUnits="userSpaceOnUse">
      <stop offset="0" stop-color="#3e4c59"/>
      <stop offset="1" stop-color="#313e4d"/>
    </linearGradient>
    <linearGradient id="linear-gradient-71" x1="353.71377" y1="520.71115" x2="612.82925" y2="729.74119" gradientTransform="translate(-187.68874)" xlink:href="#linear-gradient-4"/>
    <linearGradient id="linear-gradient-72" x1="335.94574" y1="490.27313" x2="599.66089" y2="719.74621" gradientTransform="translate(-187.68874)" gradientUnits="userSpaceOnUse">
      <stop offset="0" stop-color="#596c80"/>
      <stop offset="0.99886" stop-color="#323f4d"/>
    </linearGradient>
    <linearGradient id="linear-gradient-73" x1="518.31894" y1="669.94084" x2="547.96135" y2="716.27838" gradientTransform="translate(-187.68874)" xlink:href="#linear-gradient-4"/>
    <linearGradient id="linear-gradient-74" x1="530.18861" y1="695.36955" x2="546.37268" y2="732.33737" gradientTransform="translate(-187.68874)" xlink:href="#linear-gradient-22"/>
    <linearGradient id="linear-gradient-75" x1="519.35555" y1="680.77881" x2="539.11715" y2="736.14536" xlink:href="#linear-gradient-66"/>
    <linearGradient id="linear-gradient-76" x1="510.91662" y1="683.79086" x2="530.67822" y2="739.15741" xlink:href="#linear-gradient-66"/>
    <linearGradient id="linear-gradient-77" x1="658.6444" y1="268.94065" x2="700.94314" y2="268.94065" xlink:href="#linear-gradient-9"/>
    <linearGradient id="linear-gradient-78" x1="671.87165" y1="233.88592" x2="697.3434" y2="303.39356" xlink:href="#linear-gradient-31"/>
    <linearGradient id="linear-gradient-79" x1="650.07059" y1="241.81505" x2="800.74244" y2="379.3193" xlink:href="#linear-gradient-7"/>
    <linearGradient id="linear-gradient-80" x1="650.38952" y1="230.73576" x2="796.88804" y2="362.26783" xlink:href="#linear-gradient-4"/>
    <linearGradient id="linear-gradient-81" x1="662.97366" y1="216.71973" x2="809.47217" y2="348.2518" xlink:href="#linear-gradient-4"/>
    <linearGradient id="linear-gradient-82" x1="714.44664" y1="327.43759" x2="756.74538" y2="327.43759" xlink:href="#linear-gradient-9"/>
    <linearGradient id="linear-gradient-83" x1="724.49944" y1="291.36753" x2="755.8443" y2="361.60748" xlink:href="#linear-gradient-31"/>
    <linearGradient id="linear-gradient-84" x1="646.30067" y1="245.94599" x2="796.97252" y2="383.45024" xlink:href="#linear-gradient-7"/>
    <linearGradient id="linear-gradient-85" x1="646.21602" y1="235.38415" x2="792.71454" y2="366.91621" xlink:href="#linear-gradient-4"/>
    <linearGradient id="linear-gradient-86" x1="658.80016" y1="221.36812" x2="805.29867" y2="352.90018" xlink:href="#linear-gradient-4"/>
    <linearGradient id="linear-gradient-87" x1="770.24888" y1="317.75475" x2="812.54762" y2="317.75475" xlink:href="#linear-gradient-9"/>
    <linearGradient id="linear-gradient-88" x1="780.30167" y1="281.68469" x2="811.64654" y2="351.92464" xlink:href="#linear-gradient-31"/>
    <linearGradient id="linear-gradient-89" x1="676.47858" y1="212.87819" x2="827.15043" y2="350.38245" xlink:href="#linear-gradient-7"/>
    <linearGradient id="linear-gradient-90" x1="675.93542" y1="202.28312" x2="822.43393" y2="333.81518" xlink:href="#linear-gradient-4"/>
    <linearGradient id="linear-gradient-91" x1="688.51955" y1="188.26708" x2="835.01807" y2="319.79915" xlink:href="#linear-gradient-4"/>
    <linearGradient id="linear-gradient-92" x1="729.12193" y1="585.91513" x2="754.6685" y2="585.91513" xlink:href="#linear-gradient-20"/>
    <linearGradient id="linear-gradient-93" x1="739.20656" y1="528.34229" x2="739.20656" y2="584.95234" gradientUnits="userSpaceOnUse">
      <stop offset="0" stop-color="#fff" stop-opacity="0"/>
      <stop offset="0.98888" stop-color="#fff"/>
    </linearGradient>
    <linearGradient id="linear-gradient-94" x1="10374.07204" y1="612.59667" x2="10512.92602" y2="612.59667" gradientTransform="translate(-9616.62478)" xlink:href="#linear-gradient"/>
    <linearGradient id="linear-gradient-95" x1="815.23862" y1="504.61238" x2="869.62329" y2="626.48169" xlink:href="#linear-gradient-31"/>
    <linearGradient id="linear-gradient-96" x1="758.56062" y1="526.63572" x2="789.15916" y2="585.51152" gradientUnits="userSpaceOnUse">
      <stop offset="0" stop-color="#2b8e6f"/>
      <stop offset="1" stop-color="#1b5959"/>
    </linearGradient>
    <linearGradient id="linear-gradient-97" x1="768.33821" y1="530.76916" x2="786.22701" y2="548.06562" gradientUnits="userSpaceOnUse">
      <stop offset="0" stop-color="#38af87"/>
      <stop offset="1" stop-color="#2b8e6f"/>
    </linearGradient>
    <linearGradient id="linear-gradient-98" x1="772.66302" y1="510.51461" x2="785.32656" y2="535.56935" xlink:href="#linear-gradient-96"/>
    <linearGradient id="linear-gradient-99" x1="63.72042" y1="518.64525" x2="371.29177" y2="518.64525" gradientTransform="matrix(1, 0, 0, 1, 0, 0)" xlink:href="#linear-gradient-66"/>
    <linearGradient id="linear-gradient-100" x1="275.39115" y1="119.61862" x2="303.23192" y2="482.16735" gradientUnits="userSpaceOnUse">
      <stop offset="0" stop-color="#db7b36"/>
      <stop offset="0.30805" stop-color="#c6622b"/>
      <stop offset="0.72536" stop-color="#af461e"/>
      <stop offset="0.96784" stop-color="#a63c19"/>
    </linearGradient>
    <linearGradient id="linear-gradient-101" x1="267.74814" y1="290.52999" x2="322.811" y2="431.5899" gradientUnits="userSpaceOnUse">
      <stop offset="0" stop-color="#f2b055"/>
      <stop offset="0.21424" stop-color="#eba646"/>
      <stop offset="0.69095" stop-color="#de932a"/>
      <stop offset="0.96784" stop-color="#d98c20"/>
    </linearGradient>
    <linearGradient id="linear-gradient-102" x1="266.76653" y1="213.72114" x2="317.4986" y2="279.30163" xlink:href="#linear-gradient-101"/>
    <linearGradient id="linear-gradient-103" x1="277.40633" y1="88.24535" x2="311.10425" y2="120.82744" xlink:href="#linear-gradient-101"/>
    <linearGradient id="linear-gradient-104" x1="69.14082" y1="458.12231" x2="263.14297" y2="458.12231" gradientTransform="matrix(1, 0, 0, 1, 0, 0)" xlink:href="#linear-gradient-66"/>
    <linearGradient id="linear-gradient-105" x1="51.31063" y1="440.63614" x2="280.97316" y2="440.63614" xlink:href="#linear-gradient-31"/>
    <linearGradient id="linear-gradient-106" x1="59.78841" y1="347.19415" x2="60.71644" y2="379.98439" xlink:href="#linear-gradient-101"/>
    <linearGradient id="linear-gradient-107" x1="143.66403" y1="359.69523" x2="138.32788" y2="387.53601" xlink:href="#linear-gradient-31"/>
    <linearGradient id="linear-gradient-108" x1="-107.46834" y1="-345.30064" x2="-86.50126" y2="-345.30064" gradientTransform="translate(-159.0407 480.37595) rotate(90)" xlink:href="#linear-gradient-31"/>
    <linearGradient id="linear-gradient-109" x1="193.21429" y1="367.19168" x2="187.80081" y2="398.58988" gradientTransform="matrix(1, 0, 0, 1, 0, 0)" xlink:href="#linear-gradient-66"/>
    <linearGradient id="linear-gradient-110" x1="-88.79949" y1="-345.30064" x2="-67.83242" y2="-345.30064" gradientTransform="translate(-140.64636 464.89674) rotate(90)" xlink:href="#linear-gradient-4"/>
    <linearGradient id="linear-gradient-111" x1="194.14742" y1="171.40715" x2="194.14742" y2="376.1058" xlink:href="#linear-gradient-93"/>
  </defs>
  <g>
    <g>
      <polygon class="cls-1" points="521.108 67.227 942.394 310.448 942.394 719.893 521.108 476.649 521.108 67.227"/>
      <polygon class="cls-2" points="521.124 67.227 99.837 310.448 99.837 719.893 521.124 476.649 521.124 67.227"/>
    </g>
    <path class="cls-3" d="M107.10708,732.49667l392.21059,226.4329a43.6172,43.6172,0,0,0,43.61687-.00063L935.125,732.49244a14.53906,14.53906,0,0,0,.00017-25.18216L542.91755,480.8567a43.61721,43.61721,0,0,0-43.61994.00054L107.10623,707.31448A14.53906,14.53906,0,0,0,107.10708,732.49667Z"/>
    <path class="cls-4" d="M911.17352,707.63821,807.33006,647.60355a15.96534,15.96534,0,0,0-15.96545-.001l-83.575,48.24582a5.32178,5.32178,0,0,0-.00131,9.21713l103.81535,60.06262a15.96531,15.96531,0,0,0,15.96938.00131l83.60053-48.274A5.32177,5.32177,0,0,0,911.17352,707.63821Z"/>
    <path class="cls-4" d="M770.818,615.15205l-125.85-72.75721a19.3487,19.3487,0,0,0-19.34885-.00117L524.33285,600.86374a6.44957,6.44957,0,0,0-.00158,11.17042l125.81591,72.79112a19.34871,19.34871,0,0,0,19.35361.00158L770.818,626.32261A6.44957,6.44957,0,0,0,770.818,615.15205Z"/>
  </g>
  <g>
    <g>
      <g>
        <g>
          <path class="cls-5" d="M123.6729,681.1359l375.9368-217.037a7.14112,7.14112,0,0,0,3.57068-6.18446V116.66262L123.6729,335.7822Z"/>
          <path class="cls-6" d="M491.28424,455.16039,135.5736,660.52682l-11.878-6.85547V335.80067L479.40621,130.42232l11.878,6.85548Z"/>
          <polygon class="cls-7" points="234.28 285.663 234.28 589.832 135.574 646.816 135.575 639.935 228.328 586.399 228.328 289.1 234.28 285.663"/>
          <polygon class="cls-8" points="356.815 214.914 356.796 519.097 258.094 576.083 258.094 569.203 350.845 515.669 350.845 218.341 356.815 214.914"/>
          <polygon class="cls-9" points="479.406 144.132 479.366 448.34 380.629 505.342 380.629 498.463 473.38 444.928 473.38 147.612 479.406 144.132"/>
          <polygon class="cls-10" points="491.284 137.278 491.278 455.166 135.575 660.522 135.574 646.816 479.406 448.317 479.406 144.132 491.284 137.278"/>
          <path class="cls-11" d="M123.6728,335.7822V681.1358L499.60963,464.09893a7.14113,7.14113,0,0,0,3.57069-6.18446V116.6626ZM368.72717,208.03626V525.9174L258.094,589.78851v-317.875ZM135.57466,342.65358l110.61748-63.86813v317.8743L135.57466,660.52164Zm355.7038,112.51216L380.629,519.04615V201.16436L491.27846,137.2777Z"/>
        </g>
        <polygon class="cls-12" points="246.192 596.66 234.28 589.832 234.28 285.663 246.192 278.785 246.192 596.66"/>
        <polygon class="cls-13" points="368.727 525.917 356.815 519.09 356.815 214.914 368.727 208.036 368.727 525.917"/>
      </g>
      <polygon class="cls-14" points="491.278 455.162 479.366 448.34 479.406 144.132 491.278 137.281 491.278 455.162"/>
    </g>
    <g>
      <circle class="cls-15" cx="509.18624" cy="138.3078" r="8.34757"/>
      <path class="cls-16" d="M508.146,144.207,140.79411,356.342l-4.06721-7.04462L504.09246,137.15447l.00186.00322a2.04851,2.04851,0,0,1,2.021.2153,6.35857,6.35857,0,0,1,2.88545,4.97707A1.99561,1.99561,0,0,1,508.146,144.207Z"/>
      <path class="cls-2" d="M500.11516,148.82157a9.92388,9.92388,0,0,0-1.3042-3.87734,9.58185,9.58185,0,0,0-2.81969-3.13724,6.36594,6.36594,0,0,0-3.5955-1.19835,5.16359,5.16359,0,0,0-2.52063.65189,5.70068,5.70068,0,0,0-2.60842,5.5873l4.37088-2.52042a1.39192,1.39192,0,0,1,.75817-.19384c1.09251,0,2.44964.98687,3.36615,2.57313.96945,1.67425,1.11058,3.45436.44062,4.37088a1.39088,1.39088,0,0,1-.44062.40533,1.21941,1.21941,0,0,1-.54646.15878l-3.895,2.256a6.22184,6.22184,0,0,0,3.68371,1.30421,4.94467,4.94467,0,0,0,2.5202-.67,5.48957,5.48957,0,0,0,2.62606-4.95241C500.15045,149.33275,500.1328,149.06856,500.11516,148.82157Z"/>
      <path class="cls-2" d="M478.04972,161.57507a9.924,9.924,0,0,0-1.30421-3.87734,9.58174,9.58174,0,0,0-2.81969-3.13724,6.36594,6.36594,0,0,0-3.5955-1.19835,5.16359,5.16359,0,0,0-2.52063.65189,5.7007,5.7007,0,0,0-2.60842,5.5873l4.37088-2.52042a1.39192,1.39192,0,0,1,.75817-.19384c1.09251,0,2.44964.98687,3.36616,2.57313.96944,1.67425,1.11057,3.45436.44061,4.37088a1.391,1.391,0,0,1-.44061.40533,1.21949,1.21949,0,0,1-.54647.15878l-3.895,2.256a6.22184,6.22184,0,0,0,3.68371,1.30421,4.94464,4.94464,0,0,0,2.5202-.67A5.48958,5.48958,0,0,0,478.085,162.333C478.085,162.08625,478.06736,161.82206,478.04972,161.57507Z"/>
      <path class="cls-2" d="M448.2378,178.806a9.92374,9.92374,0,0,0-1.30421-3.87734,9.58172,9.58172,0,0,0-2.81968-3.13724,6.36594,6.36594,0,0,0-3.5955-1.19835,5.16362,5.16362,0,0,0-2.52064.65189,5.70069,5.70069,0,0,0-2.60841,5.5873l4.37088-2.52042a1.3919,1.3919,0,0,1,.75817-.19384c1.0925,0,2.44964.98687,3.36615,2.57313.96945,1.67426,1.11058,3.45436.44062,4.37088a1.39076,1.39076,0,0,1-.44062.40533,1.21941,1.21941,0,0,1-.54646.15878l-3.895,2.256a6.22189,6.22189,0,0,0,3.6837,1.3042,4.94468,4.94468,0,0,0,2.52021-.67,5.48956,5.48956,0,0,0,2.62606-4.95241C448.27309,179.31717,448.25544,179.053,448.2378,178.806Z"/>
      <path class="cls-2" d="M146.77114,352.88978a9.9239,9.9239,0,0,0-1.30421-3.87734,9.58184,9.58184,0,0,0-2.81969-3.13724,6.36589,6.36589,0,0,0-3.59549-1.19835,5.1636,5.1636,0,0,0-2.52064.65189,5.70068,5.70068,0,0,0-2.60841,5.58731l4.37088-2.52042a1.3919,1.3919,0,0,1,.75817-.19385c1.0925,0,2.44963.98687,3.36615,2.57313.96944,1.67426,1.11058,3.45436.44062,4.37088a1.39076,1.39076,0,0,1-.44062.40533,1.21949,1.21949,0,0,1-.54647.15878l-3.895,2.256a6.22185,6.22185,0,0,0,3.68371,1.3042,4.94468,4.94468,0,0,0,2.52021-.67,5.48957,5.48957,0,0,0,2.626-4.95241C146.80642,353.401,146.78878,353.13677,146.77114,352.88978Z"/>
      <circle class="cls-17" cx="133.75887" cy="355.085" r="8.34757"/>
    </g>
    <path class="cls-18" d="M141.88093,361.4031a20.20362,20.20362,0,0,0,11.58727,1.46247c11.31427-2.02786,13.27451-14.983,13.27451-14.983s6.4443,3.95938,11.40471,1.89982c9.07879-3.76951,10.43062-15.6009,10.43062-15.6009-6.87817,60.99029-19.83225,122.66894-37.34928,184.86459,8.9803,41.4658,14.43514,89.00632,17.99965,139.804,1.2,13.42475-11.981,19.29338-21.37457,15.97471,1.18121,9.39355-15.97471,11.64351-15.97471,5.39992V526.21526Z"/>
    <path class="cls-19" d="M142.1622,525.80275l36.83363-176.43909c-.28184.1407-.54991.29475-.84853.41867-4.96037,2.0598-11.40436-1.89961-11.40436-1.89961s-.01162.35026-.09294.91846Z"/>
    <circle class="cls-2" cx="143.74529" cy="359.84036" r="2.81244"/>
    <path class="cls-2" d="M169.3088,339.865a9.92369,9.92369,0,0,0-1.30421-3.87733,9.58162,9.58162,0,0,0-2.81968-3.13724,6.36588,6.36588,0,0,0-3.5955-1.19836,5.16362,5.16362,0,0,0-2.52064.65189,5.70071,5.70071,0,0,0-2.60841,5.58731l4.37088-2.52042a1.3919,1.3919,0,0,1,.75817-.19385c1.0925,0,2.44964.98687,3.36615,2.57313.96945,1.67426,1.11058,3.45436.44062,4.37088a1.39076,1.39076,0,0,1-.44062.40533,1.21941,1.21941,0,0,1-.54646.15878l-3.895,2.256a6.22182,6.22182,0,0,0,3.6837,1.3042,4.94468,4.94468,0,0,0,2.52021-.67,5.48956,5.48956,0,0,0,2.62606-4.95241C169.34409,340.37618,169.32644,340.112,169.3088,339.865Z"/>
    <circle class="cls-2" cx="166.28295" cy="346.81557" r="2.81244"/>
    <path class="cls-2" d="M191.01752,327.32723a9.92382,9.92382,0,0,0-1.3042-3.87734,9.58175,9.58175,0,0,0-2.81969-3.13724,6.366,6.366,0,0,0-3.5955-1.19836,5.16369,5.16369,0,0,0-2.52063.65189,5.7007,5.7007,0,0,0-2.60842,5.58731l4.37088-2.52042a1.39192,1.39192,0,0,1,.75817-.19385c1.09251,0,2.44964.98687,3.36616,2.57313.96944,1.67426,1.11057,3.45437.44061,4.37088a1.391,1.391,0,0,1-.44061.40534,1.2196,1.2196,0,0,1-.54647.15877l-3.895,2.256a6.22184,6.22184,0,0,0,3.68371,1.30421,4.94477,4.94477,0,0,0,2.5202-.67,5.48959,5.48959,0,0,0,2.62606-4.95242C191.05281,327.83841,191.03516,327.57421,191.01752,327.32723Z"/>
    <circle class="cls-2" cx="187.82227" cy="333.80134" r="2.81244"/>
    <path class="cls-20" d="M500.83867,461.28512V310.70183l-5.74-153.74179c.613,16.4199-13.03387,18.71863-20.51493,14.78118.225,15.63719-18.79492,19.1126-29.37183,15.10022,8.01823,46.25471,17.50555,94.15244,34.91581,131.77329-7.96906,63.31794-10.70119,107.29-10.70119,162.75146,0,7.4623,19.68712,4.01237,19.68712-10.34984C496.03231,474.72877,500.8396,468.37265,500.83867,461.28512Z"/>
    <circle class="cls-2" cx="495.46309" cy="156.84751" r="2.81244"/>
    <circle class="cls-2" cx="445.21195" cy="185.75656" r="2.81244"/>
    <path class="cls-19" d="M497.27392,470.45182l-5.36151-146.99514L489.1137,471.01636C492.41531,472.788,495.227,472.25129,497.27392,470.45182Z"/>
    <path class="cls-19" d="M486.03331,172.73257a15.30717,15.30717,0,0,1-11.44955-.99136l17.32865,149.649Z"/>
    <circle class="cls-2" cx="474.44475" cy="169.67226" r="2.81244"/>
    <path class="cls-19" d="M141.479,529.32767l6.37492,145.4972,3.19974.7416a17.58916,17.58916,0,0,0,7.75124-.72493Z"/>
    <path class="cls-21" d="M130.70536,525.47477c6.46117,4.80916,19.28592,2.053,22.91373-6.042"/>
    <path class="cls-21" d="M478.07233,319.44433c6.46117,4.80915,21.52457,2.62494,25.108-6.33738"/>
  </g>
  <g>
    <path class="cls-22" d="M716.0898,742.86568,462.67421,596.53423a25.90818,25.90818,0,0,0-25.90836-.00157L335.70337,654.87355a8.636,8.636,0,0,0-.00212,14.95734L589.08073,816.19666a25.90817,25.90817,0,0,0,25.91473.00212L716.0898,757.8232A8.636,8.636,0,0,0,716.0898,742.86568Z"/>
    <path class="cls-23" d="M664.00553,733.6349,478.663,626.61132a14.57562,14.57562,0,0,0-14.5757-.00088l-76.3,44.04614a4.85853,4.85853,0,0,0-.0012,8.4148L573.10294,786.12049a14.57556,14.57556,0,0,0,14.57928.00119l76.32331-44.07187A4.85853,4.85853,0,0,0,664.00553,733.6349Z"/>
  </g>
  <g>
    <polygon class="cls-24" points="516.63 289.287 436.763 534.682 666.045 534.682 583.527 287.737 516.63 289.287"/>
    <g>
      <path class="cls-25" d="M574.77015,514.648c-2.62967-6.41617-12.60441-11.19641-24.53837-11.19641s-21.9087,4.78024-24.53826,11.19641h-.70019v3.35219c0,8.035,11.2996,14.5486,25.23845,14.5486s25.23856-6.51362,25.23856-14.5486V514.648Z"/>
      <ellipse class="cls-25" cx="550.23183" cy="514.1542" rx="25.23852" ry="14.54865"/>
    </g>
    <path class="cls-25" d="M546.92482,302.87476V511.13607c0,1.05283,1.48059,1.90631,3.307,1.90631s3.307-.85348,3.307-1.90631V302.87476Z"/>
    <g>
      <path class="cls-26" d="M583.843,289.35369h.00176l-.00544-.02754a11.60874,11.60874,0,0,0-.31192-1.58929l-6.785-34.56018h-53.0262l-6.78691,34.58276a11.59984,11.59984,0,0,0-.29975,1.52788l-.01313.06637h.00416a11.34244,11.34244,0,0,0-.09991,1.42116c0,10.70013,15.09306,19.37423,33.711,19.37423,18.61831,0,33.71137-8.6741,33.71137-19.37423A11.31234,11.31234,0,0,0,583.843,289.35369Z"/>
      <ellipse class="cls-27" cx="550.23183" cy="254.48335" rx="26.61256" ry="15.29457"/>
      <path class="cls-25" d="M540.3152,268.669a44.89416,44.89416,0,0,0,19.83314,0v-7.80377H540.3152Z"/>
      <ellipse class="cls-25" cx="550.23183" cy="260.86525" rx="9.91662" ry="5.7164"/>
      <path class="cls-28" d="M550.23182,240.50046c13.95094,0,25.30073,6.27267,25.30073,13.98285s-11.34979,13.98295-25.30073,13.98295-25.30073-6.27277-25.30073-13.98295,11.34979-13.98285,25.30073-13.98285m0-1.31171c-14.69764,0-26.61255,6.84763-26.61255,15.29456,0,8.447,11.91491,15.29466,26.61255,15.29466s26.61255-6.84763,26.61255-15.29466c0-8.44693-11.91491-15.29456-26.61255-15.29456Z"/>
    </g>
  </g>
  <g>
    <g>
      <path class="cls-29" d="M551.75779,590.29839l-2.52933,16.92052c0,2.14911-2.98835,3.89117-6.67465,3.89117s-6.67465-1.74206-6.67465-3.89117l-2.48146-16.92052Z"/>
      <path class="cls-30" d="M551.75779,590.29839l-2.52933,16.92052c0,2.14911-2.98835,3.89117-6.67465,3.89117s-6.67465-1.74206-6.67465-3.89117l-2.48146-16.92052Z"/>
      <ellipse class="cls-31" cx="542.55382" cy="589.74825" rx="9.20391" ry="5.36564"/>
    </g>
    <g>
      <path class="cls-32" d="M548.80587,603.44l-43.4254-124.33023L603.17724,422.767l.00451.01284c4.04589-2.4,9.677-2.09462,15.91326,1.50581,11.53137,6.65769,21.01638,22.18138,22.17255,35.73053l.0016.0007.00271.03431.0007.00813,6.62379,82.60938a5.16472,5.16472,0,0,1-1.2883,4.36241l.0012.00332-.01756.01013a2.99677,2.99677,0,0,1-1.06256.6128Z"/>
      <path class="cls-33" d="M543.84758,516.16945l-.00061-.00813-.00278-.03431-.00156-.0007c-1.15619-13.54916-10.64124-29.07289-22.17261-35.73054-12.31187-7.10826-22.2926-1.41781-22.2926,12.71,0,13.07545,8.55467,28.77918,19.589,36.68383l4.32708,53.21569c.38733,4.7631,3.71349,10.14477,7.68833,12.43965l13.22261,7.63408c3.71619,2.14554,6.6239.15034,6.267-4.30019Z"/>
    </g>
    <g>
      <polygon class="cls-34" points="654.759 658.792 553.668 600.554 548.863 547.04 649.954 605.277 654.759 658.792"/>
      <path class="cls-35" d="M737.18635,545.68024l-101.091-58.23718-80.19951,46.14631a14.1464,14.1464,0,0,0-7.03236,13.4506v0l101.091,58.23718-.6992-8.9949Z"/>
    </g>
    <path class="cls-36" d="M624.52736,397.19532a24.84593,24.84593,0,0,1,16.06776-20.26955l14.3623-5.21462a31.38641,31.38641,0,0,1,26.65716,2.3335l59.39053,34.26827A39.45,39.45,0,0,1,760.468,447.08706l-7.3335,100.74751-97.59862-56.32,8.86659-86.43435Z"/>
    <path class="cls-37" d="M711.56339,556.48332l-97.59864-56.32,10.56261-102.968a16.43756,16.43756,0,0,1,24.54084-12.31839l53.4779,30.85981A39.45014,39.45014,0,0,1,722.009,454.51092Z"/>
    <g>
      <g>
        <g>
          <g>
            <path class="cls-38" d="M595.28987,616.15563s7.02385,14.47941,4.57145,18.77478-7.73251,4.59581-14.49487,7.24743-12.46761,6.73578-24.00126,5.45911-11.86587-8.49183-8.564-13.44063l7.31574-.30126,9.71927-4.1414,11.019-10.10672Z"/>
            <path class="cls-39" d="M593.48217,612.70431s8.42793,14.97722,6.04822,19.14527-7.50332,4.45959-14.06526,7.03263-12.09807,6.53614-23.28988,5.29731-13.01493-10.73161-5.48-12.51261l4.26873-.822,8.324-5.83853,8.97866-9.87638Z"/>
            <path class="cls-38" d="M555.57739,630.99677c-9.83894,6.00785-.60949,17.89294,16.16737,13.67082l12.9448-4.16015c-.28922-11.117-10.88486-19.0251-15.87406-16.61343Z"/>
          </g>
          <polygon class="cls-40" points="561.48 578.309 578.267 615.13 593.789 613.121 580.621 571.842 561.48 578.309"/>
          <path class="cls-38" d="M630.77521,545.15385,619.97586,493.595s-50.56938,13.74633-66.15782,21.09374c-12.42138,5.85467-15.7957,19.94052-10.19916,32.79028l26.59442,65.48c4.58879,8.61326,27.61247-2.17634,27.006-8.90129l-9.33883-49.18243Z"/>
          <g>
            <path class="cls-38" d="M599.95349,656.58741s.821,8.30476-.04928,12.24064c-1.09974,4.9736-2.53178,7.53682-2.91169,10.82548-1.02218,8.84853-4.206,15.23662-11.01077,18.36005-13.84,6.3526-20.70357-3.548-17.6846-10.55215l5.39244-8.73354,10.04895-23.44508C588.63839,649.89355,599.47938,651.13652,599.95349,656.58741Z"/>
            <path class="cls-39" d="M599.42124,649.946s.91314,13.36871-.02135,17.29211c-1.17112,4.91688-2.97367,8.90026-3.79483,12.17325s-1.29,10.504-8.10484,14.191c-13.403,7.2512-22.77587-1.48738-17.9527-8.98717l4.56614-9.75387,10.451-24.7759Z"/>
            <path class="cls-38" d="M570.37934,681.5846c-8.53288,14.73444,7.53158,24.09671,24.034,6.49153l2.19559-9.9565c-2.50066-10.62165-17.20208-12.33576-21.05912-6.609Z"/>
          </g>
          <polygon class="cls-41" points="585.712 607.608 584.565 650.085 599.421 649.946 609.898 610.997 585.712 607.608"/>
          <path class="cls-42" d="M685.15133,496.95494l-59.27679-9.14442-10.65228,8.83871,8.32566,32.00127-28.68845,25.69491c-6.64912,5.49037-10.605,15.93382-11.07025,25.8344l-3.92087,68.44741c-.95612,10.66739,22.19017,12.1469,24.90376,2.83106,4.94447-15.323,18.80718-61.73283,18.80718-61.73283s34.76553-15.11568,50.72123-30.34715C696.62435,538.06772,685.15133,496.95494,685.15133,496.95494Z"/>
        </g>
        <g>
          <g>
            <path class="cls-43" d="M647.93576,389.10037l.06266-.22475s-12.983-1.61455-24.07085,13.67294c-7.56912,10.4362-21.68491,36.54-21.68491,36.54l-4.64283,1.68c-4.77809.986-11.37829,8.31625-7.90659,16.04071,0,0,2.90005,9.55076,14.75923,7.83027,13.71965-1.99039,26.39609-23.83067,27.71367-25.17893L637.52,426.44992l11.20813-37.35934S648.44182,389.08035,647.93576,389.10037Z"/>
            <path class="cls-19" d="M626.80346,447.35694,624.015,423.97467l-7.1824,34.09935A77.1497,77.1497,0,0,0,626.80346,447.35694Z"/>
            <circle class="cls-42" cx="599.19067" cy="449.49695" r="7.62218"/>
            <path class="cls-44" d="M597.53743,435.31542l-4.30043,9.82385c-4.45878,9.904,10.27364,14.881,12.26451,4.86977l.47892-4.61064Z"/>
            <g>
              <path class="cls-45" d="M638.22864,515.09133c-15.00894-2.93535-20.17634-15.23973-21.94893-22.81089a12.27435,12.27435,0,0,0-1.23082,3.19786c0,.00025.78922,24.08674,22.417,28.31692,30.92425,6.04829,51.18583-1.17469,52.60786-14.7729,0,0-.16158-3.37951-.37708-5.05525C683.44969,513.67455,664.66932,520.26291,638.22864,515.09133Z"/>
              <path class="cls-46" d="M701.72285,436.44487c1.45792-6.2273-5.99023-24.47154-25.885-35.71324l-.00268.00225c-5.49338-3.66771-16.13709-9.3647-20.54095-10.53124.05127-.04671.087-.07843.087-.07843-37.85448-11.58757-33.1,53.06817-31.54092,78.92188-.69544,2.36751-8.30277,14.75865-8.47987,17.15864,0,.00017.80511,24.57155,22.86819,28.88672,31.54659,6.17,52.21594-1.19836,53.66659-15.07014,0,0-2.36439-17.8692-1.88033-17.13109Z"/>
              <path class="cls-47" d="M636.86293,454.51655c-.95282,3.21709-1.32517,9.01111-1.6505,15.01419"/>
              <g>
                <path class="cls-48" d="M651.76227,393.293c-12.24318,17.13236-15.827,41.08993-15.516,64.1586l34.75184-43.46546,2.384-16.95867Z"/>
                <path class="cls-39" d="M648.38417,396.24335c-2.6069,5.62907-.59133,14.11726.74375,18.79385,10.30879-.4378,19.82031-6.39482,26.74639-12.4714-2.20035-2.02276-6.14912-8.08088-8.07271-8.84857L655.29429,391.394Z"/>
                <path class="cls-45" d="M636.24626,457.45163s-8.38328-33.41684-.23575-52.41918a33.35118,33.35118,0,0,1,17.7056-17.627l5.77076-.373,1.7349,2.3193s-7.23247,2.08215-10.69146,6.75928C637.7836,409.03119,636.24626,457.45163,636.24626,457.45163Z"/>
                <path class="cls-44" d="M650.96322,399.97407c.14233,2.81582,2.1107,4.25384,5.33683,5.02467,6.13217,1.46517,15.78479-3.455,15.20357-8.68848l-.81345-15.89182-17.5854,3.50642Z"/>
                <path class="cls-45" d="M679.30082,403.63305a24.52272,24.52272,0,0,0-4.69372-11.95319,11.98956,11.98956,0,0,0-3.49664-3.05045l.35644,7.40784a8.29989,8.29989,0,0,1-.17216,2.2042c-3.94956,17.77392-22.11361,43.20215-35.04847,59.21016,18.094-12.312,30.56926-23.78534,38.4545-37.02176C678.75923,413.61717,679.7163,409.5533,679.30082,403.63305Z"/>
              </g>
              <path class="cls-19" d="M653.76945,488.55934q-.23523,1.05513-.48582,2.11368l1.7664,12.92559a8.22055,8.22055,0,0,0,9.15709,7.04492l26.23743-3.25557a156.77515,156.77515,0,0,0-3.39337-24.70875l.74451-2.28749-10.70434-39.65183-5.2228,35.25744-13.73263,6.92038A8.32746,8.32746,0,0,0,653.76945,488.55934Z"/>
              <g>
                <g>
                  <path class="cls-49" d="M619.38989,456.59994c21.64835,0,39.19784,10.21566,39.19784,22.81732s-9.31827,41.84418-39.19784,41.84418-39.19784-29.24251-39.19784-41.84418S597.74155,456.59994,619.38989,456.59994Z"/>
                  <ellipse class="cls-50" cx="619.50309" cy="479.41726" rx="37.96187" ry="22.09786"/>
                  <path class="cls-51" d="M619.38987,460.38521c19.19561,0,35.41265,8.71565,35.41265,19.03207s-16.217,19.03208-35.41265,19.03208c-19.19553,0-35.41246-8.71566-35.41246-19.03208s16.21693-19.03207,35.41246-19.03207m0-3.78525c-21.6483,0-39.19775,10.21558-39.19775,22.81732,0,12.60167,17.54945,22.81733,39.19775,22.81733,21.64846,0,39.1979-10.21566,39.1979-22.81733,0-12.60174-17.54944-22.81732-39.1979-22.81732Z"/>
                </g>
                <path class="cls-52" d="M652.47233,479.58148a7.57172,7.57172,0,0,0-8.07325-10.591,7.60665,7.60665,0,0,0-11.22991-5.97457,7.60066,7.60066,0,0,0-13.48533-2.27316,7.59931,7.59931,0,0,0-13.13757,1.3281,7.59783,7.59783,0,0,0-12.60794,5.61027c-.12485-.00612-.248-.01888-.37434-.01888a7.6023,7.6023,0,0,0-6.75354,11.10679,8.56444,8.56444,0,0,0-1.65719,4.63334c0,.28392.01881.56778.03777.83275,4.08821,8.08163,18.09366,14.21376,34.20005,14.21376,16.10646,0,30.11205-6.13213,34.2-14.21376.019-.265.03792-.54883.03792-.83275A7.95942,7.95942,0,0,0,652.47233,479.58148Z"/>
                <path class="cls-53" d="M637.20372,486.634c-.26332,3.68626-6.80611,4.97591-9.63693,3.31763-1.36919,4.16021-8.18851,4.78425-10.87446,2.05377-1.86947,2.84369-7.4078,3.32511-9.5052.55294-2.42249,2.55406-7.225,2.22509-11.44926.87868a54.85577,54.85577,0,0,0,23.65325,5.0119c16.10631,0,30.11191-6.13213,34.2-14.21376.01889-.265.03777-.54883.03777-.83275a7.95981,7.95981,0,0,0-1.15656-3.82091c-.471,2.04973-4.52592,4.44579-7.19389,3.39966C644.57622,485.71243,639.7315,487.63454,637.20372,486.634Z"/>
              </g>
            </g>
            <path class="cls-54" d="M700.74882,430.06c-5.06385-12.68148-23.52193-2.69216-23.78714,12.52832l.671,36.51862-36.15224,11.31614c-8.50879,3.31576-4.22368,21.25253,4.47589,19.89277,0,0,26.78353-4.47434,37.40246-6.56007,7.37479-1.44853,12.14778-3.25988,14.86515-8.49437C702.09193,487.81052,704.63955,440.83105,700.74882,430.06Z"/>
            <ellipse class="cls-42" cx="643.38085" cy="500.87061" rx="5.48195" ry="8.34367" transform="translate(-78.36549 121.53895) rotate(-10.1754)"/>
            <path class="cls-39" d="M640.29678,495.42425l-4.049.86481c-4.07776.89766.49258,11.89184.49258,11.89184l6.827-1.123C649.48486,506.07206,646.16655,493.6532,640.29678,495.42425Z"/>
          </g>
          <g>
            <path class="cls-39" d="M593.00921,436.17105c2.41781-3.10316,8.51181-1.48111,10.644-1.1453l-2.71809,3.3606Z"/>
            <circle class="cls-55" cx="605.4578" cy="439.17322" r="4.52271"/>
            <path class="cls-39" d="M607.62819,444.73954c0,5.46617-5.21223,9.82519-8.78776,9.34157-3.83542-.51878-6.0498-4.30224-6.95744-9.664-.93661-5.53283.54034-10.77418,4.81962-8.59736C604.70279,439.8894,607.62819,439.27337,607.62819,444.73954Z"/>
            <path class="cls-39" d="M637.07617,495.29844c5.64822,3.264-.33577,12.88246-.33577,12.88246s-7.97366,2.08637-10.81782,1.78435-8.44459-4.45915-10.24335-7.487a5.85824,5.85824,0,0,1,.24756-6.52825c1.30379-1.92989,6.69764-4.25752,8.75469-4.90751C629.14151,489.63317,637.07617,495.29844,637.07617,495.29844Z"/>
          </g>
        </g>
      </g>
      <g>
        <g>
          <path class="cls-56" d="M645.47948,356.157c-6.487-1.05061-10.06011,6.72556-5.15952,11.33543-2.38466,6.61433,4.6803,11.39829,4.6803,11.39829l.61768-9.46756c.01961,0,.0385.00245.0581.00216a6.63472,6.63472,0,0,0,6.53579-6.73244C652.15756,359.029,649.09671,356.74287,645.47948,356.157Z"/>
          <path class="cls-39" d="M657.66933,399.7741c9.33844-1.619,14.50462-6.314,15.50153-14.9615l2.12476-18.69913c1.06788-7.51937-5.3102-15.04783-14.12969-15.52486-7.70811-.41693-16.00851,5.52234-16.4745,14.061a172.85193,172.85193,0,0,0,.32669,18.94973C645.77947,392.00533,649.18271,401.24547,657.66933,399.7741Z"/>
          <path class="cls-57" d="M681.82786,358.74851c1.31026-6.69044-5.11086-11.90135-10.79556-10.07743-2.56908-7.80425-14.312-7.89316-17.6189-1.93128-5.84935-2.97847-16.49393,3.05-12.41086,13.59382.50172,1.90057,2.35559,5.22252,6.53767,3.61255.31732,3.67549,7.02154,6.70141,10.80216,1.65086-.883,5.572,6.15891,7.61964,9.0168,5.92047-1.86677,5.51071,2.45048,8.00128,3.52875,8.93081-1.11422,4.5176-.97484,9.63443.426,12.62126a8.39271,8.39271,0,0,0,4.6685-6.99415,7.5261,7.5261,0,0,0,4.18028-3.96481,8.07245,8.07245,0,0,0,.80169-4.47933,5.24144,5.24144,0,0,0,2.56868-8.04967C685.97631,366.69732,685.88578,360.58691,681.82786,358.74851Z"/>
        </g>
        <path class="cls-39" d="M671.49973,387.37953c3.2931-.06806,5.97019-4.72345,5.893-8.46029s-3.3777-6.81487-6.17262-5.072C667.71153,376.03505,668.20664,387.44758,671.49973,387.37953Z"/>
      </g>
    </g>
    <g>
      <g>
        <path class="cls-29" d="M665.333,655.65l-2.52933,16.92052c0,2.1491-2.98835,3.89117-6.67465,3.89117s-6.67465-1.74207-6.67465-3.89117L646.97292,655.65Z"/>
        <path class="cls-58" d="M665.333,655.65l-2.52933,16.92052c0,2.1491-2.98835,3.89117-6.67465,3.89117s-6.67465-1.74207-6.67465-3.89117L646.97292,655.65Z"/>
        <ellipse class="cls-31" cx="656.12904" cy="655.09988" rx="9.20391" ry="5.36564"/>
      </g>
      <path class="cls-59" d="M755.54644,605.82082l-2.52933,16.92052c0,2.1491-2.98835,3.89117-6.67465,3.89117s-6.67465-1.74207-6.67465-3.89117l-2.48146-16.92052Z"/>
      <g>
        <path class="cls-60" d="M747.83721,506.21556l.0007.00592c4.049-2.43263,9.69369-2.15192,15.95539,1.46326,12.31182,7.10827,22.29255,24.32346,22.29255,38.4513,0,13.0754-8.55458,18.90109-19.58894,14.06443l-4.3271,48.21922a4.9052,4.9052,0,0,1-2.29788,4.12564l.00351.0312-97.46128,56.1297-11.8758-106.48006Z"/>
        <path class="cls-61" d="M747.83721,506.21556l.00281.00471c4.04879-2.43132,9.69268-2.1501,15.95328,1.46447,12.31182,7.10827,22.29255,24.32346,22.29255,38.4513,0,6.91714-2.40976,11.779-6.29853,14.13305l.01555.02619-98.56828,56.70166-30.69623-54.77077Z"/>
        <path class="cls-62" d="M644.19079,573.96009l.0006-.00742.00278-.0311.00157.0011c1.15619-12.2141,10.64123-16.78545,22.17261-10.1278,12.31187,7.10826,22.2926,24.32346,22.2926,38.45125,0,13.07545-8.55467,18.90109-19.589,14.06442l-4.32708,48.21922c-.38733,4.31584-3.71349,5.85679-7.68834,3.56192L643.834,660.4576c-3.71619-2.14554-6.62391-7.49828-6.267-11.53667Z"/>
      </g>
    </g>
  </g>
  <g>
    <path class="cls-63" d="M812.50607,693.165l1.8445,63.51841c0,1.69361,2.389,3.06652,5.33582,3.06652s5.33568-1.37291,5.33568-3.06652l1.85222-63.51841Z"/>
    <path class="cls-64" d="M892.55147,646.634l1.8445,63.51841c0,1.69361,2.389,3.06652,5.33582,3.06652s5.33568-1.37291,5.33568-3.06652l1.85222-63.51841Z"/>
    <path class="cls-65" d="M711.45667,634.2154l1.8445,63.51841c0,1.69361,2.389,3.06652,5.33582,3.06652s5.33568-1.37291,5.33568-3.06652l1.85222-63.51841Z"/>
    <g>
      <g>
        <path class="cls-66" d="M908.37,629.771V643.1073a4.95916,4.95916,0,0,1-2.50121,4.45965l-78.66654,45.42674a14.93886,14.93886,0,0,1-8.22744,1.99034V609.8143Z"/>
        <path class="cls-67" d="M818.97483,609.8143V694.984a14.97268,14.97268,0,0,1-6.80125-1.99034l-99.08647-57.29937a4.95373,4.95373,0,0,1-2.49056-4.449h-.01065V620.67621Z"/>
      </g>
      <g>
        <path class="cls-68" d="M705.12841,607.39588l.00553,9.47843a5.26946,5.26946,0,0,0,2.65432,4.69658l103.8154,60.06264a15.96525,15.96525,0,0,0,15.96936.0013l83.60054-48.274a5.26767,5.26767,0,0,0,2.65725-4.55527l.00332-9.40867Z"/>
        <path class="cls-69" d="M911.17352,613.21489,807.33006,553.18024a15.96532,15.96532,0,0,0-15.96545-.001l-83.575,48.24581a5.32178,5.32178,0,0,0-.00131,9.21713l103.81535,60.06263a15.96533,15.96533,0,0,0,15.96938.00131l83.60053-48.274A5.32178,5.32178,0,0,0,911.17352,613.21489Z"/>
      </g>
    </g>
  </g>
  <g>
    <g>
      <path class="cls-70" d="M135.23844,683.28389l57.44735.137-7.27144,44.96719c-.61616,6.52709-9.993,11.71464-21.50366,11.71464-11.51124,0-20.8875-5.18755-21.50365-11.71464Z"/>
      <ellipse class="cls-23" cx="163.97705" cy="681.26282" rx="28.95033" ry="16.63812"/>
      <path class="cls-71" d="M138.85988,689.52907c4.9962,5.01961,14.38494,8.36606,25.12173,8.36606s20.125-3.34645,25.12174-8.36606c-3.18405-6.2281-13.223-10.783-25.12174-10.783S142.04392,683.301,138.85988,689.52907Z"/>
      <path class="cls-28" d="M163.977,668.57992c14.72992,0,24.99523,6.68409,24.99523,12.6829s-10.26531,12.683-24.99523,12.683-24.99523-6.68409-24.99523-12.683,10.26532-12.6829,24.99523-12.6829m0-3.95519c-15.98881,0-28.95036,7.44909-28.95036,16.63809S147.98818,697.901,163.977,697.901s28.95037-7.44915,28.95037-16.63814-12.96155-16.63809-28.95037-16.63809Z"/>
    </g>
    <path class="cls-72" d="M173.29872,642.56427c13.57247-2.08925,40.28563-10.896,34.695-20.9709S176.40374,623.15613,173.29872,642.56427Z"/>
    <path class="cls-71" d="M167.34159,684.98514a1.06856,1.06856,0,0,0,1.069-1.06866c0-28.84823,5.24942-47.65552,17.55331-62.88758a1.06892,1.06892,0,0,0-1.66337-1.343c-12.63614,15.64389-18.028,34.85254-18.028,64.23056A1.06855,1.06855,0,0,0,167.34159,684.98514Z"/>
    <path class="cls-71" d="M162.54729,684.98514a1.06855,1.06855,0,0,0,1.069-1.06866c0-27.1709,0-64.38342-13.64827-81.28025a1.06892,1.06892,0,0,0-1.66336,1.343c13.17362,16.3098,13.17362,53.08467,13.17362,79.93727A1.06856,1.06856,0,0,0,162.54729,684.98514Z"/>
    <path class="cls-71" d="M162.04472,655.81792a1.069,1.069,0,0,0,1.06447-.98141c1.77295-21.72917,6.48245-36.49776,14.82128-46.47656a1.06888,1.06888,0,1,0-1.64033-1.3709c-8.63583,10.33409-13.501,25.48309-15.312,47.673a1.06892,1.06892,0,0,0,.97862,1.15242C161.98643,655.81722,162.01575,655.81792,162.04472,655.81792Z"/>
    <path class="cls-73" d="M166.7223,627.6816c12.86044-9.62311,33.73343-34.95853,22.42017-42.28251S159.25049,605.94,166.7223,627.6816Z"/>
    <path class="cls-74" d="M162.04363,666.01441c-10.76033-1.42015-31.43676-9.45167-27.19036-17.5078S159.26012,650.73112,162.04363,666.01441Z"/>
    <path class="cls-71" d="M162.50366,672.81038c.02548,0,.0513-.0007.07713-.0028a1.06845,1.06845,0,0,0,.99013-1.142c-1.33041-18.61533-9.62631-38.26652-22.90812-39.80774a1.0688,1.0688,0,1,0-.2464,2.12336c12.1266,1.4072,19.7545,20.09931,21.02209,37.83655A1.06859,1.06859,0,0,0,162.50366,672.81038Z"/>
    <path class="cls-71" d="M167.79216,671.103a1.06973,1.06973,0,0,0,1.06064-.9479c1.38451-12.08472,12.506-20.6682,18.1522-22.57726a1.06912,1.06912,0,0,0-.68475-2.02564c-6.09436,2.06123-18.09776,11.32248-19.59151,24.36a1.06864,1.06864,0,0,0,.94022,1.18314A1.0532,1.0532,0,0,0,167.79216,671.103Z"/>
    <path class="cls-75" d="M173.29872,656.355c11.35611-.1213,34.63729-3.84016,31.23994-12.74286S178.11313,640.82947,173.29872,656.355Z"/>
    <path class="cls-76" d="M177.39211,631.85463c9.56291-7.74871,25.34693-27.39454,16.46772-32.66816S171.02813,615.42768,177.39211,631.85463Z"/>
    <path class="cls-77" d="M155.84178,644.89008c-17.69964-4.74187-50.545-22.72967-41.6665-35.28166S154.54108,618.69564,155.84178,644.89008Z"/>
    <path class="cls-78" d="M158.28645,623.65547c-12.03753-9.00733-32.20268-30.18572-21.61334-37.04106S165.28014,603.30505,158.28645,623.65547Z"/>
  </g>
  <g>
    <g>
      <path class="cls-79" d="M206.26536,769.45544,428.31149,897.72138a14.9963,14.9963,0,0,0,14.99979.00141l63.75622-36.81313a4.99876,4.99876,0,0,0,.0001-8.65785L284.98533,724.01332a14.99631,14.99631,0,0,0-14.99642-.00091l-63.72232,36.78534A4.99876,4.99876,0,0,0,206.26536,769.45544Z"/>
      <g>
        <path class="cls-80" d="M425.37793,875.15152,427.3948,890.154c0,1.85188,2.6122,3.3531,5.83446,3.3531s5.83431-1.50122,5.83431-3.3531l2.02531-15.00248Z"/>
        <path class="cls-81" d="M487.10778,839.35031l2.01687,15.00248c0,1.85188,2.6122,3.3531,5.83446,3.3531s5.83431-1.50122,5.83431-3.3531l2.02531-15.00248Z"/>
        <path class="cls-82" d="M210.46908,751.08346,212.486,766.086c0,1.85188,2.61219,3.35309,5.83446,3.35309s5.83431-1.50121,5.83431-3.35309L226.18,751.08346Z"/>
        <g>
          <path class="cls-83" d="M505.57605,777.23341v64.38787h-.01943a4.81993,4.81993,0,0,1-2.4147,3.97254l-62.09,35.85a14.50386,14.50386,0,0,1-7.81849,1.93756V755.3359Z"/>
          <polygon class="cls-84" points="277.88 787.02 319.423 763.04 277.88 739.056 277.88 787.02"/>
          <polygon class="cls-85" points="277.88 760.574 319.423 736.593 363.108 761.814 363.108 809.778 277.88 760.574"/>
          <path class="cls-86" d="M207.75415,687.08261v64.865h.02924a4.83631,4.83631,0,0,0,2.4049,4.57619l216.249,124.92a14.42726,14.42726,0,0,0,6.7961,1.93757V755.33587ZM363.10789,788.26017v21.51961l-85.22823-49.204V739.05608Zm-85.22823-1.23977V768.98423l85.22823,49.204v18.03629Z"/>
          <polygon class="cls-87" points="363.108 818.188 293.501 778.003 277.88 787.02 363.108 836.224 363.108 818.188"/>
          <path class="cls-88" d="M509.56736,772.62855l-18.52192-5.54L203.767,681.162v7.78531l.0163.00488a4.94973,4.94973,0,0,0,2.48211,4.59176l222.04614,128.266a14.99625,14.99625,0,0,0,14.99978.00141l63.75619-36.81313a4.95189,4.95189,0,0,0,2.4992-4.329l.00067.00018Z"/>
          <path class="cls-89" d="M206.26536,685.54594,428.31149,813.81188a14.9963,14.9963,0,0,0,14.99979.00141l63.75622-36.81313a4.99877,4.99877,0,0,0,.0001-8.65786L284.98533,640.10382a14.99631,14.99631,0,0,0-14.99642-.00091l-63.72232,36.78534A4.99876,4.99876,0,0,0,206.26536,685.54594Z"/>
        </g>
      </g>
    </g>
    <g>
      <path class="cls-90" d="M397.50589,727.16663,298.02964,709.5255l.0023,5.52667a3.99832,3.99832,0,0,0,2.017,3.47939l56.205,32.45158a12.11617,12.11617,0,0,0,12.11635.00017l29.13555-16.82143A4.03871,4.03871,0,0,0,397.50589,727.16663Z"/>
      <path class="cls-91" d="M356.25393,745.59824l-56.205-32.45163a4.0387,4.0387,0,0,1,.00008-6.99519L329.18458,689.33a12.1161,12.1161,0,0,1,12.11634.00013l56.205,32.45163a4.0387,4.0387,0,0,1-.00008,6.99519l-29.13557,16.82143A12.11613,12.11613,0,0,1,356.25393,745.59824Z"/>
      <g>
        <path class="cls-92" d="M453.94111,616.90034,259.38855,504.58115a5.87132,5.87132,0,0,0-5.91587-.006l-.00055-.00068-8.00067,4.62276L451.96737,769.50251l9.40769-5.43491-1.39017.79425a5.86251,5.86251,0,0,0,2.84885-5.05758V632.30237A17.7847,17.7847,0,0,0,453.94111,616.90034Z"/>
        <path class="cls-93" d="M251.50139,657.17524,446.05391,769.49446a5.92818,5.92818,0,0,0,8.89215-5.134V636.85857a17.78451,17.78451,0,0,0-8.8926-15.402L251.50094,509.13731a5.92817,5.92817,0,0,0-8.89215,5.134V641.7732A17.78452,17.78452,0,0,0,251.50139,657.17524Z"/>
        <g>
          <path class="cls-94" d="M267.588,629.29325l162.379,93.74479a2.69246,2.69246,0,0,0,4.03864-2.33178v-6.72694a8.07739,8.07739,0,0,0-4.03885-6.99532l-162.379-93.74479a2.69246,2.69246,0,0,0-4.03864,2.33177v6.72694A8.07742,8.07742,0,0,0,267.588,629.29325Z"/>
          <path class="cls-95" d="M434.00566,713.97932a8.07735,8.07735,0,0,0-4.03878-6.99533L268.21082,613.59882v5.99226a8.07744,8.07744,0,0,0,4.03886,6.99533l161.756,93.38509Z"/>
        </g>
      </g>
      <g>
        <path class="cls-96" d="M332.19263,696.025,357.83,710.826a2.09934,2.09934,0,0,0,3.149-1.8181V694.42247a8.07741,8.07741,0,0,0-4.03886-6.99532l-25.63735-14.801a2.09934,2.09934,0,0,0-3.149,1.81811v14.58543A8.07741,8.07741,0,0,0,332.19263,696.025Z"/>
        <g>
          <path class="cls-97" d="M357.187,718.19385v5.22339a1.31338,1.31338,0,0,1-.67312,1.15774l-7.21579,4.1599-.70007.40385a.65532.65532,0,0,1-.09425.04043,4.00813,4.00813,0,0,1-1.91162.4981v-4.21372l6.44842-30.97684v21.31089Z"/>
          <polygon class="cls-98" points="346.59 725.461 353.037 694.483 333.611 683.353 327.164 714.331 346.59 725.461"/>
          <path class="cls-99" d="M346.59216,725.46354v4.21372a3.9414,3.9414,0,0,1-1.89824-.48471l-1.02307-.57887-15.83172-9.0736a1.32928,1.32928,0,0,1-.67311-1.15774v-4.05218Z"/>
        </g>
      </g>
    </g>
  </g>
  <g>
    <g>
      <polygon class="cls-100" points="700.943 249.098 658.644 224.637 658.644 288.783 700.943 313.244 700.943 249.098"/>
      <polygon class="cls-101" points="700.943 252.441 667.796 233.273 667.796 283.54 700.943 302.708 700.943 252.441"/>
      <path class="cls-102" d="M662.43754,231.21262,697.15,251.2864v55.3823l-34.71246-20.07381V231.21262m-3.79314-6.57526V288.7831L700.94314,313.244V249.0982L658.6444,224.63736Z"/>
      <polygon class="cls-103" points="707.792 309.301 707.792 245.155 700.943 249.098 700.943 313.244 707.792 309.301"/>
      <polygon class="cls-104" points="707.792 245.155 665.479 220.703 658.644 224.637 700.943 249.098 707.792 245.155"/>
    </g>
    <g>
      <polygon class="cls-105" points="756.745 307.595 714.447 283.134 714.447 347.28 756.745 371.741 756.745 307.595"/>
      <polygon class="cls-106" points="756.745 310.938 723.598 291.77 723.598 342.037 756.745 361.205 756.745 310.938"/>
      <path class="cls-107" d="M718.23978,289.70955l34.71246,20.07379v55.38229l-34.71246-20.0738V289.70955m-3.79314-6.57526V347.28l42.29874,24.46086V307.59514l-42.29874-24.46085Z"/>
      <polygon class="cls-108" points="763.595 367.798 763.595 303.652 756.745 307.595 756.745 371.741 763.595 367.798"/>
      <polygon class="cls-109" points="763.595 303.652 721.282 279.2 714.447 283.134 756.745 307.595 763.595 303.652"/>
    </g>
    <g>
      <polygon class="cls-110" points="812.548 297.912 770.249 273.451 770.249 337.597 812.548 362.058 812.548 297.912"/>
      <polygon class="cls-111" points="812.548 301.255 779.401 282.087 779.401 332.354 812.548 351.523 812.548 301.255"/>
      <path class="cls-112" d="M774.042,280.02671l34.71245,20.07379v55.38229L774.042,335.409V280.02671m-3.79314-6.57526v64.14574l42.29873,24.46086V297.91229l-42.29873-24.46084Z"/>
      <polygon class="cls-113" points="819.397 358.115 819.397 293.969 812.548 297.912 812.548 362.058 819.397 358.115"/>
      <polygon class="cls-114" points="819.397 293.969 777.084 269.517 770.249 273.451 812.548 297.912 819.397 293.969"/>
    </g>
  </g>
  <g>
    <path class="cls-2" d="M724.67021,585.9151v10.35035c0,5.46723,7.7119,9.89933,17.225,9.89933s17.225-4.4321,17.225-9.89933V585.9151Z"/>
    <ellipse class="cls-115" cx="741.89521" cy="585.91513" rx="17.22501" ry="9.89943"/>
    <ellipse class="cls-116" cx="741.89521" cy="585.91513" rx="12.77329" ry="7.34097"/>
  </g>
  <path class="cls-117" d="M739.07453,587.24617a1.75985,1.75985,0,0,1-.43659-.05324l-21.73229-5.351a1.81694,1.81694,0,1,1,.86964-3.52828l21.73229,5.351a1.81719,1.81719,0,0,1-.433,3.58152Z"/>
  <path class="cls-118" d="M725.45835,583.8936a1.75985,1.75985,0,0,1-.43659-.05324l-8.11611-1.99842a1.81694,1.81694,0,1,1,.86964-3.52828l8.11611,1.99841a1.8172,1.8172,0,0,1-.433,3.58153Z"/>
  <path class="cls-119" d="M740.85118,582.31971s7.70354-12.50452,6.72819-19.00157-4.75613-8.57421-5.38347-14.09527,8.16755-22.93271,8.16755-22.93271H731.7511s-4.599,15.88654-3.54427,22.57071,10.3543,10.493,12.64435,17.40648C742.20718,570.361,740.85118,582.31971,740.85118,582.31971Z"/>
  <g>
    <g>
      <g>
        <path class="cls-120" d="M894.53112,613.44275,825.443,573.50109a10.62188,10.62188,0,0,0-10.622-.00064l-55.6033,32.09842a3.54062,3.54062,0,0,0-.00087,6.13224l69.06938,39.96027a10.6219,10.6219,0,0,0,10.62459.00087l55.62027-32.11718A3.54063,3.54063,0,0,0,894.53112,613.44275Z"/>
        <path class="cls-2" d="M814.8211,580.479l-54.87159,31.676,68.3368,39.53642a10.622,10.622,0,0,0,10.62455.00089L893.799,619.99786,825.4431,580.47942A10.62182,10.62182,0,0,0,814.8211,580.479Z"/>
      </g>
      <g>
        <path class="cls-121" d="M825.98424,594.87468c21.54026,0,39.73814,9.78023,39.73814,21.35676s-18.19788,21.35675-39.73814,21.35675c-21.54017,0-39.73792-9.78023-39.73792-21.35675s18.19775-21.35676,39.73792-21.35676m0-4.2476c-24.29254,0-43.98557,11.46337-43.98557,25.60436,0,14.1409,19.693,25.60435,43.98557,25.60435,24.29271,0,43.98574-11.46345,43.98574-25.60435,0-14.141-19.693-25.60436-43.98574-25.60436Z"/>
        <path class="cls-28" d="M825.98424,586.99231c-24.29254,0-43.98557,11.46337-43.98557,25.60436,0,14.1409,19.693,25.60435,43.98557,25.60435,24.29271,0,43.98574-11.46345,43.98574-25.60435,0-14.141-19.693-25.60436-43.98574-25.60436Z"/>
        <path class="cls-122" d="M825.98424,591.23991c21.54026,0,39.73814,9.78023,39.73814,21.35676s-18.19788,21.35675-39.73814,21.35675c-21.54017,0-39.73792-9.78023-39.73792-21.35675s18.19775-21.35676,39.73792-21.35676m0-4.2476c-24.29254,0-43.98557,11.46337-43.98557,25.60436,0,14.1409,19.693,25.60435,43.98557,25.60435,24.29271,0,43.98574-11.46345,43.98574-25.60435,0-14.141-19.693-25.60436-43.98574-25.60436Z"/>
      </g>
      <path class="cls-123" d="M855.61456,551.66853,793.145,515.444a2.127,2.127,0,0,0-2.90852,2.90422l30.809,53.31215,74.5514,43.23053-31.80128-55.02914A22.46434,22.46434,0,0,0,855.61456,551.66853Z"/>
      <path class="cls-124" d="M893.79892,619.9978l-54.888,31.6944a10.62175,10.62175,0,0,1-10.62455-.00089L759.94967,612.155c-1.63259-1.06266-2.44877-2.23468-2.50246-3.5092l.00355,7.23159a3.50707,3.50707,0,0,0,1.76614,3.12474l69.06924,39.96026a10.62272,10.62272,0,0,0,10.62477.00089L894.531,626.846a3.50489,3.50489,0,0,0,1.76813-3.03067l.00222-7.30636C896.30137,618.08709,895.455,618.92777,893.79892,619.9978Z"/>
    </g>
    <polygon class="cls-2" points="787.757 599.926 792.556 601.226 828.862 613.542 814.251 592.231 811.272 588.461 803.457 588.461 790 595.561 787.757 599.926"/>
    <path class="cls-125" d="M811.27233,588.4612c-1.46431,1.08222-2.13133,4.72182,0,7.60253l11.88,15.54116,5.70932,1.93674C821.9397,602.90155,814.7436,591.67224,811.27233,588.4612Z"/>
    <path class="cls-126" d="M797.00053,609.90789c-2.99978,0-5.43159,1.41556-5.43159,3.16177s2.43181,3.16178,5.43159,3.16178,5.43161-1.41558,5.43161-3.16178-2.4318-3.16177-5.43161-3.16177Z"/>
    <path class="cls-126" d="M819.38707,613.77359c-2.99979,0-5.43159,1.41557-5.43159,3.16178s2.4318,3.16177,5.43159,3.16177,5.43161-1.41557,5.43161-3.16177-2.43181-3.16178-5.43161-3.16178Z"/>
    <path class="cls-126" d="M852.15763,616.23144c-2.99978,0-5.43159,1.41556-5.43159,3.16177s2.43181,3.16178,5.43159,3.16178,5.43162-1.41558,5.43162-3.16178-2.43181-3.16177-5.43162-3.16177Z"/>
    <path class="cls-126" d="M834.29314,595.95265c-2.99979,0-5.43159,1.41556-5.43159,3.16177s2.4318,3.16178,5.43159,3.16178,5.43161-1.41557,5.43161-3.16178-2.43181-3.16177-5.43161-3.16177Z"/>
    <path class="cls-126" d="M852.15763,602.79684c-2.99978,0-5.43159,1.41556-5.43159,3.16177s2.43181,3.16178,5.43159,3.16178,5.43162-1.41557,5.43162-3.16178-2.43181-3.16177-5.43162-3.16177Z"/>
    <path class="cls-126" d="M839.72474,609.43489c-2.99978,0-5.43159,1.41557-5.43159,3.16178s2.43181,3.16177,5.43159,3.16177,5.43162-1.41557,5.43162-3.16177-2.43181-3.16178-5.43162-3.16178Z"/>
    <path class="cls-126" d="M830.60158,622.00982c-2.99978,0-5.43159,1.41557-5.43159,3.16178s2.43181,3.16177,5.43159,3.16177,5.43162-1.41557,5.43162-3.16177-2.43181-3.16178-5.43162-3.16178Z"/>
    <path class="cls-126" d="M808.30931,621.42981c-2.99978,0-5.43159,1.41556-5.43159,3.16177s2.43181,3.16178,5.43159,3.16178,5.43162-1.41558,5.43162-3.16178-2.43181-3.16177-5.43162-3.16177Z"/>
  </g>
  <g>
    <path class="cls-127" d="M788.53525,582.416c0,3.60014-5.0139,6.51859-11.19856,6.51859-6.18515,0-11.19856-2.91845-11.19856-6.51859V542.14049h22.39712Z"/>
    <path class="cls-128" d="M781.84442,528.54992s-.91823-1.44827-4.508-1.44827-4.50774,1.44827-4.50774,1.44827-6.691,8.76329-6.691,13.5904c0,3.60038,5.01378,6.519,11.1987,6.519s11.19869-2.91864,11.19869-6.519C788.53515,536.88786,781.84442,528.54992,781.84442,528.54992Z"/>
    <path class="cls-129" d="M777.33651,558.40079c-5.54156,0-10.13116-2.34561-11.02832-5.42287h-.16994v17.7328c0,3.60016,5.01334,6.51836,11.19848,6.51836,6.18469,0,11.19847-2.9182,11.19847-6.51836v-17.7328h-.17038C787.46767,556.05518,782.87806,558.40079,777.33651,558.40079Z"/>
    <path class="cls-130" d="M781.33838,509.56651h-8.00363l-.506,18.98341c0,1.49609,2.01815,2.70867,4.50774,2.70867,2.4898,0,4.508-1.21258,4.508-2.70867Z"/>
    <ellipse class="cls-131" cx="777.33669" cy="508.83521" rx="5.13103" ry="2.98681"/>
    <ellipse class="cls-132" cx="777.33669" cy="508.29005" rx="3.2943" ry="1.82091"/>
  </g>
  <g>
    <g>
      <path class="cls-133" d="M217.50614,153.87283a198.65282,198.65282,0,1,1-77.5835,15.65723,198.06008,198.06008,0,0,1,77.5835-15.65723m0-18.17383C97.38083,135.699,0,233.07986,0,353.20535S97.38083,570.7117,217.50614,570.7117s217.5061-97.38086,217.5061-217.50635S337.63144,135.699,217.50614,135.699Z"/>
      <circle class="cls-134" cx="217.50613" cy="353.20537" r="201.18409"/>
    </g>
    <path class="cls-135" d="M63.72042,482.90111a201.15612,201.15612,0,0,0,307.57135,0Z"/>
    <g>
      <circle class="cls-133" cx="58.40473" cy="223.52672" r="51.44097"/>
      <g>
        <rect class="cls-27" x="54.21768" y="194.94778" width="11.16548" height="57.15788" transform="translate(-140.54212 107.75474) rotate(-45)"/>
        <rect class="cls-27" x="54.21768" y="194.94778" width="11.16548" height="57.15788" transform="translate(-55.97156 423.86926) rotate(-135)"/>
      </g>
    </g>
    <g>
      <path class="cls-136" d="M317.6699,183.70377,313.86812,103.677H275.18427l-3.80188,80.02692a87.36013,87.36013,0,0,1-14.36354,43.99638l-.00012.00017a87.36012,87.36012,0,0,0-14.462,48.142V464.3847a18.51641,18.51641,0,0,0,18.51642,18.51641h66.906a18.51642,18.51642,0,0,0,18.51642-18.51641V275.84251a87.36013,87.36013,0,0,0-14.462-48.14209l0-.00005A87.36013,87.36013,0,0,1,317.6699,183.70377Z"/>
      <path class="cls-137" d="M294.52615,434.29125h.00008c22.43508,0,40.6223-21.09455,40.6223-47.116V331.08463c0-26.02145-18.18722-47.116-40.6223-47.116h-.00008c-22.43507,0-40.62229,21.09455-40.62229,47.116v56.09063C253.90386,413.1967,272.09108,434.29125,294.52615,434.29125Z"/>
      <path class="cls-138" d="M323.40934,210.9214h-57.7665a87.2165,87.2165,0,0,1-8.624,16.77885l-.00011.00023a87.35514,87.35514,0,0,0-13.05668,32.5626H345.09027a87.35486,87.35486,0,0,0-13.05679-32.56272A87.21468,87.21468,0,0,1,323.40934,210.9214Z"/>
      <polygon class="cls-139" points="274.094 126.627 314.958 126.627 314.113 108.84 274.939 108.84 274.094 126.627"/>
      <rect class="cls-140" x="268.73693" y="97.22973" width="51.57849" height="15.13716" rx="7.56857"/>
    </g>
    <g>
      <rect class="cls-141" x="69.14082" y="433.34351" width="194.00215" height="49.55761" rx="7.54997"/>
      <rect class="cls-142" x="51.31063" y="411.30264" width="229.66253" height="58.667" rx="8.93776"/>
    </g>
    <g>
      <path class="cls-143" d="M25.71672,338.34246c-5.70467-.98921-11.62653,5.68914-13.22658,14.91646s1.72761,17.50956,7.43228,18.49876l82.23594,14.26,5.79429-33.41522Z"/>
      <g>
        <path class="cls-144" d="M107.95265,352.60242c-5.70485-.98924-11.62652,5.68913-13.22657,14.91646s1.72742,17.50952,7.43228,18.49876l81.20452,14.08111,5.7943-33.41523Z"/>
        <ellipse class="cls-145" cx="186.25994" cy="383.39115" rx="16.95717" ry="10.48354" transform="translate(-223.31714 501.40875) rotate(-80.16256)"/>
      </g>
      <g>
        <path class="cls-146" d="M189.15713,366.68351c-5.70486-.98923-11.62653,5.68914-13.22658,14.91646s1.72743,17.50953,7.43228,18.49877l18.3944,3.18964,5.7943-33.41522Z"/>
        <ellipse class="cls-147" cx="204.65429" cy="386.58078" rx="16.95717" ry="10.48354" transform="translate(-211.20826 522.17731) rotate(-80.16256)"/>
      </g>
    </g>
    <path class="cls-148" d="M200.0943,366.58637s27.85554-45.21561,24.32873-68.70859-17.19789-31.00384-19.46632-50.96766,29.53338-82.92337,29.53338-82.92337H167.18894s-16.62964,57.44481-12.81588,81.6144S191.8136,283.543,200.0943,308.542C204.99749,323.34441,200.0943,366.58637,200.0943,366.58637Z"/>
  </g>
</svg>
