<svg id="Layer_1" data-name="Layer 1" xmlns="http://www.w3.org/2000/svg" xmlns:xlink="http://www.w3.org/1999/xlink" viewBox="0 0 1000 1000">
  <defs>
    <style>
      .cls-1 {
        fill: none;
      }

      .cls-2 {
        fill: url(#linear-gradient);
      }

      .cls-3 {
        fill: #b8cbd8;
      }

      .cls-4 {
        fill: url(#linear-gradient-2);
      }

      .cls-5 {
        fill: #9bb0c4;
      }

      .cls-6, .cls-81 {
        fill: #fff;
      }

      .cls-6 {
        opacity: 0.7;
      }

      .cls-7 {
        fill: url(#linear-gradient-3);
      }

      .cls-8 {
        fill: url(#linear-gradient-4);
      }

      .cls-9 {
        fill: url(#linear-gradient-5);
      }

      .cls-10 {
        fill: url(#linear-gradient-6);
      }

      .cls-11 {
        fill: url(#linear-gradient-7);
      }

      .cls-12 {
        fill: url(#linear-gradient-8);
      }

      .cls-13 {
        fill: url(#linear-gradient-9);
      }

      .cls-14 {
        fill: url(#linear-gradient-10);
      }

      .cls-15 {
        fill: url(#linear-gradient-11);
      }

      .cls-16 {
        fill: url(#linear-gradient-12);
      }

      .cls-17, .cls-55 {
        fill: #dd7b19;
      }

      .cls-17, .cls-53 {
        opacity: 0.5;
      }

      .cls-18 {
        fill: url(#linear-gradient-13);
      }

      .cls-19 {
        fill: url(#linear-gradient-14);
      }

      .cls-20 {
        fill: url(#linear-gradient-15);
      }

      .cls-21 {
        fill: url(#linear-gradient-16);
      }

      .cls-22 {
        fill: #2e3e59;
      }

      .cls-23 {
        fill: #4f4f4f;
      }

      .cls-24 {
        fill: url(#linear-gradient-17);
      }

      .cls-25 {
        fill: url(#linear-gradient-18);
      }

      .cls-26 {
        fill: url(#linear-gradient-19);
      }

      .cls-27 {
        fill: url(#linear-gradient-20);
      }

      .cls-28 {
        fill: url(#linear-gradient-21);
      }

      .cls-29 {
        fill: url(#linear-gradient-22);
      }

      .cls-30, .cls-53 {
        fill: #bcd0e2;
      }

      .cls-31 {
        fill: #d7ebf4;
      }

      .cls-32 {
        fill: #7995a8;
      }

      .cls-33 {
        fill: url(#linear-gradient-23);
      }

      .cls-34 {
        fill: #e58630;
      }

      .cls-35 {
        fill: url(#linear-gradient-24);
      }

      .cls-36 {
        fill: url(#linear-gradient-25);
      }

      .cls-37 {
        fill: #ffcb48;
      }

      .cls-38 {
        fill: #34a521;
      }

      .cls-39 {
        fill: #e2e2e2;
      }

      .cls-40 {
        clip-path: url(#clip-path);
      }

      .cls-41 {
        fill: url(#linear-gradient-26);
      }

      .cls-42 {
        fill: url(#linear-gradient-27);
      }

      .cls-43 {
        fill: url(#linear-gradient-28);
      }

      .cls-44 {
        fill: url(#linear-gradient-29);
      }

      .cls-45 {
        fill: url(#linear-gradient-30);
      }

      .cls-46 {
        fill: #541510;
        opacity: 0.3;
      }

      .cls-47 {
        fill: url(#linear-gradient-31);
      }

      .cls-48 {
        fill: #e9f1f4;
      }

      .cls-49 {
        fill: #606060;
      }

      .cls-50 {
        fill: url(#linear-gradient-32);
      }

      .cls-51 {
        fill: url(#linear-gradient-33);
      }

      .cls-52 {
        fill: #f0f9fc;
      }

      .cls-54 {
        fill: url(#linear-gradient-34);
      }

      .cls-55 {
        opacity: 0.6;
      }

      .cls-56 {
        fill: #93514c;
      }

      .cls-57 {
        fill: #303d49;
      }

      .cls-58 {
        fill: #7a403f;
      }

      .cls-59 {
        fill: url(#linear-gradient-35);
      }

      .cls-60 {
        fill: url(#linear-gradient-36);
      }

      .cls-61 {
        fill: url(#linear-gradient-37);
      }

      .cls-62 {
        fill: url(#linear-gradient-38);
      }

      .cls-63 {
        fill: url(#linear-gradient-39);
      }

      .cls-64 {
        fill: url(#linear-gradient-40);
      }

      .cls-65 {
        fill: url(#linear-gradient-41);
      }

      .cls-66 {
        fill: url(#linear-gradient-42);
      }

      .cls-67 {
        fill: url(#linear-gradient-43);
      }

      .cls-68 {
        fill: url(#linear-gradient-44);
      }

      .cls-69 {
        fill: url(#linear-gradient-45);
      }

      .cls-70 {
        fill: url(#linear-gradient-46);
      }

      .cls-71 {
        fill: url(#linear-gradient-47);
      }

      .cls-72 {
        fill: url(#linear-gradient-48);
      }

      .cls-73 {
        fill: url(#linear-gradient-49);
      }

      .cls-74 {
        fill: url(#linear-gradient-50);
      }

      .cls-75 {
        fill: url(#linear-gradient-51);
      }

      .cls-76 {
        fill: url(#linear-gradient-52);
      }

      .cls-77 {
        fill: url(#linear-gradient-53);
      }

      .cls-78 {
        fill: url(#linear-gradient-54);
      }

      .cls-79 {
        fill: url(#linear-gradient-55);
      }

      .cls-80 {
        fill: url(#linear-gradient-56);
      }

      .cls-82 {
        fill: url(#linear-gradient-57);
      }

      .cls-83 {
        fill: url(#linear-gradient-58);
      }

      .cls-84 {
        fill: url(#linear-gradient-59);
      }

      .cls-85 {
        fill: url(#linear-gradient-60);
      }

      .cls-86 {
        fill: url(#linear-gradient-61);
      }

      .cls-87 {
        fill: url(#linear-gradient-62);
      }

      .cls-88 {
        fill: url(#linear-gradient-63);
      }

      .cls-89 {
        fill: url(#linear-gradient-64);
      }

      .cls-90 {
        fill: url(#linear-gradient-65);
      }

      .cls-91 {
        fill: url(#linear-gradient-66);
      }

      .cls-92 {
        fill: #bcbcbc;
      }

      .cls-93 {
        fill: url(#linear-gradient-67);
      }

      .cls-94 {
        fill: url(#linear-gradient-68);
      }

      .cls-95 {
        fill: url(#linear-gradient-69);
      }

      .cls-96 {
        fill: #ffbea4;
      }

      .cls-97 {
        fill: url(#linear-gradient-70);
      }

      .cls-98 {
        fill: url(#linear-gradient-71);
      }

      .cls-99 {
        fill: url(#linear-gradient-72);
      }

      .cls-100 {
        fill: url(#linear-gradient-73);
      }
    </style>
    <linearGradient id="linear-gradient" x1="521.50943" y1="396.22833" x2="928.15567" y2="396.22833" gradientUnits="userSpaceOnUse">
      <stop offset="0" stop-color="#e4edf2"/>
      <stop offset="1" stop-color="#c3d6e6"/>
    </linearGradient>
    <linearGradient id="linear-gradient-2" x1="114.87886" y1="711.22041" x2="928.15567" y2="711.22041" gradientUnits="userSpaceOnUse">
      <stop offset="0" stop-color="#dae9f2"/>
      <stop offset="0.99337" stop-color="#c4d5e6"/>
    </linearGradient>
    <linearGradient id="linear-gradient-3" x1="127.9972" y1="390.07947" x2="493.86751" y2="390.07947" gradientUnits="userSpaceOnUse">
      <stop offset="0" stop-color="#3e4c59"/>
      <stop offset="1" stop-color="#293440"/>
    </linearGradient>
    <linearGradient id="linear-gradient-4" x1="188.94207" y1="640.24583" x2="188.94207" y2="280.78161" gradientUnits="userSpaceOnUse">
      <stop offset="0" stop-color="#62778c"/>
      <stop offset="1" stop-color="#435466"/>
    </linearGradient>
    <linearGradient id="linear-gradient-5" x1="310.89701" y1="569.84386" x2="310.89701" y2="210.36317" xlink:href="#linear-gradient-4"/>
    <linearGradient id="linear-gradient-6" x1="432.88729" y1="499.43348" x2="432.88729" y2="139.91232" xlink:href="#linear-gradient-4"/>
    <linearGradient id="linear-gradient-7" x1="139.8197" y1="393.4886" x2="493.86751" y2="393.4886" gradientUnits="userSpaceOnUse">
      <stop offset="0" stop-color="#435466"/>
      <stop offset="1" stop-color="#62778c"/>
    </linearGradient>
    <linearGradient id="linear-gradient-8" x1="127.97453" y1="393.48809" x2="505.70798" y2="393.48809" xlink:href="#linear-gradient-4"/>
    <linearGradient id="linear-gradient-9" x1="243.99279" y1="590.32418" x2="243.99279" y2="273.93582" xlink:href="#linear-gradient-4"/>
    <linearGradient id="linear-gradient-10" x1="365.95501" y1="519.91251" x2="365.95501" y2="203.51736" xlink:href="#linear-gradient-4"/>
    <linearGradient id="linear-gradient-11" x1="487.93343" y1="449.48819" x2="487.93343" y2="133.09304" xlink:href="#linear-gradient-4"/>
    <linearGradient id="linear-gradient-12" x1="428.98245" y1="146.55132" x2="138.95461" y2="619.42281" gradientUnits="userSpaceOnUse">
      <stop offset="0.00005" stop-color="#ffcb48"/>
      <stop offset="1" stop-color="#e68e2b"/>
    </linearGradient>
    <linearGradient id="linear-gradient-13" x1="514.46018" y1="198.97766" x2="224.43234" y2="671.84915" xlink:href="#linear-gradient-12"/>
    <linearGradient id="linear-gradient-14" x1="540.67117" y1="111.29526" x2="109.41237" y2="450.81698" gradientUnits="userSpaceOnUse">
      <stop offset="0" stop-color="#849bb2"/>
      <stop offset="1" stop-color="#5b6f82"/>
    </linearGradient>
    <linearGradient id="linear-gradient-15" x1="522.01276" y1="87.59544" x2="90.75396" y2="427.11716" xlink:href="#linear-gradient-14"/>
    <linearGradient id="linear-gradient-16" x1="502.55592" y1="62.88145" x2="71.29712" y2="402.40318" xlink:href="#linear-gradient-14"/>
    <linearGradient id="linear-gradient-17" x1="546.23301" y1="417.48309" x2="605.13023" y2="516.46626" xlink:href="#linear-gradient-3"/>
    <linearGradient id="linear-gradient-18" x1="424.48618" y1="290.3015" x2="548.10317" y2="513.34953" xlink:href="#linear-gradient-4"/>
    <linearGradient id="linear-gradient-19" x1="457.52582" y1="308.28107" x2="536.35404" y2="516.69811" xlink:href="#linear-gradient-14"/>
    <linearGradient id="linear-gradient-20" x1="441.1511" y1="314.47438" x2="519.97932" y2="522.89142" xlink:href="#linear-gradient-14"/>
    <linearGradient id="linear-gradient-21" x1="462.9752" y1="402.59578" x2="608.09309" y2="402.59578" gradientUnits="userSpaceOnUse">
      <stop offset="0" stop-color="#62788c"/>
      <stop offset="1" stop-color="#526575"/>
    </linearGradient>
    <linearGradient id="linear-gradient-22" x1="462.97514" y1="378.59652" x2="608.09305" y2="378.59652" xlink:href="#linear-gradient-14"/>
    <linearGradient id="linear-gradient-23" x1="507.41363" y1="287.56149" x2="570.78973" y2="346.45871" xlink:href="#linear-gradient-12"/>
    <linearGradient id="linear-gradient-24" x1="530.46992" y1="302.40891" x2="549.95363" y2="302.40891" xlink:href="#linear-gradient-3"/>
    <linearGradient id="linear-gradient-25" x1="530.46993" y1="298.03114" x2="549.95373" y2="298.03114" xlink:href="#linear-gradient-4"/>
    <clipPath id="clip-path">
      <path class="cls-1" d="M435.98541,305.84375A194.17509,194.17509,0,1,1,364.93924,155.6819,193.78539,193.78539,0,0,1,435.98541,305.84375Z"/>
    </clipPath>
    <linearGradient id="linear-gradient-26" x1="807.55149" y1="891.77299" x2="886.19826" y2="891.77299" xlink:href="#linear-gradient-3"/>
    <linearGradient id="linear-gradient-27" x1="-81.02473" y1="-301.16704" x2="1205.86104" y2="685.72575" xlink:href="#linear-gradient-4"/>
    <linearGradient id="linear-gradient-28" x1="87.83737" y1="211.11513" x2="836.94413" y2="211.11513" xlink:href="#linear-gradient-21"/>
    <linearGradient id="linear-gradient-29" x1="134.8915" y1="227.61172" x2="779.1628" y2="227.61172" xlink:href="#linear-gradient-14"/>
    <linearGradient id="linear-gradient-30" x1="-630.58918" y1="415.45251" x2="656.29658" y2="1402.3453" xlink:href="#linear-gradient-4"/>
    <linearGradient id="linear-gradient-31" x1="-1112.94606" y1="1052.66564" x2="893.68119" y2="1052.66564" xlink:href="#linear-gradient-3"/>
    <linearGradient id="linear-gradient-32" x1="64.50519" y1="-10.99744" x2="930.19902" y2="-10.99744" xlink:href="#linear-gradient-21"/>
    <linearGradient id="linear-gradient-33" x1="64.50017" y1="-44.79465" x2="930.19907" y2="-44.79465" xlink:href="#linear-gradient-14"/>
    <linearGradient id="linear-gradient-34" x1="-963.27344" y1="541.49355" x2="120.59734" y2="1146.10173" xlink:href="#linear-gradient-12"/>
    <linearGradient id="linear-gradient-35" x1="211.58819" y1="178.54998" x2="228.36969" y2="393.91264" gradientUnits="userSpaceOnUse">
      <stop offset="0.00005" stop-color="#c6bfbc"/>
      <stop offset="1" stop-color="#a6948d"/>
    </linearGradient>
    <linearGradient id="linear-gradient-36" x1="284.97862" y1="172.83124" x2="301.76013" y2="388.19391" xlink:href="#linear-gradient-35"/>
    <linearGradient id="linear-gradient-37" x1="-7703.57095" y1="181.8202" x2="-7619.17585" y2="318.35272" gradientTransform="translate(7889.54024 -308.41163) rotate(-2.74241)" xlink:href="#linear-gradient-4"/>
    <linearGradient id="linear-gradient-38" x1="-7621.67318" y1="170.12501" x2="-7534.91442" y2="310.4814" gradientTransform="translate(7817.52844 -304.96221) rotate(-2.74241)" xlink:href="#linear-gradient-4"/>
    <linearGradient id="linear-gradient-39" x1="884.47743" y1="403.4152" x2="909.26055" y2="466.26879" gradientUnits="userSpaceOnUse">
      <stop offset="0.00844" stop-color="#ffc63f"/>
      <stop offset="1" stop-color="#e68a23"/>
    </linearGradient>
    <linearGradient id="linear-gradient-40" x1="891.68474" y1="407.3511" x2="900.14185" y2="420.57726" xlink:href="#linear-gradient-4"/>
    <linearGradient id="linear-gradient-41" x1="875.31142" y1="416.90389" x2="905.09595" y2="463.4842" xlink:href="#linear-gradient-4"/>
    <linearGradient id="linear-gradient-42" x1="678.01897" y1="258.80781" x2="718.84775" y2="258.80781" xlink:href="#linear-gradient-7"/>
    <linearGradient id="linear-gradient-43" x1="690.78655" y1="224.97129" x2="715.3731" y2="292.06342" gradientUnits="userSpaceOnUse">
      <stop offset="0" stop-color="#fff"/>
      <stop offset="0.98888" stop-color="#e6edf2"/>
    </linearGradient>
    <linearGradient id="linear-gradient-44" x1="669.74311" y1="232.62486" x2="815.17885" y2="365.35061" xlink:href="#linear-gradient-14"/>
    <linearGradient id="linear-gradient-45" x1="670.05096" y1="221.9306" x2="811.45839" y2="348.8917" xlink:href="#linear-gradient-4"/>
    <linearGradient id="linear-gradient-46" x1="682.19777" y1="208.40165" x2="823.60521" y2="335.36275" xlink:href="#linear-gradient-4"/>
    <linearGradient id="linear-gradient-47" x1="731.88198" y1="315.27187" x2="772.71076" y2="315.27187" xlink:href="#linear-gradient-7"/>
    <linearGradient id="linear-gradient-48" x1="741.58542" y1="280.45531" x2="771.841" y2="348.2543" xlink:href="#linear-gradient-43"/>
    <linearGradient id="linear-gradient-49" x1="666.1042" y1="236.61224" x2="811.53994" y2="369.33798" xlink:href="#linear-gradient-14"/>
    <linearGradient id="linear-gradient-50" x1="666.02249" y1="226.41745" x2="807.42993" y2="353.37854" xlink:href="#linear-gradient-4"/>
    <linearGradient id="linear-gradient-51" x1="678.16931" y1="212.8885" x2="819.57675" y2="339.84959" xlink:href="#linear-gradient-4"/>
    <linearGradient id="linear-gradient-52" x1="785.74499" y1="305.92552" x2="826.57378" y2="305.92552" xlink:href="#linear-gradient-7"/>
    <linearGradient id="linear-gradient-53" x1="795.44843" y1="271.10896" x2="825.70401" y2="338.90796" xlink:href="#linear-gradient-43"/>
    <linearGradient id="linear-gradient-54" x1="695.23337" y1="204.69362" x2="840.66911" y2="337.41936" xlink:href="#linear-gradient-14"/>
    <linearGradient id="linear-gradient-55" x1="694.70909" y1="194.46673" x2="836.11652" y2="321.42783" xlink:href="#linear-gradient-4"/>
    <linearGradient id="linear-gradient-56" x1="706.8559" y1="180.93778" x2="848.26334" y2="307.89888" xlink:href="#linear-gradient-4"/>
    <linearGradient id="linear-gradient-57" x1="832.29003" y1="660.91295" x2="857.41772" y2="660.91295" xlink:href="#linear-gradient-3"/>
    <linearGradient id="linear-gradient-58" x1="232.09455" y1="750.3375" x2="257.22224" y2="750.3375" xlink:href="#linear-gradient-3"/>
    <linearGradient id="linear-gradient-59" x1="453.73083" y1="880.32328" x2="478.85852" y2="880.32328" xlink:href="#linear-gradient-3"/>
    <linearGradient id="linear-gradient-60" x1="548.38935" y1="279.76784" x2="959.55018" y2="595.08073" xlink:href="#linear-gradient-4"/>
    <linearGradient id="linear-gradient-61" x1="602.3409" y1="443.44233" x2="841.68099" y2="443.44233" xlink:href="#linear-gradient-21"/>
    <linearGradient id="linear-gradient-62" x1="617.37472" y1="448.713" x2="823.21982" y2="448.713" xlink:href="#linear-gradient-14"/>
    <linearGradient id="linear-gradient-63" x1="372.80315" y1="508.72825" x2="783.96399" y2="824.04114" xlink:href="#linear-gradient-4"/>
    <linearGradient id="linear-gradient-64" x1="242.55935" y1="640.81444" x2="598.18212" y2="961.50198" xlink:href="#linear-gradient-21"/>
    <linearGradient id="linear-gradient-65" x1="218.68981" y1="712.31826" x2="859.80852" y2="712.31826" xlink:href="#linear-gradient-3"/>
    <linearGradient id="linear-gradient-66" x1="218.68981" y1="725.91802" x2="859.80852" y2="725.91802" xlink:href="#linear-gradient-3"/>
    <linearGradient id="linear-gradient-67" x1="594.88625" y1="372.47722" x2="871.47599" y2="372.47722" xlink:href="#linear-gradient-21"/>
    <linearGradient id="linear-gradient-68" x1="594.88465" y1="361.67899" x2="871.47601" y2="361.67899" xlink:href="#linear-gradient-14"/>
    <linearGradient id="linear-gradient-69" x1="266.51031" y1="548.99844" x2="612.80773" y2="742.17115" xlink:href="#linear-gradient-12"/>
    <linearGradient id="linear-gradient-70" x1="641.87936" y1="433.03774" x2="647.24107" y2="501.84625" xlink:href="#linear-gradient-35"/>
    <linearGradient id="linear-gradient-71" x1="665.32766" y1="431.2106" x2="670.68936" y2="500.01911" xlink:href="#linear-gradient-35"/>
    <linearGradient id="linear-gradient-72" x1="-7278.38627" y1="413.88638" x2="-7251.42198" y2="457.50861" gradientTransform="translate(7889.54024 -308.41163) rotate(-2.74241)" xlink:href="#linear-gradient-4"/>
    <linearGradient id="linear-gradient-73" x1="-7203.15971" y1="410.14976" x2="-7175.44023" y2="454.99372" gradientTransform="translate(7817.52844 -304.96221) rotate(-2.74241)" xlink:href="#linear-gradient-4"/>
  </defs>
  <g>
    <g>
      <polygon class="cls-2" points="521.509 81.236 928.156 316.004 928.156 711.22 521.509 476.43 521.509 81.236"/>
      <polygon class="cls-3" points="521.525 81.236 114.879 316.004 114.879 711.22 521.525 476.43 521.525 81.236"/>
    </g>
    <path class="cls-4" d="M121.896,723.3864l378.58059,218.564a42.10143,42.10143,0,0,0,42.1011-.00062l378.5612-218.56743a14.03381,14.03381,0,0,0,.00016-24.307L542.5613,480.49136a42.10144,42.10144,0,0,0-42.10408.00053l-378.562,218.58744A14.03381,14.03381,0,0,0,121.896,723.3864Z"/>
    <path class="cls-5" d="M226.3809,766.56781,459.93617,901.383a25.8435,25.8435,0,0,0,25.846-.002l376.022-217.16324a12.92175,12.92175,0,0,0-.00084-22.37988L628.33138,527.04226a25.84349,25.84349,0,0,0-25.8448-.00074l-376.10591,217.145A12.92174,12.92174,0,0,0,226.3809,766.56781Z"/>
  </g>
  <g>
    <g>
      <g>
        <g>
          <path class="cls-6" d="M127.97463,674.40543,502.15406,458.383a7.10771,7.10771,0,0,0,3.554-6.15554V112.57086L127.97463,330.66614Z"/>
          <path class="cls-7" d="M493.86751,449.48627,139.8197,653.89269l-11.8225-6.82343V330.68452L482.045,126.26624l11.8225,6.82343Z"/>
          <polygon class="cls-8" points="238.064 280.782 238.064 583.528 139.82 640.246 139.821 633.398 232.141 580.112 232.141 284.202 238.064 280.782"/>
          <polygon class="cls-9" points="360.027 210.363 360.008 513.124 261.767 569.844 261.767 562.996 354.085 509.712 354.085 213.774 360.027 210.363"/>
          <polygon class="cls-10" points="482.045 139.912 482.005 442.698 383.73 499.433 383.73 492.586 476.047 439.302 476.047 143.375 482.045 139.912"/>
          <polygon class="cls-11" points="493.868 133.09 493.862 449.492 139.821 653.888 139.82 640.246 482.045 442.675 482.045 139.912 493.868 133.09"/>
          <path class="cls-12" d="M127.97453,330.66613v343.7392L502.154,458.383a7.10774,7.10774,0,0,0,3.554-6.15555V112.57084ZM371.88335,203.51736V519.91251l-110.116,63.57255v-316.389Zm-232.0626,133.988,110.10039-63.56958V590.32418L139.82075,653.88754Zm354.041,111.9862-110.1322,63.58179V196.67759l110.1322-63.588Z"/>
        </g>
        <polygon class="cls-13" points="249.921 590.324 238.064 583.528 238.064 280.782 249.921 273.936 249.921 590.324"/>
        <polygon class="cls-14" points="371.883 519.913 360.027 513.117 360.027 210.363 371.883 203.517 371.883 519.913"/>
      </g>
      <polygon class="cls-15" points="493.862 449.488 482.005 442.698 482.045 139.912 493.862 133.093 493.862 449.488"/>
    </g>
    <g>
      <path class="cls-16" d="M331.33092,249.51336l2.94016,305.79229s-13.49648,16.33354-31.56128,26.14974-49.34229,17.19371-49.34229,17.19371-4.55352,14.569-27.24649,26.13942a136.77529,136.77529,0,0,1-44.43864,13.57335s-1.85131,8.73555-11.92055,14.121c-8.35014,4.43814-20.10036,5.0898-25.67889,5.84422V356.72779s10.75683,2.01157,25.26832-5.598,12.33112-14.109,12.33112-14.109,27.14545-3.18715,43.43089-12.76486,27.713-28.49683,27.713-28.49683a158.18805,158.18805,0,0,0,43.61312-12.8208C318.05046,272.71264,326.12092,254.40772,331.33092,249.51336Z"/>
      <path class="cls-17" d="M195.8309,334.55257c-8.09863,1.75679-14.14849,2.46816-14.14849,2.46816a4.66595,4.66595,0,0,1,0,2.06623V638.3618a122.98843,122.98843,0,0,0,20.09545-4.10718Z"/>
      <path class="cls-17" d="M253.48193,598.62189c.068-.01627.164-.03929.292-.07034l.00953-.00236c.12431-.03008.27956-.068.45655-.11135l.10985-.02709c.1666-.041.34926-.08619.55537-.13748l.11885-.02965c.22409-.05589.46564-.1165.73085-.18352l.08844-.02238q.42513-.10759.91427-.233l.09219-.02366c.31671-.08138.655-.169,1.0087-.26115l.18459-.04818q.53946-.14085,1.13054-.29754l.13031-.03448q.65011-.17265,1.356-.36307l.03126-.00846c3.47409-.93825,7.92764-2.19942,12.78892-3.72L267.48608,292.9535a139.27448,139.27448,0,0,1-14.65963,2.80554h-.00011l.54123,302.89.10161-.0242Z"/>
      <path class="cls-18" d="M508.99374,147.98417l2.95422,301.504c0,3.75938-5.00142,9.47-15.52677,14.8446a84.11985,84.11985,0,0,1-23.69014,7.7963s-10.57327,12.80653-25.46553,21.20442c-13.399,7.55583-37.46072,12.73616-37.46072,12.73616s-15.48321,23.52668-30.6088,32.60443-39.34639,15.87714-44.92492,16.63155l-2.94016-305.79229s27.73587-3.78745,42.96625-12.67015c15.35906-8.95775,31.02876-27.835,31.02876-27.835s21.916-1.50165,41.26776-13.63194,21.94642-24.66174,21.94642-24.66174a34.03115,34.03115,0,0,0,22.69789-4.18975C502.99138,159.80616,506.77859,153.38682,508.99374,147.98417Z"/>
      <path class="cls-17" d="M348.27065,246.23181c-9.38507,2.24781-16.93968,3.28157-16.93968,3.28157l2.94013,305.79227c2.92053-.395,10.95288-2.449,20.11236-5.61708Z"/>
      <path class="cls-17" d="M422.2805,205.81661a95.39521,95.39521,0,0,1-16.95456,3.19163l4.47893,297.0614s9.62137-2.07287,20.08335-5.50626Z"/>
      <path class="cls-17" d="M486.82466,168.73748a36.12336,36.12336,0,0,1-18.28448,1.977L472.73111,472.129a84.269,84.269,0,0,0,20.10229-6.0944Z"/>
    </g>
    <g>
      <g>
        <circle class="cls-19" cx="511.68583" cy="134.11485" r="8.30855"/>
        <path class="cls-20" d="M510.65047,139.98646,145.0158,351.12979l-4.04819-7.01169L506.61587,132.96692l.00184.0032a2.039,2.039,0,0,1,2.01153.2143,6.32884,6.32884,0,0,1,2.872,4.9538A1.98631,1.98631,0,0,1,510.65047,139.98646Z"/>
        <path class="cls-3" d="M512.04621,139.18375a9.87732,9.87732,0,0,0-1.29811-3.85921,9.537,9.537,0,0,0-2.8065-3.12257,6.33617,6.33617,0,0,0-3.57869-1.19276,5.1395,5.1395,0,0,0-2.50886.64884,5.67407,5.67407,0,0,0-2.59622,5.56119l4.35045-2.50864a1.38542,1.38542,0,0,1,.75463-.19294c1.08739,0,2.43818.98226,3.35041,2.56111.96491,1.66643,1.10539,3.43821.43856,4.35044a1.38429,1.38429,0,0,1-.43856.40344,1.21372,1.21372,0,0,1-.54391.158l-3.87677,2.24546a6.19278,6.19278,0,0,0,3.66649,1.29811,4.92156,4.92156,0,0,0,2.50842-.66683,5.46392,5.46392,0,0,0,2.61378-4.92927C512.08133,139.69255,512.06377,139.42958,512.04621,139.18375Z"/>
        <path class="cls-3" d="M471.28058,162.732a9.87732,9.87732,0,0,0-1.29811-3.85921,9.53716,9.53716,0,0,0-2.8065-3.12258,6.33623,6.33623,0,0,0-3.57869-1.19275,5.1395,5.1395,0,0,0-2.50886.64884,5.67407,5.67407,0,0,0-2.59622,5.56119l4.35045-2.50864a1.38542,1.38542,0,0,1,.75463-.19294c1.08739,0,2.43818.98226,3.35041,2.56111.96491,1.66642,1.10539,3.43821.43856,4.35044a1.38429,1.38429,0,0,1-.43856.40344,1.21372,1.21372,0,0,1-.54391.158l-3.87677,2.24546a6.1928,6.1928,0,0,0,3.66649,1.29811,4.92166,4.92166,0,0,0,2.50842-.66683,5.46392,5.46392,0,0,0,2.61378-4.92927C471.3157,163.24079,471.29814,162.97782,471.28058,162.732Z"/>
      </g>
      <circle class="cls-3" cx="507.41588" cy="147.17217" r="2.7993"/>
      <circle class="cls-3" cx="468.26888" cy="169.65007" r="2.7993"/>
      <path class="cls-3" d="M409.11571,198.61448a9.8777,9.8777,0,0,0-1.29811-3.85921,9.53693,9.53693,0,0,0-2.80651-3.12257,6.33615,6.33615,0,0,0-3.57869-1.19276,5.13957,5.13957,0,0,0-2.50885.64884,5.674,5.674,0,0,0-2.59622,5.56119l4.35044-2.50863a1.38536,1.38536,0,0,1,.75463-.19294c1.0874,0,2.43819.98225,3.35042,2.5611.96491,1.66643,1.10538,3.43821.43856,4.35045a1.38448,1.38448,0,0,1-.43856.40343,1.21376,1.21376,0,0,1-.54391.158l-3.87678,2.24546a6.19282,6.19282,0,0,0,3.66649,1.29811,4.92159,4.92159,0,0,0,2.50843-.66683,5.46393,5.46393,0,0,0,2.61378-4.92926C409.15083,199.12328,409.13327,198.86032,409.11571,198.61448Z"/>
      <circle class="cls-3" cx="405.52759" cy="206.67382" r="2.7993"/>
      <path class="cls-3" d="M338.08718,239.63506a9.8775,9.8775,0,0,0-1.29812-3.85921,9.53693,9.53693,0,0,0-2.8065-3.12258,6.33623,6.33623,0,0,0-3.57869-1.19275,5.13947,5.13947,0,0,0-2.50885.64884,5.674,5.674,0,0,0-2.59622,5.56119l4.35044-2.50864a1.38545,1.38545,0,0,1,.75463-.19294c1.0874,0,2.43819.98226,3.35042,2.56111.96491,1.66642,1.10538,3.43821.43855,4.35044a1.38426,1.38426,0,0,1-.43855.40344,1.21375,1.21375,0,0,1-.54392.158l-3.87677,2.24547a6.19282,6.19282,0,0,0,3.66649,1.29811,4.92163,4.92163,0,0,0,2.50842-.66683,5.46392,5.46392,0,0,0,2.61378-4.92927C338.12229,240.14386,338.10473,239.88089,338.08718,239.63506Z"/>
      <circle class="cls-3" cx="333.49132" cy="247.8611" r="2.7993"/>
      <path class="cls-3" d="M332.13559,243.05747a9.87748,9.87748,0,0,0-1.29811-3.85921,9.53707,9.53707,0,0,0-2.80651-3.12258,6.33621,6.33621,0,0,0-3.57869-1.19275,5.13947,5.13947,0,0,0-2.50885.64884,5.67405,5.67405,0,0,0-2.59622,5.56119l4.35045-2.50864a1.38539,1.38539,0,0,1,.75462-.19294c1.0874,0,2.43819.98226,3.35042,2.56111.96491,1.66643,1.10538,3.43821.43856,4.35044a1.3844,1.3844,0,0,1-.43856.40344,1.21376,1.21376,0,0,1-.54391.158l-3.87678,2.24546a6.19282,6.19282,0,0,0,3.66649,1.29811,4.92169,4.92169,0,0,0,2.50843-.66683,5.46392,5.46392,0,0,0,2.61378-4.92927C332.17071,243.56627,332.15315,243.3033,332.13559,243.05747Z"/>
      <circle class="cls-3" cx="330.00592" cy="249.9411" r="2.7993"/>
      <path class="cls-3" d="M256.95927,286.48482a9.87748,9.87748,0,0,0-1.29811-3.85921,9.53693,9.53693,0,0,0-2.80651-3.12257,6.33612,6.33612,0,0,0-3.57869-1.19276,5.1396,5.1396,0,0,0-2.50885.64884,5.67406,5.67406,0,0,0-2.59622,5.56119l4.35045-2.50864a1.38538,1.38538,0,0,1,.75462-.19293c1.0874,0,2.43819.98225,3.35042,2.5611.96491,1.66643,1.10539,3.43821.43856,4.35044a1.38429,1.38429,0,0,1-.43856.40344,1.21372,1.21372,0,0,1-.54391.158l-3.87677,2.24546a6.19277,6.19277,0,0,0,3.66648,1.29811,4.92157,4.92157,0,0,0,2.50843-.66683,5.46392,5.46392,0,0,0,2.61378-4.92927C256.99439,286.99362,256.97683,286.73065,256.95927,286.48482Z"/>
      <circle class="cls-3" cx="253.37116" cy="294.54416" r="2.7993"/>
      <path class="cls-3" d="M185.36963,327.8755a9.87748,9.87748,0,0,0-1.29811-3.85921,9.537,9.537,0,0,0-2.80651-3.12258,6.33614,6.33614,0,0,0-3.57869-1.19275,5.13947,5.13947,0,0,0-2.50885.64884,5.674,5.674,0,0,0-2.59622,5.56119l4.35045-2.50864a1.38539,1.38539,0,0,1,.75462-.19294c1.0874,0,2.43819.98226,3.35042,2.5611.96491,1.66643,1.10538,3.43822.43856,4.35045a1.38463,1.38463,0,0,1-.43856.40344,1.21387,1.21387,0,0,1-.54391.158l-3.87678,2.24546a6.19276,6.19276,0,0,0,3.66649,1.29811,4.92159,4.92159,0,0,0,2.50843-.66683,5.46391,5.46391,0,0,0,2.61378-4.92926C185.40475,328.38429,185.38719,328.12133,185.36963,327.8755Z"/>
      <circle class="cls-3" cx="181.78152" cy="335.93483" r="2.7993"/>
      <path class="cls-3" d="M149.47549,348.53111a9.87774,9.87774,0,0,0-1.29811-3.85922,9.53693,9.53693,0,0,0-2.80651-3.12257,6.33614,6.33614,0,0,0-3.57869-1.19275,5.13947,5.13947,0,0,0-2.50885.64884,5.674,5.674,0,0,0-2.59622,5.56119l4.35044-2.50864a1.38545,1.38545,0,0,1,.75463-.19294c1.0874,0,2.43819.98225,3.35042,2.5611.96491,1.66643,1.10538,3.43822.43855,4.35045a1.38448,1.38448,0,0,1-.43855.40344,1.21387,1.21387,0,0,1-.54391.158l-3.87678,2.24546a6.19276,6.19276,0,0,0,3.66649,1.29811,4.92153,4.92153,0,0,0,2.50842-.66683,5.46391,5.46391,0,0,0,2.61378-4.92926C149.5106,349.0399,149.49305,348.77694,149.47549,348.53111Z"/>
      <circle class="cls-3" cx="145.88737" cy="356.59044" r="2.7993"/>
    </g>
    <circle class="cls-21" cx="138.01345" cy="349.8787" r="8.30855"/>
  </g>
  <g>
    <g>
      <path class="cls-22" d="M541.21321,529.41688l2.27866,16.9498c0,2.09225,2.95126,3.78833,6.59177,3.78833s6.5916-1.69608,6.5916-3.78833l2.2882-16.9498Z"/>
      <path class="cls-23" d="M587.58874,502.66894l2.27866,16.94981c0,2.09225,2.95126,3.78832,6.59178,3.78832s6.5916-1.69607,6.5916-3.78832l2.28819-16.94981Z"/>
      <path class="cls-22" d="M466.41442,485.922l2.27866,16.9498c0,2.09226,2.95126,3.78833,6.59177,3.78833s6.5916-1.69607,6.5916-3.78833l2.2882-16.9498Z"/>
      <path class="cls-24" d="M607.18937,401.01778V508.74692a4.14866,4.14866,0,0,1-2.07162,3.60818l-50.86889,29.41143a8.29818,8.29818,0,0,1-4.16054,1.10494V385.21406Z"/>
      <path class="cls-25" d="M550.08832,385.21406V542.87147a8.29858,8.29858,0,0,1-4.161-1.10494l-79.96569-46.15839A4.13012,4.13012,0,0,1,463.87255,492V384.27082Z"/>
      <polygon class="cls-26" points="473.2 399.36 473.2 439.712 540.761 478.712 540.761 438.36 473.2 399.36"/>
      <polygon class="cls-27" points="473.2 448.84 473.2 489.207 540.761 528.207 540.761 487.839 473.2 448.84"/>
      <path class="cls-28" d="M462.9752,370.223v13.335a4.16214,4.16214,0,0,0,2.09855,3.63723l80.812,46.64521a8.40292,8.40292,0,0,0,8.411,0l51.69782-29.89826a4.16213,4.16213,0,0,0,2.09855-3.63723v-13.335Z"/>
      <path class="cls-29" d="M605.99449,383.33278l-80.8121-46.64514a8.40254,8.40254,0,0,0-8.4109,0L465.0737,366.58583a4.20129,4.20129,0,0,0,0,7.27444l80.81209,46.64514a8.40255,8.40255,0,0,0,8.41091,0l51.69779-29.89819A4.20129,4.20129,0,0,0,605.99449,383.33278Z"/>
    </g>
    <g>
      <g>
        <g>
          <path class="cls-30" d="M561.07946,372.685c-2.2363-5.45639-10.71894-9.52157-20.86773-9.52157s-18.63143,4.06518-20.86765,9.52157h-.59545v2.85074c0,6.83305,9.60933,12.37231,21.4631,12.37231s21.46318-5.53926,21.46318-12.37231V372.685Z"/>
          <ellipse class="cls-31" cx="540.21177" cy="372.26512" rx="21.46315" ry="12.37235"/>
          <path class="cls-30" d="M556.4586,369.08885h.012l-.02527-.1499-.00385-.024-1.81761-10.86841h-28.824l-1.80562,10.82216c-.00771.0424-.01413.085-.021.12763l-.01542.09251h.00728a5.51382,5.51382,0,0,0-.07024.79873c0,5.19459,7.30557,9.40542,16.317,9.40542s16.31654-4.21083,16.31654-9.40542A5.5135,5.5135,0,0,0,556.4586,369.08885Z"/>
          <ellipse class="cls-31" cx="540.21177" cy="358.25742" rx="14.41205" ry="8.30777"/>
        </g>
        <path class="cls-32" d="M536.90476,334.962v21.76252c0,1.05283,1.48059,1.90631,3.307,1.90631s3.307-.85348,3.307-1.90631V334.962Z"/>
      </g>
      <g>
        <path class="cls-33" d="M573.23083,332.22093h.00173l-.00535-.02705a11.40288,11.40288,0,0,0-.30642-1.56129L566.25534,290.478H514.16339l-6.66734,40.17674a11.3969,11.3969,0,0,0-.29446,1.501l-.0129.0652h.00409a11.1421,11.1421,0,0,0-.09816,1.39612c0,10.51161,14.82715,19.03289,33.11711,19.03289,18.29027,0,33.11741-8.52128,33.11741-19.03289A11.112,11.112,0,0,0,573.23083,332.22093Z"/>
        <ellipse class="cls-34" cx="540.21183" cy="291.76167" rx="26.14368" ry="15.0251"/>
        <path class="cls-35" d="M530.46992,305.69736a44.10329,44.10329,0,0,0,19.48371,0v-7.66628H530.46992Z"/>
        <ellipse class="cls-36" cx="540.21183" cy="298.03114" rx="9.7419" ry="5.61568"/>
        <path class="cls-37" d="M540.21182,278.02515c13.70514,0,24.855,6.16215,24.855,13.73648s-11.14983,13.7366-24.855,13.7366-24.855-6.16226-24.855-13.7366,11.14983-13.73648,24.855-13.73648m0-1.2886c-14.43869,0-26.14367,6.727-26.14367,15.02508,0,8.29821,11.705,15.02519,26.14367,15.02519s26.14367-6.727,26.14367-15.02519c0-8.2981-11.705-15.02508-26.14367-15.02508Z"/>
      </g>
    </g>
  </g>
  <g>
    <path class="cls-38" d="M241.7915,113.44029a191.74878,191.74878,0,1,1-74.8872,15.113,191.18371,191.18371,0,0,1,74.8872-15.113m0-17.54223c-115.95068,0-209.94726,93.99682-209.94726,209.94751S125.84082,515.79308,241.7915,515.79308c115.95118,0,209.94776-93.99683,209.94776-209.94751S357.74268,95.89806,241.7915,95.89806Z"/>
    <circle class="cls-39" cx="241.79174" cy="305.84555" r="194.19259"/>
    <path class="cls-39" d="M435.98541,305.84375A194.17509,194.17509,0,1,1,364.93924,155.6819,193.78539,193.78539,0,0,1,435.98541,305.84375Z"/>
  </g>
  <g class="cls-40">
    <g>
      <g>
        <path class="cls-41" d="M807.55149,847.1988l10.83459,72.48029c0,9.20584,12.80081,16.66809,28.59134,16.66809s28.59135-7.46225,28.59135-16.66809l10.62949-72.48029Z"/>
        <polygon class="cls-42" points="907.015 655.972 907.015 172.854 836.944 213.44 836.944 686.5 907.015 655.972"/>
        <g>
          <polygon class="cls-43" points="87.837 -229.371 87.837 262.784 836.944 651.602 836.944 213.44 87.837 -229.371"/>
          <polygon class="cls-44" points="134.891 -201.418 134.891 436.67 779.163 656.641 779.163 179.423 134.891 -201.418"/>
          <path class="cls-45" d="M907.01456,655.97161l-.00917,191.7938c0,11.47938-4.77306,23.37942-16.30318,30.06174l-1195.6558,691.89619a65.622,65.622,0,0,1-33.01795,8.77855V1095.23132Z"/>
          <g>
            <path class="cls-46" d="M836.94413,597.56976V720.89564l-.03279-.03279a32.416,32.416,0,0,1-16.27956,29.775L-304.96276,1401.30118a65.29281,65.29281,0,0,1-33.018,8.77854L-165.58156,682.7022Z"/>
            <path class="cls-47" d="M836.94413,646.41013V769.736l-.03279-.03279a32.416,32.416,0,0,1-16.27956,29.775L-304.96276,1450.14154a65.29282,65.29282,0,0,1-33.018,8.77855l172.39916-727.37753Z"/>
            <path class="cls-30" d="M836.94413,576.63818V699.96405l-.03279-.03279a32.416,32.416,0,0,1-16.27956,29.775L-304.96276,1380.36959a65.29293,65.29293,0,0,1-33.018,8.77855l.31744-160.14872Z"/>
            <path class="cls-48" d="M-1065.23484,854.81462l694.75069,401.09605a65.51173,65.51173,0,0,0,65.51815-.005L820.62658,605.24139c21.83314-12.60925,21.832-44.12405-.00213-56.73166L126.085,147.46324a65.51174,65.51174,0,0,0-65.515-.00189l-1125.8054,650.61814C-1087.0729,810.68738-1087.07258,842.20718-1065.23484,854.81462Z"/>
          </g>
          <polygon class="cls-49" points="149.372 -264.946 907.015 172.854 836.944 213.44 87.837 -229.371 149.372 -264.946"/>
          <path class="cls-50" d="M930.199,169.59351,64.50519-265.07353v32.74966l.0084-.003a9.72579,9.72579,0,0,0,4.81282,8.60861L854.38293,240.34388a19.654,19.654,0,0,0,19.85164.088L925.29764,210.855a9.69509,9.69509,0,0,0,4.83141-9.06724l.07.03739Z"/>
          <path class="cls-51" d="M132.82012-296.836,925.28884,161.0875a9.82675,9.82675,0,0,1,.00877,17.01172L874.23455,207.676a19.65349,19.65349,0,0,1-19.85156-.088L69.32645-256.474a9.82676,9.82676,0,0,1,.08217-16.96671l40.46354-23.39291A22.92909,22.92909,0,0,1,132.82012-296.836Z"/>
        </g>
      </g>
      <g>
        <g>
          <path class="cls-30" d="M82.99572,314.72667c.68507-.739,133.90679-77.14938,133.90679-77.14938-.69322-4.6258-1.79558-10.09819,1.17991-11.64509,3.3776-1.75568,10.2913,1.64969,13.92461,5.87844,46.2192-9.75868,67.46888-9.59151,159.40977,42.6808,119.157,67.74584,126.39206,98.078,153.06607,145.39443,8.29332,3.93888,12.715,6.6009,10.82,11.564-1.754,4.59386-13.29886,6.97091-19.1339,4.94213l-125.72109,72.189c1.19789,5.3134-.82739,12.42526-4.17352,14.09973-4.39735,2.20106-10.68683-2.36086-13.49877-11.21219l-.00309-.007c-54.80852-2.2714-129.43773-35.64255-178.97639-66.882C172.62867,418.61865,102.55072,376.89014,83.67545,332.37c-7.27533-.01686-14.36844-3.653-14.6441-8.25856C68.75147,319.42636,75.58888,315.51094,82.99572,314.72667Z"/>
          <path class="cls-30" d="M355.37861,498.31968,313.68812,649.64616a223.94877,223.94877,0,0,1-47.91023,88.60871l-6.67635,7.5737L148.94512,605.71631,323.783,484.00645Z"/>
          <path class="cls-52" d="M70.5743,282.61275c.68507-.739,133.90679-77.14937,133.90679-77.14937-.69322-4.6258-1.79559-10.0982,1.17991-11.64509,3.3776-1.75568,10.2913,1.64968,13.92461,5.87843,46.2192-9.75868,67.46888-9.5915,159.40977,42.68081,119.157,67.74584,126.39206,98.078,153.06607,145.39442,8.29332,3.93888,12.715,6.60091,10.82,11.564-1.754,4.59386-13.29887,6.97091-19.1339,4.94214l-125.72109,72.189c1.19789,5.3134-.82739,12.42526-4.17352,14.09973-4.39735,2.20106-10.68683-2.36085-13.49877-11.21219l-.00309-.007c-54.80852-2.27141-129.43773-35.64255-178.97639-66.882C160.20725,386.50473,90.1293,344.77622,71.254,300.2561c-7.27533-.01686-14.36845-3.653-14.64411-8.25857C56.33005,287.31244,63.16745,283.397,70.5743,282.61275Z"/>
          <path class="cls-48" d="M64.74212,319.29787c-24.29233,2.18777-71.44181,7.74925-141.772,29.6907-37.48186,11.22367-14.46292,95.5911,17.5347,90.58886l28.83115-4.6951c56.36744-67.49752,112.84178-111.649,168.42594-108.9748C115.06854,320.04265,89.03445,317.11011,64.74212,319.29787Z"/>
          <path class="cls-53" d="M357.74524,318.27775l-6.416-19.66513-79.36579,10.86672-14.02717,72.50389-26.45195,13.46323,75.09143,67.90076C359.743,375.06532,357.74524,318.27775,357.74524,318.27775Z"/>
          <path class="cls-48" d="M238.96688,389.51761C178.61338,337.669,101.90279,280.65639,18.92671,362.00572-5.50881,394.3821-29.58616,429.66581-53.39413,467.14128l-207.397,56.323C-374.8787,593.82638-155.75175,712.51662-54.015,709.19046L104.511,651.87092,328.718,525.22137C342.73255,467.59861,280.02379,424.78885,238.96688,389.51761Z"/>
          <path class="cls-30" d="M235.43422,519.31872l-54.7001,39.4226c-62.21986-58.1504-119.62141-97.78459-205.86984-134.885L-49.422,460.74191l-200.60145,57.09441C-374.87894,593.827-155.75141,712.516-54.01488,709.18994L80.96458,631.08745l105.43508-3.04193,21.32053-19.808Z"/>
          <path class="cls-54" d="M-421.34275,403.65475l15.27194-8.9861a162.781,162.781,0,0,1,116.00449-19.118C-78.51729,419.998,188.20645,553.85215,259.8201,730.26179c52.39973,129.079,58.06975,214.87816,55.9142,258.13937a83.90185,83.90185,0,0,1-23.457,53.9342C136.07042,1205.02128-166.69506,1371.69849-335.434,1412.91324a81.94513,81.94513,0,0,1-42.27454-.83818c-288.66558-83.75039-597.30969-272.1393-723.09843-396.44526a83.45629,83.45629,0,0,1-23.00182-76.60712c8.69278-41.26752,24.00838-102.40193,44.05325-136.09553C-1047.60152,748.87921-421.34275,403.65475-421.34275,403.65475Z"/>
          <path class="cls-55" d="M-71.69947,625.52764-34.776,640.77628c7.03116,2.90351,17.05561,5.42935,24.72711,5.26926l36.50163-2.24922c36.48615,34.78385,126.13563,117.08983,159.9775,119.50755,21.08392,1.50591,44.64326-26.47182,63.16791-55.3455-14.38-28.29046-33.69993-55.38523-56.87892-81.07859L179.677,659.91,40.65122,589.53207l-18.50613-15.1812a47.05,47.05,0,0,0-20.4069-10.94982l-34.25164-9.82655a9.22681,9.22681,0,0,0-11.01572,6.14114c-1.36684,4.26672,3.96068,10.384,7.92767,12.46891l-37.31389,4.01819a11.36962,11.36962,0,0,0-11.964,12.05323l1.2719,20.60634A19.31839,19.31839,0,0,0-71.69947,625.52764Z"/>
          <path class="cls-30" d="M24.65859,376.95529c-22.119,22.47269-50.13626,50.93839-57.33717,58.25545l-23.44793,3.81811Z"/>
          <path class="cls-56" d="M22.14512,551.34848a47.05233,47.05233,0,0,0-20.407-10.95068l-34.25173-9.826a9.22756,9.22756,0,0,0-11.01586,6.1404l0,0c-1.36657,4.26744,3.96106,10.38523,7.92807,12.46884l9.77694-1.053-47.09067,5.07159a11.36948,11.36948,0,0,0-11.96387,12.0531l1.27171,20.6064a19.31854,19.31854,0,0,0,11.908,16.66594l36.92338,15.248c7.031,2.90354,17.05572,5.42959,24.72684,5.26933l44.88532-2.76529,16.86968-44.67958Z"/>
          <path class="cls-48" d="M218.78944,527.02339s-14.5,29.36871-28.99407,61.12264c-26.45552,56.60532,73.67779,91.61864,94.03481,58.63415,16.12886-29.85458,34.74064-76.22352,45.71137-124.98094C340.62242,468.29519,248.31692,473.01056,218.78944,527.02339Z"/>
          <ellipse class="cls-57" cx="236.99244" cy="616.9256" rx="34.32222" ry="47.50604" transform="translate(-422.52326 574.47971) rotate(-65.30325)"/>
          <path class="cls-56" d="M195.08426,606.11189l-15.88781,35.60336L45.56079,570.55666,22.2463,621.0528S143.48675,737.23242,186.43071,740.30086c31.32059,2.23745,48.65027-26.98454,61.35279-52.11224L273.975,636.3775C287.48709,604.145,215.11148,566.55735,195.08426,606.11189Z"/>
          <g>
            <path class="cls-56" d="M266.78021,412.80161c-9.61889-8.13648-19.19346-15.87866-27.81287-23.28386-19.96982-17.15553-41.73077-34.87116-64.91606-47.95845a28.26172,28.26172,0,0,0-11.19759,2.74935c-28.26218,14.52462-25.09256,94.72026-25.09256,94.72026S248.62613,442.41409,266.78021,412.80161Z"/>
            <path class="cls-58" d="M193.13985,361.91533c-6.60422,7.9745-10.39037,17.64735-3.746,27.85694,13.48228,20.71654,45.99192,24.10433,57.40926,8.497l35.39451-36.65571-58.33111-36.2146Z"/>
          </g>
        </g>
        <g>
          <g>
            <path class="cls-59" d="M236.23764,209.87121c-21.2422-16.55126-49.39744,4.35577-40.8658,30.57319-21.59612,19.07256-5.62952,50.17823-5.62952,50.17823L210.608,257.8168c.07037.03878.13352.08461.20453.12217a27.18828,27.18828,0,0,0,36.74612-11.32149C254.57949,233.34416,248.08254,219.1006,236.23764,209.87121Z"/>
            <path class="cls-56" d="M194.14046,390.61981c36.747,12.57353,64.5586,5.87644,85.172-23.23554l44.46272-63.012c18.64661-24.91824,10.55354-64.53367-20.20039-83.61759-26.87855-16.6791-68.40375-11.68324-86.895,18.08342,0,0-22.32757,37.03376-36.1468,68.74059S160.74541,379.1932,194.14046,390.61981Z"/>
            <path class="cls-60" d="M361.75422,290.77079c17.88509-21.46209,5.073-52.834-18.94749-57.47542,6.138-33.10484-35.88575-56.55151-59.51117-41.64-15.15405-22.22339-65.279-21.52376-71.3718,24.40763-1.94013,7.81795-1.82061,23.40673,16.37878,25.85764-6.09843,13.83309,12.03423,37.91067,35.567,27.20694-14.147,18.28425,7.12588,39.51145,20.74234,39.03388-17.56151,16.12661-6.95225,33.57931-4.90807,39.04324-12.90128,14.0399-23.8647,29.126-24.71309,42.61833,0,0,19.701,5.65052,31.9382-12.36345,6.87474,1.28491,15.36805-.7,22.8307-6.01491a33.08042,33.08042,0,0,0,11.7028-14.51787,21.47872,21.47872,0,0,0,25.08423-23.86817C361.00707,327.50558,372.716,305.36912,361.75422,290.77079Z"/>
            <g>
              <path class="cls-61" d="M283.51582,329.3239c-15.76331,14.85933-32.7594,4.81578-55.9685-22.34336-6.905-8.08018-11.78442-14.78414-17.73376-17.88965-9.75484-5.09195-14.62649.706-20.55411-1.68873-5.96742-2.41078-5.9645-8.07317-4.10416-13.44621,8.80142-25.42032,36.73625-36.507,71.79544-12.69336S294.26978,319.18664,283.51582,329.3239Z"/>
              <path class="cls-62" d="M290.43173,362.34524c2.94143-1.29112,5.91555-2.7477,8.85952-4.37117-.99226-14.61156-4.84959-27.57094-11.57354-38.571l-7.72936,4.72308C286.59418,334.94139,289.99875,347.49575,290.43173,362.34524Z"/>
            </g>
          </g>
          <path class="cls-56" d="M268.25164,373.31749c11.968,6.24106,30.75693-5.216,37.839-18.7967s1.28363-31.142-12.19259-30.38341C276.981,325.08959,256.28364,367.07643,268.25164,373.31749Z"/>
        </g>
      </g>
    </g>
  </g>
  <g>
    <ellipse class="cls-34" cx="895.56805" cy="404.45656" rx="9.91662" ry="5.7164"/>
    <path class="cls-63" d="M905.48461,404.459c-.00257,3.156-4.44124,5.71409-9.91678,5.71409-5.47681,0-9.91634-2.55939-9.91634-5.71666v53.52265c0,3.15716,4.43953,5.71644,9.91634,5.71644s9.91678-2.55928,9.91678-5.71644V404.459Z"/>
    <path class="cls-64" d="M905.48461,410.95336c-.00257,3.156-4.44124,5.71409-9.91678,5.71409-5.47681,0-9.91634-2.55939-9.91634-5.71666v3.91979c0,3.15715,4.43953,5.71644,9.91634,5.71644s9.91678-2.55929,9.91678-5.71644Z"/>
    <path class="cls-65" d="M905.48461,446.11254c-.00257,3.156-4.44124,5.71409-9.91678,5.71409-5.47681,0-9.91634-2.55939-9.91634-5.71666v3.91978c0,3.15716,4.43953,5.71644,9.91634,5.71644s9.91678-2.55928,9.91678-5.71644Z"/>
    <path class="cls-37" d="M895.56812,400.05577c5.0686,0,8.60083,2.31934,8.60083,4.40088s-3.53223,4.40064-8.60083,4.40064c-5.06885,0-8.60108-2.31909-8.60108-4.40064s3.53223-4.40088,8.60108-4.40088m0-1.31567c-5.47681,0-9.91675,2.55933-9.91675,5.71655,0,3.157,4.43994,5.71631,9.91675,5.71631s9.9165-2.55933,9.9165-5.71631c0-3.15722-4.4397-5.71655-9.9165-5.71655Z"/>
  </g>
  <g>
    <g>
      <polygon class="cls-66" points="718.848 239.655 678.019 216.044 678.019 277.961 718.848 301.571 718.848 239.655"/>
      <polygon class="cls-67" points="718.848 242.882 686.853 224.379 686.853 272.9 718.848 291.402 718.848 242.882"/>
      <path class="cls-68" d="M681.68029,222.39088l33.50614,19.37619v53.45767l-33.50614-19.37621V222.39088m-3.66132-6.34675v61.91656l40.82878,23.6108V239.65492L678.019,216.04413Z"/>
      <polygon class="cls-69" points="725.459 297.765 725.459 235.849 718.848 239.655 718.848 301.571 725.459 297.765"/>
      <polygon class="cls-70" points="725.459 235.849 684.616 212.246 678.019 216.044 718.848 239.655 725.459 235.849"/>
    </g>
    <g>
      <polygon class="cls-71" points="772.711 296.119 731.882 272.508 731.882 334.425 772.711 358.036 772.711 296.119"/>
      <polygon class="cls-72" points="772.711 299.346 740.716 280.843 740.716 329.364 772.711 347.866 772.711 299.346"/>
      <path class="cls-73" d="M735.5433,278.85495l33.50614,19.37619V351.6888L735.5433,332.31259V278.85495m-3.66132-6.34676v61.91656l40.82878,23.6108V296.119L731.882,272.50819Z"/>
      <polygon class="cls-74" points="779.322 354.229 779.322 292.313 772.711 296.119 772.711 358.036 779.322 354.229"/>
      <polygon class="cls-75" points="779.322 292.313 738.479 268.71 731.882 272.508 772.711 296.119 779.322 292.313"/>
    </g>
    <g>
      <polygon class="cls-76" points="826.574 286.773 785.745 263.162 785.745 325.078 826.574 348.689 826.574 286.773"/>
      <polygon class="cls-77" points="826.574 289.999 794.579 271.497 794.579 320.017 826.574 338.52 826.574 289.999"/>
      <path class="cls-78" d="M789.40631,269.5086l33.50614,19.37619v53.45767l-33.50614-19.37621V269.5086m-3.66132-6.34675v61.91656l40.82878,23.6108V286.77263L785.745,263.16185Z"/>
      <polygon class="cls-79" points="833.185 344.883 833.185 282.967 826.574 286.773 826.574 348.689 833.185 344.883"/>
      <polygon class="cls-80" points="833.185 282.967 792.342 259.364 785.745 263.162 826.574 286.773 833.185 282.967"/>
    </g>
  </g>
  <g>
    <circle class="cls-38" cx="105.34043" cy="169.43726" r="62.02326"/>
    <g>
      <rect class="cls-81" x="84.28363" y="160.79502" width="13.46241" height="40.4658" transform="translate(-101.34844 117.37906) rotate(-45)"/>
      <rect class="cls-81" x="110.49446" y="143.61416" width="13.46241" height="60.59444" transform="translate(77.14282 379.77635) rotate(-135)"/>
    </g>
  </g>
  <g>
    <g>
      <path class="cls-82" d="M832.29,646.67147l3.46165,23.1575c0,2.94127,4.08987,5.32547,9.135,5.32547s9.13495-2.3842,9.13495-5.32547l3.39613-23.1575Z"/>
      <path class="cls-83" d="M232.09455,736.096l3.46165,23.1575c0,2.94127,4.08987,5.32547,9.135,5.32547s9.135-2.3842,9.135-5.32547l3.39613-23.1575Z"/>
      <path class="cls-84" d="M453.73083,866.0818l3.46165,23.1575c0,2.94127,4.08987,5.32546,9.135,5.32546s9.135-2.38419,9.135-5.32546l3.39613-23.1575Z"/>
      <polygon class="cls-85" points="864.069 585.574 864.069 431.218 841.681 444.185 841.681 595.328 864.069 585.574"/>
      <g>
        <polygon class="cls-86" points="602.341 302.707 602.341 459.95 841.681 584.178 841.681 444.185 602.341 302.707"/>
        <polygon class="cls-87" points="617.375 311.638 617.375 515.507 823.22 585.788 823.22 433.317 617.375 311.638"/>
        <path class="cls-88" d="M864.06854,585.57426l-.00293,61.27824a10.76375,10.76375,0,0,1-5.20888,9.60475L476.84393,877.51853a20.96623,20.96623,0,0,1-10.54926,2.80475V725.918Z"/>
        <path class="cls-89" d="M466.29467,725.918V880.32328a20.8248,20.8248,0,0,1-10.39225-2.80475L233.92883,749.36826a10.33645,10.33645,0,0,1-5.22234-8.90616V678.47486Z"/>
        <g>
          <path class="cls-46" d="M841.681,566.91483v39.4027l-.01047-.01048a10.357,10.357,0,0,1-5.20133,9.51312L476.841,823.70754a20.86107,20.86107,0,0,1-10.54926,2.80475L521.37339,594.1147Z"/>
          <path class="cls-90" d="M841.681,582.51936v39.4027l-.01047-.01048a10.357,10.357,0,0,1-5.20133,9.51312L476.841,839.31207a20.86107,20.86107,0,0,1-10.54926,2.80475l55.08165-232.39759Z"/>
          <path class="cls-91" d="M521.37339,609.71923,466.29174,842.11682A20.84428,20.84428,0,0,1,455.91,839.31207L233.93632,711.1618a10.37313,10.37313,0,0,1-5.23276-9.07365V661.9006Z"/>
          <path class="cls-30" d="M841.681,560.22718v39.40269l-.01047-.01047a10.357,10.357,0,0,1-5.20133,9.51312L476.841,817.01988a20.86107,20.86107,0,0,1-10.54926,2.80475l.10142-51.16761Z"/>
          <path class="cls-92" d="M468.28319,753.23515l-1.99145,66.58948A20.84417,20.84417,0,0,1,455.91,817.01988L233.93632,688.86962a10.37314,10.37314,0,0,1-5.23276-9.07365V639.60842Z"/>
          <path class="cls-48" d="M233.93358,649.10473l221.9733,128.15045a20.931,20.931,0,0,0,20.93309-.00161L836.46753,569.36592a10.46551,10.46551,0,0,0-.00069-18.1258L614.56105,423.10551a20.931,20.931,0,0,0-20.9321-.00061L233.9334,630.97782A10.46552,10.46552,0,0,0,233.93358,649.10473Z"/>
        </g>
        <polygon class="cls-49" points="622.001 291.341 864.069 431.218 841.681 444.185 602.341 302.707 622.001 291.341"/>
        <path class="cls-93" d="M871.476,430.17614,594.88625,291.29974v10.46354l.00269-.001a3.10738,3.10738,0,0,0,1.53769,2.75045L847.2527,452.78093a6.27946,6.27946,0,0,0,6.34261.0281L869.91,443.35922a3.09758,3.09758,0,0,0,1.54363-2.897l.02236.01194Z"/>
        <path class="cls-94" d="M616.71292,281.15161,869.90719,427.45846a3.13966,3.13966,0,0,1,.0028,5.43526l-16.31468,9.4498a6.27931,6.27931,0,0,1-6.34259-.0281L596.42665,294.0473a3.13965,3.13965,0,0,1,.02625-5.42087l12.92813-7.47405A7.32587,7.32587,0,0,1,616.71292,281.15161Z"/>
      </g>
    </g>
    <g>
      <g>
        <path class="cls-30" d="M600.794,476.54628c.21888-.23612,42.78331-24.64928,42.78331-24.64928-.22149-1.47794-.5737-3.22638.377-3.72061,1.07914-.56094,3.28807.52708,4.44892,1.87816,14.76706-3.1179,21.55635-3.06449,50.93152,13.63655,38.07075,21.64484,40.38235,31.336,48.90471,46.45361,2.64972,1.25848,4.06245,2.109,3.457,3.69471-.56041,1.46774-4.249,2.22721-6.1133,1.579l-40.168,23.06444c.38273,1.69763-.26435,3.96988-1.33344,4.50487-1.405.70324-3.41445-.75429-4.31287-3.5823l-.001-.00224c-17.51136-.72572-41.35544-11.38782-57.18308-21.36885-13.153-8.29453-35.543-21.62681-41.57363-35.851-2.32447-.00539-4.59073-1.16714-4.6788-2.63862C596.24294,478.04783,598.4275,476.79685,600.794,476.54628Z"/>
        <path class="cls-30" d="M687.8205,535.20436l-13.32014,48.34892A71.5518,71.5518,0,0,1,659.193,611.86381l-2.1331,2.41981-35.195-44.766,55.8608-38.88638Z"/>
        <path class="cls-52" d="M596.82534,466.28586c.21888-.23612,42.7833-24.64927,42.7833-24.64927-.22148-1.478-.57369-3.22638.377-3.72062,1.07915-.56094,3.28808.52708,4.44893,1.87817,14.76706-3.11791,21.55635-3.0645,50.93152,13.63654,38.07075,21.64484,40.38235,31.336,48.90471,46.45361,2.64972,1.25848,4.06245,2.109,3.457,3.69471-.56041,1.46775-4.249,2.22721-6.11329,1.579l-40.168,23.06444c.38273,1.69764-.26435,3.96988-1.33344,4.50487-1.405.70325-3.41445-.75429-4.31287-3.5823l-.001-.00224c-17.51135-.72572-41.35543-11.38782-57.18307-21.36885-13.153-8.29452-35.543-21.62681-41.57363-35.851-2.32447-.00539-4.59073-1.16713-4.6788-2.63861C592.27429,467.78742,594.45884,466.53644,596.82534,466.28586Z"/>
        <path class="cls-48" d="M594.962,478.00678c-7.76141.699-22.8257,2.47589-45.29625,9.4862-11.97548,3.586-4.62091,30.54142,5.60235,28.9432l9.21157-1.50009c18.00944-21.5655,36.053-35.67194,53.8122-34.81752A70.60871,70.60871,0,0,0,594.962,478.00678Z"/>
        <path class="cls-53" d="M688.57664,477.68085l-2.04991-6.283-25.35742,3.47192-4.48169,23.165-8.45142,4.30152L672.228,524.03064C689.21493,495.82452,688.57664,477.68085,688.57664,477.68085Z"/>
        <path class="cls-48" d="M650.62688,500.442c-19.283-16.56565-43.79207-34.78123-70.303-8.79006-7.80717,10.34427-15.49989,21.61744-23.10656,33.59088l-66.26349,17.99522c-36.451,22.48075,33.56017,60.40236,66.06511,59.33965l50.64918-18.31363,71.63429-40.46462C683.78007,525.389,663.74458,511.71122,650.62688,500.442Z"/>
        <path class="cls-30" d="M649.49819,541.91357l-17.47672,12.59555c-19.87929-18.57909-38.21912-31.24224-65.77555-43.09584l-7.75949,11.785-64.09229,18.2417c-39.8914,24.27908,30.12,62.20028,62.62487,61.13761l43.126-24.9538,33.68658-.97189,6.81192-6.32867Z"/>
        <path class="cls-95" d="M439.65752,504.95886l4.87939-2.87107a52.00867,52.00867,0,0,1,37.06352-6.1082c67.59,14.20093,152.80845,56.96744,175.68906,113.33043,16.74175,41.24082,18.55333,68.65371,17.86462,82.47569a26.8067,26.8067,0,0,1-7.49452,17.232c-49.9082,51.97825-146.642,105.23173-200.55416,118.39987a26.1815,26.1815,0,0,1-13.50674-.2678c-92.22884-26.7583-190.84083-86.94868-231.03042-126.66452a26.66433,26.66433,0,0,1-7.34909-24.476c2.77735-13.185,7.67069-32.71749,14.075-43.48261C239.56744,615.2583,439.65752,504.95886,439.65752,504.95886Z"/>
        <path class="cls-55" d="M551.36878,575.84739l11.79705,4.87195a21.93808,21.93808,0,0,0,7.90033,1.68353l11.6623-.71862c11.65734,11.11346,40.30041,37.41027,51.11291,38.18273,6.73633.48114,14.26355-8.45776,20.18219-17.68292a120.61,120.61,0,0,0-18.17285-25.90466l-4.167,10.55316-44.41883-22.48578-5.91272-4.8504a15.03258,15.03258,0,0,0-6.52-3.49848l-10.94342-3.13958a2.948,2.948,0,0,0-3.51953,1.96209c-.4367,1.36322,1.26544,3.31769,2.5329,3.98383L550.98029,560.088a3.6326,3.6326,0,0,0-3.82251,3.851l.40637,6.58374A6.17222,6.17222,0,0,0,551.36878,575.84739Z"/>
        <path class="cls-55" d="M525.26123,545.36944l7.13721,10.96045a18.98736,18.98736,0,0,0,7.36426,6.27564l9.427,4.531a5.72481,5.72481,0,0,0,6.29516-.89135l4.6023-4.113a6.72751,6.72751,0,0,0,1.20386-8.61084l-6.63282-10.49243a14.94919,14.94919,0,0,0-9.12671-6.54444l-7.375-1.53369-1.59619-14.20068,11.72022-3.28662c-10.62305-4.61279-21.41577-8.68628-32.11011-12.17359-7.91455,3.93116-14.08789,8.3108-13.62036,12.27564C503.67358,527.0965,519.82056,542.24274,525.26123,545.36944Z"/>
        <g>
          <path class="cls-96" d="M531.53916,542.91062l11.69013-10.23324,8.90865,1.85264a14.95075,14.95075,0,0,1,9.1267,6.5442l6.6327,10.49281a6.72753,6.72753,0,0,1-1.20372,8.6109l-4.60232,4.113a5.7252,5.7252,0,0,1-6.29534.89116l-9.42672-4.53117a18.98452,18.98452,0,0,1-7.36435-6.27545Z"/>
          <path class="cls-30" d="M582.15524,496.42836c-7.067,7.18-16.01857,16.27485-18.31927,18.61266l-7.49163,1.21989Z"/>
          <ellipse class="cls-57" cx="553.00425" cy="502.33623" rx="8.79289" ry="12.83657" transform="translate(-94.67008 129.94751) rotate(-12.35397)"/>
          <path class="cls-56" d="M520.28963,501.04066c-8.80519,4.19782-12.09715,8.86253-11.13325,14.57038,1.598,9.463,22.38278,27.29958,22.38278,27.29958l11.69013-10.23324-7.62547-14.34045,18.23515-4.40231c11.6004-1.98208,5.216-24.30658-4.287-22.781A122.41508,122.41508,0,0,0,520.28963,501.04066Z"/>
          <path class="cls-56" d="M531.86767,543.415l7.13723,10.96045a18.984,18.984,0,0,0,7.36426,6.27557l9.42681,4.53106a5.72486,5.72486,0,0,0,6.29531-.89132l4.60238-4.113a6.72764,6.72764,0,0,0,1.20375-8.61085l-6.63286-10.49262a14.94976,14.94976,0,0,0-9.12671-6.54427l-7.37478-1.53376C534.93617,530.27114,530.19949,540.60843,531.86767,543.415Z"/>
          <path class="cls-58" d="M567.89741,551.56691,563.836,545.142l-2.68383-.76976a2.948,2.948,0,0,0-3.51952,1.96207h0c-.43669,1.36322,1.26543,3.31767,2.53288,3.9838l-11.92178,1.28382a3.63236,3.63236,0,0,0-3.82231,3.851l.26331,4.26954a19.04747,19.04747,0,0,0,1.6844.92855l9.42681,4.53106a5.72486,5.72486,0,0,0,6.29531-.89132l4.60238-4.113A6.72764,6.72764,0,0,0,567.89741,551.56691Z"/>
          <path class="cls-56" d="M554.23676,535.20436l11.7986,4.69077c3.39448,1.36662,1.16291,4.89625-1.36973,4.32795l-3.19551-.70841Z"/>
        </g>
        <path class="cls-56" d="M581.35218,552.1471a15.03327,15.03327,0,0,0-6.52006-3.49875l-10.94345-3.13941a2.94822,2.94822,0,0,0-3.51958,1.96186v0c-.43662,1.36345,1.26556,3.31808,2.533,3.9838l3.12374-.33642-15.0455,1.62037a3.63255,3.63255,0,0,0-3.82246,3.851l.40631,6.58375a6.17228,6.17228,0,0,0,3.80462,5.32478l11.79705,4.87175a21.93667,21.93667,0,0,0,7.90024,1.68355l14.34089-.88351,5.38987-14.27515Z"/>
        <path class="cls-48" d="M644.18017,544.37522s-4.63275,9.38332-9.26363,19.52872c-8.45255,18.08544,23.54011,29.27222,30.04419,18.73365a165.70271,165.70271,0,0,0,14.60481-39.93149C683.10588,525.61152,653.61422,527.11809,644.18017,544.37522Z"/>
        <ellipse class="cls-57" cx="649.99604" cy="573.09903" rx="10.96597" ry="15.17821" transform="translate(-142.26114 924.1915) rotate(-65.30325)"/>
        <path class="cls-56" d="M636.60635,569.64405l-5.07617,11.37529L588.8335,558.28413l-7.449,16.13355s38.7364,37.11946,52.457,38.09983c10.00695.71487,15.5438-8.62158,19.60226-16.64989l8.3682-16.55369C666.12911,569.01563,643.00506,557.00634,636.60635,569.64405Z"/>
        <g>
          <path class="cls-56" d="M659.51325,507.88129c-3.07324-2.59961-6.13232-5.07325-8.88623-7.43921-6.38037-5.4812-13.333-11.14136-20.74072-15.32276a9.02975,9.02975,0,0,0-3.57764.87842c-9.02978,4.64063-8.01709,30.26319-8.01709,30.26319S653.713,517.34249,659.51325,507.88129Z"/>
          <path class="cls-58" d="M635.98511,491.62309c-2.11005,2.54786-3.31973,5.63834-1.19685,8.90031,4.3076,6.61894,14.69445,7.70135,18.3423,2.71479l11.30857-11.71153L645.8023,479.95608Z"/>
        </g>
      </g>
      <g>
        <g>
          <path class="cls-97" d="M649.75488,443.04489c-6.78689-5.28814-15.78251,1.39167-13.05665,9.76816-6.9,6.09369-1.79863,16.032-1.79863,16.032l6.6666-10.48148c.02248.01239.04266.027.06535.039a8.68667,8.68667,0,0,0,11.74041-3.61722C655.61511,450.54451,653.53933,445.99369,649.75488,443.04489Z"/>
          <path class="cls-56" d="M636.3048,500.79419c11.7407,4.01725,20.62652,1.87752,27.2125-7.42377l14.20587-20.13237c5.95761-7.9614,3.37187-20.61855-6.454-26.71588-8.58771-5.329-21.855-3.7328-27.763,5.77766A226.31135,226.31135,0,0,0,631.9572,474.2625C627.542,484.39285,625.63506,497.14338,636.3048,500.79419Z"/>
          <path class="cls-98" d="M689.85751,468.89236c5.7143-6.85715,1.62084-16.8805-6.05374-18.36343,1.96111-10.577-11.46552-18.06825-19.01385-13.304-4.84173-7.10039-20.85668-6.87685-22.80334,7.79825-.61987,2.49784-.58169,7.47847,5.233,8.26153-1.94845,4.41969,3.84494,12.11249,11.36369,8.69264-4.52,5.84183,2.27672,12.62394,6.62719,12.47135-5.61091,5.15246-2.22125,10.72861-1.56813,12.47434-4.122,4.48576-7.62479,9.30578-7.89585,13.61659a9.52269,9.52269,0,0,0,10.20428-3.95014,9.85379,9.85379,0,0,0,7.29442-1.92176,10.56928,10.56928,0,0,0,3.739-4.63847,6.86246,6.86246,0,0,0,8.01443-7.6259C689.6188,480.62915,693.3598,473.55654,689.85751,468.89236Z"/>
          <g>
            <path class="cls-99" d="M664.86029,481.2101c-5.03639,4.74757-10.46665,1.53865-17.882-7.13871-2.20615-2.58163-3.76513-4.72355-5.666-5.71576-3.11668-1.62688-4.67317.22556-6.567-.53955-1.90659-.77025-1.90566-2.57938-1.31128-4.29607,2.812-8.12181,11.73725-11.664,22.93869-4.05554S668.29619,477.97124,664.86029,481.2101Z"/>
            <path class="cls-100" d="M667.06993,491.76044c.93979-.41251,1.89-.87789,2.83062-1.39659a26.81911,26.81911,0,0,0-3.69775-12.32345l-2.46954,1.509A24.2,24.2,0,0,1,667.06993,491.76044Z"/>
          </g>
        </g>
        <path class="cls-56" d="M659.98338,495.26608c3.82378,1.994,9.82685-1.66651,12.08957-6.00555s.41012-9.94988-3.89554-9.70752C662.77241,479.85724,656.15959,493.27206,659.98338,495.26608Z"/>
      </g>
    </g>
  </g>
</svg>
