<svg id="Layer_1" data-name="Layer 1" xmlns="http://www.w3.org/2000/svg" xmlns:xlink="http://www.w3.org/1999/xlink" viewBox="0 0 1000 1000">
  <defs>
    <style>
      .cls-1 {
        fill: url(#linear-gradient);
      }

      .cls-2 {
        fill: url(#linear-gradient-2);
      }

      .cls-3 {
        fill: #6b483c;
      }

      .cls-4 {
        fill: url(#linear-gradient-3);
      }

      .cls-5 {
        fill: #366d26;
      }

      .cls-6 {
        fill: url(#linear-gradient-4);
      }

      .cls-7 {
        fill: url(#linear-gradient-5);
      }

      .cls-8 {
        fill: #87a1af;
      }

      .cls-9 {
        fill: #b8cbd8;
      }

      .cls-10 {
        fill: #9bb0c4;
      }

      .cls-11 {
        fill: #394651;
      }

      .cls-12 {
        fill: #f2f2f2;
      }

      .cls-13 {
        fill: #49555e;
      }

      .cls-14 {
        fill: #444;
      }

      .cls-15 {
        fill: #a0674a;
      }

      .cls-16 {
        fill: url(#linear-gradient-6);
      }

      .cls-17 {
        fill: #d8d8d8;
      }

      .cls-18 {
        fill: #cecece;
      }

      .cls-19 {
        fill: #fff;
      }

      .cls-20 {
        fill: url(#linear-gradient-7);
      }

      .cls-21 {
        fill: #bf7d51;
      }

      .cls-22 {
        fill: #27343d;
      }

      .cls-23 {
        fill: #93514c;
      }

      .cls-24 {
        fill: url(#linear-gradient-8);
      }

      .cls-25, .cls-28 {
        fill: #dd7b19;
      }

      .cls-25 {
        opacity: 0.5;
      }

      .cls-26 {
        fill: #303d49;
      }

      .cls-27 {
        fill: url(#linear-gradient-9);
      }

      .cls-29 {
        fill: url(#linear-gradient-10);
      }

      .cls-30 {
        fill: #7a403f;
      }

      .cls-31 {
        fill: #e9e9e9;
      }

      .cls-32 {
        fill: #fbfbfb;
      }

      .cls-33 {
        fill: #5b3c39;
      }

      .cls-34 {
        fill: url(#linear-gradient-11);
      }

      .cls-35 {
        fill: url(#linear-gradient-12);
      }

      .cls-36 {
        fill: url(#linear-gradient-13);
      }

      .cls-37 {
        fill: #455260;
      }

      .cls-38 {
        fill: #bcd0e2;
      }

      .cls-39 {
        fill: #323f4c;
      }

      .cls-40 {
        fill: #516272;
      }
    </style>
    <linearGradient id="linear-gradient" x1="85.34704" y1="420.95711" x2="926.7192" y2="420.95711" gradientUnits="userSpaceOnUse">
      <stop offset="0" stop-color="#e6f4ff"/>
      <stop offset="1" stop-color="#c0e3ff"/>
    </linearGradient>
    <linearGradient id="linear-gradient-2" x1="85.37673" y1="514.30577" x2="602.56109" y2="514.30577" gradientUnits="userSpaceOnUse">
      <stop offset="0.00005" stop-color="#9dcc52"/>
      <stop offset="1" stop-color="#649e3f"/>
    </linearGradient>
    <linearGradient id="linear-gradient-3" x1="314.5191" y1="219.11852" x2="314.5191" y2="426.34894" gradientUnits="userSpaceOnUse">
      <stop offset="0" stop-color="#77bf49"/>
      <stop offset="0.99995" stop-color="#366d26"/>
    </linearGradient>
    <linearGradient id="linear-gradient-4" x1="73.34543" y1="153.62865" x2="221.66003" y2="493.38481" xlink:href="#linear-gradient-3"/>
    <linearGradient id="linear-gradient-5" x1="85.37673" y1="665.91293" x2="926.7192" y2="665.91293" xlink:href="#linear-gradient-2"/>
    <linearGradient id="linear-gradient-6" x1="199.12766" y1="401.23885" x2="1250.9077" y2="401.23885" gradientUnits="userSpaceOnUse">
      <stop offset="0.00005" stop-color="#e6ac72"/>
      <stop offset="1" stop-color="#b3703f"/>
    </linearGradient>
    <linearGradient id="linear-gradient-7" x1="170.53191" y1="544.23063" x2="841.15924" y2="544.23063" xlink:href="#linear-gradient-6"/>
    <linearGradient id="linear-gradient-8" x1="580.77152" y1="290.45624" x2="632.34598" y2="524.83922" gradientUnits="userSpaceOnUse">
      <stop offset="0.00005" stop-color="#ffcb48"/>
      <stop offset="1" stop-color="#e68e2b"/>
    </linearGradient>
    <linearGradient id="linear-gradient-9" x1="625.3626" y1="280.64426" x2="676.93707" y2="515.02724" xlink:href="#linear-gradient-8"/>
    <linearGradient id="linear-gradient-10" x1="646.51073" y1="275.99075" x2="698.0852" y2="510.37373" xlink:href="#linear-gradient-8"/>
    <linearGradient id="linear-gradient-11" x1="628.11579" y1="279.45044" x2="665.13706" y2="344.55683" gradientUnits="userSpaceOnUse">
      <stop offset="0.00005" stop-color="#c6bfbc"/>
      <stop offset="1" stop-color="#a6948d"/>
    </linearGradient>
    <linearGradient id="linear-gradient-12" x1="650.10577" y1="266.94633" x2="687.12705" y2="332.05272" xlink:href="#linear-gradient-11"/>
    <linearGradient id="linear-gradient-13" x1="280.82979" y1="544.51315" x2="946.24851" y2="544.51315" xlink:href="#linear-gradient-6"/>
  </defs>
  <path class="cls-1" d="M85.3763,512.7967s-2.42713-89.31382,36.92931-127.58839,101.191-29.83446,150.323-53.496,68.673-70.454,112.94077-112.54122,137.159-27.051,188.88841,3.59733S659.04237,296.631,709.319,324.07086,833.84975,358.2208,862.216,367.47715,926.7192,396.71887,926.7192,436.591V648.65747l-841.3429-3.677Z"/>
  <path class="cls-2" d="M85.37673,631.38824c0-58.422,53.3732-112.67951,106.51646-141.91955s101.21157-50.56714,135.85069-76.63038,69.5608-68.2392,117.15563-93.95547,111.54713-17.99148,111.54713-17.99148l46.11445,25.98769v91.81644L175.99123,728.80822l-90.6145-62.13307Z"/>
  <g>
    <path class="cls-3" d="M320.68737,456.13045V381.014h-12.3367v75.14035h.00563a3.10681,3.10681,0,0,0,1.8153,2.4911,9.6434,9.6434,0,0,0,8.725.01569A3.02659,3.02659,0,0,0,320.68737,456.13045Z"/>
    <path class="cls-4" d="M261.54275,355.88328c0-7.63483,2.4907-14.4736,6.43072-19.14837a37.15756,37.15756,0,0,1-2.77653-10.67662c-1.16349-10.43154,1.9801-20.00572,7.594-25.70119-.59184-6.63456,1.531-12.63629,5.61385-15.8413a33.70036,33.70036,0,0,1-.34688-4.81768c0-13.065,7.30838-23.84357,16.719-25.31344-.02043-.42862-.04087-.83692-.04087-1.26566,0-17.94389,8.47212-32.47866,18.90341-32.47866,9.16588,0,16.8007,11.20728,18.5361,26.04831,3.77654,1.87806,6.71629,6.757,7.71656,12.88125,5.30759,3.59276,10.064,10.207,12.65659,18.4951,2.24574,7.22652,2.42915,14.351.91853,20.02615,3.61333,2.61293,6.08334,7.77774,6.08334,13.69774a19.33447,19.33447,0,0,1-2.30654,9.30879v.02043c8.3084,4.59316,12.37077,17.49483,9.14544,31.09052a38.54978,38.54978,0,0,1-6.20594,13.73872c5.16481,6.83865,6.10377,18.02562,1.65365,28.70212a33.61871,33.61871,0,0,1-13.12632,15.882c-4.69508,8.186-10.69693,13.39159-17.49471,16.33122-4.75663,7.839-12.43233,12.28928-19.72,10.55414-4.75638-1.12287-8.431-4.69533-10.65631-9.53344a34.05523,34.05523,0,0,1-13.63643-8.65553c-8.18605-3.6745-15.47374-12.1055-18.94428-23.23117a40.67269,40.67269,0,0,1-.9594-21.80216A30.31017,30.31017,0,0,1,261.54275,355.88328Z"/>
    <path class="cls-5" d="M366.38894,352.21128a38.43549,38.43549,0,0,1-6.202,13.73638c5.16838,6.84533,6.11026,18.032,1.65381,28.6904a33.55707,33.55707,0,0,1-13.13912,15.89562c-4.68609,8.17753-10.6811,13.3919-17.48059,16.33207-4.75479,7.83305-12.42718,12.28935-19.73167,10.54357-4.75508-1.12554-8.43032-4.6861-10.6584-9.53286a33.79275,33.79275,0,0,1-13.62169-8.66c17.36423,2.78811,27.64156-3.35657,28.162-21.79909,6.68992,3.85669,14.021-2.20364,9.81783-10.51216,14.36885.782,19.74494-17.98549,10.41941-27.45817,15.77685-3.62545,18.70927-24.15238,5.03028-30.23187,9.889-4.94862,14.60759-15.52265,12.81793-31.12267,3.62925,2.61868,6.087,7.78707,6.087,13.69053a19.45118,19.45118,0,0,1-2.29706,9.32606c6.3859,3.51443,10.24508,11.94474,10.24508,21.82208A39.931,39.931,0,0,1,366.38894,352.21128Z"/>
  </g>
  <g>
    <path class="cls-3" d="M183.04451,543.83888V378.23133H155.84607v165.6603h.01241c.04079,1.98689,1.36892,3.97112,4.00215,5.49209,5.3285,3.07608,13.941,3.0916,19.23582.03458C181.75805,547.88136,183.07022,545.8599,183.04451,543.83888Z"/>
    <path class="cls-6" d="M256.61257,315.83139a135.09388,135.09388,0,0,0,.29468-18.03176c-1.695-32.88574-14.58838-59.79625-30.40339-66.415.143-.55281.35989-1.07026.46833-1.63761,2.46427-12.836-4.927-24.43092-16.50887-25.89762-.09823-.01218-.1941.00668-.29153-.00432-4.37848-32.84841-20.92743-50.55052-40.72646-50.55052-19.38726,0-35.65175,16.9831-40.43256,48.529-17.25695,9.1974-32.36082,36.6953-36.91689,70.79117-.61135,4.57257-.96025,9.05949-1.15591,13.47254a25.90482,25.90482,0,0,0-14.97735,18.96607,23.85645,23.85645,0,0,0,2.036,15.327c-7.41324,8.84026-12.06046,21.3058-12.06046,35.16024A59.46128,59.46128,0,0,0,68.338,372.24594c-7.71027,11.33242-10.9737,27.29163-7.77078,44.29792,3.7907,20.12788,15.69322,36.62182,30.31617,44.69317,9.21194,16.44915,22.06448,25.84182,37.22728,30.95109,9.63234,15.38008,24.54762,25.29216,41.33466,25.29216s31.70311-9.91208,41.33624-25.29216c15.11879-5.09512,27.94462-14.44811,37.15106-30.812,12.36456-4.77413,22.50846-16.56663,25.34834-31.35617a38.66712,38.66712,0,0,0-3.93686-26.34317,70.55449,70.55449,0,0,0,11.24951-26.7561C285.54181,351.14564,275.30362,327.32607,256.61257,315.83139Z"/>
    <path class="cls-5" d="M280.58105,376.94189a69.31381,69.31381,0,0,1-11.26523,26.71445,38.65926,38.65926,0,0,1,3.99029,26.39306c-2.89646,14.74122-13.00342,26.52155-25.36248,31.3495-9.20487,16.35054-22.015,25.68467-37.1432,30.77-9.65592,15.38518-24.59083,25.29845-41.32681,25.29845-16.802,0-31.73611-9.91327-41.392-25.29845-15.12744-5.0853-28.002-14.48387-37.20764-30.96327,38.21977,10.25458,63.52409-6.35222,64.95189-46.60581,30.52366,16.31925,65.30721-8.33414,57.09938-44.35292,27.65662-8.35733,33.95693-49.72024,9.84922-68.87892,20.81113-16.02482,26.98448-46.72121,3.73255-69.97315,15.83623,6.63058,28.71078,33.53835,30.38453,66.43273a139.49224,139.49224,0,0,1-.25774,18.02429C275.30205,327.31036,285.53788,351.12835,280.58105,376.94189Z"/>
  </g>
  <path class="cls-7" d="M94.52982,681.77854,478.60008,903.51183a54.91669,54.91669,0,0,0,54.91627-.0008l384.05023-221.7366a18.30558,18.30558,0,0,0,.00022-31.70587L533.49971,428.31521a54.91669,54.91669,0,0,0-54.92014.00068L94.52874,650.07264A18.30556,18.30556,0,0,0,94.52982,681.77854Z"/>
  <path class="cls-8" d="M917.5673,681.7739a18.30564,18.30564,0,0,0-.00022-31.70537L797.19355,580.567,614.95326,475.34477,175.99134,728.80806,478.60113,903.51217a54.91583,54.91583,0,0,0,54.914-.00045Z"/>
  <polygon class="cls-8" points="926.718 665.913 926.718 644.776 900.645 663.997 926.718 665.913"/>
  <polygon class="cls-8" points="175.991 728.808 147.267 712.225 147.267 688.022 201.47 707.93 201.47 722.185 175.991 728.808"/>
  <path class="cls-9" d="M917.5673,659.80722a18.30564,18.30564,0,0,0-.00022-31.70537l-120.37353-69.5015L614.95326,453.37808,175.99134,706.84138l302.60979,174.7041a54.91583,54.91583,0,0,0,54.914-.00044Z"/>
  <path class="cls-10" d="M748.25258,757.56347,425.10487,571.15891a9.05988,9.05988,0,0,0-9.05894,0L282.52856,648.25879a3.019,3.019,0,0,0,0,5.22928l323.13829,186.399Z"/>
  <path class="cls-10" d="M817.73812,685.26053a9.71092,9.71092,0,0,0-.00329-16.82162l-257.335-148.44112a7.62339,7.62339,0,0,0-7.62259,0L440.42984,584.87306a2.54032,2.54032,0,0,0,0,4.40014L712.33275,746.11759Z"/>
  <g>
    <path class="cls-11" d="M741.79908,719.49846v-72.635h-9.58446v72.65355h.00438a2.4137,2.4137,0,0,0,1.41031,1.93536,7.492,7.492,0,0,0,6.77851.01218A2.35136,2.35136,0,0,0,741.79908,719.49846Z"/>
    <path class="cls-11" d="M815.88772,676.43952V603.80457h-9.58445v72.65354h.00437a2.4137,2.4137,0,0,0,1.41031,1.93536,7.492,7.492,0,0,0,6.77852.01219A2.35136,2.35136,0,0,0,815.88772,676.43952Z"/>
  </g>
  <polygon class="cls-12" points="202.495 549.781 191.512 530.757 586.291 302.874 921.849 496.6 910.866 515.624 586.291 328.239 202.495 549.781"/>
  <path class="cls-13" d="M821.6451,456.24316v-21.501h9.58446v21.5196h-.00438a2.41367,2.41367,0,0,1-1.41031,1.93535,7.492,7.492,0,0,1-6.77851.01219A2.35136,2.35136,0,0,1,821.6451,456.24316Z"/>
  <path class="cls-14" d="M701.6917,386.97249v-21.501h9.58445v21.5196h-.00437a2.41368,2.41368,0,0,1-1.41032,1.93535,7.492,7.492,0,0,1-6.77851.01219A2.35136,2.35136,0,0,1,701.6917,386.97249Z"/>
  <path class="cls-13" d="M591.08244,317.70181v-21.501H581.498V317.7204h.00438a2.4137,2.4137,0,0,0,1.41031,1.93536,7.492,7.492,0,0,0,6.77851.01218A2.35135,2.35135,0,0,0,591.08244,317.70181Z"/>
  <path class="cls-13" d="M231.22223,525.51383v-21.501h-9.58446v21.51959h.00438a2.4137,2.4137,0,0,0,1.41031,1.93536,7.492,7.492,0,0,0,6.77851.01218A2.35136,2.35136,0,0,0,231.22223,525.51383Z"/>
  <path class="cls-13" d="M351.17563,456.24316v-21.501h-9.58445v21.5196h.00437a2.41369,2.41369,0,0,0,1.41032,1.93535,7.492,7.492,0,0,0,6.77851.01219A2.35133,2.35133,0,0,0,351.17563,456.24316Z"/>
  <path class="cls-13" d="M471.129,386.97249v-21.501h-9.58446v21.5196h.00437a2.41372,2.41372,0,0,0,1.41032,1.93535,7.492,7.492,0,0,0,6.77851.01219A2.35137,2.35137,0,0,0,471.129,386.97249Z"/>
  <path class="cls-15" d="M191.37952,536.42315l-8.23572-14.269L581.03935,292.46923a10.50194,10.50194,0,0,1,10.50108.00029L882.90186,460.67939l-8.23751,14.26726L586.29,308.46072Z"/>
  <path class="cls-16" d="M191.37952,523.88189l-8.23572-14.269L580.79867,280.0669a10.98334,10.98334,0,0,1,10.98243.0003L882.90186,448.13813l-8.23751,14.26726L586.29,295.91946Z"/>
  <polygon class="cls-17" points="175.991 706.841 175.991 565.083 586.29 328.239 586.287 469.976 175.991 706.841"/>
  <polygon class="cls-17" points="878.139 496.73 586.29 328.239 586.294 469.976 877.606 638.178 878.139 496.73"/>
  <g>
    <polygon class="cls-18" points="204.715 487.835 204.709 690.226 175.988 706.841 175.988 487.835 204.715 487.835"/>
    <polygon class="cls-12" points="175.988 487.835 175.988 706.841 170.186 703.511 149.168 691.373 147.274 688.022 147.267 688.022 147.267 487.835 175.988 487.835"/>
    <path class="cls-19" d="M202.81345,491.06646,181.58972,503.32a11.4022,11.4022,0,0,1-11.40218,0l-21.02009-12.136a3.80072,3.80072,0,0,1,0-6.58305l21.22373-12.25353a11.4022,11.4022,0,0,1,11.40218,0l21.02009,12.136A3.80072,3.80072,0,0,1,202.81345,491.06646Z"/>
  </g>
  <g>
    <g>
      <path class="cls-20" d="M832.31072,598.05477,742.181,659.44858,439.15952,484.62487c.21879-.15622.43757-.2969.6719-.43748l93.86431-54.19033a7.37026,7.37026,0,0,1,7.3597,0Z"/>
      <path class="cls-21" d="M742.181,659.44858l-11.68808,7.64095L436.87812,497.68812a3.06947,3.06947,0,0,1-1.57813-2.672v-2.95331a9.07591,9.07591,0,0,1,3.85953-7.4379Z"/>
      <path class="cls-15" d="M833.56346,605.52566a6.3874,6.3874,0,0,1-3.1942,5.53194L733.3851,667.0245a3.03251,3.03251,0,0,1-4.54793-2.62671v-2.96363a9.08407,9.08407,0,0,1,4.54451-7.86847l96.23-55.54934a2.63449,2.63449,0,0,1,3.95176,2.28152Z"/>
    </g>
    <polygon class="cls-15" points="800.215 614.977 795.637 617.634 502.147 448.201 506.741 445.56 800.215 614.977"/>
    <polygon class="cls-15" points="768.667 633.197 764.073 635.854 470.599 466.421 475.177 463.78 768.667 633.197"/>
  </g>
  <g>
    <g>
      <g>
        <path class="cls-22" d="M573.4088,643.31132c6.62081-.41433,15.29867,19.48074,10.45162,27.886-3.63415,6.302-12.31643,5.9832-22.35239,9.64589s-21.05842,11.51387-37.97279,9.23375-15.88251-15.32231-7.85335-19.15767l18.485-9.86933L552.22,646.5463Z"/>
        <path class="cls-23" d="M576.87615,646.533a5.142,5.142,0,0,1,.01153,5.40669,3.55008,3.55008,0,0,1-.21269.2968c-5.5221,6.99391-24.78509,15.04767-30.84877,16.48411-6.94691,1.63651-15.47153-3.68552-12.422-6.617l6.523-5.67533,15.67175-13.6348-14.824-33.38015,19.27463,1.93087,7.147.70629,5.39275,27.28139,3.19081,5.36918Z"/>
      </g>
      <g>
        <g>
          <path class="cls-24" d="M607.837,343.76884c-11.64311,13.72863-14.00926,11.86395-14.00926,11.86395-5.01158-3.89362-12.24319-1.12338-15.57446,3.09324s-23.13387,38.96184-21.47432,49.66985c1.53967,9.93408,13.44689,15.39017,25.02136,10.0852,8.588-3.93619,39.31756-29.21346,39.31756-29.21346l18.25539-59.59375S623.47968,325.32426,607.837,343.76884Z"/>
          <path class="cls-25" d="M612.35557,393.53965l-3.78608-25.34155-8.7586,36.478C604.0775,400.99058,608.46177,397.0731,612.35557,393.53965Z"/>
          <ellipse class="cls-26" cx="590.53891" cy="365.52822" rx="9.44344" ry="10.37463" transform="translate(28.32744 773.28471) rotate(-67.70877)"/>
          <path class="cls-22" d="M636.74141,538.61148l-24.22886-78.233-80.417,34.0847c-19.35718,8.85106-26.383,33.70213-19.35718,52.10616l27.79094,98.1462c5.16955,15.43746,39.07527,6.67769,37.20293-9.83295l-5.58591-79.80874Z"/>
          <path class="cls-22" d="M607.67,682.11215s2.06714,15.99849.92994,21.49279c-1.42518,6.88557-5.97382,11.82946-6.98015,16.41275s-3.07617,14.84549-10.6627,19.85216c-16.56493,10.9319-36.61449,3.23391-29.61929-9.92023l9.82-17.11636,13.47216-32.09934C586.82959,672.31427,606.77642,673.16542,607.67,682.11215Z"/>
          <path class="cls-23" d="M599.21692,566.54031c-2.46808,4.93617-10.72062,18.596-11.12137,28.68886l.383,78.63829L574.86973,708.673c-5.35818,11.67993,15.05458,11.41294,18.77,2.64684,0,0,11.07174-25.62689,11.72122-27.1939s.15637-5.73168.15637-5.73168l-.44305-3.88852c3.73366-15.47627,18.29447-40.99542,20.46809-69.57447l9.8487-12.93617C644.25437,583.12962,606.87319,551.22778,599.21692,566.54031Z"/>
          <path class="cls-26" d="M618.01044,451.14406l-21.79153,16.67946,22.02154,47.73113s-23.83661,47.98024-28.95341,64.18516c-5.48114,17.35874-10.84284,99.57151-10.84284,99.57151-.794,14.383,29.10639,16.17021,32.52072,5.55183L636.74141,604.673l43.91326-46.91157c17.27889-17.76928,25.86151-27.38335,25.86151-52.7096,0-27.8129-5.23137-42.48246-5.23137-42.48246Z"/>
          <path class="cls-27" d="M715.6287,379.05464c-.00341-.01709-.00878-.03369-.0122-.051q-.178-.90307-.427-1.78491c-3.09839-11.6748-13.66529-21.61133-28.96509-31.398a164.83614,164.83614,0,0,0-16.82673-9.18975c-6.11794-2.89951-18.53509-5.7038-18.53509-5.7038-22.02124-5.10645-39.79565,4.38623-38.844,27.9585-6.851,30.97875-3.80384,52.62255.33691,73.14892l-12.3916,24.37256c-4.21791,7.42234-1.6864,14.00122.84521,20.61572.78846,2.06006,11.63507,16.84546,26.97943,24.28321,5.58728,2.708,24.481,6.61816,27.25178,6.66845,17.87841.325,38.25915-3.19824,51.95776-9.58886-.7627-17.08448-2.95483-31.627-6.22168-49.66529Z"/>
          <path class="cls-28" d="M689.59013,348.03584c-1.09741-.7395-2.21338-1.478-3.36572-2.21509a164.80669,164.80669,0,0,0-16.82666-9.18969c-6.11792-2.89966-18.53516-5.70386-18.53516-5.70386a50.92477,50.92477,0,0,0-8.99121-1.27881c-9.20752,21.135.0835,45.79077.0835,45.79077S679.7725,364.97334,689.59013,348.03584Z"/>
          <path class="cls-23" d="M654.30349,330.33577c-4.305.19848-3.68793,1.22555-7.91624,1.514-7.58691,15.24876-1.84993,37.31627-1.84993,37.31627s35.58092-12.06587,39.27536-24.642C673.86969,338.15649,667.02751,335.3385,654.30349,330.33577Z"/>
          <path class="cls-25" d="M682.61442,458.63047l-32.42554,47.95744c6.8385-.22119,23.513-11.39109,30.31533-12.72606l23.50623-29.356L682.86267,404.076Z"/>
          <path class="cls-29" d="M715.83936,380.005c-4.67627-23.38964-35.93385-7.7163-32.9767,24.07105l7.24112,59.49061L654.008,501.85228c-9.02128,10.29787,8.6696,28.608,17.65544,22.48032,0,0,48.55841-27.6143,54.3045-50.55058C729.26208,460.63334,720.48389,404.85606,715.83936,380.005Z"/>
          <ellipse class="cls-26" cx="661.24128" cy="514.21804" rx="6.52335" ry="10.26464" transform="translate(-176.14245 535.40096) rotate(-39.3197)"/>
          <path class="cls-23" d="M654.67216,508.976s-10.2146,1.42627-13.49365,3.30883a67.52451,67.52451,0,0,0-7.73169,5.64771c-3.38574,2.7229,1.19495,6.1792,3.785,3.32422l.28406-.19971a70.43183,70.43183,0,0,0-6.7998,9.866c-1.448,2.72363-.37256,5.48755,2.05151,7.46216l4.771,3.19677a7.41272,7.41272,0,0,0,7.19336-.03027l12.494-6.72436c2.66822-1.74341,5.04578-6.67334,9.40357-14.02149C670.574,516.79927,659.26786,504.38032,654.67216,508.976Z"/>
        </g>
        <path class="cls-30" d="M648.48625,348.14421c0,4.971,2.65552,8.05419,7.35219,8.54344,9.53013.99274,21.35992-8.07414,19.44374-15.32136l-5.29712-19.2053L648.97011,330.1Z"/>
      </g>
      <path class="cls-23" d="M596.79113,339.10143c-8.12848.73454-10.70233,19.41291-10.70233,19.41291-7.58017,8.57339,4.27979,16.75146,9.68592,12.5935l6.53627-4.75442s13.33337-8.72289,12.87428-13.80319C614.45073,344.42176,604.9196,338.36688,596.79113,339.10143Z"/>
      <g>
        <path class="cls-31" d="M596.9877,339.06409,596.391,364.1798c-.10746,4.52313,6.18551,8.3414,14.05582,8.52839s14.33751-3.32813,14.445-7.85126l.59671-25.11571Z"/>
        <ellipse class="cls-32" cx="611.23809" cy="339.40271" rx="8.19219" ry="14.25442" transform="translate(257.41324 942.40699) rotate(-88.639)"/>
        <ellipse class="cls-32" cx="611.23809" cy="339.40271" rx="6.27949" ry="10.92632" transform="translate(257.41324 942.40699) rotate(-88.639)"/>
        <path class="cls-33" d="M611.27894,337.68864c4.62829.11,8.52113,1.86363,10.05717,4.23693-1.647,2.29767-5.61875,3.86477-10.247,3.75481s-8.52112-1.86391-10.05717-4.23721C602.67891,339.1455,606.65064,337.57868,611.27894,337.68864Z"/>
      </g>
      <polygon class="cls-26" points="613.916 499.221 629.481 463.83 627.023 505.008 613.916 499.221"/>
    </g>
    <ellipse class="cls-28" cx="640.70551" cy="382.97876" rx="3.46681" ry="2.22746" transform="translate(184.46066 973.75529) rotate(-83.19049)"/>
    <ellipse class="cls-28" cx="639.3733" cy="396.00823" rx="3.46681" ry="2.22746" transform="translate(170.34884 983.91707) rotate(-83.19049)"/>
    <g>
      <g>
        <path class="cls-34" d="M638.699,283.97952c-9.12589-1.61708-14.32717,9.27415-7.51271,15.87733-3.501,9.27764,6.362,16.17153,6.362,16.17153l1.06884-13.33815c.02765.00047.05423.00425.08188.00425a9.35727,9.35727,0,0,0,9.35736-9.35748C648.05635,288.1691,643.78773,284.88129,638.699,283.97952Z"/>
        <path class="cls-23" d="M654.97779,345.7426c13.2028-2.08808,20.58618-8.60095,22.17267-20.77473l3.387-26.32493c1.663-10.58144-7.174-21.33124-19.60121-22.1882-10.86121-.749-22.69041,7.45311-23.52594,19.48457a243.78,243.78,0,0,0,.06481,26.72955C638.37313,334.53875,642.97931,347.64021,654.97779,345.7426Z"/>
        <path class="cls-35" d="M689.903,288.39341c1.98749-9.40743-6.95865-16.88994-15.01326-14.43662-3.45985-11.05916-20.01769-11.42986-24.80566-3.09156-8.18646-4.3224-23.3233,3.95652-17.78566,18.91059.66782,2.69065,3.21272,7.414,9.14389,5.231.3707,5.18977,9.76171,9.597,15.19861,2.5537-1.36162,7.83911,8.52606,10.87381,12.59172,8.53737-2.74763,7.73215,3.28849,11.33452,4.78964,12.66786-1.66565,6.34739-1.51973,15.26487.39334,19.50614a17.18515,17.18515,0,0,0,6.67333-11.46442,10.61446,10.61446,0,0,0,5.97783-5.50381,11.38516,11.38516,0,0,0,1.22412-6.3,7.39223,7.39223,0,0,0,3.79048-11.29791C695.587,299.6894,695.587,291.07067,689.903,288.39341Z"/>
      </g>
      <path class="cls-23" d="M674.74022,328.55282c4.64531-.02718,8.51777-6.53623,8.48694-11.80751s-4.62083-9.68082-8.59862-7.28147C669.63514,312.47581,670.09491,328.58,674.74022,328.55282Z"/>
    </g>
  </g>
  <g>
    <path class="cls-11" d="M605.836,819.348V666.04692h-9.58445V819.36661h.00437a2.41368,2.41368,0,0,0,1.41032,1.93535,7.492,7.492,0,0,0,6.77851.01219A2.35136,2.35136,0,0,0,605.836,819.348Z"/>
    <path class="cls-11" d="M727.88858,749.12969V595.82859h-9.58446V749.14828h.00438a2.4137,2.4137,0,0,0,1.41031,1.93536,7.492,7.492,0,0,0,6.77851.01218A2.35136,2.35136,0,0,0,727.88858,749.12969Z"/>
  </g>
  <g>
    <path class="cls-11" d="M318.63254,654.57013V501.269h-9.58446V654.58872h.00438a2.41369,2.41369,0,0,0,1.41031,1.93535,7.492,7.492,0,0,0,6.77852.01219A2.35138,2.35138,0,0,0,318.63254,654.57013Z"/>
    <path class="cls-14" d="M440.68509,567.17491V437.5824h-9.58446V567.1935h.00438a2.4137,2.4137,0,0,0,1.41031,1.93536,7.492,7.492,0,0,0,6.77851.01218A2.35136,2.35136,0,0,0,440.68509,567.17491Z"/>
  </g>
  <g>
    <g>
      <path class="cls-36" d="M743.76533,584.9776,600.24963,678.812l-314.7093-181.5364c.2563-.183.51261-.34781.78712-.5125l147.89076-85.39552a8.63416,8.63416,0,0,1,8.62185,0Z"/>
      <path class="cls-15" d="M600.24963,678.812,586.5571,687.7633,282.86767,512.5791a3.59589,3.59589,0,0,1-1.84877-3.1303V505.989a10.63239,10.63239,0,0,1,4.52143-8.71347Z"/>
      <path class="cls-15" d="M745.23291,593.7297a7.48282,7.48282,0,0,1-3.742,6.48065L589.94526,687.68711a3.55257,3.55257,0,0,1-5.32787-3.07718v-3.47188a10.64194,10.64194,0,0,1,5.32387-9.21786l150.66219-86.9876a3.08628,3.08628,0,0,1,4.62946,2.67278Z"/>
    </g>
    <polygon class="cls-15" points="705.214 605.37 699.814 608.482 396.289 433.279 401.653 430.167 705.214 605.37"/>
    <polygon class="cls-15" points="668.237 626.714 662.873 629.826 359.33 454.605 364.712 451.512 668.237 626.714"/>
    <polygon class="cls-15" points="631.278 648.059 625.896 651.17 322.371 475.95 327.735 472.856 631.278 648.059"/>
  </g>
  <g>
    <path class="cls-18" d="M926.7192,437.44336V652.27522h-.00634a3.75545,3.75545,0,0,1-1.894,3.23068L897.99206,671.114V437.44336Z"/>
    <path class="cls-12" d="M897.99206,437.44336V671.114l-6.96619-4.02271-19.85426-11.46508a3.75763,3.75763,0,0,1-1.894-3.351h-.00634V437.44336Z"/>
    <path class="cls-19" d="M924.81728,440.6748l-21.22373,12.25353a11.4022,11.4022,0,0,1-11.40218,0l-21.02009-12.136a3.80072,3.80072,0,0,1,0-6.58305L892.395,421.95579a11.4022,11.4022,0,0,1,11.40218,0l21.02009,12.136A3.80072,3.80072,0,0,1,924.81728,440.6748Z"/>
  </g>
  <path class="cls-13" d="M592.71946,516.81133,518.17937,563.859a3.569,3.569,0,0,1-3.57877.134l-52.77293-28.02336a3.569,3.569,0,0,1-.23076-6.17043l71.2282-44.94609a10.30965,10.30965,0,0,1,10.33428-.388l49.328,26.17543A3.569,3.569,0,0,1,592.71946,516.81133Z"/>
  <polygon class="cls-19" points="614.357 539.035 526.526 578.698 471.48 538.814 559.3 499.169 614.357 539.035"/>
  <g>
    <path class="cls-37" d="M367.03713,458.821l55.54431,58.31613,71.928-41.55641c.11431-.05968.2252-.12414.33417-.19308l.11355-.07456a4.5133,4.5133,0,0,0,2.016-3.74288l-.03359-10.32553c.0385-4.56992-2.7404-7.31807-6.39835-10.74948l-45.85093-32.99918a5.68419,5.68419,0,0,0-5.769-.17243l-.005-.0051-.25506.14727-.02433.014Z"/>
    <path class="cls-38" d="M429.9855,439.03523l-5.30447-3.06405a.90581.90581,0,0,0-.906-.0001l-13.8054,7.97054a.45292.45292,0,0,0,0,.78446l5.3066,3.06418a.90585.90585,0,0,0,.90594,0l13.8033-7.97062A.45292.45292,0,0,0,429.9855,439.03523Z"/>
    <path class="cls-39" d="M425.16289,500.65116l-.10483,12.44171a4.57285,4.57285,0,0,1-6.85913,3.92168l-49.88955-31.93189c-5.74134-3.31463-6.72837-14.80514-3.93722-23.10733a5.67291,5.67291,0,0,1,8.403-2.95667l46.09094,32.47866C422.7329,493.93327,425.2014,496.08123,425.16289,500.65116Z"/>
    <path class="cls-40" d="M391.20655,466.47766l27.6596,25.01967a13.1885,13.1885,0,0,1,6.15832,11.27l.03359,10.32553a4.52809,4.52809,0,0,1-2.49459,4.0257l.018.01859,71.928-41.55641c.11431-.05968.44772-.26764.44772-.26764a4.5133,4.5133,0,0,0,2.016-3.74288l-.03359-10.32553c.0385-4.56992-2.41385-7.972-6.15834-11.27L462.17934,424.2091a8.42542,8.42542,0,0,0-9.44223-.69033l-60.96324,35.19917A4.7026,4.7026,0,0,0,391.20655,466.47766Z"/>
  </g>
</svg>
