<svg id="Layer_1" data-name="Layer 1" xmlns="http://www.w3.org/2000/svg" xmlns:xlink="http://www.w3.org/1999/xlink" viewBox="0 0 1000 1000">
  <defs>
    <style>
      .cls-1, .cls-101, .cls-29, .cls-57, .cls-63, .cls-95, .cls-96, .cls-99 {
        fill: none;
      }

      .cls-2 {
        clip-path: url(#clip-path);
      }

      .cls-3 {
        fill: url(#linear-gradient);
      }

      .cls-4 {
        fill: url(#linear-gradient-2);
      }

      .cls-5 {
        fill: #bcbcbc;
      }

      .cls-6 {
        fill: #e9f1f4;
      }

      .cls-7 {
        fill: url(#linear-gradient-3);
      }

      .cls-8 {
        fill: url(#linear-gradient-4);
      }

      .cls-9 {
        fill: #b8cbd8;
      }

      .cls-10 {
        fill: url(#linear-gradient-5);
      }

      .cls-11 {
        fill: url(#linear-gradient-6);
      }

      .cls-12 {
        fill: #e58630;
      }

      .cls-13, .cls-67 {
        fill: #fff;
      }

      .cls-13 {
        opacity: 0.7;
      }

      .cls-14 {
        fill: url(#linear-gradient-7);
      }

      .cls-15 {
        fill: url(#linear-gradient-8);
      }

      .cls-16 {
        fill: url(#linear-gradient-9);
      }

      .cls-17 {
        fill: url(#linear-gradient-10);
      }

      .cls-18 {
        fill: url(#linear-gradient-11);
      }

      .cls-19 {
        fill: url(#linear-gradient-12);
      }

      .cls-20 {
        fill: url(#linear-gradient-13);
      }

      .cls-21 {
        fill: url(#linear-gradient-14);
      }

      .cls-22 {
        fill: url(#linear-gradient-15);
      }

      .cls-23 {
        fill: url(#linear-gradient-16);
      }

      .cls-24 {
        fill: url(#linear-gradient-17);
      }

      .cls-25 {
        fill: url(#linear-gradient-18);
      }

      .cls-26 {
        fill: url(#linear-gradient-19);
      }

      .cls-27, .cls-55 {
        fill: #dd7b19;
      }

      .cls-27, .cls-68 {
        opacity: 0.5;
      }

      .cls-28 {
        fill: url(#linear-gradient-20);
      }

      .cls-29 {
        stroke: #d8712b;
        stroke-linecap: round;
        stroke-width: 5.10365px;
      }

      .cls-101, .cls-29, .cls-57, .cls-63, .cls-95, .cls-96, .cls-99 {
        stroke-miterlimit: 10;
      }

      .cls-30 {
        fill: #9bb0c4;
      }

      .cls-31 {
        fill: url(#linear-gradient-21);
      }

      .cls-32 {
        fill: url(#linear-gradient-22);
      }

      .cls-33 {
        fill: url(#linear-gradient-23);
      }

      .cls-34 {
        fill: url(#linear-gradient-24);
      }

      .cls-35 {
        fill: url(#linear-gradient-25);
      }

      .cls-36 {
        fill: url(#linear-gradient-26);
      }

      .cls-37 {
        fill: url(#linear-gradient-27);
      }

      .cls-38 {
        fill: url(#linear-gradient-28);
      }

      .cls-39 {
        fill: url(#linear-gradient-29);
      }

      .cls-40 {
        fill: url(#linear-gradient-30);
      }

      .cls-41 {
        fill: url(#linear-gradient-31);
      }

      .cls-42 {
        fill: url(#linear-gradient-32);
      }

      .cls-43 {
        fill: url(#linear-gradient-33);
      }

      .cls-44 {
        fill: url(#linear-gradient-34);
      }

      .cls-45 {
        fill: url(#linear-gradient-35);
      }

      .cls-46 {
        fill: url(#linear-gradient-36);
      }

      .cls-47 {
        fill: url(#linear-gradient-37);
      }

      .cls-48 {
        fill: url(#linear-gradient-38);
      }

      .cls-49 {
        fill: url(#linear-gradient-39);
      }

      .cls-50 {
        fill: #27343d;
      }

      .cls-51 {
        fill: #93514c;
      }

      .cls-52 {
        fill: #ffbda3;
      }

      .cls-53 {
        fill: #303d49;
      }

      .cls-54 {
        fill: url(#linear-gradient-40);
      }

      .cls-56 {
        fill: url(#linear-gradient-41);
      }

      .cls-57 {
        stroke: #dd7b19;
        stroke-width: 2.0419px;
      }

      .cls-58 {
        fill: #7a403f;
      }

      .cls-59 {
        fill: url(#linear-gradient-42);
      }

      .cls-60 {
        fill: #323f4c;
      }

      .cls-61 {
        fill: url(#linear-gradient-43);
      }

      .cls-62 {
        fill: url(#linear-gradient-44);
      }

      .cls-63 {
        stroke: #37444f;
        stroke-width: 1.10377px;
      }

      .cls-64 {
        fill: #eaeaea;
      }

      .cls-65 {
        fill: url(#linear-gradient-45);
      }

      .cls-66 {
        fill: url(#linear-gradient-46);
      }

      .cls-68 {
        fill: url(#linear-gradient-47);
      }

      .cls-69 {
        fill: #34a521;
      }

      .cls-70 {
        fill: #e2e2e2;
      }

      .cls-71 {
        fill: url(#linear-gradient-48);
      }

      .cls-72 {
        fill: #242c35;
      }

      .cls-73 {
        fill: url(#linear-gradient-49);
      }

      .cls-74 {
        fill: url(#linear-gradient-50);
      }

      .cls-75 {
        fill: url(#linear-gradient-51);
      }

      .cls-76 {
        fill: url(#linear-gradient-52);
      }

      .cls-77 {
        fill: url(#linear-gradient-53);
      }

      .cls-78 {
        fill: url(#linear-gradient-54);
      }

      .cls-79 {
        fill: url(#linear-gradient-55);
      }

      .cls-80 {
        fill: url(#linear-gradient-56);
      }

      .cls-81 {
        fill: #724133;
      }

      .cls-82 {
        fill: #ffcb48;
      }

      .cls-83 {
        fill: url(#linear-gradient-57);
      }

      .cls-84 {
        fill: url(#linear-gradient-58);
      }

      .cls-85 {
        fill: url(#linear-gradient-59);
      }

      .cls-86 {
        fill: url(#linear-gradient-60);
      }

      .cls-87 {
        fill: url(#linear-gradient-61);
      }

      .cls-88 {
        fill: url(#linear-gradient-62);
      }

      .cls-89 {
        fill: url(#linear-gradient-63);
      }

      .cls-90 {
        fill: #303944;
      }

      .cls-91 {
        fill: #89a1bc;
      }

      .cls-92 {
        fill: url(#linear-gradient-64);
      }

      .cls-93 {
        fill: url(#linear-gradient-65);
      }

      .cls-94 {
        fill: url(#linear-gradient-66);
      }

      .cls-95 {
        stroke: url(#linear-gradient-67);
      }

      .cls-96 {
        stroke: url(#linear-gradient-68);
      }

      .cls-97 {
        fill: url(#linear-gradient-69);
      }

      .cls-98 {
        fill: url(#linear-gradient-70);
      }

      .cls-99 {
        stroke: url(#linear-gradient-71);
      }

      .cls-100 {
        fill: url(#linear-gradient-72);
      }

      .cls-101 {
        stroke: url(#linear-gradient-73);
      }

      .cls-102 {
        fill: url(#linear-gradient-74);
      }

      .cls-103 {
        fill: url(#linear-gradient-75);
      }

      .cls-104 {
        fill: url(#linear-gradient-76);
      }
    </style>
    <clipPath id="clip-path">
      <path class="cls-1" d="M2475.98541,305.84375a194.17509,194.17509,0,1,1-71.04617-150.16185A193.78539,193.78539,0,0,1,2475.98541,305.84375Z"/>
    </clipPath>
    <linearGradient id="linear-gradient" x1="1001.7628" y1="828.86698" x2="2114.82086" y2="1832.5818" gradientUnits="userSpaceOnUse">
      <stop offset="0" stop-color="#62788c"/>
      <stop offset="1" stop-color="#526575"/>
    </linearGradient>
    <linearGradient id="linear-gradient-2" x1="927.05394" y1="1095.23132" x2="2933.68119" y2="1095.23132" gradientUnits="userSpaceOnUse">
      <stop offset="0" stop-color="#3e4c59"/>
      <stop offset="1" stop-color="#293440"/>
    </linearGradient>
    <linearGradient id="linear-gradient-3" x1="1076.72656" y1="541.49355" x2="2160.59734" y2="1146.10173" gradientUnits="userSpaceOnUse">
      <stop offset="0.00005" stop-color="#ffcb48"/>
      <stop offset="1" stop-color="#e68e2b"/>
    </linearGradient>
    <linearGradient id="linear-gradient-4" x1="460.38983" y1="396.22833" x2="867.03608" y2="396.22833" gradientUnits="userSpaceOnUse">
      <stop offset="0" stop-color="#e4edf2"/>
      <stop offset="1" stop-color="#c3d6e6"/>
    </linearGradient>
    <linearGradient id="linear-gradient-5" x1="53.75927" y1="711.22041" x2="867.03608" y2="711.22041" gradientUnits="userSpaceOnUse">
      <stop offset="0.00663" stop-color="#c4d5e6"/>
      <stop offset="1" stop-color="#dae9f2"/>
    </linearGradient>
    <linearGradient id="linear-gradient-6" x1="329.62351" y1="764.58045" x2="1082.50393" y2="703.46581" gradientUnits="userSpaceOnUse">
      <stop offset="0.00005" stop-color="#ffb348"/>
      <stop offset="1" stop-color="#e68e2b"/>
    </linearGradient>
    <linearGradient id="linear-gradient-7" x1="354.89883" y1="179.89178" x2="175.74378" y2="568.06105" gradientUnits="userSpaceOnUse">
      <stop offset="0" stop-color="#293440"/>
      <stop offset="1" stop-color="#3e4c59"/>
    </linearGradient>
    <linearGradient id="linear-gradient-8" x1="88.25366" y1="466.38226" x2="183.52962" y2="466.38226" gradientUnits="userSpaceOnUse">
      <stop offset="0" stop-color="#62778c"/>
      <stop offset="1" stop-color="#435466"/>
    </linearGradient>
    <linearGradient id="linear-gradient-9" x1="206.51626" y1="398.09973" x2="301.80634" y2="398.09973" xlink:href="#linear-gradient-8"/>
    <linearGradient id="linear-gradient-10" x1="324.79298" y1="329.79742" x2="420.13749" y2="329.79742" xlink:href="#linear-gradient-8"/>
    <linearGradient id="linear-gradient-11" x1="88.25366" y1="401.38253" x2="431.60273" y2="401.38253" gradientUnits="userSpaceOnUse">
      <stop offset="0" stop-color="#849bb2"/>
      <stop offset="1" stop-color="#5b6f82"/>
    </linearGradient>
    <linearGradient id="linear-gradient-12" x1="447.512" y1="299.69702" x2="78.4526" y2="499.75349" xlink:href="#linear-gradient-8"/>
    <linearGradient id="linear-gradient-13" x1="107.82898" y1="354.32527" x2="334.75871" y2="580.65782" gradientUnits="userSpaceOnUse">
      <stop offset="0" stop-color="#435466"/>
      <stop offset="1" stop-color="#62778c"/>
    </linearGradient>
    <linearGradient id="linear-gradient-14" x1="200.95469" y1="260.95385" x2="427.88442" y2="487.28639" xlink:href="#linear-gradient-13"/>
    <linearGradient id="linear-gradient-15" x1="294.09193" y1="167.57086" x2="521.02166" y2="393.90341" xlink:href="#linear-gradient-13"/>
    <linearGradient id="linear-gradient-16" x1="-107.31192" y1="149.84663" x2="444.16707" y2="149.84663" gradientUnits="userSpaceOnUse">
      <stop offset="0" stop-color="#5b6f82"/>
      <stop offset="1" stop-color="#849bb2"/>
    </linearGradient>
    <linearGradient id="linear-gradient-17" x1="-107.31192" y1="254.4337" x2="444.16707" y2="254.4337" xlink:href="#linear-gradient-16"/>
    <linearGradient id="linear-gradient-18" x1="-107.31192" y1="359.09044" x2="444.16707" y2="359.09044" xlink:href="#linear-gradient-16"/>
    <linearGradient id="linear-gradient-19" x1="120.22182" y1="354.76235" x2="96.93166" y2="640.51465" xlink:href="#linear-gradient-3"/>
    <linearGradient id="linear-gradient-20" x1="387.76736" y1="194.58321" x2="464.20684" y2="477.64819" xlink:href="#linear-gradient-3"/>
    <linearGradient id="linear-gradient-21" x1="10235.25067" y1="440.88407" x2="10283.36549" y2="567.61507" gradientTransform="matrix(-1, 0, 0, 1, 10745.07953, 0)" xlink:href="#linear-gradient-11"/>
    <linearGradient id="linear-gradient-22" x1="10254.65666" y1="481.65811" x2="10263.67818" y2="595.07161" gradientTransform="matrix(-1, 0, 0, 1, 10745.07953, 0)" xlink:href="#linear-gradient"/>
    <linearGradient id="linear-gradient-23" x1="10167.48509" y1="480.88798" x2="10203.1416" y2="629.52841" gradientTransform="matrix(-1, 0, 0, 1, 10745.07953, 0)" xlink:href="#linear-gradient"/>
    <linearGradient id="linear-gradient-24" x1="10222.75718" y1="567.44691" x2="10617.55646" y2="701.05146" gradientTransform="matrix(-1, 0, 0, 1, 10745.07953, 0)" xlink:href="#linear-gradient"/>
    <linearGradient id="linear-gradient-25" x1="10207.47627" y1="494.63099" x2="10665.42625" y2="652.72254" gradientTransform="matrix(-1, 0, 0, 1, 10745.07953, 0)" xlink:href="#linear-gradient-11"/>
    <linearGradient id="linear-gradient-26" x1="10257.62746" y1="472.01407" x2="10529.13251" y2="739.22316" gradientTransform="matrix(-1, 0, 0, 1, 10745.07953, 0)" xlink:href="#linear-gradient-8"/>
    <linearGradient id="linear-gradient-27" x1="10383.49137" y1="366.01388" x2="10421.29587" y2="583.38976" gradientTransform="matrix(-1, 0, 0, 1, 10745.07953, 0)" xlink:href="#linear-gradient"/>
    <linearGradient id="linear-gradient-28" x1="10334.85022" y1="393.54978" x2="10606.35527" y2="660.75887" gradientTransform="matrix(-1, 0, 0, 1, 10745.07953, 0)" xlink:href="#linear-gradient-8"/>
    <linearGradient id="linear-gradient-29" x1="10293.45372" y1="362.2771" x2="10549.4933" y2="734.30776" gradientTransform="matrix(-1, 0, 0, 1, 10745.07953, 0)" xlink:href="#linear-gradient-11"/>
    <linearGradient id="linear-gradient-30" x1="10283.41533" y1="445.8116" x2="10554.92038" y2="713.02069" gradientTransform="matrix(-1, 0, 0, 1, 10745.07953, 0)" xlink:href="#linear-gradient-8"/>
    <linearGradient id="linear-gradient-31" x1="10525.74973" y1="440.88884" x2="10577.73092" y2="638.07369" gradientTransform="matrix(-1, 0, 0, 1, 10745.07953, 0)" xlink:href="#linear-gradient"/>
    <linearGradient id="linear-gradient-32" x1="10369.02637" y1="358.82418" x2="10640.53142" y2="626.03327" gradientTransform="matrix(-1, 0, 0, 1, 10745.07953, 0)" xlink:href="#linear-gradient-8"/>
    <linearGradient id="linear-gradient-33" x1="10354.80541" y1="320.05354" x2="10610.84498" y2="692.0842" gradientTransform="matrix(-1, 0, 0, 1, 10745.07953, 0)" xlink:href="#linear-gradient-11"/>
    <linearGradient id="linear-gradient-34" x1="10314.2276" y1="414.50396" x2="10585.73265" y2="681.71305" gradientTransform="matrix(-1, 0, 0, 1, 10745.07953, 0)" xlink:href="#linear-gradient-8"/>
    <linearGradient id="linear-gradient-35" x1="10207.21291" y1="558.61887" x2="10469.01633" y2="755.48411" gradientTransform="matrix(-1, 0, 0, 1, 10745.07953, 0)" xlink:href="#linear-gradient-2"/>
    <linearGradient id="linear-gradient-36" x1="9992.53508" y1="407.93604" x2="10496.88149" y2="746.45817" gradientTransform="matrix(-1, 0, 0, 1, 10745.07953, 0)" xlink:href="#linear-gradient-8"/>
    <linearGradient id="linear-gradient-37" x1="10545.13103" y1="631.75727" x2="10596.03823" y2="740.01562" gradientTransform="matrix(-1, 0, 0, 1, 10745.07953, 0)" xlink:href="#linear-gradient-11"/>
    <linearGradient id="linear-gradient-38" x1="10561.57052" y1="667.4163" x2="10599.58982" y2="730.567" gradientTransform="matrix(-1, 0, 0, 1, 10745.07953, 0)" xlink:href="#linear-gradient-8"/>
    <linearGradient id="linear-gradient-39" x1="10493.95559" y1="656.88679" x2="10500.39954" y2="789.30994" gradientTransform="matrix(-1, 0, 0, 1, 10745.07953, 0)" xlink:href="#linear-gradient"/>
    <linearGradient id="linear-gradient-40" x1="431.56094" y1="411.8364" x2="471.70382" y2="550.51183" gradientTransform="matrix(-1, 0, 0, 1, 829.18616, 0)" xlink:href="#linear-gradient-3"/>
    <linearGradient id="linear-gradient-41" x1="460.88685" y1="403.34733" x2="501.02973" y2="542.02275" gradientTransform="matrix(-1, 0, 0, 1, 829.18616, 0)" xlink:href="#linear-gradient-3"/>
    <linearGradient id="linear-gradient-42" x1="413.10519" y1="417.17886" x2="453.24808" y2="555.85428" gradientTransform="matrix(-1, 0, 0, 1, 829.18616, 0)" xlink:href="#linear-gradient-3"/>
    <linearGradient id="linear-gradient-43" x1="439.72475" y1="393.8279" x2="485.08099" y2="427.45409" gradientTransform="matrix(-1, 0, 0, 1, 829.18616, 0)" gradientUnits="userSpaceOnUse">
      <stop offset="0.00005" stop-color="#c6bfbc"/>
      <stop offset="1" stop-color="#a6948d"/>
    </linearGradient>
    <linearGradient id="linear-gradient-44" x1="451.54649" y1="377.88229" x2="496.90274" y2="411.50847" xlink:href="#linear-gradient-43"/>
    <linearGradient id="linear-gradient-45" x1="474.78399" y1="399.32447" x2="514.92687" y2="537.99989" gradientTransform="matrix(-1, 0, 0, 1, 829.18616, 0)" xlink:href="#linear-gradient-3"/>
    <linearGradient id="linear-gradient-46" x1="4668.10419" y1="490.16287" x2="4718.90207" y2="490.16287" gradientTransform="translate(-4309.08862)" xlink:href="#linear-gradient-2"/>
    <linearGradient id="linear-gradient-47" x1="316.53081" y1="345.60922" x2="403.86955" y2="473.1878" gradientTransform="translate(3.38432)" gradientUnits="userSpaceOnUse">
      <stop offset="0.62595" stop-color="#fff" stop-opacity="0"/>
      <stop offset="1" stop-color="#fff"/>
    </linearGradient>
    <linearGradient id="linear-gradient-48" x1="626.54399" y1="136.23187" x2="840.63427" y2="533.0603" gradientUnits="userSpaceOnUse">
      <stop offset="0" stop-color="#96b1cc"/>
      <stop offset="1" stop-color="#748ea6"/>
    </linearGradient>
    <linearGradient id="linear-gradient-49" x1="12766.95436" y1="699.37746" x2="13083.58024" y2="844.03713" gradientTransform="matrix(-1, 0, 0, 1, 13488.47275, 0)" xlink:href="#linear-gradient-2"/>
    <linearGradient id="linear-gradient-50" x1="12800.75605" y1="625.39355" x2="13117.38192" y2="770.05322" gradientTransform="matrix(-1, 0, 0, 1, 13488.47275, 0)" xlink:href="#linear-gradient-2"/>
    <linearGradient id="linear-gradient-51" x1="12776.63319" y1="678.19281" x2="13093.25906" y2="822.85247" gradientTransform="matrix(-1, 0, 0, 1, 13488.47275, 0)" xlink:href="#linear-gradient-2"/>
    <linearGradient id="linear-gradient-52" x1="12794.21493" y1="639.71051" x2="13110.84081" y2="784.37018" gradientTransform="matrix(-1, 0, 0, 1, 13488.47275, 0)" xlink:href="#linear-gradient-2"/>
    <linearGradient id="linear-gradient-53" x1="12789.74046" y1="649.50409" x2="13106.36633" y2="794.16375" gradientTransform="matrix(-1, 0, 0, 1, 13488.47275, 0)" xlink:href="#linear-gradient-2"/>
    <linearGradient id="linear-gradient-54" x1="12775.04385" y1="708.5483" x2="13105.22212" y2="708.5483" gradientTransform="matrix(-1, 0, 0, 1, 13488.47275, 0)" gradientUnits="userSpaceOnUse">
      <stop offset="0" stop-color="#526575"/>
      <stop offset="1" stop-color="#62788c"/>
    </linearGradient>
    <linearGradient id="linear-gradient-55" x1="12775.04386" y1="672.4695" x2="13105.2221" y2="672.4695" gradientTransform="matrix(-1, 0, 0, 1, 13488.47275, 0)" gradientUnits="userSpaceOnUse">
      <stop offset="0" stop-color="#748ea6"/>
      <stop offset="1" stop-color="#96b1cc"/>
    </linearGradient>
    <linearGradient id="linear-gradient-56" x1="10657.16622" y1="663.22305" x2="10609.46619" y2="713.83436" gradientTransform="matrix(-1, 0, 0, 1, 11451.06833, 0)" xlink:href="#linear-gradient-3"/>
    <linearGradient id="linear-gradient-57" x1="10595.79359" y1="608.80827" x2="10625.35418" y2="624.93222" gradientTransform="matrix(-1, 0, 0, 1, 11451.06833, 0)" gradientUnits="userSpaceOnUse">
      <stop offset="0" stop-color="#f2883c"/>
      <stop offset="0.16716" stop-color="#e97d35"/>
      <stop offset="0.67368" stop-color="#d26124"/>
      <stop offset="0.96784" stop-color="#c9571e"/>
    </linearGradient>
    <linearGradient id="linear-gradient-58" x1="10611.93508" y1="572.05003" x2="10632.23931" y2="611.01625" xlink:href="#linear-gradient-57"/>
    <linearGradient id="linear-gradient-59" x1="10660.58489" y1="634.19904" x2="10635.95107" y2="649.87511" xlink:href="#linear-gradient-57"/>
    <linearGradient id="linear-gradient-60" x1="10595.19554" y1="627.54241" x2="10627.89134" y2="641.12834" xlink:href="#linear-gradient-57"/>
    <linearGradient id="linear-gradient-61" x1="10607.16575" y1="586.89584" x2="10623.58829" y2="616.60572" xlink:href="#linear-gradient-57"/>
    <linearGradient id="linear-gradient-62" x1="10682.25845" y1="593.63181" x2="10640.90349" y2="630.80648" xlink:href="#linear-gradient-57"/>
    <linearGradient id="linear-gradient-63" x1="10659.22091" y1="573.70416" x2="10639.66315" y2="607.89291" xlink:href="#linear-gradient-57"/>
    <linearGradient id="linear-gradient-64" x1="795.59389" y1="176.65104" x2="859.67899" y2="195.79997" xlink:href="#linear-gradient-3"/>
    <linearGradient id="linear-gradient-65" x1="794.44989" y1="180.4796" x2="858.535" y2="199.62854" xlink:href="#linear-gradient-3"/>
    <linearGradient id="linear-gradient-66" x1="793.3059" y1="184.30817" x2="857.39101" y2="203.4571" xlink:href="#linear-gradient-3"/>
    <linearGradient id="linear-gradient-67" x1="641.81973" y1="329.72745" x2="677.89884" y2="343.94316" xlink:href="#linear-gradient-3"/>
    <linearGradient id="linear-gradient-68" x1="692.49261" y1="329.72745" x2="728.57171" y2="343.94316" xlink:href="#linear-gradient-3"/>
    <linearGradient id="linear-gradient-69" x1="651.62975" y1="293.661" x2="856.39571" y2="374.34185" xlink:href="#linear-gradient-3"/>
    <linearGradient id="linear-gradient-70" x1="658.43942" y1="276.37824" x2="863.20537" y2="357.05909" xlink:href="#linear-gradient-3"/>
    <linearGradient id="linear-gradient-71" x1="641.81973" y1="398.15298" x2="677.89884" y2="412.36869" xlink:href="#linear-gradient-3"/>
    <linearGradient id="linear-gradient-72" x1="691.64786" y1="405.26083" x2="729.41646" y2="405.26083" xlink:href="#linear-gradient-3"/>
    <linearGradient id="linear-gradient-73" x1="741.82074" y1="405.26083" x2="780.58934" y2="405.26083" xlink:href="#linear-gradient-3"/>
    <linearGradient id="linear-gradient-74" x1="658.43942" y1="344.80377" x2="863.20537" y2="425.48462" xlink:href="#linear-gradient-3"/>
    <linearGradient id="linear-gradient-75" x1="640.97498" y1="287.59575" x2="741.25532" y2="287.59575" xlink:href="#linear-gradient-3"/>
    <linearGradient id="linear-gradient-76" x1="738.23404" y1="242.61645" x2="783.55319" y2="242.61645" xlink:href="#linear-gradient-3"/>
  </defs>
  <g class="cls-2">
    <g>
      <g>
        <path class="cls-3" d="M1702.02846,1095.23132v483.27057a65.17909,65.17909,0,0,1-32.52654-8.77855L974.75031,1168.62786a32.352,32.352,0,0,1-16.34534-27.87527V946.73973Z"/>
        <g>
          <path class="cls-4" d="M1874.41844,731.54256l-172.39916,727.37753a65.24019,65.24019,0,0,1-32.49375-8.77855L974.77372,1049.04606a32.46671,32.46671,0,0,1-16.37792-28.39948V894.86422Z"/>
          <path class="cls-5" d="M1708.25228,1180.73076l-6.233,208.41738a65.24019,65.24019,0,0,1-32.49375-8.77855L974.77372,979.2741a32.46668,32.46668,0,0,1-16.37792-28.39947V825.09227Z"/>
          <path class="cls-6" d="M974.76516,854.81462l694.75069,401.09605a65.51173,65.51173,0,0,0,65.51815-.005L2860.62658,605.24139c21.83314-12.60925,21.832-44.12405-.00213-56.73166L2166.085,147.46324a65.51174,65.51174,0,0,0-65.515-.00189L974.76458,798.07949C952.9271,810.68738,952.92742,842.20718,974.76516,854.81462Z"/>
        </g>
      </g>
      <path class="cls-7" d="M1618.65725,403.65475l15.27194-8.9861a162.781,162.781,0,0,1,116.00449-19.118c211.549,44.44727,478.27277,178.30147,549.88642,354.71111,52.39973,129.079,58.06975,214.87816,55.9142,258.13937a83.90185,83.90185,0,0,1-23.457,53.9342c-156.20689,162.68592-458.97237,329.36313-627.71127,370.57788a81.94513,81.94513,0,0,1-42.27454-.83818c-288.66558-83.75039-597.30969-272.1393-723.09843-396.44526a83.45629,83.45629,0,0,1-23.00182-76.60712c8.69278-41.26752,24.00838-102.40193,44.05325-136.09553C992.39848,748.87921,1618.65725,403.65475,1618.65725,403.65475Z"/>
    </g>
  </g>
  <g>
    <g>
      <polygon class="cls-8" points="460.39 81.236 867.036 316.004 867.036 711.22 460.39 476.43 460.39 81.236"/>
      <polygon class="cls-9" points="460.406 81.236 53.759 316.004 53.759 711.22 460.406 476.43 460.406 81.236"/>
    </g>
    <path class="cls-10" d="M60.7764,723.3864,439.357,941.95037a42.10144,42.10144,0,0,0,42.10111-.00062L860.01929,723.38232a14.03381,14.03381,0,0,0,.00017-24.307L481.4417,480.49136a42.10142,42.10142,0,0,0-42.10407.00053L60.77558,699.07933A14.03382,14.03382,0,0,0,60.7764,723.3864Z"/>
    <path class="cls-11" d="M333.17486,789.02991,630.85978,617.13574a30.43408,30.43408,0,0,1,30.4343-.00184l118.71714,68.53248a10.14469,10.14469,0,0,1,.0025,17.57025L482.37123,875.17113a30.43411,30.43411,0,0,1-30.4418.00249L333.17486,806.60038A10.1447,10.1447,0,0,1,333.17486,789.02991Z"/>
    <path class="cls-12" d="M386.104,784.94243,603.82411,659.22284a17.12182,17.12182,0,0,1,17.12194-.001L710.575,710.96238a5.70727,5.70727,0,0,1,.0014,9.88479l-217.69,125.74958a17.12178,17.12178,0,0,1-17.12614.0014L386.104,794.82733A5.70726,5.70726,0,0,1,386.104,784.94243Z"/>
  </g>
  <g>
    <g>
      <g>
        <g>
          <path class="cls-13" d="M76.76653,673.81051,439.63887,464.3159a6.89294,6.89294,0,0,0,3.4466-5.96954V128.95366L76.76653,340.45846Z"/>
          <path class="cls-14" d="M431.60273,455.688,88.25366,653.91763,76.78842,647.3004V340.47628L420.13749,142.23519l11.46524,6.61724Z"/>
          <polygon class="cls-15" points="183.53 292.081 183.53 585.679 88.254 640.683 88.255 634.042 177.785 582.366 177.785 295.398 183.53 292.081"/>
          <polygon class="cls-16" points="301.806 223.791 301.788 517.402 206.516 572.409 206.516 565.768 296.044 514.094 296.044 227.098 301.806 223.791"/>
          <polygon class="cls-17" points="420.137 155.469 420.099 449.105 324.793 504.126 324.793 497.485 414.321 445.811 414.321 158.827 420.137 155.469"/>
          <polygon class="cls-18" points="431.603 148.852 431.597 455.693 88.255 653.913 88.254 640.683 420.137 449.082 420.137 155.469 431.603 148.852"/>
          <path class="cls-19" d="M76.76644,340.45845v333.352L439.63881,464.316a6.893,6.893,0,0,0,3.44659-5.96954V128.95364Zm236.5383-123.30654V523.98612L206.51626,585.6376V278.80935ZM88.25468,347.09105,195.028,285.44244V592.27006L88.25468,653.91263ZM431.59716,455.69321,324.793,517.35366V210.51882l106.80418-61.66648Z"/>
        </g>
        <polygon class="cls-20" points="195.028 592.27 183.53 585.679 183.53 292.081 195.028 285.442 195.028 592.27"/>
        <polygon class="cls-21" points="313.305 523.986 301.806 517.396 301.806 223.791 313.305 217.152 313.305 523.986"/>
      </g>
      <polygon class="cls-22" points="431.597 455.69 420.099 449.105 420.137 155.469 431.597 148.856 431.597 455.69"/>
    </g>
    <g>
      <circle class="cls-23" cx="448.88261" cy="149.84663" r="8.05748"/>
      <path class="cls-24" d="M447.87853,155.5408,93.29275,360.30373l-3.92587-6.79981,354.599-204.77053.00179.0031a1.97732,1.97732,0,0,1,1.95074.20783,6.13756,6.13756,0,0,1,2.78518,4.8041A1.92628,1.92628,0,0,1,447.87853,155.5408Z"/>
      <path class="cls-9" d="M440.12677,159.995a9.57912,9.57912,0,0,0-1.25888-3.74259,9.24874,9.24874,0,0,0-2.7217-3.02821,6.14468,6.14468,0,0,0-3.47055-1.15672,4.98415,4.98415,0,0,0-2.433.62924,5.5026,5.5026,0,0,0-2.51777,5.39314l4.219-2.43283a1.34346,1.34346,0,0,1,.73182-.18711c1.05454,0,2.36451.95257,3.24917,2.48371.93576,1.61607,1.072,3.33432.42531,4.219a1.34258,1.34258,0,0,1-.42531.39125,1.17713,1.17713,0,0,1-.52747.15326l-3.75963,2.1776a6.00566,6.00566,0,0,0,3.5557,1.25889,4.77292,4.77292,0,0,0,2.43262-.64668,5.29881,5.29881,0,0,0,2.5348-4.78031C440.16083,160.48845,440.1438,160.23344,440.12677,159.995Z"/>
      <path class="cls-9" d="M418.82813,172.30533a9.579,9.579,0,0,0-1.25888-3.7426,9.24874,9.24874,0,0,0-2.7217-3.02821,6.14466,6.14466,0,0,0-3.47054-1.15671,4.98425,4.98425,0,0,0-2.433.62923,5.50259,5.50259,0,0,0-2.51777,5.39314l4.219-2.43283a1.3436,1.3436,0,0,1,.73183-.18711c1.05453,0,2.3645.95257,3.24917,2.48371.93575,1.61607,1.072,3.33432.4253,4.219a1.34243,1.34243,0,0,1-.4253.39125,1.17714,1.17714,0,0,1-.52748.15326l-3.75962,2.17761a6.00564,6.00564,0,0,0,3.55569,1.25888,4.77283,4.77283,0,0,0,2.43263-.64668,5.2988,5.2988,0,0,0,2.53479-4.78031C418.86219,172.79875,418.84516,172.54373,418.82813,172.30533Z"/>
      <path class="cls-9" d="M390.05224,188.93743a9.579,9.579,0,0,0-1.25889-3.74259,9.24872,9.24872,0,0,0-2.72169-3.02821,6.14468,6.14468,0,0,0-3.47055-1.15672,4.98415,4.98415,0,0,0-2.433.62924,5.5026,5.5026,0,0,0-2.51777,5.39314l4.219-2.43283a1.34346,1.34346,0,0,1,.73182-.18711c1.05454,0,2.36451.95257,3.24917,2.48371.93575,1.61607,1.072,3.33432.42531,4.219a1.34268,1.34268,0,0,1-.42531.39125,1.17713,1.17713,0,0,1-.52747.15326l-3.75963,2.1776a6.00566,6.00566,0,0,0,3.5557,1.25889,4.77292,4.77292,0,0,0,2.43262-.64668,5.29882,5.29882,0,0,0,2.53479-4.78031C390.08629,189.43085,390.06927,189.17584,390.05224,188.93743Z"/>
      <path class="cls-9" d="M99.06207,356.97152a9.579,9.579,0,0,0-1.25889-3.7426,9.24861,9.24861,0,0,0-2.72169-3.02821,6.14467,6.14467,0,0,0-3.47055-1.15671,4.98425,4.98425,0,0,0-2.433.62923,5.50261,5.50261,0,0,0-2.51777,5.39314l4.219-2.43283a1.34355,1.34355,0,0,1,.73182-.18711c1.05454,0,2.36451.95257,3.24917,2.48371.93576,1.61607,1.072,3.33432.42531,4.219a1.34266,1.34266,0,0,1-.42531.39124,1.177,1.177,0,0,1-.52747.15326L90.573,361.87124a6.00565,6.00565,0,0,0,3.5557,1.25888,4.77282,4.77282,0,0,0,2.43262-.64668,5.29881,5.29881,0,0,0,2.5348-4.78031C99.09613,357.46494,99.0791,357.20992,99.06207,356.97152Z"/>
      <circle class="cls-25" cx="86.502" cy="359.09044" r="8.05748"/>
    </g>
    <path class="cls-26" d="M94.3418,365.189a19.50147,19.50147,0,0,0,11.1846,1.41165c10.92108-1.95738,12.81319-14.46228,12.81319-14.46228s6.22035,3.82178,11.00838,1.83379c8.76328-3.63851,10.06814-15.05874,10.06814-15.05874-6.63915,58.87077-19.14305,118.406-36.05133,178.44022,8.66822,40.02479,13.93349,85.9132,17.37413,134.9456,1.15827,12.95821-11.56466,18.6229-20.63176,15.41956,1.14015,9.06711-15.41956,11.23887-15.41956,5.21226V524.27363Z"/>
    <path class="cls-27" d="M94.6133,523.87546l35.5536-170.30753c-.27205.13582-.5308.28451-.819.40413-4.788,1.98821-11.008-1.8336-11.008-1.8336s-.01122.33809-.08972.88654Z"/>
    <circle class="cls-9" cx="96.14137" cy="363.68055" r="2.71471"/>
    <path class="cls-9" d="M120.81651,344.39936a9.579,9.579,0,0,0-1.25889-3.74259,9.24875,9.24875,0,0,0-2.72169-3.02822,6.14474,6.14474,0,0,0-3.47055-1.15671,4.98415,4.98415,0,0,0-2.433.62924,5.5026,5.5026,0,0,0-2.51777,5.39314l4.219-2.43283a1.34346,1.34346,0,0,1,.73182-.18711c1.05454,0,2.36451.95257,3.24917,2.48371.93576,1.61607,1.072,3.33431.42531,4.219a1.34268,1.34268,0,0,1-.42531.39125,1.17713,1.17713,0,0,1-.52747.15326l-3.75963,2.1776a6.00566,6.00566,0,0,0,3.5557,1.25889,4.77292,4.77292,0,0,0,2.43262-.64668,5.29882,5.29882,0,0,0,2.5348-4.78031C120.85057,344.89278,120.83354,344.63777,120.81651,344.39936Z"/>
    <circle class="cls-9" cx="117.89581" cy="351.10839" r="2.71471"/>
    <path class="cls-9" d="M141.77081,332.2973a9.579,9.579,0,0,0-1.25888-3.74259,9.24874,9.24874,0,0,0-2.7217-3.02821,6.14467,6.14467,0,0,0-3.47055-1.15671,4.98413,4.98413,0,0,0-2.433.62923,5.50258,5.50258,0,0,0-2.51777,5.39314l4.219-2.43283a1.34348,1.34348,0,0,1,.73182-.18711c1.05454,0,2.36451.95257,3.24918,2.48371.93575,1.61607,1.072,3.33432.4253,4.219a1.34254,1.34254,0,0,1-.4253.39125,1.17714,1.17714,0,0,1-.52748.15326l-3.75962,2.1776a6.00559,6.00559,0,0,0,3.55569,1.25889,4.77293,4.77293,0,0,0,2.43263-.64668,5.2988,5.2988,0,0,0,2.53479-4.78031C141.80487,332.79072,141.78784,332.53571,141.77081,332.2973Z"/>
    <circle class="cls-9" cx="138.6866" cy="338.54643" r="2.71471"/>
    <path class="cls-28" d="M440.82513,461.59993V316.24967l-5.54048-148.399c.59173,15.84928-12.58092,18.06812-19.802,14.26751.21718,15.09377-18.14177,18.4484-28.35111,14.57546,7.73958,44.64728,16.8972,90.88048,33.70243,127.19393-7.69213,61.11754-10.32931,103.56149-10.32931,157.09556,0,7.203,19.003,3.87294,19.003-9.99016C436.1858,474.57639,440.826,468.44115,440.82513,461.59993Z"/>
    <circle class="cls-9" cx="435.63636" cy="167.74206" r="2.71471"/>
    <circle class="cls-9" cx="387.13154" cy="195.64646" r="2.71471"/>
    <path class="cls-27" d="M437.38427,470.44807l-5.17519-141.8868L429.50763,470.993C432.6945,472.703,435.40851,472.185,437.38427,470.44807Z"/>
    <path class="cls-27" d="M426.53429,183.07508a14.77523,14.77523,0,0,1-11.05166-.95691l16.72645,144.44845Z"/>
    <circle class="cls-9" cx="415.34845" cy="180.12112" r="2.71471"/>
    <path class="cls-27" d="M93.95379,527.27788l6.15339,140.44092,3.08854.71583a16.978,16.978,0,0,0,7.48186-.69974Z"/>
    <path class="cls-29" d="M83.5546,523.55888c6.23664,4.642,18.6157,1.98161,22.11744-5.832"/>
    <path class="cls-29" d="M418.85,324.68835c6.23664,4.642,20.77656,2.53373,24.23544-6.11714"/>
  </g>
  <g>
    <path class="cls-30" d="M433.22622,520.36531l121.295,70.02113a8.4337,8.4337,0,0,1,.00288,14.60641L232.84851,790.80969a25.30024,25.30024,0,0,1-25.30691.00192l-106.874-61.71295a25.29584,25.29584,0,0,1-12.4618-24.95735l10.549-86.81356Z"/>
    <g>
      <g>
        <path class="cls-31" d="M579.147,481.09123l-3.95752,15.34431-28.574,110.72422a.58888.58888,0,0,1-.15713.01421c-.17144.01431-.34288.01431-.5001.01431a16.23409,16.23409,0,0,1-8.14352-2.18587l-2.75738-1.58584-.81437-.47149L417.96112,535.739l-1.243-.71435a8.55028,8.55028,0,0,1-4.2861-7.41495V441.21626c-.0286-8.88647,4.01464-20.13041,10.658-28.21681,4.21468-5.14329,9.47229-9.00079,15.40143-10.18664a10.69374,10.69374,0,0,1,7.11489,1.11443h.0143c.11433.05712.2.14283.31436.21425V404.113l133.19764,76.97825Z"/>
        <path class="cls-32" d="M419.50549,436.27629v.03209c-.12871-.0804-.22524-.17693-.35386-.2412h-.01613a11.54224,11.54224,0,0,0-6.05907-1.44352,35.64353,35.64353,0,0,0-.64441,6.59256v86.39343a8.55028,8.55028,0,0,0,4.2861,7.41495l1.243.71435L534.243,602.945l.81437.47149,2.75738,1.58584a16.234,16.234,0,0,0,8.14352,2.18586c.15722,0,.32866,0,.5001-.0143a.589.589,0,0,0,.15713-.01421L568.494,522.38047Z"/>
        <path class="cls-33" d="M575.34663,518.42316v69.40625c0,.18574,0,.38578-.0143.57152a8.59841,8.59841,0,0,1-4.2718,6.85774l-11.77247,6.772-5.15758,2.97172-.08572.04282a16.16506,16.16506,0,0,1-7.42926,2.11453.58888.58888,0,0,1-.15713.01421c-.17144.01431-.34288.01431-.5001.01431V518.38035c-.04281-10.58672,5.70059-24.51654,14.74419-32.47432a29.1387,29.1387,0,0,1,3.28608-2.52883,22.7175,22.7175,0,0,1,8.02929-3.40031,10.69423,10.69423,0,0,1,7.11489,1.11434h.0143c3.91463,2.27167,5.429,6.95785,5.64338,11.28676C585.29041,500.5073,581.24717,511.10823,575.34663,518.42316Z"/>
      </g>
      <g>
        <path class="cls-34" d="M535.31271,594.75608,244.74105,762.73491,109.85,675.55682l53.703-30.987L400.52532,507.31307l130.27184,15.26307a20.9698,20.9698,0,0,1,1.509,2.26927,22.23569,22.23569,0,0,1,2.98353,11.13922Z"/>
        <path class="cls-35" d="M532.30619,524.84541l-287.59966,166.585L163.553,644.56986l-43.26289-33.66857L410.977,442.65754l111.08849,72.8342,2.11958,1.221.01153.01153a22.08887,22.08887,0,0,1,6.60054,5.85182A20.9698,20.9698,0,0,1,532.30619,524.84541Z"/>
        <path class="cls-36" d="M311.57287,560.84661l71.50823,41.60766a15.72767,15.72767,0,0,1,7.87485,13.21385l.55587,32.426,6.39632-3.68919.00052-29.79321a20.92642,20.92642,0,0,0-10.23656-17.99064L319.31881,556.005Z"/>
        <g>
          <path class="cls-37" d="M434.20012,380.10129l-.70132-.80243c-5.15276-5.89612-19.31947-13.30463-28.401-14.40745-8.39444-1.01938-12.58131.66992-19.42524,4.35913L289.488,424.88248a36.19972,36.19972,0,0,0-17.08877,39.881l21.87252,90.439Z"/>
          <path class="cls-38" d="M348.70054,496.90965,274.085,445.19409a36.12161,36.12161,0,0,0-.98441,20.37179l22.152,94.91806,29.99787-.9541,34.41253-52.854A36.11721,36.11721,0,0,0,348.70054,496.90965Z"/>
          <path class="cls-39" d="M325.25051,559.5299,303.378,469.09085a36.19966,36.19966,0,0,1,17.08877-39.881l89.873-52.07264a19.85683,19.85683,0,0,1,29.2224,12.52162l20.68565,85.53041a7.52645,7.52645,0,0,1-3.54624,8.28386Z"/>
          <path class="cls-40" d="M325.25048,559.52984,457.11614,483.2332a6.882,6.882,0,0,0,3.2418-7.57782l-1.05055-4.33453-.22741-.9602L322.762,549.26254Z"/>
        </g>
        <g>
          <path class="cls-41" d="M289.36217,463.69643l-.70132-.80243c-5.15276-5.89612-19.31947-13.30463-28.401-14.40745-8.39445-1.01938-12.58131.66992-19.42524,4.35914L135.085,514.02368a36.19973,36.19973,0,0,0-17.08877,39.881l21.87252,90.439Z"/>
          <path class="cls-42" d="M173.21708,590.71109l-51.93224-29.982c-.35011-.21678-1.11713-.60037-1.11713-.60037-.238-.11049-.48579-.19481-.73179-.28376l20.13225,83.25848Z"/>
          <path class="cls-43" d="M170.14611,647.86867l-21.87252-90.439a36.19967,36.19967,0,0,1,17.08878-39.881l99.43807-57.6187a19.85685,19.85685,0,0,1,29.22241,12.52163l22.00785,90.99741Z"/>
          <polygon class="cls-44" points="170.146 647.869 316.031 563.449 313.535 553.151 167.656 637.595 170.146 647.869"/>
        </g>
        <polygon class="cls-45" points="535.29 603.417 262.763 761.118 262.763 722.625 535.29 564.924 535.29 603.417"/>
        <polygon class="cls-46" points="535.29 574.187 262.763 731.888 262.763 716.255 535.29 558.553 535.29 574.187"/>
      </g>
      <g>
        <path class="cls-47" d="M261.7385,665.48944,237.96492,785.686c-.17144.0143-.34288.0143-.5.0143a16.2338,16.2338,0,0,1-8.14361-2.18595l-2.75738-1.58584-116.2424-67.10441a8.5562,8.5562,0,0,1-4.2861-7.42925V639.13157s-3.72888-2.186-3.8003-2.22876c-7.58639-4.38612-7.57209-18.6017.0143-31.76,7.35775-12.74406,19.13031-19.78754,26.75952-16.24439,0,0,.65723.32866.9572.51439l130.48658,75.33365Z"/>
        <polygon class="cls-48" points="241.593 727.87 240.14 716.521 106.033 639.174 106.033 649.684 241.593 727.87"/>
        <path class="cls-49" d="M266.85327,677.64769V766.3413a8.5562,8.5562,0,0,1-4.2861,7.42925l-11.77247,6.772-5.15759,2.97172-.08572.0429a16.23772,16.23772,0,0,1-7.58647,2.12875c-.17144.0143-.34288.0143-.5.0143v-71.735a9.46747,9.46747,0,0,1-3.80031-1.18585c-7.58639-4.38611-7.57218-18.60161.01422-31.76,7.35783-12.744,19.14461-19.81606,26.7739-16.27291.24286.11432.48571.22864.72856.37147a6.287,6.287,0,0,1,.55722.37148C265.13881,667.761,266.85327,672.21856,266.85327,677.64769Z"/>
      </g>
    </g>
  </g>
  <g>
    <g>
      <g>
        <g>
          <g>
            <g>
              <path class="cls-50" d="M399.913,653.15967s-7.71385,15.90184-5.02053,20.61917,8.49213,5.04729,15.91882,7.95941,13.69239,7.39748,26.35909,5.9954,13.03154-9.32605,9.40528-14.761l-8.03442-.33086-10.67407-4.54824L415.76573,656.994Z"/>
              <path class="cls-51" d="M401.89829,649.3693s-9.25588,16.44855-6.64239,21.02606,8.24043,4.89769,15.447,7.7235,13.28656,7.17823,25.57782,5.8177,14.2935-11.78586,6.01832-13.74181L437.611,669.292l-9.1417-6.4121L417.00267,650.771Z"/>
              <path class="cls-50" d="M443.12681,669.33359c9.862,5.7347,2.25913,19.68044-17.35568,15.139l-14.21647-4.56887c.31763-12.20911,11.95416-20.89409,17.43349-18.2455Z"/>
            </g>
            <path class="cls-51" d="M426.22041,539.60869c-14.582-4.32629-25.26281,36.90363-12.06434,40.51078l4.26274,1.46c-8.75829,19.57775-9.43935,43.80719-16.52052,67.78982l15.10438,1.40175,40.01255-74.89863c6.14628-14.11195,2.52093-25.90572-11.90271-30.9453C436.60551,541.95479,426.22041,539.60869,426.22041,539.60869Z"/>
            <path class="cls-50" d="M365.21235,577.55724l11.62259-53.84614s50.9402,11.26964,68.624,18.0138c13.51207,5.15317,19.70219,20.52755,13.55586,34.63964l-35.569,70.00612c-5.03958,9.45942-27.56947-.86935-26.90343-8.25494,2.38949-24.24233,9.25674-52.63037,9.25674-52.63037Z"/>
            <g>
              <path class="cls-50" d="M380.38348,699.28192s-1.45813,9.18229-.76664,13.57344c.87381,5.5489,2.274,8.43567,2.47058,12.09387.52885,9.84284,3.59566,17.02523,10.85649,20.70113,14.76752,7.47625,22.96613-3.2865,20.12156-11.14679l-5.3342-9.852-9.45966-26.30911C393.25394,692.21386,381.26945,693.253,380.38348,699.28192Z"/>
              <path class="cls-51" d="M381.87761,691.41365s-2.36334,15.31534-1.60053,19.69466c.956,5.48825,2.66771,9.96121,3.34972,13.61584s.71182,11.68672,7.94593,15.98775c14.22746,8.45892,25.10291-.937,20.31093-9.40323L407.525,720.35122,397.71323,692.554Z"/>
              <path class="cls-50" d="M411.09585,728.42856c11.89729,21.29155-23.39761,20.99578-26.7418,5.94l-1.74272-11.10806c3.45739-11.69863,19.71143-13.13947,23.56169-6.66928Z"/>
            </g>
            <path class="cls-52" d="M404.44715,650.16283,397.71323,692.554l-15.83559-1.14043c-.65778-16.05279-1.62917-39.817-1.62917-39.817Z"/>
            <path class="cls-53" d="M304.11334,526.95724l65.1-10.04275,12.8438,8.28042-8.90752,34.23773,33.41487,31.91928c6.52814,6.87279,8.20569,20.97033,7.006,27.53074L404.44715,686.558c-2.37508,11.55629-25.81391,9.733-26.50908-1.82322,0,0-7.19247-47.29836-6.97287-57.41215,0,0-35.78348-15.56377-53.30663-32.29155C293.14169,571.627,304.11334,526.95724,304.11334,526.95724Z"/>
          </g>
          <path class="cls-54" d="M387.74891,436.1367C394.02553,445.33622,416.166,461.694,416.166,461.694L402.21105,480.033,368.0449,457.7986l-6.667-34.65184S377.70018,421.4092,387.74891,436.1367Z"/>
          <polygon class="cls-27" points="383.934 468.139 386.332 453.019 394.079 474.741 383.934 468.139"/>
          <path class="cls-55" d="M370.44829,526.21071c6.84424-4.63789,9.6081-7.5773,11.27163-14.56293l3.86658,8.68893c3.91,10.44854-3.72736,21.44075-15.13821,29.1734-25.10388,17.01242-69.49215,4.271-69.44685-10.65592.01882-6.19823.49565-12.95031,1.11629-19.1645C309.14412,532.61707,347.70791,541.62142,370.44829,526.21071Z"/>
          <path class="cls-56" d="M302.15793,508.70636l-.54974-42.84774-.012-.15778.00984-.01371-.00984-.76821c3.4553-15.05826,14.0775-26.91883,26.71992-32.067,0,0,8.90135-4.12742,12.114-5.36074,11.98757-4.60175,24.08574-5.296,32.75235-2.346,9.46146,3.22063,12.77271,12.94658,13.03344,27.63071,5.31219,25.56263-4.75663,43.6791-4.75663,43.6791l1.83146,10.71793c2.346,11.33906-1.43157,24.81938-12.84242,32.552-25.10388,17.01243-69.49215,4.271-69.44685-10.65591C301.01328,525.174,302.15793,508.70636,302.15793,508.70636Z"/>
          <line class="cls-57" x1="367.17021" y1="501.5023" x2="371.95664" y2="540.18785"/>
          <g>
            <path class="cls-6" d="M359.25254,427.601c11.15706,20.92125,11.64627,48.1929,7.91771,73.90129l-32.42588-53.619-.17571-19.28219Z"/>
            <path class="cls-51" d="M362.59139,431.39c2.08525,6.66645-1.40916,15.84725-3.58514,20.87252-11.44461-1.99984-21.19012-10.0445-28.03171-17.84365,2.753-1.93568,8.0494-8.12018,10.30944-8.69527l14.30376-.76035Z"/>
            <path class="cls-55" d="M367.17023,501.50232s14.2574-36.07786,7.94685-58.48643a37.55292,37.55292,0,0,0-17.18281-22.27414l-6.38783-1.26237-2.2768,2.335s7.76915,3.38467,10.9452,9.11327C372.55146,447.2202,367.17023,501.50232,367.17023,501.50232Z"/>
            <path class="cls-58" d="M359.16529,435.1769c-.57165,3.12274-2.97993,4.43962-6.69459,4.82729-7.06075.73686-17.11576-6.171-15.69976-11.92841l3.23759-17.62247,19.11843,6.49228Z"/>
            <path class="cls-55" d="M326.99272,435.10805c1.165-5.72885,5.01331-10.65127,6.99221-12.65659a13.50017,13.50017,0,0,1,4.3508-2.893l-1.70722,9.45543c1.21267,20.38609,18.19849,52.31373,30.5417,72.48839-18.39547-16.39739-30.64116-31.03494-37.50406-46.968C326.13387,446.33375,325.66109,441.65654,326.99272,435.10805Z"/>
          </g>
          <path class="cls-27" d="M357.74117,518.20792c-7.22373,5.13816-38.86867,28.71969-55.61657,23.20392a5.95382,5.95382,0,0,1-1.10533-3.80239c.263-3.14187.466-6.15287.62364-8.96946,2.37005-5.60575,5.06811-10.19953,6.329-13.45605a50.20712,50.20712,0,0,1,2.28044-4.605l-.13236-.53839c.08438-.18271.13236-.28341.13236-.28341l-1.32928-7.33907,18.0156-20.4958,1.25171,13.70409,18.54926-3.9197C356.78945,489.36066,366.43417,510.64855,357.74117,518.20792Z"/>
        </g>
        <path class="cls-59" d="M407.0332,431.3614c-3.982-8.81513-21.67849-2.51721-18.72121,7.1275L399.32953,477.56c10.15144,10.87431,28.61543,3.49708,22.21828-13.51441Z"/>
        <ellipse class="cls-60" cx="397.93821" cy="434.4341" rx="7.85877" ry="5.24708" transform="translate(-129.01064 170.97118) rotate(-20.94651)"/>
        <path class="cls-58" d="M398.45576,428.475l-7.66511,1.53243a30.87929,30.87929,0,0,1-8.43822-3.81419,32.776,32.776,0,0,1-7.0734-7.36642l1.42745-2.83814,5.9986,3.58044,4.33013-5.75484a3.4179,3.4179,0,0,1,5.90724.79234Z"/>
      </g>
      <g>
        <g>
          <path class="cls-61" d="M378.23851,392.19567c7.33052.07,9.79051,9.2943,3.53195,13.43717,1.37271,7.7225-7.29834,11.648-7.29834,11.648l1.10883-10.5258c-.02156-.00365-.04278-.00458-.06428-.0086a7.40141,7.40141,0,0,1-5.91438-8.6363C370.35389,394.09214,374.15089,392.1567,378.23851,392.19567Z"/>
          <path class="cls-51" d="M356.59922,437.84863c-9.96143-3.54364-14.75476-9.68118-14.21774-19.377l1.19526-20.9601c.246-8.46888,8.68011-15.54157,18.46682-14.40048,8.55346.99729,16.55773,9.09477,15.45754,18.57068a192.82531,192.82531,0,0,1-3.93785,20.77267C371.13871,431.55262,365.652,441.069,356.59922,437.84863Z"/>
          <path class="cls-62" d="M337.78572,388.18052c-.17708-7.60329,7.86673-12.11981,13.77235-9.04093,4.29842-8.09525,17.226-5.97535,19.7359,1.204,6.99357-2.17,17.55833,6.46823,11.078,17.28957-.91054,1.99484-3.57613,5.29708-7.87009,2.7372-1.043,3.98111-8.98544,6.04188-12.18826-.22495-.08143,6.2929-8.21041,7.21433-11.03164,4.80646,1.01173,6.41132-4.20524,8.33428-5.56629,9.15262.37189,5.17731-6.30439,8.1321-8.40863,11.15143,0,0-.29317-.3979.14954-6.30974-1.68284-.89045-1.56166-2.369-2.252-4.76562a9.0054,9.0054,0,0,1-.0355-5.07621,5.84712,5.84712,0,0,1-1.304-9.33535C331.72356,396.13643,332.977,389.43541,337.78572,388.18052Z"/>
          <g>
            <path class="cls-63" d="M370.27809,418.62153c-1.73317-.86644-4.22552-.66727-6.56747.83174"/>
            <line class="cls-63" x1="354.27609" y1="419.74109" x2="343.02865" y2="412.3865"/>
            <path class="cls-64" d="M370.636,421.38528l7.62332-1.643a2.91053,2.91053,0,0,0,2.122-1.834l1.32075-3.64285a1.11126,1.11126,0,0,0-1.315-1.45885l-7.62332,1.643a2.91049,2.91049,0,0,0-2.122,1.834l-1.32075,3.64285A1.11126,1.11126,0,0,0,370.636,421.38528Z"/>
            <path class="cls-51" d="M393.13321,410.10166a37.916,37.916,0,0,0-7.52959-1.33058c-3.15782-.08378-7.39,2.7092-7.39,2.7092a1.44761,1.44761,0,0,0,.89364,2.66764c1.97176-.00279,5.51624-1.17384,7.63047.25413Z"/>
            <path class="cls-51" d="M393.13317,410.10167s-6.87878.93469-8.13706,2.42462-1.70829,5.57621-1.70829,5.57621c-.63551,1.77017,3.29058,8.01553,4.27762,9.6165l1.85174,3.32593c.42414.856,3.512,6.644,3.512,6.644,2.85668,4.08407,12.72255-1.21919,9.86167-5.47477,0,0-2.873-4.55871-3.30474-5.59707C396.861,417.46722,396.48686,411.56238,393.13317,410.10167Z"/>
            <path class="cls-64" d="M353.64205,423.9037l9.37379-1.44417a2.81462,2.81462,0,0,0,2.25333-1.79072l1.36031-3.73672a1.266,1.266,0,0,0-1.44022-1.611l-9.37379,1.44417a2.81463,2.81463,0,0,0-2.25334,1.79073l-1.3603,3.73671A1.266,1.266,0,0,0,353.64205,423.9037Z"/>
          </g>
        </g>
        <path class="cls-51" d="M343.734,421.60948c-3.60775-.69673-5.67192-6.32068-4.8813-10.41459s5.00061-6.85475,7.74437-4.41075C350.04141,409.85215,347.3418,422.30621,343.734,421.60948Z"/>
      </g>
    </g>
    <g>
      <path class="cls-65" d="M301.40211,465.56588c4.2665-18.44082,27.87465-.75557,25.35486,18.838l-4.419,17.39489,22.65547-6.73393c10.08453-2.25912,16.16679,16.81422,6.24287,22.2073,0,0-26.22833,19.23524-40.79744,19.28185-12.65644.04038-15.29252-9.1728-15.749-16.06545C294.13722,512.14327,296.64963,486.10721,301.40211,465.56588Z"/>
      <ellipse class="cls-60" cx="348.10512" cy="505.71479" rx="6.28674" ry="9.4159" transform="translate(-113.19135 100.58494) rotate(-14.16775)"/>
      <path class="cls-51" d="M346.81215,498.55185l9.72126-2.0968,1.20776,12.24767-7.62671,3.034C344.39062,513.91981,340.39371,499.173,346.81215,498.55185Z"/>
      <g>
        <path class="cls-66" d="M394.40929,499.5574l-32.045-2.8783a3.67262,3.67262,0,0,1-1.88262-6.59027l11.3983-8.595a3.6726,3.6726,0,0,1,2.53974-.72552l32.045,2.8783a3.67262,3.67262,0,0,1,1.88262,6.59027l-11.3983,8.595A3.67264,3.67264,0,0,1,394.40929,499.5574Z"/>
        <polygon class="cls-67" points="391.583 495.965 358.695 493.011 374.116 481.383 407.004 484.337 391.583 495.965"/>
        <polygon class="cls-68" points="407.004 484.337 388.37 286.533 242.334 391.355 357.012 492.654 407.004 484.337"/>
      </g>
      <path class="cls-51" d="M353.40192,496.69233l5.73228-4.05607a16.403,16.403,0,0,1,3.95114-2.05511l9.61534-3.4386c2.27635-.76113,3.66161,2.324,1.1272,4.142l-1.90567,1.21938a2.13736,2.13736,0,0,0-.07818,3.5482l3.88107,1.77594,8.79349.841s-4.484,7.00586-8.9593,8.32c-6.0907,1.78845-18.47364,1.61913-18.47364,1.61913C353.11749,509.17331,349.14808,499.545,353.40192,496.69233Z"/>
    </g>
  </g>
  <g>
    <g>
      <path class="cls-69" d="M735.86768,171.85192a191.74871,191.74871,0,1,1-74.88721,15.113,191.17954,191.17954,0,0,1,74.88721-15.113m0-17.54224c-115.95069,0-209.94727,93.99658-209.94727,209.94751,0,115.95068,93.99658,209.94726,209.94727,209.94726s209.94775-93.99658,209.94775-209.94726c0-115.95093-93.99707-209.94751-209.94775-209.94751Z"/>
      <circle class="cls-70" cx="735.86783" cy="364.25713" r="194.19259"/>
      <path class="cls-9" d="M930.0615,364.25533a194.17512,194.17512,0,1,1-71.04618-150.16185A193.7854,193.7854,0,0,1,930.0615,364.25533Z"/>
    </g>
    <path class="cls-71" d="M859.01532,171.308V514.41708a194.22451,194.22451,0,0,1-246.29344,0V171.308a31.54872,31.54872,0,0,1,31.55862-31.55851H827.45681A31.55986,31.55986,0,0,1,859.01532,171.308Z"/>
    <path class="cls-72" d="M850.09974,199.33618V517.60485a180.163,180.163,0,0,1-228.46228,0V199.33618a29.26466,29.26466,0,0,1,29.27384-29.27375H820.826A29.275,29.275,0,0,1,850.09974,199.33618Z"/>
    <g>
      <circle class="cls-69" cx="916.21747" cy="249.15712" r="62.02326"/>
      <g>
        <rect class="cls-67" x="895.16068" y="240.51489" width="13.46241" height="40.4658" transform="translate(79.78149 714.10513) rotate(-45)"/>
        <rect class="cls-67" x="921.37151" y="223.33402" width="13.46241" height="60.59444" transform="translate(1405.02606 1089.24333) rotate(-135)"/>
      </g>
    </g>
  </g>
  <g>
    <path class="cls-73" d="M494.19049,774.86545l-2.36445,64.345c0,2.171-3.06238,3.931-6.84,3.931s-6.83978-1.75993-6.83978-3.931l-2.37435-64.345Z"/>
    <path class="cls-74" d="M407.746,724.93292l-2.36446,64.345c0,2.171-3.06238,3.931-6.84,3.931s-6.83978-1.75994-6.83978-3.931l-2.37435-64.345Z"/>
    <path class="cls-75" d="M706.7639,652.13845l-2.36445,64.345c0,2.171-3.06238,3.931-6.84,3.931s-6.83978-1.75993-6.83978-3.931l-2.37435-64.345Z"/>
    <g>
      <g>
        <path class="cls-76" d="M389.11054,722.25676v14.30238a5.31839,5.31839,0,0,0,2.68239,4.78269l84.36488,48.71731a16.021,16.021,0,0,0,8.82341,2.13451V700.85451Z"/>
        <path class="cls-77" d="M484.98122,700.85451v91.33914a16.05744,16.05744,0,0,0,7.29391-2.13451L704.89371,667.273a5.31252,5.31252,0,0,0,2.671-4.77126h.01143V651.167Z"/>
      </g>
      <g>
        <path class="cls-78" d="M713.42891,636.92468l-.00593,10.165a5.65114,5.65114,0,0,1-2.84659,5.03678L492.88633,777.87608a17.12169,17.12169,0,0,1-17.12612.0014l-89.65629-51.77082a5.6493,5.6493,0,0,1-2.84974-4.88524l-.00355-10.09021Z"/>
        <path class="cls-79" d="M386.104,704.50143,603.82411,578.78184a17.12182,17.12182,0,0,1,17.12194-.001L710.575,630.52138a5.70727,5.70727,0,0,1,.0014,9.88479l-217.69,125.74959a17.1218,17.1218,0,0,1-17.12614.0014L386.104,714.38634A5.70727,5.70727,0,0,1,386.104,704.50143Z"/>
      </g>
    </g>
  </g>
  <g>
    <g>
      <path class="cls-80" d="M788.59935,667.642l55.451.13226-7.01874,43.4045c-.59474,6.30027-9.64571,11.30754-20.75637,11.30754-11.1112,0-20.16162-5.00727-20.75636-11.30754Z"/>
      <ellipse class="cls-12" cx="816.33924" cy="665.69116" rx="27.94426" ry="16.05992"/>
      <path class="cls-81" d="M792.09494,673.67014c4.82258,4.84517,13.885,8.07533,24.24871,8.07533s19.42558-3.23016,24.24871-8.07533c-3.07339-6.01166-12.76346-10.40831-24.24871-10.40831S795.16833,667.65848,792.09494,673.67014Z"/>
      <path class="cls-82" d="M816.33919,653.449c14.218,0,24.1266,6.45182,24.1266,12.24215,0,5.79039-9.90858,12.2422-24.1266,12.2422s-24.1266-6.45181-24.1266-12.2422c0-5.79033,9.90858-12.24215,24.1266-12.24215m0-3.81774c-15.43318,0-27.94429,7.19023-27.94429,16.05989S800.906,681.7511,816.33919,681.7511s27.94429-7.19029,27.94429-16.05995-12.51112-16.05989-27.94429-16.05989Z"/>
    </g>
    <path class="cls-83" d="M825.337,628.33745c13.1008-2.01665,38.88564-10.51732,33.48925-20.24212S828.33409,609.60378,825.337,628.33745Z"/>
    <path class="cls-81" d="M819.58687,669.28412a1.03142,1.03142,0,0,0,1.03185-1.03153c0-27.84569,5.067-45.9994,16.9433-60.70212a1.03178,1.03178,0,0,0-1.60556-1.29631c-12.197,15.10024-17.40145,33.64136-17.40145,61.99843A1.03143,1.03143,0,0,0,819.58687,669.28412Z"/>
    <path class="cls-81" d="M814.95917,669.28412a1.03143,1.03143,0,0,0,1.03186-1.03153c0-26.22666,0-62.146-13.174-78.45561a1.03178,1.03178,0,0,0-1.60556,1.29631c12.71581,15.743,12.71581,51.23988,12.71581,77.1593A1.03143,1.03143,0,0,0,814.95917,669.28412Z"/>
    <path class="cls-81" d="M814.47406,641.13051a1.03187,1.03187,0,0,0,1.02748-.9473c1.71134-20.97405,6.25718-35.2294,14.30622-44.86143a1.03174,1.03174,0,0,0-1.58333-1.32325c-8.33572,9.975-13.03181,24.59751-14.77987,46.01624a1.03177,1.03177,0,0,0,.94461,1.11237C814.4178,641.12984,814.4461,641.13051,814.47406,641.13051Z"/>
    <path class="cls-84" d="M818.98909,613.972c12.41352-9.28868,32.56114-33.74365,21.641-40.81312S811.77694,592.9859,818.98909,613.972Z"/>
    <path class="cls-85" d="M814.473,650.97266c-10.38638-1.37081-30.34427-9.12322-26.24544-16.89938S811.78623,636.22048,814.473,650.97266Z"/>
    <path class="cls-81" d="M814.91706,657.53245c.02459,0,.04952-.00068.07445-.0027a1.03132,1.03132,0,0,0,.95572-1.10226c-1.28418-17.96842-9.29178-36.9367-22.112-38.42436a1.03166,1.03166,0,1,0-.23784,2.04957c11.70518,1.3583,19.068,19.40083,20.29153,36.52167A1.03146,1.03146,0,0,0,814.91706,657.53245Z"/>
    <path class="cls-81" d="M820.02178,655.88444a1.03256,1.03256,0,0,0,1.02377-.915c1.3364-11.66475,12.07136-19.94994,17.52138-21.79267a1.032,1.032,0,0,0-.66095-1.95524c-5.88257,1.9896-17.46883,10.929-18.91067,23.51344a1.0315,1.0315,0,0,0,.90755,1.142A1.01652,1.01652,0,0,0,820.02178,655.88444Z"/>
    <path class="cls-86" d="M825.337,641.64887c10.96146-.11708,33.43358-3.7067,30.1543-12.3S829.98407,626.66293,825.337,641.64887Z"/>
    <path class="cls-87" d="M829.28811,618c9.23058-7.47942,24.46608-26.44253,15.89544-31.53288S823.14529,602.1439,829.28811,618Z"/>
    <path class="cls-88" d="M808.48669,630.58243c-17.08455-4.57708-48.78844-21.93977-40.21852-34.05556S807.2312,605.29829,808.48669,630.58243Z"/>
    <path class="cls-89" d="M810.8464,610.08576c-11.6192-8.69431-31.08358-29.13672-20.86224-35.75381S817.59705,590.44256,810.8464,610.08576Z"/>
  </g>
  <path class="cls-90" d="M820.82593,170.06236H650.91138a29.27393,29.27393,0,0,0-29.27393,29.27393V448.10967A17.14557,17.14557,0,0,0,638.783,465.25524H832.95416a17.14557,17.14557,0,0,0,17.14557-17.14557V199.33629A29.275,29.275,0,0,0,820.82593,170.06236Z"/>
  <rect class="cls-72" x="713.71327" y="451.38298" width="44.31064" height="5.68085" rx="2.84042"/>
  <rect class="cls-91" x="638.74471" y="181.25533" width="19.91489" height="6.89362" rx="3"/>
  <rect class="cls-91" x="662.14898" y="181.25534" width="12.04253" height="6.89362" rx="3"/>
  <g>
    <circle class="cls-92" cx="826.16969" cy="185.78723" r="4.48988"/>
    <circle class="cls-93" cx="812.21277" cy="185.78723" r="4.48988"/>
    <circle class="cls-94" cx="798.25584" cy="185.78723" r="4.48988"/>
    <g>
      <circle class="cls-95" cx="659.85929" cy="336.8353" r="18.8843"/>
      <circle class="cls-96" cx="710.53216" cy="336.8353" r="18.8843"/>
      <circle class="cls-97" cx="761.20504" cy="336.8353" r="18.8843"/>
      <circle class="cls-98" cx="811.87792" cy="336.8353" r="18.8843"/>
    </g>
    <g>
      <circle class="cls-99" cx="659.85929" cy="405.26083" r="18.8843"/>
      <circle class="cls-100" cx="710.53216" cy="405.26083" r="18.8843"/>
      <circle class="cls-101" cx="761.20504" cy="405.26083" r="18.8843"/>
      <circle class="cls-102" cx="811.87792" cy="405.26083" r="18.8843"/>
    </g>
    <rect class="cls-72" x="640.97498" y="283.6383" width="189.78723" height="7.91489" rx="3.95744"/>
    <rect class="cls-103" x="640.97498" y="283.6383" width="100.28034" height="7.91489" rx="3.95744"/>
    <rect class="cls-91" x="649.90184" y="361.2766" width="19.91489" height="2.55319" rx="1.27659"/>
    <rect class="cls-91" x="700.57472" y="361.2766" width="19.91489" height="2.55319" rx="1.27659"/>
    <rect class="cls-91" x="751.24759" y="361.2766" width="19.91489" height="2.55319" rx="1.27659"/>
    <rect class="cls-91" x="801.92047" y="361.2766" width="19.91489" height="2.55319" rx="1.27659"/>
    <rect class="cls-91" x="649.90184" y="430.44681" width="19.91489" height="2.55319" rx="1.27659"/>
    <rect class="cls-91" x="700.57472" y="430.44681" width="19.91489" height="2.55319" rx="1.27659"/>
    <rect class="cls-91" x="751.24759" y="430.44681" width="19.91489" height="2.55319" rx="1.27659"/>
    <rect class="cls-91" x="801.92047" y="430.44681" width="19.91489" height="2.55319" rx="1.27659"/>
    <rect class="cls-72" x="686.10638" y="222.87234" width="97.44681" height="39.48821" rx="19.74409"/>
    <circle class="cls-104" cx="760.89362" cy="242.61645" r="22.65957"/>
    <path class="cls-72" d="M766.26245,229.21178A13.50037,13.50037,0,0,1,747.489,247.98522a14.44232,14.44232,0,1,0,18.77344-18.77344Z"/>
    <path class="cls-72" d="M758.07869,229.83211l1.19368,2.18256a.8377.8377,0,0,0,.333.333l2.18256,1.19368a.83765.83765,0,0,1,0,1.46983l-2.18256,1.19368a.83764.83764,0,0,0-.333.333l-1.19368,2.18256a.83764.83764,0,0,1-1.46982,0l-1.19368-2.18256a.83764.83764,0,0,0-.333-.333l-2.18256-1.19368a.83765.83765,0,0,1,0-1.46983l2.18256-1.19368a.8377.8377,0,0,0,.333-.333l1.19368-2.18256A.83764.83764,0,0,1,758.07869,229.83211Z"/>
    <path class="cls-72" d="M753.504,239.9016l.67487,1.23395a.47359.47359,0,0,0,.18825.18825l1.23394.67486a.47357.47357,0,0,1,0,.831l-1.23394.67486a.47362.47362,0,0,0-.18825.18826l-.67487,1.23394a.47357.47357,0,0,1-.831,0l-.67487-1.23394a.47362.47362,0,0,0-.18825-.18826l-1.23394-.67486a.47357.47357,0,0,1,0-.831l1.23394-.67486a.47359.47359,0,0,0,.18825-.18825l.67487-1.23395A.47357.47357,0,0,1,753.504,239.9016Z"/>
  </g>
</svg>
