<svg id="Layer_1" data-name="Layer 1" xmlns="http://www.w3.org/2000/svg" xmlns:xlink="http://www.w3.org/1999/xlink" viewBox="0 0 1000 1000">
  <defs>
    <style>
      .cls-1, .cls-48 {
        fill: none;
      }

      .cls-2 {
        fill: #d6ceb9;
      }

      .cls-3 {
        fill: url(#linear-gradient);
      }

      .cls-4 {
        fill: url(#linear-gradient-2);
      }

      .cls-5 {
        fill: #b7babc;
      }

      .cls-51, .cls-6 {
        fill: #fff;
      }

      .cls-6 {
        opacity: 0.7;
      }

      .cls-7 {
        fill: url(#linear-gradient-3);
      }

      .cls-8 {
        fill: url(#linear-gradient-4);
      }

      .cls-9 {
        fill: url(#linear-gradient-5);
      }

      .cls-10 {
        fill: url(#linear-gradient-6);
      }

      .cls-11 {
        fill: url(#linear-gradient-7);
      }

      .cls-12 {
        fill: url(#linear-gradient-8);
      }

      .cls-13 {
        fill: url(#linear-gradient-9);
      }

      .cls-14 {
        fill: url(#linear-gradient-10);
      }

      .cls-15 {
        fill: url(#linear-gradient-11);
      }

      .cls-16 {
        fill: url(#linear-gradient-12);
      }

      .cls-17, .cls-46, .cls-99 {
        fill: #dd7b19;
      }

      .cls-17 {
        opacity: 0.5;
      }

      .cls-18 {
        fill: url(#linear-gradient-13);
      }

      .cls-19 {
        fill: url(#linear-gradient-14);
      }

      .cls-20 {
        fill: url(#linear-gradient-15);
      }

      .cls-21 {
        fill: #ccd3d6;
      }

      .cls-22 {
        fill: #b8cbd8;
      }

      .cls-23 {
        fill: url(#linear-gradient-16);
      }

      .cls-24 {
        fill: url(#linear-gradient-17);
      }

      .cls-25 {
        fill: #5e5e5e;
      }

      .cls-26 {
        fill: url(#linear-gradient-18);
      }

      .cls-27 {
        fill: #fff2d7;
      }

      .cls-28 {
        fill: #ffcb48;
      }

      .cls-29 {
        fill: #4f4f4f;
      }

      .cls-30 {
        fill: url(#linear-gradient-19);
      }

      .cls-31 {
        fill: #777;
      }

      .cls-32 {
        fill: url(#linear-gradient-20);
      }

      .cls-33 {
        fill: url(#linear-gradient-21);
      }

      .cls-34 {
        fill: url(#linear-gradient-22);
      }

      .cls-35 {
        fill: url(#linear-gradient-23);
      }

      .cls-36 {
        fill: url(#linear-gradient-24);
      }

      .cls-37 {
        fill: url(#linear-gradient-25);
      }

      .cls-38 {
        fill: #27343d;
      }

      .cls-39 {
        fill: #7a403f;
      }

      .cls-40 {
        fill: #e48f7c;
      }

      .cls-41 {
        fill: #93514c;
      }

      .cls-42 {
        fill: #ffbda3;
      }

      .cls-43 {
        fill: #303d49;
      }

      .cls-44 {
        fill: url(#linear-gradient-26);
      }

      .cls-45 {
        fill: #323f4c;
      }

      .cls-47 {
        fill: url(#linear-gradient-27);
      }

      .cls-48 {
        stroke: #dd7b19;
        stroke-miterlimit: 10;
        stroke-width: 2.18217px;
      }

      .cls-49 {
        fill: url(#linear-gradient-28);
      }

      .cls-50 {
        fill: #e2e2e2;
      }

      .cls-52 {
        fill: url(#linear-gradient-29);
      }

      .cls-53 {
        fill: #e9f1f4;
      }

      .cls-54 {
        fill: url(#linear-gradient-30);
      }

      .cls-55 {
        fill: url(#linear-gradient-31);
      }

      .cls-56 {
        fill: #37444f;
      }

      .cls-57 {
        fill: #eaeaea;
      }

      .cls-58 {
        fill: url(#linear-gradient-32);
      }

      .cls-59 {
        fill: url(#linear-gradient-33);
      }

      .cls-60 {
        fill: url(#linear-gradient-34);
      }

      .cls-61 {
        fill: url(#linear-gradient-35);
      }

      .cls-62 {
        fill: url(#linear-gradient-36);
      }

      .cls-63 {
        fill: #a9b5bf;
      }

      .cls-64 {
        fill: url(#linear-gradient-37);
      }

      .cls-65 {
        fill: url(#linear-gradient-38);
      }

      .cls-66 {
        fill: url(#linear-gradient-39);
      }

      .cls-67 {
        fill: url(#linear-gradient-40);
      }

      .cls-68 {
        fill: url(#linear-gradient-41);
      }

      .cls-69 {
        fill: url(#linear-gradient-42);
      }

      .cls-70 {
        fill: url(#linear-gradient-43);
      }

      .cls-71 {
        fill: #515151;
      }

      .cls-72 {
        fill: url(#linear-gradient-44);
      }

      .cls-73 {
        fill: url(#linear-gradient-45);
      }

      .cls-74 {
        fill: url(#linear-gradient-46);
      }

      .cls-75 {
        fill: url(#linear-gradient-47);
      }

      .cls-76 {
        fill: url(#linear-gradient-48);
      }

      .cls-77 {
        fill: url(#linear-gradient-49);
      }

      .cls-78 {
        fill: url(#linear-gradient-50);
      }

      .cls-79 {
        fill: url(#linear-gradient-51);
      }

      .cls-80 {
        fill: url(#linear-gradient-52);
      }

      .cls-81 {
        fill: url(#linear-gradient-53);
      }

      .cls-82 {
        fill: url(#linear-gradient-54);
      }

      .cls-83 {
        fill: url(#linear-gradient-55);
      }

      .cls-84 {
        fill: url(#linear-gradient-56);
      }

      .cls-85 {
        fill: #34a521;
      }

      .cls-86 {
        fill: url(#linear-gradient-57);
      }

      .cls-87 {
        fill: url(#linear-gradient-58);
      }

      .cls-88 {
        fill: url(#linear-gradient-59);
      }

      .cls-89 {
        fill: url(#linear-gradient-60);
      }

      .cls-90 {
        clip-path: url(#clip-path);
      }

      .cls-91 {
        fill: url(#linear-gradient-61);
      }

      .cls-92 {
        fill: url(#linear-gradient-62);
      }

      .cls-93 {
        fill: #541510;
        opacity: 0.3;
      }

      .cls-94 {
        fill: url(#linear-gradient-63);
      }

      .cls-95 {
        fill: url(#linear-gradient-64);
      }

      .cls-96 {
        fill: #bcd0e2;
      }

      .cls-97 {
        fill: #bcbcbc;
      }

      .cls-98 {
        fill: url(#linear-gradient-65);
      }

      .cls-99 {
        opacity: 0.6;
      }

      .cls-100 {
        fill: #ffbea4;
      }
    </style>
    <linearGradient id="linear-gradient" x1="119.76982" y1="396.22833" x2="526.41606" y2="396.22833" gradientUnits="userSpaceOnUse">
      <stop offset="0" stop-color="#c3d6e6"/>
      <stop offset="1" stop-color="#f2eee4"/>
    </linearGradient>
    <linearGradient id="linear-gradient-2" x1="526.40823" y1="448.86525" x2="526.40823" y2="932.70331" gradientUnits="userSpaceOnUse">
      <stop offset="0" stop-color="#f2ecda"/>
      <stop offset="0.99337" stop-color="#c4d5e6"/>
    </linearGradient>
    <linearGradient id="linear-gradient-3" x1="9598.56502" y1="390.40848" x2="9950.32993" y2="390.40848" gradientTransform="matrix(-1, 0, 0, 1, 10512.72774, 0)" gradientUnits="userSpaceOnUse">
      <stop offset="0" stop-color="#3e4c59"/>
      <stop offset="1" stop-color="#293440"/>
    </linearGradient>
    <linearGradient id="linear-gradient-4" x1="9657.16028" y1="630.93018" x2="9657.16028" y2="285.32439" gradientTransform="matrix(-1, 0, 0, 1, 10512.72774, 0)" gradientUnits="userSpaceOnUse">
      <stop offset="0" stop-color="#62778c"/>
      <stop offset="1" stop-color="#435466"/>
    </linearGradient>
    <linearGradient id="linear-gradient-5" x1="9774.41349" y1="563.24242" x2="9774.41349" y2="217.62078" xlink:href="#linear-gradient-4"/>
    <linearGradient id="linear-gradient-6" x1="9891.70068" y1="495.54657" x2="9891.70068" y2="149.88603" xlink:href="#linear-gradient-4"/>
    <linearGradient id="linear-gradient-7" x1="9609.93172" y1="393.68618" x2="9950.32993" y2="393.68618" gradientTransform="matrix(-1, 0, 0, 1, 10512.72774, 0)" gradientUnits="userSpaceOnUse">
      <stop offset="0" stop-color="#435466"/>
      <stop offset="1" stop-color="#62778c"/>
    </linearGradient>
    <linearGradient id="linear-gradient-8" x1="9598.54322" y1="393.68569" x2="9961.71391" y2="393.68569" gradientTransform="matrix(-1, 0, 0, 1, 10512.72774, 0)" gradientUnits="userSpaceOnUse">
      <stop offset="0" stop-color="#435466"/>
      <stop offset="1" stop-color="#7e858c"/>
    </linearGradient>
    <linearGradient id="linear-gradient-9" x1="9710.08863" y1="582.93315" x2="9710.08863" y2="278.74252" xlink:href="#linear-gradient-4"/>
    <linearGradient id="linear-gradient-10" x1="9827.34884" y1="515.23607" x2="9827.34884" y2="211.0389" xlink:href="#linear-gradient-4"/>
    <linearGradient id="linear-gradient-11" x1="9944.62462" y1="447.52682" x2="9944.62462" y2="143.32965" xlink:href="#linear-gradient-4"/>
    <linearGradient id="linear-gradient-12" x1="9887.94638" y1="156.26908" x2="9609.09998" y2="610.90995" gradientTransform="matrix(-1, 0, 0, 1, 10512.72774, 0)" gradientUnits="userSpaceOnUse">
      <stop offset="0.00005" stop-color="#ffcb48"/>
      <stop offset="1" stop-color="#e68e2b"/>
    </linearGradient>
    <linearGradient id="linear-gradient-13" x1="9970.12869" y1="206.67422" x2="9691.28229" y2="661.3151" xlink:href="#linear-gradient-12"/>
    <linearGradient id="linear-gradient-14" x1="9995.32917" y1="122.37224" x2="9580.69669" y2="448.80438" gradientTransform="matrix(-1, 0, 0, 1, 10512.72774, 0)" gradientUnits="userSpaceOnUse">
      <stop offset="0" stop-color="#a0a9b2"/>
      <stop offset="1" stop-color="#5b6f82"/>
    </linearGradient>
    <linearGradient id="linear-gradient-15" x1="9977.39009" y1="99.58612" x2="9562.75762" y2="426.01826" xlink:href="#linear-gradient-14"/>
    <linearGradient id="linear-gradient-16" x1="9958.68337" y1="75.82493" x2="9544.05089" y2="402.25708" gradientTransform="matrix(-1, 0, 0, 1, 10512.72774, 0)" gradientUnits="userSpaceOnUse">
      <stop offset="0" stop-color="#849bb2"/>
      <stop offset="1" stop-color="#5b6f82"/>
    </linearGradient>
    <linearGradient id="linear-gradient-17" x1="541.84729" y1="278.49767" x2="541.84729" y2="555.97504" gradientUnits="userSpaceOnUse">
      <stop offset="0" stop-color="#fffbf2"/>
      <stop offset="0.58386" stop-color="#fffbf2" stop-opacity="0"/>
    </linearGradient>
    <linearGradient id="linear-gradient-18" x1="503.36095" y1="274.44503" x2="577.7474" y2="274.44503" gradientUnits="userSpaceOnUse">
      <stop offset="0.00844" stop-color="#ffc63f"/>
      <stop offset="1" stop-color="#e68a23"/>
    </linearGradient>
    <linearGradient id="linear-gradient-19" x1="518.42035" y1="631.6546" x2="539.00419" y2="631.6546" gradientTransform="matrix(1, 0, 0, 1, 0, 0)" xlink:href="#linear-gradient-3"/>
    <linearGradient id="linear-gradient-20" x1="542.55935" y1="466.54624" x2="581.37628" y2="538.80545" gradientUnits="userSpaceOnUse">
      <stop offset="0" stop-color="#b2a784"/>
      <stop offset="1" stop-color="#6e7982"/>
    </linearGradient>
    <linearGradient id="linear-gradient-21" x1="494.74139" y1="499.49895" x2="536.39494" y2="628.0427" gradientUnits="userSpaceOnUse">
      <stop offset="0" stop-color="#8c8262"/>
      <stop offset="1" stop-color="#526575"/>
    </linearGradient>
    <linearGradient id="linear-gradient-22" x1="535.75932" y1="634.13403" x2="654.48062" y2="634.13403" gradientTransform="matrix(1, 0, 0, 1, 0, 0)" xlink:href="#linear-gradient-4"/>
    <linearGradient id="linear-gradient-23" x1="535.70252" y1="570.72838" x2="746.89164" y2="570.72838" gradientTransform="matrix(1, 0, 0, 1, 0, 0)" xlink:href="#linear-gradient-4"/>
    <linearGradient id="linear-gradient-24" x1="657.58708" y1="380.64509" x2="758.51109" y2="549.64802" xlink:href="#linear-gradient-21"/>
    <linearGradient id="linear-gradient-25" x1="625.66872" y1="399.10793" x2="706.28849" y2="558.10804" gradientUnits="userSpaceOnUse">
      <stop offset="0" stop-color="#b2a784"/>
      <stop offset="0.98707" stop-color="#676d73"/>
    </linearGradient>
    <linearGradient id="linear-gradient-26" x1="594.23404" y1="390.22676" x2="629.05587" y2="536.19987" gradientTransform="matrix(1, 0, 0, 1, 0, 0)" xlink:href="#linear-gradient-12"/>
    <linearGradient id="linear-gradient-27" x1="629.10395" y1="381.90856" x2="663.92578" y2="527.88167" gradientTransform="matrix(1, 0, 0, 1, 0, 0)" xlink:href="#linear-gradient-12"/>
    <linearGradient id="linear-gradient-28" x1="551.99696" y1="516.93681" x2="644.64515" y2="516.93681" gradientTransform="matrix(1, 0, 0, 1, 0, 0)" xlink:href="#linear-gradient-4"/>
    <linearGradient id="linear-gradient-29" x1="643.15681" y1="378.55625" x2="677.97864" y2="524.52936" gradientTransform="matrix(1, 0, 0, 1, 0, 0)" xlink:href="#linear-gradient-12"/>
    <linearGradient id="linear-gradient-30" x1="608.87525" y1="364.61533" x2="656.51151" y2="409.60513" gradientUnits="userSpaceOnUse">
      <stop offset="0.00005" stop-color="#c6bfbc"/>
      <stop offset="1" stop-color="#a6948d"/>
    </linearGradient>
    <linearGradient id="linear-gradient-31" x1="623.92905" y1="348.67601" x2="671.54318" y2="393.64491" xlink:href="#linear-gradient-30"/>
    <linearGradient id="linear-gradient-32" x1="645.75166" y1="704.92155" x2="666.33551" y2="704.92155" gradientTransform="matrix(1, 0, 0, 1, 0, 0)" xlink:href="#linear-gradient-3"/>
    <linearGradient id="linear-gradient-33" x1="746.89164" y1="649.05709" x2="767.47548" y2="649.05709" gradientTransform="matrix(1, 0, 0, 1, 0, 0)" xlink:href="#linear-gradient-3"/>
    <linearGradient id="linear-gradient-34" x1="702.35462" y1="578.26111" x2="742.66451" y2="652.61046" gradientTransform="matrix(1, 0, 0, 1, 0, 0)" xlink:href="#linear-gradient-16"/>
    <linearGradient id="linear-gradient-35" x1="713.94889" y1="555.41361" x2="750.22779" y2="616.32633" gradientUnits="userSpaceOnUse">
      <stop offset="0" stop-color="#9099a1"/>
      <stop offset="1" stop-color="#5b6f82"/>
    </linearGradient>
    <linearGradient id="linear-gradient-36" x1="659.68654" y1="582.09767" x2="665.65837" y2="693.77099" gradientUnits="userSpaceOnUse">
      <stop offset="0.0392" stop-color="#77828c"/>
      <stop offset="1" stop-color="#526575"/>
    </linearGradient>
    <linearGradient id="linear-gradient-37" x1="230.36279" y1="697.85226" x2="251.01762" y2="697.85226" gradientTransform="matrix(1, 0, 0, 1, 0, 0)" xlink:href="#linear-gradient-3"/>
    <linearGradient id="linear-gradient-38" x1="176.39847" y1="666.72736" x2="197.0533" y2="666.72736" gradientTransform="matrix(1, 0, 0, 1, 0, 0)" xlink:href="#linear-gradient-3"/>
    <linearGradient id="linear-gradient-39" x1="452.62741" y1="569.19808" x2="473.28225" y2="569.19808" gradientTransform="matrix(1, 0, 0, 1, 0, 0)" xlink:href="#linear-gradient-3"/>
    <linearGradient id="linear-gradient-40" x1="283.66169" y1="491.7745" x2="179.15458" y2="666.15208" gradientTransform="matrix(1, 0, 0, 1, 0, 0)" xlink:href="#linear-gradient-4"/>
    <linearGradient id="linear-gradient-41" x1="458.46189" y1="423.2852" x2="228.54625" y2="696.19805" xlink:href="#linear-gradient-21"/>
    <linearGradient id="linear-gradient-42" x1="449.48057" y1="443.23958" x2="227.32831" y2="683.30734" gradientUnits="userSpaceOnUse">
      <stop offset="0" stop-color="#b2a784"/>
      <stop offset="1" stop-color="#5b6f82"/>
    </linearGradient>
    <linearGradient id="linear-gradient-43" x1="478.18671" y1="469.80346" x2="256.03445" y2="709.87123" xlink:href="#linear-gradient-42"/>
    <linearGradient id="linear-gradient-44" x1="170.03594" y1="498.70772" x2="480.44199" y2="498.70772" gradientUnits="userSpaceOnUse">
      <stop offset="0" stop-color="#526575"/>
      <stop offset="1" stop-color="#8c8262"/>
    </linearGradient>
    <linearGradient id="linear-gradient-45" x1="170.03599" y1="472.66782" x2="480.44206" y2="472.66782" gradientUnits="userSpaceOnUse">
      <stop offset="0" stop-color="#748ea6"/>
      <stop offset="1" stop-color="#ccbf96"/>
    </linearGradient>
    <linearGradient id="linear-gradient-46" x1="829.73077" y1="738.50718" x2="846.45625" y2="738.50718" gradientTransform="matrix(1, 0, 0, 1, 0, 0)" xlink:href="#linear-gradient-3"/>
    <linearGradient id="linear-gradient-47" x1="899.20537" y1="698.4121" x2="915.93085" y2="698.4121" gradientTransform="matrix(1, 0, 0, 1, 0, 0)" xlink:href="#linear-gradient-3"/>
    <linearGradient id="linear-gradient-48" x1="760.90733" y1="698.4121" x2="777.63281" y2="698.4121" gradientTransform="matrix(1, 0, 0, 1, 0, 0)" xlink:href="#linear-gradient-3"/>
    <linearGradient id="linear-gradient-49" x1="755.79386" y1="589.29161" x2="925.39397" y2="708.72831" gradientUnits="userSpaceOnUse">
      <stop offset="0" stop-color="#8c8262"/>
      <stop offset="1" stop-color="#435466"/>
    </linearGradient>
    <linearGradient id="linear-gradient-50" x1="758.40963" y1="609.22105" x2="940.5506" y2="806.88879" gradientUnits="userSpaceOnUse">
      <stop offset="0" stop-color="#8c8262"/>
      <stop offset="0.60476" stop-color="#526575"/>
    </linearGradient>
    <linearGradient id="linear-gradient-51" x1="751.0554" y1="582.32353" x2="840.63292" y2="722.06447" xlink:href="#linear-gradient-42"/>
    <linearGradient id="linear-gradient-52" x1="769.92896" y1="625.19723" x2="881.22903" y2="720.5973" xlink:href="#linear-gradient-50"/>
    <linearGradient id="linear-gradient-53" x1="733.5657" y1="593.53487" x2="823.14323" y2="733.27581" xlink:href="#linear-gradient-42"/>
    <linearGradient id="linear-gradient-54" x1="750.90777" y1="647.38863" x2="862.20784" y2="742.78869" xlink:href="#linear-gradient-50"/>
    <linearGradient id="linear-gradient-55" x1="753.84636" y1="626.58673" x2="922.34627" y2="626.58673" xlink:href="#linear-gradient-21"/>
    <linearGradient id="linear-gradient-56" x1="753.8463" y1="597.15054" x2="922.34622" y2="597.15054" gradientUnits="userSpaceOnUse">
      <stop offset="0" stop-color="#ccbf96"/>
      <stop offset="1" stop-color="#748ea6"/>
    </linearGradient>
    <linearGradient id="linear-gradient-57" x1="160.88037" y1="296.58326" x2="160.88037" y2="494.5585" gradientUnits="userSpaceOnUse">
      <stop offset="0" stop-color="#fff2d7"/>
      <stop offset="0.98888" stop-color="#e6edf2" stop-opacity="0.6"/>
    </linearGradient>
    <linearGradient id="linear-gradient-58" x1="328.31965" y1="296.58346" x2="328.31965" y2="494.55841" xlink:href="#linear-gradient-57"/>
    <linearGradient id="linear-gradient-59" x1="245.35783" y1="303.74967" x2="245.35783" y2="507.39274" gradientTransform="matrix(1, 0, 0, 1, 0, 0)" xlink:href="#linear-gradient-4"/>
    <linearGradient id="linear-gradient-60" x1="159.80482" y1="127.53304" x2="347.91762" y2="355.05995" gradientUnits="userSpaceOnUse">
      <stop offset="0" stop-color="#e68a23"/>
      <stop offset="0.99156" stop-color="#ffc63f"/>
    </linearGradient>
    <clipPath id="clip-path">
      <path class="cls-1" d="M1455.98541,305.84375a194.17509,194.17509,0,1,1-71.04617-150.16185A193.78539,193.78539,0,0,1,1455.98541,305.84375Z"/>
    </clipPath>
    <linearGradient id="linear-gradient-61" x1="389.41082" y1="415.45251" x2="1676.29658" y2="1402.3453" gradientTransform="matrix(1, 0, 0, 1, 0, 0)" xlink:href="#linear-gradient-4"/>
    <linearGradient id="linear-gradient-62" x1="-18.2372" y1="828.86698" x2="1094.82086" y2="1832.5818" gradientUnits="userSpaceOnUse">
      <stop offset="0" stop-color="#62788c"/>
      <stop offset="1" stop-color="#526575"/>
    </linearGradient>
    <linearGradient id="linear-gradient-63" x1="-92.94606" y1="1052.66564" x2="1913.68119" y2="1052.66564" gradientTransform="matrix(1, 0, 0, 1, 0, 0)" xlink:href="#linear-gradient-3"/>
    <linearGradient id="linear-gradient-64" x1="-92.94606" y1="1095.23132" x2="1913.68119" y2="1095.23132" gradientTransform="matrix(1, 0, 0, 1, 0, 0)" xlink:href="#linear-gradient-3"/>
    <linearGradient id="linear-gradient-65" x1="56.72656" y1="541.49355" x2="1140.59734" y2="1146.10173" gradientTransform="matrix(1, 0, 0, 1, 0, 0)" xlink:href="#linear-gradient-12"/>
  </defs>
  <g>
    <g>
      <polygon class="cls-2" points="526.4 81.236 933.047 316.004 933.047 711.22 526.4 476.43 526.4 81.236"/>
      <polygon class="cls-3" points="526.416 81.236 119.77 316.004 119.77 711.22 526.416 476.43 526.416 81.236"/>
    </g>
    <path class="cls-4" d="M126.787,723.3864l378.58059,218.564a42.10143,42.10143,0,0,0,42.1011-.00062l378.5612-218.56743a14.03381,14.03381,0,0,0,.00016-24.307L547.45226,480.49136a42.10144,42.10144,0,0,0-42.10408.00053l-378.562,218.58744A14.03381,14.03381,0,0,0,126.787,723.3864Z"/>
    <path class="cls-5" d="M573.95691,754.5533c-46.28793,0-83.81216-21.56548-83.81216-48.16783,0-22.04521,25.77888-40.61765,60.94976-46.33859l103.38611,59.69133C644.40441,739.84216,612.18068,754.5533,573.95691,754.5533Z"/>
    <path class="cls-5" d="M804.09391,631.52072,669.23967,553.55959a14.33363,14.33363,0,0,0-14.34784,0L520.0376,631.52072a7.1668,7.1668,0,0,0,0,12.40917L654.89183,721.891a14.33363,14.33363,0,0,0,14.34784,0l134.85424-77.96113A7.1668,7.1668,0,0,0,804.09391,631.52072Z"/>
  </g>
  <g>
    <g>
      <g>
        <g>
          <path class="cls-6" d="M914.18443,663.77282,554.43073,456.07868a6.8337,6.8337,0,0,1-3.417-5.91823V123.59866L914.18443,333.28571Z"/>
          <path class="cls-7" d="M562.39781,143.32641l11.36671-6.56037,340.3982,196.53735V637.49054l-11.3667,6.56037L562.39781,447.525Z"/>
          <polygon class="cls-8" points="808.339 285.324 808.339 576.399 902.796 630.93 902.795 624.346 814.034 573.114 814.034 288.613 808.339 285.324"/>
          <polygon class="cls-9" points="691.079 217.621 691.097 508.709 785.55 563.242 785.55 556.659 696.791 505.429 696.791 220.9 691.079 217.621"/>
          <polygon class="cls-10" points="573.765 149.886 573.803 440.998 668.29 495.547 668.29 488.963 579.531 437.733 579.531 153.216 573.765 149.886"/>
          <polygon class="cls-11" points="562.398 143.326 562.403 447.53 902.795 644.046 902.796 630.93 573.765 440.976 573.765 149.886 562.398 143.326"/>
          <path class="cls-12" d="M551.01383,123.59864V450.1605a6.83371,6.83371,0,0,0,3.417,5.91823l359.75372,207.694v-330.487Zm234.536,148.5678V576.3577L679.67911,515.23607V211.0389ZM902.795,644.04595l-105.85569-61.1128V278.74252L902.795,339.8613ZM562.40333,143.32632l105.88628,61.1365v304.1978L562.40333,447.53009Z"/>
        </g>
        <polygon class="cls-13" points="796.939 582.933 808.339 576.399 808.339 285.324 796.939 278.743 796.939 582.933"/>
        <polygon class="cls-14" points="679.679 515.236 691.079 508.703 691.079 217.621 679.679 211.039 679.679 515.236"/>
      </g>
      <polygon class="cls-15" points="562.403 447.527 573.803 440.998 573.765 149.886 562.403 143.33 562.403 447.527"/>
    </g>
    <g>
      <path class="cls-16" d="M718.66813,255.26162l-2.82681,294.00307s12.97615,15.70384,30.3445,25.1416,47.44,16.53084,47.44,16.53084,4.378,14.00731,26.19606,25.13166a131.50211,131.50211,0,0,0,42.72539,13.05006s1.77995,8.39876,11.461,13.57662c8.02821,4.267,19.32542,4.89358,24.68889,5.61891V358.34261s-10.34212,1.934-24.29416-5.38219-11.85572-13.565-11.85572-13.565-26.09891-3.06427-41.75649-12.27273-26.64457-27.3982-26.64457-27.3982a152.08914,152.08914,0,0,1-41.9317-12.32652C731.43658,277.5665,723.67727,259.96729,718.66813,255.26162Z"/>
      <path class="cls-17" d="M848.94422,337.02231c7.7864,1.68906,13.603,2.373,13.603,2.373a4.4862,4.4862,0,0,0,0,1.98657v287.7369a118.24757,118.24757,0,0,1-19.32071-3.94885Z"/>
      <path class="cls-17" d="M793.51581,590.911c-.06537-.01565-.1577-.03778-.28072-.06763l-.00916-.00227c-.11952-.02893-.26878-.06537-.43894-.10706l-.10562-.026c-.16018-.03943-.3358-.08287-.534-.13218l-.11427-.02851c-.21545-.05374-.44769-.112-.70268-.17645l-.085-.02151q-.40872-.10346-.879-.224l-.08864-.02275c-.3045-.07824-.62979-.16244-.96981-.25108l-.17747-.04632q-.51867-.13542-1.087-.28608l-.12528-.03314q-.62507-.166-1.30376-.34908l-.03006-.00813c-3.34014-.90208-7.622-2.11463-12.29586-3.5766l5.763-288.52513a133.9063,133.9063,0,0,0,14.09446,2.69738h.0001l-.52037,291.21273-.09769-.02327Z"/>
      <path class="cls-18" d="M547.85474,157.64669l-2.84032,289.88013c0,3.61444,4.8086,9.10485,14.92817,14.27229a80.8766,80.8766,0,0,0,22.77681,7.49573s10.16563,12.3128,24.48376,20.38693c12.88244,7.26453,36.01649,12.24514,36.01649,12.24514s14.88628,22.61966,29.42875,31.34743,37.82946,15.265,43.19292,15.99035l2.82681-294.00307s-26.66657-3.64144-41.30977-12.18168c-14.76692-8.61241-29.83251-26.76187-29.83251-26.76187s-21.07106-1.44375-39.67676-13.10638-21.10033-23.711-21.10033-23.711a32.71909,32.71909,0,0,1-21.82281-4.02822C553.62569,169.0129,549.9845,162.841,547.85474,157.64669Z"/>
      <path class="cls-17" d="M702.38148,252.10658c9.02325,2.16115,16.2866,3.15506,16.2866,3.15506l-2.82678,294.003c-2.80793-.37975-10.53062-2.35458-19.337-5.40052Z"/>
      <path class="cls-17" d="M631.22493,213.24951a91.71749,91.71749,0,0,0,16.30091,3.06858l-4.30626,285.60879s-9.25043-1.993-19.30907-5.294Z"/>
      <path class="cls-17" d="M569.16914,177.59989a34.73063,34.73063,0,0,0,17.57956,1.90077l-4.02936,289.79413a81.02,81.02,0,0,1-19.32729-5.85943Z"/>
    </g>
    <g>
      <g>
        <circle class="cls-19" cx="545.26644" cy="144.31207" r="7.98823"/>
        <path class="cls-20" d="M546.26189,149.9573,897.80024,352.96042l3.89213-6.74136L550.14094,143.20839l-.00177.00308a1.96035,1.96035,0,0,0-1.934.206,6.08478,6.08478,0,0,0-2.76124,4.76281A1.9097,1.9097,0,0,0,546.26189,149.9573Z"/>
        <path class="cls-21" d="M544.88619,149.91087a5.25327,5.25327,0,0,0,2.513,4.73923,4.73186,4.73186,0,0,0,2.41172.64112,5.954,5.954,0,0,0,3.52513-1.24806l-3.72731-2.15889a1.16686,1.16686,0,0,1-.52294-.15195,1.33093,1.33093,0,0,1-.42165-.38788c-.64112-.87706-.50606-2.58054.42165-4.18273.87706-1.518,2.17577-2.46236,3.22125-2.46236a1.332,1.332,0,0,1,.72553.1855l4.18272,2.41192a5.45526,5.45526,0,0,0-2.49613-5.34678,4.9413,4.9413,0,0,0-2.41212-.62383,6.0919,6.0919,0,0,0-3.44072,1.14677,9.16922,9.16922,0,0,0-2.69831,3.00219,9.49659,9.49659,0,0,0-1.24807,3.71043C544.90307,149.4219,544.88619,149.67473,544.88619,149.91087Z"/>
        <path class="cls-21" d="M584.08018,172.55126a5.25329,5.25329,0,0,0,2.513,4.73923,4.732,4.732,0,0,0,2.41172.64112,5.954,5.954,0,0,0,3.52513-1.24807l-3.72731-2.15889a1.167,1.167,0,0,1-.52294-.15194,1.33106,1.33106,0,0,1-.42165-.38789c-.64112-.87706-.50606-2.58054.42165-4.18272.87706-1.518,2.17577-2.46237,3.22125-2.46237a1.33193,1.33193,0,0,1,.72553.18551l4.18273,2.41192a5.45531,5.45531,0,0,0-2.49613-5.34679,4.94136,4.94136,0,0,0-2.41213-.62383,6.0919,6.0919,0,0,0-3.44072,1.14677,9.16932,9.16932,0,0,0-2.69831,3.00219,9.49679,9.49679,0,0,0-1.24806,3.71043C584.09706,172.06229,584.08018,172.31511,584.08018,172.55126Z"/>
      </g>
      <circle class="cls-21" cx="549.37177" cy="156.86599" r="2.69138"/>
      <circle class="cls-21" cx="587.00954" cy="178.4773" r="2.69138"/>
      <path class="cls-21" d="M643.84842,207.05037a5.25325,5.25325,0,0,0,2.513,4.73923,4.73179,4.73179,0,0,0,2.41171.64112,5.95407,5.95407,0,0,0,3.52514-1.24806l-3.72731-2.1589a1.16688,1.16688,0,0,1-.523-.15194,1.33115,1.33115,0,0,1-.42165-.38788c-.64112-.87706-.50606-2.58054.42165-4.18273.87706-1.518,2.17578-2.46236,3.22125-2.46236a1.332,1.332,0,0,1,.72553.1855l4.18273,2.41192a5.45528,5.45528,0,0,0-2.49613-5.34678,4.94133,4.94133,0,0,0-2.41213-.62383,6.09192,6.09192,0,0,0-3.44072,1.14677,9.16944,9.16944,0,0,0-2.69831,3.00219,9.49668,9.49668,0,0,0-1.24806,3.71043C643.8653,206.5614,643.84842,206.81423,643.84842,207.05037Z"/>
      <circle class="cls-21" cx="647.33196" cy="214.07367" r="2.69138"/>
      <path class="cls-21" d="M712.13858,246.48948a5.25327,5.25327,0,0,0,2.513,4.73923,4.73186,4.73186,0,0,0,2.41172.64112,5.954,5.954,0,0,0,3.52513-1.24806l-3.72731-2.1589a1.16688,1.16688,0,0,1-.52294-.15194,1.33115,1.33115,0,0,1-.42165-.38788c-.64112-.87706-.50606-2.58054.42165-4.18273.87706-1.518,2.17577-2.46236,3.22125-2.46236a1.332,1.332,0,0,1,.72553.1855l4.18273,2.41192a5.45528,5.45528,0,0,0-2.49613-5.34678,4.94133,4.94133,0,0,0-2.41213-.62383,6.09192,6.09192,0,0,0-3.44072,1.14677,9.16922,9.16922,0,0,0-2.69831,3.00219,9.49668,9.49668,0,0,0-1.24806,3.71043C712.15547,246.00051,712.13858,246.25334,712.13858,246.48948Z"/>
      <circle class="cls-21" cx="716.59102" cy="253.67305" r="2.69138"/>
      <path class="cls-21" d="M717.86072,249.78a5.25329,5.25329,0,0,0,2.513,4.73923,4.73186,4.73186,0,0,0,2.41172.64112,5.954,5.954,0,0,0,3.52513-1.24807l-3.72731-2.15889a1.167,1.167,0,0,1-.52294-.15194,1.33093,1.33093,0,0,1-.42165-.38788c-.64112-.87707-.50606-2.58055.42165-4.18273.87706-1.518,2.17577-2.46236,3.22125-2.46236a1.33192,1.33192,0,0,1,.72553.1855l4.18272,2.41192a5.45527,5.45527,0,0,0-2.49613-5.34679,4.9414,4.9414,0,0,0-2.41212-.62382,6.09182,6.09182,0,0,0-3.44072,1.14677,9.16918,9.16918,0,0,0-2.69831,3.00218,9.49664,9.49664,0,0,0-1.24807,3.71043C717.8776,249.291,717.86072,249.5438,717.86072,249.78Z"/>
      <circle class="cls-21" cx="719.94205" cy="255.67287" r="2.69138"/>
      <path class="cls-22" d="M790.13876,291.53305a5.25325,5.25325,0,0,0,2.513,4.73922,4.73179,4.73179,0,0,0,2.41171.64112,5.95407,5.95407,0,0,0,3.52514-1.24806l-3.72731-2.15889a1.167,1.167,0,0,1-.52295-.15194,1.33117,1.33117,0,0,1-.42165-.38789c-.64112-.87706-.50606-2.58054.42165-4.18272.87706-1.518,2.17578-2.46237,3.22125-2.46237a1.332,1.332,0,0,1,.72553.1855l4.18273,2.41193a5.45531,5.45531,0,0,0-2.49613-5.34679,4.94133,4.94133,0,0,0-2.41213-.62383,6.09192,6.09192,0,0,0-3.44072,1.14677,9.16922,9.16922,0,0,0-2.69831,3.00219,9.49679,9.49679,0,0,0-1.24806,3.71043C790.15565,291.04407,790.13876,291.2969,790.13876,291.53305Z"/>
      <circle class="cls-22" cx="793.62231" cy="298.55634" r="2.69138"/>
      <path class="cls-22" d="M858.96841,331.328a5.25326,5.25326,0,0,0,2.513,4.73922,4.73186,4.73186,0,0,0,2.41172.64112,5.954,5.954,0,0,0,3.52513-1.24806l-3.72731-2.15889a1.167,1.167,0,0,1-.52294-.15194,1.331,1.331,0,0,1-.42165-.38789c-.64112-.87706-.50606-2.58054.42165-4.18272.87706-1.518,2.17577-2.46237,3.22125-2.46237a1.332,1.332,0,0,1,.72553.1855l4.18273,2.41193a5.45531,5.45531,0,0,0-2.49613-5.34679,4.94136,4.94136,0,0,0-2.41213-.62383,6.0919,6.0919,0,0,0-3.44072,1.14677,9.16922,9.16922,0,0,0-2.69831,3.00219,9.49662,9.49662,0,0,0-1.24806,3.71043C858.98529,330.839,858.96841,331.09184,858.96841,331.328Z"/>
      <circle class="cls-22" cx="862.45196" cy="338.35128" r="2.69138"/>
      <path class="cls-22" d="M893.47873,351.18726a5.25327,5.25327,0,0,0,2.513,4.73923,4.73192,4.73192,0,0,0,2.41171.64112,5.954,5.954,0,0,0,3.52514-1.24807l-3.72731-2.15889a1.167,1.167,0,0,1-.523-.15194,1.33106,1.33106,0,0,1-.42165-.38789c-.64112-.87706-.50606-2.58054.42165-4.18272.87707-1.518,2.17578-2.46236,3.22125-2.46236a1.33192,1.33192,0,0,1,.72553.1855l4.18273,2.41192a5.45531,5.45531,0,0,0-2.49613-5.34679,4.94133,4.94133,0,0,0-2.41213-.62383,6.09192,6.09192,0,0,0-3.44072,1.14677,9.16954,9.16954,0,0,0-2.69831,3.00219,9.49679,9.49679,0,0,0-1.24806,3.71043C893.49561,350.69829,893.47873,350.95111,893.47873,351.18726Z"/>
      <circle class="cls-22" cx="896.96227" cy="358.21056" r="2.69138"/>
    </g>
    <circle class="cls-23" cx="904.53263" cy="351.75757" r="7.98823"/>
  </g>
  <g>
    <polygon class="cls-24" points="503.481 282.857 415.365 553.598 668.33 553.598 577.289 281.146 503.481 282.857"/>
    <g>
      <path class="cls-25" d="M567.627,531.495c-2.90129-7.07889-13.90631-12.35289-27.07292-12.35289s-24.17164,5.274-27.07282,12.35289h-.77251v3.69843c0,8.86492,12.46673,16.05133,27.84533,16.05133s27.84543-7.18641,27.84543-16.05133V531.495Z"/>
      <ellipse class="cls-25" cx="540.55412" cy="530.95026" rx="27.84539" ry="16.05137"/>
    </g>
    <path class="cls-25" d="M536.90552,297.84787V527.62039c0,1.16158,1.63353,2.10321,3.64859,2.10321s3.6486-.94163,3.6486-2.10321V297.84787Z"/>
    <g>
      <path class="cls-26" d="M577.637,282.93021h.00194l-.006-.03039a12.807,12.807,0,0,0-.34414-1.75344L569.803,243.0165H511.29973l-7.48794,38.15479a12.79918,12.79918,0,0,0-.33071,1.68569l-.01448.07323h.00459a12.51394,12.51394,0,0,0-.11024,1.56795c0,11.80534,16.652,21.37539,37.193,21.37539,20.54138,0,37.1934-9.57005,37.1934-21.37539A12.48008,12.48008,0,0,0,577.637,282.93021Z"/>
      <ellipse class="cls-27" cx="540.55412" cy="244.45813" rx="29.36136" ry="16.87434"/>
      <path class="cls-25" d="M529.6132,260.109a49.53127,49.53127,0,0,0,21.8817,0v-8.60982H529.6132Z"/>
      <ellipse class="cls-25" cx="540.55412" cy="251.49922" rx="10.94091" ry="6.30684"/>
      <path class="cls-28" d="M540.55411,229.031c15.39192,0,27.914,6.92056,27.914,15.42712s-12.52211,15.42725-27.914,15.42725-27.914-6.92068-27.914-15.42725,12.52211-15.42712,27.914-15.42712m0-1.4472c-16.21576,0-29.36135,7.55492-29.36135,16.87432,0,9.31953,13.14559,16.87445,29.36135,16.87445s29.36134-7.55492,29.36134-16.87445c0-9.3194-13.14559-16.87432-29.36134-16.87432Z"/>
    </g>
  </g>
  <g>
    <g>
      <path class="cls-29" d="M539.00419,619.98841l-2.83568,18.96992c0,2.4094-3.3503,4.36246-7.48308,4.36246s-7.48308-1.95306-7.48308-4.36246l-2.782-18.96992Z"/>
      <path class="cls-30" d="M539.00419,619.98841l-2.83568,18.96992c0,2.4094-3.3503,4.36246-7.48308,4.36246s-7.48308-1.95306-7.48308-4.36246l-2.782-18.96992Z"/>
      <ellipse class="cls-31" cx="528.68545" cy="619.37164" rx="10.31868" ry="6.01552"/>
    </g>
    <g>
      <path class="cls-32" d="M535.69473,634.72168l-48.685-139.389,109.6418-63.16685.00506.01439c4.53592-2.6907,10.8491-2.34832,17.84065,1.68819,12.928,7.46407,23.56186,24.868,24.85806,40.05817l.0018.00079.003.03846.00078.00911,7.426,92.61494c.18042,2.25035-.38839,3.9337-1.44433,4.89078l.00135.00371-.01969.01136a3.35944,3.35944,0,0,1-1.19126.687Z"/>
      <path class="cls-33" d="M530.1359,536.88106l-.00068-.00911-.00312-.03846-.00175-.00079c-1.29622-15.19022-11.93009-32.59417-24.85813-40.05818-13.80307-7.9692-24.99265-1.58954-24.99265,14.24939,0,14.65913,9.5908,32.26488,21.96157,41.12694l4.85117,59.66111c.43425,5.34,4.16327,11.37349,8.61954,13.94632L530.536,634.317c4.16629,2.40541,7.42618.16855,7.026-4.821Z"/>
    </g>
    <g>
      <polygon class="cls-34" points="654.481 696.777 541.146 631.487 535.759 571.491 649.094 636.781 654.481 696.777"/>
      <path class="cls-35" d="M746.89164,569.96616l-113.335-65.2908-89.91317,51.7355a15.85981,15.85981,0,0,0-7.88412,15.07972v0l113.335,65.2908-.78388-10.08435Z"/>
    </g>
    <path class="cls-36" d="M620.58753,403.49693a27.85523,27.85523,0,0,1,18.01386-22.72458l16.10185-5.8462a35.18784,35.18784,0,0,1,29.88584,2.61613l66.58383,38.4188a44.22818,44.22818,0,0,1,21.82025,43.47042l-8.22172,112.94993L655.35178,509.24l9.94051-96.90317Z"/>
    <path class="cls-37" d="M718.16525,582.07771,608.74558,518.93628l11.84194-115.43936a18.42845,18.42845,0,0,1,27.5132-13.81038l59.95507,34.59751A44.22829,44.22829,0,0,1,729.876,467.75452Z"/>
    <g>
      <g>
        <g>
          <g>
            <g>
              <path class="cls-38" d="M582.95362,648.8892s8.39515,16.91993,5.56194,21.98681-9.027,5.47483-16.93573,8.65773-14.56183,8.036-28.11149,6.65851-14.01518-9.842-10.19183-15.68465l8.58285-.43023,11.36347-4.96233L566.04914,653.138Z"/>
              <path class="cls-39" d="M580.79586,644.85755s10.04826,17.48946,7.299,22.40617-8.75943,5.31256-16.43378,8.40112-14.13022,7.79781-27.27829,6.46116-15.38723-12.45861-6.5626-14.6278l5.00131-1.00945,9.70811-6.93953,11.07518-13.30605Z"/>
              <path class="cls-38" d="M535.96182,667.40645c-10.15349,5.87479-1.44558,17.81105,19.65717,15.1922l15.14892-5.01825c-.45593-13.04426-12.97421-22.21445-18.80444-19.33175Z"/>
            </g>
            <path class="cls-40" d="M540.74519,601.595l22.85963,44.6482s18.31038.28778,17.10775-4.8147l-13.94531-53.11294Z"/>
            <path class="cls-38" d="M623.85641,565.18722l-13.21478-60.39806s-59.20591,16.66307-77.424,25.44961c-14.51681,7.00139-20.85892,22.1248-14.156,37.14707l33.88425,79.74147c5.47582,10.06074,30.59476-.59819,29.81252-8.48447-2.78484-25.88381-12.904-63.38157-12.904-63.38157Z"/>
            <g>
              <path class="cls-38" d="M588.85068,696.29245s1.05058,9.73815.07043,14.36655c-1.23857,5.84872-2.8924,8.872-3.30381,12.73567-1.10695,10.39565-4.77661,17.9263-12.73023,21.66336-16.17654,7.60066-24.3356-3.94711-20.86584-12.199l6.23725-10.3065,11.54811-27.62125C575.50075,688.55487,588.23712,689.90007,588.85068,696.29245Z"/>
              <path class="cls-41" d="M588.15642,688.50348s1.21178,15.68041.15615,20.29484c-1.32294,5.7829-3.39674,10.47682-4.32618,14.32671S582.5825,735.4664,574.623,739.865c-15.65417,8.65071-26.74613-1.507-21.16408-10.35953l5.25677-11.49532,12.006-29.18736Z"/>
              <path class="cls-38" d="M553.48406,726.90565c-8.30224,16.74412,14.6507,26.19554,29.19457,6.40113l2.47244-11.70833c-3.04616-12.43972-20.31821-14.29741-24.785-7.53587Z"/>
            </g>
            <path class="cls-42" d="M572.52406,632.22009l-1.80241,56.60265,17.43476-.31931c4.995-21.519,13.7575-52.1871,14.06884-60.29529Z"/>
            <path class="cls-43" d="M686.30053,512.18449l-69.66511-10.111-11.54078,6.35007,10.10663,37.47054-33.4005,30.45706c-7.74609,6.51336-12.27938,18.81161-12.72171,30.43614l-5.53065,85.066c-1.28836,11.7121,28.28856,14.86046,31.3757,3.89864,4.57143-18.42747,16.92019-75.46208,16.92019-75.46208s44.67741-20.821,63.244-38.86442C701.065,556.18067,686.30053,512.18449,686.30053,512.18449Z"/>
          </g>
          <g>
            <path class="cls-44" d="M607.545,414.575c-9.1529,12.85985-22.79983,53.67861-22.79983,53.67861l-12.03046,13.34666c-8.31795,8.85138,6.71432,23.18014,14.51452,17.95666,0,0,11.36582-5.921,15.96572-10.94557s21.2929-39.82108,22.87769-41.47218l-.33434-11.09292L644.0417,400.182S620.95254,395.73728,607.545,414.575Z"/>
            <path class="cls-17" d="M611.962,471.89557l-6.258-18.97679L599.47119,491.905l.004-.0011a29.04627,29.04627,0,0,0,3.71975-3.29248c1.69528-1.85188,5.03427-7.75077,8.653-14.54056Z"/>
            <ellipse class="cls-45" cx="579.66759" cy="492.08191" rx="8.43509" ry="9.49282" transform="translate(-107.184 165.90095) rotate(-14.92534)"/>
            <path class="cls-46" d="M602.045,497.20881a12.2722,12.2722,0,0,0-1.28341,6.4008c.6156,9.917,9.2882,26.344,29.47818,35.13258,26.27472,11.43747,57.50539,1.00922,60.17037-12.526a123.41578,123.41578,0,0,0,1.06658-15.55274C674.4768,517.37354,610.989,511.769,602.045,497.20881Z"/>
            <path class="cls-47" d="M700.51579,454.779c-.044-7.82245-2.145-18.30359-17.98781-34.40028-8.63582-8.63581-35.23862-29.59186-61.88515-14.48588-3.73768,3.76472-10.61469,13.25465-10.64559,24.093-6.35365,21.6472-4.9593,28.25257-.48028,51.473a135.14327,135.14327,0,0,0-5.31491,23.93166c-2.84076,24.07808,81.91481,36.15681,87.93682,16.6678-.07006-18.24689.45763-25.77659.45763-25.77659l7.71284-38.67222.26758-.98373C700.57226,456.04852,700.55348,455.43105,700.51579,454.779Z"/>
            <path class="cls-48" d="M625.55943,473.93473c-3.2281,14.57593-5.38656,33.0282-7.15011,52.91278"/>
            <path class="cls-17" d="M660.99584,503.402l-15.74141,5.43194a10.604,10.604,0,0,0-6.98666,11.86843c.51389,2.90152,1.00314,5.67012.54077,8.20451,23.18633,5.02682,50.03643,3.8116,53.33033-6.84858-.07006-18.24689.45763-25.77659.45763-25.77659l1.2011-6.022L673.17975,461.5973Z"/>
          </g>
        </g>
        <g>
          <path class="cls-42" d="M577.42388,484.77463s-8.35388.47251-12.211,2.452-7.15584,11.93628-7.15584,11.93628l17.14995,8.8319,8.27138-10.876,2.02807-.99519C589.17085,490.06451,582.55642,484.64566,577.42388,484.77463Z"/>
          <polygon class="cls-40" points="574.886 491.554 565.071 494.83 563.045 498.105 571.866 496.063 574.679 493.278 574.886 491.554"/>
          <g>
            <path class="cls-49" d="M643.80706,523.70413l-23.42856-4.03775-24.42137-20.03859-42.15266,8.93652a2.27853,2.27853,0,0,0-.91287,4.03794l25.02273,19.16418,19.95175,2.31156a25.25779,25.25779,0,0,0,8.1385-.37991l37.84012-8.01144A1.00953,1.00953,0,0,0,643.80706,523.70413Z"/>
            <path class="cls-50" d="M644.07286,520.42576l-.18847-5.82868-21.58121,2.00446-21.61626-18.80649-46.07018,2.22467-.92673,7.73885,26.149,20.943,16.56511,1.6169a4.20606,4.20606,0,0,0,1.27971-.07132Z"/>
            <polygon class="cls-51" points="643.884 514.597 621.957 512.467 601.614 490.056 554.617 500.02 579.493 524.567 596.861 524.553 643.884 514.597"/>
            <path class="cls-42" d="M574.679,493.27778l-5.02206,3.5101c-2.20306,1.77858.42873,4.0726,3.82221,3.09434,3.88714-1.3554,10.26766-4.547,12.96089-6.73665Z"/>
          </g>
          <path class="cls-52" d="M699.81374,450.04679c-5.07389-15.93028-23.95314-6.65169-26.634,11.55055l-5.87115,43.34248-23.63327,7.79674c-9.34432,2.5907-5.77055,22.97793,4.12414,21.961l27.90551-2.27314a20.845,20.845,0,0,0,17.44056-16.949C696.79448,495.02348,702.48071,459.49589,699.81374,450.04679Z"/>
          <ellipse class="cls-45" cx="645.09216" cy="523.59944" rx="5.96413" ry="8.71097" transform="translate(-37.57649 50.03447) rotate(-4.31615)"/>
          <path class="cls-42" d="M641.46355,517.18622l-7.31055-1.72459a17.5454,17.5454,0,0,0-4.74212-.45421l-10.91385.4443c-2.56255.15767-2.6996,3.7725.54248,4.55939l5.72579,1.07206-3.42445,6.14237-3.3373,3.6551-6.62015,1.67313s7.26939,4.21615,12.23426,3.72541c6.757-.66788,18.64932-5.70017,18.64932-5.70017C646.42875,529.54888,646.82555,518.31,641.46355,517.18622Z"/>
        </g>
        <path class="cls-42" d="M642.72642,517.47232l-3.17524-.09582.26489,13.69927,2.60856-.18543C650.37687,530.8287,648.66934,517.3765,642.72642,517.47232Z"/>
      </g>
      <g>
        <path class="cls-53" d="M640.17836,404.67305c-13.44444,19.96035-16.77992,47.44381-15.69411,73.78842l38.32513-50.75707,2.18651-19.44968Z"/>
        <path class="cls-41" d="M636.41254,408.15061c-2.79994,6.51342-.22845,16.14678,1.4449,21.4472,11.76326-.82665,22.44088-7.93339,30.161-15.09484-2.57782-2.24118-7.28089-9.03713-9.50279-9.85324l-14.36237-2.258Z"/>
        <path class="cls-46" d="M624.48427,478.46149s-10.63568-37.911-1.92947-59.878A38.11614,38.11614,0,0,1,642.224,397.88505l6.58091-.609,2.05545,2.59471s-8.19667,2.60777-12.00022,8.06065C624.70708,423.09562,624.48427,478.46149,624.48427,478.46149Z"/>
        <path class="cls-39" d="M639.47709,412.331c.25178,3.21239,2.54606,4.79289,6.25612,5.57133,7.052,1.47966,17.92367-4.44706,17.09391-10.40752l-1.43262-18.12961-19.97912,4.5628Z"/>
        <path class="cls-46" d="M671.96684,415.61372c-.57928-5.90544-3.95181-11.27626-5.74084-13.50709a13.70277,13.70277,0,0,0-4.09129-3.3742l.73847,9.72444c-3.34847,20.45617-23.82465,50.92163-38.38889,70.00461,20.28125-14.63869,34.17008-28.14136,42.75925-43.51283C671.66431,427.03708,672.629,422.36406,671.96684,415.61372Z"/>
      </g>
      <g>
        <path class="cls-54" d="M621.45309,365.38949c-8.04115-.38849-11.32348,9.56837-4.72491,14.50749-1.995,8.37934,7.26226,13.23328,7.26226,13.23328l-.54771-11.61016c.02388-.00264.0472-.00231.071-.00535a8.128,8.128,0,0,0,7.0322-9.093C629.97692,367.969,625.937,365.60616,621.45309,365.38949Z"/>
        <path class="cls-41" d="M642.2799,416.81361c11.14594-3.25287,16.79052-9.67749,16.817-20.34139l.0197-23.05513c.26778-9.30033-8.53006-17.58959-19.332-16.95964-9.44075.55058-18.73,8.92019-18.12511,19.37878a211.75413,211.75413,0,0,0,2.999,23.02368C626.7393,408.98842,632.15067,419.76977,642.2799,416.81361Z"/>
        <path class="cls-55" d="M666.05769,363.55462c.67663-8.3245-7.85546-13.78657-14.52539-10.78586-4.19879-9.14788-18.50624-7.64413-21.71355.06755-7.52959-2.82289-19.66027,5.97711-13.24234,18.25216.87166,2.2448,3.58449,6.0343,8.45456,3.50031.89084,4.43082,9.46763,7.19413,13.37667.52684-.31006,6.90429,8.54355,8.43034,11.78936,5.96955-1.516,6.96474,4.08147,9.404,5.5217,10.38755-.73625,5.65247,4.84033,12.28706,7.39255,12.22517,0,0,1.46513.11651,1.35494-6.39294,1.90146-.86944,1.86243-2.49807,2.77142-5.0818a9.88949,9.88949,0,0,0,.361-5.563,6.42112,6.42112,0,0,0,2.022-10.15191C672.199,372.66166,671.25,365.23556,666.05769,363.55462Z"/>
        <g>
          <path class="cls-56" d="M635.4796,394.4502c-2.00255-1.54829-4.331-2.08953-6.07587-1.41445l-.42781-1.05283c2.11051-.81949,4.86273-.2115,7.18,1.5803Z"/>
          <polygon class="cls-56" points="645.681 395.734 645.135 394.736 657.151 388.37 657.697 389.368 645.681 395.734"/>
          <path class="cls-57" d="M628.61591,395.28533l-7.64228-2.42659a3.06884,3.06884,0,0,1-2.02292-2.07565l-1.0696-3.836a1.11066,1.11066,0,0,1,1.45029-1.35344l7.64228,2.42659a3.06886,3.06886,0,0,1,2.02292,2.07564l1.06959,3.836A1.11066,1.11066,0,0,1,628.61591,395.28533Z"/>
          <path class="cls-57" d="M645.73875,399.53094l-9.44075-2.39782a2.9665,2.9665,0,0,1-2.16-2.04463l-1.10278-3.93536a1.26377,1.26377,0,0,1,1.58938-1.49582l9.44075,2.39782a2.9665,2.9665,0,0,1,2.16005,2.04463l1.10278,3.93535A1.26378,1.26378,0,0,1,645.73875,399.53094Z"/>
        </g>
        <path class="cls-41" d="M657.415,399.82648c3.99952-.5349,6.61943-6.56965,6.01245-11.10811s-5.04736-7.83244-8.21052-5.32711C651.24609,386.53625,653.41544,400.36138,657.415,399.82648Z"/>
      </g>
    </g>
    <g>
      <g>
        <path class="cls-29" d="M666.33551,693.25536l-2.83569,18.96992c0,2.4094-3.35029,4.36246-7.48307,4.36246s-7.48308-1.95306-7.48308-4.36246l-2.782-18.96992Z"/>
        <path class="cls-58" d="M666.33551,693.25536l-2.83569,18.96992c0,2.4094-3.35029,4.36246-7.48307,4.36246s-7.48308-1.95306-7.48308-4.36246l-2.782-18.96992Z"/>
        <ellipse class="cls-31" cx="656.01676" cy="692.63859" rx="10.31868" ry="6.01552"/>
      </g>
      <path class="cls-59" d="M767.47548,637.3909l-2.83568,18.96992c0,2.40939-3.3503,4.36245-7.48308,4.36245s-7.48308-1.95306-7.48308-4.36245l-2.782-18.96992Z"/>
      <g>
        <path class="cls-60" d="M758.83252,525.72157l.00078.00663c4.53941-2.72726,10.86778-2.41254,17.88789,1.6405,13.803,7.96921,24.99259,27.26949,24.99259,43.10847,0,14.65908-9.5907,21.19037-21.96152,15.7679l-4.85119,54.05947a5.49932,5.49932,0,0,1-2.57621,4.62534l.00394.035L663.06313,707.89292,649.749,588.51612Z"/>
        <path class="cls-61" d="M758.83252,525.72157l.00315.00529c4.53917-2.72581,10.86665-2.41053,17.88552,1.64184,13.803,7.96921,24.99259,27.26949,24.99259,43.10847,0,7.75494-2.70162,13.20564-7.0614,15.84483l.01744.02936-110.50676,63.5693L649.749,588.51612Z"/>
        <path class="cls-62" d="M642.63256,601.67124l.00068-.00832.00312-.03487.00175.00124c1.29622-13.69346,11.93009-18.81848,24.85813-11.35447,13.80307,7.9692,24.99266,27.26948,24.99266,43.10842,0,14.65913-9.59081,21.19036-21.96158,15.76789l-4.85117,54.05947c-.43425,4.83857-4.16326,6.56616-8.61954,3.99333l-14.82411-8.55871c-4.16629-2.4054-7.42618-8.40646-7.026-12.934Z"/>
      </g>
    </g>
  </g>
  <path class="cls-63" d="M172.52867,668.92847,406.552,533.86046a9.98062,9.98062,0,0,1,9.99052,0l61.40686,35.51321a4.9903,4.9903,0,0,1,0,8.64061l-234.02333,135.068a9.9806,9.9806,0,0,1-9.99051,0l-61.40687-35.51321A4.99031,4.99031,0,0,1,172.52867,668.92847Z"/>
  <g>
    <path class="cls-64" d="M251.01762,685.78642l-2.65153,19.72343c0,2.43463-3.4342,4.40824-7.67044,4.40824s-7.67023-1.97361-7.67023-4.40824l-2.66263-19.72343Z"/>
    <path class="cls-65" d="M197.0533,654.66152,194.40177,674.385c0,2.43463-3.4342,4.40824-7.67044,4.40824s-7.67023-1.97361-7.67023-4.40824l-2.66263-19.72343Z"/>
    <path class="cls-66" d="M473.28225,557.13225l-2.65153,19.72343c0,2.43462-3.4342,4.40824-7.67044,4.40824s-7.67023-1.97362-7.67023-4.40824l-2.66264-19.72343Z"/>
    <path class="cls-67" d="M174.24527,536.37639V661.73408a4.82753,4.82753,0,0,0,2.41063,4.19861L235.84884,700.157a9.6562,9.6562,0,0,0,4.84137,1.28575V517.98659Z"/>
    <path class="cls-68" d="M240.69021,517.98659V701.4427a9.65665,9.65665,0,0,0,4.84185-1.28575l228.277-131.75353a4.806,4.806,0,0,0,2.431-4.19861V438.84712Z"/>
    <polygon class="cls-69" points="465.387 456.405 465.387 503.361 251.544 626.785 251.544 579.829 465.387 456.405"/>
    <polygon class="cls-70" points="465.387 513.982 465.387 560.955 251.544 684.378 251.544 637.405 465.387 513.982"/>
    <polygon class="cls-71" points="373.737 574.139 373.737 580.848 343.193 598.477 343.193 591.768 373.737 574.139"/>
    <polygon class="cls-71" points="373.737 516.286 373.737 522.996 343.193 540.625 343.193 533.916 373.737 516.286"/>
    <path class="cls-72" d="M480.442,422.996v10.695a4.94379,4.94379,0,0,1-2.49267,4.32031L243.92614,573.07943a9.981,9.981,0,0,1-9.99063,0l-61.4069-35.51329a4.94379,4.94379,0,0,1-2.49267-4.32031V522.83766Z"/>
    <path class="cls-73" d="M172.52867,518.12492,406.552,383.05691a9.98062,9.98062,0,0,1,9.99052,0l61.40686,35.51321a4.9903,4.9903,0,0,1,0,8.6406l-234.02333,135.068a9.98065,9.98065,0,0,1-9.99051,0l-61.40687-35.51322A4.9903,4.9903,0,0,1,172.52867,518.12492Z"/>
  </g>
  <path class="cls-5" d="M920.27489,698.447,842.24715,653.338a8.29355,8.29355,0,0,0-8.30178,0L755.91763,698.447a4.14678,4.14678,0,0,0,0,7.18l78.02774,45.10893a8.29355,8.29355,0,0,0,8.30178,0L920.27489,705.627A4.14677,4.14677,0,0,0,920.27489,698.447Z"/>
  <g>
    <path class="cls-74" d="M829.73077,728.73673l2.14711,15.97127c0,1.97146,2.78088,3.56962,6.21122,3.56962s6.21105-1.59816,6.21105-3.56962l2.1561-15.97127Z"/>
    <path class="cls-75" d="M899.20537,688.64165l2.1471,15.97127c0,1.97146,2.78088,3.56962,6.21122,3.56962s6.21106-1.59816,6.21106-3.56962l2.1561-15.97127Z"/>
    <path class="cls-76" d="M760.90733,688.64165l2.14711,15.97127c0,1.97146,2.78088,3.56962,6.21122,3.56962s6.21106-1.59816,6.21106-3.56962l2.15609-15.97127Z"/>
    <g>
      <path class="cls-77" d="M917.67442,609.12654v85.2422a3.90914,3.90914,0,0,1-1.952,3.39987l-73.70853,42.60482a7.81927,7.81927,0,0,1-3.92035,1.04115v-132.288Z"/>
      <path class="cls-78" d="M838.09351,609.12654v132.288a7.81958,7.81958,0,0,1-3.92074-1.04115l-73.69206-42.60482a3.89169,3.89169,0,0,1-1.96851-3.39987v-85.2422Z"/>
      <polygon class="cls-79" points="832.077 690.494 764.529 651.459 764.552 621.552 832.077 660.6 832.077 690.494"/>
      <polygon class="cls-80" points="807.674 651.809 788.932 640.978 788.938 647.232 807.674 658.067 807.674 651.809"/>
      <polygon class="cls-81" points="832.077 728.99 764.529 689.954 764.552 660.047 832.077 699.095 832.077 728.99"/>
      <polygon class="cls-82" points="807.674 690.304 788.932 679.473 788.938 685.728 807.674 696.562 807.674 690.304"/>
      <path class="cls-83" d="M753.84636,597.15054v9.05987a4.10814,4.10814,0,0,0,2.07133,3.59l78.02761,45.109a8.29391,8.29391,0,0,0,8.30187,0l78.02777-45.109a4.10814,4.10814,0,0,0,2.07133-3.59v-9.05987Z"/>
      <path class="cls-84" d="M920.27489,593.56052l-78.02774-45.10893a8.29355,8.29355,0,0,0-8.30178,0l-78.02774,45.10893a4.14678,4.14678,0,0,0,0,7.18005l78.02774,45.10893a8.29355,8.29355,0,0,0,8.30178,0l78.02774-45.10893A4.14677,4.14677,0,0,0,920.27489,593.56052Z"/>
    </g>
  </g>
  <g>
    <g>
      <g>
        <path class="cls-85" d="M245.35791,115.93175a191.74873,191.74873,0,1,1-74.88721,15.113,191.17963,191.17963,0,0,1,74.88721-15.113m0-17.54224c-115.95068,0-209.94727,93.99659-209.94727,209.94727,0,115.95093,93.99659,209.94751,209.94727,209.94751s209.94727-93.99658,209.94727-209.94751c0-115.95068-93.99659-209.94727-209.94727-209.94727Z"/>
        <circle class="cls-22" cx="245.35783" cy="308.33688" r="194.19259"/>
        <path class="cls-86" d="M138.46094,297.82889l-62.05811,106.291a195.1182,195.1182,0,0,0,73.33936,73.26562c26.82348,14.687,57.11133,23.7461,88.24634,24.99073.42968.01611.85839.03613,1.28881.04931q.96607.0315,1.93384.05127c1.3794.02881,2.76026.05274,4.14673.05274V297.82889Z"/>
        <path class="cls-87" d="M352.5528,297.8291l58.43071,112.40669a194.05962,194.05962,0,0,1-165.32772,92.29368V297.8291Z"/>
        <rect class="cls-88" x="236.18501" y="314.47182" width="18.34563" height="191.19094"/>
      </g>
      <g>
        <circle class="cls-85" cx="425.70747" cy="193.23687" r="62.02326"/>
        <g>
          <rect class="cls-51" x="404.65068" y="184.59464" width="13.46241" height="40.4658" transform="translate(-24.34397 350.88352) rotate(-45)"/>
          <rect class="cls-51" x="430.86151" y="167.41377" width="13.46241" height="60.59444" transform="translate(607.21471 646.93854) rotate(-135)"/>
        </g>
      </g>
    </g>
    <path class="cls-89" d="M335.97515,314.47182H154.74051a16.27413,16.27413,0,0,1-15.95646-19.47393l35.57443-177.39916a16.27412,16.27412,0,0,1,15.95646-13.07433H300.40072a16.27411,16.27411,0,0,1,15.95645,13.07433L351.9316,294.99789A16.27412,16.27412,0,0,1,335.97515,314.47182Z"/>
  </g>
  <g class="cls-90">
    <g>
      <g>
        <path class="cls-91" d="M1927.01456,655.97161l-.00917,191.7938c0,11.47938-4.77306,23.37942-16.30318,30.06174L715.04641,1569.72334a65.622,65.622,0,0,1-33.018,8.77855V1095.23132Z"/>
        <path class="cls-92" d="M682.02846,1095.23132v483.27057a65.17909,65.17909,0,0,1-32.52654-8.77855L-45.24969,1168.62786a32.82916,32.82916,0,0,1-12.1525-12.18529,32.88432,32.88432,0,0,1-4.19284-15.69V946.73973Z"/>
        <g>
          <path class="cls-93" d="M1856.94413,597.56976V720.89564l-.03279-.03279a32.416,32.416,0,0,1-16.27956,29.775L715.03724,1401.30118a65.29281,65.29281,0,0,1-33.018,8.77854L854.41844,682.7022Z"/>
          <path class="cls-94" d="M1856.94413,646.41013V769.736l-.03279-.03279a32.416,32.416,0,0,1-16.27956,29.775L715.03724,1450.14154a65.29282,65.29282,0,0,1-33.018,8.77855L854.41844,731.54256Z"/>
          <path class="cls-95" d="M854.41844,731.54256,682.01928,1458.92009a65.24019,65.24019,0,0,1-32.49375-8.77855L-45.22628,1049.04606a32.46671,32.46671,0,0,1-16.37792-28.39948V894.86422Z"/>
          <path class="cls-96" d="M1856.94413,576.63818V699.96405l-.03279-.03279a32.416,32.416,0,0,1-16.27956,29.775L715.03724,1380.36959a65.29293,65.29293,0,0,1-33.018,8.77855l.31744-160.14872Z"/>
          <path class="cls-97" d="M688.25228,1180.73076l-6.233,208.41738a65.24019,65.24019,0,0,1-32.49375-8.77855L-45.22628,979.2741A32.46668,32.46668,0,0,1-61.6042,950.87463V825.09227Z"/>
          <path class="cls-53" d="M-45.23484,854.81462l694.75069,401.09605a65.51173,65.51173,0,0,0,65.51815-.005L1840.62658,605.24139c21.83314-12.60925,21.832-44.12405-.00213-56.73166L1146.085,147.46324a65.51174,65.51174,0,0,0-65.515-.00189L-45.23542,798.07949C-67.0729,810.68738-67.07258,842.20718-45.23484,854.81462Z"/>
        </g>
      </g>
      <g>
        <path class="cls-53" d="M1084.74212,319.29787c-24.29233,2.18777-71.44181,7.74925-141.772,29.6907-37.48186,11.22367-14.46292,95.5911,17.5347,90.58886l28.83115-4.6951c56.36744-67.49752,112.84178-111.649,168.42594-108.9748C1135.06854,320.04265,1109.03445,317.11011,1084.74212,319.29787Z"/>
        <path class="cls-53" d="M1258.96688,389.51761c-60.3535-51.84859-137.06409-108.86122-220.04017-27.51189-24.43552,32.37638-48.51287,67.66009-72.32084,105.13556l-207.397,56.323C645.1213,593.82638,864.24825,712.51662,965.985,709.19046L1124.511,651.87092l224.207-126.64955C1362.73255,467.59861,1300.02379,424.78885,1258.96688,389.51761Z"/>
        <path class="cls-96" d="M1255.43422,519.31872l-54.7001,39.4226c-62.21986-58.1504-119.62141-97.78459-205.86984-134.885L970.578,460.74191,769.97652,517.83632C645.12106,593.827,864.24859,712.516,965.98512,709.18994l134.97946-78.10249,105.43508-3.04193,21.32053-19.808Z"/>
        <path class="cls-98" d="M598.65725,403.65475l15.27194-8.9861a162.781,162.781,0,0,1,116.00449-19.118c211.549,44.44727,478.27277,178.30147,549.88642,354.71111,52.39973,129.079,58.06975,214.87816,55.9142,258.13937a83.90185,83.90185,0,0,1-23.457,53.9342c-156.20689,162.68592-458.97237,329.36313-627.71127,370.57788a81.94513,81.94513,0,0,1-42.27454-.83818c-288.66558-83.75039-597.30969-272.1393-723.09843-396.44526a83.45629,83.45629,0,0,1-23.00182-76.60712C-95.116,897.75516-79.80037,836.62075-59.7555,802.92715-27.60152,748.87921,598.65725,403.65475,598.65725,403.65475Z"/>
        <path class="cls-99" d="M948.30053,625.52764,985.224,640.77628c7.03116,2.90351,17.05561,5.42935,24.72711,5.26926l36.50163-2.24922c36.48615,34.78385,126.13563,117.08983,159.9775,119.50755,21.08392,1.50591,44.64326-26.47182,63.16791-55.3455-14.38-28.29046-33.69993-55.38523-56.87892-81.07859L1199.677,659.91l-139.02577-70.37788-18.50613-15.1812a47.05,47.05,0,0,0-20.4069-10.94982l-34.25164-9.82655a9.22681,9.22681,0,0,0-11.01572,6.14114c-1.36684,4.26672,3.96068,10.384,7.92767,12.46891l-37.31389,4.01819a11.36962,11.36962,0,0,0-11.964,12.05323l1.2719,20.60634A19.31839,19.31839,0,0,0,948.30053,625.52764Z"/>
        <path class="cls-99" d="M866.58694,530.1352l22.33864,34.30494a59.42831,59.42831,0,0,0,23.04927,19.642l29.50542,14.18152a17.91807,17.91807,0,0,0,19.70314-2.78985l14.40465-12.87333a21.05626,21.05626,0,0,0,3.76794-26.95093l-20.75994-32.84009a46.7892,46.7892,0,0,0-28.56554-20.48332l-23.08289-4.80028-4.9959-44.44649,36.68292-10.28674c-33.24891-14.43751-67.02889-27.187-100.50092-38.10191-24.77163,12.30405-44.09346,26.01181-42.63015,38.42131C799.02011,472.943,849.55827,520.349,866.58694,530.1352Z"/>
        <g>
          <path class="cls-100" d="M886.23614,522.43937l36.58874-32.02887,27.88306,5.79855a46.79419,46.79419,0,0,1,28.56549,20.48259l20.75958,32.84129a21.05637,21.05637,0,0,1-3.76748,26.9511l-14.40474,12.8733a17.91924,17.91924,0,0,1-19.70369,2.78922L932.65256,577.9645A59.41941,59.41941,0,0,1,909.603,558.32309Z"/>
          <path class="cls-96" d="M1044.65859,376.95529c-22.119,22.47269-50.13626,50.93839-57.33717,58.25545l-23.44793,3.81811Z"/>
          <ellipse class="cls-43" cx="953.41936" cy="395.44624" rx="27.52072" ry="40.17699" transform="translate(-62.52906 213.14151) rotate(-12.35397)"/>
          <path class="cls-41" d="M851.02642,391.39123c-27.55923,13.1387-37.86267,27.73871-34.84579,45.60363,5.00165,29.61811,70.05551,85.44451,70.05551,85.44451l36.58874-32.02887-23.86683-44.884L956.032,431.74784c36.30789-6.20369,16.32549-76.07678-13.41794-71.30179C942.614,360.44605,901.57013,367.29481,851.02642,391.39123Z"/>
          <path class="cls-41" d="M887.26434,524.018l22.3387,34.30494a59.41746,59.41746,0,0,0,23.04928,19.6418l29.50482,14.18169a17.91814,17.91814,0,0,0,19.70358-2.78972l14.40492-12.87317a21.05677,21.05677,0,0,0,3.7676-26.951l-20.76007-32.8407a46.791,46.791,0,0,0-28.56556-20.48279l-23.0822-4.8005C896.86839,482.87927,882.04312,515.23378,887.26434,524.018Z"/>
          <path class="cls-39" d="M1000.03324,549.53256l-12.71171-20.10933-8.40006-2.40924a9.22671,9.22671,0,0,0-11.0157,6.141h0c-1.36678,4.26672,3.96065,10.3839,7.92762,12.46883l-37.3138,4.01821a11.36884,11.36884,0,0,0-11.96339,12.05324l.82414,13.36317a59.62046,59.62046,0,0,0,5.272,2.90625l29.50482,14.18169a17.91814,17.91814,0,0,0,19.70358-2.78972l14.40492-12.87317A21.05677,21.05677,0,0,0,1000.03324,549.53256Z"/>
          <path class="cls-41" d="M957.277,498.31968l36.92825,14.68155c10.62433,4.27737,3.63978,15.3247-4.2871,13.546L979.91657,524.33Z"/>
        </g>
        <path class="cls-41" d="M1042.14512,551.34848a47.05233,47.05233,0,0,0-20.407-10.95068l-34.25173-9.826a9.22756,9.22756,0,0,0-11.01586,6.1404l0,0c-1.36657,4.26744,3.96106,10.38523,7.92807,12.46884l9.77694-1.053-47.09067,5.07159a11.36948,11.36948,0,0,0-11.96387,12.0531l1.27171,20.6064a19.31854,19.31854,0,0,0,11.908,16.66594l36.92338,15.248c7.031,2.90354,17.05572,5.42959,24.72684,5.26933l44.88532-2.76529,16.86968-44.67958Z"/>
      </g>
    </g>
  </g>
</svg>
