<svg id="Layer_1" data-name="Layer 1" xmlns="http://www.w3.org/2000/svg" xmlns:xlink="http://www.w3.org/1999/xlink" viewBox="0 0 1000 1000">
  <defs>
    <style>
      .cls-1 {
        fill: url(#linear-gradient);
      }

      .cls-2 {
        fill: #b8cbd8;
      }

      .cls-3 {
        fill: url(#linear-gradient-2);
      }

      .cls-4 {
        fill: url(#linear-gradient-3);
      }

      .cls-5 {
        fill: url(#linear-gradient-4);
      }

      .cls-6 {
        fill: url(#linear-gradient-5);
      }

      .cls-7 {
        fill: url(#linear-gradient-6);
      }

      .cls-8 {
        fill: url(#linear-gradient-7);
      }

      .cls-9 {
        fill: url(#linear-gradient-8);
      }

      .cls-10 {
        fill: url(#linear-gradient-9);
      }

      .cls-11 {
        fill: url(#linear-gradient-10);
      }

      .cls-12 {
        fill: #2a3f5e;
        opacity: 0.2;
      }

      .cls-13 {
        fill: url(#linear-gradient-11);
      }

      .cls-14 {
        fill: #e58630;
      }

      .cls-15 {
        fill: url(#linear-gradient-12);
      }

      .cls-16 {
        fill: url(#linear-gradient-13);
      }

      .cls-17 {
        fill: url(#linear-gradient-14);
      }

      .cls-18 {
        fill: url(#linear-gradient-15);
      }

      .cls-19 {
        fill: url(#linear-gradient-16);
      }

      .cls-20 {
        fill: url(#linear-gradient-17);
      }

      .cls-21 {
        fill: url(#linear-gradient-18);
      }

      .cls-22 {
        fill: url(#linear-gradient-19);
      }

      .cls-23 {
        fill: #541510;
        opacity: 0.3;
      }

      .cls-24 {
        fill: url(#linear-gradient-20);
      }

      .cls-25 {
        fill: url(#linear-gradient-21);
      }

      .cls-26 {
        fill: #bcd0e2;
      }

      .cls-27 {
        fill: #e9f1f4;
      }

      .cls-28 {
        fill: url(#linear-gradient-22);
      }

      .cls-29 {
        fill: #606060;
      }

      .cls-30 {
        fill: url(#linear-gradient-23);
      }

      .cls-31 {
        fill: url(#linear-gradient-24);
      }

      .cls-32 {
        fill: #f0f9fc;
      }

      .cls-33 {
        fill: url(#linear-gradient-25);
      }

      .cls-34 {
        fill: url(#linear-gradient-26);
      }

      .cls-35 {
        fill: url(#linear-gradient-27);
      }

      .cls-36 {
        fill: url(#linear-gradient-28);
      }

      .cls-37 {
        fill: url(#linear-gradient-29);
      }

      .cls-38 {
        fill: url(#linear-gradient-30);
      }

      .cls-39 {
        fill: url(#linear-gradient-31);
      }

      .cls-40 {
        fill: url(#linear-gradient-32);
      }

      .cls-41 {
        fill: url(#linear-gradient-33);
      }

      .cls-42 {
        fill: #d7ebf4;
      }

      .cls-43 {
        fill: #7995a8;
      }

      .cls-44 {
        fill: url(#linear-gradient-34);
      }

      .cls-45 {
        fill: url(#linear-gradient-35);
      }

      .cls-46 {
        fill: url(#linear-gradient-36);
      }

      .cls-47 {
        fill: #ffcb48;
      }

      .cls-48 {
        fill: url(#linear-gradient-37);
      }

      .cls-49, .cls-53 {
        fill: #dd7b19;
      }

      .cls-49 {
        opacity: 0.5;
      }

      .cls-50 {
        fill: #93514c;
      }

      .cls-51 {
        fill: #27343d;
      }

      .cls-52 {
        fill: #303d49;
      }

      .cls-54 {
        fill: url(#linear-gradient-38);
      }

      .cls-55 {
        fill: none;
        stroke: #dd7b19;
        stroke-miterlimit: 10;
        stroke-width: 1.89836px;
      }

      .cls-56 {
        fill: url(#linear-gradient-39);
      }

      .cls-57 {
        fill: #404e59;
      }

      .cls-58 {
        fill: url(#linear-gradient-40);
      }

      .cls-59 {
        fill: url(#linear-gradient-41);
      }

      .cls-60 {
        fill: url(#linear-gradient-42);
      }

      .cls-61 {
        fill: url(#linear-gradient-43);
      }

      .cls-62 {
        fill: url(#linear-gradient-44);
      }

      .cls-63 {
        fill: url(#linear-gradient-45);
      }

      .cls-64 {
        fill: url(#linear-gradient-46);
      }

      .cls-65 {
        fill: url(#linear-gradient-47);
      }

      .cls-66 {
        fill: url(#linear-gradient-48);
      }

      .cls-67 {
        fill: url(#linear-gradient-49);
      }

      .cls-68 {
        fill: url(#linear-gradient-50);
      }

      .cls-69 {
        fill: url(#linear-gradient-51);
      }

      .cls-70 {
        fill: url(#linear-gradient-52);
      }

      .cls-71 {
        fill: url(#linear-gradient-53);
      }

      .cls-72 {
        fill: url(#linear-gradient-54);
      }

      .cls-73 {
        fill: url(#linear-gradient-55);
      }

      .cls-74 {
        fill: url(#linear-gradient-56);
      }

      .cls-75 {
        fill: url(#linear-gradient-57);
      }

      .cls-76 {
        fill: url(#linear-gradient-58);
      }

      .cls-77 {
        fill: url(#linear-gradient-59);
      }

      .cls-78 {
        fill: url(#linear-gradient-60);
      }

      .cls-79 {
        fill: url(#linear-gradient-61);
      }

      .cls-80 {
        fill: #724133;
      }

      .cls-81 {
        fill: url(#linear-gradient-62);
      }

      .cls-82 {
        fill: url(#linear-gradient-63);
      }

      .cls-83 {
        fill: url(#linear-gradient-64);
      }

      .cls-84 {
        fill: url(#linear-gradient-65);
      }

      .cls-85 {
        fill: url(#linear-gradient-66);
      }

      .cls-86 {
        fill: url(#linear-gradient-67);
      }

      .cls-87 {
        fill: url(#linear-gradient-68);
      }
    </style>
    <linearGradient id="linear-gradient" x1="499.99188" y1="393.55996" x2="921.27857" y2="393.55996" gradientUnits="userSpaceOnUse">
      <stop offset="0" stop-color="#f0f9ff"/>
      <stop offset="1" stop-color="#c3d6e6"/>
    </linearGradient>
    <linearGradient id="linear-gradient-2" x1="541.30297" y1="293.78781" x2="596.5573" y2="293.78781" gradientUnits="userSpaceOnUse">
      <stop offset="0" stop-color="#3e4c59"/>
      <stop offset="1" stop-color="#293440"/>
    </linearGradient>
    <linearGradient id="linear-gradient-3" x1="549.66476" y1="293.79009" x2="588.18656" y2="293.79009" gradientUnits="userSpaceOnUse">
      <stop offset="0" stop-color="#5b6f82"/>
      <stop offset="1" stop-color="#849bb2"/>
    </linearGradient>
    <linearGradient id="linear-gradient-4" x1="582.17955" y1="170.55047" x2="547.6611" y2="419.32137" gradientUnits="userSpaceOnUse">
      <stop offset="0" stop-color="#62778c"/>
      <stop offset="1" stop-color="#435466"/>
    </linearGradient>
    <linearGradient id="linear-gradient-5" x1="613.08527" y1="153.80842" x2="515.94761" y2="439.92298" xlink:href="#linear-gradient-3"/>
    <linearGradient id="linear-gradient-6" x1="833.08744" y1="466.82722" x2="888.34177" y2="466.82722" xlink:href="#linear-gradient-2"/>
    <linearGradient id="linear-gradient-7" x1="841.44923" y1="466.82951" x2="879.97103" y2="466.82951" xlink:href="#linear-gradient-3"/>
    <linearGradient id="linear-gradient-8" x1="872.85407" y1="326.2351" x2="843.12482" y2="586.66328" xlink:href="#linear-gradient-4"/>
    <linearGradient id="linear-gradient-9" x1="905.95945" y1="330.37886" x2="808.74588" y2="603.46061" xlink:href="#linear-gradient-3"/>
    <linearGradient id="linear-gradient-10" x1="78.72143" y1="719.89267" x2="921.27857" y2="719.89267" gradientUnits="userSpaceOnUse">
      <stop offset="0" stop-color="#dae9f2"/>
      <stop offset="0.99337" stop-color="#c4d5e6"/>
    </linearGradient>
    <linearGradient id="linear-gradient-11" x1="662.22376" y1="828.69886" x2="1046.6433" y2="797.49382" gradientTransform="translate(-293.19035)" gradientUnits="userSpaceOnUse">
      <stop offset="0.00005" stop-color="#ffb348"/>
      <stop offset="1" stop-color="#e68e2b"/>
    </linearGradient>
    <linearGradient id="linear-gradient-12" x1="-3454.59234" y1="599.50938" x2="-3431.33598" y2="599.50938" gradientTransform="matrix(-1, 0, 0, 1, -3145.33118, 0)" xlink:href="#linear-gradient-2"/>
    <linearGradient id="linear-gradient-13" x1="-3959.11002" y1="652.65382" x2="-3935.85366" y2="652.65382" gradientTransform="matrix(-1, 0, 0, 1, -3145.33118, 0)" xlink:href="#linear-gradient-2"/>
    <linearGradient id="linear-gradient-14" x1="-3753.97962" y1="772.95919" x2="-3730.72325" y2="772.95919" gradientTransform="matrix(-1, 0, 0, 1, -3145.33118, 0)" xlink:href="#linear-gradient-2"/>
    <linearGradient id="linear-gradient-15" x1="-3671.61731" y1="344.5123" x2="-3206.36706" y2="577.75611" gradientTransform="matrix(-1, 0, 0, 1, -3145.33118, 0)" xlink:href="#linear-gradient-2"/>
    <linearGradient id="linear-gradient-16" x1="-3654.54491" y1="278.02588" x2="-3454.71003" y2="539.72914" gradientTransform="matrix(-1, 0, 0, 1, -3145.33118, 0)" gradientUnits="userSpaceOnUse">
      <stop offset="0" stop-color="#62788c"/>
      <stop offset="1" stop-color="#526575"/>
    </linearGradient>
    <linearGradient id="linear-gradient-17" x1="-3661.53423" y1="292.40282" x2="-3456.74988" y2="559.05556" gradientTransform="matrix(-1, 0, 0, 1, -3145.33118, 0)" gradientUnits="userSpaceOnUse">
      <stop offset="0" stop-color="#849bb2"/>
      <stop offset="1" stop-color="#5b6f82"/>
    </linearGradient>
    <linearGradient id="linear-gradient-18" x1="-3842.25558" y1="581.96609" x2="-3403.29939" y2="699.82536" gradientTransform="matrix(-1, 0, 0, 1, -3145.33118, 0)" xlink:href="#linear-gradient-4"/>
    <linearGradient id="linear-gradient-19" x1="-3960.19698" y1="539.31831" x2="-3561.76459" y2="792.97868" xlink:href="#linear-gradient-16"/>
    <linearGradient id="linear-gradient-20" x1="-3946.63573" y1="613.20591" x2="-3380.54001" y2="643.83076" gradientTransform="matrix(-1, 0, 0, 1, -3145.33118, 0)" xlink:href="#linear-gradient-2"/>
    <linearGradient id="linear-gradient-21" x1="-3947.7479" y1="633.7643" x2="-3381.65219" y2="664.38915" gradientTransform="matrix(-1, 0, 0, 1, -3145.33118, 0)" xlink:href="#linear-gradient-2"/>
    <linearGradient id="linear-gradient-22" x1="484.16621" y1="496.42039" x2="764.42999" y2="632.84018" gradientUnits="userSpaceOnUse">
      <stop offset="0" stop-color="#ffcb48"/>
      <stop offset="0.99366" stop-color="#eb9e2f"/>
    </linearGradient>
    <linearGradient id="linear-gradient-23" x1="-3674.31599" y1="332.55426" x2="-3418.32467" y2="332.55426" xlink:href="#linear-gradient-16"/>
    <linearGradient id="linear-gradient-24" x1="-3650.68834" y1="244.2675" x2="-3418.06321" y2="416.8803" xlink:href="#linear-gradient-17"/>
    <linearGradient id="linear-gradient-25" x1="231.30944" y1="706.98281" x2="249.69873" y2="706.98281" xlink:href="#linear-gradient-2"/>
    <linearGradient id="linear-gradient-26" x1="183.26425" y1="679.27188" x2="201.65354" y2="679.27188" xlink:href="#linear-gradient-2"/>
    <linearGradient id="linear-gradient-27" x1="308.80121" y1="661.92199" x2="327.1905" y2="661.92199" xlink:href="#linear-gradient-2"/>
    <linearGradient id="linear-gradient-28" x1="-3115.13214" y1="580.27671" x2="-3054.11445" y2="682.82355" gradientTransform="matrix(-1, 0, 0, 1, -2870.63394, 0)" xlink:href="#linear-gradient-2"/>
    <linearGradient id="linear-gradient-29" x1="-3241.26221" y1="448.5162" x2="-3113.19465" y2="679.59462" gradientTransform="matrix(-1, 0, 0, 1, -2870.63394, 0)" xlink:href="#linear-gradient-4"/>
    <linearGradient id="linear-gradient-30" x1="-3207.03305" y1="467.14309" x2="-3125.36678" y2="683.06376" gradientTransform="matrix(-1, 0, 0, 1, -2870.63394, 0)" xlink:href="#linear-gradient-17"/>
    <linearGradient id="linear-gradient-31" x1="-3223.99731" y1="473.55938" x2="-3142.33104" y2="689.48004" gradientTransform="matrix(-1, 0, 0, 1, -2870.63394, 0)" xlink:href="#linear-gradient-17"/>
    <linearGradient id="linear-gradient-32" x1="-3201.38747" y1="564.8534" x2="-3051.04491" y2="564.8534" gradientTransform="matrix(-1, 0, 0, 1, -2870.63394, 0)" xlink:href="#linear-gradient-16"/>
    <linearGradient id="linear-gradient-33" x1="-3201.38754" y1="539.99011" x2="-3051.04496" y2="539.99011" gradientTransform="matrix(-1, 0, 0, 1, -2870.63394, 0)" xlink:href="#linear-gradient-17"/>
    <linearGradient id="linear-gradient-34" x1="-3155.34913" y1="445.67754" x2="-3089.6913" y2="506.69524" gradientTransform="matrix(-1, 0, 0, 1, -2870.63394, 0)" gradientUnits="userSpaceOnUse">
      <stop offset="0.00005" stop-color="#ffcb48"/>
      <stop offset="1" stop-color="#e68e2b"/>
    </linearGradient>
    <linearGradient id="linear-gradient-35" x1="-3131.46275" y1="461.05952" x2="-3111.27757" y2="461.05952" gradientTransform="matrix(-1, 0, 0, 1, -2870.63394, 0)" xlink:href="#linear-gradient-2"/>
    <linearGradient id="linear-gradient-36" x1="-3131.46274" y1="456.52413" x2="-3111.27746" y2="456.52413" gradientTransform="matrix(-1, 0, 0, 1, -2870.63394, 0)" xlink:href="#linear-gradient-4"/>
    <linearGradient id="linear-gradient-37" x1="420.63881" y1="469.76522" x2="495.67567" y2="597.71268" gradientTransform="matrix(1, 0, 0, 1, 0, 0)" xlink:href="#linear-gradient-34"/>
    <linearGradient id="linear-gradient-38" x1="454.97247" y1="450.01267" x2="528.2944" y2="575.03597" gradientTransform="matrix(1, 0, 0, 1, 0, 0)" xlink:href="#linear-gradient-34"/>
    <linearGradient id="linear-gradient-39" x1="470.3473" y1="439.33936" x2="544.23952" y2="565.33507" gradientTransform="matrix(1, 0, 0, 1, 0, 0)" xlink:href="#linear-gradient-34"/>
    <linearGradient id="linear-gradient-40" x1="472.143" y1="395.03477" x2="492.49987" y2="449.80445" gradientUnits="userSpaceOnUse">
      <stop offset="0.00005" stop-color="#c6bfbc"/>
      <stop offset="1" stop-color="#a6948d"/>
    </linearGradient>
    <linearGradient id="linear-gradient-41" x1="490.53117" y1="388.20023" x2="510.88804" y2="442.96992" xlink:href="#linear-gradient-40"/>
    <linearGradient id="linear-gradient-42" x1="-3365.72102" y1="206.28378" x2="-3323.42228" y2="206.28378" gradientTransform="matrix(-1, 0, 0, 1, -2898.80417, 0)" gradientUnits="userSpaceOnUse">
      <stop offset="0" stop-color="#435466"/>
      <stop offset="1" stop-color="#62778c"/>
    </linearGradient>
    <linearGradient id="linear-gradient-43" x1="-3352.49377" y1="171.22904" x2="-3327.02202" y2="240.73669" gradientTransform="matrix(-1, 0, 0, 1, -2898.80417, 0)" gradientUnits="userSpaceOnUse">
      <stop offset="0" stop-color="#fff"/>
      <stop offset="0.98888" stop-color="#e6edf2"/>
    </linearGradient>
    <linearGradient id="linear-gradient-44" x1="-3374.29484" y1="179.15817" x2="-3223.62298" y2="316.66243" gradientTransform="matrix(-1, 0, 0, 1, -2898.80417, 0)" xlink:href="#linear-gradient-17"/>
    <linearGradient id="linear-gradient-45" x1="-3373.9759" y1="168.07889" x2="-3227.47739" y2="299.61095" gradientTransform="matrix(-1, 0, 0, 1, -2898.80417, 0)" xlink:href="#linear-gradient-4"/>
    <linearGradient id="linear-gradient-46" x1="-3361.39176" y1="154.06286" x2="-3214.89325" y2="285.59492" gradientTransform="matrix(-1, 0, 0, 1, -2898.80417, 0)" xlink:href="#linear-gradient-4"/>
    <linearGradient id="linear-gradient-47" x1="-3309.91878" y1="264.78071" x2="-3267.62004" y2="264.78071" xlink:href="#linear-gradient-42"/>
    <linearGradient id="linear-gradient-48" x1="-3299.86599" y1="228.71065" x2="-3268.52112" y2="298.95061" xlink:href="#linear-gradient-43"/>
    <linearGradient id="linear-gradient-49" x1="-3378.06476" y1="183.28911" x2="-3227.39291" y2="320.79336" gradientTransform="matrix(-1, 0, 0, 1, -2898.80417, 0)" xlink:href="#linear-gradient-17"/>
    <linearGradient id="linear-gradient-50" x1="-3378.1494" y1="172.72727" x2="-3231.65089" y2="304.25934" gradientTransform="matrix(-1, 0, 0, 1, -2898.80417, 0)" xlink:href="#linear-gradient-4"/>
    <linearGradient id="linear-gradient-51" x1="-3365.56526" y1="158.71124" x2="-3219.06675" y2="290.24331" gradientTransform="matrix(-1, 0, 0, 1, -2898.80417, 0)" xlink:href="#linear-gradient-4"/>
    <linearGradient id="linear-gradient-52" x1="-3254.11655" y1="255.09787" x2="-3211.81781" y2="255.09787" xlink:href="#linear-gradient-42"/>
    <linearGradient id="linear-gradient-53" x1="-3244.06375" y1="219.02781" x2="-3212.71888" y2="289.26777" xlink:href="#linear-gradient-43"/>
    <linearGradient id="linear-gradient-54" x1="-3347.88685" y1="150.22132" x2="-3197.21499" y2="287.72557" gradientTransform="matrix(-1, 0, 0, 1, -2898.80417, 0)" xlink:href="#linear-gradient-17"/>
    <linearGradient id="linear-gradient-55" x1="-3348.43001" y1="139.62624" x2="-3201.93149" y2="271.1583" gradientTransform="matrix(-1, 0, 0, 1, -2898.80417, 0)" xlink:href="#linear-gradient-4"/>
    <linearGradient id="linear-gradient-56" x1="-3335.84587" y1="125.61021" x2="-3189.34735" y2="257.14227" gradientTransform="matrix(-1, 0, 0, 1, -2898.80417, 0)" xlink:href="#linear-gradient-4"/>
    <linearGradient id="linear-gradient-57" x1="-3954.9779" y1="477.67437" x2="-3899.72357" y2="477.67437" gradientTransform="matrix(-1, 0, 0, 1, -3798.80417, 0)" xlink:href="#linear-gradient-2"/>
    <linearGradient id="linear-gradient-58" x1="-3946.61612" y1="477.67665" x2="-3908.09431" y2="477.67665" gradientTransform="matrix(-1, 0, 0, 1, -3798.80417, 0)" xlink:href="#linear-gradient-3"/>
    <linearGradient id="linear-gradient-59" x1="-3914.10132" y1="354.43703" x2="-3948.61977" y2="603.20793" gradientTransform="matrix(-1, 0, 0, 1, -3798.80417, 0)" xlink:href="#linear-gradient-4"/>
    <linearGradient id="linear-gradient-60" x1="-3883.19561" y1="337.69498" x2="-3980.33326" y2="623.80953" gradientTransform="matrix(-1, 0, 0, 1, -3798.80417, 0)" xlink:href="#linear-gradient-3"/>
    <linearGradient id="linear-gradient-61" x1="2664.19908" y1="664.4371" x2="2605.76044" y2="726.44241" gradientTransform="matrix(-1, 0, 0, 1, 2794.85556, 0)" xlink:href="#linear-gradient-34"/>
    <linearGradient id="linear-gradient-62" x1="2589.00977" y1="597.77203" x2="2625.22526" y2="617.52594" gradientTransform="matrix(-1, 0, 0, 1, 2794.85556, 0)" gradientUnits="userSpaceOnUse">
      <stop offset="0" stop-color="#f2883c"/>
      <stop offset="0.16716" stop-color="#e97d35"/>
      <stop offset="0.67368" stop-color="#d26124"/>
      <stop offset="0.96784" stop-color="#c9571e"/>
    </linearGradient>
    <linearGradient id="linear-gradient-63" x1="2608.78515" y1="552.73849" x2="2633.66043" y2="600.47709" xlink:href="#linear-gradient-62"/>
    <linearGradient id="linear-gradient-64" x1="2668.38738" y1="628.87897" x2="2638.2078" y2="648.08415" xlink:href="#linear-gradient-62"/>
    <linearGradient id="linear-gradient-65" x1="2588.27708" y1="620.72375" x2="2628.33361" y2="637.36824" xlink:href="#linear-gradient-62"/>
    <linearGradient id="linear-gradient-66" x1="2602.94211" y1="570.92651" x2="2623.06183" y2="607.32491" xlink:href="#linear-gradient-62"/>
    <linearGradient id="linear-gradient-67" x1="2694.94026" y1="579.17893" x2="2644.27515" y2="624.72266" xlink:href="#linear-gradient-62"/>
    <linearGradient id="linear-gradient-68" x1="2666.71634" y1="554.76501" x2="2642.75558" y2="596.6506" xlink:href="#linear-gradient-62"/>
  </defs>
  <g>
    <polygon class="cls-1" points="499.992 67.227 921.279 310.448 921.279 719.893 499.992 476.649 499.992 67.227"/>
    <polygon class="cls-2" points="500.008 67.227 78.721 310.448 78.721 719.893 500.008 476.649 500.008 67.227"/>
  </g>
  <g>
    <g>
      <path class="cls-3" d="M541.303,141.696l8.36179-4.82605,46.89254,27.0428L588.18656,443.736l.00008,6.96969L541.303,423.64812Z"/>
      <polygon class="cls-4" points="549.665 146.521 549.693 418.847 588.187 441.059 588.187 436.216 553.907 416.445 553.907 148.971 549.665 146.521"/>
      <polygon class="cls-5" points="541.303 141.696 541.307 423.652 588.187 450.706 588.187 441.059 549.665 418.83 549.665 146.521 541.303 141.696"/>
      <path class="cls-6" d="M596.5573,163.9127l-63.62862-36.72922V428.49l63.62862,36.72333ZM541.307,423.65181V141.69567l46.87963,27.05877V450.70572Z"/>
    </g>
    <g>
      <path class="cls-7" d="M833.08744,314.73537l8.36179-4.82606,46.89254,27.0428L879.971,616.77544l.00008,6.9697-46.88367-27.05761Z"/>
      <polygon class="cls-8" points="841.449 319.561 841.477 591.886 879.971 614.098 879.971 609.255 845.691 589.484 845.691 322.01 841.449 319.561"/>
      <polygon class="cls-9" points="833.087 314.735 833.092 596.691 879.971 623.745 879.971 614.098 841.449 591.87 841.449 319.561 833.087 314.735"/>
      <path class="cls-10" d="M888.34177,336.95211l-63.62862-36.72922v301.3065l63.62862,36.72334ZM833.09148,596.69122V314.73509l46.87963,27.05877V623.74514Z"/>
    </g>
  </g>
  <path class="cls-11" d="M85.9912,732.49667l392.2106,226.4329a43.61718,43.61718,0,0,0,43.61686-.00063l392.1905-226.4365a14.53907,14.53907,0,0,0,.00018-25.18216L521.80168,480.8567a43.61723,43.61723,0,0,0-43.62.00054L85.99035,707.31448A14.53907,14.53907,0,0,0,85.9912,732.49667Z"/>
  <path class="cls-12" d="M182.58514,685.06883l83.72156-48.32451a8.7051,8.7051,0,0,1,8.71373,0l53.55906,30.97462a4.35255,4.35255,0,0,1,0,7.53634l-83.72157,48.32451a8.70508,8.70508,0,0,1-8.71372,0l-53.55906-30.97462A4.35255,4.35255,0,0,1,182.58514,685.06883Z"/>
  <path class="cls-12" d="M819.90088,672.414,606.5725,795.57353a20.11586,20.11586,0,0,1-20.11783-.00154L240.83309,595.78068a10.05793,10.05793,0,0,1,.00065-17.41988L454.09725,455.2165a20.11586,20.11586,0,0,1,20.11688-.00059L819.90105,654.99306A10.05793,10.05793,0,0,1,819.90088,672.414Z"/>
  <path class="cls-13" d="M439.228,751.83581,368.12547,792.8929a7.26954,7.26954,0,0,0,0,12.59074L508.8512,886.74377a21.8086,21.8086,0,0,0,21.81413-.00178l71.06038-41.04834a7.26954,7.26954,0,0,0,0-12.58955L461.04213,751.8376A21.80863,21.80863,0,0,0,439.228,751.83581Z"/>
  <ellipse class="cls-14" cx="484.92507" cy="820.60717" rx="64.35396" ry="36.98503"/>
  <g>
    <g>
      <path class="cls-15" d="M309.26117,586.3285l-3.20386,21.4329c0,2.72222-3.78529,4.92886-8.45465,4.92886s-8.45465-2.20664-8.45465-4.92886l-3.14321-21.4329Z"/>
      <path class="cls-16" d="M813.77885,639.47294l-3.20386,21.4329c0,2.72222-3.78529,4.92886-8.45465,4.92886s-8.45465-2.20664-8.45465-4.92886l-3.14321-21.4329Z"/>
      <path class="cls-17" d="M608.64844,759.77831l-3.20386,21.4329c0,2.72222-3.78528,4.92886-8.45465,4.92886s-8.45464-2.20664-8.45464-4.92886l-3.14321-21.4329Z"/>
      <polygon class="cls-18" points="279.849 529.781 279.849 386.92 300.57 398.922 300.57 538.809 279.849 529.781"/>
      <g>
        <polygon class="cls-19" points="522.085 267.98 522.085 413.513 300.57 528.489 300.57 398.922 522.085 267.98"/>
        <polygon class="cls-20" points="508.171 276.246 508.171 464.932 317.656 529.979 317.656 388.863 508.171 276.246"/>
        <path class="cls-21" d="M279.84929,529.78137l.00271,56.71468a9.96213,9.96213,0,0,0,4.821,8.88945L587.25663,770.36332a19.40485,19.40485,0,0,0,9.76363,2.59587V567.33256Z"/>
        <path class="cls-22" d="M597.02026,567.33256V772.95919a19.27383,19.27383,0,0,0,9.61831-2.59587L812.08116,651.75676a9.56675,9.56675,0,0,0,4.83343-8.2429V586.143Z"/>
        <g>
          <path class="cls-23" d="M300.56957,512.51156v36.46827l.0097-.00969a9.58563,9.58563,0,0,0,4.814,8.80465l281.86611,162.785a19.30751,19.30751,0,0,0,9.76362,2.59588V537.68578Z"/>
          <path class="cls-24" d="M300.56957,526.954v36.46827l.0097-.0097a9.58561,9.58561,0,0,0,4.814,8.80465l281.86611,162.785a19.3075,19.3075,0,0,0,9.76362,2.59587V552.1282Z"/>
          <path class="cls-25" d="M597.023,552.1282V737.59807a19.2919,19.2919,0,0,0,9.60862-2.59587L812.07424,616.39564a9.60061,9.60061,0,0,0,4.84306-8.39791V570.80307Z"/>
          <path class="cls-14" d="M392.63361,514.128v87.83419L587.2574,714.36731a19.30148,19.30148,0,0,0,9.75912,2.59884v-185.464Z"/>
          <path class="cls-26" d="M300.56511,506.31325v36.4749h.01819a9.58031,9.58031,0,0,0,4.81589,8.79608l87.23442,50.37794V514.128Z"/>
          <path class="cls-14" d="M597.023,531.49617V716.96605a19.292,19.292,0,0,0,9.60862-2.59587L812.07424,595.76362a9.60061,9.60061,0,0,0,4.84306-8.39791V550.171Z"/>
          <path class="cls-27" d="M812.07677,558.96014,606.63445,677.56686a19.37228,19.37228,0,0,1-19.37415-.00148L305.39478,514.78011a9.68611,9.68611,0,0,1,.00063-16.77592L510.77526,379.41212a19.37224,19.37224,0,0,1,19.37322-.00056L812.07694,542.18319A9.68612,9.68612,0,0,1,812.07677,558.96014Z"/>
          <path class="cls-28" d="M395.57444,562.611,616.43537,435.08a20.74246,20.74246,0,0,1,6.14122-2.305L812.077,542.18315a9.6861,9.6861,0,0,1-.00044,16.777l-205.442,118.60669a19.37186,19.37186,0,0,1-19.374-.00144l-194.63489-112.407A10.41127,10.41127,0,0,1,395.57444,562.611Z"/>
        </g>
        <polygon class="cls-29" points="503.889 257.46 279.849 386.92 300.57 398.922 522.085 267.98 503.889 257.46"/>
        <path class="cls-30" d="M272.99349,385.95619,528.98481,257.4223v9.68429l-.00248-.00089a2.876,2.876,0,0,1-1.42318,2.54563L295.4128,406.87753a5.81184,5.81184,0,0,1-5.87026.026l-15.09968-8.74607a2.86689,2.86689,0,0,1-1.42868-2.68124l-.02069.01106Z"/>
        <path class="cls-31" d="M508.78364,248.02993,274.44546,383.4409a2.90583,2.90583,0,0,0-.00259,5.03048l15.09968,8.746a5.81168,5.81168,0,0,0,5.87024-.026L527.55914,259.96525a2.90584,2.90584,0,0,0-.0243-5.01717l-11.96534-6.91744A6.78028,6.78028,0,0,0,508.78364,248.02993Z"/>
      </g>
    </g>
    <g>
      <path class="cls-26" d="M566.30018,405.32436c-.211-.22766-41.25082-23.76634-41.25082-23.76634.21355-1.425-.14457-2.66339-1.06118-3.13992-1.0405-.54085-2.4726.06077-3.59187,1.36346-10.7355-4.44382-20.7842-2.95472-49.10717,13.14809-36.70706,20.86953-46.23481,33.0743-47.15295,44.78966-2.55481,1.21339-3.43047,2.72841-2.8467,4.25733.54034,1.41516,2.22388,1.52891,4.57242.96772.28172-.06731.56621-.07912.83543-.14023l38.72916,22.23828c-.369,1.63683.25489,3.82768,1.28568,4.34351,1.35463.678,3.29214-.72727,4.15838-3.454l.00095-.00217c16.88411-.69972,35.62094-13.02309,50.88163-22.64661,12.68188-7.99741,38.523-18.80895,44.33764-32.52366,2.24121-.00519,4.321-1.3482,4.40592-2.767C570.58292,406.54925,568.5819,405.566,566.30018,405.32436Z"/>
      <path class="cls-26" d="M457.204,471.20133c-.211-.22766-41.25082-23.76634-41.25082-23.76634.21355-1.425.55314-3.11081-.36348-3.58734-1.04049-.54085-3.1703.50819-4.28957,1.81089-14.23811-3.00623-20.7842-2.95473-49.10717,13.14808-36.70706,20.86953-38.93586,30.21353-47.15295,44.78966-2.55481,1.2134-3.91694,2.03345-3.33317,3.56237.54034,1.41517,4.0968,2.14743,5.89432,1.52245l38.72916,22.23828c-.369,1.63683.25489,3.82768,1.28568,4.34351,1.35463.67806,3.29214-.72727,4.15838-3.454l.001-.00216c16.88411-.69973,39.8741-10.97991,55.1348-20.60343,12.68188-7.99741,34.26983-20.85214,40.08447-34.56684,2.24121-.0052,4.42629-1.12533,4.51121-2.5441C461.592,472.6491,459.48573,471.44293,457.204,471.20133Z"/>
    </g>
    <g>
      <path class="cls-32" d="M570.12667,395.43147c-.211-.22766-41.25082-23.76635-41.25082-23.76635.21355-1.425-.14456-2.66338-1.06118-3.13991-1.04049-.54085-2.4726.06077-3.59186,1.36346-10.73551-4.44382-20.78421-2.95472-49.10717,13.14809-36.70707,20.86953-46.23481,33.0743-47.153,44.78966-2.55481,1.21339-3.43046,2.72841-2.84669,4.25732.54033,1.41517,2.22388,1.52892,4.57242.96773.28171-.06732.56621-.07912.83542-.14023L469.253,455.14952c-.369,1.63683.25488,3.82768,1.28568,4.34351,1.35463.67805,3.29214-.72728,4.15838-3.454l.00095-.00216c16.88411-.69972,35.62093-13.0231,50.88163-22.64661,12.68188-7.99742,38.523-18.80895,44.33764-32.52366,2.24121-.00519,4.321-1.3482,4.40592-2.767C574.40942,396.65636,572.4084,395.67307,570.12667,395.43147Z"/>
      <path class="cls-32" d="M461.03051,461.30844c-.21105-.22766-41.25083-23.76634-41.25083-23.76634.21355-1.425.55314-3.11081-.36348-3.58735-1.04049-.54084-3.17029.5082-4.28956,1.81089-14.23811-3.00622-20.78421-2.95472-49.10717,13.14809-36.70706,20.86953-38.93586,30.21353-47.153,44.78966-2.55481,1.2134-3.91693,2.03345-3.33316,3.56237.54033,1.41516,4.09679,2.14743,5.89431,1.52245l38.72917,22.23828c-.369,1.63683.25488,3.82768,1.28568,4.34351,1.35463.678,3.29214-.72727,4.15838-3.454l.00095-.00217c16.88411-.69972,39.8741-10.97991,55.13479-20.60342,12.68188-7.99742,34.26983-20.85214,40.08448-34.56685,2.24121-.00519,4.42629-1.12532,4.51121-2.5441C465.41853,462.75621,463.31223,461.55,461.03051,461.30844Z"/>
    </g>
  </g>
  <g>
    <g>
      <path class="cls-33" d="M249.69873,696.24043,247.338,713.80048c0,2.16758-3.05752,3.92472-6.8291,3.92472s-6.82892-1.75714-6.82892-3.92472l-2.37058-17.56005Z"/>
      <path class="cls-34" d="M201.65354,668.5295l-2.36069,17.56c0,2.16758-3.05752,3.92472-6.8291,3.92472s-6.82892-1.75714-6.82892-3.92472l-2.37058-17.56Z"/>
      <path class="cls-35" d="M327.1905,651.1796l-2.3607,17.56c0,2.16758-3.05752,3.92472-6.8291,3.92472s-6.82891-1.75714-6.82891-3.92472l-2.37058-17.56Z"/>
      <path class="cls-36" d="M181.34723,563.21859V674.8263a4.298,4.298,0,0,0,2.14622,3.73808l52.70031,30.47033a8.597,8.597,0,0,0,4.31033,1.14472V546.84589Z"/>
      <path class="cls-37" d="M240.50409,546.84589V710.17943a8.59746,8.59746,0,0,0,4.31077-1.14472l82.84469-47.82022a4.27884,4.27884,0,0,0,2.16434-3.73808V545.8687Z"/>
      <polygon class="cls-38" points="320.161 561.501 320.161 603.306 250.167 643.71 250.167 601.905 320.161 561.501"/>
      <polygon class="cls-39" points="320.161 612.762 320.161 654.583 250.167 694.987 250.167 653.166 320.161 612.762"/>
      <path class="cls-40" d="M330.75354,531.31509v13.81514a4.312,4.312,0,0,1-2.17411,3.76818L244.858,597.223a8.70546,8.70546,0,0,1-8.71382,0L182.58509,566.2483a4.312,4.312,0,0,1-2.17411-3.76818V548.665Z"/>
      <path class="cls-41" d="M182.58514,544.89688l83.72156-48.3245a8.7051,8.7051,0,0,1,8.71373,0L328.57949,527.547a4.35255,4.35255,0,0,1,0,7.53634l-83.72157,48.32451a8.70508,8.70508,0,0,1-8.71372,0l-53.55906-30.97462A4.35255,4.35255,0,0,1,182.58514,544.89688Z"/>
    </g>
    <g>
      <g>
        <g>
          <path class="cls-26" d="M229.11724,533.86577c2.31681-5.65283,11.10485-9.86437,21.619-9.86437s19.30221,4.21154,21.61894,9.86437h.61689v2.95338c0,7.07906-9.95529,12.81775-22.23583,12.81775s-22.23592-5.73869-22.23592-12.81775v-2.95338Z"/>
          <ellipse class="cls-42" cx="250.73623" cy="533.43075" rx="22.23588" ry="12.81779"/>
          <path class="cls-26" d="M233.90446,530.14012H233.892l.02618-.15529.004-.02485,1.883-11.2597H265.667l1.87063,11.21178c.008.04393.01464.08808.02174.13223l.016.09583h-.00754a5.71225,5.71225,0,0,1,.07277.8275c0,5.3816-7.56859,9.744-16.90442,9.744s-16.904-4.36243-16.904-9.744A5.71191,5.71191,0,0,1,233.90446,530.14012Z"/>
          <ellipse class="cls-42" cx="250.73623" cy="518.91874" rx="14.93093" ry="8.60688"/>
        </g>
        <path class="cls-43" d="M254.1623,494.78465v22.546c0,1.09073-1.5339,1.97494-3.42607,1.97494s-3.42608-.88421-3.42608-1.97494v-22.546Z"/>
      </g>
      <g>
        <path class="cls-44" d="M216.52838,491.94486h-.00179l.00554-.028a11.81463,11.81463,0,0,1,.31745-1.6175l6.90543-41.60024h53.96741l6.90738,41.62322a11.8071,11.8071,0,0,1,.30507,1.555l.01336.06755H284.944a11.544,11.544,0,0,1,.10169,1.44638c0,10.89006-15.361,19.71813-34.30942,19.71813-18.94877,0-34.30974-8.82807-34.30974-19.71813A11.51205,11.51205,0,0,1,216.52838,491.94486Z"/>
        <ellipse class="cls-14" cx="250.73616" cy="450.02895" rx="27.08493" ry="15.56605"/>
        <path class="cls-45" d="M260.82882,464.46636a45.69122,45.69122,0,0,1-20.18519,0v-7.94229h20.18519Z"/>
        <ellipse class="cls-46" cx="250.73616" cy="456.52413" rx="10.09264" ry="5.81787"/>
        <path class="cls-47" d="M250.73617,435.79787c14.19857,0,25.74982,6.384,25.74982,14.231s-11.55125,14.23115-25.74982,14.23115-25.74981-6.38412-25.74981-14.23115,11.55125-14.231,25.74981-14.231m0-1.335c-14.95852,0-27.08491,6.96917-27.08491,15.566,0,8.597,12.12639,15.56614,27.08491,15.56614s27.08492-6.96918,27.08492-15.56614c0-8.59686-12.12639-15.566-27.08492-15.566Z"/>
      </g>
    </g>
  </g>
  <g>
    <g>
      <g>
        <path class="cls-48" d="M469.73989,485.46831l9.97983-43.038-2.7859,2.04279.77515-4.41834a36.73944,36.73944,0,0,0-25.80243,19.31872c-8.23557,15.4156-19.91243,67.13329-19.91243,67.13329l-22.49757,50.3671c-.19512,6.88254,11.29021,12.32009,16.26808,9.86476,13.47112-17.01183,24.15234-36.72167,31.72886-52.62946l2.56691-11.06927a11.53575,11.53575,0,0,0,2.63389-1.59287Z"/>
        <path class="cls-49" d="M460.46838,522.84577l-11.448-33.37754-10.16856,78.71013a325.55494,325.55494,0,0,0,18.63692-34.059l.00463-.01019L460.06006,523.04C460.19725,522.97971,460.33258,522.91135,460.46838,522.84577Z"/>
        <path class="cls-50" d="M477.43341,784.63771s5.76633,18.46451,1.75741,21.34943c-5.55187,3.99528-10.42168,2.03243-18.00467,2.85377-7.24153.78435-15.41117,5.49823-26.566,1.5566-7.342-2.59433-6.74526-7.67923-4.98112-9.70281.90735-1.04077,14.58016-6.07284,14.58016-6.07284l16.69961-9.53079-4.852-41.93453,23.62852,5.21039Z"/>
        <path class="cls-51" d="M443.36054,589.95458c-.41477,59.36239,11.22307,176.66891,11.22307,176.66891.62266,8.28061,27.07753,8.73669,27.45433-1.6964,3.1342-30.4771,3.28744-39.542,3.12986-64.562l6.39583-76.95588Z"/>
        <path class="cls-50" d="M528.41522,813.11117s2.31509,11.20795,1.01012,15.47153c-.81193,2.65272-3.06132,6.17452-5.13577,11.04774-1.53159,3.59794-3.09164,8.24866-9.781,12.5367-10.40124,6.66744-21.74051.934-17.43379-7.46625l5.43287-10.28592,10.47289-20.14956-3.96164-39.9677h21.81093Z"/>
        <path class="cls-52" d="M535.67669,626.58921c-1.09055-44.83358-4.99027-68.89056-4.99027-68.89056l-84.33111-20.27043-2.99476,52.52638,33.16553,39.90595,29.34233,156.63513c2.18109,10.58234,27.28429,7.99821,27.60994-.65416,1.34258-20.22079,2.03731-39.65066,1.30974-78.18833C534.78809,707.65319,536.59228,664.23043,535.67669,626.58921Z"/>
        <path class="cls-53" d="M532.194,570.55676c-.40415-3.78327-.75963-6.84169-1.02427-9.02485L446.12455,541.4718l-.97,17.01779c3.70774,11.9681,14.399,22.22137,31.10464,26.06583C496.17523,589.13818,524.7048,580.95742,532.194,570.55676Z"/>
        <path class="cls-54" d="M497.19821,440.22623c-12.84526-5.25042-41.44729,3.50481-42.4609,30.72119C449.6601,480.52,446.959,494.19,449.6601,509.96476l-2.92639,22.34291c-1.0237,5.52661-1.34718,10.82592-.11056,15.31987,3.33646,12.12494,13.29287,20.945,29.7916,24.81434,22.74412,5.334,56.58124-6.872,55.9903-19.56555l-3.081-18.80012,7.24124-54.77782C533.13208,459.37351,510.34423,445.59958,497.19821,440.22623Z"/>
        <path class="cls-55" d="M483.57626,458.911c-7.63421,14.47885-11.01382,37.39434-10.19859,50.32668l-9.43129,58.95855"/>
        <g>
          <path class="cls-53" d="M478.66976,455.03209c.25424,12.26169,30.33779,9.18881,28.8661-3.92825l-.95223-10.89222c-.171-10.88506-27.91387-6.77539-27.91387,3.973Z"/>
          <ellipse class="cls-52" cx="492.68269" cy="441.14043" rx="12.3152" ry="7.12162" transform="translate(-53.64523 68.49191) rotate(-7.543)"/>
        </g>
        <path class="cls-49" d="M532.405,552.87638l-.01494-.09177-2.43529-9.08534-17.58346-40.01315.29986,42.67508-20.4537,9.94784,26.59441,10.79808C527.05583,563.23694,532.64825,558.09941,532.405,552.87638Z"/>
        <path class="cls-56" d="M536.56528,479.29837c-4.66525-15.8129-26.42284,2.77875-24.19384,24.38774l6.19279,35.451-22.68853-1.66257a64.326,64.326,0,0,1-2.53307,14.7807s43.11781,19.32736,50.32853,7.2317C550.98682,547.21518,540.44264,492.38493,536.56528,479.29837Z"/>
      </g>
      <g>
        <g>
          <path class="cls-57" d="M471.62535,549.27152l-9.86166-5.69363c-3.84914-2.2223-3.83478-9.45315.032-16.15056s10.12165-10.32523,13.97079-8.10293l9.86166,5.69363Z"/>
          <ellipse class="cls-51" cx="478.62673" cy="537.14478" rx="14.00276" ry="8.04756" transform="translate(-225.86766 683.0753) rotate(-60)"/>
        </g>
        <path class="cls-50" d="M488.16872,532.47722c-5.16489-.4432-10.72459,4.645-11.089,8.04218s1.52184,10.23594,4.87911,11.73926,12.15572,3.41462,12.15572,3.41462l6.77216-15.27181S493.33361,532.92042,488.16872,532.47722Z"/>
        <g>
          <path class="cls-57" d="M498.73305,564.76179l-9.86166-5.69364c-3.84914-2.2223-3.83478-9.45315.032-16.15056s10.12165-10.32523,13.97079-8.10293l9.86166,5.69363Z"/>
          <path class="cls-51" d="M515.41449,544.73575l.0007-.0052.00335.02232c.02883.15023.04707.30792.06943.463l.59738,3.98574-.59154-.56591a22.61385,22.61385,0,0,1-8.34709,14.45379l.78773.22989-3.88328,1.52776c-.09088.03491-.1823.07565-.27288.10733l-.051.02.01-.00782a5.95085,5.95085,0,0,1-5.00424-.20491c-3.84914-2.2223-3.8347-9.45311.03205-16.15052s10.12157-10.32528,13.97071-8.103A5.94918,5.94918,0,0,1,515.41449,544.73575Z"/>
          <ellipse class="cls-52" cx="508.80822" cy="554.40967" rx="10.38626" ry="5.96911" transform="translate(-225.72875 717.84568) rotate(-60)"/>
        </g>
      </g>
      <g>
        <g>
          <path class="cls-57" d="M397.6263,586.65068l-9.917-5.7256c-3.87074-2.23477-3.8563-9.50622.03215-16.24122s10.17847-10.3832,14.04922-8.14842l9.917,5.72559Z"/>
          <ellipse class="cls-51" cx="404.66699" cy="574.45586" rx="14.08137" ry="8.09274" transform="matrix(0.5, -0.86603, 0.86603, 0.5, -295.15987, 637.67982)"/>
        </g>
        <path class="cls-50" d="M412.79328,568.26812c-4.0271-.82112-10.96461,5.60707-11.089,8.2257-.20523,4.32034,1.96227,9.6102,4.87911,11.55574s12.1292,4.135,12.1292,4.135l6.79868-15.9922S416.82039,569.08924,412.79328,568.26812Z"/>
        <g>
          <path class="cls-57" d="M424.88618,602.2279l-9.917-5.7256c-3.87075-2.23477-3.85631-9.50622.03215-16.24123s10.17847-10.38319,14.04921-8.14841l9.917,5.72559Z"/>
          <path class="cls-51" d="M441.66126,582.08945l.0007-.00524.00337.02245c.029.15107.04734.30965.06982.46561l.60074,4.00812-.59486-.56909a22.74083,22.74083,0,0,1-8.394,14.53493l.79216.23119-3.90508,1.53633c-.09139.03511-.18332.07607-.27442.10793l-.05124.02014.01-.00786a5.98427,5.98427,0,0,1-5.03232-.20606c-3.87075-2.23478-3.85623-9.50618.03222-16.24119s10.1784-10.38323,14.04914-8.14846A5.98258,5.98258,0,0,1,441.66126,582.08945Z"/>
          <ellipse class="cls-52" cx="435.0179" cy="591.81767" rx="10.44456" ry="6.00262" transform="translate(-295.02018 672.64539) rotate(-60)"/>
        </g>
      </g>
    </g>
    <g>
      <g>
        <path class="cls-58" d="M479.42383,400.73928c-6.9265-2.01862-11.86729,5.97275-7.14875,11.65574-3.48932,6.88557,3.564,13.04981,3.564,13.04981l1.94844-10.23241c.02135.00269.04161.00785.063.01018a7.2841,7.2841,0,0,0,8.02821-6.455C486.3132,404.76818,483.28615,401.86493,479.42383,400.73928Z"/>
        <path class="cls-50" d="M486.82969,449.90559c10.393-.506,16.65448-4.9256,18.90564-14.2134l4.83416-20.08788c2.17651-8.04906-3.75869-17.11111-13.30393-18.819-8.34241-1.49267-18.18643,3.86042-19.84446,13.1012a189.77015,189.77015,0,0,0-2.19688,20.69118C474.92136,439.83917,477.38466,450.36548,486.82969,449.90559Z"/>
        <path class="cls-59" d="M518.679,408.45963c2.32894-7.11324-3.96537-13.65594-10.405-12.43446-1.74785-8.84943-14.53064-10.52825-18.937-4.47782-5.97206-4.03327-18.38227,1.10122-15.35387,13.13956.29063,2.1384,1.863,6.00767,6.63662,4.81687-.1494,4.04748,6.74772,8.24761,11.54738,3.254-1.71275,5.95214,5.68411,9.13188,9.0269,7.66551-2.77636,5.75286,1.59209,9.04812,2.64173,10.20617-1.82262,4.77217-3.05925,9.613-1.93528,13.05614a7.98512,7.98512,0,0,0,6.72808-6.23866,8.2628,8.2628,0,0,0,5.08886-3.75681,8.86269,8.86269,0,0,0,1.47694-4.77257,5.75444,5.75444,0,0,0,3.88318-8.42469C522.12825,417.67931,522.85279,411.00936,518.679,408.45963Z"/>
      </g>
      <path class="cls-50" d="M503.56871,438.26393c3.59724.36948,7.14129-4.34227,7.56055-8.42425s-2.76219-7.88035-6.04226-6.35791C500.96945,425.39293,499.97146,437.89445,503.56871,438.26393Z"/>
    </g>
  </g>
  <g>
    <g>
      <polygon class="cls-60" points="424.618 186.441 466.917 161.98 466.917 226.126 424.618 250.587 424.618 186.441"/>
      <polygon class="cls-61" points="424.618 189.784 457.765 170.616 457.765 220.883 424.618 240.052 424.618 189.784"/>
      <path class="cls-62" d="M463.1237,168.55574V223.938l-34.71245,20.07381v-55.3823l34.71245-20.07379m3.79314-6.57525-42.29873,24.46084v64.14575l42.29873-24.46086V161.98049Z"/>
      <polygon class="cls-63" points="417.769 246.644 417.769 182.498 424.618 186.441 424.618 250.587 417.769 246.644"/>
      <polygon class="cls-64" points="417.769 182.498 460.082 158.046 466.917 161.98 424.618 186.441 417.769 182.498"/>
    </g>
    <g>
      <polygon class="cls-65" points="368.816 244.938 411.115 220.477 411.115 284.623 368.816 309.084 368.816 244.938"/>
      <polygon class="cls-66" points="368.816 248.281 401.963 229.113 401.963 279.38 368.816 298.548 368.816 248.281"/>
      <path class="cls-67" d="M407.32147,227.05267V282.435L372.609,302.50876v-55.3823l34.71246-20.07379m3.79314-6.57525-42.29874,24.46084V309.084l42.29874-24.46086V220.47742Z"/>
      <polygon class="cls-68" points="361.967 305.141 361.967 240.995 368.816 244.938 368.816 309.084 361.967 305.141"/>
      <polygon class="cls-69" points="361.967 240.995 404.28 216.543 411.115 220.477 368.816 244.938 361.967 240.995"/>
    </g>
    <g>
      <polygon class="cls-70" points="313.014 235.255 355.312 210.795 355.312 274.94 313.014 299.401 313.014 235.255"/>
      <polygon class="cls-71" points="313.014 238.598 346.161 219.43 346.161 269.697 313.014 288.866 313.014 238.598"/>
      <path class="cls-72" d="M351.51923,217.36983v55.38228l-34.71246,20.07381v-55.3823l34.71246-20.07379m3.79314-6.57525-42.29874,24.46084v64.14575l42.29874-24.46086V210.79458Z"/>
      <polygon class="cls-73" points="306.164 295.458 306.164 231.312 313.014 235.255 313.014 299.401 306.164 295.458"/>
      <polygon class="cls-74" points="306.164 231.312 348.477 206.86 355.312 210.795 313.014 235.255 306.164 231.312"/>
    </g>
  </g>
  <g>
    <path class="cls-75" d="M156.17372,607.53468l-46.88367,27.0576.00008-6.96969-8.37074-279.82333,46.89255-27.04281,8.36178,4.82606Z"/>
    <polygon class="cls-76" points="147.812 330.408 147.784 602.733 109.29 624.945 109.29 620.102 143.57 600.331 143.57 332.857 147.812 330.408"/>
    <polygon class="cls-77" points="156.174 325.583 156.17 607.538 109.29 634.592 109.29 624.945 147.812 602.717 147.812 330.408 156.174 325.583"/>
    <path class="cls-78" d="M100.91939,649.09987,164.548,612.37654V311.07l-63.62863,36.72922Zm8.37066-14.50759V352.641l46.87964-27.05877V607.53836Z"/>
  </g>
  <g>
    <g>
      <path class="cls-79" d="M124.15993,669.85086l67.9345.162L183.49557,723.189c-.72863,7.71863-11.81722,13.85318-25.4292,13.85318-13.61265,0-24.70056-6.13455-25.4292-13.85318Z"/>
      <ellipse class="cls-14" cx="158.14484" cy="667.46084" rx="34.23529" ry="19.67545"/>
      <path class="cls-80" d="M128.44247,677.23611c5.90828,5.93595,17.011,9.89331,29.70777,9.89331s23.79882-3.95736,29.70777-9.89331c-3.7653-7.365-15.63687-12.7515-29.70777-12.7515S132.20777,669.87106,128.44247,677.23611Z"/>
      <path class="cls-47" d="M158.14478,652.46264c17.41889,0,29.55817,7.90429,29.55817,14.99819,0,7.094-12.13928,14.99827-29.55817,14.99827s-29.55817-7.9043-29.55817-14.99827c0-7.0939,12.13927-14.99819,29.55817-14.99819m0-4.67722c-18.90762,0-34.23533,8.80895-34.23533,19.67541s15.32771,19.67549,34.23533,19.67549,34.23532-8.809,34.23532-19.67549-15.32771-19.67541-34.23532-19.67541Z"/>
    </g>
    <path class="cls-81" d="M169.16821,621.69777c16.05015-2.47065,47.63987-12.88506,41.0286-24.79918S172.84006,598.74663,169.16821,621.69777Z"/>
    <path class="cls-80" d="M162.12359,671.86267a1.26361,1.26361,0,0,0,1.26416-1.26374c0-34.11454,6.20771-56.35515,20.75771-74.36786a1.26406,1.26406,0,0,0-1.967-1.58814c-14.94291,18.49972-21.319,41.215-21.319,75.956A1.26361,1.26361,0,0,0,162.12359,671.86267Z"/>
    <path class="cls-80" d="M156.45407,671.86267a1.26362,1.26362,0,0,0,1.26416-1.26374c0-32.131,0-76.13677-16.13979-96.11816a1.26406,1.26406,0,0,0-1.967,1.58815c15.57849,19.28719,15.57849,62.7754,15.57849,94.53A1.26362,1.26362,0,0,0,156.45407,671.86267Z"/>
    <path class="cls-80" d="M155.85976,637.37091a1.26418,1.26418,0,0,0,1.25879-1.16057c2.09661-25.69589,7.66584-43.16051,17.52694-54.961a1.264,1.264,0,0,0-1.93978-1.62116c-10.21232,12.22061-15.96562,30.13509-18.10722,56.37578a1.264,1.264,0,0,0,1.15726,1.36279C155.79083,637.37009,155.8255,637.37091,155.85976,637.37091Z"/>
    <path class="cls-82" d="M161.39124,604.09823c15.20815-11.37982,39.89155-41.34029,26.513-50.00128S152.55544,578.3876,161.39124,604.09823Z"/>
    <path class="cls-83" d="M155.85847,649.4288c-12.72465-1.67941-37.17561-11.17711-32.154-20.7039S152.56682,631.3555,155.85847,649.4288Z"/>
    <path class="cls-80" d="M156.40248,657.46538c.03013,0,.06067-.00083.09121-.0033a1.26351,1.26351,0,0,0,1.17089-1.35042c-1.57329-22.01361-11.38362-45.25217-27.09006-47.07474a1.26391,1.26391,0,1,0-.29138,2.511c14.34034,1.66409,23.36073,23.7685,24.85972,44.74371A1.26367,1.26367,0,0,0,156.40248,657.46538Z"/>
    <path class="cls-80" d="M162.65641,655.44636a1.265,1.265,0,0,0,1.25426-1.12095c1.63725-14.29081,14.789-24.44122,21.46593-26.6988a1.26429,1.26429,0,0,0-.80975-2.39542c-7.2069,2.43752-21.40155,13.38943-23.168,28.807a1.26373,1.26373,0,0,0,1.11186,1.39912A1.2435,1.2435,0,0,0,162.65641,655.44636Z"/>
    <path class="cls-84" d="M169.16821,638.006c13.42919-.14344,40.96041-4.54118,36.94287-15.0691S174.8615,619.64628,169.16821,638.006Z"/>
    <path class="cls-85" d="M174.00885,609.03306c11.30865-9.16325,29.97408-32.39548,19.474-38.63181S166.48312,589.60733,174.00885,609.03306Z"/>
    <path class="cls-86" d="M148.52446,624.44816c-20.93075-5.60751-59.77207-26.879-49.27283-41.7224S146.98632,593.47186,148.52446,624.44816Z"/>
    <path class="cls-87" d="M151.41541,599.33713c-14.235-10.65165-38.08136-35.69621-25.55891-43.803S159.68581,575.27169,151.41541,599.33713Z"/>
  </g>
</svg>
